<?xml version="1.0" encoding="UTF-8" standalone="no"?><svg xmlns="http://www.w3.org/2000/svg" xmlns:xlink="http://www.w3.org/1999/xlink" contentScriptType="application/ecmascript" contentStyleType="text/css" height="298px" preserveAspectRatio="none" style="width:612px;height:298px;" version="1.1" viewBox="0 0 612 298" width="612px" zoomAndPan="magnify"><defs><filter height="300%" id="fe2q1kx" width="300%" x="-1" y="-1"><feGaussianBlur result="blurOut" stdDeviation="2.0"/><feColorMatrix in="blurOut" result="blurOut2" type="matrix" values="0 0 0 0 0 0 0 0 0 0 0 0 0 0 0 0 0 0 .4 0"/><feOffset dx="4.0" dy="4.0" in="blurOut2" result="blurOut3"/><feBlend in="SourceGraphic" in2="blurOut3" mode="normal"/></filter></defs><g><text fill="#000000" font-family="sans-serif" font-size="18" lengthAdjust="spacingAndGlyphs" textLength="324" x="148.5" y="17.4023">ドメインモデル図：ブログカテゴリ管理</text><!--cluster ブログカテゴリ管理--><polygon fill="#FFFFFF" filter="url(#fe2q1kx)" points="22,45.1992,22,45.3956,32.1538,45.4922,42.3077,45.6722,52.4615,45.0545,62.6154,45.8139,72.7692,44.8981,82.9231,45.1065,93.0769,45.448,103.2308,44.8773,113.3846,44.5609,123.5385,44.6742,133.6923,45.2548,143.8462,44.8658,154,45.1992,154.2254,45.2694,155.343,49.6791,156.8248,54.2023,158.4098,58.7575,159.6109,63.1932,161,67.6875,161,67.8591,171.0303,67.0954,181.0606,67.0903,191.0909,67.4291,201.1212,67.3386,211.1515,67.1216,221.1818,67.2016,231.2121,67.4069,241.2424,67.8838,251.2727,67.0409,261.303,66.9991,271.3333,68.3746,281.3636,68.2023,291.3939,67.7294,301.4242,68.3328,311.4545,68.0248,321.4848,67.9211,331.5152,68.2812,341.5455,67.2535,351.5758,67.313,361.6061,67.9298,371.6364,68.24,381.6667,67.7219,391.697,67.7824,401.7273,67.9142,411.7576,67.5241,421.7879,68.3086,431.8182,67.8596,441.8485,68.2077,451.8788,67.7979,461.9091,67.4763,471.9394,68.129,481.9697,68.3651,492,67.6875,492.3644,67.6875,491.8809,77.8471,492.4816,88.0067,491.5876,98.1664,491.7437,108.326,492.3624,118.4856,491.9524,128.6452,491.4954,138.8049,492.2089,148.9645,492.1717,159.1241,492.7303,169.2837,492.5062,179.4434,492.4245,189.603,492.7468,199.7626,492.5196,209.9222,491.9719,220.0819,491.3389,230.2415,491.3823,240.4011,492.0155,250.5607,492.1439,260.7203,491.2686,270.88,492.5581,281.0396,492,291.1992,492,291.0494,482,291.2905,472,290.5952,462,290.4582,452,291.9346,442,291.3407,432,291.1702,422,291.766,412,290.6,402,291.7008,392,291.8343,382,291.6644,372,291.8395,362,290.9534,352,291.8967,342,290.5456,332,290.6979,322,291.8052,312,291.5531,302,291.3415,292,291.568,282,291.7852,272,291.4782,262,291.0367,252,290.7272,242,291.05,232,290.9181,222,291.5332,212,291.1073,202,291.5583,192,291.3767,182,291.4526,172,290.8802,162,291.1169,152,291.2203,142,290.4583,132,291.7433,122,291.6852,112,291.5207,102,291.5727,92,291.6027,82,291.3486,72,291.7201,62,291.245,52,291.1888,42,290.5362,32,291.2292,22,291.1992,21.9011,291.1992,21.7845,281.3592,22.6633,271.5192,22.6627,261.6792,22.6611,251.8392,21.5054,241.9992,21.7205,232.1592,21.8715,222.3192,21.6822,212.4792,21.2689,202.6392,22.2341,192.7992,22.0709,182.9592,22.4006,173.1192,21.4539,163.2792,22.2195,153.4392,21.9286,143.5992,21.7101,133.7592,22.6933,123.9192,21.6501,114.0792,21.8571,104.2392,21.4205,94.3992,21.8497,84.5592,21.6496,74.7192,22.0637,64.8792,21.4648,55.0392,22,45.1992" style="stroke: #000000; stroke-width: 2.0;"/><path d="M22,67.6875 L22,67.385 L31.9286,67.5188 L41.8571,66.887 L51.7857,68.2568 L61.7143,67.1489 L71.6429,67.734 L81.5714,67.5634 L91.5,67.3682 L101.4286,68.078 L111.3571,68.2984 L121.2857,68.1885 L131.2143,68.0302 L141.1429,67.3178 L151.0714,68.5072 L161,67.6875 " fill="#FFFFFF" style="stroke: #000000; stroke-width: 2.0;"/><text fill="#000000" font-family="sans-serif" font-size="14" font-weight="bold" lengthAdjust="spacingAndGlyphs" textLength="126" x="26" y="60.7344">ブログカテゴリ管理</text><!--class ブログカテゴリ--><polygon fill="#FEFECE" filter="url(#fe2q1kx)" points="279,80.1992,279,80.6104,288.6667,80.5994,298.3333,79.5748,308,80.5077,317.6667,79.6572,327.3333,80.9119,337,80.7629,346.6667,80.7276,356.3333,79.6457,366,79.7605,375.6667,80.5344,385.3333,79.6794,395,80.1992,395.2047,80.1992,395.1357,90.0574,395.4391,99.9155,395.4413,109.7737,395.5271,119.6318,395.4614,129.49,394.7362,139.3481,395.3565,149.2063,395,159.0645,395,158.3691,385.3333,159.3966,375.6667,159.0971,366,159.5733,356.3333,158.4592,346.6667,159.5417,337,158.98,327.3333,159.2171,317.6667,158.5239,308,159.1501,298.3333,158.8404,288.6667,159.7571,279,159.0645,278.8013,159.0645,279.5165,149.2063,279.3414,139.3481,278.3302,129.49,279.3099,119.6318,279.1186,109.7737,278.6818,99.9155,279.0732,90.0574,279,80.1992" style="stroke: #A80036; stroke-width: 1.5;"/><polygon fill="#ADD1B2" points="304.5551,99.076,303.1918,101.1217,301.2111,103.9026,299.2043,105.444,297.0896,106.7929,294.3912,107.1731,292.2578,107.4941,290.2568,107.0707,287.9419,105.3063,285.7317,102.5597,284.2306,101.0719,283.789,97.922,282.7174,95.1468,283.9983,92.8575,284.5975,90.2747,286.3876,87.3459,289.1614,86.6422,290.8992,85.3881,293.7019,84.7253,297.6086,85.4166,300.3462,86.4196,302.3925,88.3475,303.7307,90.3286,304.5916,92.6491,304.6383,94.7131,305.067,96.7853" style="stroke: #A80036; stroke-width: 1.0;"/><path d="M296.4731,102.3423 Q295.8921,102.6411 295.2529,102.7905 Q294.6138,102.9399 293.9082,102.9399 Q291.4014,102.9399 290.0815,101.2881 Q288.7617,99.6362 288.7617,96.5151 Q288.7617,93.3857 290.0815,91.7339 Q291.4014,90.082 293.9082,90.082 Q294.6138,90.082 295.2612,90.2314 Q295.9087,90.3809 296.4731,90.6797 L296.4731,93.4023 Q295.8423,92.8213 295.2488,92.5515 Q294.6553,92.2817 294.0244,92.2817 Q292.6797,92.2817 291.9949,93.3484 Q291.3101,94.415 291.3101,96.5151 Q291.3101,98.6069 291.9949,99.6736 Q292.6797,100.7402 294.0244,100.7402 Q294.6553,100.7402 295.2488,100.4705 Q295.8423,100.2007 296.4731,99.6196 Z "/><text fill="#000000" font-family="sans-serif" font-size="12" lengthAdjust="spacingAndGlyphs" textLength="84" x="308" y="100.7344">ブログカテゴリ</text><path d="M280,112.1992 L280,112.5563 L290.3636,111.2494 L300.7273,112.3376 L311.0909,111.4687 L321.4545,112.9883 L331.8182,111.2073 L342.1818,112.5977 L352.5455,111.454 L362.9091,111.7748 L373.2727,112.8265 L383.6364,112.7457 L394,112.1992 " fill="#FEFECE" style="stroke: #A80036; stroke-width: 1.5;"/><text fill="#000000" font-family="sans-serif" font-size="11" lengthAdjust="spacingAndGlyphs" textLength="55" x="285" y="126.834">カテゴリ名</text><text fill="#000000" font-family="sans-serif" font-size="11" lengthAdjust="spacingAndGlyphs" textLength="88" x="285" y="139.7891">カテゴリタイトル</text><text fill="#000000" font-family="sans-serif" font-size="11" lengthAdjust="spacingAndGlyphs" textLength="66" x="285" y="152.7441">親カテゴリID</text><polygon fill="#FBFB77" filter="url(#fe2q1kx)" points="38.5,219.1992,38.8881,219.1992,39.0215,228.5212,38.5647,237.8431,39.2311,247.165,37.8983,256.487,38.8975,265.8089,38.5,275.1309,38.5,274.9982,48.4318,274.978,58.3636,275.2894,68.2955,275.0379,78.2273,274.9492,88.1591,275.1076,98.0909,274.6408,108.0227,274.6257,117.9545,274.9282,127.8864,275.2204,137.8182,275.7062,147.75,275.6845,157.6818,275.1296,167.6136,275.5433,177.5455,274.9707,187.4773,275.6747,197.4091,275.3087,207.3409,274.5662,217.2727,275.2873,227.2045,274.4024,237.1364,275.3005,247.0682,275.658,257,274.4894,266.9318,274.5453,276.8636,274.6852,286.7955,274.4248,296.7273,275.1436,306.6591,274.7294,316.5909,274.8287,326.5227,275.4795,336.4545,275.4702,346.3864,274.4432,356.3182,274.783,366.25,274.8394,376.1818,275.0911,386.1136,275.3198,396.0455,274.668,405.9773,275.2408,415.9091,275.5395,425.8409,274.8313,435.7727,275.1905,445.7045,275.2353,455.6364,275.3796,465.5682,274.7184,475.5,275.1309,475.7461,275.1309,475.4077,265.9445,475.7085,256.7582,474.8875,247.5719,474.7806,238.3855,475.5,229.1992,475.5181,229.2173,473.4827,227.1819,471.4379,225.1371,469.3916,223.0908,467.5541,221.2533,465.5,219.1992,465.5,219.4473,455.5698,218.8939,445.6395,219.2157,435.7093,219.857,425.7791,219.6809,415.8488,219.8826,405.9186,218.9988,395.9884,219.0514,386.0581,219.8504,376.1279,219.9294,366.1977,218.8645,356.2674,219.3272,346.3372,219.7266,336.407,218.7873,326.4767,218.7872,316.5465,219.937,306.6163,219.8292,296.686,219.1324,286.7558,219.8465,276.8256,219.7593,266.8953,219.1262,256.9651,219.9478,247.0349,219.0447,237.1047,219.8787,227.1744,219.3374,217.2442,219.3672,207.314,218.9951,197.3837,219.6099,187.4535,219.0715,177.5233,218.6902,167.593,218.764,157.6628,219.7732,147.7326,218.9854,137.8023,218.9764,127.8721,218.8721,117.9419,219.7987,108.0116,219.2595,98.0814,219.094,88.1512,219.5687,78.2209,219.5223,68.2907,219.9208,58.3605,218.8276,48.4302,219.4951,38.5,219.1992" style="stroke: #A80036; stroke-width: 1.0;"/><polygon fill="#FBFB77" points="38.5,219.1992,38.6392,219.1992,38.2353,228.5212,38.4492,237.8431,38.5425,247.165,38.9903,256.487,38.3051,265.8089,38.5,275.1309,38.5,275.4413,48.4318,275.0192,58.3636,275.6384,68.2955,275.1192,78.2273,275.4921,88.1591,274.813,98.0909,274.5963,108.0227,275.6695,117.9545,274.8951,127.8864,275.0202,137.8182,275.2045,147.75,274.9633,157.6818,274.9917,167.6136,274.4115,177.5455,274.6447,187.4773,274.9544,197.4091,274.8861,207.3409,275.2145,217.2727,275.1506,227.2045,275.827,237.1364,274.6051,247.0682,274.7833,257,275.3427,266.9318,275.3861,276.8636,275.8524,286.7955,274.4696,296.7273,274.4538,306.6591,275.7322,316.5909,275.4919,326.5227,274.8891,336.4545,274.5265,346.3864,274.915,356.3182,275.2861,366.25,275.6913,376.1818,274.6153,386.1136,274.5523,396.0455,275.5665,405.9773,275.7313,415.9091,275.5069,425.8409,275.3291,435.7727,275.4313,445.7045,275.2339,455.6364,275.4538,465.5682,275.3636,475.5,275.1309,476.1194,275.1309,474.9885,265.9445,475.2951,256.7582,476.0061,247.5719,476.0764,238.3855,475.5,229.1992,475.4988,229.198,473.3281,227.0274,471.5957,225.295,469.4275,223.1268,467.5229,221.2221,465.5,219.1992,465.5,219.8263,455.6495,218.6269,445.7989,218.4575,435.9484,219.1663,426.0979,219.436,416.2474,219.4032,406.3968,219.043,396.5463,219.5666,386.6958,219.1505,376.8453,218.5199,366.9947,219.2743,357.1442,218.5945,347.2937,219.4252,337.4432,218.474,327.5926,218.8355,317.7421,218.6227,307.8916,218.9464,298.0411,219.698,288.1905,218.7048,278.34,219.1992,278.2453,219.1454,282.7888,210.4214,288.5455,202.387,293.1179,193.6794,297.5991,184.92,302.7043,176.5153,307.5018,167.9357,312.34,159.3792,312.8997,159.7722,306.6723,168.1582,300.2828,176.4305,294.5767,185.1825,287.834,193.2068,282.698,202.3591,276.1362,210.5104,270.34,219.1992,270.34,218.8616,260.26,219.6433,250.18,219.5304,240.1,219.1697,230.02,219.9248,219.94,218.862,209.86,218.5897,199.78,219.5189,189.7,219.5793,179.62,219.8646,169.54,219.4067,159.46,219.7008,149.38,218.9307,139.3,219.5758,129.22,218.7976,119.14,219.8159,109.06,218.4554,98.98,219.3975,88.9,218.9795,78.82,219.4978,68.74,219.6936,58.66,219.4583,48.58,219.0387,38.5,219.1992" style="stroke: #A80036; stroke-width: 1.0;"/><path d="M465.5,219.1992 L465.1699,219.1992 L465.4877,221.1992 L465.4034,223.1992 L465.616,225.1992 L465.5887,227.1992 L465.5,229.1992 " fill="#FBFB77" style="stroke: #A80036; stroke-width: 1.0;"/><path d="M475.5,229.1992 L475.5,229.4937 L473.5,229.462 L471.5,228.9329 L469.5,229.3672 L467.5,228.9921 L465.5,229.1992 " fill="#FBFB77" style="stroke: #A80036; stroke-width: 1.0;"/><text fill="#000000" font-family="sans-serif" font-size="13" lengthAdjust="spacingAndGlyphs" textLength="416" x="44.5" y="236.7676">・カテゴリ名は半角英数字とハイフン、アンダースコアのみを許容する</text><text fill="#000000" font-family="sans-serif" font-size="13" lengthAdjust="spacingAndGlyphs" textLength="195" x="44.5" y="252.0781">・カテゴリ名の重複は許容しない</text><text fill="#000000" font-family="sans-serif" font-size="13" lengthAdjust="spacingAndGlyphs" textLength="169" x="44.5" y="267.3887">・親カテゴリは必須ではない</text><!--class 親カテゴリ--><polygon fill="#FEFECE" filter="url(#fe2q1kx)" points="511,227.1992,511,226.6876,521.2222,226.4799,531.4444,226.5252,541.6667,227.8205,551.8889,226.4652,562.1111,226.6747,572.3333,227.8483,582.5556,227.7734,592.7778,226.5376,603,227.1992,602.8832,227.1992,602.8588,235.1992,602.9363,243.1992,603.1793,251.1992,603.1553,259.1992,603,267.1992,603,267.0262,592.7778,267.885,582.5556,267.096,572.3333,267.355,562.1111,266.9043,551.8889,267.7888,541.6667,267.501,531.4444,267.1935,521.2222,267.4204,511,267.1992,510.9564,267.1992,511.2435,259.1992,510.7552,251.1992,511.143,243.1992,510.9416,235.1992,511,227.1992" style="stroke: #A80036; stroke-width: 1.5;"/><polygon fill="#ADD1B2" points="535.9202,246.6533,536.0512,249.0803,533.8386,250.6344,531.1494,252.4895,527.9565,254.7114,525.0165,253.9524,522.4128,253.9931,519.5674,252.4775,517.2098,250.3241,515.6693,248.1719,514.8017,244.719,514.7707,241.9906,515.9962,239.5727,517.1855,237.0196,518.6145,235.4599,521.5465,233.084,524.134,232.5388,526.3251,232.6933,528.4337,232.049,530.1021,233.5929,532.5511,234.7842,534.3451,236.0676,536.2316,238.2997,537.0554,240.7229,537.3241,244.0918" style="stroke: #A80036; stroke-width: 1.0;"/><path d="M528.4731,249.3423 Q527.8921,249.6411 527.2529,249.7905 Q526.6138,249.9399 525.9082,249.9399 Q523.4014,249.9399 522.0815,248.2881 Q520.7617,246.6362 520.7617,243.5151 Q520.7617,240.3857 522.0815,238.7339 Q523.4014,237.082 525.9082,237.082 Q526.6138,237.082 527.2612,237.2314 Q527.9087,237.3809 528.4731,237.6797 L528.4731,240.4023 Q527.8423,239.8213 527.2488,239.5515 Q526.6553,239.2817 526.0244,239.2817 Q524.6797,239.2817 523.9949,240.3484 Q523.3101,241.415 523.3101,243.5151 Q523.3101,245.6069 523.9949,246.6736 Q524.6797,247.7402 526.0244,247.7402 Q526.6553,247.7402 527.2488,247.4705 Q527.8423,247.2007 528.4731,246.6196 Z "/><text fill="#000000" font-family="sans-serif" font-size="12" lengthAdjust="spacingAndGlyphs" textLength="60" x="540" y="247.7344">親カテゴリ</text><path d="M512,259.1992 L512,259.396 L522,259.9805 L532,259.0874 L542,258.2483 L552,259.7921 L562,258.3086 L572,259.4229 L582,258.4329 L592,259.5422 L602,259.1992 " fill="#FEFECE" style="stroke: #A80036; stroke-width: 1.5;"/><path d="M395.09,153.8392 L394.7304,153.2088 L404.0464,159.4092 L411.981,163.1877 L420.742,168.4151 L429.7294,174.0393 L437.856,178.1545 L446.8612,183.81 L454.887,187.7484 L463.2542,192.2854 L472.1375,197.7271 L480.9726,203.0844 L489.0671,207.1434 L498.3741,213.3278 L506.5886,217.5971 L515.3552,222.8343 L523.59,227.1392 " fill="none" style="stroke: #A80036; stroke-width: 1.0;"/><text fill="#000000" font-family="sans-serif" font-size="13" lengthAdjust="spacingAndGlyphs" textLength="22" x="403.0785" y="154.5136">0..*</text><text fill="#000000" font-family="sans-serif" font-size="13" lengthAdjust="spacingAndGlyphs" textLength="8" x="504.1332" y="216.3149">1</text></g></svg>