<?xml version="1.0" encoding="UTF-8" standalone="no"?><svg xmlns="http://www.w3.org/2000/svg" xmlns:xlink="http://www.w3.org/1999/xlink" contentScriptType="application/ecmascript" contentStyleType="text/css" height="255px" preserveAspectRatio="none" style="width:337px;height:255px;" version="1.1" viewBox="0 0 337 255" width="337px" zoomAndPan="magnify"><defs><filter height="300%" id="f1q964h" width="300%" x="-1" y="-1"><feGaussianBlur result="blurOut" stdDeviation="2.0"/><feColorMatrix in="blurOut" result="blurOut2" type="matrix" values="0 0 0 0 0 0 0 0 0 0 0 0 0 0 0 0 0 0 .4 0"/><feOffset dx="4.0" dy="4.0" in="blurOut2" result="blurOut3"/><feBlend in="SourceGraphic" in2="blurOut3" mode="normal"/></filter></defs><g><text fill="#000000" font-family="sans-serif" font-size="18" lengthAdjust="spacingAndGlyphs" textLength="324" x="12.5" y="17.4023">ドメインモデル図：コンテンツフォルダ</text><!--cluster コンテンツフォルダ--><polygon fill="#FFFFFF" filter="url(#f1q964h)" points="22,45.1992,22,44.6483,32.1538,44.9656,42.3077,44.4544,52.4615,44.6425,62.6154,44.7491,72.7692,45.3858,82.9231,45.6952,93.0769,45.0939,103.2308,44.5776,113.3846,45.9415,123.5385,44.8529,133.6923,45.0965,143.8462,45.1878,154,45.1992,154.0155,45.204,155.4667,49.7176,156.9259,54.2337,158.3016,58.7238,159.6175,63.1953,161,67.6875,161,67.929,171.2667,68.3958,181.5333,67.4199,191.8,67.0287,202.0667,67.4779,212.3333,67.8111,222.6,67.4313,232.8667,68.081,243.1333,67.0998,253.4,68.2431,263.6667,67.6759,273.9333,67.1796,284.2,67.257,294.4667,67.8997,304.7333,68.267,315,67.6875,314.9106,67.6875,315.2239,78.1888,314.9734,88.6901,314.9502,99.1914,315.669,109.6927,314.7843,120.194,315.1244,130.6953,314.5333,141.1966,315.0673,151.6979,315,162.1992,315,161.621,304.8966,161.9375,294.7931,161.9248,284.6897,162.8634,274.5862,161.9153,264.4828,162.0597,254.3793,162.7056,244.2759,161.4604,234.1724,162.8124,224.069,161.899,213.9655,162.0239,203.8621,161.4966,193.7586,162.477,183.6552,161.9934,173.5517,162.6483,163.4483,162.5593,153.3448,161.7993,143.2414,162.7814,133.1379,162.0766,123.0345,162.4664,112.931,162.0745,102.8276,162.6754,92.7241,161.8364,82.6207,162.0849,72.5172,162.7046,62.4138,162.6049,52.3103,162.568,42.2069,162.7067,32.1034,162.1882,22,162.1992,21.8678,162.1992,21.4712,152.4492,21.7142,142.6992,21.4531,132.9492,21.3037,123.1992,22.3099,113.4492,22.232,103.6992,22.5492,93.9492,22.0916,84.1992,22.0288,74.4492,21.29,64.6992,21.6874,54.9492,22,45.1992" style="stroke: #000000; stroke-width: 2.0;"/><path d="M22,67.6875 L22,68.5355 L31.9286,67.5339 L41.8571,68.3166 L51.7857,66.7548 L61.7143,66.905 L71.6429,67.9842 L81.5714,66.982 L91.5,67.8732 L101.4286,68.2518 L111.3571,68.0059 L121.2857,67.0729 L131.2143,67.6596 L141.1429,68.0761 L151.0714,67.7437 L161,67.6875 " fill="#FFFFFF" style="stroke: #000000; stroke-width: 2.0;"/><text fill="#000000" font-family="sans-serif" font-size="14" font-weight="bold" lengthAdjust="spacingAndGlyphs" textLength="126" x="26" y="60.7344">コンテンツフォルダ</text><!--class フォルダ--><polygon fill="#FEFECE" filter="url(#f1q964h)" points="38.5,80.1992,38.5,80.9479,48.7308,79.775,58.9615,80.4528,69.1923,79.8999,79.4231,79.6708,89.6538,79.4494,99.8846,79.6596,110.1154,79.684,120.3462,80.9138,130.5769,79.7921,140.8077,80.6354,151.0385,80.5523,161.2692,80.3421,171.5,80.1992,171.4766,80.1992,172.1295,89.615,171.9017,99.0307,171.2638,108.4464,171.3352,117.8622,171.8028,127.2779,170.9937,136.6936,171.5,146.1094,171.5,146.4503,161.2692,146.6265,151.0385,146.1266,140.8077,146.7239,130.5769,145.767,120.3462,145.5621,110.1154,146.7911,99.8846,146.261,89.6538,145.3594,79.4231,145.4852,69.1923,145.6631,58.9615,145.3899,48.7308,146.2979,38.5,146.1094,38.9302,146.1094,38.6958,136.6936,37.9518,127.2779,38.8908,117.8622,38.6504,108.4464,38.7176,99.0307,39.1095,89.615,38.5,80.1992" style="stroke: #A80036; stroke-width: 1.5;"/><polygon fill="#ADD1B2" points="87.5833,98.5417,87.2339,100.4975,86.2239,102.9263,83.8564,105.4513,80.3955,107.3806,78.0227,107.6159,75.2618,106.7258,71.5681,106.0113,69.5115,104.3174,67.5126,101.4135,66.3091,99.7052,66.0934,96.1215,67.2667,92.5766,68.0405,89.5292,69.6201,87.9253,72.8158,86.5248,76.1608,85.7437,78.2304,84.6029,81.5663,85.4995,83.9457,87.385,85.9239,88.6371,86.8618,92.1443,88.2583,94.4172,87.8807,96.8451" style="stroke: #A80036; stroke-width: 1.0;"/><path d="M79.8231,102.3423 Q79.2421,102.6411 78.6029,102.7905 Q77.9638,102.9399 77.2582,102.9399 Q74.7514,102.9399 73.4315,101.2881 Q72.1117,99.6362 72.1117,96.5151 Q72.1117,93.3857 73.4315,91.7339 Q74.7514,90.082 77.2582,90.082 Q77.9638,90.082 78.6112,90.2314 Q79.2587,90.3809 79.8231,90.6797 L79.8231,93.4023 Q79.1923,92.8213 78.5988,92.5515 Q78.0053,92.2817 77.3744,92.2817 Q76.0297,92.2817 75.3449,93.3484 Q74.6601,94.415 74.6601,96.5151 Q74.6601,98.6069 75.3449,99.6736 Q76.0297,100.7402 77.3744,100.7402 Q78.0053,100.7402 78.5988,100.4705 Q79.1923,100.2007 79.8231,99.6196 Z "/><text fill="#000000" font-family="sans-serif" font-size="12" lengthAdjust="spacingAndGlyphs" textLength="48" x="96.65" y="100.7344">フォルダ</text><path d="M39.5,112.1992 L39.5,113.0642 L49.5769,112.4276 L59.6538,112.2201 L69.7308,113.1727 L79.8077,111.4399 L89.8846,112.4526 L99.9615,112.2542 L110.0385,111.5972 L120.1154,112.5367 L130.1923,112.9524 L140.2692,111.9318 L150.3462,111.5603 L160.4231,113.1551 L170.5,112.1992 " fill="#FEFECE" style="stroke: #A80036; stroke-width: 1.5;"/><text fill="#000000" font-family="sans-serif" font-size="11" lengthAdjust="spacingAndGlyphs" textLength="121" x="44.5" y="126.834">フォルダーテンプレート</text><text fill="#000000" font-family="sans-serif" font-size="11" lengthAdjust="spacingAndGlyphs" textLength="121" x="44.5" y="139.7891">固定ページテンプレート</text><!--class コンテンツ--><polygon fill="#FEFECE" filter="url(#f1q964h)" points="207,93.1992,207,92.8312,217.2222,92.4546,227.4444,93.1983,237.6667,92.5647,247.8889,93.6702,258.1111,93.8994,268.3333,93.3505,278.5556,92.6795,288.7778,93.1478,299,93.1992,299.1517,93.1992,298.9915,101.1992,298.98,109.1992,298.7527,117.1992,299.0281,125.1992,299,133.1992,299,133.603,288.7778,133.6618,278.5556,132.8006,268.3333,132.7532,258.1111,133.0349,247.8889,133.167,237.6667,132.6663,227.4444,133.5673,217.2222,133.6215,207,133.1992,207.2263,133.1992,206.7791,125.1992,207.1662,117.1992,206.9471,109.1992,206.9703,101.1992,207,93.1992" style="stroke: #A80036; stroke-width: 1.5;"/><polygon fill="#ADD1B2" points="232.5514,112.539,231.0153,115.0452,230.0537,116.9519,227.6226,119.4058,224.5998,119.7404,222.4583,120.6691,218.8362,120.096,216.2307,118.6692,214.0026,116.6313,211.3621,113.7748,210.8666,111.7848,211.321,108.7962,211.9792,106.2182,212.9523,102.992,214.5963,100.366,216.7236,100.046,218.2494,98.1734,221.7182,97.7657,225.0861,99.0513,227.554,99.5292,229.1123,101.4224,231.4249,103.3582,233.0779,106.0317,232.6535,109.4711" style="stroke: #A80036; stroke-width: 1.0;"/><path d="M224.4731,115.3423 Q223.8921,115.6411 223.2529,115.7905 Q222.6138,115.9399 221.9082,115.9399 Q219.4014,115.9399 218.0815,114.2881 Q216.7617,112.6362 216.7617,109.5151 Q216.7617,106.3857 218.0815,104.7339 Q219.4014,103.082 221.9082,103.082 Q222.6138,103.082 223.2612,103.2314 Q223.9087,103.3809 224.4731,103.6797 L224.4731,106.4023 Q223.8423,105.8213 223.2488,105.5515 Q222.6553,105.2817 222.0244,105.2817 Q220.6797,105.2817 219.9949,106.3484 Q219.3101,107.415 219.3101,109.5151 Q219.3101,111.6069 219.9949,112.6736 Q220.6797,113.7402 222.0244,113.7402 Q222.6553,113.7402 223.2488,113.4705 Q223.8423,113.2007 224.4731,112.6196 Z "/><text fill="#000000" font-family="sans-serif" font-size="12" lengthAdjust="spacingAndGlyphs" textLength="60" x="236" y="113.7344">コンテンツ</text><path d="M208,125.1992 L208,126.0058 L218,124.6072 L228,125.8921 L238,126.0167 L248,126.1101 L258,124.5054 L268,125.8864 L278,124.8052 L288,124.2884 L298,125.1992 " fill="#FEFECE" style="stroke: #A80036; stroke-width: 1.5;"/><!--class 子コンテンツ--><polygon fill="#FEFECE" filter="url(#f1q964h)" points="201,206.1992,201,205.7791,211.4,206.8574,221.8,205.84,232.2,206.8819,242.6,205.5397,253,206.5123,263.4,205.7748,273.8,206.6634,284.2,206.0385,294.6,206.9097,305,206.1992,305.0112,206.1992,305.197,214.1992,305.0657,222.1992,304.8314,230.1992,304.9863,238.1992,305,246.1992,305,245.8011,294.6,245.64,284.2,245.8379,273.8,245.6249,263.4,245.6989,253,245.7835,242.6,245.7082,232.2,245.9259,221.8,245.6834,211.4,245.9934,201,246.1992,201.1946,246.1992,200.9664,238.1992,201.1847,230.1992,200.7532,222.1992,200.9815,214.1992,201,206.1992" style="stroke: #A80036; stroke-width: 1.5;"/><polygon fill="#ADD1B2" points="226.2073,224.2425,225.0473,227.5525,223.3252,229.5004,220.6252,231.7673,217.7557,232.9851,213.9048,233.638,211.7389,231.7731,209.4878,230.7925,206.4512,228.8525,205.2985,225.2849,205.6608,222.7754,204.5047,220.3709,206.3811,217.1618,207.1645,215.1742,209.9627,213.4966,212.2648,211.5473,214.6468,210.6837,217.5313,211.7508,220.7126,212.9453,223.7097,214.7403,225.8957,217.3048,226.4909,219.7149,226.7508,223.2571" style="stroke: #A80036; stroke-width: 1.0;"/><path d="M218.4731,228.3423 Q217.8921,228.6411 217.2529,228.7905 Q216.6138,228.9399 215.9082,228.9399 Q213.4014,228.9399 212.0815,227.2881 Q210.7617,225.6362 210.7617,222.5151 Q210.7617,219.3857 212.0815,217.7339 Q213.4014,216.082 215.9082,216.082 Q216.6138,216.082 217.2612,216.2314 Q217.9087,216.3809 218.4731,216.6797 L218.4731,219.4023 Q217.8423,218.8213 217.2488,218.5515 Q216.6553,218.2817 216.0244,218.2817 Q214.6797,218.2817 213.9949,219.3484 Q213.3101,220.415 213.3101,222.5151 Q213.3101,224.6069 213.9949,225.6736 Q214.6797,226.7402 216.0244,226.7402 Q216.6553,226.7402 217.2488,226.4705 Q217.8423,226.2007 218.4731,225.6196 Z "/><text fill="#000000" font-family="sans-serif" font-size="12" lengthAdjust="spacingAndGlyphs" textLength="72" x="230" y="226.7344">子コンテンツ</text><path d="M202,238.1992 L202,237.9326 L212.2,238.1523 L222.4,238.4381 L232.6,238.8552 L242.8,237.4115 L253,238.4829 L263.2,237.8766 L273.4,238.7561 L283.6,237.4259 L293.8,238.5529 L304,238.1992 " fill="#FEFECE" style="stroke: #A80036; stroke-width: 1.5;"/><path d="M184.98,113.1992 L184.98,113.0123 L189.382,113.2398 L193.784,113.2997 L198.186,112.9746 L202.588,113.1568 L206.99,113.1992 " fill="none" style="stroke: #A80036; stroke-width: 1.0;"/><polygon fill="#A80036" points="171.77,113.1992,171.8648,113.3414,172.8712,113.851,174.2504,114.9198,175.2968,115.4894,176.7003,116.5947,177.77,117.1992,177.7915,117.2315,178.875,116.2567,180.0319,115.392,181.4959,114.9881,182.4934,113.8842,183.77,113.1992,183.8329,113.2936,182.4346,112.1962,181.4601,111.7343,180.0694,110.6483,178.8824,109.8678,177.77,109.1992,177.8131,109.2638,176.7023,110.1977,175.4394,110.9032,174.1913,111.6311,172.8613,112.2362,171.77,113.1992" style="stroke: #A80036; stroke-width: 1.0;"/><path d="M253,133.2792 L253.8424,133.2792 L252.4603,143.6678 L253.7879,154.0564 L253.3657,164.4449 L252.8228,174.8335 L252.2089,185.2221 L252.5829,195.6106 L253,205.9992 " fill="none" style="stroke: #A80036; stroke-width: 1.0;"/><text fill="#000000" font-family="sans-serif" font-size="13" lengthAdjust="spacingAndGlyphs" textLength="8" x="243.875" y="153.6481">1</text><text fill="#000000" font-family="sans-serif" font-size="13" lengthAdjust="spacingAndGlyphs" textLength="22" x="227.7688" y="195.4763">0..*</text></g></svg>