<?xml version="1.0" encoding="UTF-8" standalone="no"?><svg xmlns="http://www.w3.org/2000/svg" xmlns:xlink="http://www.w3.org/1999/xlink" contentScriptType="application/ecmascript" contentStyleType="text/css" height="437px" preserveAspectRatio="none" style="width:660px;height:437px;" version="1.1" viewBox="0 0 660 437" width="660px" zoomAndPan="magnify"><defs><filter height="300%" id="fipfyrm" width="300%" x="-1" y="-1"><feGaussianBlur result="blurOut" stdDeviation="2.0"/><feColorMatrix in="blurOut" result="blurOut2" type="matrix" values="0 0 0 0 0 0 0 0 0 0 0 0 0 0 0 0 0 0 .4 0"/><feOffset dx="4.0" dy="4.0" in="blurOut2" result="blurOut3"/><feBlend in="SourceGraphic" in2="blurOut3" mode="normal"/></filter></defs><g><text fill="#000000" font-family="sans-serif" font-size="18" lengthAdjust="spacingAndGlyphs" textLength="288" x="190.5" y="17.4023">ドメインモデル図：コンテンツ管理</text><!--cluster コンテンツ管理--><polygon fill="#FFFFFF" filter="url(#fipfyrm)" points="22,45.1992,22,44.7708,32.4,45.6952,42.8,45.2346,53.2,44.9605,63.6,45.4345,74,45.5664,84.4,45.057,94.8,45.413,105.2,44.5508,115.6,45.4182,126,45.1992,126.0631,45.2189,127.5334,49.7384,128.8724,54.2171,130.4118,58.7581,131.5487,63.1739,133,67.6875,133,67.6681,142.875,68.2917,152.75,67.5141,162.625,67.19,172.5,67.8901,182.375,67.1536,192.25,67.4369,202.125,67.4474,212,68.3262,221.875,67.4084,231.75,67.146,241.625,67.5307,251.5,67.648,261.375,67.7981,271.25,67.4888,281.125,67.8496,291,68.0016,300.875,67.2807,310.75,67.3479,320.625,66.9681,330.5,67.8046,340.375,67.2819,350.25,67.0923,360.125,68.2671,370,67.8664,379.875,67.1289,389.75,67.8242,399.625,67.5117,409.5,67.29,419.375,68.1652,429.25,67.559,439.125,67.5445,449,67.3183,458.875,67.9956,468.75,67.4446,478.625,67.8451,488.5,68.1455,498.375,67.0249,508.25,67.4858,518.125,67.7352,528,67.6875,528.0167,67.6875,527.7454,77.7573,527.8024,87.827,528.3676,97.8968,527.3848,107.9666,527.2925,118.0363,527.9048,128.1061,527.5215,138.1759,528.2306,148.2457,527.8565,158.3154,528.0619,168.3852,528.3678,178.455,527.6294,188.5247,528.3832,198.5945,527.3248,208.6643,527.532,218.734,528.1396,228.8038,527.9749,238.8736,527.5177,248.9434,528.3302,259.0131,527.7217,269.0829,527.651,279.1527,528.149,289.2224,528.1232,299.2922,528.4207,309.362,528.388,319.4317,527.4783,329.5015,528.5658,339.5713,528.7099,349.6411,527.3896,359.7108,528.6455,369.7806,527.8744,379.8504,528.5102,389.9201,527.6393,399.9899,528.6469,410.0597,527.4166,420.1294,528,430.1992,528,429.8578,518.0784,430.8625,508.1569,430.9035,498.2353,430.3115,488.3137,430.6979,478.3922,430.7665,468.4706,430.4355,458.549,429.5494,448.6275,430.0028,438.7059,429.5113,428.7843,430.8805,418.8627,430.5404,408.9412,430.6243,399.0196,429.5636,389.098,429.5657,379.1765,429.77,369.2549,430.0794,359.3333,429.9899,349.4118,430.1391,339.4902,429.9688,329.5686,430.7493,319.6471,430.7625,309.7255,430.8055,299.8039,429.7848,289.8824,429.9673,279.9608,430.5108,270.0392,429.7137,260.1176,430.1324,250.1961,430.0134,240.2745,430.1843,230.3529,430.845,220.4314,430.4908,210.5098,430.9196,200.5882,430.0865,190.6667,429.6432,180.7451,430.242,170.8235,430.01,160.902,430.5058,150.9804,430.9085,141.0588,429.4721,131.1373,430.7684,121.2157,429.6926,111.2941,430.6489,101.3725,430.5076,91.451,430.4277,81.5294,430.7294,71.6078,430.1474,61.6863,430.8203,51.7647,430.6241,41.8431,430.8967,31.9216,429.9559,22,430.1992,21.6171,430.1992,21.8437,420.3274,21.2647,410.4556,21.6716,400.5838,22.7199,390.712,22.013,380.8402,22.2251,370.9684,22.4816,361.0967,22.5653,351.2249,22.2678,341.3531,22.35,331.4813,21.4034,321.6095,21.5579,311.7377,22.4148,301.8659,21.5579,291.9941,21.6364,282.1223,21.9739,272.2505,22.2796,262.3787,21.9841,252.5069,21.8763,242.6351,21.7589,232.7633,21.6046,222.8915,22.2853,213.0197,22.4219,203.1479,21.6375,193.2761,21.6977,183.4043,22.1359,173.5326,22.6996,163.6608,22.1439,153.789,22.3026,143.9172,22.5547,134.0454,21.6091,124.1736,21.6844,114.3018,21.8729,104.43,21.6507,94.5582,21.5604,84.6864,21.2649,74.8146,21.7835,64.9428,22.0919,55.071,22,45.1992" style="stroke: #000000; stroke-width: 2.0;"/><path d="M22,67.6875 L22,66.9327 L32.0909,67.0876 L42.1818,67.0292 L52.2727,67.1323 L62.3636,66.9508 L72.4545,67.6535 L82.5455,67.5683 L92.6364,67.5355 L102.7273,67.7558 L112.8182,67.2746 L122.9091,68.5166 L133,67.6875 " fill="#FFFFFF" style="stroke: #000000; stroke-width: 2.0;"/><text fill="#000000" font-family="sans-serif" font-size="14" font-weight="bold" lengthAdjust="spacingAndGlyphs" textLength="98" x="26" y="60.7344">コンテンツ管理</text><!--class フォルダ--><polygon fill="#FEFECE" filter="url(#fipfyrm)" points="209,138.6992,209,139.1164,219,138.7057,229,138.4202,239,138.986,249,138.9603,259,138.925,269,138.486,279,138.8493,289,138.6992,288.9826,138.6992,288.9214,146.6992,289.1277,154.6992,289.0135,162.6992,289.2264,170.6992,289,178.6992,289,179.2545,279,178.0201,269,179.4016,259,178.9476,249,178.2812,239,179.2832,229,179.0876,219,178.4447,209,178.6992,209.0506,178.6992,209.0064,170.6992,209.0798,162.6992,209.0801,154.6992,209.1092,146.6992,209,138.6992" style="stroke: #A80036; stroke-width: 1.5;"/><polygon fill="#ADD1B2" points="235.0147,156.9078,233.7021,160.2076,232.4543,162.4772,229.6612,164.7959,226.3823,165.6577,223.2543,165.2412,220.1665,165.5813,217.9442,163.156,215.2168,161.5447,213.4873,158.2993,213.2616,155.3879,213.3077,152.8392,214.3996,150.9192,215.5245,147.7105,217.7002,145.8552,219.3522,144.5658,222.5123,143.7916,224.7997,143.9304,227.6462,144.122,230.1947,146.1736,232.5693,148.8241,234.639,150.4888,234.5411,152.6793,234.3901,156.3058" style="stroke: #A80036; stroke-width: 1.0;"/><path d="M226.4731,160.8423 Q225.8921,161.1411 225.2529,161.2905 Q224.6138,161.4399 223.9082,161.4399 Q221.4014,161.4399 220.0815,159.7881 Q218.7617,158.1362 218.7617,155.0151 Q218.7617,151.8857 220.0815,150.2339 Q221.4014,148.582 223.9082,148.582 Q224.6138,148.582 225.2612,148.7314 Q225.9087,148.8809 226.4731,149.1797 L226.4731,151.9023 Q225.8423,151.3213 225.2488,151.0515 Q224.6553,150.7817 224.0244,150.7817 Q222.6797,150.7817 221.9949,151.8484 Q221.3101,152.915 221.3101,155.0151 Q221.3101,157.1069 221.9949,158.1736 Q222.6797,159.2402 224.0244,159.2402 Q224.6553,159.2402 225.2488,158.9705 Q225.8423,158.7007 226.4731,158.1196 Z "/><text fill="#000000" font-family="sans-serif" font-size="12" lengthAdjust="spacingAndGlyphs" textLength="48" x="238" y="159.2344">フォルダ</text><path d="M210,170.6992 L210,170.3257 L219.75,171.1903 L229.5,171.4183 L239.25,169.8794 L249,170.7354 L258.75,169.82 L268.5,170.3677 L278.25,170.2348 L288,170.6992 " fill="#FEFECE" style="stroke: #A80036; stroke-width: 1.5;"/><!--class コンテンツ--><polygon fill="#FEFECE" filter="url(#fipfyrm)" points="324,80.1992,324,80.0512,334.2222,80.8365,344.4444,80.369,354.6667,79.5402,364.8889,79.7593,375.1111,79.6426,385.3333,80.172,395.5556,79.5652,405.7778,79.8546,416,80.1992,416.0509,80.1992,416.6322,89.9865,415.9472,99.7737,416.2349,109.5609,415.4876,119.3481,415.6845,129.1354,416.0671,138.9226,416.374,148.7098,415.9064,158.4971,416.1056,168.2843,416.3741,178.0715,415.4482,187.8588,416.6525,197.646,416.3849,207.4332,416.6253,217.2205,416.3924,227.0077,416,236.7949,416,236.789,405.7778,237.374,395.5556,236.633,385.3333,236.6942,375.1111,237.0087,364.8889,236.869,354.6667,236.5799,344.4444,237.3735,334.2222,237.4055,324,236.7949,324.5011,236.7949,323.8317,227.0077,324.1382,217.2205,324.4559,207.4332,324.2319,197.646,323.8648,187.8588,323.6936,178.0715,323.5771,168.2843,323.6257,158.4971,324.6968,148.7098,324.3849,138.9226,323.5206,129.1354,323.7127,119.3481,323.3719,109.5609,324.5585,99.7737,323.6568,89.9865,324,80.1992" style="stroke: #A80036; stroke-width: 1.5;"/><polygon fill="#ADD1B2" points="349.075,98.555,348.9022,101.6915,346.4423,104.5895,343.3031,106.9294,339.5292,107.6447,337.4368,106.7318,334.8234,106.1471,332.3072,104.956,329.7921,102.7593,328.453,100.7293,328.5239,97.7179,328.5593,94.8266,329.3319,91.4106,330.3106,89.1133,332.0849,87.0591,334.5003,86.0687,337.4876,85.7838,339.8722,85.7371,341.9522,85.1636,344.8871,86.4435,347.0257,88.4331,348.7335,90.0768,349.1832,92.8027,349.5671,95.5973,349.6453,98.0963" style="stroke: #A80036; stroke-width: 1.0;"/><path d="M341.4731,102.3423 Q340.8921,102.6411 340.2529,102.7905 Q339.6138,102.9399 338.9082,102.9399 Q336.4014,102.9399 335.0815,101.2881 Q333.7617,99.6362 333.7617,96.5151 Q333.7617,93.3857 335.0815,91.7339 Q336.4014,90.082 338.9082,90.082 Q339.6138,90.082 340.2612,90.2314 Q340.9087,90.3809 341.4731,90.6797 L341.4731,93.4023 Q340.8423,92.8213 340.2488,92.5515 Q339.6553,92.2817 339.0244,92.2817 Q337.6797,92.2817 336.9949,93.3484 Q336.3101,94.415 336.3101,96.5151 Q336.3101,98.6069 336.9949,99.6736 Q337.6797,100.7402 339.0244,100.7402 Q339.6553,100.7402 340.2488,100.4705 Q340.8423,100.2007 341.4731,99.6196 Z "/><text fill="#000000" font-family="sans-serif" font-size="12" lengthAdjust="spacingAndGlyphs" textLength="60" x="353" y="100.7344">コンテンツ</text><path d="M325,112.1992 L325,111.375 L335,113.0434 L345,112.2889 L355,111.7095 L365,111.7956 L375,111.8781 L385,112.7073 L395,112.3641 L405,112.9476 L415,112.1992 " fill="#FEFECE" style="stroke: #A80036; stroke-width: 1.5;"/><text fill="#000000" font-family="sans-serif" font-size="11" lengthAdjust="spacingAndGlyphs" textLength="21" x="330" y="126.834">URL</text><text fill="#000000" font-family="sans-serif" font-size="11" lengthAdjust="spacingAndGlyphs" textLength="44" x="330" y="139.7891">タイトル</text><text fill="#000000" font-family="sans-serif" font-size="11" lengthAdjust="spacingAndGlyphs" textLength="77" x="330" y="152.7441">自身の公開状態</text><text fill="#000000" font-family="sans-serif" font-size="11" lengthAdjust="spacingAndGlyphs" textLength="77" x="330" y="165.6992">自身の公開期間</text><text fill="#000000" font-family="sans-serif" font-size="11" lengthAdjust="spacingAndGlyphs" textLength="44" x="330" y="178.6543">公開状態</text><text fill="#000000" font-family="sans-serif" font-size="11" lengthAdjust="spacingAndGlyphs" textLength="44" x="330" y="191.6094">公開期間</text><text fill="#000000" font-family="sans-serif" font-size="11" lengthAdjust="spacingAndGlyphs" textLength="77" x="330" y="204.5645">親コンテンツID</text><text fill="#000000" font-family="sans-serif" font-size="11" lengthAdjust="spacingAndGlyphs" textLength="44" x="330" y="217.5195">作成者ID</text><text fill="#000000" font-family="sans-serif" font-size="11" lengthAdjust="spacingAndGlyphs" textLength="33" x="330" y="230.4746">実体ID</text><polygon fill="#FBFB77" filter="url(#fipfyrm)" points="38,297.1992,38.4392,297.1992,38.0471,306.9637,38.5465,316.7282,38.1163,326.4927,37.6704,336.2572,37.6867,346.0216,38.3582,355.7861,38.5983,365.5506,37.711,375.3151,37.4658,385.0796,38.0776,394.8441,38.0818,404.6086,38,414.373,38,414.0223,48.0851,413.7958,58.1702,414.584,68.2553,415.0462,78.3404,414.0039,88.4255,413.9232,98.5106,414.5875,108.5957,414.2138,118.6809,414.802,128.766,414.8036,138.8511,414.69,148.9362,414.8586,159.0213,413.7855,169.1064,413.9568,179.1915,415.0205,189.2766,413.6509,199.3617,413.848,209.4468,414.1747,219.5319,414.0051,229.617,415.1044,239.7021,414.5072,249.7872,415.0099,259.8723,414.903,269.9574,413.8124,280.0426,413.6778,290.1277,413.7363,300.2128,413.6473,310.2979,413.7493,320.383,415.0474,330.4681,414.5165,340.5532,414.3479,350.6383,415.0233,360.7234,414.5575,370.8085,413.6981,380.8936,414.3884,390.9787,413.9759,401.0638,414.2036,411.1489,415.1081,421.234,415.0209,431.3191,415.0398,441.4043,413.7187,451.4894,413.9309,461.5745,413.7214,471.6596,414.8062,481.7447,414.6987,491.8298,413.7367,501.9149,414.3183,512,414.373,512.4263,414.373,512.4885,404.63,512.6001,394.8869,511.6774,385.1438,512.6543,375.4007,511.5312,365.6577,512.3722,355.9146,511.8653,346.1715,512.5855,336.4284,511.4654,326.6854,512.6136,316.9423,512,307.1992,511.9543,307.1535,509.9523,305.1515,507.8504,303.0496,505.9519,301.1511,504.0735,299.2727,502,297.1992,502,297.3604,491.913,297.3605,481.8261,297.8313,471.7391,297.2197,461.6522,297.7493,451.5652,297.1413,441.4783,297.5016,431.3913,297.3898,421.3043,297.9114,411.2174,297.4137,401.1304,297.2754,391.0435,296.8939,380.9565,297.2984,370.8696,296.8784,360.7826,297.5031,350.6957,296.4815,340.6087,296.8272,330.5217,297.0433,320.4348,297.3273,310.3478,297.6618,300.2609,296.7363,290.1739,297.3938,280.087,296.5993,270,296.7082,259.913,297.912,249.8261,296.8775,239.7391,297.887,229.6522,297.8331,219.5652,297.2772,209.4783,297.6444,199.3913,297.6336,189.3043,296.5235,179.2174,296.5793,169.1304,296.7991,159.0435,297.4555,148.9565,297.8506,138.8696,296.6641,128.7826,297.3891,118.6957,297.2711,108.6087,297.2924,98.5217,297.0956,88.4348,296.9508,78.3478,297.4161,68.2609,297.2126,58.1739,297.2656,48.087,296.6791,38,297.1992" style="stroke: #A80036; stroke-width: 1.0;"/><polygon fill="#FBFB77" points="38,297.1992,37.9323,297.1992,37.4445,306.9637,38.239,316.7282,37.9703,326.4927,37.6094,336.2572,38.2105,346.0216,37.2932,355.7861,38.0083,365.5506,37.436,375.3151,38.2102,385.0796,37.7579,394.8441,37.5403,404.6086,38,414.373,38,414.9918,48.0851,413.7235,58.1702,414.4565,68.2553,414.6459,78.3404,414.5197,88.4255,414.5587,98.5106,414.8279,108.5957,414.6583,118.6809,413.9966,128.766,414.1426,138.8511,413.7085,148.9362,414.5055,159.0213,414.3914,169.1064,413.9464,179.1915,413.6931,189.2766,415.0134,199.3617,414.1483,209.4468,414.4283,219.5319,414.6633,229.617,414.3349,239.7021,414.9534,249.7872,413.9691,259.8723,414.6642,269.9574,413.8461,280.0426,414.076,290.1277,413.9005,300.2128,414.3614,310.2979,414.6088,320.383,414.5908,330.4681,414.2635,340.5532,414.8961,350.6383,413.9164,360.7234,413.9389,370.8085,413.7273,380.8936,414.4296,390.9787,413.8692,401.0638,414.7049,411.1489,414.7918,421.234,414.1566,431.3191,414.4968,441.4043,413.6713,451.4894,414.9716,461.5745,414.5708,471.6596,414.6571,481.7447,414.1603,491.8298,414.1305,501.9149,414.7875,512,414.373,511.4189,414.373,511.5173,404.63,512.6219,394.8869,511.3888,385.1438,512.7401,375.4007,512.6799,365.6577,511.2522,355.9146,511.422,346.1715,512.054,336.4284,512.1911,326.6854,511.3922,316.9423,512,307.1992,511.8613,307.0605,510.048,305.2472,508.0198,303.219,505.917,301.1162,503.8555,299.0547,502,297.1992,502,297.2237,491.7384,296.4839,481.4768,297.0697,471.2153,297.6686,460.9537,297.4656,450.6921,297.7596,440.4305,297.6303,430.1689,297.2063,419.9074,297.8229,409.6458,297.9328,399.3842,296.9747,389.1226,296.4669,378.8611,297.5603,368.5995,297.0353,358.3379,296.9467,348.0763,297.9141,337.8147,296.6911,327.5532,297.4109,317.2916,297.3476,307.03,297.1992,306.6217,297.0277,311.3026,287.2549,316.0458,277.5083,319.4924,267.2169,323.2713,257.0652,327.5776,247.135,332.18,237.3292,331.5608,236.9864,327.6799,246.0125,322.5075,254.3236,318.5071,263.2836,313.8299,271.8689,308.8392,280.2805,304.3266,288.9569,299.03,297.1992,299.03,296.9398,288.9904,297.9203,278.9508,297.7953,268.9112,297.1991,258.8715,297.2784,248.8319,297.758,238.7923,296.8747,228.7527,297.8261,218.7131,297.7004,208.6735,297.3469,198.6338,297.7265,188.5942,296.8991,178.5546,297.3527,168.515,297.8997,158.4754,297.0123,148.4358,296.9593,138.3962,296.9675,128.3565,296.9852,118.3169,297.11,108.2773,297.8061,98.2377,297.0383,88.1981,296.8234,78.1585,297.3095,68.1188,297.1546,58.0792,296.8228,48.0396,297.2983,38,297.1992" style="stroke: #A80036; stroke-width: 1.0;"/><path d="M502,297.1992 L501.7104,297.1992 L502.2276,299.1992 L502.2055,301.1992 L501.6776,303.1992 L502.2533,305.1992 L502,307.1992 " fill="#FBFB77" style="stroke: #A80036; stroke-width: 1.0;"/><path d="M512,307.1992 L512,307.4002 L510,307.2295 L508,307.3015 L506,307.1856 L504,307.4811 L502,307.1992 " fill="#FBFB77" style="stroke: #A80036; stroke-width: 1.0;"/><text fill="#000000" font-family="sans-serif" font-size="13" lengthAdjust="spacingAndGlyphs" textLength="234" x="44" y="314.7676">・コンテンツは未公開状態で登録される</text><text fill="#000000" font-family="sans-serif" font-size="13" lengthAdjust="spacingAndGlyphs" textLength="351" x="44" y="330.0781">・親の公開状態と公開期間を公開状態と公開期間に設定する</text><text fill="#000000" font-family="sans-serif" font-size="13" lengthAdjust="spacingAndGlyphs" textLength="288" x="44" y="345.3887">・作成者IDにログイン中のユーザーIDを設定する</text><text fill="#000000" font-family="sans-serif" font-size="13" lengthAdjust="spacingAndGlyphs" textLength="258" x="44" y="360.6992">・タイトルは強制的に255文字でカットする</text><text fill="#000000" font-family="sans-serif" font-size="13" lengthAdjust="spacingAndGlyphs" textLength="269" x="44" y="376.0098">・タイトルを231文字でカットしてURLに設定</text><text fill="#000000" font-family="sans-serif" font-size="13" lengthAdjust="spacingAndGlyphs" textLength="254" x="44" y="391.3203">・URLをURLエンコードしてURLを生成する</text><text fill="#000000" font-family="sans-serif" font-size="13" lengthAdjust="spacingAndGlyphs" textLength="453" x="44" y="406.6309">・URLの重複チェックを行い重複している場合はユニークな文字列に変換する</text><!--class 親コンテンツ--><polygon fill="#FEFECE" filter="url(#fipfyrm)" points="547,335.6992,547,335.939,557.4,336.0186,567.8,335.6351,578.2,335.9466,588.6,335.1107,599,335.7228,609.4,335.6714,619.8,335.1702,630.2,335.7209,640.6,336.0845,651,335.6992,650.9027,335.6992,651.0386,343.6992,650.8077,351.6992,651.203,359.6992,650.9529,367.6992,651,375.6992,651,375.3297,640.6,375.1169,630.2,375.9618,619.8,375.3067,609.4,375.4831,599,375.2107,588.6,375.8405,578.2,375.107,567.8,375.4692,557.4,375.3291,547,375.6992,547.0793,375.6992,546.8677,367.6992,547.1492,359.6992,546.9425,351.6992,547.1402,343.6992,547,335.6992" style="stroke: #A80036; stroke-width: 1.5;"/><polygon fill="#ADD1B2" points="572.4352,353.7714,572.248,356.094,571.2373,357.7657,568.6933,359.5627,567.0151,362.1158,563.3897,362.2592,560.1582,362.057,556.4776,361.3215,553.8536,360.0269,552.8508,357.1002,550.609,354.1961,551.0802,351.1815,551.7705,347.4911,554.0471,344.9136,556.4515,342.1232,558.7513,340.8304,560.962,341.3817,563.0889,340.7181,565.3457,341.4668,569.0182,342.4064,570.4749,345.0096,572.6175,346.9324,572.0793,349.2136,572.3086,352.0892" style="stroke: #A80036; stroke-width: 1.0;"/><path d="M564.4731,357.8423 Q563.8921,358.1411 563.2529,358.2905 Q562.6138,358.4399 561.9082,358.4399 Q559.4014,358.4399 558.0815,356.7881 Q556.7617,355.1362 556.7617,352.0151 Q556.7617,348.8857 558.0815,347.2339 Q559.4014,345.582 561.9082,345.582 Q562.6138,345.582 563.2612,345.7314 Q563.9087,345.8809 564.4731,346.1797 L564.4731,348.9023 Q563.8423,348.3213 563.2488,348.0515 Q562.6553,347.7817 562.0244,347.7817 Q560.6797,347.7817 559.9949,348.8484 Q559.3101,349.915 559.3101,352.0151 Q559.3101,354.1069 559.9949,355.1736 Q560.6797,356.2402 562.0244,356.2402 Q562.6553,356.2402 563.2488,355.9705 Q563.8423,355.7007 564.4731,355.1196 Z "/><text fill="#000000" font-family="sans-serif" font-size="12" lengthAdjust="spacingAndGlyphs" textLength="72" x="576" y="356.2344">親コンテンツ</text><path d="M548,367.6992 L548,368.1606 L558.2,368.683 L568.4,368.6817 L578.6,368.1477 L588.8,367.1602 L599,366.9439 L609.2,366.8823 L619.4,367.6865 L629.6,368.4739 L639.8,366.8233 L650,367.6992 " fill="#FEFECE" style="stroke: #A80036; stroke-width: 1.5;"/><path d="M302.2,158.6992 L302.2,158.9001 L306.54,159.0297 L310.88,159.0035 L315.22,158.565 L319.56,158.9071 L323.9,158.6992 " fill="none" style="stroke: #A80036; stroke-width: 1.0;"/><polygon fill="#A80036" points="289.18,158.6992,289.2709,158.8355,290.4083,159.5417,291.5409,160.2406,292.8304,161.1749,293.961,161.8707,295.18,162.6992,295.1087,162.5923,296.2511,161.7058,297.5477,161.0508,298.7317,160.2267,299.858,159.3162,301.18,158.6992,301.0809,158.5505,300.0114,157.9463,298.7176,157.0057,297.4564,156.1138,296.3081,155.3914,295.18,154.6992,295.2553,154.8122,294.0333,155.5792,292.6681,156.1313,291.6989,157.2776,290.245,157.6967,289.18,158.6992" style="stroke: #A80036; stroke-width: 1.0;"/><path d="M416.07,198.9292 L415.485,198.2423 L423.1884,204.8204 L431.8426,212.5151 L438.8127,218.2321 L446.5335,224.8306 L454.4897,231.7056 L462.0456,238.1106 L469.557,244.4632 L477.0471,250.7908 L484.8031,257.4307 L492.1347,263.5723 L500.5092,270.9386 L508.0023,277.2697 L514.8512,282.8443 L522.6292,289.5101 L531.0666,296.9502 L538.6657,303.4058 L546.3961,310.0157 L553.2939,315.6478 L561.1583,322.415 L569.5215,329.768 L576.64,335.6592 " fill="none" style="stroke: #A80036; stroke-width: 1.0;"/><text fill="#000000" font-family="sans-serif" font-size="13" lengthAdjust="spacingAndGlyphs" textLength="22" x="424.0955" y="201.1505">0..*</text><text fill="#000000" font-family="sans-serif" font-size="13" lengthAdjust="spacingAndGlyphs" textLength="8" x="560.5673" y="324.841">1</text></g></svg>