<?xml version="1.0" encoding="UTF-8" standalone="no"?><svg xmlns="http://www.w3.org/2000/svg" xmlns:xlink="http://www.w3.org/1999/xlink" contentScriptType="application/ecmascript" contentStyleType="text/css" height="437px" preserveAspectRatio="none" style="width:660px;height:437px;" version="1.1" viewBox="0 0 660 437" width="660px" zoomAndPan="magnify"><defs><filter height="300%" id="fvlisr7" width="300%" x="-1" y="-1"><feGaussianBlur result="blurOut" stdDeviation="2.0"/><feColorMatrix in="blurOut" result="blurOut2" type="matrix" values="0 0 0 0 0 0 0 0 0 0 0 0 0 0 0 0 0 0 .4 0"/><feOffset dx="4.0" dy="4.0" in="blurOut2" result="blurOut3"/><feBlend in="SourceGraphic" in2="blurOut3" mode="normal"/></filter></defs><g><text fill="#000000" font-family="sans-serif" font-size="18" lengthAdjust="spacingAndGlyphs" textLength="288" x="190.5" y="17.4023">ドメインモデル図：コンテンツ管理</text><!--cluster コンテンツ管理--><polygon fill="#FFFFFF" filter="url(#fvlisr7)" points="22,45.1992,22,44.5731,32.4,44.5073,42.8,44.6894,53.2,44.949,63.6,44.7509,74,44.844,84.4,45.3157,94.8,44.5936,105.2,45.3646,115.6,45.273,126,45.1992,126.0166,45.2044,127.4051,49.6985,128.9435,54.2392,130.0569,58.6476,131.8069,63.2542,133,67.6875,133,67.9472,142.875,67.1437,152.75,67.3547,162.625,66.9452,172.5,66.9468,182.375,67.5483,192.25,67.1563,202.125,68.1838,212,67.464,221.875,67.6124,231.75,67.6749,241.625,67.8759,251.5,68.3043,261.375,68.1231,271.25,67.1656,281.125,68.3009,291,67.8327,300.875,67.6688,310.75,68.2145,320.625,67.1729,330.5,67.1812,340.375,68.1738,350.25,67.8599,360.125,67.8446,370,68.0288,379.875,68.3699,389.75,67.0978,399.625,67.7447,409.5,68.1314,419.375,67.2608,429.25,67.6396,439.125,67.9442,449,68.101,458.875,67.6639,468.75,67.5517,478.625,67.0296,488.5,67.261,498.375,68.0761,508.25,67.4343,518.125,67.6357,528,67.6875,528.0704,67.6875,528.7274,77.7573,527.4041,87.827,527.3613,97.8968,527.2803,107.9666,527.4454,118.0363,528.5155,128.1061,527.5628,138.1759,528.4334,148.2457,528.1039,158.3154,528.1426,168.3852,528.4235,178.455,528.2702,188.5247,528.7152,198.5945,527.4978,208.6643,527.4946,218.734,527.4571,228.8038,527.534,238.8736,528.2555,248.9434,527.9685,259.0131,527.4135,269.0829,528.484,279.1527,527.8088,289.2224,527.8967,299.2922,527.6444,309.362,528.5582,319.4317,527.7618,329.5015,527.6593,339.5713,528.6316,349.6411,527.3158,359.7108,527.6004,369.7806,528.4795,379.8504,527.8081,389.9201,527.5347,399.9899,527.4024,410.0597,527.4611,420.1294,528,430.1992,528,430.8278,518.0784,430.8434,508.1569,430.3328,498.2353,430.9094,488.3137,429.4559,478.3922,429.9768,468.4706,429.723,458.549,430.7659,448.6275,429.6047,438.7059,430.3331,428.7843,429.9326,418.8627,430.535,408.9412,430.6044,399.0196,429.5319,389.098,429.7019,379.1765,429.8547,369.2549,429.824,359.3333,429.7771,349.4118,430.4201,339.4902,429.9806,329.5686,430.1377,319.6471,430.92,309.7255,429.5657,299.8039,430.2976,289.8824,430.7107,279.9608,430.9255,270.0392,429.7438,260.1176,429.7938,250.1961,430.4786,240.2745,430.3036,230.3529,430.595,220.4314,429.5415,210.5098,430.8057,200.5882,430.2596,190.6667,429.6542,180.7451,430.936,170.8235,430.9376,160.902,430.1564,150.9804,429.8146,141.0588,430.0373,131.1373,429.5119,121.2157,430.8578,111.2941,429.8945,101.3725,429.843,91.451,429.5451,81.5294,430.6403,71.6078,429.906,61.6863,430.6968,51.7647,430.496,41.8431,430.1174,31.9216,429.5009,22,430.1992,22.1063,430.1992,21.9957,420.3274,21.3224,410.4556,22.0026,400.5838,22.2899,390.712,21.9361,380.8402,22.0283,370.9684,21.7356,361.0967,22.6425,351.2249,21.6502,341.3531,21.8801,331.4813,21.8428,321.6095,22.2149,311.7377,22.6267,301.8659,22.7094,291.9941,21.6928,282.1223,21.662,272.2505,22.4853,262.3787,22.3879,252.5069,22.2037,242.6351,22.0144,232.7633,21.8906,222.8915,21.3643,213.0197,21.5597,203.1479,22.3458,193.2761,21.976,183.4043,21.8751,173.5326,21.6321,163.6608,22.6073,153.789,22.3467,143.9172,21.4054,134.0454,22.1144,124.1736,21.7898,114.3018,22.0505,104.43,22.4948,94.5582,21.6416,84.6864,22.3604,74.8146,21.7357,64.9428,22.1538,55.071,22,45.1992" style="stroke: #000000; stroke-width: 2.0;"/><path d="M22,67.6875 L22,68.6082 L32.0909,68.4697 L42.1818,67.1065 L52.2727,67.6296 L62.3636,67.4958 L72.4545,67.5952 L82.5455,66.7711 L92.6364,67.4542 L102.7273,67.8895 L112.8182,67.88 L122.9091,67.649 L133,67.6875 " fill="#FFFFFF" style="stroke: #000000; stroke-width: 2.0;"/><text fill="#000000" font-family="sans-serif" font-size="14" font-weight="bold" lengthAdjust="spacingAndGlyphs" textLength="98" x="26" y="60.7344">コンテンツ管理</text><!--class フォルダ--><polygon fill="#FEFECE" filter="url(#fvlisr7)" points="209,138.6992,209,138.8017,219,139.0075,229,138.7411,239,138.2466,249,139.4453,259,139.3446,269,138.3649,279,138.3926,289,138.6992,289.1104,138.6992,288.808,146.6992,289.0594,154.6992,288.8986,162.6992,288.8568,170.6992,289,178.6992,289,178.9353,279,178.0363,269,179.0173,259,178.4009,249,178.554,239,178.5108,229,178.1331,219,179.0824,209,178.6992,209.2104,178.6992,208.9668,170.6992,208.7903,162.6992,208.8901,154.6992,208.8129,146.6992,209,138.6992" style="stroke: #A80036; stroke-width: 1.5;"/><polygon fill="#ADD1B2" points="234.4167,156.9845,233.3136,159.9201,232.5437,162.2728,230.7958,163.6989,227.9862,164.6068,225.4218,165.3114,221.9602,166.0804,218.3041,164.7398,216.8311,162.7999,215.5163,161.0415,214.4216,158.9582,213.4027,155.65,213.0306,153.4742,213.8155,150.4308,215.5814,148.3181,217.3545,145.7521,220.6012,144.7778,222.9654,144.009,225.4323,143.8518,229.0105,144.9373,231.7542,146.0119,233.4652,149.1499,235.024,151.0976,234.919,153.4161,234.5533,157.0654" style="stroke: #A80036; stroke-width: 1.0;"/><path d="M226.4731,160.8423 Q225.8921,161.1411 225.2529,161.2905 Q224.6138,161.4399 223.9082,161.4399 Q221.4014,161.4399 220.0815,159.7881 Q218.7617,158.1362 218.7617,155.0151 Q218.7617,151.8857 220.0815,150.2339 Q221.4014,148.582 223.9082,148.582 Q224.6138,148.582 225.2612,148.7314 Q225.9087,148.8809 226.4731,149.1797 L226.4731,151.9023 Q225.8423,151.3213 225.2488,151.0515 Q224.6553,150.7817 224.0244,150.7817 Q222.6797,150.7817 221.9949,151.8484 Q221.3101,152.915 221.3101,155.0151 Q221.3101,157.1069 221.9949,158.1736 Q222.6797,159.2402 224.0244,159.2402 Q224.6553,159.2402 225.2488,158.9705 Q225.8423,158.7007 226.4731,158.1196 Z "/><text fill="#000000" font-family="sans-serif" font-size="12" lengthAdjust="spacingAndGlyphs" textLength="48" x="238" y="159.2344">フォルダ</text><path d="M210,170.6992 L210,170.495 L219.75,170.0764 L229.5,170.7445 L239.25,169.7697 L249,171.3196 L258.75,169.8843 L268.5,171.2214 L278.25,170.6732 L288,170.6992 " fill="#FEFECE" style="stroke: #A80036; stroke-width: 1.5;"/><!--class コンテンツ--><polygon fill="#FEFECE" filter="url(#fvlisr7)" points="324,80.1992,324,80.5401,334.2222,79.5206,344.4444,79.5221,354.6667,80.0197,364.8889,79.6795,375.1111,80.751,385.3333,79.9766,395.5556,80.0526,405.7778,80.1312,416,80.1992,416.2763,80.1992,415.4326,89.9865,415.6522,99.7737,416.0085,109.5609,415.6199,119.3481,415.4008,129.1354,416.2189,138.9226,415.7154,148.7098,415.4634,158.4971,416,168.2843,415.3175,178.0715,416.5933,187.8588,415.7965,197.646,416.1258,207.4332,416.716,217.2205,416.5643,227.0077,416,236.7949,416,237.5403,405.7778,237.446,395.5556,236.9094,385.3333,237.188,375.1111,237.4818,364.8889,236.86,354.6667,236.1656,344.4444,237.3397,334.2222,237.1823,324,236.7949,323.7316,236.7949,323.4811,227.0077,324.0203,217.2205,323.3989,207.4332,324.2124,197.646,324.641,187.8588,323.6993,178.0715,324.5049,168.2843,323.5556,158.4971,324.5845,148.7098,323.3061,138.9226,323.83,129.1354,324.2886,119.3481,323.8017,109.5609,323.842,99.7737,323.3229,89.9865,324,80.1992" style="stroke: #A80036; stroke-width: 1.5;"/><polygon fill="#ADD1B2" points="349.9752,99.008,347.863,101.6093,346.3711,103.4362,344.8092,105.71,342.4284,107.0424,340.2629,107.3147,337.735,107.7804,334.2812,105.9986,330.7537,104.289,329.0345,101.2896,328.8242,98.5222,328.1038,96.0568,327.6516,93.5757,329.4993,91.8157,330.5908,89.447,333.5386,87.4399,335.6368,86.2718,338.6473,85.7984,342.1524,85.3159,344.2067,86.2884,346.7619,88.9587,349.4691,91.4716,349.3257,93.6708,350.0989,97.1398" style="stroke: #A80036; stroke-width: 1.0;"/><path d="M341.4731,102.3423 Q340.8921,102.6411 340.2529,102.7905 Q339.6138,102.9399 338.9082,102.9399 Q336.4014,102.9399 335.0815,101.2881 Q333.7617,99.6362 333.7617,96.5151 Q333.7617,93.3857 335.0815,91.7339 Q336.4014,90.082 338.9082,90.082 Q339.6138,90.082 340.2612,90.2314 Q340.9087,90.3809 341.4731,90.6797 L341.4731,93.4023 Q340.8423,92.8213 340.2488,92.5515 Q339.6553,92.2817 339.0244,92.2817 Q337.6797,92.2817 336.9949,93.3484 Q336.3101,94.415 336.3101,96.5151 Q336.3101,98.6069 336.9949,99.6736 Q337.6797,100.7402 339.0244,100.7402 Q339.6553,100.7402 340.2488,100.4705 Q340.8423,100.2007 341.4731,99.6196 Z "/><text fill="#000000" font-family="sans-serif" font-size="12" lengthAdjust="spacingAndGlyphs" textLength="60" x="353" y="100.7344">コンテンツ</text><path d="M325,112.1992 L325,111.8975 L335,112.5016 L345,111.6884 L355,111.6392 L365,111.7997 L375,112.5378 L385,112.6707 L395,112.8132 L405,111.9532 L415,112.1992 " fill="#FEFECE" style="stroke: #A80036; stroke-width: 1.5;"/><text fill="#000000" font-family="sans-serif" font-size="11" lengthAdjust="spacingAndGlyphs" textLength="21" x="330" y="126.834">URL</text><text fill="#000000" font-family="sans-serif" font-size="11" lengthAdjust="spacingAndGlyphs" textLength="44" x="330" y="139.7891">タイトル</text><text fill="#000000" font-family="sans-serif" font-size="11" lengthAdjust="spacingAndGlyphs" textLength="77" x="330" y="152.7441">自身の公開状態</text><text fill="#000000" font-family="sans-serif" font-size="11" lengthAdjust="spacingAndGlyphs" textLength="77" x="330" y="165.6992">自身の公開期間</text><text fill="#000000" font-family="sans-serif" font-size="11" lengthAdjust="spacingAndGlyphs" textLength="44" x="330" y="178.6543">公開状態</text><text fill="#000000" font-family="sans-serif" font-size="11" lengthAdjust="spacingAndGlyphs" textLength="44" x="330" y="191.6094">公開期間</text><text fill="#000000" font-family="sans-serif" font-size="11" lengthAdjust="spacingAndGlyphs" textLength="77" x="330" y="204.5645">親コンテンツID</text><text fill="#000000" font-family="sans-serif" font-size="11" lengthAdjust="spacingAndGlyphs" textLength="44" x="330" y="217.5195">作成者ID</text><text fill="#000000" font-family="sans-serif" font-size="11" lengthAdjust="spacingAndGlyphs" textLength="33" x="330" y="230.4746">実体ID</text><polygon fill="#FBFB77" filter="url(#fvlisr7)" points="38,297.1992,38.0033,297.1992,37.7357,306.9637,38.0169,316.7282,37.6087,326.4927,38.4869,336.2572,38.2819,346.0216,37.8001,355.7861,38.4928,365.5506,37.6499,375.3151,38.5819,385.0796,37.7748,394.8441,37.858,404.6086,38,414.373,38,413.6667,48.0851,414.0608,58.1702,413.9322,68.2553,413.7566,78.3404,414.426,88.4255,414.5252,98.5106,413.7773,108.5957,414.6366,118.6809,415.0784,128.766,414.5019,138.8511,414.5822,148.9362,413.9285,159.0213,414.1886,169.1064,414.004,179.1915,414.9066,189.2766,413.6665,199.3617,413.8278,209.4468,414.2351,219.5319,414.8794,229.617,413.7136,239.7021,413.8617,249.7872,414.8712,259.8723,414.0977,269.9574,414.0445,280.0426,415.0751,290.1277,414.7734,300.2128,414.0809,310.2979,414.7606,320.383,413.6795,330.4681,414.8512,340.5532,414.0703,350.6383,413.6396,360.7234,414.0598,370.8085,413.6846,380.8936,414.9659,390.9787,414.9141,401.0638,414.4253,411.1489,414.5323,421.234,414.9508,431.3191,414.7529,441.4043,414.8685,451.4894,414.021,461.5745,414.8837,471.6596,415.0942,481.7447,414.18,491.8298,414.6133,501.9149,413.8314,512,414.373,511.6668,414.373,511.7601,404.63,512.0281,394.8869,511.3017,385.1438,512.6026,375.4007,511.9573,365.6577,512.4813,355.9146,512.6716,346.1715,512.0538,336.4284,512.2265,326.6854,511.5102,316.9423,512,307.1992,512.0143,307.2135,509.8861,305.0853,508.1096,303.3088,506.1339,301.3331,503.9568,299.156,502,297.1992,502,297.3373,491.913,297.4558,481.8261,297.2265,471.7391,296.5384,461.6522,297.8247,451.5652,297.2247,441.4783,296.9139,431.3913,297.3927,421.3043,297.3792,411.2174,296.6543,401.1304,296.4736,391.0435,297.7061,380.9565,296.7412,370.8696,297.0644,360.7826,297.6651,350.6957,297.1271,340.6087,297.6242,330.5217,297.4335,320.4348,296.7668,310.3478,296.8184,300.2609,296.8939,290.1739,297.7577,280.087,296.4722,270,297.3974,259.913,297.3163,249.8261,296.9551,239.7391,296.5147,229.6522,296.459,219.5652,297.56,209.4783,297.5615,199.3913,297.2517,189.3043,297.7926,179.2174,297.8882,169.1304,296.5156,159.0435,296.571,148.9565,297.6539,138.8696,297.6157,128.7826,297.3966,118.6957,296.7557,108.6087,296.9628,98.5217,296.9404,88.4348,296.5616,78.3478,297.861,68.2609,297.5784,58.1739,297.6779,48.087,297.7271,38,297.1992" style="stroke: #A80036; stroke-width: 1.0;"/><polygon fill="#FBFB77" points="38,297.1992,37.5089,297.1992,37.6443,306.9637,37.5458,316.7282,38.4535,326.4927,38.5994,336.2572,38.7024,346.0216,38.7367,355.7861,38.5166,365.5506,37.5892,375.3151,38.664,385.0796,37.4369,394.8441,38.1099,404.6086,38,414.373,38,414.3109,48.0851,413.9135,58.1702,414.7704,68.2553,414.8294,78.3404,414.3405,88.4255,414.8403,98.5106,413.9463,108.5957,414.9831,118.6809,414.1952,128.766,413.9871,138.8511,414.1664,148.9362,414.9792,159.0213,414.0943,169.1064,413.6846,179.1915,414.058,189.2766,414.801,199.3617,414.3073,209.4468,414.7044,219.5319,414.2003,229.617,414.0566,239.7021,413.963,249.7872,414.2956,259.8723,414.4134,269.9574,414.4973,280.0426,413.6238,290.1277,414.0146,300.2128,414.9247,310.2979,414.762,320.383,415.0184,330.4681,414.0869,340.5532,413.8676,350.6383,415.0037,360.7234,414.927,370.8085,414.0025,380.8936,414.6811,390.9787,414.8394,401.0638,414.9581,411.1489,414.2788,421.234,414.479,431.3191,414.3653,441.4043,414.337,451.4894,414.8212,461.5745,413.8462,471.6596,414.2976,481.7447,413.8507,491.8298,414.5741,501.9149,414.8048,512,414.373,512.2566,414.373,511.3862,404.63,511.8087,394.8869,512.4881,385.1438,512.6733,375.4007,511.4151,365.6577,511.8008,355.9146,511.7393,346.1715,511.8256,336.4284,511.889,326.6854,511.874,316.9423,512,307.1992,511.9922,307.1914,509.9881,305.1874,508.0361,303.2353,505.9219,301.1211,504.1164,299.3157,502,297.1992,502,297.4064,491.7384,296.8562,481.4768,297.726,471.2153,297.0104,460.9537,296.7364,450.6921,297.1419,440.4305,297.7756,430.1689,297.8099,419.9074,297.4326,409.6458,297.4842,399.3842,296.8064,389.1226,296.5745,378.8611,297.1041,368.5995,297.0847,358.3379,297.2886,348.0763,296.7789,337.8147,297.1329,327.5532,296.5061,317.2916,296.5414,307.03,297.1992,306.4416,296.9521,311.6993,287.4215,314.7367,276.9583,319.8585,267.3707,323.9839,257.3645,327.875,247.2599,332.18,237.3292,332.5973,237.5603,327.2778,245.7899,322.4819,254.3094,318.1456,263.0834,313.6235,271.7546,308.5379,280.1137,303.1567,288.3092,299.03,297.1992,299.03,296.623,288.9904,296.6441,278.9508,297.6109,268.9112,297.8185,258.8715,297.228,248.8319,296.6943,238.7923,296.8429,228.7527,296.5929,218.7131,297.1494,208.6735,296.7925,198.6338,297.1477,188.5942,296.8086,178.5546,297.6498,168.515,297.1794,158.4754,296.7055,148.4358,296.6088,138.3962,297.9355,128.3565,297.1296,118.3169,297.7169,108.2773,297.0681,98.2377,297.4698,88.1981,296.9146,78.1585,297.858,68.1188,297.4569,58.0792,297.5304,48.0396,297.2532,38,297.1992" style="stroke: #A80036; stroke-width: 1.0;"/><path d="M502,297.1992 L502.2585,297.1992 L502.2725,299.1992 L502.2174,301.1992 L502.3132,303.1992 L502.08,305.1992 L502,307.1992 " fill="#FBFB77" style="stroke: #A80036; stroke-width: 1.0;"/><path d="M512,307.1992 L512,307.4323 L510,306.9035 L508,306.9021 L506,307.055 L504,307.209 L502,307.1992 " fill="#FBFB77" style="stroke: #A80036; stroke-width: 1.0;"/><text fill="#000000" font-family="sans-serif" font-size="13" lengthAdjust="spacingAndGlyphs" textLength="234" x="44" y="314.7676">・コンテンツは未公開状態で登録される</text><text fill="#000000" font-family="sans-serif" font-size="13" lengthAdjust="spacingAndGlyphs" textLength="351" x="44" y="330.0781">・親の公開状態と公開期間を公開状態と公開期間に設定する</text><text fill="#000000" font-family="sans-serif" font-size="13" lengthAdjust="spacingAndGlyphs" textLength="288" x="44" y="345.3887">・作成者IDにログイン中のユーザーIDを設定する</text><text fill="#000000" font-family="sans-serif" font-size="13" lengthAdjust="spacingAndGlyphs" textLength="258" x="44" y="360.6992">・タイトルは強制的に255文字でカットする</text><text fill="#000000" font-family="sans-serif" font-size="13" lengthAdjust="spacingAndGlyphs" textLength="269" x="44" y="376.0098">・タイトルを231文字でカットしてURLに設定</text><text fill="#000000" font-family="sans-serif" font-size="13" lengthAdjust="spacingAndGlyphs" textLength="254" x="44" y="391.3203">・URLをURLエンコードしてURLを生成する</text><text fill="#000000" font-family="sans-serif" font-size="13" lengthAdjust="spacingAndGlyphs" textLength="453" x="44" y="406.6309">・URLの重複チェックを行い重複している場合はユニークな文字列に変換する</text><!--class 親コンテンツ--><polygon fill="#FEFECE" filter="url(#fvlisr7)" points="547,335.6992,547,336.1302,557.4,336.092,567.8,335.8909,578.2,335.0403,588.6,335.8597,599,335.7605,609.4,335.0488,619.8,335.289,630.2,336.0109,640.6,335.7808,651,335.6992,651.1858,335.6992,651.1713,343.6992,651.1567,351.6992,651.0034,359.6992,650.8568,367.6992,651,375.6992,651,375.7937,640.6,375.6917,630.2,375.6661,619.8,376.2677,609.4,375.3546,599,376.2904,588.6,375.5415,578.2,375.6207,567.8,375.6815,557.4,375.4976,547,375.6992,546.7906,375.6992,547.0099,367.6992,547.0597,359.6992,546.954,351.6992,546.8615,343.6992,547,335.6992" style="stroke: #A80036; stroke-width: 1.5;"/><polygon fill="#ADD1B2" points="571.9548,354.8992,571.647,358.0767,569.4601,359.6043,567.2268,361.4888,564.7252,362.57,562.3348,362.4852,558.4347,362.5392,555.6564,361.2209,553.8685,359.0267,552.1257,355.8361,550.525,353.302,550.5844,350.4945,551.6407,348.6057,552.7464,346.853,553.8441,345.0663,556.3185,342.374,558.2706,341.3727,561.7767,340.1003,565.0001,341.7266,568.147,343.2718,570.3838,344.6158,572.5459,347.8019,572.8424,350.7478,572.4046,353.5462" style="stroke: #A80036; stroke-width: 1.0;"/><path d="M564.4731,357.8423 Q563.8921,358.1411 563.2529,358.2905 Q562.6138,358.4399 561.9082,358.4399 Q559.4014,358.4399 558.0815,356.7881 Q556.7617,355.1362 556.7617,352.0151 Q556.7617,348.8857 558.0815,347.2339 Q559.4014,345.582 561.9082,345.582 Q562.6138,345.582 563.2612,345.7314 Q563.9087,345.8809 564.4731,346.1797 L564.4731,348.9023 Q563.8423,348.3213 563.2488,348.0515 Q562.6553,347.7817 562.0244,347.7817 Q560.6797,347.7817 559.9949,348.8484 Q559.3101,349.915 559.3101,352.0151 Q559.3101,354.1069 559.9949,355.1736 Q560.6797,356.2402 562.0244,356.2402 Q562.6553,356.2402 563.2488,355.9705 Q563.8423,355.7007 564.4731,355.1196 Z "/><text fill="#000000" font-family="sans-serif" font-size="12" lengthAdjust="spacingAndGlyphs" textLength="72" x="576" y="356.2344">親コンテンツ</text><path d="M548,367.6992 L548,367.6131 L558.2,367.1826 L568.4,366.8623 L578.6,367.3856 L588.8,368.6703 L599,367.6446 L609.2,368.3345 L619.4,368.1853 L629.6,366.8343 L639.8,367.7356 L650,367.6992 " fill="#FEFECE" style="stroke: #A80036; stroke-width: 1.5;"/><path d="M302.2,158.6992 L302.2,158.8631 L306.54,158.4411 L310.88,158.9745 L315.22,158.9341 L319.56,158.5068 L323.9,158.6992 " fill="none" style="stroke: #A80036; stroke-width: 1.0;"/><polygon fill="#A80036" points="289.18,158.6992,289.222,158.7622,290.3776,159.4957,291.594,160.3203,292.7152,161.002,293.9664,161.8789,295.18,162.6992,295.1289,162.6226,296.25,161.7043,297.6001,161.1293,298.8757,160.4427,299.9916,159.5166,301.18,158.6992,301.2924,158.8678,299.9983,157.9267,298.6654,156.9274,297.4847,156.1563,296.2494,155.3033,295.18,154.6992,295.1435,154.6445,293.9579,155.466,292.7915,156.3164,291.6642,157.2255,290.5171,158.1048,289.18,158.6992" style="stroke: #A80036; stroke-width: 1.0;"/><path d="M416.07,198.9292 L416.665,199.6279 L423.1437,204.7679 L431.0998,211.6428 L439.4158,218.9403 L446.3601,224.627 L454.3241,231.5111 L462.4893,238.6316 L470.2271,245.2502 L476.7487,250.4405 L484.795,257.4212 L491.9823,263.3933 L500.4131,270.8257 L507.742,276.964 L515.9165,284.0954 L523.2678,290.26 L530.499,296.2836 L538.2724,302.944 L545.8037,309.3201 L553.9649,316.4358 L561.7176,323.0718 L568.6884,328.7897 L576.64,335.6592 " fill="none" style="stroke: #A80036; stroke-width: 1.0;"/><text fill="#000000" font-family="sans-serif" font-size="13" lengthAdjust="spacingAndGlyphs" textLength="22" x="424.0955" y="201.1505">0..*</text><text fill="#000000" font-family="sans-serif" font-size="13" lengthAdjust="spacingAndGlyphs" textLength="8" x="560.5673" y="324.841">1</text></g></svg>