<?xml version="1.0" encoding="UTF-8" standalone="no"?><svg xmlns="http://www.w3.org/2000/svg" xmlns:xlink="http://www.w3.org/1999/xlink" contentScriptType="application/ecmascript" contentStyleType="text/css" height="195px" preserveAspectRatio="none" style="width:199px;height:195px;" version="1.1" viewBox="0 0 199 195" width="199px" zoomAndPan="magnify"><defs><filter height="300%" id="f885gx6" width="300%" x="-1" y="-1"><feGaussianBlur result="blurOut" stdDeviation="2.0"/><feColorMatrix in="blurOut" result="blurOut2" type="matrix" values="0 0 0 0 0 0 0 0 0 0 0 0 0 0 0 0 0 0 .4 0"/><feOffset dx="4.0" dy="4.0" in="blurOut2" result="blurOut3"/><feBlend in="SourceGraphic" in2="blurOut3" mode="normal"/></filter></defs><g><text fill="#000000" font-family="sans-serif" font-size="18" lengthAdjust="spacingAndGlyphs" textLength="198" x="0" y="17.4023">ドメインモデル図：ログ</text><!--cluster ログ--><polygon fill="#FFFFFF" filter="url(#f885gx6)" points="32,45.1992,32,45.4067,38.8,45.1816,45.6,45.1183,52.4,45.0549,59.2,45.4227,66,45.1992,65.9822,45.1937,67.4117,49.7005,68.8898,54.2225,69.9764,58.6226,71.4449,63.1416,73,67.6875,73,68.007,83.125,68.0099,93.25,67.482,103.375,67.6503,113.5,68.3048,123.625,68.4095,133.75,67.9904,143.875,67.2209,154,67.6875,153.986,67.6875,153.8434,77.7301,154.4389,87.7728,153.7855,97.8154,154.2544,107.8581,154.5219,117.9007,154.0208,127.9434,154.0457,137.986,154.509,148.0286,154.1684,158.0713,153.6444,168.1139,153.5936,178.1566,154,188.1992,154,188.7232,143.8333,188.7466,133.6667,187.6069,123.5,188.3492,113.3333,187.9763,103.1667,188.205,93,188.7439,82.8333,188.3005,72.6667,187.975,62.5,187.4524,52.3333,188.2694,42.1667,187.9921,32,188.1992,31.6449,188.1992,31.884,177.9849,31.7716,167.7706,31.6324,157.5564,31.297,147.3421,32.6892,137.1278,32.5116,126.9135,32.1711,116.6992,31.5118,106.4849,31.9263,96.2706,31.3197,86.0564,31.2741,75.8421,31.4033,65.6278,31.6012,55.4135,32,45.1992" style="stroke: #000000; stroke-width: 2.0;"/><path d="M32,67.6875 L32,67.7577 L40.2,67.4416 L48.4,67.7052 L56.6,67.6759 L64.8,67.7071 L73,67.6875 " fill="#FFFFFF" style="stroke: #000000; stroke-width: 2.0;"/><text fill="#000000" font-family="sans-serif" font-size="14" font-weight="bold" lengthAdjust="spacingAndGlyphs" textLength="28" x="36" y="60.7344">ログ</text><!--class ログ--><polygon fill="#FEFECE" filter="url(#f885gx6)" points="48.5,80.1992,48.5,80.0568,58.3889,80.1136,68.2778,80.6103,78.1667,80.6016,88.0556,79.7876,97.9444,80.731,107.8333,79.5999,117.7222,79.7903,127.6111,79.8433,137.5,80.1992,137.0935,80.1992,137.985,90.4015,138.027,100.6037,136.7775,110.806,137.6083,121.0082,137.0922,131.2105,138.1833,141.4128,137.2177,151.615,136.7555,161.8173,137.5,172.0195,137.5,171.7406,127.6111,171.51,117.7222,171.9634,107.8333,172.4739,97.9444,171.7024,88.0556,171.3308,78.1667,171.731,68.2778,171.3937,58.3889,172.6365,48.5,172.0195,49.1904,172.0195,49.1213,161.8173,48.5266,151.615,48.2734,141.4128,48.503,131.2105,49.1202,121.0082,49.144,110.806,48.5988,100.6037,48.44,90.4015,48.5,80.1992" style="stroke: #A80036; stroke-width: 1.5;"/><polygon fill="#ADD1B2" points="88.4437,98.3623,88.1514,101.2517,85.7417,103.6178,83.4913,106.4226,80.8361,107.132,77.6352,106.6629,74.8368,106.787,72.3541,106.2094,70.5708,103.6423,69.2097,101.3722,67.6383,98.1309,66.9618,94.3226,67.5631,91.7507,69.5446,90.324,71.9643,88.0012,73.4198,86.0393,76.5208,84.9847,79.7508,85.4872,82.2199,85.5726,83.9534,87.0922,86.1868,88.4424,87.2682,90.6621,88.8194,92.0194,89.8274,94.4683,88.8968,97.1963" style="stroke: #A80036; stroke-width: 1.0;"/><path d="M80.8231,102.3423 Q80.2421,102.6411 79.6029,102.7905 Q78.9638,102.9399 78.2582,102.9399 Q75.7514,102.9399 74.4315,101.2881 Q73.1117,99.6362 73.1117,96.5151 Q73.1117,93.3857 74.4315,91.7339 Q75.7514,90.082 78.2582,90.082 Q78.9638,90.082 79.6112,90.2314 Q80.2587,90.3809 80.8231,90.6797 L80.8231,93.4023 Q80.1923,92.8213 79.5988,92.5515 Q79.0053,92.2817 78.3744,92.2817 Q77.0297,92.2817 76.3449,93.3484 Q75.6601,94.415 75.6601,96.5151 Q75.6601,98.6069 76.3449,99.6736 Q77.0297,100.7402 78.3744,100.7402 Q79.0053,100.7402 79.5988,100.4705 Q80.1923,100.2007 80.8231,99.6196 Z "/><text fill="#000000" font-family="sans-serif" font-size="12" lengthAdjust="spacingAndGlyphs" textLength="24" x="95.65" y="100.7344">ログ</text><path d="M49.5,112.1992 L49.5,113.0442 L59.1667,112.3976 L68.8333,113.1885 L78.5,112.473 L88.1667,112.3288 L97.8333,111.4608 L107.5,112.3154 L117.1667,111.5005 L126.8333,111.8616 L136.5,112.1992 " fill="#FEFECE" style="stroke: #A80036; stroke-width: 1.5;"/><text fill="#000000" font-family="sans-serif" font-size="11" lengthAdjust="spacingAndGlyphs" textLength="55" x="54.5" y="126.834">メッセージ</text><text fill="#000000" font-family="sans-serif" font-size="11" lengthAdjust="spacingAndGlyphs" textLength="55" x="54.5" y="139.7891">ユーザーID</text><text fill="#000000" font-family="sans-serif" font-size="11" lengthAdjust="spacingAndGlyphs" textLength="77" x="54.5" y="152.7441">コントローラー</text><text fill="#000000" font-family="sans-serif" font-size="11" lengthAdjust="spacingAndGlyphs" textLength="55" x="54.5" y="165.6992">アクション</text></g></svg>