<?xml version="1.0" encoding="UTF-8" standalone="no"?><svg xmlns="http://www.w3.org/2000/svg" xmlns:xlink="http://www.w3.org/1999/xlink" contentScriptType="application/ecmascript" contentStyleType="text/css" height="169px" preserveAspectRatio="none" style="width:289px;height:169px;" version="1.1" viewBox="0 0 289 169" width="289px" zoomAndPan="magnify"><defs><filter height="300%" id="fo1dj54" width="300%" x="-1" y="-1"><feGaussianBlur result="blurOut" stdDeviation="2.0"/><feColorMatrix in="blurOut" result="blurOut2" type="matrix" values="0 0 0 0 0 0 0 0 0 0 0 0 0 0 0 0 0 0 .4 0"/><feOffset dx="4.0" dy="4.0" in="blurOut2" result="blurOut3"/><feBlend in="SourceGraphic" in2="blurOut3" mode="normal"/></filter></defs><g><text fill="#000000" font-family="sans-serif" font-size="18" lengthAdjust="spacingAndGlyphs" textLength="288" x="0" y="17.4023">ドメインモデル図：サイト基本設定</text><!--cluster サイト基本設定--><polygon fill="#FFFFFF" filter="url(#fo1dj54)" points="64,45.1992,64,45.6981,74.4,45.1466,84.8,44.6413,95.2,45.5121,105.6,44.666,116,45.8765,126.4,45.1679,136.8,45.7698,147.2,45.3145,157.6,45.2739,168,45.1992,167.8912,45.1654,169.5026,49.7288,171.0072,54.259,172.3351,58.7342,173.6389,63.2019,175,67.6875,175,67.933,182.4,67.4765,189.8,67.7653,197.2,67.7019,204.6,67.6487,212,67.6875,211.3503,67.6875,212.7293,78.1888,212.2985,88.6901,211.7756,99.1914,212.0744,109.6927,212.242,120.194,212.0173,130.6953,212.476,141.1966,212.3389,151.6979,212,162.1992,212,162.1201,202.1333,162.6047,192.2667,162.2236,182.4,162.3784,172.5333,162.2108,162.6667,161.6696,152.8,161.6032,142.9333,162.6484,133.0667,161.4662,123.2,161.9937,113.3333,162.3137,103.4667,161.5409,93.6,161.6951,83.7333,161.9177,73.8667,162.7633,64,162.1992,64.6045,162.1992,64.2572,152.4492,63.7097,142.6992,63.9792,132.9492,64.6726,123.1992,63.2943,113.4492,63.3129,103.6992,64.3405,93.9492,64.3413,84.1992,63.4655,74.4492,64.4024,64.6992,63.9927,54.9492,64,45.1992" style="stroke: #000000; stroke-width: 2.0;"/><path d="M64,67.6875 L64,67.644 L74.0909,67.9105 L84.1818,67.6613 L94.2727,67.7475 L104.3636,68.3594 L114.4545,67.7752 L124.5455,68.3495 L134.6364,68.3152 L144.7273,67.6032 L154.8182,66.8214 L164.9091,67.8119 L175,67.6875 " fill="#FFFFFF" style="stroke: #000000; stroke-width: 2.0;"/><text fill="#000000" font-family="sans-serif" font-size="14" font-weight="bold" lengthAdjust="spacingAndGlyphs" textLength="98" x="68" y="60.7344">サイト基本設定</text><!--class サイト基本設定--><polygon fill="#FEFECE" filter="url(#fo1dj54)" points="80,80.1992,80,80.1419,89.6667,80.616,99.3333,80.3953,109,80.0195,118.6667,80.0868,128.3333,79.7531,138,80.875,147.6667,80.8953,157.3333,80.2277,167,79.6656,176.6667,80.6948,186.3333,80.739,196,80.1992,196.2854,80.1992,195.7608,89.615,195.6349,99.0307,196.7375,108.4464,195.3464,117.8622,196.65,127.2779,195.2596,136.6936,196,146.1094,196,145.668,186.3333,145.5911,176.6667,146.514,167,146.2543,157.3333,145.8941,147.6667,146.3765,138,145.8821,128.3333,146.3959,118.6667,145.381,109,146.4123,99.3333,146.5058,89.6667,145.5099,80,146.1094,80.6191,146.1094,79.7648,136.6936,80.5985,127.2779,79.6136,117.8622,80.3844,108.4464,80.696,99.0307,80.7134,89.615,80,80.1992" style="stroke: #A80036; stroke-width: 1.5;"/><polygon fill="#ADD1B2" points="104.9133,99.0753,104.7308,101.5445,102.3652,104.1987,100.1108,105.4331,97.8486,106.421,94.4869,107.296,91.2994,107.1405,88.2738,104.8504,87.1151,103.0242,85.3892,100.749,84.9165,98.519,84.3873,95.7253,84.2294,92.5372,86.0527,90.431,87.9727,87.7445,91.2662,86.2028,93.8005,85.0454,96.8647,84.7119,100.1893,86.3173,102.1757,87.0273,103.7349,89.6102,104.8692,92.3799,106.3936,95.0257,105.619,97.5848" style="stroke: #A80036; stroke-width: 1.0;"/><path d="M97.4731,102.3423 Q96.8921,102.6411 96.2529,102.7905 Q95.6138,102.9399 94.9082,102.9399 Q92.4014,102.9399 91.0815,101.2881 Q89.7617,99.6362 89.7617,96.5151 Q89.7617,93.3857 91.0815,91.7339 Q92.4014,90.082 94.9082,90.082 Q95.6138,90.082 96.2612,90.2314 Q96.9087,90.3809 97.4731,90.6797 L97.4731,93.4023 Q96.8423,92.8213 96.2488,92.5515 Q95.6553,92.2817 95.0244,92.2817 Q93.6797,92.2817 92.9949,93.3484 Q92.3101,94.415 92.3101,96.5151 Q92.3101,98.6069 92.9949,99.6736 Q93.6797,100.7402 95.0244,100.7402 Q95.6553,100.7402 96.2488,100.4705 Q96.8423,100.2007 97.4731,99.6196 Z "/><text fill="#000000" font-family="sans-serif" font-size="12" lengthAdjust="spacingAndGlyphs" textLength="84" x="109" y="100.7344">サイト基本設定</text><path d="M81,112.1992 L81,112.0668 L91.3636,111.3768 L101.7273,112.4434 L112.0909,112.0692 L122.4545,112.4527 L132.8182,112.1166 L143.1818,112.6129 L153.5455,112.1227 L163.9091,112.5512 L174.2727,113.0504 L184.6364,113.037 L195,112.1992 " fill="#FEFECE" style="stroke: #A80036; stroke-width: 1.5;"/><text fill="#000000" font-family="sans-serif" font-size="11" lengthAdjust="spacingAndGlyphs" textLength="33" x="86" y="126.834">設定名</text><text fill="#000000" font-family="sans-serif" font-size="11" lengthAdjust="spacingAndGlyphs" textLength="11" x="86" y="139.7891">値</text></g></svg>