<?xml version="1.0" encoding="UTF-8" standalone="no"?><svg xmlns="http://www.w3.org/2000/svg" xmlns:xlink="http://www.w3.org/1999/xlink" contentScriptType="application/ecmascript" contentStyleType="text/css" height="452px" preserveAspectRatio="none" style="width:627px;height:452px;" version="1.1" viewBox="0 0 627 452" width="627px" zoomAndPan="magnify"><defs><filter height="300%" id="fcwezxk" width="300%" x="-1" y="-1"><feGaussianBlur result="blurOut" stdDeviation="2.0"/><feColorMatrix in="blurOut" result="blurOut2" type="matrix" values="0 0 0 0 0 0 0 0 0 0 0 0 0 0 0 0 0 0 .4 0"/><feOffset dx="4.0" dy="4.0" in="blurOut2" result="blurOut3"/><feBlend in="SourceGraphic" in2="blurOut3" mode="normal"/></filter></defs><g><text fill="#000000" font-family="sans-serif" font-size="18" lengthAdjust="spacingAndGlyphs" textLength="252" x="201" y="17.4023">ドメインモデル図：固定ページ</text><!--cluster 固定ページ--><polygon fill="#FFFFFF" filter="url(#fcwezxk)" points="22,45.1992,22,45.5965,31.5,45.9426,41,45.1609,50.5,45.8653,60,44.7047,69.5,45.5789,79,44.8327,88.5,44.5236,98,45.1992,97.8101,45.1401,99.1696,49.6251,100.8562,54.212,102.2369,58.7037,103.4101,63.1307,105,67.6875,105,68.2002,114.9038,67.7145,124.8077,67.0394,134.7115,67.9308,144.6154,67.6084,154.5192,67.0571,164.4231,67.3479,174.3269,68.3931,184.2308,68.0464,194.1346,67.711,204.0385,67.2883,213.9423,66.9989,223.8462,67.9868,233.75,67.5273,243.6538,68.3646,253.5577,68.2564,263.4615,68.0822,273.3654,67.9954,283.2692,68.1216,293.1731,67.0532,303.0769,67.8718,312.9808,67.0309,322.8846,67.7287,332.7885,68.3465,342.6923,68.3587,352.5962,67.8932,362.5,67.0027,372.4038,68.3238,382.3077,67.3344,392.2115,67.3679,402.1154,68.191,412.0192,68.1783,421.9231,68.0516,431.8269,67.7314,441.7308,67.0412,451.6346,68.0662,461.5385,68.1522,471.4423,68.1027,481.3462,67.7115,491.25,67.693,501.1538,67.6351,511.0577,67.5821,520.9615,67.9351,530.8654,67.8024,540.7692,68.1115,550.6731,67.069,560.5769,67.5366,570.4808,67.6305,580.3846,67.6289,590.2885,67.3479,600.1923,68.4138,610.0962,67.6194,620,67.6875,619.7786,67.6875,620.2476,77.622,620.2521,87.5565,620.1903,97.4911,620.3014,107.4256,620.5933,117.3601,620.7225,127.2946,619.3315,137.2291,619.7474,147.1637,620.041,157.0982,620.4749,167.0327,620.4124,176.9672,619.6524,186.9017,620.4576,196.8362,620.1263,206.7708,619.751,216.7053,619.5629,226.6398,619.659,236.5743,619.5391,246.5088,619.3983,256.4434,620.6851,266.3779,619.6751,276.3124,619.6003,286.2469,620.4983,296.1814,619.7029,306.116,620.5148,316.0505,620.2163,325.985,619.6779,335.9195,620.6637,345.854,619.4165,355.7885,619.5595,365.7231,620.4707,375.6576,620.5674,385.5921,619.5953,395.5266,620.0744,405.4611,619.5917,415.3957,619.6173,425.3302,620.7253,435.2647,620,445.1992,620,445.7429,610.0333,444.8514,600.0667,445.6832,590.1,444.5296,580.1333,444.8388,570.1667,444.8188,560.2,445.1116,550.2333,445.0881,540.2667,445.5358,530.3,445.2066,520.3333,444.7518,510.3667,445.4985,500.4,445.5414,490.4333,445.1007,480.4667,445.7271,470.5,445.592,460.5333,444.5092,450.5667,445.7162,440.6,445.662,430.6333,445.1235,420.6667,445.7343,410.7,445.2041,400.7333,444.6796,390.7667,445.1219,380.8,444.7956,370.8333,445.4228,360.8667,445.2447,350.9,445.6269,340.9333,445.7017,330.9667,444.8215,321,444.6719,311.0333,445.7003,301.0667,445.0177,291.1,445.4814,281.1333,444.6411,271.1667,445.6502,261.2,445.1982,251.2333,445.2035,241.2667,444.6608,231.3,444.671,221.3333,445.429,211.3667,445.3328,201.4,445.6003,191.4333,445.0637,181.4667,445.1848,171.5,444.7597,161.5333,444.6668,151.5667,444.8691,141.6,444.9426,131.6333,445.7463,121.6667,445.0382,111.7,445.6131,101.7333,445.5522,91.7667,445.884,81.8,445.774,71.8333,445.44,61.8667,445.6535,51.9,445.5982,41.9333,445.6204,31.9667,444.682,22,445.1992,22.0493,445.1992,21.4862,435.1992,21.6912,425.1992,21.6954,415.1992,22.3819,405.1992,22.6821,395.1992,22.5516,385.1992,21.3692,375.1992,21.6515,365.1992,22.2327,355.1992,21.2695,345.1992,22.4145,335.1992,21.7882,325.1992,22.3666,315.1992,22.2791,305.1992,22.1026,295.1992,22.0488,285.1992,21.9389,275.1992,21.3071,265.1992,22.441,255.1992,21.5479,245.1992,21.8542,235.1992,21.2549,225.1992,22.4516,215.1992,21.5269,205.1992,22.6545,195.1992,22.0765,185.1992,22.0219,175.1992,21.6763,165.1992,22.3966,155.1992,22.002,145.1992,21.8972,135.1992,22.1702,125.1992,22.1358,115.1992,22.1549,105.1992,22.488,95.1992,21.7412,85.1992,21.4708,75.1992,21.3803,65.1992,21.9727,55.1992,22,45.1992" style="stroke: #000000; stroke-width: 2.0;"/><path d="M22,67.6875 L22,67.1849 L32.375,67.2951 L42.75,66.9575 L53.125,67.2681 L63.5,67.0405 L73.875,67.3301 L84.25,68.0322 L94.625,67.6814 L105,67.6875 " fill="#FFFFFF" style="stroke: #000000; stroke-width: 2.0;"/><text fill="#000000" font-family="sans-serif" font-size="14" font-weight="bold" lengthAdjust="spacingAndGlyphs" textLength="70" x="26" y="60.7344">固定ページ</text><!--class 固定ページ--><polygon fill="#FEFECE" filter="url(#fcwezxk)" points="221,112.6992,221,112.0749,231,112.934,241,112.7601,251,112.4944,261,112.0407,271,111.9863,281,112.7251,291,112.5399,301,113.0651,311,112.9987,321,113.0679,331,112.2039,341,112.0267,351,112.3577,361,113.4039,371,112.2318,381,112.512,391,112.3991,401,112.7165,411,113.3181,421,112.6992,421.5787,112.6992,420.9316,122.9015,420.5485,133.1037,421.0537,143.306,420.8229,153.5082,421.6425,163.7105,420.8935,173.9128,421.3244,184.115,420.342,194.3173,421,204.5195,421,205.2261,411,204.1544,401,204.917,391,204.9555,381,204.5406,371,205.0008,361,204.4625,351,205.0472,341,205.116,331,204.6074,321,205.0339,311,204.9191,301,204.8699,291,204.5395,281,205.1583,271,204.7357,261,205.1629,251,204.71,241,204.4469,231,204.6105,221,204.5195,221.5369,204.5195,220.5422,194.3173,220.6675,184.115,221.379,173.9128,221.144,163.7105,221.2714,153.5082,220.4169,143.306,221.6243,133.1037,220.2906,122.9015,221,112.6992" style="stroke: #A80036; stroke-width: 1.5;"/><polygon fill="#ADD1B2" points="297.1796,130.8699,296.6605,133.459,295.4708,136.4111,293.0933,137.5608,290.4717,139.7214,288.4718,140.1393,284.6029,139.995,281.877,138.145,279.4101,136.4766,277.1126,135.0196,276.2456,132.3356,275.2153,128.9654,276.4506,126.2773,277.5546,124.0096,278.6329,121.4285,280.8618,118.6142,284.3635,117.4572,286.6855,117.6978,288.636,118.0681,292.1679,119.1794,294.5947,120.6631,296.4666,123.8374,296.8081,126.4141,297.595,130.0635" style="stroke: #A80036; stroke-width: 1.0;"/><path d="M289.2231,134.8423 Q288.6421,135.1411 288.0029,135.2905 Q287.3638,135.4399 286.6582,135.4399 Q284.1514,135.4399 282.8315,133.7881 Q281.5117,132.1362 281.5117,129.0151 Q281.5117,125.8857 282.8315,124.2339 Q284.1514,122.582 286.6582,122.582 Q287.3638,122.582 288.0112,122.7314 Q288.6587,122.8809 289.2231,123.1797 L289.2231,125.9023 Q288.5923,125.3213 287.9988,125.0515 Q287.4053,124.7817 286.7744,124.7817 Q285.4297,124.7817 284.7449,125.8484 Q284.0601,126.915 284.0601,129.0151 Q284.0601,131.1069 284.7449,132.1736 Q285.4297,133.2402 286.7744,133.2402 Q287.4053,133.2402 287.9988,132.9705 Q288.5923,132.7007 289.2231,132.1196 Z "/><text fill="#000000" font-family="sans-serif" font-size="12" lengthAdjust="spacingAndGlyphs" textLength="60" x="307.25" y="133.2344">固定ページ</text><path d="M222,144.6992 L222,144.1274 L231.9,144.4758 L241.8,144.5085 L251.7,144.6033 L261.6,145.4538 L271.5,145.5232 L281.4,144.3814 L291.3,144.4415 L301.2,145.486 L311.1,144.15 L321,143.977 L330.9,145.0765 L340.8,144.4859 L350.7,145.089 L360.6,144.3007 L370.5,145.3436 L380.4,145.5018 L390.3,145.2953 L400.2,145.0675 L410.1,145.018 L420,144.6992 " fill="#FEFECE" style="stroke: #A80036; stroke-width: 1.5;"/><text fill="#000000" font-family="sans-serif" font-size="11" lengthAdjust="spacingAndGlyphs" textLength="44" x="227" y="159.334">本稿記事</text><text fill="#000000" font-family="sans-serif" font-size="11" lengthAdjust="spacingAndGlyphs" textLength="44" x="227" y="172.2891">草稿記事</text><text fill="#000000" font-family="sans-serif" font-size="11" lengthAdjust="spacingAndGlyphs" textLength="121" x="227" y="185.2441">固定ページテンプレート</text><text fill="#000000" font-family="sans-serif" font-size="11" lengthAdjust="spacingAndGlyphs" textLength="188" x="227" y="198.1992">埋め込みコード ※ baserCMS５で廃止</text><polygon fill="#FBFB77" filter="url(#fcwezxk)" points="38.5,297.1992,38.735,297.1992,39.219,307.3903,38.7044,317.5814,38.2311,327.7725,38.8753,337.9636,38.3921,348.1547,38.3726,358.3459,38.0204,368.537,38.5033,378.7281,38.7347,388.9192,37.8995,399.1103,38.2609,409.3014,38.6758,419.4925,38.5,429.6836,38.5,429.8928,48.4123,429.3656,58.3246,428.9399,68.2368,429.6516,78.1491,429.8733,88.0614,429.2159,97.9737,429.5175,107.886,429.6699,117.7982,429.7692,127.7105,429.299,137.6228,428.9635,147.5351,429.897,157.4474,429.3805,167.3596,429.2005,177.2719,429.4824,187.1842,429.603,197.0965,429.9502,207.0088,429.4071,216.9211,430.3203,226.8333,429.1098,236.7456,429.7143,246.6579,429.2646,256.5702,430.3163,266.4825,429.33,276.3947,429.7926,286.307,429.0805,296.2193,430.2304,306.1316,429.7067,316.0439,429.5093,325.9561,428.9811,335.8684,429.2255,345.7807,429.4722,355.693,430.1774,365.6053,430.3915,375.5175,429.3732,385.4298,429.0073,395.3421,429.0345,405.2544,429.6019,415.1667,428.988,425.0789,430.0268,434.9912,429.3701,444.9035,429.305,454.8158,428.9901,464.7281,430.3386,474.6404,429.9425,484.5526,430.2343,494.4649,429.8451,504.3772,429.5263,514.2895,429.5416,524.2018,429.1132,534.114,429.4221,544.0263,429.5788,553.9386,430.0211,563.8509,429.5278,573.7632,430.3726,583.6754,429.7516,593.5877,429.2865,603.5,429.6836,602.8869,429.6836,603.1454,419.4766,603.5927,409.2695,603.9119,399.0625,602.9762,388.8555,604.2054,378.6484,603.2632,368.4414,603.42,358.2344,603.1515,348.0273,602.7733,337.8203,603.4208,327.6133,603.1738,317.4063,603.5,307.1992,603.3479,307.0471,601.5939,305.2931,599.3646,303.0638,597.4389,301.1381,595.5611,299.2604,593.5,297.1992,593.5,297.4662,583.5893,297.5506,573.6786,297.5376,563.7679,296.7775,553.8571,297.1758,543.9464,297.065,534.0357,297.4193,524.125,297.1851,514.2143,297.3431,504.3036,297.257,494.3929,297.3527,484.4821,297.0174,474.5714,296.4769,464.6607,296.5615,454.75,297.8265,444.8393,297.7721,434.9286,297.3748,425.0179,297.8817,415.1071,297.6112,405.1964,297.1161,395.2857,296.5895,385.375,297.0563,375.4643,296.9978,365.5536,297.6244,355.6429,297.2442,345.7321,297.9274,335.8214,296.9419,325.9107,297.8134,316,297.6695,306.0893,296.4628,296.1786,297.4405,286.2679,297.7037,276.3571,297.4736,266.4464,297.157,256.5357,297.7797,246.625,297.1465,236.7143,297.2587,226.8036,297.7852,216.8929,296.7999,206.9821,296.9736,197.0714,297.2407,187.1607,297.0125,177.25,296.5387,167.3393,297.1852,157.4286,297.5359,147.5179,297.8698,137.6071,297.528,127.6964,297.8745,117.7857,297.3299,107.875,297.1861,97.9643,297.142,88.0536,297.8967,78.1429,296.5585,68.2321,297.7371,58.3214,297.7159,48.4107,296.9318,38.5,297.1992" style="stroke: #A80036; stroke-width: 1.0;"/><polygon fill="#FBFB77" points="38.5,297.1992,37.8852,297.1992,38.4058,307.3903,38.4801,317.5814,37.8554,327.7725,37.9765,337.9636,37.866,348.1547,38.9797,358.3459,38.0262,368.537,38.1569,378.7281,38.5149,388.9192,38.8976,399.1103,38.5333,409.3014,38.2198,419.4925,38.5,429.6836,38.5,429.508,48.4123,428.9903,58.3246,429.5594,68.2368,429.0558,78.1491,430.0502,88.0614,430.4262,97.9737,429.5345,107.886,429.788,117.7982,429.2625,127.7105,429.8971,137.6228,430.4032,147.5351,430.1407,157.4474,429.3366,167.3596,429.7983,177.2719,428.9449,187.1842,430.0802,197.0965,430.0997,207.0088,429.3441,216.9211,428.9736,226.8333,430.1756,236.7456,430.1239,246.6579,429.2821,256.5702,428.9817,266.4825,429.2127,276.3947,429.7424,286.307,429.0088,296.2193,429.4996,306.1316,429.7735,316.0439,430.1735,325.9561,429.7618,335.8684,429.0038,345.7807,429.6549,355.693,430.0539,365.6053,429.8246,375.5175,429.2874,385.4298,429.3002,395.3421,430.3597,405.2544,429.1438,415.1667,429.1074,425.0789,429.6696,434.9912,428.9526,444.9035,429.9238,454.8158,430.1599,464.7281,429.1813,474.6404,429.3187,484.5526,430.1359,494.4649,428.993,504.3772,429.5127,514.2895,428.9856,524.2018,429.948,534.114,429.3564,544.0263,429.6651,553.9386,430.089,563.8509,430.3609,573.7632,429.7059,583.6754,429.2573,593.5877,429.1321,603.5,429.6836,603.1301,429.6836,602.9396,419.4766,603.8513,409.2695,603.4437,399.0625,603.0192,388.8555,603.1058,378.6484,603.866,368.4414,602.8504,358.2344,603.4629,348.0273,604.1632,337.8203,603.7073,327.6133,603.0267,317.4063,603.5,307.1992,603.554,307.2532,601.5789,305.2781,599.3924,303.0916,597.4514,301.1507,595.5087,299.2079,593.5,297.1992,593.5,296.7251,583.5556,297.7603,573.6111,297.3724,563.6667,297.6386,553.7222,297.018,543.7778,296.873,533.8333,296.587,523.8889,297.8834,513.9444,296.9856,504,297.8118,494.0556,296.5457,484.1111,297.0635,474.1667,296.5915,464.2222,297.3922,454.2778,297.7094,444.3333,297.4582,434.3889,297.6139,424.4444,297.9029,414.5,297.5208,404.5556,296.7831,394.6111,297.0315,384.6667,297.1531,374.7222,296.9232,364.7778,297.0735,354.8333,297.6331,344.8889,297.7664,334.9444,297.4264,325,297.1992,324.9394,297.1966,325.125,286.9672,323.7237,276.6691,324.1458,266.45,322.9663,256.1615,322.2269,245.892,321.949,235.6426,322.2857,225.4197,322.1332,215.1757,321,204.8892,321.1856,204.8973,320.4653,215.142,320.1656,225.4049,320.2618,235.685,319.6841,245.9359,318.4155,256.1569,318.125,266.4202,318.5905,276.7163,317.5506,286.9472,317,297.1992,317,297.7339,307.0536,297.0007,297.1071,296.9431,287.1607,297.4121,277.2143,296.5996,267.2679,296.5695,257.3214,297.2842,247.375,296.7412,237.4286,296.5665,227.4821,297.6016,217.5357,296.73,207.5893,297.0787,197.6429,297.4706,187.6964,297.1325,177.75,296.9737,167.8036,296.5324,157.8571,297.7398,147.9107,297.6491,137.9643,297.6789,128.0179,296.8388,118.0714,296.8059,108.125,296.7553,98.1786,297.9406,88.2321,297.693,78.2857,297.574,68.3393,297.004,58.3929,297.8178,48.4464,297.379,38.5,297.1992" style="stroke: #A80036; stroke-width: 1.0;"/><path d="M593.5,297.1992 L593.1782,297.1992 L593.227,299.1992 L593.5359,301.1992 L593.2203,303.1992 L593.2177,305.1992 L593.5,307.1992 " fill="#FBFB77" style="stroke: #A80036; stroke-width: 1.0;"/><path d="M603.5,307.1992 L603.5,307.1106 L601.5,307.0054 L599.5,306.9271 L597.5,306.8954 L595.5,307.5012 L593.5,307.1992 " fill="#FBFB77" style="stroke: #A80036; stroke-width: 1.0;"/><text fill="#000000" font-family="sans-serif" font-size="13" lengthAdjust="spacingAndGlyphs" textLength="494" x="44.5" y="314.7676">・記事ではシンタックスエラーチェックを行うかどうかを設定ファイルで設定できる</text><text fill="#000000" font-family="sans-serif" font-size="13" lengthAdjust="spacingAndGlyphs" textLength="155" x="76.5" y="330.0781">（validSyntaxWithPage）</text><text fill="#000000" font-family="sans-serif" font-size="13" lengthAdjust="spacingAndGlyphs" textLength="544" x="44.5" y="345.3887">・記事ではPHPコードの埋め込みを管理者以外もできるかどうかを設定ファイルで設定できる</text><text fill="#000000" font-family="sans-serif" font-size="13" lengthAdjust="spacingAndGlyphs" textLength="211" x="76.5" y="360.6992">（allowedPhpOtherThanAdmins）</text><text fill="#000000" font-family="sans-serif" font-size="13" lengthAdjust="spacingAndGlyphs" textLength="345" x="76.5" y="376.0098">※ baserCMS５で廃止、PHPコードは埋め込む事はできない</text><text fill="#000000" font-family="sans-serif" font-size="13" lengthAdjust="spacingAndGlyphs" textLength="429" x="44.5" y="391.3203">・固定ページのテンプレートは設定しない場合、親フォルダの設定に従う</text><text fill="#000000" font-family="sans-serif" font-size="13" lengthAdjust="spacingAndGlyphs" textLength="312" x="44.5" y="406.6309">・埋め込みコードはシステム管理者しか設定できない</text><text fill="#000000" font-family="sans-serif" font-size="13" lengthAdjust="spacingAndGlyphs" textLength="373" x="76.5" y="421.9414">※ baserCMS５で廃止、埋め込みコードは埋め込む事はできない</text><!--class コンテンツ--><polygon fill="#FEFECE" filter="url(#fcwezxk)" points="456,80.1992,456,80.5917,466.2222,80.657,476.4444,79.7294,486.6667,79.6926,496.8889,79.7771,507.1111,80.7802,517.3333,80.5342,527.5556,79.7945,537.7778,80.6737,548,80.1992,548.0329,80.1992,548.0568,89.9865,548.2779,99.7737,547.9351,109.5609,548.2487,119.3481,548.4036,129.1354,547.3716,138.9226,547.4796,148.7098,547.9065,158.4971,547.2878,168.2843,547.3191,178.0715,548.0642,187.8588,547.4113,197.646,548.317,207.4332,548.6527,217.2205,547.8126,227.0077,548,236.7949,548,237.4939,537.7778,237.0409,527.5556,236.6645,517.3333,236.3453,507.1111,236.6217,496.8889,237.5009,486.6667,236.1428,476.4444,236.4617,466.2222,236.9834,456,236.7949,455.9931,236.7949,456.171,227.0077,456.7118,217.2205,455.8958,207.4332,455.626,197.646,456.0309,187.8588,456.2255,178.0715,455.3943,168.2843,455.7589,158.4971,456.2619,148.7098,455.5891,138.9226,456.2454,129.1354,456.3654,119.3481,456.0175,109.5609,455.6797,99.7737,456.6859,89.9865,456,80.1992" style="stroke: #A80036; stroke-width: 1.5;"/><polygon fill="#ADD1B2" points="482.0684,98.625,480.8669,100.8623,479.6852,103.8425,477,105.5967,474.0341,106.445,471.8438,107.5079,468.4877,106.6492,465.6917,105.243,462.852,104.0319,461.6185,100.5019,460.6989,97.8287,460.2894,94.6586,460.4057,92.6926,461.8461,89.4747,463.7382,88.2118,465.6853,86.3965,468.128,85.5546,470.6082,85.4154,472.7899,84.9962,475.3258,86.3961,477.9112,87.9274,480.3601,89.7622,480.956,91.6935,481.3417,94.5216,481.5772,97.2291" style="stroke: #A80036; stroke-width: 1.0;"/><path d="M473.4731,102.3423 Q472.8921,102.6411 472.2529,102.7905 Q471.6138,102.9399 470.9082,102.9399 Q468.4014,102.9399 467.0815,101.2881 Q465.7617,99.6362 465.7617,96.5151 Q465.7617,93.3857 467.0815,91.7339 Q468.4014,90.082 470.9082,90.082 Q471.6138,90.082 472.2612,90.2314 Q472.9087,90.3809 473.4731,90.6797 L473.4731,93.4023 Q472.8423,92.8213 472.2488,92.5515 Q471.6553,92.2817 471.0244,92.2817 Q469.6797,92.2817 468.9949,93.3484 Q468.3101,94.415 468.3101,96.5151 Q468.3101,98.6069 468.9949,99.6736 Q469.6797,100.7402 471.0244,100.7402 Q471.6553,100.7402 472.2488,100.4705 Q472.8423,100.2007 473.4731,99.6196 Z "/><text fill="#000000" font-family="sans-serif" font-size="12" lengthAdjust="spacingAndGlyphs" textLength="60" x="485" y="100.7344">コンテンツ</text><path d="M457,112.1992 L457,111.5583 L467,112.2007 L477,112.167 L487,113.0543 L497,112.9532 L507,111.7056 L517,112.5762 L527,111.5942 L537,112.9082 L547,112.1992 " fill="#FEFECE" style="stroke: #A80036; stroke-width: 1.5;"/><text fill="#000000" font-family="sans-serif" font-size="11" lengthAdjust="spacingAndGlyphs" textLength="21" x="462" y="126.834">URL</text><text fill="#000000" font-family="sans-serif" font-size="11" lengthAdjust="spacingAndGlyphs" textLength="44" x="462" y="139.7891">タイトル</text><text fill="#000000" font-family="sans-serif" font-size="11" lengthAdjust="spacingAndGlyphs" textLength="77" x="462" y="152.7441">自身の公開状態</text><text fill="#000000" font-family="sans-serif" font-size="11" lengthAdjust="spacingAndGlyphs" textLength="77" x="462" y="165.6992">自身の公開期間</text><text fill="#000000" font-family="sans-serif" font-size="11" lengthAdjust="spacingAndGlyphs" textLength="44" x="462" y="178.6543">公開状態</text><text fill="#000000" font-family="sans-serif" font-size="11" lengthAdjust="spacingAndGlyphs" textLength="44" x="462" y="191.6094">公開期間</text><text fill="#000000" font-family="sans-serif" font-size="11" lengthAdjust="spacingAndGlyphs" textLength="77" x="462" y="204.5645">親コンテンツID</text><text fill="#000000" font-family="sans-serif" font-size="11" lengthAdjust="spacingAndGlyphs" textLength="44" x="462" y="217.5195">作成者ID</text><text fill="#000000" font-family="sans-serif" font-size="11" lengthAdjust="spacingAndGlyphs" textLength="33" x="462" y="230.4746">実体ID</text><path d="M434.09,158.6992 L434.09,158.5407 L438.438,158.4613 L442.786,158.7012 L447.134,158.5524 L451.482,158.6406 L455.83,158.6992 " fill="none" style="stroke: #A80036; stroke-width: 1.0;"/><polygon fill="#A80036" points="421.04,158.6992,421.1472,158.8599,422.1713,159.3962,423.5611,160.4809,424.6572,161.125,425.9072,162.0001,427.04,162.6992,427.0133,162.6591,428.2804,161.9598,429.459,161.1277,430.7351,160.4419,431.9525,159.6679,433.04,158.6992,433.1503,158.8647,431.917,158.0148,430.6976,157.1856,429.4646,156.3362,428.1727,155.3982,427.04,154.6992,426.9422,154.5525,425.8592,155.528,424.5884,156.2218,423.4656,157.1376,422.3445,158.0559,421.04,158.6992" style="stroke: #A80036; stroke-width: 1.0;"/></g></svg>