<?xml version="1.0" encoding="UTF-8" standalone="no"?><svg xmlns="http://www.w3.org/2000/svg" xmlns:xlink="http://www.w3.org/1999/xlink" contentScriptType="application/ecmascript" contentStyleType="text/css" height="452px" preserveAspectRatio="none" style="width:627px;height:452px;" version="1.1" viewBox="0 0 627 452" width="627px" zoomAndPan="magnify"><defs><filter height="300%" id="f4zwcmb" width="300%" x="-1" y="-1"><feGaussianBlur result="blurOut" stdDeviation="2.0"/><feColorMatrix in="blurOut" result="blurOut2" type="matrix" values="0 0 0 0 0 0 0 0 0 0 0 0 0 0 0 0 0 0 .4 0"/><feOffset dx="4.0" dy="4.0" in="blurOut2" result="blurOut3"/><feBlend in="SourceGraphic" in2="blurOut3" mode="normal"/></filter></defs><g><text fill="#000000" font-family="sans-serif" font-size="18" lengthAdjust="spacingAndGlyphs" textLength="252" x="201" y="17.4023">ドメインモデル図：固定ページ</text><!--cluster 固定ページ--><polygon fill="#FFFFFF" filter="url(#f4zwcmb)" points="22,45.1992,22,45.6514,31.5,44.7584,41,45.2542,50.5,44.5144,60,45.2753,69.5,45.5224,79,45.1719,88.5,45.0137,98,45.1992,98.1665,45.251,99.6375,49.7708,100.6851,54.1588,102.4133,58.7586,103.7069,63.2231,105,67.6875,105,67.2775,114.9038,68.1164,124.8077,67.7595,134.7115,67.7317,144.6154,67.6813,154.5192,67.1542,164.4231,67.0558,174.3269,67.8155,184.2308,67.5714,194.1346,67.5029,204.0385,67.8522,213.9423,67.6558,223.8462,67.8694,233.75,68.3846,243.6538,67.3869,253.5577,67.6959,263.4615,67.9293,273.3654,67.1337,283.2692,68.4089,293.1731,67.8209,303.0769,68.0816,312.9808,68.3473,322.8846,67.2691,332.7885,67.8344,342.6923,67.8171,352.5962,67.289,362.5,67.8743,372.4038,67.3488,382.3077,66.9924,392.2115,68.0228,402.1154,67.0491,412.0192,68.4339,421.9231,66.9994,431.8269,67.0048,441.7308,67.6932,451.6346,67.4629,461.5385,68.1012,471.4423,67.432,481.3462,67.9264,491.25,68.2775,501.1538,68.0975,511.0577,68.0584,520.9615,67.1604,530.8654,68.048,540.7692,68.153,550.6731,67.9159,560.5769,68.245,570.4808,67.5382,580.3846,67.4879,590.2885,67.4424,600.1923,67.9964,610.0962,68.4001,620,67.6875,620.5193,67.6875,620.7199,77.622,619.3347,87.5565,619.4236,97.4911,620.1259,107.4256,619.5539,117.3601,620.1411,127.2946,619.5496,137.2291,619.2535,147.1637,620.2365,157.0982,619.5211,167.0327,620.6648,176.9672,619.3227,186.9017,619.7671,196.8362,620.1968,206.7708,619.4812,216.7053,619.7205,226.6398,620.4486,236.5743,620.1108,246.5088,620.0481,256.4434,620.6876,266.3779,620.7407,276.3124,619.6416,286.2469,619.7599,296.1814,620.3884,306.116,620.2992,316.0505,620.346,325.985,619.8721,335.9195,619.6351,345.854,619.5025,355.7885,619.6176,365.7231,619.7608,375.6576,619.4334,385.5921,619.7821,395.5266,619.8849,405.4611,620.28,415.3957,619.9211,425.3302,619.9144,435.2647,620,445.1992,620,445.864,610.0333,444.4605,600.0667,445.5689,590.1,444.8032,580.1333,444.6271,570.1667,445.6739,560.2,445.9322,550.2333,445.8826,540.2667,444.5304,530.3,445.9187,520.3333,445.9295,510.3667,444.7851,500.4,445.119,490.4333,445.8395,480.4667,445.87,470.5,445.0966,460.5333,445.1033,450.5667,445.5718,440.6,445.8365,430.6333,444.9805,420.6667,444.7728,410.7,445.4033,400.7333,444.9706,390.7667,445.5763,380.8,445.017,370.8333,444.8017,360.8667,445.422,350.9,445.6147,340.9333,444.7832,330.9667,444.8986,321,445.0489,311.0333,444.9586,301.0667,445.121,291.1,445.3406,281.1333,444.6901,271.1667,444.5731,261.2,445.7246,251.2333,444.8122,241.2667,445.2568,231.3,445.0536,221.3333,445.6126,211.3667,445.5138,201.4,445.5298,191.4333,445.792,181.4667,444.7521,171.5,444.9279,161.5333,445.8861,151.5667,445.639,141.6,445.0676,131.6333,445.3415,121.6667,444.7195,111.7,445.0313,101.7333,444.8507,91.7667,445.7985,81.8,444.5647,71.8333,444.4862,61.8667,444.6246,51.9,445.447,41.9333,445.384,31.9667,444.6315,22,445.1992,21.8011,445.1992,21.4093,435.1992,21.4227,425.1992,22.3316,415.1992,22.3057,405.1992,22.145,395.1992,21.7941,385.1992,21.7847,375.1992,22.5531,365.1992,22.6113,355.1992,22.3237,345.1992,22.0319,335.1992,22.4759,325.1992,21.6018,315.1992,21.4159,305.1992,22.3687,295.1992,22.6361,285.1992,21.8467,275.1992,21.7001,265.1992,21.5795,255.1992,22.3833,245.1992,22.4013,235.1992,22.5597,225.1992,21.3345,215.1992,22.3366,205.1992,21.7851,195.1992,22.1241,185.1992,22.2542,175.1992,22.3235,165.1992,21.4497,155.1992,22.5766,145.1992,21.734,135.1992,22.0223,125.1992,22.6424,115.1992,21.9047,105.1992,22.3394,95.1992,22.1183,85.1992,21.8008,75.1992,22.2012,65.1992,22.1299,55.1992,22,45.1992" style="stroke: #000000; stroke-width: 2.0;"/><path d="M22,67.6875 L22,67.4244 L32.375,66.7043 L42.75,66.7595 L53.125,67.2041 L63.5,66.9061 L73.875,67.417 L84.25,68.2866 L94.625,66.9343 L105,67.6875 " fill="#FFFFFF" style="stroke: #000000; stroke-width: 2.0;"/><text fill="#000000" font-family="sans-serif" font-size="14" font-weight="bold" lengthAdjust="spacingAndGlyphs" textLength="70" x="26" y="60.7344">固定ページ</text><!--class 固定ページ--><polygon fill="#FEFECE" filter="url(#f4zwcmb)" points="221,112.6992,221,112.646,231,112.9714,241,113.4,251,111.9519,261,112.2282,271,112.3458,281,112.9083,291,113.1608,301,112.4999,311,113.1418,321,113.0492,331,113.1314,341,112.6086,351,112.5852,361,112.1878,371,111.9817,381,112.7749,391,112.7202,401,113.2146,411,112.5804,421,112.6992,420.8721,112.6992,421.2993,122.9015,420.4079,133.1037,420.635,143.306,420.4995,153.5082,420.9124,163.7105,420.8741,173.9128,420.5923,184.115,420.4451,194.3173,421,204.5195,421,204.5114,411,204.6677,401,204.2382,391,204.9711,381,204.7443,371,205.2391,361,203.8766,351,204.7523,341,204.96,331,205.2149,321,204.8867,311,204.8438,301,204.8307,291,205.1321,281,204.2685,271,203.886,261,203.986,251,203.8624,241,205.2163,231,205.0014,221,204.5195,221.068,204.5195,221.2563,194.3173,220.4944,184.115,221.7192,173.9128,220.7059,163.7105,220.5393,153.5082,220.4603,143.306,220.8089,133.1037,221.3756,122.9015,221,112.6992" style="stroke: #A80036; stroke-width: 1.5;"/><polygon fill="#ADD1B2" points="298.1742,131.0637,296.9796,134.309,294.2161,136.1926,291.5559,138.4006,288.9419,139.8397,285.3191,140.1266,282.7622,138.4576,279.8955,137.9764,277.9486,135.7827,275.8448,132.8646,275.4198,130.5651,275.7564,126.8681,277.3676,123.5609,278.8121,120.1833,281.0287,119.1204,283.3174,118.7107,285.5348,117.3911,289.2092,117.9446,291.7983,118.6682,293.7029,120.0134,295.8661,121.839,297.4342,124.6363,297.2467,128.3859,297.8865,131.6703" style="stroke: #A80036; stroke-width: 1.0;"/><path d="M289.2231,134.8423 Q288.6421,135.1411 288.0029,135.2905 Q287.3638,135.4399 286.6582,135.4399 Q284.1514,135.4399 282.8315,133.7881 Q281.5117,132.1362 281.5117,129.0151 Q281.5117,125.8857 282.8315,124.2339 Q284.1514,122.582 286.6582,122.582 Q287.3638,122.582 288.0112,122.7314 Q288.6587,122.8809 289.2231,123.1797 L289.2231,125.9023 Q288.5923,125.3213 287.9988,125.0515 Q287.4053,124.7817 286.7744,124.7817 Q285.4297,124.7817 284.7449,125.8484 Q284.0601,126.915 284.0601,129.0151 Q284.0601,131.1069 284.7449,132.1736 Q285.4297,133.2402 286.7744,133.2402 Q287.4053,133.2402 287.9988,132.9705 Q288.5923,132.7007 289.2231,132.1196 Z "/><text fill="#000000" font-family="sans-serif" font-size="12" lengthAdjust="spacingAndGlyphs" textLength="60" x="307.25" y="133.2344">固定ページ</text><path d="M222,144.6992 L222,144.3726 L231.9,144.8555 L241.8,144.1213 L251.7,145.4688 L261.6,145.4887 L271.5,145.1434 L281.4,144.5281 L291.3,144.9611 L301.2,145.2039 L311.1,143.9697 L321,144.6228 L330.9,145.4159 L340.8,144.0659 L350.7,144.4005 L360.6,144.0848 L370.5,144.3292 L380.4,143.959 L390.3,144.3073 L400.2,143.6993 L410.1,144.7047 L420,144.6992 " fill="#FEFECE" style="stroke: #A80036; stroke-width: 1.5;"/><text fill="#000000" font-family="sans-serif" font-size="11" lengthAdjust="spacingAndGlyphs" textLength="44" x="227" y="159.334">本稿記事</text><text fill="#000000" font-family="sans-serif" font-size="11" lengthAdjust="spacingAndGlyphs" textLength="44" x="227" y="172.2891">草稿記事</text><text fill="#000000" font-family="sans-serif" font-size="11" lengthAdjust="spacingAndGlyphs" textLength="121" x="227" y="185.2441">固定ページテンプレート</text><text fill="#000000" font-family="sans-serif" font-size="11" lengthAdjust="spacingAndGlyphs" textLength="188" x="227" y="198.1992">埋め込みコード ※ baserCMS５で廃止</text><polygon fill="#FBFB77" filter="url(#f4zwcmb)" points="38.5,297.1992,39.1336,297.1992,38.681,307.3903,38.9219,317.5814,38.7275,327.7725,39.094,337.9636,38.1304,348.1547,39.1023,358.3459,39.1356,368.537,38.7374,378.7281,37.9836,388.9192,37.7567,399.1103,38.1264,409.3014,38.3899,419.4925,38.5,429.6836,38.5,430.119,48.4123,428.9889,58.3246,429.785,68.2368,430.4105,78.1491,429.8758,88.0614,429.4421,97.9737,429.3508,107.886,429.5451,117.7982,429.4471,127.7105,429.1075,137.6228,429.8238,147.5351,430.1012,157.4474,429.2158,167.3596,428.9811,177.2719,430.2643,187.1842,429.9059,197.0965,429.0229,207.0088,429.0335,216.9211,429.6128,226.8333,428.9504,236.7456,430.3246,246.6579,429.15,256.5702,430.4328,266.4825,428.978,276.3947,430.1389,286.307,429.4873,296.2193,430.2688,306.1316,429.9762,316.0439,428.9768,325.9561,428.9638,335.8684,429.7117,345.7807,428.9709,355.693,429.7703,365.6053,430.0094,375.5175,429.4305,385.4298,429.3396,395.3421,428.9419,405.2544,429.5634,415.1667,430.1641,425.0789,430.3902,434.9912,429.7335,444.9035,429.1232,454.8158,429.4919,464.7281,429.6795,474.6404,429.2042,484.5526,429.4145,494.4649,429.0933,504.3772,428.9765,514.2895,430.4306,524.2018,429.476,534.114,430.1861,544.0263,429.9128,553.9386,429.3979,563.8509,429.1237,573.7632,430.3829,583.6754,429.7004,593.5877,429.8444,603.5,429.6836,603.2067,429.6836,603.6564,419.4766,603.653,409.2695,602.7521,399.0625,603.9299,388.8555,603.095,378.6484,602.7803,368.4414,603.8931,358.2344,603.6973,348.0273,603.0655,337.8203,602.8133,327.6133,603.2516,317.4063,603.5,307.1992,603.3454,307.0446,601.6625,305.3618,599.5234,303.2226,597.4201,301.1193,595.6501,299.3493,593.5,297.1992,593.5,297.7583,583.5893,297.9264,573.6786,297.6856,563.7679,297.8739,553.8571,296.6926,543.9464,297.3669,534.0357,296.9913,524.125,296.5756,514.2143,297.1538,504.3036,296.8704,494.3929,297.4174,484.4821,297.9329,474.5714,297.3017,464.6607,297.5305,454.75,297.586,444.8393,297.4505,434.9286,297.4216,425.0179,297.5741,415.1071,297.584,405.1964,297.908,395.2857,297.2968,385.375,296.8151,375.4643,297.1338,365.5536,297.2311,355.6429,296.5082,345.7321,296.7801,335.8214,296.9505,325.9107,296.8763,316,296.6334,306.0893,296.7901,296.1786,297.0043,286.2679,297.6959,276.3571,296.8897,266.4464,297.2602,256.5357,297.4486,246.625,297.7662,236.7143,296.9079,226.8036,297.1653,216.8929,297.8504,206.9821,297.1382,197.0714,297.0531,187.1607,296.9989,177.25,297.0606,167.3393,297.3893,157.4286,297.5093,147.5179,297.1465,137.6071,297.0913,127.6964,296.7342,117.7857,297.227,107.875,296.8831,97.9643,297.7248,88.0536,297.285,78.1429,297.7915,68.2321,297.1997,58.3214,297.2664,48.4107,296.8309,38.5,297.1992" style="stroke: #A80036; stroke-width: 1.0;"/><polygon fill="#FBFB77" points="38.5,297.1992,38.1107,297.1992,38.6622,307.3903,38.6667,317.5814,38.0484,327.7725,38.8263,337.9636,38.3024,348.1547,38.4759,358.3459,38.1367,368.537,37.869,378.7281,38.9599,388.9192,39.0809,399.1103,37.8306,409.3014,37.8174,419.4925,38.5,429.6836,38.5,429.4579,48.4123,429.829,58.3246,429.4991,68.2368,429.7844,78.1491,429.7479,88.0614,429.2114,97.9737,430.3258,107.886,429.3809,117.7982,429.4113,127.7105,429.4754,137.6228,429.6114,147.5351,429.2732,157.4474,430.0014,167.3596,429.1922,177.2719,429.8725,187.1842,430.2092,197.0965,429.4542,207.0088,429.2497,216.9211,429.4444,226.8333,429.4771,236.7456,430.2644,246.6579,429.0169,256.5702,429.3036,266.4825,429.1439,276.3947,430.4327,286.307,429.684,296.2193,429.9234,306.1316,429.5274,316.0439,429.237,325.9561,429.8903,335.8684,429.0625,345.7807,429.0664,355.693,429.3111,365.6053,429.8795,375.5175,430.1068,385.4298,429.2318,395.3421,429.652,405.2544,430.3686,415.1667,430.2589,425.0789,429.1699,434.9912,430.0122,444.9035,429.1022,454.8158,429.9973,464.7281,429.9069,474.6404,429.1768,484.5526,429.1665,494.4649,430.3083,504.3772,429.1463,514.2895,429.8711,524.2018,429.0772,534.114,429.2261,544.0263,429.4847,553.9386,429.4873,563.8509,430.4177,573.7632,429.2059,583.6754,429.7316,593.5877,429.9769,603.5,429.6836,603.7137,429.6836,603.1073,419.4766,603.2842,409.2695,602.9184,399.0625,602.9341,388.8555,603.7473,378.6484,602.8109,368.4414,604.1185,358.2344,603.9045,348.0273,603.9714,337.8203,604.2452,327.6133,603.5051,317.4063,603.5,307.1992,603.3628,307.062,601.4799,305.1791,599.5457,303.2449,597.609,301.3082,595.3374,299.0366,593.5,297.1992,593.5,297.1551,583.5556,297.3926,573.6111,297.1975,563.6667,297.5515,553.7222,296.6209,543.7778,296.6411,533.8333,297.5576,523.8889,296.7915,513.9444,296.68,504,297.4548,494.0556,297.1895,484.1111,296.545,474.1667,297.6531,464.2222,296.8783,454.2778,296.9197,444.3333,296.9578,434.3889,297.0361,424.4444,297.9431,414.5,297.6829,404.5556,297.1038,394.6111,297.549,384.6667,297.716,374.7222,297.8294,364.7778,296.4583,354.8333,297.4948,344.8889,296.5066,334.9444,297.9174,325,297.1992,324.5879,297.1814,323.9948,286.9183,324.8142,276.7164,322.9555,266.3984,322.5428,256.1431,323.2649,245.937,322.8224,235.6804,321.2993,225.377,320.7852,215.1173,321,204.8892,321.5989,204.9152,320.0093,215.1222,320.3922,225.4147,319.9695,235.6723,318.8301,245.8989,319.4166,256.2002,317.6993,266.4017,318.4981,276.7123,317.3512,286.9385,317,297.1992,317,296.9056,307.0536,297.1404,297.1071,297.7086,287.1607,297.8256,277.2143,297.9479,267.2679,296.7587,257.3214,296.6703,247.375,297.0592,237.4286,297.9158,227.4821,297.3927,217.5357,296.6636,207.5893,297.0164,197.6429,297.1102,187.6964,297.0873,177.75,297.314,167.8036,297.0147,157.8571,297.1645,147.9107,297.1241,137.9643,296.5547,128.0179,297.227,118.0714,296.9265,108.125,297.1347,98.1786,297.8788,88.2321,297.5617,78.2857,297.2421,68.3393,297.7152,58.3929,296.6076,48.4464,297.4538,38.5,297.1992" style="stroke: #A80036; stroke-width: 1.0;"/><path d="M593.5,297.1992 L593.5457,297.1992 L593.3747,299.1992 L593.5127,301.1992 L593.2849,303.1992 L593.1693,305.1992 L593.5,307.1992 " fill="#FBFB77" style="stroke: #A80036; stroke-width: 1.0;"/><path d="M603.5,307.1992 L603.5,307.3404 L601.5,307.2532 L599.5,307.5109 L597.5,306.9816 L595.5,306.9738 L593.5,307.1992 " fill="#FBFB77" style="stroke: #A80036; stroke-width: 1.0;"/><text fill="#000000" font-family="sans-serif" font-size="13" lengthAdjust="spacingAndGlyphs" textLength="494" x="44.5" y="314.7676">・記事ではシンタックスエラーチェックを行うかどうかを設定ファイルで設定できる</text><text fill="#000000" font-family="sans-serif" font-size="13" lengthAdjust="spacingAndGlyphs" textLength="155" x="76.5" y="330.0781">（validSyntaxWithPage）</text><text fill="#000000" font-family="sans-serif" font-size="13" lengthAdjust="spacingAndGlyphs" textLength="544" x="44.5" y="345.3887">・記事ではPHPコードの埋め込みを管理者以外もできるかどうかを設定ファイルで設定できる</text><text fill="#000000" font-family="sans-serif" font-size="13" lengthAdjust="spacingAndGlyphs" textLength="211" x="76.5" y="360.6992">（allowedPhpOtherThanAdmins）</text><text fill="#000000" font-family="sans-serif" font-size="13" lengthAdjust="spacingAndGlyphs" textLength="345" x="76.5" y="376.0098">※ baserCMS５で廃止、PHPコードは埋め込む事はできない</text><text fill="#000000" font-family="sans-serif" font-size="13" lengthAdjust="spacingAndGlyphs" textLength="429" x="44.5" y="391.3203">・固定ページのテンプレートは設定しない場合、親フォルダの設定に従う</text><text fill="#000000" font-family="sans-serif" font-size="13" lengthAdjust="spacingAndGlyphs" textLength="312" x="44.5" y="406.6309">・埋め込みコードはシステム管理者しか設定できない</text><text fill="#000000" font-family="sans-serif" font-size="13" lengthAdjust="spacingAndGlyphs" textLength="373" x="76.5" y="421.9414">※ baserCMS５で廃止、埋め込みコードは埋め込む事はできない</text><!--class コンテンツ--><polygon fill="#FEFECE" filter="url(#f4zwcmb)" points="456,80.1992,456,80.3997,466.2222,80.4169,476.4444,80.0429,486.6667,80.6697,496.8889,79.5966,507.1111,80.827,517.3333,80.6123,527.5556,80.0427,537.7778,80.0884,548,80.1992,548.2661,80.1992,547.8153,89.9865,548.591,99.7737,547.739,109.5609,548.4222,119.3481,548.674,129.1354,547.8813,138.9226,547.4284,148.7098,547.9187,158.4971,548.0419,168.2843,547.9787,178.0715,548.2998,187.8588,547.4506,197.646,547.3958,207.4332,548.0251,217.2205,547.8868,227.0077,548,236.7949,548,237.3307,537.7778,236.1575,527.5556,236.9108,517.3333,236.5006,507.1111,237.1633,496.8889,237.0597,486.6667,237.2418,476.4444,236.2962,466.2222,237.0551,456,236.7949,455.5902,236.7949,455.3621,227.0077,456.6878,217.2205,456.1985,207.4332,455.5955,197.646,455.3965,187.8588,455.3023,178.0715,455.8524,168.2843,455.9265,158.4971,456.3685,148.7098,455.6946,138.9226,456.6085,129.1354,455.8997,119.3481,455.7438,109.5609,455.4087,99.7737,455.9237,89.9865,456,80.1992" style="stroke: #A80036; stroke-width: 1.5;"/><polygon fill="#ADD1B2" points="482.3221,98.6468,480.2906,101.2899,478.3001,104.1815,475.991,105.5484,474.5104,107.0283,472.2889,106.4823,470.4237,107.3624,467.9422,107.2623,465.3349,104.8261,463.626,103.4543,461.7734,101.4767,460.2349,98.9122,460.0891,95.8836,460.5705,93.0261,462.2996,90.1296,464.9425,87.6273,466.768,85.7347,470.2017,84.6266,473.8219,85.5336,475.8465,85.9588,478.0866,88.5708,481.2419,90.6801,481.0112,93.5562,482.5452,95.8422,482.4882,98.0266" style="stroke: #A80036; stroke-width: 1.0;"/><path d="M473.4731,102.3423 Q472.8921,102.6411 472.2529,102.7905 Q471.6138,102.9399 470.9082,102.9399 Q468.4014,102.9399 467.0815,101.2881 Q465.7617,99.6362 465.7617,96.5151 Q465.7617,93.3857 467.0815,91.7339 Q468.4014,90.082 470.9082,90.082 Q471.6138,90.082 472.2612,90.2314 Q472.9087,90.3809 473.4731,90.6797 L473.4731,93.4023 Q472.8423,92.8213 472.2488,92.5515 Q471.6553,92.2817 471.0244,92.2817 Q469.6797,92.2817 468.9949,93.3484 Q468.3101,94.415 468.3101,96.5151 Q468.3101,98.6069 468.9949,99.6736 Q469.6797,100.7402 471.0244,100.7402 Q471.6553,100.7402 472.2488,100.4705 Q472.8423,100.2007 473.4731,99.6196 Z "/><text fill="#000000" font-family="sans-serif" font-size="12" lengthAdjust="spacingAndGlyphs" textLength="60" x="485" y="100.7344">コンテンツ</text><path d="M457,112.1992 L457,111.51 L467,111.5806 L477,112.3302 L487,112.8065 L497,113.1309 L507,112.1745 L517,111.3483 L527,112.0177 L537,112.8985 L547,112.1992 " fill="#FEFECE" style="stroke: #A80036; stroke-width: 1.5;"/><text fill="#000000" font-family="sans-serif" font-size="11" lengthAdjust="spacingAndGlyphs" textLength="21" x="462" y="126.834">URL</text><text fill="#000000" font-family="sans-serif" font-size="11" lengthAdjust="spacingAndGlyphs" textLength="44" x="462" y="139.7891">タイトル</text><text fill="#000000" font-family="sans-serif" font-size="11" lengthAdjust="spacingAndGlyphs" textLength="77" x="462" y="152.7441">自身の公開状態</text><text fill="#000000" font-family="sans-serif" font-size="11" lengthAdjust="spacingAndGlyphs" textLength="77" x="462" y="165.6992">自身の公開期間</text><text fill="#000000" font-family="sans-serif" font-size="11" lengthAdjust="spacingAndGlyphs" textLength="44" x="462" y="178.6543">公開状態</text><text fill="#000000" font-family="sans-serif" font-size="11" lengthAdjust="spacingAndGlyphs" textLength="44" x="462" y="191.6094">公開期間</text><text fill="#000000" font-family="sans-serif" font-size="11" lengthAdjust="spacingAndGlyphs" textLength="77" x="462" y="204.5645">親コンテンツID</text><text fill="#000000" font-family="sans-serif" font-size="11" lengthAdjust="spacingAndGlyphs" textLength="44" x="462" y="217.5195">作成者ID</text><text fill="#000000" font-family="sans-serif" font-size="11" lengthAdjust="spacingAndGlyphs" textLength="33" x="462" y="230.4746">実体ID</text><path d="M434.09,158.6992 L434.09,158.983 L438.438,158.3715 L442.786,158.5153 L447.134,159.0058 L451.482,158.5562 L455.83,158.6992 " fill="none" style="stroke: #A80036; stroke-width: 1.0;"/><polygon fill="#A80036" points="421.04,158.6992,421.0194,158.6682,422.3244,159.6258,423.3254,160.1273,424.5306,160.9351,425.714,161.7103,427.04,162.6992,427.1048,162.7965,428.115,161.7118,429.5051,161.1969,430.6106,160.2552,431.7904,159.4248,433.04,158.6992,433.1122,158.8076,431.716,157.7132,430.6973,157.1851,429.5664,156.4889,428.3719,155.6971,427.04,154.6992,427.0566,154.7241,425.8811,155.5609,424.5631,156.1838,423.4376,157.0956,422.2916,157.9767,421.04,158.6992" style="stroke: #A80036; stroke-width: 1.0;"/></g></svg>