<?xml version="1.0" encoding="UTF-8" standalone="no"?><svg xmlns="http://www.w3.org/2000/svg" xmlns:xlink="http://www.w3.org/1999/xlink" contentScriptType="application/ecmascript" contentStyleType="text/css" height="453px" preserveAspectRatio="none" style="width:818px;height:453px;" version="1.1" viewBox="0 0 818 453" width="818px" zoomAndPan="magnify"><defs><filter height="300%" id="fxz5t7n" width="300%" x="-1" y="-1"><feGaussianBlur result="blurOut" stdDeviation="2.0"/><feColorMatrix in="blurOut" result="blurOut2" type="matrix" values="0 0 0 0 0 0 0 0 0 0 0 0 0 0 0 0 0 0 .4 0"/><feOffset dx="4.0" dy="4.0" in="blurOut2" result="blurOut3"/><feBlend in="SourceGraphic" in2="blurOut3" mode="normal"/></filter></defs><g><text fill="#000000" font-family="sans-serif" font-size="18" lengthAdjust="spacingAndGlyphs" textLength="216" x="305.5" y="17.4023">ドメインモデル図：サイト</text><!--cluster サイト--><polygon fill="#FFFFFF" filter="url(#fxz5t7n)" points="22,45.1992,22,45.6724,31.6,45.6857,41.2,44.9388,50.8,45.3102,60.4,44.9489,70,45.1992,70.1152,45.2351,71.2251,49.6424,72.6435,54.1458,74.2772,58.7162,75.5615,63.1778,77,67.6875,77,67.0894,86.9836,67.0198,96.9672,67.307,106.9508,68.1964,116.9344,67.9329,126.918,67.7989,136.9016,68.3741,146.8852,67.6959,156.8689,67.1763,166.8525,66.9572,176.8361,67.3159,186.8197,67.9968,196.8033,68.2023,206.7869,67.4943,216.7705,67.4283,226.7541,67.708,236.7377,67.6162,246.7213,68.1148,256.7049,68.2528,266.6885,68.0488,276.6721,67.0557,286.6557,67.3686,296.6393,67.5038,306.623,67.7006,316.6066,68.2105,326.5902,67.4644,336.5738,68.0559,346.5574,68.2359,356.541,68.0604,366.5246,67.2927,376.5082,68.0245,386.4918,66.9778,396.4754,68.2386,406.459,67.8315,416.4426,67.6303,426.4262,67.3486,436.4098,67.4655,446.3934,67.0091,456.377,67.5837,466.3607,67.4923,476.3443,67.6807,486.3279,67.7702,496.3115,67.167,506.2951,67.6907,516.2787,67.819,526.2623,67.521,536.2459,67.0158,546.2295,67.351,556.2131,67.6399,566.1967,67.3342,576.1803,67.3248,586.1639,67.1101,596.1475,67.1206,606.1311,68.2539,616.1148,67.31,626.0984,67.8873,636.082,67.1665,646.0656,67.7782,656.0492,68.2613,666.0328,67.0193,676.0164,67.7757,686,67.6875,685.3989,67.6875,686.2238,77.6483,686.2388,87.6092,686.6292,97.57,686.6601,107.5308,686.4366,117.4917,685.9059,127.4525,686.5593,137.4133,685.2815,147.3742,685.8987,157.335,686.3079,167.2958,686.2116,177.2567,685.7516,187.2175,686.5515,197.1784,685.7747,207.1392,685.7284,217.1,685.2917,227.0609,686.4618,237.0217,686.169,246.9825,686.3025,256.9434,685.8538,266.9042,686.1695,276.865,686.6462,286.8259,686.1161,296.7867,686.0932,306.7475,685.7883,316.7084,685.6753,326.6692,686.2352,336.63,686.3003,346.5909,685.257,356.5517,686.4274,366.5125,686.2236,376.4734,685.3974,386.4342,686.6609,396.395,686.5784,406.3559,685.8927,416.3167,686.494,426.2775,686.4426,436.2384,686,446.1992,686,446.2308,675.9394,446.589,665.8788,446.8454,655.8182,446.3247,645.7576,446.7381,635.697,446.4584,625.6364,446.0845,615.5758,445.5552,605.5152,446.8853,595.4545,445.8813,585.3939,445.4621,575.3333,446.3525,565.2727,446.4155,555.2121,446.5095,545.1515,446.3121,535.0909,446.4195,525.0303,445.8792,514.9697,446.1624,504.9091,446.6404,494.8485,446.7338,484.7879,446.6406,474.7273,445.6475,464.6667,445.5395,454.6061,446.3828,444.5455,445.8168,434.4848,446.1,424.4242,446.7675,414.3636,446.7513,404.303,446.7962,394.2424,445.5088,384.1818,446.145,374.1212,445.7017,364.0606,445.5636,354,446.5126,343.9394,446.7021,333.8788,445.8068,323.8182,446.1581,313.7576,446.1027,303.697,445.5487,293.6364,446.0116,283.5758,446.7025,273.5152,446.0691,263.4545,446.2529,253.3939,446.3009,243.3333,446.5751,233.2727,445.8572,223.2121,445.5851,213.1515,446.5462,203.0909,445.9366,193.0303,446.4843,182.9697,446.8276,172.9091,446.6886,162.8485,445.4873,152.7879,445.7808,142.7273,446.4533,132.6667,446.2914,122.6061,446.5057,112.5455,445.4782,102.4848,446.8502,92.4242,446.76,82.3636,446.9115,72.303,445.568,62.2424,446.4052,52.1818,446.1867,42.1212,446.3036,32.0606,446.3914,22,446.1992,21.4649,446.1992,22.1215,436.1742,21.4463,426.1492,21.9046,416.1242,21.2523,406.0992,22.4091,396.0742,21.3137,386.0492,21.2754,376.0242,21.571,365.9992,22.3695,355.9742,21.8681,345.9492,22.7495,335.9242,22.2988,325.8992,21.298,315.8742,21.4956,305.8492,21.7953,295.8242,21.6682,285.7992,22.3947,275.7742,21.8325,265.7492,22.3083,255.7242,22.7416,245.6992,22.4172,235.6742,22.2003,225.6492,21.7241,215.6242,22.5951,205.5992,22.3486,195.5742,22.2929,185.5492,22.0139,175.5242,22.1839,165.4992,22.3523,155.4742,22.2871,145.4492,21.9065,135.4242,21.3909,125.3992,21.9584,115.3742,22.3987,105.3492,21.9806,95.3242,22.0536,85.2992,22.4889,75.2742,22.2689,65.2492,21.7198,55.2242,22,45.1992" style="stroke: #000000; stroke-width: 2.0;"/><path d="M22,67.6875 L22,68.118 L31.1667,67.932 L40.3333,68.2821 L49.5,67.965 L58.6667,68.398 L67.8333,67.4603 L77,67.6875 " fill="#FFFFFF" style="stroke: #000000; stroke-width: 2.0;"/><text fill="#000000" font-family="sans-serif" font-size="14" font-weight="bold" lengthAdjust="spacingAndGlyphs" textLength="42" x="26" y="60.7344">サイト</text><!--class フォルダ--><polygon fill="#FEFECE" filter="url(#fxz5t7n)" points="197,177.1992,197,177.3194,207,176.5709,217,176.55,227,177.6389,237,177.3833,247,177.2382,257,177.0306,267,177.8367,277,177.1992,277.0376,177.1992,277.2005,185.1992,277.0412,193.1992,276.9797,201.1992,277.2012,209.1992,277,217.1992,277,217.4018,267,217.6609,257,217.2145,247,217.0693,237,217.3781,227,217.9285,217,216.5187,207,217.6587,197,217.1992,196.7993,217.1992,196.9333,209.1992,197.0532,201.1992,196.8174,193.1992,197.0725,185.1992,197,177.1992" style="stroke: #A80036; stroke-width: 1.5;"/><polygon fill="#ADD1B2" points="222.5802,196.6452,221.1515,200.099,218.7246,201.1406,216.423,202.8245,214.6152,203.6781,211.4731,204.1182,208.332,203.3274,206.2215,202.349,204.7478,200.5862,202.5176,198.6089,200.61,195.3147,201.0262,192.9084,201.0872,189.2412,203.5996,186.3646,206.0169,183.7832,209.4715,182.4531,212.4288,181.6229,214.9383,182.7574,216.8553,183.304,218.6488,184.4436,221.0225,186.6065,222.9815,189.5722,222.6676,193.2282" style="stroke: #A80036; stroke-width: 1.0;"/><path d="M214.4731,199.3423 Q213.8921,199.6411 213.2529,199.7905 Q212.6138,199.9399 211.9082,199.9399 Q209.4014,199.9399 208.0815,198.2881 Q206.7617,196.6362 206.7617,193.5151 Q206.7617,190.3857 208.0815,188.7339 Q209.4014,187.082 211.9082,187.082 Q212.6138,187.082 213.2612,187.2314 Q213.9087,187.3809 214.4731,187.6797 L214.4731,190.4023 Q213.8423,189.8213 213.2488,189.5515 Q212.6553,189.2817 212.0244,189.2817 Q210.6797,189.2817 209.9949,190.3484 Q209.3101,191.415 209.3101,193.5151 Q209.3101,195.6069 209.9949,196.6736 Q210.6797,197.7402 212.0244,197.7402 Q212.6553,197.7402 213.2488,197.4705 Q213.8423,197.2007 214.4731,196.6196 Z "/><text fill="#000000" font-family="sans-serif" font-size="12" lengthAdjust="spacingAndGlyphs" textLength="48" x="226" y="197.7344">フォルダ</text><path d="M198,209.1992 L198,209.187 L207.75,210.1973 L217.5,209.7899 L227.25,209.1875 L237,209.2086 L246.75,208.9868 L256.5,210.1386 L266.25,208.3662 L276,209.1992 " fill="#FEFECE" style="stroke: #A80036; stroke-width: 1.5;"/><!--class サイト--><polygon fill="#FEFECE" filter="url(#fxz5t7n)" points="312.5,80.1992,312.5,80.2689,322.3148,80.0243,332.1296,80.5246,341.9444,80.9143,351.7593,80.1483,361.5741,79.6781,371.3889,80.7317,381.2037,79.5684,391.0185,79.7752,400.8333,79.6063,410.6481,80.7913,420.463,79.665,430.2778,80.4673,440.0926,80.4247,449.9074,79.7147,459.7222,80.4434,469.537,79.8681,479.3519,80.4535,489.1667,80.4266,498.9815,80.6892,508.7963,79.7099,518.6111,79.7058,528.4259,79.7501,538.2407,80.628,548.0556,79.816,557.8704,79.8383,567.6852,80.5613,577.5,80.1992,577.8343,80.1992,576.8738,90.3873,577.0569,100.5754,577.5291,110.7635,576.889,120.9516,577.2385,131.1397,577.0298,141.3278,576.7762,151.5159,578.0075,161.704,577.1894,171.8921,576.9796,182.0802,577.9097,192.2683,577.3951,202.4564,577.901,212.6444,577.0482,222.8325,576.8999,233.0206,577.0685,243.2087,576.7938,253.3968,578.1378,263.5849,577.1388,273.773,577.91,283.9611,578.0113,294.1492,577.3457,304.3373,577.5,314.5254,577.5,313.8075,567.6852,315.0862,557.8704,313.8092,548.0556,314.6072,538.2407,314.9682,528.4259,315.1094,518.6111,314.5929,508.7963,314.1902,498.9815,314.6479,489.1667,314.8712,479.3519,314.8111,469.537,314.8689,459.7222,315.1803,449.9074,314.9936,440.0926,314.9853,430.2778,314.0042,420.463,315.1145,410.6481,315.0306,400.8333,314.5158,391.0185,315.0761,381.2037,314.384,371.3889,315.2074,361.5741,314.859,351.7593,315.2529,341.9444,314.2901,332.1296,314.1398,322.3148,314.3555,312.5,314.5254,311.9441,314.5254,312.2558,304.3373,312.3974,294.1492,311.9552,283.9611,312.2903,273.773,313.1949,263.5849,312.3085,253.3968,311.8003,243.2087,312.4998,233.0206,312.7935,222.8325,313.1248,212.6444,312.646,202.4564,311.9667,192.2683,313.1325,182.0802,312.6913,171.8921,312.0518,161.704,312.9891,151.5159,313.2061,141.3278,311.9128,131.1397,312.4723,120.9516,311.8537,110.7635,312.6994,100.5754,312.7599,90.3873,312.5,80.1992" style="stroke: #A80036; stroke-width: 1.5;"/><polygon fill="#ADD1B2" points="433.4398,99.0539,431.623,102.3892,430.5451,104.4212,428.2732,105.5588,425.4275,106.3873,422.8115,106.5899,419.4592,106.7336,417.4997,105.2489,414.3655,103.7647,413.4918,101.9583,412.3705,99.6399,412.4206,96.8942,412.2912,93.7265,413.8017,90.4336,415.6233,87.5232,417.9272,86.5465,419.9077,86.1141,421.8149,85.022,425.0384,84.9119,428.2475,87.1751,430.9735,88.075,432.2844,90.5245,433.5071,92.9075,434.1865,96.0409,433.3614,99.1829" style="stroke: #A80036; stroke-width: 1.0;"/><path d="M425.2231,102.3423 Q424.6421,102.6411 424.0029,102.7905 Q423.3638,102.9399 422.6582,102.9399 Q420.1514,102.9399 418.8315,101.2881 Q417.5117,99.6362 417.5117,96.5151 Q417.5117,93.3857 418.8315,91.7339 Q420.1514,90.082 422.6582,90.082 Q423.3638,90.082 424.0112,90.2314 Q424.6587,90.3809 425.2231,90.6797 L425.2231,93.4023 Q424.5923,92.8213 423.9988,92.5515 Q423.4053,92.2817 422.7744,92.2817 Q421.4297,92.2817 420.7449,93.3484 Q420.0601,94.415 420.0601,96.5151 Q420.0601,98.6069 420.7449,99.6736 Q421.4297,100.7402 422.7744,100.7402 Q423.4053,100.7402 423.9988,100.4705 Q424.5923,100.2007 425.2231,99.6196 Z "/><text fill="#000000" font-family="sans-serif" font-size="12" lengthAdjust="spacingAndGlyphs" textLength="36" x="443.25" y="100.7344">サイト</text><path d="M313.5,112.1992 L313.5,112.7174 L323.6154,111.6151 L333.7308,111.3917 L343.8462,112.9435 L353.9615,112.6691 L364.0769,113.0442 L374.1923,112.4457 L384.3077,112.7501 L394.4231,111.541 L404.5385,113.1 L414.6538,112.3481 L424.7692,112.7129 L434.8846,111.7618 L445,112.2568 L455.1154,112.9711 L465.2308,112.3367 L475.3462,112.3794 L485.4615,111.3228 L495.5769,112.408 L505.6923,112.1317 L515.8077,112.1541 L525.9231,111.5167 L536.0385,112.8195 L546.1538,112.6486 L556.2692,113.107 L566.3846,112.6248 L576.5,112.1992 " fill="#FEFECE" style="stroke: #A80036; stroke-width: 1.5;"/><text fill="#000000" font-family="sans-serif" font-size="11" lengthAdjust="spacingAndGlyphs" textLength="44" x="318.5" y="126.834">識別名称</text><text fill="#000000" font-family="sans-serif" font-size="11" lengthAdjust="spacingAndGlyphs" textLength="88" x="318.5" y="139.7891">サイトエイリアス</text><text fill="#000000" font-family="sans-serif" font-size="11" lengthAdjust="spacingAndGlyphs" textLength="44" x="318.5" y="152.7441">サイト名</text><text fill="#000000" font-family="sans-serif" font-size="11" lengthAdjust="spacingAndGlyphs" textLength="77" x="318.5" y="165.6992">サイトタイトル</text><text fill="#000000" font-family="sans-serif" font-size="11" lengthAdjust="spacingAndGlyphs" textLength="110" x="318.5" y="178.6543">サイト基本キーワード</text><text fill="#000000" font-family="sans-serif" font-size="11" lengthAdjust="spacingAndGlyphs" textLength="88" x="318.5" y="191.6094">サイト基本説明文</text><text fill="#000000" font-family="sans-serif" font-size="11" lengthAdjust="spacingAndGlyphs" textLength="77" x="318.5" y="204.5645">メインサイトID</text><text fill="#000000" font-family="sans-serif" font-size="11" lengthAdjust="spacingAndGlyphs" textLength="253" x="318.5" y="217.5195">エイリアスを利用してメインサイトと自動連携する</text><text fill="#000000" font-family="sans-serif" font-size="11" lengthAdjust="spacingAndGlyphs" textLength="66" x="318.5" y="230.4746">デバイス設定</text><text fill="#000000" font-family="sans-serif" font-size="11" lengthAdjust="spacingAndGlyphs" textLength="44" x="318.5" y="243.4297">言語設定</text><text fill="#000000" font-family="sans-serif" font-size="11" lengthAdjust="spacingAndGlyphs" textLength="175" x="318.5" y="256.3848">メインサイトと同一URLでアクセス</text><text fill="#000000" font-family="sans-serif" font-size="11" lengthAdjust="spacingAndGlyphs" textLength="198" x="318.5" y="269.3398">メインサイトから自動的にリダイレクト</text><text fill="#000000" font-family="sans-serif" font-size="11" lengthAdjust="spacingAndGlyphs" textLength="198" x="318.5" y="282.2949">全てのリンクをサブサイト用に変換する</text><text fill="#000000" font-family="sans-serif" font-size="11" lengthAdjust="spacingAndGlyphs" textLength="33" x="318.5" y="295.25">テーマ</text><text fill="#000000" font-family="sans-serif" font-size="11" lengthAdjust="spacingAndGlyphs" textLength="44" x="318.5" y="308.2051">公開状態</text><polygon fill="#FBFB77" filter="url(#fxz5t7n)" points="38,374.1992,38.6599,374.1992,37.7278,383.5212,38.291,392.8431,37.852,402.165,38.3642,411.487,38.6967,420.8089,38,430.1309,38,430.2832,48.0317,429.9896,58.0635,429.9634,68.0952,429.4867,78.127,429.7667,88.1587,429.621,98.1905,430.6903,108.2222,430.2283,118.254,430.1705,128.2857,430.1902,138.3175,430.6441,148.3492,429.5389,158.381,429.9379,168.4127,429.537,178.4444,429.7757,188.4762,430.5658,198.5079,430.1705,208.5397,430.5759,218.5714,429.4401,228.6032,429.6865,238.6349,429.6041,248.6667,430.7117,258.6984,430.3757,268.7302,430.0458,278.7619,430.6695,288.7937,430.7774,298.8254,429.9028,308.8571,430.3749,318.8889,430.4732,328.9206,429.505,338.9524,430.5418,348.9841,430.401,359.0159,430.5139,369.0476,429.7944,379.0794,430.3011,389.1111,429.7883,399.1429,429.698,409.1746,430.1829,419.2063,429.9509,429.2381,430.8263,439.2698,430.7299,449.3016,429.454,459.3333,430.6837,469.3651,429.9939,479.3968,430.7292,489.4286,430.2409,499.4603,430.1586,509.4921,430.5863,519.5238,430.4724,529.5556,429.7997,539.5873,430.042,549.619,429.7831,559.6508,429.4635,569.6825,429.824,579.7143,430.2838,589.746,430.3766,599.7778,429.6145,609.8095,430.7732,619.8413,430.5169,629.873,430.8534,639.9048,429.6564,649.9365,430.6667,659.9683,429.6264,670,430.1309,669.5113,430.1309,669.3765,420.9445,670.0441,411.7582,670.579,402.5719,669.4659,393.3855,670,384.1992,670.0152,384.2144,667.9932,382.1925,666.0507,380.2499,664.0127,378.2119,662.104,376.3032,660,374.1992,660,374.083,649.9677,374.3593,639.9355,373.4572,629.9032,374.0229,619.871,374.3817,609.8387,374.0201,599.8065,374.5809,589.7742,373.572,579.7419,374.0572,569.7097,374.2848,559.6774,373.9638,549.6452,373.6451,539.6129,374.1948,529.5806,374.5517,519.5484,373.5826,509.5161,374.5666,499.4839,374.0137,489.4516,374.5646,479.4194,374.6072,469.3871,374.2208,459.3548,374.8375,449.3226,374.949,439.2903,374.7289,429.2581,374.6025,419.2258,373.8912,409.1935,374.1437,399.1613,373.4609,389.129,373.9615,379.0968,373.7121,369.0645,374.2421,359.0323,374.1323,349,373.9343,338.9677,374.244,328.9355,374.0867,318.9032,373.9645,308.871,374.0866,298.8387,373.8557,288.8065,373.8103,278.7742,373.9217,268.7419,374.0847,258.7097,374.088,248.6774,374.3812,238.6452,373.976,228.6129,374.7701,218.5806,374.8879,208.5484,374.0883,198.5161,373.509,188.4839,374.7392,178.4516,374.4307,168.4194,373.7975,158.3871,374.3054,148.3548,374.6182,138.3226,373.8692,128.2903,374.2215,118.2581,373.4554,108.2258,374.5801,98.1935,374.4701,88.1613,374.371,78.129,374.4958,68.0968,374.7731,58.0645,374.1186,48.0323,373.7976,38,374.1992" style="stroke: #A80036; stroke-width: 1.0;"/><polygon fill="#FBFB77" points="38,374.1992,37.5668,374.1992,38.5158,383.5212,37.8753,392.8431,37.4965,402.165,38.046,411.487,38.6641,420.8089,38,430.1309,38,430.0962,48.0317,429.8368,58.0635,429.5001,68.0952,429.9178,78.127,430.7113,88.1587,430.2746,98.1905,430.4187,108.2222,430.579,118.254,430.56,128.2857,430.33,138.3175,430.1869,148.3492,429.4968,158.381,430.0954,168.4127,430.7779,178.4444,430.7024,188.4762,429.7518,198.5079,430.3948,208.5397,430.2987,218.5714,430.227,228.6032,430.8022,238.6349,429.5201,248.6667,429.7466,258.6984,429.643,268.7302,430.0103,278.7619,430.03,288.7937,430.8737,298.8254,429.4761,308.8571,429.8938,318.8889,429.8458,328.9206,430.7997,338.9524,430.3314,348.9841,429.5992,359.0159,430.0934,369.0476,430.1169,379.0794,430.4413,389.1111,430.6304,399.1429,429.8611,409.1746,429.6316,419.2063,429.7234,429.2381,430.182,439.2698,430.5116,449.3016,430.874,459.3333,429.58,469.3651,429.4966,479.3968,429.785,489.4286,430.1528,499.4603,430.6495,509.4921,430.5076,519.5238,429.9114,529.5556,429.5926,539.5873,430.3377,549.619,429.6345,559.6508,429.8295,569.6825,429.7667,579.7143,430.7137,589.746,430.47,599.7778,430.8715,609.8095,430.2314,619.8413,429.756,629.873,430.2351,639.9048,429.9338,649.9365,430.474,659.9683,430.4733,670,430.1309,669.6485,430.1309,670.567,420.9445,669.3815,411.7582,670.473,402.5719,669.9454,393.3855,670,384.1992,670.0648,384.264,667.997,382.1962,665.832,380.0313,664.1087,378.3079,661.8565,376.0557,660,374.1992,660,374.4632,650.0066,374.1829,640.0131,373.6808,630.0197,373.9011,620.0262,374.2797,610.0328,374.4593,600.0393,374.6381,590.0459,374.2139,580.0524,374.8391,570.059,374.5998,560.0655,374.7198,550.0721,373.8164,540.0786,374.4758,530.0852,374.784,520.0917,374.0306,510.0983,374.7501,500.1048,374.0781,490.1114,374.8623,480.1179,374.8434,470.1245,373.7321,460.131,374.3757,450.1376,374.4979,440.1441,373.5056,430.1507,374.2321,420.1572,373.674,410.1638,374.3858,400.1703,374.3557,390.1769,374.2749,380.1834,374.4833,370.19,374.1992,370.6589,374.3775,373.4003,363.98,377.1285,353.9577,382.2167,344.4525,385.6875,334.3323,389.1608,324.2131,392.99,314.2292,393.068,314.2693,388.1903,322.5911,384.6066,331.5775,379.6515,339.8595,375.4153,348.5108,371.0459,357.0936,367.1882,365.9393,362.19,374.1992,362.19,374.1511,352.0591,374.3763,341.9281,374.2718,331.7972,374.4886,321.6663,374.7142,311.5353,374.3182,301.4044,374.5141,291.2734,374.8743,281.1425,373.6169,271.0116,373.5307,260.8806,374.8297,250.7497,374.6332,240.6188,374.8402,230.4878,373.5439,220.3569,374.4263,210.2259,373.9738,200.095,373.7086,189.9641,373.5287,179.8331,373.5864,169.7022,373.9521,159.5713,374.8987,149.4403,373.5273,139.3094,374.2445,129.1784,374.0966,119.0475,373.6107,108.9166,374.011,98.7856,374.3799,88.6547,374.7622,78.5238,374.5207,68.3928,374.8081,58.2619,374.7047,48.1309,374.0522,38,374.1992" style="stroke: #A80036; stroke-width: 1.0;"/><path d="M660,374.1992 L660.1826,374.1992 L659.7771,376.1992 L659.9905,378.1992 L660.2583,380.1992 L659.7859,382.1992 L660,384.1992 " fill="#FBFB77" style="stroke: #A80036; stroke-width: 1.0;"/><path d="M670,384.1992 L670,383.935 L668,384.5305 L666,383.9861 L664,384.1853 L662,384.4942 L660,384.1992 " fill="#FBFB77" style="stroke: #A80036; stroke-width: 1.0;"/><text fill="#000000" font-family="sans-serif" font-size="13" lengthAdjust="spacingAndGlyphs" textLength="377" x="44" y="391.7676">・サイトを作成するとそのサイトのルートフォルダを作成する。</text><text fill="#000000" font-family="sans-serif" font-size="13" lengthAdjust="spacingAndGlyphs" textLength="377" x="44" y="407.0781">・サイトを非公開にするとフォルダの公開状態も非公開となる。</text><text fill="#000000" font-family="sans-serif" font-size="13" lengthAdjust="spacingAndGlyphs" textLength="611" x="44" y="422.3887">・サイトを削除するとそのサイトのルートフォルダ以外を論理削除し、ルートフォルダは物理削除する。</text><!--class メインサイト--><polygon fill="#FEFECE" filter="url(#fxz5t7n)" points="705,382.1992,705,382.8821,715.4,382.8001,725.8,381.6174,736.2,381.9367,746.6,382.03,757,381.9688,767.4,381.7842,777.8,382.3032,788.2,381.7987,798.6,381.628,809,382.1992,808.9539,382.1992,809.2348,390.1992,809.0928,398.1992,809.0658,406.1992,809.1214,414.1992,809,422.1992,809,422.6603,798.6,421.7114,788.2,421.9222,777.8,422.0215,767.4,421.5493,757,421.7711,746.6,421.5856,736.2,422.5166,725.8,422.5864,715.4,421.6244,705,422.1992,705.0006,422.1992,705.0836,414.1992,704.8854,406.1992,705.101,398.1992,705.1704,390.1992,705,382.1992" style="stroke: #A80036; stroke-width: 1.5;"/><polygon fill="#ADD1B2" points="730.7581,401.6891,729.1741,403.905,727.1968,406.7097,725.2065,408.66,721.8225,409.5129,719.0601,409.2581,716.4947,408.3685,712.921,407.0935,711.1792,404.135,709.9654,401.3567,709.3526,398.8793,709.8221,396.4441,709.9753,392.7592,712.1095,389.7875,715.7998,388.67,718.6354,387.1411,722.213,387.3114,724.8678,387.7764,726.7155,389.4316,728.8482,391.3911,729.8918,394.3743,730.796,397.7574,730.5,400.4008" style="stroke: #A80036; stroke-width: 1.0;"/><path d="M722.4731,404.3423 Q721.8921,404.6411 721.2529,404.7905 Q720.6138,404.9399 719.9082,404.9399 Q717.4014,404.9399 716.0815,403.2881 Q714.7617,401.6362 714.7617,398.5151 Q714.7617,395.3857 716.0815,393.7339 Q717.4014,392.082 719.9082,392.082 Q720.6138,392.082 721.2612,392.2314 Q721.9087,392.3809 722.4731,392.6797 L722.4731,395.4023 Q721.8423,394.8213 721.2488,394.5515 Q720.6553,394.2817 720.0244,394.2817 Q718.6797,394.2817 717.9949,395.3484 Q717.3101,396.415 717.3101,398.5151 Q717.3101,400.6069 717.9949,401.6736 Q718.6797,402.7402 720.0244,402.7402 Q720.6553,402.7402 721.2488,402.4705 Q721.8423,402.2007 722.4731,401.6196 Z "/><text fill="#000000" font-family="sans-serif" font-size="12" lengthAdjust="spacingAndGlyphs" textLength="72" x="734" y="402.7344">メインサイト</text><path d="M706,414.1992 L706,413.6538 L716.2,414.0432 L726.4,414.9874 L736.6,414.9918 L746.8,414.1102 L757,414.4664 L767.2,413.3759 L777.4,413.6629 L787.6,414.1965 L797.8,413.3954 L808,414.1992 " fill="#FEFECE" style="stroke: #A80036; stroke-width: 1.5;"/><path d="M277.22,197.1992 L277.22,197.0178 L281.602,197.4132 L285.984,197.0859 L290.366,197.3399 L294.748,197.291 L299.13,197.1992 " fill="none" style="stroke: #A80036; stroke-width: 1.0;"/><polygon fill="#A80036" points="312.28,197.1992,312.3747,197.3413,311.0541,196.3604,309.8183,195.5067,308.6825,194.8029,307.6042,194.1855,306.28,193.1992,306.3522,193.3075,305.0937,194.0198,303.8649,194.7765,302.6663,195.5786,301.3934,196.2693,300.28,197.1992,300.3122,197.2475,301.5875,198.1605,302.5956,198.6727,303.857,199.5647,305.0841,200.4054,306.28,201.1992,306.3665,201.329,307.4703,200.3846,308.5759,199.4431,309.9451,198.8969,311.0514,197.9563,312.28,197.1992" style="stroke: #A80036; stroke-width: 1.0;"/><path d="M577.77,284.5792 L577.4352,284.0646 L585.5878,289.2088 L594.0978,294.9023 L602.7696,300.8443 L610.9757,306.0708 L619.9421,312.4656 L627.4682,316.6469 L636.3849,322.9655 L644.7032,328.3642 L653.2135,334.0581 L660.9053,338.4941 L669.9706,345.0409 L677.6365,349.4372 L685.8316,354.6466 L694.2616,360.2171 L702.4484,365.4138 L711.2569,371.566 L719.3275,376.5842 L727.78,382.1892 " fill="none" style="stroke: #A80036; stroke-width: 1.0;"/><text fill="#000000" font-family="sans-serif" font-size="13" lengthAdjust="spacingAndGlyphs" textLength="22" x="585.6324" y="286.5156">0..*</text><text fill="#000000" font-family="sans-serif" font-size="13" lengthAdjust="spacingAndGlyphs" textLength="8" x="709.6064" y="371.3802">1</text></g></svg>