<?xml version="1.0" encoding="UTF-8" standalone="no"?><svg xmlns="http://www.w3.org/2000/svg" xmlns:xlink="http://www.w3.org/1999/xlink" contentScriptType="application/ecmascript" contentStyleType="text/css" height="436px" preserveAspectRatio="none" style="width:780px;height:436px;" version="1.1" viewBox="0 0 780 436" width="780px" zoomAndPan="magnify"><defs><filter height="300%" id="fcikhmr" width="300%" x="-1" y="-1"><feGaussianBlur result="blurOut" stdDeviation="2.0"/><feColorMatrix in="blurOut" result="blurOut2" type="matrix" values="0 0 0 0 0 0 0 0 0 0 0 0 0 0 0 0 0 0 .4 0"/><feOffset dx="4.0" dy="4.0" in="blurOut2" result="blurOut3"/><feBlend in="SourceGraphic" in2="blurOut3" mode="normal"/></filter></defs><g><text fill="#000000" font-family="sans-serif" font-size="18" lengthAdjust="spacingAndGlyphs" textLength="306" x="241.5" y="17.4023">ドメインモデル図：ユーザーグループ</text><!--cluster ユーザーグループ--><polygon fill="#FFFFFF" filter="url(#fcikhmr)" points="22,94.1992,22,94.4439,31.8333,94.1039,41.6667,93.9477,51.5,93.6747,61.3333,93.5417,71.1667,94.1249,81,94.1187,90.8333,93.7193,100.6667,93.5267,110.5,93.6282,120.3333,94.01,130.1667,94.0511,140,94.1992,140.1904,94.2585,141.2829,98.6604,142.7173,103.1688,144.1977,107.6915,145.4983,112.1582,147,116.6875,147,116.3785,156.9057,116.973,166.8113,116.6219,176.717,115.9986,186.6226,116.8501,196.5283,116.6613,206.434,117.0203,216.3396,117.2255,226.2453,117.2541,236.1509,117.4082,246.0566,117.0021,255.9623,116.5513,265.8679,117.2452,275.7736,116.1803,285.6792,117.3999,295.5849,116.8434,305.4906,117.0968,315.3962,116.9634,325.3019,117.3989,335.2075,116.3741,345.1132,116.9716,355.0189,116.9198,364.9245,116.581,374.8302,115.9505,384.7358,116.3021,394.6415,116.6346,404.5472,116.6738,414.4528,117.1442,424.3585,116.0363,434.2642,116.5593,444.1698,116.4719,454.0755,116.6326,463.9811,117.0044,473.8868,117.1805,483.7925,116.8762,493.6981,117.1186,503.6038,117.2535,513.5094,117.0595,523.4151,116.812,533.3208,117.2065,543.2264,117.3538,553.1321,116.213,563.0377,116.9219,572.9434,116.4699,582.8491,116.9246,592.7547,116.3286,602.6604,116.9009,612.566,116.7663,622.4717,116.4455,632.3774,116.5401,642.283,117.1328,652.1887,116.1189,662.0943,116.3158,672,116.6875,672.7315,116.6875,672.2255,126.7685,672.5194,136.8495,672.4112,146.9306,672.2854,157.0116,671.8053,167.0926,672.4953,177.1736,672.2561,187.2547,672.5931,197.3357,672.2753,207.4167,671.4705,217.4977,671.6192,227.5788,671.7491,237.6598,672.4087,247.7408,672.5962,257.8218,671.6149,267.9028,671.5316,277.9839,671.5264,288.0649,672.1964,298.1459,671.6191,308.2269,672.1591,318.308,672.207,328.389,671.3983,338.47,672.6062,348.551,672.1495,358.6321,672.2575,368.7131,671.645,378.7941,672.1529,388.8751,672.6509,398.9561,671.7812,409.0372,671.8691,419.1182,672,429.1992,672,428.7548,662,429.3679,652,429.6279,642,428.6495,632,428.8159,622,428.5758,612,429.6919,602,429.5814,592,429.0246,582,428.859,572,429.1122,562,429.5212,552,428.6204,542,429.9052,532,428.692,522,428.6065,512,429.3583,502,428.5298,492,429.3833,482,429.0771,472,428.709,462,428.9937,452,429.393,442,428.8551,432,428.7164,422,429.8457,412,428.576,402,429.3004,392,428.8069,382,429.3062,372,428.6276,362,428.8757,352,428.9873,342,429.384,332,428.4604,322,429.4282,312,428.5974,302,429.8087,292,429.8539,282,428.7182,272,428.5846,262,429.4474,252,428.9946,242,429.2025,232,428.6484,222,429.1656,212,429.3801,202,429.4113,192,429.5647,182,429.587,172,429.2495,162,429.5413,152,429.0355,142,429.4067,132,428.7162,122,429.6228,112,429.5243,102,429.309,92,429.1185,82,429.3113,72,429.7355,62,428.6501,52,429.7787,42,428.4951,32,429.1627,22,429.1992,22.6686,429.1992,21.6563,419.3463,21.3079,409.4933,21.7863,399.6404,22.3966,389.7875,22.104,379.9345,22.5786,370.0816,21.8203,360.2286,21.4696,350.3757,21.9078,340.5227,22.5722,330.6698,21.733,320.8169,21.4263,310.9639,22.7437,301.111,21.2992,291.258,21.8223,281.4051,22.2329,271.5522,22.0284,261.6992,22.6113,251.8463,21.8169,241.9933,22.2753,232.1404,22.4567,222.2875,21.3441,212.4345,21.8988,202.5816,22.1939,192.7286,21.5977,182.8757,22.1887,173.0227,21.966,163.1698,21.8614,153.3169,21.4123,143.4639,22.4416,133.611,21.5524,123.758,22.7399,113.9051,22.179,104.0522,22,94.1992" style="stroke: #000000; stroke-width: 2.0;"/><path d="M22,116.6875 L22,116.0247 L31.6154,115.7474 L41.2308,116.6682 L50.8462,117.0453 L60.4615,117.5775 L70.0769,116.5442 L79.6923,117.3663 L89.3077,115.9999 L98.9231,115.8628 L108.5385,116.1971 L118.1538,117.6769 L127.7692,116.4184 L137.3846,116.9761 L147,116.6875 " fill="#FFFFFF" style="stroke: #000000; stroke-width: 2.0;"/><text fill="#000000" font-family="sans-serif" font-size="14" font-weight="bold" lengthAdjust="spacingAndGlyphs" textLength="112" x="26" y="109.7344">ユーザーグループ</text><!--class ユーザーグループ--><polygon fill="#FEFECE" filter="url(#fcikhmr)" points="294,129.1992,294,128.4668,303.8571,129.3013,313.7143,128.939,323.5714,129.047,333.4286,129.5215,343.2857,129.2993,353.1429,128.6708,363,128.5089,372.8571,129.4551,382.7143,129.8801,392.5714,129.8639,402.4286,129.9412,412.2857,129.5754,422.1429,128.9445,432,129.917,441.8571,129.9305,451.7143,129.5986,461.5714,128.5557,471.4286,128.8051,481.2857,128.9025,491.1429,128.8651,501,129.5942,510.8571,128.9231,520.7143,129.3128,530.5714,129.3892,540.4286,129.5894,550.2857,129.1944,560.1429,129.6437,570,129.1992,569.4865,129.1992,569.4225,139.4015,570.7472,149.6037,570.7153,159.806,569.9439,170.0082,569.3585,180.2105,570.4178,190.4128,570.3758,200.615,569.4327,210.8173,570,221.0195,570,221.2765,560.1429,221.5647,550.2857,221.5816,540.4286,221.3428,530.5714,221.5771,520.7143,221.7305,510.8571,220.7798,501,221.6807,491.1429,221.6625,481.2857,220.6717,471.4286,220.9617,461.5714,220.9091,451.7143,221.0675,441.8571,220.6508,432,221.725,422.1429,220.7578,412.2857,220.9949,402.4286,220.8739,392.5714,221.3981,382.7143,221.719,372.8571,220.8832,363,221.2779,353.1429,220.9453,343.2857,221.4118,333.4286,220.5661,323.5714,220.3642,313.7143,221.3388,303.8571,220.5965,294,221.0195,294.0375,221.0195,293.9251,210.8173,293.8293,200.615,293.62,190.4128,294.6685,180.2105,293.6573,170.0082,293.9174,159.806,293.3219,149.6037,294.2173,139.4015,294,129.1992" style="stroke: #A80036; stroke-width: 1.5;"/><polygon fill="#ADD1B2" points="389.692,148.3777,389.7342,151.2619,387.9754,152.6502,385.8277,154.0658,382.9936,155.5438,379.5129,155.6508,376.2449,155.5331,372.8041,154.4025,371.0446,152.282,369.7322,150.5596,368.9034,146.9273,369.2833,144.0835,369.3099,140.3078,372.1176,138.0643,373.5862,136.2178,376.4358,134.9857,379.216,134.1939,382.4703,134.6444,385.6979,135.3503,388.2467,138.074,388.8804,140.3494,390.3756,142.1905,390.9619,144.3362,391.0949,147.1779" style="stroke: #A80036; stroke-width: 1.0;"/><path d="M382.2231,151.3423 Q381.6421,151.6411 381.0029,151.7905 Q380.3638,151.9399 379.6582,151.9399 Q377.1514,151.9399 375.8315,150.2881 Q374.5117,148.6362 374.5117,145.5151 Q374.5117,142.3857 375.8315,140.7339 Q377.1514,139.082 379.6582,139.082 Q380.3638,139.082 381.0112,139.2314 Q381.6587,139.3809 382.2231,139.6797 L382.2231,142.4023 Q381.5923,141.8213 380.9988,141.5515 Q380.4053,141.2817 379.7744,141.2817 Q378.4297,141.2817 377.7449,142.3484 Q377.0601,143.415 377.0601,145.5151 Q377.0601,147.6069 377.7449,148.6736 Q378.4297,149.7402 379.7744,149.7402 Q380.4053,149.7402 380.9988,149.4705 Q381.5923,149.2007 382.2231,148.6196 Z "/><text fill="#000000" font-family="sans-serif" font-size="12" lengthAdjust="spacingAndGlyphs" textLength="96" x="400.25" y="149.7344">ユーザーグループ</text><path d="M295,161.1992 L295,160.6626 L305.1481,161.0361 L315.2963,161.9384 L325.4444,161.8249 L335.5926,160.5588 L345.7407,161.3143 L355.8889,160.2399 L366.037,160.2839 L376.1852,161.8788 L386.3333,160.9981 L396.4815,161.9184 L406.6296,160.9255 L416.7778,161.9967 L426.9259,160.2668 L437.0741,160.7398 L447.2222,161.2985 L457.3704,161.2018 L467.5185,160.4016 L477.6667,160.7597 L487.8148,160.289 L497.963,161.295 L508.1111,160.7377 L518.2593,160.7659 L528.4074,161.6382 L538.5556,160.2882 L548.7037,160.7014 L558.8519,161.5753 L569,161.1992 " fill="#FEFECE" style="stroke: #A80036; stroke-width: 1.5;"/><text fill="#000000" font-family="sans-serif" font-size="11" lengthAdjust="spacingAndGlyphs" textLength="99" x="300" y="175.834">ユーザーグループ名</text><text fill="#000000" font-family="sans-serif" font-size="11" lengthAdjust="spacingAndGlyphs" textLength="33" x="300" y="188.7891">表示名</text><text fill="#000000" font-family="sans-serif" font-size="11" lengthAdjust="spacingAndGlyphs" textLength="99" x="300" y="201.7441">認証プレフィックス</text><text fill="#000000" font-family="sans-serif" font-size="11" lengthAdjust="spacingAndGlyphs" textLength="264" x="300" y="214.6992">コンテンツのドラッグ＆ドロップ移動機能を利用する</text><polygon fill="#FBFB77" filter="url(#fcikhmr)" points="38.5,281.1992,38.5102,281.1992,39.0751,291.3903,38.3783,301.5814,38.8735,311.7725,38.4274,321.9636,38.3042,332.1547,39.1006,342.3459,38.5177,352.537,37.9807,362.7281,39.1942,372.9192,39.0273,383.1103,38.7792,393.3014,38.5014,403.4925,38.5,413.6836,38.5,413.0565,48.4516,413.485,58.4032,414.2466,68.3548,414.384,78.3065,413.5409,88.2581,413.2937,98.2097,414.3051,108.1613,413.8383,118.1129,414.309,128.0645,413.6443,138.0161,413.1067,147.9677,413.1856,157.9194,414.4097,167.871,413.1721,177.8226,414.4112,187.7742,413.8795,197.7258,414.4034,207.6774,414.3436,217.629,413.6237,227.5806,413.7403,237.5323,413.6271,247.4839,414.3397,257.4355,414.2996,267.3871,413.6283,277.3387,413.8067,287.2903,413.7866,297.2419,413.0564,307.1935,414.3547,317.1452,413.3995,327.0968,413.3256,337.0484,414.1075,347,412.943,356.9516,413.2319,366.9032,413.8031,376.8548,413.6692,386.8065,413.5481,396.7581,414.017,406.7097,414.0941,416.6613,413.1101,426.6129,413.7451,436.5645,414.1731,446.5161,413.2663,456.4677,414.4037,466.4194,413.9996,476.371,413.0396,486.3226,413.9319,496.2742,413.7183,506.2258,413.442,516.1774,414.0814,526.129,413.7315,536.0806,413.8291,546.0323,413.5771,555.9839,414.0034,565.9355,412.945,575.8871,412.9627,585.8387,413.2722,595.7903,413.8467,605.7419,414.2255,615.6935,414.1943,625.6452,414.2868,635.5968,414.1261,645.5484,413.4065,655.5,413.6836,654.9162,413.6836,655.5403,403.4766,656.1926,393.2695,655.5623,383.0625,654.8446,372.8555,655.4217,362.6484,655.4293,352.4414,655.6425,342.2344,655.4171,332.0273,655.6195,321.8203,655.003,311.6133,655.9662,301.4063,655.5,291.1992,655.4242,291.1234,653.6412,289.3404,651.5262,287.2254,649.6301,285.3293,647.5522,283.2514,645.5,281.1992,645.5,281.5654,635.5492,280.5656,625.5984,281.7554,615.6475,281.7839,605.6967,280.8441,595.7459,280.4638,585.7951,281.8234,575.8443,281.468,565.8934,281.3454,555.9426,281.3755,545.9918,281.4942,536.041,281.0581,526.0902,280.5377,516.1393,281.7965,506.1885,281.5719,496.2377,281.6392,486.2869,281.5661,476.3361,281.5243,466.3852,281.9041,456.4344,280.9861,446.4836,281.4193,436.5328,281.1955,426.582,280.4964,416.6311,281.8699,406.6803,281.0935,396.7295,281.7075,386.7787,280.8339,376.8279,281.7729,366.877,281.3563,356.9262,281.4725,346.9754,281.1712,337.0246,280.8181,327.0738,281.7696,317.123,280.6964,307.1721,280.8988,297.2213,281.3281,287.2705,281.8938,277.3197,280.4555,267.3689,281.8955,257.418,281.5981,247.4672,280.5553,237.5164,280.7447,227.5656,280.5255,217.6148,281.7315,207.6639,281.7284,197.7131,281.9083,187.7623,281.6476,177.8115,281.7144,167.8607,280.9512,157.9098,280.9208,147.959,281.6594,138.0082,281.3248,128.0574,281.7683,118.1066,281.8792,108.1557,281.2147,98.2049,281.455,88.2541,280.469,78.3033,281.2806,68.3525,281.3147,58.4016,280.5033,48.4508,280.8673,38.5,281.1992" style="stroke: #A80036; stroke-width: 1.0;"/><polygon fill="#FBFB77" points="38.5,281.1992,39.0096,281.1992,37.7919,291.3903,38.9306,301.5814,37.8567,311.7725,38.7242,321.9636,38.576,332.1547,38.2041,342.3459,38.7463,352.537,38.3504,362.7281,37.8643,372.9192,38.9641,383.1103,38.2974,393.3014,37.8957,403.4925,38.5,413.6836,38.5,413.3606,48.4516,413.7928,58.4032,414.3193,68.3548,414.3608,78.3065,413.3133,88.2581,413.6606,98.2097,414.4274,108.1613,414.1152,118.1129,414.4095,128.0645,413.2065,138.0161,413.7972,147.9677,414.0752,157.9194,412.9978,167.871,414.3009,177.8226,414.3325,187.7742,413.6392,197.7258,414.4261,207.6774,413.162,217.629,413.8946,227.5806,413.4329,237.5323,414.0703,247.4839,413.708,257.4355,414.1873,267.3871,413.0572,277.3387,413.5097,287.2903,413.9688,297.2419,414.1941,307.1935,413.6467,317.1452,413.1709,327.0968,413.1207,337.0484,414.0877,347,414.0145,356.9516,413.2648,366.9032,414.2159,376.8548,413.9529,386.8065,414.1451,396.7581,413.2972,406.7097,413.2635,416.6613,413.2806,426.6129,414.1058,436.5645,414.3406,446.5161,413.4803,456.4677,414.0156,466.4194,413.0879,476.371,413.6188,486.3226,413.2704,496.2742,413.965,506.2258,413.7547,516.1774,414.2685,526.129,413.3131,536.0806,413.1043,546.0323,413.8699,555.9839,413.4132,565.9355,413.5322,575.8871,413.7492,585.8387,413.3035,595.7903,414.4017,605.7419,414.1999,615.6935,413.1984,625.6452,413.4633,635.5968,413.2427,645.5484,413.9756,655.5,413.6836,655.1042,413.6836,655.296,403.4766,656.2063,393.2695,655.1341,383.0625,655.6586,372.8555,655.8969,362.6484,655.9324,352.4414,655.7264,342.2344,656.067,332.0273,655.8453,321.8203,656.0621,311.6133,655.3528,301.4063,655.5,291.1992,655.5377,291.2369,653.5175,289.2167,651.4578,287.157,649.3863,285.0855,647.5506,283.2498,645.5,281.1992,645.5,281.4484,635.4262,281.1994,625.3523,280.7517,615.2785,280.467,605.2046,281.106,595.1308,280.7225,585.0569,281.6729,574.9831,281.679,564.9092,280.7654,554.8354,280.5559,544.7615,281.1536,534.6877,280.7392,524.6138,280.4878,514.54,280.6952,504.4662,281.6509,494.3923,280.7828,484.3185,280.7629,474.2446,281.2184,464.1708,281.4876,454.0969,280.9417,444.0231,280.8332,433.9492,280.5975,423.8754,280.5207,413.8015,281.0308,403.7277,281.6306,393.6538,281.6248,383.58,281.1992,383.8025,281.2953,387.035,272.5402,391.5988,264.3599,395.3193,255.8155,398.8578,247.1926,402.3912,238.5674,405.7381,229.8616,409.44,221.3092,409.2764,221.2167,404.8365,229.997,399.7341,238.4028,395.0519,247.0461,390.4886,255.7566,384.6089,263.7229,380.6784,272.7912,375.58,281.1992,375.58,280.6488,365.6659,281.7169,355.7518,281.6391,345.8376,281.3809,335.9235,280.639,326.0094,281.2488,316.0953,281.0597,306.1812,280.8747,296.2671,280.5452,286.3529,280.4757,276.4388,280.8847,266.5247,281.0864,256.6106,281.4026,246.6965,281.3708,236.7824,281.4503,226.8682,281.7346,216.9541,281.2063,207.04,280.7541,197.1259,281.0428,187.2118,280.4899,177.2976,280.626,167.3835,281.0855,157.4694,280.6721,147.5553,281.9456,137.6412,280.6045,127.7271,281.3135,117.8129,281.8116,107.8988,280.6893,97.9847,281.3431,88.0706,281.2835,78.1565,280.8418,68.2424,281.2541,58.3282,281.6715,48.4141,281.3072,38.5,281.1992" style="stroke: #A80036; stroke-width: 1.0;"/><path d="M645.5,281.1992 L645.3181,281.1992 L645.5159,283.1992 L645.4683,285.1992 L645.6528,287.1992 L645.3589,289.1992 L645.5,291.1992 " fill="#FBFB77" style="stroke: #A80036; stroke-width: 1.0;"/><path d="M655.5,291.1992 L655.5,291.1435 L653.5,291.4354 L651.5,291.4841 L649.5,291.5253 L647.5,291.523 L645.5,291.1992 " fill="#FBFB77" style="stroke: #A80036; stroke-width: 1.0;"/><text fill="#000000" font-family="sans-serif" font-size="13" lengthAdjust="spacingAndGlyphs" textLength="341" x="44.5" y="298.7676">・ユーザーグループ名は、50文字以内とし入力必須とする</text><text fill="#000000" font-family="sans-serif" font-size="13" lengthAdjust="spacingAndGlyphs" textLength="299" x="44.5" y="314.0781">・ユーザーグループ名は、半角のみ利用可能とする</text><text fill="#000000" font-family="sans-serif" font-size="13" lengthAdjust="spacingAndGlyphs" textLength="273" x="44.5" y="329.3887">・ユーザーグループ名は重複して登録できない</text><text fill="#000000" font-family="sans-serif" font-size="13" lengthAdjust="spacingAndGlyphs" textLength="263" x="44.5" y="344.6992">・表示名は、50文字以内とし入力必須とする</text><text fill="#000000" font-family="sans-serif" font-size="13" lengthAdjust="spacingAndGlyphs" textLength="481" x="44.5" y="360.0098">・認証プレフィックスは、複数の認証領域を設定している場合にのみ入力欄を表示</text><text fill="#000000" font-family="sans-serif" font-size="13" lengthAdjust="spacingAndGlyphs" textLength="364" x="44.5" y="375.3203">・認証プレフィックスは表示されている場合に入力必須とする</text><text fill="#000000" font-family="sans-serif" font-size="13" lengthAdjust="spacingAndGlyphs" textLength="492" x="44.5" y="390.6309">・admins グループの認証プレフィックスにおいて「管理システム」は削除できない</text><text fill="#000000" font-family="sans-serif" font-size="13" lengthAdjust="spacingAndGlyphs" textLength="596" x="44.5" y="405.9414">・admins グループは、ユーザーグループ名の変更、削除、および、アクセス制限の設定はできない。</text><!--class ユーザー--><polygon fill="#FEFECE" filter="url(#fcikhmr)" points="691,327.1992,691,327.405,701,327.6542,711,327.6859,721,327.6599,731,326.838,741,327.5512,751,326.8682,761,327.812,771,327.1992,770.8258,327.1992,770.8265,335.1992,771.0936,343.1992,771.0814,351.1992,770.9168,359.1992,771,367.1992,771,367.3976,761,366.6464,751,367.453,741,367.8901,731,367.0359,721,367.7605,711,367.4285,701,366.4557,691,367.1992,691.2497,367.1992,691.1407,359.1992,690.8365,351.1992,690.8681,343.1992,690.846,335.1992,691,327.1992" style="stroke: #A80036; stroke-width: 1.5;"/><polygon fill="#ADD1B2" points="717.2752,345.3587,715.8271,347.2095,714.704,348.9171,713.2445,351.0923,711.2933,352.5027,708.7198,354.1309,706.1727,353.5508,703.7246,353.5012,701.0774,353.425,699.2276,352.3201,698.0438,350.3001,695.7237,347.9538,695.6196,345.6121,694.9987,342.7361,695.8945,339.4939,697.1076,336.1411,700.0232,333.7906,702.4258,333.2222,705.3358,331.596,708.5927,332.1436,710.5217,332.8616,713.3711,334.4737,714.6901,336.4847,716.5918,338.5168,717.3096,341.728,716.5683,344.9583" style="stroke: #A80036; stroke-width: 1.0;"/><path d="M708.4731,349.3423 Q707.8921,349.6411 707.2529,349.7905 Q706.6138,349.9399 705.9082,349.9399 Q703.4014,349.9399 702.0815,348.2881 Q700.7617,346.6362 700.7617,343.5151 Q700.7617,340.3857 702.0815,338.7339 Q703.4014,337.082 705.9082,337.082 Q706.6138,337.082 707.2612,337.2314 Q707.9087,337.3809 708.4731,337.6797 L708.4731,340.4023 Q707.8423,339.8213 707.2488,339.5515 Q706.6553,339.2817 706.0244,339.2817 Q704.6797,339.2817 703.9949,340.3484 Q703.3101,341.415 703.3101,343.5151 Q703.3101,345.6069 703.9949,346.6736 Q704.6797,347.7402 706.0244,347.7402 Q706.6553,347.7402 707.2488,347.4705 Q707.8423,347.2007 708.4731,346.6196 Z "/><text fill="#000000" font-family="sans-serif" font-size="12" lengthAdjust="spacingAndGlyphs" textLength="48" x="720" y="347.7344">ユーザー</text><path d="M692,359.1992 L692,359.6435 L701.75,358.5986 L711.5,358.5875 L721.25,358.8162 L731,358.6698 L740.75,358.3157 L750.5,359.6117 L760.25,360.0389 L770,359.1992 " fill="#FEFECE" style="stroke: #A80036; stroke-width: 1.5;"/><!--class アクセス制限設定--><polygon fill="#FEFECE" filter="url(#fcikhmr)" points="368,29.1992,368,28.466,377.8462,28.9441,387.6923,28.7114,397.5385,29.4911,407.3846,28.9089,417.2308,28.4797,427.0769,28.7075,436.9231,28.7162,446.7692,29.7505,456.6154,29.7222,466.4615,28.5607,476.3077,28.7962,486.1538,29.9038,496,29.1992,496.0108,29.1992,496.209,37.1992,496.1352,45.1992,495.8605,53.1992,495.9427,61.1992,496,69.1992,496,68.4814,486.1538,69.9296,476.3077,68.871,466.4615,69.08,456.6154,69.0306,446.7692,68.7183,436.9231,69.1173,427.0769,69.3634,417.2308,69.4934,407.3846,69.569,397.5385,69.2781,387.6923,68.8231,377.8462,69.4738,368,69.1992,367.8996,69.1992,368.208,61.1992,368.1427,53.1992,368.2138,45.1992,367.8533,37.1992,368,29.1992" style="stroke: #A80036; stroke-width: 1.5;"/><polygon fill="#ADD1B2" points="394.1847,47.3299,393.2388,50.1378,391.9114,52.5732,389.7632,54.3611,387.9115,55.1605,384.5214,56.7314,382.0918,55.4934,378.773,55.6208,376.0066,53.8487,374.4189,51.9447,372.9114,48.6577,372.1648,46.4137,371.5582,43.473,372.1878,41.4674,374.3442,39.2976,376.2932,36.3025,378.057,35.5008,379.9254,34.1481,382.1767,33.6702,384.5521,35.0032,386.6904,34.9805,389.4795,36.9829,392.3993,38.2617,393.2709,41.3134,394.2365,44.3089,394.2365,46.8327" style="stroke: #A80036; stroke-width: 1.0;"/><path d="M385.4731,51.3423 Q384.8921,51.6411 384.2529,51.7905 Q383.6138,51.9399 382.9082,51.9399 Q380.4014,51.9399 379.0815,50.2881 Q377.7617,48.6362 377.7617,45.5151 Q377.7617,42.3857 379.0815,40.7339 Q380.4014,39.082 382.9082,39.082 Q383.6138,39.082 384.2612,39.2314 Q384.9087,39.3809 385.4731,39.6797 L385.4731,42.4023 Q384.8423,41.8213 384.2488,41.5515 Q383.6553,41.2817 383.0244,41.2817 Q381.6797,41.2817 380.9949,42.3484 Q380.3101,43.415 380.3101,45.5151 Q380.3101,47.6069 380.9949,48.6736 Q381.6797,49.7402 383.0244,49.7402 Q383.6553,49.7402 384.2488,49.4705 Q384.8423,49.2007 385.4731,48.6196 Z "/><text fill="#000000" font-family="sans-serif" font-size="12" lengthAdjust="spacingAndGlyphs" textLength="96" x="397" y="49.7344">アクセス制限設定</text><path d="M369,61.1992 L369,60.8572 L378.6923,61.7099 L388.3846,60.6435 L398.0769,62.1164 L407.7692,61.7577 L417.4615,61.8472 L427.1538,61.8127 L436.8462,61.7851 L446.5385,60.4741 L456.2308,60.7728 L465.9231,61.2617 L475.6154,61.5976 L485.3077,62.1249 L495,61.1992 " fill="#FEFECE" style="stroke: #A80036; stroke-width: 1.5;"/><path d="M432,74.3592 L432.9051,74.3592 L431.3401,85.3012 L432.2748,96.2432 L431.0158,107.1852 L432.6556,118.1272 L432,129.0692 " fill="none" style="stroke: #A80036; stroke-width: 1.0;"/><polygon fill="#A80036" points="432,69.2992,431.8234,69.2207,431.3948,71.1858,430.5267,72.9555,429.6029,74.7005,428.7335,76.4696,428,78.2992,427.8612,78.1604,428.9441,77.6433,429.7534,76.8527,430.5324,76.0316,431.1645,75.0637,432,74.2992,432.1749,74.4742,432.817,75.1163,433.6199,75.9191,434.4123,76.7115,435.2163,77.5155,436,78.2992,435.8248,78.2213,435.3239,76.5543,434.3757,74.6884,433.5958,72.8973,432.7455,71.075,432,69.2992" style="stroke: #A80036; stroke-width: 1.0;"/><text fill="#000000" font-family="sans-serif" font-size="13" lengthAdjust="spacingAndGlyphs" textLength="22" x="406.9063" y="89.6737">0..*</text><text fill="#000000" font-family="sans-serif" font-size="13" lengthAdjust="spacingAndGlyphs" textLength="8" x="423.3875" y="118.463">1</text><path d="M561.94,221.2592 L561.8192,220.9844 L564.8684,222.7559 L567.4819,223.536 L570.4839,225.2001 L573.2521,226.3323 L576.0121,227.4458 L576.1437,227.7302 L578.9799,229.0426 L581.5471,229.7741 L584.6485,231.6596 L587.2646,232.4967 L590.1942,234.0111 L590.1985,234.0199 L593.0896,235.5158 L595.7365,236.5125 L598.8414,238.4454 L601.4972,239.4602 L604.3864,240.9523 L604.3838,240.9473 L607.3224,242.638 L609.919,243.6691 L612.9281,245.4957 L615.61,246.6915 L618.4888,248.2667 L618.392,248.0916 L621.335,249.9191 L624.0522,251.3378 L626.8017,252.8151 L629.684,254.5326 L632.4012,255.9514 L632.5317,256.1722 L635.0964,257.5121 L637.7842,259.0604 L640.5431,260.7289 L643.4179,262.5938 L646.0239,264.0036 L645.9713,263.9209 L648.5726,265.5331 L651.3395,267.4057 L653.9898,269.0948 L656.5582,270.6553 L659.2568,272.4205 L659.3869,272.6093 L661.8276,274.2084 L664.4861,276.1236 L666.7302,277.4372 L669.494,279.5054 L672,281.1992 L672.1066,281.3318 L674.2161,282.9123 L676.7115,284.973 L678.9464,286.7096 L681.6246,288.9977 L683.853,290.7261 L683.8144,290.6858 L686.2164,292.9982 L688.3406,295.02 L690.3764,296.9495 L692.8332,299.3192 L694.9963,301.3817 L694.9769,301.3639 L697.1294,303.681 L699.0474,305.7822 L700.96,307.8784 L702.8997,309.9995 L705.1439,312.4011 L704.9354,312.227 L706.8339,314.4552 L708.8538,316.7848 L710.4332,318.7466 L712.1044,320.785 L714.01,323.0192 " fill="none" style="stroke: #A80036; stroke-width: 1.0;"/><polygon fill="#A80036" points="717.24,327.1192,717.4024,327.1603,716.9662,325.2623,716.3399,323.3163,715.5718,321.3345,715.3592,319.493,714.8264,317.5707,714.7402,317.5603,714.6124,318.6845,714.6016,319.8227,714.4852,320.9482,714.4685,322.0857,714.1515,323.1871,714.1791,323.4163,713.0525,323.2544,711.8997,322.8735,710.789,322.8434,709.6746,322.7822,708.5351,322.5122,708.6013,322.6374,710.1864,323.2642,712.0434,324.4049,713.8448,325.4404,715.6016,326.3916,717.24,327.1192" style="stroke: #A80036; stroke-width: 1.0;"/><text fill="#000000" font-family="sans-serif" font-size="13" lengthAdjust="spacingAndGlyphs" textLength="22" x="557.4093" y="241.7302">0..*</text><text fill="#000000" font-family="sans-serif" font-size="13" lengthAdjust="spacingAndGlyphs" textLength="22" x="687.6573" y="316.2888">0..*</text></g></svg>