<?xml version="1.0" encoding="UTF-8" standalone="no"?><svg xmlns="http://www.w3.org/2000/svg" xmlns:xlink="http://www.w3.org/1999/xlink" contentScriptType="application/ecmascript" contentStyleType="text/css" height="436px" preserveAspectRatio="none" style="width:780px;height:436px;" version="1.1" viewBox="0 0 780 436" width="780px" zoomAndPan="magnify"><defs><filter height="300%" id="fri8oxj" width="300%" x="-1" y="-1"><feGaussianBlur result="blurOut" stdDeviation="2.0"/><feColorMatrix in="blurOut" result="blurOut2" type="matrix" values="0 0 0 0 0 0 0 0 0 0 0 0 0 0 0 0 0 0 .4 0"/><feOffset dx="4.0" dy="4.0" in="blurOut2" result="blurOut3"/><feBlend in="SourceGraphic" in2="blurOut3" mode="normal"/></filter></defs><g><text fill="#000000" font-family="sans-serif" font-size="18" lengthAdjust="spacingAndGlyphs" textLength="306" x="241.5" y="17.4023">ドメインモデル図：ユーザーグループ</text><!--cluster ユーザーグループ--><polygon fill="#FFFFFF" filter="url(#fri8oxj)" points="22,94.1992,22,94.2391,31.8333,94.5474,41.6667,94.5206,51.5,94.9227,61.3333,93.5487,71.1667,94.3704,81,93.5415,90.8333,94.7711,100.6667,93.9126,110.5,94.4649,120.3333,93.6262,130.1667,94.3475,140,94.1992,140.0323,94.2093,141.5741,98.7511,142.7907,103.1916,144.3938,107.7525,145.3913,112.1249,147,116.6875,147,117.1905,156.9057,116.0275,166.8113,116.9949,176.717,117.072,186.6226,116.6198,196.5283,116.9793,206.434,115.9715,216.3396,117.3885,226.2453,116.8993,236.1509,116.298,246.0566,116.2056,255.9623,116.5243,265.8679,116.4599,275.7736,117.2875,285.6792,117.3923,295.5849,117.0165,305.4906,116.7966,315.3962,116.8465,325.3019,116.9389,335.2075,116.4687,345.1132,117.1938,355.0189,116.7752,364.9245,116.7726,374.8302,117.0312,384.7358,116.904,394.6415,116.7125,404.5472,116.895,414.4528,116.6502,424.3585,117.2796,434.2642,116.1774,444.1698,117.4211,454.0755,116.1307,463.9811,116.3178,473.8868,117.092,483.7925,116.0899,493.6981,116.3086,503.6038,117.2488,513.5094,116.9008,523.4151,116.4409,533.3208,116.966,543.2264,117.1635,553.1321,115.957,563.0377,116.5102,572.9434,116.5353,582.8491,117.2532,592.7547,117.2384,602.6604,116.5093,612.566,116.6265,622.4717,116.5069,632.3774,117.173,642.283,116.0175,652.1887,115.9847,662.0943,117.1917,672,116.6875,671.7112,116.6875,672.5462,126.7685,672.4396,136.8495,671.4376,146.9306,671.9668,157.0116,672.6216,167.0926,672.4512,177.1736,671.4433,187.2547,672.5166,197.3357,672.5127,207.4167,672.7178,217.4977,671.9732,227.5788,671.5362,237.6598,672.1791,247.7408,671.7583,257.8218,671.6679,267.9028,671.7481,277.9839,672.2735,288.0649,672.277,298.1459,671.6229,308.2269,671.7811,318.308,671.7617,328.389,672.595,338.47,671.3266,348.551,671.7405,358.6321,672.6417,368.7131,672.734,378.7941,672.6358,388.8751,671.3202,398.9561,672.1255,409.0372,672.6217,419.1182,672,429.1992,672,428.4577,662,428.6556,652,428.4861,642,429.3568,632,428.7214,622,429.7223,612,428.4754,602,429.9296,592,428.9138,582,428.5924,572,429.4515,562,429.4048,552,428.6968,542,429.5479,532,429.8845,522,429.1052,512,429.0115,502,429.4994,492,428.8347,482,429.8966,472,428.5115,462,429.2919,452,429.728,442,429.1481,432,429.3836,422,428.5097,412,429.503,402,428.5797,392,429.9422,382,429.1604,372,429.8266,362,429.3309,352,429.1118,342,429.4158,332,429.3365,322,428.4748,312,429.3447,302,428.7094,292,429.5963,282,429.6853,272,428.6556,262,429.4404,252,429.1182,242,429.3102,232,428.7939,222,429.8179,212,429.4393,202,429.7418,192,429.1156,182,428.4829,172,429.3157,162,428.6794,152,428.4612,142,429.4837,132,429.6335,122,428.6706,112,429.7939,102,429.9447,92,429.6229,82,429.6822,72,429.0045,62,429.8595,52,429.4002,42,429.3941,32,428.6395,22,429.1992,21.6619,429.1992,22.5574,419.3463,21.7349,409.4933,21.673,399.6404,22.3702,389.7875,21.7597,379.9345,22.1707,370.0816,22.5918,360.2286,21.9945,350.3757,22.4272,340.5227,21.7536,330.6698,22.3459,320.8169,21.7727,310.9639,22.3,301.111,22.6662,291.258,21.8567,281.4051,22.5628,271.5522,22.4236,261.6992,21.3588,251.8463,22.6682,241.9933,21.9619,232.1404,21.4275,222.2875,21.9733,212.4345,21.5882,202.5816,21.7188,192.7286,22.693,182.8757,21.3441,173.0227,22.043,163.1698,22.422,153.3169,22.2663,143.4639,22.1335,133.611,22.5497,123.758,21.4918,113.9051,21.3936,104.0522,22,94.1992" style="stroke: #000000; stroke-width: 2.0;"/><path d="M22,116.6875 L22,117.0957 L31.6154,116.545 L41.2308,116.5231 L50.8462,116.0525 L60.4615,115.8521 L70.0769,117.3239 L79.6923,116.7658 L89.3077,116.7565 L98.9231,117.5415 L108.5385,116.5691 L118.1538,116.6865 L127.7692,117.2862 L137.3846,117.4478 L147,116.6875 " fill="#FFFFFF" style="stroke: #000000; stroke-width: 2.0;"/><text fill="#000000" font-family="sans-serif" font-size="14" font-weight="bold" lengthAdjust="spacingAndGlyphs" textLength="112" x="26" y="109.7344">ユーザーグループ</text><!--class ユーザーグループ--><polygon fill="#FEFECE" filter="url(#fri8oxj)" points="294,129.1992,294,129.3799,303.8571,129.7162,313.7143,129.4618,323.5714,128.5384,333.4286,129.4502,343.2857,128.4736,353.1429,129.4423,363,128.8951,372.8571,128.8432,382.7143,129.7633,392.5714,128.8034,402.4286,129.5491,412.2857,128.6337,422.1429,129.1272,432,129.3,441.8571,129.5116,451.7143,129.9129,461.5714,129.5121,471.4286,128.959,481.2857,129.0805,491.1429,129.0744,501,128.6647,510.8571,129.3915,520.7143,128.514,530.5714,128.7883,540.4286,128.7939,550.2857,128.6649,560.1429,129.8634,570,129.1992,569.5437,129.1992,569.4853,139.4015,570.0152,149.6037,569.7442,159.806,569.9502,170.0082,570.7302,180.2105,570.032,190.4128,569.3032,200.615,570.4248,210.8173,570,221.0195,570,220.5773,560.1429,221.1933,550.2857,220.6378,540.4286,221.7075,530.5714,221.3908,520.7143,220.321,510.8571,221.4995,501,220.5619,491.1429,221.6054,481.2857,220.7873,471.4286,220.8718,461.5714,221.3439,451.7143,221.6602,441.8571,220.5632,432,221.4093,422.1429,220.9719,412.2857,220.7092,402.4286,220.716,392.5714,221.4853,382.7143,220.8536,372.8571,221.4462,363,221.4223,353.1429,220.9448,343.2857,221.7483,333.4286,221.2978,323.5714,220.33,313.7143,221.4193,303.8571,221.2271,294,221.0195,293.3068,221.0195,294.1419,210.8173,293.7384,200.615,293.5936,190.4128,294.6027,180.2105,294.4666,170.0082,293.39,159.806,293.7169,149.6037,293.7077,139.4015,294,129.1992" style="stroke: #A80036; stroke-width: 1.5;"/><polygon fill="#ADD1B2" points="390.6994,148.75,388.4385,151.6351,386.2743,154.0912,383.6985,155.4388,380.3114,155.8727,376.7117,155.4841,373.4782,154.4659,370.713,152.1287,369.4921,148.6873,368.1646,146.5741,368.9018,144.2657,369.4489,140.8706,370.7958,138.1844,373.3737,136.8598,375.3011,135.5284,377.0973,134.0189,379.61,134.6002,382.4915,134.8233,385.7902,135.3917,387.2259,137.5295,388.727,138.8211,390.373,142.1856,391.0644,144.4287,390.9921,147.7539" style="stroke: #A80036; stroke-width: 1.0;"/><path d="M382.2231,151.3423 Q381.6421,151.6411 381.0029,151.7905 Q380.3638,151.9399 379.6582,151.9399 Q377.1514,151.9399 375.8315,150.2881 Q374.5117,148.6362 374.5117,145.5151 Q374.5117,142.3857 375.8315,140.7339 Q377.1514,139.082 379.6582,139.082 Q380.3638,139.082 381.0112,139.2314 Q381.6587,139.3809 382.2231,139.6797 L382.2231,142.4023 Q381.5923,141.8213 380.9988,141.5515 Q380.4053,141.2817 379.7744,141.2817 Q378.4297,141.2817 377.7449,142.3484 Q377.0601,143.415 377.0601,145.5151 Q377.0601,147.6069 377.7449,148.6736 Q378.4297,149.7402 379.7744,149.7402 Q380.4053,149.7402 380.9988,149.4705 Q381.5923,149.2007 382.2231,148.6196 Z "/><text fill="#000000" font-family="sans-serif" font-size="12" lengthAdjust="spacingAndGlyphs" textLength="96" x="400.25" y="149.7344">ユーザーグループ</text><path d="M295,161.1992 L295,160.4457 L305.1481,160.4187 L315.2963,160.6246 L325.4444,160.9624 L335.5926,161.9699 L345.7407,162.0581 L355.8889,161.12 L366.037,161.6395 L376.1852,160.3573 L386.3333,160.8611 L396.4815,162.0365 L406.6296,161.0629 L416.7778,160.7429 L426.9259,160.3934 L437.0741,162.1124 L447.2222,161.637 L457.3704,160.7581 L467.5185,161.2429 L477.6667,160.4267 L487.8148,160.5091 L497.963,160.7685 L508.1111,161.4252 L518.2593,161.5952 L528.4074,161.8833 L538.5556,160.5632 L548.7037,161.3605 L558.8519,161.4463 L569,161.1992 " fill="#FEFECE" style="stroke: #A80036; stroke-width: 1.5;"/><text fill="#000000" font-family="sans-serif" font-size="11" lengthAdjust="spacingAndGlyphs" textLength="99" x="300" y="175.834">ユーザーグループ名</text><text fill="#000000" font-family="sans-serif" font-size="11" lengthAdjust="spacingAndGlyphs" textLength="33" x="300" y="188.7891">表示名</text><text fill="#000000" font-family="sans-serif" font-size="11" lengthAdjust="spacingAndGlyphs" textLength="99" x="300" y="201.7441">認証プレフィックス</text><text fill="#000000" font-family="sans-serif" font-size="11" lengthAdjust="spacingAndGlyphs" textLength="264" x="300" y="214.6992">コンテンツのドラッグ＆ドロップ移動機能を利用する</text><polygon fill="#FBFB77" filter="url(#fri8oxj)" points="38.5,281.1992,38.5387,281.1992,38.2297,291.3903,38.1631,301.5814,38.9276,311.7725,37.984,321.9636,38.014,332.1547,38.0398,342.3459,38.8584,352.537,38.9768,362.7281,39.0128,372.9192,38.2499,383.1103,38.3622,393.3014,38.6692,403.4925,38.5,413.6836,38.5,413.6659,48.4516,413.8147,58.4032,414.3422,68.3548,414.3492,78.3065,413.3302,88.2581,413.601,98.2097,414.0152,108.1613,414.0594,118.1129,413.4118,128.0645,413.8723,138.0161,414.3293,147.9677,413.7648,157.9194,414.1952,167.871,414.1359,177.8226,414.102,187.7742,413.9804,197.7258,413.2409,207.6774,414.1714,217.629,414.3371,227.5806,414.3179,237.5323,413.5895,247.4839,414.2516,257.4355,413.4562,267.3871,413.5094,277.3387,413.4682,287.2903,413.9002,297.2419,414.3057,307.1935,413.5266,317.1452,414.1415,327.0968,412.9818,337.0484,413.1571,347,413.8442,356.9516,413.6269,366.9032,413.1273,376.8548,413.1636,386.8065,414.3256,396.7581,414.0312,406.7097,414.2866,416.6613,414.1843,426.6129,413.4803,436.5645,413.2488,446.5161,414.0646,456.4677,413.5355,466.4194,414.427,476.371,413.2043,486.3226,413.4434,496.2742,414.0874,506.2258,413.8244,516.1774,413.7134,526.129,413.011,536.0806,413.6757,546.0323,414.2743,555.9839,413.3847,565.9355,413.4213,575.8871,413.5645,585.8387,413.2811,595.7903,413.2814,605.7419,413.4865,615.6935,413.1526,625.6452,413.2565,635.5968,414.3166,645.5484,413.0584,655.5,413.6836,656.1064,413.6836,655.1071,403.4766,655.8766,393.2695,656.0078,383.0625,655.2508,372.8555,654.7875,362.6484,656.1106,352.4414,655.3086,342.2344,654.7695,332.0273,656.2388,321.8203,656.0837,311.6133,655.3666,301.4063,655.5,291.1992,655.4927,291.1919,653.3281,289.0273,651.4942,287.1934,649.5543,285.2535,647.597,283.2962,645.5,281.1992,645.5,280.7671,635.5492,281.8044,625.5984,281.2408,615.6475,280.9577,605.6967,281.4329,595.7459,281.0878,585.7951,281.3597,575.8443,280.974,565.8934,280.8882,555.9426,281.1651,545.9918,281.6252,536.041,280.8992,526.0902,280.6736,516.1393,281.5107,506.1885,280.7667,496.2377,281.7023,486.2869,281.5451,476.3361,280.6561,466.3852,281.4504,456.4344,281.2158,446.4836,281.45,436.5328,281.9467,426.582,280.9776,416.6311,280.8513,406.6803,280.4793,396.7295,280.9883,386.7787,280.767,376.8279,280.4972,366.877,280.7354,356.9262,280.629,346.9754,281.4513,337.0246,281.8015,327.0738,280.7265,317.123,280.9658,307.1721,280.6845,297.2213,281.8534,287.2705,281.8947,277.3197,280.9603,267.3689,280.6122,257.418,281.2838,247.4672,281.714,237.5164,280.7991,227.5656,281.88,217.6148,280.5217,207.6639,280.9477,197.7131,280.6351,187.7623,281.0668,177.8115,281.3566,167.8607,281.1378,157.9098,280.8016,147.959,281.5094,138.0082,281.5796,128.0574,281.211,118.1066,281.5023,108.1557,281.1503,98.2049,281.797,88.2541,280.7231,78.3033,281.8381,68.3525,281.7818,58.4016,280.5365,48.4508,281.2338,38.5,281.1992" style="stroke: #A80036; stroke-width: 1.0;"/><polygon fill="#FBFB77" points="38.5,281.1992,38.6502,281.1992,38.1757,291.3903,38.7953,301.5814,38.3969,311.7725,38.8218,321.9636,38.3832,332.1547,39.0077,342.3459,38.3708,352.537,39.2152,362.7281,37.7794,372.9192,38.3596,383.1103,37.9229,393.3014,38.0726,403.4925,38.5,413.6836,38.5,413.6359,48.4516,414.373,58.4032,413.535,68.3548,413.5424,78.3065,413.3793,88.2581,413.9662,98.2097,413.1701,108.1613,412.9769,118.1129,412.9416,128.0645,413.9819,138.0161,413.8333,147.9677,413.6366,157.9194,414.0764,167.871,413.2984,177.8226,414.0044,187.7742,413.2013,197.7258,413.0037,207.6774,413.9186,217.629,413.7389,227.5806,413.351,237.5323,413.8376,247.4839,413.4298,257.4355,413.2946,267.3871,413.2183,277.3387,413.0546,287.2903,413.0663,297.2419,413.6804,307.1935,414.1445,317.1452,413.6803,327.0968,414.1877,337.0484,413.4116,347,413.7891,356.9516,413.0471,366.9032,413.4467,376.8548,413.6644,386.8065,413.8927,396.7581,413.2357,406.7097,413.5873,416.6613,414.2537,426.6129,413.2,436.5645,413.1432,446.5161,414.1835,456.4677,413.4198,466.4194,413.7088,476.371,414.0372,486.3226,413.2021,496.2742,413.2985,506.2258,414.0211,516.1774,413.944,526.129,414.0491,536.0806,413.1658,546.0323,414.139,555.9839,414.2879,565.9355,413.7371,575.8871,413.0961,585.8387,413.5653,595.7903,413.8458,605.7419,413.4945,615.6935,413.5426,625.6452,414.0394,635.5968,413.8073,645.5484,414.0217,655.5,413.6836,655.371,413.6836,655.4821,403.4766,654.8481,393.2695,656.005,383.0625,656.1881,372.8555,654.8816,362.6484,654.7934,352.4414,656.0747,342.2344,655.814,332.0273,654.8329,321.8203,655.5498,311.6133,655.5333,301.4063,655.5,291.1992,655.3476,291.0468,653.5346,289.2338,651.3703,287.0695,649.4541,285.1534,647.4798,283.179,645.5,281.1992,645.5,281.4616,635.4262,281.0393,625.3523,281.2298,615.2785,280.9177,605.2046,280.9336,595.1308,280.9964,585.0569,280.8862,574.9831,280.9298,564.9092,281.132,554.8354,281.0386,544.7615,281.8488,534.6877,281.321,524.6138,281.5641,514.54,281.7354,504.4662,280.4832,494.3923,281.4009,484.3185,281.2841,474.2446,281.0474,464.1708,281.5887,454.0969,281.8143,444.0231,280.8532,433.9492,281.7318,423.8754,280.9196,413.8015,280.7766,403.7277,281.2723,393.6538,281.2373,383.58,281.1992,383.9802,281.372,387.4916,272.7373,390.9839,264.0944,394.6367,255.5208,398.0371,246.8382,401.9488,238.3763,406.259,230.0865,409.44,221.3092,409.4073,221.2907,404.8526,230.0061,399.535,238.2902,394.8408,246.9267,390.1523,255.5665,384.9441,263.9124,380.1411,272.4875,375.58,281.1992,375.58,281.0574,365.6659,281.4699,355.7518,280.7643,345.8376,280.483,335.9235,280.844,326.0094,281.7454,316.0953,281.3762,306.1812,281.5876,296.2671,281.7575,286.3529,281.3362,276.4388,280.7421,266.5247,281.0549,256.6106,281.6256,246.6965,280.8649,236.7824,281.3036,226.8682,281.4677,216.9541,281.3542,207.04,280.7362,197.1259,281.729,187.2118,281.2425,177.2976,281.0009,167.3835,281.0131,157.4694,281.7343,147.5553,281.7864,137.6412,281.7708,127.7271,281.332,117.8129,281.096,107.8988,281.9445,97.9847,281.7713,88.0706,281.3641,78.1565,281.9261,68.2424,281.4025,58.3282,281.7586,48.4141,280.851,38.5,281.1992" style="stroke: #A80036; stroke-width: 1.0;"/><path d="M645.5,281.1992 L645.34,281.1992 L645.3928,283.1992 L645.3903,285.1992 L645.343,287.1992 L645.8118,289.1992 L645.5,291.1992 " fill="#FBFB77" style="stroke: #A80036; stroke-width: 1.0;"/><path d="M655.5,291.1992 L655.5,290.9552 L653.5,291.4642 L651.5,291.0956 L649.5,291.425 L647.5,291.1739 L645.5,291.1992 " fill="#FBFB77" style="stroke: #A80036; stroke-width: 1.0;"/><text fill="#000000" font-family="sans-serif" font-size="13" lengthAdjust="spacingAndGlyphs" textLength="341" x="44.5" y="298.7676">・ユーザーグループ名は、50文字以内とし入力必須とする</text><text fill="#000000" font-family="sans-serif" font-size="13" lengthAdjust="spacingAndGlyphs" textLength="299" x="44.5" y="314.0781">・ユーザーグループ名は、半角のみ利用可能とする</text><text fill="#000000" font-family="sans-serif" font-size="13" lengthAdjust="spacingAndGlyphs" textLength="273" x="44.5" y="329.3887">・ユーザーグループ名は重複して登録できない</text><text fill="#000000" font-family="sans-serif" font-size="13" lengthAdjust="spacingAndGlyphs" textLength="263" x="44.5" y="344.6992">・表示名は、50文字以内とし入力必須とする</text><text fill="#000000" font-family="sans-serif" font-size="13" lengthAdjust="spacingAndGlyphs" textLength="481" x="44.5" y="360.0098">・認証プレフィックスは、複数の認証領域を設定している場合にのみ入力欄を表示</text><text fill="#000000" font-family="sans-serif" font-size="13" lengthAdjust="spacingAndGlyphs" textLength="364" x="44.5" y="375.3203">・認証プレフィックスは表示されている場合に入力必須とする</text><text fill="#000000" font-family="sans-serif" font-size="13" lengthAdjust="spacingAndGlyphs" textLength="492" x="44.5" y="390.6309">・admins グループの認証プレフィックスにおいて「管理システム」は削除できない</text><text fill="#000000" font-family="sans-serif" font-size="13" lengthAdjust="spacingAndGlyphs" textLength="596" x="44.5" y="405.9414">・admins グループは、ユーザーグループ名の変更、削除、および、アクセス制限の設定はできない。</text><!--class ユーザー--><polygon fill="#FEFECE" filter="url(#fri8oxj)" points="691,327.1992,691,327.7873,701,327.2214,711,326.6203,721,326.4838,731,327.2272,741,327.8156,751,327.0409,761,327.4441,771,327.1992,771.0531,327.1992,771.0117,335.1992,770.8289,343.1992,770.7634,351.1992,771.1073,359.1992,771,367.1992,771,366.9179,761,366.6047,751,367.204,741,366.4808,731,366.8917,721,367.6502,711,366.493,701,366.6252,691,367.1992,691.2239,367.1992,691.2024,359.1992,691.0271,351.1992,690.9946,343.1992,691.1271,335.1992,691,327.1992" style="stroke: #A80036; stroke-width: 1.5;"/><polygon fill="#ADD1B2" points="716.6798,346.1247,714.5679,349.1145,712.9765,351.1501,711.6045,353.0451,709.3895,353.5895,707.4972,353.8355,704.8176,354.4619,702.5325,353.6017,699.6315,352.7523,697.4001,350.2981,696.7849,347.8589,695.2807,344.5014,695.4624,341.7942,695.7934,339.9187,696.8,337.5739,698.7936,335.3047,700.6396,333.1969,704.0869,332.1021,706.2567,332.0008,708.3478,332.144,710.8115,333.1463,712.7403,334.0259,714.3585,335.3972,715.3662,337.2195,717.0618,339.9261,716.6392,342.3203,716.1055,345.5845" style="stroke: #A80036; stroke-width: 1.0;"/><path d="M708.4731,349.3423 Q707.8921,349.6411 707.2529,349.7905 Q706.6138,349.9399 705.9082,349.9399 Q703.4014,349.9399 702.0815,348.2881 Q700.7617,346.6362 700.7617,343.5151 Q700.7617,340.3857 702.0815,338.7339 Q703.4014,337.082 705.9082,337.082 Q706.6138,337.082 707.2612,337.2314 Q707.9087,337.3809 708.4731,337.6797 L708.4731,340.4023 Q707.8423,339.8213 707.2488,339.5515 Q706.6553,339.2817 706.0244,339.2817 Q704.6797,339.2817 703.9949,340.3484 Q703.3101,341.415 703.3101,343.5151 Q703.3101,345.6069 703.9949,346.6736 Q704.6797,347.7402 706.0244,347.7402 Q706.6553,347.7402 707.2488,347.4705 Q707.8423,347.2007 708.4731,346.6196 Z "/><text fill="#000000" font-family="sans-serif" font-size="12" lengthAdjust="spacingAndGlyphs" textLength="48" x="720" y="347.7344">ユーザー</text><path d="M692,359.1992 L692,359.7304 L701.75,359.18 L711.5,360.1872 L721.25,358.4345 L731,359.2858 L740.75,359.5012 L750.5,358.7557 L760.25,360.0202 L770,359.1992 " fill="#FEFECE" style="stroke: #A80036; stroke-width: 1.5;"/><!--class アクセス制限設定--><polygon fill="#FEFECE" filter="url(#fri8oxj)" points="368,29.1992,368,28.7448,377.8462,29.4732,387.6923,29.5008,397.5385,28.7781,407.3846,29.0165,417.2308,28.5123,427.0769,29.6921,436.9231,29.122,446.7692,29.0098,456.6154,29.5968,466.4615,29.5084,476.3077,29.5318,486.1538,29.8801,496,29.1992,496.11,29.1992,496.0865,37.1992,495.8036,45.1992,495.8518,53.1992,496.2308,61.1992,496,69.1992,496,69.2438,486.1538,69.1005,476.3077,69.1815,466.4615,68.7412,456.6154,68.8282,446.7692,68.9443,436.9231,69.4454,427.0769,69.4337,417.2308,68.4847,407.3846,69.0366,397.5385,69.3116,387.6923,69.5559,377.8462,69.0187,368,69.1992,368.1998,69.1992,368.1341,61.1992,367.9496,53.1992,368.1465,45.1992,367.8534,37.1992,368,29.1992" style="stroke: #A80036; stroke-width: 1.5;"/><polygon fill="#ADD1B2" points="392.9768,48.3678,392.2773,50.1169,391.5474,52.2771,389.3531,53.8365,387.4602,55.2877,384.0968,56.1815,381.0781,55.785,377.3172,55.0589,374.744,53.3843,373.0538,50.1758,373.0569,48.1514,372.4081,45.6227,371.7722,43.0251,373.0149,40.08,375.2076,38.1084,377.0384,36.7548,379.7011,34.2798,381.7895,34.3152,384.1732,34.0723,387.9081,34.9166,391.0419,37.0795,392.4096,38.6431,393.4182,42.2655,393.5572,44.4553,394.0417,47.7487" style="stroke: #A80036; stroke-width: 1.0;"/><path d="M385.4731,51.3423 Q384.8921,51.6411 384.2529,51.7905 Q383.6138,51.9399 382.9082,51.9399 Q380.4014,51.9399 379.0815,50.2881 Q377.7617,48.6362 377.7617,45.5151 Q377.7617,42.3857 379.0815,40.7339 Q380.4014,39.082 382.9082,39.082 Q383.6138,39.082 384.2612,39.2314 Q384.9087,39.3809 385.4731,39.6797 L385.4731,42.4023 Q384.8423,41.8213 384.2488,41.5515 Q383.6553,41.2817 383.0244,41.2817 Q381.6797,41.2817 380.9949,42.3484 Q380.3101,43.415 380.3101,45.5151 Q380.3101,47.6069 380.9949,48.6736 Q381.6797,49.7402 383.0244,49.7402 Q383.6553,49.7402 384.2488,49.4705 Q384.8423,49.2007 385.4731,48.6196 Z "/><text fill="#000000" font-family="sans-serif" font-size="12" lengthAdjust="spacingAndGlyphs" textLength="96" x="397" y="49.7344">アクセス制限設定</text><path d="M369,61.1992 L369,60.8246 L378.6923,61.024 L388.3846,60.5277 L398.0769,62.0192 L407.7692,60.8539 L417.4615,62.1703 L427.1538,60.6191 L436.8462,61.5439 L446.5385,61.2323 L456.2308,61.4528 L465.9231,62.0411 L475.6154,61.8165 L485.3077,61.2718 L495,61.1992 " fill="#FEFECE" style="stroke: #A80036; stroke-width: 1.5;"/><path d="M432,74.3592 L432.5427,74.3592 L432.655,85.3012 L431.1583,96.2432 L432.6806,107.1852 L431.116,118.1272 L432,129.0692 " fill="none" style="stroke: #A80036; stroke-width: 1.0;"/><polygon fill="#A80036" points="432,69.2992,432.0039,69.301,431.2606,71.1261,430.4209,72.9085,429.5102,74.6593,428.8351,76.5148,428,78.2992,427.8295,78.1287,428.7592,77.4585,429.7444,76.8437,430.5651,76.0643,431.3686,75.2678,432,74.2992,432.0448,74.3441,432.6646,74.9638,433.4556,75.7549,434.402,76.7013,435.0975,77.3968,436,78.2992,436.1648,78.3724,435.2646,76.5279,434.271,74.6419,433.4333,72.8251,432.7784,71.0896,432,69.2992" style="stroke: #A80036; stroke-width: 1.0;"/><text fill="#000000" font-family="sans-serif" font-size="13" lengthAdjust="spacingAndGlyphs" textLength="22" x="406.9063" y="89.6737">0..*</text><text fill="#000000" font-family="sans-serif" font-size="13" lengthAdjust="spacingAndGlyphs" textLength="8" x="423.3875" y="118.463">1</text><path d="M561.94,221.2592 L562.0685,221.5514 L564.7022,222.3777 L567.5595,223.7127 L570.288,224.7544 L573.126,226.0454 L576.0121,227.4458 L575.98,227.3764 L578.7187,228.4783 L581.6918,230.0868 L584.467,231.2675 L587.2757,232.5207 L590.1942,234.0111 L590.1058,233.8303 L593.1563,235.6522 L595.7536,236.5473 L598.7479,238.2542 L601.5808,239.6312 L604.3864,240.9523 L604.3552,240.8921 L607.1483,242.3023 L610.003,243.8311 L612.7817,245.2135 L615.6705,246.8081 L618.4888,248.2667 L618.3854,248.0797 L621.1911,249.6586 L624.1039,251.4315 L626.9581,253.0982 L629.6405,254.454 L632.4012,255.9514 L632.5416,256.1888 L635.1787,257.6513 L637.9211,259.2921 L640.6315,260.8787 L643.4652,262.6737 L646.0239,264.0036 L645.9226,263.8444 L648.6914,265.7199 L651.3659,267.4471 L653.8871,268.9334 L656.7039,270.8844 L659.2568,272.4205 L659.1872,272.3195 L661.7268,274.062 L664.1899,275.6937 L666.9791,277.7986 L669.6178,279.6851 L672,281.1992 L672.1625,281.4014 L674.3801,283.1164 L676.9288,285.2434 L679.1154,286.9198 L681.6261,288.9996 L683.853,290.7261 L683.7043,290.5706 L686.2617,293.0455 L688.2012,294.8743 L690.3377,296.909 L692.8653,299.3528 L694.9963,301.3817 L694.8457,301.2431 L697.1312,303.6827 L698.9595,305.7012 L701.0341,307.9466 L702.9559,310.0513 L705.1439,312.4011 L705.1251,312.3854 L707.0479,314.6339 L708.7271,316.679 L710.3926,318.7127 L712.0833,320.7675 L714.01,323.0192 " fill="none" style="stroke: #A80036; stroke-width: 1.0;"/><polygon fill="#A80036" points="717.24,327.1192,717.3384,327.1441,716.8621,325.236,716.0763,323.2497,715.741,321.3772,715.485,319.5248,714.8264,317.5707,714.7619,317.5629,714.9141,318.7207,714.51,319.8117,714.4604,320.9452,714.3796,322.075,714.1515,323.1871,714.1763,323.3933,713.0125,322.9211,711.9177,323.0236,710.7867,322.8242,709.6859,322.8761,708.5351,322.5122,708.6117,322.657,710.313,323.5035,711.9865,324.2974,713.8628,325.4744,715.5489,326.2922,717.24,327.1192" style="stroke: #A80036; stroke-width: 1.0;"/><text fill="#000000" font-family="sans-serif" font-size="13" lengthAdjust="spacingAndGlyphs" textLength="22" x="557.4093" y="241.7302">0..*</text><text fill="#000000" font-family="sans-serif" font-size="13" lengthAdjust="spacingAndGlyphs" textLength="22" x="687.6573" y="316.2888">0..*</text></g></svg>