<?xml version="1.0" encoding="UTF-8" standalone="no"?><svg xmlns="http://www.w3.org/2000/svg" xmlns:xlink="http://www.w3.org/1999/xlink" contentScriptType="application/ecmascript" contentStyleType="text/css" height="637px" preserveAspectRatio="none" style="width:1088px;height:637px;" version="1.1" viewBox="0 0 1088 637" width="1088px" zoomAndPan="magnify"><defs><filter height="300%" id="fd89lw3" width="300%" x="-1" y="-1"><feGaussianBlur result="blurOut" stdDeviation="2.0"/><feColorMatrix in="blurOut" result="blurOut2" type="matrix" values="0 0 0 0 0 0 0 0 0 0 0 0 0 0 0 0 0 0 .4 0"/><feOffset dx="4.0" dy="4.0" in="blurOut2" result="blurOut3"/><feBlend in="SourceGraphic" in2="blurOut3" mode="normal"/></filter></defs><g><text fill="#000000" font-family="sans-serif" font-size="18" lengthAdjust="spacingAndGlyphs" textLength="234" x="432" y="17.4023">ドメインモデル図：ユーザー</text><!--cluster ユーザー--><polygon fill="#FFFFFF" filter="url(#fd89lw3)" points="241.5,133.1992,241.5,133.9267,251.8333,133.8149,262.1667,133.2175,272.5,133.7079,282.8333,133.4402,293.1667,133.3574,303.5,133.1992,303.4701,133.1899,304.7205,137.641,306.177,142.1563,307.6951,146.6907,308.9345,151.1383,310.5,155.6875,310.5,155.8233,320.4167,155.0055,330.3333,155.4899,340.25,155.2244,350.1667,155.0169,360.0833,155.5232,370,156.038,379.9167,156.1569,389.8333,155.5523,399.75,155.9651,409.6667,155.0568,419.5833,155.8804,429.5,155.2185,439.4167,155.7508,449.3333,155.1101,459.25,155.5981,469.1667,156.308,479.0833,156.2343,489,156.0334,498.9167,155.7021,508.8333,156.1215,518.75,155.5233,528.6667,155.3166,538.5833,155.6058,548.5,155.0914,558.4167,155.4899,568.3333,155.7807,578.25,156.4304,588.1667,155.9464,598.0833,156.1114,608,154.9748,617.9167,155.247,627.8333,155.3505,637.75,156.3115,647.6667,156.3024,657.5833,155.988,667.5,155.7313,677.4167,156.3953,687.3333,154.9853,697.25,155.1958,707.1667,155.0506,717.0833,154.9839,727,156.0838,736.9167,155.9768,746.8333,155.0846,756.75,156.0574,766.6667,155.4264,776.5833,156.3589,786.5,155.3521,796.4167,156.3115,806.3333,155.4417,816.25,155.2337,826.1667,155.1711,836.0833,155.5142,846,155.0504,855.9167,155.6785,865.8333,155.9297,875.75,155.9296,885.6667,155.9491,895.5833,155.7126,905.5,155.6875,904.8409,155.6875,904.948,165.7835,905.6216,175.8795,905.2546,185.9755,904.9025,196.0715,906.0377,206.1675,904.9367,216.2635,905.398,226.3595,905.2449,236.4555,905.7376,246.5514,905.9723,256.6474,905.3663,266.7434,905.7849,276.8394,905.415,286.9354,905.0112,297.0314,904.8919,307.1274,905.4717,317.2234,905.7749,327.3194,905.3431,337.4154,906.1606,347.5114,905.5515,357.6074,905.268,367.7034,906.2166,377.7994,905.0055,387.8954,904.9257,397.9914,905.8391,408.0874,905.7567,418.1833,905.4628,428.2793,905.6024,438.3753,905.1455,448.4713,905.6531,458.5673,905.8716,468.6633,906.2301,478.7593,905.7685,488.8553,905.2417,498.9513,906.2273,509.0473,905.4719,519.1433,905.7207,529.2393,905.9316,539.3353,905.1587,549.4313,905.5,559.5273,905.7245,569.6233,905.7832,579.7192,905.7071,589.8152,905.6896,599.9112,905.8012,610.0072,905.9012,620.1032,905.5,630.1992,905.5,630.229,895.4394,630.8436,885.3788,629.8617,875.3182,630.3877,865.2576,630.4362,855.197,630.2154,845.1364,630.9402,835.0758,630.103,825.0152,629.9991,814.9545,629.8666,804.8939,630.1308,794.8333,630.5699,784.7727,630.0318,774.7121,629.7829,764.6515,630.9395,754.5909,630.8183,744.5303,630.76,734.4697,630.2632,724.4091,629.7523,714.3485,629.8763,704.2879,630.1378,694.2273,630.8018,684.1667,630.345,674.1061,629.8886,664.0455,630.8639,653.9848,630.7317,643.9242,629.5497,633.8636,630.7139,623.803,630.4772,613.7424,629.6144,603.6818,630.1847,593.6212,629.638,583.5606,630.2846,573.5,630.5468,563.4394,629.9298,553.3788,630.8476,543.3182,629.5841,533.2576,630.5056,523.197,630.8013,513.1364,630.8265,503.0758,629.9978,493.0152,630.0647,482.9545,630.7389,472.8939,630.875,462.8333,629.724,452.7727,630.3017,442.7121,629.568,432.6515,630.5012,422.5909,629.6488,412.5303,629.4566,402.4697,630.2419,392.4091,629.5024,382.3485,630.0322,372.2879,629.9181,362.2273,630.2998,352.1667,630.1361,342.1061,629.8999,332.0455,630.8903,321.9848,629.8994,311.9242,630.877,301.8636,629.8241,291.803,630.6367,281.7424,629.5959,271.6818,630.8746,261.6212,630.4751,251.5606,629.5063,241.5,630.1992,241.5418,630.1992,242.1496,620.2592,241.9608,610.3192,240.8237,600.3792,241.775,590.4392,241.1136,580.4992,240.8451,570.5592,241.9591,560.6192,241.0585,550.6792,240.9679,540.7392,241.167,530.7992,240.8152,520.8592,241.0864,510.9192,242.1907,500.9792,241.0165,491.0392,241.3159,481.0992,242.1654,471.1592,241.0377,461.2192,242.1468,451.2792,241.1412,441.3392,241.8176,431.3992,240.8747,421.4592,241.3283,411.5192,242.044,401.5792,240.9063,391.6392,241.9881,381.6992,241.933,371.7592,240.8551,361.8192,242.0226,351.8792,241.9578,341.9392,240.7585,331.9992,241.9174,322.0592,241.1996,312.1192,241.9305,302.1792,241.5648,292.2392,241.3896,282.2992,241.7397,272.3592,241.9027,262.4192,240.8944,252.4792,241.3255,242.5392,241.0503,232.5992,241.4076,222.6592,241.9931,212.7192,241.1655,202.7792,241.3848,192.8392,241.8014,182.8992,241.0306,172.9592,241.7735,163.0192,241.2756,153.0792,241.6608,143.1392,241.5,133.1992" style="stroke: #000000; stroke-width: 2.0;"/><path d="M241.5,155.6875 L241.5,156.1449 L251.3571,156.2405 L261.2143,156.6588 L271.0714,155.2054 L280.9286,155.136 L290.7857,155.8185 L300.6429,155.5793 L310.5,155.6875 " fill="#FFFFFF" style="stroke: #000000; stroke-width: 2.0;"/><text fill="#000000" font-family="sans-serif" font-size="14" font-weight="bold" lengthAdjust="spacingAndGlyphs" textLength="56" x="245.5" y="148.7344">ユーザー</text><!--class ユーザー--><polygon fill="#FEFECE" filter="url(#fd89lw3)" points="512.5,168.1992,512.5,168.6665,522.6667,167.6908,532.8333,167.699,543,167.895,553.1667,168.3714,563.3333,168.5614,573.5,167.9421,583.6667,167.8492,593.8333,168.6239,604,168.2367,614.1667,168.8358,624.3333,168.5483,634.5,168.1992,633.8725,168.1992,633.7752,178.252,634.5624,188.3047,634.0771,198.3574,635.1845,208.4102,634.8707,218.4629,634.5564,228.5156,634.5402,238.5684,634.9816,248.6211,634.8443,258.6738,633.7556,268.7266,634.0174,278.7793,634.2613,288.832,634.5,298.8848,634.5,299.0548,624.3333,298.1481,614.1667,298.7278,604,298.7701,593.8333,298.6999,583.6667,298.5285,573.5,298.2857,563.3333,299.555,553.1667,298.1698,543,299.5553,532.8333,298.3889,522.6667,299.4953,512.5,298.8848,512.4428,298.8848,513.1421,288.832,512.6073,278.7793,512.7689,268.7266,512.581,258.6738,513.0241,248.6211,511.7712,238.5684,512.3872,228.5156,512.0767,218.4629,512.8944,208.4102,512.158,198.3574,512.3068,188.3047,512.4544,178.252,512.5,168.1992" style="stroke: #A80036; stroke-width: 1.5;"/><polygon fill="#ADD1B2" points="557.1321,186.2229,556.6527,188.6367,555.227,191.7708,552.7336,193.9173,550.2447,195.2323,546.5814,195.5588,543.5688,194.1171,541.6441,193.3936,538.5678,192.7794,536.9948,190.9586,536.8708,188.4752,536.0971,186.4039,535.0091,183.5917,535.8816,181.5296,536.6869,179.7644,538.3,176.7071,540.9657,175.0716,542.8477,173.1472,545.1626,172.788,548.9389,173.3704,550.8431,174.4041,553.2576,174.8792,554.5578,176.4621,556.2244,179.0579,556.7166,182.0026,557.302,184.2064" style="stroke: #A80036; stroke-width: 1.0;"/><path d="M548.8731,190.3423 Q548.2921,190.6411 547.6529,190.7905 Q547.0138,190.9399 546.3082,190.9399 Q543.8014,190.9399 542.4815,189.2881 Q541.1617,187.6362 541.1617,184.5151 Q541.1617,181.3857 542.4815,179.7339 Q543.8014,178.082 546.3082,178.082 Q547.0138,178.082 547.6612,178.2314 Q548.3087,178.3809 548.8731,178.6797 L548.8731,181.4023 Q548.2423,180.8213 547.6488,180.5515 Q547.0553,180.2817 546.4244,180.2817 Q545.0797,180.2817 544.3949,181.3484 Q543.7101,182.415 543.7101,184.5151 Q543.7101,186.6069 544.3949,187.6736 Q545.0797,188.7402 546.4244,188.7402 Q547.0553,188.7402 547.6488,188.4705 Q548.2423,188.2007 548.8731,187.6196 Z "/><text fill="#000000" font-family="sans-serif" font-size="12" lengthAdjust="spacingAndGlyphs" textLength="48" x="564.6" y="188.7344">ユーザー</text><path d="M513.5,200.1992 L513.5,199.7991 L523.5,199.7673 L533.5,200.8612 L543.5,200.337 L553.5,200.422 L563.5,200.635 L573.5,199.8134 L583.5,199.2691 L593.5,200.4566 L603.5,200.818 L613.5,200.6347 L623.5,200.3109 L633.5,200.1992 " fill="#FEFECE" style="stroke: #A80036; stroke-width: 1.5;"/><text fill="#000000" font-family="sans-serif" font-size="11" lengthAdjust="spacingAndGlyphs" textLength="110" x="518.5" y="214.834">ログインアカウント名</text><text fill="#000000" font-family="sans-serif" font-size="11" lengthAdjust="spacingAndGlyphs" textLength="55" x="518.5" y="227.7891">パスワード</text><text fill="#000000" font-family="sans-serif" font-size="11" lengthAdjust="spacingAndGlyphs" textLength="66" x="518.5" y="240.7441">ニックネーム</text><text fill="#000000" font-family="sans-serif" font-size="11" lengthAdjust="spacingAndGlyphs" textLength="11" x="518.5" y="253.6992">姓</text><text fill="#000000" font-family="sans-serif" font-size="11" lengthAdjust="spacingAndGlyphs" textLength="11" x="518.5" y="266.6543">名</text><text fill="#000000" font-family="sans-serif" font-size="11" lengthAdjust="spacingAndGlyphs" textLength="39" x="518.5" y="279.6094">Eメール</text><text fill="#000000" font-family="sans-serif" font-size="11" lengthAdjust="spacingAndGlyphs" textLength="55" x="518.5" y="292.5645">ステータス</text><polygon fill="#FBFB77" filter="url(#fd89lw3)" points="257.5,359.1992,257.0187,359.1992,257.4846,369.398,256.805,379.5967,257.0283,389.7955,257.7987,399.9942,257.4586,410.193,257.3055,420.3917,257.9412,430.5905,257.6991,440.7892,257.652,450.988,257.7336,461.1867,258.0712,471.3855,258.1026,481.5842,257.2811,491.783,256.9386,501.9817,257.2338,512.1805,256.7779,522.3792,258.072,532.578,257.0093,542.7767,257.4927,552.9755,256.9299,563.1742,257.6455,573.373,257.4947,583.5717,257.1402,593.7705,257.8724,603.9692,257.5,614.168,257.5,614.2664,267.5317,613.4393,277.5635,614.1124,287.5952,614.3226,297.627,614.5489,307.6587,614.858,317.6905,614.6658,327.7222,614.4967,337.754,614.3683,347.7857,614.729,357.8175,614.1802,367.8492,614.3356,377.881,614.363,387.9127,614.6459,397.9444,614.719,407.9762,614.6984,418.0079,614.1961,428.0397,613.6073,438.0714,614.6503,448.1032,613.89,458.1349,613.5203,468.1667,613.8665,478.1984,614.0325,488.2302,614.7858,498.2619,613.4463,508.2937,613.9306,518.3254,613.715,528.3571,613.6704,538.3889,614.7336,548.4206,614.6326,558.4524,614.6501,568.4841,613.6934,578.5159,614.8856,588.5476,613.7219,598.5794,614.7604,608.6111,614.5577,618.6429,614.693,628.6746,613.4529,638.7063,614.2033,648.7381,614.0397,658.7698,613.5218,668.8016,614.7034,678.8333,614.5036,688.8651,614.6832,698.8968,614.28,708.9286,613.721,718.9603,613.8006,728.9921,613.5266,739.0238,614.531,749.0556,614.1793,759.0873,614.3725,769.119,613.4942,779.1508,614.1432,789.1825,614.8211,799.2143,614.1516,809.246,614.6324,819.2778,613.6792,829.3095,614.5837,839.3413,614.645,849.373,614.1761,859.4048,613.9307,869.4365,613.7272,879.4683,614.0072,889.5,614.168,889.8381,614.168,889.9308,603.9609,888.9646,593.7539,888.8231,583.5469,889.2342,573.3398,888.939,563.1328,889.4313,552.9258,889.4522,542.7188,889.9281,532.5117,889.7383,522.3047,889.4763,512.0977,890.0159,501.8906,889.8385,491.6836,890.2319,481.4766,888.8329,471.2695,889.8877,461.0625,889.504,450.8555,890.1044,440.6484,889.5507,430.4414,889.7064,420.2344,889.1323,410.0273,889.8848,399.8203,889.3248,389.6133,889.1407,379.4063,889.5,369.1992,889.5837,369.2829,887.6212,367.3204,885.5991,365.2983,883.3298,363.029,881.4317,361.1309,879.5,359.1992,879.5,358.7133,869.4677,359.0088,859.4355,359.8375,849.4032,358.7706,839.371,359.2751,829.3387,358.614,819.3065,359.6215,809.2742,359.9153,799.2419,359.6921,789.2097,358.8292,779.1774,359.0321,769.1452,358.6434,759.1129,358.5675,749.0806,358.7992,739.0484,358.9076,729.0161,359.8662,718.9839,359.1118,708.9516,359.7478,698.9194,358.916,688.8871,359.8399,678.8548,359.1335,668.8226,359.4842,658.7903,359.2306,648.7581,359.7491,638.7258,358.4934,628.6935,359.5584,618.6613,359.9116,608.629,358.6375,598.5968,358.8592,588.5645,359.9075,578.5323,359.1625,568.5,359.244,558.4677,358.549,548.4355,359.7074,538.4032,359.2179,528.371,359.6251,518.3387,359.098,508.3065,358.5439,498.2742,358.8462,488.2419,359.5371,478.2097,359.4156,468.1774,359.4268,458.1452,359.818,448.1129,359.9042,438.0806,359.0273,428.0484,359.0949,418.0161,359.6993,407.9839,359.3246,397.9516,358.9115,387.9194,358.5053,377.8871,359.4779,367.8548,358.9493,357.8226,359.8475,347.7903,358.8539,337.7581,359.8212,327.7258,359.725,317.6935,358.4883,307.6613,358.4503,297.629,359.6919,287.5968,359.4089,277.5645,359.0615,267.5323,359.2585,257.5,359.1992" style="stroke: #A80036; stroke-width: 1.0;"/><polygon fill="#FBFB77" points="257.5,359.1992,256.9226,359.1992,257.2475,369.398,257.4782,379.5967,257.2173,389.7955,257.4544,399.9942,258.0584,410.193,257.9958,420.3917,256.8729,430.5905,258.1128,440.7892,257.4827,450.988,257.7564,461.1867,257.7056,471.3855,257.2605,481.5842,257.1313,491.783,257.2445,501.9817,258.0567,512.1805,256.8273,522.3792,258.1221,532.578,257.3779,542.7767,257.6573,552.9755,258.1744,563.1742,257.1994,573.373,258.1599,583.5717,257.0246,593.7705,257.7699,603.9692,257.5,614.168,257.5,613.6806,267.5317,614.0163,277.5635,614.8654,287.5952,613.5763,297.627,614.5388,307.6587,614.2788,317.6905,613.7615,327.7222,613.5687,337.754,613.7707,347.7857,614.506,357.8175,614.5703,367.8492,613.6686,377.881,614.8909,387.9127,614.5482,397.9444,614.2377,407.9762,613.474,418.0079,614.1144,428.0397,613.6278,438.0714,613.7632,448.1032,613.6638,458.1349,613.8699,468.1667,614.0531,478.1984,613.7026,488.2302,614.688,498.2619,614.8296,508.2937,614.1268,518.3254,614.4635,528.3571,614.4239,538.3889,613.6139,548.4206,614.7982,558.4524,614.1883,568.4841,614.8583,578.5159,614.2316,588.5476,614.6567,598.5794,614.7416,608.6111,613.5271,618.6429,613.4828,628.6746,614.8,638.7063,613.5572,648.7381,614.2725,658.7698,613.4877,668.8016,614.4421,678.8333,613.8577,688.8651,614.3331,698.8968,613.7045,708.9286,614.8423,718.9603,613.5243,728.9921,613.8887,739.0238,613.7624,749.0556,614.7489,759.0873,614.185,769.119,613.921,779.1508,614.1696,789.1825,614.5496,799.2143,614.8879,809.246,614.1378,819.2778,614.4509,829.3095,613.7135,839.3413,614.5444,849.373,614.729,859.4048,614.5326,869.4365,614.3899,879.4683,614.6577,889.5,614.168,890.2219,614.168,890.0517,603.9609,890.035,593.7539,890.0361,583.5469,889.6833,573.3398,889.2358,563.1328,889.6746,552.9258,890.2256,542.7188,888.9337,532.5117,889.5328,522.3047,889.3387,512.0977,889.7509,501.8906,889.9048,491.6836,889.3709,481.4766,889.9261,471.2695,889.0286,461.0625,890.1212,450.8555,889.6431,440.6484,889.6138,430.4414,889.3449,420.2344,889.1779,410.0273,889.8928,399.8203,889.5778,389.6133,889.7474,379.4063,889.5,369.1992,889.482,369.1812,887.411,367.1102,885.4137,365.1129,883.4915,363.1907,881.5875,361.2867,879.5,359.1992,879.5,358.9018,869.4333,359.1781,859.3667,358.7883,849.3,359.3504,839.2333,359.2126,829.1667,359.2142,819.1,359.9485,809.0333,359.4469,798.9667,359.0632,788.9,359.6198,778.8333,359.6493,768.7667,358.5359,758.7,359.6264,748.6333,358.9173,738.5667,359.5092,728.5,359.4469,718.4333,359.0672,708.3667,359.7507,698.3,359.6055,688.2333,359.1283,678.1667,358.7658,668.1,359.449,658.0333,358.6957,647.9667,359.4863,637.9,359.5124,627.8333,359.2016,617.7667,358.6249,607.7,358.6008,597.6333,359.3007,587.5667,359.8122,577.5,359.1992,577.6007,359.206,576.2321,349.1824,576.3236,339.2564,575.331,329.2579,574.3292,319.2589,574.3293,309.3268,573.5,299.3392,573.1193,299.3138,573.0123,309.3278,571.9044,319.275,571.1641,329.2468,571.158,339.2676,569.688,349.1906,569.5,359.1992,569.5,359.1709,559.4355,358.991,549.371,359.1884,539.3065,358.9825,529.2419,358.9766,519.1774,358.738,509.1129,359.2808,499.0484,359.0999,488.9839,358.8059,478.9194,359.4347,468.8548,359.828,458.7903,358.6595,448.7258,359.5462,438.6613,359.9452,428.5968,359.3975,418.5323,359.667,408.4677,358.4923,398.4032,359.9408,388.3387,359.9394,378.2742,359.0793,368.2097,358.7042,358.1452,359.2865,348.0806,358.7792,338.0161,359.4206,327.9516,359.9389,317.8871,359.6133,307.8226,358.4633,297.7581,359.8463,287.6935,359.0604,277.629,359.3248,267.5645,359.3259,257.5,359.1992" style="stroke: #A80036; stroke-width: 1.0;"/><path d="M879.5,359.1992 L879.6128,359.1992 L879.668,361.1992 L879.4614,363.1992 L879.6697,365.1992 L879.6186,367.1992 L879.5,369.1992 " fill="#FBFB77" style="stroke: #A80036; stroke-width: 1.0;"/><path d="M889.5,369.1992 L889.5,369.2028 L887.5,369.3382 L885.5,369.085 L883.5,369.1774 L881.5,369.1741 L879.5,369.1992 " fill="#FBFB77" style="stroke: #A80036; stroke-width: 1.0;"/><text fill="#000000" font-family="sans-serif" font-size="13" lengthAdjust="spacingAndGlyphs" textLength="375" x="263.5" y="376.7676">・ログインアカウント名は、255文字以内とすし入力必須とする</text><text fill="#000000" font-family="sans-serif" font-size="13" lengthAdjust="spacingAndGlyphs" textLength="286" x="263.5" y="392.0781">・ログインアカウント名は重複して登録できない</text><text fill="#000000" font-family="sans-serif" font-size="13" lengthAdjust="spacingAndGlyphs" textLength="470" x="263.5" y="407.3887">・ログインアカウント名は、半角英数字と「._-:/()#,@[]+=&amp;;{}!$*)」で入力する</text><text fill="#000000" font-family="sans-serif" font-size="13" lengthAdjust="spacingAndGlyphs" textLength="224" x="263.5" y="422.6992">・姓は50文字以内とし入力必須とする</text><text fill="#000000" font-family="sans-serif" font-size="13" lengthAdjust="spacingAndGlyphs" textLength="146" x="263.5" y="438.0098">・名は50文字以内とする</text><text fill="#000000" font-family="sans-serif" font-size="13" lengthAdjust="spacingAndGlyphs" textLength="219" x="263.5" y="453.3203">・ニックネームは255文字以内とする</text><text fill="#000000" font-family="sans-serif" font-size="13" lengthAdjust="spacingAndGlyphs" textLength="416" x="263.5" y="468.6309">・ユーザーグループは必須とし自身のユーザーグループは変更できない</text><text fill="#000000" font-family="sans-serif" font-size="13" lengthAdjust="spacingAndGlyphs" textLength="279" x="263.5" y="483.9414">・パスワードは6文字以上、255文字以内とする</text><text fill="#000000" font-family="sans-serif" font-size="13" lengthAdjust="spacingAndGlyphs" textLength="405" x="263.5" y="499.252">・パスワードは、半角英数字と「._-:/()#,@[]+=&amp;;{}!$*)」で入力する</text><text fill="#000000" font-family="sans-serif" font-size="13" lengthAdjust="spacingAndGlyphs" textLength="265" x="263.5" y="514.5625">・Eメールは255文字以内とし入力必須とする</text><text fill="#000000" font-family="sans-serif" font-size="13" lengthAdjust="spacingAndGlyphs" textLength="202" x="263.5" y="529.873">・Eメールは重複して登録できない</text><text fill="#000000" font-family="sans-serif" font-size="13" lengthAdjust="spacingAndGlyphs" textLength="325" x="263.5" y="545.1836">・ステータスはシステム管理ユーザーしか変更できない</text><text fill="#000000" font-family="sans-serif" font-size="13" lengthAdjust="spacingAndGlyphs" textLength="338" x="263.5" y="560.4941">・システム管理ユーザーのステータスは誰も変更できない</text><text fill="#000000" font-family="sans-serif" font-size="13" lengthAdjust="spacingAndGlyphs" textLength="449" x="263.5" y="575.8047">・ログインアカウント名とEメールのどちらかとパスワードでログインできる</text><text fill="#000000" font-family="sans-serif" font-size="13" lengthAdjust="spacingAndGlyphs" textLength="286" x="263.5" y="591.1152">・ステータスが有効でなければログインできない</text><text fill="#000000" font-family="sans-serif" font-size="13" lengthAdjust="spacingAndGlyphs" textLength="611" x="263.5" y="606.4258">・ニックネームが登録されている場合、管理画面においてのユーザー名の表示はニックネームを利用する</text><!--class ユーザーグループ--><polygon fill="#FEFECE" filter="url(#fd89lw3)" points="509.5,48.6992,509.5,49.1375,519.3462,49.2392,529.1923,49.4033,539.0385,48.9684,548.8846,48.9706,558.7308,48.2279,568.5769,47.9922,578.4231,47.9964,588.2692,47.9657,598.1154,48.794,607.9615,48.2778,617.8077,48.0885,627.6538,48.7598,637.5,48.6992,637.435,48.6992,637.4551,56.6992,637.3916,64.6992,637.578,72.6992,637.4313,80.6992,637.5,88.6992,637.5,89.3741,627.6538,89.1207,617.8077,88.5786,607.9615,88.4645,598.1154,88.5152,588.2692,88.8772,578.4231,88.8803,568.5769,89.1444,558.7308,88.2633,548.8846,88.8842,539.0385,88.4881,529.1923,88.8519,519.3462,88.8217,509.5,88.6992,509.4837,88.6992,509.6681,80.6992,509.4128,72.6992,509.42,64.6992,509.2658,56.6992,509.5,48.6992" style="stroke: #A80036; stroke-width: 1.5;"/><polygon fill="#ADD1B2" points="534.5643,67.8287,533.8237,70.3601,532.114,73.4807,529.6524,73.9922,527.9528,75.0441,525.8911,75.0981,522.4505,75.1867,519.4842,75.1191,517.3247,73.6751,515.9405,71.3569,514.1165,68.7971,513.0937,66.9016,513.7704,63.298,514.6847,60.9382,515.5575,57.9792,517.7749,56.4841,520.4231,53.8255,524.0178,53.7198,526.8337,54.2883,529.4173,55.6123,532.3547,56.0548,533.5493,58.859,535.0021,60.8683,534.8166,64.2423,535.2548,66.8704" style="stroke: #A80036; stroke-width: 1.0;"/><path d="M526.9731,70.8423 Q526.3921,71.1411 525.7529,71.2905 Q525.1138,71.4399 524.4082,71.4399 Q521.9014,71.4399 520.5815,69.7881 Q519.2617,68.1362 519.2617,65.0151 Q519.2617,61.8857 520.5815,60.2339 Q521.9014,58.582 524.4082,58.582 Q525.1138,58.582 525.7612,58.7314 Q526.4087,58.8809 526.9731,59.1797 L526.9731,61.9023 Q526.3423,61.3213 525.7488,61.0515 Q525.1553,60.7817 524.5244,60.7817 Q523.1797,60.7817 522.4949,61.8484 Q521.8101,62.915 521.8101,65.0151 Q521.8101,67.1069 522.4949,68.1736 Q523.1797,69.2402 524.5244,69.2402 Q525.1553,69.2402 525.7488,68.9705 Q526.3423,68.7007 526.9731,68.1196 Z "/><text fill="#000000" font-family="sans-serif" font-size="12" lengthAdjust="spacingAndGlyphs" textLength="96" x="538.5" y="69.2344">ユーザーグループ</text><path d="M510.5,80.6992 L510.5,81.1917 L520.1923,81.2793 L529.8846,80.2646 L539.5769,81.6446 L549.2692,81.5994 L558.9615,79.9288 L568.6538,81.38 L578.3462,81.3432 L588.0385,80.0389 L597.7308,81.6817 L607.4231,80.5469 L617.1154,79.9734 L626.8077,79.8899 L636.5,80.6992 " fill="#FEFECE" style="stroke: #A80036; stroke-width: 1.5;"/><!--class パスワードリクエスト--><polygon fill="#FEFECE" filter="url(#fd89lw3)" points="322.5,29.1992,322.5,28.6824,332.6333,29.843,342.7667,28.8654,352.9,29.5985,363.0333,29.2346,373.1667,29.7032,383.3,28.4574,393.4333,29.1039,403.5667,28.9243,413.7,29.2677,423.8333,29.4746,433.9667,29.0333,444.1,28.7847,454.2333,29.3736,464.3667,28.6282,474.5,29.1992,474.4299,29.1992,474.9515,39.0574,474.3587,48.9155,474.8441,58.7737,474.1461,68.6318,474.452,78.49,475.0222,88.3481,474.73,98.2063,474.5,108.0645,474.5,107.6182,464.3667,108.7516,454.2333,107.9073,444.1,107.6828,433.9667,107.9399,423.8333,108.7157,413.7,108.154,403.5667,107.3415,393.4333,107.9345,383.3,108.315,373.1667,108.794,363.0333,108.2052,352.9,107.8571,342.7667,107.6263,332.6333,108.1721,322.5,108.0645,322.594,108.0645,322.5457,98.2063,322.301,88.3481,322.9983,78.49,322.205,68.6318,321.9179,58.7737,321.7958,48.9155,322.4951,39.0574,322.5,29.1992" style="stroke: #A80036; stroke-width: 1.5;"/><polygon fill="#ADD1B2" points="348.7502,47.4705,348.09,49.5495,346.7677,51.5097,344.6315,52.8368,343.4649,55.1403,339.8571,56.0193,337.7386,56.4752,334.1322,55.8324,331.7509,54.0364,329.539,53.3307,327.9923,50.1659,326.4914,48.5661,326.6346,45.6443,326.5262,43.1803,327.7022,41.353,328.0794,38.4434,330.2524,37.1022,331.5886,35.3423,334.6912,34.7217,337.205,34.7189,340.0779,34.6701,342.1534,34.941,343.7931,37.0096,346.0556,37.9029,347.7751,40.172,347.516,42.5482,348.5363,45.0687,347.9187,47.8214" style="stroke: #A80036; stroke-width: 1.0;"/><path d="M339.9731,51.3423 Q339.3921,51.6411 338.7529,51.7905 Q338.1138,51.9399 337.4082,51.9399 Q334.9014,51.9399 333.5815,50.2881 Q332.2617,48.6362 332.2617,45.5151 Q332.2617,42.3857 333.5815,40.7339 Q334.9014,39.082 337.4082,39.082 Q338.1138,39.082 338.7612,39.2314 Q339.4087,39.3809 339.9731,39.6797 L339.9731,42.4023 Q339.3423,41.8213 338.7488,41.5515 Q338.1553,41.2817 337.5244,41.2817 Q336.1797,41.2817 335.4949,42.3484 Q334.8101,43.415 334.8101,45.5151 Q334.8101,47.6069 335.4949,48.6736 Q336.1797,49.7402 337.5244,49.7402 Q338.1553,49.7402 338.7488,49.4705 Q339.3423,49.2007 339.9731,48.6196 Z "/><text fill="#000000" font-family="sans-serif" font-size="12" lengthAdjust="spacingAndGlyphs" textLength="120" x="351.5" y="49.7344">パスワードリクエスト</text><path d="M323.5,61.1992 L323.5,60.6671 L333.5,60.9508 L343.5,61.5308 L353.5,60.962 L363.5,60.6492 L373.5,60.9392 L383.5,60.5333 L393.5,60.9407 L403.5,60.6089 L413.5,61.4432 L423.5,61.2612 L433.5,61.9019 L443.5,60.9061 L453.5,61.8961 L463.5,60.9046 L473.5,61.1992 " fill="#FEFECE" style="stroke: #A80036; stroke-width: 1.5;"/><text fill="#000000" font-family="sans-serif" font-size="11" lengthAdjust="spacingAndGlyphs" textLength="55" x="328.5" y="75.834">ユーザーID</text><text fill="#000000" font-family="sans-serif" font-size="11" lengthAdjust="spacingAndGlyphs" textLength="77" x="328.5" y="88.7891">リクエストキー</text><text fill="#000000" font-family="sans-serif" font-size="11" lengthAdjust="spacingAndGlyphs" textLength="33" x="328.5" y="101.7441">使用済</text><polygon fill="#FBFB77" filter="url(#fd89lw3)" points="6,48.1992,6.1462,48.1992,6.0533,56.3234,6.072,64.4477,6.0003,72.5719,6.1604,80.6961,6,88.8203,6,88.4376,16.0357,88.5416,26.0714,88.384,36.1071,88.5003,46.1429,88.8086,56.1786,88.9381,66.2143,89.0782,76.25,88.7402,86.2857,88.8279,96.3214,88.7103,106.3571,88.839,116.3929,88.8813,126.4286,89.138,136.4643,89.4498,146.5,89.0285,156.5357,88.7773,166.5714,89.4053,176.6071,89.323,186.6429,88.7593,196.6786,89.2996,206.7143,89.0237,216.75,89.197,226.7857,88.4489,236.8214,88.1498,246.8571,89.5561,256.8929,88.7556,266.9286,89.0331,276.9643,89.5636,287,88.8203,287.2264,88.8203,286.9822,82.6961,287.0668,76.5719,287.2171,70.4477,286.9453,64.3234,287,58.1992,287.1317,58.3309,285.0051,56.2043,282.8734,54.0726,281.0099,52.2091,279.1457,50.3449,277,48.1992,277,47.607,266.963,47.583,256.9259,48.4305,246.8889,47.6927,236.8519,48.0416,226.8148,47.7568,216.7778,47.5149,206.7407,48.4932,196.7037,48.1388,186.6667,48.5517,176.6296,47.8161,166.5926,47.8366,156.5556,48.6378,146.5185,47.4688,136.4815,48.818,126.4444,47.5075,116.4074,48.5499,106.3704,47.9628,96.3333,47.8013,86.2963,48.4014,76.2593,48.3589,66.2222,48.404,56.1852,48.4768,46.1481,48.1067,36.1111,48.0561,26.0741,47.5024,16.037,48.0656,6,48.1992" style="stroke: #A80036; stroke-width: 1.0;"/><polygon fill="#FBFB77" points="6,48.1992,6.2071,48.1992,5.9944,56.3234,6.1801,64.4477,6.2194,72.5719,5.7769,80.6961,6,88.8203,6,89.0872,16.0357,88.8413,26.0714,88.2612,36.1071,89.1347,46.1429,88.6873,56.1786,88.4887,66.2143,88.6326,76.25,88.8576,86.2857,88.4973,96.3214,88.652,106.3571,88.0938,116.3929,89.24,126.4286,88.4206,136.4643,88.4882,146.5,88.9776,156.5357,89.0735,166.5714,89.502,176.6071,88.9071,186.6429,88.6808,196.6786,88.5523,206.7143,89.2885,216.75,89.4422,226.7857,89.3571,236.8214,88.4598,246.8571,88.7973,256.8929,88.1186,266.9286,88.1735,276.9643,89.5258,287,88.8203,287.2228,88.8203,286.9745,85.5961,287.0437,82.3719,287.1676,79.1477,286.7857,75.9234,287,72.6992,286.9895,72.6059,294.0984,71.9563,301.203,71.268,308.259,70.1487,315.3432,69.2797,322.46,68.6992,322.4718,68.8039,315.353,67.7662,308.266,67.0109,301.1693,66.1686,294.1028,65.5951,287,64.6992,287.0829,64.6992,286.9441,63.3992,287.2365,62.0992,287.2288,60.7992,286.9,59.4992,287,58.1992,286.8645,58.0637,285.1496,56.3488,283.1077,54.3069,281.1367,52.3359,278.9316,50.1308,277,48.1992,277,47.5439,266.963,48.2947,256.9259,48.9329,246.8889,47.8026,236.8519,47.7233,226.8148,47.9954,216.7778,47.7942,206.7407,48.8316,196.7037,48.3893,186.6667,47.8748,176.6296,48.6,166.5926,48.0819,156.5556,48.2938,146.5185,47.9766,136.4815,47.6469,126.4444,47.6722,116.4074,48.7957,106.3704,48.1389,96.3333,47.5386,86.2963,47.8948,76.2593,48.7807,66.2222,48.4455,56.1852,47.5399,46.1481,48.885,36.1111,48.2477,26.0741,48.3812,16.037,47.695,6,48.1992" style="stroke: #A80036; stroke-width: 1.0;"/><path d="M277,48.1992 L276.865,48.1992 L277.2937,50.1992 L276.6826,52.1992 L277.0479,54.1992 L276.9098,56.1992 L277,58.1992 " fill="#FBFB77" style="stroke: #A80036; stroke-width: 1.0;"/><path d="M287,58.1992 L287,57.9238 L285,58.4326 L283,58.4247 L281,58.2317 L279,58.3176 L277,58.1992 " fill="#FBFB77" style="stroke: #A80036; stroke-width: 1.0;"/><text fill="#000000" font-family="sans-serif" font-size="13" lengthAdjust="spacingAndGlyphs" textLength="260" x="12" y="65.7676">パスワードを再発行した場合対象レコードは</text><text fill="#000000" font-family="sans-serif" font-size="13" lengthAdjust="spacingAndGlyphs" textLength="182" x="12" y="81.0781">使用済となり利用できなくなる</text><!--class ログインストア--><polygon fill="#FEFECE" filter="url(#fd89lw3)" points="963.5,29.1992,963.5,28.5156,973.1667,29.4521,982.8333,29.3628,992.5,28.8202,1002.1667,29.7825,1011.8333,29.2185,1021.5,28.9693,1031.1667,28.6042,1040.8333,29.6704,1050.5,29.6302,1060.1667,29.2643,1069.8333,28.9352,1079.5,29.1992,1079.8383,29.1992,1079.9835,39.0574,1079.7463,48.9155,1079.7974,58.7737,1078.9019,68.6318,1079.4848,78.49,1078.8179,88.3481,1079.158,98.2063,1079.5,108.0645,1079.5,107.5116,1069.8333,108.6799,1060.1667,108.5881,1050.5,107.3673,1040.8333,107.3655,1031.1667,108.3356,1021.5,108.7906,1011.8333,107.6885,1002.1667,107.8942,992.5,108.3706,982.8333,107.9648,973.1667,108.7698,963.5,108.0645,964.0468,108.0645,964.1385,98.2063,962.8084,88.3481,963.4623,78.49,963.005,68.6318,962.9129,58.7737,963.8321,48.9155,963.5673,39.0574,963.5,29.1992" style="stroke: #A80036; stroke-width: 1.5;"/><polygon fill="#ADD1B2" points="989.3401,48.7846,987.1461,51.0754,985.1856,53.3738,983.1568,55.184,980.6926,56.5194,977.2574,55.525,973.5931,55.4952,971.8297,53.1571,968.9988,50.6917,967.4585,47.4114,967.4351,45.2275,968.414,42.2525,969.5157,39.9506,970.9465,37.6024,973.4763,36.0925,976.2942,33.783,979.3536,33.8909,982.5955,35.4704,984.9507,36.2785,986.4206,38.5725,988.1531,40.6226,988.7035,43.6836,989.9784,46.7516" style="stroke: #A80036; stroke-width: 1.0;"/><path d="M980.9731,51.3423 Q980.3921,51.6411 979.7529,51.7905 Q979.1138,51.9399 978.4082,51.9399 Q975.9014,51.9399 974.5815,50.2881 Q973.2617,48.6362 973.2617,45.5151 Q973.2617,42.3857 974.5815,40.7339 Q975.9014,39.082 978.4082,39.082 Q979.1138,39.082 979.7612,39.2314 Q980.4087,39.3809 980.9731,39.6797 L980.9731,42.4023 Q980.3423,41.8213 979.7488,41.5515 Q979.1553,41.2817 978.5244,41.2817 Q977.1797,41.2817 976.4949,42.3484 Q975.8101,43.415 975.8101,45.5151 Q975.8101,47.6069 976.4949,48.6736 Q977.1797,49.7402 978.5244,49.7402 Q979.1553,49.7402 979.7488,49.4705 Q980.3423,49.2007 980.9731,48.6196 Z "/><text fill="#000000" font-family="sans-serif" font-size="12" lengthAdjust="spacingAndGlyphs" textLength="84" x="992.5" y="49.7344">ログインストア</text><path d="M964.5,61.1992 L964.5,61.223 L974.8636,61.9597 L985.2273,61.9117 L995.5909,60.366 L1005.9545,61.6579 L1016.3182,61.2243 L1026.6818,60.6995 L1037.0455,62.1078 L1047.4091,60.8614 L1057.7727,60.8273 L1068.1364,61.8037 L1078.5,61.1992 " fill="#FEFECE" style="stroke: #A80036; stroke-width: 1.5;"/><text fill="#000000" font-family="sans-serif" font-size="11" lengthAdjust="spacingAndGlyphs" textLength="55" x="969.5" y="75.834">ユーザーID</text><text fill="#000000" font-family="sans-serif" font-size="11" lengthAdjust="spacingAndGlyphs" textLength="77" x="969.5" y="88.7891">プレフィックス</text><text fill="#000000" font-family="sans-serif" font-size="11" lengthAdjust="spacingAndGlyphs" textLength="55" x="969.5" y="101.7441">ストアキー</text><polygon fill="#FBFB77" filter="url(#fd89lw3)" points="673,48.1992,672.8956,48.1992,673.1433,56.3234,672.879,64.4477,673.1178,72.5719,672.9717,80.6961,673,88.8203,673,88.8472,682.8077,89.2981,692.6154,89.0033,702.4231,88.6979,712.2308,89.4217,722.0385,88.5448,731.8462,88.3835,741.6538,89.3275,751.4615,88.2375,761.2692,88.1613,771.0769,88.5006,780.8846,88.8603,790.6923,89.5363,800.5,89.1331,810.3077,88.7295,820.1154,88.0854,829.9231,89.2991,839.7308,88.6477,849.5385,89.0137,859.3462,88.8303,869.1538,88.6977,878.9615,88.5503,888.7692,88.8645,898.5769,89.3697,908.3846,89.2016,918.1923,88.1706,928,88.8203,927.9089,88.8203,927.9503,82.6961,927.7509,76.5719,928.1332,70.4477,927.8873,64.3234,928,58.1992,928.0416,58.2409,925.988,56.1872,923.9713,54.1706,921.8373,52.0365,920.0147,50.2139,918,48.1992,918,48.4539,908.2,48.5166,898.4,48.483,888.6,48.2863,878.8,48.4759,869,48.4023,859.2,48.9297,849.4,48.3241,839.6,47.4772,829.8,48.7963,820,47.7071,810.2,48.6484,800.4,48.8628,790.6,47.4684,780.8,48.2146,771,47.8139,761.2,47.5015,751.4,48.8056,741.6,48.2699,731.8,47.7016,722,48.9454,712.2,48.8485,702.4,48.2608,692.6,47.9533,682.8,48.0023,673,48.1992" style="stroke: #A80036; stroke-width: 1.0;"/><polygon fill="#FBFB77" points="673,48.1992,672.9438,48.1992,673.2289,56.3234,672.853,64.4477,673.1097,72.5719,673.1223,80.6961,673,88.8203,673,88.2797,682.8077,88.6997,692.6154,88.3555,702.4231,88.5604,712.2308,88.5862,722.0385,89.5383,731.8462,89.3623,741.6538,88.7182,751.4615,88.4804,761.2692,88.2608,771.0769,88.6968,780.8846,88.8571,790.6923,89.5478,800.5,88.2787,810.3077,89.3952,820.1154,89.1269,829.9231,89.092,839.7308,88.0877,849.5385,89.3684,859.3462,88.6437,869.1538,88.5769,878.9615,88.7392,888.7692,89.1877,898.5769,89.4149,908.3846,88.7143,918.1923,88.7851,928,88.8203,928.0498,88.8203,928.1044,85.5961,927.8247,82.3719,928.0936,79.1477,927.9186,75.9234,928,72.6992,928.0177,72.8548,935.0469,71.9068,942.0703,70.9079,949.1407,70.3233,956.16,69.288,963.23,68.6992,963.2343,68.7374,956.1955,68.0009,949.1645,67.3322,942.0869,66.2539,935.0529,65.5601,928,64.6992,928.0168,64.6992,927.8293,63.3992,928.2369,62.0992,928.1467,60.7992,928.236,59.4992,928,58.1992,927.8507,58.0499,926.1536,56.3528,924.136,54.3352,921.9947,52.194,920.0493,50.2485,918,48.1992,918,48.6547,908.2,47.9139,898.4,48.8373,888.6,47.5724,878.8,48.8614,869,47.8428,859.2,48.7732,849.4,47.585,839.6,48.0899,829.8,48.944,820,48.9398,810.2,47.5162,800.4,47.868,790.6,48.7842,780.8,47.4813,771,48.2797,761.2,48.6885,751.4,48.2452,741.6,47.4932,731.8,48.291,722,48.9048,712.2,48.1916,702.4,47.5702,692.6,48.6232,682.8,47.6139,673,48.1992" style="stroke: #A80036; stroke-width: 1.0;"/><path d="M918,48.1992 L918.1686,48.1992 L918.0585,50.1992 L917.6978,52.1992 L918.0696,54.1992 L918.166,56.1992 L918,58.1992 " fill="#FBFB77" style="stroke: #A80036; stroke-width: 1.0;"/><path d="M928,58.1992 L928,58.3537 L926,58.049 L924,58.4578 L922,57.9744 L920,58.0372 L918,58.1992 " fill="#FBFB77" style="stroke: #A80036; stroke-width: 1.0;"/><text fill="#000000" font-family="sans-serif" font-size="13" lengthAdjust="spacingAndGlyphs" textLength="234" x="679" y="65.7676">ログイン対象（プレフィックス）ごとに</text><text fill="#000000" font-family="sans-serif" font-size="13" lengthAdjust="spacingAndGlyphs" textLength="130" x="679" y="81.0781">ストアキーを発行する</text><path d="M573.5,93.7392 L573.1699,93.7392 L573.7644,104.3621 L572.8066,114.9849 L573.3495,125.6078 L574.2086,136.2306 L574.0461,146.8535 L573.5681,157.4764 L573.5,168.0992 " fill="none" style="stroke: #A80036; stroke-width: 1.0;"/><polygon fill="#A80036" points="573.5,88.7192,573.7208,88.8173,572.59,90.4703,571.9926,92.3604,571.2441,94.1833,570.3817,95.9555,569.5,97.7192,569.6259,97.8451,570.3075,96.9267,571.057,96.0762,571.7564,95.1756,572.7471,94.5663,573.5,93.7192,573.6498,93.869,574.2015,94.4207,575.0825,95.3017,575.969,96.1882,576.5492,96.7685,577.5,97.7192,577.6099,97.7681,576.6854,95.9127,576.0363,94.1798,575.1855,92.3572,574.465,90.5926,573.5,88.7192" style="stroke: #A80036; stroke-width: 1.0;"/><text fill="#000000" font-family="sans-serif" font-size="13" lengthAdjust="spacingAndGlyphs" textLength="22" x="548.2688" y="109.4172">0..*</text><text fill="#000000" font-family="sans-serif" font-size="13" lengthAdjust="spacingAndGlyphs" textLength="22" x="550.2281" y="157.2515">0..*</text><path d="M443.83,111.9192 L443.7002,111.7798 L451.279,118.832 L459.0926,126.1363 L466.7739,133.2985 L473.71,139.6607 L482.1628,147.6513 L489.4944,154.438 L496.9332,161.3399 L505.0355,168.9542 L512.44,175.8192 " fill="none" style="stroke: #A80036; stroke-width: 1.0;"/><polygon fill="#A80036" points="439.97,108.3292,439.8335,108.2709,440.8291,110.1773,441.5348,111.9598,442.3644,113.7952,443.2331,115.6473,443.8379,117.3868,443.8716,117.388,443.6066,116.2492,443.6749,115.1226,443.8735,114.0007,443.4394,112.8558,443.6319,111.7337,443.6295,111.6666,444.7679,111.8407,445.8947,111.6936,447.018,111.4519,448.1569,111.638,449.285,111.5277,449.3635,111.7563,447.377,110.757,445.6133,110.4063,443.7096,109.6481,441.8952,109.15,439.97,108.3292" style="stroke: #A80036; stroke-width: 1.0;"/><text fill="#000000" font-family="sans-serif" font-size="13" lengthAdjust="spacingAndGlyphs" textLength="22" x="423.0166" y="128.7404">0..*</text><text fill="#000000" font-family="sans-serif" font-size="13" lengthAdjust="spacingAndGlyphs" textLength="8" x="496.5108" y="165.4575">1</text><path d="M958.62,102.4292 L958.7484,102.7211 L956.0282,103.6564 L953.3961,104.7921 L950.7971,106.0028 L948.1136,107.0216 L945.5,108.1992 L945.6129,108.4744 L941.444,109.8753 L937.2929,111.3193 L933.2884,113.1208 L929.3473,115.0769 L925.1995,116.529 L925.087,116.2451 L921.0487,118.1475 L916.8376,119.6138 L912.8329,121.6007 L908.5421,122.8659 L904.4906,124.7349 L904.4064,124.5156 L900.3492,126.5023 L895.9812,127.6794 L891.7934,129.326 L887.6343,131.0472 L883.4859,132.7964 L883.4012,132.5691 L879.3126,134.5484 L875.0349,136.02 L870.7619,137.5043 L866.6368,139.3855 L862.298,140.6933 L862.2364,140.5236 L858.0402,142.219 L853.8355,143.8909 L849.5253,145.2721 L845.2882,146.8546 L841.0394,148.4051 L840.937,148.1155 L836.7381,149.7424 L832.6134,151.5787 L828.298,152.8763 L824.1016,154.5102 L819.8229,155.9115 L819.9234,156.2021 L815.7184,157.6798 L811.4732,159.0408 L807.2127,160.3578 L803.0181,161.8653 L798.761,163.1922 L798.6687,162.9195 L794.5231,164.3657 L790.4493,166.0244 L786.2627,167.3496 L782.178,168.9758 L777.9663,170.2267 L778.0314,170.4251 L769.8239,172.6486 L761.8124,175.4689 L753.6719,177.8965 L745.7041,180.85 L737.6288,183.476 L737.6284,183.4745 L730.1207,186.1178 L722.4027,188.0976 L714.7931,190.4193 L707.3169,193.1619 L699.7114,195.4964 L699.6525,195.3045 L692.8478,197.8035 L685.8357,199.6273 L678.9498,201.8618 L672.1233,204.2895 L665.1149,206.1251 L665.1414,206.214 L659.0027,207.8155 L652.9695,209.7701 L646.8278,211.3617 L640.8257,213.4202 L634.74,215.1992 " fill="none" style="stroke: #A80036; stroke-width: 1.0;"/><polygon fill="#A80036" points="963.4,100.2092,963.4016,100.3182,961.4302,100.2236,959.4593,100.1631,957.4883,100.0948,955.5253,100.5649,953.5522,100.3548,953.6228,100.5468,954.6808,100.9267,955.6604,101.0937,956.8228,101.7574,957.7693,101.8344,958.8615,102.3072,959.0294,102.369,958.5679,103.4047,958.0913,104.4349,957.5447,105.4394,957.4027,106.5926,956.909,107.6165,956.8128,107.5322,958.3567,106.266,959.3717,104.5363,960.7661,103.1392,962.0075,101.6081,963.4,100.2092" style="stroke: #A80036; stroke-width: 1.0;"/><text fill="#000000" font-family="sans-serif" font-size="13" lengthAdjust="spacingAndGlyphs" textLength="22" x="935.8838" y="101.0462">0..*</text><text fill="#000000" font-family="sans-serif" font-size="13" lengthAdjust="spacingAndGlyphs" textLength="8" x="642.6911" y="209.6369">1</text></g></svg>