<?xml version="1.0" encoding="UTF-8" standalone="no"?><svg xmlns="http://www.w3.org/2000/svg" xmlns:xlink="http://www.w3.org/1999/xlink" contentScriptType="application/ecmascript" contentStyleType="text/css" height="355px" preserveAspectRatio="none" style="width:282px;height:355px;" version="1.1" viewBox="0 0 282 355" width="282px" zoomAndPan="magnify"><defs><filter height="300%" id="f5vs2gj" width="300%" x="-1" y="-1"><feGaussianBlur result="blurOut" stdDeviation="2.0"/><feColorMatrix in="blurOut" result="blurOut2" type="matrix" values="0 0 0 0 0 0 0 0 0 0 0 0 0 0 0 0 0 0 .4 0"/><feOffset dx="4.0" dy="4.0" in="blurOut2" result="blurOut3"/><feBlend in="SourceGraphic" in2="blurOut3" mode="normal"/></filter></defs><g><text fill="#000000" font-family="sans-serif" font-size="18" lengthAdjust="spacingAndGlyphs" textLength="225" x="33" y="17.4023">アクセスルールグループAPI</text><!--class Admin\PermissionGroupsController--><polygon fill="#FEFECE" filter="url(#f5vs2gj)" points="6,29.1992,6,29.0576,15.8889,28.805,25.7778,29.0272,35.6667,29.142,45.5556,29.6521,55.4444,29.5848,65.3333,28.6156,75.2222,29.9284,85.1111,29.8949,95,28.5169,104.8889,29.4967,114.7778,29.8645,124.6667,29.7963,134.5556,28.5746,144.4444,29.002,154.3333,29.061,164.2222,29.7161,174.1111,29.8154,184,29.768,193.8889,29.0091,203.7778,29.7682,213.6667,28.7654,223.5556,29.8035,233.4444,29.3294,243.3333,29.4293,253.2222,28.6908,263.1111,28.7777,273,29.1992,273.2559,29.1992,272.8104,39.0212,272.7019,48.8431,272.4724,58.665,272.614,68.487,273.1725,78.3089,273.5323,88.1309,272.5427,97.9528,272.7544,107.7747,273.5815,117.5967,272.5405,127.4186,273.3561,137.2406,273,147.0625,273,146.4627,263.1111,146.3944,253.2222,147.8015,243.3333,147.5558,233.4444,147.1189,223.5556,147.3876,213.6667,146.4158,203.7778,147.4252,193.8889,147.6827,184,147.1262,174.1111,147.7221,164.2222,147.4949,154.3333,146.9428,144.4444,146.652,134.5556,147.4742,124.6667,146.6284,114.7778,147.4445,104.8889,146.7761,95,147.2704,85.1111,147.1064,75.2222,146.9211,65.3333,147.0454,55.4444,147.4474,45.5556,147.3249,35.6667,147.3623,25.7778,146.7391,15.8889,147.7148,6,147.0625,6.0275,147.0625,6.7338,137.2406,5.2534,127.4186,5.6958,117.5967,5.3049,107.7747,6.4527,97.9528,6.5538,88.1309,5.384,78.3089,5.7434,68.487,5.6939,58.665,6.7165,48.8431,6.0122,39.0212,6,29.1992" style="stroke: #A80036; stroke-width: 1.5;"/><text fill="#000000" font-family="sans-serif" font-size="12" lengthAdjust="spacingAndGlyphs" textLength="203" x="38" y="45.8008">Admin\PermissionGroupsController</text><path d="M7,53.332 L7,52.3489 L16.8148,54.3024 L26.6296,52.9141 L36.4444,52.9368 L46.2593,52.6433 L56.0741,53.1545 L65.8889,53.1647 L75.7037,52.8894 L85.5185,52.3817 L95.3333,52.8335 L105.1481,52.6379 L114.963,53.9789 L124.7778,52.4071 L134.5926,52.8194 L144.4074,54.2655 L154.2222,52.5886 L164.037,52.9121 L173.8519,52.9831 L183.6667,53.3892 L193.4815,54.2728 L203.2963,54.0039 L213.1111,53.2004 L222.9259,52.9035 L232.7407,53.6551 L242.5556,53.096 L252.3704,53.6245 L262.1852,53.7523 L272,53.332 " fill="#FEFECE" style="stroke: #A80036; stroke-width: 1.5;"/><path d="M7,61.332 L7,60.599 L16.8148,61.8462 L26.6296,61.4763 L36.4444,61.1049 L46.2593,60.4846 L56.0741,61.4932 L65.8889,60.9547 L75.7037,61.26 L85.5185,61.5058 L95.3333,62.2611 L105.1481,61.7936 L114.963,60.7392 L124.7778,62.1777 L134.5926,62.0066 L144.4074,61.1116 L154.2222,61.1327 L164.037,61.6984 L173.8519,61.479 L183.6667,60.4984 L193.4815,61.0433 L203.2963,60.461 L213.1111,60.4412 L222.9259,61.777 L232.7407,61.9543 L242.5556,61.8409 L252.3704,60.4715 L262.1852,60.5538 L272,61.332 " fill="#FEFECE" style="stroke: #A80036; stroke-width: 1.5;"/><text fill="#000000" font-family="sans-serif" font-size="11" lengthAdjust="spacingAndGlyphs" textLength="234" x="12" y="75.9668">+アクセスルールグループ一覧を表示：index()</text><text fill="#000000" font-family="sans-serif" font-size="11" lengthAdjust="spacingAndGlyphs" textLength="213" x="12" y="88.9219">+アクセスルールグループ新規追加：add()</text><text fill="#000000" font-family="sans-serif" font-size="11" lengthAdjust="spacingAndGlyphs" textLength="191" x="12" y="101.877">+アクセスルールグループ編集：edit()</text><text fill="#000000" font-family="sans-serif" font-size="11" lengthAdjust="spacingAndGlyphs" textLength="203" x="12" y="114.832">+アクセスルールグループ削除：delete()</text><text fill="#000000" font-family="sans-serif" font-size="11" lengthAdjust="spacingAndGlyphs" textLength="130" x="12" y="127.7871">+ユーザーグループごとに</text><text fill="#000000" font-family="sans-serif" font-size="11" lengthAdjust="spacingAndGlyphs" textLength="255" x="12" y="140.7422">アクセスルール再構築：rebuild_by_user_group()</text><!--class PermissionGroupsService--><polygon fill="#FEFECE" filter="url(#f5vs2gj)" points="64.5,207.1992,64.5,207.7024,74.5,207.256,84.5,206.5889,94.5,206.6041,104.5,206.5736,114.5,207.6405,124.5,207.8698,134.5,207.4487,144.5,206.6122,154.5,207.5932,164.5,207.4612,174.5,207.1634,184.5,207.258,194.5,207.5665,204.5,206.6071,214.5,207.1992,215.1029,207.1992,215.0278,217.8168,214.1996,228.4344,213.8981,239.052,214.5537,249.6695,214.5,260.2871,214.5,260.0147,204.5,260.9832,194.5,259.9903,184.5,260.7757,174.5,260.0005,164.5,259.6981,154.5,260.1981,144.5,260.8383,134.5,260.5007,124.5,259.8294,114.5,260.5904,104.5,261.0334,94.5,261.0346,84.5,261.0281,74.5,260.511,64.5,260.2871,64.5205,260.2871,64.6225,249.6695,63.9211,239.052,64.2237,228.4344,64.6875,217.8168,64.5,207.1992" style="stroke: #A80036; stroke-width: 1.5;"/><text fill="#000000" font-family="sans-serif" font-size="12" lengthAdjust="spacingAndGlyphs" textLength="144" x="67.5" y="223.8008">PermissionGroupsService</text><path d="M65.5,231.332 L65.5,230.8313 L75.3667,231.767 L85.2333,231.757 L95.1,231.5392 L104.9667,230.6755 L114.8333,230.8958 L124.7,232.0722 L134.5667,230.4794 L144.4333,231.9352 L154.3,232.191 L164.1667,231.9479 L174.0333,231.1979 L183.9,231.3063 L193.7667,230.4687 L203.6333,231.1451 L213.5,231.332 " fill="#FEFECE" style="stroke: #A80036; stroke-width: 1.5;"/><text fill="#000000" font-family="sans-serif" font-size="11" lengthAdjust="spacingAndGlyphs" textLength="137" x="70.5" y="245.9668">+PermissionGroupsTable</text><path d="M65.5,252.2871 L65.5,252.3876 L75.3667,252.1689 L85.2333,253.1163 L95.1,251.5023 L104.9667,251.5472 L114.8333,251.3433 L124.7,253.0475 L134.5667,252.5809 L144.4333,252.2336 L154.3,252.1127 L164.1667,252.9342 L174.0333,252.5939 L183.9,252.8778 L193.7667,252.3374 L203.6333,252.8118 L213.5,252.2871 " fill="#FEFECE" style="stroke: #A80036; stroke-width: 1.5;"/><polygon fill="#FBFB77" filter="url(#f5vs2gj)" points="12,320.1992,12.2105,320.1992,12.1454,325.2613,11.7919,330.3234,12.1745,335.3855,11.9863,340.4477,12,345.5098,12,345.8861,21.8077,344.7859,31.6154,345.0569,41.4231,345.0578,51.2308,345.1472,61.0385,344.8904,70.8462,345.5755,80.6538,346.0355,90.4615,345.1899,100.2692,345.9753,110.0769,345.7839,119.8846,345.5407,129.6923,345.4167,139.5,346.1562,149.3077,345.1067,159.1154,345.4027,168.9231,344.8212,178.7308,345.7608,188.5385,345.3518,198.3462,346.0621,208.1538,346.1553,217.9615,345.9607,227.7692,345.0671,237.5769,345.5788,247.3846,346.1085,257.1923,345.2728,267,345.5098,266.7688,345.5098,266.884,342.4477,266.801,339.3855,266.7671,336.3234,266.8347,333.2613,267,330.1992,267.1739,330.3731,264.8416,328.0408,262.9313,326.1305,261.063,324.2623,259.0611,322.2603,257,320.1992,257,319.9273,247.2,320.2041,237.4,319.6298,227.6,319.5809,217.8,320.3418,208,319.8629,198.2,319.6833,188.4,320.8164,178.6,320.1198,168.8,320.7666,159,320.3664,149.2,320.5998,139.4,320.6653,129.6,320.8004,119.8,320.0252,110,320.5769,100.2,319.6541,90.4,320.2129,80.6,319.6153,70.8,319.5527,61,319.472,51.2,320.5099,41.4,320.38,31.6,320.7527,21.8,319.664,12,320.1992" style="stroke: #A80036; stroke-width: 1.0;"/><polygon fill="#FBFB77" points="12,320.1992,11.951,320.1992,12.1963,325.2613,11.8583,330.3234,12.0555,335.3855,11.8316,340.4477,12,345.5098,12,345.559,21.8077,345.1529,31.6154,345.8181,41.4231,345.5438,51.2308,345.7595,61.0385,345.0533,70.8462,345.8534,80.6538,345.4596,90.4615,345.7004,100.2692,345.378,110.0769,345.8664,119.8846,345.3687,129.6923,346.0946,139.5,345.5137,149.3077,345.657,159.1154,345.3736,168.9231,345.3155,178.7308,345.0966,188.5385,345.281,198.3462,345.9641,208.1538,345.4601,217.9615,345.479,227.7692,345.5526,237.5769,345.3999,247.3846,344.8763,257.1923,345.5829,267,345.5098,267.2219,345.5098,267.1731,342.4477,266.8899,339.3855,266.9521,336.3234,266.8231,333.2613,267,330.1992,267.066,330.2652,264.9602,328.1594,263.1125,326.3118,261.1573,324.3565,259.1636,322.3628,257,320.1992,257,320.58,246.6818,319.8297,236.3636,319.8459,226.0455,320.6811,215.7273,320.8033,205.4091,319.6058,195.0909,320.7197,184.7727,320.2229,174.4545,320.0547,164.1364,320.6612,153.8182,320.2429,143.5,320.1992,143.7415,320.2154,142.562,310.2211,142.3536,300.2917,141.0042,290.286,141.4412,280.3999,139.5107,270.3553,139.5,260.4392,139.5207,260.4406,139.1712,270.4218,137.5303,280.3166,136.9215,290.2805,136.8388,300.2796,136.2106,310.2422,135.5,320.1992,135.5,320.3679,125.2083,319.8043,114.9167,319.8604,104.625,320.0241,94.3333,320.599,84.0417,320.3858,73.75,319.9311,63.4583,320.7616,53.1667,320.0524,42.875,320.6526,32.5833,319.5741,22.2917,319.5427,12,320.1992" style="stroke: #A80036; stroke-width: 1.0;"/><path d="M257,320.1992 L257.0969,320.1992 L256.7238,322.1992 L257.1672,324.1992 L257.0753,326.1992 L257.1285,328.1992 L257,330.1992 " fill="#FBFB77" style="stroke: #A80036; stroke-width: 1.0;"/><path d="M267,330.1992 L267,330.5085 L265,329.9826 L263,330.1757 L261,329.9409 L259,330.4998 L257,330.1992 " fill="#FBFB77" style="stroke: #A80036; stroke-width: 1.0;"/><text fill="#000000" font-family="sans-serif" font-size="13" lengthAdjust="spacingAndGlyphs" textLength="234" x="18" y="337.7676">以下アクセスルールグループ管理と同じ</text><path d="M139.5,147.5692 L139.145,147.5692 L138.8363,158.3972 L140.0887,169.2252 L138.9104,180.0532 L138.7028,190.8812 L139.5,201.7092 " fill="none" style="stroke: #000000; stroke-width: 1.0;"/><polygon fill="#000000" points="139.5,206.9192,139.3859,206.8685,140.2443,205.0945,141.1336,203.3341,141.7212,201.4398,142.572,199.6623,143.5,197.9192,143.5047,197.924,142.7567,198.7759,142.0449,199.6641,140.9934,200.2126,140.3565,201.1758,139.5,201.9192,139.3487,201.768,138.832,201.2512,137.9473,200.3666,137.0465,199.4657,136.1636,198.5828,135.5,197.9192,135.4258,197.8862,136.1175,199.6381,137.2696,201.5946,138.1069,203.4112,138.9184,205.2163,139.5,206.9192" style="stroke: #000000; stroke-width: 1.0;"/></g></svg>