<?xml version="1.0" encoding="UTF-8" standalone="no"?><svg xmlns="http://www.w3.org/2000/svg" xmlns:xlink="http://www.w3.org/1999/xlink" contentScriptType="application/ecmascript" contentStyleType="text/css" height="455px" preserveAspectRatio="none" style="width:246px;height:455px;" version="1.1" viewBox="0 0 246 455" width="246px" zoomAndPan="magnify"><defs><filter height="300%" id="fyc56vh" width="300%" x="-1" y="-1"><feGaussianBlur result="blurOut" stdDeviation="2.0"/><feColorMatrix in="blurOut" result="blurOut2" type="matrix" values="0 0 0 0 0 0 0 0 0 0 0 0 0 0 0 0 0 0 .4 0"/><feOffset dx="4.0" dy="4.0" in="blurOut2" result="blurOut3"/><feBlend in="SourceGraphic" in2="blurOut3" mode="normal"/></filter></defs><g><text fill="#000000" font-family="sans-serif" font-size="18" lengthAdjust="spacingAndGlyphs" textLength="207" x="24" y="17.4023">ユーザーグループ管理API</text><!--class Api\UserGroupsController--><polygon fill="#FEFECE" filter="url(#fyc56vh)" points="6,129.1992,6,128.7052,16.0435,129.2368,26.087,129.0704,36.1304,129.87,46.1739,129.8494,56.2174,129.5271,66.2609,129.2719,76.3043,129.1686,86.3478,128.639,96.3913,129.7746,106.4348,128.5948,116.4783,128.5244,126.5217,128.7181,136.5652,129.3573,146.6087,128.9237,156.6522,128.4876,166.6957,128.7534,176.7391,129.612,186.7826,128.5543,196.8261,129.5862,206.8696,128.6735,216.913,129.6312,226.9565,129.4219,237,129.1992,236.316,129.1992,237.3223,139.2622,236.9163,149.3251,236.8327,159.3881,237.2656,169.451,236.9415,179.514,237.1819,189.5769,237.2072,199.6399,236.879,209.7028,237.5758,219.7658,237.163,229.8287,237.6848,239.8917,236.3006,249.9546,237,260.0176,237,259.7991,226.9565,260.0885,216.913,259.6601,206.8696,260.0844,196.8261,259.3338,186.7826,260.2815,176.7391,260.6575,166.6957,260.2376,156.6522,259.4061,146.6087,259.3788,136.5652,260.1376,126.5217,259.491,116.4783,259.8487,106.4348,259.7018,96.3913,260.158,86.3478,260.0545,76.3043,259.9018,66.2609,260.2606,56.2174,260.6688,46.1739,259.3393,36.1304,260.3739,26.087,259.7096,16.0435,259.5949,6,260.0176,6.1762,260.0176,5.9665,249.9546,5.9694,239.8917,5.9142,229.8287,5.5718,219.7658,6.1554,209.7028,6.6976,199.6399,6.695,189.5769,6.7474,179.514,5.5936,169.451,6.37,159.3881,6.541,149.3251,5.7433,139.2622,6,129.1992" style="stroke: #A80036; stroke-width: 1.5;"/><text fill="#000000" font-family="sans-serif" font-size="12" lengthAdjust="spacingAndGlyphs" textLength="149" x="47" y="145.8008">Api\UserGroupsController</text><path d="M7,153.332 L7,153.3459 L16.9565,152.4868 L26.913,154.0858 L36.8696,153.3375 L46.8261,153.0786 L56.7826,152.587 L66.7391,153.5446 L76.6957,153.7373 L86.6522,152.9876 L96.6087,152.6852 L106.5652,153.54 L116.5217,153.5412 L126.4783,152.8609 L136.4348,153.1109 L146.3913,153.3675 L156.3478,152.8034 L166.3043,152.6685 L176.2609,152.5718 L186.2174,152.8587 L196.1739,152.4377 L206.1304,152.8687 L216.087,152.9167 L226.0435,153.6213 L236,153.332 " fill="#FEFECE" style="stroke: #A80036; stroke-width: 1.5;"/><path d="M7,161.332 L7,161.9412 L16.9565,162.2864 L26.913,161.8118 L36.8696,161.6719 L46.8261,161.4314 L56.7826,161.6468 L66.7391,161.1778 L76.6957,160.6041 L86.6522,160.8045 L96.6087,162.1993 L106.5652,160.7649 L116.5217,162.0109 L126.4783,161.3226 L136.4348,162.1695 L146.3913,161.2105 L156.3478,160.3943 L166.3043,161.8687 L176.2609,161.0005 L186.2174,161.3274 L196.1739,161.2438 L206.1304,161.4871 L216.087,160.5231 L226.0435,162.2133 L236,161.332 " fill="#FEFECE" style="stroke: #A80036; stroke-width: 1.5;"/><text fill="#000000" font-family="sans-serif" font-size="11" lengthAdjust="spacingAndGlyphs" textLength="190" x="12" y="175.9668">+ユーザーグループ一覧取得：index()</text><text fill="#000000" font-family="sans-serif" font-size="11" lengthAdjust="spacingAndGlyphs" textLength="183" x="12" y="188.9219">+単一ユーザーグループ取得：view()</text><text fill="#000000" font-family="sans-serif" font-size="11" lengthAdjust="spacingAndGlyphs" textLength="180" x="12" y="201.877">+ユーザーグループ新規追加：add()</text><text fill="#000000" font-family="sans-serif" font-size="11" lengthAdjust="spacingAndGlyphs" textLength="158" x="12" y="214.832">+ユーザーグループ編集：edit()</text><text fill="#000000" font-family="sans-serif" font-size="11" lengthAdjust="spacingAndGlyphs" textLength="170" x="12" y="227.7871">+ユーザーグループ削除：delete()</text><text fill="#000000" font-family="sans-serif" font-size="11" lengthAdjust="spacingAndGlyphs" textLength="198" x="12" y="240.7422">+ユーザーグループリストを取得：list()</text><text fill="#000000" font-family="sans-serif" font-size="11" lengthAdjust="spacingAndGlyphs" textLength="219" x="12" y="253.6973">+ユーザーグループリストをコピー：copy()</text><!--class UserGroupsService--><polygon fill="#FEFECE" filter="url(#fyc56vh)" points="64.5,320.1992,64.5,320.2188,74.8636,320.4242,85.2273,320.1713,95.5909,320.7384,105.9545,320.556,116.3182,320.5497,126.6818,320.2489,137.0455,320.839,147.4091,320.8491,157.7727,319.875,168.1364,320.6757,178.5,320.1992,178.4715,320.1992,178.693,328.2258,178.6306,336.2523,178.3254,344.2789,178.5303,352.3055,178.5,360.332,178.5,360.5801,168.1364,359.6759,157.7727,360.0366,147.4091,360.1237,137.0455,359.6507,126.6818,360.4901,116.3182,359.7486,105.9545,360.6382,95.5909,360.4782,85.2273,360.7854,74.8636,360.7532,64.5,360.332,64.6065,360.332,64.4841,352.3055,64.3008,344.2789,64.503,336.2523,64.4668,328.2258,64.5,320.1992" style="stroke: #A80036; stroke-width: 1.5;"/><text fill="#000000" font-family="sans-serif" font-size="12" lengthAdjust="spacingAndGlyphs" textLength="108" x="67.5" y="336.8008">UserGroupsService</text><path d="M65.5,344.332 L65.5,344.9734 L75.6818,344.1803 L85.8636,344.9878 L96.0455,344.5234 L106.2273,343.9406 L116.4091,344.7273 L126.5909,344.1997 L136.7727,344.3481 L146.9545,344.9792 L157.1364,343.9089 L167.3182,344.006 L177.5,344.332 " fill="#FEFECE" style="stroke: #A80036; stroke-width: 1.5;"/><path d="M65.5,352.332 L65.5,353.2421 L75.6818,351.7584 L85.8636,352.2043 L96.0455,352.5012 L106.2273,352.33 L116.4091,351.8319 L126.5909,351.9944 L136.7727,352.9814 L146.9545,353.0581 L157.1364,352.7761 L167.3182,351.7763 L177.5,352.332 " fill="#FEFECE" style="stroke: #A80036; stroke-width: 1.5;"/><!--class BcApiController--><polygon fill="#FEFECE" filter="url(#fyc56vh)" points="74.5,29.1992,74.5,28.7607,84.9444,28.5258,95.3889,28.4933,105.8333,29.8104,116.2778,28.769,126.7222,29.2938,137.1667,28.4754,147.6111,28.6811,158.0556,28.5721,168.5,29.1992,168.4925,29.1992,168.4695,37.2258,168.7462,45.2523,168.5405,53.2789,168.4365,61.3055,168.5,69.332,168.5,69.488,158.0556,69.2547,147.6111,69.87,137.1667,69.6464,126.7222,69.1893,116.2778,68.7982,105.8333,68.7764,95.3889,69.0095,84.9444,68.6013,74.5,69.332,74.3623,69.332,74.6999,61.3055,74.3285,53.2789,74.3004,45.2523,74.4388,37.2258,74.5,29.1992" style="stroke: #A80036; stroke-width: 1.5;"/><text fill="#000000" font-family="sans-serif" font-size="12" lengthAdjust="spacingAndGlyphs" textLength="88" x="77.5" y="45.8008">BcApiController</text><path d="M75.5,53.332 L75.5,53.0517 L85.7222,54.0356 L95.9444,53.3215 L106.1667,52.7239 L116.3889,53.294 L126.6111,52.7445 L136.8333,53.6443 L147.0556,54.0452 L157.2778,52.7477 L167.5,53.332 " fill="#FEFECE" style="stroke: #A80036; stroke-width: 1.5;"/><path d="M75.5,61.332 L75.5,61.735 L85.7222,61.091 L95.9444,60.3826 L106.1667,62.2968 L116.3889,60.9521 L126.6111,61.3847 L136.8333,60.4329 L147.0556,61.5978 L157.2778,61.8671 L167.5,61.332 " fill="#FEFECE" style="stroke: #A80036; stroke-width: 1.5;"/><polygon fill="#FBFB77" filter="url(#fyc56vh)" points="13.5,420.1992,13.5186,420.1992,13.6922,425.2613,13.4683,430.3234,13.6445,435.3855,13.6699,440.4477,13.5,445.5098,13.5,445.9049,23.3182,446.1183,33.1364,444.8739,42.9545,444.9459,52.7727,445.4939,62.5909,445.593,72.4091,444.7732,82.2273,445.9238,92.0455,445.0368,101.8636,445.6483,111.6818,445.7788,121.5,445.5783,131.3182,445.7237,141.1364,444.9215,150.9545,445.3688,160.7727,445.9389,170.5909,446.0559,180.4091,446.2293,190.2273,444.8735,200.0455,445.2446,209.8636,444.8416,219.6818,445.1604,229.5,445.5098,229.5368,445.5098,229.3558,442.4477,229.3822,439.3855,229.4696,436.3234,229.3529,433.2613,229.5,430.1992,229.4271,430.1263,227.6686,428.3679,225.43,426.1293,223.4565,424.1558,221.5401,422.2393,219.5,420.1992,219.5,419.8892,209.6905,420.9113,199.881,420.7442,190.0714,419.946,180.2619,420.8327,170.4524,420.5458,160.6429,420.6651,150.8333,420.7488,141.0238,420.9,131.2143,420.8734,121.4048,419.6209,111.5952,420.2256,101.7857,420.1946,91.9762,420.663,82.1667,419.5398,72.3571,420.6954,62.5476,419.6124,52.7381,420.5607,42.9286,419.5392,33.119,420.1286,23.3095,419.639,13.5,420.1992" style="stroke: #A80036; stroke-width: 1.0;"/><polygon fill="#FBFB77" points="13.5,420.1992,13.7365,420.1992,13.7454,425.2613,13.3283,430.3234,13.6158,435.3855,13.6583,440.4477,13.5,445.5098,13.5,444.8113,23.3182,444.9593,33.1364,445.06,42.9545,445.6751,52.7727,444.7838,62.5909,445.558,72.4091,445.5287,82.2273,445.4778,92.0455,444.8798,101.8636,445.6322,111.6818,446.125,121.5,445.177,131.3182,444.8705,141.1364,445.4083,150.9545,445.5207,160.7727,445.1693,170.5909,445.1899,180.4091,445.0132,190.2273,445.9841,200.0455,445.1197,209.8636,445.0081,219.6818,445.0281,229.5,445.5098,229.2532,445.5098,229.6547,442.4477,229.418,439.3855,229.4006,436.3234,229.705,433.2613,229.5,430.1992,229.6562,430.3555,227.5627,428.2619,225.6299,426.3292,223.3904,424.0896,221.4955,422.1948,219.5,420.1992,219.5,419.9586,209.0556,420.8204,198.6111,420.5117,188.1667,420.6501,177.7222,420.12,167.2778,420.159,156.8333,420.9184,146.3889,420.0127,135.9444,420.6713,125.5,420.1992,126.1791,420.2446,125.0598,410.246,124.0511,400.2548,123.1906,390.2735,122.3706,380.2949,121.7761,370.3314,121.5,360.3892,121.111,360.3632,120.6557,370.3457,120.5852,380.3539,120.0003,390.3277,118.2771,400.2254,118.118,410.2276,117.5,420.1992,117.5,420.68,107.1,419.7967,96.7,420.1493,86.3,420.2374,75.9,419.7067,65.5,420.7235,55.1,420.0452,44.7,419.8244,34.3,420.5829,23.9,420.9174,13.5,420.1992" style="stroke: #A80036; stroke-width: 1.0;"/><path d="M219.5,420.1992 L219.4172,420.1992 L219.511,422.1992 L219.4175,424.1992 L219.3437,426.1992 L219.5749,428.1992 L219.5,430.1992 " fill="#FBFB77" style="stroke: #A80036; stroke-width: 1.0;"/><path d="M229.5,430.1992 L229.5,430.2987 L227.5,430.4545 L225.5,430.4849 L223.5,429.9812 L221.5,430.0778 L219.5,430.1992 " fill="#FBFB77" style="stroke: #A80036; stroke-width: 1.0;"/><text fill="#000000" font-family="sans-serif" font-size="13" lengthAdjust="spacingAndGlyphs" textLength="195" x="19.5" y="437.7676">以下ユーザーグループ管理と同じ</text><path d="M121.5,260.3092 L121.2492,260.3092 L120.5435,271.1972 L120.9356,282.0852 L122.342,292.9732 L121.402,303.8612 L121.5,314.7492 " fill="none" style="stroke: #000000; stroke-width: 1.0;"/><polygon fill="#000000" points="121.5,320.0492,121.3098,319.9647,122.3154,318.2561,122.9094,316.3645,123.8114,314.6098,124.8211,312.9031,125.5,311.0492,125.3818,310.9311,124.6557,311.8049,123.9781,312.7273,123.0969,313.4461,122.3237,314.2729,121.5,315.0492,121.5255,315.0747,120.7819,314.3311,120.0437,313.5929,119.0193,312.5685,118.3629,311.9122,117.5,311.0492,117.7057,311.1406,118.4131,312.8995,119.1705,314.6806,119.9402,316.4671,120.549,318.1821,121.5,320.0492" style="stroke: #000000; stroke-width: 1.0;"/><path d="M121.5,89.6592 L121.7827,89.6592 L121.7327,97.5312 L121.5842,105.4032 L121.1841,113.2752 L121.7794,121.1472 L121.5,129.0192 " fill="none" style="stroke: #000000; stroke-width: 1.0;"/><polygon fill="none" points="114.5,89.2592,114.4581,89.2445,115.7863,85.2194,117.1054,81.1911,118.5543,77.2082,120.2155,73.2996,121.5,69.2592,121.3078,69.1919,123.0423,73.309,124.0804,77.1823,125.8248,81.3029,127.2274,85.3038,128.5,89.2592,128.5,89.1525,125.7,89.1874,122.9,89.3324,120.1,89.32,117.3,89.4813,114.5,89.2592" style="stroke: #000000; stroke-width: 1.0;"/></g></svg>