<?xml version="1.0" encoding="UTF-8" standalone="no"?><svg xmlns="http://www.w3.org/2000/svg" xmlns:xlink="http://www.w3.org/1999/xlink" contentScriptType="application/ecmascript" contentStyleType="text/css" height="807px" preserveAspectRatio="none" style="width:1017px;height:807px;" version="1.1" viewBox="0 0 1017 807" width="1017px" zoomAndPan="magnify"><defs><filter height="300%" id="fnivjd2" width="300%" x="-1" y="-1"><feGaussianBlur result="blurOut" stdDeviation="2.0"/><feColorMatrix in="blurOut" result="blurOut2" type="matrix" values="0 0 0 0 0 0 0 0 0 0 0 0 0 0 0 0 0 0 .4 0"/><feOffset dx="4.0" dy="4.0" in="blurOut2" result="blurOut3"/><feBlend in="SourceGraphic" in2="blurOut3" mode="normal"/></filter></defs><g><text fill="#000000" font-family="sans-serif" font-size="18" lengthAdjust="spacingAndGlyphs" textLength="126" x="450" y="17.4023">プラグイン管理</text><!--class Admin\PluginsController--><polygon fill="#FEFECE" filter="url(#fnivjd2)" points="343,29.1992,343,29.3762,353.0769,29.8238,363.1538,28.4686,373.2308,28.815,383.3077,29.6621,393.3846,29.4493,403.4615,29.603,413.5385,28.7302,423.6154,28.9335,433.6923,28.5953,443.7692,29.6613,453.8462,29.3119,463.9231,29.868,474,29.3638,484.0769,28.6324,494.1538,29.6469,504.2308,29.1696,514.3077,28.7518,524.3846,29.0705,534.4615,28.4725,544.5385,28.8245,554.6154,28.5507,564.6923,29.1318,574.7692,29.9351,584.8462,29.034,594.9231,28.7493,605,29.1992,604.2855,29.1992,604.2953,38.9948,604.6387,48.7903,604.9623,58.5858,604.2906,68.3813,604.3434,78.1769,605.073,87.9724,604.9687,97.7679,604.8725,107.5635,604.7777,117.359,604.5565,127.1545,604.5636,136.9501,604.801,146.7456,604.8363,156.5411,604.5612,166.3367,605.3469,176.1322,605,185.9277,605,186.5856,594.9231,185.3768,584.8462,185.9327,574.7692,186.6131,564.6923,186.5167,554.6154,186.6381,544.5385,186.6244,534.4615,186.4233,524.3846,186.4612,514.3077,186.2354,504.2308,185.503,494.1538,185.8958,484.0769,185.4037,474,185.2988,463.9231,185.84,453.8462,185.4886,443.7692,186.3198,433.6923,186.1477,423.6154,186.5143,413.5385,186.1668,403.4615,186.3678,393.3846,185.3224,383.3077,186.428,373.2308,186.655,363.1538,186.0377,353.0769,186.0809,343,185.9277,343.6758,185.9277,342.9719,176.1322,342.4556,166.3367,342.8065,156.5411,343.5632,146.7456,343.5792,136.9501,342.7208,127.1545,342.3396,117.359,343.0934,107.5635,342.7104,97.7679,343.6205,87.9724,343.2377,78.1769,343.0293,68.3813,343.2627,58.5858,343.2537,48.7903,342.297,38.9948,343,29.1992" style="stroke: #A80036; stroke-width: 1.5;"/><text fill="#000000" font-family="sans-serif" font-size="12" lengthAdjust="spacingAndGlyphs" textLength="139" x="404.5" y="45.8008">Admin\PluginsController</text><path d="M344,53.332 L344,53.606 L354,53.5467 L364,53.4702 L374,53.2608 L384,53.0624 L394,53.621 L404,52.4394 L414,53.0044 L424,53.1042 L434,52.3784 L444,52.7607 L454,53.0868 L464,53.6033 L474,53.151 L484,53.6549 L494,54.2051 L504,53.5383 L514,53.1227 L524,52.5007 L534,52.7506 L544,52.8182 L554,52.3756 L564,53.8003 L574,53.3831 L584,53.5048 L594,52.6353 L604,53.332 " fill="#FEFECE" style="stroke: #A80036; stroke-width: 1.5;"/><path d="M344,61.332 L344,60.5531 L354,61.367 L364,60.804 L374,60.6587 L384,60.3851 L394,60.9628 L404,61.0751 L414,60.7047 L424,62.2563 L434,62.0006 L444,61.6753 L454,62.1983 L464,60.7325 L474,61.7845 L484,61.7159 L494,60.571 L504,61.6556 L514,61.686 L524,61.7443 L534,61.308 L544,61.583 L554,61.1794 L564,62.0018 L574,61.476 L584,61.595 L594,60.6585 L604,61.332 " fill="#FEFECE" style="stroke: #A80036; stroke-width: 1.5;"/><text fill="#000000" font-family="sans-serif" font-size="11" lengthAdjust="spacingAndGlyphs" textLength="168" x="349" y="75.9668">+プラグイン一覧を表示：index()</text><text fill="#000000" font-family="sans-serif" font-size="11" lengthAdjust="spacingAndGlyphs" textLength="235" x="349" y="88.9219">+新しいプラグインをアップロードする：add()</text><text fill="#000000" font-family="sans-serif" font-size="11" lengthAdjust="spacingAndGlyphs" textLength="214" x="349" y="101.877">+プラグインをインストールする：install()</text><text fill="#000000" font-family="sans-serif" font-size="11" lengthAdjust="spacingAndGlyphs" textLength="185" x="349" y="114.832">+プラグインを無効化する：detach()</text><text fill="#000000" font-family="sans-serif" font-size="11" lengthAdjust="spacingAndGlyphs" textLength="218" x="349" y="127.7871">+データベースをリセットする：reset_db()</text><text fill="#000000" font-family="sans-serif" font-size="11" lengthAdjust="spacingAndGlyphs" textLength="250" x="349" y="140.7422">+プラグインをアンインストールする：uninstall()</text><text fill="#000000" font-family="sans-serif" font-size="11" lengthAdjust="spacingAndGlyphs" textLength="201" x="349" y="153.6973">+プラグインを一括無効化する：batch()</text><text fill="#000000" font-family="sans-serif" font-size="11" lengthAdjust="spacingAndGlyphs" textLength="247" x="349" y="166.6523">+優先順位の並び替えを更新する：update_sort()</text><text fill="#000000" font-family="sans-serif" font-size="11" lengthAdjust="spacingAndGlyphs" textLength="219" x="349" y="179.6074">+プラグインをアップデートする：update()</text><!--class BcAdminPluginHelper--><polygon fill="#FEFECE" filter="url(#fnivjd2)" points="554,324.1992,554,324.118,564.0889,324.2732,574.1778,324.682,584.2667,324.8073,594.3556,323.9154,604.4444,324.7159,614.5333,324.609,624.6222,324.6578,634.7111,324.728,644.8,324.2556,654.8889,324.2266,664.9778,324.3267,675.0667,323.4568,685.1556,323.652,695.2444,324.8608,705.3333,324.6649,715.4222,324.5668,725.5111,324.7178,735.6,323.5437,745.6889,323.5593,755.7778,323.7921,765.8667,323.7264,775.9556,324.8126,786.0444,324.8789,796.1333,324.4867,806.2222,324.2204,816.3111,324.4449,826.4,323.6079,836.4889,324.7037,846.5778,324.9254,856.6667,324.4853,866.7556,324.7345,876.8444,323.9503,886.9333,323.9265,897.0222,324.4822,907.1111,323.9209,917.2,323.9461,927.2889,324.8468,937.3778,324.6747,947.4667,323.8198,957.5556,324.1064,967.6444,323.4947,977.7333,323.461,987.8222,324.6432,997.9111,324.3824,1008,324.1992,1008.1178,324.1992,1008.6373,334.8168,1008.0091,345.4344,1008.3196,356.052,1007.802,366.6695,1008,377.2871,1008,376.6986,997.9111,376.7957,987.8222,377.8153,977.7333,377.8051,967.6444,377.6859,957.5556,377.4412,947.4667,376.825,937.3778,377.8726,927.2889,377.2216,917.2,377.4298,907.1111,377.2381,897.0222,377.0624,886.9333,377.2682,876.8444,376.8689,866.7556,377.6134,856.6667,377.8175,846.5778,377.0658,836.4889,377.8749,826.4,377.2013,816.3111,376.8871,806.2222,377.7268,796.1333,377.5305,786.0444,377.7748,775.9556,377.7202,765.8667,376.8919,755.7778,377.7431,745.6889,377.0372,735.6,377.4592,725.5111,377.0448,715.4222,377.8008,705.3333,376.6371,695.2444,377.0042,685.1556,376.831,675.0667,376.5602,664.9778,377.3902,654.8889,377.396,644.8,377.2351,634.7111,377.2341,624.6222,377.3884,614.5333,377.1781,604.4444,376.7533,594.3556,377.1689,584.2667,376.775,574.1778,376.9542,564.0889,376.7367,554,377.2871,553.5268,377.2871,553.7917,366.6695,553.7658,356.052,554.6065,345.4344,554.5028,334.8168,554,324.1992" style="stroke: #A80036; stroke-width: 1.5;"/><text fill="#000000" font-family="sans-serif" font-size="12" lengthAdjust="spacingAndGlyphs" textLength="123" x="719.5" y="340.8008">BcAdminPluginHelper</text><path d="M555,348.332 L555,348.7893 L565.0444,348.6802 L575.0889,348.6318 L585.1333,348.0251 L595.1778,348.9155 L605.2222,348.4316 L615.2667,347.6873 L625.3111,347.5044 L635.3556,348.4365 L645.4,349.0009 L655.4444,348.454 L665.4889,348.562 L675.5333,347.3933 L685.5778,348.683 L695.6222,347.587 L705.6667,347.7346 L715.7111,349.3289 L725.7556,349.112 L735.8,348.9291 L745.8444,348.4775 L755.8889,348.3267 L765.9333,348.1207 L775.9778,347.45 L786.0222,347.5856 L796.0667,348.4576 L806.1111,347.6488 L816.1556,349.2298 L826.2,347.558 L836.2444,348.7913 L846.2889,348.0872 L856.3333,348.1829 L866.3778,347.7008 L876.4222,348.1304 L886.4667,349.0615 L896.5111,347.8176 L906.5556,347.7278 L916.6,349.3209 L926.6444,347.4613 L936.6889,347.6144 L946.7333,347.7579 L956.7778,347.3739 L966.8222,348.5103 L976.8667,348.5797 L986.9111,347.9484 L996.9556,348.699 L1007,348.332 " fill="#FEFECE" style="stroke: #A80036; stroke-width: 1.5;"/><path d="M555,356.332 L555,356.8519 L565.0444,357.1958 L575.0889,355.5214 L585.1333,356.5104 L595.1778,355.9887 L605.2222,355.3335 L615.2667,356.6487 L625.3111,355.9045 L635.3556,355.9687 L645.4,355.7373 L655.4444,355.5623 L665.4889,357.244 L675.5333,356.9483 L685.5778,356.4095 L695.6222,355.3337 L705.6667,356.2977 L715.7111,356.1944 L725.7556,356.6405 L735.8,356.0439 L745.8444,356.0934 L755.8889,356.198 L765.9333,356.5238 L775.9778,356.5212 L786.0222,356.6337 L796.0667,355.8795 L806.1111,356.5883 L816.1556,355.4708 L826.2,356.5064 L836.2444,355.3515 L846.2889,356.6506 L856.3333,356.6547 L866.3778,356.9874 L876.4222,355.386 L886.4667,357.1533 L896.5111,356.8022 L906.5556,356.4928 L916.6,355.5968 L926.6444,356.1066 L936.6889,356.1397 L946.7333,357.1773 L956.7778,356.4007 L966.8222,356.2851 L976.8667,355.8248 L986.9111,356.1101 L996.9556,357.0606 L1007,356.332 " fill="#FEFECE" style="stroke: #A80036; stroke-width: 1.5;"/><text fill="#000000" font-family="sans-serif" font-size="11" lengthAdjust="spacingAndGlyphs" textLength="442" x="560" y="370.9668">+プラグインインストールについてのメッセージを取得する：getInstallStatusMessage()</text><!--class PluginService--><polygon fill="#FEFECE" filter="url(#fnivjd2)" points="429.5,324.1992,429.5,324.3682,439.3889,324.0659,449.2778,324.5304,459.1667,323.6081,469.0556,324.0542,478.9444,324.0901,488.8333,324.4307,498.7222,323.6059,508.6111,324.8174,518.5,324.1992,517.7853,324.1992,519.2084,334.8168,518.0972,345.4344,519.1529,356.052,518.991,366.6695,518.5,377.2871,518.5,377.6328,508.6111,377.6997,498.7222,376.6846,488.8333,378.0126,478.9444,377.4516,469.0556,377.6079,459.1667,377.1808,449.2778,377.2815,439.3889,377.6126,429.5,377.2871,429.8248,377.2871,429.8586,366.6695,429.4177,356.052,430.0795,345.4344,429.4773,334.8168,429.5,324.1992" style="stroke: #A80036; stroke-width: 1.5;"/><text fill="#000000" font-family="sans-serif" font-size="12" lengthAdjust="spacingAndGlyphs" textLength="74" x="437" y="340.8008">PluginService</text><path d="M430.5,348.332 L430.5,348.6546 L440.1667,347.7007 L449.8333,348.51 L459.5,349.1865 L469.1667,348.4517 L478.8333,347.6637 L488.5,349.2895 L498.1667,347.563 L507.8333,348.7849 L517.5,348.332 " fill="#FEFECE" style="stroke: #A80036; stroke-width: 1.5;"/><text fill="#000000" font-family="sans-serif" font-size="11" lengthAdjust="spacingAndGlyphs" textLength="77" x="435.5" y="362.9668">+PluginsTable</text><path d="M430.5,369.2871 L430.5,368.6284 L440.1667,368.9767 L449.8333,369.355 L459.5,368.9556 L469.1667,369.2031 L478.8333,368.9794 L488.5,369.8493 L498.1667,369.3057 L507.8333,369.6206 L517.5,369.2871 " fill="#FEFECE" style="stroke: #A80036; stroke-width: 1.5;"/><!--class PluginServiceInterface--><polygon fill="#FEFECE" filter="url(#fnivjd2)" points="6,246.1992,6,246.7066,15.9487,246.395,25.8974,246.3779,35.8462,245.7793,45.7949,246.784,55.7436,245.7415,65.6923,246.1374,75.641,246.192,85.5897,246.5194,95.5385,246.7559,105.4872,246.1067,115.4359,245.6362,125.3846,246.5079,135.3333,246.6043,145.2821,245.6682,155.2308,246.1887,165.1795,246.3649,175.1282,246.1309,185.0769,246.6072,195.0256,246.6291,204.9744,246.908,214.9231,245.4838,224.8718,246.7025,234.8205,246.7058,244.7692,246.2887,254.7179,246.7786,264.6667,246.1326,274.6154,246.1773,284.5641,245.8528,294.5128,246.9183,304.4615,245.5266,314.4103,245.8204,324.359,245.798,334.3077,246.434,344.2564,246.7173,354.2051,246.5988,364.1538,245.994,374.1026,245.5902,384.0513,246.7524,394,246.1992,394.3773,246.1992,393.9509,256.1301,394.3274,266.061,393.7818,275.9919,394.7416,285.9228,393.649,295.8537,394.6707,305.7846,393.8617,315.7155,393.9751,325.6464,393.6053,335.5773,393.8558,345.5082,394.3249,355.4391,394.2772,365.37,393.3903,375.3009,394.343,385.2318,394.4013,395.1627,394.29,405.0936,394.7163,415.0245,393.501,424.9554,394.1209,434.8863,393.5283,444.8172,394,454.748,394,454.0413,384.0513,454.4055,374.1026,454.557,364.1538,455.3944,354.2051,455.4171,344.2564,454.4288,334.3077,455.1894,324.359,454.0504,314.4103,454.641,304.4615,454.2182,294.5128,454.7003,284.5641,454.1428,274.6154,454.0329,264.6667,454.6252,254.7179,454.7181,244.7692,454.1014,234.8205,455.2973,224.8718,454.1187,214.9231,454.3605,204.9744,455.2137,195.0256,454.1959,185.0769,454.9398,175.1282,455.1384,165.1795,454.1516,155.2308,454.9785,145.2821,455.0581,135.3333,455.2007,125.3846,454.4479,115.4359,454.2794,105.4872,454.4564,95.5385,455.1018,85.5897,455.1354,75.641,454.2045,65.6923,454.6224,55.7436,455.4926,45.7949,455.1258,35.8462,454.3713,25.8974,454.1159,15.9487,454.1102,6,454.748,6.4045,454.748,6.4649,444.8172,6.4696,434.8863,6.4471,424.9554,6.4982,415.0245,5.6804,405.0936,6.1871,395.1627,5.7234,385.2318,6.492,375.3009,5.2904,365.37,5.3118,355.4391,6.3588,345.5082,6.4786,335.5773,6.3615,325.6464,5.2742,315.7155,6.3624,305.7846,6.4529,295.8537,6.571,285.9228,6.7393,275.9919,6.1897,266.061,6.0772,256.1301,6,246.1992" style="stroke: #A80036; stroke-width: 1.5;"/><text fill="#000000" font-family="sans-serif" font-size="12" lengthAdjust="spacingAndGlyphs" textLength="124" x="138" y="262.8008">PluginServiceInterface</text><path d="M7,270.332 L7,270.888 L16.8974,271.2967 L26.7949,270.1931 L36.6923,271.1352 L46.5897,270.3607 L56.4872,269.6512 L66.3846,270.3619 L76.2821,269.6118 L86.1795,271.1808 L96.0769,269.7876 L105.9744,271.0045 L115.8718,269.5561 L125.7692,271.1825 L135.6667,270.6099 L145.5641,270.6785 L155.4615,269.6134 L165.359,270.3099 L175.2564,270.7166 L185.1538,269.3454 L195.0513,271.2715 L204.9487,269.4289 L214.8462,270.4468 L224.7436,269.3701 L234.641,270.615 L244.5385,271.217 L254.4359,270.112 L264.3333,269.9219 L274.2308,270.3466 L284.1282,270.6586 L294.0256,271.1757 L303.9231,269.8441 L313.8205,270.2482 L323.7179,269.6821 L333.6154,269.7591 L343.5128,269.667 L353.4103,271.2111 L363.3077,270.1662 L373.2051,270.6542 L383.1026,270.7179 L393,270.332 " fill="#FEFECE" style="stroke: #A80036; stroke-width: 1.5;"/><path d="M7,278.332 L7,278.1146 L16.8974,277.9246 L26.7949,279.014 L36.6923,278.2643 L46.5897,278.1639 L56.4872,277.347 L66.3846,278.0707 L76.2821,278.2811 L86.1795,277.819 L96.0769,278.1289 L105.9744,278.5944 L115.8718,277.7891 L125.7692,279.1591 L135.6667,277.9673 L145.5641,277.3587 L155.4615,278.7432 L165.359,277.419 L175.2564,278.23 L185.1538,277.6226 L195.0513,279.1782 L204.9487,277.5202 L214.8462,277.4243 L224.7436,278.5607 L234.641,278.7283 L244.5385,278.6917 L254.4359,277.7959 L264.3333,278.6929 L274.2308,278.7391 L284.1282,278.732 L294.0256,277.5842 L303.9231,278.6671 L313.8205,277.9762 L323.7179,279.1133 L333.6154,277.3405 L343.5128,279.2365 L353.4103,277.4092 L363.3077,278.9591 L373.2051,279.2809 L383.1026,278.9523 L393,278.332 " fill="#FEFECE" style="stroke: #A80036; stroke-width: 1.5;"/><text fill="#000000" font-family="sans-serif" font-size="11" lengthAdjust="spacingAndGlyphs" textLength="122" x="12" y="292.9668">+単一データ取得：get()</text><text fill="#000000" font-family="sans-serif" font-size="11" lengthAdjust="spacingAndGlyphs" textLength="152" x="12" y="305.9219">+一覧データ取得：getIndex()</text><text fill="#000000" font-family="sans-serif" font-size="11" lengthAdjust="spacingAndGlyphs" textLength="235" x="12" y="318.877">+新しいプラグインをアップロードする：add()</text><text fill="#000000" font-family="sans-serif" font-size="11" lengthAdjust="spacingAndGlyphs" textLength="126" x="12" y="331.832">+インストール：install()</text><text fill="#000000" font-family="sans-serif" font-size="11" lengthAdjust="spacingAndGlyphs" textLength="185" x="12" y="344.7871">+プラグインを無効にする：detach()</text><text fill="#000000" font-family="sans-serif" font-size="11" lengthAdjust="spacingAndGlyphs" textLength="213" x="12" y="357.7422">+データベースをリセットする：resetDb()</text><text fill="#000000" font-family="sans-serif" font-size="11" lengthAdjust="spacingAndGlyphs" textLength="162" x="12" y="370.6973">+アンインストール：uninstall()</text><text fill="#000000" font-family="sans-serif" font-size="11" lengthAdjust="spacingAndGlyphs" textLength="194" x="12" y="383.6523">+優先度を変更する：changePriority()</text><text fill="#000000" font-family="sans-serif" font-size="11" lengthAdjust="spacingAndGlyphs" textLength="219" x="12" y="396.6074">+プラグインをアップデートする：update()</text><text fill="#000000" font-family="sans-serif" font-size="11" lengthAdjust="spacingAndGlyphs" textLength="348" x="12" y="409.5625">+baserマーケットのプラグイン一覧を取得する：getMarketPlugins()</text><text fill="#000000" font-family="sans-serif" font-size="11" lengthAdjust="spacingAndGlyphs" textLength="297" x="12" y="422.5176">+ユーザーグループにアクセス許可設定を追加する：allow()</text><text fill="#000000" font-family="sans-serif" font-size="11" lengthAdjust="spacingAndGlyphs" textLength="329" x="12" y="435.4727">+プラグイン名からプラグインエンティティを取得：getByName()</text><text fill="#000000" font-family="sans-serif" font-size="11" lengthAdjust="spacingAndGlyphs" textLength="376" x="12" y="448.4277">+インストールに関するメッセージを取得する：getInstallStatusMessage()</text><!--class BcPlugin--><polygon fill="#FEFECE" filter="url(#fnivjd2)" points="177.5,521.6992,177.5,521.2349,187.3276,521.4147,197.1552,521.3801,206.9828,522.1698,216.8103,522.1828,226.6379,521.0286,236.4655,521.4983,246.2931,522.4487,256.1207,521.1876,265.9483,520.9811,275.7759,522.3878,285.6034,521.9188,295.431,522.1808,305.2586,521.744,315.0862,521.6619,324.9138,521.2709,334.7414,521.5048,344.569,522.1657,354.3966,521.8005,364.2241,522.1651,374.0517,521.0403,383.8793,521.1636,393.7069,521.5135,403.5345,521.6068,413.3621,522.1877,423.1897,521.0729,433.0172,521.7453,442.8448,521.3872,452.6724,521.7182,462.5,521.6992,462.5459,521.6992,461.823,531.9162,462.4109,542.1332,462.0644,552.3503,461.9279,562.5673,462.7154,572.7843,462.396,583.0013,462.0217,593.2183,462.8877,603.4353,462.5,613.6523,462.5,613.9185,452.6724,613.822,442.8448,613.5833,433.0172,613.1246,423.1897,612.9896,413.3621,613.4566,403.5345,613.5758,393.7069,613.7494,383.8793,614.0907,374.0517,614.218,364.2241,613.3036,354.3966,613.5237,344.569,613.8853,334.7414,613.8163,324.9138,613.3323,315.0862,614.009,305.2586,613.7114,295.431,613.5325,285.6034,613.8216,275.7759,613.1918,265.9483,613.6181,256.1207,614.1109,246.2931,613.9229,236.4655,614.3298,226.6379,613.0944,216.8103,614.0655,206.9828,614.1955,197.1552,613.5959,187.3276,613.8565,177.5,613.6523,177.7953,613.6523,177.3273,603.4353,176.9463,593.2183,177.1179,583.0013,177.5094,572.7843,176.9157,562.5673,177.7568,552.3503,178.0554,542.1332,177.9446,531.9162,177.5,521.6992" style="stroke: #A80036; stroke-width: 1.5;"/><text fill="#000000" font-family="sans-serif" font-size="12" lengthAdjust="spacingAndGlyphs" textLength="47" x="296.5" y="538.3008">BcPlugin</text><path d="M178.5,545.832 L178.5,546.5427 L188.6071,545.1754 L198.7143,546.794 L208.8214,545.8424 L218.9286,546.5887 L229.0357,546.4421 L239.1429,546.1569 L249.25,545.3124 L259.3571,546.7626 L269.4643,546.0163 L279.5714,545.9469 L289.6786,546.1748 L299.7857,545.1989 L309.8929,546.2353 L320,546.0129 L330.1071,546.6766 L340.2143,546.5623 L350.3214,545.7038 L360.4286,546.6429 L370.5357,545.7871 L380.6429,546.2566 L390.75,545.4558 L400.8571,545.4868 L410.9643,546.4472 L421.0714,545.0057 L431.1786,545.8394 L441.2857,546.5929 L451.3929,546.2072 L461.5,545.832 " fill="#FEFECE" style="stroke: #A80036; stroke-width: 1.5;"/><text fill="#000000" font-family="sans-serif" font-size="11" lengthAdjust="spacingAndGlyphs" textLength="66" x="183.5" y="560.4668">+Migrations</text><path d="M178.5,566.7871 L178.5,566.9311 L188.6071,566.5026 L198.7143,566.7056 L208.8214,565.9026 L218.9286,567.2881 L229.0357,567.2616 L239.1429,567.1096 L249.25,566.2609 L259.3571,567.4929 L269.4643,566.9581 L279.5714,565.8635 L289.6786,566.5003 L299.7857,566.7432 L309.8929,566.4449 L320,567.0365 L330.1071,565.8624 L340.2143,567.7517 L350.3214,566.9133 L360.4286,566.8655 L370.5357,566.9324 L380.6429,566.5268 L390.75,567.5513 L400.8571,567.2652 L410.9643,566.2269 L421.0714,566.9871 L431.1786,567.2316 L441.2857,567.0637 L451.3929,567.0762 L461.5,566.7871 " fill="#FEFECE" style="stroke: #A80036; stroke-width: 1.5;"/><text fill="#000000" font-family="sans-serif" font-size="11" lengthAdjust="spacingAndGlyphs" textLength="214" x="183.5" y="581.4219">+プラグインをインストールする：install()</text><text fill="#000000" font-family="sans-serif" font-size="11" lengthAdjust="spacingAndGlyphs" textLength="250" x="183.5" y="594.377">+プラグインをアンインストールする：uninstall()</text><text fill="#000000" font-family="sans-serif" font-size="11" lengthAdjust="spacingAndGlyphs" textLength="273" x="183.5" y="607.332">+プラグインのテーブルをリセットする：rollbackDb()</text><polygon fill="#FBFB77" filter="url(#fnivjd2)" points="169,726.6992,168.8245,726.6992,169.0982,731.7613,168.8844,736.8234,168.7854,741.8855,168.9678,746.9477,169,752.0098,169,751.3985,179.0667,752.73,189.1333,751.7501,199.2,751.7541,209.2667,751.2622,219.3333,751.7616,229.4,752.2844,239.4667,751.8884,249.5333,752.6527,259.6,752.5397,269.6667,751.5336,279.7333,751.2809,289.8,752.3319,299.8667,752.1907,309.9333,751.3738,320,751.2654,330.0667,751.5276,340.1333,751.9201,350.2,752.6974,360.2667,752.2728,370.3333,751.3265,380.4,751.6685,390.4667,751.7068,400.5333,751.9093,410.6,751.9992,420.6667,751.3519,430.7333,751.6075,440.8,751.3016,450.8667,751.2858,460.9333,752.4279,471,752.0098,471.1374,752.0098,470.9658,748.9477,470.8619,745.8855,471.0403,742.8234,471.2317,739.7613,471,736.6992,471.1223,736.8215,469.0882,734.7874,466.9573,732.6565,465.1466,730.8458,463.0177,728.7169,461,726.6992,461,726.8683,450.931,727.2817,440.8621,726.4647,430.7931,726.4462,420.7241,726.0061,410.6552,726.3875,400.5862,727.0444,390.5172,726.1683,380.4483,726.1258,370.3793,726.1512,360.3103,726.0546,350.2414,726.5318,340.1724,726.8462,330.1034,727.1567,320.0345,727.4376,309.9655,727.0428,299.8966,726.8148,289.8276,726.1372,279.7586,727.3621,269.6897,727.315,259.6207,725.974,249.5517,725.9781,239.4828,726.2105,229.4138,726.1778,219.3448,726.9397,209.2759,726.0271,199.2069,726.5586,189.1379,727.351,179.069,726.3233,169,726.6992" style="stroke: #A80036; stroke-width: 1.0;"/><polygon fill="#FBFB77" points="169,726.6992,169.1476,726.6992,168.8497,731.7613,169.1905,736.8234,169.1526,741.8855,168.9865,746.9477,169,752.0098,169,751.9324,179.0667,751.6603,189.1333,751.6137,199.2,751.5399,209.2667,752.3918,219.3333,751.7339,229.4,752.145,239.4667,751.5819,249.5333,752.6949,259.6,752.6698,269.6667,752.6901,279.7333,751.8766,289.8,752.2801,299.8667,752.6209,309.9333,751.6201,320,752.1719,330.0667,751.9377,340.1333,752.1593,350.2,752.7426,360.2667,751.4801,370.3333,752.3067,380.4,752.0589,390.4667,752.3371,400.5333,751.6064,410.6,752.4867,420.6667,752.2867,430.7333,751.929,440.8,752.3093,450.8667,751.9951,460.9333,751.8236,471,752.0098,471.0487,752.0098,470.7875,748.9477,470.9596,745.8855,471.2493,742.8234,471.1369,739.7613,471,736.6992,470.9415,736.6407,469.1381,734.8374,466.9235,732.6227,465.0592,730.7584,463.106,728.8052,461,726.6992,461,727.063,451.2143,726.0002,441.4286,727.1848,431.6429,727.1671,421.8571,726.9976,412.0714,726.4463,402.2857,727.4041,392.5,726.7011,382.7143,726.6238,372.9286,726.1745,363.1429,726.288,353.3571,727.3347,343.5714,726.519,333.7857,726.0674,324,726.6992,324.3255,726.7108,323.1141,716.4461,323.2393,706.2289,322.8547,695.9936,323.1439,685.7823,322.2894,675.5303,322.0601,665.3005,321.8221,655.0705,320.773,644.8116,320.9344,634.5957,320.4732,624.3577,320,614.1192,319.3322,614.0955,319.2945,624.3416,319.545,634.598,319.3437,644.8383,318.2247,655.046,317.8133,665.2789,317.163,675.5032,317.3004,685.7556,317.6075,696.0139,316.7842,706.2322,317.1032,716.491,316,726.6992,316,727.3848,306.2,726.0992,296.4,726.1513,286.6,727.0351,276.8,726.0835,267,726.3305,257.2,725.9811,247.4,726.7364,237.6,726.1869,227.8,727.2206,218,726.4405,208.2,727.3667,198.4,727.3369,188.6,726.6846,178.8,726.6607,169,726.6992" style="stroke: #A80036; stroke-width: 1.0;"/><path d="M461,726.6992 L460.8318,726.6992 L460.9978,728.6992 L461.0747,730.6992 L460.9449,732.6992 L461.115,734.6992 L461,736.6992 " fill="#FBFB77" style="stroke: #A80036; stroke-width: 1.0;"/><path d="M471,736.6992 L471,736.668 L469,736.4157 L467,736.9551 L465,736.547 L463,736.8257 L461,736.6992 " fill="#FBFB77" style="stroke: #A80036; stroke-width: 1.0;"/><text fill="#000000" font-family="sans-serif" font-size="13" lengthAdjust="spacingAndGlyphs" textLength="281" x="175" y="744.2676">プラグインの Plugin クラスが継承して利用する</text><!--class PluginsTable--><polygon fill="#FEFECE" filter="url(#fnivjd2)" points="498,515.1992,498,515.023,508.0769,515.6649,518.1538,515.2094,528.2308,514.8298,538.3077,515.8973,548.3846,514.6117,558.4615,515.3164,568.5385,514.8953,578.6154,515.3341,588.6923,515.0392,598.7692,515.3286,608.8462,514.7469,618.9231,515.0149,629,515.0806,639.0769,514.5936,649.1538,515.8386,659.2308,514.7142,669.3077,515.4493,679.3846,515.1874,689.4615,515.7295,699.5385,514.685,709.6154,515.6245,719.6923,515.4483,729.7692,515.0882,739.8462,515.0939,749.9231,515.2778,760,515.1992,759.3883,515.1992,759.8643,525.69,759.7324,536.1809,759.8865,546.6717,759.5195,557.1625,760.5071,567.6533,760.0881,578.1441,760.4845,588.635,760.7363,599.1258,759.6654,609.6166,760,620.1074,760,619.5179,749.9231,619.4243,739.8462,620.7745,729.7692,620.2712,719.6923,620.4791,709.6154,620.6383,699.5385,619.3628,689.4615,619.7061,679.3846,620.3227,669.3077,620.4489,659.2308,619.4508,649.1538,619.8528,639.0769,619.6027,629,619.5767,618.9231,620.5945,608.8462,620.4885,598.7692,619.5149,588.6923,619.921,578.6154,619.9018,568.5385,619.3773,558.4615,619.5805,548.3846,620.5872,538.3077,620.5645,528.2308,620.753,518.1538,620.7685,508.0769,619.7282,498,620.1074,497.5405,620.1074,498.2523,609.6166,498.1222,599.1258,497.2904,588.635,498.0104,578.1441,497.3734,567.6533,498.0683,557.1625,498.6296,546.6717,497.3968,536.1809,498.2855,525.69,498,515.1992" style="stroke: #A80036; stroke-width: 1.5;"/><text fill="#000000" font-family="sans-serif" font-size="12" lengthAdjust="spacingAndGlyphs" textLength="73" x="592.5" y="531.8008">PluginsTable</text><path d="M499,539.332 L499,538.5958 L509,540.2982 L519,539.2527 L529,540.2962 L539,539.2773 L549,539.8389 L559,538.698 L569,538.9743 L579,540.1225 L589,538.4676 L599,538.8851 L609,538.949 L619,538.4222 L629,539.6861 L639,539.7659 L649,538.719 L659,539.5984 L669,538.7142 L679,538.4313 L689,539.7778 L699,540.2749 L709,540.0786 L719,538.8276 L729,539.7787 L739,539.5377 L749,539.0871 L759,539.332 " fill="#FEFECE" style="stroke: #A80036; stroke-width: 1.5;"/><path d="M499,547.332 L499,547.7445 L509,547.7404 L519,546.9741 L529,547.7033 L539,546.9097 L549,548.0511 L559,547.7407 L569,546.8626 L579,547.7794 L589,546.3899 L599,548.2605 L609,547.9769 L619,547.0565 L629,547.2389 L639,547.1873 L649,548.2732 L659,547.1021 L669,547.399 L679,546.9981 L689,547.6946 L699,548.2205 L709,546.8517 L719,547.9891 L729,547.3638 L739,547.3075 L749,547.4209 L759,547.332 " fill="#FEFECE" style="stroke: #A80036; stroke-width: 1.5;"/><text fill="#000000" font-family="sans-serif" font-size="11" lengthAdjust="spacingAndGlyphs" textLength="214" x="504" y="561.9668">+プラグインをインストールする：install()</text><text fill="#000000" font-family="sans-serif" font-size="11" lengthAdjust="spacingAndGlyphs" textLength="250" x="504" y="574.9219">+プラグインをアンインストールする：uninstall()</text><text fill="#000000" font-family="sans-serif" font-size="11" lengthAdjust="spacingAndGlyphs" textLength="185" x="504" y="587.877">+プラグインを無効化する：detach()</text><text fill="#000000" font-family="sans-serif" font-size="11" lengthAdjust="spacingAndGlyphs" textLength="205" x="504" y="600.832">+優先順位を変更する：changePriority()</text><text fill="#000000" font-family="sans-serif" font-size="11" lengthAdjust="spacingAndGlyphs" textLength="246" x="504" y="613.7871">+プラグイン情報を取得する：getPluginConfig()</text><!--class Plugin--><polygon fill="#FEFECE" filter="url(#fnivjd2)" points="527.5,680.1992,527.5,679.6109,537.65,680.0019,547.8,680.3565,557.95,679.9467,568.1,680.2215,578.25,680.6071,588.4,679.7118,598.55,679.6212,608.7,679.7273,618.85,680.5564,629,680.0269,639.15,679.9277,649.3,680.0086,659.45,680.3671,669.6,679.9104,679.75,680.8765,689.9,679.5006,700.05,680.2355,710.2,679.7566,720.35,680.852,730.5,680.1992,730.5226,680.1992,730.8415,690.0212,730.5635,699.8431,730.7605,709.665,730.1875,719.487,730.3354,729.3089,731.0158,739.1309,730.6521,748.9528,730.767,758.7747,730.2104,768.5967,729.8093,778.4186,730.9254,788.2406,730.5,798.0625,730.5,797.6261,720.35,798.0198,710.2,798.4958,700.05,797.3592,689.9,797.3936,679.75,798.0937,669.6,798.0052,659.45,798.0503,649.3,797.7635,639.15,798.4116,629,798.799,618.85,797.712,608.7,797.7375,598.55,798.093,588.4,798.3419,578.25,797.7343,568.1,797.7634,557.95,797.6367,547.8,797.7998,537.65,797.9543,527.5,798.0625,526.8847,798.0625,527.339,788.2406,527.3453,778.4186,528.0181,768.5967,527.1767,758.7747,526.7566,748.9528,527.1891,739.1309,527.0353,729.3089,527.9351,719.487,527.1607,709.665,527.4617,699.8431,527.9368,690.0212,527.5,680.1992" style="stroke: #A80036; stroke-width: 1.5;"/><text fill="#000000" font-family="sans-serif" font-size="12" lengthAdjust="spacingAndGlyphs" textLength="34" x="612" y="696.8008">Plugin</text><path d="M528.5,704.332 L528.5,704.4538 L538.55,704.2761 L548.6,703.8674 L558.65,704.8202 L568.7,704.6437 L578.75,704.4716 L588.8,705.0377 L598.85,703.8096 L608.9,704.7073 L618.95,703.6318 L629,703.9666 L639.05,704.8465 L649.1,705.0535 L659.15,705.2987 L669.2,703.8498 L679.25,703.7491 L689.3,704.77 L699.35,703.8859 L709.4,704.1362 L719.45,704.5239 L729.5,704.332 " fill="#FEFECE" style="stroke: #A80036; stroke-width: 1.5;"/><text fill="#000000" font-family="sans-serif" font-size="11" lengthAdjust="spacingAndGlyphs" textLength="71" x="533.5" y="718.9668">+名前：name</text><text fill="#000000" font-family="sans-serif" font-size="11" lengthAdjust="spacingAndGlyphs" textLength="84" x="533.5" y="731.9219">+タイトル：title</text><text fill="#000000" font-family="sans-serif" font-size="11" lengthAdjust="spacingAndGlyphs" textLength="115" x="533.5" y="744.877">+バージョン：version</text><text fill="#000000" font-family="sans-serif" font-size="11" lengthAdjust="spacingAndGlyphs" textLength="108" x="533.5" y="757.832">+有効・無効：status</text><text fill="#000000" font-family="sans-serif" font-size="11" lengthAdjust="spacingAndGlyphs" textLength="191" x="533.5" y="770.7871">+データベース初期化状態：db_inited</text><text fill="#000000" font-family="sans-serif" font-size="11" lengthAdjust="spacingAndGlyphs" textLength="93" x="533.5" y="783.7422">+優先度：priority</text><path d="M528.5,790.0625 L528.5,790.0456 L538.55,790.6552 L548.6,789.0719 L558.65,789.9231 L568.7,790.1401 L578.75,790.7887 L588.8,790.044 L598.85,790.6992 L608.9,790.7724 L618.95,790.2767 L629,790.5613 L639.05,790.9854 L649.1,790.8333 L659.15,790.7389 L669.2,790.8338 L679.25,790.4669 L689.3,789.1807 L699.35,790.0058 L709.4,790.8608 L719.45,790.5655 L729.5,790.0625 " fill="#FEFECE" style="stroke: #A80036; stroke-width: 1.5;"/><path d="M474,186.2792 L473.847,186.2792 L474.2209,196.4792 L474.6035,206.6792 L473.6349,216.8792 L474.2045,227.0792 L473.2962,237.2792 L473.1253,247.4792 L473.0783,257.6792 L474.9371,267.8792 L473.2181,278.0792 L474.9818,288.2792 L473.814,298.4792 L473.894,308.6792 L474,318.8792 " fill="none" style="stroke: #000000; stroke-width: 1.0;"/><polygon fill="#000000" points="474,324.0392,474.1799,324.1192,474.9055,322.2861,475.4715,320.3821,476.5001,318.6837,477.0333,316.7651,478,315.0392,478.1612,315.2004,477.0536,315.6928,476.5103,316.7495,475.4278,317.267,474.6578,318.0971,474,319.0392,474.0222,319.0614,473.0595,318.0987,472.4336,317.4729,471.4396,316.4788,470.6661,315.7053,470,315.0392,470.0734,315.0718,470.6207,316.7595,471.688,318.6783,472.6002,320.5282,473.2414,322.2576,474,324.0392" style="stroke: #000000; stroke-width: 1.0;"/><path d="M523.88,350.6992 L523.88,350.9934 L529.858,350.6852 L535.836,350.5694 L541.814,350.7783 L547.792,350.8495 L553.77,350.6992 " fill="none" style="stroke: #000000; stroke-width: 1.0;"/><polygon fill="#000000" points="518.67,350.6992,518.6166,350.5791,520.4496,351.4534,522.2878,352.3392,524.1496,353.2783,525.7841,353.706,527.67,354.6992,527.5573,354.5866,526.9757,354.005,526.1972,353.2265,525.4116,352.4409,524.4005,351.4297,523.67,350.6992,523.5816,350.6108,524.3848,349.814,525.1885,349.0177,525.9418,348.171,526.9641,347.5933,527.67,346.6992,527.6693,346.6977,525.9449,347.6677,524.0333,348.2167,522.3392,349.2548,520.4603,349.8775,518.67,350.6992" style="stroke: #000000; stroke-width: 1.0;"/><path d="M487.97,377.4892 L488.0539,377.5369 L490.0415,381.0473 L492.0361,384.5617 L493.7676,387.9266 L496.1914,391.6849 L497.9623,395.0722 L497.9548,395.0677 L500.5776,399.1827 L502.9299,403.1372 L504.7633,406.7838 L507.0624,410.7068 L509.6788,414.818 L509.9206,414.9673 L510.7449,416.7443 L512.0603,418.8246 L513.3011,420.8588 L514.9436,423.1411 L516.0051,425.0645 L515.7717,424.9158 L517.2495,427.0761 L518.5615,429.1307 L520.2046,431.3964 L521.4858,433.4314 L522.5483,435.3269 L522.3821,435.2169 L524.01,437.4296 L525.1625,439.3276 L526.3579,441.254 L527.9389,443.4357 L529.2371,445.4301 L529.0453,445.2973 L530.6752,447.4431 L532.16,449.4885 L533.0839,451.1456 L534.7798,453.337 L536,455.1992 L536.1058,455.2767 L538.1795,458.1147 L540.2977,460.9852 L542.2042,463.7008 L544.4399,466.6574 L546.4075,469.4178 L546.317,469.3481 L548.6023,472.2664 L550.9989,475.2706 L552.9958,477.9668 L555.0208,480.6846 L557.3775,483.658 L557.1205,483.4519 L559.6634,486.4892 L561.8576,489.247 L564.0976,492.0414 L566.5042,494.9694 L568.5913,497.6413 L568.4936,497.5604 L570.7922,500.3087 L573.1392,503.097 L575.2432,505.6841 L577.3552,508.2778 L579.73,511.0892 " fill="none" style="stroke: #000000; stroke-width: 1.0;"/><polygon fill="#000000" points="583.03,515.0092,582.9215,514.978,582.2616,513.0519,582.1004,511.2693,581.5668,509.3795,580.6367,507.3756,580.3066,505.5444,580.0866,505.5252,580.3598,506.6847,580.145,507.8016,580.0961,508.933,579.75,510.0385,579.815,511.1799,579.8339,511.3957,578.6752,510.9357,577.5499,510.8578,576.4445,511.008,575.2867,510.5574,574.1796,510.6883,574.1215,510.5693,576.045,511.7478,577.6789,512.3331,579.4662,513.2325,581.1914,514.0047,583.03,515.0092" style="stroke: #000000; stroke-width: 1.0;"/><path d="M459.67,377.4192 L459.664,377.4157 L457.8498,381.0584 L455.7261,384.521 L453.5536,387.9554 L451.2239,391.2983 L449.4638,394.9723 L449.2289,394.8306 L447.1672,398.9725 L444.4536,402.721 L442.4758,406.9136 L439.7623,410.6622 L437.5475,414.7117 L437.4702,414.6634 L436.4485,416.8774 L435.1137,418.8957 L433.4562,420.7122 L432.3676,422.8844 L431.1368,424.9677 L431.1717,424.9901 L429.7508,426.9832 L428.4495,429.0531 L427.2875,431.2127 L425.6239,433.0497 L424.525,435.2498 L424.4761,435.2173 L423.1386,437.251 L421.8584,439.3227 L420.6452,441.4389 L419.3085,443.4731 L417.7876,445.3848 L417.8852,445.4524 L416.6926,447.5293 L415.3228,449.4837 L413.9135,451.4107 L412.3722,453.2465 L411,455.1992 L411.0455,455.2324 L408.707,458.3861 L406.3715,461.5421 L403.9933,464.667 L401.7128,467.863 L399.4394,471.0642 L399.2406,470.912 L396.9959,474.2336 L394.3188,477.2241 L392.3959,480.792 L389.6845,483.7563 L387.275,486.9517 L387.1179,486.8267 L384.795,490.0434 L382.3128,493.1333 L379.8482,496.2373 L377.6455,499.5497 L374.9381,502.4605 L374.7112,502.2743 L372.5801,505.4535 L369.8908,508.1748 L367.4785,511.1233 L365.0965,514.0966 L362.86,517.1892 " fill="none" style="stroke: #000000; stroke-width: 1.0;"/><polygon fill="#000000" points="359.32,521.4292,359.3365,521.4626,361.0735,520.5314,362.9244,519.831,364.6675,518.9121,366.3129,517.7951,368.153,517.0727,368.1691,517.2495,367.0471,517.4038,365.8861,517.1304,364.7845,517.5086,363.6279,517.2838,362.5195,517.5869,362.6425,517.5982,362.4497,516.4633,362.1991,515.3231,362.173,514.2034,361.909,513.062,362.0053,511.9535,362.1193,511.9858,361.6558,513.9018,360.9905,515.7606,360.3709,517.6323,359.7085,519.492,359.32,521.4292" style="stroke: #000000; stroke-width: 1.0;"/><path d="M462.73,567.6992 L462.73,567.7978 L468.704,567.3868 L474.678,567.9087 L480.652,567.4331 L486.626,567.6654 L492.6,567.6992 " fill="none" style="stroke: #000000; stroke-width: 1.0;"/><polygon fill="#000000" points="497.8,567.6992,497.7351,567.5533,496.0161,566.9355,494.2999,566.324,492.4178,565.3393,490.6343,564.5764,488.8,563.6992,488.7932,563.6924,489.7372,564.6365,490.4782,565.3774,491.2946,566.1938,492.1202,567.0194,492.8,567.6992,492.8161,567.7154,492.0149,568.5141,491.1506,569.2498,490.4944,570.1936,489.6432,570.9425,488.8,571.6992,488.8941,571.911,490.6914,571.1049,492.3753,570.0437,494.1879,569.2719,496.018,568.5397,497.8,567.6992" style="stroke: #000000; stroke-width: 1.0;"/><path d="M414.33,350.6992 L414.33,350.8466 L417.356,350.5916 L420.382,350.6473 L423.408,350.709 L426.434,351.0132 L429.46,350.6992 " fill="none" style="stroke: #000000; stroke-width: 1.0; stroke-dasharray: 1.0,3.0;"/><polygon fill="none" points="414.26,357.6992,414.1944,357.5117,410.2256,356.201,406.2011,354.7309,402.2898,353.5844,398.2062,351.9454,394.26,350.6992,394.2983,350.8087,398.2856,349.3724,402.2585,347.8948,406.2517,346.4754,410.2423,345.0487,414.26,343.6992,414.0615,343.6992,414.509,346.4992,414.1807,349.2992,414.4787,352.0992,414.3895,354.8992,414.26,357.6992" style="stroke: #000000; stroke-width: 1.0;"/><path d="M629,620.4792 L629.9577,620.4792 L629.6471,631.3652 L628.3785,642.2512 L628.6625,653.1372 L629.9345,664.0232 L629,674.9092 " fill="none" style="stroke: #000000; stroke-width: 1.0;"/><polygon fill="#000000" points="629,679.9292,629.1563,679.9987,629.773,678.1172,630.3863,676.2343,631.406,674.5319,632.2842,672.7667,633,670.9292,633.0128,670.942,632.0792,671.6085,631.378,672.5072,630.7328,673.462,629.8087,674.1379,629,674.9292,629.1339,675.0631,628.1993,674.1285,627.2286,673.1578,626.5767,672.5059,625.7334,671.6626,625,670.9292,624.7932,670.8373,625.8601,672.7559,626.4033,674.4418,627.4846,676.3668,628.2306,678.1428,629,679.9292" style="stroke: #000000; stroke-width: 1.0;"/></g></svg>