<?xml version="1.0" encoding="UTF-8" standalone="no"?><svg xmlns="http://www.w3.org/2000/svg" xmlns:xlink="http://www.w3.org/1999/xlink" contentScriptType="application/ecmascript" contentStyleType="text/css" height="725px" preserveAspectRatio="none" style="width:954px;height:725px;" version="1.1" viewBox="0 0 954 725" width="954px" zoomAndPan="magnify"><defs><filter height="300%" id="feljvbb" width="300%" x="-1" y="-1"><feGaussianBlur result="blurOut" stdDeviation="2.0"/><feColorMatrix in="blurOut" result="blurOut2" type="matrix" values="0 0 0 0 0 0 0 0 0 0 0 0 0 0 0 0 0 0 .4 0"/><feOffset dx="4.0" dy="4.0" in="blurOut2" result="blurOut3"/><feBlend in="SourceGraphic" in2="blurOut3" mode="normal"/></filter></defs><g><text fill="#000000" font-family="sans-serif" font-size="18" lengthAdjust="spacingAndGlyphs" textLength="126" x="418.5" y="17.4023">サイト基本設定</text><!--class Admin\BcAdminAppController--><polygon fill="#FEFECE" filter="url(#feljvbb)" points="380.5,29.1992,380.5,29.3226,390.4444,29.7084,400.3889,29.4919,410.3333,28.9036,420.2778,28.7357,430.2222,28.5606,440.1667,29.7042,450.1111,28.5243,460.0556,29.3262,470,29.7373,479.9444,28.715,489.8889,28.6951,499.8333,29.2818,509.7778,29.1188,519.7222,29.3814,529.6667,28.63,539.6111,29.8854,549.5556,28.5759,559.5,29.1992,559.6932,29.1992,559.4767,37.2258,559.4922,45.2523,559.723,53.2789,559.6781,61.3055,559.5,69.332,559.5,69.647,549.5556,69.4742,539.6111,69.1947,529.6667,68.8311,519.7222,69.5577,509.7778,68.7129,499.8333,69.9529,489.8889,69.6999,479.9444,69.2796,470,69.106,460.0556,69.2863,450.1111,69.4616,440.1667,70.0258,430.2222,69.4552,420.2778,68.7744,410.3333,69.7073,400.3889,69.8285,390.4444,69.0033,380.5,69.332,380.5267,69.332,380.5439,61.3055,380.3445,53.2789,380.7279,45.2523,380.7457,37.2258,380.5,29.1992" style="stroke: #A80036; stroke-width: 1.5;"/><text fill="#000000" font-family="sans-serif" font-size="12" lengthAdjust="spacingAndGlyphs" textLength="173" x="383.5" y="45.8008">Admin\BcAdminAppController</text><path d="M381.5,53.332 L381.5,53.0261 L391.3333,53.7885 L401.1667,53.3272 L411,53.6801 L420.8333,53.799 L430.6667,53.9403 L440.5,53.7923 L450.3333,53.9984 L460.1667,53.5807 L470,54.0382 L479.8333,53.445 L489.6667,52.6206 L499.5,54.2761 L509.3333,53.3422 L519.1667,53.68 L529,53.3593 L538.8333,54.3298 L548.6667,53.7768 L558.5,53.332 " fill="#FEFECE" style="stroke: #A80036; stroke-width: 1.5;"/><path d="M381.5,61.332 L381.5,60.6057 L391.3333,61.7223 L401.1667,60.4587 L411,60.7747 L420.8333,60.4413 L430.6667,60.8529 L440.5,60.4861 L450.3333,61.0005 L460.1667,61.2361 L470,62.2351 L479.8333,60.4723 L489.6667,60.9957 L499.5,61.8602 L509.3333,61.1786 L519.1667,61.2104 L529,60.4624 L538.8333,61.5612 L548.6667,61.98 L558.5,61.332 " fill="#FEFECE" style="stroke: #A80036; stroke-width: 1.5;"/><!--class Admin\SiteConfigsController--><polygon fill="#FEFECE" filter="url(#feljvbb)" points="386.5,129.1992,386.5,129.299,396.3235,129.3271,406.1471,129.0695,415.9706,129.3185,425.7941,129.7602,435.6176,128.7125,445.4412,129.8273,455.2647,128.6352,465.0882,129.9006,474.9118,129.9046,484.7353,128.7989,494.5588,128.7106,504.3824,128.9594,514.2059,128.5143,524.0294,129.5832,533.8529,129.1425,543.6765,128.6444,553.5,129.1992,553.5468,129.1992,553.3043,139.8168,553.6929,150.4344,553.7743,161.052,554.248,171.6695,553.5,182.2871,553.5,182.4798,543.6765,181.894,533.8529,181.7312,524.0294,182.8514,514.2059,182.9148,504.3824,182.437,494.5588,182.8619,484.7353,182.1052,474.9118,182.2484,465.0882,181.9543,455.2647,182.8305,445.4412,182.8456,435.6176,182.7134,425.7941,182.778,415.9706,182.0857,406.1471,181.8004,396.3235,181.9423,386.5,182.2871,386.4032,182.2871,387.0693,171.6695,386.9133,161.052,386.057,150.4344,386.8688,139.8168,386.5,129.1992" style="stroke: #A80036; stroke-width: 1.5;"/><text fill="#000000" font-family="sans-serif" font-size="12" lengthAdjust="spacingAndGlyphs" textLength="161" x="389.5" y="145.8008">Admin\SiteConfigsController</text><path d="M387.5,153.332 L387.5,153.6203 L397.2059,153.1254 L406.9118,153.5863 L416.6176,152.7375 L426.3235,153.534 L436.0294,153.9128 L445.7353,153.3973 L455.4412,153.9409 L465.1471,152.9928 L474.8529,152.353 L484.5588,154.0157 L494.2647,152.6388 L503.9706,153.959 L513.6765,153.9439 L523.3824,153.556 L533.0882,152.668 L542.7941,152.9035 L552.5,153.332 " fill="#FEFECE" style="stroke: #A80036; stroke-width: 1.5;"/><path d="M387.5,161.332 L387.5,160.5258 L397.2059,161.5727 L406.9118,161.8638 L416.6176,160.5446 L426.3235,161.9403 L436.0294,162.0122 L445.7353,160.8146 L455.4412,161.2127 L465.1471,161.4814 L474.8529,161.2097 L484.5588,162.2144 L494.2647,161.6216 L503.9706,160.7048 L513.6765,161.8423 L523.3824,160.7217 L533.0882,161.451 L542.7941,161.585 L552.5,161.332 " fill="#FEFECE" style="stroke: #A80036; stroke-width: 1.5;"/><text fill="#000000" font-family="sans-serif" font-size="11" lengthAdjust="spacingAndGlyphs" textLength="80" x="392.5" y="175.9668">+保存：index()</text><!--class SiteConfigsAdminService--><polygon fill="#FEFECE" filter="url(#feljvbb)" points="479.5,307.1992,479.5,306.8324,489.1667,306.8566,498.8333,307.1027,508.5,306.4714,518.1667,307.5575,527.8333,307.0921,537.5,307.9238,547.1667,307.4884,556.8333,306.5069,566.5,307.7532,576.1667,307.9268,585.8333,307.82,595.5,306.7101,605.1667,307.4324,614.8333,306.6233,624.5,307.1992,624.5777,307.1992,624.4129,315.2258,624.407,323.2523,624.2517,331.2789,624.3144,339.3055,624.5,347.332,624.5,346.8021,614.8333,346.6412,605.1667,346.8781,595.5,347.4557,585.8333,347.7524,576.1667,346.6228,566.5,347.4183,556.8333,348.063,547.1667,347.3836,537.5,347.4392,527.8333,347.5182,518.1667,346.8138,508.5,347.2668,498.8333,346.7811,489.1667,347.8178,479.5,347.332,479.6293,347.332,479.2833,339.3055,479.5581,331.2789,479.6794,323.2523,479.5726,315.2258,479.5,307.1992" style="stroke: #A80036; stroke-width: 1.5;"/><text fill="#000000" font-family="sans-serif" font-size="12" lengthAdjust="spacingAndGlyphs" textLength="139" x="482.5" y="323.8008">SiteConfigsAdminService</text><path d="M480.5,331.332 L480.5,330.817 L490.7143,331.5545 L500.9286,331.0205 L511.1429,331.6511 L521.3571,331.735 L531.5714,330.9609 L541.7857,331.727 L552,330.4823 L562.2143,331.7172 L572.4286,330.9481 L582.6429,331.2067 L592.8571,331.3315 L603.0714,331.1451 L613.2857,330.8781 L623.5,331.332 " fill="#FEFECE" style="stroke: #A80036; stroke-width: 1.5;"/><path d="M480.5,339.332 L480.5,339.1804 L490.7143,340.1541 L500.9286,338.7625 L511.1429,338.5365 L521.3571,338.6658 L531.5714,338.7628 L541.7857,338.697 L552,339.7878 L562.2143,338.5954 L572.4286,339.1964 L582.6429,338.9952 L592.8571,338.9243 L603.0714,338.3733 L613.2857,338.9034 L623.5,339.332 " fill="#FEFECE" style="stroke: #A80036; stroke-width: 1.5;"/><!--class SiteConfigsAdminServiceInterface--><polygon fill="#FEFECE" filter="url(#feljvbb)" points="659.5,300.6992,659.5,301.3322,669.3276,300.1175,679.1552,300.3002,688.9828,300.8998,698.8103,300.6523,708.6379,299.9991,718.4655,300.2507,728.2931,301.1167,738.1207,300.6118,747.9483,301.0202,757.7759,301.3716,767.6034,300.3822,777.431,300.7037,787.2586,300.4051,797.0862,300.2201,806.9138,300.7305,816.7414,301.1163,826.569,301.2342,836.3966,300.3607,846.2241,300.7592,856.0517,299.9767,865.8793,301.2192,875.7069,301.3356,885.5345,300.9146,895.3621,300.8288,905.1897,301.1278,915.0172,301.0712,924.8448,300.1636,934.6724,301.4399,944.5,300.6992,943.756,300.6992,945.1467,311.3168,944.4844,321.9344,944.1003,332.552,944.0442,343.1695,944.5,353.7871,944.5,354.532,934.6724,353.3821,924.8448,353.6157,915.0172,353.5496,905.1897,354.5336,895.3621,353.9959,885.5345,354.4222,875.7069,353.1614,865.8793,354.3466,856.0517,353.3643,846.2241,354.2667,836.3966,353.921,826.569,353.569,816.7414,353.8523,806.9138,354.4555,797.0862,353.5605,787.2586,354.0817,777.431,353.3832,767.6034,353.5706,757.7759,353.3541,747.9483,353.9085,738.1207,353.0583,728.2931,354.3678,718.4655,353.5681,708.6379,354.3523,698.8103,353.2684,688.9828,353.1018,679.1552,354.0381,669.3276,353.7057,659.5,353.7871,659.598,353.7871,659.3441,343.1695,659.257,332.552,660.1757,321.9344,659.0521,311.3168,659.5,300.6992" style="stroke: #A80036; stroke-width: 1.5;"/><text fill="#000000" font-family="sans-serif" font-size="12" lengthAdjust="spacingAndGlyphs" textLength="189" x="707.5" y="317.3008">SiteConfigsAdminServiceInterface</text><path d="M660.5,324.832 L660.5,325.2906 L670.6071,324.1707 L680.7143,324.9945 L690.8214,324.5392 L700.9286,325.5095 L711.0357,324.6366 L721.1429,325.4396 L731.25,325.0358 L741.3571,324.5051 L751.4643,324.8223 L761.5714,325.1116 L771.6786,324.2549 L781.7857,325.7085 L791.8929,324.797 L802,325.0577 L812.1071,325.4147 L822.2143,324.9784 L832.3214,324.1659 L842.4286,324.5029 L852.5357,323.8762 L862.6429,324.3043 L872.75,324.8257 L882.8571,325.3847 L892.9643,324.2712 L903.0714,325.417 L913.1786,323.9374 L923.2857,324.8811 L933.3929,324.6919 L943.5,324.832 " fill="#FEFECE" style="stroke: #A80036; stroke-width: 1.5;"/><path d="M660.5,332.832 L660.5,333.7626 L670.6071,333.0386 L680.7143,333.5697 L690.8214,333.1326 L700.9286,332.762 L711.0357,332.231 L721.1429,332.2843 L731.25,333.0991 L741.3571,333.1826 L751.4643,332.3293 L761.5714,332.615 L771.6786,332.9757 L781.7857,332.7904 L791.8929,332.747 L802,332.3023 L812.1071,333.347 L822.2143,333.2307 L832.3214,332.7207 L842.4286,333.5289 L852.5357,332.0141 L862.6429,332.3012 L872.75,332.2378 L882.8571,333.2941 L892.9643,331.9294 L903.0714,332.4371 L913.1786,332.7345 L923.2857,332.6827 L933.3929,332.694 L943.5,332.832 " fill="#FEFECE" style="stroke: #A80036; stroke-width: 1.5;"/><text fill="#000000" font-family="sans-serif" font-size="11" lengthAdjust="spacingAndGlyphs" textLength="273" x="665.5" y="347.4668">+表示用のデータを取得する：getViewVarsForIndex()</text><!--class SiteConfigsService--><polygon fill="#FEFECE" filter="url(#feljvbb)" points="333.5,300.6992,333.5,300.3135,343.5909,300.2767,353.6818,299.9988,363.7727,301.2889,373.8636,300.1022,383.9545,301.1614,394.0455,300.3959,404.1364,301.3053,414.2273,301.0017,424.3182,300.759,434.4091,300.5586,444.5,300.6992,444.3502,300.6992,443.8968,311.3168,444.3297,321.9344,444.2703,332.552,445.2208,343.1695,444.5,353.7871,444.5,353.4204,434.4091,354.2802,424.3182,353.89,414.2273,353.1104,404.1364,353.6457,394.0455,354.3964,383.9545,354.251,373.8636,354.2747,363.7727,354.4013,353.6818,353.9014,343.5909,353.4917,333.5,353.7871,333.7167,353.7871,333.5446,343.1695,332.8923,332.552,332.9591,321.9344,333.3815,311.3168,333.5,300.6992" style="stroke: #A80036; stroke-width: 1.5;"/><text fill="#000000" font-family="sans-serif" font-size="12" lengthAdjust="spacingAndGlyphs" textLength="102" x="338" y="317.3008">SiteConfigsService</text><path d="M334.5,324.832 L334.5,325.4507 L344.4091,324.234 L354.3182,324.4853 L364.2273,324.9892 L374.1364,325.3651 L384.0455,324.6815 L393.9545,324.0529 L403.8636,324.1408 L413.7727,324.5407 L423.6818,325.5254 L433.5909,324.4678 L443.5,324.832 " fill="#FEFECE" style="stroke: #A80036; stroke-width: 1.5;"/><text fill="#000000" font-family="sans-serif" font-size="11" lengthAdjust="spacingAndGlyphs" textLength="99" x="339.5" y="339.4668">+SiteConfigsTable</text><path d="M334.5,345.7871 L334.5,345.071 L344.4091,344.9477 L354.3182,345.009 L364.2273,346.6507 L374.1364,345.7439 L384.0455,346.5001 L393.9545,345.6653 L403.8636,346.3003 L413.7727,345.5539 L423.6818,345.8619 L433.5909,346.3963 L443.5,345.7871 " fill="#FEFECE" style="stroke: #A80036; stroke-width: 1.5;"/><!--class SiteConfigsServiceInterface--><polygon fill="#FEFECE" filter="url(#feljvbb)" points="6,242.1992,6,242.8161,16.069,241.4929,26.1379,242.5165,36.2069,241.9154,46.2759,242.9142,56.3448,242.5939,66.4138,241.6627,76.4828,241.6947,86.5517,242.8549,96.6207,241.9212,106.6897,242.6435,116.7586,242.1278,126.8276,242.3274,136.8966,242.3414,146.9655,242.4439,157.0345,241.8042,167.1034,242.6645,177.1724,242.72,187.2414,242.2851,197.3103,241.7471,207.3793,241.6769,217.4483,241.4843,227.5172,242.6299,237.5862,241.9607,247.6552,241.7502,257.7241,241.9603,267.7931,241.4589,277.8621,242.8117,287.931,242.6709,298,242.1992,297.3027,242.1992,298.2945,252.1806,298.557,262.162,298.3882,272.1434,297.7662,282.1248,298.1298,292.1062,298.6693,302.0875,297.5709,312.0689,298.3668,322.0503,298.6045,332.0317,297.58,342.0131,298.2343,351.9945,297.8977,361.9759,298.1845,371.9573,297.2885,381.9386,298.5996,391.92,298.6834,401.9014,298,411.8828,298,412.534,287.931,412.2487,277.8621,412.01,267.7931,412.3659,257.7241,412.3736,247.6552,412.2142,237.5862,411.3067,227.5172,412.2478,217.4483,411.4414,207.3793,411.8253,197.3103,412.6195,187.2414,411.2004,177.1724,411.2286,167.1034,412.1935,157.0345,412.0569,146.9655,411.9589,136.8966,411.3972,126.8276,412.5034,116.7586,411.2435,106.6897,411.1791,96.6207,411.6583,86.5517,411.1881,76.4828,412.5003,66.4138,411.2052,56.3448,412.0616,46.2759,411.688,36.2069,412.3626,26.1379,412.2419,16.069,412.3327,6,411.8828,6.018,411.8828,5.4069,401.9014,6.3772,391.92,6.1565,381.9386,5.728,371.9573,5.4146,361.9759,5.5531,351.9945,6.7143,342.0131,6.6892,332.0317,5.5614,322.0503,5.4645,312.0689,6.0419,302.0875,6.6259,292.1062,6.2489,282.1248,6.1471,272.1434,6.5578,262.162,6.7031,252.1806,6,242.1992" style="stroke: #A80036; stroke-width: 1.5;"/><text fill="#000000" font-family="sans-serif" font-size="12" lengthAdjust="spacingAndGlyphs" textLength="152" x="76" y="258.8008">SiteConfigsServiceInterface</text><path d="M7,266.332 L7,266.5398 L17,266.9215 L27,265.8956 L37,267.0214 L47,266.08 L57,266.8011 L67,266.2861 L77,266.134 L87,265.4292 L97,266.8063 L107,266.1322 L117,266.796 L127,265.8379 L137,265.4384 L147,266.6383 L157,266.7863 L167,266.0617 L177,265.4728 L187,266.8828 L197,265.5517 L207,265.5368 L217,265.3985 L227,266.8822 L237,265.3413 L247,266.8049 L257,266.4618 L267,265.896 L277,266.44 L287,266.5393 L297,266.332 " fill="#FEFECE" style="stroke: #A80036; stroke-width: 1.5;"/><path d="M7,274.332 L7,274.5578 L17,274.0497 L27,273.4329 L37,273.83 L47,274.824 L57,274.1274 L67,274.2585 L77,274.1359 L87,275.3311 L97,274.6067 L107,273.5713 L117,273.498 L127,274.7528 L137,274.6589 L147,274.6381 L157,274.2281 L167,275.313 L177,274.9337 L187,273.6273 L197,274.3525 L207,274.669 L217,274.4726 L227,274.7299 L237,274.5825 L247,274.681 L257,274.0643 L267,274.0628 L277,274.5244 L287,275.2538 L297,274.332 " fill="#FEFECE" style="stroke: #A80036; stroke-width: 1.5;"/><text fill="#000000" font-family="sans-serif" font-size="11" lengthAdjust="spacingAndGlyphs" textLength="162" x="12" y="288.9668">+設定値を取得する：getValue()</text><text fill="#000000" font-family="sans-serif" font-size="11" lengthAdjust="spacingAndGlyphs" textLength="144" x="12" y="301.9219">+全設定値を取得する：get()</text><text fill="#000000" font-family="sans-serif" font-size="11" lengthAdjust="spacingAndGlyphs" textLength="164" x="12" y="314.877">+全設定値を更新する：update()</text><text fill="#000000" font-family="sans-serif" font-size="11" lengthAdjust="spacingAndGlyphs" textLength="267" x="12" y="327.832">+.env が書き込み可能かどうか確認：isWritableEnv()</text><text fill="#000000" font-family="sans-serif" font-size="11" lengthAdjust="spacingAndGlyphs" textLength="189" x="12" y="340.7871">+.env に設定値を書き込む：putEnv()</text><text fill="#000000" font-family="sans-serif" font-size="11" lengthAdjust="spacingAndGlyphs" textLength="280" x="12" y="353.7422">+アプリケーションモードリストを取得：getModeList()</text><text fill="#000000" font-family="sans-serif" font-size="11" lengthAdjust="spacingAndGlyphs" textLength="161" x="12" y="366.6973">+設定値を更新する：setValue()</text><text fill="#000000" font-family="sans-serif" font-size="11" lengthAdjust="spacingAndGlyphs" textLength="194" x="12" y="379.6523">+設定値をリセットする：resetValue()</text><text fill="#000000" font-family="sans-serif" font-size="11" lengthAdjust="spacingAndGlyphs" textLength="221" x="12" y="392.6074">+DBのバージョンを取得する：getVersion()</text><text fill="#000000" font-family="sans-serif" font-size="11" lengthAdjust="spacingAndGlyphs" textLength="222" x="12" y="405.5625">+キャッシュ用 Entity を削除：clearCache()</text><!--class SiteConfigsTable--><polygon fill="#FEFECE" filter="url(#feljvbb)" points="181.5,472.1992,181.5,471.7707,191.381,472.518,201.2619,472.1092,211.1429,471.6536,221.0238,472.7828,230.9048,472.7167,240.7857,471.8405,250.6667,471.5142,260.5476,472.662,270.4286,472.9262,280.3095,471.9048,290.1905,472.2503,300.0714,472.9282,309.9524,471.8779,319.8333,471.5993,329.7143,472.4799,339.5952,472.7876,349.4762,472.4664,359.3571,472.4722,369.2381,472.4568,379.119,472.0171,389,471.596,398.881,471.6295,408.7619,472.0359,418.6429,472.6901,428.5238,472.2069,438.4048,471.6589,448.2857,472.8546,458.1667,472.0888,468.0476,472.3392,477.9286,471.881,487.8095,472.5755,497.6905,472.8312,507.5714,471.556,517.4524,471.5381,527.3333,471.7877,537.2143,471.9941,547.0952,472.7126,556.9762,472.2706,566.8571,471.8713,576.7381,471.8506,586.619,471.9304,596.5,472.1992,596.586,472.1992,596.0869,482.0212,596.051,491.8431,596.5048,501.665,596.8141,511.487,597.1599,521.3089,595.9627,531.1309,596.1507,540.9528,597.0726,550.7747,596.0095,560.5967,595.7723,570.4186,596.7792,580.2406,596.5,590.0625,596.5,589.8507,586.619,589.8282,576.7381,590.1295,566.8571,590.7233,556.9762,589.7783,547.0952,590.7731,537.2143,589.4338,527.3333,590.2978,517.4524,590.3498,507.5714,589.9586,497.6905,589.6594,487.8095,589.6701,477.9286,589.8153,468.0476,589.7268,458.1667,589.4161,448.2857,590.7236,438.4048,590.701,428.5238,589.3975,418.6429,589.7874,408.7619,589.4779,398.881,590.2903,389,590.6639,379.119,589.7163,369.2381,589.5161,359.3571,590.3512,349.4762,590.4793,339.5952,589.7572,329.7143,589.7065,319.8333,589.6735,309.9524,590.4047,300.0714,590.1475,290.1905,590.0497,280.3095,590.1523,270.4286,590.5319,260.5476,589.4247,250.6667,589.7857,240.7857,590.1499,230.9048,590.6922,221.0238,590.1603,211.1429,589.4097,201.2619,590.1966,191.381,590.7093,181.5,590.0625,181.2545,590.0625,180.8933,580.2406,181.6838,570.4186,180.8974,560.5967,181.1727,550.7747,180.7635,540.9528,181.62,531.1309,181.895,521.3089,181.2821,511.487,181.4985,501.665,181.5239,491.8431,182.0256,482.0212,181.5,472.1992" style="stroke: #A80036; stroke-width: 1.5;"/><text fill="#000000" font-family="sans-serif" font-size="12" lengthAdjust="spacingAndGlyphs" textLength="95" x="341.5" y="488.8008">SiteConfigsTable</text><path d="M182.5,496.332 L182.5,495.3892 L192.5732,495.9439 L202.6463,496.1323 L212.7195,496.8927 L222.7927,495.4847 L232.8659,495.5482 L242.939,496.5021 L253.0122,496.6932 L263.0854,496.4227 L273.1585,497.3318 L283.2317,496.456 L293.3049,497.206 L303.378,495.4692 L313.4512,496.3196 L323.5244,496.0598 L333.5976,495.8944 L343.6707,496.6104 L353.7439,496.8138 L363.8171,497.2078 L373.8902,496.7842 L383.9634,496.6798 L394.0366,497.1115 L404.1098,497.3278 L414.1829,496.8204 L424.2561,496.5621 L434.3293,495.7265 L444.4024,495.8796 L454.4756,495.6104 L464.5488,496.2485 L474.622,496.6722 L484.6951,496.7245 L494.7683,495.4977 L504.8415,496.2364 L514.9146,496.6211 L524.9878,497.132 L535.061,496.8921 L545.1341,496.9208 L555.2073,496.9623 L565.2805,496.3117 L575.3537,495.704 L585.4268,496.2154 L595.5,496.332 " fill="#FEFECE" style="stroke: #A80036; stroke-width: 1.5;"/><path d="M182.5,504.332 L182.5,504.9143 L192.5732,504.9182 L202.6463,503.5861 L212.7195,503.6718 L222.7927,503.928 L232.8659,503.9768 L242.939,503.4821 L253.0122,504.8314 L263.0854,504.6271 L273.1585,505.1123 L283.2317,504.7131 L293.3049,504.45 L303.378,503.4854 L313.4512,503.8346 L323.5244,503.5036 L333.5976,503.5741 L343.6707,505.3298 L353.7439,503.9494 L363.8171,504.455 L373.8902,505.231 L383.9634,503.5807 L394.0366,503.9054 L404.1098,504.0221 L414.1829,504.709 L424.2561,504.9103 L434.3293,505.0798 L444.4024,504.5255 L454.4756,505.0581 L464.5488,504.6952 L474.622,503.6225 L484.6951,504.6599 L494.7683,504.5362 L504.8415,504.2824 L514.9146,503.5436 L524.9878,503.8079 L535.061,504.2512 L545.1341,504.6616 L555.2073,505.2244 L565.2805,504.77 L575.3537,505.2194 L585.4268,503.6516 L595.5,504.332 " fill="#FEFECE" style="stroke: #A80036; stroke-width: 1.5;"/><text fill="#000000" font-family="sans-serif" font-size="11" lengthAdjust="spacingAndGlyphs" textLength="308" x="187.5" y="518.9668">+KeyValue用のバリデーションを行う：validationKeyValue()</text><text fill="#000000" font-family="sans-serif" font-size="11" lengthAdjust="spacingAndGlyphs" textLength="277" x="187.5" y="531.9219">+コントロールソースを取得する：getControlSource()</text><text fill="#000000" font-family="sans-serif" font-size="11" lengthAdjust="spacingAndGlyphs" textLength="378" x="187.5" y="544.877">+コンテンツの並び順の変更確認：isChangedContentsSortLastModified()</text><text fill="#000000" font-family="sans-serif" font-size="11" lengthAdjust="spacingAndGlyphs" textLength="391" x="187.5" y="557.832">+コンテンツ並び順変更時間を更新する：updateContentsSortLastModified()</text><text fill="#000000" font-family="sans-serif" font-size="11" lengthAdjust="spacingAndGlyphs" textLength="403" x="187.5" y="570.7871">+コンテンツ並び替え順変更時間をリセット：resetContentsSortLastModified()</text><text fill="#000000" font-family="sans-serif" font-size="11" lengthAdjust="spacingAndGlyphs" textLength="400" x="187.5" y="583.7422">+指定したフィールドの値がDBのデータと比較して変更状態か確認：isChange()</text><!--class BcKeyValue--><polygon fill="#FEFECE" filter="url(#feljvbb)" points="632,511.1992,632,511.302,642.2857,511.5137,652.5714,511.2979,662.8571,511.8194,673.1429,511.3899,683.4286,510.661,693.7143,510.6614,704,511.1992,703.781,511.1992,703.8673,519.2258,703.7965,527.2523,704.1083,535.2789,704.1053,543.3055,704,551.332,704,551.4924,693.7143,551.9102,683.4286,551.8552,673.1429,551.5321,662.8571,550.9802,652.5714,551.3627,642.2857,550.6586,632,551.332,632.1296,551.332,632.2364,543.3055,631.7503,535.2789,631.7518,527.2523,631.9393,519.2258,632,511.1992" style="stroke: #A80036; stroke-width: 1.5;"/><text fill="#000000" font-family="sans-serif" font-size="12" lengthAdjust="spacingAndGlyphs" textLength="66" x="635" y="527.8008">BcKeyValue</text><path d="M633,535.332 L633,535.0565 L643,535.3103 L653,535.6325 L663,535.4321 L673,534.7702 L683,535.6741 L693,535.3949 L703,535.332 " fill="#FEFECE" style="stroke: #A80036; stroke-width: 1.5;"/><path d="M633,543.332 L633,542.7112 L643,543.5064 L653,542.4053 L663,543.6508 L673,543.9339 L683,542.9629 L693,542.6363 L703,543.332 " fill="#FEFECE" style="stroke: #A80036; stroke-width: 1.5;"/><!--class SiteConfig--><polygon fill="#FEFECE" filter="url(#feljvbb)" points="342,650.1992,342,650.8109,352.4444,650.5756,362.8889,649.9134,373.3333,649.8653,383.7778,649.8732,394.2222,650.0576,404.6667,650.3953,415.1111,650.9025,425.5556,650.2675,436,650.1992,435.7389,650.1992,436.266,659.6339,436.0673,669.0686,435.9858,678.5033,435.3575,687.9381,436.7369,697.3728,436,706.8075,436,716.2422,436,716.5723,425.5556,716.9641,415.1111,716.6458,404.6667,715.6956,394.2222,715.5374,383.7778,716.3687,373.3333,716.842,362.8889,716.7206,352.4444,716.2413,342,716.2422,341.3394,716.2422,341.7366,706.8075,341.8523,697.3728,341.3669,687.9381,341.8157,678.5033,342.2898,669.0686,341.8668,659.6339,342,650.1992" style="stroke: #A80036; stroke-width: 1.5;"/><text fill="#000000" font-family="sans-serif" font-size="12" lengthAdjust="spacingAndGlyphs" textLength="56" x="361" y="666.8008">SiteConfig</text><path d="M343,674.332 L343,675.1167 L353.2222,674.2473 L363.4444,674.7515 L373.6667,674.704 L383.8889,674.5816 L394.1111,675.0218 L404.3333,673.6627 L414.5556,673.6142 L424.7778,673.6923 L435,674.332 " fill="#FEFECE" style="stroke: #A80036; stroke-width: 1.5;"/><text fill="#000000" font-family="sans-serif" font-size="11" lengthAdjust="spacingAndGlyphs" textLength="82" x="348" y="688.9668">+設定名：name</text><text fill="#000000" font-family="sans-serif" font-size="11" lengthAdjust="spacingAndGlyphs" textLength="59" x="348" y="701.9219">+値：value</text><path d="M343,708.2422 L343,707.2811 L353.2222,708.2802 L363.4444,707.9437 L373.6667,708.1092 L383.8889,708.4057 L394.1111,709.1095 L404.3333,708.417 L414.5556,707.5363 L424.7778,707.4478 L435,708.2422 " fill="#FEFECE" style="stroke: #A80036; stroke-width: 1.5;"/><path d="M470,89.7492 L470.3082,89.7492 L470.2591,97.5912 L469.7719,105.4332 L469.9854,113.2752 L470.0508,121.1172 L470,128.9592 " fill="none" style="stroke: #000000; stroke-width: 1.0;"/><polygon fill="none" points="463,89.3692,463.0567,89.3891,464.482,85.3979,465.6241,81.3077,467.41,77.4427,468.7743,73.4302,470,69.3692,470.2191,69.4459,471.3337,73.346,472.713,77.3388,474.3599,81.4252,475.7927,85.4366,477,89.3692,477,89.451,474.2,89.3642,471.4,89.2257,468.6,89.4912,465.8,89.4206,463,89.3692" style="stroke: #000000; stroke-width: 1.0;"/><path d="M482.45,182.4392 L482.9534,182.6827 L486.4452,191.4281 L492.2305,201.2831 L495.5864,209.9628 L501.0049,219.6403 L503.9054,228.0996 L509.6578,237.9386 L514.3862,247.2823 L517.4078,255.8002 L522.1309,265.1413 L527.88,274.9787 L532.0866,284.0699 L536.5494,293.2851 L540.39,302.1992 " fill="none" style="stroke: #000000; stroke-width: 1.0;"/><polygon fill="#000000" points="542.74,307.0692,542.5335,307.0622,542.5765,305.0973,542.4448,303.1265,542.5235,301.1628,542.7182,299.203,542.4059,297.226,542.4685,297.2477,541.8748,298.2394,541.5112,299.3108,541.2713,300.425,541.0425,301.543,540.5555,302.5717,540.4963,302.4006,539.512,302.2757,538.3862,301.7419,537.4234,301.679,536.3199,301.2097,535.2098,300.7213,535.143,300.642,536.5939,301.8462,538.3779,303.4455,539.6384,304.4238,541.2285,305.7931,542.74,307.0692" style="stroke: #000000; stroke-width: 1.0;"/><path d="M624.75,327.1992 L624.75,326.9845 L627.672,327.3947 L630.594,327.3892 L633.516,327.064 L636.438,327.2766 L639.36,327.1992 " fill="none" style="stroke: #000000; stroke-width: 1.0; stroke-dasharray: 1.0,3.0;"/><polygon fill="none" points="639.37,320.1992,639.3253,320.0716,643.4197,321.7413,647.2935,322.7806,651.3355,324.3008,655.441,326.002,659.37,327.1992,659.3285,327.0806,655.3137,328.4383,651.3893,330.0544,647.3961,331.4739,643.414,332.9248,639.37,334.1992,639.6106,334.1992,639.5938,331.3992,639.3051,328.5992,639.3472,325.7992,639.527,322.9992,639.37,320.1992" style="stroke: #000000; stroke-width: 1.0;"/><path d="M457.7,182.4392 L457.6084,182.3954 L453.1261,190.9705 L448.6714,199.5587 L445.3764,208.701 L441.4445,217.5391 L437.4788,226.3609 L432.7984,234.8413 L429.0723,243.7777 L424.9597,252.5294 L419.4576,260.617 L416.9023,270.1129 L411.2147,278.1119 L407.526,287.0662 L403.5,295.8592 " fill="none" style="stroke: #000000; stroke-width: 1.0;"/><polygon fill="#000000" points="401.28,300.4892,401.3167,300.5322,402.7532,299.1811,404.4098,298.0878,405.6839,296.5465,407.2712,295.372,408.7695,294.0933,408.7434,294.0195,407.749,294.6012,406.5827,294.6963,405.5222,295.0909,404.5508,295.7375,403.4358,295.9778,403.5991,296.0355,403.0989,294.9252,402.5631,293.8023,402.1298,292.7156,401.6981,291.6296,401.5513,290.6441,401.7977,290.6509,401.6017,292.616,401.5522,294.5852,401.1522,296.5447,401.3803,298.5215,401.28,300.4892" style="stroke: #000000; stroke-width: 1.0;"/><path d="M389,353.7792 L389.3935,353.7792 L389.6226,364.0483 L389.3752,374.3174 L389.7507,384.5865 L389.0118,394.8556 L389.4389,405.1247 L389.9733,415.3938 L389.0138,425.6629 L388.1669,435.9319 L388.9911,446.201 L389.4404,456.4701 L389,466.7392 " fill="none" style="stroke: #000000; stroke-width: 1.0;"/><polygon fill="#000000" points="389,471.8292,388.9031,471.7862,389.9735,470.1063,390.8036,468.3197,391.565,466.5026,392.0283,464.5529,393,462.8292,393.1297,462.959,392.354,463.7833,391.2533,464.2825,390.7256,465.3548,389.8995,466.1288,389,466.8292,389.0021,466.8313,388.0614,465.8907,387.4836,465.3128,386.656,464.4852,385.7453,463.5745,385,462.8292,384.7715,462.7277,385.6903,464.5804,386.5838,466.422,387.4868,468.2678,388.1309,469.9985,389,471.8292" style="stroke: #000000; stroke-width: 1.0;"/><path d="M596.62,531.1992 L596.62,531.4436 L599.638,530.9263 L602.656,531.3211 L605.674,530.928 L608.692,531.4921 L611.71,531.1992 " fill="none" style="stroke: #000000; stroke-width: 1.0;"/><polygon fill="none" points="611.75,524.1992,611.6877,524.0212,615.7786,525.6809,619.8315,527.2321,623.7117,528.2897,627.7862,529.9026,631.75,531.1992,631.8084,531.366,627.6813,532.4029,623.8244,534.2118,619.7519,535.4046,615.6688,536.5673,611.75,538.1992,611.5236,538.1992,611.718,535.3992,611.8946,532.5992,611.5024,529.7992,611.6267,526.9992,611.75,524.1992" style="stroke: #000000; stroke-width: 1.0;"/><path d="M318.28,327.1992 L318.28,326.9503 L321.296,327.0402 L324.312,327.5082 L327.328,327.0336 L330.344,327.2848 L333.36,327.1992 " fill="none" style="stroke: #000000; stroke-width: 1.0; stroke-dasharray: 1.0,3.0;"/><polygon fill="none" points="318.27,334.1992,318.2641,334.1823,314.3288,332.9672,310.3083,331.5087,306.2531,329.9509,302.246,328.5308,298.27,327.1992,298.2715,327.2036,302.264,325.7821,306.2103,324.2286,310.328,323.165,314.3095,321.7122,318.27,320.1992,318.2113,320.1992,318.4662,322.9992,318.5074,325.7992,318.2823,328.5992,318.4819,331.3992,318.27,334.1992" style="stroke: #000000; stroke-width: 1.0;"/><path d="M389,590.6192 L388.6423,590.6192 L389.8347,601.4352 L389.5829,612.2512 L389.6093,623.0672 L388.3938,633.8832 L389,644.6992 " fill="none" style="stroke: #000000; stroke-width: 1.0;"/><polygon fill="#000000" points="389,650.1192,389.0889,650.1587,389.8089,648.3232,390.7445,646.5835,391.4519,644.7423,392.0315,642.8443,393,641.1192,392.9908,641.11,392.2843,642.0036,391.5372,642.8564,390.6788,643.5981,389.9547,644.4739,389,645.1192,388.92,645.0392,388.2174,644.3366,387.3738,643.4931,386.5508,642.67,385.94,642.0592,385,641.1192,384.8692,641.0611,385.8767,642.9533,386.7589,644.7898,387.5041,646.5655,388.2044,648.3212,389,650.1192" style="stroke: #000000; stroke-width: 1.0;"/></g></svg>