<?xml version="1.0" encoding="UTF-8" standalone="no"?><svg xmlns="http://www.w3.org/2000/svg" xmlns:xlink="http://www.w3.org/1999/xlink" contentScriptType="application/ecmascript" contentStyleType="text/css" height="1937px" preserveAspectRatio="none" style="width:885px;height:1937px;background:#FFFFFF;" version="1.1" viewBox="0 0 885 1937" width="885px" zoomAndPan="magnify"><defs><filter height="300%" id="f1l4qwf5uddjhh" width="300%" x="-1" y="-1"><feGaussianBlur result="blurOut" stdDeviation="2.0"/><feColorMatrix in="blurOut" result="blurOut2" type="matrix" values="0 0 0 0 0 0 0 0 0 0 0 0 0 0 0 0 0 0 .4 0"/><feOffset dx="4.0" dy="4.0" in="blurOut2" result="blurOut3"/><feBlend in="SourceGraphic" in2="blurOut3" mode="normal"/></filter></defs><g><text fill="#000000" font-family="sans-serif" font-size="18" lengthAdjust="spacing" textLength="126" x="373" y="17.4023">コンテンツ管理</text><!--MD5=[db294bb267073ff133c424cf8d7e3cf4]
class Admin\ContentsController--><polygon fill="#FEFECE" filter="url(#f1l4qwf5uddjhh)" points="306.5,28.1992,306.5,28.4094,316.4545,27.7849,326.4091,28.3925,336.3636,28.5989,346.3182,27.4858,356.2727,28.1215,366.2273,27.7727,376.1818,27.8157,386.1364,28.1311,396.0909,27.5078,406.0455,28.7529,416,27.5689,425.9545,28.0015,435.9091,28.6312,445.8636,28.1134,455.8182,28.2675,465.7727,28.1673,475.7273,28.3777,485.6818,28.4384,495.6364,28.7849,505.5909,28.8703,515.5455,28.8785,525.5,28.1992,525.7546,28.1992,525.9636,38.3458,526.2022,48.4924,524.7788,58.639,526.1785,68.7856,525.2035,78.9322,526.0338,89.0788,525.005,99.2254,525.4315,109.372,526.2416,119.5186,525.4513,129.6651,525.6053,139.8117,525.8386,149.9583,525.9162,160.1049,525.4961,170.2515,525.7872,180.3981,524.9276,190.5447,525.7844,200.6913,525.5,210.8379,525.5,211.3861,515.5455,211.2824,505.5909,211.4509,495.6364,210.3548,485.6818,210.1857,475.7273,210.2165,465.7727,210.779,455.8182,210.6414,445.8636,211.5193,435.9091,210.6632,425.9545,210.4948,416,211.0662,406.0455,210.1711,396.0909,210.3188,386.1364,211.4868,376.1818,211.2736,366.2273,211.5724,356.2727,210.5161,346.3182,211.1571,336.3636,211.4283,326.4091,210.3655,316.4545,210.742,306.5,210.8379,306.626,210.8379,307.1518,200.6913,306.4958,190.5447,306.9626,180.3981,305.9462,170.2515,305.8227,160.1049,307.0036,149.9583,305.7831,139.8117,307.009,129.6651,306.7066,119.5186,306.2321,109.372,306.1462,99.2254,306.9588,89.0788,306.2007,78.9322,307.0919,68.7856,305.9473,58.639,307.1174,48.4924,306.9843,38.3458,306.5,28.1992" style="stroke:#A80036;stroke-width:1.5;"/><text fill="#000000" font-family="sans-serif" font-size="12" lengthAdjust="spacing" textLength="149" x="341.5" y="44.8008">Admin\ContentsController</text><path d="M307.5,52.332 L307.5,52.6123 L317.3636,51.7796 L327.2273,52.5897 L337.0909,52.8649 L346.9545,51.3808 L356.8182,52.2284 L366.6818,51.7634 L376.5455,51.8207 L386.4091,52.2412 L396.2727,51.4102 L406.1364,53.0702 L416,51.4917 L425.8636,52.0683 L435.7273,52.908 L445.5909,52.2177 L455.4545,52.423 L465.3182,52.2894 L475.1818,52.5701 L485.0455,52.6509 L494.9091,53.113 L504.7727,53.2268 L514.6364,53.2377 L524.5,52.332 " fill="#FEFECE" style="stroke:#A80036;stroke-width:1.5;"/><text fill="#000000" font-family="sans-serif" font-size="11" lengthAdjust="spacing" textLength="151" x="312.5" y="66.9668">+AuthenticationComponent</text><text fill="#000000" font-family="sans-serif" font-size="11" lengthAdjust="spacing" textLength="130" x="312.5" y="79.9219">+BcMessageComponent</text><text fill="#000000" font-family="sans-serif" font-size="11" lengthAdjust="spacing" textLength="168" x="312.5" y="92.877">+BcAdminContentsComponent</text><path d="M307.5,99.1973 L307.5,99.4775 L317.3636,98.6448 L327.2273,99.455 L337.0909,99.7302 L346.9545,98.2461 L356.8182,99.0936 L366.6818,98.6286 L376.5455,98.6859 L386.4091,99.1064 L396.2727,98.2754 L406.1364,99.9355 L416,98.3569 L425.8636,98.9336 L435.7273,99.7732 L445.5909,99.0829 L455.4545,99.2883 L465.3182,99.1547 L475.1818,99.4353 L485.0455,99.5161 L494.9091,99.9782 L504.7727,100.092 L514.6364,100.1029 L524.5,99.1973 " fill="#FEFECE" style="stroke:#A80036;stroke-width:1.5;"/><text fill="#000000" font-family="sans-serif" font-size="11" lengthAdjust="spacing" textLength="155" x="312.5" y="113.832">+コンテンツ一覧表示 : index()</text><text fill="#000000" font-family="sans-serif" font-size="11" lengthAdjust="spacing" textLength="167" x="312.5" y="126.7871">+ゴミ箱一覧表示 : trash_index()</text><text fill="#000000" font-family="sans-serif" font-size="11" lengthAdjust="spacing" textLength="193" x="312.5" y="139.7422">+ゴミ箱をもとに戻す : trash_return()</text><text fill="#000000" font-family="sans-serif" font-size="11" lengthAdjust="spacing" textLength="123" x="312.5" y="152.6973">+コンテンツ編集 : edit()</text><text fill="#000000" font-family="sans-serif" font-size="11" lengthAdjust="spacing" textLength="153" x="312.5" y="165.6523">+エイリアス編集 : edit_alias()</text><text fill="#000000" font-family="sans-serif" font-size="11" lengthAdjust="spacing" textLength="135" x="312.5" y="178.6074">+コンテンツ削除 : delete()</text><text fill="#000000" font-family="sans-serif" font-size="11" lengthAdjust="spacing" textLength="207" x="312.5" y="191.5625">+一括処理(公開・非公開・削除) : batch()</text><text fill="#000000" font-family="sans-serif" font-size="11" lengthAdjust="spacing" textLength="181" x="312.5" y="204.5176">+ゴミ箱を空にする : trash_empty()</text><!--MD5=[a0ad735f5ba24ba3674e71fcd12e011f]
class BcAdminContentsComponent--><polygon fill="#FEFECE" filter="url(#f1l4qwf5uddjhh)" points="99,67.1992,99,67.4094,109.1176,66.7849,119.2353,67.3925,129.3529,67.5989,139.4706,66.4858,149.5882,67.1215,159.7059,66.7727,169.8235,66.8157,179.9412,67.1311,190.0588,66.5078,200.1765,67.7529,210.2941,66.5689,220.4118,67.0015,230.5294,67.6312,240.6471,67.1134,250.7647,67.2675,260.8824,67.1673,271,67.1992,271.1785,67.1992,271.2391,77.69,271.5857,88.1809,271.6711,98.6717,271.6793,109.1625,271.2546,119.6533,271.4636,130.1441,271.7022,140.635,270.2788,151.1258,271.6785,161.6166,271,172.1074,271,171.8109,260.8824,172.6412,250.7647,171.6124,240.6471,172.0389,230.5294,172.849,220.4118,172.0587,210.2941,172.2127,200.1765,172.446,190.0588,172.5237,179.9412,172.1035,169.8235,172.3946,159.7059,171.535,149.5882,172.3918,139.4706,172.6556,129.3529,172.552,119.2353,172.7204,109.1176,171.6243,99,172.1074,98.3478,172.1074,98.3786,161.6166,98.9411,151.1258,98.8035,140.635,99.6814,130.1441,98.8253,119.6533,98.6569,109.1625,99.2283,98.6717,98.3332,88.1809,98.4809,77.69,99,67.1992" style="stroke:#A80036;stroke-width:1.5;"/><text fill="#000000" font-family="sans-serif" font-size="12" lengthAdjust="spacing" textLength="166" x="102" y="83.8008">BcAdminContentsComponent</text><path d="M100,91.332 L100,91.6123 L110,90.7796 L120,91.5897 L130,91.8649 L140,90.3808 L150,91.2284 L160,90.7634 L170,90.8207 L180,91.2412 L190,90.4102 L200,92.0702 L210,90.4917 L220,91.0683 L230,91.908 L240,91.2177 L250,91.423 L260,91.2894 L270,91.332 " fill="#FEFECE" style="stroke:#A80036;stroke-width:1.5;"/><path d="M100,99.332 L100,99.6123 L110,98.7796 L120,99.5897 L130,99.8649 L140,98.3808 L150,99.2284 L160,98.7634 L170,98.8207 L180,99.2412 L190,98.4102 L200,100.0702 L210,98.4917 L220,99.0683 L230,99.908 L240,99.2177 L250,99.423 L260,99.2894 L270,99.332 " fill="#FEFECE" style="stroke:#A80036;stroke-width:1.5;"/><text fill="#000000" font-family="sans-serif" font-size="11" lengthAdjust="spacing" textLength="61" x="105" y="113.9668">+initialize()</text><text fill="#000000" font-family="sans-serif" font-size="11" lengthAdjust="spacing" textLength="82" x="105" y="126.9219">+setupAdmin()</text><text fill="#000000" font-family="sans-serif" font-size="11" lengthAdjust="spacing" textLength="82" x="105" y="139.877">+settingForm()</text><text fill="#000000" font-family="sans-serif" font-size="11" lengthAdjust="spacing" textLength="130" x="105" y="152.832">+checkContentEntities()</text><text fill="#000000" font-family="sans-serif" font-size="11" lengthAdjust="spacing" textLength="90" x="105" y="165.7871">+beforeRender()</text><!--MD5=[fba55504e8dc2f05ccbef2d6460075cb]
class BcFrontContentsComponent--><polygon fill="#FEFECE" filter="url(#f1l4qwf5uddjhh)" points="561,86.6992,561,86.9094,571.25,86.2849,581.5,86.8925,591.75,87.0989,602,85.9858,612.25,86.6215,622.5,86.2727,632.75,86.3157,643,86.6311,653.25,86.0078,663.5,87.2529,673.75,86.0689,684,86.5015,694.25,87.1312,704.5,86.6134,714.75,86.7675,725,86.6992,724.9681,86.6992,725.1785,96.1339,725.2391,105.5686,725.5857,115.0033,725.6711,124.4381,725.6793,133.8728,725.2546,143.3075,725,152.7422,725,153.2058,714.75,153.4444,704.5,152.021,694.25,153.4207,684,152.4457,673.75,153.276,663.5,152.2472,653.25,152.6737,643,153.4838,632.75,152.6935,622.5,152.8475,612.25,153.0808,602,153.1584,591.75,152.7383,581.5,153.0294,571.25,152.1698,561,152.7422,561.2844,152.7422,561.5482,143.3075,561.4445,133.8728,561.613,124.4381,560.5169,115.0033,560.3478,105.5686,560.3786,96.1339,561,86.6992" style="stroke:#A80036;stroke-width:1.5;"/><text fill="#000000" font-family="sans-serif" font-size="12" lengthAdjust="spacing" textLength="158" x="564" y="103.3008">BcFrontContentsComponent</text><path d="M562,110.832 L562,111.1123 L572.125,110.2796 L582.25,111.0897 L592.375,111.3649 L602.5,109.8808 L612.625,110.7284 L622.75,110.2634 L632.875,110.3207 L643,110.7412 L653.125,109.9102 L663.25,111.5702 L673.375,109.9917 L683.5,110.5683 L693.625,111.408 L703.75,110.7177 L713.875,110.923 L724,110.832 " fill="#FEFECE" style="stroke:#A80036;stroke-width:1.5;"/><path d="M562,118.832 L562,119.1123 L572.125,118.2796 L582.25,119.0897 L592.375,119.3649 L602.5,117.8808 L612.625,118.7284 L622.75,118.2634 L632.875,118.3207 L643,118.7412 L653.125,117.9102 L663.25,119.5702 L673.375,117.9917 L683.5,118.5683 L693.625,119.408 L703.75,118.7177 L713.875,118.923 L724,118.832 " fill="#FEFECE" style="stroke:#A80036;stroke-width:1.5;"/><text fill="#000000" font-family="sans-serif" font-size="11" lengthAdjust="spacing" textLength="76" x="567" y="133.4668">+setupFront()</text><text fill="#000000" font-family="sans-serif" font-size="11" lengthAdjust="spacing" textLength="77" x="567" y="146.4219">+getCrumbs()</text><!--MD5=[3f1bbc9c6ab6a824ad709fd85b1f4801]
class BcAdminContentHelper--><polygon fill="#FEFECE" filter="url(#f1l4qwf5uddjhh)" points="500.5,420.1992,500.5,420.4094,510.6765,419.7849,520.8529,420.3925,531.0294,420.5989,541.2059,419.4858,551.3824,420.1215,561.5588,419.7727,571.7353,419.8157,581.9118,420.1311,592.0882,419.5078,602.2647,420.7529,612.4412,419.5689,622.6176,420.0015,632.7941,420.6312,642.9706,420.1134,653.1471,420.2675,663.3235,420.1673,673.5,420.1992,673.6785,420.1992,673.7391,429.9789,674.0857,439.7586,674.1711,449.5383,674.1793,459.318,673.7546,469.0977,673.9636,478.8773,674.2022,488.657,672.7788,498.4367,674.1785,508.2164,673.2035,517.9961,674.0338,527.7758,673.005,537.5555,673.4315,547.3352,674.2416,557.1148,673.4513,566.8945,673.6053,576.6742,673.8386,586.4539,673.9162,596.2336,673.4961,606.0133,673.5,615.793,673.5,616.0802,663.3235,615.2206,653.1471,616.0774,642.9706,616.3412,632.7941,616.2375,622.6176,616.406,612.4412,615.3099,602.2647,615.1408,592.0882,615.1716,581.9118,615.7341,571.7353,615.5964,561.5588,616.4744,551.3824,615.6183,541.2059,615.4499,531.0294,616.0212,520.8529,615.1261,510.6765,615.2738,500.5,615.793,501.149,615.793,500.9357,606.0133,501.2345,596.2336,500.1782,586.4539,500.8192,576.6742,501.0904,566.8945,500.0276,557.1148,500.4041,547.3352,500.626,537.5555,501.1518,527.7758,500.4958,517.9961,500.9626,508.2164,499.9462,498.4367,499.8227,488.657,501.0036,478.8773,499.7831,469.0977,501.009,459.318,500.7066,449.5383,500.2321,439.7586,500.1462,429.9789,500.5,420.1992" style="stroke:#A80036;stroke-width:1.5;"/><text fill="#000000" font-family="sans-serif" font-size="12" lengthAdjust="spacing" textLength="133" x="520.5" y="436.8008">BcAdminContentHelper</text><path d="M501.5,444.332 L501.5,444.6123 L511.5588,443.7796 L521.6176,444.5897 L531.6765,444.8649 L541.7353,443.3808 L551.7941,444.2284 L561.8529,443.7634 L571.9118,443.8207 L581.9706,444.2412 L592.0294,443.4102 L602.0882,445.0702 L612.1471,443.4917 L622.2059,444.0683 L632.2647,444.908 L642.3235,444.2177 L652.3824,444.423 L662.4412,444.2894 L672.5,444.332 " fill="#FEFECE" style="stroke:#A80036;stroke-width:1.5;"/><path d="M501.5,452.332 L501.5,452.6123 L511.5588,451.7796 L521.6176,452.5897 L531.6765,452.8649 L541.7353,451.3808 L551.7941,452.2284 L561.8529,451.7634 L571.9118,451.8207 L581.9706,452.2412 L592.0294,451.4102 L602.0882,453.0702 L612.1471,451.4917 L622.2059,452.0683 L632.2647,452.908 L642.3235,452.2177 L652.3824,452.423 L662.4412,452.2894 L672.5,452.332 " fill="#FEFECE" style="stroke:#A80036;stroke-width:1.5;"/><text fill="#000000" font-family="sans-serif" font-size="11" lengthAdjust="spacing" textLength="78" x="506.5" y="466.9668">+getUserList()</text><text fill="#000000" font-family="sans-serif" font-size="11" lengthAdjust="spacing" textLength="85" x="506.5" y="479.9219">+getListTypes()</text><text fill="#000000" font-family="sans-serif" font-size="11" lengthAdjust="spacing" textLength="59" x="506.5" y="492.877">+getSites()</text><text fill="#000000" font-family="sans-serif" font-size="11" lengthAdjust="spacing" textLength="130" x="506.5" y="505.832">+getContentFolderList()</text><text fill="#000000" font-family="sans-serif" font-size="11" lengthAdjust="spacing" textLength="47" x="506.5" y="518.7871">+setup()</text><text fill="#000000" font-family="sans-serif" font-size="11" lengthAdjust="spacing" textLength="109" x="506.5" y="531.7422">+isActionAvailable()</text><text fill="#000000" font-family="sans-serif" font-size="11" lengthAdjust="spacing" textLength="98" x="506.5" y="544.6973">-_getExistsTitles()</text><text fill="#000000" font-family="sans-serif" font-size="11" lengthAdjust="spacing" textLength="76" x="506.5" y="557.6523">-_getIconUrl()</text><text fill="#000000" font-family="sans-serif" font-size="11" lengthAdjust="spacing" textLength="100" x="506.5" y="570.6074">+getJsonSettings()</text><text fill="#000000" font-family="sans-serif" font-size="11" lengthAdjust="spacing" textLength="68" x="506.5" y="583.5625">+isEditable()</text><text fill="#000000" font-family="sans-serif" font-size="11" lengthAdjust="spacing" textLength="161" x="506.5" y="596.5176">+getCurrentFolderLinkedUrl()</text><text fill="#000000" font-family="sans-serif" font-size="11" lengthAdjust="spacing" textLength="119" x="506.5" y="609.4727">+getFolderLinkedUrl()</text><!--MD5=[f336f7166290e46d20ded4bf7ec83a7c]
class BcContentsHelper--><polygon fill="#FEFECE" filter="url(#f1l4qwf5uddjhh)" points="709,362.1992,709,362.4094,719.125,361.7849,729.25,362.3925,739.375,362.5989,749.5,361.4858,759.625,362.1215,769.75,361.7727,779.875,361.8157,790,362.1311,800.125,361.5078,810.25,362.7529,820.375,361.5689,830.5,362.0015,840.625,362.6312,850.75,362.1134,860.875,362.2675,871,362.1992,870.9681,362.1992,871.1785,372.2698,871.2391,382.3405,871.5857,392.4111,871.6711,402.4817,871.6793,412.5524,871.2546,422.623,871.4636,432.6936,871.7022,442.7642,870.2788,452.8349,871.6785,462.9055,870.7035,472.9761,871.5338,483.0467,870.505,493.1174,870.9315,503.188,871.7416,513.2586,870.9513,523.3293,871.1053,533.3999,871.3386,543.4705,871.4162,553.5411,870.9961,563.6118,871.2872,573.6824,870.4276,583.753,871.2844,593.8237,871.5482,603.8943,871.4445,613.9649,871.613,624.0355,870.5169,634.1062,870.3478,644.1768,870.3786,654.2474,870.9411,664.318,871,674.3887,871,674.1921,860.875,675.0701,850.75,674.214,840.625,674.0456,830.5,674.6169,820.375,673.7218,810.25,673.8695,800.125,675.0376,790,674.8243,779.875,675.1232,769.75,674.0669,759.625,674.7079,749.5,674.9791,739.375,673.9163,729.25,674.2928,719.125,674.5147,709,674.3887,709.6518,674.3887,708.9958,664.318,709.4626,654.2474,708.4462,644.1768,708.3227,634.1062,709.5036,624.0355,708.2831,613.9649,709.509,603.8943,709.2066,593.8237,708.7321,583.753,708.6462,573.6824,709.4588,563.6118,708.7007,553.5411,709.5919,543.4705,708.4473,533.3999,709.6174,523.3293,709.4843,513.2586,709.245,503.188,709.0472,493.1174,709.7266,483.0467,709.6136,472.9761,709.1693,462.9055,709.2682,452.8349,708.8697,442.7642,709.7165,432.6936,709.1549,422.623,709.1726,412.5524,708.3916,402.4817,708.5948,392.4111,709.5307,382.3405,709.4298,372.2698,709,362.1992" style="stroke:#A80036;stroke-width:1.5;"/><text fill="#000000" font-family="sans-serif" font-size="12" lengthAdjust="spacing" textLength="102" x="739" y="378.8008">BcContentsHelper</text><path d="M710,386.332 L710,386.6123 L720,385.7796 L730,386.5897 L740,386.8649 L750,385.3808 L760,386.2284 L770,385.7634 L780,385.8207 L790,386.2412 L800,385.4102 L810,387.0702 L820,385.4917 L830,386.0683 L840,386.908 L850,386.2177 L860,386.423 L870,386.332 " fill="#FEFECE" style="stroke:#A80036;stroke-width:1.5;"/><text fill="#000000" font-family="sans-serif" font-size="11" lengthAdjust="spacing" textLength="85" x="715" y="400.9668">+BcBaserHelper</text><text fill="#000000" font-family="sans-serif" font-size="11" lengthAdjust="spacing" textLength="84" x="715" y="413.9219">-ContentsTable</text><text fill="#000000" font-family="sans-serif" font-size="11" lengthAdjust="spacing" textLength="100" x="715" y="426.877">-PermissionsTable</text><path d="M710,433.1973 L710,433.4775 L720,432.6448 L730,433.455 L740,433.7302 L750,432.2461 L760,433.0936 L770,432.6286 L780,432.6859 L790,433.1064 L800,432.2754 L810,433.9355 L820,432.3569 L830,432.9336 L840,433.7732 L850,433.0829 L860,433.2883 L870,433.1973 " fill="#FEFECE" style="stroke:#A80036;stroke-width:1.5;"/><text fill="#000000" font-family="sans-serif" font-size="11" lengthAdjust="spacing" textLength="94" x="715" y="447.832">+isAllowPublish()</text><text fill="#000000" font-family="sans-serif" font-size="11" lengthAdjust="spacing" textLength="72" x="715" y="460.7871">+getUrlById()</text><text fill="#000000" font-family="sans-serif" font-size="11" lengthAdjust="spacing" textLength="50" x="715" y="473.7422">+getUrl()</text><text fill="#000000" font-family="sans-serif" font-size="11" lengthAdjust="spacing" textLength="84" x="715" y="486.6973">+isSiteRelated()</text><text fill="#000000" font-family="sans-serif" font-size="11" lengthAdjust="spacing" textLength="74" x="715" y="499.6523">+getPureUrl()</text><text fill="#000000" font-family="sans-serif" font-size="11" lengthAdjust="spacing" textLength="150" x="715" y="512.6074">+getCurrentRelatedSiteUrl()</text><text fill="#000000" font-family="sans-serif" font-size="11" lengthAdjust="spacing" textLength="58" x="715" y="525.5625">+getTree()</text><text fill="#000000" font-family="sans-serif" font-size="11" lengthAdjust="spacing" textLength="68" x="715" y="538.5176">+getParent()</text><text fill="#000000" font-family="sans-serif" font-size="11" lengthAdjust="spacing" textLength="141" x="715" y="551.4727">+getRelatedSiteContents()</text><text fill="#000000" font-family="sans-serif" font-size="11" lengthAdjust="spacing" textLength="120" x="715" y="564.4277">+getRelatedSiteLinks()</text><text fill="#000000" font-family="sans-serif" font-size="11" lengthAdjust="spacing" textLength="130" x="715" y="577.3828">+getContentFolderList()</text><text fill="#000000" font-family="sans-serif" font-size="11" lengthAdjust="spacing" textLength="78" x="715" y="590.3379">+getSiteRoot()</text><text fill="#000000" font-family="sans-serif" font-size="11" lengthAdjust="spacing" textLength="88" x="715" y="603.293">+getSiteRootId()</text><text fill="#000000" font-family="sans-serif" font-size="11" lengthAdjust="spacing" textLength="129" x="715" y="616.248">+getContentByEntityId()</text><text fill="#000000" font-family="sans-serif" font-size="11" lengthAdjust="spacing" textLength="105" x="715" y="629.2031">+getContentByUrl()</text><text fill="#000000" font-family="sans-serif" font-size="11" lengthAdjust="spacing" textLength="80" x="715" y="642.1582">-_getContent()</text><text fill="#000000" font-family="sans-serif" font-size="11" lengthAdjust="spacing" textLength="70" x="715" y="655.1133">+isParentId()</text><text fill="#000000" font-family="sans-serif" font-size="11" lengthAdjust="spacing" textLength="60" x="715" y="668.0684">+isFolder()</text><!--MD5=[084445e2f07b50279f4b2223390185b4]
class ContentService--><polygon fill="#FEFECE" filter="url(#f1l4qwf5uddjhh)" points="366.5,491.6992,366.5,491.9094,376.4,491.2849,386.3,491.8925,396.2,492.0989,406.1,490.9858,416,491.6215,425.9,491.2727,435.8,491.3157,445.7,491.6311,455.6,491.0078,465.5,491.6992,466.0536,491.6992,464.8697,502.3168,465.3022,512.9344,465.9319,523.552,465.4142,534.1695,465.5,544.7871,465.5,544.8553,455.6,544.7552,445.7,544.9656,435.8,545.0262,425.9,545.3728,416,545.4582,406.1,545.4664,396.2,545.0417,386.3,545.2507,376.4,545.4893,366.5,544.7871,365.7788,544.7871,367.1785,534.1695,366.2035,523.552,367.0338,512.9344,366.005,502.3168,366.5,491.6992" style="stroke:#A80036;stroke-width:1.5;"/><text fill="#000000" font-family="sans-serif" font-size="12" lengthAdjust="spacing" textLength="84" x="374" y="508.3008">ContentService</text><path d="M367.5,515.832 L367.5,516.1123 L377.2,515.2796 L386.9,516.0897 L396.6,516.3649 L406.3,514.8808 L416,515.7284 L425.7,515.2634 L435.4,515.3207 L445.1,515.7412 L454.8,514.9102 L464.5,515.832 " fill="#FEFECE" style="stroke:#A80036;stroke-width:1.5;"/><text fill="#000000" font-family="sans-serif" font-size="11" lengthAdjust="spacing" textLength="87" x="372.5" y="530.4668">+ContentsTable</text><path d="M367.5,536.7871 L367.5,537.0674 L377.2,536.2347 L386.9,537.0448 L396.6,537.32 L406.3,535.8359 L416,536.6835 L425.7,536.2185 L435.4,536.2758 L445.1,536.6962 L454.8,535.8653 L464.5,536.7871 " fill="#FEFECE" style="stroke:#A80036;stroke-width:1.5;"/><!--MD5=[0fd42b747fce3697971fe54425541b52]
class ContentsTable--><polygon fill="#FEFECE" filter="url(#f1l4qwf5uddjhh)" points="326,825.1992,326,825.4094,336,824.7849,346,825.3925,356,825.5989,366,824.4858,376,825.1215,386,824.7727,396,824.8157,406,825.1311,416,824.5078,426,825.7529,436,824.5689,446,825.0015,456,825.6312,466,825.1134,476,825.2675,486,825.1673,496,825.3777,506,825.1992,506.2391,825.1992,506.5857,835.1695,506.6711,845.1398,506.6793,855.1101,506.2546,865.0804,506.4636,875.0506,506.7022,885.0209,505.2788,894.9912,506.6785,904.9615,505.7035,914.9318,506.5338,924.9021,505.505,934.8723,505.9315,944.8426,506.7416,954.8129,505.9513,964.7832,506.1053,974.7535,506.3386,984.7238,506.4162,994.6941,505.9961,1004.6643,506.2872,1014.6346,505.4276,1024.6049,506.2844,1034.5752,506.5482,1044.5455,506.4445,1054.5158,506.613,1064.486,505.5169,1074.4563,505.3478,1084.4266,505.3786,1094.3969,505.9411,1104.3672,505.8035,1114.3375,506.6814,1124.3078,505.8253,1134.278,505.6569,1144.2483,506.2283,1154.2186,505.3332,1164.1889,505.4809,1174.1592,506.649,1184.1295,506.4357,1194.0997,506.7345,1204.07,505.6782,1214.0403,506.3192,1224.0106,506.5904,1233.9809,505.5276,1243.9512,505.9041,1253.9215,506.126,1263.8917,506.6518,1273.862,505.9958,1283.8323,506.4626,1293.8026,505.4462,1303.7729,505.3227,1313.7432,506.5036,1323.7134,505.2831,1333.6837,506.509,1343.654,506.2066,1353.6243,505.7321,1363.5946,505.6462,1373.5649,506,1383.5352,506,1383.9939,496,1383.2358,486,1384.127,476,1382.9824,466,1384.1526,456,1384.0195,446,1383.7801,436,1383.5824,426,1384.2618,416,1384.1487,406,1383.7044,396,1383.8033,386,1383.4049,376,1384.2516,366,1383.69,356,1383.7077,346,1382.9268,336,1383.1299,326,1383.5352,326.5307,1383.5352,326.4298,1373.5649,325.9571,1363.5946,325.6778,1353.6243,325.7811,1343.654,325.3138,1333.6837,326.4147,1323.7134,326.7396,1313.7432,326.5264,1303.7729,326.6949,1293.8026,325.8633,1283.8323,326.0872,1273.862,325.6124,1263.8917,326.284,1253.9215,326.2468,1243.9512,326.5524,1233.9809,325.7703,1224.0106,325.8656,1214.0403,326.4435,1204.07,326.5673,1194.0997,325.4875,1184.1295,325.8061,1174.1592,326.1493,1164.1889,325.3892,1154.2186,326.3534,1144.2483,326.258,1134.278,325.8992,1124.3078,326.1422,1114.3375,326.7287,1104.3672,325.6871,1094.3969,326.315,1084.4266,326.2856,1074.4563,326.1158,1064.486,326.1409,1054.5158,326.1135,1044.5455,325.3758,1034.5752,325.5992,1024.6049,325.5385,1014.6346,326.0638,1004.6643,326.0881,994.6941,326.1617,984.7238,325.709,974.7535,325.9325,964.7832,325.8798,954.8129,326.5769,944.8426,326.4266,934.8723,325.5145,924.9021,325.9271,914.9318,325.4228,904.9615,326.2884,894.9912,326.6085,885.0209,326.5446,875.0506,325.5644,865.0804,326.464,855.1101,325.2572,845.1398,326.2002,835.1695,326,825.1992" style="stroke:#A80036;stroke-width:1.5;"/><text fill="#000000" font-family="sans-serif" font-size="12" lengthAdjust="spacing" textLength="83" x="374.5" y="841.8008">ContentsTable</text><path d="M327,849.332 L327,849.6123 L336.8889,848.7796 L346.7778,849.5897 L356.6667,849.8649 L366.5556,848.3808 L376.4444,849.2284 L386.3333,848.7634 L396.2222,848.8207 L406.1111,849.2412 L416,848.4102 L425.8889,850.0702 L435.7778,848.4917 L445.6667,849.0683 L455.5556,849.908 L465.4444,849.2177 L475.3333,849.423 L485.2222,849.2894 L495.1111,849.5701 L505,849.332 " fill="#FEFECE" style="stroke:#A80036;stroke-width:1.5;"/><path d="M327,857.332 L327,857.6123 L336.8889,856.7796 L346.7778,857.5897 L356.6667,857.8649 L366.5556,856.3808 L376.4444,857.2284 L386.3333,856.7634 L396.2222,856.8207 L406.1111,857.2412 L416,856.4102 L425.8889,858.0702 L435.7778,856.4917 L445.6667,857.0683 L455.5556,857.908 L465.4444,857.2177 L475.3333,857.423 L485.2222,857.2894 L495.1111,857.5701 L505,857.332 " fill="#FEFECE" style="stroke:#A80036;stroke-width:1.5;"/><text fill="#000000" font-family="sans-serif" font-size="11" lengthAdjust="spacing" textLength="61" x="332" y="871.9668">+initialize()</text><text fill="#000000" font-family="sans-serif" font-size="11" lengthAdjust="spacing" textLength="121" x="332" y="884.9219">+implementedEvents()</text><text fill="#000000" font-family="sans-serif" font-size="11" lengthAdjust="spacing" textLength="107" x="332" y="897.877">+validationDefault()</text><text fill="#000000" font-family="sans-serif" font-size="11" lengthAdjust="spacing" textLength="167" x="332" y="910.832">+duplicateRelatedSiteContent()</text><text fill="#000000" font-family="sans-serif" font-size="11" lengthAdjust="spacing" textLength="94" x="332" y="923.7871">+beforeMarshal()</text><text fill="#000000" font-family="sans-serif" font-size="11" lengthAdjust="spacing" textLength="84" x="332" y="936.7422">+afterMarshal()</text><text fill="#000000" font-family="sans-serif" font-size="11" lengthAdjust="spacing" textLength="84" x="332" y="949.6973">+afterValidate()</text><text fill="#000000" font-family="sans-serif" font-size="11" lengthAdjust="spacing" textLength="65" x="332" y="962.6523">+getTrash()</text><text fill="#000000" font-family="sans-serif" font-size="11" lengthAdjust="spacing" textLength="59" x="332" y="975.6074">+hardDel()</text><text fill="#000000" font-family="sans-serif" font-size="11" lengthAdjust="spacing" textLength="102" x="332" y="988.5625">+getUniqueName()</text><text fill="#000000" font-family="sans-serif" font-size="11" lengthAdjust="spacing" textLength="76" x="332" y="1001.5176">+beforeSave()</text><text fill="#000000" font-family="sans-serif" font-size="11" lengthAdjust="spacing" textLength="66" x="332" y="1014.4727">+afterSave()</text><text fill="#000000" font-family="sans-serif" font-size="11" lengthAdjust="spacing" textLength="115" x="332" y="1027.4277">+deleteAssocCache()</text><text fill="#000000" font-family="sans-serif" font-size="11" lengthAdjust="spacing" textLength="75" x="332" y="1040.3828">+afterDelete()</text><text fill="#000000" font-family="sans-serif" font-size="11" lengthAdjust="spacing" textLength="75" x="332" y="1053.3379">+deleteAlias()</text><text fill="#000000" font-family="sans-serif" font-size="11" lengthAdjust="spacing" textLength="163" x="332" y="1066.293">+deleteRelateSubSiteContent()</text><text fill="#000000" font-family="sans-serif" font-size="11" lengthAdjust="spacing" textLength="168" x="332" y="1079.248">+updateRelateSubSiteContent()</text><text fill="#000000" font-family="sans-serif" font-size="11" lengthAdjust="spacing" textLength="143" x="332" y="1092.2031">+copyContentFolderPath()</text><text fill="#000000" font-family="sans-serif" font-size="11" lengthAdjust="spacing" textLength="58" x="332" y="1105.1582">+pureUrl()</text><text fill="#000000" font-family="sans-serif" font-size="11" lengthAdjust="spacing" textLength="93" x="332" y="1118.1133">+createContent()</text><text fill="#000000" font-family="sans-serif" font-size="11" lengthAdjust="spacing" textLength="66" x="332" y="1131.0684">+createUrl()</text><text fill="#000000" font-family="sans-serif" font-size="11" lengthAdjust="spacing" textLength="116" x="332" y="1144.0234">+updateSystemData()</text><text fill="#000000" font-family="sans-serif" font-size="11" lengthAdjust="spacing" textLength="87" x="332" y="1156.9785">+isPublishById()</text><text fill="#000000" font-family="sans-serif" font-size="11" lengthAdjust="spacing" textLength="100" x="332" y="1169.9336">+updateChildren()</text><text fill="#000000" font-family="sans-serif" font-size="11" lengthAdjust="spacing" textLength="76" x="332" y="1182.8887">+findByType()</text><text fill="#000000" font-family="sans-serif" font-size="11" lengthAdjust="spacing" textLength="87" x="332" y="1195.8438">+deleteByType()</text><text fill="#000000" font-family="sans-serif" font-size="11" lengthAdjust="spacing" textLength="155" x="332" y="1208.7988">+getConditionAllowPublish()</text><text fill="#000000" font-family="sans-serif" font-size="11" lengthAdjust="spacing" textLength="65" x="332" y="1221.7539">+isPublish()</text><text fill="#000000" font-family="sans-serif" font-size="11" lengthAdjust="spacing" textLength="107" x="332" y="1234.709">+isChangedStatus()</text><text fill="#000000" font-family="sans-serif" font-size="11" lengthAdjust="spacing" textLength="117" x="332" y="1247.6641">+getParentTemplate()</text><text fill="#000000" font-family="sans-serif" font-size="11" lengthAdjust="spacing" textLength="141" x="332" y="1260.6191">+getRelatedSiteContents()</text><text fill="#000000" font-family="sans-serif" font-size="11" lengthAdjust="spacing" textLength="93" x="332" y="1273.5742">+getCacheTime()</text><text fill="#000000" font-family="sans-serif" font-size="11" lengthAdjust="spacing" textLength="84" x="332" y="1286.5293">+updateAllUrl()</text><text fill="#000000" font-family="sans-serif" font-size="11" lengthAdjust="spacing" textLength="116" x="332" y="1299.4844">+updateChildrenUrl()</text><text fill="#000000" font-family="sans-serif" font-size="11" lengthAdjust="spacing" textLength="68" x="332" y="1312.4395">+resetTree()</text><text fill="#000000" font-family="sans-serif" font-size="11" lengthAdjust="spacing" textLength="66" x="332" y="1325.3945">+findByUrl()</text><text fill="#000000" font-family="sans-serif" font-size="11" lengthAdjust="spacing" textLength="128" x="332" y="1338.3496">+getOrderSameParent()</text><text fill="#000000" font-family="sans-serif" font-size="11" lengthAdjust="spacing" textLength="79" x="332" y="1351.3047">+moveOffset()</text><text fill="#000000" font-family="sans-serif" font-size="11" lengthAdjust="spacing" textLength="166" x="332" y="1364.2598">+disableUpdatingSystemData()</text><text fill="#000000" font-family="sans-serif" font-size="11" lengthAdjust="spacing" textLength="163" x="332" y="1377.2148">+enableUpdatingSystemData()</text><!--MD5=[fd7366e9f96236d9aa60dcc04f2b83e5]
class Content--><polygon fill="#FEFECE" filter="url(#f1l4qwf5uddjhh)" points="7,863.6992,7,863.9094,17.1429,863.2849,27.2857,863.8925,37.4286,864.0989,47.5714,862.9858,57.7143,863.6215,67.8571,863.2727,78,863.3157,88.1429,863.6311,98.2857,863.0078,108.4286,864.2529,118.5714,863.0689,128.7143,863.5015,138.8571,864.1312,149,863.6134,159.1429,863.7675,169.2857,863.6673,179.4286,863.8777,189.5714,863.9384,199.7143,864.2849,209.8571,864.3703,220,864.3785,230.1429,863.9538,240.2857,864.1628,250.4286,864.4015,260.5714,862.978,270.7143,864.3777,280.8571,863.4027,291,863.6992,291.5338,863.6992,290.505,873.7118,290.9315,883.7244,291.7416,893.7371,290.9513,903.7497,291.1053,913.7623,291.3386,923.7749,291.4162,933.7875,290.9961,943.8001,291.2872,953.8127,290.4276,963.8254,291.2844,973.838,291.5482,983.8506,291.4445,993.8632,291.613,1003.8758,290.5169,1013.8884,290.3478,1023.901,290.3786,1033.9137,290.9411,1043.9263,290.8035,1053.9389,291.6814,1063.9515,290.8253,1073.9641,290.6569,1083.9767,291.2283,1093.9893,290.3332,1104.002,290.4809,1114.0146,291.649,1124.0272,291.4357,1134.0398,291.7345,1144.0524,290.6782,1154.065,291.3192,1164.0776,291.5904,1174.0903,290.5276,1184.1029,290.9041,1194.1155,291.126,1204.1281,291.6518,1214.1407,290.9958,1224.1533,291.4626,1234.1659,290.4462,1244.1785,290.3227,1254.1912,291.5036,1264.2038,290.2831,1274.2164,291.509,1284.229,291.2066,1294.2416,290.7321,1304.2542,290.6462,1314.2668,291.4588,1324.2795,290.7007,1334.2921,291,1344.3047,291,1344.8965,280.8571,1343.7519,270.7143,1344.9221,260.5714,1344.789,250.4286,1344.5497,240.2857,1344.3519,230.1429,1345.0313,220,1344.9183,209.8571,1344.4739,199.7143,1344.5729,189.5714,1344.1744,179.4286,1345.0211,169.2857,1344.4596,159.1429,1344.4773,149,1343.6963,138.8571,1343.8995,128.7143,1344.8354,118.5714,1344.7344,108.4286,1344.2618,98.2857,1343.9825,88.1429,1344.0858,78,1343.6185,67.8571,1344.7194,57.7143,1345.0443,47.5714,1344.8311,37.4286,1344.9996,27.2857,1344.168,17.1429,1344.3919,7,1344.3047,6.6124,1344.3047,7.284,1334.2921,7.2468,1324.2795,7.5524,1314.2668,6.7703,1304.2542,6.8656,1294.2416,7.4435,1284.229,7.5673,1274.2164,6.4875,1264.2038,6.8061,1254.1912,7.1493,1244.1785,6.3892,1234.1659,7.3534,1224.1533,7.258,1214.1407,6.8992,1204.1281,7.1422,1194.1155,7.7287,1184.1029,6.6871,1174.0903,7.315,1164.0776,7.2856,1154.065,7.1158,1144.0524,7.1409,1134.0398,7.1135,1124.0272,6.3758,1114.0146,6.5992,1104.002,6.5385,1093.9893,7.0638,1083.9767,7.0881,1073.9641,7.1617,1063.9515,6.709,1053.9389,6.9325,1043.9263,6.8798,1033.9137,7.5769,1023.901,7.4266,1013.8884,6.5145,1003.8758,6.9271,993.8632,6.4228,983.8506,7.2884,973.838,7.6085,963.8254,7.5446,953.8127,6.5644,943.8001,7.464,933.7875,6.2572,923.7749,7.2002,913.7623,6.7007,903.7497,7.0967,893.7371,7.2403,883.7244,7.4721,873.7118,7,863.6992" style="stroke:#A80036;stroke-width:1.5;"/><text fill="#000000" font-family="sans-serif" font-size="12" lengthAdjust="spacing" textLength="44" x="127" y="880.3008">Content</text><path d="M8,887.832 L8,888.1123 L18.0714,887.2796 L28.1429,888.0897 L38.2143,888.3649 L48.2857,886.8808 L58.3571,887.7284 L68.4286,887.2634 L78.5,887.3207 L88.5714,887.7412 L98.6429,886.9102 L108.7143,888.5702 L118.7857,886.9917 L128.8571,887.5683 L138.9286,888.408 L149,887.7177 L159.0714,887.923 L169.1429,887.7894 L179.2143,888.0701 L189.2857,888.1509 L199.3571,888.613 L209.4286,888.7268 L219.5,888.7377 L229.5714,888.1715 L239.6429,888.4501 L249.7143,888.7683 L259.7857,886.8705 L269.8571,888.7367 L279.9286,887.4367 L290,887.832 " fill="#FEFECE" style="stroke:#A80036;stroke-width:1.5;"/><text fill="#000000" font-family="sans-serif" font-size="11" lengthAdjust="spacing" textLength="41" x="13" y="902.4668">+ID：id</text><text fill="#000000" font-family="sans-serif" font-size="11" lengthAdjust="spacing" textLength="115" x="13" y="915.4219">+コンテンツ名：name</text><text fill="#000000" font-family="sans-serif" font-size="11" lengthAdjust="spacing" textLength="109" x="13" y="928.377">+プラグイン：plugin</text><text fill="#000000" font-family="sans-serif" font-size="11" lengthAdjust="spacing" textLength="131" x="13" y="941.332">+コンテンツタイプ：type</text><text fill="#000000" font-family="sans-serif" font-size="11" lengthAdjust="spacing" textLength="99" x="13" y="954.2871">+実体ID：entity_id</text><text fill="#000000" font-family="sans-serif" font-size="11" lengthAdjust="spacing" textLength="56" x="13" y="967.2422">+URL：url</text><text fill="#000000" font-family="sans-serif" font-size="11" lengthAdjust="spacing" textLength="99" x="13" y="980.1973">+サイトID：site_id</text><text fill="#000000" font-family="sans-serif" font-size="11" lengthAdjust="spacing" textLength="126" x="13" y="993.1523">+エイリアスID：alias_id</text><text fill="#000000" font-family="sans-serif" font-size="11" lengthAdjust="spacing" textLength="266" x="13" y="1006.1074">+メインサイトコンテンツID：main_site_content_id</text><text fill="#000000" font-family="sans-serif" font-size="11" lengthAdjust="spacing" textLength="266" x="13" y="1019.0625">+サイトルートに配置されているかどうか：site_root</text><text fill="#000000" font-family="sans-serif" font-size="11" lengthAdjust="spacing" textLength="93" x="13" y="1032.0176">+親ID：parent_id</text><text fill="#000000" font-family="sans-serif" font-size="11" lengthAdjust="spacing" textLength="64" x="13" y="1044.9727">+左位置：lft</text><text fill="#000000" font-family="sans-serif" font-size="11" lengthAdjust="spacing" textLength="76" x="13" y="1057.9277">+右位置：rght</text><text fill="#000000" font-family="sans-serif" font-size="11" lengthAdjust="spacing" textLength="66" x="13" y="1070.8828">+深さ：level</text><text fill="#000000" font-family="sans-serif" font-size="11" lengthAdjust="spacing" textLength="84" x="13" y="1083.8379">+タイトル：title</text><text fill="#000000" font-family="sans-serif" font-size="11" lengthAdjust="spacing" textLength="114" x="13" y="1096.793">+説明文：description</text><text fill="#000000" font-family="sans-serif" font-size="11" lengthAdjust="spacing" textLength="133" x="13" y="1109.748">+アイキャッチ：eyecatch</text><text fill="#000000" font-family="sans-serif" font-size="11" lengthAdjust="spacing" textLength="116" x="13" y="1122.7031">+作成者ID：author_id</text><text fill="#000000" font-family="sans-serif" font-size="11" lengthAdjust="spacing" textLength="226" x="13" y="1135.6582">+レイアウトテンプレート：layout_template</text><text fill="#000000" font-family="sans-serif" font-size="11" lengthAdjust="spacing" textLength="97" x="13" y="1148.6133">+公開状態：status</text><text fill="#000000" font-family="sans-serif" font-size="11" lengthAdjust="spacing" textLength="151" x="13" y="1161.5684">+公開開始日：publish_begin</text><text fill="#000000" font-family="sans-serif" font-size="11" lengthAdjust="spacing" textLength="141" x="13" y="1174.5234">+公開終了日：publish_end</text><text fill="#000000" font-family="sans-serif" font-size="11" lengthAdjust="spacing" textLength="133" x="13" y="1187.4785">+自公開状態：self_status</text><text fill="#000000" font-family="sans-serif" font-size="11" lengthAdjust="spacing" textLength="187" x="13" y="1200.4336">+自公開開始日：self_publish_begin</text><text fill="#000000" font-family="sans-serif" font-size="11" lengthAdjust="spacing" textLength="177" x="13" y="1213.3887">+自公開終了日：self_publish_end</text><text fill="#000000" font-family="sans-serif" font-size="11" lengthAdjust="spacing" textLength="122" x="13" y="1226.3438">+作成日：created_date</text><text fill="#000000" font-family="sans-serif" font-size="11" lengthAdjust="spacing" textLength="129" x="13" y="1239.2988">+編集日：modified_date</text><text fill="#000000" font-family="sans-serif" font-size="11" lengthAdjust="spacing" textLength="258" x="13" y="1252.2539">+検索結果より除外するかどうか：exclude_search</text><text fill="#000000" font-family="sans-serif" font-size="11" lengthAdjust="spacing" textLength="252" x="13" y="1265.209">+メニューから除外するかどうか：exclude_menu</text><text fill="#000000" font-family="sans-serif" font-size="11" lengthAdjust="spacing" textLength="272" x="13" y="1278.1641">+メニューのリンクを別窓で開くかどうか：blank_link</text><text fill="#000000" font-family="sans-serif" font-size="11" lengthAdjust="spacing" textLength="121" x="13" y="1291.1191">+削除日：deleted_date</text><text fill="#000000" font-family="sans-serif" font-size="11" lengthAdjust="spacing" textLength="103" x="13" y="1304.0742">+削除状態：deleted</text><text fill="#000000" font-family="sans-serif" font-size="11" lengthAdjust="spacing" textLength="159" x="13" y="1317.0293">+作成日（システム）：created</text><text fill="#000000" font-family="sans-serif" font-size="11" lengthAdjust="spacing" textLength="155" x="13" y="1329.9844">+編集日（システム）modified</text><path d="M8,1336.3047 L8,1336.5849 L18.0714,1335.7523 L28.1429,1336.5624 L38.2143,1336.8376 L48.2857,1335.3535 L58.3571,1336.2011 L68.4286,1335.736 L78.5,1335.7934 L88.5714,1336.2138 L98.6429,1335.3829 L108.7143,1337.0429 L118.7857,1335.4643 L128.8571,1336.041 L138.9286,1336.8806 L149,1336.1903 L159.0714,1336.3957 L169.1429,1336.2621 L179.2143,1336.5427 L189.2857,1336.6235 L199.3571,1337.0856 L209.4286,1337.1994 L219.5,1337.2104 L229.5714,1336.6442 L239.6429,1336.9228 L249.7143,1337.241 L259.7857,1335.3431 L269.8571,1337.2094 L279.9286,1335.9093 L290,1336.3047 " fill="#FEFECE" style="stroke:#A80036;stroke-width:1.5;"/><!--MD5=[6b8249c85c85e28ef593099ed0d89e6f]
class ContentServiceInterface--><polygon fill="#FEFECE" filter="url(#f1l4qwf5uddjhh)" points="166.5,271.1992,166.5,271.4094,176.2059,270.7849,185.9118,271.3925,195.6176,271.5989,205.3235,270.4858,215.0294,271.1215,224.7353,270.7727,234.4412,270.8157,244.1471,271.1311,253.8529,270.5078,263.5588,271.7529,273.2647,270.5689,282.9706,271.0015,292.6765,271.6312,302.3824,271.1134,312.0882,271.2675,321.7941,271.1673,331.5,271.1992,331.6785,271.1992,331.7391,281.2719,332.0857,291.3445,332.1711,301.4172,332.1793,311.4899,331.7546,321.5625,331.9636,331.6352,332.2022,341.7079,330.7788,351.7805,332.1785,361.8532,331.2035,371.9259,332.0338,381.9985,331.005,392.0712,331.4315,402.1439,332.2416,412.2165,331.4513,422.2892,331.6053,432.3618,331.8386,442.4345,331.9162,452.5072,331.4961,462.5798,331.7872,472.6525,330.9276,482.7252,331.7844,492.7978,332.0482,502.8705,331.9445,512.9432,332.113,523.0158,331.0169,533.0885,330.8478,543.1612,330.8786,553.2338,331.4411,563.3065,331.3035,573.3791,332.1814,583.4518,331.3253,593.5245,331.1569,603.5971,331.7283,613.6698,330.8332,623.7425,330.9809,633.8151,332.149,643.8878,331.9357,653.9605,332.2345,664.0331,331.1782,674.1058,331.8192,684.1785,332.0904,694.2511,331.0276,704.3238,331.4041,714.3964,331.626,724.4691,332.1518,734.5418,331.4958,744.6144,331.9626,754.6871,331.5,764.7598,331.5,764.206,321.7941,764.0825,312.0882,765.2634,302.3824,764.0428,292.6765,765.2687,282.9706,764.9664,273.2647,764.4918,263.5588,764.406,253.8529,765.2185,244.1471,764.4604,234.4412,765.3516,224.7353,764.207,215.0294,765.3772,205.3235,765.2441,195.6176,765.0047,185.9118,764.807,176.2059,765.4864,166.5,764.7598,167.1136,764.7598,166.6693,754.6871,166.7682,744.6144,166.3697,734.5418,167.2165,724.4691,166.6549,714.3964,166.6726,704.3238,165.8916,694.2511,166.0948,684.1785,167.0307,674.1058,166.9298,664.0331,166.4571,653.9605,166.1778,643.8878,166.2811,633.8151,165.8138,623.7425,166.9147,613.6698,167.2396,603.5971,167.0264,593.5245,167.1949,583.4518,166.3633,573.3791,166.5872,563.3065,166.1124,553.2338,166.784,543.1612,166.7468,533.0885,167.0524,523.0158,166.2703,512.9432,166.3656,502.8705,166.9435,492.7978,167.0673,482.7252,165.9875,472.6525,166.3061,462.5798,166.6493,452.5072,165.8892,442.4345,166.8534,432.3618,166.758,422.2892,166.3992,412.2165,166.6422,402.1439,167.2287,392.0712,166.1871,381.9985,166.815,371.9259,166.7856,361.8532,166.6158,351.7805,166.6409,341.7079,166.6135,331.6352,165.8758,321.5625,166.0992,311.4899,166.0385,301.4172,166.5638,291.3445,166.5881,281.2719,166.5,271.1992" style="stroke:#A80036;stroke-width:1.5;"/><text fill="#000000" font-family="sans-serif" font-size="12" lengthAdjust="spacing" textLength="134" x="182" y="287.8008">ContentServiceInterface</text><path d="M167.5,295.332 L167.5,295.6123 L177.6875,294.7796 L187.875,295.5897 L198.0625,295.8649 L208.25,294.3808 L218.4375,295.2284 L228.625,294.7634 L238.8125,294.8207 L249,295.2412 L259.1875,294.4102 L269.375,296.0702 L279.5625,294.4917 L289.75,295.0683 L299.9375,295.908 L310.125,295.2177 L320.3125,295.423 L330.5,295.332 " fill="#FEFECE" style="stroke:#A80036;stroke-width:1.5;"/><path d="M167.5,303.332 L167.5,303.6123 L177.6875,302.7796 L187.875,303.5897 L198.0625,303.8649 L208.25,302.3808 L218.4375,303.2284 L228.625,302.7634 L238.8125,302.8207 L249,303.2412 L259.1875,302.4102 L269.375,304.0702 L279.5625,302.4917 L289.75,303.0683 L299.9375,303.908 L310.125,303.2177 L320.3125,303.423 L330.5,303.332 " fill="#FEFECE" style="stroke:#A80036;stroke-width:1.5;"/><text fill="#000000" font-family="sans-serif" font-size="11" lengthAdjust="spacing" textLength="34" x="172.5" y="317.9668">+get()</text><text fill="#000000" font-family="sans-serif" font-size="11" lengthAdjust="spacing" textLength="65" x="172.5" y="330.9219">+getTrash()</text><text fill="#000000" font-family="sans-serif" font-size="11" lengthAdjust="spacing" textLength="80" x="172.5" y="343.877">+getChildren()</text><text fill="#000000" font-family="sans-serif" font-size="11" lengthAdjust="spacing" textLength="97" x="172.5" y="356.832">+getEmptyIndex()</text><text fill="#000000" font-family="sans-serif" font-size="11" lengthAdjust="spacing" textLength="88" x="172.5" y="369.7871">+getTreeIndex()</text><text fill="#000000" font-family="sans-serif" font-size="11" lengthAdjust="spacing" textLength="64" x="172.5" y="382.7422">+getIndex()</text><text fill="#000000" font-family="sans-serif" font-size="11" lengthAdjust="spacing" textLength="122" x="172.5" y="395.6973">+getTableConditions()</text><text fill="#000000" font-family="sans-serif" font-size="11" lengthAdjust="spacing" textLength="93" x="172.5" y="408.6523">+getTableIndex()</text><text fill="#000000" font-family="sans-serif" font-size="11" lengthAdjust="spacing" textLength="95" x="172.5" y="421.6074">+getTrashIndex()</text><text fill="#000000" font-family="sans-serif" font-size="11" lengthAdjust="spacing" textLength="130" x="172.5" y="434.5625">+getContentFolderList()</text><text fill="#000000" font-family="sans-serif" font-size="11" lengthAdjust="spacing" textLength="101" x="172.5" y="447.5176">+convertTreeList()</text><text fill="#000000" font-family="sans-serif" font-size="11" lengthAdjust="spacing" textLength="41" x="172.5" y="460.4727">+alias()</text><text fill="#000000" font-family="sans-serif" font-size="11" lengthAdjust="spacing" textLength="49" x="172.5" y="473.4277">+delete()</text><text fill="#000000" font-family="sans-serif" font-size="11" lengthAdjust="spacing" textLength="75" x="172.5" y="486.3828">+hardDelete()</text><text fill="#000000" font-family="sans-serif" font-size="11" lengthAdjust="spacing" textLength="131" x="172.5" y="499.3379">+hardDeleteWithAssoc()</text><text fill="#000000" font-family="sans-serif" font-size="11" lengthAdjust="spacing" textLength="63" x="172.5" y="512.293">+deleteAll()</text><text fill="#000000" font-family="sans-serif" font-size="11" lengthAdjust="spacing" textLength="89" x="172.5" y="525.248">+hardDeleteAll()</text><text fill="#000000" font-family="sans-serif" font-size="11" lengthAdjust="spacing" textLength="56" x="172.5" y="538.2031">+restore()</text><text fill="#000000" font-family="sans-serif" font-size="11" lengthAdjust="spacing" textLength="70" x="172.5" y="551.1582">+restoreAll()</text><text fill="#000000" font-family="sans-serif" font-size="11" lengthAdjust="spacing" textLength="104" x="172.5" y="564.1133">+getContentsInfo()</text><text fill="#000000" font-family="sans-serif" font-size="11" lengthAdjust="spacing" textLength="101" x="172.5" y="577.0684">+deleteRecursive()</text><text fill="#000000" font-family="sans-serif" font-size="11" lengthAdjust="spacing" textLength="153" x="172.5" y="590.0234">+getParentLayoutTemplate()</text><text fill="#000000" font-family="sans-serif" font-size="11" lengthAdjust="spacing" textLength="72" x="172.5" y="602.9785">+getUrlById()</text><text fill="#000000" font-family="sans-serif" font-size="11" lengthAdjust="spacing" textLength="50" x="172.5" y="615.9336">+getUrl()</text><text fill="#000000" font-family="sans-serif" font-size="11" lengthAdjust="spacing" textLength="54" x="172.5" y="628.8887">+update()</text><text fill="#000000" font-family="sans-serif" font-size="11" lengthAdjust="spacing" textLength="57" x="172.5" y="641.8438">+publish()</text><text fill="#000000" font-family="sans-serif" font-size="11" lengthAdjust="spacing" textLength="71" x="172.5" y="654.7988">+unpublish()</text><text fill="#000000" font-family="sans-serif" font-size="11" lengthAdjust="spacing" textLength="49" x="172.5" y="667.7539">+exists()</text><text fill="#000000" font-family="sans-serif" font-size="11" lengthAdjust="spacing" textLength="46" x="172.5" y="680.709">+move()</text><text fill="#000000" font-family="sans-serif" font-size="11" lengthAdjust="spacing" textLength="70" x="172.5" y="693.6641">+isMovable()</text><text fill="#000000" font-family="sans-serif" font-size="11" lengthAdjust="spacing" textLength="87" x="172.5" y="706.6191">+isPublishById()</text><text fill="#000000" font-family="sans-serif" font-size="11" lengthAdjust="spacing" textLength="94" x="172.5" y="719.5742">+isAllowPublish()</text><text fill="#000000" font-family="sans-serif" font-size="11" lengthAdjust="spacing" textLength="120" x="172.5" y="732.5293">+existsContentByUrl()</text><text fill="#000000" font-family="sans-serif" font-size="11" lengthAdjust="spacing" textLength="108" x="172.5" y="745.4844">+encodeParsedUrl()</text><text fill="#000000" font-family="sans-serif" font-size="11" lengthAdjust="spacing" textLength="90" x="172.5" y="758.4395">+getNeighbors()</text><!--MD5=[dea51e76fac8dca49c9ab43fc7959105]
class TreeBehavior--><polygon fill="#FEFECE" filter="url(#f1l4qwf5uddjhh)" points="215,1663.6992,215,1663.9094,225.25,1663.2849,235.5,1663.8925,245.75,1664.0989,256,1662.9858,266.25,1663.6215,276.5,1663.2727,286.75,1663.3157,297,1663.6992,296.9773,1663.6992,296.7695,1671.7258,297.1845,1679.7523,296.7899,1687.7789,296.9341,1695.8055,297,1703.832,297,1704.264,286.75,1703.7463,276.5,1703.9003,266.25,1703.8001,256,1704.0106,245.75,1704.0712,235.5,1704.4177,225.25,1704.5031,215,1703.832,215.2264,1703.832,215.0849,1695.8055,215.1545,1687.7789,215.2341,1679.7523,214.7596,1671.7258,215,1663.6992" style="stroke:#A80036;stroke-width:1.5;"/><text fill="#000000" font-family="sans-serif" font-size="12" lengthAdjust="spacing" textLength="76" x="218" y="1680.3008">TreeBehavior</text><path d="M216,1687.832 L216,1688.1123 L226,1687.2796 L236,1688.0897 L246,1688.3649 L256,1686.8808 L266,1687.7284 L276,1687.2634 L286,1687.3207 L296,1687.832 " fill="#FEFECE" style="stroke:#A80036;stroke-width:1.5;"/><path d="M216,1695.832 L216,1696.1123 L226,1695.2796 L236,1696.0897 L246,1696.3649 L256,1694.8808 L266,1695.7284 L276,1695.2634 L286,1695.3207 L296,1695.832 " fill="#FEFECE" style="stroke:#A80036;stroke-width:1.5;"/><!--MD5=[63ace9fbbaa9cb06c8ac89bac75a4e3b]
class BcUploadBehavior--><polygon fill="#FEFECE" filter="url(#f1l4qwf5uddjhh)" points="332.5,1443.1992,332.5,1443.4094,342.3235,1442.7849,352.1471,1443.3925,361.9706,1443.5989,371.7941,1442.4858,381.6176,1443.1215,391.4412,1442.7727,401.2647,1442.8157,411.0882,1443.1311,420.9118,1442.5078,430.7353,1443.7529,440.5588,1442.5689,450.3824,1443.0015,460.2059,1443.6312,470.0294,1443.1134,479.8529,1443.2675,489.6765,1443.1673,499.5,1443.1992,499.6785,1443.1992,499.7391,1453.2118,500.0857,1463.2244,500.1711,1473.2371,500.1793,1483.2497,499.7546,1493.2623,499.9636,1503.2749,500.2022,1513.2875,498.7788,1523.3001,500.1785,1533.3127,499.2035,1543.3254,500.0338,1553.338,499.005,1563.3506,499.4315,1573.3632,500.2416,1583.3758,499.4513,1593.3884,499.6053,1603.401,499.8386,1613.4137,499.9162,1623.4263,499.4961,1633.4389,499.7872,1643.4515,498.9276,1653.4641,499.7844,1663.4767,500.0482,1673.4893,499.9445,1683.502,500.113,1693.5146,499.0169,1703.5272,498.8478,1713.5398,498.8786,1723.5524,499.4411,1733.565,499.3035,1743.5776,500.1814,1753.5903,499.3253,1763.6029,499.1569,1773.6155,499.7283,1783.6281,498.8332,1793.6407,498.9809,1803.6533,500.149,1813.6659,499.9357,1823.6785,500.2345,1833.6912,499.1782,1843.7038,499.8192,1853.7164,500.0904,1863.729,499.0276,1873.7416,499.4041,1883.7542,499.626,1893.7668,500.1518,1903.7795,499.4958,1913.7921,499.5,1923.8047,499.5,1924.2673,489.6765,1923.2509,479.8529,1923.1274,470.0294,1924.3083,460.2059,1923.0877,450.3824,1924.3136,440.5588,1924.0113,430.7353,1923.5368,420.9118,1923.4509,411.0882,1924.2634,401.2647,1923.5054,391.4412,1924.3965,381.6176,1923.2519,371.7941,1924.4221,361.9706,1924.289,352.1471,1924.0497,342.3235,1923.8519,332.5,1923.8047,333.2266,1923.8047,333.1136,1913.7921,332.6693,1903.7795,332.7682,1893.7668,332.3697,1883.7542,333.2165,1873.7416,332.6549,1863.729,332.6726,1853.7164,331.8916,1843.7038,332.0948,1833.6912,333.0307,1823.6785,332.9298,1813.6659,332.4571,1803.6533,332.1778,1793.6407,332.2811,1783.6281,331.8138,1773.6155,332.9147,1763.6029,333.2396,1753.5903,333.0264,1743.5776,333.1949,1733.565,332.3633,1723.5524,332.5872,1713.5398,332.1124,1703.5272,332.784,1693.5146,332.7468,1683.502,333.0524,1673.4893,332.2703,1663.4767,332.3656,1653.4641,332.9435,1643.4515,333.0673,1633.4389,331.9875,1623.4263,332.3061,1613.4137,332.6493,1603.401,331.8892,1593.3884,332.8534,1583.3758,332.758,1573.3632,332.3992,1563.3506,332.6422,1553.338,333.2287,1543.3254,332.1871,1533.3127,332.815,1523.3001,332.7856,1513.2875,332.6158,1503.2749,332.6409,1493.2623,332.6135,1483.2497,331.8758,1473.2371,332.0992,1463.2244,332.0385,1453.2118,332.5,1443.1992" style="stroke:#A80036;stroke-width:1.5;"/><text fill="#000000" font-family="sans-serif" font-size="12" lengthAdjust="spacing" textLength="103" x="364.5" y="1459.8008">BcUploadBehavior</text><path d="M333.5,1467.332 L333.5,1467.6123 L343.2059,1466.7796 L352.9118,1467.5897 L362.6176,1467.8649 L372.3235,1466.3808 L382.0294,1467.2284 L391.7353,1466.7634 L401.4412,1466.8207 L411.1471,1467.2412 L420.8529,1466.4102 L430.5588,1468.0702 L440.2647,1466.4917 L449.9706,1467.0683 L459.6765,1467.908 L469.3824,1467.2177 L479.0882,1467.423 L488.7941,1467.2894 L498.5,1467.332 " fill="#FEFECE" style="stroke:#A80036;stroke-width:1.5;"/><path d="M333.5,1475.332 L333.5,1475.6123 L343.2059,1474.7796 L352.9118,1475.5897 L362.6176,1475.8649 L372.3235,1474.3808 L382.0294,1475.2284 L391.7353,1474.7634 L401.4412,1474.8207 L411.1471,1475.2412 L420.8529,1474.4102 L430.5588,1476.0702 L440.2647,1474.4917 L449.9706,1475.0683 L459.6765,1475.908 L469.3824,1475.2177 L479.0882,1475.423 L488.7941,1475.2894 L498.5,1475.332 " fill="#FEFECE" style="stroke:#A80036;stroke-width:1.5;"/><text fill="#000000" font-family="sans-serif" font-size="11" lengthAdjust="spacing" textLength="61" x="338.5" y="1489.9668">+initialize()</text><text fill="#000000" font-family="sans-serif" font-size="11" lengthAdjust="spacing" textLength="77" x="338.5" y="1502.9219">+getSettings()</text><text fill="#000000" font-family="sans-serif" font-size="11" lengthAdjust="spacing" textLength="121" x="338.5" y="1515.877">+getExistsCheckDirs()</text><text fill="#000000" font-family="sans-serif" font-size="11" lengthAdjust="spacing" textLength="94" x="338.5" y="1528.832">+beforeMarshal()</text><text fill="#000000" font-family="sans-serif" font-size="11" lengthAdjust="spacing" textLength="76" x="338.5" y="1541.7871">+beforeSave()</text><text fill="#000000" font-family="sans-serif" font-size="11" lengthAdjust="spacing" textLength="114" x="338.5" y="1554.7422">+setupRequestData()</text><text fill="#000000" font-family="sans-serif" font-size="11" lengthAdjust="spacing" textLength="66" x="338.5" y="1567.6973">+afterSave()</text><text fill="#000000" font-family="sans-serif" font-size="11" lengthAdjust="spacing" textLength="89" x="338.5" y="1580.6523">+saveTmpFiles()</text><text fill="#000000" font-family="sans-serif" font-size="11" lengthAdjust="spacing" textLength="73" x="338.5" y="1593.6074">+deleteFiles()</text><text fill="#000000" font-family="sans-serif" font-size="11" lengthAdjust="spacing" textLength="145" x="338.5" y="1606.5625">+deleteFileWhileChecking()</text><text fill="#000000" font-family="sans-serif" font-size="11" lengthAdjust="spacing" textLength="65" x="338.5" y="1619.5176">+saveFiles()</text><text fill="#000000" font-family="sans-serif" font-size="11" lengthAdjust="spacing" textLength="137" x="338.5" y="1632.4727">+saveFileWhileChecking()</text><text fill="#000000" font-family="sans-serif" font-size="11" lengthAdjust="spacing" textLength="143" x="338.5" y="1645.4277">+moveFileSessionToTmp()</text><text fill="#000000" font-family="sans-serif" font-size="11" lengthAdjust="spacing" textLength="59" x="338.5" y="1658.3828">+saveFile()</text><text fill="#000000" font-family="sans-serif" font-size="11" lengthAdjust="spacing" textLength="106" x="338.5" y="1671.3379">+getSaveFileName()</text><text fill="#000000" font-family="sans-serif" font-size="11" lengthAdjust="spacing" textLength="81" x="338.5" y="1684.293">+rotateImage()</text><text fill="#000000" font-family="sans-serif" font-size="11" lengthAdjust="spacing" textLength="75" x="338.5" y="1697.248">+copyImage()</text><text fill="#000000" font-family="sans-serif" font-size="11" lengthAdjust="spacing" textLength="81" x="338.5" y="1710.2031">+resizeImage()</text><text fill="#000000" font-family="sans-serif" font-size="11" lengthAdjust="spacing" textLength="87" x="338.5" y="1723.1582">+getImageSize()</text><text fill="#000000" font-family="sans-serif" font-size="11" lengthAdjust="spacing" textLength="85" x="338.5" y="1736.1133">+beforeDelete()</text><text fill="#000000" font-family="sans-serif" font-size="11" lengthAdjust="spacing" textLength="83" x="338.5" y="1749.0684">+cleanupFiles()</text><text fill="#000000" font-family="sans-serif" font-size="11" lengthAdjust="spacing" textLength="51" x="338.5" y="1762.0234">+delFile()</text><text fill="#000000" font-family="sans-serif" font-size="11" lengthAdjust="spacing" textLength="155" x="338.5" y="1774.9785">+renameToBasenameFields()</text><text fill="#000000" font-family="sans-serif" font-size="11" lengthAdjust="spacing" textLength="149" x="338.5" y="1787.9336">+renameToBasenameField()</text><text fill="#000000" font-family="sans-serif" font-size="11" lengthAdjust="spacing" textLength="112" x="338.5" y="1800.8887">+getFieldBasename()</text><text fill="#000000" font-family="sans-serif" font-size="11" lengthAdjust="spacing" textLength="82" x="338.5" y="1813.8438">+getFileName()</text><text fill="#000000" font-family="sans-serif" font-size="11" lengthAdjust="spacing" textLength="87" x="338.5" y="1826.7988">+getBasename()</text><text fill="#000000" font-family="sans-serif" font-size="11" lengthAdjust="spacing" textLength="120" x="338.5" y="1839.7539">+getUniqueFileName()</text><text fill="#000000" font-family="sans-serif" font-size="11" lengthAdjust="spacing" textLength="74" x="338.5" y="1852.709">+getSaveDir()</text><text fill="#000000" font-family="sans-serif" font-size="11" lengthAdjust="spacing" textLength="76" x="338.5" y="1865.6641">+isFileExists()</text><text fill="#000000" font-family="sans-serif" font-size="11" lengthAdjust="spacing" textLength="116" x="338.5" y="1878.6191">+deleteExistingFiles()</text><text fill="#000000" font-family="sans-serif" font-size="11" lengthAdjust="spacing" textLength="81" x="338.5" y="1891.5742">+copyImages()</text><text fill="#000000" font-family="sans-serif" font-size="11" lengthAdjust="spacing" textLength="102" x="338.5" y="1904.5293">+setUploadedFile()</text><text fill="#000000" font-family="sans-serif" font-size="11" lengthAdjust="spacing" textLength="103" x="338.5" y="1917.4844">+getUploadedFile()</text><!--MD5=[dac7c7a4ba959fab8b920e6a9f6a37f6]
class softDeleteTrait--><polygon fill="#FEFECE" filter="url(#f1l4qwf5uddjhh)" points="534.5,1631.1992,534.5,1631.4094,544.1154,1630.7849,553.7308,1631.3925,563.3462,1631.5989,572.9615,1630.4858,582.5769,1631.1215,592.1923,1630.7727,601.8077,1630.8157,611.4231,1631.1311,621.0385,1630.5078,630.6538,1631.7529,640.2692,1630.5689,649.8846,1631.0015,659.5,1631.1992,659.9319,1631.1992,659.4142,1641.69,659.5682,1652.1809,659.4681,1662.6717,659.6785,1673.1625,659.7391,1683.6533,660.0857,1694.1441,660.1711,1704.635,660.1793,1715.1258,659.7546,1725.6166,659.5,1736.1074,659.5,1736.571,649.8846,1736.8097,640.2692,1735.3862,630.6538,1736.7859,621.0385,1735.8109,611.4231,1736.6412,601.8077,1735.6124,592.1923,1736.0389,582.5769,1736.849,572.9615,1736.0587,563.3462,1736.2127,553.7308,1736.446,544.1154,1736.5237,534.5,1736.1074,534.4961,1736.1074,534.7872,1725.6166,533.9276,1715.1258,534.7844,1704.635,535.0482,1694.1441,534.9445,1683.6533,535.113,1673.1625,534.0169,1662.6717,533.8478,1652.1809,533.8786,1641.69,534.5,1631.1992" style="stroke:#A80036;stroke-width:1.5;"/><text fill="#000000" font-family="sans-serif" font-size="12" lengthAdjust="spacing" textLength="85" x="554.5" y="1647.8008">softDeleteTrait</text><path d="M535.5,1655.332 L535.5,1655.6123 L545.75,1654.7796 L556,1655.5897 L566.25,1655.8649 L576.5,1654.3808 L586.75,1655.2284 L597,1654.7634 L607.25,1654.8207 L617.5,1655.2412 L627.75,1654.4102 L638,1656.0702 L648.25,1654.4917 L658.5,1655.332 " fill="#FEFECE" style="stroke:#A80036;stroke-width:1.5;"/><path d="M535.5,1663.332 L535.5,1663.6123 L545.75,1662.7796 L556,1663.5897 L566.25,1663.8649 L576.5,1662.3808 L586.75,1663.2284 L597,1662.7634 L607.25,1662.8207 L617.5,1663.2412 L627.75,1662.4102 L638,1664.0702 L648.25,1662.4917 L658.5,1663.332 " fill="#FEFECE" style="stroke:#A80036;stroke-width:1.5;"/><text fill="#000000" font-family="sans-serif" font-size="11" lengthAdjust="spacing" textLength="113" x="540.5" y="1677.9668">+getSoftDeleteField()</text><text fill="#000000" font-family="sans-serif" font-size="11" lengthAdjust="spacing" textLength="63" x="540.5" y="1690.9219">+deleteAll()</text><text fill="#000000" font-family="sans-serif" font-size="11" lengthAdjust="spacing" textLength="75" x="540.5" y="1703.877">+hardDelete()</text><text fill="#000000" font-family="sans-serif" font-size="11" lengthAdjust="spacing" textLength="56" x="540.5" y="1716.832">+restore()</text><text fill="#000000" font-family="sans-serif" font-size="11" lengthAdjust="spacing" textLength="48" x="540.5" y="1729.7871">+query()</text><!--MD5=[5032822d9b8f29c6bceae8d6b2451bbb]
reverse link BcAdminContentsComponent to Admin\ContentsController--><path d="M276.38,119.6992 L276.38,119.7926 L282.354,119.5151 L288.328,119.7851 L294.302,119.8769 L300.276,119.3822 L306.25,119.6992 " fill="none" style="stroke:#000000;stroke-width:1.0;"/><polygon fill="#000000" points="271.17,119.6992,271.1985,119.7632,272.9139,120.373,274.7962,121.3581,276.6241,122.221,278.2734,122.6819,280.17,123.6992,280.1517,123.6809,279.2695,122.7987,278.4796,122.0088,277.7539,121.2832,276.807,120.3363,276.17,119.6992,276.3005,119.8297,276.8214,118.7507,277.7234,118.0526,278.6718,117.401,279.3498,116.479,280.17,115.6992,280.1792,115.72,278.3657,116.4895,276.5942,117.3536,274.8024,118.1721,273.0493,119.0776,271.17,119.6992" style="stroke:#000000;stroke-width:1.0;"/><!--MD5=[215e17702e2934640cbd495a39adb8ee]
link Admin\ContentsController to BcFrontContentsComponent--><path d="M525.51,119.6992 L525.51,119.7926 L531.528,119.5151 L537.546,119.7851 L543.564,119.8769 L549.582,119.3822 L555.6,119.6992 " fill="none" style="stroke:#000000;stroke-width:1.0;"/><polygon fill="#000000" points="560.85,119.6992,560.8785,119.7632,558.9939,118.773,557.2762,118.1581,555.5041,117.421,553.5534,116.2819,551.85,115.6992,551.8317,115.6809,552.5495,116.3987,553.3596,117.2088,554.2339,118.0832,554.887,118.7363,555.85,119.6992,555.9805,119.8297,554.9014,120.3507,554.2034,121.2526,553.5518,122.201,552.6298,122.879,551.85,123.6992,551.8592,123.72,553.6457,122.8895,555.4742,122.1536,557.2824,121.3721,559.1293,120.6776,560.85,119.6992" style="stroke:#000000;stroke-width:1.0;"/><!--MD5=[fbc2fad051e3652b3fc85e3cce74b939]
link Admin\ContentsController to ContentService--><path d="M416,211.6692 L416.2802,211.6692 L415.4476,221.8496 L416.2577,232.03 L416.5329,242.2103 L415.0488,252.3907 L415.8964,262.5711 L415.4313,272.7514 L415.4887,282.9318 L415.9091,293.1122 L415.0782,303.2926 L416.7382,313.4729 L415.1596,323.6533 L415.7363,333.8337 L416.5759,344.014 L415.8856,354.1944 L416.091,364.3748 L415.9574,374.5551 L416.238,384.7355 L416.3188,394.9159 L416.7809,405.0963 L416.8947,415.2766 L416.9057,425.457 L416.3395,435.6374 L416.6181,445.8177 L416.9363,455.9981 L415.0384,466.1785 L416.9047,476.3588 L416,486.5392 " fill="none" style="stroke:#000000;stroke-width:1.0;"/><polygon fill="#000000" points="416,491.6192,416.064,491.6477,416.6738,489.7631,417.6589,488.0454,418.5217,486.2733,418.9827,484.3226,420,482.6192,419.9817,482.6009,419.0995,483.3187,418.3096,484.1288,417.5839,485.0032,416.637,485.6563,416,486.6192,416.1305,486.7497,415.0514,485.6707,414.3534,484.9726,413.7018,484.321,412.7798,483.399,412,482.6192,412.0208,482.6285,412.7903,484.4149,413.6544,486.2434,414.4728,488.0516,415.3784,489.8985,416,491.6192" style="stroke:#000000;stroke-width:1.0;"/><!--MD5=[152e89364de20b33127623eeaa33c439]
reverse link ContentService to BcContentsHelper--><path d="M413.61,486.3792 L413.7034,486.3821 L413.3481,483.8916 L413.5401,481.4182 L413.5539,478.9392 L412.9816,476.4419 L413.2207,473.97 L413.1861,473.9697 L413.009,471.1919 L413.0059,468.4155 L413.1239,465.64 L412.8248,462.8613 L413.1099,460.0872 L413.3559,460.0916 L412.8847,457.0573 L413.1318,454.036 L413.4665,451.0164 L413.2914,447.9874 L413.3844,444.9633 L413.4147,444.9648 L413.5234,441.7362 L413.7701,438.5141 L413.9503,435.2889 L414.2574,432.0698 L414.1506,428.8309 L414.4479,428.8549 L414.7245,425.4735 L414.8093,422.0767 L415.1748,418.7024 L415.5534,415.3293 L415.5152,411.9225 L415.1969,411.8847 L416.2286,408.4676 L416.2122,404.9261 L416.9925,401.4792 L416.9524,397.9349 L417.5848,394.4704 L417.5547,394.4655 L418.4863,390.9705 L418.7158,387.3617 L419.3596,383.82 L420.0382,380.284 L420.4658,376.7072 L420.6468,376.7458 L421.224,373.1385 L422.1103,369.5971 L422.4965,365.9492 L423.6288,362.4601 L424.265,358.8655 L424.5001,358.9296 L425.4204,355.3799 L426.4574,351.862 L426.9522,348.1962 L427.8444,344.6389 L429.0889,341.1776 L428.8277,341.0877 L430.2551,337.7087 L431.3883,334.2285 L432.9483,330.8952 L433.7796,327.311 L435.044,323.876 L434.904,323.8156 L436.5757,320.5796 L437.649,317.0856 L439.1479,313.775 L441.0632,310.644 L442.237,307.1933 L442.4074,307.2852 L444.2318,304.1819 L445.526,300.7928 L447.4843,297.7618 L449.2979,294.6527 L450.7744,291.3619 L450.6005,291.2441 L452.7368,288.3885 L454.8161,285.4942 L457.0073,282.6758 L458.7636,279.5628 L460.7628,276.6143 L460.9187,276.7483 L462.8854,273.7676 L465.153,271.0455 L467.8602,268.7014 L469.758,265.6615 L472.3088,263.183 L472.4601,263.3512 L475.0123,260.8748 L477.5133,258.3415 L480.1298,255.9366 L483.0133,253.8286 L485.519,251.3005 L485.4447,251.1902 L488.6623,249.4983 L491.3741,247.0563 L494.661,245.4672 L497.6241,243.3979 L500.5,241.1992 L500.5526,241.2945 L502.9496,239.8711 L505.535,238.789 L507.9502,237.3985 L510.2942,235.8791 L512.6973,234.4668 L512.7507,234.5734 L515,233.2481 L517.4973,232.4176 L519.7142,231.0275 L522.0464,229.8676 L524.3407,228.632 L524.2313,228.3847 L526.5016,227.4799 L528.9035,226.8729 L531.119,225.8445 L533.2678,224.6649 L535.5093,223.6949 L535.459,223.5609 L537.6297,222.7959 L539.7114,221.7936 L542.0377,221.4438 L544.243,220.7711 L546.2822,219.6555 L546.3495,219.8795 L548.4623,219.3229 L550.4473,218.3406 L552.5672,217.8075 L554.5977,216.9771 L556.7386,216.5137 L556.7657,216.637 L558.8059,216.172 L560.8789,215.8558 L562.8481,215.0675 L564.901,214.66 L566.9576,214.2695 L566.9838,214.4649 L569.0032,214.2502 L570.9517,213.5052 L572.9826,213.3762 L575.015,213.2581 L577.0184,212.923 L577.0062,212.6518 L579.0218,212.9902 L581.0162,212.8581 L583.0053,212.609 L585.0065,212.6271 L587,212.4742 L587.0145,212.7977 L588.9901,212.4251 L590.9989,212.7936 L592.9947,212.8703 L594.9876,212.8847 L596.9816,212.923 L596.9899,212.9851 L599.0005,213.2423 L600.9691,213.1867 L602.9944,213.5544 L605.003,213.7969 L607.0424,214.2695 L607.0485,214.2972 L609.0946,214.7566 L611.1454,215.2374 L613.1461,215.4897 L615.2112,216.0355 L617.2614,216.5137 L617.246,216.4625 L619.4265,217.3876 L621.4985,217.952 L623.4732,218.1921 L625.6172,218.9961 L627.7178,219.6555 L627.6277,219.4153 L629.9174,220.5834 L632.1219,221.5245 L634.2665,222.3058 L636.2682,222.7058 L638.4907,223.6949 L638.5741,223.8835 L640.591,224.3804 L642.9941,225.7511 L645.1381,226.5355 L647.443,227.6839 L649.6593,228.632 L649.7072,228.7275 L652.082,229.9866 L654.1733,230.6799 L656.74,232.3218 L659.0095,233.3706 L661.3027,234.4668 L661.379,234.6051 L663.9028,236.1043 L666.1828,237.1619 L668.6587,238.5744 L671.1064,239.9358 L673.5,241.1992 L673.5485,241.2723 L676.6921,243.3163 L680.0592,245.6972 L682.9271,247.3255 L686.4081,249.8781 L689.4615,251.7861 L689.2812,251.5754 L692.192,254.075 L695.2464,256.7422 L698.1297,259.2096 L700.8657,261.5049 L703.8948,264.1427 L704.0292,264.2682 L706.5266,266.9533 L709.3235,269.9184 L711.9005,272.6779 L714.1348,275.117 L716.8767,278.0307 L716.7362,277.9232 L719.1525,281.032 L721.645,284.1991 L723.9832,287.2481 L726.2687,290.2568 L728.4838,293.2117 L728.3554,293.1303 L730.7843,296.6105 L732.8452,299.857 L734.6515,302.9419 L736.6414,306.1434 L738.7929,309.4475 L738.6354,309.3636 L740.5263,312.813 L742.4819,316.297 L744.2188,319.6644 L745.8993,323.0018 L747.8808,326.4995 L748.0783,326.5885 L749.2835,329.9417 L751.2617,333.6433 L752.82,337.1556 L754.3862,340.6715 L755.8242,344.1296 L756.1117,344.2396 L757.0973,347.6844 L758.4497,351.2697 L760.1651,354.9938 L761.0771,358.4105 L762.7,362.0992 " fill="none" style="stroke:#000000;stroke-width:1.0;"/><polygon fill="#000000" points="413.84,491.4192,413.9053,491.4447,414.4283,489.5343,415.3339,487.7734,416.115,485.9637,416.4864,483.994,417.4248,482.2459,417.4057,482.2285,416.5572,482.9858,415.8051,483.8312,415.1201,484.7377,414.2041,485.4334,413.6117,486.4244,413.7361,486.5608,412.6343,485.5066,411.8958,484.8505,411.2016,484.2429,410.2496,483.3528,409.4332,482.6113,409.4535,482.6215,410.305,484.3681,411.2491,486.1611,412.1486,487.9317,413.1332,489.745,413.84,491.4192" style="stroke:#000000;stroke-width:1.0;"/><!--MD5=[c4021aa8f7855ed40df1966c35319ccd]
reverse link ContentService to BcAdminContentHelper--><path d="M470.9,518.1992 L470.9,518.2926 L476.786,518.0151 L482.672,518.2851 L488.558,518.3769 L494.444,517.8822 L500.33,518.1992 " fill="none" style="stroke:#000000;stroke-width:1.0;"/><polygon fill="#000000" points="465.76,518.1992,465.7885,518.2632,467.5039,518.873,469.3862,519.8581,471.2141,520.721,472.8634,521.1819,474.76,522.1992,474.7417,522.1809,473.8595,521.2987,473.0696,520.5088,472.3439,519.7832,471.397,518.8363,470.76,518.1992,470.8905,518.3297,471.4114,517.2507,472.3134,516.5526,473.2618,515.901,473.9398,514.979,474.76,514.1992,474.7692,514.22,472.9557,514.9895,471.1842,515.8536,469.3924,516.6721,467.6393,517.5776,465.76,518.1992" style="stroke:#000000;stroke-width:1.0;"/><!--MD5=[a20d981bc7745d27e0ce52c8466c0cfa]
reverse link ContentServiceInterface to ContentService--><path d="M351.55,518.1992 L351.55,518.2926 L354.474,518.0151 L357.398,518.2851 L360.322,518.3769 L363.246,517.8822 L366.17,518.1992 " fill="none" style="stroke:#000000;stroke-width:1.0;stroke-dasharray:1.0,3.0;"/><polygon fill="none" points="351.52,525.1992,351.5431,525.2653,347.4744,523.6689,343.5413,522.46,339.564,521.125,335.4414,519.3748,331.52,518.1992,331.5114,518.1748,335.473,516.665,339.4778,515.2786,343.5125,513.9778,347.4439,512.3817,351.52,511.1992,351.7045,511.1992,351.3099,513.9992,351.4541,516.7992,351.664,519.5992,351.4914,522.3992,351.52,525.1992" style="stroke:#000000;stroke-width:1.0;"/><!--MD5=[4e09c33681d5508b20ab9dd8b5c57032]
link ContentService to ContentsTable--><path d="M416,545.0492 L416.2802,545.0492 L415.4476,555.22 L416.2577,565.3907 L416.5329,575.5614 L415.0488,585.7322 L415.8964,595.9029 L415.4313,606.0737 L415.4887,616.2444 L415.9091,626.4151 L415.0782,636.5859 L416.7382,646.7566 L415.1596,656.9274 L415.7363,667.0981 L416.5759,677.2688 L415.8856,687.4396 L416.091,697.6103 L415.9574,707.7811 L416.238,717.9518 L416.3188,728.1226 L416.7809,738.2933 L416.8947,748.464 L416.9057,758.6348 L416.3395,768.8055 L416.6181,778.9763 L416.9363,789.147 L415.0384,799.3177 L416.9047,809.4885 L416,819.6592 " fill="none" style="stroke:#000000;stroke-width:1.0;"/><polygon fill="#000000" points="416,824.9792,416.064,825.0077,416.6738,823.1231,417.6589,821.4054,418.5217,819.6333,418.9827,817.6826,420,815.9792,419.9817,815.9609,419.0995,816.6787,418.3096,817.4888,417.5839,818.3632,416.637,819.0163,416,819.9792,416.1305,820.1097,415.0514,819.0307,414.3534,818.3326,413.7018,817.681,412.7798,816.759,412,815.9792,412.0208,815.9885,412.7903,817.7749,413.6544,819.6034,414.4728,821.4116,415.3784,823.2585,416,824.9792" style="stroke:#000000;stroke-width:1.0;"/><!--MD5=[b5b78a59aa995dbb90fea57b4d2436e3]
reverse link Content to ContentsTable--><path d="M296.25,1104.1992 L296.25,1104.2926 L302.148,1104.0151 L308.046,1104.2851 L313.944,1104.3769 L319.842,1103.8822 L325.74,1104.1992 " fill="none" style="stroke:#000000;stroke-width:1.0;"/><polygon fill="#000000" points="291.1,1104.1992,291.1285,1104.2632,292.8439,1104.873,294.7262,1105.8581,296.5541,1106.721,298.2034,1107.1819,300.1,1108.1992,300.0817,1108.1809,299.1995,1107.2987,298.4096,1106.5088,297.6839,1105.7832,296.737,1104.8363,296.1,1104.1992,296.2305,1104.3297,296.7514,1103.2507,297.6534,1102.5526,298.6018,1101.901,299.2798,1100.979,300.1,1100.1992,300.1092,1100.22,298.2957,1100.9895,296.5242,1101.8536,294.7324,1102.6721,292.9793,1103.5776,291.1,1104.1992" style="stroke:#000000;stroke-width:1.0;"/><!--MD5=[b9391c0990a31d8d857850b532496422]
link ContentsTable to TreeBehavior--><path d="M331.69,1383.4092 L331.7799,1383.4346 L329.81,1389.3907 L328.3672,1395.4956 L326.7527,1401.552 L324.5739,1407.4491 L323.1763,1413.5667 L323.143,1413.5575 L321.3583,1419.4428 L319.7414,1425.3744 L318.2413,1431.3382 L316.339,1437.191 L315,1443.1992 L315.2377,1443.2628 L313.1253,1449.126 L311.7069,1455.1747 L310.3732,1461.2461 L308.5468,1467.1858 L306.9795,1473.1948 L307.0089,1473.2024 L305.3776,1479.3241 L303.88,1485.4804 L302.3178,1491.6201 L300.8788,1497.7916 L299.0386,1503.8592 L299.3278,1503.9322 L297.7892,1510.0453 L296.0641,1516.1114 L294.6121,1522.2464 L293.1728,1528.3846 L291.3281,1534.4205 L291.0169,1534.3437 L290.155,1540.4301 L288.2684,1546.2634 L287.1608,1552.2891 L285.251,1558.1167 L283.9988,1564.1067 L283.91,1564.0854 L282.8082,1573.2812 L279.6317,1581.9778 L277.6794,1590.9689 L275.8299,1599.9848 L273.7786,1608.9522 L271.087,1617.7655 L271.0853,1617.7651 L269.2959,1625.9733 L267.0085,1634.065 L265.4639,1642.3305 L263.6626,1650.536 L261.51,1658.6592 " fill="none" style="stroke:#000000;stroke-width:1.0;"/><polygon fill="#000000" points="260.35,1663.6792,260.4059,1663.7214,261.4253,1662.0231,262.7727,1660.572,264.0132,1659.0404,264.9025,1657.2441,266.278,1655.8142,266.2643,1655.7922,265.2429,1656.2924,264.2906,1656.9034,263.3863,1657.5913,262.3164,1658.0139,261.4785,1658.8082,261.635,1658.9059,260.7014,1657.7371,260.2249,1656.8535,259.8042,1656.0047,259.059,1654.9534,258.4845,1654.0087,258.5068,1654.013,258.8471,1655.9408,259.2891,1657.8882,259.682,1659.8261,260.1686,1661.7821,260.35,1663.6792" style="stroke:#000000;stroke-width:1.0;"/><!--MD5=[1b81c7d7cebb4c0849f12d0e2afc0af7]
link ContentsTable to BcUploadBehavior--><path d="M416,1383.3792 L416.2802,1383.3792 L415.4476,1394.2792 L416.2577,1405.1792 L416.5329,1416.0792 L415.0488,1426.9792 L416,1437.8792 " fill="none" style="stroke:#000000;stroke-width:1.0;"/><polygon fill="#000000" points="416,1442.9592,416.064,1442.9877,416.6738,1441.1031,417.6589,1439.3854,418.5217,1437.6133,418.9827,1435.6626,420,1433.9592,419.9817,1433.9409,419.0995,1434.6587,418.3096,1435.4688,417.5839,1436.3432,416.637,1436.9963,416,1437.9592,416.1305,1438.0897,415.0514,1437.0107,414.3534,1436.3126,413.7018,1435.661,412.7798,1434.739,412,1433.9592,412.0208,1433.9685,412.7903,1435.7549,413.6544,1437.5834,414.4728,1439.3916,415.3784,1441.2385,416,1442.9592" style="stroke:#000000;stroke-width:1.0;"/><!--MD5=[aa8d9a4ab5f361a7afad3fe1202c4600]
link ContentsTable to softDeleteTrait--><path d="M503.19,1383.3792 L503.4574,1383.463 L505.7025,1392.912 L509.5151,1402.8523 L512.8173,1412.6326 L514.4407,1421.8867 L518.2891,1431.8382 L520.885,1441.3971 L523.9793,1451.1123 L527.4201,1460.936 L529.6668,1470.3855 L534.2904,1480.58 L535.8237,1489.8059 L539.4136,1499.6764 L543.2544,1509.6255 L545.6353,1519.117 L548.8708,1528.8764 L551.783,1538.5345 L555.0903,1548.3164 L558.2071,1558.0386 L561.6876,1567.8748 L564.8358,1577.6068 L567.8858,1587.3081 L570.3852,1596.8368 L573.6906,1606.6181 L577.0339,1616.4112 L579.18,1625.8292 " fill="none" style="stroke:#000000;stroke-width:1.0;"/><polygon fill="#000000" points="580.78,1630.9392,580.8496,1630.9474,580.8715,1628.9667,581.3014,1627.0338,581.5984,1625.0853,581.4586,1623.0858,581.9235,1621.157,581.9005,1621.1449,581.2716,1622.0925,580.7583,1623.1009,580.3254,1624.1514,579.6155,1625.0565,579.2935,1626.1653,579.3793,1626.3287,578.1942,1625.4533,577.2595,1625.055,576.3554,1624.7148,575.2736,1624.036,574.2852,1623.5353,574.3023,1623.5503,575.5761,1625.0091,576.9278,1626.5361,578.242,1628.0302,579.6278,1629.5872,580.78,1630.9392" style="stroke:#000000;stroke-width:1.0;"/><!--MD5=[163301852cf230ee64e6e68fcc5af734]
@startuml manage_contents
skinparam handwritten true
skinparam backgroundColor white
hide circle
skinparam classAttributeIconSize 0

title コンテンツ管理

class Admin\ContentsController {
  + AuthenticationComponent
  + BcMessageComponent
  + BcAdminContentsComponent
  + コンテンツ一覧表示 : index()
  + ゴミ箱一覧表示 : trash_index()
  + ゴミ箱をもとに戻す : trash_return()
  + コンテンツ編集 : edit()
  + エイリアス編集 : edit_alias()
  + コンテンツ削除 : delete()
  + 一括処理(公開・非公開・削除) : batch()
  + ゴミ箱を空にする : trash_empty()
}

class BcAdminContentsComponent {
  + initialize()
  + setupAdmin()
  + settingForm()
  + checkContentEntities()
  + beforeRender()
}

class BcFrontContentsComponent {
  + setupFront()
  + getCrumbs()
}

class BcAdminContentHelper {
  + getUserList()
  + getListTypes()
  + getSites()
  + getContentFolderList()
  + setup()
  + isActionAvailable()
  - _getExistsTitles()
  - _getIconUrl()
  + getJsonSettings()
  + isEditable()
  + getCurrentFolderLinkedUrl()
  + getFolderLinkedUrl()
}

class BcContentsHelper {
  + BcBaserHelper
  - ContentsTable
  - PermissionsTable
  + isAllowPublish()
  + getUrlById()
  + getUrl()
  + isSiteRelated()
  + getPureUrl()
  + getCurrentRelatedSiteUrl()
  + getTree()
  + getParent()
  + getRelatedSiteContents()
  + getRelatedSiteLinks()
  + getContentFolderList()
  + getSiteRoot()
  + getSiteRootId()
  + getContentByEntityId()
  + getContentByUrl()
  - _getContent()
  + isParentId()
  + isFolder()
}

class ContentService {
  + ContentsTable
}

class ContentsTable {
  + initialize()
  + implementedEvents()
  + validationDefault()
  + duplicateRelatedSiteContent()
  + beforeMarshal()
  + afterMarshal()
  + afterValidate()
  + getTrash()
  + hardDel()
  + getUniqueName()
  + beforeSave()
  + afterSave()
  + deleteAssocCache()
  + afterDelete()
  + deleteAlias()
  + deleteRelateSubSiteContent()
  + updateRelateSubSiteContent()
  + copyContentFolderPath()
  + pureUrl()
  + createContent()
  + createUrl()
  + updateSystemData()
  + isPublishById()
  + updateChildren()
  + findByType()
  + deleteByType()
  + getConditionAllowPublish()
  + isPublish()
  + isChangedStatus()
  + getParentTemplate()
  + getRelatedSiteContents()
  + getCacheTime()
  + updateAllUrl()
  + updateChildrenUrl()
  + resetTree()
  + findByUrl()
  + getOrderSameParent()
  + moveOffset()
  + disableUpdatingSystemData()
  + enableUpdatingSystemData()
}

class Content {
  + ID：id
  + コンテンツ名：name
  + プラグイン：plugin
  + コンテンツタイプ：type
  + 実体ID：entity_id
  + URL：url
  + サイトID：site_id
  + エイリアスID：alias_id
  + メインサイトコンテンツID：main_site_content_id
	+ サイトルートに配置されているかどうか：site_root
  + 親ID：parent_id
  + 左位置：lft
  + 右位置：rght
  + 深さ：level
  + タイトル：title
  + 説明文：description
  + アイキャッチ：eyecatch
  + 作成者ID：author_id
  + レイアウトテンプレート：layout_template
  + 公開状態：status
  + 公開開始日：publish_begin
  + 公開終了日：publish_end
  + 自公開状態：self_status
  + 自公開開始日：self_publish_begin
  + 自公開終了日：self_publish_end
  + 作成日：created_date
  + 編集日：modified_date
  + 検索結果より除外するかどうか：exclude_search
  + メニューから除外するかどうか：exclude_menu
  + メニューのリンクを別窓で開くかどうか：blank_link
  + 削除日：deleted_date
  + 削除状態：deleted
  + 作成日（システム）：created
  + 編集日（システム）modified
}

class ContentServiceInterface {
  + get()
  + getTrash()
  + getChildren()
  + getEmptyIndex()
  + getTreeIndex()
  + getIndex()
  + getTableConditions()
  + getTableIndex()
  + getTrashIndex()
  + getContentFolderList()
  + convertTreeList()
  + alias()
  + delete()
  + hardDelete()
  + hardDeleteWithAssoc()
  + deleteAll()
  + hardDeleteAll()
  + restore()
  + restoreAll()
  + getContentsInfo()
  + deleteRecursive()
  + getParentLayoutTemplate()
  + getUrlById()
  + getUrl()
  + update()
  + publish()
  + unpublish()
  + exists()
  + move()
  + isMovable()
  + isPublishById()
  + isAllowPublish()
  + existsContentByUrl()
  + encodeParsedUrl()
  + getNeighbors()
}

class TreeBehavior {
}

class BcUploadBehavior {
  + initialize()
  + getSettings()
  + getExistsCheckDirs()
  + beforeMarshal()
  + beforeSave()
  + setupRequestData()
  + afterSave()
  + saveTmpFiles()
  + deleteFiles()
  + deleteFileWhileChecking()
  + saveFiles()
  + saveFileWhileChecking()
  + moveFileSessionToTmp()
  + saveFile()
  + getSaveFileName()
  + rotateImage()
  + copyImage()
  + resizeImage()
  + getImageSize()
  + beforeDelete()
  + cleanupFiles()
  + delFile()
  + renameToBasenameFields()
  + renameToBasenameField()
  + getFieldBasename()
  + getFileName()
  + getBasename()
  + getUniqueFileName()
  + getSaveDir()
  + isFileExists()
  + deleteExistingFiles()
  + copyImages()
  + setUploadedFile()
  + getUploadedFile()
}

class softDeleteTrait {
  + getSoftDeleteField()
  + deleteAll()
  + hardDelete()
  + restore()
  + query()
}


Admin\ContentsController -left[#Black]-> BcAdminContentsComponent
Admin\ContentsController -right[#Black]-> BcFrontContentsComponent
Admin\ContentsController -down[#Black]-> ContentService

BcContentsHelper -left[#Black]-> ContentService
BcAdminContentHelper -left[#Black]-> ContentService

ContentService -left[dotted,#Black]-|> ContentServiceInterface
ContentService -down[#Black]-> ContentsTable
ContentsTable -left[#Black]-> Content

ContentsTable -down[#Black]-> TreeBehavior
ContentsTable -down[#Black]-> BcUploadBehavior
ContentsTable -down[#Black]-> softDeleteTrait
@enduml

PlantUML version 1.2022.1(Wed Feb 02 03:19:58 JST 2022)
(GPL source distribution)
Java Runtime: Java(TM) SE Runtime Environment
JVM: Java HotSpot(TM) 64-Bit Server VM
Default Encoding: UTF-8
Language: ja
Country: JP
--></g></svg>