<?xml version="1.0" encoding="UTF-8" standalone="no"?><svg xmlns="http://www.w3.org/2000/svg" xmlns:xlink="http://www.w3.org/1999/xlink" contentScriptType="application/ecmascript" contentStyleType="text/css" height="1386px" preserveAspectRatio="none" style="width:950px;height:1386px;" version="1.1" viewBox="0 0 950 1386" width="950px" zoomAndPan="magnify"><defs><filter height="300%" id="firdl94" width="300%" x="-1" y="-1"><feGaussianBlur result="blurOut" stdDeviation="2.0"/><feColorMatrix in="blurOut" result="blurOut2" type="matrix" values="0 0 0 0 0 0 0 0 0 0 0 0 0 0 0 0 0 0 .4 0"/><feOffset dx="4.0" dy="4.0" in="blurOut2" result="blurOut3"/><feBlend in="SourceGraphic" in2="blurOut3" mode="normal"/></filter></defs><g><ellipse cx="476.5" cy="20" fill="#000000" filter="url(#firdl94)" rx="10" ry="10" style="stroke: none; stroke-width: 1.0;"/><rect fill="#FEFECE" filter="url(#firdl94)" height="34.1328" rx="12.5" ry="12.5" style="stroke: #A80036; stroke-width: 1.5;" width="67" x="443" y="50"/><text fill="#000000" font-family="sans-serif" font-size="12" lengthAdjust="spacingAndGlyphs" textLength="47" x="453" y="71.6016">initialize</text><rect fill="#FEFECE" filter="url(#firdl94)" height="34.1328" rx="12.5" ry="12.5" style="stroke: #A80036; stroke-width: 1.5;" width="129" x="10" y="713.8281"/><text fill="#000000" font-family="sans-serif" font-size="12" lengthAdjust="spacingAndGlyphs" textLength="109" x="20" y="735.4297">getExistsCheckDirs</text><rect fill="#FEFECE" filter="url(#firdl94)" height="34.1328" rx="12.5" ry="12.5" style="stroke: #A80036; stroke-width: 1.5;" width="81" x="34" y="782.9609"/><text fill="#000000" font-family="sans-serif" font-size="12" lengthAdjust="spacingAndGlyphs" textLength="61" x="44" y="804.5625">getSaveDir</text><rect fill="#FEFECE" filter="url(#firdl94)" height="34.1328" rx="12.5" ry="12.5" style="stroke: #A80036; stroke-width: 1.5;" width="103" x="404" y="124.1328"/><text fill="#000000" font-family="sans-serif" font-size="12" lengthAdjust="spacingAndGlyphs" textLength="83" x="414" y="145.7344">beforeMarshal</text><rect fill="#FEFECE" filter="url(#firdl94)" height="34.1328" rx="12.5" ry="12.5" style="stroke: #A80036; stroke-width: 1.5;" width="120" x="198" y="748.3945"/><text fill="#000000" font-family="sans-serif" font-size="12" lengthAdjust="spacingAndGlyphs" textLength="100" x="208" y="769.9961">setUpRquestData</text><rect fill="#FEFECE" filter="url(#firdl94)" height="34.1328" rx="12.5" ry="12.5" style="stroke: #A80036; stroke-width: 1.5;" width="154" x="181" y="817.5273"/><text fill="#000000" font-family="sans-serif" font-size="12" lengthAdjust="spacingAndGlyphs" textLength="134" x="191" y="839.1289">moveFileSessionToTmp</text><rect fill="#FEFECE" filter="url(#firdl94)" height="34.1328" rx="12.5" ry="12.5" style="stroke: #A80036; stroke-width: 1.5;" width="84" x="499.25" y="198.2656"/><text fill="#000000" font-family="sans-serif" font-size="12" lengthAdjust="spacingAndGlyphs" textLength="64" x="509.25" y="219.8672">beforeSave</text><rect fill="#FEFECE" filter="url(#firdl94)" height="34.1328" rx="12.5" ry="12.5" style="stroke: #A80036; stroke-width: 1.5;" width="125" x="478.75" y="252.3984"/><text fill="#000000" font-family="sans-serif" font-size="12" lengthAdjust="spacingAndGlyphs" textLength="105" x="488.75" y="274">deleteExistingFiles</text><polygon fill="#FEFECE" filter="url(#firdl94)" points="478.25,306.5313,604.25,306.5313,616.25,318.5313,604.25,330.5313,478.25,330.5313,466.25,318.5313,478.25,306.5313" style="stroke: #A80036; stroke-width: 1.5;"/><text fill="#000000" font-family="sans-serif" font-size="11" lengthAdjust="spacingAndGlyphs" textLength="126" x="478.25" y="322.6885">ファイルが同じか違うか?</text><text fill="#000000" font-family="sans-serif" font-size="11" lengthAdjust="spacingAndGlyphs" textLength="22" x="444.25" y="316.2109">同じ</text><text fill="#000000" font-family="sans-serif" font-size="11" lengthAdjust="spacingAndGlyphs" textLength="22" x="616.25" y="316.2109">違う</text><rect fill="#FEFECE" filter="url(#firdl94)" height="34.1328" style="stroke: #A80036; stroke-width: 1.5;" width="80" x="416.25" y="340.5313"/><line style="stroke: #A80036; stroke-width: 1.5;" x1="421.25" x2="421.25" y1="340.5313" y2="374.6641"/><line style="stroke: #A80036; stroke-width: 1.5;" x1="491.25" x2="491.25" y1="340.5313" y2="374.6641"/><text fill="#000000" font-family="sans-serif" font-size="12" lengthAdjust="spacingAndGlyphs" textLength="60" x="426.25" y="362.1328">何もしない</text><rect fill="#FEFECE" filter="url(#firdl94)" height="34.1328" rx="12.5" ry="12.5" style="stroke: #A80036; stroke-width: 1.5;" width="63" x="594.75" y="340.5313"/><text fill="#000000" font-family="sans-serif" font-size="12" lengthAdjust="spacingAndGlyphs" textLength="43" x="604.75" y="362.1328">delFiles</text><rect fill="#FEFECE" filter="url(#firdl94)" height="34.1328" rx="12.5" ry="12.5" style="stroke: #A80036; stroke-width: 1.5;" width="57" x="597.75" y="394.6641"/><text fill="#000000" font-family="sans-serif" font-size="12" lengthAdjust="spacingAndGlyphs" textLength="37" x="607.75" y="416.2656">delFile</text><rect fill="#FEFECE" filter="url(#firdl94)" height="34.1328" style="stroke: #A80036; stroke-width: 1.5;" width="116" x="568.25" y="448.7969"/><line style="stroke: #A80036; stroke-width: 1.5;" x1="573.25" x2="573.25" y1="448.7969" y2="482.9297"/><line style="stroke: #A80036; stroke-width: 1.5;" x1="679.25" x2="679.25" y1="448.7969" y2="482.9297"/><text fill="#000000" font-family="sans-serif" font-size="12" lengthAdjust="spacingAndGlyphs" textLength="96" x="578.25" y="470.3984">過去の画像を削除</text><polygon fill="#FEFECE" filter="url(#firdl94)" points="541.25,488.9297,553.25,500.9297,541.25,512.9297,529.25,500.9297,541.25,488.9297" style="stroke: #A80036; stroke-width: 1.5;"/><rect fill="#FEFECE" filter="url(#firdl94)" height="34.1328" rx="12.5" ry="12.5" style="stroke: #A80036; stroke-width: 1.5;" width="81" x="500.75" y="532.9297"/><text fill="#000000" font-family="sans-serif" font-size="12" lengthAdjust="spacingAndGlyphs" textLength="61" x="510.75" y="554.5313">deleteFiles</text><rect fill="#FEFECE" filter="url(#firdl94)" height="34.1328" rx="12.5" ry="12.5" style="stroke: #A80036; stroke-width: 1.5;" width="157" x="462.75" y="597.6289"/><text fill="#000000" font-family="sans-serif" font-size="12" lengthAdjust="spacingAndGlyphs" textLength="137" x="472.75" y="619.2305">deleteFileWhileChecking</text><rect fill="#FEFECE" filter="url(#firdl94)" height="34.1328" rx="12.5" ry="12.5" style="stroke: #A80036; stroke-width: 1.5;" width="71" x="505.75" y="662.3281"/><text fill="#000000" font-family="sans-serif" font-size="12" lengthAdjust="spacingAndGlyphs" textLength="51" x="515.75" y="683.9297">saveFiles</text><polygon fill="#FEFECE" filter="url(#firdl94)" points="478.25,731.4609,604.25,731.4609,616.25,743.4609,604.25,755.4609,478.25,755.4609,466.25,743.4609,478.25,731.4609" style="stroke: #A80036; stroke-width: 1.5;"/><text fill="#000000" font-family="sans-serif" font-size="11" lengthAdjust="spacingAndGlyphs" textLength="126" x="478.25" y="747.6182">ファイルが同じか違うか?</text><text fill="#000000" font-family="sans-serif" font-size="11" lengthAdjust="spacingAndGlyphs" textLength="22" x="444.25" y="741.1406">同じ</text><text fill="#000000" font-family="sans-serif" font-size="11" lengthAdjust="spacingAndGlyphs" textLength="22" x="616.25" y="741.1406">違う</text><rect fill="#FEFECE" filter="url(#firdl94)" height="34.1328" rx="12.5" ry="12.5" style="stroke: #A80036; stroke-width: 1.5;" width="147" x="373" y="765.4609"/><text fill="#000000" font-family="sans-serif" font-size="12" lengthAdjust="spacingAndGlyphs" textLength="127" x="383" y="787.0625">saveFileWhileChecking</text><rect fill="#FEFECE" filter="url(#firdl94)" height="34.1328" rx="12.5" ry="12.5" style="stroke: #A80036; stroke-width: 1.5;" width="131" x="381" y="834.5938"/><text fill="#000000" font-family="sans-serif" font-size="12" lengthAdjust="spacingAndGlyphs" textLength="111" x="391" y="856.1953">getUniqueFileName</text><rect fill="#FEFECE" filter="url(#firdl94)" height="34.1328" style="stroke: #A80036; stroke-width: 1.5;" width="80" x="406.5" y="903.7266"/><line style="stroke: #A80036; stroke-width: 1.5;" x1="411.5" x2="411.5" y1="903.7266" y2="937.8594"/><line style="stroke: #A80036; stroke-width: 1.5;" x1="481.5" x2="481.5" y1="903.7266" y2="937.8594"/><text fill="#000000" font-family="sans-serif" font-size="12" lengthAdjust="spacingAndGlyphs" textLength="60" x="416.5" y="925.3281">保存しない</text><ellipse cx="446.5" cy="982.8594" fill="none" filter="url(#firdl94)" rx="10" ry="10" style="stroke: #000000; stroke-width: 1.0;"/><ellipse cx="447" cy="983.3594" fill="#000000" filter="url(#firdl94)" rx="6" ry="6" style="stroke: none; stroke-width: 1.0;"/><rect fill="#FEFECE" filter="url(#firdl94)" height="34.1328" rx="12.5" ry="12.5" style="stroke: #A80036; stroke-width: 1.5;" width="65" x="603.5" y="813.4609"/><text fill="#000000" font-family="sans-serif" font-size="12" lengthAdjust="spacingAndGlyphs" textLength="45" x="613.5" y="835.0625">saveFile</text><rect fill="#FEFECE" filter="url(#firdl94)" height="34.1328" rx="12.5" ry="12.5" style="stroke: #A80036; stroke-width: 1.5;" width="89" x="591.5" y="882.5938"/><text fill="#000000" font-family="sans-serif" font-size="12" lengthAdjust="spacingAndGlyphs" textLength="69" x="601.5" y="904.1953">rotateImage</text><rect fill="#FEFECE" filter="url(#firdl94)" height="34.1328" rx="12.5" ry="12.5" style="stroke: #A80036; stroke-width: 1.5;" width="88" x="592" y="951.7266"/><text fill="#000000" font-family="sans-serif" font-size="12" lengthAdjust="spacingAndGlyphs" textLength="68" x="602" y="973.3281">copyImages</text><rect fill="#FEFECE" filter="url(#firdl94)" height="34.1328" rx="12.5" ry="12.5" style="stroke: #A80036; stroke-width: 1.5;" width="96" x="588" y="1012.8594"/><text fill="#000000" font-family="sans-serif" font-size="12" lengthAdjust="spacingAndGlyphs" textLength="76" x="598" y="1034.4609">getImageSize</text><rect fill="#FEFECE" filter="url(#firdl94)" height="34.1328" rx="12.5" ry="12.5" style="stroke: #A80036; stroke-width: 1.5;" width="90" x="591" y="1066.9922"/><text fill="#000000" font-family="sans-serif" font-size="12" lengthAdjust="spacingAndGlyphs" textLength="70" x="601" y="1088.5938">resizeImage</text><polygon fill="#FEFECE" filter="url(#firdl94)" points="576,765.4609,696,765.4609,708,777.4609,696,789.4609,576,789.4609,564,777.4609,576,765.4609" style="stroke: #A80036; stroke-width: 1.5;"/><text fill="#000000" font-family="sans-serif" font-size="11" lengthAdjust="spacingAndGlyphs" textLength="120" x="576" y="781.6182">saveFileWhileChecking</text><rect fill="#FEFECE" filter="url(#firdl94)" height="34.1328" rx="12.5" ry="12.5" style="stroke: #A80036; stroke-width: 1.5;" width="65" x="603.5" y="1143.125"/><text fill="#000000" font-family="sans-serif" font-size="12" lengthAdjust="spacingAndGlyphs" textLength="45" x="613.5" y="1164.7266">saveFile</text><rect fill="#FEFECE" filter="url(#firdl94)" height="34.1328" rx="12.5" ry="12.5" style="stroke: #A80036; stroke-width: 1.5;" width="117" x="577.5" y="1197.2578"/><text fill="#000000" font-family="sans-serif" font-size="12" lengthAdjust="spacingAndGlyphs" textLength="97" x="587.5" y="1218.8594">getSaveFileName</text><rect fill="#FEFECE" filter="url(#firdl94)" height="34.1328" rx="12.5" ry="12.5" style="stroke: #A80036; stroke-width: 1.5;" width="91" x="590.5" y="1251.3906"/><text fill="#000000" font-family="sans-serif" font-size="12" lengthAdjust="spacingAndGlyphs" textLength="71" x="600.5" y="1272.9922">getFileName</text><rect fill="#FEFECE" filter="url(#firdl94)" height="34.1328" rx="12.5" ry="12.5" style="stroke: #A80036; stroke-width: 1.5;" width="124" x="574" y="1305.5234"/><text fill="#000000" font-family="sans-serif" font-size="12" lengthAdjust="spacingAndGlyphs" textLength="104" x="584" y="1327.125">getFieldBasename</text><ellipse cx="636" cy="1369.6563" fill="none" filter="url(#firdl94)" rx="10" ry="10" style="stroke: #000000; stroke-width: 1.0;"/><ellipse cx="636.5" cy="1370.1563" fill="#000000" filter="url(#firdl94)" rx="6" ry="6" style="stroke: none; stroke-width: 1.0;"/><rect fill="#FEFECE" filter="url(#firdl94)" height="34.1328" style="stroke: #A80036; stroke-width: 1.5;" width="80" x="817.5" y="587.0625"/><line style="stroke: #A80036; stroke-width: 1.5;" x1="822.5" x2="822.5" y1="587.0625" y2="621.1953"/><line style="stroke: #A80036; stroke-width: 1.5;" x1="892.5" x2="892.5" y1="587.0625" y2="621.1953"/><text fill="#000000" font-family="sans-serif" font-size="12" lengthAdjust="spacingAndGlyphs" textLength="60" x="827.5" y="608.6641">保存完了後</text><rect fill="#FEFECE" filter="url(#firdl94)" height="34.1328" rx="12.5" ry="12.5" style="stroke: #A80036; stroke-width: 1.5;" width="171" x="772" y="651.7617"/><text fill="#000000" font-family="sans-serif" font-size="12" lengthAdjust="spacingAndGlyphs" textLength="151" x="782" y="673.3633">renameToBasenameFields</text><rect fill="#FEFECE" filter="url(#firdl94)" height="34.1328" rx="12.5" ry="12.5" style="stroke: #A80036; stroke-width: 1.5;" width="165" x="775" y="720.8945"/><text fill="#000000" font-family="sans-serif" font-size="12" lengthAdjust="spacingAndGlyphs" textLength="145" x="785" y="742.4961">renameToBasenameField</text><rect fill="#FEFECE" filter="url(#firdl94)" height="34.1328" rx="12.5" ry="12.5" style="stroke: #A80036; stroke-width: 1.5;" width="124" x="795.5" y="790.0273"/><text fill="#000000" font-family="sans-serif" font-size="12" lengthAdjust="spacingAndGlyphs" textLength="104" x="805.5" y="811.6289">getFieldBasename</text><rect fill="#FEFECE" filter="url(#firdl94)" height="34.1328" rx="12.5" ry="12.5" style="stroke: #A80036; stroke-width: 1.5;" width="91" x="812" y="859.1602"/><text fill="#000000" font-family="sans-serif" font-size="12" lengthAdjust="spacingAndGlyphs" textLength="71" x="822" y="880.7617">getFileName</text><ellipse cx="857.5" cy="938.293" fill="none" filter="url(#firdl94)" rx="10" ry="10" style="stroke: #000000; stroke-width: 1.0;"/><ellipse cx="858" cy="938.793" fill="#000000" filter="url(#firdl94)" rx="6" ry="6" style="stroke: none; stroke-width: 1.0;"/><line style="stroke: #A80036; stroke-width: 1.5;" x1="476.5" x2="476.5" y1="30" y2="50"/><polygon fill="#A80036" points="472.5,40,476.5,50,480.5,40,476.5,44" style="stroke: #A80036; stroke-width: 1.0;"/><line style="stroke: #A80036; stroke-width: 1.5;" x1="74.5" x2="74.5" y1="747.9609" y2="782.9609"/><polygon fill="#A80036" points="70.5,772.9609,74.5,782.9609,78.5,772.9609,74.5,776.9609" style="stroke: #A80036; stroke-width: 1.0;"/><line style="stroke: #A80036; stroke-width: 1.5;" x1="258" x2="258" y1="782.5273" y2="817.5273"/><polygon fill="#A80036" points="254,807.5273,258,817.5273,262,807.5273,258,811.5273" style="stroke: #A80036; stroke-width: 1.0;"/><line style="stroke: #A80036; stroke-width: 1.5;" x1="541.25" x2="541.25" y1="232.3984" y2="252.3984"/><polygon fill="#A80036" points="537.25,242.3984,541.25,252.3984,545.25,242.3984,541.25,246.3984" style="stroke: #A80036; stroke-width: 1.0;"/><line style="stroke: #A80036; stroke-width: 1.5;" x1="626.25" x2="626.25" y1="374.6641" y2="394.6641"/><polygon fill="#A80036" points="622.25,384.6641,626.25,394.6641,630.25,384.6641,626.25,388.6641" style="stroke: #A80036; stroke-width: 1.0;"/><line style="stroke: #A80036; stroke-width: 1.5;" x1="626.25" x2="626.25" y1="428.7969" y2="448.7969"/><polygon fill="#A80036" points="622.25,438.7969,626.25,448.7969,630.25,438.7969,626.25,442.7969" style="stroke: #A80036; stroke-width: 1.0;"/><line style="stroke: #A80036; stroke-width: 1.5;" x1="466.25" x2="456.25" y1="318.5313" y2="318.5313"/><line style="stroke: #A80036; stroke-width: 1.5;" x1="456.25" x2="456.25" y1="318.5313" y2="340.5313"/><polygon fill="#A80036" points="452.25,330.5313,456.25,340.5313,460.25,330.5313,456.25,334.5313" style="stroke: #A80036; stroke-width: 1.0;"/><line style="stroke: #A80036; stroke-width: 1.5;" x1="616.25" x2="626.25" y1="318.5313" y2="318.5313"/><line style="stroke: #A80036; stroke-width: 1.5;" x1="626.25" x2="626.25" y1="318.5313" y2="340.5313"/><polygon fill="#A80036" points="622.25,330.5313,626.25,340.5313,630.25,330.5313,626.25,334.5313" style="stroke: #A80036; stroke-width: 1.0;"/><line style="stroke: #A80036; stroke-width: 1.5;" x1="456.25" x2="456.25" y1="374.6641" y2="500.9297"/><line style="stroke: #A80036; stroke-width: 1.5;" x1="456.25" x2="529.25" y1="500.9297" y2="500.9297"/><polygon fill="#A80036" points="519.25,496.9297,529.25,500.9297,519.25,504.9297,523.25,500.9297" style="stroke: #A80036; stroke-width: 1.0;"/><line style="stroke: #A80036; stroke-width: 1.5;" x1="626.25" x2="626.25" y1="482.9297" y2="500.9297"/><line style="stroke: #A80036; stroke-width: 1.5;" x1="626.25" x2="553.25" y1="500.9297" y2="500.9297"/><polygon fill="#A80036" points="563.25,496.9297,553.25,500.9297,563.25,504.9297,559.25,500.9297" style="stroke: #A80036; stroke-width: 1.0;"/><line style="stroke: #A80036; stroke-width: 1.5;" x1="541.25" x2="541.25" y1="286.5313" y2="306.5313"/><polygon fill="#A80036" points="537.25,296.5313,541.25,306.5313,545.25,296.5313,541.25,300.5313" style="stroke: #A80036; stroke-width: 1.0;"/><line style="stroke: #A80036; stroke-width: 1.5;" x1="541.25" x2="541.25" y1="512.9297" y2="532.9297"/><polygon fill="#A80036" points="537.25,522.9297,541.25,532.9297,545.25,522.9297,541.25,526.9297" style="stroke: #A80036; stroke-width: 1.0;"/><line style="stroke: #A80036; stroke-width: 1.5;" x1="541.25" x2="541.25" y1="567.0625" y2="597.6289"/><polygon fill="#A80036" points="537.25,587.6289,541.25,597.6289,545.25,587.6289,541.25,591.6289" style="stroke: #A80036; stroke-width: 1.0;"/><line style="stroke: #A80036; stroke-width: 1.5;" x1="541.25" x2="541.25" y1="631.7617" y2="662.3281"/><polygon fill="#A80036" points="537.25,652.3281,541.25,662.3281,545.25,652.3281,541.25,656.3281" style="stroke: #A80036; stroke-width: 1.0;"/><line style="stroke: #A80036; stroke-width: 1.5;" x1="446.5" x2="446.5" y1="799.5938" y2="834.5938"/><polygon fill="#A80036" points="442.5,824.5938,446.5,834.5938,450.5,824.5938,446.5,828.5938" style="stroke: #A80036; stroke-width: 1.0;"/><line style="stroke: #A80036; stroke-width: 1.5;" x1="446.5" x2="446.5" y1="868.7266" y2="903.7266"/><polygon fill="#A80036" points="442.5,893.7266,446.5,903.7266,450.5,893.7266,446.5,897.7266" style="stroke: #A80036; stroke-width: 1.0;"/><line style="stroke: #A80036; stroke-width: 1.5;" x1="446.5" x2="446.5" y1="937.8594" y2="972.8594"/><polygon fill="#A80036" points="442.5,962.8594,446.5,972.8594,450.5,962.8594,446.5,966.8594" style="stroke: #A80036; stroke-width: 1.0;"/><line style="stroke: #A80036; stroke-width: 1.5;" x1="636" x2="636" y1="847.5938" y2="882.5938"/><polygon fill="#A80036" points="632,872.5938,636,882.5938,640,872.5938,636,876.5938" style="stroke: #A80036; stroke-width: 1.0;"/><line style="stroke: #A80036; stroke-width: 1.5;" x1="636" x2="636" y1="916.7266" y2="951.7266"/><polygon fill="#A80036" points="632,941.7266,636,951.7266,640,941.7266,636,945.7266" style="stroke: #A80036; stroke-width: 1.0;"/><line style="stroke: #A80036; stroke-width: 1.5;" x1="636" x2="636" y1="985.8594" y2="1012.8594"/><polygon fill="#A80036" points="632,1002.8594,636,1012.8594,640,1002.8594,636,1006.8594" style="stroke: #A80036; stroke-width: 1.0;"/><line style="stroke: #A80036; stroke-width: 1.5;" x1="636" x2="636" y1="1046.9922" y2="1066.9922"/><polygon fill="#A80036" points="632,1056.9922,636,1066.9922,640,1056.9922,636,1060.9922" style="stroke: #A80036; stroke-width: 1.0;"/><line style="stroke: #A80036; stroke-width: 1.5;" x1="636" x2="636" y1="789.4609" y2="813.4609"/><polygon fill="#A80036" points="632,803.4609,636,813.4609,640,803.4609,636,807.4609" style="stroke: #A80036; stroke-width: 1.0;"/><line style="stroke: #A80036; stroke-width: 1.5;" x1="636" x2="636" y1="1101.125" y2="1111.125"/><line style="stroke: #A80036; stroke-width: 1.5;" x1="636" x2="720" y1="1111.125" y2="1111.125"/><polygon fill="#A80036" points="716,966.793,720,956.793,724,966.793,720,962.793" style="stroke: #A80036; stroke-width: 1.5;"/><line style="stroke: #A80036; stroke-width: 1.5;" x1="720" x2="720" y1="777.4609" y2="1111.125"/><line style="stroke: #A80036; stroke-width: 1.5;" x1="720" x2="708" y1="777.4609" y2="777.4609"/><polygon fill="#A80036" points="718,773.4609,708,777.4609,718,781.4609,714,777.4609" style="stroke: #A80036; stroke-width: 1.0;"/><line style="stroke: #A80036; stroke-width: 1.5;" x1="564" x2="552" y1="777.4609" y2="777.4609"/><polygon fill="#A80036" points="548,952.793,552,962.793,556,952.793,552,956.793" style="stroke: #A80036; stroke-width: 1.5;"/><line style="stroke: #A80036; stroke-width: 1.5;" x1="552" x2="552" y1="777.4609" y2="1123.125"/><line style="stroke: #A80036; stroke-width: 1.5;" x1="552" x2="636" y1="1123.125" y2="1123.125"/><line style="stroke: #A80036; stroke-width: 1.5;" x1="636" x2="636" y1="1123.125" y2="1143.125"/><polygon fill="#A80036" points="632,1133.125,636,1143.125,640,1133.125,636,1137.125" style="stroke: #A80036; stroke-width: 1.0;"/><line style="stroke: #A80036; stroke-width: 1.5;" x1="636" x2="636" y1="1177.2578" y2="1197.2578"/><polygon fill="#A80036" points="632,1187.2578,636,1197.2578,640,1187.2578,636,1191.2578" style="stroke: #A80036; stroke-width: 1.0;"/><line style="stroke: #A80036; stroke-width: 1.5;" x1="636" x2="636" y1="1231.3906" y2="1251.3906"/><polygon fill="#A80036" points="632,1241.3906,636,1251.3906,640,1241.3906,636,1245.3906" style="stroke: #A80036; stroke-width: 1.0;"/><line style="stroke: #A80036; stroke-width: 1.5;" x1="636" x2="636" y1="1285.5234" y2="1305.5234"/><polygon fill="#A80036" points="632,1295.5234,636,1305.5234,640,1295.5234,636,1299.5234" style="stroke: #A80036; stroke-width: 1.0;"/><line style="stroke: #A80036; stroke-width: 1.5;" x1="636" x2="636" y1="1339.6563" y2="1359.6563"/><polygon fill="#A80036" points="632,1349.6563,636,1359.6563,640,1349.6563,636,1353.6563" style="stroke: #A80036; stroke-width: 1.0;"/><line style="stroke: #A80036; stroke-width: 1.5;" x1="466.25" x2="446.5" y1="743.4609" y2="743.4609"/><line style="stroke: #A80036; stroke-width: 1.5;" x1="446.5" x2="446.5" y1="743.4609" y2="765.4609"/><polygon fill="#A80036" points="442.5,755.4609,446.5,765.4609,450.5,755.4609,446.5,759.4609" style="stroke: #A80036; stroke-width: 1.0;"/><line style="stroke: #A80036; stroke-width: 1.5;" x1="616.25" x2="636" y1="743.4609" y2="743.4609"/><line style="stroke: #A80036; stroke-width: 1.5;" x1="636" x2="636" y1="743.4609" y2="765.4609"/><polygon fill="#A80036" points="632,755.4609,636,765.4609,640,755.4609,636,759.4609" style="stroke: #A80036; stroke-width: 1.0;"/><line style="stroke: #A80036; stroke-width: 1.5;" x1="541.25" x2="541.25" y1="696.4609" y2="731.4609"/><polygon fill="#A80036" points="537.25,721.4609,541.25,731.4609,545.25,721.4609,541.25,725.4609" style="stroke: #A80036; stroke-width: 1.0;"/><line style="stroke: #A80036; stroke-width: 1.5;" x1="258" x2="258" y1="178.2656" y2="748.3945"/><polygon fill="#A80036" points="254,738.3945,258,748.3945,262,738.3945,258,742.3945" style="stroke: #A80036; stroke-width: 1.0;"/><line style="stroke: #A80036; stroke-width: 1.5;" x1="541.25" x2="541.25" y1="178.2656" y2="198.2656"/><polygon fill="#A80036" points="537.25,188.2656,541.25,198.2656,545.25,188.2656,541.25,192.2656" style="stroke: #A80036; stroke-width: 1.0;"/><line style="stroke: #A80036; stroke-width: 1.5;" x1="258" x2="541.25" y1="178.2656" y2="178.2656"/><line style="stroke: #A80036; stroke-width: 1.5;" x1="455.5" x2="455.5" y1="158.2656" y2="178.2656"/><polygon fill="#A80036" points="451.5,168.2656,455.5,178.2656,459.5,168.2656,455.5,172.2656" style="stroke: #A80036; stroke-width: 1.0;"/><line style="stroke: #A80036; stroke-width: 1.5;" x1="857.5" x2="857.5" y1="621.1953" y2="651.7617"/><polygon fill="#A80036" points="853.5,641.7617,857.5,651.7617,861.5,641.7617,857.5,645.7617" style="stroke: #A80036; stroke-width: 1.0;"/><line style="stroke: #A80036; stroke-width: 1.5;" x1="857.5" x2="857.5" y1="685.8945" y2="720.8945"/><polygon fill="#A80036" points="853.5,710.8945,857.5,720.8945,861.5,710.8945,857.5,714.8945" style="stroke: #A80036; stroke-width: 1.0;"/><line style="stroke: #A80036; stroke-width: 1.5;" x1="857.5" x2="857.5" y1="755.0273" y2="790.0273"/><polygon fill="#A80036" points="853.5,780.0273,857.5,790.0273,861.5,780.0273,857.5,784.0273" style="stroke: #A80036; stroke-width: 1.0;"/><line style="stroke: #A80036; stroke-width: 1.5;" x1="857.5" x2="857.5" y1="824.1602" y2="859.1602"/><polygon fill="#A80036" points="853.5,849.1602,857.5,859.1602,861.5,849.1602,857.5,853.1602" style="stroke: #A80036; stroke-width: 1.0;"/><line style="stroke: #A80036; stroke-width: 1.5;" x1="857.5" x2="857.5" y1="893.293" y2="928.293"/><polygon fill="#A80036" points="853.5,918.293,857.5,928.293,861.5,918.293,857.5,922.293" style="stroke: #A80036; stroke-width: 1.0;"/><line style="stroke: #A80036; stroke-width: 1.5;" x1="74.5" x2="74.5" y1="104.1328" y2="713.8281"/><polygon fill="#A80036" points="70.5,703.8281,74.5,713.8281,78.5,703.8281,74.5,707.8281" style="stroke: #A80036; stroke-width: 1.0;"/><line style="stroke: #A80036; stroke-width: 1.5;" x1="455.5" x2="455.5" y1="104.1328" y2="124.1328"/><polygon fill="#A80036" points="451.5,114.1328,455.5,124.1328,459.5,114.1328,455.5,118.1328" style="stroke: #A80036; stroke-width: 1.0;"/><line style="stroke: #A80036; stroke-width: 1.5;" x1="857.5" x2="857.5" y1="104.1328" y2="587.0625"/><polygon fill="#A80036" points="853.5,577.0625,857.5,587.0625,861.5,577.0625,857.5,581.0625" style="stroke: #A80036; stroke-width: 1.0;"/><line style="stroke: #A80036; stroke-width: 1.5;" x1="74.5" x2="857.5" y1="104.1328" y2="104.1328"/><line style="stroke: #A80036; stroke-width: 1.5;" x1="476.5" x2="476.5" y1="84.1328" y2="104.1328"/><polygon fill="#A80036" points="472.5,94.1328,476.5,104.1328,480.5,94.1328,476.5,98.1328" style="stroke: #A80036; stroke-width: 1.0;"/></g></svg>