<?xml version="1.0" encoding="UTF-8" standalone="no"?><svg xmlns="http://www.w3.org/2000/svg" xmlns:xlink="http://www.w3.org/1999/xlink" contentScriptType="application/ecmascript" contentStyleType="text/css" height="2809px" preserveAspectRatio="none" style="width:1042px;height:2809px;" version="1.1" viewBox="0 0 1042 2809" width="1042px" zoomAndPan="magnify"><defs><filter height="300%" id="fbp2niq" width="300%" x="-1" y="-1"><feGaussianBlur result="blurOut" stdDeviation="2.0"/><feColorMatrix in="blurOut" result="blurOut2" type="matrix" values="0 0 0 0 0 0 0 0 0 0 0 0 0 0 0 0 0 0 .4 0"/><feOffset dx="4.0" dy="4.0" in="blurOut2" result="blurOut3"/><feBlend in="SourceGraphic" in2="blurOut3" mode="normal"/></filter></defs><g><ellipse cx="378.5" cy="20" fill="#000000" filter="url(#fbp2niq)" rx="10" ry="10" style="stroke: none; stroke-width: 1.0;"/><polygon fill="#FBFB77" filter="url(#fbp2niq)" points="432,54.4111,432,79.7217,492,79.7217,492,64.4111,482,54.4111,432,54.4111" style="stroke: #A80036; stroke-width: 1.0;"/><polygon fill="#FBFB77" points="432,54.4111,432,63.0664,412,67.0664,432,71.0664,432,79.7217,492,79.7217,492,64.4111,482,54.4111,432,54.4111" style="stroke: #A80036; stroke-width: 1.0;"/><line style="stroke: #A80036; stroke-width: 1.0;" x1="482" x2="482" y1="54.4111" y2="64.4111"/><line style="stroke: #A80036; stroke-width: 1.0;" x1="492" x2="482" y1="64.4111" y2="64.4111"/><text fill="#000000" font-family="sans-serif" font-size="13" lengthAdjust="spacingAndGlyphs" textLength="39" x="438" y="71.9795">初期化</text><rect fill="#FEFECE" filter="url(#fbp2niq)" height="34.1328" rx="12.5" ry="12.5" style="stroke: #A80036; stroke-width: 1.5;" width="67" x="345" y="50"/><text fill="#000000" font-family="sans-serif" font-size="12" lengthAdjust="spacingAndGlyphs" textLength="47" x="355" y="71.6016">initialize</text><polygon fill="#FBFB77" filter="url(#fbp2niq)" points="450,95.8887,450,146.5098,879,146.5098,879,105.8887,869,95.8887,450,95.8887" style="stroke: #A80036; stroke-width: 1.0;"/><polygon fill="#FBFB77" points="450,95.8887,450,117.1992,430,121.1992,450,125.1992,450,146.5098,879,146.5098,879,105.8887,869,95.8887,450,95.8887" style="stroke: #A80036; stroke-width: 1.0;"/><line style="stroke: #A80036; stroke-width: 1.0;" x1="869" x2="869" y1="95.8887" y2="105.8887"/><line style="stroke: #A80036; stroke-width: 1.0;" x1="879" x2="869" y1="105.8887" y2="105.8887"/><text fill="#000000" font-family="sans-serif" font-size="13" lengthAdjust="spacingAndGlyphs" textLength="224" x="456" y="113.457">arrayをstringとして変換し、保存する</text><line style="stroke: #A80036; stroke-width: 1.0;" x1="450" x2="879" y1="121.1992" y2="121.1992"/><line style="stroke: #A80036; stroke-width: 1.0;" x1="450" x2="879" y1="123.1992" y2="123.1992"/><text fill="#000000" font-family="sans-serif" font-size="13" lengthAdjust="spacingAndGlyphs" textLength="408" x="456" y="138.7676">アップロードのデータをsetUploadedFileに$dataをセットアップする</text><rect fill="#FEFECE" filter="url(#fbp2niq)" height="34.1328" rx="12.5" ry="12.5" style="stroke: #A80036; stroke-width: 1.5;" width="103" x="327" y="104.1328"/><text fill="#000000" font-family="sans-serif" font-size="12" lengthAdjust="spacingAndGlyphs" textLength="83" x="337" y="125.7344">beforeMarshal</text><rect fill="#FFFFFF" filter="url(#fbp2niq)" height="292.8867" style="stroke: #000000; stroke-width: 2.0;" width="790.5" x="10" y="156.9629"/><path d="M202,157.9629 L202,166.4512 L192,176.4512 L10,176.4512 " fill="#FFFFFF" style="stroke: #000000; stroke-width: 2.0;"/><text fill="#000000" font-family="sans-serif" font-size="14" lengthAdjust="spacingAndGlyphs" textLength="182" x="13" y="171.498">新規追加データを設定に反映</text><rect fill="#FEFECE" filter="url(#fbp2niq)" height="34.1328" rx="12.5" ry="12.5" style="stroke: #A80036; stroke-width: 1.5;" width="126" x="315.5" y="193.4512"/><text fill="#000000" font-family="sans-serif" font-size="12" lengthAdjust="spacingAndGlyphs" textLength="106" x="325.5" y="215.0527">setupRequestData</text><polygon fill="#FBFB77" filter="url(#fbp2niq)" points="454.5,266.9951,454.5,292.3057,790.5,292.3057,790.5,276.9951,780.5,266.9951,454.5,266.9951" style="stroke: #A80036; stroke-width: 1.0;"/><polygon fill="#FBFB77" points="454.5,266.9951,454.5,275.6504,434.5,279.6504,454.5,283.6504,454.5,292.3057,790.5,292.3057,790.5,276.9951,780.5,266.9951,454.5,266.9951" style="stroke: #A80036; stroke-width: 1.0;"/><line style="stroke: #A80036; stroke-width: 1.0;" x1="780.5" x2="780.5" y1="266.9951" y2="276.9951"/><line style="stroke: #A80036; stroke-width: 1.0;" x1="790.5" x2="780.5" y1="276.9951" y2="276.9951"/><text fill="#000000" font-family="sans-serif" font-size="13" lengthAdjust="spacingAndGlyphs" textLength="315" x="460.5" y="284.5635">UploadedFileを処理しやすいようにセットアップする</text><rect fill="#FEFECE" filter="url(#fbp2niq)" height="34.1328" rx="12.5" ry="12.5" style="stroke: #A80036; stroke-width: 1.5;" width="112" x="322.5" y="262.584"/><text fill="#000000" font-family="sans-serif" font-size="12" lengthAdjust="spacingAndGlyphs" textLength="92" x="332.5" y="284.1855">setUploadedFile</text><polygon fill="#FEFECE" filter="url(#fbp2niq)" points="257.5,331.7168,499.5,331.7168,511.5,343.7168,499.5,355.7168,257.5,355.7168,245.5,343.7168,257.5,331.7168" style="stroke: #A80036; stroke-width: 1.5;"/><text fill="#000000" font-family="sans-serif" font-size="11" lengthAdjust="spacingAndGlyphs" textLength="242" x="257.5" y="347.874">セッションに一時ファイルが保存されている場合</text><text fill="#000000" font-family="sans-serif" font-size="11" lengthAdjust="spacingAndGlyphs" textLength="18" x="227.5" y="341.3965">yes</text><polygon fill="#FBFB77" filter="url(#fbp2niq)" points="204,370.1279,204,395.4385,615,395.4385,615,380.1279,605,370.1279,204,370.1279" style="stroke: #A80036; stroke-width: 1.0;"/><polygon fill="#FBFB77" points="204,370.1279,204,378.7832,184,382.7832,204,386.7832,204,395.4385,615,395.4385,615,380.1279,605,370.1279,204,370.1279" style="stroke: #A80036; stroke-width: 1.0;"/><line style="stroke: #A80036; stroke-width: 1.0;" x1="605" x2="605" y1="370.1279" y2="380.1279"/><line style="stroke: #A80036; stroke-width: 1.0;" x1="615" x2="605" y1="380.1279" y2="380.1279"/><text fill="#000000" font-family="sans-serif" font-size="13" lengthAdjust="spacingAndGlyphs" textLength="390" x="210" y="387.6963">セッションに保存されたファイルデータをファイルとして保存する</text><rect fill="#FEFECE" filter="url(#fbp2niq)" height="34.1328" rx="12.5" ry="12.5" style="stroke: #A80036; stroke-width: 1.5;" width="154" x="30" y="365.7168"/><text fill="#000000" font-family="sans-serif" font-size="12" lengthAdjust="spacingAndGlyphs" textLength="134" x="40" y="387.3184">moveFileSessionToTmp</text><polygon fill="#FEFECE" filter="url(#fbp2niq)" points="378.5,405.8496,390.5,417.8496,378.5,429.8496,366.5,417.8496,378.5,405.8496" style="stroke: #A80036; stroke-width: 1.5;"/><rect fill="#FFFFFF" filter="url(#fbp2niq)" height="1907.7188" style="stroke: #000000; stroke-width: 2.0;" width="968" x="67.5" y="460.3027"/><path d="M133.5,461.3027 L133.5,469.791 L123.5,479.791 L67.5,479.791 " fill="#FFFFFF" style="stroke: #000000; stroke-width: 2.0;"/><text fill="#000000" font-family="sans-serif" font-size="14" lengthAdjust="spacingAndGlyphs" textLength="56" x="70.5" y="474.8379">保存直前</text><rect fill="#FEFECE" filter="url(#fbp2niq)" height="34.1328" rx="12.5" ry="12.5" style="stroke: #A80036; stroke-width: 1.5;" width="84" x="336.5" y="496.791"/><text fill="#000000" font-family="sans-serif" font-size="12" lengthAdjust="spacingAndGlyphs" textLength="64" x="346.5" y="518.3926">beforeSave</text><rect fill="#FFFFFF" filter="url(#fbp2niq)" height="228.8867" style="stroke: #000000; stroke-width: 2.0;" width="407" x="306" y="565.9238"/><path d="M442,566.9238 L442,575.4121 L432,585.4121 L306,585.4121 " fill="#FFFFFF" style="stroke: #000000; stroke-width: 2.0;"/><text fill="#000000" font-family="sans-serif" font-size="14" lengthAdjust="spacingAndGlyphs" textLength="126" x="309" y="580.459">既存ファイルの削除</text><polygon fill="#FBFB77" filter="url(#fbp2niq)" points="461,606.8232,461,632.1338,703,632.1338,703,616.8232,693,606.8232,461,606.8232" style="stroke: #A80036; stroke-width: 1.0;"/><polygon fill="#FBFB77" points="461,606.8232,461,615.4785,441,619.4785,461,623.4785,461,632.1338,703,632.1338,703,616.8232,693,606.8232,461,606.8232" style="stroke: #A80036; stroke-width: 1.0;"/><line style="stroke: #A80036; stroke-width: 1.0;" x1="693" x2="693" y1="606.8232" y2="616.8232"/><line style="stroke: #A80036; stroke-width: 1.0;" x1="703" x2="693" y1="616.8232" y2="616.8232"/><text fill="#000000" font-family="sans-serif" font-size="13" lengthAdjust="spacingAndGlyphs" textLength="221" x="467" y="624.3916">既に存在するデータのファイルを捜索</text><rect fill="#FEFECE" filter="url(#fbp2niq)" height="34.1328" rx="12.5" ry="12.5" style="stroke: #A80036; stroke-width: 1.5;" width="125" x="316" y="602.4121"/><text fill="#000000" font-family="sans-serif" font-size="12" lengthAdjust="spacingAndGlyphs" textLength="105" x="326" y="624.0137">deleteExistingFiles</text><polygon fill="#FBFB77" filter="url(#fbp2niq)" points="443.5,675.9561,443.5,701.2666,620.5,701.2666,620.5,685.9561,610.5,675.9561,443.5,675.9561" style="stroke: #A80036; stroke-width: 1.0;"/><polygon fill="#FBFB77" points="443.5,675.9561,443.5,684.6113,423.5,688.6113,443.5,692.6113,443.5,701.2666,620.5,701.2666,620.5,685.9561,610.5,675.9561,443.5,675.9561" style="stroke: #A80036; stroke-width: 1.0;"/><line style="stroke: #A80036; stroke-width: 1.0;" x1="610.5" x2="610.5" y1="675.9561" y2="685.9561"/><line style="stroke: #A80036; stroke-width: 1.0;" x1="620.5" x2="610.5" y1="685.9561" y2="685.9561"/><text fill="#000000" font-family="sans-serif" font-size="13" lengthAdjust="spacingAndGlyphs" textLength="156" x="449.5" y="693.5244">画像ファイル群を削除する</text><rect fill="#FEFECE" filter="url(#fbp2niq)" height="34.1328" rx="12.5" ry="12.5" style="stroke: #A80036; stroke-width: 1.5;" width="90" x="333.5" y="671.5449"/><text fill="#000000" font-family="sans-serif" font-size="12" lengthAdjust="spacingAndGlyphs" textLength="70" x="343.5" y="693.1465">cleanupFiles</text><polygon fill="#FBFB77" filter="url(#fbp2niq)" points="427,745.0889,427,770.3994,565,770.3994,565,755.0889,555,745.0889,427,745.0889" style="stroke: #A80036; stroke-width: 1.0;"/><polygon fill="#FBFB77" points="427,745.0889,427,753.7441,407,757.7441,427,761.7441,427,770.3994,565,770.3994,565,755.0889,555,745.0889,427,745.0889" style="stroke: #A80036; stroke-width: 1.0;"/><line style="stroke: #A80036; stroke-width: 1.0;" x1="555" x2="555" y1="745.0889" y2="755.0889"/><line style="stroke: #A80036; stroke-width: 1.0;" x1="565" x2="555" y1="755.0889" y2="755.0889"/><text fill="#000000" font-family="sans-serif" font-size="13" lengthAdjust="spacingAndGlyphs" textLength="117" x="433" y="762.6572">ファイルを削除する</text><rect fill="#FEFECE" filter="url(#fbp2niq)" height="34.1328" rx="12.5" ry="12.5" style="stroke: #A80036; stroke-width: 1.5;" width="57" x="350" y="740.6777"/><text fill="#000000" font-family="sans-serif" font-size="12" lengthAdjust="spacingAndGlyphs" textLength="37" x="360" y="762.2793">delFile</text><rect fill="#FEFECE" filter="url(#fbp2niq)" height="34.1328" rx="12.5" ry="12.5" style="stroke: #A80036; stroke-width: 1.5;" width="113" x="322" y="829.8105"/><text fill="#000000" font-family="sans-serif" font-size="12" lengthAdjust="spacingAndGlyphs" textLength="93" x="332" y="851.4121">getUploadedFile</text><rect fill="#FFFFFF" filter="url(#fbp2niq)" height="228.8867" style="stroke: #000000; stroke-width: 2.0;" width="427" x="290" y="898.9434"/><path d="M524,899.9434 L524,908.4316 L514,918.4316 L290,918.4316 " fill="#FFFFFF" style="stroke: #000000; stroke-width: 2.0;"/><text fill="#000000" font-family="sans-serif" font-size="14" lengthAdjust="spacingAndGlyphs" textLength="224" x="293" y="913.4785">削除チェックが入ってるものの削除</text><polygon fill="#FBFB77" filter="url(#fbp2niq)" points="439,939.8428,439,965.1533,707,965.1533,707,949.8428,697,939.8428,439,939.8428" style="stroke: #A80036; stroke-width: 1.0;"/><polygon fill="#FBFB77" points="439,939.8428,439,948.498,419,952.498,439,956.498,439,965.1533,707,965.1533,707,949.8428,697,939.8428,439,939.8428" style="stroke: #A80036; stroke-width: 1.0;"/><line style="stroke: #A80036; stroke-width: 1.0;" x1="697" x2="697" y1="939.8428" y2="949.8428"/><line style="stroke: #A80036; stroke-width: 1.0;" x1="707" x2="697" y1="949.8428" y2="949.8428"/><text fill="#000000" font-family="sans-serif" font-size="13" lengthAdjust="spacingAndGlyphs" textLength="247" x="445" y="957.4111">設定ファイルをもとに削除対象かチェック</text><rect fill="#FEFECE" filter="url(#fbp2niq)" height="34.1328" rx="12.5" ry="12.5" style="stroke: #A80036; stroke-width: 1.5;" width="81" x="338" y="935.4316"/><text fill="#000000" font-family="sans-serif" font-size="12" lengthAdjust="spacingAndGlyphs" textLength="61" x="348" y="957.0332">deleteFiles</text><polygon fill="#FBFB77" filter="url(#fbp2niq)" points="477,1008.9756,477,1034.2861,647,1034.2861,647,1018.9756,637,1008.9756,477,1008.9756" style="stroke: #A80036; stroke-width: 1.0;"/><polygon fill="#FBFB77" points="477,1008.9756,477,1017.6309,457,1021.6309,477,1025.6309,477,1034.2861,647,1034.2861,647,1018.9756,637,1008.9756,477,1008.9756" style="stroke: #A80036; stroke-width: 1.0;"/><line style="stroke: #A80036; stroke-width: 1.0;" x1="637" x2="637" y1="1008.9756" y2="1018.9756"/><line style="stroke: #A80036; stroke-width: 1.0;" x1="647" x2="637" y1="1018.9756" y2="1018.9756"/><text fill="#000000" font-family="sans-serif" font-size="13" lengthAdjust="spacingAndGlyphs" textLength="149" x="483" y="1026.5439">_deleteの対象をチェック</text><rect fill="#FEFECE" filter="url(#fbp2niq)" height="34.1328" rx="12.5" ry="12.5" style="stroke: #A80036; stroke-width: 1.5;" width="157" x="300" y="1004.5645"/><text fill="#000000" font-family="sans-serif" font-size="12" lengthAdjust="spacingAndGlyphs" textLength="137" x="310" y="1026.166">deleteFileWhileChecking</text><polygon fill="#FBFB77" filter="url(#fbp2niq)" points="427,1078.1084,427,1103.4189,591,1103.4189,591,1088.1084,581,1078.1084,427,1078.1084" style="stroke: #A80036; stroke-width: 1.0;"/><polygon fill="#FBFB77" points="427,1078.1084,427,1086.7637,407,1090.7637,427,1094.7637,427,1103.4189,591,1103.4189,591,1088.1084,581,1078.1084,427,1078.1084" style="stroke: #A80036; stroke-width: 1.0;"/><line style="stroke: #A80036; stroke-width: 1.0;" x1="581" x2="581" y1="1078.1084" y2="1088.1084"/><line style="stroke: #A80036; stroke-width: 1.0;" x1="591" x2="581" y1="1088.1084" y2="1088.1084"/><text fill="#000000" font-family="sans-serif" font-size="13" lengthAdjust="spacingAndGlyphs" textLength="143" x="433" y="1095.6768">対象ファイルを削除する</text><rect fill="#FEFECE" filter="url(#fbp2niq)" height="34.1328" rx="12.5" ry="12.5" style="stroke: #A80036; stroke-width: 1.5;" width="57" x="350" y="1073.6973"/><text fill="#000000" font-family="sans-serif" font-size="12" lengthAdjust="spacingAndGlyphs" textLength="37" x="360" y="1095.2988">delFile</text><rect fill="#FFFFFF" filter="url(#fbp2niq)" height="1185.1914" style="stroke: #000000; stroke-width: 2.0;" width="948" x="77.5" y="1162.8301"/><path d="M241.5,1163.8301 L241.5,1172.3184 L231.5,1182.3184 L77.5,1182.3184 " fill="#FFFFFF" style="stroke: #000000; stroke-width: 2.0;"/><text fill="#000000" font-family="sans-serif" font-size="14" lengthAdjust="spacingAndGlyphs" textLength="154" x="80.5" y="1177.3652">ファイル作成や移動処理</text><polygon fill="#FBFB77" filter="url(#fbp2niq)" points="434,1203.7295,434,1229.04,585,1229.04,585,1213.7295,575,1203.7295,434,1203.7295" style="stroke: #A80036; stroke-width: 1.0;"/><polygon fill="#FBFB77" points="434,1203.7295,434,1212.3848,414,1216.3848,434,1220.3848,434,1229.04,585,1229.04,585,1213.7295,575,1203.7295,434,1203.7295" style="stroke: #A80036; stroke-width: 1.0;"/><line style="stroke: #A80036; stroke-width: 1.0;" x1="575" x2="575" y1="1203.7295" y2="1213.7295"/><line style="stroke: #A80036; stroke-width: 1.0;" x1="585" x2="575" y1="1213.7295" y2="1213.7295"/><text fill="#000000" font-family="sans-serif" font-size="13" lengthAdjust="spacingAndGlyphs" textLength="130" x="440" y="1221.2979">ファイル群を保存する</text><rect fill="#FEFECE" filter="url(#fbp2niq)" height="34.1328" rx="12.5" ry="12.5" style="stroke: #A80036; stroke-width: 1.5;" width="71" x="343" y="1199.3184"/><text fill="#000000" font-family="sans-serif" font-size="12" lengthAdjust="spacingAndGlyphs" textLength="51" x="353" y="1220.9199">saveFiles</text><polygon fill="#FBFB77" filter="url(#fbp2niq)" points="472,1272.8623,472,1298.1729,779,1298.1729,779,1282.8623,769,1272.8623,472,1272.8623" style="stroke: #A80036; stroke-width: 1.0;"/><polygon fill="#FBFB77" points="472,1272.8623,472,1281.5176,452,1285.5176,472,1289.5176,472,1298.1729,779,1298.1729,779,1282.8623,769,1272.8623,472,1272.8623" style="stroke: #A80036; stroke-width: 1.0;"/><line style="stroke: #A80036; stroke-width: 1.0;" x1="769" x2="769" y1="1272.8623" y2="1282.8623"/><line style="stroke: #A80036; stroke-width: 1.0;" x1="779" x2="769" y1="1282.8623" y2="1282.8623"/><text fill="#000000" font-family="sans-serif" font-size="13" lengthAdjust="spacingAndGlyphs" textLength="286" x="478" y="1290.4307">保存対象かチェックしながらファイルを保存する</text><rect fill="#FEFECE" filter="url(#fbp2niq)" height="34.1328" rx="12.5" ry="12.5" style="stroke: #A80036; stroke-width: 1.5;" width="147" x="305" y="1268.4512"/><text fill="#000000" font-family="sans-serif" font-size="12" lengthAdjust="spacingAndGlyphs" textLength="127" x="315" y="1290.0527">saveFileWhileChecking</text><polygon fill="#FBFB77" filter="url(#fbp2niq)" points="464,1341.9951,464,1367.3057,654,1367.3057,654,1351.9951,644,1341.9951,464,1341.9951" style="stroke: #A80036; stroke-width: 1.0;"/><polygon fill="#FBFB77" points="464,1341.9951,464,1350.6504,444,1354.6504,464,1358.6504,464,1367.3057,654,1367.3057,654,1351.9951,644,1341.9951,464,1341.9951" style="stroke: #A80036; stroke-width: 1.0;"/><line style="stroke: #A80036; stroke-width: 1.0;" x1="644" x2="644" y1="1341.9951" y2="1351.9951"/><line style="stroke: #A80036; stroke-width: 1.0;" x1="654" x2="644" y1="1351.9951" y2="1351.9951"/><text fill="#000000" font-family="sans-serif" font-size="13" lengthAdjust="spacingAndGlyphs" textLength="169" x="470" y="1359.5635">一意のファイル名を取得する</text><rect fill="#FEFECE" filter="url(#fbp2niq)" height="34.1328" rx="12.5" ry="12.5" style="stroke: #A80036; stroke-width: 1.5;" width="131" x="313" y="1337.584"/><text fill="#000000" font-family="sans-serif" font-size="12" lengthAdjust="spacingAndGlyphs" textLength="111" x="323" y="1359.1855">getUniqueFileName</text><polygon fill="#FBFB77" filter="url(#fbp2niq)" points="431,1411.1279,431,1436.4385,595,1436.4385,595,1421.1279,585,1411.1279,431,1411.1279" style="stroke: #A80036; stroke-width: 1.0;"/><polygon fill="#FBFB77" points="431,1411.1279,431,1419.7832,411,1423.7832,431,1427.7832,431,1436.4385,595,1436.4385,595,1421.1279,585,1411.1279,431,1411.1279" style="stroke: #A80036; stroke-width: 1.0;"/><line style="stroke: #A80036; stroke-width: 1.0;" x1="585" x2="585" y1="1411.1279" y2="1421.1279"/><line style="stroke: #A80036; stroke-width: 1.0;" x1="595" x2="585" y1="1421.1279" y2="1421.1279"/><text fill="#000000" font-family="sans-serif" font-size="13" lengthAdjust="spacingAndGlyphs" textLength="143" x="437" y="1428.6963">対象ファイルを作成する</text><rect fill="#FEFECE" filter="url(#fbp2niq)" height="34.1328" rx="12.5" ry="12.5" style="stroke: #A80036; stroke-width: 1.5;" width="65" x="346" y="1406.7168"/><text fill="#000000" font-family="sans-serif" font-size="12" lengthAdjust="spacingAndGlyphs" textLength="45" x="356" y="1428.3184">saveFile</text><polygon fill="#FBFB77" filter="url(#fbp2niq)" points="457,1480.2607,457,1505.5713,647,1505.5713,647,1490.2607,637,1480.2607,457,1480.2607" style="stroke: #A80036; stroke-width: 1.0;"/><polygon fill="#FBFB77" points="457,1480.2607,457,1488.916,437,1492.916,457,1496.916,457,1505.5713,647,1505.5713,647,1490.2607,637,1480.2607,457,1480.2607" style="stroke: #A80036; stroke-width: 1.0;"/><line style="stroke: #A80036; stroke-width: 1.0;" x1="637" x2="637" y1="1480.2607" y2="1490.2607"/><line style="stroke: #A80036; stroke-width: 1.0;" x1="647" x2="637" y1="1490.2607" y2="1490.2607"/><text fill="#000000" font-family="sans-serif" font-size="13" lengthAdjust="spacingAndGlyphs" textLength="169" x="463" y="1497.8291">保存用ファイル名を取得する</text><rect fill="#FEFECE" filter="url(#fbp2niq)" height="34.1328" rx="12.5" ry="12.5" style="stroke: #A80036; stroke-width: 1.5;" width="117" x="320" y="1475.8496"/><text fill="#000000" font-family="sans-serif" font-size="12" lengthAdjust="spacingAndGlyphs" textLength="97" x="330" y="1497.4512">getSaveFileName</text><polygon fill="#FEFECE" filter="url(#fbp2niq)" points="335.5,1544.9824,421.5,1544.9824,433.5,1556.9824,421.5,1568.9824,335.5,1568.9824,323.5,1556.9824,335.5,1544.9824" style="stroke: #A80036; stroke-width: 1.5;"/><text fill="#000000" font-family="sans-serif" font-size="11" lengthAdjust="spacingAndGlyphs" textLength="86" x="335.5" y="1561.1396">tmpIdがある場合</text><text fill="#000000" font-family="sans-serif" font-size="11" lengthAdjust="spacingAndGlyphs" textLength="33" x="290.5" y="1554.6621">いいえ</text><text fill="#000000" font-family="sans-serif" font-size="11" lengthAdjust="spacingAndGlyphs" textLength="22" x="433.5" y="1554.6621">はい</text><rect fill="#FEFECE" filter="url(#fbp2niq)" height="34.1328" rx="12.5" ry="12.5" style="stroke: #A80036; stroke-width: 1.5;" width="320" x="97.5" y="1578.9824"/><text fill="#000000" font-family="sans-serif" font-size="12" lengthAdjust="spacingAndGlyphs" textLength="300" x="107.5" y="1600.584">同名ファイルがあるかを確認しファイル名を変更し返す</text><polygon fill="#FBFB77" filter="url(#fbp2niq)" points="581.5,1578.9824,581.5,1629.6035,1005.5,1629.6035,1005.5,1588.9824,995.5,1578.9824,581.5,1578.9824" style="stroke: #A80036; stroke-width: 1.0;"/><polygon fill="#FBFB77" points="581.5,1578.9824,581.5,1600.293,561.5,1604.293,581.5,1608.293,581.5,1629.6035,1005.5,1629.6035,1005.5,1588.9824,995.5,1578.9824,581.5,1578.9824" style="stroke: #A80036; stroke-width: 1.0;"/><line style="stroke: #A80036; stroke-width: 1.0;" x1="995.5" x2="995.5" y1="1578.9824" y2="1588.9824"/><line style="stroke: #A80036; stroke-width: 1.0;" x1="1005.5" x2="995.5" y1="1588.9824" y2="1588.9824"/><text fill="#000000" font-family="sans-serif" font-size="13" lengthAdjust="spacingAndGlyphs" textLength="403" x="587.5" y="1596.5508">フィールドベースのファイル名でファイルを取得しなければ作成する</text><line style="stroke: #A80036; stroke-width: 1.0;" x1="581.5" x2="1005.5" y1="1604.293" y2="1604.293"/><line style="stroke: #A80036; stroke-width: 1.0;" x1="581.5" x2="1005.5" y1="1606.293" y2="1606.293"/><text fill="#000000" font-family="sans-serif" font-size="13" lengthAdjust="spacingAndGlyphs" textLength="258" x="587.5" y="1621.8613">_thumb, _medium, xxxxxx_eyecatchなど</text><rect fill="#FEFECE" filter="url(#fbp2niq)" height="34.1328" rx="12.5" ry="12.5" style="stroke: #A80036; stroke-width: 1.5;" width="124" x="437.5" y="1587.2266"/><text fill="#000000" font-family="sans-serif" font-size="12" lengthAdjust="spacingAndGlyphs" textLength="104" x="447.5" y="1608.8281">getFieldBasename</text><polygon fill="#FEFECE" filter="url(#fbp2niq)" points="378.5,1635.6035,390.5,1647.6035,378.5,1659.6035,366.5,1647.6035,378.5,1635.6035" style="stroke: #A80036; stroke-width: 1.5;"/><rect fill="#FFFFFF" filter="url(#fbp2niq)" height="633.418" style="stroke: #000000; stroke-width: 2.0;" width="613" x="119" y="1694.6035"/><path d="M241,1695.6035 L241,1704.0918 L231,1714.0918 L119,1714.0918 " fill="#FFFFFF" style="stroke: #000000; stroke-width: 2.0;"/><text fill="#000000" font-family="sans-serif" font-size="14" lengthAdjust="spacingAndGlyphs" textLength="112" x="122" y="1709.1387">画像の複製や作成</text><rect fill="#FEFECE" filter="url(#fbp2niq)" height="34.1328" rx="12.5" ry="12.5" style="stroke: #A80036; stroke-width: 1.5;" width="112" x="322.5" y="1731.0918"/><text fill="#000000" font-family="sans-serif" font-size="12" lengthAdjust="spacingAndGlyphs" textLength="92" x="332.5" y="1752.6934">setUploadedFile</text><polygon fill="#FBFB77" filter="url(#fbp2niq)" points="443,1804.6357,443,1829.9463,722,1829.9463,722,1814.6357,712,1804.6357,443,1804.6357" style="stroke: #A80036; stroke-width: 1.0;"/><polygon fill="#FBFB77" points="443,1804.6357,443,1813.291,423,1817.291,443,1821.291,443,1829.9463,722,1829.9463,722,1814.6357,712,1804.6357,443,1804.6357" style="stroke: #A80036; stroke-width: 1.0;"/><line style="stroke: #A80036; stroke-width: 1.0;" x1="712" x2="712" y1="1804.6357" y2="1814.6357"/><line style="stroke: #A80036; stroke-width: 1.0;" x1="722" x2="712" y1="1814.6357" y2="1814.6357"/><text fill="#000000" font-family="sans-serif" font-size="13" lengthAdjust="spacingAndGlyphs" textLength="258" x="449" y="1822.2041">画像をExif情報を元に正しい確度に回転する</text><rect fill="#FEFECE" filter="url(#fbp2niq)" height="34.1328" rx="12.5" ry="12.5" style="stroke: #A80036; stroke-width: 1.5;" width="89" x="334" y="1800.2246"/><text fill="#000000" font-family="sans-serif" font-size="12" lengthAdjust="spacingAndGlyphs" textLength="69" x="344" y="1821.8262">rotateImage</text><polygon fill="#FEFECE" filter="url(#fbp2niq)" points="335.5,1869.3574,421.5,1869.3574,433.5,1881.3574,421.5,1893.3574,335.5,1893.3574,323.5,1881.3574,335.5,1869.3574" style="stroke: #A80036; stroke-width: 1.5;"/><text fill="#000000" font-family="sans-serif" font-size="11" lengthAdjust="spacingAndGlyphs" textLength="86" x="335.5" y="1885.5146">tmpIdがある場合</text><text fill="#000000" font-family="sans-serif" font-size="11" lengthAdjust="spacingAndGlyphs" textLength="33" x="290.5" y="1879.0371">いいえ</text><text fill="#000000" font-family="sans-serif" font-size="11" lengthAdjust="spacingAndGlyphs" textLength="22" x="433.5" y="1879.0371">はい</text><rect fill="#FEFECE" filter="url(#fbp2niq)" height="34.1328" rx="12.5" ry="12.5" style="stroke: #A80036; stroke-width: 1.5;" width="128" x="216.5" y="1903.3574"/><text fill="#000000" font-family="sans-serif" font-size="12" lengthAdjust="spacingAndGlyphs" textLength="108" x="226.5" y="1924.959">ファイルを作成する</text><rect fill="#FEFECE" filter="url(#fbp2niq)" height="34.1328" rx="12.5" ry="12.5" style="stroke: #A80036; stroke-width: 1.5;" width="224" x="364.5" y="1903.3574"/><text fill="#000000" font-family="sans-serif" font-size="12" lengthAdjust="spacingAndGlyphs" textLength="204" x="374.5" y="1924.959">セッションにファイル情報を書き込む</text><polygon fill="#FEFECE" filter="url(#fbp2niq)" points="378.5,1943.4902,390.5,1955.4902,378.5,1967.4902,366.5,1955.4902,378.5,1943.4902" style="stroke: #A80036; stroke-width: 1.5;"/><polygon fill="#FEFECE" filter="url(#fbp2niq)" points="335.5,2002.4902,421.5,2002.4902,433.5,2014.4902,421.5,2026.4902,335.5,2026.4902,323.5,2014.4902,335.5,2002.4902" style="stroke: #A80036; stroke-width: 1.5;"/><text fill="#000000" font-family="sans-serif" font-size="11" lengthAdjust="spacingAndGlyphs" textLength="86" x="335.5" y="2018.6475">tmpIdがない場合</text><polygon fill="#FBFB77" filter="url(#fbp2niq)" points="251,2040.9014,251,2066.2119,535,2066.2119,535,2050.9014,525,2040.9014,251,2040.9014" style="stroke: #A80036; stroke-width: 1.0;"/><polygon fill="#FBFB77" points="251,2040.9014,251,2049.5566,231,2053.5566,251,2057.5566,251,2066.2119,535,2066.2119,535,2050.9014,525,2040.9014,251,2040.9014" style="stroke: #A80036; stroke-width: 1.0;"/><line style="stroke: #A80036; stroke-width: 1.0;" x1="525" x2="525" y1="2040.9014" y2="2050.9014"/><line style="stroke: #A80036; stroke-width: 1.0;" x1="535" x2="525" y1="2050.9014" y2="2050.9014"/><text fill="#000000" font-family="sans-serif" font-size="13" lengthAdjust="spacingAndGlyphs" textLength="263" x="257" y="2058.4697">imagecopy指定の画像をループでコピーする</text><rect fill="#FEFECE" filter="url(#fbp2niq)" height="34.1328" rx="12.5" ry="12.5" style="stroke: #A80036; stroke-width: 1.5;" width="88" x="143" y="2036.4902"/><text fill="#000000" font-family="sans-serif" font-size="12" lengthAdjust="spacingAndGlyphs" textLength="68" x="153" y="2058.0918">copyImages</text><polygon fill="#FBFB77" filter="url(#fbp2niq)" points="255,2110.0342,255,2135.3447,380,2135.3447,380,2120.0342,370,2110.0342,255,2110.0342" style="stroke: #A80036; stroke-width: 1.0;"/><polygon fill="#FBFB77" points="255,2110.0342,255,2118.6895,235,2122.6895,255,2126.6895,255,2135.3447,380,2135.3447,380,2120.0342,370,2110.0342,255,2110.0342" style="stroke: #A80036; stroke-width: 1.0;"/><line style="stroke: #A80036; stroke-width: 1.0;" x1="370" x2="370" y1="2110.0342" y2="2120.0342"/><line style="stroke: #A80036; stroke-width: 1.0;" x1="380" x2="370" y1="2120.0342" y2="2120.0342"/><text fill="#000000" font-family="sans-serif" font-size="13" lengthAdjust="spacingAndGlyphs" textLength="104" x="261" y="2127.6025">画像サイズの取得</text><rect fill="#FEFECE" filter="url(#fbp2niq)" height="34.1328" rx="12.5" ry="12.5" style="stroke: #A80036; stroke-width: 1.5;" width="96" x="139" y="2105.623"/><text fill="#000000" font-family="sans-serif" font-size="12" lengthAdjust="spacingAndGlyphs" textLength="76" x="149" y="2127.2246">getImageSize</text><rect fill="#FEFECE" filter="url(#fbp2niq)" height="34.1328" rx="12.5" ry="12.5" style="stroke: #A80036; stroke-width: 1.5;" width="82" x="146" y="2174.7559"/><text fill="#000000" font-family="sans-serif" font-size="12" lengthAdjust="spacingAndGlyphs" textLength="62" x="156" y="2196.3574">copyImage</text><polygon fill="#FBFB77" filter="url(#fbp2niq)" points="252,2248.2998,252,2273.6104,429,2273.6104,429,2258.2998,419,2248.2998,252,2248.2998" style="stroke: #A80036; stroke-width: 1.0;"/><polygon fill="#FBFB77" points="252,2248.2998,252,2256.9551,232,2260.9551,252,2264.9551,252,2273.6104,429,2273.6104,429,2258.2998,419,2248.2998,252,2248.2998" style="stroke: #A80036; stroke-width: 1.0;"/><line style="stroke: #A80036; stroke-width: 1.0;" x1="419" x2="419" y1="2248.2998" y2="2258.2998"/><line style="stroke: #A80036; stroke-width: 1.0;" x1="429" x2="419" y1="2258.2998" y2="2258.2998"/><text fill="#000000" font-family="sans-serif" font-size="13" lengthAdjust="spacingAndGlyphs" textLength="156" x="258" y="2265.8682">画像ファイルをコピーする</text><rect fill="#FEFECE" filter="url(#fbp2niq)" height="34.1328" rx="12.5" ry="12.5" style="stroke: #A80036; stroke-width: 1.5;" width="90" x="142" y="2243.8887"/><text fill="#000000" font-family="sans-serif" font-size="12" lengthAdjust="spacingAndGlyphs" textLength="70" x="152" y="2265.4902">resizeImage</text><polygon fill="#FEFECE" filter="url(#fbp2niq)" points="378.5,2284.0215,390.5,2296.0215,378.5,2308.0215,366.5,2296.0215,378.5,2284.0215" style="stroke: #A80036; stroke-width: 1.5;"/><rect fill="#FFFFFF" filter="url(#fbp2niq)" height="383.6406" style="stroke: #000000; stroke-width: 2.0;" width="661" x="283" y="2378.4746"/><path d="M349,2379.4746 L349,2387.9629 L339,2397.9629 L283,2397.9629 " fill="#FFFFFF" style="stroke: #000000; stroke-width: 2.0;"/><text fill="#000000" font-family="sans-serif" font-size="14" lengthAdjust="spacingAndGlyphs" textLength="56" x="286" y="2393.0098">保存直後</text><rect fill="#FEFECE" filter="url(#fbp2niq)" height="34.1328" rx="12.5" ry="12.5" style="stroke: #A80036; stroke-width: 1.5;" width="73" x="342" y="2414.9629"/><text fill="#000000" font-family="sans-serif" font-size="12" lengthAdjust="spacingAndGlyphs" textLength="53" x="352" y="2436.5645">afterSave</text><polygon fill="#FBFB77" filter="url(#fbp2niq)" points="484,2488.5068,484,2513.8174,934,2513.8174,934,2498.5068,924,2488.5068,484,2488.5068" style="stroke: #A80036; stroke-width: 1.0;"/><polygon fill="#FBFB77" points="484,2488.5068,484,2497.1621,464,2501.1621,484,2505.1621,484,2513.8174,934,2513.8174,934,2498.5068,924,2488.5068,484,2488.5068" style="stroke: #A80036; stroke-width: 1.0;"/><line style="stroke: #A80036; stroke-width: 1.0;" x1="924" x2="924" y1="2488.5068" y2="2498.5068"/><line style="stroke: #A80036; stroke-width: 1.0;" x1="934" x2="924" y1="2498.5068" y2="2498.5068"/><text fill="#000000" font-family="sans-serif" font-size="13" lengthAdjust="spacingAndGlyphs" textLength="429" x="490" y="2506.0752">全フィールドのファイル名をフィールド値ベースのファイル名に変更する</text><rect fill="#FEFECE" filter="url(#fbp2niq)" height="34.1328" rx="12.5" ry="12.5" style="stroke: #A80036; stroke-width: 1.5;" width="171" x="293" y="2484.0957"/><text fill="#000000" font-family="sans-serif" font-size="12" lengthAdjust="spacingAndGlyphs" textLength="151" x="303" y="2505.6973">renameToBasenameFields</text><polygon fill="#FBFB77" filter="url(#fbp2niq)" points="481,2557.6396,481,2582.9502,840,2582.9502,840,2567.6396,830,2557.6396,481,2557.6396" style="stroke: #A80036; stroke-width: 1.0;"/><polygon fill="#FBFB77" points="481,2557.6396,481,2566.2949,461,2570.2949,481,2574.2949,481,2582.9502,840,2582.9502,840,2567.6396,830,2557.6396,481,2557.6396" style="stroke: #A80036; stroke-width: 1.0;"/><line style="stroke: #A80036; stroke-width: 1.0;" x1="830" x2="830" y1="2557.6396" y2="2567.6396"/><line style="stroke: #A80036; stroke-width: 1.0;" x1="840" x2="830" y1="2567.6396" y2="2567.6396"/><text fill="#000000" font-family="sans-serif" font-size="13" lengthAdjust="spacingAndGlyphs" textLength="338" x="487" y="2575.208">ファイル名をフィールド値ベースのファイル名に変更する</text><rect fill="#FEFECE" filter="url(#fbp2niq)" height="34.1328" rx="12.5" ry="12.5" style="stroke: #A80036; stroke-width: 1.5;" width="165" x="296" y="2553.2285"/><text fill="#000000" font-family="sans-serif" font-size="12" lengthAdjust="spacingAndGlyphs" textLength="145" x="306" y="2574.8301">renameToBasenameField</text><polygon fill="#FBFB77" filter="url(#fbp2niq)" points="460.5,2622.3613,460.5,2672.9824,884.5,2672.9824,884.5,2632.3613,874.5,2622.3613,460.5,2622.3613" style="stroke: #A80036; stroke-width: 1.0;"/><polygon fill="#FBFB77" points="460.5,2622.3613,460.5,2643.6719,440.5,2647.6719,460.5,2651.6719,460.5,2672.9824,884.5,2672.9824,884.5,2632.3613,874.5,2622.3613,460.5,2622.3613" style="stroke: #A80036; stroke-width: 1.0;"/><line style="stroke: #A80036; stroke-width: 1.0;" x1="874.5" x2="874.5" y1="2622.3613" y2="2632.3613"/><line style="stroke: #A80036; stroke-width: 1.0;" x1="884.5" x2="874.5" y1="2632.3613" y2="2632.3613"/><text fill="#000000" font-family="sans-serif" font-size="13" lengthAdjust="spacingAndGlyphs" textLength="403" x="466.5" y="2639.9297">フィールドベースのファイル名でファイルを取得しなければ作成する</text><line style="stroke: #A80036; stroke-width: 1.0;" x1="460.5" x2="884.5" y1="2647.6719" y2="2647.6719"/><line style="stroke: #A80036; stroke-width: 1.0;" x1="460.5" x2="884.5" y1="2649.6719" y2="2649.6719"/><text fill="#000000" font-family="sans-serif" font-size="13" lengthAdjust="spacingAndGlyphs" textLength="258" x="466.5" y="2665.2402">_thumb, _medium, xxxxxx_eyecatchなど</text><rect fill="#FEFECE" filter="url(#fbp2niq)" height="34.1328" rx="12.5" ry="12.5" style="stroke: #A80036; stroke-width: 1.5;" width="124" x="316.5" y="2630.6055"/><text fill="#000000" font-family="sans-serif" font-size="12" lengthAdjust="spacingAndGlyphs" textLength="104" x="326.5" y="2652.207">getFieldBasename</text><polygon fill="#FBFB77" filter="url(#fbp2niq)" points="444,2712.3936,444,2737.7041,842,2737.7041,842,2722.3936,832,2712.3936,444,2712.3936" style="stroke: #A80036; stroke-width: 1.0;"/><polygon fill="#FBFB77" points="444,2712.3936,444,2721.0488,424,2725.0488,444,2729.0488,444,2737.7041,842,2737.7041,842,2722.3936,832,2712.3936,444,2712.3936" style="stroke: #A80036; stroke-width: 1.0;"/><line style="stroke: #A80036; stroke-width: 1.0;" x1="832" x2="832" y1="2712.3936" y2="2722.3936"/><line style="stroke: #A80036; stroke-width: 1.0;" x1="842" x2="832" y1="2722.3936" y2="2722.3936"/><text fill="#000000" font-family="sans-serif" font-size="13" lengthAdjust="spacingAndGlyphs" textLength="377" x="450" y="2729.9619">ベースファイル名からプレフィックス付のファイル名を取得する</text><rect fill="#FEFECE" filter="url(#fbp2niq)" height="34.1328" rx="12.5" ry="12.5" style="stroke: #A80036; stroke-width: 1.5;" width="91" x="333" y="2707.9824"/><text fill="#000000" font-family="sans-serif" font-size="12" lengthAdjust="spacingAndGlyphs" textLength="71" x="343" y="2729.584">getFileName</text><ellipse cx="378.5" cy="2792.1152" fill="none" filter="url(#fbp2niq)" rx="10" ry="10" style="stroke: #000000; stroke-width: 1.0;"/><ellipse cx="379" cy="2792.6152" fill="#000000" filter="url(#fbp2niq)" rx="6" ry="6" style="stroke: none; stroke-width: 1.0;"/><line style="stroke: #A80036; stroke-width: 1.5;" x1="378.5" x2="378.5" y1="30" y2="50"/><polygon fill="#A80036" points="374.5,40,378.5,50,382.5,40,378.5,44" style="stroke: #A80036; stroke-width: 1.0;"/><line style="stroke: #A80036; stroke-width: 1.5;" x1="378.5" x2="378.5" y1="84.1328" y2="104.1328"/><polygon fill="#A80036" points="374.5,94.1328,378.5,104.1328,382.5,94.1328,378.5,98.1328" style="stroke: #A80036; stroke-width: 1.0;"/><line style="stroke: #A80036; stroke-width: 1.5;" x1="378.5" x2="378.5" y1="227.584" y2="262.584"/><polygon fill="#A80036" points="374.5,252.584,378.5,262.584,382.5,252.584,378.5,256.584" style="stroke: #A80036; stroke-width: 1.0;"/><line style="stroke: #A80036; stroke-width: 1.5;" x1="245.5" x2="107" y1="343.7168" y2="343.7168"/><line style="stroke: #A80036; stroke-width: 1.5;" x1="107" x2="107" y1="343.7168" y2="365.7168"/><polygon fill="#A80036" points="103,355.7168,107,365.7168,111,355.7168,107,359.7168" style="stroke: #A80036; stroke-width: 1.0;"/><line style="stroke: #A80036; stroke-width: 1.5;" x1="511.5" x2="650" y1="343.7168" y2="343.7168"/><polygon fill="#A80036" points="646,370.7832,650,380.7832,654,370.7832,650,374.7832" style="stroke: #A80036; stroke-width: 1.5;"/><line style="stroke: #A80036; stroke-width: 1.5;" x1="650" x2="650" y1="343.7168" y2="417.8496"/><line style="stroke: #A80036; stroke-width: 1.5;" x1="650" x2="390.5" y1="417.8496" y2="417.8496"/><polygon fill="#A80036" points="400.5,413.8496,390.5,417.8496,400.5,421.8496,396.5,417.8496" style="stroke: #A80036; stroke-width: 1.0;"/><line style="stroke: #A80036; stroke-width: 1.5;" x1="107" x2="107" y1="399.8496" y2="417.8496"/><line style="stroke: #A80036; stroke-width: 1.5;" x1="107" x2="366.5" y1="417.8496" y2="417.8496"/><polygon fill="#A80036" points="356.5,413.8496,366.5,417.8496,356.5,421.8496,360.5,417.8496" style="stroke: #A80036; stroke-width: 1.0;"/><line style="stroke: #A80036; stroke-width: 1.5;" x1="378.5" x2="378.5" y1="296.7168" y2="331.7168"/><polygon fill="#A80036" points="374.5,321.7168,378.5,331.7168,382.5,321.7168,378.5,325.7168" style="stroke: #A80036; stroke-width: 1.0;"/><line style="stroke: #A80036; stroke-width: 1.5;" x1="378.5" x2="378.5" y1="138.2656" y2="193.4512"/><polygon fill="#A80036" points="374.5,183.4512,378.5,193.4512,382.5,183.4512,378.5,187.4512" style="stroke: #A80036; stroke-width: 1.0;"/><line style="stroke: #A80036; stroke-width: 1.5;" x1="378.5" x2="378.5" y1="636.5449" y2="671.5449"/><polygon fill="#A80036" points="374.5,661.5449,378.5,671.5449,382.5,661.5449,378.5,665.5449" style="stroke: #A80036; stroke-width: 1.0;"/><line style="stroke: #A80036; stroke-width: 1.5;" x1="378.5" x2="378.5" y1="705.6777" y2="740.6777"/><polygon fill="#A80036" points="374.5,730.6777,378.5,740.6777,382.5,730.6777,378.5,734.6777" style="stroke: #A80036; stroke-width: 1.0;"/><line style="stroke: #A80036; stroke-width: 1.5;" x1="378.5" x2="378.5" y1="530.9238" y2="602.4121"/><polygon fill="#A80036" points="374.5,592.4121,378.5,602.4121,382.5,592.4121,378.5,596.4121" style="stroke: #A80036; stroke-width: 1.0;"/><line style="stroke: #A80036; stroke-width: 1.5;" x1="378.5" x2="378.5" y1="774.8105" y2="829.8105"/><polygon fill="#A80036" points="374.5,819.8105,378.5,829.8105,382.5,819.8105,378.5,823.8105" style="stroke: #A80036; stroke-width: 1.0;"/><line style="stroke: #A80036; stroke-width: 1.5;" x1="378.5" x2="378.5" y1="969.5645" y2="1004.5645"/><polygon fill="#A80036" points="374.5,994.5645,378.5,1004.5645,382.5,994.5645,378.5,998.5645" style="stroke: #A80036; stroke-width: 1.0;"/><line style="stroke: #A80036; stroke-width: 1.5;" x1="378.5" x2="378.5" y1="1038.6973" y2="1073.6973"/><polygon fill="#A80036" points="374.5,1063.6973,378.5,1073.6973,382.5,1063.6973,378.5,1067.6973" style="stroke: #A80036; stroke-width: 1.0;"/><line style="stroke: #A80036; stroke-width: 1.5;" x1="378.5" x2="378.5" y1="863.9434" y2="935.4316"/><polygon fill="#A80036" points="374.5,925.4316,378.5,935.4316,382.5,925.4316,378.5,929.4316" style="stroke: #A80036; stroke-width: 1.0;"/><line style="stroke: #A80036; stroke-width: 1.5;" x1="378.5" x2="378.5" y1="1233.4512" y2="1268.4512"/><polygon fill="#A80036" points="374.5,1258.4512,378.5,1268.4512,382.5,1258.4512,378.5,1262.4512" style="stroke: #A80036; stroke-width: 1.0;"/><line style="stroke: #A80036; stroke-width: 1.5;" x1="378.5" x2="378.5" y1="1302.584" y2="1337.584"/><polygon fill="#A80036" points="374.5,1327.584,378.5,1337.584,382.5,1327.584,378.5,1331.584" style="stroke: #A80036; stroke-width: 1.0;"/><line style="stroke: #A80036; stroke-width: 1.5;" x1="378.5" x2="378.5" y1="1371.7168" y2="1406.7168"/><polygon fill="#A80036" points="374.5,1396.7168,378.5,1406.7168,382.5,1396.7168,378.5,1400.7168" style="stroke: #A80036; stroke-width: 1.0;"/><line style="stroke: #A80036; stroke-width: 1.5;" x1="378.5" x2="378.5" y1="1440.8496" y2="1475.8496"/><polygon fill="#A80036" points="374.5,1465.8496,378.5,1475.8496,382.5,1465.8496,378.5,1469.8496" style="stroke: #A80036; stroke-width: 1.0;"/><line style="stroke: #A80036; stroke-width: 1.5;" x1="323.5" x2="257.5" y1="1556.9824" y2="1556.9824"/><line style="stroke: #A80036; stroke-width: 1.5;" x1="257.5" x2="257.5" y1="1556.9824" y2="1578.9824"/><polygon fill="#A80036" points="253.5,1568.9824,257.5,1578.9824,261.5,1568.9824,257.5,1572.9824" style="stroke: #A80036; stroke-width: 1.0;"/><line style="stroke: #A80036; stroke-width: 1.5;" x1="433.5" x2="499.5" y1="1556.9824" y2="1556.9824"/><line style="stroke: #A80036; stroke-width: 1.5;" x1="499.5" x2="499.5" y1="1556.9824" y2="1587.2266"/><polygon fill="#A80036" points="495.5,1577.2266,499.5,1587.2266,503.5,1577.2266,499.5,1581.2266" style="stroke: #A80036; stroke-width: 1.0;"/><line style="stroke: #A80036; stroke-width: 1.5;" x1="257.5" x2="257.5" y1="1613.1152" y2="1647.6035"/><line style="stroke: #A80036; stroke-width: 1.5;" x1="257.5" x2="366.5" y1="1647.6035" y2="1647.6035"/><polygon fill="#A80036" points="356.5,1643.6035,366.5,1647.6035,356.5,1651.6035,360.5,1647.6035" style="stroke: #A80036; stroke-width: 1.0;"/><line style="stroke: #A80036; stroke-width: 1.5;" x1="499.5" x2="499.5" y1="1621.3594" y2="1647.6035"/><line style="stroke: #A80036; stroke-width: 1.5;" x1="499.5" x2="390.5" y1="1647.6035" y2="1647.6035"/><polygon fill="#A80036" points="400.5,1643.6035,390.5,1647.6035,400.5,1651.6035,396.5,1647.6035" style="stroke: #A80036; stroke-width: 1.0;"/><line style="stroke: #A80036; stroke-width: 1.5;" x1="378.5" x2="378.5" y1="1509.9824" y2="1544.9824"/><polygon fill="#A80036" points="374.5,1534.9824,378.5,1544.9824,382.5,1534.9824,378.5,1538.9824" style="stroke: #A80036; stroke-width: 1.0;"/><line style="stroke: #A80036; stroke-width: 1.5;" x1="378.5" x2="378.5" y1="1765.2246" y2="1800.2246"/><polygon fill="#A80036" points="374.5,1790.2246,378.5,1800.2246,382.5,1790.2246,378.5,1794.2246" style="stroke: #A80036; stroke-width: 1.0;"/><line style="stroke: #A80036; stroke-width: 1.5;" x1="323.5" x2="280.5" y1="1881.3574" y2="1881.3574"/><line style="stroke: #A80036; stroke-width: 1.5;" x1="280.5" x2="280.5" y1="1881.3574" y2="1903.3574"/><polygon fill="#A80036" points="276.5,1893.3574,280.5,1903.3574,284.5,1893.3574,280.5,1897.3574" style="stroke: #A80036; stroke-width: 1.0;"/><line style="stroke: #A80036; stroke-width: 1.5;" x1="433.5" x2="476.5" y1="1881.3574" y2="1881.3574"/><line style="stroke: #A80036; stroke-width: 1.5;" x1="476.5" x2="476.5" y1="1881.3574" y2="1903.3574"/><polygon fill="#A80036" points="472.5,1893.3574,476.5,1903.3574,480.5,1893.3574,476.5,1897.3574" style="stroke: #A80036; stroke-width: 1.0;"/><line style="stroke: #A80036; stroke-width: 1.5;" x1="280.5" x2="280.5" y1="1937.4902" y2="1955.4902"/><line style="stroke: #A80036; stroke-width: 1.5;" x1="280.5" x2="366.5" y1="1955.4902" y2="1955.4902"/><polygon fill="#A80036" points="356.5,1951.4902,366.5,1955.4902,356.5,1959.4902,360.5,1955.4902" style="stroke: #A80036; stroke-width: 1.0;"/><line style="stroke: #A80036; stroke-width: 1.5;" x1="476.5" x2="476.5" y1="1937.4902" y2="1955.4902"/><line style="stroke: #A80036; stroke-width: 1.5;" x1="476.5" x2="390.5" y1="1955.4902" y2="1955.4902"/><polygon fill="#A80036" points="400.5,1951.4902,390.5,1955.4902,400.5,1959.4902,396.5,1955.4902" style="stroke: #A80036; stroke-width: 1.0;"/><line style="stroke: #A80036; stroke-width: 1.5;" x1="378.5" x2="378.5" y1="1834.3574" y2="1869.3574"/><polygon fill="#A80036" points="374.5,1859.3574,378.5,1869.3574,382.5,1859.3574,378.5,1863.3574" style="stroke: #A80036; stroke-width: 1.0;"/><line style="stroke: #A80036; stroke-width: 1.5;" x1="187" x2="187" y1="2070.623" y2="2105.623"/><polygon fill="#A80036" points="183,2095.623,187,2105.623,191,2095.623,187,2099.623" style="stroke: #A80036; stroke-width: 1.0;"/><line style="stroke: #A80036; stroke-width: 1.5;" x1="187" x2="187" y1="2139.7559" y2="2174.7559"/><polygon fill="#A80036" points="183,2164.7559,187,2174.7559,191,2164.7559,187,2168.7559" style="stroke: #A80036; stroke-width: 1.0;"/><line style="stroke: #A80036; stroke-width: 1.5;" x1="187" x2="187" y1="2208.8887" y2="2243.8887"/><polygon fill="#A80036" points="183,2233.8887,187,2243.8887,191,2233.8887,187,2237.8887" style="stroke: #A80036; stroke-width: 1.0;"/><line style="stroke: #A80036; stroke-width: 1.5;" x1="323.5" x2="187" y1="2014.4902" y2="2014.4902"/><line style="stroke: #A80036; stroke-width: 1.5;" x1="187" x2="187" y1="2014.4902" y2="2036.4902"/><polygon fill="#A80036" points="183,2026.4902,187,2036.4902,191,2026.4902,187,2030.4902" style="stroke: #A80036; stroke-width: 1.0;"/><line style="stroke: #A80036; stroke-width: 1.5;" x1="433.5" x2="570" y1="2014.4902" y2="2014.4902"/><polygon fill="#A80036" points="566,2145.2559,570,2155.2559,574,2145.2559,570,2149.2559" style="stroke: #A80036; stroke-width: 1.5;"/><line style="stroke: #A80036; stroke-width: 1.5;" x1="570" x2="570" y1="2014.4902" y2="2296.0215"/><line style="stroke: #A80036; stroke-width: 1.5;" x1="570" x2="390.5" y1="2296.0215" y2="2296.0215"/><polygon fill="#A80036" points="400.5,2292.0215,390.5,2296.0215,400.5,2300.0215,396.5,2296.0215" style="stroke: #A80036; stroke-width: 1.0;"/><line style="stroke: #A80036; stroke-width: 1.5;" x1="187" x2="187" y1="2278.0215" y2="2296.0215"/><line style="stroke: #A80036; stroke-width: 1.5;" x1="187" x2="366.5" y1="2296.0215" y2="2296.0215"/><polygon fill="#A80036" points="356.5,2292.0215,366.5,2296.0215,356.5,2300.0215,360.5,2296.0215" style="stroke: #A80036; stroke-width: 1.0;"/><line style="stroke: #A80036; stroke-width: 1.5;" x1="378.5" x2="378.5" y1="1967.4902" y2="2002.4902"/><polygon fill="#A80036" points="374.5,1992.4902,378.5,2002.4902,382.5,1992.4902,378.5,1996.4902" style="stroke: #A80036; stroke-width: 1.0;"/><line style="stroke: #A80036; stroke-width: 1.5;" x1="378.5" x2="378.5" y1="1659.6035" y2="1731.0918"/><polygon fill="#A80036" points="374.5,1721.0918,378.5,1731.0918,382.5,1721.0918,378.5,1725.0918" style="stroke: #A80036; stroke-width: 1.0;"/><line style="stroke: #A80036; stroke-width: 1.5;" x1="378.5" x2="378.5" y1="1107.8301" y2="1199.3184"/><polygon fill="#A80036" points="374.5,1189.3184,378.5,1199.3184,382.5,1189.3184,378.5,1193.3184" style="stroke: #A80036; stroke-width: 1.0;"/><line style="stroke: #A80036; stroke-width: 1.5;" x1="378.5" x2="378.5" y1="429.8496" y2="496.791"/><polygon fill="#A80036" points="374.5,486.791,378.5,496.791,382.5,486.791,378.5,490.791" style="stroke: #A80036; stroke-width: 1.0;"/><line style="stroke: #A80036; stroke-width: 1.5;" x1="378.5" x2="378.5" y1="2449.0957" y2="2484.0957"/><polygon fill="#A80036" points="374.5,2474.0957,378.5,2484.0957,382.5,2474.0957,378.5,2478.0957" style="stroke: #A80036; stroke-width: 1.0;"/><line style="stroke: #A80036; stroke-width: 1.5;" x1="378.5" x2="378.5" y1="2518.2285" y2="2553.2285"/><polygon fill="#A80036" points="374.5,2543.2285,378.5,2553.2285,382.5,2543.2285,378.5,2547.2285" style="stroke: #A80036; stroke-width: 1.0;"/><line style="stroke: #A80036; stroke-width: 1.5;" x1="378.5" x2="378.5" y1="2587.3613" y2="2630.6055"/><polygon fill="#A80036" points="374.5,2620.6055,378.5,2630.6055,382.5,2620.6055,378.5,2624.6055" style="stroke: #A80036; stroke-width: 1.0;"/><line style="stroke: #A80036; stroke-width: 1.5;" x1="378.5" x2="378.5" y1="2664.7383" y2="2707.9824"/><polygon fill="#A80036" points="374.5,2697.9824,378.5,2707.9824,382.5,2697.9824,378.5,2701.9824" style="stroke: #A80036; stroke-width: 1.0;"/><line style="stroke: #A80036; stroke-width: 1.5;" x1="378.5" x2="378.5" y1="2308.0215" y2="2414.9629"/><polygon fill="#A80036" points="374.5,2404.9629,378.5,2414.9629,382.5,2404.9629,378.5,2408.9629" style="stroke: #A80036; stroke-width: 1.0;"/><line style="stroke: #A80036; stroke-width: 1.5;" x1="378.5" x2="378.5" y1="2742.1152" y2="2782.1152"/><polygon fill="#A80036" points="374.5,2772.1152,378.5,2782.1152,382.5,2772.1152,378.5,2776.1152" style="stroke: #A80036; stroke-width: 1.0;"/></g></svg>