<?xml version="1.0" encoding="UTF-8" standalone="no"?><svg xmlns="http://www.w3.org/2000/svg" xmlns:xlink="http://www.w3.org/1999/xlink" contentScriptType="application/ecmascript" contentStyleType="text/css" height="651px" preserveAspectRatio="none" style="width:524px;height:651px;" version="1.1" viewBox="0 0 524 651" width="524px" zoomAndPan="magnify"><defs><filter height="300%" id="f6egyyc" width="300%" x="-1" y="-1"><feGaussianBlur result="blurOut" stdDeviation="2.0"/><feColorMatrix in="blurOut" result="blurOut2" type="matrix" values="0 0 0 0 0 0 0 0 0 0 0 0 0 0 0 0 0 0 .4 0"/><feOffset dx="4.0" dy="4.0" in="blurOut2" result="blurOut3"/><feBlend in="SourceGraphic" in2="blurOut3" mode="normal"/></filter></defs><g><text fill="#000000" font-family="sans-serif" font-size="18" lengthAdjust="spacingAndGlyphs" textLength="99" x="217.5" y="17.4023">ユーザーAPI</text><!--class Api\UsersController--><polygon fill="#FEFECE" filter="url(#f6egyyc)" points="122.5,29.1992,122.5,28.5681,132.38,28.8615,142.26,28.7076,152.14,28.5586,162.02,29.5352,171.9,28.7417,181.78,29.5295,191.66,28.9203,201.54,29.7969,211.42,29.6849,221.3,29.9348,231.18,29.7599,241.06,29.69,250.94,29.3122,260.82,29.9437,270.7,29.9306,280.58,29.8626,290.46,29.5207,300.34,29.8983,310.22,29.4329,320.1,29.829,329.98,29.3503,339.86,28.6334,349.74,29.7642,359.62,29.4497,369.5,29.1992,370.2102,29.1992,368.8084,39.4688,369.0978,49.7383,369.452,60.0078,370.182,70.2773,369.3909,80.5469,369.2227,90.8164,370.1878,101.0859,369.7426,111.3555,369.3049,121.625,369.1229,131.8945,368.9855,142.1641,369.2963,152.4336,369.8216,162.7031,369.5,172.9727,369.5,173.1638,359.62,172.8717,349.74,172.2452,339.86,173.2567,329.98,173.2324,320.1,172.2734,310.22,173.3098,300.34,173.2888,290.46,172.466,280.58,173.1844,270.7,172.7139,260.82,173.5089,250.94,173.4547,241.06,172.7346,231.18,173.1393,221.3,173.1276,211.42,172.7573,201.54,172.8877,191.66,172.3056,181.78,172.3529,171.9,172.363,162.02,173.2446,152.14,172.2691,142.26,172.9662,132.38,172.7816,122.5,172.9727,122.5862,172.9727,122.3073,162.7031,121.7888,152.4336,122.2547,142.1641,123.0902,131.8945,121.7903,121.625,122.2842,111.3555,122.6538,101.0859,121.8265,90.8164,121.9796,80.5469,122.7287,70.2773,122.4994,60.0078,122.9291,49.7383,122.4706,39.4688,122.5,29.1992" style="stroke: #A80036; stroke-width: 1.5;"/><text fill="#000000" font-family="sans-serif" font-size="12" lengthAdjust="spacingAndGlyphs" textLength="113" x="189.5" y="45.8008">Api\UsersController</text><path d="M123.5,53.332 L123.5,53.8952 L133.3,52.4927 L143.1,52.899 L152.9,52.5914 L162.7,53.6861 L172.5,52.339 L182.3,53.5434 L192.1,52.7846 L201.9,53.6363 L211.7,53.528 L221.5,53.4575 L231.3,53.6836 L241.1,54.1414 L250.9,54.3078 L260.7,54.0981 L270.5,52.9918 L280.3,53.3324 L290.1,52.4643 L299.9,53.3848 L309.7,53.2838 L319.5,53.8409 L329.3,53.0486 L339.1,52.4129 L348.9,52.6015 L358.7,52.668 L368.5,53.332 " fill="#FEFECE" style="stroke: #A80036; stroke-width: 1.5;"/><text fill="#000000" font-family="sans-serif" font-size="11" lengthAdjust="spacingAndGlyphs" textLength="151" x="128.5" y="67.9668">+AuthenticationComponent</text><path d="M123.5,74.2871 L123.5,74.1131 L133.3,73.3076 L143.1,73.3732 L152.9,75.0599 L162.7,73.8837 L172.5,75.0856 L182.3,74.1581 L192.1,73.4441 L201.9,73.4164 L211.7,75.1182 L221.5,74.9311 L231.3,74.5567 L241.1,74.6191 L250.9,75.2319 L260.7,75.0491 L270.5,73.6735 L280.3,74.8861 L290.1,73.9604 L299.9,74.0007 L309.7,74.6808 L319.5,74.1714 L329.3,73.6469 L339.1,74.2149 L348.9,74.2504 L358.7,74.3267 L368.5,74.2871 " fill="#FEFECE" style="stroke: #A80036; stroke-width: 1.5;"/><text fill="#000000" font-family="sans-serif" font-size="11" lengthAdjust="spacingAndGlyphs" textLength="99" x="128.5" y="88.9219">+ログイン：login()</text><text fill="#000000" font-family="sans-serif" font-size="11" lengthAdjust="spacingAndGlyphs" textLength="235" x="128.5" y="101.877">+リフレッシュトークン取得：refresh_token()</text><text fill="#000000" font-family="sans-serif" font-size="11" lengthAdjust="spacingAndGlyphs" textLength="168" x="128.5" y="114.832">+ユーザー情報一覧取得：index()</text><text fill="#000000" font-family="sans-serif" font-size="11" lengthAdjust="spacingAndGlyphs" textLength="161" x="128.5" y="127.7871">+単一ユーザー情報取得：view()</text><text fill="#000000" font-family="sans-serif" font-size="11" lengthAdjust="spacingAndGlyphs" textLength="136" x="128.5" y="140.7422">+ユーザー情報登録：add()</text><text fill="#000000" font-family="sans-serif" font-size="11" lengthAdjust="spacingAndGlyphs" textLength="136" x="128.5" y="153.6973">+ユーザー情報編集：edit()</text><text fill="#000000" font-family="sans-serif" font-size="11" lengthAdjust="spacingAndGlyphs" textLength="148" x="128.5" y="166.6523">+ユーザー情報削除：delete()</text><!--class UserService--><polygon fill="#FEFECE" filter="url(#f6egyyc)" points="205.5,259.1992,205.5,259.8903,215.625,259.5795,225.75,258.8633,235.875,258.672,246,259.0095,256.125,259.5019,266.25,259.1633,276.375,258.7997,286.5,259.1992,286.5024,259.1992,286.3776,269.8168,286.6948,280.4344,287.1058,291.052,286.9609,301.6695,286.5,312.2871,286.5,312.8349,276.375,311.8918,266.25,311.9717,256.125,312.5554,246,312.7408,235.875,312.6174,225.75,312.3412,215.625,312.1984,205.5,312.2871,205.2875,312.2871,205.9493,301.6695,205.7373,291.052,204.7568,280.4344,205.6981,269.8168,205.5,259.1992" style="stroke: #A80036; stroke-width: 1.5;"/><text fill="#000000" font-family="sans-serif" font-size="12" lengthAdjust="spacingAndGlyphs" textLength="66" x="213" y="275.8008">UserService</text><path d="M206.5,283.332 L206.5,283.1654 L216.375,284.1671 L226.25,283.7569 L236.125,282.5474 L246,284.2031 L255.875,283.934 L265.75,283.1092 L275.625,284.046 L285.5,283.332 " fill="#FEFECE" style="stroke: #A80036; stroke-width: 1.5;"/><text fill="#000000" font-family="sans-serif" font-size="11" lengthAdjust="spacingAndGlyphs" textLength="69" x="211.5" y="297.9668">+UsersTable</text><path d="M206.5,304.2871 L206.5,304.1903 L216.375,304.1732 L226.25,303.6222 L236.125,304.4156 L246,304.8637 L255.875,304.1341 L265.75,303.9379 L275.625,303.8781 L285.5,304.2871 " fill="#FEFECE" style="stroke: #A80036; stroke-width: 1.5;"/><!--class UserServiceInterface--><polygon fill="#FEFECE" filter="url(#f6egyyc)" points="6,233.1992,6,232.5618,16.25,232.9246,26.5,232.5701,36.75,233.4609,47,233.5314,57.25,232.6771,67.5,232.708,77.75,233.5107,88,232.6162,98.25,232.5513,108.5,233.8841,118.75,233.8376,129,233.118,139.25,233.8414,149.5,233.6248,159.75,233.6143,170,233.1992,170.5448,233.1992,169.9409,243.69,170.0727,254.1809,169.7319,264.6717,169.6281,275.1625,170.248,285.6533,170.0119,296.1441,169.595,306.635,169.3493,317.1258,170.3273,327.6166,170,338.1074,170,338.5242,159.75,338.6954,149.5,338.7408,139.25,338.0449,129,337.831,118.75,337.4746,108.5,338.6166,98.25,338.4529,88,338.4004,77.75,337.5023,67.5,338.3259,57.25,337.9423,47,338.2052,36.75,338.4147,26.5,337.8585,16.25,338.3436,6,338.1074,5.8012,338.1074,5.5802,327.6166,5.268,317.1258,6.341,306.635,6.2535,296.1441,5.6803,285.6533,6.0414,275.1625,5.4068,264.6717,5.7401,254.1809,6.1848,243.69,6,233.1992" style="stroke: #A80036; stroke-width: 1.5;"/><text fill="#000000" font-family="sans-serif" font-size="12" lengthAdjust="spacingAndGlyphs" textLength="116" x="30" y="249.8008">UserServiceInterface</text><path d="M7,257.332 L7,258.1456 L17.125,256.4355 L27.25,257.68 L37.375,257.8803 L47.5,257.0597 L57.625,257.8911 L67.75,258.2743 L77.875,257.2294 L88,258.0979 L98.125,257.5583 L108.25,257.3631 L118.375,257.1561 L128.5,256.7067 L138.625,256.9431 L148.75,256.4345 L158.875,256.6146 L169,257.332 " fill="#FEFECE" style="stroke: #A80036; stroke-width: 1.5;"/><path d="M7,265.332 L7,264.9978 L17.125,266.2405 L27.25,265.2478 L37.375,265.4006 L47.5,264.675 L57.625,265.5412 L67.75,264.591 L77.875,266.1018 L88,265.4025 L98.125,265.524 L108.25,266.2972 L118.375,264.5497 L128.5,264.7125 L138.625,264.3736 L148.75,265.6327 L158.875,265.9596 L169,265.332 " fill="#FEFECE" style="stroke: #A80036; stroke-width: 1.5;"/><text fill="#000000" font-family="sans-serif" font-size="11" lengthAdjust="spacingAndGlyphs" textLength="83" x="12" y="279.9668">+作成：create()</text><text fill="#000000" font-family="sans-serif" font-size="11" lengthAdjust="spacingAndGlyphs" textLength="87" x="12" y="292.9219">+編集：update()</text><text fill="#000000" font-family="sans-serif" font-size="11" lengthAdjust="spacingAndGlyphs" textLength="122" x="12" y="305.877">+単一データ取得：get()</text><text fill="#000000" font-family="sans-serif" font-size="11" lengthAdjust="spacingAndGlyphs" textLength="152" x="12" y="318.832">+一覧データ取得：getIndex()</text><text fill="#000000" font-family="sans-serif" font-size="11" lengthAdjust="spacingAndGlyphs" textLength="144" x="12" y="331.7871">+初期データ取得：getNew()</text><!--class UsersTable--><polygon fill="#FEFECE" filter="url(#f6egyyc)" points="210.5,398.1992,210.5,398.0504,220.6429,397.9407,230.7857,397.6539,240.9286,397.8481,251.0714,397.9461,261.2143,397.6002,271.3571,397.4595,281.5,398.1992,281.5515,398.1992,281.4955,406.2258,281.4475,414.2523,281.3006,422.2789,281.6446,430.3055,281.5,438.332,281.5,437.5843,271.3571,438.6306,261.2143,438.6933,251.0714,438.7714,240.9286,438.5333,230.7857,438.5239,220.6429,438.3259,210.5,438.332,210.4003,438.332,210.4113,430.3055,210.6643,422.2789,210.6315,414.2523,210.7271,406.2258,210.5,398.1992" style="stroke: #A80036; stroke-width: 1.5;"/><text fill="#000000" font-family="sans-serif" font-size="12" lengthAdjust="spacingAndGlyphs" textLength="65" x="213.5" y="414.8008">UsersTable</text><path d="M211.5,422.332 L211.5,421.7597 L221.3571,421.9392 L231.2143,422.6797 L241.0714,422.5701 L250.9286,421.8659 L260.7857,422.1721 L270.6429,421.7933 L280.5,422.332 " fill="#FEFECE" style="stroke: #A80036; stroke-width: 1.5;"/><path d="M211.5,430.332 L211.5,430.4291 L221.3571,431.2347 L231.2143,429.9004 L241.0714,429.3859 L250.9286,430.3796 L260.7857,430.7965 L270.6429,431.1563 L280.5,430.332 " fill="#FEFECE" style="stroke: #A80036; stroke-width: 1.5;"/><!--class User--><polygon fill="#FEFECE" filter="url(#f6egyyc)" points="171.5,498.1992,171.5,498.151,181.4333,497.5827,191.3667,498.5895,201.3,498.5371,211.2333,497.5359,221.1667,498.8031,231.1,498.207,241.0333,497.9573,250.9667,497.5504,260.9,498.8872,270.8333,498.9391,280.7667,498.0437,290.7,498.5462,300.6333,497.472,310.5667,498.6672,320.5,498.1992,320.2468,498.1992,319.8382,508.4688,321.2347,518.7383,319.9891,529.0078,320.3603,539.2773,320.3037,549.5469,320.2796,559.8164,321.109,570.0859,320.0558,580.3555,320.9204,590.625,320.7416,600.8945,321.1484,611.1641,321.0715,621.4336,319.894,631.7031,320.5,641.9727,320.5,641.7104,310.5667,642.5603,300.6333,641.2833,290.7,642.4852,280.7667,641.9984,270.8333,641.2615,260.9,642.5319,250.9667,642.1269,241.0333,642.3484,231.1,642.3228,221.1667,641.898,211.2333,641.6938,201.3,641.4732,191.3667,641.615,181.4333,642.0736,171.5,641.9727,171.8529,641.9727,172.0824,631.7031,170.9727,621.4336,171.3662,611.1641,170.801,600.8945,172.199,590.625,172.1005,580.3555,171.586,570.0859,171.0074,559.8164,171.4784,549.5469,172.0021,539.2773,171.299,529.0078,171.7359,518.7383,171.105,508.4688,171.5,498.1992" style="stroke: #A80036; stroke-width: 1.5;"/><text fill="#000000" font-family="sans-serif" font-size="12" lengthAdjust="spacingAndGlyphs" textLength="26" x="233" y="514.8008">User</text><path d="M172.5,522.332 L172.5,521.4608 L182.3,522.8154 L192.1,521.7336 L201.9,521.4788 L211.7,521.7922 L221.5,522.3254 L231.3,523.0352 L241.1,522.6018 L250.9,522.9773 L260.7,521.6046 L270.5,522.0567 L280.3,522.3143 L290.1,522.8417 L299.9,522.9985 L309.7,522.8561 L319.5,522.332 " fill="#FEFECE" style="stroke: #A80036; stroke-width: 1.5;"/><text fill="#000000" font-family="sans-serif" font-size="11" lengthAdjust="spacingAndGlyphs" textLength="115" x="177.5" y="536.9668">+アカウント名：name</text><text fill="#000000" font-family="sans-serif" font-size="11" lengthAdjust="spacingAndGlyphs" textLength="127" x="177.5" y="549.9219">+パスワード：password</text><text fill="#000000" font-family="sans-serif" font-size="11" lengthAdjust="spacingAndGlyphs" textLength="99" x="177.5" y="562.877">+性：real_name_1</text><text fill="#000000" font-family="sans-serif" font-size="11" lengthAdjust="spacingAndGlyphs" textLength="99" x="177.5" y="575.832">+名：real_name_2</text><text fill="#000000" font-family="sans-serif" font-size="11" lengthAdjust="spacingAndGlyphs" textLength="125" x="177.5" y="588.7871">+メールアドレス：email</text><text fill="#000000" font-family="sans-serif" font-size="11" lengthAdjust="spacingAndGlyphs" textLength="137" x="177.5" y="601.7422">+ニックネーム：nickname</text><text fill="#000000" font-family="sans-serif" font-size="11" lengthAdjust="spacingAndGlyphs" textLength="93" x="177.5" y="614.6973">+登録日：created</text><text fill="#000000" font-family="sans-serif" font-size="11" lengthAdjust="spacingAndGlyphs" textLength="100" x="177.5" y="627.6523">+編集日：modified</text><path d="M172.5,633.9727 L172.5,633.0045 L182.3,633.5012 L192.1,634.2557 L201.9,633.8927 L211.7,633.7139 L221.5,633.4426 L231.3,634.2248 L241.1,634.2489 L250.9,634.7847 L260.7,634.2413 L270.5,634.0899 L280.3,633.3947 L290.1,633.0916 L299.9,634.8849 L309.7,633.2601 L319.5,633.9727 " fill="#FEFECE" style="stroke: #A80036; stroke-width: 1.5;"/><!--class Adpi\UsersController--><polygon fill="#FEFECE" filter="url(#f6egyyc)" points="388.5,265.6992,388.5,265.3364,398.2692,265.6023,408.0385,265.4828,417.8077,265.5473,427.5769,265.7623,437.3462,265.2713,447.1154,265.7701,456.8846,266.1727,466.6538,265.7556,476.4231,265.4555,486.1923,265.7174,495.9615,265.3639,505.7308,265.3916,515.5,265.6992,515.2735,265.6992,515.5717,273.7258,515.444,281.7523,515.4795,289.7789,515.4354,297.8055,515.5,305.832,515.5,305.2548,505.7308,306.4802,495.9615,306.3597,486.1923,306.5005,476.4231,305.1226,466.6538,305.8469,456.8846,305.3962,447.1154,305.4831,437.3462,305.4293,427.5769,305.344,417.8077,306.4973,408.0385,306.5302,398.2692,306.1252,388.5,305.832,388.7096,305.832,388.3308,297.8055,388.2826,289.7789,388.6462,281.7523,388.3944,273.7258,388.5,265.6992" style="stroke: #A80036; stroke-width: 1.5;"/><text fill="#000000" font-family="sans-serif" font-size="12" lengthAdjust="spacingAndGlyphs" textLength="121" x="391.5" y="282.3008">Adpi\UsersController</text><path d="M389.5,289.832 L389.5,290.1355 L399.1154,289.6428 L408.7308,288.9456 L418.3462,289.1208 L427.9615,289.0069 L437.5769,289.6897 L447.1923,290.1544 L456.8077,290.2309 L466.4231,289.5654 L476.0385,289.7511 L485.6538,289.2325 L495.2692,289.6148 L504.8846,290.3087 L514.5,289.832 " fill="#FEFECE" style="stroke: #A80036; stroke-width: 1.5;"/><path d="M389.5,297.832 L389.5,297.4582 L399.1154,297.3971 L408.7308,298.7027 L418.3462,297.2568 L427.9615,298.1752 L437.5769,298.7168 L447.1923,296.8988 L456.8077,298.1934 L466.4231,296.9875 L476.0385,298.8069 L485.6538,298.2053 L495.2692,297.2348 L504.8846,298.1755 L514.5,297.832 " fill="#FEFECE" style="stroke: #A80036; stroke-width: 1.5;"/><!--class BcApiController--><polygon fill="#FEFECE" filter="url(#f6egyyc)" points="405,81.1992,405,80.5951,415.4444,81.7558,425.8889,80.4829,436.3333,81.8076,446.7778,81.6171,457.2222,81.1957,467.6667,80.6441,478.1111,81.0917,488.5556,80.7047,499,81.1992,498.7907,81.1992,498.959,89.2258,498.8159,97.2523,498.8349,105.2789,498.9444,113.3055,499,121.332,499,122.0462,488.5556,122.0721,478.1111,121.219,467.6667,121.3678,457.2222,121.3122,446.7778,121.8395,436.3333,121.1883,425.8889,121.2575,415.4444,121.0503,405,121.332,404.9865,121.332,404.76,113.3055,405.1598,105.2789,405.0176,97.2523,405.1603,89.2258,405,81.1992" style="stroke: #A80036; stroke-width: 1.5;"/><text fill="#000000" font-family="sans-serif" font-size="12" lengthAdjust="spacingAndGlyphs" textLength="88" x="408" y="97.8008">BcApiController</text><path d="M406,105.332 L406,104.5838 L416.2222,104.7345 L426.4444,106.3182 L436.6667,105.7383 L446.8889,105.6754 L457.1111,105.0825 L467.3333,104.761 L477.5556,105.8925 L487.7778,104.9864 L498,105.332 " fill="#FEFECE" style="stroke: #A80036; stroke-width: 1.5;"/><path d="M406,113.332 L406,112.8426 L416.2222,112.5971 L426.4444,114.0532 L436.6667,112.395 L446.8889,112.8629 L457.1111,113.3432 L467.3333,113.0307 L477.5556,112.6292 L487.7778,113.5087 L498,113.332 " fill="#FEFECE" style="stroke: #A80036; stroke-width: 1.5;"/><path d="M246,173.2792 L245.2577,173.2792 L246.9823,183.3655 L246.4735,193.4517 L246.2902,203.538 L245.3275,213.6242 L245.6088,223.7105 L246.7065,233.7967 L245.8986,243.883 L246,253.9692 " fill="none" style="stroke: #000000; stroke-width: 1.0;"/><polygon fill="#000000" points="246,259.0992,245.8866,259.0488,246.6554,257.235,247.7504,255.5661,248.2206,253.6195,249.2059,251.9019,250,250.0992,249.8485,249.9477,249.0415,250.7407,248.4735,251.7727,247.4418,252.3411,246.9312,253.4304,246,254.0992,246.1737,254.2729,245.0787,253.1779,244.3026,252.4019,243.5578,251.657,242.6233,250.7226,242,250.0992,241.8543,250.0345,242.8495,251.9212,243.5954,253.6972,244.5372,255.5602,245.2978,257.3427,246,259.0992" style="stroke: #000000; stroke-width: 1.0;"/><path d="M452,141.4392 L451.9359,141.4392 L452.3509,151.7776 L452.0952,162.1159 L451.4699,172.4542 L451.7251,182.7926 L451.9553,193.1309 L452.8968,203.4692 L451.6418,213.8076 L452.1389,224.1459 L452.2597,234.4842 L451.1067,244.8226 L452.3956,255.1609 L452,265.4992 " fill="none" style="stroke: #000000; stroke-width: 1.0;"/><polygon fill="none" points="445,141.3892,444.7994,141.319,446.3231,137.3623,447.6249,133.3279,449.1838,129.3835,450.3956,125.3177,452,121.3892,452.1805,121.4524,453.3312,125.3651,454.9822,129.453,456.0301,133.3297,457.4832,137.3483,459,141.3892,459,141.1581,456.2,141.235,453.4,141.5372,450.6,141.559,447.8,141.439,445,141.3892" style="stroke: #000000; stroke-width: 1.0;"/><path d="M190.21,285.6992 L190.21,285.5522 L193.242,285.5567 L196.274,285.6874 L199.306,285.8239 L202.338,285.9743 L205.37,285.6992 " fill="none" style="stroke: #000000; stroke-width: 1.0; stroke-dasharray: 1.0,3.0;"/><polygon fill="none" points="190.09,292.6992,190.0726,292.6495,186.0331,291.1365,182.0955,289.9149,178.0307,288.3298,174.077,287.0622,170.09,285.6992,170.0924,285.7061,174.1701,284.5282,178.0238,282.7102,182.0675,281.4349,186.0474,279.9775,190.09,278.6992,190.112,278.6992,189.9023,281.4992,189.9053,284.2992,190.1952,287.0992,189.9787,289.8992,190.09,292.6992" style="stroke: #000000; stroke-width: 1.0;"/><path d="M246,312.4792 L245.5125,312.4792 L246.1375,322.4892 L246.839,332.4992 L246.1184,342.5092 L246.3282,352.5192 L245.1801,362.5292 L246.8396,372.5392 L245.597,382.5492 L246,392.5592 " fill="none" style="stroke: #000000; stroke-width: 1.0;"/><polygon fill="#000000" points="246,397.8392,245.9345,397.8101,246.9472,396.1046,247.3961,394.1486,248.4486,392.4608,249.2839,390.6765,250,388.8392,249.9692,388.8085,249.1286,389.5679,248.4837,390.5229,247.6544,391.2936,246.9515,392.1907,246,392.8392,246.1048,392.944,245.2414,392.0806,244.5508,391.39,243.6643,390.5035,242.7311,389.5703,242,388.8392,241.9352,388.8104,242.817,390.6468,243.5242,392.4055,244.5259,394.2952,245.3355,396.0994,246,397.8392" style="stroke: #000000; stroke-width: 1.0;"/><path d="M246,438.4992 L246.8841,438.4992 L245.3691,449.3712 L246.2296,460.2432 L245.7801,471.1152 L246.6981,481.9872 L246,492.8592 " fill="none" style="stroke: #000000; stroke-width: 1.0;"/><polygon fill="#000000" points="246,497.9992,245.8926,497.9515,246.7301,496.1681,247.6608,494.4262,248.4116,492.6044,249.2519,490.8223,250,488.9992,249.9718,488.9711,249.2401,489.8394,248.5174,490.7166,247.7731,491.5723,246.891,492.2902,246,492.9992,245.955,492.9542,245.0771,492.0763,244.3081,491.3073,243.5505,490.5497,242.7517,489.7509,242,488.9992,242.0574,489.0247,242.8438,490.8187,243.7503,492.666,244.4152,494.406,245.2928,496.2405,246,497.9992" style="stroke: #000000; stroke-width: 1.0;"/></g></svg>