<?xml version="1.0" encoding="UTF-8" standalone="no"?><svg xmlns="http://www.w3.org/2000/svg" xmlns:xlink="http://www.w3.org/1999/xlink" contentScriptType="application/ecmascript" contentStyleType="text/css" height="1454px" preserveAspectRatio="none" style="width:629px;height:1454px;" version="1.1" viewBox="0 0 629 1454" width="629px" zoomAndPan="magnify"><defs><filter height="300%" id="flkiva3" width="300%" x="-1" y="-1"><feGaussianBlur result="blurOut" stdDeviation="2.0"/><feColorMatrix in="blurOut" result="blurOut2" type="matrix" values="0 0 0 0 0 0 0 0 0 0 0 0 0 0 0 0 0 0 .4 0"/><feOffset dx="4.0" dy="4.0" in="blurOut2" result="blurOut3"/><feBlend in="SourceGraphic" in2="blurOut3" mode="normal"/></filter></defs><g><text fill="#000000" font-family="sans-serif" font-size="18" lengthAdjust="spacingAndGlyphs" textLength="153" x="242.5" y="17.4023">コンテンツ管理API</text><!--class Api\ContentsController--><polygon fill="#FEFECE" filter="url(#flkiva3)" points="7,129.1992,7,128.7348,16.94,128.9526,26.88,129.6949,36.82,129.0655,46.76,128.8574,56.7,129.7877,66.64,129.1191,76.58,128.5775,86.52,129.2325,96.46,129.5578,106.4,128.704,116.34,129.0747,126.28,128.8783,136.22,129.0835,146.16,129.1433,156.1,129.7545,166.04,128.5545,175.98,129.1295,185.92,129.5684,195.86,128.5303,205.8,129.1697,215.74,129.7655,225.68,129.7246,235.62,129.0846,245.56,129.7918,255.5,129.6632,265.44,128.5592,275.38,129.3388,285.32,129.6565,295.26,128.5362,305.2,129.4644,315.14,129.0978,325.08,128.5028,335.02,129.5546,344.96,129.6379,354.9,128.6044,364.84,129.6982,374.78,129.5162,384.72,129.7013,394.66,129.7916,404.6,128.4557,414.54,129.8384,424.48,129.3409,434.42,128.6517,444.36,128.4857,454.3,128.5389,464.24,128.8173,474.18,129.3518,484.12,128.6708,494.06,129.3142,504,129.1992,504.0255,129.1992,504.3113,139.0958,503.5992,148.9923,503.3861,158.8889,503.667,168.7855,503.7204,178.682,503.3396,188.5786,503.2742,198.4752,504.3525,208.3717,503.7365,218.2683,504.0086,228.1648,504.3905,238.0614,503.8202,247.958,503.5902,257.8545,504.7143,267.7511,503.5712,277.6477,504.3263,287.5442,503.9614,297.4408,504.743,307.3373,503.2676,317.2339,504.2493,327.1305,503.3472,337.027,504.5083,346.9236,504.7027,356.8202,503.8068,366.7167,504,376.6133,504,377.117,494.06,376.6631,484.12,376.2557,474.18,377.3011,464.24,377.1939,454.3,376.5516,444.36,376.3011,434.42,376.6755,424.48,376.0888,414.54,376.1326,404.6,376.998,394.66,376.6566,384.72,376.545,374.78,377.3119,364.84,376.278,354.9,377.3525,344.96,376.5788,335.02,377.0706,325.08,377.2905,315.14,376.6664,305.2,376.9745,295.26,376.5747,285.32,376.557,275.38,376.9716,265.44,376.3073,255.5,376.6331,245.56,377.0841,235.62,377.2153,225.68,377.2594,215.74,376.8434,205.8,376.5973,195.86,376.3793,185.92,376.8741,175.98,376.56,166.04,376.9189,156.1,376.0607,146.16,377.3543,136.22,376.8084,126.28,376.698,116.34,376.7134,106.4,376.5475,96.46,376.4728,86.52,376.2141,76.58,376.3343,66.64,376.8763,56.7,376.4819,46.76,377.3195,36.82,376.5635,26.88,376.1668,16.94,377.3215,7,376.6133,6.6424,376.6133,6.6995,366.7167,6.9857,356.8202,7.3984,346.9236,7.4627,337.027,7.5196,327.1305,6.7413,317.2339,7.0822,307.3373,7.6226,297.4408,7.4652,287.5442,6.3508,277.6477,6.585,267.7511,6.9519,257.8545,7.2204,247.958,7.2492,238.0614,6.7229,228.1648,6.7074,218.2683,7.7006,208.3717,7.6343,198.4752,7.2548,188.5786,7.2133,178.682,7.259,168.7855,6.8832,158.8889,7.1998,148.9923,6.7395,139.0958,7,129.1992" style="stroke: #A80036; stroke-width: 1.5;"/><text fill="#000000" font-family="sans-serif" font-size="12" lengthAdjust="spacingAndGlyphs" textLength="131" x="190" y="145.8008">Api\ContentsController</text><path d="M8,153.332 L8,153.3112 L17.9,153.3645 L27.8,153.6812 L37.7,154.3066 L47.6,153.8556 L57.5,152.7734 L67.4,152.4509 L77.3,153.7333 L87.2,153.4457 L97.1,152.6624 L107,153.3603 L116.9,153.3598 L126.8,152.8842 L136.7,153.7849 L146.6,153.489 L156.5,152.6555 L166.4,152.4936 L176.3,152.67 L186.2,153.4618 L196.1,153.293 L206,153.3941 L215.9,152.4177 L225.8,153.8102 L235.7,153.2067 L245.6,154.1033 L255.5,152.7837 L265.4,153.3306 L275.3,152.9606 L285.2,153.405 L295.1,154.0464 L305,154.2576 L314.9,153.1903 L324.8,152.4122 L334.7,154.3017 L344.6,153.273 L354.5,154.0079 L364.4,152.6709 L374.3,152.4264 L384.2,152.5072 L394.1,153.818 L404,153.0095 L413.9,152.9767 L423.8,152.7679 L433.7,153.9907 L443.6,153.6321 L453.5,152.7572 L463.4,154.2446 L473.3,153.2766 L483.2,153.6877 L493.1,153.6988 L503,153.332 " fill="#FEFECE" style="stroke: #A80036; stroke-width: 1.5;"/><path d="M8,161.332 L8,161.8874 L17.9,161.7149 L27.8,162.2157 L37.7,161.0279 L47.6,161.5477 L57.5,162.1049 L67.4,161.9776 L77.3,161.4851 L87.2,160.7957 L97.1,161.8514 L107,161.2271 L116.9,161.5725 L126.8,161.092 L136.7,161.1855 L146.6,161.9565 L156.5,160.4587 L166.4,161.6911 L176.3,161.382 L186.2,160.5736 L196.1,162.2666 L206,162.2967 L215.9,160.6572 L225.8,162.3235 L235.7,161.995 L245.6,161.0596 L255.5,161.9283 L265.4,162.0639 L275.3,162.2937 L285.2,161.0281 L295.1,161.5505 L305,161.2333 L314.9,160.7158 L324.8,161.6077 L334.7,161.5214 L344.6,162.0245 L354.5,160.9116 L364.4,161.978 L374.3,161.4539 L384.2,160.8805 L394.1,160.5101 L404,160.7404 L413.9,160.8647 L423.8,160.4755 L433.7,161.1482 L443.6,160.3331 L453.5,161.0129 L463.4,162.3276 L473.3,162.263 L483.2,161.9521 L493.1,160.6457 L503,161.332 " fill="#FEFECE" style="stroke: #A80036; stroke-width: 1.5;"/><text fill="#000000" font-family="sans-serif" font-size="11" lengthAdjust="spacingAndGlyphs" textLength="148" x="13" y="175.9668">+コンテンツ情報取得 : view()</text><text fill="#000000" font-family="sans-serif" font-size="11" lengthAdjust="spacingAndGlyphs" textLength="160" x="13" y="188.9219">+ゴミ箱情報取得 : view_trash()</text><text fill="#000000" font-family="sans-serif" font-size="11" lengthAdjust="spacingAndGlyphs" textLength="177" x="13" y="201.877">+コンテンツ一覧情報取得 : index()</text><text fill="#000000" font-family="sans-serif" font-size="11" lengthAdjust="spacingAndGlyphs" textLength="135" x="13" y="214.832">+ゴミ箱に捨てる : delete()</text><text fill="#000000" font-family="sans-serif" font-size="11" lengthAdjust="spacingAndGlyphs" textLength="147" x="13" y="227.7871">+ゴミ箱削除 : delete_trash()</text><text fill="#000000" font-family="sans-serif" font-size="11" lengthAdjust="spacingAndGlyphs" textLength="181" x="13" y="240.7422">+ゴミ箱を空にする : trash_empty()</text><text fill="#000000" font-family="sans-serif" font-size="11" lengthAdjust="spacingAndGlyphs" textLength="123" x="13" y="253.6973">+コンテンツ編集 : edit()</text><text fill="#000000" font-family="sans-serif" font-size="11" lengthAdjust="spacingAndGlyphs" textLength="204" x="13" y="266.6523">+コンテンツを元に戻す : trash_return()</text><text fill="#000000" font-family="sans-serif" font-size="11" lengthAdjust="spacingAndGlyphs" textLength="203" x="13" y="279.6074">+公開状態を変更する : change_status()</text><text fill="#000000" font-family="sans-serif" font-size="11" lengthAdjust="spacingAndGlyphs" textLength="185" x="13" y="292.5625">+フルURLを取得する : get_full_url()</text><text fill="#000000" font-family="sans-serif" font-size="11" lengthAdjust="spacingAndGlyphs" textLength="289" x="13" y="305.5176">+指定したIDのコンテンツが存在するか確認する : exists()</text><text fill="#000000" font-family="sans-serif" font-size="11" lengthAdjust="spacingAndGlyphs" textLength="348" x="13" y="318.4727">+サイトに紐付いたフォルダリストを取得 : get_content_folder_list()</text><text fill="#000000" font-family="sans-serif" font-size="11" lengthAdjust="spacingAndGlyphs" textLength="154" x="13" y="331.4277">+コンテンツ名変更 : rename()</text><text fill="#000000" font-family="sans-serif" font-size="11" lengthAdjust="spacingAndGlyphs" textLength="164" x="13" y="344.3828">+エイリアスの作成 : add_alias()</text><text fill="#000000" font-family="sans-serif" font-size="11" lengthAdjust="spacingAndGlyphs" textLength="485" x="13" y="357.3379">+指定したURLのパス上のコンテンツでフォルダ以外が存在するか確認 : exists_content_by_url()</text><text fill="#000000" font-family="sans-serif" font-size="11" lengthAdjust="spacingAndGlyphs" textLength="143" x="13" y="370.293">+並び順を移動する : move()</text><!--class ContentService--><polygon fill="#FEFECE" filter="url(#flkiva3)" points="206,643.6992,206,643.5311,215.9,644.0929,225.8,643.341,235.7,643.8762,245.6,643.1262,255.5,643.0523,265.4,643.4487,275.3,644.1638,285.2,644.0543,295.1,643.4959,305,643.6992,305.488,643.6992,305.3027,654.3168,304.9878,664.9344,305.0629,675.552,305.6606,686.1695,305,696.7871,305,696.7944,295.1,696.5017,285.2,696.5496,275.3,697.353,265.4,697.4664,255.5,696.1752,245.6,696.6183,235.7,697.1711,225.8,697.0142,215.9,697.4866,206,696.7871,205.6902,696.7871,205.3555,686.1695,206.3383,675.552,205.8011,664.9344,205.4646,654.3168,206,643.6992" style="stroke: #A80036; stroke-width: 1.5;"/><text fill="#000000" font-family="sans-serif" font-size="12" lengthAdjust="spacingAndGlyphs" textLength="84" x="213.5" y="660.3008">ContentService</text><path d="M207,667.832 L207,667.266 L216.7,667.4612 L226.4,666.9051 L236.1,667.203 L245.8,667.7721 L255.5,668.8063 L265.2,667.2439 L274.9,668.5539 L284.6,666.9447 L294.3,668.6396 L304,667.832 " fill="#FEFECE" style="stroke: #A80036; stroke-width: 1.5;"/><text fill="#000000" font-family="sans-serif" font-size="11" lengthAdjust="spacingAndGlyphs" textLength="87" x="212" y="682.4668">+ContentsTable</text><path d="M207,688.7871 L207,688.5474 L216.7,688.2828 L226.4,689.278 L236.1,688.824 L245.8,688.2788 L255.5,689.2451 L265.2,688.9718 L274.9,689.384 L284.6,688.4342 L294.3,687.972 L304,688.7871 " fill="#FEFECE" style="stroke: #A80036; stroke-width: 1.5;"/><!--class ContentServiceInterface--><polygon fill="#FEFECE" filter="url(#flkiva3)" points="6,436.1992,6,435.6984,15.7059,435.9705,25.4118,435.4949,35.1176,436.087,44.8235,436.59,54.5294,436.1095,64.2353,436.7163,73.9412,435.4694,83.6471,436.5206,93.3529,436.6779,103.0588,435.8297,112.7647,435.5138,122.4706,435.5542,132.1765,435.7012,141.8824,435.6409,151.5882,435.7288,161.2941,436.0032,171,436.1992,170.9289,436.1992,170.3873,446.1492,170.5204,456.0992,170.8793,466.0492,171.4854,475.9993,170.788,485.9493,170.595,495.8993,170.8134,505.8493,170.9837,515.7993,170.8004,525.7493,171.0423,535.6993,170.9328,545.6493,171.6075,555.5993,170.8228,565.5493,170.7706,575.4993,170.324,585.4493,171.4247,595.3994,170.3127,605.3494,170.3312,615.2994,171.607,625.2494,171.4424,635.1994,171.1359,645.1494,170.2608,655.0994,170.9028,665.0494,170.906,674.9994,170.677,684.9494,171.1713,694.8994,170.3562,704.8494,170.7625,714.7995,170.5058,724.7495,171.5815,734.6995,171.5562,744.6495,170.754,754.5995,170.4135,764.5495,171.1325,774.4995,170.8775,784.4495,171.4797,794.3995,171.1032,804.3495,171.056,814.2995,170.6502,824.2495,170.967,834.1996,170.742,844.1496,171.5643,854.0996,171.6568,864.0496,170.3227,873.9996,171.4633,883.9496,171.7158,893.8996,171,903.8496,171,904.093,161.2941,904.2417,151.5882,903.5832,141.8824,903.616,132.1765,904.1789,122.4706,903.3897,112.7647,903.1345,103.0588,903.4056,93.3529,903.6446,83.6471,904.0338,73.9412,904.4011,64.2353,903.9457,54.5294,904.4814,44.8235,903.897,35.1176,903.585,25.4118,903.565,15.7059,904.1859,6,903.8496,6.2756,903.8496,5.2736,893.8996,5.8962,883.9496,5.3461,873.9996,5.5567,864.0496,6.5713,854.0996,6.2802,844.1496,5.8169,834.1996,5.7085,824.2495,6.4179,814.2995,5.2546,804.3495,5.7592,794.3995,6.3573,784.4495,6.504,774.4995,6.0327,764.5495,5.9667,754.5995,6.3101,744.6495,5.4126,734.6995,6.2293,724.7495,5.7904,714.7995,6.5364,704.8494,5.8676,694.8994,6.0928,684.9494,5.6322,674.9994,5.3133,665.0494,5.8827,655.0994,5.7985,645.1494,6.0611,635.1994,6.5564,625.2494,5.7716,615.2994,6.5233,605.3494,6.6798,595.3994,6.1518,585.4493,6.2448,575.4993,6.4219,565.5493,5.3078,555.5993,6.2314,545.6493,6.0433,535.6993,6.5986,525.7493,6.6747,515.7993,5.2827,505.8493,6.2305,495.8993,5.7212,485.9493,6.6631,475.9993,5.2656,466.0492,5.8932,456.0992,6.0566,446.1492,6,436.1992" style="stroke: #A80036; stroke-width: 1.5;"/><text fill="#000000" font-family="sans-serif" font-size="12" lengthAdjust="spacingAndGlyphs" textLength="134" x="21.5" y="452.8008">ContentServiceInterface</text><path d="M7,460.332 L7,460.5671 L17.1875,459.6859 L27.375,459.7757 L37.5625,460.2193 L47.75,459.6055 L57.9375,461.1968 L68.125,460.8112 L78.3125,460.0419 L88.5,459.814 L98.6875,459.5996 L108.875,460.0566 L119.0625,459.3611 L129.25,459.4013 L139.4375,459.4253 L149.625,459.9478 L159.8125,460.3272 L170,460.332 " fill="#FEFECE" style="stroke: #A80036; stroke-width: 1.5;"/><path d="M7,468.332 L7,467.4175 L17.1875,468.0085 L27.375,468.1676 L37.5625,467.6043 L47.75,467.5313 L57.9375,467.861 L68.125,467.8315 L78.3125,467.8552 L88.5,467.5901 L98.6875,469.1868 L108.875,467.3954 L119.0625,467.3755 L129.25,469.0387 L139.4375,468.1702 L149.625,469.0614 L159.8125,468.7324 L170,468.332 " fill="#FEFECE" style="stroke: #A80036; stroke-width: 1.5;"/><text fill="#000000" font-family="sans-serif" font-size="11" lengthAdjust="spacingAndGlyphs" textLength="34" x="12" y="482.9668">+get()</text><text fill="#000000" font-family="sans-serif" font-size="11" lengthAdjust="spacingAndGlyphs" textLength="65" x="12" y="495.9219">+getTrash()</text><text fill="#000000" font-family="sans-serif" font-size="11" lengthAdjust="spacingAndGlyphs" textLength="80" x="12" y="508.877">+getChildren()</text><text fill="#000000" font-family="sans-serif" font-size="11" lengthAdjust="spacingAndGlyphs" textLength="97" x="12" y="521.832">+getEmptyIndex()</text><text fill="#000000" font-family="sans-serif" font-size="11" lengthAdjust="spacingAndGlyphs" textLength="88" x="12" y="534.7871">+getTreeIndex()</text><text fill="#000000" font-family="sans-serif" font-size="11" lengthAdjust="spacingAndGlyphs" textLength="64" x="12" y="547.7422">+getIndex()</text><text fill="#000000" font-family="sans-serif" font-size="11" lengthAdjust="spacingAndGlyphs" textLength="122" x="12" y="560.6973">+getTableConditions()</text><text fill="#000000" font-family="sans-serif" font-size="11" lengthAdjust="spacingAndGlyphs" textLength="93" x="12" y="573.6523">+getTableIndex()</text><text fill="#000000" font-family="sans-serif" font-size="11" lengthAdjust="spacingAndGlyphs" textLength="95" x="12" y="586.6074">+getTrashIndex()</text><text fill="#000000" font-family="sans-serif" font-size="11" lengthAdjust="spacingAndGlyphs" textLength="130" x="12" y="599.5625">+getContentFolderList()</text><text fill="#000000" font-family="sans-serif" font-size="11" lengthAdjust="spacingAndGlyphs" textLength="101" x="12" y="612.5176">+convertTreeList()</text><text fill="#000000" font-family="sans-serif" font-size="11" lengthAdjust="spacingAndGlyphs" textLength="41" x="12" y="625.4727">+alias()</text><text fill="#000000" font-family="sans-serif" font-size="11" lengthAdjust="spacingAndGlyphs" textLength="49" x="12" y="638.4277">+delete()</text><text fill="#000000" font-family="sans-serif" font-size="11" lengthAdjust="spacingAndGlyphs" textLength="75" x="12" y="651.3828">+hardDelete()</text><text fill="#000000" font-family="sans-serif" font-size="11" lengthAdjust="spacingAndGlyphs" textLength="131" x="12" y="664.3379">+hardDeleteWithAssoc()</text><text fill="#000000" font-family="sans-serif" font-size="11" lengthAdjust="spacingAndGlyphs" textLength="63" x="12" y="677.293">+deleteAll()</text><text fill="#000000" font-family="sans-serif" font-size="11" lengthAdjust="spacingAndGlyphs" textLength="89" x="12" y="690.248">+hardDeleteAll()</text><text fill="#000000" font-family="sans-serif" font-size="11" lengthAdjust="spacingAndGlyphs" textLength="56" x="12" y="703.2031">+restore()</text><text fill="#000000" font-family="sans-serif" font-size="11" lengthAdjust="spacingAndGlyphs" textLength="70" x="12" y="716.1582">+restoreAll()</text><text fill="#000000" font-family="sans-serif" font-size="11" lengthAdjust="spacingAndGlyphs" textLength="104" x="12" y="729.1133">+getContentsInfo()</text><text fill="#000000" font-family="sans-serif" font-size="11" lengthAdjust="spacingAndGlyphs" textLength="101" x="12" y="742.0684">+deleteRecursive()</text><text fill="#000000" font-family="sans-serif" font-size="11" lengthAdjust="spacingAndGlyphs" textLength="153" x="12" y="755.0234">+getParentLayoutTemplate()</text><text fill="#000000" font-family="sans-serif" font-size="11" lengthAdjust="spacingAndGlyphs" textLength="72" x="12" y="767.9785">+getUrlById()</text><text fill="#000000" font-family="sans-serif" font-size="11" lengthAdjust="spacingAndGlyphs" textLength="50" x="12" y="780.9336">+getUrl()</text><text fill="#000000" font-family="sans-serif" font-size="11" lengthAdjust="spacingAndGlyphs" textLength="54" x="12" y="793.8887">+update()</text><text fill="#000000" font-family="sans-serif" font-size="11" lengthAdjust="spacingAndGlyphs" textLength="57" x="12" y="806.8438">+publish()</text><text fill="#000000" font-family="sans-serif" font-size="11" lengthAdjust="spacingAndGlyphs" textLength="71" x="12" y="819.7988">+unpublish()</text><text fill="#000000" font-family="sans-serif" font-size="11" lengthAdjust="spacingAndGlyphs" textLength="49" x="12" y="832.7539">+exists()</text><text fill="#000000" font-family="sans-serif" font-size="11" lengthAdjust="spacingAndGlyphs" textLength="46" x="12" y="845.709">+move()</text><text fill="#000000" font-family="sans-serif" font-size="11" lengthAdjust="spacingAndGlyphs" textLength="70" x="12" y="858.6641">+isMovable()</text><text fill="#000000" font-family="sans-serif" font-size="11" lengthAdjust="spacingAndGlyphs" textLength="87" x="12" y="871.6191">+isPublishById()</text><text fill="#000000" font-family="sans-serif" font-size="11" lengthAdjust="spacingAndGlyphs" textLength="94" x="12" y="884.5742">+isAllowPublish()</text><text fill="#000000" font-family="sans-serif" font-size="11" lengthAdjust="spacingAndGlyphs" textLength="120" x="12" y="897.5293">+existsContentByUrl()</text><!--class ContentsTable--><polygon fill="#FEFECE" filter="url(#flkiva3)" points="211,1184.6992,211,1185.3195,220.8889,1185.1832,230.7778,1184.4987,240.6667,1185.234,250.5556,1185.1398,260.4444,1184.5709,270.3333,1185.0288,280.2222,1184.2674,290.1111,1184.4403,300,1184.6992,299.7523,1184.6992,300.1666,1192.7258,300.0177,1200.7523,299.9557,1208.7789,299.8326,1216.8055,300,1224.832,300,1224.12,290.1111,1225.3203,280.2222,1225.3943,270.3333,1224.2678,260.4444,1224.5798,250.5556,1225.3698,240.6667,1224.4367,230.7778,1224.6113,220.8889,1224.3421,211,1224.832,211.0708,1224.832,210.9211,1216.8055,210.9238,1208.7789,211.1217,1200.7523,211.0136,1192.7258,211,1184.6992" style="stroke: #A80036; stroke-width: 1.5;"/><text fill="#000000" font-family="sans-serif" font-size="12" lengthAdjust="spacingAndGlyphs" textLength="83" x="214" y="1201.3008">ContentsTable</text><path d="M212,1208.832 L212,1209.0312 L221.6667,1209.387 L231.3333,1207.9508 L241,1209.1392 L250.6667,1209.2711 L260.3333,1208.0271 L270,1208.1781 L279.6667,1207.8852 L289.3333,1208.9139 L299,1208.832 " fill="#FEFECE" style="stroke: #A80036; stroke-width: 1.5;"/><path d="M212,1216.832 L212,1217.4938 L221.6667,1216.9497 L231.3333,1217.6418 L241,1217.1173 L250.6667,1215.9888 L260.3333,1216.214 L270,1216.3099 L279.6667,1215.9333 L289.3333,1216.5707 L299,1216.832 " fill="#FEFECE" style="stroke: #A80036; stroke-width: 1.5;"/><!--class Content--><polygon fill="#FEFECE" filter="url(#flkiva3)" points="335.5,964.1992,335.5,963.8688,345.6429,964.5029,355.7857,964.0725,365.9286,964.5762,376.0714,963.5461,386.2143,964.0084,396.3571,964.3111,406.5,963.4687,416.6429,964.1422,426.7857,963.9733,436.9286,964.0792,447.0714,963.6798,457.2143,964.5436,467.3571,964.2777,477.5,964.1516,487.6429,964.4231,497.7857,964.416,507.9286,964.3672,518.0714,964.1586,528.2143,964.5264,538.3571,964.9444,548.5,963.6796,558.6429,964.6996,568.7857,964.4509,578.9286,964.1574,589.0714,964.7773,599.2143,964.1059,609.3571,964.1876,619.5,964.1992,619.1077,964.1992,619.8433,974.2118,620.1315,984.2244,619.0558,994.2371,619.8923,1004.2497,619.9113,1014.2623,618.9767,1024.2749,620.1195,1034.2875,619.5789,1044.3001,618.9133,1054.3127,618.797,1064.3254,619.3772,1074.338,619.7999,1084.3506,619.5767,1094.3632,619.4563,1104.3758,618.804,1114.3884,618.9755,1124.401,618.7828,1134.4137,619.6514,1144.4263,619.6342,1154.4389,619.9422,1164.4515,619.8142,1174.4641,618.7587,1184.4767,620.0609,1194.4893,619.4424,1204.502,619.2318,1214.5146,620.1038,1224.5272,619.5736,1234.5398,620.1719,1244.5524,619.612,1254.565,620.0024,1264.5776,619.1176,1274.5903,619.0608,1284.6029,619.7381,1294.6155,619.5713,1304.6281,619.8482,1314.6407,619.9106,1324.6533,619.7828,1334.6659,619.1627,1344.6785,619.1783,1354.6912,619.3972,1364.7038,619.0449,1374.7164,619.8318,1384.729,620.0626,1394.7416,618.7998,1404.7542,619.398,1414.7668,619.5081,1424.7795,619.5391,1434.7921,619.5,1444.8047,619.5,1444.4186,609.3571,1445.0969,599.2143,1445.3085,589.0714,1444.259,578.9286,1445.2617,568.7857,1444.2064,558.6429,1444.9649,548.5,1444.3356,538.3571,1445.19,528.2143,1444.1543,518.0714,1444.1065,507.9286,1444.3026,497.7857,1445.1984,487.6429,1444.6556,477.5,1444.5445,467.3571,1444.1961,457.2143,1444.7924,447.0714,1444.4123,436.9286,1445.1496,426.7857,1444.6576,416.6429,1445.0813,406.5,1444.1603,396.3571,1444.9911,386.2143,1444.6014,376.0714,1444.3634,365.9286,1445.4197,355.7857,1444.221,345.6429,1444.9963,335.5,1444.8047,334.8391,1444.8047,334.9145,1434.7921,335.9653,1424.7795,335.9038,1414.7668,336.1437,1404.7542,335.5695,1394.7416,335.2015,1384.729,335.5769,1374.7164,335.3743,1364.7038,335.9701,1354.6912,335.999,1344.6785,335.385,1334.6659,335.7746,1324.6533,335.7983,1314.6407,335.654,1304.6281,336.1782,1294.6155,335.8666,1284.6029,335.6292,1274.5903,334.7865,1264.5776,335.0555,1254.565,334.9492,1244.5524,335.487,1234.5398,334.7652,1224.5272,335.7432,1214.5146,334.9428,1204.502,335.1217,1194.4893,335.2979,1184.4767,334.8242,1174.4641,335.0065,1164.4515,336.0425,1154.4389,336.137,1144.4263,335.3663,1134.4137,335.4503,1124.401,335.1953,1114.3884,334.8577,1104.3758,334.8204,1094.3632,335.0151,1084.3506,336.0996,1074.338,335.8848,1064.3254,335.2178,1054.3127,336.0934,1044.3001,335.267,1034.2875,334.854,1024.2749,336.1751,1014.2623,335.4217,1004.2497,335.3054,994.2371,336.0195,984.2244,335.5288,974.2118,335.5,964.1992" style="stroke: #A80036; stroke-width: 1.5;"/><text fill="#000000" font-family="sans-serif" font-size="12" lengthAdjust="spacingAndGlyphs" textLength="44" x="455.5" y="980.8008">Content</text><path d="M336.5,988.332 L336.5,987.9109 L346.5714,988.7062 L356.6429,988.6488 L366.7143,988.4134 L376.7857,987.4326 L386.8571,987.8543 L396.9286,989.1118 L407,987.9892 L417.0714,989.2529 L427.1429,988.7864 L437.2143,988.1952 L447.2857,989.2907 L457.3571,987.4987 L467.4286,989.2263 L477.5,988.9315 L487.5714,988.8392 L497.6429,988.1818 L507.7143,988.7613 L517.7857,987.8341 L527.8571,987.431 L537.9286,987.5412 L548,987.9486 L558.0714,988.7078 L568.1429,988.0353 L578.2143,989.0532 L588.2857,987.3637 L598.3571,989.0201 L608.4286,989.2282 L618.5,988.332 " fill="#FEFECE" style="stroke: #A80036; stroke-width: 1.5;"/><text fill="#000000" font-family="sans-serif" font-size="11" lengthAdjust="spacingAndGlyphs" textLength="41" x="341.5" y="1002.9668">+ID：id</text><text fill="#000000" font-family="sans-serif" font-size="11" lengthAdjust="spacingAndGlyphs" textLength="115" x="341.5" y="1015.9219">+コンテンツ名：name</text><text fill="#000000" font-family="sans-serif" font-size="11" lengthAdjust="spacingAndGlyphs" textLength="109" x="341.5" y="1028.877">+プラグイン：plugin</text><text fill="#000000" font-family="sans-serif" font-size="11" lengthAdjust="spacingAndGlyphs" textLength="131" x="341.5" y="1041.832">+コンテンツタイプ：type</text><text fill="#000000" font-family="sans-serif" font-size="11" lengthAdjust="spacingAndGlyphs" textLength="99" x="341.5" y="1054.7871">+実体ID：entity_id</text><text fill="#000000" font-family="sans-serif" font-size="11" lengthAdjust="spacingAndGlyphs" textLength="56" x="341.5" y="1067.7422">+URL：url</text><text fill="#000000" font-family="sans-serif" font-size="11" lengthAdjust="spacingAndGlyphs" textLength="99" x="341.5" y="1080.6973">+サイトID：site_id</text><text fill="#000000" font-family="sans-serif" font-size="11" lengthAdjust="spacingAndGlyphs" textLength="126" x="341.5" y="1093.6523">+エイリアスID：alias_id</text><text fill="#000000" font-family="sans-serif" font-size="11" lengthAdjust="spacingAndGlyphs" textLength="266" x="341.5" y="1106.6074">+メインサイトコンテンツID：main_site_content_id</text><text fill="#000000" font-family="sans-serif" font-size="11" lengthAdjust="spacingAndGlyphs" textLength="266" x="341.5" y="1119.5625">+サイトルートに配置されているかどうか：site_root</text><text fill="#000000" font-family="sans-serif" font-size="11" lengthAdjust="spacingAndGlyphs" textLength="93" x="341.5" y="1132.5176">+親ID：parent_id</text><text fill="#000000" font-family="sans-serif" font-size="11" lengthAdjust="spacingAndGlyphs" textLength="64" x="341.5" y="1145.4727">+左位置：lft</text><text fill="#000000" font-family="sans-serif" font-size="11" lengthAdjust="spacingAndGlyphs" textLength="76" x="341.5" y="1158.4277">+右位置：rght</text><text fill="#000000" font-family="sans-serif" font-size="11" lengthAdjust="spacingAndGlyphs" textLength="66" x="341.5" y="1171.3828">+深さ：level</text><text fill="#000000" font-family="sans-serif" font-size="11" lengthAdjust="spacingAndGlyphs" textLength="84" x="341.5" y="1184.3379">+タイトル：title</text><text fill="#000000" font-family="sans-serif" font-size="11" lengthAdjust="spacingAndGlyphs" textLength="114" x="341.5" y="1197.293">+説明文：description</text><text fill="#000000" font-family="sans-serif" font-size="11" lengthAdjust="spacingAndGlyphs" textLength="133" x="341.5" y="1210.248">+アイキャッチ：eyecatch</text><text fill="#000000" font-family="sans-serif" font-size="11" lengthAdjust="spacingAndGlyphs" textLength="116" x="341.5" y="1223.2031">+作成者ID：author_id</text><text fill="#000000" font-family="sans-serif" font-size="11" lengthAdjust="spacingAndGlyphs" textLength="226" x="341.5" y="1236.1582">+レイアウトテンプレート：layout_template</text><text fill="#000000" font-family="sans-serif" font-size="11" lengthAdjust="spacingAndGlyphs" textLength="97" x="341.5" y="1249.1133">+公開状態：status</text><text fill="#000000" font-family="sans-serif" font-size="11" lengthAdjust="spacingAndGlyphs" textLength="151" x="341.5" y="1262.0684">+公開開始日：publish_begin</text><text fill="#000000" font-family="sans-serif" font-size="11" lengthAdjust="spacingAndGlyphs" textLength="141" x="341.5" y="1275.0234">+公開終了日：publish_end</text><text fill="#000000" font-family="sans-serif" font-size="11" lengthAdjust="spacingAndGlyphs" textLength="133" x="341.5" y="1287.9785">+自公開状態：self_status</text><text fill="#000000" font-family="sans-serif" font-size="11" lengthAdjust="spacingAndGlyphs" textLength="187" x="341.5" y="1300.9336">+自公開開始日：self_publish_begin</text><text fill="#000000" font-family="sans-serif" font-size="11" lengthAdjust="spacingAndGlyphs" textLength="177" x="341.5" y="1313.8887">+自公開終了日：self_publish_end</text><text fill="#000000" font-family="sans-serif" font-size="11" lengthAdjust="spacingAndGlyphs" textLength="122" x="341.5" y="1326.8438">+作成日：created_date</text><text fill="#000000" font-family="sans-serif" font-size="11" lengthAdjust="spacingAndGlyphs" textLength="129" x="341.5" y="1339.7988">+編集日：modified_date</text><text fill="#000000" font-family="sans-serif" font-size="11" lengthAdjust="spacingAndGlyphs" textLength="258" x="341.5" y="1352.7539">+検索結果より除外するかどうか：exclude_search</text><text fill="#000000" font-family="sans-serif" font-size="11" lengthAdjust="spacingAndGlyphs" textLength="252" x="341.5" y="1365.709">+メニューから除外するかどうか：exclude_menu</text><text fill="#000000" font-family="sans-serif" font-size="11" lengthAdjust="spacingAndGlyphs" textLength="272" x="341.5" y="1378.6641">+メニューのリンクを別窓で開くかどうか：blank_link</text><text fill="#000000" font-family="sans-serif" font-size="11" lengthAdjust="spacingAndGlyphs" textLength="121" x="341.5" y="1391.6191">+削除日：deleted_date</text><text fill="#000000" font-family="sans-serif" font-size="11" lengthAdjust="spacingAndGlyphs" textLength="103" x="341.5" y="1404.5742">+削除状態：deleted</text><text fill="#000000" font-family="sans-serif" font-size="11" lengthAdjust="spacingAndGlyphs" textLength="159" x="341.5" y="1417.5293">+作成日（システム）：created</text><text fill="#000000" font-family="sans-serif" font-size="11" lengthAdjust="spacingAndGlyphs" textLength="155" x="341.5" y="1430.4844">+編集日（システム）modified</text><path d="M336.5,1436.8047 L336.5,1436.2281 L346.5714,1437.5917 L356.6429,1436.6083 L366.7143,1437.4624 L376.7857,1437.0549 L386.8571,1437.5658 L396.9286,1436.4567 L407,1435.8526 L417.0714,1435.8589 L427.1429,1437.7419 L437.2143,1437.4023 L447.2857,1437.2054 L457.3571,1437.7161 L467.4286,1436.643 L477.5,1437.2235 L487.5714,1437.0379 L497.6429,1436.9679 L507.7143,1435.8828 L517.7857,1437.1877 L527.8571,1435.8719 L537.9286,1437.2503 L548,1436.3159 L558.0714,1436.218 L568.1429,1437.6012 L578.2143,1437.4901 L588.2857,1436.1784 L598.3571,1436.1014 L608.4286,1435.9081 L618.5,1436.8047 " fill="#FEFECE" style="stroke: #A80036; stroke-width: 1.5;"/><!--class BcApiController--><polygon fill="#FEFECE" filter="url(#flkiva3)" points="208.5,29.1992,208.5,29.7358,218.9444,28.5559,229.3889,29.7787,239.8333,29.0055,250.2778,29.0254,260.7222,28.9175,271.1667,29.3226,281.6111,28.6364,292.0556,29.6871,302.5,29.1992,302.2515,29.1992,302.7455,37.2258,302.4603,45.2523,302.4713,53.2789,302.3092,61.3055,302.5,69.332,302.5,69.8001,292.0556,69.2211,281.6111,68.9771,271.1667,69.5031,260.7222,70.044,250.2778,68.7064,239.8333,69.1182,229.3889,69.2296,218.9444,68.6251,208.5,69.332,208.3902,69.332,208.5801,61.3055,208.6985,53.2789,208.2848,45.2523,208.7091,37.2258,208.5,29.1992" style="stroke: #A80036; stroke-width: 1.5;"/><text fill="#000000" font-family="sans-serif" font-size="12" lengthAdjust="spacingAndGlyphs" textLength="88" x="211.5" y="45.8008">BcApiController</text><path d="M209.5,53.332 L209.5,52.6126 L219.7222,52.7202 L229.9444,53.0357 L240.1667,54.2962 L250.3889,53.7105 L260.6111,53.3886 L270.8333,54.2122 L281.0556,53.6407 L291.2778,53.6706 L301.5,53.332 " fill="#FEFECE" style="stroke: #A80036; stroke-width: 1.5;"/><path d="M209.5,61.332 L209.5,60.7716 L219.7222,61.1488 L229.9444,61.5535 L240.1667,61.4817 L250.3889,61.0078 L260.6111,61.7969 L270.8333,62.3206 L281.0556,61.8429 L291.2778,61.4438 L301.5,61.332 " fill="#FEFECE" style="stroke: #A80036; stroke-width: 1.5;"/><path d="M255.5,376.3992 L254.7361,376.3992 L254.7399,386.4784 L255.7167,396.5577 L255.9147,406.6369 L255.6585,416.7161 L255.9874,426.7954 L254.653,436.8746 L254.5708,446.9538 L255.7374,457.0331 L255.958,467.1123 L255.8723,477.1915 L255.2265,487.2708 L255.2337,497.35 L254.8209,507.4292 L255.9485,517.5084 L255.2278,527.5877 L254.5315,537.6669 L255.2859,547.7461 L255.4808,557.8254 L256.0591,567.9046 L255.1489,577.9838 L254.8545,588.0631 L256.2241,598.1423 L256.1587,608.2215 L255.2764,618.3008 L256.2585,628.38 L255.5,638.4592 " fill="none" style="stroke: #000000; stroke-width: 1.0;"/><polygon fill="#000000" points="255.5,643.5492,255.5843,643.5867,256.1421,641.679,257.2114,639.9987,258.0835,638.2308,258.8087,636.3975,259.5,634.5492,259.4909,634.5401,258.6068,635.256,257.9807,636.2299,257.0092,636.8584,256.3621,637.8113,255.5,638.5492,255.6371,638.6863,254.7153,637.7646,253.7407,636.7899,253.0365,636.0857,252.2303,635.2796,251.5,634.5492,251.3283,634.4729,252.432,636.4079,253.1183,638.1573,254.0808,640.0296,254.7797,641.7847,255.5,643.5492" style="stroke: #000000; stroke-width: 1.0;"/><path d="M255.5,89.5592 L255.4384,89.5592 L255.8251,97.4392 L255.4691,105.3192 L255.4704,113.1992 L255.5378,121.0792 L255.5,128.9592 " fill="none" style="stroke: #000000; stroke-width: 1.0;"/><polygon fill="none" points="248.5,89.5192,248.7086,89.5922,249.7801,85.4773,251.2862,81.5144,252.6499,77.5017,254.238,73.5675,255.5,69.5192,255.2866,69.4445,256.7067,73.4516,258.2317,77.4953,259.9336,81.601,260.9029,85.4502,262.5,89.5192,262.5,89.4395,259.7,89.4983,256.9,89.3545,254.1,89.7619,251.3,89.5918,248.5,89.5192" style="stroke: #000000; stroke-width: 1.0;"/><path d="M191.05,670.1992 L191.05,670.2993 L193.974,670.0669 L196.898,670.1752 L199.822,669.9259 L202.746,670.3007 L205.67,670.1992 " fill="none" style="stroke: #000000; stroke-width: 1.0; stroke-dasharray: 1.0,3.0;"/><polygon fill="none" points="191.02,677.1992,190.9394,676.9688,186.9972,675.7342,183.0652,674.5283,179.0425,673.0634,175.0425,671.6636,171.02,670.1992,170.9948,670.1274,175.0251,668.8139,179.0939,667.6104,182.978,665.8791,187.0065,664.5606,191.02,663.1992,190.8969,663.1992,191.2303,665.9992,191.2491,668.7992,191.1998,671.5992,190.8594,674.3992,191.02,677.1992" style="stroke: #000000; stroke-width: 1.0;"/><path d="M255.5,696.8792 L255.7572,696.8792 L256.0365,706.9323 L254.9224,716.9855 L256.301,727.0386 L254.8861,737.0917 L255.9279,747.1448 L254.8341,757.198 L255.3948,767.2511 L254.529,777.3042 L255.6076,787.3573 L254.8999,797.4105 L255.6589,807.4636 L256.4882,817.5167 L254.8004,827.5698 L254.5143,837.623 L255.4814,847.6761 L255.4963,857.7292 L255.5671,867.7823 L255.8427,877.8355 L255.2033,887.8886 L255.4259,897.9417 L254.697,907.9948 L255.8648,918.048 L255.6879,928.1011 L255.8081,938.1542 L255.6777,948.2073 L255.8876,958.2605 L255.5502,968.3136 L255.8588,978.3667 L255.394,988.4198 L254.6616,998.473 L256.0352,1008.5261 L256.317,1018.5792 L255.9881,1028.6323 L254.5619,1038.6855 L254.7814,1048.7386 L256.4471,1058.7917 L255.0299,1068.8448 L254.5582,1078.898 L256.3893,1088.9511 L254.5375,1099.0042 L255.3014,1109.0573 L254.8993,1119.1105 L254.8405,1129.1636 L255.1476,1139.2167 L255.0884,1149.2698 L254.5774,1159.323 L256.3717,1169.3761 L255.5,1179.4292 " fill="none" style="stroke: #000000; stroke-width: 1.0;"/><polygon fill="#000000" points="255.5,1184.6792,255.4349,1184.6503,256.1642,1182.8189,257.1482,1181.1006,257.8788,1179.2698,258.7978,1177.5227,259.5,1175.6792,259.4195,1175.5987,258.6122,1176.3914,257.7386,1177.1178,257.188,1178.1672,256.4314,1179.0106,255.5,1179.6792,255.4785,1179.6577,254.5769,1178.7561,253.7485,1177.9278,253.0305,1177.2097,252.1749,1176.3541,251.5,1175.6792,251.722,1175.7779,252.2315,1177.4488,252.9187,1179.1986,254.0225,1181.1337,254.5838,1182.8276,255.5,1184.6792" style="stroke: #000000; stroke-width: 1.0;"/><path d="M300.16,1204.6992 L300.16,1204.4703 L306.178,1204.5256 L312.196,1204.5724 L318.214,1204.7245 L324.232,1204.9186 L330.25,1204.6992 " fill="none" style="stroke: #000000; stroke-width: 1.0;"/><polygon fill="#000000" points="335.49,1204.6992,335.4622,1204.6366,333.5897,1203.6736,331.8602,1203.0323,330.095,1202.3104,328.3487,1201.6313,326.49,1200.6992,326.433,1200.6423,327.1256,1201.3348,328.2065,1202.4157,328.7748,1202.984,329.7588,1203.968,330.49,1204.6992,330.6309,1204.8401,329.6657,1205.4749,329.0021,1206.4113,328.1514,1207.1606,327.3421,1207.9514,326.49,1208.6992,326.4845,1208.6868,328.2357,1207.7771,330.0455,1206.9991,331.8702,1206.2548,333.6503,1205.4099,335.49,1204.6992" style="stroke: #000000; stroke-width: 1.0;"/></g></svg>