<?xml version="1.0" encoding="UTF-8" standalone="no"?><svg xmlns="http://www.w3.org/2000/svg" xmlns:xlink="http://www.w3.org/1999/xlink" contentScriptType="application/ecmascript" contentStyleType="text/css" height="442px" preserveAspectRatio="none" style="width:218px;height:442px;" version="1.1" viewBox="0 0 218 442" width="218px" zoomAndPan="magnify"><defs><filter height="300%" id="f741tlj" width="300%" x="-1" y="-1"><feGaussianBlur result="blurOut" stdDeviation="2.0"/><feColorMatrix in="blurOut" result="blurOut2" type="matrix" values="0 0 0 0 0 0 0 0 0 0 0 0 0 0 0 0 0 0 .4 0"/><feOffset dx="4.0" dy="4.0" in="blurOut2" result="blurOut3"/><feBlend in="SourceGraphic" in2="blurOut3" mode="normal"/></filter></defs><g><text fill="#000000" font-family="sans-serif" font-size="18" lengthAdjust="spacingAndGlyphs" textLength="153" x="37" y="17.4023">ブログカテゴリAPI</text><!--class Api\BlogCategoriesController--><polygon fill="#FEFECE" filter="url(#f741tlj)" points="21.5,129.1992,21.5,129.8672,31.6176,129.3321,41.7353,128.727,51.8529,129.4111,61.9706,129.179,72.0882,128.8087,82.2059,129.2026,92.3235,129.1179,102.4412,128.5776,112.5588,128.7752,122.6765,128.4565,132.7941,129.5644,142.9118,129.6826,153.0294,129.337,163.1471,129.1472,173.2647,129.295,183.3824,129.7717,193.5,129.1992,193.6325,129.1992,193.797,139.0212,192.9023,148.8431,193.2314,158.665,193.0052,168.487,192.8983,178.3089,194.0985,188.1309,193.9506,197.9528,193.7458,207.7747,193.3512,217.5967,194.1104,227.4186,193.1447,237.2406,193.5,247.0625,193.5,246.4645,183.3824,247.6158,173.2647,246.6525,163.1471,246.3441,153.0294,246.8995,142.9118,247.0569,132.7941,246.3255,122.6765,247.2908,112.5588,246.4434,102.4412,246.4092,92.3235,246.87,82.2059,247.098,72.0882,246.9024,61.9706,246.618,51.8529,246.7869,41.7353,247.2735,31.6176,246.5257,21.5,247.0625,21.9964,247.0625,21.397,237.2406,22.0524,227.4186,21.9361,217.5967,21.5804,207.7747,21.8614,197.9528,21.3436,188.1309,20.7638,178.3089,21.9561,168.487,21.2017,158.665,21.648,148.8431,21.0323,139.0212,21.5,129.1992" style="stroke: #A80036; stroke-width: 1.5;"/><text fill="#000000" font-family="sans-serif" font-size="12" lengthAdjust="spacingAndGlyphs" textLength="166" x="24.5" y="145.8008">Api\BlogCategoriesController</text><path d="M22.5,153.332 L22.5,153.5698 L32.5,152.6138 L42.5,152.7564 L52.5,152.6479 L62.5,152.5182 L72.5,154.019 L82.5,154.2406 L92.5,153.5254 L102.5,153.5783 L112.5,153.3025 L122.5,153.1949 L132.5,152.3619 L142.5,152.5477 L152.5,153.9082 L162.5,152.9792 L172.5,153.9769 L182.5,152.9278 L192.5,153.332 " fill="#FEFECE" style="stroke: #A80036; stroke-width: 1.5;"/><path d="M22.5,161.332 L22.5,160.735 L32.5,161.2828 L42.5,161.992 L52.5,161.2836 L62.5,160.7423 L72.5,161.5776 L82.5,161.53 L92.5,161.5498 L102.5,161.1751 L112.5,160.4382 L122.5,160.9937 L132.5,160.4234 L142.5,160.6123 L152.5,161.3983 L162.5,161.3116 L172.5,161.7793 L182.5,161.5129 L192.5,161.332 " fill="#FEFECE" style="stroke: #A80036; stroke-width: 1.5;"/><text fill="#000000" font-family="sans-serif" font-size="11" lengthAdjust="spacingAndGlyphs" textLength="135" x="27.5" y="175.9668">+サイト一覧取得：index()</text><text fill="#000000" font-family="sans-serif" font-size="11" lengthAdjust="spacingAndGlyphs" textLength="128" x="27.5" y="188.9219">+単一サイト取得：view()</text><text fill="#000000" font-family="sans-serif" font-size="11" lengthAdjust="spacingAndGlyphs" textLength="99" x="27.5" y="201.877">+リスト取得：list()</text><text fill="#000000" font-family="sans-serif" font-size="11" lengthAdjust="spacingAndGlyphs" textLength="125" x="27.5" y="214.832">+サイト新規追加：add()</text><text fill="#000000" font-family="sans-serif" font-size="11" lengthAdjust="spacingAndGlyphs" textLength="103" x="27.5" y="227.7871">+サイト編集：edit()</text><text fill="#000000" font-family="sans-serif" font-size="11" lengthAdjust="spacingAndGlyphs" textLength="115" x="27.5" y="240.7422">+サイト削除：delete()</text><!--class BlogCategoriesService--><polygon fill="#FEFECE" filter="url(#f741tlj)" points="42,307.1992,42,306.9742,52.0769,306.5508,62.1538,307.5348,72.2308,307.5755,82.3077,306.8707,92.3846,306.9565,102.4615,307.7092,112.5385,307.4302,122.6154,307.5848,132.6923,306.6006,142.7692,307.4063,152.8462,306.5031,162.9231,307.0399,173,307.1992,173.1464,307.1992,172.8741,315.2258,173.1441,323.2523,172.9746,331.2789,172.9667,339.3055,173,347.332,173,347.8995,162.9231,348.0746,152.8462,347.505,142.7692,346.8601,132.6923,347.7018,122.6154,347.1636,112.5385,347.8892,102.4615,347.0928,92.3846,347.7898,82.3077,347.7978,72.2308,347.9543,62.1538,347.7651,52.0769,347.0054,42,347.332,42.1379,347.332,42.2206,339.3055,42.0001,331.2789,42.0888,323.2523,41.9451,315.2258,42,307.1992" style="stroke: #A80036; stroke-width: 1.5;"/><text fill="#000000" font-family="sans-serif" font-size="12" lengthAdjust="spacingAndGlyphs" textLength="125" x="45" y="323.8008">BlogCategoriesService</text><path d="M43,331.332 L43,330.8765 L52.9231,330.7939 L62.8462,331.209 L72.7692,332.0363 L82.6923,331.3818 L92.6154,331.4799 L102.5385,330.517 L112.4615,331.0554 L122.3846,331.6802 L132.3077,331.5226 L142.2308,330.6082 L152.1538,331.6187 L162.0769,331.3313 L172,331.332 " fill="#FEFECE" style="stroke: #A80036; stroke-width: 1.5;"/><path d="M43,339.332 L43,339.6199 L52.9231,339.2989 L62.8462,339.0457 L72.7692,339.339 L82.6923,339.294 L92.6154,339.705 L102.5385,339.2716 L112.4615,339.2415 L122.3846,339.6428 L132.3077,339.6813 L142.2308,338.6879 L152.1538,338.8475 L162.0769,338.4399 L172,339.332 " fill="#FEFECE" style="stroke: #A80036; stroke-width: 1.5;"/><!--class BcApiController--><polygon fill="#FEFECE" filter="url(#f741tlj)" points="60.5,29.1992,60.5,28.4842,70.9444,28.7417,81.3889,29.7176,91.8333,29.6023,102.2778,28.8033,112.7222,28.7248,123.1667,28.8642,133.6111,29.7442,144.0556,29.6568,154.5,29.1992,154.6359,29.1992,154.3279,37.2258,154.3867,45.2523,154.3179,53.2789,154.7433,61.3055,154.5,69.332,154.5,69.9564,144.0556,70.011,133.6111,69.615,123.1667,68.6565,112.7222,69.1486,102.2778,69.2799,91.8333,69.9859,81.3889,69.0315,70.9444,69.1073,60.5,69.332,60.5208,69.332,60.7192,61.3055,60.5296,53.2789,60.6843,45.2523,60.5698,37.2258,60.5,29.1992" style="stroke: #A80036; stroke-width: 1.5;"/><text fill="#000000" font-family="sans-serif" font-size="12" lengthAdjust="spacingAndGlyphs" textLength="88" x="63.5" y="45.8008">BcApiController</text><path d="M61.5,53.332 L61.5,53.3876 L71.7222,53.38 L81.9444,54.1998 L92.1667,52.9453 L102.3889,52.7849 L112.6111,53.8072 L122.8333,53.1178 L133.0556,52.5393 L143.2778,52.638 L153.5,53.332 " fill="#FEFECE" style="stroke: #A80036; stroke-width: 1.5;"/><path d="M61.5,61.332 L61.5,61.1646 L71.7222,61.9588 L81.9444,60.4077 L92.1667,60.8281 L102.3889,61.9526 L112.6111,62.1461 L122.8333,62.0509 L133.0556,60.7436 L143.2778,62.184 L153.5,61.332 " fill="#FEFECE" style="stroke: #A80036; stroke-width: 1.5;"/><polygon fill="#FBFB77" filter="url(#f741tlj)" points="6,407.1992,5.857,407.1992,5.8491,412.2613,6.0114,417.3234,5.8969,422.3855,5.9486,427.4477,6,432.5098,6,432.2991,16.15,431.855,26.3,431.823,36.45,432.6469,46.6,432.7559,56.75,432.5149,66.9,433.0113,77.05,433.0002,87.2,432.493,97.35,433.1709,107.5,432.12,117.65,432.628,127.8,432.7711,137.95,433.0523,148.1,433.0303,158.25,431.7683,168.4,432.7705,178.55,432.5302,188.7,433.0609,198.85,432.3819,209,432.5098,209.1312,432.5098,209.0373,429.4477,208.8355,426.3855,209.2167,423.3234,209.1362,420.2613,209,417.1992,209.1095,417.3087,207.0208,415.22,204.9235,413.1227,202.8954,411.0946,200.887,409.0863,199,407.1992,199,407.5063,188.8421,407.8492,178.6842,406.6677,168.5263,407.3654,158.3684,407.2294,148.2105,407.5801,138.0526,406.8285,127.8947,406.9393,117.7368,407.5536,107.5789,407.3923,97.4211,406.548,87.2632,406.9939,77.1053,406.8579,66.9474,406.8194,56.7895,406.7398,46.6316,407.1685,36.4737,407.1008,26.3158,407.3107,16.1579,406.9888,6,407.1992" style="stroke: #A80036; stroke-width: 1.0;"/><polygon fill="#FBFB77" points="6,407.1992,5.9213,407.1992,5.8466,412.2613,5.8595,417.3234,6.2457,422.3855,5.959,427.4477,6,432.5098,6,432.8307,16.15,431.9089,26.3,433.1743,36.45,432.6144,46.6,433.1793,56.75,432.5003,66.9,431.8508,77.05,433.0837,87.2,432.4216,97.35,432.7683,107.5,432.7292,117.65,432.8431,127.8,432.7237,137.95,433.1447,148.1,432.413,158.25,432.5086,168.4,432.8008,178.55,433.0259,188.7,432.4871,198.85,431.8178,209,432.5098,208.9077,432.5098,208.908,429.4477,208.9329,426.3855,209.1752,423.3234,209.0205,420.2613,209,417.1992,209.0284,417.2276,206.9207,415.1199,205.1635,413.3627,202.8435,411.0427,200.9339,409.1331,199,407.1992,199,406.6257,189.2778,406.922,179.5556,407.2834,169.8333,407.2596,160.1111,406.8287,150.3889,406.4778,140.6667,407.8033,130.9444,407.4181,121.2222,407.2066,111.5,407.1992,110.8212,407.1538,110.1306,397.1839,110.3313,387.2736,108.8797,377.2527,108.3479,367.2934,107.8662,357.3375,107.5,347.3892,108.1903,347.4354,106.7278,357.3505,105.7326,367.2969,105.65,377.3043,105.2094,387.2877,104.0871,397.2256,103.5,407.1992,103.5,407.464,93.75,407.5847,84,406.6657,74.25,407.1366,64.5,406.9809,54.75,407.5772,45,407.9059,35.25,406.5127,25.5,406.6025,15.75,406.471,6,407.1992" style="stroke: #A80036; stroke-width: 1.0;"/><path d="M199,407.1992 L199.2172,407.1992 L198.8083,409.1992 L199.022,411.1992 L198.9482,413.1992 L199.3157,415.1992 L199,417.1992 " fill="#FBFB77" style="stroke: #A80036; stroke-width: 1.0;"/><path d="M209,417.1992 L209,417.3619 L207,416.9643 L205,417.4079 L203,417.2026 L201,416.9318 L199,417.1992 " fill="#FBFB77" style="stroke: #A80036; stroke-width: 1.0;"/><text fill="#000000" font-family="sans-serif" font-size="13" lengthAdjust="spacingAndGlyphs" textLength="182" x="12" y="424.7676">以下ブログカテゴリ管理と同じ</text><path d="M107.5,247.2992 L107.5992,247.2992 L107.812,258.1952 L108.1018,269.0912 L106.9724,279.9872 L107.2313,290.8832 L107.5,301.7792 " fill="none" style="stroke: #000000; stroke-width: 1.0;"/><polygon fill="#000000" points="107.5,307.1292,107.3249,307.0514,108.288,305.3239,109.1723,303.5614,109.8765,301.7188,110.4885,299.8352,111.5,298.1292,111.5081,298.1373,110.6379,298.8671,110.0314,299.8606,109.0547,300.4839,108.2906,301.3198,107.5,302.1292,107.5211,302.1503,106.5659,301.1951,105.85,300.4792,105.2001,299.8293,104.4093,299.0385,103.5,298.1292,103.6167,298.1811,104.1358,299.8562,105.2233,301.784,105.6796,303.4313,106.7669,305.3589,107.5,307.1292" style="stroke: #000000; stroke-width: 1.0;"/><path d="M107.5,89.2992 L107.6638,89.2992 L107.6741,97.2232 L107.5521,105.1472 L107.6323,113.0712 L107.3021,120.9952 L107.5,128.9192 " fill="none" style="stroke: #000000; stroke-width: 1.0;"/><polygon fill="none" points="100.5,89.2492,100.3015,89.1797,101.739,85.1929,103.4158,81.2897,104.5563,77.1989,106.2686,73.3082,107.5,69.2492,107.4139,69.2191,108.6816,73.1728,110.52,77.3262,111.7137,81.254,113.1554,85.2686,114.5,89.2492,114.5,89.2274,111.7,89.1248,108.9,89.0804,106.1,89.4975,103.3,89.1372,100.5,89.2492" style="stroke: #000000; stroke-width: 1.0;"/></g></svg>