<?xml version="1.0" encoding="UTF-8" standalone="no"?><svg xmlns="http://www.w3.org/2000/svg" xmlns:xlink="http://www.w3.org/1999/xlink" contentScriptType="application/ecmascript" contentStyleType="text/css" height="329px" preserveAspectRatio="none" style="width:195px;height:329px;" version="1.1" viewBox="0 0 195 329" width="195px" zoomAndPan="magnify"><defs><filter height="300%" id="fkfyp3e" width="300%" x="-1" y="-1"><feGaussianBlur result="blurOut" stdDeviation="2.0"/><feColorMatrix in="blurOut" result="blurOut2" type="matrix" values="0 0 0 0 0 0 0 0 0 0 0 0 0 0 0 0 0 0 .4 0"/><feOffset dx="4.0" dy="4.0" in="blurOut2" result="blurOut3"/><feBlend in="SourceGraphic" in2="blurOut3" mode="normal"/></filter></defs><g><text fill="#000000" font-family="sans-serif" font-size="18" lengthAdjust="spacingAndGlyphs" textLength="171" x="16.5" y="17.4023">検索インデックスAPI</text><!--class Api\SearchIndexesController--><polygon fill="#FEFECE" filter="url(#fkfyp3e)" points="6,29.1992,6,29.0399,16,29.925,26,29.6521,36,28.6598,46,29.0834,56,29.6034,66,29.7195,76,28.6987,86,29.0602,96,29.3779,106,28.6401,116,29.6504,126,29.1085,136,29.3295,146,28.9166,156,29.653,166,28.9009,176,28.9092,186,29.1992,186.3048,29.1992,186.1389,39.69,185.3463,50.1809,185.3142,60.6717,186.4314,71.1625,186.6595,81.6533,185.3197,92.1441,185.7607,102.635,185.3556,113.1258,185.2747,123.6166,186,134.1074,186,134.5104,176,134.2322,166,133.9127,156,134.8166,146,134.8009,136,134.8528,126,134.4635,116,133.9389,106,133.4148,96,134.2434,86,134.3257,76,133.958,66,134.5059,56,133.6536,46,133.425,36,134.8204,26,133.6735,16,133.6077,6,134.1074,5.6775,134.1074,6.1939,123.6166,5.6409,113.1258,5.8044,102.635,6.4297,92.1441,5.3142,81.6533,5.6939,71.1625,5.2528,60.6717,6.3084,50.1809,5.6833,39.69,6,29.1992" style="stroke: #A80036; stroke-width: 1.5;"/><text fill="#000000" font-family="sans-serif" font-size="12" lengthAdjust="spacingAndGlyphs" textLength="164" x="14" y="45.8008">Api\SearchIndexesController</text><path d="M7,53.332 L7,53.9079 L16.8889,52.777 L26.7778,53.6139 L36.6667,54.2159 L46.5556,53.8778 L56.4444,54.1752 L66.3333,53.7904 L76.2222,52.4933 L86.1111,52.9436 L96,54.1343 L105.8889,52.7921 L115.7778,52.658 L125.6667,52.551 L135.5556,53.2372 L145.4444,54.183 L155.3333,54.2159 L165.2222,53.7775 L175.1111,53.8007 L185,53.332 " fill="#FEFECE" style="stroke: #A80036; stroke-width: 1.5;"/><path d="M7,61.332 L7,61.0425 L16.8889,62.3183 L26.7778,61.3353 L36.6667,61.321 L46.5556,60.4739 L56.4444,60.4317 L66.3333,62.0409 L76.2222,61.4141 L86.1111,61.7816 L96,60.7034 L105.8889,60.4875 L115.7778,62.2101 L125.6667,62.1495 L135.5556,62.2188 L145.4444,60.5818 L155.3333,60.7528 L165.2222,60.7906 L175.1111,61.9161 L185,61.332 " fill="#FEFECE" style="stroke: #A80036; stroke-width: 1.5;"/><text fill="#000000" font-family="sans-serif" font-size="11" lengthAdjust="spacingAndGlyphs" textLength="102" x="12" y="75.9668">+一覧表示：index()</text><text fill="#000000" font-family="sans-serif" font-size="11" lengthAdjust="spacingAndGlyphs" textLength="82" x="12" y="88.9219">+削除：delete()</text><text fill="#000000" font-family="sans-serif" font-size="11" lengthAdjust="spacingAndGlyphs" textLength="168" x="12" y="101.877">+優先度変更：change_priority()</text><text fill="#000000" font-family="sans-serif" font-size="11" lengthAdjust="spacingAndGlyphs" textLength="124" x="12" y="114.832">+再構築：reconstruct()</text><text fill="#000000" font-family="sans-serif" font-size="11" lengthAdjust="spacingAndGlyphs" textLength="86" x="12" y="127.7871">+検索：search()</text><!--class SearchIndexesService--><polygon fill="#FEFECE" filter="url(#fkfyp3e)" points="31.5,194.1992,31.5,194.2955,41.4231,194.6896,51.3462,193.6619,61.2692,194.636,71.1923,194.7736,81.1154,193.4787,91.0385,194.3097,100.9615,193.5384,110.8846,193.6874,120.8077,194.0206,130.7308,193.9645,140.6538,194.3223,150.5769,194.8834,160.5,194.1992,160.7027,194.1992,160.6625,202.2258,160.273,210.2523,160.3036,218.2789,160.2531,226.3055,160.5,234.332,160.5,233.912,150.5769,234.7304,140.6538,234.8002,130.7308,234.5604,120.8077,233.8589,110.8846,234.1159,100.9615,233.927,91.0385,233.727,81.1154,234.1907,71.1923,234.5118,61.2692,234.2552,51.3462,234.6551,41.4231,233.6444,31.5,234.332,31.3238,234.332,31.4468,226.3055,31.3692,218.2789,31.6145,210.2523,31.4374,202.2258,31.5,194.1992" style="stroke: #A80036; stroke-width: 1.5;"/><text fill="#000000" font-family="sans-serif" font-size="12" lengthAdjust="spacingAndGlyphs" textLength="123" x="34.5" y="210.8008">SearchIndexesService</text><path d="M32.5,218.332 L32.5,219.1021 L42.2692,217.61 L52.0385,217.571 L61.8077,217.9627 L71.5769,218.6828 L81.3462,217.6298 L91.1154,218.5868 L100.8846,219.066 L110.6538,219.0759 L120.4231,218.9097 L130.1923,217.8742 L139.9615,218.3314 L149.7308,218.762 L159.5,218.332 " fill="#FEFECE" style="stroke: #A80036; stroke-width: 1.5;"/><path d="M32.5,226.332 L32.5,226.2169 L42.2692,225.6324 L52.0385,225.8405 L61.8077,225.7254 L71.5769,227.0538 L81.3462,225.7976 L91.1154,225.9837 L100.8846,226.3328 L110.6538,225.4556 L120.4231,226.79 L130.1923,225.466 L139.9615,226.7313 L149.7308,226.0978 L159.5,226.332 " fill="#FEFECE" style="stroke: #A80036; stroke-width: 1.5;"/><polygon fill="#FBFB77" filter="url(#fkfyp3e)" points="20.5,294.1992,20.4476,294.1992,20.2622,299.2613,20.5419,304.3234,20.7325,309.3855,20.5755,314.4477,20.5,319.5098,20.5,319.6957,30.5667,320.0735,40.6333,319.0181,50.7,319.3596,60.7667,319.2642,70.8333,319.4705,80.9,319.3732,90.9667,320.137,101.0333,319.6438,111.1,319.7826,121.1667,319.4592,131.2333,318.9406,141.3,319.2911,151.3667,319.8105,161.4333,320.1352,171.5,319.5098,171.7136,319.5098,171.3494,316.4477,171.7098,313.3855,171.3444,310.3234,171.4179,307.2613,171.5,304.1992,171.5716,304.2709,169.6052,302.3044,167.5965,300.2957,165.3769,298.0761,163.4759,296.1751,161.5,294.1992,161.5,293.9257,151.4286,294.3015,141.3571,293.6817,131.2857,293.7624,121.2143,293.7491,111.1429,294.3943,101.0714,294.5917,91,293.6846,80.9286,293.7203,70.8571,294.3074,60.7857,293.4534,50.7143,294.9011,40.6429,294.6528,30.5714,294.3115,20.5,294.1992" style="stroke: #A80036; stroke-width: 1.0;"/><polygon fill="#FBFB77" points="20.5,294.1992,20.6818,294.1992,20.2648,299.2613,20.3652,304.3234,20.4365,309.3855,20.6114,314.4477,20.5,319.5098,20.5,319.4399,30.5667,319.7702,40.6333,319.8636,50.7,319.9524,60.7667,319.7594,70.8333,318.7682,80.9,319.9751,90.9667,318.9229,101.0333,318.8737,111.1,319.0203,121.1667,319.175,131.2333,319.7447,141.3,319.3233,151.3667,320.1784,161.4333,319.6026,171.5,319.5098,171.7102,319.5098,171.4212,316.4477,171.4853,313.3855,171.4325,310.3234,171.2573,307.2613,171.5,304.1992,171.4899,304.1891,169.3327,302.0319,167.4979,300.1971,165.3922,298.0914,163.5065,296.2057,161.5,294.1992,161.5,293.7512,151.25,294.1292,141,294.1397,130.75,294.8697,120.5,294.307,110.25,294.0477,100,294.1992,99.8674,294.1904,99.2513,284.2254,99.0775,274.29,98.6994,264.341,97.2669,254.3214,95.9728,244.3111,96,234.3892,96.1595,234.3999,94.7197,244.3165,95.1372,254.3574,94.6216,264.3358,93.4221,274.2685,92.2709,284.2044,92,294.1992,92,294.4283,81.7857,294.8609,71.5714,294.7717,61.3571,294.2975,51.1429,294.8918,40.9286,294.5843,30.7143,294.8874,20.5,294.1992" style="stroke: #A80036; stroke-width: 1.0;"/><path d="M161.5,294.1992 L161.3362,294.1992 L161.5788,296.1992 L161.6657,298.1992 L161.4551,300.1992 L161.6394,302.1992 L161.5,304.1992 " fill="#FBFB77" style="stroke: #A80036; stroke-width: 1.0;"/><path d="M171.5,304.1992 L171.5,304.0643 L169.5,304.2194 L167.5,303.9402 L165.5,304.2831 L163.5,304.2973 L161.5,304.1992 " fill="#FBFB77" style="stroke: #A80036; stroke-width: 1.0;"/><text fill="#000000" font-family="sans-serif" font-size="13" lengthAdjust="spacingAndGlyphs" textLength="130" x="26.5" y="311.7676">以下サイト管理と同じ</text><path d="M96,134.2792 L95.6416,134.2792 L95.5957,145.2552 L96.4773,156.2312 L95.6296,167.2072 L95.9823,178.1832 L96,189.1592 " fill="none" style="stroke: #A80036; stroke-width: 1.0;"/><polygon fill="#A80036" points="96,194.1692,96.1001,194.2137,96.9191,192.4222,97.417,190.4879,98.4821,188.8057,99.322,187.0234,100,185.1692,99.9545,185.1237,99.2396,186.0088,98.3002,186.6694,97.5099,187.4792,96.688,188.2572,96,189.1692,95.9802,189.1494,95.0823,188.2516,94.3222,187.4914,93.5707,186.7399,92.9436,186.1128,92,185.1692,91.7984,185.0796,92.792,186.9657,93.6135,188.7752,94.6012,190.6586,95.1571,192.3502,96,194.1692" style="stroke: #A80036; stroke-width: 1.0;"/></g></svg>