<?xml version="1.0" encoding="UTF-8" standalone="no"?><svg xmlns="http://www.w3.org/2000/svg" xmlns:xlink="http://www.w3.org/1999/xlink" contentScriptType="application/ecmascript" contentStyleType="text/css" height="651px" preserveAspectRatio="none" style="width:524px;height:651px;" version="1.1" viewBox="0 0 524 651" width="524px" zoomAndPan="magnify"><defs><filter height="300%" id="f8b95df" width="300%" x="-1" y="-1"><feGaussianBlur result="blurOut" stdDeviation="2.0"/><feColorMatrix in="blurOut" result="blurOut2" type="matrix" values="0 0 0 0 0 0 0 0 0 0 0 0 0 0 0 0 0 0 .4 0"/><feOffset dx="4.0" dy="4.0" in="blurOut2" result="blurOut3"/><feBlend in="SourceGraphic" in2="blurOut3" mode="normal"/></filter></defs><g><text fill="#000000" font-family="sans-serif" font-size="18" lengthAdjust="spacingAndGlyphs" textLength="99" x="217.5" y="17.4023">ユーザーAPI</text><!--class Api\UsersController--><polygon fill="#FEFECE" filter="url(#f8b95df)" points="122.5,29.1992,122.5,29.1423,132.38,29.8024,142.26,29.361,152.14,28.8217,162.02,28.9238,171.9,28.9728,181.78,29.1468,191.66,28.7467,201.54,28.5842,211.42,29.0391,221.3,28.9234,231.18,29.1971,241.06,29.3349,250.94,28.6168,260.82,29.119,270.7,29.2979,280.58,28.7362,290.46,28.8606,300.34,28.5201,310.22,29.2399,320.1,29.0934,329.98,28.9895,339.86,29.7937,349.74,29.5803,359.62,29.9329,369.5,29.1992,370.233,29.1992,370.2182,39.4688,369.7154,49.7383,369.7462,60.0078,369.4193,70.2773,369.8275,80.5469,369.4066,90.8164,370.1739,101.0859,369.5684,111.3555,369.8309,121.625,369.4526,131.8945,368.8416,142.1641,369.4146,152.4336,369.8811,162.7031,369.5,172.9727,369.5,172.4568,359.62,172.8763,349.74,172.6406,339.86,172.3864,329.98,172.7841,320.1,172.3553,310.22,173.0999,300.34,172.9564,290.46,172.8525,280.58,173.201,270.7,172.7252,260.82,172.5058,250.94,173.4246,241.06,172.8855,231.18,172.6268,221.3,172.9965,211.42,172.7791,201.54,172.981,191.66,173.3492,181.78,172.5293,171.9,173.7072,162.02,172.7376,152.14,173.5092,142.26,173.6472,132.38,173.5893,122.5,172.9727,122.9186,172.9727,122.8286,162.7031,122.0203,152.4336,122.3839,142.1641,122.3082,131.8945,122.1211,121.625,122.8755,111.3555,123.2039,101.0859,122.8772,90.8164,122.3526,80.5469,122.3611,70.2773,121.7823,60.0078,122.2656,49.7383,123.1803,39.4688,122.5,29.1992" style="stroke: #A80036; stroke-width: 1.5;"/><text fill="#000000" font-family="sans-serif" font-size="12" lengthAdjust="spacingAndGlyphs" textLength="113" x="189.5" y="45.8008">Api\UsersController</text><path d="M123.5,53.332 L123.5,53.6239 L133.3,52.9807 L143.1,52.6298 L152.9,53.1286 L162.7,54.1663 L172.5,54.1097 L182.3,53.3203 L192.1,52.6824 L201.9,52.5516 L211.7,52.6359 L221.5,52.4636 L231.3,53.7711 L241.1,53.8533 L250.9,52.6085 L260.7,54.3001 L270.5,52.4905 L280.3,53.5083 L290.1,52.7574 L299.9,52.8166 L309.7,54.0829 L319.5,53.6772 L329.3,52.5477 L339.1,53.2995 L348.9,52.8951 L358.7,54.1913 L368.5,53.332 " fill="#FEFECE" style="stroke: #A80036; stroke-width: 1.5;"/><text fill="#000000" font-family="sans-serif" font-size="11" lengthAdjust="spacingAndGlyphs" textLength="151" x="128.5" y="67.9668">+AuthenticationComponent</text><path d="M123.5,74.2871 L123.5,73.9884 L133.3,74.9564 L143.1,74.1521 L152.9,74.1687 L162.7,75.2837 L172.5,73.9878 L182.3,73.7995 L192.1,74.7159 L201.9,74.7255 L211.7,74.4167 L221.5,73.577 L231.3,73.4015 L241.1,74.7444 L250.9,74.6055 L260.7,73.5926 L270.5,75.1517 L280.3,75.0923 L290.1,75.0599 L299.9,74.3193 L309.7,74.2343 L319.5,74.3933 L329.3,73.4894 L339.1,73.7932 L348.9,73.7077 L358.7,74.9898 L368.5,74.2871 " fill="#FEFECE" style="stroke: #A80036; stroke-width: 1.5;"/><text fill="#000000" font-family="sans-serif" font-size="11" lengthAdjust="spacingAndGlyphs" textLength="99" x="128.5" y="88.9219">+ログイン：login()</text><text fill="#000000" font-family="sans-serif" font-size="11" lengthAdjust="spacingAndGlyphs" textLength="235" x="128.5" y="101.877">+リフレッシュトークン取得：refresh_token()</text><text fill="#000000" font-family="sans-serif" font-size="11" lengthAdjust="spacingAndGlyphs" textLength="168" x="128.5" y="114.832">+ユーザー情報一覧取得：index()</text><text fill="#000000" font-family="sans-serif" font-size="11" lengthAdjust="spacingAndGlyphs" textLength="161" x="128.5" y="127.7871">+単一ユーザー情報取得：view()</text><text fill="#000000" font-family="sans-serif" font-size="11" lengthAdjust="spacingAndGlyphs" textLength="136" x="128.5" y="140.7422">+ユーザー情報登録：add()</text><text fill="#000000" font-family="sans-serif" font-size="11" lengthAdjust="spacingAndGlyphs" textLength="136" x="128.5" y="153.6973">+ユーザー情報編集：edit()</text><text fill="#000000" font-family="sans-serif" font-size="11" lengthAdjust="spacingAndGlyphs" textLength="148" x="128.5" y="166.6523">+ユーザー情報削除：delete()</text><!--class UserService--><polygon fill="#FEFECE" filter="url(#f8b95df)" points="205.5,259.1992,205.5,259.2802,215.625,259.0414,225.75,259.255,235.875,259.5468,246,259.211,256.125,258.5189,266.25,259.2544,276.375,258.898,286.5,259.1992,286.8479,259.1992,287.1945,269.8168,286.3939,280.4344,286.1975,291.052,286.5236,301.6695,286.5,312.2871,286.5,312.5206,276.375,311.8127,266.25,311.6562,256.125,312.3311,246,311.8663,235.875,312.5606,225.75,312.6135,215.625,312.4843,205.5,312.2871,204.8882,312.2871,205.161,301.6695,205.5137,291.052,205.6481,280.4344,205.9723,269.8168,205.5,259.1992" style="stroke: #A80036; stroke-width: 1.5;"/><text fill="#000000" font-family="sans-serif" font-size="12" lengthAdjust="spacingAndGlyphs" textLength="66" x="213" y="275.8008">UserService</text><path d="M206.5,283.332 L206.5,283.5289 L216.375,284.2828 L226.25,283.7528 L236.125,283.4782 L246,282.7224 L255.875,283.8501 L265.75,282.7011 L275.625,284.022 L285.5,283.332 " fill="#FEFECE" style="stroke: #A80036; stroke-width: 1.5;"/><text fill="#000000" font-family="sans-serif" font-size="11" lengthAdjust="spacingAndGlyphs" textLength="69" x="211.5" y="297.9668">+UsersTable</text><path d="M206.5,304.2871 L206.5,304.5763 L216.375,304.0769 L226.25,304.5048 L236.125,305.0442 L246,304.9015 L255.875,305.0392 L265.75,304.8023 L275.625,305.198 L285.5,304.2871 " fill="#FEFECE" style="stroke: #A80036; stroke-width: 1.5;"/><!--class UserServiceInterface--><polygon fill="#FEFECE" filter="url(#f8b95df)" points="6,233.1992,6,232.6717,16.25,232.7812,26.5,233.2339,36.75,233.171,47,232.665,57.25,233.7669,67.5,232.635,77.75,233.7477,88,233.0003,98.25,233.6014,108.5,232.8641,118.75,233.8404,129,232.5363,139.25,232.5836,149.5,233.4127,159.75,232.6978,170,233.1992,170.3895,233.1992,170.2526,243.69,170.0986,254.1809,170.303,264.6717,169.2628,275.1625,170.1941,285.6533,170.6605,296.1441,170.7386,306.635,169.2872,317.1258,170.0355,327.6166,170,338.1074,170,338.7499,159.75,338.1891,149.5,338.765,139.25,338.4544,129,337.7508,118.75,338.7681,108.5,337.7237,98.25,338.8468,88,338.7736,77.75,337.3882,67.5,338.7744,57.25,337.8112,47,337.8642,36.75,337.8266,26.5,337.6452,16.25,337.5315,6,338.1074,6.6465,338.1074,6.1746,327.6166,5.5306,317.1258,6.5925,306.635,5.8625,296.1441,6.1006,285.6533,6.2127,275.1625,5.8693,264.6717,5.4701,254.1809,6.6571,243.69,6,233.1992" style="stroke: #A80036; stroke-width: 1.5;"/><text fill="#000000" font-family="sans-serif" font-size="12" lengthAdjust="spacingAndGlyphs" textLength="116" x="30" y="249.8008">UserServiceInterface</text><path d="M7,257.332 L7,256.8052 L17.125,256.3458 L27.25,257.9229 L37.375,257.4577 L47.5,256.8216 L57.625,256.4373 L67.75,256.852 L77.875,257.6229 L88,257.9565 L98.125,257.0924 L108.25,256.6346 L118.375,258.2626 L128.5,256.9311 L138.625,256.6023 L148.75,257.5333 L158.875,256.4559 L169,257.332 " fill="#FEFECE" style="stroke: #A80036; stroke-width: 1.5;"/><path d="M7,265.332 L7,265.5423 L17.125,265.7601 L27.25,264.882 L37.375,266.1535 L47.5,265.3167 L57.625,266.088 L67.75,265.2356 L77.875,266.0718 L88,265.6115 L98.125,266.2543 L108.25,264.5989 L118.375,265.9111 L128.5,265.1911 L138.625,264.8357 L148.75,265.1236 L158.875,264.5968 L169,265.332 " fill="#FEFECE" style="stroke: #A80036; stroke-width: 1.5;"/><text fill="#000000" font-family="sans-serif" font-size="11" lengthAdjust="spacingAndGlyphs" textLength="83" x="12" y="279.9668">+作成：create()</text><text fill="#000000" font-family="sans-serif" font-size="11" lengthAdjust="spacingAndGlyphs" textLength="87" x="12" y="292.9219">+編集：update()</text><text fill="#000000" font-family="sans-serif" font-size="11" lengthAdjust="spacingAndGlyphs" textLength="122" x="12" y="305.877">+単一データ取得：get()</text><text fill="#000000" font-family="sans-serif" font-size="11" lengthAdjust="spacingAndGlyphs" textLength="152" x="12" y="318.832">+一覧データ取得：getIndex()</text><text fill="#000000" font-family="sans-serif" font-size="11" lengthAdjust="spacingAndGlyphs" textLength="144" x="12" y="331.7871">+初期データ取得：getNew()</text><!--class UsersTable--><polygon fill="#FEFECE" filter="url(#f8b95df)" points="210.5,398.1992,210.5,398.0055,220.6429,397.6376,230.7857,398.1573,240.9286,398.5772,251.0714,398.2543,261.2143,397.9852,271.3571,398.161,281.5,398.1992,281.5609,398.1992,281.483,406.2258,281.3646,414.2523,281.3266,422.2789,281.3961,430.3055,281.5,438.332,281.5,438.5552,271.3571,438.461,261.2143,438.598,251.0714,437.8609,240.9286,439.0409,230.7857,438.8808,220.6429,437.7455,210.5,438.332,210.2581,438.332,210.4329,430.3055,210.4295,422.2789,210.2584,414.2523,210.5657,406.2258,210.5,398.1992" style="stroke: #A80036; stroke-width: 1.5;"/><text fill="#000000" font-family="sans-serif" font-size="12" lengthAdjust="spacingAndGlyphs" textLength="65" x="213.5" y="414.8008">UsersTable</text><path d="M211.5,422.332 L211.5,421.9672 L221.3571,422.3515 L231.2143,422.4181 L241.0714,422.2302 L250.9286,423.3286 L260.7857,423.3041 L270.6429,421.7431 L280.5,422.332 " fill="#FEFECE" style="stroke: #A80036; stroke-width: 1.5;"/><path d="M211.5,430.332 L211.5,430.0431 L221.3571,430.0154 L231.2143,430.3279 L241.0714,430.8758 L250.9286,430.3048 L260.7857,430.6833 L270.6429,431.2057 L280.5,430.332 " fill="#FEFECE" style="stroke: #A80036; stroke-width: 1.5;"/><!--class User--><polygon fill="#FEFECE" filter="url(#f8b95df)" points="171.5,498.1992,171.5,498.4906,181.4333,498.5106,191.3667,497.9211,201.3,497.9787,211.2333,498.7077,221.1667,498.719,231.1,498.8644,241.0333,498.3043,250.9667,498.3253,260.9,498.6605,270.8333,498.3967,280.7667,498.7464,290.7,498.6339,300.6333,498.3919,310.5667,498.8332,320.5,498.1992,319.9157,498.1992,320.7612,508.4688,320.2095,518.7383,320.7122,529.0078,319.8994,539.2773,320.1176,549.5469,320.9952,559.8164,321.0319,570.0859,320.3782,580.3555,320.7341,590.625,320.2225,600.8945,320.9545,611.1641,320.1306,621.4336,320.7359,631.7031,320.5,641.9727,320.5,641.8739,310.5667,642.1341,300.6333,642.4923,290.7,641.5495,280.7667,641.9498,270.8333,641.4051,260.9,641.2528,250.9667,641.8066,241.0333,641.8453,231.1,641.9244,221.1667,641.5502,211.2333,642.0748,201.3,642.675,191.3667,642.0684,181.4333,642.5514,171.5,641.9727,171.4996,641.9727,171.9118,631.7031,171.1837,621.4336,171.8559,611.1641,171.7128,600.8945,171.8632,590.625,172.0978,580.3555,171.5427,570.0859,172.06,559.8164,171.4382,549.5469,171.99,539.2773,171.2772,529.0078,170.7533,518.7383,171.5326,508.4688,171.5,498.1992" style="stroke: #A80036; stroke-width: 1.5;"/><text fill="#000000" font-family="sans-serif" font-size="12" lengthAdjust="spacingAndGlyphs" textLength="26" x="233" y="514.8008">User</text><path d="M172.5,522.332 L172.5,521.6639 L182.3,521.7901 L192.1,521.496 L201.9,522.8632 L211.7,522.9875 L221.5,523.0925 L231.3,521.7233 L241.1,521.8282 L250.9,522.7754 L260.7,523.272 L270.5,521.5609 L280.3,522.5206 L290.1,521.7401 L299.9,523.2092 L309.7,521.4843 L319.5,522.332 " fill="#FEFECE" style="stroke: #A80036; stroke-width: 1.5;"/><text fill="#000000" font-family="sans-serif" font-size="11" lengthAdjust="spacingAndGlyphs" textLength="115" x="177.5" y="536.9668">+アカウント名：name</text><text fill="#000000" font-family="sans-serif" font-size="11" lengthAdjust="spacingAndGlyphs" textLength="127" x="177.5" y="549.9219">+パスワード：password</text><text fill="#000000" font-family="sans-serif" font-size="11" lengthAdjust="spacingAndGlyphs" textLength="99" x="177.5" y="562.877">+性：real_name_1</text><text fill="#000000" font-family="sans-serif" font-size="11" lengthAdjust="spacingAndGlyphs" textLength="99" x="177.5" y="575.832">+名：real_name_2</text><text fill="#000000" font-family="sans-serif" font-size="11" lengthAdjust="spacingAndGlyphs" textLength="125" x="177.5" y="588.7871">+メールアドレス：email</text><text fill="#000000" font-family="sans-serif" font-size="11" lengthAdjust="spacingAndGlyphs" textLength="137" x="177.5" y="601.7422">+ニックネーム：nickname</text><text fill="#000000" font-family="sans-serif" font-size="11" lengthAdjust="spacingAndGlyphs" textLength="93" x="177.5" y="614.6973">+登録日：created</text><text fill="#000000" font-family="sans-serif" font-size="11" lengthAdjust="spacingAndGlyphs" textLength="100" x="177.5" y="627.6523">+編集日：modified</text><path d="M172.5,633.9727 L172.5,634.7285 L182.3,634.0851 L192.1,634.2442 L201.9,634.6915 L211.7,634.2639 L221.5,633.6942 L231.3,633.8838 L241.1,633.6893 L250.9,634.8866 L260.7,633.6498 L270.5,633.9403 L280.3,634.9351 L290.1,633.8252 L299.9,633.982 L309.7,633.6288 L319.5,633.9727 " fill="#FEFECE" style="stroke: #A80036; stroke-width: 1.5;"/><!--class Adpi\UsersController--><polygon fill="#FEFECE" filter="url(#f8b95df)" points="388.5,265.6992,388.5,265.5657,398.2692,265.2604,408.0385,265.5245,417.8077,266.1564,427.5769,265.8079,437.3462,265.9453,447.1154,265.7105,456.8846,265.7046,466.6538,265.0296,476.4231,265.1132,486.1923,265.6867,495.9615,265.6076,505.7308,266.032,515.5,265.6992,515.4942,265.6992,515.5739,273.7258,515.5176,281.7523,515.6836,289.7789,515.3534,297.8055,515.5,305.832,515.5,305.6238,505.7308,305.9327,495.9615,306.4077,486.1923,305.8057,476.4231,305.5395,466.6538,305.6832,456.8846,305.5041,447.1154,306.0116,437.3462,305.1136,427.5769,306.4992,417.8077,306.11,408.0385,305.7752,398.2692,305.7287,388.5,305.832,388.3154,305.832,388.4743,297.8055,388.7457,289.7789,388.4923,281.7523,388.498,273.7258,388.5,265.6992" style="stroke: #A80036; stroke-width: 1.5;"/><text fill="#000000" font-family="sans-serif" font-size="12" lengthAdjust="spacingAndGlyphs" textLength="121" x="391.5" y="282.3008">Adpi\UsersController</text><path d="M389.5,289.832 L389.5,289.9495 L399.1154,290.0054 L408.7308,289.5793 L418.3462,289.9039 L427.9615,290.1698 L437.5769,290.5356 L447.1923,289.9771 L456.8077,290.7049 L466.4231,289.503 L476.0385,289.1477 L485.6538,289.5796 L495.2692,288.9906 L504.8846,290.5809 L514.5,289.832 " fill="#FEFECE" style="stroke: #A80036; stroke-width: 1.5;"/><path d="M389.5,297.832 L389.5,297.0868 L399.1154,298.042 L408.7308,298.516 L418.3462,298.2087 L427.9615,297.2546 L437.5769,298.4606 L447.1923,298.2013 L456.8077,297.7091 L466.4231,297.3907 L476.0385,297.6548 L485.6538,297.4982 L495.2692,296.9493 L504.8846,298.3465 L514.5,297.832 " fill="#FEFECE" style="stroke: #A80036; stroke-width: 1.5;"/><!--class BcApiController--><polygon fill="#FEFECE" filter="url(#f8b95df)" points="405,81.1992,405,80.5114,415.4444,80.4868,425.8889,80.9268,436.3333,80.8958,446.7778,81.736,457.2222,80.8851,467.6667,81.1327,478.1111,80.8619,488.5556,80.9519,499,81.1992,499.0417,81.1992,498.8972,89.2258,499.0174,97.2523,499.1705,105.2789,499.1359,113.3055,499,121.332,499,120.9774,488.5556,121.8082,478.1111,121.1082,467.6667,121.3758,457.2222,121.8083,446.7778,120.7424,436.3333,121.2532,425.8889,120.651,415.4444,121.9994,405,121.332,405.1646,121.332,404.8045,113.3055,404.8516,105.2789,405.1133,97.2523,404.9221,89.2258,405,81.1992" style="stroke: #A80036; stroke-width: 1.5;"/><text fill="#000000" font-family="sans-serif" font-size="12" lengthAdjust="spacingAndGlyphs" textLength="88" x="408" y="97.8008">BcApiController</text><path d="M406,105.332 L406,105.788 L416.2222,105.1614 L426.4444,104.8813 L436.6667,105.4066 L446.8889,105.0411 L457.1111,105.841 L467.3333,106.0265 L477.5556,105.3756 L487.7778,104.9049 L498,105.332 " fill="#FEFECE" style="stroke: #A80036; stroke-width: 1.5;"/><path d="M406,113.332 L406,113.8075 L416.2222,113.3195 L426.4444,113.3642 L436.6667,114.0553 L446.8889,112.7748 L457.1111,112.799 L467.3333,114.0292 L477.5556,113.5949 L487.7778,112.9931 L498,113.332 " fill="#FEFECE" style="stroke: #A80036; stroke-width: 1.5;"/><path d="M246,173.2792 L246.0358,173.2792 L246.5693,183.3655 L245.0151,193.4517 L245.2005,203.538 L246.1305,213.6242 L245.8974,223.7105 L246.9819,233.7967 L246.3041,243.883 L246,253.9692 " fill="none" style="stroke: #000000; stroke-width: 1.0;"/><polygon fill="#000000" points="246,259.0992,245.8118,259.0156,246.8185,257.3074,247.6869,255.5378,248.2603,253.6371,249.411,251.993,250,250.0992,250.1104,250.2096,249.0369,250.7362,248.5594,251.8586,247.6001,252.4993,246.7597,253.2589,246,254.0992,245.9692,254.0684,245.1244,253.2236,244.3022,252.4014,243.7584,251.8576,242.8819,250.9811,242,250.0992,242.1314,250.1576,242.7088,251.8587,243.6697,253.7302,244.2225,255.4203,245.3951,257.3859,246,259.0992" style="stroke: #000000; stroke-width: 1.0;"/><path d="M452,141.4392 L451.5295,141.4392 L451.436,151.7776 L451.4138,162.1159 L451.2006,172.4542 L451.1636,182.7926 L451.3553,193.1309 L451.0959,203.4692 L451.7699,213.8076 L451.4949,224.1459 L452.1691,234.4842 L451.8791,244.8226 L451.4688,255.1609 L452,265.4992 " fill="none" style="stroke: #000000; stroke-width: 1.0;"/><polygon fill="none" points="445,141.3892,444.8919,141.3514,446.4669,137.4126,447.9617,133.4458,449.2212,129.3966,450.6844,125.4187,452,121.3892,452.1176,121.4304,453.215,125.3245,454.6113,129.3232,456.2189,133.3959,457.5143,137.3592,459,141.3892,459,141.3756,456.2,141.2919,453.4,141.3813,450.6,141.3472,447.8,141.573,445,141.3892" style="stroke: #000000; stroke-width: 1.0;"/><path d="M190.21,285.6992 L190.21,285.6187 L193.242,285.52 L196.274,285.9285 L199.306,285.9055 L202.338,285.8739 L205.37,285.6992 " fill="none" style="stroke: #000000; stroke-width: 1.0; stroke-dasharray: 1.0,3.0;"/><polygon fill="none" points="190.09,292.6992,190.1424,292.8488,186.116,291.3736,182.1696,290.1265,178.0814,288.4745,174.1609,287.3017,170.09,285.6992,170.0675,285.635,174.0101,284.071,178.0443,282.7686,182.0268,281.3187,186.0267,279.9182,190.09,278.6992,189.844,278.6992,190.0561,281.4992,189.8757,284.2992,189.9191,287.0992,190.2839,289.8992,190.09,292.6992" style="stroke: #000000; stroke-width: 1.0;"/><path d="M246,312.4792 L246.6995,312.4792 L246.3632,322.4892 L246.0388,332.4992 L246.9848,342.5092 L246.1374,352.5192 L245.4587,362.5292 L246.2071,372.5392 L246.8916,382.5492 L246,392.5592 " fill="none" style="stroke: #000000; stroke-width: 1.0;"/><polygon fill="#000000" points="246,397.8392,245.9825,397.8314,246.9152,396.0904,247.7089,394.2876,248.3383,392.4118,249.3281,390.6962,250,388.8392,249.9823,388.8216,249.0505,389.4898,248.5324,390.5716,247.7079,391.3471,246.9393,392.1785,246,392.8392,245.9562,392.7955,245.1972,392.0365,244.2743,391.1135,243.7034,390.5426,242.6791,389.5183,242,388.8392,242.0519,388.8623,242.7188,390.6031,243.4468,392.3711,244.4499,394.2614,245.2373,396.0558,246,397.8392" style="stroke: #000000; stroke-width: 1.0;"/><path d="M246,438.4992 L246.3274,438.4992 L246.8951,449.3712 L245.4575,460.2432 L245.3742,471.1152 L245.4349,481.9872 L246,492.8592 " fill="none" style="stroke: #000000; stroke-width: 1.0;"/><polygon fill="#000000" points="246,497.9992,245.9281,497.9672,246.9209,496.253,247.5492,494.3766,248.4059,492.6018,249.2355,490.815,250,488.9992,249.943,488.9422,249.0543,489.6536,248.3515,490.5507,247.5023,491.3015,246.9298,492.329,246,492.9992,246.1504,493.1496,245.2622,492.2614,244.4924,491.4916,243.7513,490.7505,242.9053,489.9045,242,488.9992,241.9245,488.9657,242.9138,490.8498,243.4313,492.5243,244.2261,494.3219,245.2657,496.2284,246,497.9992" style="stroke: #000000; stroke-width: 1.0;"/></g></svg>