<?xml version="1.0" encoding="UTF-8" standalone="no"?><svg xmlns="http://www.w3.org/2000/svg" xmlns:xlink="http://www.w3.org/1999/xlink" contentScriptType="application/ecmascript" contentStyleType="text/css" height="455px" preserveAspectRatio="none" style="width:304px;height:455px;" version="1.1" viewBox="0 0 304 455" width="304px" zoomAndPan="magnify"><defs><filter height="300%" id="f3lsmib" width="300%" x="-1" y="-1"><feGaussianBlur result="blurOut" stdDeviation="2.0"/><feColorMatrix in="blurOut" result="blurOut2" type="matrix" values="0 0 0 0 0 0 0 0 0 0 0 0 0 0 0 0 0 0 .4 0"/><feOffset dx="4.0" dy="4.0" in="blurOut2" result="blurOut3"/><feBlend in="SourceGraphic" in2="blurOut3" mode="normal"/></filter></defs><g><text fill="#000000" font-family="sans-serif" font-size="18" lengthAdjust="spacingAndGlyphs" textLength="153" x="80" y="17.4023">ユーティリティAPI</text><!--class Api\UtilitiesController--><polygon fill="#FEFECE" filter="url(#f3lsmib)" points="6,129.1992,6,129.8767,15.9655,129.9269,25.931,129.9461,35.8966,128.4811,45.8621,129.8163,55.8276,129.6432,65.7931,128.97,75.7586,128.8057,85.7241,128.8236,95.6897,129.6633,105.6552,129.6205,115.6207,129.5069,125.5862,128.7848,135.5517,128.5683,145.5172,129.3766,155.4828,129.266,165.4483,129.2225,175.4138,129.5493,185.3793,128.8056,195.3448,128.4796,205.3103,128.7074,215.2759,129.1773,225.2414,128.4992,235.2069,129.3564,245.1724,129.7939,255.1379,128.6425,265.1034,128.8415,275.069,129.3587,285.0345,128.6073,295,129.1992,294.8713,129.1992,295.6035,139.2622,294.4219,149.3251,294.3821,159.3881,294.3937,169.451,294.9114,179.514,295.193,189.5769,295.7158,199.6399,295.0309,209.7028,294.5664,219.7658,294.3354,229.8287,294.3992,239.8917,295.6701,249.9546,295,260.0176,295,260.2454,285.0345,260.5065,275.069,260.1478,265.1034,260.4778,255.1379,260.0384,245.1724,260.1668,235.2069,260.6514,225.2414,259.8425,215.2759,260.2993,205.3103,260.156,195.3448,259.7908,185.3793,260.5085,175.4138,260.7028,165.4483,260.2656,155.4828,260.455,145.5172,259.4814,135.5517,260.0907,125.5862,259.7324,115.6207,259.493,105.6552,260.2547,95.6897,260.6547,85.7241,259.6698,75.7586,259.965,65.7931,260.2277,55.8276,260.4065,45.8621,260.6117,35.8966,260.1727,25.931,259.3178,15.9655,260.1086,6,260.0176,5.9257,260.0176,6.3205,249.9546,6.582,239.8917,6.507,229.8287,5.6705,219.7658,6.3802,209.7028,6.4522,199.6399,5.4794,189.5769,5.8723,179.514,6.6755,169.451,6.3207,159.3881,6.4327,149.3251,5.663,139.2622,6,129.1992" style="stroke: #A80036; stroke-width: 1.5;"/><text fill="#000000" font-family="sans-serif" font-size="12" lengthAdjust="spacingAndGlyphs" textLength="122" x="89.5" y="145.8008">Api\UtilitiesController</text><path d="M7,153.332 L7,152.4299 L16.8966,153.5344 L26.7931,152.6035 L36.6897,152.7105 L46.5862,153.6938 L56.4828,152.4499 L66.3793,152.7992 L76.2759,152.4474 L86.1724,152.6004 L96.069,153.16 L105.9655,152.7311 L115.8621,154.16 L125.7586,152.7613 L135.6552,154.0996 L145.5517,153.4594 L155.4483,152.7773 L165.3448,153.8758 L175.2414,153.1145 L185.1379,153.8468 L195.0345,153.5177 L204.931,153.9604 L214.8276,154.2433 L224.7241,152.7718 L234.6207,152.5878 L244.5172,154.2414 L254.4138,152.553 L264.3103,153.8584 L274.2069,154.124 L284.1034,152.7735 L294,153.332 " fill="#FEFECE" style="stroke: #A80036; stroke-width: 1.5;"/><path d="M7,161.332 L7,161.4295 L16.8966,162.3002 L26.7931,162.3143 L36.6897,160.3606 L46.5862,160.6571 L56.4828,161.5885 L66.3793,161.0434 L76.2759,160.8053 L86.1724,161.9959 L96.069,162.1235 L105.9655,162.2446 L115.8621,160.9046 L125.7586,161.7762 L135.6552,161.7953 L145.5517,160.4212 L155.4483,161.9319 L165.3448,161.2768 L175.2414,160.6672 L185.1379,160.5191 L195.0345,161.6127 L204.931,161.3399 L214.8276,161.8744 L224.7241,161.4835 L234.6207,161.8006 L244.5172,161.7974 L254.4138,160.7736 L264.3103,160.4267 L274.2069,162.1983 L284.1034,160.8466 L294,161.332 " fill="#FEFECE" style="stroke: #A80036; stroke-width: 1.5;"/><text fill="#000000" font-family="sans-serif" font-size="11" lengthAdjust="spacingAndGlyphs" textLength="245" x="12" y="175.9668">+サーバーキャッシュを削除する：clear_cache()</text><text fill="#000000" font-family="sans-serif" font-size="11" lengthAdjust="spacingAndGlyphs" textLength="237" x="12" y="188.9219">+ツリー構造チェック：verity_contents_tree()</text><text fill="#000000" font-family="sans-serif" font-size="11" lengthAdjust="spacingAndGlyphs" textLength="228" x="12" y="201.877">+ツリー構造リセット：reset_content_tree()</text><text fill="#000000" font-family="sans-serif" font-size="11" lengthAdjust="spacingAndGlyphs" textLength="277" x="12" y="214.832">+バックアップダウンロード：download_backup_db()</text><text fill="#000000" font-family="sans-serif" font-size="11" lengthAdjust="spacingAndGlyphs" textLength="219" x="12" y="227.7871">+バックアップよりレストア：restore_db()</text><text fill="#000000" font-family="sans-serif" font-size="11" lengthAdjust="spacingAndGlyphs" textLength="273" x="12" y="240.7422">+ログファイルのZIPファイルを作成：download_log()</text><text fill="#000000" font-family="sans-serif" font-size="11" lengthAdjust="spacingAndGlyphs" textLength="182" x="12" y="253.6973">+ログファイルを削除：delete_log()</text><!--class UtilitiesService--><polygon fill="#FEFECE" filter="url(#f3lsmib)" points="107,320.1992,107,320.8753,116.6667,319.4718,126.3333,319.6105,136,319.5809,145.6667,320.5155,155.3333,320.6459,165,319.7392,174.6667,320.4998,184.3333,320.5735,194,320.1992,193.7728,320.1992,194.1912,328.2258,193.8201,336.2523,193.8324,344.2789,194.1252,352.3055,194,360.332,194,359.7272,184.3333,360.4036,174.6667,360.7383,165,360.2918,155.3333,360.0233,145.6667,360.1226,136,360.4851,126.3333,359.7592,116.6667,359.6444,107,360.332,106.7663,360.332,107.2073,352.3055,107.2073,344.2789,106.8182,336.2523,107.2145,328.2258,107,320.1992" style="stroke: #A80036; stroke-width: 1.5;"/><text fill="#000000" font-family="sans-serif" font-size="12" lengthAdjust="spacingAndGlyphs" textLength="81" x="110" y="336.8008">UtilitiesService</text><path d="M108,344.332 L108,343.849 L117.4444,343.9556 L126.8889,345.0912 L136.3333,343.4852 L145.7778,345.0734 L155.2222,343.8437 L164.6667,345.1147 L174.1111,344.7514 L183.5556,343.9036 L193,344.332 " fill="#FEFECE" style="stroke: #A80036; stroke-width: 1.5;"/><path d="M108,352.332 L108,352.9375 L117.4444,351.5626 L126.8889,351.3514 L136.3333,352.6924 L145.7778,351.7777 L155.2222,352.1051 L164.6667,351.5897 L174.1111,351.4266 L183.5556,352.678 L193,352.332 " fill="#FEFECE" style="stroke: #A80036; stroke-width: 1.5;"/><!--class BcApiController--><polygon fill="#FEFECE" filter="url(#f3lsmib)" points="103.5,29.1992,103.5,28.6423,113.9444,29.1862,124.3889,29.7362,134.8333,28.6781,145.2778,29.0668,155.7222,29.1834,166.1667,29.0196,176.6111,29.6757,187.0556,29.5476,197.5,29.1992,197.2683,29.1992,197.4128,37.2258,197.6526,45.2523,197.4898,53.2789,197.7487,61.3055,197.5,69.332,197.5,70.0031,187.0556,69.3539,176.6111,68.7613,166.1667,69.0311,155.7222,68.8045,145.2778,69.7938,134.8333,69.5796,124.3889,69.3717,113.9444,69.4024,103.5,69.332,103.663,69.332,103.2571,61.3055,103.2569,53.2789,103.6622,45.2523,103.2836,37.2258,103.5,29.1992" style="stroke: #A80036; stroke-width: 1.5;"/><text fill="#000000" font-family="sans-serif" font-size="12" lengthAdjust="spacingAndGlyphs" textLength="88" x="106.5" y="45.8008">BcApiController</text><path d="M104.5,53.332 L104.5,52.7396 L114.7222,54.1324 L124.9444,52.3396 L135.1667,52.4252 L145.3889,53.4902 L155.6111,52.8282 L165.8333,53.573 L176.0556,52.8219 L186.2778,52.9079 L196.5,53.332 " fill="#FEFECE" style="stroke: #A80036; stroke-width: 1.5;"/><path d="M104.5,61.332 L104.5,60.7673 L114.7222,60.3565 L124.9444,60.6599 L135.1667,61.1164 L145.3889,61.0749 L155.6111,60.7353 L165.8333,60.5947 L176.0556,60.8086 L186.2778,61.3322 L196.5,61.332 " fill="#FEFECE" style="stroke: #A80036; stroke-width: 1.5;"/><polygon fill="#FBFB77" filter="url(#f3lsmib)" points="29.5,420.1992,29.2755,420.1992,29.2724,425.2613,29.5247,430.3234,29.6938,435.3855,29.5249,440.4477,29.5,445.5098,29.5,445.5256,39.5833,446.2436,49.6667,445.7896,59.75,445.1233,69.8333,445.9791,79.9167,445.8138,90,444.8151,100.0833,446.1374,110.1667,446.0425,120.25,445.6134,130.3333,445.8924,140.4167,445.9239,150.5,445.7096,160.5833,445.6459,170.6667,445.9871,180.75,445.2375,190.8333,446.171,200.9167,444.7744,211,445.5061,221.0833,445.1638,231.1667,446.0602,241.25,445.3193,251.3333,446.0134,261.4167,445.9339,271.5,445.5098,271.3602,445.5098,271.6843,442.4477,271.3623,439.3855,271.3419,436.3234,271.4063,433.2613,271.5,430.1992,271.6145,430.3137,269.3656,428.0648,267.4658,426.165,265.517,424.2162,263.4283,422.1275,261.5,420.1992,261.5,420.093,251.413,419.7048,241.3261,420.9456,231.2391,419.7438,221.1522,420.6891,211.0652,420.783,200.9783,420.3376,190.8913,419.9591,180.8043,419.726,170.7174,420.8956,160.6304,420.5522,150.5435,419.9198,140.4565,420.1497,130.3696,419.6603,120.2826,419.4922,110.1957,420.7928,100.1087,420.6577,90.0217,419.7478,79.9348,420.069,69.8478,419.7456,59.7609,419.553,49.6739,419.5764,39.587,419.976,29.5,420.1992" style="stroke: #A80036; stroke-width: 1.0;"/><polygon fill="#FBFB77" points="29.5,420.1992,29.5136,420.1992,29.2752,425.2613,29.3816,430.3234,29.6127,435.3855,29.3957,440.4477,29.5,445.5098,29.5,445.3979,39.5833,445.914,49.6667,446.099,59.75,444.8353,69.8333,446.091,79.9167,444.8632,90,445.9836,100.0833,444.8911,110.1667,445.2492,120.25,445.4536,130.3333,445.3518,140.4167,445.6434,150.5,445.6749,160.5833,445.2909,170.6667,444.8291,180.75,445.8351,190.8333,445.411,200.9167,445.1352,211,445.0809,221.0833,445.5494,231.1667,445.9904,241.25,446.0942,251.3333,446.0401,261.4167,445.9729,271.5,445.5098,271.3497,445.5098,271.4415,442.4477,271.2553,439.3855,271.5194,436.3234,271.5322,433.2613,271.5,430.1992,271.5751,430.2743,269.4692,428.1684,267.5641,426.2633,265.6661,424.3653,263.4515,422.1508,261.5,420.1992,261.5,420.2006,251.7727,420.4146,242.0455,420.4133,232.3182,419.832,222.5909,420.3018,212.8636,420.4533,203.1364,419.7455,193.4091,420.2316,183.6818,420.3815,173.9545,420.8704,164.2273,420.7633,154.5,420.1992,155.239,420.2486,153.4604,410.2059,152.6416,400.2274,152.3424,390.2837,151.9542,380.334,150.7015,370.3264,150.5,360.3892,150.5371,360.3917,150.3594,370.3927,149.8921,380.3744,148.2629,390.2784,147.9358,400.2694,146.7775,410.2049,146.5,420.1992,146.5,420.1172,136.75,420.7994,127,420.3698,117.25,420.0912,107.5,420.0671,97.75,420.5028,88,420.2596,78.25,420.9334,68.5,419.7831,58.75,419.8325,49,419.5397,39.25,419.4904,29.5,420.1992" style="stroke: #A80036; stroke-width: 1.0;"/><path d="M261.5,420.1992 L261.1769,420.1992 L261.7224,422.1992 L261.7065,424.1992 L261.2285,426.1992 L261.31,428.1992 L261.5,430.1992 " fill="#FBFB77" style="stroke: #A80036; stroke-width: 1.0;"/><path d="M271.5,430.1992 L271.5,430.3698 L269.5,430.3305 L267.5,430.1924 L265.5,429.8802 L263.5,430.1167 L261.5,430.1992 " fill="#FBFB77" style="stroke: #A80036; stroke-width: 1.0;"/><text fill="#000000" font-family="sans-serif" font-size="13" lengthAdjust="spacingAndGlyphs" textLength="221" x="35.5" y="437.7676">以下、管理画面ユーティリティと同じ</text><path d="M150.5,260.3092 L150.8031,260.3092 L150.836,271.1972 L150.2637,282.0852 L150.4039,292.9732 L149.6724,303.8612 L150.5,314.7492 " fill="none" style="stroke: #000000; stroke-width: 1.0;"/><polygon fill="#000000" points="150.5,320.0492,150.2798,319.9514,151.5046,318.3402,152.0641,316.4333,152.6746,314.5491,153.5802,312.796,154.5,311.0492,154.5057,311.0549,153.7682,311.9174,153.0117,312.7609,152.0974,313.4466,151.2652,314.2145,150.5,315.0492,150.4454,314.9946,149.6713,314.2205,149.0333,313.5825,147.9702,312.5194,147.3571,311.9063,146.5,311.0492,146.3985,311.0041,147.1537,312.7842,148.2116,314.6988,148.9599,316.4758,149.7346,318.2646,150.5,320.0492" style="stroke: #000000; stroke-width: 1.0;"/><path d="M150.5,89.6592 L150.6182,89.6592 L150.7106,97.5312 L150.1918,105.4032 L150.5753,113.2752 L150.5756,121.1472 L150.5,129.0192 " fill="none" style="stroke: #000000; stroke-width: 1.0;"/><polygon fill="none" points="143.5,89.2592,143.3784,89.2167,145.0849,85.3239,146.0726,81.1796,147.5482,77.2061,149.1073,73.2618,150.5,69.2592,150.6772,69.3212,151.7861,73.2194,153.148,77.206,154.5006,81.1894,155.8953,85.1876,157.5,89.2592,157.5,89.1697,154.7,89.0943,151.9,89.0337,149.1,89.2794,146.3,89.1497,143.5,89.2592" style="stroke: #000000; stroke-width: 1.0;"/></g></svg>