<?xml version="1.0" encoding="UTF-8" standalone="no"?><svg xmlns="http://www.w3.org/2000/svg" xmlns:xlink="http://www.w3.org/1999/xlink" contentScriptType="application/ecmascript" contentStyleType="text/css" height="442px" preserveAspectRatio="none" style="width:452px;height:442px;" version="1.1" viewBox="0 0 452 442" width="452px" zoomAndPan="magnify"><defs><filter height="300%" id="fhuy51l" width="300%" x="-1" y="-1"><feGaussianBlur result="blurOut" stdDeviation="2.0"/><feColorMatrix in="blurOut" result="blurOut2" type="matrix" values="0 0 0 0 0 0 0 0 0 0 0 0 0 0 0 0 0 0 .4 0"/><feOffset dx="4.0" dy="4.0" in="blurOut2" result="blurOut3"/><feBlend in="SourceGraphic" in2="blurOut3" mode="normal"/></filter></defs><g><text fill="#000000" font-family="sans-serif" font-size="18" lengthAdjust="spacingAndGlyphs" textLength="117" x="172" y="17.4023">サイト管理API</text><!--class Api\SitesController--><polygon fill="#FEFECE" filter="url(#fhuy51l)" points="6,129.1992,6,128.7756,15.9318,129.886,25.8636,129.7992,35.7955,129.8769,45.7273,129.1418,55.6591,129.2454,65.5909,129.9024,75.5227,128.5048,85.4545,128.4524,95.3864,128.6468,105.3182,128.5249,115.25,129.1656,125.1818,129.2647,135.1136,128.6907,145.0455,128.4942,154.9773,128.7345,164.9091,128.5623,174.8409,129.5141,184.7727,129.4355,194.7045,128.9329,204.6364,129.0607,214.5682,128.7501,224.5,129.8138,234.4318,129.386,244.3636,129.4002,254.2955,129.9315,264.2273,128.9189,274.1591,129.2276,284.0909,129.7625,294.0227,129.1729,303.9545,128.8191,313.8864,128.495,323.8182,129.3506,333.75,128.9895,343.6818,128.8655,353.6136,128.8048,363.5455,129.5078,373.4773,128.7094,383.4091,128.5888,393.3409,129.3779,403.2727,129.0585,413.2045,128.6143,423.1364,129.294,433.0682,129.3862,443,129.1992,443.503,129.1992,443.5033,139.0212,443.6268,148.8431,443.6271,158.665,442.2992,168.487,442.5997,178.3089,443.6476,188.1309,442.4892,197.9528,443.4391,207.7747,442.9513,217.5967,442.8409,227.4186,443.3748,237.2406,443,247.0625,443,247.1765,433.0682,246.5031,423.1364,247.795,413.2045,247.5005,403.2727,246.9142,393.3409,246.6748,383.4091,246.3608,373.4773,247.1309,363.5455,246.7767,353.6136,247.4237,343.6818,246.772,333.75,247.6699,323.8182,247.2799,313.8864,246.9129,303.9545,247.0155,294.0227,247.6551,284.0909,246.3231,274.1591,247.097,264.2273,246.7131,254.2955,247.6144,244.3636,246.7927,234.4318,247.1055,224.5,247.7586,214.5682,247.7936,204.6364,246.3338,194.7045,246.7004,184.7727,246.3819,174.8409,247.3833,164.9091,247.5703,154.9773,246.561,145.0455,246.9493,135.1136,246.8269,125.1818,246.7862,115.25,247.2636,105.3182,247.7122,95.3864,246.6346,85.4545,246.7755,75.5227,247.0179,65.5909,246.3147,55.6591,247.7967,45.7273,247.2084,35.7955,246.494,25.8636,247.6836,15.9318,246.8889,6,247.0625,6.3948,247.0625,5.8613,237.2406,5.3695,227.4186,6.7283,217.5967,5.316,207.7747,6.0267,197.9528,5.5569,188.1309,5.5266,178.3089,5.4813,168.487,6.2527,158.665,5.569,148.8431,6.6634,139.0212,6,129.1992" style="stroke: #A80036; stroke-width: 1.5;"/><text fill="#000000" font-family="sans-serif" font-size="12" lengthAdjust="spacingAndGlyphs" textLength="107" x="171" y="145.8008">Api\SitesController</text><path d="M7,153.332 L7,153.0829 L16.8864,152.8106 L26.7727,152.6609 L36.6591,154.2584 L46.5455,153.308 L56.4318,152.9108 L66.3182,152.9568 L76.2045,154.2252 L86.0909,153.0525 L95.9773,152.7203 L105.8636,153.8872 L115.75,154.1352 L125.6364,152.7711 L135.5227,153.7016 L145.4091,152.6394 L155.2955,152.4084 L165.1818,153.9492 L175.0682,154.0121 L184.9545,153.5971 L194.8409,153.3242 L204.7273,153.8898 L214.6136,153.4517 L224.5,152.3336 L234.3864,152.6171 L244.2727,153.9067 L254.1591,153.8449 L264.0455,152.5022 L273.9318,154.0421 L283.8182,154.0309 L293.7045,154.1637 L303.5909,154.1619 L313.4773,152.5558 L323.3636,153.4406 L333.25,153.9811 L343.1364,152.4079 L353.0227,153.0028 L362.9091,153.8715 L372.7955,152.561 L382.6818,152.4359 L392.5682,152.8871 L402.4545,153.248 L412.3409,154.041 L422.2273,153.3733 L432.1136,153.9278 L442,153.332 " fill="#FEFECE" style="stroke: #A80036; stroke-width: 1.5;"/><path d="M7,161.332 L7,160.6922 L16.8864,161.7635 L26.7727,160.3475 L36.6591,161.661 L46.5455,161.9296 L56.4318,160.8314 L66.3182,160.3383 L76.2045,161.3467 L86.0909,161.9012 L95.9773,161.4391 L105.8636,160.3741 L115.75,161.8758 L125.6364,161.1266 L135.5227,160.428 L145.4091,160.5857 L155.2955,161.2443 L165.1818,162.0322 L175.0682,160.8616 L184.9545,161.5145 L194.8409,161.4743 L204.7273,161.0648 L214.6136,161.1912 L224.5,160.9056 L234.3864,161.6069 L244.2727,161.9577 L254.1591,160.8041 L264.0455,161.9729 L273.9318,160.5798 L283.8182,160.9978 L293.7045,161.395 L303.5909,160.8288 L313.4773,161.4243 L323.3636,160.5607 L333.25,161.6989 L343.1364,161.4087 L353.0227,162.2772 L362.9091,160.5423 L372.7955,160.649 L382.6818,161.7962 L392.5682,162.2012 L402.4545,160.6056 L412.3409,160.9913 L422.2273,160.3684 L432.1136,160.7434 L442,161.332 " fill="#FEFECE" style="stroke: #A80036; stroke-width: 1.5;"/><text fill="#000000" font-family="sans-serif" font-size="11" lengthAdjust="spacingAndGlyphs" textLength="135" x="12" y="175.9668">+サイト一覧取得：index()</text><text fill="#000000" font-family="sans-serif" font-size="11" lengthAdjust="spacingAndGlyphs" textLength="128" x="12" y="188.9219">+単一サイト取得：view()</text><text fill="#000000" font-family="sans-serif" font-size="11" lengthAdjust="spacingAndGlyphs" textLength="125" x="12" y="201.877">+サイト新規追加：add()</text><text fill="#000000" font-family="sans-serif" font-size="11" lengthAdjust="spacingAndGlyphs" textLength="103" x="12" y="214.832">+サイト編集：edit()</text><text fill="#000000" font-family="sans-serif" font-size="11" lengthAdjust="spacingAndGlyphs" textLength="115" x="12" y="227.7871">+サイト削除：delete()</text><text fill="#000000" font-family="sans-serif" font-size="11" lengthAdjust="spacingAndGlyphs" textLength="425" x="12" y="240.7422">+選択可能なデバイスと言語の一覧を取得する：get_selectable_devices_and_lang()</text><!--class SitesService--><polygon fill="#FEFECE" filter="url(#fhuy51l)" points="188.5,307.1992,188.5,307.2475,198.7857,307.5446,209.0714,307.4249,219.3571,307.3499,229.6429,307.7395,239.9286,307.7893,250.2143,307.7127,260.5,307.1992,260.675,307.1992,260.2755,315.2258,260.5274,323.2523,260.4649,331.2789,260.6169,339.3055,260.5,347.332,260.5,347.4988,250.2143,347.1171,239.9286,346.9224,229.6429,348.0705,219.3571,346.833,209.0714,346.983,198.7857,347.4843,188.5,347.332,188.3011,347.332,188.2628,339.3055,188.6119,331.2789,188.6813,323.2523,188.6417,315.2258,188.5,307.1992" style="stroke: #A80036; stroke-width: 1.5;"/><text fill="#000000" font-family="sans-serif" font-size="12" lengthAdjust="spacingAndGlyphs" textLength="66" x="191.5" y="323.8008">SitesService</text><path d="M189.5,331.332 L189.5,332.0677 L199.5,330.3838 L209.5,331.5236 L219.5,330.5276 L229.5,330.523 L239.5,331.8056 L249.5,330.4966 L259.5,331.332 " fill="#FEFECE" style="stroke: #A80036; stroke-width: 1.5;"/><path d="M189.5,339.332 L189.5,338.7815 L199.5,339.7458 L209.5,339.9351 L219.5,339.1745 L229.5,339.1889 L239.5,340.1733 L249.5,339.8604 L259.5,339.332 " fill="#FEFECE" style="stroke: #A80036; stroke-width: 1.5;"/><!--class BcApiController--><polygon fill="#FEFECE" filter="url(#fhuy51l)" points="177.5,29.1992,177.5,29.8158,187.9444,29.0398,198.3889,28.5493,208.8333,29.7314,219.2778,29.446,229.7222,29.9132,240.1667,29.2566,250.6111,29.6862,261.0556,28.9161,271.5,29.1992,271.5029,29.1992,271.6678,37.2258,271.3684,45.2523,271.7466,53.2789,271.3007,61.3055,271.5,69.332,271.5,70.006,261.0556,69.2773,250.6111,69.5976,240.1667,70.0356,229.7222,69.3332,219.2778,69.9422,208.8333,68.7259,198.3889,69.2179,187.9444,68.9029,177.5,69.332,177.7224,69.332,177.4451,61.3055,177.4155,53.2789,177.4506,45.2523,177.6513,37.2258,177.5,29.1992" style="stroke: #A80036; stroke-width: 1.5;"/><text fill="#000000" font-family="sans-serif" font-size="12" lengthAdjust="spacingAndGlyphs" textLength="88" x="180.5" y="45.8008">BcApiController</text><path d="M178.5,53.332 L178.5,53.8166 L188.7222,54.0311 L198.9444,52.8048 L209.1667,54.2815 L219.3889,54.3195 L229.6111,53.8781 L239.8333,53.6084 L250.0556,54.2486 L260.2778,53.1282 L270.5,53.332 " fill="#FEFECE" style="stroke: #A80036; stroke-width: 1.5;"/><path d="M178.5,61.332 L178.5,61.0918 L188.7222,61.5557 L198.9444,62.1754 L209.1667,60.9183 L219.3889,61.4343 L229.6111,62.1076 L239.8333,61.3416 L250.0556,61.4861 L260.2778,62.2824 L270.5,61.332 " fill="#FEFECE" style="stroke: #A80036; stroke-width: 1.5;"/><polygon fill="#FBFB77" filter="url(#fhuy51l)" points="149,407.1992,149.0771,407.1992,148.8731,412.2613,148.9716,417.3234,149.0192,422.3855,148.8063,427.4477,149,432.5098,149,431.9786,159.0667,433.0569,169.1333,432.5108,179.2,432.4768,189.2667,432.6702,199.3333,433.0037,209.4,432.9151,219.4667,433.137,229.5333,432.4326,239.6,432.2052,249.6667,432.5596,259.7333,432.8902,269.8,433.0471,279.8667,432.2123,289.9333,432.7251,300,432.5098,299.7754,432.5098,299.7685,429.4477,300.0135,426.3855,300.0279,423.3234,300.0043,420.2613,300,417.1992,300.1419,417.3411,297.8484,415.0476,295.8854,413.0846,293.923,411.1222,292.0113,409.2105,290,407.1992,290,407.896,279.9286,407.6739,269.8571,406.5926,259.7857,406.6101,249.7143,406.9365,239.6429,407.1571,229.5714,407.4654,219.5,407.682,209.4286,407.6801,199.3571,407.7697,189.2857,406.7438,179.2143,407.6103,169.1429,407.0065,159.0714,406.9053,149,407.1992" style="stroke: #A80036; stroke-width: 1.0;"/><polygon fill="#FBFB77" points="149,407.1992,149.2464,407.1992,148.7552,412.2613,149.1209,417.3234,149.0752,422.3855,148.9934,427.4477,149,432.5098,149,433.0111,159.0667,433.069,169.1333,432.4443,179.2,432.8061,189.2667,431.9478,199.3333,432.4611,209.4,432.3394,219.4667,432.2531,229.5333,432.9254,239.6,432.4672,249.6667,432.1145,259.7333,433.0641,269.8,432.4086,279.8667,432.7991,289.9333,433.2548,300,432.5098,300.0582,432.5098,300.0002,429.4477,300.1873,426.3855,299.903,423.3234,300.228,420.2613,300,417.1992,300.1562,417.3554,297.849,415.0482,296.0471,413.2463,294.0494,411.2486,292.02,409.2193,290,407.1992,290,406.7456,279.75,407.5485,269.5,406.6739,259.25,407.12,249,406.5234,238.75,406.9961,228.5,407.1992,228.6432,407.2088,227.0984,397.1817,226.6176,387.2258,227.1247,377.336,226.3939,367.3634,224.7016,357.3264,224.5,347.3892,225.1527,347.4329,223.7671,357.3531,222.5845,367.287,223.039,377.3303,221.4561,387.2373,221.6088,397.2605,220.5,407.1992,220.5,407.3886,210.2857,407.9207,200.0714,407.1138,189.8571,407.2467,179.6429,407.7993,169.4286,407.6077,159.2143,407.1538,149,407.1992" style="stroke: #A80036; stroke-width: 1.0;"/><path d="M290,407.1992 L289.9792,407.1992 L289.7775,409.1992 L289.9238,411.1992 L290.0517,413.1992 L290.1011,415.1992 L290,417.1992 " fill="#FBFB77" style="stroke: #A80036; stroke-width: 1.0;"/><path d="M300,417.1992 L300,417.1526 L298,417.2251 L296,417.2463 L294,416.9779 L292,417.4078 L290,417.1992 " fill="#FBFB77" style="stroke: #A80036; stroke-width: 1.0;"/><text fill="#000000" font-family="sans-serif" font-size="13" lengthAdjust="spacingAndGlyphs" textLength="130" x="155" y="424.7676">以下サイト管理と同じ</text><path d="M224.5,247.2992 L224.0755,247.2992 L224.702,258.1952 L223.6455,269.0912 L223.926,279.9872 L224.5522,290.8832 L224.5,301.7792 " fill="none" style="stroke: #000000; stroke-width: 1.0;"/><polygon fill="#000000" points="224.5,307.1292,224.3667,307.07,225.162,305.2679,226.0209,303.4941,227.1037,301.8198,227.6906,299.925,228.5,298.1292,228.4038,298.033,227.5573,298.7865,226.7401,299.5693,226.2165,300.6457,225.2181,301.2474,224.5,302.1292,224.5486,302.1779,223.6535,301.2827,222.7258,300.3551,221.9931,299.6223,221.3611,298.9903,220.5,298.1292,220.4492,298.1066,221.2997,299.9291,222.038,301.7017,222.8563,303.5098,223.7458,305.3496,224.5,307.1292" style="stroke: #000000; stroke-width: 1.0;"/><path d="M224.5,89.2992 L224.5281,89.2992 L224.6358,97.2232 L224.6211,105.1472 L224.7938,113.0712 L224.4739,120.9952 L224.5,128.9192 " fill="none" style="stroke: #000000; stroke-width: 1.0;"/><polygon fill="none" points="217.5,89.2492,217.2897,89.1756,218.7407,85.1935,220.1879,81.21,221.4778,77.1715,223.0515,73.2322,224.5,69.2492,224.274,69.1701,225.979,73.2769,227.5289,77.3293,228.8859,81.3143,230.1211,85.2566,231.5,89.2492,231.5,89.2158,228.7,89.3766,225.9,89.4869,223.1,89.3709,220.3,89.43,217.5,89.2492" style="stroke: #000000; stroke-width: 1.0;"/></g></svg>