<?xml version="1.0" encoding="UTF-8" standalone="no"?><svg xmlns="http://www.w3.org/2000/svg" xmlns:xlink="http://www.w3.org/1999/xlink" contentScriptType="application/ecmascript" contentStyleType="text/css" height="429px" preserveAspectRatio="none" style="width:244px;height:429px;" version="1.1" viewBox="0 0 244 429" width="244px" zoomAndPan="magnify"><defs><filter height="300%" id="fsmar67" width="300%" x="-1" y="-1"><feGaussianBlur result="blurOut" stdDeviation="2.0"/><feColorMatrix in="blurOut" result="blurOut2" type="matrix" values="0 0 0 0 0 0 0 0 0 0 0 0 0 0 0 0 0 0 .4 0"/><feOffset dx="4.0" dy="4.0" in="blurOut2" result="blurOut3"/><feBlend in="SourceGraphic" in2="blurOut3" mode="normal"/></filter></defs><g><text fill="#000000" font-family="sans-serif" font-size="18" lengthAdjust="spacingAndGlyphs" textLength="225" x="14" y="17.4023">コンテンツフォルダ管理API</text><!--class Api\ContentFoldersController--><polygon fill="#FEFECE" filter="url(#fsmar67)" points="24,129.1992,24,129.1339,34.1579,128.6961,44.3158,129.4109,54.4737,128.9333,64.6316,129.9357,74.7895,129.5725,84.9474,128.4668,95.1053,128.6595,105.2632,128.4699,115.4211,129.9201,125.5789,129.1595,135.7368,129.802,145.8947,128.6981,156.0526,129.865,166.2105,129.1801,176.3684,128.5581,186.5263,128.5018,196.6842,129.9274,206.8421,129.5445,217,129.1992,217.3276,129.1992,217.0633,139.69,216.92,150.1809,216.7256,160.6717,216.5626,171.1625,216.6479,181.6533,216.7928,192.1441,217.6219,202.635,217.3068,213.1258,217.3012,223.6166,217,234.1074,217,233.8752,206.8421,234.6935,196.6842,233.5441,186.5263,233.5243,176.3684,233.9082,166.2105,234.7003,156.0526,234.4506,145.8947,233.6902,135.7368,233.8491,125.5789,234.8507,115.4211,233.6152,105.2632,234.2828,95.1053,233.7347,84.9474,234.3833,74.7895,234.4968,64.6316,233.7136,54.4737,234.215,44.3158,234.4648,34.1579,234.531,24,234.1074,24.6087,234.1074,23.7403,223.6166,23.3202,213.1258,23.4507,202.635,23.6909,192.1441,23.5087,181.6533,23.4164,171.1625,24.7305,160.6717,23.5674,150.1809,24.606,139.69,24,129.1992" style="stroke: #A80036; stroke-width: 1.5;"/><text fill="#000000" font-family="sans-serif" font-size="12" lengthAdjust="spacingAndGlyphs" textLength="167" x="37" y="145.8008">Api\ContentFoldersController</text><path d="M25,153.332 L25,152.3479 L35.0526,152.4953 L45.1053,153.3702 L55.1579,153.7409 L65.2105,152.5997 L75.2632,152.6775 L85.3158,153.0688 L95.3684,153.4548 L105.4211,152.4387 L115.4737,153.1531 L125.5263,154.0125 L135.5789,152.8348 L145.6316,152.8524 L155.6842,154.0462 L165.7368,153.0949 L175.7895,154.2529 L185.8421,153.5202 L195.8947,152.3343 L205.9474,153.8327 L216,153.332 " fill="#FEFECE" style="stroke: #A80036; stroke-width: 1.5;"/><path d="M25,161.332 L25,162.3283 L35.0526,161.2823 L45.1053,160.3434 L55.1579,161.2307 L65.2105,160.6781 L75.2632,162.3267 L85.3158,161.3652 L95.3684,162.0657 L105.4211,160.7765 L115.4737,160.879 L125.5263,160.6747 L135.5789,161.4498 L145.6316,160.8022 L155.6842,160.82 L165.7368,161.2878 L175.7895,160.8928 L185.8421,160.8837 L195.8947,161.2299 L205.9474,161.2954 L216,161.332 " fill="#FEFECE" style="stroke: #A80036; stroke-width: 1.5;"/><text fill="#000000" font-family="sans-serif" font-size="11" lengthAdjust="spacingAndGlyphs" textLength="179" x="30" y="175.9668">+コンテンツフォルダ一覧：index()</text><text fill="#000000" font-family="sans-serif" font-size="11" lengthAdjust="spacingAndGlyphs" textLength="172" x="30" y="188.9219">+コンテンツフォルダ取得：view()</text><text fill="#000000" font-family="sans-serif" font-size="11" lengthAdjust="spacingAndGlyphs" textLength="169" x="30" y="201.877">+コンテンツフォルダ追加：add()</text><text fill="#000000" font-family="sans-serif" font-size="11" lengthAdjust="spacingAndGlyphs" textLength="181" x="30" y="214.832">+コンテンツフォルダ削除：delete()</text><text fill="#000000" font-family="sans-serif" font-size="11" lengthAdjust="spacingAndGlyphs" textLength="169" x="30" y="227.7871">+コンテンツフォルダ編集：edit()</text><!--class BcApiController--><polygon fill="#FEFECE" filter="url(#fsmar67)" points="73.5,29.1992,73.5,29.2351,83.9444,29.0367,94.3889,28.4804,104.8333,29.3614,115.2778,29.1075,125.7222,29.7957,136.1667,29.0182,146.6111,28.8283,157.0556,28.5829,167.5,29.1992,167.374,29.1992,167.6533,37.2258,167.2987,45.2523,167.2816,53.2789,167.7224,61.3055,167.5,69.332,167.5,68.9431,157.0556,69.7154,146.6111,69.2858,136.1667,69.7707,125.7222,68.973,115.2778,68.868,104.8333,69.0943,94.3889,69.1585,83.9444,69.0835,73.5,69.332,73.4571,69.332,73.4729,61.3055,73.2518,53.2789,73.7356,45.2523,73.3758,37.2258,73.5,29.1992" style="stroke: #A80036; stroke-width: 1.5;"/><text fill="#000000" font-family="sans-serif" font-size="12" lengthAdjust="spacingAndGlyphs" textLength="88" x="76.5" y="45.8008">BcApiController</text><path d="M74.5,53.332 L74.5,53.1234 L84.7222,52.5995 L94.9444,53.2514 L105.1667,53.2524 L115.3889,54.1173 L125.6111,53.352 L135.8333,53.0809 L146.0556,52.7396 L156.2778,53.8712 L166.5,53.332 " fill="#FEFECE" style="stroke: #A80036; stroke-width: 1.5;"/><path d="M74.5,61.332 L74.5,60.5168 L84.7222,60.3678 L94.9444,61.9798 L105.1667,61.0295 L115.3889,61.361 L125.6111,61.1324 L135.8333,60.3374 L146.0556,61.1963 L156.2778,61.2324 L166.5,61.332 " fill="#FEFECE" style="stroke: #A80036; stroke-width: 1.5;"/><!--class ContentFoldersService--><polygon fill="#FEFECE" filter="url(#fsmar67)" points="54.5,294.1992,54.5,293.8666,64.6538,294.6306,74.8077,293.4698,84.9615,294.8723,95.1154,293.6821,105.2692,294.2586,115.4231,294.2641,125.5769,293.6249,135.7308,294.9371,145.8846,294.4671,156.0385,293.8741,166.1923,294.3094,176.3462,294.5012,186.5,294.1992,186.3154,294.1992,186.7387,302.2258,186.6801,310.2523,186.3933,318.2789,186.565,326.3055,186.5,334.332,186.5,334.6284,176.3462,334.3153,166.1923,334.6873,156.0385,334.3234,145.8846,334.1101,135.7308,334.3181,125.5769,334.3695,115.4231,333.8607,105.2692,334.967,95.1154,333.986,84.9615,334.6934,74.8077,334.8797,64.6538,333.6663,54.5,334.332,54.3442,334.332,54.5309,326.3055,54.3891,318.2789,54.3204,310.2523,54.5944,302.2258,54.5,294.1992" style="stroke: #A80036; stroke-width: 1.5;"/><text fill="#000000" font-family="sans-serif" font-size="12" lengthAdjust="spacingAndGlyphs" textLength="126" x="57.5" y="310.8008">ContentFoldersService</text><path d="M55.5,318.332 L55.5,319.1091 L65.5,318.6399 L75.5,318.3832 L85.5,318.9434 L95.5,318.4952 L105.5,319.0408 L115.5,319.2436 L125.5,318.8324 L135.5,318.9227 L145.5,318.9292 L155.5,318.8529 L165.5,318.8102 L175.5,318.2364 L185.5,318.332 " fill="#FEFECE" style="stroke: #A80036; stroke-width: 1.5;"/><path d="M55.5,326.332 L55.5,325.6911 L65.5,326.7519 L75.5,326.3002 L85.5,327.1321 L95.5,326.7587 L105.5,326.9959 L115.5,326.7505 L125.5,325.8848 L135.5,326.5207 L145.5,326.947 L155.5,326.797 L165.5,325.4199 L175.5,326.3047 L185.5,326.332 " fill="#FEFECE" style="stroke: #A80036; stroke-width: 1.5;"/><polygon fill="#FBFB77" filter="url(#fsmar67)" points="6,394.1992,6.1868,394.1992,6.0195,399.2613,6.0381,404.3234,5.8768,409.3855,5.9661,414.4477,6,419.5098,6,420.0814,15.9565,419.5934,25.913,419.8529,35.8696,419.9649,45.8261,419.9127,55.7826,419.1993,65.7391,418.946,75.6957,419.9215,85.6522,419.1436,95.6087,420.1103,105.5652,419.1012,115.5217,419.9191,125.4783,419.8102,135.4348,419.5646,145.3913,419.1611,155.3478,419.7178,165.3043,419.7323,175.2609,419.8092,185.2174,419.2161,195.1739,418.8939,205.1304,419.0715,215.087,419.9115,225.0435,419.0415,235,419.5098,234.7771,419.5098,234.8424,416.4477,235.0925,413.3855,235.0157,410.3234,234.8039,407.2613,235,404.1992,234.9667,404.1659,233.1231,402.3223,231.095,400.2942,228.9148,398.114,227.0011,396.2003,225,394.1992,225,394.7828,215.0455,393.766,205.0909,393.9543,195.1364,393.4716,185.1818,393.6569,175.2273,393.5686,165.2727,393.7173,155.3182,394.8818,145.3636,393.6533,135.4091,394.5973,125.4545,394.5849,115.5,393.4707,105.5455,394.3229,95.5909,393.5645,85.6364,393.8543,75.6818,393.8903,65.7273,394.4077,55.7727,394.8623,45.8182,393.5954,35.8636,394.8311,25.9091,394.1352,15.9545,394.916,6,394.1992" style="stroke: #A80036; stroke-width: 1.0;"/><polygon fill="#FBFB77" points="6,394.1992,5.9261,394.1992,5.7841,399.2613,5.8809,404.3234,5.9945,409.3855,6.0314,414.4477,6,419.5098,6,419.9405,15.9565,419.0977,25.913,420.0123,35.8696,419.9526,45.8261,419.7801,55.7826,419.8942,65.7391,419.806,75.6957,419.1553,85.6522,419.8858,95.6087,419.7646,105.5652,419.6411,115.5217,419.0424,125.4783,420.005,135.4348,418.8067,145.3913,420.2135,155.3478,419.2707,165.3043,419.8646,175.2609,419.1354,185.2174,419.6868,195.1739,419.2958,205.1304,419.969,215.087,419.1543,225.0435,419.2195,235,419.5098,235.0151,419.5098,235.0706,416.4477,234.929,413.3855,235.0454,410.3234,234.9265,407.2613,235,404.1992,235.1192,404.3184,232.9667,402.1659,230.9579,400.1572,229.0599,398.2591,226.8565,396.0557,225,394.1992,225,394.8102,214.95,393.5999,204.9,394.6239,194.85,394.1589,184.8,394.0649,174.75,394.3208,164.7,394.0254,154.65,394.4034,144.6,394.1203,134.55,394.059,124.5,394.1992,124.6589,394.2098,124.1436,384.2516,122.733,374.2336,122.0372,364.2633,122.517,354.3716,121.7676,344.3977,120.5,334.3892,120.8357,334.4117,119.5085,344.3358,118.8082,354.3019,118.2094,364.2748,117.5076,374.2408,117.3221,384.2413,116.5,394.1992,116.5,393.6318,106.4545,393.6713,96.4091,394.0208,86.3636,394.5872,76.3182,394.572,66.2727,394.2869,56.2273,393.9645,46.1818,393.7839,36.1364,393.8718,26.0909,393.7804,16.0455,393.7884,6,394.1992" style="stroke: #A80036; stroke-width: 1.0;"/><path d="M225,394.1992 L224.8514,394.1992 L224.6985,396.1992 L224.9442,398.1992 L224.9923,400.1992 L224.9664,402.1992 L225,404.1992 " fill="#FBFB77" style="stroke: #A80036; stroke-width: 1.0;"/><path d="M235,404.1992 L235,404.128 L233,404.3941 L231,404.0369 L229,404.2343 L227,404.5122 L225,404.1992 " fill="#FBFB77" style="stroke: #A80036; stroke-width: 1.0;"/><text fill="#000000" font-family="sans-serif" font-size="13" lengthAdjust="spacingAndGlyphs" textLength="208" x="12" y="411.7676">以下コンテンツフォルダ管理と同じ</text><path d="M120.5,89.6392 L120.6545,89.6392 L120.7197,97.4972 L120.7745,105.3552 L120.5107,113.2132 L120.4782,121.0712 L120.5,128.9292 " fill="none" style="stroke: #000000; stroke-width: 1.0;"/><polygon fill="none" points="113.5,89.4592,113.437,89.4372,114.7343,85.4012,116.2225,81.4321,117.4938,77.387,119.0751,73.4505,120.5,69.4592,120.6604,69.5154,122.0293,73.5045,123.1078,77.392,124.6662,81.4474,126.1286,85.4692,127.5,89.4592,127.5,89.2579,124.7,89.3402,121.9,89.3132,119.1,89.3262,116.3,89.32,113.5,89.4592" style="stroke: #000000; stroke-width: 1.0;"/><path d="M120.5,234.2792 L120.2255,234.2792 L119.8519,245.2552 L120.1414,256.2312 L121.0229,267.2072 L121.1126,278.1832 L120.5,289.1592 " fill="none" style="stroke: #A80036; stroke-width: 1.0;"/><polygon fill="#A80036" points="120.5,294.1692,120.6188,294.222,121.1777,292.3149,122.2664,290.6432,122.9265,288.781,123.5064,286.8832,124.5,285.1692,124.4702,285.1394,123.6125,285.8817,122.933,286.8022,122.1935,287.6627,121.4161,288.4853,120.5,289.1692,120.6154,289.2846,119.5267,288.1959,118.7668,287.436,117.9345,286.6037,117.1498,285.819,116.5,285.1692,116.5731,285.2017,117.1501,286.9026,118.2563,288.8387,118.8613,290.552,119.7588,292.3953,120.5,294.1692" style="stroke: #A80036; stroke-width: 1.0;"/></g></svg>