<?xml version="1.0" encoding="UTF-8" standalone="no"?><svg xmlns="http://www.w3.org/2000/svg" xmlns:xlink="http://www.w3.org/1999/xlink" contentScriptType="application/ecmascript" contentStyleType="text/css" height="647px" preserveAspectRatio="none" style="width:658px;height:647px;" version="1.1" viewBox="0 0 658 647" width="658px" zoomAndPan="magnify"><defs><filter height="300%" id="fwd64yi" width="300%" x="-1" y="-1"><feGaussianBlur result="blurOut" stdDeviation="2.0"/><feColorMatrix in="blurOut" result="blurOut2" type="matrix" values="0 0 0 0 0 0 0 0 0 0 0 0 0 0 0 0 0 0 .4 0"/><feOffset dx="4.0" dy="4.0" in="blurOut2" result="blurOut3"/><feBlend in="SourceGraphic" in2="blurOut3" mode="normal"/></filter></defs><g><text fill="#000000" font-family="sans-serif" font-size="18" lengthAdjust="spacingAndGlyphs" textLength="153" x="257" y="17.4023">API基本クラス構成</text><!--class Server--><polygon fill="#FEFECE" filter="url(#fwd64yi)" points="6,194.1992,6,194.4728,15.6,193.823,25.2,193.7485,34.8,193.5831,44.4,194.5376,54,194.1992,54.5862,194.1992,53.8772,204.8168,54.1471,215.4344,54.0184,226.052,54.6538,236.6695,54,247.2871,54,247.6632,44.4,247.732,34.8,246.867,25.2,247.8023,15.6,247.7073,6,247.2871,5.3275,247.2871,6.1047,236.6695,5.731,226.052,5.8125,215.4344,6.5673,204.8168,6,194.1992" style="stroke: #A80036; stroke-width: 1.5;"/><text fill="#000000" font-family="sans-serif" font-size="12" lengthAdjust="spacingAndGlyphs" textLength="36" x="12" y="210.8008">Server</text><path d="M7,218.332 L7,219.0519 L16.2,217.4414 L25.4,217.3327 L34.6,219.2546 L43.8,219.1181 L53,218.332 " fill="#FEFECE" style="stroke: #A80036; stroke-width: 1.5;"/><path d="M7,226.332 L7,227.2627 L16.2,226.6307 L25.4,225.6844 L34.6,225.5848 L43.8,227.2358 L53,226.332 " fill="#FEFECE" style="stroke: #A80036; stroke-width: 1.5;"/><text fill="#000000" font-family="sans-serif" font-size="11" lengthAdjust="spacingAndGlyphs" textLength="36" x="12" y="240.9668">+run()</text><!--class Runner--><polygon fill="#FEFECE" filter="url(#fwd64yi)" points="89,194.1992,89,194.9492,98.6,194.9337,108.2,194.0684,117.8,194.3615,127.4,193.8911,137,194.1992,136.7917,194.1992,136.5583,204.8168,136.3954,215.4344,136.7144,226.052,137.3184,236.6695,137,247.2871,137,246.6524,127.4,247.0028,117.8,247.4588,108.2,247.5958,98.6,247.8041,89,247.2871,89.1521,247.2871,88.438,236.6695,88.9461,226.052,89.0201,215.4344,89.3605,204.8168,89,194.1992" style="stroke: #A80036; stroke-width: 1.5;"/><text fill="#000000" font-family="sans-serif" font-size="12" lengthAdjust="spacingAndGlyphs" textLength="41" x="92.5" y="210.8008">Runner</text><path d="M90,218.332 L90,218.7921 L99.2,218.2616 L108.4,218.5699 L117.6,218.0302 L126.8,218.3361 L136,218.332 " fill="#FEFECE" style="stroke: #A80036; stroke-width: 1.5;"/><path d="M90,226.332 L90,226.6934 L99.2,226.1643 L108.4,227.0768 L117.6,226.7948 L126.8,226.4803 L136,226.332 " fill="#FEFECE" style="stroke: #A80036; stroke-width: 1.5;"/><text fill="#000000" font-family="sans-serif" font-size="11" lengthAdjust="spacingAndGlyphs" textLength="36" x="95" y="240.9668">+run()</text><!--class Application--><polygon fill="#FEFECE" filter="url(#fwd64yi)" points="172,194.1992,172,194.4516,182,193.7168,192,194.4695,202,193.9334,212,194.3269,222,193.6424,232,194.3726,242,194.1992,241.4543,194.1992,242.3197,204.8168,242.6409,215.4344,241.6875,226.052,242.3372,236.6695,242,247.2871,242,246.9981,232,247.6478,222,247.489,212,247.8936,202,247.899,192,248.0256,182,247.949,172,247.2871,172.6858,247.2871,172.0142,236.6695,172.5328,226.052,171.8827,215.4344,172.3489,204.8168,172,194.1992" style="stroke: #A80036; stroke-width: 1.5;"/><text fill="#000000" font-family="sans-serif" font-size="12" lengthAdjust="spacingAndGlyphs" textLength="64" x="175" y="210.8008">Application</text><path d="M173,218.332 L173,219.0112 L182.7143,218.9425 L192.4286,218.1509 L202.1429,218.4158 L211.8571,219.0676 L221.5714,218.6724 L231.2857,217.372 L241,218.332 " fill="#FEFECE" style="stroke: #A80036; stroke-width: 1.5;"/><path d="M173,226.332 L173,226.7412 L182.7143,226.7953 L192.4286,226.0885 L202.1429,226.2775 L211.8571,225.5545 L221.5714,226.9476 L231.2857,226.5641 L241,226.332 " fill="#FEFECE" style="stroke: #A80036; stroke-width: 1.5;"/><text fill="#000000" font-family="sans-serif" font-size="11" lengthAdjust="spacingAndGlyphs" textLength="53" x="178" y="240.9668">+handle()</text><!--class ControllerFactory--><polygon fill="#FEFECE" filter="url(#fwd64yi)" points="277.5,194.1992,277.5,194.4709,287.8,194.0603,298.1,194.4401,308.4,194.6808,318.7,193.5819,329,193.9745,339.3,193.5653,349.6,194.0045,359.9,193.5378,370.2,194.2958,380.5,194.1992,380.2666,194.1992,380.4736,204.8168,380.4071,215.4344,380.2166,226.052,380.2418,236.6695,380.5,247.2871,380.5,246.8765,370.2,246.7866,359.9,248.0255,349.6,247.754,339.3,246.7125,329,246.6536,318.7,247.9497,308.4,247.8645,298.1,246.6835,287.8,246.8614,277.5,247.2871,277.646,247.2871,276.7611,236.6695,277.0977,226.052,277.0341,215.4344,277.374,204.8168,277.5,194.1992" style="stroke: #A80036; stroke-width: 1.5;"/><text fill="#000000" font-family="sans-serif" font-size="12" lengthAdjust="spacingAndGlyphs" textLength="97" x="280.5" y="210.8008">ControllerFactory</text><path d="M278.5,218.332 L278.5,218.6221 L288.6,217.695 L298.7,217.7738 L308.8,219.0825 L318.9,217.6356 L329,218.3586 L339.1,218.6959 L349.2,218.5454 L359.3,218.8903 L369.4,217.4562 L379.5,218.332 " fill="#FEFECE" style="stroke: #A80036; stroke-width: 1.5;"/><path d="M278.5,226.332 L278.5,227.267 L288.6,225.5916 L298.7,226.1276 L308.8,227.3067 L318.9,226.6005 L329,226.9141 L339.1,226.6889 L349.2,226.8899 L359.3,226.8159 L369.4,226.0819 L379.5,226.332 " fill="#FEFECE" style="stroke: #A80036; stroke-width: 1.5;"/><text fill="#000000" font-family="sans-serif" font-size="11" lengthAdjust="spacingAndGlyphs" textLength="52" x="283.5" y="240.9668">+invoke()</text><!--class Admin\XxxsController--><polygon fill="#FEFECE" filter="url(#fwd64yi)" points="415.5,168.1992,415.5,167.6123,425.7308,167.9229,435.9615,167.9445,446.1923,168.0916,456.4231,167.9369,466.6538,167.657,476.8846,168.8333,487.1154,168.4026,497.3462,168.6604,507.5769,168.0195,517.8077,168.7684,528.0385,168.3484,538.2692,167.4825,548.5,168.1992,548.1949,168.1992,548.2232,178.69,547.9165,189.1809,548.6605,199.6717,547.8348,210.1625,548.0057,220.6533,548.4234,231.1441,547.9978,241.635,548.332,252.1258,549.0233,262.6166,548.5,273.1074,548.5,272.9828,538.2692,273.3809,528.0385,273.6058,517.8077,273.3364,507.5769,273.4337,497.3462,273.0938,487.1154,273.4548,476.8846,272.3632,466.6538,273.6628,456.4231,272.494,446.1923,273.3603,435.9615,272.646,425.7308,272.6691,415.5,273.1074,416.2269,273.1074,416.0819,262.6166,414.8947,252.1258,415.5471,241.635,414.7518,231.1441,415.1401,220.6533,414.7511,210.1625,415.9046,199.6717,415.3214,189.1809,415.6447,178.69,415.5,168.1992" style="stroke: #A80036; stroke-width: 1.5;"/><text fill="#000000" font-family="sans-serif" font-size="12" lengthAdjust="spacingAndGlyphs" textLength="127" x="418.5" y="184.8008">Admin\XxxsController</text><path d="M416.5,192.332 L416.5,191.9037 L426.5769,192.2711 L436.6538,191.6047 L446.7308,192.5199 L456.8077,192.0863 L466.8846,191.6301 L476.9615,193.2162 L487.0385,192.0725 L497.1154,193.1886 L507.1923,192.2621 L517.2692,193.3208 L527.3462,192.2556 L537.4231,192.8647 L547.5,192.332 " fill="#FEFECE" style="stroke: #A80036; stroke-width: 1.5;"/><path d="M416.5,200.332 L416.5,200.9024 L426.5769,201.2228 L436.6538,199.8812 L446.7308,200.6295 L456.8077,199.5605 L466.8846,199.6331 L476.9615,199.9824 L487.0385,200.0812 L497.1154,200.1349 L507.1923,199.4634 L517.2692,199.6687 L527.3462,199.8325 L537.4231,199.4348 L547.5,200.332 " fill="#FEFECE" style="stroke: #A80036; stroke-width: 1.5;"/><text fill="#000000" font-family="sans-serif" font-size="11" lengthAdjust="spacingAndGlyphs" textLength="105" x="421.5" y="214.9668">+一覧データ取得：()</text><text fill="#000000" font-family="sans-serif" font-size="11" lengthAdjust="spacingAndGlyphs" textLength="94" x="421.5" y="227.9219">+単一データ取得()</text><text fill="#000000" font-family="sans-serif" font-size="11" lengthAdjust="spacingAndGlyphs" textLength="61" x="421.5" y="240.877">+新規追加()</text><text fill="#000000" font-family="sans-serif" font-size="11" lengthAdjust="spacingAndGlyphs" textLength="39" x="421.5" y="253.832">+編集()</text><text fill="#000000" font-family="sans-serif" font-size="11" lengthAdjust="spacingAndGlyphs" textLength="39" x="421.5" y="266.7871">+削除()</text><!--class BcApiController--><polygon fill="#FEFECE" filter="url(#fwd64yi)" points="400.5,29.1992,400.5,29.5025,410.6875,29.4823,420.875,28.9601,431.0625,29.912,441.25,29.3264,451.4375,29.0998,461.625,28.9488,471.8125,29.5783,482,29.4456,492.1875,29.771,502.375,28.7611,512.5625,29.0926,522.75,28.6181,532.9375,29.9086,543.125,28.8159,553.3125,28.6546,563.5,29.1992,564.0605,29.1992,564.0994,39.074,563.0418,48.9487,562.948,58.8235,563.1286,68.6982,564.2479,78.573,563.8442,88.4478,564.1414,98.3225,563.5,108.1973,563.5,108.5153,553.3125,108.5207,543.125,108.2058,532.9375,107.5257,522.75,108.0395,512.5625,108.791,502.375,108.0551,492.1875,108.1856,482,108.5039,471.8125,107.7458,461.625,108.4772,451.4375,107.67,441.25,108.3083,431.0625,107.7202,420.875,108.8393,410.6875,108.3807,400.5,108.1973,400.9546,108.1973,400.5892,98.3225,400.8909,88.4478,400.263,78.573,399.8532,68.6982,400.2647,58.8235,400.4649,48.9487,400.4543,39.074,400.5,29.1992" style="stroke: #A80036; stroke-width: 1.5;"/><text fill="#000000" font-family="sans-serif" font-size="12" lengthAdjust="spacingAndGlyphs" textLength="88" x="438" y="45.8008">BcApiController</text><path d="M401.5,53.332 L401.5,54.1622 L411.5625,54.25 L421.625,53.6291 L431.6875,52.6501 L441.75,52.6986 L451.8125,52.4794 L461.875,54.1717 L471.9375,53.5399 L482,54.2954 L492.0625,53.7271 L502.125,52.5653 L512.1875,54.0962 L522.25,53.1128 L532.3125,52.7246 L542.375,53.9179 L552.4375,54.1446 L562.5,53.332 " fill="#FEFECE" style="stroke: #A80036; stroke-width: 1.5;"/><text fill="#000000" font-family="sans-serif" font-size="11" lengthAdjust="spacingAndGlyphs" textLength="151" x="406.5" y="67.9668">+AuthenticationComponent</text><path d="M401.5,74.2871 L401.5,74.6251 L411.5625,73.536 L421.625,73.7825 L431.6875,74.8897 L441.75,74.8294 L451.8125,73.8664 L461.875,75.189 L471.9375,74.8128 L482,74.2422 L492.0625,73.6422 L502.125,73.6523 L512.1875,75.0971 L522.25,74.1563 L532.3125,74.8915 L542.375,74.3303 L552.4375,74.8362 L562.5,74.2871 " fill="#FEFECE" style="stroke: #A80036; stroke-width: 1.5;"/><text fill="#000000" font-family="sans-serif" font-size="11" lengthAdjust="spacingAndGlyphs" textLength="87" x="406.5" y="88.9219">+invokeAction()</text><text fill="#000000" font-family="sans-serif" font-size="11" lengthAdjust="spacingAndGlyphs" textLength="53" x="406.5" y="101.877">+render()</text><!--class JsonView--><polygon fill="#FEFECE" filter="url(#fwd64yi)" points="583.5,194.1992,583.5,194.6945,592.7857,193.7526,602.0714,194.3905,611.3571,193.5984,620.6429,193.9752,629.9286,193.7159,639.2143,194.2425,648.5,194.1992,649.171,194.1992,648.4192,204.8168,648.4308,215.4344,648.3104,226.052,648.9468,236.6695,648.5,247.2871,648.5,247.7074,639.2143,246.9446,629.9286,246.9986,620.6429,246.6528,611.3571,246.6282,602.0714,247.1879,592.7857,247.7743,583.5,247.2871,583.4523,247.2871,583.1043,236.6695,582.8758,226.052,583.6215,215.4344,583.9429,204.8168,583.5,194.1992" style="stroke: #A80036; stroke-width: 1.5;"/><text fill="#000000" font-family="sans-serif" font-size="12" lengthAdjust="spacingAndGlyphs" textLength="51" x="590.5" y="210.8008">JsonView</text><path d="M584.5,218.332 L584.5,217.9289 L595,219.2606 L605.5,217.8915 L616,218.2913 L626.5,218.6496 L637,218.5056 L647.5,218.332 " fill="#FEFECE" style="stroke: #A80036; stroke-width: 1.5;"/><path d="M584.5,226.332 L584.5,226.9748 L595,226.3099 L605.5,225.8491 L616,226.6344 L626.5,226.261 L637,226.008 L647.5,226.332 " fill="#FEFECE" style="stroke: #A80036; stroke-width: 1.5;"/><text fill="#000000" font-family="sans-serif" font-size="11" lengthAdjust="spacingAndGlyphs" textLength="53" x="589.5" y="240.9668">+render()</text><!--class XxxService--><polygon fill="#FEFECE" filter="url(#fwd64yi)" points="446.5,359.1992,446.5,358.8065,456.6429,358.7123,466.7857,358.8481,476.9286,358.5408,487.0714,358.6312,497.2143,358.6596,507.3571,359.2917,517.5,359.1992,516.9738,359.1992,516.8542,369.8168,516.7744,380.4344,517.8121,391.052,517.1178,401.6695,517.5,412.2871,517.5,412.7888,507.3571,412.0121,497.2143,412.635,487.0714,412.8891,476.9286,412.395,466.7857,412.0229,456.6429,412.9415,446.5,412.2871,447.1593,412.2871,446.7802,401.6695,446.277,391.052,447.0617,380.4344,447.1072,369.8168,446.5,359.1992" style="stroke: #A80036; stroke-width: 1.5;"/><text fill="#000000" font-family="sans-serif" font-size="12" lengthAdjust="spacingAndGlyphs" textLength="62" x="451" y="375.8008">XxxService</text><path d="M447.5,383.332 L447.5,383.0471 L457.3571,383.0124 L467.2143,383.2117 L477.0714,383.8829 L486.9286,382.991 L496.7857,382.825 L506.6429,382.5764 L516.5,383.332 " fill="#FEFECE" style="stroke: #A80036; stroke-width: 1.5;"/><text fill="#000000" font-family="sans-serif" font-size="11" lengthAdjust="spacingAndGlyphs" textLength="59" x="452.5" y="397.9668">+XxxTable</text><path d="M447.5,404.2871 L447.5,404.2477 L457.3571,405.2502 L467.2143,404.3799 L477.0714,404.797 L486.9286,405.0574 L496.7857,404.3908 L506.6429,403.8519 L516.5,404.2871 " fill="#FEFECE" style="stroke: #A80036; stroke-width: 1.5;"/><!--class XxxServiceInterface--><polygon fill="#FEFECE" filter="url(#fwd64yi)" points="247,333.1992,247,332.926,257.25,333.5512,267.5,333.5872,277.75,333.0233,288,333.3042,298.25,333.3243,308.5,333.7569,318.75,333.2256,329,333.1497,339.25,332.4713,349.5,333.3178,359.75,333.2066,370,333.1435,380.25,333.091,390.5,333.571,400.75,332.8172,411,333.1992,411.6216,333.1992,410.8172,343.69,410.8611,354.1809,410.7804,364.6717,411.585,375.1625,411.5601,385.6533,411.7102,396.1441,410.3373,406.635,411.3584,417.1258,410.5082,427.6166,411,438.1074,411,438.7044,400.75,438.2047,390.5,438.5565,380.25,438.0846,370,438.197,359.75,438.7427,349.5,438.2796,339.25,438.1957,329,437.824,318.75,438.105,308.5,438.8396,298.25,437.9914,288,437.6085,277.75,437.9902,267.5,437.5567,257.25,438.2249,247,438.1074,247.2427,438.1074,247.6178,427.6166,246.3627,417.1258,247.2519,406.635,247.5927,396.1441,246.3258,385.6533,246.7458,375.1625,246.3819,364.6717,247.4318,354.1809,247.0857,343.69,247,333.1992" style="stroke: #A80036; stroke-width: 1.5;"/><text fill="#000000" font-family="sans-serif" font-size="12" lengthAdjust="spacingAndGlyphs" textLength="112" x="273" y="349.8008">XxxServiceInterface</text><path d="M248,357.332 L248,357.7546 L258.125,356.7306 L268.25,358.2992 L278.375,356.8227 L288.5,358.1814 L298.625,357.67 L308.75,357.8665 L318.875,356.7869 L329,357.1257 L339.125,356.5086 L349.25,357.8188 L359.375,357.3759 L369.5,357.3202 L379.625,357.0106 L389.75,358.0733 L399.875,357.3952 L410,357.332 " fill="#FEFECE" style="stroke: #A80036; stroke-width: 1.5;"/><path d="M248,365.332 L248,364.3887 L258.125,364.7868 L268.25,365.8635 L278.375,366.1118 L288.5,365.5478 L298.625,365.6575 L308.75,366.2974 L318.875,365.178 L329,364.422 L339.125,364.6435 L349.25,364.7808 L359.375,365.2144 L369.5,365.6239 L379.625,365.5221 L389.75,364.6808 L399.875,364.8544 L410,365.332 " fill="#FEFECE" style="stroke: #A80036; stroke-width: 1.5;"/><text fill="#000000" font-family="sans-serif" font-size="11" lengthAdjust="spacingAndGlyphs" textLength="83" x="253" y="379.9668">+作成：create()</text><text fill="#000000" font-family="sans-serif" font-size="11" lengthAdjust="spacingAndGlyphs" textLength="87" x="253" y="392.9219">+編集：update()</text><text fill="#000000" font-family="sans-serif" font-size="11" lengthAdjust="spacingAndGlyphs" textLength="122" x="253" y="405.877">+単一データ取得：get()</text><text fill="#000000" font-family="sans-serif" font-size="11" lengthAdjust="spacingAndGlyphs" textLength="152" x="253" y="418.832">+一覧データ取得：getIndex()</text><text fill="#000000" font-family="sans-serif" font-size="11" lengthAdjust="spacingAndGlyphs" textLength="144" x="253" y="431.7871">+初期データ取得：getNew()</text><!--class XxxTable--><polygon fill="#FEFECE" filter="url(#fwd64yi)" points="451.5,498.1992,451.5,498.644,461.6667,497.7448,471.8333,498.6902,482,498.5984,492.1667,498.6593,502.3333,497.6818,512.5,498.1992,512.6806,498.1992,512.7162,506.2258,512.5017,514.2523,512.6876,522.2789,512.6135,530.3055,512.5,538.332,512.5,538.4798,502.3333,538.4065,492.1667,538.7265,482,538.6768,471.8333,538.0434,461.6667,538.9767,451.5,538.332,451.4107,538.332,451.4738,530.3055,451.6713,522.2789,451.4836,514.2523,451.6667,506.2258,451.5,498.1992" style="stroke: #A80036; stroke-width: 1.5;"/><text fill="#000000" font-family="sans-serif" font-size="12" lengthAdjust="spacingAndGlyphs" textLength="55" x="454.5" y="514.8008">XxxTable</text><path d="M452.5,522.332 L452.5,522.0686 L462.3333,521.4595 L472.1667,522.6151 L482,521.6096 L491.8333,522.6075 L501.6667,523.1 L511.5,522.332 " fill="#FEFECE" style="stroke: #A80036; stroke-width: 1.5;"/><path d="M452.5,530.332 L452.5,529.9996 L462.3333,531.261 L472.1667,529.8939 L482,530.6274 L491.8333,530.2708 L501.6667,531.2099 L511.5,530.332 " fill="#FEFECE" style="stroke: #A80036; stroke-width: 1.5;"/><!--class Xxx--><polygon fill="#FEFECE" filter="url(#fwd64yi)" points="468,598.1992,468,598.0531,473.6,598.3681,479.2,598.3621,484.8,598.3557,490.4,598.3116,496,598.1992,496.2042,598.1992,496.0243,606.2258,496.0072,614.2523,495.8295,622.2789,495.817,630.3055,496,638.332,496,638.1626,490.4,638.3288,484.8,638.3558,479.2,638.4196,473.6,638.1106,468,638.332,467.9315,638.332,467.8331,630.3055,468.0479,622.2789,468.0768,614.2523,467.7973,606.2258,468,598.1992" style="stroke: #A80036; stroke-width: 1.5;"/><text fill="#000000" font-family="sans-serif" font-size="12" lengthAdjust="spacingAndGlyphs" textLength="22" x="471" y="614.8008">Xxx</text><path d="M469,622.332 L469,622.6415 L474.2,622.2055 L479.4,622.346 L484.6,622.0183 L489.8,622.4771 L495,622.332 " fill="#FEFECE" style="stroke: #A80036; stroke-width: 1.5;"/><path d="M469,630.332 L469,630.6058 L474.2,630.616 L479.4,630.4304 L484.6,630.6339 L489.8,630.0061 L495,630.332 " fill="#FEFECE" style="stroke: #A80036; stroke-width: 1.5;"/><polygon fill="#FBFB77" filter="url(#fwd64yi)" points="333.5,605.6992,333.4055,605.6992,333.488,610.7613,333.4376,615.8234,333.3231,620.8855,333.3907,625.9477,333.5,631.0098,333.5,631.2238,343.4,631.3181,353.3,630.8483,363.2,631.3101,373.1,630.9377,383,630.9526,392.9,631.3343,402.8,630.9758,412.7,631.6519,422.6,630.7341,432.5,631.0098,432.5612,631.0098,432.5513,627.9477,432.5356,624.8855,432.3673,621.8234,432.723,618.7613,432.5,615.6992,432.6407,615.8399,430.5299,613.7291,428.5496,611.7488,426.3738,609.573,424.6293,607.8286,422.5,605.6992,422.5,605.8,412.6111,605.4752,402.7222,605.1595,392.8333,606.2564,382.9444,605.1197,373.0556,604.9637,363.1667,606.0739,353.2778,606.0557,343.3889,606.3574,333.5,605.6992" style="stroke: #A80036; stroke-width: 1.0;"/><polygon fill="#FBFB77" points="333.5,605.6992,333.3444,605.6992,333.6534,610.7613,333.5644,615.8234,333.2656,620.8855,333.3674,625.9477,333.5,631.0098,333.5,631.0991,343.4,631.577,353.3,631.6845,363.2,630.7551,373.1,630.9181,383,630.4842,392.9,631.315,402.8,630.3805,412.7,630.4748,422.6,630.3171,432.5,631.0098,432.6002,631.0098,432.3805,629.5477,432.2523,628.0855,432.6953,626.6234,432.2594,625.1613,432.5,623.6992,432.4728,623.5246,439.587,622.7728,446.6027,621.3881,453.6979,620.5143,460.7094,619.1027,467.8,618.1992,467.7842,617.9755,460.7275,617.5221,453.6705,617.0655,446.6319,616.8677,439.5461,616.0034,432.5,615.6992,432.4391,615.6383,430.4603,613.6595,428.6514,611.8506,426.3493,609.5485,424.5085,607.7077,422.5,605.6992,422.5,605.0568,412.6111,606.2347,402.7222,605.251,392.8333,605.7294,382.9444,606.2591,373.0556,606.4201,363.1667,605.7697,353.2778,606.1718,343.3889,606.3802,333.5,605.6992" style="stroke: #A80036; stroke-width: 1.0;"/><path d="M422.5,605.6992 L422.4363,605.6992 L422.7358,607.6992 L422.3785,609.6992 L422.6783,611.6992 L422.7242,613.6992 L422.5,615.6992 " fill="#FBFB77" style="stroke: #A80036; stroke-width: 1.0;"/><path d="M432.5,615.6992 L432.5,615.8881 L430.5,615.5008 L428.5,615.9563 L426.5,615.3775 L424.5,615.7563 L422.5,615.6992 " fill="#FBFB77" style="stroke: #A80036; stroke-width: 1.0;"/><text fill="#000000" font-family="sans-serif" font-size="13" lengthAdjust="spacingAndGlyphs" textLength="78" x="339.5" y="623.2676">エンティティ</text><path d="M54.32,220.6992 L54.32,220.6349 L60.176,220.6401 L66.032,220.5922 L71.888,220.7032 L77.744,220.7687 L83.6,220.6992 " fill="none" style="stroke: #000000; stroke-width: 1.0;"/><polygon fill="#000000" points="88.7,220.6992,88.6803,220.6549,86.9474,220.0059,85.1332,219.174,83.3809,218.4813,81.4825,217.4598,79.7,216.6992,79.8254,216.8246,80.6059,217.6051,81.3423,218.3415,82.147,219.1463,82.727,219.7262,83.7,220.6992,83.5775,220.5767,82.757,221.3562,82.0043,222.2035,81.1763,222.9755,80.6187,224.0179,79.7,224.6992,79.6655,224.6217,81.4629,223.8158,83.3181,223.1401,85.0711,222.2342,86.9669,221.6497,88.7,220.6992" style="stroke: #000000; stroke-width: 1.0;"/><path d="M137.23,220.6992 L137.23,220.7161 L143.126,221.0128 L149.022,220.7183 L154.918,221.0023 L160.814,220.6253 L166.71,220.6992 " fill="none" style="stroke: #000000; stroke-width: 1.0;"/><polygon fill="#000000" points="171.84,220.6992,171.7847,220.5748,170.0731,219.9736,168.2098,219.0314,166.5016,218.4379,164.5601,217.3196,162.84,216.6992,162.6701,216.5293,163.4988,217.358,164.4192,218.2785,165.415,219.2742,166.0668,219.926,166.84,220.6992,166.7813,220.6405,166.0362,221.4954,165.2481,222.3073,164.4916,223.1508,163.5027,223.762,162.84,224.6992,162.7748,224.5525,164.6518,223.9258,166.4353,223.0886,168.2137,222.24,170.0307,221.4784,171.84,220.6992" style="stroke: #000000; stroke-width: 1.0;"/><path d="M242.27,220.6992 L242.27,220.9294 L248.212,220.8976 L254.154,220.869 L260.096,220.8277 L266.038,220.7938 L271.98,220.6992 " fill="none" style="stroke: #000000; stroke-width: 1.0;"/><polygon fill="#000000" points="277.16,220.6992,277.1323,220.6369,275.2781,219.715,273.5986,219.1862,271.7149,218.1978,270.0224,217.6396,268.16,216.6992,268.0685,216.6077,268.8344,217.3736,269.7945,218.3337,270.6018,219.1411,271.4676,220.0068,272.16,220.6992,272.1922,220.7314,271.4478,221.587,270.6608,222.4,269.7016,223.0408,268.8562,223.7954,268.16,224.6992,268.2141,224.821,269.9742,223.9312,271.6913,222.9447,273.4722,222.1018,275.4295,221.6557,277.16,220.6992" style="stroke: #000000; stroke-width: 1.0;"/><path d="M380.7,220.6992 L380.7,220.3951 L386.562,220.3889 L392.424,220.5906 L398.286,220.4104 L404.148,220.6214 L410.01,220.6992 " fill="none" style="stroke: #000000; stroke-width: 1.0;"/><polygon fill="#000000" points="415.12,220.6992,415.1042,220.6636,413.3105,219.8779,411.5894,219.2555,409.724,218.3083,407.8354,217.3089,406.12,216.6992,406.2068,216.7861,407.0937,217.6729,407.7378,218.3171,408.4256,219.0048,409.4674,220.0466,410.12,220.6992,410.2673,220.8465,409.2639,221.4431,408.4488,222.228,407.7635,223.1427,407.0785,224.0577,406.12,224.6992,406.0208,224.476,408.0058,224.0923,409.7908,223.2586,411.4759,222.2,413.3091,221.4746,415.12,220.6992" style="stroke: #000000; stroke-width: 1.0;"/><path d="M548.74,220.6992 L548.74,220.6776 L554.646,221.0228 L560.552,220.7857 L566.458,220.8205 L572.364,220.9523 L578.27,220.6992 " fill="none" style="stroke: #000000; stroke-width: 1.0;"/><polygon fill="#000000" points="583.42,220.6992,583.407,220.67,581.699,220.0771,579.9017,219.283,577.9808,218.2111,576.163,217.3709,574.42,216.6992,574.5394,216.8186,575.3674,217.6466,575.9859,218.2651,576.7799,219.0591,577.7732,220.0524,578.42,220.6992,578.3605,220.6397,577.7019,221.5811,576.7022,222.1814,576.1817,223.261,575.1082,223.7875,574.42,224.6992,574.347,224.5351,576.2247,223.9098,577.9735,222.9946,579.8388,222.3414,581.6053,221.4661,583.42,220.6992" style="stroke: #000000; stroke-width: 1.0;"/><path d="M482,273.2692 L481.6871,273.2692 L481.0142,283.3205 L482.955,293.3717 L482.9613,303.423 L482.4148,313.4742 L482.0556,323.5255 L482.2354,333.5767 L481.9533,343.628 L482,353.6792 " fill="none" style="stroke: #000000; stroke-width: 1.0;"/><polygon fill="#000000" points="482,358.9592,482.0565,358.9843,483.0044,357.25,483.7138,355.4098,484.187,353.4645,485.1146,351.7213,486,349.9592,485.9885,349.9477,485.0478,350.607,484.4102,351.5694,483.5963,352.3555,482.8663,353.2255,482,353.9592,481.958,353.9172,481.0441,353.0033,480.297,352.2562,479.7517,351.7109,478.6948,350.654,478,349.9592,478.1221,350.0135,478.8814,351.7954,479.8143,353.6545,480.3921,355.3557,481.1842,357.1522,482,358.9592" style="stroke: #000000; stroke-width: 1.0;"/><path d="M482,128.6892 L482.3112,128.6892 L481.928,136.5892 L481.7314,144.4892 L482.1086,152.3892 L482.2135,160.2892 L482,168.1892 " fill="none" style="stroke: #000000; stroke-width: 1.0;"/><polygon fill="none" points="475,128.3292,474.7933,128.2569,476.4155,124.3347,477.9216,120.3718,479.326,116.3733,480.8233,112.4074,482,108.3292,481.8392,108.273,483.2894,112.2905,484.7568,116.3141,486.4149,120.4044,487.6711,124.3541,489,128.3292,489,128.1016,486.2,128.1801,483.4,128.2892,480.6,128.3501,477.8,128.3421,475,128.3292" style="stroke: #000000; stroke-width: 1.0;"/><path d="M431.22,385.6992 L431.22,385.4891 L434.238,385.6844 L437.256,385.7115 L440.274,386.0238 L443.292,386.0031 L446.31,385.6992 " fill="none" style="stroke: #000000; stroke-width: 1.0; stroke-dasharray: 1.0,3.0;"/><polygon fill="none" points="431.18,392.6992,431.1643,392.6545,427.2441,391.4823,423.2451,390.0852,419.2277,388.6356,415.1851,387.1137,411.18,385.6992,411.2188,385.8102,415.1466,384.2038,419.1091,382.6967,423.1273,381.3487,427.1886,380.1239,431.18,378.6992,431.0277,378.6992,431.0575,381.4992,431.1142,384.2992,431.244,387.0992,431.2681,389.8992,431.18,392.6992" style="stroke: #000000; stroke-width: 1.0;"/><path d="M482,412.4792 L481.52,412.4792 L481.8101,422.4892 L481.3961,432.4992 L482.0454,442.5092 L482.3977,452.5192 L482.2132,462.5292 L481.5997,472.5392 L482.5715,482.5492 L482,492.5592 " fill="none" style="stroke: #000000; stroke-width: 1.0;"/><polygon fill="#000000" points="482,497.8392,481.9947,497.8369,482.8876,496.0781,483.5656,494.2239,484.4669,492.4689,485.101,490.5952,486,488.8392,485.9631,488.8024,485.1781,489.6173,484.4552,490.4944,483.7008,491.34,482.6947,491.9339,482,492.8392,482.1163,492.9555,481.0891,491.9283,480.3307,491.1699,479.7559,490.5951,478.6813,489.5205,478,488.8392,478.0571,488.8646,479.0279,490.7405,479.5215,492.4043,480.4683,494.2696,481.2194,496.0478,482,497.8392" style="stroke: #000000; stroke-width: 1.0;"/><path d="M482,538.5592 L482.9646,538.5592 L481.6059,549.4192 L482.9022,560.2792 L482.3844,571.1392 L482.9291,581.9992 L482,592.8592 " fill="none" style="stroke: #000000; stroke-width: 1.0;"/><polygon fill="#000000" points="482,597.8792,481.8998,597.8347,482.9828,596.1605,483.5216,594.2444,484.3127,592.4404,485.0458,590.6107,486,588.8792,485.9591,588.8383,485.3446,589.8238,484.3275,590.4067,483.4724,591.1516,482.8503,592.1295,482,592.8792,482.1085,592.9877,481.0318,591.911,480.5712,591.4505,479.5277,590.4069,478.6834,589.5626,478,588.8792,478.1194,588.9323,478.8796,590.7146,479.7362,592.5398,480.4324,594.2936,481.2364,596.0954,482,597.8792" style="stroke: #000000; stroke-width: 1.0;"/></g></svg>