<?xml version="1.0" encoding="UTF-8" standalone="no"?><svg xmlns="http://www.w3.org/2000/svg" xmlns:xlink="http://www.w3.org/1999/xlink" contentScriptType="application/ecmascript" contentStyleType="text/css" height="786px" preserveAspectRatio="none" style="width:710px;height:786px;" version="1.1" viewBox="0 0 710 786" width="710px" zoomAndPan="magnify"><defs><filter height="300%" id="fdc2lox" width="300%" x="-1" y="-1"><feGaussianBlur result="blurOut" stdDeviation="2.0"/><feColorMatrix in="blurOut" result="blurOut2" type="matrix" values="0 0 0 0 0 0 0 0 0 0 0 0 0 0 0 0 0 0 .4 0"/><feOffset dx="4.0" dy="4.0" in="blurOut2" result="blurOut3"/><feBlend in="SourceGraphic" in2="blurOut3" mode="normal"/></filter></defs><g><text fill="#000000" font-family="sans-serif" font-size="18" lengthAdjust="spacingAndGlyphs" textLength="198" x="260.5" y="17.4023">管理画面基本クラス構成</text><!--class Server--><polygon fill="#FEFECE" filter="url(#fdc2lox)" points="6,333.1992,6,332.9591,15.6,332.9817,25.2,333.2779,34.8,333.1537,44.4,333.361,54,333.1992,53.4257,333.1992,54.4556,343.8168,53.7386,354.4344,53.5736,365.052,54.7372,375.6695,54,386.2871,54,386.7425,44.4,386.4677,34.8,386.3822,25.2,386.0255,15.6,386.745,6,386.2871,5.3539,386.2871,6.5288,375.6695,5.5743,365.052,6.3292,354.4344,6.6431,343.8168,6,333.1992" style="stroke: #A80036; stroke-width: 1.5;"/><text fill="#000000" font-family="sans-serif" font-size="12" lengthAdjust="spacingAndGlyphs" textLength="36" x="12" y="349.8008">Server</text><path d="M7,357.332 L7,356.3385 L16.2,358.3027 L25.4,356.3366 L34.6,357.5032 L43.8,357.6584 L53,357.332 " fill="#FEFECE" style="stroke: #A80036; stroke-width: 1.5;"/><path d="M7,365.332 L7,366.1279 L16.2,366.1033 L25.4,365.2498 L34.6,364.4151 L43.8,365.1593 L53,365.332 " fill="#FEFECE" style="stroke: #A80036; stroke-width: 1.5;"/><text fill="#000000" font-family="sans-serif" font-size="11" lengthAdjust="spacingAndGlyphs" textLength="36" x="12" y="379.9668">+run()</text><!--class Runner--><polygon fill="#FEFECE" filter="url(#fdc2lox)" points="89,333.1992,89,333.4328,98.6,333.2578,108.2,333.1324,117.8,333.1676,127.4,333.4078,137,333.1992,137.4136,333.1992,137.724,343.8168,137.2603,354.4344,136.786,365.052,136.2562,375.6695,137,386.2871,137,386.2257,127.4,386.1777,117.8,386.9676,108.2,385.7988,98.6,385.9129,89,386.2871,88.2738,386.2871,88.9744,375.6695,88.7225,365.052,89.3939,354.4344,89.2093,343.8168,89,333.1992" style="stroke: #A80036; stroke-width: 1.5;"/><text fill="#000000" font-family="sans-serif" font-size="12" lengthAdjust="spacingAndGlyphs" textLength="41" x="92.5" y="349.8008">Runner</text><path d="M90,357.332 L90,358.3068 L99.2,358.171 L108.4,357.393 L117.6,357.4519 L126.8,357.2409 L136,357.332 " fill="#FEFECE" style="stroke: #A80036; stroke-width: 1.5;"/><path d="M90,365.332 L90,364.9448 L99.2,366.2355 L108.4,364.4514 L117.6,365.8782 L126.8,366.2168 L136,365.332 " fill="#FEFECE" style="stroke: #A80036; stroke-width: 1.5;"/><text fill="#000000" font-family="sans-serif" font-size="11" lengthAdjust="spacingAndGlyphs" textLength="36" x="95" y="379.9668">+run()</text><!--class Application--><polygon fill="#FEFECE" filter="url(#fdc2lox)" points="172,333.1992,172,332.8857,182,333.7242,192,333.4482,202,333.6016,212,333.1905,222,333.2284,232,332.8716,242,333.1992,241.546,333.1992,242.1555,343.8168,242.261,354.4344,242.2699,365.052,242.2843,375.6695,242,386.2871,242,385.7793,232,386.3908,222,386.796,212,386.4734,202,386.9302,192,385.9596,182,385.6094,172,386.2871,172.1722,386.2871,172.0496,375.6695,172.4578,365.052,172.1939,354.4344,171.8758,343.8168,172,333.1992" style="stroke: #A80036; stroke-width: 1.5;"/><text fill="#000000" font-family="sans-serif" font-size="12" lengthAdjust="spacingAndGlyphs" textLength="64" x="175" y="349.8008">Application</text><path d="M173,357.332 L173,356.9021 L182.7143,358.1084 L192.4286,358.0597 L202.1429,356.7083 L211.8571,357.0802 L221.5714,358.2498 L231.2857,357.8474 L241,357.332 " fill="#FEFECE" style="stroke: #A80036; stroke-width: 1.5;"/><path d="M173,365.332 L173,364.4322 L182.7143,366.276 L192.4286,364.5332 L202.1429,366.1298 L211.8571,365.7489 L221.5714,365.1927 L231.2857,365.8464 L241,365.332 " fill="#FEFECE" style="stroke: #A80036; stroke-width: 1.5;"/><text fill="#000000" font-family="sans-serif" font-size="11" lengthAdjust="spacingAndGlyphs" textLength="53" x="178" y="379.9668">+handle()</text><!--class ControllerFactory--><polygon fill="#FEFECE" filter="url(#fdc2lox)" points="277.5,333.1992,277.5,332.6211,287.8,332.8319,298.1,333.5903,308.4,333.429,318.7,333.8506,329,332.8544,339.3,333.8498,349.6,332.925,359.9,332.4654,370.2,333.8094,380.5,333.1992,380.086,333.1992,380.634,343.8168,380.7039,354.4344,380.9712,365.052,381.0406,375.6695,380.5,386.2871,380.5,386.4167,370.2,386.0183,359.9,386.2996,349.6,386.4693,339.3,386.7005,329,385.6634,318.7,385.7811,308.4,386.6399,298.1,385.6725,287.8,386.4549,277.5,386.2871,277.8462,386.2871,277.5133,375.6695,277.3281,365.052,277.9661,354.4344,278.0434,343.8168,277.5,333.1992" style="stroke: #A80036; stroke-width: 1.5;"/><text fill="#000000" font-family="sans-serif" font-size="12" lengthAdjust="spacingAndGlyphs" textLength="97" x="280.5" y="349.8008">ControllerFactory</text><path d="M278.5,357.332 L278.5,357.3821 L288.6,358.3296 L298.7,357.3125 L308.8,356.7395 L318.9,358.3099 L329,357.8099 L339.1,358.2305 L349.2,357.1508 L359.3,358.1612 L369.4,356.8791 L379.5,357.332 " fill="#FEFECE" style="stroke: #A80036; stroke-width: 1.5;"/><path d="M278.5,365.332 L278.5,364.6222 L288.6,365.3458 L298.7,364.8763 L308.8,365.6038 L318.9,366.0413 L329,364.6978 L339.1,364.3454 L349.2,365.1476 L359.3,365.9721 L369.4,364.4556 L379.5,365.332 " fill="#FEFECE" style="stroke: #A80036; stroke-width: 1.5;"/><text fill="#000000" font-family="sans-serif" font-size="11" lengthAdjust="spacingAndGlyphs" textLength="52" x="283.5" y="379.9668">+invoke()</text><!--class Admin\XxxController--><polygon fill="#FEFECE" filter="url(#fdc2lox)" points="416,307.1992,416,307.8971,426.1429,306.5505,436.2857,306.8953,446.4286,306.6851,456.5714,306.81,466.7143,306.4795,476.8571,307.4888,487,307.0083,497.1429,306.8322,507.2857,307.8675,517.4286,306.5796,527.5714,306.7805,537.7143,306.5561,547.8571,306.9213,558,307.1992,557.8433,307.1992,558.4742,317.69,558.6114,328.1809,557.5998,338.6717,558.3462,349.1625,558.2614,359.6533,558.3047,370.1441,557.5025,380.635,557.4754,391.1258,558.642,401.6166,558,412.1074,558,412.4747,547.8571,412.2834,537.7143,412.0846,527.5714,411.7041,517.4286,412.737,507.2857,411.8936,497.1429,411.7468,487,412.6896,476.8571,411.3972,466.7143,412.2653,456.5714,412.7056,446.4286,412.2542,436.2857,412.5628,426.1429,411.6365,416,412.1074,415.8854,412.1074,416.2252,401.6166,416.5928,391.1258,416.2798,380.635,416.3225,370.1441,415.9318,359.6533,416.5838,349.1625,416.0397,338.6717,415.4287,328.1809,416.6264,317.69,416,307.1992" style="stroke: #A80036; stroke-width: 1.5;"/><text fill="#000000" font-family="sans-serif" font-size="12" lengthAdjust="spacingAndGlyphs" textLength="121" x="426.5" y="323.8008">Admin\XxxController</text><path d="M417,331.332 L417,331.9497 L427,332.2183 L437,331.7777 L447,331.158 L457,330.4153 L467,330.4002 L477,330.3718 L487,332.1606 L497,331.5845 L507,330.8267 L517,332.1861 L527,330.8807 L537,330.5387 L547,330.4308 L557,331.332 " fill="#FEFECE" style="stroke: #A80036; stroke-width: 1.5;"/><text fill="#000000" font-family="sans-serif" font-size="11" lengthAdjust="spacingAndGlyphs" textLength="130" x="422" y="345.9668">+BcMessageComponent</text><path d="M417,352.2871 L417,351.6639 L427,352.584 L437,352.8157 L447,353.1515 L457,351.5537 L467,352.6109 L477,351.494 L487,352.1806 L497,352.3265 L507,351.5271 L517,352.4761 L527,352.432 L537,352.9036 L547,352.9928 L557,352.2871 " fill="#FEFECE" style="stroke: #A80036; stroke-width: 1.5;"/><text fill="#000000" font-family="sans-serif" font-size="11" lengthAdjust="spacingAndGlyphs" textLength="113" x="422" y="366.9219">+一覧を表示：index()</text><text fill="#000000" font-family="sans-serif" font-size="11" lengthAdjust="spacingAndGlyphs" textLength="92" x="422" y="379.877">+新規追加：add()</text><text fill="#000000" font-family="sans-serif" font-size="11" lengthAdjust="spacingAndGlyphs" textLength="70" x="422" y="392.832">+編集：edit()</text><text fill="#000000" font-family="sans-serif" font-size="11" lengthAdjust="spacingAndGlyphs" textLength="82" x="422" y="405.7871">+削除：delete()</text><!--class BcAdminAppController--><polygon fill="#FEFECE" filter="url(#fdc2lox)" points="405.5,168.1992,405.5,168.3063,415.6875,168.1145,425.875,168.4519,436.0625,168.4543,446.25,168.9445,456.4375,167.8426,466.625,168.6758,476.8125,168.0237,487,167.8211,497.1875,167.6452,507.375,168.1062,517.5625,168.0826,527.75,168.558,537.9375,168.2382,548.125,168.05,558.3125,168.5724,568.5,168.1992,568.106,168.1992,568.1037,178.074,568.2959,187.9487,568.521,197.8235,567.9,207.6982,568.8744,217.573,568.4716,227.4478,568.1719,237.3225,568.5,247.1973,568.5,247.0361,558.3125,247.0199,548.125,247.9044,537.9375,247.3004,527.75,247.8004,517.5625,247.6007,507.375,246.7153,497.1875,246.4701,487,247.1634,476.8125,247.7241,466.625,247.8519,456.4375,247.3567,446.25,247.7618,436.0625,246.4493,425.875,246.6231,415.6875,246.6404,405.5,247.1973,405.3474,247.1973,405.6798,237.3225,404.9493,227.4478,405.2635,217.573,404.7826,207.6982,405.137,197.8235,406.0864,187.9487,405.1659,178.074,405.5,168.1992" style="stroke: #A80036; stroke-width: 1.5;"/><text fill="#000000" font-family="sans-serif" font-size="12" lengthAdjust="spacingAndGlyphs" textLength="130" x="422" y="184.8008">BcAdminAppController</text><path d="M406.5,192.332 L406.5,192.4274 L416.5625,191.6704 L426.625,191.9204 L436.6875,192.4822 L446.75,192.0949 L456.8125,191.5782 L466.875,192.918 L476.9375,193.1226 L487,191.4401 L497.0625,192.015 L507.125,192.8756 L517.1875,191.5498 L527.25,192.1353 L537.3125,192.406 L547.375,192.6529 L557.4375,191.9149 L567.5,192.332 " fill="#FEFECE" style="stroke: #A80036; stroke-width: 1.5;"/><text fill="#000000" font-family="sans-serif" font-size="11" lengthAdjust="spacingAndGlyphs" textLength="151" x="411.5" y="206.9668">+AuthenticationComponent</text><path d="M406.5,213.2871 L406.5,213.2464 L416.5625,212.7823 L426.625,213.525 L436.6875,213.1149 L446.75,213.8705 L456.8125,214.2263 L466.875,213.1731 L476.9375,212.5072 L487,212.8068 L497.0625,214.2681 L507.125,214.2514 L517.1875,214.2287 L527.25,213.3937 L537.3125,212.9301 L547.375,213.9853 L557.4375,213.2554 L567.5,213.2871 " fill="#FEFECE" style="stroke: #A80036; stroke-width: 1.5;"/><text fill="#000000" font-family="sans-serif" font-size="11" lengthAdjust="spacingAndGlyphs" textLength="87" x="411.5" y="227.9219">+invokeAction()</text><text fill="#000000" font-family="sans-serif" font-size="11" lengthAdjust="spacingAndGlyphs" textLength="53" x="411.5" y="240.877">+render()</text><!--class BcAdminAppView--><polygon fill="#FEFECE" filter="url(#fdc2lox)" points="593.5,333.1992,593.5,333.8391,603.2273,333.5218,612.9545,333.2433,622.6818,332.4495,632.4091,333.3444,642.1364,333.1067,651.8636,332.7144,661.5909,333.8794,671.3182,333.8138,681.0455,332.8195,690.7727,333.044,700.5,333.1992,699.7885,333.1992,699.9189,343.8168,701.0646,354.4344,700.0243,365.052,701.2079,375.6695,700.5,386.2871,700.5,386.2239,690.7727,386.0336,681.0455,386.8591,671.3182,386.2415,661.5909,386.4608,651.8636,385.9957,642.1364,386.4334,632.4091,386.4063,622.6818,386.9971,612.9545,385.8867,603.2273,386.8377,593.5,386.2871,593.0966,386.2871,593.2469,375.6695,593.7797,365.052,593.7082,354.4344,593.5916,343.8168,593.5,333.1992" style="stroke: #A80036; stroke-width: 1.5;"/><text fill="#000000" font-family="sans-serif" font-size="12" lengthAdjust="spacingAndGlyphs" textLength="101" x="596.5" y="349.8008">BcAdminAppView</text><path d="M594.5,357.332 L594.5,357.9376 L604.0455,356.7597 L613.5909,357.7408 L623.1364,358.2228 L632.6818,357.0086 L642.2273,356.5463 L651.7727,357.597 L661.3182,356.6691 L670.8636,356.8867 L680.4091,356.6102 L689.9545,356.3989 L699.5,357.332 " fill="#FEFECE" style="stroke: #A80036; stroke-width: 1.5;"/><path d="M594.5,365.332 L594.5,365.0797 L604.0455,365.6157 L613.5909,366.1712 L623.1364,365.5197 L632.6818,364.7888 L642.2273,365.4209 L651.7727,364.8062 L661.3182,365.8835 L670.8636,364.579 L680.4091,364.5096 L689.9545,365.4497 L699.5,365.332 " fill="#FEFECE" style="stroke: #A80036; stroke-width: 1.5;"/><text fill="#000000" font-family="sans-serif" font-size="11" lengthAdjust="spacingAndGlyphs" textLength="53" x="599.5" y="379.9668">+render()</text><!--class AppController--><polygon fill="#FEFECE" filter="url(#fdc2lox)" points="416,29.1992,416,29.0117,426.1429,28.7652,436.2857,29.1775,446.4286,29.596,456.5714,28.8646,466.7143,29.4179,476.8571,29.6451,487,28.7243,497.1429,29.5521,507.2857,29.3225,517.4286,29.5913,527.5714,28.5892,537.7143,28.9447,547.8571,28.7691,558,29.1992,558.0244,29.1992,557.2856,39.074,557.9076,48.9487,558.0291,58.8235,558.4177,68.6982,557.9693,78.573,558.0929,88.4478,557.7363,98.3225,558,108.1973,558,107.5743,547.8571,107.5594,537.7143,107.7967,527.5714,108.6532,517.4286,107.6269,507.2857,108.2369,497.1429,108.0591,487,108.547,476.8571,108.8078,466.7143,108.2268,456.5714,107.9297,446.4286,108.1614,436.2857,108.5455,426.1429,107.602,416,108.1973,416.2454,108.1973,415.3373,98.3225,415.4201,88.4478,415.2827,78.573,416.2601,68.6982,416.1048,58.8235,416.6211,48.9487,415.5968,39.074,416,29.1992" style="stroke: #A80036; stroke-width: 1.5;"/><text fill="#000000" font-family="sans-serif" font-size="12" lengthAdjust="spacingAndGlyphs" textLength="80" x="447" y="45.8008">AppController</text><path d="M417,53.332 L417,53.0054 L427,53.6569 L437,53.9775 L447,53.8734 L457,52.905 L467,52.3404 L477,54.1241 L487,52.7313 L497,52.8971 L507,52.8529 L517,53.6855 L527,54.1714 L537,52.8421 L547,53.2396 L557,53.332 " fill="#FEFECE" style="stroke: #A80036; stroke-width: 1.5;"/><text fill="#000000" font-family="sans-serif" font-size="11" lengthAdjust="spacingAndGlyphs" textLength="130" x="422" y="67.9668">+BcMessageComponent</text><text fill="#000000" font-family="sans-serif" font-size="11" lengthAdjust="spacingAndGlyphs" textLength="115" x="422" y="80.9219">+SecurityComponent</text><text fill="#000000" font-family="sans-serif" font-size="11" lengthAdjust="spacingAndGlyphs" textLength="123" x="422" y="93.877">+PaginatorComponent</text><path d="M417,100.1973 L417,100.3115 L427,101.0405 L437,100.9055 L447,100.093 L457,100.321 L467,100.8004 L477,99.6908 L487,100.7473 L497,100.3377 L507,99.7838 L517,100.2895 L527,99.4054 L537,99.5748 L547,99.3146 L557,100.1973 " fill="#FEFECE" style="stroke: #A80036; stroke-width: 1.5;"/><!--class BcAdminXxxHelper--><polygon fill="#FEFECE" filter="url(#fdc2lox)" points="580.5,504.6992,580.5,505.0682,590.25,504.4139,600,503.9784,609.75,504.0495,619.5,504.4946,629.25,504.4988,639,505.3678,648.75,504.8115,658.5,504.2022,668.25,504.1635,678,504.372,687.75,504.6998,697.5,504.6992,697.4482,504.6992,697.5628,512.7258,697.3474,520.7523,697.6727,528.7789,697.6015,536.8055,697.5,544.832,697.5,544.2854,687.75,545.1586,678,545.2742,668.25,545.3249,658.5,545.196,648.75,545.475,639,544.3393,629.25,544.8073,619.5,544.5492,609.75,544.7732,600,544.2023,590.25,544.6295,580.5,544.832,580.4666,544.832,580.478,536.8055,580.6586,528.7789,580.476,520.7523,580.7083,512.7258,580.5,504.6992" style="stroke: #A80036; stroke-width: 1.5;"/><text fill="#000000" font-family="sans-serif" font-size="12" lengthAdjust="spacingAndGlyphs" textLength="111" x="583.5" y="521.3008">BcAdminXxxHelper</text><path d="M581.5,528.832 L581.5,528.5376 L591.0833,528.7604 L600.6667,529.4387 L610.25,528.8775 L619.8333,528.8972 L629.4167,527.8593 L639,527.8558 L648.5833,528.2928 L658.1667,529.4608 L667.75,528.6371 L677.3333,528.3011 L686.9167,528.8706 L696.5,528.832 " fill="#FEFECE" style="stroke: #A80036; stroke-width: 1.5;"/><path d="M581.5,536.832 L581.5,536.049 L591.0833,536.7306 L600.6667,536.4943 L610.25,537.7317 L619.8333,536.2243 L629.4167,536.641 L639,536.0319 L648.5833,537.2373 L658.1667,537.0431 L667.75,537.0944 L677.3333,537.6308 L686.9167,537.2762 L696.5,536.832 " fill="#FEFECE" style="stroke: #A80036; stroke-width: 1.5;"/><!--class XxxService--><polygon fill="#FEFECE" filter="url(#fdc2lox)" points="459.5,498.1992,459.5,498.8016,469.6429,498.7015,479.7857,497.5795,489.9286,498.4706,500.0714,498.0446,510.2143,497.8319,520.3571,498.4911,530.5,498.1992,529.9738,498.1992,530.2397,508.8168,530.2354,519.4344,530.639,530.052,529.919,540.6695,530.5,551.2871,530.5,551.8937,520.3571,551.2434,510.2143,550.6338,500.0714,551.0465,489.9286,551.1464,479.7857,550.6061,469.6429,550.8938,459.5,551.2871,458.8151,551.2871,459.4724,540.6695,459.7689,530.052,459.0181,519.4344,459.9954,508.8168,459.5,498.1992" style="stroke: #A80036; stroke-width: 1.5;"/><text fill="#000000" font-family="sans-serif" font-size="12" lengthAdjust="spacingAndGlyphs" textLength="62" x="464" y="514.8008">XxxService</text><path d="M460.5,522.332 L460.5,521.962 L470.3571,523.0992 L480.2143,522.649 L490.0714,521.4463 L499.9286,521.3364 L509.7857,521.8284 L519.6429,522.6467 L529.5,522.332 " fill="#FEFECE" style="stroke: #A80036; stroke-width: 1.5;"/><text fill="#000000" font-family="sans-serif" font-size="11" lengthAdjust="spacingAndGlyphs" textLength="59" x="465.5" y="536.9668">+XxxTable</text><path d="M460.5,543.2871 L460.5,543.1955 L470.3571,543.506 L480.2143,542.7447 L490.0714,543.4051 L499.9286,542.668 L509.7857,543.9272 L519.6429,542.8544 L529.5,543.2871 " fill="#FEFECE" style="stroke: #A80036; stroke-width: 1.5;"/><!--class XxxServiceInterface--><polygon fill="#FEFECE" filter="url(#fdc2lox)" points="268,472.1992,268,472.5438,277.75,472.1638,287.5,472.7391,297.25,472.8659,307,472.5813,316.75,471.9137,326.5,472.2282,336.25,471.9636,346,471.4964,355.75,471.5604,365.5,472.2918,375.25,472.5593,385,472.4782,394.75,472.0488,404.5,472.3842,414.25,472.5393,424,472.1992,424.5894,472.1992,424.7267,482.69,424.5556,493.1809,424.714,503.6717,424.1998,514.1625,424.6957,524.6533,423.5185,535.1441,424.3552,545.635,424.3391,556.1258,424.5902,566.6166,424,577.1074,424,577.0373,414.25,577.3457,404.5,577.2779,394.75,577.083,385,577.6863,375.25,576.4107,365.5,577.6536,355.75,577.6954,346,577.107,336.25,576.5634,326.5,577.394,316.75,577.3162,307,576.6379,297.25,577.8496,287.5,577.7983,277.75,576.4645,268,577.1074,268.2771,577.1074,268.3942,566.6166,267.5162,556.1258,268.3542,545.635,267.9848,535.1441,268.2558,524.6533,268.4532,514.1625,267.376,503.6717,268.1908,493.1809,268.0367,482.69,268,472.1992" style="stroke: #A80036; stroke-width: 1.5;"/><text fill="#000000" font-family="sans-serif" font-size="12" lengthAdjust="spacingAndGlyphs" textLength="112" x="290" y="488.8008">XxxServiceInterface</text><path d="M269,496.332 L269,497.2492 L279.2667,496.4181 L289.5333,496.2033 L299.8,496.9104 L310.0667,495.6142 L320.3333,495.8164 L330.6,495.6047 L340.8667,496.176 L351.1333,497.1772 L361.4,496.2995 L371.6667,497.0998 L381.9333,497.0999 L392.2,497.1393 L402.4667,496.2933 L412.7333,495.9119 L423,496.332 " fill="#FEFECE" style="stroke: #A80036; stroke-width: 1.5;"/><path d="M269,504.332 L269,503.5045 L279.2667,503.7789 L289.5333,505.1068 L299.8,503.3959 L310.0667,504.2645 L320.3333,505.0879 L330.6,503.843 L340.8667,503.6046 L351.1333,505.1545 L361.4,505.0492 L371.6667,504.8191 L381.9333,505.0032 L392.2,505.0727 L402.4667,504.8104 L412.7333,503.7424 L423,504.332 " fill="#FEFECE" style="stroke: #A80036; stroke-width: 1.5;"/><text fill="#000000" font-family="sans-serif" font-size="11" lengthAdjust="spacingAndGlyphs" textLength="83" x="274" y="518.9668">+作成：create()</text><text fill="#000000" font-family="sans-serif" font-size="11" lengthAdjust="spacingAndGlyphs" textLength="87" x="274" y="531.9219">+編集：update()</text><text fill="#000000" font-family="sans-serif" font-size="11" lengthAdjust="spacingAndGlyphs" textLength="122" x="274" y="544.877">+単一データ取得：get()</text><text fill="#000000" font-family="sans-serif" font-size="11" lengthAdjust="spacingAndGlyphs" textLength="135" x="274" y="557.832">+一覧データ取得：index()</text><text fill="#000000" font-family="sans-serif" font-size="11" lengthAdjust="spacingAndGlyphs" textLength="144" x="274" y="570.7871">+初期データ取得：getNew()</text><!--class XxxTable--><polygon fill="#FEFECE" filter="url(#fdc2lox)" points="464.5,637.1992,464.5,637.2945,474.6667,637.5105,484.8333,637.6369,495,636.6918,505.1667,637.4243,515.3333,636.684,525.5,637.1992,525.2577,637.1992,525.3235,645.2258,525.5645,653.2523,525.57,661.2789,525.5509,669.3055,525.5,677.332,525.5,677.3107,515.3333,677.7201,505.1667,676.8985,495,677.1091,484.8333,677.6813,474.6667,677.1698,464.5,677.332,464.7306,677.332,464.4431,669.3055,464.6303,661.2789,464.3538,653.2523,464.7138,645.2258,464.5,637.1992" style="stroke: #A80036; stroke-width: 1.5;"/><text fill="#000000" font-family="sans-serif" font-size="12" lengthAdjust="spacingAndGlyphs" textLength="55" x="467.5" y="653.8008">XxxTable</text><path d="M465.5,661.332 L465.5,660.6791 L475.3333,662.0119 L485.1667,660.4156 L495,661.9338 L504.8333,661.1387 L514.6667,660.3364 L524.5,661.332 " fill="#FEFECE" style="stroke: #A80036; stroke-width: 1.5;"/><path d="M465.5,669.332 L465.5,668.5607 L475.3333,668.5526 L485.1667,669.5612 L495,669.3706 L504.8333,670.0649 L514.6667,668.386 L524.5,669.332 " fill="#FEFECE" style="stroke: #A80036; stroke-width: 1.5;"/><!--class Xxx--><polygon fill="#FEFECE" filter="url(#fdc2lox)" points="481,737.1992,481,737.2891,486.6,737.1832,492.2,737.1328,497.8,737.1892,503.4,737.0994,509,737.1992,508.7883,737.1992,508.9257,745.2258,509.2174,753.2523,509.0327,761.2789,509.1897,769.3055,509,777.332,509,777.2752,503.4,777.5451,497.8,777.2601,492.2,777.3873,486.6,777.3093,481,777.332,480.89,777.332,481.2339,769.3055,480.8973,761.2789,480.9303,753.2523,481.1931,745.2258,481,737.1992" style="stroke: #A80036; stroke-width: 1.5;"/><text fill="#000000" font-family="sans-serif" font-size="12" lengthAdjust="spacingAndGlyphs" textLength="22" x="484" y="753.8008">Xxx</text><path d="M482,761.332 L482,761.4903 L487.2,761.0527 L492.4,761.5648 L497.6,761.6091 L502.8,761.4938 L508,761.332 " fill="#FEFECE" style="stroke: #A80036; stroke-width: 1.5;"/><path d="M482,769.332 L482,769.0512 L487.2,769.0861 L492.4,769.327 L497.6,769.492 L502.8,769.4873 L508,769.332 " fill="#FEFECE" style="stroke: #A80036; stroke-width: 1.5;"/><polygon fill="#FBFB77" filter="url(#fdc2lox)" points="346.5,744.6992,346.5884,744.6992,346.2726,749.7613,346.4878,754.8234,346.3372,759.8855,346.5692,764.9477,346.5,770.0098,346.5,770.5676,356.4,769.7036,366.3,769.9355,376.2,769.4186,386.1,770.5381,396,770.2064,405.9,770.1898,415.8,770.1612,425.7,770.3622,435.6,769.8757,445.5,770.0098,445.4315,770.0098,445.6173,766.9477,445.2606,763.8855,445.6515,760.8234,445.2566,757.7613,445.5,754.6992,445.6215,754.8207,443.3733,752.5725,441.622,750.8212,439.5991,748.7983,437.5481,746.7473,435.5,744.6992,435.5,744.5607,425.6111,744.7652,415.7222,744.5082,405.8333,744.6136,395.9444,744.0698,386.0556,745.3005,376.1667,744.3675,366.2778,744.8264,356.3889,745.2573,346.5,744.6992" style="stroke: #A80036; stroke-width: 1.0;"/><polygon fill="#FBFB77" points="346.5,744.6992,346.2531,744.6992,346.547,749.7613,346.5546,754.8234,346.3732,759.8855,346.706,764.9477,346.5,770.0098,346.5,770.0333,356.4,770.3997,366.3,769.3166,376.2,769.8203,386.1,769.9355,396,770.7158,405.9,769.4961,415.8,770.4586,425.7,769.3967,435.6,770.7093,445.5,770.0098,445.493,770.0098,445.6577,768.5477,445.6691,767.0855,445.5901,765.6234,445.4966,764.1613,445.5,762.6992,445.5226,762.8441,452.5629,761.6178,459.5944,760.335,466.6913,759.4719,473.7355,758.27,480.8,757.1992,480.8075,757.3056,473.7404,756.7047,466.6727,756.0959,459.6087,755.5399,452.5514,755.0774,445.5,754.6992,445.6323,754.8315,443.4658,752.665,441.4963,750.6955,439.6492,748.8484,437.6271,746.8264,435.5,744.6992,435.5,744.5505,425.6111,744.9673,415.7222,745.4128,405.8333,744.9671,395.9444,744.1915,386.0556,745.0445,376.1667,745.2585,366.2778,744.4361,356.3889,744.3948,346.5,744.6992" style="stroke: #A80036; stroke-width: 1.0;"/><path d="M435.5,744.6992 L435.6981,744.6992 L435.2096,746.6992 L435.8215,748.6992 L435.7738,750.6992 L435.7054,752.6992 L435.5,754.6992 " fill="#FBFB77" style="stroke: #A80036; stroke-width: 1.0;"/><path d="M445.5,754.6992 L445.5,754.8645 L443.5,754.5516 L441.5,754.4957 L439.5,754.5566 L437.5,754.8689 L435.5,754.6992 " fill="#FBFB77" style="stroke: #A80036; stroke-width: 1.0;"/><text fill="#000000" font-family="sans-serif" font-size="13" lengthAdjust="spacingAndGlyphs" textLength="78" x="352.5" y="762.2676">エンティティ</text><path d="M54.32,359.6992 L54.32,359.8354 L60.176,359.7137 L66.032,359.3742 L71.888,359.8364 L77.744,359.7667 L83.6,359.6992 " fill="none" style="stroke: #000000; stroke-width: 1.0;"/><polygon fill="#000000" points="88.7,359.6992,88.608,359.4922,86.9067,358.9142,85.0227,357.9253,83.3037,357.3075,81.4606,356.4106,79.7,355.6992,79.7707,355.7699,80.4195,356.4187,81.297,357.2963,82.2228,358.222,82.9027,358.902,83.7,359.6992,83.6533,359.6526,83.0439,360.6431,82.1324,361.3316,81.2484,362.0476,80.6309,363.0301,79.7,363.6992,79.6043,363.4838,81.4712,362.8345,83.3239,362.153,85.1578,361.4294,86.8153,360.3086,88.7,359.6992" style="stroke: #000000; stroke-width: 1.0;"/><path d="M137.23,359.6992 L137.23,359.9183 L143.126,359.3708 L149.022,359.4906 L154.918,359.9625 L160.814,359.473 L166.71,359.6992 " fill="none" style="stroke: #000000; stroke-width: 1.0;"/><polygon fill="#000000" points="171.84,359.6992,171.8542,359.7312,170.0169,358.8473,168.252,358.1263,166.4374,357.2933,164.6426,356.505,162.84,355.6992,162.9562,355.8155,163.6174,356.4766,164.4939,357.3532,165.1005,357.9597,165.9064,358.7657,166.84,359.6992,166.99,359.8492,166.1313,360.5906,165.3771,361.4363,164.4257,362.085,163.8059,363.0651,162.84,363.6992,162.8181,363.65,164.5796,362.7632,166.3774,361.9585,168.1594,361.1178,170.1051,360.6458,171.84,359.6992" style="stroke: #000000; stroke-width: 1.0;"/><path d="M242.27,359.6992 L242.27,359.8456 L248.212,359.6178 L254.154,359.3738 L260.096,359.9769 L266.038,359.44 L271.98,359.6992 " fill="none" style="stroke: #000000; stroke-width: 1.0;"/><polygon fill="#000000" points="277.16,359.6992,277.2216,359.8378,275.2902,358.7422,273.4957,357.9545,271.7302,357.2321,269.9042,356.3736,268.16,355.6992,268.2828,355.822,269.1096,356.6488,269.6965,357.2357,270.5409,358.0801,271.3267,358.866,272.16,359.6992,272.1127,359.652,271.3069,360.4461,270.4823,361.2215,269.7938,362.133,268.944,362.8832,268.16,363.6992,268.122,363.6138,269.961,362.9015,271.7457,362.067,273.6482,361.4977,275.3486,360.4736,277.16,359.6992" style="stroke: #000000; stroke-width: 1.0;"/><path d="M380.54,359.6992 L380.54,359.723 L386.56,359.8366 L392.58,359.6788 L398.6,359.8449 L404.62,359.8904 L410.64,359.6992 " fill="none" style="stroke: #000000; stroke-width: 1.0;"/><polygon fill="#000000" points="415.88,359.6992,415.8231,359.5712,414.1084,358.9631,412.3769,358.3171,410.4811,357.3018,408.6888,356.5191,406.88,355.6992,407.0339,355.8531,407.5785,356.3978,408.4039,357.2231,409.2975,358.1168,409.9702,358.7895,410.88,359.6992,410.8948,359.714,410.0679,360.4872,409.2731,361.2924,408.4224,362.0416,407.601,362.8202,406.88,363.6992,406.8305,363.5879,408.6466,362.8242,410.5611,362.2817,412.2428,361.2154,414.0951,360.5333,415.88,359.6992" style="stroke: #000000; stroke-width: 1.0;"/><path d="M558.25,359.6992 L558.25,359.8121 L564.214,359.5179 L570.178,359.8068 L576.142,359.6565 L582.106,359.7297 L588.07,359.6992 " fill="none" style="stroke: #000000; stroke-width: 1.0;"/><polygon fill="#000000" points="593.26,359.6992,593.2079,359.5819,591.4231,358.8161,589.573,357.9036,587.8408,357.2561,586.003,356.3709,584.26,355.6992,584.1454,355.5846,585.2225,356.6617,586.0153,357.4545,586.5055,357.9447,587.4798,358.919,588.26,359.6992,588.2633,359.7025,587.5514,360.5906,586.6727,361.312,585.7333,361.9726,584.9977,362.8369,584.26,363.6992,584.2982,363.7851,586.1508,363.1035,587.9247,362.2447,589.7021,361.3938,591.5369,360.6723,593.26,359.6992" style="stroke: #000000; stroke-width: 1.0;"/><path d="M489.53,412.2692 L488.6039,412.2238 L490.2813,422.3693 L490.426,432.4396 L491.3461,442.548 L490.5981,452.5745 L492.1429,462.7135 L493.2772,472.8324 L492.3101,482.8481 L493.49,492.9692 " fill="none" style="stroke: #000000; stroke-width: 1.0;"/><polygon fill="#000000" points="493.74,497.9592,493.6561,497.9267,494.3674,496.0898,495.2575,494.3223,496.0869,492.5312,496.5009,490.5791,497.2987,488.7758,497.1822,488.6701,496.425,489.5107,495.6483,490.3336,494.9515,491.2291,494.3012,492.1668,493.4974,492.9651,493.4515,492.9145,492.7783,492.3357,491.6546,491.2605,490.9908,490.6921,490.15,489.9285,489.3081,489.1639,489.5022,489.2617,490.2015,490.9265,491.0128,492.6477,491.7482,494.3307,492.829,496.1878,493.74,497.9592" style="stroke: #000000; stroke-width: 1.0;"/><path d="M487,267.6892 L487.2011,267.6892 L487.0118,275.5892 L486.8992,283.4892 L486.8866,291.3892 L487.0938,299.2892 L487,307.1892 " fill="none" style="stroke: #000000; stroke-width: 1.0;"/><polygon fill="none" points="480,267.3292,479.8352,267.2715,481.5122,263.3685,482.7982,259.3286,483.9748,255.2504,485.532,251.3054,487,247.3292,486.84,247.2732,488.2211,251.2666,489.8209,255.3365,491.1726,259.3196,492.4341,263.2711,494,267.3292,494,267.2044,491.2,267.4494,488.4,267.2613,485.6,267.2622,482.8,267.1967,480,267.3292" style="stroke: #000000; stroke-width: 1.0;"/><path d="M487,128.4992 L487.0482,128.4992 L487.015,136.3972 L487.0829,144.2952 L486.9314,152.1932 L487.1299,160.0912 L487,167.9892 " fill="none" style="stroke: #000000; stroke-width: 1.0;"/><polygon fill="none" points="480,128.2292,480.0827,128.2582,481.6248,124.3079,482.8086,120.2322,484.2546,116.2483,485.4632,112.1813,487,108.2292,486.878,108.1865,488.2881,112.1901,489.7803,116.2223,491.1326,120.2056,492.6251,124.238,494,128.2292,494,128.2491,491.2,128.3344,488.4,128.0246,485.6,128.17,482.8,127.9883,480,128.2292" style="stroke: #000000; stroke-width: 1.0;"/><path d="M645.73,386.5292 L644.9861,386.4927 L645.2229,396.8064 L645.5868,407.1263 L644.388,417.3695 L644.3608,427.6702 L642.7005,437.8907 L643.4432,448.2292 L642.0804,458.4643 L641.8011,468.7527 L641.1514,479.0228 L641.5345,489.3437 L640.18,499.5792 " fill="none" style="stroke: #000000; stroke-width: 1.0;"/><polygon fill="#000000" points="639.94,504.6092,640.059,504.6696,640.7081,502.7901,641.5286,500.9976,642.4897,499.2764,643.5199,497.5903,644.397,495.8265,644.5216,495.9647,643.5287,496.5531,642.8595,497.5003,642.0111,498.2489,641.0505,498.8731,640.1968,499.6158,640.1922,499.6117,639.3631,498.7073,638.5039,497.7759,638.0506,497.2106,637.1573,496.2484,636.4075,495.4157,636.2457,495.3535,637.1585,497.2715,637.7988,499.0847,638.6682,500.986,639.2227,502.7663,639.94,504.6092" style="stroke: #000000; stroke-width: 1.0;"/><path d="M535.74,524.6992 L535.74,524.7467 L544.634,524.5427 L553.528,524.7797 L562.422,525.0013 L571.316,524.8269 L580.21,524.6992 " fill="none" style="stroke: #000000; stroke-width: 1.0;"/><polygon fill="#000000" points="530.72,524.6992,530.7381,524.7399,532.5873,525.6506,534.2496,526.1409,536.0564,526.9561,537.915,527.8879,539.72,528.6992,539.858,528.8373,538.8727,527.852,538.2946,527.2738,537.1627,526.1419,536.3871,525.3664,535.72,524.6992,535.5823,524.5615,536.4061,523.7853,537.3875,523.1667,538.0624,522.2416,539.0672,521.6465,539.72,520.6992,539.8105,520.9029,537.966,521.6028,536.1228,522.3056,534.2466,522.934,532.5534,523.9744,530.72,524.6992" style="stroke: #000000; stroke-width: 1.0;"/><path d="M495,551.4792 L495.4305,551.4792 L494.4777,561.4892 L494.6251,571.4992 L495.358,581.5092 L494.3622,591.5192 L494.2657,601.5292 L495.8814,611.5392 L494.9021,621.5492 L495,631.5592 " fill="none" style="stroke: #000000; stroke-width: 1.0;"/><polygon fill="#000000" points="495,636.8392,494.8899,636.7903,495.6295,634.9634,496.6075,633.2425,497.4429,631.4583,498.3878,629.7227,499,627.8392,499.0893,627.9286,498.0804,628.5196,497.5058,629.545,496.7395,630.3788,495.92,631.1592,495,631.8392,494.9553,631.7945,494.1638,631.0031,493.2974,630.1366,492.4406,629.2798,491.6615,628.5007,491,627.8392,490.9522,627.818,491.7561,629.6197,492.6396,631.4568,493.5183,633.2918,494.0923,634.9913,495,636.8392" style="stroke: #000000; stroke-width: 1.0;"/><path d="M444.29,524.6992 L444.29,524.9391 L447.306,524.4644 L450.322,524.6945 L453.338,524.7371 L456.354,524.3861 L459.37,524.6992 " fill="none" style="stroke: #000000; stroke-width: 1.0; stroke-dasharray: 1.0,3.0;"/><polygon fill="none" points="444.28,531.6992,444.3221,531.8196,440.3516,530.5039,436.2854,528.9146,432.2823,527.5059,428.2895,526.1264,424.28,524.6992,424.2417,524.5899,428.2745,523.2835,432.3458,522.0872,436.3514,520.7034,440.2908,519.1301,444.28,517.6992,444.0878,517.6992,444.2331,520.4992,444.2033,523.2992,444.2204,526.0992,444.5221,528.8992,444.28,531.6992" style="stroke: #000000; stroke-width: 1.0;"/><path d="M495,677.5592 L495.2215,677.5592 L494.7714,688.4192 L495.2146,699.2792 L495.0669,710.1392 L495.5506,720.9992 L495,731.8592 " fill="none" style="stroke: #000000; stroke-width: 1.0;"/><polygon fill="#000000" points="495,736.8792,494.8467,736.8111,495.5783,734.9807,496.5174,733.2425,497.5311,731.5375,498.4141,729.7744,499,727.8792,499.173,728.0522,498.1086,728.5878,497.2745,729.3537,496.5895,730.2688,495.8547,731.1339,495,731.8792,495.0416,731.9208,494.0414,730.9207,493.2916,730.1708,492.7125,729.5917,491.8605,728.7397,491,727.8792,490.9263,727.8465,491.6022,729.5913,492.3876,731.3848,493.2854,733.2283,494.3088,735.1276,495,736.8792" style="stroke: #000000; stroke-width: 1.0;"/></g></svg>