<?xml version="1.0" encoding="UTF-8" standalone="no"?><svg xmlns="http://www.w3.org/2000/svg" xmlns:xlink="http://www.w3.org/1999/xlink" contentScriptType="application/ecmascript" contentStyleType="text/css" height="782px" preserveAspectRatio="none" style="width:740px;height:782px;" version="1.1" viewBox="0 0 740 782" width="740px" zoomAndPan="magnify"><defs><filter height="300%" id="fsvrjmb" width="300%" x="-1" y="-1"><feGaussianBlur result="blurOut" stdDeviation="2.0"/><feColorMatrix in="blurOut" result="blurOut2" type="matrix" values="0 0 0 0 0 0 0 0 0 0 0 0 0 0 0 0 0 0 .4 0"/><feOffset dx="4.0" dy="4.0" in="blurOut2" result="blurOut3"/><feBlend in="SourceGraphic" in2="blurOut3" mode="normal"/></filter></defs><g><text fill="#000000" font-family="sans-serif" font-size="18" lengthAdjust="spacingAndGlyphs" textLength="198" x="275.5" y="16.708">管理画面基本クラス構成</text><!--class Server--><polygon fill="#FEFECE" filter="url(#fsvrjmb)" points="6,330.4531,6,330.4529,15.6,331.0306,25.2,330.4525,34.8,330.9788,44.4,329.9082,54,330.4531,54.7138,330.4531,54.3518,341.0078,54.3175,351.5625,53.2983,362.1172,53.4996,372.6719,54,383.2266,54,383.0216,44.4,383.1859,34.8,383.842,25.2,382.7087,15.6,382.603,6,383.2266,6.1363,383.2266,5.5918,372.6719,6.2919,362.1172,6.2613,351.5625,6.7292,341.0078,6,330.4531" style="stroke: #A80036; stroke-width: 1.5;"/><text fill="#000000" font-family="sans-serif" font-size="12" lengthAdjust="spacingAndGlyphs" textLength="40" x="10" y="346.5918">Server</text><path d="M7,354.4219 L7,353.5702 L16.2,355.064 L25.4,355.1957 L34.6,353.9369 L43.8,354.6005 L53,354.4219 " fill="#FEFECE" style="stroke: #A80036; stroke-width: 1.5;"/><path d="M7,362.4219 L7,362.1206 L16.2,362.0053 L25.4,362.6574 L34.6,363.0704 L43.8,362.4343 L53,362.4219 " fill="#FEFECE" style="stroke: #A80036; stroke-width: 1.5;"/><text fill="#000000" font-family="sans-serif" font-size="11" lengthAdjust="spacingAndGlyphs" textLength="36" x="12" y="376.6323">+run()</text><!--class Runner--><polygon fill="#FEFECE" filter="url(#fsvrjmb)" points="89.5,330.4531,89.5,330.4609,99.7,330.1547,109.9,330.7661,120.1,330.7545,130.3,330.085,140.5,330.4531,141.172,330.4531,140.897,341.0078,140.5902,351.5625,140.3689,362.1172,140.8026,372.6719,140.5,383.2266,140.5,383.0599,130.3,383.1276,120.1,383.3232,109.9,383.1381,99.7,383.8723,89.5,383.2266,89.7058,383.2266,89.9608,372.6719,89.8603,362.1172,89.3779,351.5625,89.8114,341.0078,89.5,330.4531" style="stroke: #A80036; stroke-width: 1.5;"/><text fill="#000000" font-family="sans-serif" font-size="12" lengthAdjust="spacingAndGlyphs" textLength="45" x="92.5" y="346.5918">Runner</text><path d="M90.5,354.4219 L90.5,354.1037 L100.3,354.9788 L110.1,354.6888 L119.9,355.3425 L129.7,355.3949 L139.5,354.4219 " fill="#FEFECE" style="stroke: #A80036; stroke-width: 1.5;"/><path d="M90.5,362.4219 L90.5,362.4608 L100.3,361.9766 L110.1,362.5654 L119.9,361.5479 L129.7,361.5295 L139.5,362.4219 " fill="#FEFECE" style="stroke: #A80036; stroke-width: 1.5;"/><text fill="#000000" font-family="sans-serif" font-size="11" lengthAdjust="spacingAndGlyphs" textLength="36" x="95.5" y="376.6323">+run()</text><!--class Application--><polygon fill="#FEFECE" filter="url(#fsvrjmb)" points="175.5,330.4531,175.5,330.1286,184.875,330.241,194.25,329.8095,203.625,329.7537,213,330.9008,222.375,330.1729,231.75,330.2437,241.125,330.6572,250.5,330.4531,249.883,330.4531,250.9876,341.0078,250.3761,351.5625,250.45,362.1172,250.6015,372.6719,250.5,383.2266,250.5,383.0004,241.125,383.3325,231.75,382.8685,222.375,382.9008,213,382.6127,203.625,383.6937,194.25,382.7068,184.875,383.3532,175.5,383.2266,174.8142,383.2266,174.791,372.6719,175.7412,362.1172,175.1844,351.5625,175.4405,341.0078,175.5,330.4531" style="stroke: #A80036; stroke-width: 1.5;"/><text fill="#000000" font-family="sans-serif" font-size="12" lengthAdjust="spacingAndGlyphs" textLength="69" x="178.5" y="346.5918">Application</text><path d="M176.5,354.4219 L176.5,353.9798 L186.9286,354.2019 L197.3571,354.3473 L207.7857,354.5389 L218.2143,355.0067 L228.6429,354.9913 L239.0714,355.3588 L249.5,354.4219 " fill="#FEFECE" style="stroke: #A80036; stroke-width: 1.5;"/><path d="M176.5,362.4219 L176.5,363.2348 L186.9286,361.6357 L197.3571,361.4666 L207.7857,361.8206 L218.2143,362.6848 L228.6429,362.0212 L239.0714,362.2796 L249.5,362.4219 " fill="#FEFECE" style="stroke: #A80036; stroke-width: 1.5;"/><text fill="#000000" font-family="sans-serif" font-size="11" lengthAdjust="spacingAndGlyphs" textLength="55" x="181.5" y="376.6323">+handle()</text><!--class ControllerFactory--><polygon fill="#FEFECE" filter="url(#fsvrjmb)" points="285.5,330.4531,285.5,330.9764,295.7727,329.9555,306.0455,330.3212,316.3182,330.4548,326.5909,330.1342,336.8636,331.0074,347.1364,329.8867,357.4091,330.9396,367.6818,329.7093,377.9545,330.2287,388.2273,330.2272,398.5,330.4531,398.9999,330.4531,398.8012,341.0078,399.1905,351.5625,398.9967,362.1172,398.4968,372.6719,398.5,383.2266,398.5,383.9275,388.2273,382.8789,377.9545,383.6735,367.6818,383.4001,357.4091,382.5207,347.1364,383.8333,336.8636,383.4611,326.5909,383.1689,316.3182,383.738,306.0455,383.2809,295.7727,382.6502,285.5,383.2266,284.8754,383.2266,285.9341,372.6719,284.9674,362.1172,285.3799,351.5625,285.562,341.0078,285.5,330.4531" style="stroke: #A80036; stroke-width: 1.5;"/><text fill="#000000" font-family="sans-serif" font-size="12" lengthAdjust="spacingAndGlyphs" textLength="107" x="288.5" y="346.5918">ControllerFactory</text><path d="M286.5,354.4219 L286.5,354.4293 L296.5909,353.7114 L306.6818,354.0268 L316.7727,355.1375 L326.8636,354.7995 L336.9545,353.8521 L347.0455,355.3244 L357.1364,354.2242 L367.2273,354.554 L377.3182,353.4648 L387.4091,354.7421 L397.5,354.4219 " fill="#FEFECE" style="stroke: #A80036; stroke-width: 1.5;"/><path d="M286.5,362.4219 L286.5,363.0702 L296.5909,362.1703 L306.6818,361.9733 L316.7727,363.3276 L326.8636,362.5688 L336.9545,362.3758 L347.0455,363.0696 L357.1364,363.0054 L367.2273,362.0794 L377.3182,363.2931 L387.4091,362.7457 L397.5,362.4219 " fill="#FEFECE" style="stroke: #A80036; stroke-width: 1.5;"/><text fill="#000000" font-family="sans-serif" font-size="11" lengthAdjust="spacingAndGlyphs" textLength="53" x="291.5" y="376.6323">+invoke()</text><!--class Admin\XxxController--><polygon fill="#FEFECE" filter="url(#fsvrjmb)" points="433.5,304.9531,433.5,304.2475,443.5667,305.0327,453.6333,305.605,463.7,305.6414,473.7667,304.9945,483.8333,305.1374,493.9,304.5003,503.9667,304.6704,514.0333,304.7229,524.1,305.3483,534.1667,304.9569,544.2333,305.066,554.3,304.3812,564.3667,304.564,574.4333,305.0678,584.5,304.9531,584.7939,304.9531,583.9468,315.3523,585.1817,325.7516,583.8776,336.1508,583.7885,346.55,584.9327,356.9492,584.8652,367.3484,583.781,377.7477,584.6867,388.1469,585.2254,398.5461,584.5,408.9453,584.5,408.7047,574.4333,409.1887,564.3667,408.2603,554.3,408.9161,544.2333,408.2179,534.1667,408.6899,524.1,408.2596,514.0333,409.2606,503.9667,408.9924,493.9,408.8534,483.8333,409.1411,473.7667,408.7868,463.7,408.2543,453.6333,409.4858,443.5667,409.2423,433.5,408.9453,432.9688,408.9453,432.8758,398.5461,433.2115,388.1469,433.3567,377.7477,433.7211,367.3484,434.0202,356.9492,433.3639,346.55,433.1837,336.1508,433.018,325.7516,433.0505,315.3523,433.5,304.9531" style="stroke: #A80036; stroke-width: 1.5;"/><text fill="#000000" font-family="sans-serif" font-size="12" lengthAdjust="spacingAndGlyphs" textLength="122" x="448" y="321.0918">Admin\XxxController</text><path d="M434.5,328.9219 L434.5,328.4864 L444.4333,329.7154 L454.3667,328.2307 L464.3,328.0445 L474.2333,329.5114 L484.1667,328.8754 L494.1,329.8082 L504.0333,329.7526 L513.9667,328.5166 L523.9,328.0265 L533.8333,329.0471 L543.7667,328.3854 L553.7,328.7552 L563.6333,329.6639 L573.5667,329.7134 L583.5,328.9219 " fill="#FEFECE" style="stroke: #A80036; stroke-width: 1.5;"/><text fill="#000000" font-family="sans-serif" font-size="11" lengthAdjust="spacingAndGlyphs" textLength="139" x="439.5" y="343.1323">+BcMessageComponent</text><path d="M434.5,349.7266 L434.5,350.3453 L444.4333,349.7943 L454.3667,350.5747 L464.3,350.3944 L474.2333,350.4896 L484.1667,350.3666 L494.1,350.465 L504.0333,349.2032 L513.9667,348.8553 L523.9,349.061 L533.8333,349.3462 L543.7667,350.3529 L553.7,350.6471 L563.6333,348.8109 L573.5667,350.6577 L583.5,349.7266 " fill="#FEFECE" style="stroke: #A80036; stroke-width: 1.5;"/><text fill="#000000" font-family="sans-serif" font-size="11" lengthAdjust="spacingAndGlyphs" textLength="113" x="439.5" y="363.937">+一覧を表示：index()</text><text fill="#000000" font-family="sans-serif" font-size="11" lengthAdjust="spacingAndGlyphs" textLength="93" x="439.5" y="376.7417">+新規追加：add()</text><text fill="#000000" font-family="sans-serif" font-size="11" lengthAdjust="spacingAndGlyphs" textLength="71" x="439.5" y="389.5464">+編集：edit()</text><text fill="#000000" font-family="sans-serif" font-size="11" lengthAdjust="spacingAndGlyphs" textLength="85" x="439.5" y="402.3511">+削除：delete()</text><!--class BcAdminAppController--><polygon fill="#FEFECE" filter="url(#fsvrjmb)" points="426,166.9531,426,167.5585,435.7647,166.8326,445.5294,166.4934,455.2941,167.443,465.0588,167.5119,474.8235,166.3994,484.5882,166.6054,494.3529,167.5564,504.1176,166.3056,513.8824,166.7071,523.6471,167.3053,533.4118,167.2071,543.1765,166.9109,552.9412,166.3157,562.7059,166.3143,572.4706,167.3792,582.2353,167.5659,592,166.9531,591.8897,166.9531,592.7143,176.751,591.324,186.5488,591.5871,196.3467,592.3784,206.1445,591.6756,215.9424,591.2921,225.7402,591.3422,235.5381,592,245.3359,592,246.0312,582.2353,245.5418,572.4706,244.675,562.7059,245.8017,552.9412,245.027,543.1765,244.9116,533.4118,245.7375,523.6471,244.6001,513.8824,244.6156,504.1176,245.5299,494.3529,245.2773,484.5882,245.8175,474.8235,246.0387,465.0588,245.8734,455.2941,244.7123,445.5294,245.112,435.7647,245.4137,426,245.3359,425.7037,245.3359,426.209,235.5381,425.826,225.7402,425.8471,215.9424,425.578,206.1445,425.5287,196.3467,426.2568,186.5488,425.9783,176.751,426,166.9531" style="stroke: #A80036; stroke-width: 1.5;"/><text fill="#000000" font-family="sans-serif" font-size="12" lengthAdjust="spacingAndGlyphs" textLength="138" x="440" y="183.0918">BcAdminAppController</text><path d="M427,190.9219 L427,190.7879 L437.25,191.3707 L447.5,190.2219 L457.75,191.8506 L468,191.7707 L478.25,190.7317 L488.5,190.888 L498.75,191.1434 L509,191.6308 L519.25,191.1634 L529.5,191.8935 L539.75,190.0884 L550,191.5308 L560.25,191.1943 L570.5,190.8109 L580.75,191.6135 L591,190.9219 " fill="#FEFECE" style="stroke: #A80036; stroke-width: 1.5;"/><text fill="#000000" font-family="sans-serif" font-size="11" lengthAdjust="spacingAndGlyphs" textLength="154" x="432" y="205.1323">+AuthenticationComponent</text><path d="M427,211.7266 L427,211.4962 L437.25,211.6171 L447.5,211.6499 L457.75,212.2955 L468,210.7409 L478.25,211.8968 L488.5,212.3767 L498.75,211.082 L509,211.6296 L519.25,211.9606 L529.5,212.6746 L539.75,212.2837 L550,212.5708 L560.25,212.6229 L570.5,212.5913 L580.75,211.4054 L591,211.7266 " fill="#FEFECE" style="stroke: #A80036; stroke-width: 1.5;"/><text fill="#000000" font-family="sans-serif" font-size="11" lengthAdjust="spacingAndGlyphs" textLength="87" x="432" y="225.937">+invokeAction()</text><text fill="#000000" font-family="sans-serif" font-size="11" lengthAdjust="spacingAndGlyphs" textLength="55" x="432" y="238.7417">+render()</text><!--class BcAdminAppView--><polygon fill="#FEFECE" filter="url(#fsvrjmb)" points="619.5,330.4531,619.5,330.554,629.5909,330.5978,639.6818,329.8412,649.7727,331.1213,659.8636,331.106,669.9545,330.2991,680.0455,331.1496,690.1364,329.7493,700.2273,330.5411,710.3182,329.7319,720.4091,330.4068,730.5,330.4531,731.1416,330.4531,730.9409,341.0078,731.2311,351.5625,730.5028,362.1172,730.1135,372.6719,730.5,383.2266,730.5,382.776,720.4091,383.5582,710.3182,383.0892,700.2273,382.8708,690.1364,382.6415,680.0455,383.0168,669.9545,383.3873,659.8636,383.9636,649.7727,383.4566,639.6818,383.8269,629.5909,383.8602,619.5,383.2266,619.105,383.2266,619.1663,372.6719,620.0454,362.1172,619.1135,351.5625,619.5412,341.0078,619.5,330.4531" style="stroke: #A80036; stroke-width: 1.5;"/><text fill="#000000" font-family="sans-serif" font-size="12" lengthAdjust="spacingAndGlyphs" textLength="105" x="622.5" y="346.5918">BcAdminAppView</text><path d="M620.5,354.4219 L620.5,355.1676 L630.4091,354.2468 L640.3182,355.1748 L650.2273,354.2088 L660.1364,355.0884 L670.0455,354.3412 L679.9545,354.3672 L689.8636,355.0557 L699.7727,355.1518 L709.6818,355.3138 L719.5909,354.5336 L729.5,354.4219 " fill="#FEFECE" style="stroke: #A80036; stroke-width: 1.5;"/><path d="M620.5,362.4219 L620.5,362.1916 L630.4091,361.4939 L640.3182,361.5024 L650.2273,362.7622 L660.1364,363.1517 L670.0455,362.3581 L679.9545,362.5645 L689.8636,362.9164 L699.7727,362.6055 L709.6818,361.8098 L719.5909,362.4674 L729.5,362.4219 " fill="#FEFECE" style="stroke: #A80036; stroke-width: 1.5;"/><text fill="#000000" font-family="sans-serif" font-size="11" lengthAdjust="spacingAndGlyphs" textLength="55" x="625.5" y="376.6323">+render()</text><!--class AppController--><polygon fill="#FEFECE" filter="url(#fsvrjmb)" points="433.5,28.9531,433.5,29.2262,443.5667,28.4777,453.6333,28.2744,463.7,29.5733,473.7667,28.462,483.8333,29.2571,493.9,28.2266,503.9667,29.4735,514.0333,29.2209,524.1,28.8957,534.1667,28.5921,544.2333,29.6138,554.3,29.5033,564.3667,28.4761,574.4333,28.2226,584.5,28.9531,584.8645,28.9531,583.9677,38.751,584.1337,48.5488,584.9298,58.3467,583.9254,68.1445,585.0083,77.9424,584.2185,87.7402,584.8497,97.5381,584.5,107.3359,584.5,107.9263,574.4333,106.9376,564.3667,106.9482,554.3,107.6343,544.2333,107.2108,534.1667,106.7439,524.1,106.9519,514.0333,107.1063,503.9667,107.8742,493.9,107.2489,483.8333,107.117,473.7667,107.8444,463.7,107.2473,453.6333,107.9916,443.5667,106.9382,433.5,107.3359,434.0563,107.3359,434.0815,97.5381,433.2315,87.7402,434.046,77.9424,433.3306,68.1445,433.7099,58.3467,434.113,48.5488,432.773,38.751,433.5,28.9531" style="stroke: #A80036; stroke-width: 1.5;"/><text fill="#000000" font-family="sans-serif" font-size="12" lengthAdjust="spacingAndGlyphs" textLength="85" x="466.5" y="45.0918">AppController</text><path d="M434.5,52.9219 L434.5,52.0224 L444.4333,52.8905 L454.3667,53.3245 L464.3,52.3239 L474.2333,52.9359 L484.1667,52.6834 L494.1,52.1017 L504.0333,53.8438 L513.9667,53.2836 L523.9,52.6282 L533.8333,53.1746 L543.7667,52.0902 L553.7,53.3723 L563.6333,52.6433 L573.5667,52.8623 L583.5,52.9219 " fill="#FEFECE" style="stroke: #A80036; stroke-width: 1.5;"/><text fill="#000000" font-family="sans-serif" font-size="11" lengthAdjust="spacingAndGlyphs" textLength="139" x="439.5" y="67.1323">+BcMessageComponent</text><text fill="#000000" font-family="sans-serif" font-size="11" lengthAdjust="spacingAndGlyphs" textLength="120" x="439.5" y="79.937">+SecurityComponent</text><text fill="#000000" font-family="sans-serif" font-size="11" lengthAdjust="spacingAndGlyphs" textLength="128" x="439.5" y="92.7417">+PaginatorComponent</text><path d="M434.5,99.3359 L434.5,99.3497 L444.4333,100.1282 L454.3667,98.5191 L464.3,100.2851 L474.2333,98.8684 L484.1667,99.227 L494.1,99.5567 L504.0333,99.246 L513.9667,100.3106 L523.9,99.7312 L533.8333,99.8404 L543.7667,99.2925 L553.7,100.2396 L563.6333,99.8402 L573.5667,98.5024 L583.5,99.3359 " fill="#FEFECE" style="stroke: #A80036; stroke-width: 1.5;"/><!--class BcAdminXxxHelper--><polygon fill="#FEFECE" filter="url(#fsvrjmb)" points="606.5,500.9531,606.5,500.2393,616.4167,501.4543,626.3333,501.3369,636.25,500.4229,646.1667,501.1128,656.0833,501.2489,666,500.8073,675.9167,501.0695,685.8333,501.541,695.75,501.4293,705.6667,500.5918,715.5833,500.9667,725.5,500.9531,725.5126,500.9531,725.4252,508.9469,725.5823,516.9406,725.4936,524.9344,725.6298,532.9281,725.5,540.9219,725.5,541.3161,715.5833,540.6772,705.6667,541.5158,695.75,540.3234,685.8333,540.6828,675.9167,540.7648,666,541.1114,656.0833,540.9198,646.1667,541.5631,636.25,540.6768,626.3333,540.8259,616.4167,541.166,606.5,540.9219,606.4378,540.9219,606.5106,532.9281,606.3131,524.9344,606.678,516.9406,606.735,508.9469,606.5,500.9531" style="stroke: #A80036; stroke-width: 1.5;"/><text fill="#000000" font-family="sans-serif" font-size="12" lengthAdjust="spacingAndGlyphs" textLength="113" x="609.5" y="517.0918">BcAdminXxxHelper</text><path d="M607.5,524.9219 L607.5,525.8806 L617.25,524.5376 L627,525.891 L636.75,524.6299 L646.5,525.5531 L656.25,524.216 L666,523.963 L675.75,524.3159 L685.5,524.2684 L695.25,524.0469 L705,525.3372 L714.75,524.0309 L724.5,524.9219 " fill="#FEFECE" style="stroke: #A80036; stroke-width: 1.5;"/><path d="M607.5,532.9219 L607.5,533.1803 L617.25,533.7306 L627,532.2019 L636.75,532.9609 L646.5,531.9445 L656.25,533.2489 L666,532.2497 L675.75,533.735 L685.5,533.8704 L695.25,532.4286 L705,533.1816 L714.75,532.5304 L724.5,532.9219 " fill="#FEFECE" style="stroke: #A80036; stroke-width: 1.5;"/><!--class XxxService--><polygon fill="#FEFECE" filter="url(#fsvrjmb)" points="482.5,494.4531,482.5,494.0494,492.6429,494.2514,502.7857,494.1775,512.9286,495.0595,523.0714,493.8778,533.2143,494.9467,543.3571,494.9966,553.5,494.4531,552.8278,494.4531,552.9939,505.0078,553.2028,515.5625,553.1722,526.1172,553.4555,536.6719,553.5,547.2266,553.5,547.3391,543.3571,547.2071,533.2143,547.3407,523.0714,547.3563,512.9286,547.895,502.7857,547.0813,492.6429,547.4511,482.5,547.2266,482.9947,547.2266,482.0278,536.6719,482.563,526.1172,481.8954,515.5625,482.0352,505.0078,482.5,494.4531" style="stroke: #A80036; stroke-width: 1.5;"/><text fill="#000000" font-family="sans-serif" font-size="12" lengthAdjust="spacingAndGlyphs" textLength="64" x="486" y="510.5918">XxxService</text><path d="M483.5,518.4219 L483.5,518.4959 L493.3571,517.4557 L503.2143,518.553 L513.0714,517.8237 L522.9286,518.6693 L532.7857,517.521 L542.6429,517.8375 L552.5,518.4219 " fill="#FEFECE" style="stroke: #A80036; stroke-width: 1.5;"/><text fill="#000000" font-family="sans-serif" font-size="11" lengthAdjust="spacingAndGlyphs" textLength="59" x="488.5" y="532.6323">+XxxTable</text><path d="M483.5,539.2266 L483.5,539.9573 L493.3571,539.8108 L503.2143,538.9272 L513.0714,538.798 L522.9286,539.9522 L532.7857,539.3282 L542.6429,538.4812 L552.5,539.2266 " fill="#FEFECE" style="stroke: #A80036; stroke-width: 1.5;"/><!--class XxxServiceInterface--><polygon fill="#FEFECE" filter="url(#fsvrjmb)" points="288.5,468.9531,288.5,468.5938,298.4375,469.1929,308.375,469.1685,318.3125,469.1131,328.25,469.2199,338.1875,469.5654,348.125,468.6093,358.0625,468.2958,368,469.5013,377.9375,469.3082,387.875,468.4376,397.8125,468.8577,407.75,469.5169,417.6875,468.5622,427.625,469.048,437.5625,469.2484,447.5,468.9531,447.13,468.9531,447.6856,479.3523,448.2288,489.7516,446.8621,500.1508,446.8339,510.55,446.9253,520.9492,446.8813,531.3484,447.2751,541.7477,446.9676,552.1469,447.9883,562.5461,447.5,572.9453,447.5,572.9706,437.5625,572.6239,427.625,572.2687,417.6875,572.6725,407.75,572.9644,397.8125,572.5746,387.875,573.2777,377.9375,573.2929,368,573.2606,358.0625,573.6723,348.125,572.5742,338.1875,573.2703,328.25,572.6086,318.3125,572.5861,308.375,572.2457,298.4375,572.9537,288.5,572.9453,288.4023,572.9453,287.9903,562.5461,287.841,552.1469,289.007,541.7477,288.6775,531.3484,288.2427,520.9492,289.1596,510.55,288.3282,500.1508,288.9689,489.7516,288.4489,479.3523,288.5,468.9531" style="stroke: #A80036; stroke-width: 1.5;"/><text fill="#000000" font-family="sans-serif" font-size="12" lengthAdjust="spacingAndGlyphs" textLength="120" x="308" y="485.0918">XxxServiceInterface</text><path d="M289.5,492.9219 L289.5,493.4637 L299.3125,493.3277 L309.125,492.5418 L318.9375,491.9224 L328.75,492.7511 L338.5625,493.0899 L348.375,493.6272 L358.1875,493.1305 L368,493.3011 L377.8125,491.9534 L387.625,492.3239 L397.4375,493.7311 L407.25,493.5521 L417.0625,493.3573 L426.875,492.7296 L436.6875,492.6671 L446.5,492.9219 " fill="#FEFECE" style="stroke: #A80036; stroke-width: 1.5;"/><path d="M289.5,500.9219 L289.5,501.7129 L299.3125,500.9342 L309.125,500.9555 L318.9375,499.9336 L328.75,500.8135 L338.5625,500.8232 L348.375,500.3238 L358.1875,501.9068 L368,501.6795 L377.8125,501.889 L387.625,501.0009 L397.4375,500.1325 L407.25,500.9478 L417.0625,501.4954 L426.875,500.9892 L436.6875,500.111 L446.5,500.9219 " fill="#FEFECE" style="stroke: #A80036; stroke-width: 1.5;"/><text fill="#000000" font-family="sans-serif" font-size="11" lengthAdjust="spacingAndGlyphs" textLength="86" x="294.5" y="515.1323">+作成：create()</text><text fill="#000000" font-family="sans-serif" font-size="11" lengthAdjust="spacingAndGlyphs" textLength="89" x="294.5" y="527.937">+編集：update()</text><text fill="#000000" font-family="sans-serif" font-size="11" lengthAdjust="spacingAndGlyphs" textLength="123" x="294.5" y="540.7417">+単一データ取得：get()</text><text fill="#000000" font-family="sans-serif" font-size="11" lengthAdjust="spacingAndGlyphs" textLength="135" x="294.5" y="553.5464">+一覧データ取得：index()</text><text fill="#000000" font-family="sans-serif" font-size="11" lengthAdjust="spacingAndGlyphs" textLength="147" x="294.5" y="566.3511">+初期データ取得：getNew()</text><!--class XxxTable--><polygon fill="#FEFECE" filter="url(#fsvrjmb)" points="488.5,632.9531,488.5,632.2332,498.3333,632.8215,508.1667,632.3273,518,633.4622,527.8333,632.6635,537.6667,632.4918,547.5,632.9531,547.6572,632.9531,547.4893,640.9469,547.5618,648.9406,547.2831,656.9344,547.7051,664.9281,547.5,672.9219,547.5,672.4262,537.6667,672.4761,527.8333,672.9002,518,672.2816,508.1667,672.9529,498.3333,673.6277,488.5,672.9219,488.5361,672.9219,488.75,664.9281,488.3059,656.9344,488.6597,648.9406,488.3361,640.9469,488.5,632.9531" style="stroke: #A80036; stroke-width: 1.5;"/><text fill="#000000" font-family="sans-serif" font-size="12" lengthAdjust="spacingAndGlyphs" textLength="53" x="491.5" y="649.0918">XxxTable</text><path d="M489.5,656.9219 L489.5,656.234 L499,657.6184 L508.5,657.1337 L518,656.719 L527.5,656.5421 L537,656.3232 L546.5,656.9219 " fill="#FEFECE" style="stroke: #A80036; stroke-width: 1.5;"/><path d="M489.5,664.9219 L489.5,664.7735 L499,665.2534 L508.5,664.2335 L518,665.231 L527.5,665.572 L537,664.1245 L546.5,664.9219 " fill="#FEFECE" style="stroke: #A80036; stroke-width: 1.5;"/><!--class Xxx--><polygon fill="#FEFECE" filter="url(#fsvrjmb)" points="505.5,732.9531,505.5,732.9246,510.5,733.17,515.5,732.9214,520.5,732.9894,525.5,732.8783,530.5,732.9531,530.6364,732.9531,530.287,740.9469,530.441,748.9406,530.4323,756.9344,530.3467,764.9281,530.5,772.9219,530.5,772.9635,525.5,773.16,520.5,773.0107,515.5,772.8631,510.5,773.0364,505.5,772.9219,505.6347,772.9219,505.2902,764.9281,505.4464,756.9344,505.3027,748.9406,505.4527,740.9469,505.5,732.9531" style="stroke: #A80036; stroke-width: 1.5;"/><text fill="#000000" font-family="sans-serif" font-size="12" lengthAdjust="spacingAndGlyphs" textLength="19" x="508.5" y="749.0918">Xxx</text><path d="M506.5,756.9219 L506.5,756.9381 L511.1,757.233 L515.7,756.9013 L520.3,756.9097 L524.9,757.2002 L529.5,756.9219 " fill="#FEFECE" style="stroke: #A80036; stroke-width: 1.5;"/><path d="M506.5,764.9219 L506.5,765.1474 L511.1,764.6194 L515.7,765.2002 L520.3,764.8251 L524.9,765.1846 L529.5,764.9219 " fill="#FEFECE" style="stroke: #A80036; stroke-width: 1.5;"/><polygon fill="#FBFB77" filter="url(#fsvrjmb)" points="371.5,740.4531,371.3538,740.4531,371.6396,745.4797,371.66,750.5063,371.53,755.5328,371.4995,760.5594,371.5,765.5859,371.5,765.5622,381.4,765.5235,391.3,765.954,401.2,765.2818,411.1,766.1312,421,766.0433,430.9,765.7393,440.8,765.4154,450.7,765.7496,460.6,766.0983,470.5,765.5859,470.3773,765.5859,470.4864,762.5594,470.318,759.5328,470.4931,756.5063,470.5107,753.4797,470.5,750.4531,470.3658,750.3189,468.6286,748.5817,466.3388,746.292,464.4958,744.4489,462.5876,742.5407,460.5,740.4531,460.5,740.2576,450.6111,740.1733,440.7222,740.5858,430.8333,740.0436,420.9444,740.8644,411.0556,740.3099,401.1667,740.6489,391.2778,740.0447,381.3889,739.8626,371.5,740.4531" style="stroke: #A80036; stroke-width: 1.0;"/><polygon fill="#FBFB77" points="371.5,740.4531,371.7166,740.4531,371.7196,745.4797,371.6387,750.5063,371.3713,755.5328,371.2762,760.5594,371.5,765.5859,371.5,765.5868,381.4,765.6727,391.3,765.3398,401.2,766.0679,411.1,765.8441,421,765.1615,430.9,765.4912,440.8,765.8224,450.7,765.8355,460.6,765.5359,470.5,765.5859,470.3835,765.5859,470.2951,764.1594,470.5688,762.7328,470.7144,761.3063,470.6658,759.8797,470.5,758.4531,470.5163,758.5563,477.5059,757.4922,484.4776,756.314,491.4713,755.2755,498.4067,753.8671,505.42,752.9531,505.4169,752.9102,498.4404,752.5151,491.464,752.1205,484.4807,751.63,477.4845,750.9605,470.5,750.4531,470.5959,750.549,468.5509,748.504,466.4788,746.4319,464.5775,744.5306,462.4647,742.4179,460.5,740.4531,460.5,739.9832,450.6111,740.571,440.7222,739.99,430.8333,740.9854,420.9444,740.0567,411.0556,741.1125,401.1667,740.0801,391.2778,739.779,381.3889,739.7796,371.5,740.4531" style="stroke: #A80036; stroke-width: 1.0;"/><path d="M460.5,740.4531 L460.327,740.4531 L460.1794,742.4531 L460.5682,744.4531 L460.4596,746.4531 L460.4552,748.4531 L460.5,750.4531 " fill="#FBFB77" style="stroke: #A80036; stroke-width: 1.0;"/><path d="M470.5,750.4531 L470.5,750.5904 L468.5,750.7691 L466.5,750.4577 L464.5,750.2923 L462.5,750.4676 L460.5,750.4531 " fill="#FBFB77" style="stroke: #A80036; stroke-width: 1.0;"/><text fill="#000000" font-family="sans-serif" font-size="13" lengthAdjust="spacingAndGlyphs" textLength="78" x="377.5" y="757.52">エンティティ</text><path d="M54.24,356.9531 L54.24,357.1405 L60.222,356.8947 L66.204,356.6911 L72.186,356.9304 L78.168,357.1317 L84.15,356.9531 " fill="none" style="stroke: #000000; stroke-width: 1.0;"/><polygon fill="#000000" points="89.37,356.9531,89.4409,357.1126,87.6636,356.3637,85.7794,355.3744,83.8865,354.3652,82.2416,353.9141,80.37,352.9531,80.3106,352.8937,81.0671,353.6503,81.9158,354.499,82.9102,355.4933,83.5279,356.111,84.37,356.9531,84.5364,357.1195,83.5336,357.7167,82.6099,358.393,82.1311,359.5143,81.1454,360.1285,80.37,360.9531,80.3042,360.8051,82.1167,360.0332,83.8747,359.1387,85.8667,358.7707,87.6332,357.8952,89.37,356.9531" style="stroke: #000000; stroke-width: 1.0;"/><path d="M140.65,356.9531 L140.65,356.943 L146.57,357.2828 L152.49,357.0367 L158.41,357.2603 L164.33,356.6822 L170.25,356.9531 " fill="none" style="stroke: #000000; stroke-width: 1.0;"/><polygon fill="#000000" points="175.41,356.9531,175.394,356.9171,173.6132,356.1604,171.8627,355.4718,170.0267,354.5908,168.1832,353.6928,166.41,352.9531,166.4559,352.999,167.3444,353.8875,167.918,354.4611,168.938,355.4811,169.5527,356.0958,170.41,356.9531,170.2625,356.8056,169.7306,357.8737,168.6629,358.406,167.9611,359.3042,167.1057,360.0488,166.41,360.9531,166.3412,360.7983,168.2747,360.2986,170.0495,359.4419,171.8767,358.7032,173.6077,357.7479,175.41,356.9531" style="stroke: #000000; stroke-width: 1.0;"/><path d="M250.54,356.9531 L250.54,356.6339 L256.442,357.2619 L262.344,357.2138 L268.246,356.874 L274.148,357.1854 L280.05,356.9531 " fill="none" style="stroke: #000000; stroke-width: 1.0;"/><polygon fill="#000000" points="285.2,356.9531,285.2209,357.0002,283.3445,356.0282,281.5827,355.3141,279.7428,354.4243,277.916,353.5641,276.2,352.9531,276.1954,352.9485,277.0514,353.8045,277.9424,354.6955,278.5227,355.2758,279.2419,355.995,280.2,356.9531,280.3626,357.1158,279.3343,357.6874,278.7133,358.6665,277.7806,359.3337,276.9618,360.1149,276.2,360.9531,276.2021,360.9578,277.9246,359.9836,279.7689,359.2832,281.6745,358.7207,283.4101,357.7759,285.2,356.9531" style="stroke: #000000; stroke-width: 1.0;"/><path d="M398.75,356.9531 L398.75,356.9581 L404.618,357.0715 L410.486,357.0842 L416.354,356.7068 L422.222,356.8686 L428.09,356.9531 " fill="none" style="stroke: #000000; stroke-width: 1.0;"/><polygon fill="#000000" points="433.21,356.9531,433.15,356.8181,431.3997,356.13,429.6054,355.3427,427.7974,354.5248,426.1006,353.9569,424.21,352.9531,424.2533,352.9964,425.0796,353.8227,425.7235,354.4666,426.4682,355.2113,427.5138,356.2569,428.21,356.9531,428.1326,356.8758,427.2968,357.64,426.5834,358.5265,425.8656,359.4088,424.8792,360.0223,424.21,360.9531,424.1841,360.8949,426.103,360.3625,427.8188,359.3729,429.5829,358.4922,431.3146,357.5384,433.21,356.9531" style="stroke: #000000; stroke-width: 1.0;"/><path d="M584.54,356.9531 L584.54,356.9718 L590.438,357.0713 L596.336,356.8521 L602.234,356.9878 L608.132,357.2551 L614.03,356.9531 " fill="none" style="stroke: #000000; stroke-width: 1.0;"/><polygon fill="#000000" points="619.17,356.9531,619.1869,356.9911,617.3926,356.2041,615.6386,355.5076,613.839,354.7084,611.993,353.8049,610.17,352.9531,610.0122,352.7953,610.9257,353.7088,611.8464,354.6296,612.6323,355.4154,613.349,356.1321,614.17,356.9531,614.0635,356.8466,613.4544,357.8375,612.6621,358.6452,611.705,359.2881,610.8712,360.0543,610.17,360.9531,610.1611,360.9331,612.0438,360.3192,613.7941,359.4074,615.6221,358.6703,617.2794,357.5493,619.17,356.9531" style="stroke: #000000; stroke-width: 1.0;"/><path d="M511.85,409.2131 L511.6698,409.2031 L512.8859,419.2286 L512.8758,429.1859 L512.8758,439.1439 L513.4437,449.1333 L514.4671,459.1481 L514.4238,469.1036 L516.4239,479.1727 L516.29,489.1231 " fill="none" style="stroke: #000000; stroke-width: 1.0;"/><polygon fill="#000000" points="516.58,494.3731,516.4572,494.3263,517.3933,492.5751,517.8173,490.6287,518.9124,488.9381,519.1696,486.9282,520.0863,485.1695,520.1143,485.1947,519.3825,486.0581,518.4435,486.7356,517.8697,487.7408,516.9481,488.434,516.309,489.3805,516.2672,489.3339,515.3558,488.5013,514.5276,487.7614,513.6614,486.9792,512.7781,486.178,512.098,485.6032,511.9904,485.5482,513.1771,487.4506,513.885,489.1082,514.6118,490.7755,515.6922,492.6235,516.58,494.3731" style="stroke: #000000; stroke-width: 1.0;"/><path d="M509,265.5531 L508.9453,265.5531 L508.7971,273.4011 L509.0221,281.2491 L509.2944,289.0971 L508.7066,296.9451 L509,304.7931 " fill="none" style="stroke: #000000; stroke-width: 1.0;"/><polygon fill="none" points="502,265.3231,502.1537,265.3769,503.2336,261.2649,504.6481,257.2699,506.3947,253.3913,507.3906,249.2499,509,245.3231,508.9414,245.3026,510.4386,249.3366,511.8056,253.3251,513.0332,257.2647,514.6581,261.3434,516,265.3231,516,265.4978,513.2,265.2873,510.4,265.2331,507.6,265.2101,504.8,265.1654,502,265.3231" style="stroke: #000000; stroke-width: 1.0;"/><path d="M509,127.3231 L508.7075,127.3231 L508.7407,135.1631 L508.708,143.0031 L508.8001,150.8431 L509.0465,158.6831 L509,166.5231 " fill="none" style="stroke: #000000; stroke-width: 1.0;"/><polygon fill="none" points="502,127.2031,502.2315,127.2841,503.4011,123.2035,504.9318,119.2493,506.3924,115.2705,507.404,111.1345,509,107.2031,509.2264,107.2824,510.5715,111.2632,511.765,115.1909,513.2136,119.2079,514.8138,123.278,516,127.2031,516,127.2412,513.2,127.1959,510.4,127.4125,507.6,127.238,504.8,127.0877,502,127.2031" style="stroke: #000000; stroke-width: 1.0;"/><path d="M673.57,383.6231 L674.5179,383.6757 L672.9974,393.7927 L673.0163,403.9951 L672.8022,414.1845 L671.3528,424.3054 L669.8641,434.4241 L670.9395,444.6851 L669.1567,454.7875 L669.2306,464.9929 L667.8774,475.1192 L668.758,485.3694 L667.36,495.4931 " fill="none" style="stroke: #000000; stroke-width: 1.0;"/><polygon fill="#000000" points="667.08,500.5031,666.9415,500.4319,667.9797,498.7508,668.7712,496.9428,669.8228,495.2687,670.5826,493.4444,671.5869,491.746,671.6519,491.8188,670.7262,492.4806,669.8306,493.1762,668.9898,493.9332,668.1975,494.7447,667.3652,495.5113,667.5081,495.6387,666.5224,494.5868,665.7967,493.7669,665.0708,492.9468,664.338,492.1205,663.6,491.2896,663.7371,491.3414,664.4119,493.1761,665.1686,495.0417,665.7999,496.86,666.477,498.6956,667.08,500.5031" style="stroke: #000000; stroke-width: 1.0;"/><path d="M558.91,520.9531 L558.91,520.908 L568.38,521.2868 L577.85,520.586 L587.32,520.1789 L596.79,521.1012 L606.26,520.9531 " fill="none" style="stroke: #000000; stroke-width: 1.0;"/><polygon fill="#000000" points="553.55,520.9531,553.6297,521.1325,555.3843,521.8304,557.2033,522.673,558.8719,523.1774,560.6992,524.0389,562.55,524.9531,562.6074,525.0105,561.5868,523.99,560.8754,523.2786,560.0811,522.4843,559.3456,521.7487,558.55,520.9531,558.6441,521.0472,559.3027,520.1058,560.1948,519.3979,560.9801,518.5832,561.9165,517.9196,562.55,516.9531,562.6051,517.0772,560.6628,517.5569,558.87,518.3731,557.1199,519.2854,555.3909,520.2451,553.55,520.9531" style="stroke: #000000; stroke-width: 1.0;"/><path d="M518,547.6331 L518.0972,547.6331 L518.3551,557.6044 L518.0459,567.5756 L518.3621,577.5469 L517.1644,587.5181 L518.364,597.4894 L517.8637,607.4606 L517.2697,617.4319 L518,627.4031 " fill="none" style="stroke: #000000; stroke-width: 1.0;"/><polygon fill="#000000" points="518,632.6631,518.1765,632.7416,518.9865,630.946,519.6731,629.0956,520.3656,627.2478,521.2673,625.493,522,623.6631,521.9332,623.5963,521.2306,624.4937,520.55,625.4132,519.4355,625.8986,518.8729,626.936,518,627.6631,518.0475,627.7106,517.2084,626.8715,516.5195,626.1827,515.6145,625.2776,514.6351,624.2983,514,623.6631,514.0005,623.6634,515.0035,625.5536,515.5591,627.2449,516.495,629.1054,517.415,630.9587,518,632.6631" style="stroke: #000000; stroke-width: 1.0;"/><path d="M467.69,520.9531 L467.69,521.0575 L470.61,521.1098 L473.53,520.6487 L476.45,520.6792 L479.37,521.0164 L482.29,520.9531 " fill="none" style="stroke: #000000; stroke-width: 1.0; stroke-dasharray: 1.0,3.0;"/><polygon fill="none" points="467.69,527.9531,467.771,528.1847,463.6756,526.512,459.7587,525.3493,455.7222,523.845,451.6173,522.1454,447.69,520.9531,447.6761,520.9133,451.6457,519.4265,455.6809,518.127,459.7207,516.8407,463.7463,515.5141,467.69,513.9531,467.8272,513.9531,467.8019,516.7531,467.7538,519.5531,467.6376,522.3531,467.5347,525.1531,467.69,527.9531" style="stroke: #000000; stroke-width: 1.0;"/><path d="M518,673.3131 L517.4101,673.3131 L518.9344,684.1731 L517.4264,695.0331 L518.1861,705.8931 L517.7916,716.7531 L518,727.6131 " fill="none" style="stroke: #000000; stroke-width: 1.0;"/><polygon fill="#000000" points="518,732.6331,517.8027,732.5454,518.6372,730.7608,519.7926,729.1187,520.6097,727.3263,521.4185,725.5302,522,723.6331,522.0784,723.7115,521.1172,724.3504,520.574,725.4071,519.6211,726.0542,518.8491,726.8823,518,727.6331,517.8664,727.4996,517.1841,726.8172,516.3468,725.9799,515.5621,725.1952,514.9554,724.5886,514,723.6331,514.1835,723.7147,514.6144,725.3507,515.6567,727.2583,516.4082,729.0368,517.0307,730.7579,518,732.6331" style="stroke: #000000; stroke-width: 1.0;"/></g></svg>