<?xml version="1.0" encoding="UTF-8" standalone="no"?><svg xmlns="http://www.w3.org/2000/svg" xmlns:xlink="http://www.w3.org/1999/xlink" contentScriptType="application/ecmascript" contentStyleType="text/css" height="586px" preserveAspectRatio="none" style="width:691px;height:586px;" version="1.1" viewBox="0 0 691 586" width="691px" zoomAndPan="magnify"><defs><filter height="300%" id="fi17mm4" width="300%" x="-1" y="-1"><feGaussianBlur result="blurOut" stdDeviation="2.0"/><feColorMatrix in="blurOut" result="blurOut2" type="matrix" values="0 0 0 0 0 0 0 0 0 0 0 0 0 0 0 0 0 0 .4 0"/><feOffset dx="4.0" dy="4.0" in="blurOut2" result="blurOut3"/><feBlend in="SourceGraphic" in2="blurOut3" mode="normal"/></filter></defs><g><text fill="#000000" font-family="sans-serif" font-size="18" lengthAdjust="spacingAndGlyphs" textLength="126" x="287.5" y="17.4023">インストーラー</text><!--class InstallationsController--><polygon fill="#FEFECE" filter="url(#fi17mm4)" points="437,29.1992,437,29.4245,447.125,28.4887,457.25,29.6818,467.375,29.6598,477.5,28.6372,487.625,28.6056,497.75,29.2542,507.875,28.7582,518,28.7882,528.125,29.0311,538.25,29.4506,548.375,29.4248,558.5,29.2794,568.625,28.5521,578.75,29.4517,588.875,29.4271,599,29.1992,598.8025,29.1992,599.2384,39.69,598.5188,50.1809,599.2175,60.6717,599.1917,71.1625,598.3088,81.6533,599.6017,92.1441,598.7441,102.635,599.6964,113.1258,599.703,123.6166,599,134.1074,599,133.9005,588.875,133.4691,578.75,133.5205,568.625,134.8027,558.5,134.3541,548.375,133.8152,538.25,133.941,528.125,133.9191,518,134.4433,507.875,134.6942,497.75,133.9661,487.625,134.143,477.5,134.5243,467.375,133.748,457.25,134.5622,447.125,134.6814,437,134.1074,436.3372,134.1074,436.6234,123.6166,436.5692,113.1258,436.9734,102.635,436.9595,92.1441,437.1317,81.6533,437.6738,71.1625,436.3394,60.6717,437.6735,50.1809,436.8527,39.69,437,29.1992" style="stroke: #A80036; stroke-width: 1.5;"/><text fill="#000000" font-family="sans-serif" font-size="12" lengthAdjust="spacingAndGlyphs" textLength="123" x="456.5" y="45.8008">InstallationsController</text><path d="M438,53.332 L438,54.1014 L448,54.0169 L458,53.7757 L468,52.6807 L478,52.5705 L488,53.0717 L498,53.0441 L508,52.9213 L518,53.5295 L528,53.0045 L538,53.5382 L548,53.4672 L558,53.7484 L568,52.5887 L578,53.0958 L588,54.1694 L598,53.332 " fill="#FEFECE" style="stroke: #A80036; stroke-width: 1.5;"/><path d="M438,61.332 L438,60.5181 L448,61.3326 L458,60.7031 L468,62.2851 L478,61.378 L488,61.7394 L498,60.4905 L508,60.8452 L518,61.3825 L528,61.0365 L538,60.6526 L548,60.9416 L558,61.8607 L568,61.0482 L578,62.1378 L588,61.115 L598,61.332 " fill="#FEFECE" style="stroke: #A80036; stroke-width: 1.5;"/><text fill="#000000" font-family="sans-serif" font-size="11" lengthAdjust="spacingAndGlyphs" textLength="124" x="443" y="75.9668">+初期画面表示：index()</text><text fill="#000000" font-family="sans-serif" font-size="11" lengthAdjust="spacingAndGlyphs" textLength="113" x="443" y="88.9219">+ステップ２：step2()</text><text fill="#000000" font-family="sans-serif" font-size="11" lengthAdjust="spacingAndGlyphs" textLength="113" x="443" y="101.877">+ステップ３：step3()</text><text fill="#000000" font-family="sans-serif" font-size="11" lengthAdjust="spacingAndGlyphs" textLength="113" x="443" y="114.832">+ステップ４：step4()</text><text fill="#000000" font-family="sans-serif" font-size="11" lengthAdjust="spacingAndGlyphs" textLength="150" x="443" y="127.7871">+完了画面表示：completed()</text><!--class InstallationsService--><polygon fill="#FEFECE" filter="url(#fi17mm4)" points="461.5,265.6992,461.5,266.0662,471.7727,265.5931,482.0455,265.2505,492.3182,265.1986,502.5909,265.474,512.8636,266.2422,523.1364,265.1916,533.4091,265.1052,543.6818,264.9799,553.9545,265.9996,564.2273,266.1245,574.5,265.6992,574.5409,265.6992,574.7478,273.7258,574.6346,281.7523,574.5379,289.7789,574.2654,297.8055,574.5,305.832,574.5,305.1113,564.2273,306.0017,553.9545,306.5015,543.6818,306.292,533.4091,305.4205,523.1364,306.5671,512.8636,306.2767,502.5909,305.3986,492.3182,305.9452,482.0455,305.5168,471.7727,305.4101,461.5,305.832,461.494,305.832,461.3624,297.8055,461.2739,289.7789,461.4951,281.7523,461.5457,273.7258,461.5,265.6992" style="stroke: #A80036; stroke-width: 1.5;"/><text fill="#000000" font-family="sans-serif" font-size="12" lengthAdjust="spacingAndGlyphs" textLength="107" x="464.5" y="282.3008">InstallationsService</text><path d="M462.5,289.832 L462.5,289.9204 L472.5909,290.0915 L482.6818,290.2352 L492.7727,289.0324 L502.8636,289.2441 L512.9545,289.1468 L523.0455,289.5255 L533.1364,290.4678 L543.2273,290.4047 L553.3182,290.5 L563.4091,288.8893 L573.5,289.832 " fill="#FEFECE" style="stroke: #A80036; stroke-width: 1.5;"/><path d="M462.5,297.832 L462.5,297.5527 L472.5909,298.2475 L482.6818,296.8534 L492.7727,297.0609 L502.8636,297.6031 L512.9545,296.9748 L523.0455,298.0556 L533.1364,298.2094 L543.2273,296.9702 L553.3182,298.8121 L563.4091,298.6458 L573.5,297.832 " fill="#FEFECE" style="stroke: #A80036; stroke-width: 1.5;"/><!--class InstallationsServiceInterface--><polygon fill="#FEFECE" filter="url(#fi17mm4)" points="6,194.1992,6,194.2253,16,194.907,26,194.1182,36,193.571,46,194.86,56,194.3187,66,194.1209,76,194.3701,86,194.4428,96,194.2408,106,193.9872,116,193.637,126,193.899,136,194.7121,146,194.5117,156,193.5953,166,193.8829,176,194.1239,186,194.3269,196,194.5226,206,193.9433,216,194.5318,226,194.6978,236,193.4559,246,194.9041,256,194.8131,266,194.5686,276,194.1478,286,193.7675,296,193.5166,306,194.6268,316,194.2575,326,193.6207,336,193.6897,346,194.8924,356,194.0861,366,193.9573,376,194.2957,386,193.5926,396,193.6203,406,194.0255,416,194.0543,426,194.1992,426.652,194.1992,426.5597,204.3458,426.5831,214.4924,426.4494,224.639,425.8115,234.7856,426.6313,244.9322,426.5614,255.0788,426.0401,265.2254,426.0038,275.372,426.2027,285.5186,425.4561,295.6651,425.9242,305.8117,425.4051,315.9583,425.6953,326.1049,425.4965,336.2515,426.4513,346.3981,425.9409,356.5447,425.496,366.6913,426,376.8379,426,377.5382,416,377.3251,406,377.3942,396,376.8885,386,376.2351,376,376.6134,366,376.369,356,376.7142,346,377.3086,336,376.8406,326,377.5346,316,376.8523,306,377.4288,296,377.5522,286,376.6473,276,376.5107,266,376.1371,256,376.306,246,377.5801,236,376.5122,226,377.5037,216,377.0696,206,377.4245,196,376.1736,186,376.6976,176,376.3897,166,377.5342,156,376.8898,146,376.6956,136,377.264,126,376.9991,116,376.4861,106,376.5124,96,377.4461,86,377.5138,76,376.8317,66,376.7492,56,376.1008,46,377.0904,36,377.2794,26,376.9445,16,377.3063,6,376.8379,5.7352,376.8379,6.3697,366.6913,6.3218,356.5447,5.5298,346.3981,6.0913,336.2515,5.4532,326.1049,6.109,315.9583,6.4311,305.8117,5.4905,295.6651,5.2844,285.5186,5.991,275.372,6.4999,265.2254,6.7354,255.0788,5.5987,244.9322,5.8274,234.7856,5.502,224.639,5.6724,214.4924,6.6313,204.3458,6,194.1992" style="stroke: #A80036; stroke-width: 1.5;"/><text fill="#000000" font-family="sans-serif" font-size="12" lengthAdjust="spacingAndGlyphs" textLength="157" x="137.5" y="210.8008">InstallationsServiceInterface</text><path d="M7,218.332 L7,218.2736 L16.9524,217.5527 L26.9048,218.0604 L36.8571,217.7285 L46.8095,218.0328 L56.7619,218.4051 L66.7143,217.4747 L76.6667,217.5917 L86.619,217.6313 L96.5714,217.7023 L106.5238,218.1917 L116.4762,219.1588 L126.4286,218.9067 L136.381,217.9519 L146.3333,217.3385 L156.2857,218.5054 L166.2381,218.16 L176.1905,218.4026 L186.1429,218.0421 L196.0952,217.8691 L206.0476,219.2914 L216,217.5141 L225.9524,218.4072 L235.9048,218.7001 L245.8571,218.5786 L255.8095,218.3779 L265.7619,217.9252 L275.7143,218.4545 L285.6667,217.6468 L295.619,218.2986 L305.5714,218.9516 L315.5238,218.1747 L325.4762,218.0253 L335.4286,217.9562 L345.381,217.8314 L355.3333,217.9511 L365.2857,219.2275 L375.2381,218.9665 L385.1905,217.8837 L395.1429,217.6 L405.0952,218.5105 L415.0476,219.2392 L425,218.332 " fill="#FEFECE" style="stroke: #A80036; stroke-width: 1.5;"/><path d="M7,226.332 L7,226.7725 L16.9524,226.3205 L26.9048,226.388 L36.8571,227.3071 L46.8095,225.8018 L56.7619,225.7095 L66.7143,225.5649 L76.6667,225.7559 L86.619,226.3597 L96.5714,227.3141 L106.5238,226.2521 L116.4762,226.0336 L126.4286,227.1231 L136.381,226.8938 L146.3333,225.7946 L156.2857,226.2494 L166.2381,226.6998 L176.1905,226.7409 L186.1429,227.2058 L196.0952,226.0971 L206.0476,226.1404 L216,226.7728 L225.9524,225.5534 L235.9048,226.7429 L245.8571,226.1972 L255.8095,226.6633 L265.7619,227.177 L275.7143,226.4178 L285.6667,225.339 L295.619,227.02 L305.5714,226.4438 L315.5238,226.5358 L325.4762,226.3447 L335.4286,225.5424 L345.381,226.1604 L355.3333,226.4325 L365.2857,225.8102 L375.2381,226.2106 L385.1905,226.8573 L395.1429,227.2771 L405.0952,226.0924 L415.0476,225.8579 L425,226.332 " fill="#FEFECE" style="stroke: #A80036; stroke-width: 1.5;"/><text fill="#000000" font-family="sans-serif" font-size="11" lengthAdjust="spacingAndGlyphs" textLength="177" x="12" y="240.9668">+環境をチェックする：checkEnv()</text><text fill="#000000" font-family="sans-serif" font-size="11" lengthAdjust="spacingAndGlyphs" textLength="333" x="12" y="253.9219">+データベース設定ファイルを作成する：createDatabaseConfig()</text><text fill="#000000" font-family="sans-serif" font-size="11" lengthAdjust="spacingAndGlyphs" textLength="257" x="12" y="266.877">+データベースの接続確認：checkDbConnection()</text><text fill="#000000" font-family="sans-serif" font-size="11" lengthAdjust="spacingAndGlyphs" textLength="192" x="12" y="279.832">+テーブル作成：constructionTable()</text><text fill="#000000" font-family="sans-serif" font-size="11" lengthAdjust="spacingAndGlyphs" textLength="250" x="12" y="292.7871">+初期データ読み込み：loadDefaultDataPattern()</text><text fill="#000000" font-family="sans-serif" font-size="11" lengthAdjust="spacingAndGlyphs" textLength="217" x="12" y="305.7422">+システムデータ初期化：initSystemData()</text><text fill="#000000" font-family="sans-serif" font-size="11" lengthAdjust="spacingAndGlyphs" textLength="190" x="12" y="318.6973">+SecuritySalt設定：setSecuritySalt()</text><text fill="#000000" font-family="sans-serif" font-size="11" lengthAdjust="spacingAndGlyphs" textLength="232" x="12" y="331.6523">+初期ユーザーを作成する：addDefaultUser()</text><text fill="#000000" font-family="sans-serif" font-size="11" lengthAdjust="spacingAndGlyphs" textLength="273" x="12" y="344.6074">+コアプラグインをインストール：installCorePlugin()</text><text fill="#000000" font-family="sans-serif" font-size="11" lengthAdjust="spacingAndGlyphs" textLength="408" x="12" y="357.5625">+プラグインのアセットへのシンボリックリンクを作成：createPluginSymLinks()</text><text fill="#000000" font-family="sans-serif" font-size="11" lengthAdjust="spacingAndGlyphs" textLength="321" x="12" y="370.5176">+アップロード用初期フォルダを作成する：createDefaultFiles()</text><!--class UsersTable--><polygon fill="#FEFECE" filter="url(#fi17mm4)" points="361.5,437.1992,361.5,437.6636,371.6429,436.4673,381.7857,437.7723,391.9286,437.6769,402.0714,437.1491,412.2143,436.7736,422.3571,436.8592,432.5,437.1992,432.4734,437.1992,432.3034,445.2258,432.3059,453.2523,432.7426,461.2789,432.7135,469.3055,432.5,477.332,432.5,477.4359,422.3571,477.5466,412.2143,477.7646,402.0714,477.4844,391.9286,477.2121,381.7857,477.7846,371.6429,476.9452,361.5,477.332,361.5632,477.332,361.3001,469.3055,361.5362,461.2789,361.6093,453.2523,361.4501,445.2258,361.5,437.1992" style="stroke: #A80036; stroke-width: 1.5;"/><text fill="#000000" font-family="sans-serif" font-size="12" lengthAdjust="spacingAndGlyphs" textLength="65" x="364.5" y="453.8008">UsersTable</text><path d="M362.5,461.332 L362.5,460.4113 L372.3571,461.7322 L382.2143,461.4613 L392.0714,460.3997 L401.9286,460.5738 L411.7857,461.8666 L421.6429,460.9604 L431.5,461.332 " fill="#FEFECE" style="stroke: #A80036; stroke-width: 1.5;"/><path d="M362.5,469.332 L362.5,469.5705 L372.3571,468.3686 L382.2143,469.6174 L392.0714,469.4321 L401.9286,468.4533 L411.7857,470.1822 L421.6429,469.3867 L431.5,469.332 " fill="#FEFECE" style="stroke: #A80036; stroke-width: 1.5;"/><!--class SiteConfigsTable--><polygon fill="#FEFECE" filter="url(#fi17mm4)" points="467.5,437.1992,467.5,436.5292,477.6,436.9123,487.7,436.4687,497.8,437.3305,507.9,436.8279,518,436.4958,528.1,437.4132,538.2,437.2252,548.3,437.5101,558.4,436.4806,568.5,437.1992,568.6817,437.1992,568.4108,445.2258,568.4645,453.2523,568.261,461.2789,568.3003,469.3055,568.5,477.332,568.5,476.8112,558.4,476.951,548.3,476.7425,538.2,476.7883,528.1,476.8369,518,476.8484,507.9,477.0437,497.8,477.4034,487.7,476.7603,477.6,477.8955,467.5,477.332,467.6724,477.332,467.5622,469.3055,467.5773,461.2789,467.5671,453.2523,467.2744,445.2258,467.5,437.1992" style="stroke: #A80036; stroke-width: 1.5;"/><text fill="#000000" font-family="sans-serif" font-size="12" lengthAdjust="spacingAndGlyphs" textLength="95" x="470.5" y="453.8008">SiteConfigsTable</text><path d="M468.5,461.332 L468.5,461.5288 L478.4,461.0226 L488.3,460.8322 L498.2,462.1499 L508.1,461.3427 L518,461.9423 L527.9,460.628 L537.8,460.5499 L547.7,461.3345 L557.6,461.3583 L567.5,461.332 " fill="#FEFECE" style="stroke: #A80036; stroke-width: 1.5;"/><path d="M468.5,469.332 L468.5,469.6354 L478.4,469.2236 L488.3,469.6971 L498.2,469.4653 L508.1,468.537 L518,469.6117 L527.9,469.5043 L537.8,470.1636 L547.7,469.6958 L557.6,469.8583 L567.5,469.332 " fill="#FEFECE" style="stroke: #A80036; stroke-width: 1.5;"/><!--class PluginsTable--><polygon fill="#FEFECE" filter="url(#fi17mm4)" points="603.5,437.1992,603.5,437.1959,613.375,437.2109,623.25,436.8989,633.125,437.6758,643,437.1966,652.875,436.8243,662.75,437.584,672.625,437.047,682.5,437.1992,682.6598,437.1992,682.6379,445.2258,682.5384,453.2523,682.6851,461.2789,682.5359,469.3055,682.5,477.332,682.5,477.5724,672.625,477.2531,662.75,476.6965,652.875,476.9276,643,478.0801,633.125,476.6882,623.25,477.002,613.375,477.2581,603.5,477.332,603.3054,477.332,603.482,469.3055,603.6581,461.2789,603.647,453.2523,603.5419,445.2258,603.5,437.1992" style="stroke: #A80036; stroke-width: 1.5;"/><text fill="#000000" font-family="sans-serif" font-size="12" lengthAdjust="spacingAndGlyphs" textLength="73" x="606.5" y="453.8008">PluginsTable</text><path d="M604.5,461.332 L604.5,460.9385 L614.125,461.9327 L623.75,461.953 L633.375,462.1526 L643,461.9684 L652.625,460.7411 L662.25,461.5998 L671.875,461.5539 L681.5,461.332 " fill="#FEFECE" style="stroke: #A80036; stroke-width: 1.5;"/><path d="M604.5,469.332 L604.5,470.3282 L614.125,469.6766 L623.75,469.9079 L633.375,470.2559 L643,469.2599 L652.625,469.5107 L662.25,468.9373 L671.875,468.8749 L681.5,469.332 " fill="#FEFECE" style="stroke: #A80036; stroke-width: 1.5;"/><!--class User--><polygon fill="#FEFECE" filter="url(#fi17mm4)" points="381,537.1992,381,537.1014,387.4,537.0378,393.8,537.1856,400.2,536.9816,406.6,537.1776,413,537.1992,413.1064,537.1992,413.0864,545.2258,413.0249,553.2523,413.1701,561.2789,412.9562,569.3055,413,577.332,413,577.3661,406.6,577.2516,400.2,577.2941,393.8,577.1024,387.4,577.4971,381,577.332,381.0498,577.332,381.1127,569.3055,381.2145,561.2789,380.7873,553.2523,381.0506,545.2258,381,537.1992" style="stroke: #A80036; stroke-width: 1.5;"/><text fill="#000000" font-family="sans-serif" font-size="12" lengthAdjust="spacingAndGlyphs" textLength="26" x="384" y="553.8008">User</text><path d="M382,561.332 L382,561.5927 L388,561.5334 L394,561.1319 L400,561.0055 L406,561.3474 L412,561.332 " fill="#FEFECE" style="stroke: #A80036; stroke-width: 1.5;"/><path d="M382,569.332 L382,569.4076 L388,569.4001 L394,569.1731 L400,569.5004 L406,569.3319 L412,569.332 " fill="#FEFECE" style="stroke: #A80036; stroke-width: 1.5;"/><!--class SiteConfig--><polygon fill="#FEFECE" filter="url(#fi17mm4)" points="487,537.1992,487,537.7761,497.3333,537.8234,507.6667,537.5813,518,537.8804,528.3333,537.4527,538.6667,536.5527,549,537.1992,549.2189,537.1992,548.9525,545.2258,549.2239,553.2523,549.0735,561.2789,548.9551,569.3055,549,577.332,549,577.4512,538.6667,576.7139,528.3333,577.7488,518,576.6678,507.6667,577.0243,497.3333,576.761,487,577.332,486.9336,577.332,487.0594,569.3055,487.1,561.2789,486.8999,553.2523,487.0303,545.2258,487,537.1992" style="stroke: #A80036; stroke-width: 1.5;"/><text fill="#000000" font-family="sans-serif" font-size="12" lengthAdjust="spacingAndGlyphs" textLength="56" x="490" y="553.8008">SiteConfig</text><path d="M488,561.332 L488,561.4837 L498,561.2298 L508,560.6465 L518,562.1397 L528,561.1278 L538,562.0255 L548,561.332 " fill="#FEFECE" style="stroke: #A80036; stroke-width: 1.5;"/><path d="M488,569.332 L488,568.8474 L498,569.8125 L508,569.9461 L518,569.6556 L528,570.0178 L538,569.7625 L548,569.332 " fill="#FEFECE" style="stroke: #A80036; stroke-width: 1.5;"/><!--class Plugin--><polygon fill="#FEFECE" filter="url(#fi17mm4)" points="623,537.1992,623,537.0251,631,536.9683,639,537.0576,647,537.0325,655,537.3332,663,537.1992,663.1436,537.1992,662.9212,545.2258,663.0973,553.2523,662.9165,561.2789,662.8826,569.3055,663,577.332,663,577.3504,655,577.2378,647,577.4274,639,577.1183,631,577.2892,623,577.332,622.881,577.332,622.9694,569.3055,623.2149,561.2789,622.926,553.2523,623.2037,545.2258,623,537.1992" style="stroke: #A80036; stroke-width: 1.5;"/><text fill="#000000" font-family="sans-serif" font-size="12" lengthAdjust="spacingAndGlyphs" textLength="34" x="626" y="553.8008">Plugin</text><path d="M624,561.332 L624,561.4869 L631.6,561.1975 L639.2,561.4602 L646.8,561.6269 L654.4,561.1701 L662,561.332 " fill="#FEFECE" style="stroke: #A80036; stroke-width: 1.5;"/><path d="M624,569.332 L624,569.4147 L631.6,569.4741 L639.2,569.466 L646.8,569.1154 L654.4,569.3191 L662,569.332 " fill="#FEFECE" style="stroke: #A80036; stroke-width: 1.5;"/><path d="M518,134.4592 L517.052,134.4592 L517.7537,144.14 L517.0666,153.8208 L517.772,163.5015 L518.1181,173.1823 L518.2987,182.8631 L517.3257,192.5438 L518.3061,202.2246 L518.2176,211.9054 L517.9444,221.5861 L518.9455,231.2669 L517.6414,240.9477 L518.2405,250.6284 L518,260.3092 " fill="none" style="stroke: #000000; stroke-width: 1.0;"/><polygon fill="#000000" points="518,265.4492,518.06,265.4759,518.9201,263.7026,519.8215,261.9477,520.3419,260.0234,521.031,258.1741,522,256.4492,521.9113,256.3605,521.1011,257.1503,520.2633,257.9125,519.5993,258.8485,518.9412,259.7905,518,260.4492,517.9117,260.3609,517.3353,259.7845,516.4925,258.9417,515.5772,258.0265,514.8256,257.2748,514,256.4492,514.1507,256.5162,514.5883,258.1551,515.577,260.039,516.3591,261.831,517.295,263.6914,518,265.4492" style="stroke: #000000; stroke-width: 1.0;"/><path d="M446.3,285.6992 L446.3,285.7213 L449.318,285.3837 L452.336,285.4282 L455.354,286.0153 L458.372,285.4817 L461.39,285.6992 " fill="none" style="stroke: #000000; stroke-width: 1.0; stroke-dasharray: 1.0,3.0;"/><polygon fill="none" points="446.28,292.6992,446.2877,292.7212,442.3326,291.4495,438.1982,289.6655,434.2046,288.2839,430.275,287.085,426.28,285.6992,426.3082,285.7797,430.3392,284.4682,434.2782,282.8941,438.3428,281.6785,442.2486,280.0094,446.28,278.6992,446.4231,278.6992,446.4714,281.4992,446.4664,284.2992,446.2065,287.0992,446.1837,289.8992,446.28,292.6992" style="stroke: #000000; stroke-width: 1.0;"/><path d="M504.35,305.8092 L504.9477,306.2359 L498.7528,313.7922 L492.5151,321.3179 L486.7295,329.1664 L481.3152,337.2799 L475.715,345.2607 L470.8152,353.7415 L464.5081,361.2177 L459.6181,369.7055 L453.6996,377.459 L448.3224,385.5991 L441.5416,392.7371 L436.7228,401.2757 L430.5106,408.8197 L424.501,416.5082 L419.829,425.1516 L413.72,432.7692 " fill="none" style="stroke: #000000; stroke-width: 1.0;"/><polygon fill="#000000" points="410.6,437.1592,410.4923,436.9762,412.2142,436.0184,414.0543,435.2615,415.5877,433.9835,417.369,433.1266,419.0877,432.1634,419.084,432.1408,417.9937,432.4811,416.8942,432.7666,415.756,432.8185,414.6337,432.9668,413.5075,433.0915,413.4052,433.0745,413.3513,431.9804,413.3066,430.8878,413.0952,429.7674,412.7315,428.6218,412.5794,427.5113,412.3692,427.4682,412.3882,429.4829,411.5629,431.3244,411.6225,433.3474,410.8734,435.2045,410.6,437.1592" style="stroke: #000000; stroke-width: 1.0;"/><path d="M518,305.8092 L518.346,305.8092 L517.7507,315.5115 L518.224,325.2138 L518.6398,334.9161 L518.7444,344.6184 L518.3276,354.3208 L518.921,364.0231 L517.3369,373.7254 L517.1194,383.4277 L517.4318,393.13 L517.0499,402.8323 L517.4983,412.5346 L517.8689,422.2369 L518,431.9392 " fill="none" style="stroke: #000000; stroke-width: 1.0;"/><polygon fill="#000000" points="518,437.1592,517.9945,437.1568,518.9574,435.4292,519.4859,433.5085,520.6061,431.8508,521.2046,429.9613,522,428.1592,522.1066,428.2658,521.0276,428.7868,520.5386,429.8979,519.4615,430.4207,518.6924,431.2516,518,432.1592,517.979,432.1382,517.3245,431.4837,516.5078,430.667,515.6984,429.8576,514.7211,428.8804,514,428.1592,513.9369,428.1312,514.7758,429.9485,515.4454,431.6905,516.4196,433.5679,517.0973,435.3136,518,437.1592" style="stroke: #000000; stroke-width: 1.0;"/><path d="M532.1,305.8092 L531.4687,305.3437 L537.6603,313.5297 L544.2465,322.0066 L549.6678,329.6246 L555.7623,337.739 L561.8472,345.8462 L567.711,353.7905 L573.559,361.7231 L579.0748,369.4107 L585.2462,377.5818 L590.411,385.0106 L597.0952,393.5598 L601.9379,400.7512 L608.4996,409.21 L613.2539,416.3361 L619.8993,424.8567 L625.72,432.7692 " fill="none" style="stroke: #000000; stroke-width: 1.0;"/><polygon fill="#000000" points="628.96,437.1592,628.9058,437.1472,628.6093,435.2521,627.9941,433.2866,627.4504,431.3368,627.159,429.4428,626.8368,427.5419,626.6377,427.5119,626.6679,428.6606,626.2981,429.749,626.289,430.8918,626.1968,432.0221,625.9921,433.1354,626.0002,433.1896,624.904,433.1695,623.7896,433.0285,622.6376,432.6392,621.5029,432.3645,620.3986,432.2907,620.5215,432.5066,622.1183,433.2774,623.7843,434.1697,625.4933,435.1377,627.3218,436.3158,628.96,437.1592" style="stroke: #000000; stroke-width: 1.0;"/><path d="M397,477.5592 L396.5824,477.5592 L397.6165,488.4192 L397.293,499.2792 L397.0226,510.1392 L396.5703,520.9992 L397,531.8592 " fill="none" style="stroke: #000000; stroke-width: 1.0;"/><polygon fill="#000000" points="397,536.8792,396.9217,536.8444,397.6861,535.0286,398.4699,533.2214,399.3831,531.4717,400.3589,529.7498,401,527.8792,400.8639,527.7432,400.1695,528.6487,399.5675,529.6467,398.6335,530.3127,397.9242,531.2034,397,531.8792,397.034,531.9132,396.0316,530.9108,395.3799,530.2591,394.5506,529.4298,393.8759,528.7551,393,527.8792,392.7728,527.7783,393.685,529.6281,394.548,531.4561,395.2699,533.2214,396.0698,535.0214,397,536.8792" style="stroke: #000000; stroke-width: 1.0;"/><path d="M518,477.5592 L517.4922,477.5592 L517.6682,488.4192 L518.3341,499.2792 L518.123,510.1392 L517.8145,520.9992 L518,531.8592 " fill="none" style="stroke: #000000; stroke-width: 1.0;"/><polygon fill="#000000" points="518,536.8792,517.7793,536.7811,518.5745,534.979,519.7678,533.3538,520.4179,531.4872,521.0348,529.6058,522,527.8792,522.1732,528.0524,521.1066,528.5858,520.5503,529.6295,519.5306,530.2098,518.8394,531.1186,518,531.8792,518.1226,532.0019,517.1564,531.0356,516.2898,530.169,515.4261,529.3053,514.9742,528.8534,514,527.8792,514.1198,527.9324,514.6447,529.6102,515.7025,531.5248,516.5684,533.354,517.1289,535.0476,518,536.8792" style="stroke: #000000; stroke-width: 1.0;"/><path d="M643,477.5592 L642.35,477.5592 L642.3162,488.4192 L643.4019,499.2792 L643.2748,510.1392 L642.2603,520.9992 L643,531.8592 " fill="none" style="stroke: #000000; stroke-width: 1.0;"/><polygon fill="#000000" points="643,536.8792,643.0258,536.8907,643.6647,535.0191,644.8061,533.3708,645.1973,531.3891,645.997,529.589,647,527.8792,646.8605,527.7397,646.1472,528.6264,645.4321,529.5113,644.7761,530.4553,643.8312,531.1105,643,531.8792,642.9697,531.8489,642.0443,530.9235,641.2513,530.1305,640.7498,529.629,639.9445,528.8237,639,527.8792,638.879,527.8255,639.9349,529.7392,640.5375,531.4514,641.3314,533.2487,642.1648,535.0636,643,536.8792" style="stroke: #000000; stroke-width: 1.0;"/></g></svg>