<?xml version="1.0" encoding="UTF-8" standalone="no"?><svg xmlns="http://www.w3.org/2000/svg" xmlns:xlink="http://www.w3.org/1999/xlink" contentScriptType="application/ecmascript" contentStyleType="text/css" height="382px" preserveAspectRatio="none" style="width:361px;height:382px;" version="1.1" viewBox="0 0 361 382" width="361px" zoomAndPan="magnify"><defs><filter height="300%" id="fjpoh5p" width="300%" x="-1" y="-1"><feGaussianBlur result="blurOut" stdDeviation="2.0"/><feColorMatrix in="blurOut" result="blurOut2" type="matrix" values="0 0 0 0 0 0 0 0 0 0 0 0 0 0 0 0 0 0 .4 0"/><feOffset dx="4.0" dy="4.0" in="blurOut2" result="blurOut3"/><feBlend in="SourceGraphic" in2="blurOut3" mode="normal"/></filter></defs><g><text fill="#000000" font-family="sans-serif" font-size="18" lengthAdjust="spacingAndGlyphs" textLength="144" x="113" y="17.4023">パスワード再発行</text><!--class Admin\PasswordRequestsController--><polygon fill="#FEFECE" filter="url(#fjpoh5p)" points="72.5,29.1992,72.5,29.0356,82.6429,29.2032,92.7857,29.1193,102.9286,28.9972,113.0714,29.8105,123.2143,29.175,133.3571,28.5293,143.5,29.0981,153.6429,29.7056,163.7857,28.5336,173.9286,29.3808,184.0714,29.1315,194.2143,29.1634,204.3571,29.0444,214.5,29.8643,224.6429,29.1928,234.7857,29.782,244.9286,29.2618,255.0714,29.505,265.2143,29.8604,275.3571,28.561,285.5,29.1992,285.1982,29.1992,285.1639,39.074,284.766,48.9487,285.4966,58.8235,285.5146,68.6982,285.2905,78.573,285.557,88.4478,284.8806,98.3225,285.5,108.1973,285.5,108.7404,275.3571,107.5129,265.2143,108.8654,255.0714,108.2154,244.9286,108.7261,234.7857,108.821,224.6429,108.1946,214.5,108.4936,204.3571,107.6422,194.2143,108.8025,184.0714,108.5973,173.9286,107.7065,163.7857,107.8777,153.6429,108.16,143.5,108.6606,133.3571,108.8791,123.2143,107.7974,113.0714,108.682,102.9286,108.7673,92.7857,107.7893,82.6429,108.2902,72.5,108.1973,72.5993,108.1973,72.4868,98.3225,71.9494,88.4478,72.975,78.573,72.3615,68.6982,72.3062,58.8235,72.4461,48.9487,72.1927,39.074,72.5,29.1992" style="stroke: #A80036; stroke-width: 1.5;"/><text fill="#000000" font-family="sans-serif" font-size="12" lengthAdjust="spacingAndGlyphs" textLength="207" x="75.5" y="45.8008">Admin\PasswordRequestsController</text><path d="M73.5,53.332 L73.5,52.4376 L83.5476,53.007 L93.5952,52.482 L103.6429,54.2254 L113.6905,53.3796 L123.7381,52.8533 L133.7857,52.7624 L143.8333,52.5097 L153.881,53.96 L163.9286,52.6879 L173.9762,54.2236 L184.0238,52.4046 L194.0714,53.5229 L204.119,52.8205 L214.1667,52.6519 L224.2143,52.9894 L234.2619,53.2037 L244.3095,53.3648 L254.3571,53.5019 L264.4048,52.4461 L274.4524,53.7122 L284.5,53.332 " fill="#FEFECE" style="stroke: #A80036; stroke-width: 1.5;"/><path d="M73.5,61.332 L73.5,61.5754 L83.5476,61.2564 L93.5952,61.9667 L103.6429,62.1533 L113.6905,60.5821 L123.7381,61.1109 L133.7857,60.4704 L143.8333,60.8685 L153.881,62.1132 L163.9286,60.4649 L173.9762,60.6232 L184.0238,60.5144 L194.0714,62.2079 L204.119,61.1536 L214.1667,62.0249 L224.2143,60.7638 L234.2619,60.7581 L244.3095,61.7423 L254.3571,61.2372 L264.4048,61.1221 L274.4524,60.9979 L284.5,61.332 " fill="#FEFECE" style="stroke: #A80036; stroke-width: 1.5;"/><text fill="#000000" font-family="sans-serif" font-size="11" lengthAdjust="spacingAndGlyphs" textLength="155" x="78.5" y="75.9668">+パスワード変更申請：entry()</text><text fill="#000000" font-family="sans-serif" font-size="11" lengthAdjust="spacingAndGlyphs" textLength="134" x="78.5" y="88.9219">+パスワード変更：apply()</text><text fill="#000000" font-family="sans-serif" font-size="11" lengthAdjust="spacingAndGlyphs" textLength="154" x="78.5" y="101.877">+パスワード変更完了：done()</text><!--class PasswordRequestsTable--><polygon fill="#FEFECE" filter="url(#fjpoh5p)" points="6,168.1992,6,167.5989,15.8857,167.6336,25.7714,168.248,35.6571,168.5338,45.5429,168.8396,55.4286,168.9168,65.3143,167.4576,75.2,168.4129,85.0857,168.7737,94.9714,168.5578,104.8571,168.6403,114.7429,168.0307,124.6286,167.7564,134.5143,168.2901,144.4,168.2976,154.2857,168.1722,164.1714,168.2056,174.0571,168.5213,183.9429,167.8444,193.8286,168.7816,203.7143,168.8468,213.6,168.9158,223.4857,167.6132,233.3714,167.8055,243.2571,168.6716,253.1429,167.4879,263.0286,167.8522,272.9143,168.5529,282.8,168.7449,292.6857,168.6366,302.5714,168.5439,312.4571,168.6494,322.3429,168.1184,332.2286,168.3681,342.1143,167.7797,352,168.1992,352.1281,168.1992,351.7269,177.6339,351.3859,187.0686,351.5898,196.5033,351.8331,205.9381,352.0706,215.3728,352.5955,224.8075,352,234.2422,352,234.076,342.1143,234.1895,332.2286,233.7679,322.3429,233.9229,312.4571,234.5885,302.5714,233.5686,292.6857,234.2767,282.8,234.7449,272.9143,233.9645,263.0286,234.0653,253.1429,234.3299,243.2571,234.7985,233.3714,233.5725,223.4857,233.7634,213.6,234.1756,203.7143,233.9186,193.8286,234.1933,183.9429,234.2811,174.0571,234.3351,164.1714,234.6477,154.2857,233.8705,144.4,233.7081,134.5143,234.4534,124.6286,233.8069,114.7429,234.2894,104.8571,233.5312,94.9714,234.4551,85.0857,234.5796,75.2,234.488,65.3143,234.7679,55.4286,234.1313,45.5429,233.5079,35.6571,234.1465,25.7714,234.9707,15.8857,234.134,6,234.2422,6.4806,234.2422,5.848,224.8075,6.5467,215.3728,5.6731,205.9381,6.7344,196.5033,6.7496,187.0686,5.6294,177.6339,6,168.1992" style="stroke: #A80036; stroke-width: 1.5;"/><text fill="#000000" font-family="sans-serif" font-size="12" lengthAdjust="spacingAndGlyphs" textLength="141" x="108.5" y="184.8008">PasswordRequestsTable</text><path d="M7,192.332 L7,193.2141 L17.1176,191.5108 L27.2353,191.4144 L37.3529,192.1126 L47.4706,192.9154 L57.5882,192.8286 L67.7059,192.9544 L77.8235,191.6221 L87.9412,192.7726 L98.0588,192.9918 L108.1765,191.4429 L118.2941,191.784 L128.4118,193.3111 L138.5294,191.3903 L148.6471,192.7719 L158.7647,191.5128 L168.8824,191.6762 L179,191.4192 L189.1176,191.6104 L199.2353,192.3783 L209.3529,191.8058 L219.4706,191.9073 L229.5882,191.4408 L239.7059,193.1392 L249.8235,191.738 L259.9412,191.6252 L270.0588,192.3808 L280.1765,193.2179 L290.2941,192.4602 L300.4118,191.3681 L310.5294,192.2124 L320.6471,191.6477 L330.7647,193.219 L340.8824,193.0421 L351,192.332 " fill="#FEFECE" style="stroke: #A80036; stroke-width: 1.5;"/><path d="M7,200.332 L7,201.2701 L17.1176,200.4292 L27.2353,199.6626 L37.3529,200.5553 L47.4706,201.0124 L57.5882,201.072 L67.7059,199.575 L77.8235,201.1278 L87.9412,201.2069 L98.0588,200.3807 L108.1765,200.2881 L118.2941,199.8805 L128.4118,199.7043 L138.5294,200.2575 L148.6471,200.121 L158.7647,201.2494 L168.8824,199.76 L179,200.451 L189.1176,199.3972 L199.2353,199.8941 L209.3529,200.7799 L219.4706,200.7697 L229.5882,200.7295 L239.7059,201.3315 L249.8235,201.227 L259.9412,200.3105 L270.0588,199.3378 L280.1765,200.5219 L290.2941,201.2185 L300.4118,199.7174 L310.5294,200.1794 L320.6471,201.0715 L330.7647,201.0751 L340.8824,200.3926 L351,200.332 " fill="#FEFECE" style="stroke: #A80036; stroke-width: 1.5;"/><text fill="#000000" font-family="sans-serif" font-size="11" lengthAdjust="spacingAndGlyphs" textLength="334" x="12" y="214.9668">+有効なパスワード変更情報を取得する：getEnableRequestData()</text><text fill="#000000" font-family="sans-serif" font-size="11" lengthAdjust="spacingAndGlyphs" textLength="226" x="12" y="227.9219">+パスワードを変更する：updatePassword()</text><!--class PasswordRequest--><polygon fill="#FEFECE" filter="url(#fjpoh5p)" points="92,294.1992,92,293.6661,102.2353,294.3901,112.4706,294.5181,122.7059,293.8891,132.9412,294.9061,143.1765,294.7219,153.4118,293.7446,163.6471,293.7531,173.8824,294.2775,184.1176,294.4491,194.3529,294.9359,204.5882,293.4552,214.8235,293.4602,225.0588,294.2441,235.2941,294.0835,245.5294,294.6134,255.7647,294.0789,266,294.1992,265.6313,294.1992,265.6069,304.074,266.6809,313.9487,265.9474,323.8235,265.545,333.6982,265.3439,343.573,266.4992,353.4478,266.3584,363.3225,266,373.1973,266,373.2471,255.7647,373.0328,245.5294,372.9056,235.2941,372.6084,225.0588,373.3288,214.8235,372.4914,204.5882,372.8723,194.3529,373.3725,184.1176,372.9697,173.8824,372.4951,163.6471,373.4578,153.4118,372.7626,143.1765,373.5157,132.9412,372.7163,122.7059,373.8417,112.4706,373.4198,102.2353,373.3829,92,373.1973,91.4323,373.1973,91.31,363.3225,92.2547,353.4478,91.4176,343.573,91.6357,333.6982,91.8659,323.8235,92.0401,313.9487,91.6964,304.074,92,294.1992" style="stroke: #A80036; stroke-width: 1.5;"/><text fill="#000000" font-family="sans-serif" font-size="12" lengthAdjust="spacingAndGlyphs" textLength="102" x="128" y="310.8008">PasswordRequest</text><path d="M93,318.332 L93,318.1412 L103.1176,318.0902 L113.2353,318.5285 L123.3529,318.7757 L133.4706,317.8122 L143.5882,317.5801 L153.7059,318.9814 L163.8235,319.0073 L173.9412,318.086 L184.0588,318.2515 L194.1765,317.7564 L204.2941,317.8082 L214.4118,318.9878 L224.5294,318.2551 L234.6471,318.5932 L244.7647,317.5702 L254.8824,318.1802 L265,318.332 " fill="#FEFECE" style="stroke: #A80036; stroke-width: 1.5;"/><text fill="#000000" font-family="sans-serif" font-size="11" lengthAdjust="spacingAndGlyphs" textLength="115" x="98" y="332.9668">+ユーザーID：user_id</text><text fill="#000000" font-family="sans-serif" font-size="11" lengthAdjust="spacingAndGlyphs" textLength="162" x="98" y="345.9219">+リクエストキー：request_key</text><text fill="#000000" font-family="sans-serif" font-size="11" lengthAdjust="spacingAndGlyphs" textLength="79" x="98" y="358.877">+使用済：used</text><path d="M93,365.1973 L93,364.2713 L103.1176,365.3478 L113.2353,365.4702 L123.3529,365.3433 L133.4706,365.0943 L143.5882,365.1447 L153.7059,364.5749 L163.8235,365.2058 L173.9412,364.9968 L184.0588,365.2001 L194.1765,364.6994 L204.2941,365.9936 L214.4118,365.4535 L224.5294,365.6392 L234.6471,364.5871 L244.7647,365.196 L254.8824,366.1737 L265,365.1973 " fill="#FEFECE" style="stroke: #A80036; stroke-width: 1.5;"/><path d="M179,108.4992 L179.3572,108.4992 L179.1249,119.3492 L179.9944,130.1992 L179.5575,141.0492 L178.7592,151.8992 L179,162.7492 " fill="none" style="stroke: #000000; stroke-width: 1.0;"/><polygon fill="#000000" points="179,167.9192,179.004,167.921,179.6184,166.0385,180.6213,164.3287,181.5469,162.5845,182.2445,160.739,183,158.9192,182.9524,158.8716,182.3081,159.8273,181.573,160.6922,180.712,161.4312,179.9289,162.2481,179,162.9192,178.8326,162.7518,178.1685,162.0878,177.4334,161.3526,176.5839,160.5031,175.9401,159.8593,175,158.9192,174.7883,158.8251,175.8952,160.7615,176.7238,162.5742,177.2644,164.2589,178.1226,166.0848,179,167.9192" style="stroke: #000000; stroke-width: 1.0;"/><path d="M179,234.4592 L178.6695,234.4592 L179.4015,245.2532 L179.5566,256.0472 L178.154,266.8412 L178.0788,277.6352 L179,288.4292 " fill="none" style="stroke: #000000; stroke-width: 1.0;"/><polygon fill="#000000" points="179,293.8392,178.985,293.8325,179.9024,292.0847,180.5798,290.2303,181.3056,288.3973,182.3914,286.7243,183,284.8392,183.0609,284.9001,182.1985,285.6377,181.2575,286.2967,180.4266,287.0658,179.6407,287.8799,179,288.8392,178.8263,288.6655,178.2043,288.0435,177.51,287.3492,176.5208,286.36,175.8329,285.6721,175,284.8392,174.9279,284.8072,175.9169,286.6912,176.6015,288.4399,177.2773,290.1847,178.3582,292.1095,179,293.8392" style="stroke: #000000; stroke-width: 1.0;"/></g></svg>