<?xml version="1.0" encoding="UTF-8" standalone="no"?><svg xmlns="http://www.w3.org/2000/svg" xmlns:xlink="http://www.w3.org/1999/xlink" contentScriptType="application/ecmascript" contentStyleType="text/css" height="864px" preserveAspectRatio="none" style="width:1107px;height:864px;" version="1.1" viewBox="0 0 1107 864" width="1107px" zoomAndPan="magnify"><defs><filter height="300%" id="fwcgy3l" width="300%" x="-1" y="-1"><feGaussianBlur result="blurOut" stdDeviation="2.0"/><feColorMatrix in="blurOut" result="blurOut2" type="matrix" values="0 0 0 0 0 0 0 0 0 0 0 0 0 0 0 0 0 0 .4 0"/><feOffset dx="4.0" dy="4.0" in="blurOut2" result="blurOut3"/><feBlend in="SourceGraphic" in2="blurOut3" mode="normal"/></filter></defs><g><text fill="#000000" font-family="sans-serif" font-size="18" lengthAdjust="spacingAndGlyphs" textLength="126" x="495" y="16.708">固定ページ管理</text><!--class PagesController--><polygon fill="#FEFECE" filter="url(#fwcgy3l)" points="296.5,79.9531,296.5,79.648,306.5,80.5551,316.5,80.3444,326.5,80.0282,336.5,80.6873,346.5,80.5088,356.5,79.2128,366.5,80.2414,376.5,80.5469,386.5,80.3906,396.5,79.4403,406.5,80.0641,416.5,80.267,426.5,79.6806,436.5,80.4395,446.5,79.9526,456.5,79.6711,466.5,80.0897,476.5,80.1095,486.5,79.9531,487.2007,79.9531,486.098,90.5078,486.0367,101.0625,485.8028,111.6172,486.1935,122.1719,486.5,132.7266,486.5,132.8831,476.5,133.1015,466.5,132.4256,456.5,132.4805,446.5,132.1847,436.5,132.2575,426.5,132.0408,416.5,133.3859,406.5,133.431,396.5,132.4644,386.5,132.367,376.5,132.3443,366.5,133.26,356.5,132.5212,346.5,132.7765,336.5,133.0102,326.5,131.9925,316.5,132.5935,306.5,133.4002,296.5,132.7266,297.2034,132.7266,297.0618,122.1719,297.1879,111.6172,296.9465,101.0625,297.2118,90.5078,296.5,79.9531" style="stroke: #A80036; stroke-width: 1.5;"/><text fill="#000000" font-family="sans-serif" font-size="12" lengthAdjust="spacingAndGlyphs" textLength="100" x="341.5" y="96.0918">PagesController</text><path d="M297.5,103.9219 L297.5,103.6911 L307.3947,104.515 L317.2895,104.1695 L327.1842,104.8406 L337.0789,104.469 L346.9737,104.0016 L356.8684,103.7521 L366.7632,104.8227 L376.6579,104.1389 L386.5526,103.8543 L396.4474,104.1765 L406.3421,104.0995 L416.2368,104.3003 L426.1316,104.8312 L436.0263,103.6977 L445.9211,103.4347 L455.8158,104.0197 L465.7105,103.5651 L475.6053,104.0773 L485.5,103.9219 " fill="#FEFECE" style="stroke: #A80036; stroke-width: 1.5;"/><path d="M297.5,111.9219 L297.5,111.8743 L307.3947,112.2084 L317.2895,111.6149 L327.1842,112.0552 L337.0789,111.2686 L346.9737,112.6702 L356.8684,111.3991 L366.7632,111.2747 L376.6579,111.8327 L386.5526,112.6751 L396.4474,111.3711 L406.3421,112.8358 L416.2368,111.1338 L426.1316,111.9115 L436.0263,111.5922 L445.9211,111.1175 L455.8158,112.91 L465.7105,111.1051 L475.6053,111.5902 L485.5,111.9219 " fill="#FEFECE" style="stroke: #A80036; stroke-width: 1.5;"/><text fill="#000000" font-family="sans-serif" font-size="11" lengthAdjust="spacingAndGlyphs" textLength="178" x="302.5" y="126.1323">+固定ページを表示する：display()</text><!--class BcFrontContentsComponent--><polygon fill="#FEFECE" filter="url(#fwcgy3l)" points="6,73.4531,6,73.0724,15.8077,72.8192,25.6154,73.8608,35.4231,72.8066,45.2308,72.9673,55.0385,73.6351,64.8462,73.0879,74.6538,73.9403,84.4615,73.6649,94.2692,73.7053,104.0769,72.7291,113.8846,73.5094,123.6923,73.9833,133.5,73.7145,143.3077,73.2635,153.1154,74.1458,162.9231,73.9871,172.7308,73.5779,182.5385,73.5549,192.3462,72.853,202.1538,73.6105,211.9615,73.3326,221.7692,73.2475,231.5769,73.2686,241.3846,73.9628,251.1923,73.8759,261,73.4531,260.9328,73.4531,260.5403,82.8214,261.4568,92.1897,260.7926,101.558,261.6978,110.9263,261.1583,120.2946,261.1276,129.6629,261,139.0313,261,139.5597,251.1923,138.9617,241.3846,139.7278,231.5769,138.6528,221.7692,138.72,211.9615,138.7544,202.1538,138.887,192.3462,138.4394,182.5385,138.3795,172.7308,138.327,162.9231,138.4079,153.1154,138.723,143.3077,138.8744,133.5,139.1652,123.6923,138.4245,113.8846,138.9159,104.0769,138.7196,94.2692,138.9965,84.4615,139.5946,74.6538,138.8046,64.8462,138.9693,55.0385,139.5942,45.2308,139.6934,35.4231,138.5157,25.6154,139.3554,15.8077,138.6514,6,139.0313,6.1675,139.0313,5.4587,129.6629,5.2633,120.2946,5.5126,110.9263,5.6689,101.558,5.3182,92.1897,5.2894,82.8214,6,73.4531" style="stroke: #A80036; stroke-width: 1.5;"/><text fill="#000000" font-family="sans-serif" font-size="12" lengthAdjust="spacingAndGlyphs" textLength="177" x="45" y="89.5918">BcFrontContentsComponent</text><path d="M7,97.4219 L7,96.9846 L17.12,97.662 L27.24,96.447 L37.36,98.2652 L47.48,96.7891 L57.6,98.2811 L67.72,97.4403 L77.84,97.4705 L87.96,98.1134 L98.08,97.5284 L108.2,96.8462 L118.32,98.062 L128.44,96.9257 L138.56,96.649 L148.68,96.5601 L158.8,97.0772 L168.92,96.7338 L179.04,98.3264 L189.16,98.1171 L199.28,97.0559 L209.4,97.7913 L219.52,98.1806 L229.64,96.889 L239.76,97.6295 L249.88,98.0676 L260,97.4219 " fill="#FEFECE" style="stroke: #A80036; stroke-width: 1.5;"/><path d="M7,105.4219 L7,106.3666 L17.12,104.4746 L27.24,106.2457 L37.36,104.9732 L47.48,105.9871 L57.6,104.7819 L67.72,105.4603 L77.84,106.2046 L87.96,106.2064 L98.08,105.1421 L108.2,104.6217 L118.32,105.8852 L128.44,105.057 L138.56,105.075 L148.68,105.0929 L158.8,104.4238 L168.92,105.9789 L179.04,106.0433 L189.16,104.4253 L199.28,105.2009 L209.4,105.1105 L219.52,105.6842 L229.64,106.0971 L239.76,106.314 L249.88,105.2721 L260,105.4219 " fill="#FEFECE" style="stroke: #A80036; stroke-width: 1.5;"/><text fill="#000000" font-family="sans-serif" font-size="11" lengthAdjust="spacingAndGlyphs" textLength="106" x="12" y="119.6323">+初期化：initialize()</text><text fill="#000000" font-family="sans-serif" font-size="11" lengthAdjust="spacingAndGlyphs" textLength="243" x="12" y="132.437">+フロントエンドのセットアップ：setupFront()</text><!--class Admin\PagesController--><polygon fill="#FEFECE" filter="url(#fwcgy3l)" points="522,28.9531,522,29.0894,531.898,29.0623,541.7959,28.7678,551.6939,28.9668,561.5918,28.5177,571.4898,28.2432,581.3878,29.1976,591.2857,28.8642,601.1837,29.0793,611.0816,28.5049,620.9796,28.3799,630.8776,28.808,640.7755,29.1213,650.6735,29.3464,660.5714,28.834,670.4694,28.3578,680.3673,28.9523,690.2653,28.5809,700.1633,29.4679,710.0612,29.6379,719.9592,29.4723,729.8571,29.381,739.7551,29.3176,749.6531,28.7332,759.551,29.2904,769.449,29.5022,779.3469,28.9441,789.2449,28.6709,799.1429,29.6871,809.0408,28.6668,818.9388,28.7136,828.8367,28.278,838.7347,29.095,848.6327,28.3153,858.5306,28.4806,868.4286,28.4681,878.3265,29.6712,888.2245,28.3654,898.1224,28.3172,908.0204,28.7342,917.9184,29.0074,927.8163,28.2558,937.7143,28.3852,947.6122,28.7997,957.5102,29.5796,967.4082,29.3884,977.3061,29.3241,987.2041,29.5045,997.102,28.6681,1007,28.9531,1007.6705,28.9531,1007.1869,38.6538,1006.6322,48.3545,1007.7355,58.0552,1007.2782,67.7559,1006.5597,77.4565,1007.5912,87.1572,1006.7122,96.8579,1007.6901,106.5586,1007.2528,116.2593,1007.3295,125.96,1007.4849,135.6606,1007.0541,145.3613,1006.4003,155.062,1007.6678,164.7627,1007.19,174.4634,1007,184.1641,1007,183.6071,997.102,183.5321,987.2041,184.4288,977.3061,184.7402,967.4082,184.792,957.5102,183.796,947.6122,183.9561,937.7143,183.9773,927.8163,183.7501,917.9184,183.86,908.0204,184.6888,898.1224,183.7996,888.2245,183.5417,878.3265,184.1384,868.4286,184.4202,858.5306,184.0767,848.6327,184.8559,838.7347,183.962,828.8367,184.818,818.9388,184.7419,809.0408,184.395,799.1429,183.9281,789.2449,183.4965,779.3469,184.4209,769.449,184.8406,759.551,184.2017,749.6531,183.6901,739.7551,183.5933,729.8571,183.9188,719.9592,183.5969,710.0612,183.4806,700.1633,183.6875,690.2653,184.0645,680.3673,184.3071,670.4694,184.048,660.5714,183.6598,650.6735,184.3604,640.7755,183.5316,630.8776,183.8836,620.9796,183.8298,611.0816,184.3205,601.1837,183.4447,591.2857,183.8324,581.3878,184.5493,571.4898,183.6667,561.5918,184.4826,551.6939,183.7064,541.7959,183.6636,531.898,183.5468,522,184.1641,521.6211,184.1641,521.3769,174.4634,521.5188,164.7627,521.4673,155.062,522.1471,145.3613,521.6885,135.6606,521.9543,125.96,522.5631,116.2593,522.498,106.5586,522.3255,96.8579,521.8916,87.1572,521.2814,77.4565,521.3286,67.7559,521.6969,58.0552,521.5641,48.3545,522.4029,38.6538,522,28.9531" style="stroke: #A80036; stroke-width: 1.5;"/><text fill="#000000" font-family="sans-serif" font-size="12" lengthAdjust="spacingAndGlyphs" textLength="142" x="693.5" y="45.0918">Admin\PagesController</text><path d="M523,52.9219 L523,52.7749 L533.0625,52.6609 L543.125,52.2107 L553.1875,52.7726 L563.25,53.2573 L573.3125,53.7228 L583.375,53.4451 L593.4375,52.2466 L603.5,53.0254 L613.5625,53.9188 L623.625,53.2052 L633.6875,53.8098 L643.75,52.8943 L653.8125,52.7154 L663.875,53.8764 L673.9375,53.3263 L684,53.5336 L694.0625,53.8071 L704.125,52.1475 L714.1875,52.3792 L724.25,52.6079 L734.3125,52.6819 L744.375,52.8052 L754.4375,52.1981 L764.5,53.7442 L774.5625,53.8429 L784.625,53.6578 L794.6875,53.1414 L804.75,53.2334 L814.8125,53.173 L824.875,53.0913 L834.9375,52.7804 L845,53.4277 L855.0625,53.2873 L865.125,52.2921 L875.1875,52.2124 L885.25,53.2972 L895.3125,52.0133 L905.375,52.137 L915.4375,53.7394 L925.5,52.5441 L935.5625,52.3706 L945.625,52.1542 L955.6875,53.5031 L965.75,52.0442 L975.8125,52.5911 L985.875,53.8031 L995.9375,52.0554 L1006,52.9219 " fill="#FEFECE" style="stroke: #A80036; stroke-width: 1.5;"/><text fill="#000000" font-family="sans-serif" font-size="11" lengthAdjust="spacingAndGlyphs" textLength="154" x="528" y="67.1323">+AuthenticationComponent</text><text fill="#000000" font-family="sans-serif" font-size="11" lengthAdjust="spacingAndGlyphs" textLength="139" x="528" y="79.937">+BcMessageComponent</text><path d="M523,86.5313 L523,85.8079 L533.0625,86.4406 L543.125,86.2069 L553.1875,85.7765 L563.25,85.6324 L573.3125,86.878 L583.375,86.9257 L593.4375,86.0539 L603.5,87.1026 L613.5625,85.8694 L623.625,87.3059 L633.6875,87.1334 L643.75,87.3901 L653.8125,86.7678 L663.875,86.2089 L673.9375,86.3598 L684,86.1896 L694.0625,85.8514 L704.125,86.2764 L714.1875,86.9353 L724.25,86.3342 L734.3125,85.6138 L744.375,86.5616 L754.4375,86.5353 L764.5,87.3297 L774.5625,87.3978 L784.625,87.5246 L794.6875,86.3417 L804.75,87.3148 L814.8125,87.0217 L824.875,87.1224 L834.9375,86.3296 L845,87.2616 L855.0625,86.6601 L865.125,86.5047 L875.1875,86.4734 L885.25,85.9816 L895.3125,85.7797 L905.375,87.0417 L915.4375,86.2984 L925.5,85.6858 L935.5625,87.4184 L945.625,87.065 L955.6875,86.9085 L965.75,87.4715 L975.8125,87.5126 L985.875,86.7958 L995.9375,86.2549 L1006,86.5313 " fill="#FEFECE" style="stroke: #A80036; stroke-width: 1.5;"/><text fill="#000000" font-family="sans-serif" font-size="11" lengthAdjust="spacingAndGlyphs" textLength="62" x="528" y="100.7417">+initialize()</text><text fill="#000000" font-family="sans-serif" font-size="11" lengthAdjust="spacingAndGlyphs" textLength="82" x="528" y="113.5464">+beforeFilter()</text><text fill="#000000" font-family="sans-serif" font-size="11" lengthAdjust="spacingAndGlyphs" textLength="126" x="528" y="126.3511">+固定ページ編集：edit()</text><text fill="#000000" font-family="sans-serif" font-size="11" lengthAdjust="spacingAndGlyphs" textLength="435" x="528" y="139.1558">+固定ページファイルを登録する：admin_entry_page_files() ※ baserCMS５で廃止</text><text fill="#000000" font-family="sans-serif" font-size="11" lengthAdjust="spacingAndGlyphs" textLength="434" x="528" y="151.9604">+固定ページファイルを書き出す：admin_write_page_files() ※ baserCMS５で廃止</text><text fill="#000000" font-family="sans-serif" font-size="11" lengthAdjust="spacingAndGlyphs" textLength="473" x="528" y="164.7651">+プレビュー用テンプレートを生成する：_createPreviewTemplate() ※ baserCMS５で廃止</text><text fill="#000000" font-family="sans-serif" font-size="11" lengthAdjust="spacingAndGlyphs" textLength="464" x="528" y="177.5698">+一覧の表示用データをセットする：_setAdminIndexViewData()： ※ baserCMS５で廃止</text><!--class BcAdminPageHelper--><polygon fill="#FEFECE" filter="url(#fwcgy3l)" points="657.5,288.9531,657.5,288.6815,667.6538,288.8068,677.8077,289.6506,687.9615,288.5487,698.1154,288.9148,708.2692,288.8624,718.4231,288.232,728.5769,289.1376,738.7308,289.5092,748.8846,288.9098,759.0385,288.3428,769.1923,288.7961,779.3462,288.76,789.5,288.9531,789.4357,288.9531,789.6526,296.9469,789.5902,304.9406,789.6697,312.9344,789.3801,320.9281,789.5,328.9219,789.5,328.9098,779.3462,328.7353,769.1923,328.2939,759.0385,328.2401,748.8846,328.6698,738.7308,328.9351,728.5769,329.1526,718.4231,329.2438,708.2692,329.4895,698.1154,328.516,687.9615,329.0575,677.8077,329.3462,667.6538,328.8928,657.5,328.9219,657.368,328.9219,657.6898,320.9281,657.6174,312.9344,657.5432,304.9406,657.7469,296.9469,657.5,288.9531" style="stroke: #A80036; stroke-width: 1.5;"/><text fill="#000000" font-family="sans-serif" font-size="12" lengthAdjust="spacingAndGlyphs" textLength="126" x="660.5" y="305.0918">BcAdminPageHelper</text><path d="M658.5,312.9219 L658.5,312.9768 L668.5,313.3067 L678.5,312.2259 L688.5,312.1188 L698.5,312.4339 L708.5,313.7449 L718.5,312.6035 L728.5,313.1655 L738.5,312.5677 L748.5,311.9995 L758.5,312.6352 L768.5,312.3562 L778.5,313.1354 L788.5,312.9219 " fill="#FEFECE" style="stroke: #A80036; stroke-width: 1.5;"/><path d="M658.5,320.9219 L658.5,320.6641 L668.5,321.2324 L678.5,320.2728 L688.5,321.8667 L698.5,321.1732 L708.5,321.6799 L718.5,320.9325 L728.5,319.9753 L738.5,321.8735 L748.5,321.3043 L758.5,320.8448 L768.5,321.2914 L778.5,320.5478 L788.5,320.9219 " fill="#FEFECE" style="stroke: #A80036; stroke-width: 1.5;"/><!--class PageService--><polygon fill="#FEFECE" filter="url(#fwcgy3l)" points="535,282.4531,535,282.0489,544.6667,282.8491,554.3333,282.4494,564,283.0181,573.6667,281.9595,583.3333,281.7631,593,282.3645,602.6667,282.515,612.3333,282.238,622,282.4531,622.4133,282.4531,622.5014,293.0078,621.496,303.5625,622.2736,314.1172,621.6878,324.6719,622,335.2266,622,334.8387,612.3333,335.2015,602.6667,334.945,593,335.9062,583.3333,335.3997,573.6667,334.6456,564,335.1772,554.3333,335.943,544.6667,335.3302,535,335.2266,534.5406,335.2266,535.5575,324.6719,535.5323,314.1172,534.9974,303.5625,534.651,293.0078,535,282.4531" style="stroke: #A80036; stroke-width: 1.5;"/><text fill="#000000" font-family="sans-serif" font-size="12" lengthAdjust="spacingAndGlyphs" textLength="77" x="540" y="298.5918">PageService</text><path d="M536,306.4219 L536,306.4802 L545.4444,306.3654 L554.8889,306.1132 L564.3333,307.1794 L573.7778,306.9917 L583.2222,306.6649 L592.6667,305.5675 L602.1111,306.1491 L611.5556,306.7371 L621,306.4219 " fill="#FEFECE" style="stroke: #A80036; stroke-width: 1.5;"/><text fill="#000000" font-family="sans-serif" font-size="11" lengthAdjust="spacingAndGlyphs" textLength="75" x="541" y="320.6323">+PagesTable</text><path d="M536,327.2266 L536,327.4372 L545.4444,327.043 L554.8889,326.5392 L564.3333,326.5261 L573.7778,326.5174 L583.2222,326.5376 L592.6667,327.8917 L602.1111,327.6257 L611.5556,327.8298 L621,327.2266 " fill="#FEFECE" style="stroke: #A80036; stroke-width: 1.5;"/><!--class PageServiceInterface--><polygon fill="#FEFECE" filter="url(#fwcgy3l)" points="153.5,243.9531,153.5,243.6287,163.3857,244.5951,173.2714,243.3678,183.1571,243.9991,193.0429,243.4673,202.9286,243.7777,212.8143,243.4668,222.7,244.6092,232.5857,244.3857,242.4714,243.5535,252.3571,244.4729,262.2429,243.4307,272.1286,243.2923,282.0143,244.5668,291.9,243.3191,301.7857,243.3739,311.6714,244.2982,321.5571,243.5187,331.4429,244.0715,341.3286,243.7585,351.2143,244.3348,361.1,244.2798,370.9857,243.8545,380.8714,243.6099,390.7571,244.3126,400.6429,243.2427,410.5286,243.2559,420.4143,244.2794,430.3,243.6731,440.1857,244.4392,450.0714,244.6956,459.9571,243.6966,469.8429,243.2191,479.7286,243.8185,489.6143,244.1224,499.5,243.9531,498.9034,243.9531,499.0084,253.9225,499.9629,263.8918,498.9106,273.8612,499.1822,283.8305,499.4585,293.7999,498.9732,303.7692,499.0352,313.7386,499.2773,323.7079,498.8055,333.6773,499.4766,343.6466,499.7082,353.616,499.4636,363.5853,499.5,373.5547,499.5,373.8176,489.6143,373.8129,479.7286,373.2624,469.8429,373.0207,459.9571,373.5923,450.0714,373.3579,440.1857,373.6024,430.3,374.1075,420.4143,373.4286,410.5286,373.7022,400.6429,373.0546,390.7571,373.0201,380.8714,373.5054,370.9857,373.8645,361.1,373.2907,351.2143,373.0695,341.3286,374.1214,331.4429,374.0936,321.5571,373.8728,311.6714,374.1429,301.7857,373.5839,291.9,373.6147,282.0143,373.9048,272.1286,372.988,262.2429,374.0293,252.3571,373.9705,242.4714,373.8196,232.5857,373.9604,222.7,373.5414,212.8143,372.9145,202.9286,373.0173,193.0429,372.951,183.1571,372.903,173.2714,373.1265,163.3857,373.3889,153.5,373.5547,152.878,373.5547,153.5541,363.5853,153.2374,353.616,153.6033,343.6466,152.95,333.6773,153.3382,323.7079,153.7507,313.7386,153.8911,303.7692,152.8874,293.7999,152.9221,283.8305,153.9765,273.8612,153.465,263.8918,154.0458,253.9225,153.5,243.9531" style="stroke: #A80036; stroke-width: 1.5;"/><text fill="#000000" font-family="sans-serif" font-size="12" lengthAdjust="spacingAndGlyphs" textLength="133" x="260" y="260.0918">PageServiceInterface</text><path d="M154.5,267.9219 L154.5,267.8757 L164.6176,268.7676 L174.7353,268.2719 L184.8529,267.9374 L194.9706,267.6741 L205.0882,268.5181 L215.2059,267.9081 L225.3235,268.7633 L235.4412,268.019 L245.5588,268.2331 L255.6765,268.4339 L265.7941,268.5905 L275.9118,267.6477 L286.0294,267.3928 L296.1471,268.7139 L306.2647,268.8005 L316.3824,268.8178 L326.5,267.0757 L336.6176,267.3551 L346.7353,267.9857 L356.8529,267.3065 L366.9706,268.1091 L377.0882,267.8138 L387.2059,267.146 L397.3235,268.2243 L407.4412,267.9522 L417.5588,267.4424 L427.6765,268.6612 L437.7941,267.1514 L447.9118,267.1682 L458.0294,268.7407 L468.1471,268.8638 L478.2647,267.9761 L488.3824,268.0111 L498.5,267.9219 " fill="#FEFECE" style="stroke: #A80036; stroke-width: 1.5;"/><path d="M154.5,275.9219 L154.5,275.4165 L164.6176,274.9244 L174.7353,275.127 L184.8529,275.2616 L194.9706,275.6419 L205.0882,276.59 L215.2059,276.6373 L225.3235,274.9907 L235.4412,276.1062 L245.5588,276.0765 L255.6765,275.6652 L265.7941,276.4113 L275.9118,275.122 L286.0294,275.1197 L296.1471,275.7196 L306.2647,275.4001 L316.3824,275.1332 L326.5,276.8282 L336.6176,276.897 L346.7353,275.627 L356.8529,276.5017 L366.9706,275.5551 L377.0882,274.9375 L387.2059,276.5257 L397.3235,275.4166 L407.4412,276.5229 L417.5588,275.8403 L427.6765,276.572 L437.7941,275.1757 L447.9118,276.3829 L458.0294,276.1537 L468.1471,275.5043 L478.2647,275.9277 L488.3824,276.2839 L498.5,275.9219 " fill="#FEFECE" style="stroke: #A80036; stroke-width: 1.5;"/><text fill="#000000" font-family="sans-serif" font-size="11" lengthAdjust="spacingAndGlyphs" textLength="86" x="159.5" y="290.1323">+作成：create()</text><text fill="#000000" font-family="sans-serif" font-size="11" lengthAdjust="spacingAndGlyphs" textLength="89" x="159.5" y="302.937">+編集：update()</text><text fill="#000000" font-family="sans-serif" font-size="11" lengthAdjust="spacingAndGlyphs" textLength="85" x="159.5" y="315.7417">+削除：delete()</text><text fill="#000000" font-family="sans-serif" font-size="11" lengthAdjust="spacingAndGlyphs" textLength="123" x="159.5" y="328.5464">+単一データ取得：get()</text><text fill="#000000" font-family="sans-serif" font-size="11" lengthAdjust="spacingAndGlyphs" textLength="334" x="159.5" y="341.3511">+固定ページテンプレートリストの取得：getPageTemplateList()</text><text fill="#000000" font-family="sans-serif" font-size="11" lengthAdjust="spacingAndGlyphs" textLength="87" x="159.5" y="354.1558">+コピー：copy()</text><text fill="#000000" font-family="sans-serif" font-size="11" lengthAdjust="spacingAndGlyphs" textLength="281" x="159.5" y="366.9604">+コントロールソースを取得する：getControlSource()</text><!--class PagesTable--><polygon fill="#FEFECE" filter="url(#fwcgy3l)" points="305,433.9531,305,434.661,314.9455,434.1842,324.8909,433.4468,334.8364,434.2714,344.7818,433.3121,354.7273,434.1663,364.6727,434.4798,374.6182,434.54,384.5636,434.197,394.5091,433.3099,404.4545,433.3499,414.4,433.6226,424.3455,433.4129,434.2909,434.1389,444.2364,433.2566,454.1818,434.1583,464.1273,433.3366,474.0727,434.5092,484.0182,433.4252,493.9636,434.148,503.9091,434.1961,513.8545,433.5087,523.8,433.3627,533.7455,433.7204,543.6909,434.3967,553.6364,434.2836,563.5818,434.4242,573.5273,433.7593,583.4727,434.239,593.4182,433.8473,603.3636,433.8704,613.3091,434.2129,623.2545,434.147,633.2,433.8891,643.1455,434.1824,653.0909,434.5301,663.0364,433.3389,672.9818,433.5036,682.9273,433.5614,692.8727,433.99,702.8182,433.5092,712.7636,434.1265,722.7091,433.7814,732.6545,433.2152,742.6,434.5595,752.5455,433.2765,762.4909,433.3848,772.4364,433.3912,782.3818,434.2116,792.3273,433.4717,802.2727,434.6021,812.2182,434.6444,822.1636,433.9572,832.1091,434.4084,842.0545,433.8587,852,433.9531,852.714,433.9531,852.3005,443.9699,851.7136,453.9867,852.3264,464.0035,851.5629,474.0203,851.6993,484.037,852.3803,494.0538,851.7835,504.0706,851.5998,514.0874,851.7033,524.1042,852.0604,534.1209,851.7405,544.1377,852.2868,554.1545,852.0837,564.1713,852.2821,574.1881,852.4343,584.2049,852.4971,594.2216,852.6526,604.2384,852.2881,614.2552,851.8027,624.272,852.1526,634.2888,852.0797,644.3056,852.6436,654.3223,852.5067,664.3391,851.854,674.3559,851.2603,684.3727,851.9871,694.3895,852,704.4063,852,703.8292,842.0545,704.6312,832.1091,703.8992,822.1636,704.0013,812.2182,703.9826,802.2727,704.8616,792.3273,704.7056,782.3818,704.6357,772.4364,704.0734,762.4909,704.3941,752.5455,704.5309,742.6,703.8993,732.6545,705.0035,722.7091,704.8674,712.7636,704.797,702.8182,705.0255,692.8727,705.1461,682.9273,704.7988,672.9818,704.8394,663.0364,704.1911,653.0909,705.0119,643.1455,704.0617,633.2,704.6508,623.2545,704.0493,613.3091,704.9581,603.3636,704.9871,593.4182,705.0686,583.4727,704.7489,573.5273,705.1536,563.5818,704.9017,553.6364,704.0916,543.6909,704.2198,533.7455,704.6629,523.8,704.5927,513.8545,704.8835,503.9091,704.4785,493.9636,704.7328,484.0182,705.0776,474.0727,703.721,464.1273,705.1321,454.1818,703.6738,444.2364,705.1451,434.2909,703.6789,424.3455,705.1339,414.4,705.1051,404.4545,704.9229,394.5091,703.6952,384.5636,704.6774,374.6182,703.7944,364.6727,703.7266,354.7273,704.3527,344.7818,704.3969,334.8364,703.8608,324.8909,704.6368,314.9455,704.7222,305,704.4063,304.8758,704.4063,304.8168,694.3895,305.2512,684.3727,305.0522,674.3559,304.494,664.3391,304.9657,654.3223,305.5015,644.3056,304.6006,634.2888,305.2614,624.272,305.4097,614.2552,304.7044,604.2384,305.3747,594.2216,305.5967,584.2049,304.4929,574.1881,305.2437,564.1713,304.5898,554.1545,304.3428,544.1377,305.2132,534.1209,304.7737,524.1042,305.5909,514.0874,304.3426,504.0706,304.6756,494.0538,304.7852,484.037,305.4992,474.0203,305.5116,464.0035,305.3981,453.9867,305.1471,443.9699,305,433.9531" style="stroke: #A80036; stroke-width: 1.5;"/><text fill="#000000" font-family="sans-serif" font-size="12" lengthAdjust="spacingAndGlyphs" textLength="73" x="542" y="450.0918">PagesTable</text><path d="M306,457.9219 L306,457.0031 L315.9091,458.8005 L325.8182,458.3911 L335.7273,457.2152 L345.6364,457.5499 L355.5455,458.1484 L365.4545,457.066 L375.3636,458.8017 L385.2727,458.4714 L395.1818,457.2236 L405.0909,458.2962 L415,457.6051 L424.9091,457.7153 L434.8182,457.2725 L444.7273,458.3955 L454.6364,457.4264 L464.5455,458.2008 L474.4545,458.6902 L484.3636,457.2066 L494.2727,457.3441 L504.1818,457.448 L514.0909,457.4899 L524,458.8863 L533.9091,457.2415 L543.8182,458.0894 L553.7273,458.0555 L563.6364,458.4389 L573.5455,457.3866 L583.4545,458.5962 L593.3636,458.5783 L603.2727,458.2729 L613.1818,457.1175 L623.0909,458.7979 L633,457.6196 L642.9091,458.7744 L652.8182,456.9536 L662.7273,458.4608 L672.6364,458.2281 L682.5455,458.043 L692.4545,458.6499 L702.3636,457.3132 L712.2727,457.9575 L722.1818,458.5308 L732.0909,458.8548 L742,457.4661 L751.9091,456.9889 L761.8182,458.35 L771.7273,458.1041 L781.6364,458.1766 L791.5455,458.3561 L801.4545,458.4859 L811.3636,457.8996 L821.2727,458.3352 L831.1818,458.0066 L841.0909,458.054 L851,457.9219 " fill="#FEFECE" style="stroke: #A80036; stroke-width: 1.5;"/><path d="M306,465.9219 L306,466.5717 L315.9091,465.9333 L325.8182,466.0984 L335.7273,466.0811 L345.6364,465.5137 L355.5455,466.0765 L365.4545,466.5417 L375.3636,466.072 L385.2727,465.2021 L395.1818,465.8569 L405.0909,465.3394 L415,466.8374 L424.9091,465.1795 L434.8182,465.5851 L444.7273,465.7623 L454.6364,465.7157 L464.5455,465.8803 L474.4545,465.5036 L484.3636,465.8146 L494.2727,466.4106 L504.1818,466.8161 L514.0909,465.1642 L524,466.8039 L533.9091,465.1974 L543.8182,465.2141 L553.7273,465.1518 L563.6364,465.1235 L573.5455,466.2174 L583.4545,465.7171 L593.3636,465.7704 L603.2727,466.5874 L613.1818,464.9831 L623.0909,465.2016 L633,466.6804 L642.9091,465.8301 L652.8182,465.0609 L662.7273,465.1635 L672.6364,465.289 L682.5455,466.3877 L692.4545,466.1735 L702.3636,465.4431 L712.2727,465.9409 L722.1818,466.1237 L732.0909,466.6863 L742,465.3275 L751.9091,466.6426 L761.8182,465.6463 L771.7273,465.591 L781.6364,465.2672 L791.5455,465.1792 L801.4545,466.2804 L811.3636,466.6951 L821.2727,466.5862 L831.1818,466.0383 L841.0909,465.0185 L851,465.9219 " fill="#FEFECE" style="stroke: #A80036; stroke-width: 1.5;"/><text fill="#000000" font-family="sans-serif" font-size="11" lengthAdjust="spacingAndGlyphs" textLength="273" x="311" y="480.1323">+ページをコピーする：copy()※ PageService に移行</text><text fill="#000000" font-family="sans-serif" font-size="11" lengthAdjust="spacingAndGlyphs" textLength="255" x="311" y="492.937">+検索用データを生成する：createSearchIndex()</text><text fill="#000000" font-family="sans-serif" font-size="11" lengthAdjust="spacingAndGlyphs" textLength="345" x="311" y="505.7417">+初期値を取得する：getDefaultValue() ※ Page::getNew() に移行</text><text fill="#000000" font-family="sans-serif" font-size="11" lengthAdjust="spacingAndGlyphs" textLength="480" x="311" y="518.5464">+固定ページテンプレートリストを取得する：getPageTemplateList() ※ PageService に移行</text><text fill="#000000" font-family="sans-serif" font-size="11" lengthAdjust="spacingAndGlyphs" textLength="405" x="311" y="531.3511">+コントロールソースを取得する：getControlSource() ※ PageService に移行</text><text fill="#000000" font-family="sans-serif" font-size="11" lengthAdjust="spacingAndGlyphs" textLength="204" x="311" y="544.1558">+削除：delete() ※ baserCMS５で廃止</text><text fill="#000000" font-family="sans-serif" font-size="11" lengthAdjust="spacingAndGlyphs" textLength="319" x="311" y="556.9604">+最終登録IDを取得する：getInsertID() ※ baserCMS５で廃止</text><text fill="#000000" font-family="sans-serif" font-size="11" lengthAdjust="spacingAndGlyphs" textLength="362" x="311" y="569.7651">+URLより固定ページデータを探す：findByUrl() ※ baserCMS５で廃止</text><text fill="#000000" font-family="sans-serif" font-size="11" lengthAdjust="spacingAndGlyphs" textLength="272" x="311" y="582.5698">+getParentPageTemplate() ※ baserCMS５で廃止</text><text fill="#000000" font-family="sans-serif" font-size="11" lengthAdjust="spacingAndGlyphs" textLength="464" x="311" y="595.3745">+固定ページとして管理されているURLかチェックする：isPageUrl() ※ baserCMS５で廃止</text><text fill="#000000" font-family="sans-serif" font-size="11" lengthAdjust="spacingAndGlyphs" textLength="449" x="311" y="608.1792">+本文にbaserが管理するタグを追加する：addBaserPageTag() ※ baserCMS５で廃止</text><text fill="#000000" font-family="sans-serif" font-size="11" lengthAdjust="spacingAndGlyphs" textLength="456" x="311" y="620.9839">+コンテンツフォルダのパスを取得する：getContentFolderPath() ※ baserCMS５で廃止</text><text fill="#000000" font-family="sans-serif" font-size="11" lengthAdjust="spacingAndGlyphs" textLength="520" x="311" y="633.7886">+ページテンプレートファイルが開けるかチェックする：checkOpenPageFile() ※ baserCMS５で廃止</text><text fill="#000000" font-family="sans-serif" font-size="11" lengthAdjust="spacingAndGlyphs" textLength="535" x="311" y="646.5933">+DBデータを元にページテンプレートを全て生成する：createAllPageTemplate() ※ baserCMS５で廃止</text><text fill="#000000" font-family="sans-serif" font-size="11" lengthAdjust="spacingAndGlyphs" textLength="418" x="311" y="659.3979">+ページテンプレートを生成する：createPageTemplate() ※ baserCMS５で廃止</text><text fill="#000000" font-family="sans-serif" font-size="11" lengthAdjust="spacingAndGlyphs" textLength="315" x="311" y="672.2026">+ページファイルを削除する：delFile() ※ baserCMS５で廃止</text><text fill="#000000" font-family="sans-serif" font-size="11" lengthAdjust="spacingAndGlyphs" textLength="362" x="311" y="685.0073">+ページファイルを登録する：entryPageFiles() ※ baserCMS５で廃止</text><text fill="#000000" font-family="sans-serif" font-size="11" lengthAdjust="spacingAndGlyphs" textLength="402" x="311" y="697.812">+ページファイルのパスを取得する：getPageFilePath() ※ baserCMS５で廃止</text><!--class PageValidation--><polygon fill="#FEFECE" filter="url(#fwcgy3l)" points="887,542.4531,887,543.0773,897.0476,542.2386,907.0952,542.1815,917.1429,543.0132,927.1905,542.3233,937.2381,543.1577,947.2857,541.8805,957.3333,542.6225,967.381,542.0748,977.4286,542.66,987.4762,542.0228,997.5238,542.9179,1007.5714,542.1298,1017.619,542.5884,1027.6667,542.9606,1037.7143,541.8817,1047.7619,542.4058,1057.8095,542.7785,1067.8571,543.1171,1077.9048,542.779,1087.9524,541.8495,1098,542.4531,1098.4557,542.4531,1097.578,553.0078,1098.3363,563.5625,1097.7511,574.1172,1098.5954,584.6719,1098,595.2266,1098,595.5545,1087.9524,595.1836,1077.9048,595.3037,1067.8571,595.8525,1057.8095,595.8056,1047.7619,595.4292,1037.7143,595.0418,1027.6667,595.8742,1017.619,595.3382,1007.5714,595.0717,997.5238,594.8862,987.4762,594.8398,977.4286,595.3748,967.381,595.8431,957.3333,594.7855,947.2857,595.501,937.2381,595.2968,927.1905,595.1448,917.1429,595.0237,907.0952,594.7897,897.0476,595.9551,887,595.2266,887.1668,595.2266,886.3122,584.6719,886.2781,574.1172,887.4838,563.5625,886.4366,553.0078,887,542.4531" style="stroke: #A80036; stroke-width: 1.5;"/><text fill="#000000" font-family="sans-serif" font-size="12" lengthAdjust="spacingAndGlyphs" textLength="94" x="945.5" y="558.5918">PageValidation</text><path d="M888,566.4219 L888,566.6911 L897.9524,565.6132 L907.9048,566.2612 L917.8571,566.4859 L927.8095,566.0615 L937.7619,565.6974 L947.7143,565.6777 L957.6667,566.006 L967.619,565.8714 L977.5714,566.2853 L987.5238,565.7826 L997.4762,566.4842 L1007.4286,567.3454 L1017.381,565.926 L1027.3333,566.2008 L1037.2857,566.814 L1047.2381,565.6293 L1057.1905,567.1826 L1067.1429,567.0353 L1077.0952,565.7902 L1087.0476,566.706 L1097,566.4219 " fill="#FEFECE" style="stroke: #A80036; stroke-width: 1.5;"/><path d="M888,574.4219 L888,574.0462 L897.9524,574.3052 L907.9048,575.1671 L917.8571,574.6938 L927.8095,573.7504 L937.7619,574.0059 L947.7143,573.9598 L957.6667,573.7236 L967.619,573.8389 L977.5714,574.0421 L987.5238,574.9788 L997.4762,573.8119 L1007.4286,574.1 L1017.381,574.4711 L1027.3333,574.0735 L1037.2857,574.7952 L1047.2381,574.6859 L1057.1905,574.1165 L1067.1429,573.9758 L1077.0952,574.4898 L1087.0476,574.3709 L1097,574.4219 " fill="#FEFECE" style="stroke: #A80036; stroke-width: 1.5;"/><text fill="#000000" font-family="sans-serif" font-size="11" lengthAdjust="spacingAndGlyphs" textLength="199" x="893" y="588.6323">+PHP構文チェック: phpValidSyntax()</text><!--class Page--><polygon fill="#FEFECE" filter="url(#fwcgy3l)" points="451,763.9531,451,763.3912,460.8077,763.6343,470.6154,764.2094,480.4231,763.9958,490.2308,763.5752,500.0385,763.7271,509.8462,763.7713,519.6538,764.0318,529.4615,764.0811,539.2692,764.5926,549.0769,763.8381,558.8846,764.4464,568.6923,764.286,578.5,764.1805,588.3077,763.8912,598.1154,763.4116,607.9231,763.7361,617.7308,764.1251,627.5385,764.3871,637.3462,764.54,647.1538,763.7294,656.9615,764.3872,666.7692,764.6124,676.5769,763.4138,686.3846,763.6379,696.1923,764.1682,706,763.9531,706.0857,763.9531,706.5029,774.0851,706.6113,784.217,705.8957,794.349,706.7101,804.4809,706.3021,814.6128,706.1471,824.7448,705.3951,834.8767,705.6352,845.0087,706,855.1406,706,855.449,696.1923,854.6366,686.3846,854.5814,676.5769,855.637,666.7692,854.4702,656.9615,854.6958,647.1538,854.4317,637.3462,855.4093,627.5385,854.6086,617.7308,855.8401,607.9231,855.0937,598.1154,855.6355,588.3077,855.6973,578.5,854.6389,568.6923,855.0345,558.8846,854.6989,549.0769,854.4132,539.2692,854.5453,529.4615,855.7944,519.6538,854.4298,509.8462,855.0675,500.0385,855.2376,490.2308,854.771,480.4231,855.5725,470.6154,854.6001,460.8077,854.7586,451,855.1406,451.1166,855.1406,450.82,845.0087,451.3918,834.8767,450.2555,824.7448,450.9471,814.6128,450.5037,804.4809,450.4265,794.349,451.7274,784.217,450.8239,774.0851,451,763.9531" style="stroke: #A80036; stroke-width: 1.5;"/><text fill="#000000" font-family="sans-serif" font-size="12" lengthAdjust="spacingAndGlyphs" textLength="32" x="562.5" y="780.0918">Page</text><path d="M452,787.9219 L452,788.6523 L462.12,787.2771 L472.24,788.177 L482.36,788.6841 L492.48,788.2874 L502.6,788.6729 L512.72,788.4196 L522.84,788.8489 L532.96,788.3879 L543.08,787.8552 L553.2,787.5504 L563.32,787.5185 L573.44,788.3689 L583.56,787.7247 L593.68,787.1559 L603.8,788.7819 L613.92,788.7176 L624.04,787.5554 L634.16,787.7985 L644.28,787.2013 L654.4,788.3758 L664.52,788.6051 L674.64,788.5619 L684.76,787.0554 L694.88,787.2398 L705,787.9219 " fill="#FEFECE" style="stroke: #A80036; stroke-width: 1.5;"/><text fill="#000000" font-family="sans-serif" font-size="11" lengthAdjust="spacingAndGlyphs" textLength="113" x="457" y="802.1323">+本稿記事：contents</text><text fill="#000000" font-family="sans-serif" font-size="11" lengthAdjust="spacingAndGlyphs" textLength="91" x="457" y="814.937">+草稿記事：draft</text><text fill="#000000" font-family="sans-serif" font-size="11" lengthAdjust="spacingAndGlyphs" textLength="225" x="457" y="827.7417">+固定ページテンプレート：page_template</text><text fill="#000000" font-family="sans-serif" font-size="11" lengthAdjust="spacingAndGlyphs" textLength="243" x="457" y="840.5464">+埋め込みコード：code ※ baserCMS５で廃止</text><path d="M452,847.1406 L452,847.1052 L462.12,846.8614 L472.24,847.402 L482.36,846.6382 L492.48,847.9276 L502.6,847.032 L512.72,846.5213 L522.84,847.5854 L532.96,846.8327 L543.08,847.2295 L553.2,846.6278 L563.32,847.1074 L573.44,846.4963 L583.56,847.4015 L593.68,846.7518 L603.8,846.618 L613.92,847.0617 L624.04,848.0509 L634.16,847.9563 L644.28,846.7649 L654.4,846.1913 L664.52,846.6668 L674.64,847.0041 L684.76,846.783 L694.88,846.891 L705,847.1406 " fill="#FEFECE" style="stroke: #A80036; stroke-width: 1.5;"/><path d="M693.39,184.1131 L692.8594,183.6209 L686.2683,191.0035 L680.2527,198.9203 L673.7274,206.364 L667.1726,213.7803 L659.3303,220.0023 L652.6569,227.3086 L646.7332,235.3105 L639.0141,241.6467 L633.17,249.7225 L625.6095,256.2057 L618.7909,263.3774 L613.3223,271.8016 L605.9,278.4131 " fill="none" style="stroke: #000000; stroke-width: 1.0;"/><polygon fill="#000000" points="602.31,282.2931,602.2581,282.1722,604.0986,281.4662,606.0241,280.9581,607.6677,279.7934,609.6174,279.3418,611.36,278.4076,611.3559,278.3016,610.2266,278.375,609.1066,278.6941,607.9688,278.5488,606.8351,278.509,605.7073,278.6246,605.7715,278.627,605.6706,277.4943,605.4157,276.3556,605.7791,275.2407,605.3068,274.0937,605.4904,272.9719,605.4483,272.9575,605.0027,274.8868,604.0639,276.6477,603.396,278.5011,603.0295,280.4573,602.31,282.2931" style="stroke: #000000; stroke-width: 1.0;"/><path d="M261.24,106.4531 L261.24,106.7167 L267.22,106.3652 L273.2,106.2547 L279.18,106.5034 L285.16,106.4795 L291.14,106.4531 " fill="none" style="stroke: #000000; stroke-width: 1.0;"/><polygon fill="#000000" points="296.35,106.4531,296.431,106.6353,294.5477,105.648,292.816,105.0017,291.0025,104.1712,289.1797,103.3198,287.35,102.4531,287.4231,102.5262,288.0564,103.1595,288.9357,104.0388,289.67,104.7731,290.5896,105.6927,291.35,106.4531,291.3815,106.4846,290.632,107.3351,289.7827,108.0858,288.8303,108.7334,287.996,109.4991,287.35,110.4531,287.3651,110.4871,289.1764,109.7126,290.9597,108.875,292.6781,107.8912,294.5743,107.3077,296.35,106.4531" style="stroke: #000000; stroke-width: 1.0;"/><path d="M415.56,133.2531 L415.5102,133.2066 L422.4613,140.635 L429.6363,148.2721 L436.1449,155.2878 L443.3706,162.9722 L449.9261,170.0315 L455.8468,176.4988 L462.4863,183.6364 L469.8166,191.4184 L476.0842,198.2093 L483.0743,205.674 L490.3203,213.3774 L496.2007,219.807 L503.6592,227.7085 L510.1307,234.6896 L516.696,241.7581 L523.7579,249.2897 L530.2004,256.2437 L537.46,263.9597 L544.2113,271.2017 L551.08,278.5531 " fill="none" style="stroke: #000000; stroke-width: 1.0;"/><polygon fill="#000000" points="554.53,282.2531,554.5747,282.2685,554.0269,280.437,553.2002,278.5098,552.5672,276.6491,551.7654,274.7304,551.3315,272.9381,551.5647,272.9466,551.0868,274.0613,551.0922,275.1936,551.2073,276.3299,551.372,277.4681,551.1256,278.5912,551.1338,278.8164,549.9996,278.6793,548.8701,278.6668,547.7294,278.3489,546.6032,278.4311,545.4724,278.3852,545.3958,278.2056,547.2278,279.0272,549.0883,279.9155,550.8829,280.6495,552.7547,281.5644,554.53,282.2531" style="stroke: #000000; stroke-width: 1.0;"/><path d="M627.35,308.9531 L627.35,308.684 L633.352,308.8871 L639.354,309.2596 L645.356,308.6352 L651.358,309.0328 L657.36,308.9531 " fill="none" style="stroke: #000000; stroke-width: 1.0;"/><polygon fill="#000000" points="622.11,308.9531,622.0648,308.8515,623.9866,309.9256,625.6721,310.4678,627.5377,311.4154,629.3548,312.2539,631.11,312.9531,631.0919,312.935,630.3196,312.1627,629.5338,311.377,628.769,310.6121,627.8529,309.696,627.11,308.9531,627.166,309.0091,627.7953,308.0384,628.7198,307.363,629.4762,306.5193,630.2813,305.7245,631.11,304.9531,631.087,304.9013,629.3269,305.7912,627.5971,306.749,625.721,307.378,623.8483,308.0143,622.11,308.9531" style="stroke: #000000; stroke-width: 1.0;"/><path d="M578.5,335.6331 L578.437,335.6331 L579.1064,345.9609 L578.9269,356.2887 L578.113,366.6165 L579.4993,376.9442 L579.1347,387.272 L578.5855,397.5998 L578.4272,407.9276 L578.3662,418.2553 L578.5,428.5831 " fill="none" style="stroke: #000000; stroke-width: 1.0;"/><polygon fill="#000000" points="578.5,433.8631,578.2819,433.7662,579.2515,432.0416,580.1065,430.266,580.9333,428.4779,581.5478,426.5955,582.5,424.8631,582.572,424.9351,581.8643,425.8274,581.0525,426.6156,580.0815,427.2447,579.392,428.1551,578.5,428.8631,578.4317,428.7949,577.6644,428.0275,576.8291,427.1922,575.9864,426.3495,575.3285,425.6916,574.5,424.8631,574.5535,424.8869,575.351,426.6858,575.8721,428.3618,576.927,430.2751,577.663,432.0467,578.5,433.8631" style="stroke: #000000; stroke-width: 1.0;"/><path d="M852.21,568.9531 L852.21,569.0807 L858.09,569.2086 L863.97,569.0118 L869.85,568.8869 L875.73,568.882 L881.61,568.9531 " fill="none" style="stroke: #000000; stroke-width: 1.0;"/><polygon fill="#000000" points="886.73,568.9531,886.701,568.8878,884.9229,568.1373,883.1868,567.4809,881.2682,566.4141,879.5605,565.8217,877.73,564.9531,877.8443,565.0674,878.4691,565.6922,879.3491,566.5722,880.3053,567.5284,880.8509,568.074,881.73,568.9531,881.6298,568.8529,880.9824,569.8055,880.2385,570.6616,879.1905,571.2136,878.4108,572.0339,877.73,572.9531,877.7579,573.016,879.5248,572.1413,881.3282,571.3492,883.081,570.443,884.9819,569.8699,886.73,568.9531" style="stroke: #000000; stroke-width: 1.0;"/><path d="M520.02,308.9531 L520.02,309.2367 L522.98,308.7882 L525.94,308.8584 L528.9,308.6271 L531.86,308.8893 L534.82,308.9531 " fill="none" style="stroke: #000000; stroke-width: 1.0; stroke-dasharray: 1.0,3.0;"/><polygon fill="none" points="519.75,315.9531,519.7868,316.0582,515.8028,314.7039,511.8197,313.3521,507.7083,311.6339,503.7971,310.4876,499.75,308.9531,499.8064,309.1142,503.7625,307.5888,507.7823,306.2455,511.6998,304.6097,515.7464,303.3429,519.75,301.9531,519.7061,301.9531,519.5132,304.7531,519.5765,307.5531,519.9045,310.3531,519.7118,313.1531,519.75,315.9531" style="stroke: #000000; stroke-width: 1.0;"/><path d="M578.5,704.1931 L578.4959,704.1931 L578.7095,715.0491 L578.5331,725.9051 L577.52,736.7611 L579.067,747.6171 L578.5,758.4731 " fill="none" style="stroke: #000000; stroke-width: 1.0;"/><polygon fill="#000000" points="578.5,763.8631,578.3082,763.7779,579.2792,762.0539,580.0854,760.2566,580.9948,758.5053,581.8263,756.7193,582.5,754.8631,582.5038,754.8669,581.5458,755.509,580.8032,756.3663,580.0514,757.2146,579.2355,757.9986,578.5,758.8631,578.6145,758.9777,577.7599,758.123,576.8557,757.2189,575.9396,756.3027,575.3299,755.693,574.5,754.8631,574.4183,754.8268,575.1675,756.6043,576.186,758.5013,576.8853,760.2566,577.6705,762.05,578.5,763.8631" style="stroke: #000000; stroke-width: 1.0;"/></g></svg>