<?xml version="1.0" encoding="UTF-8" standalone="no"?><svg xmlns="http://www.w3.org/2000/svg" xmlns:xlink="http://www.w3.org/1999/xlink" contentScriptType="application/ecmascript" contentStyleType="text/css" height="884px" preserveAspectRatio="none" style="width:704px;height:884px;" version="1.1" viewBox="0 0 704 884" width="704px" zoomAndPan="magnify"><defs><filter height="300%" id="f4an06n" width="300%" x="-1" y="-1"><feGaussianBlur result="blurOut" stdDeviation="2.0"/><feColorMatrix in="blurOut" result="blurOut2" type="matrix" values="0 0 0 0 0 0 0 0 0 0 0 0 0 0 0 0 0 0 .4 0"/><feOffset dx="4.0" dy="4.0" in="blurOut2" result="blurOut3"/><feBlend in="SourceGraphic" in2="blurOut3" mode="normal"/></filter></defs><g><text fill="#000000" font-family="sans-serif" font-size="18" lengthAdjust="spacingAndGlyphs" textLength="126" x="293.5" y="17.4023">固定ページ管理</text><!--class PagesController--><polygon fill="#FEFECE" filter="url(#f4an06n)" points="6,94.1992,6,94.8266,15.8947,94.2221,25.7895,94.2158,35.6842,94.774,45.5789,94.7672,55.4737,93.5345,65.3684,93.962,75.2632,94.3382,85.1579,93.8297,95.0526,94.9456,104.9474,94.3496,114.8421,93.8423,124.7368,94.0369,134.6316,94.2153,144.5263,93.5911,154.4211,93.7428,164.3158,93.8078,174.2105,94.2995,184.1053,94.093,194,94.1992,193.3999,94.1992,193.4226,104.8168,194.6116,115.4344,193.3166,126.052,193.3721,136.6695,194,147.2871,194,147.9757,184.1053,147.6888,174.2105,147.3906,164.3158,147.8217,154.4211,147.4938,144.5263,147.1021,134.6316,146.8601,124.7368,147.2306,114.8421,146.5668,104.9474,147.3882,95.0526,146.6965,85.1579,148.0047,75.2632,147.2513,65.3684,147.5909,55.4737,147.9272,45.5789,146.642,35.6842,146.9394,25.7895,147.4484,15.8947,146.7455,6,147.2871,6.106,147.2871,6.6403,136.6695,5.6631,126.052,5.5365,115.4344,6.4726,104.8168,6,94.1992" style="stroke: #A80036; stroke-width: 1.5;"/><text fill="#000000" font-family="sans-serif" font-size="12" lengthAdjust="spacingAndGlyphs" textLength="90" x="55" y="110.8008">PagesController</text><path d="M7,118.332 L7,117.7588 L16.7895,118.8805 L26.5789,118.6955 L36.3684,117.3688 L46.1579,118.5004 L55.9474,117.4275 L65.7368,117.9813 L75.5263,118.7075 L85.3158,117.8477 L95.1053,117.6446 L104.8947,118.8791 L114.6842,118.9771 L124.4737,119.3282 L134.2632,119.2342 L144.0526,119.2091 L153.8421,118.3956 L163.6316,118.5164 L173.4211,117.7706 L183.2105,117.9935 L193,118.332 " fill="#FEFECE" style="stroke: #A80036; stroke-width: 1.5;"/><path d="M7,126.332 L7,126.6553 L16.7895,126.7467 L26.5789,127.2731 L36.3684,125.7849 L46.1579,125.4979 L55.9474,126.0522 L65.7368,126.8677 L75.5263,125.408 L85.3158,126.2112 L95.1053,126.582 L104.8947,126.9844 L114.6842,125.7714 L124.4737,126.1425 L134.2632,126.2278 L144.0526,125.3745 L153.8421,125.9737 L163.6316,126.9971 L173.4211,126.3496 L183.2105,127.2539 L193,126.332 " fill="#FEFECE" style="stroke: #A80036; stroke-width: 1.5;"/><text fill="#000000" font-family="sans-serif" font-size="11" lengthAdjust="spacingAndGlyphs" textLength="176" x="12" y="140.9668">+固定ページを表示する：display()</text><!--class Admin\PagesController--><polygon fill="#FEFECE" filter="url(#f4an06n)" points="229,29.1992,229,29.0878,238.9149,29.3699,248.8298,28.4574,258.7447,29.7628,268.6596,28.738,278.5745,29.344,288.4894,29.9431,298.4043,28.8753,308.3191,28.4771,318.234,29.2285,328.1489,29.278,338.0638,28.7175,347.9787,29.2256,357.8936,29.4189,367.8085,29.0986,377.7234,29.753,387.6383,29.198,397.5532,29.325,407.4681,28.8652,417.383,29.3324,427.2979,29.9279,437.2128,29.4544,447.1277,29.1709,457.0426,29.2844,466.9574,29.1898,476.8723,28.9274,486.7872,29.7717,496.7021,28.9656,506.617,29.7083,516.5319,29.6289,526.4468,28.7914,536.3617,28.6879,546.2766,28.611,556.1915,28.4791,566.1064,28.5671,576.0213,28.4756,585.9362,28.6685,595.8511,29.2178,605.766,28.8783,615.6809,29.5268,625.5957,28.4559,635.5106,29.153,645.4255,29.3475,655.3404,28.5649,665.2553,28.6919,675.1702,28.5208,685.0851,28.6086,695,29.1992,694.2741,29.1992,694.435,39.3458,695.7394,49.4924,694.7141,59.639,695.4966,69.7856,694.3605,79.9322,695.2122,90.0788,694.9881,100.2254,694.6751,110.372,695.3164,120.5186,694.2707,130.6651,695.4535,140.8117,694.3686,150.9583,694.5061,161.1049,695.0753,171.2515,694.3083,181.3981,695.4672,191.5447,694.366,201.6913,695,211.8379,695,212.5603,685.0851,211.9236,675.1702,211.9037,665.2553,211.4329,655.3404,212.3641,645.4255,212.5628,635.5106,212.4548,625.5957,211.4617,615.6809,211.5687,605.766,211.8876,595.8511,212.4509,585.9362,212.0857,576.0213,211.2664,566.1064,212.1233,556.1915,211.7206,546.2766,211.7424,536.3617,212.2573,526.4468,212.2845,516.5319,211.1386,506.617,212.1806,496.7021,212.1915,486.7872,212.2288,476.8723,212.1619,466.9574,212.5578,457.0426,211.572,447.1277,211.905,437.2128,212.103,427.2979,212.3016,417.383,211.5868,407.4681,211.8186,397.5532,212.4436,387.6383,211.388,377.7234,211.7556,367.8085,212.0018,357.8936,212.2732,347.9787,212.0219,338.0638,212.0459,328.1489,211.3011,318.234,212.1096,308.3191,211.5549,298.4043,211.9175,288.4894,211.5901,278.5745,211.4212,268.6596,212.336,258.7447,212.1975,248.8298,211.5751,238.9149,211.1247,229,211.8379,228.7357,211.8379,229.4404,201.6913,228.8449,191.5447,228.8385,181.3981,228.8425,171.2515,229.0182,161.1049,228.7755,150.9583,229.2706,140.8117,229.1453,130.6651,228.9557,120.5186,229.6579,110.372,228.6528,100.2254,229.2697,90.0788,229.3648,79.9322,228.8658,69.7856,228.4714,59.639,228.9486,49.4924,229.6506,39.3458,229,29.1992" style="stroke: #A80036; stroke-width: 1.5;"/><text fill="#000000" font-family="sans-serif" font-size="12" lengthAdjust="spacingAndGlyphs" textLength="133" x="395.5" y="45.8008">Admin\PagesController</text><path d="M230,53.332 L230,52.5881 L240.087,53.7693 L250.1739,52.6189 L260.2609,52.7303 L270.3478,54.3046 L280.4348,53.5399 L290.5217,52.5446 L300.6087,53.4909 L310.6957,54.2996 L320.7826,52.4533 L330.8696,52.5592 L340.9565,53.6374 L351.0435,53.8185 L361.1304,54.2802 L371.2174,53.4479 L381.3043,53.0237 L391.3913,52.4997 L401.4783,53.1045 L411.5652,54.2695 L421.6522,53.5969 L431.7391,54.112 L441.8261,52.5112 L451.913,53.4755 L462,54.0184 L472.087,53.3466 L482.1739,54.2957 L492.2609,53.8499 L502.3478,53.1415 L512.4348,53.7922 L522.5217,53.6108 L532.6087,53.7353 L542.6957,52.3397 L552.7826,52.5647 L562.8696,54.1737 L572.9565,52.4516 L583.0435,53.2342 L593.1304,54.1081 L603.2174,53.0523 L613.3043,53.947 L623.3913,54.11 L633.4783,52.3996 L643.5652,53.6358 L653.6522,53.5388 L663.7391,53.2345 L673.8261,53.2114 L683.913,53.6636 L694,53.332 " fill="#FEFECE" style="stroke: #A80036; stroke-width: 1.5;"/><text fill="#000000" font-family="sans-serif" font-size="11" lengthAdjust="spacingAndGlyphs" textLength="151" x="235" y="67.9668">+AuthenticationComponent</text><text fill="#000000" font-family="sans-serif" font-size="11" lengthAdjust="spacingAndGlyphs" textLength="130" x="235" y="80.9219">+BcMessageComponent</text><path d="M230,87.2422 L230,88.0159 L240.087,86.3214 L250.1739,88.0854 L260.2609,86.5568 L270.3478,88.1995 L280.4348,87.3129 L290.5217,88.0976 L300.6087,87.5734 L310.6957,88.051 L320.7826,87.2561 L330.8696,87.0738 L340.9565,86.2525 L351.0435,87.1299 L361.1304,86.8731 L371.2174,88.2267 L381.3043,86.7815 L391.3913,86.3148 L401.4783,87.1439 L411.5652,87.8885 L421.6522,86.9834 L431.7391,87.5323 L441.8261,88.1607 L451.913,86.4377 L462,87.9047 L472.087,87.2383 L482.1739,88.1252 L492.2609,88.1134 L502.3478,87.9405 L512.4348,87.8075 L522.5217,86.8753 L532.6087,87.4142 L542.6957,87.2924 L552.7826,87.9886 L562.8696,86.9453 L572.9565,87.3764 L583.0435,87.5168 L593.1304,87.2812 L603.2174,87.9652 L613.3043,86.3142 L623.3913,87.0644 L633.4783,87.4652 L643.5652,87.1943 L653.6522,86.5801 L663.7391,87.05 L673.8261,87.5887 L683.913,88.1649 L694,87.2422 " fill="#FEFECE" style="stroke: #A80036; stroke-width: 1.5;"/><text fill="#000000" font-family="sans-serif" font-size="11" lengthAdjust="spacingAndGlyphs" textLength="147" x="235" y="101.877">+固定ページ新規追加：add()</text><text fill="#000000" font-family="sans-serif" font-size="11" lengthAdjust="spacingAndGlyphs" textLength="147" x="235" y="114.832">+固定ページ新規追加：add()</text><text fill="#000000" font-family="sans-serif" font-size="11" lengthAdjust="spacingAndGlyphs" textLength="125" x="235" y="127.7871">+固定ページ編集：edit()</text><text fill="#000000" font-family="sans-serif" font-size="11" lengthAdjust="spacingAndGlyphs" textLength="137" x="235" y="140.7422">+固定ページ削除：delete()</text><text fill="#000000" font-family="sans-serif" font-size="11" lengthAdjust="spacingAndGlyphs" textLength="175" x="235" y="153.6973">+固定ページをコピーする：copy()</text><text fill="#000000" font-family="sans-serif" font-size="11" lengthAdjust="spacingAndGlyphs" textLength="420" x="235" y="166.6523">+固定ページファイルを登録する：admin_entry_page_files() ※ baserCMS５で廃止</text><text fill="#000000" font-family="sans-serif" font-size="11" lengthAdjust="spacingAndGlyphs" textLength="418" x="235" y="179.6074">+固定ページファイルを書き出す：admin_write_page_files() ※ baserCMS５で廃止</text><text fill="#000000" font-family="sans-serif" font-size="11" lengthAdjust="spacingAndGlyphs" textLength="454" x="235" y="192.5625">+プレビュー用テンプレートを生成する：_createPreviewTemplate() ※ baserCMS５で廃止</text><text fill="#000000" font-family="sans-serif" font-size="11" lengthAdjust="spacingAndGlyphs" textLength="450" x="235" y="205.5176">+一覧の表示用データをセットする：_setAdminIndexViewData()： ※ baserCMS５で廃止</text><!--class BcAdminPageHelper--><polygon fill="#FEFECE" filter="url(#f4an06n)" points="356.5,304.6992,356.5,304.9407,366.75,305.2727,377,304.1198,387.25,304.3475,397.5,304.8929,407.75,305.3401,418,304.6784,428.25,305.0501,438.5,304.2845,448.75,305.3692,459,304.8072,469.25,305.165,479.5,304.6992,479.3052,304.6992,479.4107,312.7258,479.2575,320.7523,479.5025,328.7789,479.5994,336.8055,479.5,344.832,479.5,344.8946,469.25,344.8067,459,345.5264,448.75,344.8819,438.5,344.7212,428.25,345.4839,418,345.0244,407.75,345.0808,397.5,345.3289,387.25,344.8355,377,345.1797,366.75,344.1718,356.5,344.832,356.5928,344.832,356.6485,336.8055,356.3393,328.7789,356.3298,320.7523,356.3418,312.7258,356.5,304.6992" style="stroke: #A80036; stroke-width: 1.5;"/><text fill="#000000" font-family="sans-serif" font-size="12" lengthAdjust="spacingAndGlyphs" textLength="117" x="359.5" y="321.3008">BcAdminPageHelper</text><path d="M357.5,328.832 L357.5,327.9456 L367.5833,328.5115 L377.6667,329.1965 L387.75,329.0083 L397.8333,328.914 L407.9167,329.3934 L418,328.7529 L428.0833,328.3922 L438.1667,329.6033 L448.25,328.9862 L458.3333,329.377 L468.4167,328.8188 L478.5,328.832 " fill="#FEFECE" style="stroke: #A80036; stroke-width: 1.5;"/><path d="M357.5,336.832 L357.5,337.4157 L367.5833,337.0029 L377.6667,335.9439 L387.75,336.9387 L397.8333,336.6819 L407.9167,337.5125 L418,336.2312 L428.0833,336.6709 L438.1667,336.3288 L448.25,336.1408 L458.3333,337.3348 L468.4167,337.6423 L478.5,336.832 " fill="#FEFECE" style="stroke: #A80036; stroke-width: 1.5;"/><!--class PageService--><polygon fill="#FEFECE" filter="url(#f4an06n)" points="240.5,298.1992,240.5,298.5074,250.625,298.9354,260.75,298.0012,270.875,297.6221,281,297.7446,291.125,298.5973,301.25,298.4433,311.375,298.0516,321.5,298.1992,321.0224,298.1992,322.1338,308.8168,321.1754,319.4344,321.4878,330.052,322.1694,340.6695,321.5,351.2871,321.5,351.1375,311.375,351.3925,301.25,351.1317,291.125,351.5255,281,351.247,270.875,351.2923,260.75,350.8925,250.625,351.6281,240.5,351.2871,240.3897,351.2871,241.0467,340.6695,240.1707,330.052,240.1074,319.4344,239.8502,308.8168,240.5,298.1992" style="stroke: #A80036; stroke-width: 1.5;"/><text fill="#000000" font-family="sans-serif" font-size="12" lengthAdjust="spacingAndGlyphs" textLength="68" x="247" y="314.8008">PageService</text><path d="M241.5,322.332 L241.5,322.4778 L251.375,321.7061 L261.25,322.0306 L271.125,322.8021 L281,321.4607 L290.875,322.9472 L300.75,323.2222 L310.625,321.7796 L320.5,322.332 " fill="#FEFECE" style="stroke: #A80036; stroke-width: 1.5;"/><text fill="#000000" font-family="sans-serif" font-size="11" lengthAdjust="spacingAndGlyphs" textLength="69" x="246.5" y="336.9668">+PagesTable</text><path d="M241.5,343.2871 L241.5,342.9017 L251.375,343.8496 L261.25,343.5989 L271.125,343.9773 L281,343.5645 L290.875,343.6771 L300.75,343.2093 L310.625,343.9403 L320.5,343.2871 " fill="#FEFECE" style="stroke: #A80036; stroke-width: 1.5;"/><!--class PageServiceInterface--><polygon fill="#FEFECE" filter="url(#f4an06n)" points="49,272.1992,49,271.4843,58.75,272.456,68.5,272.3118,78.25,271.8067,88,272.3655,97.75,272.8717,107.5,271.6395,117.25,272.6125,127,272.3112,136.75,271.9152,146.5,271.9047,156.25,272.8501,166,271.7145,175.75,271.6143,185.5,271.6485,195.25,272.0842,205,272.1992,205.4468,272.1992,204.4004,282.69,205.6327,293.1809,204.3497,303.6717,204.7278,314.1625,204.8212,324.6533,205.1011,335.1441,205.6361,345.635,205.3374,356.1258,204.8652,366.6166,205,377.1074,205,377.0758,195.25,377.8242,185.5,376.5689,175.75,376.8264,166,377.4657,156.25,376.9329,146.5,377.3568,136.75,377.191,127,376.8739,117.25,376.4855,107.5,376.9808,97.75,377.1419,88,377.7686,78.25,377.0302,68.5,376.3885,58.75,377.1833,49,377.1074,48.799,377.1074,49.0568,366.6166,49.0872,356.1258,49.1949,345.635,49.1158,335.1441,49.3291,324.6533,48.8772,314.1625,48.5656,303.6717,48.4447,293.1809,48.8811,282.69,49,272.1992" style="stroke: #A80036; stroke-width: 1.5;"/><text fill="#000000" font-family="sans-serif" font-size="12" lengthAdjust="spacingAndGlyphs" textLength="118" x="68" y="288.8008">PageServiceInterface</text><path d="M50,296.332 L50,295.3807 L60.2667,296.0444 L70.5333,295.9656 L80.8,295.5841 L91.0667,296.4298 L101.3333,297.197 L111.6,296.0575 L121.8667,295.378 L132.1333,297.0332 L142.4,296.3371 L152.6667,296.7183 L162.9333,295.6342 L173.2,296.9064 L183.4667,295.7823 L193.7333,295.8773 L204,296.332 " fill="#FEFECE" style="stroke: #A80036; stroke-width: 1.5;"/><path d="M50,304.332 L50,304.1848 L60.2667,304.9779 L70.5333,303.8098 L80.8,303.9718 L91.0667,304.4092 L101.3333,304.2576 L111.6,304.9531 L121.8667,304.0673 L132.1333,304.1922 L142.4,304.3384 L152.6667,305.1583 L162.9333,304.6075 L173.2,305.0803 L183.4667,304.1055 L193.7333,305.0843 L204,304.332 " fill="#FEFECE" style="stroke: #A80036; stroke-width: 1.5;"/><text fill="#000000" font-family="sans-serif" font-size="11" lengthAdjust="spacingAndGlyphs" textLength="144" x="55" y="318.9668">+初期データ取得：getNew()</text><text fill="#000000" font-family="sans-serif" font-size="11" lengthAdjust="spacingAndGlyphs" textLength="83" x="55" y="331.9219">+作成：create()</text><text fill="#000000" font-family="sans-serif" font-size="11" lengthAdjust="spacingAndGlyphs" textLength="87" x="55" y="344.877">+編集：update()</text><text fill="#000000" font-family="sans-serif" font-size="11" lengthAdjust="spacingAndGlyphs" textLength="82" x="55" y="357.832">+削除：delete()</text><text fill="#000000" font-family="sans-serif" font-size="11" lengthAdjust="spacingAndGlyphs" textLength="122" x="55" y="370.7871">+単一データ取得：get()</text><!--class PagesTable--><polygon fill="#FEFECE" filter="url(#f4an06n)" points="17,437.1992,17,436.522,26.9623,437.3053,36.9245,436.5891,46.8868,436.9379,56.8491,437.7429,66.8113,436.7098,76.7736,437.9292,86.7358,437.6465,96.6981,436.4733,106.6604,437.5766,116.6226,437.7508,126.5849,436.7057,136.5472,437.2753,146.5094,437.0009,156.4717,436.6854,166.434,437.0672,176.3962,436.8807,186.3585,437.5604,196.3208,437.4332,206.283,436.5874,216.2453,437.8778,226.2075,436.9249,236.1698,437.4718,246.1321,437.4285,256.0943,436.9971,266.0566,437.2764,276.0189,437.3542,285.9811,437.2767,295.9434,436.5504,305.9057,437.5705,315.8679,437.6895,325.8302,436.6622,335.7925,437.7205,345.7547,437.1464,355.717,436.7376,365.6792,437.1453,375.6415,436.5612,385.6038,436.8083,395.566,437.1593,405.5283,436.5119,415.4906,437.2437,425.4528,436.7622,435.4151,436.8305,445.3774,436.8872,455.3396,437.275,465.3019,436.6893,475.2642,437.7693,485.2264,436.831,495.1887,437.6253,505.1509,437.2774,515.1132,437.1271,525.0755,436.5295,535.0377,437.4199,545,437.1992,544.5117,437.1992,545.662,447.0709,545.4325,456.9426,545.3958,466.8143,544.7436,476.686,544.9454,486.5577,544.9115,496.4294,544.4674,506.3011,545.3321,516.1728,545.0642,526.0445,545.5488,535.9162,545.3348,545.7879,545.2274,555.6596,545.5228,565.5313,545.7495,575.403,544.3264,585.2747,545.1382,595.1464,544.8049,605.0181,544.3974,614.8898,544.9948,624.7615,545.4879,634.6332,544.7375,644.5049,544.3491,654.3766,544.487,664.2483,544.9969,674.12,544.6635,683.9917,545.4497,693.8634,545.6461,703.7351,544.5918,713.6068,545,723.4785,545,724.1405,535.0377,724.101,525.0755,723.8305,515.1132,723.1231,505.1509,722.8211,495.1887,723.1292,485.2264,723.9466,475.2642,722.9742,465.3019,723.2829,455.3396,723.2,445.3774,723.1232,435.4151,722.7742,425.4528,723.1493,415.4906,723.6243,405.5283,723.601,395.566,723.4111,385.6038,723.1839,375.6415,723.3842,365.6792,724.0678,355.717,723.6532,345.7547,723.3457,335.7925,723.2804,325.8302,724.0518,315.8679,723.1502,305.9057,723.7645,295.9434,723.9733,285.9811,722.771,276.0189,724.0802,266.0566,723.5059,256.0943,723.1134,246.1321,723.8217,236.1698,723.5225,226.2075,723.1455,216.2453,724.058,206.283,723.0568,196.3208,724.0656,186.3585,723.0923,176.3962,723.3569,166.434,723.9989,156.4717,723.7293,146.5094,723.7854,136.5472,722.768,126.5849,723.1309,116.6226,723.9935,106.6604,723.8362,96.6981,723.0356,86.7358,723.4346,76.7736,724.0767,66.8113,722.9059,56.8491,723.5209,46.8868,723.0764,36.9245,723.5993,26.9623,724.0862,17,723.4785,17.0485,723.4785,17.2164,713.6068,16.4251,703.7351,16.3233,693.8634,17.3224,683.9917,17.3313,674.12,17.5923,664.2483,16.2813,654.3766,17.7472,644.5049,17.4782,634.6332,17.6171,624.7615,16.2772,614.8898,17.663,605.0181,17.2674,595.1464,17.2508,585.2747,17.2038,575.403,17.0651,565.5313,16.6841,555.6596,17.2237,545.7879,16.4246,535.9162,17.1317,526.0445,17.0728,516.1728,16.3905,506.3011,16.7424,496.4294,16.6318,486.5577,17.3949,476.686,16.8219,466.8143,17.0399,456.9426,17.7412,447.0709,17,437.1992" style="stroke: #A80036; stroke-width: 1.5;"/><text fill="#000000" font-family="sans-serif" font-size="12" lengthAdjust="spacingAndGlyphs" textLength="67" x="247.5" y="453.8008">PagesTable</text><path d="M18,461.332 L18,461.3448 L27.9245,460.6424 L37.8491,461.6902 L47.7736,461.571 L57.6981,460.5383 L67.6226,460.5234 L77.5472,461.7856 L87.4717,460.4464 L97.3962,460.6575 L107.3208,460.765 L117.2453,461.475 L127.1698,460.9626 L137.0943,460.4097 L147.0189,461.4768 L156.9434,462.0322 L166.8679,462.1674 L176.7925,462.1663 L186.717,461.1148 L196.6415,461.6722 L206.566,461.0332 L216.4906,461.1107 L226.4151,462.0423 L236.3396,461.2009 L246.2642,462.2313 L256.1887,462.0789 L266.1132,460.4542 L276.0377,461.7032 L285.9623,460.6078 L295.8868,460.5107 L305.8113,460.5333 L315.7358,461.4141 L325.6604,462.3255 L335.5849,462.3064 L345.5094,461.6962 L355.434,461.8921 L365.3585,461.9704 L375.283,460.4558 L385.2075,460.9662 L395.1321,462.2779 L405.0566,461.444 L414.9811,462.0574 L424.9057,461.8737 L434.8302,460.769 L444.7547,462.1706 L454.6792,461.7954 L464.6038,460.8395 L474.5283,460.4794 L484.4528,461.0458 L494.3774,461.0667 L504.3019,461.7346 L514.2264,460.577 L524.1509,460.6351 L534.0755,461.7731 L544,461.332 " fill="#FEFECE" style="stroke: #A80036; stroke-width: 1.5;"/><path d="M18,469.332 L18,469.2389 L27.9245,469.0055 L37.8491,469.4057 L47.7736,470.2962 L57.6981,469.7369 L67.6226,470.1933 L77.5472,470.2307 L87.4717,468.3699 L97.3962,468.7904 L107.3208,469.9444 L117.2453,469.0529 L127.1698,469.4414 L137.0943,468.7173 L147.0189,470.1756 L156.9434,468.4294 L166.8679,469.6846 L176.7925,468.4874 L186.717,470.3301 L196.6415,468.6985 L206.566,470.082 L216.4906,469.0057 L226.4151,470.1455 L236.3396,468.7218 L246.2642,469.9375 L256.1887,469.9119 L266.1132,469.9914 L276.0377,468.5477 L285.9623,468.8106 L295.8868,469.2605 L305.8113,470.218 L315.7358,469.9291 L325.6604,469.1836 L335.5849,468.8767 L345.5094,469.8657 L355.434,469.3981 L365.3585,470.1768 L375.283,469.7974 L385.2075,469.6903 L395.1321,468.5609 L405.0566,469.3214 L414.9811,470.0089 L424.9057,468.7398 L434.8302,469.4198 L444.7547,468.7816 L454.6792,468.6845 L464.6038,469.6991 L474.5283,468.8679 L484.4528,468.4822 L494.3774,469.3006 L504.3019,469.8766 L514.2264,470.0175 L524.1509,469.3588 L534.0755,468.3785 L544,469.332 " fill="#FEFECE" style="stroke: #A80036; stroke-width: 1.5;"/><text fill="#000000" font-family="sans-serif" font-size="11" lengthAdjust="spacingAndGlyphs" textLength="263" x="23" y="483.9668">+ページをコピーする：copy()※ PageService に移行</text><text fill="#000000" font-family="sans-serif" font-size="11" lengthAdjust="spacingAndGlyphs" textLength="248" x="23" y="496.9219">+検索用データを生成する：createSearchIndex()</text><text fill="#000000" font-family="sans-serif" font-size="11" lengthAdjust="spacingAndGlyphs" textLength="328" x="23" y="509.877">+初期値を取得する：getDefaultValue() ※ Page::getNew() に移行</text><text fill="#000000" font-family="sans-serif" font-size="11" lengthAdjust="spacingAndGlyphs" textLength="460" x="23" y="522.832">+固定ページテンプレートリストを取得する：getPageTemplateList() ※ PageService に移行</text><text fill="#000000" font-family="sans-serif" font-size="11" lengthAdjust="spacingAndGlyphs" textLength="390" x="23" y="535.7871">+コントロールソースを取得する：getControlSource() ※ PageService に移行</text><text fill="#000000" font-family="sans-serif" font-size="11" lengthAdjust="spacingAndGlyphs" textLength="325" x="23" y="548.7422">+PHP構文チェック：phpValidSyntax() ※ PageValidation に移行</text><text fill="#000000" font-family="sans-serif" font-size="11" lengthAdjust="spacingAndGlyphs" textLength="193" x="23" y="561.6973">+削除：delete() ※ baserCMS５で廃止</text><text fill="#000000" font-family="sans-serif" font-size="11" lengthAdjust="spacingAndGlyphs" textLength="308" x="23" y="574.6523">+最終登録IDを取得する：getInsertID() ※ baserCMS５で廃止</text><text fill="#000000" font-family="sans-serif" font-size="11" lengthAdjust="spacingAndGlyphs" textLength="352" x="23" y="587.6074">+URLより固定ページデータを探す：findByUrl() ※ baserCMS５で廃止</text><text fill="#000000" font-family="sans-serif" font-size="11" lengthAdjust="spacingAndGlyphs" textLength="253" x="23" y="600.5625">+getParentPageTemplate() ※ baserCMS５で廃止</text><text fill="#000000" font-family="sans-serif" font-size="11" lengthAdjust="spacingAndGlyphs" textLength="452" x="23" y="613.5176">+固定ページとして管理されているURLかチェックする：isPageUrl() ※ baserCMS５で廃止</text><text fill="#000000" font-family="sans-serif" font-size="11" lengthAdjust="spacingAndGlyphs" textLength="428" x="23" y="626.4727">+本文にbaserが管理するタグを追加する：addBaserPageTag() ※ baserCMS５で廃止</text><text fill="#000000" font-family="sans-serif" font-size="11" lengthAdjust="spacingAndGlyphs" textLength="443" x="23" y="639.4277">+コンテンツフォルダのパスを取得する：getContentFolderPath() ※ baserCMS５で廃止</text><text fill="#000000" font-family="sans-serif" font-size="11" lengthAdjust="spacingAndGlyphs" textLength="506" x="23" y="652.3828">+ページテンプレートファイルが開けるかチェックする：checkOpenPageFile() ※ baserCMS５で廃止</text><text fill="#000000" font-family="sans-serif" font-size="11" lengthAdjust="spacingAndGlyphs" textLength="516" x="23" y="665.3379">+DBデータを元にページテンプレートを全て生成する：createAllPageTemplate() ※ baserCMS５で廃止</text><text fill="#000000" font-family="sans-serif" font-size="11" lengthAdjust="spacingAndGlyphs" textLength="400" x="23" y="678.293">+ページテンプレートを生成する：createPageTemplate() ※ baserCMS５で廃止</text><text fill="#000000" font-family="sans-serif" font-size="11" lengthAdjust="spacingAndGlyphs" textLength="305" x="23" y="691.248">+ページファイルを削除する：delFile() ※ baserCMS５で廃止</text><text fill="#000000" font-family="sans-serif" font-size="11" lengthAdjust="spacingAndGlyphs" textLength="348" x="23" y="704.2031">+ページファイルを登録する：entryPageFiles() ※ baserCMS５で廃止</text><text fill="#000000" font-family="sans-serif" font-size="11" lengthAdjust="spacingAndGlyphs" textLength="387" x="23" y="717.1582">+ページファイルのパスを取得する：getPageFilePath() ※ baserCMS５で廃止</text><!--class Page--><polygon fill="#FEFECE" filter="url(#f4an06n)" points="158,783.1992,158,783.7437,167.84,782.7537,177.68,783.2404,187.52,783.0616,197.36,782.5685,207.2,783.4543,217.04,783.0844,226.88,783.8313,236.72,783.6897,246.56,783.0126,256.4,782.7677,266.24,783.6309,276.08,782.6007,285.92,783.821,295.76,782.659,305.6,783.1331,315.44,783.6537,325.28,783.6008,335.12,782.4709,344.96,783.3101,354.8,782.7603,364.64,782.9916,374.48,783.0873,384.32,782.5976,394.16,783.1362,404,783.1992,404.0677,783.1992,404.3451,793.4162,404.4741,803.6332,404.0856,813.8503,404.4188,824.0673,404.4724,834.2843,403.9623,844.5013,404.348,854.7183,403.9008,864.9353,404,875.1523,404,874.5661,394.16,875.5702,384.32,874.904,374.48,874.8387,364.64,874.6151,354.8,875.2737,344.96,875.211,335.12,875.3608,325.28,874.5471,315.44,875.6928,305.6,874.4995,295.76,874.7538,285.92,874.877,276.08,874.9223,266.24,875.814,256.4,875.7237,246.56,875.2479,236.72,874.522,226.88,875.8813,217.04,875.0857,207.2,874.4367,197.36,875.4103,187.52,874.6267,177.68,875.7105,167.84,875.2665,158,875.1523,158.2053,875.1523,157.5607,864.9353,158.3564,854.7183,158.3806,844.5013,158.4929,834.2843,157.9427,824.0673,157.7147,813.8503,158.7296,803.6332,158.4697,793.4162,158,783.1992" style="stroke: #A80036; stroke-width: 1.5;"/><text fill="#000000" font-family="sans-serif" font-size="12" lengthAdjust="spacingAndGlyphs" textLength="28" x="267" y="799.8008">Page</text><path d="M159,807.332 L159,806.6026 L169.1667,807.957 L179.3333,807.0304 L189.5,808.0557 L199.6667,808.3035 L209.8333,806.7467 L220,808.1305 L230.1667,806.777 L240.3333,807.1332 L250.5,806.6449 L260.6667,808.2509 L270.8333,807.0931 L281,807.8516 L291.1667,806.6125 L301.3333,806.9291 L311.5,806.6798 L321.6667,806.8509 L331.8333,807.3663 L342,806.5284 L352.1667,808.0732 L362.3333,807.5778 L372.5,807.7915 L382.6667,808.0947 L392.8333,807.6469 L403,807.332 " fill="#FEFECE" style="stroke: #A80036; stroke-width: 1.5;"/><text fill="#000000" font-family="sans-serif" font-size="11" lengthAdjust="spacingAndGlyphs" textLength="111" x="164" y="821.9668">+本稿記事：contents</text><text fill="#000000" font-family="sans-serif" font-size="11" lengthAdjust="spacingAndGlyphs" textLength="90" x="164" y="834.9219">+草稿記事：draft</text><text fill="#000000" font-family="sans-serif" font-size="11" lengthAdjust="spacingAndGlyphs" textLength="219" x="164" y="847.877">+固定ページテンプレート：page_template</text><text fill="#000000" font-family="sans-serif" font-size="11" lengthAdjust="spacingAndGlyphs" textLength="234" x="164" y="860.832">+埋め込みコード：code ※ baserCMS５で廃止</text><path d="M159,867.1523 L159,866.5673 L169.1667,867.8967 L179.3333,866.5622 L189.5,866.9909 L199.6667,868.0323 L209.8333,867.0291 L220,867.9338 L230.1667,866.5853 L240.3333,866.7163 L250.5,866.689 L260.6667,867.921 L270.8333,867.1272 L281,866.2304 L291.1667,867.1575 L301.3333,867.1344 L311.5,867.5852 L321.6667,866.7207 L331.8333,867.6328 L342,867.6331 L352.1667,866.3839 L362.3333,868.0804 L372.5,867.3026 L382.6667,868.1084 L392.8333,867.6971 L403,867.1523 " fill="#FEFECE" style="stroke: #A80036; stroke-width: 1.5;"/><path d="M380.77,212.3592 L381.3695,212.8964 L373.7558,219.4633 L367.4214,227.1766 L361.1073,234.908 L354.7486,242.5994 L347.3532,249.3619 L341.39,257.4078 L333.9615,264.1406 L327.4837,271.7254 L320.7386,279.0706 L314.4608,286.8346 L307.57,294.0492 " fill="none" style="stroke: #000000; stroke-width: 1.0;"/><polygon fill="#000000" points="304.04,297.9892,303.9857,297.8689,305.8106,297.124,307.6547,296.4216,309.4583,295.6296,311.2807,294.8791,313.0176,293.9392,313.0264,294.0952,311.8804,293.8683,310.7548,294.0032,309.6326,294.1956,308.4883,294.0004,307.3698,294.2593,307.3398,294.2576,307.449,293.1378,307.1322,291.994,307.1736,290.8704,307.1008,289.7403,307.0497,288.6115,307.0896,288.6243,306.4592,290.4907,305.6353,292.295,305.4512,294.3047,304.4738,296.0597,304.04,297.9892" style="stroke: #000000; stroke-width: 1.0;"/><path d="M122.92,147.2792 L123.0162,147.3654 L129.2065,154.3608 L135.5466,161.4904 L143.404,169.9796 L149.5968,176.9772 L155.2699,183.5092 L161.7597,190.773 L168.3919,198.1643 L175.3055,205.8077 L182.7224,213.9022 L188.0877,220.1584 L195.6339,228.3687 L201.3922,234.977 L208.46,242.7587 L215.2308,250.2742 L222.1014,257.8791 L228.2248,264.8146 L235.2216,272.5326 L242.059,280.1079 L248.5999,287.4174 L254.63,294.2692 " fill="none" style="stroke: #000000; stroke-width: 1.0;"/><polygon fill="#000000" points="257.98,298.0092,258.1221,298.0555,257.3562,296.1315,256.9361,294.32,256.1478,292.3887,255.6313,290.5459,254.9325,288.6437,254.8414,288.6389,254.6536,289.762,254.8166,290.9035,254.7896,292.035,254.872,293.1723,254.6352,294.2927,254.6436,294.4526,253.494,294.0175,252.3739,294.1428,251.2444,294.0884,250.1242,294.2118,248.9861,293.9954,248.9915,294.0075,250.7475,294.7143,252.5209,295.4602,254.3834,296.4058,256.1824,297.2091,257.98,298.0092" style="stroke: #000000; stroke-width: 1.0;"/><path d="M326.81,324.6992 L326.81,324.5914 L332.706,324.7073 L338.602,324.4381 L344.498,324.46 L350.394,324.8734 L356.29,324.6992 " fill="none" style="stroke: #000000; stroke-width: 1.0;"/><polygon fill="#000000" points="321.67,324.6992,321.6048,324.5525,323.4705,325.5004,325.308,326.3847,326.9915,326.9227,328.8697,327.8986,330.67,328.6992,330.838,328.8672,329.7948,327.824,329.0681,327.0973,328.2091,326.2383,327.5625,325.5917,326.67,324.6992,326.7041,324.7333,327.3045,323.7337,328.1779,323.0071,329.2288,322.458,329.7656,321.3948,330.67,320.6992,330.6799,320.7215,328.9188,321.6091,327.081,322.324,325.2508,323.0559,323.5009,323.9688,321.67,324.6992" style="stroke: #000000; stroke-width: 1.0;"/><path d="M281,351.3992 L281.631,351.3992 L280.8051,361.4642 L281.5818,371.5292 L281.3852,381.5942 L280.6522,391.6592 L281.7287,401.7242 L280.8983,411.7892 L280.7707,421.8542 L281,431.9192 " fill="none" style="stroke: #000000; stroke-width: 1.0;"/><polygon fill="#000000" points="281,436.9292,281.1644,437.0023,281.7992,435.1289,282.4397,433.258,283.3192,431.4933,284.2281,429.7417,285,427.9292,284.9191,427.8483,284.3386,428.8678,283.2673,429.3965,282.5075,430.2368,281.6982,431.0274,281,431.9292,281.0014,431.9306,280.2327,431.1619,279.4527,430.382,278.4789,429.4081,277.8423,428.7715,277,427.9292,277.2126,428.0237,277.7259,429.6963,278.6557,431.554,279.3527,433.3082,280.0425,435.0592,281,436.9292" style="stroke: #000000; stroke-width: 1.0;"/><path d="M225.3,324.6992 L225.3,324.8189 L228.328,324.9109 L231.356,324.8033 L234.384,324.8763 L237.412,324.9933 L240.44,324.6992 " fill="none" style="stroke: #000000; stroke-width: 1.0; stroke-dasharray: 1.0,3.0;"/><polygon fill="none" points="225.2,331.6992,225.1855,331.6579,221.2549,330.4561,217.229,328.9822,213.1428,327.3358,209.2471,326.2337,205.2,324.6992,205.1415,324.532,209.1292,323.0968,213.1872,321.8625,217.1665,320.4035,221.2489,319.239,225.2,317.6992,225.4401,317.6992,225.435,320.4992,225.1793,323.2992,225.2966,326.0992,225.2768,328.8992,225.2,331.6992" style="stroke: #000000; stroke-width: 1.0;"/><path d="M281,723.4492 L281.4801,723.4492 L281.6082,734.2972 L280.6071,745.1452 L280.981,755.9932 L281.4634,766.8412 L281,777.6892 " fill="none" style="stroke: #000000; stroke-width: 1.0;"/><polygon fill="#000000" points="281,783.0592,281.1598,783.1302,281.8489,781.2809,282.6851,779.497,283.3821,777.6513,284.2578,775.8849,285,774.0592,285.1439,774.2031,284.1386,774.7978,283.57,775.8292,282.4312,776.2904,281.7413,777.2006,281,778.0592,280.9321,777.9913,280.3032,777.3624,279.3949,776.4541,278.5377,775.5969,277.6986,774.7578,277,774.0592,277.0971,774.1024,277.8253,775.8705,278.4335,777.5852,279.2155,779.3772,280.1333,781.2296,281,783.0592" style="stroke: #000000; stroke-width: 1.0;"/></g></svg>