<?xml version="1.0" encoding="UTF-8" standalone="no"?><svg xmlns="http://www.w3.org/2000/svg" xmlns:xlink="http://www.w3.org/1999/xlink" contentScriptType="application/ecmascript" contentStyleType="text/css" height="884px" preserveAspectRatio="none" style="width:993px;height:884px;" version="1.1" viewBox="0 0 993 884" width="993px" zoomAndPan="magnify"><defs><filter height="300%" id="fws4yim" width="300%" x="-1" y="-1"><feGaussianBlur result="blurOut" stdDeviation="2.0"/><feColorMatrix in="blurOut" result="blurOut2" type="matrix" values="0 0 0 0 0 0 0 0 0 0 0 0 0 0 0 0 0 0 .4 0"/><feOffset dx="4.0" dy="4.0" in="blurOut2" result="blurOut3"/><feBlend in="SourceGraphic" in2="blurOut3" mode="normal"/></filter></defs><g><text fill="#000000" font-family="sans-serif" font-size="18" lengthAdjust="spacingAndGlyphs" textLength="126" x="438" y="17.4023">固定ページ管理</text><!--class PagesController--><polygon fill="#FEFECE" filter="url(#fws4yim)" points="294.5,87.6992,294.5,88.2751,304.3947,87.6366,314.2895,88.1736,324.1842,87.194,334.0789,88.1223,343.9737,87.6302,353.8684,88.0973,363.7632,88.161,373.6579,88.2127,383.5526,88.0595,393.4474,87.0983,403.3421,87.0895,413.2368,88.0883,423.1316,86.964,433.0263,87.7332,442.9211,87.634,452.8158,88.0054,462.7105,87.3685,472.6053,87.9216,482.5,87.6992,482.1914,87.6992,482.3802,98.3168,481.8392,108.9344,481.93,119.552,482.7384,130.1695,482.5,140.7871,482.5,140.3916,472.6053,140.8668,462.7105,140.8523,452.8158,140.2609,442.9211,141.0062,433.0263,140.0752,423.1316,141.2013,413.2368,140.6034,403.3421,141.4291,393.4474,140.6609,383.5526,140.5983,373.6579,140.979,363.7632,141.0883,353.8684,140.8781,343.9737,140.5324,334.0789,140.6362,324.1842,140.5072,314.2895,140.0556,304.3947,141.044,294.5,140.7871,294.433,140.7871,294.6172,130.1695,294.3785,119.552,293.7647,108.9344,294.9039,98.3168,294.5,87.6992" style="stroke: #A80036; stroke-width: 1.5;"/><text fill="#000000" font-family="sans-serif" font-size="12" lengthAdjust="spacingAndGlyphs" textLength="90" x="343.5" y="104.3008">PagesController</text><path d="M295.5,111.832 L295.5,111.9356 L305.2895,112.3145 L315.0789,112.3594 L324.8684,111.5641 L334.6579,112.5559 L344.4474,111.3158 L354.2368,111.7759 L364.0263,111.868 L373.8158,111.7546 L383.6053,111.2096 L393.3947,111.7193 L403.1842,110.9352 L412.9737,112.1763 L422.7632,111.9443 L432.5526,112.5852 L442.3421,112.1649 L452.1316,112.7465 L461.9211,112.2334 L471.7105,111.9874 L481.5,111.832 " fill="#FEFECE" style="stroke: #A80036; stroke-width: 1.5;"/><path d="M295.5,119.832 L295.5,119.14 L305.2895,118.8711 L315.0789,118.8805 L324.8684,119.8466 L334.6579,119.3027 L344.4474,120.0187 L354.2368,118.8512 L364.0263,119.9335 L373.8158,119.6561 L383.6053,120.124 L393.3947,120.3145 L403.1842,119.2276 L412.9737,120.316 L422.7632,120.1428 L432.5526,119.0048 L442.3421,119.1914 L452.1316,120.4633 L461.9211,119.1754 L471.7105,119.0721 L481.5,119.832 " fill="#FEFECE" style="stroke: #A80036; stroke-width: 1.5;"/><text fill="#000000" font-family="sans-serif" font-size="11" lengthAdjust="spacingAndGlyphs" textLength="176" x="300.5" y="134.4668">+固定ページを表示する：display()</text><!--class BcFrontContentsComponent--><polygon fill="#FEFECE" filter="url(#fws4yim)" points="6,81.1992,6,81.3174,16.12,81.0692,26.24,80.4594,36.36,80.6495,46.48,81.173,56.6,81.0094,66.72,80.6377,76.84,81.4381,86.96,81.8058,97.08,80.595,107.2,81.4015,117.32,81.0311,127.44,81.1108,137.56,81.7237,147.68,80.7236,157.8,81.4031,167.92,81.9073,178.04,81.3509,188.16,81.3445,198.28,80.6763,208.4,81.4133,218.52,81.3117,228.64,81.4726,238.76,81.223,248.88,81.043,259,81.1992,259.6588,81.1992,259.4742,90.6339,258.5758,100.0686,258.9083,109.5033,258.5316,118.9381,258.6243,128.3728,259.1883,137.8075,259,147.2422,259,146.8615,248.88,147.5699,238.76,147.8812,228.64,147.4071,218.52,146.501,208.4,147.8569,198.28,146.642,188.16,147.0581,178.04,147.7178,167.92,147.4586,157.8,146.6595,147.68,146.953,137.56,147.1618,127.44,147.5635,117.32,147.0088,107.2,146.6294,97.08,146.5407,86.96,147.8049,76.84,147.4656,66.72,147.0333,56.6,147.7172,46.48,147.2242,36.36,147.0525,26.24,146.8057,16.12,147.6223,6,147.2422,6.3131,147.2422,6.135,137.8075,6.1278,128.3728,6.3259,118.9381,5.3219,109.5033,5.4652,100.0686,5.9039,90.6339,6,81.1992" style="stroke: #A80036; stroke-width: 1.5;"/><text fill="#000000" font-family="sans-serif" font-size="12" lengthAdjust="spacingAndGlyphs" textLength="158" x="53.5" y="97.8008">BcFrontContentsComponent</text><path d="M7,105.332 L7,106.3314 L17.04,105.987 L27.08,105.9181 L37.12,105.797 L47.16,105.9988 L57.2,105.5562 L67.24,106.208 L77.28,104.5605 L87.32,106.0187 L97.36,104.5045 L107.4,104.8275 L117.44,105.9714 L127.48,105.4563 L137.52,104.503 L147.56,106.1952 L157.6,106.0547 L167.64,105.3128 L177.68,105.4746 L187.72,105.1202 L197.76,104.3883 L207.8,105.5579 L217.84,104.8581 L227.88,105.5852 L237.92,104.8741 L247.96,105.9513 L258,105.332 " fill="#FEFECE" style="stroke: #A80036; stroke-width: 1.5;"/><path d="M7,113.332 L7,113.1548 L17.04,114.1008 L27.08,113.0168 L37.12,112.7682 L47.16,113.9445 L57.2,114.3114 L67.24,112.7712 L77.28,112.975 L87.32,113.4756 L97.36,114.3071 L107.4,114.0242 L117.44,113.012 L127.48,113.5304 L137.52,114.0543 L147.56,112.4698 L157.6,113.1478 L167.64,113.5537 L177.68,113.5013 L187.72,113.0194 L197.76,112.3556 L207.8,114.0098 L217.84,114.2556 L227.88,113.9536 L237.92,112.8429 L247.96,112.5927 L258,113.332 " fill="#FEFECE" style="stroke: #A80036; stroke-width: 1.5;"/><text fill="#000000" font-family="sans-serif" font-size="11" lengthAdjust="spacingAndGlyphs" textLength="105" x="12" y="127.9668">+初期化：initialize()</text><text fill="#000000" font-family="sans-serif" font-size="11" lengthAdjust="spacingAndGlyphs" textLength="241" x="12" y="140.9219">+フロントエンドのセットアップ：setupFront()</text><!--class Admin\PagesController--><polygon fill="#FEFECE" filter="url(#fws4yim)" points="517.5,29.1992,517.5,29.1325,527.4149,29.5371,537.3298,29.497,547.2447,29.8981,557.1596,29.3064,567.0745,29.866,576.9894,29.6394,586.9043,29.0496,596.8191,28.9067,606.734,28.8133,616.6489,28.9214,626.5638,28.8845,636.4787,29.5036,646.3936,29.3959,656.3085,29.4067,666.2234,29.0302,676.1383,29.5422,686.0532,29.3719,695.9681,28.8789,705.883,29.8261,715.7979,28.9687,725.7128,29.0746,735.6277,29.6586,745.5426,28.7027,755.4574,28.5488,765.3723,29.3966,775.2872,29.6378,785.2021,28.9518,795.117,28.6103,805.0319,29.3042,814.9468,29.5083,824.8617,29.143,834.7766,29.7155,844.6915,29.4528,854.6064,28.5593,864.5213,29.5777,874.4362,28.9205,884.3511,29.6815,894.266,29.4592,904.1809,29.5747,914.0957,28.8275,924.0106,28.8895,933.9255,29.1168,943.8404,28.5515,953.7553,29.0749,963.6702,28.5336,973.5851,28.5371,983.5,29.1992,983.0972,29.1992,984.0386,39.1806,984.0437,49.162,983.3514,59.1434,982.8311,69.1248,983.1319,79.1062,983.1156,89.0875,983.6946,99.0689,983.6194,109.0503,983.5172,119.0317,983.9439,129.0131,984.1646,138.9945,982.9273,148.9759,983.5168,158.9573,983.7311,168.9386,983.9532,178.92,983.1086,188.9014,983.5,198.8828,983.5,198.3103,973.5851,199.5357,963.6702,198.1724,953.7553,199.2624,943.8404,198.7929,933.9255,198.3599,924.0106,199.5682,914.0957,199.2398,904.1809,199.2849,894.266,198.368,884.3511,199.2639,874.4362,198.9165,864.5213,199.1459,854.6064,198.2936,844.6915,199.4219,834.7766,198.5076,824.8617,198.702,814.9468,198.3699,805.0319,199.1971,795.117,198.4219,785.2021,199.1956,775.2872,198.4732,765.3723,199.5426,755.4574,198.7087,745.5426,199.3846,735.6277,198.2617,725.7128,198.9781,715.7979,198.6797,705.883,198.6609,695.9681,198.6328,686.0532,199.5542,676.1383,199.5346,666.2234,198.571,656.3085,198.767,646.3936,199.395,636.4787,199.1985,626.5638,198.532,616.6489,199.4803,606.734,198.4943,596.8191,198.2385,586.9043,198.3318,576.9894,198.5834,567.0745,198.8653,557.1596,199.142,547.2447,198.6893,537.3298,199.4338,527.4149,199.2194,517.5,198.8828,517.0407,198.8828,517.849,188.9014,516.9869,178.92,517.6767,168.9386,517.0943,158.9573,517.8307,148.9759,516.8538,138.9945,517.0403,129.0131,517.425,119.0317,516.777,109.0503,517.3706,99.0689,517.6243,89.0875,516.871,79.1062,516.9902,69.1248,517.1301,59.1434,517.6535,49.162,517.6778,39.1806,517.5,29.1992" style="stroke: #A80036; stroke-width: 1.5;"/><text fill="#000000" font-family="sans-serif" font-size="12" lengthAdjust="spacingAndGlyphs" textLength="133" x="684" y="45.8008">Admin\PagesController</text><path d="M518.5,53.332 L518.5,53.3226 L528.587,53.4664 L538.6739,52.8389 L548.7609,53.0588 L558.8478,54.0209 L568.9348,53.4299 L579.0217,53.3546 L589.1087,54.0625 L599.1957,52.7543 L609.2826,54.1317 L619.3696,52.6099 L629.4565,53.8306 L639.5435,53.2068 L649.6304,54.1059 L659.7174,53.793 L669.8043,53.5057 L679.8913,54.0072 L689.9783,53.7182 L700.0652,53.815 L710.1522,53.3937 L720.2391,53.4729 L730.3261,53.6934 L740.413,54.1675 L750.5,52.9866 L760.587,53.9994 L770.6739,53.5937 L780.7609,52.8875 L790.8478,52.4343 L800.9348,54.0967 L811.0217,53.9424 L821.1087,53.6215 L831.1957,53.3276 L841.2826,53.0963 L851.3696,53.9411 L861.4565,53.6406 L871.5435,53.4992 L881.6304,53.7619 L891.7174,53.672 L901.8043,52.7163 L911.8913,53.0917 L921.9783,53.4322 L932.0652,53.3106 L942.1522,53.0028 L952.2391,53.3638 L962.3261,52.9098 L972.413,54.1874 L982.5,53.332 " fill="#FEFECE" style="stroke: #A80036; stroke-width: 1.5;"/><text fill="#000000" font-family="sans-serif" font-size="11" lengthAdjust="spacingAndGlyphs" textLength="151" x="523.5" y="67.9668">+AuthenticationComponent</text><text fill="#000000" font-family="sans-serif" font-size="11" lengthAdjust="spacingAndGlyphs" textLength="130" x="523.5" y="80.9219">+BcMessageComponent</text><path d="M518.5,87.2422 L518.5,86.4132 L528.587,87.5261 L538.6739,87.9894 L548.7609,87.4589 L558.8478,87.2178 L568.9348,87.1322 L579.0217,88.11 L589.1087,86.4654 L599.1957,86.5106 L609.2826,86.9443 L619.3696,86.8716 L629.4565,87.3511 L639.5435,87.3246 L649.6304,87.3171 L659.7174,87.6379 L669.8043,86.7324 L679.8913,87.2101 L689.9783,86.6589 L700.0652,86.8236 L710.1522,87.8132 L720.2391,86.3404 L730.3261,86.7644 L740.413,87.0586 L750.5,86.6742 L760.587,88.135 L770.6739,87.2242 L780.7609,86.691 L790.8478,86.9683 L800.9348,87.2201 L811.0217,86.9292 L821.1087,86.2638 L831.1957,87.1586 L841.2826,87.4733 L851.3696,88.0994 L861.4565,87.8715 L871.5435,86.9445 L881.6304,87.0148 L891.7174,87.3678 L901.8043,87.762 L911.8913,86.7122 L921.9783,87.3109 L932.0652,87.236 L942.1522,88.1959 L952.2391,87.7299 L962.3261,88.0445 L972.413,87.694 L982.5,87.2422 " fill="#FEFECE" style="stroke: #A80036; stroke-width: 1.5;"/><text fill="#000000" font-family="sans-serif" font-size="11" lengthAdjust="spacingAndGlyphs" textLength="147" x="523.5" y="101.877">+固定ページ新規追加：add()</text><text fill="#000000" font-family="sans-serif" font-size="11" lengthAdjust="spacingAndGlyphs" textLength="125" x="523.5" y="114.832">+固定ページ編集：edit()</text><text fill="#000000" font-family="sans-serif" font-size="11" lengthAdjust="spacingAndGlyphs" textLength="137" x="523.5" y="127.7871">+固定ページ削除：delete()</text><text fill="#000000" font-family="sans-serif" font-size="11" lengthAdjust="spacingAndGlyphs" textLength="175" x="523.5" y="140.7422">+固定ページをコピーする：copy()</text><text fill="#000000" font-family="sans-serif" font-size="11" lengthAdjust="spacingAndGlyphs" textLength="420" x="523.5" y="153.6973">+固定ページファイルを登録する：admin_entry_page_files() ※ baserCMS５で廃止</text><text fill="#000000" font-family="sans-serif" font-size="11" lengthAdjust="spacingAndGlyphs" textLength="418" x="523.5" y="166.6523">+固定ページファイルを書き出す：admin_write_page_files() ※ baserCMS５で廃止</text><text fill="#000000" font-family="sans-serif" font-size="11" lengthAdjust="spacingAndGlyphs" textLength="454" x="523.5" y="179.6074">+プレビュー用テンプレートを生成する：_createPreviewTemplate() ※ baserCMS５で廃止</text><text fill="#000000" font-family="sans-serif" font-size="11" lengthAdjust="spacingAndGlyphs" textLength="450" x="523.5" y="192.5625">+一覧の表示用データをセットする：_setAdminIndexViewData()： ※ baserCMS５で廃止</text><!--class BcAdminPageHelper--><polygon fill="#FEFECE" filter="url(#fws4yim)" points="645,298.1992,645,298.3245,655.25,298.2971,665.5,298.8325,675.75,298.7352,686,297.6772,696.25,297.9579,706.5,298.5925,716.75,298.8594,727,298.4972,737.25,298.3292,747.5,297.7872,757.75,298.8356,768,298.1992,767.9669,298.1992,768.1135,306.2258,767.8432,314.2523,767.7667,322.2789,767.9002,330.3055,768,338.332,768,338.9306,757.75,337.585,747.5,338.7664,737.25,338.6524,727,338.0478,716.75,337.8371,706.5,338.6744,696.25,338.9303,686,337.851,675.75,338.1883,665.5,339.0599,655.25,338.7679,645,338.332,644.7634,338.332,644.8945,330.3055,645.2129,322.2789,645.0646,314.2523,644.8066,306.2258,645,298.1992" style="stroke: #A80036; stroke-width: 1.5;"/><text fill="#000000" font-family="sans-serif" font-size="12" lengthAdjust="spacingAndGlyphs" textLength="117" x="648" y="314.8008">BcAdminPageHelper</text><path d="M646,322.332 L646,322.8661 L656.0833,322.9617 L666.1667,321.6301 L676.25,321.7051 L686.3333,323.1182 L696.4167,321.7415 L706.5,322.5464 L716.5833,322.2016 L726.6667,322.4684 L736.75,321.7991 L746.8333,323.0317 L756.9167,322.5315 L767,322.332 " fill="#FEFECE" style="stroke: #A80036; stroke-width: 1.5;"/><path d="M646,330.332 L646,329.9984 L656.0833,330.1123 L666.1667,329.645 L676.25,330.5673 L686.3333,330.8702 L696.4167,330.3479 L706.5,330.8042 L716.5833,331.1436 L726.6667,330.5452 L736.75,330.9306 L746.8333,330.293 L756.9167,330.354 L767,330.332 " fill="#FEFECE" style="stroke: #A80036; stroke-width: 1.5;"/><!--class PageService--><polygon fill="#FEFECE" filter="url(#fws4yim)" points="529,291.6992,529,291.3975,539.125,291.903,549.25,292.3028,559.375,292.1129,569.5,291.7863,579.625,291.7262,589.75,291.1041,599.875,292.3934,610,291.6992,609.5403,291.6992,609.6345,302.3168,609.4393,312.9344,609.8578,323.552,610.0341,334.1695,610,344.7871,610,345.2589,599.875,344.2686,589.75,344.3725,579.625,345.0155,569.5,344.8329,559.375,345.1051,549.25,344.7337,539.125,344.1085,529,344.7871,529.0679,344.7871,528.7313,334.1695,529.2607,323.552,528.2816,312.9344,528.5865,302.3168,529,291.6992" style="stroke: #A80036; stroke-width: 1.5;"/><text fill="#000000" font-family="sans-serif" font-size="12" lengthAdjust="spacingAndGlyphs" textLength="68" x="535.5" y="308.3008">PageService</text><path d="M530,315.832 L530,316.7221 L539.875,315.6836 L549.75,314.9901 L559.625,315.1495 L569.5,314.9156 L579.375,315.1662 L589.25,315.767 L599.125,316.7766 L609,315.832 " fill="#FEFECE" style="stroke: #A80036; stroke-width: 1.5;"/><text fill="#000000" font-family="sans-serif" font-size="11" lengthAdjust="spacingAndGlyphs" textLength="69" x="535" y="330.4668">+PagesTable</text><path d="M530,336.7871 L530,336.0005 L539.875,337.6563 L549.75,337.2914 L559.625,337.0928 L569.5,336.3232 L579.375,335.854 L589.25,337.5011 L599.125,336.6955 L609,336.7871 " fill="#FEFECE" style="stroke: #A80036; stroke-width: 1.5;"/><!--class PageServiceInterface--><polygon fill="#FEFECE" filter="url(#fws4yim)" points="157,259.1992,157,259.5719,166.9118,259.4126,176.8235,259.453,186.7353,259.335,196.6471,259.7438,206.5588,259.2511,216.4706,258.588,226.3824,259.8956,236.2941,259.4616,246.2059,259.4534,256.1176,258.9049,266.0294,258.4943,275.9412,259.1511,285.8529,258.9208,295.7647,259.8435,305.6765,259.3547,315.5882,259.701,325.5,259.375,335.4118,259.825,345.3235,259.9115,355.2353,259.0568,365.1471,258.6559,375.0588,258.4917,384.9706,258.5638,394.8824,258.5505,404.7941,259.6409,414.7059,258.6355,424.6176,259.4971,434.5294,259.8673,444.4412,259.8904,454.3529,259.5814,464.2647,259.6794,474.1765,259.0646,484.0882,258.5676,494,259.1992,494.7413,259.1992,493.3263,269.0212,493.2678,278.8431,493.4375,288.665,494.7371,298.487,494.6759,308.3089,493.8574,318.1309,494.1207,327.9528,493.7384,337.7747,494.1487,347.5967,493.4681,357.4186,493.5782,367.2406,494,377.0625,494,377.7687,484.0882,376.6906,474.1765,377.2339,464.2647,376.3485,454.3529,377.0304,444.4412,376.6304,434.5294,376.7709,424.6176,377.6615,414.7059,377.6523,404.7941,376.6017,394.8824,376.7476,384.9706,377.0933,375.0588,377.6697,365.1471,376.9716,355.2353,377.5599,345.3235,377.3876,335.4118,377.5708,325.5,377.3575,315.5882,377.6549,305.6765,376.5283,295.7647,376.7008,285.8529,377.5072,275.9412,377.2687,266.0294,377.4157,256.1176,376.6706,246.2059,376.5398,236.2941,377.7024,226.3824,377.0344,216.4706,377.4075,206.5588,377.518,196.6471,377.01,186.7353,377.0534,176.8235,377.6822,166.9118,377.6389,157,377.0625,156.6155,377.0625,156.3637,367.2406,157.7192,357.4186,156.8372,347.5967,157.4047,337.7747,157.1443,327.9528,156.9134,318.1309,156.3751,308.3089,157.5137,298.487,156.8924,288.665,157.4811,278.8431,156.2861,269.0212,157,259.1992" style="stroke: #A80036; stroke-width: 1.5;"/><text fill="#000000" font-family="sans-serif" font-size="12" lengthAdjust="spacingAndGlyphs" textLength="118" x="266.5" y="275.8008">PageServiceInterface</text><path d="M158,283.332 L158,283.4593 L167.8529,284.2907 L177.7059,283.0883 L187.5588,284.1314 L197.4118,283.8999 L207.2647,284.2871 L217.1176,283.3915 L226.9706,283.6258 L236.8235,282.9079 L246.6765,283.6274 L256.5294,283.455 L266.3824,282.742 L276.2353,283.7709 L286.0882,282.7832 L295.9412,283.1735 L305.7941,282.9605 L315.6471,283.4168 L325.5,283.1702 L335.3529,283.4403 L345.2059,282.8123 L355.0588,282.7637 L364.9118,284.1861 L374.7647,282.4836 L384.6176,282.537 L394.4706,282.8181 L404.3235,284.2804 L414.1765,284.2305 L424.0294,282.5959 L433.8824,283.9869 L443.7353,282.3517 L453.5882,283.0592 L463.4412,283.6595 L473.2941,283.3994 L483.1471,282.8384 L493,283.332 " fill="#FEFECE" style="stroke: #A80036; stroke-width: 1.5;"/><path d="M158,291.332 L158,290.4734 L167.8529,290.3521 L177.7059,291.5636 L187.5588,291.6234 L197.4118,290.6021 L207.2647,291.3839 L217.1176,291.3828 L226.9706,292.3161 L236.8235,290.9792 L246.6765,290.7404 L256.5294,291.4616 L266.3824,291.6082 L276.2353,290.7955 L286.0882,292.3215 L295.9412,291.708 L305.7941,292.2152 L315.6471,290.7478 L325.5,291.8361 L335.3529,290.516 L345.2059,290.4238 L355.0588,290.7209 L364.9118,290.8572 L374.7647,291.2674 L384.6176,290.4573 L394.4706,291.8435 L404.3235,290.7288 L414.1765,291.5398 L424.0294,291.7526 L433.8824,291.9483 L443.7353,290.4928 L453.5882,291.2427 L463.4412,291.8109 L473.2941,292.1439 L483.1471,291.1633 L493,291.332 " fill="#FEFECE" style="stroke: #A80036; stroke-width: 1.5;"/><text fill="#000000" font-family="sans-serif" font-size="11" lengthAdjust="spacingAndGlyphs" textLength="83" x="163" y="305.9668">+作成：create()</text><text fill="#000000" font-family="sans-serif" font-size="11" lengthAdjust="spacingAndGlyphs" textLength="87" x="163" y="318.9219">+編集：update()</text><text fill="#000000" font-family="sans-serif" font-size="11" lengthAdjust="spacingAndGlyphs" textLength="82" x="163" y="331.877">+削除：delete()</text><text fill="#000000" font-family="sans-serif" font-size="11" lengthAdjust="spacingAndGlyphs" textLength="122" x="163" y="344.832">+単一データ取得：get()</text><text fill="#000000" font-family="sans-serif" font-size="11" lengthAdjust="spacingAndGlyphs" textLength="325" x="163" y="357.7871">+固定ページテンプレートリストの取得：getPageTemplateList()</text><text fill="#000000" font-family="sans-serif" font-size="11" lengthAdjust="spacingAndGlyphs" textLength="87" x="163" y="370.7422">+コピー：copy()</text><!--class PagesTable--><polygon fill="#FEFECE" filter="url(#fws4yim)" points="305.5,437.1992,305.5,437.6423,315.4623,436.6042,325.4245,437.0052,335.3868,436.5954,345.3491,436.7182,355.3113,437.6568,365.2736,436.5628,375.2358,437.8396,385.1981,436.6625,395.1604,437.448,405.1226,436.9305,415.0849,437.5366,425.0472,436.97,435.0094,437.8314,444.9717,437.8628,454.934,437.8915,464.8962,437.6277,474.8585,437.2785,484.8208,437.3705,494.783,436.6418,504.7453,436.6155,514.7075,437.3601,524.6698,436.7437,534.6321,436.7844,544.5943,437.5874,554.5566,437.1305,564.5189,437.9208,574.4811,437.507,584.4434,437.4671,594.4057,437.8829,604.3679,437.6152,614.3302,436.6045,624.2925,436.8292,634.2547,437.8124,644.217,437.8832,654.1792,436.6761,664.1415,436.9728,674.1038,437.705,684.066,437.7317,694.0283,437.6724,703.9906,437.0138,713.9528,436.869,723.9151,436.9192,733.8774,437.9105,743.8396,437.6356,753.8019,436.6393,763.7642,437.2995,773.7264,437.479,783.6887,437.3442,793.6509,436.9139,803.6132,436.8945,813.5755,436.5341,823.5377,436.6629,833.5,437.1992,833.129,437.1992,833.1601,447.0709,833.6248,456.9426,833.993,466.8143,834.1326,476.686,833.9193,486.5577,833.6896,496.4294,833.133,506.3011,832.9103,516.1728,834.0163,526.0445,833.0527,535.9162,834.0321,545.7879,833.7809,555.6596,833.1106,565.5313,833.8577,575.403,832.9856,585.2747,832.9157,595.1464,833.1026,605.0181,833.8085,614.8898,833.5504,624.7615,832.9394,634.6332,833.0429,644.5049,832.9367,654.3766,833.5841,664.2483,834.2177,674.12,833.3035,683.9917,834.1575,693.8634,834.2431,703.7351,833.8881,713.6068,833.5,723.4785,833.5,723.4308,823.5377,722.7503,813.5755,724.1732,803.6132,723.4411,793.6509,722.8509,783.6887,723.0184,773.7264,723.8857,763.7642,723.5915,753.8019,723.3879,743.8396,723.1605,733.8774,723.8609,723.9151,723.0345,713.9528,723.6951,703.9906,723.1358,694.0283,723.5668,684.066,723.2459,674.1038,722.9668,664.1415,722.8152,654.1792,723.1061,644.217,723.0675,634.2547,722.917,624.2925,723.1887,614.3302,722.8316,604.3679,724.1202,594.4057,724.1646,584.4434,723.5441,574.4811,723.6821,564.5189,722.7975,554.5566,723.632,544.5943,723.6111,534.6321,722.9641,524.6698,723.4951,514.7075,724.1521,504.7453,723.9897,494.783,723.1518,484.8208,723.1258,474.8585,724.2032,464.8962,723.274,454.934,723.0103,444.9717,723.3822,435.0094,723.5608,425.0472,724.135,415.0849,723.9727,405.1226,724.1322,395.1604,724.1631,385.1981,723.252,375.2358,723.2204,365.2736,722.7775,355.3113,724.136,345.3491,722.8645,335.3868,722.8187,325.4245,723.3607,315.4623,723.2122,305.5,723.4785,305.3959,723.4785,305.0823,713.6068,305.7024,703.7351,306.2324,693.8634,305.3635,683.9917,305.3797,674.12,305.188,664.2483,305.8351,654.3766,305.9283,644.5049,305.1185,634.6332,305.7785,624.7615,305.1046,614.8898,305.1346,605.0181,305.8682,595.1464,305.5887,585.2747,305.5483,575.403,305.3546,565.5313,305.1902,555.6596,305.6632,545.7879,306.0176,535.9162,305.9878,526.0445,305.5439,516.1728,305.1817,506.3011,305.3677,496.4294,305.856,486.5577,305.9295,476.686,306.0402,466.8143,305.5804,456.9426,306.2313,447.0709,305.5,437.1992" style="stroke: #A80036; stroke-width: 1.5;"/><text fill="#000000" font-family="sans-serif" font-size="12" lengthAdjust="spacingAndGlyphs" textLength="67" x="536" y="453.8008">PagesTable</text><path d="M306.5,461.332 L306.5,461.9147 L316.4245,461.0903 L326.3491,461.9458 L336.2736,462.2747 L346.1981,461.0594 L356.1226,460.9873 L366.0472,460.7687 L375.9717,460.8914 L385.8962,461.1031 L395.8208,460.4671 L405.7453,461.0907 L415.6698,460.5779 L425.5943,461.2292 L435.5189,462.3293 L445.4434,461.0007 L455.3679,461.582 L465.2925,460.9585 L475.217,461.181 L485.1415,460.632 L495.066,462.2789 L504.9906,461.6122 L514.9151,461.4547 L524.8396,461.6809 L534.7642,460.633 L544.6887,461.069 L554.6132,462.1576 L564.5377,462.0469 L574.4623,461.4298 L584.3868,461.5924 L594.3113,461.0505 L604.2358,462.1989 L614.1604,460.7384 L624.0849,460.7099 L634.0094,461.8982 L643.934,461.924 L653.8585,461.6016 L663.783,460.5222 L673.7075,462.065 L683.6321,460.3581 L693.5566,461.174 L703.4811,461.4073 L713.4057,462.0464 L723.3302,460.6216 L733.2547,461.442 L743.1792,461.8524 L753.1038,461.5352 L763.0283,461.0027 L772.9528,461.2601 L782.8774,461.1087 L792.8019,462.3112 L802.7264,461.4308 L812.6509,460.7209 L822.5755,461.5073 L832.5,461.332 " fill="#FEFECE" style="stroke: #A80036; stroke-width: 1.5;"/><path d="M306.5,469.332 L306.5,468.6277 L316.4245,468.9732 L326.3491,469.8563 L336.2736,468.6122 L346.1981,468.834 L356.1226,469.2675 L366.0472,470.3257 L375.9717,469.9041 L385.8962,469.7289 L395.8208,470.1653 L405.7453,469.0976 L415.6698,468.4007 L425.5943,469.5861 L435.5189,469.4166 L445.4434,469.1681 L455.3679,468.514 L465.2925,468.9199 L475.217,469.9651 L485.1415,470.0856 L495.066,469.5299 L504.9906,469.8807 L514.9151,468.3512 L524.8396,468.4607 L534.7642,469.3651 L544.6887,469.6732 L554.6132,469.8342 L564.5377,469.7427 L574.4623,469.7196 L584.3868,468.5871 L594.3113,470.1516 L604.2358,469.3276 L614.1604,469.3835 L624.0849,469.1057 L634.0094,470.3175 L643.934,469.5426 L653.8585,469.2957 L663.783,469.1323 L673.7075,469.5462 L683.6321,469.2072 L693.5566,468.9726 L703.4811,469.6248 L713.4057,470.2481 L723.3302,470.3269 L733.2547,469.1307 L743.1792,468.8758 L753.1038,470.0986 L763.0283,470.0096 L772.9528,469.7286 L782.8774,470.3041 L792.8019,469.4227 L802.7264,468.9184 L812.6509,470.2335 L822.5755,469.944 L832.5,469.332 " fill="#FEFECE" style="stroke: #A80036; stroke-width: 1.5;"/><text fill="#000000" font-family="sans-serif" font-size="11" lengthAdjust="spacingAndGlyphs" textLength="263" x="311.5" y="483.9668">+ページをコピーする：copy()※ PageService に移行</text><text fill="#000000" font-family="sans-serif" font-size="11" lengthAdjust="spacingAndGlyphs" textLength="248" x="311.5" y="496.9219">+検索用データを生成する：createSearchIndex()</text><text fill="#000000" font-family="sans-serif" font-size="11" lengthAdjust="spacingAndGlyphs" textLength="328" x="311.5" y="509.877">+初期値を取得する：getDefaultValue() ※ Page::getNew() に移行</text><text fill="#000000" font-family="sans-serif" font-size="11" lengthAdjust="spacingAndGlyphs" textLength="460" x="311.5" y="522.832">+固定ページテンプレートリストを取得する：getPageTemplateList() ※ PageService に移行</text><text fill="#000000" font-family="sans-serif" font-size="11" lengthAdjust="spacingAndGlyphs" textLength="390" x="311.5" y="535.7871">+コントロールソースを取得する：getControlSource() ※ PageService に移行</text><text fill="#000000" font-family="sans-serif" font-size="11" lengthAdjust="spacingAndGlyphs" textLength="325" x="311.5" y="548.7422">+PHP構文チェック：phpValidSyntax() ※ PageValidation に移行</text><text fill="#000000" font-family="sans-serif" font-size="11" lengthAdjust="spacingAndGlyphs" textLength="193" x="311.5" y="561.6973">+削除：delete() ※ baserCMS５で廃止</text><text fill="#000000" font-family="sans-serif" font-size="11" lengthAdjust="spacingAndGlyphs" textLength="308" x="311.5" y="574.6523">+最終登録IDを取得する：getInsertID() ※ baserCMS５で廃止</text><text fill="#000000" font-family="sans-serif" font-size="11" lengthAdjust="spacingAndGlyphs" textLength="352" x="311.5" y="587.6074">+URLより固定ページデータを探す：findByUrl() ※ baserCMS５で廃止</text><text fill="#000000" font-family="sans-serif" font-size="11" lengthAdjust="spacingAndGlyphs" textLength="253" x="311.5" y="600.5625">+getParentPageTemplate() ※ baserCMS５で廃止</text><text fill="#000000" font-family="sans-serif" font-size="11" lengthAdjust="spacingAndGlyphs" textLength="452" x="311.5" y="613.5176">+固定ページとして管理されているURLかチェックする：isPageUrl() ※ baserCMS５で廃止</text><text fill="#000000" font-family="sans-serif" font-size="11" lengthAdjust="spacingAndGlyphs" textLength="428" x="311.5" y="626.4727">+本文にbaserが管理するタグを追加する：addBaserPageTag() ※ baserCMS５で廃止</text><text fill="#000000" font-family="sans-serif" font-size="11" lengthAdjust="spacingAndGlyphs" textLength="443" x="311.5" y="639.4277">+コンテンツフォルダのパスを取得する：getContentFolderPath() ※ baserCMS５で廃止</text><text fill="#000000" font-family="sans-serif" font-size="11" lengthAdjust="spacingAndGlyphs" textLength="506" x="311.5" y="652.3828">+ページテンプレートファイルが開けるかチェックする：checkOpenPageFile() ※ baserCMS５で廃止</text><text fill="#000000" font-family="sans-serif" font-size="11" lengthAdjust="spacingAndGlyphs" textLength="516" x="311.5" y="665.3379">+DBデータを元にページテンプレートを全て生成する：createAllPageTemplate() ※ baserCMS５で廃止</text><text fill="#000000" font-family="sans-serif" font-size="11" lengthAdjust="spacingAndGlyphs" textLength="400" x="311.5" y="678.293">+ページテンプレートを生成する：createPageTemplate() ※ baserCMS５で廃止</text><text fill="#000000" font-family="sans-serif" font-size="11" lengthAdjust="spacingAndGlyphs" textLength="305" x="311.5" y="691.248">+ページファイルを削除する：delFile() ※ baserCMS５で廃止</text><text fill="#000000" font-family="sans-serif" font-size="11" lengthAdjust="spacingAndGlyphs" textLength="348" x="311.5" y="704.2031">+ページファイルを登録する：entryPageFiles() ※ baserCMS５で廃止</text><text fill="#000000" font-family="sans-serif" font-size="11" lengthAdjust="spacingAndGlyphs" textLength="387" x="311.5" y="717.1582">+ページファイルのパスを取得する：getPageFilePath() ※ baserCMS５で廃止</text><!--class Page--><polygon fill="#FEFECE" filter="url(#fws4yim)" points="446.5,783.1992,446.5,783.3728,456.34,782.5676,466.18,783.4681,476.02,783.5672,485.86,783.3396,495.7,783.5078,505.54,783.8008,515.38,783.7825,525.22,783.6521,535.06,782.7974,544.9,783.7171,554.74,783.9297,564.58,783.3498,574.42,783.8296,584.26,782.7361,594.1,783.5524,603.94,783.1124,613.78,782.6927,623.62,782.5967,633.46,782.878,643.3,783.3262,653.14,783.5442,662.98,783.4233,672.82,782.8293,682.66,783.2617,692.5,783.1992,693.1225,783.1992,692.1737,793.4162,692.5801,803.6332,692.8475,813.8503,692.4876,824.0673,692.2349,834.2843,692.9624,844.5013,692.1175,854.7183,692.7084,864.9353,692.5,875.1523,692.5,875.707,682.66,875.6287,672.82,874.7118,662.98,874.4143,653.14,874.414,643.3,875.4283,633.46,875.6964,623.62,874.4281,613.78,875.3927,603.94,875.3382,594.1,874.8103,584.26,874.6882,574.42,874.8394,564.58,874.8223,554.74,874.8582,544.9,875.8115,535.06,874.6929,525.22,875.1185,515.38,875.3048,505.54,875.3186,495.7,874.6967,485.86,875.6617,476.02,874.6645,466.18,875.7439,456.34,874.8883,446.5,875.1523,446.4894,875.1523,446.3758,864.9353,446.9386,854.7183,446.1042,844.5013,446.1266,834.2843,446.584,824.0673,446.2206,813.8503,445.9804,803.6332,446.0056,793.4162,446.5,783.1992" style="stroke: #A80036; stroke-width: 1.5;"/><text fill="#000000" font-family="sans-serif" font-size="12" lengthAdjust="spacingAndGlyphs" textLength="28" x="555.5" y="799.8008">Page</text><path d="M447.5,807.332 L447.5,808.0222 L457.6667,808.035 L467.8333,807.2632 L478,806.7633 L488.1667,806.7721 L498.3333,808.0287 L508.5,806.8912 L518.6667,808.2639 L528.8333,807.5788 L539,808.0143 L549.1667,808.0238 L559.3333,807.9812 L569.5,807.933 L579.6667,806.9446 L589.8333,806.427 L600,806.4797 L610.1667,806.4287 L620.3333,808.1392 L630.5,806.3344 L640.6667,807.0097 L650.8333,806.6813 L661,807.7994 L671.1667,806.8626 L681.3333,807.5096 L691.5,807.332 " fill="#FEFECE" style="stroke: #A80036; stroke-width: 1.5;"/><text fill="#000000" font-family="sans-serif" font-size="11" lengthAdjust="spacingAndGlyphs" textLength="111" x="452.5" y="821.9668">+本稿記事：contents</text><text fill="#000000" font-family="sans-serif" font-size="11" lengthAdjust="spacingAndGlyphs" textLength="90" x="452.5" y="834.9219">+草稿記事：draft</text><text fill="#000000" font-family="sans-serif" font-size="11" lengthAdjust="spacingAndGlyphs" textLength="219" x="452.5" y="847.877">+固定ページテンプレート：page_template</text><text fill="#000000" font-family="sans-serif" font-size="11" lengthAdjust="spacingAndGlyphs" textLength="234" x="452.5" y="860.832">+埋め込みコード：code ※ baserCMS５で廃止</text><path d="M447.5,867.1523 L447.5,867.7455 L457.6667,866.3266 L467.8333,866.5298 L478,867.5797 L488.1667,866.2956 L498.3333,867.8905 L508.5,867.3012 L518.6667,868.0859 L528.8333,866.1711 L539,867.0183 L549.1667,866.2691 L559.3333,866.4761 L569.5,867.4873 L579.6667,868.0548 L589.8333,867.009 L600,867.0546 L610.1667,867.7049 L620.3333,867.5256 L630.5,867.2023 L640.6667,867.7483 L650.8333,867.5103 L661,867.3744 L671.1667,866.9063 L681.3333,867.9186 L691.5,867.1523 " fill="#FEFECE" style="stroke: #A80036; stroke-width: 1.5;"/><path d="M675.05,199.3992 L675.6525,199.939 L668.831,207.0621 L662.3829,214.5197 L654.8064,220.9663 L648.3194,228.389 L641.9069,235.8785 L635,242.9251 L628.3584,250.2094 L622.5952,258.2805 L616.0953,265.6918 L609.4248,272.9501 L602.1455,279.663 L596.12,287.4992 " fill="none" style="stroke: #000000; stroke-width: 1.0;"/><polygon fill="#000000" points="592.6,291.4292,592.5829,291.391,594.4349,290.7069,596.1818,289.7887,598.0099,289.0511,599.7937,288.215,601.5862,287.3983,601.5975,287.6066,600.4573,287.4749,599.3297,287.5756,598.1995,287.6277,597.0643,287.5879,595.9377,287.7064,595.7979,287.6987,596.0325,286.5852,595.6283,285.4368,595.568,284.3072,595.9011,283.199,595.6296,282.0579,595.8138,282.1174,594.9942,283.9226,594.5629,285.8533,593.9714,287.7323,593.1503,289.537,592.6,291.4292" style="stroke: #000000; stroke-width: 1.0;"/><path d="M259.5,114.1992 L259.5,114.2299 L265.422,114.2055 L271.344,114.0286 L277.266,114.2692 L283.188,114.2421 L289.11,114.1992 " fill="none" style="stroke: #000000; stroke-width: 1.0;"/><polygon fill="#000000" points="294.27,114.1992,294.2684,114.1956,292.522,113.5163,290.6665,112.5913,288.8276,111.7038,287.1259,111.125,285.27,110.1992,285.2707,110.1999,286.1694,111.0986,286.8004,111.7297,287.8175,112.7467,288.4162,113.3454,289.27,114.1992,289.3498,114.279,288.4226,114.9518,287.5632,115.6924,287.0334,116.7626,285.9749,117.3041,285.27,118.1992,285.2973,118.2608,287.0501,117.3545,288.9466,116.7716,290.6411,115.7343,292.5441,115.166,294.27,114.1992" style="stroke: #000000; stroke-width: 1.0;"/><path d="M411.42,140.7792 L410.8381,140.2578 L418.1701,148.2762 L424.4523,155.3539 L431.4589,163.0808 L438.4835,170.8238 L444.2296,177.4211 L450.4642,184.4561 L458.1911,192.8284 L464.8302,200.2259 L470.5073,206.7614 L477.211,214.2169 L483.2789,221.1026 L490.7235,229.2219 L496.4652,235.8153 L503.4666,243.5374 L510.7273,251.492 L517.4895,258.9998 L524.0794,266.3532 L529.2832,272.4646 L536.205,280.1155 L543.13,287.7692 " fill="none" style="stroke: #000000; stroke-width: 1.0;"/><polygon fill="#000000" points="546.48,291.5092,546.4445,291.4977,546.1016,289.7113,545.1251,287.7188,544.5346,285.8519,543.9984,284.0026,543.4325,282.1437,543.6335,282.1543,543.2377,283.2664,543.1356,284.394,543.2755,285.5343,543.0474,286.6552,543.1352,287.7927,543.148,288.0373,541.9986,287.604,540.8834,287.8229,539.7583,287.8526,538.6139,287.5153,537.4861,287.4954,537.4398,287.3915,539.3221,288.3815,541.1113,289.1628,542.8311,289.7886,544.7134,290.7785,546.48,291.5092" style="stroke: #000000; stroke-width: 1.0;"/><path d="M615.31,318.1992 L615.31,318.0185 L621.206,318.1433 L627.102,318.0378 L632.998,317.9869 L638.894,318.1987 L644.79,318.1992 " fill="none" style="stroke: #000000; stroke-width: 1.0;"/><polygon fill="#000000" points="610.17,318.1992,610.2624,318.407,612.023,319.1185,613.7773,319.8157,615.5013,320.4447,617.3374,321.3259,619.17,322.1992,619.3084,322.3376,618.2552,321.2845,617.5449,320.5741,616.8236,319.8528,616.0145,319.0438,615.17,318.1992,615.3368,318.366,615.8575,317.2867,616.679,316.5082,617.3957,315.6249,618.3066,314.9358,619.17,314.1992,619.1698,314.1988,617.4332,315.1413,615.6691,316.0222,613.7876,316.6388,611.8794,317.1953,610.17,318.1992" style="stroke: #000000; stroke-width: 1.0;"/><path d="M569.5,345.0792 L570.0391,345.0792 L569.7208,354.6992 L568.7262,364.3192 L570.3227,373.9392 L569.289,383.5592 L570.1813,393.1792 L569.4323,402.7992 L568.8987,412.4192 L570.2226,422.0392 L569.5,431.6592 " fill="none" style="stroke: #000000; stroke-width: 1.0;"/><polygon fill="#000000" points="569.5,437.0392,569.4451,437.0148,570.1138,435.1565,571.2719,433.5156,571.883,431.6317,572.4996,429.7501,573.5,428.0392,573.3958,427.935,572.6814,428.8206,571.7597,429.4989,570.9652,430.3044,570.2707,431.2099,569.5,432.0392,569.6519,432.1912,568.7147,431.254,567.9378,430.477,567.0828,429.622,566.3576,428.8968,565.5,428.0392,565.6578,428.1093,566.349,429.861,566.9448,431.5703,567.9982,433.4829,568.507,435.1534,569.5,437.0392" style="stroke: #000000; stroke-width: 1.0;"/><path d="M514.27,318.1992 L514.27,318.2214 L517.198,317.9201 L520.126,318.2735 L523.054,318.146 L525.982,318.4634 L528.91,318.1992 " fill="none" style="stroke: #000000; stroke-width: 1.0; stroke-dasharray: 1.0,3.0;"/><polygon fill="none" points="514.2,325.1992,514.256,325.3592,510.275,324.0135,506.2307,322.4869,502.1601,320.8852,498.2658,319.7873,494.2,318.1992,494.1442,318.0399,498.2053,316.8144,502.2548,315.5558,506.1897,313.9698,510.1336,312.4096,514.2,311.1992,514.2689,311.1992,514.0688,313.9992,514.1932,316.7992,514.2945,319.5992,514.2711,322.3992,514.2,325.1992" style="stroke: #000000; stroke-width: 1.0;"/><path d="M569.5,723.4492 L569.2183,723.4492 L570.3776,734.2972 L570.2554,745.1452 L570.0736,755.9932 L570.4334,766.8412 L569.5,777.6892 " fill="none" style="stroke: #000000; stroke-width: 1.0;"/><polygon fill="#000000" points="569.5,783.0592,569.5482,783.0807,570.1941,781.2122,571.2936,779.5452,572.08,777.7392,572.5271,775.7824,573.5,774.0592,573.5852,774.1445,572.8357,774.9949,572.071,775.8302,571.0196,776.3788,570.1366,777.0959,569.5,778.0592,569.3624,777.9216,568.8086,777.3678,567.7729,776.3322,567.2438,775.8031,566.4694,775.0286,565.5,774.0592,565.4017,774.0155,566.256,775.8396,567.244,777.7232,567.8166,779.4221,568.8441,781.3233,569.5,783.0592" style="stroke: #000000; stroke-width: 1.0;"/></g></svg>