<?xml version="1.0" encoding="UTF-8" standalone="no"?><svg xmlns="http://www.w3.org/2000/svg" xmlns:xlink="http://www.w3.org/1999/xlink" contentScriptType="application/ecmascript" contentStyleType="text/css" height="621px" preserveAspectRatio="none" style="width:490px;height:621px;" version="1.1" viewBox="0 0 490 621" width="490px" zoomAndPan="magnify"><defs><filter height="300%" id="fye9ezk" width="300%" x="-1" y="-1"><feGaussianBlur result="blurOut" stdDeviation="2.0"/><feColorMatrix in="blurOut" result="blurOut2" type="matrix" values="0 0 0 0 0 0 0 0 0 0 0 0 0 0 0 0 0 0 .4 0"/><feOffset dx="4.0" dy="4.0" in="blurOut2" result="blurOut3"/><feBlend in="SourceGraphic" in2="blurOut3" mode="normal"/></filter></defs><g><text fill="#000000" font-family="sans-serif" font-size="18" lengthAdjust="spacingAndGlyphs" textLength="180" x="159.5" y="16.708">ユーザーグループ管理</text><!--class Admin\UserGroupsController--><polygon fill="#FEFECE" filter="url(#fye9ezk)" points="169.5,28.9531,169.5,28.7903,179.6429,28.2771,189.7857,28.2519,199.9286,28.4594,210.0714,28.6714,220.2143,29.5419,230.3571,29.6585,240.5,29.2587,250.6429,28.2304,260.7857,28.465,270.9286,29.4308,281.0714,28.2515,291.2143,28.3238,301.3571,28.6828,311.5,28.6987,321.6429,29.1528,331.7857,28.7491,341.9286,29.3136,352.0714,28.4683,362.2143,28.6926,372.3571,29.2959,382.5,28.9531,382.0049,28.9531,382.0829,39.3523,383.014,49.7516,382.3676,60.1508,383.2364,70.55,381.9171,80.9492,383.2207,91.3484,382.9668,101.7477,381.8782,112.1469,382.0098,122.5461,382.5,132.9453,382.5,132.9833,372.3571,133.1407,362.2143,132.7814,352.0714,132.3708,341.9286,132.7339,331.7857,133.4279,321.6429,133.6258,311.5,132.5214,301.3571,133.5671,291.2143,132.8687,281.0714,133.4931,270.9286,133.0799,260.7857,132.6803,250.6429,132.9289,240.5,132.2068,230.3571,133.4034,220.2143,132.5986,210.0714,133.2885,199.9286,132.3048,189.7857,132.8736,179.6429,133.227,169.5,132.9453,169.1138,132.9453,169.9478,122.5461,169.2338,112.1469,168.8465,101.7477,169.5129,91.3484,169.9921,80.9492,169.8131,70.55,168.946,60.1508,170.2434,49.7516,168.8033,39.3523,169.5,28.9531" style="stroke: #A80036; stroke-width: 1.5;"/><text fill="#000000" font-family="sans-serif" font-size="12" lengthAdjust="spacingAndGlyphs" textLength="177" x="187.5" y="45.0918">Admin\UserGroupsController</text><path d="M170.5,52.9219 L170.5,53.518 L180.5476,52.5727 L190.5952,52.0262 L200.6429,53.0095 L210.6905,52.7114 L220.7381,52.657 L230.7857,52.2243 L240.8333,52.0016 L250.881,52.2179 L260.9286,53.4839 L270.9762,53.8711 L281.0238,52.563 L291.0714,52.1924 L301.119,52.216 L311.1667,52.8848 L321.2143,52.5383 L331.2619,52.0037 L341.3095,52.4755 L351.3571,53.8733 L361.4048,52.0157 L371.4524,52.4776 L381.5,52.9219 " fill="#FEFECE" style="stroke: #A80036; stroke-width: 1.5;"/><path d="M170.5,60.9219 L170.5,60.6746 L180.5476,60.4877 L190.5952,60.7862 L200.6429,60.3755 L210.6905,61.1796 L220.7381,60.8338 L230.7857,61.1941 L240.8333,60.5514 L250.881,60.794 L260.9286,61.8444 L270.9762,60.6609 L281.0238,61.758 L291.0714,61.6249 L301.119,60.0114 L311.1667,60.4599 L321.2143,60.0385 L331.2619,60.9064 L341.3095,61.8146 L351.3571,61.5501 L361.4048,61.0491 L371.4524,60.8091 L381.5,60.9219 " fill="#FEFECE" style="stroke: #A80036; stroke-width: 1.5;"/><text fill="#000000" font-family="sans-serif" font-size="11" lengthAdjust="spacingAndGlyphs" textLength="201" x="175.5" y="75.1323">+ユーザーグループ一覧を表示：index()</text><text fill="#000000" font-family="sans-serif" font-size="11" lengthAdjust="spacingAndGlyphs" textLength="181" x="175.5" y="87.937">+ユーザーグループ新規追加：add()</text><text fill="#000000" font-family="sans-serif" font-size="11" lengthAdjust="spacingAndGlyphs" textLength="159" x="175.5" y="100.7417">+ユーザーグループ編集：edit()</text><text fill="#000000" font-family="sans-serif" font-size="11" lengthAdjust="spacingAndGlyphs" textLength="173" x="175.5" y="113.5464">+ユーザーグループ削除：delete()</text><text fill="#000000" font-family="sans-serif" font-size="11" lengthAdjust="spacingAndGlyphs" textLength="175" x="175.5" y="126.3511">+ユーザーグループコピー：copy()</text><!--class UserGroupService--><polygon fill="#FEFECE" filter="url(#fye9ezk)" points="215.5,231.4531,215.5,231.9271,225.5833,231.0997,235.6667,231.8815,245.75,231.2502,255.8333,231.59,265.9167,230.942,276,230.8607,286.0833,230.9518,296.1667,231.7837,306.25,232.1243,316.3333,231.1771,326.4167,231.0932,336.5,231.4531,336.4343,231.4531,336.2028,242.0078,336.5823,252.5625,336.4907,263.1172,336.5149,273.6719,336.5,284.2266,336.5,284.4339,326.4167,284.5839,316.3333,284.118,306.25,283.6735,296.1667,283.9004,286.0833,284.2073,276,284.4961,265.9167,283.7523,255.8333,284.4223,245.75,283.8501,235.6667,284.2986,225.5833,284.2251,215.5,284.2266,215.5132,284.2266,215.9198,273.6719,214.9097,263.1172,215.8468,252.5625,215.9236,242.0078,215.5,231.4531" style="stroke: #A80036; stroke-width: 1.5;"/><text fill="#000000" font-family="sans-serif" font-size="12" lengthAdjust="spacingAndGlyphs" textLength="112" x="220" y="247.5918">UserGroupService</text><path d="M216.5,255.4219 L216.5,255.065 L226.4167,255.2442 L236.3333,254.6014 L246.25,254.5339 L256.1667,255.8193 L266.0833,255.1577 L276,255.8211 L285.9167,254.602 L295.8333,254.7526 L305.75,254.8104 L315.6667,256.287 L325.5833,255.0089 L335.5,255.4219 " fill="#FEFECE" style="stroke: #A80036; stroke-width: 1.5;"/><text fill="#000000" font-family="sans-serif" font-size="11" lengthAdjust="spacingAndGlyphs" textLength="109" x="221.5" y="269.6323">+UserGroupsTable</text><path d="M216.5,276.2266 L216.5,275.5529 L226.4167,275.7431 L236.3333,276.9585 L246.25,275.9562 L256.1667,275.6162 L266.0833,276.0206 L276,275.3318 L285.9167,276.8895 L295.8333,276.7932 L305.75,276.4375 L315.6667,275.3005 L325.5833,276.9989 L335.5,276.2266 " fill="#FEFECE" style="stroke: #A80036; stroke-width: 1.5;"/><!--class UserGroupServiceInterface--><polygon fill="#FEFECE" filter="url(#fye9ezk)" points="6,192.9531,6,193.6583,16.2353,192.5677,26.4706,192.9821,36.7059,193.0045,46.9412,192.2154,57.1765,193.1492,67.4118,193.3385,77.6471,193.1782,87.8824,193.4412,98.1176,192.3626,108.3529,193.2467,118.5882,192.3487,128.8235,192.9162,139.0588,192.6058,149.2941,192.8784,159.5294,193.0804,169.7647,192.4272,180,192.9531,179.6564,192.9531,179.3893,202.9225,179.897,212.8918,179.852,222.8612,180.1963,232.8305,179.6625,242.7999,180.5332,252.7692,179.2997,262.7386,179.3744,272.7079,180.7212,282.6773,180.5333,292.6466,180.154,302.616,180.0738,312.5853,180,322.5547,180,322.8806,169.7647,321.9953,159.5294,322.9293,149.2941,322.2588,139.0588,322.7924,128.8235,323.0599,118.5882,322.5366,108.3529,323.1199,98.1176,322.8547,87.8824,322.4184,77.6471,322.2257,67.4118,322.1301,57.1765,321.8576,46.9412,322.975,36.7059,321.9697,26.4706,323.2846,16.2353,322.9109,6,322.5547,6.5268,322.5547,6.5313,312.5853,6.4762,302.616,6.6399,292.6466,5.4168,282.6773,5.4282,272.7079,6.2211,262.7386,5.8648,252.7692,6.1665,242.7999,5.5646,232.8305,5.4118,222.8612,5.5728,212.8918,6.2215,202.9225,6,192.9531" style="stroke: #A80036; stroke-width: 1.5;"/><text fill="#000000" font-family="sans-serif" font-size="12" lengthAdjust="spacingAndGlyphs" textLength="168" x="9" y="209.0918">UserGroupServiceInterface</text><path d="M7,216.9219 L7,216.3298 L17.1176,216.3444 L27.2353,216.2961 L37.3529,217.2559 L47.4706,216.0301 L57.5882,216.6096 L67.7059,217.4838 L77.8235,215.9372 L87.9412,216.6579 L98.0588,217.5171 L108.1765,216.6784 L118.2941,216.3124 L128.4118,217.7689 L138.5294,217.4576 L148.6471,217.6261 L158.7647,217.0189 L168.8824,216.1593 L179,216.9219 " fill="#FEFECE" style="stroke: #A80036; stroke-width: 1.5;"/><path d="M7,224.9219 L7,225.7326 L17.1176,225.3903 L27.2353,225.6868 L37.3529,224.7557 L47.4706,224.2136 L57.5882,224.2799 L67.7059,224.0898 L77.8235,224.7655 L87.9412,225.1988 L98.0588,225.8842 L108.1765,224.514 L118.2941,224.9521 L128.4118,224.251 L138.5294,224.2892 L148.6471,224.6719 L158.7647,223.9276 L168.8824,224.8768 L179,224.9219 " fill="#FEFECE" style="stroke: #A80036; stroke-width: 1.5;"/><text fill="#000000" font-family="sans-serif" font-size="11" lengthAdjust="spacingAndGlyphs" textLength="147" x="12" y="239.1323">+初期データ取得：getNew()</text><text fill="#000000" font-family="sans-serif" font-size="11" lengthAdjust="spacingAndGlyphs" textLength="86" x="12" y="251.937">+作成：create()</text><text fill="#000000" font-family="sans-serif" font-size="11" lengthAdjust="spacingAndGlyphs" textLength="89" x="12" y="264.7417">+編集：update()</text><text fill="#000000" font-family="sans-serif" font-size="11" lengthAdjust="spacingAndGlyphs" textLength="85" x="12" y="277.5464">+削除：delete()</text><text fill="#000000" font-family="sans-serif" font-size="11" lengthAdjust="spacingAndGlyphs" textLength="123" x="12" y="290.3511">+単一データ取得：get()</text><text fill="#000000" font-family="sans-serif" font-size="11" lengthAdjust="spacingAndGlyphs" textLength="153" x="12" y="303.1558">+一覧データ取得：getIndex()</text><text fill="#000000" font-family="sans-serif" font-size="11" lengthAdjust="spacingAndGlyphs" textLength="121" x="12" y="315.9604">+リスト取得：getList()</text><!--class UserGroupsTable--><polygon fill="#FEFECE" filter="url(#fye9ezk)" points="75,382.9531,75,382.6708,85.05,382.4769,95.1,382.8789,105.15,382.9505,115.2,383.6838,125.25,382.4145,135.3,382.7111,145.35,382.625,155.4,383.1207,165.45,382.6754,175.5,382.717,185.55,382.3588,195.6,383.654,205.65,382.3322,215.7,382.8448,225.75,383.6311,235.8,383.627,245.85,382.5939,255.9,383.0482,265.95,382.2805,276,382.5761,286.05,382.4867,296.1,382.4735,306.15,383.6244,316.2,383.1089,326.25,382.4892,336.3,383.0267,346.35,383.6317,356.4,382.6199,366.45,382.578,376.5,382.2276,386.55,383.0641,396.6,383.1979,406.65,383.1062,416.7,382.9841,426.75,383.3841,436.8,382.7816,446.85,382.8661,456.9,382.2235,466.95,383.3181,477,382.9531,477.6962,382.9531,477.1086,392.751,476.7452,402.5488,477.3008,412.3467,477.7335,422.1445,476.7957,431.9424,477.2899,441.7402,477.1923,451.5381,477,461.3359,477,461.945,466.95,461.9669,456.9,461.1809,446.85,460.68,436.8,461.8381,426.75,461.8425,416.7,461.0126,406.65,461.1837,396.6,461.2055,386.55,461.1755,376.5,461.2555,366.45,461.8821,356.4,461.2427,346.35,461.2625,336.3,460.6711,326.25,462.0457,316.2,460.6965,306.15,461.7052,296.1,461.3708,286.05,460.9543,276,461.5099,265.95,461.4654,255.9,460.6782,245.85,461.2916,235.8,460.9368,225.75,461.1071,215.7,461.3097,205.65,461.6761,195.6,461.7457,185.55,461.2394,175.5,461.1414,165.45,461.7716,155.4,461.4435,145.35,461.5845,135.3,461.9879,125.25,461.2443,115.2,461.0886,105.15,460.9555,95.1,461.5639,85.05,461.3562,75,461.3359,74.8961,461.3359,75.4067,451.5381,74.7787,441.7402,74.8832,431.9424,74.9812,422.1445,75.441,412.3467,75.265,402.5488,74.3224,392.751,75,382.9531" style="stroke: #A80036; stroke-width: 1.5;"/><text fill="#000000" font-family="sans-serif" font-size="12" lengthAdjust="spacingAndGlyphs" textLength="108" x="222" y="399.0918">UserGroupsTable</text><path d="M76,406.9219 L76,407.8014 L86,407.3551 L96,407.5371 L106,407.512 L116,406.1631 L126,407.5767 L136,406.0979 L146,407.3467 L156,407.3124 L166,406.766 L176,407.0229 L186,406.6327 L196,407.1871 L206,407.8902 L216,406.9862 L226,406.2826 L236,406.9927 L246,406.7848 L256,406.7192 L266,407.7626 L276,407.9076 L286,406.7626 L296,407.8908 L306,406.8837 L316,407.2849 L326,407.2518 L336,407.2194 L346,406.8524 L356,406.3596 L366,406.2266 L376,407.6472 L386,406.8802 L396,406.473 L406,405.9946 L416,407.8749 L426,407.66 L436,406.2578 L446,407.6327 L456,406.457 L466,406.9725 L476,406.9219 " fill="#FEFECE" style="stroke: #A80036; stroke-width: 1.5;"/><path d="M76,414.9219 L76,414.1015 L86,415.0369 L96,415.0022 L106,415.5724 L116,414.517 L126,415.1552 L136,414.8019 L146,415.3312 L156,415.7964 L166,414.523 L176,414.4244 L186,414.3761 L196,415.5109 L206,415.6956 L216,414.4712 L226,415.6672 L236,414.0399 L246,414.6 L256,415.7788 L266,414.0923 L276,414.3771 L286,415.1789 L296,414.8821 L306,414.7364 L316,414.9554 L326,415.0001 L336,415.5203 L346,415.4945 L356,415.1708 L366,414.7329 L376,415.3724 L386,414.6499 L396,414.6567 L406,415.5655 L416,415.0485 L426,414.4267 L436,415.1726 L446,415.7437 L456,415.6456 L466,414.8537 L476,414.9219 " fill="#FEFECE" style="stroke: #A80036; stroke-width: 1.5;"/><text fill="#000000" font-family="sans-serif" font-size="11" lengthAdjust="spacingAndGlyphs" textLength="390" x="81" y="429.1323">+ユーザーグループデータをコピーする：copy() ※ サービスに移動するか検討</text><text fill="#000000" font-family="sans-serif" font-size="11" lengthAdjust="spacingAndGlyphs" textLength="90" x="81" y="441.937">+beforeDelete()</text><text fill="#000000" font-family="sans-serif" font-size="11" lengthAdjust="spacingAndGlyphs" textLength="92" x="81" y="454.7417">+getAuthPrefix()</text><!--class UserGroup--><polygon fill="#FEFECE" filter="url(#fye9ezk)" points="71.5,520.9531,71.5,520.4238,81.4756,520.6045,91.4512,521.6794,101.4268,520.6647,111.4024,520.3788,121.378,520.4709,131.3537,520.2976,141.3293,520.3717,151.3049,521.6164,161.2805,520.4795,171.2561,521.2864,181.2317,520.6724,191.2073,520.95,201.1829,520.9151,211.1585,520.9039,221.1341,520.7146,231.1098,520.3147,241.0854,520.2167,251.061,521.5151,261.0366,521.5157,271.0122,520.9188,280.9878,521.1275,290.9634,521.206,300.939,520.8411,310.9146,520.4694,320.8902,521.2033,330.8659,520.8602,340.8415,520.491,350.8171,520.294,360.7927,520.52,370.7683,520.4164,380.7439,521.0165,390.7195,520.4924,400.6951,521.3336,410.6707,521.1884,420.6463,520.7107,430.622,520.3918,440.5976,520.3035,450.5732,520.8698,460.5488,521.2427,470.5244,521.045,480.5,520.9531,480.7549,520.9531,481.21,531.0851,480.5827,541.217,480.8559,551.349,480.8954,561.4809,480.9191,571.6128,480.9667,581.7448,480.7073,591.8767,480.6055,602.0087,480.5,612.1406,480.5,611.4573,470.5244,611.9109,460.5488,611.5497,450.5732,611.5977,440.5976,611.7947,430.622,612.5013,420.6463,611.5561,410.6707,612.5231,400.6951,611.45,390.7195,612.8142,380.7439,612.6579,370.7683,611.6518,360.7927,611.4223,350.8171,612.1679,340.8415,612.8002,330.8659,612.6971,320.8902,611.6666,310.9146,612.0988,300.939,612.7724,290.9634,612.2095,280.9878,612.629,271.0122,611.6079,261.0366,611.5621,251.061,611.4601,241.0854,611.7863,231.1098,612.5626,221.1341,612.0826,211.1585,612.6052,201.1829,611.5163,191.2073,612.5543,181.2317,611.7368,171.2561,612.6309,161.2805,612.2249,151.3049,612.7719,141.3293,611.851,131.3537,612.8779,121.378,611.834,111.4024,611.4174,101.4268,612.4228,91.4512,612.1964,81.4756,611.9913,71.5,612.1406,71.7118,612.1406,72.2154,602.0087,70.8468,591.8767,71.0556,581.7448,71.8968,571.6128,70.7777,561.4809,71.4062,551.349,71.3111,541.217,71.2565,531.0851,71.5,520.9531" style="stroke: #A80036; stroke-width: 1.5;"/><text fill="#000000" font-family="sans-serif" font-size="12" lengthAdjust="spacingAndGlyphs" textLength="67" x="242.5" y="537.0918">UserGroup</text><path d="M72.5,544.9219 L72.5,544.7961 L82.4268,545.0516 L92.3537,544.7844 L102.2805,545.4274 L112.2073,545.188 L122.1341,545.5148 L132.061,545.501 L141.9878,544.841 L151.9146,545.5806 L161.8415,544.6015 L171.7683,544.3288 L181.6951,545.4738 L191.622,543.9437 L201.5488,545.4255 L211.4756,545.8743 L221.4024,544.3171 L231.3293,544.0485 L241.2561,544.2734 L251.1829,544.9081 L261.1098,544.3941 L271.0366,544.1347 L280.9634,545.0803 L290.8902,545.0446 L300.8171,543.9399 L310.7439,545.767 L320.6707,545.5246 L330.5976,545.2811 L340.5244,544.8594 L350.4512,544.9306 L360.378,545.405 L370.3049,545.3562 L380.2317,544.4989 L390.1585,544.0972 L400.0854,544.9466 L410.0122,545.0446 L419.939,543.971 L429.8659,545.1209 L439.7927,545.5986 L449.7195,544.0946 L459.6463,544.409 L469.5732,544.3794 L479.5,544.9219 " fill="#FEFECE" style="stroke: #A80036; stroke-width: 1.5;"/><text fill="#000000" font-family="sans-serif" font-size="11" lengthAdjust="spacingAndGlyphs" textLength="151" x="77.5" y="559.1323">+ユーザーグループ名：name</text><text fill="#000000" font-family="sans-serif" font-size="11" lengthAdjust="spacingAndGlyphs" textLength="74" x="77.5" y="571.937">+表示名：title</text><text fill="#000000" font-family="sans-serif" font-size="11" lengthAdjust="spacingAndGlyphs" textLength="182" x="77.5" y="584.7417">+認証プレフィックス：auth_prefix</text><text fill="#000000" font-family="sans-serif" font-size="11" lengthAdjust="spacingAndGlyphs" textLength="397" x="77.5" y="597.5464">+コンテンツのドラッグ＆ドロップ移動機能を利用する：use_move_contents</text><path d="M72.5,604.1406 L72.5,603.9686 L82.4268,603.764 L92.3537,604.8222 L102.2805,604.7957 L112.2073,603.7955 L122.1341,604.8465 L132.061,604.7071 L141.9878,603.2793 L151.9146,603.1946 L161.8415,604.5759 L171.7683,605.1137 L181.6951,604.5906 L191.622,604.4195 L201.5488,603.4844 L211.4756,605.0972 L221.4024,603.2896 L231.3293,604.6479 L241.2561,604.7245 L251.1829,603.9712 L261.1098,603.8324 L271.0366,603.2542 L280.9634,604.9871 L290.8902,603.9443 L300.8171,603.4705 L310.7439,604.0393 L320.6707,604.3363 L330.5976,604.9574 L340.5244,603.7642 L350.4512,604.0952 L360.378,604.1506 L370.3049,603.9585 L380.2317,604.3607 L390.1585,603.3339 L400.0854,604.8934 L410.0122,603.4258 L419.939,604.1872 L429.8659,605.0098 L439.7927,603.4002 L449.7195,603.4674 L459.6463,603.1445 L469.5732,603.7943 L479.5,604.1406 " fill="#FEFECE" style="stroke: #A80036; stroke-width: 1.5;"/><path d="M276,133.0431 L276.6329,133.0431 L276.1321,143.3776 L275.6189,153.712 L275.991,164.0465 L276.6814,174.3809 L276.9423,184.7153 L276.9249,195.0498 L275.5727,205.3842 L275.1139,215.7187 L276,226.0531 " fill="none" style="stroke: #000000; stroke-width: 1.0;"/><polygon fill="#000000" points="276,231.3631,276.0072,231.3663,276.8198,229.5719,277.7856,227.8456,278.2675,225.9043,279.0756,224.1078,280,222.3631,280.172,222.5351,279.056,223.0191,278.4924,224.0555,277.6922,224.8553,276.6234,225.3866,276,226.3631,275.8613,226.2245,275.1778,225.5409,274.2373,224.6004,273.6255,223.9886,272.9334,223.2965,272,222.3631,271.9335,222.3336,272.7554,224.1433,273.8231,226.0623,274.3966,227.7616,275.1124,229.5242,276,231.3631" style="stroke: #000000; stroke-width: 1.0;"/><path d="M276,284.6231 L275.6546,284.6231 L276.0869,294.962 L275.3214,305.3009 L275.5208,315.6398 L276.64,325.9787 L275.0443,336.3176 L276.0438,346.6565 L275.4727,356.9953 L276.9356,367.3342 L276,377.6731 " fill="none" style="stroke: #000000; stroke-width: 1.0;"/><polygon fill="#000000" points="276,382.7331,275.8689,382.6749,276.5973,380.843,277.7065,379.1805,278.2125,377.2498,279.007,375.4474,280,373.7331,279.8506,373.5837,279.144,374.4771,278.3251,375.2582,277.7033,376.2365,276.8171,376.9502,276,377.7331,276.0418,377.775,275.0458,376.7789,274.469,376.2022,273.6586,375.3918,272.7261,374.4593,272,373.7331,272.2126,373.8276,272.6615,375.4716,273.756,377.4025,274.4622,379.1608,274.9922,380.8408,276,382.7331" style="stroke: #000000; stroke-width: 1.0;"/><path d="M200.27,257.9531 L200.27,258.2625 L203.292,257.852 L206.314,257.8609 L209.336,257.7143 L212.358,257.7225 L215.38,257.9531 " fill="none" style="stroke: #000000; stroke-width: 1.0; stroke-dasharray: 1.0,3.0;"/><polygon fill="none" points="200.21,264.9531,200.2143,264.9655,196.2142,263.5652,192.2488,262.264,188.1544,260.5943,184.1302,259.125,180.21,257.9531,180.2823,258.1598,184.1799,256.4672,188.1704,255.0399,192.137,253.5445,196.1507,252.1837,200.21,250.9531,200.4067,250.9531,200.2545,253.7531,200.1536,256.5531,200.1676,259.3531,200.1229,262.1531,200.21,264.9531" style="stroke: #000000; stroke-width: 1.0;"/><path d="M276,461.1431 L275.7868,461.1431 L276.5902,472.0831 L275.6751,483.0231 L276.788,493.9631 L276.6802,504.9031 L276,515.8431 " fill="none" style="stroke: #000000; stroke-width: 1.0;"/><polygon fill="#000000" points="276,520.8431,276.1513,520.9104,276.6706,518.9856,277.5753,517.2322,278.4615,515.4704,279.2419,513.6617,280,511.8431,279.9077,511.7508,279.0603,512.5034,278.4342,513.4773,277.7473,514.3904,276.7635,515.0066,276,515.8431,275.9912,515.8344,275.2333,515.0764,274.4676,514.3108,273.5029,513.346,272.8993,512.7424,272,511.8431,272.0746,511.8763,272.6991,513.5983,273.3878,515.3488,274.3097,517.203,275.3386,519.1047,276,520.8431" style="stroke: #000000; stroke-width: 1.0;"/></g></svg>