<?xml version="1.0" encoding="UTF-8" standalone="no"?><svg xmlns="http://www.w3.org/2000/svg" xmlns:xlink="http://www.w3.org/1999/xlink" contentScriptType="application/ecmascript" contentStyleType="text/css" height="803px" preserveAspectRatio="none" style="width:696px;height:803px;" version="1.1" viewBox="0 0 696 803" width="696px" zoomAndPan="magnify"><defs><filter height="300%" id="f6o7z98" width="300%" x="-1" y="-1"><feGaussianBlur result="blurOut" stdDeviation="2.0"/><feColorMatrix in="blurOut" result="blurOut2" type="matrix" values="0 0 0 0 0 0 0 0 0 0 0 0 0 0 0 0 0 0 .4 0"/><feOffset dx="4.0" dy="4.0" in="blurOut2" result="blurOut3"/><feBlend in="SourceGraphic" in2="blurOut3" mode="normal"/></filter></defs><g><text fill="#000000" font-family="sans-serif" font-size="18" lengthAdjust="spacingAndGlyphs" textLength="90" x="307.5" y="17.4023">テーマ管理</text><!--class Admin\ThemesController--><polygon fill="#FEFECE" filter="url(#f6o7z98)" points="323.5,29.1992,323.5,29.0853,333.5833,29.4728,343.6667,29.1114,353.75,29.6286,363.8333,28.6558,373.9167,29.5024,384,29.4617,394.0833,28.5901,404.1667,28.6905,414.25,29.6647,424.3333,28.8945,434.4167,29.4738,444.5,28.5238,454.5833,29.5418,464.6667,28.836,474.75,28.8716,484.8333,29.1207,494.9167,29.9263,505,29.3576,515.0833,29.6326,525.1667,29.0743,535.25,29.2534,545.3333,28.7014,555.4167,29.7583,565.5,29.8192,575.5833,29.7522,585.6667,28.9283,595.75,28.7955,605.8333,28.8249,615.9167,29.0725,626,29.0465,636.0833,29.2733,646.1667,28.6307,656.25,28.7883,666.3333,28.4548,676.4167,28.57,686.5,29.1992,685.8679,29.1992,686.142,39.1806,685.9546,49.162,686.5036,59.1434,686.1832,69.1248,686.4613,79.1062,687.237,89.0875,686.2038,99.0689,687.0638,109.0503,687.194,119.0317,685.9649,129.0131,686.2789,138.9945,686.1895,148.9759,687.1798,158.9573,687.0861,168.9386,686.6664,178.92,687.0161,188.9014,686.5,198.8828,686.5,198.4164,676.4167,199.099,666.3333,198.1333,656.25,199.2952,646.1667,198.8187,636.0833,198.8222,626,198.8301,615.9167,198.4929,605.8333,198.8667,595.75,198.3199,585.6667,198.1504,575.5833,199.5248,565.5,198.6118,555.4167,199.043,545.3333,198.4074,535.25,198.4372,525.1667,198.6921,515.0833,198.383,505,199.4754,494.9167,198.5655,484.8333,198.2722,474.75,198.1822,464.6667,199.4956,454.5833,198.5476,444.5,199.3183,434.4167,198.447,424.3333,198.6926,414.25,199.038,404.1667,199.0679,394.0833,199.2914,384,199.4878,373.9167,198.2516,363.8333,198.4051,353.75,199.4451,343.6667,198.8953,333.5833,199.0349,323.5,198.8828,322.8286,198.8828,323.7223,188.9014,323.3562,178.92,323.228,168.9386,322.7638,158.9573,323.1137,148.9759,323.1758,138.9945,323.1083,129.0131,322.8217,119.0317,323.3516,109.0503,322.7784,99.0689,322.902,89.0875,323.4195,79.1062,323.0662,69.1248,324.2474,59.1434,323.8709,49.162,323.2042,39.1806,323.5,29.1992" style="stroke: #A80036; stroke-width: 1.5;"/><text fill="#000000" font-family="sans-serif" font-size="12" lengthAdjust="spacingAndGlyphs" textLength="145" x="432.5" y="45.8008">Admin\ThemesController</text><path d="M324.5,53.332 L324.5,52.3419 L334.5278,53.1229 L344.5556,52.8035 L354.5833,53.6013 L364.6111,53.9968 L374.6389,53.4883 L384.6667,53.4419 L394.6944,52.524 L404.7222,53.1926 L414.75,53.6156 L424.7778,54.2894 L434.8056,53.6976 L444.8333,52.8489 L454.8611,53.6602 L464.8889,54.1475 L474.9167,53.246 L484.9444,54.0668 L494.9722,53.7908 L505,53.1801 L515.0278,52.9758 L525.0556,53.6931 L535.0833,52.4842 L545.1111,53.8577 L555.1389,52.79 L565.1667,52.6728 L575.1944,54.0508 L585.2222,53.2976 L595.25,54.1045 L605.2778,53.1437 L615.3056,52.3585 L625.3333,52.8921 L635.3611,52.4764 L645.3889,52.4022 L655.4167,53.3767 L665.4444,52.6396 L675.4722,52.4078 L685.5,53.332 " fill="#FEFECE" style="stroke: #A80036; stroke-width: 1.5;"/><path d="M324.5,61.332 L324.5,62.2366 L334.5278,60.5193 L344.5556,62.3008 L354.5833,60.7342 L364.6111,60.6744 L374.6389,61.796 L384.6667,61.4012 L394.6944,61.1356 L404.7222,61.9339 L414.75,60.5113 L424.7778,61.1816 L434.8056,61.1274 L444.8333,61.2941 L454.8611,61.659 L464.8889,61.8744 L474.9167,60.3941 L484.9444,60.7157 L494.9722,62.2607 L505,62.1371 L515.0278,61.522 L525.0556,60.3459 L535.0833,61.6855 L545.1111,62.1253 L555.1389,61.0692 L565.1667,60.5324 L575.1944,61.4601 L585.2222,61.5201 L595.25,60.4763 L605.2778,60.6479 L615.3056,61.2418 L625.3333,60.8447 L635.3611,60.5817 L645.3889,60.8916 L655.4167,60.4781 L665.4444,60.6164 L675.4722,60.4438 L685.5,61.332 " fill="#FEFECE" style="stroke: #A80036; stroke-width: 1.5;"/><text fill="#000000" font-family="sans-serif" font-size="11" lengthAdjust="spacingAndGlyphs" textLength="146" x="329.5" y="75.9668">+テーマ一覧を表示：index()</text><text fill="#000000" font-family="sans-serif" font-size="11" lengthAdjust="spacingAndGlyphs" textLength="213" x="329.5" y="88.9219">+新しいテーマをアップロードする：add()</text><text fill="#000000" font-family="sans-serif" font-size="11" lengthAdjust="spacingAndGlyphs" textLength="145" x="329.5" y="101.877">+テーマを適用する：apply()</text><text fill="#000000" font-family="sans-serif" font-size="11" lengthAdjust="spacingAndGlyphs" textLength="278" x="329.5" y="114.832">+初期データを読み込む：load_default_data_pattern()</text><text fill="#000000" font-family="sans-serif" font-size="11" lengthAdjust="spacingAndGlyphs" textLength="109" x="329.5" y="127.7871">+コピーする：copy()</text><text fill="#000000" font-family="sans-serif" font-size="11" lengthAdjust="spacingAndGlyphs" textLength="104" x="329.5" y="140.7422">+削除する：delete()</text><text fill="#000000" font-family="sans-serif" font-size="11" lengthAdjust="spacingAndGlyphs" textLength="256" x="329.5" y="153.6973">+利用中のテーマをダウンロードする：download()</text><text fill="#000000" font-family="sans-serif" font-size="11" lengthAdjust="spacingAndGlyphs" textLength="351" x="329.5" y="166.6523">+初期データをダウンロードする：download_default_data_pattern()</text><text fill="#000000" font-family="sans-serif" font-size="11" lengthAdjust="spacingAndGlyphs" textLength="227" x="329.5" y="179.6074">+コアの初期データを読み込む：reset_data()</text><text fill="#000000" font-family="sans-serif" font-size="11" lengthAdjust="spacingAndGlyphs" textLength="339" x="329.5" y="192.5625">+baserマーケットのテーマ一覧を取得する：get_market_themes()</text><!--class ThemesService--><polygon fill="#FEFECE" filter="url(#f6o7z98)" points="459,330.6992,459,330.6675,469.2222,331.0575,479.4444,331.4062,489.6667,330.3063,499.8889,329.9644,510.1111,330.0776,520.3333,330.7593,530.5556,330.3539,540.7778,331.4077,551,330.6992,551.194,330.6992,551.0681,338.7258,551.168,346.7523,551.2169,354.7789,551.2004,362.8055,551,370.832,551,371.4047,540.7778,371.1697,530.5556,371.186,520.3333,370.4549,510.1111,370.3881,499.8889,371.3824,489.6667,370.2648,479.4444,370.6759,469.2222,370.5388,459,370.832,459.148,370.832,458.9635,362.8055,458.7788,354.7789,459.1268,346.7523,459.1584,338.7258,459,330.6992" style="stroke: #A80036; stroke-width: 1.5;"/><text fill="#000000" font-family="sans-serif" font-size="12" lengthAdjust="spacingAndGlyphs" textLength="86" x="462" y="347.3008">ThemesService</text><path d="M460,354.832 L460,354.3361 L470,354.9973 L480,354.2225 L490,354.5769 L500,355.4597 L510,354.5645 L520,355.0167 L530,355.1989 L540,354.9095 L550,354.832 " fill="#FEFECE" style="stroke: #A80036; stroke-width: 1.5;"/><path d="M460,362.832 L460,363.24 L470,362.8079 L480,363.0968 L490,362.6933 L500,362.2537 L510,363.6136 L520,362.0745 L530,363.4314 L540,362.782 L550,362.832 " fill="#FEFECE" style="stroke: #A80036; stroke-width: 1.5;"/><!--class ThemesServiceInterface--><polygon fill="#FEFECE" filter="url(#f6o7z98)" points="6,259.1992,6,259.3851,15.9524,259.5418,25.9048,258.5856,35.8571,258.4679,45.8095,259.6491,55.7619,259.0928,65.7143,259.6445,75.6667,259.6846,85.619,259.1994,95.5714,259.0942,105.5238,259.6145,115.4762,259.8524,125.4286,259.5734,135.381,259.6428,145.3333,259.557,155.2857,258.8053,165.2381,259.1692,175.1905,259.2218,185.1429,258.6943,195.0952,259.4788,205.0476,259.0144,215,259.9091,224.9524,259.3168,234.9048,259.3067,244.8571,258.8847,254.8095,259.1295,264.7619,259.6332,274.7143,259.9227,284.6667,258.8779,294.619,258.8907,304.5714,259.1982,314.5238,259.8348,324.4762,259.0181,334.4286,259.4638,344.381,259.4057,354.3333,259.4543,364.2857,259.3258,374.2381,259.5041,384.1905,259.5263,394.1429,259.8431,404.0952,258.537,414.0476,259.1585,424,259.1992,424.2044,259.1992,423.5894,269.3458,424.601,279.4924,423.5761,289.639,423.996,299.7856,424.1298,309.9322,424.0079,320.0788,423.712,330.2254,423.7615,340.372,423.429,350.5186,423.7394,360.6651,424.7315,370.8117,423.2541,380.9583,423.9451,391.1049,423.9203,401.2515,423.408,411.3981,424.4689,421.5447,423.6444,431.6913,424,441.8379,424,441.817,414.0476,442.401,404.0952,441.6737,394.1429,442.4267,384.1905,441.2429,374.2381,442.2663,364.2857,441.7626,354.3333,441.9011,344.381,442.1147,334.4286,441.4097,324.4762,441.4832,314.5238,441.8547,304.5714,442.1552,294.619,441.2473,284.6667,441.5222,274.7143,441.3016,264.7619,442.3272,254.8095,441.352,244.8571,441.6596,234.9048,441.4624,224.9524,442.1458,215,441.9778,205.0476,441.1425,195.0952,441.3317,185.1429,441.9299,175.1905,442.4429,165.2381,441.4798,155.2857,442.0259,145.3333,441.651,135.381,441.2517,125.4286,442.3375,115.4762,442.198,105.5238,442.3696,95.5714,441.5921,85.619,441.1777,75.6667,442.5075,65.7143,441.9649,55.7619,441.6133,45.8095,441.8878,35.8571,442.0969,25.9048,442.4771,15.9524,441.6748,6,441.8379,6.5476,441.8379,6.4226,431.6913,6.5412,421.5447,5.7225,411.3981,6.734,401.2515,5.6447,391.1049,5.6492,380.9583,6.6266,370.8117,5.6898,360.6651,6.4532,350.5186,6.6637,340.372,6.0568,330.2254,6.1732,320.0788,6.5554,309.9322,5.5025,299.7856,6.1414,289.639,5.2844,279.4924,6.5222,269.3458,6,259.1992" style="stroke: #A80036; stroke-width: 1.5;"/><text fill="#000000" font-family="sans-serif" font-size="12" lengthAdjust="spacingAndGlyphs" textLength="136" x="147" y="275.8008">ThemesServiceInterface</text><path d="M7,283.332 L7,283.5374 L16.9048,283.5933 L26.8095,282.81 L36.7143,283.1221 L46.619,284.3036 L56.5238,283.7082 L66.4286,283.6397 L76.3333,283.9921 L86.2381,282.9778 L96.1429,283.1814 L106.0476,282.3342 L115.9524,283.6992 L125.8571,282.4426 L135.7619,283.0146 L145.6667,282.3858 L155.5714,283.9631 L165.4762,282.6178 L175.381,283.8456 L185.2857,283.9696 L195.1905,283.4839 L205.0952,284.3141 L215,283.9408 L224.9048,284.1192 L234.8095,283.1537 L244.7143,283.8528 L254.619,283.7155 L264.5238,283.6714 L274.4286,282.498 L284.3333,283.9241 L294.2381,283.8995 L304.1429,283.471 L314.0476,282.9123 L323.9524,283.7405 L333.8571,283.7815 L343.7619,283.7552 L353.6667,284.1719 L363.5714,284.3142 L373.4762,283.976 L383.381,284.2519 L393.2857,283.2901 L403.1905,282.6447 L413.0952,282.8446 L423,283.332 " fill="#FEFECE" style="stroke: #A80036; stroke-width: 1.5;"/><path d="M7,291.332 L7,292.3287 L16.9048,291.0899 L26.8095,291.7522 L36.7143,291.0889 L46.619,290.5205 L56.5238,291.828 L66.4286,291.8225 L76.3333,291.0974 L86.2381,290.94 L96.1429,290.8705 L106.0476,291.2542 L115.9524,290.3874 L125.8571,290.442 L135.7619,290.7724 L145.6667,291.1057 L155.5714,291.9226 L165.4762,290.9646 L175.381,291.1463 L185.2857,290.3365 L195.1905,292.2225 L205.0952,292.2101 L215,290.4334 L224.9048,292.3229 L234.8095,290.9942 L244.7143,290.7566 L254.619,292.1017 L264.5238,291.3959 L274.4286,291.525 L284.3333,290.8074 L294.2381,291.893 L304.1429,291.6128 L314.0476,291.2678 L323.9524,291.0857 L333.8571,290.5316 L343.7619,290.6167 L353.6667,290.9296 L363.5714,291.8755 L373.4762,291.7785 L383.381,291.2743 L393.2857,291.9463 L403.1905,291.8842 L413.0952,290.88 L423,291.332 " fill="#FEFECE" style="stroke: #A80036; stroke-width: 1.5;"/><text fill="#000000" font-family="sans-serif" font-size="11" lengthAdjust="spacingAndGlyphs" textLength="122" x="12" y="305.9668">+単一データ取得：get()</text><text fill="#000000" font-family="sans-serif" font-size="11" lengthAdjust="spacingAndGlyphs" textLength="152" x="12" y="318.9219">+一覧データ取得：getIndex()</text><text fill="#000000" font-family="sans-serif" font-size="11" lengthAdjust="spacingAndGlyphs" textLength="213" x="12" y="331.877">+新しいテーマをアップロードする：add()</text><text fill="#000000" font-family="sans-serif" font-size="11" lengthAdjust="spacingAndGlyphs" textLength="123" x="12" y="344.832">+インストール：apply()</text><text fill="#000000" font-family="sans-serif" font-size="11" lengthAdjust="spacingAndGlyphs" textLength="261" x="12" y="357.7871">+初期データを読み込む：loadDefaultDataPattern()</text><text fill="#000000" font-family="sans-serif" font-size="11" lengthAdjust="spacingAndGlyphs" textLength="109" x="12" y="370.7422">+コピーする：copy()</text><text fill="#000000" font-family="sans-serif" font-size="11" lengthAdjust="spacingAndGlyphs" textLength="104" x="12" y="383.6973">+削除する：delete()</text><text fill="#000000" font-family="sans-serif" font-size="11" lengthAdjust="spacingAndGlyphs" textLength="328" x="12" y="396.6523">+利用中のテーマをダウンロードする：createDownloadToTmp()</text><text fill="#000000" font-family="sans-serif" font-size="11" lengthAdjust="spacingAndGlyphs" textLength="406" x="12" y="409.6074">+初期データをダウンロードする：createDownloadDefaultDataPatternToTmp()</text><text fill="#000000" font-family="sans-serif" font-size="11" lengthAdjust="spacingAndGlyphs" textLength="329" x="12" y="422.5625">+baserマーケットのテーマ一覧を取得する：getMarketThemes()</text><text fill="#000000" font-family="sans-serif" font-size="11" lengthAdjust="spacingAndGlyphs" textLength="222" x="12" y="435.5176">+コアの初期データを読み込む：resetData()</text><!--class BcPlugin--><polygon fill="#FEFECE" filter="url(#f6o7z98)" points="401.5,502.1992,401.5,501.8022,411.3571,501.5587,421.2143,501.5526,431.0714,502.1807,440.9286,502.1791,450.7857,501.9547,460.6429,501.821,470.5,502.8658,480.3571,501.9752,490.2143,502.8804,500.0714,502.679,509.9286,502.1892,519.7857,502.9065,529.6429,501.4774,539.5,502.5294,549.3571,502.4311,559.2143,502.3561,569.0714,502.4647,578.9286,502.6487,588.7857,501.5748,598.6429,501.7118,608.5,502.1992,609.2355,502.1992,607.9299,512.8168,608.9926,523.4344,608.7837,534.052,608.3607,544.6695,608.5,555.2871,608.5,555.1252,598.6429,555.426,588.7857,555.3701,578.9286,555.1789,569.0714,555.2628,559.2143,555.3708,549.3571,554.7332,539.5,555.9367,529.6429,555.4399,519.7857,555.2414,509.9286,555.5339,500.0714,555.8283,490.2143,555.3356,480.3571,555.694,470.5,554.9232,460.6429,555.2702,450.7857,554.8276,440.9286,555.0159,431.0714,555.2842,421.2143,555.2601,411.3571,555.6156,401.5,555.2871,400.8339,555.2871,400.8611,544.6695,400.9368,534.052,401.2639,523.4344,401.4414,512.8168,401.5,502.1992" style="stroke: #A80036; stroke-width: 1.5;"/><text fill="#000000" font-family="sans-serif" font-size="12" lengthAdjust="spacingAndGlyphs" textLength="47" x="481.5" y="518.8008">BcPlugin</text><path d="M402.5,526.332 L402.5,527.0981 L412.2619,526.8229 L422.0238,526.3667 L431.7857,525.4178 L441.5476,527.3215 L451.3095,525.9188 L461.0714,527.2008 L470.8333,526.0575 L480.5952,525.7909 L490.3571,525.9247 L500.119,526.2432 L509.881,525.6457 L519.6429,525.5947 L529.4048,525.4756 L539.1667,526.1342 L548.9286,525.4454 L558.6905,526.7685 L568.4524,525.3806 L578.2143,525.6569 L587.9762,525.6693 L597.7381,526.5072 L607.5,526.332 " fill="#FEFECE" style="stroke: #A80036; stroke-width: 1.5;"/><path d="M402.5,534.332 L402.5,533.696 L412.2619,534.7909 L422.0238,534.1122 L431.7857,534.8351 L441.5476,534.9008 L451.3095,534.202 L461.0714,534.9213 L470.8333,535.2486 L480.5952,534.8012 L490.3571,533.389 L500.119,534.7683 L509.881,533.8077 L519.6429,533.4883 L529.4048,533.5122 L539.1667,533.9752 L548.9286,535.2962 L558.6905,534.0496 L568.4524,534.9185 L578.2143,534.1197 L587.9762,533.4067 L597.7381,534.8073 L607.5,534.332 " fill="#FEFECE" style="stroke: #A80036; stroke-width: 1.5;"/><text fill="#000000" font-family="sans-serif" font-size="11" lengthAdjust="spacingAndGlyphs" textLength="195" x="407.5" y="548.9668">+テーマを適用する：applyAsTheme()</text><!--class SiteConfigsTable--><polygon fill="#FEFECE" filter="url(#f6o7z98)" points="415,615.1992,415,614.617,425,615.9311,435,614.5207,445,614.6571,455,615.5756,465,614.6898,475,615.4112,485,615.0577,495,614.9832,505,615.3507,515,614.4528,525,615.2332,535,615.8392,545,614.9017,555,615.8138,565,614.9816,575,615.6845,585,615.3822,595,615.1992,594.9438,615.1992,594.4392,625.8168,594.7231,636.4344,594.4836,647.052,594.912,657.6695,595,668.2871,595,668.9463,585,667.9347,575,668.5837,565,668.3988,555,667.6757,545,667.982,535,668.0591,525,668.8882,515,668.6181,505,668.4784,495,668.0927,485,668.9256,475,668.1846,465,668.5551,455,668.8091,445,668.1012,435,667.6297,425,668.445,415,668.2871,414.9194,668.2871,414.3329,657.6695,415.0099,647.052,414.2637,636.4344,415.3104,625.8168,415,615.1992" style="stroke: #A80036; stroke-width: 1.5;"/><text fill="#000000" font-family="sans-serif" font-size="12" lengthAdjust="spacingAndGlyphs" textLength="95" x="457.5" y="631.8008">SiteConfigsTable</text><path d="M416,639.332 L416,639.5159 L425.8889,639.7971 L435.7778,638.946 L445.6667,638.837 L455.5556,639.8588 L465.4444,639.4928 L475.3333,639.4097 L485.2222,638.4909 L495.1111,639.4359 L505,639.9699 L514.8889,639.9319 L524.7778,639.8594 L534.6667,638.6668 L544.5556,638.5267 L554.4444,640.2819 L564.3333,640.1066 L574.2222,640.2009 L584.1111,640.2886 L594,639.332 " fill="#FEFECE" style="stroke: #A80036; stroke-width: 1.5;"/><path d="M416,647.332 L416,646.4203 L425.8889,646.9887 L435.7778,646.744 L445.6667,646.5566 L455.5556,648.1533 L465.4444,646.7893 L475.3333,646.9651 L485.2222,648.0031 L495.1111,647.2863 L505,647.2821 L514.8889,646.4101 L524.7778,646.4087 L534.6667,647.4689 L544.5556,647.1105 L554.4444,646.4317 L564.3333,646.4551 L574.2222,646.8554 L584.1111,646.3923 L594,647.332 " fill="#FEFECE" style="stroke: #A80036; stroke-width: 1.5;"/><text fill="#000000" font-family="sans-serif" font-size="11" lengthAdjust="spacingAndGlyphs" textLength="168" x="421" y="661.9668">+テーマを適用する：setTheme()</text><!--class SiteConfig--><polygon fill="#FEFECE" filter="url(#f6o7z98)" points="463.5,728.1992,463.5,728.2635,473.875,728.3935,484.25,727.8132,494.625,727.5404,505,727.993,515.375,728.0903,525.75,728.8863,536.125,728.2378,546.5,728.1992,547.025,728.1992,547.051,737.6339,546.619,747.0686,545.9334,756.5033,545.7677,765.9381,547.066,775.3728,545.9483,784.8075,546.5,794.2422,546.5,794.4375,536.125,794.442,525.75,793.745,515.375,794.3599,505,793.6257,494.625,794.3343,484.25,794.1129,473.875,793.736,463.5,794.2422,462.8704,794.2422,463.6234,784.8075,462.8737,775.3728,464.1861,765.9381,462.8785,756.5033,462.9112,747.0686,463.2546,737.6339,463.5,728.1992" style="stroke: #A80036; stroke-width: 1.5;"/><text fill="#000000" font-family="sans-serif" font-size="12" lengthAdjust="spacingAndGlyphs" textLength="56" x="477" y="744.8008">SiteConfig</text><path d="M464.5,752.332 L464.5,751.843 L474.625,752.0239 L484.75,751.8775 L494.875,752.1238 L505,751.8522 L515.125,753.2281 L525.25,751.3885 L535.375,751.5908 L545.5,752.332 " fill="#FEFECE" style="stroke: #A80036; stroke-width: 1.5;"/><text fill="#000000" font-family="sans-serif" font-size="11" lengthAdjust="spacingAndGlyphs" textLength="71" x="469.5" y="766.9668">+名前：name</text><text fill="#000000" font-family="sans-serif" font-size="11" lengthAdjust="spacingAndGlyphs" textLength="59" x="469.5" y="779.9219">+値：value</text><path d="M464.5,786.2422 L464.5,786.1084 L474.625,785.2588 L484.75,785.996 L494.875,785.8683 L505,786.9427 L515.125,786.8619 L525.25,785.4026 L535.375,785.32 L545.5,786.2422 " fill="#FEFECE" style="stroke: #A80036; stroke-width: 1.5;"/><path d="M505,199.5292 L504.0073,199.5292 L505.1624,209.1861 L505.8299,218.8431 L504.258,228.5 L505.3496,238.1569 L504.5582,247.8138 L505.8335,257.4708 L504.2692,267.1277 L505.5533,276.7846 L504.5133,286.4415 L505.992,296.0984 L505.1293,305.7554 L504.8677,315.4123 L505,325.0692 " fill="none" style="stroke: #000000; stroke-width: 1.0;"/><polygon fill="#000000" points="505,330.3492,504.799,330.2599,505.9608,328.6207,506.553,326.7284,507.1874,324.8547,508.3392,323.2111,509,321.3492,508.9112,321.2604,508.2638,322.213,507.4158,322.9651,506.6449,323.7941,505.7804,324.5296,505,325.3492,504.8678,325.217,504.0317,324.381,503.4384,323.7876,502.7379,323.0871,501.6367,321.986,501,321.3492,500.7881,321.255,501.7095,323.109,502.4751,324.8937,503.4952,326.7915,504.188,328.5439,505,330.3492" style="stroke: #000000; stroke-width: 1.0;"/><path d="M505,370.8692 L505.13,370.8692 L504.262,380.5592 L505.054,390.2492 L504.5192,399.9392 L505.696,409.6292 L505.2989,419.3192 L505.0902,429.0092 L504.8167,438.6992 L504.66,448.3892 L504.7413,458.0792 L504.0468,467.7692 L504.1081,477.4592 L504.854,487.1492 L505,496.8392 " fill="none" style="stroke: #000000; stroke-width: 1.0;"/><polygon fill="#000000" points="505,502.0292,504.8052,501.9427,505.8798,500.2647,506.4913,498.3809,507.2365,496.5565,508.1427,494.8038,509,493.0292,509.1068,493.1361,508.2891,493.9183,507.411,494.6402,506.5559,495.3851,505.7602,496.1894,505,497.0292,504.8444,496.8736,504.0944,496.1236,503.361,495.3902,502.5527,494.582,501.6805,493.7098,501,493.0292,500.8826,492.9771,501.7966,494.8277,502.7714,496.7054,503.2511,498.363,504.125,500.1959,505,502.0292" style="stroke: #000000; stroke-width: 1.0;"/><path d="M505,555.4392 L505.7852,555.4392 L504.2282,566.3332 L504.8323,577.2272 L505.859,588.1212 L505.979,599.0152 L505,609.9092 " fill="none" style="stroke: #000000; stroke-width: 1.0;"/><polygon fill="#000000" points="505,615.0892,505.0954,615.1319,505.9969,613.3774,506.5815,611.4809,507.38,609.6803,507.9975,607.7985,509.0257,606.1007,508.9609,606.0355,508.126,606.8004,507.406,607.6809,506.6841,608.5594,505.6414,609.1153,505.0143,610.0892,505.153,610.2272,504.2862,609.3562,503.3077,608.3741,502.6458,607.7069,501.9666,607.0224,501.0257,606.0778,500.948,606.0435,501.7451,607.8468,502.6494,609.6973,503.6355,611.584,504.4143,613.3792,505,615.0892" style="stroke: #000000; stroke-width: 1.0;"/><path d="M444.12,350.6992 L444.12,350.4438 L447.058,350.3978 L449.996,350.3791 L452.934,350.6595 L455.872,350.4618 L458.81,350.6992 " fill="none" style="stroke: #000000; stroke-width: 1.0; stroke-dasharray: 1.0,3.0;"/><polygon fill="none" points="444,357.6992,443.9858,357.6586,439.9274,356.0918,435.959,354.782,432.0535,353.6522,428.0755,352.3149,424,350.6992,423.9799,350.6417,427.9807,349.2442,431.9611,347.788,435.9998,346.4985,440.0421,345.2194,444,343.6992,443.7951,343.6992,443.8731,346.4992,444.027,349.2992,443.8672,352.0992,444.0104,354.8992,444,357.6992" style="stroke: #000000; stroke-width: 1.0;"/><path d="M505,668.4892 L504.5507,668.4892 L505.9283,679.3492 L505.6016,690.2092 L505.3734,701.0692 L505.4078,711.9292 L505,722.7892 " fill="none" style="stroke: #000000; stroke-width: 1.0;"/><polygon fill="#000000" points="505,728.1792,505.1365,728.2399,505.9402,726.4415,506.4596,724.5168,507.2974,722.7336,508.0768,720.9245,509,719.1792,508.8671,719.0463,508.2798,720.059,507.2697,720.6489,506.4504,721.4297,505.9618,722.541,505,723.1792,504.9885,723.1677,504.1481,722.3273,503.5037,721.6829,502.4623,720.6415,501.7504,719.9296,501,719.1792,500.9942,719.1766,501.9737,721.0564,502.442,722.709,503.3986,724.5786,504.077,726.3245,505,728.1792" style="stroke: #000000; stroke-width: 1.0;"/></g></svg>