<?xml version="1.0" encoding="UTF-8" standalone="no"?><svg xmlns="http://www.w3.org/2000/svg" xmlns:xlink="http://www.w3.org/1999/xlink" contentScriptType="application/ecmascript" contentStyleType="text/css" height="884px" preserveAspectRatio="none" style="width:897px;height:884px;" version="1.1" viewBox="0 0 897 884" width="897px" zoomAndPan="magnify"><defs><filter height="300%" id="fx1bk4i" width="300%" x="-1" y="-1"><feGaussianBlur result="blurOut" stdDeviation="2.0"/><feColorMatrix in="blurOut" result="blurOut2" type="matrix" values="0 0 0 0 0 0 0 0 0 0 0 0 0 0 0 0 0 0 .4 0"/><feOffset dx="4.0" dy="4.0" in="blurOut2" result="blurOut3"/><feBlend in="SourceGraphic" in2="blurOut3" mode="normal"/></filter></defs><g><text fill="#000000" font-family="sans-serif" font-size="18" lengthAdjust="spacingAndGlyphs" textLength="108" x="399" y="17.4023">ユーザー管理</text><!--class Admin\UsersController--><polygon fill="#FEFECE" filter="url(#fx1bk4i)" points="379.5,29.1992,379.5,29.9144,389.4474,29.5195,399.3947,29.6253,409.3421,29.8162,419.2895,28.7833,429.2368,29.2205,439.1842,29.7558,449.1316,29.816,459.0789,29.4166,469.0263,29.6636,478.9737,29.1795,488.9211,28.5946,498.8684,28.5731,508.8158,28.5728,518.7632,29.7368,528.7105,29.2361,538.6579,29.2426,548.6053,29.7103,558.5526,29.1982,568.5,29.1992,568.8287,29.1992,567.9478,39.1806,569.1259,49.162,568.6321,59.1434,568.8964,69.1248,568.3493,79.1062,568.5455,89.0875,567.7769,99.0689,568.0051,109.0503,568.0326,119.0317,568.5929,129.0131,568.6374,138.9945,568.3382,148.9759,568.8586,158.9573,568.7696,168.9386,568.7822,178.92,567.8941,188.9014,568.5,198.8828,568.5,199.3318,558.5526,199.5589,548.6053,198.3978,538.6579,199.3742,528.7105,199.2479,518.7632,198.8151,508.8158,198.7267,498.8684,199.1195,488.9211,198.9749,478.9737,198.3046,469.0263,199.1092,459.0789,199.0699,449.1316,199.1085,439.1842,198.89,429.2368,199.4998,419.2895,198.7197,409.3421,198.8678,399.3947,199.336,389.4474,198.4563,379.5,198.8828,379.4665,198.8828,379.5432,188.9014,379.153,178.92,379.8097,168.9386,379.8185,158.9573,380.1752,148.9759,379.8722,138.9945,379.0916,129.0131,379.0092,119.0317,379.3731,109.0503,379.6126,99.0689,378.7867,89.0875,380.0376,79.1062,379.3649,69.1248,378.8523,59.1434,379.1703,49.162,379.7328,39.1806,379.5,29.1992" style="stroke: #A80036; stroke-width: 1.5;"/><text fill="#000000" font-family="sans-serif" font-size="12" lengthAdjust="spacingAndGlyphs" textLength="131" x="408.5" y="45.8008">Admin\UsersController</text><path d="M380.5,53.332 L380.5,53.2089 L390.3421,53.1123 L400.1842,52.374 L410.0263,53.9498 L419.8684,52.3896 L429.7105,52.3556 L439.5526,52.9315 L449.3947,52.5868 L459.2368,52.9547 L469.0789,52.9729 L478.9211,53.442 L488.7632,53.2913 L498.6053,54.0168 L508.4474,52.4381 L518.2895,53.5536 L528.1316,54.0296 L537.9737,53.0037 L547.8158,52.7807 L557.6579,54.2345 L567.5,53.332 " fill="#FEFECE" style="stroke: #A80036; stroke-width: 1.5;"/><text fill="#000000" font-family="sans-serif" font-size="11" lengthAdjust="spacingAndGlyphs" textLength="151" x="385.5" y="67.9668">+AuthenticationComponent</text><text fill="#000000" font-family="sans-serif" font-size="11" lengthAdjust="spacingAndGlyphs" textLength="130" x="385.5" y="80.9219">+BcMessageComponent</text><path d="M380.5,87.2422 L380.5,86.7053 L390.3421,86.3522 L400.1842,86.342 L410.0263,87.5727 L419.8684,86.3482 L429.7105,87.8423 L439.5526,86.3208 L449.3947,87.8612 L459.2368,87.2202 L469.0789,87.6471 L478.9211,88.1481 L488.7632,88.0173 L498.6053,86.5465 L508.4474,87.0588 L518.2895,87.6006 L528.1316,87.6115 L537.9737,86.2599 L547.8158,87.6338 L557.6579,86.8279 L567.5,87.2422 " fill="#FEFECE" style="stroke: #A80036; stroke-width: 1.5;"/><text fill="#000000" font-family="sans-serif" font-size="11" lengthAdjust="spacingAndGlyphs" textLength="99" x="385.5" y="101.877">+ログイン：login()</text><text fill="#000000" font-family="sans-serif" font-size="11" lengthAdjust="spacingAndGlyphs" textLength="157" x="385.5" y="114.832">+代理ログイン：login_agent()</text><text fill="#000000" font-family="sans-serif" font-size="11" lengthAdjust="spacingAndGlyphs" textLength="177" x="385.5" y="127.7871">+代理ログイン解除：back_agent()</text><text fill="#000000" font-family="sans-serif" font-size="11" lengthAdjust="spacingAndGlyphs" textLength="118" x="385.5" y="140.7422">+ログアウト：logout()</text><text fill="#000000" font-family="sans-serif" font-size="11" lengthAdjust="spacingAndGlyphs" textLength="157" x="385.5" y="153.6973">+ユーザー一覧を表示：index()</text><text fill="#000000" font-family="sans-serif" font-size="11" lengthAdjust="spacingAndGlyphs" textLength="136" x="385.5" y="166.6523">+ユーザー新規追加：add()</text><text fill="#000000" font-family="sans-serif" font-size="11" lengthAdjust="spacingAndGlyphs" textLength="114" x="385.5" y="179.6074">+ユーザー編集：edit()</text><text fill="#000000" font-family="sans-serif" font-size="11" lengthAdjust="spacingAndGlyphs" textLength="126" x="385.5" y="192.5625">+ユーザー削除：delete()</text><!--class BcAdminUserHelper--><polygon fill="#FEFECE" filter="url(#fx1bk4i)" points="566,343.1992,566,343.6988,576.0625,342.6662,586.125,342.6441,596.1875,343.3609,606.25,342.7669,616.3125,342.5915,626.375,342.4628,636.4375,343.0918,646.5,343.3651,656.5625,343.7931,666.625,343.3538,676.6875,343.1142,686.75,342.4496,696.8125,343.647,706.875,343.2309,716.9375,342.876,727,342.8502,737.0625,343.5128,747.125,343.9205,757.1875,343.5001,767.25,343.0065,777.3125,343.8016,787.375,343.6121,797.4375,342.5418,807.5,343.327,817.5625,342.9795,827.625,343.7337,837.6875,343.2367,847.75,343.596,857.8125,342.7807,867.875,343.4481,877.9375,342.6688,888,343.1992,887.9831,343.1992,887.9555,353.4162,888.229,363.6332,887.2863,373.8503,887.8243,384.0673,888.046,394.2843,888.4749,404.5013,887.5544,414.7183,887.2692,424.9353,888,435.1523,888,434.4341,877.9375,435.3258,867.875,435.233,857.8125,435.0146,847.75,434.6163,837.6875,434.6412,827.625,434.6704,817.5625,435.1975,807.5,434.7017,797.4375,434.8458,787.375,434.4937,777.3125,435.6833,767.25,435.8132,757.1875,435.8678,747.125,435.4538,737.0625,435.4332,727,435.8608,716.9375,434.6341,706.875,434.9167,696.8125,435.7275,686.75,435.0146,676.6875,435.0361,666.625,434.5491,656.5625,434.7751,646.5,434.6556,636.4375,435.4301,626.375,435.6401,616.3125,434.6527,606.25,435.8221,596.1875,434.812,586.125,434.4359,576.0625,435.5978,566,435.1523,566.4295,435.1523,565.5209,424.9353,565.5713,414.7183,566.1522,404.5013,566.0329,394.2843,565.9021,384.0673,565.8664,373.8503,566.7379,363.6332,566.6442,353.4162,566,343.1992" style="stroke: #A80036; stroke-width: 1.5;"/><text fill="#000000" font-family="sans-serif" font-size="12" lengthAdjust="spacingAndGlyphs" textLength="115" x="669.5" y="359.8008">BcAdminUserHelper</text><path d="M567,367.332 L567,366.4083 L577,366.5953 L587,367.2681 L597,367.2093 L607,367.2446 L617,366.845 L627,367.9958 L637,367.4343 L647,366.8056 L657,367.5002 L667,368.0326 L677,367.889 L687,366.4644 L697,367.1853 L707,366.5763 L717,368.1604 L727,367.0787 L737,368.0814 L747,368.1091 L757,367.9325 L767,367.3175 L777,367.3469 L787,366.5251 L797,367.2121 L807,367.1218 L817,366.9554 L827,366.7196 L837,367.0178 L847,366.4922 L857,367.1385 L867,368.117 L877,367.0599 L887,367.332 " fill="#FEFECE" style="stroke: #A80036; stroke-width: 1.5;"/><path d="M567,375.332 L567,376.16 L577,375.9714 L587,375.3239 L597,374.3809 L607,375.2551 L617,374.6776 L627,374.9883 L637,375.0587 L647,375.8177 L657,374.9493 L667,375.0323 L677,375.8914 L687,374.9359 L697,374.9979 L707,374.695 L717,374.4893 L727,374.4003 L737,375.1447 L747,375.2834 L757,374.3933 L767,375.0734 L777,375.5497 L787,376.1726 L797,374.7188 L807,374.6607 L817,376.1524 L827,374.4353 L837,375.3942 L847,375.2465 L857,376.0584 L867,375.4958 L877,375.3165 L887,375.332 " fill="#FEFECE" style="stroke: #A80036; stroke-width: 1.5;"/><text fill="#000000" font-family="sans-serif" font-size="11" lengthAdjust="spacingAndGlyphs" textLength="303" x="572" y="389.9668">+ログインユーザー自身の更新かどうか確認：isSelfUpdate()</text><text fill="#000000" font-family="sans-serif" font-size="11" lengthAdjust="spacingAndGlyphs" textLength="211" x="572" y="402.9219">+更新ができるかどうか確認：isEditable()</text><text fill="#000000" font-family="sans-serif" font-size="11" lengthAdjust="spacingAndGlyphs" textLength="218" x="572" y="415.877">+削除ができるかどうか確認：isDeletable()</text><text fill="#000000" font-family="sans-serif" font-size="11" lengthAdjust="spacingAndGlyphs" textLength="310" x="572" y="428.832">+ユーザーグループ選択用のリスト取得：getUserGroupList()</text><!--class UserService--><polygon fill="#FEFECE" filter="url(#fx1bk4i)" points="417,356.1992,417,355.8196,427.3636,355.5438,437.7273,355.5144,448.0909,356.4692,458.4545,356.0356,468.8182,356.4734,479.1818,355.8279,489.5455,355.546,499.9091,356.8167,510.2727,356.2124,520.6364,356.0261,531,356.1992,531.5173,356.1992,530.515,365.6339,531.5321,375.0686,530.7672,384.5033,531.1078,393.9381,531.3554,403.3728,531.0507,412.8075,531,422.2422,531,422.3739,520.6364,422.9772,510.2727,421.5041,499.9091,422.5595,489.5455,422.4284,479.1818,421.8623,468.8182,422.1999,458.4545,422.9152,448.0909,421.6567,437.7273,422.4685,427.3636,422.4968,417,422.2422,416.3641,422.2422,417.27,412.8075,416.3122,403.3728,417.652,393.9381,417.3245,384.5033,417.0649,375.0686,416.3229,365.6339,417,356.1992" style="stroke: #A80036; stroke-width: 1.5;"/><text fill="#000000" font-family="sans-serif" font-size="12" lengthAdjust="spacingAndGlyphs" textLength="66" x="441" y="372.8008">UserService</text><path d="M418,380.332 L418,380.516 L428.1818,379.9062 L438.3636,379.923 L448.5455,379.5199 L458.7273,379.7819 L468.9091,379.6968 L479.0909,380.2574 L489.2727,381.1066 L499.4545,380.4644 L509.6364,380.402 L519.8182,381.1538 L530,380.332 " fill="#FEFECE" style="stroke: #A80036; stroke-width: 1.5;"/><text fill="#000000" font-family="sans-serif" font-size="11" lengthAdjust="spacingAndGlyphs" textLength="69" x="423" y="394.9668">+UsersTable</text><text fill="#000000" font-family="sans-serif" font-size="11" lengthAdjust="spacingAndGlyphs" textLength="102" x="423" y="407.9219">+LoginStoresTable</text><path d="M418,414.2422 L418,414.1012 L428.1818,414.5112 L438.3636,414.266 L448.5455,414.23 L458.7273,413.4963 L468.9091,415.0143 L479.0909,414.2204 L489.2727,413.5075 L499.4545,414.3743 L509.6364,414.0346 L519.8182,414.621 L530,414.2422 " fill="#FEFECE" style="stroke: #A80036; stroke-width: 1.5;"/><!--class UserServiceInterface--><polygon fill="#FEFECE" filter="url(#fx1bk4i)" points="6,259.1992,6,259.8534,15.8947,259.6128,25.7895,259.0869,35.6842,259.8692,45.5789,259.9277,55.4737,259.1102,65.3684,258.682,75.2632,258.7297,85.1579,258.4606,95.0526,259.1878,104.9474,259.8165,114.8421,259.9246,124.7368,258.9875,134.6316,259.6878,144.5263,259.6501,154.4211,258.6829,164.3158,259.2604,174.2105,259.2676,184.1053,259.0684,194,259.7068,203.8947,259.7141,213.7895,258.6776,223.6842,258.515,233.5789,259.5695,243.4737,259.4996,253.3684,259.0778,263.2632,259.6373,273.1579,259.2122,283.0526,259.8157,292.9474,259.0627,302.8421,259.7701,312.7368,259.8236,322.6316,258.5215,332.5263,258.6114,342.4211,259.4202,352.3158,259.6362,362.2105,258.6525,372.1053,259.2508,382,259.1992,382.4838,259.1992,382.4808,269.2134,381.2967,279.2276,382.5995,289.2418,382.743,299.256,381.6204,309.2702,382.6024,319.2844,381.9554,329.2986,382.055,339.3128,382.2361,349.327,382.3198,359.3412,381.5182,369.3554,382.3187,379.3696,381.7276,389.3838,382.4563,399.398,382.4419,409.4122,381.6666,419.4264,382.0864,429.4406,381.7425,439.4548,382.0823,449.469,381.9896,459.4832,382.1271,469.4974,382.2795,479.5116,382.1523,489.5258,381.6267,499.54,382.5744,509.5542,382,519.5684,382,520.2846,372.1053,519.3433,362.2105,520.0763,352.3158,520.1382,342.4211,518.8389,332.5263,518.8885,322.6316,520.008,312.7368,518.8734,302.8421,519.6348,292.9474,519.1827,283.0526,519.3257,273.1579,519.9553,263.2632,518.8738,253.3684,519.907,243.4737,518.8251,233.5789,519.7794,223.6842,519.7977,213.7895,519.7359,203.8947,519.1966,194,519.62,184.1053,520.2273,174.2105,520.024,164.3158,519.156,154.4211,519.8473,144.5263,519.1827,134.6316,520.1195,124.7368,519.0603,114.8421,520.145,104.9474,520.1979,95.0526,519.6649,85.1579,519.5462,75.2632,518.835,65.3684,518.9469,55.4737,520.0522,45.5789,519.1071,35.6842,519.9103,25.7895,520.1844,15.8947,520.0113,6,519.5684,6.4821,519.5684,5.5723,509.5542,5.7236,499.54,6.579,489.5258,5.3752,479.5116,6.5751,469.4974,5.8188,459.4832,5.5191,449.469,5.3885,439.4548,6.5364,429.4406,6.4521,419.4264,6.1942,409.4122,5.3958,399.398,6.3279,389.3838,5.8668,379.3696,6.1629,369.3554,6.274,359.3412,6.0869,349.327,6.6447,339.3128,5.2744,329.2986,6.0731,319.2844,6.422,309.2702,5.2915,299.256,5.3837,289.2418,5.5959,279.2276,5.7581,269.2134,6,259.1992" style="stroke: #A80036; stroke-width: 1.5;"/><text fill="#000000" font-family="sans-serif" font-size="12" lengthAdjust="spacingAndGlyphs" textLength="116" x="136" y="275.8008">UserServiceInterface</text><path d="M7,283.332 L7,282.5912 L17.1081,283.0053 L27.2162,283.2428 L37.3243,282.6091 L47.4324,283.1969 L57.5405,283.6417 L67.6486,282.8652 L77.7568,282.9922 L87.8649,282.7429 L97.973,283.6168 L108.0811,283.478 L118.1892,284.1421 L128.2973,283.6121 L138.4054,283.2495 L148.5135,283.1305 L158.6216,283.6956 L168.7297,282.9514 L178.8378,282.7791 L188.9459,283.9889 L199.0541,282.7175 L209.1622,283.7002 L219.2703,284.2488 L229.3784,283.2035 L239.4865,282.9199 L249.5946,282.5802 L259.7027,283.1725 L269.8108,284.156 L279.9189,283.2529 L290.027,283.0398 L300.1351,284.0613 L310.2432,283.4786 L320.3514,283.7688 L330.4595,283.4856 L340.5676,283.9573 L350.6757,283.4108 L360.7838,284.3204 L370.8919,282.6516 L381,283.332 " fill="#FEFECE" style="stroke: #A80036; stroke-width: 1.5;"/><path d="M7,291.332 L7,290.8746 L17.1081,291.4278 L27.2162,291.0091 L37.3243,290.6675 L47.4324,291.4961 L57.5405,291.6256 L67.6486,292.331 L77.7568,292.2831 L87.8649,290.5985 L97.973,291.0882 L108.0811,291.6954 L118.1892,291.7887 L128.2973,291.5038 L138.4054,291.3913 L148.5135,291.4034 L158.6216,291.4475 L168.7297,290.3552 L178.8378,290.5107 L188.9459,291.2719 L199.0541,290.7074 L209.1622,291.2121 L219.2703,291.7064 L229.3784,290.8768 L239.4865,292.1138 L249.5946,291.8394 L259.7027,291.4452 L269.8108,291.8626 L279.9189,291.6741 L290.027,291.6333 L300.1351,292.1007 L310.2432,291.9299 L320.3514,290.447 L330.4595,291.3832 L340.5676,291.0346 L350.6757,290.9591 L360.7838,290.3406 L370.8919,291.5111 L381,291.332 " fill="#FEFECE" style="stroke: #A80036; stroke-width: 1.5;"/><text fill="#000000" font-family="sans-serif" font-size="11" lengthAdjust="spacingAndGlyphs" textLength="144" x="12" y="305.9668">+初期データ取得：getNew()</text><text fill="#000000" font-family="sans-serif" font-size="11" lengthAdjust="spacingAndGlyphs" textLength="83" x="12" y="318.9219">+作成：create()</text><text fill="#000000" font-family="sans-serif" font-size="11" lengthAdjust="spacingAndGlyphs" textLength="87" x="12" y="331.877">+編集：update()</text><text fill="#000000" font-family="sans-serif" font-size="11" lengthAdjust="spacingAndGlyphs" textLength="82" x="12" y="344.832">+削除：delete()</text><text fill="#000000" font-family="sans-serif" font-size="11" lengthAdjust="spacingAndGlyphs" textLength="122" x="12" y="357.7871">+単一データ取得：get()</text><text fill="#000000" font-family="sans-serif" font-size="11" lengthAdjust="spacingAndGlyphs" textLength="152" x="12" y="370.7422">+一覧データ取得：getIndex()</text><text fill="#000000" font-family="sans-serif" font-size="11" lengthAdjust="spacingAndGlyphs" textLength="119" x="12" y="383.6973">+リスト取得：getList()</text><text fill="#000000" font-family="sans-serif" font-size="11" lengthAdjust="spacingAndGlyphs" textLength="99" x="12" y="396.6523">+ログイン：login()</text><text fill="#000000" font-family="sans-serif" font-size="11" lengthAdjust="spacingAndGlyphs" textLength="118" x="12" y="409.6074">+ログアウト：logout()</text><text fill="#000000" font-family="sans-serif" font-size="11" lengthAdjust="spacingAndGlyphs" textLength="124" x="12" y="422.5625">+再ログイン：reLogin()</text><text fill="#000000" font-family="sans-serif" font-size="11" lengthAdjust="spacingAndGlyphs" textLength="200" x="12" y="435.5176">+代理ログインを行う：loginToAgent()</text><text fill="#000000" font-family="sans-serif" font-size="11" lengthAdjust="spacingAndGlyphs" textLength="364" x="12" y="448.4727">+代理ログインから元のユーザーに戻る：returnLoginUserFromAgent()</text><text fill="#000000" font-family="sans-serif" font-size="11" lengthAdjust="spacingAndGlyphs" textLength="285" x="12" y="461.4277">+認証用のセッションキーを取得：getAuthSessionKey()</text><text fill="#000000" font-family="sans-serif" font-size="11" lengthAdjust="spacingAndGlyphs" textLength="266" x="12" y="474.3828">+ログインキーをセット：setCookieAutoLoginKey()</text><text fill="#000000" font-family="sans-serif" font-size="11" lengthAdjust="spacingAndGlyphs" textLength="238" x="12" y="487.3379">+ログインキーを削除する：removeLoginKey()</text><text fill="#000000" font-family="sans-serif" font-size="11" lengthAdjust="spacingAndGlyphs" textLength="236" x="12" y="500.293">+ログイン状態の保存確認：checkAutoLogin()</text><text fill="#000000" font-family="sans-serif" font-size="11" lengthAdjust="spacingAndGlyphs" textLength="205" x="12" y="513.248">+ログイン情報をリロードする：reload()</text><!--class UsersTable--><polygon fill="#FEFECE" filter="url(#fx1bk4i)" points="274,579.1992,274,579.4889,284,579.9006,294,578.5731,304,578.9972,314,578.7937,324,579.8651,334,579.1215,344,579.7314,354,579.2365,364,579.199,374,579.8767,384,578.7117,394,579.423,404,579.3913,414,578.8053,424,578.9157,434,579.821,444,579.7061,454,579.5768,464,579.6777,474,579.1234,484,579.2828,494,578.8208,504,579.7254,514,579.3045,524,579.905,534,579.3994,544,579.5705,554,579.3268,564,578.9459,574,579.7492,584,579.4565,594,579.1214,604,579.52,614,578.5179,624,578.9175,634,579.2679,644,578.6689,654,579.7849,664,579.3635,674,579.1992,674.5483,579.1992,674.2678,588.6339,673.9092,598.0686,674.2886,607.5033,674.5291,616.9381,674.0557,626.3728,673.2844,635.8075,674,645.2422,674,645.7304,664,645.1122,654,645.8463,644,645.0796,634,644.6417,624,645.64,614,644.605,604,644.941,594,645.8166,584,644.7613,574,645.8153,564,645.7641,554,645.5115,544,644.6214,534,644.651,524,645.2566,514,644.5137,504,645.3103,494,645.2062,484,645.8931,474,644.9073,464,645.547,454,645.0652,444,645.1635,434,644.666,424,645.3444,414,645.8762,404,645.2913,394,645.9674,384,644.8679,374,644.7978,364,645.3245,354,645.6408,344,645.5524,334,645.9046,324,645.3617,314,644.699,304,644.5367,294,645.1175,284,644.9276,274,645.2422,273.711,645.2422,273.8636,635.8075,274.2313,626.3728,274.4089,616.9381,273.5363,607.5033,273.3643,598.0686,273.8147,588.6339,274,579.1992" style="stroke: #A80036; stroke-width: 1.5;"/><text fill="#000000" font-family="sans-serif" font-size="12" lengthAdjust="spacingAndGlyphs" textLength="65" x="441.5" y="595.8008">UsersTable</text><path d="M275,603.332 L275,602.92 L284.95,603.9154 L294.9,603.9647 L304.85,603.9409 L314.8,602.6261 L324.75,603.5503 L334.7,602.3457 L344.65,603.7941 L354.6,602.6783 L364.55,602.9738 L374.5,603.5341 L384.45,603.3484 L394.4,603.7632 L404.35,603.7976 L414.3,602.4051 L424.25,603.5978 L434.2,603.2968 L444.15,602.5046 L454.1,603.7254 L464.05,603.3577 L474,602.5735 L483.95,602.8416 L493.9,602.9327 L503.85,603.7909 L513.8,602.7795 L523.75,602.6205 L533.7,603.1987 L543.65,603.7261 L553.6,604.3316 L563.55,603.814 L573.5,603.0667 L583.45,602.4154 L593.4,604.2107 L603.35,603.7763 L613.3,603.0108 L623.25,602.9156 L633.2,603.3569 L643.15,603.0484 L653.1,603.4992 L663.05,603.5023 L673,603.332 " fill="#FEFECE" style="stroke: #A80036; stroke-width: 1.5;"/><path d="M275,611.332 L275,610.7775 L284.95,611.5282 L294.9,611.5764 L304.85,610.4371 L314.8,610.7891 L324.75,611.7888 L334.7,611.5925 L344.65,611.0091 L354.6,610.7748 L364.55,612.0253 L374.5,610.5085 L384.45,611.0583 L394.4,610.9853 L404.35,611.4862 L414.3,611.2009 L424.25,612.1632 L434.2,611.2431 L444.15,612.3205 L454.1,610.3634 L464.05,610.3366 L474,611.9356 L483.95,611.5197 L493.9,610.9693 L503.85,610.4241 L513.8,610.3865 L523.75,611.0856 L533.7,610.8125 L543.65,610.4367 L553.6,610.596 L563.55,611.6775 L573.5,610.3835 L583.45,611.7726 L593.4,610.4205 L603.35,610.8175 L613.3,611.2645 L623.25,610.696 L633.2,611.5374 L643.15,611.2341 L653.1,610.3456 L663.05,611.5412 L673,611.332 " fill="#FEFECE" style="stroke: #A80036; stroke-width: 1.5;"/><text fill="#000000" font-family="sans-serif" font-size="11" lengthAdjust="spacingAndGlyphs" textLength="251" x="280" y="625.9668">+利用可能なユーザーを取得する：findAvailable()</text><text fill="#000000" font-family="sans-serif" font-size="11" lengthAdjust="spacingAndGlyphs" textLength="388" x="280" y="638.9219">+ユーザーが許可されている認証プレフィックスを取得する：getAuthPrefix()</text><!--class User--><polygon fill="#FEFECE" filter="url(#fx1bk4i)" points="328.5,705.1992,328.5,705.6976,338.5345,705.7901,348.569,705.2966,358.6034,704.872,368.6379,704.8066,378.6724,705.6696,388.7069,704.6108,398.7414,704.5698,408.7759,704.8399,418.8103,705.8119,428.8448,705.0062,438.8793,704.7268,448.9138,704.5089,458.9483,705.6216,468.9828,705.2619,479.0172,704.4724,489.0517,704.8303,499.0862,704.8047,509.1207,704.8113,519.1552,705.8766,529.1897,705.9171,539.2241,705.8786,549.2586,705.6261,559.2931,704.6293,569.3276,704.9266,579.3621,705.5245,589.3966,705.0221,599.431,705.872,609.4655,705.8656,619.5,705.1992,619.369,705.1992,619.9177,715.1806,619.4931,725.162,619.722,735.1434,619.1934,745.1248,619.82,755.1062,619.8082,765.0875,619.6457,775.0689,619.9217,785.0503,619.6244,795.0317,619.8438,805.0131,618.9713,814.9945,618.7629,824.9759,619.9188,834.9573,619.1639,844.9386,619.985,854.92,619.9775,864.9014,619.5,874.8828,619.5,874.6689,609.4655,875.0975,599.431,874.7835,589.3966,874.8856,579.3621,875.576,569.3276,875.0111,559.2931,874.4968,549.2586,875.2603,539.2241,874.6038,529.1897,874.9559,519.1552,875.1054,509.1207,875.0992,499.0862,874.1616,489.0517,875.6281,479.0172,875.5854,468.9828,874.5012,458.9483,874.1714,448.9138,875.0582,438.8793,875.1107,428.8448,874.9156,418.8103,875.1796,408.7759,874.2409,398.7414,874.9833,388.7069,875.155,378.6724,874.4753,368.6379,875.2072,358.6034,875.5206,348.569,875.4184,338.5345,875.55,328.5,874.8828,328.1446,874.8828,329.1288,864.9014,327.9964,854.92,327.7515,844.9386,328.9877,834.9573,328.1267,824.9759,328.7188,814.9945,329.2024,805.0131,327.7659,795.0317,328.3939,785.0503,328.3887,775.0689,329.1958,765.0875,329.0622,755.1062,327.7529,745.1248,328.5838,735.1434,328.0002,725.162,328.4722,715.1806,328.5,705.1992" style="stroke: #A80036; stroke-width: 1.5;"/><text fill="#000000" font-family="sans-serif" font-size="12" lengthAdjust="spacingAndGlyphs" textLength="26" x="461" y="721.8008">User</text><path d="M329.5,729.332 L329.5,729.8987 L339.4655,729.4146 L349.431,730.0883 L359.3966,729.586 L369.3621,729.5436 L379.3276,729.0887 L389.2931,729.7032 L399.2586,730.1839 L409.2241,728.7432 L419.1897,728.5863 L429.1552,729.9049 L439.1207,730.2171 L449.0862,729.3663 L459.0517,729.4858 L469.0172,728.5559 L478.9828,729.0999 L488.9483,730.1538 L498.9138,729.2105 L508.8793,729.4902 L518.8448,729.4247 L528.8103,729.8607 L538.7759,729.785 L548.7414,729.4756 L558.7069,728.7772 L568.6724,728.7405 L578.6379,729.4079 L588.6034,729.5797 L598.569,728.6203 L608.5345,730.1323 L618.5,729.332 " fill="#FEFECE" style="stroke: #A80036; stroke-width: 1.5;"/><text fill="#000000" font-family="sans-serif" font-size="11" lengthAdjust="spacingAndGlyphs" textLength="115" x="334.5" y="743.9668">+アカウント名：name</text><text fill="#000000" font-family="sans-serif" font-size="11" lengthAdjust="spacingAndGlyphs" textLength="127" x="334.5" y="756.9219">+パスワード：password</text><text fill="#000000" font-family="sans-serif" font-size="11" lengthAdjust="spacingAndGlyphs" textLength="99" x="334.5" y="769.877">+性：real_name_1</text><text fill="#000000" font-family="sans-serif" font-size="11" lengthAdjust="spacingAndGlyphs" textLength="99" x="334.5" y="782.832">+名：real_name_2</text><text fill="#000000" font-family="sans-serif" font-size="11" lengthAdjust="spacingAndGlyphs" textLength="125" x="334.5" y="795.7871">+メールアドレス：email</text><text fill="#000000" font-family="sans-serif" font-size="11" lengthAdjust="spacingAndGlyphs" textLength="137" x="334.5" y="808.7422">+ニックネーム：nickname</text><text fill="#000000" font-family="sans-serif" font-size="11" lengthAdjust="spacingAndGlyphs" textLength="93" x="334.5" y="821.6973">+登録日：created</text><text fill="#000000" font-family="sans-serif" font-size="11" lengthAdjust="spacingAndGlyphs" textLength="100" x="334.5" y="834.6523">+編集日：modified</text><path d="M329.5,840.9727 L329.5,840.742 L339.4655,840.4515 L349.431,841.4397 L359.3966,840.8226 L369.3621,840.8507 L379.3276,841.6638 L389.2931,840.9652 L399.2586,841.828 L409.2241,841.3503 L419.1897,840.0148 L429.1552,841.5167 L439.1207,841.3451 L449.0862,841.8091 L459.0517,840.7574 L469.0172,841.5813 L478.9828,841.0272 L488.9483,841.4172 L498.9138,841.8233 L508.8793,840.3078 L518.8448,840.1878 L528.8103,840.7464 L538.7759,841.5227 L548.7414,841.0045 L558.7069,841.2891 L568.6724,840.8566 L578.6379,840.7346 L588.6034,840.7459 L598.569,841.9553 L608.5345,839.987 L618.5,840.9727 " fill="#FEFECE" style="stroke: #A80036; stroke-width: 1.5;"/><text fill="#000000" font-family="sans-serif" font-size="11" lengthAdjust="spacingAndGlyphs" textLength="226" x="334.5" y="855.6074">+管理ユーザーかどうか判定する：isAdmin()</text><text fill="#000000" font-family="sans-serif" font-size="11" lengthAdjust="spacingAndGlyphs" textLength="279" x="334.5" y="868.5625">+整形されたユーザー名を取得する：getDisplayName()</text><path d="M474,199.3392 L473.2334,199.3392 L473.8059,209.4399 L473.7174,219.5406 L474.4216,229.6412 L474.0298,239.7419 L474.3556,249.8426 L473.2814,259.9432 L474.9304,270.0439 L474.7982,280.1446 L474.0379,290.2452 L473.6394,300.3459 L474.4555,310.4466 L473.3022,320.5472 L474.3608,330.6479 L473.5392,340.7486 L474,350.8492 " fill="none" style="stroke: #000000; stroke-width: 1.0;"/><polygon fill="#000000" points="474,355.9392,474.0313,355.9531,474.728,354.1072,475.5504,352.3172,476.4254,350.5505,477.3819,348.8201,478,346.9392,477.8384,346.7776,477.1033,347.6425,476.2951,348.4343,475.6312,349.3704,474.7312,350.0704,474,350.9392,474.0189,350.9581,473.1105,350.0498,472.5551,349.4943,471.6353,348.5746,470.9119,347.8511,470,346.9392,469.9171,346.9024,470.5766,348.6399,471.5278,350.5071,472.2956,352.2928,473.2357,354.1551,474,355.9392" style="stroke: #000000; stroke-width: 1.0;"/><path d="M536.43,389.1992 L536.43,389.3705 L542.288,388.9471 L548.146,389.5325 L554.004,389.1483 L559.862,388.947 L565.72,389.1992 " fill="none" style="stroke: #000000; stroke-width: 1.0;"/><polygon fill="#000000" points="531.32,389.1992,531.2798,389.1088,533.0334,389.8044,534.8482,390.6377,536.7003,391.5548,538.4793,392.3077,540.32,393.1992,540.3698,393.249,539.3522,392.2314,538.749,391.6282,537.9599,390.8391,537.0971,389.9763,536.32,389.1992,536.2364,389.1156,536.9896,388.2688,537.9193,387.5985,538.8255,386.9047,539.5859,386.0651,540.32,385.1992,540.4065,385.3938,538.444,385.8283,536.7655,386.9016,534.8646,387.4745,533.0934,388.3393,531.32,389.1992" style="stroke: #000000; stroke-width: 1.0;"/><path d="M474,422.3392 L473.1572,422.3392 L474.4074,432.4486 L474.8305,442.5579 L474.2729,452.6672 L473.3392,462.7766 L473.5335,472.8859 L473.7688,482.9952 L473.2658,493.1046 L474.5529,503.2139 L473.1259,513.3232 L474.5934,523.4326 L474.4499,533.5419 L473.3833,543.6512 L473.268,553.7606 L474.1244,563.8699 L474,573.9792 " fill="none" style="stroke: #000000; stroke-width: 1.0;"/><polygon fill="#000000" points="474,579.0292,473.8574,578.9659,474.9793,577.3089,475.6763,575.4631,476.3105,573.5894,477.1904,571.825,478,570.0292,477.8685,569.8977,477.0256,570.6548,476.29,571.5192,475.7726,572.6019,474.9103,573.3395,474,574.0292,473.8369,573.8661,473.3761,573.4054,472.5053,572.5345,471.5601,571.5893,470.7028,570.732,470,570.0292,469.8541,569.9644,470.6621,571.7679,471.4229,573.5505,472.4448,575.4491,473.2266,577.2411,474,579.0292" style="stroke: #000000; stroke-width: 1.0;"/><path d="M402.25,389.1992 L402.25,389.0535 L405.188,388.9214 L408.126,389.4502 L411.064,389.1451 L414.002,389.0869 L416.94,389.1992 " fill="none" style="stroke: #000000; stroke-width: 1.0; stroke-dasharray: 1.0,3.0;"/><polygon fill="none" points="402.13,396.1992,402.0921,396.0908,398.1404,394.8346,394.1008,393.3272,390.2057,392.2329,386.1895,390.7922,382.12,389.1992,382.1248,389.213,386.1018,387.7471,390.1704,386.5432,394.1583,385.1087,398.145,383.6706,402.12,382.1992,402.3492,382.1994,402.1584,384.9992,402.2638,387.7993,402.3589,390.5994,402.0338,393.3992,402.13,396.1992" style="stroke: #000000; stroke-width: 1.0;"/><path d="M474,645.4792 L473.8978,645.4792 L474.7116,656.3032 L473.1242,667.1272 L473.8857,677.9512 L473.161,688.7752 L474,699.5992 " fill="none" style="stroke: #000000; stroke-width: 1.0;"/><polygon fill="#000000" points="474,705.0692,473.8362,704.9964,474.5809,703.1718,475.7496,701.5357,476.292,699.6212,477.4247,697.9691,478,696.0692,478.048,696.1172,477.2598,696.929,476.5082,697.7774,475.6263,698.4955,474.7581,699.2273,474,700.0692,473.8513,699.9205,473.3672,699.4364,472.4734,698.5426,471.4251,697.4944,470.6271,696.6963,470,696.0692,470.1803,696.1493,470.6083,697.784,471.8081,699.7617,472.5128,701.5194,473.2722,703.3013,474,705.0692" style="stroke: #000000; stroke-width: 1.0;"/></g></svg>