<?xml version="1.0" encoding="UTF-8" standalone="no"?><svg xmlns="http://www.w3.org/2000/svg" xmlns:xlink="http://www.w3.org/1999/xlink" contentScriptType="application/ecmascript" contentStyleType="text/css" height="884px" preserveAspectRatio="none" style="width:897px;height:884px;" version="1.1" viewBox="0 0 897 884" width="897px" zoomAndPan="magnify"><defs><filter height="300%" id="fsaem9f" width="300%" x="-1" y="-1"><feGaussianBlur result="blurOut" stdDeviation="2.0"/><feColorMatrix in="blurOut" result="blurOut2" type="matrix" values="0 0 0 0 0 0 0 0 0 0 0 0 0 0 0 0 0 0 .4 0"/><feOffset dx="4.0" dy="4.0" in="blurOut2" result="blurOut3"/><feBlend in="SourceGraphic" in2="blurOut3" mode="normal"/></filter></defs><g><text fill="#000000" font-family="sans-serif" font-size="18" lengthAdjust="spacingAndGlyphs" textLength="108" x="399" y="17.4023">ユーザー管理</text><!--class Admin\UsersController--><polygon fill="#FEFECE" filter="url(#fsaem9f)" points="379.5,29.1992,379.5,29.5221,389.4474,29.4699,399.3947,29.844,409.3421,28.5591,419.2895,28.8228,429.2368,28.8737,439.1842,28.4645,449.1316,29.6117,459.0789,29.0876,469.0263,29.6467,478.9737,29.3419,488.9211,29.7553,498.8684,28.4864,508.8158,29.5508,518.7632,29.4704,528.7105,28.494,538.6579,28.465,548.6053,29.4362,558.5526,29.3002,568.5,29.1992,568.4155,29.1992,568.0546,39.1806,567.9429,49.162,567.8525,59.1434,568.6684,69.1248,569.1155,79.1062,567.8324,89.0875,568.4016,99.0689,568.6869,109.0503,568.5656,119.0317,567.9104,129.0131,568.2814,138.9945,569.1732,148.9759,568.4625,158.9573,568.9845,168.9386,568.6739,178.92,567.9187,188.9014,568.5,198.8828,568.5,198.6519,558.5526,198.9243,548.6053,198.8006,538.6579,199.6178,528.7105,199.2,518.7632,198.3116,508.8158,198.4273,498.8684,199.2084,488.9211,198.5598,478.9737,198.4325,469.0263,199.5444,459.0789,198.9185,449.1316,198.3843,439.1842,199.4865,429.2368,199.029,419.2895,198.1652,409.3421,198.5374,399.3947,198.3137,389.4474,198.9574,379.5,198.8828,379.7793,198.8828,379.7514,188.9014,379.7447,178.92,379.1126,168.9386,379.4395,158.9573,380.1357,148.9759,378.9744,138.9945,380.2122,129.0131,379.5621,119.0317,379.2951,109.0503,379.069,99.0689,378.914,89.0875,379.5799,79.1062,378.7682,69.1248,379.9557,59.1434,378.8324,49.162,379.2767,39.1806,379.5,29.1992" style="stroke: #A80036; stroke-width: 1.5;"/><text fill="#000000" font-family="sans-serif" font-size="12" lengthAdjust="spacingAndGlyphs" textLength="131" x="408.5" y="45.8008">Admin\UsersController</text><path d="M380.5,53.332 L380.5,52.9677 L390.3421,52.516 L400.1842,54.0138 L410.0263,53.9452 L419.8684,54.1706 L429.7105,53.5444 L439.5526,53.6932 L449.3947,54.1432 L459.2368,53.4989 L469.0789,54.1462 L478.9211,53.9088 L488.7632,53.3396 L498.6053,52.3504 L508.4474,52.677 L518.2895,53.8664 L528.1316,52.4033 L537.9737,53.3167 L547.8158,53.632 L557.6579,52.6656 L567.5,53.332 " fill="#FEFECE" style="stroke: #A80036; stroke-width: 1.5;"/><text fill="#000000" font-family="sans-serif" font-size="11" lengthAdjust="spacingAndGlyphs" textLength="151" x="385.5" y="67.9668">+AuthenticationComponent</text><text fill="#000000" font-family="sans-serif" font-size="11" lengthAdjust="spacingAndGlyphs" textLength="130" x="385.5" y="80.9219">+BcMessageComponent</text><path d="M380.5,87.2422 L380.5,87.0513 L390.3421,87.1636 L400.1842,88.1811 L410.0263,86.8635 L419.8684,86.6004 L429.7105,87.4857 L439.5526,87.8714 L449.3947,86.6584 L459.2368,86.4127 L469.0789,88.0763 L478.9211,87.0971 L488.7632,86.8492 L498.6053,87.4836 L508.4474,87.542 L518.2895,87.9728 L528.1316,88.1848 L537.9737,87.0839 L547.8158,86.3215 L557.6579,87.9261 L567.5,87.2422 " fill="#FEFECE" style="stroke: #A80036; stroke-width: 1.5;"/><text fill="#000000" font-family="sans-serif" font-size="11" lengthAdjust="spacingAndGlyphs" textLength="99" x="385.5" y="101.877">+ログイン：login()</text><text fill="#000000" font-family="sans-serif" font-size="11" lengthAdjust="spacingAndGlyphs" textLength="157" x="385.5" y="114.832">+代理ログイン：login_agent()</text><text fill="#000000" font-family="sans-serif" font-size="11" lengthAdjust="spacingAndGlyphs" textLength="177" x="385.5" y="127.7871">+代理ログイン解除：back_agent()</text><text fill="#000000" font-family="sans-serif" font-size="11" lengthAdjust="spacingAndGlyphs" textLength="118" x="385.5" y="140.7422">+ログアウト：logout()</text><text fill="#000000" font-family="sans-serif" font-size="11" lengthAdjust="spacingAndGlyphs" textLength="157" x="385.5" y="153.6973">+ユーザー一覧を表示：index()</text><text fill="#000000" font-family="sans-serif" font-size="11" lengthAdjust="spacingAndGlyphs" textLength="136" x="385.5" y="166.6523">+ユーザー新規追加：add()</text><text fill="#000000" font-family="sans-serif" font-size="11" lengthAdjust="spacingAndGlyphs" textLength="114" x="385.5" y="179.6074">+ユーザー編集：edit()</text><text fill="#000000" font-family="sans-serif" font-size="11" lengthAdjust="spacingAndGlyphs" textLength="126" x="385.5" y="192.5625">+ユーザー削除：delete()</text><!--class BcAdminUserHelper--><polygon fill="#FEFECE" filter="url(#fsaem9f)" points="566,343.1992,566,342.507,576.0625,343.6154,586.125,342.551,596.1875,342.9996,606.25,342.763,616.3125,343.1304,626.375,343.6581,636.4375,342.8201,646.5,342.5654,656.5625,343.425,666.625,343.1406,676.6875,343.7022,686.75,343.1174,696.8125,343.4212,706.875,342.661,716.9375,342.7424,727,343.817,737.0625,342.9214,747.125,343.6877,757.1875,342.6236,767.25,342.6953,777.3125,342.8502,787.375,342.7857,797.4375,342.6369,807.5,342.5902,817.5625,342.5494,827.625,342.6543,837.6875,343.7268,847.75,343.5936,857.8125,343.0283,867.875,343.2843,877.9375,343.5786,888,343.1992,887.7961,343.1992,888.154,353.4162,887.4423,363.6332,887.7639,373.8503,888.2623,384.0673,888.3989,394.2843,888.2028,404.5013,888.2563,414.7183,887.329,424.9353,888,435.1523,888,434.9219,877.9375,434.4099,867.875,435.7,857.8125,435.6136,847.75,435.3063,837.6875,435.629,827.625,434.5301,817.5625,435.5786,807.5,435.6035,797.4375,435.2253,787.375,434.779,777.3125,434.7098,767.25,435.7311,757.1875,435.4864,747.125,434.9679,737.0625,434.7916,727,435.2131,716.9375,435.6497,706.875,434.8368,696.8125,435.2779,686.75,435.7062,676.6875,434.7785,666.625,435.7858,656.5625,435.3705,646.5,434.7326,636.4375,435.1631,626.375,434.7909,616.3125,434.6186,606.25,435.7462,596.1875,434.5073,586.125,434.9284,576.0625,435.6731,566,435.1523,566.325,435.1523,565.831,424.9353,566.2217,414.7183,566.4673,404.5013,566.1142,394.2843,565.4799,384.0673,565.5203,373.8503,566.2889,363.6332,565.6681,353.4162,566,343.1992" style="stroke: #A80036; stroke-width: 1.5;"/><text fill="#000000" font-family="sans-serif" font-size="12" lengthAdjust="spacingAndGlyphs" textLength="115" x="669.5" y="359.8008">BcAdminUserHelper</text><path d="M567,367.332 L567,367.8811 L577,368.0777 L587,367.9465 L597,366.4588 L607,367.7488 L617,367.351 L627,367.9408 L637,366.9381 L647,367.8573 L657,367.4407 L667,366.7403 L677,368.1796 L687,367.5135 L697,366.7349 L707,367.708 L717,366.5505 L727,367.2739 L737,367.6414 L747,368.0654 L757,368.0259 L767,366.4072 L777,367.8176 L787,366.9584 L797,368.0014 L807,368.1856 L817,367.414 L827,368.1918 L837,366.7158 L847,366.9621 L857,367.755 L867,366.7629 L877,366.9707 L887,367.332 " fill="#FEFECE" style="stroke: #A80036; stroke-width: 1.5;"/><path d="M567,375.332 L567,374.4548 L577,375.8907 L587,375.7684 L597,374.5655 L607,375.5653 L617,375.4074 L627,376.1229 L637,375.5377 L647,374.3995 L657,374.7718 L667,375.8465 L677,375.9035 L687,374.939 L697,376.3111 L707,374.4194 L717,375.1405 L727,376.0266 L737,375.6928 L747,374.8931 L757,376.1359 L767,374.985 L777,375.4715 L787,376.0668 L797,375.7437 L807,376.2809 L817,374.908 L827,375.0996 L837,375.4519 L847,375.1708 L857,375.8406 L867,375.4274 L877,374.9554 L887,375.332 " fill="#FEFECE" style="stroke: #A80036; stroke-width: 1.5;"/><text fill="#000000" font-family="sans-serif" font-size="11" lengthAdjust="spacingAndGlyphs" textLength="303" x="572" y="389.9668">+ログインユーザー自身の更新かどうか確認：isSelfUpdate()</text><text fill="#000000" font-family="sans-serif" font-size="11" lengthAdjust="spacingAndGlyphs" textLength="211" x="572" y="402.9219">+更新ができるかどうか確認：isEditable()</text><text fill="#000000" font-family="sans-serif" font-size="11" lengthAdjust="spacingAndGlyphs" textLength="218" x="572" y="415.877">+削除ができるかどうか確認：isDeletable()</text><text fill="#000000" font-family="sans-serif" font-size="11" lengthAdjust="spacingAndGlyphs" textLength="310" x="572" y="428.832">+ユーザーグループ選択用のリスト取得：getUserGroupList()</text><!--class UserService--><polygon fill="#FEFECE" filter="url(#fsaem9f)" points="417,356.1992,417,356.1299,427.3636,355.8793,437.7273,356.5421,448.0909,355.6977,458.4545,356.0544,468.8182,356.5873,479.1818,356.3541,489.5455,355.4535,499.9091,356.4611,510.2727,356.7548,520.6364,356.1221,531,356.1992,531.629,356.1992,531.29,365.6339,530.6465,375.0686,531.2836,384.5033,531.2387,393.9381,531.4704,403.3728,530.7727,412.8075,531,422.2422,531,422.482,520.6364,421.6528,510.2727,422.7574,499.9091,421.9254,489.5455,421.6526,479.1818,422.1969,468.8182,422.4507,458.4545,422.5485,448.0909,422.5844,437.7273,421.7888,427.3636,422.581,417,422.2422,416.4506,422.2422,416.3323,412.8075,416.4049,403.3728,416.4697,393.9381,416.7799,384.5033,416.5427,375.0686,416.9867,365.6339,417,356.1992" style="stroke: #A80036; stroke-width: 1.5;"/><text fill="#000000" font-family="sans-serif" font-size="12" lengthAdjust="spacingAndGlyphs" textLength="66" x="441" y="372.8008">UserService</text><path d="M418,380.332 L418,380.6879 L428.1818,379.5204 L438.3636,380.1183 L448.5455,380.2471 L458.7273,379.8154 L468.9091,380.6555 L479.0909,379.3644 L489.2727,380.9585 L499.4545,380.7544 L509.6364,380.0564 L519.8182,380.2412 L530,380.332 " fill="#FEFECE" style="stroke: #A80036; stroke-width: 1.5;"/><text fill="#000000" font-family="sans-serif" font-size="11" lengthAdjust="spacingAndGlyphs" textLength="69" x="423" y="394.9668">+UsersTable</text><text fill="#000000" font-family="sans-serif" font-size="11" lengthAdjust="spacingAndGlyphs" textLength="102" x="423" y="407.9219">+LoginStoresTable</text><path d="M418,414.2422 L418,413.9664 L428.1818,414.1124 L438.3636,414.3057 L448.5455,414.2663 L458.7273,414.2526 L468.9091,414.4825 L479.0909,413.8605 L489.2727,413.5938 L499.4545,413.9474 L509.6364,413.7669 L519.8182,413.4698 L530,414.2422 " fill="#FEFECE" style="stroke: #A80036; stroke-width: 1.5;"/><!--class UserServiceInterface--><polygon fill="#FEFECE" filter="url(#fsaem9f)" points="6,259.1992,6,258.7291,15.8947,259.5014,25.7895,259.3216,35.6842,258.5693,45.5789,259.3143,55.4737,259.033,65.3684,259.7948,75.2632,259.1296,85.1579,258.9186,95.0526,259.4147,104.9474,259.3244,114.8421,258.7238,124.7368,258.9991,134.6316,258.6593,144.5263,258.7024,154.4211,259.3986,164.3158,259.86,174.2105,259.2384,184.1053,259.61,194,259.2118,203.8947,258.7536,213.7895,258.7497,223.6842,259.8784,233.5789,259.5182,243.4737,259.5375,253.3684,258.628,263.2632,259.304,273.1579,259.8894,283.0526,259.7705,292.9474,259.0025,302.8421,259.4171,312.7368,259.2534,322.6316,259.5538,332.5263,258.6989,342.4211,258.6227,352.3158,259.3998,362.2105,259.1709,372.1053,259.7278,382,259.1992,381.5343,259.1992,381.5539,269.2134,381.4568,279.2276,381.7028,289.2418,381.8951,299.256,381.5864,309.2702,381.6288,319.2844,381.2792,329.2986,382.5511,339.3128,382.4017,349.327,381.8566,359.3412,382.7241,369.3554,381.7506,379.3696,381.3962,389.3838,382.3865,399.398,381.3619,409.4122,382.4825,419.4264,381.973,429.4406,381.9501,439.4548,382.278,449.469,382.7419,459.4832,381.5628,469.4974,382.0872,479.5116,382.4108,489.5258,381.2842,499.54,382.1835,509.5542,382,519.5684,382,520.2336,372.1053,519.3559,362.2105,519.8432,352.3158,520.0196,342.4211,519.5194,332.5263,518.8973,322.6316,519.0387,312.7368,519.9125,302.8421,519.3572,292.9474,520.1393,283.0526,518.9323,273.1579,519.6728,263.2632,519.0408,253.3684,519.1001,243.4737,519.6848,233.5789,520.0279,223.6842,518.8229,213.7895,518.8481,203.8947,519.1148,194,519.9036,184.1053,519.692,174.2105,520.1143,164.3158,519.5663,154.4211,520.0008,144.5263,520.0608,134.6316,519.0238,124.7368,520.0811,114.8421,519.0088,104.9474,519.8519,95.0526,519.2169,85.1579,520.0032,75.2632,519.3308,65.3684,519.6393,55.4737,519.7693,45.5789,518.9087,35.6842,519.5059,25.7895,518.9987,15.8947,518.9185,6,519.5684,5.5417,519.5684,6.4524,509.5542,6.4829,499.54,6.5849,489.5258,5.3393,479.5116,5.3501,469.4974,5.2663,459.4832,6.656,449.469,6.7025,439.4548,6.4597,429.4406,5.5558,419.4264,5.5231,409.4122,6.1448,399.398,6.6903,389.3838,5.5638,379.3696,6.6604,369.3554,6.7211,359.3412,6.6549,349.327,5.5886,339.3128,6.5062,329.2986,6.3169,319.2844,5.4165,309.2702,5.65,299.256,6.6562,289.2418,6.716,279.2276,5.8774,269.2134,6,259.1992" style="stroke: #A80036; stroke-width: 1.5;"/><text fill="#000000" font-family="sans-serif" font-size="12" lengthAdjust="spacingAndGlyphs" textLength="116" x="136" y="275.8008">UserServiceInterface</text><path d="M7,283.332 L7,283.9236 L17.1081,283.5563 L27.2162,283.1071 L37.3243,282.3511 L47.4324,282.7593 L57.5405,284.0879 L67.6486,283.2782 L77.7568,283.7302 L87.8649,283.9304 L97.973,282.4174 L108.0811,283.294 L118.1892,282.6348 L128.2973,284.1288 L138.4054,283.5071 L148.5135,283.3085 L158.6216,283.2423 L168.7297,283.4456 L178.8378,282.8674 L188.9459,282.3414 L199.0541,284.1149 L209.1622,283.1662 L219.2703,283.1979 L229.3784,282.5185 L239.4865,283.0073 L249.5946,283.4229 L259.7027,283.4602 L269.8108,283.5555 L279.9189,284.0271 L290.027,284.1558 L300.1351,284.291 L310.2432,283.2855 L320.3514,283.3674 L330.4595,283.3932 L340.5676,283.5213 L350.6757,284.0624 L360.7838,283.9098 L370.8919,283.8604 L381,283.332 " fill="#FEFECE" style="stroke: #A80036; stroke-width: 1.5;"/><path d="M7,291.332 L7,291.3631 L17.1081,290.3359 L27.2162,292.008 L37.3243,290.3617 L47.4324,290.559 L57.5405,291.601 L67.6486,291.7135 L77.7568,292.254 L87.8649,290.4569 L97.973,291.2642 L108.0811,290.5928 L118.1892,291.6395 L128.2973,291.5815 L138.4054,291.7501 L148.5135,291.1146 L158.6216,290.6544 L168.7297,290.8191 L178.8378,291.3874 L188.9459,290.3455 L199.0541,290.4158 L209.1622,290.8139 L219.2703,291.268 L229.3784,290.3962 L239.4865,291.811 L249.5946,290.5945 L259.7027,290.3653 L269.8108,290.6983 L279.9189,290.3753 L290.027,291.8063 L300.1351,290.7256 L310.2432,290.7672 L320.3514,292.0021 L330.4595,292.2211 L340.5676,291.5157 L350.6757,290.6222 L360.7838,291.1639 L370.8919,291.4261 L381,291.332 " fill="#FEFECE" style="stroke: #A80036; stroke-width: 1.5;"/><text fill="#000000" font-family="sans-serif" font-size="11" lengthAdjust="spacingAndGlyphs" textLength="144" x="12" y="305.9668">+初期データ取得：getNew()</text><text fill="#000000" font-family="sans-serif" font-size="11" lengthAdjust="spacingAndGlyphs" textLength="83" x="12" y="318.9219">+作成：create()</text><text fill="#000000" font-family="sans-serif" font-size="11" lengthAdjust="spacingAndGlyphs" textLength="87" x="12" y="331.877">+編集：update()</text><text fill="#000000" font-family="sans-serif" font-size="11" lengthAdjust="spacingAndGlyphs" textLength="82" x="12" y="344.832">+削除：delete()</text><text fill="#000000" font-family="sans-serif" font-size="11" lengthAdjust="spacingAndGlyphs" textLength="122" x="12" y="357.7871">+単一データ取得：get()</text><text fill="#000000" font-family="sans-serif" font-size="11" lengthAdjust="spacingAndGlyphs" textLength="152" x="12" y="370.7422">+一覧データ取得：getIndex()</text><text fill="#000000" font-family="sans-serif" font-size="11" lengthAdjust="spacingAndGlyphs" textLength="119" x="12" y="383.6973">+リスト取得：getList()</text><text fill="#000000" font-family="sans-serif" font-size="11" lengthAdjust="spacingAndGlyphs" textLength="99" x="12" y="396.6523">+ログイン：login()</text><text fill="#000000" font-family="sans-serif" font-size="11" lengthAdjust="spacingAndGlyphs" textLength="118" x="12" y="409.6074">+ログアウト：logout()</text><text fill="#000000" font-family="sans-serif" font-size="11" lengthAdjust="spacingAndGlyphs" textLength="124" x="12" y="422.5625">+再ログイン：reLogin()</text><text fill="#000000" font-family="sans-serif" font-size="11" lengthAdjust="spacingAndGlyphs" textLength="200" x="12" y="435.5176">+代理ログインを行う：loginToAgent()</text><text fill="#000000" font-family="sans-serif" font-size="11" lengthAdjust="spacingAndGlyphs" textLength="364" x="12" y="448.4727">+代理ログインから元のユーザーに戻る：returnLoginUserFromAgent()</text><text fill="#000000" font-family="sans-serif" font-size="11" lengthAdjust="spacingAndGlyphs" textLength="285" x="12" y="461.4277">+認証用のセッションキーを取得：getAuthSessionKey()</text><text fill="#000000" font-family="sans-serif" font-size="11" lengthAdjust="spacingAndGlyphs" textLength="266" x="12" y="474.3828">+ログインキーをセット：setCookieAutoLoginKey()</text><text fill="#000000" font-family="sans-serif" font-size="11" lengthAdjust="spacingAndGlyphs" textLength="238" x="12" y="487.3379">+ログインキーを削除する：removeLoginKey()</text><text fill="#000000" font-family="sans-serif" font-size="11" lengthAdjust="spacingAndGlyphs" textLength="236" x="12" y="500.293">+ログイン状態の保存確認：checkAutoLogin()</text><text fill="#000000" font-family="sans-serif" font-size="11" lengthAdjust="spacingAndGlyphs" textLength="205" x="12" y="513.248">+ログイン情報をリロードする：reload()</text><!--class UsersTable--><polygon fill="#FEFECE" filter="url(#fsaem9f)" points="274,579.1992,274,579.0337,284,579.3128,294,578.7226,304,578.7756,314,579.8913,324,579.5179,334,579.7075,344,578.7443,354,578.642,364,578.6809,374,578.8259,384,579.6651,394,579.394,404,579.6684,414,579.9271,424,579.0834,434,579.0156,444,579.7044,454,579.9111,464,579.7747,474,579.7809,484,579.2327,494,579.2777,504,579.9043,514,579.6252,524,579.5127,534,578.5836,544,579.5074,554,579.2116,564,578.7213,574,579.4918,584,579.6738,594,578.9348,604,578.5455,614,579.7547,624,579.8253,634,578.997,644,578.6674,654,579.4521,664,578.9272,674,579.1992,674.5753,579.1992,673.9648,588.6339,674.42,598.0686,674.186,607.5033,674.6572,616.9381,673.9664,626.3728,673.3381,635.8075,674,645.2422,674,645.2843,664,645.4189,654,644.6846,644,644.9702,634,645.139,624,645.1205,614,645.4578,604,645.6238,594,645.4963,584,645.4981,574,644.9774,564,644.6348,554,644.9479,544,645.8187,534,644.5169,524,645.3366,514,645.2892,504,645.3967,494,645.8021,484,645.8409,474,645.7853,464,645.6175,454,645.6156,444,644.6742,434,644.8864,424,645.4147,414,645.6686,404,644.9463,394,645.2268,384,645.199,374,644.979,364,645.2513,354,645.7261,344,645.0955,334,645.1447,324,644.591,314,645.0536,304,644.7954,294,645.7571,284,645.5319,274,645.2422,273.3667,645.2422,273.6058,635.8075,273.5111,626.3728,273.8148,616.9381,273.7748,607.5033,274.5761,598.0686,274.5285,588.6339,274,579.1992" style="stroke: #A80036; stroke-width: 1.5;"/><text fill="#000000" font-family="sans-serif" font-size="12" lengthAdjust="spacingAndGlyphs" textLength="65" x="441.5" y="595.8008">UsersTable</text><path d="M275,603.332 L275,603.8735 L284.95,602.9261 L294.9,603.5625 L304.85,602.3773 L314.8,603.7314 L324.75,602.6618 L334.7,604.2758 L344.65,602.8909 L354.6,603.4474 L364.55,603.4016 L374.5,603.44 L384.45,604.1635 L394.4,603.8623 L404.35,603.4214 L414.3,603.8654 L424.25,603.8873 L434.2,602.3902 L444.15,602.6377 L454.1,603.1075 L464.05,603.6636 L474,604.2707 L483.95,602.6739 L493.9,602.4695 L503.85,603.4138 L513.8,603.7357 L523.75,603.2825 L533.7,603.6223 L543.65,603.4952 L553.6,602.7723 L563.55,603.2284 L573.5,603.5627 L583.45,603.127 L593.4,604.0973 L603.35,602.9762 L613.3,603.0336 L623.25,603.1854 L633.2,602.3342 L643.15,603.6908 L653.1,603.3694 L663.05,603.8156 L673,603.332 " fill="#FEFECE" style="stroke: #A80036; stroke-width: 1.5;"/><path d="M275,611.332 L275,611.1924 L284.95,612.1705 L294.9,612.0138 L304.85,610.6333 L314.8,610.6969 L324.75,610.3743 L334.7,611.6692 L344.65,611.5538 L354.6,611.2018 L364.55,611.1905 L374.5,612.1951 L384.45,611.4855 L394.4,612.0461 L404.35,611.0107 L414.3,611.9613 L424.25,612.2656 L434.2,612.2666 L444.15,610.5321 L454.1,610.3941 L464.05,612.2917 L474,610.7866 L483.95,612.0066 L493.9,611.9182 L503.85,612.3139 L513.8,611.9285 L523.75,611.8862 L533.7,611.4022 L543.65,610.8079 L553.6,610.9757 L563.55,610.4849 L573.5,610.5578 L583.45,612.2337 L593.4,611.8189 L603.35,610.8839 L613.3,611.5215 L623.25,612.3136 L633.2,610.4681 L643.15,611.8546 L653.1,612.0637 L663.05,612.2258 L673,611.332 " fill="#FEFECE" style="stroke: #A80036; stroke-width: 1.5;"/><text fill="#000000" font-family="sans-serif" font-size="11" lengthAdjust="spacingAndGlyphs" textLength="251" x="280" y="625.9668">+利用可能なユーザーを取得する：findAvailable()</text><text fill="#000000" font-family="sans-serif" font-size="11" lengthAdjust="spacingAndGlyphs" textLength="388" x="280" y="638.9219">+ユーザーが許可されている認証プレフィックスを取得する：getAuthPrefix()</text><!--class User--><polygon fill="#FEFECE" filter="url(#fsaem9f)" points="328.5,705.1992,328.5,704.4998,338.5345,705.7389,348.569,704.5956,358.6034,705.9336,368.6379,705.9467,378.6724,705.0639,388.7069,705.4631,398.7414,705.3467,408.7759,705.7458,418.8103,705.6789,428.8448,705.1262,438.8793,705.3057,448.9138,705.3764,458.9483,705.6184,468.9828,704.6776,479.0172,705.1636,489.0517,704.4869,499.0862,705.8041,509.1207,705.2143,519.1552,705.8582,529.1897,704.7662,539.2241,705.4562,549.2586,704.5406,559.2931,705.7136,569.3276,704.8452,579.3621,704.5776,589.3966,705.5482,599.431,705.4843,609.4655,705.3675,619.5,705.1992,619.4735,705.1992,619.0204,715.1806,618.7592,725.162,619.9292,735.1434,620.1498,745.1248,619.3706,755.1062,619.8889,765.0875,619.0803,775.0689,619.6905,785.0503,619.5819,795.0317,619.2694,805.0131,618.8119,814.9945,619.5785,824.9759,619.6142,834.9573,619.8463,844.9386,619.1778,854.92,619.8003,864.9014,619.5,874.8828,619.5,875.0493,609.4655,875.3711,599.431,875.1847,589.3966,875.4383,579.3621,875.432,569.3276,874.4135,559.2931,874.4935,549.2586,874.1344,539.2241,874.664,529.1897,874.939,519.1552,874.8532,509.1207,875.2513,499.0862,874.9415,489.0517,874.9353,479.0172,875.0489,468.9828,875.3186,458.9483,875.0398,448.9138,875.0418,438.8793,874.4335,428.8448,874.3617,418.8103,874.7005,408.7759,874.8705,398.7414,875.2925,388.7069,874.7359,378.6724,875.6239,368.6379,874.87,358.6034,874.5141,348.569,874.7873,338.5345,874.334,328.5,874.8828,327.9961,874.8828,328.646,864.9014,327.8669,854.92,328.0254,844.9386,328.5203,834.9573,328.3008,824.9759,328.3281,814.9945,328.986,805.0131,328.3559,795.0317,328.8651,785.0503,327.9772,775.0689,328.5291,765.0875,327.9724,755.1062,328.219,745.1248,328.6746,735.1434,329.228,725.162,329.0622,715.1806,328.5,705.1992" style="stroke: #A80036; stroke-width: 1.5;"/><text fill="#000000" font-family="sans-serif" font-size="12" lengthAdjust="spacingAndGlyphs" textLength="26" x="461" y="721.8008">User</text><path d="M329.5,729.332 L329.5,728.6197 L339.4655,730.2248 L349.431,728.5133 L359.3966,729.151 L369.3621,730.2927 L379.3276,729.3692 L389.2931,729.7674 L399.2586,728.3556 L409.2241,730.2272 L419.1897,729.3614 L429.1552,730.1414 L439.1207,729.0744 L449.0862,730.2373 L459.0517,729.8372 L469.0172,728.5447 L478.9828,729.9511 L488.9483,730.2384 L498.9138,728.4996 L508.8793,729.6198 L518.8448,729.6152 L528.8103,729.3103 L538.7759,728.4343 L548.7414,729.0653 L558.7069,728.5743 L568.6724,728.9492 L578.6379,730.0005 L588.6034,728.771 L598.569,729.0227 L608.5345,729.4786 L618.5,729.332 " fill="#FEFECE" style="stroke: #A80036; stroke-width: 1.5;"/><text fill="#000000" font-family="sans-serif" font-size="11" lengthAdjust="spacingAndGlyphs" textLength="115" x="334.5" y="743.9668">+アカウント名：name</text><text fill="#000000" font-family="sans-serif" font-size="11" lengthAdjust="spacingAndGlyphs" textLength="127" x="334.5" y="756.9219">+パスワード：password</text><text fill="#000000" font-family="sans-serif" font-size="11" lengthAdjust="spacingAndGlyphs" textLength="99" x="334.5" y="769.877">+性：real_name_1</text><text fill="#000000" font-family="sans-serif" font-size="11" lengthAdjust="spacingAndGlyphs" textLength="99" x="334.5" y="782.832">+名：real_name_2</text><text fill="#000000" font-family="sans-serif" font-size="11" lengthAdjust="spacingAndGlyphs" textLength="125" x="334.5" y="795.7871">+メールアドレス：email</text><text fill="#000000" font-family="sans-serif" font-size="11" lengthAdjust="spacingAndGlyphs" textLength="137" x="334.5" y="808.7422">+ニックネーム：nickname</text><text fill="#000000" font-family="sans-serif" font-size="11" lengthAdjust="spacingAndGlyphs" textLength="93" x="334.5" y="821.6973">+登録日：created</text><text fill="#000000" font-family="sans-serif" font-size="11" lengthAdjust="spacingAndGlyphs" textLength="100" x="334.5" y="834.6523">+編集日：modified</text><path d="M329.5,840.9727 L329.5,841.6062 L339.4655,841.5697 L349.431,841.776 L359.3966,839.982 L369.3621,840.7307 L379.3276,840.1472 L389.2931,841.822 L399.2586,840.8174 L409.2241,841.4985 L419.1897,840.7562 L429.1552,841.1339 L439.1207,840.853 L449.0862,840.1035 L459.0517,840.0515 L469.0172,841.6045 L478.9828,841.2006 L488.9483,841.1617 L498.9138,841.3146 L508.8793,840.9636 L518.8448,840.1428 L528.8103,841.9148 L538.7759,841.8485 L548.7414,841.5959 L558.7069,841.4342 L568.6724,840.921 L578.6379,840.2143 L588.6034,840.1162 L598.569,840.0123 L608.5345,840.4011 L618.5,840.9727 " fill="#FEFECE" style="stroke: #A80036; stroke-width: 1.5;"/><text fill="#000000" font-family="sans-serif" font-size="11" lengthAdjust="spacingAndGlyphs" textLength="226" x="334.5" y="855.6074">+管理ユーザーかどうか判定する：isAdmin()</text><text fill="#000000" font-family="sans-serif" font-size="11" lengthAdjust="spacingAndGlyphs" textLength="279" x="334.5" y="868.5625">+整形されたユーザー名を取得する：getDisplayName()</text><path d="M474,199.3392 L474.2079,199.3392 L474.3324,209.4399 L473.3523,219.5406 L474.5402,229.6412 L473.5625,239.7419 L473.3625,249.8426 L474.7562,259.9432 L474.9016,270.0439 L474.6573,280.1446 L473.5071,290.2452 L474.1263,300.3459 L473.6636,310.4466 L473.7041,320.5472 L474.7276,330.6479 L473.9398,340.7486 L474,350.8492 " fill="none" style="stroke: #000000; stroke-width: 1.0;"/><polygon fill="#000000" points="474,355.9392,473.8527,355.8738,474.6718,354.0823,475.5249,352.3058,476.5502,350.606,477.1038,348.6965,478,346.9392,478.1405,347.0797,477.1452,347.6844,476.263,348.4023,475.4992,349.2384,474.746,350.0853,474,350.9392,474.0885,351.0277,473.3683,350.3075,472.2669,349.2061,471.773,348.7122,470.635,347.5742,470,346.9392,469.9761,346.9286,470.7938,348.7365,471.5586,350.5208,472.4354,352.355,473.0159,354.0574,474,355.9392" style="stroke: #000000; stroke-width: 1.0;"/><path d="M536.43,389.1992 L536.43,389.1994 L542.288,389.4531 L548.146,389.4877 L554.004,389.0455 L559.862,389.514 L565.72,389.1992 " fill="none" style="stroke: #000000; stroke-width: 1.0;"/><polygon fill="#000000" points="531.32,389.1992,531.294,389.1408,533.1385,390.0408,534.8341,390.606,536.6427,391.4252,538.4282,392.1927,540.32,393.1992,540.3727,393.2519,539.571,392.4502,538.7023,391.5815,537.8527,390.7319,536.9632,389.8424,536.32,389.1992,536.1911,389.0703,537.1445,388.4237,537.8106,387.4898,538.8723,386.9515,539.4657,385.945,540.32,385.1992,540.3001,385.1544,538.5002,385.9547,536.7572,386.8829,534.8391,387.4172,533.2092,388.5999,531.32,389.1992" style="stroke: #000000; stroke-width: 1.0;"/><path d="M474,422.3392 L474.0647,422.3392 L473.8416,432.4486 L473.7814,442.5579 L473.4068,452.6672 L474.621,462.7766 L473.5728,472.8859 L473.1667,482.9952 L474.3549,493.1046 L474.0172,503.2139 L473.1181,513.3232 L473.3663,523.4326 L474.9319,533.5419 L473.7732,543.6512 L473.9472,553.7606 L474.8475,563.8699 L474,573.9792 " fill="none" style="stroke: #000000; stroke-width: 1.0;"/><polygon fill="#000000" points="474,579.0292,474.2058,579.1207,474.8839,577.2665,475.515,575.3915,476.4344,573.6445,477.0437,571.7597,478,570.0292,478.1571,570.1863,477.1672,570.7964,476.4373,571.6665,475.597,572.4262,474.7949,573.2242,474,574.0292,473.8872,573.9165,473.321,573.3502,472.5309,572.5602,471.616,571.6452,470.7851,570.8143,470,570.0292,469.9998,570.0291,470.8868,571.8678,471.4171,573.5479,472.4588,575.4554,473.1389,577.2021,474,579.0292" style="stroke: #000000; stroke-width: 1.0;"/><path d="M402.25,389.1992 L402.25,389.1006 L405.188,388.8792 L408.126,389.0675 L411.064,388.9421 L414.002,389.1419 L416.94,389.1992 " fill="none" style="stroke: #000000; stroke-width: 1.0; stroke-dasharray: 1.0,3.0;"/><polygon fill="none" points="402.13,396.1992,402.148,396.2508,398.1986,395.001,394.1345,393.4235,390.0716,391.8494,386.1534,390.689,382.12,389.1992,382.1661,389.331,386.1605,387.915,390.1721,386.548,394.0746,384.8695,398.0446,383.3839,402.12,382.1992,401.9932,382.1991,401.9753,384.9991,401.8753,387.799,402.1539,390.5992,401.9671,393.3991,402.13,396.1992" style="stroke: #000000; stroke-width: 1.0;"/><path d="M474,645.4792 L473.2197,645.4792 L473.3838,656.3032 L473.0696,667.1272 L474.407,677.9512 L473.1973,688.7752 L474,699.5992 " fill="none" style="stroke: #000000; stroke-width: 1.0;"/><polygon fill="#000000" points="474,705.0692,474.0192,705.0777,474.7631,703.2528,475.5309,701.4385,476.2093,699.5845,477.2972,697.9124,478,696.0692,477.8674,695.9366,477.3247,696.9939,476.2872,697.5564,475.6494,698.5187,474.8879,699.3571,474,700.0692,474.0391,700.1084,473.3098,699.379,472.5698,698.6391,471.7413,697.8105,470.7694,696.8386,470,696.0692,470.1664,696.1432,470.8179,697.8772,471.5889,699.6643,472.1779,701.3705,473.3607,703.3407,474,705.0692" style="stroke: #000000; stroke-width: 1.0;"/></g></svg>