<?xml version="1.0" encoding="UTF-8" standalone="no"?><svg xmlns="http://www.w3.org/2000/svg" xmlns:xlink="http://www.w3.org/1999/xlink" contentScriptType="application/ecmascript" contentStyleType="text/css" height="777px" preserveAspectRatio="none" style="width:696px;height:777px;" version="1.1" viewBox="0 0 696 777" width="696px" zoomAndPan="magnify"><defs><filter height="300%" id="f34o9fx" width="300%" x="-1" y="-1"><feGaussianBlur result="blurOut" stdDeviation="2.0"/><feColorMatrix in="blurOut" result="blurOut2" type="matrix" values="0 0 0 0 0 0 0 0 0 0 0 0 0 0 0 0 0 0 .4 0"/><feOffset dx="4.0" dy="4.0" in="blurOut2" result="blurOut3"/><feBlend in="SourceGraphic" in2="blurOut3" mode="normal"/></filter></defs><g><text fill="#000000" font-family="sans-serif" font-size="18" lengthAdjust="spacingAndGlyphs" textLength="90" x="307.5" y="17.4023">テーマ管理</text><!--class Admin\ThemesController--><polygon fill="#FEFECE" filter="url(#f34o9fx)" points="323.5,29.1992,323.5,29.1572,333.5833,29.4209,343.6667,28.5625,353.75,29.1606,363.8333,28.7364,373.9167,28.7263,384,28.8378,394.0833,28.9456,404.1667,28.9171,414.25,29.1381,424.3333,29.2507,434.4167,29.1775,444.5,29.8801,454.5833,29.8673,464.6667,29.1997,474.75,28.5275,484.8333,28.6662,494.9167,29.2548,505,28.4956,515.0833,29.7628,525.1667,29.4287,535.25,29.26,545.3333,29.3204,555.4167,29.461,565.5,28.7385,575.5833,29.3591,585.6667,28.6961,595.75,29.1219,605.8333,28.8315,615.9167,29.7894,626,29.2484,636.0833,28.4975,646.1667,29.53,656.25,29.1746,666.3333,29.3111,676.4167,29.0334,686.5,29.1992,686.173,29.1992,686.5458,38.9948,687.1802,48.7903,686.0273,58.5858,686.5358,68.3813,686.9238,78.1769,686.3883,87.9724,686.2292,97.7679,686.241,107.5635,685.7782,117.359,686.0564,127.1545,686.4937,136.9501,685.7957,146.7456,686.5654,156.5411,685.9246,166.3367,686.4503,176.1322,686.5,185.9277,686.5,185.9551,676.4167,185.493,666.3333,185.3948,656.25,185.8334,646.1667,185.3682,636.0833,185.9151,626,185.5868,615.9167,185.3473,605.8333,186.5667,595.75,186.5006,585.6667,185.6795,575.5833,185.4033,565.5,186.0582,555.4167,185.7669,545.3333,186.4219,535.25,185.4961,525.1667,186.1789,515.0833,185.3483,505,185.7589,494.9167,185.9866,484.8333,186.2581,474.75,186.2647,464.6667,186.3241,454.5833,186.4355,444.5,185.469,434.4167,185.9133,424.3333,186.5437,414.25,185.8096,404.1667,186.0983,394.0833,186.1108,384,186.3609,373.9167,186.4712,363.8333,185.202,353.75,186.6345,343.6667,185.497,333.5833,185.203,323.5,185.9277,322.8795,185.9277,323.9741,176.1322,322.8356,166.3367,322.7627,156.5411,324.0325,146.7456,322.7712,136.9501,323.8227,127.1545,323.9541,117.359,323.0916,107.5635,322.7947,97.7679,323.7997,87.9724,323.0482,78.1769,324.2107,68.3813,323.1949,58.5858,323.8722,48.7903,323.5091,38.9948,323.5,29.1992" style="stroke: #A80036; stroke-width: 1.5;"/><text fill="#000000" font-family="sans-serif" font-size="12" lengthAdjust="spacingAndGlyphs" textLength="145" x="432.5" y="45.8008">Admin\ThemesController</text><path d="M324.5,53.332 L324.5,52.618 L334.5278,52.4237 L344.5556,53.817 L354.5833,53.9934 L364.6111,52.6905 L374.6389,52.5746 L384.6667,52.6692 L394.6944,53.8688 L404.7222,52.8794 L414.75,53.1528 L424.7778,53.7654 L434.8056,53.1218 L444.8333,53.8157 L454.8611,53.0262 L464.8889,54.291 L474.9167,53.8424 L484.9444,53.1651 L494.9722,53.31 L505,52.3767 L515.0278,53.5003 L525.0556,52.7943 L535.0833,53.2035 L545.1111,54.1065 L555.1389,53.8106 L565.1667,52.9541 L575.1944,53.0089 L585.2222,54.033 L595.25,53.9228 L605.2778,52.3537 L615.3056,54.2381 L625.3333,53.2903 L635.3611,53.2022 L645.3889,53.1659 L655.4167,53.5523 L665.4444,52.7807 L675.4722,53.688 L685.5,53.332 " fill="#FEFECE" style="stroke: #A80036; stroke-width: 1.5;"/><path d="M324.5,61.332 L324.5,62.1146 L334.5278,61.5624 L344.5556,61.2427 L354.5833,61.5542 L364.6111,60.8374 L374.6389,61.2305 L384.6667,61.2667 L394.6944,60.5919 L404.7222,60.7007 L414.75,61.7714 L424.7778,60.5281 L434.8056,60.848 L444.8333,61.1637 L454.8611,60.5414 L464.8889,60.6471 L474.9167,62.1213 L484.9444,60.646 L494.9722,61.4336 L505,62.1573 L515.0278,61.0115 L525.0556,60.6457 L535.0833,61.7627 L545.1111,61.0838 L555.1389,61.6532 L565.1667,61.5927 L575.1944,60.5311 L585.2222,60.5781 L595.25,62.1418 L605.2778,60.5854 L615.3056,61.3041 L625.3333,61.9475 L635.3611,60.9645 L645.3889,60.771 L655.4167,60.7073 L665.4444,61.2446 L675.4722,60.5033 L685.5,61.332 " fill="#FEFECE" style="stroke: #A80036; stroke-width: 1.5;"/><text fill="#000000" font-family="sans-serif" font-size="11" lengthAdjust="spacingAndGlyphs" textLength="146" x="329.5" y="75.9668">+テーマ一覧を表示：index()</text><text fill="#000000" font-family="sans-serif" font-size="11" lengthAdjust="spacingAndGlyphs" textLength="213" x="329.5" y="88.9219">+新しいテーマをアップロードする：add()</text><text fill="#000000" font-family="sans-serif" font-size="11" lengthAdjust="spacingAndGlyphs" textLength="145" x="329.5" y="101.877">+テーマを適用する：apply()</text><text fill="#000000" font-family="sans-serif" font-size="11" lengthAdjust="spacingAndGlyphs" textLength="278" x="329.5" y="114.832">+初期データを読み込む：load_default_data_pattern()</text><text fill="#000000" font-family="sans-serif" font-size="11" lengthAdjust="spacingAndGlyphs" textLength="109" x="329.5" y="127.7871">+コピーする：copy()</text><text fill="#000000" font-family="sans-serif" font-size="11" lengthAdjust="spacingAndGlyphs" textLength="104" x="329.5" y="140.7422">+削除する：delete()</text><text fill="#000000" font-family="sans-serif" font-size="11" lengthAdjust="spacingAndGlyphs" textLength="256" x="329.5" y="153.6973">+利用中のテーマをダウンロードする：download()</text><text fill="#000000" font-family="sans-serif" font-size="11" lengthAdjust="spacingAndGlyphs" textLength="351" x="329.5" y="166.6523">+初期データをダウンロードする：download_default_data_pattern()</text><text fill="#000000" font-family="sans-serif" font-size="11" lengthAdjust="spacingAndGlyphs" textLength="339" x="329.5" y="179.6074">+baserマーケットのテーマ一覧を取得する：get_market_themes()</text><!--class ThemesService--><polygon fill="#FEFECE" filter="url(#f34o9fx)" points="459,311.1992,459,311.4551,469.2222,310.7784,479.4444,310.4575,489.6667,311.5929,499.8889,311.1396,510.1111,311.7031,520.3333,311.0472,530.5556,310.8419,540.7778,311.63,551,311.1992,551.2092,311.1992,551.1862,319.2258,550.9674,327.2523,551.1597,335.2789,550.9831,343.3055,551,351.332,551,351.8689,540.7778,351.2072,530.5556,351.5213,520.3333,351.9664,510.1111,350.8424,499.8889,351.2389,489.6667,351.0841,479.4444,350.9985,469.2222,351.9536,459,351.332,458.9821,351.332,458.822,343.3055,459.1485,335.2789,459.068,327.2523,459.2227,319.2258,459,311.1992" style="stroke: #A80036; stroke-width: 1.5;"/><text fill="#000000" font-family="sans-serif" font-size="12" lengthAdjust="spacingAndGlyphs" textLength="86" x="462" y="327.8008">ThemesService</text><path d="M460,335.332 L460,335.0898 L470,336.103 L480,334.5229 L490,334.4717 L500,334.9112 L510,336.1934 L520,336.2177 L530,334.8619 L540,335.9264 L550,335.332 " fill="#FEFECE" style="stroke: #A80036; stroke-width: 1.5;"/><path d="M460,343.332 L460,342.4615 L470,343.0441 L480,342.8323 L490,344.0128 L500,343.4761 L510,343.7003 L520,343.7806 L530,343.1537 L540,342.7043 L550,343.332 " fill="#FEFECE" style="stroke: #A80036; stroke-width: 1.5;"/><!--class ThemesServiceInterface--><polygon fill="#FEFECE" filter="url(#f34o9fx)" points="6,246.1992,6,246.4986,15.9524,246.6047,25.9048,246.5909,35.8571,246.5778,45.8095,245.5522,55.7619,245.8665,65.7143,246.4017,75.6667,246.4774,85.619,245.633,95.5714,245.6333,105.5238,246.5067,115.4762,245.932,125.4286,246.8878,135.381,246.1828,145.3333,246.5089,155.2857,246.4334,165.2381,245.9227,175.1905,246.3662,185.1429,245.4926,195.0952,245.5379,205.0476,246.2537,215,245.8761,224.9524,246.5998,234.9048,246.0553,244.8571,245.91,254.8095,246.6789,264.7619,246.1157,274.7143,246.3033,284.6667,246.4296,294.619,246.4142,304.5714,246.6482,314.5238,246.2833,324.4762,246.9184,334.4286,246.1853,344.381,245.7104,354.3333,246.1046,364.2857,246.4806,374.2381,245.617,384.1905,245.6888,394.1429,245.5389,404.0952,245.6654,414.0476,246.3391,424,246.1992,423.6052,246.1992,424.5191,256.1806,423.9184,266.162,424.4573,276.1434,423.5604,286.1248,423.5002,296.1062,424.1633,306.0875,423.4101,316.0689,423.5939,326.0503,424.2036,336.0317,423.9066,346.0131,423.6864,355.9945,423.6542,365.9759,423.6059,375.9573,423.8789,385.9386,424.4452,395.92,424.3437,405.9014,424,415.8828,424,415.8858,414.0476,415.9911,404.0952,415.9083,394.1429,416.558,384.1905,416.5688,374.2381,415.4472,364.2857,415.1519,354.3333,415.4146,344.381,416.355,334.4286,415.2561,324.4762,416.1406,314.5238,415.9024,304.5714,415.5942,294.619,415.6521,284.6667,415.5556,274.7143,416.5359,264.7619,415.525,254.8095,415.4986,244.8571,416.0989,234.9048,416.4062,224.9524,415.6939,215,415.5773,205.0476,415.4777,195.0952,416.1343,185.1429,415.5591,175.1905,415.4219,165.2381,415.8427,155.2857,415.5305,145.3333,416.3935,135.381,415.7436,125.4286,415.287,115.4762,415.9401,105.5238,415.1702,95.5714,416.48,85.619,416.5581,75.6667,415.2776,65.7143,416.26,55.7619,415.1749,45.8095,416.5116,35.8571,416.2201,25.9048,415.4963,15.9524,415.2887,6,415.8828,5.6485,415.8828,6.5746,405.9014,6.582,395.92,6.2381,385.9386,5.2946,375.9573,5.3885,365.9759,5.8758,355.9945,6.4404,346.0131,5.7927,336.0317,6.1656,326.0503,6.5146,316.0689,6.0885,306.0875,6.1666,296.1062,5.733,286.1248,5.264,276.1434,5.9841,266.162,5.8319,256.1806,6,246.1992" style="stroke: #A80036; stroke-width: 1.5;"/><text fill="#000000" font-family="sans-serif" font-size="12" lengthAdjust="spacingAndGlyphs" textLength="136" x="147" y="262.8008">ThemesServiceInterface</text><path d="M7,270.332 L7,269.8506 L16.9048,270.6099 L26.8095,269.3357 L36.7143,270.0744 L46.619,270.593 L56.5238,270.4956 L66.4286,270.2182 L76.3333,270.1585 L86.2381,270.6531 L96.1429,270.2811 L106.0476,269.5397 L115.9524,270.3215 L125.8571,271.2262 L135.7619,269.8463 L145.6667,270.3872 L155.5714,269.9279 L165.4762,270.1332 L175.381,271.2207 L185.2857,271.1671 L195.1905,270.5403 L205.0952,269.6758 L215,270.7733 L224.9048,270.107 L234.8095,270.0857 L244.7143,269.8822 L254.619,270.9657 L264.5238,269.7677 L274.4286,269.8625 L284.3333,271.1035 L294.2381,270.8017 L304.1429,269.6476 L314.0476,270.0441 L323.9524,270.4024 L333.8571,269.7605 L343.7619,269.6662 L353.6667,269.959 L363.5714,270.5971 L373.4762,271.0939 L383.381,270.9493 L393.2857,270.484 L403.1905,271.1796 L413.0952,270.8948 L423,270.332 " fill="#FEFECE" style="stroke: #A80036; stroke-width: 1.5;"/><path d="M7,278.332 L7,278.9164 L16.9048,277.391 L26.8095,278.6231 L36.7143,279.3141 L46.619,279.1832 L56.5238,278.418 L66.4286,277.8261 L76.3333,277.7032 L86.2381,279.2458 L96.1429,279.2114 L106.0476,278.6089 L115.9524,278.3067 L125.8571,278.2975 L135.7619,278.0955 L145.6667,279.288 L155.5714,277.4033 L165.4762,277.8596 L175.381,278.8739 L185.2857,277.397 L195.1905,278.515 L205.0952,279.1693 L215,278.5535 L224.9048,277.6066 L234.8095,277.4539 L244.7143,277.4687 L254.619,279.0026 L264.5238,278.8135 L274.4286,277.5732 L284.3333,278.4778 L294.2381,278.1189 L304.1429,278.2293 L314.0476,277.6122 L323.9524,278.412 L333.8571,279.0775 L343.7619,278.0923 L353.6667,277.9986 L363.5714,277.9157 L373.4762,277.6665 L383.381,278.3586 L393.2857,278.3692 L403.1905,278.2371 L413.0952,277.5913 L423,278.332 " fill="#FEFECE" style="stroke: #A80036; stroke-width: 1.5;"/><text fill="#000000" font-family="sans-serif" font-size="11" lengthAdjust="spacingAndGlyphs" textLength="122" x="12" y="292.9668">+単一データ取得：get()</text><text fill="#000000" font-family="sans-serif" font-size="11" lengthAdjust="spacingAndGlyphs" textLength="152" x="12" y="305.9219">+一覧データ取得：getIndex()</text><text fill="#000000" font-family="sans-serif" font-size="11" lengthAdjust="spacingAndGlyphs" textLength="213" x="12" y="318.877">+新しいテーマをアップロードする：add()</text><text fill="#000000" font-family="sans-serif" font-size="11" lengthAdjust="spacingAndGlyphs" textLength="123" x="12" y="331.832">+インストール：apply()</text><text fill="#000000" font-family="sans-serif" font-size="11" lengthAdjust="spacingAndGlyphs" textLength="261" x="12" y="344.7871">+初期データを読み込む：loadDefaultDataPattern()</text><text fill="#000000" font-family="sans-serif" font-size="11" lengthAdjust="spacingAndGlyphs" textLength="109" x="12" y="357.7422">+コピーする：copy()</text><text fill="#000000" font-family="sans-serif" font-size="11" lengthAdjust="spacingAndGlyphs" textLength="104" x="12" y="370.6973">+削除する：delete()</text><text fill="#000000" font-family="sans-serif" font-size="11" lengthAdjust="spacingAndGlyphs" textLength="328" x="12" y="383.6523">+利用中のテーマをダウンロードする：createDownloadToTmp()</text><text fill="#000000" font-family="sans-serif" font-size="11" lengthAdjust="spacingAndGlyphs" textLength="406" x="12" y="396.6074">+初期データをダウンロードする：createDownloadDefaultDataPatternToTmp()</text><text fill="#000000" font-family="sans-serif" font-size="11" lengthAdjust="spacingAndGlyphs" textLength="329" x="12" y="409.5625">+baserマーケットのテーマ一覧を取得する：getMarketThemes()</text><!--class BcPlugin--><polygon fill="#FEFECE" filter="url(#f34o9fx)" points="401.5,476.1992,401.5,476.2493,411.3571,475.5123,421.2143,476.5928,431.0714,475.9031,440.9286,476.2013,450.7857,475.9087,460.6429,475.6568,470.5,475.7481,480.3571,476.0954,490.2143,476.882,500.0714,476.7731,509.9286,475.7413,519.7857,476.3564,529.6429,475.5895,539.5,476.634,549.3571,476.8032,559.2143,475.7092,569.0714,476.8962,578.9286,475.7895,588.7857,476.8598,598.6429,475.8225,608.5,476.1992,608.1641,476.1992,607.8116,486.8168,608.105,497.4344,608.3037,508.052,609.0155,518.6695,608.5,529.2871,608.5,529.1608,598.6429,529.2895,588.7857,529.7488,578.9286,529.1815,569.0714,529.3085,559.2143,528.7874,549.3571,529.7408,539.5,529.3911,529.6429,529.9578,519.7857,528.5507,509.9286,529.0183,500.0714,529.7695,490.2143,529.683,480.3571,529.7251,470.5,529.2998,460.6429,528.89,450.7857,529.7354,440.9286,529.4488,431.0714,529.2197,421.2143,529.8916,411.3571,529.741,401.5,529.2871,400.9874,529.2871,401.3091,518.6695,401.1525,508.052,402.0418,497.4344,402.2447,486.8168,401.5,476.1992" style="stroke: #A80036; stroke-width: 1.5;"/><text fill="#000000" font-family="sans-serif" font-size="12" lengthAdjust="spacingAndGlyphs" textLength="47" x="481.5" y="492.8008">BcPlugin</text><path d="M402.5,500.332 L402.5,500.7536 L412.2619,500.0656 L422.0238,499.6144 L431.7857,500.8324 L441.5476,499.5896 L451.3095,500.1627 L461.0714,499.345 L470.8333,500.46 L480.5952,500.5621 L490.3571,499.5645 L500.119,499.3894 L509.881,500.2029 L519.6429,500.0776 L529.4048,500.7597 L539.1667,500.0452 L548.9286,500.8811 L558.6905,500.1339 L568.4524,499.7913 L578.2143,499.9795 L587.9762,500.1137 L597.7381,501.2674 L607.5,500.332 " fill="#FEFECE" style="stroke: #A80036; stroke-width: 1.5;"/><path d="M402.5,508.332 L402.5,508.1565 L412.2619,507.4417 L422.0238,507.7404 L431.7857,508.1659 L441.5476,508.8601 L451.3095,507.6963 L461.0714,507.9074 L470.8333,509.2472 L480.5952,508.439 L490.3571,508.5368 L500.119,508.0943 L509.881,507.8596 L519.6429,509.3036 L529.4048,508.3193 L539.1667,508.8569 L548.9286,509.0584 L558.6905,508.7085 L568.4524,508.4652 L578.2143,507.9958 L587.9762,508.1403 L597.7381,508.0708 L607.5,508.332 " fill="#FEFECE" style="stroke: #A80036; stroke-width: 1.5;"/><text fill="#000000" font-family="sans-serif" font-size="11" lengthAdjust="spacingAndGlyphs" textLength="195" x="407.5" y="522.9668">+テーマを適用する：applyAsTheme()</text><!--class SiteConfigsTable--><polygon fill="#FEFECE" filter="url(#f34o9fx)" points="415,589.1992,415,589.5775,425,589.8764,435,589.9192,445,589.8459,455,588.7806,465,589.1779,475,589.5613,485,589.1287,495,589.6377,505,589.3732,515,588.5232,525,588.9384,535,589.086,545,588.9594,555,589.0705,565,589.0367,575,589.3136,585,588.6525,595,589.1992,594.8873,589.1992,594.6018,599.8168,595.4495,610.4344,594.3078,621.052,595.4525,631.6695,595,642.2871,595,642.7327,585,642.9837,575,642.1321,565,642.4427,555,641.8551,545,641.5616,535,642.6841,525,642.2673,515,641.8445,505,641.7673,495,642.0689,485,642.6552,475,642.4195,465,642.6508,455,642.4417,445,642.5461,435,641.9245,425,641.8608,415,642.2871,415.4419,642.2871,415.0716,631.6695,415.3216,621.052,415.1019,610.4344,414.6567,599.8168,415,589.1992" style="stroke: #A80036; stroke-width: 1.5;"/><text fill="#000000" font-family="sans-serif" font-size="12" lengthAdjust="spacingAndGlyphs" textLength="95" x="457.5" y="605.8008">SiteConfigsTable</text><path d="M416,613.332 L416,612.9297 L425.8889,613.2281 L435.7778,614.1777 L445.6667,613.4752 L455.5556,613.5361 L465.4444,613.5194 L475.3333,614.2546 L485.2222,614.0772 L495.1111,614.0386 L505,614.3312 L514.8889,613.9066 L524.7778,613.0396 L534.6667,612.5295 L544.5556,613.0502 L554.4444,612.4675 L564.3333,613.4839 L574.2222,613.5846 L584.1111,612.8231 L594,613.332 " fill="#FEFECE" style="stroke: #A80036; stroke-width: 1.5;"/><path d="M416,621.332 L416,620.3451 L425.8889,621.6298 L435.7778,621.3387 L445.6667,621.9603 L455.5556,622.1462 L465.4444,622.0723 L475.3333,622.1363 L485.2222,621.4826 L495.1111,621.8163 L505,621.6117 L514.8889,621.4824 L524.7778,620.3326 L534.6667,620.892 L544.5556,621.9317 L554.4444,621.0013 L564.3333,621.931 L574.2222,622.1674 L584.1111,620.5466 L594,621.332 " fill="#FEFECE" style="stroke: #A80036; stroke-width: 1.5;"/><text fill="#000000" font-family="sans-serif" font-size="11" lengthAdjust="spacingAndGlyphs" textLength="168" x="421" y="635.9668">+テーマを適用する：setTheme()</text><!--class SiteConfig--><polygon fill="#FEFECE" filter="url(#f34o9fx)" points="463.5,702.1992,463.5,702.7234,473.875,702.2095,484.25,702.1109,494.625,701.947,505,702.2042,515.375,702.2313,525.75,702.1533,536.125,702.1486,546.5,702.1992,546.43,702.1992,547.2318,711.6339,546.2725,721.0686,546.8845,730.5033,546.343,739.9381,547.0291,749.3728,546.85,758.8075,546.5,768.2422,546.5,768.5339,536.125,768.8092,525.75,767.6429,515.375,767.5608,505,768.6534,494.625,767.9568,484.25,768.3418,473.875,768.0943,463.5,768.2422,463.769,768.2422,462.8653,758.8075,463.9958,749.3728,463.4841,739.9381,463.7594,730.5033,463.3958,721.0686,463.5347,711.6339,463.5,702.1992" style="stroke: #A80036; stroke-width: 1.5;"/><text fill="#000000" font-family="sans-serif" font-size="12" lengthAdjust="spacingAndGlyphs" textLength="56" x="477" y="718.8008">SiteConfig</text><path d="M464.5,726.332 L464.5,725.7961 L474.625,725.8551 L484.75,725.3561 L494.875,727.1702 L505,727.0823 L515.125,726.821 L525.25,725.4592 L535.375,727.2602 L545.5,726.332 " fill="#FEFECE" style="stroke: #A80036; stroke-width: 1.5;"/><text fill="#000000" font-family="sans-serif" font-size="11" lengthAdjust="spacingAndGlyphs" textLength="71" x="469.5" y="740.9668">+名前：name</text><text fill="#000000" font-family="sans-serif" font-size="11" lengthAdjust="spacingAndGlyphs" textLength="59" x="469.5" y="753.9219">+値：value</text><path d="M464.5,760.2422 L464.5,760.135 L474.625,759.2456 L484.75,760.2798 L494.875,760.9533 L505,759.7933 L515.125,760.9339 L525.25,759.8117 L535.375,759.2593 L545.5,760.2422 " fill="#FEFECE" style="stroke: #A80036; stroke-width: 1.5;"/><path d="M505,186.4792 L504.9929,186.4792 L504.8968,196.4426 L504.2215,206.4059 L505.3042,216.3692 L504.2921,226.3326 L505.5112,236.2959 L504.9884,246.2592 L504.8922,256.2226 L505.2721,266.1859 L504.8683,276.1492 L504.1907,286.1126 L504.7276,296.0759 L505,306.0392 " fill="none" style="stroke: #000000; stroke-width: 1.0;"/><polygon fill="#000000" points="505,311.1292,504.7752,311.0293,505.9046,309.3757,506.4282,307.4528,507.4748,305.7625,508.1912,303.9253,509,302.1292,509.0627,302.1919,508.0663,302.7955,507.248,303.5772,506.5533,304.4826,505.7658,305.295,505,306.1292,504.9977,306.1269,504.1283,305.2575,503.3956,304.5249,502.6766,303.8058,501.6347,302.7639,501,302.1292,501.1287,302.1864,501.8824,303.9658,502.8084,305.8218,503.4282,307.5418,504.4043,309.42,505,311.1292" style="stroke: #000000; stroke-width: 1.0;"/><path d="M505,351.3092 L504.0844,351.3092 L505.9119,361.2526 L505.2746,371.1959 L504.975,381.1392 L505.8276,391.0826 L504.3366,401.0259 L504.1371,410.9692 L504.0999,420.9126 L505.1624,430.8559 L504.6945,440.7992 L505.57,450.7426 L504.617,460.6859 L505,470.6292 " fill="none" style="stroke: #000000; stroke-width: 1.0;"/><polygon fill="#000000" points="505,476.0392,504.7852,475.9437,505.9353,474.2993,506.515,472.4015,507.5099,470.6881,508.4008,468.9285,509,467.0392,509.1724,467.2117,508.3238,467.963,507.3894,468.6286,506.5751,469.4143,505.7649,470.2041,505,471.0392,505.0252,471.0645,504.1301,470.1693,503.5243,469.5635,502.6566,468.6958,501.8026,467.8418,501,467.0392,501.0277,467.0515,501.6544,468.7745,502.6196,470.6479,503.573,472.5161,504.2171,474.2468,505,476.0392" style="stroke: #000000; stroke-width: 1.0;"/><path d="M505,529.4392 L504.5861,529.4392 L504.184,540.3332 L504.8296,551.2272 L504.5795,562.1212 L505.1691,573.0152 L505,583.9092 " fill="none" style="stroke: #000000; stroke-width: 1.0;"/><polygon fill="#000000" points="505,589.0892,505.2233,589.1892,505.8993,587.3337,506.4525,585.4231,507.2305,583.6133,508.2033,581.8907,509.0257,580.1007,508.9119,579.9862,508.2978,580.9732,507.3786,581.6533,506.5619,582.4366,505.9031,583.3786,505.0143,584.0892,504.8386,583.9146,504.044,583.1153,503.3948,582.4607,502.6953,581.7561,501.8677,580.9241,501.0257,580.0778,501.0995,580.1104,501.6896,581.8223,502.7595,583.7459,503.5327,585.5386,504.0636,587.2245,505,589.0892" style="stroke: #000000; stroke-width: 1.0;"/><path d="M444.12,331.1992 L444.12,331.351 L447.058,331.4468 L449.996,331.2828 L452.934,331.0721 L455.872,331.4852 L458.81,331.1992 " fill="none" style="stroke: #000000; stroke-width: 1.0; stroke-dasharray: 1.0,3.0;"/><polygon fill="none" points="444,338.1992,444.0216,338.261,439.9858,336.7585,436.0315,335.4892,431.926,333.7878,428.0824,332.8347,424,331.1992,423.9185,330.9664,427.9975,329.7921,431.9635,328.295,436.0722,327.2056,440.0074,325.6205,444,324.1992,444.0191,324.1992,444.1761,326.9992,444.0971,329.7992,443.9969,332.5992,444.0057,335.3992,444,338.1992" style="stroke: #000000; stroke-width: 1.0;"/><path d="M505,642.4892 L505.7103,642.4892 L504.4832,653.3492 L504.8894,664.2092 L504.9068,675.0692 L504.4441,685.9292 L505,696.7892 " fill="none" style="stroke: #000000; stroke-width: 1.0;"/><polygon fill="#000000" points="505,702.1792,504.7737,702.0787,505.8055,700.3816,506.4597,698.5169,507.189,696.6854,508.0411,694.9086,509,693.1792,508.976,693.1552,508.0966,693.8758,507.5643,694.9435,506.7265,695.7057,505.7858,696.365,505,697.1792,504.9578,697.137,504.2269,696.4061,503.2463,695.4255,502.7269,694.9061,501.7251,693.9043,501,693.1792,501.0425,693.1981,501.7412,694.9531,502.4637,696.7186,503.3289,698.5476,504.1504,700.3572,505,702.1792" style="stroke: #000000; stroke-width: 1.0;"/></g></svg>