<?xml version="1.0" encoding="UTF-8" standalone="no"?><svg xmlns="http://www.w3.org/2000/svg" xmlns:xlink="http://www.w3.org/1999/xlink" contentScriptType="application/ecmascript" contentStyleType="text/css" height="675px" preserveAspectRatio="none" style="width:821px;height:675px;background:#FFFFFF;" version="1.1" viewBox="0 0 821 675" width="821px" zoomAndPan="magnify"><defs><filter height="300%" id="fwsecsjxl98xs" width="300%" x="-1" y="-1"><feGaussianBlur result="blurOut" stdDeviation="2.0"/><feColorMatrix in="blurOut" result="blurOut2" type="matrix" values="0 0 0 0 0 0 0 0 0 0 0 0 0 0 0 0 0 0 .4 0"/><feOffset dx="4.0" dy="4.0" in="blurOut2" result="blurOut3"/><feBlend in="SourceGraphic" in2="blurOut3" mode="normal"/></filter></defs><g><text fill="#000000" font-family="sans-serif" font-size="18" lengthAdjust="spacing" textLength="198" x="305" y="16.708">コンテンツフォルダ管理</text><!--MD5=[d6c08cac2b3e3c69744a87b8db5f3d73]
class BcContentsComponent--><polygon fill="#FEFECE" filter="url(#fwsecsjxl98xs)" points="200.5,27.9531,200.5,28.1633,210.7353,27.5388,220.9706,28.1464,231.2059,28.3528,241.4412,27.2397,251.6765,27.8754,261.9118,27.5266,272.1471,27.5696,282.3824,27.885,292.6176,27.2618,302.8529,28.5068,313.0882,27.3228,323.3235,27.7554,333.5588,28.3851,343.7941,27.8673,354.0294,28.0214,364.2647,27.9212,374.5,27.9531,374.6785,27.9531,374.7391,38.125,375.0857,48.2969,375.1711,58.4688,375.1793,68.6406,374.7546,78.8125,374.9636,88.9844,375.2022,99.1563,373.7788,109.3281,375.1785,119.5,374.2035,129.6719,375.0338,139.8438,374.005,150.0156,374.4315,160.1875,374.5,170.3594,374.5,171.101,364.2647,170.3106,354.0294,170.4647,343.7941,170.698,333.5588,170.7756,323.3235,170.3555,313.0882,170.6466,302.8529,169.787,292.6176,170.6438,282.3824,170.9076,272.1471,170.8039,261.9118,170.9724,251.6765,169.8763,241.4412,169.7072,231.2059,169.738,220.9706,170.3005,210.7353,170.1628,200.5,170.3594,201.1814,170.3594,200.3253,160.1875,200.1569,150.0156,200.7283,139.8438,199.8332,129.6719,199.9809,119.5,201.149,109.3281,200.9357,99.1563,201.2345,88.9844,200.1782,78.8125,200.8192,68.6406,201.0904,58.4688,200.0276,48.2969,200.4041,38.125,200.5,27.9531" style="stroke:#A80036;stroke-width:1.5;"/><text fill="#000000" font-family="sans-serif" font-size="12" lengthAdjust="spacing" textLength="144" x="215.5" y="44.0918">BcContentsComponent</text><path d="M201.5,51.9219 L201.5,52.2021 L211.6176,51.3694 L221.7353,52.1796 L231.8529,52.4548 L241.9706,50.9707 L252.0882,51.8183 L262.2059,51.3532 L272.3235,51.4105 L282.4412,51.831 L292.5588,51 L302.6765,52.6601 L312.7941,51.0815 L322.9118,51.6582 L333.0294,52.4978 L343.1471,51.8075 L353.2647,52.0129 L363.3824,51.8793 L373.5,51.9219 " fill="#FEFECE" style="stroke:#A80036;stroke-width:1.5;"/><path d="M201.5,59.9219 L201.5,60.2021 L211.6176,59.3694 L221.7353,60.1796 L231.8529,60.4548 L241.9706,58.9707 L252.0882,59.8183 L262.2059,59.3532 L272.3235,59.4105 L282.4412,59.831 L292.5588,59 L302.6765,60.6601 L312.7941,59.0815 L322.9118,59.6582 L333.0294,60.4978 L343.1471,59.8075 L353.2647,60.0129 L363.3824,59.8793 L373.5,59.9219 " fill="#FEFECE" style="stroke:#A80036;stroke-width:1.5;"/><text fill="#000000" font-family="sans-serif" font-size="11" lengthAdjust="spacing" textLength="84" x="206.5" y="74.1323">+setupAdmin()</text><text fill="#000000" font-family="sans-serif" font-size="11" lengthAdjust="spacing" textLength="78" x="206.5" y="86.937">+setupFront()</text><text fill="#000000" font-family="sans-serif" font-size="11" lengthAdjust="spacing" textLength="85" x="206.5" y="99.7417">+settingForm()</text><text fill="#000000" font-family="sans-serif" font-size="11" lengthAdjust="spacing" textLength="162" x="206.5" y="112.5464">+getParentLayoutTemplate()</text><text fill="#000000" font-family="sans-serif" font-size="11" lengthAdjust="spacing" textLength="69" x="206.5" y="125.3511">+getTypes()</text><text fill="#000000" font-family="sans-serif" font-size="11" lengthAdjust="spacing" textLength="79" x="206.5" y="138.1558">+getContent()</text><text fill="#000000" font-family="sans-serif" font-size="11" lengthAdjust="spacing" textLength="80" x="206.5" y="150.9604">+getCrumbs()</text><text fill="#000000" font-family="sans-serif" font-size="11" lengthAdjust="spacing" textLength="94" x="206.5" y="163.7651">+beforeRender()</text><!--MD5=[99fa8b2be7170b2ce00faa3c68e309a2]
class Admin\ContentFoldersController--><polygon fill="#FEFECE" filter="url(#fwsecsjxl98xs)" points="410,40.4531,410,40.6633,419.7619,40.0388,429.5238,40.6464,439.2857,40.8528,449.0476,39.7397,458.8095,40.3754,468.5714,40.0266,478.3333,40.0696,488.0952,40.385,497.8571,39.7618,507.619,41.0068,517.381,39.8228,527.1429,40.2554,536.9048,40.8851,546.6667,40.3673,556.4286,40.5214,566.1905,40.4212,575.9524,40.6317,585.7143,40.6923,595.4762,41.0388,605.2381,41.1242,615,40.4531,615.6793,40.4531,615.2546,50.1862,615.4636,59.9193,615.7022,69.6523,614.2788,79.3854,615.6785,89.1185,614.7035,98.8516,615.5338,108.5846,614.505,118.3177,614.9315,128.0508,615.7416,137.7839,614.9513,147.5169,615,157.25,615,157.3553,605.2381,157.5886,595.4762,157.6662,585.7143,157.2461,575.9524,157.5372,566.1905,156.6776,556.4286,157.5344,546.6667,157.7982,536.9048,157.6945,527.1429,157.863,517.381,156.7669,507.619,156.5978,497.8571,156.6286,488.0952,157.1911,478.3333,157.0535,468.5714,157.9314,458.8095,157.0753,449.0476,156.9069,439.2857,157.4783,429.5238,156.5832,419.7619,156.7309,410,157.25,410.649,157.25,410.4357,147.5169,410.7345,137.7839,409.6782,128.0508,410.3192,118.3177,410.5904,108.5846,409.5276,98.8516,409.9041,89.1185,410.126,79.3854,410.6518,69.6523,409.9958,59.9193,410.4626,50.1862,410,40.4531" style="stroke:#A80036;stroke-width:1.5;"/><text fill="#000000" font-family="sans-serif" font-size="12" lengthAdjust="spacing" textLength="199" x="413" y="56.5918">Admin\ContentFoldersController</text><path d="M411,64.4219 L411,64.7021 L421.15,63.8694 L431.3,64.6796 L441.45,64.9548 L451.6,63.4707 L461.75,64.3183 L471.9,63.8532 L482.05,63.9105 L492.2,64.331 L502.35,63.5 L512.5,65.1601 L522.65,63.5815 L532.8,64.1582 L542.95,64.9978 L553.1,64.3075 L563.25,64.5129 L573.4,64.3793 L583.55,64.6599 L593.7,64.7407 L603.85,65.2028 L614,64.4219 " fill="#FEFECE" style="stroke:#A80036;stroke-width:1.5;"/><text fill="#000000" font-family="sans-serif" font-size="11" lengthAdjust="spacing" textLength="154" x="416" y="78.6323">+AuthenticationComponent</text><text fill="#000000" font-family="sans-serif" font-size="11" lengthAdjust="spacing" textLength="139" x="416" y="91.437">+BcMessageComponent</text><text fill="#000000" font-family="sans-serif" font-size="11" lengthAdjust="spacing" textLength="139" x="416" y="104.2417">+BcContentsComponent</text><path d="M411,110.8359 L411,111.1162 L421.15,110.2835 L431.3,111.0937 L441.45,111.3688 L451.6,109.8847 L461.75,110.7323 L471.9,110.2673 L482.05,110.3246 L492.2,110.7451 L502.35,109.9141 L512.5,111.5741 L522.65,109.9956 L532.8,110.5722 L542.95,111.4119 L553.1,110.7216 L563.25,110.9269 L573.4,110.7933 L583.55,111.074 L593.7,111.1548 L603.85,111.6169 L614,110.8359 " fill="#FEFECE" style="stroke:#A80036;stroke-width:1.5;"/><text fill="#000000" font-family="sans-serif" font-size="11" lengthAdjust="spacing" textLength="38" x="416" y="125.0464">+edit()</text><text fill="#000000" font-family="sans-serif" font-size="11" lengthAdjust="spacing" textLength="52" x="416" y="137.8511">+delete()</text><text fill="#000000" font-family="sans-serif" font-size="11" lengthAdjust="spacing" textLength="140" x="416" y="150.6558">※ add() は、APIを利用する</text><!--MD5=[89db70b779595c539f4ef00372e3d88a]
class BcAdminContentFolderHelper--><polygon fill="#FEFECE" filter="url(#fwsecsjxl98xs)" points="618,236.4531,618,236.6633,627.9474,236.0388,637.8947,236.6464,647.8421,236.8528,657.7895,235.7397,667.7368,236.3754,677.6842,236.0266,687.6316,236.0696,697.5789,236.385,707.5263,235.7618,717.4737,237.0068,727.4211,235.8228,737.3684,236.2554,747.3158,236.8851,757.2632,236.3673,767.2105,236.5214,777.1579,236.4212,787.1053,236.6317,797.0526,236.6923,807,236.4531,807.5857,236.4531,807.6711,246.251,807.6793,256.0488,807.2546,265.8467,807.4636,275.6445,807.7022,285.4424,806.2788,295.2402,807.6785,305.0381,807,314.8359,807,314.5394,797.0526,315.3697,787.1053,314.3409,777.1579,314.7674,767.2105,315.5775,757.2632,314.7872,747.3158,314.9412,737.3684,315.1746,727.4211,315.2522,717.4737,314.832,707.5263,315.1232,697.5789,314.2635,687.6316,315.1203,677.6842,315.3841,667.7368,315.2805,657.7895,315.449,647.8421,314.3529,637.8947,314.1838,627.9474,314.2145,618,314.8359,617.9411,314.8359,617.8035,305.0381,618.6814,295.2402,617.8253,285.4424,617.6569,275.6445,618.2283,265.8467,617.3332,256.0488,617.4809,246.251,618,236.4531" style="stroke:#A80036;stroke-width:1.5;"/><text fill="#000000" font-family="sans-serif" font-size="12" lengthAdjust="spacing" textLength="183" x="621" y="252.5918">BcAdminContentFolderHelper</text><path d="M619,260.4219 L619,260.7021 L628.8421,259.8694 L638.6842,260.6796 L648.5263,260.9548 L658.3684,259.4707 L668.2105,260.3183 L678.0526,259.8532 L687.8947,259.9105 L697.7368,260.331 L707.5789,259.5 L717.4211,261.1601 L727.2632,259.5815 L737.1053,260.1582 L746.9474,260.9978 L756.7895,260.3075 L766.6316,260.5129 L776.4737,260.3793 L786.3158,260.6599 L796.1579,260.7407 L806,260.4219 " fill="#FEFECE" style="stroke:#A80036;stroke-width:1.5;"/><path d="M619,268.4219 L619,268.7021 L628.8421,267.8694 L638.6842,268.6796 L648.5263,268.9548 L658.3684,267.4707 L668.2105,268.3183 L678.0526,267.8532 L687.8947,267.9105 L697.7368,268.331 L707.5789,267.5 L717.4211,269.1601 L727.2632,267.5815 L737.1053,268.1582 L746.9474,268.9978 L756.7895,268.3075 L766.6316,268.5129 L776.4737,268.3793 L786.3158,268.6599 L796.1579,268.7407 L806,268.4219 " fill="#FEFECE" style="stroke:#A80036;stroke-width:1.5;"/><text fill="#000000" font-family="sans-serif" font-size="11" lengthAdjust="spacing" textLength="143" x="624" y="282.6323">+getFolderTemplateList()</text><text fill="#000000" font-family="sans-serif" font-size="11" lengthAdjust="spacing" textLength="136" x="624" y="295.437">+getPageTemplateList()</text><text fill="#000000" font-family="sans-serif" font-size="11" lengthAdjust="spacing" textLength="98" x="624" y="308.2417">+getPublishLink()</text><!--MD5=[03d9ed901d5615822f815956efebb809]
class ContentFolderService--><polygon fill="#FEFECE" filter="url(#fwsecsjxl98xs)" points="442.5,248.9531,442.5,249.1633,452.5,248.5388,462.5,249.1464,472.5,249.3528,482.5,248.2397,492.5,248.8754,502.5,248.5266,512.5,248.5696,522.5,248.885,532.5,248.2618,542.5,249.5068,552.5,248.3228,562.5,248.7554,572.5,249.3851,582.5,248.9531,582.4142,248.9531,582.5682,259.5078,582.4681,270.0625,582.6785,280.6172,582.7391,291.1719,582.5,301.7266,582.5,302.3123,572.5,302.3976,562.5,302.4058,552.5,301.9812,542.5,302.1901,532.5,302.4288,522.5,301.0054,512.5,302.4051,502.5,301.4301,492.5,302.2604,482.5,301.2315,472.5,301.6581,462.5,302.4682,452.5,301.6778,442.5,301.7266,442.6053,301.7266,442.8386,291.1719,442.9162,280.6172,442.4961,270.0625,442.7872,259.5078,442.5,248.9531" style="stroke:#A80036;stroke-width:1.5;"/><text fill="#000000" font-family="sans-serif" font-size="12" lengthAdjust="spacing" textLength="134" x="445.5" y="265.0918">ContentFolderService</text><path d="M443.5,272.9219 L443.5,273.2021 L453.3571,272.3694 L463.2143,273.1796 L473.0714,273.4548 L482.9286,271.9707 L492.7857,272.8183 L502.6429,272.3532 L512.5,272.4105 L522.3571,272.831 L532.2143,272 L542.0714,273.6601 L551.9286,272.0815 L561.7857,272.6582 L571.6429,273.4978 L581.5,272.9219 " fill="#FEFECE" style="stroke:#A80036;stroke-width:1.5;"/><text fill="#000000" font-family="sans-serif" font-size="11" lengthAdjust="spacing" textLength="126" x="448.5" y="287.1323">+ContentFoldersTable</text><path d="M443.5,293.7266 L443.5,294.0068 L453.3571,293.1741 L463.2143,293.9843 L473.0714,294.2595 L482.9286,292.7754 L492.7857,293.6229 L502.6429,293.1579 L512.5,293.2152 L522.3571,293.6357 L532.2143,292.8047 L542.0714,294.4648 L551.9286,292.8862 L561.7857,293.4629 L571.6429,294.3025 L581.5,293.7266 " fill="#FEFECE" style="stroke:#A80036;stroke-width:1.5;"/><!--MD5=[94c178f9fa899936e99791245ab28541]
class ContentFolderServiceInterface--><polygon fill="#FEFECE" filter="url(#fwsecsjxl98xs)" points="211.5,229.9531,211.5,230.1633,221.3,229.5388,231.1,230.1464,240.9,230.3528,250.7,229.2397,260.5,229.8754,270.3,229.5266,280.1,229.5696,289.9,229.885,299.7,229.2618,309.5,230.5068,319.3,229.3228,329.1,229.7554,338.9,230.3851,348.7,229.8673,358.5,230.0214,368.3,229.9212,378.1,230.1317,387.9,230.1923,397.7,230.5388,407.5,229.9531,408.1711,229.9531,408.1793,240.0851,407.7546,250.217,407.9636,260.349,408.2022,270.4809,406.7788,280.6128,408.1785,290.7448,407.2035,300.8767,408.0338,311.0087,407.5,321.1406,407.5,320.6456,397.7,321.0721,387.9,321.8822,378.1,321.0919,368.3,321.2459,358.5,321.4793,348.7,321.5569,338.9,321.1367,329.1,321.4278,319.3,320.5682,309.5,321.425,299.7,321.6888,289.9,321.5852,280.1,321.7536,270.3,320.6575,260.5,320.4884,250.7,320.5192,240.9,321.0817,231.1,320.9441,221.3,321.822,211.5,321.1406,211.3253,321.1406,211.1569,311.0087,211.7283,300.8767,210.8332,290.7448,210.9809,280.6128,212.149,270.4809,211.9357,260.349,212.2345,250.217,211.1782,240.0851,211.5,229.9531" style="stroke:#A80036;stroke-width:1.5;"/><text fill="#000000" font-family="sans-serif" font-size="12" lengthAdjust="spacing" textLength="190" x="214.5" y="246.0918">ContentFolderServiceInterface</text><path d="M212.5,253.9219 L212.5,254.2021 L222.7105,253.3694 L232.9211,254.1796 L243.1316,254.4548 L253.3421,252.9707 L263.5526,253.8183 L273.7632,253.3532 L283.9737,253.4105 L294.1842,253.831 L304.3947,253 L314.6053,254.6601 L324.8158,253.0815 L335.0263,253.6582 L345.2368,254.4978 L355.4474,253.8075 L365.6579,254.0129 L375.8684,253.8793 L386.0789,254.1599 L396.2895,254.2407 L406.5,253.9219 " fill="#FEFECE" style="stroke:#A80036;stroke-width:1.5;"/><path d="M212.5,261.9219 L212.5,262.2021 L222.7105,261.3694 L232.9211,262.1796 L243.1316,262.4548 L253.3421,260.9707 L263.5526,261.8183 L273.7632,261.3532 L283.9737,261.4105 L294.1842,261.831 L304.3947,261 L314.6053,262.6601 L324.8158,261.0815 L335.0263,261.6582 L345.2368,262.4978 L355.4474,261.8075 L365.6579,262.0129 L375.8684,261.8793 L386.0789,262.1599 L396.2895,262.2407 L406.5,261.9219 " fill="#FEFECE" style="stroke:#A80036;stroke-width:1.5;"/><text fill="#000000" font-family="sans-serif" font-size="11" lengthAdjust="spacing" textLength="102" x="217.5" y="276.1323">+isOverPostSize()</text><text fill="#000000" font-family="sans-serif" font-size="11" lengthAdjust="spacing" textLength="143" x="217.5" y="288.937">+getFolderTemplateList()</text><text fill="#000000" font-family="sans-serif" font-size="11" lengthAdjust="spacing" textLength="136" x="217.5" y="301.7417">+getPageTemplateList()</text><text fill="#000000" font-family="sans-serif" font-size="11" lengthAdjust="spacing" textLength="98" x="217.5" y="314.5464">+getPublishLink()</text><!--MD5=[7837417a110e24e582c20d162b7c3c29]
class ContentFoldersTable--><polygon fill="#FEFECE" filter="url(#fwsecsjxl98xs)" points="435,387.4531,435,387.6633,444.6875,387.0388,454.375,387.6464,464.0625,387.8528,473.75,386.7397,483.4375,387.3754,493.125,387.0266,502.8125,387.0696,512.5,387.385,522.1875,386.7618,531.875,388.0068,541.5625,386.8228,551.25,387.2554,560.9375,387.8851,570.625,387.3673,580.3125,387.5214,590,387.4531,589.9681,387.4531,590.1785,397.8523,590.2391,408.2516,590.5857,418.6508,590.6711,429.05,590.6793,439.4492,590.2546,449.8484,590.4636,460.2477,590.7022,470.6469,589.2788,481.0461,590,491.4453,590,492.1238,580.3125,491.1488,570.625,491.9791,560.9375,490.9503,551.25,491.3768,541.5625,492.1869,531.875,491.3966,522.1875,491.5506,512.5,491.7839,502.8125,491.8615,493.125,491.4414,483.4375,491.7325,473.75,490.8729,464.0625,491.7297,454.375,491.9935,444.6875,491.8898,435,491.4453,435.613,491.4453,434.5169,481.0461,434.3478,470.6469,434.3786,460.2477,434.9411,449.8484,434.8035,439.4492,435.6814,429.05,434.8253,418.6508,434.6569,408.2516,435.2283,397.8523,435,387.4531" style="stroke:#A80036;stroke-width:1.5;"/><text fill="#000000" font-family="sans-serif" font-size="12" lengthAdjust="spacing" textLength="130" x="447.5" y="403.5918">ContentFoldersTable</text><path d="M436,411.4219 L436,411.7021 L446.2,410.8694 L456.4,411.6796 L466.6,411.9548 L476.8,410.4707 L487,411.3183 L497.2,410.8532 L507.4,410.9105 L517.6,411.331 L527.8,410.5 L538,412.1601 L548.2,410.5815 L558.4,411.1582 L568.6,411.9978 L578.8,411.3075 L589,411.4219 " fill="#FEFECE" style="stroke:#A80036;stroke-width:1.5;"/><path d="M436,419.4219 L436,419.7021 L446.2,418.8694 L456.4,419.6796 L466.6,419.9548 L476.8,418.4707 L487,419.3183 L497.2,418.8532 L507.4,418.9105 L517.6,419.331 L527.8,418.5 L538,420.1601 L548.2,418.5815 L558.4,419.1582 L568.6,419.9978 L578.8,419.3075 L589,419.4219 " fill="#FEFECE" style="stroke:#A80036;stroke-width:1.5;"/><text fill="#000000" font-family="sans-serif" font-size="11" lengthAdjust="spacing" textLength="125" x="441" y="433.6323">+getParentTemplate()</text><text fill="#000000" font-family="sans-serif" font-size="11" lengthAdjust="spacing" textLength="143" x="441" y="446.437">+getFolderTemplateList()</text><text fill="#000000" font-family="sans-serif" font-size="11" lengthAdjust="spacing" textLength="91" x="441" y="459.2417">+saveSiteRoot()</text><text fill="#000000" font-family="sans-serif" font-size="11" lengthAdjust="spacing" textLength="136" x="441" y="472.0464">+movePageTemplates()</text><text fill="#000000" font-family="sans-serif" font-size="11" lengthAdjust="spacing" textLength="112" x="441" y="484.8511">+setBeforeRecord()</text><!--MD5=[394fc4ce2a2111f29f56590ede5be75b]
class SearchIndiceTable--><polygon fill="#FEFECE" filter="url(#fwsecsjxl98xs)" points="625,412.9531,625,413.1633,635.0833,412.5388,645.1667,413.1464,655.25,413.3528,665.3333,412.2397,675.4167,412.8754,685.5,412.5266,695.5833,412.5696,705.6667,412.885,715.75,412.2618,725.8333,413.5068,735.9167,412.3228,746,412.9531,745.8022,412.9531,746.4319,423.5078,745.9142,434.0625,746.0682,444.6172,745.9681,455.1719,746,465.7266,746,465.9051,735.9167,465.9657,725.8333,466.3123,715.75,466.3976,705.6667,466.4058,695.5833,465.9812,685.5,466.1901,675.4167,466.4288,665.3333,465.0054,655.25,466.4051,645.1667,465.4301,635.0833,466.2604,625,465.7266,624.505,465.7266,624.9315,455.1719,625.7416,444.6172,624.9513,434.0625,625.1053,423.5078,625,412.9531" style="stroke:#A80036;stroke-width:1.5;"/><text fill="#000000" font-family="sans-serif" font-size="12" lengthAdjust="spacing" textLength="115" x="628" y="429.0918">SearchIndiceTable</text><path d="M626,436.9219 L626,437.2021 L635.9167,436.3694 L645.8333,437.1796 L655.75,437.4548 L665.6667,435.9707 L675.5833,436.8183 L685.5,436.3532 L695.4167,436.4105 L705.3333,436.831 L715.25,436 L725.1667,437.6601 L735.0833,436.0815 L745,436.9219 " fill="#FEFECE" style="stroke:#A80036;stroke-width:1.5;"/><path d="M626,444.9219 L626,445.2021 L635.9167,444.3694 L645.8333,445.1796 L655.75,445.4548 L665.6667,443.9707 L675.5833,444.8183 L685.5,444.3532 L695.4167,444.4105 L705.3333,444.831 L715.25,444 L725.1667,445.6601 L735.0833,444.0815 L745,444.9219 " fill="#FEFECE" style="stroke:#A80036;stroke-width:1.5;"/><text fill="#000000" font-family="sans-serif" font-size="11" lengthAdjust="spacing" textLength="82" x="631" y="459.1323">+reconstruct()</text><!--MD5=[65b7fcb7b54aee44bdb7b52a9c3d2982]
class ContentFolder--><polygon fill="#FEFECE" filter="url(#fwsecsjxl98xs)" points="219.5,557.9531,219.5,558.1633,229.5,557.5388,239.5,558.1464,249.5,558.3528,259.5,557.2397,269.5,557.8754,279.5,557.5266,289.5,557.5696,299.5,557.885,309.5,557.2618,319.5,558.5068,329.5,557.9531,328.8697,557.9531,329.3022,568.3523,329.9319,578.7516,329.4142,589.1508,329.5682,599.55,329.4681,609.9492,329.6785,620.3484,329.7391,630.7477,330.0857,641.1469,330.1711,651.5461,329.5,661.9453,329.5,662.6246,319.5,662.1999,309.5,662.4089,299.5,662.6475,289.5,661.2241,279.5,662.6238,269.5,661.6488,259.5,662.4791,249.5,661.4503,239.5,661.8768,229.5,662.6869,219.5,661.9453,219.4513,661.9453,219.6053,651.5461,219.8386,641.1469,219.9162,630.7477,219.4961,620.3484,219.7872,609.9492,218.9276,599.55,219.7844,589.1508,220.0482,578.7516,219.9445,568.3523,219.5,557.9531" style="stroke:#A80036;stroke-width:1.5;"/><text fill="#000000" font-family="sans-serif" font-size="12" lengthAdjust="spacing" textLength="89" x="230" y="574.0918">ContentFolder</text><path d="M220.5,581.9219 L220.5,582.2021 L230.3182,581.3694 L240.1364,582.1796 L249.9545,582.4548 L259.7727,580.9707 L269.5909,581.8183 L279.4091,581.3532 L289.2273,581.4105 L299.0455,581.831 L308.8636,581 L318.6818,582.6601 L328.5,581.9219 " fill="#FEFECE" style="stroke:#A80036;stroke-width:1.5;"/><text fill="#000000" font-family="sans-serif" font-size="11" lengthAdjust="spacing" textLength="19" x="225.5" y="596.1323">+id</text><text fill="#000000" font-family="sans-serif" font-size="11" lengthAdjust="spacing" textLength="98" x="225.5" y="608.937">+folder_template</text><text fill="#000000" font-family="sans-serif" font-size="11" lengthAdjust="spacing" textLength="93" x="225.5" y="621.7417">+page_template</text><text fill="#000000" font-family="sans-serif" font-size="11" lengthAdjust="spacing" textLength="52" x="225.5" y="634.5464">+created</text><text fill="#000000" font-family="sans-serif" font-size="11" lengthAdjust="spacing" textLength="58" x="225.5" y="647.3511">+modified</text><path d="M220.5,653.9453 L220.5,654.2256 L230.3182,653.3929 L240.1364,654.203 L249.9545,654.4782 L259.7727,652.9941 L269.5909,653.8417 L279.4091,653.3767 L289.2273,653.434 L299.0455,653.8544 L308.8636,653.0235 L318.6818,654.6835 L328.5,653.9453 " fill="#FEFECE" style="stroke:#A80036;stroke-width:1.5;"/><!--MD5=[c688d877e58b44c3bfe0ca48b0db172d]
class BcContentsBehavior--><polygon fill="#FEFECE" filter="url(#fwsecsjxl98xs)" points="267.5,380.9531,267.5,381.1633,277.6538,380.5388,287.8077,381.1464,297.9615,381.3528,308.1154,380.2397,318.2692,380.8754,328.4231,380.5266,338.5769,380.5696,348.7308,380.885,358.8846,380.2618,369.0385,381.5068,379.1923,380.3228,389.3462,380.7554,399.5,380.9531,399.9319,380.9531,399.4142,390.6862,399.5682,400.4193,399.4681,410.1523,399.6785,419.8854,399.7391,429.6185,400.0857,439.3516,400.1711,449.0846,400.1793,458.8177,399.7546,468.5508,399.9636,478.2839,400.2022,488.0169,399.5,497.75,399.5,497.0288,389.3462,498.4285,379.1923,497.4535,369.0385,498.2838,358.8846,497.255,348.7308,497.6815,338.5769,498.4916,328.4231,497.7013,318.2692,497.8553,308.1154,498.0886,297.9615,498.1662,287.8077,497.7461,277.6538,498.0372,267.5,497.75,266.9276,497.75,267.7844,488.0169,268.0482,478.2839,267.9445,468.5508,268.113,458.8177,267.0169,449.0846,266.8478,439.3516,266.8786,429.6185,267.4411,419.8854,267.3035,410.1523,268.1814,400.4193,267.3253,390.6862,267.5,380.9531" style="stroke:#A80036;stroke-width:1.5;"/><text fill="#000000" font-family="sans-serif" font-size="12" lengthAdjust="spacing" textLength="126" x="270.5" y="397.0918">BcContentsBehavior</text><path d="M268.5,404.9219 L268.5,405.2021 L278.5,404.3694 L288.5,405.1796 L298.5,405.4548 L308.5,403.9707 L318.5,404.8183 L328.5,404.3532 L338.5,404.4105 L348.5,404.831 L358.5,404 L368.5,405.6601 L378.5,404.0815 L388.5,404.6582 L398.5,404.9219 " fill="#FEFECE" style="stroke:#A80036;stroke-width:1.5;"/><path d="M268.5,412.9219 L268.5,413.2021 L278.5,412.3694 L288.5,413.1796 L298.5,413.4548 L308.5,411.9707 L318.5,412.8183 L328.5,412.3532 L338.5,412.4105 L348.5,412.831 L358.5,412 L368.5,413.6601 L378.5,412.0815 L388.5,412.6582 L398.5,412.9219 " fill="#FEFECE" style="stroke:#A80036;stroke-width:1.5;"/><text fill="#000000" font-family="sans-serif" font-size="11" lengthAdjust="spacing" textLength="62" x="273.5" y="427.1323">+initialize()</text><text fill="#000000" font-family="sans-serif" font-size="11" lengthAdjust="spacing" textLength="99" x="273.5" y="439.937">+beforeMarshal()</text><text fill="#000000" font-family="sans-serif" font-size="11" lengthAdjust="spacing" textLength="72" x="273.5" y="452.7417">+afterSave()</text><text fill="#000000" font-family="sans-serif" font-size="11" lengthAdjust="spacing" textLength="90" x="273.5" y="465.5464">+beforeDelete()</text><text fill="#000000" font-family="sans-serif" font-size="11" lengthAdjust="spacing" textLength="80" x="273.5" y="478.3511">+afterDelete()</text><text fill="#000000" font-family="sans-serif" font-size="11" lengthAdjust="spacing" textLength="93" x="273.5" y="491.1558">+findPublished()</text><!--MD5=[0fd42b747fce3697971fe54425541b52]
class ContentsTable--><polygon fill="#FEFECE" filter="url(#fwsecsjxl98xs)" points="101,380.9531,101,381.1633,111.0769,380.5388,121.1538,381.1464,131.2308,381.3528,141.3077,380.2397,151.3846,380.8754,161.4615,380.5266,171.5385,380.5696,181.6154,380.885,191.6923,380.2618,201.7692,381.5068,211.8462,380.3228,221.9231,380.7554,232,380.9531,232.4319,380.9531,231.9142,390.6862,232.0682,400.4193,231.9681,410.1523,232.1785,419.8854,232.2391,429.6185,232.5857,439.3516,232.6711,449.0846,232.6793,458.8177,232.2546,468.5508,232.4636,478.2839,232.7022,488.0169,232,497.75,232,497.0288,221.9231,498.4285,211.8462,497.4535,201.7692,498.2838,191.6923,497.255,181.6154,497.6815,171.5385,498.4916,161.4615,497.7013,151.3846,497.8553,141.3077,498.0886,131.2308,498.1662,121.1538,497.7461,111.0769,498.0372,101,497.75,100.4276,497.75,101.2844,488.0169,101.5482,478.2839,101.4445,468.5508,101.613,458.8177,100.5169,449.0846,100.3478,439.3516,100.3786,429.6185,100.9411,419.8854,100.8035,410.1523,101.6814,400.4193,100.8253,390.6862,101,380.9531" style="stroke:#A80036;stroke-width:1.5;"/><text fill="#000000" font-family="sans-serif" font-size="12" lengthAdjust="spacing" textLength="91" x="121" y="397.0918">ContentsTable</text><path d="M102,404.9219 L102,405.2021 L111.9231,404.3694 L121.8462,405.1796 L131.7692,405.4548 L141.6923,403.9707 L151.6154,404.8183 L161.5385,404.3532 L171.4615,404.4105 L181.3846,404.831 L191.3077,404 L201.2308,405.6601 L211.1538,404.0815 L221.0769,404.6582 L231,404.9219 " fill="#FEFECE" style="stroke:#A80036;stroke-width:1.5;"/><text fill="#000000" font-family="sans-serif" font-size="11" lengthAdjust="spacing" textLength="100" x="107" y="419.1323">+updatingRelated</text><path d="M102,425.7266 L102,426.0068 L111.9231,425.1741 L121.8462,425.9843 L131.7692,426.2595 L141.6923,424.7754 L151.6154,425.6229 L161.5385,425.1579 L171.4615,425.2152 L181.3846,425.6357 L191.3077,424.8047 L201.2308,426.4648 L211.1538,424.8862 L221.0769,425.4629 L231,425.7266 " fill="#FEFECE" style="stroke:#A80036;stroke-width:1.5;"/><text fill="#000000" font-family="sans-serif" font-size="11" lengthAdjust="spacing" textLength="119" x="107" y="439.937">+updateChildrenUrl()</text><text fill="#000000" font-family="sans-serif" font-size="11" lengthAdjust="spacing" textLength="60" x="107" y="452.7417">+getPath()</text><text fill="#000000" font-family="sans-serif" font-size="11" lengthAdjust="spacing" textLength="97" x="107" y="465.5464">+createContent()</text><text fill="#000000" font-family="sans-serif" font-size="11" lengthAdjust="spacing" textLength="75" x="107" y="478.3511">+softDelete()</text><text fill="#000000" font-family="sans-serif" font-size="11" lengthAdjust="spacing" textLength="115" x="107" y="491.1558">+removeFromTree()</text><!--MD5=[fd7366e9f96236d9aa60dcc04f2b83e5]
class Content--><polygon fill="#FEFECE" filter="url(#fwsecsjxl98xs)" points="7,412.9531,7,413.1633,16.8333,412.5388,26.6667,413.1464,36.5,413.3528,46.3333,412.2397,56.1667,412.8754,66,412.9531,65.5735,412.9531,65.6165,423.5078,65.9318,434.0625,65.3086,444.6172,66.5536,455.1719,66,465.7266,66,465.0963,56.1667,465.5288,46.3333,466.1585,36.5,465.6408,26.6667,465.7948,16.8333,465.6946,7,465.7266,7.1785,465.7266,7.2391,455.1719,7.5857,444.6172,7.6711,434.0625,7.6793,423.5078,7,412.9531" style="stroke:#A80036;stroke-width:1.5;"/><text fill="#000000" font-family="sans-serif" font-size="12" lengthAdjust="spacing" textLength="50" x="11.5" y="429.0918">Content</text><path d="M8,436.9219 L8,437.2021 L17.5,436.3694 L27,437.1796 L36.5,437.4548 L46,435.9707 L55.5,436.8183 L65,436.9219 " fill="#FEFECE" style="stroke:#A80036;stroke-width:1.5;"/><text fill="#000000" font-family="sans-serif" font-size="11" lengthAdjust="spacing" textLength="47" x="13" y="451.1323">entity_id</text><path d="M8,457.7266 L8,458.0068 L17.5,457.1741 L27,457.9843 L36.5,458.2595 L46,456.7754 L55.5,457.6229 L65,457.7266 " fill="#FEFECE" style="stroke:#A80036;stroke-width:1.5;"/><!--MD5=[0678db8fbb9df8ad85bc804ea3432361]
reverse link BcContentsComponent to Admin\ContentFoldersController--><path d="M379.75,98.9531 L379.75,99.0465 L385.764,98.769 L391.778,99.039 L397.792,99.1308 L403.806,98.6361 L409.82,98.9531 " fill="none" style="stroke:#000000;stroke-width:1.0;"/><polygon fill="#000000" points="374.51,98.9531,374.5385,99.0171,376.2539,99.6269,378.1362,100.612,379.9641,101.4749,381.6134,101.9358,383.51,102.9531,383.4917,102.9348,382.6095,102.0526,381.8196,101.2627,381.0939,100.5371,380.147,99.5902,379.51,98.9531,379.6405,99.0836,380.1614,98.0046,381.0634,97.3065,382.0118,96.6549,382.6898,95.7329,383.51,94.9531,383.5192,94.9739,381.7057,95.7434,379.9342,96.6075,378.1424,97.426,376.3893,98.3315,374.51,98.9531" style="stroke:#000000;stroke-width:1.0;"/><!--MD5=[5331be901c3b39256964afb9d8153d02]
link Admin\ContentFoldersController to ContentFolderService--><path d="M512.5,157.5731 L512.7802,157.5731 L511.9476,167.1076 L512.7577,176.642 L513.0329,186.1765 L511.5488,195.7109 L512.3964,205.2453 L511.9313,214.7798 L511.9887,224.3142 L512.4091,233.8487 L512.5,243.3831 " fill="none" style="stroke:#000000;stroke-width:1.0;"/><polygon fill="#000000" points="512.5,248.6031,512.564,248.6316,513.1738,246.747,514.1589,245.0293,515.0217,243.2572,515.4827,241.3065,516.5,239.6031,516.4817,239.5848,515.5995,240.3026,514.8096,241.1127,514.0839,241.9871,513.137,242.6402,512.5,243.6031,512.6305,243.7336,511.5514,242.6546,510.8534,241.9565,510.2018,241.3049,509.2798,240.3829,508.5,239.6031,508.5208,239.6124,509.2903,241.3988,510.1544,243.2273,510.9728,245.0355,511.8784,246.8824,512.5,248.6031" style="stroke:#000000;stroke-width:1.0;"/><!--MD5=[9f81ad5c4e88e2451634bf6798d2ad7a]
reverse link ContentFolderService to BcAdminContentFolderHelper--><path d="M588,275.4531 L588,275.5465 L593.954,275.269 L599.908,275.539 L605.862,275.6308 L611.816,275.1361 L617.77,275.4531 " fill="none" style="stroke:#000000;stroke-width:1.0;"/><polygon fill="#000000" points="582.81,275.4531,582.8385,275.5171,584.5539,276.1269,586.4362,277.112,588.2641,277.9749,589.9134,278.4358,591.81,279.4531,591.7917,279.4348,590.9095,278.5526,590.1196,277.7627,589.3939,277.0371,588.447,276.0902,587.81,275.4531,587.9405,275.5836,588.4614,274.5046,589.3634,273.8065,590.3118,273.1549,590.9898,272.2329,591.81,271.4531,591.8192,271.4739,590.0057,272.2434,588.2342,273.1075,586.4424,273.926,584.6893,274.8315,582.81,275.4531" style="stroke:#000000;stroke-width:1.0;"/><!--MD5=[349f03963aab7f86044a16beb929eae5]
reverse link ContentFolderServiceInterface to ContentFolderService--><path d="M427.95,275.4531 L427.95,275.5465 L430.794,275.269 L433.638,275.539 L436.482,275.6308 L439.326,275.1361 L442.17,275.4531 " fill="none" style="stroke:#000000;stroke-width:1.0;stroke-dasharray:1.0,3.0;"/><polygon fill="none" points="427.83,282.4531,427.8531,282.5193,423.7844,280.9228,419.8513,279.7139,415.874,278.3789,411.7514,276.6287,407.83,275.4531,407.8214,275.4287,411.783,273.9189,415.7878,272.5325,419.8225,271.2317,423.7539,269.6356,427.83,268.4531,428.0145,268.4531,427.6199,271.2531,427.7641,274.0531,427.974,276.8531,427.8014,279.6531,427.83,282.4531" style="stroke:#000000;stroke-width:1.0;"/><!--MD5=[ecd754db197917ab262cece11395d0e5]
link ContentFolderService to ContentFoldersTable--><path d="M512.5,302.1231 L512.7802,302.1231 L511.9476,312.1544 L512.7577,322.1856 L513.0329,332.2169 L511.5488,342.2481 L512.3964,352.2794 L511.9313,362.3106 L511.9887,372.3419 L512.5,382.3731 " fill="none" style="stroke:#000000;stroke-width:1.0;"/><polygon fill="#000000" points="512.5,387.4131,512.564,387.4416,513.1738,385.557,514.1589,383.8393,515.0217,382.0672,515.4827,380.1165,516.5,378.4131,516.4817,378.3948,515.5995,379.1126,514.8096,379.9227,514.0839,380.7971,513.137,381.4502,512.5,382.4131,512.6305,382.5436,511.5514,381.4646,510.8534,380.7665,510.2018,380.1149,509.2798,379.1929,508.5,378.4131,508.5208,378.4224,509.2903,380.2088,510.1544,382.0373,510.9728,383.8455,511.8784,385.6924,512.5,387.4131" style="stroke:#000000;stroke-width:1.0;"/><!--MD5=[ff538b67d0bc8f022ecdb7f85bfb3c2a]
link ContentFoldersTable to SearchIndiceTable--><path d="M590.21,439.4531 L590.21,439.5465 L596.106,439.269 L602.002,439.539 L607.898,439.6308 L613.794,439.1361 L619.69,439.4531 " fill="none" style="stroke:#000000;stroke-width:1.0;"/><polygon fill="#000000" points="624.83,439.4531,624.8585,439.5171,622.9739,438.5269,621.2562,437.912,619.4841,437.1749,617.5334,436.0358,615.83,435.4531,615.8117,435.4348,616.5295,436.1526,617.3396,436.9627,618.2139,437.8371,618.867,438.4902,619.83,439.4531,619.9605,439.5836,618.8814,440.1046,618.1834,441.0065,617.5318,441.9549,616.6098,442.6329,615.83,443.4531,615.8392,443.4739,617.6257,442.6434,619.4542,441.9075,621.2624,441.126,623.1093,440.4315,624.83,439.4531" style="stroke:#000000;stroke-width:1.0;"/><!--MD5=[7c2b94b5825d8042d63204b1810946e8]
reverse link BcContentsBehavior to ContentFoldersTable--><path d="M404.81,439.4531 L404.81,439.5465 L410.82,439.269 L416.83,439.539 L422.84,439.6308 L428.85,439.1361 L434.86,439.4531 " fill="none" style="stroke:#000000;stroke-width:1.0;"/><polygon fill="#000000" points="399.58,439.4531,399.6085,439.5171,401.3239,440.1269,403.2062,441.112,405.0341,441.9749,406.6834,442.4358,408.58,443.4531,408.5617,443.4348,407.6795,442.5526,406.8896,441.7627,406.1639,441.0371,405.217,440.0902,404.58,439.4531,404.7105,439.5836,405.2314,438.5046,406.1334,437.8065,407.0818,437.1549,407.7598,436.2329,408.58,435.4531,408.5892,435.4739,406.7757,436.2434,405.0042,437.1075,403.2124,437.926,401.4593,438.8315,399.58,439.4531" style="stroke:#000000;stroke-width:1.0;"/><!--MD5=[6d4b7efb1ab2d486d40d6c5a58fcdceb]
reverse link ContentsTable to ContentFoldersTable--><path d="M223.08,377.4031 L223.1369,377.4772 L225.0148,375.6849 L227.2262,374.3269 L229.329,372.8275 L231.0746,370.863 L233.3147,369.5423 L233.2955,369.5136 L235.3656,367.9466 L237.5322,366.5244 L239.7661,365.2029 L241.7684,363.5343 L244.095,362.3519 L244.2149,362.5668 L246.2091,360.8518 L248.5533,359.7642 L250.9402,358.7531 L253.0787,357.2967 L255.3478,356.0745 L255.36,356.1023 L257.6725,355.0373 L260.0406,354.0986 L262.3819,353.099 L264.7743,352.2157 L267,350.9531 L267.1024,351.2333 L269.0873,350.5119 L271.0062,349.6098 L273.0218,348.9722 L275.0419,348.347 L276.9185,347.3291 L276.8163,347.0253 L278.8621,346.9935 L280.5714,345.9614 L282.5365,345.6897 L284.2382,344.6349 L286.1558,344.2221 L286.1476,344.1927 L289.6091,343.6012 L292.8796,342.3244 L296.2628,341.452 L299.6555,340.6135 L302.9798,339.5302 L303.0122,339.7123 L306.0353,338.9863 L309.1137,338.5716 L312.1027,337.6532 L315.225,337.486 L318.2587,336.8194 L318.2719,337.0627 L321.1734,336.8592 L324.0815,336.7765 L326.9591,336.1325 L329.859,335.9 L332.7787,336.0319 L332.7583,335.7565 L335.6864,336.2213 L338.5914,336.3758 L341.5298,336.9805 L344.4112,336.8165 L347.3265,337.1095 L347.2983,336.9596 L350.4176,337.7861 L353.4165,337.9721 L356.501,338.6136 L359.6691,339.7007 L362.6883,339.9942 L362.7393,340.181 L366.1668,341.2359 L369.4355,341.7098 L372.9031,342.9114 L376.3273,343.9545 L379.6506,344.6281 L379.5872,344.428 L381.5032,345.1784 L383.3984,345.8634 L385.3344,346.6771 L387.1118,346.9901 L388.9778,347.5828 L389.0433,347.7777 L390.9038,348.0236 L392.8907,348.6457 L395.0625,349.8172 L396.894,349.977 L399,350.9531 L399.0868,351.162 L402.3393,352.4115 L405.5625,353.5904 L408.8519,354.9287 L412.2946,356.6358 L415.5205,357.8211 L415.4566,357.7044 L418.8315,359.7964 L421.7717,361.095 L425.2063,363.2957 L428.3625,364.9885 L431.4438,366.5444 L431.504,366.6351 L434.4776,368.5694 L437.667,370.8284 L440.6615,372.7941 L443.5745,374.6372 L446.5552,376.582 L446.6277,376.6766 L449.3369,378.6983 L452.383,381.1591 L455.048,383.1233 L457.8697,385.2917 L460.64,387.3931 " fill="none" style="stroke:#000000;stroke-width:1.0;"/><polygon fill="#000000" points="219.02,380.7931,219.0392,380.8605,220.876,380.1191,222.8256,379.7726,224.7385,379.2976,226.5305,378.3996,228.4898,378.0871,228.4875,378.0613,227.3503,377.8451,226.2246,377.759,225.1071,377.7633,223.9617,377.456,222.8553,377.5852,223.0391,377.6016,222.7464,376.4396,222.9903,375.3255,223.2998,374.2172,223.2283,373.075,223.3571,371.9506,223.3775,371.9607,222.4801,373.7145,221.6757,375.5138,220.8264,377.2912,220.0627,379.1106,219.02,380.7931" style="stroke:#000000;stroke-width:1.0;"/><!--MD5=[f27aa0d86db2ed393152c212bee19188]
link ContentFoldersTable to ContentFolder--><path d="M440.45,491.4631 L440.6119,491.6918 L431.9408,496.8107 L424.2189,503.2704 L416.1879,509.2934 L407.1404,513.8806 L399.4401,520.3709 L390.9814,525.7898 L382.8245,531.635 L374.8775,537.7766 L366.2073,542.8969 L358.9765,550.0502 L349.8744,554.5603 L342.0176,560.8295 L333.98,566.8431 " fill="none" style="stroke:#000000;stroke-width:1.0;"/><polygon fill="#000000" points="329.68,569.8931,329.6938,569.9618,331.5839,569.3696,333.555,569.1799,335.4997,568.8592,337.3577,568.1073,339.3357,567.9522,339.3314,567.9267,338.1965,567.622,337.0837,567.4461,335.986,567.3596,334.8358,566.9647,333.7593,567.0018,333.9412,567.0329,333.7423,565.8513,334.0745,564.7602,334.4715,563.6802,334.4914,562.5359,334.7097,561.4254,334.7292,561.437,333.6946,563.1135,332.749,564.8429,331.7604,566.5467,330.8538,568.2993,329.68,569.8931" style="stroke:#000000;stroke-width:1.0;"/><!--MD5=[44a75de026bf1ff7bb2b0c180ccae597]
reverse link ContentsTable to BcContentsBehavior--><path d="M237.3,439.4531 L237.3,439.5465 L243.306,439.269 L249.312,439.539 L255.318,439.6308 L261.324,439.1361 L267.33,439.4531 " fill="none" style="stroke:#000000;stroke-width:1.0;"/><polygon fill="#000000" points="232.06,439.4531,232.0885,439.5171,233.8039,440.1269,235.6862,441.112,237.5141,441.9749,239.1634,442.4358,241.06,443.4531,241.0417,443.4348,240.1595,442.5526,239.3696,441.7627,238.6439,441.0371,237.697,440.0902,237.06,439.4531,237.1905,439.5836,237.7114,438.5046,238.6134,437.8065,239.5618,437.1549,240.2398,436.2329,241.06,435.4531,241.0692,435.4739,239.2557,436.2434,237.4842,437.1075,235.6924,437.926,233.9393,438.8315,232.06,439.4531" style="stroke:#000000;stroke-width:1.0;"/><!--MD5=[b5b78a59aa995dbb90fea57b4d2436e3]
reverse link Content to ContentsTable--><path d="M71.32,439.4531 L71.32,439.5465 L77.192,439.269 L83.064,439.539 L88.936,439.6308 L94.808,439.1361 L100.68,439.4531 " fill="none" style="stroke:#000000;stroke-width:1.0;"/><polygon fill="#000000" points="66.21,439.4531,66.2385,439.5171,67.9539,440.1269,69.8362,441.112,71.6641,441.9749,73.3134,442.4358,75.21,443.4531,75.1917,443.4348,74.3095,442.5526,73.5196,441.7627,72.7939,441.0371,71.847,440.0902,71.21,439.4531,71.3405,439.5836,71.8614,438.5046,72.7634,437.8065,73.7118,437.1549,74.3898,436.2329,75.21,435.4531,75.2192,435.4739,73.4057,436.2434,71.6342,437.1075,69.8424,437.926,68.0893,438.8315,66.21,439.4531" style="stroke:#000000;stroke-width:1.0;"/><!--MD5=[33c98216b725347abb7dcd908f1b642e]
reverse link ContentFolder to Content--><path d="M214.5,581.1531 L214.5428,581.2362 L211.346,579.4074 L208.4002,578.0653 L205.3726,576.5648 L202.0764,574.543 L199.152,573.2428 L199.1356,573.2124 L195.8217,571.3295 L192.5904,569.6 L189.4164,567.977 L186.0446,565.9868 L182.95,564.5109 L183.0712,564.7251 L179.4568,562.3675 L176.1964,560.6352 L172.9791,558.9791 L169.5106,556.8792 L166.1742,555.0127 L166.1898,555.0387 L162.7531,552.9586 L159.3873,550.997 L155.9872,548.9782 L152.6525,547.0684 L149.105,544.8031 L149.2632,545.056 L147.5537,543.9882 L145.7422,542.7573 L144.0801,541.7652 L142.4249,540.7842 L140.5479,539.4488 L140.3739,539.1796 L139.0066,538.5998 L137.0663,537.1335 L135.5616,536.3411 L133.6083,534.8548 L132.0227,533.9373 L132.0057,533.912 L130.5143,533.0789 L128.6272,531.6546 L126.9736,530.5791 L125.3396,529.5329 L123.5642,528.2755 L123.6697,528.4274 L121.8918,527.113 L120.2943,526.0583 L118.405,524.5835 L116.9509,523.7352 L115.2075,522.4703 L115.3502,522.6678 L113.6793,521.4421 L112.0792,520.3144 L110.1499,518.7313 L108.4619,517.482 L106.9877,516.5286 L106.8214,516.3081 L105.3624,515.2934 L103.716,514.0303 L102.3414,513.1275 L100.5027,511.6095 L98.9398,510.4572 L98.8439,510.3387 L95.9157,508.0352 L92.5774,505.2253 L89.5307,502.7755 L86.7695,500.6781 L83.5,497.9531 L83.6314,498.0953 L82.1156,496.7092 L80.1911,494.8806 L78.7786,493.6062 L77.2544,492.211 L75.4705,490.5345 L75.3182,490.3899 L73.9077,488.8927 L72.4474,487.348 L71.085,485.8964 L69.3417,484.0831 L67.8113,482.4719 L67.9672,482.6058 L66.1951,480.6476 L64.724,478.9479 L63.6926,477.626 L61.8517,475.6086 L60.6639,474.1523 L60.8411,474.2929 L59.4371,472.5716 L57.973,470.8027 L56.6444,469.1411 L55.6285,467.7277 L54.17,465.9631 " fill="none" style="stroke:#000000;stroke-width:1.0;"/><polygon fill="#000000" points="219.26,583.5431,219.3141,583.5876,217.903,581.9333,216.8093,580.5398,215.6122,579.0613,214.0752,577.3037,213.0087,575.9325,212.9841,575.9243,213.2302,576.9615,213.6002,578.0398,214.0564,579.1467,214.2156,580.155,214.7907,581.3013,214.8489,581.4765,213.6508,581.4584,212.6224,581.9516,211.6148,582.5072,210.4866,582.6998,209.4219,583.0833,209.4229,583.1061,211.389,583.1647,213.3599,583.3267,215.3285,583.4388,217.3015,583.6462,219.26,583.5431" style="stroke:#000000;stroke-width:1.0;"/><!--MD5=[9aace8906253ed3f58bca450684666bb]
@startuml
skinparam handwritten true
hide circle
skinparam classAttributeIconSize 0

title コンテンツフォルダ管理

class BcContentsComponent {
    + setupAdmin()
    + setupFront()
    + settingForm()
    + getParentLayoutTemplate()
    + getTypes()
    + getContent()
    + getCrumbs()
    + beforeRender()
}

class Admin\ContentFoldersController {
    + AuthenticationComponent
    + BcMessageComponent
    + BcContentsComponent
    + edit()
    + delete()
    ※ add() は、APIを利用する
}

class BcAdminContentFolderHelper {
    + getFolderTemplateList()
    + getPageTemplateList()
    + getPublishLink()
}

class ContentFolderService {
    + ContentFoldersTable
}

class ContentFolderServiceInterface {
    + isOverPostSize()
    + getFolderTemplateList()
    + getPageTemplateList()
    + getPublishLink()
}

class ContentFoldersTable {
    + getParentTemplate()
    + getFolderTemplateList()
    + saveSiteRoot()
    + movePageTemplates()
    + setBeforeRecord()
}

class SearchIndiceTable {
    + reconstruct()
}

class ContentFolder {
    + id
    + folder_template
    + page_template
    + created
    + modified
}

class BcContentsBehavior {
    + initialize()
    + beforeMarshal()
    + afterSave()
    + beforeDelete()
    + afterDelete()
    + findPublished()
}

class ContentsTable {
    + updatingRelated
    + updateChildrenUrl()
    + getPath()
    + createContent()
    + softDelete()
    + removeFromTree()
}

class Content {
	entity_id
}

Admin\ContentFoldersController -left[#Black]-> BcContentsComponent
Admin\ContentFoldersController -down[#Black]-> ContentFolderService

BcAdminContentFolderHelper -left[#Black]-> ContentFolderService

ContentFolderService -left[dotted,#Black]-|> ContentFolderServiceInterface
ContentFolderService -down[#Black]-> ContentFoldersTable

ContentFoldersTable -right[#Black]-> SearchIndiceTable
ContentFoldersTable -left[#Black]-> BcContentsBehavior
ContentFoldersTable -left[#Black]-> ContentsTable
ContentFoldersTable -down[#Black]-> ContentFolder

BcContentsBehavior -left[#Black]-> ContentsTable

ContentsTable -left[#Black]-> Content

ContentFolder <-[#Black]- Content

@enduml

PlantUML version 1.2021.14(Sat Nov 13 00:46:50 CST 2021)
(GPL source distribution)
Java Runtime: OpenJDK Runtime Environment
JVM: OpenJDK 64-Bit Server VM
Default Encoding: UTF-8
Language: en
Country: null
--></g></svg>