<?xml version="1.0" encoding="UTF-8" standalone="no"?><svg xmlns="http://www.w3.org/2000/svg" xmlns:xlink="http://www.w3.org/1999/xlink" contentScriptType="application/ecmascript" contentStyleType="text/css" height="884px" preserveAspectRatio="none" style="width:717px;height:884px;" version="1.1" viewBox="0 0 717 884" width="717px" zoomAndPan="magnify"><defs><filter height="300%" id="f3cj823" width="300%" x="-1" y="-1"><feGaussianBlur result="blurOut" stdDeviation="2.0"/><feColorMatrix in="blurOut" result="blurOut2" type="matrix" values="0 0 0 0 0 0 0 0 0 0 0 0 0 0 0 0 0 0 .4 0"/><feOffset dx="4.0" dy="4.0" in="blurOut2" result="blurOut3"/><feBlend in="SourceGraphic" in2="blurOut3" mode="normal"/></filter></defs><g><text fill="#000000" font-family="sans-serif" font-size="18" lengthAdjust="spacingAndGlyphs" textLength="180" x="273" y="17.4023">アクセス制限設定管理</text><!--class Admin\PermissionsController--><polygon fill="#FEFECE" filter="url(#f3cj823)" points="490,29.1992,490,29.3754,500.1765,29.2672,510.3529,29.413,520.5294,28.4703,530.7059,29.5348,540.8824,28.6895,551.0588,29.4743,561.2353,28.559,571.4118,29.1436,581.5882,29.5562,591.7647,29.4801,601.9412,29.8544,612.1176,29.6825,622.2941,28.5699,632.4706,28.743,642.6471,29.2407,652.8235,28.9751,663,29.1992,663.6683,29.1992,663.2652,38.9948,662.5554,48.7903,662.737,58.5858,662.3454,68.3813,663.2437,78.1769,663.2932,87.9724,663.632,97.7679,662.3125,107.5635,663.5967,117.359,662.6773,127.1545,662.4532,136.9501,663.3236,146.7456,663.3657,156.5411,662.2566,166.3367,663.7046,176.1322,663,185.9277,663,185.4298,652.8235,186.3709,642.6471,185.3271,632.4706,186.395,622.2941,186.1218,612.1176,185.8999,601.9412,185.613,591.7647,186.5132,581.5882,186.4299,571.4118,185.6498,561.2353,185.947,551.0588,185.6014,540.8824,185.3114,530.7059,185.863,520.5294,186.4005,510.3529,185.3229,500.1765,185.6811,490,185.9277,489.7737,185.9277,490.6013,176.1322,489.6052,166.3367,490.5931,156.5411,489.7684,146.7456,490.0016,136.9501,489.9809,127.1545,489.6581,117.359,490.0892,107.5635,489.6492,97.7679,490.1848,87.9724,489.9622,78.1769,490.006,68.3813,489.5996,58.5858,490.4213,48.7903,490.3442,38.9948,490,29.1992" style="stroke: #A80036; stroke-width: 1.5;"/><text fill="#000000" font-family="sans-serif" font-size="12" lengthAdjust="spacingAndGlyphs" textLength="167" x="493" y="45.8008">Admin\PermissionsController</text><path d="M491,53.332 L491,53.4809 L501.0588,52.5947 L511.1176,53.2622 L521.1765,52.7205 L531.2353,54.2788 L541.2941,54.0099 L551.3529,52.9291 L561.4118,53.1254 L571.4706,52.9999 L581.5294,52.7185 L591.5882,54.2109 L601.6471,53.4279 L611.7059,52.4137 L621.7647,52.5333 L631.8235,53.3601 L641.8824,53.6804 L651.9412,52.5074 L662,53.332 " fill="#FEFECE" style="stroke: #A80036; stroke-width: 1.5;"/><path d="M491,61.332 L491,61.267 L501.0588,61.1679 L511.1176,61.6003 L521.1765,60.8146 L531.2353,62.1362 L541.2941,61.2272 L551.3529,61.4558 L561.4118,60.9533 L571.4706,61.1396 L581.5294,62.1711 L591.5882,60.513 L601.6471,61.2091 L611.7059,61.0711 L621.7647,61.7873 L631.8235,62.0741 L641.8824,61.4248 L651.9412,60.7373 L662,61.332 " fill="#FEFECE" style="stroke: #A80036; stroke-width: 1.5;"/><text fill="#000000" font-family="sans-serif" font-size="11" lengthAdjust="spacingAndGlyphs" textLength="135" x="496" y="75.9668">+設定一覧を表示：index()</text><text fill="#000000" font-family="sans-serif" font-size="11" lengthAdjust="spacingAndGlyphs" textLength="114" x="496" y="88.9219">+設定新規追加：add()</text><text fill="#000000" font-family="sans-serif" font-size="11" lengthAdjust="spacingAndGlyphs" textLength="92" x="496" y="101.877">+設定編集：edit()</text><text fill="#000000" font-family="sans-serif" font-size="11" lengthAdjust="spacingAndGlyphs" textLength="104" x="496" y="114.832">+設定削除：delete()</text><text fill="#000000" font-family="sans-serif" font-size="11" lengthAdjust="spacingAndGlyphs" textLength="148" x="496" y="127.7871">+設定順変更：update_sort()</text><text fill="#000000" font-family="sans-serif" font-size="11" lengthAdjust="spacingAndGlyphs" textLength="87" x="496" y="140.7422">+コピー：copy()</text><text fill="#000000" font-family="sans-serif" font-size="11" lengthAdjust="spacingAndGlyphs" textLength="101" x="496" y="153.6973">+有効化：publish()</text><text fill="#000000" font-family="sans-serif" font-size="11" lengthAdjust="spacingAndGlyphs" textLength="115" x="496" y="166.6523">+無効化：unpublish()</text><text fill="#000000" font-family="sans-serif" font-size="11" lengthAdjust="spacingAndGlyphs" textLength="102" x="496" y="179.6074">+一括処理：batch()</text><!--class PermissionsService--><polygon fill="#FEFECE" filter="url(#f3cj823)" points="519,369.1992,519,368.7114,528.5833,369.0566,538.1667,369.0074,547.75,369.3638,557.3333,369.7906,566.9167,368.5272,576.5,369.8609,586.0833,368.9201,595.6667,368.8236,605.25,368.8563,614.8333,369.6582,624.4167,369.0514,634,369.1992,633.6531,369.1992,634.2722,379.8168,634.7187,390.4344,634.5215,401.052,633.8936,411.6695,634,422.2871,634,422.148,624.4167,421.7864,614.8333,422.9559,605.25,422.2327,595.6667,422.1409,586.0833,422.5601,576.5,422.1038,566.9167,422.7517,557.3333,421.5385,547.75,421.9941,538.1667,422.3335,528.5833,422.0732,519,422.2871,519.5386,422.2871,518.6747,411.6695,518.8033,401.052,519.4496,390.4344,519.3107,379.8168,519,369.1992" style="stroke: #A80036; stroke-width: 1.5;"/><text fill="#000000" font-family="sans-serif" font-size="12" lengthAdjust="spacingAndGlyphs" textLength="108" x="522.5" y="385.8008">PermissionsService</text><path d="M520,393.332 L520,393.8818 L530.2727,393.7637 L540.5455,392.5457 L550.8182,394.1712 L561.0909,392.6101 L571.3636,392.7449 L581.6364,393.2842 L591.9091,394.0503 L602.1818,393.8458 L612.4545,393.1124 L622.7273,393.3804 L633,393.332 " fill="#FEFECE" style="stroke: #A80036; stroke-width: 1.5;"/><text fill="#000000" font-family="sans-serif" font-size="11" lengthAdjust="spacingAndGlyphs" textLength="103" x="525" y="407.9668">+PermissionsTable</text><path d="M520,414.2871 L520,413.7495 L530.2727,414.0667 L540.5455,414.4113 L550.8182,414.284 L561.0909,413.9144 L571.3636,414.3233 L581.6364,414.9155 L591.9091,415.0671 L602.1818,415.0842 L612.4545,414.5458 L622.7273,414.4321 L633,414.2871 " fill="#FEFECE" style="stroke: #A80036; stroke-width: 1.5;"/><!--class PermissionsServiceInterface--><polygon fill="#FEFECE" filter="url(#f3cj823)" points="127.5,246.1992,127.5,245.4914,137.3889,245.5974,147.2778,245.5191,157.1667,246.1918,167.0556,245.4916,176.9444,246.6937,186.8333,246.347,196.7222,245.5453,206.6111,246.7273,216.5,246.6212,226.3889,245.815,236.2778,246.2057,246.1667,245.7737,256.0556,245.5119,265.9444,246.4414,275.8333,246.6532,285.7222,246.4409,295.6111,245.7825,305.5,246.6693,315.3889,246.3389,325.2778,245.833,335.1667,246.9052,345.0556,246.3163,354.9444,246.1993,364.8333,245.7203,374.7222,245.655,384.6111,246.5467,394.5,245.7635,404.3889,246.6142,414.2778,246.3127,424.1667,246.6991,434.0556,245.5332,443.9444,246.3566,453.8333,246.398,463.7222,246.8581,473.6111,245.8596,483.5,246.1992,483.6492,246.1992,483.9259,256.1737,483.554,266.1482,483.1524,276.1227,483.5468,286.0971,483.6967,296.0716,483.7066,306.0461,483.2248,316.0206,483.847,325.9951,483.6002,335.9695,483.7223,345.944,484.2341,355.9185,483.2707,365.893,484.039,375.8674,483.2433,385.8419,483.2576,395.8164,483.2257,405.7909,483.7865,415.7654,482.8349,425.7398,483.4421,435.7143,483.899,445.6888,483.9667,455.6633,483.4768,465.6378,483.4851,475.6122,483.6839,485.5867,484.1567,495.5612,483.8735,505.5357,483.2145,515.5102,484.1942,525.4846,484.0369,535.4591,483.5,545.4336,483.5,545.4065,473.6111,545.3369,463.7222,545.992,453.8333,545.1832,443.9444,544.8423,434.0556,545.3201,424.1667,545.4453,414.2778,545.3173,404.3889,544.972,394.5,546.1825,384.6111,545.459,374.7222,545.7059,364.8333,544.7883,354.9444,545.7523,345.0556,544.7566,335.1667,546.009,325.2778,545.2224,315.3889,545.3647,305.5,545.0652,295.6111,545.3547,285.7222,545.741,275.8333,545.3568,265.9444,545.3423,256.0556,545.6306,246.1667,545.664,236.2778,545.5176,226.3889,546.0013,216.5,545.8466,206.6111,545.2928,196.7222,545.745,186.8333,545.8291,176.9444,545.3426,167.0556,544.7458,157.1667,544.9541,147.2778,545.8532,137.3889,544.9741,127.5,545.4336,127.9082,545.4336,126.9073,535.4591,127.4371,525.4846,126.8586,515.5102,128.0276,505.5357,126.9975,495.5612,127.7588,485.5867,127.191,475.6122,128.1039,465.6378,127.9974,455.6633,127.4612,445.6888,127.9476,435.7143,127.7713,425.7398,127.8249,415.7654,128.0591,405.7909,127.3935,395.8164,127.6973,385.8419,127.8138,375.8674,127.0331,365.893,127.081,355.9185,126.7811,345.944,127.4776,335.9695,127.0495,325.9951,127.0834,316.0206,128.1881,306.0461,127.8695,296.0716,127.5079,286.0971,127.6512,276.1227,127.1192,266.1482,126.9915,256.1737,127.5,246.1992" style="stroke: #A80036; stroke-width: 1.5;"/><text fill="#000000" font-family="sans-serif" font-size="12" lengthAdjust="spacingAndGlyphs" textLength="158" x="226.5" y="262.8008">PermissionsServiceInterface</text><path d="M128.5,270.332 L128.5,269.9873 L138.6143,270.1971 L148.7286,270.7135 L158.8429,270.1909 L168.9571,270.0278 L179.0714,270.5078 L189.1857,270.0314 L199.3,269.7381 L209.4143,269.6522 L219.5286,270.2642 L229.6429,269.4382 L239.7571,270.7819 L249.8714,270.3266 L259.9857,269.3801 L270.1,270.4516 L280.2143,269.4303 L290.3286,270.4343 L300.4429,270.4902 L310.5571,270.9041 L320.6714,270.3845 L330.7857,270.2651 L340.9,269.8172 L351.0143,270.79 L361.1286,271.1686 L371.2429,270.2299 L381.3571,270.4598 L391.4714,271.3014 L401.5857,269.3801 L411.7,271.0676 L421.8143,269.3881 L431.9286,269.5904 L442.0429,269.4472 L452.1571,269.9014 L462.2714,270.256 L472.3857,270.7238 L482.5,270.332 " fill="#FEFECE" style="stroke: #A80036; stroke-width: 1.5;"/><path d="M128.5,278.332 L128.5,277.7945 L138.6143,278.2664 L148.7286,277.6418 L158.8429,277.4126 L168.9571,277.4122 L179.0714,277.6952 L189.1857,278.5242 L199.3,277.3983 L209.4143,278.6182 L219.5286,279.09 L229.6429,277.6805 L239.7571,277.8716 L249.8714,278.2707 L259.9857,277.9482 L270.1,279.2625 L280.2143,277.9757 L290.3286,278.8564 L300.4429,278.5252 L310.5571,279.0622 L320.6714,278.3096 L330.7857,277.7235 L340.9,278.2313 L351.0143,278.9213 L361.1286,278.4038 L371.2429,279.2721 L381.3571,278.9536 L391.4714,278.3704 L401.5857,277.3763 L411.7,279.1326 L421.8143,278.578 L431.9286,278.9017 L442.0429,277.4079 L452.1571,279.281 L462.2714,277.7597 L472.3857,279.2858 L482.5,278.332 " fill="#FEFECE" style="stroke: #A80036; stroke-width: 1.5;"/><text fill="#000000" font-family="sans-serif" font-size="11" lengthAdjust="spacingAndGlyphs" textLength="147" x="139.5" y="292.9668">+ 初期データ取得：getNew()</text><text fill="#000000" font-family="sans-serif" font-size="11" lengthAdjust="spacingAndGlyphs" textLength="86" x="139.5" y="305.9219">+ 作成：create()</text><text fill="#000000" font-family="sans-serif" font-size="11" lengthAdjust="spacingAndGlyphs" textLength="90" x="139.5" y="318.877">+ 編集：update()</text><text fill="#000000" font-family="sans-serif" font-size="11" lengthAdjust="spacingAndGlyphs" textLength="85" x="139.5" y="331.832">+ 削除：delete()</text><text fill="#000000" font-family="sans-serif" font-size="11" lengthAdjust="spacingAndGlyphs" textLength="125" x="139.5" y="344.7871">+ 単一データ取得：get()</text><text fill="#000000" font-family="sans-serif" font-size="11" lengthAdjust="spacingAndGlyphs" textLength="155" x="139.5" y="357.7422">+ 一覧データ取得：getIndex()</text><text fill="#000000" font-family="sans-serif" font-size="11" lengthAdjust="spacingAndGlyphs" textLength="122" x="139.5" y="370.6973">+ リスト取得：getList()</text><text fill="#000000" font-family="sans-serif" font-size="11" lengthAdjust="spacingAndGlyphs" textLength="148" x="139.5" y="383.6523">+ 有効状態にする：publish()</text><text fill="#000000" font-family="sans-serif" font-size="11" lengthAdjust="spacingAndGlyphs" textLength="162" x="139.5" y="396.6074">+ 無効状態にする：unpublish()</text><text fill="#000000" font-family="sans-serif" font-size="11" lengthAdjust="spacingAndGlyphs" textLength="90" x="139.5" y="409.5625">+ コピー：copy()</text><text fill="#000000" font-family="sans-serif" font-size="11" lengthAdjust="spacingAndGlyphs" textLength="338" x="139.5" y="422.5176">+ 許可・拒否を指定するメソッドのリストを取得：getMethodList()</text><text fill="#000000" font-family="sans-serif" font-size="11" lengthAdjust="spacingAndGlyphs" textLength="181" x="139.5" y="435.4727">+ 権限リストを取得：getAuthList()</text><text fill="#000000" font-family="sans-serif" font-size="11" lengthAdjust="spacingAndGlyphs" textLength="306" x="139.5" y="448.4277">+ レコード作成に必要なデータを代入する：autoFillRecord()</text><text fill="#000000" font-family="sans-serif" font-size="11" lengthAdjust="spacingAndGlyphs" textLength="161" x="139.5" y="461.3828">+ 権限チェックを行う：check()</text><text fill="#000000" font-family="sans-serif" font-size="11" lengthAdjust="spacingAndGlyphs" textLength="290" x="139.5" y="474.3379">+ 標準アクセス許可リクエストを設定：setDefaultAllow()</text><text fill="#000000" font-family="sans-serif" font-size="11" lengthAdjust="spacingAndGlyphs" textLength="326" x="139.5" y="487.293">+ 標準アクセス許可リストからURLを検証：checkDefaultAllow()</text><text fill="#000000" font-family="sans-serif" font-size="11" lengthAdjust="spacingAndGlyphs" textLength="324" x="139.5" y="500.248">+ 標準アクセス拒否リストからURLを検証：checkDefaultDeny()</text><text fill="#000000" font-family="sans-serif" font-size="11" lengthAdjust="spacingAndGlyphs" textLength="261" x="139.5" y="513.2031">+ パーミッションリストを検証する：checkGroup()</text><text fill="#000000" font-family="sans-serif" font-size="11" lengthAdjust="spacingAndGlyphs" textLength="227" x="139.5" y="526.1582">+ 権限チェック対象を追加する：addCheck()</text><text fill="#000000" font-family="sans-serif" font-size="11" lengthAdjust="spacingAndGlyphs" textLength="180" x="139.5" y="539.1133">+ 優先度を変更する：changeSort()</text><!--class PermissionsAdminServiceInterface--><polygon fill="#FEFECE" filter="url(#f3cj823)" points="6,81.1992,6,81.1679,16.1154,81.4258,26.2308,80.9103,36.3462,80.9763,46.4615,81.026,56.5769,81.6703,66.6923,81.5578,76.8077,80.5724,86.9231,80.9909,97.0385,81.6315,107.1538,81.3747,117.2692,81.7983,127.3846,81.5113,137.5,80.6739,147.6154,81.8505,157.7308,81.9109,167.8462,81.2497,177.9615,80.8126,188.0769,81.1821,198.1923,81.8375,208.3077,81.8559,218.4231,80.9361,228.5385,81.0786,238.6538,81.0291,248.7692,80.7472,258.8846,80.6632,269,81.1992,269.3128,81.1992,268.9847,91.8168,269.5559,102.4344,268.8815,113.052,269.192,123.6695,269,134.2871,269,134.8332,258.8846,134.6686,248.7692,134.0167,238.6538,134.068,228.5385,134.0635,218.4231,134.8179,208.3077,133.9835,198.1923,134.7035,188.0769,134.4024,177.9615,134.5559,167.8462,133.6237,157.7308,134.9945,147.6154,134.7493,137.5,134.4253,127.3846,134.0386,117.2692,134.7002,107.1538,133.7463,97.0385,134.0272,86.9231,133.842,76.8077,134.3904,66.6923,133.5997,56.5769,134.0462,46.4615,134.0892,36.3462,134.2904,26.2308,134.449,16.1154,133.939,6,134.2871,5.9775,134.2871,5.6123,123.6695,5.9943,113.052,5.9822,102.4344,5.3214,91.8168,6,81.1992" style="stroke: #A80036; stroke-width: 1.5;"/><text fill="#000000" font-family="sans-serif" font-size="12" lengthAdjust="spacingAndGlyphs" textLength="195" x="40" y="97.8008">PermissionsAdminServiceInterface</text><path d="M7,105.332 L7,105.6846 L17.0385,105.4761 L27.0769,105.4676 L37.1154,105.631 L47.1538,104.3556 L57.1923,105.5282 L67.2308,104.967 L77.2692,105.5113 L87.3077,104.826 L97.3462,104.3522 L107.3846,104.5976 L117.4231,105.8714 L127.4615,104.7344 L137.5,106.0372 L147.5385,105.1562 L157.5769,105.6635 L167.6154,104.3639 L177.6538,104.9816 L187.6923,104.3646 L197.7308,105.9929 L207.7692,105.1578 L217.8077,104.5528 L227.8462,104.3579 L237.8846,106.1333 L247.9231,106.2035 L257.9615,105.7875 L268,105.332 " fill="#FEFECE" style="stroke: #A80036; stroke-width: 1.5;"/><path d="M7,113.332 L7,112.9684 L17.0385,113.2269 L27.0769,114.226 L37.1154,113.4309 L47.1538,112.9573 L57.1923,112.7574 L67.2308,112.9037 L77.2692,114.1135 L87.3077,112.4639 L97.3462,112.9805 L107.3846,112.7788 L117.4231,113.6583 L127.4615,113.2441 L137.5,114.2858 L147.5385,113.6791 L157.5769,113.3962 L167.6154,112.758 L177.6538,113.939 L187.6923,113.4048 L197.7308,112.9291 L207.7692,113.8491 L217.8077,113.8127 L227.8462,113.4529 L237.8846,113.0425 L247.9231,113.6164 L257.9615,113.5669 L268,113.332 " fill="#FEFECE" style="stroke: #A80036; stroke-width: 1.5;"/><text fill="#000000" font-family="sans-serif" font-size="11" lengthAdjust="spacingAndGlyphs" textLength="251" x="12" y="127.9668">+一覧表示用データ取得：getViewVarsForIndex()</text><!--class PermissionsTable--><polygon fill="#FEFECE" filter="url(#f3cj823)" points="523,605.1992,523,604.7721,532.7273,605.2561,542.4545,605.0548,552.1818,605.9066,561.9091,605.5944,571.6364,605.2121,581.3636,605.6648,591.0909,605.4891,600.8182,604.4716,610.5455,605.8982,620.2727,605.3965,630,605.1992,629.7868,605.1992,629.8144,613.2258,629.9916,621.2523,629.9605,629.2789,630.0594,637.3055,630,645.332,630,645.0488,620.2727,645.5056,610.5455,644.8511,600.8182,645.5439,591.0909,645.0754,581.3636,644.7592,571.6364,644.9743,561.9091,644.7689,552.1818,645.2186,542.4545,645.5372,532.7273,645.3131,523,645.332,523.0965,645.332,522.9909,637.3055,522.8147,629.2789,522.7959,621.2523,523.0928,613.2258,523,605.1992" style="stroke: #A80036; stroke-width: 1.5;"/><text fill="#000000" font-family="sans-serif" font-size="12" lengthAdjust="spacingAndGlyphs" textLength="101" x="526" y="621.8008">PermissionsTable</text><path d="M524,629.332 L524,628.6234 L533.5455,629.2882 L543.0909,630.1919 L552.6364,629.05 L562.1818,628.4142 L571.7273,628.9973 L581.2727,628.7753 L590.8182,628.5362 L600.3636,628.914 L609.9091,628.5888 L619.4545,628.5015 L629,629.332 " fill="#FEFECE" style="stroke: #A80036; stroke-width: 1.5;"/><path d="M524,637.332 L524,636.8388 L533.5455,636.6439 L543.0909,637.2812 L552.6364,636.6563 L562.1818,637.6526 L571.7273,638.0431 L581.2727,637.7477 L590.8182,637.935 L600.3636,637.3605 L609.9091,637.2362 L619.4545,637.022 L629,637.332 " fill="#FEFECE" style="stroke: #A80036; stroke-width: 1.5;"/><!--class Permission--><polygon fill="#FEFECE" filter="url(#f3cj823)" points="445.5,705.1992,445.5,705.1833,455.5769,704.7982,465.6538,704.5907,475.7308,705.1289,485.8077,705.3221,495.8846,704.8082,505.9615,705.8447,516.0385,705.3249,526.1154,705.6585,536.1923,705.0794,546.2692,705.3522,556.3462,705.7828,566.4231,705.2479,576.5,705.6479,586.5769,705.0996,596.6538,704.9786,606.7308,705.1076,616.8077,705.3391,626.8846,704.7743,636.9615,705.545,647.0385,705.8021,657.1154,704.8359,667.1923,705.7715,677.2692,705.6356,687.3462,704.8333,697.4231,705.1061,707.5,705.1992,707.2337,705.1992,707.9591,715.1806,708.1977,725.162,708.0726,735.1434,707.0813,745.1248,708.1261,755.1062,707.8679,765.0875,707.2899,775.0689,708.0594,785.0503,706.8224,795.0317,707.8977,805.0131,707.4506,814.9945,707.9386,824.9759,707.3593,834.9573,707.1036,844.9386,708.0324,854.92,707.0696,864.9014,707.5,874.8828,707.5,874.6452,697.4231,875.5949,687.3462,875.5818,677.2692,874.976,667.1923,874.7251,657.1154,875.4864,647.0385,875.1812,636.9615,874.9133,626.8846,875.2918,616.8077,875.4678,606.7308,875.0965,596.6538,874.7583,586.5769,874.505,576.5,875.5406,566.4231,874.9798,556.3462,874.7954,546.2692,874.9945,536.1923,874.608,526.1154,875.2401,516.0385,874.8434,505.9615,875.5489,495.8846,874.1843,485.8077,874.7618,475.7308,874.5073,465.6538,875.3452,455.5769,875.4259,445.5,874.8828,445.3182,874.8828,444.9007,864.9014,445.5001,854.92,444.8202,844.9386,445.964,834.9573,445.6373,824.9759,445.6142,814.9945,446.0885,805.0131,445.051,795.0317,444.9005,785.0503,445.6608,775.0689,445.4989,765.0875,446.0811,755.1062,445.7348,745.1248,445.21,735.1434,445.0054,725.162,446.1445,715.1806,445.5,705.1992" style="stroke: #A80036; stroke-width: 1.5;"/><text fill="#000000" font-family="sans-serif" font-size="12" lengthAdjust="spacingAndGlyphs" textLength="62" x="545.5" y="721.8008">Permission</text><path d="M446.5,729.332 L446.5,728.8426 L456.5,729.1133 L466.5,728.9228 L476.5,729.9068 L486.5,729.0015 L496.5,729.146 L506.5,730.1945 L516.5,730.1147 L526.5,728.6944 L536.5,730.2609 L546.5,729.9052 L556.5,729.7375 L566.5,729.7169 L576.5,728.9811 L586.5,730.1562 L596.5,728.6987 L606.5,728.7155 L616.5,728.7285 L626.5,728.4867 L636.5,729.8784 L646.5,730.0062 L656.5,729.9539 L666.5,729.5183 L676.5,730.314 L686.5,729.5744 L696.5,730.0598 L706.5,729.332 " fill="#FEFECE" style="stroke: #A80036; stroke-width: 1.5;"/><text fill="#000000" font-family="sans-serif" font-size="11" lengthAdjust="spacingAndGlyphs" textLength="49" x="451.5" y="743.9668">+No：no</text><text fill="#000000" font-family="sans-serif" font-size="11" lengthAdjust="spacingAndGlyphs" textLength="75" x="451.5" y="756.9219">+設定順：sort</text><text fill="#000000" font-family="sans-serif" font-size="11" lengthAdjust="spacingAndGlyphs" textLength="82" x="451.5" y="769.877">+設定名：name</text><text fill="#000000" font-family="sans-serif" font-size="11" lengthAdjust="spacingAndGlyphs" textLength="198" x="451.5" y="782.832">+ユーザーグループID：user_group_id</text><text fill="#000000" font-family="sans-serif" font-size="11" lengthAdjust="spacingAndGlyphs" textLength="78" x="451.5" y="795.7871">+URL設定：url</text><text fill="#000000" font-family="sans-serif" font-size="11" lengthAdjust="spacingAndGlyphs" textLength="110" x="451.5" y="808.7422">+アクセス可否：auth</text><text fill="#000000" font-family="sans-serif" font-size="11" lengthAdjust="spacingAndGlyphs" textLength="250" x="451.5" y="821.6973">+権限（全て / 表示・編集 / 表示のみ）：method</text><text fill="#000000" font-family="sans-serif" font-size="11" lengthAdjust="spacingAndGlyphs" textLength="186" x="451.5" y="834.6523">+ステータス（有効 / 無効）：status</text><text fill="#000000" font-family="sans-serif" font-size="11" lengthAdjust="spacingAndGlyphs" textLength="93" x="451.5" y="847.6074">+登録日：created</text><text fill="#000000" font-family="sans-serif" font-size="11" lengthAdjust="spacingAndGlyphs" textLength="100" x="451.5" y="860.5625">+編集日：modified</text><path d="M446.5,866.8828 L446.5,866.2968 L456.5,867.1552 L466.5,867.8779 L476.5,867.7448 L486.5,867.2143 L496.5,866.4337 L506.5,867.4929 L516.5,866.0437 L526.5,867.0694 L536.5,866.3786 L546.5,866.668 L556.5,866.1034 L566.5,866.8561 L576.5,867.5156 L586.5,867.2186 L596.5,867.3323 L606.5,867.6338 L616.5,866.5414 L626.5,866.3084 L636.5,866.4106 L646.5,865.9452 L656.5,866.5592 L666.5,867.1174 L676.5,866.3361 L686.5,865.9691 L696.5,866.9684 L706.5,866.8828 " fill="#FEFECE" style="stroke: #A80036; stroke-width: 1.5;"/><!--class PermissionsAdminService--><polygon fill="#FEFECE" filter="url(#f3cj823)" points="304,87.6992,304,88.1329,314.0667,88.1479,324.1333,87.8593,334.2,87.2506,344.2667,87.2399,354.3333,88.3221,364.4,87.6801,374.4667,87.3326,384.5333,88.1091,394.6,87.0029,404.6667,87.4569,414.7333,88.2791,424.8,87.9616,434.8667,88.2031,444.9333,87.4909,455,87.6992,454.9968,87.6992,455.2019,95.7258,454.9181,103.7523,454.8446,111.7789,454.8805,119.8055,455,127.832,455,127.958,444.9333,128.1389,434.8667,127.6619,424.8,127.7474,414.7333,128.1043,404.6667,128.5651,394.6,127.1186,384.5333,127.5939,374.4667,128.2845,364.4,127.7095,354.3333,128.5726,344.2667,127.9923,334.2,127.1265,324.1333,128.0374,314.0667,128.5587,304,127.832,303.7751,127.832,304.1149,119.8055,303.8946,111.7789,303.9645,103.7523,303.9808,95.7258,304,87.6992" style="stroke: #A80036; stroke-width: 1.5;"/><text fill="#000000" font-family="sans-serif" font-size="12" lengthAdjust="spacingAndGlyphs" textLength="145" x="307" y="104.3008">PermissionsAdminService</text><path d="M305,111.832 L305,112.3554 L314.9333,112.4286 L324.8667,111.1858 L334.8,111.2073 L344.7333,112.2467 L354.6667,112.6735 L364.6,111.2734 L374.5333,111.3084 L384.4667,111.6964 L394.4,112.361 L404.3333,111.7279 L414.2667,112.0305 L424.2,112.086 L434.1333,111.6184 L444.0667,111.104 L454,111.832 " fill="#FEFECE" style="stroke: #A80036; stroke-width: 1.5;"/><path d="M305,119.832 L305,119.1599 L314.9333,120.6199 L324.8667,120.6862 L334.8,120.3276 L344.7333,119.3776 L354.6667,119.7351 L364.6,119.1864 L374.5333,119.8694 L384.4667,119.3957 L394.4,120.105 L404.3333,119.4734 L414.2667,119.5307 L424.2,120.519 L434.1333,118.9927 L444.0667,120.7177 L454,119.832 " fill="#FEFECE" style="stroke: #A80036; stroke-width: 1.5;"/><path d="M576.5,186.4692 L576.7852,186.4692 L576.8986,196.3203 L576.9588,206.1714 L577.3549,216.0226 L577.3661,225.8737 L576.9756,235.7248 L577.0264,245.5759 L575.8653,255.427 L576.4364,265.2781 L577.2448,275.1292 L577.3902,284.9803 L575.5705,294.8314 L576.0991,304.6826 L577.3729,314.5337 L575.5264,324.3848 L576.1315,334.2359 L577.3776,344.087 L576.0611,353.9381 L576.5,363.7892 " fill="none" style="stroke: #000000; stroke-width: 1.0;"/><polygon fill="#000000" points="576.5,368.9992,576.4477,368.976,577.3881,367.2384,577.9727,365.3426,578.7116,363.5155,579.7984,361.843,580.5,359.9992,580.5679,360.0671,579.7719,360.8711,578.9346,361.6338,578.1658,362.465,577.1426,363.0419,576.5,363.9992,576.5691,364.0684,575.6825,363.1817,575.0353,362.5345,574.1579,361.6571,573.4424,360.9416,572.5,359.9992,572.3703,359.9416,573.3557,361.824,573.9444,363.5301,574.9503,365.4216,575.8818,367.28,576.5,368.9992" style="stroke: #000000; stroke-width: 1.0;"/><path d="M460.43,107.6992 L460.43,107.5364 L466.316,107.7941 L472.202,107.6358 L478.088,107.8491 L483.974,107.8267 L489.86,107.6992 " fill="none" style="stroke: #000000; stroke-width: 1.0;"/><polygon fill="#000000" points="455.3,107.6992,455.2861,107.668,457.1169,108.5372,458.9942,109.5111,460.7406,110.1905,462.5629,111.0408,464.3,111.6992,464.3452,111.7445,463.5721,110.9713,462.8757,110.2749,462.0612,109.4604,461.0966,108.4958,460.3,107.6992,460.3556,107.7548,460.9558,106.7551,462.0415,106.2407,462.8186,105.4178,463.6537,104.653,464.3,103.6992,464.3012,103.7019,462.4614,104.4123,460.789,105.4995,458.907,106.115,457.0302,106.7422,455.3,107.6992" style="stroke: #000000; stroke-width: 1.0;"/><path d="M289.54,107.6992 L289.54,107.5132 L292.39,107.7276 L295.24,107.9561 L298.09,107.7021 L300.94,107.7011 L303.79,107.6992 " fill="none" style="stroke: #000000; stroke-width: 1.0; stroke-dasharray: 1.0,3.0;"/><polygon fill="none" points="289.37,114.6992,289.4029,114.7932,285.3283,113.1802,281.3592,111.8684,277.4249,110.6562,273.3565,109.0608,269.37,107.6992,269.2994,107.4976,273.4242,106.4541,277.3391,104.8109,281.4304,103.6717,285.3802,102.1284,289.37,100.6992,289.298,100.6992,289.3961,103.4992,289.5313,106.2992,289.4514,109.0992,289.2152,111.8992,289.37,114.6992" style="stroke: #000000; stroke-width: 1.0;"/><path d="M576.5,422.3492 L575.624,422.3492 L575.978,432.2109 L576.6226,442.0726 L575.6825,451.9342 L575.9038,461.7959 L577.2205,471.6576 L576.3147,481.5192 L576.8574,491.3809 L576.7574,501.2426 L575.9283,511.1042 L576.5659,520.9659 L576.802,530.8276 L576.0349,540.6892 L576.6938,550.5509 L577.0566,560.4126 L576.003,570.2742 L575.9668,580.1359 L575.8344,589.9976 L576.5,599.8592 " fill="none" style="stroke: #000000; stroke-width: 1.0;"/><polygon fill="#000000" points="576.5,604.8992,576.6154,604.9505,577.2638,603.0831,578.2766,601.3777,579.0434,599.563,579.8839,597.781,580.5,595.8992,580.6065,596.0057,579.6278,596.627,578.7638,597.363,577.9787,598.1779,577.1534,598.9526,576.5,599.8992,576.6181,600.0173,575.6811,599.0803,574.9541,598.3533,573.9633,597.3625,573.2657,596.665,572.5,595.8992,572.3407,595.8284,573.3593,597.7256,574.1642,599.5277,575.0934,601.3852,575.74,603.117,576.5,604.8992" style="stroke: #000000; stroke-width: 1.0;"/><path d="M503.68,395.6992 L503.68,395.3668 L506.706,395.8951 L509.732,395.4898 L512.758,395.9858 L515.784,395.6233 L518.81,395.6992 " fill="none" style="stroke: #000000; stroke-width: 1.0; stroke-dasharray: 1.0,3.0;"/><polygon fill="none" points="503.61,402.6992,503.683,402.9078,499.6909,401.5305,495.6423,399.9916,491.6082,398.4941,487.6907,397.3298,483.61,395.6992,483.633,395.7649,487.5594,394.1548,491.6398,392.9844,495.6908,391.7302,499.5897,390.0411,503.61,388.6992,503.5572,388.6992,503.5704,391.4992,503.5951,394.2992,503.4543,397.0992,503.4232,399.8992,503.61,402.6992" style="stroke: #000000; stroke-width: 1.0;"/><path d="M576.5,645.2192 L577.1471,645.2192 L577.2935,656.2052 L576.6764,667.1912 L577.4942,678.1772 L575.7692,689.1632 L576.5,700.1492 " fill="none" style="stroke: #000000; stroke-width: 1.0;"/><polygon fill="#000000" points="576.5,705.1592,576.4616,705.1422,577.3172,703.3668,577.8827,701.4626,578.7792,699.7055,579.5841,697.9077,580.5,696.1592,580.511,696.1702,579.752,697.0112,578.8855,697.7448,578.2595,698.7188,577.1564,699.2156,576.5,700.1592,576.5223,700.1815,575.5293,699.1885,574.8212,698.4805,574.1042,697.7634,573.3737,697.0329,572.5,696.1592,572.3661,696.0997,573.2,697.9148,574.1074,699.7625,574.9727,701.5916,575.5945,703.3123,576.5,705.1592" style="stroke: #000000; stroke-width: 1.0;"/></g></svg>