<?xml version="1.0" encoding="UTF-8" standalone="no"?><svg xmlns="http://www.w3.org/2000/svg" xmlns:xlink="http://www.w3.org/1999/xlink" contentScriptType="application/ecmascript" contentStyleType="text/css" height="824px" preserveAspectRatio="none" style="width:1023px;height:824px;background:#FFFFFF;" version="1.1" viewBox="0 0 1023 824" width="1023px" zoomAndPan="magnify"><defs><filter height="300%" id="f1kftfgm5hlk3z" width="300%" x="-1" y="-1"><feGaussianBlur result="blurOut" stdDeviation="2.0"/><feColorMatrix in="blurOut" result="blurOut2" type="matrix" values="0 0 0 0 0 0 0 0 0 0 0 0 0 0 0 0 0 0 .4 0"/><feOffset dx="4.0" dy="4.0" in="blurOut2" result="blurOut3"/><feBlend in="SourceGraphic" in2="blurOut3" mode="normal"/></filter></defs><g><text fill="#000000" font-family="sans-serif" font-size="18" lengthAdjust="spacing" textLength="126" x="442" y="17.4023">プラグイン管理</text><!--MD5=[574e305ef3cc80b517244d08ded710c9]
class Admin\PluginsController--><polygon fill="#FEFECE" filter="url(#f1kftfgm5hlk3z)" points="282.5,28.1992,282.5,28.4094,292.3718,27.7849,302.2436,28.3925,312.1154,28.5989,321.9872,27.4858,331.859,28.1215,341.7308,27.7727,351.6026,27.8157,361.4744,28.1311,371.3462,27.5078,381.2179,28.7529,391.0897,27.5689,400.9615,28.0015,410.8333,28.6312,420.7051,28.1134,430.5769,28.2675,440.4487,28.1673,450.3205,28.3777,460.1923,28.4384,470.0641,28.7849,479.9359,28.8703,489.8077,28.8785,499.6795,28.4538,509.5513,28.6628,519.4231,28.9015,529.2949,27.478,539.1667,28.8777,549.0385,27.9027,558.9103,28.733,568.7821,27.7042,578.6538,28.1307,588.5256,28.9408,598.3974,28.1505,608.2692,28.3045,618.141,28.5378,628.0128,28.6155,637.8846,28.1953,647.7564,28.4864,657.6282,27.6268,667.5,28.1992,667.7844,28.1992,668.0482,38.1806,667.9445,48.162,668.113,58.1434,667.0169,68.1248,666.8478,78.1062,666.8786,88.0875,667.4411,98.0689,667.3035,108.0503,668.1814,118.0317,667.3253,128.0131,667.1569,137.9945,667.7283,147.9759,666.8332,157.9573,666.9809,167.9386,668.149,177.92,667.9357,187.9014,667.5,197.8828,667.5,198.6173,657.6282,197.561,647.7564,198.202,637.8846,198.4732,628.0128,197.4104,618.141,197.787,608.2692,198.0088,598.3974,198.5346,588.5256,197.8786,578.6538,198.3454,568.7821,197.329,558.9103,197.2056,549.0385,198.3864,539.1667,197.1659,529.2949,198.3918,519.4231,198.0894,509.5513,197.6149,499.6795,197.529,489.8077,198.3416,479.9359,197.5835,470.0641,198.4747,460.1923,197.3301,450.3205,198.5002,440.4487,198.3671,430.5769,198.1278,420.7051,197.93,410.8333,198.6094,400.9615,198.4964,391.0897,198.0521,381.2179,198.151,371.3462,197.7525,361.4744,198.5993,351.6026,198.0377,341.7308,198.0554,331.859,197.2745,321.9872,197.4776,312.1154,198.4136,302.2436,198.3126,292.3718,197.8399,282.5,197.8828,282.1778,197.8828,282.2811,187.9014,281.8138,177.92,282.9147,167.9386,283.2396,157.9573,283.0264,147.9759,283.1949,137.9945,282.3633,128.0131,282.5872,118.0317,282.1124,108.0503,282.784,98.0689,282.7468,88.0875,283.0524,78.1062,282.2703,68.1248,282.3656,58.1434,282.9435,48.162,283.0673,38.1806,282.5,28.1992" style="stroke:#A80036;stroke-width:1.5;"/><text fill="#000000" font-family="sans-serif" font-size="12" lengthAdjust="spacing" textLength="139" x="405.5" y="44.8008">Admin\PluginsController</text><path d="M283.5,52.332 L283.5,52.6123 L293.5789,51.7796 L303.6579,52.5897 L313.7368,52.8649 L323.8158,51.3808 L333.8947,52.2284 L343.9737,51.7634 L354.0526,51.8207 L364.1316,52.2412 L374.2105,51.4102 L384.2895,53.0702 L394.3684,51.4917 L404.4474,52.0683 L414.5263,52.908 L424.6053,52.2177 L434.6842,52.423 L444.7632,52.2894 L454.8421,52.5701 L464.9211,52.6509 L475,53.113 L485.0789,53.2268 L495.1579,53.2377 L505.2368,52.6715 L515.3158,52.9501 L525.3947,53.2683 L535.4737,51.3705 L545.5526,53.2367 L555.6316,51.9367 L565.7105,53.0438 L575.7895,51.672 L585.8684,52.2407 L595.9474,53.3208 L606.0263,52.2671 L616.1053,52.4724 L626.1842,52.7835 L636.2632,52.887 L646.3421,52.3268 L656.4211,52.715 L666.5,52.332 " fill="#FEFECE" style="stroke:#A80036;stroke-width:1.5;"/><path d="M283.5,60.332 L283.5,60.6123 L293.5789,59.7796 L303.6579,60.5897 L313.7368,60.8649 L323.8158,59.3808 L333.8947,60.2284 L343.9737,59.7634 L354.0526,59.8207 L364.1316,60.2412 L374.2105,59.4102 L384.2895,61.0702 L394.3684,59.4917 L404.4474,60.0683 L414.5263,60.908 L424.6053,60.2177 L434.6842,60.423 L444.7632,60.2894 L454.8421,60.5701 L464.9211,60.6509 L475,61.113 L485.0789,61.2268 L495.1579,61.2377 L505.2368,60.6715 L515.3158,60.9501 L525.3947,61.2683 L535.4737,59.3705 L545.5526,61.2367 L555.6316,59.9367 L565.7105,61.0438 L575.7895,59.672 L585.8684,60.2407 L595.9474,61.3208 L606.0263,60.2671 L616.1053,60.4724 L626.1842,60.7835 L636.2632,60.887 L646.3421,60.3268 L656.4211,60.715 L666.5,60.332 " fill="#FEFECE" style="stroke:#A80036;stroke-width:1.5;"/><text fill="#000000" font-family="sans-serif" font-size="11" lengthAdjust="spacing" textLength="168" x="288.5" y="74.9668">+プラグイン一覧を表示：index()</text><text fill="#000000" font-family="sans-serif" font-size="11" lengthAdjust="spacing" textLength="235" x="288.5" y="87.9219">+新しいプラグインをアップロードする：add()</text><text fill="#000000" font-family="sans-serif" font-size="11" lengthAdjust="spacing" textLength="214" x="288.5" y="100.877">+プラグインをインストールする：install()</text><text fill="#000000" font-family="sans-serif" font-size="11" lengthAdjust="spacing" textLength="185" x="288.5" y="113.832">+プラグインを無効化する：detach()</text><text fill="#000000" font-family="sans-serif" font-size="11" lengthAdjust="spacing" textLength="218" x="288.5" y="126.7871">+データベースをリセットする：reset_db()</text><text fill="#000000" font-family="sans-serif" font-size="11" lengthAdjust="spacing" textLength="250" x="288.5" y="139.7422">+プラグインをアンインストールする：uninstall()</text><text fill="#000000" font-family="sans-serif" font-size="11" lengthAdjust="spacing" textLength="201" x="288.5" y="152.6973">+プラグインを一括無効化する：batch()</text><text fill="#000000" font-family="sans-serif" font-size="11" lengthAdjust="spacing" textLength="247" x="288.5" y="165.6523">+優先順位の並び替えを更新する：update_sort()</text><text fill="#000000" font-family="sans-serif" font-size="11" lengthAdjust="spacing" textLength="219" x="288.5" y="178.6074">+プラグインをアップデートする：update()</text><text fill="#000000" font-family="sans-serif" font-size="11" lengthAdjust="spacing" textLength="373" x="288.5" y="191.5625">+baserマーケットのプラグインデータを取得する：get_market_plugins()</text><!--MD5=[e3caa8fdd0316d3907f0098a64fb0b82]
class BcAdminPluginHelper--><polygon fill="#FEFECE" filter="url(#f1kftfgm5hlk3z)" points="555,336.1992,555,336.4094,565.0889,335.7849,575.1778,336.3925,585.2667,336.5989,595.3556,335.4858,605.4444,336.1215,615.5333,335.7727,625.6222,335.8157,635.7111,336.1311,645.8,335.5078,655.8889,336.7529,665.9778,335.5689,676.0667,336.0015,686.1556,336.6312,696.2444,336.1134,706.3333,336.2675,716.4222,336.1673,726.5111,336.3777,736.6,336.4384,746.6889,336.7849,756.7778,336.8703,766.8667,336.8785,776.9556,336.4538,787.0444,336.6628,797.1333,336.9015,807.2222,335.478,817.3111,336.8777,827.4,335.9027,837.4889,336.733,847.5778,335.7042,857.6667,336.1307,867.7556,336.9408,877.8444,336.1505,887.9333,336.3045,898.0222,336.5378,908.1111,336.6155,918.2,336.1953,928.2889,336.4864,938.3778,335.6268,948.4667,336.4836,958.5556,336.7474,968.6444,336.6438,978.7333,336.8122,988.8222,335.7161,998.9111,335.547,1009,336.1992,1008.3786,336.1992,1008.9411,346.8168,1008.8035,357.4344,1009.6814,368.052,1008.8253,378.6695,1009,389.2871,1009,388.9441,998.9111,389.5154,988.8222,388.6203,978.7333,388.768,968.6444,389.9361,958.5556,389.7228,948.4667,390.0216,938.3778,388.9653,928.2889,389.6063,918.2,389.8775,908.1111,388.8147,898.0222,389.1912,887.9333,389.4131,877.8444,389.9389,867.7556,389.2829,857.6667,389.7497,847.5778,388.7333,837.4889,388.6099,827.4,389.7907,817.3111,388.5702,807.2222,389.7961,797.1333,389.4937,787.0444,389.0192,776.9556,388.9333,766.8667,389.7459,756.7778,388.9878,746.6889,389.879,736.6,388.7344,726.5111,389.9045,716.4222,389.7714,706.3333,389.5321,696.2444,389.3343,686.1556,390.0137,676.0667,389.9007,665.9778,389.4564,655.8889,389.5553,645.8,389.1568,635.7111,390.0036,625.6222,389.442,615.5333,389.4597,605.4444,388.6788,595.3556,388.8819,585.2667,389.8179,575.1778,389.7169,565.0889,389.2442,555,389.2871,554.6778,389.2871,554.7811,378.6695,554.3138,368.052,555.4147,357.4344,555.7396,346.8168,555,336.1992" style="stroke:#A80036;stroke-width:1.5;"/><text fill="#000000" font-family="sans-serif" font-size="12" lengthAdjust="spacing" textLength="123" x="720.5" y="352.8008">BcAdminPluginHelper</text><path d="M556,360.332 L556,360.6123 L566.0444,359.7796 L576.0889,360.5897 L586.1333,360.8649 L596.1778,359.3808 L606.2222,360.2284 L616.2667,359.7634 L626.3111,359.8207 L636.3556,360.2412 L646.4,359.4102 L656.4444,361.0702 L666.4889,359.4917 L676.5333,360.0683 L686.5778,360.908 L696.6222,360.2177 L706.6667,360.423 L716.7111,360.2894 L726.7556,360.5701 L736.8,360.6509 L746.8444,361.113 L756.8889,361.2268 L766.9333,361.2377 L776.9778,360.6715 L787.0222,360.9501 L797.0667,361.2683 L807.1111,359.3705 L817.1556,361.2367 L827.2,359.9367 L837.2444,361.0438 L847.2889,359.672 L857.3333,360.2407 L867.3778,361.3208 L877.4222,360.2671 L887.4667,360.4724 L897.5111,360.7835 L907.5556,360.887 L917.6,360.3268 L927.6444,360.715 L937.6889,359.5688 L947.7333,360.7112 L957.7778,361.063 L967.8222,360.9247 L977.8667,361.1494 L987.9111,359.6879 L997.9556,359.4625 L1008,360.332 " fill="#FEFECE" style="stroke:#A80036;stroke-width:1.5;"/><path d="M556,368.332 L556,368.6123 L566.0444,367.7796 L576.0889,368.5897 L586.1333,368.8649 L596.1778,367.3808 L606.2222,368.2284 L616.2667,367.7634 L626.3111,367.8207 L636.3556,368.2412 L646.4,367.4102 L656.4444,369.0702 L666.4889,367.4917 L676.5333,368.0683 L686.5778,368.908 L696.6222,368.2177 L706.6667,368.423 L716.7111,368.2894 L726.7556,368.5701 L736.8,368.6509 L746.8444,369.113 L756.8889,369.2268 L766.9333,369.2377 L776.9778,368.6715 L787.0222,368.9501 L797.0667,369.2683 L807.1111,367.3705 L817.1556,369.2367 L827.2,367.9367 L837.2444,369.0438 L847.2889,367.672 L857.3333,368.2407 L867.3778,369.3208 L877.4222,368.2671 L887.4667,368.4724 L897.5111,368.7835 L907.5556,368.887 L917.6,368.3268 L927.6444,368.715 L937.6889,367.5688 L947.7333,368.7112 L957.7778,369.063 L967.8222,368.9247 L977.8667,369.1494 L987.9111,367.6879 L997.9556,367.4625 L1008,368.332 " fill="#FEFECE" style="stroke:#A80036;stroke-width:1.5;"/><text fill="#000000" font-family="sans-serif" font-size="11" lengthAdjust="spacing" textLength="442" x="561" y="382.9668">+プラグインインストールについてのメッセージを取得する：getInstallStatusMessage()</text><!--MD5=[4e966a54c73fe5a99fd8b2833603b1a4]
class PluginService--><polygon fill="#FEFECE" filter="url(#f1kftfgm5hlk3z)" points="430.5,336.1992,430.5,336.4094,440.3889,335.7849,450.2778,336.3925,460.1667,336.5989,470.0556,335.4858,479.9444,336.1215,489.8333,335.7727,499.7222,335.8157,509.6111,336.1311,519.5,336.1992,518.8086,336.1992,520.0536,346.8168,518.8697,357.4344,519.3022,368.052,519.9319,378.6695,519.5,389.2871,519.5,389.2013,509.6111,389.3553,499.7222,389.2552,489.8333,389.4656,479.9444,389.5262,470.0556,389.8728,460.1667,389.9582,450.2778,389.9664,440.3889,389.5417,430.5,389.2871,430.9636,389.2871,431.2022,378.6695,429.7788,368.052,431.1785,357.4344,430.2035,346.8168,430.5,336.1992" style="stroke:#A80036;stroke-width:1.5;"/><text fill="#000000" font-family="sans-serif" font-size="12" lengthAdjust="spacing" textLength="74" x="438" y="352.8008">PluginService</text><path d="M431.5,360.332 L431.5,360.6123 L441.1667,359.7796 L450.8333,360.5897 L460.5,360.8649 L470.1667,359.3808 L479.8333,360.2284 L489.5,359.7634 L499.1667,359.8207 L508.8333,360.2412 L518.5,360.332 " fill="#FEFECE" style="stroke:#A80036;stroke-width:1.5;"/><text fill="#000000" font-family="sans-serif" font-size="11" lengthAdjust="spacing" textLength="77" x="436.5" y="374.9668">+PluginsTable</text><path d="M431.5,381.2871 L431.5,381.5674 L441.1667,380.7347 L450.8333,381.5448 L460.5,381.82 L470.1667,380.3359 L479.8333,381.1835 L489.5,380.7185 L499.1667,380.7758 L508.8333,381.1962 L518.5,381.2871 " fill="#FEFECE" style="stroke:#A80036;stroke-width:1.5;"/><!--MD5=[986c21fbce3da3b73066b937f2612d5b]
class PluginServiceInterface--><polygon fill="#FEFECE" filter="url(#f1kftfgm5hlk3z)" points="7,258.1992,7,258.4094,16.9487,257.7849,26.8974,258.3925,36.8462,258.5989,46.7949,257.4858,56.7436,258.1215,66.6923,257.7727,76.641,257.8157,86.5897,258.1311,96.5385,257.5078,106.4872,258.7529,116.4359,257.5689,126.3846,258.0015,136.3333,258.6312,146.2821,258.1134,156.2308,258.2675,166.1795,258.1673,176.1282,258.3777,186.0769,258.4384,196.0256,258.7849,205.9744,258.8703,215.9231,258.8785,225.8718,258.4538,235.8205,258.6628,245.7692,258.9015,255.7179,257.478,265.6667,258.8777,275.6154,257.9027,285.5641,258.733,295.5128,257.7042,305.4615,258.1307,315.4103,258.9408,325.359,258.1505,335.3077,258.3045,345.2564,258.5378,355.2051,258.6155,365.1538,258.1953,375.1026,258.4864,385.0513,257.6268,395,258.1992,395.2844,258.1992,395.5482,268.1301,395.4445,278.061,395.613,287.9919,394.5169,297.9228,394.3478,307.8537,394.3786,317.7846,394.9411,327.7155,394.8035,337.6464,395.6814,347.5773,394.8253,357.5082,394.6569,367.4391,395.2283,377.37,394.3332,387.3009,394.4809,397.2318,395.649,407.1627,395.4357,417.0936,395.7345,427.0245,394.6782,436.9554,395.3192,446.8863,395.5904,456.8172,395,466.748,395,466.2756,385.0513,466.6522,375.1026,466.874,365.1538,467.3998,355.2051,466.7439,345.2564,467.2106,335.3077,466.1943,325.359,466.0708,315.4103,467.2517,305.4615,466.0311,295.5128,467.257,285.5641,466.9547,275.6154,466.4801,265.6667,466.3943,255.7179,467.2068,245.7692,466.4487,235.8205,467.3399,225.8718,466.1953,215.9231,467.3655,205.9744,467.2324,196.0256,466.993,186.0769,466.7953,176.1282,467.4747,166.1795,467.3616,156.2308,466.9173,146.2821,467.0162,136.3333,466.6178,126.3846,467.4645,116.4359,466.9029,106.4872,466.9206,96.5385,466.1397,86.5897,466.3428,76.641,467.2788,66.6923,467.1778,56.7436,466.7051,46.7949,466.4259,36.8462,466.5291,26.8974,466.0619,16.9487,467.1628,7,466.748,7.7396,466.748,7.5264,456.8172,7.6949,446.8863,6.8633,436.9554,7.0872,427.0245,6.6124,417.0936,7.284,407.1627,7.2468,397.2318,7.5524,387.3009,6.7703,377.37,6.8656,367.4391,7.4435,357.5082,7.5673,347.5773,6.4875,337.6464,6.8061,327.7155,7.1493,317.7846,6.3892,307.8537,7.3534,297.9228,7.258,287.9919,6.8992,278.061,7.1422,268.1301,7,258.1992" style="stroke:#A80036;stroke-width:1.5;"/><text fill="#000000" font-family="sans-serif" font-size="12" lengthAdjust="spacing" textLength="124" x="139" y="274.8008">PluginServiceInterface</text><path d="M8,282.332 L8,282.6123 L17.8974,281.7796 L27.7949,282.5897 L37.6923,282.8649 L47.5897,281.3808 L57.4872,282.2284 L67.3846,281.7634 L77.2821,281.8207 L87.1795,282.2412 L97.0769,281.4102 L106.9744,283.0702 L116.8718,281.4917 L126.7692,282.0683 L136.6667,282.908 L146.5641,282.2177 L156.4615,282.423 L166.359,282.2894 L176.2564,282.5701 L186.1538,282.6509 L196.0513,283.113 L205.9487,283.2268 L215.8462,283.2377 L225.7436,282.6715 L235.641,282.9501 L245.5385,283.2683 L255.4359,281.3705 L265.3333,283.2367 L275.2308,281.9367 L285.1282,283.0438 L295.0256,281.672 L304.9231,282.2407 L314.8205,283.3208 L324.7179,282.2671 L334.6154,282.4724 L344.5128,282.7835 L354.4103,282.887 L364.3077,282.3268 L374.2051,282.715 L384.1026,281.5688 L394,282.332 " fill="#FEFECE" style="stroke:#A80036;stroke-width:1.5;"/><path d="M8,290.332 L8,290.6123 L17.8974,289.7796 L27.7949,290.5897 L37.6923,290.8649 L47.5897,289.3808 L57.4872,290.2284 L67.3846,289.7634 L77.2821,289.8207 L87.1795,290.2412 L97.0769,289.4102 L106.9744,291.0702 L116.8718,289.4917 L126.7692,290.0683 L136.6667,290.908 L146.5641,290.2177 L156.4615,290.423 L166.359,290.2894 L176.2564,290.5701 L186.1538,290.6509 L196.0513,291.113 L205.9487,291.2268 L215.8462,291.2377 L225.7436,290.6715 L235.641,290.9501 L245.5385,291.2683 L255.4359,289.3705 L265.3333,291.2367 L275.2308,289.9367 L285.1282,291.0438 L295.0256,289.672 L304.9231,290.2407 L314.8205,291.3208 L324.7179,290.2671 L334.6154,290.4724 L344.5128,290.7835 L354.4103,290.887 L364.3077,290.3268 L374.2051,290.715 L384.1026,289.5688 L394,290.332 " fill="#FEFECE" style="stroke:#A80036;stroke-width:1.5;"/><text fill="#000000" font-family="sans-serif" font-size="11" lengthAdjust="spacing" textLength="122" x="13" y="304.9668">+単一データ取得：get()</text><text fill="#000000" font-family="sans-serif" font-size="11" lengthAdjust="spacing" textLength="152" x="13" y="317.9219">+一覧データ取得：getIndex()</text><text fill="#000000" font-family="sans-serif" font-size="11" lengthAdjust="spacing" textLength="235" x="13" y="330.877">+新しいプラグインをアップロードする：add()</text><text fill="#000000" font-family="sans-serif" font-size="11" lengthAdjust="spacing" textLength="126" x="13" y="343.832">+インストール：install()</text><text fill="#000000" font-family="sans-serif" font-size="11" lengthAdjust="spacing" textLength="185" x="13" y="356.7871">+プラグインを無効にする：detach()</text><text fill="#000000" font-family="sans-serif" font-size="11" lengthAdjust="spacing" textLength="213" x="13" y="369.7422">+データベースをリセットする：resetDb()</text><text fill="#000000" font-family="sans-serif" font-size="11" lengthAdjust="spacing" textLength="162" x="13" y="382.6973">+アンインストール：uninstall()</text><text fill="#000000" font-family="sans-serif" font-size="11" lengthAdjust="spacing" textLength="194" x="13" y="395.6523">+優先度を変更する：changePriority()</text><text fill="#000000" font-family="sans-serif" font-size="11" lengthAdjust="spacing" textLength="219" x="13" y="408.6074">+プラグインをアップデートする：update()</text><text fill="#000000" font-family="sans-serif" font-size="11" lengthAdjust="spacing" textLength="348" x="13" y="421.5625">+baserマーケットのプラグイン一覧を取得する：getMarketPlugins()</text><text fill="#000000" font-family="sans-serif" font-size="11" lengthAdjust="spacing" textLength="297" x="13" y="434.5176">+ユーザーグループにアクセス許可設定を追加する：allow()</text><text fill="#000000" font-family="sans-serif" font-size="11" lengthAdjust="spacing" textLength="329" x="13" y="447.4727">+プラグイン名からプラグインエンティティを取得：getByName()</text><text fill="#000000" font-family="sans-serif" font-size="11" lengthAdjust="spacing" textLength="376" x="13" y="460.4277">+インストールに関するメッセージを取得する：getInstallStatusMessage()</text><!--MD5=[655a3e5177c0e2e2fadcbd208aea026e]
class BcPlugin--><polygon fill="#FEFECE" filter="url(#f1kftfgm5hlk3z)" points="178.5,533.6992,178.5,533.9094,188.3276,533.2849,198.1552,533.8925,207.9828,534.0989,217.8103,532.9858,227.6379,533.6215,237.4655,533.2727,247.2931,533.3157,257.1207,533.6311,266.9483,533.0078,276.7759,534.2529,286.6034,533.0689,296.431,533.5015,306.2586,534.1312,316.0862,533.6134,325.9138,533.7675,335.7414,533.6673,345.569,533.8777,355.3966,533.9384,365.2241,534.2849,375.0517,534.3703,384.8793,534.3785,394.7069,533.9538,404.5345,534.1628,414.3621,534.4015,424.1897,532.978,434.0172,534.3777,443.8448,533.4027,453.6724,534.233,463.5,533.6992,463.005,533.6992,463.4315,543.9162,464.2416,554.1332,463.4513,564.3503,463.6053,574.5673,463.8386,584.7843,463.9162,595.0013,463.4961,605.2183,463.7872,615.4353,463.5,625.6523,463.5,625.0799,453.6724,625.9367,443.8448,626.2005,434.0172,626.0969,424.1897,626.2654,414.3621,625.1693,404.5345,625.0002,394.7069,625.0309,384.8793,625.5935,375.0517,625.4558,365.2241,626.3338,355.3966,625.4777,345.569,625.3093,335.7414,625.8806,325.9138,624.9855,316.0862,625.1332,306.2586,626.3013,296.431,626.088,286.6034,626.3868,276.7759,625.3305,266.9483,625.9715,257.1207,626.2428,247.2931,625.1799,237.4655,625.5565,227.6379,625.7783,217.8103,626.3041,207.9828,625.6482,198.1552,626.1149,188.3276,625.0986,178.5,625.6523,177.8227,625.6523,179.0036,615.4353,177.7831,605.2183,179.009,595.0013,178.7066,584.7843,178.2321,574.5673,178.1462,564.3503,178.9588,554.1332,178.2007,543.9162,178.5,533.6992" style="stroke:#A80036;stroke-width:1.5;"/><text fill="#000000" font-family="sans-serif" font-size="12" lengthAdjust="spacing" textLength="47" x="297.5" y="550.3008">BcPlugin</text><path d="M179.5,557.832 L179.5,558.1123 L189.6071,557.2796 L199.7143,558.0897 L209.8214,558.3649 L219.9286,556.8808 L230.0357,557.7284 L240.1429,557.2634 L250.25,557.3207 L260.3571,557.7412 L270.4643,556.9102 L280.5714,558.5702 L290.6786,556.9917 L300.7857,557.5683 L310.8929,558.408 L321,557.7177 L331.1071,557.923 L341.2143,557.7894 L351.3214,558.0701 L361.4286,558.1509 L371.5357,558.613 L381.6429,558.7268 L391.75,558.7377 L401.8571,558.1715 L411.9643,558.4501 L422.0714,558.7683 L432.1786,556.8705 L442.2857,558.7367 L452.3929,557.4367 L462.5,557.832 " fill="#FEFECE" style="stroke:#A80036;stroke-width:1.5;"/><text fill="#000000" font-family="sans-serif" font-size="11" lengthAdjust="spacing" textLength="66" x="184.5" y="572.4668">+Migrations</text><path d="M179.5,578.7871 L179.5,579.0674 L189.6071,578.2347 L199.7143,579.0448 L209.8214,579.32 L219.9286,577.8359 L230.0357,578.6835 L240.1429,578.2185 L250.25,578.2758 L260.3571,578.6962 L270.4643,577.8653 L280.5714,579.5253 L290.6786,577.9467 L300.7857,578.5234 L310.8929,579.363 L321,578.6727 L331.1071,578.8781 L341.2143,578.7445 L351.3214,579.0251 L361.4286,579.106 L371.5357,579.568 L381.6429,579.6818 L391.75,579.6928 L401.8571,579.1266 L411.9643,579.4052 L422.0714,579.7234 L432.1786,577.8255 L442.2857,579.6918 L452.3929,578.3918 L462.5,578.7871 " fill="#FEFECE" style="stroke:#A80036;stroke-width:1.5;"/><text fill="#000000" font-family="sans-serif" font-size="11" lengthAdjust="spacing" textLength="214" x="184.5" y="593.4219">+プラグインをインストールする：install()</text><text fill="#000000" font-family="sans-serif" font-size="11" lengthAdjust="spacing" textLength="250" x="184.5" y="606.377">+プラグインをアンインストールする：uninstall()</text><text fill="#000000" font-family="sans-serif" font-size="11" lengthAdjust="spacing" textLength="273" x="184.5" y="619.332">+プラグインのテーブルをリセットする：rollbackDb()</text><path d="M170,738.6992 L170,764.0098 A0,0 0 0 0 170,764.0098 L472,764.0098 A0,0 0 0 0 472,764.0098 L472,748.6992 L462,738.6992 L325,738.6992 L321,626.1192 L317,738.6992 L170,738.6992 A0,0 0 0 0 170,738.6992 " fill="#FBFB77" filter="url(#f1kftfgm5hlk3z)" style="stroke:#A80036;stroke-width:1.0;"/><path d="M462,738.6992 L462.1868,738.6992 L461.6317,740.6992 L462.1718,742.6992 L462.3553,744.6992 L461.3659,746.6992 L462,748.6992 L462,748.6301 L464,748.3201 L466,748.3583 L468,748.6386 L470,748.0847 L472,748.6992 L472.348,749.0472 L469.6038,746.3031 L467.8757,744.5749 L466.2715,742.9707 L463.9461,740.6453 L462,738.6992 " fill="#FBFB77" style="stroke:#A80036;stroke-width:1.0;"/><text fill="#000000" font-family="sans-serif" font-size="13" lengthAdjust="spacing" textLength="281" x="176" y="756.2676">プラグインの Plugin クラスが継承して利用する</text><!--MD5=[6978ce3b411356249e6c02b7f1eca689]
class PluginsTable--><polygon fill="#FEFECE" filter="url(#f1kftfgm5hlk3z)" points="499,527.1992,499,527.4094,509.0769,526.7849,519.1538,527.3925,529.2308,527.5989,539.3077,526.4858,549.3846,527.1215,559.4615,526.7727,569.5385,526.8157,579.6154,527.1311,589.6923,526.5078,599.7692,527.7529,609.8462,526.5689,619.9231,527.0015,630,527.6312,640.0769,527.1134,650.1538,527.2675,660.2308,527.1673,670.3077,527.3777,680.3846,527.4384,690.4615,527.7849,700.5385,527.8703,710.6154,527.8785,720.6923,527.4538,730.7692,527.6628,740.8462,527.9015,750.9231,526.478,761,527.1992,761.6785,527.1992,760.7035,537.69,761.5338,548.1809,760.505,558.6717,760.9315,569.1625,761.7416,579.6533,760.9513,590.1441,761.1053,600.635,761.3386,611.1258,761.4162,621.6166,761,632.1074,761,632.1035,750.9231,632.3946,740.8462,631.535,730.7692,632.3918,720.6923,632.6556,710.6154,632.552,700.5385,632.7204,690.4615,631.6243,680.3846,631.4552,670.3077,631.486,660.2308,632.0485,650.1538,631.9109,640.0769,632.7888,630,631.9327,619.9231,631.7644,609.8462,632.3357,599.7692,631.4406,589.6923,631.5883,579.6154,632.7564,569.5385,632.5431,559.4615,632.8419,549.3846,631.7856,539.3077,632.4266,529.2308,632.6978,519.1538,631.635,509.0769,632.0116,499,632.1074,499.126,632.1074,499.6518,621.6166,498.9958,611.1258,499.4626,600.635,498.4462,590.1441,498.3227,579.6533,499.5036,569.1625,498.2831,558.6717,499.509,548.1809,499.2066,537.69,499,527.1992" style="stroke:#A80036;stroke-width:1.5;"/><text fill="#000000" font-family="sans-serif" font-size="12" lengthAdjust="spacing" textLength="73" x="593.5" y="543.8008">PluginsTable</text><path d="M500,551.332 L500,551.6123 L510,550.7796 L520,551.5897 L530,551.8649 L540,550.3808 L550,551.2284 L560,550.7634 L570,550.8207 L580,551.2412 L590,550.4102 L600,552.0702 L610,550.4917 L620,551.0683 L630,551.908 L640,551.2177 L650,551.423 L660,551.2894 L670,551.5701 L680,551.6509 L690,552.113 L700,552.2268 L710,552.2377 L720,551.6715 L730,551.9501 L740,552.2683 L750,550.3705 L760,551.332 " fill="#FEFECE" style="stroke:#A80036;stroke-width:1.5;"/><path d="M500,559.332 L500,559.6123 L510,558.7796 L520,559.5897 L530,559.8649 L540,558.3808 L550,559.2284 L560,558.7634 L570,558.8207 L580,559.2412 L590,558.4102 L600,560.0702 L610,558.4917 L620,559.0683 L630,559.908 L640,559.2177 L650,559.423 L660,559.2894 L670,559.5701 L680,559.6509 L690,560.113 L700,560.2268 L710,560.2377 L720,559.6715 L730,559.9501 L740,560.2683 L750,558.3705 L760,559.332 " fill="#FEFECE" style="stroke:#A80036;stroke-width:1.5;"/><text fill="#000000" font-family="sans-serif" font-size="11" lengthAdjust="spacing" textLength="214" x="505" y="573.9668">+プラグインをインストールする：install()</text><text fill="#000000" font-family="sans-serif" font-size="11" lengthAdjust="spacing" textLength="250" x="505" y="586.9219">+プラグインをアンインストールする：uninstall()</text><text fill="#000000" font-family="sans-serif" font-size="11" lengthAdjust="spacing" textLength="185" x="505" y="599.877">+プラグインを無効化する：detach()</text><text fill="#000000" font-family="sans-serif" font-size="11" lengthAdjust="spacing" textLength="205" x="505" y="612.832">+優先順位を変更する：changePriority()</text><text fill="#000000" font-family="sans-serif" font-size="11" lengthAdjust="spacing" textLength="246" x="505" y="625.7871">+プラグイン情報を取得する：getPluginConfig()</text><!--MD5=[b628511dd50102041730ee0512f882c8]
class Plugin--><polygon fill="#FEFECE" filter="url(#f1kftfgm5hlk3z)" points="528.5,692.1992,528.5,692.4094,538.65,691.7849,548.8,692.3925,558.95,692.5989,569.1,691.4858,579.25,692.1215,589.4,691.7727,599.55,691.8157,609.7,692.1311,619.85,691.5078,630,692.7529,640.15,691.5689,650.3,692.0015,660.45,692.6312,670.6,692.1134,680.75,692.2675,690.9,692.1673,701.05,692.3777,711.2,692.4384,721.35,692.7849,731.5,692.1992,732.1711,692.1992,732.1793,702.0212,731.7546,711.8431,731.9636,721.665,732.2022,731.487,730.7788,741.3089,732.1785,751.1309,731.2035,760.9528,732.0338,770.7747,731.005,780.5967,731.4315,790.4186,732.2416,800.2406,731.5,810.0625,731.5,810.0138,721.35,810.1678,711.2,810.4011,701.05,810.4787,690.9,810.0586,680.75,810.3497,670.6,809.4901,660.45,810.3469,650.3,810.6107,640.15,810.507,630,810.6755,619.85,809.5794,609.7,809.4103,599.55,809.4411,589.4,810.0036,579.25,809.866,569.1,810.7439,558.95,809.8878,548.8,809.7194,538.65,810.2908,528.5,810.0625,527.8332,810.0625,527.9809,800.2406,529.149,790.4186,528.9357,780.5967,529.2345,770.7747,528.1782,760.9528,528.8192,751.1309,529.0904,741.3089,528.0276,731.487,528.4041,721.665,528.626,711.8431,529.1518,702.0212,528.5,692.1992" style="stroke:#A80036;stroke-width:1.5;"/><text fill="#000000" font-family="sans-serif" font-size="12" lengthAdjust="spacing" textLength="34" x="613" y="708.8008">Plugin</text><path d="M529.5,716.332 L529.5,716.6123 L539.55,715.7796 L549.6,716.5897 L559.65,716.8649 L569.7,715.3808 L579.75,716.2284 L589.8,715.7634 L599.85,715.8207 L609.9,716.2412 L619.95,715.4102 L630,717.0702 L640.05,715.4917 L650.1,716.0683 L660.15,716.908 L670.2,716.2177 L680.25,716.423 L690.3,716.2894 L700.35,716.5701 L710.4,716.6509 L720.45,717.113 L730.5,716.332 " fill="#FEFECE" style="stroke:#A80036;stroke-width:1.5;"/><text fill="#000000" font-family="sans-serif" font-size="11" lengthAdjust="spacing" textLength="71" x="534.5" y="730.9668">+名前：name</text><text fill="#000000" font-family="sans-serif" font-size="11" lengthAdjust="spacing" textLength="84" x="534.5" y="743.9219">+タイトル：title</text><text fill="#000000" font-family="sans-serif" font-size="11" lengthAdjust="spacing" textLength="115" x="534.5" y="756.877">+バージョン：version</text><text fill="#000000" font-family="sans-serif" font-size="11" lengthAdjust="spacing" textLength="108" x="534.5" y="769.832">+有効・無効：status</text><text fill="#000000" font-family="sans-serif" font-size="11" lengthAdjust="spacing" textLength="191" x="534.5" y="782.7871">+データベース初期化状態：db_inited</text><text fill="#000000" font-family="sans-serif" font-size="11" lengthAdjust="spacing" textLength="93" x="534.5" y="795.7422">+優先度：priority</text><path d="M529.5,802.0625 L529.5,802.3427 L539.55,801.5101 L549.6,802.3202 L559.65,802.5954 L569.7,801.1113 L579.75,801.9589 L589.8,801.4938 L599.85,801.5512 L609.9,801.9716 L619.95,801.1407 L630,802.8007 L640.05,801.2221 L650.1,801.7988 L660.15,802.6384 L670.2,801.9481 L680.25,802.1535 L690.3,802.0199 L700.35,802.3005 L710.4,802.3813 L720.45,802.8434 L730.5,802.0625 " fill="#FEFECE" style="stroke:#A80036;stroke-width:1.5;"/><!--MD5=[54d23c8c1a5cafa96e04403a536e6ab2]
link Admin\PluginsController to PluginService--><path d="M475,198.3392 L475.2802,198.3392 L474.4476,208.5384 L475.2577,218.7377 L475.5329,228.9369 L474.0488,239.1361 L474.8964,249.3354 L474.4313,259.5346 L474.4887,269.7338 L474.9091,279.9331 L474.0782,290.1323 L475.7382,300.3315 L474.1596,310.5308 L474.7363,320.73 L475,330.9292 " fill="none" style="stroke:#000000;stroke-width:1.0;"/><polygon fill="#000000" points="475,336.0492,475.064,336.0777,475.6738,334.1931,476.6589,332.4754,477.5217,330.7033,477.9827,328.7526,479,327.0492,478.9817,327.0309,478.0995,327.7487,477.3096,328.5588,476.5839,329.4332,475.637,330.0863,475,331.0492,475.1305,331.1797,474.0514,330.1007,473.3534,329.4026,472.7018,328.751,471.7798,327.829,471,327.0492,471.0208,327.0585,471.7903,328.8449,472.6544,330.6734,473.4728,332.4816,474.3784,334.3285,475,336.0492" style="stroke:#000000;stroke-width:1.0;"/><!--MD5=[be307f90a6575eb2704e0e33a582aa57]
reverse link PluginService to BcAdminPluginHelper--><path d="M524.88,362.6992 L524.88,362.7926 L530.858,362.5151 L536.836,362.7851 L542.814,362.8769 L548.792,362.3822 L554.77,362.6992 " fill="none" style="stroke:#000000;stroke-width:1.0;"/><polygon fill="#000000" points="519.67,362.6992,519.6985,362.7632,521.4139,363.373,523.2962,364.3581,525.1241,365.221,526.7734,365.6819,528.67,366.6992,528.6517,366.6809,527.7695,365.7987,526.9796,365.0088,526.2539,364.2832,525.307,363.3363,524.67,362.6992,524.8005,362.8297,525.3214,361.7507,526.2234,361.0526,527.1718,360.401,527.8498,359.479,528.67,358.6992,528.6792,358.72,526.8657,359.4895,525.0942,360.3536,523.3024,361.1721,521.5493,362.0776,519.67,362.6992" style="stroke:#000000;stroke-width:1.0;"/><!--MD5=[e516edbb86b436d45886ef45213d88dc]
link PluginService to PluginsTable--><path d="M488.97,389.4892 L489.0512,389.5354 L490.8084,392.9148 L493.0416,396.5649 L495.1198,400.1268 L496.6882,403.3989 L498.9623,407.0722 L498.9326,407.0546 L501.1426,410.9246 L503.5023,414.8835 L505.9661,418.9042 L508.0712,422.712 L510.6788,426.818 L510.8881,426.9472 L511.7057,428.7201 L513.1345,430.8704 L514.6379,433.0667 L515.7074,434.9952 L517.0051,437.0645 L517.0306,437.0808 L518.3017,439.1094 L519.6893,441.2121 L521.0206,443.2791 L522.4591,445.4143 L523.5483,447.3269 L523.797,447.4915 L525.1378,449.5142 L526.3182,451.4306 L527.7333,453.5025 L529.1595,455.5817 L530.2371,457.4301 L529.9735,457.2477 L531.8376,459.5556 L532.8339,461.2627 L534.4899,463.4266 L535.4665,465.1202 L537,467.1992 L536.9754,467.1812 L539.3475,470.2376 L541.1455,472.8739 L543.2823,475.758 L545.4474,478.663 L547.4075,481.4178 L547.554,481.5307 L549.6001,484.2648 L551.8966,487.1918 L553.788,489.8066 L556.2836,492.8871 L558.3775,495.658 L558.5676,495.8104 L560.7744,498.5782 L563.0756,501.4217 L564.9383,503.9136 L567.1224,506.6633 L569.5913,509.6413 L569.3786,509.4651 L571.7988,512.3142 L573.9795,514.9647 L576.5077,517.9032 L578.4425,520.3501 L580.73,523.0892 " fill="none" style="stroke:#000000;stroke-width:1.0;"/><polygon fill="#000000" points="584.03,527.0092,584.0973,527.0286,583.3526,525.0781,583.0025,523.2411,582.524,521.3672,581.6227,519.3716,581.3066,517.5444,581.2808,517.5421,581.0666,518.6591,580.9826,519.7875,580.989,520.9237,580.6838,522.0327,580.815,523.1799,580.8311,523.3637,579.6697,522.8722,578.5551,522.9176,577.4463,523.0284,576.3042,522.7581,575.1796,522.6883,575.1896,522.7088,576.945,523.5429,578.7459,524.4702,580.5248,525.3525,582.3456,526.3205,584.03,527.0092" style="stroke:#000000;stroke-width:1.0;"/><!--MD5=[1692f7acf723651568cd0ae331b5ce99]
link PluginService to BcPlugin--><path d="M460.67,389.4192 L460.7508,389.4662 L458.4696,392.8373 L456.6618,396.4836 L454.6998,400.0404 L452.2309,403.3023 L450.4638,406.9723 L450.4342,406.9545 L447.9182,410.8223 L445.5513,414.78 L443.2881,418.8003 L440.6677,422.605 L438.5475,426.7117 L438.7562,426.8421 L437.0278,428.6144 L435.9087,430.7675 L434.8639,432.967 L433.3866,434.8963 L432.1368,436.9677 L432.1623,436.9841 L430.8025,439.0164 L429.5588,441.1234 L428.2591,443.1945 L427.0663,445.3342 L425.525,447.2498 L425.7734,447.415 L424.4289,449.444 L422.9243,451.3665 L421.6541,453.4449 L420.395,455.5306 L418.7876,457.3848 L418.524,457.2025 L417.6781,459.5193 L415.9642,461.2356 L414.9102,463.4084 L413.1766,465.1112 L412,467.1992 L411.9754,467.1813 L409.9543,470.5663 L407.3582,473.5325 L405.1014,476.7458 L402.8731,479.9799 L400.4394,483.0642 L400.5863,483.1767 L398.0051,486.2407 L395.675,489.4968 L392.9388,492.4421 L390.8082,495.8511 L388.275,498.9517 L388.4657,499.1034 L385.9622,502.1765 L383.5535,505.3248 L380.7049,508.1233 L378.1787,511.1783 L375.9381,514.4605 L375.7246,514.2853 L373.5023,517.3896 L371.0393,520.2966 L368.9254,523.4898 L366.2156,526.1942 L363.86,529.1892 " fill="none" style="stroke:#000000;stroke-width:1.0;"/><polygon fill="#000000" points="360.32,533.4292,360.351,533.4921,362.0255,532.4341,363.8817,531.7444,365.6787,530.9348,367.2812,529.7308,369.153,529.0727,369.1506,529.0469,368.0133,529.034,366.888,529.1511,365.7708,529.3586,364.6253,529.2546,363.5195,529.5869,363.7033,529.6037,363.2075,528.4412,363.2482,527.3276,363.3544,526.22,363.0797,525.0776,363.0053,523.9535,363.0272,523.9597,362.458,525.8457,361.9884,527.76,361.4708,529.6607,361.0449,531.5873,360.32,533.4292" style="stroke:#000000;stroke-width:1.0;"/><!--MD5=[fa521ed082b6b3a24406615180103f17]
link BcPlugin to PluginsTable--><path d="M463.73,579.6992 L463.73,579.7926 L469.704,579.5151 L475.678,579.7851 L481.652,579.8769 L487.626,579.3822 L493.6,579.6992 " fill="none" style="stroke:#000000;stroke-width:1.0;"/><polygon fill="#000000" points="498.8,579.6992,498.8285,579.7632,496.9439,578.773,495.2262,578.1581,493.4541,577.421,491.5034,576.2819,489.8,575.6992,489.7817,575.6809,490.4995,576.3987,491.3096,577.2088,492.1839,578.0832,492.837,578.7363,493.8,579.6992,493.9305,579.8297,492.8514,580.3507,492.1534,581.2526,491.5018,582.201,490.5798,582.879,489.8,583.6992,489.8092,583.72,491.5957,582.8895,493.4242,582.1536,495.2324,581.3721,497.0793,580.6776,498.8,579.6992" style="stroke:#000000;stroke-width:1.0;"/><!--MD5=[b41bcc7f2e02d8759be891ea089e8ad4]
reverse link PluginServiceInterface to PluginService--><path d="M415.33,362.6992 L415.33,362.7926 L418.356,362.5151 L421.382,362.7851 L424.408,362.8769 L427.434,362.3822 L430.46,362.6992 " fill="none" style="stroke:#000000;stroke-width:1.0;stroke-dasharray:1.0,3.0;"/><polygon fill="none" points="415.26,369.6992,415.2831,369.7653,411.2144,368.1689,407.2813,366.96,403.304,365.625,399.1814,363.8748,395.26,362.6992,395.2514,362.6748,399.213,361.165,403.2178,359.7786,407.2525,358.4778,411.1839,356.8817,415.26,355.6992,415.4445,355.6992,415.0499,358.4992,415.1941,361.2992,415.404,364.0992,415.2314,366.8992,415.26,369.6992" style="stroke:#000000;stroke-width:1.0;"/><!--MD5=[dbf0c2efa9763d0c189a018e44238349]
link PluginsTable to Plugin--><path d="M630,632.4792 L630.2802,632.4792 L629.4476,643.3652 L630.2577,654.2512 L630.5329,665.1372 L629.0488,676.0232 L630,686.9092 " fill="none" style="stroke:#000000;stroke-width:1.0;"/><polygon fill="#000000" points="630,691.9292,630.064,691.9577,630.6738,690.0731,631.6589,688.3554,632.5217,686.5833,632.9827,684.6326,634,682.9292,633.9817,682.9109,633.0995,683.6287,632.3096,684.4388,631.5839,685.3132,630.637,685.9663,630,686.9292,630.1305,687.0597,629.0514,685.9807,628.3534,685.2826,627.7018,684.631,626.7798,683.709,626,682.9292,626.0208,682.9385,626.7903,684.7249,627.6544,686.5534,628.4728,688.3616,629.3784,690.2085,630,691.9292" style="stroke:#000000;stroke-width:1.0;"/><!--MD5=[ced0969d3c9cfc7df683ca87a6803c0d]
@startuml
skinparam handwritten true
skinparam backgroundColor white
hide circle
skinparam classAttributeIconSize 0

title プラグイン管理

class Admin\PluginsController {
  + プラグイン一覧を表示：index()
  + 新しいプラグインをアップロードする：add()
  + プラグインをインストールする：install()
  + プラグインを無効化する：detach()
  + データベースをリセットする：reset_db()
  + プラグインをアンインストールする：uninstall()
  + プラグインを一括無効化する：batch()
  + 優先順位の並び替えを更新する：update_sort()
  + プラグインをアップデートする：update()
  + baserマーケットのプラグインデータを取得する：get_market_plugins()
}

class BcAdminPluginHelper {
  + プラグインインストールについてのメッセージを取得する：getInstallStatusMessage()
}

class PluginService {
  + PluginsTable
}

class PluginServiceInterface {
  + 単一データ取得：get()
  + 一覧データ取得：getIndex()
	+ 新しいプラグインをアップロードする：add()
  + インストール：install()
	+ プラグインを無効にする：detach()
	+ データベースをリセットする：resetDb()
  + アンインストール：uninstall()
  + 優先度を変更する：changePriority()
  + プラグインをアップデートする：update()
  + baserマーケットのプラグイン一覧を取得する：getMarketPlugins()
	+ ユーザーグループにアクセス許可設定を追加する：allow()
	+ プラグイン名からプラグインエンティティを取得：getByName()
	+ インストールに関するメッセージを取得する：getInstallStatusMessage()
}

class BcPlugin {
	+ Migrations
	+ プラグインをインストールする：install()
	+ プラグインをアンインストールする：uninstall()
	+ プラグインのテーブルをリセットする：rollbackDb()
}
note bottom of (BcPlugin)
プラグインの Plugin クラスが継承して利用する
endnote

class PluginsTable {
  + プラグインをインストールする：install()
  + プラグインをアンインストールする：uninstall()
  + プラグインを無効化する：detach()
  + 優先順位を変更する：changePriority()
  + プラグイン情報を取得する：getPluginConfig()
}

class Plugin {
	+ 名前：name
	+ タイトル：title
	+ バージョン：version
	+ 有効・無効：status
	+ データベース初期化状態：db_inited
	+ 優先度：priority
}

Admin\PluginsController -down[#Black]-> PluginService
BcAdminPluginHelper -left[#Black]-> PluginService
PluginService -down[#Black]-> PluginsTable
PluginService -down[#Black]-> BcPlugin
BcPlugin -right[#Black]-> PluginsTable
PluginService -left[dotted,#Black]-|> PluginServiceInterface
PluginsTable -down[#Black]-> Plugin

@enduml

PlantUML version 1.2022.1(Wed Feb 02 03:19:58 JST 2022)
(GPL source distribution)
Java Runtime: Java(TM) SE Runtime Environment
JVM: Java HotSpot(TM) 64-Bit Server VM
Default Encoding: UTF-8
Language: ja
Country: JP
--></g></svg>