<?xml version="1.0" encoding="UTF-8" standalone="no"?><svg xmlns="http://www.w3.org/2000/svg" xmlns:xlink="http://www.w3.org/1999/xlink" contentScriptType="application/ecmascript" contentStyleType="text/css" height="573px" preserveAspectRatio="none" style="width:387px;height:573px;" version="1.1" viewBox="0 0 387 573" width="387px" zoomAndPan="magnify"><defs><filter height="300%" id="fnijh7q" width="300%" x="-1" y="-1"><feGaussianBlur result="blurOut" stdDeviation="2.0"/><feColorMatrix in="blurOut" result="blurOut2" type="matrix" values="0 0 0 0 0 0 0 0 0 0 0 0 0 0 0 0 0 0 .4 0"/><feOffset dx="4.0" dy="4.0" in="blurOut2" result="blurOut3"/><feBlend in="SourceGraphic" in2="blurOut3" mode="normal"/></filter></defs><g><text fill="#000000" font-family="sans-serif" font-size="18" lengthAdjust="spacingAndGlyphs" textLength="72" x="162" y="17.4023">ログ管理</text><!--class Admin\DblogsController--><polygon fill="#FEFECE" filter="url(#fnijh7q)" points="223,29.1992,223,29.4796,232.8,28.5065,242.6,29.6821,252.4,29.2091,262.2,29.767,272,28.8488,281.8,29.4305,291.6,28.627,301.4,29.7726,311.2,29.8176,321,29.2719,330.8,29.0711,340.6,28.9578,350.4,29.5088,360.2,28.9375,370,29.1992,369.3943,29.1992,369.2736,38.6339,369.788,48.0686,369.4013,57.5033,370.736,66.9381,370.0902,76.3728,369.6435,85.8075,370,95.2422,370,95.9276,360.2,95.0042,350.4,95.9322,340.6,95.6487,330.8,95.6379,321,95.6705,311.2,95.3656,301.4,95.091,291.6,95.7995,281.8,94.601,272,94.5579,262.2,94.5893,252.4,94.5025,242.6,95.9222,232.8,95.6266,223,95.2422,222.6047,95.2422,222.3002,85.8075,223.0394,76.3728,223.4517,66.9381,223.0868,57.5033,222.6716,48.0686,223.2096,38.6339,223,29.1992" style="stroke: #A80036; stroke-width: 1.5;"/><text fill="#000000" font-family="sans-serif" font-size="12" lengthAdjust="spacingAndGlyphs" textLength="139" x="227" y="45.8008">Admin\DblogsController</text><path d="M224,53.332 L224,53.9705 L233.6667,52.7281 L243.3333,54.1587 L253,53.8193 L262.6667,54.0314 L272.3333,53.9855 L282,52.908 L291.6667,54.0055 L301.3333,53.3723 L311,53.7901 L320.6667,53.261 L330.3333,54.0973 L340,53.6856 L349.6667,52.647 L359.3333,54.2039 L369,53.332 " fill="#FEFECE" style="stroke: #A80036; stroke-width: 1.5;"/><path d="M224,61.332 L224,60.8562 L233.6667,61.2282 L243.3333,61.4825 L253,60.9335 L262.6667,61.3157 L272.3333,62.0522 L282,62.2626 L291.6667,62.23 L301.3333,61.4766 L311,61.2605 L320.6667,62.076 L330.3333,62.1616 L340,62.1866 L349.6667,62.331 L359.3333,60.9353 L369,61.332 " fill="#FEFECE" style="stroke: #A80036; stroke-width: 1.5;"/><text fill="#000000" font-family="sans-serif" font-size="11" lengthAdjust="spacingAndGlyphs" textLength="135" x="229" y="75.9668">+ログ一覧を表示：index()</text><text fill="#000000" font-family="sans-serif" font-size="11" lengthAdjust="spacingAndGlyphs" textLength="122" x="229" y="88.9219">+一括削除：delete_all()</text><!--class DblogsService--><polygon fill="#FEFECE" filter="url(#fnijh7q)" points="252.5,207.1992,252.5,207.7129,262.2778,207.9003,272.0556,207.786,281.8333,206.5055,291.6111,207.2408,301.3889,207.7207,311.1667,207.0325,320.9444,206.9306,330.7222,207.5456,340.5,207.1992,341.2451,207.1992,340.2915,217.8168,340.0775,228.4344,341.1131,239.052,340.455,249.6695,340.5,260.2871,340.5,259.843,330.7222,260.0287,320.9444,259.8116,311.1667,259.7226,301.3889,260.9994,291.6111,260.7091,281.8333,259.921,272.0556,259.5678,262.2778,260.6386,252.5,260.2871,252.9136,260.2871,251.8808,249.6695,252.287,239.052,252.0148,228.4344,251.8989,217.8168,252.5,207.1992" style="stroke: #A80036; stroke-width: 1.5;"/><text fill="#000000" font-family="sans-serif" font-size="12" lengthAdjust="spacingAndGlyphs" textLength="80" x="256.5" y="223.8008">DblogsService</text><path d="M253.5,231.332 L253.5,232.2859 L263.0556,231.4591 L272.6111,232.2047 L282.1667,231.0102 L291.7222,230.8221 L301.2778,230.3628 L310.8333,231.3165 L320.3889,231.5845 L329.9444,232.2517 L339.5,231.332 " fill="#FEFECE" style="stroke: #A80036; stroke-width: 1.5;"/><text fill="#000000" font-family="sans-serif" font-size="11" lengthAdjust="spacingAndGlyphs" textLength="76" x="258.5" y="245.9668">+DblogsTable</text><path d="M253.5,252.2871 L253.5,251.5732 L263.0556,251.9574 L272.6111,253.1429 L282.1667,251.5972 L291.7222,252.1088 L301.2778,251.3637 L310.8333,251.3035 L320.3889,252.6354 L329.9444,253.1247 L339.5,252.2871 " fill="#FEFECE" style="stroke: #A80036; stroke-width: 1.5;"/><!--class DblogsServiceInterface--><polygon fill="#FEFECE" filter="url(#fnijh7q)" points="6,155.1992,6,154.5271,16.0476,154.8515,26.0952,154.7539,36.1429,154.5193,46.1905,155.1249,56.2381,155.5372,66.2857,154.7372,76.3333,155.5474,86.381,155.1767,96.4286,155.0766,106.4762,154.785,116.5238,155.3527,126.5714,155.403,136.619,155.2177,146.6667,155.9013,156.7143,154.876,166.7619,155.8312,176.8095,154.9619,186.8571,154.6709,196.9048,155.6257,206.9524,155.2003,217,155.1992,217.0789,155.1992,217.7055,164.9948,217.5437,174.7903,216.4087,184.5858,216.8639,194.3813,216.5487,204.1769,217.5206,213.9724,217.0838,223.7679,216.5378,233.5635,216.9988,243.359,216.6881,253.1545,217.0688,262.9501,216.9229,272.7456,217.5397,282.5411,216.7601,292.3367,216.3288,302.1322,217,311.9277,217,312.1807,206.9524,312.3572,196.9048,312.0135,186.8571,311.2965,176.8095,312.2521,166.7619,312.0218,156.7143,311.7669,146.6667,311.2534,136.619,311.3368,126.5714,311.4962,116.5238,311.5752,106.4762,312.6488,96.4286,312.5419,86.381,312.4247,76.3333,312.0686,66.2857,312.0344,56.2381,312.3216,46.1905,312.2782,36.1429,312.5153,26.0952,312.1336,16.0476,311.3147,6,311.9277,5.7433,311.9277,5.6626,302.1322,6.3578,292.3367,5.6801,282.5411,6.5372,272.7456,5.9898,262.9501,6.1007,253.1545,5.474,243.359,5.2986,233.5635,6.3843,223.7679,6.0881,213.9724,5.9584,204.1769,5.6382,194.3813,5.7198,184.5858,5.7168,174.7903,5.4884,164.9948,6,155.1992" style="stroke: #A80036; stroke-width: 1.5;"/><text fill="#000000" font-family="sans-serif" font-size="12" lengthAdjust="spacingAndGlyphs" textLength="130" x="46.5" y="171.8008">DblogsServiceInterface</text><path d="M7,179.332 L7,179.3259 L16.9524,180.0567 L26.9048,179.816 L36.8571,179.8514 L46.8095,180.0658 L56.7619,179.2772 L66.7143,179.2791 L76.6667,179.8766 L86.619,180.18 L96.5714,179.8717 L106.5238,179.7703 L116.4762,179.294 L126.4286,178.3965 L136.381,179.6816 L146.3333,180.2099 L156.2857,179.3413 L166.2381,179.3312 L176.1905,180.313 L186.1429,179.8404 L196.0952,179.5168 L206.0476,178.5173 L216,179.332 " fill="#FEFECE" style="stroke: #A80036; stroke-width: 1.5;"/><text fill="#000000" font-family="sans-serif" font-size="11" lengthAdjust="spacingAndGlyphs" textLength="199" x="12" y="193.9668">+最新のDBログ一覧を取得：getDblogs</text><path d="M7,200.2871 L7,200.5046 L16.9524,199.3757 L26.9048,200.3637 L36.8571,199.7209 L46.8095,199.3926 L56.7619,200.8998 L66.7143,200.0718 L76.6667,200.1685 L86.619,200.2565 L96.5714,199.7497 L106.5238,200.1185 L116.4762,199.582 L126.4286,199.6627 L136.381,200.373 L146.3333,200.2276 L156.2857,201.1445 L166.2381,201.0589 L176.1905,200.2033 L186.1429,200.7727 L196.0952,201.041 L206.0476,199.4467 L216,200.2871 " fill="#FEFECE" style="stroke: #A80036; stroke-width: 1.5;"/><text fill="#000000" font-family="sans-serif" font-size="11" lengthAdjust="spacingAndGlyphs" textLength="144" x="12" y="214.9219">+初期データ取得：getNew()</text><text fill="#000000" font-family="sans-serif" font-size="11" lengthAdjust="spacingAndGlyphs" textLength="83" x="12" y="227.877">+作成：create()</text><text fill="#000000" font-family="sans-serif" font-size="11" lengthAdjust="spacingAndGlyphs" textLength="156" x="12" y="240.832">+編集：update() ※ 対応しない</text><text fill="#000000" font-family="sans-serif" font-size="11" lengthAdjust="spacingAndGlyphs" textLength="82" x="12" y="253.7871">+削除：delete()</text><text fill="#000000" font-family="sans-serif" font-size="11" lengthAdjust="spacingAndGlyphs" textLength="122" x="12" y="266.7422">+単一データ取得：get()</text><text fill="#000000" font-family="sans-serif" font-size="11" lengthAdjust="spacingAndGlyphs" textLength="152" x="12" y="279.6973">+一覧データ取得：getIndex()</text><text fill="#000000" font-family="sans-serif" font-size="11" lengthAdjust="spacingAndGlyphs" textLength="188" x="12" y="292.6523">+リスト取得：getList() ※ 対応しない</text><text fill="#000000" font-family="sans-serif" font-size="11" lengthAdjust="spacingAndGlyphs" textLength="118" x="12" y="305.6074">+一括削除：deleteAll()</text><!--class DblogsTable--><polygon fill="#FEFECE" filter="url(#fnijh7q)" points="257,372.1992,257,372.4337,266.875,372.7722,276.75,371.7506,286.625,372.7536,296.5,372.0443,306.375,372.61,316.25,372.3037,326.125,372.1825,336,372.1992,335.9433,372.1992,335.8995,380.2258,335.897,388.2523,335.7505,396.2789,335.8471,404.3055,336,412.332,336,412.3294,326.125,412.8963,316.25,412.0387,306.375,412.9359,296.5,412.5218,286.625,412.4732,276.75,412.7129,266.875,412.0688,257,412.332,257.0505,412.332,257.0753,404.3055,256.9196,396.2789,257.2219,388.2523,256.918,380.2258,257,372.1992" style="stroke: #A80036; stroke-width: 1.5;"/><text fill="#000000" font-family="sans-serif" font-size="12" lengthAdjust="spacingAndGlyphs" textLength="73" x="260" y="388.8008">DblogsTable</text><path d="M258,396.332 L258,397.3145 L267.625,396.2558 L277.25,396.9478 L286.875,396.1685 L296.5,395.7123 L306.125,397.1731 L315.75,397.0828 L325.375,396.3527 L335,396.332 " fill="#FEFECE" style="stroke: #A80036; stroke-width: 1.5;"/><path d="M258,404.332 L258,404.975 L267.625,404.8376 L277.25,404.9856 L286.875,404.8462 L296.5,404.2584 L306.125,403.5107 L315.75,403.4471 L325.375,404.0246 L335,404.332 " fill="#FEFECE" style="stroke: #A80036; stroke-width: 1.5;"/><!--class Dblog--><polygon fill="#FEFECE" filter="url(#fnijh7q)" points="215.5,472.1992,215.5,472.8516,225.625,471.6758,235.75,472.2197,245.875,471.7551,256,472.2608,266.125,472.8953,276.25,471.7257,286.375,472.3633,296.5,472.9211,306.625,471.8705,316.75,472.1079,326.875,471.8833,337,471.7446,347.125,472.3173,357.25,472.9358,367.375,471.8835,377.5,472.1992,377.8774,472.1992,378.0308,482.4162,376.8669,492.6332,377.6989,502.8503,377.3315,513.0673,377.1311,523.2843,377.4773,533.5013,377.4282,543.7183,376.9998,553.9353,377.5,564.1523,377.5,563.9652,367.375,563.8215,357.25,564.806,347.125,563.5278,337,563.8663,326.875,564.3017,316.75,563.4487,306.625,563.7787,296.5,563.7797,286.375,564.1823,276.25,564.076,266.125,564.3931,256,564.4138,245.875,564.7945,235.75,563.4902,225.625,563.6785,215.5,564.1523,215.8505,564.1523,215.4485,553.9353,215.1686,543.7183,215.9776,533.5013,215.8144,523.2843,216.1508,513.0673,215.6226,502.8503,215.1506,492.6332,216.069,482.4162,215.5,472.1992" style="stroke: #A80036; stroke-width: 1.5;"/><text fill="#000000" font-family="sans-serif" font-size="12" lengthAdjust="spacingAndGlyphs" textLength="34" x="279.5" y="488.8008">Dblog</text><path d="M216.5,496.332 L216.5,495.5742 L226.5,496.6498 L236.5,496.8191 L246.5,495.9203 L256.5,496.9207 L266.5,495.8434 L276.5,496.1209 L286.5,496.2668 L296.5,496.517 L306.5,495.4404 L316.5,497.285 L326.5,497.3078 L336.5,496.8887 L346.5,496.0637 L356.5,496.0771 L366.5,496.4304 L376.5,496.332 " fill="#FEFECE" style="stroke: #A80036; stroke-width: 1.5;"/><text fill="#000000" font-family="sans-serif" font-size="11" lengthAdjust="spacingAndGlyphs" textLength="122" x="221.5" y="510.9668">+メッセージ：message</text><text fill="#000000" font-family="sans-serif" font-size="11" lengthAdjust="spacingAndGlyphs" textLength="115" x="221.5" y="523.9219">+ユーザーID：user_id</text><text fill="#000000" font-family="sans-serif" font-size="11" lengthAdjust="spacingAndGlyphs" textLength="150" x="221.5" y="536.877">+コントローラー：controller</text><text fill="#000000" font-family="sans-serif" font-size="11" lengthAdjust="spacingAndGlyphs" textLength="108" x="221.5" y="549.832">+アクション：action</text><path d="M216.5,556.1523 L216.5,555.638 L226.5,556.6002 L236.5,555.5568 L246.5,556.8111 L256.5,556.7726 L266.5,556.6941 L276.5,555.4986 L286.5,555.29 L296.5,556.6833 L306.5,555.3677 L316.5,557.0065 L326.5,555.3033 L336.5,556.3968 L346.5,555.1815 L356.5,557.0762 L366.5,556.6274 L376.5,556.1523 " fill="#FEFECE" style="stroke: #A80036; stroke-width: 1.5;"/><path d="M296.5,95.4792 L296.4078,95.4792 L295.822,105.1729 L297.014,114.8665 L297.3861,124.5601 L296.7983,134.2538 L296.7049,143.9474 L296.486,153.641 L295.6886,163.3347 L296.8907,173.0283 L296.5186,182.7219 L296.9847,192.4156 L296.5,202.1092 " fill="none" style="stroke: #000000; stroke-width: 1.0;"/><polygon fill="#000000" points="296.5,207.1792,296.3447,207.1102,297.3297,205.3924,297.9575,203.5159,298.7663,201.7198,299.6715,199.9666,300.5,198.1792,300.4877,198.1669,299.538,198.8172,298.7245,199.6037,298.2365,200.7157,297.1643,201.2436,296.5,202.1792,296.3825,202.0617,295.5682,201.2474,294.7449,200.4241,294.0468,199.726,293.2351,198.9143,292.5,198.1792,292.5471,198.2002,293.2127,199.9404,294.1705,201.8105,295.0942,203.6655,295.6473,205.3558,296.5,207.1792" style="stroke: #000000; stroke-width: 1.0;"/><path d="M296.5,260.5392 L297.4547,260.5392 L296.2467,270.1801 L297.2924,279.821 L296.2569,289.4619 L297.4559,299.1029 L296.5313,308.7438 L296.9557,318.3847 L297.4486,328.0256 L295.6222,337.6665 L296.8251,347.3074 L296.4803,356.9483 L296.5,366.5892 " fill="none" style="stroke: #000000; stroke-width: 1.0;"/><polygon fill="#000000" points="296.5,371.7492,296.3631,371.6884,297.3828,369.986,297.944,368.0799,298.6797,366.2513,299.5041,364.4622,300.5,362.7492,300.4295,362.6787,299.7757,363.6249,298.906,364.3552,298.2314,365.2807,297.2739,365.9231,296.5,366.7492,296.5714,366.8206,295.7322,365.9815,294.7242,364.9735,294.1301,364.3794,293.4083,363.6576,292.5,362.7492,292.4838,362.742,293.3606,364.5762,294.2513,366.4164,294.7964,368.1032,295.8909,370.0341,296.5,371.7492" style="stroke: #000000; stroke-width: 1.0;"/><path d="M237.2,233.6992 L237.2,233.8422 L240.242,233.5094 L243.284,233.9143 L246.326,233.4773 L249.368,234.0224 L252.41,233.6992 " fill="none" style="stroke: #000000; stroke-width: 1.0; stroke-dasharray: 1.0,3.0;"/><polygon fill="none" points="237.01,240.6992,237.0905,240.9292,232.9796,239.2123,229.0253,237.9428,224.9801,236.4138,220.9387,234.8954,217.01,233.6992,217.0129,233.7074,221.0707,232.4727,224.9771,230.8052,229.0265,229.5465,233.0528,228.2215,237.01,226.6992,237.0928,226.6992,236.7954,229.4992,236.8121,232.2992,236.7615,235.0992,237.1054,237.8992,237.01,240.6992" style="stroke: #000000; stroke-width: 1.0;"/><path d="M296.5,412.2992 L296.3695,412.2992 L297.4333,423.1812 L296.9044,434.0632 L296.2007,444.9452 L297.2064,455.8272 L296.5,466.7092 " fill="none" style="stroke: #000000; stroke-width: 1.0;"/><polygon fill="#000000" points="296.5,472.0692,296.5656,472.0984,297.5205,470.3672,298.2803,468.5494,298.8069,466.6279,299.5172,464.788,300.5,463.0692,300.3288,462.8981,299.6469,463.8161,298.7296,464.4988,298.1363,465.5055,297.1258,466.0951,296.5,467.0692,296.3317,466.9009,295.5604,466.1296,294.7436,465.3129,293.9277,464.4969,293.4069,463.9761,292.5,463.0692,292.3493,463.0022,293.3533,464.8929,294.2306,466.7273,295.0528,468.5371,295.8319,470.3278,296.5,472.0692" style="stroke: #000000; stroke-width: 1.0;"/></g></svg>