<?xml version="1.0" encoding="UTF-8" standalone="no"?><svg xmlns="http://www.w3.org/2000/svg" xmlns:xlink="http://www.w3.org/1999/xlink" contentScriptType="application/ecmascript" contentStyleType="text/css" height="884px" preserveAspectRatio="none" style="width:897px;height:884px;" version="1.1" viewBox="0 0 897 884" width="897px" zoomAndPan="magnify"><defs><filter height="300%" id="fxl4hem" width="300%" x="-1" y="-1"><feGaussianBlur result="blurOut" stdDeviation="2.0"/><feColorMatrix in="blurOut" result="blurOut2" type="matrix" values="0 0 0 0 0 0 0 0 0 0 0 0 0 0 0 0 0 0 .4 0"/><feOffset dx="4.0" dy="4.0" in="blurOut2" result="blurOut3"/><feBlend in="SourceGraphic" in2="blurOut3" mode="normal"/></filter></defs><g><text fill="#000000" font-family="sans-serif" font-size="18" lengthAdjust="spacingAndGlyphs" textLength="108" x="399" y="17.4023">ユーザー管理</text><!--class Admin\UsersController--><polygon fill="#FEFECE" filter="url(#fxl4hem)" points="379.5,29.1992,379.5,29.361,389.4474,28.8869,399.3947,29.2623,409.3421,29.1165,419.2895,29.1914,429.2368,29.7708,439.1842,28.938,449.1316,29.7465,459.0789,29.4266,469.0263,29.6018,478.9737,29.7364,488.9211,29.0717,498.8684,28.5423,508.8158,29.762,518.7632,29.2271,528.7105,29.1169,538.6579,28.9333,548.6053,28.7261,558.5526,28.5609,568.5,29.1992,568.6703,29.1992,568.8454,39.1806,568.3996,49.162,568.9073,59.1434,568.7176,69.1248,568.9467,79.1062,569.0808,89.0875,568.1864,99.0689,567.8941,109.0503,568.9363,119.0317,568.7399,129.0131,568.6843,138.9945,568.7645,148.9759,568.1791,158.9573,569.094,168.9386,568.0217,178.92,568.9353,188.9014,568.5,198.8828,568.5,199.0911,558.5526,198.5041,548.6053,199.217,538.6579,199.3073,528.7105,199.0276,518.7632,198.6928,508.8158,199.4056,498.8684,199.5234,488.9211,198.301,478.9737,199.2197,469.0263,198.1881,459.0789,198.8004,449.1316,199.1875,439.1842,199.0786,429.2368,198.6028,419.2895,199.4108,409.3421,198.8147,399.3947,199.1274,389.4474,199.2908,379.5,198.8828,379.6495,198.8828,380.2415,188.9014,379.4215,178.92,379.1274,168.9386,379.3925,158.9573,379.4391,148.9759,379.4894,138.9945,379.5327,129.0131,380.2039,119.0317,379.7072,109.0503,379.1004,99.0689,379.2876,89.0875,378.751,79.1062,378.9038,69.1248,379.2411,59.1434,380.0658,49.162,379.2564,39.1806,379.5,29.1992" style="stroke: #A80036; stroke-width: 1.5;"/><text fill="#000000" font-family="sans-serif" font-size="12" lengthAdjust="spacingAndGlyphs" textLength="131" x="408.5" y="45.8008">Admin\UsersController</text><path d="M380.5,53.332 L380.5,52.8281 L390.3421,52.9412 L400.1842,53.2423 L410.0263,53.5928 L419.8684,53.7808 L429.7105,54.2352 L439.5526,53.329 L449.3947,53.0567 L459.2368,53.8975 L469.0789,52.9486 L478.9211,52.7569 L488.7632,52.4728 L498.6053,53.4681 L508.4474,54.084 L518.2895,53.1214 L528.1316,52.8612 L537.9737,53.0579 L547.8158,53.4727 L557.6579,52.5523 L567.5,53.332 " fill="#FEFECE" style="stroke: #A80036; stroke-width: 1.5;"/><text fill="#000000" font-family="sans-serif" font-size="11" lengthAdjust="spacingAndGlyphs" textLength="151" x="385.5" y="67.9668">+AuthenticationComponent</text><text fill="#000000" font-family="sans-serif" font-size="11" lengthAdjust="spacingAndGlyphs" textLength="130" x="385.5" y="80.9219">+BcMessageComponent</text><path d="M380.5,87.2422 L380.5,87.6269 L390.3421,86.7091 L400.1842,86.4583 L410.0263,88.0553 L419.8684,87.2129 L429.7105,87.1213 L439.5526,88.0244 L449.3947,86.2523 L459.2368,86.906 L469.0789,86.9531 L478.9211,86.3297 L488.7632,87.5206 L498.6053,86.539 L508.4474,87.2346 L518.2895,86.3829 L528.1316,87.0968 L537.9737,87.7756 L547.8158,87.3707 L557.6579,87.5053 L567.5,87.2422 " fill="#FEFECE" style="stroke: #A80036; stroke-width: 1.5;"/><text fill="#000000" font-family="sans-serif" font-size="11" lengthAdjust="spacingAndGlyphs" textLength="99" x="385.5" y="101.877">+ログイン：login()</text><text fill="#000000" font-family="sans-serif" font-size="11" lengthAdjust="spacingAndGlyphs" textLength="157" x="385.5" y="114.832">+代理ログイン：login_agent()</text><text fill="#000000" font-family="sans-serif" font-size="11" lengthAdjust="spacingAndGlyphs" textLength="177" x="385.5" y="127.7871">+代理ログイン解除：back_agent()</text><text fill="#000000" font-family="sans-serif" font-size="11" lengthAdjust="spacingAndGlyphs" textLength="118" x="385.5" y="140.7422">+ログアウト：logout()</text><text fill="#000000" font-family="sans-serif" font-size="11" lengthAdjust="spacingAndGlyphs" textLength="157" x="385.5" y="153.6973">+ユーザー一覧を表示：index()</text><text fill="#000000" font-family="sans-serif" font-size="11" lengthAdjust="spacingAndGlyphs" textLength="136" x="385.5" y="166.6523">+ユーザー新規追加：add()</text><text fill="#000000" font-family="sans-serif" font-size="11" lengthAdjust="spacingAndGlyphs" textLength="114" x="385.5" y="179.6074">+ユーザー編集：edit()</text><text fill="#000000" font-family="sans-serif" font-size="11" lengthAdjust="spacingAndGlyphs" textLength="126" x="385.5" y="192.5625">+ユーザー削除：delete()</text><!--class BcAdminUserHelper--><polygon fill="#FEFECE" filter="url(#fxl4hem)" points="566,343.1992,566,342.9599,576.0625,343.8288,586.125,342.7795,596.1875,342.7281,606.25,343.1651,616.3125,342.8874,626.375,343.2553,636.4375,343.5157,646.5,343.1559,656.5625,343.3536,666.625,343.6868,676.6875,343.0573,686.75,343.8637,696.8125,343.3634,706.875,343.5015,716.9375,342.7168,727,343.8938,737.0625,343.2911,747.125,343.887,757.1875,343.7342,767.25,342.4654,777.3125,343.9354,787.375,343.7883,797.4375,343.0226,807.5,343.0662,817.5625,343.6566,827.625,343.0186,837.6875,343.7029,847.75,343.481,857.8125,343.1048,867.875,342.4996,877.9375,343.7994,888,343.1992,888.2948,343.1992,887.7525,353.4162,887.7573,363.6332,887.818,373.8503,888.4658,384.0673,887.6882,394.2843,888.2037,404.5013,888.1493,414.7183,888.4248,424.9353,888,435.1523,888,434.5257,877.9375,434.9136,867.875,435.8642,857.8125,434.7883,847.75,435.1961,837.6875,435.4341,827.625,435.3562,817.5625,434.6882,807.5,435.2,797.4375,435.5062,787.375,435.8251,777.3125,435.5105,767.25,435.4127,757.1875,434.7535,747.125,435.5851,737.0625,434.9751,727,435.7119,716.9375,434.8569,706.875,435.5864,696.8125,434.8298,686.75,434.5183,676.6875,435.4626,666.625,434.8346,656.5625,434.5042,646.5,434.7999,636.4375,435.5701,626.375,435.0811,616.3125,434.8553,606.25,434.4172,596.1875,435.6277,586.125,434.4598,576.0625,434.6593,566,435.1523,566.0842,435.1523,565.2525,424.9353,565.8685,414.7183,566.4769,404.5013,566.42,394.2843,566.0957,384.0673,566.5725,373.8503,566.6711,363.6332,566.0741,353.4162,566,343.1992" style="stroke: #A80036; stroke-width: 1.5;"/><text fill="#000000" font-family="sans-serif" font-size="12" lengthAdjust="spacingAndGlyphs" textLength="115" x="669.5" y="359.8008">BcAdminUserHelper</text><path d="M567,367.332 L567,366.5632 L577,368.3196 L587,366.9123 L597,368.0396 L607,367.6778 L617,366.963 L627,367.3482 L637,367.6363 L647,366.3426 L657,366.8504 L667,366.5211 L677,367.6992 L687,367.3679 L697,367.9456 L707,367.8204 L717,367.3322 L727,368.1461 L737,367.288 L747,367.4678 L757,367.7571 L767,367.0089 L777,367.5541 L787,367.1181 L797,368.1245 L807,368.0783 L817,368.2457 L827,366.7813 L837,367.8714 L847,366.9516 L857,367.8233 L867,367.8264 L877,366.6388 L887,367.332 " fill="#FEFECE" style="stroke: #A80036; stroke-width: 1.5;"/><path d="M567,375.332 L567,375.3815 L577,375.8468 L587,375.3695 L597,375.9732 L607,375.882 L617,375.3743 L627,374.8319 L637,375.6951 L647,374.886 L657,375.4901 L667,374.8762 L677,375.9081 L687,375.7249 L697,375.8967 L707,376.2807 L717,375.1487 L727,376.2715 L737,375.9998 L747,375.6136 L757,376.1484 L767,374.6054 L777,375.8551 L787,375.7952 L797,375.08 L807,375.5078 L817,375.7149 L827,374.8108 L837,376.0042 L847,374.9847 L857,374.7253 L867,374.9411 L877,375.5107 L887,375.332 " fill="#FEFECE" style="stroke: #A80036; stroke-width: 1.5;"/><text fill="#000000" font-family="sans-serif" font-size="11" lengthAdjust="spacingAndGlyphs" textLength="303" x="572" y="389.9668">+ログインユーザー自身の更新かどうか確認：isSelfUpdate()</text><text fill="#000000" font-family="sans-serif" font-size="11" lengthAdjust="spacingAndGlyphs" textLength="211" x="572" y="402.9219">+更新ができるかどうか確認：isEditable()</text><text fill="#000000" font-family="sans-serif" font-size="11" lengthAdjust="spacingAndGlyphs" textLength="218" x="572" y="415.877">+削除ができるかどうか確認：isDeletable()</text><text fill="#000000" font-family="sans-serif" font-size="11" lengthAdjust="spacingAndGlyphs" textLength="310" x="572" y="428.832">+ユーザーグループ選択用のリスト取得：getUserGroupList()</text><!--class UserService--><polygon fill="#FEFECE" filter="url(#fxl4hem)" points="417,356.1992,417,356.2053,427.3636,356.3798,437.7273,356.6426,448.0909,356.149,458.4545,356.391,468.8182,355.6227,479.1818,355.5291,489.5455,356.9459,499.9091,356.0915,510.2727,356.5061,520.6364,356.1319,531,356.1992,530.5264,356.1992,530.9313,365.6339,530.9118,375.0686,531.5814,384.5033,530.4451,393.9381,531.7458,403.3728,531.3913,412.8075,531,422.2422,531,422.4056,520.6364,421.5051,510.2727,422.9175,499.9091,421.9661,489.5455,422.0228,479.1818,422.681,468.8182,422.5242,458.4545,421.5459,448.0909,422.7871,437.7273,422.7635,427.3636,422.9859,417,422.2422,417.4537,422.2422,416.7464,412.8075,417.5675,403.3728,416.982,393.9381,416.2634,384.5033,417.0358,375.0686,417.4891,365.6339,417,356.1992" style="stroke: #A80036; stroke-width: 1.5;"/><text fill="#000000" font-family="sans-serif" font-size="12" lengthAdjust="spacingAndGlyphs" textLength="66" x="441" y="372.8008">UserService</text><path d="M418,380.332 L418,381.0117 L428.1818,380.0503 L438.3636,380.4984 L448.5455,379.6143 L458.7273,380.345 L468.9091,380.4914 L479.0909,380.7624 L489.2727,380.1381 L499.4545,380.1764 L509.6364,379.822 L519.8182,379.6603 L530,380.332 " fill="#FEFECE" style="stroke: #A80036; stroke-width: 1.5;"/><text fill="#000000" font-family="sans-serif" font-size="11" lengthAdjust="spacingAndGlyphs" textLength="69" x="423" y="394.9668">+UsersTable</text><text fill="#000000" font-family="sans-serif" font-size="11" lengthAdjust="spacingAndGlyphs" textLength="102" x="423" y="407.9219">+LoginStoresTable</text><path d="M418,414.2422 L418,414.2863 L428.1818,414.1631 L438.3636,414.5727 L448.5455,413.2548 L458.7273,414.7274 L468.9091,413.6304 L479.0909,414.7524 L489.2727,414.0798 L499.4545,413.9794 L509.6364,414.6787 L519.8182,415.2163 L530,414.2422 " fill="#FEFECE" style="stroke: #A80036; stroke-width: 1.5;"/><!--class UserServiceInterface--><polygon fill="#FEFECE" filter="url(#fxl4hem)" points="6,259.1992,6,258.6949,15.8947,259.2796,25.7895,259.9404,35.6842,259.8587,45.5789,258.5701,55.4737,259.4038,65.3684,258.9521,75.2632,259.3088,85.1579,259.0539,95.0526,258.9939,104.9474,258.8823,114.8421,258.7626,124.7368,259.5107,134.6316,259.8181,144.5263,258.8459,154.4211,258.8282,164.3158,258.8392,174.2105,259.8559,184.1053,259.7039,194,259.9122,203.8947,259.1337,213.7895,259.727,223.6842,259.4629,233.5789,258.7083,243.4737,259.8771,253.3684,258.9277,263.2632,259.325,273.1579,258.8048,283.0526,259.8542,292.9474,258.9955,302.8421,258.552,312.7368,258.6159,322.6316,259.727,332.5263,259.4776,342.4211,258.977,352.3158,259.5798,362.2105,259.4191,372.1053,259.4149,382,259.1992,382.1633,259.1992,381.4225,269.2134,381.9163,279.2276,381.2645,289.2418,382.1816,299.256,381.5753,309.2702,381.5958,319.2844,382.5709,329.2986,382.5662,339.3128,382.3633,349.327,382.5784,359.3412,381.5805,369.3554,381.9625,379.3696,382.1031,389.3838,382.089,399.398,381.6135,409.4122,382.6907,419.4264,382.6482,429.4406,381.3096,439.4548,381.7597,449.469,382.014,459.4832,381.8045,469.4974,381.8144,479.5116,381.9526,489.5258,382.1002,499.54,381.6757,509.5542,382,519.5684,382,519.7322,372.1053,520.0289,362.2105,519.2175,352.3158,520.1213,342.4211,518.8282,332.5263,519.0649,322.6316,519.7279,312.7368,519.221,302.8421,519.9194,292.9474,520.2486,283.0526,519.5703,273.1579,519.0844,263.2632,519.3816,253.3684,519.7754,243.4737,519.4359,233.5789,519.7994,223.6842,519.0862,213.7895,519.3378,203.8947,519.335,194,519.8713,184.1053,519.3167,174.2105,520.1169,164.3158,519.6247,154.4211,519.0717,144.5263,520.2854,134.6316,519.5132,124.7368,519.057,114.8421,519.9178,104.9474,518.8544,95.0526,520.2125,85.1579,520.0511,75.2632,519.0913,65.3684,519.0665,55.4737,520.1902,45.5789,519.8112,35.6842,520.0893,25.7895,520.0462,15.8947,518.8407,6,519.5684,5.4606,519.5684,6.6401,509.5542,6.6748,499.54,5.5146,489.5258,6.1656,479.5116,6.0363,469.4974,5.2783,459.4832,6.4633,449.469,5.3125,439.4548,6.07,429.4406,5.9522,419.4264,6.076,409.4122,5.4242,399.398,5.4398,389.3838,5.803,379.3696,6.582,369.3554,5.5376,359.3412,6.7336,349.327,6.7189,339.3128,6.475,329.2986,5.8409,319.2844,5.4771,309.2702,5.3885,299.256,5.9047,289.2418,5.7237,279.2276,6.0375,269.2134,6,259.1992" style="stroke: #A80036; stroke-width: 1.5;"/><text fill="#000000" font-family="sans-serif" font-size="12" lengthAdjust="spacingAndGlyphs" textLength="116" x="136" y="275.8008">UserServiceInterface</text><path d="M7,283.332 L7,282.5816 L17.1081,283.9083 L27.2162,283.3394 L37.3243,283.1346 L47.4324,284.2664 L57.5405,283.1007 L67.6486,282.4695 L77.7568,283.1759 L87.8649,283.5805 L97.973,283.8166 L108.0811,283.1224 L118.1892,283.2886 L128.2973,283.6791 L138.4054,283.9424 L148.5135,282.3684 L158.6216,282.4279 L168.7297,283.3885 L178.8378,283.1994 L188.9459,282.958 L199.0541,283.8398 L209.1622,283.168 L219.2703,282.659 L229.3784,283.6799 L239.4865,283.1979 L249.5946,284.1315 L259.7027,282.652 L269.8108,283.0749 L279.9189,283.7656 L290.027,283.4872 L300.1351,283.8342 L310.2432,282.8269 L320.3514,282.4635 L330.4595,283.42 L340.5676,282.516 L350.6757,284.0459 L360.7838,283.0336 L370.8919,284.0506 L381,283.332 " fill="#FEFECE" style="stroke: #A80036; stroke-width: 1.5;"/><path d="M7,291.332 L7,291.1387 L17.1081,291.4812 L27.2162,291.2389 L37.3243,290.6509 L47.4324,292.0025 L57.5405,291.4666 L67.6486,292.2225 L77.7568,290.7757 L87.8649,290.9999 L97.973,291.1039 L108.0811,291.7743 L118.1892,290.3918 L128.2973,292.2043 L138.4054,290.8237 L148.5135,291.3129 L158.6216,291.4441 L168.7297,291.69 L178.8378,292.0464 L188.9459,290.8892 L199.0541,290.5901 L209.1622,291.929 L219.2703,292.1712 L229.3784,291.4526 L239.4865,292.0704 L249.5946,290.5114 L259.7027,290.5809 L269.8108,290.9956 L279.9189,290.8496 L290.027,290.7816 L300.1351,291.7312 L310.2432,291.001 L320.3514,291.2717 L330.4595,291.2587 L340.5676,290.7258 L350.6757,291.8651 L360.7838,291.5168 L370.8919,291.4271 L381,291.332 " fill="#FEFECE" style="stroke: #A80036; stroke-width: 1.5;"/><text fill="#000000" font-family="sans-serif" font-size="11" lengthAdjust="spacingAndGlyphs" textLength="144" x="12" y="305.9668">+初期データ取得：getNew()</text><text fill="#000000" font-family="sans-serif" font-size="11" lengthAdjust="spacingAndGlyphs" textLength="83" x="12" y="318.9219">+作成：create()</text><text fill="#000000" font-family="sans-serif" font-size="11" lengthAdjust="spacingAndGlyphs" textLength="87" x="12" y="331.877">+編集：update()</text><text fill="#000000" font-family="sans-serif" font-size="11" lengthAdjust="spacingAndGlyphs" textLength="82" x="12" y="344.832">+削除：delete()</text><text fill="#000000" font-family="sans-serif" font-size="11" lengthAdjust="spacingAndGlyphs" textLength="122" x="12" y="357.7871">+単一データ取得：get()</text><text fill="#000000" font-family="sans-serif" font-size="11" lengthAdjust="spacingAndGlyphs" textLength="152" x="12" y="370.7422">+一覧データ取得：getIndex()</text><text fill="#000000" font-family="sans-serif" font-size="11" lengthAdjust="spacingAndGlyphs" textLength="119" x="12" y="383.6973">+リスト取得：getList()</text><text fill="#000000" font-family="sans-serif" font-size="11" lengthAdjust="spacingAndGlyphs" textLength="99" x="12" y="396.6523">+ログイン：login()</text><text fill="#000000" font-family="sans-serif" font-size="11" lengthAdjust="spacingAndGlyphs" textLength="118" x="12" y="409.6074">+ログアウト：logout()</text><text fill="#000000" font-family="sans-serif" font-size="11" lengthAdjust="spacingAndGlyphs" textLength="124" x="12" y="422.5625">+再ログイン：reLogin()</text><text fill="#000000" font-family="sans-serif" font-size="11" lengthAdjust="spacingAndGlyphs" textLength="200" x="12" y="435.5176">+代理ログインを行う：loginToAgent()</text><text fill="#000000" font-family="sans-serif" font-size="11" lengthAdjust="spacingAndGlyphs" textLength="364" x="12" y="448.4727">+代理ログインから元のユーザーに戻る：returnLoginUserFromAgent()</text><text fill="#000000" font-family="sans-serif" font-size="11" lengthAdjust="spacingAndGlyphs" textLength="285" x="12" y="461.4277">+認証用のセッションキーを取得：getAuthSessionKey()</text><text fill="#000000" font-family="sans-serif" font-size="11" lengthAdjust="spacingAndGlyphs" textLength="266" x="12" y="474.3828">+ログインキーをセット：setCookieAutoLoginKey()</text><text fill="#000000" font-family="sans-serif" font-size="11" lengthAdjust="spacingAndGlyphs" textLength="238" x="12" y="487.3379">+ログインキーを削除する：removeLoginKey()</text><text fill="#000000" font-family="sans-serif" font-size="11" lengthAdjust="spacingAndGlyphs" textLength="236" x="12" y="500.293">+ログイン状態の保存確認：checkAutoLogin()</text><text fill="#000000" font-family="sans-serif" font-size="11" lengthAdjust="spacingAndGlyphs" textLength="205" x="12" y="513.248">+ログイン情報をリロードする：reload()</text><!--class UsersTable--><polygon fill="#FEFECE" filter="url(#fxl4hem)" points="274,579.1992,274,578.9776,284,578.693,294,579.0483,304,579.4296,314,579.1261,324,579.4708,334,579.5638,344,578.5466,354,579.4994,364,579.6827,374,578.6082,384,579.5714,394,579.4114,404,579.3429,414,578.794,424,578.8183,434,579.4408,444,579.012,454,578.6102,464,578.8314,474,578.6089,484,578.6246,494,579.8915,504,579.8303,514,579.1746,524,578.8538,534,578.6563,544,578.8785,554,579.3651,564,579.3212,574,578.6128,584,579.0762,594,579.1816,604,578.595,614,578.4918,624,579.3213,634,578.4497,644,579.8898,654,579.1827,664,579.0026,674,579.1992,673.8085,579.1992,673.4758,588.6339,673.7142,598.0686,674.6833,607.5033,674.164,616.9381,673.3244,626.3728,673.7415,635.8075,674,645.2422,674,645.4496,664,645.8228,654,645.526,644,644.9299,634,645.2681,624,644.6387,614,645.5749,604,644.534,594,645.3917,584,645.162,574,645.3358,564,644.6617,554,645.6071,544,644.7277,534,645.6493,524,644.9559,514,645.5716,504,645.9556,494,645.3822,484,644.4934,474,644.8668,464,644.8915,454,645.4312,444,645.7557,434,644.7385,424,644.5767,414,645.8059,404,645.6129,394,645.7696,384,645.1385,374,645.9235,364,644.8674,354,645.8351,344,644.7643,334,645.8225,324,644.7026,314,644.8643,304,645.3771,294,645.9109,284,644.6339,274,645.2422,273.952,645.2422,274.2594,635.8075,273.3503,626.3728,274.5247,616.9381,273.8872,607.5033,273.436,598.0686,274.4385,588.6339,274,579.1992" style="stroke: #A80036; stroke-width: 1.5;"/><text fill="#000000" font-family="sans-serif" font-size="12" lengthAdjust="spacingAndGlyphs" textLength="65" x="441.5" y="595.8008">UsersTable</text><path d="M275,603.332 L275,602.7738 L284.95,603.328 L294.9,603.4824 L304.85,602.8705 L314.8,602.3559 L324.75,603.5588 L334.7,603.6269 L344.65,603.6216 L354.6,603.4985 L364.55,603.3522 L374.5,603.4925 L384.45,602.7991 L394.4,603.3517 L404.35,603.1251 L414.3,602.3703 L424.25,602.4849 L434.2,603.1664 L444.15,603.6022 L454.1,603.9213 L464.05,604.2968 L474,603.7251 L483.95,602.9315 L493.9,602.8422 L503.85,603.9875 L513.8,603.1032 L523.75,603.0701 L533.7,604.1441 L543.65,603.9236 L553.6,602.4425 L563.55,604.2507 L573.5,603.8843 L583.45,603.0535 L593.4,602.4632 L603.35,603.051 L613.3,602.4482 L623.25,602.6625 L633.2,602.4197 L643.15,603.744 L653.1,602.6821 L663.05,603.3327 L673,603.332 " fill="#FEFECE" style="stroke: #A80036; stroke-width: 1.5;"/><path d="M275,611.332 L275,612.1312 L284.95,612.2005 L294.9,611.3177 L304.85,612.0897 L314.8,610.5708 L324.75,610.641 L334.7,611.2029 L344.65,610.7115 L354.6,611.2924 L364.55,612.0056 L374.5,611.868 L384.45,610.615 L394.4,611.7105 L404.35,610.6097 L414.3,610.9079 L424.25,610.6066 L434.2,611.9133 L444.15,611.0996 L454.1,610.5502 L464.05,611.093 L474,611.2998 L483.95,610.4982 L493.9,610.6025 L503.85,612.0974 L513.8,611.8765 L523.75,610.3499 L533.7,610.7404 L543.65,610.6138 L553.6,611.5293 L563.55,611.6264 L573.5,611.7937 L583.45,611.4497 L593.4,611.0102 L603.35,612.1489 L613.3,611.3317 L623.25,610.775 L633.2,610.731 L643.15,610.8088 L653.1,611.4212 L663.05,611.0871 L673,611.332 " fill="#FEFECE" style="stroke: #A80036; stroke-width: 1.5;"/><text fill="#000000" font-family="sans-serif" font-size="11" lengthAdjust="spacingAndGlyphs" textLength="251" x="280" y="625.9668">+利用可能なユーザーを取得する：findAvailable()</text><text fill="#000000" font-family="sans-serif" font-size="11" lengthAdjust="spacingAndGlyphs" textLength="388" x="280" y="638.9219">+ユーザーが許可されている認証プレフィックスを取得する：getAuthPrefix()</text><!--class User--><polygon fill="#FEFECE" filter="url(#fxl4hem)" points="328.5,705.1992,328.5,705.517,338.5345,704.829,348.569,705.6601,358.6034,705.8808,368.6379,705.4091,378.6724,705.5402,388.7069,705.1981,398.7414,705.3735,408.7759,705.4859,418.8103,704.7214,428.8448,705.6149,438.8793,704.8698,448.9138,705.175,458.9483,705.1379,468.9828,705.2149,479.0172,705.3981,489.0517,704.8125,499.0862,705.2563,509.1207,705.2762,519.1552,704.4832,529.1897,705.4722,539.2241,705.0482,549.2586,704.4717,559.2931,704.7272,569.3276,705.2162,579.3621,704.5609,589.3966,705.4253,599.431,705.2155,609.4655,705.7943,619.5,705.1992,618.7559,705.1992,619.3803,715.1806,618.881,725.162,618.9688,735.1434,619.6115,745.1248,620.1106,755.1062,619.4372,765.0875,619.8324,775.0689,618.9817,785.0503,618.9871,795.0317,620.2042,805.0131,619.5568,814.9945,618.9299,824.9759,620.2473,834.9573,619.8651,844.9386,619.1891,854.92,619.1202,864.9014,619.5,874.8828,619.5,875.3006,609.4655,875.1555,599.431,874.6786,589.3966,874.8279,579.3621,875.4744,569.3276,874.8845,559.2931,874.9376,549.2586,874.544,539.2241,874.5286,529.1897,875.0479,519.1552,874.943,509.1207,874.4615,499.0862,874.5456,489.0517,875.1389,479.0172,874.2096,468.9828,874.8737,458.9483,874.8824,448.9138,875.5341,438.8793,874.8326,428.8448,874.6434,418.8103,875.2201,408.7759,875.4961,398.7414,874.6836,388.7069,874.1612,378.6724,875.0102,368.6379,875.0426,358.6034,874.4002,348.569,874.2776,338.5345,874.5306,328.5,874.8828,328.5237,874.8828,327.8753,864.9014,328.3817,854.92,328.3714,844.9386,328.6161,834.9573,328.916,824.9759,328.5217,814.9945,328.5514,805.0131,328.918,795.0317,327.9375,785.0503,328.0349,775.0689,328.8266,765.0875,328.5667,755.1062,328.1483,745.1248,327.7504,735.1434,328.7543,725.162,329.0769,715.1806,328.5,705.1992" style="stroke: #A80036; stroke-width: 1.5;"/><text fill="#000000" font-family="sans-serif" font-size="12" lengthAdjust="spacingAndGlyphs" textLength="26" x="461" y="721.8008">User</text><path d="M329.5,729.332 L329.5,728.5675 L339.4655,729.5978 L349.431,729.3126 L359.3966,728.8406 L369.3621,729.6289 L379.3276,729.5414 L389.2931,729.7414 L399.2586,728.941 L409.2241,729.5879 L419.1897,729.4526 L429.1552,729.3207 L439.1207,728.5971 L449.0862,730.198 L459.0517,728.6291 L469.0172,728.4062 L478.9828,728.9356 L488.9483,729.8532 L498.9138,730.0162 L508.8793,728.873 L518.8448,729.8739 L528.8103,729.1101 L538.7759,728.6758 L548.7414,728.8855 L558.7069,730.2658 L568.6724,729.06 L578.6379,729.6884 L588.6034,730.0091 L598.569,729.4274 L608.5345,728.7241 L618.5,729.332 " fill="#FEFECE" style="stroke: #A80036; stroke-width: 1.5;"/><text fill="#000000" font-family="sans-serif" font-size="11" lengthAdjust="spacingAndGlyphs" textLength="115" x="334.5" y="743.9668">+アカウント名：name</text><text fill="#000000" font-family="sans-serif" font-size="11" lengthAdjust="spacingAndGlyphs" textLength="127" x="334.5" y="756.9219">+パスワード：password</text><text fill="#000000" font-family="sans-serif" font-size="11" lengthAdjust="spacingAndGlyphs" textLength="99" x="334.5" y="769.877">+性：real_name_1</text><text fill="#000000" font-family="sans-serif" font-size="11" lengthAdjust="spacingAndGlyphs" textLength="99" x="334.5" y="782.832">+名：real_name_2</text><text fill="#000000" font-family="sans-serif" font-size="11" lengthAdjust="spacingAndGlyphs" textLength="125" x="334.5" y="795.7871">+メールアドレス：email</text><text fill="#000000" font-family="sans-serif" font-size="11" lengthAdjust="spacingAndGlyphs" textLength="137" x="334.5" y="808.7422">+ニックネーム：nickname</text><text fill="#000000" font-family="sans-serif" font-size="11" lengthAdjust="spacingAndGlyphs" textLength="93" x="334.5" y="821.6973">+登録日：created</text><text fill="#000000" font-family="sans-serif" font-size="11" lengthAdjust="spacingAndGlyphs" textLength="100" x="334.5" y="834.6523">+編集日：modified</text><path d="M329.5,840.9727 L329.5,840.8172 L339.4655,841.0395 L349.431,841.8333 L359.3966,841.646 L369.3621,840.3147 L379.3276,840.0191 L389.2931,840.7908 L399.2586,840.6646 L409.2241,840.6667 L419.1897,841.8755 L429.1552,841.2868 L439.1207,840.5358 L449.0862,841.0546 L459.0517,840.1478 L469.0172,841.1516 L478.9828,840.8203 L488.9483,841.5802 L498.9138,840.0739 L508.8793,841.921 L518.8448,840.9833 L528.8103,840.1201 L538.7759,840.19 L548.7414,841.5666 L558.7069,841.2454 L568.6724,841.8831 L578.6379,840.3364 L588.6034,840.4405 L598.569,840.1871 L608.5345,841.2533 L618.5,840.9727 " fill="#FEFECE" style="stroke: #A80036; stroke-width: 1.5;"/><text fill="#000000" font-family="sans-serif" font-size="11" lengthAdjust="spacingAndGlyphs" textLength="226" x="334.5" y="855.6074">+管理ユーザーかどうか判定する：isAdmin()</text><text fill="#000000" font-family="sans-serif" font-size="11" lengthAdjust="spacingAndGlyphs" textLength="279" x="334.5" y="868.5625">+整形されたユーザー名を取得する：getDisplayName()</text><path d="M474,199.3392 L473.5555,199.3392 L473.2849,209.4399 L473.4213,219.5406 L473.1231,229.6412 L473.3122,239.7419 L473.5305,249.8426 L474.3092,259.9432 L473.7577,270.0439 L473.1199,280.1446 L474.6773,290.2452 L473.0662,300.3459 L474.2729,310.4466 L474.7098,320.5472 L473.0305,330.6479 L474.3819,340.7486 L474,350.8492 " fill="none" style="stroke: #000000; stroke-width: 1.0;"/><polygon fill="#000000" points="474,355.9392,474.1728,356.016,474.9808,354.2196,475.576,352.3286,476.2402,350.4682,477.0543,348.6745,478,346.9392,477.9582,346.8974,477.2119,347.7511,476.2488,348.388,475.7605,349.4997,474.934,350.2732,474,350.9392,473.8947,350.8339,473.2008,350.14,472.3864,349.3256,471.4454,348.3846,470.8714,347.8107,470,346.9392,470.1731,347.0161,470.9621,348.8113,471.643,350.5583,472.4829,352.3761,472.9767,354.04,474,355.9392" style="stroke: #000000; stroke-width: 1.0;"/><path d="M536.43,389.1992 L536.43,388.894 L542.288,389.1013 L548.146,389.44 L554.004,389.4629 L559.862,389.1934 L565.72,389.1992 " fill="none" style="stroke: #000000; stroke-width: 1.0;"/><polygon fill="#000000" points="531.32,389.1992,531.228,388.9922,533.1942,390.1662,534.9998,390.9788,536.7291,391.6196,538.5126,392.3826,540.32,393.1992,540.2269,393.1062,539.489,392.3682,538.5524,391.4316,537.8748,390.754,537.0655,389.9447,536.32,389.1992,536.432,389.3112,537.2406,388.5199,537.8343,387.5135,538.8328,386.912,539.6386,386.1178,540.32,385.1992,540.404,385.3882,538.5709,386.1136,536.6638,386.6727,534.8753,387.4987,533.0494,388.2405,531.32,389.1992" style="stroke: #000000; stroke-width: 1.0;"/><path d="M474,422.3392 L474.4684,422.3392 L473.1902,432.4486 L473.7134,442.5579 L473.4673,452.6672 L474.4424,462.7766 L474.9274,472.8859 L473.6486,482.9952 L474.5228,493.1046 L473.3061,503.2139 L474.5781,513.3232 L474.363,523.4326 L474.8046,533.5419 L474.6423,543.6512 L473.4966,553.7606 L473.9156,563.8699 L474,573.9792 " fill="none" style="stroke: #000000; stroke-width: 1.0;"/><polygon fill="#000000" points="474,579.0292,474.1411,579.0919,474.8499,577.2514,475.605,575.4315,476.4247,573.6402,477.02,571.7492,478,570.0292,477.9064,569.9356,477.23,570.8592,476.3682,571.5974,475.5601,572.3893,474.8413,573.2705,474,574.0292,474.1653,574.1945,473.2292,573.2584,472.2394,572.2686,471.7385,571.7677,470.6997,570.729,470,570.0292,469.8117,569.9455,470.9801,571.9093,471.3774,573.5303,472.2337,575.3553,473.2486,577.2508,474,579.0292" style="stroke: #000000; stroke-width: 1.0;"/><path d="M402.25,389.1992 L402.25,389.419 L405.188,388.9897 L408.126,389.2662 L411.064,389.435 L414.002,389.1095 L416.94,389.1992 " fill="none" style="stroke: #000000; stroke-width: 1.0; stroke-dasharray: 1.0,3.0;"/><polygon fill="none" points="402.13,396.1992,402.086,396.0734,398.137,394.8249,394.1431,393.4482,390.0594,391.8147,386.0832,390.4884,382.12,389.1992,382.1176,389.1924,386.2022,388.0342,390.0778,386.2788,394.1662,385.1312,398.1417,383.6611,402.12,382.1992,402.3122,382.1994,402.2676,384.9993,402.1548,387.7992,402.0589,390.5992,401.8912,393.399,402.13,396.1992" style="stroke: #000000; stroke-width: 1.0;"/><path d="M474,645.4792 L474.6285,645.4792 L473.8455,656.3032 L474.2483,667.1272 L473.1264,677.9512 L474.8497,688.7752 L474,699.5992 " fill="none" style="stroke: #000000; stroke-width: 1.0;"/><polygon fill="#000000" points="474,705.0692,473.7718,704.9678,474.9536,703.3375,475.4325,701.3948,476.2828,699.6171,477.1839,697.8621,478,696.0692,478.0686,696.1378,477.0458,696.715,476.4328,697.702,475.4496,698.3188,474.6697,699.1389,474,700.0692,474.1704,700.2396,473.3679,699.4371,472.2614,698.3306,471.4875,697.5568,470.674,696.7432,470,696.0692,469.957,696.0501,470.8971,697.9124,471.7688,699.7443,472.474,701.5021,473.3874,703.3525,474,705.0692" style="stroke: #000000; stroke-width: 1.0;"/></g></svg>