<?xml version="1.0" encoding="UTF-8" standalone="no"?><svg xmlns="http://www.w3.org/2000/svg" xmlns:xlink="http://www.w3.org/1999/xlink" contentScriptType="application/ecmascript" contentStyleType="text/css" height="884px" preserveAspectRatio="none" style="width:897px;height:884px;" version="1.1" viewBox="0 0 897 884" width="897px" zoomAndPan="magnify"><defs><filter height="300%" id="fa6rm14" width="300%" x="-1" y="-1"><feGaussianBlur result="blurOut" stdDeviation="2.0"/><feColorMatrix in="blurOut" result="blurOut2" type="matrix" values="0 0 0 0 0 0 0 0 0 0 0 0 0 0 0 0 0 0 .4 0"/><feOffset dx="4.0" dy="4.0" in="blurOut2" result="blurOut3"/><feBlend in="SourceGraphic" in2="blurOut3" mode="normal"/></filter></defs><g><text fill="#000000" font-family="sans-serif" font-size="18" lengthAdjust="spacingAndGlyphs" textLength="108" x="399" y="17.4023">ユーザー管理</text><!--class Admin\UsersController--><polygon fill="#FEFECE" filter="url(#fa6rm14)" points="379.5,29.1992,379.5,29.7774,389.4474,28.534,399.3947,29.1863,409.3421,28.6927,419.2895,29.7291,429.2368,29.3002,439.1842,28.8081,449.1316,29.3763,459.0789,29.3447,469.0263,29.3425,478.9737,29.4448,488.9211,29.137,498.8684,29.0761,508.8158,29.8262,518.7632,28.8763,528.7105,29.0979,538.6579,28.7033,548.6053,29.9278,558.5526,29.6956,568.5,29.1992,568.5285,29.1992,568.2281,39.1806,569.0571,49.162,568.5875,59.1434,569.2145,69.1248,567.9805,79.1062,568.2199,89.0875,568.3674,99.0689,569.08,109.0503,568.4009,119.0317,569.1856,129.0131,567.9993,138.9945,568.9111,148.9759,569.181,158.9573,568.5369,168.9386,568.8143,178.92,568.843,188.9014,568.5,198.8828,568.5,198.3024,558.5526,198.8506,548.6053,199.0532,538.6579,198.2038,528.7105,199.167,518.7632,199.3548,508.8158,198.295,498.8684,199.1812,488.9211,199.0122,478.9737,199.4736,469.0263,198.876,459.0789,199.5353,449.1316,198.6618,439.1842,199.2193,429.2368,199.5473,419.2895,198.2835,409.3421,199.3217,399.3947,199.3675,389.4474,198.8177,379.5,198.8828,378.9786,198.8828,380.1717,188.9014,379.8328,178.92,379.7606,168.9386,379.5958,158.9573,379.0299,148.9759,379.2552,138.9945,380.1262,129.0131,379.0205,119.0317,378.8141,109.0503,379.9472,99.0689,379.8387,89.0875,379.0593,79.1062,379.9971,69.1248,380.139,59.1434,379.9689,49.162,379.9833,39.1806,379.5,29.1992" style="stroke: #A80036; stroke-width: 1.5;"/><text fill="#000000" font-family="sans-serif" font-size="12" lengthAdjust="spacingAndGlyphs" textLength="131" x="408.5" y="45.8008">Admin\UsersController</text><path d="M380.5,53.332 L380.5,54.1678 L390.3421,53.0336 L400.1842,52.5804 L410.0263,54.3019 L419.8684,54.0058 L429.7105,52.9488 L439.5526,53.0068 L449.3947,53.7736 L459.2368,52.8231 L469.0789,53.1053 L478.9211,53.911 L488.7632,53.756 L498.6053,54.2353 L508.4474,54.2735 L518.2895,53.2294 L528.1316,52.6795 L537.9737,54.3005 L547.8158,53.9682 L557.6579,52.5672 L567.5,53.332 " fill="#FEFECE" style="stroke: #A80036; stroke-width: 1.5;"/><text fill="#000000" font-family="sans-serif" font-size="11" lengthAdjust="spacingAndGlyphs" textLength="151" x="385.5" y="67.9668">+AuthenticationComponent</text><text fill="#000000" font-family="sans-serif" font-size="11" lengthAdjust="spacingAndGlyphs" textLength="130" x="385.5" y="80.9219">+BcMessageComponent</text><path d="M380.5,87.2422 L380.5,88.1279 L390.3421,87.9766 L400.1842,86.4452 L410.0263,87.4745 L419.8684,86.9168 L429.7105,88.0826 L439.5526,87.0059 L449.3947,86.67 L459.2368,87.6528 L469.0789,87.3287 L478.9211,86.8717 L488.7632,86.3824 L498.6053,87.5598 L508.4474,86.3239 L518.2895,87.1562 L528.1316,88.0501 L537.9737,87.8083 L547.8158,87.4673 L557.6579,86.8805 L567.5,87.2422 " fill="#FEFECE" style="stroke: #A80036; stroke-width: 1.5;"/><text fill="#000000" font-family="sans-serif" font-size="11" lengthAdjust="spacingAndGlyphs" textLength="99" x="385.5" y="101.877">+ログイン：login()</text><text fill="#000000" font-family="sans-serif" font-size="11" lengthAdjust="spacingAndGlyphs" textLength="157" x="385.5" y="114.832">+代理ログイン：login_agent()</text><text fill="#000000" font-family="sans-serif" font-size="11" lengthAdjust="spacingAndGlyphs" textLength="177" x="385.5" y="127.7871">+代理ログイン解除：back_agent()</text><text fill="#000000" font-family="sans-serif" font-size="11" lengthAdjust="spacingAndGlyphs" textLength="118" x="385.5" y="140.7422">+ログアウト：logout()</text><text fill="#000000" font-family="sans-serif" font-size="11" lengthAdjust="spacingAndGlyphs" textLength="157" x="385.5" y="153.6973">+ユーザー一覧を表示：index()</text><text fill="#000000" font-family="sans-serif" font-size="11" lengthAdjust="spacingAndGlyphs" textLength="136" x="385.5" y="166.6523">+ユーザー新規追加：add()</text><text fill="#000000" font-family="sans-serif" font-size="11" lengthAdjust="spacingAndGlyphs" textLength="114" x="385.5" y="179.6074">+ユーザー編集：edit()</text><text fill="#000000" font-family="sans-serif" font-size="11" lengthAdjust="spacingAndGlyphs" textLength="126" x="385.5" y="192.5625">+ユーザー削除：delete()</text><!--class BcAdminUserHelper--><polygon fill="#FEFECE" filter="url(#fa6rm14)" points="566,343.1992,566,343.2622,576.0625,342.6405,586.125,343.4588,596.1875,343.6636,606.25,343.0346,616.3125,342.477,626.375,343.4596,636.4375,343.0985,646.5,342.8142,656.5625,343.4742,666.625,342.5545,676.6875,342.5116,686.75,342.7156,696.8125,343.7243,706.875,342.4948,716.9375,343.3459,727,343.3193,737.0625,343.7594,747.125,343.7715,757.1875,342.8554,767.25,343.4049,777.3125,342.5219,787.375,342.73,797.4375,342.8919,807.5,343.7196,817.5625,343.3456,827.625,343.4801,837.6875,342.929,847.75,342.9459,857.8125,343.0001,867.875,342.6855,877.9375,343.2206,888,343.1992,888.5993,343.1992,888.0444,353.4162,888.0496,363.6332,887.9116,373.8503,888.7025,384.0673,888.1081,394.2843,887.8427,404.5013,888.2671,414.7183,888.074,424.9353,888,435.1523,888,435.2393,877.9375,434.6245,867.875,434.9347,857.8125,435.321,847.75,434.4974,837.6875,435.7627,827.625,434.6669,817.5625,434.6686,807.5,434.9014,797.4375,434.8205,787.375,434.5959,777.3125,435.1724,767.25,434.4895,757.1875,435.6838,747.125,435.767,737.0625,435.624,727,435.5419,716.9375,434.8879,706.875,434.6657,696.8125,435.4277,686.75,434.4691,676.6875,435.4589,666.625,435.8979,656.5625,435.423,646.5,434.4511,636.4375,434.7052,626.375,434.9926,616.3125,434.5373,606.25,435.8649,596.1875,435.507,586.125,435.224,576.0625,435.8033,566,435.1523,566.0604,435.1523,565.4576,424.9353,565.6019,414.7183,565.3733,404.5013,565.8691,394.2843,565.9477,384.0673,565.4782,373.8503,565.435,363.6332,566.365,353.4162,566,343.1992" style="stroke: #A80036; stroke-width: 1.5;"/><text fill="#000000" font-family="sans-serif" font-size="12" lengthAdjust="spacingAndGlyphs" textLength="115" x="669.5" y="359.8008">BcAdminUserHelper</text><path d="M567,367.332 L567,367.9345 L577,366.7692 L587,367.1908 L597,367.5219 L607,366.9063 L617,367.3151 L627,367.5079 L637,368.0409 L647,368.2776 L657,366.6847 L667,366.5027 L677,366.5927 L687,367.1526 L697,366.7748 L707,367.9432 L717,368.1664 L727,367.7106 L737,366.8279 L747,367.4396 L757,367.9187 L767,368.0814 L777,366.3882 L787,367.195 L797,367.5723 L807,367.3967 L817,367.1569 L827,367.2827 L837,367.5934 L847,366.7777 L857,367.3598 L867,367.3817 L877,368.2071 L887,367.332 " fill="#FEFECE" style="stroke: #A80036; stroke-width: 1.5;"/><path d="M567,375.332 L567,375.3431 L577,374.4873 L587,375.9437 L597,375.0235 L607,374.5895 L617,374.9537 L627,374.7521 L637,375.2031 L647,375.6925 L657,374.3448 L667,375.7492 L677,375.6812 L687,374.4197 L697,375.4845 L707,375.8672 L717,376.001 L727,375.42 L737,375.5466 L747,374.3938 L757,374.7708 L767,375.6692 L777,375.8776 L787,376.1345 L797,374.6659 L807,375.8019 L817,375.0654 L827,376.3039 L837,376.2384 L847,375.9487 L857,375.1014 L867,375.6873 L877,375.5737 L887,375.332 " fill="#FEFECE" style="stroke: #A80036; stroke-width: 1.5;"/><text fill="#000000" font-family="sans-serif" font-size="11" lengthAdjust="spacingAndGlyphs" textLength="303" x="572" y="389.9668">+ログインユーザー自身の更新かどうか確認：isSelfUpdate()</text><text fill="#000000" font-family="sans-serif" font-size="11" lengthAdjust="spacingAndGlyphs" textLength="211" x="572" y="402.9219">+更新ができるかどうか確認：isEditable()</text><text fill="#000000" font-family="sans-serif" font-size="11" lengthAdjust="spacingAndGlyphs" textLength="218" x="572" y="415.877">+削除ができるかどうか確認：isDeletable()</text><text fill="#000000" font-family="sans-serif" font-size="11" lengthAdjust="spacingAndGlyphs" textLength="310" x="572" y="428.832">+ユーザーグループ選択用のリスト取得：getUserGroupList()</text><!--class UserService--><polygon fill="#FEFECE" filter="url(#fa6rm14)" points="417,356.1992,417,356.3435,427.3636,356.8741,437.7273,356.0665,448.0909,355.9919,458.4545,356.8319,468.8182,356.9085,479.1818,356.0255,489.5455,356.8117,499.9091,356.5491,510.2727,355.8217,520.6364,356.5384,531,356.1992,531.6551,356.1992,530.8818,365.6339,531.3314,375.0686,530.7023,384.5033,531.3741,393.9381,531.0131,403.3728,530.8506,412.8075,531,422.2422,531,422.1735,520.6364,422.2198,510.2727,422.2904,499.9091,422.0556,489.5455,421.6968,479.1818,422.7089,468.8182,421.7284,458.4545,422.3371,448.0909,422.9036,437.7273,422.1968,427.3636,421.9008,417,422.2422,416.5971,422.2422,417.1673,412.8075,416.5369,403.3728,417.6834,393.9381,417.6942,384.5033,417.1926,375.0686,416.7698,365.6339,417,356.1992" style="stroke: #A80036; stroke-width: 1.5;"/><text fill="#000000" font-family="sans-serif" font-size="12" lengthAdjust="spacingAndGlyphs" textLength="66" x="441" y="372.8008">UserService</text><path d="M418,380.332 L418,381.0473 L428.1818,380.4625 L438.3636,380.2477 L448.5455,379.9048 L458.7273,380.5879 L468.9091,380.3304 L479.0909,379.3586 L489.2727,380.5555 L499.4545,380.5177 L509.6364,380.6722 L519.8182,380.9439 L530,380.332 " fill="#FEFECE" style="stroke: #A80036; stroke-width: 1.5;"/><text fill="#000000" font-family="sans-serif" font-size="11" lengthAdjust="spacingAndGlyphs" textLength="69" x="423" y="394.9668">+UsersTable</text><text fill="#000000" font-family="sans-serif" font-size="11" lengthAdjust="spacingAndGlyphs" textLength="102" x="423" y="407.9219">+LoginStoresTable</text><path d="M418,414.2422 L418,414.5128 L428.1818,415.0936 L438.3636,415.1134 L448.5455,413.5587 L458.7273,413.2925 L468.9091,413.3593 L479.0909,414.0273 L489.2727,414.6867 L499.4545,413.3947 L509.6364,413.3627 L519.8182,414.1361 L530,414.2422 " fill="#FEFECE" style="stroke: #A80036; stroke-width: 1.5;"/><!--class UserServiceInterface--><polygon fill="#FEFECE" filter="url(#fa6rm14)" points="6,259.1992,6,259.015,15.8947,258.7859,25.7895,258.6734,35.6842,259.6867,45.5789,259.029,55.4737,258.9122,65.3684,259.0861,75.2632,258.5338,85.1579,259.1483,95.0526,259.4905,104.9474,258.8617,114.8421,259.2827,124.7368,258.6833,134.6316,259.497,144.5263,259.63,154.4211,258.8044,164.3158,259.3495,174.2105,259.6572,184.1053,259.6195,194,259.3917,203.8947,259.2197,213.7895,259.8269,223.6842,259.7868,233.5789,259.5058,243.4737,259.6024,253.3684,259.0344,263.2632,259.041,273.1579,258.621,283.0526,259.4159,292.9474,259.5902,302.8421,258.6678,312.7368,258.7232,322.6316,259.002,332.5263,258.5488,342.4211,258.8531,352.3158,259.8744,362.2105,258.657,372.1053,258.7706,382,259.1992,382.4984,259.1992,382.2432,269.2134,381.7395,279.2276,381.666,289.2418,382.6142,299.256,381.9084,309.2702,381.3472,319.2844,382.2185,329.2986,381.2928,339.3128,381.9038,349.327,382.5607,359.3412,382.39,369.3554,381.3426,379.3696,382.1133,389.3838,381.8691,399.398,382.2583,409.4122,381.4955,419.4264,382.653,429.4406,382.5137,439.4548,382.6138,449.469,381.7963,459.4832,381.3848,469.4974,382.2213,479.5116,381.3538,489.5258,382.6013,499.54,381.4698,509.5542,382,519.5684,382,518.9729,372.1053,519.1935,362.2105,519.296,352.3158,520.1168,342.4211,520.1315,332.5263,520.0179,322.6316,519.9837,312.7368,519.0157,302.8421,519.5954,292.9474,520.2961,283.0526,520.1566,273.1579,519.0206,263.2632,520.1149,253.3684,518.8293,243.4737,519.991,233.5789,520.2199,223.6842,519.6136,213.7895,519.3136,203.8947,520.0335,194,519.7209,184.1053,520.1944,174.2105,519.6606,164.3158,520.0384,154.4211,520.1646,144.5263,519.2031,134.6316,518.974,124.7368,519.3328,114.8421,519.4132,104.9474,519.3335,95.0526,519.5616,85.1579,519.8538,75.2632,519.0693,65.3684,519.8839,55.4737,519.9979,45.5789,519.0464,35.6842,519.5891,25.7895,518.8527,15.8947,519.4584,6,519.5684,5.4834,519.5684,6.6222,509.5542,6.0324,499.54,5.2678,489.5258,5.9983,479.5116,5.453,469.4974,5.7191,459.4832,6.4484,449.469,5.3351,439.4548,6.0743,429.4406,5.6648,419.4264,5.562,409.4122,6.5671,399.398,6.7378,389.3838,5.6831,379.3696,6.0555,369.3554,6.2002,359.3412,6.6816,349.327,5.7721,339.3128,6.5252,329.2986,6.5726,319.2844,6.2474,309.2702,5.3545,299.256,5.9302,289.2418,6.148,279.2276,6.0261,269.2134,6,259.1992" style="stroke: #A80036; stroke-width: 1.5;"/><text fill="#000000" font-family="sans-serif" font-size="12" lengthAdjust="spacingAndGlyphs" textLength="116" x="136" y="275.8008">UserServiceInterface</text><path d="M7,283.332 L7,284.0088 L17.1081,283.4175 L27.2162,284.0417 L37.3243,283.2943 L47.4324,283.7728 L57.5405,283.3242 L67.6486,283.222 L77.7568,283.3111 L87.8649,282.3394 L97.973,284.1205 L108.0811,283.6304 L118.1892,283.1362 L128.2973,284.2902 L138.4054,283.6885 L148.5135,282.6547 L158.6216,284.2206 L168.7297,282.8989 L178.8378,284.1301 L188.9459,283.4029 L199.0541,282.4541 L209.1622,283.9438 L219.2703,282.8914 L229.3784,282.9163 L239.4865,283.0671 L249.5946,283.9409 L259.7027,282.9174 L269.8108,282.4941 L279.9189,284.0317 L290.027,283.3276 L300.1351,283.65 L310.2432,282.3795 L320.3514,283.6403 L330.4595,284.2937 L340.5676,282.5201 L350.6757,283.4385 L360.7838,283.7472 L370.8919,284.0657 L381,283.332 " fill="#FEFECE" style="stroke: #A80036; stroke-width: 1.5;"/><path d="M7,291.332 L7,291.8666 L17.1081,291.7945 L27.2162,290.4113 L37.3243,291.4956 L47.4324,290.9322 L57.5405,290.6428 L67.6486,290.36 L77.7568,291.7861 L87.8649,290.7371 L97.973,290.6698 L108.0811,290.8185 L118.1892,291.106 L128.2973,291.2273 L138.4054,290.6428 L148.5135,291.8106 L158.6216,291.7055 L168.7297,291.1215 L178.8378,290.8092 L188.9459,292.0325 L199.0541,290.9363 L209.1622,291.3463 L219.2703,291.7613 L229.3784,291.8391 L239.4865,292.3158 L249.5946,290.8565 L259.7027,290.3703 L269.8108,291.7541 L279.9189,291.4405 L290.027,290.978 L300.1351,292.2847 L310.2432,292.2259 L320.3514,292.1656 L330.4595,291.1875 L340.5676,291.3131 L350.6757,292.0998 L360.7838,291.01 L370.8919,291.4644 L381,291.332 " fill="#FEFECE" style="stroke: #A80036; stroke-width: 1.5;"/><text fill="#000000" font-family="sans-serif" font-size="11" lengthAdjust="spacingAndGlyphs" textLength="144" x="12" y="305.9668">+初期データ取得：getNew()</text><text fill="#000000" font-family="sans-serif" font-size="11" lengthAdjust="spacingAndGlyphs" textLength="83" x="12" y="318.9219">+作成：create()</text><text fill="#000000" font-family="sans-serif" font-size="11" lengthAdjust="spacingAndGlyphs" textLength="87" x="12" y="331.877">+編集：update()</text><text fill="#000000" font-family="sans-serif" font-size="11" lengthAdjust="spacingAndGlyphs" textLength="82" x="12" y="344.832">+削除：delete()</text><text fill="#000000" font-family="sans-serif" font-size="11" lengthAdjust="spacingAndGlyphs" textLength="122" x="12" y="357.7871">+単一データ取得：get()</text><text fill="#000000" font-family="sans-serif" font-size="11" lengthAdjust="spacingAndGlyphs" textLength="152" x="12" y="370.7422">+一覧データ取得：getIndex()</text><text fill="#000000" font-family="sans-serif" font-size="11" lengthAdjust="spacingAndGlyphs" textLength="119" x="12" y="383.6973">+リスト取得：getList()</text><text fill="#000000" font-family="sans-serif" font-size="11" lengthAdjust="spacingAndGlyphs" textLength="99" x="12" y="396.6523">+ログイン：login()</text><text fill="#000000" font-family="sans-serif" font-size="11" lengthAdjust="spacingAndGlyphs" textLength="118" x="12" y="409.6074">+ログアウト：logout()</text><text fill="#000000" font-family="sans-serif" font-size="11" lengthAdjust="spacingAndGlyphs" textLength="124" x="12" y="422.5625">+再ログイン：reLogin()</text><text fill="#000000" font-family="sans-serif" font-size="11" lengthAdjust="spacingAndGlyphs" textLength="200" x="12" y="435.5176">+代理ログインを行う：loginToAgent()</text><text fill="#000000" font-family="sans-serif" font-size="11" lengthAdjust="spacingAndGlyphs" textLength="364" x="12" y="448.4727">+代理ログインから元のユーザーに戻る：returnLoginUserFromAgent()</text><text fill="#000000" font-family="sans-serif" font-size="11" lengthAdjust="spacingAndGlyphs" textLength="285" x="12" y="461.4277">+認証用のセッションキーを取得：getAuthSessionKey()</text><text fill="#000000" font-family="sans-serif" font-size="11" lengthAdjust="spacingAndGlyphs" textLength="266" x="12" y="474.3828">+ログインキーをセット：setCookieAutoLoginKey()</text><text fill="#000000" font-family="sans-serif" font-size="11" lengthAdjust="spacingAndGlyphs" textLength="238" x="12" y="487.3379">+ログインキーを削除する：removeLoginKey()</text><text fill="#000000" font-family="sans-serif" font-size="11" lengthAdjust="spacingAndGlyphs" textLength="236" x="12" y="500.293">+ログイン状態の保存確認：checkAutoLogin()</text><text fill="#000000" font-family="sans-serif" font-size="11" lengthAdjust="spacingAndGlyphs" textLength="205" x="12" y="513.248">+ログイン情報をリロードする：reload()</text><!--class UsersTable--><polygon fill="#FEFECE" filter="url(#fa6rm14)" points="274,579.1992,274,579.5313,284,579.296,294,579.8715,304,579.7019,314,578.6537,324,579.0478,334,578.5106,344,579.8182,354,579.4257,364,579.8092,374,579.5876,384,578.984,394,578.987,404,579.7563,414,579.7947,424,579.8193,434,578.6052,444,578.8958,454,579.5245,464,579.5429,474,579.0296,484,579.5576,494,579.5367,504,579.6056,514,579.601,524,579.9142,534,579.0885,544,579.8171,554,578.6279,564,579.431,574,578.5822,584,579.9289,594,579.4873,604,578.9133,614,579.2674,624,579.5028,634,578.5568,644,578.912,654,578.4773,664,579.3385,674,579.1992,674.2429,579.1992,673.9669,588.6339,674.5709,598.0686,673.5534,607.5033,673.8184,616.9381,674.3134,626.3728,673.4951,635.8075,674,645.2422,674,645.1504,664,645.6052,654,645.3116,644,645.2377,634,645.2019,624,645.2731,614,645.538,604,645.9723,594,645.5995,584,645.3134,574,645.3289,564,645.0145,554,645.199,544,644.8131,534,644.8315,524,645.0754,514,645.767,504,645.3201,494,644.5878,484,645.4918,474,644.6432,464,645.4704,454,645.5107,444,645.791,434,644.4964,424,645.2282,414,644.849,404,644.6595,394,645.9576,384,644.5282,374,644.873,364,644.6186,354,645.139,344,645.4929,334,645.2087,324,645.1284,314,644.8485,304,645.9888,294,644.7848,284,645.2232,274,645.2422,273.4523,645.2422,274.3333,635.8075,273.4676,626.3728,273.369,616.9381,273.9888,607.5033,274.1536,598.0686,273.842,588.6339,274,579.1992" style="stroke: #A80036; stroke-width: 1.5;"/><text fill="#000000" font-family="sans-serif" font-size="12" lengthAdjust="spacingAndGlyphs" textLength="65" x="441.5" y="595.8008">UsersTable</text><path d="M275,603.332 L275,602.9462 L284.95,602.7897 L294.9,602.681 L304.85,604.0317 L314.8,602.7057 L324.75,603.8378 L334.7,603.7145 L344.65,603.6207 L354.6,602.5356 L364.55,603.5284 L374.5,603.9108 L384.45,603.1845 L394.4,603.5996 L404.35,604.1864 L414.3,604.1716 L424.25,603.4595 L434.2,603.7133 L444.15,602.9758 L454.1,603.507 L464.05,603.3464 L474,602.7644 L483.95,602.7855 L493.9,604.1775 L503.85,604.2975 L513.8,602.5441 L523.75,602.4943 L533.7,602.4288 L543.65,603.0255 L553.6,602.8421 L563.55,603.4689 L573.5,602.5783 L583.45,602.9423 L593.4,604.2025 L603.35,603.3659 L613.3,603.9737 L623.25,602.9206 L633.2,604.2199 L643.15,603.963 L653.1,603.0469 L663.05,602.5946 L673,603.332 " fill="#FEFECE" style="stroke: #A80036; stroke-width: 1.5;"/><path d="M275,611.332 L275,610.6768 L284.95,610.8352 L294.9,612.3245 L304.85,610.4766 L314.8,611.1778 L324.75,611.2238 L334.7,610.8316 L344.65,610.6647 L354.6,611.2343 L364.55,610.4098 L374.5,611.8415 L384.45,611.8515 L394.4,610.9831 L404.35,612.3089 L414.3,610.3714 L424.25,610.7171 L434.2,610.8932 L444.15,610.8485 L454.1,612.2173 L464.05,610.6011 L474,610.9239 L483.95,610.9636 L493.9,610.6439 L503.85,611.5952 L513.8,611.6397 L523.75,611.7667 L533.7,612.1104 L543.65,611.8837 L553.6,611.7718 L563.55,611.6027 L573.5,610.6146 L583.45,612.2834 L593.4,610.6354 L603.35,611.2878 L613.3,611.3757 L623.25,610.4924 L633.2,611.6686 L643.15,611.865 L653.1,610.6526 L663.05,610.5595 L673,611.332 " fill="#FEFECE" style="stroke: #A80036; stroke-width: 1.5;"/><text fill="#000000" font-family="sans-serif" font-size="11" lengthAdjust="spacingAndGlyphs" textLength="251" x="280" y="625.9668">+利用可能なユーザーを取得する：findAvailable()</text><text fill="#000000" font-family="sans-serif" font-size="11" lengthAdjust="spacingAndGlyphs" textLength="388" x="280" y="638.9219">+ユーザーが許可されている認証プレフィックスを取得する：getAuthPrefix()</text><!--class User--><polygon fill="#FEFECE" filter="url(#fa6rm14)" points="328.5,705.1992,328.5,705.0669,338.5345,704.704,348.569,705.3315,358.6034,704.5875,368.6379,705.6454,378.6724,704.5171,388.7069,705.1619,398.7414,704.9446,408.7759,705.326,418.8103,704.4623,428.8448,705.2649,438.8793,705.6548,448.9138,705.5042,458.9483,705.8675,468.9828,705.8026,479.0172,705.2065,489.0517,704.6693,499.0862,705.1701,509.1207,705.0695,519.1552,704.9331,529.1897,705.9119,539.2241,704.8339,549.2586,705.3094,559.2931,705.6321,569.3276,704.7409,579.3621,705.0642,589.3966,705.4782,599.431,704.5449,609.4655,705.8665,619.5,705.1992,619.3608,705.1992,620.1231,715.1806,619.9282,725.162,618.8785,735.1434,620.0631,745.1248,618.8232,755.1062,620.0485,765.0875,620.0678,775.0689,619.1654,785.0503,619.5462,795.0317,618.7746,805.0131,618.8315,814.9945,619.0309,824.9759,619.5364,834.9573,619.7745,844.9386,618.9083,854.92,619.6226,864.9014,619.5,874.8828,619.5,874.7557,609.4655,874.4206,599.431,874.3819,589.3966,875.4722,579.3621,874.602,569.3276,874.5218,559.2931,874.6306,549.2586,875.1482,539.2241,875.1714,529.1897,874.9916,519.1552,875.2398,509.1207,874.9193,499.0862,874.7389,489.0517,875.5302,479.0172,874.3326,468.9828,874.6809,458.9483,875.3365,448.9138,874.797,438.8793,874.2715,428.8448,874.9607,418.8103,875.2776,408.7759,874.8352,398.7414,874.6951,388.7069,874.2103,378.6724,875.3725,368.6379,874.8484,358.6034,874.5322,348.569,875.2742,338.5345,875.11,328.5,874.8828,328.6417,874.8828,327.8302,864.9014,328.247,854.92,328.3204,844.9386,328.536,834.9573,327.8198,824.9759,327.7714,814.9945,328.3347,805.0131,328.6583,795.0317,328.961,785.0503,329.0336,775.0689,328.1434,765.0875,327.8816,755.1062,328.4318,745.1248,327.9248,735.1434,328.6855,725.162,328.0828,715.1806,328.5,705.1992" style="stroke: #A80036; stroke-width: 1.5;"/><text fill="#000000" font-family="sans-serif" font-size="12" lengthAdjust="spacingAndGlyphs" textLength="26" x="461" y="721.8008">User</text><path d="M329.5,729.332 L329.5,728.5139 L339.4655,728.4562 L349.431,729.9068 L359.3966,729.396 L369.3621,729.4284 L379.3276,728.8216 L389.2931,730.1275 L399.2586,729.5068 L409.2241,729.8534 L419.1897,728.5486 L429.1552,729.317 L439.1207,729.9032 L449.0862,728.6598 L459.0517,728.6526 L469.0172,728.5313 L478.9828,728.4592 L488.9483,729.4653 L498.9138,728.5378 L508.8793,729.6223 L518.8448,728.4839 L528.8103,730.2726 L538.7759,728.6646 L548.7414,728.4928 L558.7069,728.7762 L568.6724,729.9267 L578.6379,729.271 L588.6034,729.8131 L598.569,730.2688 L608.5345,730.2386 L618.5,729.332 " fill="#FEFECE" style="stroke: #A80036; stroke-width: 1.5;"/><text fill="#000000" font-family="sans-serif" font-size="11" lengthAdjust="spacingAndGlyphs" textLength="115" x="334.5" y="743.9668">+アカウント名：name</text><text fill="#000000" font-family="sans-serif" font-size="11" lengthAdjust="spacingAndGlyphs" textLength="127" x="334.5" y="756.9219">+パスワード：password</text><text fill="#000000" font-family="sans-serif" font-size="11" lengthAdjust="spacingAndGlyphs" textLength="99" x="334.5" y="769.877">+性：real_name_1</text><text fill="#000000" font-family="sans-serif" font-size="11" lengthAdjust="spacingAndGlyphs" textLength="99" x="334.5" y="782.832">+名：real_name_2</text><text fill="#000000" font-family="sans-serif" font-size="11" lengthAdjust="spacingAndGlyphs" textLength="125" x="334.5" y="795.7871">+メールアドレス：email</text><text fill="#000000" font-family="sans-serif" font-size="11" lengthAdjust="spacingAndGlyphs" textLength="137" x="334.5" y="808.7422">+ニックネーム：nickname</text><text fill="#000000" font-family="sans-serif" font-size="11" lengthAdjust="spacingAndGlyphs" textLength="93" x="334.5" y="821.6973">+登録日：created</text><text fill="#000000" font-family="sans-serif" font-size="11" lengthAdjust="spacingAndGlyphs" textLength="100" x="334.5" y="834.6523">+編集日：modified</text><path d="M329.5,840.9727 L329.5,841.0266 L339.4655,840.9943 L349.431,840.3471 L359.3966,840.1197 L369.3621,840.0447 L379.3276,841.8123 L389.2931,841.4492 L399.2586,840.3821 L409.2241,841.5957 L419.1897,841.5376 L429.1552,840.4367 L439.1207,840.0461 L449.0862,840.3486 L459.0517,841.9584 L469.0172,841.6796 L478.9828,841.2428 L488.9483,840.7314 L498.9138,840.9949 L508.8793,840.531 L518.8448,840.8307 L528.8103,840.3255 L538.7759,840.9728 L548.7414,840.1612 L558.7069,841.9357 L568.6724,841.9137 L578.6379,841.8774 L588.6034,841.3915 L598.569,841.5918 L608.5345,840.8115 L618.5,840.9727 " fill="#FEFECE" style="stroke: #A80036; stroke-width: 1.5;"/><text fill="#000000" font-family="sans-serif" font-size="11" lengthAdjust="spacingAndGlyphs" textLength="226" x="334.5" y="855.6074">+管理ユーザーかどうか判定する：isAdmin()</text><text fill="#000000" font-family="sans-serif" font-size="11" lengthAdjust="spacingAndGlyphs" textLength="279" x="334.5" y="868.5625">+整形されたユーザー名を取得する：getDisplayName()</text><path d="M474,199.3392 L474.9918,199.3392 L474.1773,209.4399 L473.4649,219.5406 L473.2325,229.6412 L473.7741,239.7419 L474.2601,249.8426 L474.81,259.9432 L473.7764,270.0439 L473.9769,280.1446 L474.579,290.2452 L473.6794,300.3459 L474.6694,310.4466 L473.5703,320.5472 L474.0114,330.6479 L473.6771,340.7486 L474,350.8492 " fill="none" style="stroke: #000000; stroke-width: 1.0;"/><polygon fill="#000000" points="474,355.9392,473.9617,355.9222,474.8996,354.1835,475.45,352.2726,476.5549,350.6081,477.3493,348.8056,478,346.9392,478.1088,347.0481,477.3072,347.8464,476.3063,348.4455,475.608,349.3472,474.8737,350.2129,474,350.9392,473.8856,350.8248,473.2888,350.228,472.2715,349.2107,471.7607,348.6999,470.6425,347.5817,470,346.9392,470.2042,347.03,470.6118,348.6556,471.7261,350.5953,472.4818,352.3756,473.3744,354.2167,474,355.9392" style="stroke: #000000; stroke-width: 1.0;"/><path d="M536.43,389.1992 L536.43,389.5265 L542.288,389.1427 L548.146,389.1907 L554.004,389.4652 L559.862,389.5167 L565.72,389.1992 " fill="none" style="stroke: #000000; stroke-width: 1.0;"/><polygon fill="#000000" points="531.32,389.1992,531.4066,389.394,533.0204,389.7752,534.8989,390.7516,536.6764,391.5011,538.6084,392.5982,540.32,393.1992,540.1886,393.0678,539.4475,392.3267,538.6968,391.576,537.8588,390.7381,537.05,389.9293,536.32,389.1992,536.2436,389.1228,537.2706,388.5498,538.0095,387.6887,538.5543,386.6335,539.4087,385.888,540.32,385.1992,540.3955,385.3691,538.4767,385.9018,536.7605,386.8903,534.837,387.4124,533.2215,388.6275,531.32,389.1992" style="stroke: #000000; stroke-width: 1.0;"/><path d="M474,422.3392 L473.8315,422.3392 L473.0572,432.4486 L473.2828,442.5579 L473.6929,452.6672 L474.8498,462.7766 L474.3858,472.8859 L473.0677,482.9952 L473.9584,493.1046 L473.0736,503.2139 L473.3299,513.3232 L474.0596,523.4326 L473.7166,533.5419 L473.9314,543.6512 L474.2463,553.7606 L473.7419,563.8699 L474,573.9792 " fill="none" style="stroke: #000000; stroke-width: 1.0;"/><polygon fill="#000000" points="474,579.0292,474.1989,579.1176,474.9364,577.2899,475.6956,575.4717,476.2338,573.5553,477.1004,571.7849,478,570.0292,478.1206,570.1499,477.065,570.6942,476.4541,571.6833,475.588,572.4172,474.7161,573.1453,474,574.0292,473.9652,573.9944,473.2469,573.2762,472.412,572.4412,471.4356,571.4648,470.976,571.0052,470,570.0292,469.872,569.9723,470.9415,571.8921,471.7343,573.6889,472.3244,575.3956,473.0339,577.1554,474,579.0292" style="stroke: #000000; stroke-width: 1.0;"/><path d="M402.25,389.1992 L402.25,389.0727 L405.188,389.1003 L408.126,389.4804 L411.064,388.911 L414.002,389.1032 L416.94,389.1992 " fill="none" style="stroke: #000000; stroke-width: 1.0; stroke-dasharray: 1.0,3.0;"/><polygon fill="none" points="402.13,396.1992,402.0735,396.0376,398.1485,394.8578,394.1843,393.5658,390.122,391.9936,386.1293,390.6202,382.12,389.1992,382.1708,389.3444,386.1955,388.015,390.1236,386.4094,394.0539,384.8104,398.1645,383.7263,402.12,382.1992,402.1465,382.1992,401.8859,384.9991,402.1172,387.7992,402.2742,390.5993,402.0695,393.3992,402.13,396.1992" style="stroke: #000000; stroke-width: 1.0;"/><path d="M474,645.4792 L474.4045,645.4792 L473.9343,656.3032 L473.712,667.1272 L473.7568,677.9512 L474.9345,688.7752 L474,699.5992 " fill="none" style="stroke: #000000; stroke-width: 1.0;"/><polygon fill="#000000" points="474,705.0692,474.1448,705.1336,474.7056,703.2273,475.726,701.5252,476.5227,699.7237,477.0515,697.8032,478,696.0692,478.0015,696.0707,477.1016,696.7708,476.5227,697.7919,475.6873,698.5566,474.7514,699.2206,474,700.0692,473.8442,699.9134,473.3129,699.3821,472.2533,698.3225,471.4991,697.5684,470.8623,696.9315,470,696.0692,469.8441,695.9999,471.0101,697.9626,471.5993,699.6689,472.3685,701.4552,473.2723,703.3013,474,705.0692" style="stroke: #000000; stroke-width: 1.0;"/></g></svg>