<?xml version="1.0" encoding="UTF-8" standalone="no"?><svg xmlns="http://www.w3.org/2000/svg" xmlns:xlink="http://www.w3.org/1999/xlink" contentScriptType="application/ecmascript" contentStyleType="text/css" height="677px" preserveAspectRatio="none" style="width:774px;height:677px;" version="1.1" viewBox="0 0 774 677" width="774px" zoomAndPan="magnify"><defs><filter height="300%" id="fs8xdn3" width="300%" x="-1" y="-1"><feGaussianBlur result="blurOut" stdDeviation="2.0"/><feColorMatrix in="blurOut" result="blurOut2" type="matrix" values="0 0 0 0 0 0 0 0 0 0 0 0 0 0 0 0 0 0 .4 0"/><feOffset dx="4.0" dy="4.0" in="blurOut2" result="blurOut3"/><feBlend in="SourceGraphic" in2="blurOut3" mode="normal"/></filter></defs><g><text fill="#000000" font-family="sans-serif" font-size="18" lengthAdjust="spacingAndGlyphs" textLength="198" x="293" y="17.4023">コンテンツフォルダ管理</text><!--class BcContentsComponent--><polygon fill="#FEFECE" filter="url(#fs8xdn3)" points="193.5,29.1992,193.5,29.8812,203.2059,28.9118,212.9118,29.8306,222.6176,29.2018,232.3235,28.8679,242.0294,29.5993,251.7353,28.6425,261.4412,29.006,271.1471,28.6244,280.8529,28.9312,290.5588,28.7765,300.2647,29.3366,309.9706,29.5474,319.6765,29.0747,329.3824,29.885,339.0882,29.0709,348.7941,29.1241,358.5,29.1992,358.8308,29.1992,358.3093,39.4688,358.6208,49.7383,358.4603,60.0078,358.9071,70.2773,358.3163,80.5469,357.8448,90.8164,359.2353,101.0859,359.0211,111.3555,358.7287,121.625,357.8951,131.8945,358.8553,142.1641,358.5618,152.4336,358.4592,162.7031,358.5,172.9727,358.5,172.5374,348.7941,173.7133,339.0882,172.5273,329.3824,173.5268,319.6765,172.8825,309.9706,172.7569,300.2647,172.8351,290.5588,172.724,280.8529,172.53,271.1471,173.1464,261.4412,173.6514,251.7353,172.4824,242.0294,172.8997,232.3235,173.2078,222.6176,173.0813,212.9118,173.1364,203.2059,173.2516,193.5,172.9727,193.4049,172.9727,193.6786,162.7031,193.9877,152.4336,193.2421,142.1641,194.0785,131.8945,193.188,121.625,193.2282,111.3555,193.4944,101.0859,194.1146,90.8164,193.8951,80.5469,193.0786,70.2773,194.0399,60.0078,193.6993,49.7383,193.6289,39.4688,193.5,29.1992" style="stroke: #A80036; stroke-width: 1.5;"/><text fill="#000000" font-family="sans-serif" font-size="12" lengthAdjust="spacingAndGlyphs" textLength="129" x="211.5" y="45.8008">BcContentsComponent</text><path d="M194.5,53.332 L194.5,53.4985 L204.6875,53.4299 L214.875,53.443 L225.0625,52.7087 L235.25,52.6464 L245.4375,52.976 L255.625,53.2146 L265.8125,52.362 L276,53.6122 L286.1875,52.8162 L296.375,53.2818 L306.5625,54.2581 L316.75,52.6222 L326.9375,52.3359 L337.125,53.4424 L347.3125,52.752 L357.5,53.332 " fill="#FEFECE" style="stroke: #A80036; stroke-width: 1.5;"/><path d="M194.5,61.332 L194.5,60.9185 L204.6875,61.8934 L214.875,61.3468 L225.0625,60.9527 L235.25,60.765 L245.4375,60.516 L255.625,61.3442 L265.8125,61.4641 L276,61.6897 L286.1875,61.352 L296.375,60.5468 L306.5625,60.6303 L316.75,61.4313 L326.9375,61.1879 L337.125,62.3034 L347.3125,60.8698 L357.5,61.332 " fill="#FEFECE" style="stroke: #A80036; stroke-width: 1.5;"/><text fill="#000000" font-family="sans-serif" font-size="11" lengthAdjust="spacingAndGlyphs" textLength="82" x="199.5" y="75.9668">+setupAdmin()</text><text fill="#000000" font-family="sans-serif" font-size="11" lengthAdjust="spacingAndGlyphs" textLength="76" x="199.5" y="88.9219">+setupFront()</text><text fill="#000000" font-family="sans-serif" font-size="11" lengthAdjust="spacingAndGlyphs" textLength="82" x="199.5" y="101.877">+settingForm()</text><text fill="#000000" font-family="sans-serif" font-size="11" lengthAdjust="spacingAndGlyphs" textLength="153" x="199.5" y="114.832">+getParentLayoutTemplate()</text><text fill="#000000" font-family="sans-serif" font-size="11" lengthAdjust="spacingAndGlyphs" textLength="66" x="199.5" y="127.7871">+getTypes()</text><text fill="#000000" font-family="sans-serif" font-size="11" lengthAdjust="spacingAndGlyphs" textLength="77" x="199.5" y="140.7422">+getContent()</text><text fill="#000000" font-family="sans-serif" font-size="11" lengthAdjust="spacingAndGlyphs" textLength="77" x="199.5" y="153.6973">+getCrumbs()</text><text fill="#000000" font-family="sans-serif" font-size="11" lengthAdjust="spacingAndGlyphs" textLength="90" x="199.5" y="166.6523">+beforeRender()</text><!--class Admin\ContentFoldersController--><polygon fill="#FEFECE" filter="url(#fs8xdn3)" points="393.5,42.1992,393.5,42.927,403.5526,41.6238,413.6053,42.5939,423.6579,42.7019,433.7105,42.7798,443.7632,41.9045,453.8158,41.7562,463.8684,42.3094,473.9211,42.2188,483.9737,41.901,494.0263,42.2483,504.0789,42.039,514.1316,42.23,524.1842,41.9625,534.2368,42.4792,544.2895,41.4503,554.3421,41.7685,564.3947,41.8734,574.4474,41.481,584.5,42.1992,584.176,42.1992,584.2794,52.0212,583.9836,61.8431,584.0455,71.665,585.0584,81.487,584.63,91.3089,584.0983,101.1309,585.0591,110.9528,584.4968,120.7747,584.1979,130.5967,584.1571,140.4186,584.1319,150.2406,584.5,160.0625,584.5,159.8366,574.4474,160.1973,564.3947,160.0603,554.3421,160.2165,544.2895,160.0912,534.2368,159.3631,524.1842,160.1471,514.1316,159.9538,504.0789,160.656,494.0263,160.694,483.9737,159.6552,473.9211,159.8269,463.8684,159.9931,453.8158,160.6015,443.7632,159.4948,433.7105,159.852,423.6579,160.558,413.6053,160.5656,403.5526,160.4171,393.5,160.0625,393.9891,160.0625,393.2942,150.2406,393.0311,140.4186,393.401,130.5967,393.0947,120.7747,393.336,110.9528,393.3041,101.1309,393.8451,91.3089,393.7707,81.487,393.6437,71.665,394.1189,61.8431,392.9297,52.0212,393.5,42.1992" style="stroke: #A80036; stroke-width: 1.5;"/><text fill="#000000" font-family="sans-serif" font-size="12" lengthAdjust="spacingAndGlyphs" textLength="185" x="396.5" y="58.8008">Admin\ContentFoldersController</text><path d="M394.5,66.332 L394.5,65.5126 L404.4474,66.2743 L414.3947,66.5573 L424.3421,65.8261 L434.2895,67.0582 L444.2368,66.663 L454.1842,66.695 L464.1316,66.7043 L474.0789,65.9047 L484.0263,67.2477 L493.9737,66.1607 L503.9211,67.1489 L513.8684,66.9362 L523.8158,67.2488 L533.7632,66.972 L543.7105,65.6211 L553.6579,67.1393 L563.6053,65.9833 L573.5526,66.6527 L583.5,66.332 " fill="#FEFECE" style="stroke: #A80036; stroke-width: 1.5;"/><text fill="#000000" font-family="sans-serif" font-size="11" lengthAdjust="spacingAndGlyphs" textLength="151" x="399.5" y="80.9668">+AuthenticationComponent</text><text fill="#000000" font-family="sans-serif" font-size="11" lengthAdjust="spacingAndGlyphs" textLength="130" x="399.5" y="93.9219">+BcMessageComponent</text><text fill="#000000" font-family="sans-serif" font-size="11" lengthAdjust="spacingAndGlyphs" textLength="133" x="399.5" y="106.877">+BcContentsComponent</text><path d="M394.5,113.1973 L394.5,113.8856 L404.4474,113.3463 L414.3947,112.8435 L424.3421,113.0615 L434.2895,112.727 L444.2368,114.0862 L454.1842,114.0289 L464.1316,112.2138 L474.0789,112.9887 L484.0263,112.5838 L493.9737,112.8571 L503.9211,114.0582 L513.8684,114.0795 L523.8158,113.5598 L533.7632,112.3236 L543.7105,113.6311 L553.6579,113.1017 L563.6053,113.8509 L573.5526,113.6853 L583.5,113.1973 " fill="#FEFECE" style="stroke: #A80036; stroke-width: 1.5;"/><text fill="#000000" font-family="sans-serif" font-size="11" lengthAdjust="spacingAndGlyphs" textLength="37" x="399.5" y="127.832">+edit()</text><text fill="#000000" font-family="sans-serif" font-size="11" lengthAdjust="spacingAndGlyphs" textLength="49" x="399.5" y="140.7871">+delete()</text><text fill="#000000" font-family="sans-serif" font-size="11" lengthAdjust="spacingAndGlyphs" textLength="136" x="399.5" y="153.7422">※ add() は、APIを利用する</text><!--class BcAdminContentFolderHelper--><polygon fill="#FEFECE" filter="url(#fs8xdn3)" points="590.5,239.6992,590.5,238.9659,600.2222,240.2973,609.9444,239.5296,619.6667,240.433,629.3889,240.3843,639.1111,238.9864,648.8333,239.7401,658.5556,239.709,668.2778,240.2002,678,240.0367,687.7222,239.535,697.4444,239.1456,707.1667,240.0565,716.8889,239.5717,726.6111,240.1328,736.3333,239.3461,746.0556,240.3305,755.7778,240.3766,765.5,239.6992,764.988,239.6992,765.232,249.574,765.2672,259.4487,764.8731,269.3235,764.7722,279.1982,765.1178,289.073,764.7991,298.9478,765.7568,308.8225,765.5,318.6973,765.5,319.2236,755.7778,319.4346,746.0556,319.3085,736.3333,318.0467,726.6111,319.0127,716.8889,317.9689,707.1667,318.0034,697.4444,319.3239,687.7222,318.7701,678,318.4137,668.2778,318.707,658.5556,318.804,648.8333,319.4238,639.1111,318.571,629.3889,318.7434,619.6667,319.1334,609.9444,318.1071,600.2222,319.3486,590.5,318.6973,591.1584,318.6973,589.8439,308.8225,590.7662,298.9478,590.846,289.073,590.832,279.1982,589.832,269.3235,590.2405,259.4487,590.9098,249.574,590.5,239.6992" style="stroke: #A80036; stroke-width: 1.5;"/><text fill="#000000" font-family="sans-serif" font-size="12" lengthAdjust="spacingAndGlyphs" textLength="169" x="593.5" y="256.3008">BcAdminContentFolderHelper</text><path d="M591.5,263.832 L591.5,262.9057 L601.6765,264.8094 L611.8529,263.2173 L622.0294,264.5374 L632.2059,264.515 L642.3824,264.2192 L652.5588,264.6397 L662.7353,264.7532 L672.9118,263.18 L683.0882,264.7854 L693.2647,264.5399 L703.4412,262.8746 L713.6176,263.025 L723.7941,264.1347 L733.9706,263.5088 L744.1471,264.682 L754.3235,263.5268 L764.5,263.832 " fill="#FEFECE" style="stroke: #A80036; stroke-width: 1.5;"/><path d="M591.5,271.832 L591.5,271.0555 L601.6765,271.5637 L611.8529,271.6418 L622.0294,272.6575 L632.2059,272.3085 L642.3824,272.3802 L652.5588,271.3201 L662.7353,272.7728 L672.9118,272.1396 L683.0882,272.2285 L693.2647,271.9886 L703.4412,272.8265 L713.6176,271.7002 L723.7941,271.732 L733.9706,272.2201 L744.1471,271.3607 L754.3235,271.4263 L764.5,271.832 " fill="#FEFECE" style="stroke: #A80036; stroke-width: 1.5;"/><text fill="#000000" font-family="sans-serif" font-size="11" lengthAdjust="spacingAndGlyphs" textLength="136" x="596.5" y="286.4668">+getFolderTemplateList()</text><text fill="#000000" font-family="sans-serif" font-size="11" lengthAdjust="spacingAndGlyphs" textLength="127" x="596.5" y="299.4219">+getPageTemplateList()</text><text fill="#000000" font-family="sans-serif" font-size="11" lengthAdjust="spacingAndGlyphs" textLength="95" x="596.5" y="312.377">+getPublishLink()</text><!--class ContentFolderService--><polygon fill="#FEFECE" filter="url(#fs8xdn3)" points="422.5,252.6992,422.5,252.6559,432.7308,252.9792,442.9615,252.6548,453.1923,252.052,463.4231,252.2833,473.6538,252.9455,483.8846,253.2762,494.1154,253.1928,504.3462,252.9441,514.5769,253.208,524.8077,252.0737,535.0385,252.8627,545.2692,252.4822,555.5,252.6992,556.0294,252.6992,555.0046,263.3168,555.9382,273.9344,555.0781,284.552,554.7887,295.1695,555.5,305.7871,555.5,305.4566,545.2692,305.092,535.0385,305.8214,524.8077,306.4097,514.5769,305.2578,504.3462,305.797,494.1154,306.3514,483.8846,305.9349,473.6538,305.9686,463.4231,305.0984,453.1923,306.1375,442.9615,305.7523,432.7308,305.3157,422.5,305.7871,422.5858,305.7871,422.1916,295.1695,421.9188,284.552,422.9865,273.9344,422.5193,263.3168,422.5,252.6992" style="stroke: #A80036; stroke-width: 1.5;"/><text fill="#000000" font-family="sans-serif" font-size="12" lengthAdjust="spacingAndGlyphs" textLength="120" x="429" y="269.3008">ContentFolderService</text><path d="M423.5,276.832 L423.5,277.0621 L433.5769,277.2067 L443.6538,277.6919 L453.7308,277.0336 L463.8077,276.4295 L473.8846,275.9679 L483.9615,276.7067 L494.0385,275.9698 L504.1154,276.3608 L514.1923,276.2822 L524.2692,277.6353 L534.3462,276.0322 L544.4231,277.4771 L554.5,276.832 " fill="#FEFECE" style="stroke: #A80036; stroke-width: 1.5;"/><text fill="#000000" font-family="sans-serif" font-size="11" lengthAdjust="spacingAndGlyphs" textLength="121" x="428.5" y="291.4668">+ContentFoldersTable</text><path d="M423.5,297.7871 L423.5,298.4804 L433.5769,298.595 L443.6538,297.9524 L453.7308,298.0113 L463.8077,297.6376 L473.8846,298.6043 L483.9615,297.4642 L494.0385,298.5226 L504.1154,298.5595 L514.1923,297.8583 L524.2692,297.7057 L534.3462,298.7831 L544.4231,298.6841 L554.5,297.7871 " fill="#FEFECE" style="stroke: #A80036; stroke-width: 1.5;"/><!--class ContentFolderServiceInterface--><polygon fill="#FEFECE" filter="url(#fs8xdn3)" points="211,233.1992,211,232.6653,220.7778,233.6825,230.5556,233.2882,240.3333,233.7759,250.1111,233.423,259.8889,232.6433,269.6667,233.0637,279.4444,232.6852,289.2222,233.3727,299,233.8353,308.7778,232.624,318.5556,233.3156,328.3333,233.7743,338.1111,233.941,347.8889,233.3206,357.6667,232.6276,367.4444,232.884,377.2222,233.0134,387,233.1992,386.7255,233.1992,386.8267,243.4162,386.9324,253.6332,387.4574,263.8503,387.6029,274.0673,387.6025,284.2843,386.3821,294.5013,387.6972,304.7183,387.4146,314.9353,387,325.1523,387,325.8428,377.2222,325.7032,367.4444,324.701,357.6667,325.6581,347.8889,325.279,338.1111,325.3361,328.3333,325.205,318.5556,324.5796,308.7778,325.0816,299,324.8998,289.2222,325.7316,279.4444,324.8574,269.6667,324.6202,259.8889,324.8628,250.1111,324.6412,240.3333,325.6905,230.5556,324.4077,220.7778,325.7751,211,325.1523,211.3032,325.1523,210.5571,314.9353,210.4724,304.7183,210.5962,294.5013,210.3616,284.2843,211.1207,274.0673,211.4313,263.8503,210.5113,253.6332,211.0279,243.4162,211,233.1992" style="stroke: #A80036; stroke-width: 1.5;"/><text fill="#000000" font-family="sans-serif" font-size="12" lengthAdjust="spacingAndGlyphs" textLength="170" x="214" y="249.8008">ContentFolderServiceInterface</text><path d="M212,257.332 L212,256.4825 L222.2353,258.1264 L232.4706,258.194 L242.7059,257.8251 L252.9412,257.768 L263.1765,257.6002 L273.4118,257.9069 L283.6471,257.806 L293.8824,257.3875 L304.1176,257.2756 L314.3529,258.2341 L324.5882,256.6601 L334.8235,256.396 L345.0588,256.376 L355.2941,257.2305 L365.5294,258.0248 L375.7647,258.2481 L386,257.332 " fill="#FEFECE" style="stroke: #A80036; stroke-width: 1.5;"/><path d="M212,265.332 L212,265.9663 L222.2353,265.9757 L232.4706,264.7678 L242.7059,265.5202 L252.9412,266.3157 L263.1765,264.4018 L273.4118,264.8863 L283.6471,265.7402 L293.8824,265.9363 L304.1176,266.0357 L314.3529,265.879 L324.5882,266.0465 L334.8235,264.8682 L345.0588,265.9321 L355.2941,265.3912 L365.5294,265.5505 L375.7647,266.1652 L386,265.332 " fill="#FEFECE" style="stroke: #A80036; stroke-width: 1.5;"/><text fill="#000000" font-family="sans-serif" font-size="11" lengthAdjust="spacingAndGlyphs" textLength="96" x="217" y="279.9668">+isOverPostSize()</text><text fill="#000000" font-family="sans-serif" font-size="11" lengthAdjust="spacingAndGlyphs" textLength="136" x="217" y="292.9219">+getFolderTemplateList()</text><text fill="#000000" font-family="sans-serif" font-size="11" lengthAdjust="spacingAndGlyphs" textLength="127" x="217" y="305.877">+getPageTemplateList()</text><text fill="#000000" font-family="sans-serif" font-size="11" lengthAdjust="spacingAndGlyphs" textLength="95" x="217" y="318.832">+getPublishLink()</text><!--class ContentFoldersTable--><polygon fill="#FEFECE" filter="url(#fs8xdn3)" points="415,391.6992,415,392.2445,424.8667,392.1331,434.7333,391.154,444.6,391.9017,454.4667,391.1375,464.3333,391.4128,474.2,391.9817,484.0667,390.9845,493.9333,392.0925,503.8,391.8312,513.6667,391.809,523.5333,391.486,533.4,391.0538,543.2667,391.1704,553.1333,391.4692,563,391.6992,562.7535,391.6992,563.1115,402.19,562.4544,412.6809,562.862,423.1717,562.5409,433.6625,563.3591,444.1533,563.3625,454.6441,562.7753,465.135,563.0502,475.6258,562.7633,486.1166,563,496.6074,563,497.2627,553.1333,496.0615,543.2667,496.2849,533.4,496.2208,523.5333,497.3413,513.6667,496.603,503.8,496.8971,493.9333,495.8743,484.0667,497.1935,474.2,497.1611,464.3333,497.3198,454.4667,496.9535,444.6,496.5363,434.7333,496.8904,424.8667,496.5209,415,496.6074,414.5456,496.6074,414.5993,486.1166,415.7178,475.6258,414.768,465.135,415.4519,454.6441,415.3463,444.1533,415.5257,433.6625,415.017,423.1717,414.9527,412.6809,414.8477,402.19,415,391.6992" style="stroke: #A80036; stroke-width: 1.5;"/><text fill="#000000" font-family="sans-serif" font-size="12" lengthAdjust="spacingAndGlyphs" textLength="119" x="429.5" y="408.3008">ContentFoldersTable</text><path d="M416,415.832 L416,416.5186 L425.7333,414.8566 L435.4667,415.3488 L445.2,416.7744 L454.9333,416.6345 L464.6667,416.0281 L474.4,415.8998 L484.1333,415.6801 L493.8667,415.3871 L503.6,415.7849 L513.3333,414.8464 L523.0667,415.83 L532.8,416.2715 L542.5333,415.2617 L552.2667,415.7671 L562,415.832 " fill="#FEFECE" style="stroke: #A80036; stroke-width: 1.5;"/><path d="M416,423.832 L416,423.3111 L425.7333,424.7558 L435.4667,422.973 L445.2,424.0011 L454.9333,423.4282 L464.6667,424.4498 L474.4,424.7008 L484.1333,424.555 L493.8667,424.7456 L503.6,424.7364 L513.3333,423.4247 L523.0667,424.0161 L532.8,424.4748 L542.5333,423.0433 L552.2667,423.2395 L562,423.832 " fill="#FEFECE" style="stroke: #A80036; stroke-width: 1.5;"/><text fill="#000000" font-family="sans-serif" font-size="11" lengthAdjust="spacingAndGlyphs" textLength="117" x="421" y="438.4668">+getParentTemplate()</text><text fill="#000000" font-family="sans-serif" font-size="11" lengthAdjust="spacingAndGlyphs" textLength="136" x="421" y="451.4219">+getFolderTemplateList()</text><text fill="#000000" font-family="sans-serif" font-size="11" lengthAdjust="spacingAndGlyphs" textLength="85" x="421" y="464.377">+saveSiteRoot()</text><text fill="#000000" font-family="sans-serif" font-size="11" lengthAdjust="spacingAndGlyphs" textLength="126" x="421" y="477.332">+movePageTemplates()</text><text fill="#000000" font-family="sans-serif" font-size="11" lengthAdjust="spacingAndGlyphs" textLength="105" x="421" y="490.2871">+setBeforeRecord()</text><!--class SearchIndiceTable--><polygon fill="#FEFECE" filter="url(#fs8xdn3)" points="598.5,417.6992,598.5,417.7617,608.5909,416.9636,618.6818,417.085,628.7727,417.0917,638.8636,417.0106,648.9545,417.4918,659.0455,417.1539,669.1364,417.9145,679.2273,417.2989,689.3182,418.0756,699.4091,418.288,709.5,417.6992,709.2633,417.6992,709.3086,428.3168,710.1966,438.9344,709.4513,449.552,709.5012,460.1695,709.5,470.7871,709.5,470.5054,699.4091,471.3319,689.3182,470.3897,679.2273,470.9562,669.1364,471.0319,659.0455,470.954,648.9545,470.2599,638.8636,471.0471,628.7727,470.8353,618.6818,471.0664,608.5909,471.4149,598.5,470.7871,597.7605,470.7871,598.1702,460.1695,597.985,449.552,598.6494,438.9344,598.4597,428.3168,598.5,417.6992" style="stroke: #A80036; stroke-width: 1.5;"/><text fill="#000000" font-family="sans-serif" font-size="12" lengthAdjust="spacingAndGlyphs" textLength="105" x="601.5" y="434.3008">SearchIndiceTable</text><path d="M599.5,441.832 L599.5,441.5488 L609.4091,441.4701 L619.3182,442.689 L629.2273,441.9946 L639.1364,442.8186 L649.0455,441.3252 L658.9545,441.1132 L668.8636,440.9282 L678.7727,441.4339 L688.6818,441.0337 L698.5909,442.7716 L708.5,441.832 " fill="#FEFECE" style="stroke: #A80036; stroke-width: 1.5;"/><path d="M599.5,449.832 L599.5,450.1853 L609.4091,449.4548 L619.3182,449.2322 L629.2273,449.0559 L639.1364,449.0876 L649.0455,449.5922 L658.9545,450.4849 L668.8636,450.0289 L678.7727,449.2074 L688.6818,449.9315 L698.5909,450.0018 L708.5,449.832 " fill="#FEFECE" style="stroke: #A80036; stroke-width: 1.5;"/><text fill="#000000" font-family="sans-serif" font-size="11" lengthAdjust="spacingAndGlyphs" textLength="80" x="604.5" y="464.4668">+reconstruct()</text><!--class ContentFolder--><polygon fill="#FEFECE" filter="url(#fs8xdn3)" points="209.5,563.1992,209.5,562.8781,219.0455,563.2204,228.5909,563.3677,238.1364,563.6515,247.6818,562.487,257.2273,563.2974,266.7727,563.7892,276.3182,563.8995,285.8636,562.4763,295.4091,563.1719,304.9545,562.6794,314.5,563.1992,314.6408,563.1992,314.3718,573.69,313.8945,584.1809,314.449,594.6717,313.8456,605.1625,314.2567,615.6533,313.7639,626.1441,314.4768,636.635,313.8777,647.1258,314.1308,657.6166,314.5,668.1074,314.5,668.4842,304.9545,667.6104,295.4091,667.7834,285.8636,668.748,276.3182,668.1168,266.7727,668.5267,257.2273,667.6263,247.6818,667.5329,238.1364,668.3267,228.5909,668.5522,219.0455,667.9292,209.5,668.1074,209.7807,668.1074,209.4352,657.6166,209.2577,647.1258,209.159,636.635,210.0938,626.1441,210.1143,615.6533,209.7981,605.1625,209.8058,594.6717,209.2624,584.1809,208.9676,573.69,209.5,563.1992" style="stroke: #A80036; stroke-width: 1.5;"/><text fill="#000000" font-family="sans-serif" font-size="12" lengthAdjust="spacingAndGlyphs" textLength="80" x="222" y="579.8008">ContentFolder</text><path d="M210.5,587.332 L210.5,587.7836 L220.8,587.0156 L231.1,586.9821 L241.4,587.3255 L251.7,588.3144 L262,586.8769 L272.3,586.8838 L282.6,587.0983 L292.9,588.3288 L303.2,586.8399 L313.5,587.332 " fill="#FEFECE" style="stroke: #A80036; stroke-width: 1.5;"/><text fill="#000000" font-family="sans-serif" font-size="11" lengthAdjust="spacingAndGlyphs" textLength="19" x="215.5" y="601.9668">+id</text><text fill="#000000" font-family="sans-serif" font-size="11" lengthAdjust="spacingAndGlyphs" textLength="93" x="215.5" y="614.9219">+folder_template</text><text fill="#000000" font-family="sans-serif" font-size="11" lengthAdjust="spacingAndGlyphs" textLength="87" x="215.5" y="627.877">+page_template</text><text fill="#000000" font-family="sans-serif" font-size="11" lengthAdjust="spacingAndGlyphs" textLength="49" x="215.5" y="640.832">+created</text><text fill="#000000" font-family="sans-serif" font-size="11" lengthAdjust="spacingAndGlyphs" textLength="56" x="215.5" y="653.7871">+modified</text><path d="M210.5,660.1074 L210.5,659.8542 L220.8,659.6015 L231.1,659.2757 L241.4,660.4314 L251.7,660.2304 L262,660.9215 L272.3,659.4293 L282.6,660.4185 L292.9,660.7598 L303.2,659.5555 L313.5,660.1074 " fill="#FEFECE" style="stroke: #A80036; stroke-width: 1.5;"/><!--class BcContentsBehavior--><polygon fill="#FEFECE" filter="url(#fs8xdn3)" points="262,385.1992,262,384.5052,271.8333,385.0842,281.6667,385.7472,291.5,385.7399,301.3333,385.5526,311.1667,385.2668,321,384.649,330.8333,384.6506,340.6667,384.4538,350.5,385.2308,360.3333,385.4876,370.1667,385.249,380,385.1992,379.3731,385.1992,379.827,395.0212,379.7688,404.8431,379.7978,414.665,380.4049,424.487,379.2805,434.3089,379.4909,444.1309,379.6593,453.9528,380.5324,463.7747,379.7853,473.5967,380.3278,483.4186,380.6561,493.2406,380,503.0625,380,502.5649,370.1667,502.3158,360.3333,502.7024,350.5,502.6687,340.6667,503.4157,330.8333,502.4938,321,502.7586,311.1667,502.931,301.3333,503.5871,291.5,502.9691,281.6667,502.7474,271.8333,502.9232,262,503.0625,261.736,503.0625,261.513,493.2406,262.108,483.4186,262.0743,473.5967,262.3026,463.7747,262.0038,453.9528,262.6455,444.1309,261.2835,434.3089,262.495,424.487,262.2725,414.665,261.2691,404.8431,261.634,395.0212,262,385.1992" style="stroke: #A80036; stroke-width: 1.5;"/><text fill="#000000" font-family="sans-serif" font-size="12" lengthAdjust="spacingAndGlyphs" textLength="112" x="265" y="401.8008">BcContentsBehavior</text><path d="M263,409.332 L263,410.151 L272.6667,409.4534 L282.3333,408.6117 L292,409.0674 L301.6667,410.2241 L311.3333,409.0398 L321,408.4704 L330.6667,408.5735 L340.3333,409.1858 L350,409.9314 L359.6667,410.0017 L369.3333,409.468 L379,409.332 " fill="#FEFECE" style="stroke: #A80036; stroke-width: 1.5;"/><path d="M263,417.332 L263,416.4189 L272.6667,417.8743 L282.3333,418.2387 L292,417.4867 L301.6667,417.0674 L311.3333,416.8241 L321,416.4234 L330.6667,417.9631 L340.3333,417.4818 L350,416.7661 L359.6667,416.8958 L369.3333,417.3075 L379,417.332 " fill="#FEFECE" style="stroke: #A80036; stroke-width: 1.5;"/><text fill="#000000" font-family="sans-serif" font-size="11" lengthAdjust="spacingAndGlyphs" textLength="61" x="268" y="431.9668">+initialize()</text><text fill="#000000" font-family="sans-serif" font-size="11" lengthAdjust="spacingAndGlyphs" textLength="94" x="268" y="444.9219">+beforeMarshal()</text><text fill="#000000" font-family="sans-serif" font-size="11" lengthAdjust="spacingAndGlyphs" textLength="66" x="268" y="457.877">+afterSave()</text><text fill="#000000" font-family="sans-serif" font-size="11" lengthAdjust="spacingAndGlyphs" textLength="85" x="268" y="470.832">+beforeDelete()</text><text fill="#000000" font-family="sans-serif" font-size="11" lengthAdjust="spacingAndGlyphs" textLength="75" x="268" y="483.7871">+afterDelete()</text><text fill="#000000" font-family="sans-serif" font-size="11" lengthAdjust="spacingAndGlyphs" textLength="90" x="268" y="496.7422">+findPublished()</text><!--class ContentsTable--><polygon fill="#FEFECE" filter="url(#fs8xdn3)" points="99,385.1992,99,385.3183,108.8462,385.4135,118.6923,384.4505,128.5385,384.7434,138.3846,384.9323,148.2308,385.8026,158.0769,385.0518,167.9231,385.4841,177.7692,385.0654,187.6154,385.0777,197.4615,384.9556,207.3077,384.4969,217.1538,385.7599,227,385.1992,226.514,385.1992,227.7094,395.0212,227.4541,404.8431,226.9035,414.665,227.3462,424.487,226.8323,434.3089,226.8622,444.1309,226.9593,453.9528,226.3709,463.7747,226.4503,473.5967,226.7459,483.4186,227.215,493.2406,227,503.0625,227,502.773,217.1538,502.6754,207.3077,502.77,197.4615,502.4873,187.6154,502.8467,177.7692,502.793,167.9231,503.6045,158.0769,502.8513,148.2308,503.1771,138.3846,502.3585,128.5385,503.0579,118.6923,503.1361,108.8462,503.4374,99,503.0625,99.1046,503.0625,99.5993,493.2406,99.6083,483.4186,98.7153,473.5967,99.2075,463.7747,98.4647,453.9528,99.0476,444.1309,98.6038,434.3089,99.5593,424.487,99.1943,414.665,99.3978,404.8431,99.3868,395.0212,99,385.1992" style="stroke: #A80036; stroke-width: 1.5;"/><text fill="#000000" font-family="sans-serif" font-size="12" lengthAdjust="spacingAndGlyphs" textLength="83" x="121.5" y="401.8008">ContentsTable</text><path d="M100,409.332 L100,409.8984 L109.6923,409.799 L119.3846,409.3884 L129.0769,409.3321 L138.7692,410.1515 L148.4615,409.6308 L158.1538,409.8512 L167.8462,408.349 L177.5385,408.6758 L187.2308,409.9509 L196.9231,409.7128 L206.6154,409.9266 L216.3077,408.8031 L226,409.332 " fill="#FEFECE" style="stroke: #A80036; stroke-width: 1.5;"/><text fill="#000000" font-family="sans-serif" font-size="11" lengthAdjust="spacingAndGlyphs" textLength="96" x="105" y="423.9668">+updatingRelated</text><path d="M100,430.2871 L100,430.2279 L109.6923,430.2928 L119.3846,429.4009 L129.0769,429.6363 L138.7692,430.5418 L148.4615,430.8543 L158.1538,429.3573 L167.8462,430.7764 L177.5385,429.9352 L187.2308,429.574 L196.9231,430.8984 L206.6154,429.7293 L216.3077,430.6521 L226,430.2871 " fill="#FEFECE" style="stroke: #A80036; stroke-width: 1.5;"/><text fill="#000000" font-family="sans-serif" font-size="11" lengthAdjust="spacingAndGlyphs" textLength="116" x="105" y="444.9219">+updateChildrenUrl()</text><text fill="#000000" font-family="sans-serif" font-size="11" lengthAdjust="spacingAndGlyphs" textLength="57" x="105" y="457.877">+getPath()</text><text fill="#000000" font-family="sans-serif" font-size="11" lengthAdjust="spacingAndGlyphs" textLength="93" x="105" y="470.832">+createContent()</text><text fill="#000000" font-family="sans-serif" font-size="11" lengthAdjust="spacingAndGlyphs" textLength="71" x="105" y="483.7871">+softDelete()</text><text fill="#000000" font-family="sans-serif" font-size="11" lengthAdjust="spacingAndGlyphs" textLength="109" x="105" y="496.7422">+removeFromTree()</text><!--class Content--><polygon fill="#FEFECE" filter="url(#fs8xdn3)" points="6,417.6992,6,417.6028,15.6667,417.9824,25.3333,418.4276,35,417.8038,44.6667,417.1829,54.3333,418.4243,64,417.6992,64.5485,417.6992,64.3922,428.3168,64.5229,438.9344,64.6078,449.552,64.2269,460.1695,64,470.7871,64,471.1566,54.3333,471.0759,44.6667,471.1015,35,470.3693,25.3333,471.4486,15.6667,471.3226,6,470.7871,6.5986,470.7871,5.7291,460.1695,5.3408,449.552,6.3905,438.9344,5.5302,428.3168,6,417.6992" style="stroke: #A80036; stroke-width: 1.5;"/><text fill="#000000" font-family="sans-serif" font-size="12" lengthAdjust="spacingAndGlyphs" textLength="44" x="13" y="434.3008">Content</text><path d="M7,441.832 L7,441.2572 L16.3333,442.2347 L25.6667,442.7794 L35,441.8287 L44.3333,441.3645 L53.6667,442.5415 L63,441.832 " fill="#FEFECE" style="stroke: #A80036; stroke-width: 1.5;"/><text fill="#000000" font-family="sans-serif" font-size="11" lengthAdjust="spacingAndGlyphs" textLength="46" x="12" y="456.4668">entity_id</text><path d="M7,462.7871 L7,462.2468 L16.3333,463.2873 L25.6667,463.4747 L35,461.9312 L44.3333,463.3975 L53.6667,462.6735 L63,462.7871 " fill="#FEFECE" style="stroke: #A80036; stroke-width: 1.5;"/><path d="M363.92,101.1992 L363.92,101.4853 L369.81,101.0976 L375.7,101.1606 L381.59,101.0357 L387.48,101.1566 L393.37,101.1992 " fill="none" style="stroke: #000000; stroke-width: 1.0;"/><polygon fill="#000000" points="358.79,101.1992,358.7855,101.1892,360.6868,102.2171,362.4499,102.934,364.1577,103.5265,366.0286,104.486,367.79,105.1992,367.9397,105.349,367.0015,104.4107,366.2002,103.6094,365.4622,102.8714,364.5732,101.9824,363.79,101.1992,363.8112,101.2204,364.6291,100.4383,365.2592,99.4684,366.1794,98.7886,366.9536,97.9628,367.79,97.1992,367.8704,97.3802,365.9181,97.8374,364.2684,98.9757,362.3664,99.5461,360.5445,100.2969,358.79,101.1992" style="stroke: #000000; stroke-width: 1.0;"/><path d="M489,160.3192 L489.6596,160.3192 L489.2256,169.9859 L488.8573,179.6526 L489.7543,189.3192 L488.5286,198.9859 L488.7879,208.6526 L489.8431,218.3192 L488.2014,227.9859 L489.2501,237.6526 L489,247.3192 " fill="none" style="stroke: #000000; stroke-width: 1.0;"/><polygon fill="#000000" points="489,252.5892,488.8759,252.534,489.8085,250.793,490.8153,249.0849,491.5891,247.2733,492.3724,245.4659,493,243.5892,492.9079,243.4971,492.2492,244.4384,491.497,245.2863,490.7066,246.0958,489.943,246.9322,489,247.5892,488.9624,247.5516,488.3624,246.9516,487.5038,246.093,486.5484,245.1377,485.8519,244.4411,485,243.5892,484.9946,243.5868,485.8492,245.4111,486.4521,247.1235,487.192,248.8968,488.1324,250.7592,489,252.5892" style="stroke: #000000; stroke-width: 1.0;"/><path d="M560.92,279.1992 L560.92,278.8665 L566.772,279.3741 L572.624,278.9714 L578.476,279.3857 L584.328,279.4128 L590.18,279.1992 " fill="none" style="stroke: #000000; stroke-width: 1.0;"/><polygon fill="#000000" points="555.81,279.1992,555.8067,279.1918,557.5266,279.8115,559.4265,280.8364,561.123,281.4034,563.0244,282.4317,564.81,283.1992,564.9178,283.307,564.1638,282.553,563.1436,281.5329,562.5604,280.9496,561.4669,279.8562,560.81,279.1992,560.6937,279.0829,561.5059,278.2951,562.4379,277.6271,563.2811,276.8703,564.0596,276.0488,564.81,275.1992,564.8416,275.2703,563.081,276.1591,561.1969,276.7698,559.4379,277.6619,557.6375,278.461,555.81,279.1992" style="stroke: #000000; stroke-width: 1.0;"/><path d="M407.53,279.1992 L407.53,279.1439 L410.478,279.512 L413.426,279.2404 L416.374,279.2573 L419.322,279.2328 L422.27,279.1992 " fill="none" style="stroke: #000000; stroke-width: 1.0; stroke-dasharray: 1.0,3.0;"/><polygon fill="none" points="407.32,286.1992,407.3024,286.1489,403.2501,284.5994,399.2627,283.2355,395.3373,282.0487,391.358,280.7078,387.32,279.1992,387.3897,279.3984,391.394,278.0106,395.3336,276.4381,399.267,274.8477,403.2875,273.5062,407.32,272.1992,407.147,272.1992,407.1322,274.9992,407.1359,277.7992,407.2517,280.5992,407.5006,283.3992,407.32,286.1992" style="stroke: #000000; stroke-width: 1.0;"/><path d="M489,306.0292 L489.3682,306.0292 L489.6055,316.0817 L488.3975,326.1342 L488.6514,336.1867 L489.7407,346.2392 L489.4824,356.2917 L488.2871,366.3442 L489.3141,376.3967 L489,386.4492 " fill="none" style="stroke: #000000; stroke-width: 1.0;"/><polygon fill="#000000" points="489,391.5092,488.7863,391.4142,489.8021,389.7101,490.6922,387.9502,491.5715,386.1854,492.0086,384.2242,493,382.5092,492.9552,382.4644,492.1837,383.2929,491.5096,384.2188,490.5336,384.8429,489.6898,385.599,489,386.5092,489.0331,386.5423,488.3513,385.8605,487.4372,384.9465,486.4875,383.9967,485.767,383.2763,485,382.5092,485.1808,382.5896,485.952,384.3768,486.3996,386.0201,487.1745,387.809,488.1932,389.7062,489,391.5092" style="stroke: #000000; stroke-width: 1.0;"/><path d="M563.12,444.1992 L563.12,444.2728 L569.106,444.2552 L575.092,444.5207 L581.078,444.0895 L587.064,444.31 L593.05,444.1992 " fill="none" style="stroke: #000000; stroke-width: 1.0;"/><polygon fill="#000000" points="598.27,444.1992,598.2555,444.1666,596.4336,443.3173,594.5846,442.4071,592.7863,441.611,591.0392,440.93,589.27,440.1992,589.4386,440.3678,590.0458,440.975,590.8864,441.8156,591.613,442.5422,592.5992,443.5284,593.27,444.1992,593.0972,444.0264,592.3858,444.915,591.8163,445.9455,590.9587,446.6879,590.2342,447.5634,589.27,448.1992,589.1687,447.9712,591.0769,447.4148,592.8892,446.6425,594.7317,445.938,596.5216,445.1154,598.27,444.1992" style="stroke: #000000; stroke-width: 1.0;"/><path d="M385.24,444.1992 L385.24,444.3774 L391.184,444.0736 L397.128,444.1031 L403.072,444.5 L409.016,444.4664 L414.96,444.1992 " fill="none" style="stroke: #000000; stroke-width: 1.0;"/><polygon fill="#000000" points="380.06,444.1992,380.0914,444.2698,381.8128,444.8931,383.5818,445.6233,385.451,446.5789,387.1649,447.1852,389.06,448.1992,388.9413,448.0805,388.3522,447.4914,387.4144,446.5536,386.6636,445.8028,385.7912,444.9304,385.06,444.1992,384.9079,444.0471,385.8784,443.4176,386.4971,442.4363,387.4324,441.7716,388.2459,440.9851,389.06,440.1992,389.1564,440.4161,387.1689,440.7942,385.4287,441.7287,383.679,442.6419,381.8917,443.4705,380.06,444.1992" style="stroke: #000000; stroke-width: 1.0;"/><path d="M218.48,381.6192 L218.3073,381.399 L220.3069,379.8279 L222.5361,378.5495 L224.4794,376.9065 L226.625,375.5216 L228.4855,373.773 L228.315,373.5225 L230.6559,372.4265 L232.6092,370.761 L234.7719,369.4033 L236.9427,368.0573 L239.0338,366.5942 L238.9282,366.4087 L241.3694,365.5692 L243.4228,364.048 L245.697,362.9148 L247.7862,361.4565 L250.0602,360.323 L250.1854,360.6025 L252.4443,359.5128 L254.5462,358.0727 L257.0543,357.5396 L259.2292,356.2623 L261.5,355.1992 L261.4815,355.1477 L264.8302,353.7261 L268.2739,352.5696 L271.7876,351.608 L275.1881,350.3311 L278.5945,349.0703 L278.6858,349.3907 L281.5304,347.9601 L284.6846,347.6157 L287.6383,346.5677 L290.7075,345.9249 L293.6344,344.7831 L293.6121,344.6609 L296.3317,344.0751 L299.0957,343.733 L301.8182,343.1636 L304.5375,342.5761 L307.3121,342.2925 L307.328,342.5712 L309.9163,342.19 L312.5095,341.896 L315.1218,341.9364 L317.7021,341.4136 L320.32,341.553 L320.3225,341.5861 L322.9367,341.8892 L325.5545,342.2405 L328.1536,342.3401 L330.7369,342.2255 L333.3504,342.5192 L333.2912,342.2094 L336.1147,343.1247 L338.7991,343.3117 L341.6064,344.1418 L344.377,344.78 L347.0956,345.1459 L347.0606,345.021 L350.1609,346.1185 L353.0931,346.616 L356.2531,347.9269 L359.2965,348.8213 L362.248,349.3877 L362.2927,349.5203 L365.7939,350.8333 L369.1124,351.6042 L372.5191,352.6369 L376.1545,354.3483 L379.5,355.1992 L379.441,355.0618 L382.6617,356.4754 L386.0149,358.1973 L389.2014,359.5312 L392.2256,360.487 L395.5233,362.0798 L395.5271,362.0866 L398.6939,363.9875 L401.541,365.3243 L404.7999,367.3877 L407.7477,368.9021 L410.9138,370.8017 L410.9071,370.792 L413.7603,372.7118 L416.6,374.6118 L419.5929,376.7344 L422.4942,378.724 L425.4773,380.8323 L425.3811,380.7117 L428.2067,383.0199 L430.7621,384.9893 L433.5731,387.2791 L436.2403,389.3886 L439.02,391.6392 " fill="none" style="stroke: #000000; stroke-width: 1.0;"/><polygon fill="#000000" points="214.52,384.9992,214.524,385.0125,216.4456,384.5634,218.2674,383.7803,220.136,383.1536,222.1093,382.8773,223.9565,382.1791,223.9384,381.9437,222.8422,382.2712,221.6817,381.7625,220.5706,381.8966,219.4626,382.0694,218.3163,381.7453,218.193,381.7358,218.2139,380.6027,218.6862,379.5043,218.8166,378.3796,218.6436,377.2316,218.7501,376.1051,218.8542,376.1546,218.0673,377.9615,217.0672,379.667,216.3365,381.5008,215.5805,383.3224,214.52,384.9992" style="stroke: #000000; stroke-width: 1.0;"/><path d="M419.97,496.7492 L419.8539,496.5937 L411.8184,502.0444 L403.9745,507.7515 L396.5673,514.0436 L389.3252,520.5568 L380.7127,525.2345 L372.8366,530.8986 L365.887,537.8035 L357.7125,543.068 L349.489,548.2667 L342.4031,554.9891 L334.9131,561.1703 L326.6585,566.3274 L318.93,572.1892 " fill="none" style="stroke: #000000; stroke-width: 1.0;"/><polygon fill="#000000" points="314.85,575.2392,314.8274,575.1386,316.7713,574.8048,318.736,574.5636,320.6323,574.0182,322.5475,573.5566,324.4587,573.0776,324.4771,573.2028,323.375,573.1554,322.2202,572.7497,321.0843,572.4728,320.0084,572.6041,318.862,572.2552,318.9162,572.2632,319.2103,571.1629,319.1725,570.0138,319.5317,568.9231,319.5269,567.7789,319.6843,566.6585,319.872,566.7642,318.5897,568.3027,317.6933,570.0585,316.7637,571.7956,315.7929,573.5096,314.85,575.2392" style="stroke: #000000; stroke-width: 1.0;"/><path d="M232.3,444.1992 L232.3,444.2314 L238.166,444.4495 L244.032,444.2378 L249.898,444.3062 L255.764,444.4676 L261.63,444.1992 " fill="none" style="stroke: #000000; stroke-width: 1.0;"/><polygon fill="#000000" points="227.19,444.1992,227.2453,444.3236,228.9884,444.9957,230.785,445.788,232.5624,446.5371,234.3414,447.2899,236.19,448.1992,236.3268,448.336,235.3722,447.3814,234.7547,446.7639,233.7561,445.7654,233.0273,445.0365,232.19,444.1992,232.1527,444.1619,232.9611,443.3703,233.7035,442.5127,234.4498,441.659,235.5034,441.1126,236.19,440.1992,236.1771,440.1703,234.3488,440.9065,232.5645,441.7418,230.7693,442.5527,228.9804,443.3775,227.19,444.1992" style="stroke: #000000; stroke-width: 1.0;"/><path d="M69.17,444.1992 L69.17,444.2678 L75.096,444.4322 L81.022,444.4004 L86.948,444.0527 L92.874,443.963 L98.8,444.1992 " fill="none" style="stroke: #000000; stroke-width: 1.0;"/><polygon fill="#000000" points="64,444.1992,63.9087,443.9939,65.8783,445.1755,67.535,445.653,69.4094,446.6204,71.271,447.5589,73,448.1992,72.8369,448.0362,72.2783,447.4775,71.3139,446.5131,70.7114,445.9106,69.9128,445.112,69,444.1992,69.1451,444.3443,69.8786,443.4778,70.5529,442.5521,71.4257,441.8249,72.0919,440.8911,73,440.1992,72.9945,440.1869,71.1522,440.8917,69.4356,441.8793,67.5392,442.4624,65.76,443.3091,64,444.1992" style="stroke: #000000; stroke-width: 1.0;"/><path d="M204.69,586.1292 L204.6572,586.0697 L201.7272,584.4234 L198.8522,582.877 L196.0758,581.5094 L193.1765,579.9189 L190.1647,578.1242 L190.1342,578.0711 L187.0721,576.314 L184.0352,574.6008 L181.0328,572.9477 L177.7617,570.827 L174.8447,569.3225 L174.9599,569.5139 L171.6046,567.2989 L168.5334,565.556 L165.3629,563.6481 L162.2766,561.88 L158.9936,559.7851 L158.9054,559.6459 L155.7111,557.6499 L152.5247,555.6664 L149.3245,553.6611 L145.9866,551.4385 L142.875,549.573 L142.9152,549.6328 L139.694,547.4726 L136.4928,545.3421 L133.3133,543.2439 L130.0588,541.034 L126.7527,538.7473 L126.7004,538.6743 L123.4179,536.2453 L120.4612,534.2705 L117.3947,532.1426 L114.1647,529.7868 L110.8903,527.3691 L110.798,527.2497 L107.7551,524.9079 L104.8842,522.7884 L101.7717,520.3566 L98.6242,517.8796 L95.5515,515.4994 L95.542,515.4881 L92.6677,513.0707 L89.642,510.4742 L86.6302,507.894 L84.125,505.9132 L81,503.1992 L80.8778,503.0718 L79.3003,501.5584 L77.9239,500.2546 L76.3235,498.7172 L74.7116,497.1679 L73.1348,495.6552 L72.9031,495.4424 L71.5293,493.9244 L70.3777,492.6102 L68.7023,490.8152 L66.9816,488.9787 L65.6362,487.4867 L65.8039,487.6262 L64.0609,485.6589 L62.7173,484.0239 L61.2443,482.2813 L60.1238,480.832 L58.642,479.082 L58.6016,479.0509 L57.199,477.2986 L56.36,475.9801 L54.6195,473.9677 L53.659,472.5557 L52.29,470.8292 " fill="none" style="stroke: #000000; stroke-width: 1.0;"/><polygon fill="#000000" points="209.2,588.5492,209.1702,588.526,208.0996,587.0819,206.6255,585.3232,205.4646,583.8087,204.2641,582.2633,203.1451,580.7815,203.3151,580.8331,203.5943,581.9005,203.8764,582.9689,204.2345,584.0603,204.3984,585.0927,204.7894,586.1941,204.7965,586.2175,203.6898,586.4667,202.6641,586.9826,201.5181,587.1023,200.4224,587.3879,199.3768,587.8384,199.3629,587.6465,201.3234,587.7316,203.3236,588.3653,205.2626,588.1532,207.2524,588.6428,209.2,588.5492" style="stroke: #000000; stroke-width: 1.0;"/></g></svg>