<?xml version="1.0" encoding="UTF-8" standalone="no"?><svg xmlns="http://www.w3.org/2000/svg" xmlns:xlink="http://www.w3.org/1999/xlink" contentScriptType="application/ecmascript" contentStyleType="text/css" height="499px" preserveAspectRatio="none" style="width:626px;height:499px;" version="1.1" viewBox="0 0 626 499" width="626px" zoomAndPan="magnify"><defs><filter height="300%" id="feb2fk0" width="300%" x="-1" y="-1"><feGaussianBlur result="blurOut" stdDeviation="2.0"/><feColorMatrix in="blurOut" result="blurOut2" type="matrix" values="0 0 0 0 0 0 0 0 0 0 0 0 0 0 0 0 0 0 .4 0"/><feOffset dx="4.0" dy="4.0" in="blurOut2" result="blurOut3"/><feBlend in="SourceGraphic" in2="blurOut3" mode="normal"/></filter></defs><g><text fill="#000000" font-family="sans-serif" font-size="18" lengthAdjust="spacingAndGlyphs" textLength="126" x="254.5" y="17.4023">ユーティリティ</text><!--class Admin\UtilitiesController--><polygon fill="#FEFECE" filter="url(#feb2fk0)" points="122,29.1992,122,28.7053,132,28.4569,142,28.4879,152,28.5366,162,28.6471,172,29.429,182,29.8082,192,28.7623,202,28.6931,212,29.8534,222,29.6792,232,29.6395,242,29.1101,252,29.4535,262,29.2983,272,29.3052,282,29.2053,292,28.7339,302,28.5586,312,28.9876,322,28.5158,332,28.9823,342,29.9479,352,28.6927,362,28.7957,372,28.6187,382,28.4915,392,29.0763,402,28.8921,412,28.6538,422,28.9767,432,29.8997,442,29.9476,452,29.6212,462,28.9575,472,28.5409,482,29.1635,492,29.1992,491.3253,29.1992,491.8021,38.9948,492.2445,48.7903,492.4148,58.5858,491.8997,68.3813,491.6081,78.1769,491.9139,87.9724,491.6049,97.7679,491.8179,107.5635,491.9925,117.359,491.6333,127.1545,492.1258,136.9501,492.3892,146.7456,491.8144,156.5411,491.9647,166.3367,491.8714,176.1322,492,185.9277,492,185.2126,482,186.6148,472,185.7381,462,185.774,452,186.3234,442,185.7287,432,186.2903,422,185.5395,412,185.5015,402,186.2939,392,185.5658,382,185.3175,372,186.1629,362,186.4945,352,185.9264,342,186.1949,332,186.5305,322,185.4375,312,185.5138,302,185.2481,292,185.18,282,186.3677,272,185.8882,262,185.7404,252,186.509,242,185.9169,232,185.3428,222,186.3262,212,185.2873,202,186.3535,192,186.3829,182,185.9326,172,186.0642,162,186.1961,152,185.1997,142,186.1821,132,185.3992,122,185.9277,121.7369,185.9277,121.7114,176.1322,121.9309,166.3367,122.7293,156.5411,121.8158,146.7456,121.7372,136.9501,122.5926,127.1545,121.5299,117.359,122.7182,107.5635,122.7143,97.7679,121.4783,87.9724,121.3702,78.1769,122.2518,68.3813,122.4917,58.5858,122.3629,48.7903,121.4442,38.9948,122,29.1992" style="stroke: #A80036; stroke-width: 1.5;"/><text fill="#000000" font-family="sans-serif" font-size="12" lengthAdjust="spacingAndGlyphs" textLength="140" x="237" y="45.8008">Admin\UtilitiesController</text><path d="M123,53.332 L123,53.3368 L132.9459,53.0002 L142.8919,53.2908 L152.8378,52.3578 L162.7838,52.5068 L172.7297,53.1884 L182.6757,52.5996 L192.6216,53.8543 L202.5676,52.4906 L212.5135,52.494 L222.4595,52.4367 L232.4054,53.5741 L242.3514,52.5154 L252.2973,53.8294 L262.2432,52.7599 L272.1892,54.0684 L282.1351,53.8228 L292.0811,52.652 L302.027,53.0396 L311.973,52.4377 L321.9189,54.1189 L331.8649,53.6172 L341.8108,54.2278 L351.7568,52.63 L361.7027,53.9525 L371.6486,52.647 L381.5946,54.2552 L391.5405,53.8859 L401.4865,53.0466 L411.4324,53.1199 L421.3784,53.0375 L431.3243,52.5169 L441.2703,54.0009 L451.2162,53.7043 L461.1622,53.0754 L471.1081,52.4773 L481.0541,53.106 L491,53.332 " fill="#FEFECE" style="stroke: #A80036; stroke-width: 1.5;"/><path d="M123,61.332 L123,60.5996 L132.9459,61.7827 L142.8919,61.9127 L152.8378,61.2763 L162.7838,60.6393 L172.7297,61.6547 L182.6757,62.0174 L192.6216,62.3074 L202.5676,61.8312 L212.5135,62.3119 L222.4595,61.1281 L232.4054,60.8051 L242.3514,60.4707 L252.2973,62.3101 L262.2432,61.0087 L272.1892,62.2059 L282.1351,60.9618 L292.0811,60.4045 L302.027,61.749 L311.973,62.3268 L321.9189,61.9151 L331.8649,61.6849 L341.8108,60.6036 L351.7568,61.8285 L361.7027,61.9661 L371.6486,61.6719 L381.5946,60.44 L391.5405,61.8699 L401.4865,61.0665 L411.4324,61.0706 L421.3784,61.2419 L431.3243,61.0531 L441.2703,61.7513 L451.2162,61.4222 L461.1622,61.3347 L471.1081,60.5258 L481.0541,62.0662 L491,61.332 " fill="#FEFECE" style="stroke: #A80036; stroke-width: 1.5;"/><text fill="#000000" font-family="sans-serif" font-size="11" lengthAdjust="spacingAndGlyphs" textLength="223" x="128" y="75.9668">+ユーティリティトップを表示する：index()</text><text fill="#000000" font-family="sans-serif" font-size="11" lengthAdjust="spacingAndGlyphs" textLength="245" x="128" y="88.9219">+サーバーキャッシュを削除する：clear_cache()</text><text fill="#000000" font-family="sans-serif" font-size="11" lengthAdjust="spacingAndGlyphs" textLength="358" x="128" y="101.877">+コンテンツ管理のツリー構造をチェックする：verity_contents_tree()</text><text fill="#000000" font-family="sans-serif" font-size="11" lengthAdjust="spacingAndGlyphs" textLength="355" x="128" y="114.832">+コンテンツ管理のツリー構造をリセットする：reset_contents_tree()</text><text fill="#000000" font-family="sans-serif" font-size="11" lengthAdjust="spacingAndGlyphs" textLength="148" x="128" y="127.7871">+環境情報を表示する：info()</text><text fill="#000000" font-family="sans-serif" font-size="11" lengthAdjust="spacingAndGlyphs" textLength="195" x="128" y="140.7422">+データメンテナンス：maintenance()</text><text fill="#000000" font-family="sans-serif" font-size="11" lengthAdjust="spacingAndGlyphs" textLength="207" x="128" y="153.6973">+ログメンテナンス：log_maintenance()</text><text fill="#000000" font-family="sans-serif" font-size="11" lengthAdjust="spacingAndGlyphs" textLength="211" x="128" y="166.6523">+スキーマファイル生成：write_schema()</text><text fill="#000000" font-family="sans-serif" font-size="11" lengthAdjust="spacingAndGlyphs" textLength="208" x="128" y="179.6074">+スキーマファイル読込：load_schema()</text><!--class UtilitiesService--><polygon fill="#FEFECE" filter="url(#feb2fk0)" points="193.5,246.1992,193.5,246.2333,203.1667,246.4378,212.8333,246.5551,222.5,246.3012,232.1667,245.7514,241.8333,245.5307,251.5,245.6038,261.1667,246.0004,270.8333,245.7601,280.5,246.1992,280.5133,246.1992,280.4044,254.2258,280.6869,262.2523,280.288,270.2789,280.4145,278.3055,280.5,286.332,280.5,287.0764,270.8333,286.3064,261.1667,287.0551,251.5,286.5324,241.8333,286.9947,232.1667,286.6438,222.5,285.7487,212.8333,286.9564,203.1667,286.4942,193.5,286.332,193.2999,286.332,193.4151,278.3055,193.719,270.2789,193.6839,262.2523,193.6879,254.2258,193.5,246.1992" style="stroke: #A80036; stroke-width: 1.5;"/><text fill="#000000" font-family="sans-serif" font-size="12" lengthAdjust="spacingAndGlyphs" textLength="81" x="196.5" y="262.8008">UtilitiesService</text><path d="M194.5,270.332 L194.5,269.9916 L203.9444,270.1262 L213.3889,269.8561 L222.8333,270.7626 L232.2778,271.1409 L241.7222,270.1396 L251.1667,270.8476 L260.6111,270.8272 L270.0556,270.3304 L279.5,270.332 " fill="#FEFECE" style="stroke: #A80036; stroke-width: 1.5;"/><path d="M194.5,278.332 L194.5,278.7806 L203.9444,277.4014 L213.3889,278.3968 L222.8333,278.4844 L232.2778,277.8464 L241.7222,279.0775 L251.1667,279.0015 L260.6111,278.8393 L270.0556,278.2057 L279.5,278.332 " fill="#FEFECE" style="stroke: #A80036; stroke-width: 1.5;"/><!--class UtilitiesServiceInterface--><polygon fill="#FEFECE" filter="url(#feb2fk0)" points="6,346.1992,6,345.7756,16,345.7709,26,345.5056,36,345.7679,46,346.913,56,346.7761,66,346.6463,76,346.83,86,346.2566,96,346.876,106,346.1235,116,346.5877,126,346.1087,136,345.477,146,345.5438,156,346.4702,166,346.1227,176,345.8066,186,346.0249,196,345.9712,206,346.546,216,345.7364,226,346.8483,236,345.9606,246,346.2627,256,346.2341,266,345.5307,276,345.5541,286,346.1992,285.5643,346.1992,286.7492,356.4688,286.6241,366.7383,286.501,377.0078,286.6012,387.2773,286.18,397.5469,286.1263,407.8164,285.4926,418.0859,286.6277,428.3555,286.1711,438.625,285.8255,448.8945,286.7467,459.1641,286.6622,469.4336,286.0655,479.7031,286,489.9727,286,490.4295,276,489.8734,266,490.4355,256,489.776,246,489.5825,236,490.0379,226,489.3147,216,489.4766,206,490.4685,196,489.9083,186,490.0805,176,489.6395,166,490.2014,156,489.3853,146,489.4395,136,490.521,126,489.8408,116,489.3712,106,489.2572,96,489.9883,86,490.2878,76,490.5141,66,490.3301,56,489.2327,46,490.4283,36,490.347,26,490.2876,16,490.1269,6,489.9727,6.1938,489.9727,6.5543,479.7031,5.9357,469.4336,5.2717,459.1641,6.2272,448.8945,5.7392,438.625,5.533,428.3555,6.6474,418.0859,6.5723,407.8164,5.5553,397.5469,6.6355,387.2773,5.7486,377.0078,5.4608,366.7383,6.5964,356.4688,6,346.1992" style="stroke: #A80036; stroke-width: 1.5;"/><text fill="#000000" font-family="sans-serif" font-size="12" lengthAdjust="spacingAndGlyphs" textLength="131" x="80.5" y="362.8008">UtilitiesServiceInterface</text><path d="M7,370.332 L7,369.6213 L16.9286,370.786 L26.8571,370.0568 L36.7857,370.2881 L46.7143,369.9406 L56.6429,370.3034 L66.5714,370.1375 L76.5,370.3668 L86.4286,369.9225 L96.3571,370.6405 L106.2857,370.2766 L116.2143,369.952 L126.1429,369.8301 L136.0714,369.5871 L146,371.1858 L155.9286,370.542 L165.8571,370.8444 L175.7857,370.8092 L185.7143,370.795 L195.6429,371.128 L205.5714,370.9184 L215.5,370.7832 L225.4286,370.2737 L235.3571,371.2653 L245.2857,369.944 L255.2143,369.6589 L265.1429,369.9314 L275.0714,370.7182 L285,370.332 " fill="#FEFECE" style="stroke: #A80036; stroke-width: 1.5;"/><path d="M7,378.332 L7,378.3929 L16.9286,377.9121 L26.8571,378.7699 L36.7857,377.9199 L46.7143,378.7961 L56.6429,377.7657 L66.5714,378.375 L76.5,379.0787 L86.4286,377.5623 L96.3571,377.9245 L106.2857,378.6982 L116.2143,378.7939 L126.1429,377.715 L136.0714,378.1625 L146,378.0691 L155.9286,377.5083 L165.8571,379.1379 L175.7857,378.7392 L185.7143,378.5151 L195.6429,379.0311 L205.5714,377.8741 L215.5,378.4944 L225.4286,378.1319 L235.3571,378.706 L245.2857,377.908 L255.2143,378.7798 L265.1429,378.8589 L275.0714,377.5774 L285,378.332 " fill="#FEFECE" style="stroke: #A80036; stroke-width: 1.5;"/><text fill="#000000" font-family="sans-serif" font-size="11" lengthAdjust="spacingAndGlyphs" textLength="230" x="12" y="392.9668">+ツリー構造チェック：verityContentsTree()</text><text fill="#000000" font-family="sans-serif" font-size="11" lengthAdjust="spacingAndGlyphs" textLength="221" x="12" y="405.9219">+ツリー構造リセット：resetContentTree()</text><text fill="#000000" font-family="sans-serif" font-size="11" lengthAdjust="spacingAndGlyphs" textLength="170" x="12" y="418.877">+バックアップ作成：backupDb()</text><text fill="#000000" font-family="sans-serif" font-size="11" lengthAdjust="spacingAndGlyphs" textLength="214" x="12" y="431.832">+バックアップよりレストア：restoreDb()</text><text fill="#000000" font-family="sans-serif" font-size="11" lengthAdjust="spacingAndGlyphs" textLength="268" x="12" y="444.7871">+ログファイルのZIPファイルを作成：createLogZip()</text><text fill="#000000" font-family="sans-serif" font-size="11" lengthAdjust="spacingAndGlyphs" textLength="179" x="12" y="457.7422">+ログファイルを削除：deleteLog()</text><text fill="#000000" font-family="sans-serif" font-size="11" lengthAdjust="spacingAndGlyphs" textLength="199" x="12" y="470.6973">+スキーマファイル生成：writeSheme()</text><text fill="#000000" font-family="sans-serif" font-size="11" lengthAdjust="spacingAndGlyphs" textLength="202" x="12" y="483.6523">+スキーマファイル読込：loadSchema()</text><!--class UtilitiesAdminService--><polygon fill="#FEFECE" filter="url(#feb2fk0)" points="361,246.1992,361,245.7176,371.3333,246.0528,381.6667,246.3668,392,246.0451,402.3333,245.5174,412.6667,246.5597,423,246.5196,433.3333,246.5521,443.6667,245.8279,454,246.5733,464.3333,245.8938,474.6667,245.6982,485,246.1992,485.119,246.1992,485.0154,254.2258,484.9923,262.2523,484.9116,270.2789,485.1079,278.3055,485,286.332,485,286.7513,474.6667,286.7574,464.3333,286.5276,454,287.0743,443.6667,286.6274,433.3333,287.0091,423,287.051,412.6667,286.1362,402.3333,286.4879,392,286.6078,381.6667,286.2307,371.3333,285.9146,361,286.332,361.2255,286.332,361.0483,278.3055,361.0587,270.2789,361.0742,262.2523,360.773,254.2258,361,246.1992" style="stroke: #A80036; stroke-width: 1.5;"/><text fill="#000000" font-family="sans-serif" font-size="12" lengthAdjust="spacingAndGlyphs" textLength="118" x="364" y="262.8008">UtilitiesAdminService</text><path d="M362,270.332 L362,269.3419 L372.1667,270.0154 L382.3333,269.4331 L392.5,270.6611 L402.6667,271.3293 L412.8333,270.397 L423,269.7879 L433.1667,270.8662 L443.3333,269.8585 L453.5,271.1345 L463.6667,270.5072 L473.8333,270.9901 L484,270.332 " fill="#FEFECE" style="stroke: #A80036; stroke-width: 1.5;"/><path d="M362,278.332 L362,277.3999 L372.1667,278.8307 L382.3333,277.5636 L392.5,278.9086 L402.6667,278.2539 L412.8333,277.4573 L423,277.8687 L433.1667,277.9969 L443.3333,278.4006 L453.5,278.3254 L463.6667,279.1518 L473.8333,277.7016 L484,278.332 " fill="#FEFECE" style="stroke: #A80036; stroke-width: 1.5;"/><!--class UtilitiesAdminServiceInterface--><polygon fill="#FEFECE" filter="url(#feb2fk0)" points="321,391.6992,321,391.7734,330.8667,390.9837,340.7333,392.2658,350.6,391.2541,360.4667,392.2982,370.3333,392.2978,380.2,391.9362,390.0667,391.6695,399.9333,392.0761,409.8,391.2954,419.6667,391.0162,429.5333,391.2863,439.4,392.3107,449.2667,392.0365,459.1333,391.7018,469,390.9774,478.8667,392.2395,488.7333,391.3598,498.6,391.3527,508.4667,391.0565,518.3333,392.036,528.2,392.1201,538.0667,391.0076,547.9333,391.4622,557.8,391.5375,567.6667,391.1215,577.5333,391.3842,587.4,392.2557,597.2667,392.2251,607.1333,391.3872,617,391.6992,616.381,391.6992,616.7714,402.3168,616.5606,412.9344,617.5857,423.552,616.7816,434.1695,617,444.7871,617,445.2996,607.1333,444.8008,597.2667,444.578,587.4,444.4641,577.5333,445.1743,567.6667,445.495,557.8,444.3909,547.9333,445.0765,538.0667,444.6535,528.2,445.113,518.3333,444.5425,508.4667,445.0964,498.6,444.3012,488.7333,444.9206,478.8667,445.3163,469,444.4333,459.1333,445.4842,449.2667,444.0921,439.4,445.0853,429.5333,444.6919,419.6667,445.1675,409.8,444.7226,399.9333,445.2135,390.0667,444.8971,380.2,444.2343,370.3333,445.1642,360.4667,445.2006,350.6,445.2012,340.7333,444.4171,330.8667,444.3194,321,444.7871,321.166,444.7871,320.4395,434.1695,320.628,423.552,321.701,412.9344,320.863,402.3168,321,391.6992" style="stroke: #A80036; stroke-width: 1.5;"/><text fill="#000000" font-family="sans-serif" font-size="12" lengthAdjust="spacingAndGlyphs" textLength="168" x="385" y="408.3008">UtilitiesAdminServiceInterface</text><path d="M322,415.832 L322,415.869 L332.1379,414.8894 L342.2759,415.1366 L352.4138,415.8984 L362.5517,416.4835 L372.6897,415.7097 L382.8276,416.5928 L392.9655,415.6029 L403.1034,415.7933 L413.2414,415.2312 L423.3793,416.7678 L433.5172,414.9484 L443.6552,415.5684 L453.7931,415.5841 L463.931,415.25 L474.069,415.3127 L484.2069,415.2719 L494.3448,414.9371 L504.4828,416.457 L514.6207,416.3282 L524.7586,415.7373 L534.8966,416.3583 L545.0345,415.9066 L555.1724,416.3519 L565.3103,416.0764 L575.4483,415.7144 L585.5862,415.1779 L595.7241,415.3393 L605.8621,415.5443 L616,415.832 " fill="#FEFECE" style="stroke: #A80036; stroke-width: 1.5;"/><path d="M322,423.832 L322,422.9411 L332.1379,422.9619 L342.2759,423.3984 L352.4138,424.4184 L362.5517,424.2625 L372.6897,423.6446 L382.8276,424.016 L392.9655,423.2071 L403.1034,424.6264 L413.2414,422.8515 L423.3793,424.104 L433.5172,423.7096 L443.6552,423.7418 L453.7931,423.2979 L463.931,423.6032 L474.069,424.5851 L484.2069,423.6694 L494.3448,424.1503 L504.4828,423.4137 L514.6207,424.1631 L524.7586,422.9089 L534.8966,422.8979 L545.0345,423.8862 L555.1724,424.2469 L565.3103,423.369 L575.4483,424.465 L585.5862,423.0132 L595.7241,424.6054 L605.8621,424.4719 L616,423.832 " fill="#FEFECE" style="stroke: #A80036; stroke-width: 1.5;"/><text fill="#000000" font-family="sans-serif" font-size="11" lengthAdjust="spacingAndGlyphs" textLength="284" x="327" y="438.4668">+info 画面用の view 変数を生成：getViewVarsForInfo()</text><path d="M272.21,186.4892 L272.332,186.5438 L268.0904,195.6217 L264.8587,205.1515 L259.1394,213.5682 L255.184,222.7742 L251.9825,232.3175 L247.66,241.3592 " fill="none" style="stroke: #000000; stroke-width: 1.0;"/><polygon fill="#000000" points="245.5,246.1892,245.4221,246.1023,246.9478,244.8533,248.4296,243.5553,249.803,242.1364,251.5108,241.0905,252.8315,239.6129,252.8574,239.6807,251.7941,240.0676,250.6476,240.2362,249.7287,241.002,248.6166,241.2609,247.5453,241.6267,247.6812,241.6784,247.0875,240.5485,246.7494,239.5158,246.2373,238.4169,245.7729,237.3362,245.5315,236.3404,245.4462,236.3401,245.5601,238.3103,245.3112,240.2793,245.7624,242.2505,245.4555,244.2193,245.5,246.1892" style="stroke: #000000; stroke-width: 1.0;"/><path d="M364.66,186.4892 L365.3607,187.0086 L370.994,194.7658 L375.8217,201.9259 L381.5774,209.7739 L387.4836,217.7334 L393.9708,226.1236 L400.5356,234.5713 L405.9,242.1292 " fill="none" style="stroke: #000000; stroke-width: 1.0;"/><polygon fill="#000000" points="408.91,246.1892,408.8683,246.18,408.4356,244.2548,407.8168,242.2885,407.4493,240.3776,407.3593,238.528,406.7868,236.5719,406.96,236.5981,406.7292,237.7074,406.4843,238.8147,406.1883,239.9142,406.3046,241.0759,405.9421,242.1654,405.9391,242.1457,404.8284,242.0296,403.6929,241.7492,402.5705,241.5556,401.4372,241.2903,400.3486,241.3207,400.329,241.2862,402.0295,242.2391,403.688,243.1182,405.5695,244.3895,407.2555,245.3172,408.91,246.1892" style="stroke: #000000; stroke-width: 1.0;"/><path d="M225.29,286.4992 L225.4999,286.6265 L219.5624,294.6116 L215.3431,303.6388 L209.9447,311.9509 L203.983,319.9212 L199.6,328.8492 " fill="none" style="stroke: #000000; stroke-width: 1.0; stroke-dasharray: 1.0,3.0;"/><polygon fill="none" points="205.55,332.5292,205.6072,332.5987,202.297,335.2463,198.9192,337.8118,195.697,340.5663,192.3334,343.149,189.19,345.9992,189.3512,346.0334,190.0898,341.8578,190.7994,337.6762,191.7157,333.5383,192.9206,329.4615,193.58,325.2692,193.5326,325.191,196.0953,326.9212,198.4953,328.3831,200.73,329.5724,203.2172,331.1781,205.55,332.5292" style="stroke: #000000; stroke-width: 1.0;"/><path d="M428.92,286.4992 L428.8724,286.4846 L431.9059,296.0365 L434.6326,305.4941 L437.4281,314.973 L440.3745,324.4981 L443.5097,334.0811 L446.9815,343.7674 L448.8289,352.9554 L453.1019,362.8874 L455.19,372.1492 " fill="none" style="stroke: #000000; stroke-width: 1.0; stroke-dasharray: 1.0,3.0;"/><polygon fill="none" points="461.93,370.2692,461.7772,370.2632,461.9833,374.5118,461.5366,378.7348,461.2671,382.9648,461.3782,387.2096,461.1,391.4392,461.2183,391.5263,458.7162,388.1196,455.8894,384.4739,453.4825,381.1373,450.9786,377.7292,448.54,374.3692,448.5163,374.292,451.2022,373.4976,453.9282,372.8345,456.5808,371.9314,459.2171,370.9753,461.93,370.2692" style="stroke: #000000; stroke-width: 1.0;"/></g></svg>