<?xml version="1.0" encoding="UTF-8" standalone="no"?><svg xmlns="http://www.w3.org/2000/svg" xmlns:xlink="http://www.w3.org/1999/xlink" contentScriptType="application/ecmascript" contentStyleType="text/css" height="402px" preserveAspectRatio="none" style="width:525px;height:402px;" version="1.1" viewBox="0 0 525 402" width="525px" zoomAndPan="magnify"><defs><filter height="300%" id="fsquwz8" width="300%" x="-1" y="-1"><feGaussianBlur result="blurOut" stdDeviation="2.0"/><feColorMatrix in="blurOut" result="blurOut2" type="matrix" values="0 0 0 0 0 0 0 0 0 0 0 0 0 0 0 0 0 0 .4 0"/><feOffset dx="4.0" dy="4.0" in="blurOut2" result="blurOut3"/><feBlend in="SourceGraphic" in2="blurOut3" mode="normal"/></filter></defs><g><text fill="#000000" font-family="sans-serif" font-size="18" lengthAdjust="spacingAndGlyphs" textLength="270" x="136" y="17.4023">ユースケース：コンテンツリンク</text><!--cluster コンテンツリンク--><polygon fill="#FFFFFF" filter="url(#fsquwz8)" points="134,45.1992,134,44.4803,143.8333,44.6414,153.6667,44.651,163.5,44.9733,173.3333,44.6169,183.1667,45.8139,193,45.1818,202.8333,45.6469,212.6667,45.3474,222.5,44.4616,232.3333,45.08,242.1667,45.1178,252,45.1992,252.0532,45.2158,253.3189,49.6716,254.7833,54.1893,256.03,58.6393,257.4904,63.1557,259,67.6875,259,67.4923,268.7059,68.3751,278.4118,67.6765,288.1176,67.2419,297.8235,68.4001,307.5294,67.4965,317.2353,67.215,326.9412,67.4726,336.6471,67.6045,346.3529,67.0614,356.0588,66.9414,365.7647,67.2417,375.4706,67.9327,385.1765,67.5563,394.8824,66.968,404.5882,67.091,414.2941,67.7743,424,67.6875,424.3382,67.6875,424.4116,77.6121,424.0294,87.5367,424.3212,97.4613,424.686,107.3859,424.4685,117.3105,424.5791,127.2351,424.0328,137.1597,423.7903,147.0843,423.5125,157.0089,423.6458,166.9335,424.2944,176.8581,423.6873,186.7827,424.69,196.7073,424.0277,206.6319,423.99,216.5565,424.2786,226.4811,423.5311,236.4057,423.985,246.3303,423.7911,256.2549,423.7858,266.1795,424.3369,276.104,424.2301,286.0286,423.4964,295.9532,424.0272,305.8778,423.3025,315.8024,424.7082,325.727,423.9949,335.6516,424.5183,345.5762,424.7376,355.5008,423.3871,365.4254,424.6133,375.35,423.407,385.2746,424,395.1992,424,395.8583,414,395.4491,404,394.7657,394,395.5346,384,395.3534,374,395.202,364,394.835,354,395.6847,344,394.9313,334,394.8435,324,395.7641,314,394.5044,304,395.109,294,395.7108,284,395.6734,274,395.9292,264,395.2047,254,395.9137,244,395.5654,234,395.3136,224,394.7458,214,395.191,204,395.213,194,394.7585,184,395.533,174,395.1749,164,395.8965,154,395.5764,144,395.2388,134,395.1992,134.6295,395.1992,134.3848,385.1992,134.068,375.1992,133.2645,365.1992,134.233,355.1992,134.0306,345.1992,134.386,335.1992,134.7161,325.1992,133.7251,315.1992,134.6985,305.1992,133.8691,295.1992,133.6243,285.1992,133.9762,275.1992,133.7074,265.1992,134.5644,255.1992,134.6577,245.1992,134.1587,235.1992,133.9313,225.1992,134.6289,215.1992,133.9605,205.1992,133.8001,195.1992,133.7844,185.1992,134.0076,175.1992,133.9836,165.1992,134.3545,155.1992,134.2637,145.1992,133.4892,135.1992,133.5484,125.1992,134.2047,115.1992,134.7231,105.1992,133.6184,95.1992,134.5411,85.1992,133.4105,75.1992,133.8059,65.1992,134.2016,55.1992,134,45.1992" style="stroke: #000000; stroke-width: 2.0;"/><path d="M134,67.6875 L134,67.425 L143.6154,66.6913 L153.2308,67.2415 L162.8462,66.9876 L172.4615,68.5606 L182.0769,67.9341 L191.6923,66.7092 L201.3077,68.2462 L210.9231,67.0991 L220.5385,67.2729 L230.1538,67.2415 L239.7692,68.6082 L249.3846,68.6315 L259,67.6875 " fill="#FFFFFF" style="stroke: #000000; stroke-width: 2.0;"/><text fill="#000000" font-family="sans-serif" font-size="14" font-weight="bold" lengthAdjust="spacingAndGlyphs" textLength="112" x="138" y="60.7344">コンテンツリンク</text><polygon fill="#FEFECE" filter="url(#fsquwz8)" points="379.8332,268.6176,376.0955,272.1311,371.3595,275.7849,364.0626,279.1141,350.9803,281.2764,338.3684,283.5438,323.8417,285.2584,310.8134,287.0604,296.9428,288.3109,280.3994,288.4942,261.2974,287.5402,245.5148,286.6802,233.5298,285.9552,219.0474,283.9114,205.8204,281.3576,193.9749,278.3121,187.204,275.6096,182.9208,272.7015,178.8176,269.1206,176.2885,265.2438,177.9033,261.7266,180.3127,257.9165,187.4875,254.8073,194.8149,251.485,204.8428,248.6405,219.9283,246.9255,232.5421,244.7837,246.8236,243.2616,264.0787,242.7669,279.1726,242.2599,294.296,242.3254,309.9354,243.1535,323.564,244.2455,341.2858,247.0127,351.7066,248.9398,361.2551,251.4723,369.5062,254.5055,375.9213,257.8897,381.9806,261.9074,380.0934,264.7979" style="stroke: #A80036; stroke-width: 1.5;"/><text fill="#000000" font-family="sans-serif" font-size="14" lengthAdjust="spacingAndGlyphs" textLength="182" x="187.9007" y="269.9235">コンテンツリンクを作成する</text><polygon fill="#FEFECE" filter="url(#fsquwz8)" points="381.0985,187.9002,377.6842,191.4859,368.727,194.197,361.6707,197.5799,352.8818,200.7011,341.0258,203.1373,326.5952,204.8733,310.293,205.9442,293.8572,206.6218,280.2965,207.4712,262.6879,206.8508,248.3476,206.3128,230.5042,204.2795,219.372,202.9839,205.5175,200.29,195.6333,197.6825,185.9226,194.3234,179.1296,190.8548,178.5837,188.0683,174.5881,183.8641,178.4504,180.8488,178.9968,176.6226,186.6941,173.6301,197.4198,171.0667,208.0849,168.3645,218.5407,165.6156,231.1687,163.477,248.8419,162.7124,261.7132,161.2386,277.1283,160.8034,293.3418,161.1123,312.2009,162.6594,326.0781,163.807,338.1899,165.3213,351.2753,167.8435,362.1101,170.6633,370.6809,173.7678,376.1954,176.9509,378.6262,180.1583,379.836,183.7404" style="stroke: #A80036; stroke-width: 1.5;"/><text fill="#000000" font-family="sans-serif" font-size="14" lengthAdjust="spacingAndGlyphs" textLength="182" x="187.9007" y="188.9235">コンテンツリンクを編集する</text><polygon fill="#FEFECE" filter="url(#fsquwz8)" points="379.8677,106.6253,378.649,110.7013,370.6651,113.6298,361.8247,116.6143,350.8131,119.2391,339.3548,121.7641,326.9645,123.9558,312.3454,125.4025,296.0193,126.1047,279.7672,126.353,262.351,125.7755,247.4396,125.11,233.9256,124.0436,217.4146,121.5468,206.3707,119.4805,193.8674,116.2881,186.058,113.3536,179.6202,109.9644,176.9472,106.7029,174.4027,102.8226,178.9692,99.9646,181.2225,96.1197,188.9344,93.1305,196.0441,89.7595,206.3407,86.975,217.1291,84.3004,231.4226,82.5337,246.7143,81.2372,263.2018,80.5711,278.6445,80.142,296.5432,80.8272,312.5814,81.7444,323.7956,82.2972,339.3647,84.5837,350.3078,86.6274,362.3747,89.7224,370.5513,92.7389,378.6391,96.4966,381.4872,99.7972,383.5996,103.5809" style="stroke: #A80036; stroke-width: 1.5;"/><text fill="#000000" font-family="sans-serif" font-size="14" lengthAdjust="spacingAndGlyphs" textLength="182" x="187.9007" y="107.9235">コンテンツリンクを削除する</text><polygon fill="#FEFECE" filter="url(#fsquwz8)" points="406.8246,355.9137,403.7832,360.5823,391.578,363.6931,385.5301,368.4534,372.2726,371.7911,353.4064,373.9026,338.823,376.7969,318.1975,378.0669,297.8652,378.9555,278.9718,379.5816,258.0073,379.061,241.2978,378.6764,221.5399,376.7508,201.5462,373.8402,189.475,371.692,176.6528,368.3981,164.5254,364.2867,154.6821,359.741,150.3276,355.5207,151.6318,351.7434,149.8997,346.6082,157.3698,342.9078,164.8282,338.7592,175.4525,334.9994,189.3237,331.7959,204.7144,328.9246,220.4634,326.2851,239.383,324.6421,258.5276,323.4939,277.5125,322.8878,299.4843,323.6287,317.1724,324.2272,335.777,325.9006,356.2867,328.9241,368.1633,331.0297,385.035,335.2089,392.5516,338.3123,399.5641,342.2391,404.2958,346.5419,408.145,351.4459" style="stroke: #A80036; stroke-width: 1.5;"/><text fill="#000000" font-family="sans-serif" font-size="14" lengthAdjust="spacingAndGlyphs" textLength="238" x="159.9371" y="356.1308">フロントページでリンク先に移動する</text><!--entity 閲覧ユーザー--><polygon fill="#FEFECE" filter="url(#fsquwz8)" points="55.8076,321.8535,55.0052,323.7813,53.424,324.9431,51.955,326.493,49.7143,327.776,47.7116,327.1958,45.682,327.4244,43.7383,326.7,42.1472,324.8952,40.6369,322.6722,40.3016,321.2993,39.9082,319.1291,39.8135,317.4687,41.5053,315.4232,42.6737,313.086,45.5403,312.6067,46.7913,311.4384,49.3691,312.2061,51.3038,312.8989,53.1328,313.0117,54.3779,315.5727,55.95,316.805,55.5919,318.8984,56.0946,320.6038" style="stroke: #A80036; stroke-width: 2.0;"/><path d="M48,327.6992 L48.1592,327.6992 L47.634,333.0992 L47.4427,338.4992 L47.8999,343.8992 L47.4448,349.2992 L48,354.6992 M35,335.6992 L35,335.2307 L40.2,335.2167 L45.4,336.3506 L50.6,336.0941 L55.8,335.808 L61,335.6992 M48,354.6992 L48.4377,355.0785 L45.059,357.4037 L42.7229,360.6324 L40.6861,364.1205 L37.9299,366.9851 L35,369.6992 M48,354.6992 L48.4956,355.1287 L50.7713,357.8477 L53.3351,360.8163 L55.3184,363.2819 L57.9371,366.298 L61,369.6992 " fill="#FEFECE" style="stroke: #A80036; stroke-width: 2.0;"/><text fill="#000000" font-family="sans-serif" font-size="14" lengthAdjust="spacingAndGlyphs" textLength="84" x="6" y="390.2344">閲覧ユーザー</text><!--entity ユーザー--><polygon fill="#FEFECE" filter="url(#fsquwz8)" points="503.7859,155.1797,502.9352,156.5982,502.2017,158.3532,500.4813,159.6651,498.0926,160.2997,496.5934,160.4397,493.9518,160.4804,491.7727,159.6268,490.135,157.8209,488.3693,155.8497,488.2854,153.9573,488.2676,151.9741,488.214,150.4752,488.8033,148.3458,490.287,147.0917,492.3007,145.8998,494.172,144.7815,496.0262,144.6366,498.6421,145.212,500.7903,146.5675,502.1156,147.4902,503.8485,149.7409,503.7977,151.4233,504.154,153.5333" style="stroke: #A80036; stroke-width: 2.0;"/><path d="M496,160.6992 L496.2201,160.6992 L496.2164,166.0992 L496.6042,171.4992 L495.67,176.8992 L495.5616,182.2992 L496,187.6992 M483,168.6992 L483,168.835 L488.2,168.7839 L493.4,169.1403 L498.6,168.938 L503.8,168.1325 L509,168.6992 M496,187.6992 L495.9556,187.6607 L493.1993,190.5253 L491.2222,194.0651 L488.0361,196.5571 L485.4823,199.5972 L483,202.6992 M496,187.6992 L495.5135,187.2776 L498.2018,190.3541 L501.6375,194.0784 L504.0307,196.8991 L506.1603,199.4915 L509,202.6992 " fill="#FEFECE" style="stroke: #A80036; stroke-width: 2.0;"/><text fill="#000000" font-family="sans-serif" font-size="14" lengthAdjust="spacingAndGlyphs" textLength="56" x="468" y="223.2344">ユーザー</text><path d="M360.38,248.3592 L360.4458,248.5955 L364.0627,247.6768 L367.516,246.1712 L371.0963,245.1213 L374.6992,244.1523 L378.3488,243.3509 L378.3102,243.2275 L381.9994,242.2274 L385.7219,241.3342 L389.3609,240.1735 L392.9567,238.8742 L396.58,237.663 L396.645,237.8468 L400.1052,236.155 L403.8544,235.2804 L407.3015,233.5515 L410.9476,232.3855 L414.6163,231.2831 L414.5796,231.1932 L418.1818,230.0843 L421.6015,228.5274 L424.9851,226.8821 L428.6404,225.9034 L432,224.1992 L431.9292,224.0513 L433.7849,223.1614 L435.7231,222.444 L437.4924,221.3737 L439.5167,220.8363 L441.2822,219.758 L441.3383,219.8611 L443.1092,218.7299 L444.9043,217.6433 L446.6889,216.5373 L448.5334,215.5413 L450.4875,214.7467 L450.427,214.6457 L452.2085,213.5791 L454.1732,212.8187 L455.8593,211.5929 L457.5036,210.297 L459.3966,209.4167 L459.3397,209.3282 L461.2457,208.6022 L462.6615,207.114 L464.6089,206.4523 L466.0738,205.0404 L467.79,204.0192 " fill="none" style="stroke: #A80036; stroke-width: 1.0;"/><polygon fill="#A80036" points="355.37,249.6592,355.3305,249.4199,357.2731,249.7352,359.2513,250.2661,361.1769,250.4785,363.1428,250.9347,365.0875,251.2626,365.0107,251.1317,364.0975,250.6658,363.1784,250.1897,362.1496,249.5265,361.1386,248.8939,360.2087,248.3994,360.3507,248.4828,360.7907,247.4292,361.201,246.3582,361.9751,245.5007,362.5151,244.5058,363.0718,243.5207,362.9305,243.3433,361.4631,244.6625,360.0342,246.0302,358.5163,247.286,357.019,248.5678,355.37,249.6592" style="stroke: #A80036; stroke-width: 1.0;"/><path d="M387.34,184.1992 L387.34,184.0826 L397.4125,184.8827 L407.485,184.224 L417.5575,183.4381 L427.63,185.1059 L437.7025,183.2403 L447.775,184.2219 L457.8475,183.4117 L467.92,184.1992 " fill="none" style="stroke: #A80036; stroke-width: 1.0;"/><polygon fill="#A80036" points="382.15,184.1992,382.1922,184.2941,383.9431,184.9838,385.8211,185.9591,387.5616,186.6254,389.2876,187.2589,391.15,188.1992,391.1084,188.1576,390.3845,187.4337,389.4945,186.5438,388.6317,185.681,388.1247,185.1739,387.15,184.1992,387.1743,184.2235,387.9027,183.352,388.8495,182.6988,389.5606,181.8099,390.3516,181.0008,391.15,180.1992,391.1,180.0867,389.3685,181.0409,387.449,181.5719,385.8187,182.7539,383.8847,183.2523,382.15,184.1992" style="stroke: #A80036; stroke-width: 1.0;"/><path d="M361.92,119.6492 L361.9404,119.7235 L365.4321,120.5653 L368.9407,121.4692 L372.496,122.5426 L376.0717,123.6899 L379.5539,124.4975 L379.5988,124.6424 L383.1205,125.5955 L386.6931,126.7128 L390.1636,127.5006 L393.8296,128.9192 L397.3988,130.0255 L397.4278,130.1076 L400.9189,131.2568 L404.4532,132.5284 L408.0507,133.979 L411.5544,135.1638 L415.0242,136.2528 L415.0632,136.348 L418.2984,137.3465 L421.8945,139.2268 L425.1754,140.3369 L428.6292,141.8696 L432,143.1992 L431.9435,143.0825 L433.9939,144.3664 L435.6813,144.8997 L437.6587,146.0327 L439.4247,146.7285 L441.3298,147.712 L441.221,147.5157 L443.1106,148.6167 L445.0337,149.7782 L446.7833,150.6267 L448.8477,152.0433 L450.5613,152.8267 L450.607,152.9014 L452.4518,154.0926 L453.9983,154.7961 L455.9018,156.0832 L457.5703,156.9862 L459.4795,158.2827 L459.4325,158.2114 L461.046,159.2209 L462.7613,160.3845 L464.6169,161.7609 L466.2267,162.7646 L467.87,163.8192 " fill="none" style="stroke: #A80036; stroke-width: 1.0;"/><polygon fill="#A80036" points="357.01,118.3992,356.9664,118.3439,358.4885,119.5289,360.1181,120.8506,361.7791,122.2124,363.2543,123.3378,364.7501,124.4895,364.663,124.4376,364.2474,123.5626,363.6289,122.5667,362.9417,121.53,362.606,120.7026,361.8565,119.6287,361.798,119.5305,362.923,119.2085,363.6739,118.2581,364.8865,118.0833,365.6899,117.2212,366.7173,116.7351,366.7446,116.8947,364.8116,117.2769,362.8502,117.4934,360.8977,117.7614,358.9393,117.9958,357.01,118.3992" style="stroke: #A80036; stroke-width: 1.0;"/><path d="M90.21,351.1992 L90.21,351.253 L101.118,351.6128 L112.026,352.054 L122.934,350.342 L133.842,351.1624 L144.75,351.1992 " fill="none" style="stroke: #A80036; stroke-width: 1.0;"/><polygon fill="#A80036" points="149.79,351.1992,149.7853,351.1887,147.9359,350.2776,146.1864,349.5911,144.419,348.8644,142.5913,348.0022,140.79,347.1992,140.6855,347.0947,141.5575,347.9667,142.2638,348.673,143.0459,349.4552,143.9018,350.311,144.79,351.1992,144.652,351.0612,144.1059,352.1151,143.328,352.9372,142.5156,353.7248,141.7559,354.5652,140.79,355.1992,140.7727,355.1602,142.6037,354.4299,144.4272,353.6829,146.1289,352.6617,147.9233,351.8491,149.79,351.1992" style="stroke: #A80036; stroke-width: 1.0;"/></g></svg>