<?xml version="1.0" encoding="UTF-8" standalone="no"?><svg xmlns="http://www.w3.org/2000/svg" xmlns:xlink="http://www.w3.org/1999/xlink" contentScriptType="application/ecmascript" contentStyleType="text/css" height="876px" preserveAspectRatio="none" style="width:763px;height:876px;" version="1.1" viewBox="0 0 763 876" width="763px" zoomAndPan="magnify"><defs><filter height="300%" id="fj067w1" width="300%" x="-1" y="-1"><feGaussianBlur result="blurOut" stdDeviation="2.0"/><feColorMatrix in="blurOut" result="blurOut2" type="matrix" values="0 0 0 0 0 0 0 0 0 0 0 0 0 0 0 0 0 0 .4 0"/><feOffset dx="4.0" dy="4.0" in="blurOut2" result="blurOut3"/><feBlend in="SourceGraphic" in2="blurOut3" mode="normal"/></filter></defs><g><text fill="#000000" font-family="sans-serif" font-size="18" lengthAdjust="spacingAndGlyphs" textLength="288" x="251" y="17.4023">ユースケース：カスタムコンテンツ</text><!--cluster カスタムコンテンツ--><polygon fill="#FFFFFF" filter="url(#fj067w1)" points="106,45.1992,106,45.4765,116.1538,45.215,126.3077,45.6582,136.4615,45.35,146.6154,44.6861,156.7692,45.0756,166.9231,45.0707,177.0769,45.3882,187.2308,45.6977,197.3846,45.8013,207.5385,45.4492,217.6923,45.6674,227.8462,44.7484,238,45.1992,238.1657,45.2508,239.4736,49.7198,240.9143,54.2301,242.1186,58.6669,243.6917,63.2184,245,67.6875,245,68.2984,255.0196,67.304,265.0392,67.2628,275.0588,67.1654,285.0784,67.9486,295.098,67.9337,305.1176,67.7076,315.1373,68.1177,325.1569,67.573,335.1765,68.227,345.1961,68.2282,355.2157,68.1709,365.2353,67.6521,375.2549,68.0287,385.2745,67.8229,395.2941,67.0934,405.3137,67.6264,415.3333,68.415,425.3529,67.4639,435.3725,67.671,445.3922,68.133,455.4118,67.7595,465.4314,67.2461,475.451,67.5042,485.4706,67.9668,495.4902,68.1796,505.5098,68.4008,515.5294,67.6198,525.549,68.3605,535.5686,68.066,545.5882,66.9844,555.6078,67.0007,565.6275,68.1875,575.6471,67.3172,585.6667,67.5319,595.6863,68.0966,605.7059,67.275,615.7255,67.5178,625.7451,68.2792,635.7647,67.7848,645.7843,68.1764,655.8039,67.1245,665.8235,67.1954,675.8431,67.113,685.8627,67.9947,695.8824,67.2487,705.902,68.0337,715.9216,67.4708,725.9412,67.1655,735.9608,67.3528,745.9804,67.9066,756,67.6875,755.9171,67.6875,755.3195,77.7064,756.423,87.7253,755.8249,97.7442,755.4247,107.7631,756.6298,117.782,756.6289,127.8009,755.4052,137.8198,755.5388,147.8387,756.1678,157.8576,755.3813,167.8765,755.2935,177.8954,755.6387,187.9143,756.4825,197.9332,755.302,207.9521,756.5216,217.9709,756.0069,227.9898,755.2676,238.0087,755.3053,248.0276,756.3874,258.0465,756.3838,268.0654,756.7029,278.0843,755.3702,288.1032,756.1523,298.1221,756.3584,308.141,756.6131,318.1599,755.4277,328.1788,756.1265,338.1977,756.0742,348.2166,755.7165,358.2355,755.3227,368.2544,755.8245,378.2733,755.6214,388.2922,756.2569,398.3111,755.3723,408.33,756.6173,418.3489,755.8351,428.3678,755.4155,438.3867,756.2983,448.4056,756.3893,458.4245,755.5142,468.4434,755.5747,478.4623,755.7783,488.4812,755.6075,498.5,756.3332,508.5189,756.2634,518.5378,756.0243,528.5567,755.4481,538.5756,756.4201,548.5945,755.4484,558.6134,756.1687,568.6323,756.1843,578.6512,756.7367,588.6701,755.7466,598.689,756.3089,608.7079,755.9275,618.7268,756.0041,628.7457,756.6281,638.7646,756.3394,648.7835,755.5339,658.8024,755.9878,668.8213,755.7431,678.8402,755.6773,688.8591,756.0319,698.878,756.4676,708.8969,756.6576,718.9158,756.6704,728.9347,756.3,738.9536,756.1946,748.9725,755.5063,758.9914,755.3632,769.0103,756.4266,779.0292,756.0595,789.048,755.8722,799.0669,755.3819,809.0858,756.7115,819.1047,755.5722,829.1236,756.0871,839.1425,755.4937,849.1614,755.6308,859.1803,756,869.1992,756,868.7871,746,869.3046,736,868.5879,726,869.4656,716,868.6914,706,869.8385,696,868.6299,686,869.9222,676,869.5008,666,869.5621,656,868.7247,646,869.5899,636,869.5189,626,868.8823,616,868.5554,606,868.7871,596,869.8348,586,868.5484,576,869.2453,566,869.3114,556,868.5463,546,869.7216,536,869.015,526,868.7578,516,869.6386,506,868.555,496,868.6187,486,869.1143,476,868.4525,466,869.3376,456,869.2551,446,868.6308,436,869.1318,426,868.8464,416,868.7744,406,868.7662,396,869.847,386,869.7061,376,869.3193,366,869.6588,356,868.9565,346,869.3026,336,869.5707,326,868.533,316,869.0788,306,869.1116,296,868.4898,286,868.7481,276,869.8196,266,868.7026,256,868.8884,246,869.3227,236,868.6171,226,868.6532,216,868.788,206,869.2153,196,869.8447,186,868.6599,176,869.3722,166,869.925,156,869.4358,146,868.7677,136,869.3717,126,869.5822,116,869.3785,106,869.1992,106.6444,869.1992,105.2749,859.1504,106.4372,849.1017,105.2592,839.0529,106.0149,829.0041,105.5921,818.9553,105.3114,808.9065,105.4198,798.8578,106.0462,788.809,106.3718,778.7602,105.9882,768.7114,105.5447,758.6626,105.895,748.6139,105.9955,738.5651,106.4081,728.5163,105.3629,718.4675,106.6779,708.4187,105.8585,698.37,105.3146,688.3212,106.0234,678.2724,105.9056,668.2236,105.4914,658.1748,106.2528,648.126,105.6837,638.0773,105.7099,628.0285,106.743,617.9797,105.3364,607.9309,106.2112,597.8821,105.6455,587.8334,106.5129,577.7846,105.6276,567.7358,106.2993,557.687,106.1833,547.6382,105.3922,537.5895,105.5387,527.5407,105.4621,517.4919,106.4247,507.4431,106.1403,497.3943,105.5515,487.3456,105.4805,477.2968,105.5585,467.248,105.7056,457.1992,105.2674,447.1504,105.9384,437.1017,105.6474,427.0529,105.9743,417.0041,106.3487,406.9553,106.5072,396.9065,105.4827,386.8578,106.6149,376.809,105.7829,366.7602,105.6056,356.7114,105.9663,346.6626,105.2702,336.6139,106.6039,326.5651,105.4869,316.5163,105.7864,306.4675,105.9379,296.4187,106.7366,286.37,106.1852,276.3212,106.5309,266.2724,106.6723,256.2236,105.983,246.1748,106.0793,236.126,105.3451,226.0773,106.2339,216.0285,105.3622,205.9797,106.6196,195.9309,106.2764,185.8821,106.5108,175.8334,106.5231,165.7846,105.9979,155.7358,106.5639,145.687,106.4389,135.6382,106.2966,125.5895,106.2326,115.5407,105.3261,105.4919,105.7492,95.4431,106.6207,85.3943,106.281,75.3456,106.3712,65.2968,106.1791,55.248,106,45.1992" style="stroke: #000000; stroke-width: 2.0;"/><path d="M106,67.6875 L106,67.7847 L115.9286,66.876 L125.8571,68.626 L135.7857,66.7479 L145.7143,67.1143 L155.6429,66.9571 L165.5714,67.3295 L175.5,67.4049 L185.4286,67.6205 L195.3571,67.8232 L205.2857,68.5939 L215.2143,67.7053 L225.1429,67.8637 L235.0714,68.1074 L245,67.6875 " fill="#FFFFFF" style="stroke: #000000; stroke-width: 2.0;"/><text fill="#000000" font-family="sans-serif" font-size="14" font-weight="bold" lengthAdjust="spacingAndGlyphs" textLength="126" x="110" y="60.7344">カスタムコンテンツ</text><polygon fill="#FEFECE" filter="url(#fj067w1)" points="244.4241,451.1573,243.1978,453.6591,239.1703,455.7254,234.5553,457.8104,226.4351,459.1388,219.5417,460.7601,210.7129,461.8389,203.3753,463.1147,193.4381,463.5363,184.9184,463.9941,175.0592,463.7683,165.4342,463.1824,155.8666,462.1519,148.2943,461.1088,140.0434,459.3956,132.9835,457.4525,127.8215,455.4546,124.3439,453.3699,122.5437,451.2274,122.8625,449.1749,123.9414,446.9402,124.4146,444.2586,128.3689,442.1747,134.4651,440.4435,140.499,438.6169,148.0144,437.144,155.1184,435.6534,164.6045,434.8906,173.5676,434.2364,184.4527,434.3435,194.4507,434.6024,201.9223,434.6741,211.7848,435.775,220.2367,437.0282,227.1457,438.421,233.6506,440.2315,239.2447,442.3326,242.5367,444.373,245.6146,446.8206,244.5396,448.6925" style="stroke: #A80036; stroke-width: 1.5;"/><text fill="#000000" font-family="sans-serif" font-size="14" lengthAdjust="spacingAndGlyphs" textLength="84" x="141.8485" y="453.7131">新規追加する</text><polygon fill="#FEFECE" filter="url(#fj067w1)" points="225.9285,516.5678,224.7392,518.9322,221.9522,520.9785,218.957,523.111,213.4292,524.4518,209.7944,526.444,203.8537,527.5628,197.0216,528.2171,190.6966,528.8143,184.1725,529.0428,177.5581,528.8793,170.3234,528.0894,165.0796,527.5298,158.8622,526.1497,154.2574,524.8203,149.2023,522.8255,146.4337,521.1133,142.8516,518.6357,141.6,516.5053,141.75,514.4442,141.6395,511.9326,144.2004,510.0401,146.8435,507.9442,149.7279,505.7737,153.5636,503.8506,158.2998,502.2374,164.3259,501.148,171.5691,500.6351,176.9992,499.73,184.5,499.8376,190.5223,499.7973,197.126,500.3701,203.2066,501.2176,209.4398,502.6032,213.9552,503.9019,219.3063,505.9985,221.5456,507.5285,225.2112,510.0349,226.9032,512.3168,226.2128,514.1919" style="stroke: #A80036; stroke-width: 1.5;"/><text fill="#000000" font-family="sans-serif" font-size="14" lengthAdjust="spacingAndGlyphs" textLength="56" x="156.098" y="519.1023">編集する</text><polygon fill="#FEFECE" filter="url(#fj067w1)" points="226.9046,580.9036,224.228,582.7563,221.5203,584.8299,217.8075,586.7154,213.3953,588.4401,209.3533,590.2922,203.8912,591.5757,196.6362,592.0845,191.0868,592.9486,183.87,592.9387,177.2283,592.7658,170.4866,592.1456,164.6602,591.3855,159.6771,590.4301,153.8222,588.6705,150.2968,587.2021,145.5827,584.8205,143.4472,582.8407,141.7902,580.5707,141.804,578.4628,141.6334,575.9305,144.2809,574.0678,146.2107,571.7265,149.3161,569.6319,154.5229,568.1807,158.4708,566.2962,165.2005,565.4489,171.4402,564.5907,177.0975,563.7638,183.4603,563.4798,190.1895,563.6828,197.8043,564.6035,203.7855,565.4169,209.0664,566.4747,213.6452,567.7952,219.3407,570.0104,222.3518,571.806,225.1765,574.0229,225.869,575.9609,225.8524,578.0679" style="stroke: #A80036; stroke-width: 1.5;"/><text fill="#000000" font-family="sans-serif" font-size="14" lengthAdjust="spacingAndGlyphs" textLength="56" x="156.098" y="583.1023">削除する</text><polygon fill="#FEFECE" filter="url(#fj067w1)" points="235.6699,644.6014,233.3508,646.7276,230.9908,649.074,226.0998,650.8715,220.7675,652.6256,214.1766,654.0282,208.1966,655.5216,201.0637,656.5353,191.3832,656.6059,184.3991,657.1293,175.0567,656.6333,167.6441,656.2632,160.5172,655.518,153.4337,654.2995,146.9958,652.7571,141.7564,651.0388,137.8939,649.2009,133.1695,646.6368,131.9344,644.5922,131.324,642.3091,132.421,640.1417,133.1933,637.5837,136.9439,635.6255,141.1839,633.6463,146.8857,631.9954,153.3206,630.5492,160.7042,629.4478,168.6038,628.6482,176.4722,628.0716,184.1287,627.7359,191.9183,627.7983,199.3572,628.1757,207.6092,629.2351,214.1513,630.3024,221.8431,632.195,225.6054,633.5008,230.5715,635.6469,233.5717,637.7295,235.255,639.8993,236.5216,642.3656" style="stroke: #A80036; stroke-width: 1.5;"/><text fill="#000000" font-family="sans-serif" font-size="14" lengthAdjust="spacingAndGlyphs" textLength="70" x="148.9975" y="647.1023">プレビュー</text><polygon fill="#FEFECE" filter="url(#fj067w1)" points="625.178,833.918,620.4318,837.2062,614.1301,840.5103,606.5978,843.7869,596.6811,846.6563,584.3177,848.9792,571.5547,851.0876,555.3202,852.1736,538.8457,852.8426,523.6467,853.3261,506.3584,852.7772,492.7763,852.4085,475.2975,850.4567,464.0008,849.1243,448.7157,846.1109,440.1122,843.7894,432.883,840.9845,423.7702,836.9978,421.3631,833.7957,419.9103,830.1593,422.9961,826.9707,424.9291,823.0542,430.1837,819.5162,439.2531,816.5828,449.7323,813.8391,463.4157,811.811,478.1198,810.136,489.9025,808.0559,508.4415,807.848,524.4975,807.5558,540.2211,807.7553,554.4541,808.2693,569.6831,809.7188,582.7149,811.4386,594.4509,813.6594,606.068,816.6539,613.0065,819.3939,621.1294,823.1595,625.6137,826.8255,625.7204,830.1613" style="stroke: #A80036; stroke-width: 1.5;"/><text fill="#000000" font-family="sans-serif" font-size="14" lengthAdjust="spacingAndGlyphs" textLength="182" x="431.9007" y="834.9235">カスタムテーブルを選択する</text><polygon fill="#FEFECE" filter="url(#fj067w1)" points="649.5007,748.6243,646.6155,753.327,637.3554,757.0817,629.4726,761.4408,612.4976,763.9658,598.9392,767.2377,584.0471,770.0645,565.2581,771.736,545.1258,772.6683,523.9914,772.8045,502.8066,772.2357,485.5872,771.7397,465.8166,769.8113,449.4037,767.6835,433.93,764.7915,416.7977,760.5553,405.7088,756.6709,402.7451,753.6292,393.2783,748.2913,394.1591,744.4214,398.1132,740.5293,400.9953,735.8259,409.1323,731.8257,416.8758,727.4361,430.0253,724.0748,446.3104,721.399,463.9955,719.1828,482.5997,717.4709,504.7886,716.9882,520.4446,715.6543,544.0623,716.755,562.0714,717.4237,580.5096,719.0608,600.5797,721.9881,611.8075,723.9519,627.263,727.8215,637.13,731.4388,644.1496,735.3671,651.0745,740.1494,651.1384,744.2258" style="stroke: #A80036; stroke-width: 1.5;"/><text fill="#000000" font-family="sans-serif" font-size="14" lengthAdjust="spacingAndGlyphs" textLength="238" x="403.9371" y="749.1308">フロントのエントリー一覧の表示件数</text><polygon fill="#FEFECE" filter="url(#fj067w1)" points="644.489,658.4484,639.3612,662.4062,632.8094,666.4761,622.8624,670.0895,611.4117,673.5189,596.7866,676.2513,577.6483,677.8461,559.8658,679.4495,542.6875,680.7609,525.1744,681.4487,505.5598,681.0135,487.4681,680.1557,465.7708,677.6724,448.5587,675.2843,435.4807,672.88,421.9541,669.4415,415.2328,666.5734,407.3944,662.5702,400.1044,657.8537,399.442,653.8358,400.3603,649.5034,404.9076,645.4181,415.6453,642.2675,424.1099,638.3286,436.0083,634.9974,451.6702,632.4928,467.2393,630.1141,482.7498,628.0117,503.5698,627.5002,524.4855,627.5596,543.4846,627.8597,560.9602,628.5821,579.3579,630.3408,594.3513,632.2416,610.3624,635.2901,622.3245,638.385,630.3052,641.5297,637.1858,645.3225,642.6245,649.6325,646.2723,654.306" style="stroke: #A80036; stroke-width: 1.5;"/><text fill="#000000" font-family="sans-serif" font-size="14" lengthAdjust="spacingAndGlyphs" textLength="224" x="410.8447" y="658.8123">フロントのエントリー一覧の表示順</text><polygon fill="#FEFECE" filter="url(#fj067w1)" points="656.0953,566.6393,654.1468,571.7997,645.0082,575.8613,634.4411,579.9295,621.5405,583.6505,604.5742,586.4864,586.711,588.9662,562.9907,589.8534,544.1061,591.3267,523.0348,591.7198,501.4702,591.2788,480.1313,590.0555,462.6286,588.7515,445.3372,586.5161,428.1583,583.2901,412.3045,579.3248,400.9745,575.3292,393.5598,571.2086,388.1967,566.6188,388.1905,562.3638,389.488,557.6659,395.8007,553.4556,399.6084,548.2334,415.5782,545.3414,424.7268,540.8036,440.7908,537.7713,462.8311,536.2008,478.9469,533.6582,501.9914,533.0905,521.6207,532.3834,542.7616,532.7322,567.0499,534.5976,584.4164,535.8719,600.2722,537.7948,617.7974,541.0961,634.7624,545.3034,645.1741,549.099,650.2849,552.7181,657.1664,557.6384,657.063,561.8696" style="stroke: #A80036; stroke-width: 1.5;"/><text fill="#000000" font-family="sans-serif" font-size="14" lengthAdjust="spacingAndGlyphs" textLength="252" x="397.0713" y="566.9576">フロントに表示するウィジェットエリア</text><polygon fill="#FEFECE" filter="url(#fj067w1)" points="670.7475,470.5736,664.2293,475.2555,656.6638,480.2199,646.0199,484.8653,630.8257,488.7028,613.3609,492.0495,592.2932,494.4422,566.8171,495.5359,545.138,496.9413,522.9559,497.5791,501.0964,497.494,477.7387,496.1784,452.9619,493.5573,433.496,491.018,419.5572,488.5661,405.4064,484.9475,392.5049,480.4918,382.9538,475.6941,377.5055,470.7843,372.2917,465.0185,373.5724,459.8636,383.3336,455.8826,391.008,450.9418,403.4597,446.687,415.6164,442.1931,434.2813,439.1057,452.9501,436.1945,476.5014,434.6849,501.8572,434.0741,523.6898,433.3608,546.948,433.7481,568.1842,434.6053,591.419,436.893,611.879,439.6472,628.9085,442.7671,641.2184,445.9878,653.3829,450.2843,663.6203,455.2303,670.5867,460.4681,671.1912,465.2378" style="stroke: #A80036; stroke-width: 1.5;"/><text fill="#000000" font-family="sans-serif" font-size="14" lengthAdjust="spacingAndGlyphs" textLength="280" x="382.9423" y="470.1318">フロントで利用するレイアウトテンプレート</text><polygon fill="#FEFECE" filter="url(#fj067w1)" points="740.2413,359.7773,725.2124,365.2716,719.9351,373.5482,698.1929,378.8425,674.5761,383.9907,654.1461,389.8115,619.4407,392.3698,593.1682,396.2152,555.5395,396.9396,527.2275,398.6929,484.9566,396.3722,460.1648,396.4504,426.3154,393.1958,391.2099,388.1592,369.028,384.2749,350.1316,379.4892,327.6057,372.3621,319.596,366.782,311.9505,359.8576,301.9207,351.1397,306.1112,344.2953,317.9122,338.1197,327.1764,330.6847,351.197,325.8712,373.0027,320.3408,394.1016,314.6612,420.621,310.3751,458.9514,309.0747,492.2258,307.4313,523.8221,306.3712,558.9702,307.1885,593.5624,309.1788,623.7896,311.6689,649.6521,314.7547,677.1092,319.7523,699.1304,325.1975,716.3613,331.207,728.8594,337.7345,736.6328,344.6859,737.5785,351.4865" style="stroke: #A80036; stroke-width: 1.5;"/><text fill="#000000" font-family="sans-serif" font-size="14" lengthAdjust="spacingAndGlyphs" textLength="420" x="313.0074" y="356.7448">フロントで利用するレイアウトテンプレートの編集画面に遷移する</text><polygon fill="#FEFECE" filter="url(#fj067w1)" points="670.2094,244.4573,662.4908,248.8797,656.275,254.1358,646.3802,258.9432,626.3213,261.7293,610.7862,265.4931,592.0679,268.3935,570.8409,270.4055,545.5778,271.0363,525.3941,272.106,498.8113,271.0002,477.9143,270.2163,456.2399,268.2658,434.4542,265.2251,420.1963,262.7042,405.1144,258.8844,392.2458,254.4358,381.0643,249.2857,376.9067,244.6549,375.6253,239.7389,377.5772,234.7291,381.6123,229.5106,387.3482,224.1508,400.2797,219.9997,420.5349,217.256,435.5741,213.3851,458.1183,211.3115,478.8873,209.2005,497.5673,207.147,522.8583,207.1811,545.7669,207.4928,566.701,208.2847,592.7486,211.1804,610.898,213.4352,628.2793,216.6311,642.026,220.1624,654.9004,224.6122,663.8264,229.2748,672.0653,234.7876,669.6177,238.8978" style="stroke: #A80036; stroke-width: 1.5;"/><text fill="#000000" font-family="sans-serif" font-size="14" lengthAdjust="spacingAndGlyphs" textLength="280" x="382.9423" y="244.1318">フロントで利用するコンテンツテンプレート</text><polygon fill="#FEFECE" filter="url(#fj067w1)" points="735.8136,132.8428,725.9465,139.4266,714.7021,146.4437,696.1375,152.4087,673.0674,157.6723,649.156,162.7583,625.3805,167.6235,593.5219,170.2898,556.7575,171.1966,520.5964,171.2933,485.5181,170.4907,454.2425,169.2004,424.6796,166.8505,396.7269,163.3236,369.3842,158.3501,346.2484,152.6696,332.7285,147.4434,312.6654,139.3192,312.5038,133.9744,302.173,125.193,310.0675,119.1303,313.5,111.1885,330.2355,105.3303,349.3964,99.4912,370.7034,93.8555,392.9109,88.4098,426.8797,85.6961,454.7992,82.1984,486.7893,80.2839,519.6178,79.4838,555.6152,80.4804,589.8416,82.3935,622.7569,85.4509,652.3899,89.3325,678.6894,94.0858,695.245,98.3775,717.1742,105.3786,725.0775,110.9363,735.4612,118.4386,741.3511,126.2828" style="stroke: #A80036; stroke-width: 1.5;"/><text fill="#000000" font-family="sans-serif" font-size="14" lengthAdjust="spacingAndGlyphs" textLength="420" x="313.0074" y="130.7448">フロントで利用するコンテンツテンプレートの編集画面に遷移する</text><polygon fill="#FEFECE" filter="url(#fj067w1)" points="225.409,186.389,224.9065,188.9897,221.4589,190.8088,219.0397,193.1394,214.8617,194.9447,209.446,196.3241,203.876,197.5705,196.7693,198.1303,191.412,199.0604,184.6408,199.204,177.1629,198.7433,171.4224,198.4676,165.1783,197.5638,158.4753,196.0165,154.4131,194.8738,149.4857,192.923,146.5762,191.1623,144.0268,189.0401,142.849,186.9351,141.9966,184.5291,141.3459,181.8315,142.7341,179.5355,146.6387,177.8738,149.7774,175.7907,154.0889,174.0314,158.8833,172.4382,164.8038,171.3124,170.5334,170.2787,177.6958,169.9697,184.7311,169.9171,190.5545,169.8084,197.5679,170.5221,204.2185,171.5659,209.985,172.7908,214.2965,174.0193,219.3821,176.0246,221.7948,177.6143,225.209,180.0341,226.4759,182.1698,226.5856,184.3202" style="stroke: #A80036; stroke-width: 1.5;"/><text fill="#000000" font-family="sans-serif" font-size="14" lengthAdjust="spacingAndGlyphs" textLength="56" x="156.098" y="189.1023">一覧表示</text><polygon fill="#FEFECE" filter="url(#fj067w1)" points="206.5666,250.8117,205.7309,253.048,204.248,255.1,202.0889,256.8749,200.329,258.9864,197.2223,260.232,193.826,261.2114,190.4764,262.0632,187.7179,263.0632,183.3523,262.73,180.5936,263.0689,176.7875,262.3215,173.2568,261.2962,169.9473,259.9277,167.4776,258.595,165.8099,257.2675,163.1109,254.7727,161.7485,252.6518,161.7172,250.932,160.7418,248.1922,160.839,245.781,161.9693,243.7341,163.8001,241.9058,165.3424,239.7343,168.0694,238.2446,170.8374,236.7813,173.5474,235.3606,177.0736,234.6223,180.5115,234.0591,184.2358,233.9801,187.02,233.6575,191.2303,234.6649,194.2918,235.3884,197.5639,236.7329,200.2495,238.2044,201.8669,239.4995,204.0247,241.6463,205.2799,243.6983,205.9241,245.8122,206.8822,248.5409" style="stroke: #A80036; stroke-width: 1.5;"/><text fill="#000000" font-family="sans-serif" font-size="14" lengthAdjust="spacingAndGlyphs" textLength="28" x="169.799" y="253.1023">検索</text><!--entity ユーザー--><polygon fill="#FEFECE" filter="url(#fj067w1)" points="41.5791,187.0193,41.2492,189.1123,38.8482,190.6653,37.1826,191.7823,35.4313,192.2456,34.0619,192.7981,31.9877,192.5433,30.1197,191.5094,28.2436,190.5856,27.2063,188.8948,26.8085,186.9108,25.5774,185.5768,26.0721,183.3345,27.1908,181.3713,28.2701,179.0246,29.5925,177.9782,31.5932,177.5953,33.9803,177.186,35.5732,177.0213,37.9595,177.9761,39.6676,178.5595,40.9282,180.1632,41.6992,181.5293,41.6768,184.0951,42.0094,186.226" style="stroke: #A80036; stroke-width: 2.0;"/><path d="M34,192.6992 L33.3396,192.6992 L34.1714,198.0992 L34.5668,203.4992 L33.5621,208.8992 L34.4099,214.2992 L34,219.6992 M21,200.6992 L21,200.3223 L26.2,201.0704 L31.4,200.1097 L36.6,200.524 L41.8,200.3609 L47,200.6992 M34,219.6992 L33.5034,219.2689 L30.9441,222.3041 L28.3198,225.283 L26.4217,228.8914 L23.3191,231.4558 L21,234.6992 M34,219.6992 L34.1535,219.8323 L36.8678,222.9313 L39.3623,225.8399 L42.042,228.9089 L44.0474,231.3936 L47,234.6992 " fill="#FEFECE" style="stroke: #A80036; stroke-width: 2.0;"/><text fill="#000000" font-family="sans-serif" font-size="14" lengthAdjust="spacingAndGlyphs" textLength="56" x="6" y="255.2344">ユーザー</text><!--entity 運営者--><polygon fill="#FEFECE" filter="url(#fj067w1)" points="41.3828,516.3097,41.57,518.1664,40.698,519.5992,39.123,521.0071,38.0539,522.115,36.0026,522.6064,34.4453,523.0591,32.5168,522.1745,29.9795,521.3444,27.4197,520.0709,27.2905,518.1185,26.5824,515.8092,26.1178,514.1568,26.9757,511.937,27.5594,510.5759,28.2439,508.6507,29.934,507.9421,32.0381,507.2527,33.9026,506.6702,36.1415,506.7699,38.2504,507.5336,39.4242,508.6314,41.3773,510.565,41.8138,512.0011,41.4537,513.6734,41.7974,515.0429" style="stroke: #A80036; stroke-width: 2.0;"/><path d="M34,522.6992 L34.263,522.6992 L33.8684,528.0992 L33.7319,533.4992 L34.5791,538.8992 L34.4064,544.2992 L34,549.6992 M21,530.6992 L21,531.1052 L26.2,531.1013 L31.4,531.0424 L36.6,530.7105 L41.8,530.1079 L47,530.6992 M34,549.6992 L34.1324,549.814 L31.3322,552.6405 L28.6092,555.5338 L26.4962,558.9559 L23.3176,561.4544 L21,564.6992 M34,549.6992 L33.8507,549.5699 L36.7346,552.8159 L39.5908,556.0379 L41.7885,558.6892 L44.0426,561.3895 L47,564.6992 " fill="#FEFECE" style="stroke: #A80036; stroke-width: 2.0;"/><text fill="#000000" font-family="sans-serif" font-size="14" lengthAdjust="spacingAndGlyphs" textLength="42" x="13" y="585.2344">運営者</text><path d="M55.09,521.1692 L55.0979,521.1765 L57.1171,519.312 L58.8399,517.1748 L60.8021,515.2579 L62.2779,512.8936 L64.3625,511.0892 L64.5067,511.2352 L66.6584,509.2427 L68.6425,507.0806 L70.7447,505.038 L72.6447,502.7907 L74.79,500.7917 L74.9705,500.9988 L77.0683,498.8413 L79.3289,496.8706 L81.5881,494.8983 L84.0399,493.1469 L86.095,490.9405 L86.1457,491.0095 L88.4689,489.1826 L90.769,487.3241 L93.3413,485.8365 L95.6275,483.959 L98,482.1992 L97.8339,481.9235 L99.8561,480.954 L101.7112,479.7071 L103.5765,478.4772 L105.6595,477.6085 L107.5608,476.4383 L107.4455,476.2142 L109.4954,475.2308 L111.5096,474.178 L113.5945,473.2628 L115.6081,472.2091 L117.6662,471.2417 L117.6137,471.1244 L119.8566,470.5838 L121.8991,469.5962 L123.9479,468.6224 L125.8297,467.2762 L128.0136,466.6039 L127.9887,466.5412 L129.9954,465.5969 L132.0114,464.6761 L134.1588,464.086 L136.2391,463.3271 L138.3,462.5192 " fill="none" style="stroke: #A80036; stroke-width: 1.0;"/><polygon fill="#A80036" points="143.23,460.7192,143.2334,460.7689,141.2772,460.7649,139.2865,460.2572,137.3324,460.2832,135.3743,460.252,133.4042,460.0453,133.3506,459.9302,134.3644,460.382,135.494,461.0828,136.4139,461.3329,137.4259,461.7807,138.5327,462.4325,138.7133,462.5166,137.9182,463.3944,137.6722,464.5278,137.3117,465.608,136.6407,466.5436,136.1455,467.561,136.1065,467.5206,137.6637,466.2975,138.8569,464.6975,140.455,463.5169,141.6609,461.93,143.23,460.7192" style="stroke: #A80036; stroke-width: 1.0;"/><path d="M55.27,541.8192 L55.2645,541.794 L64.7515,538.7648 L74.7422,538.0646 L84.5461,536.501 L93.9752,533.2042 L103.6566,531.0741 L113.2832,528.6907 L123.2986,528.1047 L132.8785,525.505 L142.47,522.9592 " fill="none" style="stroke: #A80036; stroke-width: 1.0;"/><polygon fill="#A80036" points="147.65,521.8392,147.6994,522.0765,145.7573,521.6099,143.7637,520.8954,141.8423,520.5283,139.8985,520.0534,138.0076,519.833,138.055,519.9066,139.0902,520.6498,139.9513,521.1228,140.793,521.5658,141.9383,522.48,142.7631,522.8966,142.9537,523.0194,142.24,523.9055,141.4312,524.7302,141.0589,525.8362,140.4777,526.8076,139.6995,527.6521,139.5825,527.4921,141.3823,526.6163,142.8347,525.2654,144.3773,524.0378,145.9307,522.8251,147.65,521.8392" style="stroke: #A80036; stroke-width: 1.0;"/><path d="M55.27,550.5792 L55.2446,550.4616 L64.8196,552.0309 L74.5043,554.1069 L84.4879,557.5649 L94.1591,559.579 L103.593,560.4955 L113.2977,562.664 L123.1216,565.384 L132.7392,567.1499 L142.47,569.4392 " fill="none" style="stroke: #A80036; stroke-width: 1.0;"/><polygon fill="#A80036" points="147.65,570.5592,147.5151,570.3747,145.9269,569.2148,144.4883,568.2594,143.0042,567.2419,141.3775,566.0291,139.6995,564.7464,139.9052,564.8789,140.4603,565.7929,140.965,566.6744,141.4668,567.554,142.1321,568.539,142.7631,569.5018,142.7948,569.5511,141.8922,570.239,140.866,570.7351,139.9764,571.4433,138.9306,571.909,138.0076,572.5654,138.043,572.7356,139.9527,572.2438,141.842,571.6543,143.7426,571.1191,145.7204,570.9549,147.65,570.5592" style="stroke: #A80036; stroke-width: 1.0;"/><path d="M55.05,571.2892 L55.1408,571.3726 L56.6666,573.09 L58.9654,575.5172 L60.5831,577.319 L62.3294,579.2389 L64.3161,581.3795 L64.084,581.1445 L66.5719,583.6109 L68.4306,585.4401 L70.7971,587.7836 L72.5881,589.5442 L74.7438,591.6742 L74.6594,591.5771 L76.9034,593.5204 L79.2268,595.5552 L81.7444,597.8135 L83.7204,599.4482 L86.062,601.5039 L85.8808,601.2551 L88.5148,603.3325 L90.9382,605.1207 L93.1783,606.6573 L95.4695,608.264 L98,610.1992 L98.1555,610.4624 L100.0461,611.411 L102.2122,612.8261 L104.0054,613.61 L106.0895,614.8861 L108.2188,616.2388 L108.2914,616.3849 L110.4963,617.543 L112.5506,618.3982 L114.7238,619.4926 L116.9435,620.6805 L119.0375,621.6155 L118.983,621.4881 L121.1746,622.3915 L123.3329,623.217 L125.7272,624.5942 L127.8355,625.3027 L130.085,626.3416 L129.9912,626.0913 L132.3008,627.2519 L134.3326,627.6713 L136.7385,629.0889 L138.728,629.3957 L140.99,630.4292 " fill="none" style="stroke: #A80036; stroke-width: 1.0;"/><polygon fill="#A80036" points="145.78,632.0792,145.8837,632.1906,144.3199,630.7166,142.9493,629.45,141.6228,628.2309,139.9214,626.6091,138.5731,625.3665,138.4051,625.2846,138.857,626.28,139.458,627.3482,140.1248,628.4484,140.5836,629.4473,141.0525,630.451,141.0772,630.5016,140.053,630.9825,139.0904,631.5898,138.0345,632.0057,137.0137,632.4936,135.968,632.9304,135.9759,633.0219,137.9289,632.7434,139.9016,632.6914,141.8662,632.5463,143.804,632.0928,145.78,632.0792" style="stroke: #A80036; stroke-width: 1.0;"/><path d="M215.55,524.1492 L215.6335,524.2986 L218.7676,525.8548 L222.1299,527.8196 L225.4346,529.6812 L228.8529,531.746 L232.0125,533.348 L232.0449,533.3832 L234.6741,535.7703 L237.4623,538.3305 L240.481,541.1414 L243.357,543.7972 L246,546.1992 L245.8682,546.1096 L248.2438,549.4792 L250.5209,552.7818 L252.7965,556.0834 L254.76,559.1728 L257.0963,562.5157 L256.8477,562.3943 L258.7567,565.7824 L260.2849,568.9845 L261.8337,572.1967 L263.5539,575.4926 L264.9696,578.6398 L264.7814,578.5792 L266.0272,581.838 L266.9345,584.9879 L268.3224,588.2924 L269.1441,591.4148 L270.1006,594.5805 L270.0808,594.5769 L270.6063,597.7213 L270.9467,600.8321 L272.0659,604.0846 L272.6459,607.2389 L272.97,610.3467 L273.1994,610.3627 L273.3941,613.4813 L273.535,616.5961 L273.3987,619.6915 L273.5333,622.8059 L274.0586,625.9475 L274.0857,625.9479 L273.8964,629.0347 L273.6638,632.121 L273.9515,635.2144 L273.8324,638.3022 L273.8473,641.3918 L274.071,641.4069 L273.6417,644.4512 L273.54,647.5176 L273.3836,650.5803 L272.6934,653.607 L272.8166,656.6885 L273.0597,656.7105 L272.6927,659.7337 L271.9711,662.7249 L272.1665,665.7989 L271.8107,668.8232 L271.4475,671.8467 L271.5409,671.8543 L271.0209,674.8376 L270.8929,677.8529 L270.8661,680.8765 L270.5778,683.8787 L270.2206,686.8753 L270.131,686.8717 L269.8595,689.8471 L270.043,692.841 L269.5439,695.8073 L269.8217,698.805 L269.6168,701.7832 L269.7983,701.7893 L269.5343,704.7363 L269.7077,707.698 L270.0979,710.6671 L270.0645,713.6218 L270.1167,716.5794 L270.0351,716.5679 L270.4682,719.5089 L270.775,722.4319 L271.6227,725.4318 L271.7907,728.3352 L272.2013,731.273 L272.2588,731.2893 L272.9356,734.1658 L273.9538,737.1392 L274.4785,739.9724 L275.7989,743.0317 L276.3511,745.8727 L276.2026,745.8042 L277.9879,748.913 L279.2265,751.7697 L280.231,754.5182 L281.8249,757.5388 L283.047,760.3877 L282.9055,760.2925 L284.8312,763.1676 L286.7401,766.0314 L289.0736,769.1812 L291.0545,772.0935 L292.7697,774.8269 L292.7562,774.8145 L295.5073,777.7856 L298.281,780.7776 L300.9104,783.6367 L303.3115,786.2857 L306,789.1992 L306.0586,789.2692 L308.1524,790.9535 L310.4018,792.8236 L312.8042,794.8761 L315.2142,796.9376 L317.4713,798.8168 L317.3083,798.5704 L320.0932,800.6603 L322.5338,802.2297 L325.0668,803.9388 L327.3469,805.2653 L329.9344,807.0567 L330.0192,807.2185 L332.635,808.5345 L335.2773,809.9012 L338.0407,811.4987 L340.6838,812.8667 L343.2122,814.016 L343.2892,814.2016 L345.9801,815.1346 L348.7345,816.2208 L351.4876,817.3036 L354.4517,818.895 L357.1275,819.7917 L357.1764,819.9416 L359.9325,820.5145 L362.9101,821.7665 L365.8025,822.7574 L368.6083,823.4826 L371.5031,824.4809 L371.441,824.2346 L374.4857,825.422 L377.4047,826.1117 L380.2721,826.5964 L383.1689,827.1979 L386.1619,828.1805 L386.1434,828.0835 L389.1192,828.7649 L392.0295,829.1024 L395.07,830.1241 L398.0303,830.724 L400.9266,830.9876 L400.8854,830.6867 L403.885,831.5345 L406.7747,831.5787 L409.7378,832.1596 L412.6999,832.7327 L415.62,832.9992 " fill="none" style="stroke: #A80036; stroke-width: 1.0;"/><polygon fill="#A80036" points="420.84,833.5492,420.9374,833.7189,419.1393,832.5812,417.3868,831.5229,415.7094,830.5955,413.9547,829.5334,412.2994,828.6444,412.4766,828.7884,413.1722,829.6519,413.7158,830.3921,414.4818,831.3128,415.3204,832.2925,415.8665,833.0347,415.8181,832.9751,414.9101,833.6517,414.2326,834.612,413.3093,835.2697,412.3544,835.8886,411.4762,836.6019,411.4022,836.3751,413.3983,836.1427,415.1949,835.2986,417.0342,834.5855,418.9029,833.9625,420.84,833.5492" style="stroke: #A80036; stroke-width: 1.0;"/><path d="M214.25,524.4292 L214.317,524.5516 L217.7668,526.5442 L221.0867,528.2995 L224.2033,529.6837 L227.853,532.0412 L231.0963,533.6567 L231.0918,533.6514 L234.0512,536.1346 L236.8656,538.4454 L240.2331,541.4134 L243.1646,543.8634 L246,546.1992 L246.0847,546.2669 L247.5086,548.1354 L249.4147,550.389 L250.9822,552.3721 L252.5057,554.3202 L254.0622,556.2946 L253.9426,556.2209 L255.0884,558.1707 L256.8138,560.4776 L257.6307,562.2247 L258.9835,564.302 L260.2376,566.3185 L260.0444,566.2298 L261.2269,568.3433 L262.0729,570.3022 L262.7068,572.1638 L263.9953,574.3259 L264.8073,576.2692 L264.7579,576.253 L265.1733,578.1514 L266.2561,580.2691 L267.0707,582.2987 L267.6117,584.2383 L268.0523,586.145 L267.7661,586.0916 L268.7454,590.0425 L269.3077,593.9156 L269.9843,597.81 L270.843,601.7384 L271.6931,605.6651 L271.5805,605.6551 L271.888,609.492 L272.5701,613.3623 L272.7415,617.187 L273.3446,621.0503 L273.4087,624.8655 L273.5373,624.8794 L273.7279,628.6293 L274.4827,632.4402 L274.4578,636.1668 L275.171,639.9732 L275.4483,643.7325 L275.4622,643.736 L276.2478,647.4059 L277.1392,651.1022 L278.1591,654.8306 L279.1009,658.5394 L280.0608,662.2528 L280.0861,662.2638 L280.6209,663.9758 L281.4725,665.8257 L282.2217,667.6311 L283.1517,669.5152 L284.0346,671.3787 L284.1662,671.4583 L284.9286,673.0658 L286.0226,674.8738 L287.5571,676.948 L288.5323,678.6842 L289.495,680.4129 L289.5995,680.4973 L290.7132,682.0171 L292.2223,683.8566 L293.8779,685.8145 L295.2226,687.521 L296.7231,689.3536 L296.7583,689.3906 L298.3963,690.9316 L300.2371,692.6855 L302.1013,694.4639 L304.0224,696.3019 L306,698.1992 L305.8851,698.0514 L307.7006,699.4386 L309.6708,701.0247 L311.7417,702.7404 L313.2694,703.7573 L315.3171,705.4431 L315.2113,705.2824 L317.4233,706.9427 L319.0983,707.7874 L321.3967,709.5787 L323.3357,710.8244 L325.1923,711.945 L325.3454,712.2183 L327.1076,712.8271 L329.3976,714.3786 L331.3724,715.367 L333.5699,716.7533 L335.5455,717.7431 L335.5963,717.8496 L337.8128,719.015 L339.9054,719.921 L341.9263,720.6767 L344.2716,722.112 L346.2963,722.8755 L346.274,722.8208 L348.3896,723.4809 L350.7227,724.6754 L352.8884,725.4585 L355.0369,726.1994 L357.3644,727.3802 L357.3388,727.3063 L359.6843,728.3333 L361.8101,728.7258 L364.2254,729.9542 L366.3954,730.4745 L368.6695,731.2953 L368.7466,731.5581 L370.8843,731.7035 L373.2026,732.4646 L375.5679,733.3856 L377.9304,734.2973 L380.1315,734.659 L380.0788,734.4457 L382.4857,735.4173 L384.7929,735.9852 L387.1155,736.6156 L389.4415,737.2599 L391.67,737.5092 " fill="none" style="stroke: #A80036; stroke-width: 1.0;"/><polygon fill="#A80036" points="396.61,738.5792,396.5392,738.4829,395.1071,737.5263,393.5045,736.338,391.7539,734.9483,390.1584,733.7695,388.6757,732.7442,388.5884,732.6882,389.3145,733.7154,389.7001,734.5245,390.3723,735.517,391.3076,736.678,391.7261,737.5082,391.6456,737.3824,390.7951,738.1523,389.8199,738.7274,388.9019,739.3919,387.8359,739.825,386.9621,740.5585,386.9325,740.4142,388.9239,740.3197,390.8511,739.9125,392.7039,739.142,394.6992,739.0667,396.61,738.5792" style="stroke: #A80036; stroke-width: 1.0;"/><path d="M211.04,525.5292 L211.1033,525.6545 L212.7655,526.3773 L214.5235,527.2897 L216.2239,528.0881 L217.992,529.0202 L219.7495,529.9317 L219.7377,529.9103 L221.5552,530.9393 L223.3321,531.8946 L225.1175,532.8653 L226.7904,533.6322 L228.7338,534.8892 L228.7927,534.9853 L230.6231,536.1638 L232.4306,537.3051 L233.9585,537.9904 L236.0022,539.5168 L237.6111,540.3342 L237.4832,540.1513 L239.3601,541.6091 L241.0948,542.8635 L242.8191,544.1031 L244.2789,544.9643 L246,546.1992 L246.0123,546.2136 L247.9315,547.8318 L250.114,549.757 L251.9334,551.2588 L254.1477,553.221 L256.0524,554.8223 L255.83,554.6215 L257.3623,556.3152 L258.854,557.9722 L260.6344,559.8899 L262.1987,561.6125 L263.6423,563.2261 L263.5296,563.1476 L265.6587,566.2942 L267.8809,569.5057 L270.608,573.069 L272.8838,576.3178 L274.9013,579.3867 L274.9225,579.4031 L277.1088,582.3313 L279.8088,585.6555 L282.2363,588.7696 L284.482,591.7436 L286.7095,594.7036 L286.775,594.7773 L288.5806,596.4164 L290.0412,597.6669 L291.8451,599.304 L293.294,600.5413 L294.9862,602.0527 L294.8198,601.7963 L297.1441,603.4129 L299.5458,605.1488 L301.4494,606.117 L303.6168,607.4918 L306,609.1992 L305.8925,608.9925 L308.399,610.6109 L310.6341,611.7076 L312.869,612.8037 L315.2811,614.2408 L317.4096,615.1323 L317.5119,615.357 L319.8634,616.4035 L322.1634,617.337 L324.567,618.4979 L326.9208,619.5496 L329.2383,620.5214 L329.1706,620.3524 L331.5727,621.2512 L334.2179,622.7568 L336.6455,623.7191 L339.0529,624.631 L341.4001,625.3925 L341.3009,625.1116 L343.8695,626.2334 L346.2576,626.8439 L348.7821,627.8412 L351.2349,628.6348 L353.8088,629.7717 L353.7433,629.5616 L356.2247,630.2399 L358.9226,631.6134 L361.3895,632.2453 L363.7786,632.627 L366.3782,633.685 L366.3461,633.5681 L368.8407,634.138 L371.4323,635.0612 L374.0077,635.9255 L376.5256,636.5803 L379.0223,637.1583 L379.0315,637.1959 L381.5147,637.6291 L384.1306,638.6101 L386.6749,639.2953 L389.1837,639.8338 L391.655,640.2177 L391.6203,640.055 L394.1535,640.7124 L396.7296,641.5706 L399.2219,642.0361 L401.6581,642.2379 L404.19,642.8892 " fill="none" style="stroke: #A80036; stroke-width: 1.0;"/><polygon fill="#A80036" points="409.51,643.9192,409.5846,644.0257,407.8856,642.7731,406.2872,641.6639,404.7912,640.7011,403.0274,639.356,401.4438,638.268,401.3216,638.1858,401.9694,639.1351,402.5898,640.0659,403.1661,640.9671,403.8981,641.9731,404.6027,642.9607,404.5462,642.8767,403.6061,643.5061,402.699,644.1846,401.6707,644.6831,400.9269,645.6041,399.9101,646.1196,399.8812,645.9937,401.8368,645.709,403.7755,645.3505,405.7168,645.0036,407.5448,644.1621,409.51,643.9192" style="stroke: #A80036; stroke-width: 1.0;"/><path d="M223.66,519.7092 L223.6801,519.8503 L233.6077,520.7512 L243.7325,523.0361 L253.5316,523.0343 L263.745,525.9418 L273.6611,526.7611 L283.773,528.9556 L293.583,529.0308 L303.5541,530.2363 L313.693,532.6203 L323.6516,533.7388 L333.8155,536.2982 L343.6321,536.4197 L353.7212,538.4538 L363.6467,539.3396 L373.6806,540.9862 L383.6367,542.0869 L393.6212,543.3872 L403.7,545.3492 " fill="none" style="stroke: #A80036; stroke-width: 1.0;"/><polygon fill="#A80036" points="408.99,546.0992,408.9238,545.9934,407.4065,545.1931,405.5266,543.8131,403.8564,542.7683,402.409,542.0798,400.6398,540.8768,400.7738,540.9775,401.417,541.8542,401.9636,542.6582,402.7298,543.6273,403.2901,544.4417,404.0394,545.3981,404.0217,545.3746,403.1472,546.0941,402.2616,546.7988,401.3905,547.5229,400.3621,548.0378,399.518,548.7977,399.5079,548.7621,401.4433,548.3663,403.3092,547.7268,405.2504,547.3513,407.0827,546.5935,408.99,546.0992" style="stroke: #A80036; stroke-width: 1.0;"/><path d="M223.33,508.6292 L223.4522,509.4693 L233.4478,507.7373 L243.4706,506.1916 L253.5308,504.9034 L263.454,502.6734 L273.458,500.9991 L283.4267,499.0816 L293.5905,498.506 L303.5202,496.3205 L313.6197,495.3025 L323.7794,494.6981 L333.8198,493.2743 L343.7931,491.388 L353.7857,489.6351 L363.9005,488.7228 L373.8631,486.7633 L383.8036,484.6521 L393.93,483.8192 " fill="none" style="stroke: #A80036; stroke-width: 1.0;"/><polygon fill="#A80036" points="399.04,483.0792,399.0412,483.0835,397.0921,482.3604,395.2339,481.9598,393.359,481.5003,391.4838,481.0394,389.5604,480.4075,389.4892,480.3123,390.3633,480.9467,391.241,481.5859,392.1382,482.2513,393.1372,483.0527,394.0914,483.7943,394.0018,483.7274,393.4583,484.7336,392.8827,485.7159,391.983,486.4559,391.4204,487.4478,390.7046,488.3253,390.7296,488.365,392.2973,487.1578,393.952,486.089,395.6438,485.079,397.4554,484.2596,399.04,483.0792" style="stroke: #A80036; stroke-width: 1.0;"/><path d="M210.51,502.8192 L210.5542,502.9043 L212.2636,501.8741 L214.1587,501.2016 L215.6787,499.8067 L217.522,499.0344 L219.3488,498.2303 L219.3829,498.2906 L221.0488,496.9715 L222.9773,496.1152 L224.8875,495.2266 L226.7776,494.3027 L228.48,493.048 L228.425,492.9609 L230.1973,491.7709 L232.078,490.7523 L233.767,489.4305 L235.7307,488.5431 L237.4987,487.3463 L237.5844,487.4647 L239.1292,486.0203 L240.9057,484.8963 L242.7299,483.8384 L244.1732,482.2536 L246,481.1992 L246.218,481.4455 L248.1837,479.5724 L249.9829,477.511 L252.2752,476.0069 L254.1467,474.0272 L256.1599,472.2077 L256.0547,472.1149 L257.9157,470.6704 L259.2604,468.7706 L260.5473,466.8198 L262.3161,465.294 L263.8139,463.5292 L263.9408,463.62 L265.0438,461.8644 L266.2533,460.1849 L267.6594,458.6462 L268.4421,456.6614 L269.8351,455.1133 L269.7715,455.0725 L271.0573,453.5815 L271.7761,451.7269 L273.1253,450.2764 L273.8465,448.4234 L275.0962,446.9092 L274.948,446.8003 L277.5643,443.8032 L279.8144,440.5372 L282.2159,437.3823 L284.7207,434.3034 L286.8305,430.9342 L286.9493,431.0582 L288.5506,429.4395 L290.1545,427.8234 L291.6411,426.0849 L293.2637,424.4883 L295.0494,423.062 L294.987,422.9752 L297.2387,421.4884 L299.5943,420.1463 L301.5147,418.198 L303.8425,416.8172 L306,415.1992 L306.0534,415.2909 L308.9003,413.7136 L311.6043,411.8906 L314.4603,410.3289 L317.2105,408.5853 L320.0628,407.0172 L319.931,406.7577 L322.8859,405.2928 L325.8832,403.9114 L329.03,402.8243 L331.9578,401.3061 L334.765,399.5505 L334.8376,399.7129 L337.7857,398.162 L340.8219,396.8084 L343.9004,395.5495 L346.9573,394.2422 L349.9397,392.7681 L349.903,392.6755 L353.1188,391.7521 L356.1294,390.3106 L359.2993,389.2711 L362.3252,387.8683 L365.42,386.6392 " fill="none" style="stroke: #A80036; stroke-width: 1.0;"/><polygon fill="#A80036" points="370.14,384.9092,370.1529,385.1084,368.1781,384.839,366.2076,384.636,364.2585,384.7636,362.2872,384.5484,360.3118,384.2714,360.2637,384.167,361.2505,384.5525,362.3303,385.1397,363.4248,385.7589,364.3978,386.1145,365.449,386.6397,365.4282,386.6302,365.1133,387.7308,364.429,388.6611,364.0528,389.7335,363.3734,390.6661,363.0806,391.7769,363.1012,391.7981,364.5443,390.4566,365.7905,388.9128,367.2099,387.547,368.8222,386.3795,370.14,384.9092" style="stroke: #A80036; stroke-width: 1.0;"/><path d="M214.31,503.9392 L214.3265,503.9685 L217.6764,501.9729 L220.9578,499.8557 L224.5119,498.2223 L227.9718,496.4217 L231.2875,494.3655 L231.1991,494.2667 L234.3104,491.8221 L237.1663,489.092 L240.2511,486.6178 L243.005,483.7738 L246,481.1992 L246.1557,481.3118 L247.9774,478.6906 L249.8914,476.1361 L251.8114,473.586 L253.4811,470.8548 L255.3507,468.2682 L255.1052,468.1356 L257.0064,465.8608 L258.0526,463.1243 L259.6713,460.6969 L260.8583,458.0364 L262.2523,455.4877 L262.2402,455.4831 L263.4148,453.0361 L263.8881,450.3218 L264.9853,447.8453 L266.0879,445.3708 L267.0696,442.8503 L267.1475,442.8697 L267.5795,440.3228 L268.3893,437.8696 L268.7746,435.3112 L269.7918,432.9094 L270.1673,430.3486 L270.0704,430.3349 L270.8367,427.9191 L270.7685,425.3856 L271.283,422.9343 L271.6929,420.4682 L271.9103,417.975 L272.2425,417.9955 L272.3749,415.5438 L272.3926,413.0851 L272.2109,410.6141 L272.3844,408.1649 L272.6634,405.7223 L272.4194,405.7197 L272.3844,403.2912 L272.7387,400.8667 L272.4954,398.436 L272.6002,396.009 L272.7913,393.5828 L272.9264,393.5843 L272.8569,391.1771 L272.988,388.7721 L272.4053,386.3593 L272.9722,383.9591 L272.6588,381.5492 L272.7772,381.5495 L272.5837,379.162 L272.3209,376.7744 L272.9117,374.3888 L272.8451,372.0016 L272.6307,369.6141 L272.5241,369.6101 L272.3917,367.2331 L273.084,364.8867 L272.9734,362.5105 L272.9036,360.1358 L273.0718,357.7699 L272.871,357.7482 L273.5712,355.4443 L273.9025,353.1005 L274.0806,350.74 L274.0866,348.3609 L274.3469,346.0093 L274.164,345.9706 L274.5289,343.6062 L275.5802,341.3871 L276.0672,339.0486 L276.3372,336.6641 L276.8208,334.3248 L276.9435,334.3675 L277.3712,331.9123 L278.7111,329.7742 L279.1357,327.318 L280.0971,325.0483 L280.8582,322.709 L280.8888,322.7248 L281.8737,320.3063 L283.1828,318.0553 L284.596,315.858 L285.6336,313.4667 L286.8241,311.1545 L286.8355,311.1626 L288.4174,308.8123 L289.9622,306.4353 L291.6429,304.1559 L293.1926,301.7825 L295.0831,299.6537 L295.176,299.7422 L297.2661,297.3625 L299.2183,294.8512 L301.623,292.7713 L304.0571,290.7193 L306,288.1992 L305.9532,288.1406 L309.0964,285.6737 L312.0882,283.017 L315.43,280.7993 L318.6226,278.3944 L321.6191,275.7436 L321.5153,275.5821 L323.1669,274.4481 L325.0899,273.7365 L326.5889,272.365 L328.2769,271.2876 L330.0423,270.3307 L330.1041,270.4412 L331.8326,269.4171 L333.6121,268.4841 L335.2903,267.3699 L337.0121,266.3338 L338.8075,265.4292 L338.6685,265.1439 L340.626,264.561 L342.3969,263.5954 L344.3601,263.024 L346.1916,262.1826 L347.8643,261.0152 L347.7957,260.854 L349.6067,259.9494 L351.5632,259.3874 L353.3638,258.4585 L355.2697,257.7774 L357.1622,257.0648 L357.0802,256.8432 L359.1014,256.4747 L360.9523,255.646 L362.953,255.2221 L364.8335,254.4735 L366.6509,253.5541 L366.7231,253.7786 L368.4993,252.6942 L370.4501,252.1531 L372.3704,251.5168 L374.4003,251.2216 L376.28,250.4592 " fill="none" style="stroke: #A80036; stroke-width: 1.0;"/><polygon fill="#A80036" points="381.11,249.0692,381.1303,249.2157,379.1295,248.5861,377.1898,248.397,375.2415,248.146,373.2843,247.8307,371.3547,247.7147,371.4145,247.8229,372.3719,248.3113,373.3524,248.8414,374.3199,249.3482,375.3621,249.9899,376.3051,250.4522,376.2556,250.4249,375.7059,251.4137,375.3448,252.5069,374.5379,253.3535,374.0965,254.4023,373.5676,255.4026,373.4949,255.3161,375.0394,254.0922,376.7262,253.038,378.2356,251.7723,379.7465,250.5085,381.11,249.0692" style="stroke: #A80036; stroke-width: 1.0;"/><path d="M215.13,504.1892 L214.9785,503.9232 L218.5853,502.4511 L221.7737,500.2445 L225.1363,498.3436 L228.5279,496.4936 L231.9113,494.6292 L231.7093,494.4174 L234.8949,492.1172 L237.4027,489.1062 L240.1668,486.3639 L243.39,484.1031 L246,481.1992 L246.0286,481.219 L247.5781,479.357 L248.5312,477.082 L250.1321,475.2556 L251.7004,473.4066 L252.8669,471.2794 L252.8374,471.2618 L254.3076,469.4781 L255.3576,467.4445 L256.4287,465.4235 L257.5391,463.4259 L258.7043,461.4609 L258.6214,461.4192 L259.7852,459.5692 L260.8808,457.6849 L261.468,455.5456 L262.8908,453.8255 L263.5828,451.7387 L263.6075,451.7489 L264.3377,449.7946 L265.3685,447.9649 L265.9359,445.9431 L266.5581,443.9441 L267.5733,442.1079 L267.3399,442.0391 L268.9831,438.3917 L269.5362,434.4232 L270.8877,430.6898 L272.2879,426.9709 L273.173,423.1001 L273.3041,423.1204 L274.027,419.4022 L274.5424,415.6518 L274.7045,411.8467 L275.8158,408.1886 L276.0694,404.3977 L276.2465,404.405 L276.0137,400.7017 L276.7023,397.0363 L276.4575,393.3325 L276.5634,389.6432 L276.8285,385.9604 L276.5626,385.9485 L276.8882,382.3279 L276.7638,378.6871 L276.2526,375.0291 L276.0651,371.3856 L276.0164,367.7482 L275.7186,367.7182 L275.4175,364.1191 L275.3512,360.5437 L275.1532,356.9549 L274.5687,353.3272 L274.1991,349.7212 L274.3404,349.739 L274.0155,346.1786 L273.0178,342.5332 L272.5215,338.9512 L272.2839,335.4017 L271.9425,331.8392 L271.9196,331.8365 L271.2454,328.2513 L270.7735,324.6904 L270.4074,321.1422 L270.4123,317.6384 L269.8127,314.0622 L269.5733,314.0428 L269.6397,310.5291 L269.2742,306.9804 L269.1104,303.448 L268.6944,299.8951 L268.3758,296.3502 L268.3089,296.3495 L268.2642,292.812 L268.3695,289.276 L267.9543,285.7347 L268.4966,282.2031 L268.1977,278.6631 L268.3537,278.6776 L268.7038,275.1391 L268.7989,271.5768 L269.0951,268.0333 L269.6458,264.5134 L269.8444,260.9608 L269.5393,260.8914 L270.6624,257.4117 L271.3621,253.8357 L272.176,250.2856 L273.135,246.7686 L273.882,243.2033 L273.575,243.0831 L275.3644,239.6655 L276.5084,235.9951 L277.9365,232.436 L279.4529,228.9115 L280.8764,225.3506 L281.1147,225.4776 L281.8207,223.5491 L282.9736,221.8588 L283.628,219.9029 L284.473,218.0485 L285.6593,216.376 L285.8762,216.514 L286.8724,214.6154 L287.6944,212.606 L289.1076,210.9728 L290.51,209.3327 L291.3938,207.3626 L291.6041,207.5195 L292.6418,205.4741 L294.1644,203.7904 L295.6872,202.1069 L296.8098,200.1248 L298.1504,198.3053 L297.991,198.1679 L299.587,196.3692 L301.1686,194.558 L302.8966,192.8731 L304.6505,191.2105 L306,189.1992 L306.1546,189.3569 L307.9626,187.3853 L309.8743,185.5194 L311.822,183.6903 L313.7484,181.8395 L315.5363,179.8473 L315.5389,179.8506 L317.6578,178.2254 L319.7867,176.6127 L321.7081,174.7434 L323.8198,173.1092 L325.9125,171.4517 L325.7329,171.1859 L328.1241,169.9432 L330.3555,168.4638 L332.7156,167.1751 L334.9632,165.7199 L337.005,163.9598 L337.0665,164.068 L339.3235,162.5992 L341.5834,161.1353 L344.0265,159.9939 L346.3595,158.6587 L348.69,157.3192 " fill="none" style="stroke: #A80036; stroke-width: 1.0;"/><polygon fill="#A80036" points="353.22,155.0292,353.2161,154.9528,351.2546,155.1646,349.279,155.1005,347.3284,155.5295,345.3487,155.3828,343.3837,155.5268,343.3642,155.467,344.5206,156.0674,345.4566,155.9951,346.5632,156.4436,347.6674,156.8844,348.7594,157.2881,348.9122,157.3382,348.634,158.4376,347.8182,159.3609,347.7658,160.5343,347.1532,161.5241,346.998,162.6638,347.0069,162.671,348.202,161.104,349.4753,159.6006,350.6246,157.9961,351.8869,156.4839,353.22,155.0292" style="stroke: #A80036; stroke-width: 1.0;"/><path d="M62.15,210.3292 L62.0812,210.0108 L72.3995,209.0306 L82.0916,205.154 L92.5296,204.7272 L102.3468,201.4292 L112.3383,198.9377 L122.5313,197.3777 L132.5206,194.876 L142.63,192.9292 " fill="none" style="stroke: #A80036; stroke-width: 1.0;"/><polygon fill="#A80036" points="147.64,191.8392,147.6678,191.9728,145.7559,191.6511,143.8306,191.2651,141.8091,190.417,139.892,190.0702,137.9976,189.833,137.9854,189.8141,139.0563,190.6127,139.942,191.124,140.8005,191.5929,141.8963,192.4303,142.7531,192.8966,142.5807,192.7856,142.0148,193.7668,141.5376,194.8052,140.8934,195.736,140.2254,196.6515,139.6895,197.6521,139.6558,197.6059,141.158,196.3232,142.8003,195.232,144.497,194.2153,146.0298,192.9743,147.64,191.8392" style="stroke: #A80036; stroke-width: 1.0;"/><path d="M62.15,222.0692 L61.9544,221.1646 L71.5825,224.0311 L81.0912,226.3459 L90.3472,227.4915 L99.7936,229.5179 L109.3207,231.9176 L118.9899,234.9742 L128.2623,236.1959 L137.7319,238.3296 L147.3602,241.197 L156.65,242.4992 " fill="none" style="stroke: #A80036; stroke-width: 1.0;"/><polygon fill="#A80036" points="161.78,243.6092,161.9088,243.7854,160.1372,242.3746,158.5913,241.2724,156.8698,239.9302,155.5236,239.1012,153.8295,237.7964,153.9374,237.8659,154.4997,238.7845,155.1913,239.7864,155.5916,240.6006,156.4545,241.7129,156.8931,242.5518,156.8332,242.4588,155.854,243.028,155.0741,243.9064,154.0022,244.3317,153.0949,245.0123,152.1376,245.6154,152.1113,245.489,154.0307,245.044,155.9448,244.5736,157.9276,244.4334,159.8671,244.0851,161.78,243.6092" style="stroke: #A80036; stroke-width: 1.0;"/></g></svg>