<?xml version="1.0" encoding="UTF-8" standalone="no"?><svg xmlns="http://www.w3.org/2000/svg" xmlns:xlink="http://www.w3.org/1999/xlink" contentScriptType="application/ecmascript" contentStyleType="text/css" height="368px" preserveAspectRatio="none" style="width:400px;height:368px;" version="1.1" viewBox="0 0 400 368" width="400px" zoomAndPan="magnify"><defs><filter height="300%" id="fere475" width="300%" x="-1" y="-1"><feGaussianBlur result="blurOut" stdDeviation="2.0"/><feColorMatrix in="blurOut" result="blurOut2" type="matrix" values="0 0 0 0 0 0 0 0 0 0 0 0 0 0 0 0 0 0 .4 0"/><feOffset dx="4.0" dy="4.0" in="blurOut2" result="blurOut3"/><feBlend in="SourceGraphic" in2="blurOut3" mode="normal"/></filter></defs><g><text fill="#000000" font-family="sans-serif" font-size="18" lengthAdjust="spacingAndGlyphs" textLength="270" x="73.5" y="17.4023">ユースケース：カスタムテーブル</text><!--cluster カスタムテーブル--><polygon fill="#FFFFFF" filter="url(#fere475)" points="22,45.1992,22,44.7235,31.8333,45.8819,41.6667,45.7811,51.5,45.7843,61.3333,45.599,71.1667,45.2619,81,45.2304,90.8333,45.1933,100.6667,44.7369,110.5,45.544,120.3333,45.6289,130.1667,45.0039,140,45.1992,140.1718,45.2527,141.2755,49.6581,142.743,54.1768,144.231,58.7018,145.4648,63.1478,147,67.6875,147,67.1648,157.1333,67.7377,167.2667,67.9679,177.4,67.922,187.5333,68.2907,197.6667,68.0225,207.8,67.9165,217.9333,67.7583,228.0667,67.114,238.2,68.0201,248.3333,67.6983,258.4667,67.5565,268.6,67.9488,278.7333,67.874,288.8667,68.1735,299,67.6875,299.4324,67.6875,298.3659,77.8086,298.8351,87.9297,299.2444,98.0508,298.6493,108.1719,298.5429,118.293,298.6185,128.4141,298.5988,138.5352,299.2636,148.6563,299.0549,158.7773,298.4238,168.8984,298.691,179.0195,298.6437,189.1406,299.1992,199.2617,298.269,209.3828,299.676,219.5039,298.4189,229.625,299.2776,239.7461,298.3358,249.8672,299.4428,259.9883,299.6252,270.1094,298.9101,280.2305,299.0298,290.3516,298.8985,300.4727,298.9838,310.5938,298.6905,320.7148,299.6602,330.8359,298.4896,340.957,298.6172,351.0781,299,361.1992,299,361.754,289.1071,360.5052,279.2143,360.5579,269.3214,360.5911,259.4286,361.6309,249.5357,361.5574,239.6429,360.5382,229.75,361.8659,219.8571,360.4796,209.9643,360.8052,200.0714,360.5691,190.1786,360.7157,180.2857,360.6707,170.3929,361.2631,160.5,361.575,150.6071,360.6943,140.7143,361.8589,130.8214,361.2208,120.9286,361.3895,111.0357,361.8992,101.1429,360.5055,91.25,361.7359,81.3571,361.4187,71.4643,360.5017,61.5714,360.5532,51.6786,360.4751,41.7857,361.9355,31.8929,361.5079,22,361.1992,21.7262,361.1992,21.7588,351.3242,21.4667,341.4492,22.6269,331.5742,21.3226,321.6992,21.6499,311.8242,21.4803,301.9492,22.0261,292.0742,22.5077,282.1992,22.2972,272.3242,21.3258,262.4492,21.2813,252.5742,22.2447,242.6992,22.716,232.8242,21.3568,222.9492,22.2227,213.0742,21.5117,203.1992,21.6734,193.3242,22.2809,183.4492,22.5209,173.5742,21.9439,163.6992,21.9367,153.8242,22.1236,143.9492,21.8649,134.0742,22.2899,124.1992,22.1116,114.3242,22.0432,104.4492,22.2161,94.5742,21.733,84.6992,22.3103,74.8242,22.2495,64.9492,22.5504,55.0742,22,45.1992" style="stroke: #000000; stroke-width: 2.0;"/><path d="M22,67.6875 L22,66.9236 L31.6154,67.8985 L41.2308,68.5876 L50.8462,68.2604 L60.4615,68.6451 L70.0769,66.8464 L79.6923,67.724 L89.3077,66.8675 L98.9231,67.6539 L108.5385,66.744 L118.1538,67.5499 L127.7692,68.2551 L137.3846,67.3286 L147,67.6875 " fill="#FFFFFF" style="stroke: #000000; stroke-width: 2.0;"/><text fill="#000000" font-family="sans-serif" font-size="14" font-weight="bold" lengthAdjust="spacingAndGlyphs" textLength="112" x="26" y="60.7344">カスタムテーブル</text><polygon fill="#FEFECE" filter="url(#fere475)" points="250.8589,327.6618,245.6943,330.3645,240.7458,333.4397,234.7441,336.4966,224.7701,338.7649,214.136,340.8838,201.9324,342.5355,186.6291,343.2646,175.9521,344.7184,162.07,345.027,145.1801,344.1503,133.5735,343.8938,119.1352,342.3608,105.7872,340.3969,95.9229,338.5184,87.9504,336.3557,78.5996,333.1768,73.3578,330.251,69.5244,327.0092,69.847,324.1324,72.372,321.2506,73.9296,317.7307,78.5217,314.5747,87.716,312.2412,95.7114,309.5246,107.6629,307.7042,120.8164,306.2677,132.4191,304.7001,146.771,304.079,160.5138,303.7388,174.7117,304.0057,187.4225,304.5122,202.5034,306.1909,212.3568,307.363,223.1858,309.4601,233.737,312.207,239.5919,314.5939,245.7596,317.7295,248.8938,320.8128,250.5836,324.1456" style="stroke: #A80036; stroke-width: 1.5;"/><text fill="#000000" font-family="sans-serif" font-size="14" lengthAdjust="spacingAndGlyphs" textLength="154" x="83.3393" y="328.9112">フィールドと関連付ける</text><polygon fill="#FEFECE" filter="url(#fere475)" points="281.9205,245.4333,277.1924,249.479,268.6619,253.1143,257.0026,256.3516,246.469,259.9825,230.2889,262.3733,213.7232,264.5331,197.7748,266.5393,177.4988,267.1704,159.4428,267.739,143.0493,268.0112,124.0563,266.9555,105.8477,265.2383,89.5205,263.0446,71.4276,259.5389,60.4631,256.6631,50.1871,253.0143,43.2955,249.219,39.9897,245.3775,35.708,240.5648,38.4153,236.6253,45.4579,233.088,50.4811,228.6824,59.3411,224.8304,73.131,221.9146,86.786,218.9692,103.4596,216.8331,120.2311,215.0076,143.5877,215.0531,158.6333,213.8234,177.1144,214.0097,198.7935,215.6553,215.2649,216.9909,233.6464,219.6359,244.4426,221.5391,261.1204,225.6696,270.0298,229.0182,276.2058,232.6564,279.3413,236.4605,281.4991,240.8068" style="stroke: #A80036; stroke-width: 1.5;"/><text fill="#000000" font-family="sans-serif" font-size="14" lengthAdjust="spacingAndGlyphs" textLength="224" x="48.3447" y="245.8123">フィールドとの関連付けを削除する</text><polygon fill="#FEFECE" filter="url(#fere475)" points="242.9846,163.2404,241.3723,166.5138,235.6596,169.1546,227.2066,171.3764,221.522,174.3355,211.3959,176.2799,198.2435,177.4279,186.1844,178.6185,173.1035,179.2715,160.6328,179.6699,147.0125,179.3317,133.7574,178.5347,123.9612,177.9309,110.4418,175.8389,102.6598,174.3959,92.0335,171.6328,86.5093,169.3734,82.0784,166.7265,76.7015,163.2662,75.4715,160.2112,79.1018,157.7929,81.204,154.6314,86.8199,151.9685,93.8074,149.4119,101.8927,147.0012,111.0633,144.8386,123.1401,143.4448,134.0104,141.9825,146.6546,141.2298,162.3801,141.5751,173.9924,141.4544,185.6084,141.8769,198.1767,143.1141,208.7069,144.5231,219.7553,146.7124,228.6294,149.0752,236.3992,151.8477,240.1092,154.3299,242.3221,157.0672,244.3134,160.2962" style="stroke: #A80036; stroke-width: 1.5;"/><text fill="#000000" font-family="sans-serif" font-size="14" lengthAdjust="spacingAndGlyphs" textLength="140" x="90.7351" y="165.1904">プレビューを確認する</text><polygon fill="#FBFB77" filter="url(#fere475)" points="59,80.6992,59.0926,80.6992,58.7698,85.7613,58.8072,90.8234,59.2141,95.8855,58.8485,100.9477,59,106.0098,59,106.694,69.15,105.3754,79.3,106.4479,89.45,106.3736,99.6,105.4317,109.75,105.5557,119.9,105.4979,130.05,106.1126,140.2,105.9912,150.35,106.0245,160.5,105.4928,170.65,106.6419,180.8,105.7665,190.95,105.6541,201.1,106.5766,211.25,106.4649,221.4,106.5267,231.55,105.8756,241.7,105.9445,251.85,105.4277,262,106.0098,261.8031,106.0098,262.0053,102.9477,261.8951,99.8855,261.9288,96.8234,261.8723,93.7613,262,90.6992,261.9963,90.6955,260.0948,88.7941,257.8422,86.5415,255.8504,84.5497,253.9086,82.6078,252,80.6992,252,80.7176,241.8421,81.0564,231.6842,80.344,221.5263,79.9566,211.3684,80.1177,201.2105,80.5778,191.0526,79.9733,180.8947,81.3059,170.7368,80.672,160.5789,80.0193,150.4211,80.4718,140.2632,81.3884,130.1053,80.448,119.9474,80.5163,109.7895,80.6048,99.6316,80.3098,89.4737,81.2449,79.3158,80.4713,69.1579,79.9728,59,80.6992" style="stroke: #A80036; stroke-width: 1.0;"/><polygon fill="#FBFB77" points="59,80.6992,59.1039,80.6992,59.035,85.7613,59.1345,90.8234,59.1249,95.8855,59.0426,100.9477,59,106.0098,59,105.4135,68.75,106.5472,78.5,105.7323,88.25,106.6199,98,105.8131,107.75,106.3733,117.5,105.8313,127.25,105.467,137,106.0456,146.75,106.3116,156.5,106.0098,156.7028,106.0329,157.296,113.0252,157.9451,120.0239,158.9011,127.0576,159.4922,134.0496,160.5,141.0892,160.6271,141.1037,161.1214,134.053,162.2127,127.0703,163.0735,120.0613,163.5087,113.0038,164.5,106.0098,164.5,106.5342,174.25,106.0308,184,105.8419,193.75,106.1273,203.5,106.099,213.25,106.218,223,106.614,232.75,105.5974,242.5,105.5532,252.25,105.7109,262,106.0098,262.2244,106.0098,262.0247,102.9477,261.8246,99.8855,261.9639,96.8234,262.2485,93.7613,262,90.6992,262.0807,90.7799,260.1725,88.8717,258.0704,86.7697,255.8882,84.5874,254.0477,82.747,252,80.6992,252,80.494,241.8421,81.2316,231.6842,80.1642,221.5263,81.3085,211.3684,81.1815,201.2105,80.2432,191.0526,80.6864,180.8947,80.4036,170.7368,81.2647,160.5789,80.6743,150.4211,81.3288,140.2632,79.9981,130.1053,80.8256,119.9474,81.0221,109.7895,81.3975,99.6316,80.8026,89.4737,81.3556,79.3158,80.704,69.1579,80.4777,59,80.6992" style="stroke: #A80036; stroke-width: 1.0;"/><path d="M252,80.6992 L252.2434,80.6992 L252.1568,82.6992 L252.3198,84.6992 L251.8933,86.6992 L252.1134,88.6992 L252,90.6992 " fill="#FBFB77" style="stroke: #A80036; stroke-width: 1.0;"/><path d="M262,90.6992 L262,90.4193 L260,90.5961 L258,90.8915 L256,90.9997 L254,90.6551 L252,90.6992 " fill="#FBFB77" style="stroke: #A80036; stroke-width: 1.0;"/><text fill="#000000" font-family="sans-serif" font-size="13" lengthAdjust="spacingAndGlyphs" textLength="182" x="65" y="98.2676">コンテンツ管理と連携する場合</text><!--entity ユーザー--><polygon fill="#FEFECE" filter="url(#fere475)" points="378.5373,211.983,377.8601,214.5255,376.7496,215.8251,374.7839,216.981,372.7164,217.3632,370.021,218.1227,367.7856,217.2434,366.2255,216.3781,364.502,214.4283,363.1073,212.2824,362.9391,209.9167,362.8136,207.8075,363.843,205.8279,365.4487,203.4517,366.7282,202.7146,368.875,202.3896,370.7618,202.1143,372.9126,201.9909,374.301,202.3181,375.6952,203.0467,376.9724,204.0344,377.9863,205.6872,378.9694,207.068,378.9549,209.1406,378.698,210.7292" style="stroke: #A80036; stroke-width: 2.0;"/><path d="M371,217.6992 L371.256,217.6992 L371.2029,223.0992 L371.4861,228.4992 L371.6116,233.8992 L371.5477,239.2992 L371,244.6992 M358,225.6992 L358,225.786 L363.2,225.3412 L368.4,225.3473 L373.6,225.4726 L378.8,225.0536 L384,225.6992 M371,244.6992 L371.4799,245.1151 L368.6655,247.9293 L365.5625,250.4933 L363.407,253.8786 L360.9779,257.0268 L358,259.6992 M371,244.6992 L370.7347,244.4693 L373.7804,247.8556 L376.6674,251.1043 L379.3007,254.1331 L381.5241,256.8068 L384,259.6992 " fill="#FEFECE" style="stroke: #A80036; stroke-width: 2.0;"/><text fill="#000000" font-family="sans-serif" font-size="14" lengthAdjust="spacingAndGlyphs" textLength="56" x="343" y="280.2344">ユーザー</text><path d="M235.21,309.7192 L235.187,309.6347 L238.892,309.0482 L242.3858,307.6847 L245.9622,306.6252 L249.5883,305.7484 L253.2025,304.8277 L253.1588,304.6871 L256.9518,303.9707 L260.4582,302.3331 L264.107,301.1531 L267.8153,300.1643 L271.51,299.1317 L271.4648,299.0063 L275.2381,298.1221 L278.7907,296.6262 L282.3497,295.1478 L286.0096,293.9492 L289.615,292.5995 L289.6707,292.7304 L293.1734,291.3107 L296.5449,289.5829 L300.1293,288.3551 L303.5701,286.79 L307,285.1992 L307.1042,285.4035 L308.8374,284.1849 L310.6304,283.0834 L312.4844,282.1016 L314.3961,281.2329 L316.3433,280.4338 L316.5028,280.705 L318.291,279.5324 L320.0046,278.233 L322.017,277.4416 L323.7392,276.1568 L325.5488,275.0205 L325.455,274.8767 L327.2423,273.7411 L329.109,272.7271 L330.986,271.7288 L332.8092,270.6481 L334.4148,269.2341 L334.325,269.107 L335.9722,267.9048 L337.6961,266.8111 L339.5906,265.9588 L340.8991,264.2774 L342.74,263.3492 " fill="none" style="stroke: #A80036; stroke-width: 1.0;"/><polygon fill="#A80036" points="230.23,310.9692,230.2719,311.2085,232.1845,311.3903,234.0844,311.499,236.0306,311.8719,237.9691,312.2016,239.9314,312.667,239.9791,312.7465,239.0844,312.2901,237.9885,311.4984,237.0239,310.9256,235.9871,310.2324,235.0807,309.7565,235.1826,309.8177,235.6188,308.76,236.2821,307.8386,236.7563,306.8037,237.2683,305.7915,237.9911,304.9058,238.1404,305.0969,236.5777,306.2961,234.9808,307.4516,233.3139,308.5175,231.7554,309.7223,230.23,310.9692" style="stroke: #A80036; stroke-width: 1.0;"/><path d="M288.34,241.1992 L288.34,241.8909 L299.26,242.1631 L310.18,241.9801 L321.1,241.9004 L332.02,241.6936 L342.94,241.1992 " fill="none" style="stroke: #A80036; stroke-width: 1.0;"/><polygon fill="#A80036" points="283.09,241.1992,283.0912,241.2018,284.8191,241.8396,286.6089,242.6168,288.5143,243.6538,290.2897,244.3985,292.09,245.1992,291.9388,245.048,291.4411,244.5504,290.4956,243.6048,289.7146,242.8238,288.898,242.0073,288.09,241.1992,288.2173,241.3266,288.9646,240.4738,289.5444,239.4536,290.5338,238.843,291.4068,238.116,292.09,237.1992,292.1223,237.2718,290.2283,237.8605,288.4275,238.6585,286.6478,239.5044,284.9175,240.4611,283.09,241.1992" style="stroke: #A80036; stroke-width: 1.0;"/><path d="M233.9,172.4592 L233.8705,172.3406 L237.4812,173.0504 L241.2208,174.2778 L244.9581,175.4958 L248.53,176.0495 L252.2055,177.0194 L252.1907,176.9687 L255.8951,177.9663 L259.6169,179.0236 L263.4831,180.5764 L267.1776,181.54 L270.8588,182.458 L270.8219,182.3513 L274.6297,183.9677 L278.2548,185.0553 L281.9688,186.4004 L285.6766,187.7274 L289.3077,188.8322 L289.4215,189.1055 L292.7984,190.1909 L296.3969,191.8087 L299.8313,193.0321 L303.5494,194.9369 L307,196.1992 L306.8819,195.967 L308.9253,197.2394 L310.6827,197.9496 L312.5186,198.8139 L314.4982,199.9612 L316.4155,200.9856 L316.5094,201.1439 L318.2773,202.1039 L319.9457,202.8961 L322.0226,204.3771 L323.8226,205.3912 L325.6613,206.4705 L325.6435,206.4437 L327.2671,207.3941 L329.0659,208.6082 L330.8215,209.7574 L332.7785,211.2097 L334.5414,212.3697 L334.3585,212.1174 L336.3545,213.7816 L337.6735,214.5119 L339.452,215.8762 L341.2199,217.2259 L342.86,218.3992 " fill="none" style="stroke: #A80036; stroke-width: 1.0;"/><polygon fill="#A80036" points="228.84,171.3192,228.8165,171.2877,230.5557,172.6787,232.0412,173.7292,233.7008,175.0135,235.0862,175.9297,236.7379,177.2033,236.8776,177.2915,236.076,176.2103,235.3719,175.1906,234.7453,174.2198,234.4833,173.4794,233.7172,172.4205,233.7147,172.4166,234.5505,171.6212,235.5096,171.0211,236.464,170.4135,237.628,170.1379,238.5,169.3998,238.4765,169.2813,236.5411,169.6482,234.678,170.3788,232.7458,170.7617,230.8084,171.1187,228.84,171.3192" style="stroke: #A80036; stroke-width: 1.0;"/></g></svg>