<?xml version="1.0" encoding="UTF-8" standalone="no"?><svg xmlns="http://www.w3.org/2000/svg" xmlns:xlink="http://www.w3.org/1999/xlink" contentScriptType="application/ecmascript" contentStyleType="text/css" height="812px" preserveAspectRatio="none" style="width:453px;height:812px;" version="1.1" viewBox="0 0 453 812" width="453px" zoomAndPan="magnify"><defs><filter height="300%" id="fno4t79" width="300%" x="-1" y="-1"><feGaussianBlur result="blurOut" stdDeviation="2.0"/><feColorMatrix in="blurOut" result="blurOut2" type="matrix" values="0 0 0 0 0 0 0 0 0 0 0 0 0 0 0 0 0 0 .4 0"/><feOffset dx="4.0" dy="4.0" in="blurOut2" result="blurOut3"/><feBlend in="SourceGraphic" in2="blurOut3" mode="normal"/></filter></defs><g><text fill="#000000" font-family="sans-serif" font-size="18" lengthAdjust="spacingAndGlyphs" textLength="270" x="100" y="17.4023">ユースケース：カスタムテーブル</text><!--cluster カスタムテーブル--><polygon fill="#FFFFFF" filter="url(#fno4t79)" points="22,45.1992,22,45.1656,31.8333,45.0722,41.6667,45.5908,51.5,44.7892,61.3333,45.496,71.1667,44.6622,81,45.7589,90.8333,45.6769,100.6667,45.1394,110.5,44.7965,120.3333,45.5293,130.1667,44.5411,140,45.1992,140.0929,45.2281,141.5862,49.7548,142.6893,54.1601,144.2123,58.696,145.7988,63.2517,147,67.6875,147,67.1881,156.7619,68.2811,166.5238,67.4912,176.2857,67.3353,186.0476,68.21,195.8095,67.9584,205.5714,67.9426,215.3333,67.8592,225.0952,67.5399,234.8571,67.0491,244.619,67.7987,254.381,67.8762,264.1429,67.6249,273.9048,68.377,283.6667,67.7269,293.4286,67.4188,303.1905,67.3975,312.9524,67.0428,322.7143,66.9961,332.4762,68.1001,342.2381,68.3795,352,67.6875,352.1323,67.6875,351.5528,77.6539,352.6221,87.6202,352.0849,97.5866,351.8585,107.553,351.9915,117.5194,351.4322,127.4857,351.3822,137.4521,351.3349,147.4185,351.8692,157.3849,351.8717,167.3512,352.595,177.3176,352.2813,187.284,352.693,197.2504,351.8311,207.2167,352.3784,217.1831,352.2132,227.1495,351.5492,237.1159,352.4996,247.0822,352.6813,257.0486,351.6754,267.015,352.375,276.9814,351.3745,286.9477,352.0202,296.9141,352.1089,306.8805,352.0452,316.8469,352.0463,326.8132,351.5961,336.7796,352.2346,346.746,352.5105,356.7124,352.1388,366.6787,351.7298,376.6451,351.7081,386.6115,351.9889,396.5779,351.9752,406.5442,351.4915,416.5106,351.937,426.477,352.3695,436.4434,352.2486,446.4097,352.4393,456.3761,351.8547,466.3425,352.0341,476.3089,352.199,486.2752,352.563,496.2416,351.6146,506.208,352.2425,516.1744,352.5371,526.1407,351.3467,536.1071,351.6016,546.0735,352.5523,556.0399,351.6089,566.0062,351.33,575.9726,351.8561,585.939,351.9659,595.9054,351.5684,605.8717,352.6457,615.8381,351.9743,625.8045,351.6077,635.7709,352.6058,645.7372,351.2562,655.7036,352.2775,665.67,352.7323,675.6363,351.586,685.6027,352.4951,695.5691,351.5385,705.5355,351.7581,715.5018,352.2637,725.4682,352.5413,735.4346,351.8188,745.401,351.8008,755.3673,352.578,765.3337,352.6215,775.3001,352.4953,785.2665,352.356,795.2328,352,805.1992,352,805.0742,342,805.2378,332,804.5481,322,805.5386,312,804.971,302,804.7711,292,805.3481,282,804.8493,272,804.9542,262,805.5783,252,805.1872,242,804.9644,232,805.1988,222,805.4591,212,805.916,202,805.808,192,805.0081,182,805.2052,172,805.8792,162,805.7638,152,805.1968,142,805.2712,132,804.7782,122,805.7156,112,805.6855,102,805.1503,92,804.8729,82,805.4076,72,804.5289,62,805.1265,52,804.8859,42,804.7143,32,805.076,22,805.1992,21.8074,805.1992,21.6952,795.1992,22.3957,785.1992,22.7485,775.1992,21.3076,765.1992,21.976,755.1992,21.8915,745.1992,22.3223,735.1992,21.9776,725.1992,21.7211,715.1992,22.4886,705.1992,21.935,695.1992,21.4016,685.1992,22.2577,675.1992,22.5317,665.1992,22.0491,655.1992,21.9048,645.1992,21.3833,635.1992,21.6246,625.1992,22.1798,615.1992,22.129,605.1992,22.6785,595.1992,21.5931,585.1992,22.4466,575.1992,21.6143,565.1992,21.6668,555.1992,22.1177,545.1992,22.6965,535.1992,22.4387,525.1992,21.4744,515.1992,22.0687,505.1992,22.743,495.1992,21.5221,485.1992,21.6805,475.1992,21.8839,465.1992,21.8801,455.1992,22.3979,445.1992,21.8624,435.1992,22.5399,425.1992,21.4576,415.1992,22.5903,405.1992,21.4118,395.1992,22.2534,385.1992,22.4526,375.1992,22.2147,365.1992,22.5402,355.1992,21.5441,345.1992,22.6293,335.1992,22.5339,325.1992,21.9963,315.1992,21.6553,305.1992,22.057,295.1992,21.9622,285.1992,21.3911,275.1992,21.6045,265.1992,21.9493,255.1992,21.4098,245.1992,22.1624,235.1992,22.2858,225.1992,21.9914,215.1992,22.3959,205.1992,22.6137,195.1992,21.5964,185.1992,22.5504,175.1992,22.543,165.1992,22.6322,155.1992,22.4977,145.1992,21.8974,135.1992,22.3831,125.1992,22.1217,115.1992,21.7489,105.1992,21.8287,95.1992,21.8689,85.1992,21.389,75.1992,21.2703,65.1992,21.8409,55.1992,22,45.1992" style="stroke: #000000; stroke-width: 2.0;"/><path d="M22,67.6875 L22,67.1348 L31.6154,67.9359 L41.2308,67.2946 L50.8462,66.7548 L60.4615,67.5525 L70.0769,66.811 L79.6923,67.3508 L89.3077,66.8229 L98.9231,67.2393 L108.5385,68.2409 L118.1538,67.2774 L127.7692,68.515 L137.3846,67.8693 L147,67.6875 " fill="#FFFFFF" style="stroke: #000000; stroke-width: 2.0;"/><text fill="#000000" font-family="sans-serif" font-size="14" font-weight="bold" lengthAdjust="spacingAndGlyphs" textLength="112" x="26" y="60.7344">カスタムテーブル</text><polygon fill="#FEFECE" filter="url(#fno4t79)" points="301.0161,767.2225,297.0712,771.1881,288.1003,774.4485,280.8053,778.3538,267.7934,781.1365,256.5029,784.2991,239.3256,786.0232,224.4294,787.9757,204.0259,788.3085,185.4503,788.5215,168.4051,788.4431,148.7603,787.0707,133.9129,785.9642,119.1541,784.0307,103.3516,780.9877,92.6563,778.1819,82.554,774.628,77.7183,771.3899,70.5045,766.8339,71.2949,763.3246,71.5651,759.071,78.8328,755.8388,85.3911,752.0459,93.2479,748.2646,104.5055,745.0947,118.1522,742.4522,133.0257,740.2196,151.277,739.0077,168.2071,737.9082,187.147,737.7755,205.3659,738.1131,222.3656,738.9016,237.185,740.0019,254.1366,742.4194,266.7954,744.7685,279.8023,748.0845,290.113,751.6845,297.7064,755.5312,302.032,759.4497,301.3731,762.9881" style="stroke: #A80036; stroke-width: 1.5;"/><text fill="#000000" font-family="sans-serif" font-size="14" lengthAdjust="spacingAndGlyphs" textLength="210" x="81.8014" y="768.0036">カスタムテーブル一覧を表示する</text><polygon fill="#FEFECE" filter="url(#fno4t79)" points="301.0762,681.2358,295.9433,684.9392,290.9707,689.082,281.4395,692.4938,267.7209,695.1205,253.7867,697.6996,237.9023,699.709,223.9114,701.8613,203.8221,702.2635,185.5818,702.5506,169.6063,702.7082,151.1583,701.6,136.4919,700.5334,117.839,697.7404,104.0655,695.1453,92.2742,692.0976,85.8934,689.365,76.8649,685.2016,72.3316,681.2372,71.2852,677.3224,72.7017,673.3219,74.8124,668.9514,85.526,666.0757,92.6369,662.1298,103.1713,658.8002,119.9484,656.8486,134.4072,654.5245,151.6875,653.0983,170.7886,652.478,187.7201,651.902,204.9904,652.0302,224.7385,653.4253,240.1355,654.6532,255.734,656.772,270.8397,659.6612,281.1657,662.3854,290.9978,665.8798,298.9746,669.8111,300.3531,673.0791,304.6813,677.7183" style="stroke: #A80036; stroke-width: 1.5;"/><text fill="#000000" font-family="sans-serif" font-size="14" lengthAdjust="spacingAndGlyphs" textLength="210" x="81.8014" y="682.0036">カスタムテーブルを新規登録する</text><polygon fill="#FEFECE" filter="url(#fno4t79)" points="287.1378,596.4623,286.5005,600.6682,276.8217,603.2181,268.9943,606.4289,261.0337,609.735,246.2626,611.5202,232.4329,613.3905,217.9011,614.8566,203.7162,616.037,187.6838,616.3344,168.8207,615.4338,156.8013,615.4141,138.2945,613.2327,125.7805,611.6285,114.2122,609.4451,104.2008,606.8092,95.7151,603.7237,90.285,600.5595,85.9325,596.9229,83.4517,593.0569,84.1392,589.3326,90.5549,586.4172,94.4621,582.5783,104.4465,579.8493,114.6066,577.0344,128.2909,575.0065,138.4375,572.3137,155.4276,571.3965,171.1257,570.5541,188.7894,570.621,202.4185,570.3528,218.6081,571.3037,234.4673,572.8939,248.5354,574.8451,259.4886,576.8911,270.0619,579.6525,278.9079,582.8185,285.1601,586.1663,290.361,589.9924,290.5058,593.3367" style="stroke: #A80036; stroke-width: 1.5;"/><text fill="#000000" font-family="sans-serif" font-size="14" lengthAdjust="spacingAndGlyphs" textLength="182" x="95.9007" y="597.9235">カスタムテーブルを編集する</text><polygon fill="#FEFECE" filter="url(#fno4t79)" points="289.3239,515.9505,284.1068,519.1336,278.0833,522.4999,269.3346,525.5048,257.899,528.0349,247.6208,530.8235,232.9423,532.5042,219.1804,534.1423,202.2996,534.7206,188.8706,535.5994,171.0975,534.9422,155.1066,534.0357,142.0355,533.0681,127.1741,530.9397,114.3677,528.4799,102.2848,525.3814,95.9296,522.7716,89.8645,519.4656,86.2516,515.9942,82.6779,511.8841,84.0616,508.3153,87.9589,504.8375,95.6814,501.8506,101.6632,498.2278,115.6303,496.263,126.5152,493.6099,138.3691,491.2984,154.2306,490.1292,170.3749,489.3864,186.5226,489.1148,203.1428,489.5145,218.2163,490.2162,231.7768,491.293,247.201,493.5471,259.1041,495.8053,268.4204,498.2859,279.5915,501.9712,283.7426,504.8498,289.5697,508.8157,288.3971,511.8658" style="stroke: #A80036; stroke-width: 1.5;"/><text fill="#000000" font-family="sans-serif" font-size="14" lengthAdjust="spacingAndGlyphs" textLength="182" x="95.9007" y="516.9235">カスタムテーブルを削除する</text><polygon fill="#FEFECE" filter="url(#fno4t79)" points="300.532,432.1156,294.8245,435.6922,288.6002,439.5588,280.6834,443.3269,268.5135,446.2954,255.5026,449.0783,240.22,451.2206,224.3831,452.9654,207.0857,453.9838,187.5533,453.9857,167.3818,453.2172,152.4873,452.8933,131.9303,450.5266,120.9535,449.4279,105.411,446.4423,91.6349,442.9565,84.9751,440.1624,78.7699,436.6221,72.8429,432.3501,72.5439,428.6003,71.4777,424.0517,78.1452,420.6871,81.9448,416.2853,92.8066,413.1672,104.2353,410.0351,116.9985,407.1975,133.984,405.4311,151.6748,404.0955,167.3903,402.7279,187.0536,402.7549,206.7762,403.4243,224.7643,404.431,240.4883,405.7311,257.1795,408.0911,268.7029,410.1895,279.0931,412.928,291.6376,417.021,298.6212,420.7331,299.9291,423.9855,304.73,428.729" style="stroke: #A80036; stroke-width: 1.5;"/><text fill="#000000" font-family="sans-serif" font-size="14" lengthAdjust="spacingAndGlyphs" textLength="210" x="81.8014" y="433.0036">カスタムフィールドと関連付ける</text><polygon fill="#FEFECE" filter="url(#fno4t79)" points="335.9918,340.8425,325.6885,344.7064,318.7429,349.8047,307.8821,354.4033,290.8157,357.8361,275.2734,361.5983,257.3967,364.6807,234.3074,366.2902,207.8812,366.6696,187.41,367.6772,161.2481,366.6624,142.8926,366.4278,120.9243,364.4137,98.9224,361.3263,83.1321,358.4742,65.3625,354.0735,56.1478,350.4146,45.2742,345.3311,39.1764,340.281,35.4207,334.8302,37.972,329.9499,47.0464,325.8205,52.518,320.4036,66.1915,316.4129,80.3082,312.3426,98.3826,309.1276,121.629,307.2057,139.9735,304.5708,162.1517,303.2733,184.2338,302.6139,208.2299,303.1607,231.1838,304.3891,254.2881,306.6486,276.9914,309.8876,293.9805,312.9987,307.4366,316.4672,318.0555,320.4296,326.2933,324.9435,334.8465,330.5242,338.6679,335.9892" style="stroke: #A80036; stroke-width: 1.5;"/><text fill="#000000" font-family="sans-serif" font-size="14" lengthAdjust="spacingAndGlyphs" textLength="280" x="46.9423" y="340.1318">カスタムフィールドとの関連付けを削除する</text><polygon fill="#FEFECE" filter="url(#fno4t79)" points="306.8844,245.096,303.1406,249.3578,293.5481,252.7599,283.9018,256.4393,274.2652,260.2672,260.0789,263.0959,240.9433,264.6913,225.9679,266.9112,206.6016,267.742,189.1206,268.4369,165.8885,267.2072,146.6138,266.0896,131.6395,265.0828,114.1706,262.6383,98.7868,259.7276,89.1606,257.1457,78.7232,253.4615,70.5351,249.3815,68.024,245.7145,63.0508,240.7499,65.0281,236.6501,70.7817,232.8297,77.685,228.837,87.8681,225.2755,102.1388,222.4653,114.2521,219.1814,131.4774,217.1664,147.2112,215.1131,167.7036,214.5296,185.7369,213.9559,204.4051,214.1834,224.4217,215.4639,243.3802,217.3457,258.6294,219.3027,273.5703,222.1161,285.4133,225.1849,295.5666,228.8067,301.5818,232.4095,307.0194,236.7192,310.3318,241.3191" style="stroke: #A80036; stroke-width: 1.5;"/><text fill="#000000" font-family="sans-serif" font-size="14" lengthAdjust="spacingAndGlyphs" textLength="224" x="74.8447" y="245.8123">関連フィールドの並び順を変更する</text><polygon fill="#FEFECE" filter="url(#fno4t79)" points="270.1795,163.3992,267.6839,166.4708,263.652,169.4956,256.4369,172.0002,246.7343,174.0413,237.4488,176.1777,225.2355,177.5403,211.8122,178.4193,201.8033,179.7741,188.0579,179.8813,173.1641,179.2521,162.3258,179.0073,150.6263,177.9686,139.032,176.3165,126.0587,173.6873,118.8312,171.7008,110.7271,168.852,106.026,166.1433,104.6124,163.5886,102.1081,160.2424,104.1107,157.4522,107.4877,154.582,112.3618,151.7496,120.3558,149.4229,126.2358,146.5084,137.4046,144.8023,147.6098,142.9809,161.277,142.1577,173.5441,141.3188,187.8772,141.3459,200.8294,141.5315,213.6272,142.2239,224.3461,143.0386,237.8823,145.1344,247.2723,146.9448,256.8858,149.4766,262.0873,151.6622,268.5808,154.7804,271.9614,157.7845,270.2001,160.156" style="stroke: #A80036; stroke-width: 1.5;"/><text fill="#000000" font-family="sans-serif" font-size="14" lengthAdjust="spacingAndGlyphs" textLength="140" x="117.2351" y="165.1904">プレビューを確認する</text><polygon fill="#FBFB77" filter="url(#fno4t79)" points="85.5,80.6992,85.3439,80.6992,85.2654,85.7613,85.3524,90.8234,85.3558,95.8855,85.4424,100.9477,85.5,106.0098,85.5,106.3603,95.65,105.7649,105.8,106.6572,115.95,106.0655,126.1,106.1975,136.25,106.2102,146.4,105.464,156.55,106.0322,166.7,106.4178,176.85,105.3099,187,106.3877,197.15,106.4265,207.3,105.4884,217.45,106.4417,227.6,105.9824,237.75,106.3354,247.9,106.0724,258.05,105.8312,268.2,105.6851,278.35,106.5562,288.5,106.0098,288.5453,106.0098,288.4629,102.9477,288.4537,99.8855,288.3389,96.8234,288.3186,93.7613,288.5,90.6992,288.429,90.6283,286.6588,88.858,284.3384,86.5376,282.6423,84.8415,280.5837,82.783,278.5,80.6992,278.5,81.3061,268.3421,81.2848,258.1842,80.5684,248.0263,80.6008,237.8684,81.1939,227.7105,80.626,217.5526,80.3836,207.3947,81.2344,197.2368,80.5907,187.0789,80.8765,176.9211,81.3405,166.7632,81.3883,156.6053,80.9769,146.4474,80.985,136.2895,80.0472,126.1316,80.5089,115.9737,80.8348,105.8158,80.5709,95.6579,81.1877,85.5,80.6992" style="stroke: #A80036; stroke-width: 1.0;"/><polygon fill="#FBFB77" points="85.5,80.6992,85.6478,80.6992,85.7264,85.7613,85.6131,90.8234,85.4834,95.8855,85.6825,100.9477,85.5,106.0098,85.5,105.9166,95.25,105.9046,105,105.7857,114.75,106.2647,124.5,106.1753,134.25,105.5924,144,105.9858,153.75,105.6665,163.5,106.0975,173.25,105.9907,183,106.0098,182.9718,106.0066,183.6399,113.0074,184.6191,120.0437,185.2324,127.0383,186.2134,134.0749,187,141.0892,187.0629,141.0964,187.574,134.0476,188.6772,127.0662,189.4612,120.0485,190.3337,113.0409,191,106.0098,191,106.4167,200.75,105.8208,210.5,106.0208,220.25,105.9572,230,105.363,239.75,106.4609,249.5,105.4124,259.25,105.7469,269,106.4169,278.75,105.695,288.5,106.0098,288.5794,106.0098,288.7121,102.9477,288.538,99.8855,288.6742,96.8234,288.663,93.7613,288.5,90.6992,288.5859,90.7851,286.5405,88.7398,284.3505,86.5497,282.3825,84.5817,280.4484,82.6476,278.5,80.6992,278.5,80.5063,268.3421,80.2995,258.1842,81.3067,248.0263,81.0012,237.8684,81.0348,227.7105,81.4034,217.5526,80.6118,207.3947,81.396,197.2368,80.8455,187.0789,81.1067,176.9211,80.8691,166.7632,80.722,156.6053,80.7515,146.4474,80.5798,136.2895,80.8329,126.1316,81.163,115.9737,80.51,105.8158,81.3452,95.6579,81.3373,85.5,80.6992" style="stroke: #A80036; stroke-width: 1.0;"/><path d="M278.5,80.6992 L278.6718,80.6992 L278.3242,82.6992 L278.4513,84.6992 L278.4543,86.6992 L278.2648,88.6992 L278.5,90.6992 " fill="#FBFB77" style="stroke: #A80036; stroke-width: 1.0;"/><path d="M288.5,90.6992 L288.5,90.4365 L286.5,90.5211 L284.5,90.5513 L282.5,90.4068 L280.5,90.6754 L278.5,90.6992 " fill="#FBFB77" style="stroke: #A80036; stroke-width: 1.0;"/><text fill="#000000" font-family="sans-serif" font-size="13" lengthAdjust="spacingAndGlyphs" textLength="182" x="91.5" y="98.2676">コンテンツ管理と連携する場合</text><!--entity ユーザー--><polygon fill="#FEFECE" filter="url(#fno4t79)" points="431.9314,441.3827,430.803,442.4591,429.873,444.8311,427.5216,445.7785,425.7163,446.7931,423.3061,446.2834,421.3663,446.0683,419.6011,445.9641,418.0047,443.6325,416.9005,441.6051,415.7126,439.3342,416.1999,436.874,416.6815,435.5029,417.5605,433.9973,419.3185,432.2027,421.0864,431.3726,423.4458,430.288,426.1258,430.7225,428.0836,431.4688,428.9794,432.8125,430.6443,434.4254,431.637,436.8073,432.0936,438.2034,432.1124,439.8381" style="stroke: #A80036; stroke-width: 2.0;"/><path d="M424,446.6992 L424.2595,446.6992 L424.4203,452.0992 L424.4235,457.4992 L423.3987,462.8992 L424.0148,468.2992 L424,473.6992 M411,454.6992 L411,454.8196 L416.2,454.465 L421.4,454.8124 L426.6,454.502 L431.8,455.2513 L437,454.6992 M424,473.6992 L424.22,473.8899 L421.5662,476.8432 L418.7329,479.641 L416.1855,482.6866 L414.0369,486.0779 L411,488.6992 M424,473.6992 L423.9334,473.6415 L426.4248,476.5473 L429.4465,479.9129 L431.4167,482.367 L434.4803,485.7688 L437,488.6992 " fill="#FEFECE" style="stroke: #A80036; stroke-width: 2.0;"/><text fill="#000000" font-family="sans-serif" font-size="14" lengthAdjust="spacingAndGlyphs" textLength="56" x="396" y="509.2344">ユーザー</text><path d="M301.24,753.1492 L301.1974,753.0289 L304.5707,752.3112 L307.7749,751.1154 L310.8085,749.4371 L314.1069,748.5079 L317.3597,747.4495 L317.2176,747.1482 L320.4866,746.0827 L323.6683,744.832 L326.747,743.363 L329.7558,741.7455 L332.7875,740.1767 L332.8352,740.2526 L335.8255,738.6408 L338.388,736.3492 L341.2218,734.4886 L344.121,732.7322 L347.1316,731.1527 L346.9657,730.9578 L349.4915,728.7109 L352.4348,726.9543 L354.9383,724.6812 L357.4307,722.395 L360,720.1992 L359.8243,720.074 L362.0867,717.2526 L364.3106,714.4037 L366.3059,711.3919 L368.5496,708.5572 L370.4758,705.4961 L370.4242,705.4706 L371.3321,703.4543 L372.6777,701.6548 L373.3144,699.5041 L374.2113,697.4824 L375.3797,695.5952 L375.4489,695.6237 L376.6058,693.4497 L377.1394,691.0183 L378.2168,688.8114 L379.2661,686.5929 L380.058,684.2681 L380.0721,684.2731 L380.9715,681.7668 L381.853,679.2542 L382.9875,676.8313 L383.7643,674.2815 L384.5081,671.72 L384.8147,671.8154 L385.1105,668.9321 L386.3058,666.3286 L386.7547,663.4929 L387.9157,660.8787 L388.7278,658.156 L388.7096,658.151 L389.8397,655.3683 L390.3247,652.4066 L391.3059,649.5827 L392.0651,646.6971 L392.7146,643.7811 L392.8821,643.823 L393.7569,640.8581 L394.0807,637.7552 L394.7957,634.7502 L395.8383,631.8272 L396.4663,628.8005 L396.7675,628.8693 L396.9173,625.6667 L397.6978,622.6082 L398.3676,619.5244 L399.0011,616.4323 L399.9804,613.4192 L399.8256,613.3866 L400.7818,610.3346 L401.2594,607.182 L401.9742,604.0792 L402.8227,601.0045 L403.2546,597.8423 L402.9973,597.7922 L403.6927,594.696 L404.1808,591.5595 L405.2318,588.5327 L405.7557,585.4031 L406.2866,582.2749 L406.5053,582.3147 L406.722,579.1822 L407.1137,576.0816 L408.2187,573.1104 L408.7725,570.0392 L409.0739,566.9222 L409.3402,566.9675 L409.5276,563.9263 L410.187,560.9655 L410.7317,557.9851 L411.2705,555.0037 L411.6143,551.9892 L411.4363,551.9607 L412.1731,549.1436 L412.7713,546.3044 L413.1964,543.4374 L413.6468,540.5745 L413.9053,537.6809 L413.8465,537.6722 L414.4742,532.4677 L415.7164,527.3537 L416.2672,522.1378 L416.7041,516.9051 L417.73,511.7592 " fill="none" style="stroke: #A80036; stroke-width: 1.0;"/><polygon fill="#A80036" points="296.29,754.5892,296.3168,754.7859,298.2272,754.7476,300.1961,755.1388,302.1614,755.5035,304.0782,755.5122,306.0489,755.917,306.0152,755.8556,305.0263,755.3157,304.1801,755.0354,302.978,754.1075,302.1965,753.945,301.0911,753.193,301.0578,753.1747,301.6401,752.2038,302.3717,751.3148,302.7422,750.2275,303.3861,749.2904,303.8151,748.2352,303.8702,748.3005,302.3114,749.5076,300.9081,750.8988,299.4051,752.1721,297.7818,753.3028,296.29,754.5892" style="stroke: #A80036; stroke-width: 1.0;"/><path d="M297.88,665.4992 L297.934,665.6588 L301.3162,664.6079 L304.4948,662.9556 L307.8934,661.9532 L311.2669,660.8767 L314.6484,659.8237 L314.6468,659.8201 L317.9599,658.5475 L321.0747,656.8263 L324.4055,655.5939 L327.6679,654.2067 L330.86,652.6605 L330.7972,652.5518 L333.9306,650.9318 L337.0356,649.2626 L339.8761,647.136 L343.1561,645.7693 L346.1116,643.8416 L345.9697,643.6565 L348.9,641.7271 L351.5497,639.4316 L354.2862,637.2494 L357.1959,635.2932 L360,633.1992 L359.8918,633.0942 L362.5668,630.7713 L364.9638,628.1786 L367.3376,625.5633 L370.0052,623.2332 L372.2928,620.5342 L372.0681,620.3675 L374.5997,617.8189 L376.304,614.6566 L378.7072,612.0127 L380.6706,609.0426 L382.8847,606.2584 L383.0824,606.3739 L384.4895,603.0543 L386.5632,600.1239 L388.3565,597.0298 L389.9673,593.8292 L391.9011,590.8171 L392.0028,590.8647 L393.3503,587.5548 L395.1614,584.4619 L396.4938,581.1449 L398.0989,577.9555 L399.4675,574.6555 L399.719,574.751 L400.8048,571.4019 L401.707,567.9831 L403.1559,564.7719 L404.7142,561.6022 L405.7092,558.2187 L405.4027,558.1236 L406.7223,554.9667 L407.8481,551.7497 L408.4737,548.3777 L409.5371,545.1414 L410.7516,541.9519 L410.5566,541.9024 L411.4339,538.7933 L412.1257,535.6372 L413.03,532.5349 L414.0367,529.4586 L414.72,526.3003 L414.7086,526.298 L415.3831,523.3943 L416.07,520.4933 L416.6626,517.5727 L416.8198,514.562 L417.74,511.7092 " fill="none" style="stroke: #A80036; stroke-width: 1.0;"/><polygon fill="#A80036" points="293.07,666.8692,293.0718,666.8819,295.0036,667.0278,296.971,667.4248,298.9521,667.918,300.8512,667.8326,302.8215,668.2505,302.7488,668.1199,301.8706,667.7679,300.7907,667.0537,299.8204,666.5362,298.7866,665.9047,297.8787,665.4994,297.8,665.4556,298.4668,664.5319,298.902,663.4793,299.7245,662.6423,300.0253,661.5149,300.6298,660.5566,300.5953,660.5153,299.0709,661.7629,297.7517,663.2563,296.0826,664.3306,294.7084,665.7582,293.07,666.8692" style="stroke: #A80036; stroke-width: 1.0;"/><path d="M285.27,582.0092 L285.2749,582.0286 L287.2761,581.7947 L289.178,581.1651 L291.0676,580.4862 L293.0277,580.0883 L294.9599,579.5791 L294.9646,579.5958 L296.8166,578.7191 L298.8375,578.4373 L300.7882,577.9084 L302.7031,577.2531 L304.6809,576.8198 L304.6735,576.7965 L306.6537,576.3084 L308.6315,575.8125 L310.5235,575.0493 L312.4465,574.3827 L314.3678,573.7109 L314.339,573.6317 L316.1726,572.7046 L318.1386,572.1428 L320.0535,571.44 L322.077,571.0362 L323.955,570.2317 L323.8895,570.0722 L325.7899,569.337 L327.7273,568.692 L329.6382,567.9822 L331.5549,567.2869 L333.3772,566.3616 L333.4793,566.5808 L335.2915,565.6681 L337.0816,564.7082 L338.7827,563.5573 L340.7056,562.8823 L342.5691,562.0798 L342.6645,562.2599 L344.458,561.3441 L346.2612,560.4466 L347.9809,559.3915 L349.6282,558.1999 L351.4651,557.3659 L351.43,557.3079 L353.0374,556.1101 L354.9043,555.3409 L356.5212,554.1588 L358.1519,552.9994 L360,552.1992 L360.1809,552.4395 L362.287,550.5317 L364.72,549.058 L366.7133,547.0004 L369.0116,545.3478 L371.3047,543.6883 L371.1782,543.5563 L373.1773,541.4923 L375.43,539.6929 L377.2952,537.4893 L379.7822,535.9343 L381.67,533.7542 L381.5288,533.6318 L383.7911,531.8108 L385.4859,529.4978 L387.1971,527.1991 L389.3915,525.3192 L391.0303,522.9577 L390.9925,522.9294 L392.8437,520.8541 L394.55,518.6705 L395.8961,516.2179 L397.7255,514.1263 L399.32,511.8592 " fill="none" style="stroke: #A80036; stroke-width: 1.0;"/><polygon fill="#A80036" points="280.14,583.1892,280.1467,583.2236,282.0683,583.5434,284.0498,584.1693,285.9598,584.43,287.8375,584.5257,289.8053,585.0817,289.7684,585.0228,288.9494,584.6433,288.0004,584.0565,286.804,583.0756,285.8397,582.4645,285.0141,582.0743,285.0487,582.096,285.6035,581.1085,286.0223,580.0356,286.8069,579.1923,287.4239,578.2438,288.0215,577.2831,288.1301,577.428,286.4975,578.5341,284.9599,579.767,283.2839,580.8151,281.7296,582.0258,280.14,583.1892" style="stroke: #A80036; stroke-width: 1.0;"/><path d="M272.87,497.0292 L272.8441,496.8841 L283.0732,494.9163 L293.2463,492.6346 L303.521,490.922 L313.8906,489.7398 L324.0782,487.5394 L334.2652,485.336 L344.814,485.1569 L354.9674,482.7648 L365.179,480.6991 L375.3923,478.6424 L385.6423,476.7911 L395.91,475.0392 " fill="none" style="stroke: #A80036; stroke-width: 1.0;"/><polygon fill="#A80036" points="267.89,497.9192,267.8823,497.8878,269.7915,498.3408,271.6864,498.7354,273.683,499.5451,275.5831,499.9611,277.4556,500.2643,277.4568,500.2659,276.5548,499.6588,275.4569,498.7697,274.7983,498.5126,273.8686,497.8655,272.8112,497.0348,272.6258,496.9059,273.5808,496.192,274.1454,495.2066,274.7872,494.2749,275.1921,493.1784,276.0406,492.3904,275.9191,492.2114,274.3306,493.3784,272.736,494.5366,271.2375,495.8363,269.6522,497.0082,267.89,497.9192" style="stroke: #A80036; stroke-width: 1.0;"/><path d="M282.48,445.0892 L282.347,444.3448 L291.9191,446.7436 L301.2386,447.7286 L310.985,451.1033 L320.3445,452.3119 L329.6322,453.1193 L339.1213,455.0538 L348.7474,457.7546 L358.1996,459.4827 L367.3953,459.7747 L376.7757,461.1007 L386.2684,463.0551 L395.82,465.3392 " fill="none" style="stroke: #A80036; stroke-width: 1.0;"/><polygon fill="#A80036" points="277.51,444.1992,277.4916,444.172,279.0912,445.225,280.7259,446.33,282.3643,447.4404,284.0001,448.5471,285.6733,449.7092,285.5359,449.6132,285.2232,448.9201,284.3735,447.8517,283.5323,446.7894,283.0094,445.9494,282.4332,445.0722,282.4891,445.1522,283.2668,444.29,284.2397,443.7071,285.0785,442.9323,286.1233,442.4523,287.0702,441.8321,287.0897,441.9111,285.1925,442.4443,283.2799,442.9156,281.3187,443.1905,279.4113,443.6826,277.51,444.1992" style="stroke: #A80036; stroke-width: 1.0;"/><path d="M304.66,357.8892 L304.7225,358.0532 L307.6013,359.084 L310.478,360.1094 L313.4062,361.2698 L316.255,362.2219 L319.2005,363.4277 L319.2075,363.4433 L322.1725,364.9859 L324.935,366.0755 L327.7703,367.3282 L330.4987,368.3416 L333.4213,369.7892 L333.4737,369.8884 L336.1225,371.1732 L338.98,372.8524 L341.5226,373.9366 L344.282,375.4305 L347.0964,377.0283 L347.1845,377.1674 L349.5661,378.4872 L352.3199,380.3947 L354.8853,382.0047 L357.275,383.3372 L360,385.1992 L359.9757,385.1689 L362.3815,387.1457 L364.644,388.9441 L367.1153,391.0024 L369.2098,392.5916 L371.518,394.4467 L371.3414,394.2723 L373.6716,396.6252 L375.5371,398.5189 L377.6659,400.6727 L380.007,403.0364 L382.0563,405.1117 L381.9155,404.9954 L383.7079,407.2054 L385.9942,409.8234 L387.5335,411.8243 L389.7933,414.4204 L391.5464,416.598 L391.3861,416.4833 L393.2611,418.9688 L395.1628,421.4733 L396.578,423.63 L398.0582,425.8332 L399.92,428.3092 " fill="none" style="stroke: #A80036; stroke-width: 1.0;"/><polygon fill="#A80036" points="299.71,356.1892,299.733,356.2141,300.9869,357.3434,302.7675,359.0423,303.9615,360.1069,305.463,361.5039,306.9412,362.8758,307.0824,362.9453,306.3979,361.8392,305.9811,360.8648,305.3773,359.7984,304.9413,358.8146,304.4433,357.8003,304.4834,357.8816,305.4095,357.2012,306.5699,356.997,307.5768,356.4807,308.6036,356.0049,309.5189,355.3024,309.5036,355.1337,307.5531,355.4357,305.5747,355.4293,303.6491,356.0062,301.6505,355.7765,299.71,356.1892" style="stroke: #A80036; stroke-width: 1.0;"/><path d="M303.46,253.9592 L303.4798,254.013 L306.4751,254.9379 L309.5975,256.2084 L312.6277,257.2283 L315.6318,258.177 L318.8123,259.6055 L318.7019,259.3724 L321.771,261.0192 L324.6292,262.221 L327.7133,263.8995 L330.5644,265.0863 L333.5712,266.6017 L333.6551,266.7384 L336.3319,268.2873 L338.9882,269.8026 L341.7586,271.5042 L344.7671,273.5939 L347.4095,275.0867 L347.4102,275.0876 L350.0883,277.3093 L352.5316,279.2387 L354.8123,280.9655 L357.3215,282.977 L360,285.1992 L359.9635,285.1628 L361.5804,286.7856 L362.6833,287.8968 L364.5015,289.72 L365.9708,291.1958 L367.2444,292.4769 L367.2551,292.486 L368.8281,294.2564 L369.6766,295.4101 L371.3708,297.2837 L372.78,298.9146 L373.9112,300.3089 L373.894,300.2962 L375.2475,302.0555 L376.3121,303.6025 L377.3407,305.1229 L378.7032,306.8888 L380.0243,308.6242 L380.1783,308.7227 L380.99,310.2731 L382.0043,311.9532 L383.6436,314.033 L384.2702,315.465 L385.6078,317.3519 L385.5111,317.2977 L386.6282,319.1684 L387.6474,320.9842 L388.468,322.6888 L389.4078,324.4602 L390.6856,326.4208 L390.9361,326.5441 L391.3478,328.1622 L392.3004,330.0465 L393.2573,331.9328 L394.2622,333.8428 L395.2818,335.7601 L395.0563,335.6622 L396.0569,337.645 L396.8325,339.5301 L397.8564,341.5229 L398.5266,343.3623 L399.4202,345.2986 L399.2412,345.23 L399.9512,347.1515 L401.1814,349.2724 L401.6246,351.0916 L402.1387,352.9381 L403.125,354.9655 L403.101,354.9573 L403.9827,356.9776 L404.6799,358.9354 L405.376,360.8928 L406.0196,362.8324 L406.4201,364.6896 L406.2178,364.629 L407.1315,366.6705 L407.4355,368.5294 L407.9646,370.4557 L408.9728,372.5255 L409.3295,374.4001 L409.2766,374.3869 L410.1885,378.1962 L410.981,381.9758 L412.2327,385.8697 L413.3438,389.7286 L414.0872,393.4959 L413.9559,393.4707 L414.7601,397.1284 L415.4688,400.7678 L416.4397,404.4577 L417.0166,408.0716 L417.59,411.685 L417.3458,411.6493 L418.0367,415.0218 L418.5955,418.375 L418.8193,421.6793 L419.8279,425.0981 L420.03,428.3992 " fill="none" style="stroke: #A80036; stroke-width: 1.0;"/><polygon fill="#A80036" points="298.47,252.4092,298.395,252.3237,300.0728,253.8473,301.4894,255.0731,303.0549,256.4687,304.3307,257.534,305.8739,258.904,305.6619,258.7928,305.3147,257.8849,304.8514,256.9162,304.356,255.9306,303.7736,254.8993,303.2439,253.8957,303.3239,254.048,304.1768,253.2388,305.1765,252.7091,306.3538,252.5176,307.1659,251.6306,308.2523,251.2658,308.2609,251.34,306.3005,251.5348,304.3243,251.5945,302.3959,252.0631,300.4159,252.0899,298.47,252.4092" style="stroke: #A80036; stroke-width: 1.0;"/><path d="M276.48,160.0692 L276.502,160.1985 L278.7368,160.4333 L280.9684,160.6486 L283.2405,161.1027 L285.4836,161.3858 L287.7813,161.9904 L287.7572,161.8827 L290.0524,162.5359 L292.317,163.0524 L294.6365,163.8147 L296.8883,164.2739 L299.0925,164.5206 L299.0105,164.2342 L301.2995,165.0514 L303.5956,165.8932 L305.8254,166.5036 L307.9702,166.8171 L310.2855,167.7261 L310.377,167.9798 L312.3873,168.2724 L314.6042,169.1381 L316.9262,170.2951 L319.0725,170.9651 L321.2325,171.673 L321.2098,171.6225 L323.3497,172.6297 L325.4561,173.5624 L327.6829,174.7629 L329.6538,175.3944 L331.8054,176.4275 L331.9537,176.693 L333.6864,177.315 L335.6895,178.4208 L337.8655,179.8361 L339.97,181.1233 L341.8762,182.0559 L341.8993,182.0891 L343.9031,183.569 L345.573,184.569 L347.553,186.0146 L349.3074,187.1361 L351.3171,188.6244 L351.1609,188.4453 L352.9797,190.0546 L354.6921,191.5418 L356.6441,193.3037 L358.2291,194.645 L360,196.1992 L360.151,196.3253 L361.2993,197.7154 L362.2409,198.9327 L363.7737,200.6438 L364.5751,201.744 L365.9545,203.3271 L366.1635,203.4546 L367.0896,205.1782 L368.2399,207.0386 L369.4046,208.9078 L370.442,210.6993 L371.5846,212.555 L371.7785,212.6479 L372.3543,214.6328 L373.8072,217.0378 L374.5531,219.1042 L375.563,221.2971 L376.8949,223.6441 L376.7962,223.6054 L378.0544,226.2495 L378.7116,228.6574 L380.1024,231.3537 L381.162,233.9197 L381.8898,236.3555 L381.7503,236.3091 L382.6136,239.1036 L383.9334,242.0498 L384.874,244.87 L385.8101,247.6886 L386.574,250.4501 L386.6077,250.4598 L387.562,253.5302 L388.4174,256.5722 L389.4555,259.6667 L389.8622,262.5798 L390.9517,265.6891 L391.0824,265.722 L391.633,268.8841 L392.3509,272.0884 L393.6478,275.4389 L393.9436,278.5367 L395.0277,281.8334 L394.7711,281.7758 L395.9802,285.2398 L396.325,288.5096 L397.3774,291.9385 L397.7455,295.2135 L398.8063,298.6442 L398.5055,298.5834 L399.4648,302.0841 L400.1075,305.5207 L401.1403,309.0363 L401.4757,312.4108 L402.292,315.8825 L402.5785,315.9351 L403.2434,319.4251 L403.7707,322.8899 L403.9311,326.2874 L404.8862,329.8307 L405.4894,333.3094 L405.4644,333.3052 L405.8117,336.741 L406.4101,340.2189 L407.0082,343.6968 L407.8326,347.2126 L408.4029,350.6858 L408.3769,350.6818 L408.6492,354.06 L409.4487,357.5195 L409.943,360.9319 L410.2474,364.315 L411.037,367.773 L411.2046,367.7968 L411.5828,371.0953 L411.9854,374.3972 L412.1342,377.6629 L413.1351,381.0501 L413.3963,384.3318 L413.6261,384.3622 L413.582,387.4594 L413.9661,390.6133 L414.6125,393.8019 L415.3208,396.9986 L415.4853,400.1234 L415.6348,400.1413 L416.3381,405.8096 L416.7362,411.4414 L417.5321,417.1208 L417.9865,422.7594 L418.87,428.4492 " fill="none" style="stroke: #A80036; stroke-width: 1.0;"/><polygon fill="#A80036" points="271.29,159.3592,271.3928,159.5258,272.9647,160.391,274.6823,161.4921,276.3613,162.5309,277.9276,163.3869,279.6717,164.531,279.5591,164.4453,279.0721,163.6962,278.317,162.743,277.6492,161.8562,277.033,161.0088,276.2448,160.0303,276.3232,160.1334,277.2129,159.4343,278.1205,158.7586,279.0691,158.1369,279.8178,157.2526,280.7454,156.6034,280.7175,156.5075,278.8523,157.1477,277.014,157.8797,275.0949,158.3347,273.1446,158.6829,271.29,159.3592" style="stroke: #A80036; stroke-width: 1.0;"/></g></svg>