<?xml version="1.0" encoding="UTF-8" standalone="no"?><svg xmlns="http://www.w3.org/2000/svg" xmlns:xlink="http://www.w3.org/1999/xlink" contentScriptType="application/ecmascript" contentStyleType="text/css" height="533px" preserveAspectRatio="none" style="width:395px;height:533px;" version="1.1" viewBox="0 0 395 533" width="395px" zoomAndPan="magnify"><defs><filter height="300%" id="fp7t9n2" width="300%" x="-1" y="-1"><feGaussianBlur result="blurOut" stdDeviation="2.0"/><feColorMatrix in="blurOut" result="blurOut2" type="matrix" values="0 0 0 0 0 0 0 0 0 0 0 0 0 0 0 0 0 0 .4 0"/><feOffset dx="4.0" dy="4.0" in="blurOut2" result="blurOut3"/><feBlend in="SourceGraphic" in2="blurOut3" mode="normal"/></filter></defs><g><text fill="#000000" font-family="sans-serif" font-size="18" lengthAdjust="spacingAndGlyphs" textLength="171" x="117" y="17.4023">メールフィールドAPI</text><!--class Api\MailMessagesController--><polygon fill="#FEFECE" filter="url(#fp7t9n2)" points="189,129.1992,189,128.8962,198.9444,129.3979,208.8889,128.9814,218.8333,129.663,228.7778,129.4194,238.7222,129.2775,248.6667,128.5593,258.6111,129.6931,268.5556,129.0785,278.5,129.5204,288.4444,129.3416,298.3889,129.7776,308.3333,128.5298,318.2778,128.7615,328.2222,129.1052,338.1667,129.11,348.1111,128.8536,358.0556,128.6662,368,129.1992,367.8943,129.1992,368.4691,139.2622,367.7412,149.3251,368.4492,159.3881,368.609,169.451,367.9272,179.514,368.2989,189.5769,367.3078,199.6399,367.4207,209.7028,367.6653,219.7658,367.9782,229.8287,367.3318,239.8917,367.9137,249.9546,368,260.0176,368,260.6805,358.0556,259.2985,348.1111,259.7691,338.1667,259.5374,328.2222,259.4354,318.2778,260.6715,308.3333,259.4541,298.3889,260.4797,288.4444,259.3679,278.5,260.0074,268.5556,259.9873,258.6111,259.8431,248.6667,259.4374,238.7222,259.671,228.7778,259.6794,218.8333,259.7127,208.8889,259.9205,198.9444,259.6475,189,260.0176,188.7022,260.0176,189.2547,249.9546,188.4548,239.8917,188.4394,229.8287,189.4835,219.7658,189.5162,209.7028,188.7052,199.6399,189.5979,189.5769,189.1769,179.514,189.4614,169.451,189.7182,159.3881,188.6133,149.3251,189.3799,139.2622,189,129.1992" style="stroke: #A80036; stroke-width: 1.5;"/><text fill="#000000" font-family="sans-serif" font-size="12" lengthAdjust="spacingAndGlyphs" textLength="160" x="198.5" y="145.8008">Api\MailMessagesController</text><path d="M190,153.332 L190,152.4135 L199.8333,154.2414 L209.6667,153.72 L219.5,154.1432 L229.3333,152.5332 L239.1667,152.9044 L249,153.3193 L258.8333,152.7331 L268.6667,152.983 L278.5,153.103 L288.3333,152.5587 L298.1667,152.4821 L308,152.9734 L317.8333,153.3061 L327.6667,153.4309 L337.5,153.7725 L347.3333,153.1062 L357.1667,152.6728 L367,153.332 " fill="#FEFECE" style="stroke: #A80036; stroke-width: 1.5;"/><path d="M190,161.332 L190,160.6962 L199.8333,160.6649 L209.6667,161.8741 L219.5,161.3192 L229.3333,161.2513 L239.1667,160.4264 L249,161.4333 L258.8333,160.5838 L268.6667,162.0024 L278.5,161.3793 L288.3333,160.5895 L298.1667,161.6735 L308,160.8796 L317.8333,161.8599 L327.6667,161.6866 L337.5,160.6213 L347.3333,160.8431 L357.1667,161.8401 L367,161.332 " fill="#FEFECE" style="stroke: #A80036; stroke-width: 1.5;"/><text fill="#000000" font-family="sans-serif" font-size="11" lengthAdjust="spacingAndGlyphs" textLength="102" x="195" y="175.9668">+一覧取得：index()</text><text fill="#000000" font-family="sans-serif" font-size="11" lengthAdjust="spacingAndGlyphs" textLength="128" x="195" y="188.9219">+単一データ取得：view()</text><text fill="#000000" font-family="sans-serif" font-size="11" lengthAdjust="spacingAndGlyphs" textLength="92" x="195" y="201.877">+新規追加：add()</text><text fill="#000000" font-family="sans-serif" font-size="11" lengthAdjust="spacingAndGlyphs" textLength="70" x="195" y="214.832">+編集：edit()</text><text fill="#000000" font-family="sans-serif" font-size="11" lengthAdjust="spacingAndGlyphs" textLength="82" x="195" y="227.7871">+削除：delete()</text><text fill="#000000" font-family="sans-serif" font-size="11" lengthAdjust="spacingAndGlyphs" textLength="102" x="195" y="240.7422">+一括処理：batch()</text><text fill="#000000" font-family="sans-serif" font-size="11" lengthAdjust="spacingAndGlyphs" textLength="167" x="195" y="253.6973">+CSVダウンロード：download()</text><!--class MailMessagesServiceInterface--><polygon fill="#FEFECE" filter="url(#fp7t9n2)" points="6,320.1992,6,320.1544,15.7222,319.9234,25.4444,320.2414,35.1667,319.549,44.8889,320.7292,54.6111,319.9311,64.3333,320.8108,74.0556,320.2503,83.7778,320.3959,93.5,320.4231,103.2222,319.7371,112.9444,320.2917,122.6667,320.7947,132.3889,319.8101,142.1111,320.5469,151.8333,319.5521,161.5556,320.6558,171.2778,319.5307,181,320.1992,180.8687,320.1992,181.4165,330.0212,180.9399,339.8431,180.3241,349.665,181.318,359.487,181.3929,369.3089,180.2903,379.1309,180.3606,388.9528,180.4732,398.7747,181.4853,408.5967,180.6253,418.4186,181.2748,428.2406,181,438.0625,181,438.4905,171.2778,437.9285,161.5556,438.7497,151.8333,437.9096,142.1111,438.1131,132.3889,437.8815,122.6667,438.2954,112.9444,437.8656,103.2222,438.5194,93.5,438.7756,83.7778,437.4689,74.0556,438.5858,64.3333,438.144,54.6111,438.7402,44.8889,438.4995,35.1667,437.7218,25.4444,437.3442,15.7222,438.4237,6,438.0625,5.8312,438.0625,5.3995,428.2406,5.8354,418.4186,5.3678,408.5967,6.385,398.7747,6.6307,388.9528,5.7024,379.1309,5.8836,369.3089,6.3219,359.487,6.1986,349.665,6.0009,339.8431,6.622,330.0212,6,320.1992" style="stroke: #A80036; stroke-width: 1.5;"/><text fill="#000000" font-family="sans-serif" font-size="12" lengthAdjust="spacingAndGlyphs" textLength="169" x="9" y="336.8008">MailMessagesServiceInterface</text><path d="M7,344.332 L7,344.5655 L17.1765,344.8332 L27.3529,343.4203 L37.5294,344.3898 L47.7059,345.2281 L57.8824,343.681 L68.0588,343.9277 L78.2353,344.1017 L88.4118,344.1266 L98.5882,345.1981 L108.7647,344.3491 L118.9412,343.4074 L129.1176,344.1895 L139.2941,344.5568 L149.4706,343.3326 L159.6471,345.0027 L169.8235,343.5607 L180,344.332 " fill="#FEFECE" style="stroke: #A80036; stroke-width: 1.5;"/><path d="M7,352.332 L7,351.965 L17.1765,351.382 L27.3529,351.7199 L37.5294,353.2449 L47.7059,351.5904 L57.8824,351.3347 L68.0588,353.0695 L78.2353,352.5664 L88.4118,351.5892 L98.5882,351.9257 L108.7647,353.3112 L118.9412,353.0874 L129.1176,351.4534 L139.2941,353.025 L149.4706,352.923 L159.6471,352.8759 L169.8235,352.9319 L180,352.332 " fill="#FEFECE" style="stroke: #A80036; stroke-width: 1.5;"/><text fill="#000000" font-family="sans-serif" font-size="11" lengthAdjust="spacingAndGlyphs" textLength="122" x="12" y="366.9668">+単一データ取得：get()</text><text fill="#000000" font-family="sans-serif" font-size="11" lengthAdjust="spacingAndGlyphs" textLength="152" x="12" y="379.9219">+一覧データ取得：getIndex()</text><text fill="#000000" font-family="sans-serif" font-size="11" lengthAdjust="spacingAndGlyphs" textLength="144" x="12" y="392.877">+初期データ取得：getNew()</text><text fill="#000000" font-family="sans-serif" font-size="11" lengthAdjust="spacingAndGlyphs" textLength="83" x="12" y="405.832">+作成：create()</text><text fill="#000000" font-family="sans-serif" font-size="11" lengthAdjust="spacingAndGlyphs" textLength="87" x="12" y="418.7871">+編集：update()</text><text fill="#000000" font-family="sans-serif" font-size="11" lengthAdjust="spacingAndGlyphs" textLength="82" x="12" y="431.7422">+削除：delete()</text><!--class MailMessagesService--><polygon fill="#FEFECE" filter="url(#fp7t9n2)" points="216,359.1992,216,359.5916,225.6154,359.3989,235.2308,359.4763,244.8462,359.5246,254.4615,359.4353,264.0769,359.7776,273.6923,358.8449,283.3077,358.4975,292.9231,359.5379,302.5385,358.5493,312.1538,358.8648,321.7692,358.6968,331.3846,359.339,341,359.1992,340.927,359.1992,340.772,367.2258,341.2412,375.2523,341.1186,383.2789,340.9205,391.3055,341,399.332,341,399.7656,331.3846,399.6619,321.7692,399.6143,312.1538,399.7278,302.5385,398.8827,292.9231,398.8569,283.3077,399.1989,273.6923,399.1887,264.0769,399.5337,254.4615,399.5386,244.8462,398.8177,235.2308,399.0023,225.6154,399.7481,216,399.332,216.0361,399.332,216.0871,391.3055,216.0591,383.2789,215.8358,375.2523,215.8799,367.2258,216,359.1992" style="stroke: #A80036; stroke-width: 1.5;"/><text fill="#000000" font-family="sans-serif" font-size="12" lengthAdjust="spacingAndGlyphs" textLength="119" x="219" y="375.8008">MailMessagesService</text><path d="M217,383.332 L217,382.3441 L227.25,384.2491 L237.5,383.9795 L247.75,383.8301 L258,382.6119 L268.25,382.4351 L278.5,382.614 L288.75,383.5352 L299,383.4132 L309.25,382.3359 L319.5,383.7225 L329.75,382.9975 L340,383.332 " fill="#FEFECE" style="stroke: #A80036; stroke-width: 1.5;"/><path d="M217,391.332 L217,390.5 L227.25,391.0734 L237.5,391.8853 L247.75,390.6008 L258,390.5513 L268.25,391.6704 L278.5,391.111 L288.75,390.4142 L299,390.7919 L309.25,392.084 L319.5,390.8243 L329.75,390.8398 L340,391.332 " fill="#FEFECE" style="stroke: #A80036; stroke-width: 1.5;"/><!--class BcApiController--><polygon fill="#FEFECE" filter="url(#fp7t9n2)" points="231.5,29.1992,231.5,28.7126,241.9444,28.8527,252.3889,29.109,262.8333,29.7408,273.2778,28.9193,283.7222,29.9464,294.1667,29.6775,304.6111,29.4742,315.0556,29.2753,325.5,29.1992,325.4615,29.1992,325.5735,37.2258,325.4667,45.2523,325.3188,53.2789,325.4057,61.3055,325.5,69.332,325.5,69.9565,315.0556,69.7925,304.6111,69.1651,294.1667,69.3781,283.7222,69.5929,273.2778,69.3635,262.8333,69.4619,252.3889,69.8903,241.9444,70.0024,231.5,69.332,231.5896,69.332,231.3863,61.3055,231.3111,53.2789,231.3913,45.2523,231.3416,37.2258,231.5,29.1992" style="stroke: #A80036; stroke-width: 1.5;"/><text fill="#000000" font-family="sans-serif" font-size="12" lengthAdjust="spacingAndGlyphs" textLength="88" x="234.5" y="45.8008">BcApiController</text><path d="M232.5,53.332 L232.5,53.9518 L242.7222,53.2171 L252.9444,53.4857 L263.1667,52.7453 L273.3889,53.3066 L283.6111,53.3897 L293.8333,53.8124 L304.0556,52.3859 L314.2778,53.4193 L324.5,53.332 " fill="#FEFECE" style="stroke: #A80036; stroke-width: 1.5;"/><path d="M232.5,61.332 L232.5,62.1427 L242.7222,62.0115 L252.9444,61.8273 L263.1667,60.9695 L273.3889,60.4478 L283.6111,61.6733 L293.8333,61.6408 L304.0556,60.8994 L314.2778,62.1955 L324.5,61.332 " fill="#FEFECE" style="stroke: #A80036; stroke-width: 1.5;"/><polygon fill="#FBFB77" filter="url(#fp7t9n2)" points="170.5,498.1992,170.3689,498.1992,170.3138,503.2613,170.7333,508.3234,170.5525,513.3855,170.4401,518.4477,170.5,523.5098,170.5,523.0314,180.3182,523.9219,190.1364,523.8225,199.9545,523.8641,209.7727,523.98,219.5909,523.3804,229.4091,523.3386,239.2273,523.4114,249.0455,523.4234,258.8636,522.8056,268.6818,523.1853,278.5,523.2147,288.3182,523.8793,298.1364,523.2678,307.9545,523.0946,317.7727,522.7772,327.5909,523.1531,337.4091,524.0358,347.2273,524.0191,357.0455,523.3583,366.8636,522.8729,376.6818,524.1313,386.5,523.5098,386.5352,523.5098,386.4073,520.4477,386.7013,517.3855,386.5238,514.3234,386.7257,511.2613,386.5,508.1992,386.5227,508.2219,384.6032,506.3024,382.3518,504.051,380.3965,502.0958,378.3455,500.0447,376.5,498.1992,376.5,498.3003,366.6905,497.9736,356.881,498.4104,347.0714,497.4671,337.2619,497.4598,327.4524,498.397,317.6429,497.8852,307.8333,498.72,298.0238,498.319,288.2143,498.4914,278.4048,498.6213,268.5952,498.7616,258.7857,498.0078,248.9762,497.7596,239.1667,497.7385,229.3571,498.7529,219.5476,498.3576,209.7381,498.0184,199.9286,497.6995,190.119,498.2145,180.3095,498.7778,170.5,498.1992" style="stroke: #A80036; stroke-width: 1.0;"/><polygon fill="#FBFB77" points="170.5,498.1992,170.263,498.1992,170.4065,503.2613,170.4244,508.3234,170.2709,513.3855,170.389,518.4477,170.5,523.5098,170.5,523.2077,180.3182,522.7796,190.1364,522.8817,199.9545,524.1981,209.7727,523.9507,219.5909,523.6941,229.4091,523.426,239.2273,522.9052,249.0455,523.8132,258.8636,524.0275,268.6818,523.2831,278.5,523.1633,288.3182,524.0016,298.1364,523.828,307.9545,523.6789,317.7727,523.3281,327.5909,523.2573,337.4091,523.0957,347.2273,524.0778,357.0455,522.9386,366.8636,524.238,376.6818,524.0909,386.5,523.5098,386.6035,523.5098,386.6111,520.4477,386.4344,517.3855,386.5912,514.3234,386.4886,511.2613,386.5,508.1992,386.5645,508.2637,384.5889,506.2881,382.503,504.2023,380.5041,502.2033,378.6518,500.351,376.5,498.1992,376.5,498.1656,366.0556,498.8688,355.6111,497.8265,345.1667,498.1164,334.7222,497.7485,324.2778,497.6981,313.8333,498.5373,303.3889,498.2742,292.9444,497.9328,282.5,498.1992,281.8003,498.1709,282.7083,488.3348,281.0147,478.3935,281.2883,468.5317,281.5002,458.6675,281.0862,448.7779,279.4012,438.837,280.3089,429.0008,278.8879,419.0706,278.3755,409.177,278.5,399.3092,278.8327,399.3227,278.3049,409.2065,276.9959,419.0587,277.0627,428.9666,276.8349,438.8626,275.812,448.7264,275.8287,458.6322,275.6429,468.5299,274.9408,478.4067,275.1736,488.3213,274.5,498.1992,274.5,498.7409,264.1,497.8686,253.7,498.2538,243.3,497.4571,232.9,497.9055,222.5,497.7534,212.1,498.863,201.7,497.8885,191.3,497.9112,180.9,498.7456,170.5,498.1992" style="stroke: #A80036; stroke-width: 1.0;"/><path d="M376.5,498.1992 L376.4352,498.1992 L376.3005,500.1992 L376.4143,502.1992 L376.7204,504.1992 L376.7853,506.1992 L376.5,508.1992 " fill="#FBFB77" style="stroke: #A80036; stroke-width: 1.0;"/><path d="M386.5,508.1992 L386.5,508.1157 L384.5,508.0022 L382.5,508.4828 L380.5,508.0893 L378.5,508.1085 L376.5,508.1992 " fill="#FBFB77" style="stroke: #A80036; stroke-width: 1.0;"/><text fill="#000000" font-family="sans-serif" font-size="13" lengthAdjust="spacingAndGlyphs" textLength="195" x="176.5" y="515.7676">以下メールフィールド管理と同じ</text><path d="M278.5,260.2992 L279.3113,260.2992 L278.9153,270.6948 L277.7009,281.0903 L277.8997,291.4859 L279.1573,301.8814 L278.8513,312.277 L278.3673,322.6726 L278.786,333.0681 L279.2274,343.4637 L278.5,353.8592 " fill="none" style="stroke: #000000; stroke-width: 1.0;"/><polygon fill="#000000" points="278.5,359.0292,278.6133,359.0796,279.1816,357.1766,279.9639,355.3687,281.0928,353.7149,281.7196,351.838,282.5,350.0292,282.6558,350.1851,281.7345,350.8637,280.9675,351.6967,280.2419,352.5711,279.1623,353.0916,278.5,354.0292,278.4582,353.9875,277.6038,353.133,277.0742,352.6035,276.1612,351.6905,275.4524,350.9816,274.5,350.0292,274.5808,350.0651,275.1723,351.7724,276.2318,353.6878,276.6739,355.3287,277.6219,357.1945,278.5,359.0292" style="stroke: #000000; stroke-width: 1.0;"/><path d="M278.5,89.6592 L278.8085,89.6592 L278.6893,97.5312 L278.508,105.4032 L278.437,113.2752 L278.1702,121.1472 L278.5,129.0192 " fill="none" style="stroke: #000000; stroke-width: 1.0;"/><polygon fill="none" points="271.5,89.2592,271.4281,89.2341,272.6765,85.181,274.2104,81.2278,275.596,77.2228,277.2492,73.3115,278.5,69.2592,278.7343,69.3412,279.994,73.2921,281.1931,77.2218,282.802,81.2949,284.0633,85.2464,285.5,89.2592,285.5,89.2695,282.7,89.0999,279.9,89.3922,277.1,89.0624,274.3,89.1139,271.5,89.2592" style="stroke: #000000; stroke-width: 1.0;"/><path d="M201.55,379.1992 L201.55,379.2325 L204.41,379.0703 L207.27,379.112 L210.13,379.1799 L212.99,379.4072 L215.85,379.1992 " fill="none" style="stroke: #000000; stroke-width: 1.0; stroke-dasharray: 1.0,3.0;"/><polygon fill="none" points="201.3,386.1992,201.3191,386.2539,197.2794,384.7404,193.3098,383.4272,189.3372,382.1055,185.3428,380.7215,181.3,379.1992,181.3736,379.4094,185.322,377.862,189.2695,376.3121,193.3095,375.0264,197.3691,373.7965,201.3,372.1992,201.3936,372.1992,201.2875,374.9992,201.4921,377.7992,201.448,380.5992,201.3884,383.3992,201.3,386.1992" style="stroke: #000000; stroke-width: 1.0;"/></g></svg>