<?xml version="1.0" encoding="UTF-8" standalone="no"?><svg xmlns="http://www.w3.org/2000/svg" xmlns:xlink="http://www.w3.org/1999/xlink" contentScriptType="application/ecmascript" contentStyleType="text/css" height="365px" preserveAspectRatio="none" style="width:324px;height:365px;" version="1.1" viewBox="0 0 324 365" width="324px" zoomAndPan="magnify"><defs><filter height="300%" id="fbjk9dw" width="300%" x="-1" y="-1"><feGaussianBlur result="blurOut" stdDeviation="2.0"/><feColorMatrix in="blurOut" result="blurOut2" type="matrix" values="0 0 0 0 0 0 0 0 0 0 0 0 0 0 0 0 0 0 .4 0"/><feOffset dx="4.0" dy="4.0" in="blurOut2" result="blurOut3"/><feBlend in="SourceGraphic" in2="blurOut3" mode="normal"/></filter></defs><g><text fill="#000000" font-family="sans-serif" font-size="18" lengthAdjust="spacingAndGlyphs" textLength="216" x="67.5" y="17.4023">ユースケース：テーマ設定</text><!--cluster テーマ設定--><polygon fill="#FFFFFF" filter="url(#fbjk9dw)" points="92,45.1992,92,44.8414,101.5,44.5006,111,44.8706,120.5,44.9807,130,45.0417,139.5,45.8032,149,44.5747,158.5,44.904,168,45.1992,167.9076,45.1705,169.5639,49.7479,170.8374,54.2062,172.404,58.7557,173.5982,63.1893,175,67.6875,175,67.6833,185.1429,67.5394,195.2857,67.6561,205.4286,68.2819,215.5714,68.4132,225.7143,68.1941,235.8571,67.8847,246,67.0753,256.1429,67.4761,266.2857,67.78,276.4286,66.971,286.5714,67.1447,296.7143,67.8394,306.8571,67.0037,317,67.6875,316.5467,67.6875,316.8101,77.7051,316.3718,87.7228,316.5408,97.7404,317.5082,107.7581,317.2963,117.7757,316.6383,127.7934,316.5827,137.811,317.2561,147.8287,316.7372,157.8463,316.7658,167.864,316.4318,177.8816,317.2843,187.8992,316.2856,197.9169,317.5669,207.9345,317.0272,217.9522,316.6829,227.9698,316.7545,237.9875,317.1976,248.0051,317.727,258.0228,317.0654,268.0404,316.5642,278.0581,317.5467,288.0757,316.5642,298.0933,316.6999,308.111,317.5809,318.1286,317.5552,328.1463,317.2894,338.1639,317.4762,348.1816,317,358.1992,317,358.6391,307.2174,358.6852,297.4348,358.7628,287.6522,358.2808,277.8696,358.1732,268.087,357.8355,258.3043,358.679,248.5217,357.7727,238.7391,358.295,228.9565,357.4767,219.1739,358.5573,209.3913,358.1388,199.6087,358.6147,189.8261,357.9313,180.0435,358.6813,170.2609,358.4059,160.4783,357.7096,150.6957,358.1473,140.913,358.8174,131.1304,358.4136,121.3478,358.3007,111.5652,358.912,101.7826,358.4862,92,358.1992,91.8012,358.1992,91.4319,348.1024,91.7525,338.0057,91.3354,327.9089,91.8604,317.8121,91.3905,307.7153,91.4054,297.6186,91.8938,287.5218,92.0092,277.425,91.8674,267.3283,91.3139,257.2315,92.2866,247.1347,92.4822,237.0379,92.4819,226.9412,92.6797,216.8444,91.909,206.7476,91.8029,196.6508,92.6765,186.5541,91.541,176.4573,91.4695,166.3605,91.3085,156.2637,92.2269,146.167,91.7839,136.0702,92.3504,125.9734,91.706,115.8766,91.9805,105.7799,91.6735,95.6831,92.6325,85.5863,91.5116,75.4895,91.5963,65.3928,92.0958,55.296,92,45.1992" style="stroke: #000000; stroke-width: 2.0;"/><path d="M92,67.6875 L92,67.8036 L102.375,67.0021 L112.75,67.9907 L123.125,68.2693 L133.5,68.5404 L143.875,68.3665 L154.25,68.2972 L164.625,67.1273 L175,67.6875 " fill="#FFFFFF" style="stroke: #000000; stroke-width: 2.0;"/><text fill="#000000" font-family="sans-serif" font-size="14" font-weight="bold" lengthAdjust="spacingAndGlyphs" textLength="70" x="96" y="60.7344">テーマ設定</text><polygon fill="#FEFECE" filter="url(#fbjk9dw)" points="286.8712,102.2145,285.3989,105.5199,280.0753,108.2496,274.2195,111.0648,263.0794,112.7774,255.3543,115.2704,242.0075,116.3739,229.9394,117.5626,218.2404,118.5313,205.7493,118.925,193.2056,118.8328,179.1332,117.8491,165.7042,116.4152,153.7243,114.675,143.5114,112.6765,137.7088,111.0156,130.223,108.308,125.5479,105.6053,122.7532,102.735,121.3226,99.6342,122.3816,96.6283,125.9446,93.8006,130.694,90.9397,137.701,88.3876,145.8477,85.991,156.2659,84.1134,168.1568,82.6771,179.8602,81.4052,191.285,80.3738,203.6179,79.9439,217.9339,80.4411,229.4635,80.8438,241.5327,81.967,254.9194,84.0287,264.2551,85.8267,273.2369,88.214,278.91,90.5074,283.4519,93.1797,287.7113,96.3847,288.2191,99.2746" style="stroke: #A80036; stroke-width: 1.5;"/><text fill="#000000" font-family="sans-serif" font-size="14" lengthAdjust="spacingAndGlyphs" textLength="140" x="134.7351" y="104.1904">テーマ設定を保存する</text><polygon fill="#FEFECE" filter="url(#fbjk9dw)" points="271.9251,171.7579,269.597,174.1998,263.8732,176.0908,258.9422,178.3388,251.4285,180.064,244.9358,182.0299,233.8989,182.8381,225.9775,184.2109,214.5068,184.4969,203.2347,184.5062,193.0465,184.3818,184.9276,184.3002,174.1076,183.0911,164.2206,181.5786,157.0751,180.1688,149.5216,178.1125,145.1146,176.2544,141.0075,173.9436,139.2944,171.7069,137.9069,169.1016,137.5316,166.3459,142.0323,164.4163,144.0221,161.6448,149.75,159.5847,157.4152,157.8953,164.6673,156.1085,173.563,154.7953,184.4967,154.1328,192.7145,153.0798,204.5212,153.1966,215.4416,153.4936,224.2946,153.7484,234.4214,154.794,242.636,155.9121,250.768,157.5545,257.7493,159.4759,263.565,161.6661,267.2418,163.8755,271.6337,166.7439,272.7314,169.2808" style="stroke: #A80036; stroke-width: 1.5;"/><text fill="#000000" font-family="sans-serif" font-size="14" lengthAdjust="spacingAndGlyphs" textLength="98" x="155.5324" y="173.7498">ロゴを出力する</text><polygon fill="#FEFECE" filter="url(#fbjk9dw)" points="298.78,245.547,295.9519,249.0196,289.17,251.9465,282.6213,255.1595,273.7212,257.9621,260.0878,259.7004,248.3537,261.7474,232.8832,262.7206,218.2618,263.5416,203.4002,263.864,191.1589,264.241,174.8121,263.0831,159.1612,261.4079,148.4636,260.1274,138.126,258.1811,126.8451,255.2665,117.9407,252.1394,113.5012,249.2971,111.0875,246.2367,109.6349,242.7806,109.5929,239.1071,113.5103,235.8793,119.397,232.7511,127.97,229.9933,137.1101,227.2447,148.1787,224.9297,161.3579,223.2076,173.0978,221.3955,188.7387,220.8039,204.2198,220.6207,218.8535,220.7817,235.1126,221.9199,247.2933,222.8147,260.2084,224.5938,273.2704,227.1528,283.2061,229.7649,292.3126,232.9374,297.6063,235.9717,299.5404,238.9244,301.4903,242.4923" style="stroke: #A80036; stroke-width: 1.5;"/><text fill="#000000" font-family="sans-serif" font-size="14" lengthAdjust="spacingAndGlyphs" textLength="168" x="120.5689" y="247.1571">メインイメージを出力する</text><polygon fill="#FEFECE" filter="url(#fbjk9dw)" points="297.4322,323.212,295.8743,326.936,288.3645,329.6607,280.8477,332.6156,273.8621,335.8073,261.2418,337.7308,248.1901,339.4398,233.4066,340.5273,217.869,341.1047,204.1648,341.6539,191.6107,341.9318,175.9231,340.8976,160.3373,339.2183,150.1337,338.0372,138.1386,335.7122,128.0507,333.0666,118.0407,329.6979,113.1698,326.7728,109.7359,323.5029,109.6703,320.3845,110.669,316.9755,115.2732,313.9372,118.6033,310.2717,127.1207,307.542,136.0432,304.7863,147.7007,302.6461,162.6923,301.3737,175.9272,299.9376,188.5509,298.7044,206.0063,298.9995,218.0073,298.5971,234.3971,299.7893,248.7059,301.1812,261.2634,302.8921,271.4118,304.8015,282.0076,307.5614,290.065,310.4906,297.2106,313.9277,299.3597,316.9084,301.6798,320.5342" style="stroke: #A80036; stroke-width: 1.5;"/><text fill="#000000" font-family="sans-serif" font-size="14" lengthAdjust="spacingAndGlyphs" textLength="166" x="121.6723" y="324.9778">テーマ設定CSSを読み込む</text><!--entity 管理者--><polygon fill="#FEFECE" filter="url(#fbjk9dw)" points="34.5799,70.1855,32.99,72.3554,31.687,74.5345,29.1277,75.1698,27.508,75.3401,25.5741,75.0855,24.0321,74.6805,22.2507,73.8258,20.7499,72.3396,19.2717,70.469,18.6169,68.0753,19.4995,66.2558,19.7802,63.8727,21.2052,61.5368,22.8157,60.7482,25.4205,59.6846,27.819,59.997,30.4272,59.9436,31.5137,61.5398,33.224,62.7657,34.2544,64.2716,35.1865,66.5665,35.2057,68.4797" style="stroke: #A80036; stroke-width: 2.0;"/><path d="M27,75.6992 L26.7587,75.6992 L27.3135,81.0992 L27.1193,86.4992 L27.4803,91.8992 L27.2178,97.2992 L27,102.6992 M14,83.6992 L14,83.0762 L19.2,83.3464 L24.4,83.7629 L29.6,83.1729 L34.8,83.5284 L40,83.6992 M27,102.6992 L26.9643,102.6683 L24.6758,105.9383 L21.7032,108.6153 L19.1025,111.6147 L16.1797,114.3349 L14,117.6992 M27,102.6992 L26.8063,102.5314 L29.6443,105.7376 L31.9171,108.4541 L34.8783,111.7671 L37.2336,114.555 L40,117.6992 " fill="#FEFECE" style="stroke: #A80036; stroke-width: 2.0;"/><text fill="#000000" font-family="sans-serif" font-size="14" lengthAdjust="spacingAndGlyphs" textLength="42" x="6" y="138.2344">管理者</text><!--entity 制作者--><polygon fill="#FEFECE" filter="url(#fbjk9dw)" points="34.2894,213.0075,33.9642,214.5524,32.8251,215.6143,31.1481,217.5506,29.5329,218.8068,27.8838,218.5288,25.7629,218.9919,23.5233,217.4573,22.2793,216.7538,20.4952,215.06,19.6192,213.332,18.8524,211.3094,18.6846,209.618,19.359,208.2037,20.3143,205.5074,21.8594,204.6117,23.3518,203.8396,25.3102,203.0931,27.7898,202.8643,30.3994,203.2587,31.5416,204.212,33.0553,205.1465,34.1412,206.3406,35.0404,209.0625,35.0629,211.477" style="stroke: #A80036; stroke-width: 2.0;"/><path d="M27,218.6992 L26.396,218.6992 L27.3544,224.0992 L27.5995,229.4992 L26.4383,234.8992 L26.6161,240.2992 L27,245.6992 M14,226.6992 L14,226.6455 L19.2,226.4398 L24.4,227.2257 L29.6,226.6687 L34.8,226.5041 L40,226.6992 M27,245.6992 L26.5477,245.3072 L24.8388,249.0795 L22.119,251.9757 L19.3651,254.8423 L16.9167,257.9737 L14,260.6992 M27,245.6992 L27.1939,245.8673 L29.4183,248.5417 L31.7198,251.283 L34.9459,254.8256 L37.0702,257.4134 L40,260.6992 " fill="#FEFECE" style="stroke: #A80036; stroke-width: 2.0;"/><text fill="#000000" font-family="sans-serif" font-size="14" lengthAdjust="spacingAndGlyphs" textLength="42" x="6" y="281.2344">制作者</text><path d="M48.13,99.1992 L48.13,98.6988 L57.7314,99.4098 L67.3329,99.9555 L76.9343,98.6454 L86.5357,99.6006 L96.1371,99.1891 L105.7386,99.2986 L115.34,99.1992 " fill="none" style="stroke: #A80036; stroke-width: 1.0;"/><polygon fill="#A80036" points="120.39,99.1992,120.3323,99.0694,118.6704,98.58,116.8617,97.7606,114.9954,96.8114,113.1811,95.9792,111.39,95.1992,111.405,95.2142,112.1406,95.9498,112.8157,96.625,113.6537,97.4629,114.7636,98.5728,115.39,99.1992,115.2497,99.059,114.7581,100.1673,113.6603,100.6695,112.9002,101.5094,112.1755,102.3848,111.39,103.1992,111.414,103.2533,113.1782,102.3728,114.9205,101.4427,116.8171,100.8601,118.608,100.0397,120.39,99.1992" style="stroke: #A80036; stroke-width: 1.0;"/><path d="M48,225.8392 L48.1576,226.0551 L49.5752,224.5694 L51.2027,223.3711 L52.8377,222.1833 L54.609,221.1821 L56.1619,219.8816 L56.235,219.9901 L58.0075,218.7758 L59.7837,217.567 L61.5069,216.2796 L63.1747,214.91 L65.07,213.878 L65.0396,213.8278 L66.9555,212.7594 L68.7411,211.4759 L70.6978,210.4746 L72.4463,209.1301 L74.4431,208.195 L74.5355,208.3717 L76.4811,207.438 L78.1856,206.0431 L80.0483,204.9509 L82.105,204.2298 L84,203.1992 L84.0442,203.3013 L87.0776,201.7128 L90.1427,200.1975 L93.4128,199.156 L96.4299,197.5297 L99.6705,196.42 L99.7146,196.5404 L102.8311,194.9387 L106.2368,194.1266 L109.4937,192.908 L112.6821,191.5027 L115.9963,190.4405 L115.9399,190.2623 L119.2578,189.3267 L122.6236,188.5425 L125.8579,187.3425 L129.1317,186.2675 L132.4214,185.2428 L132.3407,184.952 L135.5833,184.2413 L138.8804,183.727 L142.0474,182.7441 L145.1841,181.6519 L148.39,180.8092 " fill="none" style="stroke: #A80036; stroke-width: 1.0;"/><polygon fill="#A80036" points="153.33,179.5492,153.3193,179.4856,151.3484,178.9888,149.4703,179.0426,147.48,178.4312,145.5822,178.3677,143.6182,177.912,143.6961,178.0437,144.6355,178.5617,145.5301,179.0039,146.6477,179.8231,147.5001,180.194,148.4869,180.7921,148.4024,180.7421,147.7999,181.7002,147.1285,182.6175,146.6986,183.6777,146.3639,184.7942,145.6068,185.6609,145.5479,185.5865,147.2743,184.5937,148.6936,183.213,150.3134,182.0857,151.7262,180.6968,153.33,179.5492" style="stroke: #A80036; stroke-width: 1.0;"/><path d="M48.13,242.1992 L48.13,241.221 L59.064,242.4197 L69.998,241.4297 L80.932,241.2053 L91.866,243.0764 L102.8,242.1992 " fill="none" style="stroke: #A80036; stroke-width: 1.0;"/><polygon fill="#A80036" points="107.82,242.1992,107.85,242.2667,106.0611,241.4916,104.3081,240.7975,102.5068,239.9945,100.5239,238.783,98.82,238.1992,98.9826,238.3618,99.4924,238.8716,100.2499,239.6291,101.226,240.6052,102.0117,241.3909,102.82,242.1992,102.8303,242.2095,102.0092,242.9885,101.3387,243.9179,100.5126,244.6918,99.7568,245.536,98.82,246.1992,98.8581,246.2849,100.6848,245.545,102.4234,244.6068,104.1538,243.6503,106.0383,243.0403,107.82,242.1992" style="stroke: #A80036; stroke-width: 1.0;"/><path d="M48.1,258.3592 L48.1296,258.4 L49.6403,259.4143 L51.1835,260.4736 L52.8817,261.7465 L54.6747,263.15 L56.2758,264.2891 L56.4003,264.4732 L58.2273,265.7464 L59.762,266.5873 L61.5205,267.759 L63.4758,269.222 L65.1763,270.308 L65.0112,270.0401 L67.1376,271.6112 L69.0151,272.7784 L70.6085,273.4845 L72.5065,274.685 L74.5136,276.0625 L74.6168,276.2532 L76.3026,276.8899 L78.1565,277.8372 L80.1115,278.971 L82.0831,280.1357 L84,281.1992 L83.9801,281.1565 L86.5616,282.3943 L89.1961,283.7457 L91.5706,284.5399 L94.2195,285.922 L96.8081,287.1752 L96.7457,287.0246 L99.4982,288.3476 L102.2392,289.6431 L104.844,290.6099 L107.4459,291.5697 L110.115,292.6917 L110.0538,292.528 L112.7948,293.6463 L115.5108,294.6976 L118.3061,295.961 L120.8929,296.6669 L123.6169,297.7395 L123.6443,297.8198 L126.3996,298.9587 L128.9515,299.5011 L131.5481,300.1745 L134.3884,301.5624 L137.01,302.3092 " fill="none" style="stroke: #A80036; stroke-width: 1.0;"/><polygon fill="#A80036" points="141.95,303.8992,141.9589,303.9092,140.5287,302.643,139.1139,301.394,137.6698,300.1121,136.1072,298.6974,134.5994,297.3441,134.4356,297.2598,135.2312,298.4088,135.4541,299.2629,136.0458,300.3069,136.7812,301.4248,137.1884,302.3738,137.2967,302.5843,136.2438,303.0108,135.2103,303.4749,134.0838,303.7585,133.1179,304.3542,132.1587,304.9627,132.1603,304.977,134.1143,304.7258,136.097,304.7375,138.0173,304.1754,139.9743,303.9517,141.95,303.8992" style="stroke: #A80036; stroke-width: 1.0;"/></g></svg>