<?xml version="1.0" encoding="UTF-8" standalone="no"?><svg xmlns="http://www.w3.org/2000/svg" xmlns:xlink="http://www.w3.org/1999/xlink" contentScriptType="application/ecmascript" contentStyleType="text/css" height="381px" preserveAspectRatio="none" style="width:261px;height:381px;" version="1.1" viewBox="0 0 261 381" width="261px" zoomAndPan="magnify"><defs><filter height="300%" id="fpy2iar" width="300%" x="-1" y="-1"><feGaussianBlur result="blurOut" stdDeviation="2.0"/><feColorMatrix in="blurOut" result="blurOut2" type="matrix" values="0 0 0 0 0 0 0 0 0 0 0 0 0 0 0 0 0 0 .4 0"/><feOffset dx="4.0" dy="4.0" in="blurOut2" result="blurOut3"/><feBlend in="SourceGraphic" in2="blurOut3" mode="normal"/></filter></defs><g><text fill="#000000" font-family="sans-serif" font-size="18" lengthAdjust="spacingAndGlyphs" textLength="189" x="40.5" y="17.4023">ウィジェットエリアAPI</text><!--class Admin\WidgetAreasController--><polygon fill="#FEFECE" filter="url(#fpy2iar)" points="6,29.1992,6,28.7323,15.84,29.6181,25.68,28.6428,35.52,28.9895,45.36,28.8661,55.2,28.598,65.04,29.805,74.88,29.8093,84.72,29.9061,94.56,29.8036,104.4,29.2238,114.24,29.0756,124.08,28.8205,133.92,28.5336,143.76,28.678,153.6,29.7914,163.44,29.0004,173.28,28.6918,183.12,29.9193,192.96,28.8025,202.8,28.8872,212.64,29.113,222.48,29.3561,232.32,29.4952,242.16,29.4217,252,29.1992,252.1411,29.1992,251.9224,38.9948,251.8957,48.7903,252.564,58.5858,251.3078,68.3813,251.748,78.1769,251.3891,87.9724,251.9059,97.7679,251.3654,107.5635,251.3787,117.359,252.4383,127.1545,252.1105,136.9501,252.1254,146.7456,251.8652,156.5411,251.8892,166.3367,251.2947,176.1322,252,185.9277,252,185.3768,242.16,185.847,232.32,186.5298,222.48,185.8532,212.64,186.3581,202.8,186.0683,192.96,186.2773,183.12,186.3552,173.28,185.4914,163.44,185.2408,153.6,185.3598,143.76,185.1859,133.92,185.6064,124.08,185.5458,114.24,186.387,104.4,186.3126,94.56,185.2822,84.72,185.4614,74.88,186.3622,65.04,185.5094,55.2,186.0243,45.36,186.2977,35.52,185.7841,25.68,185.8996,15.84,186.1984,6,185.9277,6.3438,185.9277,5.5225,176.1322,5.2608,166.3367,6.14,156.5411,5.8077,146.7456,6.0786,136.9501,6.1382,127.1545,6.3459,117.359,6.7319,107.5635,6.1085,97.7679,5.3823,87.9724,6.3036,78.1769,5.7834,68.3813,6.2,58.5858,6.2643,48.7903,6.2596,38.9948,6,29.1992" style="stroke: #A80036; stroke-width: 1.5;"/><text fill="#000000" font-family="sans-serif" font-size="12" lengthAdjust="spacingAndGlyphs" textLength="171" x="43.5" y="45.8008">Admin\WidgetAreasController</text><path d="M7,53.332 L7,52.4767 L17.1667,53.2707 L27.3333,52.5769 L37.5,54.2288 L47.6667,53.602 L57.8333,53.7687 L68,53.4166 L78.1667,54.1759 L88.3333,53.0599 L98.5,54.0152 L108.6667,53.5298 L118.8333,54.31 L129,53.3216 L139.1667,53.0073 L149.3333,53.9699 L159.5,53.5194 L169.6667,53.958 L179.8333,54.1692 L190,53.9379 L200.1667,52.7831 L210.3333,52.53 L220.5,53.6096 L230.6667,53.4306 L240.8333,54.19 L251,53.332 " fill="#FEFECE" style="stroke: #A80036; stroke-width: 1.5;"/><path d="M7,61.332 L7,61.1099 L17.1667,62.0982 L27.3333,62.1214 L37.5,61.7823 L47.6667,61.6065 L57.8333,61.5979 L68,60.7345 L78.1667,60.894 L88.3333,61.9176 L98.5,61.3976 L108.6667,62.1183 L118.8333,60.7015 L129,61.466 L139.1667,62.2874 L149.3333,60.8532 L159.5,60.9481 L169.6667,60.9063 L179.8333,61.8012 L190,60.5479 L200.1667,62.2297 L210.3333,60.6962 L220.5,61.3246 L230.6667,60.9835 L240.8333,61.845 L251,61.332 " fill="#FEFECE" style="stroke: #A80036; stroke-width: 1.5;"/><text fill="#000000" font-family="sans-serif" font-size="11" lengthAdjust="spacingAndGlyphs" textLength="135" x="12" y="75.9668">+一覧でーた取得：index()</text><text fill="#000000" font-family="sans-serif" font-size="11" lengthAdjust="spacingAndGlyphs" textLength="92" x="12" y="88.9219">+新規追加：add()</text><text fill="#000000" font-family="sans-serif" font-size="11" lengthAdjust="spacingAndGlyphs" textLength="70" x="12" y="101.877">+編集：edit()</text><text fill="#000000" font-family="sans-serif" font-size="11" lengthAdjust="spacingAndGlyphs" textLength="82" x="12" y="114.832">+削除：delete()</text><text fill="#000000" font-family="sans-serif" font-size="11" lengthAdjust="spacingAndGlyphs" textLength="102" x="12" y="127.7871">+一括処理：batch()</text><text fill="#000000" font-family="sans-serif" font-size="11" lengthAdjust="spacingAndGlyphs" textLength="234" x="12" y="140.7422">+ウィジェットエリア名を変更：update_title()</text><text fill="#000000" font-family="sans-serif" font-size="11" lengthAdjust="spacingAndGlyphs" textLength="205" x="12" y="153.6973">+ウィジェットを更新：update_widget()</text><text fill="#000000" font-family="sans-serif" font-size="11" lengthAdjust="spacingAndGlyphs" textLength="214" x="12" y="166.6523">+ウィジェットの並び替え：update_sort()</text><text fill="#000000" font-family="sans-serif" font-size="11" lengthAdjust="spacingAndGlyphs" textLength="200" x="12" y="179.6074">+ウィジェットを削除：delete_widget()</text><!--class WidgetAreasService--><polygon fill="#FEFECE" filter="url(#fpy2iar)" points="70,246.1992,70,245.822,79.8333,245.8176,89.6667,245.9196,99.5,246.712,109.3333,246.1823,119.1667,246.0216,129,246.0058,138.8333,246.9054,148.6667,246.6474,158.5,245.7871,168.3333,246.5099,178.1667,245.9406,188,246.1992,187.8088,246.1992,188.1425,254.2258,188.049,262.2523,187.7589,270.2789,188.0597,278.3055,188,286.332,188,286.3516,178.1667,286.2475,168.3333,285.968,158.5,286.7146,148.6667,285.9396,138.8333,285.6423,129,285.6746,119.1667,286.7906,109.3333,286.3248,99.5,286.0198,89.6667,285.9092,79.8333,286.0642,70,286.332,69.8051,286.332,70.1715,278.3055,69.9378,270.2789,69.9327,262.2523,69.8179,254.2258,70,246.1992" style="stroke: #A80036; stroke-width: 1.5;"/><text fill="#000000" font-family="sans-serif" font-size="12" lengthAdjust="spacingAndGlyphs" textLength="112" x="73" y="262.8008">WidgetAreasService</text><path d="M71,270.332 L71,270.7383 L80.6667,269.818 L90.3333,271.0898 L100,269.4159 L109.6667,271.0975 L119.3333,269.5893 L129,270.7679 L138.6667,270.3229 L148.3333,270.0054 L158,270.1219 L167.6667,271.3272 L177.3333,269.4667 L187,270.332 " fill="#FEFECE" style="stroke: #A80036; stroke-width: 1.5;"/><path d="M71,278.332 L71,277.6237 L80.6667,278.997 L90.3333,277.9284 L100,278.9562 L109.6667,278.9996 L119.3333,278.3049 L129,277.4573 L138.6667,279.0551 L148.3333,277.4009 L158,277.5048 L167.6667,277.5777 L177.3333,279.2693 L187,278.332 " fill="#FEFECE" style="stroke: #A80036; stroke-width: 1.5;"/><polygon fill="#FBFB77" filter="url(#fpy2iar)" points="14.5,346.1992,14.4422,346.1992,14.723,351.2613,14.6249,356.3234,14.4101,361.3855,14.5084,366.4477,14.5,371.5098,14.5,370.7686,24.4565,372.1434,34.413,372.141,44.3696,371.3285,54.3261,371.6504,64.2826,371.7394,74.2391,371.3861,84.1957,371.9465,94.1522,371.4692,104.1087,371.0531,114.0652,371.3748,124.0217,371.0426,133.9783,372.0156,143.9348,371.9479,153.8913,370.8233,163.8478,372.0797,173.8043,370.8999,183.7609,371.1957,193.7174,370.813,203.6739,372.0565,213.6304,371.5848,223.587,371.483,233.5435,371.1527,243.5,371.5098,243.4115,371.5098,243.4996,368.4477,243.4355,365.3855,243.5046,362.3234,243.4024,359.2613,243.5,356.1992,243.5509,356.2501,241.6044,354.3037,239.3983,352.0975,237.6369,350.3361,235.458,348.1572,233.5,346.1992,233.5,346.751,223.5455,346.4519,213.5909,345.7124,203.6364,345.5958,193.6818,346.3417,183.7273,346.2959,173.7727,346.8915,163.8182,346.0353,153.8636,346.6161,143.9091,346.3061,133.9545,346.3974,124,346.8767,114.0455,346.7569,104.0909,345.8476,94.1364,345.5313,84.1818,346.6417,74.2273,346.8137,64.2727,346.5675,54.3182,346.4028,44.3636,346.2493,34.4091,346.7461,24.4545,345.4561,14.5,346.1992" style="stroke: #A80036; stroke-width: 1.0;"/><polygon fill="#FBFB77" points="14.5,346.1992,14.5314,346.1992,14.512,351.2613,14.7174,356.3234,14.4602,361.3855,14.4513,366.4477,14.5,371.5098,14.5,372.1444,24.4565,371.0515,34.413,371.6618,44.3696,371.8492,54.3261,372.2526,64.2826,372.0357,74.2391,371.2264,84.1957,371.1868,94.1522,371.3928,104.1087,372.2492,114.0652,371.1624,124.0217,371.4246,133.9783,372.0406,143.9348,371.0701,153.8913,371.1829,163.8478,370.9412,173.8043,371.5622,183.7609,371.8927,193.7174,371.4272,203.6739,371.2964,213.6304,371.5301,223.587,371.0679,233.5435,372.2057,243.5,371.5098,243.6768,371.5098,243.6146,368.4477,243.4496,365.3855,243.5758,362.3234,243.4451,359.2613,243.5,356.1992,243.3711,356.0704,241.5089,354.2082,239.375,352.0742,237.6601,350.3593,235.6702,348.3694,233.5,346.1992,233.5,346.587,223.45,346.2978,213.4,346.3914,203.35,346.0993,193.3,346.1707,183.25,346.234,173.2,346.8611,163.15,346.7576,153.1,346.1906,143.05,345.8496,133,346.1992,132.6208,346.1739,132.2409,336.2247,132.2172,326.2994,130.4194,316.2554,129.6791,306.2821,130.0343,296.3821,129,286.3892,128.478,286.3543,128.1093,296.3426,128.226,306.3633,126.4211,316.2555,126.4843,326.2726,125.5543,336.2234,125,346.1992,125,346.7822,114.9545,345.7303,104.9091,346.713,94.8636,345.9871,84.8182,346.3057,74.7727,346.1283,64.7273,345.452,54.6818,345.7657,44.6364,346.0512,34.5909,346.7102,24.5455,346.6359,14.5,346.1992" style="stroke: #A80036; stroke-width: 1.0;"/><path d="M233.5,346.1992 L233.6542,346.1992 L233.3979,348.1992 L233.4686,350.1992 L233.394,352.1992 L233.3995,354.1992 L233.5,356.1992 " fill="#FBFB77" style="stroke: #A80036; stroke-width: 1.0;"/><path d="M243.5,356.1992 L243.5,356.4348 L241.5,356.0773 L239.5,356.3391 L237.5,356.0129 L235.5,356.4454 L233.5,356.1992 " fill="#FBFB77" style="stroke: #A80036; stroke-width: 1.0;"/><text fill="#000000" font-family="sans-serif" font-size="13" lengthAdjust="spacingAndGlyphs" textLength="208" x="20.5" y="363.7676">以下ウィジェットエリア管理と同じ</text><path d="M129,186.4892 L128.1829,186.4892 L129.976,197.3852 L128.425,208.2812 L128.8808,219.1772 L129.4325,230.0732 L129,240.9692 " fill="none" style="stroke: #000000; stroke-width: 1.0;"/><polygon fill="#000000" points="129,246.1892,129.1142,246.24,129.7872,244.3835,130.7364,242.6498,131.264,240.7288,132.0984,238.9441,133,237.1892,133.0276,237.2168,132.2293,238.0185,131.2283,238.6175,130.5995,239.5887,129.7016,240.2908,129,241.1892,129.1426,241.3319,128.335,240.5242,127.5579,239.7471,126.7446,238.9338,125.7504,237.9396,125,237.1892,124.9246,237.1557,125.6881,238.9395,126.5113,240.7498,127.5762,242.6675,128.3436,244.453,129,246.1892" style="stroke: #000000; stroke-width: 1.0;"/></g></svg>