<?xml version="1.0" encoding="UTF-8" standalone="no"?><svg xmlns="http://www.w3.org/2000/svg" xmlns:xlink="http://www.w3.org/1999/xlink" contentScriptType="application/ecmascript" contentStyleType="text/css" height="1171px" preserveAspectRatio="none" style="width:998px;height:1171px;" version="1.1" viewBox="0 0 998 1171" width="998px" zoomAndPan="magnify"><defs><filter height="300%" id="fheeu49" width="300%" x="-1" y="-1"><feGaussianBlur result="blurOut" stdDeviation="2.0"/><feColorMatrix in="blurOut" result="blurOut2" type="matrix" values="0 0 0 0 0 0 0 0 0 0 0 0 0 0 0 0 0 0 .4 0"/><feOffset dx="4.0" dy="4.0" in="blurOut2" result="blurOut3"/><feBlend in="SourceGraphic" in2="blurOut3" mode="normal"/></filter></defs><g><text fill="#000000" font-family="sans-serif" font-size="18" lengthAdjust="spacingAndGlyphs" textLength="216" x="399.5" y="17.4023">ユースケース：ブログ記事</text><!--cluster ブログ記事--><polygon fill="#FFFFFF" filter="url(#fheeu49)" points="134,45.1992,134,44.677,143.5,44.5746,153,45.0521,162.5,45.4545,172,44.5127,181.5,44.4802,191,45.829,200.5,44.8805,210,45.1992,209.8693,45.1585,211.5086,49.7307,212.6927,54.1611,213.9769,58.6227,215.6654,63.2102,217,67.6875,217,68.4121,227,67.8981,237,68.1622,247,67.7697,257,68.3215,267,67.1159,277,68.0584,287,67.6361,297,67.0598,307,68.0438,317,67.5182,327,67.2975,337,67.8513,347,67.901,357,68.3864,367,67.5719,377,68.1888,387,67.296,397,67.9719,407,67.7811,417,67.9911,427,67.6938,437,67.4733,447,67.0867,457,67.1977,467,67.1753,477,67.3828,487,67.5608,497,67.5986,507,68.164,517,67.1545,527,67.1923,537,68.1948,547,67.8932,557,67.2748,567,67.0372,577,67.7127,587,67.4356,597,67.3,607,67.9363,617,67.5487,627,68.1203,637,67.933,647,68.1389,657,67.9058,667,68.1163,677,67.7942,687,67.7924,697,67.6921,707,67.871,717,68.2066,727,68.0787,737,68.3933,747,67.9561,757,67.5536,767,68.3052,777,67.5952,787,67.1835,797,68.0881,807,66.9874,817,67.6309,827,67.6271,837,67.4678,847,67.3907,857,67.449,867,67.9037,877,67.2676,887,68.1372,897,67.6875,896.5634,67.6875,897.5558,77.6558,896.5848,87.6241,897.13,97.5924,897.0382,107.5607,896.8162,117.5289,896.7964,127.4972,896.4059,137.4655,896.6311,147.4338,897.6798,157.4021,896.3017,167.3704,896.3317,177.3387,897.2182,187.307,897.3042,197.2752,897.4313,207.2435,897.0693,217.2118,896.8223,227.1801,897.6817,237.1484,897.5072,247.1167,896.8264,257.085,897.6009,267.0533,896.4078,277.0216,897.4217,286.9898,897.6967,296.9581,896.2523,306.9264,896.4475,316.8947,896.3106,326.863,896.6421,336.8313,896.7402,346.7996,896.8367,356.7679,896.6838,366.7362,897.6138,376.7044,896.3089,386.6727,896.5547,396.641,897.0558,406.6093,896.7757,416.5776,897.6696,426.5459,897.0566,436.5142,897.3741,446.4825,896.957,456.4507,896.9684,466.419,897.6591,476.3873,897.378,486.3556,896.3338,496.3239,896.7098,506.2922,897.1322,516.2605,897.433,526.2288,897.4078,536.1971,897.6977,546.1653,896.4628,556.1336,896.8774,566.1019,896.6323,576.0702,897.2729,586.0385,897.3181,596.0068,896.9844,605.9751,896.5072,615.9434,897.1717,625.9116,896.2568,635.8799,897.2936,645.8482,897.6542,655.8165,897.7054,665.7848,896.7078,675.7531,897.2869,685.7214,896.2633,695.6897,897.6583,705.658,897.1577,715.6262,897.6902,725.5945,896.8917,735.5628,896.3361,745.5311,897.3696,755.4994,897.0612,765.4677,896.8903,775.436,897.0511,785.4043,896.2824,795.3725,896.7854,805.3408,897.222,815.3091,896.5186,825.2774,896.527,835.2457,896.6383,845.214,897.1407,855.1823,897.6519,865.1506,896.7301,875.1189,897.6873,885.0871,897.0935,895.0554,897.0863,905.0237,896.9664,914.992,897.5034,924.9603,896.8197,934.9286,897.4326,944.8969,896.8661,954.8652,896.4198,964.8335,897.4215,974.8017,896.7592,984.77,896.476,994.7383,896.4309,1004.7066,896.6946,1014.6749,896.6289,1024.6432,897.0257,1034.6115,896.7472,1044.5798,897.7204,1054.548,897.1698,1064.5163,896.2509,1074.4846,897.033,1084.4529,896.6359,1094.4212,896.6457,1104.3895,897.3827,1114.3578,897.4343,1124.3261,897.1202,1134.2944,896.2983,1144.2626,897.3182,1154.2309,897,1164.1992,897,1163.8697,886.9605,1164.154,876.9211,1163.5756,866.8816,1163.5518,856.8421,1163.8995,846.8026,1164.7453,836.7632,1163.9323,826.7237,1164.3646,816.6842,1163.4952,806.6447,1164.2224,796.6053,1163.8646,786.5658,1164.2218,776.5263,1163.9506,766.4868,1164.1574,756.4474,1164.4981,746.4079,1164.0771,736.3684,1163.6284,726.3289,1164.0902,716.2895,1163.466,706.25,1164.4288,696.2105,1164.1022,686.1711,1164.8786,676.1316,1164.9152,666.0921,1164.4173,656.0526,1164.7826,646.0132,1163.9354,635.9737,1163.9779,625.9342,1164.2285,615.8947,1163.6235,605.8553,1164.6592,595.8158,1164.784,585.7763,1164.901,575.7368,1164.7937,565.6974,1164.8127,555.6579,1164.8548,545.6184,1164.1244,535.5789,1163.5666,525.5395,1163.7549,515.5,1164.8077,505.4605,1164.5528,495.4211,1164.6197,485.3816,1164.7855,475.3421,1163.7268,465.3026,1164.5524,455.2632,1163.963,445.2237,1163.9177,435.1842,1164.2967,425.1447,1164.1488,415.1053,1163.8115,405.0658,1163.6571,395.0263,1164.8801,384.9868,1164.7376,374.9474,1164.3979,364.9079,1164.8255,354.8684,1163.619,344.8289,1164.8749,334.7895,1163.9751,324.75,1163.6367,314.7105,1163.8758,304.6711,1164.6703,294.6316,1163.5971,284.5921,1164.6006,274.5526,1164.8892,264.5132,1163.9618,254.4737,1163.6732,244.4342,1164.9041,234.3947,1164.4117,224.3553,1164.5683,214.3158,1163.7872,204.2763,1164.6933,194.2368,1163.8099,184.1974,1163.9736,174.1579,1163.8386,164.1184,1163.6616,154.0789,1164.6553,144.0395,1164.8205,134,1164.1992,134.0118,1164.1992,133.8297,1154.2081,134.0098,1144.2171,133.8614,1134.226,134.6975,1124.2349,134.1846,1114.2439,133.7016,1104.2528,134.3314,1094.2617,133.613,1084.2706,134.2475,1074.2796,133.7382,1064.2885,133.9062,1054.2974,134.7192,1044.3064,133.4076,1034.3153,133.3309,1024.3242,133.706,1014.3331,134.0203,1004.3421,133.8785,994.351,133.719,984.3599,134.1213,974.3689,134.5532,964.3778,134.0158,954.3867,134.1807,944.3956,134.6563,934.4046,133.5947,924.4135,134.2408,914.4224,134.5645,904.4314,133.2783,894.4403,134.508,884.4492,134.6193,874.4581,133.5446,864.4671,133.6078,854.476,134.4216,844.4849,133.9501,834.4939,134.3025,824.5028,134.3772,814.5117,133.783,804.5206,134.23,794.5296,133.6644,784.5385,134.6362,774.5474,134.2603,764.5564,134.0725,754.5653,134.3768,744.5742,134.6857,734.5831,134.4685,724.5921,133.5782,714.601,134.1883,704.6099,134.1745,694.6189,133.5827,684.6278,133.2695,674.6367,133.714,664.6456,133.7062,654.6546,133.5643,644.6635,133.5299,634.6724,134.6999,624.6814,134.6604,614.6903,133.4639,604.6992,134.0102,594.7081,133.7716,584.7171,133.752,574.726,134.0876,564.7349,133.6944,554.7439,134.0461,544.7528,134.6176,534.7617,134.2068,524.7706,134.2517,514.7796,133.6099,504.7885,134.439,494.7974,133.9678,484.8064,133.9334,474.8153,133.8185,464.8242,133.791,454.8331,133.7128,444.8421,134.1131,434.851,134.1515,424.8599,134.0244,414.8689,133.5507,404.8778,133.612,394.8867,133.465,384.8956,134.5787,374.9046,134.7316,364.9135,134.1922,354.9224,134.4216,344.9314,133.6502,334.9403,134.6595,324.9492,133.5514,314.9581,134.1373,304.9671,134.131,294.976,133.7509,284.9849,133.3023,274.9939,133.6841,265.0028,134.1711,255.0117,133.784,245.0206,133.2738,235.0296,133.5005,225.0385,134.1107,215.0474,134.4101,205.0564,134.5284,195.0653,133.5145,185.0742,134.3762,175.0831,134.0966,165.0921,133.751,155.101,133.8608,145.1099,134.7322,135.1189,133.4487,125.1278,133.6273,115.1367,133.4754,105.1456,134.533,95.1546,134.6163,85.1635,134.4951,75.1724,134.5874,65.1814,133.3257,55.1903,134,45.1992" style="stroke: #000000; stroke-width: 2.0;"/><path d="M134,67.6875 L134,66.7843 L144.375,67.5869 L154.75,68.6028 L165.125,67.4379 L175.5,67.6449 L185.875,68.2922 L196.25,66.9327 L206.625,67.4135 L217,67.6875 " fill="#FFFFFF" style="stroke: #000000; stroke-width: 2.0;"/><text fill="#000000" font-family="sans-serif" font-size="14" font-weight="bold" lengthAdjust="spacingAndGlyphs" textLength="70" x="138" y="60.7344">ブログ記事</text><polygon fill="#FEFECE" filter="url(#fheeu49)" points="881.5801,364.7945,877.8188,366.8984,874.2874,369.3064,868.6587,371.3899,862.6637,373.4731,853.7945,374.8786,844.4884,376.095,834.8202,377.0559,824.3932,377.588,813.2665,377.6316,803.9885,377.7219,792.8888,376.9373,782.4761,375.8243,775.8531,375.0814,767.3586,373.3536,759.9683,371.3357,755.3339,369.424,751.1589,367.0972,747.8774,364.4907,746.2628,361.8319,746.5487,359.232,750.7204,357.2249,755.6352,355.1431,758.7344,352.4631,766.8123,350.871,773.8272,349.0283,784.5493,348.1458,793.4481,347.0035,803.0481,346.2764,813.939,346.1772,824.3833,346.3619,833.7121,346.7289,844.6786,347.9725,854.3762,349.4404,861.2379,350.7832,868.4637,352.7623,875.0503,355.1343,876.7292,356.8725,880.2394,359.533,881.3745,362.0787" style="stroke: #A80036; stroke-width: 1.5;"/><text fill="#000000" font-family="sans-serif" font-size="14" lengthAdjust="spacingAndGlyphs" textLength="98" x="765.0324" y="366.7498">ブログ記事管理</text><polygon fill="#FEFECE" filter="url(#fheeu49)" points="687.2049,288.0922,684.1805,291.5207,675.21,293.9555,670.5901,297.6022,658.5081,299.6893,645.7135,301.6162,635.1527,303.9271,620.8962,305.1733,606.255,305.9897,591.0819,306.2421,573.6445,305.4507,561.8334,305.3127,547.5176,303.9378,534.3257,302.0964,520.6418,299.3976,511.0455,296.8618,506.3291,294.6764,497.1092,290.7593,496.5047,288.1056,493.0408,284.1973,495.585,281.1053,499.7446,277.932,504.0372,274.4454,513.8261,271.961,520.4948,268.6566,533.5583,266.7902,547.7666,265.2995,562.503,264.1612,574.4225,262.7328,589.2482,262.4023,607.0779,263.2819,621.2385,263.9482,633.7257,264.9119,646.7164,266.708,658.722,269.0295,670.1203,271.9705,675.5544,274.3172,681.4913,277.4962,684.1344,280.6082,686.7464,284.325" style="stroke: #A80036; stroke-width: 1.5;"/><text fill="#000000" font-family="sans-serif" font-size="14" lengthAdjust="spacingAndGlyphs" textLength="168" x="506.5689" y="289.1571">ブログ記事一覧を表示する</text><polygon fill="#FEFECE" filter="url(#fheeu49)" points="672.5152,178.1332,671.2168,181.4783,665.6628,184.1553,660.3155,187.0867,648.6633,188.6823,641.6209,191.3313,628.5794,192.5046,616.544,193.7007,604.1837,194.5183,590.7597,194.6989,577.5741,194.46,565.6719,193.9722,551.7649,192.4291,540.2519,190.7955,532.823,189.4332,522.6921,186.7833,514.5184,183.9185,510.5892,181.3862,507.6112,178.4741,506.6989,175.4917,508.9817,172.7654,511.1919,169.6286,516.099,166.8038,521.6695,163.9234,530.9357,161.7826,541.077,159.8417,551.4762,158.0646,565.2403,157.2635,575.914,156.0606,591.2117,156.3081,604.1444,156.4892,615.3398,156.8155,628.8129,158.2595,641.3741,160.1325,649.8667,161.7379,657.8602,163.8995,665.8581,166.724,671.4632,169.6393,673.8458,172.4154,676.2467,175.7379" style="stroke: #A80036; stroke-width: 1.5;"/><text fill="#000000" font-family="sans-serif" font-size="14" lengthAdjust="spacingAndGlyphs" textLength="140" x="520.7351" y="180.1904">ブログ記事を作成する</text><polygon fill="#FEFECE" filter="url(#fheeu49)" points="674.2215,514.523,669.375,517.0575,666.5825,520.3655,658.8729,522.7571,651.8216,525.404,639.8648,526.93,630.1011,528.8523,617.4769,529.9139,603.4591,530.3527,590.0423,530.535,577.7487,530.4999,565.189,529.8618,550.8859,528.2282,541.9086,527.1741,532.6644,525.397,523.4878,522.9651,516.3186,520.3299,510.1996,517.2972,507.1854,514.3768,505.3903,511.1927,505.9352,508.0693,512.0275,505.8196,515.4504,502.6556,521.7434,499.9403,529.6004,497.4775,540.9614,495.8153,550.9428,493.9428,563.9837,492.9764,577.9602,492.5281,591.4697,492.3671,604.6467,492.604,617.8678,493.3932,629.2827,494.3669,640.5014,495.9331,649.0494,497.5512,658.0419,499.941,664.4726,502.4075,669.4095,505.17,675.5707,508.8095,674.6621,511.3758" style="stroke: #A80036; stroke-width: 1.5;"/><text fill="#000000" font-family="sans-serif" font-size="14" lengthAdjust="spacingAndGlyphs" textLength="140" x="520.7351" y="516.1904">ブログ記事を編集する</text><polygon fill="#FEFECE" filter="url(#fheeu49)" points="673.8958,441.4486,671.568,444.5585,664.7612,446.9493,659.8767,449.9865,650.1678,452.0261,641.3401,454.2671,629.0741,455.6176,615.8665,456.5459,603.9392,457.4624,589.8384,457.4884,576.1518,457.135,565.386,456.9068,552.9216,455.6934,540.2558,453.7964,531.3698,452.1012,522.7194,449.7895,517.192,447.5295,509.559,444.1508,509.1768,441.8318,507.9583,438.7794,509.0214,435.7745,511.5353,432.7071,516.7963,429.9631,521.9342,426.9839,531.3935,424.8872,540.6611,422.7467,552.7035,421.3451,566.1423,420.4696,577.9874,419.5343,589.9513,419.0201,604.5133,419.5735,617.883,420.3966,629.7482,421.4732,641.8704,423.2459,651.4606,425.1021,660.411,427.4823,666.5168,429.8745,671.3716,432.6183,673.2752,435.285,673.7658,438.171" style="stroke: #A80036; stroke-width: 1.5;"/><text fill="#000000" font-family="sans-serif" font-size="14" lengthAdjust="spacingAndGlyphs" textLength="140" x="520.7351" y="443.1904">ブログ記事を削除する</text><polygon fill="#FEFECE" filter="url(#fheeu49)" points="684.8427,365.561,682.7593,369.2012,678.3212,372.6551,669.2677,375.3049,660.3148,378.0956,646.2038,379.7264,634.1606,381.704,620.3894,383.0593,604.8695,383.6782,590.7003,384.1563,576.3476,384.0585,559.1947,382.7194,548.6325,382.1885,532.9788,379.7936,522.9445,377.9154,512.3166,375.1476,502.6801,371.8559,498.9446,369.172,493.301,365.3853,492.6528,362.1101,495.0378,358.9822,498.4368,355.638,503.1488,352.2456,512.0749,349.5672,523.8868,347.4193,534.7021,345.0474,548.2135,343.4,561.5642,341.9501,575.6878,341.0173,591.3277,340.8698,604.9919,340.8128,619.2816,341.5081,633.8676,342.9438,645.4302,344.4188,657.9356,346.8526,668.1624,349.5302,676.1034,352.4407,682.4565,355.7132,684.2811,358.6412,688.0324,362.6141" style="stroke: #A80036; stroke-width: 1.5;"/><text fill="#000000" font-family="sans-serif" font-size="14" lengthAdjust="spacingAndGlyphs" textLength="168" x="506.5689" y="367.1571">ブログ記事を一括削除する</text><polygon fill="#FEFECE" filter="url(#fheeu49)" points="425.9685,402.8294,421.797,407.5058,414.4384,411.9549,401.2765,415.4583,385.5849,418.5717,370.8477,421.8928,352.4035,424.2462,332.8353,426.0372,312.9774,427.2986,289.9904,427.2747,271.5357,427.5108,248.9955,426.0259,231.1053,424.6376,214.9016,422.639,197.398,419.3423,179.8603,415.0104,173.964,412.1978,161.9427,407.0742,159.7728,403.1796,158.5934,398.6692,155.9099,393.1046,162.5102,388.957,173.6089,385.3221,180.5846,380.472,195.0181,377.0847,214.5934,374.8168,228.5261,371.4813,248.9017,369.866,269.8091,368.8331,290.9213,368.4489,311.7269,368.7246,333.016,369.9371,356.1585,372.4689,373.7141,374.7618,390.4049,377.8815,403.3701,381.218,412.2152,384.6726,422.6046,389.4408,424.0988,393.1883,427.8794,398.265" style="stroke: #A80036; stroke-width: 1.5;"/><text fill="#000000" font-family="sans-serif" font-size="14" lengthAdjust="spacingAndGlyphs" textLength="252" x="166.0713" y="402.9576">記事を公開状態・非公開状態に設定する</text><polygon fill="#FEFECE" filter="url(#fheeu49)" points="365.0385,319.0684,361.0336,321.3339,355.3356,323.4721,351.1342,326.1411,342.8051,327.9401,333.2644,329.4566,324.0962,330.9679,314.8021,332.2679,304.2014,332.9961,291.0428,332.782,280.8249,332.837,268.9421,332.0277,260.5079,331.4976,249.1399,329.7237,239.8219,327.8462,234.4016,326.2884,228.5636,324.0517,223.5063,321.4372,221.5154,319.0127,218.6459,315.9072,221.4223,313.7013,221.9878,310.6341,228.4367,308.6709,233.2081,306.1348,241.9721,304.4372,248.9516,302.3236,259.9342,301.2353,269.459,299.989,280.6316,299.3942,292.933,299.4085,304.3267,299.6275,315.8285,300.348,324.4365,300.9187,333.376,302.1265,344.691,304.4695,349.3046,305.8392,356.8745,308.4796,360.7974,310.8297,363.505,313.4212,365.5529,316.3353" style="stroke: #A80036; stroke-width: 1.5;"/><text fill="#000000" font-family="sans-serif" font-size="14" lengthAdjust="spacingAndGlyphs" textLength="112" x="236.0352" y="320.8504">記事をコピーする</text><polygon fill="#FEFECE" filter="url(#fheeu49)" points="359.4237,250.7576,356.8389,253.1389,351.0323,255.0104,346.8303,257.4303,338.2885,258.9131,330.8394,260.6534,322.4862,262.0945,312.9263,263.0809,303.2688,263.7945,293.1612,264.0784,282.3715,263.8122,270.1738,262.7687,262.1965,262.2299,251.8384,260.6063,245.7888,259.455,237.1967,257.1538,232.3947,255.2026,229.6158,253.205,225.4833,250.3977,226.2081,248.2906,226.882,245.7822,228.1583,243.0923,232.5986,240.8987,238.5514,238.8916,245.9081,237.1294,252.3822,235.1592,260.2636,233.6068,270.9299,232.8813,282.2527,232.5604,293.3636,232.5131,301.731,232.2081,311.7698,232.7425,321.7646,233.757,330.2104,234.9297,340.6029,237.1051,346.0628,238.6677,350.5937,240.555,354.7756,242.8834,358.5834,245.6141,359.2556,248.0507" style="stroke: #A80036; stroke-width: 1.5;"/><text fill="#000000" font-family="sans-serif" font-size="14" lengthAdjust="spacingAndGlyphs" textLength="98" x="243.0324" y="252.7498">記事を削除する</text><polygon fill="#FEFECE" filter="url(#fheeu49)" points="387.2039,178.7547,382.9489,181.9065,376.4313,184.8928,370.7937,188.3107,362.2632,191.1964,349.1684,193.0558,335.1796,194.5958,320.3596,195.7153,306.3364,196.6708,292.4762,197.2184,276.374,196.7272,263.2283,196.2891,246.3896,194.3469,236.0267,193.1416,224.4227,190.9105,213.1539,187.9986,206.5007,185.3777,199.2089,181.8941,197.3935,178.9682,196.6894,175.6805,197.4103,172.1784,198.3341,168.2776,205.1696,165.3627,212.0577,162.226,221.9748,159.6522,235.2241,157.8275,249.7904,156.4173,262.252,154.7675,277.3159,154.0461,293.1241,153.9365,308.0097,154.1541,319.9901,154.3302,337.4055,156.4021,350.5012,158.2218,361.9535,160.4188,371.1542,162.8657,377.0431,165.3147,385.5814,169.0786,385.6132,171.6035,389.6011,175.6296" style="stroke: #A80036; stroke-width: 1.5;"/><text fill="#000000" font-family="sans-serif" font-size="14" lengthAdjust="spacingAndGlyphs" textLength="168" x="208.0689" y="180.1571">新しいカテゴリを追加する</text><polygon fill="#FEFECE" filter="url(#fheeu49)" points="375.7303,102.525,371.5105,105.2027,366.0875,107.9096,361.4793,111.0099,351.1287,112.9029,341.8495,115.0408,329.752,116.4298,319.8241,118.1075,306.4801,118.7003,291.2758,118.4741,280.203,118.718,267.6128,118.0729,254.7959,116.7789,244.2575,115.368,233.7002,113.2909,224.1925,110.7834,215.5354,107.8082,213.5028,105.7092,210.3473,102.7565,208.8328,99.6365,208.9695,96.4199,210.6372,93.1592,218.2396,90.9501,225.475,88.4502,232.5339,85.805,241.3082,83.5518,252.7977,82.0239,266.2732,81.1568,279.9477,80.6395,291.6396,80.0632,306.2204,80.6208,317.3219,80.9257,331.0364,82.4248,343.3431,84.2397,351.7963,85.8361,360.5229,88.1651,367.566,90.7715,372.4079,93.5124,375.1949,96.3809,376.5479,99.464" style="stroke: #A80036; stroke-width: 1.5;"/><text fill="#000000" font-family="sans-serif" font-size="14" lengthAdjust="spacingAndGlyphs" textLength="140" x="222.2351" y="104.1904">新しいタグを追加する</text><polygon fill="#FEFECE" filter="url(#fheeu49)" points="414.7377,494.7226,406.9045,498.0863,399.1401,501.8899,388.9887,505.4583,377.7655,508.9378,363.9599,511.8501,349.3667,514.4431,327.6399,515.1803,309.5131,516.2833,292.7052,517.1261,274.1868,516.9316,254.9307,515.818,235.2188,513.7708,219.3648,511.681,205.336,509.0678,193.3413,505.9657,184.5264,502.6379,177.8416,498.888,172.355,494.5676,167.6305,489.6576,170.3345,485.7174,175.0308,481.6648,182.7746,477.8567,193.1708,474.342,206.074,471.2315,220.7618,468.5129,234.9448,465.8298,256.0395,464.9538,274.1726,463.8522,291.2354,463.0654,311.0858,463.5525,329.5411,464.4901,346.3208,465.8934,365.6015,468.7358,380.5989,471.5617,390.8197,474.2741,402.5632,478.2452,410.383,482.2443,412.7613,485.8821,413.8413,489.9917" style="stroke: #A80036; stroke-width: 1.5;"/><text fill="#000000" font-family="sans-serif" font-size="14" lengthAdjust="spacingAndGlyphs" textLength="224" x="179.8447" y="494.8123">フロントの最新記事一覧を表示する</text><polygon fill="#FEFECE" filter="url(#fheeu49)" points="430.9517,587.4873,429.0799,592.9182,419.5436,597.1747,409.5139,601.6561,390.1494,604.2811,376.0371,608.0451,358.5339,610.9057,334.416,611.9998,313.9886,613.4066,293.3224,614.1302,272.8268,614.1312,248.4546,612.4224,230.4619,611.14,210.1498,608.333,192.4728,605.0364,174.4811,600.5974,168.153,597.6269,155.5696,592.2782,150.0237,587.4986,152.6248,583.6167,153.8112,578.6685,159.5949,574.0859,165.4039,569.0211,178.8086,565.2716,192.634,561.4454,206.5346,557.6354,226.8392,555.3824,249.5621,553.9857,267.8581,552.1167,291.1926,551.9718,314.5217,552.5853,338.5236,554.2138,357.5626,555.7231,373.8076,557.6481,392.284,561.118,407.4301,564.9399,417.8185,568.7909,428.8741,573.8083,431.931,578.0482,434.2976,583.0073" style="stroke: #A80036; stroke-width: 1.5;"/><text fill="#000000" font-family="sans-serif" font-size="14" lengthAdjust="spacingAndGlyphs" textLength="266" x="159.2413" y="587.7916">フロントのカテゴリ別記事一覧を表示する</text><polygon fill="#FEFECE" filter="url(#fheeu49)" points="420.5632,682.0752,416.4966,686.5196,406.1955,690.0468,397.2495,694.1734,385.3632,697.8109,367.9861,700.248,348.6594,702.1053,331.5804,704.1506,314.3562,705.7187,289.7315,705.0919,272.4763,705.3821,251.7708,704.1239,234.9578,702.8422,215.9512,700.1473,198.3301,696.7859,189.3562,694.3333,179.3898,690.6942,168.6198,685.946,164.5407,681.7859,162.144,677.1995,162.7155,672.5679,169.4077,668.6975,174.5461,664.0417,185.1435,660.276,203.3164,658.0129,214.5375,654.2301,235.4987,652.7301,250.1876,650.1622,271.4046,649.4671,294.4623,649.7513,313.8834,649.9345,334.1596,651.0988,350.3592,652.2465,369.8396,655.045,382.0695,657.2278,398.1123,661.2258,404.9451,664.1797,413.7762,668.5041,421.8456,673.5366,423.1341,677.8807" style="stroke: #A80036; stroke-width: 1.5;"/><text fill="#000000" font-family="sans-serif" font-size="14" lengthAdjust="spacingAndGlyphs" textLength="238" x="172.9371" y="682.1308">フロントのタグ別記事一覧を表示する</text><polygon fill="#FEFECE" filter="url(#fheeu49)" points="413.4755,771.4454,408.419,775.4189,401.3788,779.3815,391.8225,783.0807,376.7702,785.7192,365.2917,789.1426,345.9277,790.6878,330.2266,792.7484,308.6523,793.0943,292.0848,793.9898,271.0095,793.2338,252.5588,792.2972,234.9627,790.7145,218.1926,788.4235,203.2029,785.5993,191.1322,782.4806,183.0473,779.3131,175.8651,775.4539,173.3508,771.7863,170.4684,767.2808,169.0663,762.4389,175.9931,758.8761,183.4338,755.0015,191.6781,751.0142,204.4262,747.8696,218.5754,745.0327,237.0542,743.2931,252.5864,741.1955,273.9998,740.8142,290.9136,739.9947,313.1971,741.0161,330.4399,741.6875,345.5978,742.7346,361.727,744.8849,379.6672,748.357,392.9227,751.736,401.9071,755.1011,407.7606,758.6684,411.0629,762.5091,412.7596,766.7542" style="stroke: #A80036; stroke-width: 1.5;"/><text fill="#000000" font-family="sans-serif" font-size="14" lengthAdjust="spacingAndGlyphs" textLength="224" x="179.8447" y="771.8123">フロントの年別記事一覧を表示する</text><polygon fill="#FEFECE" filter="url(#fheeu49)" points="415.0705,860.7957,409.2544,864.6024,401.2698,868.3576,389.625,871.5981,380.1201,875.4549,365.0027,878.0791,346.9556,879.9136,330.0986,881.7203,311.4038,882.6986,290.6797,882.6812,273.0693,882.6861,256.1573,882.0874,234.2522,879.5585,217.6329,877.3006,206.159,875.2485,193.3056,871.9579,182.166,868.1195,177.3774,864.786,172.4835,860.5958,170.3529,856.2555,168.9068,851.4039,175.6506,847.8009,183.0079,843.9079,190.9003,839.8433,205.8379,837.1796,218.7332,834.0674,235.784,832.0141,254.0535,830.5177,271.3465,829.2315,289.538,828.6926,309.7905,829.268,329.4486,830.4698,347.8347,832.2259,364.674,834.5321,378.6253,837.1282,390.8321,840.2769,401.3116,843.9703,407.6345,847.6407,413.3914,852.0205,415.8467,856.4321" style="stroke: #A80036; stroke-width: 1.5;"/><text fill="#000000" font-family="sans-serif" font-size="14" lengthAdjust="spacingAndGlyphs" textLength="224" x="179.8447" y="860.8123">フロントの月別記事一覧を表示する</text><polygon fill="#FEFECE" filter="url(#fheeu49)" points="414.9739,949.7745,409.4891,953.6539,402.5833,957.6461,392.4176,961.2114,377.0981,963.7912,365.8236,967.2594,348.5272,969.2587,330.4703,970.8019,311.8634,971.7995,291.6736,971.8995,273.9573,971.8812,252.1795,970.2139,236.1409,968.9733,220.8171,966.9999,204.081,963.7922,192.2605,960.7284,181.347,956.9397,173.8656,953.0148,171.64,949.4106,170.55,945.2987,172.0989,941.1049,173.1569,936.2532,181.5653,932.5911,195.0894,929.7633,207.2945,926.4995,217.711,922.8429,237.1954,921.3241,252.6907,919.2184,271.617,918.2909,290.8323,917.9769,311.1837,918.574,327.5374,919.05,348.9369,921.4679,364.7514,923.5491,378.6965,926.1439,390.5417,929.2131,402.6166,933.2569,407.9331,936.7063,413.9289,941.1385,415.4206,945.3386" style="stroke: #A80036; stroke-width: 1.5;"/><text fill="#000000" font-family="sans-serif" font-size="14" lengthAdjust="spacingAndGlyphs" textLength="224" x="179.8447" y="949.8123">フロントの日別記事一覧を表示する</text><polygon fill="#FEFECE" filter="url(#fheeu49)" points="417.0919,1039.3163,412.5555,1043.658,407.5003,1048.332,396.9724,1052.1128,384.9802,1055.7271,369.5767,1058.5957,348.0711,1059.9767,333.9531,1062.6693,313.5853,1063.5501,290.1411,1063.1814,274.3247,1063.7862,252.9715,1062.3864,235.2867,1060.9141,217.5068,1058.4874,202.7777,1055.7582,186.1629,1051.6352,175.6832,1047.8839,168.5327,1043.927,162.0375,1039.2387,162.9355,1035.3725,164.7235,1031.0069,171.7171,1027.2023,177.9154,1022.7783,189.8132,1019.2969,200.9244,1015.49,216.6059,1012.6823,234.4532,1010.5015,254.5388,1009.1134,269.7989,1007.116,293.6997,1007.5846,312.2529,1007.5781,334.2916,1009.1277,348.7652,1009.8981,369.8125,1013.039,382.3113,1015.2807,394.6827,1018.476,405.5452,1022.3109,415.8255,1026.9521,416.9521,1030.4668,420.1029,1035.218" style="stroke: #A80036; stroke-width: 1.5;"/><text fill="#000000" font-family="sans-serif" font-size="14" lengthAdjust="spacingAndGlyphs" textLength="238" x="172.9371" y="1040.1308">フロントの著者別記事一覧を表示する</text><polygon fill="#FEFECE" filter="url(#fheeu49)" points="398.0898,1126.3814,396.436,1130.6054,387.7014,1133.6412,380.1225,1137.1946,369.4119,1140.1852,355.2747,1142.4152,342.5575,1144.8282,324.0976,1145.7054,308.2321,1146.775,292.2593,1147.3241,276.0409,1147.2212,259.6352,1146.3932,241.8639,1144.5093,226.9765,1142.462,213.3515,1139.8603,203.5222,1137.2562,192.3508,1133.5196,189.3423,1130.7914,183.1778,1126.6098,180.4639,1122.5106,185.5692,1119.5494,186.7377,1115.2178,194.93,1112.0615,205.4718,1109.1657,215.3965,1106.0008,227.3658,1103.2896,242.438,1101.3993,257.9214,1099.8614,274.9528,1099.0506,293.8251,1099.1451,309.2978,1099.0824,326.0978,1099.9979,339.876,1100.9956,355.556,1103.2188,370.894,1106.2007,380.8115,1108.8244,391.0526,1112.3544,395.346,1115.3679,398.4895,1118.879,402.3703,1123.2372" style="stroke: #A80036; stroke-width: 1.5;"/><text fill="#000000" font-family="sans-serif" font-size="14" lengthAdjust="spacingAndGlyphs" textLength="196" x="193.8163" y="1127.7066">フロントの記事詳細を表示する</text><polygon fill="#FEFECE" filter="url(#fheeu49)" points="668.6801,1126.3282,666.227,1129.1791,660.5643,1131.5751,653.4115,1133.8218,645.634,1136.0228,636.0863,1137.8154,624.8702,1139.1248,615.3168,1140.6235,601.7007,1140.8996,588.9783,1141.0122,579.0874,1141.3333,565.1766,1140.2184,555.6133,1139.5461,545.0363,1138.0419,534.9995,1136.0412,527.3414,1133.9605,519.2204,1131.1518,516.5816,1129.0097,514.1235,1126.3489,513.5417,1123.6122,513.5721,1120.5721,516.4485,1117.8189,520.0549,1114.9485,526.6023,1112.5622,535.5367,1110.6281,545.0653,1108.8311,554.6447,1107.1441,566.8634,1106.2602,577.5072,1105.2986,590.4494,1105.2367,603.2174,1105.5792,613.3841,1105.8304,627.0404,1107.4468,637.1651,1108.8467,646.654,1110.721,655.1678,1112.9991,661.3112,1115.3516,665.769,1117.9133,667.9287,1120.5053,669.4031,1123.4478" style="stroke: #A80036; stroke-width: 1.5;"/><text fill="#000000" font-family="sans-serif" font-size="14" lengthAdjust="spacingAndGlyphs" textLength="126" x="527.2871" y="1128.0008">記事にコメントする</text><!--entity ユーザー--><polygon fill="#FEFECE" filter="url(#fheeu49)" points="976.75,333.2596,976.2564,334.8164,974.9897,336.2901,973.5275,336.915,972.1446,337.7286,970.5672,338.5085,967.8582,338.717,965.2708,338.017,963.8447,336.8264,962.1487,334.7064,961.0673,332.2486,960.9452,330.2397,961.0869,328.6703,962.1084,326.4963,963.6403,324.1615,965.2482,323.4162,966.9583,323.0215,968.9552,323.0884,971.2198,323.2428,972.8759,323.541,974.1905,325.1594,975.9584,326.9382,977.1559,328.7772,977.3873,330.7656" style="stroke: #A80036; stroke-width: 2.0;"/><path d="M969,338.6992 L969.192,338.6992 L968.8197,344.0992 L969.426,349.4992 L969.0009,354.8992 L969.3877,360.2992 L969,365.6992 M956,346.6992 L956,347.0202 L961.2,346.143 L966.4,347.2966 L971.6,346.2957 L976.8,347.1719 L982,346.6992 M969,365.6992 L968.7426,365.4762 L966.757,369.0086 L963.6401,371.5607 L961.5163,374.9734 L958.7797,377.855 L956,380.6992 M969,365.6992 L968.7317,365.4667 L971.2241,368.3734 L973.8591,371.4038 L977.1172,374.9742 L979.6095,377.8808 L982,380.6992 " fill="#FEFECE" style="stroke: #A80036; stroke-width: 2.0;"/><text fill="#000000" font-family="sans-serif" font-size="14" lengthAdjust="spacingAndGlyphs" textLength="56" x="941" y="401.2344">ユーザー</text><!--entity 閲覧ユーザー--><polygon fill="#FEFECE" filter="url(#fheeu49)" points="55.6651,782.3185,54.8187,784.3165,53.8353,785.5202,52.1465,786.96,50.7764,788.4185,48.6458,788.7832,46.6576,788.6195,44.6032,787.7598,42.5141,786.1641,41.6559,784.7556,40.6931,783.2525,39.8881,781.2415,40.4204,778.5348,41.4297,776.1094,43.2608,774.7846,45.4478,773.2973,47.5011,772.8186,49.1693,773.0118,51.5304,774.0367,52.8951,774.7276,54.6312,775.6898,55.4678,778.2197,55.9091,780.7822" style="stroke: #A80036; stroke-width: 2.0;"/><path d="M48,788.6992 L47.7889,788.6992 L47.8302,794.0992 L48.2554,799.4992 L48.2928,804.8992 L48.4068,810.2992 L48,815.6992 M35,796.6992 L35,796.9724 L40.2,796.2416 L45.4,796.6938 L50.6,797.3164 L55.8,797.2123 L61,796.6992 M48,815.6992 L47.746,815.4791 L45.2649,818.5821 L42.3843,821.339 L40.4041,824.8761 L37.4512,827.5702 L35,830.6992 M48,815.6992 L47.7362,815.4706 L50.9856,819.0334 L53.0729,821.5891 L56.2939,825.1273 L58.8767,828.1124 L61,830.6992 " fill="#FEFECE" style="stroke: #A80036; stroke-width: 2.0;"/><text fill="#000000" font-family="sans-serif" font-size="14" lengthAdjust="spacingAndGlyphs" textLength="84" x="6" y="851.2344">閲覧ユーザー</text><path d="M886.65,362.1992 L886.65,362.278 L897.498,362.5034 L908.346,361.9551 L919.194,362.6895 L930.042,362.7913 L940.89,362.1992 " fill="none" style="stroke: #A80036; stroke-width: 1.0;"/><polygon fill="#A80036" points="881.22,362.1992,881.2931,362.3638,883.0208,363.0011,884.8418,363.8482,886.6759,364.7249,888.5041,365.5884,890.22,366.1992,890.0845,366.0637,889.2639,365.2431,888.7258,364.705,887.9047,363.8839,887.0873,363.0665,886.22,362.1992,886.1713,362.1506,886.8607,361.2399,887.9227,360.702,888.7371,359.9163,889.5178,359.0971,890.22,358.1992,890.2811,358.3368,888.4504,359.0675,886.6578,359.8842,884.8678,360.7069,882.931,361.199,881.22,362.1992" style="stroke: #A80036; stroke-width: 1.0;"/><path d="M647.69,303.9892 L647.9749,304.7983 L656.9773,307.6724 L665.8512,310.1815 L675.2247,314.1097 L684.4469,317.6079 L692.9724,319.1277 L702.5037,323.5038 L711.2905,325.7656 L720.6702,329.7112 L729.8764,333.1642 L738.803,335.823 L748.1903,339.79 L757.0784,342.3397 L766.2077,345.5743 L775.39,348.9592 " fill="none" style="stroke: #A80036; stroke-width: 1.0;"/><polygon fill="#A80036" points="642.87,302.2892,642.9666,302.3916,644.3375,303.6776,645.9047,305.1717,647.2441,306.4243,648.7101,307.811,650.0342,309.0475,650.1201,309.0887,649.5472,308.0286,649.0949,307.0264,648.4339,305.924,647.9705,304.9165,647.5871,303.9473,647.6608,304.1011,648.71,303.6724,649.5431,302.7933,650.5815,302.3422,651.6714,301.9985,652.6872,301.5002,652.7009,301.6708,650.7405,301.8666,648.7796,302.0557,646.8007,302.0206,644.8436,302.2573,642.87,302.2892" style="stroke: #A80036; stroke-width: 1.0;"/><path d="M622.28,196.3892 L622.2517,196.3496 L625.4628,198.76 L628.3872,200.7691 L631.3103,202.7765 L634.2648,204.8278 L637.4916,207.26 L637.6354,207.4555 L640.648,209.4977 L643.9486,211.9314 L647.3797,214.5427 L650.4632,216.6813 L653.9425,219.358 L654.1212,219.5922 L657.4761,222.1488 L660.8603,224.7439 L664.1483,227.2127 L667.243,229.4283 L670.7422,232.1741 L670.8806,232.3492 L672.3009,233.3616 L674.136,234.899 L675.7402,236.1441 L677.3649,237.4151 L678.9945,238.6923 L679.0477,238.7578 L680.4153,239.7719 L682.2987,241.4205 L683.8263,242.6315 L685.2242,243.6829 L687,245.1992 L686.9965,245.1951 L690.3374,248.0849 L693.094,250.2825 L696.2416,252.9433 L699.4269,255.6488 L702.6741,258.4276 L702.5634,258.3011 L705.8679,261.235 L708.7621,263.7001 L711.9434,266.4931 L715.163,269.3299 L718.4195,272.2089 L718.432,272.2227 L721.3676,274.8332 L724.7752,277.9674 L727.7377,280.6076 L730.7059,283.2542 L733.9299,286.1847 L734.1493,286.4225 L736.8846,288.9048 L739.8426,291.6284 L743.1091,294.6864 L746.0993,297.4449 L748.8988,299.9967 L748.8532,299.9483 L751.8757,302.817 L754.5863,305.3543 L757.5603,308.1715 L760.029,310.4517 L763.0196,313.2865 L763.035,313.3026 L765.4888,315.6387 L768.2785,318.3257 L770.872,320.8078 L773.4848,323.31 L775.9861,325.6958 L776.0304,325.7411 L780.1819,329.7903 L784.6357,334.1489 L788.9019,338.3154 L792.9655,342.2744 L797.23,346.4392 " fill="none" style="stroke: #A80036; stroke-width: 1.0;"/><polygon fill="#A80036" points="618.06,193.4192,618.1951,193.4998,618.9867,195.0622,619.881,196.6858,621.2324,198.582,622.2263,200.2651,623.1037,201.8786,623.1772,201.8913,623.05,200.7875,622.7086,199.6467,622.3989,198.5115,622.3173,197.4155,622.144,196.3038,622.1472,196.3221,623.2203,195.8869,624.3398,195.7211,625.5113,195.8575,626.5899,195.4547,627.7189,195.3441,627.6957,195.2278,625.8208,195.1282,623.8722,194.6589,621.9686,194.4153,619.9854,193.7723,618.06,193.4192" style="stroke: #A80036; stroke-width: 1.0;"/><path d="M645.86,493.9892 L645.8846,494.0494 L647.8777,492.9293 L650.0211,492.1773 L652.1263,491.3317 L654.2749,490.5921 L656.3606,489.6989 L656.2895,489.5408 L658.3361,488.4668 L660.4661,487.5779 L662.6978,486.9148 L664.7936,485.9499 L666.88,484.9642 L667.0167,485.2364 L668.8478,483.7489 L671.0671,483.0345 L672.9509,481.6519 L675.2553,481.1068 L677.1744,479.7945 L677.1149,479.69 L679.1908,478.7655 L681.0682,477.4925 L683.141,476.5624 L684.8784,475.0435 L687,474.1992 L686.8761,474.004 L688.8111,473.2928 L690.506,472.2032 L692.2631,471.2115 L693.8904,470.0153 L695.5073,468.8027 L695.4148,468.6665 L697.017,467.3879 L698.7409,466.2884 L700.5404,465.3001 L702.2772,464.2197 L703.9607,463.0608 L703.7961,462.8324 L705.4637,461.6179 L707.3848,460.7552 L708.9203,459.3574 L710.6779,458.2677 L712.3285,457.0297 L712.1779,456.8313 L713.8263,455.5763 L715.5379,454.4046 L717.3654,453.3854 L718.7795,451.8218 L720.5789,450.7656 L720.661,450.8689 L722.1871,449.4622 L723.684,448.019 L725.6443,447.1585 L727.1091,445.6748 L728.6803,444.3249 L728.6091,444.239 L730.4052,443.1826 L732.0426,441.9346 L733.493,440.461 L735.2143,439.3143 L736.6011,437.7638 L736.4475,437.5852 L738.1937,436.498 L739.7393,435.1776 L741.3131,433.8899 L742.9705,432.6995 L744.3094,431.1386 L744.5093,431.3634 L745.8477,429.8631 L747.2802,428.4685 L748.968,427.3612 L750.1487,425.6833 L751.7738,424.5055 L751.6772,424.4015 L754.5587,421.8613 L757.2626,419.1299 L760.4415,416.9099 L763.2196,414.2584 L765.8435,411.4407 L765.7979,411.3941 L768.4782,409.0508 L770.8003,406.3408 L773.5857,404.105 L775.9752,401.4641 L778.5567,399.0197 L778.6456,399.1068 L780.5593,396.5405 L782.9455,394.4373 L785.2886,392.2919 L787.4942,390.0116 L789.6601,387.6925 L789.4637,387.507 L791.6196,385.8411 L793.5852,383.9956 L795.4444,382.0496 L796.9253,379.7462 L798.9,377.9092 " fill="none" style="stroke: #A80036; stroke-width: 1.0;"/><polygon fill="#A80036" points="641.18,495.7792,641.1867,495.9051,643.1515,495.9688,645.1037,495.7955,647.0727,495.9376,649.0392,496.0319,651.015,496.302,651.0255,496.3256,649.8833,495.6194,648.8973,495.2628,647.8925,494.864,646.8197,494.3132,645.8504,493.9939,646.0201,494.0697,646.4189,493.0087,646.8371,491.9564,647.144,490.8544,647.6488,489.8407,648.1585,488.8293,647.9833,488.6535,646.9033,490.3604,645.2239,491.4656,644.0143,493.0423,642.6656,494.4795,641.18,495.7792" style="stroke: #A80036; stroke-width: 1.0;"/><path d="M642.51,420.6992 L642.3324,420.1816 L651.7965,416.936 L661.685,414.9274 L670.6335,410.1791 L680.0943,406.9238 L689.6344,403.8996 L699.1785,400.8872 L708.4613,397.1132 L717.9481,393.9338 L727.5814,391.1814 L737.3804,388.9118 L746.5997,384.9527 L755.98,381.4628 L765.2592,377.6785 L775,375.2392 " fill="none" style="stroke: #A80036; stroke-width: 1.0;"/><polygon fill="#A80036" points="637.66,422.3592,637.6741,422.5165,639.6396,422.7324,641.5955,422.8402,643.5655,423.1058,645.4883,422.844,647.4697,423.237,647.4398,423.1762,646.491,422.8134,645.5401,422.4466,644.4808,421.8588,643.5172,421.4659,642.3919,420.7438,642.2182,420.6586,643.0653,419.8141,643.2552,418.6469,643.7554,417.6322,644.4059,416.6912,644.885,415.666,644.9345,415.7194,643.4758,417.0433,642.0976,418.454,640.4945,419.622,639.1519,421.0712,637.66,422.3592" style="stroke: #A80036; stroke-width: 1.0;"/><path d="M692.25,362.1992 L692.25,361.2692 L703.156,361.903 L714.062,362.6086 L724.968,362.5707 L735.874,362.8164 L746.78,362.1992 " fill="none" style="stroke: #A80036; stroke-width: 1.0;"/><polygon fill="#A80036" points="687.04,362.1992,686.9885,362.0834,688.8305,362.9778,690.5985,363.7058,692.3581,364.4149,694.311,365.5589,696.04,366.1992,696.014,366.1732,695.1938,365.353,694.4616,364.6208,693.6719,363.8312,692.7664,362.9257,692.04,362.1992,692.2006,362.3598,692.694,361.2532,693.5133,360.4725,694.4736,359.8328,695.1999,358.9591,696.04,358.1992,696.1007,358.3359,694.3032,359.1415,692.4979,359.9295,690.5703,360.4423,688.8761,361.4804,687.04,362.1992" style="stroke: #A80036; stroke-width: 1.0;"/><path d="M373.61,372.2292 L373.7136,372.5275 L376.5477,370.9478 L379.5388,369.8205 L382.593,368.8747 L385.7475,368.2177 L388.7033,366.9884 L388.62,366.7554 L391.6837,365.6812 L394.7554,364.6296 L397.8953,363.7686 L400.867,362.4372 L403.9888,361.5255 L403.9347,361.3793 L406.9783,360.2689 L410.0023,359.1053 L413.0175,357.9181 L416.1179,356.9609 L419.1823,355.9069 L419.212,355.984 L422.0448,354.503 L425.1094,353.6238 L428.0743,352.4858 L431.0293,351.3222 L434,350.1992 L433.8817,349.9156 L437.4768,348.9252 L440.768,347.206 L444.2012,345.8274 L447.6326,344.4445 L451.0714,343.0794 L451.0057,342.9382 L453.5921,341.6712 L456.3526,340.7783 L458.9533,339.5421 L461.5893,338.3815 L464.1238,337.003 L464.0519,336.8531 L466.6609,335.6301 L469.3365,334.5462 L471.8141,333.0493 L474.6113,332.2188 L477.1142,330.7747 L477.1528,330.8608 L480.5113,329.3039 L484.0045,328.0476 L487.3372,326.4334 L490.5312,324.5101 L494,323.1992 L494.0817,323.393 L498.9912,321.3725 L503.8246,319.1716 L508.7334,317.1496 L513.6153,315.0638 L518.4588,312.8867 L518.4286,312.8132 L523.3895,311.0794 L528.13,308.809 L532.8992,306.6085 L537.8511,304.8526 L542.73,302.9192 " fill="none" style="stroke: #A80036; stroke-width: 1.0;"/><polygon fill="#A80036" points="368.85,373.8492,368.8296,373.6216,370.831,374.2377,372.792,374.4035,374.7193,374.1909,376.7186,374.7852,378.6597,374.727,378.6619,374.7315,377.6259,374.1912,376.7157,373.9073,375.7182,373.4454,374.6283,372.7953,373.5819,372.2338,373.6754,372.2797,374.1232,371.2392,374.485,370.1565,375.0815,369.189,375.5605,368.1637,376.075,367.156,376.1965,367.2871,374.5416,368.3992,373.1896,369.8382,371.6748,371.1015,370.2936,372.509,368.85,373.8492" style="stroke: #A80036; stroke-width: 1.0;"/><path d="M363.12,308.6292 L363.2199,309.5551 L373.0743,307.0725 L383.1514,306.6545 L393.1042,305.0843 L403.2079,304.9116 L413.1663,303.3934 L423.1124,301.7607 L433.219,301.6157 L443.2677,300.9345 L453.2065,299.2343 L463.2563,298.5627 L473.2287,297.1735 L483.2474,296.2139 L493.2553,295.1542 L503.2,293.5092 " fill="none" style="stroke: #A80036; stroke-width: 1.0;"/><polygon fill="#A80036" points="358.07,309.1792,358.0674,309.171,359.8968,309.6246,361.7735,310.2259,363.7235,311.0568,365.5104,311.3772,367.451,312.1786,367.5187,312.2629,366.6883,311.6189,365.7649,310.859,364.7316,309.9623,363.8677,309.2766,363.0405,308.6365,363.1908,308.7572,363.6244,307.6544,364.4938,306.9015,365.2483,306.0565,365.7939,305.0435,366.5826,304.2259,366.5798,304.2211,364.7627,305.0148,363.2751,306.3749,361.4884,307.2209,359.7461,308.1431,358.07,309.1792" style="stroke: #A80036; stroke-width: 1.0;"/><path d="M357.15,255.9892 L357.0613,255.2587 L366.9989,256.9005 L376.8685,257.9817 L386.7638,259.2748 L396.6255,260.2909 L406.4748,261.2054 L416.3353,262.2117 L426.3716,264.6656 L436.1494,264.9914 L446.2225,267.7487 L455.8909,267.1726 L465.8279,268.8097 L475.6726,269.6855 L485.7063,272.1186 L495.4885,272.4805 L505.41,273.9892 " fill="none" style="stroke: #A80036; stroke-width: 1.0;"/><polygon fill="#A80036" points="351.93,255.3592,352.0308,255.528,353.7121,256.5213,355.3471,257.4372,357.0734,258.5059,358.7319,259.4611,360.3859,260.4088,360.3462,260.3776,359.6615,259.4983,358.9541,258.6011,358.34,257.7772,357.4414,256.73,356.894,255.9583,356.8532,255.9064,357.7041,255.1581,358.6202,254.4928,359.4189,253.6779,360.4447,253.1526,361.3444,252.4664,361.3475,252.4762,359.4585,253.0351,357.5189,253.429,355.6694,254.1163,353.822,254.8103,351.93,255.3592" style="stroke: #A80036; stroke-width: 1.0;"/><path d="M394.22,175.1992 L394.22,175.7238 L404.4218,175.1588 L414.6236,174.5535 L424.8255,175.8078 L435.0273,174.3006 L445.2291,175.5851 L455.4309,175.6043 L465.6327,174.3813 L475.8345,175.9827 L486.0364,175.4011 L496.2382,174.447 L506.44,175.1992 " fill="none" style="stroke: #A80036; stroke-width: 1.0;"/><polygon fill="#A80036" points="388.86,175.1992,388.8294,175.1303,390.7107,176.1133,392.4585,176.7959,394.2887,177.6638,396.0314,178.3348,397.86,179.1992,397.8597,179.1989,397.2335,178.5727,396.2361,177.5753,395.2929,176.6321,394.659,175.9982,393.86,175.1992,393.7217,175.0609,394.685,174.4242,395.4625,173.6017,396.2274,172.7666,397.2076,172.1468,397.86,171.1992,397.8849,171.2552,396.0941,172.076,394.3103,172.9123,392.391,173.444,390.6794,174.4429,388.86,175.1992" style="stroke: #A80036; stroke-width: 1.0;"/><path d="M353.48,114.6992 L353.6264,115.2704 L363.1985,117.9156 L372.6601,120.1299 L381.9385,121.6292 L391.7937,125.3792 L400.8733,126.1032 L410.6781,129.6561 L419.8773,130.8469 L429.6183,134.1511 L439.1529,136.6499 L448.8489,139.7789 L458.3161,142.0149 L467.6338,143.6675 L477.1893,146.2483 L486.7269,148.7589 L496.499,152.1845 L506.0313,154.6744 L515.531,157.0373 L524.9191,158.9648 L534.35,161.0592 " fill="none" style="stroke: #A80036; stroke-width: 1.0;"/><polygon fill="#A80036" points="348.42,113.4092,348.339,113.3068,349.9506,114.6139,351.4764,115.8124,353.1887,117.2466,354.6721,118.3915,356.1432,119.5209,356.1161,119.5049,355.385,118.4394,354.9963,117.5765,354.4723,116.6335,353.7895,115.5965,353.2631,114.6521,353.3401,114.7824,354.2016,114.0166,355.2108,113.5004,356.2158,112.9773,357.2531,112.5087,358.1318,111.772,358.1372,111.8041,356.192,112.1143,354.2455,112.4173,352.3338,112.9267,350.3463,112.9867,348.42,113.4092" style="stroke: #A80036; stroke-width: 1.0;"/><path d="M48.38,770.5192 L48.1831,770.5125 L48.1881,768.1216 L48.7803,765.7506 L48.9041,763.3637 L48.4338,760.9566 L48.7867,758.5775 L48.6603,758.5706 L48.9998,755.9809 L48.7967,753.3614 L49.5111,750.7923 L49.1379,748.1635 L49.5,745.575 L49.6375,745.5857 L49.7261,742.7924 L49.8029,739.9983 L50.1455,737.2247 L50.1768,734.427 L50.5812,731.6583 L50.4981,731.6497 L50.7505,728.7077 L51.3763,725.8041 L51.6231,722.8615 L51.7356,719.9051 L52.0917,716.9737 L51.9247,716.9519 L52.2323,713.8786 L52.8343,710.8439 L53.0522,707.7589 L53.4319,704.6951 L54.0927,701.668 L54.1246,701.6731 L54.5189,698.4982 L55.0335,695.3428 L55.7446,692.2191 L55.8264,688.9936 L56.6454,685.8874 L56.6874,685.8957 L57.4162,682.6927 L58.1572,679.4921 L58.4852,676.2104 L59.1391,672.9927 L59.8112,669.7786 L59.7034,669.7532 L60.2711,666.4478 L61.31,663.2536 L61.9711,659.9702 L62.965,656.7654 L63.6513,653.488 L63.8217,653.5357 L64.8483,650.3018 L65.1669,646.8694 L66.3205,643.6711 L67.3049,640.4253 L68.2269,637.1621 L68.1026,637.1209 L69.1593,633.8721 L70.3825,630.6784 L71.6395,627.496 L72.8201,624.2882 L73.5994,620.9474 L73.6138,620.953 L74.7747,617.7284 L76.3935,614.6825 L77.3567,611.3807 L78.3082,608.0742 L79.8301,604.9905 L79.6223,604.895 L81.4176,601.9524 L82.4582,598.6628 L84.3788,595.7778 L85.381,592.4706 L86.9802,589.4378 L86.7271,589.3007 L88.4504,586.3529 L90.283,583.4644 L91.9217,580.4708 L93.7526,577.5814 L95.1109,574.4358 L95.1345,574.451 L96.7435,571.4454 L98.69,568.6562 L100.8894,566.0292 L102.2729,562.8791 L104.2836,560.1311 L104.0257,559.9342 L106.5156,557.5738 L108.541,554.8589 L110.6345,552.196 L112.6096,549.4425 L114.5596,546.67 L114.3881,546.5127 L116.9366,544.2574 L119.0927,541.6422 L121.2513,539.0293 L123.6411,536.6284 L126,534.1992 L126.098,534.3132 L128.0583,532.0112 L130.4005,530.1533 L132.7549,528.3097 L134.9327,526.2606 L137.3263,524.4625 L137.3508,524.4999 L139.7268,522.6592 L142.4783,521.3895 L144.7908,519.4523 L147.4708,518.074 L149.845,516.2305 L149.9735,516.4823 L152.5515,514.9021 L155.3661,513.7856 L157.8975,512.114 L160.4717,510.5263 L163.2713,509.3803 L163.3667,509.6202 L166.0573,508.2025 L168.8059,506.9307 L171.7574,506.1686 L174.6055,505.1468 L177.32,503.7892 " fill="none" style="stroke: #A80036; stroke-width: 1.0;"/><polygon fill="#A80036" points="182.17,502.1592,182.1911,502.3856,180.1899,501.7745,178.2339,501.649,176.2846,501.5948,174.334,501.5267,172.3636,501.2459,172.4324,501.3849,173.2969,501.5859,174.4136,502.296,175.3325,502.607,176.4191,503.2563,177.4323,503.7575,177.3398,503.7116,176.8128,504.7131,176.2549,505.6994,175.8783,506.7754,175.2751,507.7391,174.9208,508.8262,174.9429,508.8503,176.5082,507.6424,177.671,505.9969,179.2492,504.803,180.8698,503.6553,182.17,502.1592" style="stroke: #A80036; stroke-width: 1.0;"/><path d="M56.04,770.6192 L56.003,770.6103 L57.1123,767.4264 L57.5301,764.0755 L58.1909,760.7832 L58.8867,757.4995 L59.9804,754.3119 L60.0694,754.3373 L61.1344,750.8094 L62.2321,747.2908 L63.1291,743.7147 L63.7649,740.0639 L65.0503,736.5991 L64.7792,736.5068 L66.2186,732.8513 L67.3246,729.0824 L68.786,725.4344 L70.4182,721.8445 L71.3713,718.0235 L71.3532,718.0165 L72.1062,716.1357 L72.9188,714.2781 L73.7889,712.4428 L74.0438,710.3686 L75.039,708.5818 L75.2185,708.6583 L76.1057,706.8025 L76.5883,704.7743 L77.7191,703.0222 L78.4966,701.1196 L79.065,699.128 L78.9982,699.0967 L80.067,697.3055 L80.9122,695.4096 L81.5855,693.4332 L82.4233,691.5338 L83.4646,689.7298 L83.2277,689.6074 L84.1747,687.747 L85.5819,686.1241 L86.4179,684.2064 L87.2325,682.2775 L88.2531,680.4551 L88.2954,680.4792 L89.5625,678.7932 L90.2512,676.7766 L91.3619,675.0012 L92.2393,673.0925 L93.4455,671.3717 L93.6757,671.518 L94.6568,669.6634 L95.4389,667.6822 L96.5313,665.8983 L97.7891,664.2196 L99.0572,662.5475 L99.003,662.509 L100.4817,661.0012 L101.7038,659.311 L102.4606,657.2896 L103.7968,655.6806 L105.1033,654.0503 L105.3127,654.2183 L106.6158,652.6009 L107.8379,650.9187 L109.2504,649.3891 L110.3026,647.5707 L111.5989,645.948 L111.6163,645.9638 L113.2081,644.6178 L114.3509,642.8627 L115.8931,641.4716 L117.1527,639.8229 L118.5595,638.3083 L118.3862,638.127 L120.2396,637.0875 L121.7598,635.6992 L122.8421,633.8527 L124.4366,632.5422 L126,631.1992 L125.988,631.1841 L128.1348,629.5366 L130.2038,627.7912 L132.4039,626.2108 L134.4029,624.3773 L136.5913,622.782 L136.448,622.5595 L139.013,621.5109 L141.3451,620.1007 L143.6072,618.5815 L145.686,616.7778 L148.045,615.4092 L147.9655,615.2585 L150.326,613.8583 L152.8754,612.8157 L155.2474,611.4372 L157.8088,610.4174 L160.1663,609.0114 L160.2112,609.1144 L162.5936,607.7035 L165.0849,606.5419 L167.7401,605.7566 L170.1976,604.5175 L172.76,603.5192 " fill="none" style="stroke: #A80036; stroke-width: 1.0;"/><polygon fill="#A80036" points="177.58,601.6792,177.5913,601.892,175.6222,601.7473,173.6357,601.2757,171.6923,601.6149,169.7005,601.0437,167.745,601.1565,167.7382,601.1412,168.6787,601.3961,169.8481,602.1632,170.8429,602.5394,171.8906,603.0342,172.9096,603.4645,172.8557,603.4404,172.6221,604.5753,171.8329,605.4618,171.6405,606.615,171.059,607.5943,170.6015,608.6291,170.523,608.5503,171.8532,607.0945,173.3998,605.856,174.7467,604.4171,176.0495,602.9338,177.58,601.6792" style="stroke: #A80036; stroke-width: 1.0;"/><path d="M76.21,770.5092 L76.1082,770.4267 L78.4145,767.9623 L80.4923,765.3129 L82.7832,762.836 L84.8696,760.1934 L86.805,757.4286 L86.7925,757.417 L88.9591,754.6304 L91.7954,752.463 L93.9538,749.6688 L96.4211,747.1602 L98.7425,744.5167 L98.7762,744.5536 L101.2172,741.955 L104.1096,739.8503 L106.6001,737.3059 L109.0391,734.7052 L111.8613,732.5236 L111.7427,732.3613 L114.7532,730.5466 L117.5726,728.4704 L120.2437,726.191 L123.2451,724.3639 L126,722.1992 L126.0403,722.2694 L128.6307,720.345 L131.4517,718.8221 L134.3835,717.4923 L137.0511,715.7024 L139.8959,714.2211 L139.7989,714.0172 L142.8261,712.8113 L145.908,711.7204 L148.7702,710.1678 L151.6315,708.6132 L154.5775,707.2367 L154.5224,707.0987 L157.6007,705.9892 L160.6543,704.8178 L163.648,703.496 L166.6921,702.3009 L169.7653,701.1786 L169.819,701.3377 L172.8457,700.131 L175.9871,699.2647 L179.0096,698.0454 L182.1989,697.321 L185.18,695.9792 " fill="none" style="stroke: #A80036; stroke-width: 1.0;"/><polygon fill="#A80036" points="190.13,694.4892,190.1122,694.3481,188.1566,694.0913,186.2017,693.8402,184.2633,693.7199,182.3292,693.6337,180.3585,693.2574,180.3808,693.2991,181.2974,693.6844,182.3361,694.2975,183.4565,695.0626,184.387,695.4739,185.3428,695.9325,185.4421,695.9858,184.9361,696.9982,184.3495,697.9674,183.5963,698.8472,183.3039,699.9743,182.6677,700.9169,182.7529,701.0157,184.2495,699.7351,185.679,698.3764,187.1576,697.0747,188.6478,695.7867,190.13,694.4892" style="stroke: #A80036; stroke-width: 1.0;"/><path d="M90.05,804.5692 L89.959,804.0797 L100.3735,803.008 L110.388,799.7856 L120.6983,798.1531 L131.1348,797.1997 L141.4771,795.7395 L151.491,792.5136 L161.7946,790.8452 L171.9594,788.4309 L182.5598,788.3584 L192.64,785.4892 " fill="none" style="stroke: #A80036; stroke-width: 1.0;"/><polygon fill="#A80036" points="197.91,784.5092,197.8661,784.3251,196.0401,784.2449,194.0499,783.4767,192.207,783.3253,190.2784,782.8153,188.3302,782.2229,188.3941,782.316,189.3225,782.9497,190.2567,783.5919,191.2497,784.3197,192.0454,784.7602,192.9943,785.4238,192.8882,785.3509,192.3311,786.3408,191.9083,787.4228,191.2497,788.3429,190.628,789.2885,189.7935,790.0879,189.8683,790.1967,191.2909,788.789,193.1605,788.0316,194.789,786.9235,196.368,785.7433,197.91,784.5092" style="stroke: #A80036; stroke-width: 1.0;"/><path d="M90.05,819.6592 L90.075,819.7967 L100.0998,820.896 L110.4606,823.8423 L120.6657,825.9331 L130.7775,827.5103 L140.85,828.872 L150.9861,830.5827 L161.3078,833.3145 L171.2508,833.9635 L181.4805,836.1894 L191.66,838.1392 " fill="none" style="stroke: #A80036; stroke-width: 1.0;"/><polygon fill="#A80036" points="196.89,839.0892,196.8109,838.9733,195.1253,837.7771,193.5216,836.701,191.9395,835.6564,190.3652,834.6234,188.755,833.5375,188.8002,833.5688,189.2058,834.3352,190.0953,835.4361,190.8752,836.4613,191.3123,837.2494,191.9713,838.191,191.9127,838.1062,191.0886,838.9037,190.0832,839.4389,189.2907,840.2821,188.2608,840.7819,187.3179,841.4074,187.2996,841.3321,189.2593,841.0552,191.2055,840.723,193.0649,840.0321,194.9884,839.6057,196.89,839.0892" style="stroke: #A80036; stroke-width: 1.0;"/><path d="M77.1,853.8592 L77.1426,853.8948 L79.2138,856.3847 L81.1767,858.784 L83.262,861.2857 L85.3874,863.8207 L87.6009,866.4295 L87.5971,866.4259 L90.1082,869.0527 L92.2936,871.37 L94.4453,873.6553 L96.9815,876.3059 L99.36,878.8067 L99.2361,878.6681 L101.7177,880.866 L104.4687,883.3653 L107.235,885.8816 L109.4596,887.792 L112.2141,890.2952 L112.099,890.135 L114.9265,892.2137 L117.8839,894.4732 L120.6161,896.4192 L123.1074,898.0299 L126,900.1992 L125.9022,900.026 L128.873,901.7054 L132.08,903.8035 L135.0132,905.4164 L137.9178,906.9784 L140.8414,908.5744 L140.7952,908.4748 L144.0931,910.2725 L147.1033,911.45 L150.3358,913.1069 L153.3983,914.3971 L156.5388,915.8555 L156.4693,915.6757 L159.692,916.8729 L163.0388,918.3914 L166.2186,919.4774 L169.6016,921.0897 L172.7592,922.1184 L172.6894,921.9031 L176.0466,923.1986 L179.2591,924.048 L182.5249,925.0618 L185.8634,926.2996 L189.17,927.4392 " fill="none" style="stroke: #A80036; stroke-width: 1.0;"/><polygon fill="#A80036" points="194.12,928.8692,194.2398,929.0117,192.581,927.5639,191.2613,926.5193,189.6273,925.101,188.087,923.7942,186.5826,922.5299,186.6646,922.5752,187.1418,923.5273,187.6359,924.4887,188.0217,925.3904,188.7977,926.5075,189.3162,927.4824,189.4244,927.6785,188.4004,928.1645,187.4458,928.7762,186.3289,929.094,185.4617,929.8642,184.3637,930.216,184.3486,930.1071,186.3443,930.1596,188.2697,929.7024,190.1834,929.1609,192.1552,929.0406,194.12,928.8692" style="stroke: #A80036; stroke-width: 1.0;"/><path d="M56.39,853.7292 L56.7049,853.8084 L56.9218,856.8521 L58.2455,860.1742 L58.7249,863.2839 L59.4145,866.4465 L60.4032,869.6843 L60.5851,869.7383 L61.5831,873.1869 L62.6013,876.6416 L63.2793,879.9953 L64.2091,883.4237 L65.5284,886.9677 L65.7779,887.0553 L67.058,890.6762 L68.1312,894.2244 L69.1467,897.7524 L70.3927,901.3614 L71.8795,905.0549 L72.1043,905.149 L73.6834,908.8395 L74.8823,912.3709 L76.5156,916.0841 L78.1453,919.7958 L79.57,923.4217 L79.8664,923.5641 L80.1927,925.1246 L81.2727,927.0472 L82.2104,928.9015 L83.3091,930.833 L83.9531,932.5461 L84.1458,932.6481 L85.0722,934.4341 L85.615,936.017 L86.7093,937.8918 L87.82,939.7753 L88.7136,941.5439 L88.8034,941.5964 L89.4792,943.1499 L90.8011,945.0816 L91.7139,946.7739 L93.077,948.7296 L93.8659,950.3493 L93.8492,950.3385 L95.0529,952.1079 L95.9688,953.6902 L97.2963,955.5401 L98.413,957.2529 L99.4241,958.897 L99.2272,958.7539 L100.6506,960.5644 L101.9373,962.2754 L102.8549,963.7181 L104.2454,965.5047 L105.4023,967.1214 L105.4703,967.177 L106.5654,968.5907 L108.1556,970.4097 L109.0222,971.6364 L110.2957,973.1961 L111.815,974.9569 L111.865,975.0034 L113.1457,976.3945 L114.5668,977.9162 L116.037,979.4835 L117.4182,980.968 L118.6761,982.338 L118.5445,982.1975 L120.2736,983.852 L121.4433,984.9092 L123.2683,986.6659 L124.7141,988.0179 L126,989.1992 L126.1696,989.4196 L128.3294,990.9718 L130.7862,992.9099 L133.2383,994.8418 L135.6161,996.6773 L137.84,998.3128 L137.987,998.5542 L140.5164,1000.0502 L143.1087,1001.6497 L145.5564,1003.0116 L148.1487,1004.6109 L150.7,1006.143 L150.8017,1006.3515 L153.3446,1007.3099 L156.0867,1008.6767 L158.8416,1010.0697 L161.7017,1011.6783 L164.3175,1012.7862 L164.3312,1012.8211 L167.1542,1013.933 L169.9217,1014.9038 L172.8505,1016.2844 L175.6993,1017.4619 L178.43,1018.3392 " fill="none" style="stroke: #A80036; stroke-width: 1.0;"/><polygon fill="#A80036" points="183.27,1019.9992,183.3725,1020.1099,181.698,1018.5235,180.2266,1017.1563,179.0037,1016.0575,177.4463,1014.5975,176.045,1013.306,176.0226,1013.295,176.6599,1014.3787,176.9154,1015.2748,177.4916,1016.3285,178.1833,1017.4389,178.5381,1018.3838,178.4885,1018.2827,177.519,1018.8752,176.518,1019.4035,175.3992,1019.6918,174.468,1020.3623,173.4603,1020.877,173.471,1020.9956,175.4118,1020.5844,177.3876,1020.5641,179.345,1020.3379,181.308,1020.1736,183.27,1019.9992" style="stroke: #A80036; stroke-width: 1.0;"/><path d="M48.87,853.9292 L49.0667,853.9384 L49.1002,856.2495 L49.2206,858.5646 L49.0908,860.868 L49.1746,863.1815 L49.4123,865.5021 L49.6589,865.5188 L49.6414,868.0183 L49.9787,870.5419 L49.844,873.0336 L50.3759,875.5703 L50.263,878.0634 L50.4171,878.0774 L50.2617,880.7236 L50.6172,883.416 L50.9094,886.1027 L51.0431,888.7751 L51.4782,891.4748 L51.3281,891.4574 L51.721,894.2896 L52.1886,897.1305 L52.3756,899.9389 L52.7078,902.7641 L53.1141,905.5978 L53.3414,905.6305 L53.4238,908.5208 L53.7681,911.4488 L54.1542,914.3829 L54.7103,917.3413 L55.2268,920.2941 L54.9035,920.2375 L55.52,923.279 L56.137,926.3206 L56.84,929.3772 L57.6378,932.4504 L57.8725,935.4251 L57.8126,935.4125 L58.5584,938.5188 L58.9903,941.5591 L59.837,944.6865 L60.4073,947.7559 L61.1073,950.8525 L61.2465,950.8872 L62.1556,954.0374 L62.4247,957.0283 L63.2107,960.1478 L64.3918,963.3658 L64.9875,966.438 L64.8512,966.398 L66.2225,969.6525 L66.7211,972.6509 L67.5762,975.7539 L68.4879,978.8735 L69.5692,982.043 L69.5578,982.0391 L70.567,985.116 L71.475,988.1582 L72.885,991.3734 L73.6174,994.3549 L74.9085,997.5291 L75.1528,997.6278 L76.4091,1000.684 L77.0785,1003.503 L78.4681,1006.613 L79.8659,1009.7264 L81.0616,1012.758 L81.237,1012.8411 L82.7556,1015.8617 L83.9659,1018.7363 L85.1956,1021.6201 L86.8055,1024.684 L88.0847,1027.5913 L87.8256,1027.4472 L89.4603,1030.332 L91.2104,1033.2809 L93.1373,1036.3281 L94.4005,1039.0063 L96.0339,1041.8904 L95.7976,1041.7355 L97.6766,1044.5216 L99.622,1047.3512 L101.1939,1049.936 L103.0268,1052.6919 L104.9654,1055.5171 L105.0089,1055.5508 L107.1622,1058.2379 L108.7204,1060.4621 L111.107,1063.3306 L112.7448,1065.6167 L114.9354,1068.3328 L114.8939,1068.2941 L117.3611,1070.9045 L119.3679,1073.0856 L121.5935,1075.4706 L124.0212,1078.0443 L126,1080.1992 L126.1495,1080.3789 L128.3936,1082.1157 L131.0858,1084.391 L133.6359,1086.4956 L136.4103,1088.8698 L138.9845,1091.0033 L138.9184,1090.8959 L141.7593,1092.5941 L144.839,1094.6805 L147.6766,1096.3736 L150.4326,1097.9338 L153.4363,1099.8967 L153.4954,1100.0247 L156.4329,1101.1044 L159.7129,1102.9254 L162.8679,1104.4757 L165.7524,1105.4408 L168.9398,1107.0614 L168.9967,1107.2248 L172.2417,1108.397 L175.3625,1109.2126 L178.6242,1110.4329 L181.9496,1111.8361 L185.08,1112.6792 " fill="none" style="stroke: #A80036; stroke-width: 1.0;"/><polygon fill="#A80036" points="190.02,1114.0992,189.9018,1113.9579,188.5907,1112.9332,186.8904,1111.443,185.3859,1110.1871,184.0979,1109.1899,182.4652,1107.7806,182.5565,1107.8314,183.1912,1108.8678,183.4864,1109.7155,183.9652,1110.6652,184.4807,1111.6354,185.2124,1112.7256,185.266,1112.8221,184.1849,1113.2057,183.2731,1113.8941,182.3324,1114.5305,181.3444,1115.0818,180.2674,1115.4728,180.2759,1115.533,182.2204,1115.216,184.1778,1114.99,186.1069,1114.5634,188.0529,1114.2564,190.02,1114.0992" style="stroke: #A80036; stroke-width: 1.0;"/><path d="M401.72,1123.1992 L401.72,1123.1664 L412.218,1123.6068 L422.716,1123.0869 L433.214,1122.7063 L443.712,1124.0466 L454.21,1122.3225 L464.708,1123.6051 L475.206,1124.0779 L485.704,1123.0706 L496.202,1122.6962 L506.7,1123.1992 " fill="none" style="stroke: #A80036; stroke-width: 1.0;"/><polygon fill="#A80036" points="511.87,1123.1992,511.8501,1123.1544,510.0427,1122.3377,508.3401,1121.7569,506.4511,1120.7567,504.7115,1120.0925,502.87,1119.1992,502.9344,1119.2636,503.8331,1120.1623,504.435,1120.7643,505.2847,1121.614,506.1967,1122.5259,506.87,1123.1992,506.9548,1123.284,505.9884,1123.9176,505.1944,1124.7236,504.4691,1125.5983,503.7172,1126.4465,502.87,1127.1992,502.9074,1127.2834,504.6405,1126.3329,506.479,1125.6195,508.1941,1124.6286,510.0614,1123.9799,511.87,1123.1992" style="stroke: #A80036; stroke-width: 1.0;"/></g></svg>