<?xml version="1.0" encoding="UTF-8" standalone="no"?><svg xmlns="http://www.w3.org/2000/svg" xmlns:xlink="http://www.w3.org/1999/xlink" contentScriptType="application/ecmascript" contentStyleType="text/css" height="965px" preserveAspectRatio="none" style="width:846px;height:965px;" version="1.1" viewBox="0 0 846 965" width="846px" zoomAndPan="magnify"><defs><filter height="300%" id="ftitzvi" width="300%" x="-1" y="-1"><feGaussianBlur result="blurOut" stdDeviation="2.0"/><feColorMatrix in="blurOut" result="blurOut2" type="matrix" values="0 0 0 0 0 0 0 0 0 0 0 0 0 0 0 0 0 0 .4 0"/><feOffset dx="4.0" dy="4.0" in="blurOut2" result="blurOut3"/><feBlend in="SourceGraphic" in2="blurOut3" mode="normal"/></filter></defs><g><text fill="#000000" font-family="sans-serif" font-size="14" font-weight="bold" lengthAdjust="spacingAndGlyphs" textLength="439" x="205" y="22.9951">BcAdminContentsComponentの流れ(コンテンツフォルダ編集)</text><path d="M104,68.5938 L103.4007,68.5938 L104.7616,78.5633 L104.1717,88.5329 L103.6661,98.5025 L103.8257,108.472 L104.2229,118.4416 L104.4343,128.4112 L103.9838,138.3807 L104.3066,148.3503 L104.8844,158.3199 L104.7429,168.2894 L103.8986,178.259 L104.5538,188.2286 L103.1475,198.1981 L104.073,208.1677 L104.7136,218.1373 L103.1572,228.1068 L103.5416,238.0764 L103.6251,248.046 L103.0937,258.0155 L104.2227,267.9851 L104.1643,277.9547 L104.4913,287.9242 L103.967,297.8938 L103.7912,307.8634 L103.5074,317.8329 L103.5942,327.8025 L103.8061,337.7721 L104.3889,347.7416 L104.9124,357.7112 L104.9749,367.6808 L104.2213,377.6503 L103.3676,387.6199 L103.5079,397.5895 L104.2818,407.559 L104.6241,417.5286 L104.4443,427.4982 L103.0272,437.4678 L104.5332,447.4373 L104.4823,457.4069 L104.0321,467.3765 L104.3848,477.346 L104.8761,487.3156 L104.3879,497.2852 L104.5792,507.2547 L104.3125,517.2243 L103.1612,527.1939 L104.8012,537.1634 L104.1919,547.133 L104.7119,557.1026 L103.677,567.0721 L103.9072,577.0417 L103.3183,587.0113 L103.6752,596.9808 L103.3586,606.9504 L103.5351,616.92 L103.2011,626.8895 L103.3589,636.8591 L103.1868,646.8287 L104.545,656.7982 L103.1837,666.7678 L104.0652,676.7374 L104.337,686.7069 L104.4703,696.6765 L104.7641,706.6461 L103.9924,716.6156 L104.9161,726.5852 L104.535,736.5548 L103.5383,746.5243 L104.1618,756.4939 L104.8433,766.4635 L104.4252,776.433 L103.8596,786.4026 L104.0089,796.3722 L103.5828,806.3418 L103.3983,816.3113 L103.1669,826.2809 L103.0499,836.2505 L104.0307,846.22 L103.449,856.1896 L103.4906,866.1592 L103.8887,876.1287 L103.8865,886.0983 L104.3294,896.0679 L104.6472,906.0374 L103.6264,916.007 L104,925.9766 " fill="none" style="stroke: #A80036; stroke-width: 1.0; stroke-dasharray: 5.0,5.0;"/><path d="M322,68.5938 L321.3057,68.5938 L321.2349,78.5633 L321.0658,88.5329 L322.4666,98.5025 L322.5361,108.472 L321.9155,118.4416 L322.0664,128.4112 L321.9814,138.3807 L321.5809,148.3503 L322.8641,158.3199 L321.7155,168.2894 L321.1082,178.259 L321.7107,188.2286 L322.0587,198.1981 L321.1386,208.1677 L321.4941,218.1373 L321.8647,228.1068 L322.4971,238.0764 L321.3486,248.046 L321.2864,258.0155 L321.6342,267.9851 L322.4673,277.9547 L322.277,287.9242 L321.8872,297.8938 L322.615,307.8634 L321.1318,317.8329 L321.7533,327.8025 L321.5489,337.7721 L321.4422,347.7416 L321.5836,357.7112 L322.6751,367.6808 L322.9808,377.6503 L322.7898,387.6199 L322.0427,397.5895 L321.5487,407.559 L321.3699,417.5286 L321.0217,427.4982 L321.3145,437.4678 L322.9531,447.4373 L322.3895,457.4069 L321.0208,467.3765 L321.0202,477.346 L322.2889,487.3156 L322.8767,497.2852 L322.0033,507.2547 L322.434,517.2243 L321.4231,527.1939 L321.9027,537.1634 L322.8433,547.133 L322.0277,557.1026 L322.5274,567.0721 L322.9455,577.0417 L321.5845,587.0113 L321.023,596.9808 L322.5274,606.9504 L322.7924,616.92 L321.4094,626.8895 L322.391,636.8591 L322.1442,646.8287 L321.6567,656.7982 L322.3656,666.7678 L321.8143,676.7374 L321.5059,686.7069 L321.79,696.6765 L322.6149,706.6461 L321.1407,716.6156 L322.7418,726.5852 L322.6025,736.5548 L322.8759,746.5243 L321.8101,756.4939 L322.8467,766.4635 L322.9731,776.433 L321.071,786.4026 L321.6217,796.3722 L321.413,806.3418 L322.04,816.3113 L322.9718,826.2809 L321.039,836.2505 L321.5735,846.22 L322.3066,856.1896 L322.8479,866.1592 L322.9892,876.1287 L322.6879,886.0983 L321.3798,896.0679 L321.7848,906.0374 L322.8196,916.007 L322,925.9766 " fill="none" style="stroke: #A80036; stroke-width: 1.0; stroke-dasharray: 5.0,5.0;"/><path d="M542,68.5938 L541.9262,68.5938 L541.0783,78.5633 L542.4225,88.5329 L542.707,98.5025 L542.9618,108.472 L541.0048,118.4416 L541.4005,128.4112 L541.398,138.3807 L541.4889,148.3503 L541.9729,158.3199 L542.7583,168.2894 L541.666,178.259 L541.2107,188.2286 L542.9094,198.1981 L542.9468,208.1677 L542.3267,218.1373 L542.319,228.1068 L541.025,238.0764 L542.9474,248.046 L541.0399,258.0155 L541.2986,267.9851 L541.1523,277.9547 L541.2729,287.9242 L542.4514,297.8938 L542.1332,307.8634 L542.1946,317.8329 L541.3455,327.8025 L541.4951,337.7721 L542.6808,347.7416 L542.6147,357.7112 L541.8965,367.6808 L541.8731,377.6503 L542.1046,387.6199 L542.8064,397.5895 L541.6276,407.559 L542.8726,417.5286 L541.8087,427.4982 L542.0568,437.4678 L541.4014,447.4373 L541.7538,457.4069 L541.326,467.3765 L541.5954,477.346 L542.6959,487.3156 L541.9578,497.2852 L542.0396,507.2547 L542.9632,517.2243 L541.9626,527.1939 L541.3309,537.1634 L541.4933,547.133 L542.6017,557.1026 L542.8682,567.0721 L541.4572,577.0417 L541.3577,587.0113 L541.1716,596.9808 L542.181,606.9504 L541.0092,616.92 L542.8646,626.8895 L541.6547,636.8591 L542.2779,646.8287 L542.7976,656.7982 L542.7101,666.7678 L541.7744,676.7374 L541.9051,686.7069 L541.8971,696.6765 L542.0488,706.6461 L541.6915,716.6156 L542.9135,726.5852 L542.8659,736.5548 L541.2617,746.5243 L541.2884,756.4939 L542.2221,766.4635 L541.654,776.433 L541.6793,786.4026 L542.6497,796.3722 L541.2294,806.3418 L542.3059,816.3113 L542.3762,826.2809 L542.5815,836.2505 L541.2947,846.22 L542.0169,856.1896 L541.527,866.1592 L541.1774,876.1287 L541.7556,886.0983 L542.4907,896.0679 L541.6244,906.0374 L541.5519,916.007 L542,925.9766 " fill="none" style="stroke: #A80036; stroke-width: 1.0; stroke-dasharray: 5.0,5.0;"/><path d="M745,68.5938 L745.2265,68.5938 L745.8714,78.5633 L745.1066,88.5329 L745.9029,98.5025 L744.6378,108.472 L744.7861,118.4416 L744.6282,128.4112 L745.0489,138.3807 L745.6339,148.3503 L744.2376,158.3199 L744.3327,168.2894 L744.5061,178.259 L744.5357,188.2286 L744.2235,198.1981 L745.0418,208.1677 L744.0295,218.1373 L744.1045,228.1068 L744.0343,238.0764 L745.2787,248.046 L745.3334,258.0155 L744.8116,267.9851 L744.1987,277.9547 L745.4764,287.9242 L744.4432,297.8938 L744.2215,307.8634 L745.9918,317.8329 L744.5935,327.8025 L744.7987,337.7721 L745.4365,347.7416 L745.3148,357.7112 L744.6738,367.6808 L744.8348,377.6503 L744.3349,387.6199 L744.5784,397.5895 L744.6317,407.559 L744.3132,417.5286 L745.545,427.4982 L745.985,437.4678 L744.7311,447.4373 L744.1603,457.4069 L744.7576,467.3765 L744.3095,477.346 L745.8503,487.3156 L744.9844,497.2852 L744.0679,507.2547 L744.9134,517.2243 L744.6836,527.1939 L745.8063,537.1634 L745.5671,547.133 L745.3047,557.1026 L745.529,567.0721 L744.8288,577.0417 L744.3733,587.0113 L744.0711,596.9808 L745.2498,606.9504 L744.3056,616.92 L745.6924,626.8895 L745.4616,636.8591 L744.3655,646.8287 L745.7387,656.7982 L745.344,666.7678 L745.2844,676.7374 L744.0428,686.7069 L745.7411,696.6765 L745.4652,706.6461 L744.1123,716.6156 L744.0038,726.5852 L744.9463,736.5548 L744.8225,746.5243 L745.0517,756.4939 L744.0527,766.4635 L744.3302,776.433 L744.316,786.4026 L745.5313,796.3722 L744.0481,806.3418 L745.2268,816.3113 L744.8528,826.2809 L745.7081,836.2505 L745.7058,846.22 L745.1824,856.1896 L744.7941,866.1592 L744.16,876.1287 L744.6174,886.0983 L745.5825,896.0679 L745.6489,906.0374 L744.5527,916.007 L745,925.9766 " fill="none" style="stroke: #A80036; stroke-width: 1.0; stroke-dasharray: 5.0,5.0;"/><polygon fill="#FEFECE" filter="url(#ftitzvi)" points="8,33.2969,8,32.7748,17.8947,33.0877,27.7895,33.7402,37.6842,33.2343,47.5789,34.0442,57.4737,33.7852,67.3684,33.0856,77.2632,32.5902,87.1579,32.6589,97.0526,33.8689,106.9474,33.8583,116.8421,33.6404,126.7368,32.8735,136.6316,32.9814,146.5263,33.3514,156.4211,33.878,166.3158,32.6672,176.2105,33.8564,186.1053,33.8427,196,33.2969,195.9403,33.2969,195.9143,39.3563,195.901,45.4156,196.2384,51.475,195.7644,57.5344,196,63.5938,196,63.8044,186.1053,62.9196,176.2105,63.2363,166.3158,64.2612,156.4211,63.6847,146.5263,63.657,136.6316,63.5958,126.7368,63.7556,116.8421,63.9607,106.9474,63.0341,97.0526,63.9684,87.1579,63.0812,77.2632,64.0463,67.3684,63.0124,57.4737,63.0748,47.5789,63.7587,37.6842,64.1284,27.7895,63.785,17.8947,63.689,8,63.5938,7.9158,63.5938,7.7864,57.5344,8.0587,51.475,7.8134,45.4156,7.8931,39.3563,8,33.2969" style="stroke: #A80036; stroke-width: 1.5;"/><text fill="#000000" font-family="sans-serif" font-size="14" lengthAdjust="spacingAndGlyphs" textLength="174" x="15" y="53.292">ContentFoldersController</text><polygon fill="#FEFECE" filter="url(#ftitzvi)" points="8,924.9766,8,925.3139,17.8947,925.3726,27.7895,924.4544,37.6842,924.4008,47.5789,925.6716,57.4737,925.0979,67.3684,924.6801,77.2632,924.5735,87.1579,924.5304,97.0526,924.7719,106.9474,925.3035,116.8421,925.1194,126.7368,924.3127,136.6316,924.3367,146.5263,925.5432,156.4211,925.594,166.3158,925.6853,176.2105,925.1242,186.1053,925.6976,196,924.9766,195.9442,924.9766,195.8125,931.0359,195.8346,937.0953,195.8929,943.1547,195.8514,949.2141,196,955.2734,196,955.7789,186.1053,954.544,176.2105,954.8928,166.3158,954.823,156.4211,955.4354,146.5263,955.4309,136.6316,955.0899,126.7368,954.8905,116.8421,955.9778,106.9474,954.6706,97.0526,955.4694,87.1579,956.0147,77.2632,955.5395,67.3684,955.6669,57.4737,955.3962,47.5789,955.5339,37.6842,954.9497,27.7895,955.1147,17.8947,954.5564,8,955.2734,8.1184,955.2734,8.1944,949.2141,8.1712,943.1547,8.0026,937.0953,7.7692,931.0359,8,924.9766" style="stroke: #A80036; stroke-width: 1.5;"/><text fill="#000000" font-family="sans-serif" font-size="14" lengthAdjust="spacingAndGlyphs" textLength="174" x="15" y="944.9717">ContentFoldersController</text><polygon fill="#FEFECE" filter="url(#ftitzvi)" points="210,33.2969,210,33.779,220.0455,33.8883,230.0909,32.731,240.1364,33.1122,250.1818,32.8675,260.2273,33.8319,270.2727,32.8304,280.3182,33.9881,290.3636,33.7574,300.4091,32.8742,310.4545,33.5404,320.5,33.3135,330.5455,34.0093,340.5909,33.7519,350.6364,34.0281,360.6818,33.0691,370.7273,33.7206,380.7727,33.7743,390.8182,33.4748,400.8636,33.9115,410.9091,33.9883,420.9545,32.7722,431,33.2969,431.1403,33.2969,431.1082,39.3563,431.231,45.4156,430.8544,51.475,430.7699,57.5344,431,63.5938,431,64.1028,420.9545,63.9692,410.9091,63.5891,400.8636,64.3275,390.8182,63.4926,380.7727,63.9181,370.7273,64.2912,360.6818,64.0516,350.6364,64.1411,340.5909,62.8729,330.5455,62.8963,320.5,63.75,310.4545,63.4972,300.4091,64.1006,290.3636,64.3264,280.3182,63.4667,270.2727,63.6924,260.2273,63.3903,250.1818,63.1135,240.1364,63.1398,230.0909,63.9588,220.0455,64.3261,210,63.5938,209.8922,63.5938,210.0755,57.5344,209.9243,51.475,210.2059,45.4156,209.9962,39.3563,210,33.2969" style="stroke: #A80036; stroke-width: 1.5;"/><text fill="#000000" font-family="sans-serif" font-size="14" lengthAdjust="spacingAndGlyphs" textLength="207" x="217" y="53.292">BcAdminContentsComponent</text><polygon fill="#FEFECE" filter="url(#ftitzvi)" points="210,924.9766,210,925.167,220.0455,925.4337,230.0909,924.9455,240.1364,924.5972,250.1818,925.2647,260.2273,924.663,270.2727,925.3478,280.3182,925.3743,290.3636,925.5811,300.4091,924.9852,310.4545,924.6664,320.5,924.5268,330.5455,924.2768,340.5909,925.2762,350.6364,925.6365,360.6818,925.5619,370.7273,924.8689,380.7727,924.8087,390.8182,925.7139,400.8636,925.2566,410.9091,924.6635,420.9545,925.4514,431,924.9766,431.0925,924.9766,431.1916,931.0359,431.0391,937.0953,430.944,943.1547,431.2077,949.2141,431,955.2734,431,955.6573,420.9545,955.6285,410.9091,955.8061,400.8636,955.7998,390.8182,954.7973,380.7727,955.0287,370.7273,954.7568,360.6818,955.7706,350.6364,954.8883,340.5909,954.7455,330.5455,954.9794,320.5,955.9475,310.4545,954.6664,300.4091,955.1986,290.3636,955.6653,280.3182,955.9074,270.2727,955.7053,260.2273,955.0054,250.1818,954.7897,240.1364,954.99,230.0909,954.5411,220.0455,954.9965,210,955.2734,209.9249,955.2734,210.14,949.2141,209.7932,943.1547,209.9144,937.0953,210.0745,931.0359,210,924.9766" style="stroke: #A80036; stroke-width: 1.5;"/><text fill="#000000" font-family="sans-serif" font-size="14" lengthAdjust="spacingAndGlyphs" textLength="207" x="217" y="944.9717">BcAdminContentsComponent</text><polygon fill="#FEFECE" filter="url(#ftitzvi)" points="445,33.2969,445,34.0348,455,33.6849,465,33.4011,475,32.6208,485,33.7379,495,33.4862,505,33.094,515,32.9222,525,33.5805,535,32.8658,545,32.6822,555,32.837,565,32.6971,575,33.8915,585,33.7018,595,33.4018,605,33.5849,615,32.6146,625,33.8631,635,33.2969,635.0838,33.2969,635.2405,39.3563,635.1612,45.4156,635.0363,51.475,634.8178,57.5344,635,63.5938,635,63.8152,625,63.1729,615,62.8852,605,64.2465,595,63.408,585,64.2207,575,63.7999,565,64.2116,555,63.8424,545,63.7608,535,63.9936,525,62.9236,515,64.1977,505,63.4512,495,63.2361,485,63.742,475,62.9085,465,64.1557,455,63.228,445,63.5938,445.1187,63.5938,445.0194,57.5344,444.896,51.475,445.1537,45.4156,445.0824,39.3563,445,33.2969" style="stroke: #A80036; stroke-width: 1.5;"/><text fill="#000000" font-family="sans-serif" font-size="14" lengthAdjust="spacingAndGlyphs" textLength="176" x="452" y="53.292">BcContentsEventListener</text><polygon fill="#FEFECE" filter="url(#ftitzvi)" points="445,924.9766,445,925.1755,455,924.8589,465,925.1847,475,924.6513,485,925.537,495,924.47,505,925.2961,515,925.4207,525,925.1789,535,924.4375,545,925.0291,555,925.5798,565,925.0858,575,924.4731,585,925.6786,595,924.5227,605,924.7382,615,924.56,625,925.6657,635,924.9766,635.1419,924.9766,634.9832,931.0359,634.9762,937.0953,635.1989,943.1547,635.214,949.2141,635,955.2734,635,954.6765,625,954.8431,615,955.0763,605,955.9299,595,955.1349,585,954.6317,575,955.7866,565,954.8305,555,955.3527,545,954.779,535,954.9844,525,955.4675,515,955.734,505,954.5833,495,954.6315,485,955.0601,475,955.8277,465,955.3297,455,955.8236,445,955.2734,445.2322,955.2734,444.9967,949.2141,444.8037,943.1547,444.7656,937.0953,445.1858,931.0359,445,924.9766" style="stroke: #A80036; stroke-width: 1.5;"/><text fill="#000000" font-family="sans-serif" font-size="14" lengthAdjust="spacingAndGlyphs" textLength="176" x="452" y="944.9717">BcContentsEventListener</text><polygon fill="#FEFECE" filter="url(#ftitzvi)" points="649,33.2969,649,33.4246,658.8947,32.7151,668.7895,33.9277,678.6842,33.9437,688.5789,33.003,698.4737,33.2397,708.3684,33.6638,718.2632,33.5882,728.1579,32.9111,738.0526,32.8876,747.9474,33.8248,757.8421,33.9891,767.7368,33.3841,777.6316,33.0826,787.5263,34.0187,797.4211,33.6725,807.3158,33.9159,817.2105,32.5709,827.1053,32.9055,837,33.2969,837.1578,33.2969,836.9058,39.3563,836.9594,45.4156,837.0073,51.475,836.9198,57.5344,837,63.5938,837,63.37,827.1053,63.42,817.2105,63.9109,807.3158,63.3724,797.4211,62.9206,787.5263,63.0284,777.6316,63.6949,767.7368,64.1249,757.8421,63.3339,747.9474,62.9284,738.0526,64.2581,728.1579,63.5821,718.2632,63.1822,708.3684,63.8853,698.4737,63.2657,688.5789,62.8464,678.6842,63.4399,668.7895,64.0775,658.8947,63.5887,649,63.5938,648.9653,63.5938,649.1341,57.5344,648.9579,51.475,649.1514,45.4156,648.9817,39.3563,649,33.2969" style="stroke: #A80036; stroke-width: 1.5;"/><text fill="#000000" font-family="sans-serif" font-size="14" lengthAdjust="spacingAndGlyphs" textLength="174" x="656" y="53.292">edit.php(ContentFolders)</text><polygon fill="#FEFECE" filter="url(#ftitzvi)" points="649,924.9766,649,924.4581,658.8947,925.5031,668.7895,925.7058,678.6842,925.5955,688.5789,924.9974,698.4737,924.3801,708.3684,924.7118,718.2632,925.2356,728.1579,925.3097,738.0526,925.2669,747.9474,925.3781,757.8421,924.4146,767.7368,924.4673,777.6316,924.5694,787.5263,924.4749,797.4211,924.4506,807.3158,924.2788,817.2105,924.751,827.1053,924.4188,837,924.9766,837.009,924.9766,836.8399,931.0359,837.2303,937.0953,837.1258,943.1547,837.035,949.2141,837,955.2734,837,954.7761,827.1053,955.2941,817.2105,955.5505,807.3158,955.434,797.4211,955.7651,787.5263,954.6537,777.6316,954.5974,767.7368,955.2894,757.8421,955.6571,747.9474,955.8371,738.0526,955.2125,728.1579,955.3888,718.2632,954.762,708.3684,955.4122,698.4737,955.7686,688.5789,955.3397,678.6842,954.9162,668.7895,954.6659,658.8947,955.7906,649,955.2734,648.8662,955.2734,649.0975,949.2141,648.9384,943.1547,649.1664,937.0953,648.8129,931.0359,649,924.9766" style="stroke: #A80036; stroke-width: 1.5;"/><text fill="#000000" font-family="sans-serif" font-size="14" lengthAdjust="spacingAndGlyphs" textLength="174" x="656" y="944.9717">edit.php(ContentFolders)</text><polygon fill="#A80036" points="310.5,95.5938,310.5273,95.662,312.5595,96.5425,314.486,97.1588,316.5211,98.0464,318.4352,98.6318,320.5,99.5938,320.4732,99.5267,318.5317,100.473,316.4909,101.1711,314.5363,102.0844,312.5699,102.9686,310.5,103.5938,310.4524,103.5461,311.2398,102.7336,312.0549,101.9487,313.0588,101.3526,313.5489,100.2426,314.5,99.5938,314.401,99.4948,313.5353,98.629,312.8958,97.9895,312.2208,97.3145,311.2733,96.367,310.5,95.5938" style="stroke: #A80036; stroke-width: 1.0;"/><path d="M104,99.5938 L104,99.3602 L114.119,99.9895 L124.2381,100.1886 L134.3571,100.5717 L144.4762,99.8431 L154.5952,98.9156 L164.7143,100.0203 L174.8333,99.2422 L184.9524,98.992 L195.0714,99.5999 L205.1905,99.2219 L215.3095,99.688 L225.4286,99.0916 L235.5476,99.7851 L245.6667,99.4251 L255.7857,98.9673 L265.9048,100.2102 L276.0238,100.0761 L286.1429,98.7578 L296.2619,99.5915 L306.381,99.1357 L316.5,99.5938 " fill="none" style="stroke: #A80036; stroke-width: 1.0;"/><text fill="#000000" font-family="sans-serif" font-size="13" lengthAdjust="spacingAndGlyphs" textLength="102" x="111" y="94.6606">loadComponent</text><polygon fill="#A80036" points="115,124.7266,115.0464,124.8425,113.0521,125.6568,111.0375,126.4202,108.9944,127.1126,106.9524,127.8076,105,128.7266,104.9122,128.5072,107.0902,129.7521,109.0372,130.4195,111.0785,131.3229,112.9537,131.8109,115,132.7266,114.878,132.6046,114.1068,131.8334,113.5386,131.2652,112.6181,130.3446,111.7056,129.4321,111,128.7266,110.941,128.6675,111.7945,127.9211,112.6727,127.1992,113.3344,126.261,114.1459,125.4725,115,124.7266" style="stroke: #A80036; stroke-width: 1.0;"/><path d="M109,128.7266 L109,128.3689 L119.119,128.0479 L129.2381,128.43 L139.3571,128.7304 L149.4762,128.9583 L159.5952,129.4411 L169.7143,128.6221 L179.8333,129.5274 L189.9524,129.6864 L200.0714,128.8546 L210.1905,128.8959 L220.3095,129.1414 L230.4286,128.1014 L240.5476,129.608 L250.6667,128.7775 L260.7857,129.6342 L270.9048,128.8132 L281.0238,129.3601 L291.1429,129.5734 L301.2619,128.0488 L311.381,129.0109 L321.5,128.7266 " fill="none" style="stroke: #A80036; stroke-width: 1.0;"/><text fill="#000000" font-family="sans-serif" font-size="13" lengthAdjust="spacingAndGlyphs" textLength="79" x="121" y="123.7935">setUpAdmin</text><polygon fill="#A80036" points="310.5,153.8594,310.4357,153.6985,312.4862,154.6249,314.5844,155.6703,316.4856,156.2234,318.5672,157.2273,320.5,157.8594,320.5531,157.992,318.4105,158.4355,316.5012,159.4623,314.4195,160.0581,312.5356,161.1485,310.5,161.8594,310.3774,161.7368,311.4303,161.1897,312.1178,160.2772,312.7881,159.3475,313.8141,158.7735,314.5,157.8594,314.6411,158.0005,313.865,157.2243,312.7788,156.1382,312.0666,155.426,311.4479,154.8073,310.5,153.8594" style="stroke: #A80036; stroke-width: 1.0;"/><path d="M104,157.8594 L104,158.8335 L114.119,157.993 L124.2381,157.7642 L134.3571,157.1814 L144.4762,158.5597 L154.5952,157.8404 L164.7143,157.8776 L174.8333,157.2077 L184.9524,158.4305 L195.0714,157.4098 L205.1905,158.0096 L215.3095,157.807 L225.4286,157.9132 L235.5476,157.8109 L245.6667,158.8223 L255.7857,157.1953 L265.9048,158.0118 L276.0238,157.4265 L286.1429,157.6798 L296.2619,157.0431 L306.381,156.9663 L316.5,157.8594 " fill="none" style="stroke: #A80036; stroke-width: 1.0;"/><text fill="#000000" font-family="sans-serif" font-size="13" lengthAdjust="spacingAndGlyphs" textLength="76" x="111" y="152.9263">editメソッド</text><polygon fill="#FBFB77" filter="url(#ftitzvi)" points="219,170.9922,219.0404,170.9922,219.216,175.9922,219.1515,180.9922,219.1781,185.9922,219.0861,190.9922,219,195.9922,219,195.71,229.15,196.0761,239.3,195.9319,249.45,195.4311,259.6,195.8839,269.75,195.4227,279.9,195.2729,290.05,195.2535,300.2,195.9257,310.35,195.2596,320.5,195.9664,330.65,195.4063,340.8,196.003,350.95,195.8223,361.1,195.4897,371.25,196.0904,381.4,196.224,391.55,195.9955,401.7,196.4017,411.85,195.9921,422,195.9922,422.1215,195.9922,421.8741,192.9922,421.7501,189.9922,421.7909,186.9922,421.7912,183.9922,422,180.9922,422.1267,181.1189,420.1019,179.0941,418.0189,177.0111,415.826,174.8182,413.9815,172.9737,412,170.9922,412,171.6914,401.8421,170.9368,391.6842,170.8901,381.5263,171.0734,371.3684,170.7526,361.2105,170.9377,351.0526,171.5086,340.8947,170.768,330.7368,170.8256,320.5789,171.204,310.4211,171.4193,300.2632,171.2203,290.1053,171.0036,279.9474,170.8487,269.7895,171.1282,259.6316,170.6568,249.4737,170.6429,239.3158,171.001,229.1579,170.5717,219,170.9922" style="stroke: #A80036; stroke-width: 1.0;"/><path d="M412,170.9922 L412.1382,170.9922 L411.9208,172.9922 L412.1818,174.9922 L411.7786,176.9922 L411.921,178.9922 L412,180.9922 " fill="#FBFB77" style="stroke: #A80036; stroke-width: 1.0;"/><path d="M422,180.9922 L422,180.6785 L420,181.0575 L418,181.2848 L416,180.8271 L414,181.2297 L412,180.9922 " fill="#FBFB77" style="stroke: #A80036; stroke-width: 1.0;"/><text fill="#000000" font-family="sans-serif" font-size="13" lengthAdjust="spacingAndGlyphs" textLength="182" x="225" y="188.0591">コンテンツアイテムの読み込み</text><path d="M322.5,226.2578 L322.5,226.0519 L330.9,226.0414 L339.3,226.3165 L347.7,226.1595 L356.1,226.5896 L364.5,226.2578 " fill="none" style="stroke: #A80036; stroke-width: 1.0;"/><path d="M364.5,226.2578 L364.458,226.2578 L364.3222,228.8578 L364.4578,231.4578 L364.5521,234.0578 L364.6355,236.6578 L364.5,239.2578 " fill="none" style="stroke: #A80036; stroke-width: 1.0;"/><path d="M323.5,239.2578 L323.5,239.463 L331.7,239.511 L339.9,239.3188 L348.1,239.5855 L356.3,239.2706 L364.5,239.2578 " fill="none" style="stroke: #A80036; stroke-width: 1.0;"/><polygon fill="#A80036" points="333.5,235.2578,333.5491,235.3805,331.471,235.9853,329.4087,236.6296,327.4916,237.6368,325.4868,238.4249,323.5,239.2578,323.5279,239.3277,325.5005,240.0591,327.473,240.7902,329.4705,241.5841,331.5041,242.4681,333.5,243.2578,333.6628,243.4206,332.8743,242.6321,331.7345,241.4923,331.0661,240.8239,330.2852,240.043,329.5,239.2578,329.4563,239.2141,330.3558,238.5136,331.0633,237.6211,332.0445,237.0024,332.5291,235.887,333.5,235.2578" style="stroke: #A80036; stroke-width: 1.0;"/><text fill="#000000" font-family="sans-serif" font-size="13" lengthAdjust="spacingAndGlyphs" textLength="77" x="329.5" y="221.1919">settingForm</text><polygon fill="#FBFB77" filter="url(#ftitzvi)" points="225,252.2578,225.5865,252.2578,224.3162,262.2078,225.0759,272.1578,225.1042,282.1078,225.2863,292.0578,225.6361,302.0078,224.807,311.9578,224.4127,321.9078,224.3992,331.8578,224.76,341.8078,224.5927,351.7578,224.6637,361.7078,224.9831,371.6578,224.2933,381.6078,225.3,391.5578,224.9547,401.5078,225.311,411.4578,225.452,421.4078,224.552,431.3578,224.4507,441.3078,225,451.2578,225,450.968,235,451.3398,245,451.4436,255,450.6179,265,451.2265,275,450.6133,285,451.5321,295,451.3573,305,451.2705,315,451.1866,325,450.9913,335,451.7533,345,451.1526,355,451.9736,365,451.8507,375,450.7923,385,450.8022,395,451.2614,405,451.1542,415,451.2578,414.28,451.2578,415.7208,441.3104,414.9145,431.3631,414.4217,421.4157,414.6443,411.4683,414.6834,401.521,415.1949,391.5736,414.4476,381.6262,415.7168,371.6789,414.7333,361.7315,414.4953,351.7841,414.6732,341.8368,414.3258,331.8894,415.0122,321.942,415.1917,311.9947,414.5976,302.0473,415.4316,292.0999,414.7436,282.1525,415.385,272.2052,415,262.2578,415.1635,262.4213,413.0774,260.3352,410.9964,258.2542,409.1197,256.3775,407.1344,254.3922,405,252.2578,405,252.2198,395,251.6727,385,252.7206,375,251.7635,365,251.7129,355,252.9864,345,251.6711,335,251.9993,325,252.9239,315,251.5658,305,251.5081,295,252.035,285,252.5602,275,252.8133,265,251.6175,255,252.8288,245,252.5029,235,252.7859,225,252.2578" style="stroke: #A80036; stroke-width: 1.0;"/><path d="M405,252.2578 L404.8337,252.2578 L405.0232,254.2578 L404.7093,256.2578 L404.9434,258.2578 L405.0502,260.2578 L405,262.2578 " fill="#FBFB77" style="stroke: #A80036; stroke-width: 1.0;"/><path d="M415,262.2578 L415,262.5585 L413,262.4798 L411,262.029 L409,262.2955 L407,262.2197 L405,262.2578 " fill="#FBFB77" style="stroke: #A80036; stroke-width: 1.0;"/><text fill="#000000" font-family="sans-serif" font-size="13" lengthAdjust="spacingAndGlyphs" textLength="169" x="231" y="269.3247">管理画面で使用するフォーム</text><text fill="#000000" font-family="sans-serif" font-size="13" lengthAdjust="spacingAndGlyphs" textLength="65" x="231" y="284.4575">の変数準備</text><path d="M226,287.5234 L226,287.2598 L235.8947,286.6228 L245.7895,288.0985 L255.6842,288.2354 L265.5789,287.6054 L275.4737,287.3901 L285.3684,288.4578 L295.2632,286.687 L305.1579,287.2911 L315.0526,287.663 L324.9474,287.1906 L334.8421,288.0596 L344.7368,286.8238 L354.6316,287.2816 L364.5263,288.2672 L374.4211,286.7044 L384.3158,287.8151 L394.2105,287.5457 L404.1053,287.4773 L414,287.5234 " fill="#FBFB77" style="stroke: #A80036; stroke-width: 1.0;"/><text fill="#000000" font-family="sans-serif" font-size="13" lengthAdjust="spacingAndGlyphs" textLength="114" x="231" y="303.5903">$layoutTemplates</text><text fill="#000000" font-family="sans-serif" font-size="13" lengthAdjust="spacingAndGlyphs" textLength="53" x="231" y="318.7231">$related</text><text fill="#000000" font-family="sans-serif" font-size="13" lengthAdjust="spacingAndGlyphs" textLength="90" x="231" y="333.856">$currentSiteId</text><text fill="#000000" font-family="sans-serif" font-size="13" lengthAdjust="spacingAndGlyphs" textLength="57" x="231" y="348.9888">$content</text><text fill="#000000" font-family="sans-serif" font-size="13" lengthAdjust="spacingAndGlyphs" textLength="111" x="231" y="364.1216">$relatedContents</text><text fill="#000000" font-family="sans-serif" font-size="13" lengthAdjust="spacingAndGlyphs" textLength="76" x="231" y="379.2544">$mainSiteId</text><text fill="#000000" font-family="sans-serif" font-size="13" lengthAdjust="spacingAndGlyphs" textLength="150" x="231" y="394.3872">$mainSiteDisplayName</text><text fill="#000000" font-family="sans-serif" font-size="13" lengthAdjust="spacingAndGlyphs" textLength="38" x="231" y="409.52">$sites</text><text fill="#000000" font-family="sans-serif" font-size="13" lengthAdjust="spacingAndGlyphs" textLength="114" x="231" y="424.6528">$layoutTemplates</text><text fill="#000000" font-family="sans-serif" font-size="13" lengthAdjust="spacingAndGlyphs" textLength="83" x="231" y="439.7856">$entityName</text><polygon fill="#A80036" points="530,477.8516,530.0873,478.0698,532.0763,478.8422,533.9402,479.3019,536.0073,480.2698,538.0697,481.2258,540,481.8516,539.9958,481.841,537.9352,482.4895,535.9407,483.3034,533.9656,484.1655,532.0087,485.0733,530,485.8516,529.8362,485.6878,530.8315,485.0831,531.5325,484.184,532.4046,483.4562,533.1482,482.5998,534,481.8516,534.0352,481.8868,533.2154,481.067,532.3334,480.185,531.4526,479.3041,530.9166,478.7681,530,477.8516" style="stroke: #A80036; stroke-width: 1.0;"/><path d="M322.5,481.8516 L322.5,481.8905 L332.6667,481.05 L342.8333,481.3007 L353,481.4707 L363.1667,482.585 L373.3333,482.3695 L383.5,481.7592 L393.6667,482.1454 L403.8333,480.9471 L414,482.2197 L424.1667,481.4286 L434.3333,481.5287 L444.5,482.7593 L454.6667,481.3007 L464.8333,481.2049 L475,482.604 L485.1667,481.6524 L495.3333,481.0061 L505.5,482.1602 L515.6667,482.4549 L525.8333,481.3382 L536,481.8516 " fill="none" style="stroke: #A80036; stroke-width: 1.0;"/><text fill="#000000" font-family="sans-serif" font-size="13" lengthAdjust="spacingAndGlyphs" textLength="78" x="329.5" y="476.9185">イベント設置</text><polygon fill="#A80036" points="115,506.9844,115.0494,507.1079,112.9397,507.6337,111.0636,508.7434,109.0511,509.5122,106.9433,510.0426,105,510.9844,104.9785,510.9306,107.0377,511.8787,108.9474,512.4528,110.9176,513.1784,112.9986,514.1808,115,514.9844,114.8234,514.8078,114.1955,514.1798,113.4569,513.4413,112.4338,512.4182,111.6982,511.6826,111,510.9844,110.8387,510.8231,111.7914,510.1758,112.6241,509.4085,113.3507,508.535,114.1544,507.7388,115,506.9844" style="stroke: #A80036; stroke-width: 1.0;"/><path d="M109,510.9844 L109,510.7673 L119.119,510.0919 L129.2381,510.9255 L139.3571,511.4892 L149.4762,510.7862 L159.5952,510.3196 L169.7143,511.2468 L179.8333,510.3654 L189.9524,510.033 L200.0714,511.1709 L210.1905,511.4707 L220.3095,511.6215 L230.4286,510.8553 L240.5476,510.5669 L250.6667,511.5159 L260.7857,511.6384 L270.9048,511.6301 L281.0238,511.5693 L291.1429,510.9176 L301.2619,511.6596 L311.381,510.1399 L321.5,510.9844 " fill="none" style="stroke: #A80036; stroke-width: 1.0;"/><text fill="#000000" font-family="sans-serif" font-size="13" lengthAdjust="spacingAndGlyphs" textLength="86" x="121" y="506.0513">beforeRender</text><polygon fill="#A80036" points="733,536.1172,732.9376,535.9611,734.9706,536.8438,737.0521,537.8475,738.9853,538.4806,741.0293,539.3905,743,540.1172,743.0014,540.1207,741.0321,540.9975,738.9208,541.5192,736.9328,542.3491,735.0857,543.5315,733,544.1172,732.9138,544.031,733.8114,543.3286,734.4791,542.3963,735.4663,541.7834,736.1069,540.8241,737,540.1172,736.9816,540.0988,736.0602,539.1774,735.4368,538.554,734.7286,537.8458,733.7969,536.9141,733,536.1172" style="stroke: #A80036; stroke-width: 1.0;"/><path d="M104,540.1172 L104,539.1731 L113.9219,539.8823 L123.8438,540.7274 L133.7656,541.0472 L143.6875,540.6145 L153.6094,540.3427 L163.5313,540.5402 L173.4531,539.6251 L183.375,540.1145 L193.2969,540.6365 L203.2188,540.1568 L213.1406,540.132 L223.0625,540.5951 L232.9844,540.6267 L242.9063,539.9502 L252.8281,539.5592 L262.75,540.9373 L272.6719,541.0224 L282.5938,540.0729 L292.5156,540.3709 L302.4375,540.5087 L312.3594,540.1811 L322.2813,539.7418 L332.2031,539.1401 L342.125,540.9722 L352.0469,539.6009 L361.9688,540.2444 L371.8906,539.6317 L381.8125,540.1605 L391.7344,540.4758 L401.6563,540.8769 L411.5781,539.2249 L421.5,540.7646 L431.4219,539.2033 L441.3438,540.9634 L451.2656,539.7959 L461.1875,539.9937 L471.1094,540.1851 L481.0313,539.476 L490.9531,540.3525 L500.875,539.2012 L510.7969,539.6467 L520.7188,540.5879 L530.6406,540.8209 L540.5625,540.7526 L550.4844,540.5342 L560.4063,540.7389 L570.3281,540.4282 L580.25,539.1294 L590.1719,539.8031 L600.0938,540.4787 L610.0156,540.1075 L619.9375,540.4142 L629.8594,539.6209 L639.7813,540.4756 L649.7031,540.2726 L659.625,540.8972 L669.5469,539.1406 L679.4688,539.6391 L689.3906,539.1655 L699.3125,539.5702 L709.2344,539.5798 L719.1563,540.3042 L729.0781,540.7768 L739,540.1172 " fill="none" style="stroke: #A80036; stroke-width: 1.0;"/><text fill="#000000" font-family="sans-serif" font-size="13" lengthAdjust="spacingAndGlyphs" textLength="105" x="111" y="535.1841">editへrender処理</text><polygon fill="#A80036" points="553,565.25,553.0583,565.3958,551.0219,566.1047,549.0689,567.0221,547.0884,567.8709,544.9832,568.408,543,569.25,542.9851,569.2127,544.9955,570.0388,547.0732,571.033,549.0338,571.7345,551.0072,572.4681,553,573.25,552.9209,573.1709,552.1251,572.3751,551.4096,571.6596,550.6076,570.8576,549.8735,570.1235,549,569.25,548.8543,569.1043,549.8431,568.4931,550.4277,567.4777,551.5411,566.9911,552.043,565.893,553,565.25" style="stroke: #A80036; stroke-width: 1.0;"/><path d="M547,569.25 L547,569.8176 L556.85,568.4892 L566.7,570.0356 L576.55,568.7996 L586.4,569.7488 L596.25,569.1221 L606.1,568.3746 L615.95,569.0883 L625.8,569.7413 L635.65,568.8097 L645.5,568.3668 L655.35,568.9875 L665.2,569.6789 L675.05,570.1382 L684.9,568.4438 L694.75,568.916 L704.6,568.7549 L714.45,569.2362 L724.3,568.4136 L734.15,568.7333 L744,569.25 " fill="none" style="stroke: #A80036; stroke-width: 1.0;"/><text fill="#000000" font-family="sans-serif" font-size="13" lengthAdjust="spacingAndGlyphs" textLength="147" x="559" y="564.3169">BcAdminForm-&gt;create</text><path d="M542,598.5156 L542,598.3481 L550.4,598.7325 L558.8,598.8249 L567.2,598.6559 L575.6,598.7434 L584,598.5156 " fill="none" style="stroke: #A80036; stroke-width: 1.0;"/><path d="M584,598.5156 L583.9274,598.5156 L584.2395,601.1156 L583.9425,603.7156 L584.1184,606.3156 L583.7221,608.9156 L584,611.5156 " fill="none" style="stroke: #A80036; stroke-width: 1.0;"/><path d="M543,611.5156 L543,611.7113 L551.2,611.3075 L559.4,611.5334 L567.6,611.4613 L575.8,611.5167 L584,611.5156 " fill="none" style="stroke: #A80036; stroke-width: 1.0;"/><polygon fill="#A80036" points="553,607.5156,553.0267,607.5825,550.9279,608.1355,548.9447,608.9773,546.9985,609.9119,545.0016,610.7195,543,611.5156,543.0034,611.5241,544.9805,612.267,547.015,613.1531,548.9613,613.819,551.0528,614.8475,553,615.5156,553.151,615.6666,552.1374,614.653,551.3182,613.8338,550.5042,613.0199,549.8538,612.3694,549,611.5156,548.8957,611.4113,549.6489,610.5645,550.686,610.0017,551.4403,609.1559,552.0619,608.1775,553,607.5156" style="stroke: #A80036; stroke-width: 1.0;"/><text fill="#000000" font-family="sans-serif" font-size="13" lengthAdjust="spacingAndGlyphs" textLength="115" x="549" y="593.4497">formBeforeCreate</text><polygon fill="#FBFB77" filter="url(#ftitzvi)" points="460,624.5156,460.0123,624.5156,460.0757,629.5156,459.8372,634.5156,459.9758,639.5156,460.0387,644.5156,460,649.5156,460,650.0789,469.9375,649.4582,479.875,649.4626,489.8125,649.5232,499.75,650.186,509.6875,650.1681,519.625,649.4153,529.5625,649.7803,539.5,650.208,549.4375,649.7874,559.375,649.0661,569.3125,649.403,579.25,650.0267,589.1875,649.2962,599.125,648.7998,609.0625,649.7876,619,649.5156,618.8701,649.5156,618.9568,646.5156,619.1581,643.5156,618.8243,640.5156,618.8279,637.5156,619,634.5156,619.0224,634.538,616.8307,632.3463,615.1351,630.6507,613.0668,628.5824,611.1607,626.6763,609,624.5156,609,624.8504,599.0667,624.0595,589.1333,624.6388,579.2,625.1426,569.2667,624.1954,559.3333,625.0168,549.4,625.2481,539.4667,624.6529,529.5333,624.6679,519.6,624.2755,509.6667,624.5388,499.7333,625.1545,489.8,623.9299,479.8667,624.538,469.9333,625.094,460,624.5156" style="stroke: #A80036; stroke-width: 1.0;"/><path d="M609,624.5156 L608.744,624.5156 L608.6985,626.5156 L609.1929,628.5156 L609.0404,630.5156 L609.0283,632.5156 L609,634.5156 " fill="#FBFB77" style="stroke: #A80036; stroke-width: 1.0;"/><path d="M619,634.5156 L619,634.7537 L617,634.3292 L615,634.4628 L613,634.7273 L611,634.4566 L609,634.5156 " fill="#FBFB77" style="stroke: #A80036; stroke-width: 1.0;"/><text fill="#000000" font-family="sans-serif" font-size="13" lengthAdjust="spacingAndGlyphs" textLength="138" x="466" y="641.5825">フォームoptionsの設定</text><polygon fill="#A80036" points="733,675.6484,733.038,675.7435,734.9137,676.2326,737.0007,677.2502,739.0308,678.1254,741.0601,678.9987,743,679.6484,742.95,679.5235,741.0031,680.4563,738.9954,681.2368,737.008,682.0685,735.012,682.8785,733,683.6484,732.8722,683.5207,733.8736,682.9221,734.6944,682.1428,735.5404,681.3889,736.359,680.6074,737,679.6484,736.957,679.6054,736.1916,678.8401,735.4394,678.0878,734.7192,677.3676,733.7343,676.3828,733,675.6484" style="stroke: #A80036; stroke-width: 1.0;"/><path d="M542,679.6484 L542,680.461 L551.85,678.7488 L561.7,679.762 L571.55,680.5302 L581.4,680.41 L591.25,679.6916 L601.1,678.8786 L610.95,680.5882 L620.8,678.8136 L630.65,680.0429 L640.5,679.6323 L650.35,679.2164 L660.2,679.9374 L670.05,679.5218 L679.9,680.5574 L689.75,680.5977 L699.6,678.7245 L709.45,680.6238 L719.3,679.454 L729.15,679.4566 L739,679.6484 " fill="none" style="stroke: #A80036; stroke-width: 1.0;"/><text fill="#000000" font-family="sans-serif" font-size="13" lengthAdjust="spacingAndGlyphs" textLength="104" x="549" y="674.7153">formAfterCreate</text><polygon fill="#FBFB77" filter="url(#ftitzvi)" points="413,692.7813,413.4292,692.7813,412.4809,702.3813,413.5297,711.9813,412.6748,721.5813,412.3252,731.1813,413,740.7813,413,740.6011,423.12,740.4762,433.24,740.184,443.36,740.9817,453.48,741.1992,463.6,741.1863,473.72,741.244,483.84,740.6363,493.96,741.4202,504.08,740.8525,514.2,740.6563,524.32,740.868,534.44,741.1671,544.56,741.3768,554.68,740.3531,564.8,740.8883,574.92,740.2381,585.04,741.3128,595.16,740.7389,605.28,740.0421,615.4,740.9771,625.52,741.445,635.64,741.4943,645.76,741.1241,655.88,741.0078,666,740.7813,666.1039,740.7813,665.9395,733.1813,665.92,725.5813,666.0492,717.9813,665.9296,710.3813,666,702.7813,665.9038,702.6851,664.164,700.9453,662.0526,698.8338,660.062,696.8433,658.0387,694.8199,656,692.7813,656,693.0804,645.875,693.1312,635.75,693.0825,625.625,693.0762,615.5,692.5075,605.375,693.1769,595.25,692.8757,585.125,693.4981,575,693.4255,564.875,692.6847,554.75,692.0919,544.625,693.1049,534.5,692.7967,524.375,693.4131,514.25,692.4219,504.125,692.2536,494,692.4431,483.875,692.7331,473.75,692.2327,463.625,692.224,453.5,693.5156,443.375,692.537,433.25,693.2801,423.125,692.4931,413,692.7813" style="stroke: #A80036; stroke-width: 1.0;"/><path d="M656,692.7813 L655.9082,692.7813 L656.1062,694.7813 L656.1766,696.7813 L656.059,698.7813 L656.1065,700.7813 L656,702.7813 " fill="#FBFB77" style="stroke: #A80036; stroke-width: 1.0;"/><path d="M666,702.7813 L666,702.8738 L664,702.5549 L662,702.7253 L660,702.9236 L658,702.5278 L656,702.7813 " fill="#FBFB77" style="stroke: #A80036; stroke-width: 1.0;"/><text fill="#000000" font-family="sans-serif" font-size="13" lengthAdjust="spacingAndGlyphs" textLength="130" x="419" y="709.8481">フォームIDのチェック</text><path d="M414,712.9141 L414,712.8082 L424.04,713.0003 L434.08,712.7544 L444.12,713.5542 L454.16,712.3038 L464.2,712.269 L474.24,713.4656 L484.28,713.0215 L494.32,712.7736 L504.36,713.7601 L514.4,712.6781 L524.44,712.9109 L534.48,713.17 L544.52,713.2027 L554.56,712.3695 L564.6,711.9406 L574.64,713.2706 L584.68,712.5516 L594.72,712.6802 L604.76,713.2875 L614.8,713.0024 L624.84,712.1092 L634.88,712.0115 L644.92,712.2747 L654.96,712.4537 L665,712.9141 " fill="#FBFB77" style="stroke: #A80036; stroke-width: 1.0;"/><text fill="#000000" font-family="sans-serif" font-size="13" lengthAdjust="spacingAndGlyphs" textLength="232" x="419" y="728.981">content_fieldsをフォームに結合し出力</text><polygon fill="#A80036" points="553,767.0469,552.9385,766.8932,550.9395,767.6956,548.9157,768.436,546.9733,769.3802,545.0208,770.2988,543,771.0469,543.0187,771.0936,544.9105,771.6232,546.9789,772.594,548.9514,773.3254,550.9806,774.1984,553,775.0469,552.9408,774.9877,552.0546,774.1015,551.3838,773.4307,550.6774,772.7243,549.7581,771.805,549,771.0469,549.1191,771.166,549.7697,770.2166,550.5004,769.3473,551.4024,768.6493,552.3099,767.9568,553,767.0469" style="stroke: #A80036; stroke-width: 1.0;"/><path d="M547,771.0469 L547,770.4892 L556.85,771.1596 L566.7,771.8995 L576.55,771.6422 L586.4,771.2397 L596.25,770.5788 L606.1,771.4784 L615.95,771.6227 L625.8,770.776 L635.65,771.4037 L645.5,770.8598 L655.35,770.4361 L665.2,770.4659 L675.05,770.4346 L684.9,770.2763 L694.75,771.3421 L704.6,771.066 L714.45,771.3569 L724.3,770.4481 L734.15,771.8921 L744,771.0469 " fill="none" style="stroke: #A80036; stroke-width: 1.0;"/><text fill="#000000" font-family="sans-serif" font-size="13" lengthAdjust="spacingAndGlyphs" textLength="150" x="559" y="766.1138">BcAdminForm-&gt;submit</text><polygon fill="#A80036" points="733,796.1797,733.0214,796.2331,734.9151,796.7674,736.9528,797.6616,739.0241,798.64,741.0403,799.4804,743,800.1797,742.934,800.0147,741.0291,801.0524,739.0607,801.9314,736.9907,802.5564,734.9517,803.2589,733,804.1797,732.9764,804.1561,733.879,803.4587,734.6327,802.6124,735.2998,801.6795,736.2331,801.0128,737,800.1797,736.8702,800.0499,736.2595,799.4392,735.5298,798.7095,734.5704,797.7501,733.7112,796.8909,733,796.1797" style="stroke: #A80036; stroke-width: 1.0;"/><path d="M542,800.1797 L542,800.9684 L551.85,800.0006 L561.7,799.2871 L571.55,800.7032 L581.4,800.8123 L591.25,800.321 L601.1,799.5339 L610.95,799.5728 L620.8,799.2641 L630.65,800.724 L640.5,799.4573 L650.35,800.5924 L660.2,800.8086 L670.05,799.6343 L679.9,800.5528 L689.75,799.9416 L699.6,800.5409 L709.45,800.9227 L719.3,800.2358 L729.15,800.003 L739,800.1797 " fill="none" style="stroke: #A80036; stroke-width: 1.0;"/><text fill="#000000" font-family="sans-serif" font-size="13" lengthAdjust="spacingAndGlyphs" textLength="107" x="549" y="795.2466">formAfterSubmit</text><polygon fill="#FBFB77" filter="url(#ftitzvi)" points="445,813.3125,444.6638,813.3125,444.6176,823.6458,444.2898,833.9792,444.5713,844.3125,444.5464,854.6458,445.0603,864.9792,444.2665,875.3125,445.5028,885.6458,444.4581,895.9792,445,906.3125,445,905.7347,455,905.7225,465,906.5568,475,906.8401,485,906.8067,495,905.7549,505,906.5007,515,905.7713,525,906.4407,535,906.9721,545,906.6027,555,906.9279,565,906.2129,575,906.7026,585,906.4626,595,906.166,605,906.4385,615,905.8477,625,905.963,635,906.3125,635.6746,906.3125,635.1111,895.9375,634.6272,885.5625,634.9368,875.1875,634.5173,864.8125,635.3767,854.4375,634.941,844.0625,635.2844,833.6875,635,823.3125,634.9019,823.2144,632.8556,821.1681,630.9697,819.2822,628.9676,817.2801,627.0006,815.3131,625,813.3125,625,812.8824,615,813.3611,605,813.8809,595,813.6732,585,812.9251,575,813.3063,565,812.791,555,813.014,545,814.0074,535,813.3463,525,813.8451,515,813.2814,505,813.2222,495,813.9947,485,813.1583,475,812.9156,465,814.0157,455,813.575,445,813.3125" style="stroke: #A80036; stroke-width: 1.0;"/><path d="M625,813.3125 L625.0088,813.3125 L625.2365,815.3125 L625.3013,817.3125 L625.0885,819.3125 L625.2265,821.3125 L625,823.3125 " fill="#FBFB77" style="stroke: #A80036; stroke-width: 1.0;"/><path d="M635,823.3125 L635,823.17 L633,823.5674 L631,823.1448 L629,823.3049 L627,823.2284 L625,823.3125 " fill="#FBFB77" style="stroke: #A80036; stroke-width: 1.0;"/><text fill="#000000" font-family="sans-serif" font-size="13" lengthAdjust="spacingAndGlyphs" textLength="169" x="451" y="830.3794">以下をフォームに追加し出力</text><path d="M446,833.4453 L446,833.0007 L455.8947,833.7697 L465.7895,833.0495 L475.6842,834.2068 L485.5789,834.3865 L495.4737,833.8785 L505.3684,833.7855 L515.2632,832.6721 L525.1579,833.8867 L535.0526,832.8475 L544.9474,833.3479 L554.8421,832.5969 L564.7368,833.7208 L574.6316,832.9387 L584.5263,833.7924 L594.4211,833.2997 L604.3158,833.232 L614.2105,834.1111 L624.1053,833.0244 L634,833.4453 " fill="#FBFB77" style="stroke: #A80036; stroke-width: 1.0;"/><text fill="#000000" font-family="sans-serif" font-size="13" lengthAdjust="spacingAndGlyphs" textLength="116" x="451" y="849.5122">・content_options</text><text fill="#000000" font-family="sans-serif" font-size="13" lengthAdjust="spacingAndGlyphs" textLength="115" x="451" y="864.645">・content_actions</text><text fill="#000000" font-family="sans-serif" font-size="13" lengthAdjust="spacingAndGlyphs" textLength="114" x="451" y="879.7778">・content_related</text><text fill="#000000" font-family="sans-serif" font-size="13" lengthAdjust="spacingAndGlyphs" textLength="92" x="451" y="894.9106">・content_info</text></g></svg>