<?xml version="1.0" encoding="UTF-8" standalone="no"?><svg xmlns="http://www.w3.org/2000/svg" xmlns:xlink="http://www.w3.org/1999/xlink" contentScriptType="application/ecmascript" contentStyleType="text/css" height="797px" preserveAspectRatio="none" style="width:690px;height:797px;" version="1.1" viewBox="0 0 690 797" width="690px" zoomAndPan="magnify"><defs><filter height="300%" id="fh6rt82" width="300%" x="-1" y="-1"><feGaussianBlur result="blurOut" stdDeviation="2.0"/><feColorMatrix in="blurOut" result="blurOut2" type="matrix" values="0 0 0 0 0 0 0 0 0 0 0 0 0 0 0 0 0 0 .4 0"/><feOffset dx="4.0" dy="4.0" in="blurOut2" result="blurOut3"/><feBlend in="SourceGraphic" in2="blurOut3" mode="normal"/></filter></defs><g><text fill="#000000" font-family="sans-serif" font-size="14" font-weight="bold" lengthAdjust="spacingAndGlyphs" textLength="154" x="275.25" y="23.5352">コンテンツフォルダ作成</text><path d="M90,68.9766 L89.2902,68.9766 L90.2833,78.9596 L89.7826,88.9427 L90.308,98.9258 L90.1456,108.9089 L90.1841,118.8919 L89.0161,128.875 L89.2308,138.8581 L90.5668,148.8411 L89.0467,158.8242 L89.3826,168.8073 L90.7655,178.7904 L90.686,188.7734 L90.2494,198.7565 L89.8639,208.7396 L89.8477,218.7227 L90.3174,228.7057 L90.9006,238.6888 L90.594,248.6719 L89.137,258.6549 L90.7514,268.638 L90.7993,278.6211 L89.7346,288.6042 L89.3824,298.5872 L89.1048,308.5703 L90.7764,318.5534 L89.2095,328.5365 L90.1995,338.5195 L89.4057,348.5026 L89.2671,358.4857 L89.3928,368.4688 L90.8937,378.4518 L90.345,388.4349 L89.3259,398.418 L89.1958,408.401 L90.6695,418.3841 L90.0728,428.3672 L89.8537,438.3503 L90.0319,448.3333 L90.4669,458.3164 L89.5456,468.2995 L90.542,478.2826 L89.8669,488.2656 L90.7452,498.2487 L89.7508,508.2318 L89.97,518.2148 L90.9719,528.1979 L90.8084,538.181 L90.6411,548.1641 L90.4043,558.1471 L90.0959,568.1302 L89.7271,578.1133 L90.8019,588.0964 L89.1538,598.0794 L90.5639,608.0625 L90.5533,618.0456 L90.7599,628.0286 L90.8229,638.0117 L90.2779,647.9948 L90.3641,657.9779 L89.4052,667.9609 L89.4838,677.944 L89.7638,687.9271 L90.6872,697.9102 L90.2588,707.8932 L90.6536,717.8763 L90.2539,727.8594 L90.0738,737.8424 L90.2577,747.8255 L90,757.8086 " fill="none" style="stroke: #A80036; stroke-width: 1.0; stroke-dasharray: 5.0,5.0;"/><path d="M241,68.9766 L241.0147,68.9766 L240.334,78.9596 L241.9777,88.9427 L241.3623,98.9258 L240.0583,108.9089 L241.9067,118.8919 L241.6861,128.875 L241.6099,138.8581 L240.2562,148.8411 L240.1364,158.8242 L241.8167,168.8073 L241.2408,178.7904 L240.9841,188.7734 L241.6404,198.7565 L240.8577,208.7396 L241.2214,218.7227 L240.2202,228.7057 L240.4764,238.6888 L241.3695,248.6719 L241.865,258.6549 L241.0342,268.638 L240.4541,278.6211 L241.8063,288.6042 L240.323,298.5872 L241.0592,308.5703 L240.9581,318.5534 L240.4312,328.5365 L241.4724,338.5195 L240.5044,348.5026 L241.8199,358.4857 L241.5133,368.4688 L241.1709,378.4518 L240.8189,388.4349 L241.8139,398.418 L241.8875,408.401 L240.9804,418.3841 L240.8579,428.3672 L240.0776,438.3503 L241.0428,448.3333 L240.2785,458.3164 L240.3291,468.2995 L240.1667,478.2826 L240.1791,488.2656 L241.1837,498.2487 L241.4133,508.2318 L240.5565,518.2148 L241.1255,528.1979 L241.9131,538.181 L240.7562,548.1641 L241.1883,558.1471 L240.6674,568.1302 L241.0716,578.1133 L241.5173,588.0964 L241.1339,598.0794 L241.6561,608.0625 L240.9421,618.0456 L240.8406,628.0286 L241.6122,638.0117 L241.3012,647.9948 L240.0994,657.9779 L241.9774,667.9609 L241.4439,677.944 L241.2532,687.9271 L240.615,697.9102 L240.3423,707.8932 L240.5648,717.8763 L241.4806,727.8594 L240.7524,737.8424 L241.0266,747.8255 L241,757.8086 " fill="none" style="stroke: #A80036; stroke-width: 1.0; stroke-dasharray: 5.0,5.0;"/><path d="M387,68.9766 L387.445,68.9766 L386.5284,78.9596 L386.3674,88.9427 L387.7184,98.9258 L386.1725,108.9089 L386.5195,118.8919 L387.237,128.875 L387.5948,138.8581 L386.5584,148.8411 L386.2153,158.8242 L386.2328,168.8073 L387.556,178.7904 L387.9094,188.7734 L387.6027,198.7565 L387.6344,208.7396 L386.1584,218.7227 L386.0883,228.7057 L386.8048,238.6888 L387.9484,248.6719 L386.7836,258.6549 L386.1428,268.638 L386.6369,278.6211 L386.3543,288.6042 L386.9447,298.5872 L387.1348,308.5703 L387.8367,318.5534 L386.34,328.5365 L386.1847,338.5195 L387.8403,348.5026 L386.8947,358.4857 L387.2234,368.4688 L386.7607,378.4518 L387.7097,388.4349 L386.495,398.418 L386.0727,408.401 L387.2369,418.3841 L386.8982,428.3672 L387.8482,438.3503 L387.0446,448.3333 L387.2231,458.3164 L386.2673,468.2995 L386.6556,478.2826 L386.3535,488.2656 L387.8001,498.2487 L387.052,508.2318 L386.0934,518.2148 L386.9641,528.1979 L386.6607,538.181 L386.3601,548.1641 L387.0358,558.1471 L387.6709,568.1302 L387.6769,578.1133 L386.8304,588.0964 L387.7611,598.0794 L386.4804,608.0625 L387.4639,618.0456 L386.6316,628.0286 L386.5916,638.0117 L386.1583,647.9948 L386.5696,657.9779 L387.5137,667.9609 L387.3142,677.944 L386.433,687.9271 L386.1542,697.9102 L387.8553,707.8932 L386.8149,717.8763 L386.6663,727.8594 L386.4552,737.8424 L386.5569,747.8255 L387,757.8086 " fill="none" style="stroke: #A80036; stroke-width: 1.0; stroke-dasharray: 5.0,5.0;"/><path d="M510,68.9766 L510.1297,68.9766 L509.8057,78.9596 L509.9467,88.9427 L509.2327,98.9258 L509.0748,108.9089 L510.1308,118.8919 L510.9046,128.875 L509.4401,138.8581 L510.7636,148.8411 L509.6802,158.8242 L510.0808,168.8073 L510.66,178.7904 L509.6554,188.7734 L509.3218,198.7565 L510.3667,208.7396 L509.4042,218.7227 L509.2974,228.7057 L510.177,238.6888 L510.6899,248.6719 L510.1747,258.6549 L509.6357,268.638 L509.5601,278.6211 L510.9434,288.6042 L509.0367,298.5872 L510.6637,308.5703 L510.7188,318.5534 L510.4857,328.5365 L510.294,338.5195 L509.2613,348.5026 L509.486,358.4857 L510.6764,368.4688 L510.1644,378.4518 L510.3515,388.4349 L510.4521,398.418 L509.03,408.401 L509.4542,418.3841 L510.9565,428.3672 L509.4682,438.3503 L509.8713,448.3333 L509.0178,458.3164 L510.3867,468.2995 L510.1638,478.2826 L509.8663,488.2656 L509.2633,498.2487 L509.624,508.2318 L509.737,518.2148 L510.4815,528.1979 L510.1251,538.181 L509.9888,548.1641 L509.5278,558.1471 L509.2869,568.1302 L510.7778,578.1133 L509.3827,588.0964 L510.8285,598.0794 L510.0754,608.0625 L510.8985,618.0456 L509.801,628.0286 L510.0185,638.0117 L510.006,647.9948 L509.5134,657.9779 L510.3895,667.9609 L509.4257,677.944 L510.4103,687.9271 L509.373,697.9102 L510.092,707.8932 L509.326,717.8763 L510.5152,727.8594 L510.4024,737.8424 L510.896,747.8255 L510,757.8086 " fill="none" style="stroke: #A80036; stroke-width: 1.0; stroke-dasharray: 5.0,5.0;"/><polygon fill="#FEFECE" filter="url(#fh6rt82)" points="8,33.4883,8,33.6252,18.0625,33.5908,28.125,32.7827,38.1875,34.1096,48.25,33.9458,58.3125,33.7828,68.375,33.0433,78.4375,32.8784,88.5,33.2005,98.5625,33.9805,108.625,33.766,118.6875,32.7507,128.75,33.0593,138.8125,32.9939,148.875,33.4876,158.9375,33.1495,169,33.4883,168.9138,33.4883,168.9143,39.5859,168.8962,45.6836,169.0527,51.7813,169.1682,57.8789,169,63.9766,169,63.395,158.9375,64.1438,148.875,63.9144,138.8125,63.921,128.75,64.238,118.6875,63.8308,108.625,64.4185,98.5625,63.4949,88.5,63.8902,78.4375,63.6322,68.375,64.2435,58.3125,63.503,48.25,63.9182,38.1875,63.884,28.125,63.5946,18.0625,64.4125,8,63.9766,7.7501,63.9766,8.046,57.8789,7.7511,51.7813,7.8158,45.6836,8.0645,39.5859,8,33.4883" style="stroke: #A80036; stroke-width: 1.5;"/><text fill="#000000" font-family="sans-serif" font-size="14" lengthAdjust="spacingAndGlyphs" textLength="147" x="15" y="54.0234">ContentFolderService</text><polygon fill="#FEFECE" filter="url(#fh6rt82)" points="8,756.8086,8,757.3464,18.0625,756.6718,28.125,756.443,38.1875,756.6372,48.25,756.2183,58.3125,756.5504,68.375,756.2496,78.4375,756.3599,88.5,756.8363,98.5625,756.2074,108.625,756.6053,118.6875,756.5815,128.75,756.0589,138.8125,757.2628,148.875,756.4063,158.9375,756.6878,169,756.8086,168.9725,756.8086,169.0773,762.9063,168.9359,769.0039,168.8059,775.1016,168.8369,781.1992,169,787.2969,169,787.2381,158.9375,786.7457,148.875,786.6094,138.8125,786.569,128.75,787.4879,118.6875,786.5913,108.625,787.6961,98.5625,787.2544,88.5,787.1347,78.4375,787.9161,68.375,787.0035,58.3125,786.9419,48.25,787.5997,38.1875,787.7344,28.125,787.4799,18.0625,786.8327,8,787.2969,8.0105,787.2969,8.2452,781.1992,8.1612,775.1016,8.1526,769.0039,7.8954,762.9063,8,756.8086" style="stroke: #A80036; stroke-width: 1.5;"/><text fill="#000000" font-family="sans-serif" font-size="14" lengthAdjust="spacingAndGlyphs" textLength="147" x="15" y="777.3438">ContentFolderService</text><polygon fill="#FEFECE" filter="url(#fh6rt82)" points="183,33.4883,183,33.2945,193.2727,32.9729,203.5455,33.8171,213.8182,33.9687,224.0909,33.8953,234.3636,33.3834,244.6364,33.6322,254.9091,32.7489,265.1818,33.5808,275.4545,34.1491,285.7273,34.1152,296,33.4883,296.0145,33.4883,295.9049,39.5859,296.1149,45.6836,296.0086,51.7813,296.2311,57.8789,296,63.9766,296,64.7253,285.7273,64.2543,275.4545,64.1142,265.1818,64.2839,254.9091,63.2536,244.6364,64.5108,234.3636,63.998,224.0909,64.1114,213.8182,63.6299,203.5455,63.6631,193.2727,63.4699,183,63.9766,182.8408,63.9766,182.8603,57.8789,183.1105,51.7813,183.1336,45.6836,182.9715,39.5859,183,33.4883" style="stroke: #A80036; stroke-width: 1.5;"/><text fill="#000000" font-family="sans-serif" font-size="14" lengthAdjust="spacingAndGlyphs" textLength="99" x="190" y="54.0234">ContentFolder</text><polygon fill="#FEFECE" filter="url(#fh6rt82)" points="183,756.8086,183,756.8669,193.2727,756.8692,203.5455,756.6515,213.8182,757.1933,224.0909,756.1968,234.3636,757.1807,244.6364,756.2463,254.9091,756.3065,265.1818,757.0024,275.4545,757.2828,285.7273,757.2415,296,756.8086,295.8411,756.8086,295.8882,762.9063,296.1809,769.0039,296.1432,775.1016,296.0425,781.1992,296,787.2969,296,786.8304,285.7273,788.0263,275.4545,788.0093,265.1818,786.9779,254.9091,786.8857,244.6364,786.9045,234.3636,787.975,224.0909,787.4929,213.8182,787.1435,203.5455,787.0561,193.2727,786.9176,183,787.2969,182.9003,787.2969,182.778,781.1992,182.7926,775.1016,183.2175,769.0039,183.0092,762.9063,183,756.8086" style="stroke: #A80036; stroke-width: 1.5;"/><text fill="#000000" font-family="sans-serif" font-size="14" lengthAdjust="spacingAndGlyphs" textLength="99" x="190" y="777.3438">ContentFolder</text><polygon fill="#FEFECE" filter="url(#fh6rt82)" points="310,33.4883,310,33.2766,320,33.0516,330,32.8272,340,33.0382,350,33.4256,360,33.4216,370,34.1709,380,33.3519,390,32.895,400,33.7447,410,32.9039,420,33.7363,430,34.183,440,34.0368,450,33.6391,460,33.4883,459.9926,33.4883,460.189,39.5859,459.9778,45.6836,459.933,51.7813,460.2277,57.8789,460,63.9766,460,64.1226,450,63.5572,440,64.2548,430,63.4472,420,63.3966,410,64.6591,400,63.4097,390,64.4029,380,64.3176,370,63.6969,360,64.7045,350,64.3917,340,63.646,330,64.6777,320,64.6803,310,63.9766,309.7614,63.9766,310.0664,57.8789,310.2059,51.7813,309.7894,45.6836,309.8845,39.5859,310,33.4883" style="stroke: #A80036; stroke-width: 1.5;"/><text fill="#000000" font-family="sans-serif" font-size="14" lengthAdjust="spacingAndGlyphs" textLength="136" x="317" y="54.0234">BcContentsBehavior</text><polygon fill="#FEFECE" filter="url(#fh6rt82)" points="310,756.8086,310,756.8178,320,756.9019,330,756.4462,340,757.2541,350,756.2123,360,756.3371,370,756.4773,380,756.477,390,757.0484,400,756.3649,410,756.7024,420,756.5229,430,756.2029,440,757.5564,450,756.6335,460,756.8086,460.1929,756.8086,459.895,762.9063,459.7613,769.0039,459.9002,775.1016,459.9787,781.1992,460,787.2969,460,786.9443,450,787.0192,440,787.6263,430,786.7282,420,787.461,410,787.8407,400,786.8216,390,786.6532,380,787.8556,370,787.6581,360,787.6362,350,787.3872,340,787.1919,330,787.3027,320,787.1746,310,787.2969,309.9233,787.2969,309.9559,781.1992,310.2287,775.1016,309.7691,769.0039,310.2152,762.9063,310,756.8086" style="stroke: #A80036; stroke-width: 1.5;"/><text fill="#000000" font-family="sans-serif" font-size="14" lengthAdjust="spacingAndGlyphs" textLength="136" x="317" y="777.3438">BcContentsBehavior</text><polygon fill="#FEFECE" filter="url(#fh6rt82)" points="474,33.4883,474,33.8192,483.8571,33.0191,493.7143,33.7847,503.5714,33.94,513.4286,34.1764,523.2857,33.5763,533.1429,33.9624,543,33.4883,542.9634,33.4883,542.8525,39.5859,542.9152,45.6836,542.884,51.7813,543.1582,57.8789,543,63.9766,543,63.3115,533.1429,64.0629,523.2857,64.418,513.4286,63.5176,503.5714,63.4785,493.7143,63.3391,483.8571,64.5512,474,63.9766,474.0523,63.9766,474.0867,57.8789,474.0343,51.7813,473.8909,45.6836,473.8336,39.5859,474,33.4883" style="stroke: #A80036; stroke-width: 1.5;"/><text fill="#000000" font-family="sans-serif" font-size="14" lengthAdjust="spacingAndGlyphs" textLength="55" x="481" y="54.0234">Content</text><polygon fill="#FEFECE" filter="url(#fh6rt82)" points="474,756.8086,474,756.6408,483.8571,756.1295,493.7143,756.2055,503.5714,756.3033,513.4286,756.8478,523.2857,756.7065,533.1429,756.2003,543,756.8086,542.8617,756.8086,543.1819,762.9063,542.9861,769.0039,542.8852,775.1016,543.0236,781.1992,543,787.2969,543,787.7682,533.1429,787.7298,523.2857,786.7701,513.4286,787.0602,503.5714,787.6751,493.7143,787.3354,483.8571,787.1007,474,787.2969,474.016,787.2969,473.8276,781.1992,474.1848,775.1016,473.8499,769.0039,473.8631,762.9063,474,756.8086" style="stroke: #A80036; stroke-width: 1.5;"/><text fill="#000000" font-family="sans-serif" font-size="14" lengthAdjust="spacingAndGlyphs" textLength="55" x="481" y="777.3438">Content</text><polygon fill="#A80036" points="370,95.9766,369.9403,95.8274,371.9131,96.5594,374.0337,97.6608,375.945,98.2391,377.9556,99.0655,380,99.9766,379.9658,99.8911,378.0446,100.8881,375.9713,101.5048,374.0849,102.5889,372.0197,103.2258,370,103.9766,370.0459,104.0224,370.9369,103.3135,371.4556,102.2322,372.328,101.5046,373.221,100.7976,374,99.9766,373.8531,99.8297,373.1772,99.1537,372.3969,98.3735,371.7051,97.6816,370.9459,96.9225,370,95.9766" style="stroke: #A80036; stroke-width: 1.0;"/><path d="M246.5,99.9766 L246.5,99.8377 L256.4615,99.6855 L266.4231,99.2182 L276.3846,100.2829 L286.3462,100.1001 L296.3077,99.5777 L306.2692,100.1401 L316.2308,100.9044 L326.1923,100.7954 L336.1538,98.986 L346.1154,100.3042 L356.0769,99.2752 L366.0385,100.939 L376,99.9766 " fill="none" style="stroke: #A80036; stroke-width: 1.0;"/><text fill="#000000" font-family="sans-serif" font-size="13" lengthAdjust="spacingAndGlyphs" textLength="54" x="253.5" y="95.5449">initialize</text><polygon fill="#FBFB77" filter="url(#fh6rt82)" points="247,113.2871,246.79,113.2871,247.142,118.2871,246.9415,123.2871,247.1647,128.2871,246.8659,133.2871,247,138.2871,247,138.7198,256.8571,137.95,266.7143,138.6065,276.5714,138.6756,286.4286,138.5057,296.2857,138.145,306.1429,137.7779,316,138.1688,325.8571,138.9373,335.7143,137.9276,345.5714,137.8855,355.4286,138.9441,365.2857,138.9646,375.1429,138.2042,385,137.6266,394.8571,138.6241,404.7143,138.1028,414.5714,137.5779,424.4286,138.0976,434.2857,138.8857,444.1429,137.985,454,138.2934,463.8571,138.5882,473.7143,137.7252,483.5714,137.8963,493.4286,137.6151,503.2857,137.8723,513.1429,138.2515,523,138.2871,522.9445,138.2871,523.0171,135.2871,523.2299,132.2871,522.8554,129.2871,523.1089,126.2871,523,123.2871,522.8641,123.1512,521.1485,121.4356,518.8846,119.1717,517.1602,117.4473,514.9346,115.2217,513,113.2871,513,112.907,503.1481,113.1652,493.2963,113.3393,483.4444,113.8838,473.5926,112.5809,463.7407,113.5345,453.8889,113.521,444.037,112.8162,434.1852,113.3298,424.3333,112.9341,414.4815,113.0323,404.6296,112.7028,394.7778,113.9059,384.9259,113.3868,375.0741,112.6774,365.2222,113.5834,355.3704,113.0415,345.5185,113.7606,335.6667,113.252,325.8148,113.4706,315.963,112.9243,306.1111,112.7077,296.2593,113.6415,286.4074,112.5468,276.5556,112.9834,266.7037,113.1666,256.8519,113.3625,247,113.2871" style="stroke: #A80036; stroke-width: 1.0;"/><path d="M513,113.2871 L513.1812,113.2871 L513.1263,115.2871 L512.7556,117.2871 L512.9476,119.2871 L513.0626,121.2871 L513,123.2871 " fill="#FBFB77" style="stroke: #A80036; stroke-width: 1.0;"/><path d="M523,123.2871 L523,123.2801 L521,123.2561 L519,123.2441 L517,123.4995 L515,123.0355 L513,123.2871 " fill="#FBFB77" style="stroke: #A80036; stroke-width: 1.0;"/><text fill="#000000" font-family="sans-serif" font-size="13" lengthAdjust="spacingAndGlyphs" textLength="255" x="253" y="130.8555">hasOneでコンテンツをフォルダに繋ぎこむ</text><polygon fill="#FBFB77" filter="url(#fh6rt82)" points="13,152.5977,12.973,152.5977,13.1266,157.5977,13.063,162.5977,13.0769,167.5977,13.0503,172.5977,13,177.5977,13,178.042,23,177.197,33,177.2781,43,177.7231,53,177.62,63,176.8977,73,176.9484,83,178.2283,93,177.4351,103,177.2544,113,177.7202,123,177.5446,133,178.2677,143,177.0478,153,177.7634,163,177.5977,163.111,177.5977,162.9848,174.5977,162.7691,171.5977,162.8405,168.5977,162.9528,165.5977,163,162.5977,162.9996,162.5973,160.9538,160.5515,158.9396,158.5373,156.8236,156.4212,154.8998,154.4974,153,152.5977,153,153.3242,143,151.9369,133,152.7666,123,152.4643,113,152.5827,103,152.6396,93,153.2811,83,153.3383,73,152.6533,63,152.3804,53,151.9014,43,152.1878,33,152.2165,23,152.1368,13,152.5977" style="stroke: #A80036; stroke-width: 1.0;"/><path d="M153,152.5977 L153.2264,152.5977 L153.2287,154.5977 L152.8776,156.5977 L152.8241,158.5977 L152.8164,160.5977 L153,162.5977 " fill="#FBFB77" style="stroke: #A80036; stroke-width: 1.0;"/><path d="M163,162.5977 L163,162.3285 L161,162.5469 L159,162.4532 L157,162.375 L155,162.5903 L153,162.5977 " fill="#FBFB77" style="stroke: #A80036; stroke-width: 1.0;"/><text fill="#000000" font-family="sans-serif" font-size="13" lengthAdjust="spacingAndGlyphs" textLength="129" x="19" y="170.166">createメソッドの実行</text><polygon fill="#A80036" points="224.5,203.9082,224.4318,203.7378,226.4428,204.5652,228.5131,205.5409,230.4953,206.2963,232.5549,207.2454,234.5,207.9082,234.4422,207.7637,232.4114,208.4866,230.5596,209.6573,228.5406,210.4096,226.4841,211.0686,224.5,211.9082,224.349,211.7573,225.3245,211.1327,226.0311,210.2393,226.8608,209.469,227.5277,208.5359,228.5,207.9082,228.5299,207.9381,227.837,207.2452,226.9668,206.375,226.1067,205.5149,225.3514,204.7596,224.5,203.9082" style="stroke: #A80036; stroke-width: 1.0;"/><path d="M95.5,207.9082 L95.5,208.042 L105.1429,207.1436 L114.7857,207.0637 L124.4286,208.4297 L134.0714,208.0677 L143.7143,208.8285 L153.3571,208.3205 L163,206.9852 L172.6429,207.9117 L182.2857,208.0332 L191.9286,207.352 L201.5714,208.6431 L211.2143,208.8714 L220.8571,207.9022 L230.5,207.9082 " fill="none" style="stroke: #A80036; stroke-width: 1.0;"/><text fill="#000000" font-family="sans-serif" font-size="13" lengthAdjust="spacingAndGlyphs" textLength="71" x="102.5" y="203.4766">patchEntity</text><path d="M515.5,237.5293 L515.5,237.2647 L523.9,237.5212 L532.3,237.651 L540.7,237.8 L549.1,237.7901 L557.5,237.5293 " fill="none" style="stroke: #A80036; stroke-width: 1.0;"/><path d="M557.5,237.5293 L557.2739,237.5293 L557.6184,240.1293 L557.3772,242.7293 L557.2199,245.3293 L557.2591,247.9293 L557.5,250.5293 " fill="none" style="stroke: #A80036; stroke-width: 1.0;"/><path d="M516.5,250.5293 L516.5,250.6728 L524.7,250.3569 L532.9,250.5465 L541.1,250.5072 L549.3,250.5491 L557.5,250.5293 " fill="none" style="stroke: #A80036; stroke-width: 1.0;"/><polygon fill="#A80036" points="526.5,246.5293,526.4604,246.4304,524.5178,247.3738,522.4673,248.0476,520.5424,249.0354,518.4368,249.5713,516.5,250.5293,516.5081,250.5497,518.4305,251.1556,520.5434,252.2377,522.4239,252.739,524.5895,253.953,526.5,254.5293,526.6691,254.6984,525.8051,253.8344,524.9184,252.9477,524.1951,252.2244,523.2212,251.2505,522.5,250.5293,522.4123,250.4416,523.4541,249.8833,523.9958,248.8251,524.8259,248.0552,525.8319,247.4612,526.5,246.5293" style="stroke: #A80036; stroke-width: 1.0;"/><text fill="#000000" font-family="sans-serif" font-size="13" lengthAdjust="spacingAndGlyphs" textLength="167" x="522.5" y="232.7871">コンテンツ側beforeMarshal</text><polygon fill="#FBFB77" filter="url(#fh6rt82)" points="420,263.5293,420.2091,263.5293,419.7823,271.5293,419.9842,279.5293,420.0369,287.5293,420.1105,295.5293,420,303.5293,420,303.9033,429.8333,304.2028,439.6667,303.5996,449.5,303.1164,459.3333,303.8052,469.1667,303.2531,479,303.5283,488.8333,302.8392,498.6667,302.7813,508.5,302.9139,518.3333,303.8543,528.1667,302.9404,538,303.6814,547.8333,303.8283,557.6667,303.3749,567.5,303.0976,577.3333,303.9473,587.1667,303.9719,597,303.5293,597.2436,303.5293,597.2292,297.5293,597.1666,291.5293,597.11,285.5293,596.8186,279.5293,597,273.5293,596.9125,273.4418,594.9593,271.4886,593.0904,269.6197,590.9546,267.4839,588.8912,265.4205,587,263.5293,587,263.5465,577.1765,263.3845,567.3529,263.7478,557.5294,263.4465,547.7059,263.2735,537.8824,263.4501,528.0588,263.7155,518.2353,263.8821,508.4118,263.1118,498.5882,264.0951,488.7647,263.9514,478.9412,264.1941,469.1176,263.679,459.2941,264.1716,449.4706,263.1894,439.6471,263.5706,429.8235,264.0812,420,263.5293" style="stroke: #A80036; stroke-width: 1.0;"/><path d="M587,263.5293 L587.0019,263.5293 L587.3225,265.5293 L587.0421,267.5293 L586.747,269.5293 L586.7437,271.5293 L587,273.5293 " fill="#FBFB77" style="stroke: #A80036; stroke-width: 1.0;"/><path d="M597,273.5293 L597,273.319 L595,273.5857 L593,273.2454 L591,273.3262 L589,273.7903 L587,273.5293 " fill="#FBFB77" style="stroke: #A80036; stroke-width: 1.0;"/><text fill="#000000" font-family="sans-serif" font-size="13" lengthAdjust="spacingAndGlyphs" textLength="143" x="426" y="281.0977">コンテンツテーブル側で</text><text fill="#000000" font-family="sans-serif" font-size="13" lengthAdjust="spacingAndGlyphs" textLength="156" x="426" y="296.4082">コンテンツのセットアップ</text><polygon fill="#A80036" points="493.5,330.1504,493.5343,330.2361,495.5536,331.0843,497.4333,331.5836,499.4483,332.421,501.5759,333.5402,503.5,334.1504,503.5716,334.3295,501.5755,335.1392,499.5706,335.9269,497.5806,336.7519,495.4478,337.2199,493.5,338.1504,493.3748,338.0252,494.2416,337.2919,495.0276,336.478,495.8232,335.6736,496.526,334.7764,497.5,334.1504,497.4008,334.0512,496.5448,333.1952,495.7551,332.4054,495.1424,331.7928,494.1763,330.8267,493.5,330.1504" style="stroke: #A80036; stroke-width: 1.0;"/><path d="M392,334.1504 L392,334.7961 L401.7727,334.6801 L411.5455,333.2449 L421.3182,333.7453 L431.0909,333.5138 L440.8636,334.5956 L450.6364,333.425 L460.4091,334.9104 L470.1818,334.305 L479.9545,333.1946 L489.7273,333.3829 L499.5,334.1504 " fill="none" style="stroke: #A80036; stroke-width: 1.0;"/><text fill="#000000" font-family="sans-serif" font-size="13" lengthAdjust="spacingAndGlyphs" textLength="78" x="399" y="329.7188">afterMarshal</text><polygon fill="#FBFB77" filter="url(#fh6rt82)" points="251,347.4609,250.4197,347.4609,250.7034,356.6276,250.6722,365.7943,250.3945,374.9609,250.4488,384.1276,251.5927,393.2943,251,402.4609,251,402.3881,260.9259,402.9167,270.8519,403.1884,280.7778,402.9034,290.7037,402.8138,300.6296,402.9427,310.5556,403.1279,320.4815,401.9713,330.4074,401.7583,340.3333,402.4142,350.2593,401.9738,360.1852,402.0725,370.1111,402.4036,380.037,401.9005,389.963,401.877,399.8889,401.7705,409.8148,402.9371,419.7407,402.179,429.6667,403.0298,439.5926,402.9266,449.5185,401.913,459.4444,402.0145,469.3704,402.6587,479.2963,402.3411,489.2222,401.8105,499.1481,402.4263,509.0741,402.879,519,402.4609,518.3938,402.4609,518.669,393.4609,518.8914,384.4609,519.5407,375.4609,519.459,366.4609,519,357.4609,519.091,357.552,516.8801,355.341,514.8616,353.3226,512.8476,351.3085,511.0473,349.5082,509,347.4609,509,347.4032,499.0769,347.7076,489.1538,347.844,479.2308,346.735,469.3077,347.4112,459.3846,348.1159,449.4615,347.5762,439.5385,347.0135,429.6154,347.7975,419.6923,347.7368,409.7692,347.3494,399.8462,347.7676,389.9231,347.4243,380,346.8669,370.0769,347.5308,360.1538,347.6629,350.2308,346.8908,340.3077,347.4705,330.3846,347.7304,320.4615,346.9982,310.5385,347.8652,300.6154,346.7528,290.6923,347.9352,280.7692,347.2044,270.8462,347.619,260.9231,347.2112,251,347.4609" style="stroke: #A80036; stroke-width: 1.0;"/><path d="M509,347.4609 L508.7055,347.4609 L508.7082,349.4609 L508.9254,351.4609 L508.876,353.4609 L508.8397,355.4609 L509,357.4609 " fill="#FBFB77" style="stroke: #A80036; stroke-width: 1.0;"/><path d="M519,357.4609 L519,357.3781 L517,357.7711 L515,357.4369 L513,357.5692 L511,357.3139 L509,357.4609 " fill="#FBFB77" style="stroke: #A80036; stroke-width: 1.0;"/><text fill="#000000" font-family="sans-serif" font-size="13" lengthAdjust="spacingAndGlyphs" textLength="230" x="257" y="365.0293">contentフィールドが含まれてない場合</text><text fill="#000000" font-family="sans-serif" font-size="13" lengthAdjust="spacingAndGlyphs" textLength="117" x="257" y="380.3398">エラーを設定する。</text><text fill="#000000" font-family="sans-serif" font-size="13" lengthAdjust="spacingAndGlyphs" textLength="247" x="257" y="395.6504">プラグインとコンテンツの種類を設定する</text><path d="M515.5,433.7031 L515.5,434.0006 L523.9,433.9553 L532.3,433.7852 L540.7,433.5361 L549.1,433.9654 L557.5,433.7031 " fill="none" style="stroke: #A80036; stroke-width: 1.0;"/><path d="M557.5,433.7031 L557.6111,433.7031 L557.658,436.3031 L557.2053,438.9031 L557.4293,441.5031 L557.1849,444.1031 L557.5,446.7031 " fill="none" style="stroke: #A80036; stroke-width: 1.0;"/><path d="M516.5,446.7031 L516.5,446.5322 L524.7,446.9511 L532.9,446.5296 L541.1,446.5487 L549.3,446.7033 L557.5,446.7031 " fill="none" style="stroke: #A80036; stroke-width: 1.0;"/><polygon fill="#A80036" points="526.5,442.7031,526.4936,442.687,524.5281,443.5733,522.5366,444.3947,520.5116,445.1322,518.4887,445.875,516.5,446.7031,516.4121,446.4833,518.5057,447.5173,520.5023,448.3089,522.5017,449.1074,524.4248,449.7151,526.5,450.7031,526.6057,450.8088,525.5614,449.7646,524.7754,448.9785,524.1316,448.3347,523.3488,447.552,522.5,446.7031,522.5435,446.7467,523.2022,445.8053,524.1463,445.1495,524.854,444.2571,525.6501,443.4533,526.5,442.7031" style="stroke: #A80036; stroke-width: 1.0;"/><text fill="#000000" font-family="sans-serif" font-size="13" lengthAdjust="spacingAndGlyphs" textLength="78" x="522.5" y="428.9609">afterMarshal</text><polygon fill="#FBFB77" filter="url(#fh6rt82)" points="409,459.7031,409.1019,459.7031,409.2252,464.7031,408.9385,469.7031,408.8982,474.7031,408.7566,479.7031,409,484.7031,409,485.1989,418.9,485.4264,428.8,484.9473,438.7,484.3456,448.6,484.3663,458.5,484.4359,468.4,485.2277,478.3,484.3666,488.2,484.4946,498.1,484.8596,508,484.1367,517.9,484.1975,527.8,483.9896,537.7,484.1171,547.6,485.3109,557.5,484.0288,567.4,484.9939,577.3,485.2545,587.2,484.1342,597.1,484.8954,607,484.7031,606.8238,484.7031,606.8111,481.7031,606.7964,478.7031,606.8594,475.7031,607.1587,472.7031,607,469.7031,606.9771,469.6803,605.142,467.8451,602.9217,465.6248,600.9773,463.6805,599.0556,461.7587,597,459.7031,597,460.1543,587.1053,459.7159,577.2105,459.607,567.3158,460.3408,557.4211,459.5142,547.5263,459.1437,537.6316,460.2699,527.7368,459.553,517.8421,459.7233,507.9474,459.4303,498.0526,460.2838,488.1579,459.8263,478.2632,459.0415,468.3684,459.5926,458.4737,459.8986,448.5789,460.1297,438.6842,459.0023,428.7895,459.137,418.8947,460.0865,409,459.7031" style="stroke: #A80036; stroke-width: 1.0;"/><path d="M597,459.7031 L597.1023,459.7031 L597.2296,461.7031 L597.0061,463.7031 L597.3055,465.7031 L597.0384,467.7031 L597,469.7031 " fill="#FBFB77" style="stroke: #A80036; stroke-width: 1.0;"/><path d="M607,469.7031 L607,469.7857 L605,470.0166 L603,469.9795 L601,469.4782 L599,470.0168 L597,469.7031 " fill="#FBFB77" style="stroke: #A80036; stroke-width: 1.0;"/><text fill="#000000" font-family="sans-serif" font-size="13" lengthAdjust="spacingAndGlyphs" textLength="177" x="415" y="477.2715">FrozenTime形式のデータ操作</text><polygon fill="#A80036" points="493.5,511.0137,493.5016,511.0176,495.4535,511.6974,497.5233,512.672,499.5703,513.5894,501.4693,514.137,503.5,515.0137,503.4957,515.0029,501.5063,515.8293,499.4829,516.5709,497.5175,517.4574,495.585,518.4263,493.5,519.0137,493.3252,518.8388,494.4203,518.334,495.0411,517.3547,496.0356,516.7493,496.6162,515.7299,497.5,515.0137,497.5181,515.0317,496.5627,514.0764,495.7529,513.2666,495.084,512.5977,494.3647,511.8783,493.5,511.0137" style="stroke: #A80036; stroke-width: 1.0;"/><path d="M95.5,515.0137 L95.5,514.1556 L105.6,514.2396 L115.7,515.193 L125.8,515.8006 L135.9,515.5374 L146,515.1008 L156.1,514.2267 L166.2,515.9841 L176.3,515.2658 L186.4,515.4899 L196.5,515.7384 L206.6,514.2166 L216.7,515.4257 L226.8,515.0853 L236.9,514.3768 L247,514.8082 L257.1,515.8849 L267.2,514.6461 L277.3,514.1188 L287.4,515.3266 L297.5,514.4837 L307.6,515.5346 L317.7,515.2177 L327.8,514.4888 L337.9,515.2012 L348,514.6888 L358.1,515.2399 L368.2,515.978 L378.3,514.7894 L388.4,514.2013 L398.5,514.1776 L408.6,514.6487 L418.7,514.6633 L428.8,515.4456 L438.9,515.2769 L449,515.465 L459.1,515.3275 L469.2,514.1667 L479.3,514.0503 L489.4,514.0808 L499.5,515.0137 " fill="none" style="stroke: #A80036; stroke-width: 1.0;"/><text fill="#000000" font-family="sans-serif" font-size="13" lengthAdjust="spacingAndGlyphs" textLength="28" x="102.5" y="510.582">save</text><path d="M515.5,544.6348 L515.5,544.7298 L523.9,544.6687 L532.3,544.9528 L540.7,544.7079 L549.1,544.7456 L557.5,544.6348 " fill="none" style="stroke: #A80036; stroke-width: 1.0;"/><path d="M557.5,544.6348 L557.3801,544.6348 L557.3374,547.2348 L557.5144,549.8348 L557.8046,552.4348 L557.5947,555.0348 L557.5,557.6348 " fill="none" style="stroke: #A80036; stroke-width: 1.0;"/><path d="M516.5,557.6348 L516.5,557.895 L524.7,557.318 L532.9,557.6086 L541.1,557.7593 L549.3,557.6704 L557.5,557.6348 " fill="none" style="stroke: #A80036; stroke-width: 1.0;"/><polygon fill="#A80036" points="526.5,553.6348,526.4844,553.5957,524.4335,554.2684,522.5902,555.4603,520.4473,555.9031,518.4588,556.7319,516.5,557.6348,516.554,557.7698,518.5647,558.5965,520.4662,559.1504,522.5011,560.0374,524.4669,560.752,526.5,561.6348,526.4066,561.5414,525.6038,560.7386,524.7829,559.9177,524.1114,559.2462,523.3283,558.4631,522.5,557.6348,522.6571,557.7918,523.2408,556.7756,524.0628,555.9975,525.0258,555.3605,525.785,554.5198,526.5,553.6348" style="stroke: #A80036; stroke-width: 1.0;"/><text fill="#000000" font-family="sans-serif" font-size="13" lengthAdjust="spacingAndGlyphs" textLength="68" x="522.5" y="539.8926">beforeSave</text><polygon fill="#FBFB77" filter="url(#fh6rt82)" points="383,570.6348,382.9024,570.6348,382.812,578.6348,383.1971,586.6348,383.1583,594.6348,383.0103,602.6348,383,610.6348,383,610.7051,393,610.5558,403,611.3344,413,610.3842,423,610.8831,433,611.1872,443,611.1067,453,610.4617,463,611.0491,473,610.6085,483,610.3477,493,611.3817,503,609.9679,513,611.0495,523,611.2107,533,610.044,543,610.159,553,610.5143,563,609.949,573,610.9309,583,610.3525,593,611.1977,603,609.8896,613,610.6698,623,610.6943,633,610.6348,633.2185,610.6348,633.0435,604.6348,633.2266,598.6348,633.2297,592.6348,633.2259,586.6348,633,580.6348,633.042,580.6767,630.9384,578.5731,628.9666,576.6014,627.0918,574.7265,625.1087,572.7435,623,570.6348,623,571.3337,613,570.0656,603,570.6196,593,570.4433,583,570.1799,573,571.0704,563,570.3576,553,570.7279,543,570.1398,533,570.9289,523,569.9726,513,570.9288,503,570.1839,493,570.0904,483,570.1774,473,570.5255,463,570.5722,453,571.0464,443,570.3032,433,570.7805,423,570.5517,413,570.0776,403,570.1136,393,570.3496,383,570.6348" style="stroke: #A80036; stroke-width: 1.0;"/><path d="M623,570.6348 L622.9959,570.6348 L622.7694,572.6348 L622.9832,574.6348 L623.1399,576.6348 L623.225,578.6348 L623,580.6348 " fill="#FBFB77" style="stroke: #A80036; stroke-width: 1.0;"/><path d="M633,580.6348 L633,580.6912 L631,580.3814 L629,580.5642 L627,580.4859 L625,580.7125 L623,580.6348 " fill="#FBFB77" style="stroke: #A80036; stroke-width: 1.0;"/><text fill="#000000" font-family="sans-serif" font-size="13" lengthAdjust="spacingAndGlyphs" textLength="171" x="389" y="588.2031">beforeSaveParentIdの設定と</text><text fill="#000000" font-family="sans-serif" font-size="13" lengthAdjust="spacingAndGlyphs" textLength="229" x="389" y="603.5137">DBに登録されるデータのurlエンコード</text><path d="M515.5,641.5664 L515.5,641.8083 L523.9,641.5232 L532.3,641.5291 L540.7,641.539 L549.1,641.5484 L557.5,641.5664 " fill="none" style="stroke: #A80036; stroke-width: 1.0;"/><path d="M557.5,641.5664 L557.5795,641.5664 L557.7555,644.1664 L557.3919,646.7664 L557.7578,649.3664 L557.6636,651.9664 L557.5,654.5664 " fill="none" style="stroke: #A80036; stroke-width: 1.0;"/><path d="M516.5,654.5664 L516.5,654.7472 L524.7,654.6976 L532.9,654.5827 L541.1,654.6601 L549.3,654.2647 L557.5,654.5664 " fill="none" style="stroke: #A80036; stroke-width: 1.0;"/><polygon fill="#A80036" points="526.5,650.5664,526.5133,650.5997,524.4169,651.1587,522.5885,652.3875,520.4076,652.7355,518.4942,653.7519,516.5,654.5664,516.5885,654.7876,518.5876,655.5855,520.4072,655.9344,522.4994,656.9649,524.4756,657.7055,526.5,658.5664,526.5642,658.6307,525.8713,657.9377,524.7366,656.803,524.2107,656.2771,523.3912,655.4576,522.5,654.5664,522.5835,654.6499,523.4268,653.8932,524.011,652.8774,524.8554,652.1218,525.7008,651.3672,526.5,650.5664" style="stroke: #A80036; stroke-width: 1.0;"/><text fill="#000000" font-family="sans-serif" font-size="13" lengthAdjust="spacingAndGlyphs" textLength="57" x="522.5" y="636.8242">afterSave</text><polygon fill="#FBFB77" filter="url(#fh6rt82)" points="382,667.5664,381.6622,667.5664,382.5435,677.7093,381.8159,687.8521,382.1877,697.995,382.4464,708.1378,381.9643,718.2807,382.338,728.4235,382,738.5664,382,738.0329,392.08,738.6887,402.16,737.8304,412.24,739.0509,422.32,737.8715,432.4,739.3122,442.48,738.7167,452.56,738.6489,462.64,739.0036,472.72,738.9208,482.8,739.0012,492.88,738.6612,502.96,738.4099,513.04,737.8764,523.12,739.0892,533.2,738.8268,543.28,738.6113,553.36,739.1965,563.44,739.086,573.52,738.3079,583.6,739.0698,593.68,738.7286,603.76,738.462,613.84,738.4351,623.92,738.6062,634,738.5664,634.6563,738.5664,633.9625,728.3997,633.2827,718.2331,633.8056,708.0664,634.6225,697.8997,634.4882,687.7331,634,677.5664,633.9679,677.5343,631.8804,675.4468,629.9624,673.5289,627.91,671.4764,626.0764,669.6428,624,667.5664,624,667.1905,613.9167,667.5734,603.8333,667.4418,593.75,668.2813,583.6667,667.5109,573.5833,667.3234,563.5,667.4524,553.4167,667.4331,543.3333,668.1907,533.25,667.2754,523.1667,667.6774,513.0833,667.004,503,667.7609,492.9167,667.7721,482.8333,667.8361,472.75,666.8555,462.6667,667.9223,452.5833,667.6836,442.5,666.8756,432.4167,666.9181,422.3333,667.1097,412.25,666.9512,402.1667,667.273,392.0833,668.034,382,667.5664" style="stroke: #A80036; stroke-width: 1.0;"/><path d="M624,667.5664 L623.9467,667.5664 L623.7557,669.5664 L623.8183,671.5664 L624.1858,673.5664 L623.7462,675.5664 L624,677.5664 " fill="#FBFB77" style="stroke: #A80036; stroke-width: 1.0;"/><path d="M634,677.5664 L634,677.2619 L632,677.8508 L630,677.3235 L628,677.7578 L626,677.8841 L624,677.5664 " fill="#FBFB77" style="stroke: #A80036; stroke-width: 1.0;"/><text fill="#000000" font-family="sans-serif" font-size="13" lengthAdjust="spacingAndGlyphs" textLength="171" x="388" y="685.1348">Content:updateSystemData</text><text fill="#000000" font-family="sans-serif" font-size="13" lengthAdjust="spacingAndGlyphs" textLength="150" x="388" y="700.4453">Content:updateChildren</text><text fill="#000000" font-family="sans-serif" font-size="13" lengthAdjust="spacingAndGlyphs" textLength="231" x="388" y="715.7559">Content:updateRelateSubSiteContent</text><text fill="#000000" font-family="sans-serif" font-size="13" lengthAdjust="spacingAndGlyphs" textLength="39" x="388" y="731.0664">の実行</text></g></svg>