<?xml version="1.0" encoding="UTF-8" standalone="no"?><svg xmlns="http://www.w3.org/2000/svg" xmlns:xlink="http://www.w3.org/1999/xlink" contentScriptType="application/ecmascript" contentStyleType="text/css" height="927px" preserveAspectRatio="none" style="width:752px;height:927px;" version="1.1" viewBox="0 0 752 927" width="752px" zoomAndPan="magnify"><defs><filter height="300%" id="fhgv6en" width="300%" x="-1" y="-1"><feGaussianBlur result="blurOut" stdDeviation="2.0"/><feColorMatrix in="blurOut" result="blurOut2" type="matrix" values="0 0 0 0 0 0 0 0 0 0 0 0 0 0 0 0 0 0 .4 0"/><feOffset dx="4.0" dy="4.0" in="blurOut2" result="blurOut3"/><feBlend in="SourceGraphic" in2="blurOut3" mode="normal"/></filter></defs><g><text fill="#000000" font-family="sans-serif" font-size="14" font-weight="bold" lengthAdjust="spacingAndGlyphs" textLength="154" x="300.5" y="23.5352">コンテンツフォルダ作成</text><path d="M90,68.9766 L90.8182,68.9766 L89.4238,78.9728 L90.9205,88.9691 L89.7247,98.9654 L89.3731,108.9617 L90.2006,118.958 L90.7927,128.9543 L90.845,138.9506 L89.8977,148.9468 L90.9578,158.9431 L89.623,168.9394 L89.607,178.9357 L89.497,188.932 L89.4847,198.9283 L89.3196,208.9245 L89.2868,218.9208 L90.2749,228.9171 L90.22,238.9134 L89.1932,248.9097 L90.5226,258.906 L90.7296,268.9022 L90.5886,278.8985 L90.3638,288.8948 L89.3811,298.8911 L90.0376,308.8874 L89.0945,318.8837 L89.2153,328.88 L89.6383,338.8762 L89.5687,348.8725 L90.4514,358.8688 L90.3141,368.8651 L89.7455,378.8614 L90.5458,388.8577 L89.7077,398.8539 L89.3714,408.8502 L90.9732,418.8465 L90.0153,428.8428 L90.1903,438.8391 L90.6771,448.8354 L90.4333,458.8317 L89.24,468.8279 L89.1434,478.8242 L90.9703,488.8205 L89.0789,498.8168 L89.257,508.8131 L90.1777,518.8094 L90.9377,528.8056 L90.3622,538.8019 L89.6589,548.7982 L89.0759,558.7945 L90.4412,568.7908 L90.0043,578.7871 L90.6669,588.7833 L89.1118,598.7796 L90.1767,608.7759 L89.2897,618.7722 L89.2527,628.7685 L89.8466,638.7648 L90.7537,648.7611 L89.4431,658.7573 L89.4523,668.7536 L89.3544,678.7499 L90.1579,688.7462 L90.9828,698.7425 L89.0775,708.7388 L90.0062,718.735 L90.2246,728.7313 L89.4632,738.7276 L89.7915,748.7239 L90.3091,758.7202 L90.0955,768.7165 L89.7313,778.7127 L90.9567,788.709 L89.8472,798.7053 L89.6735,808.7016 L90.7156,818.6979 L89.7916,828.6942 L89.1135,838.6905 L90.812,848.6867 L89.852,858.683 L89.1959,868.6793 L90.9488,878.6756 L90,888.6719 " fill="none" style="stroke: #A80036; stroke-width: 1.0; stroke-dasharray: 5.0,5.0;"/><path d="M241,68.9766 L241.3862,68.9766 L241.5214,78.9728 L241.106,88.9691 L240.418,98.9654 L240.4984,108.9617 L240.3334,118.958 L240.4366,128.9543 L240.2588,138.9506 L241.849,148.9468 L241.7364,158.9431 L240.5465,168.9394 L241.5262,178.9357 L240.7874,188.932 L241.2691,198.9283 L241.7344,208.9245 L241.7351,218.9208 L240.7131,228.9171 L241.7897,238.9134 L241.5246,248.9097 L241.6687,258.906 L240.3497,268.9022 L241.2272,278.8985 L241.4491,288.8948 L241.071,298.8911 L240.9515,308.8874 L241.7969,318.8837 L241.6606,328.88 L240.6854,338.8762 L241.7259,348.8725 L241.2059,358.8688 L240.0309,368.8651 L241.5265,378.8614 L241.6681,388.8577 L240.1448,398.8539 L241.3944,408.8502 L240.8875,418.8465 L241.6034,428.8428 L241.3225,438.8391 L240.2897,448.8354 L241.3908,458.8317 L241.5203,468.8279 L241.4466,478.8242 L240.9343,488.8205 L240.3755,498.8168 L241.2505,508.8131 L240.8847,518.8094 L241.233,528.8056 L240.0981,538.8019 L241.2169,548.7982 L240.2664,558.7945 L241.3805,568.7908 L240.5836,578.7871 L240.3173,588.7833 L240.9921,598.7796 L240.0583,608.7759 L240.52,618.7722 L240.0507,628.7685 L241.5108,638.7648 L240.3585,648.7611 L241.3269,658.7573 L241.7162,668.7536 L241.3176,678.7499 L241.3866,688.7462 L241.4596,698.7425 L240.9283,708.7388 L241.8859,718.735 L241.9985,728.7313 L240.1222,738.7276 L240.7904,748.7239 L240.2157,758.7202 L240.3223,768.7165 L241.8684,778.7127 L241.8564,788.709 L240.3195,798.7053 L240.597,808.7016 L240.0575,818.6979 L241.4842,828.6942 L240.8068,838.6905 L241.4249,848.6867 L241.8113,858.683 L241.3477,868.6793 L240.7449,878.6756 L241,888.6719 " fill="none" style="stroke: #A80036; stroke-width: 1.0; stroke-dasharray: 5.0,5.0;"/><path d="M418.5,68.9766 L418.296,68.9766 L419.4834,78.9728 L419.2235,88.9691 L418.6862,98.9654 L418.6798,108.9617 L418.2028,118.958 L418.2046,128.9543 L417.6467,138.9506 L418.1166,148.9468 L417.799,158.9431 L419.2192,168.9394 L417.9056,178.9357 L418.5537,188.932 L418.3364,198.9283 L419.1444,208.9245 L417.7656,218.9208 L418.6822,228.9171 L418.6072,238.9134 L417.9036,248.9097 L418.876,258.906 L419.2194,268.9022 L419.2327,278.8985 L418.7249,288.8948 L418.3614,298.8911 L417.9667,308.8874 L418.5107,318.8837 L418.2107,328.88 L418.8404,338.8762 L418.0373,348.8725 L417.8286,358.8688 L419.0323,368.8651 L419.4322,378.8614 L419.4062,388.8577 L417.8245,398.8539 L419.4119,408.8502 L417.5645,418.8465 L419.3794,428.8428 L419.0307,438.8391 L418.592,448.8354 L419.2887,458.8317 L417.7062,468.8279 L419.4772,478.8242 L418.2172,488.8205 L418.8939,498.8168 L418.8809,508.8131 L418.657,518.8094 L417.9637,528.8056 L418.8821,538.8019 L417.684,548.7982 L418.3735,558.7945 L417.8543,568.7908 L418.8267,578.7871 L418.2059,588.7833 L418.2901,598.7796 L419.481,608.7759 L418.2826,618.7722 L419.4796,628.7685 L419.4941,638.7648 L417.8341,648.7611 L418.749,658.7573 L418.4131,668.7536 L419.0653,678.7499 L418.597,688.7462 L418.7096,698.7425 L418.9728,708.7388 L418.5028,718.735 L418.6165,728.7313 L417.9826,738.7276 L417.5079,748.7239 L418.9174,758.7202 L417.7967,768.7165 L419.0091,778.7127 L417.7411,788.709 L418.1382,798.7053 L418.885,808.7016 L419.2933,818.6979 L419.2654,828.6942 L419.3084,838.6905 L417.5373,848.6867 L418.9793,858.683 L418.3952,868.6793 L419.1598,878.6756 L418.5,888.6719 " fill="none" style="stroke: #A80036; stroke-width: 1.0; stroke-dasharray: 5.0,5.0;"/><path d="M619,68.9766 L619.1421,68.9766 L619.0074,78.9728 L618.4122,88.9691 L619.4615,98.9654 L618.6765,108.9617 L619.9407,118.958 L619.1277,128.9543 L618.6244,138.9506 L619.3366,148.9468 L619.3855,158.9431 L619.2512,168.9394 L618.1235,178.9357 L618.8511,188.932 L618.951,198.9283 L619.311,208.9245 L618.2654,218.9208 L618.2334,228.9171 L618.9027,238.9134 L618.8163,248.9097 L618.8786,258.906 L619.266,268.9022 L619.0616,278.8985 L619.9802,288.8948 L619.7479,298.8911 L618.2365,308.8874 L618.0817,318.8837 L619.6428,328.88 L619.0387,338.8762 L618.354,348.8725 L618.0155,358.8688 L619.0375,368.8651 L619.5744,378.8614 L618.3769,388.8577 L619.5293,398.8539 L618.2392,408.8502 L619.1324,418.8465 L619.769,428.8428 L618.7839,438.8391 L618.0127,448.8354 L619.413,458.8317 L619.1753,468.8279 L619.8233,478.8242 L618.3467,488.8205 L619.0162,498.8168 L619.1717,508.8131 L618.3411,518.8094 L618.2182,528.8056 L618.6225,538.8019 L618.0915,548.7982 L619.8995,558.7945 L619.0716,568.7908 L619.6316,578.7871 L619.27,588.7833 L618.0747,598.7796 L619.1308,608.7759 L618.7476,618.7722 L619.2711,628.7685 L619.5854,638.7648 L618.9777,648.7611 L618.4321,658.7573 L619.5746,668.7536 L618.2314,678.7499 L618.8404,688.7462 L618.7579,698.7425 L618.8,708.7388 L619.4317,718.735 L618.7236,728.7313 L618.0019,738.7276 L618.8307,748.7239 L618.2944,758.7202 L619.8979,768.7165 L619.3032,778.7127 L618.1784,788.709 L618.4867,798.7053 L618.3312,808.7016 L618.8921,818.6979 L619.5865,828.6942 L618.6938,838.6905 L619.4008,848.6867 L619.7602,858.683 L618.2246,868.6793 L618.1655,878.6756 L619,888.6719 " fill="none" style="stroke: #A80036; stroke-width: 1.0; stroke-dasharray: 5.0,5.0;"/><polygon fill="#FEFECE" filter="url(#fhgv6en)" points="8,33.4883,8,33.2419,18.0625,33.6346,28.125,34.1334,38.1875,33.2973,48.25,33.9762,58.3125,33.7446,68.375,33.5783,78.4375,34.1331,88.5,32.9286,98.5625,33.4006,108.625,33.0124,118.6875,33.6524,128.75,33.6529,138.8125,33.5217,148.875,34.0924,158.9375,33.8164,169,33.4883,169.2257,33.4883,168.8582,39.5859,169.0644,45.6836,169.108,51.7813,169.1903,57.8789,169,63.9766,169,63.757,158.9375,64.3081,148.875,64.1882,138.8125,64.2861,128.75,63.7968,118.6875,64.6209,108.625,63.4295,98.5625,64.2786,88.5,63.9405,78.4375,64.0837,68.375,63.24,58.3125,64.5465,48.25,63.9678,38.1875,63.4733,28.125,63.2503,18.0625,64.0147,8,63.9766,8.0711,63.9766,8.1733,57.8789,8.1424,51.7813,8.241,45.6836,7.7678,39.5859,8,33.4883" style="stroke: #A80036; stroke-width: 1.5;"/><text fill="#000000" font-family="sans-serif" font-size="14" lengthAdjust="spacingAndGlyphs" textLength="147" x="15" y="54.0234">ContentFolderService</text><polygon fill="#FEFECE" filter="url(#fhgv6en)" points="8,887.6719,8,888.2215,18.0625,888.0383,28.125,888.0122,38.1875,887.7657,48.25,887.2686,58.3125,887.4536,68.375,887.8076,78.4375,888.2728,88.5,887.2802,98.5625,886.9795,108.625,887.1831,118.6875,886.9543,128.75,887.0915,138.8125,888.2187,148.875,887.0094,158.9375,887.0831,169,887.6719,168.893,887.6719,168.8998,893.7695,168.8832,899.8672,168.9927,905.9648,168.776,912.0625,169,918.1602,169,917.7127,158.9375,918.4165,148.875,918.8586,138.8125,917.9112,128.75,918.4205,118.6875,918.3097,108.625,918.6608,98.5625,917.6539,88.5,918.064,78.4375,918.6104,68.375,918.4875,58.3125,917.6775,48.25,917.4397,38.1875,917.6829,28.125,918.3165,18.0625,917.4363,8,918.1602,7.901,918.1602,7.9233,912.0625,7.9614,905.9648,8.1654,899.8672,8.1184,893.7695,8,887.6719" style="stroke: #A80036; stroke-width: 1.5;"/><text fill="#000000" font-family="sans-serif" font-size="14" lengthAdjust="spacingAndGlyphs" textLength="147" x="15" y="908.207">ContentFolderService</text><polygon fill="#FEFECE" filter="url(#fhgv6en)" points="183,33.4883,183,34.0314,193.2727,34.0678,203.5455,33.3773,213.8182,32.806,224.0909,33.5073,234.3636,33.6079,244.6364,33.6462,254.9091,32.9566,265.1818,33.3322,275.4545,33.8651,285.7273,33.0269,296,33.4883,296.1012,33.4883,296.0998,39.5859,296.1359,45.6836,295.757,51.7813,296.1883,57.8789,296,63.9766,296,63.6934,285.7273,64.5064,275.4545,64.2931,265.1818,64.1967,254.9091,63.3358,244.6364,63.7157,234.3636,64.2946,224.0909,63.9209,213.8182,63.9678,203.5455,64.1144,193.2727,63.2306,183,63.9766,183.233,63.9766,182.793,57.8789,183.1293,51.7813,182.9824,45.6836,182.7935,39.5859,183,33.4883" style="stroke: #A80036; stroke-width: 1.5;"/><text fill="#000000" font-family="sans-serif" font-size="14" lengthAdjust="spacingAndGlyphs" textLength="99" x="190" y="54.0234">ContentFolder</text><polygon fill="#FEFECE" filter="url(#fhgv6en)" points="183,887.6719,183,887.1674,193.2727,888.3749,203.5455,887.745,213.8182,886.9246,224.0909,886.9356,234.3636,887.6955,244.6364,888.233,254.9091,887.1925,265.1818,887.8986,275.4545,886.9633,285.7273,886.9617,296,887.6719,295.8116,887.6719,295.8764,893.7695,295.8864,899.8672,295.9193,905.9648,295.9132,912.0625,296,918.1602,296,917.6414,285.7273,918.1814,275.4545,918.6163,265.1818,918.2464,254.9091,917.4565,244.6364,918.6111,234.3636,918.1338,224.0909,918.4052,213.8182,917.9831,203.5455,917.6223,193.2727,918.6063,183,918.1602,183.1771,918.1602,183.0776,912.0625,182.8322,905.9648,182.7655,899.8672,183.1202,893.7695,183,887.6719" style="stroke: #A80036; stroke-width: 1.5;"/><text fill="#000000" font-family="sans-serif" font-size="14" lengthAdjust="spacingAndGlyphs" textLength="99" x="190" y="908.207">ContentFolder</text><polygon fill="#FEFECE" filter="url(#fhgv6en)" points="341.5,33.4883,341.5,33.8795,351.5,33.6356,361.5,32.809,371.5,33.1974,381.5,33.4979,391.5,33.8839,401.5,34.0349,411.5,33.5214,421.5,33.6636,431.5,33.0191,441.5,32.9171,451.5,33.3386,461.5,33.4447,471.5,33.4547,481.5,33.833,491.5,33.4883,491.746,33.4883,491.5024,39.5859,491.6147,45.6836,491.343,51.7813,491.3125,57.8789,491.5,63.9766,491.5,63.8126,481.5,64.6139,471.5,64.4895,461.5,64.0619,451.5,64.1274,441.5,63.4082,431.5,63.815,421.5,64.2864,411.5,64.4495,401.5,64.1305,391.5,63.7572,381.5,63.52,371.5,64.4634,361.5,64.2492,351.5,64.5198,341.5,63.9766,341.2988,63.9766,341.301,57.8789,341.4568,51.7813,341.463,45.6836,341.2789,39.5859,341.5,33.4883" style="stroke: #A80036; stroke-width: 1.5;"/><text fill="#000000" font-family="sans-serif" font-size="14" lengthAdjust="spacingAndGlyphs" textLength="136" x="348.5" y="54.0234">BcContentsBehavior</text><polygon fill="#FEFECE" filter="url(#fhgv6en)" points="341.5,887.6719,341.5,887.0957,351.5,887.1869,361.5,887.6001,371.5,887.3658,381.5,887.9049,391.5,888.19,401.5,887.4888,411.5,888.3574,421.5,886.9566,431.5,887.1532,441.5,887.0816,451.5,887.392,461.5,888.1948,471.5,888.1387,481.5,887.1439,491.5,887.6719,491.7299,887.6719,491.5156,893.7695,491.7412,899.8672,491.4595,905.9648,491.4359,912.0625,491.5,918.1602,491.5,918.7943,481.5,918.7843,471.5,917.4795,461.5,917.4397,451.5,918.5973,441.5,918.493,431.5,918.5473,421.5,918.3848,411.5,918.7644,401.5,918.3992,391.5,918.2022,381.5,917.9412,371.5,917.6695,361.5,918.4941,351.5,917.4996,341.5,918.1602,341.5764,918.1602,341.4131,912.0625,341.6671,905.9648,341.4851,899.8672,341.2576,893.7695,341.5,887.6719" style="stroke: #A80036; stroke-width: 1.5;"/><text fill="#000000" font-family="sans-serif" font-size="14" lengthAdjust="spacingAndGlyphs" textLength="136" x="348.5" y="908.207">BcContentsBehavior</text><polygon fill="#FEFECE" filter="url(#fhgv6en)" points="583,33.4883,583,33.9442,592.8571,33.6094,602.7143,32.9541,612.5714,32.7891,622.4286,33.228,632.2857,32.9454,642.1429,33.0077,652,33.4883,652.1767,33.4883,652.0103,39.5859,652.1706,45.6836,651.8304,51.7813,651.9683,57.8789,652,63.9766,652,63.7715,642.1429,64.3563,632.2857,63.3988,622.4286,64.4571,612.5714,64.5615,602.7143,64.1049,592.8571,64.0076,583,63.9766,583.0924,63.9766,583.0722,57.8789,582.9555,51.7813,582.7757,45.6836,582.9075,39.5859,583,33.4883" style="stroke: #A80036; stroke-width: 1.5;"/><text fill="#000000" font-family="sans-serif" font-size="14" lengthAdjust="spacingAndGlyphs" textLength="55" x="590" y="54.0234">Content</text><polygon fill="#FEFECE" filter="url(#fhgv6en)" points="583,887.6719,583,888.0142,592.8571,888.1041,602.7143,887.5432,612.5714,887.5152,622.4286,886.9675,632.2857,887.2238,642.1429,887.1781,652,887.6719,651.7592,887.6719,651.8892,893.7695,651.7903,899.8672,652.1392,905.9648,652.1681,912.0625,652,918.1602,652,918.8602,642.1429,917.6171,632.2857,917.8675,622.4286,918.0363,612.5714,918.863,602.7143,917.8738,592.8571,917.8804,583,918.1602,583.0511,918.1602,583.1169,912.0625,582.8712,905.9648,582.9069,899.8672,583.2337,893.7695,583,887.6719" style="stroke: #A80036; stroke-width: 1.5;"/><text fill="#000000" font-family="sans-serif" font-size="14" lengthAdjust="spacingAndGlyphs" textLength="55" x="590" y="908.207">Content</text><polygon fill="#A80036" points="401.5,95.9766,401.5156,96.0156,403.4682,96.6971,405.5142,97.6121,407.5648,98.5385,409.5157,99.2158,411.5,99.9766,411.5853,100.1899,409.4919,100.7564,407.4398,101.426,405.5203,102.4274,403.5251,103.2392,401.5,103.9766,401.6529,104.1294,402.3515,103.228,403.2098,102.4863,403.7559,101.4324,404.693,100.7696,405.5,99.9766,405.4974,99.974,404.7418,99.2184,403.9455,98.4221,403.1038,97.5803,402.147,96.6236,401.5,95.9766" style="stroke: #A80036; stroke-width: 1.0;"/><path d="M246.5,99.9766 L246.5,100.2705 L256.5625,100.686 L266.625,99.3414 L276.6875,99.4696 L286.75,99.1243 L296.8125,100.8611 L306.875,100.4238 L316.9375,100.055 L327,100.2538 L337.0625,99.6336 L347.125,100.38 L357.1875,99.635 L367.25,99.9106 L377.3125,99.3888 L387.375,99.0754 L397.4375,99.473 L407.5,99.9766 " fill="none" style="stroke: #A80036; stroke-width: 1.0;"/><text fill="#000000" font-family="sans-serif" font-size="13" lengthAdjust="spacingAndGlyphs" textLength="54" x="253.5" y="95.5449">initialize</text><polygon fill="#FBFB77" filter="url(#fhgv6en)" points="278,113.2871,277.9178,113.2871,278.0483,118.2871,278.1793,123.2871,278.1509,128.2871,278.1237,133.2871,278,138.2871,278,138.0759,287.8571,137.5424,297.7143,137.6939,307.5714,137.9596,317.4286,137.7481,327.2857,138.3626,337.1429,138.8897,347,137.7284,356.8571,137.5576,366.7143,138.5008,376.5714,138.9944,386.4286,138.2696,396.2857,138.1294,406.1429,137.7457,416,138.3088,425.8571,138.5525,435.7143,138.6796,445.5714,138.5922,455.4286,137.8964,465.2857,137.8235,475.1429,138.6107,485,137.9992,494.8571,138.3702,504.7143,138.8482,514.5714,137.6294,524.4286,137.8929,534.2857,138.3877,544.1429,138.1775,554,138.2871,554.1401,138.2871,554.0606,135.2871,553.9819,132.2871,553.7677,129.2871,553.7943,126.2871,554,123.2871,553.9429,123.2301,551.9519,121.239,550.0818,119.3689,547.8848,117.1719,546.0934,115.3805,544,113.2871,544,113.6716,534.1481,112.9686,524.2963,113.5712,514.4444,113.032,504.5926,113.0487,494.7407,114.0233,484.8889,113.5618,475.037,112.8314,465.1852,113.0483,455.3333,113.2904,445.4815,113.0221,435.6296,113.2923,425.7778,112.8356,415.9259,112.9139,406.0741,113.3556,396.2222,113.583,386.3704,112.5935,376.5185,113.0778,366.6667,113.4843,356.8148,112.9546,346.963,112.9619,337.1111,112.5656,327.2593,113.5609,317.4074,112.5916,307.5556,113.3023,297.7037,113.2365,287.8519,112.5625,278,113.2871" style="stroke: #A80036; stroke-width: 1.0;"/><path d="M544,113.2871 L543.918,113.2871 L544.1842,115.2871 L543.9015,117.2871 L544.1089,119.2871 L544.1627,121.2871 L544,123.2871 " fill="#FBFB77" style="stroke: #A80036; stroke-width: 1.0;"/><path d="M554,123.2871 L554,123.3213 L552,123.0702 L550,123.2034 L548,123.2048 L546,123.4566 L544,123.2871 " fill="#FBFB77" style="stroke: #A80036; stroke-width: 1.0;"/><text fill="#000000" font-family="sans-serif" font-size="13" lengthAdjust="spacingAndGlyphs" textLength="255" x="284" y="130.8555">hasOneでコンテンツをフォルダに繋ぎこむ</text><polygon fill="#FBFB77" filter="url(#fhgv6en)" points="13,152.5977,13.1409,152.5977,13.2103,157.5977,13.11,162.5977,12.9636,167.5977,13.0274,172.5977,13,177.5977,13,178.1315,23,177.9593,33,177.1164,43,178.1339,53,177.5617,63,177.0788,73,177.9366,83,177.8296,93,177.3103,103,177.1337,113,177.8287,123,178.1394,133,177.128,143,178.3368,153,178.214,163,177.5977,163.2428,177.5977,163.1358,174.5977,162.7552,171.5977,163.0064,168.5977,163.2398,165.5977,163,162.5977,162.9216,162.5193,161.1527,160.7503,159.0102,158.6079,157.1395,156.7372,154.8837,154.4814,153,152.5977,153,152.8344,143,152.7029,133,153.3193,123,152.8518,113,152.8442,103,153.004,93,152.2128,83,151.9883,73,153.007,63,152.7565,53,152.1291,43,152.3851,33,153.1459,23,153.1002,13,152.5977" style="stroke: #A80036; stroke-width: 1.0;"/><path d="M153,152.5977 L153.0398,152.5977 L152.8561,154.5977 L152.9633,156.5977 L152.938,158.5977 L152.8576,160.5977 L153,162.5977 " fill="#FBFB77" style="stroke: #A80036; stroke-width: 1.0;"/><path d="M163,162.5977 L163,162.8474 L161,162.3605 L159,162.459 L157,162.6519 L155,162.428 L153,162.5977 " fill="#FBFB77" style="stroke: #A80036; stroke-width: 1.0;"/><text fill="#000000" font-family="sans-serif" font-size="13" lengthAdjust="spacingAndGlyphs" textLength="129" x="19" y="170.166">createメソッドの実行</text><polygon fill="#A80036" points="224.5,203.9082,224.471,203.8357,226.5821,204.9135,228.4579,205.403,230.5119,206.3379,232.5822,207.3136,234.5,207.9082,234.4815,207.8619,232.567,208.8756,230.4228,209.3151,228.4202,210.1087,226.5919,211.3378,224.5,211.9082,224.5252,211.9334,225.1991,211.0073,225.9628,210.171,226.7489,209.3571,227.822,208.8302,228.5,207.9082,228.494,207.9022,227.8167,207.2249,226.8374,206.2456,225.9645,205.3727,225.2247,204.6329,224.5,203.9082" style="stroke: #A80036; stroke-width: 1.0;"/><path d="M95.5,207.9082 L95.5,208.2098 L105.1429,208.7898 L114.7857,208.1172 L124.4286,207.7954 L134.0714,207.4832 L143.7143,207.2678 L153.3571,208.8218 L163,208.4332 L172.6429,208.5603 L182.2857,208.3472 L191.9286,207.1532 L201.5714,207.2624 L211.2143,207.3209 L220.8571,208.4259 L230.5,207.9082 " fill="none" style="stroke: #A80036; stroke-width: 1.0;"/><text fill="#000000" font-family="sans-serif" font-size="13" lengthAdjust="spacingAndGlyphs" textLength="71" x="102.5" y="203.4766">patchEntity</text><polygon fill="#A80036" points="401.5,233.2188,401.528,233.2887,403.4749,233.9561,405.5314,234.8972,407.559,235.7662,409.5591,236.5664,411.5,237.2188,411.4608,237.1208,409.4497,237.893,407.5734,239.0023,405.5033,239.6269,403.5328,240.5007,401.5,241.2188,401.5239,241.2426,402.4404,240.5592,403.177,239.6957,403.7719,238.6907,404.8429,238.1617,405.5,237.2188,405.3565,237.0753,404.7087,236.4275,403.8648,235.5836,403.079,234.7977,402.4156,234.1344,401.5,233.2188" style="stroke: #A80036; stroke-width: 1.0;"/><path d="M246.5,237.2188 L246.5,237.1099 L256.5625,236.2345 L266.625,237.8473 L276.6875,237.6414 L286.75,236.9349 L296.8125,237.7995 L306.875,237.663 L316.9375,236.6863 L327,238.1145 L337.0625,237.1832 L347.125,237.0417 L357.1875,237.9382 L367.25,238.1559 L377.3125,236.2191 L387.375,236.4928 L397.4375,237.4102 L407.5,237.2188 " fill="none" style="stroke: #A80036; stroke-width: 1.0;"/><text fill="#000000" font-family="sans-serif" font-size="13" lengthAdjust="spacingAndGlyphs" textLength="89" x="253.5" y="232.7871">beforeMarshal</text><polygon fill="#FBFB77" filter="url(#fhgv6en)" points="279,250.5293,279.1827,250.5293,278.477,260.6293,279.6245,270.7293,278.8004,280.8293,279.2066,290.9293,279.5604,301.0293,279.7475,311.1293,279.1225,321.2293,278.6484,331.3293,279.0685,341.4293,279,351.5293,279,351.355,288.8214,352.0649,298.6429,351.3105,308.4643,351.4236,318.2857,351.539,328.1071,350.9026,337.9286,350.8062,347.75,352.172,357.5714,351.9694,367.3929,351.9517,377.2143,350.8472,387.0357,350.8665,396.8571,351.2021,406.6786,350.9798,416.5,351.0867,426.3214,351.2815,436.1429,351.9319,445.9643,352.2391,455.7857,352.2147,465.6071,351.0605,475.4286,350.9433,485.25,351.8042,495.0714,351.9231,504.8929,352.2709,514.7143,351.1987,524.5357,350.8505,534.3571,351.1133,544.1786,352.1805,554,351.5293,554.1912,351.5293,554.5926,341.4182,554.2279,331.3071,553.2869,321.196,553.9083,311.0849,554.338,300.9737,553.8762,290.8626,554.7467,280.7515,553.9112,270.6404,554,260.5293,553.9809,260.5102,551.9776,258.5069,549.834,256.3633,547.9076,254.4369,546.1422,252.6715,544,250.5293,544,250.7358,534.1852,250.9988,524.3704,251.1102,514.5556,249.7952,504.7407,251.1876,494.9259,251.2763,485.1111,251.0428,475.2963,249.8342,465.4815,250.3802,455.6667,250.8577,445.8519,250.4393,436.037,251.1068,426.2222,250.7435,416.4074,250.7067,406.5926,250.949,396.7778,250.0532,386.963,250.3887,377.1481,250.7675,367.3333,250.4923,357.5185,250.4504,347.7037,250.1744,337.8889,251.1718,328.0741,250.0155,318.2593,250.8921,308.4444,251.212,298.6296,250.7869,288.8148,251.1079,279,250.5293" style="stroke: #A80036; stroke-width: 1.0;"/><path d="M544,250.5293 L544.2707,250.5293 L544.0989,252.5293 L544.2707,254.5293 L544.1555,256.5293 L544.1716,258.5293 L544,260.5293 " fill="#FBFB77" style="stroke: #A80036; stroke-width: 1.0;"/><path d="M554,260.5293 L554,260.5718 L552,260.3207 L550,260.7092 L548,260.5513 L546,260.8168 L544,260.5293 " fill="#FBFB77" style="stroke: #A80036; stroke-width: 1.0;"/><text fill="#000000" font-family="sans-serif" font-size="13" lengthAdjust="spacingAndGlyphs" textLength="137" x="285" y="268.0977">' ・コンテンツの初期化</text><text fill="#000000" font-family="sans-serif" font-size="13" lengthAdjust="spacingAndGlyphs" textLength="189" x="285" y="283.4082">' ・コンテンツのバリデーション</text><text fill="#000000" font-family="sans-serif" font-size="13" lengthAdjust="spacingAndGlyphs" textLength="189" x="285" y="298.7188">' ・バリデーション結果のマージ</text><text fill="#000000" font-family="sans-serif" font-size="13" lengthAdjust="spacingAndGlyphs" textLength="254" x="285" y="314.0293">' ・バリデーション後のコンテンツのマージ</text><text fill="#000000" font-family="sans-serif" font-size="13" lengthAdjust="spacingAndGlyphs" textLength="241" x="285" y="329.3398">' ・コンテンツのバリデーションチェック</text><text fill="#000000" font-family="sans-serif" font-size="13" lengthAdjust="spacingAndGlyphs" textLength="163" x="285" y="344.6504">' ・エラーが出ていれば終了</text><polygon fill="#A80036" points="434.5,378.3926,434.4824,378.3485,432.4936,379.1765,430.4674,379.911,428.4206,380.594,426.5715,381.7714,424.5,382.3926,424.4404,382.2436,426.4691,383.1152,428.5192,384.0406,430.5127,384.8242,432.5724,385.7736,434.5,386.3926,434.4795,386.3721,433.6242,385.5168,432.947,384.8396,432.1535,384.0461,431.4233,383.3159,430.5,382.3926,430.6498,382.5424,431.3363,381.6289,432.0756,380.7682,432.8582,379.9508,433.8566,379.3492,434.5,378.3926" style="stroke: #A80036; stroke-width: 1.0;"/><path d="M428.5,382.3926 L428.5,382.9127 L438.2368,381.4184 L447.9737,382.4819 L457.7105,383.0572 L467.4474,382.5088 L477.1842,382.3959 L486.9211,382.1793 L496.6579,382.5058 L506.3947,382.7619 L516.1316,382.7483 L525.8684,383.3524 L535.6053,381.9703 L545.3421,382.3748 L555.0789,383.3876 L564.8158,382.0432 L574.5526,382.2226 L584.2895,382.6936 L594.0263,382.2472 L603.7632,382.812 L613.5,382.3926 " fill="none" style="stroke: #A80036; stroke-width: 1.0;"/><text fill="#000000" font-family="sans-serif" font-size="13" lengthAdjust="spacingAndGlyphs" textLength="61" x="440.5" y="377.9609">newEntity</text><polygon fill="#FBFB77" filter="url(#fhgv6en)" points="524,395.7031,524.1,395.7031,523.8267,403.7031,524.0214,411.7031,523.9921,419.7031,524.1454,427.7031,524,435.7031,524,435.086,533.7895,435.5481,543.5789,435.8813,553.3684,436.2394,563.1579,435.0904,572.9474,435.8391,582.7368,436.1613,592.5263,435.1772,602.3158,436.2488,612.1053,436.0826,621.8947,435.1565,631.6842,435.7813,641.4737,436.1443,651.2632,435.3048,661.0526,435.1927,670.8421,436.3013,680.6316,435.5816,690.4211,435.3925,700.2105,435.7422,710,435.7031,710.1415,435.7031,709.8865,429.7031,709.9184,423.7031,709.9359,417.7031,710.2375,411.7031,710,405.7031,710.0275,405.7306,708.1556,403.8588,705.8998,401.6029,703.9043,399.6075,701.8992,397.6024,700,395.7031,700,395.4476,690.2222,395.3618,680.4444,395.4116,670.6667,395.7294,660.8889,396.266,651.1111,396.2212,641.3333,395.5602,631.5556,395.8426,621.7778,396.1409,612,396.2445,602.2222,396.3689,592.4444,395.2171,582.6667,396.1159,572.8889,395.6888,563.1111,395.9383,553.3333,395.5068,543.5556,395.9441,533.7778,395.5524,524,395.7031" style="stroke: #A80036; stroke-width: 1.0;"/><path d="M700,395.7031 L699.945,395.7031 L699.7335,397.7031 L699.9315,399.7031 L699.8501,401.7031 L700.2917,403.7031 L700,405.7031 " fill="#FBFB77" style="stroke: #A80036; stroke-width: 1.0;"/><path d="M710,405.7031 L710,405.8239 L708,405.8237 L706,405.3807 L704,405.7593 L702,405.7047 L700,405.7031 " fill="#FBFB77" style="stroke: #A80036; stroke-width: 1.0;"/><text fill="#000000" font-family="sans-serif" font-size="13" lengthAdjust="spacingAndGlyphs" textLength="143" x="530" y="413.2715">コンテンツフォルダーの</text><text fill="#000000" font-family="sans-serif" font-size="13" lengthAdjust="spacingAndGlyphs" textLength="165" x="530" y="428.582">情報を元にnewEntityを返す</text><polygon fill="#A80036" points="257.5,462.3242,257.4968,462.3163,255.4627,463.0309,253.4082,463.6948,251.527,464.7918,249.4903,465.5001,247.5,466.3242,247.4331,466.1569,249.4141,466.9094,251.4132,467.7073,253.5402,468.8248,255.5175,469.568,257.5,470.3242,257.4942,470.3184,256.7584,469.5827,255.7767,468.6009,255.2193,468.0436,254.4251,467.2493,253.5,466.3242,253.5111,466.3353,254.1998,465.424,255.1196,464.7439,256.0528,464.077,256.8342,463.2584,257.5,462.3242" style="stroke: #A80036; stroke-width: 1.0;"/><path d="M251.5,466.3242 L251.5,467.0664 L261.5625,467.1034 L271.625,465.7839 L281.6875,466.8693 L291.75,466.9052 L301.8125,465.4134 L311.875,467.062 L321.9375,465.6059 L332,465.3977 L342.0625,465.6452 L352.125,465.9093 L362.1875,467.2412 L372.25,467.1929 L382.3125,465.5569 L392.375,466.0987 L402.4375,466.6373 L412.5,466.3242 " fill="none" style="stroke: #A80036; stroke-width: 1.0;"/><text fill="#000000" font-family="sans-serif" font-size="13" lengthAdjust="spacingAndGlyphs" textLength="143" x="263.5" y="461.8926">エラーが出ていれば終了</text><polygon fill="#A80036" points="602.5,491.6348,602.4815,491.5885,604.5193,492.483,606.4325,493.066,608.4965,494.0259,610.4643,494.7454,612.5,495.6348,612.4198,495.4342,610.5566,496.5764,608.4412,497.0876,606.5246,498.0962,604.587,499.0522,602.5,499.6348,602.6318,499.7666,603.1963,498.7311,603.9804,497.9152,604.8147,497.1494,605.701,496.4358,606.5,495.6348,606.4672,495.602,605.6618,494.7965,604.7342,493.869,604.0073,493.1421,603.2297,492.3645,602.5,491.6348" style="stroke: #A80036; stroke-width: 1.0;"/><path d="M423.5,495.6348 L423.5,496.5487 L433.2368,496.4338 L442.9737,496.3823 L452.7105,496.4399 L462.4474,495.5996 L472.1842,496.4992 L481.9211,494.737 L491.6579,495.34 L501.3947,494.919 L511.1316,496.1623 L520.8684,494.7385 L530.6053,496.2304 L540.3421,495.5194 L550.0789,496.5037 L559.8158,495.7701 L569.5526,495.246 L579.2895,496.3028 L589.0263,495.6655 L598.7632,496.3081 L608.5,495.6348 " fill="none" style="stroke: #A80036; stroke-width: 1.0;"/><text fill="#000000" font-family="sans-serif" font-size="13" lengthAdjust="spacingAndGlyphs" textLength="167" x="430.5" y="491.2031">コンテンツ側beforeMarshal</text><polygon fill="#FBFB77" filter="url(#fhgv6en)" points="529,508.9453,528.7716,508.9453,529.09,516.9453,529.0916,524.9453,529.0087,532.9453,528.9848,540.9453,529,548.9453,529,549.5038,538.8333,548.3536,548.6667,549.6686,558.5,549.5632,568.3333,548.2063,578.1667,549.3803,588,548.7557,597.8333,549.1108,607.6667,548.9189,617.5,548.8507,627.3333,549.3485,637.1667,548.3806,647,548.461,656.8333,548.6664,666.6667,548.4118,676.5,549.5287,686.3333,548.9852,696.1667,548.5617,706,548.9453,706.0123,548.9453,706.1128,542.9453,706.1402,536.9453,705.9834,530.9453,706.1147,524.9453,706,518.9453,705.8792,518.8245,703.8491,516.7945,702.1379,515.0833,700.0058,512.9511,698.0427,510.988,696,508.9453,696,509.1071,686.1765,509.1132,676.3529,509.1486,666.5294,509.5142,656.7059,509.3444,646.8824,508.9852,637.0588,508.7584,627.2353,508.7591,617.4118,508.6956,607.5882,508.7762,597.7647,509.0867,587.9412,509.1997,578.1176,508.527,568.2941,509.4253,558.4706,509.6638,548.6471,509.2431,538.8235,508.3788,529,508.9453" style="stroke: #A80036; stroke-width: 1.0;"/><path d="M696,508.9453 L696.014,508.9453 L695.9152,510.9453 L695.8293,512.9453 L695.9571,514.9453 L695.7933,516.9453 L696,518.9453 " fill="#FBFB77" style="stroke: #A80036; stroke-width: 1.0;"/><path d="M706,518.9453 L706,518.9141 L704,519.0928 L702,518.9591 L700,519.0571 L698,519.1611 L696,518.9453 " fill="#FBFB77" style="stroke: #A80036; stroke-width: 1.0;"/><text fill="#000000" font-family="sans-serif" font-size="13" lengthAdjust="spacingAndGlyphs" textLength="143" x="535" y="526.5137">コンテンツテーブル側で</text><text fill="#000000" font-family="sans-serif" font-size="13" lengthAdjust="spacingAndGlyphs" textLength="156" x="535" y="541.8242">コンテンツのセットアップ</text><path d="M624.5,579.877 L624.5,579.7176 L632.9,580.1676 L641.3,579.7175 L649.7,580.021 L658.1,580.1941 L666.5,579.877 " fill="none" style="stroke: #A80036; stroke-width: 1.0;"/><path d="M666.5,579.877 L666.6553,579.877 L666.3911,582.477 L666.8091,585.077 L666.3907,587.677 L666.2647,590.277 L666.5,592.877 " fill="none" style="stroke: #A80036; stroke-width: 1.0;"/><path d="M625.5,592.877 L625.5,593.1928 L633.7,593.03 L641.9,593.0081 L650.1,592.6378 L658.3,593.0367 L666.5,592.877 " fill="none" style="stroke: #A80036; stroke-width: 1.0;"/><polygon fill="#A80036" points="635.5,588.877,635.5236,588.936,633.4502,589.5525,631.4467,590.3437,629.5115,591.3057,627.4771,592.0198,625.5,592.877,625.5633,593.0353,627.532,593.7569,629.431,594.3045,631.5903,595.5026,633.5913,596.3051,635.5,596.877,635.4113,596.7883,634.6414,596.0183,633.9476,595.3245,633.2626,594.6395,632.253,593.63,631.5,592.877,631.6595,593.0365,632.4687,592.2457,633.1069,591.2839,633.9911,590.5681,634.8658,589.8428,635.5,588.877" style="stroke: #A80036; stroke-width: 1.0;"/><text fill="#000000" font-family="sans-serif" font-size="13" lengthAdjust="spacingAndGlyphs" textLength="78" x="631.5" y="575.1348">afterMarshal</text><polygon fill="#FBFB77" filter="url(#fhgv6en)" points="518,605.877,517.978,605.877,518.154,610.877,517.881,615.877,518.1978,620.877,517.9673,625.877,518,630.877,518,631.4481,527.9,631.1538,537.8,631.2773,547.7,630.9305,557.6,630.6242,567.5,630.7715,577.4,631.1017,587.3,630.8252,597.2,630.6086,607.1,630.6519,617,630.2179,626.9,631.4339,636.8,630.7488,646.7,631.3189,656.6,631.5527,666.5,630.6739,676.4,631.293,686.3,630.4769,696.2,631.2262,706.1,631.3143,716,630.877,716.0143,630.877,715.7849,627.877,715.872,624.877,715.8052,621.877,715.9424,618.877,716,615.877,715.944,615.821,714.0141,613.891,712.1302,612.0071,709.8814,609.7583,708.1508,608.0277,706,605.877,706,605.1796,696.1053,605.48,686.2105,605.4949,676.3158,606.0913,666.4211,606.1633,656.5263,606.4467,646.6316,606.1617,636.7368,605.5004,626.8421,606.2474,616.9474,606.0456,607.0526,605.8292,597.1579,606.318,587.2632,606.4506,577.3684,606.246,567.4737,605.1465,557.5789,605.2495,547.6842,606.1268,537.7895,605.8069,527.8947,605.4931,518,605.877" style="stroke: #A80036; stroke-width: 1.0;"/><path d="M706,605.877 L705.7635,605.877 L706.1573,607.877 L705.7326,609.877 L705.7969,611.877 L706.0817,613.877 L706,615.877 " fill="#FBFB77" style="stroke: #A80036; stroke-width: 1.0;"/><path d="M716,615.877 L716,615.7438 L714,615.9159 L712,615.8537 L710,616.0435 L708,615.7701 L706,615.877 " fill="#FBFB77" style="stroke: #A80036; stroke-width: 1.0;"/><text fill="#000000" font-family="sans-serif" font-size="13" lengthAdjust="spacingAndGlyphs" textLength="177" x="524" y="623.4453">FrozenTime形式のデータ操作</text><polygon fill="#A80036" points="602.5,657.1875,602.5762,657.3781,604.5732,658.1705,606.4757,658.7268,608.4467,659.4543,610.5212,660.4404,612.5,661.1875,612.4353,661.0258,610.567,662.1549,608.4706,662.7141,606.4711,663.5153,604.4587,664.2843,602.5,665.1875,602.4201,665.1076,603.1859,664.2734,603.9504,663.4379,604.9706,662.8581,605.5739,661.8614,606.5,661.1875,606.6049,661.2924,605.788,660.4755,605.0034,659.6909,604.1038,658.7913,603.1943,657.8818,602.5,657.1875" style="stroke: #A80036; stroke-width: 1.0;"/><path d="M95.5,661.1875 L95.5,662.0741 L105.5588,661.5992 L115.6176,661.3628 L125.6765,661.6076 L135.7353,661.1071 L145.7941,662.0425 L155.8529,660.6115 L165.9118,661.7232 L175.9706,661.0684 L186.0294,661.9656 L196.0882,661.8793 L206.1471,662.1604 L216.2059,661.8489 L226.2647,661.8983 L236.3235,660.7475 L246.3824,660.8917 L256.4412,661.0634 L266.5,660.9126 L276.5588,661.1484 L286.6176,660.6357 L296.6765,661.5078 L306.7353,661.3692 L316.7941,660.4428 L326.8529,660.2751 L336.9118,660.4251 L346.9706,660.7358 L357.0294,660.8866 L367.0882,661.3064 L377.1471,662.0495 L387.2059,660.291 L397.2647,662.0972 L407.3235,661.8884 L417.3824,660.5978 L427.4412,661.3342 L437.5,660.4131 L447.5588,661.2055 L457.6176,661.2518 L467.6765,660.5082 L477.7353,662.0182 L487.7941,660.1943 L497.8529,661.7483 L507.9118,661.0227 L517.9706,661.3602 L528.0294,661.204 L538.0882,660.9471 L548.1471,661.9285 L558.2059,660.7482 L568.2647,660.8708 L578.3235,661.1905 L588.3824,661.1478 L598.4412,661.0441 L608.5,661.1875 " fill="none" style="stroke: #A80036; stroke-width: 1.0;"/><text fill="#000000" font-family="sans-serif" font-size="13" lengthAdjust="spacingAndGlyphs" textLength="28" x="102.5" y="656.7559">save</text><path d="M624.5,690.8086 L624.5,690.873 L632.9,690.5462 L641.3,690.981 L649.7,690.7777 L658.1,690.8738 L666.5,690.8086 " fill="none" style="stroke: #A80036; stroke-width: 1.0;"/><path d="M666.5,690.8086 L666.6624,690.8086 L666.2802,693.4086 L666.4232,696.0086 L666.4654,698.6086 L666.323,701.2086 L666.5,703.8086 " fill="none" style="stroke: #A80036; stroke-width: 1.0;"/><path d="M625.5,703.8086 L625.5,703.8512 L633.7,703.771 L641.9,703.5824 L650.1,704.1227 L658.3,703.8275 L666.5,703.8086 " fill="none" style="stroke: #A80036; stroke-width: 1.0;"/><polygon fill="#A80036" points="635.5,699.8086,635.4216,699.6126,633.5364,700.6997,631.5009,701.4109,629.5586,702.355,627.4348,702.8455,625.5,703.8086,625.5256,703.8725,627.4771,704.5514,629.464,705.3186,631.4189,706.0058,633.4541,706.8938,635.5,707.8086,635.5977,707.9063,634.6763,706.9849,633.9214,706.23,633.0264,705.3349,632.3294,704.638,631.5,703.8086,631.4989,703.8075,632.3506,703.0592,632.948,702.0566,633.9577,701.4663,634.8545,700.7631,635.5,699.8086" style="stroke: #A80036; stroke-width: 1.0;"/><text fill="#000000" font-family="sans-serif" font-size="13" lengthAdjust="spacingAndGlyphs" textLength="68" x="631.5" y="686.0664">beforeSave</text><polygon fill="#FBFB77" filter="url(#fhgv6en)" points="515,716.8086,515.12,716.8086,514.8394,721.8086,515.224,726.8086,514.9118,731.8086,515.0794,736.8086,515,741.8086,515,741.8768,524.7619,742.3073,534.5238,742.0436,544.2857,741.3196,554.0476,741.8933,563.8095,742.2109,573.5714,741.7315,583.3333,741.4307,593.0952,741.8327,602.8571,741.9961,612.619,741.1627,622.381,742.3571,632.1429,742.395,641.9048,741.6935,651.6667,742.4342,661.4286,741.5015,671.1905,741.8779,680.9524,741.689,690.7143,741.3031,700.4762,741.4553,710.2381,741.8617,720,741.8086,719.8769,741.8086,719.7975,738.8086,719.778,735.8086,720.2267,732.8086,720.2065,729.8086,720,726.8086,719.9834,726.792,718.1387,724.9473,716.143,722.9516,714.0759,720.8845,712.0403,718.8489,710,716.8086,710,716.3367,700.25,717.219,690.5,716.3851,680.75,716.1248,671,716.4652,661.25,717.1351,651.5,716.2086,641.75,716.183,632,716.2881,622.25,716.9824,612.5,716.7674,602.75,717.3671,593,716.8158,583.25,717.0168,573.5,717.3754,563.75,716.1815,554,717.2152,544.25,716.2128,534.5,716.5934,524.75,716.0791,515,716.8086" style="stroke: #A80036; stroke-width: 1.0;"/><path d="M710,716.8086 L710.0839,716.8086 L709.9214,718.8086 L709.9555,720.8086 L710.1306,722.8086 L709.88,724.8086 L710,726.8086 " fill="#FBFB77" style="stroke: #A80036; stroke-width: 1.0;"/><path d="M720,726.8086 L720,726.7085 L718,726.9358 L716,726.94 L714,726.8469 L712,726.5497 L710,726.8086 " fill="#FBFB77" style="stroke: #A80036; stroke-width: 1.0;"/><text fill="#000000" font-family="sans-serif" font-size="13" lengthAdjust="spacingAndGlyphs" textLength="184" x="521" y="734.377">beforeSaveParentIdの設定など</text><path d="M624.5,772.4297 L624.5,772.6014 L632.9,772.4981 L641.3,772.4298 L649.7,772.5487 L658.1,772.1236 L666.5,772.4297 " fill="none" style="stroke: #A80036; stroke-width: 1.0;"/><path d="M666.5,772.4297 L666.4383,772.4297 L666.3657,775.0297 L666.639,777.6297 L666.4201,780.2297 L666.4838,782.8297 L666.5,785.4297 " fill="none" style="stroke: #A80036; stroke-width: 1.0;"/><path d="M625.5,785.4297 L625.5,785.2227 L633.7,785.4411 L641.9,785.7553 L650.1,785.2408 L658.3,785.5554 L666.5,785.4297 " fill="none" style="stroke: #A80036; stroke-width: 1.0;"/><polygon fill="#A80036" points="635.5,781.4297,635.4494,781.3031,633.5156,782.2687,631.4469,782.8969,629.5445,783.941,627.4413,784.4829,625.5,785.4297,625.498,785.4246,627.4493,786.103,629.5657,787.194,631.5223,787.8853,633.537,788.7222,635.5,789.4297,635.4153,789.345,634.6257,788.5554,633.7249,787.6545,633.0954,787.0251,632.3946,786.3243,631.5,785.4297,631.3923,785.322,632.3166,784.6463,632.9292,783.6588,633.7303,782.86,634.6388,782.1685,635.5,781.4297" style="stroke: #A80036; stroke-width: 1.0;"/><text fill="#000000" font-family="sans-serif" font-size="13" lengthAdjust="spacingAndGlyphs" textLength="57" x="631.5" y="767.6875">afterSave</text><polygon fill="#FBFB77" filter="url(#fhgv6en)" points="491,798.4297,491.6961,798.4297,491.3004,808.5725,491.3391,818.7154,491.0299,828.8583,491.5319,839.0011,491.1714,849.144,490.4623,859.2868,491,869.4297,491,869.395,501.08,869.9364,511.16,869.0544,521.24,868.9122,531.32,869.6868,541.4,868.7371,551.48,868.8895,561.56,868.9347,571.64,869.0611,581.72,869.4396,591.8,869.4971,601.88,868.7398,611.96,869.8329,622.04,869.8334,632.12,869.1958,642.2,869.9372,652.28,869.056,662.36,870.0314,672.44,869.5759,682.52,869.9764,692.6,870.0362,702.68,869.1395,712.76,870.0357,722.84,868.6842,732.92,870.1722,743,869.4297,743.4139,869.4297,743.27,859.263,742.7878,849.0964,743.613,838.9297,742.8073,828.763,743.5,818.5964,743,808.4297,743.1734,808.6031,740.9864,806.4161,738.9163,804.346,737.1757,802.6054,735.0246,800.4543,733,798.4297,733,798.4863,722.9167,798.8873,712.8333,798.4589,702.75,798.9745,692.6667,799.123,682.5833,799.0357,672.5,798.8612,662.4167,797.8907,652.3333,797.9612,642.25,797.8073,632.1667,797.9533,622.0833,798.9826,612,799.0277,601.9167,798.5909,591.8333,797.7187,581.75,798.3271,571.6667,799.1682,561.5833,798.4704,551.5,798.126,541.4167,797.8018,531.3333,798.589,521.25,798.7842,511.1667,798.6384,501.0833,798.9902,491,798.4297" style="stroke: #A80036; stroke-width: 1.0;"/><path d="M733,798.4297 L733.273,798.4297 L733.1616,800.4297 L732.8503,802.4297 L732.6684,804.4297 L732.8471,806.4297 L733,808.4297 " fill="#FBFB77" style="stroke: #A80036; stroke-width: 1.0;"/><path d="M743,808.4297 L743,808.2753 L741,808.7029 L739,808.5567 L737,808.1967 L735,808.5482 L733,808.4297 " fill="#FBFB77" style="stroke: #A80036; stroke-width: 1.0;"/><text fill="#000000" font-family="sans-serif" font-size="13" lengthAdjust="spacingAndGlyphs" textLength="171" x="497" y="815.998">Content:updateSystemData</text><text fill="#000000" font-family="sans-serif" font-size="13" lengthAdjust="spacingAndGlyphs" textLength="150" x="497" y="831.3086">Content:updateChildren</text><text fill="#000000" font-family="sans-serif" font-size="13" lengthAdjust="spacingAndGlyphs" textLength="231" x="497" y="846.6191">Content:updateRelateSubSiteContent</text><text fill="#000000" font-family="sans-serif" font-size="13" lengthAdjust="spacingAndGlyphs" textLength="39" x="497" y="861.9297">の実行</text></g></svg>