<?xml version="1.0" encoding="UTF-8" standalone="no"?><svg xmlns="http://www.w3.org/2000/svg" xmlns:xlink="http://www.w3.org/1999/xlink" contentScriptType="application/ecmascript" contentStyleType="text/css" height="922px" preserveAspectRatio="none" style="width:761px;height:922px;" version="1.1" viewBox="0 0 761 922" width="761px" zoomAndPan="magnify"><defs><filter height="300%" id="fnznaf5" width="300%" x="-1" y="-1"><feGaussianBlur result="blurOut" stdDeviation="2.0"/><feColorMatrix in="blurOut" result="blurOut2" type="matrix" values="0 0 0 0 0 0 0 0 0 0 0 0 0 0 0 0 0 0 .4 0"/><feOffset dx="4.0" dy="4.0" in="blurOut2" result="blurOut3"/><feBlend in="SourceGraphic" in2="blurOut3" mode="normal"/></filter></defs><g><text fill="#000000" font-family="sans-serif" font-size="14" font-weight="bold" lengthAdjust="spacingAndGlyphs" textLength="154" x="305" y="22.9951">コンテンツフォルダ作成</text><path d="M91,68.5938 L90.8058,68.5938 L91.2282,78.652 L91.7034,88.7103 L90.8261,98.7685 L90.6438,108.8268 L90.3093,118.885 L90.387,128.9433 L91.616,139.0015 L91.2016,149.0598 L90.2813,159.1181 L90.3157,169.1763 L91.2839,179.2346 L91.2543,189.2928 L91.618,199.3511 L90.9952,209.4093 L91.0459,219.4676 L91.0072,229.5258 L90.2888,239.5841 L90.2838,249.6424 L91.2145,259.7006 L91.9135,269.7589 L90.1114,279.8171 L90.4189,289.8754 L90.8449,299.9336 L90.9395,309.9919 L91.2585,320.0502 L91.6525,330.1084 L90.4758,340.1667 L91.9541,350.2249 L90.4112,360.2832 L90.6171,370.3414 L91.6124,380.3997 L91.1638,390.4579 L91.0971,400.5162 L91.2578,410.5745 L90.8633,420.6327 L90.2041,430.691 L91.7339,440.7492 L90.3209,450.8075 L91.8452,460.8657 L91.6173,470.924 L91.8182,480.9823 L90.9817,491.0405 L90.1072,501.0988 L91.0111,511.157 L91.5585,521.2153 L91.2233,531.2735 L91.4017,541.3318 L90.1861,551.39 L91.0437,561.4483 L90.0453,571.5066 L91.6458,581.5648 L91.9607,591.6231 L91.773,601.6813 L90.484,611.7396 L91.8634,621.7978 L90.2903,631.8561 L90.0423,641.9144 L91.7708,651.9726 L91.2922,662.0309 L90.592,672.0891 L90.2894,682.1474 L91.7306,692.2056 L90.6612,702.2639 L90.9316,712.3221 L91.0452,722.3804 L90.7421,732.4387 L91.4116,742.4969 L90.916,752.5552 L90.621,762.6134 L90.2354,772.6717 L91.3329,782.7299 L91.7585,792.7882 L90.082,802.8465 L91.7925,812.9047 L90.7261,822.963 L90.0415,833.0212 L91.4133,843.0795 L91.4477,853.1377 L91.7803,863.196 L91.2039,873.2542 L91,883.3125 " fill="none" style="stroke: #A80036; stroke-width: 1.0; stroke-dasharray: 5.0,5.0;"/><path d="M243,68.5938 L243.0807,68.5938 L243.7511,78.652 L243.3653,88.7103 L242.7124,98.7685 L243.4218,108.8268 L243.5611,118.885 L243.8914,128.9433 L243.2493,139.0015 L242.4704,149.0598 L242.3763,159.1181 L242.2781,169.1763 L243.0627,179.2346 L242.9272,189.2928 L242.295,199.3511 L243.3973,209.4093 L243.87,219.4676 L243.0326,229.5258 L242.4058,239.5841 L243.6248,249.6424 L242.3917,259.7006 L242.082,269.7589 L243.5714,279.8171 L242.3281,289.8754 L243.7178,299.9336 L243.2409,309.9919 L242.154,320.0502 L242.265,330.1084 L243.2661,340.1667 L242.179,350.2249 L243.2652,360.2832 L243.9371,370.3414 L243.0933,380.3997 L243.8319,390.4579 L243.5858,400.5162 L243.9598,410.5745 L243.7523,420.6327 L243.3359,430.691 L242.7084,440.7492 L243.4604,450.8075 L242.7645,460.8657 L242.8501,470.924 L242.2958,480.9823 L243.4045,491.0405 L243.0846,501.0988 L243.5854,511.157 L242.1277,521.2153 L243.5772,531.2735 L243.6854,541.3318 L243.9081,551.39 L243.3247,561.4483 L242.7096,571.5066 L243.573,581.5648 L243.866,591.6231 L243.6955,601.6813 L242.9408,611.7396 L242.1696,621.7978 L243.905,631.8561 L242.2395,641.9144 L242.4475,651.9726 L243.0564,662.0309 L242.9036,672.0891 L243.3735,682.1474 L243.6448,692.2056 L242.5737,702.2639 L243.9445,712.3221 L242.4104,722.3804 L242.8807,732.4387 L243.7044,742.4969 L243.4772,752.5552 L242.2292,762.6134 L242.9932,772.6717 L243.0448,782.7299 L242.6956,792.7882 L242.9116,802.8465 L242.4909,812.9047 L242.4745,822.963 L243.0595,833.0212 L243.4039,843.0795 L242.4422,853.1377 L243.3871,863.196 L242.9374,873.2542 L243,883.3125 " fill="none" style="stroke: #A80036; stroke-width: 1.0; stroke-dasharray: 5.0,5.0;"/><path d="M420.5,68.5938 L420.477,68.5938 L419.924,78.652 L419.527,88.7103 L420.8268,98.7685 L419.9134,108.8268 L419.5785,118.885 L421.1024,128.9433 L421.0312,139.0015 L419.9405,149.0598 L420.4696,159.1181 L419.9042,169.1763 L420.0284,179.2346 L421.46,189.2928 L420.0035,199.3511 L420.6586,209.4093 L420.0604,219.4676 L420.5894,229.5258 L421.1919,239.5841 L420.7774,249.6424 L419.7082,259.7006 L421.4354,269.7589 L420.9903,279.8171 L420.0417,289.8754 L420.3825,299.9336 L420.8622,309.9919 L419.8284,320.0502 L419.5671,330.1084 L420.7719,340.1667 L420.2953,350.2249 L419.7792,360.2832 L419.645,370.3414 L420.3333,380.3997 L419.8196,390.4579 L420.5749,400.5162 L420.2406,410.5745 L421.3899,420.6327 L421.4842,430.691 L421.3806,440.7492 L420.5516,450.8075 L419.8273,460.8657 L419.818,470.924 L419.8732,480.9823 L421.0922,491.0405 L420.7294,501.0988 L420.0903,511.157 L420.7518,521.2153 L421.2635,531.2735 L419.5954,541.3318 L420.8161,551.39 L421.318,561.4483 L421.3101,571.5066 L420.0088,581.5648 L420.4112,591.6231 L420.2145,601.6813 L419.9322,611.7396 L420.8019,621.7978 L420.744,631.8561 L420.8025,641.9144 L419.6351,651.9726 L419.8634,662.0309 L420.6087,672.0891 L420.9809,682.1474 L421.1465,692.2056 L419.7842,702.2639 L419.8641,712.3221 L420.5166,722.3804 L419.9155,732.4387 L420.5187,742.4969 L420.1331,752.5552 L421.155,762.6134 L419.8315,772.6717 L420.1563,782.7299 L420.5537,792.7882 L419.9182,802.8465 L419.8632,812.9047 L420.76,822.963 L421.0969,833.0212 L420.077,843.0795 L420.3125,853.1377 L420.0182,863.196 L421.4393,873.2542 L420.5,883.3125 " fill="none" style="stroke: #A80036; stroke-width: 1.0; stroke-dasharray: 5.0,5.0;"/><path d="M623.5,68.5938 L624.2923,68.5938 L623.816,78.652 L624.1928,88.7103 L623.2768,98.7685 L623.3772,108.8268 L623.101,118.885 L622.5147,128.9433 L623.3119,139.0015 L624.0163,149.0598 L622.8092,159.1181 L623.7847,169.1763 L622.9246,179.2346 L623.6067,189.2928 L624.4546,199.3511 L624.4843,209.4093 L622.7531,219.4676 L624.1484,229.5258 L623.7631,239.5841 L624.1818,249.6424 L624.0663,259.7006 L623.8128,269.7589 L624.2677,279.8171 L624.4406,289.8754 L623.9014,299.9336 L624.4567,309.9919 L624.0906,320.0502 L623.7918,330.1084 L623.4682,340.1667 L623.9257,350.2249 L624.3463,360.2832 L623.6303,370.3414 L623.2896,380.3997 L622.5048,390.4579 L622.5284,400.5162 L623.1254,410.5745 L622.9522,420.6327 L624.3235,430.691 L623.623,440.7492 L624.4062,450.8075 L623.1812,460.8657 L622.9135,470.924 L623.4978,480.9823 L624.389,491.0405 L623.2362,501.0988 L623.4431,511.157 L623.3646,521.2153 L622.6619,531.2735 L623.3363,541.3318 L624.413,551.39 L622.7998,561.4483 L623.8198,571.5066 L623.9833,581.5648 L622.8045,591.6231 L623.9298,601.6813 L623.5667,611.7396 L623.6378,621.7978 L622.8049,631.8561 L622.948,641.9144 L622.7569,651.9726 L623.2367,662.0309 L623.3144,672.0891 L623.1296,682.1474 L624.3446,692.2056 L622.5051,702.2639 L623.4504,712.3221 L623.945,722.3804 L622.9392,732.4387 L622.9205,742.4969 L624.2178,752.5552 L623.7457,762.6134 L623.3397,772.6717 L623.5279,782.7299 L624.4017,792.7882 L622.8072,802.8465 L623.023,812.9047 L622.5875,822.963 L623.5643,833.0212 L623.2621,843.0795 L624.1096,853.1377 L624.247,863.196 L622.7944,873.2542 L623.5,883.3125 " fill="none" style="stroke: #A80036; stroke-width: 1.0; stroke-dasharray: 5.0,5.0;"/><polygon fill="#FEFECE" filter="url(#fnznaf5)" points="8,33.2969,8,32.6529,18.1875,32.7808,28.375,32.9908,38.5625,32.5882,48.75,33.9448,58.9375,32.7634,69.125,32.5573,79.3125,32.6347,89.5,33.3562,99.6875,33.0643,109.875,33.1977,120.0625,33.4018,130.25,33.8655,140.4375,34.0208,150.625,33.1903,160.8125,33.2793,171,33.2969,170.9683,33.2969,170.9379,39.3563,170.873,45.4156,171.0574,51.475,171.2179,57.5344,171,63.5938,171,63.8275,160.8125,63.0618,150.625,63.5749,140.4375,63.1896,130.25,63.6831,120.0625,63.0032,109.875,63.5132,99.6875,63.5789,89.5,63.0034,79.3125,64.3269,69.125,63.0807,58.9375,63.8172,48.75,64.3006,38.5625,62.9345,28.375,64.2686,18.1875,63.0872,8,63.5938,7.9084,63.5938,7.8015,57.5344,8.1895,51.475,7.942,45.4156,8.1422,39.3563,8,33.2969" style="stroke: #A80036; stroke-width: 1.5;"/><text fill="#000000" font-family="sans-serif" font-size="14" lengthAdjust="spacingAndGlyphs" textLength="149" x="15" y="53.292">ContentFolderService</text><polygon fill="#FEFECE" filter="url(#fnznaf5)" points="8,882.3125,8,882.0491,18.1875,882.3052,28.375,882.1374,38.5625,881.9126,48.75,881.6225,58.9375,882.7115,69.125,882.669,79.3125,882.598,89.5,882.3633,99.6875,882.4769,109.875,882.718,120.0625,882.7665,130.25,882.5911,140.4375,882.9403,150.625,882.8534,160.8125,882.9029,171,882.3125,171.1685,882.3125,171.1898,888.3719,171.1642,894.4313,170.995,900.4906,171.2391,906.55,171,912.6094,171,913.0131,160.8125,913.3364,150.625,913.2607,140.4375,912.8602,130.25,912.2491,120.0625,912.2402,109.875,912.4631,99.6875,912.0597,89.5,912.742,79.3125,913.0656,69.125,912.3533,58.9375,913.0422,48.75,912.9504,38.5625,913.161,28.375,913.1894,18.1875,913.1268,8,912.6094,8.2285,912.6094,8.2031,906.55,8.141,900.4906,8.2258,894.4313,8.2305,888.3719,8,882.3125" style="stroke: #A80036; stroke-width: 1.5;"/><text fill="#000000" font-family="sans-serif" font-size="14" lengthAdjust="spacingAndGlyphs" textLength="149" x="15" y="902.3076">ContentFolderService</text><polygon fill="#FEFECE" filter="url(#fnznaf5)" points="185,33.2969,185,33.9813,195.2727,32.881,205.5455,33.5496,215.8182,33.6906,226.0909,33.9016,236.3636,33.2267,246.6364,32.9228,256.9091,33.2699,267.1818,33.3661,277.4545,33.7249,287.7273,33.3894,298,33.2969,297.7644,33.2969,298.0849,39.3563,298.0214,45.4156,297.7612,51.475,297.9692,57.5344,298,63.5938,298,64.1809,287.7273,64.0339,277.4545,63.2772,267.1818,63.8027,256.9091,64.0995,246.6364,63.1065,236.3636,64.1556,226.0909,64.295,215.8182,63.1433,205.5455,63.6221,195.2727,63.0825,185,63.5938,185.1293,63.5938,184.9725,57.5344,184.9181,51.475,184.8428,45.4156,185.159,39.3563,185,33.2969" style="stroke: #A80036; stroke-width: 1.5;"/><text fill="#000000" font-family="sans-serif" font-size="14" lengthAdjust="spacingAndGlyphs" textLength="99" x="192" y="53.292">ContentFolder</text><polygon fill="#FEFECE" filter="url(#fnznaf5)" points="185,882.3125,185,882.1247,195.2727,882.4267,205.5455,882.0273,215.8182,882.3358,226.0909,882.1721,236.3636,882.1001,246.6364,881.8099,256.9091,882.5658,267.1818,882.0175,277.4545,882.5571,287.7273,882.3175,298,882.3125,297.876,882.3125,297.8431,888.3719,297.849,894.4313,297.9068,900.4906,297.9127,906.55,298,912.6094,298,913.3032,287.7273,913.1714,277.4545,912.083,267.1818,912.4585,256.9091,913.1268,246.6364,912.6136,236.3636,913.1712,226.0909,912.9505,215.8182,912.4244,205.5455,912.5505,195.2727,911.8854,185,912.6094,185.1453,912.6094,184.9258,906.55,184.8575,900.4906,185.0568,894.4313,184.9763,888.3719,185,882.3125" style="stroke: #A80036; stroke-width: 1.5;"/><text fill="#000000" font-family="sans-serif" font-size="14" lengthAdjust="spacingAndGlyphs" textLength="99" x="192" y="902.3076">ContentFolder</text><polygon fill="#FEFECE" filter="url(#fnznaf5)" points="340.5,33.2969,340.5,32.8458,350.25,33.5189,360,33.8363,369.75,33.9922,379.5,33.7728,389.25,32.8552,399,32.5768,408.75,32.7725,418.5,33.2199,428.25,33.895,438,33.8959,447.75,33.7004,457.5,32.6258,467.25,32.827,477,33.6963,486.75,32.6767,496.5,33.2969,496.5871,33.2969,496.6129,39.3563,496.7043,45.4156,496.419,51.475,496.5496,57.5344,496.5,63.5938,496.5,64.1915,486.75,62.8718,477,63.9476,467.25,63.7146,457.5,64.2486,447.75,63.3486,438,63.1724,428.25,63.0543,418.5,63.3151,408.75,64.2474,399,62.9997,389.25,64.1737,379.5,64.2322,369.75,63.8963,360,63.2085,350.25,64.2557,340.5,63.5938,340.4318,63.5938,340.4736,57.5344,340.3562,51.475,340.724,45.4156,340.444,39.3563,340.5,33.2969" style="stroke: #A80036; stroke-width: 1.5;"/><text fill="#000000" font-family="sans-serif" font-size="14" lengthAdjust="spacingAndGlyphs" textLength="142" x="347.5" y="53.292">BcContentsBehavior</text><polygon fill="#FEFECE" filter="url(#fnznaf5)" points="340.5,882.3125,340.5,881.8863,350.25,882.2008,360,882.6461,369.75,882.1867,379.5,881.7888,389.25,882.9597,399,882.1907,408.75,882.4227,418.5,882.0925,428.25,883.0059,438,881.7377,447.75,882.3499,457.5,882.9422,467.25,881.7025,477,883.0341,486.75,882.9939,496.5,882.3125,496.6647,882.3125,496.3155,888.3719,496.5578,894.4313,496.3363,900.4906,496.5285,906.55,496.5,912.6094,496.5,912.7136,486.75,913.2374,477,913.2476,467.25,912.1661,457.5,912.8399,447.75,912.8382,438,911.8882,428.25,912.7431,418.5,912.9788,408.75,911.9544,399,913.2254,389.25,911.9757,379.5,913.1054,369.75,912.2058,360,913.2035,350.25,911.9185,340.5,912.6094,340.5408,912.6094,340.4451,906.55,340.7466,900.4906,340.5424,894.4313,340.5019,888.3719,340.5,882.3125" style="stroke: #A80036; stroke-width: 1.5;"/><text fill="#000000" font-family="sans-serif" font-size="14" lengthAdjust="spacingAndGlyphs" textLength="142" x="347.5" y="902.3076">BcContentsBehavior</text><polygon fill="#FEFECE" filter="url(#fnznaf5)" points="586.5,33.2969,586.5,32.9131,596.5,32.6102,606.5,33.6979,616.5,32.8128,626.5,32.9812,636.5,33.9638,646.5,33.5473,656.5,33.2969,656.5788,33.2969,656.4466,39.3563,656.4149,45.4156,656.609,51.475,656.5245,57.5344,656.5,63.5938,656.5,63.2834,646.5,63.2494,636.5,63.3266,626.5,63.1713,616.5,63.3744,606.5,64.3043,596.5,63.0966,586.5,63.5938,586.2648,63.5938,586.6407,57.5344,586.5731,51.475,586.6527,45.4156,586.4283,39.3563,586.5,33.2969" style="stroke: #A80036; stroke-width: 1.5;"/><text fill="#000000" font-family="sans-serif" font-size="14" lengthAdjust="spacingAndGlyphs" textLength="56" x="593.5" y="53.292">Content</text><polygon fill="#FEFECE" filter="url(#fnznaf5)" points="586.5,882.3125,586.5,882.4523,596.5,883.0221,606.5,882.7812,616.5,882.2949,626.5,882.9879,636.5,882.8558,646.5,882.3072,656.5,882.3125,656.4277,882.3125,656.7463,888.3719,656.3894,894.4313,656.3861,900.4906,656.3989,906.55,656.5,912.6094,656.5,911.9534,646.5,912.0862,636.5,913.1973,626.5,913.1331,616.5,912.1203,606.5,912.5117,596.5,912.4272,586.5,912.6094,586.6183,912.6094,586.6324,906.55,586.5085,900.4906,586.7217,894.4313,586.748,888.3719,586.5,882.3125" style="stroke: #A80036; stroke-width: 1.5;"/><text fill="#000000" font-family="sans-serif" font-size="14" lengthAdjust="spacingAndGlyphs" textLength="56" x="593.5" y="902.3076">Content</text><polygon fill="#A80036" points="403.5,95.5938,403.438,95.4388,405.5312,96.4716,407.4962,97.1842,409.5158,98.0333,411.5779,98.9885,413.5,99.5938,413.4296,99.4177,411.5676,100.5628,409.5588,101.3408,407.5365,102.085,405.4825,102.7501,403.5,103.5938,403.6156,103.7094,404.3935,102.8873,405.2074,102.1011,405.7767,101.0705,406.7799,100.4737,407.5,99.5938,407.6244,99.7182,406.8186,98.9123,405.7502,97.844,405.0774,97.1711,404.1782,96.272,403.5,95.5938" style="stroke: #A80036; stroke-width: 1.0;"/><path d="M248.5,99.5938 L248.5,100.3955 L258.5625,99.2024 L268.625,99.2398 L278.6875,99.9392 L288.75,99.2579 L298.8125,99.879 L308.875,99.2214 L318.9375,98.6145 L329,100.3786 L339.0625,99.2845 L349.125,99.4094 L359.1875,99.7241 L369.25,99.7814 L379.3125,98.8106 L389.375,100.2082 L399.4375,99.8371 L409.5,99.5938 " fill="none" style="stroke: #A80036; stroke-width: 1.0;"/><text fill="#000000" font-family="sans-serif" font-size="13" lengthAdjust="spacingAndGlyphs" textLength="51" x="255.5" y="94.6606">initialize</text><polygon fill="#FBFB77" filter="url(#fnznaf5)" points="279,112.7266,279.0216,112.7266,278.8801,117.7266,278.943,122.7266,279.0546,127.7266,279.1348,132.7266,279,137.7266,279,137.4104,288.9286,137.7015,298.8571,137.0529,308.7857,138.0715,318.7143,138.4725,328.6429,138.4626,338.5714,137.7125,348.5,137.2245,358.4286,137.9991,368.3571,137.5816,378.2857,138.3476,388.2143,137.2112,398.1429,138.2342,408.0714,138.3686,418,138.2803,427.9286,137.9409,437.8571,138.3676,447.7857,138.2954,457.7143,137.9659,467.6429,137.4058,477.5714,138.1274,487.5,137.6576,497.4286,137.8941,507.3571,137.5832,517.2857,137.1513,527.2143,137.8038,537.1429,137.7579,547.0714,138.1268,557,137.7266,557.2286,137.7266,557.0509,134.7266,557.2241,131.7266,556.9072,128.7266,557.2143,125.7266,557,122.7266,556.9576,122.6842,554.851,120.5776,552.9562,118.6827,550.9121,116.6386,549.0072,114.7337,547,112.7266,547,112.5165,537.0741,112.9708,527.1481,112.5094,517.2222,113.3066,507.2963,112.1477,497.3704,112.3728,487.4444,112.3542,477.5185,112.1909,467.5926,113.1142,457.6667,112.0068,447.7407,112.7284,437.8148,113.0842,427.8889,112.2615,417.963,112.0109,408.037,112.568,398.1111,112.1969,388.1852,112.3698,378.2593,112.8592,368.3333,113.0425,358.4074,112.7477,348.4815,112.1862,338.5556,113.2605,328.6296,112.1643,318.7037,113.3603,308.7778,112.9257,298.8519,112.2744,288.9259,111.997,279,112.7266" style="stroke: #A80036; stroke-width: 1.0;"/><path d="M547,112.7266 L546.8273,112.7266 L546.934,114.7266 L547.2532,116.7266 L546.7027,118.7266 L546.6756,120.7266 L547,122.7266 " fill="#FBFB77" style="stroke: #A80036; stroke-width: 1.0;"/><path d="M557,122.7266 L557,122.5106 L555,122.9656 L553,122.8199 L551,122.4218 L549,122.9762 L547,122.7266 " fill="#FBFB77" style="stroke: #A80036; stroke-width: 1.0;"/><text fill="#000000" font-family="sans-serif" font-size="13" lengthAdjust="spacingAndGlyphs" textLength="257" x="285" y="129.7935">hasOneでコンテンツをフォルダに繋ぎこむ</text><polygon fill="#FBFB77" filter="url(#fnznaf5)" points="13,151.8594,12.9156,151.8594,13.1012,156.8594,12.8725,161.8594,13.0841,166.8594,13.0015,171.8594,13,176.8594,13,176.2528,23.2,177.5945,33.4,177.2266,43.6,176.4239,53.8,176.4386,64,176.8672,74.2,177.0341,84.4,176.6299,94.6,176.1812,104.8,177.5942,115,176.7765,125.2,177.0573,135.4,176.3888,145.6,177.4475,155.8,177.474,166,176.8594,166.2489,176.8594,165.7583,173.8594,165.9035,170.8594,166.0981,167.8594,166.2123,164.8594,166,161.8594,165.9574,161.8168,164.0684,159.9278,162.0608,157.9202,159.9024,155.7618,158.0408,153.9001,156,151.8594,156,151.1938,145.7857,151.5795,135.5714,151.461,125.3571,151.2822,115.1429,151.7294,104.9286,152.4192,94.7143,151.166,84.5,152.3712,74.2857,152.2412,64.0714,151.4109,53.8571,151.3828,43.6429,151.927,33.4286,152.3251,23.2143,151.124,13,151.8594" style="stroke: #A80036; stroke-width: 1.0;"/><path d="M156,151.8594 L155.9933,151.8594 L156.1046,153.8594 L156.1824,155.8594 L156.1528,157.8594 L156.2252,159.8594 L156,161.8594 " fill="#FBFB77" style="stroke: #A80036; stroke-width: 1.0;"/><path d="M166,161.8594 L166,161.5423 L164,161.9676 L162,162.1322 L160,161.7471 L158,162.1013 L156,161.8594 " fill="#FBFB77" style="stroke: #A80036; stroke-width: 1.0;"/><text fill="#000000" font-family="sans-serif" font-size="13" lengthAdjust="spacingAndGlyphs" textLength="132" x="19" y="168.9263">createメソッドの実行</text><polygon fill="#A80036" points="226.5,202.9922,226.4596,202.8912,228.4856,203.7561,230.4151,204.3801,232.4859,205.3569,234.5412,206.2952,236.5,206.9922,236.4948,206.9793,234.4896,207.7661,232.4081,208.3624,230.4111,209.17,228.5263,210.2581,226.5,210.9922,226.628,211.1202,227.1262,210.0184,227.9513,209.2435,229.0436,208.7357,229.7667,207.8588,230.5,206.9922,230.611,207.1031,229.8744,206.3666,228.9705,205.4627,228.1649,204.6571,227.2106,203.7028,226.5,202.9922" style="stroke: #A80036; stroke-width: 1.0;"/><path d="M96.5,206.9922 L96.5,207.7821 L106.2143,207.5159 L115.9286,207.1581 L125.6429,206.8351 L135.3571,207.8257 L145.0714,207.156 L154.7857,206.5014 L164.5,207.3656 L174.2143,206.4306 L183.9286,207.6562 L193.6429,207.8893 L203.3571,206.6977 L213.0714,206.0491 L222.7857,206.4384 L232.5,206.9922 " fill="none" style="stroke: #A80036; stroke-width: 1.0;"/><text fill="#000000" font-family="sans-serif" font-size="13" lengthAdjust="spacingAndGlyphs" textLength="72" x="103.5" y="202.0591">patchEntity</text><polygon fill="#A80036" points="403.5,232.125,403.5317,232.2043,405.5459,233.0398,407.4743,233.6608,409.5402,234.6256,411.4886,235.2966,413.5,236.125,413.4139,235.9097,411.5137,236.9592,409.4082,237.4954,407.4266,238.3415,405.4204,239.1259,403.5,240.125,403.3327,239.9577,404.3421,239.3671,405.1342,238.5592,405.84,237.665,406.5507,236.7757,407.5,236.125,407.6503,236.2753,406.8036,235.4286,406.0027,234.6277,404.9869,233.6119,404.3622,232.9872,403.5,232.125" style="stroke: #A80036; stroke-width: 1.0;"/><path d="M248.5,236.125 L248.5,236.8144 L258.5625,235.7524 L268.625,235.5943 L278.6875,236.3328 L288.75,236.26 L298.8125,236.7976 L308.875,235.8403 L318.9375,236.8951 L329,236.2456 L339.0625,235.7877 L349.125,235.139 L359.1875,235.2902 L369.25,237.0258 L379.3125,235.4457 L389.375,236.9039 L399.4375,235.994 L409.5,236.125 " fill="none" style="stroke: #A80036; stroke-width: 1.0;"/><text fill="#000000" font-family="sans-serif" font-size="13" lengthAdjust="spacingAndGlyphs" textLength="91" x="255.5" y="231.1919">beforeMarshal</text><polygon fill="#FBFB77" filter="url(#fnznaf5)" points="281,249.2578,280.4568,249.2578,280.3204,259.2578,280.6584,269.2578,280.3668,279.2578,281.1441,289.2578,280.9865,299.2578,280.6157,309.2578,281.7441,319.2578,281.2861,329.2578,281.7419,339.2578,281,349.2578,281,348.6718,290.8214,348.7141,300.6429,349.4141,310.4643,349.9975,320.2857,349.2036,330.1071,348.9399,339.9286,349.7002,349.75,349.8244,359.5714,349.3522,369.3929,349.8232,379.2143,349.9809,389.0357,349.9388,398.8571,349.1196,408.6786,349.9612,418.5,349.1489,428.3214,349.4229,438.1429,349.2217,447.9643,348.854,457.7857,348.934,467.6071,349.0577,477.4286,348.897,487.25,349.5098,497.0714,348.509,506.8929,349.7761,516.7143,349.6043,526.5357,349.1128,536.3571,348.8153,546.1786,348.5531,556,349.2578,556.0322,349.2578,556.3201,339.2578,555.4701,329.2578,555.9899,319.2578,556.7329,309.2578,556.6766,299.2578,556.2317,289.2578,556.0611,279.2578,555.9397,269.2578,556,259.2578,556.1293,259.3871,554.0536,257.3114,551.9869,255.2447,550.0935,253.3513,547.8872,251.1451,546,249.2578,546,249.3935,536.1852,248.9437,526.3704,249.5736,516.5556,248.6788,506.7407,249.5486,496.9259,249.4637,487.1111,249.1574,477.2963,249.7061,467.4815,249.466,457.6667,249.0337,447.8519,249.2821,438.037,249.0282,428.2222,248.9434,418.4074,249.7353,408.5926,249.2591,398.7778,249.2421,388.963,248.9221,379.1481,249.7882,369.3333,249.717,359.5185,249.1857,349.7037,249.4049,339.8889,248.7204,330.0741,248.8589,320.2593,249.8054,310.4444,248.6629,300.6296,248.8855,290.8148,248.6345,281,249.2578" style="stroke: #A80036; stroke-width: 1.0;"/><path d="M546,249.2578 L545.7711,249.2578 L545.9854,251.2578 L545.8047,253.2578 L545.9907,255.2578 L546.3082,257.2578 L546,259.2578 " fill="#FBFB77" style="stroke: #A80036; stroke-width: 1.0;"/><path d="M556,259.2578 L556,259.2495 L554,259.3039 L552,259.486 L550,259.369 L548,259.2393 L546,259.2578 " fill="#FBFB77" style="stroke: #A80036; stroke-width: 1.0;"/><text fill="#000000" font-family="sans-serif" font-size="13" lengthAdjust="spacingAndGlyphs" textLength="137" x="287" y="266.3247">' ・コンテンツの初期化</text><text fill="#000000" font-family="sans-serif" font-size="13" lengthAdjust="spacingAndGlyphs" textLength="189" x="287" y="281.4575">' ・コンテンツのバリデーション</text><text fill="#000000" font-family="sans-serif" font-size="13" lengthAdjust="spacingAndGlyphs" textLength="189" x="287" y="296.5903">' ・バリデーション結果のマージ</text><text fill="#000000" font-family="sans-serif" font-size="13" lengthAdjust="spacingAndGlyphs" textLength="254" x="287" y="311.7231">' ・バリデーション後のコンテンツのマージ</text><text fill="#000000" font-family="sans-serif" font-size="13" lengthAdjust="spacingAndGlyphs" textLength="241" x="287" y="326.856">' ・コンテンツのバリデーションチェック</text><text fill="#000000" font-family="sans-serif" font-size="13" lengthAdjust="spacingAndGlyphs" textLength="163" x="287" y="341.9888">' ・エラーが出ていれば終了</text><polygon fill="#A80036" points="436.5,376.0547,436.5779,376.2494,434.4648,376.7667,432.4488,377.5268,430.5184,378.5007,428.5034,379.2631,426.5,380.0547,426.585,380.2672,428.5766,381.0462,430.4249,381.4669,432.5535,382.5885,434.5374,383.3483,436.5,384.0547,436.5531,384.1078,435.7429,383.2976,434.7604,382.3151,434.029,381.5837,433.462,381.0167,432.5,380.0547,432.3569,379.9116,433.1869,379.1416,434.1184,378.4731,434.9156,377.6703,435.7571,376.9118,436.5,376.0547" style="stroke: #A80036; stroke-width: 1.0;"/><path d="M430.5,380.0547 L430.5,379.2386 L440.3421,380.046 L450.1842,380.8325 L460.0263,379.2173 L469.8684,380.5955 L479.7105,380.3864 L489.5526,379.1556 L499.3947,380.3297 L509.2368,379.9281 L519.0789,380.2386 L528.9211,379.5085 L538.7632,380.4115 L548.6053,379.4381 L558.4474,379.8916 L568.2895,379.8683 L578.1316,379.3962 L587.9737,380.2265 L597.8158,379.1523 L607.6579,380.4371 L617.5,380.0547 " fill="none" style="stroke: #A80036; stroke-width: 1.0;"/><text fill="#000000" font-family="sans-serif" font-size="13" lengthAdjust="spacingAndGlyphs" textLength="61" x="442.5" y="375.1216">newEntity</text><polygon fill="#FBFB77" filter="url(#fnznaf5)" points="528,393.1875,527.8013,393.1875,528.0617,401.1875,527.9519,409.1875,528.0492,417.1875,527.8803,425.1875,528,433.1875,528,432.7916,537.7895,432.8987,547.5789,433.7218,557.3684,433.661,567.1579,433.666,576.9474,432.6719,586.7368,433.7104,596.5263,432.8406,606.3158,433.8452,616.1053,433.7583,625.8947,432.4658,635.6842,433.4255,645.4737,433.6651,655.2632,433.622,665.0526,432.628,674.8421,433.1716,684.6316,433.4381,694.4211,433.4652,704.2105,432.937,714,433.1875,714.0584,433.1875,713.9196,427.1875,713.8204,421.1875,714.0561,415.1875,713.9176,409.1875,714,403.1875,713.9012,403.0887,711.8528,401.0403,709.83,399.0175,707.8654,397.0529,706.0336,395.2211,704,393.1875,704,393.5775,694.2222,393.6203,684.4444,393.8085,674.6667,392.5584,664.8889,393.7047,655.1111,392.7504,645.3333,393.2243,635.5556,392.4907,625.7778,393.6918,616,393.3591,606.2222,393.2227,596.4444,392.5806,586.6667,393.928,576.8889,393.5332,567.1111,392.7309,557.3333,392.8205,547.5556,393.7841,537.7778,393.8517,528,393.1875" style="stroke: #A80036; stroke-width: 1.0;"/><path d="M704,393.1875 L703.8959,393.1875 L703.7417,395.1875 L703.8405,397.1875 L704.2665,399.1875 L703.8769,401.1875 L704,403.1875 " fill="#FBFB77" style="stroke: #A80036; stroke-width: 1.0;"/><path d="M714,403.1875 L714,402.8991 L712,403.4397 L710,402.9402 L708,403.0893 L706,403.1405 L704,403.1875 " fill="#FBFB77" style="stroke: #A80036; stroke-width: 1.0;"/><text fill="#000000" font-family="sans-serif" font-size="13" lengthAdjust="spacingAndGlyphs" textLength="143" x="534" y="410.2544">コンテンツフォルダーの</text><text fill="#000000" font-family="sans-serif" font-size="13" lengthAdjust="spacingAndGlyphs" textLength="165" x="534" y="425.3872">情報を元にnewEntityを返す</text><polygon fill="#A80036" points="259.5,459.4531,259.5184,459.499,257.4286,460.0747,255.4714,460.9815,253.4975,461.8468,251.572,462.833,249.5,463.4531,249.5018,463.4575,251.4521,464.1333,253.5342,465.1387,255.5894,466.0766,257.561,466.8057,259.5,467.4531,259.6003,467.5534,258.5653,466.5184,257.9981,465.9512,256.9883,464.9414,256.4277,464.3808,255.5,463.4531,255.5204,463.4735,256.2806,462.6337,256.9885,461.7416,257.94,461.0931,258.5968,460.1499,259.5,459.4531" style="stroke: #A80036; stroke-width: 1.0;"/><path d="M253.5,463.4531 L253.5,463.1371 L263.5625,463.0245 L273.625,463.3914 L283.6875,463.2649 L293.75,462.6448 L303.8125,463.2616 L313.875,463.673 L323.9375,463.1003 L334,463.9395 L344.0625,463.8001 L354.125,464.0851 L364.1875,463.851 L374.25,463.5286 L384.3125,463.8685 L394.375,463.2495 L404.4375,463.3546 L414.5,463.4531 " fill="none" style="stroke: #A80036; stroke-width: 1.0;"/><text fill="#000000" font-family="sans-serif" font-size="13" lengthAdjust="spacingAndGlyphs" textLength="143" x="265.5" y="458.52">エラーが出ていれば終了</text><polygon fill="#A80036" points="606.5,488.5859,606.4999,488.5857,608.5423,489.4917,610.5625,490.3423,612.5707,491.1627,614.5827,491.9927,616.5,492.5859,616.4706,492.5124,614.5765,493.5772,612.5867,494.4028,610.4313,494.8142,608.5345,495.8722,606.5,496.5859,606.494,496.5799,607.1324,495.6183,608.1845,495.0704,608.7295,494.0155,609.7584,493.4443,610.5,492.5859,610.5914,492.6773,609.6266,491.7126,608.9702,491.0562,608.2653,490.3512,607.2693,489.3552,606.5,488.5859" style="stroke: #A80036; stroke-width: 1.0;"/><path d="M425.5,492.5859 L425.5,492.7496 L435.3421,493.2311 L445.1842,493.5463 L455.0263,492.5206 L464.8684,491.5939 L474.7105,492.6745 L484.5526,492.4941 L494.3947,493.3564 L504.2368,491.9095 L514.0789,492.3932 L523.9211,491.7467 L533.7632,492.8265 L543.6053,492.1605 L553.4474,492.945 L563.2895,493.5152 L573.1316,492.8229 L582.9737,493.5309 L592.8158,493.5774 L602.6579,492.9775 L612.5,492.5859 " fill="none" style="stroke: #A80036; stroke-width: 1.0;"/><text fill="#000000" font-family="sans-serif" font-size="13" lengthAdjust="spacingAndGlyphs" textLength="169" x="432.5" y="487.6528">コンテンツ側beforeMarshal</text><polygon fill="#FBFB77" filter="url(#fnznaf5)" points="533,505.7188,532.8158,505.7188,532.9147,513.7188,532.7826,521.7188,532.7672,529.7188,533.0858,537.7188,533,545.7188,533,545.0591,542.8333,545.8558,552.6667,545.848,562.5,545.6111,572.3333,546.4606,582.1667,546.3893,592,545.5553,601.8333,545.6214,611.6667,545.6433,621.5,545.4429,631.3333,545.1693,641.1667,545.2561,651,545.3876,660.8333,545.7612,670.6667,545.9982,680.5,546.2487,690.3333,546.0408,700.1667,546.1949,710,545.7188,710.2034,545.7188,709.982,539.7188,709.7759,533.7188,709.857,527.7188,709.7778,521.7188,710,515.7188,709.8369,515.5557,708.1442,513.8629,705.9027,511.6214,704.123,509.8418,702.0405,507.7592,700,505.7188,700,505.2144,690.1765,506.2653,680.3529,505.02,670.5294,505.945,660.7059,506.1903,650.8824,506.4542,641.0588,505.7018,631.2353,505.5853,621.4118,506.1318,611.5882,505.3242,601.7647,505.1312,591.9412,505.2084,582.1176,505.3371,572.2941,505.9713,562.4706,505.481,552.6471,505.259,542.8235,505.6921,533,505.7188" style="stroke: #A80036; stroke-width: 1.0;"/><path d="M700,505.7188 L700.0371,505.7188 L700.2838,507.7188 L700.2446,509.7188 L700.2235,511.7188 L699.9617,513.7188 L700,515.7188 " fill="#FBFB77" style="stroke: #A80036; stroke-width: 1.0;"/><path d="M710,515.7188 L710,515.6351 L708,515.9828 L706,515.7758 L704,515.9762 L702,516.0156 L700,515.7188 " fill="#FBFB77" style="stroke: #A80036; stroke-width: 1.0;"/><text fill="#000000" font-family="sans-serif" font-size="13" lengthAdjust="spacingAndGlyphs" textLength="143" x="539" y="522.7856">コンテンツテーブル側で</text><text fill="#000000" font-family="sans-serif" font-size="13" lengthAdjust="spacingAndGlyphs" textLength="156" x="539" y="537.9185">コンテンツのセットアップ</text><path d="M628.5,576.1172 L628.5,575.9852 L636.9,576.154 L645.3,576.4229 L653.7,575.9297 L662.1,576.0595 L670.5,576.1172 " fill="none" style="stroke: #A80036; stroke-width: 1.0;"/><path d="M670.5,576.1172 L670.5631,576.1172 L670.6686,578.7172 L670.202,581.3172 L670.4132,583.9172 L670.7763,586.5172 L670.5,589.1172 " fill="none" style="stroke: #A80036; stroke-width: 1.0;"/><path d="M629.5,589.1172 L629.5,589.2988 L637.7,589.1241 L645.9,589.1548 L654.1,589.3178 L662.3,588.9056 L670.5,589.1172 " fill="none" style="stroke: #A80036; stroke-width: 1.0;"/><polygon fill="#A80036" points="639.5,585.1172,639.4852,585.0802,637.4749,585.8543,635.5105,586.7434,633.4947,587.5038,631.5042,588.3277,629.5,589.1172,629.5177,589.1615,631.5028,589.9242,633.4267,590.534,635.5246,591.5787,637.5423,592.423,639.5,593.1172,639.5779,593.1951,638.6208,592.238,638.072,591.6892,636.971,590.5882,636.231,589.8482,635.5,589.1172,635.6056,589.2228,636.4296,588.4468,636.9818,587.399,637.9985,586.8157,638.7655,585.9827,639.5,585.1172" style="stroke: #A80036; stroke-width: 1.0;"/><text fill="#000000" font-family="sans-serif" font-size="13" lengthAdjust="spacingAndGlyphs" textLength="80" x="635.5" y="571.0513">afterMarshal</text><polygon fill="#FBFB77" filter="url(#fnznaf5)" points="522,602.1172,522.1275,602.1172,522.159,607.1172,521.913,612.1172,522.1539,617.1172,522.0711,622.1172,522,627.1172,522,627.1151,531.95,627.5964,541.9,627.0687,551.85,627.4352,561.8,626.5222,571.75,627.2417,581.7,627.1536,591.65,627.0072,601.6,626.9198,611.55,627.8463,621.5,626.4597,631.45,626.4864,641.4,626.5408,651.35,627.4372,661.3,626.9073,671.25,626.5453,681.2,627.3669,691.15,626.4247,701.1,626.6558,711.05,626.4017,721,627.1172,720.9055,627.1172,721.0656,624.1172,720.8482,621.1172,720.8452,618.1172,720.9052,615.1172,721,612.1172,720.9478,612.065,718.916,610.0332,716.8976,608.0148,714.9843,606.1015,712.8668,603.984,711,602.1172,711,602.1827,701.0526,601.3856,691.1053,602.4725,681.1579,601.8511,671.2105,602.6067,661.2632,602.4537,651.3158,601.6122,641.3684,601.7206,631.4211,602.2609,621.4737,602.3302,611.5263,601.7176,601.5789,602.6864,591.6316,601.6796,581.6842,602.0907,571.7368,602.8518,561.7895,601.4272,551.8421,601.5345,541.8947,601.5182,531.9474,602.8371,522,602.1172" style="stroke: #A80036; stroke-width: 1.0;"/><path d="M711,602.1172 L711.061,602.1172 L710.712,604.1172 L710.7099,606.1172 L711.2168,608.1172 L710.7486,610.1172 L711,612.1172 " fill="#FBFB77" style="stroke: #A80036; stroke-width: 1.0;"/><path d="M721,612.1172 L721,612.3218 L719,612.3947 L717,612.0628 L715,612.1586 L713,612.1028 L711,612.1172 " fill="#FBFB77" style="stroke: #A80036; stroke-width: 1.0;"/><text fill="#000000" font-family="sans-serif" font-size="13" lengthAdjust="spacingAndGlyphs" textLength="178" x="528" y="619.1841">FrozenTime形式のデータ操作</text><polygon fill="#A80036" points="606.5,653.25,606.5196,653.2991,608.4233,653.8583,610.5712,655.028,612.5359,655.7398,614.4929,656.4322,616.5,657.25,616.468,657.17,614.4237,657.8592,612.5592,658.9981,610.4343,659.4857,608.5843,660.6607,606.5,661.25,606.4937,661.2437,607.3152,660.4652,608.0512,659.6012,608.9772,658.9272,609.806,658.156,610.5,657.25,610.5168,657.2668,609.737,656.487,608.9497,655.6997,607.9339,654.6839,607.2703,654.0203,606.5,653.25" style="stroke: #A80036; stroke-width: 1.0;"/><path d="M96.5,657.25 L96.5,656.2572 L106.4231,657.0962 L116.3462,657.71 L126.2692,657.5594 L136.1923,656.7811 L146.1154,657.1651 L156.0385,656.9654 L165.9615,658.121 L175.8846,658.0804 L185.8077,658.2491 L195.7308,657.3593 L205.6538,656.9791 L215.5769,657.1272 L225.5,656.5561 L235.4231,657.1567 L245.3462,657.7263 L255.2692,657.3611 L265.1923,656.8944 L275.1154,658.1382 L285.0385,657.0199 L294.9615,657.633 L304.8846,657.8142 L314.8077,657.075 L324.7308,656.8307 L334.6538,657.8099 L344.5769,658.2082 L354.5,657.7572 L364.4231,657.791 L374.3462,657.8659 L384.2692,656.45 L394.1923,657.2204 L404.1154,658.2495 L414.0385,656.28 L423.9615,656.9452 L433.8846,657.2784 L443.8077,656.6581 L453.7308,656.9977 L463.6538,656.7006 L473.5769,657.3776 L483.5,656.8627 L493.4231,658.0881 L503.3462,658.1885 L513.2692,657.1287 L523.1923,656.7623 L533.1154,657.5362 L543.0385,656.3889 L552.9615,656.6494 L562.8846,656.625 L572.8077,656.3595 L582.7308,657.4399 L592.6538,658.0734 L602.5769,658.1128 L612.5,657.25 " fill="none" style="stroke: #A80036; stroke-width: 1.0;"/><text fill="#000000" font-family="sans-serif" font-size="13" lengthAdjust="spacingAndGlyphs" textLength="30" x="103.5" y="652.3169">save</text><path d="M628.5,686.5156 L628.5,686.2402 L636.9,686.7008 L645.3,686.8416 L653.7,686.3557 L662.1,686.7504 L670.5,686.5156 " fill="none" style="stroke: #A80036; stroke-width: 1.0;"/><path d="M670.5,686.5156 L670.1811,686.5156 L670.2769,689.1156 L670.5398,691.7156 L670.6845,694.3156 L670.2864,696.9156 L670.5,699.5156 " fill="none" style="stroke: #A80036; stroke-width: 1.0;"/><path d="M629.5,699.5156 L629.5,699.7936 L637.7,699.458 L645.9,699.7746 L654.1,699.5767 L662.3,699.601 L670.5,699.5156 " fill="none" style="stroke: #A80036; stroke-width: 1.0;"/><polygon fill="#A80036" points="639.5,695.5156,639.5634,695.674,637.5011,696.3185,635.5913,697.3439,633.4076,697.6846,631.529,698.788,629.5,699.5156,629.456,699.4056,631.5882,700.5362,633.4328,700.9477,635.5193,701.964,637.4629,702.6229,639.5,703.5156,639.4199,703.4355,638.6393,702.6549,637.9389,701.9545,637.1333,701.1489,636.3381,700.3537,635.5,699.5156,635.3239,699.3395,636.3292,698.7448,637.1774,697.9931,637.8565,697.0721,638.6307,696.2463,639.5,695.5156" style="stroke: #A80036; stroke-width: 1.0;"/><text fill="#000000" font-family="sans-serif" font-size="13" lengthAdjust="spacingAndGlyphs" textLength="73" x="635.5" y="681.4497">beforeSave</text><polygon fill="#FBFB77" filter="url(#fnznaf5)" points="515,712.5156,515.1696,712.5156,515.2075,717.5156,515.2023,722.5156,515.0523,727.5156,514.8874,732.5156,515,737.5156,515,736.9208,525.0952,737.3525,535.1905,737.8795,545.2857,738.1735,555.381,737.5113,565.4762,736.945,575.5714,736.8293,585.6667,737.7993,595.7619,737.769,605.8571,738.0019,615.9524,736.9137,626.0476,736.8795,636.1429,737.3299,646.2381,737.477,656.3333,738.2456,666.4286,737.5703,676.5238,736.9122,686.619,736.7951,696.7143,738.1957,706.8095,737.386,716.9048,736.9324,727,737.5156,727.2125,737.5156,727.1246,734.5156,726.8393,731.5156,726.7663,728.5156,727.0278,725.5156,727,722.5156,727.0306,722.5463,725.0342,720.5499,722.8413,718.3569,721.0674,716.5831,718.9154,714.431,717,712.5156,717,712.3508,706.9,712.7007,696.8,712.6935,686.7,712.1078,676.6,712.1282,666.5,711.9725,656.4,712.3832,646.3,712.4072,636.2,712.8793,626.1,711.8127,616,711.9196,605.9,712.2528,595.8,711.9241,585.7,711.8004,575.6,712.6066,565.5,711.892,555.4,712.0206,545.3,712.5753,535.2,713.154,525.1,713.1408,515,712.5156" style="stroke: #A80036; stroke-width: 1.0;"/><path d="M717,712.5156 L716.9168,712.5156 L716.6835,714.5156 L716.9851,716.5156 L717.0006,718.5156 L716.6832,720.5156 L717,722.5156 " fill="#FBFB77" style="stroke: #A80036; stroke-width: 1.0;"/><path d="M727,722.5156 L727,722.6334 L725,722.7237 L723,722.822 L721,722.351 L719,722.3187 L717,722.5156 " fill="#FBFB77" style="stroke: #A80036; stroke-width: 1.0;"/><text fill="#000000" font-family="sans-serif" font-size="13" lengthAdjust="spacingAndGlyphs" textLength="191" x="521" y="729.5825">beforeSaveParentIdの設定など</text><path d="M628.5,767.7813 L628.5,767.5474 L636.9,767.56 L645.3,767.9014 L653.7,767.7811 L662.1,767.8061 L670.5,767.7813 " fill="none" style="stroke: #A80036; stroke-width: 1.0;"/><path d="M670.5,767.7813 L670.289,767.7813 L670.6869,770.3813 L670.5564,772.9813 L670.5691,775.5813 L670.3782,778.1813 L670.5,780.7813 " fill="none" style="stroke: #A80036; stroke-width: 1.0;"/><path d="M629.5,780.7813 L629.5,780.7757 L637.7,781.0797 L645.9,780.6999 L654.1,781.0016 L662.3,780.8313 L670.5,780.7813 " fill="none" style="stroke: #A80036; stroke-width: 1.0;"/><polygon fill="#A80036" points="639.5,776.7813,639.4619,776.6861,637.5078,777.6008,635.4805,778.3324,633.5319,779.2609,631.5757,780.1704,629.5,780.7813,629.4569,780.6735,631.4735,781.5151,633.5783,782.5769,635.438,783.0262,637.5146,784.0177,639.5,784.7813,639.484,784.7652,638.6612,783.9424,637.8659,783.1472,637.2421,782.5234,636.4575,781.7387,635.5,780.7813,635.4632,780.7445,636.1404,779.8217,636.9968,779.0781,637.7879,778.2691,638.5788,777.4601,639.5,776.7813" style="stroke: #A80036; stroke-width: 1.0;"/><text fill="#000000" font-family="sans-serif" font-size="13" lengthAdjust="spacingAndGlyphs" textLength="62" x="635.5" y="762.7153">afterSave</text><polygon fill="#FBFB77" filter="url(#fnznaf5)" points="490,793.7813,489.3383,793.7813,490.4293,803.7813,489.8597,813.7813,490.6875,823.7813,490.5882,833.7813,489.8143,843.7813,489.2805,853.7813,490,863.7813,490,863.4765,500.0769,864.1255,510.1538,864.5021,520.2308,864.2701,530.3077,863.3271,540.3846,863.5571,550.4615,863.4318,560.5385,863.9276,570.6154,863.1361,580.6923,864.4832,590.7692,863.0736,600.8462,863.0773,610.9231,863.2706,621,863.7087,631.0769,864.0606,641.1538,863.7019,651.2308,864.1666,661.3077,864.1041,671.3846,863.5114,681.4615,864.1179,691.5385,864.4557,701.6154,863.9323,711.6923,863.2655,721.7692,864.0925,731.8462,864.1666,741.9231,863.5928,752,863.7813,752.583,863.7813,752.5661,853.7813,751.2958,843.7813,752.6746,833.7813,752.1426,823.7813,751.6779,813.7813,752,803.7813,752.0043,803.7855,749.8828,801.664,747.957,799.7383,746.0752,797.8564,744.1455,795.9268,742,793.7813,742,794.3924,731.92,793.3349,721.84,794.0623,711.76,794.2565,701.68,793.6846,691.6,794.0645,681.52,793.5976,671.44,794.0155,661.36,793.509,651.28,794.4125,641.2,793.7684,631.12,794.2603,621.04,793.4229,610.96,793.8335,600.88,793.2419,590.8,793.6189,580.72,793.9147,570.64,793.9237,560.56,793.2815,550.48,794.1938,540.4,793.9356,530.32,794.4152,520.24,794.0856,510.16,794.1689,500.08,794.209,490,793.7813" style="stroke: #A80036; stroke-width: 1.0;"/><path d="M742,793.7813 L742.1335,793.7813 L742.1416,795.7813 L741.9061,797.7813 L742.2059,799.7813 L741.8573,801.7813 L742,803.7813 " fill="#FBFB77" style="stroke: #A80036; stroke-width: 1.0;"/><path d="M752,803.7813 L752,804.0921 L750,804.0988 L748,803.7704 L746,803.6216 L744,803.6648 L742,803.7813 " fill="#FBFB77" style="stroke: #A80036; stroke-width: 1.0;"/><text fill="#000000" font-family="sans-serif" font-size="13" lengthAdjust="spacingAndGlyphs" textLength="180" x="496" y="810.8481">Content:updateSystemData</text><text fill="#000000" font-family="sans-serif" font-size="13" lengthAdjust="spacingAndGlyphs" textLength="152" x="496" y="825.981">Content:updateChildren</text><text fill="#000000" font-family="sans-serif" font-size="13" lengthAdjust="spacingAndGlyphs" textLength="241" x="496" y="841.1138">Content:updateRelateSubSiteContent</text><text fill="#000000" font-family="sans-serif" font-size="13" lengthAdjust="spacingAndGlyphs" textLength="39" x="496" y="856.2466">の実行</text></g></svg>