<?xml version="1.0" encoding="UTF-8" standalone="no"?><svg xmlns="http://www.w3.org/2000/svg" xmlns:xlink="http://www.w3.org/1999/xlink" contentScriptType="application/ecmascript" contentStyleType="text/css" height="421px" preserveAspectRatio="none" style="width:289px;height:421px;" version="1.1" viewBox="0 0 289 421" width="289px" zoomAndPan="magnify"><defs><filter height="300%" id="fpdn7gk" width="300%" x="-1" y="-1"><feGaussianBlur result="blurOut" stdDeviation="2.0"/><feColorMatrix in="blurOut" result="blurOut2" type="matrix" values="0 0 0 0 0 0 0 0 0 0 0 0 0 0 0 0 0 0 .4 0"/><feOffset dx="4.0" dy="4.0" in="blurOut2" result="blurOut3"/><feBlend in="SourceGraphic" in2="blurOut3" mode="normal"/></filter></defs><g><text fill="#000000" font-family="sans-serif" font-size="18" lengthAdjust="spacingAndGlyphs" textLength="288" x="0" y="17.4023">ドメインモデル図：カスタムポスト</text><!--cluster カスタムポスト--><polygon fill="#FFFFFF" filter="url(#fpdn7gk)" points="61,94.1992,61,93.8574,71.4,94.2718,81.8,94.2682,92.2,94.8307,102.6,94.2245,113,94.8651,123.4,94.0349,133.8,94.5954,144.2,94.9372,154.6,94.6971,165,94.1992,164.8355,94.148,166.187,98.6306,167.903,103.2266,169.1656,107.6815,170.507,112.1609,172,116.6875,172,116.534,180.6,116.5632,189.2,116.8905,197.8,116.5634,206.4,116.6656,215,116.6875,215.7362,116.6875,215.607,126.7595,214.5683,136.8315,215.1897,146.9035,215.0211,156.9754,214.3677,167.0474,214.6425,177.1194,214.2518,187.1914,215.4108,197.2634,214.2665,207.3354,215.0498,217.4074,215.3022,227.4794,215.088,237.5513,214.3042,247.6233,215.2964,257.6953,214.7113,267.7673,214.4101,277.8393,214.5596,287.9113,214.6495,297.9833,215.5909,308.0552,215.5765,318.1272,215,328.1992,215,328.6651,204.7333,328.7693,194.4667,328.2922,184.2,328.0488,173.9333,328.1615,163.6667,328.3372,153.4,328.2861,143.1333,328.2003,132.8667,328.9225,122.6,327.771,112.3333,327.4859,102.0667,328.8008,91.8,328.2198,81.5333,327.5667,71.2667,327.9951,61,328.1992,61.29,328.1992,60.3328,318.0253,60.3284,307.8514,60.3789,297.6775,60.7636,287.5036,60.5744,277.3297,60.8363,267.1557,61.5728,256.9818,60.4037,246.8079,61.2821,236.634,61.6165,226.4601,61.0009,216.2862,61.7114,206.1123,60.2615,195.9383,60.4849,185.7644,61.4582,175.5905,60.5601,165.4166,60.5675,155.2427,61.1246,145.0688,60.4958,134.8949,61.6859,124.721,60.7633,114.547,60.8285,104.3731,61,94.1992" style="stroke: #000000; stroke-width: 2.0;"/><path d="M61,116.6875 L61,115.8143 L71.0909,115.789 L81.1818,116.9284 L91.2727,116.5055 L101.3636,116.7997 L111.4545,117.3353 L121.5455,116.5293 L131.6364,116.894 L141.7273,117.3156 L151.8182,117.3008 L161.9091,117.6246 L172,116.6875 " fill="#FFFFFF" style="stroke: #000000; stroke-width: 2.0;"/><text fill="#000000" font-family="sans-serif" font-size="14" font-weight="bold" lengthAdjust="spacingAndGlyphs" textLength="98" x="65" y="109.7344">カスタムポスト</text><!--class カスタムポスト--><polygon fill="#FEFECE" filter="url(#fpdn7gk)" points="77,129.1992,77,129.5639,87.1667,129.5357,97.3333,129.161,107.5,129.8555,117.6667,129.3391,127.8333,128.5532,138,129.2129,148.1667,129.7326,158.3333,129.0324,168.5,129.083,178.6667,129.8355,188.8333,129.0682,199,129.1992,198.8608,129.1992,198.916,139.3384,198.3319,149.4776,198.9032,159.6169,199.046,169.7561,199.4224,179.8953,199.3958,190.0345,198.8837,200.1737,198.3092,210.3129,198.6649,220.4521,198.705,230.5914,198.4467,240.7306,198.9126,250.8698,199.1952,261.009,198.3268,271.1482,199.4254,281.2874,199.6328,291.4266,198.427,301.5659,199,311.7051,199,312.268,188.8333,312.4401,178.6667,312.4419,168.5,311.4606,158.3333,311.099,148.1667,311.7045,138,311.1659,127.8333,311.4551,117.6667,312.4229,107.5,311.4989,97.3333,312.0539,87.1667,312.151,77,311.7051,76.7817,311.7051,76.2957,301.5659,76.2886,291.4266,76.7213,281.2874,76.7921,271.1482,76.758,261.009,76.3948,250.8698,77.6477,240.7306,76.8484,230.5914,76.537,220.4521,77.028,210.3129,77.0699,200.1737,76.5902,190.0345,76.4368,179.8953,77.7044,169.7561,77.4835,159.6169,77.2619,149.4776,77.361,139.3384,77,129.1992" style="stroke: #A80036; stroke-width: 1.5;"/><polygon fill="#ADD1B2" points="105.268,148.0967,104.6315,150.5547,103.0877,152.625,100.8131,154.4,98.7602,155.7204,95.2626,156.0506,91.9892,155.1807,89.2297,155.0168,87.1767,154.0962,86.2012,151.5946,85.4483,149.7855,84.7152,148.0078,84.3727,145.4145,84.1914,141.8494,85.0163,139.717,86.5517,138.0136,89.5748,135.9993,91.9036,134.5073,93.8262,134.0241,96.6328,134.0409,98.8942,134.2925,100.6108,135.6899,102.5514,137.5401,104.445,140.6639,105.3337,142.9226,105.2521,144.9221,105.9602,147.006" style="stroke: #A80036; stroke-width: 1.0;"/><path d="M97.1731,151.3423 Q96.5921,151.6411 95.9529,151.7905 Q95.3138,151.9399 94.6082,151.9399 Q92.1014,151.9399 90.7815,150.2881 Q89.4617,148.6362 89.4617,145.5151 Q89.4617,142.3857 90.7815,140.7339 Q92.1014,139.082 94.6082,139.082 Q95.3138,139.082 95.9612,139.2314 Q96.6087,139.3809 97.1731,139.6797 L97.1731,142.4023 Q96.5423,141.8213 95.9488,141.5515 Q95.3553,141.2817 94.7244,141.2817 Q93.3797,141.2817 92.6949,142.3484 Q92.0101,143.415 92.0101,145.5151 Q92.0101,147.6069 92.6949,148.6736 Q93.3797,149.7402 94.7244,149.7402 Q95.3553,149.7402 95.9488,149.4705 Q96.5423,149.2007 97.1731,148.6196 Z "/><text fill="#000000" font-family="sans-serif" font-size="12" lengthAdjust="spacingAndGlyphs" textLength="84" x="109.3" y="149.7344">カスタムポスト</text><path d="M78,161.1992 L78,162.1425 L88,160.9135 L98,161.2213 L108,160.624 L118,160.3633 L128,160.3114 L138,161.8781 L148,161.8181 L158,161.3538 L168,161.738 L178,161.6253 L188,161.2869 L198,161.1992 " fill="#FEFECE" style="stroke: #A80036; stroke-width: 1.5;"/><text fill="#000000" font-family="sans-serif" font-size="11" lengthAdjust="spacingAndGlyphs" textLength="110" x="83" y="175.834">カスタムコンテンツID</text><text fill="#000000" font-family="sans-serif" font-size="11" lengthAdjust="spacingAndGlyphs" textLength="17" x="83" y="188.7891">NO</text><text fill="#000000" font-family="sans-serif" font-size="11" lengthAdjust="spacingAndGlyphs" textLength="44" x="83" y="201.7441">スラッグ</text><text fill="#000000" font-family="sans-serif" font-size="11" lengthAdjust="spacingAndGlyphs" textLength="44" x="83" y="214.6992">タイトル</text><text fill="#000000" font-family="sans-serif" font-size="11" lengthAdjust="spacingAndGlyphs" textLength="44" x="83" y="227.6543">作成者ID</text><text fill="#000000" font-family="sans-serif" font-size="11" lengthAdjust="spacingAndGlyphs" textLength="44" x="83" y="240.6094">公開状態</text><text fill="#000000" font-family="sans-serif" font-size="11" lengthAdjust="spacingAndGlyphs" textLength="33" x="83" y="253.5645">投稿日</text><text fill="#000000" font-family="sans-serif" font-size="11" lengthAdjust="spacingAndGlyphs" textLength="55" x="83" y="266.5195">公開開始日</text><text fill="#000000" font-family="sans-serif" font-size="11" lengthAdjust="spacingAndGlyphs" textLength="55" x="83" y="279.4746">公開終了日</text><text fill="#000000" font-family="sans-serif" font-size="11" lengthAdjust="spacingAndGlyphs" textLength="110" x="83" y="292.4297">サイト内検索より除外</text><text fill="#000000" font-family="sans-serif" font-size="11" lengthAdjust="spacingAndGlyphs" textLength="66" x="83" y="305.3848">アイキャッチ</text><!--class カスタムコンテンツ--><polygon fill="#FEFECE" filter="url(#fpdn7gk)" points="68,29.1992,68,29.3915,78,29.4112,88,28.6635,98,29.853,108,29.3106,118,29.2842,128,29.1951,138,29.2027,148,29.114,158,29.106,168,28.8579,178,29.2365,188,28.4721,198,28.7657,208,29.1992,208.1213,29.1992,207.9837,37.1992,207.9486,45.1992,208.2109,53.1992,208.1784,61.1992,208,69.1992,208,69.15,198,69.097,188,69.3678,178,68.5896,168,69.673,158,68.9647,148,68.7099,138,69.2662,128,69.6609,118,69.6763,108,69.1304,98,68.8722,88,69.5896,78,68.7898,68,69.1992,67.9722,69.1992,67.779,61.1992,67.9538,53.1992,68.223,45.1992,67.9343,37.1992,68,29.1992" style="stroke: #A80036; stroke-width: 1.5;"/><polygon fill="#ADD1B2" points="94.0248,47.9314,92.1865,49.9442,90.6399,52.7542,88.2158,55.1752,84.9316,56.229,81.2058,55.9891,79.1173,55.0275,75.8543,53.5247,74.2451,51.61,72.9672,48.4992,71.9927,45.727,71.657,42.8987,73.4742,40.9302,74.3404,38.6637,75.8159,36.1907,78.6239,35.8002,80.965,33.8864,83.0271,34.2827,85.4101,33.9678,87.9785,36.156,90.1811,37.3223,92.0766,39.7096,93.3785,42.5319,94.383,44.5743,93.642,47.3855" style="stroke: #A80036; stroke-width: 1.0;"/><path d="M85.4731,51.3423 Q84.8921,51.6411 84.2529,51.7905 Q83.6138,51.9399 82.9082,51.9399 Q80.4014,51.9399 79.0815,50.2881 Q77.7617,48.6362 77.7617,45.5151 Q77.7617,42.3857 79.0815,40.7339 Q80.4014,39.082 82.9082,39.082 Q83.6138,39.082 84.2612,39.2314 Q84.9087,39.3809 85.4731,39.6797 L85.4731,42.4023 Q84.8423,41.8213 84.2488,41.5515 Q83.6553,41.2817 83.0244,41.2817 Q81.6797,41.2817 80.9949,42.3484 Q80.3101,43.415 80.3101,45.5151 Q80.3101,47.6069 80.9949,48.6736 Q81.6797,49.7402 83.0244,49.7402 Q83.6553,49.7402 84.2488,49.4705 Q84.8423,49.2007 85.4731,48.6196 Z "/><text fill="#000000" font-family="sans-serif" font-size="12" lengthAdjust="spacingAndGlyphs" textLength="108" x="97" y="49.7344">カスタムコンテンツ</text><path d="M69,61.1992 L69,61.8025 L78.8571,61.4337 L88.7143,60.6401 L98.5714,62.0653 L108.4286,60.8663 L118.2857,61.1958 L128.1429,60.7179 L138,60.4477 L147.8571,60.5727 L157.7143,61.0076 L167.5714,61.1686 L177.4286,61.4732 L187.2857,60.8059 L197.1429,61.0964 L207,61.1992 " fill="#FEFECE" style="stroke: #A80036; stroke-width: 1.5;"/><!--class カスタムカテゴリ--><polygon fill="#FEFECE" filter="url(#fpdn7gk)" points="74,372.1992,74,372.7737,83.8462,372.1684,93.6923,372.7908,103.5385,371.5005,113.3846,371.7495,123.2308,371.5379,133.0769,372.773,142.9231,372.8239,152.7692,372.3822,162.6154,371.7758,172.4615,372.4745,182.3077,372.3841,192.1538,372.1805,202,372.1992,201.7673,372.1992,202.1898,380.1992,202.0656,388.1992,202.0491,396.1992,202.1143,404.1992,202,412.1992,202,412.4398,192.1538,412.2764,182.3077,412.1929,172.4615,412.5002,162.6154,412.8865,152.7692,412.7919,142.9231,411.6215,133.0769,412.0995,123.2308,412.8942,113.3846,412.6178,103.5385,412.1389,93.6923,412.3757,83.8462,411.7408,74,412.1992,73.8434,412.1992,73.9653,404.1992,73.9929,396.1992,73.9979,388.1992,73.8137,380.1992,74,372.1992" style="stroke: #A80036; stroke-width: 1.5;"/><polygon fill="#ADD1B2" points="99.111,390.7163,98.7093,394.1248,96.8493,395.9623,94.6944,396.8678,92.1262,398.1912,88.86,398.7613,85.557,398.8566,83.635,397.9152,81.9077,395.6857,79.5889,393.8833,78.5141,390.6332,77.6914,388.2801,78.3111,385.3623,79.6242,383.5326,80.9241,381.1465,83.1326,379.3557,85.5921,377.9575,88.8801,376.6559,91.562,376.994,93.6402,378.0501,95.993,378.9379,97.4038,381.9291,99.0449,383.6593,100.47,386.7973,99.7074,389.4908" style="stroke: #A80036; stroke-width: 1.0;"/><path d="M91.4731,394.3423 Q90.8921,394.6411 90.2529,394.7905 Q89.6138,394.9399 88.9082,394.9399 Q86.4014,394.9399 85.0815,393.2881 Q83.7617,391.6362 83.7617,388.5151 Q83.7617,385.3857 85.0815,383.7339 Q86.4014,382.082 88.9082,382.082 Q89.6138,382.082 90.2612,382.2314 Q90.9087,382.3809 91.4731,382.6797 L91.4731,385.4023 Q90.8423,384.8213 90.2488,384.5515 Q89.6553,384.2817 89.0244,384.2817 Q87.6797,384.2817 86.9949,385.3484 Q86.3101,386.415 86.3101,388.5151 Q86.3101,390.6069 86.9949,391.6736 Q87.6797,392.7402 89.0244,392.7402 Q89.6553,392.7402 90.2488,392.4705 Q90.8423,392.2007 91.4731,391.6196 Z "/><text fill="#000000" font-family="sans-serif" font-size="12" lengthAdjust="spacingAndGlyphs" textLength="96" x="103" y="392.7344">カスタムカテゴリ</text><path d="M75,404.1992 L75,404.0859 L84.6923,403.2584 L94.3846,403.9347 L104.0769,403.5057 L113.7692,404.2547 L123.4615,404.5567 L133.1538,403.5333 L142.8462,404.5503 L152.5385,404.1057 L162.2308,404.1551 L171.9231,404.1086 L181.6154,403.3867 L191.3077,403.29 L201,404.1992 " fill="#FEFECE" style="stroke: #A80036; stroke-width: 1.5;"/><path d="M138,69.3092 L137.4896,69.3092 L138.7838,79.2442 L137.8076,89.1792 L137.5526,99.1142 L137.1476,109.0492 L138.9484,118.9842 L138,128.9192 " fill="none" style="stroke: #A80036; stroke-width: 1.0;"/><text fill="#000000" font-family="sans-serif" font-size="13" lengthAdjust="spacingAndGlyphs" textLength="8" x="128.875" y="89.6866">1</text><text fill="#000000" font-family="sans-serif" font-size="13" lengthAdjust="spacingAndGlyphs" textLength="22" x="115.1234" y="118.6083">0..*</text><path d="M138,312.3992 L137.6615,312.3992 L137.2542,322.3609 L138.4597,332.3226 L138.8074,342.2842 L137.6661,352.2459 L138.6697,362.2076 L138,372.1692 " fill="none" style="stroke: #A80036; stroke-width: 1.0;"/><text fill="#000000" font-family="sans-serif" font-size="13" lengthAdjust="spacingAndGlyphs" textLength="22" x="115.1922" y="332.2821">0..*</text><text fill="#000000" font-family="sans-serif" font-size="13" lengthAdjust="spacingAndGlyphs" textLength="8" x="128.775" y="361.3541">1</text></g></svg>