<?xml version="1.0" encoding="UTF-8" standalone="no"?><svg xmlns="http://www.w3.org/2000/svg" xmlns:xlink="http://www.w3.org/1999/xlink" contentScriptType="application/ecmascript" contentStyleType="text/css" height="416px" preserveAspectRatio="none" style="width:231px;height:416px;" version="1.1" viewBox="0 0 231 416" width="231px" zoomAndPan="magnify"><defs><filter height="300%" id="fmzuat1" width="300%" x="-1" y="-1"><feGaussianBlur result="blurOut" stdDeviation="2.0"/><feColorMatrix in="blurOut" result="blurOut2" type="matrix" values="0 0 0 0 0 0 0 0 0 0 0 0 0 0 0 0 0 0 .4 0"/><feOffset dx="4.0" dy="4.0" in="blurOut2" result="blurOut3"/><feBlend in="SourceGraphic" in2="blurOut3" mode="normal"/></filter></defs><g><text fill="#000000" font-family="sans-serif" font-size="18" lengthAdjust="spacingAndGlyphs" textLength="171" x="34.5" y="17.4023">コンテンツリンクAPI</text><!--class Api\ContentLinksController--><polygon fill="#FEFECE" filter="url(#fmzuat1)" points="34,129.1992,34,128.677,44,128.5314,54,129.471,64,128.7268,74,128.5108,84,128.5929,94,129.6297,104,129.1116,114,129.4307,124,129.7322,134,129.2526,144,129.5557,154,129.0759,164,129.1174,174,129.7653,184,129.2891,194,129.1992,193.8557,129.1992,193.8366,139.4162,194.4756,149.6332,194.7393,159.8503,193.5428,170.0673,194.2433,180.2843,193.6575,190.5013,193.8625,200.7183,194.179,210.9353,194,221.1523,194,221.1505,184,221.0771,174,221.8807,164,221.194,154,221.4941,144,221.8541,134,221.5585,124,220.6302,114,221.8993,104,220.6957,94,221.1507,84,221.1722,74,221.0282,64,221.4454,54,221.5528,44,221.7648,34,221.1523,33.9886,221.1523,33.3712,210.9353,33.7751,200.7183,34.189,190.5013,33.2809,180.2843,33.5179,170.0673,34.0079,159.8503,34.4218,149.6332,34.2681,139.4162,34,129.1992" style="stroke: #A80036; stroke-width: 1.5;"/><text fill="#000000" font-family="sans-serif" font-size="12" lengthAdjust="spacingAndGlyphs" textLength="154" x="37" y="145.8008">Api\ContentLinksController</text><path d="M35,153.332 L35,152.3941 L44.875,154.3288 L54.75,153.284 L64.625,153.3313 L74.5,152.3685 L84.375,152.9895 L94.25,153.156 L104.125,152.7424 L114,152.7748 L123.875,152.7447 L133.75,153.5184 L143.625,153.3253 L153.5,152.4873 L163.375,153.8546 L173.25,154.0496 L183.125,154.0782 L193,153.332 " fill="#FEFECE" style="stroke: #A80036; stroke-width: 1.5;"/><path d="M35,161.332 L35,161.1464 L44.875,160.8006 L54.75,161.7043 L64.625,161.0609 L74.5,160.3519 L84.375,160.3485 L94.25,162.3229 L104.125,161.7815 L114,160.8221 L123.875,161.9289 L133.75,161.4795 L143.625,160.6017 L153.5,160.9594 L163.375,161.5667 L173.25,160.76 L183.125,160.9509 L193,161.332 " fill="#FEFECE" style="stroke: #A80036; stroke-width: 1.5;"/><text fill="#000000" font-family="sans-serif" font-size="11" lengthAdjust="spacingAndGlyphs" textLength="128" x="40" y="175.9668">+単一データ取得：view()</text><text fill="#000000" font-family="sans-serif" font-size="11" lengthAdjust="spacingAndGlyphs" textLength="70" x="40" y="188.9219">+追加：add()</text><text fill="#000000" font-family="sans-serif" font-size="11" lengthAdjust="spacingAndGlyphs" textLength="70" x="40" y="201.877">+編集：edit()</text><text fill="#000000" font-family="sans-serif" font-size="11" lengthAdjust="spacingAndGlyphs" textLength="104" x="40" y="214.832">+物理削除：delete()</text><!--class BcApiController--><polygon fill="#FEFECE" filter="url(#fmzuat1)" points="67,29.1992,67,28.9991,77.4444,29.6101,87.8889,29.5599,98.3333,28.5901,108.7778,28.5286,119.2222,29.4329,129.6667,29.5839,140.1111,28.7074,150.5556,29.5244,161,29.1992,160.9358,29.1992,160.8564,37.2258,160.9407,45.2523,160.8144,53.2789,161.0041,61.3055,161,69.332,161,69.7055,150.5556,69.1165,140.1111,69.2091,129.6667,68.9897,119.2222,68.8931,108.7778,69.7573,98.3333,69.6907,87.8889,68.8093,77.4444,69.7271,67,69.332,66.9826,69.332,66.8361,61.3055,67.2206,53.2789,67.1247,45.2523,67.0676,37.2258,67,29.1992" style="stroke: #A80036; stroke-width: 1.5;"/><text fill="#000000" font-family="sans-serif" font-size="12" lengthAdjust="spacingAndGlyphs" textLength="88" x="70" y="45.8008">BcApiController</text><path d="M68,53.332 L68,53.1587 L78.2222,53.3567 L88.4444,53.2917 L98.6667,53.4783 L108.8889,54.2561 L119.1111,52.5707 L129.3333,52.7523 L139.5556,53.335 L149.7778,53.8493 L160,53.332 " fill="#FEFECE" style="stroke: #A80036; stroke-width: 1.5;"/><path d="M68,61.332 L68,60.8546 L78.2222,61.8812 L88.4444,60.3947 L98.6667,61.4601 L108.8889,60.7284 L119.1111,61.261 L129.3333,60.4443 L139.5556,61.9411 L149.7778,60.6346 L160,61.332 " fill="#FEFECE" style="stroke: #A80036; stroke-width: 1.5;"/><!--class ContentLinksService--><polygon fill="#FEFECE" filter="url(#fmzuat1)" points="54.5,281.1992,54.5,280.9116,64.4167,281.889,74.3333,280.6502,84.25,281.9216,94.1667,280.622,104.0833,280.9335,114,281.323,123.9167,281.5802,133.8333,281.1049,143.75,281.9033,153.6667,281.7652,163.5833,280.526,173.5,281.1992,173.7427,281.1992,173.3502,289.2258,173.4137,297.2523,173.3502,305.2789,173.2617,313.3055,173.5,321.332,173.5,321.1911,163.5833,321.4306,153.6667,321.6622,143.75,321.8219,133.8333,321.9888,123.9167,321.2381,114,321.0035,104.0833,321.2826,94.1667,320.8234,84.25,321.2,74.3333,321.0412,64.4167,321.9981,54.5,321.332,54.7386,321.332,54.2895,313.3055,54.2556,305.2789,54.2673,297.2523,54.6697,289.2258,54.5,281.1992" style="stroke: #A80036; stroke-width: 1.5;"/><text fill="#000000" font-family="sans-serif" font-size="12" lengthAdjust="spacingAndGlyphs" textLength="113" x="57.5" y="297.8008">ContentLinksService</text><path d="M55.5,305.332 L55.5,305.4612 L65.25,304.7379 L75,304.7022 L84.75,305.0004 L94.5,304.4804 L104.25,305.3657 L114,304.9505 L123.75,305.993 L133.5,304.7996 L143.25,306.2952 L153,305.3179 L162.75,305.1942 L172.5,305.332 " fill="#FEFECE" style="stroke: #A80036; stroke-width: 1.5;"/><path d="M55.5,313.332 L55.5,313.2436 L65.25,314.0243 L75,313.0009 L84.75,313.4776 L94.5,312.7538 L104.25,313.3348 L114,314.2788 L123.75,312.4398 L133.5,313.9897 L143.25,312.4568 L153,313.889 L162.75,312.4429 L172.5,313.332 " fill="#FEFECE" style="stroke: #A80036; stroke-width: 1.5;"/><polygon fill="#FBFB77" filter="url(#fmzuat1)" points="6,381.1992,5.8964,381.1992,6.1307,386.2613,5.8371,391.3234,6.1741,396.3855,5.9617,401.4477,6,406.5098,6,406.8464,15.8182,406.0471,25.6364,406.2873,35.4545,407.0693,45.2727,407.2196,55.0909,405.7993,64.9091,406.546,74.7273,406.4745,84.5455,406.6728,94.3636,406.0304,104.1818,406.8465,114,406.8257,123.8182,405.8859,133.6364,406.7289,143.4545,406.7903,153.2727,406.2544,163.0909,406.1793,172.9091,405.8729,182.7273,406.6588,192.5455,406.7206,202.3636,406.8591,212.1818,407.1807,222,406.5098,222.2312,406.5098,221.9393,403.4477,222.1817,400.3855,221.9566,397.3234,221.973,394.2613,222,391.1992,222.0829,391.2821,219.9534,389.1526,218.0932,387.2924,216.1177,385.3169,214.0924,383.2917,212,381.1992,212,380.6438,202.1905,380.9146,192.381,380.9931,182.5714,380.7128,172.7619,380.4613,162.9524,381.8427,153.1429,380.9827,143.3333,381.0841,133.5238,381.5573,123.7143,381.2741,113.9048,381.807,104.0952,381.7392,94.2857,381.762,84.4762,381.2227,74.6667,381.4648,64.8571,381.8631,55.0476,380.8351,45.2381,381.889,35.4286,381.1327,25.619,381.1724,15.8095,381.7741,6,381.1992" style="stroke: #A80036; stroke-width: 1.0;"/><polygon fill="#FBFB77" points="6,381.1992,5.8403,381.1992,5.7571,386.2613,5.8787,391.3234,5.9002,396.3855,5.9503,401.4477,6,406.5098,6,406.0155,15.8182,406.6933,25.6364,406.8239,35.4545,406.2345,45.2727,406.5394,55.0909,406.0245,64.9091,407.1149,74.7273,406.4244,84.5455,406.2161,94.3636,405.8983,104.1818,407.1551,114,406.4499,123.8182,406.0585,133.6364,406.2303,143.4545,407.2296,153.2727,406.5937,163.0909,406.434,172.9091,406.591,182.7273,406.4398,192.5455,405.9904,202.3636,406.9562,212.1818,407.0064,222,406.5098,221.9859,406.5098,221.9399,403.4477,222.244,400.3855,221.8362,397.3234,221.8623,394.2613,222,391.1992,221.8982,391.0974,219.938,389.1373,217.8688,387.068,216.0164,385.2156,213.9683,383.1675,212,381.1992,212,381.6396,201.5556,381.6679,191.1111,381.8604,180.6667,380.5861,170.2222,381.4023,159.7778,380.9991,149.3333,381.8672,138.8889,380.6991,128.4444,381.9232,118,381.1992,117.3198,381.1537,116.9587,371.2058,117.132,361.2937,115.6022,351.2676,115.2671,341.3215,114.4307,331.3418,114,321.3892,114.2487,321.4058,112.9627,331.3328,113.3747,341.3732,112.2488,351.3109,111.5243,361.2753,110.2501,371.203,110,381.1992,110,381.8089,99.6,380.9201,89.2,381.6254,78.8,380.6016,68.4,381.3977,58,380.7294,47.6,381.0633,37.2,380.5248,26.8,381.4519,16.4,380.8682,6,381.1992" style="stroke: #A80036; stroke-width: 1.0;"/><path d="M212,381.1992 L212.212,381.1992 L212.3179,383.1992 L211.9955,385.1992 L211.8874,387.1992 L211.94,389.1992 L212,391.1992 " fill="#FBFB77" style="stroke: #A80036; stroke-width: 1.0;"/><path d="M222,391.1992 L222,391.2051 L220,391.4333 L218,391.2089 L216,391.0885 L214,390.9564 L212,391.1992 " fill="#FBFB77" style="stroke: #A80036; stroke-width: 1.0;"/><text fill="#000000" font-family="sans-serif" font-size="13" lengthAdjust="spacingAndGlyphs" textLength="195" x="12" y="398.7676">以下コンテンツリンク管理と同じ</text><path d="M114,89.7692 L113.8737,89.7692 L113.7283,97.6292 L114.2621,105.4892 L113.7337,113.3492 L114.3065,121.2092 L114,129.0692 " fill="none" style="stroke: #000000; stroke-width: 1.0;"/><polygon fill="none" points="107,89.2992,106.8096,89.2326,108.2196,85.2361,109.9284,81.3442,111.1253,77.2731,112.3768,73.2211,114,69.2992,114.1435,69.3494,115.5121,73.3384,116.5806,77.2224,118.1446,81.2798,119.7445,85.3498,121,89.2992,121,89.3961,118.2,89.395,115.4,89.2803,112.6,89.2693,109.8,89.2566,107,89.2992" style="stroke: #000000; stroke-width: 1.0;"/><path d="M114,221.3192 L114.6645,221.3192 L113.7608,232.2812 L114.0406,243.2432 L114.1978,254.2052 L113.5953,265.1672 L114,276.1292 " fill="none" style="stroke: #A80036; stroke-width: 1.0;"/><polygon fill="#A80036" points="114,281.1892,114.0252,281.2004,114.9452,279.4538,115.5017,277.5455,116.5949,275.8758,117.0241,273.911,118,272.1892,118.0276,272.2168,117.2851,273.0743,116.5115,273.9007,115.664,274.6532,114.6889,275.2782,114,276.1892,113.9292,276.1184,113.1583,275.3475,112.5225,274.7117,111.4616,273.6509,110.8089,272.9981,110,272.1892,109.962,272.1723,110.7463,273.9653,111.7752,275.8671,112.3258,277.5562,113.1406,279.3628,114,281.1892" style="stroke: #A80036; stroke-width: 1.0;"/></g></svg>