<?xml version="1.0" encoding="UTF-8" standalone="no"?><svg xmlns="http://www.w3.org/2000/svg" xmlns:xlink="http://www.w3.org/1999/xlink" contentScriptType="application/ecmascript" contentStyleType="text/css" height="638px" preserveAspectRatio="none" style="width:465px;height:638px;" version="1.1" viewBox="0 0 465 638" width="465px" zoomAndPan="magnify"><defs><filter height="300%" id="flh8yb2" width="300%" x="-1" y="-1"><feGaussianBlur result="blurOut" stdDeviation="2.0"/><feColorMatrix in="blurOut" result="blurOut2" type="matrix" values="0 0 0 0 0 0 0 0 0 0 0 0 0 0 0 0 0 0 .4 0"/><feOffset dx="4.0" dy="4.0" in="blurOut2" result="blurOut3"/><feBlend in="SourceGraphic" in2="blurOut3" mode="normal"/></filter></defs><g><text fill="#000000" font-family="sans-serif" font-size="18" lengthAdjust="spacingAndGlyphs" textLength="198" x="138" y="17.4023">ウィジェットエリア管理</text><!--class Admin\WidgetAreasController--><polygon fill="#FEFECE" filter="url(#flh8yb2)" points="279,29.1992,279,29.9437,288.8333,28.5157,298.6667,29.6002,308.5,29.2256,318.3333,29.7311,328.1667,29.7325,338,29.1162,347.8333,29.016,357.6667,28.6557,367.5,29.6149,377.3333,29.8233,387.1667,29.2685,397,28.6533,406.8333,28.6184,416.6667,29.5196,426.5,29.0899,436.3333,29.2911,446.1667,29.4737,456,29.1992,455.664,29.1992,455.3179,39.4162,455.3693,49.6332,456.5607,59.8503,455.3937,70.0673,455.3322,80.2843,455.3291,90.5013,455.933,100.7183,456.4399,110.9353,456,121.1523,456,120.9473,446.1667,120.7719,436.3333,121.0666,426.5,121.1057,416.6667,121.1212,406.8333,121.2059,397,121.8591,387.1667,121.1574,377.3333,121.6226,367.5,121.5281,357.6667,121.07,347.8333,120.599,338,120.9702,328.1667,121.5386,318.3333,120.5744,308.5,121.3288,298.6667,121.358,288.8333,121.4193,279,121.1523,279.3039,121.1523,279.3261,110.9353,279.2296,100.7183,279.4226,90.5013,279.4293,80.2843,278.6685,70.0673,278.5393,59.8503,278.3786,49.6332,278.7013,39.4162,279,29.1992" style="stroke: #A80036; stroke-width: 1.5;"/><text fill="#000000" font-family="sans-serif" font-size="12" lengthAdjust="spacingAndGlyphs" textLength="171" x="282" y="45.8008">Admin\WidgetAreasController</text><path d="M280,53.332 L280,53.1306 L289.7222,52.3602 L299.4444,52.369 L309.1667,53.9229 L318.8889,53.1418 L328.6111,52.8539 L338.3333,53.6979 L348.0556,54.1746 L357.7778,52.6576 L367.5,53.6561 L377.2222,52.8761 L386.9444,52.5094 L396.6667,53.9027 L406.3889,52.527 L416.1111,52.4369 L425.8333,52.8573 L435.5556,53.7442 L445.2778,52.4601 L455,53.332 " fill="#FEFECE" style="stroke: #A80036; stroke-width: 1.5;"/><path d="M280,61.332 L280,60.4054 L289.7222,61.3494 L299.4444,61.0397 L309.1667,61.5849 L318.8889,60.3653 L328.6111,60.5858 L338.3333,60.8334 L348.0556,61.52 L357.7778,60.375 L367.5,60.4056 L377.2222,60.9305 L386.9444,62.143 L396.6667,61.3391 L406.3889,61.3165 L416.1111,60.9493 L425.8333,61.4249 L435.5556,61.6004 L445.2778,60.7644 L455,61.332 " fill="#FEFECE" style="stroke: #A80036; stroke-width: 1.5;"/><text fill="#000000" font-family="sans-serif" font-size="11" lengthAdjust="spacingAndGlyphs" textLength="102" x="285" y="75.9668">+一覧取得：index()</text><text fill="#000000" font-family="sans-serif" font-size="11" lengthAdjust="spacingAndGlyphs" textLength="92" x="285" y="88.9219">+新規追加：add()</text><text fill="#000000" font-family="sans-serif" font-size="11" lengthAdjust="spacingAndGlyphs" textLength="70" x="285" y="101.877">+編集：edit()</text><text fill="#000000" font-family="sans-serif" font-size="11" lengthAdjust="spacingAndGlyphs" textLength="82" x="285" y="114.832">+削除：delete()</text><!--class WidgetAreasService--><polygon fill="#FEFECE" filter="url(#flh8yb2)" points="308.5,259.1992,308.5,259.1047,318.3333,259.5788,328.1667,258.4769,338,259.4231,347.8333,258.7483,357.6667,259.6275,367.5,259.8059,377.3333,258.7583,387.1667,258.4594,397,258.7078,406.8333,259.3143,416.6667,258.783,426.5,259.1992,427.0375,259.1992,425.8119,269.8168,425.8667,280.4344,426.7479,291.052,426.9734,301.6695,426.5,312.2871,426.5,312.9778,416.6667,312.5923,406.8333,312.5173,397,311.8831,387.1667,312.4594,377.3333,312.8262,367.5,312.1595,357.6667,312.1269,347.8333,312.4933,338,312.8192,328.1667,312.2391,318.3333,311.9773,308.5,312.2871,307.7562,312.2871,307.8092,301.6695,308.6192,291.052,308.618,280.4344,308.626,269.8168,308.5,259.1992" style="stroke: #A80036; stroke-width: 1.5;"/><text fill="#000000" font-family="sans-serif" font-size="12" lengthAdjust="spacingAndGlyphs" textLength="112" x="311.5" y="275.8008">WidgetAreasService</text><path d="M309.5,283.332 L309.5,283.0654 L319.1667,283.1384 L328.8333,283.3296 L338.5,283.7562 L348.1667,284.292 L357.8333,283.642 L367.5,283.7443 L377.1667,282.3785 L386.8333,283.9074 L396.5,282.7658 L406.1667,282.6935 L415.8333,282.829 L425.5,283.332 " fill="#FEFECE" style="stroke: #A80036; stroke-width: 1.5;"/><text fill="#000000" font-family="sans-serif" font-size="11" lengthAdjust="spacingAndGlyphs" textLength="105" x="314.5" y="297.9668">+WidgetAreasTable</text><path d="M309.5,304.2871 L309.5,303.6735 L319.1667,304.6958 L328.8333,303.8998 L338.5,303.7535 L348.1667,303.684 L357.8333,304.798 L367.5,303.7263 L377.1667,303.4631 L386.8333,305.2731 L396.5,304.5427 L406.1667,305.2752 L415.8333,303.5431 L425.5,304.2871 " fill="#FEFECE" style="stroke: #A80036; stroke-width: 1.5;"/><!--class WidgetAreasServiceInterface--><polygon fill="#FEFECE" filter="url(#flh8yb2)" points="6,181.1992,6,181.7646,15.8889,181.3531,25.7778,180.4585,35.6667,180.5924,45.5556,181.8723,55.4444,180.763,65.3333,181.8853,75.2222,180.5885,85.1111,181.0667,95,181.0265,104.8889,181.197,114.7778,181.4696,124.6667,181.3836,134.5556,181.0283,144.4444,180.7764,154.3333,181.5155,164.2222,180.6304,174.1111,181.2838,184,181.8221,193.8889,181.4872,203.7778,181.6825,213.6667,181.8647,223.5556,181.3205,233.4444,181.6006,243.3333,181.0206,253.2222,180.8077,263.1111,180.9853,273,181.1992,273.4773,181.1992,272.7649,191.1301,273.1219,201.061,273.6576,210.9919,273.2556,220.9228,272.5829,230.8537,272.9103,240.7846,272.8532,250.7155,273.7452,260.6464,273.6645,270.5773,272.3259,280.5082,272.7784,290.4391,272.5037,300.37,272.6898,310.3009,273.3363,320.2318,272.942,330.1627,272.4071,340.0936,272.2718,350.0245,273.4737,359.9554,272.3625,369.8863,272.2733,379.8172,273,389.748,273,389.0824,263.1111,389.2382,253.2222,389.6703,243.3333,390.399,233.4444,389.2951,223.5556,389.6479,213.6667,389.6488,203.7778,390.4178,193.8889,390.2133,184,389.1799,174.1111,389.0642,164.2222,389.324,154.3333,390.3615,144.4444,389.9002,134.5556,389.3616,124.6667,389.1933,114.7778,390.3539,104.8889,389.3881,95,389.9128,85.1111,389.3208,75.2222,389.766,65.3333,389.867,55.4444,389.236,45.5556,390.4369,35.6667,389.3619,25.7778,390.0967,15.8889,389.7975,6,389.748,5.4387,389.748,6.1834,379.8172,5.8843,369.8863,5.4875,359.9554,6.4953,350.0245,6.6627,340.0936,5.9945,330.1627,6.083,320.2318,5.7441,310.3009,6.3972,300.37,5.6088,290.4391,5.3091,280.5082,5.6906,270.5773,6.3542,260.6464,5.6373,250.7155,5.8093,240.7846,5.5938,230.8537,5.807,220.9228,5.8599,210.9919,6.1917,201.061,6.3207,191.1301,6,181.1992" style="stroke: #A80036; stroke-width: 1.5;"/><text fill="#000000" font-family="sans-serif" font-size="12" lengthAdjust="spacingAndGlyphs" textLength="162" x="58.5" y="197.8008">WidgetAreasServiceInterface</text><path d="M7,205.332 L7,205.3273 L16.8148,205.1162 L26.6296,205.4342 L36.4444,204.7331 L46.2593,206.0238 L56.0741,205.2533 L65.8889,204.5347 L75.7037,204.9765 L85.5185,206.2696 L95.3333,206.1419 L105.1481,205.431 L114.963,206.1512 L124.7778,204.6911 L134.5926,204.5228 L144.4074,205.5315 L154.2222,204.9411 L164.037,205.4645 L173.8519,204.8778 L183.6667,205.1259 L193.4815,204.3592 L203.2963,205.0211 L213.1111,205.2885 L222.9259,204.4105 L232.7407,204.9422 L242.5556,206.0528 L252.3704,205.7775 L262.1852,204.9562 L272,205.332 " fill="#FEFECE" style="stroke: #A80036; stroke-width: 1.5;"/><path d="M7,213.332 L7,212.3411 L16.8148,213.2284 L26.6296,213.9891 L36.4444,213.9303 L46.2593,213.3067 L56.0741,212.5056 L65.8889,212.8965 L75.7037,212.9538 L85.5185,213.7478 L95.3333,213.0873 L105.1481,214.2494 L114.963,213.7296 L124.7778,212.4039 L134.5926,213.9193 L144.4074,213.6802 L154.2222,213.5219 L164.037,213.727 L173.8519,213.162 L183.6667,212.786 L193.4815,213.1976 L203.2963,213.808 L213.1111,213.2972 L222.9259,214.0874 L232.7407,212.8578 L242.5556,213.6107 L252.3704,212.44 L262.1852,212.5351 L272,213.332 " fill="#FEFECE" style="stroke: #A80036; stroke-width: 1.5;"/><text fill="#000000" font-family="sans-serif" font-size="11" lengthAdjust="spacingAndGlyphs" textLength="122" x="12" y="227.9668">+単一データ取得：get()</text><text fill="#000000" font-family="sans-serif" font-size="11" lengthAdjust="spacingAndGlyphs" textLength="152" x="12" y="240.9219">+一覧データ取得：getIndex()</text><text fill="#000000" font-family="sans-serif" font-size="11" lengthAdjust="spacingAndGlyphs" textLength="144" x="12" y="253.877">+初期データ取得：getNew()</text><text fill="#000000" font-family="sans-serif" font-size="11" lengthAdjust="spacingAndGlyphs" textLength="119" x="12" y="266.832">+リスト取得：getList()</text><text fill="#000000" font-family="sans-serif" font-size="11" lengthAdjust="spacingAndGlyphs" textLength="83" x="12" y="279.7871">+作成：create()</text><text fill="#000000" font-family="sans-serif" font-size="11" lengthAdjust="spacingAndGlyphs" textLength="87" x="12" y="292.7422">+編集：update()</text><text fill="#000000" font-family="sans-serif" font-size="11" lengthAdjust="spacingAndGlyphs" textLength="82" x="12" y="305.6973">+削除：delete()</text><text fill="#000000" font-family="sans-serif" font-size="11" lengthAdjust="spacingAndGlyphs" textLength="102" x="12" y="318.6523">+一括処理：batch()</text><text fill="#000000" font-family="sans-serif" font-size="11" lengthAdjust="spacingAndGlyphs" textLength="200" x="12" y="331.6074">+ウィジェットを更新：updateWidget()</text><text fill="#000000" font-family="sans-serif" font-size="11" lengthAdjust="spacingAndGlyphs" textLength="219" x="12" y="344.5625">+ウィジェットを並び替える：updateSort()</text><text fill="#000000" font-family="sans-serif" font-size="11" lengthAdjust="spacingAndGlyphs" textLength="195" x="12" y="357.5176">+ウィジェットを削除：deleteWidget()</text><text fill="#000000" font-family="sans-serif" font-size="11" lengthAdjust="spacingAndGlyphs" textLength="239" x="12" y="370.4727">+IDよりタイトルリストを取得：getTitlesById()</text><text fill="#000000" font-family="sans-serif" font-size="11" lengthAdjust="spacingAndGlyphs" textLength="255" x="12" y="383.4277">+コントロールソースを取得：getControlSource()</text><!--class WidgetAreasTable--><polygon fill="#FEFECE" filter="url(#flh8yb2)" points="312,450.1992,312,450.0222,322.0909,449.4936,332.1818,450.7193,342.2727,450.8479,352.3636,450.4069,362.4545,449.9375,372.5455,450.9475,382.6364,449.8759,392.7273,450.1533,402.8182,450.4163,412.9091,450.8923,423,450.1992,422.9039,450.1992,422.8789,458.2258,423.2048,466.2523,422.7874,474.2789,422.7977,482.3055,423,490.332,423,490.2975,412.9091,490.7117,402.8182,490.3889,392.7273,490.9503,382.6364,490.0459,372.5455,490.4912,362.4545,490.3801,352.3636,490.4278,342.2727,491.073,332.1818,489.9175,322.0909,489.7042,312,490.332,312.0344,490.332,311.7839,482.3055,312.1822,474.2789,312.236,466.2523,311.9647,458.2258,312,450.1992" style="stroke: #A80036; stroke-width: 1.5;"/><text fill="#000000" font-family="sans-serif" font-size="12" lengthAdjust="spacingAndGlyphs" textLength="105" x="315" y="466.8008">WidgetAreasTable</text><path d="M313,474.332 L313,475.1559 L322.9091,474.1324 L332.8182,474.4956 L342.7273,474.3876 L352.6364,474.5708 L362.5455,474.8936 L372.4545,475.0887 L382.3636,475.3295 L392.2727,473.6051 L402.1818,474.3851 L412.0909,473.4712 L422,474.332 " fill="#FEFECE" style="stroke: #A80036; stroke-width: 1.5;"/><path d="M313,482.332 L313,482.0177 L322.9091,483.16 L332.8182,481.8485 L342.7273,482.2953 L352.6364,482.4521 L362.5455,483.1984 L372.4545,482.747 L382.3636,481.646 L392.2727,481.7012 L402.1818,483.2228 L412.0909,481.6866 L422,482.332 " fill="#FEFECE" style="stroke: #A80036; stroke-width: 1.5;"/><!--class WidgetArea--><polygon fill="#FEFECE" filter="url(#flh8yb2)" points="282,550.1992,282,550.1069,292.0588,550.6511,302.1176,549.561,312.1765,549.5119,322.2353,550.0702,332.2941,550.0723,342.3529,550.344,352.4118,550.3322,362.4706,550.2832,372.5294,550.1011,382.5882,550.5109,392.6471,549.922,402.7059,549.7283,412.7647,550.9486,422.8235,550.1176,432.8824,550.4842,442.9412,550.2621,453,550.1992,453.7115,550.1992,453.1652,560.074,452.8328,569.9487,452.5635,579.8235,452.361,589.6982,453.1128,599.573,452.3967,609.4478,453.0161,619.3225,453,629.1973,453,628.9995,442.9412,628.8221,432.8824,628.7016,422.8235,628.6371,412.7647,629.5759,402.7059,628.7134,392.6471,629.4635,382.5882,629.536,372.5294,629.8428,362.4706,629.6792,352.4118,629.6522,342.3529,629.5954,332.2941,629.9287,322.2353,629.1947,312.1765,629.8595,302.1176,629.6615,292.0588,629.6137,282,629.1973,281.5075,629.1973,281.9536,619.3225,282.4116,609.4478,281.351,599.573,281.8706,589.6982,282.4184,579.8235,281.8498,569.9487,282.322,560.074,282,550.1992" style="stroke: #A80036; stroke-width: 1.5;"/><text fill="#000000" font-family="sans-serif" font-size="12" lengthAdjust="spacingAndGlyphs" textLength="66" x="334.5" y="566.8008">WidgetArea</text><path d="M283,574.332 L283,573.9068 L292.9412,575.1722 L302.8824,575.2959 L312.8235,573.4631 L322.7647,574.694 L332.7059,573.3863 L342.6471,575.3029 L352.5882,573.8735 L362.5294,574.849 L372.4706,574.6381 L382.4118,574.4888 L392.3529,573.983 L402.2941,574.6479 L412.2353,573.6277 L422.1765,574.1298 L432.1176,574.0017 L442.0588,574.109 L452,574.332 " fill="#FEFECE" style="stroke: #A80036; stroke-width: 1.5;"/><text fill="#000000" font-family="sans-serif" font-size="11" lengthAdjust="spacingAndGlyphs" textLength="99" x="288" y="588.9668">+サイトID：site_id</text><text fill="#000000" font-family="sans-serif" font-size="11" lengthAdjust="spacingAndGlyphs" textLength="159" x="288" y="601.9219">+ウィジェットエリア名：name</text><text fill="#000000" font-family="sans-serif" font-size="11" lengthAdjust="spacingAndGlyphs" textLength="149" x="288" y="614.877">+ウィジェット詳細：widgets</text><path d="M283,621.1973 L283,620.8837 L292.9412,622.1536 L302.8824,621.7926 L312.8235,620.2631 L322.7647,620.2352 L332.7059,620.5949 L342.6471,621.3775 L352.5882,621.9331 L362.5294,622.0645 L372.4706,622.1311 L382.4118,621.8117 L392.3529,621.9154 L402.2941,621.4055 L412.2353,622.0401 L422.1765,621.5878 L432.1176,620.5565 L442.0588,621.2232 L452,621.1973 " fill="#FEFECE" style="stroke: #A80036; stroke-width: 1.5;"/><path d="M367.5,121.4392 L367.4797,121.4392 L367.6496,131.6184 L368.37,141.7977 L366.5232,151.9769 L368.3636,162.1561 L368.3271,172.3354 L366.807,182.5146 L368.2412,192.6938 L366.8722,202.8731 L367.6309,213.0523 L367.1511,223.2315 L366.908,233.4108 L367.2106,243.59 L367.5,253.7692 " fill="none" style="stroke: #000000; stroke-width: 1.0;"/><polygon fill="#000000" points="367.5,259.1892,367.5628,259.2171,368.2263,257.3565,369.0381,255.5617,369.9114,253.7943,370.6952,251.9871,371.5,250.1892,371.5231,250.2123,370.6545,250.9437,369.8363,251.7256,368.9265,252.4157,368.1628,253.2521,367.5,254.1892,367.4961,254.1853,366.5761,253.2654,365.9104,252.5996,365.2196,251.9088,364.3805,251.0698,363.5,250.1892,363.4954,250.1872,364.339,252.0066,365.1863,253.8276,365.7993,255.5445,366.8292,257.4466,367.5,259.1892" style="stroke: #000000; stroke-width: 1.0;"/><path d="M367.5,312.4592 L366.7353,312.4592 L366.8495,322.6308 L366.9911,332.8023 L367.7405,342.9738 L367.9925,353.1454 L367.4122,363.3169 L367.3803,373.4884 L368.1016,383.66 L367.1772,393.8315 L367.4254,404.0031 L367.6717,414.1746 L367.7299,424.3461 L367.0937,434.5177 L367.5,444.6892 " fill="none" style="stroke: #000000; stroke-width: 1.0;"/><polygon fill="#000000" points="367.5,449.9792,367.6347,450.0391,368.4514,448.2465,369.0235,446.3452,370.0279,444.6361,370.842,442.8423,371.5,440.9792,371.4081,440.8873,370.6349,441.7141,369.8864,442.5657,369.0327,443.3119,368.3724,444.2516,367.5,444.9792,367.4948,444.974,366.6671,444.1463,365.9217,443.4009,365.1503,442.6296,364.1255,441.6048,363.5,440.9792,363.372,440.9223,364.1327,442.7049,365.247,444.6446,365.6976,446.2892,366.8299,448.2369,367.5,449.9792" style="stroke: #000000; stroke-width: 1.0;"/><path d="M293.28,285.6992 L293.28,286.0272 L296.324,285.8757 L299.368,285.6045 L302.412,285.8202 L305.456,285.8514 L308.5,285.6992 " fill="none" style="stroke: #000000; stroke-width: 1.0; stroke-dasharray: 1.0,3.0;"/><polygon fill="none" points="293.09,292.6992,293.0637,292.624,289.1457,291.4582,285.1261,290.0024,281.0905,288.5008,277.0829,287.0791,273.09,285.6992,273.0569,285.6045,277.165,284.5136,281.0637,282.824,285.026,281.3165,289.0659,280.0304,293.09,278.6992,292.9142,278.6992,293.2551,281.4992,293.1129,284.2992,292.8617,287.0992,293.1892,289.8992,293.09,292.6992" style="stroke: #000000; stroke-width: 1.0;"/><path d="M367.5,490.3392 L366.5894,490.3392 L368.0422,501.2392 L367.8481,512.1392 L368.2055,523.0392 L367.6504,533.9392 L367.5,544.8392 " fill="none" style="stroke: #000000; stroke-width: 1.0;"/><polygon fill="#000000" points="367.5,550.0792,367.4752,550.0682,368.1838,548.2276,369.0179,546.4427,369.6837,544.5831,370.8139,542.9299,371.5,541.0792,371.5367,541.1159,370.6307,541.8099,369.7596,542.5388,369.209,543.5882,368.134,544.1132,367.5,545.0792,367.5015,545.0807,366.7129,544.2921,365.7651,543.3443,365.0675,542.6467,364.3848,541.964,363.5,541.0792,363.5411,541.0975,364.2799,542.8703,365.0367,544.6511,365.9138,546.4853,366.779,548.3143,367.5,550.0792" style="stroke: #000000; stroke-width: 1.0;"/></g></svg>