<?xml version="1.0" encoding="UTF-8" standalone="no"?><svg xmlns="http://www.w3.org/2000/svg" xmlns:xlink="http://www.w3.org/1999/xlink" contentScriptType="application/ecmascript" contentStyleType="text/css" height="794px" preserveAspectRatio="none" style="width:527px;height:794px;" version="1.1" viewBox="0 0 527 794" width="527px" zoomAndPan="magnify"><defs><filter height="300%" id="f2p5xjv" width="300%" x="-1" y="-1"><feGaussianBlur result="blurOut" stdDeviation="2.0"/><feColorMatrix in="blurOut" result="blurOut2" type="matrix" values="0 0 0 0 0 0 0 0 0 0 0 0 0 0 0 0 0 0 .4 0"/><feOffset dx="4.0" dy="4.0" in="blurOut2" result="blurOut3"/><feBlend in="SourceGraphic" in2="blurOut3" mode="normal"/></filter></defs><g><text fill="#000000" font-family="sans-serif" font-size="18" lengthAdjust="spacingAndGlyphs" textLength="198" x="169" y="17.4023">カスタムエントリー管理</text><!--class Admin\CustomEntriesController--><polygon fill="#FEFECE" filter="url(#f2p5xjv)" points="307,29.1992,307,28.469,316.8421,29.1225,326.6842,28.6749,336.5263,28.7588,346.3684,29.0364,356.2105,29.1916,366.0526,29.7193,375.8947,28.9557,385.7368,29.6407,395.5789,29.1352,405.4211,29.2195,415.2632,28.4878,425.1053,29.5262,434.9474,28.7656,444.7895,29.2158,454.6316,29.1864,464.4737,29.4201,474.3158,28.6962,484.1579,28.6673,494,29.1992,493.8963,29.1992,494.7301,39.2622,494.6252,49.3251,493.6016,59.3881,493.8774,69.451,493.5065,79.514,493.9822,89.5769,494.2689,99.6399,493.4744,109.7028,494.0664,119.7658,493.9158,129.8287,494.101,139.8917,494.0927,149.9546,494,160.0176,494,160.0558,484.1579,159.8823,474.3158,159.6255,464.4737,159.8978,454.6316,159.5845,444.7895,159.4909,434.9474,160.5727,425.1053,159.9942,415.2632,160.6608,405.4211,160.0178,395.5789,159.9831,385.7368,160.5563,375.8947,159.7593,366.0526,159.3861,356.2105,160.4528,346.3684,160.1549,336.5263,159.8628,326.6842,160.3303,316.8421,159.6419,307,160.0176,306.2644,160.0176,306.7049,149.9546,306.3854,139.8917,306.7799,129.8287,307.2854,119.7658,306.5345,109.7028,306.5935,99.6399,307.4775,89.5769,306.7227,79.514,306.2692,69.451,307.1515,59.3881,306.9199,49.3251,306.2547,39.2622,307,29.1992" style="stroke: #A80036; stroke-width: 1.5;"/><text fill="#000000" font-family="sans-serif" font-size="12" lengthAdjust="spacingAndGlyphs" textLength="181" x="310" y="45.8008">Admin\CustomEntriesController</text><path d="M308,53.332 L308,52.6918 L317.7368,52.3344 L327.4737,52.8216 L337.2105,52.3655 L346.9474,52.5902 L356.6842,53.1641 L366.4211,52.7731 L376.1579,52.3496 L385.8947,52.5471 L395.6316,52.6377 L405.3684,53.0729 L415.1053,52.7671 L424.8421,52.7898 L434.5789,53.9393 L444.3158,53.7051 L454.0526,52.793 L463.7895,53.2052 L473.5263,53.2218 L483.2632,53.4096 L493,53.332 " fill="#FEFECE" style="stroke: #A80036; stroke-width: 1.5;"/><path d="M308,61.332 L308,60.5566 L317.7368,60.8634 L327.4737,61.8512 L337.2105,61.4101 L346.9474,62.0182 L356.6842,60.8874 L366.4211,61.3834 L376.1579,62.2545 L385.8947,60.5869 L395.6316,61.8248 L405.3684,60.616 L415.1053,62.2876 L424.8421,61.7719 L434.5789,61.5165 L444.3158,61.4405 L454.0526,61.088 L463.7895,61.2675 L473.5263,61.7396 L483.2632,60.552 L493,61.332 " fill="#FEFECE" style="stroke: #A80036; stroke-width: 1.5;"/><text fill="#000000" font-family="sans-serif" font-size="11" lengthAdjust="spacingAndGlyphs" textLength="113" x="313" y="75.9668">+一覧を表示：index()</text><text fill="#000000" font-family="sans-serif" font-size="11" lengthAdjust="spacingAndGlyphs" textLength="92" x="313" y="88.9219">+新規追加：add()</text><text fill="#000000" font-family="sans-serif" font-size="11" lengthAdjust="spacingAndGlyphs" textLength="70" x="313" y="101.877">+編集：edit()</text><text fill="#000000" font-family="sans-serif" font-size="11" lengthAdjust="spacingAndGlyphs" textLength="82" x="313" y="114.832">+削除：delete()</text><text fill="#000000" font-family="sans-serif" font-size="11" lengthAdjust="spacingAndGlyphs" textLength="76" x="313" y="127.7871">+複製：copy()</text><text fill="#000000" font-family="sans-serif" font-size="11" lengthAdjust="spacingAndGlyphs" textLength="145" x="313" y="140.7422">+公開状態に設定：publish()</text><text fill="#000000" font-family="sans-serif" font-size="11" lengthAdjust="spacingAndGlyphs" textLength="170" x="313" y="153.6973">+非公開状態に設定：unpublish()</text><!--class CustomEntriesService--><polygon fill="#FEFECE" filter="url(#f2p5xjv)" points="336,304.6992,336,304.0371,345.9231,304.3857,355.8462,304.9127,365.7692,304.7,375.6923,304.5763,385.6154,304.4231,395.5385,304.4036,405.4615,304.0244,415.3846,305.2241,425.3077,304.4482,435.2308,304.5516,445.1538,304.2215,455.0769,305.1625,465,304.6992,465.2712,304.6992,465.2587,315.3168,465.6367,325.9344,464.8833,336.552,465.0918,347.1695,465,357.7871,465,357.6251,455.0769,358.2999,445.1538,357.5465,435.2308,357.9982,425.3077,357.4879,415.3846,358.1216,405.4615,357.7078,395.5385,358.0119,385.6154,357.2784,375.6923,358.2929,365.7692,357.3809,355.8462,357.754,345.9231,357.1638,336,357.7871,335.9331,357.7871,336.6532,347.1695,335.3132,336.552,335.7953,325.9344,336.3434,315.3168,336,304.6992" style="stroke: #A80036; stroke-width: 1.5;"/><text fill="#000000" font-family="sans-serif" font-size="12" lengthAdjust="spacingAndGlyphs" textLength="122" x="339.5" y="321.3008">CustomEntriesService</text><path d="M337,328.832 L337,328.4361 L346.7692,329.7318 L356.5385,329.5815 L366.3077,329.5596 L376.0769,328.6096 L385.8462,329.1929 L395.6154,328.1642 L405.3846,329.5318 L415.1538,328.0791 L424.9231,329.2206 L434.6923,328.038 L444.4615,329.4167 L454.2308,328.6209 L464,328.832 " fill="#FEFECE" style="stroke: #A80036; stroke-width: 1.5;"/><text fill="#000000" font-family="sans-serif" font-size="11" lengthAdjust="spacingAndGlyphs" textLength="117" x="342" y="343.4668">+CustomEntriesTable</text><path d="M337,349.7871 L337,349.8338 L346.7692,349.6541 L356.5385,349.0826 L366.3077,350.7833 L376.0769,349.8129 L385.8462,350.4546 L395.6154,350.5779 L405.3846,349.6659 L415.1538,349.7283 L424.9231,350.6216 L434.6923,350.5203 L444.4615,349.7501 L454.2308,348.8494 L464,349.7871 " fill="#FEFECE" style="stroke: #A80036; stroke-width: 1.5;"/><!--class CustomEntriesServiceInterface--><polygon fill="#FEFECE" filter="url(#f2p5xjv)" points="6,220.1992,6,219.9434,15.8333,219.6274,25.6667,220.157,35.5,219.5522,45.3333,220.0616,55.1667,220.0099,65,220.6645,74.8333,220.918,84.6667,220.9034,94.5,219.6556,104.3333,220.1792,114.1667,219.6235,124,220.3026,133.8333,219.7374,143.6667,220.0494,153.5,219.5848,163.3333,219.6172,173.1667,220.475,183,219.6931,192.8333,219.5127,202.6667,220.8142,212.5,219.5154,222.3333,219.9245,232.1667,219.995,242,219.8081,251.8333,220.1216,261.6667,219.942,271.5,220.465,281.3333,219.6391,291.1667,220.1528,301,220.1992,300.8048,220.1992,300.5297,230.2676,300.9636,240.3359,301.7331,250.4043,301.43,260.4727,301.4306,270.541,301.3877,280.6094,300.7292,290.6777,300.5996,300.7461,301.0914,310.8145,300.7285,320.8828,301.495,330.9512,301.4026,341.0195,300.9917,351.0879,301.5838,361.1563,300.5457,371.2246,301.3659,381.293,300.9038,391.3613,300.5104,401.4297,301.2819,411.498,300.3283,421.5664,300.932,431.6348,301,441.7031,301,441.4773,291.1667,441.9074,281.3333,441.3788,271.5,442.2789,261.6667,440.9937,251.8333,441.7051,242,441.7321,232.1667,441.567,222.3333,441.9105,212.5,441.8421,202.6667,442.2901,192.8333,441.8887,183,441.4908,173.1667,442.0117,163.3333,441.9665,153.5,441.6862,143.6667,441.7463,133.8333,441.7753,124,441.7206,114.1667,441.1529,104.3333,441.1321,94.5,442.3521,84.6667,441.5777,74.8333,441.5294,65,441.061,55.1667,441.3843,45.3333,441.7535,35.5,441.4747,25.6667,441.5174,15.8333,441.0536,6,441.7031,5.3421,441.7031,5.64,431.6348,5.9444,421.5664,5.4868,411.498,6.0261,401.4297,6.288,391.3613,6.6833,381.293,5.7713,371.2246,5.9073,361.1563,5.2918,351.0879,6.7299,341.0195,5.8026,330.9512,6.3973,320.8828,6.6595,310.8145,5.5201,300.7461,6.6646,290.6777,6.06,280.6094,5.7812,270.541,5.2576,260.4727,6.2081,250.4043,5.4522,240.3359,5.4723,230.2676,6,220.1992" style="stroke: #A80036; stroke-width: 1.5;"/><text fill="#000000" font-family="sans-serif" font-size="12" lengthAdjust="spacingAndGlyphs" textLength="172" x="67.5" y="236.8008">CustomEntriesServiceInterface</text><path d="M7,244.332 L7,244.4054 L17.1034,243.7085 L27.2069,243.4051 L37.3103,244.3733 L47.4138,244.7388 L57.5172,243.8434 L67.6207,243.8437 L77.7241,244.66 L87.8276,245.0643 L97.931,244.1571 L108.0345,244.6609 L118.1379,243.3542 L128.2414,243.4477 L138.3448,244.0232 L148.4483,243.4096 L158.5517,245.2211 L168.6552,244.1588 L178.7586,243.4245 L188.8621,243.8816 L198.9655,244.2184 L209.069,243.8149 L219.1724,245.176 L229.2759,243.6145 L239.3793,244.7196 L249.4828,244.9914 L259.5862,244.2053 L269.6897,243.4629 L279.7931,243.768 L289.8966,244.196 L300,244.332 " fill="#FEFECE" style="stroke: #A80036; stroke-width: 1.5;"/><path d="M7,252.332 L7,251.3645 L17.1034,252.9056 L27.2069,252.4437 L37.3103,253.2624 L47.4138,252.4483 L57.5172,251.8818 L67.6207,251.3475 L77.7241,252.806 L87.8276,253.2336 L97.931,251.5132 L108.0345,252.0609 L118.1379,251.4173 L128.2414,252.432 L138.3448,252.0629 L148.4483,253.2384 L158.5517,252.7337 L168.6552,252.4568 L178.7586,252.9209 L188.8621,252.7188 L198.9655,252.4349 L209.069,252.863 L219.1724,252.2779 L229.2759,251.7142 L239.3793,252.5492 L249.4828,253.2021 L259.5862,251.4582 L269.6897,251.7403 L279.7931,253.237 L289.8966,252.8629 L300,252.332 " fill="#FEFECE" style="stroke: #A80036; stroke-width: 1.5;"/><text fill="#000000" font-family="sans-serif" font-size="11" lengthAdjust="spacingAndGlyphs" textLength="144" x="12" y="266.9668">+初期データ取得：getNew()</text><text fill="#000000" font-family="sans-serif" font-size="11" lengthAdjust="spacingAndGlyphs" textLength="83" x="12" y="279.9219">+作成：create()</text><text fill="#000000" font-family="sans-serif" font-size="11" lengthAdjust="spacingAndGlyphs" textLength="87" x="12" y="292.877">+編集：update()</text><text fill="#000000" font-family="sans-serif" font-size="11" lengthAdjust="spacingAndGlyphs" textLength="82" x="12" y="305.832">+削除：delete()</text><text fill="#000000" font-family="sans-serif" font-size="11" lengthAdjust="spacingAndGlyphs" textLength="122" x="12" y="318.7871">+単一データ取得：get()</text><text fill="#000000" font-family="sans-serif" font-size="11" lengthAdjust="spacingAndGlyphs" textLength="152" x="12" y="331.7422">+一覧データ取得：getIndex()</text><text fill="#000000" font-family="sans-serif" font-size="11" lengthAdjust="spacingAndGlyphs" textLength="87" x="12" y="344.6973">+コピー：copy()</text><text fill="#000000" font-family="sans-serif" font-size="11" lengthAdjust="spacingAndGlyphs" textLength="204" x="12" y="357.6523">+公開状態かどうか確認：allowPublish()</text><text fill="#000000" font-family="sans-serif" font-size="11" lengthAdjust="spacingAndGlyphs" textLength="102" x="12" y="370.6074">+一括処理：batch()</text><text fill="#000000" font-family="sans-serif" font-size="11" lengthAdjust="spacingAndGlyphs" textLength="145" x="12" y="383.5625">+公開状態に設定：publish()</text><text fill="#000000" font-family="sans-serif" font-size="11" lengthAdjust="spacingAndGlyphs" textLength="170" x="12" y="396.5176">+非公開状態に設定：unpublish()</text><text fill="#000000" font-family="sans-serif" font-size="11" lengthAdjust="spacingAndGlyphs" textLength="283" x="12" y="409.4727">+複数のIDよりタイトルのリストを取得：getTitlesById()</text><text fill="#000000" font-family="sans-serif" font-size="11" lengthAdjust="spacingAndGlyphs" textLength="244" x="12" y="422.4277">+コントロールソース取得：getControlSource()</text><text fill="#000000" font-family="sans-serif" font-size="11" lengthAdjust="spacingAndGlyphs" textLength="228" x="12" y="435.3828">+ファイルアップロード設定：setupUpload()</text><!--class CustomEntriesTable--><polygon fill="#FEFECE" filter="url(#f2p5xjv)" points="340,502.1992,340,502.4251,350.0833,501.5746,360.1667,502.2763,370.25,502.8748,380.3333,502.5658,390.4167,501.5048,400.5,501.4986,410.5833,502.1098,420.6667,501.7244,430.75,501.8547,440.8333,502.9021,450.9167,502.5217,461,502.1992,460.8728,502.1992,460.871,510.2258,461.0009,518.2523,460.8472,526.2789,460.7511,534.3055,461,542.332,461,542.2027,450.9167,541.7786,440.8333,542.59,430.75,542.975,420.6667,543.0736,410.5833,541.8289,400.5,542.8947,390.4167,543.0401,380.3333,541.973,370.25,542.7528,360.1667,543.0172,350.0833,542.5944,340,542.332,339.7967,542.332,340.1345,534.3055,340.1909,526.2789,340.0429,518.2523,339.9438,510.2258,340,502.1992" style="stroke: #A80036; stroke-width: 1.5;"/><text fill="#000000" font-family="sans-serif" font-size="12" lengthAdjust="spacingAndGlyphs" textLength="115" x="343" y="518.8008">CustomEntriesTable</text><path d="M341,526.332 L341,527.113 L350.9167,525.9416 L360.8333,525.3817 L370.75,527.3066 L380.6667,526.0508 L390.5833,526.6066 L400.5,526.0055 L410.4167,526.8438 L420.3333,525.8569 L430.25,526.472 L440.1667,525.4164 L450.0833,525.978 L460,526.332 " fill="#FEFECE" style="stroke: #A80036; stroke-width: 1.5;"/><path d="M341,534.332 L341,534.7938 L350.9167,534.0431 L360.8333,534.9316 L370.75,535.2167 L380.6667,534.1781 L390.5833,534.6574 L400.5,534.9437 L410.4167,534.8637 L420.3333,533.9789 L430.25,534.9107 L440.1667,533.7281 L450.0833,534.6742 L460,534.332 " fill="#FEFECE" style="stroke: #A80036; stroke-width: 1.5;"/><!--class CustomEntry--><polygon fill="#FEFECE" filter="url(#f2p5xjv)" points="283.5,602.1992,283.5,601.5045,293.6739,602.1476,303.8478,601.7235,314.0217,602.3261,324.1957,602.4162,334.3696,602.0365,344.5435,602.9219,354.7174,601.4712,364.8913,602.6486,375.0652,601.5032,385.2391,601.8738,395.413,601.8237,405.587,601.542,415.7609,601.5591,425.9348,602.4956,436.1087,602.0301,446.2826,602.2386,456.4565,601.6796,466.6304,602.5726,476.8043,601.5072,486.9783,602.2787,497.1522,602.1886,507.3261,601.7108,517.5,602.1992,517.0496,602.1992,518.1,612.3458,516.7823,622.4924,517.9248,632.639,517.345,642.7856,517.8843,652.9322,517.5895,663.0788,517.9574,673.2254,517.9486,683.372,516.8926,693.5186,517.7706,703.6651,517.5974,713.8117,517.5707,723.9583,517.3629,734.1049,517.6267,744.2515,517.4229,754.3981,516.8429,764.5447,517.1107,774.6913,517.5,784.8379,517.5,784.7517,507.3261,784.7763,497.1522,784.9861,486.9783,784.1067,476.8043,784.4817,466.6304,784.4385,456.4565,785.2343,446.2826,784.744,436.1087,784.6974,425.9348,784.3398,415.7609,784.3063,405.587,784.5694,395.413,784.7202,385.2391,784.5182,375.0652,784.9851,364.8913,785.2832,354.7174,785.3754,344.5435,785.1872,334.3696,784.2458,324.1957,785.5591,314.0217,784.4144,303.8478,784.3365,293.6739,784.7717,283.5,784.8379,283.8166,784.8379,282.9336,774.6913,282.7962,764.5447,283.189,754.3981,283.3854,744.2515,283.0717,734.1049,283.5358,723.9583,283.2807,713.8117,283.2366,703.6651,282.9959,693.5186,283.0127,683.372,284.2105,673.2254,284.0179,663.0788,283.5407,652.9322,283.1758,642.7856,282.9244,632.639,284.1269,622.4924,282.7617,612.3458,283.5,602.1992" style="stroke: #A80036; stroke-width: 1.5;"/><text fill="#000000" font-family="sans-serif" font-size="12" lengthAdjust="spacingAndGlyphs" textLength="72" x="364.5" y="618.8008">CustomEntry</text><path d="M284.5,626.332 L284.5,627.2701 L294.587,626.1257 L304.6739,627.0567 L314.7609,627.2657 L324.8478,626.0251 L334.9348,626.7131 L345.0217,626.6785 L355.1087,626.891 L365.1957,625.9615 L375.2826,625.4269 L385.3696,625.7045 L395.4565,627.0672 L405.5435,626.5596 L415.6304,626.7607 L425.7174,625.3914 L435.8043,627.1848 L445.8913,625.7952 L455.9783,625.5737 L466.0652,626.1423 L476.1522,625.3917 L486.2391,627.0361 L496.3261,626.7456 L506.413,626.5324 L516.5,626.332 " fill="#FEFECE" style="stroke: #A80036; stroke-width: 1.5;"/><text fill="#000000" font-family="sans-serif" font-size="11" lengthAdjust="spacingAndGlyphs" textLength="222" x="289.5" y="640.9668">+カスタムテーブルID：custom_content_id</text><text fill="#000000" font-family="sans-serif" font-size="11" lengthAdjust="spacingAndGlyphs" textLength="51" x="289.5" y="653.9219">+NO：no</text><text fill="#000000" font-family="sans-serif" font-size="11" lengthAdjust="spacingAndGlyphs" textLength="93" x="289.5" y="666.877">+スラッグ：name</text><text fill="#000000" font-family="sans-serif" font-size="11" lengthAdjust="spacingAndGlyphs" textLength="84" x="289.5" y="679.832">+タイトル：title</text><text fill="#000000" font-family="sans-serif" font-size="11" lengthAdjust="spacingAndGlyphs" textLength="116" x="289.5" y="692.7871">+作成者ID：author_id</text><text fill="#000000" font-family="sans-serif" font-size="11" lengthAdjust="spacingAndGlyphs" textLength="104" x="289.5" y="705.7422">+公開状態：publish</text><text fill="#000000" font-family="sans-serif" font-size="11" lengthAdjust="spacingAndGlyphs" textLength="90" x="289.5" y="718.6973">+投稿日：posted</text><text fill="#000000" font-family="sans-serif" font-size="11" lengthAdjust="spacingAndGlyphs" textLength="151" x="289.5" y="731.6523">+公開開始日：publish_begin</text><text fill="#000000" font-family="sans-serif" font-size="11" lengthAdjust="spacingAndGlyphs" textLength="141" x="289.5" y="744.6074">+公開終了日：publish_end</text><text fill="#000000" font-family="sans-serif" font-size="11" lengthAdjust="spacingAndGlyphs" textLength="214" x="289.5" y="757.5625">+サイト内検索より除外：exclude_search</text><text fill="#000000" font-family="sans-serif" font-size="11" lengthAdjust="spacingAndGlyphs" textLength="139" x="289.5" y="770.5176">+アイキャッチ：eye_catch</text><path d="M284.5,776.8379 L284.5,777.6971 L294.587,777.6066 L304.6739,776.7609 L314.7609,777.2627 L324.8478,777.7665 L334.9348,777.1856 L345.0217,775.8459 L355.1087,776.5589 L365.1957,776.9648 L375.2826,777.3876 L385.3696,777.7635 L395.4565,776.1834 L405.5435,776.578 L415.6304,777.1678 L425.7174,776.4586 L435.8043,776.9911 L445.8913,776.8624 L455.9783,777.8354 L466.0652,776.1877 L476.1522,777.5675 L486.2391,776.8965 L496.3261,776.7059 L506.413,776.8102 L516.5,776.8379 " fill="#FEFECE" style="stroke: #A80036; stroke-width: 1.5;"/><path d="M400.5,160.3992 L400.8705,160.3992 L401.3047,170.3342 L399.9406,180.2692 L400.731,190.2042 L401.4811,200.1392 L399.6071,210.0742 L399.7254,220.0092 L401.3874,229.9442 L399.6846,239.8792 L399.6161,249.8142 L401.0337,259.7492 L399.5617,269.6842 L401.0831,279.6192 L399.8293,289.5542 L400.5,299.4892 " fill="none" style="stroke: #000000; stroke-width: 1.0;"/><polygon fill="#000000" points="400.5,304.4992,400.5379,304.5161,401.4242,302.7544,402.1475,300.9203,402.9186,299.1075,403.9266,297.3999,404.5,295.4992,404.5361,295.5353,403.8277,296.4269,402.88,297.0792,402.0857,297.8849,401.2863,298.6855,400.5,299.4992,400.661,299.6602,399.6217,298.621,399.0193,298.0185,398.2216,297.2208,397.1917,296.1909,396.5,295.4992,396.6055,295.5461,397.3476,297.3204,398.2595,299.1701,398.9696,300.9302,399.6301,302.6681,400.5,304.4992" style="stroke: #000000; stroke-width: 1.0;"/><path d="M400.5,358.0792 L399.8227,358.0792 L400.8806,368.0135 L399.6176,377.9478 L400.7273,387.8821 L400.8988,397.8164 L400.8175,407.7506 L399.6777,417.6849 L400.9116,427.6192 L400.2556,437.5535 L399.5302,447.4878 L400.585,457.4221 L400.8593,467.3564 L399.82,477.2906 L401.0005,487.2249 L400.5,497.1592 " fill="none" style="stroke: #000000; stroke-width: 1.0;"/><polygon fill="#000000" points="400.5,502.1892,400.5725,502.2214,401.5083,500.4818,402.0615,498.5721,402.9377,496.806,403.6287,494.9575,404.5,493.1892,404.4915,493.1807,403.6672,493.9564,403.0613,494.9506,402.0371,495.5263,401.4483,496.5375,400.5,497.1892,400.6725,497.3617,399.5846,496.2738,398.7823,495.4715,398.2244,494.9136,397.2242,493.9134,396.5,493.1892,396.3281,493.1128,397.4582,495.0595,398.1481,496.8106,399.0328,498.6483,399.6473,500.3658,400.5,502.1892" style="stroke: #000000; stroke-width: 1.0;"/><path d="M321.37,331.1992 L321.37,331.3988 L324.23,330.948 L327.09,330.9649 L329.95,331.3538 L332.81,331.3192 L335.67,331.1992 " fill="none" style="stroke: #000000; stroke-width: 1.0; stroke-dasharray: 1.0,3.0;"/><polygon fill="none" points="321.12,338.1992,321.1805,338.3722,317.0448,336.5845,313.0946,335.3265,309.1554,334.1003,305.077,332.4763,301.12,331.1992,301.1844,331.3831,305.0716,329.661,309.0675,328.2493,313.1713,327.1458,317.1242,325.6112,321.12,324.1992,321.0459,324.1992,321.2643,326.9992,321.3137,329.7992,321.3441,332.5992,321.2743,335.3992,321.12,338.1992" style="stroke: #000000; stroke-width: 1.0;"/><path d="M400.5,542.3092 L400.8327,542.3092 L401.0367,553.2272 L401.4702,564.1452 L399.8075,575.0632 L400.4553,585.9812 L400.5,596.8992 " fill="none" style="stroke: #000000; stroke-width: 1.0;"/><polygon fill="#000000" points="400.5,601.9192,400.3697,601.8613,401.1013,600.0309,402.1922,598.3602,402.8879,596.5138,403.646,594.6952,404.5,592.9192,404.5445,592.9637,403.6682,593.6874,402.9114,594.5306,402.1392,595.3584,401.2355,596.0547,400.5,596.9192,400.5331,596.9523,399.5393,595.9585,398.7655,595.1848,397.9288,594.348,397.313,593.7322,396.5,592.9192,396.3177,592.8382,397.401,594.7641,398.1953,596.5616,398.6949,598.228,399.794,600.161,400.5,601.9192" style="stroke: #000000; stroke-width: 1.0;"/></g></svg>