<?xml version="1.0" encoding="UTF-8" standalone="no"?><svg xmlns="http://www.w3.org/2000/svg" xmlns:xlink="http://www.w3.org/1999/xlink" contentScriptType="application/ecmascript" contentStyleType="text/css" height="391px" preserveAspectRatio="none" style="width:354px;height:391px;" version="1.1" viewBox="0 0 354 391" width="354px" zoomAndPan="magnify"><defs><filter height="300%" id="f9dkqd7" width="300%" x="-1" y="-1"><feGaussianBlur result="blurOut" stdDeviation="2.0"/><feColorMatrix in="blurOut" result="blurOut2" type="matrix" values="0 0 0 0 0 0 0 0 0 0 0 0 0 0 0 0 0 0 .4 0"/><feOffset dx="4.0" dy="4.0" in="blurOut2" result="blurOut3"/><feBlend in="SourceGraphic" in2="blurOut3" mode="normal"/></filter></defs><g><text fill="#000000" font-family="sans-serif" font-size="18" lengthAdjust="spacingAndGlyphs" textLength="79" x="138.75" y="27.4023">BcUpload</text><polygon fill="#000000" filter="url(#f9dkqd7)" points="122.8185,44.3678,120.8283,46.9777,119.518,48.8153,117.6797,49.5103,114.7423,50.501,112.2232,51.0564,110.2375,51.1282,108.1035,49.3809,105.5996,48.3166,104.4009,45.3432,103.628,43.5801,102.413,40.799,102.8449,38.8172,103.9524,36.9698,104.8865,34.7364,107.239,32.6121,109.4854,31.4442,111.845,30.9183,113.6134,31.7247,115.4453,31.3477,118.4896,32.5398,119.8727,34.4288,121.5639,36.8673,122.7203,39.7297,122.2893,42.5682" style="stroke: none; stroke-width: 1.0;"/><polygon fill="#FEFECE" filter="url(#f9dkqd7)" points="22.5,71.1992,22.5,70.9012,32.5556,70.712,42.6111,71.0837,52.6667,71.6603,62.7222,70.8467,72.7778,71.5244,82.8333,71.6403,92.8889,70.7804,102.9444,71.2014,113,71.5848,123.0556,71.6765,133.1111,70.7156,143.1667,70.8297,153.2222,71.8165,163.2778,70.9187,173.3333,70.5312,183.3889,70.8107,193.4444,71.1053,203.5,71.1992,203.4045,70.9688,205.3152,72.046,206.9628,72.488,208.7358,73.233,210.6504,74.3197,212.3388,74.8604,212.5657,74.9544,212.8538,76.5382,213.8829,78.4289,214.65,80.2111,215.1677,81.89,216,83.6992,215.9818,83.6992,215.8883,85.5258,215.9635,87.3523,215.8627,89.1789,216.2366,91.0055,216,92.832,216.1227,92.8829,215.1539,94.5526,214.3365,96.2851,213.9714,98.205,213.053,99.8956,212.3388,101.6709,212.4135,101.851,210.6473,102.5872,208.8973,103.3624,207.0822,103.9803,205.2186,104.4812,203.5,105.332,203.5,104.6563,193.4444,104.7263,183.3889,105.0154,173.3333,105.9217,163.2778,104.8422,153.2222,105.7332,143.1667,105.8069,133.1111,104.8649,123.0556,105.6841,113,104.7819,102.9444,104.6077,92.8889,105.2088,82.8333,105.6448,72.7778,105.6585,62.7222,104.8512,52.6667,105.5034,42.6111,105.8167,32.5556,105.4788,22.5,105.332,22.4175,105.1329,20.7398,104.6181,19.0322,104.031,17.1066,102.9179,15.4636,102.4867,13.6612,101.6709,13.5325,101.6176,12.8086,99.8533,12.0036,98.0553,11.5471,96.4018,10.5448,94.5222,10,92.832,10.0722,92.832,10.0276,91.0055,10.0523,89.1789,9.906,87.3523,9.7694,85.5258,10,83.6992,10.0015,83.6999,10.6482,81.8967,11.31,80.0997,12.1566,78.3793,12.7493,76.5537,13.6612,74.8604,13.6773,74.8995,15.4749,74.2391,17.1725,73.3374,18.9484,72.6249,20.6921,71.8345,22.5,71.1992" style="stroke: #A80036; stroke-width: 1.5;"/><text fill="#000000" font-family="sans-serif" font-size="12" lengthAdjust="spacingAndGlyphs" textLength="186" x="20" y="92.8008">BcUploadBehavior::beforeDelete</text><polygon fill="#FFFFFF" filter="url(#f9dkqd7)" points="24.5,115.7852,24.5,116.5331,34.5625,115.9357,44.625,115.7338,54.6875,115.6554,64.75,115.5985,74.8125,115.7457,84.875,116.4494,94.9375,115.9795,105,116.0758,115.0625,115.1563,125.125,115.1419,135.1875,115.4202,145.25,116.2455,155.3125,115.548,165.375,116.1585,175.4375,115.3287,185.5,116.2189,195.5625,115.1631,205.625,115.5165,215.6875,115.8327,225.75,116.1828,235.8125,115.9459,245.875,115.3689,255.9375,115.9235,266,115.9112,276.0625,115.845,286.125,116.3598,296.1875,115.7357,306.25,115.7836,316.3125,116.1477,326.375,116.2089,336.4375,115.4921,346.5,115.7852,346.9664,115.7852,346.3444,125.7368,346.349,135.6883,345.9008,145.6399,345.8735,155.5915,346.6312,165.5431,347.2199,175.4947,346.0321,185.4463,345.7656,195.3979,346.1686,205.3495,346.6399,215.3011,346.0953,225.2527,346.325,235.2043,347.0878,245.1559,346.9673,255.1075,346.0438,265.0591,346.8229,275.0107,346.5345,284.9623,346.6221,294.9139,346.6168,304.8655,346.0154,314.8171,346.2041,324.7687,346.3701,334.7203,346.5,344.6719,346.5,345.3949,336.4375,344.3696,326.375,344.5588,316.3125,345.315,306.25,344.1899,296.1875,344.8667,286.125,343.9526,276.0625,344.0009,266,345.0733,255.9375,344.0584,245.875,344.3462,235.8125,345.0373,225.75,345.0578,215.6875,344.1322,205.625,344.009,195.5625,344.0497,185.5,344.8294,175.4375,344.1094,165.375,344.7511,155.3125,345.2015,145.25,344.8264,135.1875,344.3127,125.125,345.1319,115.0625,344.368,105,345.3155,94.9375,344.8328,84.875,344.2011,74.8125,345.2006,64.75,344.2297,54.6875,344.2002,44.625,344.4582,34.5625,345.1215,24.5,344.6719,23.7948,344.6719,25.2189,334.7203,25.2252,324.7687,24.6089,314.8171,24.7413,304.8655,23.8033,294.9139,24.9171,284.9623,24.3351,275.0107,25.0033,265.0591,24.0023,255.1075,24.5478,245.1559,24.1351,235.2043,24.674,225.2527,25.1222,215.3011,24.1884,205.3495,23.8329,195.3979,23.9606,185.4463,24.3289,175.4947,23.8293,165.5431,24.4865,155.5915,24.1296,145.6399,24.4643,135.6883,23.8461,125.7368,24.5,115.7852" style="stroke: #000000; stroke-width: 2.0;"/><path d="M76.5,116.7852 L75.8714,116.7852 L76.0551,118.4828 L76.6059,120.1805 L76.1451,121.8781 L76.7402,123.5758 L76.5,125.2734 L76.5801,125.3536 L74.474,127.2474 L72.0602,128.8337 L70.5663,131.3397 L68.1165,132.8899 L66.5,135.2734 L66.5,135.1268 L58.1,135.7644 L49.7,135.4248 L41.3,134.6984 L32.9,135.3056 L24.5,135.2734 " fill="#FFFFFF" style="stroke: #000000; stroke-width: 2.0;"/><text fill="#000000" font-family="sans-serif" font-size="14" lengthAdjust="spacingAndGlyphs" textLength="42" x="27.5" y="130.3203">削除前</text><polygon fill="#FEFECE" filter="url(#f9dkqd7)" points="85,152.2734,85,151.5297,94.3333,152.11,103.6667,152.9418,113,151.8621,122.3333,152.8401,131.6667,152.1416,141,152.2734,140.9616,152.1808,142.6885,152.8142,144.6181,153.9373,146.2811,154.4166,148.1615,155.4206,149.8388,155.9346,149.9788,155.9926,150.3595,157.6147,151.4884,159.5468,151.9418,161.1991,152.6929,162.9747,153.5,164.7734,153.306,164.7734,153.2927,166.6,153.4531,168.4266,153.3808,170.2531,153.5041,172.0797,153.5,173.9063,153.3607,173.8485,152.8359,175.7022,152.0316,177.4401,151.4048,179.2516,150.3543,180.8875,149.8388,182.7451,149.7887,182.624,148.1114,183.5748,146.3811,184.3975,144.4533,184.7432,142.7694,185.678,141,186.4063,141,186.745,131.6667,186.9979,122.3333,187.0419,113,186.251,103.6667,186.8734,94.3333,186.6255,85,186.4063,84.9677,186.3282,83.1835,185.5563,81.5124,185.0576,79.663,184.1283,77.8885,183.3798,76.1612,182.7451,76.1454,182.7386,75.5421,181.0242,74.794,179.2499,73.8947,177.4129,73.095,175.6172,72.5,173.9063,72.6077,173.9063,72.2635,172.0797,72.2604,170.2531,72.6652,168.4266,72.5922,166.6,72.5,164.7734,72.2863,164.6849,73.203,162.9935,74.1408,161.3109,74.904,159.556,75.5577,157.7557,76.1612,155.9346,76.0663,155.7055,78.0021,155.379,79.7182,154.522,81.425,153.6425,83.2657,153.0866,85,152.2734" style="stroke: #A80036; stroke-width: 1.5;"/><text fill="#000000" font-family="sans-serif" font-size="12" lengthAdjust="spacingAndGlyphs" textLength="61" x="82.5" y="173.875">deleteFiles</text><polygon fill="#FBFB77" filter="url(#f9dkqd7)" points="211.5,225.8174,211.5126,225.8174,211.6301,230.8795,211.4421,235.9416,211.6083,241.0037,211.5899,246.0658,211.5,251.1279,211.5,250.5254,221.1154,251.3247,230.7308,251.0759,240.3462,251.7001,249.9615,250.8006,259.5769,251.4968,269.1923,251.1083,278.8077,250.6639,288.4231,250.9617,298.0385,251.4916,307.6538,251.6477,317.2692,251.355,326.8846,250.5013,336.5,251.1279,336.4623,251.1279,336.6618,248.0658,336.2552,245.0037,336.7081,241.9416,336.3944,238.8795,336.5,235.8174,336.4567,235.774,334.6363,233.9537,332.3346,231.6519,330.3738,229.6911,328.6709,227.9883,326.5,225.8174,326.5,225.3528,316.9167,225.1827,307.3333,225.8618,297.75,225.2496,288.1667,225.5762,278.5833,226.0465,269,225.7168,259.4167,226.1136,249.8333,225.9085,240.25,226.4105,230.6667,226.1531,221.0833,225.1128,211.5,225.8174" style="stroke: #A80036; stroke-width: 1.0;"/><polygon fill="#FBFB77" points="211.5,225.8174,211.5252,225.8174,211.7139,227.5484,211.4365,229.2795,211.611,231.0105,211.5952,232.7416,211.5,234.4727,211.541,234.6775,207.5126,235.3358,203.5262,236.2036,199.4656,236.7008,195.4812,237.5785,191.5,238.4727,191.4624,238.2848,195.513,239.3378,199.4866,240.0056,203.4948,240.8468,207.4678,241.5116,211.5,242.4727,211.632,242.4727,211.5825,244.2037,211.4452,245.9348,211.5811,247.6658,211.2661,249.3969,211.5,251.1279,211.5,250.7001,221.1154,251.8394,230.7308,250.5486,240.3462,250.4631,249.9615,251.6292,259.5769,251.1316,269.1923,250.4658,278.8077,250.5016,288.4231,251.7423,298.0385,250.9912,307.6538,250.8125,317.2692,250.6581,326.8846,250.6547,336.5,251.1279,336.3348,251.1279,336.2514,248.0658,336.27,245.0037,336.2505,241.9416,336.4841,238.8795,336.5,235.8174,336.5833,235.9007,334.4003,233.7177,332.4619,231.7793,330.3939,229.7113,328.5082,227.8256,326.5,225.8174,326.5,225.3695,316.9167,225.6037,307.3333,225.5574,297.75,226.2517,288.1667,226.0549,278.5833,226.0939,269,226.3622,259.4167,225.3672,249.8333,225.7207,240.25,226.2552,230.6667,225.6425,221.0833,226.541,211.5,225.8174" style="stroke: #A80036; stroke-width: 1.0;"/><path d="M326.5,225.8174 L326.719,225.8174 L326.3627,227.8174 L326.4323,229.8174 L326.2475,231.8174 L326.3098,233.8174 L326.5,235.8174 " fill="#FBFB77" style="stroke: #A80036; stroke-width: 1.0;"/><path d="M336.5,235.8174 L336.5,235.6722 L334.5,235.9854 L332.5,235.6821 L330.5,236.1335 L328.5,235.9708 L326.5,235.8174 " fill="#FBFB77" style="stroke: #A80036; stroke-width: 1.0;"/><text fill="#000000" font-family="sans-serif" font-size="13" lengthAdjust="spacingAndGlyphs" textLength="104" x="217.5" y="243.3857">全てを対象とする</text><polygon fill="#FEFECE" filter="url(#f9dkqd7)" points="47,221.4063,47,221.8942,57.1538,221.4452,67.3077,221.8804,77.4615,222.0356,87.6154,221.9003,97.7692,220.8327,107.9231,220.8979,118.0769,221.2175,128.2308,221.8494,138.3846,221.8988,148.5385,220.8211,158.6923,221.3603,168.8462,220.7277,179,221.4063,179.0851,221.6117,180.8152,222.253,182.5673,222.9475,184.3914,223.8155,186.0671,224.3256,187.8388,225.0674,187.6553,224.9914,188.425,226.7747,189.38,228.6347,190.128,230.409,190.9892,232.2302,191.5,233.9063,191.6953,233.9063,191.2934,235.7328,191.679,237.5594,191.3266,239.3859,191.3759,241.2125,191.5,243.0391,191.3645,242.9829,190.6267,244.7484,190.2632,246.6689,189.2215,248.3085,188.7575,250.1874,187.8388,251.8779,187.7715,251.7153,186.077,252.6244,184.2119,253.1216,182.6104,254.2554,180.6882,254.6148,179,255.5391,179,255.2109,168.8462,255.1688,158.6923,255.3952,148.5385,256.1276,138.3846,255.8851,128.2308,256.1222,118.0769,255.0638,107.9231,255.3738,97.7692,255.3951,87.6154,255.0003,77.4615,254.9249,67.3077,255.8103,57.1538,255.8647,47,255.5391,46.9948,255.5266,45.192,254.7098,43.4454,254.0285,41.6952,253.3388,40.0093,252.8042,38.1612,251.8779,38.1095,251.8565,37.2748,250.0463,36.4714,248.249,35.9594,246.5725,35.1092,244.7559,34.5,243.0391,34.5197,243.0391,34.6685,241.2125,34.3565,239.3859,34.3546,237.5594,34.4306,235.7328,34.5,233.9063,34.4061,233.8673,35.2012,232.1256,36.123,230.4364,36.7038,228.6059,37.4787,226.8558,38.1612,225.0674,38.2495,225.2807,39.9096,224.2885,41.775,223.792,43.5489,223.0747,45.3232,222.3582,47,221.4063" style="stroke: #A80036; stroke-width: 1.5;"/><text fill="#000000" font-family="sans-serif" font-size="12" lengthAdjust="spacingAndGlyphs" textLength="137" x="44.5" y="243.0078">deleteFileWhileChecking</text><polygon fill="#FBFB77" filter="url(#f9dkqd7)" points="170.5,294.9502,170.636,294.9502,170.6654,300.0123,170.4946,305.0744,170.623,310.1365,170.5213,315.1986,170.5,320.2607,170.5,320.6938,180.3571,320.4689,190.2143,320.568,200.0714,320.1137,209.9286,320.2236,219.7857,320.6884,229.6429,320.6987,239.5,320.0563,249.3571,320.4695,259.2143,319.5843,269.0714,320.4021,278.9286,319.8611,288.7857,320.0733,298.6429,319.9263,308.5,320.2607,308.4692,320.2607,308.5982,317.1986,308.5827,314.1365,308.3168,311.0744,308.4211,308.0123,308.5,304.9502,308.3658,304.816,306.6506,303.1008,304.6358,301.086,302.5245,298.9747,300.5917,297.0419,298.5,294.9502,298.5,295.4245,288.6538,295.0846,278.8077,294.8981,268.9615,294.8813,259.1154,295.2212,249.2692,295.5725,239.4231,294.6158,229.5769,294.5202,219.7308,295.2311,209.8846,295.0328,200.0385,295.3739,190.1923,294.428,180.3462,294.2253,170.5,294.9502" style="stroke: #A80036; stroke-width: 1.0;"/><polygon fill="#FBFB77" points="170.5,294.9502,170.4784,294.9502,170.6322,296.6813,170.3667,298.4123,170.424,300.1434,170.502,301.8744,170.5,303.6055,170.5174,303.6925,166.4566,304.1885,162.4862,305.1365,158.4698,305.8544,154.4756,306.6837,150.5,307.6055,150.5073,307.642,154.455,308.1805,158.5487,309.449,162.4781,309.8958,166.4613,310.6119,170.5,311.6055,170.3912,311.6055,170.5938,313.3365,170.4478,315.0676,170.431,316.7986,170.4766,318.5297,170.5,320.2607,170.5,320.5687,180.3571,320.1489,190.2143,320.0461,200.0714,320.3532,209.9286,320.9339,219.7857,320.2408,229.6429,319.6424,239.5,319.5226,249.3571,320.8342,259.2143,319.6742,269.0714,320.6582,278.9286,319.5208,288.7857,320.6825,298.6429,320.1602,308.5,320.2607,308.2711,320.2607,308.4392,317.1986,308.3443,314.1365,308.595,311.0744,308.3838,308.0123,308.5,304.9502,308.5504,305.0006,306.4126,302.8628,304.4268,300.877,302.3805,298.8307,300.3833,296.8335,298.5,294.9502,298.5,295.027,288.6538,294.3717,278.8077,295.0581,268.9615,295.0506,259.1154,294.6508,249.2692,295.5066,239.4231,294.2363,229.5769,294.908,219.7308,294.8994,209.8846,295.6424,200.0385,295.2959,190.1923,295.0379,180.3462,294.6095,170.5,294.9502" style="stroke: #A80036; stroke-width: 1.0;"/><path d="M298.5,294.9502 L298.5897,294.9502 L298.479,296.9502 L298.6504,298.9502 L298.7779,300.9502 L298.8213,302.9502 L298.5,304.9502 " fill="#FBFB77" style="stroke: #A80036; stroke-width: 1.0;"/><path d="M308.5,304.9502 L308.5,304.8605 L306.5,304.7884 L304.5,305.2523 L302.5,305.2616 L300.5,304.6682 L298.5,304.9502 " fill="#FBFB77" style="stroke: #A80036; stroke-width: 1.0;"/><text fill="#000000" font-family="sans-serif" font-size="13" lengthAdjust="spacingAndGlyphs" textLength="117" x="176.5" y="312.5186">対象ファイルを削除</text><polygon fill="#FEFECE" filter="url(#f9dkqd7)" points="88,290.5391,88,289.9582,98,291.0265,108,290.5474,118,290.0116,128,290.5308,138,290.5391,137.9721,290.4717,139.7709,291.2788,141.5337,291.999,143.2855,292.6929,145.1094,293.5605,146.8388,294.2002,147.0041,294.2687,147.7502,296.0422,148.1158,297.6581,148.9565,299.4708,149.6065,301.2045,150.5,303.0391,150.3971,303.0391,150.7473,304.8656,150.7053,306.6922,150.5864,308.5188,150.4167,310.3453,150.5,312.1719,150.3713,312.1186,149.902,313.9953,149.1682,315.7624,148.5136,317.5623,147.5738,319.2441,146.8388,321.0107,146.8842,321.1202,145.1164,321.8523,143.3129,322.4983,141.4592,323.0232,139.6881,323.7472,138,324.6719,138,324.0691,128,323.9726,118,324.3203,108,324.1227,98,325.048,88,324.6719,87.9936,324.6565,86.2674,324.0245,84.5215,323.345,82.7662,322.643,80.9594,321.8166,79.1612,321.0107,79.1623,321.0112,78.5952,319.3118,77.5346,317.408,77.1768,315.7954,76.2672,313.9541,75.5,312.1719,75.2871,312.1719,75.4883,310.3453,75.7477,308.5188,75.2619,306.6922,75.451,304.8656,75.5,303.0391,75.6658,303.1077,76.2641,301.2845,76.8807,299.4688,77.5512,297.6755,78.5988,296.0384,79.1612,294.2002,79.0988,294.0497,80.9866,293.6071,82.7644,292.8993,84.4912,292.068,86.2725,291.3685,88,290.5391" style="stroke: #A80036; stroke-width: 1.5;"/><text fill="#000000" font-family="sans-serif" font-size="12" lengthAdjust="spacingAndGlyphs" textLength="55" x="85.5" y="312.1406">deleteFile</text><polygon fill="none" filter="url(#f9dkqd7)" points="122.2505,376.5823,121.6974,378.3835,120.8696,380.4817,118.7108,382.1328,117.1205,384.1593,114.6997,383.9653,111.5452,383.9499,109.226,383.345,107.4917,382.7897,105.2139,380.9153,104.3064,378.6772,102.9771,376.3474,102.7368,373.392,103.4846,370.7212,104.9813,368.937,106.2925,366.6062,108.1692,365.8598,111.4447,365.1682,113.4791,364.5994,116.6965,365.6676,119.6944,366.9078,120.6832,368.5429,122.0894,370.0806,122.6146,372.648,122.5463,374.5626,122.0674,377.7004" style="stroke: #000000; stroke-width: 1.0;"/><polygon fill="#000000" filter="url(#f9dkqd7)" points="119.2503,376.4817,118.7329,377.5492,118.0995,378.6298,117.2542,380.2559,115.7472,380.8595,113.8871,381.0131,112.7274,380.7712,111.0758,381.0339,109.3362,379.839,108.5431,377.9315,107.3821,376.5575,107.6723,374.4895,107.6216,372.8542,109.0224,371.5209,110.38,370.3226,112.1087,369.2588,113.1901,369.1087,115.148,369.4948,116.0407,370.0329,117.3521,370.2861,118.6696,371.8,119.0235,373.2196,119.6635,374.184,119.29,376.1258" style="stroke: none; stroke-width: 1.0;"/><path d="M113,51.1992 L113.2497,51.1992 L112.9761,55.1992 L112.9794,59.1992 L113.3042,63.1992 L113.1841,67.1992 L113,71.1992 " fill="#A80036" style="stroke: #A80036; stroke-width: 1.5;"/><polygon fill="#A80036" points="109,61.1992,108.9966,61.1978,109.8902,63.2353,110.8214,65.2878,111.4933,67.2366,112.1469,69.178,113,71.1992,112.8149,71.1252,114.0106,69.2835,114.7603,67.2633,115.2978,65.1583,116.1449,63.1772,117,61.1992,116.9997,61.199,116.3664,62.1656,115.3823,62.7815,114.5582,63.5574,113.642,64.2412,113,65.1992,112.9032,65.1024,112.2667,64.466,111.473,63.6722,110.663,62.8622,109.6729,61.8722,109,61.1992" style="stroke: #A80036; stroke-width: 1.0;"/><path d="M113,186.4063 L112.7626,186.4063 L113.1298,193.4063 L113.2646,200.4063 L113.2186,207.4063 L113.3118,214.4063 L113,221.4063 " fill="#A80036" style="stroke: #A80036; stroke-width: 1.5;"/><polygon fill="#A80036" points="109,211.4063,108.9997,211.4061,109.658,213.3495,110.5251,215.3763,111.4665,217.4329,112.109,219.3698,113,221.4063,113.0544,221.428,113.8298,219.4182,114.6893,217.442,115.216,215.3327,116.2212,213.4147,117,211.4063,116.8858,211.292,116.2584,212.2646,115.573,213.1793,114.4911,213.6974,113.8908,214.6971,113,215.4063,113.1212,215.5275,112.1803,214.5865,111.4778,213.8841,110.6048,213.011,109.9649,212.3711,109,211.4063" style="stroke: #A80036; stroke-width: 1.0;"/><path d="M113,255.5391 L113.2398,255.5391 L112.7015,262.5391 L113.2455,269.5391 L113.0124,276.5391 L112.8299,283.5391 L113,290.5391 " fill="#A80036" style="stroke: #A80036; stroke-width: 1.5;"/><polygon fill="#A80036" points="109,280.5391,108.9748,280.529,109.8514,282.5596,110.6754,284.5692,111.6218,286.6278,112.3332,288.5923,113,290.5391,112.9461,290.5175,113.9569,288.6018,114.5578,286.5222,115.2861,284.4935,116.38,282.6111,117,280.5391,116.9223,280.4614,116.0894,281.2285,115.4202,282.1592,114.5728,282.9119,113.7338,283.6729,113,284.5391,112.9381,284.4771,112.1419,283.681,111.3004,282.8395,110.4992,282.0383,109.7198,281.2589,109,280.5391" style="stroke: #A80036; stroke-width: 1.0;"/><path d="M113,105.332 L113.1447,105.332 L112.7982,114.7203 L113.4832,124.1086 L113.211,133.4969 L113.8219,142.8852 L113,152.2734 " fill="#A80036" style="stroke: #A80036; stroke-width: 1.5;"/><polygon fill="#A80036" points="109,142.2734,108.9874,142.2684,109.5715,144.182,110.5301,146.2455,111.5095,148.3172,112.3411,150.3299,113,152.2734,112.9602,152.2575,113.8137,150.2789,114.6522,148.2943,115.5171,146.3203,116.253,144.2946,117,142.2734,116.8598,142.1332,116.1335,143.0069,115.5564,144.0299,114.4841,144.5576,113.6901,145.3635,113,146.2734,112.8561,146.1296,112.2054,145.4788,111.4277,144.7012,110.5251,143.7986,109.7021,142.9755,109,142.2734" style="stroke: #A80036; stroke-width: 1.0;"/><path d="M113,324.6719 L112.7934,324.6719 L113.0774,332.6719 L112.7401,340.6719 L113.2327,348.6719 L113.0314,356.6719 L113,364.6719 " fill="#A80036" style="stroke: #A80036; stroke-width: 1.5;"/><polygon fill="#A80036" points="109,354.6719,109.1321,354.7247,109.8462,356.6904,110.5226,358.6409,111.2126,360.5969,112.2012,362.6724,113,364.6719,113.1653,364.738,114.0262,362.7624,114.5853,360.666,115.2606,358.6161,116.3488,356.7314,117,354.6719,117.1124,354.7843,116.1688,355.4406,115.2682,356.1401,114.7326,357.2045,113.7704,357.8422,113,358.6719,112.9058,358.5776,112.2988,357.9706,111.5329,357.2048,110.5939,356.2658,109.9267,355.5986,109,354.6719" style="stroke: #A80036; stroke-width: 1.0;"/></g></svg>