<?xml version="1.0" encoding="UTF-8" standalone="no"?><svg xmlns="http://www.w3.org/2000/svg" xmlns:xlink="http://www.w3.org/1999/xlink" contentScriptType="application/ecmascript" contentStyleType="text/css" height="407px" preserveAspectRatio="none" style="width:466px;height:407px;" version="1.1" viewBox="0 0 466 407" width="466px" zoomAndPan="magnify"><defs><filter height="300%" id="fxx0udr" width="300%" x="-1" y="-1"><feGaussianBlur result="blurOut" stdDeviation="2.0"/><feColorMatrix in="blurOut" result="blurOut2" type="matrix" values="0 0 0 0 0 0 0 0 0 0 0 0 0 0 0 0 0 0 .4 0"/><feOffset dx="4.0" dy="4.0" in="blurOut2" result="blurOut3"/><feBlend in="SourceGraphic" in2="blurOut3" mode="normal"/></filter></defs><g><text fill="#000000" font-family="sans-serif" font-size="18" lengthAdjust="spacingAndGlyphs" textLength="79" x="194.75" y="27.4023">BcUpload</text><polygon fill="#000000" filter="url(#fxx0udr)" points="123.8441,43.8094,122.9695,45.6261,121.5654,47.421,119.6574,49.4931,116.9944,51.4329,114.6722,50.7467,112.1002,50.365,110.1111,50.4288,107.9617,49.4006,105.8753,46.5398,104.8944,44.411,104.6025,41.8832,104.6128,38.6526,105.8891,37.2099,107.2191,34.6358,109.2493,32.2801,111.1506,31.8327,113.7274,31.7402,116.5624,31.376,119.9063,32.4864,121.3871,34.5263,123.4835,35.9781,123.7696,38.1328,124.8301,41.313" style="stroke: none; stroke-width: 1.0;"/><polygon fill="#FEFECE" filter="url(#fxx0udr)" points="22.5,71.1992,22.5,71.2911,32.7222,70.6949,42.9444,70.6318,53.1667,71.039,63.3889,71.5805,73.6111,71.7664,83.8333,70.816,94.0556,70.6357,104.2778,71.9163,114.5,71.436,124.7222,71.796,134.9444,71.1058,145.1667,71.7827,155.3889,71.0371,165.6111,70.4656,175.8333,71.8969,186.0556,71.0613,196.2778,70.8418,206.5,71.1992,206.4796,71.15,208.2336,71.849,210.097,72.8122,211.7247,73.2062,213.5828,74.1566,215.3388,74.8604,215.5015,74.9278,216.2784,76.714,216.7889,78.39,217.6443,80.2088,218.3021,81.9457,219,83.6992,218.8386,83.6992,219.0476,85.5258,219.1406,87.3523,219.0865,89.1789,218.9419,91.0055,219,92.832,218.9095,92.7945,218.0473,94.5085,217.4441,96.3297,216.8507,98.155,216.1989,99.956,215.3388,101.6709,215.2622,101.4859,213.606,102.4874,211.8411,103.2266,210.063,103.9338,208.2439,104.5421,206.5,105.332,206.5,105.4308,196.2778,105.0613,186.0556,105.8655,175.8333,105.846,165.6111,104.6715,155.3889,104.6301,145.1667,105.5699,134.9444,106.0762,124.7222,105.45,114.5,105.6078,104.2778,105.0632,94.0556,105.7168,83.8333,105.0299,73.6111,105.9321,63.3889,105.9745,53.1667,104.9657,42.9444,105.9979,32.7222,106.009,22.5,105.332,22.5117,105.3603,20.6539,104.4107,18.8769,103.6562,17.1464,103.014,15.4308,102.4077,13.6612,101.6709,13.6878,101.6819,13.1238,99.9838,12.0561,98.0771,11.6433,96.4416,10.6756,94.5763,10,92.832,10.1066,92.832,10.0566,91.0055,9.7573,89.1789,10.0013,87.3523,9.9757,85.5258,10,83.6992,9.806,83.6189,10.6661,81.904,11.5999,80.2198,11.987,78.309,13.01,76.6618,13.6612,74.8604,13.6568,74.8499,15.4495,74.1778,17.179,73.3532,19.0471,72.8632,20.747,71.967,22.5,71.1992" style="stroke: #A80036; stroke-width: 1.5;"/><text fill="#000000" font-family="sans-serif" font-size="12" lengthAdjust="spacingAndGlyphs" textLength="189" x="20" y="92.8008">BcUploadBehavior::saveTmpFiles</text><polygon fill="#FFFFFF" filter="url(#fxx0udr)" points="41.5,115.7852,41.5,116.1464,51.4286,115.6029,61.3571,116.0164,71.2857,115.8862,81.2143,115.9292,91.1429,115.5257,101.0714,115.513,111,115.6287,120.9286,115.0898,130.8571,115.4948,140.7857,115.7795,150.7143,115.6802,160.6429,115.0611,170.5714,115.9072,180.5,115.1457,190.4286,115.2656,200.3571,116.2948,210.2857,115.1203,220.2143,116.4741,230.1429,115.3403,240.0714,116.0991,250,116.1249,259.9286,115.747,269.8571,116.4069,279.7857,115.3566,289.7143,116.0629,299.6429,116.1367,309.5714,115.0404,319.5,115.5822,329.4286,115.8037,339.3571,115.062,349.2857,116.2962,359.2143,116.4652,369.1429,116.4664,379.0714,115.6721,389,116.4143,398.9286,115.3562,408.8571,116.2056,418.7857,116.5272,428.7143,115.9834,438.6429,115.1246,448.5714,115.7788,458.5,115.7852,459.1801,115.7852,458.2206,125.924,458.6277,136.0628,458.0957,146.2016,458.9685,156.3404,458.796,166.4792,457.7703,176.618,458.6732,186.7568,458.8388,196.8956,458.4525,207.0345,459.0301,217.1733,458.9327,227.3121,458.8966,237.4509,458.4605,247.5897,458.829,257.7285,459.0135,267.8673,458.6774,278.0061,458.3069,288.1449,457.8126,298.2838,457.8291,308.4226,458.7935,318.5614,457.8482,328.7002,458.895,338.839,457.871,348.9778,458.6793,359.1166,458.0284,369.2554,457.876,379.3943,457.8283,389.5331,458.5,399.6719,458.5,400.0672,448.5714,399.0982,438.6429,399.4802,428.7143,400.3757,418.7857,399.9701,408.8571,399.9634,398.9286,399.6915,389,399.3651,379.0714,399.2866,369.1429,399.8104,359.2143,399.2349,349.2857,400.1263,339.3571,399.258,329.4286,400.0683,319.5,399.0489,309.5714,400.1844,299.6429,399.0375,289.7143,400.2241,279.7857,400.256,269.8571,399.1061,259.9286,398.9283,250,399.8537,240.0714,399.8209,230.1429,400.2315,220.2143,399.8482,210.2857,399.4127,200.3571,400.2172,190.4286,400.1658,180.5,400.0947,170.5714,399.6416,160.6429,400.3232,150.7143,398.9232,140.7857,400.0638,130.8571,399.4488,120.9286,398.9792,111,399.5593,101.0714,400.0429,91.1429,400.1543,81.2143,398.9907,71.2857,399.3474,61.3571,399.5604,51.4286,399.5098,41.5,399.6719,41.1806,399.6719,41.8625,389.5331,41.3523,379.3943,41.2946,369.2554,41.4348,359.1166,41.7842,348.9778,40.8486,338.839,41.5526,328.7002,41.8436,318.5614,41.1366,308.4226,42.0093,298.2838,41.5115,288.1449,41.4775,278.0061,41.4728,267.8673,41.7711,257.7285,41.8389,247.5897,41.3718,237.4509,42.0412,227.3121,41.1705,217.1733,41.986,207.0345,41.101,196.8956,41.8909,186.7568,41.5156,176.618,41.6112,166.4792,41.9569,156.3404,41.7414,146.2016,41.3747,136.0628,42.0159,125.924,41.5,115.7852" style="stroke: #000000; stroke-width: 2.0;"/><path d="M317.5,116.7852 L316.9612,116.7852 L317.0165,118.4828 L317.3256,120.1805 L317.3738,121.8781 L317.0745,123.5758 L317.5,125.2734 L317.2278,125.0012 L315.8845,127.6579 L313.2389,129.0124 L311.3006,131.0741 L309.2892,133.0626 L307.5,135.2734 L307.5,134.5468 L297.6481,137.1879 L287.7963,136.7644 L277.9444,134.2326 L268.0926,133.6495 L258.2407,133.4996 L248.3889,136.0028 L238.537,136.3991 L228.6852,133.7707 L218.8333,133.4199 L208.9815,137.0234 L199.1296,136.2676 L189.2778,136.2707 L179.4259,136.8462 L169.5741,136.998 L159.7222,135.9097 L149.8704,136.0892 L140.0185,135.7019 L130.1667,136.002 L120.3148,133.6171 L110.463,135.0916 L100.6111,136.2396 L90.7593,135.9462 L80.9074,134.6285 L71.0556,135.2901 L61.2037,136.1688 L51.3519,133.9193 L41.5,135.2734 " fill="#FFFFFF" style="stroke: #000000; stroke-width: 2.0;"/><text fill="#000000" font-family="sans-serif" font-size="14" lengthAdjust="spacingAndGlyphs" textLength="266" x="44.5" y="130.3203">アップロードファイルをセッションに保存</text><polygon fill="#FBFB77" filter="url(#fxx0udr)" points="183.5,156.6846,183.4236,156.6846,183.705,161.7467,183.3049,166.8088,183.3894,171.8709,183.74,176.933,183.5,181.9951,183.5,182.02,193.5667,182.721,203.6333,182.0561,213.7,181.5584,223.7667,181.6409,233.8333,182.5543,243.9,182.0121,253.9667,182.0661,264.0333,181.8087,274.1,181.4114,284.1667,182.6826,294.2333,181.3229,304.3,181.6646,314.3667,182.011,324.4333,182.6542,334.5,181.9951,334.6921,181.9951,334.6199,178.933,334.4702,175.8709,334.3885,172.8088,334.74,169.7467,334.5,166.6846,334.648,166.8325,332.3263,164.5109,330.3356,162.5202,328.5934,160.778,326.6429,158.8274,324.5,156.6846,324.5,157.4302,314.4286,157.2208,304.3571,156.0675,294.2857,156.9213,284.2143,156.6325,274.1429,156.4831,264.0714,156.9137,254,156.4528,243.9286,156.8056,233.8571,156.3019,223.7857,156.0666,213.7143,156.8702,203.6429,156.2318,193.5714,156.2011,183.5,156.6846" style="stroke: #A80036; stroke-width: 1.0;"/><polygon fill="#FBFB77" points="183.5,156.6846,183.579,156.6846,183.5737,158.4156,183.2641,160.1467,183.4504,161.8777,183.3196,163.6088,183.5,165.3398,183.4862,165.2707,179.5385,166.3324,175.4878,166.8788,171.5393,167.9365,167.4514,168.297,163.5,169.3398,163.507,169.3751,167.5364,170.3218,171.5005,170.9426,175.5296,171.8878,179.4594,172.337,183.5,173.3398,183.5803,173.3398,183.3944,175.0709,183.3786,176.802,183.7299,178.533,183.2619,180.2641,183.5,181.9951,183.5,181.8099,193.5667,182.444,203.6333,181.2891,213.7,181.7569,223.7667,181.8668,233.8333,181.4734,243.9,182.3813,253.9667,181.6132,264.0333,182.6985,274.1,181.5907,284.1667,182.3232,294.2333,181.3549,304.3,181.3558,314.3667,181.6706,324.4333,182.7411,334.5,181.9951,334.6152,181.9951,334.6307,178.933,334.5311,175.8709,334.5724,172.8088,334.5233,169.7467,334.5,166.6846,334.5423,166.7268,332.6444,164.829,330.3573,162.5419,328.413,160.5976,326.4886,158.6731,324.5,156.6846,324.5,156.5532,314.4286,156.7521,304.3571,157.2494,294.2857,156.1457,284.2143,156.8163,274.1429,156.9963,264.0714,156.0246,254,156.0881,243.9286,156.6036,233.8571,156.2474,223.7857,156.2528,213.7143,156.2252,203.6429,156.4674,193.5714,157.3223,183.5,156.6846" style="stroke: #A80036; stroke-width: 1.0;"/><path d="M324.5,156.6846 L324.6707,156.6846 L324.3319,158.6846 L324.6168,160.6846 L324.2483,162.6846 L324.7167,164.6846 L324.5,166.6846 " fill="#FBFB77" style="stroke: #A80036; stroke-width: 1.0;"/><path d="M334.5,166.6846 L334.5,166.7293 L332.5,166.9227 L330.5,166.3564 L328.5,166.9165 L326.5,166.6013 L324.5,166.6846 " fill="#FBFB77" style="stroke: #A80036; stroke-width: 1.0;"/><text fill="#000000" font-family="sans-serif" font-size="13" lengthAdjust="spacingAndGlyphs" textLength="130" x="189.5" y="174.2529">複数フィールドを処理</text><polygon fill="#FEFECE" filter="url(#fxx0udr)" points="78,152.2734,78,153.0105,88.4286,152.2809,98.8571,152.5549,109.2857,151.9887,119.7143,152.5258,130.1429,152.3403,140.5714,151.978,151,152.2734,151.0622,152.4237,152.7679,153.0061,154.4432,153.5149,156.2661,154.3804,157.9766,154.9743,159.8388,155.9346,159.9444,155.9783,160.6747,157.7453,161.2011,159.4278,162.1769,161.2965,162.9936,163.0992,163.5,164.7734,163.3485,164.7734,163.4066,166.6,163.2601,168.4266,163.552,170.2531,163.3155,172.0797,163.5,173.9063,163.6852,173.983,162.773,175.6762,162.0757,177.4584,161.2603,179.1917,160.3843,180.8999,159.8388,182.7451,159.7817,182.6071,157.9784,183.2536,156.2518,184.0853,154.58,185.0492,152.7133,185.5426,151,186.4063,151,186.3572,140.5714,186.9172,130.1429,186.329,119.7143,186.0644,109.2857,186.9204,98.8571,186.3635,88.4286,186.1291,78,186.4063,78.0863,186.6147,76.1629,185.5067,74.5372,185.1174,72.6082,183.9959,71.0023,183.6545,69.1612,182.7451,69.1805,182.7531,68.5015,181.0074,67.8926,179.2907,66.7909,177.3699,66.3076,175.7052,65.5,173.9063,65.6733,173.9063,65.3345,172.0797,65.2833,170.2531,65.5937,168.4266,65.2614,166.6,65.5,164.7734,65.463,164.7581,66.0807,162.9429,67.1425,161.3116,67.8986,159.5538,68.2594,157.6321,69.1612,155.9346,69.1727,155.9625,70.8484,155.0078,72.6339,154.3186,74.5287,153.893,76.1596,152.8303,78,152.2734" style="stroke: #A80036; stroke-width: 1.5;"/><text fill="#000000" font-family="sans-serif" font-size="12" lengthAdjust="spacingAndGlyphs" textLength="78" x="75.5" y="173.875">saveTmpFiles</text><polygon fill="#FBFB77" filter="url(#fxx0udr)" points="197.5,225.8174,197.4844,225.8174,197.6964,230.8795,197.3157,235.9416,197.3748,241.0037,197.5582,246.0658,197.5,251.1279,197.5,251.5713,207.3333,250.5094,217.1667,251.3442,227,250.8914,236.8333,251.4102,246.6667,251.2078,256.5,251.4094,266.3333,251.7146,276.1667,251.643,286,251.7899,295.8333,251.8609,305.6667,251.6739,315.5,250.8071,325.3333,250.5372,335.1667,251.039,345,250.6682,354.8333,251.2208,364.6667,250.5656,374.5,251.1279,374.677,251.1279,374.6417,248.0658,374.3763,245.0037,374.2848,241.9416,374.6146,238.8795,374.5,235.8174,374.4593,235.7766,372.5247,233.8421,370.4029,231.7202,368.3593,229.6767,366.6145,227.9319,364.5,225.8174,364.5,226.2246,354.6765,226.0848,344.8529,225.9664,335.0294,226.3168,325.2059,226.3988,315.3824,226.1909,305.5588,226.3996,295.7353,225.7569,285.9118,225.6006,276.0882,225.667,266.2647,225.9741,256.4412,225.612,246.6176,225.949,236.7941,225.8077,226.9706,225.9285,217.1471,225.3855,207.3235,225.5064,197.5,225.8174" style="stroke: #A80036; stroke-width: 1.0;"/><polygon fill="#FBFB77" points="197.5,225.8174,197.558,225.8174,197.6136,227.5484,197.7094,229.2795,197.4941,231.0105,197.3035,232.7416,197.5,234.4727,197.5029,234.487,193.504,235.2926,189.5123,236.134,185.5464,237.1047,181.4531,237.438,177.5,238.4727,177.4889,238.417,181.456,239.0525,185.4978,240.0617,189.5169,240.9573,193.4657,241.501,197.5,242.4727,197.3502,242.4727,197.454,244.2037,197.3535,245.9348,197.6405,247.6658,197.4547,249.3969,197.5,251.1279,197.5,250.8883,207.3333,250.9238,217.1667,250.8118,227,250.5111,236.8333,251.3004,246.6667,250.6719,256.5,251.4867,266.3333,250.6593,276.1667,250.7258,286,251.8734,295.8333,250.9314,305.6667,250.9944,315.5,251.0782,325.3333,250.7973,335.1667,250.4177,345,251.1771,354.8333,251.4128,364.6667,250.9817,374.5,251.1279,374.7329,251.1279,374.4337,248.0658,374.573,245.0037,374.4801,241.9416,374.4997,238.8795,374.5,235.8174,374.51,235.8273,372.4374,233.7548,370.6468,231.9641,368.3386,229.656,366.3278,227.6451,364.5,225.8174,364.5,225.8223,354.6765,225.2999,344.8529,226.157,335.0294,226.4221,325.2059,225.2863,315.3824,226.1319,305.5588,226.5113,295.7353,225.1725,285.9118,226.4215,276.0882,225.4487,266.2647,225.3933,256.4412,226.132,246.6176,225.5375,236.7941,226.2124,226.9706,225.9708,217.1471,226.3029,207.3235,225.9159,197.5,225.8174" style="stroke: #A80036; stroke-width: 1.0;"/><path d="M364.5,225.8174 L364.3419,225.8174 L364.8047,227.8174 L364.422,229.8174 L364.2593,231.8174 L364.5319,233.8174 L364.5,235.8174 " fill="#FBFB77" style="stroke: #A80036; stroke-width: 1.0;"/><path d="M374.5,235.8174 L374.5,235.9307 L372.5,236.0764 L370.5,235.6003 L368.5,235.4891 L366.5,235.9485 L364.5,235.8174 " fill="#FBFB77" style="stroke: #A80036; stroke-width: 1.0;"/><text fill="#000000" font-family="sans-serif" font-size="13" lengthAdjust="spacingAndGlyphs" textLength="156" x="203.5" y="243.3857">リクエストデータを最適化</text><polygon fill="#FEFECE" filter="url(#fxx0udr)" points="64,221.4063,64,221.1866,74.1,220.7121,84.2,221.1181,94.3,220.6895,104.4,221.2502,114.5,221.0297,124.6,220.8637,134.7,220.9536,144.8,220.8505,154.9,221.8192,165,221.4063,165.006,221.4208,166.7814,222.1714,168.61,223.0504,170.3143,223.6295,172.053,224.2916,173.8388,225.0674,173.7849,225.0451,174.5789,226.8384,175.1506,228.5397,176.2514,230.4601,176.5836,232.0622,177.5,233.9063,177.7358,233.9063,177.5357,235.7328,177.4723,237.5594,177.293,239.3859,177.4478,241.2125,177.5,243.0391,177.3222,242.9654,176.6726,244.7674,175.8367,246.4922,175.3052,248.3432,174.446,250.0583,173.8388,251.8779,173.8472,251.8981,172.1395,252.7752,170.2496,253.2128,168.5521,254.1147,166.7291,254.7134,165,255.5391,165,255.1096,154.9,256.1189,144.8,254.8168,134.7,255.738,124.6,254.8214,114.5,255.0245,104.4,256.2785,94.3,255.036,84.2,255.6057,74.1,255.8769,64,255.5391,63.9309,255.3721,62.2258,254.7913,60.5473,254.2747,58.7051,253.3626,56.8379,252.3904,55.1612,251.8779,55.0407,251.828,54.2177,250.0226,53.8924,248.4234,52.8519,246.528,52.3419,244.8522,51.5,243.0391,51.3172,243.0391,51.2804,241.2125,51.691,239.3859,51.4299,237.5594,51.3195,235.7328,51.5,233.9063,51.7272,234.0004,52.0545,232.0649,53.0088,230.3891,53.864,228.6722,54.572,226.8944,55.1612,225.0674,55.1653,225.0774,56.9525,224.3921,58.7535,223.7402,60.391,222.6933,62.1387,221.9128,64,221.4063" style="stroke: #A80036; stroke-width: 1.5;"/><text fill="#000000" font-family="sans-serif" font-size="12" lengthAdjust="spacingAndGlyphs" textLength="106" x="61.5" y="243.0078">setupRequestData</text><polygon fill="#FBFB77" filter="url(#fxx0udr)" points="180.5,294.9502,180.6553,294.9502,180.3012,300.0123,180.3504,305.0744,180.4002,310.1365,180.3418,315.1986,180.5,320.2607,180.5,320.6771,190.4259,319.9336,200.3519,320.8551,210.2778,320.3292,220.2037,319.7264,230.1296,319.9961,240.0556,319.7574,249.9815,320.1761,259.9074,320.1188,269.8333,320.2566,279.7593,320.4395,289.6852,320.2469,299.6111,320.0008,309.537,319.8344,319.463,319.9032,329.3889,320.6222,339.3148,320.8816,349.2407,320.8612,359.1667,320.3674,369.0926,320.7402,379.0185,320.1706,388.9444,319.8124,398.8704,320.4386,408.7963,320.0915,418.7222,319.7996,428.6481,319.9677,438.5741,320.6218,448.5,320.2607,448.3546,320.2607,448.7308,317.1986,448.3559,314.1365,448.3834,311.0744,448.5816,308.0123,448.5,304.9502,448.5034,304.9536,446.4885,302.9387,444.6573,301.1075,442.6418,299.092,440.357,296.8072,438.5,294.9502,438.5,295.3472,428.5769,295.6344,418.6538,294.392,408.7308,295.0044,398.8077,294.3918,388.8846,295.3203,378.9615,295.0004,369.0385,294.6518,359.1154,294.2142,349.1923,294.7112,339.2692,294.7169,329.3462,295.3159,319.4231,295.1093,309.5,294.6787,299.5769,294.5391,289.6538,295.3482,279.7308,294.2225,269.8077,294.6135,259.8846,295.5217,249.9615,294.2043,240.0385,294.9629,230.1154,294.6055,220.1923,294.4204,210.2692,294.2291,200.3462,294.5223,190.4231,295.1154,180.5,294.9502" style="stroke: #A80036; stroke-width: 1.0;"/><polygon fill="#FBFB77" points="180.5,294.9502,180.3448,294.9502,180.7258,296.6813,180.6642,298.4123,180.3448,300.1434,180.5216,301.8744,180.5,303.6055,180.5141,303.6761,176.5173,304.492,172.5112,305.2615,168.5216,306.1136,164.4966,306.7886,160.5,307.6055,160.499,307.6004,164.4928,308.3694,168.5456,309.4334,172.5263,310.1369,176.5113,310.8619,180.5,311.6055,180.713,311.6055,180.4376,313.3365,180.3976,315.0676,180.3108,316.7986,180.4323,318.5297,180.5,320.2607,180.5,319.7546,190.4259,320.7177,200.3519,319.9875,210.2778,320.4926,220.2037,319.7464,230.1296,320.564,240.0556,320.4299,249.9815,319.8134,259.9074,320.8449,269.8333,320.4536,279.7593,320.1077,289.6852,319.5528,299.6111,320.4417,309.537,320.5064,319.463,320.6094,329.3889,321.0093,339.3148,320.3943,349.2407,319.7214,359.1667,319.5796,369.0926,320.593,379.0185,320.229,388.9444,320.9698,398.8704,320.809,408.7963,320.2744,418.7222,320.5571,428.6481,320.8901,438.5741,320.554,448.5,320.2607,448.6258,320.2607,448.4859,317.1986,448.4023,314.1365,448.5762,311.0744,448.2734,308.0123,448.5,304.9502,448.3384,304.7886,446.4692,302.9194,444.4201,300.8703,442.5266,298.9768,440.4479,296.8981,438.5,294.9502,438.5,294.3178,428.5769,294.3169,418.6538,294.8193,408.7308,295.0535,398.8077,295.4904,388.8846,295.6281,378.9615,295.3691,369.0385,295.095,359.1154,295.2265,349.1923,294.6507,339.2692,295.1483,329.3462,294.7518,319.4231,295.5575,309.5,294.2965,299.5769,294.9439,289.6538,294.4821,279.7308,294.8017,269.8077,294.601,259.8846,294.2306,249.9615,295.3233,240.0385,295.0831,230.1154,295.1243,220.1923,294.8507,210.2692,295.0875,200.3462,294.3215,190.4231,295.5584,180.5,294.9502" style="stroke: #A80036; stroke-width: 1.0;"/><path d="M438.5,294.9502 L438.725,294.9502 L438.7167,296.9502 L438.2867,298.9502 L438.5302,300.9502 L438.2728,302.9502 L438.5,304.9502 " fill="#FBFB77" style="stroke: #A80036; stroke-width: 1.0;"/><path d="M448.5,304.9502 L448.5,305.1251 L446.5,304.8983 L444.5,304.9063 L442.5,304.9788 L440.5,305.1826 L438.5,304.9502 " fill="#FBFB77" style="stroke: #A80036; stroke-width: 1.0;"/><text fill="#000000" font-family="sans-serif" font-size="13" lengthAdjust="spacingAndGlyphs" textLength="247" x="186.5" y="312.5186">アップロードファイルをセッションに保存</text><polygon fill="#FEFECE" filter="url(#fxx0udr)" points="81,290.5391,81,289.8436,90.5714,290.7757,100.1429,289.8107,109.7143,290.9905,119.2857,290.3987,128.8571,289.9228,138.4286,290.406,148,290.5391,147.9568,290.4349,149.7576,291.2468,151.6126,292.1896,153.3626,292.8789,155.0918,293.518,156.8388,294.2002,156.7112,294.1473,157.4811,295.9307,158.0831,297.6446,158.9352,299.462,159.6097,301.2058,160.5,303.0391,160.4543,303.0391,160.3387,304.8656,160.5734,306.6922,160.6296,308.5188,160.323,310.3453,160.5,312.1719,160.6808,312.2468,159.6487,313.8903,158.8177,315.6172,158.2776,317.4645,157.4428,319.1898,156.8388,321.0107,156.8699,321.0856,155.0649,321.7281,153.3085,322.4878,151.4843,323.0837,149.7375,323.8666,148,324.6719,148,323.945,138.4286,324.2618,128.8571,325.2077,119.2857,325.3791,109.7143,324.233,100.1429,324.7085,90.5714,324.8947,81,324.6719,80.9761,324.6141,79.2203,323.9109,77.4147,323.0871,75.7845,322.6872,73.9623,321.8235,72.1612,321.0107,72.0959,320.9837,71.5717,319.3021,70.5728,317.4238,69.9196,315.6888,69.1027,313.886,68.5,312.1719,68.4928,312.1719,68.3663,310.3453,68.6955,308.5188,68.4015,306.6922,68.2528,304.8656,68.5,303.0391,68.4289,303.0096,69.3622,301.3251,69.9917,299.5148,70.851,297.7997,71.3916,295.9525,72.1612,294.2002,72.2343,294.3768,73.8493,293.2757,75.6992,292.7418,77.3894,291.8224,79.2853,291.3994,81,290.5391" style="stroke: #A80036; stroke-width: 1.5;"/><text fill="#000000" font-family="sans-serif" font-size="12" lengthAdjust="spacingAndGlyphs" textLength="72" x="78.5" y="312.1406">saveTmpFile</text><polygon fill="none" filter="url(#fxx0udr)" points="124.1571,372.7625,122.4881,375.3476,121.6567,377.384,118.7495,378.3639,116.2929,379.4638,113.1302,379.6496,110.0374,379.0419,108.0007,376.9511,106.2385,376.1445,104.5214,373.1232,103.929,369.9769,104.7194,367.118,106.4221,364.3937,108.0297,361.4504,110.2768,360.7501,112.765,360.3536,115.341,359.996,117.8713,360.5851,120.5018,361.2487,122.0821,363.4425,124.2222,365.5851,123.9252,367.6655,124.3723,370.0009" style="stroke: #000000; stroke-width: 1.0;"/><polygon fill="#000000" filter="url(#fxx0udr)" points="120.7271,371.9336,119.9986,373.3826,119.1658,374.7722,117.6511,375.9406,116.5692,376.2954,115.2265,375.8276,113.2197,376.2429,111.9584,375.2919,110.2216,374.1332,109.3382,372.6001,109.2144,371.0733,108.6952,369.8156,109.1288,368.2164,110.0224,367.0654,110.838,366.2377,112.2752,365.0104,113.2378,364.0667,115.1425,363.9838,117.1674,364.574,118.9477,365.2311,119.5858,366.7645,120.3035,367.8429,121.1205,368.735,120.6689,370.3017" style="stroke: none; stroke-width: 1.0;"/><path d="M114.5,51.1992 L114.6116,51.1992 L114.3516,55.1992 L114.693,59.1992 L114.7498,63.1992 L114.4136,67.1992 L114.5,71.1992 " fill="#A80036" style="stroke: #A80036; stroke-width: 1.5;"/><polygon fill="#A80036" points="110.5,61.1992,110.5284,61.2106,111.2179,63.1664,112.2729,65.2684,113.0467,67.2579,113.6307,69.1715,114.5,71.1992,114.4462,71.1777,115.2285,69.1706,116.1754,67.2294,116.7952,65.1573,117.761,63.2236,118.5,61.1992,118.4874,61.1866,117.6707,61.9699,116.731,62.6302,116.0869,63.5861,115.1876,64.2868,114.5,65.1992,114.5613,65.2605,113.6433,64.3426,112.925,63.6242,112.0329,62.7321,111.1591,61.8583,110.5,61.1992" style="stroke: #A80036; stroke-width: 1.0;"/><path d="M114.5,186.4063 L114.2632,186.4063 L114.6213,193.4063 L114.3891,200.4063 L114.1817,207.4063 L114.2126,214.4063 L114.5,221.4063 " fill="#A80036" style="stroke: #A80036; stroke-width: 1.5;"/><polygon fill="#A80036" points="110.5,211.4063,110.7208,211.4946,111.1104,213.3304,112.2679,215.4734,113.1045,217.4881,113.8394,219.462,114.5,221.4063,114.3559,221.3486,115.2231,219.3755,116.2255,217.4564,116.6902,215.3223,117.5193,213.334,118.5,211.4063,118.631,211.5372,117.7675,212.2738,117.0273,213.1335,116.0746,213.7808,115.3084,214.6146,114.5,215.4063,114.3409,215.2471,113.6155,214.5218,112.834,213.7403,112.0849,212.9912,111.2725,212.1787,110.5,211.4063" style="stroke: #A80036; stroke-width: 1.0;"/><path d="M114.5,255.5391 L114.719,255.5391 L114.6046,262.5391 L114.1839,269.5391 L114.6653,276.5391 L114.5688,283.5391 L114.5,290.5391 " fill="#A80036" style="stroke: #A80036; stroke-width: 1.5;"/><polygon fill="#A80036" points="110.5,280.5391,110.5415,280.5557,111.2999,282.539,111.8949,284.457,112.7392,286.4748,113.4738,288.4486,114.5,290.5391,114.5479,290.5582,115.2391,288.5147,116.3285,286.6305,117.0856,284.6133,117.5807,282.4913,118.5,280.5391,118.4217,280.4608,117.6749,281.3139,116.9485,282.1875,115.9655,282.8046,115.3381,283.7771,114.5,284.5391,114.4753,284.5143,113.7063,283.7454,112.8333,282.8723,111.9422,281.9813,111.1652,281.2043,110.5,280.5391" style="stroke: #A80036; stroke-width: 1.0;"/><path d="M114.5,324.6719 L114.6302,324.6719 L114.4431,331.6719 L114.3877,338.6719 L114.316,345.6719 L114.454,352.6719 L114.5,359.6719 " fill="#A80036" style="stroke: #A80036; stroke-width: 1.5;"/><polygon fill="#A80036" points="110.5,349.6719,110.4624,349.6569,111.3447,351.6898,111.8885,353.5873,112.8341,355.6455,113.5462,357.6103,114.5,359.6719,114.3229,359.601,115.2295,357.6437,116.1903,355.708,116.6901,353.5879,117.5626,351.6169,118.5,349.6719,118.3506,349.5224,117.8461,350.6179,116.862,351.2339,115.9979,351.9697,115.3952,352.9671,114.5,353.6719,114.4222,353.594,113.5571,352.729,112.8024,351.9743,112.0084,351.1803,111.4503,350.6222,110.5,349.6719" style="stroke: #A80036; stroke-width: 1.0;"/><path d="M114.5,105.332 L115.3611,105.332 L114.4798,114.7203 L114.1241,124.1086 L114.9266,133.4969 L114.0352,142.8852 L114.5,152.2734 " fill="#A80036" style="stroke: #A80036; stroke-width: 1.5;"/><polygon fill="#A80036" points="110.5,142.2734,110.3256,142.2037,111.1466,144.2121,111.9194,146.2012,112.7194,148.2012,113.8495,150.3332,114.5,152.2734,114.4472,152.2523,115.3201,150.2815,116.1971,148.3123,116.8518,146.2542,117.7575,144.2964,118.5,142.2734,118.447,142.2204,117.6769,143.0504,117.0378,144.0112,116.1537,144.7271,115.2765,145.4499,114.5,146.2734,114.3784,146.1519,113.7966,145.5701,112.9039,144.6774,112.2749,144.0483,111.4535,143.2269,110.5,142.2734" style="stroke: #A80036; stroke-width: 1.0;"/></g></svg>