<?xml version="1.0" encoding="UTF-8" standalone="no"?><svg xmlns="http://www.w3.org/2000/svg" xmlns:xlink="http://www.w3.org/1999/xlink" contentScriptType="application/ecmascript" contentStyleType="text/css" height="406px" preserveAspectRatio="none" style="width:475px;height:406px;" version="1.1" viewBox="0 0 475 406" width="475px" zoomAndPan="magnify"><defs><filter height="300%" id="f5q9bd9" width="300%" x="-1" y="-1"><feGaussianBlur result="blurOut" stdDeviation="2.0"/><feColorMatrix in="blurOut" result="blurOut2" type="matrix" values="0 0 0 0 0 0 0 0 0 0 0 0 0 0 0 0 0 0 .4 0"/><feOffset dx="4.0" dy="4.0" in="blurOut2" result="blurOut3"/><feBlend in="SourceGraphic" in2="blurOut3" mode="normal"/></filter></defs><g><text fill="#000000" font-family="sans-serif" font-size="18" lengthAdjust="spacingAndGlyphs" textLength="83" x="197.5" y="26.708">BcUpload</text><polygon fill="#000000" filter="url(#f5q9bd9)" points="131.5205,42.7283,131.1842,45.726,128.9311,47.8784,126.864,49.8898,123.9903,50.445,122.1201,51.4498,119.5198,50.7698,117.3782,49.1451,115.0429,47.2698,113.196,44.7083,111.6117,41.5708,112.5363,38.4519,113.5183,36.1901,114.9228,33.8946,116.5631,32.7506,118.8464,31.3594,120.9329,30.6373,122.883,30.5203,125.0855,31.6993,126.6794,32.6003,129.1426,33.9981,130.923,35.3006,131.7263,38.3657,132.0906,40.9369,132.238,43.3764" style="stroke: none; stroke-width: 1.0;"/><polygon fill="#FEFECE" filter="url(#f5q9bd9)" points="22.5,70.9531,22.5,70.395,32.45,70.5774,42.4,71.6317,52.35,71.0674,62.3,71.6081,72.25,70.6299,82.2,70.6345,92.15,70.4777,102.1,70.7337,112.05,71.6819,122,70.7056,131.95,71.5063,141.9,71.2122,151.85,70.9998,161.8,71.6264,171.75,71.5519,181.7,71.0689,191.65,71.6567,201.6,71.1697,211.55,71.276,221.5,70.9531,221.4508,70.8344,223.2509,71.6447,225.0434,72.4366,226.7398,72.9966,228.5063,73.7258,230.3388,74.6143,230.5044,74.6829,231.2621,76.4612,231.7801,78.1402,232.4315,79.8745,233.4285,81.7519,234,83.4531,234.096,83.4531,234.1392,85.2469,234.0968,87.0406,234.1178,88.8344,233.8392,90.6281,234,92.4219,233.8135,92.3446,233.1229,94.1296,232.7316,96.0386,231.9785,97.7977,231.1613,99.5303,230.3388,101.2607,230.3847,101.3715,228.6515,102.1871,226.845,102.8259,225.0971,103.6059,223.3332,104.3475,221.5,104.9219,221.5,105.0175,211.55,105.6233,201.6,105.5333,191.65,105.211,181.7,104.5456,171.75,104.2249,161.8,104.4049,151.85,104.6838,141.9,104.74,131.95,105.2996,122,105.257,112.05,105.2632,102.1,105.2042,92.15,104.2416,82.2,105.3516,72.25,105.4371,62.3,104.8482,52.35,105.4387,42.4,104.4797,32.45,105.1524,22.5,104.9219,22.577,105.1079,20.7688,104.278,18.963,103.4539,17.1152,102.5285,15.435,102.0076,13.6612,101.2607,13.4304,101.1651,12.7777,99.4303,12.0503,97.6645,11.3034,95.8907,10.9309,94.2719,10,92.4219,10.0064,92.4219,10.2128,90.6281,10.2064,88.8344,10.1079,87.0406,10.2296,85.2469,10,83.4531,10.1828,83.5288,10.7923,81.7103,11.6226,79.9831,12.161,78.135,12.8339,76.3427,13.6612,74.6143,13.7491,74.8266,15.4656,73.9705,17.265,73.3147,19.0464,72.6153,20.6621,71.5161,22.5,70.9531" style="stroke: #A80036; stroke-width: 1.5;"/><text fill="#000000" font-family="sans-serif" font-size="12" lengthAdjust="spacingAndGlyphs" textLength="204" x="20" y="92.0918">BcUploadBehavior::saveTmpFiles</text><polygon fill="#FFFFFF" filter="url(#f5q9bd9)" points="43,115.7236,43,115.412,52.8837,115.4503,62.7674,115.0708,72.6512,115.0576,82.5349,115.7291,92.4186,116.3679,102.3023,115.2185,112.186,115.9589,122.0698,115.5347,131.9535,116.2733,141.8372,116.305,151.7209,115.6579,161.6047,115.8252,171.4884,115.9214,181.3721,115.6471,191.2558,115.4355,201.1395,115.8809,211.0233,115.7842,220.907,115.2082,230.7907,115.4063,240.6744,115.3286,250.5581,115.5969,260.4419,115.1545,270.3256,115.9525,280.2093,115.8397,290.093,115.0935,299.9767,115.4761,309.8605,116.0363,319.7442,115.9111,329.6279,115.3585,339.5116,116.2609,349.3953,115.517,359.2791,115.7823,369.1628,114.9803,379.0465,115.78,388.9302,116.394,398.814,115.7181,408.6977,116.1557,418.5814,115.9534,428.4651,116.1529,438.3488,115.1405,448.2326,116.0619,458.1163,114.9945,468,115.7236,468.3733,115.7236,467.7088,125.838,467.9563,135.9524,467.8694,146.0668,468.4782,156.1812,467.4206,166.2956,468.107,176.41,468.6638,186.5244,467.9249,196.6388,467.6042,206.7532,468.7301,216.8676,467.9697,226.982,467.5256,237.0964,467.5654,247.2108,468.4228,257.3252,468.2749,267.4396,468.2783,277.554,468.476,287.6684,468.4308,297.7828,467.3899,307.8972,467.2575,318.0116,468.5076,328.126,467.6735,338.2404,467.8384,348.3548,467.9694,358.4692,467.9567,368.5836,467.9722,378.698,468.1069,388.8124,468,398.9268,468,398.6082,458.1163,399.1359,448.2326,399.3678,438.3488,399.1546,428.4651,398.4905,418.5814,398.2789,408.6977,398.9231,398.814,399.2845,388.9302,399.1922,379.0465,398.7071,369.1628,399.0638,359.2791,398.9524,349.3953,399.2111,339.5116,398.6847,329.6279,398.4761,319.7442,399.4958,309.8605,399.106,299.9767,399.5181,290.093,399.6212,280.2093,398.3735,270.3256,398.7439,260.4419,399.2678,250.5581,398.7695,240.6744,398.5402,230.7907,399.3699,220.907,398.277,211.0233,398.4568,201.1395,399.3971,191.2558,398.8381,181.3721,398.2221,171.4884,399.5521,161.6047,399.4868,151.7209,398.843,141.8372,398.3978,131.9535,399.0398,122.0698,398.5829,112.186,398.4467,102.3023,399.5343,92.4186,399.2428,82.5349,398.636,72.6512,399.6077,62.7674,398.6036,52.8837,399.5322,43,398.9268,42.7517,398.9268,42.3484,388.8124,42.3917,378.698,43.1722,368.5836,42.8282,358.4692,43.5052,348.3548,42.9121,338.2404,42.6598,328.126,42.8168,318.0116,42.807,307.8972,43.6784,297.7828,43.3959,287.6684,42.6278,277.554,43.6892,267.4396,42.7604,257.3252,42.589,247.2108,42.7191,237.0964,42.485,226.982,43.1667,216.8676,42.7012,206.7532,42.6473,196.6388,43.2281,186.5244,43.1906,176.41,43.2444,166.2956,43.4808,156.1812,42.3911,146.0668,43.576,135.9524,43.4947,125.838,43,115.7236" style="stroke: #000000; stroke-width: 2.0;"/><path d="M319,116.7236 L318.856,116.7236 L318.42,118.383 L318.6249,120.0424 L319.504,121.7018 L318.6247,123.3611 L319,125.0205 L318.8927,124.9132 L317.2229,127.2434 L315.2784,129.2989 L312.8496,130.8701 L311.373,133.3935 L309,135.0205 L309,135.2147 L299.1481,136.0799 L289.2963,133.4774 L279.4444,136.0985 L269.5926,136.708 L259.7407,135.898 L249.8889,134.8593 L240.037,134.4412 L230.1852,133.7253 L220.3333,133.0445 L210.4815,136.0216 L200.6296,134.4221 L190.7778,133.4953 L180.9259,136.9478 L171.0741,133.7876 L161.2222,137.0127 L151.3704,136.9164 L141.5185,136.2283 L131.6667,135.7882 L121.8148,136.0995 L111.963,135.6547 L102.1111,135.3238 L92.2593,135.4062 L82.4074,136.1542 L72.5556,136.45 L62.7037,134.8195 L52.8519,134.0582 L43,135.0205 " fill="#FFFFFF" style="stroke: #000000; stroke-width: 2.0;"/><text fill="#000000" font-family="sans-serif" font-size="14" lengthAdjust="spacingAndGlyphs" textLength="266" x="46" y="129.7188">アップロードファイルをセッションに保存</text><polygon fill="#FBFB77" filter="url(#f5q9bd9)" points="193.5,156.4385,193.7211,156.4385,193.5933,161.465,193.2618,166.4916,193.3646,171.5182,193.4956,176.5447,193.5,181.5713,193.5,181.9802,203.5667,182.0647,213.6333,182.1085,223.7,181.3709,233.7667,181.336,243.8333,181.3988,253.9,181.4192,263.9667,181.3647,274.0333,181.4322,284.1,181.7271,294.1667,180.9836,304.2333,181.9484,314.3,181.2813,324.3667,180.8864,334.4333,181.6939,344.5,181.5713,344.5432,181.5713,344.6689,178.5447,344.6004,175.5182,344.4631,172.4916,344.4784,169.465,344.5,166.4385,344.6017,166.5402,342.5711,164.5096,340.5081,162.4466,338.3251,160.2635,336.3516,158.29,334.5,156.4385,334.5,156.2417,324.4286,156.3808,314.3571,157.1753,304.2857,156.9087,294.2143,156.8432,284.1429,156.1309,274.0714,155.9222,264,156.073,253.9286,157.0111,243.8571,156.4975,233.7857,156.5386,223.7143,156.2801,213.6429,155.8194,203.5714,156.2133,193.5,156.4385" style="stroke: #A80036; stroke-width: 1.0;"/><polygon fill="#FBFB77" points="193.5,156.4385,193.5109,156.4385,193.6721,158.1518,193.596,159.865,193.2563,161.5783,193.4767,163.2916,193.5,165.0049,193.5402,165.2058,189.5144,165.8769,185.4839,166.5243,181.5114,167.4616,177.4729,168.0692,173.5,169.0049,173.5091,169.0505,177.4682,169.6457,181.513,170.6697,185.5299,171.5544,189.5265,172.3373,193.5,173.0049,193.3533,173.0049,193.3819,174.7182,193.4912,176.4314,193.3494,178.1447,193.3204,179.858,193.5,181.5713,193.5,182.3067,203.5667,181.479,213.6333,182.1854,223.7,182.1807,233.7667,181.139,243.8333,181.1269,253.9,182.0236,263.9667,182.073,274.0333,180.9063,284.1,181.8257,294.1667,180.8373,304.2333,181.7923,314.3,182.2098,324.3667,181.8547,334.4333,181.4402,344.5,181.5713,344.2529,181.5713,344.2616,178.5447,344.5127,175.5182,344.3117,172.4916,344.5341,169.465,344.5,166.4385,344.3965,166.3349,342.6202,164.5587,340.517,162.4554,338.6456,160.584,336.5165,158.455,334.5,156.4385,334.5,155.746,324.4286,156.7218,314.3571,156.1284,304.2857,157.1808,294.2143,156.683,284.1429,155.7874,274.0714,155.7966,264,156.5581,253.9286,155.8281,243.8571,156.7247,233.7857,156.6974,223.7143,156.3977,213.6429,155.847,203.5714,155.8605,193.5,156.4385" style="stroke: #A80036; stroke-width: 1.0;"/><path d="M334.5,156.4385 L334.3345,156.4385 L334.3165,158.4385 L334.7486,160.4385 L334.5689,162.4385 L334.6538,164.4385 L334.5,166.4385 " fill="#FBFB77" style="stroke: #A80036; stroke-width: 1.0;"/><path d="M344.5,166.4385 L344.5,166.343 L342.5,166.5701 L340.5,166.1056 L338.5,166.4849 L336.5,166.3438 L334.5,166.4385 " fill="#FBFB77" style="stroke: #A80036; stroke-width: 1.0;"/><text fill="#000000" font-family="sans-serif" font-size="13" lengthAdjust="spacingAndGlyphs" textLength="130" x="199.5" y="173.5054">複数フィールドを処理</text><polygon fill="#FEFECE" filter="url(#f5q9bd9)" points="83,152.0205,83,151.639,92.75,152.4981,102.5,152.1709,112.25,152.7408,122,151.5768,131.75,152.0705,141.5,151.853,151.25,152.05,161,152.0205,160.9386,151.8723,162.8608,152.9773,164.6251,153.7011,166.313,154.2405,168.0258,154.8403,169.8388,155.6817,169.6809,155.6162,170.5187,157.4277,171.2186,159.1821,171.8162,160.8941,172.7462,162.7438,173.5,164.5205,173.4053,164.5205,173.5982,166.3143,173.6078,168.108,173.7163,169.9018,173.7332,171.6955,173.5,173.4893,173.423,173.4573,172.6581,175.2116,172.1427,177.0692,171.5111,178.8786,170.4223,180.4987,169.8388,182.3281,169.761,182.1402,168.0058,182.9028,166.3792,183.9759,164.4963,184.4302,162.6795,185.044,161,185.9893,161,186.2626,151.25,186.2872,141.5,185.8105,131.75,185.9713,122,185.5781,112.25,186.5122,102.5,186.718,92.75,186.1418,83,185.9893,83.0656,186.1477,81.2577,185.3185,79.5533,184.7393,77.7456,183.9106,76.0196,183.2792,74.1612,182.3281,74.0316,182.2744,73.271,180.4949,72.6767,178.7843,71.7774,176.9473,71.1216,175.2112,70.5,173.4893,70.643,173.4893,70.6376,171.6955,70.5691,169.9018,70.4525,168.108,70.4691,166.3143,70.5,164.5205,70.6598,164.5867,71.2726,162.7695,71.7878,160.9118,72.9148,159.3075,73.3044,157.3978,74.1612,155.6817,74.1003,155.5347,75.9125,154.9099,77.7866,154.4342,79.5375,153.6613,81.2541,152.8056,83,152.0205" style="stroke: #A80036; stroke-width: 1.5;"/><text fill="#000000" font-family="sans-serif" font-size="12" lengthAdjust="spacingAndGlyphs" textLength="83" x="80.5" y="173.1592">saveTmpFiles</text><polygon fill="#FBFB77" filter="url(#f5q9bd9)" points="211,225.4072,211.0342,225.4072,211.1291,230.4338,210.8106,235.4604,211.0367,240.4869,210.9932,245.5135,211,250.54,211,250.2266,220.8333,250.4379,230.6667,251.1007,240.5,250.2972,250.3333,250.4892,260.1667,251.2576,270,250.2721,279.8333,249.9515,289.6667,250.8314,299.5,250.6745,309.3333,250.2252,319.1667,249.8687,329,250.9048,338.8333,250.5246,348.6667,250.2727,358.5,250.662,368.3333,249.8822,378.1667,250.2744,388,250.54,387.9198,250.54,388.1571,247.5135,388.2159,244.4869,387.753,241.4604,388.1644,238.4338,388,235.4072,387.8427,235.25,386.1497,233.5569,384.0498,231.457,382.02,229.4272,380.033,227.4403,378,225.4072,378,224.9451,368.1765,224.8686,358.3529,224.8163,348.5294,225.6415,338.7059,225.0137,328.8824,225.2087,319.0588,225.6407,309.2353,226.0942,299.4118,225.7762,289.5882,225.2993,279.7647,224.7591,269.9412,224.8613,260.1176,224.8556,250.2941,225.202,240.4706,225.343,230.6471,225.2904,220.8235,225.2122,211,225.4072" style="stroke: #A80036; stroke-width: 1.0;"/><polygon fill="#FBFB77" points="211,225.4072,211.1267,225.4072,211.2343,227.1205,210.8401,228.8338,211.0551,230.5471,211.1407,232.2604,211,233.9736,211.0043,233.9949,206.9942,234.7448,203.0489,235.8182,198.9534,236.1405,195.044,237.3938,191,237.9736,190.9786,237.8665,195.0453,239.0001,199.0201,239.6741,202.9837,240.2919,207.0322,241.3345,211,241.9736,210.7845,241.9736,210.8964,243.6869,211.249,245.4002,211.1662,247.1135,210.9405,248.8268,211,250.54,211,250.1612,220.8333,249.804,230.6667,249.9718,240.5,251.2444,250.3333,250.2326,260.1667,250.7473,270,251.0449,279.8333,249.8343,289.6667,251.2312,299.5,250.505,309.3333,250.0565,319.1667,250.8709,329,249.9788,338.8333,250.3824,348.6667,250.38,358.5,250.614,368.3333,250.0007,378.1667,250.2293,388,250.54,387.7621,250.54,388.1268,247.5135,388.0046,244.4869,388.1777,241.4604,388.1782,238.4338,388,235.4072,388.0937,235.5009,385.9528,233.36,383.9108,231.318,382.0843,229.4915,379.9688,227.376,378,225.4072,378,225.9793,368.1765,225.9755,358.3529,225.1372,348.5294,224.7701,338.7059,225.2121,328.8824,224.7011,319.0588,225.991,309.2353,225.4708,299.4118,225.0352,289.5882,225.053,279.7647,225.9091,269.9412,225.8226,260.1176,224.7573,250.2941,224.8953,240.4706,225.8802,230.6471,225.113,220.8235,225.4923,211,225.4072" style="stroke: #A80036; stroke-width: 1.0;"/><path d="M378,225.4072 L378.2893,225.4072 L378.0027,227.4072 L377.8807,229.4072 L377.8971,231.4072 L377.7518,233.4072 L378,235.4072 " fill="#FBFB77" style="stroke: #A80036; stroke-width: 1.0;"/><path d="M388,235.4072 L388,235.5857 L386,235.1108 L384,235.7183 L382,235.3726 L380,235.3184 L378,235.4072 " fill="#FBFB77" style="stroke: #A80036; stroke-width: 1.0;"/><text fill="#000000" font-family="sans-serif" font-size="13" lengthAdjust="spacingAndGlyphs" textLength="156" x="217" y="242.4741">リクエストデータを最適化</text><polygon fill="#FEFECE" filter="url(#f5q9bd9)" points="65.5,220.9893,65.5,220.6044,75.7727,221.6689,86.0455,220.8718,96.3182,221.2782,106.5909,221.6695,116.8636,220.7951,127.1364,220.832,137.4091,221.3106,147.6818,220.6425,157.9545,221.0842,168.2273,221.535,178.5,220.9893,178.4397,220.8437,180.2916,221.7791,182.1298,222.6812,183.8956,223.4088,185.5226,223.8012,187.3388,224.6504,187.4924,224.714,188.2434,226.4896,188.7853,228.1785,189.7139,230.0276,190.0531,231.6326,191,233.4893,191.1809,233.4893,191.1867,235.283,190.861,237.0768,190.7583,238.8705,190.9062,240.6643,191,242.458,191.0867,242.4939,190.202,244.1985,189.5039,245.9804,188.8492,247.7803,187.8811,249.4504,187.3388,251.2968,187.3381,251.295,185.5994,252.0974,183.8436,252.8585,182.1102,253.6739,180.211,254.0887,178.5,254.958,178.5,255.6591,168.2273,255.3097,157.9545,254.9912,147.6818,254.3739,137.4091,254.2842,127.1364,254.2147,116.8636,254.5767,106.5909,255.6651,96.3182,254.8015,86.0455,254.9856,75.7727,254.7867,65.5,254.958,65.5628,255.1096,63.7713,254.3201,62.0288,253.649,60.1883,252.7411,58.3547,251.8498,56.6612,251.2968,56.8641,251.3809,56.1362,249.6149,55.2621,247.7884,54.5884,246.0449,53.8693,244.2826,53,242.458,53.0608,242.458,52.8092,240.6643,52.7581,238.8705,52.8585,237.0768,52.9842,235.283,53,233.4893,52.873,233.4367,53.5224,231.6346,54.431,229.9398,55.1657,228.1731,55.9032,226.4075,56.6612,224.6504,56.7411,224.8434,58.4944,224.0763,60.2077,223.2126,61.9883,222.5114,63.649,221.5205,65.5,220.9893" style="stroke: #A80036; stroke-width: 1.5;"/><text fill="#000000" font-family="sans-serif" font-size="12" lengthAdjust="spacingAndGlyphs" textLength="118" x="63" y="242.1279">setupRequestData</text><polygon fill="#FBFB77" filter="url(#f5q9bd9)" points="190,294.376,190.2232,294.376,190.1442,299.4025,190.1361,304.4291,189.8403,309.4557,189.7844,314.4822,190,319.5088,190,319.0267,199.9259,318.9393,209.8519,320.0648,219.7778,319.7853,229.7037,319.0362,239.6296,318.8351,249.5556,319.1354,259.4815,319.6608,269.4074,319.9463,279.3333,319.8734,289.2593,319.8251,299.1852,318.8535,309.1111,320.2028,319.037,319.0984,328.963,319.2159,338.8889,319.4256,348.8148,319.3696,358.7407,319.9048,368.6667,319.8222,378.5926,320.0159,388.5185,320.0282,398.4444,319.091,408.3704,319.2991,418.2963,319.3745,428.2222,320.0882,438.1481,319.1638,448.0741,319.2127,458,319.5088,458.2318,319.5088,457.874,316.4822,458.2176,313.4557,457.9459,310.4291,458.0779,307.4025,458,304.376,457.9847,304.3606,455.871,302.247,454.1233,300.4993,451.9406,298.3166,449.885,296.261,448,294.376,448,294.3027,438.0769,294.6996,428.1538,294.1807,418.2308,293.8637,408.3077,294.2964,398.3846,294.4487,388.4615,294.1936,378.5385,294.1186,368.6154,294.2023,358.6923,294.6431,348.7692,294.3518,338.8462,294.6522,328.9231,293.9203,319,294.5141,309.0769,294.0769,299.1538,294.7348,289.2308,293.7035,279.3077,294.2589,269.3846,293.6633,259.4615,294.8678,249.5385,294.8072,239.6154,293.896,229.6923,294.2081,219.7692,293.6597,209.8462,294.9787,199.9231,294.0177,190,294.376" style="stroke: #A80036; stroke-width: 1.0;"/><polygon fill="#FBFB77" points="190,294.376,189.991,294.376,190.0045,296.0893,190.0904,297.8025,190.1595,299.5158,190.1036,301.2291,190,302.9424,189.9605,302.745,185.9885,303.6849,182.0429,304.7567,177.9812,305.2486,173.9593,305.9388,170,306.9424,169.9727,306.8061,173.9555,307.5201,177.9645,308.3649,182.0451,309.5677,185.9692,309.9884,190,310.9424,190.1439,310.9424,189.9658,312.6557,189.9579,314.3689,189.985,316.0822,189.9938,317.7955,190,319.5088,190,319.5233,199.9259,320.0264,209.8519,319.5809,219.7778,319.6636,229.7037,319.3376,239.6296,320.113,249.5556,319.6314,259.4815,320.0984,269.4074,319.2534,279.3333,320.0748,289.2593,318.8255,299.1852,319.8076,309.1111,319.4337,319.037,319.4388,328.963,318.848,338.8889,319.6072,348.8148,319.2891,358.7407,318.813,368.6667,318.8444,378.5926,319.4823,388.5185,320.1076,398.4444,318.9089,408.3704,320.1441,418.2963,319.2416,428.2222,320.2442,438.1481,318.8174,448.0741,320.0371,458,319.5088,458.018,319.5088,457.8752,316.4822,458.1151,313.4557,458.0578,310.4291,458.1983,307.4025,458,304.376,457.9263,304.3023,455.9908,302.3667,454.1592,300.5352,451.8247,298.2006,449.8651,296.2411,448,294.376,448,293.8421,438.0769,293.9159,428.1538,294.2828,418.2308,293.6535,408.3077,294.0365,398.3846,293.9577,388.4615,294.8267,378.5385,293.7088,368.6154,294.2352,358.6923,293.8101,348.7692,294.3748,338.8462,293.6742,328.9231,294.1856,319,294.9612,309.0769,295.0057,299.1538,294.3643,289.2308,293.9318,279.3077,294.7212,269.3846,294.642,259.4615,293.638,249.5385,293.8298,239.6154,294.2052,229.6923,294.9446,219.7692,294.6155,209.8462,294.6453,199.9231,293.804,190,294.376" style="stroke: #A80036; stroke-width: 1.0;"/><path d="M448,294.376 L448.2006,294.376 L447.8088,296.376 L448.2626,298.376 L448.1448,300.376 L447.7107,302.376 L448,304.376 " fill="#FBFB77" style="stroke: #A80036; stroke-width: 1.0;"/><path d="M458,304.376 L458,304.1094 L456,304.675 L454,304.1162 L452,304.2563 L450,304.6091 L448,304.376 " fill="#FBFB77" style="stroke: #A80036; stroke-width: 1.0;"/><text fill="#000000" font-family="sans-serif" font-size="13" lengthAdjust="spacingAndGlyphs" textLength="247" x="196" y="311.4429">アップロードファイルをセッションに保存</text><polygon fill="#FEFECE" filter="url(#f5q9bd9)" points="86.5,289.958,86.5,290.2392,96.6429,290.4168,106.7857,289.9909,116.9286,289.4334,127.0714,289.6146,137.2143,289.9901,147.3571,289.6638,157.5,289.958,157.4436,289.8218,159.1809,290.4805,161.1254,291.6394,162.7912,292.1254,164.573,292.8917,166.3388,293.6192,166.3807,293.6365,167.2236,295.4501,167.6588,297.0949,168.5858,298.9433,169.2216,300.6711,170,302.458,169.9889,302.458,169.9409,304.2518,170.1369,306.0455,170.2018,307.8393,169.7724,309.633,170,311.4268,169.8549,311.3667,169.471,313.2787,168.5189,314.9554,167.9741,316.8008,166.8691,318.4142,166.3388,320.2656,166.3459,320.2826,164.6049,321.0796,162.7708,321.6516,160.9431,322.2392,159.2068,323.0473,157.5,323.9268,157.5,324.1947,147.3571,323.8798,137.2143,323.3442,127.0714,323.8659,116.9286,323.5926,106.7857,324.2331,96.6429,323.6783,86.5,323.9268,86.4557,323.8198,84.7427,323.2198,82.921,322.3574,81.1399,321.593,79.4098,320.9517,77.6612,320.2656,77.488,320.1939,77.0943,318.5663,75.9804,316.6405,75.3381,314.91,74.7352,313.1958,74,311.4268,73.8298,311.4268,74.0101,309.633,73.9965,307.8393,73.7712,306.0455,74.2065,304.2518,74,302.458,73.9137,302.4222,74.6603,300.6604,75.4713,298.9253,76.0044,297.0751,76.8558,295.3566,77.6612,293.6192,77.7168,293.7535,79.3343,292.6584,81.2295,292.2338,82.9039,291.2762,84.8046,290.8649,86.5,289.958" style="stroke: #A80036; stroke-width: 1.5;"/><text fill="#000000" font-family="sans-serif" font-size="12" lengthAdjust="spacingAndGlyphs" textLength="76" x="84" y="311.0967">saveTmpFile</text><polygon fill="none" filter="url(#f5q9bd9)" points="131.4967,371.1005,130.2868,373.7148,128.6339,376.1281,127.0214,377.523,124.9531,378.3041,122.4275,379.1251,119.8281,379.2243,117.7307,377.6484,114.9898,376.554,113.9324,374.5291,112.6438,373.0495,112.0241,370.9016,112.0423,369.1018,112.9307,366.3528,114.2082,363.3478,115.5873,361.4321,117.123,359.6586,120.3268,358.8325,122.5701,358.8824,124.9752,359.999,127.9865,360.8631,129.6331,362.7866,131.2973,364.7157,131.8038,367.7672,132.1163,370.4166" style="stroke: #000000; stroke-width: 1.0;"/><polygon fill="#000000" filter="url(#f5q9bd9)" points="127.9608,371.1583,127.5874,372.8604,126.0608,374.1509,125.0267,374.8853,123.2423,375.6113,121.1813,375.5019,120.302,374.6923,118.7604,374.1617,118.1481,373.2235,117.0943,372.2072,116.8215,370.908,116.2905,369.5789,116.485,367.5994,117.6434,366.1821,119.1007,364.8006,120.5992,364.1114,121.9228,363.2624,123.9774,363.6309,125.2453,364.2884,126.1794,364.8045,127.1381,365.9794,128.1374,367.2732,128.2011,369.1675,128.4469,370.7918" style="stroke: none; stroke-width: 1.0;"/><path d="M122,50.9531 L121.8741,50.9531 L122.1047,54.9531 L122.2072,58.9531 L121.7518,62.9531 L122.0346,66.9531 L122,70.9531 " fill="#A80036" style="stroke: #A80036; stroke-width: 1.5;"/><polygon fill="#A80036" points="118,60.9531,117.8205,60.8813,118.5773,62.8641,119.6493,64.9729,120.2376,66.8882,121.3219,69.0019,122,70.9531,121.8385,70.8885,123.0311,69.0456,123.7583,67.0164,124.478,64.9843,125.0217,62.8818,126,60.9531,125.8688,60.8219,125.333,61.8861,124.4814,62.6346,123.6727,63.4259,122.6307,63.9838,122,64.9531,121.9575,64.9106,121.2034,64.1565,120.4167,63.3698,119.4882,62.4413,118.7327,61.6859,118,60.9531" style="stroke: #A80036; stroke-width: 1.0;"/><path d="M122,185.9893 L121.6779,185.9893 L121.9854,192.9893 L122.1848,199.9893 L122.1483,206.9893 L122.3065,213.9893 L122,220.9893 " fill="#A80036" style="stroke: #A80036; stroke-width: 1.5;"/><polygon fill="#A80036" points="118,210.9893,117.7795,210.9011,119.0111,213.0737,119.6753,215.0194,120.6042,217.0709,121.2037,218.9907,122,220.9893,121.9185,220.9567,122.9571,219.0521,123.416,216.9157,124.574,215.0588,125.2336,213.0027,126,210.9893,125.9353,210.9245,125.2689,211.8582,124.4596,212.6488,123.7254,213.5146,122.8812,214.2704,122,214.9893,122.1402,215.1294,121.2143,214.2035,120.4393,213.4286,119.4261,212.4153,118.7078,211.6971,118,210.9893" style="stroke: #A80036; stroke-width: 1.0;"/><path d="M122,254.958 L121.9726,254.958 L122.302,261.958 L121.9089,268.958 L122.152,275.958 L121.8103,282.958 L122,289.958 " fill="#A80036" style="stroke: #A80036; stroke-width: 1.5;"/><polygon fill="#A80036" points="118,279.958,118.118,280.0052,118.6471,281.8969,119.6752,283.9881,120.6309,286.0504,120.98,287.87,122,289.958,122.0338,289.9715,123.0047,288.0399,123.6887,285.9935,124.195,283.876,125.4281,282.0493,126,279.958,125.9684,279.9264,125.088,280.646,124.2944,281.4524,123.5388,282.2968,122.8173,283.1753,122,283.958,121.9151,283.8731,121.025,282.9831,120.3778,282.3358,119.6,281.558,118.8853,280.8433,118,279.958" style="stroke: #A80036; stroke-width: 1.0;"/><path d="M122,323.9268 L122.1741,323.9268 L122.0157,330.9268 L121.7662,337.9268 L121.8444,344.9268 L121.8459,351.9268 L122,358.9268 " fill="#A80036" style="stroke: #A80036; stroke-width: 1.5;"/><polygon fill="#A80036" points="118,348.9268,117.9015,348.8874,118.8311,350.9392,119.6525,352.9478,120.5937,355.0042,121.0643,356.8725,122,358.9268,122.1297,358.9786,122.8679,356.9539,123.7798,354.9987,124.6095,353.0106,125.1533,350.9081,126,348.9268,126.1461,349.0729,125.1946,349.7214,124.5291,350.6558,123.4972,351.224,122.8126,352.1394,122,352.9268,121.9175,352.8443,121.2314,352.1581,120.3316,351.2584,119.5679,350.4947,118.8939,349.8206,118,348.9268" style="stroke: #A80036; stroke-width: 1.0;"/><path d="M122,104.9219 L121.3937,104.9219 L122.8384,114.3416 L122.608,123.7613 L121.4149,133.1811 L122.6512,142.6008 L122,152.0205 " fill="#A80036" style="stroke: #A80036; stroke-width: 1.5;"/><polygon fill="#A80036" points="118,142.0205,117.9776,142.0116,118.6823,143.9734,119.6919,146.0573,120.4117,148.0252,121.3193,150.0682,122,152.0205,121.8081,151.9437,122.9765,150.0911,123.4039,147.9421,124.1776,145.9316,125.1437,143.998,126,142.0205,125.8521,141.8726,125.2827,142.9032,124.2308,143.4513,123.6587,144.4792,122.7787,145.1992,122,146.0205,121.9181,145.9386,121.3222,145.3427,120.5488,144.5693,119.5784,143.5989,118.7625,142.783,118,142.0205" style="stroke: #A80036; stroke-width: 1.0;"/></g></svg>