<?xml version="1.0" encoding="UTF-8" standalone="no"?><svg xmlns="http://www.w3.org/2000/svg" xmlns:xlink="http://www.w3.org/1999/xlink" contentScriptType="application/ecmascript" contentStyleType="text/css" height="407px" preserveAspectRatio="none" style="width:512px;height:407px;" version="1.1" viewBox="0 0 512 407" width="512px" zoomAndPan="magnify"><defs><filter height="300%" id="fmgd7lq" width="300%" x="-1" y="-1"><feGaussianBlur result="blurOut" stdDeviation="2.0"/><feColorMatrix in="blurOut" result="blurOut2" type="matrix" values="0 0 0 0 0 0 0 0 0 0 0 0 0 0 0 0 0 0 .4 0"/><feOffset dx="4.0" dy="4.0" in="blurOut2" result="blurOut3"/><feBlend in="SourceGraphic" in2="blurOut3" mode="normal"/></filter></defs><g><text fill="#000000" font-family="sans-serif" font-size="18" lengthAdjust="spacingAndGlyphs" textLength="79" x="218" y="27.4023">BcUpload</text><polygon fill="#000000" filter="url(#fmgd7lq)" points="126.7374,44.305,125.643,45.7629,123.9608,48.5785,121.5824,49.7262,118.8507,51.3915,115.6493,51.3705,112.8189,50.471,110.3011,49.3095,109.0082,47.686,107.3764,45.2794,106.7557,42.5568,106.9457,40.6003,107.2438,37.8034,109.0976,35.591,111.2185,33.8144,113.4655,31.5415,116.9809,31.5616,119.578,31.616,121.3236,32.5127,124.0386,33.2829,125.4847,35.7223,126.7109,37.388,127.1723,39.2258,126.5307,41.28" style="stroke: none; stroke-width: 1.0;"/><polygon fill="#FEFECE" filter="url(#fmgd7lq)" points="22.5,71.1992,22.5,70.516,32.4474,71.8456,42.3947,71.744,52.3421,70.7588,62.2895,71.3102,72.2368,70.8465,82.1842,71.1768,92.1316,70.4831,102.0789,70.9224,112.0263,71.4712,121.9737,70.6467,131.9211,71.3194,141.8684,70.5969,151.8158,71.441,161.7632,71.4346,171.7105,70.9679,181.6579,71.8458,191.6053,71.2878,201.5526,70.6376,211.5,71.1992,211.5318,71.276,213.295,71.9972,215.0568,72.715,216.8787,73.578,218.649,74.3163,220.3388,74.8604,220.3032,74.8456,221.0059,76.6011,221.8251,78.4049,222.707,80.2347,223.181,81.8955,224,83.6992,223.8067,83.6992,224.2276,85.5258,224.0406,87.3523,223.8509,89.1789,223.7652,91.0055,224,92.832,224.1333,92.8872,223.4464,94.6738,222.4374,96.3269,221.994,98.2143,220.9431,99.8501,220.3388,101.6709,220.3986,101.8152,218.4953,102.2201,216.8969,103.3614,215.0044,103.7924,213.1966,104.4281,211.5,105.332,211.5,105.0764,201.5526,105.5579,191.6053,105.7657,181.6579,104.9853,171.7105,105.2524,161.7632,105.245,151.8158,105.7847,141.8684,105.3007,131.9211,104.6831,121.9737,105.3886,112.0263,104.9979,102.0789,105.9289,92.1316,105.0732,82.1842,105.2158,72.2368,106.0497,62.2895,104.921,52.3421,104.8441,42.3947,105.5104,32.4474,104.8754,22.5,105.332,22.529,105.4019,20.7587,104.6637,19.0586,104.0948,17.1253,102.963,15.4909,102.5528,13.6612,101.6709,13.563,101.6302,12.9086,99.8947,12.1337,98.1092,11.6432,96.4416,10.5188,94.5114,10,92.832,10.1488,92.832,9.9353,91.0055,10.1884,89.1789,9.8845,87.3523,10.1508,85.5258,10,83.6992,10.0944,83.7383,10.5986,81.8761,11.6265,80.2308,12.4022,78.481,13.1104,76.7033,13.6612,74.8604,13.6552,74.8459,15.3675,73.9798,17.2142,73.438,18.9544,72.6394,20.6885,71.8259,22.5,71.1992" style="stroke: #A80036; stroke-width: 1.5;"/><text fill="#000000" font-family="sans-serif" font-size="12" lengthAdjust="spacingAndGlyphs" textLength="194" x="20" y="92.8008">BcUploadBehavior::beforeMarshal</text><polygon fill="#FFFFFF" filter="url(#fmgd7lq)" points="30,115.7852,30,115.9815,39.8958,116.3477,49.7917,115.5499,59.6875,116.1397,69.5833,115.1113,79.4792,115.5195,89.375,115.8346,99.2708,116.1878,109.1667,116.3367,119.0625,116.0923,128.9583,115.9731,138.8542,115.5095,148.75,115.5369,158.6458,116.0154,168.5417,116.1768,178.4375,116.0619,188.3333,115.133,198.2292,115.3685,208.125,116.5092,218.0208,115.1151,227.9167,115.946,237.8125,116.2096,247.7083,116.5066,257.6042,115.7939,267.5,115.2977,277.3958,115.7705,287.2917,115.1098,297.1875,115.2002,307.0833,116.4006,316.9792,116.4621,326.875,115.5738,336.7708,116.4466,346.6667,115.2049,356.5625,116.1695,366.4583,115.4661,376.3542,115.576,386.25,116.2603,396.1458,115.2203,406.0417,115.8207,415.9375,115.6351,425.8333,116.2979,435.7292,115.2114,445.625,116.4899,455.5208,116.0973,465.4167,115.1625,475.3125,116.0624,485.2083,115.2221,495.1042,115.4039,505,115.7852,504.6191,115.7852,504.4619,125.924,505.2147,136.0628,505.3159,146.2016,505.0053,156.3404,505.3347,166.4792,504.4075,176.618,505.1194,186.7568,505.4297,196.8956,504.8327,207.0345,505.3285,217.1733,505.2299,227.3121,504.6756,237.4509,504.5793,247.5897,505.3365,257.7285,504.3567,267.8673,505.2358,278.0061,505.0622,288.1449,505.1898,298.2838,505.6799,308.4226,504.4062,318.5614,504.5862,328.7002,504.4439,338.839,504.3964,348.9778,505.6466,359.1166,505.1251,369.2554,505.2803,379.3943,505.0514,389.5331,505,399.6719,505,399.9167,495.1042,400.1818,485.2083,398.9403,475.3125,399.2222,465.4167,400.3038,455.5208,399.2663,445.625,399.8662,435.7292,399.7569,425.8333,399.4402,415.9375,399.805,406.0417,399.9012,396.1458,399.8555,386.25,400.0336,376.3542,399.7619,366.4583,399.551,356.5625,399.8836,346.6667,399.4576,336.7708,399.6484,326.875,399.4973,316.9792,399.5823,307.0833,400.1081,297.1875,399.7485,287.2917,400.137,277.3958,399.6288,267.5,399.5741,257.6042,400.2516,247.7083,399.3333,237.8125,399.7422,227.9167,399.9019,218.0208,400.3583,208.125,400.113,198.2292,399.5412,188.3333,400.3999,178.4375,400.3615,168.5417,399.787,158.6458,399.6764,148.75,399.8652,138.8542,400.0364,128.9583,400.2211,119.0625,399.7264,109.1667,399.3129,99.2708,399.39,89.375,399.2579,79.4792,398.9445,69.5833,400.2551,59.6875,398.932,49.7917,400.0743,39.8958,399.1892,30,399.6719,30.6345,399.6719,29.4555,389.5331,29.8885,379.3943,30.0792,369.2554,30.7184,359.1166,29.4142,348.9778,29.4515,338.839,30.645,328.7002,29.4102,318.5614,30.6499,308.4226,29.4803,298.2838,29.8011,288.1449,29.4807,278.0061,29.9161,267.8673,29.5537,257.7285,30.2842,247.5897,30.4986,237.4509,30.1903,227.3121,29.3405,217.1733,30.6348,207.0345,30.4066,196.8956,29.3277,186.7568,30.0188,176.618,29.4931,166.4792,29.8149,156.3404,30.2541,146.2016,29.4351,136.0628,30.0049,125.924,30,115.7852" style="stroke: #000000; stroke-width: 2.0;"/><path d="M320,116.7852 L320.303,116.7852 L319.378,118.4828 L319.677,120.1805 L320.5989,121.8781 L320.6084,123.5758 L320,125.2734 L319.9401,125.2135 L317.5829,126.8563 L316.0013,129.2747 L314.1558,131.4293 L311.9569,133.2304 L310,135.2734 L310,136.101 L300,133.7111 L290,136.5937 L280,133.2774 L270,134.4345 L260,135.9219 L250,135.0102 L240,134.0404 L230,136.7417 L220,136.5935 L210,135.9659 L200,133.6966 L190,133.4338 L180,134.395 L170,133.3982 L160,136.9761 L150,134.4846 L140,135.6539 L130,136.6015 L120,136.908 L110,136.4497 L100,133.7627 L90,133.3013 L80,134.1539 L70,136.3983 L60,137.223 L50,136.5264 L40,136.5744 L30,135.2734 " fill="#FFFFFF" style="stroke: #000000; stroke-width: 2.0;"/><text fill="#000000" font-family="sans-serif" font-size="14" lengthAdjust="spacingAndGlyphs" textLength="280" x="33" y="130.3203">セッションよりアップロードファイルを復元</text><polygon fill="#FBFB77" filter="url(#fmgd7lq)" points="190,156.6846,189.8626,156.6846,190.0397,161.7467,189.7823,166.8088,189.9478,171.8709,189.8302,176.933,190,181.9951,190,181.26,200.0667,181.4135,210.1333,182.0602,220.2,181.76,230.2667,181.7216,240.3333,181.7436,250.4,182.2074,260.4667,182.2782,270.5333,182.0926,280.6,181.6019,290.6667,181.295,300.7333,181.8794,310.8,181.8936,320.8667,182.0564,330.9333,182.0962,341,181.9951,341.067,181.9951,340.9884,178.933,341.0187,175.8709,340.8136,172.8088,340.7501,169.7467,341,166.6846,341.1316,166.8162,338.8535,164.5381,336.8737,162.5583,335.1449,160.8295,332.8917,158.5762,331,156.6846,331,156.2031,320.9286,157.4265,310.8571,157.4086,300.7857,156.8997,290.7143,156.9915,280.6429,157.0223,270.5714,156.1091,260.5,156.0224,250.4286,156.5264,240.3571,156.8105,230.2857,156.9317,220.2143,156.0151,210.1429,156.3121,200.0714,156.8692,190,156.6846" style="stroke: #A80036; stroke-width: 1.0;"/><polygon fill="#FBFB77" points="190,156.6846,189.8326,156.6846,190.1413,158.4156,190.1707,160.1467,190.1795,161.8777,189.8452,163.6088,190,165.3398,189.9522,165.1006,186.0291,166.2854,181.9899,166.8895,177.9908,167.6936,174.0009,168.5442,170,169.3398,170.0182,169.431,173.9902,170.091,178.0254,171.0668,181.965,171.5647,185.9541,172.3106,190,173.3398,190.1731,173.3398,190.2093,175.0709,190.0522,176.802,190.1331,178.533,190.1,180.2641,190,181.9951,190,182.1651,200.0667,181.5825,210.1333,182.3219,220.2,181.8082,230.2667,181.8437,240.3333,181.3429,250.4,182.6507,260.4667,181.5734,270.5333,182.1571,280.6,181.5796,290.6667,182.2065,300.7333,181.5468,310.8,182.4348,320.8667,181.5036,330.9333,181.9295,341,181.9951,340.7678,181.9951,341.1974,178.933,341.2078,175.8709,340.914,172.8088,341.0437,169.7467,341,166.6846,341.0382,166.7227,339.101,164.7855,336.8282,162.5128,335.0562,160.7407,332.8316,158.5162,331,156.6846,331,157.2651,320.9286,156.6586,310.8571,156.0315,300.7857,156.779,290.7143,156.5506,280.6429,157.0794,270.5714,156.4249,260.5,156.683,250.4286,156.5243,240.3571,157.2604,230.2857,156.4275,220.2143,157.4338,210.1429,157.3268,200.0714,156.6171,190,156.6846" style="stroke: #A80036; stroke-width: 1.0;"/><path d="M331,156.6846 L331.2468,156.6846 L331.0565,158.6846 L330.9075,160.6846 L330.8155,162.6846 L330.8483,164.6846 L331,166.6846 " fill="#FBFB77" style="stroke: #A80036; stroke-width: 1.0;"/><path d="M341,166.6846 L341,166.4968 L339,166.7637 L337,166.7087 L335,166.9911 L333,166.9533 L331,166.6846 " fill="#FBFB77" style="stroke: #A80036; stroke-width: 1.0;"/><text fill="#000000" font-family="sans-serif" font-size="13" lengthAdjust="spacingAndGlyphs" textLength="130" x="196" y="174.2529">複数フィールドを処理</text><polygon fill="#FEFECE" filter="url(#fmgd7lq)" points="76.5,152.2734,76.5,152.3309,86.625,151.6923,96.75,152.0416,106.875,152.5149,117,152.834,127.125,152.7413,137.25,151.9982,147.375,151.6988,157.5,152.2734,157.5092,152.2956,159.2185,152.8867,160.9769,153.5964,162.8234,154.5186,164.6144,155.307,166.3388,155.9346,166.1228,155.8451,166.935,157.646,167.9145,159.5162,168.4742,161.2125,169.2314,162.9906,170,164.7734,169.8883,164.7734,170.1445,166.6,169.7954,168.4266,170.0021,170.2531,169.8943,172.0797,170,173.9063,170.1724,173.9776,169.2616,175.6715,168.7554,177.5328,167.9938,179.2884,166.9039,180.9081,166.3388,182.7451,166.3091,182.6733,164.5881,183.5184,162.8343,184.2844,161.015,184.8922,159.3182,185.7958,157.5,186.4063,157.5,186.7734,147.375,187.0799,137.25,186.4114,127.125,186.6229,117,186.6835,106.875,186.6297,96.75,187.0239,86.625,186.754,76.5,186.4063,76.5273,186.4722,74.639,185.4489,72.886,184.7523,71.1215,184.028,69.3443,183.273,67.6612,182.7451,67.7427,182.7788,66.9422,180.9828,66.3716,179.282,65.4779,177.4474,64.5148,175.5839,64,173.9063,64.2419,173.9063,64.1236,172.0797,64.0585,170.2531,63.9032,168.4266,63.8375,166.6,64,164.7734,63.8383,164.7065,64.8985,163.0745,65.4514,161.2325,66.4056,159.5567,67.07,157.7608,67.6612,155.9346,67.6611,155.9345,69.3806,155.0856,71.1195,154.2838,73.0025,153.8298,74.7039,152.9373,76.5,152.2734" style="stroke: #A80036; stroke-width: 1.5;"/><text fill="#000000" font-family="sans-serif" font-size="12" lengthAdjust="spacingAndGlyphs" textLength="86" x="74" y="173.875">setupTmpData</text><polygon fill="#FBFB77" filter="url(#fmgd7lq)" points="214,225.8174,214.0151,225.8174,213.9659,230.8795,214.1769,235.9416,213.7817,241.0037,214.2104,246.0658,214,251.1279,214,251.5262,224.0357,251.3285,234.0714,251.344,244.1071,250.6113,254.1429,250.9366,264.1786,251.6049,274.2143,251.3441,284.25,251.7382,294.2857,250.7713,304.3214,250.8021,314.3571,251.3978,324.3929,251.3888,334.4286,250.914,344.4643,251.5754,354.5,250.659,364.5357,250.888,374.5714,251.7633,384.6071,250.7293,394.6429,250.8266,404.6786,251.0125,414.7143,250.6245,424.75,250.8748,434.7857,251.2857,444.8214,250.5062,454.8571,251.5749,464.8929,250.6236,474.9286,250.7709,484.9643,251.2916,495,251.1279,495.0943,251.1279,494.9871,248.0658,494.9823,245.0037,494.8822,241.9416,494.851,238.8795,495,235.8174,494.8982,235.7155,493.0676,233.885,490.9409,231.7583,489.139,229.9564,487.1249,227.9423,485,225.8174,485,225.6149,474.963,225.7497,464.9259,225.6976,454.8889,225.7013,444.8519,226.0584,434.8148,225.7944,424.7778,225.3767,414.7407,225.9046,404.7037,225.2291,394.6667,226.0334,384.6296,225.5795,374.5926,225.824,364.5556,225.6828,354.5185,226.5041,344.4815,225.8678,334.4444,225.8506,324.4074,225.84,314.3704,226.1957,304.3333,225.9315,294.2963,226.4579,284.2593,225.6963,274.2222,225.6352,264.1852,226.2706,254.1481,226.2303,244.1111,225.8209,234.0741,225.5269,224.037,225.5836,214,225.8174" style="stroke: #A80036; stroke-width: 1.0;"/><polygon fill="#FBFB77" points="214,225.8174,213.8066,225.8174,213.9088,227.5484,213.9017,229.2795,214.1023,231.0105,214.1023,232.7416,214,234.4727,214.0256,234.6005,210.0084,235.3146,205.9687,235.916,201.9745,236.745,197.9868,237.6067,194,238.4727,194.008,238.5127,197.9571,239.0581,201.9715,239.9302,205.9661,240.703,209.9816,241.5809,214,242.4727,213.8738,242.4727,214.2037,244.2037,214.2409,245.9348,213.9164,247.6658,214.2377,249.3969,214,251.1279,214,250.9636,224.0357,251.4083,234.0714,251.4556,244.1071,251.579,254.1429,251.4186,264.1786,251.2071,274.2143,251.4849,284.25,251.3896,294.2857,250.61,304.3214,251.3503,314.3571,251.1989,324.3929,250.523,334.4286,250.8985,344.4643,251.1273,354.5,251.2719,364.5357,251.5001,374.5714,251.6955,384.6071,250.8075,394.6429,250.8822,404.6786,251.5647,414.7143,250.5835,424.75,250.8838,434.7857,250.8876,444.8214,250.6149,454.8571,250.3935,464.8929,250.5598,474.9286,250.4295,484.9643,251.3013,495,251.1279,495.061,251.1279,494.8521,248.0658,495.2332,245.0037,494.8566,241.9416,494.8774,238.8795,495,235.8174,495.0879,235.9053,493.1031,233.9205,491.1335,231.9509,489.1213,229.9387,486.8559,227.6733,485,225.8174,485,225.1842,474.963,225.6987,464.9259,226.1468,454.8889,226.1811,444.8519,225.7999,434.8148,225.1853,424.7778,226.1339,414.7407,226.2087,404.7037,226.5389,394.6667,226.3873,384.6296,225.3168,374.5926,225.0837,364.5556,225.5652,354.5185,226.1019,344.4815,225.2048,334.4444,225.157,324.4074,225.8898,314.3704,226.0253,304.3333,225.4423,294.2963,226.1319,284.2593,225.9564,274.2222,226.3883,264.1852,226.3542,254.1481,225.29,244.1111,225.4972,234.0741,225.3377,224.037,225.6434,214,225.8174" style="stroke: #A80036; stroke-width: 1.0;"/><path d="M485,225.8174 L485.0477,225.8174 L484.8704,227.8174 L485.1624,229.8174 L485.2769,231.8174 L485.2242,233.8174 L485,235.8174 " fill="#FBFB77" style="stroke: #A80036; stroke-width: 1.0;"/><path d="M495,235.8174 L495,236.0264 L493,236.123 L491,235.8958 L489,235.6537 L487,235.8239 L485,235.8174 " fill="#FBFB77" style="stroke: #A80036; stroke-width: 1.0;"/><text fill="#000000" font-family="sans-serif" font-size="13" lengthAdjust="spacingAndGlyphs" textLength="260" x="220" y="243.3857">セッションよりアップロードファイルを復元</text><polygon fill="#FEFECE" filter="url(#fmgd7lq)" points="52.5,221.4063,52.5,221.1152,62.4231,222.104,72.3462,220.6976,82.2692,221.6944,92.1923,221.6276,102.1154,221.6497,112.0385,220.7529,121.9615,221.1823,131.8846,221.2163,141.8077,221.4305,151.7308,222.1556,161.6538,221.1361,171.5769,221.4474,181.5,221.4063,181.5869,221.6162,183.2028,221.9817,184.963,222.6957,186.8985,223.8328,188.5532,224.2921,190.3388,225.0674,190.5682,225.1624,190.9906,226.8018,191.6508,228.5398,192.4845,230.3496,193.0805,232.0609,194,233.9063,193.7809,233.9063,193.8058,235.7328,194.1744,237.5594,193.9338,239.3859,194.0849,241.2125,194,243.0391,193.9284,243.0094,193.0911,244.7337,192.4401,246.5351,191.8026,248.3421,191.1285,250.1339,190.3388,251.8779,190.388,251.9967,188.5198,252.4864,186.7838,253.2952,185.096,254.2206,183.2739,254.8216,181.5,255.5391,181.5,256.0448,171.5769,255.748,161.6538,254.8182,151.7308,256.0969,141.8077,255.3863,131.8846,255.9138,121.9615,255.4481,112.0385,255.3039,102.1154,255.7512,92.1923,254.9465,82.2692,255.1619,72.3462,256.2,62.4231,254.8191,52.5,255.5391,52.4175,255.34,50.7778,254.9167,48.9397,254.0148,47.2725,253.5254,45.3368,252.3877,43.6612,251.8779,43.6453,251.8713,43.1451,250.1997,42.0682,248.2891,41.5636,246.6157,40.9023,244.8773,40,243.0391,39.9706,243.0391,39.9347,241.2125,39.8633,239.3859,40.1959,237.5594,39.8982,235.7328,40,233.9063,40.0777,233.9384,40.928,232.2196,41.5313,230.3984,42.211,228.6089,43.1263,226.9169,43.6612,225.0674,43.7527,225.2884,45.4969,224.4993,47.1069,223.3861,49.0245,223.0158,50.6988,222.0577,52.5,221.4063" style="stroke: #A80036; stroke-width: 1.5;"/><text fill="#000000" font-family="sans-serif" font-size="12" lengthAdjust="spacingAndGlyphs" textLength="134" x="50" y="243.0078">moveFileSessionToTmp</text><polygon fill="#FBFB77" filter="url(#fmgd7lq)" points="197,294.9502,196.7721,294.9502,196.7676,300.0123,196.9413,305.0744,196.8173,310.1365,197.1502,315.1986,197,320.2607,197,319.6054,206.8182,319.9766,216.6364,320.3358,226.4545,320.0413,236.2727,320.72,246.0909,320.2893,255.9091,320.6093,265.7273,320.7204,275.5455,320.5907,285.3636,320.7152,295.1818,319.7264,305,320.8366,314.8182,320.0258,324.6364,320.8665,334.4545,320.2285,344.2727,320.8768,354.0909,320.681,363.9091,319.653,373.7273,320.596,383.5455,320.8804,393.3636,319.9201,403.1818,320.7698,413,320.2607,412.999,320.2607,412.8891,317.1986,412.9434,314.1365,412.9571,311.0744,412.7919,308.0123,413,304.9502,412.9227,304.8729,410.8247,302.7749,409.0219,300.9721,406.9677,298.9179,404.8276,296.7778,403,294.9502,403,294.3624,393.1905,294.588,383.381,295.247,373.5714,295.4019,363.7619,294.4997,353.9524,295.0126,344.1429,295.0227,334.3333,294.4191,324.5238,294.4442,314.7143,294.2777,304.9048,295.4223,295.0952,294.8084,285.2857,294.8657,275.4762,294.936,265.6667,295.5948,255.8571,294.3673,246.0476,295.0503,236.2381,295.0867,226.4286,294.351,216.619,295.2465,206.8095,294.5737,197,294.9502" style="stroke: #A80036; stroke-width: 1.0;"/><polygon fill="#FBFB77" points="197,294.9502,196.9663,294.9502,196.8715,296.6813,197.1132,298.4123,197.1102,300.1434,196.7583,301.8744,197,303.6055,197.0023,303.6171,192.9826,304.3186,188.979,305.1005,185.0433,306.2219,181.0476,307.0437,177,307.6055,176.9994,307.6022,181.0187,308.4987,185.0277,309.3441,189.0425,310.2181,192.9834,310.7224,197,311.6055,196.986,311.6055,196.9514,313.3365,197.0201,315.0676,197.1264,316.7986,196.8506,318.5297,197,320.2607,197,320.803,206.8182,320.3073,216.6364,320.1745,226.4545,319.9719,236.2727,320.8699,246.0909,320.6717,255.9091,320.9868,265.7273,319.6631,275.5455,319.7514,285.3636,319.7813,295.1818,320.8568,305,320.4045,314.8182,319.6887,324.6364,320.2438,334.4545,319.9575,344.2727,320.7247,354.0909,320.8341,363.9091,319.9044,373.7273,319.9425,383.5455,320.1605,393.3636,319.8895,403.1818,320.6951,413,320.2607,413.2053,320.2607,412.7521,317.1986,412.905,314.1365,413.0087,311.0744,413.0298,308.0123,413,304.9502,412.8603,304.8105,411.1679,303.1181,408.8942,300.8444,406.8753,298.8255,405.0269,296.9771,403,294.9502,403,294.5693,393.1905,294.3145,383.381,294.3348,373.5714,294.6152,363.7619,295.5063,353.9524,294.3528,344.1429,294.5926,334.3333,295.0873,324.5238,294.3286,314.7143,295.1478,304.9048,294.9679,295.0952,295.1216,285.2857,295.4163,275.4762,295.4089,265.6667,294.3821,255.8571,295.3859,246.0476,294.5852,236.2381,294.869,226.4286,295.2598,216.619,295.2837,206.8095,294.6983,197,294.9502" style="stroke: #A80036; stroke-width: 1.0;"/><path d="M403,294.9502 L402.9063,294.9502 L403.0307,296.9502 L403.2499,298.9502 L403.0034,300.9502 L403.0963,302.9502 L403,304.9502 " fill="#FBFB77" style="stroke: #A80036; stroke-width: 1.0;"/><path d="M413,304.9502 L413,304.7003 L411,304.6406 L409,305.2076 L407,305.2055 L405,305.1812 L403,304.9502 " fill="#FBFB77" style="stroke: #A80036; stroke-width: 1.0;"/><text fill="#000000" font-family="sans-serif" font-size="13" lengthAdjust="spacingAndGlyphs" textLength="195" x="203" y="312.5186">アップロードデータとしてセット</text><polygon fill="#FEFECE" filter="url(#fmgd7lq)" points="69.5,290.5391,69.5,290.6881,79,290.173,88.5,291.2864,98,290.3377,107.5,289.8658,117,290.6278,126.5,289.8309,136,291.0674,145.5,290.4329,155,289.8382,164.5,290.5391,164.4308,290.3721,166.2994,291.3477,167.9471,291.79,169.8264,292.7916,171.6431,293.6418,173.3388,294.2002,173.3278,294.1957,173.9664,295.9246,174.8783,297.7668,175.7237,299.5815,176.3754,301.3159,177,303.0391,176.8047,303.0391,176.754,304.8656,176.9275,306.6922,177.0524,308.5188,177.0285,310.3453,177,312.1719,177.115,312.2195,176.172,313.9,175.3435,315.6279,174.7103,317.4367,174.1148,319.2611,173.3388,321.0107,173.4324,321.2367,171.6399,321.9091,169.8307,322.5414,168.0635,323.2748,166.1996,323.775,164.5,324.6719,164.5,325.1249,155,323.9511,145.5,325.2138,136,324.7763,126.5,324.7049,117,324.4756,107.5,325.2806,98,324.8535,88.5,324.5003,79,323.9986,69.5,324.6719,69.4635,324.5837,67.6478,323.7359,65.9956,323.2825,64.1397,322.3376,62.5132,321.9464,60.6612,321.0107,60.466,320.9299,59.7491,319.1685,59.3979,317.5585,58.5728,315.7523,57.8747,313.9986,57,312.1719,56.886,312.1719,56.8926,310.3453,56.9349,308.5188,57.1591,306.6922,56.7828,304.8656,57,303.0391,56.9635,303.024,57.599,301.2161,58.6551,299.5825,59.3968,297.8186,59.8721,295.9444,60.6612,294.2002,60.6213,294.104,62.5134,293.6718,64.2506,292.8659,65.9339,291.9297,67.7117,291.2218,69.5,290.5391" style="stroke: #A80036; stroke-width: 1.5;"/><text fill="#000000" font-family="sans-serif" font-size="12" lengthAdjust="spacingAndGlyphs" textLength="100" x="67" y="312.1406">setUploadingFiles</text><polygon fill="none" filter="url(#fmgd7lq)" points="126.7557,372.7019,125.462,375.1134,123.6344,377.7655,120.4172,379.0953,118.1953,379.4472,115.464,380.1308,113.4454,378.5018,111.2014,377.0715,108.6534,375.1309,107.6841,372.8658,106.5947,370.0268,106.7132,367.4105,107.9968,365.4508,108.9344,363.4632,111.1081,361.7916,112.725,360.2957,115.2465,360.2066,117.4725,359.8248,119.4021,359.3896,122.143,361.1479,124.7204,362.9394,126.0654,365.6779,126.2835,367.4739,127.1784,369.6384,126.5936,371.5964" style="stroke: #000000; stroke-width: 1.0;"/><polygon fill="#000000" filter="url(#fmgd7lq)" points="123.2894,371.9797,122.5708,373.1982,121.8433,374.7679,120.4149,375.286,119.3328,376.1123,117.2822,376.2087,115.5113,375.792,113.8877,374.6087,112.677,373.5665,111.4916,372.182,111.4212,370.6899,111.757,369.5412,111.7346,367.6058,113.2438,366.3251,114.6284,364.919,116.4819,364.4089,118.1689,364.4276,119.865,364.4004,120.7485,365.3106,122.4494,366.3718,123.1702,367.4163,123.284,369.3181,123.3241,371.104" style="stroke: none; stroke-width: 1.0;"/><path d="M117,51.1992 L117.3237,51.1992 L117.0463,55.1992 L117.105,59.1992 L117.2807,63.1992 L116.9473,67.1992 L117,71.1992 " fill="#A80036" style="stroke: #A80036; stroke-width: 1.5;"/><polygon fill="#A80036" points="113,61.1992,113.0122,61.2041,113.8154,63.2054,114.7405,65.2554,115.3644,67.185,116.0515,69.1398,117,71.1992,116.8831,71.1524,117.6198,69.1271,118.4862,67.1537,119.4323,65.2121,120.2001,63.1992,121,61.1992,121.0992,61.2984,120.039,61.8382,119.322,62.7212,118.5751,63.5743,117.6792,64.2785,117,65.1992,116.9984,65.1977,116.1195,64.3187,115.3259,63.5252,114.7542,62.9535,113.9689,62.1681,113,61.1992" style="stroke: #A80036; stroke-width: 1.0;"/><path d="M117,186.4063 L116.8512,186.4063 L116.8425,193.4063 L117.0244,200.4063 L117.0308,207.4063 L117.0558,214.4063 L117,221.4063 " fill="#A80036" style="stroke: #A80036; stroke-width: 1.5;"/><polygon fill="#A80036" points="113,211.4063,113.1394,211.462,113.6313,213.3388,114.5549,215.3882,115.371,217.3946,116.3359,219.4606,117,221.4063,117.0601,221.4303,117.9831,219.4795,118.7896,217.4821,119.5677,215.4733,120.3476,213.4653,121,211.4063,120.9305,211.3368,120.0804,212.0866,119.2698,212.876,118.7656,213.9718,117.7843,214.5905,117,215.4063,116.971,215.3772,116.0466,214.4528,115.407,213.8132,114.6047,213.0109,113.8429,212.2492,113,211.4063" style="stroke: #A80036; stroke-width: 1.0;"/><path d="M117,255.5391 L116.7886,255.5391 L116.849,262.5391 L116.8539,269.5391 L117.2661,276.5391 L117.2484,283.5391 L117,290.5391 " fill="#A80036" style="stroke: #A80036; stroke-width: 1.5;"/><polygon fill="#A80036" points="113,280.5391,113.1108,280.5834,113.9787,282.6105,114.5071,284.5019,115.6227,286.6281,116.2112,288.5435,117,290.5391,117.1528,290.6002,117.5948,288.457,118.5439,286.5166,119.4977,284.5781,120.0392,282.4747,121,280.5391,121.0793,280.6184,120.1738,281.3128,119.2365,281.9756,118.6893,283.0283,117.9566,283.8956,117,284.5391,117.1428,284.6819,116.1894,283.7284,115.5126,283.0517,114.5782,282.1172,113.9546,281.4936,113,280.5391" style="stroke: #A80036; stroke-width: 1.0;"/><path d="M117,324.6719 L116.8606,324.6719 L117.2633,331.6719 L117.2741,338.6719 L116.8381,345.6719 L116.8675,352.6719 L117,359.6719 " fill="#A80036" style="stroke: #A80036; stroke-width: 1.5;"/><polygon fill="#A80036" points="113,349.6719,112.8238,349.6014,113.5685,351.5793,114.4852,353.6259,115.6137,355.7574,116.4096,357.7557,117,359.6719,116.9082,359.6352,117.7264,357.6424,118.5667,355.6585,119.6014,353.7525,120.2304,351.684,121,349.6719,120.9723,349.6442,120.17,350.4419,119.5731,351.4449,118.6837,352.1556,117.7886,352.8604,117,353.6719,117.019,353.6909,116.0775,352.7493,115.3346,352.0065,114.6824,351.3542,113.85,350.5219,113,349.6719" style="stroke: #A80036; stroke-width: 1.0;"/><path d="M117,105.332 L117.5601,105.332 L117.4211,114.7203 L117.0486,124.1086 L117.2031,133.4969 L117.7904,142.8852 L117,152.2734 " fill="#A80036" style="stroke: #A80036; stroke-width: 1.5;"/><polygon fill="#A80036" points="113,142.2734,113.148,142.3326,113.6116,144.1981,114.5203,146.2416,115.4642,148.2991,116.3859,150.3478,117,152.2734,117.1781,152.3447,117.9244,150.3232,118.6412,148.2899,119.2056,146.1957,120.0264,144.204,121,142.2734,121.0348,142.3082,120.1019,142.9753,119.347,143.8204,118.6657,144.7391,117.8837,145.5572,117,146.2734,117.1003,146.3737,116.3211,145.5945,115.5701,144.8435,114.6386,143.9121,113.7973,143.0707,113,142.2734" style="stroke: #A80036; stroke-width: 1.0;"/></g></svg>