<?xml version="1.0" encoding="UTF-8" standalone="no"?><svg xmlns="http://www.w3.org/2000/svg" xmlns:xlink="http://www.w3.org/1999/xlink" contentScriptType="application/ecmascript" contentStyleType="text/css" height="407px" preserveAspectRatio="none" style="width:512px;height:407px;" version="1.1" viewBox="0 0 512 407" width="512px" zoomAndPan="magnify"><defs><filter height="300%" id="f4ycqt2" width="300%" x="-1" y="-1"><feGaussianBlur result="blurOut" stdDeviation="2.0"/><feColorMatrix in="blurOut" result="blurOut2" type="matrix" values="0 0 0 0 0 0 0 0 0 0 0 0 0 0 0 0 0 0 .4 0"/><feOffset dx="4.0" dy="4.0" in="blurOut2" result="blurOut3"/><feBlend in="SourceGraphic" in2="blurOut3" mode="normal"/></filter></defs><g><text fill="#000000" font-family="sans-serif" font-size="18" lengthAdjust="spacingAndGlyphs" textLength="79" x="218" y="27.4023">BcUpload</text><polygon fill="#000000" filter="url(#f4ycqt2)" points="127.2972,43.6494,125.9572,45.7755,124.4223,47.4281,123.4174,49.3195,120.4681,50.8541,117.6788,51.2353,114.413,50.4615,111.3598,49.9328,109.3957,47.7459,108.4213,45.7032,107.3392,44.2152,106.5797,42.3867,107.3903,39.5845,107.8834,37.848,108.1734,36.0101,109.5772,34.439,111.6246,32.0567,114.6463,31.3944,116.6398,30.699,119.7063,32.02,122.0403,33.0795,123.9995,34.3371,125.7367,36.7978,127.2533,38.4532,127.3107,40.5648,127.006,42.9404" style="stroke: none; stroke-width: 1.0;"/><polygon fill="#FEFECE" filter="url(#f4ycqt2)" points="22.5,71.1992,22.5,71.7478,32.4474,71.93,42.3947,71.4226,52.3421,71.8128,62.2895,71.4197,72.2368,70.8393,82.1842,71.6082,92.1316,71.0236,102.0789,70.4948,112.0263,71.9294,121.9737,71.8059,131.9211,71.8298,141.8684,71.9196,151.8158,71.2358,161.7632,71.4927,171.7105,71.8255,181.6579,71.4015,191.6053,71.6343,201.5526,71.9409,211.5,71.1992,211.4841,71.1609,213.2197,71.8153,215.0708,72.7488,216.8758,73.5709,218.5998,74.1976,220.3388,74.8604,220.1692,74.7901,221.1405,76.6569,221.6881,78.3482,222.5364,80.164,223.3135,81.9504,224,83.6992,223.839,83.6992,224.0713,85.5258,223.8932,87.3523,223.8339,89.1789,223.8128,91.0055,224,92.832,223.9731,92.8209,223.2492,94.5921,222.7189,96.4435,221.9763,98.207,220.8983,99.8315,220.3388,101.6709,220.3782,101.766,218.595,102.4608,216.8196,103.1748,215.0056,103.7954,213.2222,104.4897,211.5,105.332,211.5,104.9035,201.5526,104.8211,191.6053,105.7166,181.6579,105.1059,171.7105,105.3332,161.7632,105.9912,151.8158,105.2985,141.8684,104.8718,131.9211,105.524,121.9737,105.658,112.0263,105.6631,102.0789,105.0248,92.1316,105.7326,82.1842,104.9228,72.2368,105.8904,62.2895,105.2308,52.3421,105.8914,42.3947,104.6189,32.4474,105.5856,22.5,105.332,22.4487,105.2083,20.6629,104.4324,18.9557,103.8464,17.188,103.1142,15.3622,102.242,13.6612,101.6709,13.4966,101.6027,12.8427,99.8674,12.2576,98.1606,11.358,96.3234,10.6925,94.5833,10,92.832,10.1559,92.832,9.9625,91.0055,9.9813,89.1789,9.7931,87.3523,10.0091,85.5258,10,83.6992,10.1757,83.772,10.6358,81.8915,11.6129,80.2252,12.0426,78.3321,13.0328,76.6712,13.6612,74.8604,13.6212,74.7639,15.481,74.2539,17.1907,73.3813,18.9093,72.5305,20.6936,71.8383,22.5,71.1992" style="stroke: #A80036; stroke-width: 1.5;"/><text fill="#000000" font-family="sans-serif" font-size="12" lengthAdjust="spacingAndGlyphs" textLength="194" x="20" y="92.8008">BcUploadBehavior::beforeMarshal</text><polygon fill="#FFFFFF" filter="url(#f4ycqt2)" points="30,115.7852,30,115.7987,39.8958,115.7207,49.7917,115.7028,59.6875,116.5179,69.5833,115.3395,79.4792,115.5397,89.375,116.3653,99.2708,116.4462,109.1667,115.2265,119.0625,115.6133,128.9583,116.2198,138.8542,115.4387,148.75,115.9775,158.6458,115.1907,168.5417,115.3437,178.4375,115.3162,188.3333,115.2666,198.2292,115.8402,208.125,116.4515,218.0208,116.2187,227.9167,116.1334,237.8125,115.8728,247.7083,115.7042,257.6042,116.2871,267.5,115.6115,277.3958,116.2611,287.2917,116.4686,297.1875,115.7038,307.0833,115.7425,316.9792,115.1596,326.875,116.0081,336.7708,115.4859,346.6667,116.1651,356.5625,116.3052,366.4583,115.7558,376.3542,115.362,386.25,115.206,396.1458,115.4041,406.0417,115.7539,415.9375,116.3935,425.8333,115.6561,435.7292,116.0691,445.625,115.0433,455.5208,115.2202,465.4167,116.1848,475.3125,116.4734,485.2083,115.2549,495.1042,115.9185,505,115.7852,505.3432,115.7852,504.3465,125.924,505.5945,136.0628,505.1778,146.2016,504.9096,156.3404,505.3148,166.4792,504.4129,176.618,505.3874,186.7568,505.1527,196.8956,505.6281,207.0345,504.8208,217.1733,505.0179,227.3121,504.9078,237.4509,504.4541,247.5897,504.3191,257.7285,505.3368,267.8673,504.7221,278.0061,504.2522,288.1449,504.7289,298.2838,504.5778,308.4226,505.1842,318.5614,505.6687,328.7002,504.7505,338.839,505.6277,348.9778,505.4293,359.1166,505.4871,369.2554,504.8112,379.3943,505.6404,389.5331,505,399.6719,505,400.1701,495.1042,400.3518,485.2083,400.4085,475.3125,400.1816,465.4167,400.3052,455.5208,399.1463,445.625,400.3077,435.7292,398.9292,425.8333,399.6969,415.9375,400.0271,406.0417,400.1851,396.1458,399.5787,386.25,399.6344,376.3542,400.2455,366.4583,400.1774,356.5625,399.9974,346.6667,399.4715,336.7708,399.1957,326.875,399.4688,316.9792,399.4802,307.0833,399.7916,297.1875,398.9496,287.2917,400.355,277.3958,399.0406,267.5,399.6473,257.6042,400.3094,247.7083,399.6104,237.8125,399.4526,227.9167,400.2498,218.0208,398.9526,208.125,400.2635,198.2292,399.5556,188.3333,399.5069,178.4375,399.5926,168.5417,399.1002,158.6458,399.6937,148.75,400.3439,138.8542,400.0731,128.9583,399.6949,119.0625,400.4127,109.1667,400.2898,99.2708,399.4472,89.375,400.0192,79.4792,399.6796,69.5833,399.3826,59.6875,400.3646,49.7917,399.1845,39.8958,399.9177,30,399.6719,30.3549,399.6719,29.3352,389.5331,29.9864,379.3943,30.4061,369.2554,29.8621,359.1166,30.1952,348.9778,30.1632,338.839,30.1036,328.7002,29.5239,318.5614,30.6857,308.4226,29.4775,298.2838,29.5543,288.1449,29.689,278.0061,29.4095,267.8673,29.3273,257.7285,29.6419,247.5897,29.9664,237.4509,30.3922,227.3121,29.4093,217.1733,29.4259,207.0345,30.3371,196.8956,30.197,186.7568,30.6797,176.618,30.2833,166.4792,30.128,156.3404,30.1053,146.2016,30.0216,136.0628,29.6355,125.924,30,115.7852" style="stroke: #000000; stroke-width: 2.0;"/><path d="M320,116.7852 L319.557,116.7852 L319.9442,118.4828 L319.8571,120.1805 L319.4452,121.8781 L319.8348,123.5758 L320,125.2734 L320.3984,125.6718 L318.4405,127.714 L315.7828,129.0562 L314.2673,131.5407 L311.6208,132.8943 L310,135.2734 L310,133.4686 L300,135.5904 L290,136.0067 L280,136.6206 L270,136.927 L260,136.7056 L250,134.7508 L240,133.6495 L230,134.5856 L220,133.7953 L210,135.4268 L200,135.6838 L190,136.5968 L180,135.4906 L170,136.8816 L160,135.1191 L150,133.3205 L140,133.5369 L130,135.7847 L120,136.6257 L110,136.7658 L100,136.5324 L90,133.6987 L80,135.9789 L70,135.3633 L60,134.6323 L50,136.3351 L40,133.5638 L30,135.2734 " fill="#FFFFFF" style="stroke: #000000; stroke-width: 2.0;"/><text fill="#000000" font-family="sans-serif" font-size="14" lengthAdjust="spacingAndGlyphs" textLength="280" x="33" y="130.3203">セッションよりアップロードファイルを復元</text><polygon fill="#FBFB77" filter="url(#f4ycqt2)" points="190,156.6846,189.9853,156.6846,190.1935,161.7467,189.8579,166.8088,190.1777,171.8709,190.0837,176.933,190,181.9951,190,181.7137,200.0667,182.6275,210.1333,182.5467,220.2,181.4217,230.2667,182.2153,240.3333,182.512,250.4,182.0074,260.4667,181.9422,270.5333,182.1924,280.6,181.4011,290.6667,181.601,300.7333,181.7351,310.8,181.7778,320.8667,182.2014,330.9333,181.2502,341,181.9951,340.9533,181.9951,341.0196,178.933,340.8158,175.8709,341.1895,172.8088,340.9884,169.7467,341,166.6846,340.835,166.5195,338.8644,164.549,337.0464,162.731,334.9173,160.6018,333.0631,158.7477,331,156.6846,331,156.0783,320.9286,156.6526,310.8571,155.9983,300.7857,157.2947,290.7143,157.2722,280.6429,157.2882,270.5714,156.3884,260.5,156.2696,250.4286,156.011,240.3571,156.0838,230.2857,156.5757,220.2143,156.1088,210.1429,156.1668,200.0714,156.6362,190,156.6846" style="stroke: #A80036; stroke-width: 1.0;"/><polygon fill="#FBFB77" points="190,156.6846,189.9856,156.6846,190.204,158.4156,189.8637,160.1467,189.9586,161.8777,189.9439,163.6088,190,165.3398,190.0142,165.4107,185.963,165.9549,182.0291,167.0855,178.0482,167.9807,173.9782,168.4306,170,169.3398,170.0304,169.4919,173.9818,170.0487,178.0268,171.0739,181.9667,171.5732,186.0343,172.7114,190,173.3398,190.0018,173.3398,189.9404,175.0709,189.8672,176.802,189.7886,178.533,189.7957,180.2641,190,181.9951,190,181.3478,200.0667,181.5826,210.1333,182.1104,220.2,182.668,230.2667,182.4619,240.3333,182.3098,250.4,181.9015,260.4667,181.718,270.5333,182.6868,280.6,181.3451,290.6667,182.0439,300.7333,182.0201,310.8,181.8249,320.8667,181.2797,330.9333,182.2423,341,181.9951,340.7771,181.9951,341.2117,178.933,341.182,175.8709,341.1798,172.8088,341.0976,169.7467,341,166.6846,341.0731,166.7577,338.9176,164.6021,336.9536,162.6381,334.8312,160.5158,333.0112,158.6958,331,156.6846,331,156.3018,320.9286,156.054,310.8571,157.2035,300.7857,157.1583,290.7143,157.1079,280.6429,156.6783,270.5714,157.2691,260.5,155.9459,250.4286,156.6045,240.3571,156.334,230.2857,156.3942,220.2143,156.5235,210.1429,156.7631,200.0714,156.5425,190,156.6846" style="stroke: #A80036; stroke-width: 1.0;"/><path d="M331,156.6846 L331.1791,156.6846 L330.807,158.6846 L330.8911,160.6846 L331.23,162.6846 L330.8034,164.6846 L331,166.6846 " fill="#FBFB77" style="stroke: #A80036; stroke-width: 1.0;"/><path d="M341,166.6846 L341,166.8783 L339,166.41 L337,166.8907 L335,166.781 L333,166.3927 L331,166.6846 " fill="#FBFB77" style="stroke: #A80036; stroke-width: 1.0;"/><text fill="#000000" font-family="sans-serif" font-size="13" lengthAdjust="spacingAndGlyphs" textLength="130" x="196" y="174.2529">複数フィールドを処理</text><polygon fill="#FEFECE" filter="url(#f4ycqt2)" points="76.5,152.2734,76.5,151.8888,86.625,152.554,96.75,151.7196,106.875,151.9424,117,151.7184,127.125,152.4587,137.25,151.9052,147.375,151.7228,157.5,152.2734,157.4614,152.1802,159.3471,153.1971,161.043,153.7558,162.8217,154.5146,164.5212,155.0819,166.3388,155.9346,166.3487,155.9387,167.1547,157.737,167.9749,159.5412,168.6428,161.2823,169.3077,163.0222,170,164.7734,170.0175,164.7734,170.0809,166.6,169.8026,168.4266,170.1155,170.2531,170.0858,172.0797,170,173.9063,170.0957,173.9459,169.1921,175.6427,168.3894,177.3812,167.7667,179.1944,166.8696,180.8938,166.3388,182.7451,166.27,182.579,164.5465,183.4181,162.7926,184.1838,160.9411,184.7138,159.1766,185.4539,157.5,186.4063,157.5,186.4916,147.375,185.8624,137.25,186.6589,127.125,186.6888,117,186.2159,106.875,186.3954,96.75,186.5763,86.625,185.9574,76.5,186.4063,76.5502,186.5275,74.7316,185.6725,72.957,184.9238,71.2769,184.4032,69.4797,183.5999,67.6612,182.7451,67.7309,182.774,66.908,180.9686,66.148,179.1894,65.6707,177.5272,64.8865,175.7379,64,173.9063,63.9863,173.9063,63.8684,172.0797,64.1947,170.2531,63.9654,168.4266,63.9699,166.6,64,164.7734,63.9224,164.7413,64.5945,162.9486,65.4502,161.232,66.1499,159.4508,67.054,157.7542,67.6612,155.9346,67.7216,156.0805,69.4085,155.1531,71.223,154.5336,72.9503,153.7037,74.6482,152.8028,76.5,152.2734" style="stroke: #A80036; stroke-width: 1.5;"/><text fill="#000000" font-family="sans-serif" font-size="12" lengthAdjust="spacingAndGlyphs" textLength="86" x="74" y="173.875">setupTmpData</text><polygon fill="#FBFB77" filter="url(#f4ycqt2)" points="214,225.8174,213.8083,225.8174,213.8827,230.8795,213.8896,235.9416,213.7588,241.0037,213.7826,246.0658,214,251.1279,214,251.0618,224.0357,250.9228,234.0714,250.4458,244.1071,250.5649,254.1429,250.7477,264.1786,251.18,274.2143,250.5098,284.25,251.3725,294.2857,250.8477,304.3214,250.746,314.3571,251.037,324.3929,250.6573,334.4286,251.114,344.4643,250.407,354.5,250.4506,364.5357,251.3323,374.5714,250.4097,384.6071,251.0984,394.6429,250.6853,404.6786,251.7362,414.7143,251.2188,424.75,251.1304,434.7857,251.1854,444.8214,251.5648,454.8571,251.6808,464.8929,250.9424,474.9286,251.437,484.9643,250.913,495,251.1279,495.1707,251.1279,495.1603,248.0658,495.2144,245.0037,495.0038,241.9416,494.816,238.8795,495,235.8174,494.8708,235.6882,493.0571,233.8745,491.0082,231.8256,488.8317,229.6491,487.1592,227.9766,485,225.8174,485,225.3017,474.963,225.5301,464.9259,225.8095,454.8889,226.1055,444.8519,225.8077,434.8148,225.4466,424.7778,225.8436,414.7407,225.323,404.7037,226.289,394.6667,226.2631,384.6296,225.9743,374.5926,225.9863,364.5556,226.5504,354.5185,225.2406,344.4815,225.664,334.4444,226.4403,324.4074,226.272,314.3704,226.149,304.3333,226.1946,294.2963,226.5307,284.2593,226.4809,274.2222,225.5196,264.1852,225.4364,254.1481,226.0074,244.1111,225.9242,234.0741,226.08,224.037,225.6587,214,225.8174" style="stroke: #A80036; stroke-width: 1.0;"/><polygon fill="#FBFB77" points="214,225.8174,214.2308,225.8174,213.8506,227.5484,213.9728,229.2795,214.2422,231.0105,214.0926,232.7416,214,234.4727,214.0247,234.5959,210.0202,235.3737,205.9527,235.8363,202.0083,236.914,197.9778,237.5619,194,238.4727,193.9524,238.2349,198.0061,239.3034,201.9748,239.9465,206.0222,240.9839,210.0324,241.8346,214,242.4727,214.0259,242.4727,214.1343,244.2037,213.964,245.9348,214.073,247.6658,213.8013,249.3969,214,251.1279,214,251.1749,224.0357,251.0127,234.0714,250.7151,244.1071,250.8717,254.1429,251.46,264.1786,251.7851,274.2143,251.2307,284.25,251.6605,294.2857,251.8385,304.3214,250.934,314.3571,251.2857,324.3929,250.854,334.4286,250.8248,344.4643,251.7411,354.5,250.3827,364.5357,250.4895,374.5714,250.6278,384.6071,251.6181,394.6429,250.4565,404.6786,250.5299,414.7143,251.5942,424.75,251.629,434.7857,250.6313,444.8214,251.3796,454.8571,251.2243,464.8929,251.1334,474.9286,250.8237,484.9643,251.6518,495,251.1279,494.9905,251.1279,495.1578,248.0658,494.8934,245.0037,494.8613,241.9416,494.9675,238.8795,495,235.8174,494.8918,235.7091,492.9038,233.7212,490.9085,231.7259,488.9929,229.8103,486.8609,227.6783,485,225.8174,485,226.1445,474.963,226.2211,464.9259,225.6895,454.8889,225.5715,444.8519,225.262,434.8148,225.2042,424.7778,225.4631,414.7407,225.6641,404.7037,225.2496,394.6667,225.6406,384.6296,226.1656,374.5926,225.5397,364.5556,226.448,354.5185,225.2834,344.4815,226.0362,334.4444,225.0916,324.4074,225.47,314.3704,225.7866,304.3333,226.4619,294.2963,225.1222,284.2593,225.6532,274.2222,225.4804,264.1852,226.2813,254.1481,226.4949,244.1111,226.419,234.0741,225.6983,224.037,226.0498,214,225.8174" style="stroke: #A80036; stroke-width: 1.0;"/><path d="M485,225.8174 L484.7164,225.8174 L484.8094,227.8174 L484.7186,229.8174 L484.8053,231.8174 L484.9217,233.8174 L485,235.8174 " fill="#FBFB77" style="stroke: #A80036; stroke-width: 1.0;"/><path d="M495,235.8174 L495,235.9983 L493,235.9918 L491,236.0478 L489,235.7695 L487,235.6423 L485,235.8174 " fill="#FBFB77" style="stroke: #A80036; stroke-width: 1.0;"/><text fill="#000000" font-family="sans-serif" font-size="13" lengthAdjust="spacingAndGlyphs" textLength="260" x="220" y="243.3857">セッションよりアップロードファイルを復元</text><polygon fill="#FEFECE" filter="url(#f4ycqt2)" points="52.5,221.4063,52.5,221.4995,62.4231,220.7381,72.3462,220.8279,82.2692,221.776,92.1923,221.0655,102.1154,221.2312,112.0385,221.6846,121.9615,221.1223,131.8846,221.3373,141.8077,221.9253,151.7308,220.8119,161.6538,221.5848,171.5769,221.5153,181.5,221.4063,181.412,221.1937,183.1981,221.9702,185.0686,222.9505,186.7684,223.5186,188.4992,224.1617,190.3388,225.0674,190.5614,225.1596,190.8431,226.7407,192.0276,228.6959,192.439,230.3307,193.0933,232.0662,194,233.9063,194.0752,233.9063,193.9925,235.7328,193.9619,237.5594,193.8742,239.3859,193.9895,241.2125,194,243.0391,194.2205,243.1304,193.1846,244.7724,192.619,246.6092,191.6581,248.2822,191.0828,250.115,190.3388,251.8779,190.2623,251.6932,188.5809,252.6338,186.8608,253.4813,184.9924,253.9706,183.2272,254.7089,181.5,255.5391,181.5,255.1691,171.5769,255.4647,161.6538,255.8817,151.7308,255.5348,141.8077,255.1228,131.8846,256.1713,121.9615,255.5749,112.0385,255.8284,102.1154,254.8275,92.1923,255.6324,82.2692,256.0473,72.3462,255.7533,62.4231,256.2692,52.5,255.5391,52.4247,255.3574,50.6545,254.6192,48.9439,254.0249,47.1342,253.1916,45.3642,252.4538,43.6612,251.8779,43.4386,251.7857,42.8963,250.0966,42.2016,248.3444,41.3906,246.544,40.677,244.7839,40,243.0391,40.0576,243.0391,39.7847,241.2125,39.9317,239.3859,40.1332,237.5594,40.237,235.7328,40,233.9063,39.8666,233.851,40.9119,232.2129,41.5637,230.4118,41.9813,228.5137,42.8065,226.7845,43.6612,225.0674,43.6312,224.995,45.3873,224.2347,47.2178,223.654,48.9628,222.8667,50.7638,222.2148,52.5,221.4063" style="stroke: #A80036; stroke-width: 1.5;"/><text fill="#000000" font-family="sans-serif" font-size="12" lengthAdjust="spacingAndGlyphs" textLength="134" x="50" y="243.0078">moveFileSessionToTmp</text><polygon fill="#FBFB77" filter="url(#f4ycqt2)" points="197,294.9502,197.1171,294.9502,197.1119,300.0123,197.0445,305.0744,197.0357,310.1365,196.9979,315.1986,197,320.2607,197,320.5759,206.8182,319.9911,216.6364,320.6685,226.4545,320.7398,236.2727,320.389,246.0909,319.9269,255.9091,320.194,265.7273,320.6322,275.5455,319.9342,285.3636,320.7503,295.1818,320.0661,305,320.9392,314.8182,320.3314,324.6364,319.7107,334.4545,320.8659,344.2727,320.7917,354.0909,319.5901,363.9091,319.9933,373.7273,320.6428,383.5455,319.6667,393.3636,320.4558,403.1818,320.347,413,320.2607,412.7848,320.2607,412.7648,317.1986,412.9849,314.1365,413.2123,311.0744,412.8858,308.0123,413,304.9502,412.8243,304.7745,411.0693,303.0195,408.9517,300.9019,406.9271,298.8773,405.143,297.0932,403,294.9502,403,295.4539,393.1905,295.2486,383.381,294.9055,373.5714,295.542,363.7619,294.8778,353.9524,295.5172,344.1429,295.6958,334.3333,295.1181,324.5238,294.9754,314.7143,295.6694,304.9048,295.1308,295.0952,295.1614,285.2857,294.2544,275.4762,294.7166,265.6667,294.2663,255.8571,295.2215,246.0476,295.5881,236.2381,294.6475,226.4286,294.9291,216.619,294.611,206.8095,294.5937,197,294.9502" style="stroke: #A80036; stroke-width: 1.0;"/><polygon fill="#FBFB77" points="197,294.9502,196.9576,294.9502,197.1678,296.6813,196.8551,298.4123,197.114,300.1434,196.7911,301.8744,197,303.6055,197.0479,303.8448,193.0344,304.5775,188.9844,305.1273,184.9789,305.9,180.9648,306.6294,177,307.6055,177.0057,307.6338,180.9978,308.3944,184.9549,308.9802,188.9655,309.8332,192.9727,310.6687,197,311.6055,197.0779,311.6055,197.1235,313.3365,196.9669,315.0676,197.0117,316.7986,197.058,318.5297,197,320.2607,197,320.8713,206.8182,320.1786,216.6364,319.5972,226.4545,320.8943,236.2727,319.8512,246.0909,319.8739,255.9091,320.6463,265.7273,320.3373,275.5455,320.9476,285.3636,320.2177,295.1818,319.9034,305,320.7016,314.8182,320.3776,324.6364,320.6713,334.4545,320.8184,344.2727,319.8912,354.0909,320.2193,363.9091,320.3082,373.7273,320.4,383.5455,320.6325,393.3636,319.7869,403.1818,320.7561,413,320.2607,412.9963,320.2607,413.0373,317.1986,412.7765,314.1365,413.032,311.0744,412.8154,308.0123,413,304.9502,413.1142,305.0644,411.0588,303.009,409.0957,301.0459,406.9017,298.8519,404.9056,296.8558,403,294.9502,403,294.9137,393.1905,294.9829,383.381,295.5906,373.5714,294.9966,363.7619,294.544,353.9524,294.2524,344.1429,294.5763,334.3333,294.456,324.5238,294.9266,314.7143,294.3595,304.9048,295.6199,295.0952,294.2292,285.2857,294.872,275.4762,294.9382,265.6667,294.3472,255.8571,295.2916,246.0476,295.2532,236.2381,294.9225,226.4286,294.4424,216.619,294.6606,206.8095,294.2472,197,294.9502" style="stroke: #A80036; stroke-width: 1.0;"/><path d="M403,294.9502 L403.0813,294.9502 L403.138,296.9502 L403.2221,298.9502 L403.049,300.9502 L402.9093,302.9502 L403,304.9502 " fill="#FBFB77" style="stroke: #A80036; stroke-width: 1.0;"/><path d="M413,304.9502 L413,304.881 L411,304.7287 L409,305.1907 L407,304.8128 L405,305.2035 L403,304.9502 " fill="#FBFB77" style="stroke: #A80036; stroke-width: 1.0;"/><text fill="#000000" font-family="sans-serif" font-size="13" lengthAdjust="spacingAndGlyphs" textLength="195" x="203" y="312.5186">アップロードデータとしてセット</text><polygon fill="#FEFECE" filter="url(#f4ycqt2)" points="69.5,290.5391,69.5,290.0337,79,289.801,88.5,290.7163,98,290.2141,107.5,291.2705,117,290.3022,126.5,290.7676,136,290.9605,145.5,291.2345,155,289.9992,164.5,290.5391,164.4519,290.4229,166.2552,291.241,168.0676,292.0809,169.8737,292.9058,171.547,293.41,173.3388,294.2002,173.5645,294.2937,174.2975,296.0618,174.7472,297.7125,175.5004,299.489,176.3512,301.3059,177,303.0391,176.9483,303.0391,177.2155,304.8656,176.9034,306.6922,176.9132,308.5188,177.1296,310.3453,177,312.1719,177.0725,312.2019,176.4612,314.0198,175.7625,315.8014,174.9749,317.5462,173.9236,319.1819,173.3388,321.0107,173.2904,320.8939,171.5628,321.7229,169.7202,322.2744,168.0468,323.2346,166.1935,323.7603,164.5,324.6719,164.5,324.5528,155,324.3483,145.5,324.627,136,324.492,126.5,325.361,117,324.6105,107.5,325.02,98,324.5603,88.5,324.2139,79,324.1529,69.5,324.6719,69.5343,324.7548,67.7571,323.9998,65.943,323.1557,64.1272,322.3075,62.4788,321.8634,60.6612,321.0107,60.8205,321.0767,60.0622,319.2982,59.347,317.5374,58.6342,315.7777,57.9367,314.0244,57,312.1719,57.0108,312.1719,56.972,310.3453,56.9573,308.5188,57.2005,306.6922,57.0511,304.8656,57,303.0391,56.8661,302.9836,57.5174,301.1823,58.3514,299.4567,59.3363,297.7936,60.1296,296.0511,60.6612,294.2002,60.7457,294.4044,62.3827,293.3563,64.2138,292.7771,65.8868,291.816,67.742,291.2948,69.5,290.5391" style="stroke: #A80036; stroke-width: 1.5;"/><text fill="#000000" font-family="sans-serif" font-size="12" lengthAdjust="spacingAndGlyphs" textLength="100" x="67" y="312.1406">setUploadingFiles</text><polygon fill="none" filter="url(#f4ycqt2)" points="126.5103,371.9189,125.5973,373.9318,124.3931,375.5464,122.6702,378.6147,119.3411,379.5658,116.4503,380.081,114.4337,379.0646,111.0405,378.165,108.8414,376.1317,107.6874,372.9406,107.5292,370.5875,106.6305,367.8148,107.9634,365.4281,109.5671,362.9933,111.9423,360.9666,114.639,359.8596,118.1611,359.3274,121.1498,360.8515,123.174,361.4748,124.9426,363.445,126.0595,365.2848,127.2902,367.5597,127.4517,370.8846" style="stroke: #000000; stroke-width: 1.0;"/><polygon fill="#000000" filter="url(#f4ycqt2)" points="123.1047,371.1823,122.9764,372.9741,121.5782,374.0811,120.239,375.5171,118.6293,375.9762,117.2334,376.1389,115.5384,375.7144,114.2522,375.4391,113.1121,374.307,112.4026,372.9314,111.3079,371.3913,111.2021,370.0682,111.6637,368.9578,112.3713,367.1884,112.9482,365.913,114.6965,364.8884,115.7359,364.5014,117.1052,363.9571,119.0262,364.2297,119.985,364.9597,120.9116,365.5527,122.1768,366.4398,123.3514,367.9494,123.1681,369.1115,123.1836,370.4298" style="stroke: none; stroke-width: 1.0;"/><path d="M117,51.1992 L116.8785,51.1992 L116.9874,55.1992 L116.7735,59.1992 L117.063,63.1992 L117.309,67.1992 L117,71.1992 " fill="#A80036" style="stroke: #A80036; stroke-width: 1.5;"/><polygon fill="#A80036" points="113,61.1992,113.0737,61.2287,113.5729,63.1084,114.7465,65.2578,115.2835,67.1526,116.3912,69.2757,117,71.1992,117.1631,71.2645,117.9476,69.2583,118.6349,67.2132,119.616,65.2856,120.3487,63.2587,121,61.1992,120.8869,61.0861,120.311,62.1102,119.3621,62.7613,118.7638,63.763,117.7606,64.3598,117,65.1992,117.075,65.2742,116.1851,64.3843,115.547,63.7463,114.6787,62.8779,113.7934,61.9926,113,61.1992" style="stroke: #A80036; stroke-width: 1.0;"/><path d="M117,186.4063 L117.288,186.4063 L116.7442,193.4063 L116.7324,200.4063 L116.8352,207.4063 L116.7959,214.4063 L117,221.4063 " fill="#A80036" style="stroke: #A80036; stroke-width: 1.5;"/><polygon fill="#A80036" points="113,211.4063,112.9741,211.3959,113.5951,213.3243,114.6778,215.4374,115.2869,217.361,116.1761,219.3967,117,221.4063,117.2144,221.492,117.8225,219.4152,118.6153,217.4124,119.2506,215.3465,120.2756,213.4365,121,211.4063,120.9595,211.3657,120.0869,212.0932,119.2507,212.857,118.608,213.8143,117.7042,214.5104,117,215.4063,117.0747,215.4809,116.1841,214.5904,115.4035,213.8098,114.6188,213.0251,113.7239,212.1302,113,211.4063" style="stroke: #A80036; stroke-width: 1.0;"/><path d="M117,255.5391 L117.1064,255.5391 L116.9347,262.5391 L117.1389,269.5391 L117.0808,276.5391 L116.8945,283.5391 L117,290.5391 " fill="#A80036" style="stroke: #A80036; stroke-width: 1.5;"/><polygon fill="#A80036" points="113,280.5391,113.0889,280.5746,113.9069,282.5818,114.7811,284.6115,115.6273,286.63,116.3142,288.5848,117,290.5391,117.0121,290.5439,117.6405,288.4753,118.5298,286.511,119.1917,284.4557,120.333,282.5923,121,280.5391,120.8396,280.3787,120.147,281.2861,119.5756,282.3146,118.5693,282.9084,117.702,283.6411,117,284.5391,117.0957,284.6348,116.247,283.7861,115.4966,283.0357,114.4338,281.9729,113.6406,281.1796,113,280.5391" style="stroke: #A80036; stroke-width: 1.0;"/><path d="M117,324.6719 L116.7673,324.6719 L117.1446,331.6719 L116.8494,338.6719 L116.9833,345.6719 L116.9875,352.6719 L117,359.6719 " fill="#A80036" style="stroke: #A80036; stroke-width: 1.5;"/><polygon fill="#A80036" points="113,349.6719,112.768,349.5791,113.8325,351.6849,114.531,353.6443,115.367,355.6587,116.2341,357.6855,117,359.6719,117.2209,359.7602,117.8989,357.7114,118.4108,355.5962,119.2078,353.595,120.3341,351.7255,121,349.6719,121.0893,349.7612,120.0289,350.3008,119.5637,351.4356,118.5489,352.0208,117.7223,352.7941,117,353.6719,117.0189,353.6908,116.1967,352.8686,115.4307,352.1025,114.5267,351.1986,113.7289,350.4007,113,349.6719" style="stroke: #A80036; stroke-width: 1.0;"/><path d="M117,105.332 L117.0715,105.332 L117.0804,114.7203 L116.1916,124.1086 L116.3331,133.4969 L117.5888,142.8852 L117,152.2734 " fill="#A80036" style="stroke: #A80036; stroke-width: 1.5;"/><polygon fill="#A80036" points="113,142.2734,113.2084,142.3568,113.7344,144.2472,114.7218,146.3221,115.56,148.3374,116.4054,150.3556,117,152.2734,116.7819,152.1862,117.6139,150.199,118.707,148.3163,119.3575,146.2564,120.0511,144.2139,121,142.2734,120.9882,142.2617,120.1547,143.0281,119.3981,143.8716,118.618,144.6915,117.7483,145.4217,117,146.2734,117.0846,146.3581,116.2509,145.5243,115.5607,144.8341,114.6959,143.9693,113.7947,143.0681,113,142.2734" style="stroke: #A80036; stroke-width: 1.0;"/></g></svg>