<?xml version="1.0" encoding="UTF-8" standalone="no"?><svg xmlns="http://www.w3.org/2000/svg" xmlns:xlink="http://www.w3.org/1999/xlink" contentScriptType="application/ecmascript" contentStyleType="text/css" height="1070px" preserveAspectRatio="none" style="width:515px;height:1070px;" version="1.1" viewBox="0 0 515 1070" width="515px" zoomAndPan="magnify"><defs><filter height="300%" id="fb6cu30" width="300%" x="-1" y="-1"><feGaussianBlur result="blurOut" stdDeviation="2.0"/><feColorMatrix in="blurOut" result="blurOut2" type="matrix" values="0 0 0 0 0 0 0 0 0 0 0 0 0 0 0 0 0 0 .4 0"/><feOffset dx="4.0" dy="4.0" in="blurOut2" result="blurOut3"/><feBlend in="SourceGraphic" in2="blurOut3" mode="normal"/></filter></defs><g><text fill="#000000" font-family="sans-serif" font-size="14" font-weight="bold" lengthAdjust="spacingAndGlyphs" textLength="154" x="182" y="23.5352">コンテンツフォルダ編集</text><polygon fill="#FFFFFF" filter="url(#fb6cu30)" points="106.5,99.9766,106.5,100.1327,108.5,99.9764,110.5,100.2046,112.5,99.9718,114.5,99.8549,116.5,99.9766,116.7659,99.9766,116.0233,110.0123,116.5484,120.0479,116.5605,130.0836,116.543,140.1193,116.532,150.155,116.9384,160.1907,116.8292,170.2264,115.8477,180.2621,116.1695,190.2978,116.5469,200.3335,116.2548,210.3692,115.768,220.4049,116.3641,230.4406,116.0146,240.4763,116.3687,250.512,116.6269,260.5476,115.8501,270.5833,116.4011,280.619,116.8761,290.6547,116.3303,300.6904,116.1967,310.7261,117.0718,320.7618,117.1096,330.7975,116.003,340.8332,116.854,350.8689,116.1291,360.9046,117.0266,370.9403,117.1647,380.976,117.226,391.0117,117.0846,401.0473,115.7713,411.083,116.4235,421.1187,116.6606,431.1544,116.1732,441.1901,117.2436,451.2258,115.9662,461.2615,116.3412,471.2972,116.2389,481.3329,116.9939,491.3686,117.0074,501.4043,116.8502,511.44,116.979,521.4757,116.0973,531.5114,116.8177,541.547,116.6733,551.5827,117.0219,561.6184,116.9407,571.6541,116.9909,581.6898,117.1092,591.7255,115.8248,601.7612,116.5938,611.7969,116.2221,621.8326,115.952,631.8683,116.2231,641.904,117.1273,651.9397,116.0677,661.9754,115.9152,672.0111,116.1303,682.0467,115.881,692.0824,116.4246,702.1181,116.0746,712.1538,116.889,722.1895,115.7835,732.2252,116.8209,742.2609,116.119,752.2966,116.0977,762.3323,116.8743,772.368,117.035,782.4037,115.9084,792.4394,116.395,802.4751,116.679,812.5108,116.0689,822.5464,116.7574,832.5821,116.6632,842.6178,116.0475,852.6535,116.5842,862.6892,116.4809,872.7249,116.4277,882.7606,116.971,892.7963,116.5726,902.832,117.0623,912.8677,116.3638,922.9034,115.7569,932.9391,116.2747,942.9748,116.3296,953.0105,116.293,963.0461,116.2545,973.0818,116.6759,983.1175,116.2533,993.1532,115.8461,1003.1889,116.5,1013.2246,116.5,1013.0893,114.5,1013.1616,112.5,1013.1962,110.5,1013.2546,108.5,1013.2651,106.5,1013.2246,106.0772,1013.2246,106.3258,1003.1889,106.8726,993.1532,105.8856,983.1175,105.8171,973.0818,106.119,963.0461,106.4174,953.0105,106.1624,942.9748,107.0537,932.9391,106.6741,922.9034,106.8025,912.8677,106.0833,902.832,106.4801,892.7963,105.983,882.7606,106.9058,872.7249,105.9631,862.6892,106.5863,852.6535,106.0108,842.6178,107.1506,832.5821,106.9161,822.5464,106.1744,812.5108,106.9562,802.4751,106.4861,792.4394,106.784,782.4037,105.957,772.368,107.1717,762.3323,106.454,752.2966,106.2958,742.2609,105.9557,732.2252,106.0592,722.1895,105.9415,712.1538,107.223,702.1181,107.0158,692.0824,106.5182,682.0467,105.7991,672.0111,106.596,661.9754,106.9323,651.9397,105.9855,641.904,106.4045,631.8683,105.7968,621.8326,105.9397,611.7969,106.2751,601.7612,106.9874,591.7255,106.5503,581.6898,106.1489,571.6541,106.2916,561.6184,107.0926,551.5827,105.9969,541.547,106.9321,531.5114,106.7681,521.4757,106.9444,511.44,107.136,501.4043,106.2431,491.3686,106.4524,481.3329,106.1972,471.2972,106.5009,461.2615,105.9321,451.2258,107.146,441.1901,106.5987,431.1544,105.9394,421.1187,106.7587,411.083,107.1806,401.0473,106.4672,391.0117,106.3465,380.976,106.5342,370.9403,106.8044,360.9046,107.087,350.8689,106.6221,340.8332,106.126,330.7975,106.5369,320.7618,107.1537,310.7261,106.5,300.6904,106.9383,290.6547,106.8444,280.619,106.2611,270.5833,106.7304,260.5476,106.944,250.512,106.4802,240.4763,107.106,230.4406,106.8752,220.4049,105.8785,210.3692,106.0338,200.3335,106.602,190.2978,106.2193,180.2621,106.3237,170.2264,106.1342,160.1907,105.9358,150.155,106.485,140.1193,106.1024,130.0836,106.354,120.0479,106.2693,110.0123,106.5,99.9766" style="stroke: #A80036; stroke-width: 1.0;"/><polygon fill="#FFFFFF" filter="url(#fb6cu30)" points="252,129.2871,252,129.3483,254,129.3463,256,129.5106,258,129.2171,260,129.2979,262,129.2871,262.5987,129.2871,262.3498,139.2947,261.6391,149.3022,262.4158,159.3098,262.466,169.3173,262.3327,179.3249,261.8987,189.3324,262.3713,199.34,262.3941,209.3475,261.6171,219.3551,262.309,229.3626,261.5354,239.3702,261.5321,249.3778,261.7537,259.3853,261.6878,269.3929,262.3962,279.4004,262.3693,289.408,261.8919,299.4155,262.174,309.4231,262.558,319.4306,261.29,329.4382,261.3394,339.4457,261.8751,349.4533,262.0397,359.4608,262.6629,369.4684,261.3299,379.476,261.3015,389.4835,261.3983,399.4911,261.646,409.4986,262.6214,419.5062,262.0881,429.5137,262.6858,439.5213,262.3637,449.5288,262.6881,459.5364,261.9592,469.5439,261.4273,479.5515,262.6662,489.559,262.6022,499.5666,262.1711,509.5741,261.4313,519.5817,261.8117,529.5893,261.7468,539.5968,262.274,549.6044,261.8263,559.6119,262.1232,569.6195,262.2445,579.627,261.4724,589.6346,261.7503,599.6421,262.4559,609.6497,262.4344,619.6572,261.626,629.6648,262.1075,639.6723,261.6824,649.6799,262.3797,659.6875,262.5266,669.695,261.7449,679.7026,262.3402,689.7101,261.7448,699.7177,261.5053,709.7252,261.7964,719.7328,261.6132,729.7403,261.9354,739.7479,262.6748,749.7554,261.7877,759.763,261.4167,769.7705,262.657,779.7781,261.6863,789.7857,262.3928,799.7932,262.5335,809.8008,262.5084,819.8083,261.7871,829.8159,262.4886,839.8234,262.0061,849.831,261.898,859.8385,261.6965,869.8461,261.8567,879.8536,262.3235,889.8612,261.9325,899.8687,261.3792,909.8763,262.5418,919.8838,261.3542,929.8914,262.5101,939.899,262.185,949.9065,262,959.9141,262,959.7432,260,959.7367,258,960.1197,256,959.7605,254,960.1258,252,959.9141,251.3566,959.9141,251.811,949.9065,251.9175,939.899,252.6898,929.8914,252.7125,919.8838,251.5567,909.8763,251.7053,899.8687,251.7279,889.8612,251.6479,879.8536,252.4592,869.8461,252.253,859.8385,252.2465,849.831,252.5414,839.8234,252.0376,829.8159,251.9594,819.8083,251.6299,809.8008,251.8786,799.7932,252.4633,789.7857,252.0789,779.7781,251.8423,769.7705,251.6154,759.763,252.6904,749.7554,252.6313,739.7479,252.4364,729.7403,252.6271,719.7328,252.0977,709.7252,251.8102,699.7177,252.2065,689.7101,252.4258,679.7026,251.6652,669.695,252.6241,659.6875,252.5032,649.6799,251.5179,639.6723,252.3121,629.6648,251.6789,619.6572,251.3708,609.6497,252.5511,599.6421,252.3292,589.6346,252.5062,579.627,251.2656,569.6195,251.7443,559.6119,251.8492,549.6044,251.6693,539.5968,252.6588,529.5893,252.0268,519.5817,252.0131,509.5741,251.5343,499.5666,251.3358,489.559,251.8179,479.5515,251.4059,469.5439,252.576,459.5364,251.6538,449.5288,252.4608,439.5213,251.9546,429.5137,251.3981,419.5062,251.4326,409.4986,252.4912,399.4911,251.8045,389.4835,251.2895,379.476,252.0124,369.4684,252.1567,359.4608,252.7168,349.4533,252.1028,339.4457,251.3279,329.4382,251.927,319.4306,252.2575,309.4231,251.5368,299.4155,251.6188,289.408,251.628,279.4004,251.4803,269.3929,252.0317,259.3853,252.1132,249.3778,252.3101,239.3702,251.4432,229.3626,252.4313,219.3551,252.6986,209.3475,252.0138,199.34,252.7345,189.3324,251.8531,179.3249,252.7217,169.3173,252.7257,159.3098,252.2265,149.3022,251.8096,139.2947,252,129.2871" style="stroke: #A80036; stroke-width: 1.0;"/><polygon fill="#FFFFFF" filter="url(#fb6cu30)" points="375.5,532.3242,375.5,532.2031,377.5,532.5011,379.5,532.4976,381.5,532.512,383.5,532.4106,385.5,532.3242,385.7491,532.3242,385.9901,542.3386,384.9607,552.3529,385.867,562.3673,386.2194,572.3816,385.4949,582.3959,386.0828,592.4103,385.8276,602.4246,385.8222,612.439,385.6623,622.4533,385.9728,632.4677,385.831,642.482,384.8743,652.4964,385.7279,662.5107,384.9439,672.5251,385.146,682.5394,385.1109,692.5537,385.6562,702.5681,386.0548,712.5824,385.1211,722.5968,385.1606,732.6111,385.7422,742.6255,385.739,752.6398,385.4035,762.6542,385.1679,772.6685,385.5559,782.6829,385.8089,792.6972,385.0544,802.7115,385.0581,812.7259,385.5,822.7402,385.5,822.8939,383.5,822.6132,381.5,822.5392,379.5,822.8558,377.5,822.5785,375.5,822.7402,375.0574,822.7402,375.5467,812.7259,375.89,802.7115,375.3291,792.6972,375.7565,782.6829,375.6383,772.6685,375.0409,762.6542,375.9522,752.6398,375.9545,742.6255,375.7795,732.6111,375.3206,722.5968,375.5138,712.5824,374.8182,702.5681,375.2369,692.5537,374.9433,682.5394,374.7621,672.5251,376.2343,662.5107,374.78,652.4964,375.3325,642.482,375.206,632.4677,376.1092,622.4533,375.9882,612.439,375.6501,602.4246,375.3719,592.4103,376.0747,582.3959,375.6576,572.3816,375.3188,562.3673,376.1762,552.3529,375.6818,542.3386,375.5,532.3242" style="stroke: #A80036; stroke-width: 1.0;"/><path d="M111,68.9766 L111.3004,68.9766 L111.0735,79 L111.1507,89.0234 L110.574,99.0468 L111.4897,109.0702 L111.0637,119.0936 L111.4775,129.1171 L110.7665,139.1405 L110.4892,149.1639 L110.4765,159.1873 L110.3241,169.2107 L110.7517,179.2342 L110.3227,189.2576 L110.8506,199.281 L110.1489,209.3044 L111.6326,219.3278 L111.2874,229.3512 L111.1729,239.3747 L110.4409,249.3981 L111.8349,259.4215 L111.2207,269.4449 L111.4002,279.4683 L110.253,289.4917 L111.9487,299.5152 L111.2528,309.5386 L110.3587,319.562 L110.123,329.5854 L111.3603,339.6088 L110.8372,349.6322 L111.3115,359.6557 L111.0797,369.6791 L110.5174,379.7025 L111.3935,389.7259 L110.7037,399.7493 L110.1896,409.7727 L110.859,419.7962 L110.3787,429.8196 L111.2466,439.843 L110.8075,449.8664 L111.0637,459.8898 L110.026,469.9132 L111.5957,479.9367 L111.3279,489.9601 L111.3315,499.9835 L111.3447,510.0069 L111.4062,520.0303 L110.8127,530.0538 L110.9091,540.0772 L110.2704,550.1006 L110.5168,560.124 L111.3837,570.1474 L110.0102,580.1708 L111.0892,590.1943 L110.4152,600.2177 L111.72,610.2411 L111.648,620.2645 L110.4256,630.2879 L110.9835,640.3113 L111.3884,650.3348 L111.7137,660.3582 L111.1955,670.3816 L111.798,680.405 L110.0613,690.4284 L110.8806,700.4518 L111.9667,710.4753 L110.9771,720.4987 L110.9411,730.5221 L111.5966,740.5455 L111.1559,750.5689 L111.7231,760.5923 L111.9099,770.6158 L111.5568,780.6392 L111.4059,790.6626 L111.2973,800.686 L111.0623,810.7094 L111.6011,820.7328 L111.3502,830.7563 L111.1969,840.7797 L111.3575,850.8031 L110.9865,860.8265 L111.7606,870.8499 L110.7666,880.8734 L110.1358,890.8968 L110.4143,900.9202 L110.8132,910.9436 L111.3866,920.967 L111.2012,930.9904 L111.0695,941.0139 L110.8692,951.0373 L110.7156,961.0607 L110.0568,971.0841 L110.2357,981.1075 L110.7847,991.1309 L110.2508,1001.1544 L110.7067,1011.1778 L110.802,1021.2012 L111,1031.2246 " fill="none" style="stroke: #A80036; stroke-width: 1.0; stroke-dasharray: 5.0,5.0;"/><path d="M257,68.9766 L257.298,68.9766 L256.6799,79 L257.2033,89.0234 L257.1596,99.0468 L256.5341,109.0702 L256.159,119.0936 L256.8171,129.1171 L257.6116,139.1405 L256.0808,149.1639 L256.7367,159.1873 L256.3479,169.2107 L257.478,179.2342 L257.4504,189.2576 L257.6787,199.281 L256.6714,209.3044 L257.5783,219.3278 L256.0342,229.3512 L257.4119,239.3747 L257.1263,249.3981 L257.7072,259.4215 L256.8923,269.4449 L256.2098,279.4683 L256.8033,289.4917 L256.0939,299.5152 L257.8887,309.5386 L257.5872,319.562 L256.1813,329.5854 L257.6443,339.6088 L256.7882,349.6322 L257.6464,359.6557 L257.8846,369.6791 L256.0157,379.7025 L257.9813,389.7259 L256.3369,399.7493 L257.5987,409.7727 L257.2567,419.7962 L257.4793,429.8196 L256.7457,439.843 L257.3819,449.8664 L257.8692,459.8898 L257.7477,469.9132 L256.1232,479.9367 L257.7513,489.9601 L257.711,499.9835 L256.7984,510.0069 L257.3834,520.0303 L257.9936,530.0538 L256.1535,540.0772 L256.76,550.1006 L256.2813,560.124 L256.1705,570.1474 L256.345,580.1708 L257.8757,590.1943 L257.3751,600.2177 L257.2341,610.2411 L257.3057,620.2645 L256.5489,630.2879 L257.2229,640.3113 L257.5603,650.3348 L256.8867,660.3582 L256.6642,670.3816 L256.0437,680.405 L257.0325,690.4284 L256.3772,700.4518 L257.9556,710.4753 L257.2873,720.4987 L257.5721,730.5221 L257.7273,740.5455 L257.6775,750.5689 L256.2132,760.5923 L257.7132,770.6158 L256.9781,780.6392 L256.2529,790.6626 L257.6718,800.686 L256.458,810.7094 L256.5506,820.7328 L257.9306,830.7563 L257.8069,840.7797 L256.2252,850.8031 L256.5433,860.8265 L257.7795,870.8499 L256.3689,880.8734 L256.2178,890.8968 L257.1244,900.9202 L256.5777,910.9436 L257.7309,920.967 L257.9873,930.9904 L256.4757,941.0139 L257.3287,951.0373 L257.5407,961.0607 L256.3598,971.0841 L257.559,981.1075 L257.2378,991.1309 L256.2228,1001.1544 L257.2174,1011.1778 L256.2206,1021.2012 L257,1031.2246 " fill="none" style="stroke: #A80036; stroke-width: 1.0; stroke-dasharray: 5.0,5.0;"/><path d="M380,68.9766 L380.0344,68.9766 L379.261,79 L379.8894,89.0234 L379.8369,99.0468 L380.5013,109.0702 L380.3443,119.0936 L379.1112,129.1171 L380.8271,139.1405 L379.9963,149.1639 L379.0542,159.1873 L379.6455,169.2107 L380.9184,179.2342 L380.6088,189.2576 L379.7979,199.281 L379.7391,209.3044 L380.0491,219.3278 L380.3855,229.3512 L379.1597,239.3747 L379.5996,249.3981 L380.2279,259.4215 L380.7958,269.4449 L380.7477,279.4683 L380.0284,289.4917 L379.5433,299.5152 L380.2751,309.5386 L379.9535,319.562 L380.237,329.5854 L380.8261,339.6088 L380.2928,349.6322 L379.8235,359.6557 L380.6962,369.6791 L379.2162,379.7025 L379.935,389.7259 L380.4551,399.7493 L379.6348,409.7727 L380.0714,419.7962 L380.4766,429.8196 L380.988,439.843 L379.503,449.8664 L380.277,459.8898 L380.8358,469.9132 L379.3498,479.9367 L380.3564,489.9601 L380.0775,499.9835 L380.1618,510.0069 L380.4469,520.0303 L380.6916,530.0538 L379.0496,540.0772 L379.102,550.1006 L380.4565,560.124 L380.7776,570.1474 L380.7689,580.1708 L380.5265,590.1943 L379.2815,600.2177 L380.9803,610.2411 L380.0992,620.2645 L379.6579,630.2879 L379.0703,640.3113 L379.9631,650.3348 L380.8416,660.3582 L380.6635,670.3816 L379.9839,680.405 L380.9765,690.4284 L379.7279,700.4518 L379.8075,710.4753 L379.1095,720.4987 L380.7093,730.5221 L379.4325,740.5455 L380.25,750.5689 L380.5732,760.5923 L380.3784,770.6158 L380.3937,780.6392 L380.4915,790.6626 L380.497,800.686 L380.8713,810.7094 L380.8022,820.7328 L379.3273,830.7563 L379.4744,840.7797 L380.8316,850.8031 L380.1082,860.8265 L380.963,870.8499 L379.7056,880.8734 L380.5916,890.8968 L379.836,900.9202 L380.6826,910.9436 L379.8376,920.967 L379.8085,930.9904 L380.3676,941.0139 L380.1238,951.0373 L379.8968,961.0607 L380.5465,971.0841 L379.6679,981.1075 L379.8263,991.1309 L379.4792,1001.1544 L380.3769,1011.1778 L379.6707,1021.2012 L380,1031.2246 " fill="none" style="stroke: #A80036; stroke-width: 1.0; stroke-dasharray: 5.0,5.0;"/><polygon fill="#FEFECE" filter="url(#fb6cu30)" points="53,33.4883,53,32.9367,63.2727,33.9259,73.5455,33.3598,83.8182,33.6625,94.0909,32.7794,104.3636,33.5802,114.6364,32.9073,124.9091,32.8735,135.1818,33.8259,145.4545,33.6716,155.7273,33.1749,166,33.4883,166.012,33.4883,165.8984,39.5859,165.78,45.6836,166.2031,51.7813,166.1452,57.8789,166,63.9766,166,64.1954,155.7273,64.5939,145.4545,63.9825,135.1818,63.2555,124.9091,63.4591,114.6364,64.2273,104.3636,63.2319,94.0909,63.7429,83.8182,64.2394,73.5455,64.3795,63.2727,63.8684,53,63.9766,52.924,63.9766,53.248,57.8789,53.0901,51.7813,52.7719,45.6836,53.217,39.5859,53,33.4883" style="stroke: #A80036; stroke-width: 1.5;"/><text fill="#000000" font-family="sans-serif" font-size="14" lengthAdjust="spacingAndGlyphs" textLength="99" x="60" y="54.0234">ContentFolder</text><polygon fill="#FEFECE" filter="url(#fb6cu30)" points="53,1030.2246,53,1030.9075,63.2727,1030.9233,73.5455,1029.4907,83.8182,1029.7659,94.0909,1029.9835,104.3636,1030.049,114.6364,1030.5736,124.9091,1030.8317,135.1818,1030.5015,145.4545,1029.9262,155.7273,1030.4982,166,1030.2246,166.0303,1030.2246,165.7603,1036.3223,166.1327,1042.4199,166.0004,1048.5176,165.9306,1054.6152,166,1060.7129,166,1060.6986,155.7273,1060.3539,145.4545,1060.988,135.1818,1060.3763,124.9091,1060.9412,114.6364,1060.9878,104.3636,1060.176,94.0909,1060.3382,83.8182,1060.1137,73.5455,1060.2593,63.2727,1060.5198,53,1060.7129,53.1413,1060.7129,53.1742,1054.6152,53.0233,1048.5176,53.1828,1042.4199,52.9772,1036.3223,53,1030.2246" style="stroke: #A80036; stroke-width: 1.5;"/><text fill="#000000" font-family="sans-serif" font-size="14" lengthAdjust="spacingAndGlyphs" textLength="99" x="60" y="1050.7598">ContentFolder</text><polygon fill="#FEFECE" filter="url(#fb6cu30)" points="180,33.4883,180,33.766,190,34.2235,200,33.9586,210,33.6525,220,33.4351,230,33.3038,240,34.1551,250,33.0053,260,34.2241,270,34.0827,280,33.8277,290,33.7501,300,34.0026,310,33.9758,320,34.0818,330,33.4883,330.074,33.4883,329.8176,39.5859,329.7837,45.6836,330.0328,51.7813,329.9148,57.8789,330,63.9766,330,64.4475,320,63.9535,310,64.5366,300,64.5935,290,64.2607,280,64.6326,270,63.7251,260,64.4144,250,64.648,240,64.1231,230,64.2936,220,63.606,210,63.8411,200,63.9043,190,63.822,180,63.9766,179.9343,63.9766,179.9005,57.8789,180.2431,51.7813,180.148,45.6836,180.0073,39.5859,180,33.4883" style="stroke: #A80036; stroke-width: 1.5;"/><text fill="#000000" font-family="sans-serif" font-size="14" lengthAdjust="spacingAndGlyphs" textLength="136" x="187" y="54.0234">BcContentsBehavior</text><polygon fill="#FEFECE" filter="url(#fb6cu30)" points="180,1030.2246,180,1030.5982,190,1030.751,200,1030.0813,210,1030.4125,220,1030.4631,230,1030.6793,240,1030.5321,250,1029.9832,260,1029.4958,270,1030.184,280,1029.5755,290,1030.0766,300,1029.4941,310,1030.1361,320,1029.9152,330,1030.2246,329.8094,1030.2246,330.1452,1036.3223,330.1455,1042.4199,329.9524,1048.5176,329.9119,1054.6152,330,1060.7129,330,1061.1258,320,1060.9964,310,1060.9608,300,1060.2272,290,1059.9724,280,1060.9374,270,1061.0706,260,1060.2977,250,1061.4234,240,1061.4292,230,1060.2704,220,1060.6422,210,1061.0998,200,1060.5862,190,1060.7133,180,1060.7129,180.0511,1060.7129,179.9617,1054.6152,179.9003,1048.5176,180.0578,1042.4199,180.117,1036.3223,180,1030.2246" style="stroke: #A80036; stroke-width: 1.5;"/><text fill="#000000" font-family="sans-serif" font-size="14" lengthAdjust="spacingAndGlyphs" textLength="136" x="187" y="1050.7598">BcContentsBehavior</text><polygon fill="#FEFECE" filter="url(#fb6cu30)" points="344,33.4883,344,33.8849,353.8571,33.4974,363.7143,33.7345,373.5714,32.8298,383.4286,33.6716,393.2857,32.9717,403.1429,33.6903,413,33.4883,412.8433,33.4883,412.7881,39.5859,413.0064,45.6836,412.9293,51.7813,412.9154,57.8789,413,63.9766,413,64.5222,403.1429,64.1125,393.2857,64.5293,383.4286,64.3363,373.5714,63.837,363.7143,64.5509,353.8571,64.6791,344,63.9766,343.9089,63.9766,344.1589,57.8789,343.8494,51.7813,344.2136,45.6836,344.0402,39.5859,344,33.4883" style="stroke: #A80036; stroke-width: 1.5;"/><text fill="#000000" font-family="sans-serif" font-size="14" lengthAdjust="spacingAndGlyphs" textLength="55" x="351" y="54.0234">Content</text><polygon fill="#FEFECE" filter="url(#fb6cu30)" points="344,1030.2246,344,1029.7883,353.8571,1030.7851,363.7143,1030.6526,373.5714,1029.9402,383.4286,1030.3306,393.2857,1030.4489,403.1429,1030.6642,413,1030.2246,413.1483,1030.2246,412.9331,1036.3223,412.8729,1042.4199,412.7577,1048.5176,412.8758,1054.6152,413,1060.7129,413,1061.2723,403.1429,1060.1094,393.2857,1060.1214,383.4286,1061.3777,373.5714,1060.1444,363.7143,1061.3271,353.8571,1061.0142,344,1060.7129,344.1146,1060.7129,343.796,1054.6152,344.0288,1048.5176,344.1497,1042.4199,343.7786,1036.3223,344,1030.2246" style="stroke: #A80036; stroke-width: 1.5;"/><text fill="#000000" font-family="sans-serif" font-size="14" lengthAdjust="spacingAndGlyphs" textLength="55" x="351" y="1050.7598">Content</text><polygon fill="#FFFFFF" filter="url(#fb6cu30)" points="106.5,99.9766,106.5,100.0328,108.5,99.9709,110.5,100.1606,112.5,99.77,114.5,99.783,116.5,99.9766,115.8783,99.9766,116.1614,110.0123,116.3515,120.0479,115.9609,130.0836,116.5261,140.1193,117.1841,150.155,116.9577,160.1907,116.0282,170.2264,116.2863,180.2621,115.8041,190.2978,117.1894,200.3335,115.7983,210.3692,116.8516,220.4049,116.256,230.4406,115.8411,240.4763,116.4453,250.512,117.2254,260.5476,116.4807,270.5833,116.4576,280.619,116.8408,290.6547,116.7851,300.6904,116.4831,310.7261,115.9145,320.7618,116.8473,330.7975,116.723,340.8332,116.2055,350.8689,116.5278,360.9046,116.4361,370.9403,116.6956,380.976,115.9299,391.0117,117.103,401.0473,116.5984,411.083,117.1275,421.1187,116.6215,431.1544,117.1756,441.1901,116.7081,451.2258,116.3096,461.2615,116.2298,471.2972,115.8656,481.3329,117.137,491.3686,116.2028,501.4043,116.7735,511.44,116.7663,521.4757,117.0215,531.5114,116.7114,541.547,116.5416,551.5827,116.1157,561.6184,117.1261,571.6541,117.1141,581.6898,116.4595,591.7255,116.6529,601.7612,115.7545,611.7969,115.8505,621.8326,117.0841,631.8683,116.0447,641.904,116.1127,651.9397,116.9437,661.9754,116.3122,672.0111,116.078,682.0467,115.9372,692.0824,117.0036,702.1181,116.2084,712.1538,116.4553,722.1895,116.5651,732.2252,116.9935,742.2609,116.3853,752.2966,115.9942,762.3323,116.9355,772.368,116.7652,782.4037,116.0981,792.4394,116.3307,802.4751,116.7811,812.5108,116.7612,822.5464,116.1457,832.5821,116.8461,842.6178,115.9893,852.6535,116.761,862.6892,115.8095,872.7249,116.4941,882.7606,116.7876,892.7963,116.0982,902.832,116.8955,912.8677,115.9771,922.9034,116.0342,932.9391,115.9096,942.9748,116.4891,953.0105,115.8372,963.0461,116.9752,973.0818,116.6856,983.1175,116.7766,993.1532,115.9551,1003.1889,116.5,1013.2246,116.5,1013.1799,114.5,1013.1171,112.5,1013.3023,110.5,1013.465,108.5,1013.0035,106.5,1013.2246,106.5866,1013.2246,106.6308,1003.1889,107.2303,993.1532,106.3273,983.1175,105.9,973.0818,106.1734,963.0461,106.2769,953.0105,105.8043,942.9748,106.7614,932.9391,107.1174,922.9034,106.1687,912.8677,106.8246,902.832,106.8671,892.7963,106.508,882.7606,106.4626,872.7249,105.8039,862.6892,106.0526,852.6535,107.1128,842.6178,107.1247,832.5821,106.106,822.5464,106.9935,812.5108,106.3084,802.4751,105.8508,792.4394,106.7708,782.4037,105.7782,772.368,107.0433,762.3323,105.8466,752.2966,106.8578,742.2609,107.023,732.2252,106.5707,722.1895,105.7539,712.1538,106.4969,702.1181,107.1899,692.0824,106.9259,682.0467,106.1279,672.0111,106.2996,661.9754,106.8377,651.9397,106.0962,641.904,106.9138,631.8683,106.3021,621.8326,107.1827,611.7969,106.5176,601.7612,106.7486,591.7255,106.5872,581.6898,107.0703,571.6541,105.9159,561.6184,106.6101,551.5827,106.6495,541.547,106.2647,531.5114,107.0986,521.4757,106.3704,511.44,105.9521,501.4043,105.8404,491.3686,107.0953,481.3329,106.665,471.2972,105.9495,461.2615,106.4231,451.2258,106.5398,441.1901,106.1769,431.1544,107.1366,421.1187,107.0639,411.083,106.8833,401.0473,105.9486,391.0117,105.9208,380.976,106.1443,370.9403,105.9304,360.9046,106.1764,350.8689,105.804,340.8332,106.9067,330.7975,106.7931,320.7618,106.1135,310.7261,107.0025,300.6904,106.9749,290.6547,106.6651,280.619,107.206,270.5833,106.733,260.5476,107.0795,250.512,106.8279,240.4763,106.4113,230.4406,106.9374,220.4049,106.632,210.3692,106.517,200.3335,106.3058,190.2978,107.2256,180.2621,105.7971,170.2264,106.1882,160.1907,106.5701,150.155,106.2693,140.1193,105.7979,130.0836,105.8469,120.0479,105.7507,110.0123,106.5,99.9766" style="stroke: #A80036; stroke-width: 1.0;"/><polygon fill="#FFFFFF" filter="url(#fb6cu30)" points="252,129.2871,252,129.3827,254,129.4035,256,129.2625,258,129.2328,260,129.1621,262,129.2871,261.3593,129.2871,261.7225,139.2947,261.6601,149.3022,261.2557,159.3098,261.3535,169.3173,262.1315,179.3249,261.9134,189.3324,261.273,199.34,261.4753,209.3475,261.3513,219.3551,261.722,229.3626,261.699,239.3702,262.3914,249.3778,262.3657,259.3853,261.6355,269.3929,262.5814,279.4004,261.4844,289.408,261.8485,299.4155,262.7012,309.4231,262.492,319.4306,262.3448,329.4382,262.6782,339.4457,261.8822,349.4533,262.6147,359.4608,261.7847,369.4684,261.4939,379.476,262.0206,389.4835,262.6497,399.4911,261.3846,409.4986,262.6714,419.5062,261.8096,429.5137,261.7422,439.5213,261.4476,449.5288,262.2508,459.5364,261.8323,469.5439,262.5866,479.5515,261.6813,489.559,261.6991,499.5666,261.6432,509.5741,261.7514,519.5817,261.4498,529.5893,261.9486,539.5968,262.619,549.6044,261.6121,559.6119,262.5353,569.6195,262.4143,579.627,262.3805,589.6346,262.5841,599.6421,261.5327,609.6497,262.6537,619.6572,262.4926,629.6648,261.5942,639.6723,262.7493,649.6799,262.0013,659.6875,261.8832,669.695,261.4409,679.7026,261.3247,689.7101,261.3793,699.7177,261.4804,709.7252,262.3468,719.7328,262.6903,729.7403,261.5571,739.7479,261.4611,749.7554,262.1226,759.763,262.4859,769.7705,262.4106,779.7781,262.2145,789.7857,262.4237,799.7932,262.6132,809.8008,262.2093,819.8083,262.1779,829.8159,261.6023,839.8234,262.2594,849.831,261.6431,859.8385,262.5667,869.8461,262.1243,879.8536,262.4428,889.8612,262.683,899.8687,262.7311,909.8763,261.4487,919.8838,261.4407,929.8914,262.4628,939.899,262.3935,949.9065,262,959.9141,262,959.962,260,959.8601,258,959.9659,256,959.7092,254,959.6949,252,959.9141,251.397,959.9141,252.3161,949.9065,252.6833,939.899,251.4254,929.8914,251.9829,919.8838,251.3603,909.8763,252.5621,899.8687,252.0577,889.8612,251.8997,879.8536,252.7455,869.8461,252.0212,859.8385,251.8923,849.831,252.6805,839.8234,252.0304,829.8159,251.3149,819.8083,251.3989,809.8008,252.1522,799.7932,252.2921,789.7857,252.4125,779.7781,251.8714,769.7705,251.4422,759.763,251.3912,749.7554,252.5429,739.7479,252.2177,729.7403,252.5233,719.7328,251.7899,709.7252,251.6314,699.7177,251.6371,689.7101,252.3997,679.7026,252.0431,669.695,252.4217,659.6875,251.7476,649.6799,252.6223,639.6723,251.7021,629.6648,251.3847,619.6572,252.1313,609.6497,251.9824,599.6421,251.6955,589.6346,251.6553,579.627,251.6309,569.6195,251.4741,559.6119,252.2744,549.6044,251.7085,539.5968,251.5439,529.5893,251.9363,519.5817,251.8406,509.5741,251.2766,499.5666,252.6285,489.559,252.1792,479.5515,251.9076,469.5439,252.637,459.5364,251.5583,449.5288,252.3783,439.5213,252.0794,429.5137,251.8508,419.5062,251.6343,409.4986,252.0693,399.4911,252.2716,389.4835,252.3098,379.476,251.6944,369.4684,252.2112,359.4608,251.9382,349.4533,252.5609,339.4457,252.2359,329.4382,251.4926,319.4306,251.3152,309.4231,251.3104,299.4155,251.8053,289.408,252.3444,279.4004,251.6385,269.3929,252.2766,259.3853,251.6926,249.3778,252.4884,239.3702,251.4432,229.3626,251.6492,219.3551,252.4099,209.3475,252.2937,199.34,251.9081,189.3324,251.3376,179.3249,252.3247,169.3173,252.7363,159.3098,251.264,149.3022,251.9345,139.2947,252,129.2871" style="stroke: #A80036; stroke-width: 1.0;"/><polygon fill="#FFFFFF" filter="url(#fb6cu30)" points="375.5,532.3242,375.5,532.5468,377.5,532.1098,379.5,532.5062,381.5,532.4586,383.5,532.3013,385.5,532.3242,385.2889,532.3242,385.4318,542.3386,385.3954,552.3529,384.9274,562.3673,385.1879,572.3816,385.579,582.3959,385.8468,592.4103,384.9834,602.4246,385.2244,612.439,385.2344,622.4533,385.5498,632.4677,385.4058,642.482,386.2174,652.4964,385.4748,662.5107,384.801,672.5251,385.4605,682.5394,385.477,692.5537,385.2008,702.5681,385.4315,712.5824,385.6796,722.5968,384.9894,732.6111,385.4951,742.6255,385.5774,752.6398,385.8229,762.6542,386.2306,772.6685,386.1308,782.6829,384.9187,792.6972,384.7951,802.7115,386.1143,812.7259,385.5,822.7402,385.5,822.5425,383.5,822.5134,381.5,822.9876,379.5,822.8691,377.5,822.7637,375.5,822.7402,375.3291,822.7402,375.9288,812.7259,375.6598,802.7115,375.8847,792.6972,375.3638,782.6829,375.3309,772.6685,376.2382,762.6542,375.8846,752.6398,375.0736,742.6255,375.1553,732.6111,375.9247,722.5968,376.073,712.5824,375.4142,702.5681,375.2442,692.5537,375.6139,682.5394,375.2017,672.5251,375.2836,662.5107,375.0034,652.4964,375.1717,642.482,375.8885,632.4677,375.2578,622.4533,375.1426,612.439,374.8721,602.4246,375.6309,592.4103,375.9533,582.3959,376.108,572.3816,375.0128,562.3673,374.7827,552.3529,375.8756,542.3386,375.5,532.3242" style="stroke: #A80036; stroke-width: 1.0;"/><polygon fill="#A80036" points="94.5,95.9766,94.4554,95.8651,96.5321,96.8567,98.4725,97.5077,100.5326,98.4582,102.4243,98.9874,104.5,99.9766,104.5337,100.0607,102.475,100.7141,100.429,101.3991,98.4353,102.2149,96.4087,102.9483,94.5,103.9766,94.6667,104.1432,95.1532,103.0298,96.0558,102.3324,96.7283,101.4049,97.7904,100.867,98.5,99.9766,98.5492,100.0257,97.6518,99.1284,97.0706,98.5472,96.131,97.6076,95.2111,96.6877,94.5,95.9766" style="stroke: #A80036; stroke-width: 1.0;"/><path d="M3,99.9766 L3,100.5379 L12.75,100.7957 L22.5,99.382 L32.25,99.0768 L42,99.9671 L51.75,100.7632 L61.5,100.9408 L71.25,100.7867 L81,99.8839 L90.75,99.5219 L100.5,99.9766 " fill="none" style="stroke: #A80036; stroke-width: 1.0;"/><text fill="#000000" font-family="sans-serif" font-size="13" lengthAdjust="spacingAndGlyphs" textLength="24" x="10" y="95.5449">edit</text><polygon fill="#A80036" points="240,125.2871,240.0755,125.4759,241.9271,125.9048,243.9752,126.8251,245.9774,127.6306,248.071,128.6645,250,129.2871,250.0526,129.4186,247.9796,130.036,245.9395,130.7358,243.9694,131.6107,241.987,132.4547,240,133.2871,239.8352,133.1223,240.6969,132.384,241.4716,131.5587,242.4587,130.9458,243.2163,130.1034,244,129.2871,243.8769,129.164,243.2147,128.5018,242.2596,127.5468,241.4312,126.7183,240.8983,126.1854,240,125.2871" style="stroke: #A80036; stroke-width: 1.0;"/><path d="M116.5,129.2871 L116.5,130.1677 L126.4615,128.9279 L136.4231,129.1734 L146.3846,129.3599 L156.3462,129.8423 L166.3077,128.6713 L176.2692,129.8262 L186.2308,130.0526 L196.1923,128.3678 L206.1538,128.936 L216.1154,128.5575 L226.0769,128.8196 L236.0385,128.7217 L246,129.2871 " fill="none" style="stroke: #A80036; stroke-width: 1.0;"/><text fill="#000000" font-family="sans-serif" font-size="13" lengthAdjust="spacingAndGlyphs" textLength="35" x="123.5" y="124.8555">setup</text><polygon fill="#FBFB77" filter="url(#fb6cu30)" points="117,142.5977,116.7878,142.5977,116.7617,147.5977,116.812,152.5977,117.0569,157.5977,117.033,162.5977,117,167.5977,117,167.0964,126.8571,167.4538,136.7143,167.364,146.5714,167.2125,156.4286,167.8959,166.2857,166.8922,176.1429,167.2125,186,168.26,195.8571,168.1702,205.7143,167.3311,215.5714,167.3168,225.4286,168.2941,235.2857,167.4939,245.1429,167.9467,255,167.1151,264.8571,167.6481,274.7143,167.1854,284.5714,167.2541,294.4286,167.3615,304.2857,168.3174,314.1429,168.0827,324,168.0393,333.8571,168.0704,343.7143,167.2851,353.5714,168.1632,363.4286,168.0371,373.2857,168.2785,383.1429,167.0245,393,167.5977,392.8206,167.5977,393.0078,164.5977,392.7887,161.5977,393.2479,158.5977,392.9353,155.5977,393,152.5977,392.8947,152.4924,391.0365,150.6342,388.9955,148.5932,387.1552,146.7529,385.1142,144.7119,383,142.5977,383,142.0469,373.1481,141.8927,363.2963,142.6693,353.4444,141.981,343.5926,141.8882,333.7407,142.8218,323.8889,143.1593,314.037,142.7047,304.1852,142.7918,294.3333,142.2115,284.4815,142.5647,274.6296,142.6972,264.7778,142.3756,254.9259,143.2328,245.0741,142.9,235.2222,143.1263,225.3704,142.4221,215.5185,143.2267,205.6667,142.917,195.8148,142.9365,185.963,143.0208,176.1111,142.9334,166.2593,142.1335,156.4074,142.8203,146.5556,142.1501,136.7037,142.8234,126.8519,142.5898,117,142.5977" style="stroke: #A80036; stroke-width: 1.0;"/><path d="M383,142.5977 L383.0084,142.5977 L382.9462,144.5977 L383.0573,146.5977 L382.9797,148.5977 L383.2811,150.5977 L383,152.5977 " fill="#FBFB77" style="stroke: #A80036; stroke-width: 1.0;"/><path d="M393,152.5977 L393,152.451 L391,152.6739 L389,152.4598 L387,152.923 L385,152.6152 L383,152.5977 " fill="#FBFB77" style="stroke: #A80036; stroke-width: 1.0;"/><text fill="#000000" font-family="sans-serif" font-size="13" lengthAdjust="spacingAndGlyphs" textLength="255" x="123" y="160.166">hasOneでコンテンツをフォルダに繋ぎこむ</text><polygon fill="#A80036" points="240,193.9082,239.959,193.8057,241.9136,194.4923,244.0891,195.7309,245.9716,196.2371,248.0109,197.1355,250,197.9082,250.0535,198.042,248.0362,198.7986,245.9615,199.4118,243.9374,200.1516,241.9862,201.0737,240,201.9082,240.0722,201.9804,240.7996,201.1078,241.6019,200.3101,242.2843,199.3926,243.2307,198.739,244,197.9082,244.144,198.0522,243.2644,197.1727,242.3326,196.2408,241.7724,195.6806,240.7668,194.675,240,193.9082" style="stroke: #A80036; stroke-width: 1.0;"/><path d="M116.5,197.9082 L116.5,198.8181 L126.4615,197.6999 L136.4231,198.3919 L146.3846,197.9188 L156.3462,198.2406 L166.3077,197.8561 L176.2692,197.8302 L186.2308,197.5516 L196.1923,197.1497 L206.1538,198.3364 L216.1154,198.5438 L226.0769,197.4796 L236.0385,198.5409 L246,197.9082 " fill="none" style="stroke: #A80036; stroke-width: 1.0;"/><text fill="#000000" font-family="sans-serif" font-size="13" lengthAdjust="spacingAndGlyphs" textLength="90" x="123.5" y="193.4766">beforeValidate</text><polygon fill="#FBFB77" filter="url(#fb6cu30)" points="121,211.2188,121.708,211.2188,120.7908,221.3616,120.3655,231.5045,120.9523,241.6473,121.268,251.7902,121.7097,261.933,121.5538,272.0759,121,282.2188,121,282.2964,130.9259,282.0917,140.8519,281.6415,150.7778,281.4706,160.7037,282.3489,170.6296,282.1032,180.5556,282.5341,190.4815,282.5166,200.4074,281.6248,210.3333,281.7128,220.2593,281.4698,230.1852,282.1349,240.1111,281.7272,250.037,282.7823,259.963,282.7601,269.8889,281.5329,279.8148,282.2465,289.7407,282.819,299.6667,282.8899,309.5926,281.9745,319.5185,282.44,329.4444,281.8719,339.3704,282.4834,349.2963,282.8366,359.2222,282.9127,369.1481,282.755,379.0741,281.9817,389,282.2188,389.7165,282.2188,389.2948,272.0521,388.3429,261.8854,389.3578,251.7188,389.664,241.5521,388.992,231.3854,389,221.2188,389.056,221.2748,386.9692,219.1879,385.1655,217.3843,383.0858,215.3045,380.878,213.0967,379,211.2188,379,210.701,369.0769,210.5631,359.1538,210.7596,349.2308,211.2935,339.3077,211.2788,329.3846,211.9607,319.4615,210.6864,309.5385,210.4804,299.6154,210.851,289.6923,211.208,279.7692,210.9283,269.8462,211.2288,259.9231,211.3361,250,211.787,240.0769,211.434,230.1538,210.532,220.2308,211.5937,210.3077,211.0579,200.3846,211.6788,190.4615,211.1565,180.5385,210.5183,170.6154,210.5971,160.6923,210.9575,150.7692,211.1311,140.8462,210.5801,130.9231,210.7911,121,211.2188" style="stroke: #A80036; stroke-width: 1.0;"/><path d="M379,211.2188 L379.0198,211.2188 L379.0886,213.2188 L379.1208,215.2188 L379.081,217.2188 L378.7658,219.2188 L379,221.2188 " fill="#FBFB77" style="stroke: #A80036; stroke-width: 1.0;"/><path d="M389,221.2188 L389,221.0356 L387,221.131 L385,221.2646 L383,221.4012 L381,221.3946 L379,221.2188 " fill="#FBFB77" style="stroke: #A80036; stroke-width: 1.0;"/><text fill="#000000" font-family="sans-serif" font-size="13" lengthAdjust="spacingAndGlyphs" textLength="130" x="127" y="228.7871">・コンテンツの初期化</text><text fill="#000000" font-family="sans-serif" font-size="13" lengthAdjust="spacingAndGlyphs" textLength="182" x="127" y="244.0977">・コンテンツのバリデーション</text><text fill="#000000" font-family="sans-serif" font-size="13" lengthAdjust="spacingAndGlyphs" textLength="182" x="127" y="259.4082">・バリデーション結果のマージ</text><text fill="#000000" font-family="sans-serif" font-size="13" lengthAdjust="spacingAndGlyphs" textLength="247" x="127" y="274.7188">・バリデーション後のコンテンツのマージ</text><polygon fill="#A80036" points="127.5,293.4609,127.5879,293.6808,125.4083,294.0317,123.5532,295.194,121.4469,295.7282,119.4673,296.5791,117.5,297.4609,117.4364,297.302,119.4121,298.0413,121.5294,299.1345,123.4648,299.7729,125.5468,300.778,127.5,301.4609,127.4424,301.4034,126.6153,300.5762,126.0239,299.9849,124.9573,298.9182,124.2015,298.1624,123.5,297.4609,123.4543,297.4152,124.1342,296.4952,125.112,295.873,125.7801,294.941,126.8289,294.3899,127.5,293.4609" style="stroke: #A80036; stroke-width: 1.0;"/><path d="M121.5,297.4609 L121.5,297.0305 L131.4615,297.7937 L141.4231,297.7908 L151.3846,298.415 L161.3462,297.8718 L171.3077,298.4266 L181.2692,298.2223 L191.2308,296.5531 L201.1923,297.6596 L211.1538,297.1023 L221.1154,297.5689 L231.0769,297.8592 L241.0385,296.595 L251,297.4609 " fill="none" style="stroke: #A80036; stroke-width: 1.0;"/><polygon fill="#A80036" points="240,322.4609,240.0537,322.5952,241.9669,323.1782,243.9242,323.8715,246.0618,325.0155,247.9986,325.6574,250,326.4609,250.0408,326.563,248.0691,327.4337,246.0335,328.1446,244.0086,328.8825,242.077,329.8535,240,330.4609,240.0197,330.4807,240.8722,329.7331,241.6068,328.8678,242.2271,327.888,243.0239,327.0849,244,326.4609,243.8864,326.3473,243.2074,325.6683,242.5219,324.9828,241.6438,324.1047,240.6663,323.1273,240,322.4609" style="stroke: #A80036; stroke-width: 1.0;"/><path d="M116.5,326.4609 L116.5,326.945 L126.4615,326.3858 L136.4231,327.2815 L146.3846,326.7918 L156.3462,326.0186 L166.3077,327.3971 L176.2692,326.908 L186.2308,325.5831 L196.1923,326.6267 L206.1538,325.7755 L216.1154,326.8816 L226.0769,326.6933 L236.0385,327.1773 L246,326.4609 " fill="none" style="stroke: #A80036; stroke-width: 1.0;"/><text fill="#000000" font-family="sans-serif" font-size="13" lengthAdjust="spacingAndGlyphs" textLength="68" x="123.5" y="322.0293">beforeSave</text><polygon fill="#FBFB77" filter="url(#fb6cu30)" points="127,339.7715,126.8895,339.7715,127.2462,347.7715,126.7573,355.7715,126.8331,363.7715,126.9644,371.7715,127,379.7715,127,379.1907,136.8077,379.5808,146.6154,380.3929,156.4231,379.6965,166.2308,380.4932,176.0385,380.5056,185.8462,380.202,195.6538,380.2349,205.4615,379.4801,215.2692,379.1263,225.0769,379.0606,234.8846,380.1108,244.6923,380.0858,254.5,380.1616,264.3077,379.454,274.1154,380.3325,283.9231,379.6283,293.7308,379.893,303.5385,379.1656,313.3462,379.3181,323.1538,380.4438,332.9615,380.2879,342.7692,379.2517,352.5769,380.3566,362.3846,379.352,372.1923,380.2639,382,379.7715,382.0129,379.7715,381.8653,373.7715,381.923,367.7715,381.9584,361.7715,382.1871,355.7715,382,349.7715,382.1449,349.9164,380.1201,347.8916,378.0146,345.7861,376.0362,343.8077,374.0288,341.8003,372,339.7715,372,340.1832,362.2,339.209,352.4,340.3736,342.6,340.1097,332.8,339.4176,323,339.4833,313.2,339.4415,303.4,339.7333,293.6,339.0392,283.8,339.8041,274,339.3805,264.2,340.2602,254.4,339.1791,244.6,339.78,234.8,339.4513,225,340.0231,215.2,339.973,205.4,339.8917,195.6,339.7541,185.8,339.4196,176,339.1402,166.2,339.7021,156.4,339.3876,146.6,339.4488,136.8,340.1319,127,339.7715" style="stroke: #A80036; stroke-width: 1.0;"/><path d="M372,339.7715 L372.0036,339.7715 L372.2658,341.7715 L371.7286,343.7715 L372.2009,345.7715 L372.2503,347.7715 L372,349.7715 " fill="#FBFB77" style="stroke: #A80036; stroke-width: 1.0;"/><path d="M382,349.7715 L382,349.5929 L380,350.0664 L378,350.0207 L376,349.9768 L374,349.9321 L372,349.7715 " fill="#FBFB77" style="stroke: #A80036; stroke-width: 1.0;"/><text fill="#000000" font-family="sans-serif" font-size="13" lengthAdjust="spacingAndGlyphs" textLength="234" x="133" y="357.3398">・コンテンツのバリデーションチェック</text><text fill="#000000" font-family="sans-serif" font-size="13" lengthAdjust="spacingAndGlyphs" textLength="156" x="133" y="372.6504">・エラーが出ていれば終了</text><polygon fill="#A80036" points="127.5,391.3926,127.5454,391.5062,125.4298,392.017,123.5021,392.9978,121.5892,394.0156,119.4901,394.5678,117.5,395.3926,117.4578,395.2871,119.4728,396.1245,121.4171,396.7854,123.5099,397.8172,125.4073,398.3609,127.5,399.3926,127.4898,399.3824,126.7435,398.6361,125.7554,397.6479,125.0328,396.9253,124.425,396.3176,123.5,395.3926,123.5267,395.4193,124.2205,394.5131,125.1607,393.8533,125.9596,393.0522,126.7702,392.2628,127.5,391.3926" style="stroke: #A80036; stroke-width: 1.0;"/><path d="M121.5,395.3926 L121.5,395.0454 L131.4615,395.8879 L141.4231,394.4204 L151.3846,395.2345 L161.3462,394.9731 L171.3077,395.558 L181.2692,395.2377 L191.2308,396.0504 L201.1923,395.07 L211.1538,394.7562 L221.1154,394.9963 L231.0769,396.0102 L241.0385,396.1366 L251,395.3926 " fill="none" style="stroke: #A80036; stroke-width: 1.0;"/><polygon fill="#FBFB77" filter="url(#fb6cu30)" points="8,408.3926,7.9344,408.3926,7.7854,413.3926,7.8804,418.3926,8.1515,423.3926,8.1446,428.3926,8,433.3926,8,432.7191,18.15,433.9932,28.3,433.6711,38.45,433.9117,48.6,432.9151,58.75,432.9489,68.9,433.9156,79.05,433.0261,89.2,433.1921,99.35,433.4802,109.5,433.2621,119.65,433.8078,129.8,433.7007,139.95,433.6183,150.1,432.6546,160.25,433.3952,170.4,432.7093,180.55,433.5165,190.7,432.8787,200.85,433.9926,211,433.3926,210.8276,433.3926,210.8017,430.3926,211.0892,427.3926,211.0401,424.3926,210.9874,421.3926,211,418.3926,211.0823,418.4749,208.8346,416.2271,206.9911,414.3836,205.0555,412.4481,202.9675,410.36,201,408.3926,201,408.2035,190.8421,408.938,180.6842,407.9957,170.5263,408.5373,160.3684,407.7662,150.2105,408.1389,140.0526,408.3305,129.8947,408.5575,119.7368,408.835,109.5789,408.2359,99.4211,408.9175,89.2632,407.8091,79.1053,408.3119,68.9474,407.9055,58.7895,407.9969,48.6316,408.4363,38.4737,408.3799,28.3158,407.6799,18.1579,409.0198,8,408.3926" style="stroke: #A80036; stroke-width: 1.0;"/><path d="M201,408.3926 L200.8646,408.3926 L200.9353,410.3926 L201.0981,412.3926 L200.861,414.3926 L200.9874,416.3926 L201,418.3926 " fill="#FBFB77" style="stroke: #A80036; stroke-width: 1.0;"/><path d="M211,418.3926 L211,418.4922 L209,418.5223 L207,418.4508 L205,418.4015 L203,418.5364 L201,418.3926 " fill="#FBFB77" style="stroke: #A80036; stroke-width: 1.0;"/><text fill="#000000" font-family="sans-serif" font-size="13" lengthAdjust="spacingAndGlyphs" textLength="182" x="14" y="425.9609">・コンテンツフォルダーを保存</text><polygon fill="#A80036" points="240,459.7031,239.9761,459.6433,241.9956,460.4921,243.9684,461.2242,245.9583,461.9989,247.9085,462.6743,250,463.7031,249.9216,463.5072,247.9614,464.4067,245.9845,465.2643,243.9075,465.8719,241.9878,466.8726,240,467.7031,240.1084,467.8115,240.9094,467.0125,241.7541,466.2572,242.4809,465.384,243.2215,464.5246,244,463.7031,244.1551,463.8582,243.0261,462.7293,242.4012,462.1043,241.6974,461.4005,240.9553,460.6584,240,459.7031" style="stroke: #A80036; stroke-width: 1.0;"/><path d="M116.5,463.7031 L116.5,463.3132 L126.4615,464.2545 L136.4231,464.325 L146.3846,463.2 L156.3462,464.0865 L166.3077,463.4319 L176.2692,464.4693 L186.2308,463.0019 L196.1923,463.5215 L206.1538,464.3656 L216.1154,463.7511 L226.0769,463.4587 L236.0385,464.0752 L246,463.7031 " fill="none" style="stroke: #A80036; stroke-width: 1.0;"/><text fill="#000000" font-family="sans-serif" font-size="13" lengthAdjust="spacingAndGlyphs" textLength="57" x="123.5" y="459.2715">afterSave</text><polygon fill="#FBFB77" filter="url(#fb6cu30)" points="192,477.0137,191.8886,477.0137,192.1368,482.0137,191.8883,487.0137,192.1957,492.0137,192.1383,497.0137,192,502.0137,192,502.627,201.6154,502.0287,211.2308,502.6643,220.8462,502.0082,230.4615,502.4674,240.0769,501.4158,249.6923,502.3954,259.3077,502.0637,268.9231,502.4088,278.5385,502.0478,288.1538,502.5924,297.7692,501.5668,307.3846,502.665,317,502.0137,317.1274,502.0137,316.8117,499.0137,317.214,496.0137,316.7581,493.0137,317.0691,490.0137,317,487.0137,316.9718,486.9855,314.8375,484.8512,312.9138,482.9274,310.9869,481.0006,308.8696,478.8833,307,477.0137,307,477.1885,297.4167,476.6515,287.8333,477.1401,278.25,477.3529,268.6667,476.4277,259.0833,476.7023,249.5,477.6341,239.9167,476.3406,230.3333,477.4345,220.75,476.7499,211.1667,476.8931,201.5833,476.4878,192,477.0137" style="stroke: #A80036; stroke-width: 1.0;"/><path d="M307,477.0137 L307.322,477.0137 L306.7018,479.0137 L306.8427,481.0137 L307.0279,483.0137 L306.7088,485.0137 L307,487.0137 " fill="#FBFB77" style="stroke: #A80036; stroke-width: 1.0;"/><path d="M317,487.0137 L317,487.1647 L315,487.2955 L313,487.1772 L311,486.7548 L309,487.0118 L307,487.0137 " fill="#FBFB77" style="stroke: #A80036; stroke-width: 1.0;"/><text fill="#000000" font-family="sans-serif" font-size="13" lengthAdjust="spacingAndGlyphs" textLength="104" x="198" y="494.582">コンテンツの生成</text><polygon fill="#A80036" points="363.5,528.3242,363.5139,528.3589,365.5243,529.1849,367.5849,530.1364,369.5021,530.7294,371.4442,531.3846,373.5,532.3242,373.4136,532.1083,371.5352,533.2122,369.5655,534.0879,367.4428,534.5813,365.5568,535.6663,363.5,536.3242,363.539,536.3633,364.4173,535.6415,365.245,534.8692,365.7979,533.8221,366.8159,533.2401,367.5,532.3242,367.6642,532.4884,366.65,531.4742,365.842,530.6662,365.1943,530.0185,364.2327,529.0569,363.5,528.3242" style="stroke: #A80036; stroke-width: 1.0;"/><path d="M262,532.3242 L262,531.8658 L271.7727,532.9071 L281.5455,532.5765 L291.3182,532.5542 L301.0909,531.4786 L310.8636,532.7025 L320.6364,531.9245 L330.4091,533.2918 L340.1818,532.7763 L349.9545,532.2433 L359.7273,532.2804 L369.5,532.3242 " fill="none" style="stroke: #A80036; stroke-width: 1.0;"/><text fill="#000000" font-family="sans-serif" font-size="13" lengthAdjust="spacingAndGlyphs" textLength="28" x="269" y="527.8926">save</text><path d="M385.5,561.9453 L385.5,561.9422 L393.9,561.6186 L402.3,562.0625 L410.7,561.9892 L419.1,561.8865 L427.5,561.9453 " fill="none" style="stroke: #A80036; stroke-width: 1.0;"/><path d="M427.5,561.9453 L427.8013,561.9453 L427.5659,564.5453 L427.6363,567.1453 L427.341,569.7453 L427.789,572.3453 L427.5,574.9453 " fill="none" style="stroke: #A80036; stroke-width: 1.0;"/><path d="M386.5,574.9453 L386.5,575.066 L394.7,574.962 L402.9,574.7634 L411.1,575.003 L419.3,575.1168 L427.5,574.9453 " fill="none" style="stroke: #A80036; stroke-width: 1.0;"/><polygon fill="#A80036" points="396.5,570.9453,396.4725,570.8765,394.5668,571.9123,392.4134,572.3287,390.428,573.1652,388.4748,574.0824,386.5,574.9453,386.4473,574.8136,388.5637,575.9045,390.4151,576.333,392.5457,577.4597,394.4172,577.9384,396.5,578.9453,396.345,578.7904,395.8516,578.2969,394.7484,577.1937,394.1774,576.6227,393.4438,575.8891,392.5,574.9453,392.3923,574.8377,393.1745,574.0198,394.2211,573.4664,394.7713,572.4166,395.8347,571.88,396.5,570.9453" style="stroke: #A80036; stroke-width: 1.0;"/><text fill="#000000" font-family="sans-serif" font-size="13" lengthAdjust="spacingAndGlyphs" textLength="90" x="392.5" y="557.2031">beforeValidate</text><polygon fill="#FBFB77" filter="url(#fb6cu30)" points="270,587.9453,269.5193,587.9453,270.6206,597.6953,270.4033,607.4453,270.4987,617.1953,270.1049,626.9453,269.5322,636.6953,270.312,646.4453,270.4815,656.1953,270.2335,665.9453,269.6957,675.6953,270.5972,685.4453,269.4137,695.1953,270,704.9453,270,705.2006,279.8182,704.5828,289.6364,705.6625,299.4545,704.5183,309.2727,705.1442,319.0909,704.8139,328.9091,705.5526,338.7273,705.3913,348.5455,704.4911,358.3636,704.3433,368.1818,705.3699,378,705.2814,387.8182,704.8878,397.6364,705.1546,407.4545,704.3416,417.2727,704.9793,427.0909,704.8495,436.9091,704.8363,446.7273,705.2979,456.5455,704.9013,466.3636,704.6392,476.1818,705.1011,486,704.9453,486.1286,704.9453,486.2384,695.218,486.2728,685.4908,486.7266,675.7635,485.4584,666.0362,485.8083,656.3089,485.5028,646.5817,486.0165,636.8544,485.7467,627.1271,485.4377,617.3999,486.1491,607.6726,486,597.9453,486.0419,597.9872,484.1644,596.1097,482.054,593.9993,479.9233,591.8686,477.9889,589.9342,476,587.9453,476,587.6437,466.1905,587.3179,456.381,587.2842,446.5714,587.2618,436.7619,588.5526,426.9524,587.8077,417.1429,588.663,407.3333,588.0978,397.5238,588.1132,387.7143,587.6021,377.9048,588.3758,368.0952,588.6298,358.2857,587.6259,348.4762,588.4668,338.6667,588.0741,328.8571,587.9772,319.0476,587.7364,309.2381,587.9459,299.4286,588.5704,289.619,588.5896,279.8095,587.7671,270,587.9453" style="stroke: #A80036; stroke-width: 1.0;"/><path d="M476,587.9453 L476.0518,587.9453 L475.7595,589.9453 L475.9697,591.9453 L475.9801,593.9453 L476.0065,595.9453 L476,597.9453 " fill="#FBFB77" style="stroke: #A80036; stroke-width: 1.0;"/><path d="M486,597.9453 L486,597.805 L484,597.8076 L482,597.8564 L480,597.6485 L478,598.0506 L476,597.9453 " fill="#FBFB77" style="stroke: #A80036; stroke-width: 1.0;"/><text fill="#000000" font-family="sans-serif" font-size="13" lengthAdjust="spacingAndGlyphs" textLength="91" x="276" y="605.5137">・タイトル整形</text><text fill="#000000" font-family="sans-serif" font-size="13" lengthAdjust="spacingAndGlyphs" textLength="104" x="276" y="620.8242">・更新日のセット</text><text fill="#000000" font-family="sans-serif" font-size="13" lengthAdjust="spacingAndGlyphs" textLength="76" x="276" y="636.1348">・URLの整形</text><text fill="#000000" font-family="sans-serif" font-size="13" lengthAdjust="spacingAndGlyphs" textLength="156" x="276" y="651.4453">・トップフォルダの場合に</text><text fill="#000000" font-family="sans-serif" font-size="13" lengthAdjust="spacingAndGlyphs" textLength="154" x="276" y="666.7559">URLバリデーションを除外</text><text fill="#000000" font-family="sans-serif" font-size="13" lengthAdjust="spacingAndGlyphs" textLength="128" x="276" y="682.0664">・URLの重複チェック</text><text fill="#000000" font-family="sans-serif" font-size="13" lengthAdjust="spacingAndGlyphs" textLength="195" x="276" y="697.377">（重複していた場合は自動生成）</text><path d="M385.5,735.4297 L385.5,735.16 L393.9,735.6141 L402.3,735.2465 L410.7,735.153 L419.1,735.7035 L427.5,735.4297 " fill="none" style="stroke: #A80036; stroke-width: 1.0;"/><path d="M427.5,735.4297 L427.8285,735.4297 L427.2165,738.0297 L427.4753,740.6297 L427.8222,743.2297 L427.3117,745.8297 L427.5,748.4297 " fill="none" style="stroke: #A80036; stroke-width: 1.0;"/><path d="M386.5,748.4297 L386.5,748.19 L394.7,748.1808 L402.9,748.4609 L411.1,748.5701 L419.3,748.7102 L427.5,748.4297 " fill="none" style="stroke: #A80036; stroke-width: 1.0;"/><polygon fill="#A80036" points="396.5,744.4297,396.5453,744.5429,394.5872,745.4476,392.5529,746.1619,390.4673,746.7479,388.5838,747.8392,386.5,748.4297,386.4554,748.3182,388.5557,749.3688,390.5076,750.0488,392.4704,750.7558,394.4218,751.4343,396.5,752.4297,396.5515,752.4812,395.6282,751.5579,394.8935,750.8232,394.2768,750.2064,393.3957,749.3254,392.5,748.4297,392.6336,748.5632,393.284,747.6137,394.2165,746.9462,394.9295,746.0592,395.7994,745.3291,396.5,744.4297" style="stroke: #A80036; stroke-width: 1.0;"/><text fill="#000000" font-family="sans-serif" font-size="13" lengthAdjust="spacingAndGlyphs" textLength="68" x="392.5" y="730.6875">beforeSave</text><polygon fill="#FBFB77" filter="url(#fb6cu30)" points="276,761.4297,276.1963,761.4297,275.9232,766.4297,275.7841,771.4297,275.8583,776.4297,276.127,781.4297,276,786.4297,276,786.8925,286.2,786.6661,296.4,785.7662,306.6,785.694,316.8,785.7838,327,786.9614,337.2,785.9524,347.4,785.8133,357.6,785.795,367.8,786.7918,378,786.3347,388.2,786.1765,398.4,787.1036,408.6,786.2769,418.8,786.7933,429,786.8517,439.2,786.73,449.4,786.1782,459.6,785.8057,469.8,786.4509,480,786.4297,479.768,786.4297,479.9235,783.4297,479.9278,780.4297,479.8507,777.4297,479.985,774.4297,480,771.4297,480.1037,771.5334,477.8932,769.3229,476.1451,767.5748,473.9234,765.3531,472.1455,763.5752,470,761.4297,470,760.8541,459.7895,760.8319,449.5789,761.6123,439.3684,762.0661,429.1579,761.1084,418.9474,761.426,408.7368,761.0414,398.5263,761.7875,388.3158,761.4784,378.1053,762.0525,367.8947,760.8446,357.6842,761.4549,347.4737,760.7294,337.2632,761.1166,327.0526,761.0392,316.8421,762.1762,306.6316,761.1315,296.4211,762.1689,286.2105,761.7998,276,761.4297" style="stroke: #A80036; stroke-width: 1.0;"/><path d="M470,761.4297 L469.8635,761.4297 L469.6763,763.4297 L469.72,765.4297 L469.8321,767.4297 L470.309,769.4297 L470,771.4297 " fill="#FBFB77" style="stroke: #A80036; stroke-width: 1.0;"/><path d="M480,771.4297 L480,771.2313 L478,771.4183 L476,771.2729 L474,771.3594 L472,771.256 L470,771.4297 " fill="#FBFB77" style="stroke: #A80036; stroke-width: 1.0;"/><text fill="#000000" font-family="sans-serif" font-size="13" lengthAdjust="spacingAndGlyphs" textLength="183" x="282" y="778.998">変更前の親コンテンツIDを取得</text><path d="M385.5,822.0508 L385.5,821.7651 L393.9,821.9461 L402.3,821.7955 L410.7,822.374 L419.1,821.9365 L427.5,822.0508 " fill="none" style="stroke: #A80036; stroke-width: 1.0;"/><path d="M427.5,822.0508 L427.2409,822.0508 L427.3536,824.6508 L427.355,827.2508 L427.6942,829.8508 L427.4786,832.4508 L427.5,835.0508 " fill="none" style="stroke: #A80036; stroke-width: 1.0;"/><path d="M380.5,835.0508 L380.5,835.1416 L389.9,835.7746 L399.3,835.2341 L408.7,835.1171 L418.1,835.57 L427.5,835.0508 " fill="none" style="stroke: #A80036; stroke-width: 1.0;"/><polygon fill="#A80036" points="390.5,831.0508,390.4981,831.046,388.4673,831.769,386.5782,832.8462,384.4379,833.2956,382.5915,834.4794,380.5,835.0508,380.4199,834.8505,382.4555,835.7395,384.4978,836.6452,386.5022,837.4563,388.5433,838.3591,390.5,839.0508,390.5883,839.1391,389.5418,838.0926,388.7459,837.2967,388.247,836.7977,387.4231,835.9739,386.5,835.0508,386.367,834.9178,387.1785,834.1293,388.0143,833.3651,389.0737,832.8245,389.8397,831.9905,390.5,831.0508" style="stroke: #A80036; stroke-width: 1.0;"/><text fill="#000000" font-family="sans-serif" font-size="13" lengthAdjust="spacingAndGlyphs" textLength="57" x="392.5" y="817.3086">afterSave</text><polygon fill="#FBFB77" filter="url(#fb6cu30)" points="251,843.0508,251.5281,843.0508,251.3689,853.1508,250.9761,863.2508,250.2986,873.3508,250.712,883.4508,251.1692,893.5508,250.9061,903.6508,250.7917,913.7508,250.8104,923.8508,250.8707,933.9508,251,944.0508,251,944.5327,260.8077,943.5873,270.6154,943.918,280.4231,944.0492,290.2308,943.843,300.0385,944.6425,309.8462,943.3172,319.6538,943.9783,329.4615,943.5167,339.2692,944.3516,349.0769,944.4451,358.8846,943.5206,368.6923,943.8839,378.5,943.6413,388.3077,944.3825,398.1154,944.6119,407.9231,944.6897,417.7308,943.3787,427.5385,944.2108,437.3462,944.042,447.1538,943.9671,456.9615,944.2416,466.7692,943.6098,476.5769,944.5213,486.3846,944.1842,496.1923,943.3798,506,944.0508,506.4259,944.0508,505.7547,933.9397,505.9428,923.8286,506.25,913.7174,506.2441,903.6063,505.5556,893.4952,505.2812,883.3841,505.347,873.273,505.8913,863.1619,506,853.0508,506.0117,853.0625,503.9251,850.9759,501.8339,848.8846,499.9948,847.0456,497.9904,845.0412,496,843.0508,496,842.5423,486.2,843.7346,476.4,843.7275,466.6,842.476,456.8,843.7479,447,843.2702,437.2,842.3607,427.4,843.7494,417.6,843.3703,407.8,843.6774,398,842.7917,388.2,843.6414,378.4,842.7844,368.6,842.5534,358.8,842.8747,349,843.1335,339.2,843.4874,329.4,842.3786,319.6,842.9029,309.8,843.608,300,843.1569,290.2,843.1697,280.4,843.1153,270.6,843.2921,260.8,842.3928,251,843.0508" style="stroke: #A80036; stroke-width: 1.0;"/><path d="M496,843.0508 L495.9178,843.0508 L496.1581,845.0508 L496.0724,847.0508 L495.878,849.0508 L495.9672,851.0508 L496,853.0508 " fill="#FBFB77" style="stroke: #A80036; stroke-width: 1.0;"/><path d="M506,853.0508 L506,853.2132 L504,853.1434 L502,853.1738 L500,853.1561 L498,852.8775 L496,853.0508 " fill="#FBFB77" style="stroke: #A80036; stroke-width: 1.0;"/><text fill="#000000" font-family="sans-serif" font-size="13" lengthAdjust="spacingAndGlyphs" textLength="169" x="257" y="860.6191">・関連するキャッシュを削除</text><text fill="#000000" font-family="sans-serif" font-size="13" lengthAdjust="spacingAndGlyphs" textLength="143" x="257" y="875.9297">・システムデータを更新</text><text fill="#000000" font-family="sans-serif" font-size="13" lengthAdjust="spacingAndGlyphs" textLength="130" x="257" y="891.2402">・子コンテンツの更新</text><text fill="#000000" font-family="sans-serif" font-size="13" lengthAdjust="spacingAndGlyphs" textLength="234" x="257" y="906.5508">・別サイトの関連するコンテンツを更新</text><text fill="#000000" font-family="sans-serif" font-size="13" lengthAdjust="spacingAndGlyphs" textLength="234" x="257" y="921.8613">・親コンテンツが変更となった場合は、</text><text fill="#000000" font-family="sans-serif" font-size="13" lengthAdjust="spacingAndGlyphs" textLength="143" x="257" y="937.1719">最終並び替え日時を更新</text><polygon fill="#A80036" points="268,955.9141,267.9672,955.832,265.9439,956.5738,263.9318,957.3437,262.0327,958.3957,259.9549,959.0012,258,959.9141,257.9293,959.7373,259.947,960.5815,262.0101,961.5392,263.9724,962.2449,265.9178,962.9084,268,963.9141,268.1422,964.0563,267.2725,963.1866,266.4777,962.3918,265.634,961.548,264.8359,960.75,264,959.9141,264.1696,960.0837,264.727,959.041,265.5483,958.2623,266.5214,957.6355,267.2439,956.758,268,955.9141" style="stroke: #A80036; stroke-width: 1.0;"/><path d="M262,959.9141 L262,959.8389 L271.7917,960.5489 L281.5833,960.5649 L291.375,959.7259 L301.1667,960.8014 L310.9583,959.3802 L320.75,960.9058 L330.5417,959.5679 L340.3333,960.2548 L350.125,959.3058 L359.9167,959.892 L369.7083,959.9273 L379.5,959.9141 " fill="none" style="stroke: #A80036; stroke-width: 1.0;"/><polygon fill="#FBFB77" filter="url(#fb6cu30)" points="165,972.9141,165.1667,972.9141,164.9727,977.9141,164.7694,982.9141,165.0124,987.9141,164.8741,992.9141,165,997.9141,165,998.1938,174.9444,997.199,184.8889,997.4544,194.8333,998.6447,204.7778,997.2314,214.7222,997.9794,224.6667,997.7255,234.6111,998.2088,244.5556,997.1996,254.5,998.524,264.4444,997.2756,274.3889,997.5033,284.3333,997.994,294.2778,998.0218,304.2222,998.1223,314.1667,997.3349,324.1111,998.5435,334.0556,997.9468,344,997.9141,343.9555,997.9141,343.8053,994.9141,343.7606,991.9141,343.8223,988.9141,344.1275,985.9141,344,982.9141,343.9257,982.8397,342.0121,980.9262,339.8434,978.7574,338.1148,977.0289,335.9506,974.8647,334,972.9141,334,972.42,324.0588,973.455,314.1176,973.5523,304.1765,973.0648,294.2353,972.5761,284.2941,973.0635,274.3529,973.2784,264.4118,972.679,254.4706,972.9943,244.5294,973.2035,234.5882,972.3251,224.6471,972.4281,214.7059,973.2622,204.7647,972.6554,194.8235,972.6679,184.8824,973.6245,174.9412,972.7754,165,972.9141" style="stroke: #A80036; stroke-width: 1.0;"/><path d="M334,972.9141 L334.1583,972.9141 L334.0133,974.9141 L334.0333,976.9141 L333.8776,978.9141 L333.9659,980.9141 L334,982.9141 " fill="#FBFB77" style="stroke: #A80036; stroke-width: 1.0;"/><path d="M344,982.9141 L344,982.8726 L342,982.6515 L340,983.0111 L338,982.8769 L336,982.6078 L334,982.9141 " fill="#FBFB77" style="stroke: #A80036; stroke-width: 1.0;"/><text fill="#000000" font-family="sans-serif" font-size="13" lengthAdjust="spacingAndGlyphs" textLength="158" x="171" y="990.4824">生成後のContent をマージ</text><polygon fill="#A80036" points="122.5,1009.2246,122.5482,1009.3452,120.5734,1010.2082,118.4616,1010.7287,116.5368,1011.7167,114.4572,1012.3175,112.5,1013.2246,112.4368,1013.0667,114.5199,1014.0744,116.5207,1014.8765,118.5204,1015.6756,120.4997,1016.4239,122.5,1017.2246,122.5732,1017.2978,121.8632,1016.5878,120.8385,1015.5631,120.0564,1014.781,119.1727,1013.8973,118.5,1013.2246,118.51,1013.2346,119.3229,1012.4475,120.2385,1011.7631,120.9542,1010.8788,121.7417,1010.0663,122.5,1009.2246" style="stroke: #A80036; stroke-width: 1.0;"/><path d="M116.5,1013.2246 L116.5,1013.0281 L126.4643,1013.7105 L136.4286,1013.0525 L146.3929,1012.6796 L156.3571,1013.1945 L166.3214,1013.3956 L176.2857,1013.5688 L186.25,1013.0751 L196.2143,1012.5646 L206.1786,1013.386 L216.1429,1013.6048 L226.1071,1014.1314 L236.0714,1012.5671 L246.0357,1013.3862 L256,1013.2246 " fill="none" style="stroke: #A80036; stroke-width: 1.0;"/></g></svg>