<?xml version="1.0" encoding="UTF-8" standalone="no"?><svg xmlns="http://www.w3.org/2000/svg" xmlns:xlink="http://www.w3.org/1999/xlink" contentScriptType="application/ecmascript" contentStyleType="text/css" height="1031px" preserveAspectRatio="none" style="width:470px;height:1031px;" version="1.1" viewBox="0 0 470 1031" width="470px" zoomAndPan="magnify"><defs><filter height="300%" id="fnjh2a1" width="300%" x="-1" y="-1"><feGaussianBlur result="blurOut" stdDeviation="2.0"/><feColorMatrix in="blurOut" result="blurOut2" type="matrix" values="0 0 0 0 0 0 0 0 0 0 0 0 0 0 0 0 0 0 .4 0"/><feOffset dx="4.0" dy="4.0" in="blurOut2" result="blurOut3"/><feBlend in="SourceGraphic" in2="blurOut3" mode="normal"/></filter></defs><g><text fill="#000000" font-family="sans-serif" font-size="14" font-weight="bold" lengthAdjust="spacingAndGlyphs" textLength="238" x="117.5" y="23.5352">シーケンス：コンテンツフォルダ編集</text><polygon fill="#FFFFFF" filter="url(#fnjh2a1)" points="61.5,99.9766,61.5,100.1066,63.5,100.0155,65.5,99.9574,67.5,100.2233,69.5,99.7426,71.5,99.9766,72.2112,99.9766,71.7233,110.0218,71.3219,120.0671,71.8666,130.1123,71.5899,140.1576,71.4515,150.2029,72.0415,160.2481,71.0636,170.2934,70.7953,180.3386,71.5272,190.3839,70.9263,200.4291,72.2429,210.4744,71.153,220.5197,70.8544,230.5649,70.8531,240.6102,71.2534,250.6554,71.8463,260.7007,71.649,270.746,72.0687,280.7912,72.1228,290.8365,70.8007,300.8817,70.8394,310.927,71.5451,320.9723,71.6768,331.0175,72.0873,341.0628,71.6973,351.108,72.0319,361.1533,71.7873,371.1985,70.8092,381.2438,70.7914,391.2891,71.8736,401.3343,71.159,411.3796,71.7047,421.4248,71.9654,431.4701,72.1217,441.5154,71.1759,451.5606,71.9857,461.6059,71.7788,471.6511,72.2034,481.6964,71.3281,491.7416,71.7334,501.7869,71.2357,511.8322,70.9057,521.8774,72.1321,531.9227,71.4869,541.9679,72.1491,552.0132,71.6944,562.0585,71.7373,572.1037,70.996,582.149,71.6543,592.1942,71.9173,602.2395,71.5866,612.2848,71.9566,622.33,71.1875,632.3753,72.2333,642.4205,72.0588,652.4658,70.909,662.511,71.1946,672.5563,71.6681,682.6016,71.4774,692.6468,70.8617,702.6921,70.9198,712.7373,71.5213,722.7826,71.7113,732.8279,72.0973,742.8731,71.8502,752.9184,71.4428,762.9636,70.831,773.0089,71.5256,783.0541,71.763,793.0994,71.3481,803.1447,71.9066,813.1899,71.88,823.2352,71.3261,833.2804,71.9684,843.3257,71.0523,853.371,71.4889,863.4162,70.8556,873.4615,71.2131,883.5067,71.227,893.552,71.3179,903.5973,71.6213,913.6425,71.1818,923.6878,71.0989,933.733,71.9469,943.7783,71.5212,953.8235,71.0747,963.8688,71.5,973.9141,71.5,973.7375,69.5,973.9596,67.5,973.9204,65.5,973.8938,63.5,973.6929,61.5,973.9141,62.1435,973.9141,61.4461,963.8688,62.138,953.8235,61.6223,943.7783,60.9641,933.733,61.1273,923.6878,62.1395,913.6425,62.0006,903.5973,62.2198,893.552,61.7755,883.5067,61.7126,873.4615,61.4452,863.4162,61.9502,853.371,61.2394,843.3257,61.3558,833.2804,61.8142,823.2352,61.6485,813.1899,60.9597,803.1447,61.7989,793.0994,61.7912,783.0541,61.4519,773.0089,60.9035,762.9636,61.1982,752.9184,60.9318,742.8731,61.0027,732.8279,61.3036,722.7826,61.1868,712.7373,60.8791,702.6921,62.1054,692.6468,62.2224,682.6016,60.7502,672.5563,62.013,662.511,60.9382,652.4658,61.8005,642.4205,61.9747,632.3753,60.8942,622.33,61.219,612.2848,61.0229,602.2395,62.053,592.1942,61.8464,582.149,60.8895,572.1037,61.4557,562.0585,61.0415,552.0132,61.8989,541.9679,62.0545,531.9227,61.6654,521.8774,61.7304,511.8322,62.0738,501.7869,61.1084,491.7416,60.9288,481.6964,61.1305,471.6511,62.1639,461.6059,62.1854,451.5606,60.8838,441.5154,61.9772,431.4701,61.6883,421.4248,60.7957,411.3796,61.9509,401.3343,60.8279,391.2891,61.658,381.2438,61.7463,371.1985,62.1744,361.1533,60.7551,351.108,61.6054,341.0628,61.2028,331.0175,62.0963,320.9723,61.8447,310.927,62.0564,300.8817,62.0132,290.8365,61.8763,280.7912,61.6682,270.746,61.7303,260.7007,61.2072,250.6554,61.6135,240.6102,61.134,230.5649,60.7545,220.5197,61.8792,210.4744,61.7111,200.4291,61.113,190.3839,62.0715,180.3386,60.9856,170.2934,61.1462,160.2481,61.0038,150.2029,61.4988,140.1576,60.9147,130.1123,61.6738,120.0671,61.4233,110.0218,61.5,99.9766" style="stroke: #A80036; stroke-width: 1.0;"/><polygon fill="#FFFFFF" filter="url(#fnjh2a1)" points="207,129.2871,207,129.1446,209,129.4671,211,129.3867,213,129.1226,215,129.0771,217,129.2871,216.3273,129.2871,217.2929,139.3038,216.3573,149.3204,217.4619,159.3371,217.4506,169.3538,217.6266,179.3704,216.515,189.3871,216.4819,199.4038,216.7596,209.4204,217.4027,219.4371,216.3953,229.4537,217.0471,239.4704,216.8606,249.4871,216.7573,259.5037,216.5166,269.5204,216.3791,279.5371,217.4911,289.5537,217.1942,299.5704,217.4458,309.5871,216.9956,319.6037,216.8166,329.6204,217.4699,339.637,216.2859,349.6537,216.7488,359.6704,217.7313,369.687,216.9386,379.7037,217.179,389.7204,216.284,399.737,217.2192,409.7537,216.6912,419.7703,217.7165,429.787,216.6794,439.8037,216.3215,449.8203,217.3999,459.837,216.3351,469.8537,216.6081,479.8703,216.2593,489.887,216.9856,499.9037,217.2224,509.9203,216.8295,519.937,216.2814,529.9536,217.0797,539.9703,216.9765,549.987,216.6818,560.0036,216.3425,570.0203,217.2465,580.037,217.2404,590.0536,217.4928,600.0703,217.268,610.087,216.5613,620.1036,217.2807,630.1203,217.4712,640.1369,217.6289,650.1536,216.9173,660.1703,216.4935,670.1869,217.6704,680.2036,216.6336,690.2203,216.8467,700.2369,217.0941,710.2536,216.539,720.2702,217.4391,730.2869,216.6976,740.3036,216.2966,750.3202,216.3868,760.3369,216.9002,770.3536,217.7028,780.3702,216.5921,790.3869,217.297,800.4036,216.9048,810.4202,216.3154,820.4369,216.8143,830.4535,217.1106,840.4702,217.5862,850.4869,217.1602,860.5035,217.0178,870.5202,217.0924,880.5369,216.3654,890.5535,217.0697,900.5702,217.3032,910.5869,217,920.6035,217,920.3592,215,920.5881,213,920.7475,211,920.6343,209,920.6615,207,920.6035,206.6363,920.6035,206.9733,910.5869,207.4964,900.5702,206.4528,890.5535,207.3632,880.5369,206.6445,870.5202,206.3201,860.5035,207.7143,850.4869,207.4036,840.4702,207.4517,830.4535,206.9156,820.4369,207.5902,810.4202,207.05,800.4036,206.4,790.3869,206.5332,780.3702,207.6865,770.3536,207.1193,760.3369,206.6778,750.3202,207.5154,740.3036,206.881,730.2869,207.2648,720.2702,206.3091,710.2536,207.1459,700.2369,206.5173,690.2203,206.9006,680.2036,206.7474,670.1869,206.6971,660.1703,206.5478,650.1536,206.3388,640.1369,207.2662,630.1203,207.2155,620.1036,207.0686,610.087,207.06,600.0703,207.5252,590.0536,206.3466,580.037,206.9727,570.0203,207.3662,560.0036,207.3562,549.987,207.5293,539.9703,207.118,529.9536,207.0178,519.937,207.6175,509.9203,207.6821,499.9037,207.4707,489.887,207.3161,479.8703,206.9122,469.8537,207.0643,459.837,206.6396,449.8203,206.9743,439.8037,207.0505,429.787,206.3181,419.7703,206.5581,409.7537,207.0153,399.737,207.3659,389.7204,207.2897,379.7037,206.8079,369.687,206.3433,359.6704,207.3598,349.6537,207.581,339.637,206.7039,329.6204,207.5647,319.6037,207.6593,309.5871,207.4088,299.5704,206.2734,289.5537,207.0741,279.5371,207.4217,269.5204,206.7314,259.5037,207.1735,249.4871,206.3797,239.4704,207.6082,229.4537,206.2589,219.4371,207.384,209.4204,207.1144,199.4038,206.4797,189.3871,207.3793,179.3704,207.2028,169.3538,207.1692,159.3371,207.738,149.3204,206.7182,139.3038,207,129.2871" style="stroke: #A80036; stroke-width: 1.0;"/><polygon fill="#FFFFFF" filter="url(#fnjh2a1)" points="330.5,493.0137,330.5,493.0641,332.5,492.8101,334.5,493.1632,336.5,493.0134,338.5,492.9678,340.5,493.0137,340.2919,493.0137,340.2316,503.028,341.0872,513.0424,340.8858,523.0567,340.3019,533.0711,340.6997,543.0854,340.5775,553.0997,341.0996,563.1141,340.5547,573.1284,339.7588,583.1428,340.042,593.1571,341.0481,603.1715,340.3769,613.1858,340.1564,623.2002,341.052,633.2145,340.0697,643.2289,341.1435,653.2432,340.5792,663.2575,340.8804,673.2719,339.9924,683.2862,339.8059,693.3006,340.6586,703.3149,339.8251,713.3293,340.4904,723.3436,339.999,733.358,340.4353,743.3723,339.9053,753.3867,340.9,763.401,340.2652,773.4153,340.5,783.4297,340.5,783.487,338.5,783.1832,336.5,783.2245,334.5,783.2893,332.5,783.5567,330.5,783.4297,330.9169,783.4297,329.8258,773.4153,330.5124,763.401,330.5501,753.3867,331.1958,743.3723,330.1934,733.358,330.069,723.3436,329.8092,713.3293,329.9097,703.3149,330.9081,693.3006,329.886,683.2862,330.1776,673.2719,331.1276,663.2575,330.8761,653.2432,330.236,643.2289,330.0744,633.2145,330.194,623.2002,330.4144,613.1858,329.9618,603.1715,330.9508,593.1571,330.3566,583.1428,330.2273,573.1284,330.231,563.1141,331.227,553.0997,329.7888,543.0854,329.923,533.0711,331.2418,523.0567,330.6759,513.0424,329.9957,503.028,330.5,493.0137" style="stroke: #A80036; stroke-width: 1.0;"/><path d="M66,68.9766 L65.0365,68.9766 L65.0519,79.0085 L66.6667,89.0404 L66.0737,99.0724 L66.0841,109.1043 L65.8378,119.1362 L66.7834,129.1681 L65.1713,139.2001 L65.681,149.232 L66.5128,159.2639 L65.0924,169.2959 L66.8918,179.3278 L65.8179,189.3597 L66.0798,199.3916 L66.4291,209.4236 L66.0316,219.4555 L65.017,229.4874 L66.048,239.5194 L66.9679,249.5513 L65.53,259.5832 L65.1765,269.6151 L66.4144,279.6471 L65.726,289.679 L66.587,299.7109 L65.0435,309.7429 L66.0935,319.7748 L66.3088,329.8067 L65.7133,339.8387 L65.2246,349.8706 L65.4429,359.9025 L66.7571,369.9344 L66.2405,379.9664 L66.0971,389.9983 L65.7183,400.0302 L65.6637,410.0622 L66.6103,420.0941 L65.6342,430.126 L66.1799,440.1579 L65.2125,450.1899 L66.2327,460.2218 L66.9898,470.2537 L66.1344,480.2857 L66.4756,490.3176 L65.869,500.3495 L65.7093,510.3815 L66.4571,520.4134 L65.1645,530.4453 L65.3408,540.4772 L65.645,550.5092 L65.0789,560.5411 L65.089,570.573 L66.9075,580.605 L65.0461,590.6369 L65.5562,600.6688 L65.8127,610.7007 L65.8756,620.7327 L65.8824,630.7646 L65.1569,640.7965 L66.4266,650.8285 L66.9191,660.8604 L66.2286,670.8923 L66.9069,680.9243 L66.9729,690.9562 L65.1856,700.9881 L65.4979,711.02 L66.728,721.052 L66.8584,731.0839 L65.5542,741.1158 L65.4565,751.1478 L66.1852,761.1797 L65.5826,771.2116 L65.3815,781.2435 L66.2896,791.2755 L65.4256,801.3074 L65.2874,811.3393 L65.7391,821.3713 L66.5051,831.4032 L65.6488,841.4351 L66.9974,851.4671 L65.4897,861.499 L66.176,871.5309 L65.8923,881.5628 L66.9747,891.5948 L65.5926,901.6267 L66.9143,911.6586 L65.0446,921.6906 L66.3508,931.7225 L65.7472,941.7544 L65.0561,951.7863 L66.819,961.8183 L66.1274,971.8502 L65.9017,981.8821 L66,991.9141 " fill="none" style="stroke: #A80036; stroke-width: 1.0; stroke-dasharray: 5.0,5.0;"/><path d="M212,68.9766 L212.8071,68.9766 L212.9254,79.0085 L212.7514,89.0404 L211.2485,99.0724 L211.5594,109.1043 L211.8724,119.1362 L212.7737,129.1681 L211.1176,139.2001 L212.2332,149.232 L211.7106,159.2639 L212.5909,169.2959 L211.6552,179.3278 L211.3345,189.3597 L212.5986,199.3916 L212.947,209.4236 L211.3317,219.4555 L212.4392,229.4874 L211.3277,239.5194 L211.7364,249.5513 L211.1797,259.5832 L211.0244,269.6151 L212.886,279.6471 L212.7044,289.679 L212.1939,299.7109 L211.962,309.7429 L211.77,319.7748 L211.8797,329.8067 L212.553,339.8387 L211.5775,349.8706 L212.0766,359.9025 L212.0011,369.9344 L211.2339,379.9664 L211.9436,389.9983 L212.4065,400.0302 L211.8184,410.0622 L212.1892,420.0941 L212.0417,430.126 L211.3095,440.1579 L211.9457,450.1899 L212.5455,460.2218 L212.5672,470.2537 L211.3804,480.2857 L211.941,490.3176 L211.2553,500.3495 L212.4915,510.3815 L211.1823,520.4134 L212.4586,530.4453 L211.2958,540.4772 L212.0121,550.5092 L211.9314,560.5411 L211.6899,570.573 L212.8599,580.605 L212.2349,590.6369 L212.3189,600.6688 L212.8583,610.7007 L211.0198,620.7327 L212.8251,630.7646 L211.9787,640.7965 L211.276,650.8285 L211.0693,660.8604 L212.9504,670.8923 L211.9262,680.9243 L211.3974,690.9562 L212.162,700.9881 L212.1095,711.02 L212.7993,721.052 L212.4179,731.0839 L212.9639,741.1158 L211.9003,751.1478 L212.9283,761.1797 L211.2733,771.2116 L211.8243,781.2435 L211.4259,791.2755 L212.1388,801.3074 L212.3793,811.3393 L212.4442,821.3713 L211.8712,831.4032 L211.7631,841.4351 L212.1359,851.4671 L212.1836,861.499 L211.8079,871.5309 L212.5902,881.5628 L211.0781,891.5948 L211.9987,901.6267 L211.9878,911.6586 L212.4269,921.6906 L211.6163,931.7225 L212.5372,941.7544 L212.7879,951.7863 L211.5763,961.8183 L212.5407,971.8502 L212.1436,981.8821 L212,991.9141 " fill="none" style="stroke: #A80036; stroke-width: 1.0; stroke-dasharray: 5.0,5.0;"/><path d="M335,68.9766 L334.0501,68.9766 L334.8538,79.0085 L335.9001,89.0404 L334.4399,99.0724 L334.8319,109.1043 L335.7721,119.1362 L334.4745,129.1681 L334.746,139.2001 L335.542,149.232 L334.2149,159.2639 L334.8676,169.2959 L335.891,179.3278 L335.0836,189.3597 L335.3031,199.3916 L334.2329,209.4236 L334.9413,219.4555 L334.9591,229.4874 L334.2245,239.5194 L335.8266,249.5513 L335.0343,259.5832 L334.814,269.6151 L335.5546,279.6471 L335.9453,289.679 L334.855,299.7109 L335.6051,309.7429 L334.0374,319.7748 L334.3583,329.8067 L334.3304,339.8387 L335.476,349.8706 L334.9296,359.9025 L334.0859,369.9344 L334.8413,379.9664 L334.5046,389.9983 L334.8255,400.0302 L335.3021,410.0622 L334.6633,420.0941 L334.7624,430.126 L335.3899,440.1579 L335.255,450.1899 L334.448,460.2218 L335.5805,470.2537 L334.6172,480.2857 L335.402,490.3176 L335.3423,500.3495 L334.5658,510.3815 L335.1159,520.4134 L334.446,530.4453 L335.8199,540.4772 L334.7458,550.5092 L334.4877,560.5411 L335.6375,570.573 L334.4587,580.605 L335.2384,590.6369 L335.1234,600.6688 L334.5716,610.7007 L334.7502,620.7327 L335.0565,630.7646 L335.6851,640.7965 L335.7632,650.8285 L334.5605,660.8604 L335.0503,670.8923 L334.1705,680.9243 L334.5222,690.9562 L335.0924,700.9881 L335.5751,711.02 L334.7778,721.052 L335.0799,731.0839 L334.1038,741.1158 L335.2454,751.1478 L335.7921,761.1797 L334.5309,771.2116 L335.7426,781.2435 L335.0926,791.2755 L335.4101,801.3074 L334.9611,811.3393 L334.6433,821.3713 L334.5922,831.4032 L334.7984,841.4351 L335.1174,851.4671 L334.9031,861.499 L335.3584,871.5309 L334.7518,881.5628 L334.1584,891.5948 L335.2225,901.6267 L334.8287,911.6586 L334.0714,921.6906 L335.3854,931.7225 L335.8389,941.7544 L335.965,951.7863 L334.2267,961.8183 L335.409,971.8502 L334.9241,981.8821 L335,991.9141 " fill="none" style="stroke: #A80036; stroke-width: 1.0; stroke-dasharray: 5.0,5.0;"/><polygon fill="#FEFECE" filter="url(#fnjh2a1)" points="8,33.4883,8,34.1633,18.2727,34.2363,28.5455,34.1978,38.8182,34.1166,49.0909,33.1412,59.3636,33.9438,69.6364,33.7643,79.9091,32.77,90.1818,33.778,100.4545,33.0162,110.7273,33.6686,121,33.4883,121.1461,33.4883,121.0935,39.5859,121.0153,45.6836,121.0977,51.7813,121.2092,57.8789,121,63.9766,121,63.2413,110.7273,63.3035,100.4545,64.3797,90.1818,64.4722,79.9091,64.12,69.6364,64.152,59.3636,63.3671,49.0909,63.4744,38.8182,63.7442,28.5455,64.409,18.2727,63.5081,8,63.9766,7.8453,63.9766,7.7782,57.8789,7.9892,51.7813,7.968,45.6836,8.0281,39.5859,8,33.4883" style="stroke: #A80036; stroke-width: 1.5;"/><text fill="#000000" font-family="sans-serif" font-size="14" lengthAdjust="spacingAndGlyphs" textLength="99" x="15" y="54.0234">ContentFolder</text><polygon fill="#FEFECE" filter="url(#fnjh2a1)" points="8,990.9141,8,991.5411,18.2727,991.6484,28.5455,990.7085,38.8182,990.6706,49.0909,991.3353,59.3636,991.4105,69.6364,990.4895,79.9091,991.3667,90.1818,991.3788,100.4545,991.2491,110.7273,990.6522,121,990.9141,121.058,990.9141,120.7988,997.0117,121.0239,1003.1094,121.037,1009.207,120.9379,1015.3047,121,1021.4023,121,1021.2422,110.7273,1021.6755,100.4545,1021.1963,90.1818,1021.1071,79.9091,1021.0546,69.6364,1020.9596,59.3636,1021.3683,49.0909,1021.8603,38.8182,1021.8556,28.5455,1021.8888,18.2727,1021.4041,8,1021.4023,7.8783,1021.4023,7.8618,1015.3047,7.8055,1009.207,8.0817,1003.1094,8.1924,997.0117,8,990.9141" style="stroke: #A80036; stroke-width: 1.5;"/><text fill="#000000" font-family="sans-serif" font-size="14" lengthAdjust="spacingAndGlyphs" textLength="99" x="15" y="1011.4492">ContentFolder</text><polygon fill="#FEFECE" filter="url(#fnjh2a1)" points="135,33.4883,135,34.0765,145,33.7558,155,33.3313,165,32.7439,175,33.5595,185,33.2856,195,33.2275,205,32.8057,215,34.0721,225,33.0758,235,32.7532,245,34.0639,255,33.156,265,33.0842,275,33.2257,285,33.4883,285.1782,33.4883,285.0886,39.5859,284.7639,45.6836,284.8665,51.7813,285.048,57.8789,285,63.9766,285,64.513,275,64.5413,265,63.8626,255,63.8252,245,63.8617,235,63.2686,225,63.6856,215,63.6167,205,63.6667,195,63.6301,185,64.461,175,64.6913,165,64.711,155,63.4867,145,64.2886,135,63.9766,135.1716,63.9766,134.9351,57.8789,135.1327,51.7813,135.245,45.6836,134.9538,39.5859,135,33.4883" style="stroke: #A80036; stroke-width: 1.5;"/><text fill="#000000" font-family="sans-serif" font-size="14" lengthAdjust="spacingAndGlyphs" textLength="136" x="142" y="54.0234">BcContentsBehavior</text><polygon fill="#FEFECE" filter="url(#fnjh2a1)" points="135,990.9141,135,990.6599,145,991.3605,155,991.483,165,991.0046,175,990.874,185,991.2097,195,991.0067,205,991.4765,215,991.4046,225,990.7929,235,991.5494,245,991.0691,255,990.6954,265,991.6466,275,991.392,285,990.9141,284.7799,990.9141,284.8767,997.0117,284.9386,1003.1094,284.8366,1009.207,284.9015,1015.3047,285,1021.4023,285,1022.0224,275,1021.5546,265,1022.1511,255,1020.7209,245,1021.895,235,1021.3605,225,1021.0357,215,1021.5231,205,1021.8821,195,1021.1817,185,1021.3501,175,1020.9818,165,1021.4781,155,1021.4476,145,1020.7223,135,1021.4023,134.8971,1021.4023,135.0234,1015.3047,134.946,1009.207,134.989,1003.1094,134.8263,997.0117,135,990.9141" style="stroke: #A80036; stroke-width: 1.5;"/><text fill="#000000" font-family="sans-serif" font-size="14" lengthAdjust="spacingAndGlyphs" textLength="136" x="142" y="1011.4492">BcContentsBehavior</text><polygon fill="#FEFECE" filter="url(#fnjh2a1)" points="299,33.4883,299,33.8826,308.8571,33.5753,318.7143,33.711,328.5714,33.992,338.4286,32.9542,348.2857,33.3178,358.1429,32.8866,368,33.4883,367.844,33.4883,368.0759,39.5859,368.2033,45.6836,367.8891,51.7813,367.7915,57.8789,368,63.9766,368,64.4601,358.1429,63.5369,348.2857,63.9397,338.4286,63.5592,328.5714,63.4131,318.7143,64.1448,308.8571,64.2818,299,63.9766,299.031,63.9766,298.8379,57.8789,299.0769,51.7813,299.012,45.6836,299.2003,39.5859,299,33.4883" style="stroke: #A80036; stroke-width: 1.5;"/><text fill="#000000" font-family="sans-serif" font-size="14" lengthAdjust="spacingAndGlyphs" textLength="55" x="306" y="54.0234">Content</text><polygon fill="#FEFECE" filter="url(#fnjh2a1)" points="299,990.9141,299,990.5648,308.8571,991.4122,318.7143,991.0845,328.5714,990.8068,338.4286,991.0834,348.2857,990.9428,358.1429,991.3212,368,990.9141,367.8609,990.9141,367.9162,997.0117,367.7717,1003.1094,367.7801,1009.207,368.0593,1015.3047,368,1021.4023,368,1021.137,358.1429,1020.6914,348.2857,1021.9549,338.4286,1021.0483,328.5714,1022.0824,318.7143,1021.286,308.8571,1021.9372,299,1021.4023,298.8895,1021.4023,299.1769,1015.3047,298.9702,1009.207,298.7666,1003.1094,299.0145,997.0117,299,990.9141" style="stroke: #A80036; stroke-width: 1.5;"/><text fill="#000000" font-family="sans-serif" font-size="14" lengthAdjust="spacingAndGlyphs" textLength="55" x="306" y="1011.4492">Content</text><polygon fill="#FFFFFF" filter="url(#fnjh2a1)" points="61.5,99.9766,61.5,99.7452,63.5,100.0131,65.5,100.0121,67.5,99.891,69.5,99.7856,71.5,99.9766,71.3433,99.9766,71.4122,110.0218,70.9403,120.0671,71.5512,130.1123,71.533,140.1576,71.5025,150.2029,71.8929,160.2481,71.3686,170.2934,71.087,180.3386,71.2296,190.3839,71.9217,200.4291,70.7979,210.4744,71.7222,220.5197,71.9027,230.5649,70.8094,240.6102,71.8968,250.6554,71.2641,260.7007,71.1375,270.746,71.3342,280.7912,72.0654,290.8365,72.1987,300.8817,71.3662,310.927,71.7803,320.9723,71.7818,331.0175,71.4576,341.0628,70.7533,351.108,71.6741,361.1533,71.1521,371.1985,72.1416,381.2438,70.9381,391.2891,72.1608,401.3343,70.9988,411.3796,71.1269,421.4248,71.8498,431.4701,71.8728,441.5154,71.5374,451.5606,71.7503,461.6059,70.7993,471.6511,70.8386,481.6964,71.4116,491.7416,71.5433,501.7869,71.6567,511.8322,71.9484,521.8774,71.4679,531.9227,71.2677,541.9679,71.6629,552.0132,71.7216,562.0585,72.1485,572.1037,71.3075,582.149,70.8102,592.1942,71.6196,602.2395,71.7764,612.2848,70.7899,622.33,71.7484,632.3753,70.908,642.4205,71.283,652.4658,71.6391,662.511,70.8397,672.5563,71.1022,682.6016,72.1078,692.6468,71.1147,702.6921,70.7873,712.7373,70.821,722.7826,72.0546,732.8279,71.2533,742.8731,71.7131,752.9184,71.4348,762.9636,70.8505,773.0089,71.0059,783.0541,71.1418,793.0994,71.2174,803.1447,71.9914,813.1899,70.7641,823.2352,72.0797,833.2804,71.3027,843.3257,71.6972,853.371,70.8757,863.4162,71.7404,873.4615,72.1019,883.5067,71.4219,893.552,71.6769,903.5973,71.4814,913.6425,71.9584,923.6878,70.8841,933.733,71.5113,943.7783,71.1615,953.8235,72.2075,963.8688,71.5,973.9141,71.5,973.909,69.5,973.8015,67.5,974.0547,65.5,973.8995,63.5,973.6748,61.5,973.9141,61.0987,973.9141,61.8188,963.8688,61.8222,953.8235,61.876,943.7783,61.4239,933.733,61.3137,923.6878,61.0493,913.6425,62.1388,903.5973,60.9197,893.552,60.8301,883.5067,61.873,873.4615,62.1921,863.4162,61.1003,853.371,60.9454,843.3257,61.2183,833.2804,61.8954,823.2352,61.2244,813.1899,60.7738,803.1447,61.2988,793.0994,61.3575,783.0541,61.7652,773.0089,62.2338,762.9636,61.9282,752.9184,62.127,742.8731,61.4068,732.8279,61.1624,722.7826,61.8708,712.7373,61.2466,702.6921,62.2154,692.6468,62.1585,682.6016,61.8332,672.5563,60.7807,662.511,61.7342,652.4658,61.5895,642.4205,62.2439,632.3753,62.2372,622.33,60.8619,612.2848,60.8915,602.2395,61.2765,592.1942,62.0093,582.149,62.0086,572.1037,62.1303,562.0585,61.6468,552.0132,62.0558,541.9679,62.1615,531.9227,61.7684,521.8774,61.5543,511.8322,61.0254,501.7869,61.1609,491.7416,61.1988,481.6964,61.7443,471.6511,61.4027,461.6059,61.6556,451.5606,61.3659,441.5154,61.5405,431.4701,61.5245,421.4248,61.4059,411.3796,61.194,401.3343,60.8301,391.2891,61.4663,381.2438,61.8042,371.1985,61.5797,361.1533,61.3935,351.108,61.8507,341.0628,62.2095,331.0175,61.8895,320.9723,61.1327,310.927,62.0647,300.8817,60.9306,290.8365,61.7204,280.7912,61.6892,270.746,61.2035,260.7007,61.945,250.6554,61.6458,240.6102,61.644,230.5649,61.2748,220.5197,62.2148,210.4744,61.7689,200.4291,60.9521,190.3839,61.811,180.3386,62.2405,170.2934,62.1507,160.2481,61.0017,150.2029,61.5349,140.1576,60.8018,130.1123,61.06,120.0671,61.6793,110.0218,61.5,99.9766" style="stroke: #A80036; stroke-width: 1.0;"/><polygon fill="#FFFFFF" filter="url(#fnjh2a1)" points="207,129.2871,207,129.4924,209,129.502,211,129.2936,213,129.3158,215,129.232,217,129.2871,216.7129,129.2871,217.2861,139.3038,217.0801,149.3204,216.6506,159.3371,217.3632,169.3538,217.7069,179.3704,216.6113,189.3871,217.7238,199.4038,216.8753,209.4204,216.3396,219.4371,217.3733,229.4537,216.3993,239.4704,216.4402,249.4871,216.814,259.5037,216.6241,269.5204,217.5079,279.5371,217.7085,289.5537,216.6341,299.5704,216.6171,309.5871,217.5693,319.6037,216.3915,329.6204,216.4929,339.637,216.9374,349.6537,217.1098,359.6704,216.3332,369.687,216.6758,379.7037,216.6639,389.7204,217.3236,399.737,216.4119,409.7537,216.7811,419.7703,217.1615,429.787,217.2141,439.8037,217.0914,449.8203,216.2736,459.837,217.4625,469.8537,217.1456,479.8703,217.4106,489.887,217.3181,499.9037,217.6142,509.9203,216.4286,519.937,217.692,529.9536,217.4091,539.9703,217.5532,549.987,217.1365,560.0036,216.2524,570.0203,216.528,580.037,217.5181,590.0536,216.3231,600.0703,217.4215,610.087,216.9061,620.1036,217.2257,630.1203,217.6685,640.1369,216.7047,650.1536,217.4692,660.1703,217.0185,670.1869,217.3339,680.2036,217.4851,690.2203,217.1691,700.2369,216.4366,710.2536,217.4431,720.2702,217.2187,730.2869,217.6842,740.3036,217.1803,750.3202,217.6446,760.3369,217.666,770.3536,216.3832,780.3702,217.2066,790.3869,217.6274,800.4036,216.2964,810.4202,217.0035,820.4369,217.7468,830.4535,216.278,840.4702,217.619,850.4869,217.1912,860.5035,217.3425,870.5202,217.3688,880.5369,217.3204,890.5535,216.883,900.5702,216.5684,910.5869,217,920.6035,217,920.5247,215,920.6825,213,920.768,211,920.4223,209,920.6402,207,920.6035,207.3476,920.6035,207.4815,910.5869,207.2351,900.5702,206.8636,890.5535,207.6536,880.5369,207.1351,870.5202,207.3761,860.5035,207.2553,850.4869,206.4956,840.4702,206.8069,830.4535,206.5706,820.4369,207.4712,810.4202,206.5761,800.4036,206.8755,790.3869,207.6681,780.3702,207.3592,770.3536,206.6713,760.3369,207.3877,750.3202,206.7709,740.3036,207.4163,730.2869,206.7556,720.2702,207.1559,710.2536,207.1193,700.2369,207.6396,690.2203,207.0214,680.2036,207.0481,670.1869,206.596,660.1703,207.5406,650.1536,206.5408,640.1369,206.3089,630.1203,207.1472,620.1036,206.7364,610.087,207.6046,600.0703,206.9931,590.0536,206.648,580.037,206.5276,570.0203,207.0764,560.0036,206.4766,549.987,207.735,539.9703,207.2663,529.9536,206.9126,519.937,207.0333,509.9203,206.3936,499.9037,206.5998,489.887,207.3358,479.8703,206.631,469.8537,207.1125,459.837,207.3457,449.8203,206.994,439.8037,206.9047,429.787,207.714,419.7703,206.3187,409.7537,207.3038,399.737,206.7125,389.7204,207.5269,379.7037,206.8833,369.687,206.5549,359.6704,206.7626,349.6537,206.3907,339.637,206.8493,329.6204,207.7467,319.6037,207.5315,309.5871,207.5769,299.5704,207.5635,289.5537,207.0408,279.5371,207.0564,269.5204,206.5604,259.5037,206.6752,249.4871,206.6372,239.4704,207.1979,229.4537,207.7035,219.4371,207.5706,209.4204,206.8255,199.4038,207.6133,189.3871,207.2972,179.3704,207.3759,169.3538,206.9201,159.3371,206.4739,149.3204,207.0588,139.3038,207,129.2871" style="stroke: #A80036; stroke-width: 1.0;"/><polygon fill="#FFFFFF" filter="url(#fnjh2a1)" points="330.5,493.0137,330.5,492.9231,332.5,492.7666,334.5,492.9764,336.5,493.2153,338.5,493.2477,340.5,493.0137,339.9367,493.0137,340.0648,503.028,340.5989,513.0424,340.852,523.0567,340.4503,533.0711,339.9578,543.0854,340.2281,553.0997,339.8116,563.1141,339.944,573.1284,339.9935,583.1428,340.3722,593.1571,341.2381,603.1715,339.7923,613.1858,340.9655,623.2002,339.816,633.2145,341.1498,643.2289,340.7964,653.2432,340.323,663.2575,341.0967,673.2719,340.8404,683.2862,340.8461,693.3006,339.8463,703.3149,340.5944,713.3293,340.5891,723.3436,340.9763,733.358,340.1226,743.3723,341.249,753.3867,339.8052,763.401,340.3469,773.4153,340.5,783.4297,340.5,783.5255,338.5,783.5404,336.5,783.6166,334.5,783.36,332.5,783.4939,330.5,783.4297,330.5103,783.4297,330.6662,773.4153,331.2009,763.401,330.5035,753.3867,330.5099,743.3723,330.5423,733.358,330.1721,723.3436,330.6929,713.3293,330.5391,703.3149,330.1207,693.3006,330.98,683.2862,331.0343,673.2719,331.2208,663.2575,330.3865,653.2432,331.1461,643.2289,329.939,633.2145,330.6678,623.2002,330.4387,613.1858,330.5385,603.1715,330.8903,593.1571,330.4672,583.1428,330.1027,573.1284,330.1605,563.1141,330.2641,553.0997,331.2424,543.0854,330.6759,533.0711,330.0041,523.0567,330.0063,513.0424,331.1313,503.028,330.5,493.0137" style="stroke: #A80036; stroke-width: 1.0;"/><polygon fill="#A80036" points="49.5,95.9766,49.5404,96.0776,51.5104,96.8026,53.4948,97.5635,55.4322,98.207,57.5608,99.3286,59.5,99.9766,59.4408,99.8285,57.5717,100.9559,55.5657,101.7407,53.4804,102.3275,51.5395,103.2754,49.5,103.9766,49.3658,103.8423,50.3282,103.2048,51.0983,102.3748,51.8411,101.5176,52.5819,100.6585,53.5,99.9766,53.5214,99.9979,52.8499,99.3264,51.9213,98.3979,50.9503,97.4268,50.4288,96.9053,49.5,95.9766" style="stroke: #A80036; stroke-width: 1.0;"/><path d="M3,99.9766 L3,99.5216 L13.5,99.6293 L24,100.9048 L34.5,99.7037 L45,99.4536 L55.5,99.9766 " fill="none" style="stroke: #A80036; stroke-width: 1.0;"/><text fill="#000000" font-family="sans-serif" font-size="13" lengthAdjust="spacingAndGlyphs" textLength="24" x="10" y="95.5449">edit</text><polygon fill="#A80036" points="195,125.2871,195.0123,125.3178,197.0314,126.1656,199.0786,127.0835,201.0634,127.8455,202.931,128.3146,205,129.2871,204.984,129.247,203.0857,130.3013,200.9573,130.7804,199.0443,131.7979,197.0414,132.5907,195,133.2871,194.9135,133.2007,195.8799,132.567,196.7728,131.8599,197.5585,131.0456,198.1688,130.0559,199,129.2871,199.1205,129.4077,198.3524,128.6395,197.5348,127.8219,196.7118,126.9989,195.656,125.9431,195,125.2871" style="stroke: #A80036; stroke-width: 1.0;"/><path d="M71.5,129.2871 L71.5,129.8701 L81.4615,128.6825 L91.4231,128.519 L101.3846,128.3689 L111.3462,129.488 L121.3077,129.8796 L131.2692,129.0217 L141.2308,128.737 L151.1923,128.627 L161.1538,129.3759 L171.1154,130.0994 L181.0769,128.6243 L191.0385,129.9207 L201,129.2871 " fill="none" style="stroke: #A80036; stroke-width: 1.0;"/><text fill="#000000" font-family="sans-serif" font-size="13" lengthAdjust="spacingAndGlyphs" textLength="35" x="78.5" y="124.8555">setup</text><polygon fill="#FBFB77" filter="url(#fnjh2a1)" points="72,142.5977,71.9797,142.5977,72.134,147.5977,71.8169,152.5977,72.0226,157.5977,72.2388,162.5977,72,167.5977,72,166.9926,81.8571,166.9346,91.7143,166.9432,101.5714,167.8639,111.4286,167.5015,121.2857,167.5914,131.1429,166.866,141,167.7947,150.8571,166.9975,160.7143,167.3956,170.5714,167.0344,180.4286,167.5334,190.2857,168.2853,200.1429,168.1534,210,167.9535,219.8571,167.0643,229.7143,168.2959,239.5714,167.0607,249.4286,166.9925,259.2857,168.0628,269.1429,167.7249,279,168.1915,288.8571,167.2773,298.7143,167.9378,308.5714,168.2669,318.4286,167.996,328.2857,167.3375,338.1429,167.2095,348,167.5977,347.7902,167.5977,348.2058,164.5977,347.777,161.5977,348.0355,158.5977,348.2236,155.5977,348,152.5977,347.8423,152.44,346.1095,150.7071,344.1521,148.7498,341.8841,146.4817,339.897,144.4947,338,142.5977,338,142.9062,328.1481,143.3406,318.2963,142.5429,308.4444,142.0557,298.5926,142.3661,288.7407,142.4017,278.8889,142.6985,269.037,143.1301,259.1852,142.3107,249.3333,142.5279,239.4815,142.391,229.6296,142.4733,219.7778,142.5917,209.9259,143.2994,200.0741,142.2588,190.2222,143.0413,180.3704,142.692,170.5185,142.298,160.6667,142.7668,150.8148,142.8431,140.963,142.0464,131.1111,143.1778,121.2593,142.9086,111.4074,142.8661,101.5556,142.3031,91.7037,143.2685,81.8519,143.0826,72,142.5977" style="stroke: #A80036; stroke-width: 1.0;"/><path d="M338,142.5977 L337.7459,142.5977 L337.7483,144.5977 L337.7425,146.5977 L338.2038,148.5977 L338.0689,150.5977 L338,152.5977 " fill="#FBFB77" style="stroke: #A80036; stroke-width: 1.0;"/><path d="M348,152.5977 L348,152.3927 L346,152.796 L344,152.3887 L342,152.3537 L340,152.5598 L338,152.5977 " fill="#FBFB77" style="stroke: #A80036; stroke-width: 1.0;"/><text fill="#000000" font-family="sans-serif" font-size="13" lengthAdjust="spacingAndGlyphs" textLength="255" x="78" y="160.166">hasOneでコンテンツをフォルダに繋ぎこむ</text><polygon fill="#A80036" points="195,193.9082,195.0076,193.9271,196.9342,194.5436,199.0445,195.6196,200.9566,196.1996,202.9247,196.9201,205,197.9082,204.9428,197.7653,203.0361,198.7984,201.0497,199.6325,199.0104,200.3343,197.0516,201.2371,195,201.9082,195.0088,201.917,195.8909,201.1991,196.6259,200.3341,197.2974,199.4056,198.3393,198.8475,199,197.9082,198.9348,197.843,198.1692,197.0774,197.319,196.2273,196.7324,195.6406,195.7504,194.6586,195,193.9082" style="stroke: #A80036; stroke-width: 1.0;"/><path d="M71.5,197.9082 L71.5,198.0029 L81.4615,198.5059 L91.4231,197.2875 L101.3846,197.9314 L111.3462,197.6773 L121.3077,197.2895 L131.2692,198.1464 L141.2308,198.6197 L151.1923,198.5564 L161.1538,197.6116 L171.1154,196.9164 L181.0769,198.398 L191.0385,197.8483 L201,197.9082 " fill="none" style="stroke: #A80036; stroke-width: 1.0;"/><text fill="#000000" font-family="sans-serif" font-size="13" lengthAdjust="spacingAndGlyphs" textLength="90" x="78.5" y="193.4766">beforeValidate</text><polygon fill="#FBFB77" filter="url(#fnjh2a1)" points="76,211.2188,76.7389,211.2188,75.4122,221.3616,76.4021,231.5045,76.1187,241.6473,75.8838,251.7902,75.2586,261.933,75.6587,272.0759,76,282.2188,76,281.7104,85.9259,281.567,95.8519,282.4931,105.7778,282.1602,115.7037,281.5886,125.6296,282.7453,135.5556,281.6756,145.4815,281.5566,155.4074,282.266,165.3333,282.0676,175.2593,282.171,185.1852,282.7516,195.1111,282.8101,205.037,282.2697,214.963,281.802,224.8889,281.6103,234.8148,282.4604,244.7407,281.6351,254.6667,282.4895,264.5926,282.482,274.5185,282.9248,284.4444,282.1452,294.3704,282.5327,304.2963,282.204,314.2222,281.7036,324.1481,282.6825,334.0741,282.0737,344,282.2188,344.5966,282.2188,344.3409,272.0521,343.6997,261.8854,344.6042,251.7188,343.8245,241.5521,343.6704,231.3854,344,221.2188,344.0096,221.2283,342.0098,219.2285,340.1116,217.3304,337.8357,215.0545,336.1227,213.3415,334,211.2188,334,211.563,324.0769,211.1484,314.1538,211.8911,304.2308,211.5249,294.3077,210.9305,284.3846,211.8079,274.4615,211.5727,264.5385,211.7416,254.6154,211.789,244.6923,211.3559,234.7692,211.3849,224.8462,211.1392,214.9231,211.5656,205,210.9471,195.0769,210.5797,185.1538,210.6888,175.2308,211.8121,165.3077,210.4877,155.3846,211.6318,145.4615,210.5457,135.5385,211.4461,125.6154,211.8779,115.6923,210.7507,105.7692,210.9161,95.8462,211.2514,85.9231,211.7502,76,211.2188" style="stroke: #A80036; stroke-width: 1.0;"/><path d="M334,211.2188 L334.1234,211.2188 L334.0088,213.2188 L333.9231,215.2188 L334.3162,217.2188 L334.0285,219.2188 L334,221.2188 " fill="#FBFB77" style="stroke: #A80036; stroke-width: 1.0;"/><path d="M344,221.2188 L344,221.4453 L342,221.1578 L340,220.924 L338,221.1609 L336,221.2266 L334,221.2188 " fill="#FBFB77" style="stroke: #A80036; stroke-width: 1.0;"/><text fill="#000000" font-family="sans-serif" font-size="13" lengthAdjust="spacingAndGlyphs" textLength="130" x="82" y="228.7871">・コンテンツの初期化</text><text fill="#000000" font-family="sans-serif" font-size="13" lengthAdjust="spacingAndGlyphs" textLength="182" x="82" y="244.0977">・コンテンツのバリデーション</text><text fill="#000000" font-family="sans-serif" font-size="13" lengthAdjust="spacingAndGlyphs" textLength="182" x="82" y="259.4082">・バリデーション結果のマージ</text><text fill="#000000" font-family="sans-serif" font-size="13" lengthAdjust="spacingAndGlyphs" textLength="247" x="82" y="274.7188">・バリデーション後のコンテンツのマージ</text><polygon fill="#A80036" points="82.5,293.4609,82.4472,293.3289,80.5362,294.3515,78.5816,295.2649,76.4156,295.65,74.5884,296.8819,72.5,297.4609,72.4205,297.2622,74.4791,298.2086,76.4244,298.8719,78.4105,299.6373,80.5889,300.8831,82.5,301.4609,82.4972,301.4582,81.7998,300.7607,80.7312,299.6921,80.1611,299.122,79.1592,298.1201,78.5,297.4609,78.3356,297.2966,79.4531,296.8141,80.0664,295.8273,80.9732,295.1341,81.8123,294.3733,82.5,293.4609" style="stroke: #A80036; stroke-width: 1.0;"/><path d="M76.5,297.4609 L76.5,297.2589 L86.4615,298.3477 L96.4231,297.5276 L106.3846,297.7167 L116.3462,298.0729 L126.3077,297.0929 L136.2692,297.5577 L146.2308,297.8393 L156.1923,298.1084 L166.1538,296.8728 L176.1154,297.5025 L186.0769,297.1446 L196.0385,298.1315 L206,297.4609 " fill="none" style="stroke: #A80036; stroke-width: 1.0;"/><polygon fill="#A80036" points="195,322.4609,194.9084,322.2319,196.9319,323.0907,199.0899,324.2857,201.03,324.9359,202.9904,325.637,205,326.4609,204.9291,326.2836,203.0229,327.3181,201.0235,328.1196,199.0857,329.0753,196.9882,329.6315,195,330.4609,195.0504,330.5113,195.7084,329.5693,196.6143,328.8753,197.4657,328.1266,198.303,327.3639,199,326.4609,199.0367,326.4977,198.3094,325.7704,197.2745,324.7355,196.6468,324.1077,195.6361,323.0971,195,322.4609" style="stroke: #A80036; stroke-width: 1.0;"/><path d="M71.5,326.4609 L71.5,326.0202 L81.4615,325.9234 L91.4231,327.0023 L101.3846,326.4207 L111.3462,326.2816 L121.3077,326.5583 L131.2692,325.677 L141.2308,327.0315 L151.1923,325.5857 L161.1538,325.978 L171.1154,325.7355 L181.0769,325.917 L191.0385,325.9524 L201,326.4609 " fill="none" style="stroke: #A80036; stroke-width: 1.0;"/><text fill="#000000" font-family="sans-serif" font-size="13" lengthAdjust="spacingAndGlyphs" textLength="68" x="78.5" y="322.0293">beforeSave</text><polygon fill="#FBFB77" filter="url(#fnjh2a1)" points="82,339.7715,81.8016,339.7715,82.2015,347.7715,81.9338,355.7715,82.1111,363.7715,81.8206,371.7715,82,379.7715,82,380.0871,91.8077,380.1641,101.6154,379.064,111.4231,379.1003,121.2308,380.4692,131.0385,379.0535,140.8462,380.2636,150.6538,380.1885,160.4615,380.026,170.2692,379.4225,180.0769,379.32,189.8846,379.3925,199.6923,379.1545,209.5,379.3474,219.3077,379.7489,229.1154,379.0902,238.9231,380.4141,248.7308,380.3557,258.5385,380.1173,268.3462,379.0898,278.1538,379.0943,287.9615,379.4237,297.7692,379.6694,307.5769,379.4835,317.3846,379.3865,327.1923,379.3513,337,379.7715,336.9523,379.7715,337.2165,373.7715,337.2466,367.7715,336.9979,361.7715,337.2392,355.7715,337,349.7715,337.1743,349.9458,334.9262,347.6977,333.1014,345.8729,330.9933,343.7648,328.9117,341.6831,327,339.7715,327,340.0728,317.2,339.8183,307.4,339.1298,297.6,339.0267,287.8,340.0617,278,339.7657,268.2,339.6599,258.4,339.263,248.6,339.1019,238.8,339.1279,229,339.8371,219.2,339.7225,209.4,340.0975,199.6,340.1049,189.8,339.1983,180,340.1505,170.2,340.2781,160.4,339.2684,150.6,339.4964,140.8,339.1626,131,339.2277,121.2,339.7686,111.4,340.0743,101.6,340.372,91.8,340.105,82,339.7715" style="stroke: #A80036; stroke-width: 1.0;"/><path d="M327,339.7715 L327.2385,339.7715 L326.7537,341.7715 L326.7639,343.7715 L326.9896,345.7715 L326.6693,347.7715 L327,349.7715 " fill="#FBFB77" style="stroke: #A80036; stroke-width: 1.0;"/><path d="M337,349.7715 L337,349.4401 L335,349.6285 L333,349.4543 L331,349.9472 L329,349.4829 L327,349.7715 " fill="#FBFB77" style="stroke: #A80036; stroke-width: 1.0;"/><text fill="#000000" font-family="sans-serif" font-size="13" lengthAdjust="spacingAndGlyphs" textLength="234" x="88" y="357.3398">・コンテンツのバリデーションチェック</text><text fill="#000000" font-family="sans-serif" font-size="13" lengthAdjust="spacingAndGlyphs" textLength="156" x="88" y="372.6504">・エラーが出ていれば終了</text><polygon fill="#A80036" points="82.5,391.3926,82.5532,391.5257,80.5305,392.2687,78.4636,392.9015,76.4395,393.6415,74.5379,394.6874,72.5,395.3926,72.521,395.4451,74.5722,396.3731,76.5786,397.189,78.4668,397.7096,80.5325,398.6738,82.5,399.3926,82.3335,399.2261,81.875,398.7676,80.9183,397.8108,79.9455,396.8381,79.4017,396.2943,78.5,395.3926,78.4022,395.2948,79.33,394.6225,80.2444,393.937,80.8851,392.9777,81.8709,392.3635,82.5,391.3926" style="stroke: #A80036; stroke-width: 1.0;"/><path d="M76.5,395.3926 L76.5,394.6307 L86.4615,396.2059 L96.4231,396.1243 L106.3846,395.2259 L116.3462,395.381 L126.3077,394.9063 L136.2692,394.7721 L146.2308,394.8878 L156.1923,394.5771 L166.1538,395.5818 L176.1154,395.2212 L186.0769,395.486 L196.0385,395.4458 L206,395.3926 " fill="none" style="stroke: #A80036; stroke-width: 1.0;"/><polygon fill="#A80036" points="195,420.3926,194.9099,420.1674,196.9752,421.1305,199.0445,422.1039,200.9787,422.7393,203.0037,423.6018,205,424.3926,205.0353,424.4808,202.9894,425.166,201.0244,426.0535,198.9633,426.7007,196.9319,427.4224,195,428.3926,194.9401,428.3327,195.6932,427.4857,196.4969,426.6895,197.2668,425.8594,198.1016,425.0942,199,424.3926,199.1206,424.5132,198.1951,423.5877,197.5056,422.8982,196.732,422.1246,195.9531,421.3457,195,420.3926" style="stroke: #A80036; stroke-width: 1.0;"/><path d="M71.5,424.3926 L71.5,424.4627 L81.4615,424.3409 L91.4231,424.68 L101.3846,424.579 L111.3462,425.075 L121.3077,425.1516 L131.2692,423.7462 L141.2308,424.1159 L151.1923,424.5263 L161.1538,424.4139 L171.1154,424.6283 L181.0769,424.4352 L191.0385,424.2276 L201,424.3926 " fill="none" style="stroke: #A80036; stroke-width: 1.0;"/><text fill="#000000" font-family="sans-serif" font-size="13" lengthAdjust="spacingAndGlyphs" textLength="57" x="78.5" y="419.9609">afterSave</text><polygon fill="#FBFB77" filter="url(#fnjh2a1)" points="147,437.7031,147.2469,437.7031,147.0259,442.7031,146.8348,447.7031,146.9461,452.7031,147.0178,457.7031,147,462.7031,147,463.2969,156.6154,462.2986,166.2308,463.2356,175.8462,462.3893,185.4615,462.4814,195.0769,463.118,204.6923,462.0128,214.3077,463.2045,223.9231,463.0795,233.5385,462.4283,243.1538,462.8847,252.7692,463.261,262.3846,462.9681,272,462.7031,271.78,462.7031,271.9211,459.7031,272.1841,456.7031,271.8414,453.7031,272.0726,450.7031,272,447.7031,272.1424,447.8455,269.965,445.6681,267.8763,443.5795,265.9557,441.6588,263.9476,439.6507,262,437.7031,262,438.1363,252.4167,438.3666,242.8333,437.9174,233.25,437.1537,223.6667,438.2317,214.0833,437.6316,204.5,436.9537,194.9167,437.9461,185.3333,437.8465,175.75,437.5799,166.1667,437.1398,156.5833,438.2837,147,437.7031" style="stroke: #A80036; stroke-width: 1.0;"/><path d="M262,437.7031 L261.7315,437.7031 L261.6739,439.7031 L262.2729,441.7031 L262.1605,443.7031 L261.6748,445.7031 L262,447.7031 " fill="#FBFB77" style="stroke: #A80036; stroke-width: 1.0;"/><path d="M272,447.7031 L272,447.4888 L270,447.9755 L268,447.7788 L266,447.8874 L264,447.3893 L262,447.7031 " fill="#FBFB77" style="stroke: #A80036; stroke-width: 1.0;"/><text fill="#000000" font-family="sans-serif" font-size="13" lengthAdjust="spacingAndGlyphs" textLength="104" x="153" y="455.2715">コンテンツの生成</text><polygon fill="#A80036" points="318.5,489.0137,318.4972,489.0066,320.4316,489.6426,322.5753,490.8019,324.5399,491.5133,326.4512,492.0918,328.5,493.0137,328.4918,492.9933,326.5295,493.8874,324.549,494.7361,322.5152,495.4517,320.4308,496.0407,318.5,497.0137,318.6138,497.1274,319.36,496.2737,320.1926,495.5063,320.7663,494.48,321.6772,493.7909,322.5,493.0137,322.5784,493.0921,321.5462,492.0599,320.8196,491.3333,320.2638,490.7775,319.3382,489.8518,318.5,489.0137" style="stroke: #A80036; stroke-width: 1.0;"/><path d="M217,493.0137 L217,493.2214 L226.7727,493.0961 L236.5455,493.3127 L246.3182,492.4036 L256.0909,493.4324 L265.8636,493.6107 L275.6364,493.376 L285.4091,492.2281 L295.1818,493.5235 L304.9545,493.6005 L314.7273,492.4253 L324.5,493.0137 " fill="none" style="stroke: #A80036; stroke-width: 1.0;"/><text fill="#000000" font-family="sans-serif" font-size="13" lengthAdjust="spacingAndGlyphs" textLength="28" x="224" y="488.582">save</text><path d="M340.5,522.6348 L340.5,522.5013 L348.9,522.37 L357.3,522.8673 L365.7,522.5059 L374.1,522.784 L382.5,522.6348 " fill="none" style="stroke: #A80036; stroke-width: 1.0;"/><path d="M382.5,522.6348 L382.7192,522.6348 L382.5218,525.2348 L382.6123,527.8348 L382.4593,530.4348 L382.7907,533.0348 L382.5,535.6348 " fill="none" style="stroke: #A80036; stroke-width: 1.0;"/><path d="M341.5,535.6348 L341.5,535.3676 L349.7,535.8999 L357.9,535.3816 L366.1,535.9169 L374.3,535.8955 L382.5,535.6348 " fill="none" style="stroke: #A80036; stroke-width: 1.0;"/><polygon fill="#A80036" points="351.5,531.6348,351.4603,531.5356,349.5659,532.5996,347.5586,533.3812,345.4309,533.862,343.4482,534.7053,341.5,535.6348,341.4811,535.5876,343.4268,536.2518,345.517,537.2772,347.4913,538.013,349.536,538.9247,351.5,539.6348,351.4959,539.6306,350.7494,538.8842,349.7409,537.8757,349.0762,537.2109,348.4015,536.5363,347.5,535.6348,347.5883,535.723,348.1392,534.674,349.1853,534.1201,349.7636,533.0983,350.6664,532.4012,351.5,531.6348" style="stroke: #A80036; stroke-width: 1.0;"/><text fill="#000000" font-family="sans-serif" font-size="13" lengthAdjust="spacingAndGlyphs" textLength="90" x="347.5" y="517.8926">beforeValidate</text><polygon fill="#FBFB77" filter="url(#fnjh2a1)" points="225,548.6348,225.1426,548.6348,225.368,558.3848,225.7323,568.1348,225.1462,577.8848,225.5112,587.6348,225.3917,597.3848,225.7075,607.1348,225.0169,616.8848,225.2208,626.6348,224.5755,636.3848,224.6537,646.1348,224.4074,655.8848,225,665.6348,225,666.3376,234.8182,665.0178,244.6364,665.9881,254.4545,665.3187,264.2727,666.0189,274.0909,665.8966,283.9091,666.1258,293.7273,665.2376,303.5455,665.0089,313.3636,666.2512,323.1818,665.2023,333,664.9086,342.8182,665.6591,352.6364,665.1109,362.4545,664.9274,372.2727,665.3493,382.0909,665.9609,391.9091,665.4735,401.7273,665.1343,411.5455,665.2596,421.3636,666.0658,431.1818,665.4218,441,665.6348,440.821,665.6348,441.3235,655.9075,440.2743,646.1802,441.1036,636.4529,441.2053,626.7257,440.8597,616.9984,440.8831,607.2711,441.2531,597.5439,441.3235,587.8166,441.6551,578.0893,441.4326,568.362,441,558.6348,441.0623,558.6971,439.1273,556.7621,437.1504,554.7852,435.1148,552.7496,433.0515,550.6863,431,548.6348,431,548.014,421.1905,548.8375,411.381,548.7701,401.5714,548.3796,391.7619,548.9429,381.9524,548.0937,372.1429,548.5109,362.3333,549.2594,352.5238,548.85,342.7143,548.2877,332.9048,548.3052,323.0952,548.9776,313.2857,548.2576,303.4762,548.9273,293.6667,549.1362,283.8571,549.2814,274.0476,548.6428,264.2381,548.5904,254.4286,548.257,244.619,549.0747,234.8095,549.1963,225,548.6348" style="stroke: #A80036; stroke-width: 1.0;"/><path d="M431,548.6348 L430.7586,548.6348 L430.9483,550.6348 L431.2683,552.6348 L430.9178,554.6348 L430.7825,556.6348 L431,558.6348 " fill="#FBFB77" style="stroke: #A80036; stroke-width: 1.0;"/><path d="M441,558.6348 L441,558.4791 L439,558.9114 L437,558.3305 L435,558.3078 L433,558.5479 L431,558.6348 " fill="#FBFB77" style="stroke: #A80036; stroke-width: 1.0;"/><text fill="#000000" font-family="sans-serif" font-size="13" lengthAdjust="spacingAndGlyphs" textLength="91" x="231" y="566.2031">・タイトル整形</text><text fill="#000000" font-family="sans-serif" font-size="13" lengthAdjust="spacingAndGlyphs" textLength="104" x="231" y="581.5137">・更新日のセット</text><text fill="#000000" font-family="sans-serif" font-size="13" lengthAdjust="spacingAndGlyphs" textLength="76" x="231" y="596.8242">・URLの整形</text><text fill="#000000" font-family="sans-serif" font-size="13" lengthAdjust="spacingAndGlyphs" textLength="156" x="231" y="612.1348">・トップフォルダの場合に</text><text fill="#000000" font-family="sans-serif" font-size="13" lengthAdjust="spacingAndGlyphs" textLength="154" x="231" y="627.4453">URLバリデーションを除外</text><text fill="#000000" font-family="sans-serif" font-size="13" lengthAdjust="spacingAndGlyphs" textLength="128" x="231" y="642.7559">・URLの重複チェック</text><text fill="#000000" font-family="sans-serif" font-size="13" lengthAdjust="spacingAndGlyphs" textLength="195" x="231" y="658.0664">（重複していた場合は自動生成）</text><path d="M340.5,696.1191 L340.5,696.429 L348.9,696.0754 L357.3,695.9266 L365.7,696.2288 L374.1,696.2696 L382.5,696.1191 " fill="none" style="stroke: #A80036; stroke-width: 1.0;"/><path d="M382.5,696.1191 L382.5745,696.1191 L382.5458,698.7191 L382.5238,701.3191 L382.3998,703.9191 L382.6593,706.5191 L382.5,709.1191 " fill="none" style="stroke: #A80036; stroke-width: 1.0;"/><path d="M341.5,709.1191 L341.5,709.3654 L349.7,708.9676 L357.9,708.8279 L366.1,709.0091 L374.3,709.4439 L382.5,709.1191 " fill="none" style="stroke: #A80036; stroke-width: 1.0;"/><polygon fill="#A80036" points="351.5,705.1191,351.5577,705.2635,349.4292,705.742,347.4411,706.5719,345.524,707.579,343.47,708.244,341.5,709.1191,341.4155,708.908,343.584,710.129,345.524,710.779,347.514,711.554,349.5457,712.4334,351.5,713.1191,351.5845,713.2036,350.5485,712.1677,349.8504,711.4695,349.2495,710.8686,348.4691,710.0882,347.5,709.1191,347.5946,709.2138,348.3295,708.3486,349.1346,707.5537,349.9072,706.7263,350.7646,705.9837,351.5,705.1191" style="stroke: #A80036; stroke-width: 1.0;"/><text fill="#000000" font-family="sans-serif" font-size="13" lengthAdjust="spacingAndGlyphs" textLength="68" x="347.5" y="691.377">beforeSave</text><polygon fill="#FBFB77" filter="url(#fnjh2a1)" points="231,722.1191,231.0203,722.1191,230.8153,727.1191,230.7975,732.1191,231.1727,737.1191,230.9249,742.1191,231,747.1191,231,746.5106,241.2,747.7384,251.4,746.4166,261.6,746.8369,271.8,747.4187,282,747.5361,292.2,746.5661,302.4,747.6545,312.6,746.5254,322.8,747.5571,333,747.2099,343.2,746.5486,353.4,747.8025,363.6,747.1868,373.8,746.9465,384,746.6117,394.2,747.6608,404.4,747.249,414.6,747.8077,424.8,747.017,435,747.1191,434.832,747.1191,435.2313,744.1191,435.1886,741.1191,434.8626,738.1191,434.9728,735.1191,435,732.1191,435.0709,732.1901,433.1272,730.2464,431.0561,728.1753,429.0165,726.1356,426.9285,724.0477,425,722.1191,425,722.6863,414.7895,721.4266,404.5789,722.3069,394.3684,722.2007,384.1579,721.8666,373.9474,722.0284,363.7368,722.6179,353.5263,722.0479,343.3158,722.0657,333.1053,722.6698,322.8947,722.2651,312.6842,721.7558,302.4737,721.9727,292.2632,722.1071,282.0526,721.7655,271.8421,722.2175,261.6316,721.7481,251.4211,721.6628,241.2105,722.7568,231,722.1191" style="stroke: #A80036; stroke-width: 1.0;"/><path d="M425,722.1191 L425.1176,722.1191 L425.0614,724.1191 L425.3179,726.1191 L425.1504,728.1191 L424.9474,730.1191 L425,732.1191 " fill="#FBFB77" style="stroke: #A80036; stroke-width: 1.0;"/><path d="M435,732.1191 L435,732.0624 L433,732.2432 L431,732.2604 L429,732.0542 L427,731.9102 L425,732.1191 " fill="#FBFB77" style="stroke: #A80036; stroke-width: 1.0;"/><text fill="#000000" font-family="sans-serif" font-size="13" lengthAdjust="spacingAndGlyphs" textLength="183" x="237" y="739.6875">変更前の親コンテンツIDを取得</text><path d="M340.5,782.7402 L340.5,782.456 L348.9,782.6805 L357.3,782.7721 L365.7,782.4601 L374.1,782.5617 L382.5,782.7402 " fill="none" style="stroke: #A80036; stroke-width: 1.0;"/><path d="M382.5,782.7402 L382.7038,782.7402 L382.7625,785.3402 L382.6543,787.9402 L382.3126,790.5402 L382.2988,793.1402 L382.5,795.7402 " fill="none" style="stroke: #A80036; stroke-width: 1.0;"/><path d="M335.5,795.7402 L335.5,796.0379 L344.9,796.6958 L354.3,796.6046 L363.7,795.8949 L373.1,796.3167 L382.5,795.7402 " fill="none" style="stroke: #A80036; stroke-width: 1.0;"/><polygon fill="#A80036" points="345.5,791.7402,345.5887,791.9619,343.4452,792.4032,341.5293,793.4136,339.5454,794.2539,337.5803,795.1409,335.5,795.7402,335.5096,795.7642,337.512,796.5701,339.4372,797.1833,341.4552,798.0283,343.4237,798.7495,345.5,799.7402,345.445,799.6852,344.5836,798.8239,343.9196,798.1598,343.2073,797.4476,342.1322,796.3724,341.5,795.7402,341.407,795.6472,342.1345,794.7747,343.1401,794.1804,344.0083,793.4486,344.6338,792.474,345.5,791.7402" style="stroke: #A80036; stroke-width: 1.0;"/><text fill="#000000" font-family="sans-serif" font-size="13" lengthAdjust="spacingAndGlyphs" textLength="57" x="347.5" y="777.998">afterSave</text><polygon fill="#FBFB77" filter="url(#fnjh2a1)" points="206,803.7402,205.6293,803.7402,206.0276,813.8402,205.5437,823.9402,206.4532,834.0402,205.3379,844.1402,206.1218,854.2402,205.9658,864.3402,206.3246,874.4402,205.837,884.5402,206.0428,894.6402,206,904.7402,206,905.1738,215.8077,904.5333,225.6154,904.6825,235.4231,904.5785,245.2308,904.5303,255.0385,905.4354,264.8462,904.3458,274.6538,905.2531,284.4615,904.0452,294.2692,905.1446,304.0769,904.9406,313.8846,905.0189,323.6923,904.2635,333.5,904.6533,343.3077,904.0194,353.1154,904.6325,362.9231,904.4532,372.7308,905.2794,382.5385,905.0881,392.3462,905.1742,402.1538,904.6373,411.9615,905.3498,421.7692,904.3273,431.5769,905.0285,441.3846,904.1538,451.1923,904.5023,461,904.7402,460.6033,904.7402,460.8839,894.6291,460.9175,884.518,460.9363,874.4069,461.7139,864.2958,460.9389,854.1847,461.7317,844.0736,461.6982,833.9625,461.4487,823.8513,461,813.7402,461.1262,813.8665,458.989,811.7292,456.9411,809.6813,454.8604,807.6006,452.8393,805.5795,451,803.7402,451,803.9854,441.2,804.0725,431.4,803.563,421.6,803.708,411.8,803.5204,402,803.9577,392.2,803.3977,382.4,804.0973,372.6,803.5879,362.8,803.866,353,803.5633,343.2,803.6714,333.4,803.4517,323.6,804.4094,313.8,803.3407,304,804.1308,294.2,803.6213,284.4,803.0857,274.6,803.3791,264.8,804.4161,255,804.3008,245.2,803.3963,235.4,803.1811,225.6,803.8065,215.8,804.3921,206,803.7402" style="stroke: #A80036; stroke-width: 1.0;"/><path d="M451,803.7402 L451.0533,803.7402 L451.248,805.7402 L450.7365,807.7402 L450.6977,809.7402 L450.6853,811.7402 L451,813.7402 " fill="#FBFB77" style="stroke: #A80036; stroke-width: 1.0;"/><path d="M461,813.7402 L461,813.6465 L459,813.997 L457,813.4157 L455,813.6817 L453,813.7497 L451,813.7402 " fill="#FBFB77" style="stroke: #A80036; stroke-width: 1.0;"/><text fill="#000000" font-family="sans-serif" font-size="13" lengthAdjust="spacingAndGlyphs" textLength="169" x="212" y="821.3086">・関連するキャッシュを削除</text><text fill="#000000" font-family="sans-serif" font-size="13" lengthAdjust="spacingAndGlyphs" textLength="143" x="212" y="836.6191">・システムデータを更新</text><text fill="#000000" font-family="sans-serif" font-size="13" lengthAdjust="spacingAndGlyphs" textLength="130" x="212" y="851.9297">・子コンテンツの更新</text><text fill="#000000" font-family="sans-serif" font-size="13" lengthAdjust="spacingAndGlyphs" textLength="234" x="212" y="867.2402">・別サイトの関連するコンテンツを更新</text><text fill="#000000" font-family="sans-serif" font-size="13" lengthAdjust="spacingAndGlyphs" textLength="234" x="212" y="882.5508">・親コンテンツが変更となった場合は、</text><text fill="#000000" font-family="sans-serif" font-size="13" lengthAdjust="spacingAndGlyphs" textLength="143" x="212" y="897.8613">最終並び替え日時を更新</text><polygon fill="#A80036" points="223,916.6035,223.0362,916.694,220.9444,917.2646,219.0724,918.3845,216.9943,918.9893,214.9638,919.713,213,920.6035,212.9844,920.5646,215.0453,921.5167,216.9775,922.1473,218.9465,922.8699,220.953,923.6861,223,924.6035,223.0202,924.6237,222.0462,923.6497,221.4686,923.0722,220.4675,922.071,219.6449,921.2485,219,920.6035,219.1522,920.7557,219.8993,919.9028,220.488,918.8915,221.2389,918.0424,222.2667,917.4702,223,916.6035" style="stroke: #A80036; stroke-width: 1.0;"/><path d="M217,920.6035 L217,919.7244 L226.7917,919.8856 L236.5833,921.4426 L246.375,920.4332 L256.1667,919.8594 L265.9583,921.5204 L275.75,921.3314 L285.5417,920.0406 L295.3333,921.5158 L305.125,921.2698 L314.9167,921.2681 L324.7083,920.5866 L334.5,920.6035 " fill="none" style="stroke: #A80036; stroke-width: 1.0;"/><polygon fill="#FBFB77" filter="url(#fnjh2a1)" points="120,933.6035,120.0251,933.6035,119.9107,938.6035,119.877,943.6035,119.8302,948.6035,120.2045,953.6035,120,958.6035,120,959.1848,129.9444,959.0611,139.8889,958.9224,149.8333,958.72,159.7778,957.9517,169.7222,958.3485,179.6667,959.258,189.6111,959.2515,199.5556,958.8191,209.5,959.0045,219.4444,958.3532,229.3889,959.0288,239.3333,959.1168,249.2778,959.0538,259.2222,957.8908,269.1667,959.2532,279.1111,958.4006,289.0556,959.23,299,958.6035,299.0915,958.6035,299.2202,955.6035,298.9808,952.6035,299.0658,949.6035,299.029,946.6035,299,943.6035,299.0366,943.6401,297.0823,941.6858,295.0862,939.6897,292.8511,937.4546,290.9891,935.5927,289,933.6035,289,933.3698,279.0588,934.0566,269.1176,933.951,259.1765,933.0113,249.2353,933.7733,239.2941,933.1961,229.3529,932.8653,219.4118,934.1807,209.4706,933.672,199.5294,932.8915,189.5882,933.0536,179.6471,933.8026,169.7059,934.1762,159.7647,933.6092,149.8235,932.9505,139.8824,933.8748,129.9412,933.6344,120,933.6035" style="stroke: #A80036; stroke-width: 1.0;"/><path d="M289,933.6035 L288.7247,933.6035 L289.2296,935.6035 L289.1168,937.6035 L289.2362,939.6035 L289.3099,941.6035 L289,943.6035 " fill="#FBFB77" style="stroke: #A80036; stroke-width: 1.0;"/><path d="M299,943.6035 L299,943.8498 L297,943.8441 L295,943.6324 L293,943.3879 L291,943.8838 L289,943.6035 " fill="#FBFB77" style="stroke: #A80036; stroke-width: 1.0;"/><text fill="#000000" font-family="sans-serif" font-size="13" lengthAdjust="spacingAndGlyphs" textLength="158" x="126" y="951.1719">生成後のContent をマージ</text><polygon fill="#A80036" points="77.5,969.9141,77.5094,969.9376,75.5214,970.7677,73.5194,971.5625,71.5835,972.5229,69.4179,972.9088,67.5,973.9141,67.4916,973.8931,69.4727,974.6458,71.5199,975.5639,73.507,976.3315,75.4607,977.0159,77.5,977.9141,77.3519,977.766,76.6354,977.0494,76.0577,976.4718,74.977,975.3911,74.1342,974.5483,73.5,973.9141,73.4632,973.8773,74.363,973.1771,74.9363,972.1503,76,971.6141,76.599,970.6131,77.5,969.9141" style="stroke: #A80036; stroke-width: 1.0;"/><path d="M71.5,973.9141 L71.5,973.6996 L81.4643,974.8939 L91.4286,973.1624 L101.3929,974.4616 L111.3571,973.0711 L121.3214,973.6024 L131.2857,974.7063 L141.25,973.4563 L151.2143,974.0102 L161.1786,972.9359 L171.1429,973.3747 L181.1071,973.4673 L191.0714,973.4666 L201.0357,974.6389 L211,973.9141 " fill="none" style="stroke: #A80036; stroke-width: 1.0;"/></g></svg>