<?xml version="1.0" encoding="UTF-8" standalone="no"?><svg xmlns="http://www.w3.org/2000/svg" xmlns:xlink="http://www.w3.org/1999/xlink" contentScriptType="application/ecmascript" contentStyleType="text/css" height="387px" preserveAspectRatio="none" style="width:479px;height:387px;background:#FFFFFF;" version="1.1" viewBox="0 0 479 387" width="479px" zoomAndPan="magnify"><defs><filter height="300%" id="f1xqn6ky85xtz8" width="300%" x="-1" y="-1"><feGaussianBlur result="blurOut" stdDeviation="2.0"/><feColorMatrix in="blurOut" result="blurOut2" type="matrix" values="0 0 0 0 0 0 0 0 0 0 0 0 0 0 0 0 0 0 .4 0"/><feOffset dx="4.0" dy="4.0" in="blurOut2" result="blurOut3"/><feBlend in="SourceGraphic" in2="blurOut3" mode="normal"/></filter></defs><g><text fill="#000000" font-family="sans-serif" font-size="18" lengthAdjust="spacing" textLength="198" x="140.5" y="28.708">コンテンツフォルダ削除</text><path d="M107.5,75.25 L107.7802,75.25 L106.9476,85.2153 L107.7577,95.1806 L108.0329,105.1458 L106.5488,115.1111 L107.3964,125.0764 L106.9313,135.0417 L106.9887,145.0069 L107.4091,154.9722 L106.5782,164.9375 L108.2382,174.9028 L106.6596,184.8681 L107.2363,194.8333 L108.0759,204.7986 L107.3856,214.7639 L107.591,224.7292 L107.4574,234.6944 L107.738,244.6597 L107.8188,254.625 L108.2809,264.5903 L108.3947,274.5556 L108.4057,284.5208 L107.8395,294.4861 L108.1181,304.4514 L108.4363,314.4167 L106.5384,324.3819 L108.4047,334.3472 L107.5,344.3125 " fill="none" style="stroke:#A80036;stroke-width:1.0;stroke-dasharray:5.0,5.0;"/><path d="M256.5,75.25 L256.7802,75.25 L255.9476,85.2153 L256.7577,95.1806 L257.0329,105.1458 L255.5488,115.1111 L256.3964,125.0764 L255.9313,135.0417 L255.9887,145.0069 L256.4091,154.9722 L255.5782,164.9375 L257.2382,174.9028 L255.6596,184.8681 L256.2363,194.8333 L257.0759,204.7986 L256.3856,214.7639 L256.591,224.7292 L256.4574,234.6944 L256.738,244.6597 L256.8188,254.625 L257.2809,264.5903 L257.3947,274.5556 L257.4057,284.5208 L256.8395,294.4861 L257.1181,304.4514 L257.4363,314.4167 L255.5384,324.3819 L257.4047,334.3472 L256.5,344.3125 " fill="none" style="stroke:#A80036;stroke-width:1.0;stroke-dasharray:5.0,5.0;"/><path d="M383.5,75.25 L383.7802,75.25 L382.9476,85.2153 L383.7577,95.1806 L384.0329,105.1458 L382.5488,115.1111 L383.3964,125.0764 L382.9313,135.0417 L382.9887,145.0069 L383.4091,154.9722 L382.5782,164.9375 L384.2382,174.9028 L382.6596,184.8681 L383.2363,194.8333 L384.0759,204.7986 L383.3856,214.7639 L383.591,224.7292 L383.4574,234.6944 L383.738,244.6597 L383.8188,254.625 L384.2809,264.5903 L384.3947,274.5556 L384.4057,284.5208 L383.8395,294.4861 L384.1181,304.4514 L384.4363,314.4167 L382.5384,324.3819 L384.4047,334.3472 L383.5,344.3125 " fill="none" style="stroke:#A80036;stroke-width:1.0;stroke-dasharray:5.0,5.0;"/><polygon fill="#FEFECE" filter="url(#f1xqn6ky85xtz8)" points="49.5,39.9531,49.5,40.1633,59.7727,39.5388,70.0455,40.1464,80.3182,40.3528,90.5909,39.2397,100.8636,39.8754,111.1364,39.5266,121.4091,39.5696,131.6818,39.885,141.9545,39.2618,152.2273,40.5068,162.5,39.9531,162.2899,39.9531,162.4341,46.0125,162.644,52.0719,162.4714,58.1313,162.5227,64.1906,162.5,70.25,162.5,70.2181,152.2273,70.4285,141.9545,70.4891,131.6818,70.8357,121.4091,70.9211,111.1364,70.9293,100.8636,70.5046,90.5909,70.7136,80.3182,70.9522,70.0455,69.5288,59.7727,70.9285,49.5,70.25,49.4012,70.25,49.6779,64.1906,49.335,58.1313,49.4772,52.0719,49.7472,46.0125,49.5,39.9531" style="stroke:#A80036;stroke-width:1.5;"/><text fill="#000000" font-family="sans-serif" font-size="14" lengthAdjust="spacing" textLength="99" x="56.5" y="59.9482">ContentFolder</text><polygon fill="#FEFECE" filter="url(#f1xqn6ky85xtz8)" points="49.5,343.3125,49.5,343.5227,59.7727,342.8982,70.0455,343.5058,80.3182,343.7122,90.5909,342.5991,100.8636,343.2348,111.1364,342.886,121.4091,342.929,131.6818,343.2443,141.9545,342.6211,152.2273,343.8661,162.5,343.3125,162.2899,343.3125,162.4341,349.3719,162.644,355.4313,162.4714,361.4906,162.5227,367.55,162.5,373.6094,162.5,373.5774,152.2273,373.7879,141.9545,373.8485,131.6818,374.1951,121.4091,374.2804,111.1364,374.2886,100.8636,373.864,90.5909,374.073,80.3182,374.3116,70.0455,372.8882,59.7727,374.2879,49.5,373.6094,49.4012,373.6094,49.6779,367.55,49.335,361.4906,49.4772,355.4313,49.7472,349.3719,49.5,343.3125" style="stroke:#A80036;stroke-width:1.5;"/><text fill="#000000" font-family="sans-serif" font-size="14" lengthAdjust="spacing" textLength="99" x="56.5" y="363.3076">ContentFolder</text><polygon fill="#FEFECE" filter="url(#f1xqn6ky85xtz8)" points="176.5,39.9531,176.5,40.1633,186.25,39.5388,196,40.1464,205.75,40.3528,215.5,39.2397,225.25,39.8754,235,39.5266,244.75,39.5696,254.5,39.885,264.25,39.2618,274,40.5068,283.75,39.3228,293.5,39.7554,303.25,40.3851,313,39.8673,322.75,40.0214,332.5,39.9531,332.4894,39.9531,332.5595,46.0125,332.5797,52.0719,332.6952,58.1313,332.7237,64.1906,332.5,70.25,332.5,70.9293,322.75,70.5046,313,70.7136,303.25,70.9522,293.5,69.5288,283.75,70.9285,274,69.9535,264.25,70.7838,254.5,69.755,244.75,70.1815,235,70.9916,225.25,70.2013,215.5,70.3553,205.75,70.5886,196,70.6662,186.25,70.2461,176.5,70.25,176.5957,70.25,176.3092,64.1906,176.5948,58.1313,176.6827,52.0719,176.6482,46.0125,176.5,39.9531" style="stroke:#A80036;stroke-width:1.5;"/><text fill="#000000" font-family="sans-serif" font-size="14" lengthAdjust="spacing" textLength="142" x="183.5" y="59.9482">BcContentsBehavior</text><polygon fill="#FEFECE" filter="url(#f1xqn6ky85xtz8)" points="176.5,343.3125,176.5,343.5227,186.25,342.8982,196,343.5058,205.75,343.7122,215.5,342.5991,225.25,343.2348,235,342.886,244.75,342.929,254.5,343.2443,264.25,342.6211,274,343.8661,283.75,342.6822,293.5,343.1147,303.25,343.7444,313,343.2267,322.75,343.3807,332.5,343.3125,332.4894,343.3125,332.5595,349.3719,332.5797,355.4313,332.6952,361.4906,332.7237,367.55,332.5,373.6094,332.5,374.2886,322.75,373.864,313,374.073,303.25,374.3116,293.5,372.8882,283.75,374.2879,274,373.3129,264.25,374.1432,254.5,373.1144,244.75,373.5409,235,374.351,225.25,373.5606,215.5,373.7147,205.75,373.948,196,374.0256,186.25,373.6055,176.5,373.6094,176.5957,373.6094,176.3092,367.55,176.5948,361.4906,176.6827,355.4313,176.6482,349.3719,176.5,343.3125" style="stroke:#A80036;stroke-width:1.5;"/><text fill="#000000" font-family="sans-serif" font-size="14" lengthAdjust="spacing" textLength="142" x="183.5" y="363.3076">BcContentsBehavior</text><polygon fill="#FEFECE" filter="url(#f1xqn6ky85xtz8)" points="346.5,39.9531,346.5,40.1633,356.5,39.5388,366.5,40.1464,376.5,40.3528,386.5,39.2397,396.5,39.8754,406.5,39.5266,416.5,39.9531,416.3722,39.9531,416.4773,46.0125,416.2695,52.0719,416.6845,58.1313,416.2899,64.1906,416.5,70.25,416.5,70.0522,406.5,70.6819,396.5,70.1642,386.5,70.3182,376.5,70.2181,366.5,70.4285,356.5,70.4891,346.5,70.25,346.6952,70.25,346.7237,64.1906,346.7264,58.1313,346.5849,52.0719,346.6545,46.0125,346.5,39.9531" style="stroke:#A80036;stroke-width:1.5;"/><text fill="#000000" font-family="sans-serif" font-size="14" lengthAdjust="spacing" textLength="56" x="353.5" y="59.9482">Content</text><polygon fill="#FEFECE" filter="url(#f1xqn6ky85xtz8)" points="346.5,343.3125,346.5,343.5227,356.5,342.8982,366.5,343.5058,376.5,343.7122,386.5,342.5991,396.5,343.2348,406.5,342.886,416.5,343.3125,416.3722,343.3125,416.4773,349.3719,416.2695,355.4313,416.6845,361.4906,416.2899,367.55,416.5,373.6094,416.5,373.4116,406.5,374.0413,396.5,373.5236,386.5,373.6776,376.5,373.5774,366.5,373.7879,356.5,373.8485,346.5,373.6094,346.6952,373.6094,346.7237,367.55,346.7264,361.4906,346.5849,355.4313,346.6545,349.3719,346.5,343.3125" style="stroke:#A80036;stroke-width:1.5;"/><text fill="#000000" font-family="sans-serif" font-size="14" lengthAdjust="spacing" textLength="56" x="353.5" y="363.3076">Content</text><polygon fill="#A80036" points="91,102.3828,91.026,102.4479,92.9487,103.0546,95.0239,104.0426,97.0495,104.9065,98.9117,105.362,101,106.3828,100.9904,106.3588,98.9472,107.0508,96.9525,107.8641,94.9916,108.7617,92.9144,109.3688,91,110.3828,91.1305,110.5133,91.6514,109.4343,92.5534,108.7362,93.5018,108.0846,94.1798,107.1626,95,106.3828,95.0161,106.3989,94.1925,105.5753,93.4421,104.8249,92.6564,104.0392,91.938,103.3209,91,102.3828" style="stroke:#A80036;stroke-width:1.0;"/><path d="M0,106.3828 L0,106.6631 L9.7,105.8304 L19.4,106.6405 L29.1,106.9157 L38.8,105.4316 L48.5,106.2792 L58.2,105.8142 L67.9,105.8715 L77.6,106.2919 L87.3,105.461 L97,106.3828 " fill="none" style="stroke:#A80036;stroke-width:1.0;"/><text fill="#000000" font-family="sans-serif" font-size="13" lengthAdjust="spacing" textLength="71" x="7" y="101.3169">hardDelete</text><polygon fill="#A80036" points="239.5,131.5156,239.526,131.5807,241.4487,132.1874,243.5239,133.1754,245.5495,134.0393,247.4117,134.4948,249.5,135.5156,249.4904,135.4916,247.4472,136.1836,245.4525,136.9969,243.4916,137.8945,241.4144,138.5017,239.5,139.5156,239.6305,139.6461,240.1514,138.5671,241.0534,137.869,242.0018,137.2174,242.6798,136.2954,243.5,135.5156,243.5161,135.5317,242.6925,134.7081,241.9421,133.9577,241.1564,133.172,240.438,132.4537,239.5,131.5156" style="stroke:#A80036;stroke-width:1.0;"/><path d="M113,135.5156 L113,135.7959 L123.1923,134.9632 L133.3846,135.7733 L143.5769,136.0485 L153.7692,134.5644 L163.9615,135.412 L174.1538,134.947 L184.3462,135.0043 L194.5385,135.4247 L204.7308,134.5938 L214.9231,136.2538 L225.1154,134.6753 L235.3077,135.2519 L245.5,135.5156 " fill="none" style="stroke:#A80036;stroke-width:1.0;"/><text fill="#000000" font-family="sans-serif" font-size="13" lengthAdjust="spacing" textLength="83" x="120" y="130.4497">beforeDelete</text><path d="M156,148.5156 L156.1868,148.5156 L155.6317,153.5156 L156.1718,158.5156 L156.3553,163.5156 L155.3659,168.5156 L156,173.5156 L156,173.3084 L165.8,172.3783 L175.6,172.493 L185.4,173.3339 L195.2,171.672 L205,174.992 L214.8,171.8349 L224.6,172.9882 L234.4,174.6675 L244.2,173.2869 L254,173.6976 L263.8,173.4304 L273.6,173.9917 L283.4,174.1533 L293.2,175.0775 L303,175.3051 L312.8,175.327 L322.6,174.1946 L332.4,174.7519 L342.2,175.3882 L352,173.5156 L351.3589,173.5156 L352.6031,170.5156 L351.7364,167.5156 L352.4745,164.5156 L351.56,161.5156 L352,158.5156 L351.9569,158.4726 L350.4661,156.9818 L347.9694,154.485 L346.0662,152.5818 L344.2128,150.7285 L342,148.5156 L342,149.6256 L332.2105,148.5052 L322.4211,149.2815 L312.6316,146.9892 L302.8421,149.274 L293.0526,149.9775 L283.2632,149.701 L273.4737,150.1504 L263.6842,147.2274 L253.8947,146.7765 L244.1053,146.8586 L234.3158,148.3586 L224.5263,147.9915 L214.7368,150.3327 L204.9474,148.0498 L195.1579,147.6008 L185.3684,149.1243 L175.5789,146.7374 L165.7895,147.1313 L156,148.5156 " fill="#FBFB77" filter="url(#f1xqn6ky85xtz8)" style="stroke:#A80036;stroke-width:1.0;"/><path d="M342,148.5156 L342.5768,148.5156 L342.3873,150.5156 L342.6529,152.5156 L341.714,154.5156 L342.2837,156.5156 L342,158.5156 L342,159.0404 L344,158.0957 L346,158.4304 L348,158.6276 L350,159.095 L352,158.5156 L351.9974,158.513 L350.2907,156.8064 L347.6519,154.1675 L345.5743,152.0899 L344.3165,150.8322 L342,148.5156 " fill="#FBFB77" style="stroke:#A80036;stroke-width:1.0;"/><text fill="#000000" font-family="sans-serif" font-size="13" lengthAdjust="spacing" textLength="175" x="162" y="165.5825">Contents物理削除準備をする</text><polygon fill="#A80036" points="124,199.7813,124.026,199.8463,121.9487,200.453,120.0239,201.4411,118.0495,202.3049,115.9117,202.7605,114,203.7813,113.9904,203.7572,115.9472,204.4493,117.9525,205.2626,119.9916,206.1602,121.9144,206.7673,124,207.7813,124.1305,207.9117,123.0514,206.8327,122.3534,206.1346,121.7018,205.4831,120.7798,204.561,120,203.7813,120.0161,203.7973,120.7925,202.9737,121.6421,202.2233,122.4564,201.4376,123.338,200.7193,124,199.7813" style="stroke:#A80036;stroke-width:1.0;"/><path d="M118,203.7813 L118,204.0615 L128.1923,203.2288 L138.3846,204.039 L148.5769,204.3142 L158.7692,202.8301 L168.9615,203.6776 L179.1538,203.2126 L189.3462,203.2699 L199.5385,203.6904 L209.7308,202.8594 L219.9231,204.5194 L230.1154,202.9409 L240.3077,203.5176 L250.5,203.7813 " fill="none" style="stroke:#A80036;stroke-width:1.0;"/><text fill="#000000" font-family="sans-serif" font-size="13" lengthAdjust="spacing" textLength="72" x="130" y="198.7153">afterDelete</text><path d="M5,216.7813 L5.1868,216.7813 L4.6317,224.7813 L5.1718,232.7813 L5.3553,240.7813 L4.3659,248.7813 L5,256.7813 L5,256.574 L15.1,255.6439 L25.2,255.7586 L35.3,256.5995 L45.4,254.9376 L55.5,258.2576 L65.6,255.1005 L75.7,256.2539 L85.8,257.9331 L95.9,256.5525 L106,256.9632 L116.1,256.6961 L126.2,257.2573 L136.3,257.4189 L146.4,258.3431 L156.5,258.5707 L166.6,258.5926 L176.7,257.4603 L186.8,258.0175 L196.9,258.6539 L207,256.7813 L206.3589,256.7813 L207.6031,250.7813 L206.7364,244.7813 L207.4745,238.7813 L206.56,232.7813 L207,226.7813 L206.9569,226.7382 L205.4661,225.2474 L202.9694,222.7506 L201.0662,220.8474 L199.2128,218.9941 L197,216.7813 L197,217.8912 L186.8947,216.7708 L176.7895,217.5472 L166.6842,215.2548 L156.5789,217.5396 L146.4737,218.2431 L136.3684,217.9667 L126.2632,218.416 L116.1579,215.493 L106.0526,215.0421 L95.9474,215.1242 L85.8421,216.6242 L75.7368,216.2572 L65.6316,218.5983 L55.5263,216.3154 L45.4211,215.8664 L35.3158,217.39 L25.2105,215.003 L15.1053,215.3969 L5,216.7813 " fill="#FBFB77" filter="url(#f1xqn6ky85xtz8)" style="stroke:#A80036;stroke-width:1.0;"/><path d="M197,216.7813 L197.5768,216.7813 L197.3873,218.7813 L197.6529,220.7813 L196.714,222.7813 L197.2837,224.7813 L197,226.7813 L197,227.3061 L199,226.3613 L201,226.696 L203,226.8932 L205,227.3606 L207,226.7813 L206.9974,226.7786 L205.2907,225.072 L202.6519,222.4332 L200.5743,220.3556 L199.3165,219.0978 L197,216.7813 " fill="#FBFB77" style="stroke:#A80036;stroke-width:1.0;"/><text fill="#000000" font-family="sans-serif" font-size="13" lengthAdjust="spacing" textLength="181" x="11" y="233.8481">ContentFolderを物理削除する</text><text fill="#000000" font-family="sans-serif" font-size="13" lengthAdjust="spacing" textLength="116" x="11" y="248.981">Contentを削除する</text><polygon fill="#A80036" points="371.5,283.1797,371.526,283.2447,373.4487,283.8515,375.5239,284.8395,377.5495,285.7034,379.4117,286.1589,381.5,287.1797,381.4904,287.1556,379.4472,287.8477,377.4525,288.661,375.4916,289.5586,373.4144,290.1657,371.5,291.1797,371.6305,291.3102,372.1514,290.2311,373.0534,289.5331,374.0018,288.8815,374.6798,287.9595,375.5,287.1797,375.5161,287.1958,374.6925,286.3722,373.9421,285.6218,373.1564,284.8361,372.438,284.1177,371.5,283.1797" style="stroke:#A80036;stroke-width:1.0;"/><path d="M113,287.1797 L113,287.4599 L123.1731,286.6273 L133.3462,287.4374 L143.5192,287.7126 L153.6923,286.2285 L163.8654,287.0761 L174.0385,286.611 L184.2115,286.6684 L194.3846,287.0888 L204.5577,286.2579 L214.7308,287.9179 L224.9038,286.3393 L235.0769,286.916 L245.25,287.7556 L255.4231,287.0653 L265.5962,287.2707 L275.7692,287.1371 L285.9423,287.4177 L296.1154,287.4985 L306.2885,287.9606 L316.4615,288.0744 L326.6346,288.0854 L336.8077,287.5192 L346.9808,287.7978 L357.1538,288.116 L367.3269,286.2181 L377.5,287.1797 " fill="none" style="stroke:#A80036;stroke-width:1.0;"/><text fill="#000000" font-family="sans-serif" font-size="13" lengthAdjust="spacing" textLength="134" x="120" y="282.1138">Contents:afterDelete</text><path d="M293,300.1797 L293.1868,300.1797 L292.6317,305.1797 L293.1718,310.1797 L293.3553,315.1797 L292.3659,320.1797 L293,325.1797 L293,324.9725 L302.8333,324.0424 L312.6667,324.157 L322.5,324.9979 L332.3333,323.336 L342.1667,326.6561 L352,323.4989 L361.8333,324.6523 L371.6667,326.3315 L381.5,324.9509 L391.3333,325.3617 L401.1667,325.0945 L411,325.6558 L420.8333,325.8174 L430.6667,326.7415 L440.5,326.9692 L450.3333,326.991 L460.1667,325.8587 L470,325.1797 L470.4121,325.1797 L470.6242,322.1797 L469.3589,319.1797 L470.6031,316.1797 L469.7364,313.1797 L470,310.1797 L470.3355,310.5152 L467.6889,307.8685 L465.9569,306.1366 L464.4661,304.6458 L461.9694,302.1491 L460,300.1797 L460,300.4605 L450.1765,301.0827 L440.3529,301.2896 L430.5294,300.1693 L420.7059,300.9456 L410.8824,298.6532 L401.0588,300.9381 L391.2353,301.6415 L381.4118,301.3651 L371.5882,301.8144 L361.7647,298.8915 L351.9412,298.4405 L342.1176,298.5226 L332.2941,300.0227 L322.4706,299.6556 L312.6471,301.9968 L302.8235,299.7139 L293,300.1797 " fill="#FBFB77" filter="url(#f1xqn6ky85xtz8)" style="stroke:#A80036;stroke-width:1.0;"/><path d="M460,300.1797 L459.6951,300.1797 L460.2029,302.1797 L459.4073,304.1797 L459.5386,306.1797 L460.5768,308.1797 L460,310.1797 L460,310.5669 L462,310.8326 L464,309.8936 L466,310.4634 L468,310.7045 L470,310.1797 L469.7031,309.8828 L467.9397,308.1194 L466.0792,306.2589 L464.4097,304.5893 L461.9974,302.1771 L460,300.1797 " fill="#FBFB77" style="stroke:#A80036;stroke-width:1.0;"/><text fill="#000000" font-family="sans-serif" font-size="13" lengthAdjust="spacing" textLength="156" x="299" y="317.2466">エイリアスを物理削除する</text><!--MD5=[63141329d1d68b85113d480ce39fde90]
@startuml
skinparam handwritten true
skinparam backgroundColor white

title コンテンツフォルダ削除

participant "ContentFolder" as Folder
participant "BcContentsBehavior" as Behavior
participant "Content" as Content

[-> Folder : hardDelete

activate Folder
activate Behavior

Folder -> Behavior : beforeDelete

note over Behavior
Contents物理削除準備をする
endnote

Folder <- Behavior : afterDelete

note over Folder
ContentFolderを物理削除する
Contentを削除する
endnote

Folder -> Content : Contents:afterDelete

note over Content
エイリアスを物理削除する
endnote
@enduml

PlantUML version 1.2021.14(Sat Nov 13 00:46:50 CST 2021)
(GPL source distribution)
Java Runtime: OpenJDK Runtime Environment
JVM: OpenJDK 64-Bit Server VM
Default Encoding: UTF-8
Language: en
Country: null
--></g></svg>