<?xml version="1.0" encoding="UTF-8" standalone="no"?><svg xmlns="http://www.w3.org/2000/svg" xmlns:xlink="http://www.w3.org/1999/xlink" contentScriptType="application/ecmascript" contentStyleType="text/css" height="1064px" preserveAspectRatio="none" style="width:521px;height:1064px;" version="1.1" viewBox="0 0 521 1064" width="521px" zoomAndPan="magnify"><defs><filter height="300%" id="f456fcj" width="300%" x="-1" y="-1"><feGaussianBlur result="blurOut" stdDeviation="2.0"/><feColorMatrix in="blurOut" result="blurOut2" type="matrix" values="0 0 0 0 0 0 0 0 0 0 0 0 0 0 0 0 0 0 .4 0"/><feOffset dx="4.0" dy="4.0" in="blurOut2" result="blurOut3"/><feBlend in="SourceGraphic" in2="blurOut3" mode="normal"/></filter></defs><g><text fill="#000000" font-family="sans-serif" font-size="14" font-weight="bold" lengthAdjust="spacingAndGlyphs" textLength="154" x="185" y="22.9951">コンテンツフォルダ編集</text><polygon fill="#FFFFFF" filter="url(#f456fcj)" points="106.5,99.5938,106.5,99.3856,108.5,99.817,110.5,99.5712,112.5,99.6817,114.5,99.4133,116.5,99.5938,116.3068,99.5938,116.9781,109.565,115.8787,119.5362,116.2323,129.5075,116.9588,139.4787,117.1457,149.4499,116.0477,159.4212,115.8118,169.3924,116.3813,179.3637,115.9286,189.3349,116.9095,199.3061,116.2347,209.2774,116.725,219.2486,116.9053,229.2199,115.8563,239.1911,116.2303,249.1623,117.095,259.1336,115.8528,269.1048,117.1843,279.0761,116.1291,289.0473,115.7653,299.0185,116.2622,308.9898,115.7908,318.961,116.0623,328.9323,116.3884,338.9035,115.8091,348.8747,117.1622,358.846,116.1186,368.8172,117.0919,378.7885,117.0839,388.7597,117.2485,398.7309,117.23,408.7022,116.1192,418.6734,116.4624,428.6447,117.1145,438.6159,116.2337,448.5871,116.6304,458.5584,116.4014,468.5296,116.5141,478.5009,115.8152,488.4721,116.9497,498.4433,116.678,508.4146,117.236,518.3858,115.8706,528.3571,115.9124,538.3283,117.1514,548.2995,117.2323,558.2708,116.7408,568.242,117.039,578.2133,116.0152,588.1845,116.6483,598.1557,115.7587,608.127,116.5394,618.0982,117.2274,628.0695,115.9415,638.0407,116.1207,648.0119,116.1283,657.9832,115.8469,667.9544,115.7914,677.9257,117.2414,687.8969,115.8172,697.8681,115.8828,707.8394,115.9773,717.8106,116.4735,727.7819,117.2311,737.7531,115.9617,747.7243,115.8214,757.6956,116.3798,767.6668,116.5874,777.638,116.15,787.6093,116.6758,797.5805,116.6251,807.5518,116.2679,817.523,116.6239,827.4942,115.759,837.4655,117.0147,847.4367,115.905,857.408,116.5683,867.3792,115.9345,877.3504,116.745,887.3217,116.1064,897.2929,116.1976,907.2642,116.7577,917.2354,116.046,927.2066,116.3385,937.1779,116.6356,947.1491,115.8112,957.1204,117.09,967.0916,117.0965,977.0628,116.5612,987.0341,116.9859,997.0053,116.5,1006.9766,116.5,1006.748,114.5,1006.9077,112.5,1006.9848,110.5,1006.7996,108.5,1007.1938,106.5,1006.9766,106.8125,1006.9766,106.6677,997.0053,106.2419,987.0341,106.0956,977.0628,106.3817,967.0916,106.7316,957.1204,106.8982,947.1491,107.0307,937.1779,106.8398,927.2066,106.2276,917.2354,106.0467,907.2642,105.8421,897.2929,106.9924,887.3217,106.9447,877.3504,106.9712,867.3792,106.485,857.408,106.0704,847.4367,106.6196,837.4655,107.0826,827.4942,106.93,817.523,106.3339,807.5518,106.0529,797.5805,107.0134,787.6093,107.2237,777.638,106.0936,767.6668,106.2561,757.6956,106.9721,747.7243,105.799,737.7531,106.3509,727.7819,106.3332,717.8106,107.196,707.8394,107.1439,697.8681,105.896,687.8969,106.7581,677.9257,107.0172,667.9544,106.4929,657.9832,106.5414,648.0119,106.4819,638.0407,106.1815,628.0695,106.334,618.0982,106.2073,608.127,106.9176,598.1557,106.1418,588.1845,107.2363,578.2133,105.8234,568.242,106.7835,558.2708,106.081,548.2995,106.7888,538.3283,105.9567,528.3571,106.0504,518.3858,106.4071,508.4146,106.8072,498.4433,106.7269,488.4721,105.8309,478.5009,106.9015,468.5296,106.9105,458.5584,105.9258,448.5871,106.4695,438.6159,106.0947,428.6447,106.0897,418.6734,106.8115,408.7022,106.8392,398.7309,106.7932,388.7597,106.4914,378.7885,105.8124,368.8172,105.9305,358.846,106.9746,348.8747,106.8178,338.9035,106.8353,328.9323,106.2182,318.961,106.0263,308.9898,106.0014,299.0185,106.0421,289.0473,106.5296,279.0761,106.5049,269.1048,106.1439,259.1336,106.3256,249.1623,107.1955,239.1911,106.2542,229.2199,106.1277,219.2486,105.7915,209.2774,106.1555,199.3061,106.83,189.3349,106.2917,179.3637,106.3259,169.3924,106.4059,159.4212,106.746,149.4499,107.138,139.4787,106.3096,129.5075,107.2259,119.5362,106.0729,109.565,106.5,99.5938" style="stroke: #A80036; stroke-width: 1.0;"/><polygon fill="#FFFFFF" filter="url(#f456fcj)" points="255,128.7266,255,128.9532,257,128.9667,259,128.5557,261,128.691,263,128.4819,265,128.7266,264.2518,128.7266,265.0608,138.6677,264.5403,148.6089,265.0238,158.5501,265.6619,168.4912,264.3518,178.4324,264.9243,188.3736,264.9388,198.3148,264.3633,208.2559,264.8713,218.1971,265.584,228.1383,264.5529,238.0794,264.7515,248.0206,265.4171,257.9618,265.3803,267.903,264.798,277.8441,265.4754,287.7853,264.9673,297.7265,265.4891,307.6676,265.6004,317.6088,264.7479,327.55,264.7233,337.4912,264.5387,347.4323,264.5811,357.3735,264.902,367.3147,264.9137,377.2558,265.3817,387.197,265.4532,397.1382,265.7048,407.0793,264.967,417.0205,265.5857,426.9617,265.5653,436.9029,264.4497,446.844,265.4872,456.7852,264.2767,466.7264,265.4689,476.6675,265.0634,486.6087,265.1246,496.5499,264.4741,506.4911,264.8933,516.4322,265.3794,526.3734,264.4123,536.3146,265.5079,546.2557,265.5973,556.1969,264.3485,566.1381,264.4533,576.0793,264.5199,586.0204,265.7288,595.9616,264.7817,605.9028,264.9817,615.8439,265.4121,625.7851,264.5637,635.7263,265.7452,645.6675,265.2868,655.6086,265.4203,665.5498,264.3152,675.491,265.4551,685.4321,264.7877,695.3733,264.7585,705.3145,265.1012,715.2556,264.4563,725.1968,265.6659,735.138,265.5011,745.0792,265.6328,755.0203,264.4982,764.9615,264.9185,774.9027,265.0453,784.8438,265.2393,794.785,264.8651,804.7262,265.4709,814.6674,264.6222,824.6085,264.9783,834.5497,264.9558,844.4909,264.5992,854.432,265.4053,864.3732,264.2859,874.3144,265.6544,884.2556,264.3461,894.1967,265.3012,904.1379,264.4135,914.0791,264.4801,924.0202,264.3792,933.9614,264.9912,943.9026,265,953.8438,265,953.9305,263,953.8961,261,953.9548,259,953.7551,257,953.8953,255,953.8438,254.5957,953.8438,254.5961,943.9026,254.834,933.9614,255.6635,924.0202,254.339,914.0791,254.753,904.1379,254.5209,894.1967,255.1012,884.2556,254.2817,874.3144,254.9683,864.3732,254.294,854.432,255.5964,844.4909,255.4394,834.5497,255.5042,824.6085,254.5279,814.6674,254.825,804.7262,255.7071,794.785,254.7954,784.8438,254.8482,774.9027,254.8561,764.9615,255.4179,755.0203,255.0671,745.0792,255.4426,735.138,255.4671,725.1968,255.5849,715.2556,254.371,705.3145,255.0833,695.3733,255.2771,685.4321,255.4863,675.491,255.1307,665.5498,255.2037,655.6086,255.6162,645.6675,255.2304,635.7263,254.8338,625.7851,254.889,615.8439,255.6952,605.9028,255.1227,595.9616,255.3826,586.0204,255.6121,576.0793,255.3634,566.1381,254.5381,556.1969,254.8132,546.2557,254.9701,536.3146,255.0496,526.3734,255.595,516.4322,255.1293,506.4911,254.5549,496.5499,254.3578,486.6087,254.7143,476.6675,255.3463,466.7264,255.4213,456.7852,254.7534,446.844,255.6442,436.9029,254.5362,426.9617,254.3992,417.0205,254.3087,407.0793,255.2292,397.1382,255.6703,387.197,255.2352,377.2558,255.5958,367.3147,254.6012,357.3735,254.4045,347.4323,255.2366,337.4912,255.0075,327.55,255.5751,317.6088,255.1191,307.6676,255.7355,297.7265,254.5579,287.7853,255.3401,277.8441,254.5255,267.903,255.2862,257.9618,255.0663,248.0206,255.5448,238.0794,254.9771,228.1383,255.5574,218.1971,255.5546,208.2559,254.5912,198.3148,254.7786,188.3736,254.8867,178.4324,254.6957,168.4912,254.8669,158.5501,255.2688,148.6089,254.4156,138.6677,255,128.7266" style="stroke: #A80036; stroke-width: 1.0;"/><polygon fill="#FFFFFF" filter="url(#f456fcj)" points="382,529.4531,382,529.5314,384,529.208,386,529.5411,388,529.6648,390,529.2758,392,529.4531,392.6626,529.4531,391.5883,539.4001,392.5335,549.347,391.6018,559.2939,392.0617,569.2408,391.3851,579.1878,391.8522,589.1347,392.64,599.0816,391.31,609.0286,391.6963,618.9755,391.7232,628.9224,392.3364,638.8693,391.7707,648.8163,392.4243,658.7632,391.6839,668.7101,392.2307,678.6571,392.4299,688.604,391.739,698.5509,391.7391,708.4978,391.8356,718.4448,392.2768,728.3917,391.2744,738.3386,392.2672,748.2856,392.6776,758.2325,391.8306,768.1794,392.5666,778.1263,391.6473,788.0733,392.0983,798.0202,391.9334,807.9671,392,817.9141,392,818.1207,390,817.9208,388,817.7534,386,817.8726,384,817.9993,382,817.9141,382.08,817.9141,382.22,807.9671,382.0716,798.0202,381.9831,788.0733,382.2354,778.1263,382.6678,768.1794,382.3592,758.2325,382.5634,748.2856,382.3705,738.3386,382.3802,728.3917,382.0477,718.4448,382.6742,708.4978,382.2847,698.5509,381.9957,688.604,382.6079,678.6571,382.1675,668.7101,382.6855,658.7632,381.8334,648.8163,381.8545,638.8693,381.3155,628.9224,381.3663,618.9755,381.5135,609.0286,382.1394,599.0816,381.67,589.1347,381.4013,579.1878,381.5365,569.2408,382.4465,559.2939,382.7265,549.347,381.3521,539.4001,382,529.4531" style="stroke: #A80036; stroke-width: 1.0;"/><path d="M111,68.5938 L111.8421,68.5938 L110.7961,78.5561 L110.2914,88.5184 L110.4555,98.4807 L111.2334,108.443 L111.7398,118.4054 L110.4512,128.3677 L110.8857,138.33 L111.068,148.2923 L110.061,158.2546 L110.6325,168.217 L111.8286,178.1793 L110.2933,188.1416 L111.5223,198.1039 L110.2377,208.0662 L111.9883,218.0286 L110.3185,227.9909 L111.455,237.9532 L110.039,247.9155 L110.9551,257.8778 L110.7036,267.8402 L110.6931,277.8025 L110.4518,287.7648 L110.6951,297.7271 L110.4139,307.6895 L110.8834,317.6518 L111.6679,327.6141 L111.0009,337.5764 L111.8213,347.5387 L111.384,357.5011 L111.6338,367.4634 L111.0043,377.4257 L111.3525,387.388 L110.2254,397.3503 L110.5464,407.3127 L111.8336,417.275 L110.8355,427.2373 L110.8095,437.1996 L111.6593,447.1619 L110.4182,457.1243 L111.1917,467.0866 L110.1614,477.0489 L111.7553,487.0112 L111.3019,496.9736 L111.1455,506.9359 L111.6241,516.8982 L110.6378,526.8605 L110.1184,536.8228 L110.0938,546.7852 L110.901,556.7475 L111.4299,566.7098 L111.1179,576.6721 L110.1808,586.6344 L111.3008,596.5968 L110.3425,606.5591 L111.8024,616.5214 L111.9643,626.4837 L111.9299,636.446 L111.8836,646.4084 L110.3335,656.3707 L110.8414,666.333 L111.4007,676.2953 L111.2291,686.2576 L111.9239,696.22 L111.6147,706.1823 L111.3925,716.1446 L111.6602,726.1069 L110.9044,736.0693 L110.2393,746.0316 L111.0974,755.9939 L111.5971,765.9562 L111.5779,775.9185 L110.8773,785.8809 L111.2267,795.8432 L110.8173,805.8055 L111.3321,815.7678 L110.9202,825.7301 L110.8269,835.6925 L110.9471,845.6548 L111.773,855.6171 L110.6035,865.5794 L111.6693,875.5417 L111.2474,885.5041 L111.8779,895.4664 L111.2447,905.4287 L111.4279,915.391 L111.0915,925.3534 L111.3345,935.3157 L110.9739,945.278 L110.2486,955.2403 L111.3404,965.2026 L110.3397,975.165 L111.1103,985.1273 L111.6403,995.0896 L110.0704,1005.0519 L110.1788,1015.0142 L111,1024.9766 " fill="none" style="stroke: #A80036; stroke-width: 1.0; stroke-dasharray: 5.0,5.0;"/><path d="M260,68.5938 L259.0507,68.5938 L260.8805,78.5561 L260.7928,88.5184 L259.8847,98.4807 L259.6919,108.443 L259.3295,118.4054 L260.4294,128.3677 L259.2018,138.33 L259.002,148.2923 L259.1875,158.2546 L259.8672,168.217 L260.9295,178.1793 L260.3816,188.1416 L260.3029,198.1039 L259.9132,208.0662 L260.5241,218.0286 L260.927,227.9909 L260.6552,237.9532 L259.9085,247.9155 L259.5605,257.8778 L260.6075,267.8402 L259.0868,277.8025 L259.1296,287.7648 L260.3344,297.7271 L260.7134,307.6895 L260.7458,317.6518 L260.4199,327.6141 L259.4858,337.5764 L260.7108,347.5387 L260.5299,357.5011 L259.2389,367.4634 L259.0737,377.4257 L259.8539,387.388 L260.5835,397.3503 L260.5042,407.3127 L259.0125,417.275 L260.5614,427.2373 L259.6013,437.1996 L259.2233,447.1619 L260.2022,457.1243 L260.6553,467.0866 L260.3317,477.0489 L260.9745,487.0112 L259.0391,496.9736 L259.0904,506.9359 L259.2492,516.8982 L260.7907,526.8605 L259.2917,536.8228 L260.766,546.7852 L260.8762,556.7475 L259.9404,566.7098 L260.5574,576.6721 L260.4215,586.6344 L260.6897,596.5968 L259.4683,606.5591 L259.6848,616.5214 L259.4541,626.4837 L260.9342,636.446 L259.1723,646.4084 L260.6555,656.3707 L260.7785,666.333 L260.9895,676.2953 L260.9395,686.2576 L259.4637,696.22 L259.5656,706.1823 L260.2046,716.1446 L260.0499,726.1069 L259.5128,736.0693 L259.8503,746.0316 L260.3129,755.9939 L259.1803,765.9562 L259.9709,775.9185 L260.5908,785.8809 L260.6776,795.8432 L259.3999,805.8055 L260.3814,815.7678 L259.792,825.7301 L260.6986,835.6925 L260.4488,845.6548 L259.6233,855.6171 L259.7702,865.5794 L259.7202,875.5417 L259.0256,885.5041 L260.044,895.4664 L260.5432,905.4287 L259.7337,915.391 L260.6822,925.3534 L260.2625,935.3157 L259.6693,945.278 L260.0558,955.2403 L260.2359,965.2026 L260.742,975.165 L259.6409,985.1273 L259.992,995.0896 L259.3574,1005.0519 L260.7834,1015.0142 L260,1024.9766 " fill="none" style="stroke: #A80036; stroke-width: 1.0; stroke-dasharray: 5.0,5.0;"/><path d="M387,68.5938 L387.151,68.5938 L386.2537,78.5561 L387.1758,88.5184 L387.0652,98.4807 L387.2097,108.443 L387.6048,118.4054 L387.3689,128.3677 L387.2833,138.33 L387.1766,148.2923 L387.8466,158.2546 L387.2647,168.217 L387.7953,178.1793 L387.3056,188.1416 L387.8297,198.1039 L386.9785,208.0662 L387.4728,218.0286 L387.3643,227.9909 L387.6937,237.9532 L387.5468,247.9155 L387.1957,257.8778 L387.2964,267.8402 L387.9864,277.8025 L386.3916,287.7648 L387.5926,297.7271 L387.735,307.6895 L386.7049,317.6518 L386.2576,327.6141 L386.74,337.5764 L387.4558,347.5387 L386.6244,357.5011 L386.0163,367.4634 L386.5763,377.4257 L386.5753,387.388 L386.5456,397.3503 L387.4126,407.3127 L386.7703,417.275 L387.4524,427.2373 L386.2932,437.1996 L387.9569,447.1619 L386.7029,457.1243 L387.8469,467.0866 L386.4366,477.0489 L386.7212,487.0112 L386.079,496.9736 L386.9124,506.9359 L387.7779,516.8982 L386.8001,526.8605 L386.4804,536.8228 L386.0733,546.7852 L386.6695,556.7475 L387.6318,566.7098 L387.9048,576.6721 L387.7366,586.6344 L386.1716,596.5968 L386.2451,606.5591 L386.003,616.5214 L387.1314,626.4837 L387.9512,636.446 L386.8125,646.4084 L387.3368,656.3707 L386.3503,666.333 L387.6482,676.2953 L386.6352,686.2576 L387.5237,696.22 L386.8801,706.1823 L387.1983,716.1446 L387.8714,726.1069 L386.6164,736.0693 L387.5672,746.0316 L387.3058,755.9939 L387.944,765.9562 L387.4854,775.9185 L387.0533,785.8809 L387.8949,795.8432 L387.6221,805.8055 L386.3322,815.7678 L387.2448,825.7301 L387.9456,835.6925 L386.2709,845.6548 L387.7514,855.6171 L387.3493,865.5794 L386.6351,875.5417 L386.6984,885.5041 L387.9976,895.4664 L386.4139,905.4287 L387.1547,915.391 L387.4014,925.3534 L387.2785,935.3157 L386.1441,945.278 L386.9629,955.2403 L387.8235,965.2026 L387.0049,975.165 L387.0591,985.1273 L387.5594,995.0896 L386.4861,1005.0519 L386.9747,1015.0142 L387,1024.9766 " fill="none" style="stroke: #A80036; stroke-width: 1.0; stroke-dasharray: 5.0,5.0;"/><polygon fill="#FEFECE" filter="url(#f456fcj)" points="53,33.2969,53,33.8664,63.2727,33.3949,73.5455,32.9504,83.8182,32.8819,94.0909,33.4708,104.3636,33.0098,114.6364,32.8422,124.9091,34.0343,135.1818,33.8335,145.4545,33.9654,155.7273,33.065,166,33.2969,166.1995,33.2969,165.9187,39.3563,166.2032,45.4156,165.948,51.475,166.0339,57.5344,166,63.5938,166,63.5168,155.7273,64.2992,145.4545,63.2183,135.1818,64.3069,124.9091,64.0719,114.6364,63.315,104.3636,63.9781,94.0909,63.4551,83.8182,63.6424,73.5455,62.9409,63.2727,63.2053,53,63.5938,53.1484,63.5938,53.0159,57.5344,52.7875,51.475,53.0629,45.4156,53.2437,39.3563,53,33.2969" style="stroke: #A80036; stroke-width: 1.5;"/><text fill="#000000" font-family="sans-serif" font-size="14" lengthAdjust="spacingAndGlyphs" textLength="99" x="60" y="53.292">ContentFolder</text><polygon fill="#FEFECE" filter="url(#f456fcj)" points="53,1023.9766,53,1024.4535,63.2727,1024.0224,73.5455,1023.2778,83.8182,1024.2958,94.0909,1024.5971,104.3636,1023.7399,114.6364,1023.3517,124.9091,1023.6389,135.1818,1024.1063,145.4545,1023.3698,155.7273,1024.1201,166,1023.9766,165.8011,1023.9766,165.8006,1030.0359,166.0621,1036.0953,165.8542,1042.1547,166.0017,1048.2141,166,1054.2734,166,1053.8998,155.7273,1053.5584,145.4545,1054.024,135.1818,1053.6048,124.9091,1053.7023,114.6364,1053.7469,104.3636,1053.6774,94.0909,1053.7293,83.8182,1054.9436,73.5455,1054.0374,63.2727,1054.0238,53,1054.2734,52.8549,1054.2734,53.0575,1048.2141,52.8918,1042.1547,52.8455,1036.0953,52.949,1030.0359,53,1023.9766" style="stroke: #A80036; stroke-width: 1.5;"/><text fill="#000000" font-family="sans-serif" font-size="14" lengthAdjust="spacingAndGlyphs" textLength="99" x="60" y="1043.9717">ContentFolder</text><polygon fill="#FEFECE" filter="url(#f456fcj)" points="180,33.2969,180,32.7248,189.75,33.3005,199.5,32.6092,209.25,32.5516,219,34.0103,228.75,32.8337,238.5,32.6613,248.25,33.2544,258,33.7737,267.75,33.3178,277.5,33.3704,287.25,33.0014,297,33.1805,306.75,33.5361,316.5,34.0144,326.25,32.9531,336,33.2969,335.8381,33.2969,335.9432,39.3563,335.94,45.4156,335.8497,51.475,335.9586,57.5344,336,63.5938,336,64.019,326.25,63.6425,316.5,63.3973,306.75,63.2475,297,63.4677,287.25,63.4932,277.5,63.4899,267.75,63.5549,258,64.2505,248.25,63.5582,238.5,63.5672,228.75,63.3474,219,63.798,209.25,63.5657,199.5,63.8909,189.75,63.1674,180,63.5938,179.86,63.5938,180.0005,57.5344,180.058,51.475,179.784,45.4156,179.9943,39.3563,180,33.2969" style="stroke: #A80036; stroke-width: 1.5;"/><text fill="#000000" font-family="sans-serif" font-size="14" lengthAdjust="spacingAndGlyphs" textLength="142" x="187" y="53.292">BcContentsBehavior</text><polygon fill="#FEFECE" filter="url(#f456fcj)" points="180,1023.9766,180,1023.8009,189.75,1024.5215,199.5,1023.6204,209.25,1023.6775,219,1023.6693,228.75,1024.3513,238.5,1023.8792,248.25,1024.0104,258,1024.5797,267.75,1024.3899,277.5,1023.6704,287.25,1023.769,297,1024.0639,306.75,1024.2476,316.5,1023.6148,326.25,1024.2479,336,1023.9766,336.1483,1023.9766,335.8621,1030.0359,335.9428,1036.0953,336.0292,1042.1547,336.0054,1048.2141,336,1054.2734,336,1054.1179,326.25,1054.2769,316.5,1054.249,306.75,1054.3801,297,1053.9175,287.25,1054.1535,277.5,1053.8047,267.75,1053.7934,258,1053.6718,248.25,1055.0072,238.5,1053.7706,228.75,1053.598,219,1054.8735,209.25,1053.8685,199.5,1054.2672,189.75,1054.251,180,1054.2734,180.1255,1054.2734,179.7586,1048.2141,180.0361,1042.1547,180.0855,1036.0953,180.2031,1030.0359,180,1023.9766" style="stroke: #A80036; stroke-width: 1.5;"/><text fill="#000000" font-family="sans-serif" font-size="14" lengthAdjust="spacingAndGlyphs" textLength="142" x="187" y="1043.9717">BcContentsBehavior</text><polygon fill="#FEFECE" filter="url(#f456fcj)" points="350,33.2969,350,33.6654,360,33.7645,370,33.9024,380,33.6934,390,32.6677,400,33.1327,410,32.7808,420,33.2969,419.8636,33.2969,419.8882,39.3563,419.9673,45.4156,419.8719,51.475,419.8514,57.5344,420,63.5938,420,63.8452,410,64.3326,400,64.2736,390,63.2279,380,63.9736,370,63.541,360,64.0418,350,63.5938,350.0601,63.5938,350.1731,57.5344,350.2406,51.475,350.0561,45.4156,350.2281,39.3563,350,33.2969" style="stroke: #A80036; stroke-width: 1.5;"/><text fill="#000000" font-family="sans-serif" font-size="14" lengthAdjust="spacingAndGlyphs" textLength="56" x="357" y="53.292">Content</text><polygon fill="#FEFECE" filter="url(#f456fcj)" points="350,1023.9766,350,1024.014,360,1023.9893,370,1024.5986,380,1023.8346,390,1023.3821,400,1023.5677,410,1024.7075,420,1023.9766,420.041,1023.9766,419.7726,1030.0359,420.2199,1036.0953,420.1227,1042.1547,419.8766,1048.2141,420,1054.2734,420,1054.5063,410,1054.9728,400,1054.9125,390,1054.2645,380,1054.3381,370,1053.7563,360,1054.6078,350,1054.2734,349.8179,1054.2734,349.843,1048.2141,349.8775,1042.1547,350.1712,1036.0953,349.9076,1030.0359,350,1023.9766" style="stroke: #A80036; stroke-width: 1.5;"/><text fill="#000000" font-family="sans-serif" font-size="14" lengthAdjust="spacingAndGlyphs" textLength="56" x="357" y="1043.9717">Content</text><polygon fill="#FFFFFF" filter="url(#f456fcj)" points="106.5,99.5938,106.5,99.6017,108.5,99.3454,110.5,99.3549,112.5,99.7892,114.5,99.7145,116.5,99.5938,117.0354,99.5938,116.2419,109.565,116.3832,119.5362,116.6998,129.5075,116.2337,139.4787,115.8179,149.4499,116.2061,159.4212,116.0971,169.3924,116.2831,179.3637,116.8059,189.3349,116.5292,199.3061,116.34,209.2774,116.1578,219.2486,116.8046,229.2199,116.1993,239.1911,116.8908,249.1623,115.839,259.1336,115.9988,269.1048,116.9399,279.0761,116.6828,289.0473,117.0824,299.0185,115.7853,308.9898,116.6741,318.961,116.8816,328.9323,115.7605,338.9035,117.1343,348.8747,117.0822,358.846,116.7265,368.8172,115.8283,378.7885,116.2915,388.7597,115.8787,398.7309,116.636,408.7022,115.9427,418.6734,116.477,428.6447,116.8082,438.6159,116.9061,448.5871,116.9461,458.5584,116.104,468.5296,116.3324,478.5009,116.057,488.4721,116.3095,498.4433,117.2479,508.4146,116.9037,518.3858,116.1871,528.3571,116.7208,538.3283,116.6231,548.2995,117.1009,558.2708,117.0723,568.242,116.2936,578.2133,116.1822,588.1845,116.729,598.1557,116.211,608.127,116.367,618.0982,117.141,628.0695,115.7726,638.0407,116.0511,648.0119,117.0658,657.9832,117.2442,667.9544,116.8259,677.9257,115.7513,687.8969,116.6894,697.8681,116.931,707.8394,115.817,717.8106,117.0222,727.7819,116.1029,737.7531,117.2277,747.7243,115.9799,757.6956,115.8671,767.6668,116.6109,777.638,116.1967,787.6093,116.6326,797.5805,116.8892,807.5518,116.3056,817.523,117.0941,827.4942,115.8608,837.4655,116.7619,847.4367,116.5911,857.408,117.0451,867.3792,117.2154,877.3504,116.9666,887.3217,116.0066,897.2929,116.5289,907.2642,115.9836,917.2354,116.9828,927.2066,117.0878,937.1779,116.2758,947.1491,116.0046,957.1204,115.7831,967.0916,116.329,977.0628,116.3178,987.0341,115.8599,997.0053,116.5,1006.9766,116.5,1006.8836,114.5,1007.0885,112.5,1006.7773,110.5,1006.8391,108.5,1007.218,106.5,1006.9766,105.9852,1006.9766,106.7729,997.0053,106.8329,987.0341,106.597,977.0628,106.8438,967.0916,106.9459,957.1204,106.0712,947.1491,107.2137,937.1779,107.2283,927.2066,106.5612,917.2354,107.2164,907.2642,106.941,897.2929,106.134,887.3217,107.1683,877.3504,106.0483,867.3792,105.7509,857.408,106.7933,847.4367,105.914,837.4655,106.4809,827.4942,106.7031,817.523,106.3765,807.5518,106.5348,797.5805,106.7209,787.6093,106.7584,777.638,106.7919,767.6668,105.8224,757.6956,106.8568,747.7243,105.7531,737.7531,106.1916,727.7819,105.8222,717.8106,106.357,707.8394,106.8061,697.8681,106.6488,687.8969,106.444,677.9257,106.3479,667.9544,106.9544,657.9832,106.0224,648.0119,105.9149,638.0407,105.8908,628.0695,106.4118,618.0982,105.7915,608.127,106.0788,598.1557,106.7751,588.1845,107.0225,578.2133,106.6018,568.242,105.9535,558.2708,106.5959,548.2995,106.741,538.3283,105.9326,528.3571,106.1883,518.3858,106.094,508.4146,105.8013,498.4433,106.1655,488.4721,107.1263,478.5009,106.8895,468.5296,106.6511,458.5584,105.9059,448.5871,106.5647,438.6159,106.8564,428.6447,106.7196,418.6734,107.1845,408.7022,106.023,398.7309,105.949,388.7597,107.1543,378.7885,107.147,368.8172,105.8771,358.846,106.3079,348.8747,106.3095,338.9035,107.0199,328.9323,106.0868,318.961,106.4467,308.9898,105.9954,299.0185,107.0276,289.0473,105.9486,279.0761,106.7431,269.1048,106.2987,259.1336,106.5229,249.1623,106.3357,239.1911,106.8358,229.2199,106.6671,219.2486,106.3848,209.2774,107.2426,199.3061,106.3611,189.3349,106.4108,179.3637,107.2331,169.3924,107.1405,159.4212,106.2428,149.4499,105.8097,139.4787,106.2058,129.5075,106.6621,119.5362,106.9906,109.565,106.5,99.5938" style="stroke: #A80036; stroke-width: 1.0;"/><polygon fill="#FFFFFF" filter="url(#f456fcj)" points="255,128.7266,255,128.6041,257,128.709,259,128.7189,261,128.9428,263,128.7492,265,128.7266,265.5576,128.7266,265.3906,138.6677,265.6793,148.6089,264.3349,158.5501,265.0626,168.4912,264.6942,178.4324,265.1661,188.3736,264.6018,198.3148,264.9733,208.2559,265.6277,218.1971,264.2656,228.1383,264.7543,238.0794,265.2162,248.0206,265.4619,257.9618,264.3428,267.903,265.575,277.8441,265.634,287.7853,264.6983,297.7265,264.6787,307.6676,264.9729,317.6088,264.3743,327.55,264.6917,337.4912,264.5491,347.4323,265.065,357.3735,264.8082,367.3147,265.1386,377.2558,265.3337,387.197,264.6547,397.1382,265.6446,407.0793,265.3461,417.0205,264.6306,426.9617,265.4707,436.9029,265.6375,446.844,264.9875,456.7852,264.6187,466.7264,265.4228,476.6675,265.213,486.6087,265.6756,496.5499,264.6329,506.4911,264.6132,516.4322,264.9807,526.3734,265.6374,536.3146,265.0897,546.2557,264.3883,556.1969,264.4298,566.1381,265.5519,576.0793,265.0294,586.0204,264.3516,595.9616,265.1546,605.9028,265.2222,615.8439,265.6209,625.7851,265.4659,635.7263,265.1959,645.6675,264.6873,655.6086,265.0101,665.5498,264.6618,675.491,265.0346,685.4321,265.1462,695.3733,264.3773,705.3145,264.7338,715.2556,265.4243,725.1968,265.1552,735.138,264.5119,745.0792,265.2505,755.0203,265.1022,764.9615,264.483,774.9027,265.1038,784.8438,264.7259,794.785,264.9774,804.7262,264.7552,814.6674,265.2969,824.6085,264.9014,834.5497,265.1533,844.4909,264.5968,854.432,265.3515,864.3732,265.6627,874.3144,265.1057,884.2556,264.8861,894.1967,264.5117,904.1379,264.876,914.0791,264.5046,924.0202,265.466,933.9614,264.8834,943.9026,265,953.8438,265,953.93,263,953.8561,261,953.9171,259,953.938,257,953.6159,255,953.8438,255.1608,953.8438,254.8111,943.9026,254.6304,933.9614,255.3638,924.0202,254.9945,914.0791,255.0926,904.1379,255.5305,894.1967,255.2219,884.2556,254.5311,874.3144,254.757,864.3732,255.1901,854.432,255.3244,844.4909,255.0393,834.5497,255.6491,824.6085,255.3088,814.6674,255.1974,804.7262,254.4073,794.785,254.8818,784.8438,254.4892,774.9027,255.0746,764.9615,255.2686,755.0203,254.9165,745.0792,255.1002,735.138,255.2953,725.1968,255.5422,715.2556,255.1317,705.3145,254.3518,695.3733,254.5905,685.4321,255.015,675.491,254.587,665.5498,254.6257,655.6086,254.3982,645.6675,254.7898,635.7263,255.7045,625.7851,255.3446,615.8439,255.4694,605.9028,254.3251,595.9616,254.9334,586.0204,255.3482,576.0793,255.2147,566.1381,255.3968,556.1969,255.6311,546.2557,254.8921,536.3146,255.0171,526.3734,254.6167,516.4322,254.3956,506.4911,254.4787,496.5499,255.5861,486.6087,255.6572,476.6675,254.4084,466.7264,254.2804,456.7852,254.354,446.844,255.0401,436.9029,255.0039,426.9617,255.4154,417.0205,255.4257,407.0793,254.2682,397.1382,254.6616,387.197,254.2957,377.2558,255.174,367.3147,255.6946,357.3735,254.9313,347.4323,254.6721,337.4912,255.2374,327.55,254.8504,317.6088,254.4394,307.6676,254.8642,297.7265,255.4169,287.7853,254.4744,277.8441,255.5895,267.903,254.9792,257.9618,254.7876,248.0206,254.7202,238.0794,254.8716,228.1383,255.6893,218.1971,255.2383,208.2559,255.4456,198.3148,254.8105,188.3736,254.8617,178.4324,255.6259,168.4912,255.127,158.5501,254.5417,148.6089,254.5049,138.6677,255,128.7266" style="stroke: #A80036; stroke-width: 1.0;"/><polygon fill="#FFFFFF" filter="url(#f456fcj)" points="382,529.4531,382,529.2155,384,529.5458,386,529.213,388,529.3292,390,529.2124,392,529.4531,391.7934,529.4531,392.5527,539.4001,392.688,549.347,392.425,559.2939,391.8846,569.2408,392.0118,579.1878,392.3261,589.1347,391.5567,599.0816,392.721,609.0286,391.8913,618.9755,392.1013,628.9224,392.1489,638.8693,391.5408,648.8163,391.7836,658.7632,392.343,668.7101,392.0663,678.6571,391.3503,688.604,391.3166,698.5509,392.1584,708.4978,391.5987,718.4448,391.8876,728.3917,392.0681,738.3386,391.9664,748.2856,391.5932,758.2325,392.2866,768.1794,392.6292,778.1263,392.732,788.0733,392.6632,798.0202,391.3406,807.9671,392,817.9141,392,817.7917,390,817.8563,388,817.8169,386,817.7244,384,817.6798,382,817.9141,381.6479,817.9141,381.3163,807.9671,382.5576,798.0202,381.5949,788.0733,381.7847,778.1263,382.0287,768.1794,381.9779,758.2325,381.5448,748.2856,382.1357,738.3386,381.945,728.3917,382.7392,718.4448,381.3486,708.4978,381.9431,698.5509,382.7072,688.604,381.8685,678.6571,382.1287,668.7101,381.7289,658.7632,382.5526,648.8163,382.1627,638.8693,381.9068,628.9224,382.5901,618.9755,381.3521,609.0286,381.9122,599.0816,382.1601,589.1347,382.7334,579.1878,382.3483,569.2408,381.9751,559.2939,381.3211,549.347,382.5053,539.4001,382,529.4531" style="stroke: #A80036; stroke-width: 1.0;"/><polygon fill="#A80036" points="94.5,95.5938,94.5861,95.8089,96.5512,96.5217,98.5554,97.3322,100.4394,97.8422,102.4822,98.7493,104.5,99.5938,104.549,99.7162,102.5586,100.5401,100.5229,101.251,98.4948,101.9807,96.5333,102.877,94.5,103.5938,94.3737,103.4675,95.2859,102.7797,95.9366,101.8304,96.8065,101.1002,97.7358,100.4295,98.5,99.5938,98.4221,99.5159,97.5786,98.6724,96.9281,98.0218,96.2584,97.3521,95.3152,96.4089,94.5,95.5938" style="stroke: #A80036; stroke-width: 1.0;"/><path d="M3,99.5938 L3,100.5126 L12.75,100.5372 L22.5,99.5393 L32.25,99.2976 L42,98.7261 L51.75,99.9574 L61.5,98.9917 L71.25,98.9545 L81,100.2368 L90.75,98.7042 L100.5,99.5938 " fill="none" style="stroke: #A80036; stroke-width: 1.0;"/><text fill="#000000" font-family="sans-serif" font-size="13" lengthAdjust="spacingAndGlyphs" textLength="24" x="10" y="94.6606">edit</text><polygon fill="#A80036" points="243,124.7266,242.9639,124.6364,245.0225,125.5828,246.9677,126.2458,249.0292,127.1994,250.914,127.7115,253,128.7266,253.0024,128.7327,251.024,129.5866,249.0571,130.4692,246.9515,131.0052,244.9228,131.7335,243,132.7266,243.0206,132.7472,243.8735,132.0001,244.6921,131.2187,245.5723,130.4989,246.1925,129.5191,247,128.7266,247.0734,128.8,246.1161,127.8427,245.3358,127.0624,244.7196,126.4462,243.65,125.3766,243,124.7266" style="stroke: #A80036; stroke-width: 1.0;"/><path d="M116.5,128.7266 L116.5,128.7463 L126.6923,129.4864 L136.8846,128.9244 L147.0769,129.6042 L157.2692,129.6703 L167.4615,127.936 L177.6538,129.0374 L187.8462,129.3144 L198.0385,128.7827 L208.2308,128.0701 L218.4231,127.7959 L228.6154,128.2034 L238.8077,128.2292 L249,128.7266 " fill="none" style="stroke: #A80036; stroke-width: 1.0;"/><text fill="#000000" font-family="sans-serif" font-size="13" lengthAdjust="spacingAndGlyphs" textLength="36" x="123.5" y="123.7935">setup</text><polygon fill="#FBFB77" filter="url(#f456fcj)" points="119,141.8594,119.2125,141.8594,118.7961,146.8594,118.8735,151.8594,119.0791,156.8594,118.8829,161.8594,119,166.8594,119,166.2058,128.9286,166.8496,138.8571,166.758,148.7857,167.1758,158.7143,166.392,168.6429,167.3777,178.5714,166.8217,188.5,167.3013,198.4286,166.3904,208.3571,166.4985,218.2857,166.3944,228.2143,167.5509,238.1429,166.4119,248.0714,167.4203,258,166.4168,267.9286,166.8811,277.8571,166.523,287.7857,166.3172,297.7143,166.4255,307.6429,166.2563,317.5714,166.4583,327.5,166.5885,337.4286,166.6156,347.3571,166.1581,357.2857,166.4481,367.2143,167.1597,377.1429,166.7223,387.0714,167.1423,397,166.8594,396.9638,166.8594,396.8711,163.8594,397.0383,160.8594,397.1808,157.8594,396.8513,154.8594,397,151.8594,396.9567,151.816,394.8996,149.759,393.1401,147.9995,391.0792,145.9386,389.1748,144.0342,387,141.8594,387,141.9202,377.0741,141.1846,367.1481,141.5836,357.2222,141.8943,347.2963,141.4505,337.3704,141.5403,327.4444,142.3912,317.5185,141.6306,307.5926,141.6435,297.6667,141.6846,287.7407,141.5866,277.8148,141.9494,267.8889,141.443,257.963,142.4023,248.037,141.2174,238.1111,141.6098,228.1852,141.1916,218.2593,142.4599,208.3333,142.1004,198.4074,142.4671,188.4815,141.6286,178.5556,142.5084,168.6296,142.3303,158.7037,141.6569,148.7778,141.7394,138.8519,141.4453,128.9259,141.1184,119,141.8594" style="stroke: #A80036; stroke-width: 1.0;"/><path d="M387,141.8594 L386.7389,141.8594 L387.3163,143.8594 L386.8122,145.8594 L386.8451,147.8594 L387.2895,149.8594 L387,151.8594 " fill="#FBFB77" style="stroke: #A80036; stroke-width: 1.0;"/><path d="M397,151.8594 L397,151.9852 L395,152.1601 L393,151.544 L391,151.7805 L389,151.8864 L387,151.8594 " fill="#FBFB77" style="stroke: #A80036; stroke-width: 1.0;"/><text fill="#000000" font-family="sans-serif" font-size="13" lengthAdjust="spacingAndGlyphs" textLength="257" x="125" y="158.9263">hasOneでコンテンツをフォルダに繋ぎこむ</text><polygon fill="#A80036" points="243,192.9922,242.9587,192.8889,245.0099,193.8169,247.085,194.8048,248.9555,195.2809,250.9251,196.005,253,196.9922,252.9235,196.801,250.9921,197.7724,248.9723,198.523,246.9352,199.2301,245.0907,200.419,243,200.9922,243.0247,201.0169,243.7343,200.1265,244.5435,199.3356,245.2758,198.4679,246.1852,197.7774,247,196.9922,246.8826,196.8748,246.3184,196.3105,245.4533,195.4455,244.7504,194.7426,243.9728,193.9649,243,192.9922" style="stroke: #A80036; stroke-width: 1.0;"/><path d="M116.5,196.9922 L116.5,197.1261 L126.6923,197.9387 L136.8846,196.4117 L147.0769,196.166 L157.2692,197.9015 L167.4615,196.3916 L177.6538,196.6333 L187.8462,197.0415 L198.0385,197.9058 L208.2308,196.986 L218.4231,196.3617 L228.6154,197.9567 L238.8077,197.5194 L249,196.9922 " fill="none" style="stroke: #A80036; stroke-width: 1.0;"/><text fill="#000000" font-family="sans-serif" font-size="13" lengthAdjust="spacingAndGlyphs" textLength="93" x="123.5" y="192.0591">beforeValidate</text><polygon fill="#FBFB77" filter="url(#f456fcj)" points="124,210.125,124.2665,210.125,124.2866,220.125,124.0364,230.125,124.1627,240.125,124.6395,250.125,123.259,260.125,124.0829,270.125,124,280.125,124,279.8739,133.9259,280.5008,143.8519,279.8153,153.7778,279.7179,163.7037,280.0524,173.6296,280.7607,183.5556,279.67,193.4815,280.5079,203.4074,280.2104,213.3333,280.2826,223.2593,279.5724,233.1852,280.0743,243.1111,280.7849,253.037,280.8147,262.963,280.2894,272.8889,279.5334,282.8148,279.8968,292.7407,280.0762,302.6667,280.026,312.5926,280.3873,322.5185,280.5335,332.4444,280.3884,342.3704,280.4528,352.2963,279.6889,362.2222,279.5729,372.1481,280.0612,382.0741,279.7405,392,280.125,391.4729,280.125,392.2061,270.125,392.518,260.125,392.31,250.125,391.9445,240.125,392.0416,230.125,392,220.125,391.9093,220.0343,390.1504,218.2754,387.9692,216.0942,386.0808,214.2058,383.9215,212.0465,382,210.125,382,209.4265,372.0769,210.5098,362.1538,210.6089,352.2308,210.4439,342.3077,209.604,332.3846,209.9441,322.4615,210.1613,312.5385,210.4955,302.6154,210.756,292.6923,210.4016,282.7692,210.3043,272.8462,210.3089,262.9231,210.3944,253,210.4026,243.0769,209.4979,233.1538,210.5627,223.2308,210.7581,213.3077,210.1968,203.3846,210.5375,193.4615,210.7956,183.5385,210.8145,173.6154,209.92,163.6923,210.6329,153.7692,210.8376,143.8462,210.1876,133.9231,209.6361,124,210.125" style="stroke: #A80036; stroke-width: 1.0;"/><path d="M382,210.125 L381.9999,210.125 L381.9215,212.125 L381.9445,214.125 L382.1701,216.125 L382.1109,218.125 L382,220.125 " fill="#FBFB77" style="stroke: #A80036; stroke-width: 1.0;"/><path d="M392,220.125 L392,220.4191 L390,220.1603 L388,220.0115 L386,219.9544 L384,219.9437 L382,220.125 " fill="#FBFB77" style="stroke: #A80036; stroke-width: 1.0;"/><text fill="#000000" font-family="sans-serif" font-size="13" lengthAdjust="spacingAndGlyphs" textLength="130" x="130" y="227.1919">・コンテンツの初期化</text><text fill="#000000" font-family="sans-serif" font-size="13" lengthAdjust="spacingAndGlyphs" textLength="182" x="130" y="242.3247">・コンテンツのバリデーション</text><text fill="#000000" font-family="sans-serif" font-size="13" lengthAdjust="spacingAndGlyphs" textLength="182" x="130" y="257.4575">・バリデーション結果のマージ</text><text fill="#000000" font-family="sans-serif" font-size="13" lengthAdjust="spacingAndGlyphs" textLength="247" x="130" y="272.5903">・バリデーション後のコンテンツのマージ</text><polygon fill="#A80036" points="127.5,291.6563,127.5797,291.8556,125.4643,292.367,123.5331,293.3391,121.4743,293.992,119.4946,294.8428,117.5,295.6563,117.455,295.5437,119.5437,296.5654,121.5203,297.3071,123.5623,298.212,125.531,298.9339,127.5,299.6563,127.3346,299.4909,126.739,298.8953,125.849,298.0052,125.139,297.2953,124.2271,296.3833,123.5,295.6563,123.5889,295.7452,124.306,294.8623,124.9985,293.9547,125.9791,293.3353,126.7907,292.5469,127.5,291.6563" style="stroke: #A80036; stroke-width: 1.0;"/><path d="M121.5,295.6563 L121.5,296.416 L131.6923,296.2847 L141.8846,295.2466 L152.0769,296.2064 L162.2692,295.401 L172.4615,296.5373 L182.6538,294.8986 L192.8462,295.0856 L203.0385,295.3476 L213.2308,295.9232 L223.4231,295.4544 L233.6154,295.1079 L243.8077,296.1279 L254,295.6563 " fill="none" style="stroke: #A80036; stroke-width: 1.0;"/><polygon fill="#A80036" points="243,320.6563,242.971,320.5838,245.0436,321.5653,246.9341,322.0914,248.9227,322.8631,250.9941,323.8416,253,324.6563,253.0778,324.8507,250.9634,325.3648,248.9168,326.0482,247.0366,327.1478,244.9936,327.8404,243,328.6563,242.9785,328.6348,243.7712,327.8275,244.6571,327.1133,245.3823,326.2386,246.2008,325.457,247,324.6563,246.9519,324.6081,246.338,323.9942,245.3405,322.9968,244.7365,322.3928,243.6698,321.326,243,320.6563" style="stroke: #A80036; stroke-width: 1.0;"/><path d="M116.5,324.6563 L116.5,325.3344 L126.6923,324.9197 L136.8846,323.9283 L147.0769,325.5069 L157.2692,325.1018 L167.4615,324.4923 L177.6538,325.3606 L187.8462,323.8757 L198.0385,323.7909 L208.2308,324.9735 L218.4231,325.5571 L228.6154,324.6387 L238.8077,324.2633 L249,324.6563 " fill="none" style="stroke: #A80036; stroke-width: 1.0;"/><text fill="#000000" font-family="sans-serif" font-size="13" lengthAdjust="spacingAndGlyphs" textLength="73" x="123.5" y="319.7231">beforeSave</text><polygon fill="#FBFB77" filter="url(#f456fcj)" points="130,337.7891,130.0227,337.7891,130.0362,345.7891,130.0542,353.7891,129.9241,361.7891,130.2087,369.7891,130,377.7891,130,378.2349,139.8077,377.9398,149.6154,378.4822,159.4231,378.3957,169.2308,378.3679,179.0385,377.5142,188.8462,378.1402,198.6538,378.341,208.4615,377.1619,218.2692,378.3978,228.0769,378.2741,237.8846,378.0155,247.6923,377.0545,257.5,377.2712,267.3077,377.1705,277.1154,377.0981,286.9231,377.7114,296.7308,377.5799,306.5385,378.4593,316.3462,377.3524,326.1538,378.0767,335.9615,377.7727,345.7692,377.4352,355.5769,378.1844,365.3846,378.4148,375.1923,378.2706,385,377.7891,385.0923,377.7891,385.1383,371.7891,385.1612,365.7891,384.8498,359.7891,384.8723,353.7891,385,347.7891,384.829,347.618,382.9798,345.7688,380.9552,343.7442,379.0559,341.8449,376.9232,339.7122,375,337.7891,375,337.5856,365.2,338.2096,355.4,337.783,345.6,337.7696,335.8,337.9407,326,337.7011,316.2,337.8019,306.4,338.222,296.6,337.2937,286.8,337.6524,277,337.9179,267.2,338.1631,257.4,338.3546,247.6,337.7727,237.8,337.5213,228,337.1615,218.2,337.0956,208.4,338.0399,198.6,338.2848,188.8,337.2672,179,338.1834,169.2,338.3424,159.4,337.6065,149.6,338.4738,139.8,337.1836,130,337.7891" style="stroke: #A80036; stroke-width: 1.0;"/><path d="M375,337.7891 L374.8989,337.7891 L375.0004,339.7891 L375.2017,341.7891 L375.0902,343.7891 L374.754,345.7891 L375,347.7891 " fill="#FBFB77" style="stroke: #A80036; stroke-width: 1.0;"/><path d="M385,347.7891 L385,347.8805 L383,347.7432 L381,347.6905 L379,347.8103 L377,348.0327 L375,347.7891 " fill="#FBFB77" style="stroke: #A80036; stroke-width: 1.0;"/><text fill="#000000" font-family="sans-serif" font-size="13" lengthAdjust="spacingAndGlyphs" textLength="234" x="136" y="354.856">・コンテンツのバリデーションチェック</text><text fill="#000000" font-family="sans-serif" font-size="13" lengthAdjust="spacingAndGlyphs" textLength="156" x="136" y="369.9888">・エラーが出ていれば終了</text><polygon fill="#A80036" points="127.5,389.0547,127.5489,389.177,125.43,389.6798,123.5648,390.8168,121.4251,391.2674,119.5729,392.4369,117.5,393.0547,117.5917,393.2839,119.5672,394.0226,121.4259,394.4694,123.4692,395.3776,125.4876,396.2236,127.5,397.0547,127.5961,397.1508,126.8562,396.4109,126.0478,395.6025,125.2034,394.7581,124.3743,393.929,123.5,393.0547,123.6196,393.1743,124.1362,392.0909,125.2225,391.5772,126.0265,390.7811,126.5687,389.7234,127.5,389.0547" style="stroke: #A80036; stroke-width: 1.0;"/><path d="M121.5,393.0547 L121.5,392.5955 L131.6923,393.4295 L141.8846,393.3799 L152.0769,393.8205 L162.2692,393.4165 L172.4615,392.7623 L182.6538,393.0617 L192.8462,393.6657 L203.0385,392.6745 L213.2308,392.8486 L223.4231,393.0626 L233.6154,392.8111 L243.8077,393.3002 L254,393.0547 " fill="none" style="stroke: #A80036; stroke-width: 1.0;"/><polygon fill="#FBFB77" filter="url(#f456fcj)" points="8,406.0547,7.82,406.0547,7.7623,411.0547,8.1136,416.0547,8.1607,421.0547,8.0721,426.0547,8,431.0547,8,431.2698,18.15,430.9709,28.3,430.449,38.45,430.8824,48.6,430.596,58.75,431.1469,68.9,430.308,79.05,430.812,89.2,431.2931,99.35,430.4036,109.5,430.6523,119.65,431.203,129.8,430.9069,139.95,431.418,150.1,430.4643,160.25,431.5049,170.4,430.8996,180.55,431.4465,190.7,430.5111,200.85,430.9768,211,431.0547,211.1187,431.0547,210.885,428.0547,211.246,425.0547,211.1869,422.0547,211.1534,419.0547,211,416.0547,210.9304,415.9851,208.8805,413.9352,207.1051,412.1598,204.8465,409.9012,203.0402,408.0949,201,406.0547,201,406.1548,190.8421,406.0705,180.6842,405.9836,170.5263,406.0927,160.3684,405.6185,150.2105,405.9406,140.0526,406.6384,129.8947,406.2277,119.7368,406.6238,109.5789,405.5585,99.4211,405.8634,89.2632,406.7885,79.1053,406.3992,68.9474,406.242,58.7895,406.1551,48.6316,405.3774,38.4737,405.8319,28.3158,405.4844,18.1579,406.4023,8,406.0547" style="stroke: #A80036; stroke-width: 1.0;"/><path d="M201,406.0547 L200.691,406.0547 L201.1702,408.0547 L201.1182,410.0547 L200.7973,412.0547 L200.8243,414.0547 L201,416.0547 " fill="#FBFB77" style="stroke: #A80036; stroke-width: 1.0;"/><path d="M211,416.0547 L211,415.9857 L209,416.0489 L207,416.0188 L205,416.0602 L203,415.789 L201,416.0547 " fill="#FBFB77" style="stroke: #A80036; stroke-width: 1.0;"/><text fill="#000000" font-family="sans-serif" font-size="13" lengthAdjust="spacingAndGlyphs" textLength="182" x="14" y="423.1216">・コンテンツフォルダーを保存</text><polygon fill="#A80036" points="243,457.1875,243.0689,457.3596,244.9463,457.8532,247.0704,458.9635,248.9856,459.5516,251.0285,460.4588,253,461.1875,253.0392,461.2855,250.9362,461.8279,249.0197,462.8369,247.0138,463.622,245.0023,464.3931,243,465.1875,243.1739,465.3614,243.964,464.5515,244.5198,463.5073,245.2658,462.6533,246.2081,461.9956,247,461.1875,246.8335,461.021,246.2186,460.4061,245.4653,459.6528,244.6387,458.8262,243.7778,457.9653,243,457.1875" style="stroke: #A80036; stroke-width: 1.0;"/><path d="M116.5,461.1875 L116.5,460.4504 L126.6923,461.801 L136.8846,461.8266 L147.0769,462.1429 L157.2692,461.1835 L167.4615,461.4026 L177.6538,461.5011 L187.8462,461.7328 L198.0385,461.2856 L208.2308,461.7699 L218.4231,460.3434 L228.6154,462.1618 L238.8077,461.1706 L249,461.1875 " fill="none" style="stroke: #A80036; stroke-width: 1.0;"/><text fill="#000000" font-family="sans-serif" font-size="13" lengthAdjust="spacingAndGlyphs" textLength="62" x="123.5" y="456.2544">afterSave</text><polygon fill="#FBFB77" filter="url(#f456fcj)" points="195,474.3203,195.0114,474.3203,194.8199,479.3203,195.2037,484.3203,194.7501,489.3203,194.9849,494.3203,195,499.3203,195,499.4768,204.6154,499.5009,214.2308,499.8585,223.8462,499.1172,233.4615,499.4036,243.0769,499.9162,252.6923,498.9645,262.3077,499.9587,271.9231,499.3382,281.5385,498.8879,291.1538,499.5221,300.7692,499.9364,310.3846,498.8395,320,499.3203,319.8182,499.3203,319.8448,496.3203,319.999,493.3203,320.1802,490.3203,320.0622,487.3203,320,484.3203,320.0361,484.3564,317.8463,482.1666,316.0446,480.3649,314.1528,478.4731,312.157,476.4773,310,474.3203,310,474.7585,300.4167,474.5872,290.8333,473.7849,281.25,474.5022,271.6667,474.0638,262.0833,474.8313,252.5,474.2212,242.9167,474.0015,233.3333,473.6646,223.75,474.9148,214.1667,474.1308,204.5833,474.6364,195,474.3203" style="stroke: #A80036; stroke-width: 1.0;"/><path d="M310,474.3203 L309.8454,474.3203 L309.9463,476.3203 L310.1052,478.3203 L309.8392,480.3203 L310.105,482.3203 L310,484.3203 " fill="#FBFB77" style="stroke: #A80036; stroke-width: 1.0;"/><path d="M320,484.3203 L320,484.6352 L318,484.4998 L316,484.0524 L314,484.3461 L312,484.5977 L310,484.3203 " fill="#FBFB77" style="stroke: #A80036; stroke-width: 1.0;"/><text fill="#000000" font-family="sans-serif" font-size="13" lengthAdjust="spacingAndGlyphs" textLength="104" x="201" y="491.3872">コンテンツの生成</text><polygon fill="#A80036" points="370,525.4531,369.9271,525.2709,371.9698,526.1777,374.0835,527.2619,376.042,527.958,377.9359,528.4929,380,529.4531,379.9452,529.3161,378.0511,530.381,376.0058,531.0676,373.9505,531.7295,372.0795,532.8519,370,533.4531,370.1584,533.6115,370.8609,532.714,371.5551,531.8082,372.3216,530.9747,373.1663,530.2194,374,529.4531,373.9439,529.397,373.2817,528.7348,372.4908,527.9439,371.6051,527.0582,370.9316,526.3847,370,525.4531" style="stroke: #A80036; stroke-width: 1.0;"/><path d="M265,529.4531 L265,530.2872 L275.0909,528.7273 L285.1818,528.8306 L295.2727,530.3888 L305.3636,529.2888 L315.4545,529.4941 L325.5455,530.202 L335.6364,528.6181 L345.7273,528.8138 L355.8182,528.946 L365.9091,528.5738 L376,529.4531 " fill="none" style="stroke: #A80036; stroke-width: 1.0;"/><text fill="#000000" font-family="sans-serif" font-size="13" lengthAdjust="spacingAndGlyphs" textLength="30" x="272" y="524.52">save</text><path d="M392,558.7188 L392,558.6115 L400.4,558.5135 L408.8,558.9695 L417.2,558.9547 L425.6,558.8721 L434,558.7188 " fill="none" style="stroke: #A80036; stroke-width: 1.0;"/><path d="M434,558.7188 L434.1228,558.7188 L433.7224,561.3188 L434.0378,563.9188 L434.2977,566.5188 L433.8769,569.1188 L434,571.7188 " fill="none" style="stroke: #A80036; stroke-width: 1.0;"/><path d="M393,571.7188 L393,571.7945 L401.2,571.4016 L409.4,572.045 L417.6,571.6604 L425.8,571.7271 L434,571.7188 " fill="none" style="stroke: #A80036; stroke-width: 1.0;"/><polygon fill="#A80036" points="403,567.7188,403.0763,567.9096,401.0463,568.6345,398.9099,569.0934,397.0184,570.1647,395.0357,571.0081,393,571.7188,393.0907,571.9456,394.9295,572.3425,397.0245,573.38,399.0205,574.17,401.0238,574.9781,403,575.7188,402.8771,575.5959,402.316,575.0348,401.3704,574.0892,400.7502,573.4689,399.7076,572.4263,399,571.7188,398.9323,571.651,399.969,571.0877,400.4376,569.9563,401.3859,569.3047,402.2651,568.5838,403,567.7188" style="stroke: #A80036; stroke-width: 1.0;"/><text fill="#000000" font-family="sans-serif" font-size="13" lengthAdjust="spacingAndGlyphs" textLength="93" x="399" y="553.6528">beforeValidate</text><polygon fill="#FBFB77" filter="url(#f456fcj)" points="277,584.7188,276.9722,584.7188,277.1666,594.3021,277.37,603.8854,276.7969,613.4688,276.3845,623.0521,276.6745,632.6354,277.1186,642.2188,276.5978,651.8021,277.032,661.3854,277.3571,670.9688,276.4482,680.5521,276.4485,690.1354,277,699.7188,277,699.0912,286.8182,699.7284,296.6364,700.3296,306.4545,699.19,316.2727,699.2917,326.0909,700.2784,335.9091,699.4356,345.7273,700.2271,355.5455,699.9578,365.3636,699.5587,375.1818,700.466,385,699.8916,394.8182,700.0903,404.6364,700.4332,414.4545,699.1622,424.2727,699.0282,434.0909,699.5168,443.9091,699.1867,453.7273,698.9773,463.5455,699.3984,473.3636,699.6612,483.1818,700.4101,493,699.7188,493.4664,699.7188,492.3437,690.1733,493.6224,680.6278,492.5273,671.0824,492.8844,661.5369,492.4577,651.9915,493.5869,642.446,493.111,632.9006,492.9823,623.3551,492.5179,613.8097,493.2377,604.2642,493,594.7188,493.0789,594.7976,490.8624,592.5811,489.1145,590.8332,486.8607,588.5795,485.0448,586.7636,483,584.7188,483,584.9671,473.1905,585.4165,463.381,585.4361,453.5714,584.1124,443.7619,584.5101,433.9524,585.2424,424.1429,584.0446,414.3333,584.4942,404.5238,584.3512,394.7143,584.0785,384.9048,584.2379,375.0952,584.7495,365.2857,584.7079,355.4762,584.9802,345.6667,584.4379,335.8571,584.5748,326.0476,584.7859,316.2381,584.5198,306.4286,584.2431,296.619,584.9844,286.8095,584.3069,277,584.7188" style="stroke: #A80036; stroke-width: 1.0;"/><path d="M483,584.7188 L483.0473,584.7188 L483.0042,586.7188 L483.2106,588.7188 L482.8172,590.7188 L482.7676,592.7188 L483,594.7188 " fill="#FBFB77" style="stroke: #A80036; stroke-width: 1.0;"/><path d="M493,594.7188 L493,594.438 L491,594.5609 L489,594.9359 L487,594.9395 L485,594.5176 L483,594.7188 " fill="#FBFB77" style="stroke: #A80036; stroke-width: 1.0;"/><text fill="#000000" font-family="sans-serif" font-size="13" lengthAdjust="spacingAndGlyphs" textLength="91" x="283" y="601.7856">・タイトル整形</text><text fill="#000000" font-family="sans-serif" font-size="13" lengthAdjust="spacingAndGlyphs" textLength="104" x="283" y="616.9185">・更新日のセット</text><text fill="#000000" font-family="sans-serif" font-size="13" lengthAdjust="spacingAndGlyphs" textLength="77" x="283" y="632.0513">・URLの整形</text><text fill="#000000" font-family="sans-serif" font-size="13" lengthAdjust="spacingAndGlyphs" textLength="156" x="283" y="647.1841">・トップフォルダの場合に</text><text fill="#000000" font-family="sans-serif" font-size="13" lengthAdjust="spacingAndGlyphs" textLength="155" x="283" y="662.3169">URLバリデーションを除外</text><text fill="#000000" font-family="sans-serif" font-size="13" lengthAdjust="spacingAndGlyphs" textLength="129" x="283" y="677.4497">・URLの重複チェック</text><text fill="#000000" font-family="sans-serif" font-size="13" lengthAdjust="spacingAndGlyphs" textLength="195" x="283" y="692.5825">（重複していた場合は自動生成）</text><path d="M392,730.7813 L392,731.0342 L400.4,730.679 L408.8,731.0771 L417.2,730.6812 L425.6,730.7332 L434,730.7813 " fill="none" style="stroke: #A80036; stroke-width: 1.0;"/><path d="M434,730.7813 L434.1832,730.7813 L434.1094,733.3813 L433.7112,735.9813 L434.1915,738.5813 L434.2108,741.1813 L434,743.7813 " fill="none" style="stroke: #A80036; stroke-width: 1.0;"/><path d="M393,743.7813 L393,743.4611 L401.2,743.6626 L409.4,743.9384 L417.6,743.749 L425.8,744.0307 L434,743.7813 " fill="none" style="stroke: #A80036; stroke-width: 1.0;"/><polygon fill="#A80036" points="403,739.7813,403.0413,739.8844,401.0048,740.5933,399.0611,741.5341,397.0341,742.2665,394.9355,742.8199,393,743.7813,392.9189,743.5784,394.9217,744.3855,396.9361,745.2215,398.9771,746.1239,400.965,746.8937,403,747.7813,402.9402,747.7214,402.3714,747.1527,401.3689,746.1501,400.6281,745.4093,399.9497,744.731,399,743.7813,399.035,743.8163,399.7261,742.9074,400.6325,742.2138,401.3627,741.344,402.1459,740.5271,403,739.7813" style="stroke: #A80036; stroke-width: 1.0;"/><text fill="#000000" font-family="sans-serif" font-size="13" lengthAdjust="spacingAndGlyphs" textLength="73" x="399" y="725.7153">beforeSave</text><polygon fill="#FBFB77" filter="url(#f456fcj)" points="283,756.7813,282.7857,756.7813,283.1078,761.7813,283.0051,766.7813,283.1214,771.7813,283.0956,776.7813,283,781.7813,283,781.6258,293.15,781.2341,303.3,781.5094,313.45,781.708,323.6,782.1907,333.75,781.5181,343.9,781.4321,354.05,781.897,364.2,781.8588,374.35,781.8173,384.5,781.6569,394.65,781.6913,404.8,781.8892,414.95,781.4366,425.1,781.2779,435.25,781.9567,445.4,781.1117,455.55,781.3786,465.7,782.1911,475.85,781.0987,486,781.7813,485.8989,781.7813,486.1831,778.7813,486.2388,775.7813,485.777,772.7813,486.0556,769.7813,486,766.7813,485.953,766.7342,483.8406,764.6219,481.851,762.6322,479.9791,760.7603,478.1529,758.9341,476,756.7813,476,756.7025,465.8421,756.5026,455.6842,756.2507,445.5263,757.1333,435.3684,757.2885,425.2105,756.8451,415.0526,756.7606,404.8947,756.4236,394.7368,757.019,384.5789,757.1477,374.4211,757.194,364.2632,757.5033,354.1053,756.8028,343.9474,756.0592,333.7895,757.1653,323.6316,756.8116,313.4737,756.8126,303.3158,757.0312,293.1579,756.8525,283,756.7813" style="stroke: #A80036; stroke-width: 1.0;"/><path d="M476,756.7813 L476.1679,756.7813 L475.831,758.7813 L475.7467,760.7813 L476.0355,762.7813 L475.9188,764.7813 L476,766.7813 " fill="#FBFB77" style="stroke: #A80036; stroke-width: 1.0;"/><path d="M486,766.7813 L486,766.5691 L484,766.9037 L482,767.0961 L480,766.9327 L478,766.875 L476,766.7813 " fill="#FBFB77" style="stroke: #A80036; stroke-width: 1.0;"/><text fill="#000000" font-family="sans-serif" font-size="13" lengthAdjust="spacingAndGlyphs" textLength="182" x="289" y="773.8481">変更前の親コンテンツIDを取得</text><path d="M392,817.0469 L392,817.2593 L400.4,817.0556 L408.8,817.1202 L417.2,817.1821 L425.6,817.3235 L434,817.0469 " fill="none" style="stroke: #A80036; stroke-width: 1.0;"/><path d="M434,817.0469 L433.7379,817.0469 L433.7764,819.6469 L433.8173,822.2469 L433.8009,824.8469 L434.2081,827.4469 L434,830.0469 " fill="none" style="stroke: #A80036; stroke-width: 1.0;"/><path d="M387,830.0469 L387,830.3799 L396.4,829.2401 L405.8,830.2475 L415.2,830.5212 L424.6,829.6692 L434,830.0469 " fill="none" style="stroke: #A80036; stroke-width: 1.0;"/><polygon fill="#A80036" points="397,826.0469,397.0464,826.1628,395.0867,827.0636,393.0257,827.7112,391.0856,828.6609,389.0108,829.2739,387,830.0469,386.9545,829.9332,389.079,831.0444,391.058,831.7919,393.092,832.677,395.041,833.3493,397,834.0469,396.8494,833.8962,396.3297,833.3765,395.395,832.4419,394.5319,831.5788,393.9604,831.0073,393,830.0469,393.1715,830.2184,393.8317,829.2786,394.733,828.5799,395.3269,827.5738,396.0844,826.7313,397,826.0469" style="stroke: #A80036; stroke-width: 1.0;"/><text fill="#000000" font-family="sans-serif" font-size="13" lengthAdjust="spacingAndGlyphs" textLength="62" x="399" y="811.981">afterSave</text><polygon fill="#FBFB77" filter="url(#f456fcj)" points="257,838.0469,257.1908,838.0469,257.6045,848.0469,256.9099,858.0469,257.1189,868.0469,256.2651,878.0469,257.3351,888.0469,257.3443,898.0469,256.9892,908.0469,256.914,918.0469,256.7186,928.0469,257,938.0469,257,937.5286,266.8077,937.8902,276.6154,938.4428,286.4231,938.7491,296.2308,938.2125,306.0385,938.6048,315.8462,938.085,325.6538,937.4786,335.4615,938.5181,345.2692,938.6212,355.0769,937.9692,364.8846,938.5088,374.6923,937.3217,384.5,938.1865,394.3077,938.2987,404.1154,937.506,413.9231,938.6176,423.7308,938.1763,433.5385,937.5314,443.3462,937.816,453.1538,937.8443,462.9615,938.6792,472.7692,938.6685,482.5769,938.366,492.3846,937.5081,502.1923,937.3943,512,938.0469,511.9239,938.0469,512.6103,928.0469,512.7037,918.0469,511.6841,908.0469,512.2847,898.0469,512.5522,888.0469,512.1478,878.0469,512.23,868.0469,512.5282,858.0469,512,848.0469,512.021,848.0679,509.8511,845.8979,507.881,843.9279,506.1217,842.1686,503.9928,840.0397,502,838.0469,502,838.7224,492.2,837.5745,482.4,838.1883,472.6,838.6584,462.8,838.1237,453,838.1862,443.2,837.6022,433.4,837.8758,423.6,838.3133,413.8,838.1244,404,837.3798,394.2,838.7324,384.4,837.3832,374.6,837.5731,364.8,838.7456,355,837.514,345.2,838.091,335.4,838.3715,325.6,837.4975,315.8,838.2179,306,838.008,296.2,838.7922,286.4,837.3458,276.6,838.5811,266.8,838.6828,257,838.0469" style="stroke: #A80036; stroke-width: 1.0;"/><path d="M502,838.0469 L502.0367,838.0469 L502.0012,840.0469 L501.7535,842.0469 L502.2422,844.0469 L502.0729,846.0469 L502,848.0469 " fill="#FBFB77" style="stroke: #A80036; stroke-width: 1.0;"/><path d="M512,848.0469 L512,847.7909 L510,847.8736 L508,848.0784 L506,848.1428 L504,848.0214 L502,848.0469 " fill="#FBFB77" style="stroke: #A80036; stroke-width: 1.0;"/><text fill="#000000" font-family="sans-serif" font-size="13" lengthAdjust="spacingAndGlyphs" textLength="169" x="263" y="855.1138">・関連するキャッシュを削除</text><text fill="#000000" font-family="sans-serif" font-size="13" lengthAdjust="spacingAndGlyphs" textLength="143" x="263" y="870.2466">・システムデータを更新</text><text fill="#000000" font-family="sans-serif" font-size="13" lengthAdjust="spacingAndGlyphs" textLength="130" x="263" y="885.3794">・子コンテンツの更新</text><text fill="#000000" font-family="sans-serif" font-size="13" lengthAdjust="spacingAndGlyphs" textLength="234" x="263" y="900.5122">・別サイトの関連するコンテンツを更新</text><text fill="#000000" font-family="sans-serif" font-size="13" lengthAdjust="spacingAndGlyphs" textLength="234" x="263" y="915.645">・親コンテンツが変更となった場合は、</text><text fill="#000000" font-family="sans-serif" font-size="13" lengthAdjust="spacingAndGlyphs" textLength="143" x="263" y="930.7778">最終並び替え日時を更新</text><polygon fill="#A80036" points="271,949.8438,271.0086,949.8652,268.9436,950.5028,266.9717,951.3731,264.9463,952.1096,263.0744,953.2296,261,953.8438,260.9395,953.6925,263.0682,954.8142,265.0685,955.615,267.0829,956.4511,269.0406,957.1452,271,957.8438,270.9739,957.8176,270.2962,957.14,269.3856,956.2293,268.5969,955.4407,267.7874,954.6311,267,953.8438,266.9419,953.7856,267.6523,952.8961,268.6387,952.2825,269.3975,951.4412,270.2659,950.7096,271,949.8438" style="stroke: #A80036; stroke-width: 1.0;"/><path d="M265,953.8438 L265,954.836 L275.0833,953.7389 L285.1667,954.6177 L295.25,954.2055 L305.3333,954.1879 L315.4167,953.5333 L325.5,954.5059 L335.5833,954.6013 L345.6667,954.7924 L355.75,953.6653 L365.8333,954.0235 L375.9167,953.5277 L386,953.8438 " fill="none" style="stroke: #A80036; stroke-width: 1.0;"/><polygon fill="#FBFB77" filter="url(#f456fcj)" points="168,966.8438,167.9688,966.8438,168.2021,971.8438,167.8529,976.8438,167.8224,981.8438,168.0444,986.8438,168,991.8438,168,991.3289,178,992.0293,188,991.4093,198,992.1208,208,992.1971,218,991.2556,228,991.9114,238,991.4218,248,991.7976,258,992.0725,268,991.2577,278,992.5729,288,991.2779,298,992.4266,308,991.7779,318,991.7223,328,992.409,338,992.2437,348,991.8438,348.1881,991.8438,347.8885,988.8438,347.9307,985.8438,347.7652,982.8438,347.8068,979.8438,348,976.8438,348.0473,976.891,346.1081,974.9518,343.8981,972.7419,342.0939,970.9376,339.9716,968.8153,338,966.8438,338,967.4354,328,966.9223,318,966.4547,308,966.9409,298,966.3538,288,967.4528,278,967.0491,268,966.1658,258,966.5584,248,966.5345,238,966.243,228,967.4148,218,966.3998,208,966.6411,198,966.3078,188,966.4663,178,967.3735,168,966.8438" style="stroke: #A80036; stroke-width: 1.0;"/><path d="M338,966.8438 L338.0494,966.8438 L337.7044,968.8438 L338.1318,970.8438 L338.3258,972.8438 L337.9378,974.8438 L338,976.8438 " fill="#FBFB77" style="stroke: #A80036; stroke-width: 1.0;"/><path d="M348,976.8438 L348,977.0977 L346,976.7682 L344,977.082 L342,976.826 L340,976.8449 L338,976.8438 " fill="#FBFB77" style="stroke: #A80036; stroke-width: 1.0;"/><text fill="#000000" font-family="sans-serif" font-size="13" lengthAdjust="spacingAndGlyphs" textLength="159" x="174" y="983.9106">生成後のContent をマージ</text><polygon fill="#A80036" points="122.5,1002.9766,122.4104,1002.7526,120.4205,1003.5777,118.548,1004.6965,116.4494,1005.25,114.4332,1006.0097,112.5,1006.9766,112.4518,1006.8562,114.543,1007.884,116.5389,1008.6738,118.4174,1009.1701,120.4233,1009.9849,122.5,1010.9766,122.4764,1010.953,121.6337,1010.1103,120.9153,1009.3919,120.2688,1008.7453,119.1267,1007.6033,118.5,1006.9766,118.6714,1007.148,119.1729,1006.0495,120.0031,1005.2797,120.901,1004.5776,121.6495,1003.7261,122.5,1002.9766" style="stroke: #A80036; stroke-width: 1.0;"/><path d="M116.5,1006.9766 L116.5,1007.1802 L126.6786,1006.3604 L136.8571,1006.0057 L147.0357,1006.339 L157.2143,1007.2301 L167.3929,1006.0932 L177.5714,1007.2362 L187.75,1006.6433 L197.9286,1007.5606 L208.1071,1006.5352 L218.2857,1007.423 L228.4643,1006.8397 L238.6429,1007.9575 L248.8214,1007.9564 L259,1006.9766 " fill="none" style="stroke: #A80036; stroke-width: 1.0;"/></g></svg>