<?xml version="1.0" encoding="UTF-8" standalone="no"?><svg xmlns="http://www.w3.org/2000/svg" xmlns:xlink="http://www.w3.org/1999/xlink" contentScriptType="application/ecmascript" contentStyleType="text/css" height="261px" preserveAspectRatio="none" style="width:384px;height:261px;" version="1.1" viewBox="0 0 384 261" width="384px" zoomAndPan="magnify"><defs><filter height="300%" id="fdkc0cz" width="300%" x="-1" y="-1"><feGaussianBlur result="blurOut" stdDeviation="2.0"/><feColorMatrix in="blurOut" result="blurOut2" type="matrix" values="0 0 0 0 0 0 0 0 0 0 0 0 0 0 0 0 0 0 .4 0"/><feOffset dx="4.0" dy="4.0" in="blurOut2" result="blurOut3"/><feBlend in="SourceGraphic" in2="blurOut3" mode="normal"/></filter></defs><g><text fill="#000000" font-family="sans-serif" font-size="18" lengthAdjust="spacingAndGlyphs" textLength="378" x="5" y="17.4023">ユースケース：アップロードファイルカテゴリ</text><!--cluster アップロードファイルカテゴリ--><polygon fill="#FFFFFF" filter="url(#fdkc0cz)" points="92,45.1992,92,45.6657,102.1,44.5605,112.2,45.5794,122.3,44.7784,132.4,45.5803,142.5,44.9475,152.6,45.244,162.7,45.7281,172.8,45.1031,182.9,44.8304,193,45.585,203.1,45.6344,213.2,45.2841,223.3,44.5582,233.4,45.0955,243.5,44.7535,253.6,45.0066,263.7,44.5743,273.8,45.6871,283.9,44.716,294,45.1992,294.1991,45.2612,295.2201,49.6409,296.7885,54.1909,298.3604,58.7421,299.5969,63.1889,301,67.6875,301,67.2326,311.6,68.2893,322.2,67.6777,332.8,67.15,343.4,66.9404,354,67.6875,353.2649,67.6875,354.2582,77.5039,353.6892,87.3203,354.2559,97.1367,353.2651,106.9531,354.1819,116.7695,354.4762,126.5859,354.6749,136.4023,354.1477,146.2188,354.3381,156.0352,353.7458,165.8516,353.7037,175.668,353.656,185.4844,354.3257,195.3008,354.5157,205.1172,353.2507,214.9336,354.3556,224.75,353.266,234.5664,354.2638,244.3828,354,254.1992,354,253.7943,343.9231,254.472,333.8462,254.5111,323.7692,254.8757,313.6923,254.2049,303.6154,254.1029,293.5385,254.8151,283.4615,253.4859,273.3846,253.9152,263.3077,254.3035,253.2308,254.7927,243.1538,254.6208,233.0769,254.8018,223,254.857,212.9231,254.1716,202.8462,254.8706,192.7692,254.089,182.6923,253.9466,172.6154,254.2341,162.5385,253.9822,152.4615,253.8906,142.3846,254.3335,132.3077,254.8452,122.2308,254.1567,112.1538,254.4028,102.0769,254.7489,92,254.1992,92.6104,254.1992,92.0034,244.2468,91.3866,234.2945,92.1635,224.3421,91.6131,214.3897,92.6535,204.4373,92.5031,194.4849,92.4852,184.5326,91.9854,174.5802,92.1059,164.6278,92.4375,154.6754,91.6837,144.723,92.2779,134.7706,92.4919,124.8183,91.7844,114.8659,92.0902,104.9135,92.6395,94.9611,92.0015,85.0087,92.2785,75.0564,92.5585,65.104,92.277,55.1516,92,45.1992" style="stroke: #000000; stroke-width: 2.0;"/><path d="M92,67.6875 L92,66.7864 L101.9524,67.9992 L111.9048,67.5763 L121.8571,66.7717 L131.8095,66.85 L141.7619,66.7245 L151.7143,66.9351 L161.6667,67.2493 L171.619,68.2963 L181.5714,66.744 L191.5238,68.4631 L201.4762,67.2718 L211.4286,68.6062 L221.381,68.5131 L231.3333,67.4068 L241.2857,67.0176 L251.2381,66.82 L261.1905,68.6855 L271.1429,67.1804 L281.0952,66.7987 L291.0476,68.1627 L301,67.6875 " fill="#FFFFFF" style="stroke: #000000; stroke-width: 2.0;"/><text fill="#000000" font-family="sans-serif" font-size="14" font-weight="bold" lengthAdjust="spacingAndGlyphs" textLength="196" x="96" y="60.7344">アップロードファイルカテゴリ</text><polygon fill="#FEFECE" filter="url(#fdkc0cz)" points="173.1907,97.8914,172.0346,99.9218,171.0552,102.2975,168.9088,104.0807,166.1262,105.5346,163.7212,107.2312,160.3003,108.1949,157.5968,109.4621,154.15,110.0196,150.7493,110.3067,146.626,109.7682,143.6889,109.5795,140.1764,108.566,137.1881,107.404,134.1346,105.696,131.7097,103.8816,130.2524,102.1852,128.2312,99.6407,127.3276,97.3601,127.953,95.6495,127.7928,93.0728,128.6724,90.8647,129.9793,88.6995,131.8482,86.738,134.2756,85.0557,136.6559,83.3431,139.9008,82.2663,143.0596,81.2919,147.1842,81.1701,150.2696,80.6803,154.2029,81.0966,157.696,81.6428,160.5688,82.2451,163.4245,83.3218,166.0526,84.7563,169.1405,86.9969,170.4934,88.6262,171.9777,90.8255,172.5439,92.8892,173.2543,95.4587" style="stroke: #A80036; stroke-width: 1.5;"/><text fill="#000000" font-family="sans-serif" font-size="14" lengthAdjust="spacingAndGlyphs" textLength="28" x="136.299" y="100.1023">一覧</text><polygon fill="#FEFECE" filter="url(#fdkc0cz)" points="317.4985,225.4464,316.7613,227.7461,315.2014,229.7486,313.9361,232.0982,311.8038,233.9702,309.0389,235.4355,305.4366,236.2825,301.9885,237.071,298.5296,237.6207,295.4898,238.1398,291.8472,237.9105,288.7043,237.5894,284.639,236.2205,281.7051,235.0935,279.5026,233.9326,277.1479,232.1633,274.9856,230.0136,273.8514,228.0395,272.7483,225.6306,272.5254,223.3745,273.1481,221.3013,273.2823,218.6138,275.3649,216.9474,276.736,214.6659,279.2436,213.0352,281.7746,211.4194,284.9098,210.2721,288.0759,209.3023,292.0957,209.1133,295.6472,208.9231,299.2445,209.1234,301.9696,209.1758,305.3989,210.1358,308.9376,211.6517,311.0286,212.7409,313.4123,214.5288,315.9369,216.9114,317.4275,219.1147,317.8674,221.0973,317.9525,223.2647" style="stroke: #A80036; stroke-width: 1.5;"/><text fill="#000000" font-family="sans-serif" font-size="14" lengthAdjust="spacingAndGlyphs" textLength="28" x="281.299" y="228.1023">削除</text><polygon fill="#FEFECE" filter="url(#fdkc0cz)" points="328.4083,161.8369,326.9767,163.9688,325.2241,166.1886,322.4169,168.0932,319.3761,169.9731,315.4737,171.4666,310.1887,172.2605,305.9633,173.3716,300.5841,173.7338,295.3504,173.8611,290.9627,174.0068,285.1175,173.086,281.4968,172.7078,276.0807,171.0391,273.0648,169.9423,268.8601,167.802,266.7929,166.1159,265.0126,164.0729,263.916,161.8815,262.9227,159.3235,263.1883,156.969,264.5555,154.8082,266.0372,152.467,268.88,150.5783,272.5244,148.9691,276.1995,147.3736,281.0636,146.391,285.3309,145.2987,290.6116,144.8924,295.2438,144.4954,301.1431,145.0274,305.6446,145.3457,310.5456,146.298,315.4683,147.7455,318.2647,148.7439,321.5697,150.4808,324.9242,152.744,326.2747,154.5943,327.7489,156.955,328.715,159.5008" style="stroke: #A80036; stroke-width: 1.5;"/><text fill="#000000" font-family="sans-serif" font-size="14" lengthAdjust="spacingAndGlyphs" textLength="42" x="274.6985" y="164.1023">コピー</text><polygon fill="#FEFECE" filter="url(#fdkc0cz)" points="338.4881,97.9324,336.017,99.8557,332.7196,101.7264,330.8196,104.2357,326.1733,105.8799,320.1323,107.0441,315.3405,108.5583,308.3083,109.1438,301.5093,109.5777,296.4011,110.2935,289.28,109.9557,283.0527,109.5124,276.5611,108.5234,269.8423,106.9707,265.792,105.8322,261.6296,104.1445,257.2138,101.8655,255.1061,99.8954,253.9573,97.8003,252.4975,95.1853,253.0212,92.8919,254.5164,90.6327,257.2093,88.5539,260.897,86.6598,266.2107,85.2453,269.8203,83.2445,276.1438,82.2573,282.6358,81.486,289.3909,81.0369,296.2162,80.912,302.3703,80.917,308.1744,81.2147,315.4075,82.4589,320.6572,83.506,325.3634,84.8703,330.3603,86.845,334.3054,88.9621,336.2005,90.8591,336.8509,92.7826,338.7659,95.5543" style="stroke: #A80036; stroke-width: 1.5;"/><text fill="#000000" font-family="sans-serif" font-size="14" lengthAdjust="spacingAndGlyphs" textLength="56" x="267.598" y="100.1023">一括削除</text><polygon fill="#FEFECE" filter="url(#fdkc0cz)" points="193.517,161.9423,191.6326,164.0675,188.3387,165.9395,185.5741,168.1513,180.0858,169.5056,175.8891,171.3045,170.5138,172.6179,163.8422,173.3275,157.5139,173.9235,150.1033,173.8469,143.9859,173.8545,138.2511,173.5807,130.5853,172.1876,124.7221,170.9294,120.145,169.6095,115.3115,167.691,112.5417,165.9784,110.1639,163.9153,108.7001,161.7118,107.2499,159.1001,108.5549,157.0755,109.8133,154.7349,113.3859,152.9588,115.4155,150.4941,120.9097,149.1418,125.9333,147.6275,131.2893,146.3074,137.7872,145.5381,144.2161,144.9767,150.5224,144.6732,156.9057,144.7572,163.5202,145.3337,170.4952,146.489,176.4564,147.781,180.7773,149.0127,184.7013,150.6183,187.9439,152.4935,191.0895,154.8209,192.3328,156.9485,192.3793,159.0772" style="stroke: #A80036; stroke-width: 1.5;"/><text fill="#000000" font-family="sans-serif" font-size="14" lengthAdjust="spacingAndGlyphs" textLength="56" x="122.598" y="164.1023">新規作成</text><polygon fill="#FEFECE" filter="url(#fdkc0cz)" points="172.6549,225.547,172.1578,228.001,170.324,229.8274,168.5292,231.8366,166.1342,233.5397,163.6439,235.1815,160.4297,236.2781,157.5622,237.4398,154.0637,237.9641,150.3536,238.0523,146.8794,237.9312,143.5843,237.5123,140.2228,236.5958,137.0515,235.3162,134.5128,233.9391,131.713,231.8837,129.7551,229.8655,128.6955,227.9393,127.9599,225.7666,127.1432,223.1288,128.2309,221.3545,128.326,218.642,130.4347,216.9923,132.1401,214.9257,134.0287,212.897,136.6567,211.3436,139.6385,210.0976,143.2545,209.4172,146.9218,209.0015,150.611,208.8999,153.4237,208.5956,157.3536,209.4227,160.86,210.4323,163.7181,211.5105,166.8224,213.2513,169.0884,214.9635,170.4097,216.5724,172.3052,219.036,173.1991,221.3105,173.4499,223.5845" style="stroke: #A80036; stroke-width: 1.5;"/><text fill="#000000" font-family="sans-serif" font-size="14" lengthAdjust="spacingAndGlyphs" textLength="28" x="136.299" y="228.1023">編集</text><!--entity 管理者--><polygon fill="#FEFECE" filter="url(#fdkc0cz)" points="34.1751,130.0312,33.2596,132.3373,31.766,133.6855,29.9832,134.6185,27.8415,135.3528,25.5828,135.9988,23.5,134.9327,21.5971,133.998,20.8807,132.0724,19.9004,131.0353,18.8661,128.6061,19.3803,125.8701,20.0687,123.8174,20.9586,122.1379,22.6744,121.0912,24.2375,120.3592,25.9367,119.3261,28.3485,119.7061,30.4458,120.27,31.779,121.4901,33.79,122.9639,34.7559,125.1154,35.0863,127.6598,34.9785,129.5385" style="stroke: #A80036; stroke-width: 2.0;"/><path d="M27,135.6992 L26.6275,135.6992 L27.1411,141.0992 L27.0389,146.4992 L27.2642,151.8992 L26.9009,157.2992 L27,162.6992 M14,143.6992 L14,143.3591 L19.2,143.8396 L24.4,143.9182 L29.6,143.7143 L34.8,143.5492 L40,143.6992 M27,162.6992 L26.7639,162.4946 L24.0097,165.3609 L21.8478,168.7406 L19.3887,171.8628 L16.7608,174.8386 L14,177.6992 M27,162.6992 L27.1702,162.8467 L30.0092,166.0539 L31.9967,168.5231 L35.065,171.9289 L37.3659,174.6697 L40,177.6992 " fill="#FEFECE" style="stroke: #A80036; stroke-width: 2.0;"/><text fill="#000000" font-family="sans-serif" font-size="14" lengthAdjust="spacingAndGlyphs" textLength="42" x="6" y="198.2344">管理者</text><path d="M48.04,147.3292 L48.1022,147.4378 L51.5459,145.3679 L55.0293,143.3673 L58.4412,141.2419 L61.9779,139.3343 L65.4688,137.3467 L65.4664,137.3423 L69.3091,135.5622 L72.9822,133.4721 L76.5178,131.1309 L80.245,129.1397 L84,127.1992 L83.8847,126.9771 L86.3139,126.3243 L88.384,124.9796 L90.6496,124.0114 L92.804,122.8293 L94.9028,121.5398 L94.8968,121.5278 L97.1037,120.3635 L99.2531,119.0846 L101.4506,117.9014 L103.7855,116.9915 L106.0475,115.9367 L105.9077,115.649 L110.385,114.1873 L114.561,112.1056 L118.7358,110.0215 L122.7185,107.5421 L127.03,105.7392 " fill="none" style="stroke: #A80036; stroke-width: 1.0;"/><polygon fill="#A80036" points="131.55,103.5792,131.5493,103.5545,129.5811,103.6376,127.6124,103.703,125.6402,103.6439,123.68,104.0158,121.7049,103.8505,121.6577,103.7169,122.692,104.0021,123.8602,104.666,124.8654,104.8687,126.002,105.4435,127.0386,105.735,127.2435,105.8074,126.8107,106.8544,126.2325,107.85,125.9861,108.9628,125.5018,109.9916,125.1541,111.0687,125.0613,110.9895,126.4216,109.5609,127.8855,108.2207,129.0252,106.6037,130.2008,105.0174,131.55,103.5792" style="stroke: #A80036; stroke-width: 1.0;"/><path d="M166.56,105.8992 L166.6786,106.0542 L169.0688,107.7573 L171.95,110.1019 L174.2628,111.704 L177.0947,113.9842 L179.6825,115.9455 L179.6509,115.9081 L182.336,118.1844 L184.956,120.3837 L187.8058,122.8549 L190.135,124.71 L193,127.1992 L192.9663,127.1638 L195.1621,129.2771 L196.8158,130.82 L198.7018,132.6073 L200.9364,134.7615 L202.6804,136.3993 L202.6084,136.3305 L204.4648,138.2459 L205.7623,139.6271 L207.1324,141.0777 L209.0403,143.0423 L210.4919,144.5708 L210.6066,144.6689 L213.0745,147.5657 L215.3521,150.2999 L217.8293,153.2046 L220.4097,156.1977 L223,159.1992 L222.9057,159.1186 L225.5005,162.1239 L228.0842,165.1198 L230.2617,167.7683 L233.0697,170.956 L235.5081,173.8277 L235.7326,174.0422 L237.3051,175.6863 L238.7498,177.2082 L240.0866,178.6269 L241.5421,180.1591 L243.3196,181.9991 L243.4324,182.1177 L245.3846,183.9747 L247.3663,185.8628 L248.9238,187.3045 L251.0604,189.3555 L253,191.1992 L253.1432,191.3669 L255.0466,192.8995 L257.4506,195.0185 L259.7276,196.9888 L261.6819,198.581 L263.97,200.5642 L263.9914,200.5916 L266.0946,202.1702 L268.3951,204.0015 L270.7782,205.9386 L273.0915,207.7863 L275.12,209.2692 " fill="none" style="stroke: #A80036; stroke-width: 1.0;"/><polygon fill="#A80036" points="279.44,212.4992,279.2344,212.3838,278.3508,210.7111,277.5135,209.0644,276.4902,207.3133,275.7248,205.7069,274.6203,203.9102,274.6318,203.9119,274.9188,205.0496,275.1143,206.174,274.9545,207.2468,275.0469,208.3563,275.4331,209.5084,275.4367,209.5327,274.3255,209.7537,273.2114,209.9544,272.0495,209.8258,270.9447,210.0902,269.835,210.3212,269.8351,210.3219,271.8013,210.9567,273.6448,211.0506,275.5926,211.6043,277.5039,211.9972,279.44,212.4992" style="stroke: #A80036; stroke-width: 1.0;"/><path d="M169.61,103.3092 L169.4055,102.8522 L178.1232,106.5093 L187.1755,110.9138 L196.1145,115.0652 L205.3706,119.9253 L213.9331,123.2355 L223.1091,127.9163 L231.7362,131.3709 L240.7245,135.6325 L249.0819,138.4845 L258.3851,143.4495 L267.01,146.8992 " fill="none" style="stroke: #A80036; stroke-width: 1.0;"/><polygon fill="#A80036" points="271.83,149.0492,271.7107,148.9419,270.637,147.6959,269.2692,146.1855,267.9541,144.7224,266.4766,143.1133,265.2451,141.7254,265.0897,141.666,265.6902,142.7979,266.0291,143.8298,266.3817,144.8669,267.0109,146.0098,267.2651,147.0093,267.31,147.1267,266.2855,147.6153,265.087,147.6485,264.0328,148.0593,262.9997,148.5253,261.9812,149.0292,261.9812,149.0383,263.9511,149.1035,265.9209,149.1385,267.8907,149.1592,269.8603,149.0972,271.83,149.0492" style="stroke: #A80036; stroke-width: 1.0;"/><path d="M173.53,95.1992 L173.53,94.8951 L184.1129,95.0596 L194.6957,95.6257 L205.2786,95.0343 L215.8614,95.7762 L226.4443,96.0602 L237.0271,95.2763 L247.61,95.1992 " fill="none" style="stroke: #A80036; stroke-width: 1.0;"/><polygon fill="#A80036" points="252.86,95.1992,252.8701,95.2219,251.0574,94.3933,249.3436,93.7874,247.3887,92.6388,245.6542,91.9861,243.86,91.1992,243.7518,91.0911,244.7126,92.0518,245.4692,92.8084,246.1109,93.4501,247.0381,94.3773,247.86,95.1992,247.7105,95.0497,246.9682,95.9075,246.1605,96.6998,245.5006,97.6399,244.7594,98.4986,243.86,99.1992,243.8408,99.156,245.5871,98.2351,247.5242,97.7437,249.217,96.7026,251.031,95.934,252.86,95.1992" style="stroke: #A80036; stroke-width: 1.0;"/><path d="M48.06,159.1992 L48.06,160.0058 L58.988,159.0494 L69.916,159.8945 L80.844,159.7373 L91.772,160.1121 L102.7,159.1992 " fill="none" style="stroke: #A80036; stroke-width: 1.0;"/><polygon fill="#A80036" points="107.98,159.1992,107.9169,159.0573,106.123,158.2709,104.4036,157.6523,102.5584,156.7507,100.8806,156.2257,98.98,155.1992,99.1424,155.3616,99.7748,155.994,100.6621,156.8813,101.5317,157.7509,102.0791,158.2983,102.98,159.1992,102.8458,159.065,102.1975,160.0167,101.3511,160.7703,100.4699,161.4891,99.9069,162.5261,98.98,163.1992,99.054,163.3657,100.7394,162.308,102.5109,161.4436,104.4217,160.893,106.2392,160.1325,107.98,159.1992" style="stroke: #A80036; stroke-width: 1.0;"/><path d="M48.04,171.0692 L48.0568,171.0985 L51.4482,172.9303 L54.9202,174.9029 L58.5827,177.2079 L61.8656,178.8502 L65.4688,181.0517 L65.3658,180.8638 L69.0902,182.9264 L72.8467,185.0476 L76.4645,186.9155 L80.2303,189.0539 L84,191.1992 L83.9672,191.136 L86.0728,192.1235 L88.2902,193.3263 L90.4625,194.4423 L92.6432,195.5745 L94.9028,196.8586 L94.9748,197.0018 L97.0816,197.8796 L99.5054,199.3877 L101.4758,199.9941 L103.84,201.3838 L106.0475,202.4617 L106.0106,202.3858 L110.2447,204.5027 L114.4268,206.5124 L118.6671,208.6421 L122.7791,210.5079 L127.03,212.6592 " fill="none" style="stroke: #A80036; stroke-width: 1.0;"/><polygon fill="#A80036" points="131.55,214.8192,131.5278,214.8003,130.2745,213.3245,128.934,211.7742,127.583,210.215,126.598,208.9683,125.1541,207.3297,125.1482,207.3277,125.3592,208.3358,125.7678,209.4137,126.4013,210.5711,126.4401,211.5184,127.0386,212.6635,126.9969,212.5453,126.0452,213.2479,124.9218,213.4644,123.8869,213.9316,122.7143,214.0089,121.7049,214.548,121.7089,214.6943,123.677,214.7129,125.6436,214.6805,127.6147,214.8115,129.5862,214.9529,131.55,214.8192" style="stroke: #A80036; stroke-width: 1.0;"/></g></svg>