<?xml version="1.0" encoding="UTF-8" standalone="no"?><svg xmlns="http://www.w3.org/2000/svg" xmlns:xlink="http://www.w3.org/1999/xlink" contentScriptType="application/ecmascript" contentStyleType="text/css" height="747px" preserveAspectRatio="none" style="width:384px;height:747px;" version="1.1" viewBox="0 0 384 747" width="384px" zoomAndPan="magnify"><defs><filter height="300%" id="ftcd0s8" width="300%" x="-1" y="-1"><feGaussianBlur result="blurOut" stdDeviation="2.0"/><feColorMatrix in="blurOut" result="blurOut2" type="matrix" values="0 0 0 0 0 0 0 0 0 0 0 0 0 0 0 0 0 0 .4 0"/><feOffset dx="4.0" dy="4.0" in="blurOut2" result="blurOut3"/><feBlend in="SourceGraphic" in2="blurOut3" mode="normal"/></filter></defs><g><text fill="#000000" font-family="sans-serif" font-size="18" lengthAdjust="spacingAndGlyphs" textLength="101" x="146" y="16.708">ユーザーAPI</text><!--class Admin\UsersController--><polygon fill="#FEFECE" filter="url(#ftcd0s8)" points="124,128.9531,124,128.4603,134.04,128.553,144.08,129.6978,154.12,129.2444,164.16,128.4008,174.2,129.5638,184.24,128.8146,194.28,129.0639,204.32,128.6612,214.36,129.5001,224.4,128.4585,234.44,128.2117,244.48,128.3133,254.52,128.6649,264.56,128.2096,274.6,128.343,284.64,128.6765,294.68,128.702,304.72,128.5532,314.76,128.3211,324.8,129.2083,334.84,129.549,344.88,129.58,354.92,128.5288,364.96,129.1934,375,128.9531,374.5971,128.9531,375.3163,139.125,374.8955,149.2969,374.7071,159.4688,375.5509,169.6406,374.8899,179.8125,375.125,189.9844,375.1967,200.1563,375.0651,210.3281,374.391,220.5,375.238,230.6719,374.2813,240.8438,375.4065,251.0156,374.6468,261.1875,375,271.3594,375,271.3586,364.96,271.4365,354.92,271.8959,344.88,271.4532,334.84,270.8484,324.8,271.2866,314.76,271.6004,304.72,271.9638,294.68,270.9553,284.64,271.2951,274.6,271.0375,264.56,271.2933,254.52,271.8518,244.48,270.9767,234.44,271.146,224.4,271.0778,214.36,270.8755,204.32,270.9517,194.28,271.1806,184.24,271.9533,174.2,272.1013,164.16,271.8531,154.12,270.6673,144.08,271.3337,134.04,270.7044,124,271.3594,124.5754,271.3594,123.4379,261.1875,124.3189,251.0156,124.1214,240.8438,123.406,230.6719,123.3555,220.5,124.3483,210.3281,123.2564,200.1563,124.007,189.9844,124.4272,179.8125,124.1143,169.6406,123.6043,159.4688,123.85,149.2969,124.4183,139.125,124,128.9531" style="stroke: #A80036; stroke-width: 1.5;"/><text fill="#000000" font-family="sans-serif" font-size="12" lengthAdjust="spacingAndGlyphs" textLength="139" x="180" y="145.0918">Admin\UsersController</text><path d="M125,152.9219 L125,153.072 L134.96,152.0805 L144.92,151.9278 L154.88,152.3179 L164.84,153.8985 L174.8,153.7988 L184.76,153.5129 L194.72,153.0902 L204.68,153.2915 L214.64,153.4737 L224.6,153.3141 L234.56,153.5302 L244.52,152.9865 L254.48,152.5465 L264.44,153.1833 L274.4,153.2925 L284.36,152.3671 L294.32,152.7809 L304.28,152.7361 L314.24,152.8599 L324.2,152.9977 L334.16,153.2376 L344.12,153.5382 L354.08,152.3821 L364.04,153.0461 L374,152.9219 " fill="#FEFECE" style="stroke: #A80036; stroke-width: 1.5;"/><text fill="#000000" font-family="sans-serif" font-size="11" lengthAdjust="spacingAndGlyphs" textLength="154" x="130" y="167.1323">+AuthenticationComponent</text><path d="M125,173.7266 L125,173.7831 L134.96,173.8308 L144.92,174.563 L154.88,172.8479 L164.84,173.6011 L174.8,173.1692 L184.76,174.0288 L194.72,173.1003 L204.68,173.7368 L214.64,173.5883 L224.6,173.3975 L234.56,174.3849 L244.52,174.1561 L254.48,173.5237 L264.44,173.9335 L274.4,173.3026 L284.36,173.5015 L294.32,174.0975 L304.28,173.5969 L314.24,173.8513 L324.2,174.3192 L334.16,173.1363 L344.12,174.1007 L354.08,173.4053 L364.04,173.578 L374,173.7266 " fill="#FEFECE" style="stroke: #A80036; stroke-width: 1.5;"/><text fill="#000000" font-family="sans-serif" font-size="11" lengthAdjust="spacingAndGlyphs" textLength="99" x="130" y="187.937">+ログイン：login()</text><text fill="#000000" font-family="sans-serif" font-size="11" lengthAdjust="spacingAndGlyphs" textLength="239" x="130" y="200.7417">+リフレッシュトークン取得：refresh_token()</text><text fill="#000000" font-family="sans-serif" font-size="11" lengthAdjust="spacingAndGlyphs" textLength="168" x="130" y="213.5464">+ユーザー情報一覧取得：index()</text><text fill="#000000" font-family="sans-serif" font-size="11" lengthAdjust="spacingAndGlyphs" textLength="163" x="130" y="226.3511">+単一ユーザー情報取得：view()</text><text fill="#000000" font-family="sans-serif" font-size="11" lengthAdjust="spacingAndGlyphs" textLength="137" x="130" y="239.1558">+ユーザー情報登録：add()</text><text fill="#000000" font-family="sans-serif" font-size="11" lengthAdjust="spacingAndGlyphs" textLength="137" x="130" y="251.9604">+ユーザー情報編集：edit()</text><text fill="#000000" font-family="sans-serif" font-size="11" lengthAdjust="spacingAndGlyphs" textLength="151" x="130" y="264.7651">+ユーザー情報削除：delete()</text><!--class UserService--><polygon fill="#FEFECE" filter="url(#ftcd0s8)" points="206.5,356.4531,206.5,356.6654,216.0556,355.8046,225.6111,356.917,235.1667,355.8007,244.7222,355.9869,254.2778,357.0334,263.8333,356.7192,273.3889,356.5614,282.9444,357.1988,292.5,356.4531,291.9984,356.4531,292.0701,367.0078,292.8875,377.5625,293.1277,388.1172,292.3724,398.6719,292.5,409.2266,292.5,409.7712,282.9444,409.1225,273.3889,408.588,263.8333,409.362,254.2778,409.7583,244.7222,408.7513,235.1667,409.0578,225.6111,409.059,216.0556,409.0074,206.5,409.2266,205.8228,409.2266,206.6461,398.6719,206.0295,388.1172,205.8539,377.5625,206.6727,367.0078,206.5,356.4531" style="stroke: #A80036; stroke-width: 1.5;"/><text fill="#000000" font-family="sans-serif" font-size="12" lengthAdjust="spacingAndGlyphs" textLength="74" x="212.5" y="372.5918">UserService</text><path d="M207.5,380.4219 L207.5,380.112 L218,380.4721 L228.5,380.9454 L239,380.7665 L249.5,380.85 L260,379.6289 L270.5,381.2303 L281,381.1778 L291.5,380.4219 " fill="#FEFECE" style="stroke: #A80036; stroke-width: 1.5;"/><text fill="#000000" font-family="sans-serif" font-size="11" lengthAdjust="spacingAndGlyphs" textLength="74" x="212.5" y="394.6323">+UsersTable</text><path d="M207.5,401.2266 L207.5,400.4779 L218,401.8148 L228.5,401.6789 L239,400.9008 L249.5,401.6724 L260,400.6144 L270.5,400.4316 L281,400.9242 L291.5,401.2266 " fill="#FEFECE" style="stroke: #A80036; stroke-width: 1.5;"/><!--class UserServiceInterface--><polygon fill="#FEFECE" filter="url(#ftcd0s8)" points="6,330.9531,6,330.6934,15.7059,331.2527,25.4118,330.4701,35.1176,331.5712,44.8235,331.2877,54.5294,330.2688,64.2353,330.6192,73.9412,331.5324,83.6471,330.8364,93.3529,331.1585,103.0588,330.9873,112.7647,331.6616,122.4706,330.4286,132.1765,331.6248,141.8824,331.2145,151.5882,331.5921,161.2941,330.4271,171,330.9531,171,330.9531,170.2799,341.3523,171.1774,351.7516,171.6222,362.1508,171.5772,372.55,171.2607,382.9492,171.364,393.3484,170.6454,403.7477,170.9666,414.1469,170.8285,424.5461,171,434.9453,171,434.3666,161.2941,435.1032,151.5882,434.6509,141.8824,435.604,132.1765,435.125,122.4706,435.6898,112.7647,435.2742,103.0588,434.7903,93.3529,435.6452,83.6471,435.6563,73.9412,434.612,64.2353,435.4824,54.5294,434.8382,44.8235,434.6576,35.1176,434.6512,25.4118,434.2285,15.7059,435.4146,6,434.9453,6.2523,434.9453,5.7546,424.5461,6.276,414.1469,6.5378,403.7477,6.4155,393.3484,6.2994,382.9492,5.7926,372.55,5.6147,362.1508,6.6336,351.7516,5.2983,341.3523,6,330.9531" style="stroke: #A80036; stroke-width: 1.5;"/><text fill="#000000" font-family="sans-serif" font-size="12" lengthAdjust="spacingAndGlyphs" textLength="130" x="23.5" y="347.0918">UserServiceInterface</text><path d="M7,354.9219 L7,354.9768 L17.1875,354.5152 L27.375,355.3426 L37.5625,355.204 L47.75,354.7532 L57.9375,354.7706 L68.125,355.2736 L78.3125,354.0276 L88.5,354.1218 L98.6875,354.127 L108.875,355.5672 L119.0625,354.1512 L129.25,354.854 L139.4375,354.2205 L149.625,354.5845 L159.8125,354.7937 L170,354.9219 " fill="#FEFECE" style="stroke: #A80036; stroke-width: 1.5;"/><path d="M7,362.9219 L7,363.6493 L17.1875,363.4691 L27.375,363.054 L37.5625,363.6824 L47.75,363.112 L57.9375,363.2822 L68.125,362.1594 L78.3125,362.3114 L88.5,363.8985 L98.6875,362.4176 L108.875,363.8336 L119.0625,363.3547 L129.25,363.1592 L139.4375,362.9408 L149.625,363.4809 L159.8125,362.7524 L170,362.9219 " fill="#FEFECE" style="stroke: #A80036; stroke-width: 1.5;"/><text fill="#000000" font-family="sans-serif" font-size="11" lengthAdjust="spacingAndGlyphs" textLength="86" x="12" y="377.1323">+作成：create()</text><text fill="#000000" font-family="sans-serif" font-size="11" lengthAdjust="spacingAndGlyphs" textLength="89" x="12" y="389.937">+編集：update()</text><text fill="#000000" font-family="sans-serif" font-size="11" lengthAdjust="spacingAndGlyphs" textLength="123" x="12" y="402.7417">+単一データ取得：get()</text><text fill="#000000" font-family="sans-serif" font-size="11" lengthAdjust="spacingAndGlyphs" textLength="153" x="12" y="415.5464">+一覧データ取得：getIndex()</text><text fill="#000000" font-family="sans-serif" font-size="11" lengthAdjust="spacingAndGlyphs" textLength="147" x="12" y="428.3511">+初期データ取得：getNew()</text><!--class UsersTable--><polygon fill="#FEFECE" filter="url(#ftcd0s8)" points="211.5,494.9531,211.5,494.6048,221,494.7133,230.5,494.9224,240,494.6834,249.5,494.8966,259,495.5649,268.5,494.2561,278,495.1496,287.5,494.9531,287.6999,494.9531,287.2786,502.9469,287.4649,510.9406,287.5235,518.9344,287.6283,526.9281,287.5,534.9219,287.5,535.4929,278,534.2582,268.5,534.2247,259,535.34,249.5,534.6044,240,535.2981,230.5,534.8072,221,534.4406,211.5,534.9219,211.7024,534.9219,211.7006,526.9281,211.6701,518.9344,211.6037,510.9406,211.3091,502.9469,211.5,494.9531" style="stroke: #A80036; stroke-width: 1.5;"/><text fill="#000000" font-family="sans-serif" font-size="12" lengthAdjust="spacingAndGlyphs" textLength="70" x="214.5" y="511.0918">UsersTable</text><path d="M212.5,518.9219 L212.5,518.3995 L223.0714,518.1536 L233.6429,519.5669 L244.2143,519.0517 L254.7857,519.1587 L265.3571,519.6 L275.9286,519.2735 L286.5,518.9219 " fill="#FEFECE" style="stroke: #A80036; stroke-width: 1.5;"/><path d="M212.5,526.9219 L212.5,527.4346 L223.0714,527.2914 L233.6429,527.5003 L244.2143,527.1456 L254.7857,527.8495 L265.3571,526.9541 L275.9286,527.8876 L286.5,526.9219 " fill="#FEFECE" style="stroke: #A80036; stroke-width: 1.5;"/><!--class User--><polygon fill="#FEFECE" filter="url(#ftcd0s8)" points="173.5,594.9531,173.5,594.3734,183.6333,595.4487,193.7667,594.6548,203.9,594.2639,214.0333,595.0322,224.1667,594.9883,234.3,595.3638,244.4333,594.9949,254.5667,595.3498,264.7,595.0133,274.8333,594.9846,284.9667,594.7106,295.1,594.7058,305.2333,595.0309,315.3667,594.7803,325.5,594.9531,324.8456,594.9531,325.634,605.125,326.1248,615.2969,324.766,625.4688,325.7306,635.6406,325.6069,645.8125,325.7911,655.9844,324.9551,666.1563,325.4707,676.3281,326.0185,686.5,325.0245,696.6719,325.4768,706.8438,325.0736,717.0156,325.7913,727.1875,325.5,737.3594,325.5,736.8196,315.3667,736.7533,305.2333,737.6341,295.1,736.9833,284.9667,738.0563,274.8333,737.6025,264.7,736.7211,254.5667,737.0518,244.4333,736.9242,234.3,737.825,224.1667,737.5279,214.0333,737.9131,203.9,737.8726,193.7667,737.2968,183.6333,737.9689,173.5,737.3594,173.3885,737.3594,173.7803,727.1875,173.0444,717.0156,174.0691,706.8438,172.9867,696.6719,173.4927,686.5,173.1177,676.3281,173.1161,666.1563,172.9681,655.9844,172.7817,645.8125,173.9843,635.6406,172.8626,625.4688,173.1546,615.2969,173.3991,605.125,173.5,594.9531" style="stroke: #A80036; stroke-width: 1.5;"/><text fill="#000000" font-family="sans-serif" font-size="12" lengthAdjust="spacingAndGlyphs" textLength="29" x="235" y="611.0918">User</text><path d="M174.5,618.9219 L174.5,619.4739 L184.5,618.0536 L194.5,618.5956 L204.5,618.4678 L214.5,618.0432 L224.5,619.0417 L234.5,619.0629 L244.5,618.034 L254.5,618.1447 L264.5,618.7758 L274.5,619.0628 L284.5,618.7596 L294.5,618.5374 L304.5,618.5124 L314.5,619.8978 L324.5,618.9219 " fill="#FEFECE" style="stroke: #A80036; stroke-width: 1.5;"/><text fill="#000000" font-family="sans-serif" font-size="11" lengthAdjust="spacingAndGlyphs" textLength="118" x="179.5" y="633.1323">+アカウント名：name</text><text fill="#000000" font-family="sans-serif" font-size="11" lengthAdjust="spacingAndGlyphs" textLength="131" x="179.5" y="645.937">+パスワード：password</text><text fill="#000000" font-family="sans-serif" font-size="11" lengthAdjust="spacingAndGlyphs" textLength="104" x="179.5" y="658.7417">+性：real_name_1</text><text fill="#000000" font-family="sans-serif" font-size="11" lengthAdjust="spacingAndGlyphs" textLength="104" x="179.5" y="671.5464">+名：real_name_2</text><text fill="#000000" font-family="sans-serif" font-size="11" lengthAdjust="spacingAndGlyphs" textLength="128" x="179.5" y="684.3511">+メールアドレス：email</text><text fill="#000000" font-family="sans-serif" font-size="11" lengthAdjust="spacingAndGlyphs" textLength="140" x="179.5" y="697.1558">+ニックネーム：nickname</text><text fill="#000000" font-family="sans-serif" font-size="11" lengthAdjust="spacingAndGlyphs" textLength="96" x="179.5" y="709.9604">+登録日：created</text><text fill="#000000" font-family="sans-serif" font-size="11" lengthAdjust="spacingAndGlyphs" textLength="102" x="179.5" y="722.7651">+編集日：modified</text><path d="M174.5,729.3594 L174.5,729.4581 L184.5,729.6328 L194.5,729.4932 L204.5,729.4473 L214.5,729.1379 L224.5,728.8768 L234.5,728.4053 L244.5,729.5773 L254.5,730.0511 L264.5,728.3822 L274.5,729.713 L284.5,729.1075 L294.5,730.2823 L304.5,730.2225 L314.5,730.0661 L324.5,729.3594 " fill="#FEFECE" style="stroke: #A80036; stroke-width: 1.5;"/><!--class BcApiController--><polygon fill="#FEFECE" filter="url(#ftcd0s8)" points="199,28.9531,199,29.2134,209.1,29.1998,219.2,29.1629,229.3,28.5925,239.4,29.3558,249.5,28.7679,259.6,29.579,269.7,28.3064,279.8,29.5057,289.9,28.7476,300,28.9531,299.7516,28.9531,300.1335,36.9469,300.1772,44.9406,299.9015,52.9344,299.7833,60.9281,300,68.9219,300,69.2258,289.9,69.0314,279.8,68.3288,269.7,69.5849,259.6,69.5925,249.5,68.4606,239.4,68.9483,229.3,69.0404,219.2,68.4734,209.1,68.8614,199,68.9219,199.0416,68.9219,199.1157,60.9281,198.7929,52.9344,198.8757,44.9406,198.9621,36.9469,199,28.9531" style="stroke: #A80036; stroke-width: 1.5;"/><text fill="#000000" font-family="sans-serif" font-size="12" lengthAdjust="spacingAndGlyphs" textLength="95" x="202" y="45.0918">BcApiController</text><path d="M200,52.9219 L200,52.3413 L209.9,52.3767 L219.8,53.1232 L229.7,52.5296 L239.6,52.9905 L249.5,52.0741 L259.4,52.667 L269.3,52.4866 L279.2,52.0362 L289.1,52.7562 L299,52.9219 " fill="#FEFECE" style="stroke: #A80036; stroke-width: 1.5;"/><path d="M200,60.9219 L200,61.8908 L209.9,60.2506 L219.8,61.0786 L229.7,61.9169 L239.6,59.9247 L249.5,61.4538 L259.4,60.2189 L269.3,61.2052 L279.2,60.1083 L289.1,61.5906 L299,60.9219 " fill="#FEFECE" style="stroke: #A80036; stroke-width: 1.5;"/><path d="M249.5,271.1931 L248.782,271.1931 L249.784,281.1619 L249.9237,291.1306 L248.9483,301.0994 L250.0725,311.0681 L248.68,321.0369 L250.3885,331.0056 L248.8555,340.9744 L249.5,350.9431 " fill="none" style="stroke: #000000; stroke-width: 1.0;"/><polygon fill="#000000" points="249.5,356.0431,249.3565,355.9793,250.1477,354.1754,251.0098,352.403,252.0208,350.6968,252.6414,348.8171,253.5,347.0431,253.4036,346.9467,252.7876,347.9308,251.9758,348.719,251.0079,349.351,250.4092,350.3524,249.5,351.0431,249.6737,351.2168,248.5337,350.0768,247.783,349.3261,247.078,348.6212,246.1525,347.6957,245.5,347.0431,245.6681,347.1179,246.4587,348.9137,247.0307,350.6123,247.8938,352.4404,248.6038,354.2004,249.5,356.0431" style="stroke: #000000; stroke-width: 1.0;"/><path d="M249.5,89.4431 L249.3181,89.4431 L249.7747,97.3351 L249.3295,105.2271 L249.4963,113.1191 L249.6338,121.0111 L249.5,128.9031 " fill="none" style="stroke: #000000; stroke-width: 1.0;"/><polygon fill="none" points="242.5,89.1231,242.6156,89.1636,243.8808,85.1164,245.1676,81.0768,246.6621,77.1099,247.9043,73.0546,249.5,69.1231,249.3407,69.0674,251.1073,73.1957,252.1925,77.0855,253.5318,81.0642,255.1944,85.1562,256.5,89.1231,256.5,89.1155,253.7,89.0356,250.9,89.217,248.1,88.898,245.3,89.1824,242.5,89.1231" style="stroke: #000000; stroke-width: 1.0;"/><path d="M191.26,382.9531 L191.26,382.9876 L194.282,382.7341 L197.304,383.2727 L200.326,382.6223 L203.348,382.8881 L206.37,382.9531 " fill="none" style="stroke: #000000; stroke-width: 1.0; stroke-dasharray: 1.0,3.0;"/><polygon fill="none" points="191.2,389.9531,191.1527,389.8179,187.2286,388.6349,183.261,387.3274,179.1539,385.6215,175.1535,384.2202,171.2,382.9531,171.1828,382.904,175.2017,381.5581,179.231,380.2418,183.1782,378.6907,187.2675,377.546,191.2,375.9531,191.2331,375.9531,191.1291,378.7531,191.0141,381.5531,191.3187,384.3531,191.3435,387.1531,191.2,389.9531" style="stroke: #000000; stroke-width: 1.0;"/><path d="M249.5,409.6331 L250.4343,409.6331 L250.1007,419.6044 L250.4535,429.5756 L250.0013,439.5469 L249.5216,449.5181 L249.4773,459.4894 L248.7602,469.4606 L249.8764,479.4319 L249.5,489.4031 " fill="none" style="stroke: #000000; stroke-width: 1.0;"/><polygon fill="#000000" points="249.5,494.6631,249.3383,494.5913,250.1559,492.7991,251.1065,491.066,251.7941,489.216,252.8043,487.5095,253.5,485.6631,253.483,485.6462,252.5257,486.2888,252.0158,487.3789,251.0223,487.9854,250.2825,488.8456,249.5,489.6631,249.4585,489.6216,248.5796,488.7427,248.0389,488.2021,247.1952,487.3583,246.1832,486.3463,245.5,485.6631,245.5221,485.6729,246.2906,487.459,247.2042,489.3095,248.0671,491.1374,248.6097,492.823,249.5,494.6631" style="stroke: #000000; stroke-width: 1.0;"/><path d="M249.5,535.1231 L249.3781,535.1231 L249.4445,546.0491 L249.4461,556.9751 L249.5962,567.9011 L249.8048,578.8271 L249.5,589.7531 " fill="none" style="stroke: #000000; stroke-width: 1.0;"/><polygon fill="#000000" points="249.5,594.9031,249.4156,594.8656,250.3729,593.1355,251.1233,591.3135,251.8092,589.4628,252.649,587.6805,253.5,585.9031,253.4676,585.8708,252.6221,586.6253,252.008,587.6112,251.1783,588.3815,250.4085,589.2117,249.5,589.9031,249.4525,589.8556,248.7641,589.1672,247.8714,588.2745,247.1405,587.5436,246.4766,586.8797,245.5,585.9031,245.4369,585.8751,246.3469,587.724,247.0901,589.4987,247.9838,591.3404,248.9154,593.1988,249.5,594.9031" style="stroke: #000000; stroke-width: 1.0;"/></g></svg>