<?xml version="1.0" encoding="UTF-8" standalone="no"?><svg xmlns="http://www.w3.org/2000/svg" xmlns:xlink="http://www.w3.org/1999/xlink" contentScriptType="application/ecmascript" contentStyleType="text/css" height="651px" preserveAspectRatio="none" style="width:524px;height:651px;" version="1.1" viewBox="0 0 524 651" width="524px" zoomAndPan="magnify"><defs><filter height="300%" id="f7fe764" width="300%" x="-1" y="-1"><feGaussianBlur result="blurOut" stdDeviation="2.0"/><feColorMatrix in="blurOut" result="blurOut2" type="matrix" values="0 0 0 0 0 0 0 0 0 0 0 0 0 0 0 0 0 0 .4 0"/><feOffset dx="4.0" dy="4.0" in="blurOut2" result="blurOut3"/><feBlend in="SourceGraphic" in2="blurOut3" mode="normal"/></filter></defs><g><text fill="#000000" font-family="sans-serif" font-size="18" lengthAdjust="spacingAndGlyphs" textLength="99" x="217.5" y="17.4023">ユーザーAPI</text><!--class Api\UsersController--><polygon fill="#FEFECE" filter="url(#f7fe764)" points="122.5,29.1992,122.5,29.8382,132.38,28.8138,142.26,28.692,152.14,29.7631,162.02,29.559,171.9,29.6608,181.78,29.0813,191.66,29.4714,201.54,29.1791,211.42,29.3507,221.3,29.5129,231.18,29.3854,241.06,29.1183,250.94,29.3034,260.82,29.334,270.7,29.7978,280.58,29.6307,290.46,28.5386,300.34,29.6917,310.22,28.7147,320.1,28.9993,329.98,28.5589,339.86,29.2025,349.74,29.328,359.62,29.3046,369.5,29.1992,368.7638,29.1992,368.9196,39.4688,369.0914,49.7383,369.1194,60.0078,370.1013,70.2773,369.9238,80.5469,369.7686,90.8164,370.0266,101.0859,369.0716,111.3555,369.6227,121.625,369.0818,131.8945,369.5285,142.1641,369.593,152.4336,370.2095,162.7031,369.5,172.9727,369.5,173.056,359.62,173.4181,349.74,172.4845,339.86,172.5756,329.98,172.9731,320.1,172.6602,310.22,173.276,300.34,173.1481,290.46,173.1392,280.58,172.9061,270.7,173.4893,260.82,173.4069,250.94,173.4834,241.06,172.4919,231.18,172.924,221.3,173.6968,211.42,172.5883,201.54,173.3835,191.66,172.5865,181.78,173.6519,171.9,172.7349,162.02,172.6779,152.14,172.8624,142.26,173.2361,132.38,172.3456,122.5,172.9727,121.8829,172.9727,122.0873,162.7031,122.3054,152.4336,122.3332,142.1641,122.5116,131.8945,122.0521,121.625,121.9477,111.3555,121.8181,101.0859,121.7842,90.8164,122.4248,80.5469,121.9077,70.2773,121.9753,60.0078,122.6588,49.7383,122.8189,39.4688,122.5,29.1992" style="stroke: #A80036; stroke-width: 1.5;"/><text fill="#000000" font-family="sans-serif" font-size="12" lengthAdjust="spacingAndGlyphs" textLength="113" x="189.5" y="45.8008">Api\UsersController</text><path d="M123.5,53.332 L123.5,53.8176 L133.3,53.4932 L143.1,53.2754 L152.9,52.9605 L162.7,52.8905 L172.5,53.9758 L182.3,52.7612 L192.1,53.706 L201.9,52.5408 L211.7,52.6514 L221.5,52.5545 L231.3,53.1026 L241.1,52.8177 L250.9,53.5125 L260.7,53.2984 L270.5,53.9987 L280.3,53.6076 L290.1,54.0978 L299.9,53.5581 L309.7,53.5467 L319.5,53.1228 L329.3,52.3765 L339.1,53.8872 L348.9,54.0065 L358.7,53.488 L368.5,53.332 " fill="#FEFECE" style="stroke: #A80036; stroke-width: 1.5;"/><text fill="#000000" font-family="sans-serif" font-size="11" lengthAdjust="spacingAndGlyphs" textLength="151" x="128.5" y="67.9668">+AuthenticationComponent</text><path d="M123.5,74.2871 L123.5,74.835 L133.3,74.2865 L143.1,73.9078 L152.9,74.3437 L162.7,73.9892 L172.5,73.542 L182.3,73.4416 L192.1,73.4391 L201.9,73.5053 L211.7,73.9343 L221.5,74.8815 L231.3,73.9084 L241.1,75.0286 L250.9,75.2775 L260.7,74.7177 L270.5,75.1085 L280.3,75.0244 L290.1,74.493 L299.9,73.3622 L309.7,73.8649 L319.5,74.0969 L329.3,74.6373 L339.1,74.4138 L348.9,73.401 L358.7,73.5904 L368.5,74.2871 " fill="#FEFECE" style="stroke: #A80036; stroke-width: 1.5;"/><text fill="#000000" font-family="sans-serif" font-size="11" lengthAdjust="spacingAndGlyphs" textLength="99" x="128.5" y="88.9219">+ログイン：login()</text><text fill="#000000" font-family="sans-serif" font-size="11" lengthAdjust="spacingAndGlyphs" textLength="235" x="128.5" y="101.877">+リフレッシュトークン取得：refresh_token()</text><text fill="#000000" font-family="sans-serif" font-size="11" lengthAdjust="spacingAndGlyphs" textLength="168" x="128.5" y="114.832">+ユーザー情報一覧取得：index()</text><text fill="#000000" font-family="sans-serif" font-size="11" lengthAdjust="spacingAndGlyphs" textLength="161" x="128.5" y="127.7871">+単一ユーザー情報取得：view()</text><text fill="#000000" font-family="sans-serif" font-size="11" lengthAdjust="spacingAndGlyphs" textLength="136" x="128.5" y="140.7422">+ユーザー情報登録：add()</text><text fill="#000000" font-family="sans-serif" font-size="11" lengthAdjust="spacingAndGlyphs" textLength="136" x="128.5" y="153.6973">+ユーザー情報編集：edit()</text><text fill="#000000" font-family="sans-serif" font-size="11" lengthAdjust="spacingAndGlyphs" textLength="148" x="128.5" y="166.6523">+ユーザー情報削除：delete()</text><!--class UserService--><polygon fill="#FEFECE" filter="url(#f7fe764)" points="205.5,259.1992,205.5,259.4973,215.625,259.5674,225.75,259.2322,235.875,259.296,246,259.0214,256.125,259.7673,266.25,258.6071,276.375,258.664,286.5,259.1992,286.5992,259.1992,287.0516,269.8168,286.8338,280.4344,286.1396,291.052,287.0013,301.6695,286.5,312.2871,286.5,313.0225,276.375,311.957,266.25,312.9983,256.125,311.6333,246,311.9291,235.875,312.3255,225.75,312.5574,215.625,312.8878,205.5,312.2871,205.3618,312.2871,205.5763,301.6695,205.5947,291.052,205.1345,280.4344,204.8788,269.8168,205.5,259.1992" style="stroke: #A80036; stroke-width: 1.5;"/><text fill="#000000" font-family="sans-serif" font-size="12" lengthAdjust="spacingAndGlyphs" textLength="66" x="213" y="275.8008">UserService</text><path d="M206.5,283.332 L206.5,282.8433 L216.375,283.7495 L226.25,283.5342 L236.125,283.9684 L246,282.505 L255.875,282.8947 L265.75,284.1069 L275.625,282.7111 L285.5,283.332 " fill="#FEFECE" style="stroke: #A80036; stroke-width: 1.5;"/><text fill="#000000" font-family="sans-serif" font-size="11" lengthAdjust="spacingAndGlyphs" textLength="69" x="211.5" y="297.9668">+UsersTable</text><path d="M206.5,304.2871 L206.5,303.914 L216.375,304.2551 L226.25,304.3676 L236.125,303.5219 L246,303.3712 L255.875,303.3439 L265.75,305.2238 L275.625,304.3181 L285.5,304.2871 " fill="#FEFECE" style="stroke: #A80036; stroke-width: 1.5;"/><!--class UserServiceInterface--><polygon fill="#FEFECE" filter="url(#f7fe764)" points="6,233.1992,6,232.5291,16.25,233.3125,26.5,233.2996,36.75,233.0271,47,233.0958,57.25,232.5405,67.5,232.6798,77.75,232.9083,88,233.6074,98.25,233.9306,108.5,232.7897,118.75,233.1263,129,233.3119,139.25,233.4427,149.5,232.9676,159.75,233.3968,170,233.1992,169.5224,233.1992,170.6832,243.69,169.7214,254.1809,169.9351,264.6717,169.8174,275.1625,169.9924,285.6533,170.3098,296.1441,170.0348,306.635,169.9761,317.1258,169.6247,327.6166,170,338.1074,170,338.2259,159.75,338.201,149.5,337.9904,139.25,337.691,129,337.3814,118.75,338.4565,108.5,338.7422,98.25,338.0375,88,337.9623,77.75,338.4198,67.5,338.2989,57.25,338.4739,47,337.4375,36.75,338.7119,26.5,338.0043,16.25,337.9951,6,338.1074,5.2503,338.1074,5.3606,327.6166,6.7214,317.1258,5.4472,306.635,5.9132,296.1441,6.2553,285.6533,6.3655,275.1625,6.6255,264.6717,5.9218,254.1809,6.2139,243.69,6,233.1992" style="stroke: #A80036; stroke-width: 1.5;"/><text fill="#000000" font-family="sans-serif" font-size="12" lengthAdjust="spacingAndGlyphs" textLength="116" x="30" y="249.8008">UserServiceInterface</text><path d="M7,257.332 L7,257.4644 L17.125,256.5367 L27.25,256.6049 L37.375,258.2904 L47.5,256.5343 L57.625,256.4469 L67.75,257.5598 L77.875,256.3828 L88,258.1424 L98.125,257.5925 L108.25,257.3062 L118.375,257.6076 L128.5,257.1559 L138.625,256.6658 L148.75,257.8957 L158.875,257.2119 L169,257.332 " fill="#FEFECE" style="stroke: #A80036; stroke-width: 1.5;"/><path d="M7,265.332 L7,265.0274 L17.125,264.374 L27.25,265.467 L37.375,266.1073 L47.5,265.3212 L57.625,264.573 L67.75,265.404 L77.875,265.34 L88,264.3493 L98.125,265.4344 L108.25,264.7211 L118.375,265.3697 L128.5,265.8755 L138.625,264.776 L148.75,264.761 L158.875,264.8152 L169,265.332 " fill="#FEFECE" style="stroke: #A80036; stroke-width: 1.5;"/><text fill="#000000" font-family="sans-serif" font-size="11" lengthAdjust="spacingAndGlyphs" textLength="83" x="12" y="279.9668">+作成：create()</text><text fill="#000000" font-family="sans-serif" font-size="11" lengthAdjust="spacingAndGlyphs" textLength="87" x="12" y="292.9219">+編集：update()</text><text fill="#000000" font-family="sans-serif" font-size="11" lengthAdjust="spacingAndGlyphs" textLength="122" x="12" y="305.877">+単一データ取得：get()</text><text fill="#000000" font-family="sans-serif" font-size="11" lengthAdjust="spacingAndGlyphs" textLength="152" x="12" y="318.832">+一覧データ取得：getIndex()</text><text fill="#000000" font-family="sans-serif" font-size="11" lengthAdjust="spacingAndGlyphs" textLength="144" x="12" y="331.7871">+初期データ取得：getNew()</text><!--class UsersTable--><polygon fill="#FEFECE" filter="url(#f7fe764)" points="210.5,398.1992,210.5,398.1987,220.6429,398.2099,230.7857,398.6919,240.9286,398.6579,251.0714,398.2548,261.2143,397.9057,271.3571,398.9319,281.5,398.1992,281.4777,398.1992,281.4744,406.2258,281.3566,414.2523,281.3919,422.2789,281.396,430.3055,281.5,438.332,281.5,438.5809,271.3571,438.3644,261.2143,438.1466,251.0714,438.1339,240.9286,438.4184,230.7857,438.168,220.6429,438.9864,210.5,438.332,210.3501,438.332,210.4455,430.3055,210.2737,422.2789,210.6261,414.2523,210.3412,406.2258,210.5,398.1992" style="stroke: #A80036; stroke-width: 1.5;"/><text fill="#000000" font-family="sans-serif" font-size="12" lengthAdjust="spacingAndGlyphs" textLength="65" x="213.5" y="414.8008">UsersTable</text><path d="M211.5,422.332 L211.5,422.7072 L221.3571,423.206 L231.2143,423.0508 L241.0714,423.3244 L250.9286,422.3587 L260.7857,422.619 L270.6429,421.6419 L280.5,422.332 " fill="#FEFECE" style="stroke: #A80036; stroke-width: 1.5;"/><path d="M211.5,430.332 L211.5,431.2699 L221.3571,429.7855 L231.2143,431.2587 L241.0714,429.4773 L250.9286,430.0982 L260.7857,429.675 L270.6429,430.9628 L280.5,430.332 " fill="#FEFECE" style="stroke: #A80036; stroke-width: 1.5;"/><!--class User--><polygon fill="#FEFECE" filter="url(#f7fe764)" points="171.5,498.1992,171.5,498.1394,181.4333,497.4853,191.3667,498.5418,201.3,498.4737,211.2333,498.7044,221.1667,498.5794,231.1,497.5057,241.0333,497.4759,250.9667,498.5287,260.9,498.3635,270.8333,498.3052,280.7667,498.1819,290.7,498.4676,300.6333,498.7648,310.5667,498.2951,320.5,498.1992,319.9389,498.1992,320.0951,508.4688,320.8308,518.7383,319.9478,529.0078,320.2125,539.2773,320.6216,549.5469,320.2762,559.8164,320.7228,570.0859,319.956,580.3555,320.7061,590.625,320.1807,600.8945,320.8418,611.1641,319.8736,621.4336,320.5233,631.7031,320.5,641.9727,320.5,641.356,310.5667,642.4881,300.6333,642.4509,290.7,641.4282,280.7667,642.6628,270.8333,641.6847,260.9,642.6427,250.9667,641.6153,241.0333,642.5435,231.1,642.686,221.1667,642.3683,211.2333,642.0888,201.3,641.7989,191.3667,642.2055,181.4333,641.9223,171.5,641.9727,171.0295,641.9727,171.9376,631.7031,171.9481,621.4336,170.8603,611.1641,170.789,600.8945,171.6662,590.625,171.6294,580.3555,170.7622,570.0859,171.3832,559.8164,172.1592,549.5469,170.8313,539.2773,171.6951,529.0078,170.9094,518.7383,170.8296,508.4688,171.5,498.1992" style="stroke: #A80036; stroke-width: 1.5;"/><text fill="#000000" font-family="sans-serif" font-size="12" lengthAdjust="spacingAndGlyphs" textLength="26" x="233" y="514.8008">User</text><path d="M172.5,522.332 L172.5,522.1301 L182.3,521.5121 L192.1,522.5879 L201.9,523.1628 L211.7,521.4405 L221.5,522.6751 L231.3,521.6602 L241.1,521.6015 L250.9,522.4564 L260.7,521.9332 L270.5,521.859 L280.3,523.1039 L290.1,522.6597 L299.9,521.6097 L309.7,521.477 L319.5,522.332 " fill="#FEFECE" style="stroke: #A80036; stroke-width: 1.5;"/><text fill="#000000" font-family="sans-serif" font-size="11" lengthAdjust="spacingAndGlyphs" textLength="115" x="177.5" y="536.9668">+アカウント名：name</text><text fill="#000000" font-family="sans-serif" font-size="11" lengthAdjust="spacingAndGlyphs" textLength="127" x="177.5" y="549.9219">+パスワード：password</text><text fill="#000000" font-family="sans-serif" font-size="11" lengthAdjust="spacingAndGlyphs" textLength="99" x="177.5" y="562.877">+性：real_name_1</text><text fill="#000000" font-family="sans-serif" font-size="11" lengthAdjust="spacingAndGlyphs" textLength="99" x="177.5" y="575.832">+名：real_name_2</text><text fill="#000000" font-family="sans-serif" font-size="11" lengthAdjust="spacingAndGlyphs" textLength="125" x="177.5" y="588.7871">+メールアドレス：email</text><text fill="#000000" font-family="sans-serif" font-size="11" lengthAdjust="spacingAndGlyphs" textLength="137" x="177.5" y="601.7422">+ニックネーム：nickname</text><text fill="#000000" font-family="sans-serif" font-size="11" lengthAdjust="spacingAndGlyphs" textLength="93" x="177.5" y="614.6973">+登録日：created</text><text fill="#000000" font-family="sans-serif" font-size="11" lengthAdjust="spacingAndGlyphs" textLength="100" x="177.5" y="627.6523">+編集日：modified</text><path d="M172.5,633.9727 L172.5,634.044 L182.3,633.7592 L192.1,633.2235 L201.9,633.0999 L211.7,633.2652 L221.5,633.5719 L231.3,632.9837 L241.1,633.4383 L250.9,634.3463 L260.7,633.4172 L270.5,634.5169 L280.3,633.2604 L290.1,634.2854 L299.9,633.6104 L309.7,634.0868 L319.5,633.9727 " fill="#FEFECE" style="stroke: #A80036; stroke-width: 1.5;"/><!--class Adpi\UsersController--><polygon fill="#FEFECE" filter="url(#f7fe764)" points="388.5,265.6992,388.5,265.0712,398.2692,266.3228,408.0385,265.3771,417.8077,266.1985,427.5769,266.333,437.3462,266.2016,447.1154,266.3259,456.8846,265.451,466.6538,265.1891,476.4231,265.5439,486.1923,265.4679,495.9615,265.5111,505.7308,266.1372,515.5,265.6992,515.57,265.6992,515.4558,273.7258,515.3533,281.7523,515.5295,289.7789,515.6525,297.8055,515.5,305.832,515.5,306.2651,505.7308,306.2777,495.9615,305.4167,486.1923,306.1509,476.4231,305.8573,466.6538,306.2599,456.8846,305.5191,447.1154,305.5818,437.3462,306.1077,427.5769,305.9041,417.8077,306.1862,408.0385,305.2496,398.2692,305.0932,388.5,305.832,388.3254,305.832,388.7034,297.8055,388.4817,289.7789,388.282,281.7523,388.5177,273.7258,388.5,265.6992" style="stroke: #A80036; stroke-width: 1.5;"/><text fill="#000000" font-family="sans-serif" font-size="12" lengthAdjust="spacingAndGlyphs" textLength="121" x="391.5" y="282.3008">Adpi\UsersController</text><path d="M389.5,289.832 L389.5,290.6759 L399.1154,290.6649 L408.7308,290.5611 L418.3462,290.03 L427.9615,289.6382 L437.5769,290.1439 L447.1923,289.6633 L456.8077,290.4853 L466.4231,289.7266 L476.0385,290.2812 L485.6538,290.4179 L495.2692,290.5872 L504.8846,289.3235 L514.5,289.832 " fill="#FEFECE" style="stroke: #A80036; stroke-width: 1.5;"/><path d="M389.5,297.832 L389.5,298.5366 L399.1154,297.0836 L408.7308,298.7833 L418.3462,298.2862 L427.9615,298.4786 L437.5769,298.2799 L447.1923,297.0825 L456.8077,296.9364 L466.4231,297.7231 L476.0385,297.5981 L485.6538,296.9623 L495.2692,298.2279 L504.8846,297.9522 L514.5,297.832 " fill="#FEFECE" style="stroke: #A80036; stroke-width: 1.5;"/><!--class BcApiController--><polygon fill="#FEFECE" filter="url(#f7fe764)" points="405,81.1992,405,81.4627,415.4444,81.1669,425.8889,80.8244,436.3333,80.6314,446.7778,81.6167,457.2222,80.9094,467.6667,81.7637,478.1111,80.7368,488.5556,80.5886,499,81.1992,498.7806,81.1992,499.1344,89.2258,499.1106,97.2523,499.0505,105.2789,499.1435,113.3055,499,121.332,499,121.5344,488.5556,120.9377,478.1111,121.3869,467.6667,121.8165,457.2222,121.4389,446.7778,120.6267,436.3333,121.4483,425.8889,121.6313,415.4444,121.1528,405,121.332,404.8066,121.332,404.9223,113.3055,404.9687,105.2789,405.0434,97.2523,404.8202,89.2258,405,81.1992" style="stroke: #A80036; stroke-width: 1.5;"/><text fill="#000000" font-family="sans-serif" font-size="12" lengthAdjust="spacingAndGlyphs" textLength="88" x="408" y="97.8008">BcApiController</text><path d="M406,105.332 L406,105.4255 L416.2222,104.6388 L426.4444,104.4673 L436.6667,105.4915 L446.8889,105.6019 L457.1111,104.7932 L467.3333,105.0348 L477.5556,105.931 L487.7778,104.9737 L498,105.332 " fill="#FEFECE" style="stroke: #A80036; stroke-width: 1.5;"/><path d="M406,113.332 L406,113.128 L416.2222,112.7944 L426.4444,112.8748 L436.6667,113.875 L446.8889,114.0303 L457.1111,113.1627 L467.3333,114.0968 L477.5556,113.782 L487.7778,112.4376 L498,113.332 " fill="#FEFECE" style="stroke: #A80036; stroke-width: 1.5;"/><path d="M246,173.2792 L245.9421,173.2792 L245.6872,183.3655 L245.3305,193.4517 L245.2744,203.538 L245.6538,213.6242 L246.8079,223.7105 L246.1283,233.7967 L246.3668,243.883 L246,253.9692 " fill="none" style="stroke: #000000; stroke-width: 1.0;"/><polygon fill="#000000" points="246,259.0992,245.8053,259.0127,246.5763,257.1998,247.3854,255.4039,248.3699,253.6858,249.3139,251.9499,250,250.0992,249.8993,249.9985,249.0274,250.7266,248.5106,251.8098,247.4951,252.3943,246.8003,253.2995,246,254.0992,245.9883,254.0875,245.1147,253.214,244.231,252.3302,243.5254,251.6246,242.8589,250.9581,242,250.0992,241.8666,250.0399,242.9576,251.9693,243.6966,253.7421,244.6244,255.599,245.0157,257.2173,246,259.0992" style="stroke: #000000; stroke-width: 1.0;"/><path d="M452,141.4392 L451.4414,141.4392 L451.4933,151.7776 L451.5491,162.1159 L451.0637,172.4542 L451.8759,182.7926 L452.166,193.1309 L451.7711,203.4692 L452.5021,213.8076 L452.0625,224.1459 L452.0563,234.4842 L452.7228,244.8226 L451.4003,255.1609 L452,265.4992 " fill="none" style="stroke: #000000; stroke-width: 1.0;"/><polygon fill="none" points="445,141.3892,445.1773,141.4513,446.6254,137.4681,447.7939,133.3871,449.1895,129.3855,450.5945,125.3873,452,121.3892,451.9331,121.3658,453.5278,125.4339,454.5796,129.3121,456.1115,133.3582,457.6397,137.4031,459,141.3892,459,141.2831,456.2,141.5713,453.4,141.336,450.6,141.3446,447.8,141.5674,445,141.3892" style="stroke: #000000; stroke-width: 1.0;"/><path d="M190.21,285.6992 L190.21,285.3933 L193.242,286.0042 L196.274,285.4519 L199.306,285.6774 L202.338,285.4795 L205.37,285.6992 " fill="none" style="stroke: #000000; stroke-width: 1.0; stroke-dasharray: 1.0,3.0;"/><polygon fill="none" points="190.09,292.6992,190.1675,292.9205,186.1434,291.4518,182.1432,290.0514,178.0797,288.4698,174.1378,287.2357,170.09,285.6992,170.1595,285.8977,174.045,284.1706,178.1057,282.9441,182.0164,281.2888,186.0842,280.0827,190.09,278.6992,190.0695,278.6992,190.1962,281.4992,190.2779,284.2992,190.0917,287.0992,189.8663,289.8992,190.09,292.6992" style="stroke: #000000; stroke-width: 1.0;"/><path d="M246,312.4792 L246.365,312.4792 L246.8149,322.4892 L245.2174,332.4992 L245.5377,342.5092 L245.7241,352.5192 L246.4666,362.5292 L246.9007,372.5392 L246.5279,382.5492 L246,392.5592 " fill="none" style="stroke: #000000; stroke-width: 1.0;"/><polygon fill="#000000" points="246,397.8392,246.153,397.9072,246.7624,396.0225,247.7884,394.323,248.5055,392.4861,249.2521,390.6624,250,388.8392,250.1437,388.9829,249.0476,389.4868,248.5739,390.6131,247.6511,391.2903,246.7246,391.9638,246,392.8392,245.9502,392.7894,245.0929,391.9321,244.4824,391.3217,243.6723,390.5116,242.8182,389.6574,242,388.8392,242.1984,388.9274,242.8057,390.6417,243.8242,392.5389,244.4268,394.2511,245.0487,395.972,246,397.8392" style="stroke: #000000; stroke-width: 1.0;"/><path d="M246,438.4992 L245.5088,438.4992 L246.5553,449.3712 L246.686,460.2432 L245.0469,471.1152 L246.5287,481.9872 L246,492.8592 " fill="none" style="stroke: #000000; stroke-width: 1.0;"/><polygon fill="#000000" points="246,497.9992,245.8072,497.9135,246.8303,496.2127,247.5766,494.3888,248.2751,492.5437,249.4121,490.8935,250,488.9992,249.9144,488.9137,249.3327,489.9319,248.3061,490.5054,247.4636,491.2628,246.6641,492.0633,246,492.9992,245.9694,492.9686,245.1334,492.1326,244.4342,491.4334,243.6425,490.6417,242.848,489.8472,242,488.9992,241.7839,488.9032,242.7225,490.7648,243.7928,492.6849,244.3564,494.3799,245.1203,496.1638,246,497.9992" style="stroke: #000000; stroke-width: 1.0;"/></g></svg>