<?xml version="1.0" encoding="UTF-8" standalone="no"?><svg xmlns="http://www.w3.org/2000/svg" xmlns:xlink="http://www.w3.org/1999/xlink" contentScriptType="application/ecmascript" contentStyleType="text/css" height="751px" preserveAspectRatio="none" style="width:378px;height:751px;" version="1.1" viewBox="0 0 378 751" width="378px" zoomAndPan="magnify"><defs><filter height="300%" id="fazo2f5" width="300%" x="-1" y="-1"><feGaussianBlur result="blurOut" stdDeviation="2.0"/><feColorMatrix in="blurOut" result="blurOut2" type="matrix" values="0 0 0 0 0 0 0 0 0 0 0 0 0 0 0 0 0 0 .4 0"/><feOffset dx="4.0" dy="4.0" in="blurOut2" result="blurOut3"/><feBlend in="SourceGraphic" in2="blurOut3" mode="normal"/></filter></defs><g><text fill="#000000" font-family="sans-serif" font-size="18" lengthAdjust="spacingAndGlyphs" textLength="99" x="144.5" y="17.4023">ユーザーAPI</text><!--class Admin\UsersController--><polygon fill="#FEFECE" filter="url(#fazo2f5)" points="122.5,129.1992,122.5,129.1008,132.38,128.8438,142.26,129.631,152.14,128.6114,162.02,128.5638,171.9,129.2884,181.78,129.5115,191.66,128.4986,201.54,128.4825,211.42,129.2338,221.3,128.586,231.18,129.6198,241.06,129.7391,250.94,128.8259,260.82,128.8406,270.7,129.4362,280.58,128.5624,290.46,128.4857,300.34,128.581,310.22,128.5625,320.1,129.6161,329.98,128.9518,339.86,129.8773,349.74,128.6196,359.62,129.8469,369.5,129.1992,368.9047,129.1992,369.6254,139.4688,369.1552,149.7383,369.558,160.0078,369.3961,170.2773,369.7074,180.5469,369.8095,190.8164,369.1248,201.0859,369.2532,211.3555,369.7943,221.625,368.8625,231.8945,369.1489,242.1641,368.8777,252.4336,368.8181,262.7031,369.5,272.9727,369.5,272.7723,359.62,272.376,349.74,272.2727,339.86,272.4212,329.98,272.4595,320.1,273.5207,310.22,272.5586,300.34,273.6058,290.46,272.5124,280.58,272.3635,270.7,272.9703,260.82,273.1507,250.94,272.7546,241.06,273.6767,231.18,272.8178,221.3,272.5885,211.42,273.4528,201.54,273.4247,191.66,273.4118,181.78,272.9249,171.9,273.0021,162.02,272.4176,152.14,273.6514,142.26,273.4584,132.38,273.6098,122.5,272.9727,122.6101,272.9727,122.5604,262.7031,121.7671,252.4336,122.8197,242.1641,122.7647,231.8945,121.798,221.625,122.403,211.3555,123.1844,201.0859,122.4813,190.8164,121.7799,180.5469,122.3115,170.2773,122.0135,160.0078,122.3596,149.7383,121.7718,139.4688,122.5,129.1992" style="stroke: #A80036; stroke-width: 1.5;"/><text fill="#000000" font-family="sans-serif" font-size="12" lengthAdjust="spacingAndGlyphs" textLength="131" x="180.5" y="145.8008">Admin\UsersController</text><path d="M123.5,153.332 L123.5,152.936 L133.3,154.1442 L143.1,152.3424 L152.9,153.4559 L162.7,153.9961 L172.5,152.9087 L182.3,152.3875 L192.1,153.9403 L201.9,153.4525 L211.7,153.7232 L221.5,153.5678 L231.3,152.3502 L241.1,153.7707 L250.9,153.2694 L260.7,152.3724 L270.5,152.5206 L280.3,152.4338 L290.1,153.3411 L299.9,153.3879 L309.7,153.843 L319.5,153.5895 L329.3,153.7332 L339.1,152.9989 L348.9,153.3231 L358.7,153.419 L368.5,153.332 " fill="#FEFECE" style="stroke: #A80036; stroke-width: 1.5;"/><text fill="#000000" font-family="sans-serif" font-size="11" lengthAdjust="spacingAndGlyphs" textLength="151" x="128.5" y="167.9668">+AuthenticationComponent</text><path d="M123.5,174.2871 L123.5,173.5171 L133.3,173.5998 L143.1,174.5336 L152.9,174.0394 L162.7,173.5833 L172.5,173.4683 L182.3,173.6161 L192.1,173.7891 L201.9,173.4768 L211.7,173.33 L221.5,174.4663 L231.3,175.2169 L241.1,173.3912 L250.9,173.7167 L260.7,173.9265 L270.5,173.7635 L280.3,174.0768 L290.1,173.8474 L299.9,173.5396 L309.7,174.3435 L319.5,175.0051 L329.3,174.5799 L339.1,174.8511 L348.9,173.4491 L358.7,174.655 L368.5,174.2871 " fill="#FEFECE" style="stroke: #A80036; stroke-width: 1.5;"/><text fill="#000000" font-family="sans-serif" font-size="11" lengthAdjust="spacingAndGlyphs" textLength="99" x="128.5" y="188.9219">+ログイン：login()</text><text fill="#000000" font-family="sans-serif" font-size="11" lengthAdjust="spacingAndGlyphs" textLength="235" x="128.5" y="201.877">+リフレッシュトークン取得：refresh_token()</text><text fill="#000000" font-family="sans-serif" font-size="11" lengthAdjust="spacingAndGlyphs" textLength="168" x="128.5" y="214.832">+ユーザー情報一覧取得：index()</text><text fill="#000000" font-family="sans-serif" font-size="11" lengthAdjust="spacingAndGlyphs" textLength="161" x="128.5" y="227.7871">+単一ユーザー情報取得：view()</text><text fill="#000000" font-family="sans-serif" font-size="11" lengthAdjust="spacingAndGlyphs" textLength="136" x="128.5" y="240.7422">+ユーザー情報登録：add()</text><text fill="#000000" font-family="sans-serif" font-size="11" lengthAdjust="spacingAndGlyphs" textLength="136" x="128.5" y="253.6973">+ユーザー情報編集：edit()</text><text fill="#000000" font-family="sans-serif" font-size="11" lengthAdjust="spacingAndGlyphs" textLength="148" x="128.5" y="266.6523">+ユーザー情報削除：delete()</text><!--class UserService--><polygon fill="#FEFECE" filter="url(#fazo2f5)" points="205.5,359.1992,205.5,359.9132,215.625,359.4425,225.75,359.921,235.875,358.8709,246,359.3038,256.125,359.0874,266.25,359.7708,276.375,359.1943,286.5,359.1992,286.9293,359.1992,286.3982,369.8168,287.0431,380.4344,286.8557,391.052,286.9743,401.6695,286.5,412.2871,286.5,411.8013,276.375,412.2743,266.25,411.5623,256.125,412.7529,246,412.62,235.875,412.4282,225.75,412.096,215.625,412.0813,205.5,412.2871,206.1669,412.2871,205.5891,401.6695,204.8577,391.052,205.7943,380.4344,205.1594,369.8168,205.5,359.1992" style="stroke: #A80036; stroke-width: 1.5;"/><text fill="#000000" font-family="sans-serif" font-size="12" lengthAdjust="spacingAndGlyphs" textLength="66" x="213" y="375.8008">UserService</text><path d="M206.5,383.332 L206.5,382.6261 L216.375,383.5508 L226.25,383.5182 L236.125,383.5923 L246,383.8128 L255.875,383.6562 L265.75,382.6118 L275.625,383.046 L285.5,383.332 " fill="#FEFECE" style="stroke: #A80036; stroke-width: 1.5;"/><text fill="#000000" font-family="sans-serif" font-size="11" lengthAdjust="spacingAndGlyphs" textLength="69" x="211.5" y="397.9668">+UsersTable</text><path d="M206.5,404.2871 L206.5,404.9494 L216.375,405.1336 L226.25,404.7656 L236.125,403.4513 L246,403.6678 L255.875,403.4863 L265.75,404.4099 L275.625,404.8548 L285.5,404.2871 " fill="#FEFECE" style="stroke: #A80036; stroke-width: 1.5;"/><!--class UserServiceInterface--><polygon fill="#FEFECE" filter="url(#fazo2f5)" points="6,333.1992,6,333.5009,16.25,332.8978,26.5,333.4588,36.75,333.4328,47,332.7349,57.25,333.3178,67.5,333.1864,77.75,333.7276,88,333.6539,98.25,333.293,108.5,333.8942,118.75,333.5737,129,333.2156,139.25,333.5852,149.5,333.8984,159.75,332.46,170,333.1992,169.6159,333.1992,170.0564,343.69,170.5525,354.1809,169.9405,364.6717,170.5519,375.1625,170.2462,385.6533,170.707,396.1441,170.3214,406.635,170.469,417.1258,170.3441,427.6166,170,438.1074,170,438.3788,159.75,437.7204,149.5,438.2286,139.25,437.3862,129,438.4536,118.75,438.5778,108.5,438.3121,98.25,438.8289,88,438.2488,77.75,437.6685,67.5,437.7823,57.25,438.5256,47,437.9261,36.75,437.9037,26.5,437.5067,16.25,437.8134,6,438.1074,5.2593,438.1074,5.9345,427.6166,5.6939,417.1258,5.9808,406.635,5.7216,396.1441,6.3622,385.6533,5.2606,375.1625,6.4979,364.6717,6.6458,354.1809,6.1047,343.69,6,333.1992" style="stroke: #A80036; stroke-width: 1.5;"/><text fill="#000000" font-family="sans-serif" font-size="12" lengthAdjust="spacingAndGlyphs" textLength="116" x="30" y="349.8008">UserServiceInterface</text><path d="M7,357.332 L7,356.3591 L17.125,357.8459 L27.25,356.8766 L37.375,357.3294 L47.5,357.7784 L57.625,357.5224 L67.75,358.1972 L77.875,356.6409 L88,357.1611 L98.125,358.2343 L108.25,358.1627 L118.375,356.8411 L128.5,357.8619 L138.625,357.4672 L148.75,357.8465 L158.875,356.4844 L169,357.332 " fill="#FEFECE" style="stroke: #A80036; stroke-width: 1.5;"/><path d="M7,365.332 L7,365.4251 L17.125,366.1195 L27.25,365.2914 L37.375,365.5697 L47.5,364.4948 L57.625,364.6986 L67.75,365.4682 L77.875,365.8681 L88,365.521 L98.125,364.6924 L108.25,365.8774 L118.375,366.1663 L128.5,366.3308 L138.625,364.8775 L148.75,365.2607 L158.875,365.8322 L169,365.332 " fill="#FEFECE" style="stroke: #A80036; stroke-width: 1.5;"/><text fill="#000000" font-family="sans-serif" font-size="11" lengthAdjust="spacingAndGlyphs" textLength="83" x="12" y="379.9668">+作成：create()</text><text fill="#000000" font-family="sans-serif" font-size="11" lengthAdjust="spacingAndGlyphs" textLength="87" x="12" y="392.9219">+編集：update()</text><text fill="#000000" font-family="sans-serif" font-size="11" lengthAdjust="spacingAndGlyphs" textLength="122" x="12" y="405.877">+単一データ取得：get()</text><text fill="#000000" font-family="sans-serif" font-size="11" lengthAdjust="spacingAndGlyphs" textLength="152" x="12" y="418.832">+一覧データ取得：getIndex()</text><text fill="#000000" font-family="sans-serif" font-size="11" lengthAdjust="spacingAndGlyphs" textLength="144" x="12" y="431.7871">+初期データ取得：getNew()</text><!--class UsersTable--><polygon fill="#FEFECE" filter="url(#fazo2f5)" points="210.5,498.1992,210.5,498.7789,220.6429,498.0706,230.7857,498.2958,240.9286,497.7899,251.0714,498.2979,261.2143,497.627,271.3571,498.4912,281.5,498.1992,281.3736,498.1992,281.7212,506.2258,281.4721,514.2523,281.3328,522.2789,281.7438,530.3055,281.5,538.332,281.5,538.7321,271.3571,537.6991,261.2143,538.6854,251.0714,538.3953,240.9286,538.2143,230.7857,538.216,220.6429,538.6853,210.5,538.332,210.346,538.332,210.6773,530.3055,210.7374,522.2789,210.3259,514.2523,210.4755,506.2258,210.5,498.1992" style="stroke: #A80036; stroke-width: 1.5;"/><text fill="#000000" font-family="sans-serif" font-size="12" lengthAdjust="spacingAndGlyphs" textLength="65" x="213.5" y="514.8008">UsersTable</text><path d="M211.5,522.332 L211.5,522.4806 L221.3571,521.8633 L231.2143,522.5569 L241.0714,523.1907 L250.9286,522.8582 L260.7857,521.7409 L270.6429,523.1465 L280.5,522.332 " fill="#FEFECE" style="stroke: #A80036; stroke-width: 1.5;"/><path d="M211.5,530.332 L211.5,529.443 L221.3571,530.4384 L231.2143,530.9967 L241.0714,530.7511 L250.9286,530.8945 L260.7857,530.014 L270.6429,529.8495 L280.5,530.332 " fill="#FEFECE" style="stroke: #A80036; stroke-width: 1.5;"/><!--class User--><polygon fill="#FEFECE" filter="url(#fazo2f5)" points="171.5,598.1992,171.5,598.2658,181.4333,598.3229,191.3667,598.4826,201.3,598.8034,211.2333,598.6033,221.1667,597.9605,231.1,598.7761,241.0333,597.6178,250.9667,598.0492,260.9,597.5447,270.8333,598.3301,280.7667,598.6128,290.7,597.4799,300.6333,598.7421,310.5667,597.7488,320.5,598.1992,320.7626,598.1992,320.9122,608.4688,319.9978,618.7383,320.7271,629.0078,319.8427,639.2773,320.5413,649.5469,320.953,659.8164,320.0109,670.0859,320.1354,680.3555,320.839,690.625,320.2327,700.8945,320.3294,711.1641,321.2431,721.4336,320.1697,731.7031,320.5,741.9727,320.5,742.3775,310.5667,742.1059,300.6333,742.3417,290.7,742.5716,280.7667,741.3179,270.8333,742.1067,260.9,741.7338,250.9667,742.4372,241.0333,741.4328,231.1,742.203,221.1667,742.645,211.2333,742.0772,201.3,741.4789,191.3667,741.6488,181.4333,742.2952,171.5,741.9727,172.0774,741.9727,171.2689,731.7031,171.484,721.4336,171.1813,711.1641,171.9624,700.8945,170.8186,690.625,170.7515,680.3555,172.1052,670.0859,171.6,659.8164,171.6687,649.5469,171.569,639.2773,171.9759,629.0078,171.4144,618.7383,171.4017,608.4688,171.5,598.1992" style="stroke: #A80036; stroke-width: 1.5;"/><text fill="#000000" font-family="sans-serif" font-size="12" lengthAdjust="spacingAndGlyphs" textLength="26" x="233" y="614.8008">User</text><path d="M172.5,622.332 L172.5,622.8562 L182.3,622.3139 L192.1,622.6872 L201.9,622.614 L211.7,622.6937 L221.5,621.8125 L231.3,621.7946 L241.1,622.1121 L250.9,623.0805 L260.7,623.0992 L270.5,622.2758 L280.3,622.348 L290.1,622.0926 L299.9,622.1072 L309.7,622.1602 L319.5,622.332 " fill="#FEFECE" style="stroke: #A80036; stroke-width: 1.5;"/><text fill="#000000" font-family="sans-serif" font-size="11" lengthAdjust="spacingAndGlyphs" textLength="115" x="177.5" y="636.9668">+アカウント名：name</text><text fill="#000000" font-family="sans-serif" font-size="11" lengthAdjust="spacingAndGlyphs" textLength="127" x="177.5" y="649.9219">+パスワード：password</text><text fill="#000000" font-family="sans-serif" font-size="11" lengthAdjust="spacingAndGlyphs" textLength="99" x="177.5" y="662.877">+性：real_name_1</text><text fill="#000000" font-family="sans-serif" font-size="11" lengthAdjust="spacingAndGlyphs" textLength="99" x="177.5" y="675.832">+名：real_name_2</text><text fill="#000000" font-family="sans-serif" font-size="11" lengthAdjust="spacingAndGlyphs" textLength="125" x="177.5" y="688.7871">+メールアドレス：email</text><text fill="#000000" font-family="sans-serif" font-size="11" lengthAdjust="spacingAndGlyphs" textLength="137" x="177.5" y="701.7422">+ニックネーム：nickname</text><text fill="#000000" font-family="sans-serif" font-size="11" lengthAdjust="spacingAndGlyphs" textLength="93" x="177.5" y="714.6973">+登録日：created</text><text fill="#000000" font-family="sans-serif" font-size="11" lengthAdjust="spacingAndGlyphs" textLength="100" x="177.5" y="727.6523">+編集日：modified</text><path d="M172.5,733.9727 L172.5,733.1913 L182.3,733.7459 L192.1,734.0621 L201.9,733.0743 L211.7,734.5493 L221.5,733.6816 L231.3,733.6847 L241.1,734.1043 L250.9,733.0399 L260.7,734.6088 L270.5,733.0126 L280.3,734.6052 L290.1,734.305 L299.9,733.9445 L309.7,733.476 L319.5,733.9727 " fill="#FEFECE" style="stroke: #A80036; stroke-width: 1.5;"/><!--class BcApiController--><polygon fill="#FEFECE" filter="url(#fazo2f5)" points="199,29.1992,199,29.0674,209.4444,28.9707,219.8889,29.2129,230.3333,28.562,240.7778,28.4578,251.2222,29.2658,261.6667,29.7423,272.1111,28.8097,282.5556,28.495,293,29.1992,293.1323,29.1992,293.1028,37.2258,292.7607,45.2523,292.8007,53.2789,292.9571,61.3055,293,69.332,293,69.141,282.5556,69.1124,272.1111,69.4878,261.6667,68.9326,251.2222,68.9225,240.7778,68.6598,230.3333,69.5674,219.8889,70.078,209.4444,68.7352,199,69.332,198.8747,69.332,199.0713,61.3055,199.2285,53.2789,198.9141,45.2523,198.8316,37.2258,199,29.1992" style="stroke: #A80036; stroke-width: 1.5;"/><text fill="#000000" font-family="sans-serif" font-size="12" lengthAdjust="spacingAndGlyphs" textLength="88" x="202" y="45.8008">BcApiController</text><path d="M200,53.332 L200,53.998 L210.2222,53.1758 L220.4444,53.3272 L230.6667,54.0853 L240.8889,53.0243 L251.1111,54.0368 L261.3333,52.5452 L271.5556,54.3089 L281.7778,53.7074 L292,53.332 " fill="#FEFECE" style="stroke: #A80036; stroke-width: 1.5;"/><path d="M200,61.332 L200,62.2193 L210.2222,60.4179 L220.4444,61.8189 L230.6667,61.3704 L240.8889,61.0295 L251.1111,61.4573 L261.3333,61.5569 L271.5556,60.3558 L281.7778,62.282 L292,61.332 " fill="#FEFECE" style="stroke: #A80036; stroke-width: 1.5;"/><path d="M246,273.2792 L246.8381,273.2792 L245.4737,283.3655 L245.4245,293.4517 L245.3025,303.538 L245.3364,313.6242 L245.3932,323.7105 L245.5078,333.7967 L245.8651,343.883 L246,353.9692 " fill="none" style="stroke: #000000; stroke-width: 1.0;"/><polygon fill="#000000" points="246,359.0992,246.1744,359.1767,246.6608,357.2373,247.3732,355.3984,248.3371,353.6712,249.2221,351.909,250,350.0992,250.1717,350.2709,249.3154,351.0146,248.2819,351.5811,247.5422,352.4414,246.8641,353.3633,246,354.0992,246.0326,354.1318,245.0569,353.1561,244.4467,352.546,243.4306,351.5298,242.9194,351.0186,242,350.0992,242.2187,350.1964,242.7275,351.867,243.6704,353.7305,244.2243,355.4211,245.1857,357.2929,246,359.0992" style="stroke: #000000; stroke-width: 1.0;"/><path d="M246,89.7192 L245.9185,89.7192 L246.0901,97.5752 L245.6946,105.4312 L246.0021,113.2872 L245.6788,121.1432 L246,128.9992 " fill="none" style="stroke: #000000; stroke-width: 1.0;"/><polygon fill="none" points="239,89.4992,239.2325,89.5806,240.3372,85.4772,241.8543,81.5182,243.4017,77.5698,244.6249,73.5079,246,69.4992,246.0233,69.5074,247.6087,73.5723,248.8485,77.5162,249.9947,81.4274,251.7528,85.5527,253,89.4992,253,89.2965,250.2,89.648,247.4,89.333,244.6,89.5448,241.8,89.468,239,89.4992" style="stroke: #000000; stroke-width: 1.0;"/><path d="M190.21,385.6992 L190.21,385.4422 L193.242,385.8982 L196.274,385.4713 L199.306,385.9307 L202.338,385.673 L205.37,385.6992 " fill="none" style="stroke: #000000; stroke-width: 1.0; stroke-dasharray: 1.0,3.0;"/><polygon fill="none" points="190.09,392.6992,190.0614,392.6176,186.0702,391.2427,182.1029,389.936,178.0694,388.4402,174.1633,387.3086,170.09,385.6992,170.1143,385.7686,174.1018,384.3331,178.0771,382.8623,182.1217,381.5897,186.15,380.2706,190.09,378.6992,189.994,378.6992,190.2692,381.4992,190.3334,384.2992,190.1653,387.0992,189.9241,389.8992,190.09,392.6992" style="stroke: #000000; stroke-width: 1.0;"/><path d="M246,412.4792 L246.2976,412.4792 L245.9954,422.4892 L246.806,432.4992 L245.5015,442.5092 L246.2026,452.5192 L246.8138,462.5292 L245.1501,472.5392 L246.2596,482.5492 L246,492.5592 " fill="none" style="stroke: #000000; stroke-width: 1.0;"/><polygon fill="#000000" points="246,497.8392,246.209,497.9321,246.707,495.9979,247.4586,494.1764,248.2645,492.379,249.0417,490.5689,250,488.8392,250.0801,488.9194,249.1964,489.6356,248.4076,490.4468,247.6749,491.3141,246.9743,492.2136,246,492.8392,246.1491,492.9883,245.1366,491.9758,244.3302,491.1694,243.6207,490.46,242.7349,489.5741,242,488.8392,242.1975,488.927,243.0012,490.7286,243.4907,492.3907,244.1889,494.1454,245.0834,495.9874,246,497.8392" style="stroke: #000000; stroke-width: 1.0;"/><path d="M246,538.4992 L245.0944,538.4992 L246.1872,549.3712 L245.5064,560.2432 L246.0734,571.1152 L246.4552,581.9872 L246,592.8592 " fill="none" style="stroke: #000000; stroke-width: 1.0;"/><polygon fill="#000000" points="246,597.9992,245.8419,597.9289,246.8328,596.2138,247.4608,594.3374,248.1975,592.5092,249.0771,590.7446,250,588.9992,250.1297,589.1289,249.0779,589.6771,248.3943,590.5935,247.5976,591.3968,246.7605,592.1597,246,592.9992,246.0999,593.0991,245.2323,592.2316,244.3299,591.3292,243.7755,590.7747,242.9566,589.9558,242,588.9992,241.9767,588.9889,242.7315,590.7688,243.54,592.5725,244.1942,594.3078,245.2531,596.2228,246,597.9992" style="stroke: #000000; stroke-width: 1.0;"/></g></svg>