<?xml version="1.0" encoding="UTF-8" standalone="no"?><svg xmlns="http://www.w3.org/2000/svg" xmlns:xlink="http://www.w3.org/1999/xlink" contentScriptType="application/ecmascript" contentStyleType="text/css" height="829px" preserveAspectRatio="none" style="width:366px;height:829px;" version="1.1" viewBox="0 0 366 829" width="366px" zoomAndPan="magnify"><defs><filter height="300%" id="fz5kf6w" width="300%" x="-1" y="-1"><feGaussianBlur result="blurOut" stdDeviation="2.0"/><feColorMatrix in="blurOut" result="blurOut2" type="matrix" values="0 0 0 0 0 0 0 0 0 0 0 0 0 0 0 0 0 0 .4 0"/><feOffset dx="4.0" dy="4.0" in="blurOut2" result="blurOut3"/><feBlend in="SourceGraphic" in2="blurOut3" mode="normal"/></filter></defs><g><text fill="#000000" font-family="sans-serif" font-size="18" lengthAdjust="spacingAndGlyphs" textLength="99" x="138" y="17.4023">ユーザーAPI</text><!--class Admin\UsersController--><polygon fill="#FEFECE" filter="url(#fz5kf6w)" points="122.5,129.1992,122.5,129.1888,132.6875,129.359,142.875,129.3351,153.0625,128.7875,163.25,129.5899,173.4375,128.8318,183.625,128.455,193.8125,129.5417,204,129.3435,214.1875,128.55,224.375,129.7942,234.5625,128.5654,244.75,128.7112,254.9375,129.1526,265.125,129.7344,275.3125,129.4466,285.5,129.1992,284.8134,129.1992,285.8372,139.4688,285.1995,149.7383,285.5225,160.0078,285.4697,170.2773,285.3789,180.5469,284.8592,190.8164,286.2485,201.0859,285.3932,211.3555,285.5372,221.625,284.846,231.8945,285.7693,242.1641,285.2038,252.4336,285.1045,262.7031,285.5,272.9727,285.5,272.779,275.3125,273.6855,265.125,273.5316,254.9375,273.1397,244.75,273.1667,234.5625,272.5929,224.375,272.8022,214.1875,273.3668,204,273.3282,193.8125,272.4588,183.625,272.4135,173.4375,273.5728,163.25,272.8737,153.0625,273.3591,142.875,273.3959,132.6875,273.5877,122.5,272.9727,121.7942,272.9727,122.7776,262.7031,122.0873,252.4336,122.3522,242.1641,123.2155,231.8945,121.9815,221.625,122.7445,211.3555,122.0874,201.0859,121.7729,190.8164,121.8078,180.5469,122.5437,170.2773,122.3486,160.0078,122.0375,149.7383,122.2262,139.4688,122.5,129.1992" style="stroke: #A80036; stroke-width: 1.5;"/><text fill="#000000" font-family="sans-serif" font-size="12" lengthAdjust="spacingAndGlyphs" textLength="131" x="138.5" y="145.8008">Admin\UsersController</text><path d="M123.5,153.332 L123.5,152.3793 L133.5625,152.621 L143.625,152.9078 L153.6875,153.296 L163.75,154.0016 L173.8125,153.0123 L183.875,154.2447 L193.9375,152.6191 L204,152.888 L214.0625,152.6755 L224.125,152.8594 L234.1875,152.5326 L244.25,154.137 L254.3125,152.4147 L264.375,152.9621 L274.4375,153.2496 L284.5,153.332 " fill="#FEFECE" style="stroke: #A80036; stroke-width: 1.5;"/><text fill="#000000" font-family="sans-serif" font-size="11" lengthAdjust="spacingAndGlyphs" textLength="151" x="128.5" y="167.9668">+AuthenticationComponent</text><path d="M123.5,174.2871 L123.5,174.3166 L133.5625,175.1912 L143.625,173.7039 L153.6875,173.4862 L163.75,174.4154 L173.8125,174.4228 L183.875,174.7541 L193.9375,174.9081 L204,175.1353 L214.0625,175.2477 L224.125,175.2695 L234.1875,174.8632 L244.25,173.8587 L254.3125,175.0651 L264.375,174.2151 L274.4375,175.1467 L284.5,174.2871 " fill="#FEFECE" style="stroke: #A80036; stroke-width: 1.5;"/><text fill="#000000" font-family="sans-serif" font-size="11" lengthAdjust="spacingAndGlyphs" textLength="52" x="128.5" y="188.9219">ログイン()</text><text fill="#000000" font-family="sans-serif" font-size="11" lengthAdjust="spacingAndGlyphs" textLength="140" x="128.5" y="201.877">リフレッシュトークン取得()</text><text fill="#000000" font-family="sans-serif" font-size="11" lengthAdjust="spacingAndGlyphs" textLength="118" x="128.5" y="214.832">ユーザー情報一覧取得()</text><text fill="#000000" font-family="sans-serif" font-size="11" lengthAdjust="spacingAndGlyphs" textLength="118" x="128.5" y="227.7871">単一ユーザー情報取得()</text><text fill="#000000" font-family="sans-serif" font-size="11" lengthAdjust="spacingAndGlyphs" textLength="96" x="128.5" y="240.7422">ユーザー情報登録()</text><text fill="#000000" font-family="sans-serif" font-size="11" lengthAdjust="spacingAndGlyphs" textLength="96" x="128.5" y="253.6973">ユーザー情報編集()</text><text fill="#000000" font-family="sans-serif" font-size="11" lengthAdjust="spacingAndGlyphs" textLength="96" x="128.5" y="266.6523">ユーザー情報削除()</text><!--class UserService--><polygon fill="#FEFECE" filter="url(#fz5kf6w)" points="163.5,365.6992,163.5,365.9338,173.625,365.5784,183.75,364.9734,193.875,365.5584,204,366.1873,214.125,365.2005,224.25,366.2145,234.375,365.5615,244.5,365.6992,243.938,365.6992,244.1423,376.3168,244.546,386.9344,244.8343,397.552,244.3071,408.1695,244.5,418.7871,244.5,418.4678,234.375,418.1864,224.25,419.3589,214.125,418.8114,204,419.2528,193.875,418.4269,183.75,418.1385,173.625,418.4859,163.5,418.7871,164.2105,418.7871,164.2309,408.1695,163.8932,397.552,162.7683,386.9344,163.0776,376.3168,163.5,365.6992" style="stroke: #A80036; stroke-width: 1.5;"/><text fill="#000000" font-family="sans-serif" font-size="12" lengthAdjust="spacingAndGlyphs" textLength="66" x="171" y="382.3008">UserService</text><path d="M164.5,389.832 L164.5,388.9628 L174.375,389.26 L184.25,389.6963 L194.125,390.0645 L204,389.4988 L213.875,389.4695 L223.75,390.8316 L233.625,389.9425 L243.5,389.832 " fill="#FEFECE" style="stroke: #A80036; stroke-width: 1.5;"/><text fill="#000000" font-family="sans-serif" font-size="11" lengthAdjust="spacingAndGlyphs" textLength="69" x="169.5" y="404.4668">+UsersTable</text><path d="M164.5,410.7871 L164.5,409.9457 L174.375,410.3568 L184.25,410.6756 L194.125,411.0726 L204,410.4054 L213.875,411.0584 L223.75,410.3164 L233.625,411.0705 L243.5,410.7871 " fill="#FEFECE" style="stroke: #A80036; stroke-width: 1.5;"/><!--class UserServiceInterface--><polygon fill="#FEFECE" filter="url(#fz5kf6w)" points="6,333.1992,6,333.2155,16.1667,333.3427,26.3333,333.6347,36.5,332.5334,46.6667,332.4619,56.8333,333.583,67,333.8601,77.1667,333.3899,87.3333,332.5643,97.5,332.6063,107.6667,332.901,117.8333,333.178,128,333.1992,128.2317,333.1992,127.3161,343.0212,128.3342,352.8431,127.313,362.665,128.3785,372.487,128.582,382.3089,127.7454,392.1309,128.5424,401.9528,128.0134,411.7747,128.0971,421.5967,128.1603,431.4186,128.4581,441.2406,128,451.0625,128,450.755,117.8333,451.5216,107.6667,450.4451,97.5,451.1564,87.3333,450.775,77.1667,450.3398,67,450.5615,56.8333,450.9406,46.6667,451.4187,36.5,450.736,26.3333,451.1428,16.1667,451.2876,6,451.0625,6.4529,451.0625,6.0408,441.2406,5.4411,431.4186,5.7377,421.5967,6.4507,411.7747,6.5387,401.9528,5.3876,392.1309,6.0553,382.3089,6.3214,372.487,5.726,362.665,6.3898,352.8431,5.4986,343.0212,6,333.1992" style="stroke: #A80036; stroke-width: 1.5;"/><text fill="#000000" font-family="sans-serif" font-size="12" lengthAdjust="spacingAndGlyphs" textLength="116" x="9" y="349.8008">UserServiceInterface</text><path d="M7,357.332 L7,358.1818 L17,358.2332 L27,357.6862 L37,356.7331 L47,356.7495 L57,356.5006 L67,357.0013 L77,357.1587 L87,357.0749 L97,358.2518 L107,357.0244 L117,357.9213 L127,357.332 " fill="#FEFECE" style="stroke: #A80036; stroke-width: 1.5;"/><path d="M7,365.332 L7,365.6791 L17,365.5135 L27,365.6734 L37,365.5587 L47,365.5078 L57,365.6897 L67,364.8812 L77,364.8613 L87,365.1462 L97,365.9032 L107,365.3844 L117,364.7575 L127,365.332 " fill="#FEFECE" style="stroke: #A80036; stroke-width: 1.5;"/><text fill="#000000" font-family="sans-serif" font-size="11" lengthAdjust="spacingAndGlyphs" textLength="30" x="12" y="379.9668">作成()</text><text fill="#000000" font-family="sans-serif" font-size="11" lengthAdjust="spacingAndGlyphs" textLength="30" x="12" y="392.9219">編集()</text><text fill="#000000" font-family="sans-serif" font-size="11" lengthAdjust="spacingAndGlyphs" textLength="85" x="12" y="405.877">単一データ取得()</text><text fill="#000000" font-family="sans-serif" font-size="11" lengthAdjust="spacingAndGlyphs" textLength="85" x="12" y="418.832">一覧データ取得()</text><text fill="#000000" font-family="sans-serif" font-size="11" lengthAdjust="spacingAndGlyphs" textLength="85" x="12" y="431.7871">初期データ取得()</text><text fill="#000000" font-family="sans-serif" font-size="11" lengthAdjust="spacingAndGlyphs" textLength="107" x="12" y="444.7422">トークンを取得する()</text><!--class UsersTable--><polygon fill="#FEFECE" filter="url(#fz5kf6w)" points="51,511.1992,51,511.6381,60.871,511.4063,70.7419,511.3666,80.6129,510.9336,90.4839,511.2365,100.3548,511.1831,110.2258,510.9721,120.0968,511.511,129.9677,511.1598,139.8387,511.6871,149.7097,511.8898,159.5806,511.7828,169.4516,510.6943,179.3226,511.1052,189.1935,511.4151,199.0645,511.3359,208.9355,510.8301,218.8065,511.859,228.6774,510.6597,238.5484,511.7253,248.4194,511.6563,258.2903,510.7876,268.1613,511.9165,278.0323,510.9397,287.9032,510.9267,297.7742,510.6024,307.6452,511.3748,317.5161,511.5743,327.3871,510.8932,337.2581,511.1243,347.129,511.0063,357,511.1992,356.7575,511.1992,356.7846,521.074,357.2765,530.9487,357.3584,540.8235,357.3781,550.6982,357.5823,560.573,356.3757,570.4478,357.1459,580.3225,357,590.1973,357,590.5461,347.129,590.522,337.2581,590.4705,327.3871,590.4447,317.5161,590.9464,307.6452,590.0001,297.7742,590.7749,287.9032,590.4208,278.0323,589.8213,268.1613,589.78,258.2903,590.639,248.4194,590.3799,238.5484,589.7622,228.6774,589.6123,218.8065,590.0145,208.9355,590.0228,199.0645,590.4363,189.1935,590.7187,179.3226,589.6408,169.4516,590.761,159.5806,589.6303,149.7097,590.3678,139.8387,590.4985,129.9677,589.608,120.0968,590.3392,110.2258,589.7606,100.3548,589.7508,90.4839,590.2847,80.6129,589.6615,70.7419,590.7466,60.871,589.9893,51,590.1973,51.1649,590.1973,51.0623,580.3225,51.0853,570.4478,51.228,560.573,50.5927,550.6982,50.7086,540.8235,51.1319,530.9487,51.2964,521.074,51,511.1992" style="stroke: #A80036; stroke-width: 1.5;"/><text fill="#000000" font-family="sans-serif" font-size="12" lengthAdjust="spacingAndGlyphs" textLength="65" x="171.5" y="527.8008">UsersTable</text><path d="M52,535.332 L52,536.167 L62.1333,535.2852 L72.2667,535.8018 L82.4,535.9888 L92.5333,535.9582 L102.6667,535.1162 L112.8,534.7243 L122.9333,535.4951 L133.0667,535.8632 L143.2,535.082 L153.3333,534.9153 L163.4667,534.7022 L173.6,534.948 L183.7333,535.9764 L193.8667,534.4441 L204,535.6563 L214.1333,535.4562 L224.2667,535.4787 L234.4,535.7361 L244.5333,534.6018 L254.6667,535.0896 L264.8,535.676 L274.9333,535.0229 L285.0667,534.7101 L295.2,535.0286 L305.3333,535.765 L315.4667,535.1197 L325.6,535.9119 L335.7333,535.8273 L345.8667,536.172 L356,535.332 " fill="#FEFECE" style="stroke: #A80036; stroke-width: 1.5;"/><path d="M52,543.332 L52,543.545 L62.1333,542.7545 L72.2667,542.3726 L82.4,543.8696 L92.5333,542.3926 L102.6667,543.8398 L112.8,542.3363 L122.9333,543.8933 L133.0667,543.9494 L143.2,543.7159 L153.3333,543.9765 L163.4667,542.9727 L173.6,542.8266 L183.7333,544.0992 L193.8667,542.7598 L204,543.7903 L214.1333,543.327 L224.2667,544.001 L234.4,544.0802 L244.5333,542.6711 L254.6667,543.9214 L264.8,543.7103 L274.9333,543.3377 L285.0667,543.4784 L295.2,543.0382 L305.3333,543.6538 L315.4667,542.821 L325.6,544.1533 L335.7333,543.8936 L345.8667,543.9111 L356,543.332 " fill="#FEFECE" style="stroke: #A80036; stroke-width: 1.5;"/><text fill="#000000" font-family="sans-serif" font-size="11" lengthAdjust="spacingAndGlyphs" textLength="228" x="57" y="557.9668">ユーザーに関連するよく使う項目を削除する()</text><text fill="#000000" font-family="sans-serif" font-size="11" lengthAdjust="spacingAndGlyphs" textLength="162" x="57" y="570.9219">利用可能なユーザーを取得する()</text><text fill="#000000" font-family="sans-serif" font-size="11" lengthAdjust="spacingAndGlyphs" textLength="294" x="57" y="583.877">ユーザーが許可されている認証プレフィックスを取得する()</text><!--class User--><polygon fill="#FEFECE" filter="url(#fz5kf6w)" points="111.5,650.1992,111.5,650.1007,121.2368,650.4655,130.9737,649.7986,140.7105,650.4038,150.4474,650.6958,160.1842,649.4623,169.9211,650.1528,179.6579,650.3376,189.3947,650.7776,199.1316,649.7437,208.8684,650.2331,218.6053,650.7745,228.3421,649.539,238.0789,650.3358,247.8158,650.6893,257.5526,649.6206,267.2895,650.6018,277.0263,650.8277,286.7632,650.0032,296.5,650.1992,296.1664,650.1992,295.998,660.1806,297.1543,670.162,296.9115,680.1434,296.6699,690.1248,296.8671,700.1062,295.8774,710.0875,295.9332,720.0689,296.4515,730.0503,296.5946,740.0317,296.3365,750.0131,297.0023,759.9945,296.4197,769.9759,296.9823,779.9573,296.1594,789.9386,295.8294,799.92,296.6729,809.9014,296.5,819.8828,296.5,819.9975,286.7632,819.4265,277.0263,820.0822,267.2895,819.6204,257.5526,819.8264,247.8158,819.4629,238.0789,819.407,228.3421,819.7237,218.6053,819.9269,208.8684,819.8057,199.1316,819.7955,189.3947,820.456,179.6579,820.0354,169.9211,819.397,160.1842,820.314,150.4474,819.9472,140.7105,820.5828,130.9737,819.4161,121.2368,820.2255,111.5,819.8828,111.0839,819.8828,111.7985,809.9014,110.9734,799.92,112.1104,789.9386,110.7762,779.9573,111.5199,769.9759,111.2455,759.9945,111.3438,750.0131,112.0587,740.0317,111.8292,730.0503,110.9686,720.0689,112.1481,710.0875,111.5438,700.1062,111.7032,690.1248,112.1376,680.1434,111.0063,670.162,111.1935,660.1806,111.5,650.1992" style="stroke: #A80036; stroke-width: 1.5;"/><text fill="#000000" font-family="sans-serif" font-size="12" lengthAdjust="spacingAndGlyphs" textLength="26" x="191" y="666.8008">User</text><path d="M112.5,674.332 L112.5,674.6869 L122.6667,673.8649 L132.8333,673.5206 L143,673.3701 L153.1667,673.9604 L163.3333,675.3069 L173.5,674.0075 L183.6667,675.1254 L193.8333,673.5929 L204,673.8404 L214.1667,674.1926 L224.3333,674.0443 L234.5,674.1177 L244.6667,675.0513 L254.8333,674.8656 L265,673.6847 L275.1667,674.8506 L285.3333,675.0489 L295.5,674.332 " fill="#FEFECE" style="stroke: #A80036; stroke-width: 1.5;"/><text fill="#000000" font-family="sans-serif" font-size="11" lengthAdjust="spacingAndGlyphs" textLength="75" x="117.5" y="688.9668">+アカウント名</text><text fill="#000000" font-family="sans-serif" font-size="11" lengthAdjust="spacingAndGlyphs" textLength="64" x="117.5" y="701.9219">+パスワード</text><text fill="#000000" font-family="sans-serif" font-size="11" lengthAdjust="spacingAndGlyphs" textLength="20" x="117.5" y="714.877">+性</text><text fill="#000000" font-family="sans-serif" font-size="11" lengthAdjust="spacingAndGlyphs" textLength="20" x="117.5" y="727.832">+名</text><text fill="#000000" font-family="sans-serif" font-size="11" lengthAdjust="spacingAndGlyphs" textLength="86" x="117.5" y="740.7871">+メールアドレス</text><text fill="#000000" font-family="sans-serif" font-size="11" lengthAdjust="spacingAndGlyphs" textLength="75" x="117.5" y="753.7422">+ニックネーム</text><text fill="#000000" font-family="sans-serif" font-size="11" lengthAdjust="spacingAndGlyphs" textLength="42" x="117.5" y="766.6973">+登録日</text><text fill="#000000" font-family="sans-serif" font-size="11" lengthAdjust="spacingAndGlyphs" textLength="42" x="117.5" y="779.6523">+編集日</text><path d="M112.5,785.9727 L112.5,786.0693 L122.6667,785.5833 L132.8333,785.1958 L143,786.6707 L153.1667,786.8443 L163.3333,785.8909 L173.5,786.8156 L183.6667,785.2049 L193.8333,785.5099 L204,786.0855 L214.1667,785.152 L224.3333,786.2069 L234.5,785.7643 L244.6667,785.6935 L254.8333,786.6028 L265,785.7863 L275.1667,786.8983 L285.3333,785.6891 L295.5,785.9727 " fill="#FEFECE" style="stroke: #A80036; stroke-width: 1.5;"/><text fill="#000000" font-family="sans-serif" font-size="11" lengthAdjust="spacingAndGlyphs" textLength="162" x="117.5" y="800.6074">管理ユーザーかどうか判定する()</text><text fill="#000000" font-family="sans-serif" font-size="11" lengthAdjust="spacingAndGlyphs" textLength="173" x="117.5" y="813.5625">整形されたユーザー名を取得する()</text><!--class BcApiController--><polygon fill="#FEFECE" filter="url(#fz5kf6w)" points="157,29.1992,157,29.5996,167.4444,29.2771,177.8889,29.7661,188.3333,29.8146,198.7778,29.4076,209.2222,29.7789,219.6667,28.6991,230.1111,28.5242,240.5556,28.5498,251,29.1992,250.8012,29.1992,251.2461,37.2258,250.7517,45.2523,251.1933,53.2789,251.0781,61.3055,251,69.332,251,69.7662,240.5556,69.3825,230.1111,69.7729,219.6667,69.7928,209.2222,68.9087,198.7778,69.47,188.3333,69.5727,177.8889,69.7382,167.4444,70.0767,157,69.332,156.9899,69.332,156.7613,61.3055,156.9987,53.2789,157.0658,45.2523,157.1451,37.2258,157,29.1992" style="stroke: #A80036; stroke-width: 1.5;"/><text fill="#000000" font-family="sans-serif" font-size="12" lengthAdjust="spacingAndGlyphs" textLength="88" x="160" y="45.8008">BcApiController</text><path d="M158,53.332 L158,53.6174 L168.2222,54.2172 L178.4444,53.5026 L188.6667,53.9508 L198.8889,53.3263 L209.1111,54.1388 L219.3333,53.4869 L229.5556,53.9466 L239.7778,52.5517 L250,53.332 " fill="#FEFECE" style="stroke: #A80036; stroke-width: 1.5;"/><path d="M158,61.332 L158,61.4258 L168.2222,61.1995 L178.4444,61.8253 L188.6667,61.9237 L198.8889,61.625 L209.1111,60.7785 L219.3333,61.0905 L229.5556,60.5879 L239.7778,60.8983 L250,61.332 " fill="#FEFECE" style="stroke: #A80036; stroke-width: 1.5;"/><path d="M204,273.3792 L203.6822,273.3792 L203.9645,283.0237 L204.5556,292.6681 L203.6933,302.3126 L204.4101,311.957 L203.2282,321.6014 L204.6289,331.2459 L204.197,340.8903 L203.6764,350.5348 L204,360.1792 " fill="none" style="stroke: #000000; stroke-width: 1.0;"/><polygon fill="#000000" points="204,365.3392,203.883,365.2872,204.832,363.5535,205.5204,361.7038,206.3127,359.9004,207.3926,358.2248,208,356.3392,207.9308,356.27,207.2808,357.22,206.3258,357.865,205.5343,358.6736,204.6616,359.4008,204,360.3392,203.8717,360.2109,203.3371,359.6763,202.3799,358.7191,201.7081,358.0473,200.9628,357.302,200,356.3392,199.9385,356.3119,200.7043,358.0967,201.8257,360.0395,202.5837,361.8209,203.184,363.5321,204,365.3392" style="stroke: #000000; stroke-width: 1.0;"/><path d="M204,89.7192 L203.7681,89.7192 L204.2567,97.5752 L203.9841,105.4312 L204.1313,113.2872 L204.0856,121.1432 L204,128.9992 " fill="none" style="stroke: #000000; stroke-width: 1.0;"/><polygon fill="none" points="197,89.4992,196.8466,89.4455,198.2504,85.4468,199.9042,81.5357,201.2189,77.5058,202.7713,73.5592,204,69.4992,204.1774,69.5613,205.3094,73.4675,206.6885,77.4602,208.3035,81.5355,209.7774,85.5613,211,89.4992,211,89.6556,208.2,89.5283,205.4,89.731,202.6,89.3721,199.8,89.313,197,89.4992" style="stroke: #000000; stroke-width: 1.0;"/><path d="M148.15,392.1992 L148.15,392.4348 L151.186,392.3234 L154.222,392.0989 L157.258,392.3531 L160.294,392.0208 L163.33,392.1992 " fill="none" style="stroke: #000000; stroke-width: 1.0; stroke-dasharray: 1.0,3.0;"/><polygon fill="none" points="148.01,399.1992,148.0265,399.2463,143.9877,397.7354,140.0379,396.4791,136.0812,395.2026,132.0693,393.7686,128.01,392.1992,128.0618,392.3473,131.9492,390.6254,135.9471,389.2195,140.0815,388.2035,143.9962,386.5598,148.01,385.1992,148.1095,385.1992,147.7686,387.9992,148.1866,390.7992,148.0836,393.5992,147.9383,396.3992,148.01,399.1992" style="stroke: #000000; stroke-width: 1.0;"/><path d="M204,419.0392 L203.0397,419.0392 L204.1864,428.677 L203.6074,438.3148 L204.9289,447.9526 L203.962,457.5903 L204.7192,467.2281 L203.3294,476.8659 L203.1584,486.5037 L203.2452,496.1414 L204,505.7792 " fill="none" style="stroke: #000000; stroke-width: 1.0;"/><polygon fill="#000000" points="204,510.9092,203.8624,510.848,204.7659,509.0941,205.7418,507.3722,206.4873,505.548,206.9871,503.6146,208,501.9092,207.8425,501.7517,207.3,502.8092,206.3961,503.5053,205.4433,504.1525,204.8068,505.1161,204,505.9092,203.9135,505.8227,203.29,505.1992,202.3279,504.2371,201.5879,503.4971,200.6293,502.5385,200,501.9092,200.0243,501.92,200.6573,503.6458,201.7956,505.5962,202.5615,507.381,203.3742,509.1867,204,510.9092" style="stroke: #000000; stroke-width: 1.0;"/><path d="M204,590.3992 L203.098,590.3992 L203.9565,601.2652 L203.264,612.1312 L203.1056,622.9972 L204.1111,633.8632 L204,644.7292 " fill="none" style="stroke: #000000; stroke-width: 1.0;"/><polygon fill="#000000" points="204,650.1192,203.9504,650.0972,204.7605,648.3017,205.4505,646.4528,206.2086,644.6342,207.169,642.9055,208,641.1192,208.1559,641.2751,207.2202,641.9394,206.2743,642.5935,205.5015,643.4207,204.7661,644.2853,204,645.1192,203.9544,645.0736,203.2572,644.3764,202.3473,643.4666,201.6032,642.7224,200.8048,641.9241,200,641.1192,199.8924,641.0714,200.7854,642.9127,201.6522,644.7424,202.568,646.5939,203.2427,648.3382,204,650.1192" style="stroke: #000000; stroke-width: 1.0;"/></g></svg>