<?xml version="1.0" encoding="UTF-8" standalone="no"?><svg xmlns="http://www.w3.org/2000/svg" xmlns:xlink="http://www.w3.org/1999/xlink" contentScriptType="application/ecmascript" contentStyleType="text/css" height="1442px" preserveAspectRatio="none" style="width:645px;height:1442px;" version="1.1" viewBox="0 0 645 1442" width="645px" zoomAndPan="magnify"><defs><filter height="300%" id="fgeitaz" width="300%" x="-1" y="-1"><feGaussianBlur result="blurOut" stdDeviation="2.0"/><feColorMatrix in="blurOut" result="blurOut2" type="matrix" values="0 0 0 0 0 0 0 0 0 0 0 0 0 0 0 0 0 0 .4 0"/><feOffset dx="4.0" dy="4.0" in="blurOut2" result="blurOut3"/><feBlend in="SourceGraphic" in2="blurOut3" mode="normal"/></filter></defs><g><text fill="#000000" font-family="sans-serif" font-size="18" lengthAdjust="spacingAndGlyphs" textLength="155" x="249.5" y="16.708">コンテンツ管理API</text><!--class Api\ContentsController--><polygon fill="#FEFECE" filter="url(#fgeitaz)" points="15.5,128.9531,15.5,129.0025,25.56,129.2572,35.62,129.3976,45.68,128.4778,55.74,128.2707,65.8,128.5684,75.86,128.5951,85.92,128.266,95.98,128.7079,106.04,129.6638,116.1,128.6943,126.16,128.7931,136.22,128.4605,146.28,129.534,156.34,129.2114,166.4,129.3436,176.46,129.4062,186.52,129.6668,196.58,128.2252,206.64,128.8894,216.7,128.815,226.76,129.5641,236.82,129.1375,246.88,128.6105,256.94,129.1415,267,128.4763,277.06,128.3129,287.12,129.2655,297.18,128.7967,307.24,128.2636,317.3,129.3978,327.36,128.747,337.42,129.5467,347.48,129.0668,357.54,128.5158,367.6,128.586,377.66,128.3041,387.72,129.1887,397.78,128.5112,407.84,129.3077,417.9,128.5355,427.96,128.761,438.02,128.9675,448.08,129.3755,458.14,128.7829,468.2,129.4014,478.26,129.3551,488.32,128.5075,498.38,128.9073,508.44,129.6436,518.5,128.9531,518.4244,128.9531,518.4336,139.1549,519.1471,149.3568,519.0057,159.5586,518.4142,169.7604,518.2886,179.9622,518.5151,190.1641,518.2192,200.3659,518.9996,210.5677,517.9664,220.7695,518.6415,230.9714,519.0668,241.1732,518.705,251.375,518.9758,261.5768,517.9429,271.7786,519.0282,281.9805,518.1705,292.1823,519.0378,302.3841,518.3918,312.5859,518.9218,322.7878,518.2762,332.9896,518.9359,343.1914,517.751,353.3932,518.5423,363.5951,518.5,373.7969,518.5,373.9312,508.44,373.2245,498.38,373.667,488.32,373.6748,478.26,373.4673,468.2,373.9379,458.14,373.6253,448.08,373.944,438.02,373.1436,427.96,374.0478,417.9,374.0662,407.84,373.8524,397.78,374.2931,387.72,373.6003,377.66,374.4563,367.6,373.5799,357.54,374.0209,347.48,374.1289,337.42,373.7202,327.36,373.5757,317.3,374.2004,307.24,373.1833,297.18,374.2496,287.12,374.255,277.06,373.7374,267,374.0782,256.94,374.1543,246.88,374.1629,236.82,374.5015,226.76,374.0493,216.7,374.329,206.64,373.0959,196.58,373.1261,186.52,373.0964,176.46,373.936,166.4,374.048,156.34,373.7609,146.28,374.0831,136.22,374.2649,126.16,374.1798,116.1,373.8193,106.04,374.1568,95.98,373.6134,85.92,373.2914,75.86,374.3014,65.8,373.2524,55.74,373.8499,45.68,373.5187,35.62,373.3881,25.56,373.8412,15.5,373.7969,15.3627,373.7969,14.8632,363.5951,15.4009,353.3932,14.8969,343.1914,15.8499,332.9896,14.8904,322.7878,16.0684,312.5859,15.9324,302.3841,16.1667,292.1823,15.2876,281.9805,15.1599,271.7786,15.2403,261.5768,16.1668,251.375,14.9198,241.1732,14.8646,230.9714,16.0711,220.7695,15.2359,210.5677,15.6267,200.3659,15.4069,190.1641,15.0105,179.9622,15.4353,169.7604,15.1988,159.5586,15.7138,149.3568,15.1727,139.1549,15.5,128.9531" style="stroke: #A80036; stroke-width: 1.5;"/><text fill="#000000" font-family="sans-serif" font-size="12" lengthAdjust="spacingAndGlyphs" textLength="141" x="196.5" y="145.0918">Api\ContentsController</text><path d="M16.5,152.9219 L16.5,153.4588 L26.52,151.9865 L36.54,152.2931 L46.56,152.3438 L56.58,153.0536 L66.6,153.2587 L76.62,152.7957 L86.64,153.3473 L96.66,152.1882 L106.68,152.8631 L116.7,152.7103 L126.72,153.1471 L136.74,152.5697 L146.76,152.7809 L156.78,152.5084 L166.8,152.3485 L176.82,153.1835 L186.84,152.9452 L196.86,153.5715 L206.88,152.1055 L216.9,153.2884 L226.92,153.4096 L236.94,152.7444 L246.96,153.5933 L256.98,152.535 L267,152.2301 L277.02,152.7522 L287.04,153.8375 L297.06,153.2914 L307.08,153.2089 L317.1,152.5093 L327.12,152.7045 L337.14,153.5043 L347.16,153.6963 L357.18,153.0614 L367.2,153.1213 L377.22,152.1112 L387.24,152.6251 L397.26,152.0576 L407.28,152.7942 L417.3,153.1416 L427.32,152.8758 L437.34,152.2426 L447.36,152.8346 L457.38,153.206 L467.4,151.9258 L477.42,153.4849 L487.44,152.7763 L497.46,152.0691 L507.48,152.5321 L517.5,152.9219 " fill="#FEFECE" style="stroke: #A80036; stroke-width: 1.5;"/><path d="M16.5,160.9219 L16.5,161.3275 L26.52,160.4823 L36.54,161.4402 L46.56,160.9285 L56.58,159.9494 L66.6,161.3897 L76.62,160.985 L86.64,161.6881 L96.66,161.7692 L106.68,160.4312 L116.7,160.8756 L126.72,160.0116 L136.74,161.7007 L146.76,161.7974 L156.78,160.9425 L166.8,161.743 L176.82,161.2876 L186.84,160.4663 L196.86,161.6773 L206.88,160.8997 L216.9,160.5983 L226.92,161.1308 L236.94,159.9595 L246.96,159.9236 L256.98,161.8547 L267,160.7891 L277.02,160.4398 L287.04,161.2151 L297.06,160.2963 L307.08,160.8451 L317.1,160.0118 L327.12,161.8098 L337.14,160.7499 L347.16,161.0722 L357.18,161.7373 L367.2,160.288 L377.22,160.7769 L387.24,161.253 L397.26,159.9666 L407.28,160.1775 L417.3,161.1156 L427.32,160.6889 L437.34,160.2031 L447.36,161.2182 L457.38,161.4105 L467.4,161.1048 L477.42,161.5097 L487.44,160.9012 L497.46,159.9423 L507.48,160.7352 L517.5,160.9219 " fill="#FEFECE" style="stroke: #A80036; stroke-width: 1.5;"/><text fill="#000000" font-family="sans-serif" font-size="11" lengthAdjust="spacingAndGlyphs" textLength="153" x="21.5" y="175.1323">+コンテンツ情報取得 : view()</text><text fill="#000000" font-family="sans-serif" font-size="11" lengthAdjust="spacingAndGlyphs" textLength="167" x="21.5" y="187.937">+ゴミ箱情報取得 : view_trash()</text><text fill="#000000" font-family="sans-serif" font-size="11" lengthAdjust="spacingAndGlyphs" textLength="180" x="21.5" y="200.7417">+コンテンツ一覧情報取得 : index()</text><text fill="#000000" font-family="sans-serif" font-size="11" lengthAdjust="spacingAndGlyphs" textLength="141" x="21.5" y="213.5464">+ゴミ箱に捨てる : delete()</text><text fill="#000000" font-family="sans-serif" font-size="11" lengthAdjust="spacingAndGlyphs" textLength="155" x="21.5" y="226.3511">+ゴミ箱削除 : delete_trash()</text><text fill="#000000" font-family="sans-serif" font-size="11" lengthAdjust="spacingAndGlyphs" textLength="188" x="21.5" y="239.1558">+ゴミ箱を空にする : trash_empty()</text><text fill="#000000" font-family="sans-serif" font-size="11" lengthAdjust="spacingAndGlyphs" textLength="127" x="21.5" y="251.9604">+コンテンツ編集 : edit()</text><text fill="#000000" font-family="sans-serif" font-size="11" lengthAdjust="spacingAndGlyphs" textLength="210" x="21.5" y="264.7651">+コンテンツを元に戻す : trash_return()</text><text fill="#000000" font-family="sans-serif" font-size="11" lengthAdjust="spacingAndGlyphs" textLength="211" x="21.5" y="277.5698">+公開状態を変更する : change_status()</text><text fill="#000000" font-family="sans-serif" font-size="11" lengthAdjust="spacingAndGlyphs" textLength="189" x="21.5" y="290.3745">+フルURLを取得する : get_full_url()</text><text fill="#000000" font-family="sans-serif" font-size="11" lengthAdjust="spacingAndGlyphs" textLength="294" x="21.5" y="303.1792">+指定したIDのコンテンツが存在するか確認する : exists()</text><text fill="#000000" font-family="sans-serif" font-size="11" lengthAdjust="spacingAndGlyphs" textLength="355" x="21.5" y="315.9839">+サイトに紐付いたフォルダリストを取得 : get_content_folder_list()</text><text fill="#000000" font-family="sans-serif" font-size="11" lengthAdjust="spacingAndGlyphs" textLength="161" x="21.5" y="328.7886">+コンテンツ名変更 : rename()</text><text fill="#000000" font-family="sans-serif" font-size="11" lengthAdjust="spacingAndGlyphs" textLength="171" x="21.5" y="341.5933">+エイリアスの作成 : add_alias()</text><text fill="#000000" font-family="sans-serif" font-size="11" lengthAdjust="spacingAndGlyphs" textLength="491" x="21.5" y="354.3979">+指定したURLのパス上のコンテンツでフォルダ以外が存在するか確認 : exists_content_by_url()</text><text fill="#000000" font-family="sans-serif" font-size="11" lengthAdjust="spacingAndGlyphs" textLength="148" x="21.5" y="367.2026">+並び順を移動する : move()</text><!--class ContentService--><polygon fill="#FEFECE" filter="url(#fgeitaz)" points="215.5,638.9531,215.5,638.2192,225.8,639.5207,236.1,638.4288,246.4,638.697,256.7,638.7276,267,638.3802,277.3,638.9462,287.6,638.2314,297.9,639.4533,308.2,639.3533,318.5,638.9531,318.2202,638.9531,318.9808,649.5078,318.2995,660.0625,318.3149,670.6172,318.5848,681.1719,318.5,691.7266,318.5,691.2009,308.2,691.6279,297.9,691.1959,287.6,692.3497,277.3,691.4539,267,691.4662,256.7,691.2337,246.4,692.156,236.1,691.4761,225.8,692.1314,215.5,691.7266,215.1742,691.7266,214.954,681.1719,215.6562,670.6172,215.8642,660.0625,215.8473,649.5078,215.5,638.9531" style="stroke: #A80036; stroke-width: 1.5;"/><text fill="#000000" font-family="sans-serif" font-size="12" lengthAdjust="spacingAndGlyphs" textLength="95" x="219.5" y="655.0918">ContentService</text><path d="M216.5,662.9219 L216.5,662.6539 L226.6,662.7003 L236.7,662.5753 L246.8,662.3718 L256.9,662.1185 L267,662.2162 L277.1,663.4571 L287.2,661.9733 L297.3,662.6319 L307.4,663.5075 L317.5,662.9219 " fill="#FEFECE" style="stroke: #A80036; stroke-width: 1.5;"/><text fill="#000000" font-family="sans-serif" font-size="11" lengthAdjust="spacingAndGlyphs" textLength="91" x="221.5" y="677.1323">+ContentsTable</text><path d="M216.5,683.7266 L216.5,683.6205 L226.6,682.7353 L236.7,684.4614 L246.8,682.9983 L256.9,683.1514 L267,684.0957 L277.1,683.1925 L287.2,683.8071 L297.3,683.6993 L307.4,683.5975 L317.5,683.7266 " fill="#FEFECE" style="stroke: #A80036; stroke-width: 1.5;"/><!--class ContentServiceInterface--><polygon fill="#FEFECE" filter="url(#fgeitaz)" points="6,433.9531,6,433.7152,16.2353,433.307,26.4706,434.3371,36.7059,433.2793,46.9412,434.5713,57.1765,433.3122,67.4118,433.8855,77.6471,433.216,87.8824,433.3902,98.1176,433.7116,108.3529,434.5064,118.5882,434.2938,128.8235,433.4761,139.0588,434.0483,149.2941,434.0183,159.5294,433.3889,169.7647,433.5387,180,433.9531,180.7307,433.9531,180.345,444.008,180.3673,454.0628,179.7046,464.1177,180.1936,474.1726,180.2826,484.2274,180.2414,494.2823,179.4817,504.3371,180.1086,514.392,179.497,524.4468,179.5831,534.5017,179.5702,544.5566,179.6582,554.6114,179.3646,564.6663,180.1976,574.7211,180.4532,584.776,180.4933,594.8308,179.8195,604.8857,179.4509,614.9406,180.0958,624.9954,180.1715,635.0503,179.6132,645.1051,179.8671,655.16,179.4333,665.2148,180.0769,675.2697,179.2862,685.3246,180.0993,695.3794,180.0675,705.4343,180.3434,715.4891,179.4916,725.544,180.4407,735.5988,180.0354,745.6537,180.5831,755.7086,180.5279,765.7634,180.1085,775.8183,179.5849,785.8731,180.196,795.928,179.984,805.9828,180.5524,816.0377,180.0341,826.0926,180.7247,836.1474,179.2727,846.2023,180.0083,856.2571,180.5231,866.312,179.5979,876.3668,180.5309,886.4217,180,896.4766,180,896.4204,169.7647,895.74,159.5294,896.6758,149.2941,896.8718,139.0588,896.3971,128.8235,896.2526,118.5882,896.9623,108.3529,896.9932,98.1176,896.7004,87.8824,896.0438,77.6471,896.3538,67.4118,895.8453,57.1765,895.8795,46.9412,897.2046,36.7059,896.3125,26.4706,895.8903,16.2353,896.5676,6,896.4766,5.5603,896.4766,5.9544,886.4217,6.0346,876.3668,5.6743,866.312,6.5259,856.2571,6.4748,846.2023,6.3132,836.1474,6.0144,826.0926,6.086,816.0377,6.472,805.9828,5.7303,795.928,6.5301,785.8731,6.3499,775.8183,6.4385,765.7634,6.1924,755.7086,5.4907,745.6537,5.8798,735.5988,6.7276,725.544,5.943,715.4891,6.3773,705.4343,6.0036,695.3794,6.7234,685.3246,5.401,675.2697,5.6223,665.2148,5.5738,655.16,5.7291,645.1051,5.778,635.0503,5.9482,624.9954,5.2723,614.9406,6.3865,604.8857,5.4669,594.8308,5.3861,584.776,6.3014,574.7211,5.4649,564.6663,5.66,554.6114,5.3722,544.5566,5.6207,534.5017,6.087,524.4468,5.9522,514.392,6.5855,504.3371,5.287,494.2823,6.3936,484.2274,6.3063,474.1726,6.4137,464.1177,5.4274,454.0628,6.2794,444.008,6,433.9531" style="stroke: #A80036; stroke-width: 1.5;"/><text fill="#000000" font-family="sans-serif" font-size="12" lengthAdjust="spacingAndGlyphs" textLength="151" x="17.5" y="450.0918">ContentServiceInterface</text><path d="M7,457.9219 L7,458.2031 L17.1176,458.0643 L27.2353,457.1641 L37.3529,458.8233 L47.4706,457.4413 L57.5882,457.6646 L67.7059,457.3612 L77.8235,457.1176 L87.9412,457.2939 L98.0588,458.2184 L108.1765,457.9589 L118.2941,457.6566 L128.4118,458.4954 L138.5294,457.5832 L148.6471,457.7521 L158.7647,457.9067 L168.8824,458.9197 L179,457.9219 " fill="#FEFECE" style="stroke: #A80036; stroke-width: 1.5;"/><path d="M7,465.9219 L7,465.6698 L17.1176,465.7394 L27.2353,465.0957 L37.3529,466.701 L47.4706,465.5324 L57.5882,464.9765 L67.7059,466.4529 L77.8235,465.3943 L87.9412,465.2397 L98.0588,466.0556 L108.1765,465.2736 L118.2941,466.7482 L128.4118,465.1499 L138.5294,465.0716 L148.6471,466.1826 L158.7647,466.0958 L168.8824,464.9467 L179,465.9219 " fill="#FEFECE" style="stroke: #A80036; stroke-width: 1.5;"/><text fill="#000000" font-family="sans-serif" font-size="11" lengthAdjust="spacingAndGlyphs" textLength="35" x="12" y="480.1323">+get()</text><text fill="#000000" font-family="sans-serif" font-size="11" lengthAdjust="spacingAndGlyphs" textLength="68" x="12" y="492.937">+getTrash()</text><text fill="#000000" font-family="sans-serif" font-size="11" lengthAdjust="spacingAndGlyphs" textLength="82" x="12" y="505.7417">+getChildren()</text><text fill="#000000" font-family="sans-serif" font-size="11" lengthAdjust="spacingAndGlyphs" textLength="100" x="12" y="518.5464">+getEmptyIndex()</text><text fill="#000000" font-family="sans-serif" font-size="11" lengthAdjust="spacingAndGlyphs" textLength="91" x="12" y="531.3511">+getTreeIndex()</text><text fill="#000000" font-family="sans-serif" font-size="11" lengthAdjust="spacingAndGlyphs" textLength="65" x="12" y="544.1558">+getIndex()</text><text fill="#000000" font-family="sans-serif" font-size="11" lengthAdjust="spacingAndGlyphs" textLength="126" x="12" y="556.9604">+getTableConditions()</text><text fill="#000000" font-family="sans-serif" font-size="11" lengthAdjust="spacingAndGlyphs" textLength="96" x="12" y="569.7651">+getTableIndex()</text><text fill="#000000" font-family="sans-serif" font-size="11" lengthAdjust="spacingAndGlyphs" textLength="98" x="12" y="582.5698">+getTrashIndex()</text><text fill="#000000" font-family="sans-serif" font-size="11" lengthAdjust="spacingAndGlyphs" textLength="134" x="12" y="595.3745">+getContentFolderList()</text><text fill="#000000" font-family="sans-serif" font-size="11" lengthAdjust="spacingAndGlyphs" textLength="105" x="12" y="608.1792">+convertTreeList()</text><text fill="#000000" font-family="sans-serif" font-size="11" lengthAdjust="spacingAndGlyphs" textLength="44" x="12" y="620.9839">+alias()</text><text fill="#000000" font-family="sans-serif" font-size="11" lengthAdjust="spacingAndGlyphs" textLength="52" x="12" y="633.7886">+delete()</text><text fill="#000000" font-family="sans-serif" font-size="11" lengthAdjust="spacingAndGlyphs" textLength="79" x="12" y="646.5933">+hardDelete()</text><text fill="#000000" font-family="sans-serif" font-size="11" lengthAdjust="spacingAndGlyphs" textLength="136" x="12" y="659.3979">+hardDeleteWithAssoc()</text><text fill="#000000" font-family="sans-serif" font-size="11" lengthAdjust="spacingAndGlyphs" textLength="65" x="12" y="672.2026">+deleteAll()</text><text fill="#000000" font-family="sans-serif" font-size="11" lengthAdjust="spacingAndGlyphs" textLength="92" x="12" y="685.0073">+hardDeleteAll()</text><text fill="#000000" font-family="sans-serif" font-size="11" lengthAdjust="spacingAndGlyphs" textLength="59" x="12" y="697.812">+restore()</text><text fill="#000000" font-family="sans-serif" font-size="11" lengthAdjust="spacingAndGlyphs" textLength="72" x="12" y="710.6167">+restoreAll()</text><text fill="#000000" font-family="sans-serif" font-size="11" lengthAdjust="spacingAndGlyphs" textLength="107" x="12" y="723.4214">+getContentsInfo()</text><text fill="#000000" font-family="sans-serif" font-size="11" lengthAdjust="spacingAndGlyphs" textLength="107" x="12" y="736.2261">+deleteRecursive()</text><text fill="#000000" font-family="sans-serif" font-size="11" lengthAdjust="spacingAndGlyphs" textLength="162" x="12" y="749.0308">+getParentLayoutTemplate()</text><text fill="#000000" font-family="sans-serif" font-size="11" lengthAdjust="spacingAndGlyphs" textLength="75" x="12" y="761.8354">+getUrlById()</text><text fill="#000000" font-family="sans-serif" font-size="11" lengthAdjust="spacingAndGlyphs" textLength="51" x="12" y="774.6401">+getUrl()</text><text fill="#000000" font-family="sans-serif" font-size="11" lengthAdjust="spacingAndGlyphs" textLength="56" x="12" y="787.4448">+update()</text><text fill="#000000" font-family="sans-serif" font-size="11" lengthAdjust="spacingAndGlyphs" textLength="58" x="12" y="800.2495">+publish()</text><text fill="#000000" font-family="sans-serif" font-size="11" lengthAdjust="spacingAndGlyphs" textLength="72" x="12" y="813.0542">+unpublish()</text><text fill="#000000" font-family="sans-serif" font-size="11" lengthAdjust="spacingAndGlyphs" textLength="51" x="12" y="825.8589">+exists()</text><text fill="#000000" font-family="sans-serif" font-size="11" lengthAdjust="spacingAndGlyphs" textLength="48" x="12" y="838.6636">+move()</text><text fill="#000000" font-family="sans-serif" font-size="11" lengthAdjust="spacingAndGlyphs" textLength="73" x="12" y="851.4683">+isMovable()</text><text fill="#000000" font-family="sans-serif" font-size="11" lengthAdjust="spacingAndGlyphs" textLength="92" x="12" y="864.2729">+isPublishById()</text><text fill="#000000" font-family="sans-serif" font-size="11" lengthAdjust="spacingAndGlyphs" textLength="97" x="12" y="877.0776">+isAllowPublish()</text><text fill="#000000" font-family="sans-serif" font-size="11" lengthAdjust="spacingAndGlyphs" textLength="125" x="12" y="889.8823">+existsContentByUrl()</text><!--class ContentsTable--><polygon fill="#FEFECE" filter="url(#fgeitaz)" points="218.5,1174.4531,218.5,1174.3919,228.2,1175.201,237.9,1173.9464,247.6,1174.8583,257.3,1174.8651,267,1175.154,276.7,1174.5608,286.4,1174.4518,296.1,1174.6504,305.8,1174.7343,315.5,1174.4531,315.6911,1174.4531,315.7144,1182.4469,315.3875,1190.4406,315.3548,1198.4344,315.3878,1206.4281,315.5,1214.4219,315.5,1214.3584,305.8,1213.9956,296.1,1215.1109,286.4,1214.0939,276.7,1214.9858,267,1214.1728,257.3,1214.909,247.6,1214.6684,237.9,1214.3887,228.2,1213.8909,218.5,1214.4219,218.3569,1214.4219,218.5593,1206.4281,218.7152,1198.4344,218.4536,1190.4406,218.5998,1182.4469,218.5,1174.4531" style="stroke: #A80036; stroke-width: 1.5;"/><text fill="#000000" font-family="sans-serif" font-size="12" lengthAdjust="spacingAndGlyphs" textLength="91" x="221.5" y="1190.5918">ContentsTable</text><path d="M219.5,1198.4219 L219.5,1198.2025 L229,1199.1857 L238.5,1198.2669 L248,1198.6103 L257.5,1197.6965 L267,1199.1781 L276.5,1198.1458 L286,1199.3962 L295.5,1198.8927 L305,1198.8344 L314.5,1198.4219 " fill="#FEFECE" style="stroke: #A80036; stroke-width: 1.5;"/><path d="M219.5,1206.4219 L219.5,1206.4529 L229,1206.3183 L238.5,1206.1639 L248,1207.0478 L257.5,1206.9811 L267,1206.8723 L276.5,1205.617 L286,1207.2813 L295.5,1206.9151 L305,1206.159 L314.5,1206.4219 " fill="#FEFECE" style="stroke: #A80036; stroke-width: 1.5;"/><!--class Content--><polygon fill="#FEFECE" filter="url(#fgeitaz)" points="350.5,956.9531,350.5,956.3495,360.3276,956.9559,370.1552,957.0481,379.9828,956.6287,389.8103,956.4597,399.6379,957.62,409.4655,956.5609,419.2931,957.3276,429.1207,957.6595,438.9483,956.4246,448.7759,956.6762,458.6034,956.8795,468.431,957.2878,478.2586,956.2272,488.0862,957.3633,497.9138,957.0169,507.7414,957.1126,517.569,956.4574,527.3966,957.2513,537.2241,957.2767,547.0517,957.1336,556.8793,956.5433,566.7069,957.1765,576.5345,957.1659,586.3621,957.1746,596.1897,956.7628,606.0172,957.3243,615.8448,956.2866,625.6724,956.9607,635.5,956.9531,634.9781,956.9531,635.3076,966.8558,634.8843,976.7585,634.8885,986.6611,635.6948,996.5638,636.0117,1006.4665,635.183,1016.3691,635.1657,1026.2718,635.1434,1036.1745,635.9194,1046.0771,634.7903,1055.9798,636.1054,1065.8825,636.1582,1075.7852,635.9631,1085.6878,635.9459,1095.5905,635.1698,1105.4932,635.9471,1115.3958,636.1451,1125.2985,634.8707,1135.2012,635.778,1145.1038,635.4845,1155.0065,635.3135,1164.9092,635.0261,1174.8118,636.0189,1184.7145,635.6727,1194.6172,636.0207,1204.5199,635.6713,1214.4225,636.1715,1224.3252,634.9004,1234.2279,636.1289,1244.1305,635.0001,1254.0332,635.6537,1263.9359,635.1159,1273.8385,636.197,1283.7412,634.7979,1293.6439,635.112,1303.5465,634.9719,1313.4492,635.122,1323.3519,635.9067,1333.2546,635.786,1343.1572,634.9912,1353.0599,636.0359,1362.9626,634.8458,1372.8652,635.03,1382.7679,636.0502,1392.6706,636.0531,1402.5732,635.698,1412.4759,635.9492,1422.3786,635.5,1432.2813,635.5,1431.5563,625.6724,1432.4281,615.8448,1432.6113,606.0172,1431.7955,596.1897,1432.4793,586.3621,1432.9669,576.5345,1432.9685,566.7069,1432.5328,556.8793,1432.0104,547.0517,1432.7793,537.2241,1432.0491,527.3966,1431.9458,517.569,1432.4336,507.7414,1433.0248,497.9138,1432.2399,488.0862,1432.2156,478.2586,1432.7546,468.431,1432.144,458.6034,1432.9686,448.7759,1432.4432,438.9483,1432.7866,429.1207,1432.7238,419.2931,1432.1074,409.4655,1431.7443,399.6379,1432.3828,389.8103,1431.7669,379.9828,1432.7458,370.1552,1431.8767,360.3276,1432.6923,350.5,1432.2813,350.2934,1432.2813,350.0535,1422.3786,351.0064,1412.4759,350.4615,1402.5732,349.9779,1392.6706,351.0114,1382.7679,350.2119,1372.8652,350.7483,1362.9626,350.9983,1353.0599,351.1746,1343.1572,350.7807,1333.2546,350.8403,1323.3519,350.5769,1313.4492,350.4688,1303.5465,349.8811,1293.6439,350.2969,1283.7412,350.3883,1273.8385,349.8767,1263.9359,350.8631,1254.0332,350.4267,1244.1305,351.0294,1234.2279,351.1767,1224.3252,351.1897,1214.4225,350.6093,1204.5199,349.974,1194.6172,350.0331,1184.7145,351.203,1174.8118,350.5434,1164.9092,349.9843,1155.0065,349.8235,1145.1038,350.7079,1135.2012,350.3829,1125.2985,350.8067,1115.3958,350.1007,1105.4932,350.1842,1095.5905,350.2683,1085.6878,350.9025,1075.7852,349.8,1065.8825,350.0921,1055.9798,349.767,1046.0771,350.9725,1036.1745,351.2177,1026.2718,350.2172,1016.3691,351.1898,1006.4665,350.1214,996.5638,349.9077,986.6611,350.817,976.7585,350.1584,966.8558,350.5,956.9531" style="stroke: #A80036; stroke-width: 1.5;"/><text fill="#000000" font-family="sans-serif" font-size="12" lengthAdjust="spacingAndGlyphs" textLength="50" x="468" y="973.0918">Content</text><path d="M351.5,980.9219 L351.5,981.8092 L361.6071,981.5433 L371.7143,980.2071 L381.8214,981.8073 L391.9286,981.3641 L402.0357,981.1845 L412.1429,980.1907 L422.25,980.4803 L432.3571,980.1411 L442.4643,980.1035 L452.5714,980.8223 L462.6786,981.6817 L472.7857,980.0573 L482.8929,980.0368 L493,980.9487 L503.1071,981.6838 L513.2143,980.4661 L523.3214,981.5301 L533.4286,981.2459 L543.5357,980.4929 L553.6429,980.5342 L563.75,980.303 L573.8571,980.4086 L583.9643,980.4632 L594.0714,980.9126 L604.1786,980.0876 L614.2857,981.8496 L624.3929,980.7658 L634.5,980.9219 " fill="#FEFECE" style="stroke: #A80036; stroke-width: 1.5;"/><text fill="#000000" font-family="sans-serif" font-size="11" lengthAdjust="spacingAndGlyphs" textLength="41" x="356.5" y="995.1323">+ID：id</text><text fill="#000000" font-family="sans-serif" font-size="11" lengthAdjust="spacingAndGlyphs" textLength="118" x="356.5" y="1007.937">+コンテンツ名：name</text><text fill="#000000" font-family="sans-serif" font-size="11" lengthAdjust="spacingAndGlyphs" textLength="109" x="356.5" y="1020.7417">+プラグイン：plugin</text><text fill="#000000" font-family="sans-serif" font-size="11" lengthAdjust="spacingAndGlyphs" textLength="132" x="356.5" y="1033.5464">+コンテンツタイプ：type</text><text fill="#000000" font-family="sans-serif" font-size="11" lengthAdjust="spacingAndGlyphs" textLength="100" x="356.5" y="1046.3511">+実体ID：entity_id</text><text fill="#000000" font-family="sans-serif" font-size="11" lengthAdjust="spacingAndGlyphs" textLength="56" x="356.5" y="1059.1558">+URL：url</text><text fill="#000000" font-family="sans-serif" font-size="11" lengthAdjust="spacingAndGlyphs" textLength="101" x="356.5" y="1071.9604">+サイトID：site_id</text><text fill="#000000" font-family="sans-serif" font-size="11" lengthAdjust="spacingAndGlyphs" textLength="129" x="356.5" y="1084.7651">+エイリアスID：alias_id</text><text fill="#000000" font-family="sans-serif" font-size="11" lengthAdjust="spacingAndGlyphs" textLength="271" x="356.5" y="1097.5698">+メインサイトコンテンツID：main_site_content_id</text><text fill="#000000" font-family="sans-serif" font-size="11" lengthAdjust="spacingAndGlyphs" textLength="268" x="356.5" y="1110.3745">+サイトルートに配置されているかどうか：site_root</text><text fill="#000000" font-family="sans-serif" font-size="11" lengthAdjust="spacingAndGlyphs" textLength="95" x="356.5" y="1123.1792">+親ID：parent_id</text><text fill="#000000" font-family="sans-serif" font-size="11" lengthAdjust="spacingAndGlyphs" textLength="64" x="356.5" y="1135.9839">+左位置：lft</text><text fill="#000000" font-family="sans-serif" font-size="11" lengthAdjust="spacingAndGlyphs" textLength="76" x="356.5" y="1148.7886">+右位置：rght</text><text fill="#000000" font-family="sans-serif" font-size="11" lengthAdjust="spacingAndGlyphs" textLength="68" x="356.5" y="1161.5933">+深さ：level</text><text fill="#000000" font-family="sans-serif" font-size="11" lengthAdjust="spacingAndGlyphs" textLength="85" x="356.5" y="1174.3979">+タイトル：title</text><text fill="#000000" font-family="sans-serif" font-size="11" lengthAdjust="spacingAndGlyphs" textLength="116" x="356.5" y="1187.2026">+説明文：description</text><text fill="#000000" font-family="sans-serif" font-size="11" lengthAdjust="spacingAndGlyphs" textLength="136" x="356.5" y="1200.0073">+アイキャッチ：eyecatch</text><text fill="#000000" font-family="sans-serif" font-size="11" lengthAdjust="spacingAndGlyphs" textLength="117" x="356.5" y="1212.812">+作成者ID：author_id</text><text fill="#000000" font-family="sans-serif" font-size="11" lengthAdjust="spacingAndGlyphs" textLength="231" x="356.5" y="1225.6167">+レイアウトテンプレート：layout_template</text><text fill="#000000" font-family="sans-serif" font-size="11" lengthAdjust="spacingAndGlyphs" textLength="100" x="356.5" y="1238.4214">+公開状態：status</text><text fill="#000000" font-family="sans-serif" font-size="11" lengthAdjust="spacingAndGlyphs" textLength="153" x="356.5" y="1251.2261">+公開開始日：publish_begin</text><text fill="#000000" font-family="sans-serif" font-size="11" lengthAdjust="spacingAndGlyphs" textLength="143" x="356.5" y="1264.0308">+公開終了日：publish_end</text><text fill="#000000" font-family="sans-serif" font-size="11" lengthAdjust="spacingAndGlyphs" textLength="138" x="356.5" y="1276.8354">+自公開状態：self_status</text><text fill="#000000" font-family="sans-serif" font-size="11" lengthAdjust="spacingAndGlyphs" textLength="191" x="356.5" y="1289.6401">+自公開開始日：self_publish_begin</text><text fill="#000000" font-family="sans-serif" font-size="11" lengthAdjust="spacingAndGlyphs" textLength="181" x="356.5" y="1302.4448">+自公開終了日：self_publish_end</text><text fill="#000000" font-family="sans-serif" font-size="11" lengthAdjust="spacingAndGlyphs" textLength="127" x="356.5" y="1315.2495">+作成日：created_date</text><text fill="#000000" font-family="sans-serif" font-size="11" lengthAdjust="spacingAndGlyphs" textLength="133" x="356.5" y="1328.0542">+編集日：modified_date</text><text fill="#000000" font-family="sans-serif" font-size="11" lengthAdjust="spacingAndGlyphs" textLength="262" x="356.5" y="1340.8589">+検索結果より除外するかどうか：exclude_search</text><text fill="#000000" font-family="sans-serif" font-size="11" lengthAdjust="spacingAndGlyphs" textLength="255" x="356.5" y="1353.6636">+メニューから除外するかどうか：exclude_menu</text><text fill="#000000" font-family="sans-serif" font-size="11" lengthAdjust="spacingAndGlyphs" textLength="273" x="356.5" y="1366.4683">+メニューのリンクを別窓で開くかどうか：blank_link</text><text fill="#000000" font-family="sans-serif" font-size="11" lengthAdjust="spacingAndGlyphs" textLength="126" x="356.5" y="1379.2729">+削除日：deleted_date</text><text fill="#000000" font-family="sans-serif" font-size="11" lengthAdjust="spacingAndGlyphs" textLength="106" x="356.5" y="1392.0776">+削除状態：deleted</text><text fill="#000000" font-family="sans-serif" font-size="11" lengthAdjust="spacingAndGlyphs" textLength="162" x="356.5" y="1404.8823">+作成日（システム）：created</text><text fill="#000000" font-family="sans-serif" font-size="11" lengthAdjust="spacingAndGlyphs" textLength="157" x="356.5" y="1417.687">+編集日（システム）modified</text><path d="M351.5,1424.2813 L351.5,1423.8378 L361.6071,1423.8547 L371.7143,1424.3506 L381.8214,1425.0157 L391.9286,1424.9999 L402.0357,1425.0905 L412.1429,1424.2708 L422.25,1423.8277 L432.3571,1424.2138 L442.4643,1423.5324 L452.5714,1423.5928 L462.6786,1424.539 L472.7857,1424.9453 L482.8929,1423.3356 L493,1425.068 L503.1071,1424.614 L513.2143,1424.3517 L523.3214,1423.2953 L533.4286,1424.2973 L543.5357,1424.621 L553.6429,1424.4142 L563.75,1425.2157 L573.8571,1423.4742 L583.9643,1423.8579 L594.0714,1425.1605 L604.1786,1423.9855 L614.2857,1424.9043 L624.3929,1424.8836 L634.5,1424.2813 " fill="#FEFECE" style="stroke: #A80036; stroke-width: 1.5;"/><!--class BcApiController--><polygon fill="#FEFECE" filter="url(#fgeitaz)" points="216.5,28.9531,216.5,28.7122,226.6,29.0766,236.7,28.2681,246.8,28.3438,256.9,29.2294,267,28.7175,277.1,29.5957,287.2,28.7533,297.3,28.3444,307.4,29.0494,317.5,28.9531,317.5936,28.9531,317.425,36.9469,317.2893,44.9406,317.6421,52.9344,317.3003,60.9281,317.5,68.9219,317.5,68.9165,307.4,69.3798,297.3,69.5257,287.2,68.8722,277.1,68.6445,267,68.2873,256.9,68.3537,246.8,69.1179,236.7,69.1403,226.6,68.3615,216.5,68.9219,216.3137,68.9219,216.3204,60.9281,216.3977,52.9344,216.5197,44.9406,216.3981,36.9469,216.5,28.9531" style="stroke: #A80036; stroke-width: 1.5;"/><text fill="#000000" font-family="sans-serif" font-size="12" lengthAdjust="spacingAndGlyphs" textLength="95" x="219.5" y="45.0918">BcApiController</text><path d="M217.5,52.9219 L217.5,52.4864 L227.4,52.0113 L237.3,53.0019 L247.2,53.6984 L257.1,53.1911 L267,53.0792 L276.9,52.9407 L286.8,53.6779 L296.7,53.7749 L306.6,52.7767 L316.5,52.9219 " fill="#FEFECE" style="stroke: #A80036; stroke-width: 1.5;"/><path d="M217.5,60.9219 L217.5,61.8624 L227.4,60.2834 L237.3,60.5372 L247.2,60.8982 L257.1,60.607 L267,61.2199 L276.9,61.3502 L286.8,60.2419 L296.7,61.0752 L306.6,60.4731 L316.5,60.9219 " fill="#FEFECE" style="stroke: #A80036; stroke-width: 1.5;"/><path d="M267,374.1131 L267.5732,374.1131 L267.11,384.0916 L266.5603,394.07 L267.1606,404.0485 L267.5973,414.027 L267.2854,424.0054 L266.3834,433.9839 L266.3256,443.9624 L266.5438,453.9408 L267.108,463.9193 L267.6099,473.8977 L267.7648,483.8762 L266.7767,493.8547 L267.2082,503.8331 L267.2354,513.8116 L266.1321,523.79 L267.9366,533.7685 L267.7977,543.747 L267.741,553.7254 L267.1244,563.7039 L267.3104,573.6824 L267.3187,583.6608 L267.4961,593.6393 L266.6767,603.6177 L266.0816,613.5962 L267.2881,623.5747 L267,633.5531 " fill="none" style="stroke: #000000; stroke-width: 1.0;"/><polygon fill="#000000" points="267,638.6231,267.1567,638.6928,267.8781,636.8578,268.7266,635.0794,269.2876,633.1732,270.0755,631.3678,271,629.6231,271.1047,629.7278,270.1117,630.3348,269.2544,631.0775,268.6868,632.1099,267.6857,632.7088,267,633.6231,266.8733,633.4964,266.3285,632.9516,265.2642,631.8873,264.5295,631.1526,263.6829,630.3061,263,629.6231,263.103,629.6689,263.6382,631.3512,264.4379,633.1511,265.394,635.0205,266.0037,636.7359,267,638.6231" style="stroke: #000000; stroke-width: 1.0;"/><path d="M267,89.2731 L267.1806,89.2731 L266.7641,97.1751 L267.0871,105.0771 L266.6942,112.9791 L267.1838,120.8811 L267,128.7831 " fill="none" style="stroke: #000000; stroke-width: 1.0;"/><polygon fill="none" points="260,89.1731,260.0762,89.1998,261.4052,85.175,262.9847,81.2378,264.3958,77.2416,265.6295,73.1834,267,69.1731,267.1488,69.2252,268.3522,73.1564,269.9048,77.2098,271.284,81.2025,272.4684,85.1271,274,89.1731,274,89.1584,271.2,89.2223,268.4,89.1183,265.6,88.9844,262.8,88.9283,260,89.1731" style="stroke: #000000; stroke-width: 1.0;"/><path d="M200.5,665.4531 L200.5,665.6405 L203.442,665.5999 L206.384,665.1566 L209.326,665.1308 L212.268,665.4725 L215.21,665.4531 " fill="none" style="stroke: #000000; stroke-width: 1.0; stroke-dasharray: 1.0,3.0;"/><polygon fill="none" points="200.34,672.4531,200.3795,672.5661,196.3788,671.1638,192.3802,669.7681,188.3093,668.1654,184.2798,666.6811,180.34,665.4531,180.3484,665.4772,184.3566,664.1004,188.4187,662.8781,192.2881,661.1047,196.3439,659.8642,200.34,658.4531,200.2167,658.4531,200.4372,661.2531,200.249,664.0531,200.1351,666.8531,200.1826,669.6531,200.34,672.4531" style="stroke: #000000; stroke-width: 1.0;"/><path d="M267,692.2331 L266.4449,692.2331 L267.6386,702.1696 L267.4028,712.106 L267.382,722.0425 L266.3738,731.979 L266.1856,741.9154 L267.9908,751.8519 L266.0242,761.7883 L266.5311,771.7248 L266.3989,781.6613 L266.74,791.5977 L267.9645,801.5342 L267.695,811.4706 L266.3861,821.4071 L266.0108,831.3435 L266.416,841.28 L266.5038,851.2165 L266.0498,861.1529 L267.737,871.0894 L266.8466,881.0258 L267.5713,890.9623 L267.0293,900.8988 L267.8197,910.8352 L266.4851,920.7717 L267.6825,930.7081 L266.1601,940.6446 L267.1488,950.581 L266.1784,960.5175 L267.7534,970.454 L267.1617,980.3904 L267.7336,990.3269 L267.2014,1000.2633 L266.9513,1010.1998 L267.5289,1020.1363 L267.1169,1030.0727 L266.6026,1040.0092 L267.5311,1049.9456 L266.8015,1059.8821 L267.3655,1069.8185 L267.5874,1079.755 L266.5311,1089.6915 L266.5279,1099.6279 L266.4924,1109.5644 L266.3001,1119.5008 L267.5027,1129.4373 L267.3113,1139.3738 L266.1636,1149.3102 L267.1599,1159.2467 L267,1169.1831 " fill="none" style="stroke: #000000; stroke-width: 1.0;"/><polygon fill="#000000" points="267,1174.4031,267.2092,1174.4961,267.6505,1172.5367,268.8235,1170.9024,269.5457,1169.0679,270.3793,1167.2828,271,1165.4031,271.1401,1165.5433,270.2853,1166.2885,269.2289,1166.832,268.4942,1167.6973,267.6673,1168.4705,267,1169.4031,266.8927,1169.2958,266.0957,1168.4988,265.3724,1167.7755,264.4888,1166.8919,263.8429,1166.2461,263,1165.4031,263.0958,1165.4457,263.6035,1167.1158,264.7107,1169.0523,265.369,1170.7894,266.0103,1172.5188,267,1174.4031" style="stroke: #000000; stroke-width: 1.0;"/><path d="M315.55,1194.4531 L315.55,1194.3292 L321.454,1194.3647 L327.358,1194.697 L333.262,1194.3829 L339.166,1194.5008 L345.07,1194.4531 " fill="none" style="stroke: #000000; stroke-width: 1.0;"/><polygon fill="#000000" points="350.21,1194.4531,350.3037,1194.664,348.4357,1193.7109,346.6743,1192.9978,344.8283,1192.0943,343.0915,1191.4366,341.21,1190.4531,341.1397,1190.3828,342.0809,1191.324,342.8406,1192.0838,343.6253,1192.8684,344.3416,1193.5847,345.21,1194.4531,345.1506,1194.3938,344.4821,1195.3252,343.7655,1196.2087,342.7436,1196.7867,342.0936,1197.7367,341.21,1198.4531,341.2043,1198.4402,342.9748,1197.5738,344.8097,1196.8525,346.6924,1196.2384,348.3286,1195.0699,350.21,1194.4531" style="stroke: #000000; stroke-width: 1.0;"/></g></svg>