<?xml version="1.0" encoding="UTF-8" standalone="no"?><svg xmlns="http://www.w3.org/2000/svg" xmlns:xlink="http://www.w3.org/1999/xlink" contentScriptType="application/ecmascript" contentStyleType="text/css" height="651px" preserveAspectRatio="none" style="width:524px;height:651px;" version="1.1" viewBox="0 0 524 651" width="524px" zoomAndPan="magnify"><defs><filter height="300%" id="fxbybff" width="300%" x="-1" y="-1"><feGaussianBlur result="blurOut" stdDeviation="2.0"/><feColorMatrix in="blurOut" result="blurOut2" type="matrix" values="0 0 0 0 0 0 0 0 0 0 0 0 0 0 0 0 0 0 .4 0"/><feOffset dx="4.0" dy="4.0" in="blurOut2" result="blurOut3"/><feBlend in="SourceGraphic" in2="blurOut3" mode="normal"/></filter></defs><g><text fill="#000000" font-family="sans-serif" font-size="18" lengthAdjust="spacingAndGlyphs" textLength="99" x="217.5" y="17.4023">ユーザーAPI</text><!--class Api\UsersController--><polygon fill="#FEFECE" filter="url(#fxbybff)" points="122.5,29.1992,122.5,28.6663,132.38,28.9442,142.26,29.7979,152.14,29.3087,162.02,29.1496,171.9,29.0911,181.78,28.5375,191.66,28.6485,201.54,28.5619,211.42,29.5719,221.3,29.6606,231.18,28.8839,241.06,29.9168,250.94,28.7435,260.82,29.3604,270.7,29.3626,280.58,28.6346,290.46,29.2856,300.34,28.9347,310.22,29.731,320.1,29.5359,329.98,28.8155,339.86,28.7745,349.74,28.7334,359.62,29.6628,369.5,29.1992,369.3942,29.1992,369.3385,39.4688,369.4841,49.7383,368.851,60.0078,369.2621,70.2773,370.2192,80.5469,368.9347,90.8164,368.9172,101.0859,369.8592,111.3555,368.7683,121.625,369.3017,131.8945,369.3146,142.1641,369.8284,152.4336,369.1588,162.7031,369.5,172.9727,369.5,173.4004,359.62,172.3822,349.74,173.6321,339.86,172.5927,329.98,172.8063,320.1,172.49,310.22,172.4885,300.34,173.4546,290.46,172.6445,280.58,173.5943,270.7,173.331,260.82,172.8534,250.94,173.1547,241.06,173.0237,231.18,173.3794,221.3,173.653,211.42,172.7244,201.54,172.9401,191.66,173.4532,181.78,172.5232,171.9,173.4709,162.02,173.019,152.14,172.4924,142.26,172.4017,132.38,172.5995,122.5,172.9727,122.3917,172.9727,122.6153,162.7031,121.7644,152.4336,122.1606,142.1641,122.5359,131.8945,122.6729,121.625,122.4999,111.3555,122.5088,101.0859,121.818,90.8164,121.8913,80.5469,123.2135,70.2773,122.7126,60.0078,122.5232,49.7383,123.0633,39.4688,122.5,29.1992" style="stroke: #A80036; stroke-width: 1.5;"/><text fill="#000000" font-family="sans-serif" font-size="12" lengthAdjust="spacingAndGlyphs" textLength="113" x="189.5" y="45.8008">Api\UsersController</text><path d="M123.5,53.332 L123.5,52.8941 L133.3,52.8115 L143.1,52.5187 L152.9,53.0587 L162.7,53.0517 L172.5,54.081 L182.3,53.9492 L192.1,54.1292 L201.9,54.1594 L211.7,53.7638 L221.5,52.3629 L231.3,53.2356 L241.1,52.6673 L250.9,52.7553 L260.7,53.9752 L270.5,54.1747 L280.3,53.2068 L290.1,53.3784 L299.9,53.8787 L309.7,52.5613 L319.5,53.1139 L329.3,53.691 L339.1,53.7313 L348.9,52.5321 L358.7,53.7114 L368.5,53.332 " fill="#FEFECE" style="stroke: #A80036; stroke-width: 1.5;"/><text fill="#000000" font-family="sans-serif" font-size="11" lengthAdjust="spacingAndGlyphs" textLength="151" x="128.5" y="67.9668">+AuthenticationComponent</text><path d="M123.5,74.2871 L123.5,73.432 L133.3,73.9475 L143.1,73.4379 L152.9,73.4444 L162.7,75.1296 L172.5,73.5094 L182.3,73.6813 L192.1,75.2398 L201.9,74.6432 L211.7,74.3743 L221.5,75.2032 L231.3,73.6615 L241.1,73.3679 L250.9,74.0162 L260.7,74.6678 L270.5,74.3401 L280.3,73.8214 L290.1,75.2446 L299.9,74.4856 L309.7,75.1052 L319.5,75.0362 L329.3,74.7542 L339.1,74.1056 L348.9,74.9004 L358.7,74.3079 L368.5,74.2871 " fill="#FEFECE" style="stroke: #A80036; stroke-width: 1.5;"/><text fill="#000000" font-family="sans-serif" font-size="11" lengthAdjust="spacingAndGlyphs" textLength="99" x="128.5" y="88.9219">+ログイン：login()</text><text fill="#000000" font-family="sans-serif" font-size="11" lengthAdjust="spacingAndGlyphs" textLength="235" x="128.5" y="101.877">+リフレッシュトークン取得：refresh_token()</text><text fill="#000000" font-family="sans-serif" font-size="11" lengthAdjust="spacingAndGlyphs" textLength="168" x="128.5" y="114.832">+ユーザー情報一覧取得：index()</text><text fill="#000000" font-family="sans-serif" font-size="11" lengthAdjust="spacingAndGlyphs" textLength="161" x="128.5" y="127.7871">+単一ユーザー情報取得：view()</text><text fill="#000000" font-family="sans-serif" font-size="11" lengthAdjust="spacingAndGlyphs" textLength="136" x="128.5" y="140.7422">+ユーザー情報登録：add()</text><text fill="#000000" font-family="sans-serif" font-size="11" lengthAdjust="spacingAndGlyphs" textLength="136" x="128.5" y="153.6973">+ユーザー情報編集：edit()</text><text fill="#000000" font-family="sans-serif" font-size="11" lengthAdjust="spacingAndGlyphs" textLength="148" x="128.5" y="166.6523">+ユーザー情報削除：delete()</text><!--class UserService--><polygon fill="#FEFECE" filter="url(#fxbybff)" points="205.5,259.1992,205.5,259.8051,215.625,258.7837,225.75,259.8416,235.875,259.752,246,259.3881,256.125,259.2811,266.25,259.2264,276.375,259.8244,286.5,259.1992,286.4701,259.1992,286.8097,269.8168,286.955,280.4344,286.4454,291.052,287.2262,301.6695,286.5,312.2871,286.5,312.5968,276.375,312.8151,266.25,311.8143,256.125,312.8965,246,312.9153,235.875,312.1751,225.75,312.5459,215.625,311.6176,205.5,312.2871,205.014,312.2871,205.2385,301.6695,206.0317,291.052,204.7988,280.4344,206.0442,269.8168,205.5,259.1992" style="stroke: #A80036; stroke-width: 1.5;"/><text fill="#000000" font-family="sans-serif" font-size="12" lengthAdjust="spacingAndGlyphs" textLength="66" x="213" y="275.8008">UserService</text><path d="M206.5,283.332 L206.5,282.8349 L216.375,282.8439 L226.25,283.1433 L236.125,283.9459 L246,282.8833 L255.875,282.4358 L265.75,283.7355 L275.625,282.5311 L285.5,283.332 " fill="#FEFECE" style="stroke: #A80036; stroke-width: 1.5;"/><text fill="#000000" font-family="sans-serif" font-size="11" lengthAdjust="spacingAndGlyphs" textLength="69" x="211.5" y="297.9668">+UsersTable</text><path d="M206.5,304.2871 L206.5,304.8126 L216.375,304.6285 L226.25,304.9888 L236.125,303.4502 L246,304.9471 L255.875,305.0263 L265.75,304.9519 L275.625,304.6618 L285.5,304.2871 " fill="#FEFECE" style="stroke: #A80036; stroke-width: 1.5;"/><!--class UserServiceInterface--><polygon fill="#FEFECE" filter="url(#fxbybff)" points="6,233.1992,6,232.9676,16.25,233.5085,26.5,233.3976,36.75,232.6553,47,233.8529,57.25,233.4634,67.5,232.4561,77.75,233.3716,88,233.2673,98.25,233.1654,108.5,232.4964,118.75,232.5233,129,233.596,139.25,233.045,149.5,232.5382,159.75,233.1381,170,233.1992,169.8394,233.1992,169.5389,243.69,169.6658,254.1809,169.9755,264.6717,170.1065,275.1625,170.0927,285.6533,170.7124,296.1441,170.3731,306.635,169.6268,317.1258,170.5453,327.6166,170,338.1074,170,337.9454,159.75,338.2243,149.5,338.6004,139.25,338.3417,129,337.4031,118.75,337.7505,108.5,337.9322,98.25,338.6722,88,337.902,77.75,338.3378,67.5,337.6821,57.25,337.4754,47,337.3859,36.75,337.7225,26.5,337.6411,16.25,337.4945,6,338.1074,6.4135,338.1074,5.4249,327.6166,6.4223,317.1258,6.3564,306.635,5.2833,296.1441,5.646,285.6533,6.4682,275.1625,6.5811,264.6717,6.4418,254.1809,6.2257,243.69,6,233.1992" style="stroke: #A80036; stroke-width: 1.5;"/><text fill="#000000" font-family="sans-serif" font-size="12" lengthAdjust="spacingAndGlyphs" textLength="116" x="30" y="249.8008">UserServiceInterface</text><path d="M7,257.332 L7,257.0332 L17.125,256.5061 L27.25,256.347 L37.375,256.7547 L47.5,257.4577 L57.625,256.9791 L67.75,256.5914 L77.875,257.449 L88,256.365 L98.125,256.6143 L108.25,256.8525 L118.375,257.6029 L128.5,257.0526 L138.625,256.9942 L148.75,257.0824 L158.875,258.0513 L169,257.332 " fill="#FEFECE" style="stroke: #A80036; stroke-width: 1.5;"/><path d="M7,265.332 L7,264.8757 L17.125,265.8555 L27.25,265.1559 L37.375,265.1991 L47.5,264.6119 L57.625,265.545 L67.75,266.0425 L77.875,265.3209 L88,264.5635 L98.125,264.8549 L108.25,265.4862 L118.375,265.5381 L128.5,266.1866 L138.625,265.5777 L148.75,266.0647 L158.875,265.8232 L169,265.332 " fill="#FEFECE" style="stroke: #A80036; stroke-width: 1.5;"/><text fill="#000000" font-family="sans-serif" font-size="11" lengthAdjust="spacingAndGlyphs" textLength="83" x="12" y="279.9668">+作成：create()</text><text fill="#000000" font-family="sans-serif" font-size="11" lengthAdjust="spacingAndGlyphs" textLength="87" x="12" y="292.9219">+編集：update()</text><text fill="#000000" font-family="sans-serif" font-size="11" lengthAdjust="spacingAndGlyphs" textLength="122" x="12" y="305.877">+単一データ取得：get()</text><text fill="#000000" font-family="sans-serif" font-size="11" lengthAdjust="spacingAndGlyphs" textLength="152" x="12" y="318.832">+一覧データ取得：getIndex()</text><text fill="#000000" font-family="sans-serif" font-size="11" lengthAdjust="spacingAndGlyphs" textLength="144" x="12" y="331.7871">+初期データ取得：getNew()</text><!--class UsersTable--><polygon fill="#FEFECE" filter="url(#fxbybff)" points="210.5,398.1992,210.5,397.7589,220.6429,397.622,230.7857,398.7377,240.9286,398.2651,251.0714,397.4884,261.2143,398.8406,271.3571,398.8754,281.5,398.1992,281.6145,398.1992,281.6928,406.2258,281.4118,414.2523,281.369,422.2789,281.3201,430.3055,281.5,438.332,281.5,438.3642,271.3571,438.5485,261.2143,438.466,251.0714,438.4243,240.9286,438.5517,230.7857,438.6624,220.6429,438.486,210.5,438.332,210.5508,438.332,210.2726,430.3055,210.6736,422.2789,210.4742,414.2523,210.5293,406.2258,210.5,398.1992" style="stroke: #A80036; stroke-width: 1.5;"/><text fill="#000000" font-family="sans-serif" font-size="12" lengthAdjust="spacingAndGlyphs" textLength="65" x="213.5" y="414.8008">UsersTable</text><path d="M211.5,422.332 L211.5,422.0765 L221.3571,421.8671 L231.2143,422.2021 L241.0714,422.9221 L250.9286,422.3426 L260.7857,421.782 L270.6429,421.4728 L280.5,422.332 " fill="#FEFECE" style="stroke: #A80036; stroke-width: 1.5;"/><path d="M211.5,430.332 L211.5,430.4728 L221.3571,430.1675 L231.2143,429.5954 L241.0714,430.1609 L250.9286,430.4289 L260.7857,429.7823 L270.6429,429.7404 L280.5,430.332 " fill="#FEFECE" style="stroke: #A80036; stroke-width: 1.5;"/><!--class User--><polygon fill="#FEFECE" filter="url(#fxbybff)" points="171.5,498.1992,171.5,498.4125,181.4333,497.9139,191.3667,497.9861,201.3,497.5725,211.2333,498.8711,221.1667,497.6803,231.1,498.493,241.0333,498.1204,250.9667,497.7929,260.9,497.8655,270.8333,498.9185,280.7667,498.21,290.7,498.0369,300.6333,497.5317,310.5667,498.7809,320.5,498.1992,320.3448,498.1992,320.667,508.4688,320.7125,518.7383,321.0064,529.0078,319.8824,539.2773,320.4619,549.5469,320.415,559.8164,320.9818,570.0859,320.1661,580.3555,320.6638,590.625,320.0128,600.8945,320.43,611.1641,321.1415,621.4336,320.026,631.7031,320.5,641.9727,320.5,641.5999,310.5667,642.4923,300.6333,642.3254,290.7,642.024,280.7667,641.3847,270.8333,642.6865,260.9,642.2286,250.9667,641.4154,241.0333,642.3721,231.1,642.4701,221.1667,641.2487,211.2333,641.4514,201.3,641.9709,191.3667,642.5473,181.4333,642.5972,171.5,641.9727,170.9548,641.9727,172.0205,631.7031,171.0607,621.4336,171.3092,611.1641,171.1956,600.8945,171.4729,590.625,170.8176,580.3555,172.1896,570.0859,171.6562,559.8164,171.4667,549.5469,171.6006,539.2773,170.8775,529.0078,170.7743,518.7383,171.4922,508.4688,171.5,498.1992" style="stroke: #A80036; stroke-width: 1.5;"/><text fill="#000000" font-family="sans-serif" font-size="12" lengthAdjust="spacingAndGlyphs" textLength="26" x="233" y="514.8008">User</text><path d="M172.5,522.332 L172.5,521.7826 L182.3,522.6474 L192.1,523.038 L201.9,521.6004 L211.7,521.8838 L221.5,521.9455 L231.3,523.1209 L241.1,522.0162 L250.9,523.0175 L260.7,523.2567 L270.5,522.3535 L280.3,521.7227 L290.1,521.8914 L299.9,522.5628 L309.7,523.1971 L319.5,522.332 " fill="#FEFECE" style="stroke: #A80036; stroke-width: 1.5;"/><text fill="#000000" font-family="sans-serif" font-size="11" lengthAdjust="spacingAndGlyphs" textLength="115" x="177.5" y="536.9668">+アカウント名：name</text><text fill="#000000" font-family="sans-serif" font-size="11" lengthAdjust="spacingAndGlyphs" textLength="127" x="177.5" y="549.9219">+パスワード：password</text><text fill="#000000" font-family="sans-serif" font-size="11" lengthAdjust="spacingAndGlyphs" textLength="99" x="177.5" y="562.877">+性：real_name_1</text><text fill="#000000" font-family="sans-serif" font-size="11" lengthAdjust="spacingAndGlyphs" textLength="99" x="177.5" y="575.832">+名：real_name_2</text><text fill="#000000" font-family="sans-serif" font-size="11" lengthAdjust="spacingAndGlyphs" textLength="125" x="177.5" y="588.7871">+メールアドレス：email</text><text fill="#000000" font-family="sans-serif" font-size="11" lengthAdjust="spacingAndGlyphs" textLength="137" x="177.5" y="601.7422">+ニックネーム：nickname</text><text fill="#000000" font-family="sans-serif" font-size="11" lengthAdjust="spacingAndGlyphs" textLength="93" x="177.5" y="614.6973">+登録日：created</text><text fill="#000000" font-family="sans-serif" font-size="11" lengthAdjust="spacingAndGlyphs" textLength="100" x="177.5" y="627.6523">+編集日：modified</text><path d="M172.5,633.9727 L172.5,634.3733 L182.3,634.1123 L192.1,633.8023 L201.9,634.3231 L211.7,633.7353 L221.5,633.1162 L231.3,634.8838 L241.1,633.2198 L250.9,633.8145 L260.7,633.1535 L270.5,634.2557 L280.3,633.7206 L290.1,634.8664 L299.9,633.9956 L309.7,633.7482 L319.5,633.9727 " fill="#FEFECE" style="stroke: #A80036; stroke-width: 1.5;"/><!--class Adpi\UsersController--><polygon fill="#FEFECE" filter="url(#fxbybff)" points="388.5,265.6992,388.5,265.867,398.2692,266.0509,408.0385,265.0863,417.8077,265.9198,427.5769,265.8214,437.3462,265.116,447.1154,266.3667,456.8846,266.1655,466.6538,265.0558,476.4231,265.2704,486.1923,265.4185,495.9615,265.6178,505.7308,266.1569,515.5,265.6992,515.7276,265.6992,515.6641,273.7258,515.5381,281.7523,515.5943,289.7789,515.3007,297.8055,515.5,305.832,515.5,305.4285,505.7308,305.5705,495.9615,305.0852,486.1923,306.2314,476.4231,306.2829,466.6538,306.0753,456.8846,306.421,447.1154,305.6103,437.3462,306.1276,427.5769,306.2627,417.8077,305.5903,408.0385,305.9216,398.2692,306.4445,388.5,305.832,388.6625,305.832,388.6048,297.8055,388.5027,289.7789,388.5541,281.7523,388.7248,273.7258,388.5,265.6992" style="stroke: #A80036; stroke-width: 1.5;"/><text fill="#000000" font-family="sans-serif" font-size="12" lengthAdjust="spacingAndGlyphs" textLength="121" x="391.5" y="282.3008">Adpi\UsersController</text><path d="M389.5,289.832 L389.5,288.9403 L399.1154,289.3534 L408.7308,289.6876 L418.3462,290.6258 L427.9615,289.6048 L437.5769,289.299 L447.1923,289.6971 L456.8077,290.7706 L466.4231,289.7095 L476.0385,290.3785 L485.6538,289.8058 L495.2692,289.1261 L504.8846,290.166 L514.5,289.832 " fill="#FEFECE" style="stroke: #A80036; stroke-width: 1.5;"/><path d="M389.5,297.832 L389.5,297.1856 L399.1154,297.1602 L408.7308,298.3529 L418.3462,298.2169 L427.9615,298.6708 L437.5769,297.701 L447.1923,297.5802 L456.8077,298.5485 L466.4231,297.6706 L476.0385,296.8951 L485.6538,296.9599 L495.2692,297.1726 L504.8846,298.7879 L514.5,297.832 " fill="#FEFECE" style="stroke: #A80036; stroke-width: 1.5;"/><!--class BcApiController--><polygon fill="#FEFECE" filter="url(#fxbybff)" points="405,81.1992,405,81.4336,415.4444,80.672,425.8889,81.3072,436.3333,81.5153,446.7778,80.5003,457.2222,81.4326,467.6667,80.8695,478.1111,80.9043,488.5556,80.8805,499,81.1992,498.9363,81.1992,499.1404,89.2258,498.8951,97.2523,498.815,105.2789,498.8685,113.3055,499,121.332,499,120.6464,488.5556,120.966,478.1111,120.6131,467.6667,120.6956,457.2222,121.4415,446.7778,121.9573,436.3333,121.5591,425.8889,121.0352,415.4444,120.6971,405,121.332,404.9611,121.332,405.2291,113.3055,404.8067,105.2789,405.1225,97.2523,404.9821,89.2258,405,81.1992" style="stroke: #A80036; stroke-width: 1.5;"/><text fill="#000000" font-family="sans-serif" font-size="12" lengthAdjust="spacingAndGlyphs" textLength="88" x="408" y="97.8008">BcApiController</text><path d="M406,105.332 L406,104.8699 L416.2222,104.3789 L426.4444,105.3694 L436.6667,106.0477 L446.8889,104.7478 L457.1111,104.7067 L467.3333,104.5652 L477.5556,104.6941 L487.7778,105.4956 L498,105.332 " fill="#FEFECE" style="stroke: #A80036; stroke-width: 1.5;"/><path d="M406,113.332 L406,114.2293 L416.2222,112.6182 L426.4444,113.9971 L436.6667,113.6786 L446.8889,113.0437 L457.1111,112.7432 L467.3333,113.2869 L477.5556,112.6443 L487.7778,112.4373 L498,113.332 " fill="#FEFECE" style="stroke: #A80036; stroke-width: 1.5;"/><path d="M246,173.2792 L246.3805,173.2792 L245.6143,183.3655 L245.4691,193.4517 L246.9009,203.538 L246.3017,213.6242 L246.6776,223.7105 L246.1746,233.7967 L245.8745,243.883 L246,253.9692 " fill="none" style="stroke: #000000; stroke-width: 1.0;"/><polygon fill="#000000" points="246,259.0992,245.8475,259.0314,246.6283,257.2229,247.4957,255.4529,248.4315,253.7132,249.2079,251.9028,250,250.0992,249.9029,250.0021,249.3444,251.0437,248.4782,251.7774,247.6444,252.5437,246.8503,253.3495,246,254.0992,245.9041,254.0033,245.2215,253.3208,244.3548,252.4541,243.4446,251.5438,242.7724,250.8716,242,250.0992,242.1892,250.1833,242.8915,251.9399,243.5054,253.6572,244.4762,255.5331,245.0518,257.2334,246,259.0992" style="stroke: #000000; stroke-width: 1.0;"/><path d="M452,141.4392 L452.5346,141.4392 L452.3318,151.7776 L452.5496,162.1159 L451.6324,172.4542 L452.7643,182.7926 L451.5886,193.1309 L451.0141,203.4692 L451.5762,213.8076 L452.0308,224.1459 L452.4947,234.4842 L452.713,244.8226 L452.4781,255.1609 L452,265.4992 " fill="none" style="stroke: #000000; stroke-width: 1.0;"/><polygon fill="none" points="445,141.3892,444.9184,141.3606,446.3991,137.3889,447.9947,133.4574,449.14,129.3682,450.7875,125.4548,452,121.3892,451.8989,121.3538,453.5599,125.4452,454.6052,129.321,456.2881,133.4201,457.4124,137.3236,459,141.3892,459,141.1426,456.2,141.2109,453.4,141.4818,450.6,141.61,447.8,141.3569,445,141.3892" style="stroke: #000000; stroke-width: 1.0;"/><path d="M190.21,285.6992 L190.21,285.4298 L193.242,285.5212 L196.274,285.8396 L199.306,285.6183 L202.338,285.3819 L205.37,285.6992 " fill="none" style="stroke: #000000; stroke-width: 1.0; stroke-dasharray: 1.0,3.0;"/><polygon fill="none" points="190.09,292.6992,190.11,292.7562,186.1439,291.4531,182.041,289.7591,178.1342,288.6255,174.0546,286.9982,170.09,285.6992,170.1669,285.919,174.0198,284.0986,178.0691,282.8394,182.1285,281.6092,186.0479,279.979,190.09,278.6992,190.071,278.6992,190.2398,281.4992,190.1928,284.2992,190.2117,287.0992,190.1034,289.8992,190.09,292.6992" style="stroke: #000000; stroke-width: 1.0;"/><path d="M246,312.4792 L245.2541,312.4792 L246.2662,322.4892 L246.544,332.4992 L245.3068,342.5092 L245.0912,352.5192 L246.9256,362.5292 L246.2612,372.5392 L246.2225,382.5492 L246,392.5592 " fill="none" style="stroke: #000000; stroke-width: 1.0;"/><polygon fill="#000000" points="246,397.8392,245.8981,397.7939,246.8798,396.0747,247.7155,394.2905,248.4989,392.4832,249.3394,390.7012,250,388.8392,249.8396,388.6789,249.0842,389.5234,248.5046,390.5438,247.5493,391.1885,246.8399,392.0791,246,392.8392,245.8594,392.6986,245.3069,392.1461,244.394,391.2332,243.5018,390.341,242.6647,389.5039,242,388.8392,242.0308,388.8529,242.9587,390.7098,243.4412,392.3686,244.6258,394.3396,245.1556,396.0195,246,397.8392" style="stroke: #000000; stroke-width: 1.0;"/><path d="M246,438.4992 L246.8258,438.4992 L245.8062,449.3712 L246.283,460.2432 L245.1818,471.1152 L245.3583,481.9872 L246,492.8592 " fill="none" style="stroke: #000000; stroke-width: 1.0;"/><polygon fill="#000000" points="246,497.9992,246.0085,498.003,246.9378,496.2605,247.6987,494.4431,248.3476,492.5759,249.2656,490.8284,250,488.9992,249.9226,488.9218,249.3067,489.9059,248.4837,490.6829,247.7553,491.5546,246.7618,492.161,246,492.9992,246.1153,493.1145,245.0856,492.0849,244.2299,491.2291,243.4429,490.4421,242.7568,489.756,242,488.9992,241.7919,488.9067,242.8804,490.835,243.6616,492.6266,244.1797,494.3013,245.0259,496.1219,246,497.9992" style="stroke: #000000; stroke-width: 1.0;"/></g></svg>