<?xml version="1.0" encoding="UTF-8" standalone="no"?><svg xmlns="http://www.w3.org/2000/svg" xmlns:xlink="http://www.w3.org/1999/xlink" contentScriptType="application/ecmascript" contentStyleType="text/css" height="751px" preserveAspectRatio="none" style="width:379px;height:751px;" version="1.1" viewBox="0 0 379 751" width="379px" zoomAndPan="magnify"><defs><filter height="300%" id="fmejl39" width="300%" x="-1" y="-1"><feGaussianBlur result="blurOut" stdDeviation="2.0"/><feColorMatrix in="blurOut" result="blurOut2" type="matrix" values="0 0 0 0 0 0 0 0 0 0 0 0 0 0 0 0 0 0 .4 0"/><feOffset dx="4.0" dy="4.0" in="blurOut2" result="blurOut3"/><feBlend in="SourceGraphic" in2="blurOut3" mode="normal"/></filter></defs><g><text fill="#000000" font-family="sans-serif" font-size="18" lengthAdjust="spacingAndGlyphs" textLength="99" x="144.5" y="17.4023">ユーザーAPI</text><!--class Admin\UsersController--><polygon fill="#FEFECE" filter="url(#fmejl39)" points="122.5,129.1992,122.5,129.4496,132.38,128.8831,142.26,129.4782,152.14,128.8256,162.02,128.6922,171.9,129.3567,181.78,129.2678,191.66,129.5647,201.54,128.7767,211.42,128.9987,221.3,129.272,231.18,128.7617,241.06,129.2819,250.94,129.9376,260.82,128.9629,270.7,128.5596,280.58,128.4775,290.46,128.6821,300.34,129.826,310.22,129.223,320.1,129.4608,329.98,128.6895,339.86,128.6735,349.74,129.6664,359.62,128.8275,369.5,129.1992,368.8207,129.1992,369.9621,139.4688,370.0608,149.7383,369.5202,160.0078,369.6003,170.2773,369.4582,180.5469,369.4934,190.8164,369.3835,201.0859,369.4102,211.3555,369.7279,221.625,369.4911,231.8945,369.0391,242.1641,368.9973,252.4336,369.7358,262.7031,369.5,272.9727,369.5,273.3321,359.62,272.6617,349.74,272.3494,339.86,272.6812,329.98,273.5916,320.1,272.7529,310.22,272.9313,300.34,272.9422,290.46,273.4233,280.58,273.1771,270.7,272.2575,260.82,273.4078,250.94,272.2281,241.06,272.6107,231.18,272.7789,221.3,272.5291,211.42,272.3289,201.54,273.388,191.66,272.3386,181.78,272.8741,171.9,272.7154,162.02,273.6588,152.14,273.651,142.26,272.4727,132.38,272.235,122.5,272.9727,122.7284,272.9727,122.6119,262.7031,123.013,252.4336,122.8143,242.1641,122.6752,231.8945,122.4882,221.625,122.7489,211.3555,122.8916,201.0859,123.0681,190.8164,122.9085,180.5469,123.0193,170.2773,122.7439,160.0078,123.066,149.7383,122.3068,139.4688,122.5,129.1992" style="stroke: #A80036; stroke-width: 1.5;"/><text fill="#000000" font-family="sans-serif" font-size="12" lengthAdjust="spacingAndGlyphs" textLength="131" x="180.5" y="145.8008">Admin\UsersController</text><path d="M123.5,153.332 L123.5,153.7554 L133.3,153.3433 L143.1,152.4309 L152.9,152.6744 L162.7,153.0755 L172.5,152.4868 L182.3,154.0085 L192.1,153.371 L201.9,154.1702 L211.7,152.8386 L221.5,152.8212 L231.3,153.6744 L241.1,154.0791 L250.9,152.8932 L260.7,152.3849 L270.5,153.7492 L280.3,153.5201 L290.1,153.615 L299.9,153.3042 L309.7,152.8692 L319.5,153.8671 L329.3,153.0715 L339.1,153.244 L348.9,153.8626 L358.7,153.9374 L368.5,153.332 " fill="#FEFECE" style="stroke: #A80036; stroke-width: 1.5;"/><text fill="#000000" font-family="sans-serif" font-size="11" lengthAdjust="spacingAndGlyphs" textLength="151" x="128.5" y="167.9668">+AuthenticationComponent</text><path d="M123.5,174.2871 L123.5,175.2256 L133.3,174.5186 L143.1,174.7712 L152.9,173.3343 L162.7,174.1942 L172.5,174.5531 L182.3,174.3483 L192.1,175.2204 L201.9,174.2662 L211.7,174.9431 L221.5,174.3442 L231.3,174.9612 L241.1,173.6594 L250.9,173.5099 L260.7,173.5657 L270.5,173.8436 L280.3,174.7258 L290.1,174.9625 L299.9,174.7617 L309.7,173.383 L319.5,174.7502 L329.3,175.1975 L339.1,175.174 L348.9,175.2435 L358.7,173.8476 L368.5,174.2871 " fill="#FEFECE" style="stroke: #A80036; stroke-width: 1.5;"/><text fill="#000000" font-family="sans-serif" font-size="11" lengthAdjust="spacingAndGlyphs" textLength="99" x="128.5" y="188.9219">+ログイン：login()</text><text fill="#000000" font-family="sans-serif" font-size="11" lengthAdjust="spacingAndGlyphs" textLength="235" x="128.5" y="201.877">+リフレッシュトークン取得：refresh_token()</text><text fill="#000000" font-family="sans-serif" font-size="11" lengthAdjust="spacingAndGlyphs" textLength="168" x="128.5" y="214.832">+ユーザー情報一覧取得：index()</text><text fill="#000000" font-family="sans-serif" font-size="11" lengthAdjust="spacingAndGlyphs" textLength="161" x="128.5" y="227.7871">+単一ユーザー情報取得：view()</text><text fill="#000000" font-family="sans-serif" font-size="11" lengthAdjust="spacingAndGlyphs" textLength="136" x="128.5" y="240.7422">+ユーザー情報登録：add()</text><text fill="#000000" font-family="sans-serif" font-size="11" lengthAdjust="spacingAndGlyphs" textLength="136" x="128.5" y="253.6973">+ユーザー情報編集：edit()</text><text fill="#000000" font-family="sans-serif" font-size="11" lengthAdjust="spacingAndGlyphs" textLength="148" x="128.5" y="266.6523">+ユーザー情報削除：delete()</text><!--class UserService--><polygon fill="#FEFECE" filter="url(#fmejl39)" points="205.5,359.1992,205.5,359.069,215.625,358.4514,225.75,359.5375,235.875,358.5174,246,358.7684,256.125,358.6808,266.25,358.8821,276.375,359.2447,286.5,359.1992,286.8834,359.1992,286.6746,369.8168,285.8784,380.4344,285.9155,391.052,286.1373,401.6695,286.5,412.2871,286.5,411.5781,276.375,412.3537,266.25,413.0365,256.125,412.9679,246,411.7837,235.875,412.526,225.75,412.3045,215.625,412.4458,205.5,412.2871,204.9946,412.2871,205.9747,401.6695,205.3363,391.052,205.4959,380.4344,205.6113,369.8168,205.5,359.1992" style="stroke: #A80036; stroke-width: 1.5;"/><text fill="#000000" font-family="sans-serif" font-size="12" lengthAdjust="spacingAndGlyphs" textLength="66" x="213" y="375.8008">UserService</text><path d="M206.5,383.332 L206.5,383.0936 L216.375,383.3133 L226.25,383.4375 L236.125,382.8328 L246,382.4694 L255.875,383.6452 L265.75,383.4814 L275.625,382.9623 L285.5,383.332 " fill="#FEFECE" style="stroke: #A80036; stroke-width: 1.5;"/><text fill="#000000" font-family="sans-serif" font-size="11" lengthAdjust="spacingAndGlyphs" textLength="69" x="211.5" y="397.9668">+UsersTable</text><path d="M206.5,404.2871 L206.5,403.3123 L216.375,404.0111 L226.25,404.7979 L236.125,403.9357 L246,404.572 L255.875,404.1179 L265.75,404.5713 L275.625,403.6373 L285.5,404.2871 " fill="#FEFECE" style="stroke: #A80036; stroke-width: 1.5;"/><!--class UserServiceInterface--><polygon fill="#FEFECE" filter="url(#fmejl39)" points="6,333.1992,6,332.5617,16.25,333.8458,26.5,333.3422,36.75,332.9942,47,333.3669,57.25,333.5262,67.5,333.1811,77.75,333.6808,88,332.7483,98.25,332.8981,108.5,333.8583,118.75,333.6505,129,332.9013,139.25,333.8377,149.5,333.6151,159.75,332.5874,170,333.1992,170.1088,333.1992,169.5399,343.69,170.2259,354.1809,169.6618,364.6717,169.2663,375.1625,169.5679,385.6533,170.458,396.1441,170.3355,406.635,170.5834,417.1258,170.3081,427.6166,170,438.1074,170,438.7885,159.75,438.3885,149.5,438.4655,139.25,438.7829,129,438.7681,118.75,438.7853,108.5,438.8294,98.25,437.4785,88,438.1294,77.75,437.9662,67.5,438.029,57.25,438.8553,47,438.8379,36.75,437.6555,26.5,437.4254,16.25,438.7667,6,438.1074,6.4965,438.1074,5.5024,427.6166,5.499,417.1258,6.2138,406.635,5.9238,396.1441,6.4273,385.6533,5.4406,375.1625,5.3548,364.6717,5.7016,354.1809,5.2922,343.69,6,333.1992" style="stroke: #A80036; stroke-width: 1.5;"/><text fill="#000000" font-family="sans-serif" font-size="12" lengthAdjust="spacingAndGlyphs" textLength="116" x="30" y="349.8008">UserServiceInterface</text><path d="M7,357.332 L7,358.2642 L17.125,357.7512 L27.25,357.184 L37.375,357.0756 L47.5,356.9161 L57.625,357.6884 L67.75,356.4646 L77.875,357.1454 L88,357.562 L98.125,356.563 L108.25,357.5661 L118.375,357.4939 L128.5,357.6164 L138.625,357.8013 L148.75,357.3074 L158.875,356.4885 L169,357.332 " fill="#FEFECE" style="stroke: #A80036; stroke-width: 1.5;"/><path d="M7,365.332 L7,365.2088 L17.125,366.0412 L27.25,365.6741 L37.375,366.3106 L47.5,364.5324 L57.625,365.9296 L67.75,366.054 L77.875,365.6596 L88,365.7155 L98.125,364.7239 L108.25,366.0449 L118.375,365.2342 L128.5,365.589 L138.625,365.26 L148.75,365.7833 L158.875,366.2434 L169,365.332 " fill="#FEFECE" style="stroke: #A80036; stroke-width: 1.5;"/><text fill="#000000" font-family="sans-serif" font-size="11" lengthAdjust="spacingAndGlyphs" textLength="83" x="12" y="379.9668">+作成：create()</text><text fill="#000000" font-family="sans-serif" font-size="11" lengthAdjust="spacingAndGlyphs" textLength="87" x="12" y="392.9219">+編集：update()</text><text fill="#000000" font-family="sans-serif" font-size="11" lengthAdjust="spacingAndGlyphs" textLength="122" x="12" y="405.877">+単一データ取得：get()</text><text fill="#000000" font-family="sans-serif" font-size="11" lengthAdjust="spacingAndGlyphs" textLength="152" x="12" y="418.832">+一覧データ取得：getIndex()</text><text fill="#000000" font-family="sans-serif" font-size="11" lengthAdjust="spacingAndGlyphs" textLength="144" x="12" y="431.7871">+初期データ取得：getNew()</text><!--class UsersTable--><polygon fill="#FEFECE" filter="url(#fmejl39)" points="210.5,498.1992,210.5,498.1715,220.6429,498.3444,230.7857,498.6267,240.9286,498.1163,251.0714,497.9004,261.2143,497.9079,271.3571,498.7589,281.5,498.1992,281.3243,498.1992,281.2647,506.2258,281.5478,514.2523,281.5842,522.2789,281.6968,530.3055,281.5,538.332,281.5,538.1739,271.3571,539.04,261.2143,538.9473,251.0714,538.7823,240.9286,538.8152,230.7857,538.6253,220.6429,538.0922,210.5,538.332,210.5804,538.332,210.4609,530.3055,210.6502,522.2789,210.7411,514.2523,210.2987,506.2258,210.5,498.1992" style="stroke: #A80036; stroke-width: 1.5;"/><text fill="#000000" font-family="sans-serif" font-size="12" lengthAdjust="spacingAndGlyphs" textLength="65" x="213.5" y="514.8008">UsersTable</text><path d="M211.5,522.332 L211.5,523.2131 L221.3571,521.3335 L231.2143,521.37 L241.0714,522.665 L250.9286,522.8661 L260.7857,521.5347 L270.6429,521.3577 L280.5,522.332 " fill="#FEFECE" style="stroke: #A80036; stroke-width: 1.5;"/><path d="M211.5,530.332 L211.5,530.8312 L221.3571,530.5531 L231.2143,529.5665 L241.0714,530.4332 L250.9286,529.9858 L260.7857,530.0302 L270.6429,531.3165 L280.5,530.332 " fill="#FEFECE" style="stroke: #A80036; stroke-width: 1.5;"/><!--class User--><polygon fill="#FEFECE" filter="url(#fmejl39)" points="171.5,598.1992,171.5,598.2959,181.4333,598.3278,191.3667,598.6019,201.3,598.3184,211.2333,598.3516,221.1667,598.5968,231.1,598.1635,241.0333,598.0784,250.9667,597.7126,260.9,598.4665,270.8333,597.7263,280.7667,598.6712,290.7,597.5109,300.6333,598.9366,310.5667,598.6662,320.5,598.1992,320.8833,598.1992,320.9209,608.4688,320.6021,618.7383,320.4069,629.0078,320.3607,639.2773,320.4814,649.5469,319.7576,659.8164,319.9237,670.0859,319.912,680.3555,320.6002,690.625,321.1234,700.8945,320.9241,711.1641,320.01,721.4336,320.8792,731.7031,320.5,741.9727,320.5,741.9897,310.5667,741.5073,300.6333,741.5624,290.7,741.785,280.7667,742.1983,270.8333,742.2798,260.9,741.6874,250.9667,742.2163,241.0333,742.2893,231.1,741.4882,221.1667,742.1899,211.2333,741.9702,201.3,741.8916,191.3667,742.2797,181.4333,742.1625,171.5,741.9727,171.4777,741.9727,171.2813,731.7031,170.9777,721.4336,171.4174,711.1641,171.4791,700.8945,170.8877,690.625,171.658,680.3555,171.6882,670.0859,172.173,659.8164,170.7664,649.5469,171.7352,639.2773,171.9188,629.0078,171.208,618.7383,170.882,608.4688,171.5,598.1992" style="stroke: #A80036; stroke-width: 1.5;"/><text fill="#000000" font-family="sans-serif" font-size="12" lengthAdjust="spacingAndGlyphs" textLength="26" x="233" y="614.8008">User</text><path d="M172.5,622.332 L172.5,622.1802 L182.3,623.2086 L192.1,622.4828 L201.9,621.8499 L211.7,622.5493 L221.5,621.4086 L231.3,623.2714 L241.1,622.406 L250.9,622.5408 L260.7,622.0986 L270.5,622.9643 L280.3,621.8015 L290.1,622.8127 L299.9,621.9326 L309.7,622.3057 L319.5,622.332 " fill="#FEFECE" style="stroke: #A80036; stroke-width: 1.5;"/><text fill="#000000" font-family="sans-serif" font-size="11" lengthAdjust="spacingAndGlyphs" textLength="115" x="177.5" y="636.9668">+アカウント名：name</text><text fill="#000000" font-family="sans-serif" font-size="11" lengthAdjust="spacingAndGlyphs" textLength="127" x="177.5" y="649.9219">+パスワード：password</text><text fill="#000000" font-family="sans-serif" font-size="11" lengthAdjust="spacingAndGlyphs" textLength="99" x="177.5" y="662.877">+性：real_name_1</text><text fill="#000000" font-family="sans-serif" font-size="11" lengthAdjust="spacingAndGlyphs" textLength="99" x="177.5" y="675.832">+名：real_name_2</text><text fill="#000000" font-family="sans-serif" font-size="11" lengthAdjust="spacingAndGlyphs" textLength="125" x="177.5" y="688.7871">+メールアドレス：email</text><text fill="#000000" font-family="sans-serif" font-size="11" lengthAdjust="spacingAndGlyphs" textLength="137" x="177.5" y="701.7422">+ニックネーム：nickname</text><text fill="#000000" font-family="sans-serif" font-size="11" lengthAdjust="spacingAndGlyphs" textLength="93" x="177.5" y="714.6973">+登録日：created</text><text fill="#000000" font-family="sans-serif" font-size="11" lengthAdjust="spacingAndGlyphs" textLength="100" x="177.5" y="727.6523">+編集日：modified</text><path d="M172.5,733.9727 L172.5,733.2826 L182.3,733.2687 L192.1,734.2805 L201.9,733.401 L211.7,734.4725 L221.5,733.9678 L231.3,733.8707 L241.1,734.4385 L250.9,734.9316 L260.7,734.8583 L270.5,733.7744 L280.3,734.1295 L290.1,734.813 L299.9,733.0878 L309.7,733.1681 L319.5,733.9727 " fill="#FEFECE" style="stroke: #A80036; stroke-width: 1.5;"/><!--class BcApiController--><polygon fill="#FEFECE" filter="url(#fmejl39)" points="199,29.1992,199,29.3618,209.4444,28.5923,219.8889,28.9397,230.3333,28.7774,240.7778,29.7961,251.2222,28.4602,261.6667,29.7814,272.1111,28.7558,282.5556,29.3195,293,29.1992,292.9775,29.1992,293.0922,37.2258,293.1499,45.2523,292.9881,53.2789,293.2114,61.3055,293,69.332,293,68.6036,282.5556,68.6064,272.1111,69.2823,261.6667,69.5039,251.2222,69.5023,240.7778,68.9799,230.3333,69.3593,219.8889,69.471,209.4444,69.9511,199,69.332,199.1149,69.332,198.7855,61.3055,199.2325,53.2789,199.2309,45.2523,198.9691,37.2258,199,29.1992" style="stroke: #A80036; stroke-width: 1.5;"/><text fill="#000000" font-family="sans-serif" font-size="12" lengthAdjust="spacingAndGlyphs" textLength="88" x="202" y="45.8008">BcApiController</text><path d="M200,53.332 L200,52.6271 L210.2222,52.5963 L220.4444,53.727 L230.6667,52.3369 L240.8889,52.364 L251.1111,53.8838 L261.3333,53.8728 L271.5556,53.4661 L281.7778,53.5072 L292,53.332 " fill="#FEFECE" style="stroke: #A80036; stroke-width: 1.5;"/><path d="M200,61.332 L200,61.3926 L210.2222,60.3745 L220.4444,60.7409 L230.6667,62.1116 L240.8889,60.5958 L251.1111,62.1743 L261.3333,61.8575 L271.5556,62.3004 L281.7778,60.9177 L292,61.332 " fill="#FEFECE" style="stroke: #A80036; stroke-width: 1.5;"/><path d="M246,273.2792 L246.7076,273.2792 L245.0897,283.3655 L246.1096,293.4517 L246.1659,303.538 L245.0557,313.6242 L245.3241,323.7105 L245.2045,333.7967 L245.4869,343.883 L246,353.9692 " fill="none" style="stroke: #000000; stroke-width: 1.0;"/><polygon fill="#000000" points="246,359.0992,245.799,359.0099,247.0107,357.3929,247.475,355.4437,248.2095,353.6146,249.3678,351.9738,250,350.0992,250.0272,350.1264,249.3328,351.032,248.3758,351.675,247.5802,352.4794,246.7671,353.2664,246,354.0992,246.0625,354.1617,245.215,353.3142,244.3611,352.4603,243.4738,351.573,242.8146,350.9138,242,350.0992,242.1585,350.1697,242.8802,351.9349,243.7952,353.786,244.4775,355.5337,245.002,357.2112,246,359.0992" style="stroke: #000000; stroke-width: 1.0;"/><path d="M246,89.7192 L245.7379,89.7192 L245.8192,97.5752 L246.2259,105.4312 L245.9263,113.2872 L245.847,121.1432 L246,128.9992 " fill="none" style="stroke: #000000; stroke-width: 1.0;"/><polygon fill="none" points="239,89.4992,239.0724,89.5246,240.391,85.4961,241.8977,81.5334,243.1485,77.4812,244.6548,73.5184,246,69.4992,246.0015,69.4998,247.3029,73.4652,248.8191,77.5059,250.2522,81.5175,251.4167,85.4351,253,89.4992,253,89.3978,250.2,89.7447,247.4,89.607,244.6,89.267,241.8,89.7292,239,89.4992" style="stroke: #000000; stroke-width: 1.0;"/><path d="M190.21,385.6992 L190.21,385.4853 L193.242,386.0115 L196.274,385.7297 L199.306,385.8317 L202.338,385.8982 L205.37,385.6992 " fill="none" style="stroke: #000000; stroke-width: 1.0; stroke-dasharray: 1.0,3.0;"/><polygon fill="none" points="190.09,392.6992,190.0614,392.6176,186.0864,391.2889,182.1529,390.079,178.1572,388.6912,174.0283,386.923,170.09,385.6992,170.0345,385.5407,174.0952,384.3142,178.1161,382.9738,182.0417,381.3611,186.1191,380.1823,190.09,378.6992,189.9058,378.6992,190.0078,381.4992,189.9741,384.2992,189.9213,387.0992,189.9466,389.8992,190.09,392.6992" style="stroke: #000000; stroke-width: 1.0;"/><path d="M246,412.4792 L246.5403,412.4792 L245.9133,422.4892 L245.5146,432.4992 L246.205,442.5092 L246.9612,452.5192 L246.5397,462.5292 L246.1738,472.5392 L246.7544,482.5492 L246,492.5592 " fill="none" style="stroke: #000000; stroke-width: 1.0;"/><polygon fill="#000000" points="246,497.8392,246.2165,497.9354,246.7941,496.0366,247.5126,494.2004,248.5998,492.528,249.0062,490.5531,250,488.8392,250.0372,488.8765,249.1411,489.5803,248.4014,490.4406,247.7609,491.4001,246.6522,491.8915,246,492.8392,245.993,492.8322,245.3306,492.1698,244.4434,491.2827,243.6451,490.4843,242.7035,489.5427,242,488.8392,241.9209,488.8041,242.6506,490.5728,243.742,492.5023,244.6275,494.3403,245.1581,496.0206,246,497.8392" style="stroke: #000000; stroke-width: 1.0;"/><path d="M246,538.4992 L246.6614,538.4992 L245.7347,549.3712 L245.0552,560.2432 L245.695,571.1152 L245.0941,581.9872 L246,592.8592 " fill="none" style="stroke: #000000; stroke-width: 1.0;"/><polygon fill="#000000" points="246,597.9992,246.1408,598.0618,246.9445,596.2634,247.4058,594.3129,248.5704,592.675,249.3079,590.8472,250,588.9992,250.1665,589.1658,249.21,589.8092,248.47,590.6693,247.6647,591.464,246.9371,592.3363,246,592.9992,245.8705,592.8698,245.244,592.2432,244.4943,591.4936,243.495,590.4942,242.9728,589.972,242,588.9992,241.9024,588.9558,242.6014,590.711,243.502,592.5557,244.4101,594.4037,245.3361,596.2597,246,597.9992" style="stroke: #000000; stroke-width: 1.0;"/></g></svg>