<?xml version="1.0" encoding="UTF-8" standalone="no"?><svg xmlns="http://www.w3.org/2000/svg" xmlns:xlink="http://www.w3.org/1999/xlink" contentScriptType="application/ecmascript" contentStyleType="text/css" height="786px" preserveAspectRatio="none" style="width:710px;height:786px;" version="1.1" viewBox="0 0 710 786" width="710px" zoomAndPan="magnify"><defs><filter height="300%" id="f3lmdg2" width="300%" x="-1" y="-1"><feGaussianBlur result="blurOut" stdDeviation="2.0"/><feColorMatrix in="blurOut" result="blurOut2" type="matrix" values="0 0 0 0 0 0 0 0 0 0 0 0 0 0 0 0 0 0 .4 0"/><feOffset dx="4.0" dy="4.0" in="blurOut2" result="blurOut3"/><feBlend in="SourceGraphic" in2="blurOut3" mode="normal"/></filter></defs><g><text fill="#000000" font-family="sans-serif" font-size="18" lengthAdjust="spacingAndGlyphs" textLength="198" x="260.5" y="17.4023">管理画面基本クラス構成</text><!--class Server--><polygon fill="#FEFECE" filter="url(#f3lmdg2)" points="6,333.1992,6,332.5968,15.6,333.6779,25.2,333.6458,34.8,333.4337,44.4,333.2988,54,333.1992,54.0157,333.1992,54.283,343.8168,53.2766,354.4344,54.1852,365.052,54.1861,375.6695,54,386.2871,54,386.7353,44.4,386.4245,34.8,386.33,25.2,385.8142,15.6,386.35,6,386.2871,5.8447,386.2871,5.9582,375.6695,5.359,365.052,5.6333,354.4344,6.423,343.8168,6,333.1992" style="stroke: #A80036; stroke-width: 1.5;"/><text fill="#000000" font-family="sans-serif" font-size="12" lengthAdjust="spacingAndGlyphs" textLength="36" x="12" y="349.8008">Server</text><path d="M7,357.332 L7,356.9911 L16.2,357.0728 L25.4,358.0314 L34.6,357.9025 L43.8,356.6571 L53,357.332 " fill="#FEFECE" style="stroke: #A80036; stroke-width: 1.5;"/><path d="M7,365.332 L7,364.3982 L16.2,365.8511 L25.4,366.2564 L34.6,366.1469 L43.8,366.3121 L53,365.332 " fill="#FEFECE" style="stroke: #A80036; stroke-width: 1.5;"/><text fill="#000000" font-family="sans-serif" font-size="11" lengthAdjust="spacingAndGlyphs" textLength="36" x="12" y="379.9668">+run()</text><!--class Runner--><polygon fill="#FEFECE" filter="url(#f3lmdg2)" points="89,333.1992,89,333.354,98.6,333.6676,108.2,332.7052,117.8,332.5154,127.4,333.0747,137,333.1992,137.0423,333.1992,136.6365,343.8168,137.2418,354.4344,136.287,365.052,136.8336,375.6695,137,386.2871,137,386.2566,127.4,386.9403,117.8,385.5422,108.2,386.539,98.6,386.1701,89,386.2871,89.269,386.2871,89.5002,375.6695,88.9234,365.052,88.5788,354.4344,89.3298,343.8168,89,333.1992" style="stroke: #A80036; stroke-width: 1.5;"/><text fill="#000000" font-family="sans-serif" font-size="12" lengthAdjust="spacingAndGlyphs" textLength="41" x="92.5" y="349.8008">Runner</text><path d="M90,357.332 L90,356.653 L99.2,356.8074 L108.4,358.2435 L117.6,356.4973 L126.8,357.6558 L136,357.332 " fill="#FEFECE" style="stroke: #A80036; stroke-width: 1.5;"/><path d="M90,365.332 L90,365.7545 L99.2,364.5494 L108.4,365.96 L117.6,365.9075 L126.8,365.0948 L136,365.332 " fill="#FEFECE" style="stroke: #A80036; stroke-width: 1.5;"/><text fill="#000000" font-family="sans-serif" font-size="11" lengthAdjust="spacingAndGlyphs" textLength="36" x="95" y="379.9668">+run()</text><!--class Application--><polygon fill="#FEFECE" filter="url(#f3lmdg2)" points="172,333.1992,172,333.1454,182,333.5466,192,333.4205,202,332.9623,212,332.7049,222,333.0457,232,333.2439,242,333.1992,242.2084,333.1992,242.069,343.8168,241.3816,354.4344,242.7194,365.052,241.4504,375.6695,242,386.2871,242,386.928,232,386.2422,222,385.5576,212,385.5953,202,385.8909,192,385.7235,182,386.9274,172,386.2871,172.1086,386.2871,171.3229,375.6695,172.6164,365.052,171.605,354.4344,171.8828,343.8168,172,333.1992" style="stroke: #A80036; stroke-width: 1.5;"/><text fill="#000000" font-family="sans-serif" font-size="12" lengthAdjust="spacingAndGlyphs" textLength="64" x="175" y="349.8008">Application</text><path d="M173,357.332 L173,357.8995 L182.7143,357.4367 L192.4286,357.58 L202.1429,358.1665 L211.8571,356.6553 L221.5714,357.5436 L231.2857,356.8484 L241,357.332 " fill="#FEFECE" style="stroke: #A80036; stroke-width: 1.5;"/><path d="M173,365.332 L173,366.3164 L182.7143,365.0576 L192.4286,364.927 L202.1429,365.6206 L211.8571,364.6506 L221.5714,364.9124 L231.2857,365.2192 L241,365.332 " fill="#FEFECE" style="stroke: #A80036; stroke-width: 1.5;"/><text fill="#000000" font-family="sans-serif" font-size="11" lengthAdjust="spacingAndGlyphs" textLength="53" x="178" y="379.9668">+handle()</text><!--class ControllerFactory--><polygon fill="#FEFECE" filter="url(#f3lmdg2)" points="277.5,333.1992,277.5,332.5953,287.8,333.7104,298.1,332.5152,308.4,333.8117,318.7,332.6527,329,333.1749,339.3,332.6564,349.6,333.5677,359.9,333.1835,370.2,333.8572,380.5,333.1992,379.9432,333.1992,380.2487,343.8168,379.821,354.4344,380.6588,365.052,380.0213,375.6695,380.5,386.2871,380.5,386.1882,370.2,386.8906,359.9,386.8044,349.6,386.5551,339.3,385.9008,329,386.6243,318.7,385.6872,308.4,385.9575,298.1,387.0348,287.8,386.9866,277.5,386.2871,276.9397,386.2871,277.9973,375.6695,278.0179,365.052,278.1001,354.4344,277.6451,343.8168,277.5,333.1992" style="stroke: #A80036; stroke-width: 1.5;"/><text fill="#000000" font-family="sans-serif" font-size="12" lengthAdjust="spacingAndGlyphs" textLength="97" x="280.5" y="349.8008">ControllerFactory</text><path d="M278.5,357.332 L278.5,356.9082 L288.6,356.4712 L298.7,356.771 L308.8,356.803 L318.9,356.8234 L329,358.0517 L339.1,358.0416 L349.2,357.2599 L359.3,358.0361 L369.4,356.6491 L379.5,357.332 " fill="#FEFECE" style="stroke: #A80036; stroke-width: 1.5;"/><path d="M278.5,365.332 L278.5,365.973 L288.6,365.0108 L298.7,365.8511 L308.8,364.5219 L318.9,364.8991 L329,365.0284 L339.1,365.1124 L349.2,366.0718 L359.3,365.595 L369.4,365.0352 L379.5,365.332 " fill="#FEFECE" style="stroke: #A80036; stroke-width: 1.5;"/><text fill="#000000" font-family="sans-serif" font-size="11" lengthAdjust="spacingAndGlyphs" textLength="52" x="283.5" y="379.9668">+invoke()</text><!--class Admin\XxxController--><polygon fill="#FEFECE" filter="url(#f3lmdg2)" points="416,307.1992,416,306.6125,426.1429,307.6675,436.2857,306.6511,446.4286,307.4893,456.5714,307.8708,466.7143,307.4203,476.8571,307.6844,487,306.6854,497.1429,306.8838,507.2857,307.6594,517.4286,307.132,527.5714,306.6149,537.7143,307.0513,547.8571,307.7411,558,307.1992,558.6094,307.1992,558.4229,317.69,558.6125,328.1809,558.5861,338.6717,557.2794,349.1625,557.5762,359.6533,557.5904,370.1441,558.4422,380.635,558.504,391.1258,558.7437,401.6166,558,412.1074,558,412.2671,547.8571,411.6733,537.7143,411.7567,527.5714,411.8413,517.4286,412.5466,507.2857,412.6174,497.1429,412.2593,487,412.2647,476.8571,411.9621,466.7143,412.2345,456.5714,412.5894,446.4286,411.462,436.2857,412.7027,426.1429,412.7971,416,412.1074,415.9128,412.1074,415.8807,401.6166,416.0628,391.1258,416.4399,380.635,416.2069,370.1441,416.6291,359.6533,415.2645,349.1625,415.5891,338.6717,416.1517,328.1809,416.2328,317.69,416,307.1992" style="stroke: #A80036; stroke-width: 1.5;"/><text fill="#000000" font-family="sans-serif" font-size="12" lengthAdjust="spacingAndGlyphs" textLength="121" x="426.5" y="323.8008">Admin\XxxController</text><path d="M417,331.332 L417,330.6999 L427,331.3394 L437,331.3821 L447,330.5002 L457,331.2112 L467,332.3158 L477,330.8619 L487,330.8152 L497,330.4054 L507,330.8655 L517,331.5256 L527,330.9143 L537,331.1014 L547,330.3447 L557,331.332 " fill="#FEFECE" style="stroke: #A80036; stroke-width: 1.5;"/><text fill="#000000" font-family="sans-serif" font-size="11" lengthAdjust="spacingAndGlyphs" textLength="130" x="422" y="345.9668">+BcMessageComponent</text><path d="M417,352.2871 L417,351.4658 L427,351.9247 L437,352.8019 L447,352.8178 L457,353.121 L467,352.2726 L477,352.4593 L487,352.3497 L497,352.2266 L507,353.0552 L517,352.7322 L527,351.7882 L537,352.0227 L547,352.0772 L557,352.2871 " fill="#FEFECE" style="stroke: #A80036; stroke-width: 1.5;"/><text fill="#000000" font-family="sans-serif" font-size="11" lengthAdjust="spacingAndGlyphs" textLength="113" x="422" y="366.9219">+一覧を表示：index()</text><text fill="#000000" font-family="sans-serif" font-size="11" lengthAdjust="spacingAndGlyphs" textLength="92" x="422" y="379.877">+新規追加：add()</text><text fill="#000000" font-family="sans-serif" font-size="11" lengthAdjust="spacingAndGlyphs" textLength="70" x="422" y="392.832">+編集：edit()</text><text fill="#000000" font-family="sans-serif" font-size="11" lengthAdjust="spacingAndGlyphs" textLength="82" x="422" y="405.7871">+削除：delete()</text><!--class BcAdminAppController--><polygon fill="#FEFECE" filter="url(#f3lmdg2)" points="405.5,168.1992,405.5,167.5205,415.6875,167.8506,425.875,168.1287,436.0625,167.9808,446.25,168.2014,456.4375,168.7215,466.625,168.228,476.8125,168.0895,487,167.5036,497.1875,168.4244,507.375,168.8681,517.5625,168.2523,527.75,167.6374,537.9375,167.7031,548.125,167.4889,558.3125,168.2286,568.5,168.1992,568.245,168.1992,568.9799,178.074,568.6822,187.9487,568.1136,197.8235,569.2373,207.6982,568.3631,217.573,569.0004,227.4478,568.9788,237.3225,568.5,247.1973,568.5,247.0843,558.3125,246.9457,548.125,247.4613,537.9375,247.3037,527.75,247.9326,517.5625,247.7444,507.375,246.7616,497.1875,246.7488,487,246.6992,476.8125,247.0611,466.625,246.9554,456.4375,247.2897,446.25,246.7448,436.0625,247.2928,425.875,247.0391,415.6875,246.7614,405.5,247.1973,404.7997,247.1973,405.1914,237.3225,405.9305,227.4478,405.8848,217.573,405.0886,207.6982,405.3847,197.8235,405.3267,187.9487,405.9381,178.074,405.5,168.1992" style="stroke: #A80036; stroke-width: 1.5;"/><text fill="#000000" font-family="sans-serif" font-size="12" lengthAdjust="spacingAndGlyphs" textLength="130" x="422" y="184.8008">BcAdminAppController</text><path d="M406.5,192.332 L406.5,193.3297 L416.5625,191.3722 L426.625,193.0698 L436.6875,193.1175 L446.75,191.4443 L456.8125,191.6063 L466.875,191.5914 L476.9375,193.2348 L487,192.8291 L497.0625,192.6217 L507.125,192.903 L517.1875,192.7892 L527.25,193.2758 L537.3125,192.7662 L547.375,191.6856 L557.4375,191.6981 L567.5,192.332 " fill="#FEFECE" style="stroke: #A80036; stroke-width: 1.5;"/><text fill="#000000" font-family="sans-serif" font-size="11" lengthAdjust="spacingAndGlyphs" textLength="151" x="411.5" y="206.9668">+AuthenticationComponent</text><path d="M406.5,213.2871 L406.5,213.598 L416.5625,213.8238 L426.625,213.5587 L436.6875,213.7868 L446.75,214.0923 L456.8125,213.0314 L466.875,213.3462 L476.9375,212.9334 L487,213.8216 L497.0625,214.0573 L507.125,213.2392 L517.1875,212.7892 L527.25,212.8614 L537.3125,212.6117 L547.375,212.8013 L557.4375,212.638 L567.5,213.2871 " fill="#FEFECE" style="stroke: #A80036; stroke-width: 1.5;"/><text fill="#000000" font-family="sans-serif" font-size="11" lengthAdjust="spacingAndGlyphs" textLength="87" x="411.5" y="227.9219">+invokeAction()</text><text fill="#000000" font-family="sans-serif" font-size="11" lengthAdjust="spacingAndGlyphs" textLength="53" x="411.5" y="240.877">+render()</text><!--class BcAdminAppView--><polygon fill="#FEFECE" filter="url(#f3lmdg2)" points="593.5,333.1992,593.5,333.5828,603.2273,333.7743,612.9545,332.8929,622.6818,332.5069,632.4091,332.8835,642.1364,333.3611,651.8636,332.6385,661.5909,332.5078,671.3182,333.2677,681.0455,333.5722,690.7727,332.5448,700.5,333.1992,700.8756,333.1992,701.1861,343.8168,700.0341,354.4344,700.1785,365.052,699.7619,375.6695,700.5,386.2871,700.5,385.6704,690.7727,385.9578,681.0455,386.6539,671.3182,386.3496,661.5909,386.5339,651.8636,386.1684,642.1364,386.7063,632.4091,386.5334,622.6818,386.282,612.9545,386.1082,603.2273,386.9472,593.5,386.2871,593.6911,386.2871,594.1385,375.6695,594.1454,365.052,593.3744,354.4344,593.5515,343.8168,593.5,333.1992" style="stroke: #A80036; stroke-width: 1.5;"/><text fill="#000000" font-family="sans-serif" font-size="12" lengthAdjust="spacingAndGlyphs" textLength="101" x="596.5" y="349.8008">BcAdminAppView</text><path d="M594.5,357.332 L594.5,357.3265 L604.0455,356.7774 L613.5909,357.4457 L623.1364,358.1983 L632.6818,357.1807 L642.2273,357.7948 L651.7727,356.8778 L661.3182,357.1951 L670.8636,358.1958 L680.4091,357.0484 L689.9545,357.6362 L699.5,357.332 " fill="#FEFECE" style="stroke: #A80036; stroke-width: 1.5;"/><path d="M594.5,365.332 L594.5,366.0251 L604.0455,366.019 L613.5909,365.5709 L623.1364,366.049 L632.6818,365.4402 L642.2273,365.8414 L651.7727,365.4782 L661.3182,365.0535 L670.8636,365.9672 L680.4091,366.0091 L689.9545,365.0822 L699.5,365.332 " fill="#FEFECE" style="stroke: #A80036; stroke-width: 1.5;"/><text fill="#000000" font-family="sans-serif" font-size="11" lengthAdjust="spacingAndGlyphs" textLength="53" x="599.5" y="379.9668">+render()</text><!--class AppController--><polygon fill="#FEFECE" filter="url(#f3lmdg2)" points="416,29.1992,416,29.5256,426.1429,29.8904,436.2857,29.5759,446.4286,28.5218,456.5714,29.2829,466.7143,28.9031,476.8571,28.8132,487,28.7645,497.1429,29.9468,507.2857,29.6423,517.4286,29.8599,527.5714,28.6534,537.7143,29.416,547.8571,28.8973,558,29.1992,557.7671,29.1992,558.208,39.074,557.647,48.9487,557.8203,58.8235,557.8144,68.6982,558.4631,78.573,558.2288,88.4478,557.9471,98.3225,558,108.1973,558,108.6902,547.8571,108.5061,537.7143,108.3139,527.5714,107.5228,517.4286,108.6623,507.2857,108.3319,497.1429,108.1943,487,108.3088,476.8571,108.5197,466.7143,107.8389,456.5714,108.3873,446.4286,107.9727,436.2857,108.0967,426.1429,108.2357,416,108.1973,415.4139,108.1973,416.4469,98.3225,415.8418,88.4478,416.308,78.573,415.8991,68.6982,416.6936,58.8235,416.2414,48.9487,416.0094,39.074,416,29.1992" style="stroke: #A80036; stroke-width: 1.5;"/><text fill="#000000" font-family="sans-serif" font-size="12" lengthAdjust="spacingAndGlyphs" textLength="80" x="447" y="45.8008">AppController</text><path d="M417,53.332 L417,53.9055 L427,52.4499 L437,53.5177 L447,53.1306 L457,54.1468 L467,53.3124 L477,53.6859 L487,54.3184 L497,54.2573 L507,53.2547 L517,54.0457 L527,53.66 L537,52.9112 L547,54.2645 L557,53.332 " fill="#FEFECE" style="stroke: #A80036; stroke-width: 1.5;"/><text fill="#000000" font-family="sans-serif" font-size="11" lengthAdjust="spacingAndGlyphs" textLength="130" x="422" y="67.9668">+BcMessageComponent</text><text fill="#000000" font-family="sans-serif" font-size="11" lengthAdjust="spacingAndGlyphs" textLength="115" x="422" y="80.9219">+SecurityComponent</text><text fill="#000000" font-family="sans-serif" font-size="11" lengthAdjust="spacingAndGlyphs" textLength="123" x="422" y="93.877">+PaginatorComponent</text><path d="M417,100.1973 L417,99.5889 L427,101.1255 L437,99.7179 L447,100.2641 L457,101.0014 L467,99.3148 L477,99.6774 L487,100.6097 L497,100.5321 L507,100.4617 L517,100.2092 L527,100.7669 L537,101.0206 L547,99.9356 L557,100.1973 " fill="#FEFECE" style="stroke: #A80036; stroke-width: 1.5;"/><!--class BcAdminXxxHelper--><polygon fill="#FEFECE" filter="url(#f3lmdg2)" points="580.5,504.6992,580.5,504.13,590.25,505.2697,600,505.2703,609.75,504.3225,619.5,504.0904,629.25,505.1831,639,504.888,648.75,504.6829,658.5,505.051,668.25,505.3335,678,504.9786,687.75,504.0219,697.5,504.6992,697.6803,504.6992,697.261,512.7258,697.6562,520.7523,697.3153,528.7789,697.5287,536.8055,697.5,544.832,697.5,545.0589,687.75,544.5318,678,544.298,668.25,544.6287,658.5,544.8311,648.75,544.7684,639,544.1485,629.25,544.4312,619.5,545.1557,609.75,544.6868,600,545.4791,590.25,544.428,580.5,544.832,580.6905,544.832,580.6341,536.8055,580.3428,528.7789,580.6818,520.7523,580.6253,512.7258,580.5,504.6992" style="stroke: #A80036; stroke-width: 1.5;"/><text fill="#000000" font-family="sans-serif" font-size="12" lengthAdjust="spacingAndGlyphs" textLength="111" x="583.5" y="521.3008">BcAdminXxxHelper</text><path d="M581.5,528.832 L581.5,527.8448 L591.0833,528.4562 L600.6667,529.7474 L610.25,528.0661 L619.8333,529.4773 L629.4167,527.8481 L639,528.5782 L648.5833,528.5276 L658.1667,529.4059 L667.75,529.4161 L677.3333,528.513 L686.9167,528.4978 L696.5,528.832 " fill="#FEFECE" style="stroke: #A80036; stroke-width: 1.5;"/><path d="M581.5,536.832 L581.5,536.7598 L591.0833,537.4708 L600.6667,537.7634 L610.25,537.2812 L619.8333,536.5713 L629.4167,536.3625 L639,536.6569 L648.5833,536.7684 L658.1667,537.3739 L667.75,537.5986 L677.3333,536.7577 L686.9167,537.2451 L696.5,536.832 " fill="#FEFECE" style="stroke: #A80036; stroke-width: 1.5;"/><!--class XxxService--><polygon fill="#FEFECE" filter="url(#f3lmdg2)" points="459.5,498.1992,459.5,498.5939,469.6429,497.5114,479.7857,498.2853,489.9286,497.7437,500.0714,497.7506,510.2143,498.4986,520.3571,497.5132,530.5,498.1992,530.343,498.1992,531.1262,508.8168,530.3885,519.4344,530.044,530.052,530.3074,540.6695,530.5,551.2871,530.5,550.8985,520.3571,551.5087,510.2143,551.5269,500.0714,551.5046,489.9286,550.713,479.7857,551.8998,469.6429,550.8318,459.5,551.2871,458.7517,551.2871,458.9884,540.6695,460.1396,530.052,459.011,519.4344,459.0725,508.8168,459.5,498.1992" style="stroke: #A80036; stroke-width: 1.5;"/><text fill="#000000" font-family="sans-serif" font-size="12" lengthAdjust="spacingAndGlyphs" textLength="62" x="464" y="514.8008">XxxService</text><path d="M460.5,522.332 L460.5,522.6838 L470.3571,522.884 L480.2143,523.1598 L490.0714,522.3039 L499.9286,521.7214 L509.7857,522.2781 L519.6429,523.257 L529.5,522.332 " fill="#FEFECE" style="stroke: #A80036; stroke-width: 1.5;"/><text fill="#000000" font-family="sans-serif" font-size="11" lengthAdjust="spacingAndGlyphs" textLength="59" x="465.5" y="536.9668">+XxxTable</text><path d="M460.5,543.2871 L460.5,542.7349 L470.3571,542.5768 L480.2143,543.682 L490.0714,543.3063 L499.9286,543.5434 L509.7857,542.8454 L519.6429,542.8811 L529.5,543.2871 " fill="#FEFECE" style="stroke: #A80036; stroke-width: 1.5;"/><!--class XxxServiceInterface--><polygon fill="#FEFECE" filter="url(#f3lmdg2)" points="268,472.1992,268,472.2693,277.75,471.8574,287.5,471.4552,297.25,472.3486,307,472.8788,316.75,472.4258,326.5,471.6349,336.25,472.0636,346,472.2111,355.75,471.9848,365.5,472.2694,375.25,472.7782,385,472.7368,394.75,471.7888,404.5,471.8514,414.25,471.8768,424,472.1992,424.3305,472.1992,423.9252,482.69,423.888,493.1809,424.4657,503.6717,423.3382,514.1625,423.6351,524.6533,423.8899,535.1441,424.0536,545.635,424.2691,556.1258,423.7873,566.6166,424,577.1074,424,576.4643,414.25,577.2009,404.5,577.2122,394.75,577.7195,385,576.6925,375.25,576.7101,365.5,577.0343,355.75,576.7154,346,577.7902,336.25,576.9173,326.5,576.8753,316.75,576.5654,307,576.5922,297.25,576.4658,287.5,577.1408,277.75,577.6942,268,577.1074,267.8527,577.1074,268.3043,566.6166,268.7148,556.1258,268.3313,545.635,267.8192,535.1441,267.6574,524.6533,268.1123,514.1625,268.2946,503.6717,267.886,493.1809,267.7196,482.69,268,472.1992" style="stroke: #A80036; stroke-width: 1.5;"/><text fill="#000000" font-family="sans-serif" font-size="12" lengthAdjust="spacingAndGlyphs" textLength="112" x="290" y="488.8008">XxxServiceInterface</text><path d="M269,496.332 L269,495.8112 L279.2667,496.3352 L289.5333,496.6149 L299.8,497.2542 L310.0667,497.2676 L320.3333,496.9755 L330.6,496.9143 L340.8667,496.9099 L351.1333,495.6117 L361.4,496.1265 L371.6667,496.2827 L381.9333,496.1778 L392.2,496.2262 L402.4667,495.4667 L412.7333,495.9261 L423,496.332 " fill="#FEFECE" style="stroke: #A80036; stroke-width: 1.5;"/><path d="M269,504.332 L269,504.9615 L279.2667,505.0507 L289.5333,504.0721 L299.8,504.2797 L310.0667,504.1511 L320.3333,504.0651 L330.6,504.2754 L340.8667,505.2146 L351.1333,503.8603 L361.4,504.8455 L371.6667,504.0943 L381.9333,503.8178 L392.2,504.2523 L402.4667,504.2195 L412.7333,504.429 L423,504.332 " fill="#FEFECE" style="stroke: #A80036; stroke-width: 1.5;"/><text fill="#000000" font-family="sans-serif" font-size="11" lengthAdjust="spacingAndGlyphs" textLength="83" x="274" y="518.9668">+作成：create()</text><text fill="#000000" font-family="sans-serif" font-size="11" lengthAdjust="spacingAndGlyphs" textLength="87" x="274" y="531.9219">+編集：update()</text><text fill="#000000" font-family="sans-serif" font-size="11" lengthAdjust="spacingAndGlyphs" textLength="122" x="274" y="544.877">+単一データ取得：get()</text><text fill="#000000" font-family="sans-serif" font-size="11" lengthAdjust="spacingAndGlyphs" textLength="135" x="274" y="557.832">+一覧データ取得：index()</text><text fill="#000000" font-family="sans-serif" font-size="11" lengthAdjust="spacingAndGlyphs" textLength="144" x="274" y="570.7871">+初期データ取得：getNew()</text><!--class XxxTable--><polygon fill="#FEFECE" filter="url(#f3lmdg2)" points="464.5,637.1992,464.5,637.1841,474.6667,637.818,484.8333,636.9351,495,636.5489,505.1667,637.0084,515.3333,637.7977,525.5,637.1992,525.6648,637.1992,525.638,645.2258,525.5649,653.2523,525.4155,661.2789,525.6253,669.3055,525.5,677.332,525.5,677.5307,515.3333,677.3571,505.1667,678.0087,495,676.6107,484.8333,677.6473,474.6667,677.6029,464.5,677.332,464.3847,677.332,464.4997,669.3055,464.3581,661.2789,464.4581,653.2523,464.3291,645.2258,464.5,637.1992" style="stroke: #A80036; stroke-width: 1.5;"/><text fill="#000000" font-family="sans-serif" font-size="12" lengthAdjust="spacingAndGlyphs" textLength="55" x="467.5" y="653.8008">XxxTable</text><path d="M465.5,661.332 L465.5,662.0902 L475.3333,662.0153 L485.1667,661.4959 L495,661.5079 L504.8333,660.422 L514.6667,661.7486 L524.5,661.332 " fill="#FEFECE" style="stroke: #A80036; stroke-width: 1.5;"/><path d="M465.5,669.332 L465.5,669.2608 L475.3333,668.3886 L485.1667,669.9776 L495,668.4701 L504.8333,669.5656 L514.6667,669.4237 L524.5,669.332 " fill="#FEFECE" style="stroke: #A80036; stroke-width: 1.5;"/><!--class Xxx--><polygon fill="#FEFECE" filter="url(#f3lmdg2)" points="481,737.1992,481,737.2877,486.6,737.3397,492.2,737.0217,497.8,737.2504,503.4,737.4023,509,737.1992,508.9544,737.1992,508.7947,745.2258,508.7526,753.2523,508.761,761.2789,509.061,769.3055,509,777.332,509,777.3014,503.4,777.2684,497.8,777.2696,492.2,777.2385,486.6,777.5421,481,777.332,481.1796,777.332,481.0924,769.3055,481.0587,761.2789,480.7685,753.2523,481.1179,745.2258,481,737.1992" style="stroke: #A80036; stroke-width: 1.5;"/><text fill="#000000" font-family="sans-serif" font-size="12" lengthAdjust="spacingAndGlyphs" textLength="22" x="484" y="753.8008">Xxx</text><path d="M482,761.332 L482,761.6248 L487.2,761.4756 L492.4,761.5815 L497.6,761.4935 L502.8,761.1072 L508,761.332 " fill="#FEFECE" style="stroke: #A80036; stroke-width: 1.5;"/><path d="M482,769.332 L482,769.6515 L487.2,769.6323 L492.4,769.6068 L497.6,769.5329 L502.8,769.451 L508,769.332 " fill="#FEFECE" style="stroke: #A80036; stroke-width: 1.5;"/><polygon fill="#FBFB77" filter="url(#f3lmdg2)" points="346.5,744.6992,346.6932,744.6992,346.6661,749.7613,346.717,754.8234,346.2831,759.8855,346.6773,764.9477,346.5,770.0098,346.5,769.29,356.4,769.5878,366.3,769.6523,376.2,770.3097,386.1,769.7135,396,769.8196,405.9,770.5973,415.8,769.6525,425.7,770.36,435.6,769.446,445.5,770.0098,445.7402,770.0098,445.6406,766.9477,445.6158,763.8855,445.6986,760.8234,445.2829,757.7613,445.5,754.6992,445.4503,754.6495,443.5735,752.7728,441.3525,750.5518,439.6698,748.8691,437.4038,746.603,435.5,744.6992,435.5,744.7457,425.6111,744.687,415.7222,744.2007,405.8333,744.1027,395.9444,745.0166,386.0556,744.8724,376.1667,745.1408,366.2778,744.1479,356.3889,744.2449,346.5,744.6992" style="stroke: #A80036; stroke-width: 1.0;"/><polygon fill="#FBFB77" points="346.5,744.6992,346.5112,744.6992,346.3971,749.7613,346.7013,754.8234,346.3199,759.8855,346.58,764.9477,346.5,770.0098,346.5,769.7192,356.4,770.1893,366.3,770.6836,376.2,769.9833,386.1,769.6806,396,769.2663,405.9,769.7868,415.8,770.3182,425.7,769.6957,435.6,770.0376,445.5,770.0098,445.2794,770.0098,445.2892,768.5477,445.6697,767.0855,445.4414,765.6234,445.2536,764.1613,445.5,762.6992,445.5285,762.8821,452.5715,761.6733,459.6113,760.4434,466.7132,759.6123,473.7638,758.4519,480.8,757.1992,480.804,757.2563,473.7492,756.8292,466.6745,756.1223,459.636,755.9249,452.5502,755.0602,445.5,754.6992,445.448,754.6472,443.5871,752.7863,441.6538,750.8531,439.6397,748.8389,437.3503,746.5495,435.5,744.6992,435.5,744.0692,425.6111,744.3026,415.7222,745.108,405.8333,745.4276,395.9444,744.2781,386.0556,744.694,376.1667,744.6795,366.2778,744.7026,356.3889,744.4707,346.5,744.6992" style="stroke: #A80036; stroke-width: 1.0;"/><path d="M435.5,744.6992 L435.5452,744.6992 L435.5396,746.6992 L435.2762,748.6992 L435.6909,750.6992 L435.6849,752.6992 L435.5,754.6992 " fill="#FBFB77" style="stroke: #A80036; stroke-width: 1.0;"/><path d="M445.5,754.6992 L445.5,755.0229 L443.5,754.926 L441.5,754.9654 L439.5,755.0324 L437.5,754.7422 L435.5,754.6992 " fill="#FBFB77" style="stroke: #A80036; stroke-width: 1.0;"/><text fill="#000000" font-family="sans-serif" font-size="13" lengthAdjust="spacingAndGlyphs" textLength="78" x="352.5" y="762.2676">エンティティ</text><path d="M54.32,359.6992 L54.32,359.8037 L60.176,359.5519 L66.032,359.6138 L71.888,359.6653 L77.744,359.9652 L83.6,359.6992 " fill="none" style="stroke: #000000; stroke-width: 1.0;"/><polygon fill="#000000" points="88.7,359.6992,88.6915,359.68,86.7993,358.6725,85.0574,358.0034,83.3759,357.4699,81.5793,356.6776,79.7,355.6992,79.7891,355.7883,80.3997,356.3989,81.1874,357.1866,82.2533,358.2526,82.7426,358.7418,83.7,359.6992,83.7796,359.7788,82.7282,360.3274,82.2751,361.4743,81.4739,362.2731,80.4519,362.8512,79.7,363.6992,79.7972,363.9178,81.5867,363.0942,83.2181,361.915,85.1722,361.4616,86.9134,360.5295,88.7,359.6992" style="stroke: #000000; stroke-width: 1.0;"/><path d="M137.23,359.6992 L137.23,359.4542 L143.126,359.3981 L149.022,359.4018 L154.918,359.8355 L160.814,359.8341 L166.71,359.6992 " fill="none" style="stroke: #000000; stroke-width: 1.0;"/><polygon fill="#000000" points="171.84,359.6992,171.7744,359.5516,170.11,359.0567,168.3167,358.2717,166.3804,357.1651,164.6913,356.6146,162.84,355.6992,162.9322,355.7914,163.4877,356.3469,164.4652,357.3244,165.1585,358.0178,166.1279,358.9871,166.84,359.6992,166.7555,359.6148,166.1169,360.5761,165.2092,361.2684,164.3095,361.9687,163.6126,362.8718,162.84,363.6992,162.8118,363.6357,164.5531,362.7036,166.4178,362.0492,168.3114,361.4599,170.0563,360.5358,171.84,359.6992" style="stroke: #000000; stroke-width: 1.0;"/><path d="M242.27,359.6992 L242.27,359.8213 L248.212,360.0103 L254.154,359.6074 L260.096,359.6372 L266.038,359.5622 L271.98,359.6992 " fill="none" style="stroke: #000000; stroke-width: 1.0;"/><polygon fill="#000000" points="277.16,359.6992,277.2138,359.8202,275.2941,358.751,273.6285,358.2533,271.6782,357.1152,269.9763,356.5359,268.16,355.6992,268.1408,355.68,268.873,356.4122,269.8406,357.3798,270.416,357.9552,271.2368,358.7761,272.16,359.6992,272.0991,359.6383,271.3329,360.4721,270.5663,361.3055,269.7937,362.1329,269.1347,363.0739,268.16,363.6992,268.0811,363.5217,269.9396,362.8534,271.8587,362.3212,273.4826,361.125,275.4087,360.6088,277.16,359.6992" style="stroke: #000000; stroke-width: 1.0;"/><path d="M380.54,359.6992 L380.54,359.6296 L386.56,359.7235 L392.58,359.9866 L398.6,359.7511 L404.62,359.5225 L410.64,359.6992 " fill="none" style="stroke: #000000; stroke-width: 1.0;"/><polygon fill="#000000" points="415.88,359.6992,415.814,359.5507,414.031,358.7889,412.358,358.2748,410.4487,357.2287,408.6512,356.4344,406.88,355.6992,407.0567,355.8759,407.5768,356.3961,408.6232,357.4424,409.3101,358.1293,409.9601,358.7793,410.88,359.6992,410.9438,359.763,410.0162,360.4354,409.1166,361.1359,408.3487,361.9679,407.8456,363.0648,406.88,363.6992,406.8485,363.6284,408.6432,362.8163,410.5157,362.1795,412.1972,361.113,414.0274,360.3808,415.88,359.6992" style="stroke: #000000; stroke-width: 1.0;"/><path d="M558.25,359.6992 L558.25,359.711 L564.214,359.6821 L570.178,359.4037 L576.142,359.6941 L582.106,359.9228 L588.07,359.6992 " fill="none" style="stroke: #000000; stroke-width: 1.0;"/><polygon fill="#000000" points="593.26,359.6992,593.2928,359.773,591.4011,358.7667,589.7126,358.2177,587.8952,357.3784,586.0024,356.3695,584.26,355.6992,584.2391,355.6783,585.1627,356.6019,585.875,357.3143,586.6985,358.1377,587.5371,358.9763,588.26,359.6992,588.117,359.5562,587.3772,360.4164,586.604,361.2432,585.7218,361.961,584.9508,362.79,584.26,363.6992,584.3245,363.8443,586.0872,362.9603,587.8095,361.9857,589.605,361.1756,591.5038,360.5977,593.26,359.6992" style="stroke: #000000; stroke-width: 1.0;"/><path d="M489.53,412.2692 L489.7432,412.2797 L489.6599,422.3388 L491.0677,432.4711 L490.3762,442.5004 L492.2878,452.6574 L492.5787,462.7349 L492.3441,472.7866 L492.5704,482.8609 L493.49,492.9692 " fill="none" style="stroke: #000000; stroke-width: 1.0;"/><polygon fill="#000000" points="493.74,497.9592,493.7894,497.9783,494.616,496.1862,495.3313,494.3509,495.6779,492.3727,496.4533,490.5607,497.2987,488.7758,497.4755,488.9362,496.6576,489.7218,495.6037,490.2932,495.0674,491.3342,494.1087,491.9921,493.4974,492.9651,493.4078,492.8663,492.6575,492.2026,491.8432,491.4683,490.8414,490.5274,490.196,489.9793,489.3081,489.1639,489.3301,489.175,490.3161,490.9842,491.0455,492.6642,492.1229,494.5195,492.7927,496.1695,493.74,497.9592" style="stroke: #000000; stroke-width: 1.0;"/><path d="M487,267.6892 L487.0366,267.6892 L487.2389,275.5892 L486.8025,283.4892 L486.9872,291.3892 L486.9272,299.2892 L487,307.1892 " fill="none" style="stroke: #000000; stroke-width: 1.0;"/><polygon fill="none" points="480,267.3292,479.8416,267.2738,481.2306,263.2699,482.7892,259.3254,484.0343,255.2712,485.6899,251.3607,487,247.3292,487.0925,247.3616,488.2636,251.2815,490.028,255.409,491.0906,259.2909,492.7472,263.3807,494,267.3292,494,267.2648,491.2,267.2378,488.4,267.4023,485.6,267.4003,482.8,267.1922,480,267.3292" style="stroke: #000000; stroke-width: 1.0;"/><path d="M487,128.4992 L486.6924,128.4992 L486.8637,136.3972 L487.1398,144.2952 L486.9344,152.1932 L486.8155,160.0912 L487,167.9892 " fill="none" style="stroke: #000000; stroke-width: 1.0;"/><polygon fill="none" points="480,128.2292,479.9189,128.2008,481.3168,124.2001,482.6375,120.1724,484.1374,116.2073,485.5517,112.2123,487,108.2292,486.8485,108.1762,488.6215,112.3067,489.6777,116.1864,491.3375,120.2773,492.6264,124.2385,494,128.2292,494,128.1592,491.2,128.0163,488.4,128.2226,485.6,128.4777,482.8,128.2858,480,128.2292" style="stroke: #000000; stroke-width: 1.0;"/><path d="M645.73,386.5292 L646.4552,386.5648 L645.6745,396.8285 L645.2444,407.1095 L644.5039,417.3752 L642.9266,427.5998 L643.5082,437.9304 L643.244,448.2194 L642.0678,458.4637 L641.3206,468.7291 L641.7729,479.0533 L639.8782,489.2624 L640.18,499.5792 " fill="none" style="stroke: #000000; stroke-width: 1.0;"/><polygon fill="#000000" points="639.94,504.6092,639.916,504.597,640.6384,502.7548,641.7595,501.1148,642.5759,499.3202,643.3141,497.4859,644.397,495.8265,644.3682,495.7947,643.6519,496.6896,642.5887,497.2002,641.9056,498.1319,641.1093,498.9383,640.1968,499.6158,640.2169,499.634,639.2809,498.6332,638.5606,497.827,637.7469,496.9366,637.3437,496.4165,636.4075,495.4157,636.292,495.3713,637.0724,497.2384,637.7548,499.0678,638.3934,500.8805,639.297,502.7949,639.94,504.6092" style="stroke: #000000; stroke-width: 1.0;"/><path d="M535.74,524.6992 L535.74,524.4541 L544.634,524.4364 L553.528,524.9579 L562.422,524.4016 L571.316,524.9901 L580.21,524.6992 " fill="none" style="stroke: #000000; stroke-width: 1.0;"/><polygon fill="#000000" points="530.72,524.6992,530.6263,524.4885,532.4646,525.3745,534.3534,526.3744,536.1106,527.0781,537.8621,527.769,539.72,528.6992,539.6268,528.606,539.092,528.0713,538.0536,527.0328,537.2242,526.2034,536.5371,525.5163,535.72,524.6992,535.6902,524.6694,536.3748,523.754,537.1444,522.9236,538.2613,522.4405,538.8331,521.4123,539.72,520.6992,539.763,520.796,537.9108,521.4785,536.1898,522.4563,534.2758,522.9998,532.5412,523.9468,530.72,524.6992" style="stroke: #000000; stroke-width: 1.0;"/><path d="M495,551.4792 L494.0133,551.4792 L494.2848,561.4892 L495.7911,571.4992 L494.9577,581.5092 L494.0469,591.5192 L494.6891,601.5292 L495.5946,611.5392 L495.8865,621.5492 L495,631.5592 " fill="none" style="stroke: #000000; stroke-width: 1.0;"/><polygon fill="#000000" points="495,636.8392,495.138,636.9006,495.7259,635.0063,496.4445,633.1701,497.229,631.3632,498.3404,629.7016,499,627.8392,498.8793,627.7185,498.0457,628.485,497.3105,629.3497,496.5407,630.18,495.6466,630.8858,495,631.8392,495.1412,631.9804,494.2069,631.0461,493.4885,630.3277,492.7123,629.5515,491.7066,628.5459,491,627.8392,491.1969,627.9267,492.0096,629.7324,492.4826,631.387,493.3915,633.2355,494.1305,635.0083,495,636.8392" style="stroke: #000000; stroke-width: 1.0;"/><path d="M444.29,524.6992 L444.29,524.7275 L447.306,524.757 L450.322,524.646 L453.338,525.0315 L456.354,524.7324 L459.37,524.6992 " fill="none" style="stroke: #000000; stroke-width: 1.0; stroke-dasharray: 1.0,3.0;"/><polygon fill="none" points="444.28,531.6992,444.3096,531.7838,440.273,530.2793,436.3138,528.9958,432.303,527.5649,428.3317,526.2471,424.28,524.6992,424.2166,524.5181,428.2462,523.2026,432.3073,521.9772,436.2348,520.37,440.3619,519.3333,444.28,517.6992,444.2214,517.6992,444.3113,520.4992,444.2023,523.2992,444.0665,526.0992,444.1189,528.8992,444.28,531.6992" style="stroke: #000000; stroke-width: 1.0;"/><path d="M495,677.5592 L495.2913,677.5592 L494.8183,688.4192 L495.6275,699.2792 L494.4358,710.1392 L494.3315,720.9992 L495,731.8592 " fill="none" style="stroke: #000000; stroke-width: 1.0;"/><polygon fill="#000000" points="495,736.8792,495.1321,736.9379,495.6518,735.0133,496.7382,733.3406,497.245,731.4103,498.0622,729.618,499,727.8792,498.8634,727.7426,498.2246,728.7038,497.328,729.4072,496.4761,730.1553,495.8846,731.1638,495,731.8792,494.8264,731.7056,494.2113,731.0905,493.338,730.2172,492.6935,729.5727,491.8991,728.7783,491,727.8792,490.79,727.7859,491.62,729.5992,492.5214,731.4443,493.4019,733.2801,494.3751,735.157,495,736.8792" style="stroke: #000000; stroke-width: 1.0;"/></g></svg>