<?xml version="1.0" encoding="UTF-8" standalone="no"?><svg xmlns="http://www.w3.org/2000/svg" xmlns:xlink="http://www.w3.org/1999/xlink" contentScriptType="application/ecmascript" contentStyleType="text/css" height="782px" preserveAspectRatio="none" style="width:740px;height:782px;" version="1.1" viewBox="0 0 740 782" width="740px" zoomAndPan="magnify"><defs><filter height="300%" id="fvhxt6b" width="300%" x="-1" y="-1"><feGaussianBlur result="blurOut" stdDeviation="2.0"/><feColorMatrix in="blurOut" result="blurOut2" type="matrix" values="0 0 0 0 0 0 0 0 0 0 0 0 0 0 0 0 0 0 .4 0"/><feOffset dx="4.0" dy="4.0" in="blurOut2" result="blurOut3"/><feBlend in="SourceGraphic" in2="blurOut3" mode="normal"/></filter></defs><g><text fill="#000000" font-family="sans-serif" font-size="18" lengthAdjust="spacingAndGlyphs" textLength="198" x="275.5" y="16.708">管理画面基本クラス構成</text><!--class Server--><polygon fill="#FEFECE" filter="url(#fvhxt6b)" points="6,330.4531,6,330.1376,15.6,330.4025,25.2,329.755,34.8,330.7292,44.4,329.7979,54,330.4531,54.6021,330.4531,53.4751,341.0078,54.7181,351.5625,54.657,362.1172,53.3933,372.6719,54,383.2266,54,382.8376,44.4,383.5154,34.8,383.4285,25.2,382.7209,15.6,382.9336,6,383.2266,5.9083,383.2266,5.4591,372.6719,6.6762,362.1172,6.0339,351.5625,5.6614,341.0078,6,330.4531" style="stroke: #A80036; stroke-width: 1.5;"/><text fill="#000000" font-family="sans-serif" font-size="12" lengthAdjust="spacingAndGlyphs" textLength="40" x="10" y="346.5918">Server</text><path d="M7,354.4219 L7,355.3515 L16.2,353.6536 L25.4,353.9251 L34.6,353.8676 L43.8,353.8379 L53,354.4219 " fill="#FEFECE" style="stroke: #A80036; stroke-width: 1.5;"/><path d="M7,362.4219 L7,362.0088 L16.2,363.0058 L25.4,362.5884 L34.6,362.0419 L43.8,362.5792 L53,362.4219 " fill="#FEFECE" style="stroke: #A80036; stroke-width: 1.5;"/><text fill="#000000" font-family="sans-serif" font-size="11" lengthAdjust="spacingAndGlyphs" textLength="36" x="12" y="376.6323">+run()</text><!--class Runner--><polygon fill="#FEFECE" filter="url(#fvhxt6b)" points="89.5,330.4531,89.5,329.8712,99.7,331.0213,109.9,330.7081,120.1,329.9817,130.3,330.0123,140.5,330.4531,140.5995,330.4531,140.8514,341.0078,140.9033,351.5625,141.186,362.1172,140.269,372.6719,140.5,383.2266,140.5,383.7795,130.3,383.1853,120.1,382.9308,109.9,382.6378,99.7,382.8145,89.5,383.2266,89.2477,383.2266,88.9508,372.6719,89.0683,362.1172,90.1628,351.5625,89.0027,341.0078,89.5,330.4531" style="stroke: #A80036; stroke-width: 1.5;"/><text fill="#000000" font-family="sans-serif" font-size="12" lengthAdjust="spacingAndGlyphs" textLength="45" x="92.5" y="346.5918">Runner</text><path d="M90.5,354.4219 L90.5,354.8733 L100.3,355.3074 L110.1,354.1262 L119.9,354.6536 L129.7,354.5554 L139.5,354.4219 " fill="#FEFECE" style="stroke: #A80036; stroke-width: 1.5;"/><path d="M90.5,362.4219 L90.5,362.5239 L100.3,362.3189 L110.1,362.1624 L119.9,361.9287 L129.7,362.232 L139.5,362.4219 " fill="#FEFECE" style="stroke: #A80036; stroke-width: 1.5;"/><text fill="#000000" font-family="sans-serif" font-size="11" lengthAdjust="spacingAndGlyphs" textLength="36" x="95.5" y="376.6323">+run()</text><!--class Application--><polygon fill="#FEFECE" filter="url(#fvhxt6b)" points="175.5,330.4531,175.5,330.6299,184.875,329.9882,194.25,330.6504,203.625,330.1167,213,330.7109,222.375,330.5527,231.75,330.6013,241.125,330.913,250.5,330.4531,250.3617,330.4531,250.2761,341.0078,251.1511,351.5625,250.7861,362.1172,250.3153,372.6719,250.5,383.2266,250.5,383.923,241.125,382.7647,231.75,382.5043,222.375,382.7579,213,382.6457,203.625,382.6096,194.25,383.4907,184.875,383.3003,175.5,383.2266,175.0611,383.2266,176.1207,372.6719,175.5833,362.1172,175.278,351.5625,176.1473,341.0078,175.5,330.4531" style="stroke: #A80036; stroke-width: 1.5;"/><text fill="#000000" font-family="sans-serif" font-size="12" lengthAdjust="spacingAndGlyphs" textLength="69" x="178.5" y="346.5918">Application</text><path d="M176.5,354.4219 L176.5,354.0891 L186.9286,354.7961 L197.3571,354.2058 L207.7857,354.6251 L218.2143,354.4032 L228.6429,353.8716 L239.0714,355.1779 L249.5,354.4219 " fill="#FEFECE" style="stroke: #A80036; stroke-width: 1.5;"/><path d="M176.5,362.4219 L176.5,361.7271 L186.9286,362.5714 L197.3571,362.4301 L207.7857,362.6423 L218.2143,362.8686 L228.6429,361.4647 L239.0714,361.7155 L249.5,362.4219 " fill="#FEFECE" style="stroke: #A80036; stroke-width: 1.5;"/><text fill="#000000" font-family="sans-serif" font-size="11" lengthAdjust="spacingAndGlyphs" textLength="55" x="181.5" y="376.6323">+handle()</text><!--class ControllerFactory--><polygon fill="#FEFECE" filter="url(#fvhxt6b)" points="285.5,330.4531,285.5,330.728,295.7727,331.1033,306.0455,329.9976,316.3182,330.3253,326.5909,330.8389,336.8636,329.7484,347.1364,330.9713,357.4091,330.7646,367.6818,330.2174,377.9545,329.9059,388.2273,330.7973,398.5,330.4531,398.1448,330.4531,398.0082,341.0078,399.0172,351.5625,398.8312,362.1172,398.8765,372.6719,398.5,383.2266,398.5,383.3279,388.2273,383.1202,377.9545,382.8027,367.6818,383.3009,357.4091,383.6561,347.1364,383.7263,336.8636,382.5134,326.5909,382.5793,316.3182,383.3679,306.0455,383.3989,295.7727,383.7794,285.5,383.2266,285.5195,383.2266,285.9863,372.6719,286.0238,362.1172,285.4139,351.5625,286.2448,341.0078,285.5,330.4531" style="stroke: #A80036; stroke-width: 1.5;"/><text fill="#000000" font-family="sans-serif" font-size="12" lengthAdjust="spacingAndGlyphs" textLength="107" x="288.5" y="346.5918">ControllerFactory</text><path d="M286.5,354.4219 L286.5,354.2059 L296.5909,355.2143 L306.6818,354.0923 L316.7727,355.1865 L326.8636,353.7767 L336.9545,354.9523 L347.0455,354.1446 L357.1364,354.7796 L367.2273,354.094 L377.3182,354.6408 L387.4091,354.8428 L397.5,354.4219 " fill="#FEFECE" style="stroke: #A80036; stroke-width: 1.5;"/><path d="M286.5,362.4219 L286.5,362.8772 L296.5909,363.3797 L306.6818,362.7437 L316.7727,363.2781 L326.8636,362.0285 L336.9545,362.925 L347.0455,362.7276 L357.1364,361.5831 L367.2273,362.6153 L377.3182,362.7315 L387.4091,362.4041 L397.5,362.4219 " fill="#FEFECE" style="stroke: #A80036; stroke-width: 1.5;"/><text fill="#000000" font-family="sans-serif" font-size="11" lengthAdjust="spacingAndGlyphs" textLength="53" x="291.5" y="376.6323">+invoke()</text><!--class Admin\XxxController--><polygon fill="#FEFECE" filter="url(#fvhxt6b)" points="433.5,304.9531,433.5,304.9439,443.5667,304.7597,453.6333,304.9231,463.7,305.1191,473.7667,304.5398,483.8333,305.5069,493.9,304.924,503.9667,304.3583,514.0333,305.5588,524.1,305.4135,534.1667,304.758,544.2333,304.6824,554.3,305.401,564.3667,304.2224,574.4333,304.8333,584.5,304.9531,584.0908,304.9531,585.0254,315.3523,584.4547,325.7516,584.2682,336.1508,584.3094,346.55,583.8988,356.9492,584.0131,367.3484,584.9102,377.7477,584.9565,388.1469,584.1293,398.5461,584.5,408.9453,584.5,408.7529,574.4333,408.8756,564.3667,409.4089,554.3,408.5547,544.2333,408.6376,534.1667,409.5633,524.1,409.3718,514.0333,408.7665,503.9667,409.19,493.9,408.2603,483.8333,409.6646,473.7667,408.6952,463.7,409.1895,453.6333,408.3868,443.5667,408.5737,433.5,408.9453,433.0234,408.9453,433.0422,398.5461,434.2195,388.1469,433.2654,377.7477,432.7846,367.3484,433.6858,356.9492,433.3105,346.55,433.521,336.1508,432.8029,325.7516,433.0699,315.3523,433.5,304.9531" style="stroke: #A80036; stroke-width: 1.5;"/><text fill="#000000" font-family="sans-serif" font-size="12" lengthAdjust="spacingAndGlyphs" textLength="122" x="448" y="321.0918">Admin\XxxController</text><path d="M434.5,328.9219 L434.5,329.0075 L444.4333,329.2927 L454.3667,328.8135 L464.3,329.6108 L474.2333,328.7704 L484.1667,328.9346 L494.1,329.6936 L504.0333,328.9203 L513.9667,328.7567 L523.9,329.9199 L533.8333,328.8651 L543.7667,328.5933 L553.7,329.3823 L563.6333,329.2346 L573.5667,328.8958 L583.5,328.9219 " fill="#FEFECE" style="stroke: #A80036; stroke-width: 1.5;"/><text fill="#000000" font-family="sans-serif" font-size="11" lengthAdjust="spacingAndGlyphs" textLength="139" x="439.5" y="343.1323">+BcMessageComponent</text><path d="M434.5,349.7266 L434.5,348.7415 L444.4333,350.5708 L454.3667,348.8028 L464.3,350.3451 L474.2333,349.0515 L484.1667,350.7241 L494.1,348.8429 L504.0333,349.1349 L513.9667,350.3603 L523.9,349.4928 L533.8333,349.2798 L543.7667,349.3585 L553.7,349.7735 L563.6333,349.2734 L573.5667,349.9079 L583.5,349.7266 " fill="#FEFECE" style="stroke: #A80036; stroke-width: 1.5;"/><text fill="#000000" font-family="sans-serif" font-size="11" lengthAdjust="spacingAndGlyphs" textLength="113" x="439.5" y="363.937">+一覧を表示：index()</text><text fill="#000000" font-family="sans-serif" font-size="11" lengthAdjust="spacingAndGlyphs" textLength="93" x="439.5" y="376.7417">+新規追加：add()</text><text fill="#000000" font-family="sans-serif" font-size="11" lengthAdjust="spacingAndGlyphs" textLength="71" x="439.5" y="389.5464">+編集：edit()</text><text fill="#000000" font-family="sans-serif" font-size="11" lengthAdjust="spacingAndGlyphs" textLength="85" x="439.5" y="402.3511">+削除：delete()</text><!--class BcAdminAppController--><polygon fill="#FEFECE" filter="url(#fvhxt6b)" points="426,166.9531,426,167.107,435.7647,167.626,445.5294,166.6578,455.2941,167.3662,465.0588,167.1066,474.8235,167.1562,484.5882,166.2677,494.3529,166.7215,504.1176,167.3725,513.8824,166.746,523.6471,167.2963,533.4118,166.5067,543.1765,167.3608,552.9412,167.1101,562.7059,167.1868,572.4706,166.9351,582.2353,166.4408,592,166.9531,591.5282,166.9531,592.7031,176.751,591.2512,186.5488,592.577,196.3467,591.5808,206.1445,591.3494,215.9424,591.8793,225.7402,591.5619,235.5381,592,245.3359,592,246.0759,582.2353,245.4321,572.4706,245.2658,562.7059,245.3161,552.9412,245.1161,543.1765,245.6255,533.4118,245.8857,523.6471,245.0393,513.8824,245.611,504.1176,244.8332,494.3529,244.7898,484.5882,245.0242,474.8235,245.1727,465.0588,245.9565,455.2941,244.9799,445.5294,245.6155,435.7647,244.9877,426,245.3359,426.3189,245.3359,425.2663,235.5381,426.5394,225.7402,426.5969,215.9424,425.9626,206.1445,426.0734,196.3467,425.6427,186.5488,426.2007,176.751,426,166.9531" style="stroke: #A80036; stroke-width: 1.5;"/><text fill="#000000" font-family="sans-serif" font-size="12" lengthAdjust="spacingAndGlyphs" textLength="138" x="440" y="183.0918">BcAdminAppController</text><path d="M427,190.9219 L427,190.0919 L437.25,190.2232 L447.5,191.6294 L457.75,190.7787 L468,191.6121 L478.25,190.4428 L488.5,191.236 L498.75,190.0863 L509,190.1232 L519.25,191.6078 L529.5,190.3805 L539.75,190.2854 L550,190.4931 L560.25,190.9665 L570.5,191.5193 L580.75,190.3314 L591,190.9219 " fill="#FEFECE" style="stroke: #A80036; stroke-width: 1.5;"/><text fill="#000000" font-family="sans-serif" font-size="11" lengthAdjust="spacingAndGlyphs" textLength="154" x="432" y="205.1323">+AuthenticationComponent</text><path d="M427,211.7266 L427,211.8057 L437.25,211.8673 L447.5,211.5849 L457.75,212.5825 L468,211.068 L478.25,211.3764 L488.5,212.62 L498.75,211.5386 L509,211.8877 L519.25,210.9496 L529.5,211.5987 L539.75,211.5085 L550,212.3877 L560.25,211.1271 L570.5,212.5455 L580.75,210.9877 L591,211.7266 " fill="#FEFECE" style="stroke: #A80036; stroke-width: 1.5;"/><text fill="#000000" font-family="sans-serif" font-size="11" lengthAdjust="spacingAndGlyphs" textLength="87" x="432" y="225.937">+invokeAction()</text><text fill="#000000" font-family="sans-serif" font-size="11" lengthAdjust="spacingAndGlyphs" textLength="55" x="432" y="238.7417">+render()</text><!--class BcAdminAppView--><polygon fill="#FEFECE" filter="url(#fvhxt6b)" points="619.5,330.4531,619.5,330.9144,629.5909,330.8437,639.6818,330.1043,649.7727,329.7359,659.8636,331.1229,669.9545,329.9584,680.0455,331.0579,690.1364,330.6082,700.2273,330.7341,710.3182,330.3161,720.4091,330.0831,730.5,330.4531,731.0183,330.4531,730.1623,341.0078,730.6312,351.5625,730.157,362.1172,730.712,372.6719,730.5,383.2266,730.5,382.7351,720.4091,383.959,710.3182,382.7575,700.2273,383.6989,690.1364,382.8184,680.0455,382.8381,669.9545,382.517,659.8636,383.7448,649.7727,383.7193,639.6818,383.2565,629.5909,382.7621,619.5,383.2266,620.0336,383.2266,619.6315,372.6719,620.0197,362.1172,620.153,351.5625,619.0987,341.0078,619.5,330.4531" style="stroke: #A80036; stroke-width: 1.5;"/><text fill="#000000" font-family="sans-serif" font-size="12" lengthAdjust="spacingAndGlyphs" textLength="105" x="622.5" y="346.5918">BcAdminAppView</text><path d="M620.5,354.4219 L620.5,354.7059 L630.4091,354.9481 L640.3182,355.1769 L650.2273,354.4941 L660.1364,354.1853 L670.0455,355.0078 L679.9545,354.6209 L689.8636,353.6466 L699.7727,354.2379 L709.6818,353.8513 L719.5909,353.755 L729.5,354.4219 " fill="#FEFECE" style="stroke: #A80036; stroke-width: 1.5;"/><path d="M620.5,362.4219 L620.5,361.5092 L630.4091,362.815 L640.3182,362.956 L650.2273,362.9517 L660.1364,362.9702 L670.0455,362.1245 L679.9545,363.3253 L689.8636,363.0611 L699.7727,363.2314 L709.6818,363.3365 L719.5909,362.673 L729.5,362.4219 " fill="#FEFECE" style="stroke: #A80036; stroke-width: 1.5;"/><text fill="#000000" font-family="sans-serif" font-size="11" lengthAdjust="spacingAndGlyphs" textLength="55" x="625.5" y="376.6323">+render()</text><!--class AppController--><polygon fill="#FEFECE" filter="url(#fvhxt6b)" points="433.5,28.9531,433.5,29.4144,443.5667,28.6299,453.6333,28.7787,463.7,29.0491,473.7667,29.038,483.8333,29.1464,493.9,29.6284,503.9667,29.1595,514.0333,28.3838,524.1,28.8941,534.1667,28.4266,544.2333,28.4631,554.3,28.6993,564.3667,28.5203,574.4333,29.1267,584.5,28.9531,585.2011,28.9531,585.0451,38.751,584.987,48.5488,584.8872,58.3467,584.1784,68.1445,583.9097,77.9424,584.0195,87.7402,584.3341,97.5381,584.5,107.3359,584.5,106.6146,574.4333,107.0217,564.3667,106.7342,554.3,107.8875,544.2333,108.0417,534.1667,106.928,524.1,107.5068,514.0333,107.5127,503.9667,106.6066,493.9,107.5178,483.8333,107.4098,473.7667,107.3404,463.7,107.5111,453.6333,106.9174,443.5667,107.0793,433.5,107.3359,433.2406,107.3359,434.132,97.5381,433.0027,87.7402,433.1065,77.9424,433.9172,68.1445,433.1369,58.3467,433.6707,48.5488,432.9721,38.751,433.5,28.9531" style="stroke: #A80036; stroke-width: 1.5;"/><text fill="#000000" font-family="sans-serif" font-size="12" lengthAdjust="spacingAndGlyphs" textLength="85" x="466.5" y="45.0918">AppController</text><path d="M434.5,52.9219 L434.5,52.6638 L444.4333,53.155 L454.3667,52.3015 L464.3,53.9008 L474.2333,52.7564 L484.1667,52.3502 L494.1,52.1659 L504.0333,53.8309 L513.9667,53.3949 L523.9,53.6852 L533.8333,53.2736 L543.7667,53.1948 L553.7,53.374 L563.6333,53.0189 L573.5667,52.4864 L583.5,52.9219 " fill="#FEFECE" style="stroke: #A80036; stroke-width: 1.5;"/><text fill="#000000" font-family="sans-serif" font-size="11" lengthAdjust="spacingAndGlyphs" textLength="139" x="439.5" y="67.1323">+BcMessageComponent</text><text fill="#000000" font-family="sans-serif" font-size="11" lengthAdjust="spacingAndGlyphs" textLength="120" x="439.5" y="79.937">+SecurityComponent</text><text fill="#000000" font-family="sans-serif" font-size="11" lengthAdjust="spacingAndGlyphs" textLength="128" x="439.5" y="92.7417">+PaginatorComponent</text><path d="M434.5,99.3359 L434.5,100.2418 L444.4333,99.4038 L454.3667,99.5885 L464.3,98.4179 L474.2333,100.0217 L484.1667,99.1744 L494.1,99.4973 L504.0333,99.0924 L513.9667,98.9857 L523.9,100.2327 L533.8333,99.2268 L543.7667,99.1985 L553.7,99.4836 L563.6333,99.2432 L573.5667,99.2496 L583.5,99.3359 " fill="#FEFECE" style="stroke: #A80036; stroke-width: 1.5;"/><!--class BcAdminXxxHelper--><polygon fill="#FEFECE" filter="url(#fvhxt6b)" points="606.5,500.9531,606.5,500.5735,616.4167,500.5207,626.3333,500.4746,636.25,500.7837,646.1667,500.3747,656.0833,500.224,666,501.3602,675.9167,500.9836,685.8333,500.6615,695.75,501.2671,705.6667,500.4377,715.5833,501.028,725.5,500.9531,725.333,500.9531,725.4978,508.9469,725.5519,516.9406,725.7398,524.9344,725.6947,532.9281,725.5,540.9219,725.5,540.6317,715.5833,540.9581,705.6667,541.497,695.75,540.7992,685.8333,541.2894,675.9167,541.2814,666,540.3519,656.0833,541.2802,646.1667,541.6017,636.25,540.5191,626.3333,540.6361,616.4167,540.7489,606.5,540.9219,606.5019,540.9219,606.7044,532.9281,606.2771,524.9344,606.3643,516.9406,606.5944,508.9469,606.5,500.9531" style="stroke: #A80036; stroke-width: 1.5;"/><text fill="#000000" font-family="sans-serif" font-size="12" lengthAdjust="spacingAndGlyphs" textLength="113" x="609.5" y="517.0918">BcAdminXxxHelper</text><path d="M607.5,524.9219 L607.5,525.3104 L617.25,524.0004 L627,525.1744 L636.75,524.596 L646.5,524.2932 L656.25,525.4399 L666,525.2714 L675.75,524.9579 L685.5,524.6107 L695.25,525.3291 L705,525.4692 L714.75,524.2895 L724.5,524.9219 " fill="#FEFECE" style="stroke: #A80036; stroke-width: 1.5;"/><path d="M607.5,532.9219 L607.5,532.0452 L617.25,533.7089 L627,533.5475 L636.75,533.8501 L646.5,532.0824 L656.25,533.2621 L666,532.2634 L675.75,533.8422 L685.5,533.1077 L695.25,533.212 L705,532.493 L714.75,532.8941 L724.5,532.9219 " fill="#FEFECE" style="stroke: #A80036; stroke-width: 1.5;"/><!--class XxxService--><polygon fill="#FEFECE" filter="url(#fvhxt6b)" points="482.5,494.4531,482.5,495.0493,492.6429,494.7041,502.7857,494.9838,512.9286,494.1128,523.0714,494.8605,533.2143,494.6018,543.3571,494.7983,553.5,494.4531,553.7876,494.4531,553.8417,505.0078,553.6298,515.5625,553.2472,526.1172,552.8307,536.6719,553.5,547.2266,553.5,546.5164,543.3571,547.0448,533.2143,547.6829,523.0714,546.5222,512.9286,546.8724,502.7857,546.6021,492.6429,547.0472,482.5,547.2266,482.7529,547.2266,482.5047,536.6719,482.5769,526.1172,482.1136,515.5625,482.3496,505.0078,482.5,494.4531" style="stroke: #A80036; stroke-width: 1.5;"/><text fill="#000000" font-family="sans-serif" font-size="12" lengthAdjust="spacingAndGlyphs" textLength="64" x="486" y="510.5918">XxxService</text><path d="M483.5,518.4219 L483.5,518.013 L493.3571,518.1234 L503.2143,519.0639 L513.0714,519.056 L522.9286,518.4749 L532.7857,517.5118 L542.6429,518.9827 L552.5,518.4219 " fill="#FEFECE" style="stroke: #A80036; stroke-width: 1.5;"/><text fill="#000000" font-family="sans-serif" font-size="11" lengthAdjust="spacingAndGlyphs" textLength="59" x="488.5" y="532.6323">+XxxTable</text><path d="M483.5,539.2266 L483.5,539.9247 L493.3571,539.9006 L503.2143,538.5846 L513.0714,540.2043 L522.9286,538.7756 L532.7857,539.0241 L542.6429,538.3794 L552.5,539.2266 " fill="#FEFECE" style="stroke: #A80036; stroke-width: 1.5;"/><!--class XxxServiceInterface--><polygon fill="#FEFECE" filter="url(#fvhxt6b)" points="288.5,468.9531,288.5,469.012,298.4375,468.6741,308.375,468.3095,318.3125,468.4808,328.25,468.7519,338.1875,468.6365,348.125,468.8549,358.0625,468.699,368,468.5145,377.9375,468.3003,387.875,469.5338,397.8125,469.433,407.75,469.0829,417.6875,468.4877,427.625,469.5304,437.5625,469.5409,447.5,468.9531,446.9195,468.9531,447.2042,479.3523,447.5656,489.7516,447.5499,500.1508,447.926,510.55,447.5266,520.9492,446.9816,531.3484,447.0073,541.7477,446.7821,552.1469,446.8832,562.5461,447.5,572.9453,447.5,573.2859,437.5625,572.5152,427.625,573.6812,417.6875,573.2976,407.75,572.8877,397.8125,573.4372,387.875,572.5781,377.9375,572.9989,368,572.2536,358.0625,573.3556,348.125,572.2825,338.1875,572.6773,328.25,573.4649,318.3125,572.8334,308.375,572.8989,298.4375,573.621,288.5,572.9453,288.7804,572.9453,288.5118,562.5461,288.2181,552.1469,288.98,541.7477,288.0145,531.3484,288.2414,520.9492,288.0111,510.55,288.2869,500.1508,289.1113,489.7516,288.6264,479.3523,288.5,468.9531" style="stroke: #A80036; stroke-width: 1.5;"/><text fill="#000000" font-family="sans-serif" font-size="12" lengthAdjust="spacingAndGlyphs" textLength="120" x="308" y="485.0918">XxxServiceInterface</text><path d="M289.5,492.9219 L289.5,493.7327 L299.3125,492.1945 L309.125,493.0307 L318.9375,492.0666 L328.75,493.6211 L338.5625,493.1034 L348.375,492.7152 L358.1875,493.5202 L368,493.0938 L377.8125,492.2244 L387.625,492.4827 L397.4375,492.368 L407.25,492.3875 L417.0625,493.6793 L426.875,493.4754 L436.6875,492.8468 L446.5,492.9219 " fill="#FEFECE" style="stroke: #A80036; stroke-width: 1.5;"/><path d="M289.5,500.9219 L289.5,500.6079 L299.3125,500.8373 L309.125,500.4575 L318.9375,500.8082 L328.75,500.1731 L338.5625,501.1641 L348.375,501.6772 L358.1875,499.9935 L368,500.2166 L377.8125,501.477 L387.625,501.0617 L397.4375,500.5021 L407.25,501.5404 L417.0625,501.4728 L426.875,500.6374 L436.6875,501.709 L446.5,500.9219 " fill="#FEFECE" style="stroke: #A80036; stroke-width: 1.5;"/><text fill="#000000" font-family="sans-serif" font-size="11" lengthAdjust="spacingAndGlyphs" textLength="86" x="294.5" y="515.1323">+作成：create()</text><text fill="#000000" font-family="sans-serif" font-size="11" lengthAdjust="spacingAndGlyphs" textLength="89" x="294.5" y="527.937">+編集：update()</text><text fill="#000000" font-family="sans-serif" font-size="11" lengthAdjust="spacingAndGlyphs" textLength="123" x="294.5" y="540.7417">+単一データ取得：get()</text><text fill="#000000" font-family="sans-serif" font-size="11" lengthAdjust="spacingAndGlyphs" textLength="135" x="294.5" y="553.5464">+一覧データ取得：index()</text><text fill="#000000" font-family="sans-serif" font-size="11" lengthAdjust="spacingAndGlyphs" textLength="147" x="294.5" y="566.3511">+初期データ取得：getNew()</text><!--class XxxTable--><polygon fill="#FEFECE" filter="url(#fvhxt6b)" points="488.5,632.9531,488.5,633.3279,498.3333,632.7554,508.1667,632.8267,518,633.6647,527.8333,633.5617,537.6667,632.2738,547.5,632.9531,547.7216,632.9531,547.4144,640.9469,547.3769,648.9406,547.4889,656.9344,547.7048,664.9281,547.5,672.9219,547.5,672.2914,537.6667,672.5868,527.8333,673.3898,518,672.6413,508.1667,673.1836,498.3333,673.5586,488.5,672.9219,488.5785,672.9219,488.3979,664.9281,488.7456,656.9344,488.3992,648.9406,488.4785,640.9469,488.5,632.9531" style="stroke: #A80036; stroke-width: 1.5;"/><text fill="#000000" font-family="sans-serif" font-size="12" lengthAdjust="spacingAndGlyphs" textLength="53" x="491.5" y="649.0918">XxxTable</text><path d="M489.5,656.9219 L489.5,656.7349 L499,656.2467 L508.5,656.8287 L518,656.8953 L527.5,656.8037 L537,656.9748 L546.5,656.9219 " fill="#FEFECE" style="stroke: #A80036; stroke-width: 1.5;"/><path d="M489.5,664.9219 L489.5,665.1324 L499,665.0654 L508.5,665.2847 L518,665.6991 L527.5,665.1995 L537,663.9801 L546.5,664.9219 " fill="#FEFECE" style="stroke: #A80036; stroke-width: 1.5;"/><!--class Xxx--><polygon fill="#FEFECE" filter="url(#fvhxt6b)" points="505.5,732.9531,505.5,733.1713,510.5,732.7117,515.5,732.7717,520.5,732.7904,525.5,733.0025,530.5,732.9531,530.2544,732.9531,530.35,740.9469,530.281,748.9406,530.7364,756.9344,530.6677,764.9281,530.5,772.9219,530.5,772.7146,525.5,773.1252,520.5,772.8534,515.5,772.6885,510.5,772.7661,505.5,772.9219,505.702,772.9219,505.6956,764.9281,505.3061,756.9344,505.2876,748.9406,505.689,740.9469,505.5,732.9531" style="stroke: #A80036; stroke-width: 1.5;"/><text fill="#000000" font-family="sans-serif" font-size="12" lengthAdjust="spacingAndGlyphs" textLength="19" x="508.5" y="749.0918">Xxx</text><path d="M506.5,756.9219 L506.5,757.0515 L511.1,757.1508 L515.7,756.7304 L520.3,756.8484 L524.9,756.6268 L529.5,756.9219 " fill="#FEFECE" style="stroke: #A80036; stroke-width: 1.5;"/><path d="M506.5,764.9219 L506.5,764.6851 L511.1,765.0363 L515.7,764.988 L520.3,764.6959 L524.9,765.1215 L529.5,764.9219 " fill="#FEFECE" style="stroke: #A80036; stroke-width: 1.5;"/><polygon fill="#FBFB77" filter="url(#fvhxt6b)" points="371.5,740.4531,371.4693,740.4531,371.402,745.4797,371.4851,750.5063,371.6182,755.5328,371.2772,760.5594,371.5,765.5859,371.5,765.1088,381.4,765.3554,391.3,764.9309,401.2,764.9614,411.1,765.3329,421,765.2076,430.9,765.5376,440.8,765.5062,450.7,765.9481,460.6,766.1609,470.5,765.5859,470.2519,765.5859,470.6832,762.5594,470.4167,759.5328,470.7004,756.5063,470.5716,753.4797,470.5,750.4531,470.55,750.5031,468.5659,748.519,466.3685,746.3216,464.4324,744.3855,462.5459,742.499,460.5,740.4531,460.5,740.466,450.6111,739.7637,440.7222,740.3184,430.8333,740.7676,420.9444,740.1934,411.0556,739.7072,401.1667,739.963,391.2778,739.8515,381.3889,740.8223,371.5,740.4531" style="stroke: #A80036; stroke-width: 1.0;"/><polygon fill="#FBFB77" points="371.5,740.4531,371.7127,740.4531,371.3987,745.4797,371.6192,750.5063,371.744,755.5328,371.393,760.5594,371.5,765.5859,371.5,765.8641,381.4,765.5744,391.3,765.1809,401.2,764.8372,411.1,765.0852,421,765.1073,430.9,765.6733,440.8,765.3983,450.7,765.2583,460.6,765.5078,470.5,765.5859,470.3021,765.5859,470.4152,764.1594,470.4117,762.7328,470.3313,761.3063,470.3297,759.8797,470.5,758.4531,470.4844,758.3542,477.5144,757.5459,484.4666,756.244,491.4719,755.2796,498.4417,754.0893,505.42,752.9531,505.4125,752.8489,498.4479,752.6188,491.4474,751.8885,484.4686,751.461,477.4711,750.773,470.5,750.4531,470.6556,750.6088,468.3325,748.2856,466.6452,746.5984,464.4922,744.4454,462.5345,742.4876,460.5,740.4531,460.5,739.9873,450.6111,740.8294,440.7222,740.8125,430.8333,739.9546,420.9444,740.3106,411.0556,739.8123,401.1667,740.8306,391.2778,740.9561,381.3889,740.7033,371.5,740.4531" style="stroke: #A80036; stroke-width: 1.0;"/><path d="M460.5,740.4531 L460.7913,740.4531 L460.7882,742.4531 L460.3961,744.4531 L460.1825,746.4531 L460.4111,748.4531 L460.5,750.4531 " fill="#FBFB77" style="stroke: #A80036; stroke-width: 1.0;"/><path d="M470.5,750.4531 L470.5,750.5551 L468.5,750.3971 L466.5,750.7147 L464.5,750.1199 L462.5,750.5187 L460.5,750.4531 " fill="#FBFB77" style="stroke: #A80036; stroke-width: 1.0;"/><text fill="#000000" font-family="sans-serif" font-size="13" lengthAdjust="spacingAndGlyphs" textLength="78" x="377.5" y="757.52">エンティティ</text><path d="M54.24,356.9531 L54.24,356.7652 L60.222,357.2849 L66.204,356.8614 L72.186,357.1226 L78.168,356.7082 L84.15,356.9531 " fill="none" style="stroke: #000000; stroke-width: 1.0;"/><polygon fill="#000000" points="89.37,356.9531,89.4253,357.0776,87.4766,355.9431,85.754,355.3172,84.0091,354.641,82.156,353.7216,80.37,352.9531,80.4175,353.0006,81.1356,353.7187,82.102,354.6852,82.8684,355.4515,83.4547,356.0378,84.37,356.9531,84.2688,356.8519,83.74,357.9232,82.6437,358.4269,82.0453,359.4284,81.2933,360.2764,80.37,360.9531,80.2947,360.7836,82.1904,360.199,83.8828,359.1569,85.7257,358.4535,87.6311,357.8905,89.37,356.9531" style="stroke: #000000; stroke-width: 1.0;"/><path d="M140.65,356.9531 L140.65,357.2337 L146.57,356.7199 L152.49,356.954 L158.41,356.7349 L164.33,356.8807 L170.25,356.9531 " fill="none" style="stroke: #000000; stroke-width: 1.0;"/><polygon fill="#000000" points="175.41,356.9531,175.5031,357.1626,173.5997,356.1299,171.8737,355.4964,170.0836,354.7188,168.1789,353.6831,166.41,352.9531,166.5201,353.0633,167.0348,353.5779,167.845,354.3881,168.8548,355.398,169.4711,356.0142,170.41,356.9531,170.3332,356.8763,169.4732,357.6163,168.8275,358.5706,167.8422,359.1853,167.3511,360.2942,166.41,360.9531,166.4324,361.0035,168.2513,360.2461,169.9941,359.3173,171.8423,358.6257,173.5199,357.5505,175.41,356.9531" style="stroke: #000000; stroke-width: 1.0;"/><path d="M250.54,356.9531 L250.54,356.7298 L256.442,357.1567 L262.344,356.7179 L268.246,356.6337 L274.148,356.7749 L280.05,356.9531 " fill="none" style="stroke: #000000; stroke-width: 1.0;"/><polygon fill="#000000" points="285.2,356.9531,285.2114,356.9788,283.4124,356.181,281.655,355.477,279.7588,354.4605,277.993,353.7373,276.2,352.9531,276.1394,352.8925,276.9702,353.7233,277.7412,354.4944,278.6147,355.3678,279.3527,356.1058,280.2,356.9531,280.1315,356.8846,279.2791,357.6323,278.5348,358.4879,277.6975,359.2506,277.138,360.2912,276.2,360.9531,276.1928,360.937,277.9306,359.997,279.7744,359.2955,281.5166,358.3654,283.4515,357.8691,285.2,356.9531" style="stroke: #000000; stroke-width: 1.0;"/><path d="M398.75,356.9531 L398.75,356.8619 L404.618,356.6895 L410.486,357.0341 L416.354,356.9997 L422.222,357.2561 L428.09,356.9531 " fill="none" style="stroke: #000000; stroke-width: 1.0;"/><polygon fill="#000000" points="433.21,356.9531,433.161,356.843,431.4142,356.1627,429.5087,355.1251,427.7826,354.4914,425.9663,353.6548,424.21,352.9531,424.1655,352.9086,424.8826,353.6257,425.7284,354.4715,426.5318,355.2749,427.4346,356.1778,428.21,356.9531,428.0944,356.8376,427.5791,357.9222,426.7117,358.6548,425.6583,359.2014,425.1715,360.3146,424.21,360.9531,424.2882,361.1291,425.9996,360.1297,427.8954,359.5453,429.5756,358.4756,431.4111,357.7556,433.21,356.9531" style="stroke: #000000; stroke-width: 1.0;"/><path d="M584.54,356.9531 L584.54,357.0871 L590.438,357.1861 L596.336,356.6601 L602.234,357.0714 L608.132,357.0543 L614.03,356.9531 " fill="none" style="stroke: #000000; stroke-width: 1.0;"/><polygon fill="#000000" points="619.17,356.9531,619.2694,357.1768,617.296,355.9866,615.5659,355.3438,613.8258,354.6787,612.0304,353.8891,610.17,352.9531,610.0646,352.8477,610.9289,353.7121,611.7329,354.516,612.6975,355.4807,613.2664,356.0496,614.17,356.9531,614.0238,356.8069,613.5263,357.9094,612.4977,358.4808,611.8834,359.4665,610.9223,360.1054,610.17,360.9531,610.207,361.0363,612.0627,360.3617,613.854,359.5421,615.5024,358.4011,617.2872,357.5667,619.17,356.9531" style="stroke: #000000; stroke-width: 1.0;"/><path d="M511.85,409.2131 L512.1526,409.2299 L512.0465,419.182 L513.9108,429.2435 L512.9366,439.1472 L515.0613,449.2232 L514.1467,459.1303 L514.7854,469.1237 L515.1089,479.0996 L516.29,489.1231 " fill="none" style="stroke: #000000; stroke-width: 1.0;"/><polygon fill="#000000" points="516.58,494.3731,516.5631,494.3667,517.1258,492.4732,518.1794,490.7667,518.8539,488.9158,519.4114,487.0203,520.0863,485.1695,520.0012,485.0932,519.2259,485.9177,518.5961,486.8725,517.9652,487.8264,516.9125,488.402,516.309,489.3805,516.3801,489.4598,515.371,488.5183,514.5531,487.7899,513.6215,486.9347,512.9453,486.3643,512.098,485.6032,512.3061,485.7095,513.1121,487.4173,513.8561,489.0934,514.6118,490.7755,515.677,492.6158,516.58,494.3731" style="stroke: #000000; stroke-width: 1.0;"/><path d="M509,265.5531 L509.0596,265.5531 L508.7988,273.4011 L508.9752,281.2491 L509.2039,289.0971 L508.8227,296.9451 L509,304.7931 " fill="none" style="stroke: #000000; stroke-width: 1.0;"/><polygon fill="none" points="502,265.3231,501.9158,265.2936,503.2234,261.2613,504.6704,257.2778,506.122,253.2958,507.7971,249.3921,509,245.3231,508.9323,245.2994,510.378,249.3154,511.7365,253.3009,513.1824,257.317,514.3958,261.2517,516,265.3231,516,265.3774,513.2,265.5205,510.4,265.1103,507.6,265.4159,504.8,265.4288,502,265.3231" style="stroke: #000000; stroke-width: 1.0;"/><path d="M509,127.3231 L509.2576,127.3231 L508.9424,135.1631 L509.0534,143.0031 L508.7447,150.8431 L509.0526,158.6831 L509,166.5231 " fill="none" style="stroke: #000000; stroke-width: 1.0;"/><polygon fill="none" points="502,127.2031,502.0013,127.2036,503.2134,123.1378,504.9664,119.2614,505.9688,115.1222,507.723,111.2462,509,107.2031,509.1001,107.2382,510.1891,111.1293,511.6907,115.1649,513.3286,119.2481,514.8153,123.2785,516,127.2031,516,127.2756,513.2,126.9629,510.4,127.3288,507.6,127.2213,504.8,127.0009,502,127.2031" style="stroke: #000000; stroke-width: 1.0;"/><path d="M673.57,383.6231 L674.1857,383.6573 L672.6126,393.7713 L673.1234,404.001 L671.7463,414.1259 L670.4038,424.2527 L671.7031,434.5262 L670.6355,444.6683 L670.3566,454.8541 L668.9905,464.9796 L667.871,475.1188 L667.895,485.3215 L667.36,495.4931 " fill="none" style="stroke: #000000; stroke-width: 1.0;"/><polygon fill="#000000" points="667.08,500.5031,666.9158,500.4186,667.8588,498.6886,668.8325,496.9744,669.6547,495.1822,670.5714,493.4387,671.5869,491.746,671.597,491.7573,670.8751,492.6476,670.0268,493.3962,669.113,494.0714,668.0989,494.6342,667.3652,495.5113,667.4127,495.5536,666.7062,494.7508,665.976,493.9268,665.2218,493.0814,664.4351,492.2071,663.6,491.2896,663.6041,491.2911,664.2308,493.1077,664.9572,494.9619,665.7057,496.8244,666.2105,498.5949,667.08,500.5031" style="stroke: #000000; stroke-width: 1.0;"/><path d="M558.91,520.9531 L558.91,521.5515 L568.38,521.2988 L577.85,521.2767 L587.32,519.9583 L596.79,520.0139 L606.26,520.9531 " fill="none" style="stroke: #000000; stroke-width: 1.0;"/><polygon fill="#000000" points="553.55,520.9531,553.5262,520.8996,555.305,521.652,557.091,522.4205,558.9112,523.2659,560.8215,524.3139,562.55,524.9531,562.4251,524.8282,561.8208,524.224,560.8032,523.2063,560.2428,522.6459,559.3128,521.716,558.55,520.9531,558.4127,520.8159,559.4163,520.2195,560.018,519.2211,561.019,518.6222,561.8881,517.8912,562.55,516.9531,562.6116,517.0918,560.7868,517.8359,559.0192,518.7088,557.1056,519.2532,555.3336,520.1162,553.55,520.9531" style="stroke: #000000; stroke-width: 1.0;"/><path d="M518,547.6331 L518.3418,547.6331 L517.9706,557.6044 L518.219,567.5756 L517.7404,577.5469 L518.8626,587.5181 L518.4719,597.4894 L517.2426,607.4606 L518.5859,617.4319 L518,627.4031 " fill="none" style="stroke: #000000; stroke-width: 1.0;"/><polygon fill="#000000" points="518,632.6631,518.0589,632.6893,518.7724,630.8509,519.5768,629.0528,520.4797,627.2986,521.395,625.5498,522,623.6631,521.9603,623.6234,521.2141,624.4773,520.3297,625.1928,519.5038,625.9669,518.7109,626.7741,518,627.6631,518.0453,627.7084,517.2823,626.9454,516.399,626.0621,515.7237,625.3868,514.815,624.4782,514,623.6631,513.9909,623.6591,514.7934,625.4602,515.588,627.2578,516.3174,629.0264,517.117,630.8262,518,632.6631" style="stroke: #000000; stroke-width: 1.0;"/><path d="M467.69,520.9531 L467.69,520.9275 L470.61,520.6542 L473.53,521.1086 L476.45,521.0626 L479.37,520.8344 L482.29,520.9531 " fill="none" style="stroke: #000000; stroke-width: 1.0; stroke-dasharray: 1.0,3.0;"/><polygon fill="none" points="467.69,527.9531,467.7142,528.0222,463.7699,526.7815,459.6304,524.9829,455.7176,523.8321,451.6519,522.2442,447.69,520.9531,447.6657,520.8837,451.7498,519.7238,455.712,518.2161,459.7719,516.987,463.6411,515.2134,467.69,513.9531,467.7683,513.9531,467.9028,516.7531,467.6752,519.5531,467.5499,522.3531,467.8014,525.1531,467.69,527.9531" style="stroke: #000000; stroke-width: 1.0;"/><path d="M518,673.3131 L518.2729,673.3131 L517.4522,684.1731 L517.524,695.0331 L517.7596,705.8931 L517.0604,716.7531 L518,727.6131 " fill="none" style="stroke: #000000; stroke-width: 1.0;"/><polygon fill="#000000" points="518,732.6331,518.1414,732.696,518.8901,730.8732,519.5135,728.9947,520.4197,727.2419,521.194,725.4304,522,723.6331,521.9875,723.6206,521.1046,724.3377,520.5025,725.3357,519.5279,725.961,518.8203,726.8534,518,727.6331,517.874,727.5071,517.155,726.7881,516.3777,726.0108,515.76,725.3931,514.7341,724.3672,514,723.6331,514.119,723.686,514.7637,725.417,515.5379,727.2055,516.5003,729.0777,517.1821,730.8252,518,732.6331" style="stroke: #000000; stroke-width: 1.0;"/></g></svg>