<?xml version="1.0" encoding="UTF-8" standalone="no"?><svg xmlns="http://www.w3.org/2000/svg" xmlns:xlink="http://www.w3.org/1999/xlink" contentScriptType="application/ecmascript" contentStyleType="text/css" height="647px" preserveAspectRatio="none" style="width:658px;height:647px;" version="1.1" viewBox="0 0 658 647" width="658px" zoomAndPan="magnify"><defs><filter height="300%" id="f6dk3w8" width="300%" x="-1" y="-1"><feGaussianBlur result="blurOut" stdDeviation="2.0"/><feColorMatrix in="blurOut" result="blurOut2" type="matrix" values="0 0 0 0 0 0 0 0 0 0 0 0 0 0 0 0 0 0 .4 0"/><feOffset dx="4.0" dy="4.0" in="blurOut2" result="blurOut3"/><feBlend in="SourceGraphic" in2="blurOut3" mode="normal"/></filter></defs><g><text fill="#000000" font-family="sans-serif" font-size="18" lengthAdjust="spacingAndGlyphs" textLength="153" x="257" y="17.4023">API基本クラス構成</text><!--class Server--><polygon fill="#FEFECE" filter="url(#f6dk3w8)" points="6,194.1992,6,194.361,15.6,194.491,25.2,194.3993,34.8,194.221,44.4,194.3222,54,194.1992,54.6387,194.1992,53.7421,204.8168,53.4229,215.4344,53.7436,226.052,54.6507,236.6695,54,247.2871,54,247.0367,44.4,247.8703,34.8,246.5484,25.2,247.3488,15.6,246.6599,6,247.2871,5.7072,247.2871,6.6396,236.6695,5.8085,226.052,6.1097,215.4344,5.8099,204.8168,6,194.1992" style="stroke: #A80036; stroke-width: 1.5;"/><text fill="#000000" font-family="sans-serif" font-size="12" lengthAdjust="spacingAndGlyphs" textLength="36" x="12" y="210.8008">Server</text><path d="M7,218.332 L7,219.2507 L16.2,218.9987 L25.4,218.8153 L34.6,217.3607 L43.8,218.1639 L53,218.332 " fill="#FEFECE" style="stroke: #A80036; stroke-width: 1.5;"/><path d="M7,226.332 L7,226.4262 L16.2,226.1013 L25.4,225.8043 L34.6,225.6444 L43.8,226.5905 L53,226.332 " fill="#FEFECE" style="stroke: #A80036; stroke-width: 1.5;"/><text fill="#000000" font-family="sans-serif" font-size="11" lengthAdjust="spacingAndGlyphs" textLength="36" x="12" y="240.9668">+run()</text><!--class Runner--><polygon fill="#FEFECE" filter="url(#f6dk3w8)" points="89,194.1992,89,193.9552,98.6,194.2965,108.2,194.4935,117.8,194.7911,127.4,193.7859,137,194.1992,136.8864,194.1992,136.4169,204.8168,137.2006,215.4344,136.7704,226.052,137.3865,236.6695,137,247.2871,137,247.5791,127.4,248.0274,117.8,246.6622,108.2,246.7289,98.6,247.3978,89,247.2871,88.5991,247.2871,89.1578,236.6695,89.4685,226.052,89.4892,215.4344,88.5558,204.8168,89,194.1992" style="stroke: #A80036; stroke-width: 1.5;"/><text fill="#000000" font-family="sans-serif" font-size="12" lengthAdjust="spacingAndGlyphs" textLength="41" x="92.5" y="210.8008">Runner</text><path d="M90,218.332 L90,218.759 L99.2,217.4135 L108.4,217.4701 L117.6,218.0096 L126.8,217.755 L136,218.332 " fill="#FEFECE" style="stroke: #A80036; stroke-width: 1.5;"/><path d="M90,226.332 L90,226.3162 L99.2,225.379 L108.4,225.6979 L117.6,226.1783 L126.8,226.3034 L136,226.332 " fill="#FEFECE" style="stroke: #A80036; stroke-width: 1.5;"/><text fill="#000000" font-family="sans-serif" font-size="11" lengthAdjust="spacingAndGlyphs" textLength="36" x="95" y="240.9668">+run()</text><!--class Application--><polygon fill="#FEFECE" filter="url(#f6dk3w8)" points="172,194.1992,172,193.709,182,193.6524,192,193.8423,202,194.8863,212,193.9791,222,194.2136,232,194.4084,242,194.1992,241.7324,194.1992,242.6152,204.8168,241.7386,215.4344,242.7199,226.052,242.2203,236.6695,242,247.2871,242,248.0037,232,247.1306,222,246.8179,212,246.9895,202,247.1469,192,246.8972,182,247.3887,172,247.2871,171.5698,247.2871,172.7125,236.6695,171.5754,226.052,172.7253,215.4344,171.6986,204.8168,172,194.1992" style="stroke: #A80036; stroke-width: 1.5;"/><text fill="#000000" font-family="sans-serif" font-size="12" lengthAdjust="spacingAndGlyphs" textLength="64" x="175" y="210.8008">Application</text><path d="M173,218.332 L173,218.7165 L182.7143,219.1508 L192.4286,219.0449 L202.1429,217.9954 L211.8571,217.8899 L221.5714,218.0166 L231.2857,218.5272 L241,218.332 " fill="#FEFECE" style="stroke: #A80036; stroke-width: 1.5;"/><path d="M173,226.332 L173,226.4725 L182.7143,225.8978 L192.4286,227.2494 L202.1429,226.4831 L211.8571,227.1311 L221.5714,226.8329 L231.2857,226.3176 L241,226.332 " fill="#FEFECE" style="stroke: #A80036; stroke-width: 1.5;"/><text fill="#000000" font-family="sans-serif" font-size="11" lengthAdjust="spacingAndGlyphs" textLength="53" x="178" y="240.9668">+handle()</text><!--class ControllerFactory--><polygon fill="#FEFECE" filter="url(#f6dk3w8)" points="277.5,194.1992,277.5,194.7601,287.8,194.9055,298.1,194.845,308.4,194.839,318.7,194.6757,329,194.8508,339.3,193.6626,349.6,194.365,359.9,194.3044,370.2,194.6424,380.5,194.1992,380.77,194.1992,380.2989,204.8168,379.7842,215.4344,380.0637,226.052,380.4531,236.6695,380.5,247.2871,380.5,247.9891,370.2,247.596,359.9,247.5218,349.6,246.7134,339.3,247.7855,329,247.3713,318.7,247.1634,308.4,246.5998,298.1,248.0345,287.8,246.6496,277.5,247.2871,277.6073,247.2871,277.4217,236.6695,277.6698,226.052,277.8038,215.4344,277.3696,204.8168,277.5,194.1992" style="stroke: #A80036; stroke-width: 1.5;"/><text fill="#000000" font-family="sans-serif" font-size="12" lengthAdjust="spacingAndGlyphs" textLength="97" x="280.5" y="210.8008">ControllerFactory</text><path d="M278.5,218.332 L278.5,217.704 L288.6,217.4855 L298.7,217.5669 L308.8,217.6871 L318.9,218.9052 L329,218.9466 L339.1,218.6409 L349.2,218.9608 L359.3,218.1188 L369.4,217.8002 L379.5,218.332 " fill="#FEFECE" style="stroke: #A80036; stroke-width: 1.5;"/><path d="M278.5,226.332 L278.5,225.5369 L288.6,226.808 L298.7,226.9438 L308.8,225.5415 L318.9,226.961 L329,225.3714 L339.1,226.1919 L349.2,226.3968 L359.3,225.973 L369.4,226.0578 L379.5,226.332 " fill="#FEFECE" style="stroke: #A80036; stroke-width: 1.5;"/><text fill="#000000" font-family="sans-serif" font-size="11" lengthAdjust="spacingAndGlyphs" textLength="52" x="283.5" y="240.9668">+invoke()</text><!--class Admin\XxxsController--><polygon fill="#FEFECE" filter="url(#f6dk3w8)" points="415.5,168.1992,415.5,168.3757,425.7308,168.016,435.9615,168.1833,446.1923,168.0853,456.4231,168.4335,466.6538,168.3243,476.8846,168.5507,487.1154,168.3626,497.3462,168.2493,507.5769,168.8523,517.8077,168.6458,528.0385,168.0216,538.2692,168.308,548.5,168.1992,548.4102,168.1992,548.1814,178.69,548.3157,189.1809,547.8794,199.6717,547.8198,210.1625,548.3004,220.6533,548.0589,231.1441,548.2776,241.635,549.0138,252.1258,548.9813,262.6166,548.5,273.1074,548.5,273.5228,538.2692,273.0354,528.0385,272.493,517.8077,272.572,507.5769,272.7359,497.3462,273.6631,487.1154,273.1772,476.8846,272.7982,466.6538,272.9185,456.4231,272.591,446.1923,273.0107,435.9615,272.9387,425.7308,273.6674,415.5,273.1074,415.5011,273.1074,415.0779,262.6166,415.8945,252.1258,416.2357,241.635,415.8026,231.1441,416.1097,220.6533,415.7789,210.1625,415.9382,199.6717,415.761,189.1809,414.9376,178.69,415.5,168.1992" style="stroke: #A80036; stroke-width: 1.5;"/><text fill="#000000" font-family="sans-serif" font-size="12" lengthAdjust="spacingAndGlyphs" textLength="127" x="418.5" y="184.8008">Admin\XxxsController</text><path d="M416.5,192.332 L416.5,191.961 L426.5769,193.28 L436.6538,192.3557 L446.7308,192.214 L456.8077,192.4156 L466.8846,191.7041 L476.9615,193.2893 L487.0385,192.5254 L497.1154,193.1325 L507.1923,192.5442 L517.2692,191.9527 L527.3462,191.9219 L537.4231,193.0929 L547.5,192.332 " fill="#FEFECE" style="stroke: #A80036; stroke-width: 1.5;"/><path d="M416.5,200.332 L416.5,200.3774 L426.5769,199.9389 L436.6538,201.3315 L446.7308,200.8882 L456.8077,199.4626 L466.8846,201.0143 L476.9615,201.1309 L487.0385,200.406 L497.1154,201.2174 L507.1923,199.9084 L517.2692,200.7185 L527.3462,199.3395 L537.4231,199.5611 L547.5,200.332 " fill="#FEFECE" style="stroke: #A80036; stroke-width: 1.5;"/><text fill="#000000" font-family="sans-serif" font-size="11" lengthAdjust="spacingAndGlyphs" textLength="105" x="421.5" y="214.9668">+一覧データ取得：()</text><text fill="#000000" font-family="sans-serif" font-size="11" lengthAdjust="spacingAndGlyphs" textLength="94" x="421.5" y="227.9219">+単一データ取得()</text><text fill="#000000" font-family="sans-serif" font-size="11" lengthAdjust="spacingAndGlyphs" textLength="61" x="421.5" y="240.877">+新規追加()</text><text fill="#000000" font-family="sans-serif" font-size="11" lengthAdjust="spacingAndGlyphs" textLength="39" x="421.5" y="253.832">+編集()</text><text fill="#000000" font-family="sans-serif" font-size="11" lengthAdjust="spacingAndGlyphs" textLength="39" x="421.5" y="266.7871">+削除()</text><!--class BcApiController--><polygon fill="#FEFECE" filter="url(#f6dk3w8)" points="400.5,29.1992,400.5,29.2814,410.6875,28.7885,420.875,29.2782,431.0625,29.5462,441.25,28.5894,451.4375,28.7548,461.625,28.7113,471.8125,29.0946,482,29.4263,492.1875,28.8482,502.375,29.7295,512.5625,28.707,522.75,28.8254,532.9375,29.3442,543.125,29.012,553.3125,28.8111,563.5,29.1992,563.6744,29.1992,564.2148,39.074,563.7037,48.9487,563.9866,58.8235,562.9088,68.6982,563.9145,78.573,562.7805,88.4478,563.7928,98.3225,563.5,108.1973,563.5,107.6509,553.3125,108.6534,543.125,108.2458,532.9375,107.4809,522.75,107.6202,512.5625,107.7385,502.375,107.5237,492.1875,107.6288,482,107.4896,471.8125,108.401,461.625,108.024,451.4375,107.6423,441.25,107.4621,431.0625,107.7405,420.875,108.4608,410.6875,107.6042,400.5,108.1973,400.6192,108.1973,400.9301,98.3225,400.0388,88.4478,401.0303,78.573,400.6275,68.6982,401.2289,58.8235,400.6676,48.9487,399.8201,39.074,400.5,29.1992" style="stroke: #A80036; stroke-width: 1.5;"/><text fill="#000000" font-family="sans-serif" font-size="12" lengthAdjust="spacingAndGlyphs" textLength="88" x="438" y="45.8008">BcApiController</text><path d="M401.5,53.332 L401.5,53.1655 L411.5625,53.0876 L421.625,53.4734 L431.6875,53.6313 L441.75,53.5935 L451.8125,54.2273 L461.875,53.3755 L471.9375,53.5717 L482,53.9516 L492.0625,52.7524 L502.125,53.8907 L512.1875,52.3787 L522.25,52.8574 L532.3125,53.9028 L542.375,52.5275 L552.4375,52.9176 L562.5,53.332 " fill="#FEFECE" style="stroke: #A80036; stroke-width: 1.5;"/><text fill="#000000" font-family="sans-serif" font-size="11" lengthAdjust="spacingAndGlyphs" textLength="151" x="406.5" y="67.9668">+AuthenticationComponent</text><path d="M401.5,74.2871 L401.5,73.3567 L411.5625,75.2699 L421.625,73.6058 L431.6875,73.8052 L441.75,74.6188 L451.8125,74.7551 L461.875,75.2664 L471.9375,74.9699 L482,73.6642 L492.0625,74.3241 L502.125,74.3731 L512.1875,75.0411 L522.25,73.3134 L532.3125,74.9 L542.375,74.3454 L552.4375,74.3109 L562.5,74.2871 " fill="#FEFECE" style="stroke: #A80036; stroke-width: 1.5;"/><text fill="#000000" font-family="sans-serif" font-size="11" lengthAdjust="spacingAndGlyphs" textLength="87" x="406.5" y="88.9219">+invokeAction()</text><text fill="#000000" font-family="sans-serif" font-size="11" lengthAdjust="spacingAndGlyphs" textLength="53" x="406.5" y="101.877">+render()</text><!--class JsonView--><polygon fill="#FEFECE" filter="url(#f6dk3w8)" points="583.5,194.1992,583.5,194.3323,592.7857,193.7104,602.0714,194.8964,611.3571,194.7374,620.6429,193.5534,629.9286,194.67,639.2143,194.8693,648.5,194.1992,648.1345,194.1992,648.7221,204.8168,649.0107,215.4344,648.8714,226.052,648.4015,236.6695,648.5,247.2871,648.5,247.6539,639.2143,247.4935,629.9286,247.3356,620.6429,246.8477,611.3571,247.8242,602.0714,246.6678,592.7857,247.7181,583.5,247.2871,584.2104,247.2871,583.657,236.6695,584.2262,226.052,584.1568,215.4344,583.2136,204.8168,583.5,194.1992" style="stroke: #A80036; stroke-width: 1.5;"/><text fill="#000000" font-family="sans-serif" font-size="12" lengthAdjust="spacingAndGlyphs" textLength="51" x="590.5" y="210.8008">JsonView</text><path d="M584.5,218.332 L584.5,217.8716 L595,217.8076 L605.5,218.5536 L616,217.8843 L626.5,217.5454 L637,218.5371 L647.5,218.332 " fill="#FEFECE" style="stroke: #A80036; stroke-width: 1.5;"/><path d="M584.5,226.332 L584.5,226.4748 L595,226.8863 L605.5,226.5482 L616,226.6755 L626.5,226.3939 L637,225.9339 L647.5,226.332 " fill="#FEFECE" style="stroke: #A80036; stroke-width: 1.5;"/><text fill="#000000" font-family="sans-serif" font-size="11" lengthAdjust="spacingAndGlyphs" textLength="53" x="589.5" y="240.9668">+render()</text><!--class XxxService--><polygon fill="#FEFECE" filter="url(#f6dk3w8)" points="446.5,359.1992,446.5,358.5453,456.6429,359.4934,466.7857,359.6224,476.9286,359.6446,487.0714,359.8081,497.2143,359.1471,507.3571,359.9098,517.5,359.1992,516.9452,359.1992,517.6627,369.8168,516.7614,380.4344,517.1775,391.052,517.7052,401.6695,517.5,412.2871,517.5,411.9806,507.3571,411.8796,497.2143,412.7382,487.0714,412.6006,476.9286,412.5236,466.7857,412.7504,456.6429,411.5746,446.5,412.2871,445.8842,412.2871,446.2663,401.6695,446.8641,391.052,446.0523,380.4344,446.7336,369.8168,446.5,359.1992" style="stroke: #A80036; stroke-width: 1.5;"/><text fill="#000000" font-family="sans-serif" font-size="12" lengthAdjust="spacingAndGlyphs" textLength="62" x="451" y="375.8008">XxxService</text><path d="M447.5,383.332 L447.5,383.6358 L457.3571,383.8837 L467.2143,383.1902 L477.0714,384.1533 L486.9286,382.4678 L496.7857,383.8442 L506.6429,383.2941 L516.5,383.332 " fill="#FEFECE" style="stroke: #A80036; stroke-width: 1.5;"/><text fill="#000000" font-family="sans-serif" font-size="11" lengthAdjust="spacingAndGlyphs" textLength="59" x="452.5" y="397.9668">+XxxTable</text><path d="M447.5,404.2871 L447.5,403.6545 L457.3571,403.4262 L467.2143,404.2445 L477.0714,404.7798 L486.9286,404.6325 L496.7857,404.3177 L506.6429,403.3638 L516.5,404.2871 " fill="#FEFECE" style="stroke: #A80036; stroke-width: 1.5;"/><!--class XxxServiceInterface--><polygon fill="#FEFECE" filter="url(#f6dk3w8)" points="247,333.1992,247,333.6706,257.25,333.8422,267.5,333.9273,277.75,333.901,288,333.8361,298.25,332.752,308.5,333.2792,318.75,333.2819,329,333.6411,339.25,332.7871,349.5,333.4717,359.75,333.4789,370,332.7839,380.25,333.224,390.5,332.8147,400.75,332.9954,411,333.1992,410.7725,333.1992,410.4361,343.69,410.3614,354.1809,411.2842,364.6717,411.0164,375.1625,411.6518,385.6533,411.6706,396.1441,411.135,406.635,410.7616,417.1258,410.5402,427.6166,411,438.1074,411,438.0567,400.75,438.7082,390.5,438.7803,380.25,438.5087,370,437.4187,359.75,438.2314,349.5,438.7801,339.25,438.7061,329,438.6913,318.75,438.6863,308.5,438.1149,298.25,438.5134,288,438.6892,277.75,437.5302,267.5,438.2834,257.25,437.5115,247,438.1074,246.3189,438.1074,246.8159,427.6166,247.0089,417.1258,246.6475,406.635,246.9132,396.1441,246.5891,385.6533,246.5349,375.1625,247.7129,364.6717,247.1702,354.1809,247.0342,343.69,247,333.1992" style="stroke: #A80036; stroke-width: 1.5;"/><text fill="#000000" font-family="sans-serif" font-size="12" lengthAdjust="spacingAndGlyphs" textLength="112" x="273" y="349.8008">XxxServiceInterface</text><path d="M248,357.332 L248,356.663 L258.125,357.5345 L268.25,357.59 L278.375,356.456 L288.5,357.3657 L298.625,357.0634 L308.75,357.1758 L318.875,357.5273 L329,357.9284 L339.125,357.0959 L349.25,357.1039 L359.375,357.9843 L369.5,357.5948 L379.625,357.1701 L389.75,357.8656 L399.875,357.6398 L410,357.332 " fill="#FEFECE" style="stroke: #A80036; stroke-width: 1.5;"/><path d="M248,365.332 L248,364.6568 L258.125,365.5548 L268.25,364.3345 L278.375,365.7068 L288.5,364.9537 L298.625,366.3056 L308.75,366.0719 L318.875,365.0138 L329,364.5979 L339.125,365.7113 L349.25,364.6048 L359.375,364.8452 L369.5,365.5286 L379.625,364.5768 L389.75,364.8288 L399.875,366.0833 L410,365.332 " fill="#FEFECE" style="stroke: #A80036; stroke-width: 1.5;"/><text fill="#000000" font-family="sans-serif" font-size="11" lengthAdjust="spacingAndGlyphs" textLength="83" x="253" y="379.9668">+作成：create()</text><text fill="#000000" font-family="sans-serif" font-size="11" lengthAdjust="spacingAndGlyphs" textLength="87" x="253" y="392.9219">+編集：update()</text><text fill="#000000" font-family="sans-serif" font-size="11" lengthAdjust="spacingAndGlyphs" textLength="122" x="253" y="405.877">+単一データ取得：get()</text><text fill="#000000" font-family="sans-serif" font-size="11" lengthAdjust="spacingAndGlyphs" textLength="152" x="253" y="418.832">+一覧データ取得：getIndex()</text><text fill="#000000" font-family="sans-serif" font-size="11" lengthAdjust="spacingAndGlyphs" textLength="144" x="253" y="431.7871">+初期データ取得：getNew()</text><!--class XxxTable--><polygon fill="#FEFECE" filter="url(#f6dk3w8)" points="451.5,498.1992,451.5,498.4285,461.6667,498.8292,471.8333,498.4541,482,498.9259,492.1667,498.3628,502.3333,498.5061,512.5,498.1992,512.5022,498.1992,512.6974,506.2258,512.5817,514.2523,512.7235,522.2789,512.3743,530.3055,512.5,538.332,512.5,538.4627,502.3333,538.6269,492.1667,539.0555,482,538.7781,471.8333,538.5842,461.6667,538.2741,451.5,538.332,451.3967,538.332,451.3419,530.3055,451.4274,522.2789,451.6506,514.2523,451.5416,506.2258,451.5,498.1992" style="stroke: #A80036; stroke-width: 1.5;"/><text fill="#000000" font-family="sans-serif" font-size="12" lengthAdjust="spacingAndGlyphs" textLength="55" x="454.5" y="514.8008">XxxTable</text><path d="M452.5,522.332 L452.5,521.3527 L462.3333,523.138 L472.1667,522.6993 L482,523.1595 L491.8333,521.4869 L501.6667,523.2293 L511.5,522.332 " fill="#FEFECE" style="stroke: #A80036; stroke-width: 1.5;"/><path d="M452.5,530.332 L452.5,530.4459 L462.3333,529.8912 L472.1667,530.0749 L482,529.5781 L491.8333,531.0649 L501.6667,530.1982 L511.5,530.332 " fill="#FEFECE" style="stroke: #A80036; stroke-width: 1.5;"/><!--class Xxx--><polygon fill="#FEFECE" filter="url(#f6dk3w8)" points="468,598.1992,468,598.1081,473.6,597.9702,479.2,598.1888,484.8,598.226,490.4,597.971,496,598.1992,495.924,598.1992,495.8904,606.2258,495.994,614.2523,495.914,622.2789,496.2053,630.3055,496,638.332,496,638.2367,490.4,638.4604,484.8,638.5535,479.2,638.3612,473.6,638.328,468,638.332,467.9192,638.332,467.8539,630.3055,468.164,622.2789,467.9196,614.2523,467.9516,606.2258,468,598.1992" style="stroke: #A80036; stroke-width: 1.5;"/><text fill="#000000" font-family="sans-serif" font-size="12" lengthAdjust="spacingAndGlyphs" textLength="22" x="471" y="614.8008">Xxx</text><path d="M469,622.332 L469,622.531 L474.2,622.1137 L479.4,622.5598 L484.6,622.4441 L489.8,622.0995 L495,622.332 " fill="#FEFECE" style="stroke: #A80036; stroke-width: 1.5;"/><path d="M469,630.332 L469,630.579 L474.2,630.1911 L479.4,630.5953 L484.6,630.1412 L489.8,630.3451 L495,630.332 " fill="#FEFECE" style="stroke: #A80036; stroke-width: 1.5;"/><polygon fill="#FBFB77" filter="url(#f6dk3w8)" points="333.5,605.6992,333.6522,605.6992,333.3711,610.7613,333.6401,615.8234,333.4948,620.8855,333.2823,625.9477,333.5,631.0098,333.5,631.3331,343.4,630.6256,353.3,630.3136,363.2,631.6319,373.1,631.5177,383,630.6797,392.9,631.6903,402.8,630.9641,412.7,631.5966,422.6,631.3811,432.5,631.0098,432.5838,631.0098,432.608,627.9477,432.5611,624.8855,432.7358,621.8234,432.5091,618.7613,432.5,615.6992,432.5671,615.7663,430.4146,613.6138,428.5097,611.7089,426.5737,609.7729,424.6517,607.8509,422.5,605.6992,422.5,606.2696,412.6111,606.0142,402.7222,606.3393,392.8333,605.1493,382.9444,606.1989,373.0556,604.9792,363.1667,605.03,353.2778,606.1367,343.3889,606.127,333.5,605.6992" style="stroke: #A80036; stroke-width: 1.0;"/><polygon fill="#FBFB77" points="333.5,605.6992,333.372,605.6992,333.5503,610.7613,333.7219,615.8234,333.4112,620.8855,333.2733,625.9477,333.5,631.0098,333.5,631.1627,343.4,630.6589,353.3,631.1667,363.2,630.8945,373.1,631.1914,383,630.6562,392.9,631.1211,402.8,631.5908,412.7,630.6818,422.6,631.1058,432.5,631.0098,432.513,631.0098,432.6959,629.5477,432.4305,628.0855,432.2872,626.6234,432.5032,625.1613,432.5,623.6992,432.5146,623.7928,439.5936,622.8151,446.5962,621.3461,453.6425,620.1585,460.7518,619.3749,467.8,618.1992,467.7954,618.1339,460.7286,617.5378,453.6909,617.3528,446.6367,616.935,439.5442,615.9764,432.5,615.6992,432.4828,615.682,430.451,613.6502,428.5504,611.7496,426.6292,609.8285,424.554,607.7532,422.5,605.6992,422.5,605.6326,412.6111,606.0622,402.7222,605.0193,392.8333,605.1465,382.9444,606.2658,373.0556,605.2424,363.1667,606.3764,353.2778,606.2559,343.3889,606.2102,333.5,605.6992" style="stroke: #A80036; stroke-width: 1.0;"/><path d="M422.5,605.6992 L422.4803,605.6992 L422.5715,607.6992 L422.6882,609.6992 L422.7248,611.6992 L422.1991,613.6992 L422.5,615.6992 " fill="#FBFB77" style="stroke: #A80036; stroke-width: 1.0;"/><path d="M432.5,615.6992 L432.5,615.625 L430.5,615.9388 L428.5,615.3961 L426.5,616.0084 L424.5,615.5781 L422.5,615.6992 " fill="#FBFB77" style="stroke: #A80036; stroke-width: 1.0;"/><text fill="#000000" font-family="sans-serif" font-size="13" lengthAdjust="spacingAndGlyphs" textLength="78" x="339.5" y="623.2676">エンティティ</text><path d="M54.32,220.6992 L54.32,220.9169 L60.176,220.4674 L66.032,220.5382 L71.888,220.7371 L77.744,220.783 L83.6,220.6992 " fill="none" style="stroke: #000000; stroke-width: 1.0;"/><polygon fill="#000000" points="88.7,220.6992,88.7131,220.7288,86.9747,220.0673,85.1077,219.1165,83.285,218.2655,81.4816,217.4579,79.7,216.6992,79.5852,216.5844,80.6556,217.6548,81.388,218.3873,82.1058,219.105,82.8405,219.8398,83.7,220.6992,83.6185,220.6178,83.0106,221.6098,82.1705,222.3697,81.2504,223.0496,80.4125,223.8117,79.7,224.6992,79.6616,224.6129,81.4248,223.73,83.216,222.9103,85.1009,222.3012,86.9058,221.5123,88.7,220.6992" style="stroke: #000000; stroke-width: 1.0;"/><path d="M137.23,220.6992 L137.23,220.6336 L143.126,220.4179 L149.022,220.4023 L154.918,221.0309 L160.814,220.4052 L166.71,220.6992 " fill="none" style="stroke: #000000; stroke-width: 1.0;"/><polygon fill="#000000" points="171.84,220.6992,171.9319,220.906,169.9921,219.7914,168.2969,219.2272,166.5108,218.4585,164.6934,217.6194,162.84,216.6992,162.8286,216.6878,163.7959,217.6551,164.5508,218.41,165.2538,219.113,165.9784,219.8376,166.84,220.6992,166.9642,220.8234,166.0516,221.5108,165.2669,222.3261,164.3845,223.0437,163.6853,223.9445,162.84,224.6992,162.8086,224.6286,164.6687,223.9639,166.4117,223.0356,168.1945,222.1969,169.9943,221.3964,171.84,220.6992" style="stroke: #000000; stroke-width: 1.0;"/><path d="M242.27,220.6992 L242.27,221.0058 L248.212,221.0242 L254.154,220.9999 L260.096,220.7609 L266.038,220.7703 L271.98,220.6992 " fill="none" style="stroke: #000000; stroke-width: 1.0;"/><polygon fill="#000000" points="277.16,220.6992,277.254,220.9107,275.3031,219.7711,273.5649,219.1102,271.8242,218.4436,269.9205,217.4103,268.16,216.6992,268.0605,216.5997,268.9645,217.5037,269.8202,218.3594,270.6673,219.2065,271.278,219.8172,272.16,220.6992,272.232,220.7712,271.4286,221.5678,270.7223,222.4615,269.8342,223.1734,269.1053,224.0445,268.16,224.6992,268.065,224.4856,270.0385,224.076,271.775,223.1331,273.5144,222.1967,275.2851,221.3307,277.16,220.6992" style="stroke: #000000; stroke-width: 1.0;"/><path d="M380.7,220.6992 L380.7,220.9692 L386.562,220.4251 L392.424,220.4283 L398.286,220.4876 L404.148,220.7947 L410.01,220.6992 " fill="none" style="stroke: #000000; stroke-width: 1.0;"/><polygon fill="#000000" points="415.12,220.6992,415.0307,220.4984,413.4088,220.099,411.424,218.8832,409.7017,218.2581,407.9723,217.6169,406.12,216.6992,405.9962,216.5754,407.0025,217.5818,407.6612,218.2404,408.3883,218.9675,409.1857,219.765,410.12,220.6992,410.1878,220.767,409.2864,221.4656,408.6858,222.4651,407.6839,223.0631,407.0184,223.9976,406.12,224.6992,406.0187,224.4713,407.832,223.7013,409.7625,223.1949,411.6115,222.505,413.3764,221.6261,415.12,220.6992" style="stroke: #000000; stroke-width: 1.0;"/><path d="M548.74,220.6992 L548.74,220.5511 L554.646,220.5617 L560.552,220.7202 L566.458,220.9975 L572.364,220.4511 L578.27,220.6992 " fill="none" style="stroke: #000000; stroke-width: 1.0;"/><polygon fill="#000000" points="583.42,220.6992,583.4505,220.7678,581.6096,219.8758,579.9146,219.3122,578.0501,218.367,576.2893,217.6552,574.42,216.6992,574.5136,216.7928,575.2076,217.4869,576.1749,218.4542,576.9475,219.2267,577.4559,219.7352,578.42,220.6992,578.5793,220.8585,577.5488,221.4281,576.7491,222.2283,575.9495,223.0287,575.1519,223.8311,574.42,224.6992,574.466,224.8027,576.244,223.9532,578.0954,223.2688,579.8214,222.3024,581.5394,221.3179,583.42,220.6992" style="stroke: #000000; stroke-width: 1.0;"/><path d="M482,273.2692 L482.4532,273.2692 L482.1505,283.3205 L481.2485,293.3717 L482.0929,303.423 L481.677,313.4742 L482.2673,323.5255 L481.6428,333.5767 L481.2493,343.628 L482,353.6792 " fill="none" style="stroke: #000000; stroke-width: 1.0;"/><polygon fill="#000000" points="482,358.9592,482.0733,358.9918,482.5864,357.0643,483.7576,355.4293,484.3781,353.5495,485.1602,351.7415,486,349.9592,486.1684,350.1276,485.1381,350.6973,484.438,351.5972,483.766,352.5252,482.9267,353.2859,482,353.9592,482.0852,354.0444,481.1375,353.0967,480.4086,352.3678,479.462,351.4212,478.7476,350.7068,478,349.9592,477.9992,349.9589,478.8795,351.7945,479.5187,353.5231,480.466,355.3886,481.3323,357.218,482,358.9592" style="stroke: #000000; stroke-width: 1.0;"/><path d="M482,128.6892 L482.0727,128.6892 L481.7676,136.5892 L482.3194,144.4892 L481.8818,152.3892 L481.852,160.2892 L482,168.1892 " fill="none" style="stroke: #000000; stroke-width: 1.0;"/><polygon fill="none" points="475,128.3292,475.1094,128.3675,476.4275,124.3388,477.7784,120.3217,479.1439,116.3096,480.6607,112.3505,482,108.3292,481.8345,108.2713,483.6327,112.4107,484.9909,116.396,486.3265,120.3735,487.6626,124.3511,489,128.3292,489,128.2616,486.2,128.1244,483.4,128.2145,480.6,128.5472,477.8,128.5129,475,128.3292" style="stroke: #000000; stroke-width: 1.0;"/><path d="M431.22,385.6992 L431.22,385.5516 L434.238,385.8371 L437.256,385.5289 L440.274,385.6524 L443.292,385.9843 L446.31,385.6992 " fill="none" style="stroke: #000000; stroke-width: 1.0; stroke-dasharray: 1.0,3.0;"/><polygon fill="none" points="431.18,392.6992,431.2589,392.9246,427.189,391.325,423.1201,389.728,419.155,388.4277,415.2285,387.2377,411.18,385.6992,411.2055,385.772,415.1362,384.174,419.1385,382.7807,423.197,381.5478,427.1759,380.0876,431.18,378.6992,431.1142,378.6992,430.9761,381.4992,431.3196,384.2992,431.1676,387.0992,431.1548,389.8992,431.18,392.6992" style="stroke: #000000; stroke-width: 1.0;"/><path d="M482,412.4792 L482.0708,412.4792 L482.8695,422.4892 L481.4856,432.4992 L482.5325,442.5092 L482.5941,452.5192 L481.7662,462.5292 L482.867,472.5392 L482.5671,482.5492 L482,492.5592 " fill="none" style="stroke: #000000; stroke-width: 1.0;"/><polygon fill="#000000" points="482,497.8392,482.117,497.8912,482.5783,495.9407,483.5355,494.2106,484.3967,492.4378,485.3644,490.7123,486,488.8392,485.89,488.7292,485.2531,489.6923,484.288,490.3272,483.6183,491.2576,482.8635,492.1028,482,492.8392,481.9412,492.7804,481.0614,491.9006,480.5408,491.38,479.5081,490.3473,478.7733,489.6125,478,488.8392,478.1018,488.8844,478.7589,490.621,479.812,492.5334,480.5187,494.292,481.4099,496.1325,482,497.8392" style="stroke: #000000; stroke-width: 1.0;"/><path d="M482,538.5592 L482.4328,538.5592 L481.693,549.4192 L481.4997,560.2792 L481.7749,571.1392 L482.4907,581.9992 L482,592.8592 " fill="none" style="stroke: #000000; stroke-width: 1.0;"/><polygon fill="#000000" points="482,597.8792,482.113,597.9294,482.579,595.981,483.4155,594.1972,484.363,592.4628,485.3641,590.7521,486,588.8792,486.0159,588.8951,485.2701,589.7493,484.4199,590.4992,483.7018,591.381,482.9611,592.2403,482,592.8792,481.8338,592.713,481.276,592.1552,480.3753,591.2546,479.5382,590.4175,478.9334,589.8126,478,588.8792,477.8063,588.7931,478.5825,590.5826,479.6836,592.5164,480.3618,594.2623,481.0655,596.0194,482,597.8792" style="stroke: #000000; stroke-width: 1.0;"/></g></svg>