<?xml version="1.0" encoding="UTF-8" standalone="no"?><svg xmlns="http://www.w3.org/2000/svg" xmlns:xlink="http://www.w3.org/1999/xlink" contentScriptType="application/ecmascript" contentStyleType="text/css" height="786px" preserveAspectRatio="none" style="width:710px;height:786px;" version="1.1" viewBox="0 0 710 786" width="710px" zoomAndPan="magnify"><defs><filter height="300%" id="f499n4w" width="300%" x="-1" y="-1"><feGaussianBlur result="blurOut" stdDeviation="2.0"/><feColorMatrix in="blurOut" result="blurOut2" type="matrix" values="0 0 0 0 0 0 0 0 0 0 0 0 0 0 0 0 0 0 .4 0"/><feOffset dx="4.0" dy="4.0" in="blurOut2" result="blurOut3"/><feBlend in="SourceGraphic" in2="blurOut3" mode="normal"/></filter></defs><g><text fill="#000000" font-family="sans-serif" font-size="18" lengthAdjust="spacingAndGlyphs" textLength="198" x="260.5" y="17.4023">管理画面基本クラス構成</text><!--class Server--><polygon fill="#FEFECE" filter="url(#f499n4w)" points="6,333.1992,6,333.6689,15.6,333.6815,25.2,332.4652,34.8,333.5727,44.4,332.5245,54,333.1992,53.4504,333.1992,54.1168,343.8168,53.6421,354.4344,54.4753,365.052,53.4363,375.6695,54,386.2871,54,386.362,44.4,385.9262,34.8,386.8888,25.2,386.8842,15.6,386.407,6,386.2871,5.7674,386.2871,6.2328,375.6695,5.2689,365.052,6.5449,354.4344,5.7681,343.8168,6,333.1992" style="stroke: #A80036; stroke-width: 1.5;"/><text fill="#000000" font-family="sans-serif" font-size="12" lengthAdjust="spacingAndGlyphs" textLength="36" x="12" y="349.8008">Server</text><path d="M7,357.332 L7,356.4318 L16.2,357.0276 L25.4,356.5333 L34.6,357.6153 L43.8,356.7661 L53,357.332 " fill="#FEFECE" style="stroke: #A80036; stroke-width: 1.5;"/><path d="M7,365.332 L7,365.3131 L16.2,364.5694 L25.4,366.0028 L34.6,365.8404 L43.8,366.0634 L53,365.332 " fill="#FEFECE" style="stroke: #A80036; stroke-width: 1.5;"/><text fill="#000000" font-family="sans-serif" font-size="11" lengthAdjust="spacingAndGlyphs" textLength="36" x="12" y="379.9668">+run()</text><!--class Runner--><polygon fill="#FEFECE" filter="url(#f499n4w)" points="89,333.1992,89,333.6795,98.6,333.2345,108.2,332.9811,117.8,333.3423,127.4,332.8762,137,333.1992,137.6438,333.1992,136.3708,343.8168,136.3027,354.4344,137.6803,365.052,137.5131,375.6695,137,386.2871,137,386.7772,127.4,385.7209,117.8,386.9218,108.2,386.6495,98.6,385.8536,89,386.2871,88.3684,386.2871,88.8773,375.6695,88.4224,365.052,88.6945,354.4344,89.1934,343.8168,89,333.1992" style="stroke: #A80036; stroke-width: 1.5;"/><text fill="#000000" font-family="sans-serif" font-size="12" lengthAdjust="spacingAndGlyphs" textLength="41" x="92.5" y="349.8008">Runner</text><path d="M90,357.332 L90,357.4196 L99.2,358.0169 L108.4,356.6862 L117.6,357.824 L126.8,357.1418 L136,357.332 " fill="#FEFECE" style="stroke: #A80036; stroke-width: 1.5;"/><path d="M90,365.332 L90,364.5273 L99.2,365.4626 L108.4,366.3151 L117.6,365.6117 L126.8,365.3464 L136,365.332 " fill="#FEFECE" style="stroke: #A80036; stroke-width: 1.5;"/><text fill="#000000" font-family="sans-serif" font-size="11" lengthAdjust="spacingAndGlyphs" textLength="36" x="95" y="379.9668">+run()</text><!--class Application--><polygon fill="#FEFECE" filter="url(#f499n4w)" points="172,333.1992,172,332.5687,182,333.6476,192,332.9698,202,332.9434,212,333.9208,222,333.2727,232,332.8655,242,333.1992,241.4653,333.1992,242.1538,343.8168,241.2564,354.4344,241.3027,365.052,242.7415,375.6695,242,386.2871,242,386.5842,232,386.443,222,386.8266,212,385.6995,202,386.1072,192,385.9541,182,386.0952,172,386.2871,171.5277,386.2871,171.5908,375.6695,172.4683,365.052,171.9014,354.4344,172.5696,343.8168,172,333.1992" style="stroke: #A80036; stroke-width: 1.5;"/><text fill="#000000" font-family="sans-serif" font-size="12" lengthAdjust="spacingAndGlyphs" textLength="64" x="175" y="349.8008">Application</text><path d="M173,357.332 L173,357.3829 L182.7143,357.1091 L192.4286,356.3636 L202.1429,357.158 L211.8571,357.2487 L221.5714,357.8073 L231.2857,357.6728 L241,357.332 " fill="#FEFECE" style="stroke: #A80036; stroke-width: 1.5;"/><path d="M173,365.332 L173,364.9334 L182.7143,365.0906 L192.4286,365.0714 L202.1429,366.1423 L211.8571,366.231 L221.5714,364.5072 L231.2857,365.53 L241,365.332 " fill="#FEFECE" style="stroke: #A80036; stroke-width: 1.5;"/><text fill="#000000" font-family="sans-serif" font-size="11" lengthAdjust="spacingAndGlyphs" textLength="53" x="178" y="379.9668">+handle()</text><!--class ControllerFactory--><polygon fill="#FEFECE" filter="url(#f499n4w)" points="277.5,333.1992,277.5,333.0046,287.8,332.983,298.1,332.8805,308.4,333.2682,318.7,333.0719,329,332.9649,339.3,332.6508,349.6,333.9288,359.9,332.6615,370.2,333.499,380.5,333.1992,381.199,333.1992,380.9835,343.8168,380.7061,354.4344,380.0533,365.052,381.2223,375.6695,380.5,386.2871,380.5,385.6497,370.2,386.4341,359.9,386.8862,349.6,386.679,339.3,386.4982,329,385.5855,318.7,385.6453,308.4,385.7188,298.1,386.4568,287.8,385.8546,277.5,386.2871,276.9087,386.2871,278.0487,375.6695,277.8846,365.052,277.4229,354.4344,276.7782,343.8168,277.5,333.1992" style="stroke: #A80036; stroke-width: 1.5;"/><text fill="#000000" font-family="sans-serif" font-size="12" lengthAdjust="spacingAndGlyphs" textLength="97" x="280.5" y="349.8008">ControllerFactory</text><path d="M278.5,357.332 L278.5,357.4149 L288.6,357.7548 L298.7,357.7062 L308.8,357.5746 L318.9,356.9255 L329,357.8024 L339.1,356.8466 L349.2,356.8028 L359.3,357.2052 L369.4,356.7556 L379.5,357.332 " fill="#FEFECE" style="stroke: #A80036; stroke-width: 1.5;"/><path d="M278.5,365.332 L278.5,365.2875 L288.6,365.482 L298.7,364.7233 L308.8,365.9827 L318.9,364.5207 L329,365.8837 L339.1,365.6804 L349.2,364.6576 L359.3,365.9671 L369.4,365.6779 L379.5,365.332 " fill="#FEFECE" style="stroke: #A80036; stroke-width: 1.5;"/><text fill="#000000" font-family="sans-serif" font-size="11" lengthAdjust="spacingAndGlyphs" textLength="52" x="283.5" y="379.9668">+invoke()</text><!--class Admin\XxxController--><polygon fill="#FEFECE" filter="url(#f499n4w)" points="416,307.1992,416,307.5879,426.1429,307.357,436.2857,307.1392,446.4286,306.8255,456.5714,306.7544,466.7143,307.4659,476.8571,307.0296,487,307.5553,497.1429,307.7366,507.2857,307.2892,517.4286,306.7044,527.5714,306.564,537.7143,306.9558,547.8571,306.7572,558,307.1992,557.9778,307.1992,557.9992,317.69,557.483,328.1809,557.9835,338.6717,557.8576,349.1625,558.1725,359.6533,558.143,370.1441,558.7305,380.635,557.7464,391.1258,558.5413,401.6166,558,412.1074,558,411.7725,547.8571,411.9525,537.7143,412.6374,527.5714,411.8047,517.4286,412.1551,507.2857,411.7053,497.1429,412.647,487,412.2408,476.8571,411.8837,466.7143,411.7613,456.5714,411.65,446.4286,412.2172,436.2857,412.4789,426.1429,411.7825,416,412.1074,415.464,412.1074,415.4904,401.6166,416.7028,391.1258,416.5834,380.635,416.633,370.1441,415.6402,359.6533,415.2568,349.1625,416.4603,338.6717,415.692,328.1809,415.5763,317.69,416,307.1992" style="stroke: #A80036; stroke-width: 1.5;"/><text fill="#000000" font-family="sans-serif" font-size="12" lengthAdjust="spacingAndGlyphs" textLength="121" x="426.5" y="323.8008">Admin\XxxController</text><path d="M417,331.332 L417,331.0847 L427,331.5106 L437,330.8126 L447,331.6548 L457,330.6001 L467,331.8823 L477,331.3219 L487,332.0399 L497,331.2511 L507,331.537 L517,331.4344 L527,331.3584 L537,330.6776 L547,331.8897 L557,331.332 " fill="#FEFECE" style="stroke: #A80036; stroke-width: 1.5;"/><text fill="#000000" font-family="sans-serif" font-size="11" lengthAdjust="spacingAndGlyphs" textLength="130" x="422" y="345.9668">+BcMessageComponent</text><path d="M417,352.2871 L417,352.2674 L427,352.6697 L437,352.9356 L447,352.0919 L457,352.8009 L467,352.5233 L477,353.1002 L487,353.1663 L497,352.6905 L507,352.2175 L517,351.3629 L527,351.6758 L537,352.0608 L547,352.7867 L557,352.2871 " fill="#FEFECE" style="stroke: #A80036; stroke-width: 1.5;"/><text fill="#000000" font-family="sans-serif" font-size="11" lengthAdjust="spacingAndGlyphs" textLength="113" x="422" y="366.9219">+一覧を表示：index()</text><text fill="#000000" font-family="sans-serif" font-size="11" lengthAdjust="spacingAndGlyphs" textLength="92" x="422" y="379.877">+新規追加：add()</text><text fill="#000000" font-family="sans-serif" font-size="11" lengthAdjust="spacingAndGlyphs" textLength="70" x="422" y="392.832">+編集：edit()</text><text fill="#000000" font-family="sans-serif" font-size="11" lengthAdjust="spacingAndGlyphs" textLength="82" x="422" y="405.7871">+削除：delete()</text><!--class BcAdminAppController--><polygon fill="#FEFECE" filter="url(#f499n4w)" points="405.5,168.1992,405.5,168.5865,415.6875,168.1281,425.875,168.6608,436.0625,168.3241,446.25,168.7016,456.4375,168.1319,466.625,167.886,476.8125,167.7013,487,168.5019,497.1875,168.2542,507.375,168.0817,517.5625,168.7551,527.75,168.7212,537.9375,167.7117,548.125,168.0443,558.3125,168.7028,568.5,168.1992,568.7065,168.1992,568.2283,178.074,568.1065,187.9487,568.4511,197.8235,568.0089,207.6982,568.0559,217.573,568.9083,227.4478,568.0146,237.3225,568.5,247.1973,568.5,247.0638,558.3125,247.8431,548.125,247.5939,537.9375,247.3384,527.75,247.6827,517.5625,247.7293,507.375,247.9453,497.1875,247.8911,487,247.0601,476.8125,247.7124,466.625,247.2251,456.4375,247.4194,446.25,247.7852,436.0625,247.4453,425.875,247.3338,415.6875,247.4595,405.5,247.1973,405.3737,247.1973,405.0812,237.3225,405.1976,227.4478,406.0212,217.573,406.1925,207.6982,406.2091,197.8235,406.2,187.9487,405.3819,178.074,405.5,168.1992" style="stroke: #A80036; stroke-width: 1.5;"/><text fill="#000000" font-family="sans-serif" font-size="12" lengthAdjust="spacingAndGlyphs" textLength="130" x="422" y="184.8008">BcAdminAppController</text><path d="M406.5,192.332 L406.5,191.6708 L416.5625,192.9607 L426.625,193.1505 L436.6875,192.1043 L446.75,191.5187 L456.8125,192.7324 L466.875,191.7479 L476.9375,191.8473 L487,192.9078 L497.0625,192.6938 L507.125,192.2553 L517.1875,192.9643 L527.25,192.2025 L537.3125,192.354 L547.375,192.5592 L557.4375,192.3261 L567.5,192.332 " fill="#FEFECE" style="stroke: #A80036; stroke-width: 1.5;"/><text fill="#000000" font-family="sans-serif" font-size="11" lengthAdjust="spacingAndGlyphs" textLength="151" x="411.5" y="206.9668">+AuthenticationComponent</text><path d="M406.5,213.2871 L406.5,212.3159 L416.5625,213.7834 L426.625,212.5133 L436.6875,212.5279 L446.75,212.8244 L456.8125,212.7486 L466.875,213.8599 L476.9375,212.9872 L487,214.196 L497.0625,212.3002 L507.125,214.0367 L517.1875,213.6717 L527.25,212.381 L537.3125,212.6679 L547.375,213.7908 L557.4375,214.257 L567.5,213.2871 " fill="#FEFECE" style="stroke: #A80036; stroke-width: 1.5;"/><text fill="#000000" font-family="sans-serif" font-size="11" lengthAdjust="spacingAndGlyphs" textLength="87" x="411.5" y="227.9219">+invokeAction()</text><text fill="#000000" font-family="sans-serif" font-size="11" lengthAdjust="spacingAndGlyphs" textLength="53" x="411.5" y="240.877">+render()</text><!--class BcAdminAppView--><polygon fill="#FEFECE" filter="url(#f499n4w)" points="593.5,333.1992,593.5,333.5648,603.2273,333.7303,612.9545,333.7311,622.6818,332.7282,632.4091,333.5548,642.1364,333.7875,651.8636,332.9816,661.5909,333.7195,671.3182,332.9408,681.0455,333.7569,690.7727,332.5338,700.5,333.1992,701.1792,333.1992,700.5323,343.8168,699.9774,354.4344,701.1464,365.052,700.9908,375.6695,700.5,386.2871,700.5,385.9696,690.7727,385.6232,681.0455,386.4497,671.3182,386.3295,661.5909,386.5422,651.8636,386.4624,642.1364,387.0308,632.4091,386.4705,622.6818,386.1369,612.9545,385.9781,603.2273,385.5975,593.5,386.2871,593.3266,386.2871,592.9583,375.6695,593.2281,365.052,593.4291,354.4344,593.3063,343.8168,593.5,333.1992" style="stroke: #A80036; stroke-width: 1.5;"/><text fill="#000000" font-family="sans-serif" font-size="12" lengthAdjust="spacingAndGlyphs" textLength="101" x="596.5" y="349.8008">BcAdminAppView</text><path d="M594.5,357.332 L594.5,357.0306 L604.0455,357.4947 L613.5909,358.2933 L623.1364,358.1581 L632.6818,356.7456 L642.2273,357.6379 L651.7727,357.4546 L661.3182,357.1548 L670.8636,357.937 L680.4091,356.9469 L689.9545,357.1241 L699.5,357.332 " fill="#FEFECE" style="stroke: #A80036; stroke-width: 1.5;"/><path d="M594.5,365.332 L594.5,365.0398 L604.0455,364.745 L613.5909,366.2266 L623.1364,365.6599 L632.6818,365.8265 L642.2273,365.837 L651.7727,365.5063 L661.3182,364.8171 L670.8636,364.5977 L680.4091,364.6505 L689.9545,365.3643 L699.5,365.332 " fill="#FEFECE" style="stroke: #A80036; stroke-width: 1.5;"/><text fill="#000000" font-family="sans-serif" font-size="11" lengthAdjust="spacingAndGlyphs" textLength="53" x="599.5" y="379.9668">+render()</text><!--class AppController--><polygon fill="#FEFECE" filter="url(#f499n4w)" points="416,29.1992,416,29.0757,426.1429,29.2921,436.2857,29.6956,446.4286,29.1175,456.5714,28.6755,466.7143,29.6872,476.8571,29.7576,487,29.7314,497.1429,28.4877,507.2857,29.7569,517.4286,28.4761,527.5714,29.009,537.7143,29.2238,547.8571,29.5131,558,29.1992,558.4603,29.1992,557.8127,39.074,558.3235,48.9487,557.4868,58.8235,558.6502,68.6982,558.0469,78.573,557.422,88.4478,558.1841,98.3225,558,108.1973,558,108.6117,547.8571,108.7014,537.7143,108.1385,527.5714,108.2958,517.4286,108.4128,507.2857,108.396,497.1429,107.6184,487,108.3342,476.8571,107.8695,466.7143,108.0032,456.5714,108.481,446.4286,107.4675,436.2857,108.4458,426.1429,107.8627,416,108.1973,415.4099,108.1973,415.9089,98.3225,415.3154,88.4478,416.3922,78.573,415.9676,68.6982,415.6971,58.8235,416.1576,48.9487,415.6532,39.074,416,29.1992" style="stroke: #A80036; stroke-width: 1.5;"/><text fill="#000000" font-family="sans-serif" font-size="12" lengthAdjust="spacingAndGlyphs" textLength="80" x="447" y="45.8008">AppController</text><path d="M417,53.332 L417,53.387 L427,53.0326 L437,52.4159 L447,53.0685 L457,53.2935 L467,52.4099 L477,53.5499 L487,52.7157 L497,53.502 L507,52.5163 L517,52.5633 L527,54.049 L537,53.483 L547,52.4313 L557,53.332 " fill="#FEFECE" style="stroke: #A80036; stroke-width: 1.5;"/><text fill="#000000" font-family="sans-serif" font-size="11" lengthAdjust="spacingAndGlyphs" textLength="130" x="422" y="67.9668">+BcMessageComponent</text><text fill="#000000" font-family="sans-serif" font-size="11" lengthAdjust="spacingAndGlyphs" textLength="115" x="422" y="80.9219">+SecurityComponent</text><text fill="#000000" font-family="sans-serif" font-size="11" lengthAdjust="spacingAndGlyphs" textLength="123" x="422" y="93.877">+PaginatorComponent</text><path d="M417,100.1973 L417,100.3341 L427,99.7399 L437,100.3409 L447,99.9373 L457,101.0736 L467,100.4859 L477,101.1862 L487,100.151 L497,100.7062 L507,99.7949 L517,99.5544 L527,100.245 L537,101.0421 L547,100.5528 L557,100.1973 " fill="#FEFECE" style="stroke: #A80036; stroke-width: 1.5;"/><!--class BcAdminXxxHelper--><polygon fill="#FEFECE" filter="url(#f499n4w)" points="580.5,504.6992,580.5,504.5737,590.25,505.1449,600,504.429,609.75,504.1715,619.5,504.2204,629.25,504.75,639,504.4982,648.75,503.9586,658.5,504.3641,668.25,504.7143,678,505.2271,687.75,504.1884,697.5,504.6992,697.5604,504.6992,697.2748,512.7258,697.6971,520.7523,697.371,528.7789,697.3944,536.8055,697.5,544.832,697.5,544.2608,687.75,545.445,678,544.7093,668.25,544.6137,658.5,545.4432,648.75,544.0981,639,545.3505,629.25,545.4664,619.5,545.1918,609.75,544.4159,600,545.1435,590.25,544.961,580.5,544.832,580.4253,544.832,580.4064,536.8055,580.6893,528.7789,580.4191,520.7523,580.4615,512.7258,580.5,504.6992" style="stroke: #A80036; stroke-width: 1.5;"/><text fill="#000000" font-family="sans-serif" font-size="12" lengthAdjust="spacingAndGlyphs" textLength="111" x="583.5" y="521.3008">BcAdminXxxHelper</text><path d="M581.5,528.832 L581.5,527.8433 L591.0833,529.1545 L600.6667,529.3504 L610.25,529.6673 L619.8333,529.1949 L629.4167,529.0825 L639,527.8602 L648.5833,527.9048 L658.1667,528.9082 L667.75,528.6162 L677.3333,529.6891 L686.9167,529.2588 L696.5,528.832 " fill="#FEFECE" style="stroke: #A80036; stroke-width: 1.5;"/><path d="M581.5,536.832 L581.5,536.8386 L591.0833,536.305 L600.6667,535.9895 L610.25,536.416 L619.8333,537.785 L629.4167,537.0875 L639,536.7923 L648.5833,536.8871 L658.1667,537.3014 L667.75,536.4318 L677.3333,535.9875 L686.9167,536.3506 L696.5,536.832 " fill="#FEFECE" style="stroke: #A80036; stroke-width: 1.5;"/><!--class XxxService--><polygon fill="#FEFECE" filter="url(#f499n4w)" points="459.5,498.1992,459.5,497.5437,469.6429,497.6397,479.7857,498.6845,489.9286,497.4726,500.0714,497.9966,510.2143,498.927,520.3571,498.4721,530.5,498.1992,530.4328,498.1992,530.0048,508.8168,531.109,519.4344,530.3891,530.052,531.1112,540.6695,530.5,551.2871,530.5,551.4193,520.3571,550.7927,510.2143,551.4047,500.0714,551.0617,489.9286,551.8321,479.7857,551.3647,469.6429,551.0026,459.5,551.2871,460.1863,551.2871,459.8635,540.6695,459.7985,530.052,459.5635,519.4344,460.0657,508.8168,459.5,498.1992" style="stroke: #A80036; stroke-width: 1.5;"/><text fill="#000000" font-family="sans-serif" font-size="12" lengthAdjust="spacingAndGlyphs" textLength="62" x="464" y="514.8008">XxxService</text><path d="M460.5,522.332 L460.5,523.1721 L470.3571,522.6295 L480.2143,523.1044 L490.0714,521.5369 L499.9286,522.98 L509.7857,522.6754 L519.6429,522.2008 L529.5,522.332 " fill="#FEFECE" style="stroke: #A80036; stroke-width: 1.5;"/><text fill="#000000" font-family="sans-serif" font-size="11" lengthAdjust="spacingAndGlyphs" textLength="59" x="465.5" y="536.9668">+XxxTable</text><path d="M460.5,543.2871 L460.5,542.874 L470.3571,543.2453 L480.2143,542.4846 L490.0714,543.7637 L499.9286,542.3671 L509.7857,542.5602 L519.6429,543.1352 L529.5,543.2871 " fill="#FEFECE" style="stroke: #A80036; stroke-width: 1.5;"/><!--class XxxServiceInterface--><polygon fill="#FEFECE" filter="url(#f499n4w)" points="268,472.1992,268,472.3806,277.75,472.1523,287.5,472.5964,297.25,472.7359,307,472.5592,316.75,471.7421,326.5,472.0227,336.25,472.34,346,471.5426,355.75,472.1318,365.5,472.292,375.25,472.0049,385,472.372,394.75,472.6311,404.5,471.8324,414.25,472.0923,424,472.1992,423.3485,472.1992,424.6297,482.69,423.8172,493.1809,424.3413,503.6717,424.4781,514.1625,423.949,524.6533,423.7668,535.1441,423.6063,545.635,423.923,556.1258,424.4252,566.6166,424,577.1074,424,577.8237,414.25,576.8439,404.5,576.8931,394.75,577.4384,385,577.7143,375.25,577.3145,365.5,577.2715,355.75,576.5863,346,577.4336,336.25,577.1785,326.5,577.7369,316.75,576.4285,307,577.5661,297.25,576.3606,287.5,577.4814,277.75,576.9391,268,577.1074,268.5603,577.1074,268.4004,566.6166,267.9128,556.1258,268.1014,545.635,268.3266,535.1441,267.6277,524.6533,267.6177,514.1625,268.5935,503.6717,268.5791,493.1809,268.2429,482.69,268,472.1992" style="stroke: #A80036; stroke-width: 1.5;"/><text fill="#000000" font-family="sans-serif" font-size="12" lengthAdjust="spacingAndGlyphs" textLength="112" x="290" y="488.8008">XxxServiceInterface</text><path d="M269,496.332 L269,497.2767 L279.2667,496.4849 L289.5333,496.0091 L299.8,497.1484 L310.0667,497.163 L320.3333,497.3029 L330.6,495.7542 L340.8667,496.6441 L351.1333,496.2592 L361.4,495.7934 L371.6667,495.7855 L381.9333,495.4233 L392.2,496.6895 L402.4667,497.0919 L412.7333,495.7523 L423,496.332 " fill="#FEFECE" style="stroke: #A80036; stroke-width: 1.5;"/><path d="M269,504.332 L269,505.3129 L279.2667,505.0479 L289.5333,504.0167 L299.8,504.4214 L310.0667,504.4386 L320.3333,505.0276 L330.6,504.7725 L340.8667,503.8562 L351.1333,504.7564 L361.4,504.5132 L371.6667,505.3168 L381.9333,504.8762 L392.2,505.0452 L402.4667,503.4491 L412.7333,503.6419 L423,504.332 " fill="#FEFECE" style="stroke: #A80036; stroke-width: 1.5;"/><text fill="#000000" font-family="sans-serif" font-size="11" lengthAdjust="spacingAndGlyphs" textLength="83" x="274" y="518.9668">+作成：create()</text><text fill="#000000" font-family="sans-serif" font-size="11" lengthAdjust="spacingAndGlyphs" textLength="87" x="274" y="531.9219">+編集：update()</text><text fill="#000000" font-family="sans-serif" font-size="11" lengthAdjust="spacingAndGlyphs" textLength="122" x="274" y="544.877">+単一データ取得：get()</text><text fill="#000000" font-family="sans-serif" font-size="11" lengthAdjust="spacingAndGlyphs" textLength="135" x="274" y="557.832">+一覧データ取得：index()</text><text fill="#000000" font-family="sans-serif" font-size="11" lengthAdjust="spacingAndGlyphs" textLength="144" x="274" y="570.7871">+初期データ取得：getNew()</text><!--class XxxTable--><polygon fill="#FEFECE" filter="url(#f499n4w)" points="464.5,637.1992,464.5,636.4952,474.6667,637.3563,484.8333,637.0188,495,637.0939,505.1667,636.7469,515.3333,636.4509,525.5,637.1992,525.5386,637.1992,525.6761,645.2258,525.5356,653.2523,525.669,661.2789,525.7126,669.3055,525.5,677.332,525.5,677.2872,515.3333,677.7111,505.1667,677.7088,495,677.3067,484.8333,676.6222,474.6667,677.6476,464.5,677.332,464.6828,677.332,464.6936,669.3055,464.4296,661.2789,464.4894,653.2523,464.3024,645.2258,464.5,637.1992" style="stroke: #A80036; stroke-width: 1.5;"/><text fill="#000000" font-family="sans-serif" font-size="12" lengthAdjust="spacingAndGlyphs" textLength="55" x="467.5" y="653.8008">XxxTable</text><path d="M465.5,661.332 L465.5,662.2791 L475.3333,661.9693 L485.1667,662.0969 L495,662.0247 L504.8333,660.8631 L514.6667,661.9652 L524.5,661.332 " fill="#FEFECE" style="stroke: #A80036; stroke-width: 1.5;"/><path d="M465.5,669.332 L465.5,669.7634 L475.3333,669.0888 L485.1667,669.903 L495,668.5657 L504.8333,669.0428 L514.6667,669.5673 L524.5,669.332 " fill="#FEFECE" style="stroke: #A80036; stroke-width: 1.5;"/><!--class Xxx--><polygon fill="#FEFECE" filter="url(#f499n4w)" points="481,737.1992,481,736.9749,486.6,737.3106,492.2,737.3448,497.8,737.3307,503.4,737.19,509,737.1992,508.8326,737.1992,509.0154,745.2258,509.2487,753.2523,509.1353,761.2789,509.0832,769.3055,509,777.332,509,777.4751,503.4,777.0844,497.8,777.1298,492.2,777.1029,486.6,777.4578,481,777.332,481.2217,777.332,480.8967,769.3055,480.9079,761.2789,481.0901,753.2523,481.0553,745.2258,481,737.1992" style="stroke: #A80036; stroke-width: 1.5;"/><text fill="#000000" font-family="sans-serif" font-size="12" lengthAdjust="spacingAndGlyphs" textLength="22" x="484" y="753.8008">Xxx</text><path d="M482,761.332 L482,761.2545 L487.2,761.5653 L492.4,761.5313 L497.6,761.5616 L502.8,761.0164 L508,761.332 " fill="#FEFECE" style="stroke: #A80036; stroke-width: 1.5;"/><path d="M482,769.332 L482,769.2177 L487.2,769.6229 L492.4,769.4884 L497.6,769.4512 L502.8,769.1414 L508,769.332 " fill="#FEFECE" style="stroke: #A80036; stroke-width: 1.5;"/><polygon fill="#FBFB77" filter="url(#f499n4w)" points="346.5,744.6992,346.258,744.6992,346.7374,749.7613,346.4324,754.8234,346.3829,759.8855,346.4157,764.9477,346.5,770.0098,346.5,770.2231,356.4,769.3961,366.3,769.8839,376.2,770.3663,386.1,770.5892,396,769.2848,405.9,770.3472,415.8,770.153,425.7,769.8779,435.6,770.0903,445.5,770.0098,445.3825,770.0098,445.4815,766.9477,445.3825,763.8855,445.5405,760.8234,445.578,757.7613,445.5,754.6992,445.3808,754.58,443.4184,752.6176,441.6627,750.8619,439.5136,748.7128,437.6601,746.8593,435.5,744.6992,435.5,744.7478,425.6111,744.6871,415.7222,744.813,405.8333,744.0975,395.9444,745.013,386.0556,744.5268,376.1667,744.8297,366.2778,744.2275,356.3889,744.2743,346.5,744.6992" style="stroke: #A80036; stroke-width: 1.0;"/><polygon fill="#FBFB77" points="346.5,744.6992,346.3526,744.6992,346.3231,749.7613,346.2534,754.8234,346.4056,759.8855,346.3199,764.9477,346.5,770.0098,346.5,769.918,356.4,770.5438,366.3,770.5675,376.2,769.6284,386.1,769.7547,396,769.9745,405.9,770.6017,415.8,769.4935,425.7,770.007,435.6,770.5353,445.5,770.0098,445.2855,770.0098,445.4939,768.5477,445.2945,767.0855,445.4406,765.6234,445.4601,764.1613,445.5,762.6992,445.5341,762.9178,452.5733,761.6849,459.6493,760.687,466.6996,759.5248,473.7623,758.4424,480.8,757.1992,480.7944,757.1203,473.7252,756.4909,466.6902,756.3431,459.6064,755.5075,452.561,755.2131,445.5,754.6992,445.3973,754.5965,443.6604,752.8596,441.6252,750.8244,439.5502,748.7494,437.4473,746.6465,435.5,744.6992,435.5,744.6075,425.6111,744.3152,415.7222,745.1364,405.8333,744.1897,395.9444,744.9663,386.0556,745.3481,376.1667,745.1412,366.2778,744.7936,356.3889,744.5484,346.5,744.6992" style="stroke: #A80036; stroke-width: 1.0;"/><path d="M435.5,744.6992 L435.5045,744.6992 L435.3821,746.6992 L435.7171,748.6992 L435.4868,750.6992 L435.666,752.6992 L435.5,754.6992 " fill="#FBFB77" style="stroke: #A80036; stroke-width: 1.0;"/><path d="M445.5,754.6992 L445.5,754.6168 L443.5,754.6853 L441.5,754.4941 L439.5,754.6404 L437.5,754.609 L435.5,754.6992 " fill="#FBFB77" style="stroke: #A80036; stroke-width: 1.0;"/><text fill="#000000" font-family="sans-serif" font-size="13" lengthAdjust="spacingAndGlyphs" textLength="78" x="352.5" y="762.2676">エンティティ</text><path d="M54.32,359.6992 L54.32,359.4854 L60.176,360.0241 L66.032,359.873 L71.888,359.9459 L77.744,359.8098 L83.6,359.6992 " fill="none" style="stroke: #000000; stroke-width: 1.0;"/><polygon fill="#000000" points="88.7,359.6992,88.7499,359.8114,86.9137,358.9301,85.1357,358.1795,83.3024,357.3046,81.4837,356.4626,79.7,355.6992,79.7457,355.745,80.6354,356.6346,81.2533,357.2525,81.9987,357.9979,82.8146,358.8138,83.7,359.6992,83.8371,359.8363,83.0335,360.6328,82.2334,361.4326,81.3077,362.1069,80.5574,362.9566,79.7,363.6992,79.6773,363.6482,81.4714,362.8349,83.2621,362.014,85.0333,361.1491,86.999,360.722,88.7,359.6992" style="stroke: #000000; stroke-width: 1.0;"/><path d="M137.23,359.6992 L137.23,359.9777 L143.126,359.7743 L149.022,359.9465 L154.918,359.5586 L160.814,359.9667 L166.71,359.6992 " fill="none" style="stroke: #000000; stroke-width: 1.0;"/><polygon fill="#000000" points="171.84,359.6992,171.8449,359.7102,169.9487,358.6938,168.2865,358.2039,166.4824,357.3946,164.7233,356.6866,162.84,355.6992,162.7836,355.6429,163.8045,356.6637,164.608,357.4672,165.2735,358.1327,166.2025,359.0617,166.84,359.6992,166.7512,359.6105,166.1377,360.5969,165.1604,361.2196,164.3573,362.0166,163.6067,362.8659,162.84,363.6992,162.8632,363.7515,164.6168,362.8469,166.5171,362.2727,168.1955,361.199,169.965,360.3305,171.84,359.6992" style="stroke: #000000; stroke-width: 1.0;"/><path d="M242.27,359.6992 L242.27,359.5356 L248.212,359.4033 L254.154,359.4976 L260.096,359.9673 L266.038,359.987 L271.98,359.6992 " fill="none" style="stroke: #000000; stroke-width: 1.0;"/><polygon fill="#000000" points="277.16,359.6992,277.0877,359.5366,275.2894,358.7404,273.5183,358.0053,271.6795,357.118,270.0217,356.6381,268.16,355.6992,268.0121,355.5513,268.8526,356.3918,269.7576,357.2969,270.473,358.0122,271.4154,358.9546,272.16,359.6992,272.1642,359.7034,271.2219,360.3612,270.417,361.1562,269.8024,362.1416,268.9879,362.9271,268.16,363.6992,268.186,363.7578,269.9182,362.8053,271.8039,362.198,273.4921,361.1465,275.2788,360.3165,277.16,359.6992" style="stroke: #000000; stroke-width: 1.0;"/><path d="M380.54,359.6992 L380.54,359.7776 L386.56,359.8872 L392.58,359.656 L398.6,359.389 L404.62,359.558 L410.64,359.6992 " fill="none" style="stroke: #000000; stroke-width: 1.0;"/><polygon fill="#000000" points="415.88,359.6992,415.8861,359.7129,414.0151,358.7532,412.33,358.2118,410.537,357.4275,408.5802,356.2747,406.88,355.6992,406.9903,355.8095,407.7368,356.5561,408.5083,357.3275,409.3271,358.1464,410.234,359.0532,410.88,359.6992,410.7167,359.5359,410.0179,360.4371,409.1257,361.1449,408.6419,362.2611,407.6183,362.8375,406.88,363.6992,406.7967,363.5118,408.5896,362.6957,410.5759,362.3151,412.1886,361.0935,414.1033,360.5516,415.88,359.6992" style="stroke: #000000; stroke-width: 1.0;"/><path d="M558.25,359.6992 L558.25,359.8519 L564.214,359.4992 L570.178,359.9307 L576.142,359.3817 L582.106,359.7008 L588.07,359.6992 " fill="none" style="stroke: #000000; stroke-width: 1.0;"/><polygon fill="#000000" points="593.26,359.6992,593.2632,359.7063,591.5351,359.0683,589.5799,357.919,587.79,357.1418,585.9698,356.2963,584.26,355.6992,584.2348,355.674,585.0196,356.4589,585.7777,357.2169,586.6917,358.1309,587.3942,358.8334,588.26,359.6992,588.1441,359.5833,587.4329,360.4722,586.5674,361.2066,585.9627,362.2019,585.0164,362.8556,584.26,363.6992,584.2135,363.5947,586.011,362.789,587.9188,362.2315,589.6164,361.2012,591.4859,360.5575,593.26,359.6992" style="stroke: #000000; stroke-width: 1.0;"/><path d="M489.53,412.2692 L490.4215,412.313 L489.6274,422.3372 L490.5627,432.4463 L490.9138,442.5268 L491.0395,452.5961 L491.89,462.7011 L491.9807,472.7687 L493.071,482.8854 L493.49,492.9692 " fill="none" style="stroke: #000000; stroke-width: 1.0;"/><polygon fill="#000000" points="493.74,497.9592,493.7906,497.9788,494.2657,496.0504,494.9841,494.2163,495.8266,492.4303,496.3963,490.5386,497.2987,488.7758,497.278,488.757,496.6879,489.7492,495.8344,490.5025,495.1903,491.4457,494.4297,492.2833,493.4974,492.9651,493.4398,492.9016,492.8134,492.3744,491.7326,491.3464,490.8331,490.5182,490.2127,489.9977,489.3081,489.1639,489.1697,489.0942,490.0403,490.8452,491.0346,492.6587,491.7699,494.3417,492.7262,496.136,493.74,497.9592" style="stroke: #000000; stroke-width: 1.0;"/><path d="M487,267.6892 L486.8024,267.6892 L487.2012,275.5892 L487.1897,283.4892 L486.9006,291.3892 L486.7981,299.2892 L487,307.1892 " fill="none" style="stroke: #000000; stroke-width: 1.0;"/><polygon fill="none" points="480,267.3292,479.8627,267.2812,481.3375,263.3073,482.5728,259.2497,484.2127,255.3337,485.8229,251.4072,487,247.3292,487.0724,247.3546,488.5772,251.3912,489.5812,255.2527,491.2369,259.3421,492.4135,263.2639,494,267.3292,494,267.0983,491.2,267.4796,488.4,267.1628,485.6,267.3812,482.8,267.448,480,267.3292" style="stroke: #000000; stroke-width: 1.0;"/><path d="M487,128.4992 L486.6892,128.4992 L486.8796,136.3972 L486.6916,144.2952 L487.3228,152.1932 L487.0309,160.0912 L487,167.9892 " fill="none" style="stroke: #000000; stroke-width: 1.0;"/><polygon fill="none" points="480,128.2292,480.0753,128.2556,481.3107,124.198,482.8067,120.2316,484.234,116.2411,485.7822,112.293,487,108.2292,487.0448,108.2449,488.3769,112.2211,489.7575,116.2143,491.3672,120.2878,492.5764,124.221,494,128.2292,494,128.3516,491.2,128.0645,488.4,128.1446,485.6,128.0088,482.8,128.2588,480,128.2292" style="stroke: #000000; stroke-width: 1.0;"/><path d="M645.73,386.5292 L646.6875,386.5762 L646.2226,396.8554 L643.9223,407.0446 L643.8948,417.3452 L643.2363,427.615 L642.666,437.889 L643.2821,448.2213 L641.8618,458.4536 L641.1901,468.7227 L640.2054,478.9764 L640.4464,489.2903 L640.18,499.5792 " fill="none" style="stroke: #000000; stroke-width: 1.0;"/><polygon fill="#000000" points="639.94,504.6092,640.0931,504.6869,640.847,502.8606,641.6385,501.0534,642.7613,499.4143,643.4999,497.5802,644.397,495.8265,644.397,495.8265,643.3964,496.4065,642.7313,497.3582,641.7496,497.9591,641.0354,498.8564,640.1968,499.6158,640.1206,499.5471,639.6148,498.9345,638.5271,497.7969,637.792,496.9773,637.0085,496.1141,636.4075,495.4157,636.3978,495.4119,637.232,497.2997,637.8895,499.1196,638.3738,500.8729,639.0685,502.7071,639.94,504.6092" style="stroke: #000000; stroke-width: 1.0;"/><path d="M535.74,524.6992 L535.74,524.5026 L544.634,524.8918 L553.528,524.373 L562.422,524.6098 L571.316,524.5211 L580.21,524.6992 " fill="none" style="stroke: #000000; stroke-width: 1.0;"/><polygon fill="#000000" points="530.72,524.6992,530.7088,524.674,532.6084,525.6982,534.3557,526.3796,536.1388,527.1415,537.9274,527.9159,539.72,528.6992,539.7015,528.6807,539.0622,528.0414,538.2043,527.1835,537.4683,526.4475,536.5217,525.5009,535.72,524.6992,535.8271,524.8063,536.6828,524.062,537.2698,523.049,538.1299,522.3091,538.8716,521.4508,539.72,520.6992,539.6312,520.4994,537.9477,521.5615,536.0858,522.2223,534.3233,523.1066,532.494,523.8407,530.72,524.6992" style="stroke: #000000; stroke-width: 1.0;"/><path d="M495,551.4792 L495.9803,551.4792 L495.431,561.4892 L494.8549,571.4992 L494.0016,581.5092 L494.7572,591.5192 L495.8938,601.5292 L495.1111,611.5392 L495.7897,621.5492 L495,631.5592 " fill="none" style="stroke: #000000; stroke-width: 1.0;"/><polygon fill="#000000" points="495,636.8392,495.0848,636.8769,495.9478,635.1049,496.6006,633.2395,497.2871,631.389,498.2968,629.6822,499,627.8392,498.9762,627.8154,498.0828,628.522,497.3851,629.4243,496.7142,630.3534,495.6669,630.9061,495,631.8392,495.1749,632.0142,494.2546,631.0938,493.3419,630.1812,492.6257,629.4649,491.9638,628.803,491,627.8392,491.042,627.8579,491.6446,629.5702,492.4447,631.3702,493.525,633.2948,494.1036,634.9964,495,636.8392" style="stroke: #000000; stroke-width: 1.0;"/><path d="M444.29,524.6992 L444.29,524.9458 L447.306,524.4826 L450.322,524.9979 L453.338,524.695 L456.354,524.535 L459.37,524.6992 " fill="none" style="stroke: #000000; stroke-width: 1.0; stroke-dasharray: 1.0,3.0;"/><polygon fill="none" points="444.28,531.6992,444.3037,531.7669,440.3205,530.415,436.3288,529.0386,432.2766,527.4894,428.3317,526.2469,424.28,524.6992,424.2957,524.744,428.2948,523.3415,432.2518,521.8188,436.286,520.5164,440.2467,519.004,444.28,517.6992,444.4924,517.6992,444.2754,520.4992,444.5194,523.2992,444.2892,526.0992,444.2996,528.8992,444.28,531.6992" style="stroke: #000000; stroke-width: 1.0;"/><path d="M495,677.5592 L495.2433,677.5592 L494.4283,688.4192 L494.1112,699.2792 L494.3196,710.1392 L495.809,720.9992 L495,731.8592 " fill="none" style="stroke: #000000; stroke-width: 1.0;"/><polygon fill="#000000" points="495,736.8792,494.9551,736.8593,495.6221,735.0002,496.535,733.2503,497.6124,731.5736,498.1137,729.6409,499,727.8792,498.8807,727.7599,498.3588,728.838,497.3814,729.4606,496.43,730.1092,495.7008,730.9801,495,731.8792,494.8561,731.7353,494.0817,730.9609,493.4459,730.3251,492.4471,729.3263,491.9317,728.8109,491,727.8792,491.0362,727.8953,491.9606,729.7506,492.6973,731.5225,493.2815,733.2266,494.1663,735.0642,495,736.8792" style="stroke: #000000; stroke-width: 1.0;"/></g></svg>