<?xml version="1.0" encoding="UTF-8" standalone="no"?><svg xmlns="http://www.w3.org/2000/svg" xmlns:xlink="http://www.w3.org/1999/xlink" contentScriptType="application/ecmascript" contentStyleType="text/css" height="647px" preserveAspectRatio="none" style="width:658px;height:647px;" version="1.1" viewBox="0 0 658 647" width="658px" zoomAndPan="magnify"><defs><filter height="300%" id="f3sudca" width="300%" x="-1" y="-1"><feGaussianBlur result="blurOut" stdDeviation="2.0"/><feColorMatrix in="blurOut" result="blurOut2" type="matrix" values="0 0 0 0 0 0 0 0 0 0 0 0 0 0 0 0 0 0 .4 0"/><feOffset dx="4.0" dy="4.0" in="blurOut2" result="blurOut3"/><feBlend in="SourceGraphic" in2="blurOut3" mode="normal"/></filter></defs><g><text fill="#000000" font-family="sans-serif" font-size="18" lengthAdjust="spacingAndGlyphs" textLength="153" x="257" y="17.4023">API基本クラス構成</text><!--class Server--><polygon fill="#FEFECE" filter="url(#f3sudca)" points="6,194.1992,6,193.7478,15.6,194.5478,25.2,194.1382,34.8,194.2031,44.4,194.8402,54,194.1992,54.4088,194.1992,53.727,204.8168,54.1864,215.4344,54.0852,226.052,53.5577,236.6695,54,247.2871,54,246.6374,44.4,247.2601,34.8,246.7864,25.2,247.5361,15.6,247.6132,6,247.2871,6.2189,247.2871,5.5219,236.6695,6.3304,226.052,5.763,215.4344,6.0396,204.8168,6,194.1992" style="stroke: #A80036; stroke-width: 1.5;"/><text fill="#000000" font-family="sans-serif" font-size="12" lengthAdjust="spacingAndGlyphs" textLength="36" x="12" y="210.8008">Server</text><path d="M7,218.332 L7,218.6974 L16.2,218.9729 L25.4,218.0782 L34.6,217.72 L43.8,218.6579 L53,218.332 " fill="#FEFECE" style="stroke: #A80036; stroke-width: 1.5;"/><path d="M7,226.332 L7,225.8569 L16.2,226.1877 L25.4,225.7131 L34.6,226.0597 L43.8,226.9742 L53,226.332 " fill="#FEFECE" style="stroke: #A80036; stroke-width: 1.5;"/><text fill="#000000" font-family="sans-serif" font-size="11" lengthAdjust="spacingAndGlyphs" textLength="36" x="12" y="240.9668">+run()</text><!--class Runner--><polygon fill="#FEFECE" filter="url(#f3sudca)" points="89,194.1992,89,194.5399,98.6,193.9818,108.2,193.9755,117.8,194.2258,127.4,194.015,137,194.1992,136.2563,194.1992,137.1524,204.8168,137.1244,215.4344,137.1106,226.052,136.9497,236.6695,137,247.2871,137,247.4351,127.4,246.7396,117.8,246.7962,108.2,247.9937,98.6,246.876,89,247.2871,88.8394,247.2871,88.3314,236.6695,88.6117,226.052,88.5025,215.4344,88.8322,204.8168,89,194.1992" style="stroke: #A80036; stroke-width: 1.5;"/><text fill="#000000" font-family="sans-serif" font-size="12" lengthAdjust="spacingAndGlyphs" textLength="41" x="92.5" y="210.8008">Runner</text><path d="M90,218.332 L90,217.8851 L99.2,218.9908 L108.4,218.3488 L117.6,217.5813 L126.8,217.7039 L136,218.332 " fill="#FEFECE" style="stroke: #A80036; stroke-width: 1.5;"/><path d="M90,226.332 L90,225.871 L99.2,225.9434 L108.4,227.2708 L117.6,226.1479 L126.8,226.3205 L136,226.332 " fill="#FEFECE" style="stroke: #A80036; stroke-width: 1.5;"/><text fill="#000000" font-family="sans-serif" font-size="11" lengthAdjust="spacingAndGlyphs" textLength="36" x="95" y="240.9668">+run()</text><!--class Application--><polygon fill="#FEFECE" filter="url(#f3sudca)" points="172,194.1992,172,193.6347,182,194.5443,192,193.4501,202,194.4892,212,194.5704,222,194.0398,232,194.9465,242,194.1992,242.5226,194.1992,242.3085,204.8168,242.5473,215.4344,241.4241,226.052,242.14,236.6695,242,247.2871,242,247.5458,232,246.9055,222,247.3212,212,247.7367,202,247.114,192,246.9142,182,247.0104,172,247.2871,171.8257,247.2871,171.7885,236.6695,171.6223,226.052,172.2375,215.4344,171.6606,204.8168,172,194.1992" style="stroke: #A80036; stroke-width: 1.5;"/><text fill="#000000" font-family="sans-serif" font-size="12" lengthAdjust="spacingAndGlyphs" textLength="64" x="175" y="210.8008">Application</text><path d="M173,218.332 L173,218.2158 L182.7143,217.605 L192.4286,218.2481 L202.1429,217.8461 L211.8571,217.4501 L221.5714,219.1027 L231.2857,219.2638 L241,218.332 " fill="#FEFECE" style="stroke: #A80036; stroke-width: 1.5;"/><path d="M173,226.332 L173,226.4494 L182.7143,227.2713 L192.4286,227.2281 L202.1429,226.9234 L211.8571,226.274 L221.5714,226.0363 L231.2857,225.4455 L241,226.332 " fill="#FEFECE" style="stroke: #A80036; stroke-width: 1.5;"/><text fill="#000000" font-family="sans-serif" font-size="11" lengthAdjust="spacingAndGlyphs" textLength="53" x="178" y="240.9668">+handle()</text><!--class ControllerFactory--><polygon fill="#FEFECE" filter="url(#f3sudca)" points="277.5,194.1992,277.5,194.2706,287.8,193.706,298.1,193.7065,308.4,193.4593,318.7,194.2297,329,193.4837,339.3,194.9342,349.6,194.9456,359.9,194.7651,370.2,193.6904,380.5,194.1992,380.7877,194.1992,381.0966,204.8168,379.9227,215.4344,379.7525,226.052,381.2407,236.6695,380.5,247.2871,380.5,247.1999,370.2,247.6676,359.9,247.3185,349.6,246.7,339.3,247.8258,329,247.7886,318.7,247.5295,308.4,247.3106,298.1,247.6784,287.8,246.6504,277.5,247.2871,276.9372,247.2871,277.4686,236.6695,277.1855,226.052,277.3291,215.4344,276.7682,204.8168,277.5,194.1992" style="stroke: #A80036; stroke-width: 1.5;"/><text fill="#000000" font-family="sans-serif" font-size="12" lengthAdjust="spacingAndGlyphs" textLength="97" x="280.5" y="210.8008">ControllerFactory</text><path d="M278.5,218.332 L278.5,218.7845 L288.6,218.4457 L298.7,219.1086 L308.8,218.0388 L318.9,218.4773 L329,217.8085 L339.1,218.6167 L349.2,218.2612 L359.3,218.813 L369.4,219.2163 L379.5,218.332 " fill="#FEFECE" style="stroke: #A80036; stroke-width: 1.5;"/><path d="M278.5,226.332 L278.5,227.1334 L288.6,226.0004 L298.7,225.6901 L308.8,226.2625 L318.9,227.2318 L329,226.9909 L339.1,226.0166 L349.2,226.3023 L359.3,226.1742 L369.4,226.2496 L379.5,226.332 " fill="#FEFECE" style="stroke: #A80036; stroke-width: 1.5;"/><text fill="#000000" font-family="sans-serif" font-size="11" lengthAdjust="spacingAndGlyphs" textLength="52" x="283.5" y="240.9668">+invoke()</text><!--class Admin\XxxsController--><polygon fill="#FEFECE" filter="url(#f3sudca)" points="415.5,168.1992,415.5,168.3915,425.7308,168.1315,435.9615,167.9994,446.1923,168.5112,456.4231,167.4801,466.6538,168.2775,476.8846,168.0684,487.1154,168.3436,497.3462,168.0609,507.5769,168.1402,517.8077,168.7972,528.0385,167.555,538.2692,168.3173,548.5,168.1992,548.5408,168.1992,547.9262,178.69,548.0072,189.1809,548.5255,199.6717,548.4308,210.1625,548.5886,220.6533,548.5957,231.1441,548.2419,241.635,547.9574,252.1258,548.4182,262.6166,548.5,273.1074,548.5,272.3962,538.2692,273.7684,528.0385,273.2193,517.8077,273.5985,507.5769,273.62,497.3462,273.299,487.1154,273.6673,476.8846,272.4821,466.6538,273.4493,456.4231,272.932,446.1923,273.0225,435.9615,273.602,425.7308,273.7993,415.5,273.1074,415.1755,273.1074,415.0694,262.6166,414.7729,252.1258,415.8798,241.635,414.9696,231.1441,415.4057,220.6533,415.2243,210.1625,415.7056,199.6717,414.849,189.1809,414.9956,178.69,415.5,168.1992" style="stroke: #A80036; stroke-width: 1.5;"/><text fill="#000000" font-family="sans-serif" font-size="12" lengthAdjust="spacingAndGlyphs" textLength="127" x="418.5" y="184.8008">Admin\XxxsController</text><path d="M416.5,192.332 L416.5,193.1585 L426.5769,192.7308 L436.6538,192.9141 L446.7308,192.9037 L456.8077,191.8494 L466.8846,193.127 L476.9615,192.0492 L487.0385,191.9717 L497.1154,192.5049 L507.1923,192.2446 L517.2692,193.2615 L527.3462,191.5222 L537.4231,192.6197 L547.5,192.332 " fill="#FEFECE" style="stroke: #A80036; stroke-width: 1.5;"/><path d="M416.5,200.332 L416.5,200.203 L426.5769,200.7363 L436.6538,200.2026 L446.7308,200.2275 L456.8077,201.3286 L466.8846,200.4063 L476.9615,200.6327 L487.0385,200.9032 L497.1154,200.7253 L507.1923,200.8157 L517.2692,199.8046 L527.3462,200.7143 L537.4231,199.765 L547.5,200.332 " fill="#FEFECE" style="stroke: #A80036; stroke-width: 1.5;"/><text fill="#000000" font-family="sans-serif" font-size="11" lengthAdjust="spacingAndGlyphs" textLength="105" x="421.5" y="214.9668">+一覧データ取得：()</text><text fill="#000000" font-family="sans-serif" font-size="11" lengthAdjust="spacingAndGlyphs" textLength="94" x="421.5" y="227.9219">+単一データ取得()</text><text fill="#000000" font-family="sans-serif" font-size="11" lengthAdjust="spacingAndGlyphs" textLength="61" x="421.5" y="240.877">+新規追加()</text><text fill="#000000" font-family="sans-serif" font-size="11" lengthAdjust="spacingAndGlyphs" textLength="39" x="421.5" y="253.832">+編集()</text><text fill="#000000" font-family="sans-serif" font-size="11" lengthAdjust="spacingAndGlyphs" textLength="39" x="421.5" y="266.7871">+削除()</text><!--class BcApiController--><polygon fill="#FEFECE" filter="url(#f3sudca)" points="400.5,29.1992,400.5,29.8383,410.6875,29.3608,420.875,28.795,431.0625,29.1959,441.25,29.7119,451.4375,29.8811,461.625,29.3964,471.8125,29.8884,482,28.829,492.1875,29.8404,502.375,28.5713,512.5625,29.5279,522.75,29.0161,532.9375,29.6677,543.125,29.0567,553.3125,28.7489,563.5,29.1992,563.8219,29.1992,563.7324,39.074,563.2184,48.9487,563.2939,58.8235,563.4564,68.6982,563.4074,78.573,564.2204,88.4478,564.2427,98.3225,563.5,108.1973,563.5,107.9033,553.3125,108.805,543.125,108.047,532.9375,107.4766,522.75,108.454,512.5625,108.8676,502.375,107.7149,492.1875,108.4389,482,108.6092,471.8125,108.4316,461.625,107.965,451.4375,108.2592,441.25,108.7327,431.0625,107.6867,420.875,107.6757,410.6875,107.9336,400.5,108.1973,400.4657,108.1973,400.0598,98.3225,401.1144,88.4478,400.4309,78.573,400.2876,68.6982,400.0501,58.8235,400.5347,48.9487,400.9098,39.074,400.5,29.1992" style="stroke: #A80036; stroke-width: 1.5;"/><text fill="#000000" font-family="sans-serif" font-size="12" lengthAdjust="spacingAndGlyphs" textLength="88" x="438" y="45.8008">BcApiController</text><path d="M401.5,53.332 L401.5,53.2507 L411.5625,54.1366 L421.625,53.6123 L431.6875,53.1572 L441.75,52.4678 L451.8125,53.2162 L461.875,52.5818 L471.9375,52.8838 L482,54.2638 L492.0625,53.3112 L502.125,52.3458 L512.1875,53.8042 L522.25,52.4312 L532.3125,53.4177 L542.375,52.4405 L552.4375,53.8925 L562.5,53.332 " fill="#FEFECE" style="stroke: #A80036; stroke-width: 1.5;"/><text fill="#000000" font-family="sans-serif" font-size="11" lengthAdjust="spacingAndGlyphs" textLength="151" x="406.5" y="67.9668">+AuthenticationComponent</text><path d="M401.5,74.2871 L401.5,73.7329 L411.5625,73.6826 L421.625,74.7441 L431.6875,74.9194 L441.75,75.1057 L451.8125,73.3665 L461.875,74.2408 L471.9375,74.622 L482,73.5782 L492.0625,74.1037 L502.125,73.5041 L512.1875,75.1744 L522.25,75.1598 L532.3125,74.773 L542.375,74.0627 L552.4375,75.2365 L562.5,74.2871 " fill="#FEFECE" style="stroke: #A80036; stroke-width: 1.5;"/><text fill="#000000" font-family="sans-serif" font-size="11" lengthAdjust="spacingAndGlyphs" textLength="87" x="406.5" y="88.9219">+invokeAction()</text><text fill="#000000" font-family="sans-serif" font-size="11" lengthAdjust="spacingAndGlyphs" textLength="53" x="406.5" y="101.877">+render()</text><!--class JsonView--><polygon fill="#FEFECE" filter="url(#f3sudca)" points="583.5,194.1992,583.5,193.9821,592.7857,194.223,602.0714,194.8854,611.3571,194.7171,620.6429,194.6187,629.9286,194.8048,639.2143,193.8638,648.5,194.1992,648.8842,194.1992,648.713,204.8168,648.2537,215.4344,648.3879,226.052,649.2091,236.6695,648.5,247.2871,648.5,246.7903,639.2143,247.8688,629.9286,247.1279,620.6429,248.036,611.3571,247.6776,602.0714,246.7843,592.7857,247.7621,583.5,247.2871,583.2584,247.2871,584.1647,236.6695,584.0047,226.052,582.8611,215.4344,583.1484,204.8168,583.5,194.1992" style="stroke: #A80036; stroke-width: 1.5;"/><text fill="#000000" font-family="sans-serif" font-size="12" lengthAdjust="spacingAndGlyphs" textLength="51" x="590.5" y="210.8008">JsonView</text><path d="M584.5,218.332 L584.5,217.7197 L595,218.0299 L605.5,217.7645 L616,218.2163 L626.5,218.1311 L637,218.4197 L647.5,218.332 " fill="#FEFECE" style="stroke: #A80036; stroke-width: 1.5;"/><path d="M584.5,226.332 L584.5,225.9419 L595,227.2773 L605.5,225.8853 L616,227.2635 L626.5,226.3215 L637,226.4784 L647.5,226.332 " fill="#FEFECE" style="stroke: #A80036; stroke-width: 1.5;"/><text fill="#000000" font-family="sans-serif" font-size="11" lengthAdjust="spacingAndGlyphs" textLength="53" x="589.5" y="240.9668">+render()</text><!--class XxxService--><polygon fill="#FEFECE" filter="url(#f3sudca)" points="446.5,359.1992,446.5,359.5305,456.6429,359.2468,466.7857,359.2019,476.9286,359.9284,487.0714,359.6599,497.2143,359.9113,507.3571,358.4837,517.5,359.1992,517.5701,359.1992,518.2452,369.8168,516.8293,380.4344,517.0199,391.052,518.1592,401.6695,517.5,412.2871,517.5,411.5992,507.3571,412.9512,497.2143,411.7868,487.0714,412.5143,476.9286,411.6864,466.7857,412.2897,456.6429,413.0027,446.5,412.2871,446.424,412.2871,446.805,401.6695,446.0479,391.052,446.3271,380.4344,446.2902,369.8168,446.5,359.1992" style="stroke: #A80036; stroke-width: 1.5;"/><text fill="#000000" font-family="sans-serif" font-size="12" lengthAdjust="spacingAndGlyphs" textLength="62" x="451" y="375.8008">XxxService</text><path d="M447.5,383.332 L447.5,383.1808 L457.3571,383.2622 L467.2143,382.7795 L477.0714,382.6212 L486.9286,383.1263 L496.7857,382.3801 L506.6429,383.3534 L516.5,383.332 " fill="#FEFECE" style="stroke: #A80036; stroke-width: 1.5;"/><text fill="#000000" font-family="sans-serif" font-size="11" lengthAdjust="spacingAndGlyphs" textLength="59" x="452.5" y="397.9668">+XxxTable</text><path d="M447.5,404.2871 L447.5,403.4759 L457.3571,403.8046 L467.2143,404.0692 L477.0714,403.3116 L486.9286,403.6413 L496.7857,404.4073 L506.6429,403.7555 L516.5,404.2871 " fill="#FEFECE" style="stroke: #A80036; stroke-width: 1.5;"/><!--class XxxServiceInterface--><polygon fill="#FEFECE" filter="url(#f3sudca)" points="247,333.1992,247,333.2492,257.25,332.5785,267.5,332.8846,277.75,333.3621,288,333.1419,298.25,333.3969,308.5,333.7115,318.75,332.8326,329,333.8865,339.25,332.6422,349.5,333.2228,359.75,332.7146,370,333.3944,380.25,332.4562,390.5,333.2668,400.75,333.2816,411,333.1992,411.1046,333.1992,411.3906,343.69,411.0947,354.1809,411.4438,364.6717,410.6562,375.1625,411.2491,385.6533,411.0306,396.1441,410.2885,406.635,410.5057,417.1258,410.5126,427.6166,411,438.1074,411,437.6397,400.75,438.4929,390.5,437.934,380.25,438.8241,370,438.3212,359.75,438.3883,349.5,438.2872,339.25,438.7074,329,438.0423,318.75,438.3578,308.5,437.7539,298.25,438.0789,288,438.5021,277.75,438.5603,267.5,437.7304,257.25,437.4115,247,438.1074,247.5627,438.1074,246.884,427.6166,246.9781,417.1258,246.7367,406.635,247.4099,396.1441,246.6488,385.6533,246.9574,375.1625,247.1547,364.6717,246.9723,354.1809,247.2536,343.69,247,333.1992" style="stroke: #A80036; stroke-width: 1.5;"/><text fill="#000000" font-family="sans-serif" font-size="12" lengthAdjust="spacingAndGlyphs" textLength="112" x="273" y="349.8008">XxxServiceInterface</text><path d="M248,357.332 L248,356.4006 L258.125,358.031 L268.25,356.6552 L278.375,358.0905 L288.5,356.6787 L298.625,356.8962 L308.75,357.6441 L318.875,357.7724 L329,357.3964 L339.125,356.3332 L349.25,356.7464 L359.375,358.0327 L369.5,356.7161 L379.625,357.5283 L389.75,356.6648 L399.875,357.6788 L410,357.332 " fill="#FEFECE" style="stroke: #A80036; stroke-width: 1.5;"/><path d="M248,365.332 L248,364.8271 L258.125,366.2908 L268.25,365.7154 L278.375,365.6127 L288.5,366.2805 L298.625,365.007 L308.75,365.7463 L318.875,364.7281 L329,365.0303 L339.125,364.9517 L349.25,365.8699 L359.375,364.3389 L369.5,364.7827 L379.625,365.8135 L389.75,366.2233 L399.875,364.7884 L410,365.332 " fill="#FEFECE" style="stroke: #A80036; stroke-width: 1.5;"/><text fill="#000000" font-family="sans-serif" font-size="11" lengthAdjust="spacingAndGlyphs" textLength="83" x="253" y="379.9668">+作成：create()</text><text fill="#000000" font-family="sans-serif" font-size="11" lengthAdjust="spacingAndGlyphs" textLength="87" x="253" y="392.9219">+編集：update()</text><text fill="#000000" font-family="sans-serif" font-size="11" lengthAdjust="spacingAndGlyphs" textLength="122" x="253" y="405.877">+単一データ取得：get()</text><text fill="#000000" font-family="sans-serif" font-size="11" lengthAdjust="spacingAndGlyphs" textLength="152" x="253" y="418.832">+一覧データ取得：getIndex()</text><text fill="#000000" font-family="sans-serif" font-size="11" lengthAdjust="spacingAndGlyphs" textLength="144" x="253" y="431.7871">+初期データ取得：getNew()</text><!--class XxxTable--><polygon fill="#FEFECE" filter="url(#f3sudca)" points="451.5,498.1992,451.5,498.3465,461.6667,497.7986,471.8333,498.0163,482,498.6904,492.1667,497.6455,502.3333,498.5975,512.5,498.1992,512.6683,498.1992,512.5204,506.2258,512.4643,514.2523,512.299,522.2789,512.4183,530.3055,512.5,538.332,512.5,537.7794,502.3333,538.2882,492.1667,538.2747,482,538.6556,471.8333,539.0053,461.6667,537.7552,451.5,538.332,451.3353,538.332,451.2509,530.3055,451.4128,522.2789,451.6017,514.2523,451.3763,506.2258,451.5,498.1992" style="stroke: #A80036; stroke-width: 1.5;"/><text fill="#000000" font-family="sans-serif" font-size="12" lengthAdjust="spacingAndGlyphs" textLength="55" x="454.5" y="514.8008">XxxTable</text><path d="M452.5,522.332 L452.5,522.2055 L462.3333,522.5129 L472.1667,522.29 L482,521.3749 L491.8333,521.599 L501.6667,522.5051 L511.5,522.332 " fill="#FEFECE" style="stroke: #A80036; stroke-width: 1.5;"/><path d="M452.5,530.332 L452.5,531.0149 L462.3333,530.6582 L472.1667,530.4512 L482,530.4211 L491.8333,529.985 L501.6667,530.17 L511.5,530.332 " fill="#FEFECE" style="stroke: #A80036; stroke-width: 1.5;"/><!--class Xxx--><polygon fill="#FEFECE" filter="url(#f3sudca)" points="468,598.1992,468,598.1245,473.6,598.4283,479.2,598.2965,484.8,598.345,490.4,598.127,496,598.1992,496.1266,598.1992,496.0388,606.2258,495.9446,614.2523,495.906,622.2789,496.0145,630.3055,496,638.332,496,638.4838,490.4,638.3637,484.8,638.1513,479.2,638.5728,473.6,638.4697,468,638.332,468.1817,638.332,468.0065,630.3055,468.1469,622.2789,467.8202,614.2523,468.0322,606.2258,468,598.1992" style="stroke: #A80036; stroke-width: 1.5;"/><text fill="#000000" font-family="sans-serif" font-size="12" lengthAdjust="spacingAndGlyphs" textLength="22" x="471" y="614.8008">Xxx</text><path d="M469,622.332 L469,622.1217 L474.2,622.1952 L479.4,622.2855 L484.6,622.0525 L489.8,622.2201 L495,622.332 " fill="#FEFECE" style="stroke: #A80036; stroke-width: 1.5;"/><path d="M469,630.332 L469,630.0349 L474.2,630.2627 L479.4,630.6605 L484.6,630.167 L489.8,630.188 L495,630.332 " fill="#FEFECE" style="stroke: #A80036; stroke-width: 1.5;"/><polygon fill="#FBFB77" filter="url(#f3sudca)" points="333.5,605.6992,333.4485,605.6992,333.582,610.7613,333.6072,615.8234,333.4825,620.8855,333.4669,625.9477,333.5,631.0098,333.5,630.2966,343.4,630.9585,353.3,630.2904,363.2,630.6122,373.1,630.3138,383,631.2062,392.9,630.3782,402.8,630.605,412.7,631.2148,422.6,630.3626,432.5,631.0098,432.4847,631.0098,432.3735,627.9477,432.5481,624.8855,432.3483,621.8234,432.7494,618.7613,432.5,615.6992,432.4565,615.6557,430.5627,613.7619,428.4351,611.6344,426.6213,609.8206,424.5539,607.7531,422.5,605.6992,422.5,606.1816,412.6111,605.0801,402.7222,605.6838,392.8333,606.4059,382.9444,606.0437,373.0556,605.7235,363.1667,605.1352,353.2778,605.0788,343.3889,605.2734,333.5,605.6992" style="stroke: #A80036; stroke-width: 1.0;"/><polygon fill="#FBFB77" points="333.5,605.6992,333.5702,605.6992,333.5792,610.7613,333.4822,615.8234,333.2803,620.8855,333.7358,625.9477,333.5,631.0098,333.5,631.3672,343.4,630.831,353.3,631.4142,363.2,631.4251,373.1,630.3407,383,631.4568,392.9,631.3054,402.8,630.7881,412.7,630.427,422.6,630.7429,432.5,631.0098,432.4248,631.0098,432.5654,629.5477,432.3987,628.0855,432.6984,626.6234,432.4621,625.1613,432.5,623.6992,432.5188,623.8197,439.5665,622.6408,446.6459,621.6655,453.6563,620.2469,460.7417,619.3104,467.8,618.1992,467.8033,618.2452,460.7346,617.6223,453.6711,617.0731,446.6162,616.6454,439.5749,616.4092,432.5,615.6992,432.6072,615.8065,430.4665,613.6657,428.5586,611.7578,426.5797,609.7789,424.6151,607.8143,422.5,605.6992,422.5,605.8629,412.6111,606.3039,402.7222,605.5351,392.8333,605.6109,382.9444,605.1991,373.0556,606.0547,363.1667,606.3161,353.2778,605.8905,343.3889,605.5664,333.5,605.6992" style="stroke: #A80036; stroke-width: 1.0;"/><path d="M422.5,605.6992 L422.4404,605.6992 L422.2669,607.6992 L422.8151,609.6992 L422.1747,611.6992 L422.3046,613.6992 L422.5,615.6992 " fill="#FBFB77" style="stroke: #A80036; stroke-width: 1.0;"/><path d="M432.5,615.6992 L432.5,615.7559 L430.5,615.584 L428.5,615.7823 L426.5,616.0142 L424.5,615.641 L422.5,615.6992 " fill="#FBFB77" style="stroke: #A80036; stroke-width: 1.0;"/><text fill="#000000" font-family="sans-serif" font-size="13" lengthAdjust="spacingAndGlyphs" textLength="78" x="339.5" y="623.2676">エンティティ</text><path d="M54.32,220.6992 L54.32,220.3736 L60.176,220.6347 L66.032,220.4036 L71.888,220.3666 L77.744,220.6565 L83.6,220.6992 " fill="none" style="stroke: #000000; stroke-width: 1.0;"/><polygon fill="#000000" points="88.7,220.6992,88.6057,220.4871,86.8409,219.7662,85.1257,219.1571,83.3758,218.4698,81.4961,217.4906,79.7,216.6992,79.6205,216.6197,80.4086,217.4078,81.3383,218.3376,82.0739,219.0731,83.0563,220.0556,83.7,220.6992,83.7541,220.7533,82.9915,221.5908,82.1621,222.3614,81.2191,223.0184,80.6736,224.0728,79.7,224.6992,79.7462,224.8031,81.4428,223.7706,83.2698,223.0314,85.1333,222.3741,86.9022,221.5043,88.7,220.6992" style="stroke: #000000; stroke-width: 1.0;"/><path d="M137.23,220.6992 L137.23,220.7604 L143.126,220.4234 L149.022,220.4875 L154.918,220.9942 L160.814,220.6269 L166.71,220.6992 " fill="none" style="stroke: #000000; stroke-width: 1.0;"/><polygon fill="#000000" points="171.84,220.6992,171.9219,220.8834,169.989,219.7845,168.2177,219.0491,166.4066,218.224,164.5476,217.2914,162.84,216.6992,162.7938,216.6531,163.6346,217.4938,164.3338,218.1931,165.0878,218.947,166.2012,220.0604,166.84,220.6992,166.6889,220.5481,165.9347,221.3939,165.1454,222.2047,164.4156,223.0749,163.7581,224.0173,162.84,224.6992,162.9408,224.9261,164.6595,223.9432,166.3888,222.984,168.3043,222.4439,170.0185,221.4508,171.84,220.6992" style="stroke: #000000; stroke-width: 1.0;"/><path d="M242.27,220.6992 L242.27,220.9863 L248.212,221.0089 L254.154,220.7397 L260.096,220.4984 L266.038,220.9208 L271.98,220.6992 " fill="none" style="stroke: #000000; stroke-width: 1.0;"/><polygon fill="#000000" points="277.16,220.6992,277.1818,220.7484,275.3597,219.8986,273.4955,218.9541,271.8423,218.4844,269.9539,217.4856,268.16,216.6992,268.3074,216.8467,268.8503,217.3896,269.718,218.2573,270.4781,219.0173,271.5251,220.0643,272.16,220.6992,272.2253,220.7645,271.2455,221.3847,270.4492,222.1884,269.5843,222.9236,269.0311,223.9703,268.16,224.6992,268.0764,224.5111,270.0214,224.0374,271.8438,223.2878,273.494,222.1506,275.3927,221.5728,277.16,220.6992" style="stroke: #000000; stroke-width: 1.0;"/><path d="M380.7,220.6992 L380.7,220.4844 L386.562,220.4198 L392.424,221.0106 L398.286,220.4481 L404.148,220.7315 L410.01,220.6992 " fill="none" style="stroke: #000000; stroke-width: 1.0;"/><polygon fill="#000000" points="415.12,220.6992,415.0605,220.5654,413.3389,219.9418,411.5862,219.2481,409.625,218.0856,407.8914,217.4349,406.12,216.6992,406.1889,216.7681,406.9808,217.56,407.7575,218.3367,408.4866,219.0658,409.382,219.9613,410.12,220.6992,410.0251,220.6043,409.2405,221.4197,408.4592,222.2385,407.7708,223.15,406.9188,223.8981,406.12,224.6992,406.1973,224.8732,407.994,224.0656,409.7945,223.2669,411.5429,222.3508,413.2898,221.4313,415.12,220.6992" style="stroke: #000000; stroke-width: 1.0;"/><path d="M548.74,220.6992 L548.74,220.6731 L554.646,220.6028 L560.552,220.6189 L566.458,220.6375 L572.364,220.8154 L578.27,220.6992 " fill="none" style="stroke: #000000; stroke-width: 1.0;"/><polygon fill="#000000" points="583.42,220.6992,583.5098,220.9013,581.6961,220.0705,579.878,219.2297,578.0937,218.4651,576.1852,217.4208,574.42,216.6992,574.3165,216.5958,575.3734,217.6526,575.9692,218.2484,576.9954,219.2746,577.4947,219.7739,578.42,220.6992,578.5518,220.831,577.5104,221.3897,576.884,222.3632,575.9186,222.9978,575.2185,223.8977,574.42,224.6992,574.3223,224.4793,576.1642,223.7737,578.075,223.223,579.7197,222.0735,581.703,221.6861,583.42,220.6992" style="stroke: #000000; stroke-width: 1.0;"/><path d="M482,273.2692 L481.1879,273.2692 L482.2665,283.3205 L481.921,293.3717 L481.8567,303.423 L482.3374,313.4742 L482.7739,323.5255 L481.9917,333.5767 L482.4518,343.628 L482,353.6792 " fill="none" style="stroke: #000000; stroke-width: 1.0;"/><polygon fill="#000000" points="482,358.9592,482.0348,358.9747,482.9338,357.2187,483.4972,355.3135,484.2589,353.4965,485.3476,351.8248,486,349.9592,486.1625,350.1218,485.1962,350.7554,484.4913,351.6505,483.5464,352.3056,482.7584,353.1176,482,353.9592,482.139,354.0982,481.3744,353.3336,480.507,352.4662,479.5738,351.533,478.7434,350.7027,478,349.9592,478.1235,350.0141,478.9757,351.8373,479.5703,353.546,480.4528,355.3827,481.2469,357.18,482,358.9592" style="stroke: #000000; stroke-width: 1.0;"/><path d="M482,128.6892 L481.9746,128.6892 L481.8815,136.5892 L482.026,144.4892 L482.034,152.3892 L482.2705,160.2892 L482,168.1892 " fill="none" style="stroke: #000000; stroke-width: 1.0;"/><polygon fill="none" points="475,128.3292,474.8909,128.291,476.5533,124.3829,477.6006,120.2594,479.2698,116.3536,480.6201,112.3363,482,108.3292,481.7916,108.2563,483.2847,112.2889,484.9751,116.3905,486.1537,120.313,487.7607,124.3855,489,128.3292,489,128.2716,486.2,128.3293,483.4,128.1315,480.6,128.437,477.8,128.222,475,128.3292" style="stroke: #000000; stroke-width: 1.0;"/><path d="M431.22,385.6992 L431.22,385.5355 L434.238,385.504 L437.256,385.9522 L440.274,385.615 L443.292,385.6771 L446.31,385.6992 " fill="none" style="stroke: #000000; stroke-width: 1.0; stroke-dasharray: 1.0,3.0;"/><polygon fill="none" points="431.18,392.6992,431.1911,392.731,427.2481,391.4937,423.1028,389.6785,419.2055,388.572,415.232,387.2479,411.18,385.6992,411.238,385.8648,415.2307,384.4441,419.1727,382.8784,423.1774,381.4919,427.2385,380.2662,431.18,378.6992,431.209,378.6992,431.1933,381.4992,431.1924,384.2992,431.1624,387.0992,431.3788,389.8992,431.18,392.6992" style="stroke: #000000; stroke-width: 1.0;"/><path d="M482,412.4792 L481.5719,412.4792 L482.06,422.4892 L481.2132,432.4992 L481.0738,442.5092 L481.1717,452.5192 L482.4821,462.5292 L482.7729,472.5392 L482.0975,482.5492 L482,492.5592 " fill="none" style="stroke: #000000; stroke-width: 1.0;"/><polygon fill="#000000" points="482,497.8392,481.9359,497.8107,482.8832,496.0762,483.4143,494.1567,484.4153,492.446,485.2756,490.6728,486,488.8392,485.8909,488.7301,485.347,489.7862,484.3118,490.351,483.5021,491.1413,482.8372,492.0764,482,492.8392,482.1378,492.977,481.1788,492.0181,480.4289,491.2681,479.7561,490.5953,478.773,489.6122,478,488.8392,477.9211,488.8042,478.7687,490.6253,479.4228,492.3605,480.3632,494.2228,481.2675,496.0692,482,497.8392" style="stroke: #000000; stroke-width: 1.0;"/><path d="M482,538.5592 L481.5864,538.5592 L481.9338,549.4192 L482.0464,560.2792 L482.9774,571.1392 L482.7778,581.9992 L482,592.8592 " fill="none" style="stroke: #000000; stroke-width: 1.0;"/><polygon fill="#000000" points="482,597.8792,481.9307,597.8484,482.9878,596.1627,483.4979,594.2339,484.3544,592.459,485.334,590.7388,486,588.8792,486.0743,588.9535,485.1583,589.6375,484.4284,590.5076,483.4515,591.1308,482.6994,591.9786,482,592.8792,482.0135,592.8927,481.2975,592.1768,480.3888,591.2681,479.7585,590.6377,478.8338,589.7131,478,588.8792,477.9369,588.8512,478.675,590.6237,479.5286,592.4475,480.1961,594.1886,481.3696,596.1546,482,597.8792" style="stroke: #000000; stroke-width: 1.0;"/></g></svg>