<?xml version="1.0" encoding="UTF-8" standalone="no"?><svg xmlns="http://www.w3.org/2000/svg" xmlns:xlink="http://www.w3.org/1999/xlink" contentScriptType="application/ecmascript" contentStyleType="text/css" height="644px" preserveAspectRatio="none" style="width:680px;height:644px;" version="1.1" viewBox="0 0 680 644" width="680px" zoomAndPan="magnify"><defs><filter height="300%" id="f6qg3jf" width="300%" x="-1" y="-1"><feGaussianBlur result="blurOut" stdDeviation="2.0"/><feColorMatrix in="blurOut" result="blurOut2" type="matrix" values="0 0 0 0 0 0 0 0 0 0 0 0 0 0 0 0 0 0 .4 0"/><feOffset dx="4.0" dy="4.0" in="blurOut2" result="blurOut3"/><feBlend in="SourceGraphic" in2="blurOut3" mode="normal"/></filter></defs><g><text fill="#000000" font-family="sans-serif" font-size="18" lengthAdjust="spacingAndGlyphs" textLength="155" x="267" y="16.708">API基本クラス構成</text><!--class Server--><polygon fill="#FEFECE" filter="url(#f6qg3jf)" points="6,192.4531,6,192.3308,15.6,192.1833,25.2,192.0097,34.8,192.2468,44.4,192.3425,54,192.4531,54.0926,192.4531,54.7138,203.0078,54.2165,213.5625,53.9077,224.1172,54.1492,234.6719,54,245.2266,54,244.9308,44.4,245.2963,34.8,244.8804,25.2,244.5406,15.6,244.61,6,245.2266,5.4462,245.2266,6.594,234.6719,5.8509,224.1172,6.5733,213.5625,6.0197,203.0078,6,192.4531" style="stroke: #A80036; stroke-width: 1.5;"/><text fill="#000000" font-family="sans-serif" font-size="12" lengthAdjust="spacingAndGlyphs" textLength="40" x="10" y="208.5918">Server</text><path d="M7,216.4219 L7,215.6585 L16.2,216.6116 L25.4,215.9202 L34.6,217.117 L43.8,216.6275 L53,216.4219 " fill="#FEFECE" style="stroke: #A80036; stroke-width: 1.5;"/><path d="M7,224.4219 L7,223.8015 L16.2,224.5904 L25.4,224.2491 L34.6,223.8306 L43.8,224.8675 L53,224.4219 " fill="#FEFECE" style="stroke: #A80036; stroke-width: 1.5;"/><text fill="#000000" font-family="sans-serif" font-size="11" lengthAdjust="spacingAndGlyphs" textLength="36" x="12" y="238.6323">+run()</text><!--class Runner--><polygon fill="#FEFECE" filter="url(#f6qg3jf)" points="89.5,192.4531,89.5,192.5684,99.7,192.8356,109.9,192.5267,120.1,192.8513,130.3,192.2825,140.5,192.4531,140.0028,192.4531,140.0101,203.0078,140.5758,213.5625,139.9306,224.1172,140.7426,234.6719,140.5,245.2266,140.5,244.5459,130.3,244.7495,120.1,245.1945,109.9,245.6543,99.7,244.5487,89.5,245.2266,89.6374,245.2266,89.3548,234.6719,89.5028,224.1172,90.1766,213.5625,89.5321,203.0078,89.5,192.4531" style="stroke: #A80036; stroke-width: 1.5;"/><text fill="#000000" font-family="sans-serif" font-size="12" lengthAdjust="spacingAndGlyphs" textLength="45" x="92.5" y="208.5918">Runner</text><path d="M90.5,216.4219 L90.5,215.9911 L100.3,216.3896 L110.1,216.6767 L119.9,217.2157 L129.7,216.7998 L139.5,216.4219 " fill="#FEFECE" style="stroke: #A80036; stroke-width: 1.5;"/><path d="M90.5,224.4219 L90.5,225.2571 L100.3,224.6675 L110.1,223.4413 L119.9,224.8473 L129.7,223.5519 L139.5,224.4219 " fill="#FEFECE" style="stroke: #A80036; stroke-width: 1.5;"/><text fill="#000000" font-family="sans-serif" font-size="11" lengthAdjust="spacingAndGlyphs" textLength="36" x="95.5" y="238.6323">+run()</text><!--class Application--><polygon fill="#FEFECE" filter="url(#f6qg3jf)" points="175.5,192.4531,175.5,192.9807,184.875,193.1287,194.25,193.0997,203.625,192.3895,213,191.7275,222.375,192.7877,231.75,192.425,241.125,192.7565,250.5,192.4531,250.3678,192.4531,250.4024,203.0078,249.9295,213.5625,250.4212,224.1172,249.8438,234.6719,250.5,245.2266,250.5,245.7971,241.125,244.6338,231.75,244.6171,222.375,245.4181,213,245.5843,203.625,245.2155,194.25,244.9914,184.875,244.8376,175.5,245.2266,175.4527,245.2266,176.0739,234.6719,175.7338,224.1172,175.3128,213.5625,175.9831,203.0078,175.5,192.4531" style="stroke: #A80036; stroke-width: 1.5;"/><text fill="#000000" font-family="sans-serif" font-size="12" lengthAdjust="spacingAndGlyphs" textLength="69" x="178.5" y="208.5918">Application</text><path d="M176.5,216.4219 L176.5,217.0695 L186.9286,215.6705 L197.3571,217.4049 L207.7857,216.814 L218.2143,217.3797 L228.6429,215.8099 L239.0714,216.598 L249.5,216.4219 " fill="#FEFECE" style="stroke: #A80036; stroke-width: 1.5;"/><path d="M176.5,224.4219 L176.5,225.0636 L186.9286,224.9322 L197.3571,223.4943 L207.7857,224.1754 L218.2143,224.4651 L228.6429,224.2911 L239.0714,223.8846 L249.5,224.4219 " fill="#FEFECE" style="stroke: #A80036; stroke-width: 1.5;"/><text fill="#000000" font-family="sans-serif" font-size="11" lengthAdjust="spacingAndGlyphs" textLength="55" x="181.5" y="238.6323">+handle()</text><!--class ControllerFactory--><polygon fill="#FEFECE" filter="url(#f6qg3jf)" points="285.5,192.4531,285.5,192.6217,295.7727,192.4511,306.0455,193.0318,316.3182,192.8142,326.5909,191.9068,336.8636,192.0822,347.1364,192.7537,357.4091,193.1012,367.6818,192.3642,377.9545,192.3452,388.2273,191.8291,398.5,192.4531,398.7727,192.4531,397.8121,203.0078,399.1931,213.5625,397.7969,224.1172,398.2012,234.6719,398.5,245.2266,398.5,245.3819,388.2273,245.251,377.9545,244.8315,367.6818,244.8178,357.4091,244.7897,347.1364,244.8005,336.8636,245.7247,326.5909,244.6155,316.3182,244.844,306.0455,244.8492,295.7727,245.0778,285.5,245.2266,286.0908,245.2266,285.8865,234.6719,285.2937,224.1172,285.9411,213.5625,285.6756,203.0078,285.5,192.4531" style="stroke: #A80036; stroke-width: 1.5;"/><text fill="#000000" font-family="sans-serif" font-size="12" lengthAdjust="spacingAndGlyphs" textLength="107" x="288.5" y="208.5918">ControllerFactory</text><path d="M286.5,216.4219 L286.5,216.7432 L296.5909,216.9599 L306.6818,215.5674 L316.7727,216.8465 L326.8636,217.3866 L336.9545,216.1705 L347.0455,216.246 L357.1364,216.161 L367.2273,216.0716 L377.3182,216.7674 L387.4091,215.4988 L397.5,216.4219 " fill="#FEFECE" style="stroke: #A80036; stroke-width: 1.5;"/><path d="M286.5,224.4219 L286.5,224.5144 L296.5909,225.2821 L306.6818,225.4078 L316.7727,223.8672 L326.8636,223.7702 L336.9545,223.7889 L347.0455,223.6745 L357.1364,223.4648 L367.2273,225.2581 L377.3182,223.5047 L387.4091,224.7623 L397.5,224.4219 " fill="#FEFECE" style="stroke: #A80036; stroke-width: 1.5;"/><text fill="#000000" font-family="sans-serif" font-size="11" lengthAdjust="spacingAndGlyphs" textLength="53" x="291.5" y="238.6323">+invoke()</text><!--class Admin\XxxsController--><polygon fill="#FEFECE" filter="url(#f6qg3jf)" points="433.5,166.9531,433.5,167.4817,443.1429,166.6097,452.7857,167.3162,462.4286,167.2397,472.0714,166.3409,481.7143,167.1831,491.3571,166.5837,501,167.0327,510.6429,167.278,520.2857,167.0017,529.9286,166.5385,539.5714,167.6566,549.2143,167.0314,558.8571,166.805,568.5,166.9531,568.8328,166.9531,568.512,177.3523,569.1878,187.7516,568.8597,198.1508,568.9895,208.55,569.1632,218.9492,568.8969,229.3484,569.0112,239.7477,567.8346,250.1469,569.1465,260.5461,568.5,270.9453,568.5,271.6473,558.8571,271.1076,549.2143,271.4805,539.5714,271.1358,529.9286,270.3963,520.2857,270.3899,510.6429,271.2947,501,271.4541,491.3571,271.051,481.7143,271.6769,472.0714,270.5938,462.4286,270.8178,452.7857,270.5138,443.1429,271.5546,433.5,270.9453,432.8625,270.9453,433.4854,260.5461,433.8382,250.1469,433.3941,239.7477,434.0478,229.3484,433.0795,218.9492,433.7084,208.55,434.1015,198.1508,434.1929,187.7516,433.5383,177.3523,433.5,166.9531" style="stroke: #A80036; stroke-width: 1.5;"/><text fill="#000000" font-family="sans-serif" font-size="12" lengthAdjust="spacingAndGlyphs" textLength="129" x="436.5" y="183.0918">Admin\XxxsController</text><path d="M434.5,190.9219 L434.5,190.5711 L444.7308,190.0141 L454.9615,190.4295 L465.1923,190.5274 L475.4231,190.6847 L485.6538,191.8603 L495.8846,190.2521 L506.1154,190.6888 L516.3462,190.7802 L526.5769,190.6309 L536.8077,190.375 L547.0385,190.7189 L557.2692,190.9058 L567.5,190.9219 " fill="#FEFECE" style="stroke: #A80036; stroke-width: 1.5;"/><path d="M434.5,198.9219 L434.5,198.1217 L444.7308,199.8494 L454.9615,198.8793 L465.1923,197.9953 L475.4231,198.9813 L485.6538,198.3171 L495.8846,198.9404 L506.1154,198.6108 L516.3462,199.346 L526.5769,198.8103 L536.8077,198.7093 L547.0385,198.3555 L557.2692,198.4368 L567.5,198.9219 " fill="#FEFECE" style="stroke: #A80036; stroke-width: 1.5;"/><text fill="#000000" font-family="sans-serif" font-size="11" lengthAdjust="spacingAndGlyphs" textLength="105" x="439.5" y="213.1323">+一覧データ取得：()</text><text fill="#000000" font-family="sans-serif" font-size="11" lengthAdjust="spacingAndGlyphs" textLength="94" x="439.5" y="225.937">+単一データ取得()</text><text fill="#000000" font-family="sans-serif" font-size="11" lengthAdjust="spacingAndGlyphs" textLength="61" x="439.5" y="238.7417">+新規追加()</text><text fill="#000000" font-family="sans-serif" font-size="11" lengthAdjust="spacingAndGlyphs" textLength="39" x="439.5" y="251.5464">+編集()</text><text fill="#000000" font-family="sans-serif" font-size="11" lengthAdjust="spacingAndGlyphs" textLength="39" x="439.5" y="264.3511">+削除()</text><!--class BcApiController--><polygon fill="#FEFECE" filter="url(#f6qg3jf)" points="418,28.9531,418,29.5729,427.7647,28.9412,437.5294,28.3029,447.2941,28.6474,457.0588,29.1528,466.8235,28.3204,476.5882,28.5121,486.3529,28.3783,496.1176,28.926,505.8824,28.6645,515.6471,29.1504,525.4118,28.5169,535.1765,28.7561,544.9412,29.408,554.7059,29.4044,564.4706,28.4687,574.2353,28.9516,584,28.9531,584.08,28.9531,584.4892,38.751,583.5229,48.5488,584.0914,58.3467,583.7987,68.1445,583.4607,77.9424,583.6144,87.7402,584.4406,97.5381,584,107.3359,584,107.5622,574.2353,106.6716,564.4706,107.8572,554.7059,106.9522,544.9412,107.77,535.1765,107.6609,525.4118,107.9822,515.6471,106.6987,505.8824,107.8,496.1176,107.6551,486.3529,107.1095,476.5882,107.4468,466.8235,107.3628,457.0588,106.8906,447.2941,107.3516,437.5294,107.3433,427.7647,107.5398,418,107.3359,418.0663,107.3359,418.5039,97.5381,418.2547,87.7402,418.5216,77.9424,417.9131,68.1445,417.542,58.3467,418.7117,48.5488,417.2702,38.751,418,28.9531" style="stroke: #A80036; stroke-width: 1.5;"/><text fill="#000000" font-family="sans-serif" font-size="12" lengthAdjust="spacingAndGlyphs" textLength="95" x="453.5" y="45.0918">BcApiController</text><path d="M419,52.9219 L419,52.4829 L429.25,52.7343 L439.5,53.8382 L449.75,52.1116 L460,53.2808 L470.25,52.5466 L480.5,53.1477 L490.75,53.1593 L501,52.8086 L511.25,53.5319 L521.5,52.7529 L531.75,53.4076 L542,53.6971 L552.25,53.0144 L562.5,53.5306 L572.75,52.3204 L583,52.9219 " fill="#FEFECE" style="stroke: #A80036; stroke-width: 1.5;"/><text fill="#000000" font-family="sans-serif" font-size="11" lengthAdjust="spacingAndGlyphs" textLength="154" x="424" y="67.1323">+AuthenticationComponent</text><path d="M419,73.7266 L419,72.8779 L429.25,74.5987 L439.5,74.4582 L449.75,73.8623 L460,74.2582 L470.25,73.0688 L480.5,74.2081 L490.75,73.6919 L501,74.4238 L511.25,74.7194 L521.5,73.1939 L531.75,73.6997 L542,74.243 L552.25,74.6748 L562.5,73.3035 L572.75,73.4019 L583,73.7266 " fill="#FEFECE" style="stroke: #A80036; stroke-width: 1.5;"/><text fill="#000000" font-family="sans-serif" font-size="11" lengthAdjust="spacingAndGlyphs" textLength="87" x="424" y="87.937">+invokeAction()</text><text fill="#000000" font-family="sans-serif" font-size="11" lengthAdjust="spacingAndGlyphs" textLength="55" x="424" y="100.7417">+render()</text><!--class JsonView--><polygon fill="#FEFECE" filter="url(#f6qg3jf)" points="603.5,192.4531,603.5,192.8478,613.0714,192.8909,622.6429,192.3119,632.2143,192.638,641.7857,191.9719,651.3571,192.1419,660.9286,192.7463,670.5,192.4531,670.5882,192.4531,670.3635,203.0078,670.5631,213.5625,669.9055,224.1172,671.0141,234.6719,670.5,245.2266,670.5,244.9053,660.9286,245.0031,651.3571,245.1014,641.7857,245.0703,632.2143,245.2242,622.6429,244.828,613.0714,245.8537,603.5,245.2266,603.8657,245.2266,604.0814,234.6719,604.0007,224.1172,602.8767,213.5625,603.7978,203.0078,603.5,192.4531" style="stroke: #A80036; stroke-width: 1.5;"/><text fill="#000000" font-family="sans-serif" font-size="12" lengthAdjust="spacingAndGlyphs" textLength="54" x="610" y="208.5918">JsonView</text><path d="M604.5,216.4219 L604.5,215.6952 L613.7857,216.0888 L623.0714,216.2429 L632.3571,217.143 L641.6429,217.0878 L650.9286,216.1672 L660.2143,216.2284 L669.5,216.4219 " fill="#FEFECE" style="stroke: #A80036; stroke-width: 1.5;"/><path d="M604.5,224.4219 L604.5,224.0189 L613.7857,223.5148 L623.0714,224.238 L632.3571,225.2839 L641.6429,224.557 L650.9286,224.3463 L660.2143,224.1969 L669.5,224.4219 " fill="#FEFECE" style="stroke: #A80036; stroke-width: 1.5;"/><text fill="#000000" font-family="sans-serif" font-size="11" lengthAdjust="spacingAndGlyphs" textLength="55" x="609.5" y="238.6323">+render()</text><!--class XxxService--><polygon fill="#FEFECE" filter="url(#f6qg3jf)" points="465.5,356.4531,465.5,356.4409,475.6429,357.2012,485.7857,356.7688,495.9286,357.1735,506.0714,356.5383,516.2143,357.1043,526.3571,357.0047,536.5,356.4531,536.4409,356.4531,537.1834,367.0078,536.1878,377.5625,535.9684,388.1172,536.7372,398.6719,536.5,409.2266,536.5,408.931,526.3571,409.2632,516.2143,409.3014,506.0714,408.7456,495.9286,409.5444,485.7857,409.4953,475.6429,409.6408,465.5,409.2266,465.2893,409.2266,465.5123,398.6719,466.0849,388.1172,465.9646,377.5625,464.9462,367.0078,465.5,356.4531" style="stroke: #A80036; stroke-width: 1.5;"/><text fill="#000000" font-family="sans-serif" font-size="12" lengthAdjust="spacingAndGlyphs" textLength="64" x="469" y="372.5918">XxxService</text><path d="M466.5,380.4219 L466.5,380.1192 L476.3571,379.841 L486.2143,380.6587 L496.0714,379.7937 L505.9286,379.5164 L515.7857,379.9202 L525.6429,381.3567 L535.5,380.4219 " fill="#FEFECE" style="stroke: #A80036; stroke-width: 1.5;"/><text fill="#000000" font-family="sans-serif" font-size="11" lengthAdjust="spacingAndGlyphs" textLength="59" x="471.5" y="394.6323">+XxxTable</text><path d="M466.5,401.2266 L466.5,401.1895 L476.3571,401.3103 L486.2143,401.4508 L496.0714,401.712 L505.9286,400.7348 L515.7857,401.7725 L525.6429,401.4301 L535.5,401.2266 " fill="#FEFECE" style="stroke: #A80036; stroke-width: 1.5;"/><!--class XxxServiceInterface--><polygon fill="#FEFECE" filter="url(#f6qg3jf)" points="265.5,330.9531,265.5,330.5736,275.2059,330.6926,284.9118,331.4183,294.6176,330.4146,304.3235,331.2955,314.0294,331.0214,323.7353,330.7137,333.4412,330.6122,343.1471,331.5777,352.8529,331.3133,362.5588,331.1533,372.2647,330.2104,381.9706,331.0642,391.6765,331.0747,401.3824,330.6749,411.0882,331.152,420.7941,330.2391,430.5,330.9531,430.0728,330.9531,430.8203,341.3523,429.7536,351.7516,430.1734,362.1508,430.4694,372.55,430.0719,382.9492,430.4853,393.3484,430.9792,403.7477,431.1281,414.1469,431.104,424.5461,430.5,434.9453,430.5,435.2958,420.7941,434.312,411.0882,435.2606,401.3824,435.542,391.6765,434.8011,381.9706,435.247,372.2647,435.6253,362.5588,434.3147,352.8529,434.9598,343.1471,435.6651,333.4412,435.0877,323.7353,434.845,314.0294,435.5553,304.3235,434.6116,294.6176,435.0279,284.9118,435.6924,275.2059,435.4413,265.5,434.9453,265.034,434.9453,265.3082,424.5461,265.3043,414.1469,265.3389,403.7477,266.0771,393.3484,266.1173,382.9492,266.0803,372.55,264.831,362.1508,265.5118,351.7516,265.3172,341.3523,265.5,330.9531" style="stroke: #A80036; stroke-width: 1.5;"/><text fill="#000000" font-family="sans-serif" font-size="12" lengthAdjust="spacingAndGlyphs" textLength="120" x="288" y="347.0918">XxxServiceInterface</text><path d="M266.5,354.9219 L266.5,354.0213 L276.6875,354.2413 L286.875,355.218 L297.0625,353.9901 L307.25,354.5779 L317.4375,355.1686 L327.625,355.4269 L337.8125,355.2344 L348,354.6652 L358.1875,355.6322 L368.375,355.7792 L378.5625,355.6584 L388.75,355.3026 L398.9375,355.8811 L409.125,355.6851 L419.3125,354.0244 L429.5,354.9219 " fill="#FEFECE" style="stroke: #A80036; stroke-width: 1.5;"/><path d="M266.5,362.9219 L266.5,362.2249 L276.6875,362.5621 L286.875,363.4112 L297.0625,363.0718 L307.25,362.2146 L317.4375,361.9729 L327.625,362.5142 L337.8125,363.1193 L348,363.8989 L358.1875,363.0795 L368.375,362.9351 L378.5625,363.2555 L388.75,362.02 L398.9375,363.4495 L409.125,362.9857 L419.3125,363.4555 L429.5,362.9219 " fill="#FEFECE" style="stroke: #A80036; stroke-width: 1.5;"/><text fill="#000000" font-family="sans-serif" font-size="11" lengthAdjust="spacingAndGlyphs" textLength="86" x="271.5" y="377.1323">+作成：create()</text><text fill="#000000" font-family="sans-serif" font-size="11" lengthAdjust="spacingAndGlyphs" textLength="89" x="271.5" y="389.937">+編集：update()</text><text fill="#000000" font-family="sans-serif" font-size="11" lengthAdjust="spacingAndGlyphs" textLength="123" x="271.5" y="402.7417">+単一データ取得：get()</text><text fill="#000000" font-family="sans-serif" font-size="11" lengthAdjust="spacingAndGlyphs" textLength="153" x="271.5" y="415.5464">+一覧データ取得：getIndex()</text><text fill="#000000" font-family="sans-serif" font-size="11" lengthAdjust="spacingAndGlyphs" textLength="147" x="271.5" y="428.3511">+初期データ取得：getNew()</text><!--class XxxTable--><polygon fill="#FEFECE" filter="url(#f6qg3jf)" points="471.5,494.9531,471.5,494.6315,481.3333,494.9069,491.1667,494.4392,501,494.853,510.8333,494.4981,520.6667,494.9253,530.5,494.9531,530.4033,494.9531,530.68,502.9469,530.6638,510.9406,530.3302,518.9344,530.5279,526.9281,530.5,534.9219,530.5,535.4276,520.6667,534.565,510.8333,535.0714,501,535.1293,491.1667,535.1364,481.3333,534.2751,471.5,534.9219,471.5269,534.9219,471.5972,526.9281,471.6589,518.9344,471.4575,510.9406,471.281,502.9469,471.5,494.9531" style="stroke: #A80036; stroke-width: 1.5;"/><text fill="#000000" font-family="sans-serif" font-size="12" lengthAdjust="spacingAndGlyphs" textLength="53" x="474.5" y="511.0918">XxxTable</text><path d="M472.5,518.9219 L472.5,518.9159 L482,519.9075 L491.5,517.9895 L501,518.5475 L510.5,518.1048 L520,519.2875 L529.5,518.9219 " fill="#FEFECE" style="stroke: #A80036; stroke-width: 1.5;"/><path d="M472.5,526.9219 L472.5,527.7482 L482,527.6833 L491.5,526.3388 L501,526.1995 L510.5,526.8852 L520,525.9593 L529.5,526.9219 " fill="#FEFECE" style="stroke: #A80036; stroke-width: 1.5;"/><!--class Xxx--><polygon fill="#FEFECE" filter="url(#f6qg3jf)" points="488.5,594.9531,488.5,594.9257,493.5,594.7145,498.5,594.7988,503.5,594.8096,508.5,594.9887,513.5,594.9531,513.6493,594.9531,513.619,602.9469,513.5989,610.9406,513.4465,618.9344,513.4164,626.9281,513.5,634.9219,513.5,635.0338,508.5,634.716,503.5,634.8737,498.5,634.8061,493.5,634.8447,488.5,634.9219,488.6081,634.9219,488.7316,626.9281,488.387,618.9344,488.5949,610.9406,488.5781,602.9469,488.5,594.9531" style="stroke: #A80036; stroke-width: 1.5;"/><text fill="#000000" font-family="sans-serif" font-size="12" lengthAdjust="spacingAndGlyphs" textLength="19" x="491.5" y="611.0918">Xxx</text><path d="M489.5,618.9219 L489.5,619.2457 L494.1,618.7726 L498.7,618.8804 L503.3,619.1137 L507.9,618.6288 L512.5,618.9219 " fill="#FEFECE" style="stroke: #A80036; stroke-width: 1.5;"/><path d="M489.5,626.9219 L489.5,626.7607 L494.1,626.7325 L498.7,626.9755 L503.3,626.9951 L507.9,626.6929 L512.5,626.9219 " fill="#FEFECE" style="stroke: #A80036; stroke-width: 1.5;"/><polygon fill="#FBFB77" filter="url(#f6qg3jf)" points="354.5,602.4531,354.4919,602.4531,354.5464,607.4797,354.2862,612.5063,354.6454,617.5328,354.6136,622.5594,354.5,627.5859,354.5,628.2498,364.4,627.1451,374.3,627.8216,384.2,628.0555,394.1,627.2147,404,627.4994,413.9,627.9659,423.8,627.8569,433.7,628.0133,443.6,627.9699,453.5,627.5859,453.466,627.5859,453.2828,624.5594,453.5771,621.5328,453.6457,618.5063,453.5309,615.4797,453.5,612.4531,453.5742,612.5274,451.3788,610.332,449.6628,608.6159,447.3353,606.2885,445.4911,604.4442,443.5,602.4531,443.5,602.2675,433.6111,603.1061,423.7222,603.0261,413.8333,603.1417,403.9444,602.1417,394.0556,602.2685,384.1667,603.148,374.2778,602.6545,364.3889,602.7625,354.5,602.4531" style="stroke: #A80036; stroke-width: 1.0;"/><polygon fill="#FBFB77" points="354.5,602.4531,354.6911,602.4531,354.4184,607.4797,354.3153,612.5063,354.3893,617.5328,354.7443,622.5594,354.5,627.5859,354.5,626.9524,364.4,627.0572,374.3,628.3353,384.2,627.8167,394.1,627.4193,404,627.6291,413.9,627.3661,423.8,628.2218,433.7,627.4829,443.6,627.3149,453.5,627.5859,453.4372,627.5859,453.5088,626.1594,453.4161,624.7328,453.3107,623.3063,453.5935,621.8797,453.5,620.4531,453.5224,620.595,460.4716,619.2746,467.4901,618.3937,474.4512,617.148,481.4727,616.2859,488.42,614.9531,488.4048,614.7414,481.4325,614.4036,474.444,613.842,467.4794,613.6127,460.4749,612.8258,453.5,612.4531,453.5818,612.5349,451.6414,610.5946,449.5248,608.4779,447.377,606.3302,445.5241,604.4772,443.5,602.4531,443.5,602.1958,433.6111,602.9805,423.7222,602.6913,413.8333,601.8806,403.9444,602.06,394.0556,602.3523,384.1667,601.9137,374.2778,602.1878,364.3889,602.0528,354.5,602.4531" style="stroke: #A80036; stroke-width: 1.0;"/><path d="M443.5,602.4531 L443.6745,602.4531 L443.362,604.4531 L443.1937,606.4531 L443.3092,608.4531 L443.182,610.4531 L443.5,612.4531 " fill="#FBFB77" style="stroke: #A80036; stroke-width: 1.0;"/><path d="M453.5,612.4531 L453.5,612.4028 L451.5,612.3069 L449.5,612.1393 L447.5,612.7281 L445.5,612.2077 L443.5,612.4531 " fill="#FBFB77" style="stroke: #A80036; stroke-width: 1.0;"/><text fill="#000000" font-family="sans-serif" font-size="13" lengthAdjust="spacingAndGlyphs" textLength="78" x="360.5" y="619.52">エンティティ</text><path d="M54.24,218.9531 L54.24,218.7153 L60.222,218.7433 L66.204,218.9785 L72.186,219.2769 L78.168,219.1505 L84.15,218.9531 " fill="none" style="stroke: #000000; stroke-width: 1.0;"/><polygon fill="#000000" points="89.37,218.9531,89.4621,219.1605,87.6245,218.2759,85.6767,217.1432,84.0187,216.6627,82.2283,215.8844,80.37,214.9531,80.1938,214.7769,81.2233,215.8064,82.0494,216.6325,82.7569,217.34,83.6304,218.2135,84.37,218.9531,84.2654,218.8486,83.4046,219.5877,82.9021,220.6852,82.1101,221.4932,81.3421,222.3252,80.37,222.9531,80.3482,222.9041,82.2393,222.3091,83.965,221.3419,85.7619,220.5348,87.5883,219.7943,89.37,218.9531" style="stroke: #000000; stroke-width: 1.0;"/><path d="M140.65,218.9531 L140.65,219.1269 L146.57,219.2371 L152.49,219.1344 L158.41,219.1588 L164.33,218.7999 L170.25,218.9531 " fill="none" style="stroke: #000000; stroke-width: 1.0;"/><polygon fill="#000000" points="175.41,218.9531,175.4153,218.9651,173.5752,218.0748,171.9089,217.5757,170.0152,216.5649,168.1595,215.6396,166.41,214.9531,166.4906,215.0338,167.3477,215.8908,168.1783,216.7214,168.6946,217.2377,169.5413,218.0845,170.41,218.9531,170.3218,218.8649,169.7334,219.8766,168.7336,220.4767,168.1686,221.5117,167.1155,222.0586,166.41,222.9531,166.4772,223.1042,168.2717,222.292,170.0551,221.4546,171.8146,220.5636,173.641,219.8229,175.41,218.9531" style="stroke: #000000; stroke-width: 1.0;"/><path d="M250.54,218.9531 L250.54,219.2062 L256.442,218.7551 L262.344,219.091 L268.246,218.9703 L274.148,218.6847 L280.05,218.9531 " fill="none" style="stroke: #000000; stroke-width: 1.0;"/><polygon fill="#000000" points="285.2,218.9531,285.1446,218.8286,283.317,217.9664,281.6052,217.3648,279.8053,216.5651,277.9098,215.5502,276.2,214.9531,276.3392,215.0923,276.8895,215.6426,277.9681,216.7213,278.6751,217.4282,279.4652,218.2183,280.2,218.9531,280.2661,219.0192,279.5259,219.879,278.5926,220.5457,277.678,221.2311,276.8445,221.9977,276.2,222.9531,276.1911,222.9331,277.9436,222.0263,279.8387,221.4402,281.6976,220.7727,283.4168,219.7909,285.2,218.9531" style="stroke: #000000; stroke-width: 1.0;"/><path d="M398.52,218.9531 L398.52,218.8825 L404.452,219.1869 L410.384,219.0354 L416.316,218.8718 L422.248,218.7353 L428.18,218.9531 " fill="none" style="stroke: #000000; stroke-width: 1.0;"/><polygon fill="#000000" points="433.35,218.9531,433.3903,219.0439,431.478,217.9911,429.7895,217.442,427.915,216.4743,426.2499,215.9778,424.35,214.9531,424.2672,214.8704,425.2253,215.8284,426.1018,216.7049,426.7553,217.3585,427.5011,218.1042,428.35,218.9531,428.3496,218.9528,427.4129,219.616,426.6959,220.499,425.9111,221.3142,425.301,222.3042,424.35,222.9531,424.36,222.9757,426.1618,222.1797,428.0143,221.4979,429.8224,220.7161,431.5132,219.6702,433.35,218.9531" style="stroke: #000000; stroke-width: 1.0;"/><path d="M568.73,218.9531 L568.73,219.1446 L574.634,218.9951 L580.538,219.026 L586.442,218.7937 L592.346,218.8088 L598.25,218.9531 " fill="none" style="stroke: #000000; stroke-width: 1.0;"/><polygon fill="#000000" points="603.4,218.9531,603.4582,219.0841,601.6394,218.2417,599.8709,217.5126,597.9781,216.5039,596.1166,215.5656,594.4,214.9531,594.3392,214.8923,595.3668,215.9199,595.8375,216.3906,596.7926,217.3458,597.6474,218.2006,598.4,218.9531,598.5345,219.0876,597.6342,219.7873,596.6678,220.421,595.9772,221.3303,595.3328,222.2859,594.4,222.9531,594.403,222.9598,596.2278,222.2157,597.9674,221.2798,599.716,220.3641,601.5805,219.7092,603.4,218.9531" style="stroke: #000000; stroke-width: 1.0;"/><path d="M501,271.2131 L500.4152,271.2131 L500.5619,281.2019 L501.9258,291.1906 L501.3166,301.1794 L501.2858,311.1681 L501.7997,321.1569 L501.6476,331.1456 L500.8874,341.1344 L501,351.1231 " fill="none" style="stroke: #000000; stroke-width: 1.0;"/><polygon fill="#000000" points="501,356.3731,501.1402,356.4354,501.5936,354.4814,502.8246,352.873,503.518,351.0256,504.2583,349.199,505,347.3731,504.9508,347.324,504.2773,348.2504,503.3661,348.9392,502.5293,349.7024,501.6884,350.4615,501,351.3731,500.9052,351.2784,500.04,350.4132,499.5138,349.8869,498.5051,348.8782,497.9171,348.2902,497,347.3731,496.8218,347.2939,497.7805,349.1645,498.432,350.8985,499.1889,352.6793,499.9763,354.4737,501,356.3731" style="stroke: #000000; stroke-width: 1.0;"/><path d="M501,127.5531 L500.7691,127.5531 L501.0384,135.4011 L500.8918,143.2491 L500.853,151.0971 L500.8871,158.9451 L501,166.7931 " fill="none" style="stroke: #000000; stroke-width: 1.0;"/><polygon fill="none" points="494,127.3231,494.157,127.3781,495.1918,123.2503,496.6981,119.2875,498.3566,115.3779,499.7917,111.3902,501,107.3231,500.9579,107.3084,502.511,111.362,503.6389,115.2668,505.0635,119.2754,506.6693,123.3474,508,127.3231,508,127.4784,505.2,127.2809,502.4,127.2459,499.6,127.4387,496.8,127.3708,494,127.3231" style="stroke: #000000; stroke-width: 1.0;"/><path d="M451.03,382.9531 L451.03,383.0614 L453.892,383.0275 L456.754,383.1327 L459.616,383.0448 L462.478,383.0302 L465.34,382.9531 " fill="none" style="stroke: #000000; stroke-width: 1.0; stroke-dasharray: 1.0,3.0;"/><polygon fill="none" points="450.78,389.9531,450.7412,389.8424,446.8322,388.7022,442.8172,387.2593,438.8377,385.9179,434.846,384.5417,430.78,382.9531,430.7777,382.9467,434.7841,381.565,438.8329,380.3043,442.8001,378.8105,446.7133,377.1625,450.78,375.9531,450.7659,375.9531,450.6299,378.7531,450.8738,381.5531,450.9296,384.3531,450.6586,387.1531,450.78,389.9531" style="stroke: #000000; stroke-width: 1.0;"/><path d="M501,409.6331 L500.1937,409.6331 L501.9035,419.6044 L500.8558,429.5756 L500.9344,439.5469 L501.713,449.5181 L501.8167,459.4894 L500.8628,469.4606 L500.6234,479.4319 L501,489.4031 " fill="none" style="stroke: #000000; stroke-width: 1.0;"/><polygon fill="#000000" points="501,494.6631,500.8449,494.5942,501.6842,492.8116,502.5857,491.0568,503.1789,489.1649,504.0561,487.3992,505,485.6631,505.0692,485.7324,504.3232,486.5863,503.3264,487.1895,502.6211,488.0842,501.8061,488.8692,501,489.6631,500.8606,489.5237,500.1495,488.8126,499.5173,488.1804,498.5252,487.1884,497.8269,486.49,497,485.6631,496.8944,485.6162,497.6043,487.3761,498.6697,489.2941,499.5675,491.1376,500.344,492.9271,501,494.6631" style="stroke: #000000; stroke-width: 1.0;"/><path d="M501,535.3131 L500.2908,535.3131 L500.845,546.1731 L501.2516,557.0331 L501.8863,567.8931 L500.1135,578.7531 L501,589.6131 " fill="none" style="stroke: #000000; stroke-width: 1.0;"/><polygon fill="#000000" points="501,594.6331,501.183,594.7145,502.0277,592.9343,502.6598,591.0597,503.4394,589.2506,504.1662,587.4181,505,585.6331,505.03,585.6632,504.1183,586.3515,503.317,587.1501,502.4475,587.8806,501.8522,588.8854,501,589.6331,501.1718,589.805,500.1975,588.8306,499.571,588.2041,498.6644,587.2975,497.9603,586.5934,497,585.6331,496.9288,585.6015,497.6988,587.3881,498.5197,589.1974,499.4041,591.0349,500.1219,592.7984,501,594.6331" style="stroke: #000000; stroke-width: 1.0;"/></g></svg>