<?xml version="1.0" encoding="UTF-8" standalone="no"?><svg xmlns="http://www.w3.org/2000/svg" xmlns:xlink="http://www.w3.org/1999/xlink" contentScriptType="application/ecmascript" contentStyleType="text/css" height="786px" preserveAspectRatio="none" style="width:709px;height:786px;" version="1.1" viewBox="0 0 709 786" width="709px" zoomAndPan="magnify"><defs><filter height="300%" id="fkidrhh" width="300%" x="-1" y="-1"><feGaussianBlur result="blurOut" stdDeviation="2.0"/><feColorMatrix in="blurOut" result="blurOut2" type="matrix" values="0 0 0 0 0 0 0 0 0 0 0 0 0 0 0 0 0 0 .4 0"/><feOffset dx="4.0" dy="4.0" in="blurOut2" result="blurOut3"/><feBlend in="SourceGraphic" in2="blurOut3" mode="normal"/></filter></defs><g><text fill="#000000" font-family="sans-serif" font-size="18" lengthAdjust="spacingAndGlyphs" textLength="198" x="260.5" y="17.4023">管理画面基本クラス構成</text><!--class Server--><polygon fill="#FEFECE" filter="url(#fkidrhh)" points="6,333.1992,6,333.7477,15.6,333.0412,25.2,333.4894,34.8,332.613,44.4,332.6722,54,333.1992,53.5485,333.1992,53.5057,343.8168,53.9136,354.4344,53.6224,365.052,53.4347,375.6695,54,386.2871,54,385.7447,44.4,386.0944,34.8,387.0315,25.2,386.6698,15.6,385.608,6,386.2871,6.2784,386.2871,6.1108,375.6695,6.0856,365.052,6.1397,354.4344,5.5159,343.8168,6,333.1992" style="stroke: #A80036; stroke-width: 1.5;"/><text fill="#000000" font-family="sans-serif" font-size="12" lengthAdjust="spacingAndGlyphs" textLength="36" x="12" y="349.8008">Server</text><path d="M7,357.332 L7,356.971 L16.2,357.2222 L25.4,357.3207 L34.6,356.673 L43.8,357.9733 L53,357.332 " fill="#FEFECE" style="stroke: #A80036; stroke-width: 1.5;"/><path d="M7,365.332 L7,364.9948 L16.2,365.1921 L25.4,365.733 L34.6,364.6244 L43.8,364.3801 L53,365.332 " fill="#FEFECE" style="stroke: #A80036; stroke-width: 1.5;"/><text fill="#000000" font-family="sans-serif" font-size="11" lengthAdjust="spacingAndGlyphs" textLength="36" x="12" y="379.9668">+run()</text><!--class Runner--><polygon fill="#FEFECE" filter="url(#fkidrhh)" points="89,333.1992,89,333.7729,98.6,333.2666,108.2,332.6778,117.8,333.1631,127.4,332.729,137,333.1992,137.3946,333.1992,137.1359,343.8168,136.9233,354.4344,137.5557,365.052,137.4949,375.6695,137,386.2871,137,385.9281,127.4,385.8258,117.8,386.0925,108.2,386.8107,98.6,386.5661,89,386.2871,89.3709,386.2871,88.8775,375.6695,89.2905,365.052,89.3608,354.4344,89.6834,343.8168,89,333.1992" style="stroke: #A80036; stroke-width: 1.5;"/><text fill="#000000" font-family="sans-serif" font-size="12" lengthAdjust="spacingAndGlyphs" textLength="41" x="92.5" y="349.8008">Runner</text><path d="M90,357.332 L90,358.019 L99.2,356.8564 L108.4,356.9839 L117.6,356.749 L126.8,356.681 L136,357.332 " fill="#FEFECE" style="stroke: #A80036; stroke-width: 1.5;"/><path d="M90,365.332 L90,365.0027 L99.2,365.5108 L108.4,365.0729 L117.6,364.9594 L126.8,365.9276 L136,365.332 " fill="#FEFECE" style="stroke: #A80036; stroke-width: 1.5;"/><text fill="#000000" font-family="sans-serif" font-size="11" lengthAdjust="spacingAndGlyphs" textLength="36" x="95" y="379.9668">+run()</text><!--class Application--><polygon fill="#FEFECE" filter="url(#fkidrhh)" points="172,333.1992,172,332.8691,182,332.7557,192,333.4082,202,332.7867,212,333.4511,222,333.9066,232,332.7612,242,333.1992,241.324,333.1992,242.7476,343.8168,242.2989,354.4344,241.6358,365.052,242.2927,375.6695,242,386.2871,242,386.6093,232,386.882,222,386.9751,212,385.8701,202,386.5435,192,385.9239,182,386.0468,172,386.2871,171.4463,386.2871,171.6296,375.6695,171.4251,365.052,171.9657,354.4344,171.3592,343.8168,172,333.1992" style="stroke: #A80036; stroke-width: 1.5;"/><text fill="#000000" font-family="sans-serif" font-size="12" lengthAdjust="spacingAndGlyphs" textLength="64" x="175" y="349.8008">Application</text><path d="M173,357.332 L173,357.8394 L182.7143,356.5485 L192.4286,357.2768 L202.1429,356.8389 L211.8571,357.2902 L221.5714,357.6535 L231.2857,357.0186 L241,357.332 " fill="#FEFECE" style="stroke: #A80036; stroke-width: 1.5;"/><path d="M173,365.332 L173,365.0315 L182.7143,366.1922 L192.4286,365.473 L202.1429,365.9445 L211.8571,365.8221 L221.5714,366.28 L231.2857,364.3565 L241,365.332 " fill="#FEFECE" style="stroke: #A80036; stroke-width: 1.5;"/><text fill="#000000" font-family="sans-serif" font-size="11" lengthAdjust="spacingAndGlyphs" textLength="53" x="178" y="379.9668">+handle()</text><!--class ControllerFactory--><polygon fill="#FEFECE" filter="url(#fkidrhh)" points="277.5,333.1992,277.5,333.9323,287.8,333.7251,298.1,332.7791,308.4,333.8114,318.7,333.0322,329,332.7626,339.3,333.6891,349.6,333.3751,359.9,333.7985,370.2,333.907,380.5,333.1992,380.8028,333.1992,380.3673,343.8168,380.4004,354.4344,380.0696,365.052,380.5136,375.6695,380.5,386.2871,380.5,385.8123,370.2,386.4634,359.9,386.0919,349.6,385.6325,339.3,385.9446,329,385.8142,318.7,386.9041,308.4,386.4271,298.1,385.8457,287.8,385.6367,277.5,386.2871,276.9069,386.2871,278.1683,375.6695,277.5799,365.052,277.9113,354.4344,277.4851,343.8168,277.5,333.1992" style="stroke: #A80036; stroke-width: 1.5;"/><text fill="#000000" font-family="sans-serif" font-size="12" lengthAdjust="spacingAndGlyphs" textLength="97" x="280.5" y="349.8008">ControllerFactory</text><path d="M278.5,357.332 L278.5,356.6316 L288.6,358.1343 L298.7,357.2922 L308.8,357.1073 L318.9,357.9151 L329,356.9823 L339.1,356.7879 L349.2,357.2021 L359.3,357.1662 L369.4,357.3062 L379.5,357.332 " fill="#FEFECE" style="stroke: #A80036; stroke-width: 1.5;"/><path d="M278.5,365.332 L278.5,366.2552 L288.6,365.9415 L298.7,365.6775 L308.8,365.8467 L318.9,365.3749 L329,365.0626 L339.1,364.4992 L349.2,365.3052 L359.3,365.2283 L369.4,365.6017 L379.5,365.332 " fill="#FEFECE" style="stroke: #A80036; stroke-width: 1.5;"/><text fill="#000000" font-family="sans-serif" font-size="11" lengthAdjust="spacingAndGlyphs" textLength="52" x="283.5" y="379.9668">+invoke()</text><!--class Admin\XxxController--><polygon fill="#FEFECE" filter="url(#fkidrhh)" points="416,307.1992,416,306.8974,426.1429,307.5629,436.2857,306.9548,446.4286,307.8444,456.5714,306.853,466.7143,307.1896,476.8571,307.3666,487,307.4039,497.1429,306.7208,507.2857,306.9758,517.4286,307.8385,527.5714,306.4712,537.7143,306.5225,547.8571,307.3228,558,307.1992,558.7056,307.1992,557.8828,317.69,558.2448,328.1809,557.5177,338.6717,557.5919,349.1625,557.6264,359.6533,557.4101,370.1441,557.692,380.635,557.6108,391.1258,557.687,401.6166,558,412.1074,558,411.783,547.8571,411.9469,537.7143,411.5782,527.5714,412.2275,517.4286,412.6481,507.2857,412.689,497.1429,412.4127,487,411.5781,476.8571,412.3853,466.7143,411.4211,456.5714,412.3227,446.4286,411.8998,436.2857,411.5773,426.1429,411.7732,416,412.1074,415.4263,412.1074,416.5399,401.6166,415.3032,391.1258,416.6437,380.635,415.3024,370.1441,415.6646,359.6533,415.7091,349.1625,416.5377,338.6717,415.9263,328.1809,415.561,317.69,416,307.1992" style="stroke: #A80036; stroke-width: 1.5;"/><text fill="#000000" font-family="sans-serif" font-size="12" lengthAdjust="spacingAndGlyphs" textLength="121" x="426.5" y="323.8008">Admin\XxxController</text><path d="M417,331.332 L417,331.6812 L427,330.5545 L437,331.6653 L447,330.3701 L457,330.8518 L467,330.6122 L477,331.2573 L487,330.8448 L497,331.2406 L507,332.0091 L517,332.0305 L527,331.3835 L537,332.1611 L547,332.0764 L557,331.332 " fill="#FEFECE" style="stroke: #A80036; stroke-width: 1.5;"/><text fill="#000000" font-family="sans-serif" font-size="11" lengthAdjust="spacingAndGlyphs" textLength="130" x="422" y="345.9668">+BcMessageComponent</text><path d="M417,352.2871 L417,353.1082 L427,352.9088 L437,353.2521 L447,352.2523 L457,352.7213 L467,351.7546 L477,353.2628 L487,351.4966 L497,353.1098 L507,351.8767 L517,352.7664 L527,352.8243 L537,352.1077 L547,352.5251 L557,352.2871 " fill="#FEFECE" style="stroke: #A80036; stroke-width: 1.5;"/><text fill="#000000" font-family="sans-serif" font-size="11" lengthAdjust="spacingAndGlyphs" textLength="113" x="422" y="366.9219">+一覧を表示：index()</text><text fill="#000000" font-family="sans-serif" font-size="11" lengthAdjust="spacingAndGlyphs" textLength="92" x="422" y="379.877">+新規追加：add()</text><text fill="#000000" font-family="sans-serif" font-size="11" lengthAdjust="spacingAndGlyphs" textLength="70" x="422" y="392.832">+編集：edit()</text><text fill="#000000" font-family="sans-serif" font-size="11" lengthAdjust="spacingAndGlyphs" textLength="82" x="422" y="405.7871">+削除：delete()</text><!--class BcAdminAppController--><polygon fill="#FEFECE" filter="url(#fkidrhh)" points="405.5,168.1992,405.5,167.5905,415.6875,167.9863,425.875,168.547,436.0625,167.7384,446.25,168.6197,456.4375,168.0012,466.625,168.5471,476.8125,167.4599,487,168.4677,497.1875,168.7087,507.375,167.5063,517.5625,168.8269,527.75,168.1786,537.9375,168.4402,548.125,167.7241,558.3125,168.0565,568.5,168.1992,567.9649,168.1992,568.3372,178.074,568.3197,187.9487,568.8487,197.8235,568.6263,207.6982,568.0878,217.573,567.7939,227.4478,569.0205,237.3225,568.5,247.1973,568.5,246.8175,558.3125,247.3472,548.125,247.1035,537.9375,246.5685,527.75,247.0392,517.5625,246.995,507.375,247.6422,497.1875,247.2063,487,247.3934,476.8125,246.8279,466.625,246.9111,456.4375,247.1582,446.25,246.4858,436.0625,247.5442,425.875,246.9819,415.6875,247.2868,405.5,247.1973,404.8236,247.1973,404.8728,237.3225,406.0477,227.4478,405.9192,217.573,406.2155,207.6982,406.02,197.8235,405.4914,187.9487,405.5942,178.074,405.5,168.1992" style="stroke: #A80036; stroke-width: 1.5;"/><text fill="#000000" font-family="sans-serif" font-size="12" lengthAdjust="spacingAndGlyphs" textLength="130" x="422" y="184.8008">BcAdminAppController</text><path d="M406.5,192.332 L406.5,192.6294 L416.5625,192.2446 L426.625,193.225 L436.6875,192.4273 L446.75,192.0693 L456.8125,191.5216 L466.875,192.5725 L476.9375,192.972 L487,192.1084 L497.0625,192.3164 L507.125,193.2048 L517.1875,192.8161 L527.25,192.8517 L537.3125,192.2891 L547.375,191.3729 L557.4375,191.3403 L567.5,192.332 " fill="#FEFECE" style="stroke: #A80036; stroke-width: 1.5;"/><text fill="#000000" font-family="sans-serif" font-size="11" lengthAdjust="spacingAndGlyphs" textLength="151" x="411.5" y="206.9668">+AuthenticationComponent</text><path d="M406.5,213.2871 L406.5,213.1575 L416.5625,213.7471 L426.625,214.2481 L436.6875,214.2784 L446.75,212.8314 L456.8125,212.7035 L466.875,213.8925 L476.9375,212.3238 L487,212.5512 L497.0625,212.9515 L507.125,214.0547 L517.1875,212.816 L527.25,213.2517 L537.3125,214.1435 L547.375,213.1658 L557.4375,213.9789 L567.5,213.2871 " fill="#FEFECE" style="stroke: #A80036; stroke-width: 1.5;"/><text fill="#000000" font-family="sans-serif" font-size="11" lengthAdjust="spacingAndGlyphs" textLength="87" x="411.5" y="227.9219">+invokeAction()</text><text fill="#000000" font-family="sans-serif" font-size="11" lengthAdjust="spacingAndGlyphs" textLength="53" x="411.5" y="240.877">+render()</text><!--class BcAdminAppView--><polygon fill="#FEFECE" filter="url(#fkidrhh)" points="593.5,333.1992,593.5,333.753,603.2273,333.168,612.9545,333.142,622.6818,333.1968,632.4091,332.8983,642.1364,332.6593,651.8636,333.2872,661.5909,333.7772,671.3182,333.8847,681.0455,333.0445,690.7727,333.7592,700.5,333.1992,700.8027,333.1992,700.9363,343.8168,699.9467,354.4344,700.3313,365.052,699.7748,375.6695,700.5,386.2871,700.5,386.0402,690.7727,385.8381,681.0455,385.8536,671.3182,386.2931,661.5909,386.5465,651.8636,386.2375,642.1364,387.0343,632.4091,386.1271,622.6818,386.6034,612.9545,386.2699,603.2273,386.1058,593.5,386.2871,592.9167,386.2871,594.1446,375.6695,594.0336,365.052,593.1402,354.4344,593.8149,343.8168,593.5,333.1992" style="stroke: #A80036; stroke-width: 1.5;"/><text fill="#000000" font-family="sans-serif" font-size="12" lengthAdjust="spacingAndGlyphs" textLength="101" x="596.5" y="349.8008">BcAdminAppView</text><path d="M594.5,357.332 L594.5,357.2545 L604.0455,357.0667 L613.5909,356.4008 L623.1364,356.8525 L632.6818,357.8836 L642.2273,358.2224 L651.7727,356.6355 L661.3182,357.2037 L670.8636,357.1277 L680.4091,357.0233 L689.9545,356.5658 L699.5,357.332 " fill="#FEFECE" style="stroke: #A80036; stroke-width: 1.5;"/><path d="M594.5,365.332 L594.5,365.4262 L604.0455,366.1876 L613.5909,365.0467 L623.1364,365.9937 L632.6818,364.8644 L642.2273,364.781 L651.7727,364.8859 L661.3182,364.8321 L670.8636,364.8288 L680.4091,366.1296 L689.9545,364.378 L699.5,365.332 " fill="#FEFECE" style="stroke: #A80036; stroke-width: 1.5;"/><text fill="#000000" font-family="sans-serif" font-size="11" lengthAdjust="spacingAndGlyphs" textLength="53" x="599.5" y="379.9668">+render()</text><!--class AppController--><polygon fill="#FEFECE" filter="url(#fkidrhh)" points="416,29.1992,416,29.3789,426.1429,29.625,436.2857,28.8753,446.4286,28.8788,456.5714,28.5025,466.7143,29.2135,476.8571,29.6214,487,29.3828,497.1429,29.6569,507.2857,28.5672,517.4286,29.8466,527.5714,28.9973,537.7143,28.4806,547.8571,29.2286,558,29.1992,558.3507,29.1992,558.2872,39.074,558.6077,48.9487,558.48,58.8235,558.1864,68.6982,557.3502,78.573,558.5518,88.4478,557.3153,98.3225,558,108.1973,558,107.6472,547.8571,108.5008,537.7143,108.6586,527.5714,107.4916,517.4286,108.2992,507.2857,108.1749,497.1429,108.9433,487,108.098,476.8571,107.6173,466.7143,107.7117,456.5714,108.8415,446.4286,108.2713,436.2857,108.2122,426.1429,108.1287,416,108.1973,416.3598,108.1973,416.7378,98.3225,416.6713,88.4478,416.2066,78.573,415.7033,68.6982,416.6779,58.8235,415.2779,48.9487,416.2223,39.074,416,29.1992" style="stroke: #A80036; stroke-width: 1.5;"/><text fill="#000000" font-family="sans-serif" font-size="12" lengthAdjust="spacingAndGlyphs" textLength="80" x="447" y="45.8008">AppController</text><path d="M417,53.332 L417,53.8679 L427,52.9333 L437,53.3244 L447,54.2696 L457,52.7983 L467,53.1085 L477,53.0082 L487,52.3629 L497,53.008 L507,54.1313 L517,53.6933 L527,53.2748 L537,54.2259 L547,53.5714 L557,53.332 " fill="#FEFECE" style="stroke: #A80036; stroke-width: 1.5;"/><text fill="#000000" font-family="sans-serif" font-size="11" lengthAdjust="spacingAndGlyphs" textLength="130" x="422" y="67.9668">+BcMessageComponent</text><text fill="#000000" font-family="sans-serif" font-size="11" lengthAdjust="spacingAndGlyphs" textLength="115" x="422" y="80.9219">+SecurityComponent</text><text fill="#000000" font-family="sans-serif" font-size="11" lengthAdjust="spacingAndGlyphs" textLength="123" x="422" y="93.877">+PaginatorComponent</text><path d="M417,100.1973 L417,100.5178 L427,100.6658 L437,100.4353 L447,100.0431 L457,100.595 L467,100.5914 L477,99.9146 L487,99.6575 L497,99.9997 L507,100.4353 L517,99.4686 L527,99.3407 L537,100.095 L547,100.9016 L557,100.1973 " fill="#FEFECE" style="stroke: #A80036; stroke-width: 1.5;"/><!--class BcAdminXxxHelper--><polygon fill="#FEFECE" filter="url(#fkidrhh)" points="580.5,504.6992,580.5,505.2709,590.25,505.0958,600,505.1859,609.75,504.9445,619.5,504.1033,629.25,504.0129,639,504.5094,648.75,504.4548,658.5,505.3264,668.25,504.3822,678,504.0973,687.75,504.1798,697.5,504.6992,697.3392,504.6992,697.3909,512.7258,697.5958,520.7523,697.6142,528.7789,697.4737,536.8055,697.5,544.832,697.5,545.0117,687.75,545.0296,678,544.8833,668.25,545.4528,658.5,545.1143,648.75,545.1795,639,544.4765,629.25,545.3473,619.5,544.4098,609.75,544.4854,600,545.5232,590.25,545.472,580.5,544.832,580.5671,544.832,580.6652,536.8055,580.5654,528.7789,580.673,520.7523,580.4968,512.7258,580.5,504.6992" style="stroke: #A80036; stroke-width: 1.5;"/><text fill="#000000" font-family="sans-serif" font-size="12" lengthAdjust="spacingAndGlyphs" textLength="111" x="583.5" y="521.3008">BcAdminXxxHelper</text><path d="M581.5,528.832 L581.5,529.2259 L591.0833,528.282 L600.6667,528.9814 L610.25,528.685 L619.8333,527.8606 L629.4167,529.1081 L639,528.4743 L648.5833,527.858 L658.1667,528.117 L667.75,528.7946 L677.3333,529.1492 L686.9167,527.989 L696.5,528.832 " fill="#FEFECE" style="stroke: #A80036; stroke-width: 1.5;"/><path d="M581.5,536.832 L581.5,536.6821 L591.0833,535.9232 L600.6667,536.2801 L610.25,537.5653 L619.8333,536.2429 L629.4167,537.7577 L639,536.691 L648.5833,536.8603 L658.1667,536.2477 L667.75,537.122 L677.3333,537.6513 L686.9167,536.1911 L696.5,536.832 " fill="#FEFECE" style="stroke: #A80036; stroke-width: 1.5;"/><!--class XxxService--><polygon fill="#FEFECE" filter="url(#fkidrhh)" points="459.5,498.1992,459.5,498.0745,469.6429,498.377,479.7857,498.8446,489.9286,497.5622,500.0714,497.9356,510.2143,498.0153,520.3571,498.4954,530.5,498.1992,530.5283,498.1992,531.0415,508.8168,530.282,519.4344,530.4196,530.052,531.18,540.6695,530.5,551.2871,530.5,551.2963,520.3571,550.6217,510.2143,551.0491,500.0714,551.5755,489.9286,551.965,479.7857,551.01,469.6429,551.4297,459.5,551.2871,460.1234,551.2871,459.2216,540.6695,458.7529,530.052,459.9599,519.4344,459.0256,508.8168,459.5,498.1992" style="stroke: #A80036; stroke-width: 1.5;"/><text fill="#000000" font-family="sans-serif" font-size="12" lengthAdjust="spacingAndGlyphs" textLength="62" x="464" y="514.8008">XxxService</text><path d="M460.5,522.332 L460.5,521.74 L470.3571,522.1012 L480.2143,521.9897 L490.0714,522.2305 L499.9286,521.3697 L509.7857,522.6212 L519.6429,522.3468 L529.5,522.332 " fill="#FEFECE" style="stroke: #A80036; stroke-width: 1.5;"/><text fill="#000000" font-family="sans-serif" font-size="11" lengthAdjust="spacingAndGlyphs" textLength="59" x="465.5" y="536.9668">+XxxTable</text><path d="M460.5,543.2871 L460.5,542.7311 L470.3571,543.4598 L480.2143,543.9778 L490.0714,544.0504 L499.9286,542.6704 L509.7857,543.812 L519.6429,544.1041 L529.5,543.2871 " fill="#FEFECE" style="stroke: #A80036; stroke-width: 1.5;"/><!--class XxxServiceInterface--><polygon fill="#FEFECE" filter="url(#fkidrhh)" points="268,472.1992,268,472.8079,277.75,471.7926,287.5,472.6509,297.25,472.7631,307,472.1016,316.75,471.8542,326.5,471.7878,336.25,472.8468,346,471.6387,355.75,471.664,365.5,472.3123,375.25,471.9305,385,471.4944,394.75,472.83,404.5,472.5835,414.25,472.0979,424,472.1992,424.7294,472.1992,424.5476,482.69,424.4595,493.1809,424.6264,503.6717,423.2589,514.1625,424.0127,524.6533,424.2655,535.1441,424.4195,545.635,424.1447,556.1258,424.4787,566.6166,424,577.1074,424,576.5822,414.25,577.7277,404.5,577.8384,394.75,577.5875,385,576.7179,375.25,577.2235,365.5,577.0065,355.75,576.9291,346,576.9462,336.25,577.4917,326.5,576.662,316.75,576.7282,307,577.0173,297.25,576.8369,287.5,577.1551,277.75,577.3528,268,577.1074,268.2939,577.1074,267.6871,566.6166,268.2404,556.1258,267.6053,545.635,268.2221,535.1441,267.8908,524.6533,267.5701,514.1625,268.6123,503.6717,268.0819,493.1809,268.2277,482.69,268,472.1992" style="stroke: #A80036; stroke-width: 1.5;"/><text fill="#000000" font-family="sans-serif" font-size="12" lengthAdjust="spacingAndGlyphs" textLength="112" x="290" y="488.8008">XxxServiceInterface</text><path d="M269,496.332 L269,496.2371 L279.2667,495.5821 L289.5333,496.9144 L299.8,496.7753 L310.0667,496.2944 L320.3333,496.2919 L330.6,495.4441 L340.8667,496.8721 L351.1333,495.7894 L361.4,495.7865 L371.6667,496.3913 L381.9333,495.6283 L392.2,495.3402 L402.4667,495.7506 L412.7333,496.899 L423,496.332 " fill="#FEFECE" style="stroke: #A80036; stroke-width: 1.5;"/><path d="M269,504.332 L269,503.7316 L279.2667,504.5327 L289.5333,504.9449 L299.8,504.6438 L310.0667,503.9394 L320.3333,503.9956 L330.6,504.4888 L340.8667,504.2342 L351.1333,504.6895 L361.4,503.3627 L371.6667,503.9109 L381.9333,504.685 L392.2,503.4927 L402.4667,504.8223 L412.7333,505.3277 L423,504.332 " fill="#FEFECE" style="stroke: #A80036; stroke-width: 1.5;"/><text fill="#000000" font-family="sans-serif" font-size="11" lengthAdjust="spacingAndGlyphs" textLength="83" x="274" y="518.9668">+作成：create()</text><text fill="#000000" font-family="sans-serif" font-size="11" lengthAdjust="spacingAndGlyphs" textLength="87" x="274" y="531.9219">+編集：update()</text><text fill="#000000" font-family="sans-serif" font-size="11" lengthAdjust="spacingAndGlyphs" textLength="122" x="274" y="544.877">+単一データ取得：get()</text><text fill="#000000" font-family="sans-serif" font-size="11" lengthAdjust="spacingAndGlyphs" textLength="135" x="274" y="557.832">+一覧データ取得：index()</text><text fill="#000000" font-family="sans-serif" font-size="11" lengthAdjust="spacingAndGlyphs" textLength="144" x="274" y="570.7871">+初期データ取得：getNew()</text><!--class XxxTable--><polygon fill="#FEFECE" filter="url(#fkidrhh)" points="464.5,637.1992,464.5,636.6159,474.6667,637.374,484.8333,637.0102,495,637.7285,505.1667,636.8875,515.3333,637.1713,525.5,637.1992,525.6976,637.1992,525.3348,645.2258,525.5118,653.2523,525.4708,661.2789,525.458,669.3055,525.5,677.332,525.5,676.9563,515.3333,676.9443,505.1667,677.2116,495,676.7808,484.8333,677.0055,474.6667,676.6225,464.5,677.332,464.4953,677.332,464.5773,669.3055,464.4985,661.2789,464.6111,653.2523,464.2783,645.2258,464.5,637.1992" style="stroke: #A80036; stroke-width: 1.5;"/><text fill="#000000" font-family="sans-serif" font-size="12" lengthAdjust="spacingAndGlyphs" textLength="55" x="467.5" y="653.8008">XxxTable</text><path d="M465.5,661.332 L465.5,660.6888 L475.3333,661.4037 L485.1667,660.3357 L495,662.079 L504.8333,661.1057 L514.6667,661.929 L524.5,661.332 " fill="#FEFECE" style="stroke: #A80036; stroke-width: 1.5;"/><path d="M465.5,669.332 L465.5,669.043 L475.3333,670.3102 L485.1667,669.417 L495,668.8105 L504.8333,669.862 L514.6667,669.3289 L524.5,669.332 " fill="#FEFECE" style="stroke: #A80036; stroke-width: 1.5;"/><!--class Xxx--><polygon fill="#FEFECE" filter="url(#fkidrhh)" points="481,737.1992,481,736.9771,486.6,737.3584,492.2,737.1536,497.8,737.1223,503.4,737.3676,509,737.1992,508.9902,737.1992,508.9928,745.2258,508.8452,753.2523,509.2459,761.2789,508.8412,769.3055,509,777.332,509,777.4518,503.4,777.3819,497.8,777.5268,492.2,777.1383,486.6,777.3133,481,777.332,481.0425,777.332,480.9064,769.3055,481.1615,761.2789,481.0894,753.2523,481.0758,745.2258,481,737.1992" style="stroke: #A80036; stroke-width: 1.5;"/><text fill="#000000" font-family="sans-serif" font-size="12" lengthAdjust="spacingAndGlyphs" textLength="22" x="484" y="753.8008">Xxx</text><path d="M482,761.332 L482,761.2067 L487.2,761.3674 L492.4,761.5669 L497.6,761.1555 L502.8,761.3367 L508,761.332 " fill="#FEFECE" style="stroke: #A80036; stroke-width: 1.5;"/><path d="M482,769.332 L482,769.3617 L487.2,769.5414 L492.4,769.3339 L497.6,769.6109 L502.8,769.4263 L508,769.332 " fill="#FEFECE" style="stroke: #A80036; stroke-width: 1.5;"/><polygon fill="#FBFB77" filter="url(#fkidrhh)" points="346.5,744.6992,346.5945,744.6992,346.3046,749.7613,346.7396,754.8234,346.7116,759.8855,346.4462,764.9477,346.5,770.0098,346.5,770.1091,356.4,769.4894,366.3,770.0898,376.2,770.4364,386.1,769.8873,396,770.1372,405.9,769.8899,415.8,770.4643,425.7,769.9035,435.6,769.9024,445.5,770.0098,445.5072,770.0098,445.6739,766.9477,445.4772,763.8855,445.7162,760.8234,445.4107,757.7613,445.5,754.6992,445.4498,754.6491,443.5441,752.7433,441.3306,750.5298,439.6103,748.8095,437.648,746.8472,435.5,744.6992,435.5,745.2583,425.6111,745.4147,415.7222,745.2739,405.8333,744.4516,395.9444,745.0318,386.0556,745.3504,376.1667,744.4757,366.2778,745.3694,356.3889,744.8541,346.5,744.6992" style="stroke: #A80036; stroke-width: 1.0;"/><polygon fill="#FBFB77" points="346.5,744.6992,346.3441,744.6992,346.6479,749.7613,346.747,754.8234,346.6454,759.8855,346.6881,764.9477,346.5,770.0098,346.5,770.3818,356.4,769.4326,366.3,769.7454,376.2,769.7309,386.1,770.5281,396,769.3194,405.9,769.3425,415.8,769.644,425.7,770.3276,435.6,769.6218,445.5,770.0098,445.3391,770.0098,445.5114,768.5477,445.444,767.0855,445.6178,765.6234,445.3927,764.1613,445.5,762.6992,445.5271,762.8729,452.5373,761.4536,459.6084,760.4246,466.655,759.2384,473.7359,758.2727,480.8,757.1992,480.7827,756.9545,473.745,756.77,466.671,756.0728,459.6217,755.7233,452.5648,755.2664,445.5,754.6992,445.4112,754.6104,443.4808,752.68,441.4665,750.6657,439.4978,748.697,437.5667,746.7659,435.5,744.6992,435.5,744.3319,425.6111,744.4096,415.7222,744.0456,405.8333,745.0306,395.9444,744.4075,386.0556,745.2115,376.1667,745.4038,366.2778,744.0233,356.3889,744.9336,346.5,744.6992" style="stroke: #A80036; stroke-width: 1.0;"/><path d="M435.5,744.6992 L435.3377,744.6992 L435.299,746.6992 L435.5887,748.6992 L435.691,750.6992 L435.6576,752.6992 L435.5,754.6992 " fill="#FBFB77" style="stroke: #A80036; stroke-width: 1.0;"/><path d="M445.5,754.6992 L445.5,754.9359 L443.5,754.3858 L441.5,754.8852 L439.5,754.7448 L437.5,754.7876 L435.5,754.6992 " fill="#FBFB77" style="stroke: #A80036; stroke-width: 1.0;"/><text fill="#000000" font-family="sans-serif" font-size="13" lengthAdjust="spacingAndGlyphs" textLength="78" x="352.5" y="762.2676">エンティティ</text><path d="M54.32,359.6992 L54.32,359.4272 L60.176,359.4253 L66.032,359.7267 L71.888,360.0141 L77.744,359.9917 L83.6,359.6992 " fill="none" style="stroke: #000000; stroke-width: 1.0;"/><polygon fill="#000000" points="88.7,359.6992,88.736,359.7802,86.9026,358.9051,85.1232,358.1514,83.292,357.2812,81.4248,356.3301,79.7,355.6992,79.8407,355.8399,80.6612,356.6604,81.3536,357.3528,82.1767,358.1759,83.024,359.0232,83.7,359.6992,83.6338,359.633,83.0189,360.6181,81.9653,361.1645,81.1857,361.9849,80.6136,363.0128,79.7,363.6992,79.6668,363.6245,81.5641,363.0435,83.2923,362.0818,85.0683,361.228,86.8649,360.4203,88.7,359.6992" style="stroke: #000000; stroke-width: 1.0;"/><path d="M137.23,359.6992 L137.23,359.9345 L143.126,359.7721 L149.022,359.5783 L154.918,359.7351 L160.814,359.9638 L166.71,359.6992 " fill="none" style="stroke: #000000; stroke-width: 1.0;"/><polygon fill="#000000" points="171.84,359.6992,171.9139,359.8655,169.9478,358.6917,168.1825,357.9699,166.3699,357.1414,164.6487,356.5188,162.84,355.6992,162.8189,355.6781,163.7094,356.5686,164.5678,357.427,165.0708,357.9301,166.1276,358.9868,166.84,359.6992,166.9664,359.8257,166.0913,360.5505,165.0965,361.1557,164.3356,361.9948,163.634,362.8932,162.84,363.6992,162.7674,363.5358,164.6608,362.9459,166.3457,361.887,168.3176,361.4738,170.097,360.6274,171.84,359.6992" style="stroke: #000000; stroke-width: 1.0;"/><path d="M242.27,359.6992 L242.27,359.5193 L248.212,359.7568 L254.154,360.0147 L260.096,359.7966 L266.038,359.7502 L271.98,359.6992 " fill="none" style="stroke: #000000; stroke-width: 1.0;"/><polygon fill="#000000" points="277.16,359.6992,277.2117,359.8155,275.2734,358.7043,273.6285,358.2533,271.6693,357.0951,269.9022,356.3692,268.16,355.6992,268.0945,355.6338,269.0093,356.5486,269.8725,357.4118,270.4701,358.0093,271.5307,359.0699,272.16,359.6992,272.0822,359.6214,271.472,360.6112,270.4592,361.1984,269.651,361.9903,269.0994,363.0386,268.16,363.6992,268.0801,363.5195,269.8717,362.7005,271.6858,361.9322,273.5996,361.3883,275.4513,360.7045,277.16,359.6992" style="stroke: #000000; stroke-width: 1.0;"/><path d="M380.54,359.6992 L380.54,359.5646 L386.56,359.8226 L392.58,359.4617 L398.6,359.8191 L404.62,359.4846 L410.64,359.6992 " fill="none" style="stroke: #000000; stroke-width: 1.0;"/><polygon fill="#000000" points="415.88,359.6992,415.8618,359.6582,414.0239,358.773,412.2022,357.9243,410.5812,357.5269,408.5811,356.2768,406.88,355.6992,406.9374,355.7566,407.5908,356.41,408.4372,357.2564,409.4389,358.2581,409.9663,358.7855,410.88,359.6992,410.7374,359.5567,410.1332,360.5524,409.2325,361.2517,408.4896,362.1088,407.5421,362.7613,406.88,363.6992,406.8651,363.6658,408.7119,362.971,410.4342,361.9962,412.3798,361.5237,414.0792,360.4974,415.88,359.6992" style="stroke: #000000; stroke-width: 1.0;"/><path d="M558.25,359.6992 L558.25,359.8964 L564.214,359.9442 L570.178,359.8904 L576.142,359.4658 L582.106,359.4722 L588.07,359.6992 " fill="none" style="stroke: #000000; stroke-width: 1.0;"/><polygon fill="#000000" points="593.26,359.6992,593.2934,359.7745,591.3712,358.6995,589.5649,357.8853,587.9385,357.4758,585.9919,356.346,584.26,355.6992,584.1934,355.6326,585.0632,356.5024,585.9649,357.4041,586.7323,358.1715,587.3579,358.7971,588.26,359.6992,588.2519,359.6911,587.5144,360.5536,586.6272,361.2664,585.715,361.9542,585.0137,362.8529,584.26,363.6992,584.3598,363.9239,585.9863,362.7334,587.9363,362.2709,589.7561,361.5155,591.5422,360.6841,593.26,359.6992" style="stroke: #000000; stroke-width: 1.0;"/><path d="M489.53,412.2692 L489.8522,412.285 L490.9738,422.4033 L490.4689,432.4417 L490.1881,442.4911 L490.7688,452.5828 L492.777,462.7446 L493.291,472.833 L492.0179,482.8338 L493.49,492.9692 " fill="none" style="stroke: #000000; stroke-width: 1.0;"/><polygon fill="#000000" points="493.74,497.9592,493.6783,497.9353,494.6683,496.2065,495.3378,494.3534,495.8674,492.4461,496.5116,490.5833,497.2987,488.7758,497.3145,488.7902,496.4984,489.5773,495.8959,490.5584,494.9874,491.2617,494.3203,492.1841,493.4974,492.9651,493.5953,493.073,492.7225,492.2743,491.9746,491.6132,491.1344,490.8504,489.9844,489.7461,489.3081,489.1639,489.1518,489.0851,490.3389,490.9957,491.061,492.672,492.0508,494.4832,492.8886,496.2178,493.74,497.9592" style="stroke: #000000; stroke-width: 1.0;"/><path d="M487,267.6892 L486.9258,267.6892 L486.917,275.5892 L486.7375,283.4892 L486.7511,291.3892 L487.0244,299.2892 L487,307.1892 " fill="none" style="stroke: #000000; stroke-width: 1.0;"/><polygon fill="none" points="480,267.3292,480.1969,267.3981,481.1687,263.2483,482.5704,259.2489,483.9851,255.254,485.4548,251.2784,487,247.3292,486.8608,247.2805,488.2866,251.2895,489.9064,255.3665,490.9989,259.2588,492.7793,263.392,494,267.3292,494,267.3765,491.2,267.2633,488.4,267.3912,485.6,267.4571,482.8,267.0986,480,267.3292" style="stroke: #000000; stroke-width: 1.0;"/><path d="M487,128.4992 L487.0464,128.4992 L486.9692,136.3972 L487.1357,144.2952 L486.7943,152.1932 L486.7276,160.0912 L487,167.9892 " fill="none" style="stroke: #000000; stroke-width: 1.0;"/><polygon fill="none" points="480,128.2292,479.9433,128.2094,481.5589,124.2848,482.7889,120.2253,484.1433,116.2094,485.8167,112.3051,487,108.2292,486.9833,108.2234,488.4287,112.2393,489.7366,116.207,491.3987,120.2988,492.6569,124.2491,494,128.2292,494,128.3911,491.2,128.2803,488.4,128.0634,485.6,128.0726,482.8,128.0542,480,128.2292" style="stroke: #000000; stroke-width: 1.0;"/><path d="M645.73,386.5292 L645.16,386.5012 L646.0201,396.8455 L645.531,407.1235 L644.0622,417.3535 L642.7441,427.5908 L643.1614,437.9133 L643.3311,448.2237 L643.0514,458.512 L641.6747,468.7465 L640.2556,478.9788 L641.3745,489.3358 L640.18,499.5792 " fill="none" style="stroke: #000000; stroke-width: 1.0;"/><polygon fill="#000000" points="639.94,504.6092,639.9004,504.5891,640.6886,502.7802,641.6025,501.0351,642.6189,499.342,643.6508,497.6568,644.397,495.8265,644.3188,495.7398,643.5493,496.5759,642.8,497.4344,641.9578,498.1898,641.1854,499.0227,640.1968,499.6158,640.289,499.699,639.2942,498.6452,638.5492,497.8168,637.8678,497.0457,637.1354,496.2286,636.4075,495.4157,636.4375,495.4272,637.2238,497.2965,637.8546,499.1062,638.7128,501.0032,639.1103,502.7232,639.94,504.6092" style="stroke: #000000; stroke-width: 1.0;"/><path d="M535.74,524.6992 L535.74,525.0276 L544.634,524.6019 L553.528,524.6791 L562.422,524.6566 L571.316,524.4506 L580.21,524.6992 " fill="none" style="stroke: #000000; stroke-width: 1.0;"/><polygon fill="#000000" points="530.72,524.6992,530.7818,524.8383,532.5429,525.5507,534.2821,526.2139,536.1438,527.1528,537.919,527.8969,539.72,528.6992,539.5799,528.5591,538.8949,527.8741,538.0587,527.0379,537.4559,526.4351,536.5244,525.5036,535.72,524.6992,535.7144,524.6936,536.4174,523.7966,537.1704,522.9496,538.0085,522.1877,538.8552,521.4344,539.72,520.6992,539.6896,520.6309,537.9008,521.456,536.1254,522.3114,534.2526,522.9477,532.5247,523.9098,530.72,524.6992" style="stroke: #000000; stroke-width: 1.0;"/><path d="M495,551.4792 L494.6392,551.4792 L494.6989,561.4892 L494.078,571.4992 L495.2972,581.5092 L494.984,591.5192 L494.3463,601.5292 L495.5264,611.5392 L494.7879,621.5492 L495,631.5592 " fill="none" style="stroke: #000000; stroke-width: 1.0;"/><polygon fill="#000000" points="495,636.8392,495.219,636.9366,495.9285,635.0963,496.4662,633.1797,497.5295,631.4968,498.2685,629.6697,499,627.8392,499.1391,627.9783,498.282,628.7212,497.2267,629.2659,496.756,630.3953,495.8517,631.0909,495,631.8392,495.0967,631.936,494.2641,631.1033,493.3418,630.181,492.6348,629.474,491.6495,628.4887,491,627.8392,491.0043,627.8411,491.8993,629.6834,492.4737,631.3831,493.51,633.2881,494.3905,635.1239,495,636.8392" style="stroke: #000000; stroke-width: 1.0;"/><path d="M444.29,524.6992 L444.29,524.4012 L447.306,524.584 L450.322,524.9845 L453.338,524.5375 L456.354,524.7216 L459.37,524.6992 " fill="none" style="stroke: #000000; stroke-width: 1.0; stroke-dasharray: 1.0,3.0;"/><polygon fill="none" points="444.28,531.6992,444.2808,531.7015,440.2845,530.3121,436.2387,528.7814,432.2867,527.5184,428.3079,526.1788,424.28,524.6992,424.3284,524.8376,428.3431,523.4794,432.2701,521.8709,436.328,520.6362,440.2577,519.0355,444.28,517.6992,444.2178,517.6992,444.2052,520.4992,444.206,523.2992,444.3458,526.0992,444.4878,528.8992,444.28,531.6992" style="stroke: #000000; stroke-width: 1.0;"/><path d="M495,677.5592 L495.2564,677.5592 L495.1204,688.4192 L495.6929,699.2792 L495.2041,710.1392 L495.7698,720.9992 L495,731.8592 " fill="none" style="stroke: #000000; stroke-width: 1.0;"/><polygon fill="#000000" points="495,736.8792,494.8422,736.8091,495.9508,735.1463,496.66,733.3059,497.5767,731.5577,498.2668,729.7089,499,727.8792,498.9976,727.8768,498.3514,728.8307,497.4689,729.5482,496.4349,730.1141,495.8991,731.1783,495,731.8792,494.968,731.8472,494.3352,731.2144,493.3942,730.2734,492.766,729.6452,491.8798,728.7591,491,727.8792,491.0463,727.8998,491.6296,729.6035,492.6305,731.4928,493.5042,733.3255,494.2904,735.1194,495,736.8792" style="stroke: #000000; stroke-width: 1.0;"/></g></svg>