<?xml version="1.0" encoding="UTF-8" standalone="no"?><svg xmlns="http://www.w3.org/2000/svg" xmlns:xlink="http://www.w3.org/1999/xlink" contentScriptType="application/ecmascript" contentStyleType="text/css" height="647px" preserveAspectRatio="none" style="width:673px;height:647px;" version="1.1" viewBox="0 0 673 647" width="673px" zoomAndPan="magnify"><defs><filter height="300%" id="f6nvf4f" width="300%" x="-1" y="-1"><feGaussianBlur result="blurOut" stdDeviation="2.0"/><feColorMatrix in="blurOut" result="blurOut2" type="matrix" values="0 0 0 0 0 0 0 0 0 0 0 0 0 0 0 0 0 0 .4 0"/><feOffset dx="4.0" dy="4.0" in="blurOut2" result="blurOut3"/><feBlend in="SourceGraphic" in2="blurOut3" mode="normal"/></filter></defs><g><text fill="#000000" font-family="sans-serif" font-size="18" lengthAdjust="spacingAndGlyphs" textLength="153" x="265" y="17.4023">API基本クラス構成</text><!--class Server--><polygon fill="#FEFECE" filter="url(#f6nvf4f)" points="6,187.6992,6,187.5183,14.4,187.802,22.8,187.5856,31.2,187.659,39.6,187.934,48,187.6992,48.5629,187.6992,48.2756,198.3168,48.3671,208.9344,47.3554,219.552,48.5072,230.1695,48,240.7871,48,240.5886,39.6,240.9085,31.2,241.0225,22.8,240.787,14.4,240.7671,6,240.7871,5.9947,240.7871,5.6536,230.1695,5.3924,219.552,5.7789,208.9344,5.2868,198.3168,6,187.6992" style="stroke: #A80036; stroke-width: 1.5;"/><text fill="#000000" font-family="sans-serif" font-size="12" lengthAdjust="spacingAndGlyphs" textLength="36" x="9" y="204.3008">Server</text><path d="M7,211.832 L7,211.7096 L15,211.8794 L23,211.9239 L31,211.8537 L39,211.8446 L47,211.832 " fill="#FEFECE" style="stroke: #A80036; stroke-width: 1.5;"/><path d="M7,219.832 L7,220.1478 L15,219.9189 L23,220.0002 L31,219.7939 L39,219.9439 L47,219.832 " fill="#FEFECE" style="stroke: #A80036; stroke-width: 1.5;"/><text fill="#000000" font-family="sans-serif" font-size="11" lengthAdjust="spacingAndGlyphs" textLength="27" x="12" y="234.4668">run()</text><!--class Runner--><polygon fill="#FEFECE" filter="url(#f6nvf4f)" points="83.5,187.6992,83.5,188.4165,92.9,188.4196,102.3,187.419,111.7,188.2602,121.1,187.4779,130.5,187.6992,130.682,187.6992,131.239,198.3168,130.4799,208.9344,130.8856,219.552,130.6143,230.1695,130.5,240.7871,130.5,240.2083,121.1,240.7415,111.7,240.825,102.3,241.0703,92.9,241.1244,83.5,240.7871,83.2048,240.7871,84.1359,230.1695,83.7881,219.552,83.6119,208.9344,84.2085,198.3168,83.5,187.6992" style="stroke: #A80036; stroke-width: 1.5;"/><text fill="#000000" font-family="sans-serif" font-size="12" lengthAdjust="spacingAndGlyphs" textLength="41" x="86.5" y="204.3008">Runner</text><path d="M84.5,211.832 L84.5,212.3021 L93.5,212.1457 L102.5,210.9362 L111.5,212.5271 L120.5,211.281 L129.5,211.832 " fill="#FEFECE" style="stroke: #A80036; stroke-width: 1.5;"/><path d="M84.5,219.832 L84.5,220.542 L93.5,220.3051 L102.5,219.8727 L111.5,219.9263 L120.5,219.2408 L129.5,219.832 " fill="#FEFECE" style="stroke: #A80036; stroke-width: 1.5;"/><text fill="#000000" font-family="sans-serif" font-size="11" lengthAdjust="spacingAndGlyphs" textLength="27" x="89.5" y="234.4668">run()</text><!--class Application--><polygon fill="#FEFECE" filter="url(#f6nvf4f)" points="166,187.6992,166,187.834,176,187.2479,186,188.2428,196,187.035,206,188.3975,216,187.9533,226,187.3417,236,187.6992,235.302,187.6992,236.5328,198.3168,235.3362,208.9344,235.2857,219.552,236.5944,230.1695,236,240.7871,236,240.2391,226,241.1147,216,241.1254,206,240.1221,196,240.038,186,240.7769,176,240.5463,166,240.7871,165.7594,240.7871,165.7277,230.1695,165.775,219.552,166.2248,208.9344,166.5527,198.3168,166,187.6992" style="stroke: #A80036; stroke-width: 1.5;"/><text fill="#000000" font-family="sans-serif" font-size="12" lengthAdjust="spacingAndGlyphs" textLength="64" x="169" y="204.3008">Application</text><path d="M167,211.832 L167,211.2738 L176.7143,210.9018 L186.4286,211.0473 L196.1429,212.1452 L205.8571,210.8503 L215.5714,212.4629 L225.2857,212.0978 L235,211.832 " fill="#FEFECE" style="stroke: #A80036; stroke-width: 1.5;"/><path d="M167,219.832 L167,219.7538 L176.7143,219.2709 L186.4286,220.2281 L196.1429,220.5381 L205.8571,220.452 L215.5714,220.0649 L225.2857,220.1241 L235,219.832 " fill="#FEFECE" style="stroke: #A80036; stroke-width: 1.5;"/><text fill="#000000" font-family="sans-serif" font-size="11" lengthAdjust="spacingAndGlyphs" textLength="44" x="172" y="234.4668">handle()</text><!--class ControllerFactory--><polygon fill="#FEFECE" filter="url(#f6nvf4f)" points="271.5,187.6992,271.5,188.2029,281.8,188.1618,292.1,188.2543,302.4,187.4154,312.7,187.7679,323,187.4765,333.3,188.0948,343.6,187.8791,353.9,186.9683,364.2,188.099,374.5,187.6992,375.1925,187.6992,374.1132,198.3168,374.5809,208.9344,374.6689,219.552,374.711,230.1695,374.5,240.7871,374.5,240.7352,364.2,240.5511,353.9,240.701,343.6,241.031,333.3,240.6197,323,240.2691,312.7,241.1392,302.4,240.6751,292.1,240.8347,281.8,240.4316,271.5,240.7871,272.1875,240.7871,270.8863,230.1695,270.7845,219.552,271.0168,208.9344,271.9975,198.3168,271.5,187.6992" style="stroke: #A80036; stroke-width: 1.5;"/><text fill="#000000" font-family="sans-serif" font-size="12" lengthAdjust="spacingAndGlyphs" textLength="97" x="274.5" y="204.3008">ControllerFactory</text><path d="M272.5,211.832 L272.5,211.906 L282.6,211.6458 L292.7,211.3408 L302.8,211.3773 L312.9,211.0867 L323,212.5619 L333.1,211.0448 L343.2,211.4848 L353.3,211.2945 L363.4,211.2591 L373.5,211.832 " fill="#FEFECE" style="stroke: #A80036; stroke-width: 1.5;"/><path d="M272.5,219.832 L272.5,219.3822 L282.6,219.7945 L292.7,219.5487 L302.8,219.7763 L312.9,220.2468 L323,219.3454 L333.1,220.431 L343.2,218.9579 L353.3,219.422 L363.4,220.3582 L373.5,219.832 " fill="#FEFECE" style="stroke: #A80036; stroke-width: 1.5;"/><text fill="#000000" font-family="sans-serif" font-size="11" lengthAdjust="spacingAndGlyphs" textLength="43" x="277.5" y="234.4668">invoke()</text><!--class Admin\XxxsController--><polygon fill="#FEFECE" filter="url(#f6nvf4f)" points="409.5,155.1992,409.5,155.6265,419.6875,155.6707,429.875,154.4773,440.0625,154.5853,450.25,155.0259,460.4375,155.797,470.625,154.6414,480.8125,155.7835,491,155.4759,501.1875,155.3962,511.375,154.8464,521.5625,154.9703,531.75,154.7084,541.9375,155.511,552.125,155.2186,562.3125,155.8975,572.5,155.1992,572.8949,155.1992,573.1485,165.0212,571.7887,174.8431,571.8443,184.665,572.4663,194.487,573.0027,204.3089,571.9587,214.1309,572.9807,223.9528,572.4758,233.7747,572.8615,243.5967,572.8527,253.4186,573.0961,263.2406,572.5,273.0625,572.5,273.7698,562.3125,273.623,552.125,272.4196,541.9375,272.6371,531.75,272.623,521.5625,273.7271,511.375,272.8054,501.1875,272.9497,491,272.4378,480.8125,272.8655,470.625,273.4646,460.4375,273.5003,450.25,273.1117,440.0625,273.5727,429.875,273.2423,419.6875,273.6588,409.5,273.0625,409.228,273.0625,409.2184,263.2406,409.7163,253.4186,409.3642,243.5967,410.2178,233.7747,409.9009,223.9528,409.8399,214.1309,409.546,204.3089,408.7735,194.487,408.9885,184.665,410.0685,174.8431,409.2364,165.0212,409.5,155.1992" style="stroke: #A80036; stroke-width: 1.5;"/><text fill="#000000" font-family="sans-serif" font-size="12" lengthAdjust="spacingAndGlyphs" textLength="127" x="427.5" y="171.8008">Admin\XxxsController</text><path d="M410.5,179.332 L410.5,180.0924 L420.5625,180.0877 L430.625,179.574 L440.6875,178.5278 L450.75,179.9345 L460.8125,180.021 L470.875,180.1644 L480.9375,179.017 L491,178.6387 L501.0625,180.2369 L511.125,179.5909 L521.1875,179.0946 L531.25,179.8414 L541.3125,178.4035 L551.375,180.0444 L561.4375,180.1055 L571.5,179.332 " fill="#FEFECE" style="stroke: #A80036; stroke-width: 1.5;"/><text fill="#000000" font-family="sans-serif" font-size="11" lengthAdjust="spacingAndGlyphs" textLength="151" x="415.5" y="193.9668">+AuthenticationComponent</text><path d="M410.5,200.2871 L410.5,199.8898 L420.5625,200.9609 L430.625,200.1979 L440.6875,200.8267 L450.75,199.3748 L460.8125,200.4783 L470.875,200.6679 L480.9375,200.5622 L491,200.9013 L501.0625,201.0161 L511.125,199.3855 L521.1875,199.3823 L531.25,200.3749 L541.3125,201.2663 L551.375,199.4388 L561.4375,199.6218 L571.5,200.2871 " fill="#FEFECE" style="stroke: #A80036; stroke-width: 1.5;"/><text fill="#000000" font-family="sans-serif" font-size="11" lengthAdjust="spacingAndGlyphs" textLength="85" x="415.5" y="214.9219">一覧データ取得()</text><text fill="#000000" font-family="sans-serif" font-size="11" lengthAdjust="spacingAndGlyphs" textLength="85" x="415.5" y="227.877">単一データ取得()</text><text fill="#000000" font-family="sans-serif" font-size="11" lengthAdjust="spacingAndGlyphs" textLength="52" x="415.5" y="240.832">新規追加()</text><text fill="#000000" font-family="sans-serif" font-size="11" lengthAdjust="spacingAndGlyphs" textLength="30" x="415.5" y="253.7871">編集()</text><text fill="#000000" font-family="sans-serif" font-size="11" lengthAdjust="spacingAndGlyphs" textLength="30" x="415.5" y="266.7422">削除()</text><!--class BcApiController--><polygon fill="#FEFECE" filter="url(#f6nvf4f)" points="444,29.1992,444,29.6408,454.4444,29.0023,464.8889,29.0493,475.3333,28.6987,485.7778,29.5006,496.2222,28.6261,506.6667,28.5988,517.1111,29.5539,527.5556,29.3445,538,29.1992,537.4616,29.1992,537.3598,38.6339,538.0657,48.0686,538.2289,57.5033,538.4512,66.9381,537.6002,76.3728,537.5018,85.8075,538,95.2422,538,95.4223,527.5556,95.1525,517.1111,94.5934,506.6667,94.7656,496.2222,95.0416,485.7778,95.8418,475.3333,95.129,464.8889,95.1967,454.4444,95.4437,444,95.2422,444.6107,95.2422,443.7257,85.8075,444.2239,76.3728,443.7113,66.9381,444.4557,57.5033,443.2898,48.0686,444.1837,38.6339,444,29.1992" style="stroke: #A80036; stroke-width: 1.5;"/><text fill="#000000" font-family="sans-serif" font-size="12" lengthAdjust="spacingAndGlyphs" textLength="88" x="447" y="45.8008">BcApiController</text><path d="M445,53.332 L445,53.1008 L455.2222,53.3171 L465.4444,54.1553 L475.6667,53.7593 L485.8889,54.1333 L496.1111,53.8549 L506.3333,52.3631 L516.5556,53.7317 L526.7778,52.6376 L537,53.332 " fill="#FEFECE" style="stroke: #A80036; stroke-width: 1.5;"/><path d="M445,61.332 L445,60.8349 L455.2222,62.0497 L465.4444,60.6924 L475.6667,61.9155 L485.8889,60.9108 L496.1111,61.7174 L506.3333,60.8133 L516.5556,61.6602 L526.7778,61.5537 L537,61.332 " fill="#FEFECE" style="stroke: #A80036; stroke-width: 1.5;"/><text fill="#000000" font-family="sans-serif" font-size="11" lengthAdjust="spacingAndGlyphs" textLength="78" x="450" y="75.9668">invokeAction()</text><text fill="#000000" font-family="sans-serif" font-size="11" lengthAdjust="spacingAndGlyphs" textLength="44" x="450" y="88.9219">render()</text><!--class JsonView--><polygon fill="#FEFECE" filter="url(#f6nvf4f)" points="607.5,187.6992,607.5,188.3958,617,187.2729,626.5,187.9658,636,187.9058,645.5,188.1825,655,187.7582,664.5,187.6992,664.4492,187.6992,664.4479,198.3168,663.9787,208.9344,664.0645,219.552,664.0678,230.1695,664.5,240.7871,664.5,240.1012,655,241.3921,645.5,240.449,636,241.0499,626.5,240.3472,617,240.4905,607.5,240.7871,608.1918,240.7871,607.1215,230.1695,607.1206,219.552,606.7899,208.9344,607.713,198.3168,607.5,187.6992" style="stroke: #A80036; stroke-width: 1.5;"/><text fill="#000000" font-family="sans-serif" font-size="12" lengthAdjust="spacingAndGlyphs" textLength="51" x="610.5" y="204.3008">JsonView</text><path d="M608.5,211.832 L608.5,212.276 L617.6667,211.9182 L626.8333,211.6782 L636,212.3077 L645.1667,211.6989 L654.3333,211.8694 L663.5,211.832 " fill="#FEFECE" style="stroke: #A80036; stroke-width: 1.5;"/><path d="M608.5,219.832 L608.5,219.8574 L617.6667,220.6532 L626.8333,219.8016 L636,220.2557 L645.1667,220.3202 L654.3333,219.825 L663.5,219.832 " fill="#FEFECE" style="stroke: #A80036; stroke-width: 1.5;"/><text fill="#000000" font-family="sans-serif" font-size="11" lengthAdjust="spacingAndGlyphs" textLength="44" x="613.5" y="234.4668">render()</text><!--class XxxService--><polygon fill="#FEFECE" filter="url(#f6nvf4f)" points="455.5,359.1992,455.5,359.8272,465.6429,358.671,475.7857,358.8738,485.9286,358.5536,496.0714,359.8696,506.2143,359.1152,516.3571,358.5116,526.5,359.1992,526.2162,359.1992,526.7758,369.8168,525.9806,380.4344,526.7439,391.052,527.2271,401.6695,526.5,412.2871,526.5,411.9346,516.3571,412.7118,506.2143,411.955,496.0714,412.7345,485.9286,412.672,475.7857,412.5582,465.6429,411.6308,455.5,412.2871,455.0972,412.2871,456.0772,401.6695,455.6741,391.052,455.3209,380.4344,454.8831,369.8168,455.5,359.1992" style="stroke: #A80036; stroke-width: 1.5;"/><text fill="#000000" font-family="sans-serif" font-size="12" lengthAdjust="spacingAndGlyphs" textLength="62" x="460" y="375.8008">XxxService</text><path d="M456.5,383.332 L456.5,382.9792 L466.3571,382.9609 L476.2143,383.8169 L486.0714,383.3774 L495.9286,382.514 L505.7857,383.372 L515.6429,383.7772 L525.5,383.332 " fill="#FEFECE" style="stroke: #A80036; stroke-width: 1.5;"/><text fill="#000000" font-family="sans-serif" font-size="11" lengthAdjust="spacingAndGlyphs" textLength="59" x="461.5" y="397.9668">+XxxTable</text><path d="M456.5,404.2871 L456.5,404.5445 L466.3571,404.2925 L476.2143,403.8842 L486.0714,404.493 L495.9286,404.0864 L505.7857,403.5441 L515.6429,403.8502 L525.5,404.2871 " fill="#FEFECE" style="stroke: #A80036; stroke-width: 1.5;"/><!--class XxxServiceInterface--><polygon fill="#FEFECE" filter="url(#f6nvf4f)" points="302,333.1992,302,333.4245,311.8333,333.7442,321.6667,332.8766,331.5,333.0233,341.3333,333.506,351.1667,333.355,361,333.6207,370.8333,332.7393,380.6667,332.6144,390.5,333.3339,400.3333,333.8127,410.1667,333.6221,420,333.1992,420.6982,333.1992,419.6958,343.69,419.3163,354.1809,420.7261,364.6717,419.5717,375.1625,420.0367,385.6533,420.2693,396.1441,419.9668,406.635,419.603,417.1258,419.3246,427.6166,420,438.1074,420,437.7773,410.1667,438.8365,400.3333,437.8246,390.5,437.9234,380.6667,438.8451,370.8333,438.6214,361,438.4,351.1667,437.7493,341.3333,438.8404,331.5,438.7041,321.6667,438.6906,311.8333,438.0717,302,438.1074,301.3594,438.1074,301.7233,427.6166,301.6726,417.1258,301.9047,406.635,301.3786,396.1441,301.6177,385.6533,301.8239,375.1625,302.3507,364.6717,302.3049,354.1809,302.1695,343.69,302,333.1992" style="stroke: #A80036; stroke-width: 1.5;"/><text fill="#000000" font-family="sans-serif" font-size="12" lengthAdjust="spacingAndGlyphs" textLength="112" x="305" y="349.8008">XxxServiceInterface</text><path d="M303,357.332 L303,357.5074 L312.6667,357.2924 L322.3333,356.9715 L332,357.1275 L341.6667,357.7655 L351.3333,357.335 L361,358.1876 L370.6667,357.7376 L380.3333,357.1984 L390,358.1951 L399.6667,356.7689 L409.3333,357.8235 L419,357.332 " fill="#FEFECE" style="stroke: #A80036; stroke-width: 1.5;"/><path d="M303,365.332 L303,364.6239 L312.6667,365.5333 L322.3333,365.3737 L332,365.3762 L341.6667,364.4562 L351.3333,365.9418 L361,365.7311 L370.6667,365.1167 L380.3333,365.7889 L390,365.486 L399.6667,365.7613 L409.3333,364.6732 L419,365.332 " fill="#FEFECE" style="stroke: #A80036; stroke-width: 1.5;"/><text fill="#000000" font-family="sans-serif" font-size="11" lengthAdjust="spacingAndGlyphs" textLength="30" x="308" y="379.9668">作成()</text><text fill="#000000" font-family="sans-serif" font-size="11" lengthAdjust="spacingAndGlyphs" textLength="30" x="308" y="392.9219">編集()</text><text fill="#000000" font-family="sans-serif" font-size="11" lengthAdjust="spacingAndGlyphs" textLength="85" x="308" y="405.877">単一データ取得()</text><text fill="#000000" font-family="sans-serif" font-size="11" lengthAdjust="spacingAndGlyphs" textLength="85" x="308" y="418.832">一覧データ取得()</text><text fill="#000000" font-family="sans-serif" font-size="11" lengthAdjust="spacingAndGlyphs" textLength="85" x="308" y="431.7871">初期データ取得()</text><!--class XxxTable--><polygon fill="#FEFECE" filter="url(#f6nvf4f)" points="460.5,498.1992,460.5,498.4376,470.6667,498.1315,480.8333,497.7985,491,498.1501,501.1667,498.1999,511.3333,498.9032,521.5,498.1992,521.4772,498.1992,521.2794,506.2258,521.5688,514.2523,521.5673,522.2789,521.3454,530.3055,521.5,538.332,521.5,538.9585,511.3333,537.85,501.1667,537.7862,491,537.8685,480.8333,537.9457,470.6667,538.9331,460.5,538.332,460.5819,538.332,460.6368,530.3055,460.4402,522.2789,460.7315,514.2523,460.7163,506.2258,460.5,498.1992" style="stroke: #A80036; stroke-width: 1.5;"/><text fill="#000000" font-family="sans-serif" font-size="12" lengthAdjust="spacingAndGlyphs" textLength="55" x="463.5" y="514.8008">XxxTable</text><path d="M461.5,522.332 L461.5,523.2769 L471.3333,523.1761 L481.1667,521.367 L491,522.0846 L500.8333,522.6246 L510.6667,522.3176 L520.5,522.332 " fill="#FEFECE" style="stroke: #A80036; stroke-width: 1.5;"/><path d="M461.5,530.332 L461.5,530.8637 L471.3333,529.8963 L481.1667,530.028 L491,531.0127 L500.8333,529.3753 L510.6667,529.8576 L520.5,530.332 " fill="#FEFECE" style="stroke: #A80036; stroke-width: 1.5;"/><!--class Xxx--><polygon fill="#FEFECE" filter="url(#f6nvf4f)" points="477,598.1992,477,598.036,482.6,598.3223,488.2,598.4192,493.8,598.1661,499.4,598.1213,505,598.1992,504.7782,598.1992,504.8884,606.2258,505.2396,614.2523,505.1953,622.2789,505.119,630.3055,505,638.332,505,638.2477,499.4,638.3069,493.8,638.3448,488.2,638.2454,482.6,638.3867,477,638.332,476.8184,638.332,477.0473,630.3055,476.9638,622.2789,476.8646,614.2523,476.858,606.2258,477,598.1992" style="stroke: #A80036; stroke-width: 1.5;"/><text fill="#000000" font-family="sans-serif" font-size="12" lengthAdjust="spacingAndGlyphs" textLength="22" x="480" y="614.8008">Xxx</text><path d="M478,622.332 L478,622.6 L483.2,622.0492 L488.4,622.437 L493.6,622.0272 L498.8,622.1291 L504,622.332 " fill="#FEFECE" style="stroke: #A80036; stroke-width: 1.5;"/><path d="M478,630.332 L478,630.5007 L483.2,630.358 L488.4,630.0099 L493.6,630.1283 L498.8,630.4545 L504,630.332 " fill="#FEFECE" style="stroke: #A80036; stroke-width: 1.5;"/><path d="M48.25,214.1992 L48.25,213.9565 L54.19,214.4054 L60.13,214.0074 L66.07,214.34 L72.01,214.034 L77.95,214.1992 " fill="none" style="stroke: #000000; stroke-width: 1.0;"/><polygon fill="#000000" points="83.13,214.1992,83.124,214.1857,81.3747,213.4997,79.5449,212.6329,77.7232,211.7839,76.0313,211.2272,74.13,210.1992,74.1473,210.2165,75.0217,211.0909,75.5659,211.6351,76.4819,212.5512,77.4743,213.5436,78.13,214.1992,78.0695,214.1387,77.4968,215.166,76.6093,215.8785,75.8865,216.7557,74.8035,217.2727,74.13,218.1992,74.1337,218.2075,75.9674,217.4834,77.6715,216.4676,79.5948,215.9449,81.3467,215.0369,83.13,214.1992" style="stroke: #000000; stroke-width: 1.0;"/><path d="M130.87,214.1992 L130.87,214.4455 L136.842,214.0088 L142.814,214.2001 L148.786,214.2609 L154.758,214.456 L160.73,214.1992 " fill="none" style="stroke: #000000; stroke-width: 1.0;"/><polygon fill="#000000" points="165.93,214.1992,166.0155,214.3916,164.0422,213.2016,162.3822,212.7167,160.6016,211.9603,158.6717,210.868,156.93,210.1992,157.0609,210.3301,157.8417,211.1109,158.4192,211.6884,159.2047,212.474,160.0734,213.3426,160.93,214.1992,160.776,214.0452,159.9872,214.8564,159.1839,215.6531,158.6757,216.7449,157.8093,217.4785,156.93,218.1992,156.919,218.1744,158.8264,217.6162,160.5671,216.6826,162.3556,215.8568,164.0534,214.8268,165.93,214.1992" style="stroke: #000000; stroke-width: 1.0;"/><path d="M236.27,214.1992 L236.27,214.048 L242.212,213.8704 L248.154,214.2921 L254.096,214.4626 L260.038,214.2507 L265.98,214.1992 " fill="none" style="stroke: #000000; stroke-width: 1.0;"/><polygon fill="#000000" points="271.16,214.1992,271.24,214.3793,269.3334,213.3393,267.6506,212.803,265.7271,211.7252,263.9679,211.0169,262.16,210.1992,262.0868,210.126,263.0628,211.102,263.8496,211.8888,264.6164,212.6556,265.4622,213.5014,266.16,214.1992,266.0448,214.084,265.3793,215.0185,264.5585,215.7977,263.7036,216.5428,263.0522,217.4914,262.16,218.1992,262.0993,218.0626,263.9245,217.3193,265.7947,216.6774,267.6598,216.0238,269.4328,215.1631,271.16,214.1992" style="stroke: #000000; stroke-width: 1.0;"/><path d="M374.52,214.1992 L374.52,214.0194 L380.408,214.2587 L386.296,214.1339 L392.184,214.2031 L398.072,214.2321 L403.96,214.1992 " fill="none" style="stroke: #000000; stroke-width: 1.0;"/><polygon fill="#000000" points="409.1,214.1992,409.1952,214.4135,407.3892,213.5998,405.5134,212.6294,403.8001,212.0244,401.9031,211.0062,400.1,210.1992,400.069,210.1682,400.9423,211.0415,401.808,211.9072,402.6029,212.7021,403.1807,213.2799,404.1,214.1992,404.273,214.3722,403.3309,215.0301,402.4627,215.7619,401.6312,216.5304,400.8423,217.3415,400.1,218.1992,400.0937,218.1849,401.8377,217.2591,403.7086,216.6186,405.5687,215.9538,407.2513,214.8897,409.1,214.1992" style="stroke: #000000; stroke-width: 1.0;"/><path d="M572.56,214.1992 L572.56,213.945 L578.47,214.1993 L584.38,213.8866 L590.29,214.5115 L596.2,214.0173 L602.11,214.1992 " fill="none" style="stroke: #000000; stroke-width: 1.0;"/><polygon fill="#000000" points="607.25,214.1992,607.3264,214.3711,605.3581,213.1924,603.6853,212.6786,601.8551,211.8107,600.0146,210.9196,598.25,210.1992,598.3083,210.2576,598.9563,210.9055,599.8294,211.7786,600.4843,212.4335,601.4172,213.3665,602.25,214.1992,602.275,214.2242,601.5596,215.1089,600.5576,215.7068,599.9677,216.717,599.0227,217.372,598.25,218.1992,598.3094,218.3328,600.098,217.5073,601.7782,216.4377,603.6477,215.794,605.4204,214.9327,607.25,214.1992" style="stroke: #000000; stroke-width: 1.0;"/><path d="M491,273.5292 L490.5831,273.5292 L490.6998,283.5592 L491.2786,293.5892 L491.298,303.6192 L490.8525,313.6492 L490.6857,323.6792 L491.246,333.7092 L490.06,343.7392 L491,353.7692 " fill="none" style="stroke: #000000; stroke-width: 1.0;"/><polygon fill="#000000" points="491,358.9792,491.0679,359.0094,491.867,357.209,492.4441,355.31,493.3357,353.5507,494.1144,351.7412,495,349.9792,495.1085,350.0877,494.2714,350.8506,493.5124,351.6916,492.6672,352.4464,491.9718,353.3511,491,353.9792,490.9493,353.9285,490.2224,353.2016,489.434,352.4132,488.7129,351.6921,487.7898,350.769,487,349.9792,486.9116,349.9399,488.0278,351.8804,488.4892,353.53,489.3254,355.3461,490.0663,357.1198,491,358.9792" style="stroke: #000000; stroke-width: 1.0;"/><path d="M491,115.6192 L490.9921,115.6192 L491.2416,123.5052 L490.7672,131.3912 L490.9318,139.2772 L490.8467,147.1632 L491,155.0492 " fill="none" style="stroke: #000000; stroke-width: 1.0;"/><polygon fill="none" points="484,115.3792,484.1727,115.4397,485.6318,111.4603,487.0174,107.4553,488.1809,103.3725,489.4726,99.3346,491,95.3792,491.2189,95.4558,492.3023,99.345,494.0097,103.4526,495.4237,107.4575,496.8192,111.4559,498,115.3792,498,115.3682,495.2,115.5724,492.4,115.2072,489.6,115.4279,486.8,115.4225,484,115.3792" style="stroke: #000000; stroke-width: 1.0;"/><path d="M440.2,385.6992 L440.2,385.4288 L443.22,385.4392 L446.24,385.8725 L449.26,385.8419 L452.28,385.3712 L455.3,385.6992 " fill="none" style="stroke: #000000; stroke-width: 1.0; stroke-dasharray: 1.0,3.0;"/><polygon fill="none" points="440.16,392.6992,440.2167,392.8611,436.1098,391.1557,432.0832,389.6798,428.2212,388.6741,424.2269,387.2902,420.16,385.6992,420.2363,385.9173,424.116,384.1734,428.2208,383.073,432.1654,381.5146,436.1185,379.9805,440.16,378.6992,440.0769,378.6992,440.1809,381.4992,440.1428,384.2992,440.0661,387.0992,440.0192,389.8992,440.16,392.6992" style="stroke: #000000; stroke-width: 1.0;"/><path d="M491,412.4792 L491.3096,412.4792 L491.0036,422.4892 L490.9418,432.4992 L491.938,442.5092 L491.8544,452.5192 L491.3075,462.5292 L490.223,472.5392 L491.2456,482.5492 L491,492.5592 " fill="none" style="stroke: #000000; stroke-width: 1.0;"/><polygon fill="#000000" points="491,497.8392,491.0488,497.8609,491.8556,496.0639,492.6175,494.247,493.6156,492.535,494.3181,490.6917,495,488.8392,494.9197,488.7589,494.089,489.5283,493.4605,490.4997,492.5675,491.2067,491.93,492.1692,491,492.8392,490.9213,492.7606,490.0765,491.9157,489.3187,491.1579,488.753,490.5922,487.7625,489.6017,487,488.8392,487.0695,488.8701,487.9066,490.6866,488.7894,492.5234,489.4778,494.2738,490.027,495.9623,491,497.8392" style="stroke: #000000; stroke-width: 1.0;"/><path d="M491,538.5592 L490.1145,538.5592 L490.1985,549.4192 L490.8026,560.2792 L491.4141,571.1392 L490.7334,581.9992 L491,592.8592 " fill="none" style="stroke: #000000; stroke-width: 1.0;"/><polygon fill="#000000" points="491,597.8792,491.094,597.921,491.9256,596.1351,492.4694,594.2212,493.6267,592.58,494.2421,590.6979,495,588.8792,494.8989,588.7781,494.0445,589.5237,493.2441,590.3234,492.6471,591.3264,491.7727,592.0519,491,592.8792,490.851,592.7302,490.2948,592.1741,489.4149,591.2941,488.6668,590.546,487.9384,589.8176,487,588.8792,486.7912,588.7864,487.8974,590.7225,488.5049,592.4369,489.4281,594.2917,490.1004,596.0349,491,597.8792" style="stroke: #000000; stroke-width: 1.0;"/></g></svg>