<?xml version="1.0" encoding="UTF-8" standalone="no"?><svg xmlns="http://www.w3.org/2000/svg" xmlns:xlink="http://www.w3.org/1999/xlink" contentScriptType="application/ecmascript" contentStyleType="text/css" height="1173px" preserveAspectRatio="none" style="width:860px;height:1173px;" version="1.1" viewBox="0 0 860 1173" width="860px" zoomAndPan="magnify"><defs><filter height="300%" id="fv0bave" width="300%" x="-1" y="-1"><feGaussianBlur result="blurOut" stdDeviation="2.0"/><feColorMatrix in="blurOut" result="blurOut2" type="matrix" values="0 0 0 0 0 0 0 0 0 0 0 0 0 0 0 0 0 0 .4 0"/><feOffset dx="4.0" dy="4.0" in="blurOut2" result="blurOut3"/><feBlend in="SourceGraphic" in2="blurOut3" mode="normal"/></filter></defs><g><text fill="#000000" font-family="sans-serif" font-size="18" lengthAdjust="spacingAndGlyphs" textLength="126" x="371.5" y="17.4023">コンテンツ管理</text><!--class Admin\ContentsController--><polygon fill="#FEFECE" filter="url(#fv0bave)" points="314.5,55.1992,314.5,55.4752,324.6875,55.584,334.875,54.7854,345.0625,54.9159,355.25,55.378,365.4375,55.4554,375.625,55.0286,385.8125,54.7443,396,55.5244,406.1875,55.7495,416.375,55.6247,426.5625,54.6098,436.75,55.6613,446.9375,55.933,457.125,54.9984,467.3125,55.9237,477.5,55.1992,477.6644,55.1992,477.4103,65.4162,477.0577,75.6332,477.5258,85.8503,478.1434,96.0673,476.8177,106.2843,476.852,116.5013,477.6148,126.7183,478.2243,136.9353,477.5,147.1523,477.5,147.6119,467.3125,147.6185,457.125,147.1816,446.9375,146.517,436.75,146.5279,426.5625,147.4653,416.375,146.5724,406.1875,146.7329,396,147.5987,385.8125,147.4875,375.625,147.0627,365.4375,147.0641,355.25,146.5655,345.0625,147.7919,334.875,147.8376,324.6875,147.2343,314.5,147.1523,314.4615,147.1523,315.0425,136.9353,314.8622,126.7183,313.8066,116.5013,313.783,106.2843,314.568,96.0673,315.1423,85.8503,314.2581,75.6332,314.9832,65.4162,314.5,55.1992" style="stroke: #A80036; stroke-width: 1.5;"/><text fill="#000000" font-family="sans-serif" font-size="12" lengthAdjust="spacingAndGlyphs" textLength="149" x="321.5" y="71.8008">Admin\ContentsController</text><path d="M315.5,79.332 L315.5,78.4236 L325.5625,79.1 L335.625,79.3623 L345.6875,80.0599 L355.75,78.7129 L365.8125,80.0037 L375.875,79.3001 L385.9375,79.0671 L396,80.0968 L406.0625,80.1356 L416.125,79.1409 L426.1875,79.2919 L436.25,79.9233 L446.3125,79.9644 L456.375,79.9212 L466.4375,79.1578 L476.5,79.332 " fill="#FEFECE" style="stroke: #A80036; stroke-width: 1.5;"/><text fill="#000000" font-family="sans-serif" font-size="11" lengthAdjust="spacingAndGlyphs" textLength="151" x="320.5" y="93.9668">+AuthenticationComponent</text><text fill="#000000" font-family="sans-serif" font-size="11" lengthAdjust="spacingAndGlyphs" textLength="130" x="320.5" y="106.9219">+BcMessageComponent</text><text fill="#000000" font-family="sans-serif" font-size="11" lengthAdjust="spacingAndGlyphs" textLength="133" x="320.5" y="119.877">+BcContentsComponent</text><path d="M315.5,126.1973 L315.5,126.8876 L325.5625,125.3464 L335.625,127.0174 L345.6875,126.5702 L355.75,126.7964 L365.8125,126.6925 L375.875,126.5546 L385.9375,125.8764 L396,126.638 L406.0625,126.8688 L416.125,125.3956 L426.1875,126.7185 L436.25,126.3375 L446.3125,126.6948 L456.375,126.133 L466.4375,125.5532 L476.5,126.1973 " fill="#FEFECE" style="stroke: #A80036; stroke-width: 1.5;"/><text fill="#000000" font-family="sans-serif" font-size="11" lengthAdjust="spacingAndGlyphs" textLength="38" x="320.5" y="140.832">index()</text><!--class BcContentsComponent--><polygon fill="#FEFECE" filter="url(#fv0bave)" points="114.5,29.1992,114.5,28.9511,124.2059,29.652,133.9118,28.593,143.6176,29.6915,153.3235,28.9776,163.0294,29.2342,172.7353,28.9362,182.4412,29.041,192.1471,28.7984,201.8529,29.2899,211.5588,29.4002,221.2647,29.1605,230.9706,29.6213,240.6765,28.5438,250.3824,29.1506,260.0882,29.3402,269.7941,29.5366,279.5,29.1992,279.6553,29.1992,278.864,39.4688,279.724,49.7383,279.882,60.0078,280.2057,70.2773,279.0451,80.5469,279.6303,90.8164,279.4531,101.0859,279.5638,111.3555,279.8771,121.625,279.7971,131.8945,279.0571,142.1641,279.3694,152.4336,280.1713,162.7031,279.5,172.9727,279.5,172.254,269.7941,172.983,260.0882,173.7111,250.3824,172.5553,240.6765,172.3445,230.9706,172.3241,221.2647,172.9281,211.5588,172.7551,201.8529,173.0117,192.1471,172.862,182.4412,172.6124,172.7353,173.4629,163.0294,172.3993,153.3235,172.9543,143.6176,172.8037,133.9118,172.3106,124.2059,172.3304,114.5,172.9727,113.8362,172.9727,114.8389,162.7031,114.677,152.4336,114.9805,142.1641,113.831,131.8945,115.2393,121.625,114.8417,111.3555,115.2305,101.0859,115.0744,90.8164,114.5824,80.5469,114.55,70.2773,114.722,60.0078,114.6634,49.7383,114.196,39.4688,114.5,29.1992" style="stroke: #A80036; stroke-width: 1.5;"/><text fill="#000000" font-family="sans-serif" font-size="12" lengthAdjust="spacingAndGlyphs" textLength="129" x="132.5" y="45.8008">BcContentsComponent</text><path d="M115.5,53.332 L115.5,53.4091 L125.6875,54.0106 L135.875,52.4728 L146.0625,52.5729 L156.25,53.1748 L166.4375,53.8352 L176.625,54.1804 L186.8125,52.3927 L197,52.4967 L207.1875,52.5849 L217.375,53.9346 L227.5625,52.8976 L237.75,52.8669 L247.9375,52.4006 L258.125,52.9037 L268.3125,53.593 L278.5,53.332 " fill="#FEFECE" style="stroke: #A80036; stroke-width: 1.5;"/><path d="M115.5,61.332 L115.5,61.2064 L125.6875,61.2838 L135.875,60.9535 L146.0625,61.1441 L156.25,61.7908 L166.4375,60.5384 L176.625,61.8948 L186.8125,62.2283 L197,62.0942 L207.1875,61.9395 L217.375,61.9478 L227.5625,61.8326 L237.75,62.0062 L247.9375,62.2023 L258.125,61.9971 L268.3125,61.6799 L278.5,61.332 " fill="#FEFECE" style="stroke: #A80036; stroke-width: 1.5;"/><text fill="#000000" font-family="sans-serif" font-size="11" lengthAdjust="spacingAndGlyphs" textLength="82" x="120.5" y="75.9668">+setupAdmin()</text><text fill="#000000" font-family="sans-serif" font-size="11" lengthAdjust="spacingAndGlyphs" textLength="76" x="120.5" y="88.9219">+setupFront()</text><text fill="#000000" font-family="sans-serif" font-size="11" lengthAdjust="spacingAndGlyphs" textLength="82" x="120.5" y="101.877">+settingForm()</text><text fill="#000000" font-family="sans-serif" font-size="11" lengthAdjust="spacingAndGlyphs" textLength="153" x="120.5" y="114.832">+getParentLayoutTemplate()</text><text fill="#000000" font-family="sans-serif" font-size="11" lengthAdjust="spacingAndGlyphs" textLength="66" x="120.5" y="127.7871">+getTypes()</text><text fill="#000000" font-family="sans-serif" font-size="11" lengthAdjust="spacingAndGlyphs" textLength="77" x="120.5" y="140.7422">+getContent()</text><text fill="#000000" font-family="sans-serif" font-size="11" lengthAdjust="spacingAndGlyphs" textLength="77" x="120.5" y="153.6973">+getCrumbs()</text><text fill="#000000" font-family="sans-serif" font-size="11" lengthAdjust="spacingAndGlyphs" textLength="90" x="120.5" y="166.6523">+beforeRender()</text><!--class BcAdminContentHelper--><polygon fill="#FEFECE" filter="url(#fv0bave)" points="480.5,330.1992,480.5,330.1684,490.6765,330.3959,500.8529,329.7404,511.0294,330.3886,521.2059,330.142,531.3824,330.6961,541.5588,329.8483,551.7353,329.8303,561.9118,330.2374,572.0882,330.2114,582.2647,329.8199,592.4412,330.1235,602.6176,330.816,612.7941,330.9262,622.9706,330.898,633.1471,330.6559,643.3235,330.2965,653.5,330.1992,653.1153,330.1992,653.7844,339.9789,653.6197,349.7586,653.8806,359.5383,653.8528,369.318,654.0991,379.0977,653.178,388.8773,653.4787,398.657,653.3361,408.4367,653.2132,418.2164,653.6255,427.9961,653.8464,437.7758,653.2534,447.5555,652.8418,457.3352,654.1714,467.1148,654.1048,476.8945,653.0319,486.6742,652.8208,496.4539,653.2084,506.2336,653.2896,516.0133,653.5,525.793,653.5,526.2481,643.3235,525.9825,633.1471,526.2636,622.9706,526.2711,612.7941,526.3969,602.6176,526.1382,592.4412,526.3718,582.2647,525.9171,572.0882,525.3172,561.9118,525.5791,551.7353,526.0987,541.5588,525.4744,531.3824,525.4613,521.2059,526.3174,511.0294,525.9589,500.8529,525.899,490.6765,525.4778,480.5,525.793,479.8359,525.793,479.8532,516.0133,480.6059,506.2336,480.5568,496.4539,480.6082,486.6742,480.0971,476.8945,480.5494,467.1148,480.901,457.3352,480.6665,447.5555,480.7148,437.7758,479.7562,427.9961,479.9434,418.2164,481.0817,408.4367,479.9615,398.657,479.9624,388.8773,479.7808,379.0977,481.1145,369.318,480.7676,359.5383,480.6012,349.7586,480.0238,339.9789,480.5,330.1992" style="stroke: #A80036; stroke-width: 1.5;"/><text fill="#000000" font-family="sans-serif" font-size="12" lengthAdjust="spacingAndGlyphs" textLength="133" x="500.5" y="346.8008">BcAdminContentHelper</text><path d="M481.5,354.332 L481.5,354.4718 L491.5588,354.4164 L501.6176,355.1806 L511.6765,354.0539 L521.7353,354.7308 L531.7941,353.8682 L541.8529,355.0873 L551.9118,354.0571 L561.9706,354.0545 L572.0294,354.3233 L582.0882,354.795 L592.1471,354.1931 L602.2059,353.6285 L612.2647,353.3886 L622.3235,353.5178 L632.3824,354.4689 L642.4412,354.4466 L652.5,354.332 " fill="#FEFECE" style="stroke: #A80036; stroke-width: 1.5;"/><path d="M481.5,362.332 L481.5,362.3017 L491.5588,361.5998 L501.6176,362.7937 L511.6765,362.6795 L521.7353,361.6183 L531.7941,363.2422 L541.8529,362.7031 L551.9118,363.136 L561.9706,363.0983 L572.0294,362.0416 L582.0882,362.9961 L592.1471,361.9818 L602.2059,362.4089 L612.2647,363.2347 L622.3235,361.9985 L632.3824,362.2637 L642.4412,362.2549 L652.5,362.332 " fill="#FEFECE" style="stroke: #A80036; stroke-width: 1.5;"/><text fill="#000000" font-family="sans-serif" font-size="11" lengthAdjust="spacingAndGlyphs" textLength="78" x="486.5" y="376.9668">+getUserList()</text><text fill="#000000" font-family="sans-serif" font-size="11" lengthAdjust="spacingAndGlyphs" textLength="85" x="486.5" y="389.9219">+getListTypes()</text><text fill="#000000" font-family="sans-serif" font-size="11" lengthAdjust="spacingAndGlyphs" textLength="59" x="486.5" y="402.877">+getSites()</text><text fill="#000000" font-family="sans-serif" font-size="11" lengthAdjust="spacingAndGlyphs" textLength="130" x="486.5" y="415.832">+getContentFolderList()</text><text fill="#000000" font-family="sans-serif" font-size="11" lengthAdjust="spacingAndGlyphs" textLength="47" x="486.5" y="428.7871">+setup()</text><text fill="#000000" font-family="sans-serif" font-size="11" lengthAdjust="spacingAndGlyphs" textLength="109" x="486.5" y="441.7422">+isActionAvailable()</text><text fill="#000000" font-family="sans-serif" font-size="11" lengthAdjust="spacingAndGlyphs" textLength="98" x="486.5" y="454.6973">-_getExistsTitles()</text><text fill="#000000" font-family="sans-serif" font-size="11" lengthAdjust="spacingAndGlyphs" textLength="76" x="486.5" y="467.6523">-_getIconUrl()</text><text fill="#000000" font-family="sans-serif" font-size="11" lengthAdjust="spacingAndGlyphs" textLength="100" x="486.5" y="480.6074">+getJsonSettings()</text><text fill="#000000" font-family="sans-serif" font-size="11" lengthAdjust="spacingAndGlyphs" textLength="68" x="486.5" y="493.5625">+isEditable()</text><text fill="#000000" font-family="sans-serif" font-size="11" lengthAdjust="spacingAndGlyphs" textLength="161" x="486.5" y="506.5176">+getCurrentFolderLinkedUrl()</text><text fill="#000000" font-family="sans-serif" font-size="11" lengthAdjust="spacingAndGlyphs" textLength="119" x="486.5" y="519.4727">+getFolderLinkedUrl()</text><!--class BcContentsHelper--><polygon fill="#FEFECE" filter="url(#fv0bave)" points="689,272.1992,689,271.5894,699.125,272.327,709.25,272.5899,719.375,272.4905,729.5,271.937,739.625,271.9144,749.75,272.8342,759.875,272.6817,770,271.9664,780.125,272.0678,790.25,272.3753,800.375,271.9871,810.5,272.0772,820.625,271.7272,830.75,272.046,840.875,272.0394,851,272.1992,850.3559,272.1992,850.9986,282.2698,851.4684,292.3405,850.5116,302.4111,851.1118,312.4817,850.6027,322.5524,851.4386,332.623,850.8222,342.6936,850.7425,352.7642,850.9437,362.8349,850.3516,372.9055,851.7207,382.9761,851.1195,393.0467,851.2616,403.1174,850.6604,413.188,851.4474,423.2586,850.5682,433.3293,851.481,443.3999,851.313,453.4705,850.698,463.5411,850.8213,473.6118,851.5728,483.6824,850.7407,493.753,850.9567,503.8237,851.3188,513.8943,850.7542,523.9649,851.0289,534.0355,850.654,544.1062,851.0777,554.1768,850.3518,564.2474,851.0795,574.318,851,584.3887,851,584.6271,840.875,584.1626,830.75,583.7262,820.625,583.9465,810.5,583.7077,800.375,584.7533,790.25,584.5169,780.125,583.8148,770,584.6371,759.875,583.9138,749.75,584.5978,739.625,584.7688,729.5,584.2569,719.375,583.7823,709.25,584.8866,699.125,584.4355,689,584.3887,689.1307,584.3887,689.0963,574.318,688.6211,564.2474,689.3483,554.1768,688.4449,544.1062,688.7712,534.0355,688.9125,523.9649,688.5055,513.8943,688.3678,503.8237,689.3234,493.753,688.4761,483.6824,688.738,473.6118,688.6773,463.5411,688.42,453.4705,688.5782,443.3999,689.3132,433.3293,689.4176,423.2586,688.2779,413.188,689.4477,403.1174,689.2137,393.0467,689.2046,382.9761,689.1066,372.9055,688.2635,362.8349,688.8199,352.7642,689.4145,342.6936,689.1417,332.623,689.7069,322.5524,689.1486,312.4817,689.3554,302.4111,689.0466,292.3405,688.939,282.2698,689,272.1992" style="stroke: #A80036; stroke-width: 1.5;"/><text fill="#000000" font-family="sans-serif" font-size="12" lengthAdjust="spacingAndGlyphs" textLength="102" x="719" y="288.8008">BcContentsHelper</text><path d="M690,296.332 L690,296.8034 L700,295.8543 L710,296.42 L720,295.9826 L730,296.1497 L740,295.9931 L750,296.5758 L760,296.0648 L770,295.9734 L780,295.8042 L790,297.2309 L800,296.144 L810,296.2954 L820,295.92 L830,295.4749 L840,295.4531 L850,296.332 " fill="#FEFECE" style="stroke: #A80036; stroke-width: 1.5;"/><text fill="#000000" font-family="sans-serif" font-size="11" lengthAdjust="spacingAndGlyphs" textLength="85" x="695" y="310.9668">+BcBaserHelper</text><text fill="#000000" font-family="sans-serif" font-size="11" lengthAdjust="spacingAndGlyphs" textLength="84" x="695" y="323.9219">-ContentsTable</text><text fill="#000000" font-family="sans-serif" font-size="11" lengthAdjust="spacingAndGlyphs" textLength="100" x="695" y="336.877">-PermissionsTable</text><path d="M690,343.1973 L690,343.0566 L700,344.0731 L710,343.1837 L720,344.1042 L730,342.7373 L740,342.4582 L750,342.8276 L760,342.2504 L770,343.9292 L780,342.8898 L790,342.7963 L800,342.3477 L810,342.9105 L820,343.755 L830,343.0175 L840,343.6163 L850,343.1973 " fill="#FEFECE" style="stroke: #A80036; stroke-width: 1.5;"/><text fill="#000000" font-family="sans-serif" font-size="11" lengthAdjust="spacingAndGlyphs" textLength="94" x="695" y="357.832">+isAllowPublish()</text><text fill="#000000" font-family="sans-serif" font-size="11" lengthAdjust="spacingAndGlyphs" textLength="72" x="695" y="370.7871">+getUrlById()</text><text fill="#000000" font-family="sans-serif" font-size="11" lengthAdjust="spacingAndGlyphs" textLength="50" x="695" y="383.7422">+getUrl()</text><text fill="#000000" font-family="sans-serif" font-size="11" lengthAdjust="spacingAndGlyphs" textLength="84" x="695" y="396.6973">+isSiteRelated()</text><text fill="#000000" font-family="sans-serif" font-size="11" lengthAdjust="spacingAndGlyphs" textLength="74" x="695" y="409.6523">+getPureUrl()</text><text fill="#000000" font-family="sans-serif" font-size="11" lengthAdjust="spacingAndGlyphs" textLength="150" x="695" y="422.6074">+getCurrentRelatedSiteUrl()</text><text fill="#000000" font-family="sans-serif" font-size="11" lengthAdjust="spacingAndGlyphs" textLength="58" x="695" y="435.5625">+getTree()</text><text fill="#000000" font-family="sans-serif" font-size="11" lengthAdjust="spacingAndGlyphs" textLength="68" x="695" y="448.5176">+getParent()</text><text fill="#000000" font-family="sans-serif" font-size="11" lengthAdjust="spacingAndGlyphs" textLength="141" x="695" y="461.4727">+getRelatedSiteContents()</text><text fill="#000000" font-family="sans-serif" font-size="11" lengthAdjust="spacingAndGlyphs" textLength="120" x="695" y="474.4277">+getRelatedSiteLinks()</text><text fill="#000000" font-family="sans-serif" font-size="11" lengthAdjust="spacingAndGlyphs" textLength="130" x="695" y="487.3828">+getContentFolderList()</text><text fill="#000000" font-family="sans-serif" font-size="11" lengthAdjust="spacingAndGlyphs" textLength="78" x="695" y="500.3379">+getSiteRoot()</text><text fill="#000000" font-family="sans-serif" font-size="11" lengthAdjust="spacingAndGlyphs" textLength="88" x="695" y="513.293">+getSiteRootId()</text><text fill="#000000" font-family="sans-serif" font-size="11" lengthAdjust="spacingAndGlyphs" textLength="129" x="695" y="526.248">+getContentByEntityId()</text><text fill="#000000" font-family="sans-serif" font-size="11" lengthAdjust="spacingAndGlyphs" textLength="105" x="695" y="539.2031">+getContentByUrl()</text><text fill="#000000" font-family="sans-serif" font-size="11" lengthAdjust="spacingAndGlyphs" textLength="80" x="695" y="552.1582">-_getContent()</text><text fill="#000000" font-family="sans-serif" font-size="11" lengthAdjust="spacingAndGlyphs" textLength="70" x="695" y="565.1133">+isParentId()</text><text fill="#000000" font-family="sans-serif" font-size="11" lengthAdjust="spacingAndGlyphs" textLength="60" x="695" y="578.0684">+isFolder()</text><!--class ContentService--><polygon fill="#FEFECE" filter="url(#fv0bave)" points="346.5,401.6992,346.5,401.503,356.4,402.3298,366.3,401.4809,376.2,401.8639,386.1,402.189,396,401.3238,405.9,402.43,415.8,401.2563,425.7,401.1441,435.6,401.6241,445.5,401.6992,445.665,401.6992,445.8841,412.3168,445.8249,422.9344,445.2748,433.552,445.0808,444.1695,445.5,454.7871,445.5,454.46,435.6,454.8768,425.7,455.0216,415.8,454.9769,405.9,455.2246,396,454.1649,386.1,454.7979,376.2,454.1051,366.3,455.4505,356.4,454.3881,346.5,454.7871,347.1473,454.7871,346.2919,444.1695,346.433,433.552,347.2429,422.9344,346.4364,412.3168,346.5,401.6992" style="stroke: #A80036; stroke-width: 1.5;"/><text fill="#000000" font-family="sans-serif" font-size="12" lengthAdjust="spacingAndGlyphs" textLength="84" x="354" y="418.3008">ContentService</text><path d="M347.5,425.832 L347.5,426.0413 L357.2,425.7453 L366.9,426.1831 L376.6,425.5335 L386.3,425.7433 L396,425.4666 L405.7,425.7388 L415.4,425.4429 L425.1,426.1416 L434.8,426.0055 L444.5,425.832 " fill="#FEFECE" style="stroke: #A80036; stroke-width: 1.5;"/><text fill="#000000" font-family="sans-serif" font-size="11" lengthAdjust="spacingAndGlyphs" textLength="87" x="352.5" y="440.4668">+ContentsTable</text><path d="M347.5,446.7871 L347.5,446.5825 L357.2,447.4796 L366.9,446.0457 L376.6,446.2109 L386.3,445.9838 L396,446.2263 L405.7,446.6089 L415.4,446.6576 L425.1,446.5354 L434.8,446.1444 L444.5,446.7871 " fill="#FEFECE" style="stroke: #A80036; stroke-width: 1.5;"/><!--class ContentsTable--><polygon fill="#FEFECE" filter="url(#fv0bave)" points="325,897.1992,325,897.2509,335.1429,897.2837,345.2857,896.722,355.4286,897.6142,365.5714,896.5425,375.7143,896.6395,385.8571,897.7293,396,896.5878,406.1429,896.7157,416.2857,896.6446,426.4286,896.6503,436.5714,897.5185,446.7143,897.8567,456.8571,896.8506,467,897.1992,466.5298,897.1992,467.4382,907.8168,467.3938,918.4344,467.2109,929.052,467.3865,939.6695,467,950.2871,467,950.4323,456.8571,949.6212,446.7143,950.8614,436.5714,949.6653,426.4286,950.4778,416.2857,950.3791,406.1429,949.7536,396,950.801,385.8571,950.5636,375.7143,950.3293,365.5714,949.9608,355.4286,950.2577,345.2857,950.4664,335.1429,949.7897,325,950.2871,324.484,950.2871,325.368,939.6695,325.7013,929.052,324.3454,918.4344,324.3289,907.8168,325,897.1992" style="stroke: #A80036; stroke-width: 1.5;"/><text fill="#000000" font-family="sans-serif" font-size="12" lengthAdjust="spacingAndGlyphs" textLength="83" x="354.5" y="913.8008">ContentsTable</text><path d="M326,921.332 L326,922.1191 L336,920.7809 L346,920.8172 L356,920.3549 L366,920.7815 L376,920.691 L386,921.4143 L396,920.5795 L406,922.3286 L416,921.247 L426,921.5193 L436,921.9603 L446,921.4881 L456,920.8647 L466,921.332 " fill="#FEFECE" style="stroke: #A80036; stroke-width: 1.5;"/><path d="M326,929.332 L326,929.1013 L336,929.5582 L346,929.8925 L356,928.8857 L366,929.7676 L376,928.4064 L386,930.0721 L396,929.5096 L406,928.7775 L416,930.1164 L426,929.2715 L436,930.0458 L446,929.6088 L456,929.5422 L466,929.332 " fill="#FEFECE" style="stroke: #A80036; stroke-width: 1.5;"/><text fill="#000000" font-family="sans-serif" font-size="11" lengthAdjust="spacingAndGlyphs" textLength="130" x="331" y="943.9668">+getContentFolderList()</text><!--class Content--><polygon fill="#FEFECE" filter="url(#fv0bave)" points="6,683.1992,6,683.6457,16.1429,683.7458,26.2857,682.5421,36.4286,682.565,46.5714,682.6931,56.7143,682.6586,66.8571,683.4344,77,682.4951,87.1429,683.1751,97.2857,683.3675,107.4286,683.8802,117.5714,683.788,127.7143,683.6456,137.8571,683.6503,148,683.0027,158.1429,683.8439,168.2857,682.8149,178.4286,683.3678,188.5714,683.7817,198.7143,683.3585,208.8571,683.812,219,683.226,229.1429,682.5296,239.2857,683.934,249.4286,682.6205,259.5714,683.4113,269.7143,683.0336,279.8571,683.1786,290,683.1992,289.7281,683.1992,289.5135,693.2118,289.6799,703.2244,289.5711,713.2371,290.289,723.2497,289.9922,733.2623,289.3262,743.2749,290.7166,753.2875,290.2947,763.3001,289.8458,773.3127,289.8328,783.3254,289.2773,793.338,290.1145,803.3506,289.3405,813.3632,290.7244,823.3758,290.0741,833.3884,290.2077,843.401,290.0539,853.4137,289.3379,863.4263,290.0029,873.4389,289.9169,883.4515,290.677,893.4641,290.6165,903.4767,290.6133,913.4893,290.3003,923.502,289.275,933.5146,289.7043,943.5272,290.7059,953.5398,290.1182,963.5524,290.6954,973.565,289.8459,983.5776,289.3046,993.5903,290.0604,1003.6029,290.2415,1013.6155,290.0157,1023.6281,290.0453,1033.6407,289.7917,1043.6533,289.8004,1053.6659,289.8836,1063.6785,289.6028,1073.6912,289.3962,1083.7038,289.8276,1093.7164,289.6764,1103.729,289.7464,1113.7416,289.3202,1123.7542,290.4391,1133.7668,289.7061,1143.7795,289.4736,1153.7921,290,1163.8047,290,1163.757,279.8571,1163.6628,269.7143,1163.6255,259.5714,1164.2293,249.4286,1164.3313,239.2857,1163.3994,229.1429,1164.0817,219,1163.7221,208.8571,1164.4084,198.7143,1164.3149,188.5714,1164.3516,178.4286,1164.2835,168.2857,1163.2731,158.1429,1163.6401,148,1163.1564,137.8571,1163.9712,127.7143,1163.1825,117.5714,1163.5678,107.4286,1163.5584,97.2857,1163.096,87.1429,1163.5135,77,1163.7397,66.8571,1163.2559,56.7143,1163.1576,46.5714,1163.9897,36.4286,1163.2806,26.2857,1164.2987,16.1429,1163.3996,6,1163.8047,6.0049,1163.8047,6.7086,1153.7921,6.4765,1143.7795,6.0715,1133.7668,5.856,1123.7542,6.2978,1113.7416,6.374,1103.729,6.4937,1093.7164,5.9767,1083.7038,5.8307,1073.6912,6.5573,1063.6785,5.8867,1053.6659,5.6151,1043.6533,6.2421,1033.6407,6.6577,1023.6281,5.2501,1013.6155,5.4479,1003.6029,6.0285,993.5903,5.8588,983.5776,5.9576,973.565,6.7405,963.5524,5.3785,953.5398,6.3603,943.5272,6.0718,933.5146,5.7703,923.502,6.6674,913.4893,6.1889,903.4767,5.5785,893.4641,5.2895,883.4515,6.7226,873.4389,6.2386,863.4263,5.2628,853.4137,6.0739,843.401,5.3724,833.3884,6.3792,823.3758,6.5611,813.3632,6.3888,803.3506,6.0302,793.338,6.711,783.3254,5.7227,773.3127,6.5058,763.3001,5.9516,753.2875,6.5339,743.2749,6.0047,733.2623,6.2193,723.2497,6.324,713.2371,5.8654,703.2244,5.4075,693.2118,6,683.1992" style="stroke: #A80036; stroke-width: 1.5;"/><text fill="#000000" font-family="sans-serif" font-size="12" lengthAdjust="spacingAndGlyphs" textLength="44" x="126" y="699.8008">Content</text><path d="M7,707.332 L7,707.5284 L17.0714,707.3522 L27.1429,706.4893 L37.2143,708.1723 L47.2857,707.9247 L57.3571,706.8108 L67.4286,707.7845 L77.5,707.3135 L87.5714,706.5644 L97.6429,707.7419 L107.7143,707.306 L117.7857,707.2996 L127.8571,706.6149 L137.9286,707.8081 L148,707.9702 L158.0714,708.0726 L168.1429,707.2652 L178.2143,706.5247 L188.2857,707.376 L198.3571,707.8355 L208.4286,707.9714 L218.5,707.9507 L228.5714,707.7449 L238.6429,706.5328 L248.7143,707.8171 L258.7857,707.2983 L268.8571,707.9044 L278.9286,707.7142 L289,707.332 " fill="#FEFECE" style="stroke: #A80036; stroke-width: 1.5;"/><text fill="#000000" font-family="sans-serif" font-size="11" lengthAdjust="spacingAndGlyphs" textLength="41" x="12" y="721.9668">+ID：id</text><text fill="#000000" font-family="sans-serif" font-size="11" lengthAdjust="spacingAndGlyphs" textLength="115" x="12" y="734.9219">+コンテンツ名：name</text><text fill="#000000" font-family="sans-serif" font-size="11" lengthAdjust="spacingAndGlyphs" textLength="109" x="12" y="747.877">+プラグイン：plugin</text><text fill="#000000" font-family="sans-serif" font-size="11" lengthAdjust="spacingAndGlyphs" textLength="131" x="12" y="760.832">+コンテンツタイプ：type</text><text fill="#000000" font-family="sans-serif" font-size="11" lengthAdjust="spacingAndGlyphs" textLength="99" x="12" y="773.7871">+実体ID：entity_id</text><text fill="#000000" font-family="sans-serif" font-size="11" lengthAdjust="spacingAndGlyphs" textLength="56" x="12" y="786.7422">+URL：url</text><text fill="#000000" font-family="sans-serif" font-size="11" lengthAdjust="spacingAndGlyphs" textLength="99" x="12" y="799.6973">+サイトID：site_id</text><text fill="#000000" font-family="sans-serif" font-size="11" lengthAdjust="spacingAndGlyphs" textLength="126" x="12" y="812.6523">+エイリアスID：alias_id</text><text fill="#000000" font-family="sans-serif" font-size="11" lengthAdjust="spacingAndGlyphs" textLength="266" x="12" y="825.6074">+メインサイトコンテンツID：main_site_content_id</text><text fill="#000000" font-family="sans-serif" font-size="11" lengthAdjust="spacingAndGlyphs" textLength="266" x="12" y="838.5625">+サイトルートに配置されているかどうか：site_root</text><text fill="#000000" font-family="sans-serif" font-size="11" lengthAdjust="spacingAndGlyphs" textLength="93" x="12" y="851.5176">+親ID：parent_id</text><text fill="#000000" font-family="sans-serif" font-size="11" lengthAdjust="spacingAndGlyphs" textLength="64" x="12" y="864.4727">+左位置：lft</text><text fill="#000000" font-family="sans-serif" font-size="11" lengthAdjust="spacingAndGlyphs" textLength="76" x="12" y="877.4277">+右位置：rght</text><text fill="#000000" font-family="sans-serif" font-size="11" lengthAdjust="spacingAndGlyphs" textLength="66" x="12" y="890.3828">+深さ：level</text><text fill="#000000" font-family="sans-serif" font-size="11" lengthAdjust="spacingAndGlyphs" textLength="84" x="12" y="903.3379">+タイトル：title</text><text fill="#000000" font-family="sans-serif" font-size="11" lengthAdjust="spacingAndGlyphs" textLength="114" x="12" y="916.293">+説明文：description</text><text fill="#000000" font-family="sans-serif" font-size="11" lengthAdjust="spacingAndGlyphs" textLength="133" x="12" y="929.248">+アイキャッチ：eyecatch</text><text fill="#000000" font-family="sans-serif" font-size="11" lengthAdjust="spacingAndGlyphs" textLength="116" x="12" y="942.2031">+作成者ID：author_id</text><text fill="#000000" font-family="sans-serif" font-size="11" lengthAdjust="spacingAndGlyphs" textLength="226" x="12" y="955.1582">+レイアウトテンプレート：layout_template</text><text fill="#000000" font-family="sans-serif" font-size="11" lengthAdjust="spacingAndGlyphs" textLength="97" x="12" y="968.1133">+公開状態：status</text><text fill="#000000" font-family="sans-serif" font-size="11" lengthAdjust="spacingAndGlyphs" textLength="151" x="12" y="981.0684">+公開開始日：publish_begin</text><text fill="#000000" font-family="sans-serif" font-size="11" lengthAdjust="spacingAndGlyphs" textLength="141" x="12" y="994.0234">+公開終了日：publish_end</text><text fill="#000000" font-family="sans-serif" font-size="11" lengthAdjust="spacingAndGlyphs" textLength="133" x="12" y="1006.9785">+自公開状態：self_status</text><text fill="#000000" font-family="sans-serif" font-size="11" lengthAdjust="spacingAndGlyphs" textLength="187" x="12" y="1019.9336">+自公開開始日：self_publish_begin</text><text fill="#000000" font-family="sans-serif" font-size="11" lengthAdjust="spacingAndGlyphs" textLength="177" x="12" y="1032.8887">+自公開終了日：self_publish_end</text><text fill="#000000" font-family="sans-serif" font-size="11" lengthAdjust="spacingAndGlyphs" textLength="122" x="12" y="1045.8438">+作成日：created_date</text><text fill="#000000" font-family="sans-serif" font-size="11" lengthAdjust="spacingAndGlyphs" textLength="129" x="12" y="1058.7988">+編集日：modified_date</text><text fill="#000000" font-family="sans-serif" font-size="11" lengthAdjust="spacingAndGlyphs" textLength="258" x="12" y="1071.7539">+検索結果より除外するかどうか：exclude_search</text><text fill="#000000" font-family="sans-serif" font-size="11" lengthAdjust="spacingAndGlyphs" textLength="252" x="12" y="1084.709">+メニューから除外するかどうか：exclude_menu</text><text fill="#000000" font-family="sans-serif" font-size="11" lengthAdjust="spacingAndGlyphs" textLength="272" x="12" y="1097.6641">+メニューのリンクを別窓で開くかどうか：blank_link</text><text fill="#000000" font-family="sans-serif" font-size="11" lengthAdjust="spacingAndGlyphs" textLength="121" x="12" y="1110.6191">+削除日：deleted_date</text><text fill="#000000" font-family="sans-serif" font-size="11" lengthAdjust="spacingAndGlyphs" textLength="103" x="12" y="1123.5742">+削除状態：deleted</text><text fill="#000000" font-family="sans-serif" font-size="11" lengthAdjust="spacingAndGlyphs" textLength="159" x="12" y="1136.5293">+作成日（システム）：created</text><text fill="#000000" font-family="sans-serif" font-size="11" lengthAdjust="spacingAndGlyphs" textLength="155" x="12" y="1149.4844">+編集日（システム）modified</text><path d="M7,1155.8047 L7,1155.1904 L17.0714,1155.8204 L27.1429,1155.7811 L37.2143,1155.0173 L47.2857,1155.616 L57.3571,1156.0778 L67.4286,1156.0946 L77.5,1156.5936 L87.5714,1156.1364 L97.6429,1154.856 L107.7143,1155.0941 L117.7857,1156.3126 L127.8571,1155.4118 L137.9286,1155.8841 L148,1156.5504 L158.0714,1154.8063 L168.1429,1155.2568 L178.2143,1156.6682 L188.2857,1156.357 L198.3571,1155.9186 L208.4286,1156.1005 L218.5,1155.6272 L228.5714,1155.4554 L238.6429,1155.3454 L248.7143,1155.5452 L258.7857,1155.0199 L268.8571,1156.0839 L278.9286,1155.8925 L289,1155.8047 " fill="#FEFECE" style="stroke: #A80036; stroke-width: 1.5;"/><!--class ContentServiceInterface--><polygon fill="#FEFECE" filter="url(#fv0bave)" points="84.5,233.1992,84.5,233.942,94.3696,232.4859,104.2391,232.9994,114.1087,232.4679,123.9783,233.7063,133.8478,232.8471,143.7174,232.5814,153.587,232.9885,163.4565,232.4852,173.3261,233.3245,183.1957,233.2517,193.0652,232.9236,202.9348,232.9267,212.8043,233.4766,222.6739,232.8511,232.5435,233.0856,242.413,233.4258,252.2826,232.7029,262.1522,233.4579,272.0217,232.8732,281.8913,232.5215,291.7609,233.2876,301.6304,232.7181,311.5,233.1992,311.8394,233.1992,311.9189,243.1972,311.522,253.1951,311.5081,263.1931,311.8112,273.191,312.2065,283.189,310.8667,293.1869,311.4339,303.1848,311.6052,313.1828,311.8314,323.1807,311.6872,333.1787,311.3506,343.1766,312.1215,353.1746,312.0595,363.1725,310.9708,373.1705,312.2041,383.1684,311.2849,393.1664,310.8833,403.1643,311.4977,413.1623,311.9196,423.1602,311.0306,433.1582,311.7467,443.1561,311.3043,453.154,310.9191,463.152,311.0763,473.1499,311.7975,483.1479,312.2012,493.1458,311.3877,503.1438,310.7512,513.1417,311.8384,523.1397,311.7704,533.1376,311.3047,543.1356,310.8699,553.1335,311.9093,563.1315,311.3695,573.1294,311.7272,583.1274,310.7505,593.1253,312.2255,603.1232,311.9088,613.1212,311.5,623.1191,311.5,623.1569,301.6304,623.0951,291.7609,623.1149,281.8913,623.6761,272.0217,622.4887,262.1522,623.0081,252.2826,622.5781,242.413,622.6677,232.5435,623.3005,222.6739,622.712,212.8043,623.4337,202.9348,623.5551,193.0652,623.1046,183.1957,623.0218,173.3261,622.6857,163.4565,623.5496,153.587,623.1404,143.7174,623.3729,133.8478,622.786,123.9783,623.0448,114.1087,623.8502,104.2391,623.1486,94.3696,622.8415,84.5,623.1191,84.8789,623.1191,84.7142,613.1212,84.1124,603.1232,84.4244,593.1253,84.9588,583.1274,84.431,573.1294,85.201,563.1315,84.272,553.1335,84.729,543.1356,84.2798,533.1376,84.5548,523.1397,84.0841,513.1417,84.1516,503.1438,83.7941,493.1458,83.8521,483.1479,85.2395,473.1499,83.8386,463.152,85.0947,453.154,85.248,443.1561,84.5405,433.1582,84.7717,423.1602,83.8816,413.1623,84.5181,403.1643,84.0685,393.1664,84.6404,383.1684,85.1723,373.1705,83.8622,363.1725,84.8901,353.1746,84.5191,343.1766,85.1752,333.1787,84.0212,323.1807,83.9749,313.1828,84.8141,303.1848,84.1361,293.1869,84.3272,283.189,85.2076,273.191,83.7661,263.1931,84.2141,253.1951,84.1699,243.1972,84.5,233.1992" style="stroke: #A80036; stroke-width: 1.5;"/><text fill="#000000" font-family="sans-serif" font-size="12" lengthAdjust="spacingAndGlyphs" textLength="134" x="131" y="249.8008">ContentServiceInterface</text><path d="M85.5,257.332 L85.5,256.5483 L95.2826,257.0438 L105.0652,257.8913 L114.8478,256.8129 L124.6304,257.8083 L134.413,258.0251 L144.1957,256.5287 L153.9783,257.3558 L163.7609,256.3683 L173.5435,257.16 L183.3261,257.1334 L193.1087,257.5024 L202.8913,257.3725 L212.6739,257.3371 L222.4565,256.8965 L232.2391,257.8108 L242.0217,257.4749 L251.8043,257.4083 L261.587,256.5429 L271.3696,256.6927 L281.1522,256.4282 L290.9348,257.1626 L300.7174,257.9433 L310.5,257.332 " fill="#FEFECE" style="stroke: #A80036; stroke-width: 1.5;"/><path d="M85.5,265.332 L85.5,265.0069 L95.2826,266.1939 L105.0652,265.9165 L114.8478,264.7274 L124.6304,265.5536 L134.413,264.3826 L144.1957,265.6076 L153.9783,265.6802 L163.7609,264.7001 L173.5435,265.7099 L183.3261,264.7628 L193.1087,266.1852 L202.8913,265.2024 L212.6739,264.7235 L222.4565,265.3946 L232.2391,266.1349 L242.0217,266.3087 L251.8043,265.3139 L261.587,264.7426 L271.3696,265.5816 L281.1522,265.4407 L290.9348,265.4629 L300.7174,265.8297 L310.5,265.332 " fill="#FEFECE" style="stroke: #A80036; stroke-width: 1.5;"/><text fill="#000000" font-family="sans-serif" font-size="11" lengthAdjust="spacingAndGlyphs" textLength="34" x="90.5" y="279.9668">+get()</text><text fill="#000000" font-family="sans-serif" font-size="11" lengthAdjust="spacingAndGlyphs" textLength="64" x="90.5" y="292.9219">+getIndex()</text><text fill="#000000" font-family="sans-serif" font-size="11" lengthAdjust="spacingAndGlyphs" textLength="130" x="90.5" y="305.877">+getContentFolderList()</text><text fill="#000000" font-family="sans-serif" font-size="11" lengthAdjust="spacingAndGlyphs" textLength="210" x="90.5" y="318.832">+createAdminIndexConditionsByTree()</text><text fill="#000000" font-family="sans-serif" font-size="11" lengthAdjust="spacingAndGlyphs" textLength="215" x="90.5" y="331.7871">+createAdminIndexConditionsByTable()</text><text fill="#000000" font-family="sans-serif" font-size="11" lengthAdjust="spacingAndGlyphs" textLength="94" x="90.5" y="344.7422">+isAllowPublish()</text><text fill="#000000" font-family="sans-serif" font-size="11" lengthAdjust="spacingAndGlyphs" textLength="72" x="90.5" y="357.6973">+getUrlById()</text><text fill="#000000" font-family="sans-serif" font-size="11" lengthAdjust="spacingAndGlyphs" textLength="50" x="90.5" y="370.6523">+getUrl()</text><text fill="#000000" font-family="sans-serif" font-size="11" lengthAdjust="spacingAndGlyphs" textLength="84" x="90.5" y="383.6074">+isSiteRelated()</text><text fill="#000000" font-family="sans-serif" font-size="11" lengthAdjust="spacingAndGlyphs" textLength="74" x="90.5" y="396.5625">+getPureUrl()</text><text fill="#000000" font-family="sans-serif" font-size="11" lengthAdjust="spacingAndGlyphs" textLength="150" x="90.5" y="409.5176">+getCurrentRelatedSiteUrl()</text><text fill="#000000" font-family="sans-serif" font-size="11" lengthAdjust="spacingAndGlyphs" textLength="58" x="90.5" y="422.4727">+getTree()</text><text fill="#000000" font-family="sans-serif" font-size="11" lengthAdjust="spacingAndGlyphs" textLength="68" x="90.5" y="435.4277">+getParent()</text><text fill="#000000" font-family="sans-serif" font-size="11" lengthAdjust="spacingAndGlyphs" textLength="141" x="90.5" y="448.3828">+getRelatedSiteContents()</text><text fill="#000000" font-family="sans-serif" font-size="11" lengthAdjust="spacingAndGlyphs" textLength="120" x="90.5" y="461.3379">+getRelatedSiteLinks()</text><text fill="#000000" font-family="sans-serif" font-size="11" lengthAdjust="spacingAndGlyphs" textLength="130" x="90.5" y="474.293">+getContentFolderList()</text><text fill="#000000" font-family="sans-serif" font-size="11" lengthAdjust="spacingAndGlyphs" textLength="78" x="90.5" y="487.248">+getSiteRoot()</text><text fill="#000000" font-family="sans-serif" font-size="11" lengthAdjust="spacingAndGlyphs" textLength="88" x="90.5" y="500.2031">+getSiteRootId()</text><text fill="#000000" font-family="sans-serif" font-size="11" lengthAdjust="spacingAndGlyphs" textLength="129" x="90.5" y="513.1582">+getContentByEntityId()</text><text fill="#000000" font-family="sans-serif" font-size="11" lengthAdjust="spacingAndGlyphs" textLength="105" x="90.5" y="526.1133">+getContentByUrl()</text><text fill="#000000" font-family="sans-serif" font-size="11" lengthAdjust="spacingAndGlyphs" textLength="83" x="90.5" y="539.0684">+_getContent()</text><text fill="#000000" font-family="sans-serif" font-size="11" lengthAdjust="spacingAndGlyphs" textLength="70" x="90.5" y="552.0234">+isParentId()</text><text fill="#000000" font-family="sans-serif" font-size="11" lengthAdjust="spacingAndGlyphs" textLength="60" x="90.5" y="564.9785">+isFolder()</text><text fill="#000000" font-family="sans-serif" font-size="11" lengthAdjust="spacingAndGlyphs" textLength="78" x="90.5" y="577.9336">+getUserList()</text><text fill="#000000" font-family="sans-serif" font-size="11" lengthAdjust="spacingAndGlyphs" textLength="85" x="90.5" y="590.8887">+getListTypes()</text><text fill="#000000" font-family="sans-serif" font-size="11" lengthAdjust="spacingAndGlyphs" textLength="59" x="90.5" y="603.8438">+getSites()</text><text fill="#000000" font-family="sans-serif" font-size="11" lengthAdjust="spacingAndGlyphs" textLength="130" x="90.5" y="616.7988">+getContentFolderList()</text><path d="M284.91,101.1992 L284.91,101.4011 L290.786,101.1363 L296.662,101.1937 L302.538,101.1028 L308.414,101.0085 L314.29,101.1992 " fill="none" style="stroke: #000000; stroke-width: 1.0;"/><polygon fill="#000000" points="279.79,101.1992,279.8149,101.2553,281.5541,101.9185,283.3945,102.8094,285.264,103.7658,286.9165,104.2339,288.79,105.1992,288.8124,105.2216,287.8598,104.269,287.2548,103.6641,286.2403,102.6495,285.6795,102.0887,284.79,101.1992,284.6184,101.0277,285.4731,100.2824,286.5569,99.7661,287.3394,98.9486,288,98.0092,288.79,97.1992,288.8706,97.3805,286.9093,97.8177,285.1249,98.6529,283.339,99.4845,281.5111,100.2218,279.79,101.1992" style="stroke: #000000; stroke-width: 1.0;"/><path d="M396,147.3892 L395.8945,147.3892 L396.1866,157.3596 L396.1709,167.33 L396.6645,177.3004 L396.2467,187.2708 L396.4852,197.2412 L396.7504,207.2116 L396.7537,217.182 L396.2245,227.1524 L396.7556,237.1228 L395.8186,247.0932 L395.2258,257.0636 L395.2407,267.034 L396.0806,277.0044 L396.5784,286.9748 L396.8451,296.9452 L395.1228,306.9156 L396.4938,316.886 L395.1565,326.8564 L395.8614,336.8268 L396.7455,346.7972 L395.8739,356.7676 L395.7234,366.738 L395.8721,376.7084 L395.4087,386.6788 L396,396.6492 " fill="none" style="stroke: #000000; stroke-width: 1.0;"/><polygon fill="#000000" points="396,401.6692,396.1481,401.735,396.8339,399.8843,397.4727,398.0126,398.5977,396.3571,399.2348,394.4847,400,392.6692,400.1033,392.7725,399.2007,393.4699,398.3882,394.2574,397.5566,395.0258,396.8437,395.9129,396,396.6692,396.0688,396.738,395.3461,396.0153,394.3624,395.0316,393.7229,394.3921,392.7855,393.4548,392,392.6692,392.1696,392.7446,392.7943,394.4667,393.4114,396.1854,394.2061,397.983,395.1603,399.8516,396,401.6692" style="stroke: #000000; stroke-width: 1.0;"/><path d="M396.38,396.0992 L396.4944,396.1062 L396.839,394.0464 L396.7523,391.9602 L396.5608,389.8676 L396.764,387.7991 L397.0148,385.7335 L396.8712,385.7214 L397.3156,383.4708 L397.5007,381.1982 L397.8786,378.942 L397.9285,376.6579 L397.9778,374.3738 L398.1356,374.3913 L398.3682,371.9493 L398.2666,369.4702 L398.7125,367.0518 L398.768,364.5901 L399.3308,362.1848 L399.4219,362.1976 L399.4894,359.5856 L400.0076,357.037 L400.5703,354.4946 L401.0464,351.94 L401.1355,349.3311 L401.1209,349.3286 L401.771,346.6902 L402.1791,344.0098 L402.8231,341.3704 L403.2722,338.6972 L403.4536,335.9775 L403.4166,335.9697 L403.8443,333.2 L404.5791,330.4952 L405.4068,327.8101 L406.0574,325.0875 L406.347,322.2887 L406.2711,322.2693 L407.3459,319.5914 L407.8913,316.7786 L408.627,314.0143 L409.4284,311.2667 L409.8773,308.4293 L409.745,308.389 L410.6075,305.6211 L411.5895,302.8896 L412.6514,300.1825 L412.9445,297.2409 L414.1063,294.5642 L414.3204,294.6422 L415.1705,291.8471 L415.9881,289.0403 L416.8886,286.2636 L418.1098,283.6036 L419.0957,280.858 L418.9474,280.7936 L420.0398,278.0867 L421.1271,275.3777 L422.3579,272.7309 L423.6095,270.0931 L424.9072,267.4754 L425.154,267.6035 L426.1542,264.8487 L427.6318,262.3417 L428.6411,259.5916 L430.0711,257.06 L431.6027,254.5811 L431.5612,254.5552 L433.0681,252.0936 L434.5457,249.6137 L436.037,247.1424 L437.701,244.7789 L439.2439,242.3398 L439.4202,242.4733 L441.022,240.0917 L442.7804,237.8288 L444.351,235.4236 L446.1007,233.154 L447.8925,230.9163 L447.7437,230.7779 L449.7563,228.7539 L451.7863,226.7462 L453.9068,224.8227 L455.5793,222.4822 L457.6102,220.4752 L457.5345,220.3869 L459.8194,218.6625 L461.9349,216.7405 L464.1098,214.8877 L466.2896,213.0407 L468.4588,211.1813 L468.5857,211.3727 L470.9586,209.723 L473.1036,207.7295 L475.6766,206.3817 L478.1971,204.9545 L480.5,203.1992 L480.6308,203.4362 L482.9061,201.7922 L485.4968,200.7199 L487.7157,198.9738 L490.2974,197.885 L492.6973,196.4668 L492.8339,196.7394 L494.9952,195.2385 L497.4107,194.2448 L499.7562,193.1113 L502.0758,191.9263 L504.3407,190.632 L504.3516,190.6567 L506.645,189.8043 L508.7295,188.4794 L511.001,187.5773 L513.3775,186.9131 L515.5093,185.6949 L515.5182,185.7189 L517.7121,185.0158 L519.8241,184.0943 L521.9498,183.2092 L524.0111,182.1527 L526.2822,181.6555 L526.3305,181.8161 L528.3142,180.83 L530.4331,180.2934 L532.463,179.4609 L534.6412,179.1216 L536.7386,178.5137 L536.7914,178.7542 L538.7895,178.0974 L540.837,177.665 L542.8443,177.05 L544.8578,176.4632 L546.9576,176.2695 L546.9843,176.4692 L548.9352,175.742 L550.9651,175.6049 L553.0085,175.5697 L554.9777,174.9792 L557.0184,174.923 L557.0215,174.9933 L559.0231,175.0204 L561.0071,174.6557 L562.9925,174.3246 L564.9887,174.2317 L567,174.4742 L567.0138,174.7803 L568.9872,174.3604 L570.9864,174.5155 L572.987,174.6994 L574.9897,174.9306 L576.9816,174.923 L576.9932,175.0092 L578.9783,175.0766 L581.0292,175.6352 L582.989,175.5136 L585.0043,175.8064 L587.0424,176.2695 L587.052,176.3134 L589.0358,176.489 L591.1582,177.2955 L593.2181,177.8178 L595.1831,177.9078 L597.2614,178.5137 L597.2528,178.485 L599.3171,179.0236 L601.4121,179.6642 L603.4908,180.2509 L605.6899,181.238 L607.7178,181.6555 L607.6153,181.3821 L609.8024,182.2767 L612.0866,183.4303 L614.2871,184.3605 L616.2286,184.6002 L618.4907,185.6949 L618.46,185.6254 L620.5909,186.3802 L622.8834,187.5006 L625.1006,188.4507 L627.4924,189.7956 L629.6593,190.632 L629.6588,190.631 L632.0032,191.8293 L634.4065,193.1452 L636.7228,194.2875 L639.0564,195.4642 L641.3027,196.4668 L641.2228,196.322 L643.8027,197.9229 L646.0505,198.9222 L648.4687,200.2301 L650.9716,201.6915 L653.5,203.1992 L653.5958,203.3508 L655.6985,204.75 L657.5765,205.7936 L659.6318,207.1179 L661.6318,208.3546 L663.6456,209.613 L663.7659,209.7728 L665.4644,210.9287 L667.2849,212.2468 L669.3646,213.909 L671.1397,215.1666 L673.2058,216.8108 L673.1427,216.739 L674.9747,218.3584 L676.7561,219.9202 L678.7665,221.7425 L680.5557,223.3132 L682.1972,224.7159 L682.0175,224.5383 L683.6814,226.2218 L685.6482,228.2047 L687.309,229.8852 L688.9351,231.5313 L690.6363,233.2517 L690.5233,233.1535 L692.2134,235.0666 L693.7196,236.8199 L695.2235,238.5711 L696.9034,240.4753 L698.5396,242.3416 L698.7963,242.5398 L699.8216,244.1048 L701.6087,246.2577 L702.9105,248.0361 L704.4605,250.006 L705.9236,251.9089 L705.7321,251.7767 L707.3227,253.9183 L708.8024,255.9833 L710.0888,257.9149 L711.2757,259.7778 L712.8049,261.877 L712.6223,261.7635 L713.8213,263.7722 L715.2625,265.9315 L716.8417,268.1764 L718.1907,270.2784 L719.2,272.1692 " fill="none" style="stroke: #000000; stroke-width: 1.0;"/><polygon fill="#000000" points="396.15,401.3092,396.0454,401.2569,397.0655,399.5647,397.9199,397.7896,398.5828,395.9187,399.6114,394.2308,400.5568,392.5013,400.6622,392.6167,399.6167,393.1495,398.7494,393.8775,398.1383,394.8862,397.2071,395.5443,396.3783,396.3144,396.4225,396.3547,395.721,395.5748,394.7614,394.5594,394.2238,393.9291,393.4661,393.0979,392.5652,392.1359,392.7776,392.219,393.2883,393.973,394.145,395.8623,394.8713,397.7006,395.6305,399.5517,396.15,401.3092" style="stroke: #000000; stroke-width: 1.0;"/><path d="M450.9,428.1992 L450.9,428.34 L456.786,428.1978 L462.672,427.906 L468.558,428.4929 L474.444,427.8787 L480.33,428.1992 " fill="none" style="stroke: #000000; stroke-width: 1.0;"/><polygon fill="#000000" points="445.76,428.1992,445.6998,428.0639,447.5127,428.8928,449.2894,429.6404,451.1453,430.5661,452.941,431.3565,454.76,432.1992,454.6145,432.0537,453.9356,431.3749,453.2343,430.6735,452.313,429.7522,451.4901,428.9294,450.76,428.1992,450.6883,428.1275,451.5175,427.3567,452.4716,426.7109,453.2856,425.9248,453.99,425.0292,454.76,424.1992,454.8095,424.3106,452.9822,425.0491,451.0873,425.6356,449.3591,426.5971,447.6208,427.5361,445.76,428.1992" style="stroke: #000000; stroke-width: 1.0;"/><path d="M331.96,428.1992 L331.96,428.3152 L334.822,428.472 L337.684,428.0654 L340.546,428.3203 L343.408,427.9235 L346.27,428.1992 " fill="none" style="stroke: #000000; stroke-width: 1.0; stroke-dasharray: 1.0,3.0;"/><polygon fill="none" points="331.7,435.1992,331.7695,435.3979,327.6406,433.6295,323.7313,432.4887,319.741,431.1163,315.6402,429.4283,311.7,428.1992,311.6488,428.053,315.7132,426.8368,319.7559,425.5591,323.7193,424.0544,327.7469,422.7333,331.7,421.1992,331.8563,421.1992,331.4654,423.9992,331.7712,426.7992,331.5269,429.5992,331.8458,432.3992,331.7,435.1992" style="stroke: #000000; stroke-width: 1.0;"/><path d="M396,455.0392 L395.7095,455.0392 L396.4635,464.9685 L396.8813,474.8979 L396.6354,484.8272 L396.188,494.7565 L395.3248,504.6858 L396.6805,514.6151 L396.0468,524.5444 L395.3706,534.4738 L395.9644,544.4031 L395.9933,554.3324 L396.8443,564.2617 L396.5497,574.191 L395.3025,584.1204 L395.2185,594.0497 L396.8696,603.979 L396.7241,613.9083 L396.9518,623.8376 L395.3421,633.7669 L395.6359,643.6963 L395.663,653.6256 L395.7201,663.5549 L395.5917,673.4842 L395.6593,683.4135 L395.2721,693.3429 L396.2089,703.2722 L395.4559,713.2015 L395.4389,723.1308 L396.9095,733.0601 L396.0702,742.9894 L396.7154,752.9188 L396.4562,762.8481 L395.5939,772.7774 L396.2679,782.7067 L395.7803,792.636 L395.4418,802.5654 L395.5452,812.4947 L396.1689,822.424 L396.4585,832.3533 L396.7284,842.2826 L395.1693,852.2119 L396.4471,862.1413 L396.3055,872.0706 L395.7639,881.9999 L396,891.9292 " fill="none" style="stroke: #000000; stroke-width: 1.0;"/><polygon fill="#000000" points="396,897.1192,395.8786,897.0653,396.717,895.2823,397.5802,893.5104,398.3547,891.6991,399.1795,889.9101,400,888.1192,400.1246,888.2438,399.1808,888.9001,398.297,889.6162,397.6039,890.5232,396.8425,891.3618,396,892.1192,396.1552,892.2744,395.3438,891.463,394.2982,890.4174,393.7362,889.8554,392.7455,888.8647,392,888.1192,391.9761,888.1086,392.7083,889.8785,393.6697,891.7502,394.3299,893.4881,395.376,895.3974,396,897.1192" style="stroke: #000000; stroke-width: 1.0;"/><path d="M295.49,923.6992 L295.49,923.5434 L301.32,923.871 L307.15,923.5558 L312.98,923.6081 L318.81,923.8083 L324.64,923.6992 " fill="none" style="stroke: #000000; stroke-width: 1.0;"/><polygon fill="#000000" points="290.41,923.6992,290.4005,923.6779,292.2193,924.5201,294.0917,925.483,295.7155,925.8866,297.5107,926.6758,299.41,927.6992,299.5714,927.8606,298.7561,927.0453,297.7417,926.0309,296.8436,925.1328,296.0681,924.3573,295.41,923.6992,295.4466,923.7358,296.1179,922.8071,296.8887,921.9779,297.9402,921.4294,298.7837,920.6729,299.41,919.6992,299.3902,919.6547,297.6712,920.637,295.844,921.3757,293.9416,921.9452,292.1331,922.7261,290.41,923.6992" style="stroke: #000000; stroke-width: 1.0;"/></g></svg>