<?xml version="1.0" encoding="UTF-8" standalone="no"?><svg xmlns="http://www.w3.org/2000/svg" xmlns:xlink="http://www.w3.org/1999/xlink" contentScriptType="application/ecmascript" contentStyleType="text/css" height="884px" preserveAspectRatio="none" style="width:897px;height:884px;" version="1.1" viewBox="0 0 897 884" width="897px" zoomAndPan="magnify"><defs><filter height="300%" id="fvyet8n" width="300%" x="-1" y="-1"><feGaussianBlur result="blurOut" stdDeviation="2.0"/><feColorMatrix in="blurOut" result="blurOut2" type="matrix" values="0 0 0 0 0 0 0 0 0 0 0 0 0 0 0 0 0 0 .4 0"/><feOffset dx="4.0" dy="4.0" in="blurOut2" result="blurOut3"/><feBlend in="SourceGraphic" in2="blurOut3" mode="normal"/></filter></defs><g><text fill="#000000" font-family="sans-serif" font-size="18" lengthAdjust="spacingAndGlyphs" textLength="108" x="399" y="17.4023">ユーザー管理</text><!--class Admin\UsersController--><polygon fill="#FEFECE" filter="url(#fvyet8n)" points="379.5,29.1992,379.5,29.1318,389.4474,29.6073,399.3947,29.7363,409.3421,29.6425,419.2895,29.3307,429.2368,29.1471,439.1842,29.6624,449.1316,29.1061,459.0789,29.4849,469.0263,29.068,478.9737,29.2465,488.9211,28.9495,498.8684,28.9654,508.8158,29.3716,518.7632,29.5025,528.7105,28.839,538.6579,28.5714,548.6053,29.2486,558.5526,29.5067,568.5,29.1992,568.71,29.1992,567.8334,39.1806,568.3843,49.162,568.7806,59.1434,568.527,69.1248,568.4431,79.1062,569.205,89.0875,567.8307,99.0689,567.7871,109.0503,569.0902,119.0317,568.4232,129.0131,567.938,138.9945,568.1661,148.9759,568.7908,158.9573,568.5842,168.9386,567.8249,178.92,568.3891,188.9014,568.5,198.8828,568.5,199.6162,558.5526,198.7956,548.6053,199.1224,538.6579,198.5877,528.7105,198.7262,518.7632,198.6064,508.8158,199.2856,498.8684,199.3953,488.9211,198.8211,478.9737,198.6211,469.0263,198.7948,459.0789,198.29,449.1316,199.0801,439.1842,198.4197,429.2368,198.1501,419.2895,198.7649,409.3421,198.2704,399.3947,198.6378,389.4474,198.2743,379.5,198.8828,379.8491,198.8828,380.0984,188.9014,380.2265,178.92,379.5394,168.9386,380.0158,158.9573,380.1127,148.9759,380.0646,138.9945,378.8553,129.0131,379.9913,119.0317,379.5053,109.0503,380.1661,99.0689,380.0193,89.0875,379.2714,79.1062,379.5952,69.1248,379.3237,59.1434,379.9407,49.162,378.9961,39.1806,379.5,29.1992" style="stroke: #A80036; stroke-width: 1.5;"/><text fill="#000000" font-family="sans-serif" font-size="12" lengthAdjust="spacingAndGlyphs" textLength="131" x="408.5" y="45.8008">Admin\UsersController</text><path d="M380.5,53.332 L380.5,52.66 L390.3421,52.7073 L400.1842,52.3932 L410.0263,53.4087 L419.8684,52.9311 L429.7105,52.8936 L439.5526,53.8399 L449.3947,53.71 L459.2368,53.2013 L469.0789,54.1025 L478.9211,52.9944 L488.7632,54.0181 L498.6053,54.178 L508.4474,53.9822 L518.2895,53.2128 L528.1316,53.9253 L537.9737,52.9039 L547.8158,54.1202 L557.6579,53.4576 L567.5,53.332 " fill="#FEFECE" style="stroke: #A80036; stroke-width: 1.5;"/><text fill="#000000" font-family="sans-serif" font-size="11" lengthAdjust="spacingAndGlyphs" textLength="151" x="385.5" y="67.9668">+AuthenticationComponent</text><text fill="#000000" font-family="sans-serif" font-size="11" lengthAdjust="spacingAndGlyphs" textLength="130" x="385.5" y="80.9219">+BcMessageComponent</text><path d="M380.5,87.2422 L380.5,86.7057 L390.3421,86.2673 L400.1842,87.0092 L410.0263,87.8019 L419.8684,86.9223 L429.7105,88.1087 L439.5526,86.7915 L449.3947,87.6529 L459.2368,87.4 L469.0789,86.8976 L478.9211,87.2029 L488.7632,87.1888 L498.6053,87.4871 L508.4474,87.7494 L518.2895,87.9873 L528.1316,86.2715 L537.9737,87.8114 L547.8158,86.5043 L557.6579,87.5454 L567.5,87.2422 " fill="#FEFECE" style="stroke: #A80036; stroke-width: 1.5;"/><text fill="#000000" font-family="sans-serif" font-size="11" lengthAdjust="spacingAndGlyphs" textLength="99" x="385.5" y="101.877">+ログイン：login()</text><text fill="#000000" font-family="sans-serif" font-size="11" lengthAdjust="spacingAndGlyphs" textLength="157" x="385.5" y="114.832">+代理ログイン：login_agent()</text><text fill="#000000" font-family="sans-serif" font-size="11" lengthAdjust="spacingAndGlyphs" textLength="177" x="385.5" y="127.7871">+代理ログイン解除：back_agent()</text><text fill="#000000" font-family="sans-serif" font-size="11" lengthAdjust="spacingAndGlyphs" textLength="118" x="385.5" y="140.7422">+ログアウト：logout()</text><text fill="#000000" font-family="sans-serif" font-size="11" lengthAdjust="spacingAndGlyphs" textLength="157" x="385.5" y="153.6973">+ユーザー一覧を表示：index()</text><text fill="#000000" font-family="sans-serif" font-size="11" lengthAdjust="spacingAndGlyphs" textLength="136" x="385.5" y="166.6523">+ユーザー新規追加：add()</text><text fill="#000000" font-family="sans-serif" font-size="11" lengthAdjust="spacingAndGlyphs" textLength="114" x="385.5" y="179.6074">+ユーザー編集：edit()</text><text fill="#000000" font-family="sans-serif" font-size="11" lengthAdjust="spacingAndGlyphs" textLength="126" x="385.5" y="192.5625">+ユーザー削除：delete()</text><!--class BcAdminUserHelper--><polygon fill="#FEFECE" filter="url(#fvyet8n)" points="566,343.1992,566,343.0299,576.0625,342.9982,586.125,343.7685,596.1875,343.7995,606.25,343.453,616.3125,343.2399,626.375,343.7832,636.4375,343.8344,646.5,343.799,656.5625,343.0549,666.625,343.666,676.6875,342.7508,686.75,343.5444,696.8125,342.8513,706.875,343.3016,716.9375,343.1561,727,343.7359,737.0625,343.3349,747.125,342.6518,757.1875,343.396,767.25,343.8633,777.3125,343.7703,787.375,343.1778,797.4375,343.6021,807.5,343.2601,817.5625,342.7173,827.625,342.7353,837.6875,343.5598,847.75,343.4319,857.8125,342.4838,867.875,343.1074,877.9375,342.876,888,343.1992,888.4359,343.1992,888.2354,353.4162,887.6605,363.6332,888.281,373.8503,888.5744,384.0673,887.4398,394.2843,888.1028,404.5013,888.0565,414.7183,887.5609,424.9353,888,435.1523,888,435.5932,877.9375,435.4762,867.875,434.5112,857.8125,434.8472,847.75,435.3345,837.6875,434.6689,827.625,434.501,817.5625,434.4909,807.5,434.9842,797.4375,435.8017,787.375,434.5849,777.3125,435.3905,767.25,435.5578,757.1875,435.1032,747.125,435.3315,737.0625,434.8756,727,435.8491,716.9375,434.8178,706.875,435.0084,696.8125,435.8867,686.75,434.7473,676.6875,435.7589,666.625,435.3597,656.5625,435.8306,646.5,435.0337,636.4375,434.8334,626.375,434.4309,616.3125,435.1309,606.25,434.7235,596.1875,435.4362,586.125,435.6299,576.0625,435.0469,566,435.1523,565.7922,435.1523,566.2647,424.9353,566.6512,414.7183,566.7098,404.5013,566.5646,394.2843,566.05,384.0673,565.7451,373.8503,565.2502,363.6332,566.1827,353.4162,566,343.1992" style="stroke: #A80036; stroke-width: 1.5;"/><text fill="#000000" font-family="sans-serif" font-size="12" lengthAdjust="spacingAndGlyphs" textLength="115" x="669.5" y="359.8008">BcAdminUserHelper</text><path d="M567,367.332 L567,366.6164 L577,368.15 L587,367.1682 L597,366.9043 L607,367.7635 L617,368.3184 L627,366.8178 L637,366.7847 L647,368.0246 L657,366.7072 L667,367.8824 L677,366.5671 L687,366.594 L697,367.2727 L707,368.2966 L717,367.8844 L727,366.6288 L737,368.1196 L747,366.733 L757,368.1773 L767,367.9204 L777,366.9024 L787,367.3104 L797,366.3588 L807,368.2038 L817,367.9572 L827,367.1419 L837,367.5531 L847,366.3683 L857,366.7824 L867,367.5707 L877,366.4464 L887,367.332 " fill="#FEFECE" style="stroke: #A80036; stroke-width: 1.5;"/><path d="M567,375.332 L567,375.61 L577,376.3144 L587,375.6875 L597,375.3371 L607,374.785 L617,375.2061 L627,374.9124 L637,375.4499 L647,375.8749 L657,375.0192 L667,376.0423 L677,374.5033 L687,374.5702 L697,374.879 L707,375.2304 L717,375.8745 L727,375.5043 L737,374.7158 L747,374.8587 L757,375.0004 L767,375.6386 L777,375.7329 L787,375.2024 L797,374.8881 L807,374.704 L817,375.189 L827,375.1561 L837,374.7757 L847,374.4449 L857,375.9765 L867,375.1043 L877,376.0938 L887,375.332 " fill="#FEFECE" style="stroke: #A80036; stroke-width: 1.5;"/><text fill="#000000" font-family="sans-serif" font-size="11" lengthAdjust="spacingAndGlyphs" textLength="303" x="572" y="389.9668">+ログインユーザー自身の更新かどうか確認：isSelfUpdate()</text><text fill="#000000" font-family="sans-serif" font-size="11" lengthAdjust="spacingAndGlyphs" textLength="211" x="572" y="402.9219">+更新ができるかどうか確認：isEditable()</text><text fill="#000000" font-family="sans-serif" font-size="11" lengthAdjust="spacingAndGlyphs" textLength="218" x="572" y="415.877">+削除ができるかどうか確認：isDeletable()</text><text fill="#000000" font-family="sans-serif" font-size="11" lengthAdjust="spacingAndGlyphs" textLength="310" x="572" y="428.832">+ユーザーグループ選択用のリスト取得：getUserGroupList()</text><!--class UserService--><polygon fill="#FEFECE" filter="url(#fvyet8n)" points="417,356.1992,417,355.7185,427.3636,356.5473,437.7273,356.8988,448.0909,356.6408,458.4545,356.7011,468.8182,356.7009,479.1818,355.5911,489.5455,356.7822,499.9091,356.5308,510.2727,355.4812,520.6364,355.8609,531,356.1992,531.6368,356.1992,530.9881,365.6339,530.9433,375.0686,530.9457,384.5033,531.4579,393.9381,531.0388,403.3728,530.3707,412.8075,531,422.2422,531,422.2084,520.6364,422.4221,510.2727,422.1319,499.9091,422.532,489.5455,422.1928,479.1818,421.7369,468.8182,421.7907,458.4545,421.5509,448.0909,422.9637,437.7273,422.2507,427.3636,421.8139,417,422.2422,416.795,422.2422,416.6425,412.8075,417.746,403.3728,417.704,393.9381,416.4614,384.5033,417.4692,375.0686,417.5274,365.6339,417,356.1992" style="stroke: #A80036; stroke-width: 1.5;"/><text fill="#000000" font-family="sans-serif" font-size="12" lengthAdjust="spacingAndGlyphs" textLength="66" x="441" y="372.8008">UserService</text><path d="M418,380.332 L418,379.8386 L428.1818,381.1397 L438.3636,381.0534 L448.5455,379.7458 L458.7273,380.6652 L468.9091,381.3006 L479.0909,379.6248 L489.2727,379.865 L499.4545,380.2756 L509.6364,379.9508 L519.8182,380.3618 L530,380.332 " fill="#FEFECE" style="stroke: #A80036; stroke-width: 1.5;"/><text fill="#000000" font-family="sans-serif" font-size="11" lengthAdjust="spacingAndGlyphs" textLength="69" x="423" y="394.9668">+UsersTable</text><text fill="#000000" font-family="sans-serif" font-size="11" lengthAdjust="spacingAndGlyphs" textLength="102" x="423" y="407.9219">+LoginStoresTable</text><path d="M418,414.2422 L418,414.8407 L428.1818,414.3086 L438.3636,413.5799 L448.5455,413.276 L458.7273,415.102 L468.9091,414.3963 L479.0909,413.5096 L489.2727,414.6555 L499.4545,414.7713 L509.6364,413.6614 L519.8182,413.3045 L530,414.2422 " fill="#FEFECE" style="stroke: #A80036; stroke-width: 1.5;"/><!--class UserServiceInterface--><polygon fill="#FEFECE" filter="url(#fvyet8n)" points="6,259.1992,6,258.4581,15.8947,259.9222,25.7895,258.5259,35.6842,258.5595,45.5789,259.0618,55.4737,258.5609,65.3684,259.9233,75.2632,259.8042,85.1579,259.0858,95.0526,259.1152,104.9474,259.7419,114.8421,259.1212,124.7368,258.4612,134.6316,258.5294,144.5263,258.6573,154.4211,258.5662,164.3158,258.8524,174.2105,259.6318,184.1053,259.3552,194,259.3982,203.8947,258.5298,213.7895,258.6249,223.6842,258.4621,233.5789,259.0698,243.4737,259.919,253.3684,258.4976,263.2632,259.2514,273.1579,258.8344,283.0526,259.5299,292.9474,259.3859,302.8421,258.5189,312.7368,258.8444,322.6316,259.619,332.5263,259.908,342.4211,259.5263,352.3158,259.5326,362.2105,259.4244,372.1053,258.9586,382,259.1992,381.2981,259.1992,381.4915,269.2134,381.4246,279.2276,382.6537,289.2418,381.6152,299.256,381.7788,309.2702,382.1024,319.2844,382.375,329.2986,381.6022,339.3128,381.9218,349.327,381.9851,359.3412,381.4954,369.3554,381.6014,379.3696,381.5964,389.3838,382.4937,399.398,381.6043,409.4122,381.4467,419.4264,382.4117,429.4406,382.2894,439.4548,382.3052,449.469,381.4131,459.4832,382.0546,469.4974,382.4385,479.5116,382.5097,489.5258,381.2717,499.54,381.4897,509.5542,382,519.5684,382,519.1717,372.1053,519.4599,362.2105,519.2846,352.3158,520.2205,342.4211,519.8416,332.5263,519.0065,322.6316,519.6992,312.7368,518.882,302.8421,519.5534,292.9474,519.6438,283.0526,519.5293,273.1579,519.3216,263.2632,519.3179,253.3684,519.3935,243.4737,519.381,233.5789,519.5787,223.6842,520.0564,213.7895,519.9644,203.8947,519.918,194,518.9252,184.1053,520.2773,174.2105,519.071,164.3158,519.6487,154.4211,519.7463,144.5263,519.9649,134.6316,520.1195,124.7368,519.7942,114.8421,519.2823,104.9474,520.2371,95.0526,520.1995,85.1579,519.6077,75.2632,519.6462,65.3684,520.2244,55.4737,519.5745,45.5789,520.2722,35.6842,519.1988,25.7895,518.8647,15.8947,519.0671,6,519.5684,5.7669,519.5684,6.6643,509.5542,5.7925,499.54,5.827,489.5258,5.4888,479.5116,5.9191,469.4974,6.3765,459.4832,6.0588,449.469,6.4649,439.4548,6.2301,429.4406,5.7348,419.4264,5.419,409.4122,5.9581,399.398,5.5871,389.3838,6.4998,379.3696,6.1967,369.3554,6.5192,359.3412,6.5653,349.327,6.5823,339.3128,5.9782,329.2986,6.7013,319.2844,5.4739,309.2702,6.3251,299.256,5.8484,289.2418,5.9761,279.2276,5.6575,269.2134,6,259.1992" style="stroke: #A80036; stroke-width: 1.5;"/><text fill="#000000" font-family="sans-serif" font-size="12" lengthAdjust="spacingAndGlyphs" textLength="116" x="136" y="275.8008">UserServiceInterface</text><path d="M7,283.332 L7,283.9756 L17.1081,284.115 L27.2162,283.7874 L37.3243,284.233 L47.4324,283.8601 L57.5405,283.6158 L67.6486,283.4259 L77.7568,283.4415 L87.8649,283.2146 L97.973,282.6806 L108.0811,282.7793 L118.1892,282.9593 L128.2973,283.4834 L138.4054,283.9018 L148.5135,284.0854 L158.6216,283.8099 L168.7297,283.6944 L178.8378,282.5026 L188.9459,283.4301 L199.0541,283.4394 L209.1622,283.4566 L219.2703,284.2679 L229.3784,283.7143 L239.4865,284.2288 L249.5946,283.1273 L259.7027,282.7238 L269.8108,284.3035 L279.9189,284.3143 L290.027,283.6831 L300.1351,282.7044 L310.2432,283.1556 L320.3514,283.3214 L330.4595,283.7103 L340.5676,284.1118 L350.6757,282.5647 L360.7838,283.5066 L370.8919,284.2333 L381,283.332 " fill="#FEFECE" style="stroke: #A80036; stroke-width: 1.5;"/><path d="M7,291.332 L7,292.2869 L17.1081,290.4363 L27.2162,291.6277 L37.3243,291.8544 L47.4324,291.9474 L57.5405,291.2282 L67.6486,290.6258 L77.7568,290.8574 L87.8649,292.1387 L97.973,290.3442 L108.0811,290.9039 L118.1892,291.5568 L128.2973,292.058 L138.4054,290.8593 L148.5135,290.6274 L158.6216,291.2299 L168.7297,291.9713 L178.8378,291.9862 L188.9459,291.0445 L199.0541,291.4696 L209.1622,291.7392 L219.2703,290.6578 L229.3784,290.3413 L239.4865,291.7317 L249.5946,291.6968 L259.7027,291.0053 L269.8108,291.9965 L279.9189,291.2208 L290.027,290.8058 L300.1351,291.3541 L310.2432,290.9878 L320.3514,292.0736 L330.4595,291.103 L340.5676,290.638 L350.6757,291.5315 L360.7838,292.0418 L370.8919,291.5141 L381,291.332 " fill="#FEFECE" style="stroke: #A80036; stroke-width: 1.5;"/><text fill="#000000" font-family="sans-serif" font-size="11" lengthAdjust="spacingAndGlyphs" textLength="144" x="12" y="305.9668">+初期データ取得：getNew()</text><text fill="#000000" font-family="sans-serif" font-size="11" lengthAdjust="spacingAndGlyphs" textLength="83" x="12" y="318.9219">+作成：create()</text><text fill="#000000" font-family="sans-serif" font-size="11" lengthAdjust="spacingAndGlyphs" textLength="87" x="12" y="331.877">+編集：update()</text><text fill="#000000" font-family="sans-serif" font-size="11" lengthAdjust="spacingAndGlyphs" textLength="82" x="12" y="344.832">+削除：delete()</text><text fill="#000000" font-family="sans-serif" font-size="11" lengthAdjust="spacingAndGlyphs" textLength="122" x="12" y="357.7871">+単一データ取得：get()</text><text fill="#000000" font-family="sans-serif" font-size="11" lengthAdjust="spacingAndGlyphs" textLength="152" x="12" y="370.7422">+一覧データ取得：getIndex()</text><text fill="#000000" font-family="sans-serif" font-size="11" lengthAdjust="spacingAndGlyphs" textLength="119" x="12" y="383.6973">+リスト取得：getList()</text><text fill="#000000" font-family="sans-serif" font-size="11" lengthAdjust="spacingAndGlyphs" textLength="99" x="12" y="396.6523">+ログイン：login()</text><text fill="#000000" font-family="sans-serif" font-size="11" lengthAdjust="spacingAndGlyphs" textLength="118" x="12" y="409.6074">+ログアウト：logout()</text><text fill="#000000" font-family="sans-serif" font-size="11" lengthAdjust="spacingAndGlyphs" textLength="124" x="12" y="422.5625">+再ログイン：reLogin()</text><text fill="#000000" font-family="sans-serif" font-size="11" lengthAdjust="spacingAndGlyphs" textLength="200" x="12" y="435.5176">+代理ログインを行う：loginToAgent()</text><text fill="#000000" font-family="sans-serif" font-size="11" lengthAdjust="spacingAndGlyphs" textLength="364" x="12" y="448.4727">+代理ログインから元のユーザーに戻る：returnLoginUserFromAgent()</text><text fill="#000000" font-family="sans-serif" font-size="11" lengthAdjust="spacingAndGlyphs" textLength="285" x="12" y="461.4277">+認証用のセッションキーを取得：getAuthSessionKey()</text><text fill="#000000" font-family="sans-serif" font-size="11" lengthAdjust="spacingAndGlyphs" textLength="266" x="12" y="474.3828">+ログインキーをセット：setCookieAutoLoginKey()</text><text fill="#000000" font-family="sans-serif" font-size="11" lengthAdjust="spacingAndGlyphs" textLength="238" x="12" y="487.3379">+ログインキーを削除する：removeLoginKey()</text><text fill="#000000" font-family="sans-serif" font-size="11" lengthAdjust="spacingAndGlyphs" textLength="236" x="12" y="500.293">+ログイン状態の保存確認：checkAutoLogin()</text><text fill="#000000" font-family="sans-serif" font-size="11" lengthAdjust="spacingAndGlyphs" textLength="205" x="12" y="513.248">+ログイン情報をリロードする：reload()</text><!--class UsersTable--><polygon fill="#FEFECE" filter="url(#fvyet8n)" points="274,579.1992,274,579.5863,284,579.1732,294,578.6249,304,579.7638,314,579.1687,324,579.1325,334,579.8918,344,579.4002,354,578.9642,364,579.2147,374,578.4557,384,579.2671,394,579.5642,404,578.6779,414,579.4611,424,579.8288,434,579.4267,444,578.7772,454,579.9443,464,579.4008,474,579.0806,484,578.7112,494,578.5825,504,579.476,514,578.8009,524,579.9488,534,579.9129,544,578.6948,554,578.6687,564,579.4631,574,579.4776,584,578.8437,594,578.8417,604,579.477,614,578.7361,624,579.3761,634,579.8535,644,579.5972,654,579.3071,664,578.5184,674,579.1992,674.6278,579.1992,673.9936,588.6339,674.4459,598.0686,673.839,607.5033,673.4361,616.9381,673.3604,626.3728,674.4325,635.8075,674,645.2422,674,645.7693,664,644.8112,654,645.8346,644,645.8054,634,645.6086,624,645.0083,614,644.918,604,645.1834,594,644.9822,584,645.1017,574,645.8501,564,645.3891,554,645.603,544,645.471,534,644.5824,524,644.9798,514,645.6306,504,644.549,494,644.7849,484,645.89,474,645.1786,464,645.4352,454,645.3279,444,645.842,434,645.1051,424,644.8648,414,645.9847,404,644.5503,394,645.1218,384,644.5567,374,645.1607,364,644.9983,354,644.8539,344,645.8087,334,645.471,324,644.8968,314,644.5333,304,645.1437,294,644.6964,284,645.5832,274,645.2422,274.2643,645.2422,274.0662,635.8075,273.8252,626.3728,273.8661,616.9381,273.9564,607.5033,274.2768,598.0686,274.202,588.6339,274,579.1992" style="stroke: #A80036; stroke-width: 1.5;"/><text fill="#000000" font-family="sans-serif" font-size="12" lengthAdjust="spacingAndGlyphs" textLength="65" x="441.5" y="595.8008">UsersTable</text><path d="M275,603.332 L275,603.0968 L284.95,603.7842 L294.9,603.6808 L304.85,603.3885 L314.8,603.4876 L324.75,603.0801 L334.7,603.194 L344.65,602.762 L354.6,603.0979 L364.55,603.6213 L374.5,602.7251 L384.45,603.0777 L394.4,604.1662 L404.35,602.6623 L414.3,604.1467 L424.25,604.0115 L434.2,603.1463 L444.15,604.2459 L454.1,603.0571 L464.05,603.0151 L474,602.3526 L483.95,604.175 L493.9,603.4334 L503.85,602.3617 L513.8,603.5819 L523.75,603.3159 L533.7,604.1596 L543.65,602.5744 L553.6,603.6092 L563.55,602.697 L573.5,603.2669 L583.45,603.353 L593.4,602.6969 L603.35,603.9078 L613.3,603.4438 L623.25,602.3816 L633.2,602.9463 L643.15,604.2883 L653.1,603.5224 L663.05,602.5969 L673,603.332 " fill="#FEFECE" style="stroke: #A80036; stroke-width: 1.5;"/><path d="M275,611.332 L275,611.4417 L284.95,612.318 L294.9,611.2445 L304.85,611.6397 L314.8,611.6977 L324.75,610.4704 L334.7,610.6368 L344.65,611.2858 L354.6,611.9207 L364.55,610.5949 L374.5,610.7924 L384.45,611.6662 L394.4,612.0264 L404.35,610.6205 L414.3,611.7613 L424.25,611.0388 L434.2,611.2344 L444.15,611.0439 L454.1,611.5921 L464.05,610.7622 L474,610.366 L483.95,611.2741 L493.9,610.3478 L503.85,610.9475 L513.8,611.7217 L523.75,611.4494 L533.7,612.1362 L543.65,611.029 L553.6,610.6023 L563.55,610.8257 L573.5,610.8474 L583.45,611.1934 L593.4,612.1562 L603.35,611.2536 L613.3,611.3848 L623.25,611.2508 L633.2,611.2998 L643.15,611.6217 L653.1,611.7036 L663.05,611.0996 L673,611.332 " fill="#FEFECE" style="stroke: #A80036; stroke-width: 1.5;"/><text fill="#000000" font-family="sans-serif" font-size="11" lengthAdjust="spacingAndGlyphs" textLength="251" x="280" y="625.9668">+利用可能なユーザーを取得する：findAvailable()</text><text fill="#000000" font-family="sans-serif" font-size="11" lengthAdjust="spacingAndGlyphs" textLength="388" x="280" y="638.9219">+ユーザーが許可されている認証プレフィックスを取得する：getAuthPrefix()</text><!--class User--><polygon fill="#FEFECE" filter="url(#fvyet8n)" points="328.5,705.1992,328.5,705.6657,338.5345,704.5269,348.569,705.6553,358.6034,705.2945,368.6379,704.7829,378.6724,704.9027,388.7069,705.1873,398.7414,704.9409,408.7759,705.6579,418.8103,704.4502,428.8448,705.2101,438.8793,705.9233,448.9138,705.2026,458.9483,705.5695,468.9828,705.0689,479.0172,704.728,489.0517,704.7679,499.0862,705.062,509.1207,705.2829,519.1552,705.5522,529.1897,705.2911,539.2241,704.4584,549.2586,705.4943,559.2931,705.0888,569.3276,705.2447,579.3621,704.4869,589.3966,705.1045,599.431,705.4899,609.4655,705.8743,619.5,705.1992,619.3479,705.1992,618.8729,715.1806,619.1966,725.162,620.0072,735.1434,619.9492,745.1248,619.9965,755.1062,619.2277,765.0875,619.9386,775.0689,619.1244,785.0503,618.9374,795.0317,619.0493,805.0131,618.8725,814.9945,619.329,824.9759,619.7397,834.9573,619.5368,844.9386,619.8476,854.92,618.7954,864.9014,619.5,874.8828,619.5,875.5737,609.4655,875.0686,599.431,875.3035,589.3966,875.5991,579.3621,874.9143,569.3276,875.622,559.2931,875.583,549.2586,874.3797,539.2241,874.6408,529.1897,875.4066,519.1552,874.7782,509.1207,875.011,499.0862,874.4693,489.0517,875.6046,479.0172,874.9257,468.9828,874.8846,458.9483,874.9219,448.9138,874.6158,438.8793,875.077,428.8448,875.0921,418.8103,875.474,408.7759,874.8025,398.7414,875.1833,388.7069,874.4257,378.6724,874.753,368.6379,874.7456,358.6034,875.1924,348.569,874.9227,338.5345,875.4121,328.5,874.8828,327.8022,874.8828,328.1003,864.9014,328.4967,854.92,329.1257,844.9386,329.176,834.9573,328.3118,824.9759,328.4111,814.9945,328.1265,805.0131,328.1234,795.0317,328.8936,785.0503,328.7955,775.0689,328.5229,765.0875,328.9645,755.1062,328.791,745.1248,328.7488,735.1434,327.9863,725.162,329.0275,715.1806,328.5,705.1992" style="stroke: #A80036; stroke-width: 1.5;"/><text fill="#000000" font-family="sans-serif" font-size="12" lengthAdjust="spacingAndGlyphs" textLength="26" x="461" y="721.8008">User</text><path d="M329.5,729.332 L329.5,729.4692 L339.4655,728.7497 L349.431,729.35 L359.3966,728.9946 L369.3621,729.0623 L379.3276,728.6535 L389.2931,729.4846 L399.2586,728.9593 L409.2241,729.5291 L419.1897,729.4575 L429.1552,729.0273 L439.1207,729.1631 L449.0862,728.5984 L459.0517,728.4694 L469.0172,729.5376 L478.9828,730.0593 L488.9483,729.1053 L498.9138,729.888 L508.8793,728.5489 L518.8448,729.5828 L528.8103,729.9921 L538.7759,729.3775 L548.7414,729.7048 L558.7069,729.2342 L568.6724,728.903 L578.6379,729.0865 L588.6034,730.2726 L598.569,729.3662 L608.5345,728.9945 L618.5,729.332 " fill="#FEFECE" style="stroke: #A80036; stroke-width: 1.5;"/><text fill="#000000" font-family="sans-serif" font-size="11" lengthAdjust="spacingAndGlyphs" textLength="115" x="334.5" y="743.9668">+アカウント名：name</text><text fill="#000000" font-family="sans-serif" font-size="11" lengthAdjust="spacingAndGlyphs" textLength="127" x="334.5" y="756.9219">+パスワード：password</text><text fill="#000000" font-family="sans-serif" font-size="11" lengthAdjust="spacingAndGlyphs" textLength="99" x="334.5" y="769.877">+性：real_name_1</text><text fill="#000000" font-family="sans-serif" font-size="11" lengthAdjust="spacingAndGlyphs" textLength="99" x="334.5" y="782.832">+名：real_name_2</text><text fill="#000000" font-family="sans-serif" font-size="11" lengthAdjust="spacingAndGlyphs" textLength="125" x="334.5" y="795.7871">+メールアドレス：email</text><text fill="#000000" font-family="sans-serif" font-size="11" lengthAdjust="spacingAndGlyphs" textLength="137" x="334.5" y="808.7422">+ニックネーム：nickname</text><text fill="#000000" font-family="sans-serif" font-size="11" lengthAdjust="spacingAndGlyphs" textLength="93" x="334.5" y="821.6973">+登録日：created</text><text fill="#000000" font-family="sans-serif" font-size="11" lengthAdjust="spacingAndGlyphs" textLength="100" x="334.5" y="834.6523">+編集日：modified</text><path d="M329.5,840.9727 L329.5,841.7062 L339.4655,841.3989 L349.431,841.329 L359.3966,840.2853 L369.3621,840.0403 L379.3276,840.5147 L389.2931,840.2259 L399.2586,840.8832 L409.2241,840.302 L419.1897,840.7187 L429.1552,840.9948 L439.1207,840.8152 L449.0862,841.168 L459.0517,840.9507 L469.0172,840.5629 L478.9828,841.1373 L488.9483,841.2082 L498.9138,840.0283 L508.8793,840.6294 L518.8448,840.2343 L528.8103,841.9669 L538.7759,840.4491 L548.7414,840.5076 L558.7069,841.0135 L568.6724,840.4974 L578.6379,840.0592 L588.6034,841.2032 L598.569,840.8679 L608.5345,840.4972 L618.5,840.9727 " fill="#FEFECE" style="stroke: #A80036; stroke-width: 1.5;"/><text fill="#000000" font-family="sans-serif" font-size="11" lengthAdjust="spacingAndGlyphs" textLength="226" x="334.5" y="855.6074">+管理ユーザーかどうか判定する：isAdmin()</text><text fill="#000000" font-family="sans-serif" font-size="11" lengthAdjust="spacingAndGlyphs" textLength="279" x="334.5" y="868.5625">+整形されたユーザー名を取得する：getDisplayName()</text><path d="M474,199.3392 L473.2326,199.3392 L474.4941,209.4399 L474.7912,219.5406 L473.1353,229.6412 L473.6022,239.7419 L473.7254,249.8426 L474.4001,259.9432 L474.3311,270.0439 L474.9932,280.1446 L473.6819,290.2452 L473.1877,300.3459 L473.6117,310.4466 L473.711,320.5472 L474.9586,330.6479 L474.8138,340.7486 L474,350.8492 " fill="none" style="stroke: #000000; stroke-width: 1.0;"/><polygon fill="#000000" points="474,355.9392,474.1034,355.9852,474.6186,354.0586,475.4074,352.2536,476.4147,350.5458,477.344,348.8032,478,346.9392,477.9819,346.9211,477.1204,347.6596,476.374,348.5133,475.6267,349.3659,474.9618,350.301,474,350.9392,473.9778,350.917,473.3012,350.2404,472.4096,349.3488,471.5474,348.4866,470.9149,347.8541,470,346.9392,469.8319,346.8645,470.9942,348.8256,471.3906,350.4461,472.1987,352.2498,473.3602,354.2104,474,355.9392" style="stroke: #000000; stroke-width: 1.0;"/><path d="M536.43,389.1992 L536.43,389.1184 L542.288,389.3596 L548.146,389.3813 L554.004,389.0426 L559.862,389.2935 L565.72,389.1992 " fill="none" style="stroke: #000000; stroke-width: 1.0;"/><polygon fill="#000000" points="531.32,389.1992,531.3725,389.3173,533.0376,389.8139,534.9327,390.8278,536.7162,391.5906,538.537,392.4375,540.32,393.1992,540.4551,393.3343,539.651,392.5302,538.7781,391.6574,537.7574,390.6366,537.2424,390.1216,536.32,389.1992,536.4829,389.3621,537.0018,388.281,538.0046,387.6838,538.6809,386.7602,539.5077,385.9869,540.32,385.1992,540.3754,385.3239,538.5575,386.0836,536.6521,386.6464,534.8415,387.4225,533.075,388.2979,531.32,389.1992" style="stroke: #000000; stroke-width: 1.0;"/><path d="M474,422.3392 L474.4833,422.3392 L474.9602,432.4486 L473.6825,442.5579 L473.8769,452.6672 L473.5343,462.7766 L474.5325,472.8859 L474.3724,482.9952 L474.687,493.1046 L473.9701,503.2139 L474.8588,513.3232 L474.3169,523.4326 L474.5355,533.5419 L473.4245,543.6512 L473.7984,553.7606 L473.5676,563.8699 L474,573.9792 " fill="none" style="stroke: #000000; stroke-width: 1.0;"/><polygon fill="#000000" points="474,579.0292,474.2145,579.1246,474.6948,577.1825,475.4768,575.3745,476.2749,573.5736,477.0972,571.7835,478,570.0292,477.9534,569.9826,477.225,570.8542,476.3421,571.5713,475.6404,572.4696,474.7741,573.2033,474,574.0292,473.9152,573.9444,473.2454,573.2746,472.5713,572.6005,471.4845,571.5137,470.7064,570.7356,470,570.0292,469.7999,569.9403,470.8387,571.8464,471.5933,573.6262,472.307,575.3879,473.0146,577.1468,474,579.0292" style="stroke: #000000; stroke-width: 1.0;"/><path d="M402.25,389.1992 L402.25,388.9378 L405.188,389.0347 L408.126,389.2985 L411.064,389.3889 L414.002,389.4595 L416.94,389.1992 " fill="none" style="stroke: #000000; stroke-width: 1.0; stroke-dasharray: 1.0,3.0;"/><polygon fill="none" points="402.13,396.1992,402.1462,396.2457,398.2007,395.007,394.0871,393.288,390.0894,391.9004,386.0461,390.3823,382.12,389.1992,382.0895,389.1122,386.1407,387.8585,390.0905,386.315,394.1515,385.0891,398.0798,383.4844,402.12,382.1992,402.2498,382.1993,401.9605,384.9991,402.2512,387.7993,402.2308,390.5993,402.0574,393.3992,402.13,396.1992" style="stroke: #000000; stroke-width: 1.0;"/><path d="M474,645.4792 L474.7471,645.4792 L474.0855,656.3032 L473.3763,667.1272 L473.3978,677.9512 L474.5755,688.7752 L474,699.5992 " fill="none" style="stroke: #000000; stroke-width: 1.0;"/><polygon fill="#000000" points="474,705.0692,474.1522,705.1369,474.6675,703.2103,475.8038,701.5598,476.3491,699.6466,477.3284,697.9263,478,696.0692,478.0191,696.0884,477.0493,696.7186,476.561,697.8303,475.6552,698.5244,474.774,699.2432,474,700.0692,473.8362,699.9054,473.2125,699.2817,472.393,698.4622,471.6672,697.7364,470.8455,696.9148,470,696.0692,470.1447,696.1335,470.6385,697.7975,471.7628,699.7416,472.379,701.4599,473.4281,703.3706,474,705.0692" style="stroke: #000000; stroke-width: 1.0;"/></g></svg>