<?xml version="1.0" encoding="UTF-8" standalone="no"?><svg xmlns="http://www.w3.org/2000/svg" xmlns:xlink="http://www.w3.org/1999/xlink" contentScriptType="application/ecmascript" contentStyleType="text/css" height="677px" preserveAspectRatio="none" style="width:774px;height:677px;" version="1.1" viewBox="0 0 774 677" width="774px" zoomAndPan="magnify"><defs><filter height="300%" id="fh63thc" width="300%" x="-1" y="-1"><feGaussianBlur result="blurOut" stdDeviation="2.0"/><feColorMatrix in="blurOut" result="blurOut2" type="matrix" values="0 0 0 0 0 0 0 0 0 0 0 0 0 0 0 0 0 0 .4 0"/><feOffset dx="4.0" dy="4.0" in="blurOut2" result="blurOut3"/><feBlend in="SourceGraphic" in2="blurOut3" mode="normal"/></filter></defs><g><text fill="#000000" font-family="sans-serif" font-size="18" lengthAdjust="spacingAndGlyphs" textLength="198" x="293" y="17.4023">コンテンツフォルダ管理</text><!--class BcContentsComponent--><polygon fill="#FEFECE" filter="url(#fh63thc)" points="193.5,29.1992,193.5,28.7061,203.2059,28.9754,212.9118,28.8483,222.6176,29.8235,232.3235,29.5798,242.0294,29.9325,251.7353,28.7482,261.4412,29.0994,271.1471,28.7076,280.8529,28.93,290.5588,28.7197,300.2647,28.6285,309.9706,28.5184,319.6765,28.9647,329.3824,29.8483,339.0882,28.595,348.7941,28.7233,358.5,29.1992,358.8906,29.1992,358.2308,39.4688,357.8604,49.7383,358.8325,60.0078,358.7371,70.2773,358.1831,80.5469,358.3504,90.8164,358.419,101.0859,357.9099,111.3555,358.965,121.625,358.1121,131.8945,358.0186,142.1641,359.0023,152.4336,358.0102,162.7031,358.5,172.9727,358.5,173.1183,348.7941,173.4645,339.0882,173.4357,329.3824,172.3408,319.6765,172.8974,309.9706,173.7086,300.2647,173.2245,290.5588,172.7307,280.8529,173.4149,271.1471,172.4084,261.4412,173.0894,251.7353,173.0577,242.0294,173.3852,232.3235,172.3133,222.6176,172.4059,212.9118,173.6112,203.2059,173.0751,193.5,172.9727,193.0271,172.9727,193.3506,162.7031,193.1896,152.4336,192.8618,142.1641,193.9542,131.8945,193.5023,121.625,194.0326,111.3555,193.9716,101.0859,193.0515,90.8164,194.2495,80.5469,193.1704,70.2773,193.9311,60.0078,193.5809,49.7383,192.8448,39.4688,193.5,29.1992" style="stroke: #A80036; stroke-width: 1.5;"/><text fill="#000000" font-family="sans-serif" font-size="12" lengthAdjust="spacingAndGlyphs" textLength="129" x="211.5" y="45.8008">BcContentsComponent</text><path d="M194.5,53.332 L194.5,53.7645 L204.6875,53.014 L214.875,52.8002 L225.0625,52.6928 L235.25,52.3505 L245.4375,53.079 L255.625,52.6995 L265.8125,53.108 L276,53.4474 L286.1875,53.2055 L296.375,54.0047 L306.5625,52.8096 L316.75,53.3981 L326.9375,53.3576 L337.125,53.5741 L347.3125,53.4594 L357.5,53.332 " fill="#FEFECE" style="stroke: #A80036; stroke-width: 1.5;"/><path d="M194.5,61.332 L194.5,61.7943 L204.6875,61.168 L214.875,61.0285 L225.0625,61.0764 L235.25,60.4658 L245.4375,62.2047 L255.625,61.8477 L265.8125,62.3153 L276,61.7154 L286.1875,62.1291 L296.375,60.7587 L306.5625,61.8755 L316.75,62.1349 L326.9375,61.3506 L337.125,62.2265 L347.3125,61.0804 L357.5,61.332 " fill="#FEFECE" style="stroke: #A80036; stroke-width: 1.5;"/><text fill="#000000" font-family="sans-serif" font-size="11" lengthAdjust="spacingAndGlyphs" textLength="82" x="199.5" y="75.9668">+setupAdmin()</text><text fill="#000000" font-family="sans-serif" font-size="11" lengthAdjust="spacingAndGlyphs" textLength="76" x="199.5" y="88.9219">+setupFront()</text><text fill="#000000" font-family="sans-serif" font-size="11" lengthAdjust="spacingAndGlyphs" textLength="82" x="199.5" y="101.877">+settingForm()</text><text fill="#000000" font-family="sans-serif" font-size="11" lengthAdjust="spacingAndGlyphs" textLength="153" x="199.5" y="114.832">+getParentLayoutTemplate()</text><text fill="#000000" font-family="sans-serif" font-size="11" lengthAdjust="spacingAndGlyphs" textLength="66" x="199.5" y="127.7871">+getTypes()</text><text fill="#000000" font-family="sans-serif" font-size="11" lengthAdjust="spacingAndGlyphs" textLength="77" x="199.5" y="140.7422">+getContent()</text><text fill="#000000" font-family="sans-serif" font-size="11" lengthAdjust="spacingAndGlyphs" textLength="77" x="199.5" y="153.6973">+getCrumbs()</text><text fill="#000000" font-family="sans-serif" font-size="11" lengthAdjust="spacingAndGlyphs" textLength="90" x="199.5" y="166.6523">+beforeRender()</text><!--class Admin\ContentFoldersController--><polygon fill="#FEFECE" filter="url(#fh63thc)" points="393.5,42.1992,393.5,42.0584,403.5526,41.8676,413.6053,42.0499,423.6579,42.6967,433.7105,41.685,443.7632,42.8552,453.8158,41.5391,463.8684,41.7363,473.9211,42.6075,483.9737,42.4999,494.0263,42.6087,504.0789,42.4373,514.1316,42.4334,524.1842,41.7763,534.2368,42.6705,544.2895,42.5396,554.3421,41.7502,564.3947,42.1414,574.4474,42.9426,584.5,42.1992,584.9736,42.1992,585.1602,52.0212,584.8114,61.8431,585.0152,71.665,584.4246,81.487,584.1443,91.3089,584.71,101.1309,584.226,110.9528,585.2229,120.7747,584.066,130.5967,584.3867,140.4186,584.8273,150.2406,584.5,160.0625,584.5,159.7809,574.4474,159.3964,564.3947,159.9435,554.3421,159.7956,544.2895,160.7606,534.2368,160.3924,524.1842,160.7535,514.1316,160.6387,504.0789,159.7203,494.0263,160.3444,483.9737,159.8694,473.9211,160.0395,463.8684,159.6858,453.8158,160.6456,443.7632,159.4958,433.7105,159.6645,423.6579,159.4554,413.6053,159.3664,403.5526,160.3095,393.5,160.0625,392.9368,160.0625,392.7567,150.2406,393.0188,140.4186,393.0043,130.5967,393.9199,120.7747,393.1315,110.9528,393.7669,101.1309,394.2391,91.3089,392.8922,81.487,393.1404,71.665,393.5003,61.8431,393.1684,52.0212,393.5,42.1992" style="stroke: #A80036; stroke-width: 1.5;"/><text fill="#000000" font-family="sans-serif" font-size="12" lengthAdjust="spacingAndGlyphs" textLength="185" x="396.5" y="58.8008">Admin\ContentFoldersController</text><path d="M394.5,66.332 L394.5,66.5894 L404.4474,66.2749 L414.3947,66.6373 L424.3421,66.669 L434.2895,65.9279 L444.2368,66.6361 L454.1842,66.675 L464.1316,66.525 L474.0789,65.8269 L484.0263,65.7794 L493.9737,66.2289 L503.9211,65.6554 L513.8684,67.0659 L523.8158,67.2193 L533.7632,65.783 L543.7105,65.342 L553.6579,66.7553 L563.6053,65.8588 L573.5526,66.0803 L583.5,66.332 " fill="#FEFECE" style="stroke: #A80036; stroke-width: 1.5;"/><text fill="#000000" font-family="sans-serif" font-size="11" lengthAdjust="spacingAndGlyphs" textLength="151" x="399.5" y="80.9668">+AuthenticationComponent</text><text fill="#000000" font-family="sans-serif" font-size="11" lengthAdjust="spacingAndGlyphs" textLength="130" x="399.5" y="93.9219">+BcMessageComponent</text><text fill="#000000" font-family="sans-serif" font-size="11" lengthAdjust="spacingAndGlyphs" textLength="133" x="399.5" y="106.877">+BcContentsComponent</text><path d="M394.5,113.1973 L394.5,112.3273 L404.4474,113.4026 L414.3947,112.6988 L424.3421,113.3427 L434.2895,113.1482 L444.2368,113.025 L454.1842,114.1275 L464.1316,112.6245 L474.0789,112.6698 L484.0263,112.211 L493.9737,113.4979 L503.9211,112.8149 L513.8684,113.4455 L523.8158,113.0851 L533.7632,112.3097 L543.7105,113.8317 L553.6579,113.4231 L563.6053,112.1981 L573.5526,113.4165 L583.5,113.1973 " fill="#FEFECE" style="stroke: #A80036; stroke-width: 1.5;"/><text fill="#000000" font-family="sans-serif" font-size="11" lengthAdjust="spacingAndGlyphs" textLength="37" x="399.5" y="127.832">+edit()</text><text fill="#000000" font-family="sans-serif" font-size="11" lengthAdjust="spacingAndGlyphs" textLength="49" x="399.5" y="140.7871">+delete()</text><text fill="#000000" font-family="sans-serif" font-size="11" lengthAdjust="spacingAndGlyphs" textLength="136" x="399.5" y="153.7422">※ add() は、APIを利用する</text><!--class BcAdminContentFolderHelper--><polygon fill="#FEFECE" filter="url(#fh63thc)" points="590.5,239.6992,590.5,239.2356,600.2222,240.2184,609.9444,239.8573,619.6667,239.0101,629.3889,238.9971,639.1111,240.3667,648.8333,239.1996,658.5556,239.5775,668.2778,239.0387,678,239.1691,687.7222,240.1251,697.4444,239.5097,707.1667,239.1332,716.8889,239.6131,726.6111,239.1168,736.3333,239.7909,746.0556,240.0517,755.7778,239.7605,765.5,239.6992,764.9474,239.6992,765.0459,249.574,765.63,259.4487,764.8754,269.3235,765.1637,279.1982,765.8031,289.073,765.7447,298.9478,765.7166,308.8225,765.5,318.6973,765.5,318.3714,755.7778,318.2374,746.0556,317.9693,736.3333,318.0653,726.6111,318.3886,716.8889,319.0486,707.1667,319.2093,697.4444,319.183,687.7222,318.796,678,319.245,668.2778,318.5461,658.5556,319.0553,648.8333,319.0574,639.1111,318.0364,629.3889,318.3955,619.6667,317.9918,609.9444,319.3357,600.2222,318.4015,590.5,318.6973,589.816,318.6973,590.8612,308.8225,591.013,298.9478,589.812,289.073,589.9899,279.1982,590.0239,269.3235,589.783,259.4487,590.1179,249.574,590.5,239.6992" style="stroke: #A80036; stroke-width: 1.5;"/><text fill="#000000" font-family="sans-serif" font-size="12" lengthAdjust="spacingAndGlyphs" textLength="169" x="593.5" y="256.3008">BcAdminContentFolderHelper</text><path d="M591.5,263.832 L591.5,264.7845 L601.6765,263.9117 L611.8529,263.8657 L622.0294,263.461 L632.2059,262.9687 L642.3824,264.3002 L652.5588,264.2692 L662.7353,264.8196 L672.9118,263.86 L683.0882,263.6734 L693.2647,264.4444 L703.4412,263.5928 L713.6176,263.8286 L723.7941,264.3755 L733.9706,264.6863 L744.1471,263.8066 L754.3235,263.6136 L764.5,263.832 " fill="#FEFECE" style="stroke: #A80036; stroke-width: 1.5;"/><path d="M591.5,271.832 L591.5,271.7075 L601.6765,271.9461 L611.8529,272.1856 L622.0294,271.2946 L632.2059,272.4157 L642.3824,271.876 L652.5588,272.0286 L662.7353,272.014 L672.9118,271.3069 L683.0882,272.705 L693.2647,270.936 L703.4412,270.8812 L713.6176,270.85 L723.7941,272.412 L733.9706,271.746 L744.1471,272.4246 L754.3235,271.8533 L764.5,271.832 " fill="#FEFECE" style="stroke: #A80036; stroke-width: 1.5;"/><text fill="#000000" font-family="sans-serif" font-size="11" lengthAdjust="spacingAndGlyphs" textLength="136" x="596.5" y="286.4668">+getFolderTemplateList()</text><text fill="#000000" font-family="sans-serif" font-size="11" lengthAdjust="spacingAndGlyphs" textLength="127" x="596.5" y="299.4219">+getPageTemplateList()</text><text fill="#000000" font-family="sans-serif" font-size="11" lengthAdjust="spacingAndGlyphs" textLength="95" x="596.5" y="312.377">+getPublishLink()</text><!--class ContentFolderService--><polygon fill="#FEFECE" filter="url(#fh63thc)" points="422.5,252.6992,422.5,252.1295,432.7308,252.4423,442.9615,252.3241,453.1923,253.1858,463.4231,252.8938,473.6538,252.494,483.8846,252.096,494.1154,252.8039,504.3462,252.3154,514.5769,252.5357,524.8077,251.9924,535.0385,253.1852,545.2692,252.6485,555.5,252.6992,555.6406,252.6992,555.3121,263.3168,555.1969,273.9344,555.4405,284.552,556.2158,295.1695,555.5,305.7871,555.5,305.2507,545.2692,305.6783,535.0385,305.9291,524.8077,305.2845,514.5769,305.7743,504.3462,305.7354,494.1154,306.0652,483.8846,305.2073,473.6538,306.1516,463.4231,305.1255,453.1923,305.6657,442.9615,305.5736,432.7308,305.3643,422.5,305.7871,421.9908,305.7871,422.3239,295.1695,423.0556,284.552,422.7169,273.9344,422.4413,263.3168,422.5,252.6992" style="stroke: #A80036; stroke-width: 1.5;"/><text fill="#000000" font-family="sans-serif" font-size="12" lengthAdjust="spacingAndGlyphs" textLength="120" x="429" y="269.3008">ContentFolderService</text><path d="M423.5,276.832 L423.5,277.4322 L433.5769,276.9609 L443.6538,276.8784 L453.7308,277.4895 L463.8077,276.7653 L473.8846,277.5876 L483.9615,277.2717 L494.0385,276.8758 L504.1154,276.7853 L514.1923,277.3655 L524.2692,277.1194 L534.3462,276.1711 L544.4231,276.1749 L554.5,276.832 " fill="#FEFECE" style="stroke: #A80036; stroke-width: 1.5;"/><text fill="#000000" font-family="sans-serif" font-size="11" lengthAdjust="spacingAndGlyphs" textLength="121" x="428.5" y="291.4668">+ContentFoldersTable</text><path d="M423.5,297.7871 L423.5,298.3453 L433.5769,298.1483 L443.6538,298.2672 L453.7308,297.3418 L463.8077,298.1898 L473.8846,296.9542 L483.9615,298.5552 L494.0385,297.7278 L504.1154,297.9099 L514.1923,297.3268 L524.2692,297.1713 L534.3462,297.9569 L544.4231,297.8349 L554.5,297.7871 " fill="#FEFECE" style="stroke: #A80036; stroke-width: 1.5;"/><!--class ContentFolderServiceInterface--><polygon fill="#FEFECE" filter="url(#fh63thc)" points="211,233.1992,211,233.1133,220.7778,232.4811,230.5556,233.0333,240.3333,233.1134,250.1111,233.4117,259.8889,233.3949,269.6667,232.8537,279.4444,233.2422,289.2222,233.5448,299,233.0765,308.7778,232.9024,318.5556,233.5767,328.3333,233.135,338.1111,232.5666,347.8889,232.5345,357.6667,232.7993,367.4444,233.2934,377.2222,233.1699,387,233.1992,386.3212,233.1992,387.7216,243.4162,387.7106,253.6332,386.3163,263.8503,386.3125,274.0673,387.58,284.2843,386.8503,294.5013,386.6988,304.7183,386.9384,314.9353,387,325.1523,387,325.8304,377.2222,324.6336,367.4444,324.7447,357.6667,325.6294,347.8889,324.7141,338.1111,325.4877,328.3333,325.6778,318.5556,325.3717,308.7778,325.5563,299,325.2633,289.2222,324.9103,279.4444,325.0554,269.6667,325.7778,259.8889,325.608,250.1111,325.5611,240.3333,324.5798,230.5556,324.4066,220.7778,325.3835,211,325.1523,210.8382,325.1523,210.4719,314.9353,210.7965,304.7183,210.95,294.5013,211.7048,284.2843,211.1322,274.0673,210.6693,263.8503,210.9929,253.6332,211.1769,243.4162,211,233.1992" style="stroke: #A80036; stroke-width: 1.5;"/><text fill="#000000" font-family="sans-serif" font-size="12" lengthAdjust="spacingAndGlyphs" textLength="170" x="214" y="249.8008">ContentFolderServiceInterface</text><path d="M212,257.332 L212,257.6766 L222.2353,256.9654 L232.4706,256.3413 L242.7059,256.4019 L252.9412,256.4296 L263.1765,256.7665 L273.4118,257.0181 L283.6471,258.0058 L293.8824,257.1665 L304.1176,257.754 L314.3529,256.6092 L324.5882,256.8103 L334.8235,257.2539 L345.0588,257.1046 L355.2941,257.2512 L365.5294,258.205 L375.7647,258.1346 L386,257.332 " fill="#FEFECE" style="stroke: #A80036; stroke-width: 1.5;"/><path d="M212,265.332 L212,266.1956 L222.2353,265.6952 L232.4706,265.5031 L242.7059,264.6147 L252.9412,265.7946 L263.1765,266.1919 L273.4118,265.9592 L283.6471,264.9759 L293.8824,266.178 L304.1176,264.9467 L314.3529,264.6744 L324.5882,265.7167 L334.8235,265.6054 L345.0588,265.6925 L355.2941,266.1417 L365.5294,266.3178 L375.7647,264.7138 L386,265.332 " fill="#FEFECE" style="stroke: #A80036; stroke-width: 1.5;"/><text fill="#000000" font-family="sans-serif" font-size="11" lengthAdjust="spacingAndGlyphs" textLength="96" x="217" y="279.9668">+isOverPostSize()</text><text fill="#000000" font-family="sans-serif" font-size="11" lengthAdjust="spacingAndGlyphs" textLength="136" x="217" y="292.9219">+getFolderTemplateList()</text><text fill="#000000" font-family="sans-serif" font-size="11" lengthAdjust="spacingAndGlyphs" textLength="127" x="217" y="305.877">+getPageTemplateList()</text><text fill="#000000" font-family="sans-serif" font-size="11" lengthAdjust="spacingAndGlyphs" textLength="95" x="217" y="318.832">+getPublishLink()</text><!--class ContentFoldersTable--><polygon fill="#FEFECE" filter="url(#fh63thc)" points="415,391.6992,415,391.8115,424.8667,392.2304,434.7333,391.0422,444.6,391.8041,454.4667,392.0522,464.3333,391.2148,474.2,391.118,484.0667,391.7119,493.9333,391.1187,503.8,392.4068,513.6667,391.0623,523.5333,392.4283,533.4,391.6878,543.2667,391.2461,553.1333,391.0684,563,391.6992,563.5678,391.6992,563.1734,402.19,563.1602,412.6809,563.0382,423.1717,563.6402,433.6625,563.0584,444.1533,563.237,454.6441,562.7301,465.135,562.3469,475.6258,562.327,486.1166,563,496.6074,563,496.8265,553.1333,496.8553,543.2667,496.6044,533.4,496.2954,523.5333,496.5563,513.6667,496.3699,503.8,496.9802,493.9333,496.2159,484.0667,496.8012,474.2,496.8919,464.3333,496.0965,454.4667,496.5856,444.6,496.2879,434.7333,496.5745,424.8667,496.0417,415,496.6074,415.2873,496.6074,414.4496,486.1166,415.0708,475.6258,415.0141,465.135,414.6758,454.6441,414.4703,444.1533,415.0608,433.6625,414.9654,423.1717,414.8218,412.6809,414.5305,402.19,415,391.6992" style="stroke: #A80036; stroke-width: 1.5;"/><text fill="#000000" font-family="sans-serif" font-size="12" lengthAdjust="spacingAndGlyphs" textLength="119" x="429.5" y="408.3008">ContentFoldersTable</text><path d="M416,415.832 L416,415.1761 L425.7333,416.8306 L435.4667,415.9302 L445.2,415.7744 L454.9333,415.5128 L464.6667,415.0021 L474.4,416.4866 L484.1333,416.7664 L493.8667,416.7824 L503.6,416.3525 L513.3333,415.9077 L523.0667,416.1963 L532.8,416.4253 L542.5333,415.7426 L552.2667,416.1517 L562,415.832 " fill="#FEFECE" style="stroke: #A80036; stroke-width: 1.5;"/><path d="M416,423.832 L416,424.3589 L425.7333,423.2039 L435.4667,423.785 L445.2,422.9459 L454.9333,423.2789 L464.6667,423.0229 L474.4,424.3285 L484.1333,423.9545 L493.8667,424.7663 L503.6,423.5959 L513.3333,424.8088 L523.0667,424.5399 L532.8,424.1005 L542.5333,423.0603 L552.2667,424.6779 L562,423.832 " fill="#FEFECE" style="stroke: #A80036; stroke-width: 1.5;"/><text fill="#000000" font-family="sans-serif" font-size="11" lengthAdjust="spacingAndGlyphs" textLength="117" x="421" y="438.4668">+getParentTemplate()</text><text fill="#000000" font-family="sans-serif" font-size="11" lengthAdjust="spacingAndGlyphs" textLength="136" x="421" y="451.4219">+getFolderTemplateList()</text><text fill="#000000" font-family="sans-serif" font-size="11" lengthAdjust="spacingAndGlyphs" textLength="85" x="421" y="464.377">+saveSiteRoot()</text><text fill="#000000" font-family="sans-serif" font-size="11" lengthAdjust="spacingAndGlyphs" textLength="126" x="421" y="477.332">+movePageTemplates()</text><text fill="#000000" font-family="sans-serif" font-size="11" lengthAdjust="spacingAndGlyphs" textLength="105" x="421" y="490.2871">+setBeforeRecord()</text><!--class SearchIndiceTable--><polygon fill="#FEFECE" filter="url(#fh63thc)" points="598.5,417.6992,598.5,417.3057,608.5909,417.8109,618.6818,417.3978,628.7727,417.0382,638.8636,418.105,648.9545,417.0146,659.0455,417.0637,669.1364,418.3294,679.2273,418.1845,689.3182,417.6274,699.4091,418.0893,709.5,417.6992,709.4836,417.6992,710.1535,428.3168,709.0596,438.9344,708.9776,449.552,710.16,460.1695,709.5,470.7871,709.5,471.3426,699.4091,470.5791,689.3182,470.5057,679.2273,470.8003,669.1364,470.0765,659.0455,471.4649,648.9545,470.7374,638.8636,470.9734,628.7727,471.2723,618.6818,470.7658,608.5909,471.4086,598.5,470.7871,597.959,470.7871,598.3085,460.1695,598.7481,449.552,598.8594,438.9344,598.7997,428.3168,598.5,417.6992" style="stroke: #A80036; stroke-width: 1.5;"/><text fill="#000000" font-family="sans-serif" font-size="12" lengthAdjust="spacingAndGlyphs" textLength="105" x="601.5" y="434.3008">SearchIndiceTable</text><path d="M599.5,441.832 L599.5,442.1073 L609.4091,442.7528 L619.3182,442.3529 L629.2273,442.7281 L639.1364,441.7008 L649.0455,441.1826 L658.9545,441.8409 L668.8636,441.6209 L678.7727,442.7024 L688.6818,442.1253 L698.5909,441.0015 L708.5,441.832 " fill="#FEFECE" style="stroke: #A80036; stroke-width: 1.5;"/><path d="M599.5,449.832 L599.5,449.6061 L609.4091,450.6917 L619.3182,449.1634 L629.2273,450.116 L639.1364,450.1939 L649.0455,450.5482 L658.9545,449.1321 L668.8636,449.8972 L678.7727,450.1245 L688.6818,450.105 L698.5909,450.8033 L708.5,449.832 " fill="#FEFECE" style="stroke: #A80036; stroke-width: 1.5;"/><text fill="#000000" font-family="sans-serif" font-size="11" lengthAdjust="spacingAndGlyphs" textLength="80" x="604.5" y="464.4668">+reconstruct()</text><!--class ContentFolder--><polygon fill="#FEFECE" filter="url(#fh63thc)" points="209.5,563.1992,209.5,563.4661,219.0455,562.6893,228.5909,563.2242,238.1364,563.6895,247.6818,563.1104,257.2273,563.5071,266.7727,563.4239,276.3182,563.1646,285.8636,562.5489,295.4091,562.659,304.9545,563.4804,314.5,563.1992,314.163,563.1992,313.9231,573.69,313.7766,584.1809,314.6825,594.6717,314.0357,605.1625,314.384,615.6533,314.0805,626.1441,313.9933,636.635,314.5866,647.1258,315.171,657.6166,314.5,668.1074,314.5,667.3739,304.9545,667.744,295.4091,667.5271,285.8636,667.9861,276.3182,668.021,266.7727,668.7082,257.2273,667.5821,247.6818,668.7917,238.1364,667.8613,228.5909,667.5091,219.0455,668.5212,209.5,668.1074,209.9664,668.1074,209.963,657.6166,210.0832,647.1258,209.2941,636.635,208.9012,626.1441,209.5735,615.6533,209.3189,605.1625,209.2962,594.6717,209.9579,584.1809,209.854,573.69,209.5,563.1992" style="stroke: #A80036; stroke-width: 1.5;"/><text fill="#000000" font-family="sans-serif" font-size="12" lengthAdjust="spacingAndGlyphs" textLength="80" x="222" y="579.8008">ContentFolder</text><path d="M210.5,587.332 L210.5,587.0458 L220.8,587.8014 L231.1,587.2273 L241.4,587.6557 L251.7,587.2154 L262,586.736 L272.3,587.8091 L282.6,587.8264 L292.9,587.8443 L303.2,587.6073 L313.5,587.332 " fill="#FEFECE" style="stroke: #A80036; stroke-width: 1.5;"/><text fill="#000000" font-family="sans-serif" font-size="11" lengthAdjust="spacingAndGlyphs" textLength="19" x="215.5" y="601.9668">+id</text><text fill="#000000" font-family="sans-serif" font-size="11" lengthAdjust="spacingAndGlyphs" textLength="93" x="215.5" y="614.9219">+folder_template</text><text fill="#000000" font-family="sans-serif" font-size="11" lengthAdjust="spacingAndGlyphs" textLength="87" x="215.5" y="627.877">+page_template</text><text fill="#000000" font-family="sans-serif" font-size="11" lengthAdjust="spacingAndGlyphs" textLength="49" x="215.5" y="640.832">+created</text><text fill="#000000" font-family="sans-serif" font-size="11" lengthAdjust="spacingAndGlyphs" textLength="56" x="215.5" y="653.7871">+modified</text><path d="M210.5,660.1074 L210.5,659.1808 L220.8,660.5881 L231.1,659.2387 L241.4,660.5679 L251.7,660.6621 L262,660.0298 L272.3,660.4071 L282.6,659.2979 L292.9,659.1743 L303.2,660.083 L313.5,660.1074 " fill="#FEFECE" style="stroke: #A80036; stroke-width: 1.5;"/><!--class BcContentsBehavior--><polygon fill="#FEFECE" filter="url(#fh63thc)" points="262,385.1992,262,385.4356,271.8333,385.7256,281.6667,384.611,291.5,385.485,301.3333,385.0788,311.1667,385.287,321,385.2123,330.8333,385.1929,340.6667,384.6398,350.5,384.8362,360.3333,385.691,370.1667,384.7541,380,385.1992,379.9089,385.1992,379.4522,395.0212,380.6524,404.8431,380.1433,414.665,380.6915,424.487,379.4395,434.3089,380.0102,444.1309,379.9401,453.9528,379.4272,463.7747,380.0249,473.5967,379.6077,483.4186,379.9914,493.2406,380,503.0625,380,503.4754,370.1667,502.7313,360.3333,502.5059,350.5,502.8875,340.6667,503.7644,330.8333,503.2214,321,503.8114,311.1667,503.257,301.3333,502.8692,291.5,503.3719,281.6667,503.6379,271.8333,503.764,262,503.0625,262.1404,503.0625,262.121,493.2406,261.4542,483.4186,262.6389,473.5967,261.3612,463.7747,261.3283,453.9528,261.2771,444.1309,261.6852,434.3089,261.642,424.487,262.5983,414.665,261.5022,404.8431,262.5784,395.0212,262,385.1992" style="stroke: #A80036; stroke-width: 1.5;"/><text fill="#000000" font-family="sans-serif" font-size="12" lengthAdjust="spacingAndGlyphs" textLength="112" x="265" y="401.8008">BcContentsBehavior</text><path d="M263,409.332 L263,410.096 L272.6667,409.2278 L282.3333,409.7681 L292,408.7903 L301.6667,409.2245 L311.3333,409.3056 L321,410.1173 L330.6667,408.7321 L340.3333,409.7312 L350,409.9417 L359.6667,409.7913 L369.3333,410.2328 L379,409.332 " fill="#FEFECE" style="stroke: #A80036; stroke-width: 1.5;"/><path d="M263,417.332 L263,417.3548 L272.6667,416.547 L282.3333,416.468 L292,417.9571 L301.6667,417.709 L311.3333,417.2203 L321,416.7096 L330.6667,418.2679 L340.3333,417.1753 L350,417.6427 L359.6667,417.2179 L369.3333,416.5677 L379,417.332 " fill="#FEFECE" style="stroke: #A80036; stroke-width: 1.5;"/><text fill="#000000" font-family="sans-serif" font-size="11" lengthAdjust="spacingAndGlyphs" textLength="94" x="268" y="431.9668">+beforeValidate()</text><text fill="#000000" font-family="sans-serif" font-size="11" lengthAdjust="spacingAndGlyphs" textLength="76" x="268" y="444.9219">+beforeSave()</text><text fill="#000000" font-family="sans-serif" font-size="11" lengthAdjust="spacingAndGlyphs" textLength="66" x="268" y="457.877">+afterSave()</text><text fill="#000000" font-family="sans-serif" font-size="11" lengthAdjust="spacingAndGlyphs" textLength="85" x="268" y="470.832">+beforeDelete()</text><text fill="#000000" font-family="sans-serif" font-size="11" lengthAdjust="spacingAndGlyphs" textLength="75" x="268" y="483.7871">+afterDelete()</text><text fill="#000000" font-family="sans-serif" font-size="11" lengthAdjust="spacingAndGlyphs" textLength="90" x="268" y="496.7422">+findPublished()</text><!--class ContentsTable--><polygon fill="#FEFECE" filter="url(#fh63thc)" points="99,385.1992,99,385.2101,108.8462,385.4702,118.6923,385.758,128.5385,384.9596,138.3846,384.6641,148.2308,385.7582,158.0769,384.7806,167.9231,385.5459,177.7692,385.9065,187.6154,385.55,197.4615,385.7039,207.3077,384.9118,217.1538,384.6483,227,385.1992,227.3531,385.1992,227.4499,395.0212,226.2656,404.8431,226.8642,414.665,226.38,424.487,226.4814,434.3089,226.9039,444.1309,226.3496,453.9528,227.0038,463.7747,226.8159,473.5967,226.649,483.4186,227.3622,493.2406,227,503.0625,227,502.5569,217.1538,502.6473,207.3077,502.4009,197.4615,503.3838,187.6154,502.5774,177.7692,503.4523,167.9231,502.8236,158.0769,502.4029,148.2308,503.7289,138.3846,503.5887,128.5385,503.2187,118.6923,503.2253,108.8462,503.6185,99,503.0625,98.9531,503.0625,99.7402,493.2406,98.6099,483.4186,99.5982,473.5967,98.382,463.7747,98.3773,453.9528,99.6175,444.1309,98.7422,434.3089,99.7182,424.487,98.6572,414.665,99.5243,404.8431,98.7621,395.0212,99,385.1992" style="stroke: #A80036; stroke-width: 1.5;"/><text fill="#000000" font-family="sans-serif" font-size="12" lengthAdjust="spacingAndGlyphs" textLength="83" x="121.5" y="401.8008">ContentsTable</text><path d="M100,409.332 L100,409.3771 L109.6923,409.997 L119.3846,409.5995 L129.0769,409.5146 L138.7692,409.6976 L148.4615,409.9388 L158.1538,409.1337 L167.8462,408.5258 L177.5385,409.3291 L187.2308,408.8755 L196.9231,408.5389 L206.6154,409.4623 L216.3077,410.1718 L226,409.332 " fill="#FEFECE" style="stroke: #A80036; stroke-width: 1.5;"/><text fill="#000000" font-family="sans-serif" font-size="11" lengthAdjust="spacingAndGlyphs" textLength="96" x="105" y="423.9668">+updatingRelated</text><path d="M100,430.2871 L100,430.6813 L109.6923,430.6976 L119.3846,429.4636 L129.0769,430.24 L138.7692,429.8872 L148.4615,429.975 L158.1538,431.2307 L167.8462,429.6038 L177.5385,430.2404 L187.2308,431.0258 L196.9231,429.7258 L206.6154,430.2842 L216.3077,430.4422 L226,430.2871 " fill="#FEFECE" style="stroke: #A80036; stroke-width: 1.5;"/><text fill="#000000" font-family="sans-serif" font-size="11" lengthAdjust="spacingAndGlyphs" textLength="116" x="105" y="444.9219">+updateChildrenUrl()</text><text fill="#000000" font-family="sans-serif" font-size="11" lengthAdjust="spacingAndGlyphs" textLength="57" x="105" y="457.877">+getPath()</text><text fill="#000000" font-family="sans-serif" font-size="11" lengthAdjust="spacingAndGlyphs" textLength="93" x="105" y="470.832">+createContent()</text><text fill="#000000" font-family="sans-serif" font-size="11" lengthAdjust="spacingAndGlyphs" textLength="71" x="105" y="483.7871">+softDelete()</text><text fill="#000000" font-family="sans-serif" font-size="11" lengthAdjust="spacingAndGlyphs" textLength="109" x="105" y="496.7422">+removeFromTree()</text><!--class Content--><polygon fill="#FEFECE" filter="url(#fh63thc)" points="6,417.6992,6,418.084,15.6667,418.3631,25.3333,417.2076,35,417.3103,44.6667,417.2562,54.3333,417.9611,64,417.6992,63.9616,417.6992,64.4311,428.3168,63.6458,438.9344,63.6142,449.552,64.4534,460.1695,64,470.7871,64,471.5026,54.3333,470.1571,44.6667,470.7963,35,471.1648,25.3333,471.0503,15.6667,471.2608,6,470.7871,6.5645,470.7871,6.2104,460.1695,6.3241,449.552,5.9906,438.9344,5.4441,428.3168,6,417.6992" style="stroke: #A80036; stroke-width: 1.5;"/><text fill="#000000" font-family="sans-serif" font-size="12" lengthAdjust="spacingAndGlyphs" textLength="44" x="13" y="434.3008">Content</text><path d="M7,441.832 L7,441.2067 L16.3333,441.6847 L25.6667,442.6514 L35,441.9628 L44.3333,442.2863 L53.6667,442.7475 L63,441.832 " fill="#FEFECE" style="stroke: #A80036; stroke-width: 1.5;"/><text fill="#000000" font-family="sans-serif" font-size="11" lengthAdjust="spacingAndGlyphs" textLength="46" x="12" y="456.4668">entity_id</text><path d="M7,462.7871 L7,463.5727 L16.3333,461.9846 L25.6667,463.1508 L35,463.1597 L44.3333,462.8417 L53.6667,462.4905 L63,462.7871 " fill="#FEFECE" style="stroke: #A80036; stroke-width: 1.5;"/><path d="M363.92,101.1992 L363.92,100.9356 L369.81,101.2354 L375.7,101.2098 L381.59,101.0548 L387.48,101.463 L393.37,101.1992 " fill="none" style="stroke: #000000; stroke-width: 1.0;"/><polygon fill="#000000" points="358.79,101.1992,358.7474,101.1033,360.6187,102.0639,362.3526,102.715,364.253,103.7409,366.0882,104.6201,367.79,105.1992,367.7152,105.1245,366.9249,104.3341,366.2282,103.6374,365.3903,102.7995,364.482,101.8912,363.79,101.1992,363.6694,101.0787,364.6445,100.4537,365.4591,99.6683,366.0302,98.6394,367.1431,98.1523,367.79,97.1992,367.8786,97.3985,365.9539,97.918,364.1289,98.6617,362.3183,99.4379,360.6656,100.5694,358.79,101.1992" style="stroke: #000000; stroke-width: 1.0;"/><path d="M489,160.3192 L489.9336,160.3192 L489.245,169.9859 L489.1631,179.6526 L488.7555,189.3192 L488.3825,198.9859 L488.7366,208.6526 L489.3142,218.3192 L488.9772,227.9859 L488.8903,237.6526 L489,247.3192 " fill="none" style="stroke: #000000; stroke-width: 1.0;"/><polygon fill="#000000" points="489,252.5892,488.7929,252.4972,489.758,250.7705,490.5515,248.9677,491.2208,247.1096,492.164,245.3732,493,243.5892,492.9396,243.5288,492.3701,244.5594,491.3361,245.1253,490.7542,246.1435,489.8021,246.7914,489,247.5892,489.1747,247.7639,488.0282,246.6175,487.5667,246.1559,486.6224,245.2117,485.8328,244.422,485,243.5892,485.1349,243.6492,485.938,245.4505,486.3899,247.0958,487.4189,248.9976,488.4194,250.8867,489,252.5892" style="stroke: #000000; stroke-width: 1.0;"/><path d="M560.92,279.1992 L560.92,279.2984 L566.772,279.4422 L572.624,279.1131 L578.476,279.0775 L584.328,279.4186 L590.18,279.1992 " fill="none" style="stroke: #000000; stroke-width: 1.0;"/><polygon fill="#000000" points="555.81,279.1992,555.834,279.2533,557.6588,280.109,559.4103,280.7999,561.2822,281.7616,562.9638,282.2953,564.81,283.1992,564.9096,283.2988,564.0845,282.4738,563.1745,281.5638,562.2455,280.6347,561.6182,280.0074,560.81,279.1992,560.9771,279.3663,561.5434,278.3326,562.5455,277.7347,563.2052,276.7944,563.8987,275.8879,564.81,275.1992,564.787,275.1474,562.9596,275.8857,561.1695,276.708,559.3373,277.4357,557.5676,278.3037,555.81,279.1992" style="stroke: #000000; stroke-width: 1.0;"/><path d="M407.53,279.1992 L407.53,278.9993 L410.478,279.2772 L413.426,279.4526 L416.374,279.5279 L419.322,279.029 L422.27,279.1992 " fill="none" style="stroke: #000000; stroke-width: 1.0; stroke-dasharray: 1.0,3.0;"/><polygon fill="none" points="407.32,286.1992,407.3674,286.3347,403.255,284.6134,399.2702,283.2569,395.3718,282.1473,391.3444,280.6689,387.32,279.1992,387.3014,279.146,391.348,277.8792,395.2507,276.2012,399.2994,274.9404,403.2628,273.4359,407.32,272.1992,407.5168,272.1992,407.3985,274.9992,407.4169,277.7992,407.2855,280.5992,407.2611,283.3992,407.32,286.1992" style="stroke: #000000; stroke-width: 1.0;"/><path d="M489,306.0292 L488.6939,306.0292 L489.5218,316.0817 L489.0369,326.1342 L489.822,336.1867 L489.6624,346.2392 L489.6702,356.2917 L489.2849,366.3442 L488.5204,376.3967 L489,386.4492 " fill="none" style="stroke: #000000; stroke-width: 1.0;"/><polygon fill="#000000" points="489,391.5092,489.1422,391.5724,489.7066,389.6677,490.7575,387.9792,491.3912,386.1053,492.3132,384.3596,493,382.5092,493.1058,382.615,492.0626,383.1719,491.3656,384.0748,490.7487,385.058,489.7204,385.6297,489,386.5092,489.153,386.6622,488.0236,385.5328,487.2531,384.7623,486.4571,383.9663,485.6754,383.1846,485,382.5092,484.9393,382.4822,485.811,384.3141,486.4307,386.034,487.2004,387.8205,488.1381,389.6817,489,391.5092" style="stroke: #000000; stroke-width: 1.0;"/><path d="M563.12,444.1992 L563.12,444.3985 L569.106,444.161 L575.092,444.1561 L581.078,444.2809 L587.064,444.4849 L593.05,444.1992 " fill="none" style="stroke: #000000; stroke-width: 1.0;"/><polygon fill="#000000" points="598.27,444.1992,598.2156,444.0769,596.5647,443.6123,594.6277,442.5041,592.8088,441.6616,590.983,440.8034,589.27,440.1992,589.2764,440.2056,590.243,441.1722,590.7525,441.6817,591.772,442.7013,592.3781,443.3073,593.27,444.1992,593.2967,444.2259,592.5804,445.1097,591.5835,445.7127,590.7964,446.5256,590.1929,447.5222,589.27,448.1992,589.1886,448.0162,590.9732,447.1813,592.9267,446.7267,594.7477,445.974,596.4815,445.0251,598.27,444.1992" style="stroke: #000000; stroke-width: 1.0;"/><path d="M385.24,444.1992 L385.24,443.9633 L391.184,444.4951 L397.128,444.2917 L403.072,444.3363 L409.016,444.2844 L414.96,444.1992 " fill="none" style="stroke: #000000; stroke-width: 1.0;"/><polygon fill="#000000" points="380.06,444.1992,380.0639,444.2081,381.8648,445.0099,383.6495,445.7757,385.5133,446.7191,387.2643,447.4089,389.06,448.1992,389.2144,448.3536,388.3359,447.4751,387.3492,446.4884,386.6818,445.821,385.8021,444.9413,385.06,444.1992,385.1858,444.3251,385.9368,443.476,386.5041,442.4433,387.3259,441.6651,388.2306,440.9699,389.06,440.1992,388.967,439.9901,387.2556,440.9893,385.478,441.8397,383.5655,442.3866,381.7638,443.1827,380.06,444.1992" style="stroke: #000000; stroke-width: 1.0;"/><path d="M218.48,381.6192 L218.6674,381.8582 L220.4491,380.0091 L222.3983,378.3738 L224.6141,377.0783 L226.4283,375.2707 L228.4855,373.773 L228.5049,373.8016 L230.5747,372.3072 L232.5493,370.673 L234.6369,369.2049 L237.0645,368.2363 L239.0338,366.5942 L239.1479,366.7949 L241.2592,365.3754 L243.5887,364.3396 L245.5335,362.6274 L247.7236,361.3465 L250.0602,360.323 L250.1036,360.4199 L252.3269,359.2509 L254.6208,358.2394 L256.9774,357.3677 L259.1364,356.0551 L261.5,355.1992 L261.5588,355.3631 L264.9909,354.1743 L268.4363,353.0224 L271.7493,351.5012 L275.1393,350.1949 L278.5945,349.0703 L278.5707,348.9869 L281.6771,348.4748 L284.6901,347.6348 L287.5937,346.4113 L290.6328,345.6629 L293.6344,344.7831 L293.688,345.0777 L296.395,344.4228 L299.0713,343.5993 L301.8395,343.2806 L304.5274,342.5205 L307.3121,342.2925 L307.3051,342.1689 L309.9275,342.3875 L312.5176,342.0374 L315.1206,341.9144 L317.7232,341.7853 L320.32,341.553 L320.3363,341.7731 L322.9047,341.4576 L325.5393,342.0365 L328.1494,342.2827 L330.7374,342.2322 L333.3504,342.5192 L333.342,342.4756 L336.1287,343.1979 L338.9009,343.8441 L341.6006,344.1112 L344.3383,344.5773 L347.0956,345.1459 L347.0717,345.0606 L350.0836,345.8423 L353.097,346.6298 L356.1419,347.5298 L359.1304,348.2281 L362.248,349.3877 L362.2762,349.4714 L365.6797,350.4944 L369.1328,351.6647 L372.5215,352.6439 L376.1302,354.2761 L379.5,355.1992 L379.562,355.3437 L382.6266,356.3937 L385.9337,358.0082 L389.2044,359.5383 L392.2781,360.6093 L395.5233,362.0798 L395.4953,362.0305 L398.5819,363.7899 L401.8063,365.7924 L404.8344,367.4486 L407.6764,368.7763 L410.9138,370.8017 L410.9291,370.824 L413.7239,372.659 L416.5529,374.5435 L419.6465,376.8122 L422.3939,378.5784 L425.4773,380.8323 L425.606,380.9936 L428.267,383.0954 L430.9537,385.2294 L433.5128,387.2035 L436.2541,389.406 L439.02,391.6392 " fill="none" style="stroke: #000000; stroke-width: 1.0;"/><polygon fill="#000000" points="214.52,384.9992,214.4964,384.9203,216.4762,384.6658,218.3567,384.0789,220.1509,383.2035,222.0293,382.6096,223.9565,382.1791,223.9543,382.1503,222.8099,381.8509,221.6941,381.9237,220.5616,381.7789,219.4443,381.8313,218.3163,381.7453,218.2515,381.7403,218.3895,380.6162,218.5302,379.4923,218.666,378.368,218.8439,377.247,218.7501,376.1051,218.5404,376.0053,217.7424,377.807,216.8663,379.5715,216.3412,381.503,215.2425,383.1616,214.52,384.9992" style="stroke: #000000; stroke-width: 1.0;"/><path d="M419.97,496.7492 L419.6757,496.3551 L411.6384,501.8033 L404.1496,507.986 L396.2513,513.6203 L388.5229,519.4822 L380.6472,525.1468 L373.6437,531.9795 L366.0809,538.0632 L358.0683,543.5446 L350.0212,548.9796 L342.7047,555.3931 L334.8981,561.1502 L326.9434,566.7091 L318.93,572.1892 " fill="none" style="stroke: #000000; stroke-width: 1.0;"/><polygon fill="#000000" points="314.85,575.2392,314.8296,575.1486,316.7455,574.69,318.7246,574.5129,320.6292,574.0045,322.5775,573.6899,324.4587,573.0776,324.4874,573.2729,323.3361,572.891,322.2014,572.622,321.1105,572.6511,319.9494,572.2025,318.862,572.2552,319.0729,572.2862,319.2331,571.1663,319.2488,570.025,319.4165,568.9062,319.6906,567.8029,319.6843,566.6585,319.9005,566.7802,318.5352,568.2719,317.9021,570.1761,316.8706,571.8558,315.9713,573.6101,314.85,575.2392" style="stroke: #000000; stroke-width: 1.0;"/><path d="M232.3,444.1992 L232.3,444.5016 L238.166,444.4014 L244.032,444.0925 L249.898,444.2547 L255.764,444.4137 L261.63,444.1992 " fill="none" style="stroke: #000000; stroke-width: 1.0;"/><polygon fill="#000000" points="227.19,444.1992,227.1893,444.1977,229.0776,445.1963,230.866,445.9702,232.5592,446.5299,234.46,447.5568,236.19,448.1992,236.0339,448.0431,235.4877,447.4969,234.7413,446.7506,233.8167,445.8259,232.8187,444.8279,232.19,444.1992,232.2086,444.2178,233.072,443.4813,233.6332,442.4424,234.5261,441.7353,235.5368,441.146,236.19,440.1992,236.2431,440.3187,234.4846,441.212,232.5326,441.67,230.773,442.561,228.9416,443.2903,227.19,444.1992" style="stroke: #000000; stroke-width: 1.0;"/><path d="M69.17,444.1992 L69.17,444.246 L75.096,444.1442 L81.022,444.366 L86.948,444.3854 L92.874,444.0129 L98.8,444.1992 " fill="none" style="stroke: #000000; stroke-width: 1.0;"/><polygon fill="#000000" points="64,444.1992,63.9877,444.1715,65.7331,444.8487,67.5598,445.7087,69.3949,446.5877,71.2744,447.5666,73,448.1992,72.8697,448.0689,72.1268,447.326,71.2342,446.4334,70.5655,445.7647,69.8531,445.0523,69,444.1992,68.8334,444.0326,69.7632,443.3624,70.7577,442.757,71.4838,441.883,72.1836,440.9828,73,440.1992,73.0856,440.3918,71.2931,441.2088,69.4111,441.8242,67.6616,442.7378,65.8048,443.4101,64,444.1992" style="stroke: #000000; stroke-width: 1.0;"/><path d="M204.69,586.1292 L204.5773,585.9247 L201.8705,584.6834 L198.8771,582.9221 L195.8282,581.0602 L192.9102,579.4357 L190.1647,578.1242 L190.2551,578.2815 L187.0085,576.2034 L184.1465,574.7946 L181.0935,573.0534 L177.8372,570.9584 L174.8447,569.3225 L175.0124,569.6012 L171.7419,567.527 L168.4019,565.3374 L165.4561,563.803 L162.1618,561.6893 L158.9936,559.7851 L159.1641,560.0542 L155.7257,557.673 L152.6028,555.7897 L149.397,553.7755 L146.2507,551.8554 L142.875,549.573 L142.8693,549.5645 L139.8198,547.6599 L136.443,545.268 L133.0742,542.8879 L129.8105,540.6642 L126.7527,538.7473 L126.6569,538.6137 L123.4917,536.3482 L120.3527,534.1193 L117.0588,531.6743 L113.9743,529.5214 L110.8903,527.3691 L110.69,527.1102 L107.9697,525.1853 L104.6559,522.4933 L101.6198,520.1603 L98.6925,517.9679 L95.5515,515.4994 L95.3783,515.2944 L92.5519,512.9336 L89.8733,510.7478 L87.0335,508.3712 L83.8361,505.5715 L81,503.1992 L80.9504,503.1475 L79.5944,501.865 L77.8504,500.1779 L76.2073,498.5961 L74.9229,497.3881 L73.1348,495.6552 L72.9589,495.4936 L71.5369,493.9313 L69.9704,492.2363 L68.4366,490.5714 L67.183,489.1636 L65.6362,487.4867 L65.4695,487.348 L64.0145,485.6203 L62.788,484.0828 L61.2111,482.2537 L60.018,480.7439 L58.642,479.082 L58.5786,479.0332 L57.3604,477.4228 L56.2097,475.8644 L55.0327,474.2857 L53.7797,472.6486 L52.29,470.8292 " fill="none" style="stroke: #000000; stroke-width: 1.0;"/><polygon fill="#000000" points="209.2,588.5492,209.2543,588.5916,208.1312,587.1065,206.8821,585.5232,205.702,583.9938,204.5479,582.4846,203.1451,580.7815,203.3011,580.8288,203.5818,581.8967,203.6386,582.8966,204.2967,584.0791,204.4428,585.1061,204.7894,586.1941,204.7506,586.0662,203.7631,586.7079,202.5798,586.7049,201.5016,587.0482,200.4279,587.406,199.3768,587.8384,199.3704,587.7493,201.3336,587.8713,203.2936,587.9499,205.2545,588.041,207.2385,588.4504,209.2,588.5492" style="stroke: #000000; stroke-width: 1.0;"/></g></svg>