<?xml version="1.0" encoding="UTF-8" standalone="no"?><svg xmlns="http://www.w3.org/2000/svg" xmlns:xlink="http://www.w3.org/1999/xlink" contentScriptType="application/ecmascript" contentStyleType="text/css" height="878px" preserveAspectRatio="none" style="width:913px;height:878px;" version="1.1" viewBox="0 0 913 878" width="913px" zoomAndPan="magnify"><defs><filter height="300%" id="fp6tq2v" width="300%" x="-1" y="-1"><feGaussianBlur result="blurOut" stdDeviation="2.0"/><feColorMatrix in="blurOut" result="blurOut2" type="matrix" values="0 0 0 0 0 0 0 0 0 0 0 0 0 0 0 0 0 0 .4 0"/><feOffset dx="4.0" dy="4.0" in="blurOut2" result="blurOut3"/><feBlend in="SourceGraphic" in2="blurOut3" mode="normal"/></filter></defs><g><text fill="#000000" font-family="sans-serif" font-size="18" lengthAdjust="spacingAndGlyphs" textLength="108" x="407" y="16.708">ユーザー管理</text><!--class Admin\UsersController--><polygon fill="#FEFECE" filter="url(#fp6tq2v)" points="385,28.9531,385,28.6899,395.1053,29.5418,405.2105,28.5124,415.3158,29.6422,425.4211,28.5787,435.5263,29.415,445.6316,29.2865,455.7368,29.601,465.8421,28.2806,475.9474,29.5748,486.0526,29.1854,496.1579,29.083,506.2632,29.0416,516.3684,29.2917,526.4737,29.1996,536.5789,28.52,546.6842,29.5736,556.7895,28.4192,566.8947,28.4683,577,28.9531,577.3653,28.9531,577.463,38.8364,577.3953,48.7197,576.7398,58.6029,576.5716,68.4862,576.5497,78.3695,576.5785,88.2528,577.4581,98.136,577.4989,108.0193,576.4078,117.9026,576.9417,127.7858,577.3387,137.6691,577.09,147.5524,576.2799,157.4357,576.8395,167.3189,576.6175,177.2022,577.2829,187.0855,577,196.9688,577,197.11,566.8947,197.4525,556.7895,196.3042,546.6842,196.3131,536.5789,197.0677,526.4737,196.489,516.3684,197.6189,506.2632,196.5073,496.1579,196.9747,486.0526,197.5834,475.9474,196.6602,465.8421,197.0682,455.7368,197.2569,445.6316,197.5187,435.5263,196.6674,425.4211,196.2549,415.3158,196.9534,405.2105,196.9085,395.1053,196.5009,385,196.9688,384.3064,196.9688,385.3267,187.0855,385.2045,177.2022,385.0757,167.3189,384.6115,157.4357,384.3358,147.5524,384.4648,137.6691,385.5552,127.7858,384.9785,117.9026,384.4051,108.0193,385.4597,98.136,384.3831,88.2528,384.4172,78.3695,385.1375,68.4862,385.506,58.6029,384.2999,48.7197,384.2626,38.8364,385,28.9531" style="stroke: #A80036; stroke-width: 1.5;"/><text fill="#000000" font-family="sans-serif" font-size="12" lengthAdjust="spacingAndGlyphs" textLength="139" x="411.5" y="45.0918">Admin\UsersController</text><path d="M386,52.9219 L386,52.7283 L396,52.7595 L406,52.6889 L416,52.7035 L426,52.4666 L436,51.9916 L446,52.7228 L456,51.9807 L466,53.2146 L476,52.2877 L486,53.7236 L496,53.8632 L506,53.7147 L516,52.4391 L526,53.8163 L536,52.9859 L546,52.0203 L556,52.9571 L566,52.7701 L576,52.9219 " fill="#FEFECE" style="stroke: #A80036; stroke-width: 1.5;"/><text fill="#000000" font-family="sans-serif" font-size="11" lengthAdjust="spacingAndGlyphs" textLength="154" x="391" y="67.1323">+AuthenticationComponent</text><text fill="#000000" font-family="sans-serif" font-size="11" lengthAdjust="spacingAndGlyphs" textLength="139" x="391" y="79.937">+BcMessageComponent</text><path d="M386,86.5313 L386,86.7058 L396,86.3151 L406,85.7383 L416,85.7172 L426,87.2297 L436,86.9529 L446,85.9044 L456,87.2451 L466,85.573 L476,86.6248 L486,86.0859 L496,87.1829 L506,86.1686 L516,86.9196 L526,87.0796 L536,86.2284 L546,87.472 L556,85.9922 L566,87.0523 L576,86.5313 " fill="#FEFECE" style="stroke: #A80036; stroke-width: 1.5;"/><text fill="#000000" font-family="sans-serif" font-size="11" lengthAdjust="spacingAndGlyphs" textLength="99" x="391" y="100.7417">+ログイン：login()</text><text fill="#000000" font-family="sans-serif" font-size="11" lengthAdjust="spacingAndGlyphs" textLength="159" x="391" y="113.5464">+代理ログイン：login_agent()</text><text fill="#000000" font-family="sans-serif" font-size="11" lengthAdjust="spacingAndGlyphs" textLength="180" x="391" y="126.3511">+代理ログイン解除：back_agent()</text><text fill="#000000" font-family="sans-serif" font-size="11" lengthAdjust="spacingAndGlyphs" textLength="118" x="391" y="139.1558">+ログアウト：logout()</text><text fill="#000000" font-family="sans-serif" font-size="11" lengthAdjust="spacingAndGlyphs" textLength="157" x="391" y="151.9604">+ユーザー一覧を表示：index()</text><text fill="#000000" font-family="sans-serif" font-size="11" lengthAdjust="spacingAndGlyphs" textLength="137" x="391" y="164.7651">+ユーザー新規追加：add()</text><text fill="#000000" font-family="sans-serif" font-size="11" lengthAdjust="spacingAndGlyphs" textLength="115" x="391" y="177.5698">+ユーザー編集：edit()</text><text fill="#000000" font-family="sans-serif" font-size="11" lengthAdjust="spacingAndGlyphs" textLength="129" x="391" y="190.3745">+ユーザー削除：delete()</text><!--class BcAdminUserHelper--><polygon fill="#FEFECE" filter="url(#fp6tq2v)" points="576.5,340.4531,576.5,340.4169,586.4091,340.9944,596.3182,340.6713,606.2273,341.1996,616.1364,340.1999,626.0455,340.5086,635.9545,339.9076,645.8636,341.139,655.7727,340.6051,665.6818,340.1363,675.5909,340.9838,685.5,340.6058,695.4091,340.9167,705.3182,339.7036,715.2273,340.9352,725.1364,340.3902,735.0455,340.0082,744.9545,341.066,754.8636,340.308,764.7727,340.2011,774.6818,341.1876,784.5909,340.1834,794.5,340.5612,804.4091,340.8804,814.3182,340.0533,824.2273,340.7818,834.1364,340.934,844.0455,340.052,853.9545,339.8472,863.8636,340.5259,873.7727,340.2601,883.6818,340.0643,893.5909,339.8653,903.5,340.4531,903.1534,340.4531,903.3049,350.5851,903.1474,360.717,904.1762,370.849,902.8757,380.9809,904.2447,391.1128,903.8514,401.2448,903.796,411.3767,904.2194,421.5087,903.5,431.6406,903.5,432.2363,893.5909,432.3804,883.6818,431.8979,873.7727,431.5703,863.8636,430.9263,853.9545,431.1899,844.0455,432.3891,834.1364,431.632,824.2273,432.2057,814.3182,432.1391,804.4091,431.7408,794.5,430.9714,784.5909,431.2918,774.6818,432.3673,764.7727,431.5909,754.8636,431.4291,744.9545,430.9846,735.0455,431.0497,725.1364,431.0013,715.2273,430.95,705.3182,432.2871,695.4091,431.3806,685.5,431.9483,675.5909,431.0356,665.6818,432.2351,655.7727,432.2539,645.8636,431.3798,635.9545,431.3169,626.0455,431.6363,616.1364,432.0739,606.2273,432.3825,596.3182,431.6123,586.4091,431.7506,576.5,431.6406,576.5298,431.6406,576.7893,421.5087,575.9089,411.3767,575.952,401.2448,576.1623,391.1128,577.0498,380.9809,576.6064,370.849,576.3834,360.717,577.0458,350.5851,576.5,340.4531" style="stroke: #A80036; stroke-width: 1.5;"/><text fill="#000000" font-family="sans-serif" font-size="12" lengthAdjust="spacingAndGlyphs" textLength="123" x="678.5" y="356.5918">BcAdminUserHelper</text><path d="M577.5,364.4219 L577.5,364.1766 L587.3485,363.7964 L597.197,363.7202 L607.0455,365.4165 L616.8939,364.7965 L626.7424,365.0431 L636.5909,365.4147 L646.4394,363.9535 L656.2879,365.2563 L666.1364,365.1673 L675.9848,364.9316 L685.8333,364.4573 L695.6818,365.3623 L705.5303,363.9385 L715.3788,363.4868 L725.2273,364.4107 L735.0758,363.7693 L744.9242,364.9792 L754.7727,363.8118 L764.6212,364.8829 L774.4697,365.1781 L784.3182,364.9191 L794.1667,363.7765 L804.0152,365.106 L813.8636,363.7251 L823.7121,364.219 L833.5606,365.3982 L843.4091,364.2464 L853.2576,363.6871 L863.1061,364.5199 L872.9545,363.6934 L882.803,364.8931 L892.6515,364.8998 L902.5,364.4219 " fill="#FEFECE" style="stroke: #A80036; stroke-width: 1.5;"/><path d="M577.5,372.4219 L577.5,371.6968 L587.3485,373.078 L597.197,372.8344 L607.0455,372.0103 L616.8939,373.0585 L626.7424,372.7044 L636.5909,371.6729 L646.4394,371.8339 L656.2879,373.3406 L666.1364,372.2493 L675.9848,372.7514 L685.8333,371.6783 L695.6818,373.2734 L705.5303,372.2267 L715.3788,372.7189 L725.2273,371.5307 L735.0758,372.5832 L744.9242,371.8966 L754.7727,372.8596 L764.6212,372.4645 L774.4697,372.3022 L784.3182,373.2766 L794.1667,372.0428 L804.0152,372.5325 L813.8636,373.209 L823.7121,371.6385 L833.5606,372.8181 L843.4091,371.7501 L853.2576,372.1141 L863.1061,373.178 L872.9545,371.792 L882.803,371.5557 L892.6515,371.5281 L902.5,372.4219 " fill="#FEFECE" style="stroke: #A80036; stroke-width: 1.5;"/><text fill="#000000" font-family="sans-serif" font-size="11" lengthAdjust="spacingAndGlyphs" textLength="309" x="582.5" y="386.6323">+ログインユーザー自身の更新かどうか確認：isSelfUpdate()</text><text fill="#000000" font-family="sans-serif" font-size="11" lengthAdjust="spacingAndGlyphs" textLength="215" x="582.5" y="399.437">+更新ができるかどうか確認：isEditable()</text><text fill="#000000" font-family="sans-serif" font-size="11" lengthAdjust="spacingAndGlyphs" textLength="223" x="582.5" y="412.2417">+削除ができるかどうか確認：isDeletable()</text><text fill="#000000" font-family="sans-serif" font-size="11" lengthAdjust="spacingAndGlyphs" textLength="315" x="582.5" y="425.0464">+ユーザーグループ選択用のリスト取得：getUserGroupList()</text><!--class UserService--><polygon fill="#FEFECE" filter="url(#fp6tq2v)" points="421,352.9531,421,353.6113,431,353.3583,441,353.6484,451,353.3992,461,352.7393,471,352.7656,481,353.6594,491,352.82,501,352.3081,511,352.8359,521,353.5543,531,352.901,541,352.9531,540.672,352.9531,540.5961,362.3214,541.4769,371.6897,540.5976,381.058,540.4986,390.4263,540.7797,399.7946,541.4494,409.1629,541,418.5313,541,418.2173,531,418.8876,521,418.6432,511,417.8145,501,419.0846,491,418.4564,481,419.1379,471,418.1095,461,418.0791,451,419.2586,441,418.4176,431,418.0719,421,418.5313,421.5173,418.5313,421.477,409.1629,420.8326,399.7946,420.9033,390.4263,420.375,381.058,420.9903,371.6897,420.9449,362.3214,421,352.9531" style="stroke: #A80036; stroke-width: 1.5;"/><text fill="#000000" font-family="sans-serif" font-size="12" lengthAdjust="spacingAndGlyphs" textLength="74" x="444" y="369.0918">UserService</text><path d="M422,376.9219 L422,377.8228 L431.8333,375.9382 L441.6667,376.1101 L451.5,376.8182 L461.3333,376.386 L471.1667,376.1693 L481,376.2826 L490.8333,376.4308 L500.6667,377.5159 L510.5,377.3353 L520.3333,376.8606 L530.1667,376.5457 L540,376.9219 " fill="#FEFECE" style="stroke: #A80036; stroke-width: 1.5;"/><text fill="#000000" font-family="sans-serif" font-size="11" lengthAdjust="spacingAndGlyphs" textLength="74" x="427" y="391.1323">+UsersTable</text><text fill="#000000" font-family="sans-serif" font-size="11" lengthAdjust="spacingAndGlyphs" textLength="108" x="427" y="403.937">+LoginStoresTable</text><path d="M422,410.5313 L422,411.4371 L431.8333,410.003 L441.6667,411.0116 L451.5,411.4142 L461.3333,410.3573 L471.1667,410.8521 L481,411.3129 L490.8333,410.663 L500.6667,409.6235 L510.5,409.9773 L520.3333,410.9845 L530.1667,411.402 L540,410.5313 " fill="#FEFECE" style="stroke: #A80036; stroke-width: 1.5;"/><!--class UserServiceInterface--><polygon fill="#FEFECE" filter="url(#fp6tq2v)" points="6,256.9531,6,256.8611,16,257.6517,26,257.6034,36,257.4273,46,256.2832,56,257.5991,66,257.3787,76,257.4514,86,257.1007,96,256.8264,106,256.8489,116,256.744,126,257.3494,136,256.9012,146,256.4757,156,257.0393,166,257.3309,176,256.3068,186,257.5369,196,257.3172,206,257.7021,216,256.6326,226,257.0406,236,256.9287,246,256.5229,256,257.336,266,256.9099,276,257.4135,286,256.5593,296,257.2951,306,256.9809,316,256.2288,326,256.8428,336,257.6148,346,256.2974,356,257.1454,366,256.2791,376,256.5962,386,256.9531,385.9933,256.9531,386.5998,266.8627,386.5094,276.7722,385.4785,286.6818,386.3209,296.5913,385.9032,306.5009,385.3445,316.4105,386.0873,326.32,385.2856,336.2296,385.5846,346.1391,386.0967,356.0487,386.5647,365.9582,385.957,375.8678,385.8523,385.7773,386.5964,395.6869,385.4773,405.5965,385.7422,415.506,386.597,425.4156,385.4963,435.3251,386.2007,445.2347,385.8297,455.1442,386.6284,465.0538,385.7402,474.9633,385.6627,484.8729,386.571,494.7825,385.3704,504.692,386,514.6016,386,514.8374,376,514.8254,366,514.1843,356,514.953,346,514.7363,336,514.1024,326,514.342,316,515.0423,306,514.7181,296,514.3151,286,514.055,276,513.9432,266,514.7418,256,515.2176,246,515.2549,236,514.978,226,514.8758,216,514.3548,206,514.4082,196,514.6659,186,514.5429,176,514.7724,166,514.5589,156,514.0221,146,514.8203,136,514.3964,126,514.9435,116,514.8828,106,514.8141,96,514.5883,86,514.073,76,514.8917,66,515.0899,56,514.3789,46,514.3666,36,514.0667,26,514.6768,16,514.0799,6,514.6016,5.3315,514.6016,6.5018,504.692,6.6773,494.7825,5.2726,484.8729,5.3394,474.9633,6.6592,465.0538,5.9185,455.1442,5.4871,445.2347,5.5836,435.3251,6.7169,425.4156,5.7232,415.506,5.5607,405.5965,5.8595,395.6869,6.0884,385.7773,5.279,375.8678,6.2289,365.9582,5.5778,356.0487,6.2263,346.1391,6.4616,336.2296,6.6596,326.32,6.711,316.4105,5.9541,306.5009,6.6049,296.5913,6.1935,286.6818,6.6432,276.7722,5.8192,266.8627,6,256.9531" style="stroke: #A80036; stroke-width: 1.5;"/><text fill="#000000" font-family="sans-serif" font-size="12" lengthAdjust="spacingAndGlyphs" textLength="130" x="131" y="273.0918">UserServiceInterface</text><path d="M7,280.9219 L7,281.7017 L16.9474,280.8674 L26.8947,281.3344 L36.8421,280.8791 L46.7895,280.0539 L56.7368,280.1982 L66.6842,281.7808 L76.6316,281.4599 L86.5789,280.6059 L96.5263,281.2352 L106.4737,280.6994 L116.4211,279.9997 L126.3684,281.5412 L136.3158,280.9195 L146.2632,281.1222 L156.2105,281.4199 L166.1579,280.673 L176.1053,280.8467 L186.0526,280.6446 L196,280.6611 L205.9474,281.5883 L215.8947,280.5579 L225.8421,281.6811 L235.7895,281.38 L245.7368,280.8246 L255.6842,280.6853 L265.6316,280.3841 L275.5789,279.9613 L285.5263,281.0764 L295.4737,281.6811 L305.4211,280.5581 L315.3684,280.2437 L325.3158,281.7057 L335.2632,280.1842 L345.2105,280.1496 L355.1579,280.4047 L365.1053,281.551 L375.0526,280.3426 L385,280.9219 " fill="#FEFECE" style="stroke: #A80036; stroke-width: 1.5;"/><path d="M7,288.9219 L7,289.5763 L16.9474,289.4296 L26.8947,288.1799 L36.8421,289.6115 L46.7895,289.2844 L56.7368,288.5136 L66.6842,288.3254 L76.6316,289.685 L86.5789,288.4834 L96.5263,288.5987 L106.4737,288.273 L116.4211,289.2963 L126.3684,288.0033 L136.3158,289.0457 L146.2632,288.4343 L156.2105,288.6324 L166.1579,289.6586 L176.1053,288.1727 L186.0526,289.2454 L196,289.066 L205.9474,288.3728 L215.8947,288.0604 L225.8421,289.8705 L235.7895,288.7883 L245.7368,289.63 L255.6842,289.634 L265.6316,288.9734 L275.5789,288.76 L285.5263,289.5673 L295.4737,289.5752 L305.4211,288.0304 L315.3684,288.1567 L325.3158,288.2076 L335.2632,288.0996 L345.2105,288.3186 L355.1579,288.1875 L365.1053,287.9549 L375.0526,288.056 L385,288.9219 " fill="#FEFECE" style="stroke: #A80036; stroke-width: 1.5;"/><text fill="#000000" font-family="sans-serif" font-size="11" lengthAdjust="spacingAndGlyphs" textLength="147" x="12" y="303.1323">+初期データ取得：getNew()</text><text fill="#000000" font-family="sans-serif" font-size="11" lengthAdjust="spacingAndGlyphs" textLength="86" x="12" y="315.937">+作成：create()</text><text fill="#000000" font-family="sans-serif" font-size="11" lengthAdjust="spacingAndGlyphs" textLength="89" x="12" y="328.7417">+編集：update()</text><text fill="#000000" font-family="sans-serif" font-size="11" lengthAdjust="spacingAndGlyphs" textLength="85" x="12" y="341.5464">+削除：delete()</text><text fill="#000000" font-family="sans-serif" font-size="11" lengthAdjust="spacingAndGlyphs" textLength="123" x="12" y="354.3511">+単一データ取得：get()</text><text fill="#000000" font-family="sans-serif" font-size="11" lengthAdjust="spacingAndGlyphs" textLength="153" x="12" y="367.1558">+一覧データ取得：getIndex()</text><text fill="#000000" font-family="sans-serif" font-size="11" lengthAdjust="spacingAndGlyphs" textLength="121" x="12" y="379.9604">+リスト取得：getList()</text><text fill="#000000" font-family="sans-serif" font-size="11" lengthAdjust="spacingAndGlyphs" textLength="99" x="12" y="392.7651">+ログイン：login()</text><text fill="#000000" font-family="sans-serif" font-size="11" lengthAdjust="spacingAndGlyphs" textLength="118" x="12" y="405.5698">+ログアウト：logout()</text><text fill="#000000" font-family="sans-serif" font-size="11" lengthAdjust="spacingAndGlyphs" textLength="125" x="12" y="418.3745">+再ログイン：reLogin()</text><text fill="#000000" font-family="sans-serif" font-size="11" lengthAdjust="spacingAndGlyphs" textLength="200" x="12" y="431.1792">+代理ログインを行う：loginToAgent()</text><text fill="#000000" font-family="sans-serif" font-size="11" lengthAdjust="spacingAndGlyphs" textLength="368" x="12" y="443.9839">+代理ログインから元のユーザーに戻る：returnLoginUserFromAgent()</text><text fill="#000000" font-family="sans-serif" font-size="11" lengthAdjust="spacingAndGlyphs" textLength="291" x="12" y="456.7886">+認証用のセッションキーを取得：getAuthSessionKey()</text><text fill="#000000" font-family="sans-serif" font-size="11" lengthAdjust="spacingAndGlyphs" textLength="269" x="12" y="469.5933">+ログインキーをセット：setCookieAutoLoginKey()</text><text fill="#000000" font-family="sans-serif" font-size="11" lengthAdjust="spacingAndGlyphs" textLength="242" x="12" y="482.3979">+ログインキーを削除する：removeLoginKey()</text><text fill="#000000" font-family="sans-serif" font-size="11" lengthAdjust="spacingAndGlyphs" textLength="236" x="12" y="495.2026">+ログイン状態の保存確認：checkAutoLogin()</text><text fill="#000000" font-family="sans-serif" font-size="11" lengthAdjust="spacingAndGlyphs" textLength="207" x="12" y="508.0073">+ログイン情報をリロードする：reload()</text><!--class UsersTable--><polygon fill="#FEFECE" filter="url(#fp6tq2v)" points="280.5,574.9531,280.5,574.8628,290.525,575.615,300.55,575.4135,310.575,575.1331,320.6,575.5099,330.625,574.5596,340.65,574.3121,350.675,574.6227,360.7,575.1759,370.725,575.0711,380.75,574.9137,390.775,575.378,400.8,574.4873,410.825,575.4803,420.85,574.2689,430.875,575.1803,440.9,574.3544,450.925,574.6396,460.95,574.5477,470.975,574.3904,481,574.8893,491.025,574.8524,501.05,574.5352,511.075,574.634,521.1,574.8221,531.125,574.9835,541.15,574.8629,551.175,575.2537,561.2,574.5005,571.225,574.9295,581.25,575.1203,591.275,574.701,601.3,574.7561,611.325,575.2318,621.35,575.1586,631.375,575.6862,641.4,575.1872,651.425,574.4213,661.45,574.8978,671.475,575.4983,681.5,574.9531,680.8095,574.9531,682.243,584.3214,681.3242,593.6897,681.0055,603.058,681.6235,612.4263,681.2912,621.7946,681.6875,631.1629,681.5,640.5313,681.5,640.0507,671.475,640.1702,661.45,641.0214,651.425,640.9103,641.4,640.1785,631.375,640.3726,621.35,639.8614,611.325,640.1697,601.3,641.054,591.275,640.4181,581.25,641.2676,571.225,641.0515,561.2,640.3433,551.175,640.6011,541.15,640.5171,531.125,640.0617,521.1,640.7478,511.075,640.2855,501.05,641.18,491.025,640.5015,481,639.8279,470.975,640.8401,460.95,640.9412,450.925,641.1301,440.9,640.1406,430.875,640.594,420.85,640.8007,410.825,641.2106,400.8,640.3622,390.775,639.8822,380.75,639.9824,370.725,639.7825,360.7,640.1922,350.675,640.3797,340.65,639.9285,330.625,640.6136,320.6,640.9164,310.575,641.1369,300.55,640.4959,290.525,640.7174,280.5,640.5313,280.0096,640.5313,280.9804,631.1629,280.8927,621.7946,280.0583,612.4263,280.8623,603.058,280.0311,593.6897,280.2586,584.3214,280.5,574.9531" style="stroke: #A80036; stroke-width: 1.5;"/><text fill="#000000" font-family="sans-serif" font-size="12" lengthAdjust="spacingAndGlyphs" textLength="70" x="446" y="591.0918">UsersTable</text><path d="M281.5,598.9219 L281.5,598.0894 L291.475,599.5926 L301.45,598.7585 L311.425,598.9115 L321.4,598.6845 L331.375,599.8147 L341.35,599.6673 L351.325,598.3615 L361.3,599.5282 L371.275,598.0427 L381.25,598.9476 L391.225,598.7156 L401.2,598.3905 L411.175,597.9742 L421.15,598.2866 L431.125,599.8043 L441.1,598.4971 L451.075,598.5997 L461.05,598.3551 L471.025,599.7386 L481,599.0277 L490.975,599.0441 L500.95,599.8894 L510.925,598.9066 L520.9,599.2686 L530.875,598.6726 L540.85,599.0488 L550.825,598.3714 L560.8,599.8577 L570.775,597.9365 L580.75,598.1177 L590.725,598.9826 L600.7,598.1796 L610.675,598.851 L620.65,598.712 L630.625,598.159 L640.6,599.0339 L650.575,599.3567 L660.55,598.181 L670.525,598.8721 L680.5,598.9219 " fill="#FEFECE" style="stroke: #A80036; stroke-width: 1.5;"/><path d="M281.5,606.9219 L281.5,606.1933 L291.475,607.1095 L301.45,606.8605 L311.425,607.8768 L321.4,607.4071 L331.375,607.4791 L341.35,606.2383 L351.325,607.6833 L361.3,606.776 L371.275,607.7024 L381.25,605.9354 L391.225,607.157 L401.2,606.2367 L411.175,606.2483 L421.15,606.6838 L431.125,606.9562 L441.1,606.1424 L451.075,607.4946 L461.05,607.2007 L471.025,606.2816 L481,607.6094 L490.975,606.7988 L500.95,607.0127 L510.925,606.6149 L520.9,606.4251 L530.875,605.9679 L540.85,606.8736 L550.825,606.2593 L560.8,607.8724 L570.775,605.9845 L580.75,607.4507 L590.725,606.5737 L600.7,607.8221 L610.675,606.647 L620.65,607.421 L630.625,606.8039 L640.6,607.8842 L650.575,607.5107 L660.55,606.0225 L670.525,607.3667 L680.5,606.9219 " fill="#FEFECE" style="stroke: #A80036; stroke-width: 1.5;"/><text fill="#000000" font-family="sans-serif" font-size="11" lengthAdjust="spacingAndGlyphs" textLength="253" x="286.5" y="621.1323">+利用可能なユーザーを取得する：findAvailable()</text><text fill="#000000" font-family="sans-serif" font-size="11" lengthAdjust="spacingAndGlyphs" textLength="389" x="286.5" y="633.937">+ユーザーが許可されている認証プレフィックスを取得する：getAuthPrefix()</text><!--class User--><polygon fill="#FEFECE" filter="url(#fp6tq2v)" points="332.5,700.9531,332.5,701.2197,342.4,701.1513,352.3,700.5972,362.2,701.2601,372.1,701.3036,382,700.7578,391.9,701.1942,401.8,700.7615,411.7,700.8237,421.6,700.9055,431.5,701.0925,441.4,701.4551,451.3,700.5003,461.2,701.0959,471.1,700.344,481,700.3059,490.9,701.4783,500.8,701.5304,510.7,701.3661,520.6,700.3018,530.5,701.2543,540.4,701.629,550.3,700.6903,560.2,700.2194,570.1,701.2467,580,701.0047,589.9,701.5936,599.8,701.5084,609.7,701.2736,619.6,701.3879,629.5,700.9531,629.6807,700.9531,628.7508,710.8364,630.0342,720.7197,629.1763,730.6029,628.7901,740.4862,628.8676,750.3695,629.9665,760.2528,630.0317,770.136,628.7895,780.0193,629.9723,789.9026,628.7753,799.7858,629.4685,809.6691,629.9748,819.5524,629.5794,829.4357,629.0483,839.3189,629.2218,849.2022,629.2916,859.0855,629.5,868.9688,629.5,869.6353,619.6,869.5794,609.7,868.2332,599.8,869.0266,589.9,868.9273,580,869.6735,570.1,868.7198,560.2,868.6867,550.3,869.1575,540.4,868.6263,530.5,868.3104,520.6,869.678,510.7,868.2709,500.8,869.6983,490.9,869.5779,481,869.6721,471.1,869.5028,461.2,868.7109,451.3,868.4574,441.4,869.7049,431.5,868.4277,421.6,868.2837,411.7,868.8995,401.8,869.551,391.9,869.4462,382,868.5725,372.1,869.5493,362.2,869.1018,352.3,868.7499,342.4,869.2896,332.5,868.9688,332.4157,868.9688,332.5375,859.0855,333.1095,849.2022,333.0349,839.3189,332.3418,829.4357,331.9257,819.5524,332.0946,809.6691,331.7952,799.7858,331.7614,789.9026,332.688,780.0193,332.1688,770.136,332.9962,760.2528,332.6033,750.3695,332.0045,740.4862,332.8989,730.6029,333.1012,720.7197,332.2263,710.8364,332.5,700.9531" style="stroke: #A80036; stroke-width: 1.5;"/><text fill="#000000" font-family="sans-serif" font-size="12" lengthAdjust="spacingAndGlyphs" textLength="29" x="466.5" y="717.0918">User</text><path d="M333.5,724.9219 L333.5,725.7536 L343.3333,725.1816 L353.1667,725.4212 L363,724.9001 L372.8333,724.6163 L382.6667,725.1038 L392.5,725.7587 L402.3333,724.3484 L412.1667,724.2883 L422,725.1264 L431.8333,725.8187 L441.6667,724.9936 L451.5,725.6452 L461.3333,724.2456 L471.1667,725.8396 L481,724.5702 L490.8333,725.0843 L500.6667,724.0008 L510.5,724.3212 L520.3333,724.475 L530.1667,725.3105 L540,724.0102 L549.8333,725.3716 L559.6667,725.292 L569.5,725.4356 L579.3333,725.916 L589.1667,724.5878 L599,725.9166 L608.8333,725.47 L618.6667,724.0814 L628.5,724.9219 " fill="#FEFECE" style="stroke: #A80036; stroke-width: 1.5;"/><text fill="#000000" font-family="sans-serif" font-size="11" lengthAdjust="spacingAndGlyphs" textLength="118" x="338.5" y="739.1323">+アカウント名：name</text><text fill="#000000" font-family="sans-serif" font-size="11" lengthAdjust="spacingAndGlyphs" textLength="131" x="338.5" y="751.937">+パスワード：password</text><text fill="#000000" font-family="sans-serif" font-size="11" lengthAdjust="spacingAndGlyphs" textLength="104" x="338.5" y="764.7417">+性：real_name_1</text><text fill="#000000" font-family="sans-serif" font-size="11" lengthAdjust="spacingAndGlyphs" textLength="104" x="338.5" y="777.5464">+名：real_name_2</text><text fill="#000000" font-family="sans-serif" font-size="11" lengthAdjust="spacingAndGlyphs" textLength="128" x="338.5" y="790.3511">+メールアドレス：email</text><text fill="#000000" font-family="sans-serif" font-size="11" lengthAdjust="spacingAndGlyphs" textLength="140" x="338.5" y="803.1558">+ニックネーム：nickname</text><text fill="#000000" font-family="sans-serif" font-size="11" lengthAdjust="spacingAndGlyphs" textLength="96" x="338.5" y="815.9604">+登録日：created</text><text fill="#000000" font-family="sans-serif" font-size="11" lengthAdjust="spacingAndGlyphs" textLength="102" x="338.5" y="828.7651">+編集日：modified</text><path d="M333.5,835.3594 L333.5,834.6316 L343.3333,835.5402 L353.1667,834.6269 L363,834.7698 L372.8333,835.4765 L382.6667,835.3666 L392.5,835.138 L402.3333,834.3626 L412.1667,834.7964 L422,834.7253 L431.8333,835.2481 L441.6667,835.1855 L451.5,834.4046 L461.3333,835.4771 L471.1667,835.9586 L481,835.9662 L490.8333,836.1485 L500.6667,834.4071 L510.5,835.0581 L520.3333,835.9565 L530.1667,836.1013 L540,834.5279 L549.8333,835.8812 L559.6667,836.2067 L569.5,836.0145 L579.3333,835.6382 L589.1667,835.8297 L599,835.1163 L608.8333,836.0575 L618.6667,836.3387 L628.5,835.3594 " fill="#FEFECE" style="stroke: #A80036; stroke-width: 1.5;"/><text fill="#000000" font-family="sans-serif" font-size="11" lengthAdjust="spacingAndGlyphs" textLength="227" x="338.5" y="849.5698">+管理ユーザーかどうか判定する：isAdmin()</text><text fill="#000000" font-family="sans-serif" font-size="11" lengthAdjust="spacingAndGlyphs" textLength="285" x="338.5" y="862.3745">+整形されたユーザー名を取得する：getDisplayName()</text><path d="M481,197.1031 L480.8597,197.1031 L480.1036,207.1478 L480.4431,217.1925 L481.5817,227.2371 L480.0574,237.2818 L480.2015,247.3265 L480.4308,257.3711 L480.5126,267.4158 L481.7234,277.4605 L480.2313,287.5051 L480.4598,297.5498 L481.9273,307.5945 L481.2394,317.6391 L480.1079,327.6838 L480.9914,337.7285 L481,347.7731 " fill="none" style="stroke: #000000; stroke-width: 1.0;"/><polygon fill="#000000" points="481,352.8331,481.0656,352.8623,481.6021,350.9452,482.7181,349.2856,483.3426,347.4076,484.1185,345.5969,485,343.8331,484.9045,343.7377,484.3685,344.8016,483.3487,345.3818,482.4729,346.106,481.7436,346.9768,481,347.8331,480.9521,347.7852,480.0682,346.9013,479.2668,346.0999,478.7132,345.5463,477.6236,344.4567,477,343.8331,477.0524,343.8564,477.5861,345.538,478.5229,347.3989,479.3729,349.2211,480.2269,351.0451,481,352.8331" style="stroke: #000000; stroke-width: 1.0;"/><path d="M546.38,385.9531 L546.38,385.8489 L552.332,385.8681 L558.284,385.8285 L564.236,385.7496 L570.188,385.7545 L576.14,385.9531 " fill="none" style="stroke: #000000; stroke-width: 1.0;"/><polygon fill="#000000" points="541.2,385.9531,541.1109,385.7526,543.0843,386.9429,544.8412,387.6458,546.499,388.1259,548.4288,389.2179,550.2,389.9531,550.0817,389.8348,549.4009,389.154,548.4399,388.193,547.9293,387.6825,547.056,386.8091,546.2,385.9531,546.0379,385.791,546.9789,385.1321,547.8748,384.4279,548.5725,383.5256,549.4182,382.7713,550.2,381.9531,550.1217,381.7768,548.4946,382.966,546.5569,383.4561,544.7519,384.2449,543.0081,385.1713,541.2,385.9531" style="stroke: #000000; stroke-width: 1.0;"/><path d="M481,419.4131 L481.8938,419.4131 L481.1509,429.4325 L481.6677,439.4518 L480.6848,449.4711 L480.2718,459.4905 L480.1253,469.5098 L480.3898,479.5291 L481.2806,489.5485 L481.3688,499.5678 L481.8195,509.5871 L481.453,519.6065 L481.0486,529.6258 L481.374,539.6451 L480.8635,549.6645 L481.1241,559.6838 L481,569.7031 " fill="none" style="stroke: #000000; stroke-width: 1.0;"/><polygon fill="#000000" points="481,574.7131,481.0638,574.7415,481.913,572.9634,482.4881,571.0634,483.6077,569.4054,484.1359,567.4846,485,565.7131,485.0796,565.7927,484.2123,566.5254,483.5686,567.4818,482.6107,568.1238,481.845,568.9581,481,569.7131,481.0026,569.7158,480.1621,568.8753,479.3019,568.015,478.5658,567.2789,477.8795,566.5927,477,565.7131,476.9132,565.6745,477.7381,567.4856,478.7922,569.3986,479.5607,571.1846,480.0778,572.8588,481,574.7131" style="stroke: #000000; stroke-width: 1.0;"/><path d="M406.24,385.9531 L406.24,385.9614 L409.18,386.0385 L412.12,386.2296 L415.06,385.8491 L418,385.885 L420.94,385.9531 " fill="none" style="stroke: #000000; stroke-width: 1.0; stroke-dasharray: 1.0,3.0;"/><polygon fill="none" points="406.09,392.9531,406.0674,392.8885,402.0688,391.4926,398.0548,390.0526,394.0424,388.6172,390.0804,387.3257,386.09,385.9531,386.0582,385.8621,390.0678,384.4898,394.1565,383.3432,398.0976,381.7748,402.0865,380.3432,406.09,378.9531,406.3241,378.9531,405.8501,381.7531,405.859,384.5531,406.2496,387.3531,405.8883,390.1531,406.09,392.9531" style="stroke: #000000; stroke-width: 1.0;"/><path d="M481,641.0531 L481.8031,641.0531 L480.323,651.8831 L480.6912,662.7131 L480.4203,673.5431 L480.3661,684.3731 L481,695.2031 " fill="none" style="stroke: #000000; stroke-width: 1.0;"/><polygon fill="#000000" points="481,700.6731,480.8304,700.5978,481.6888,698.8237,482.423,696.9944,483.5436,695.337,484.1364,693.4449,485,691.6731,484.9201,691.5932,484.1515,692.4246,483.5396,693.4127,482.4697,693.9428,481.6408,694.7139,481,695.6731,481.0566,695.7298,480.2943,694.9674,479.4241,694.0973,478.666,693.3391,477.9202,692.5933,477,691.6731,477.1769,691.7518,477.7462,693.4492,478.42,695.1931,479.4076,697.0765,479.9962,698.7826,481,700.6731" style="stroke: #000000; stroke-width: 1.0;"/></g></svg>