<?xml version="1.0" encoding="UTF-8" standalone="no"?><svg xmlns="http://www.w3.org/2000/svg" xmlns:xlink="http://www.w3.org/1999/xlink" contentScriptType="application/ecmascript" contentStyleType="text/css" height="1173px" preserveAspectRatio="none" style="width:860px;height:1173px;" version="1.1" viewBox="0 0 860 1173" width="860px" zoomAndPan="magnify"><defs><filter height="300%" id="ffsx44r" width="300%" x="-1" y="-1"><feGaussianBlur result="blurOut" stdDeviation="2.0"/><feColorMatrix in="blurOut" result="blurOut2" type="matrix" values="0 0 0 0 0 0 0 0 0 0 0 0 0 0 0 0 0 0 .4 0"/><feOffset dx="4.0" dy="4.0" in="blurOut2" result="blurOut3"/><feBlend in="SourceGraphic" in2="blurOut3" mode="normal"/></filter></defs><g><text fill="#000000" font-family="sans-serif" font-size="18" lengthAdjust="spacingAndGlyphs" textLength="126" x="371.5" y="17.4023">コンテンツ管理</text><!--class Admin\ContentsController--><polygon fill="#FEFECE" filter="url(#ffsx44r)" points="314.5,55.1992,314.5,54.6572,324.6875,54.8052,334.875,55.6693,345.0625,54.9534,355.25,55.0835,365.4375,55.5614,375.625,54.6917,385.8125,54.9466,396,55.0625,406.1875,55.7455,416.375,55.1923,426.5625,55.0709,436.75,55.834,446.9375,55.7337,457.125,55.278,467.3125,54.6825,477.5,55.1992,477.3867,55.1992,477.1086,65.4162,477.5135,75.6332,478.049,85.8503,477.3157,96.0673,477.7114,106.2843,477.0159,116.5013,477.9853,126.7183,477.7747,136.9353,477.5,147.1523,477.5,147.514,467.3125,146.9724,457.125,146.5854,446.9375,147.3272,436.75,147.6826,426.5625,147.6038,416.375,146.7059,406.1875,146.7406,396,146.7321,385.8125,147.3255,375.625,147.1734,365.4375,146.9951,355.25,146.5374,345.0625,147.03,334.875,146.5962,324.6875,147.4836,314.5,147.1523,313.9633,147.1523,314.361,136.9353,314.4418,126.7183,313.7629,116.5013,314.8594,106.2843,314.3941,96.0673,314.5673,85.8503,314.6693,75.6332,315.1509,65.4162,314.5,55.1992" style="stroke: #A80036; stroke-width: 1.5;"/><text fill="#000000" font-family="sans-serif" font-size="12" lengthAdjust="spacingAndGlyphs" textLength="149" x="321.5" y="71.8008">Admin\ContentsController</text><path d="M315.5,79.332 L315.5,79.0917 L325.5625,79.5527 L335.625,80.1847 L345.6875,78.3477 L355.75,79.3871 L365.8125,80.1712 L375.875,78.6655 L385.9375,79.7297 L396,79.649 L406.0625,78.4275 L416.125,78.6325 L426.1875,78.4643 L436.25,79.2441 L446.3125,80.2704 L456.375,78.3423 L466.4375,78.8339 L476.5,79.332 " fill="#FEFECE" style="stroke: #A80036; stroke-width: 1.5;"/><text fill="#000000" font-family="sans-serif" font-size="11" lengthAdjust="spacingAndGlyphs" textLength="151" x="320.5" y="93.9668">+AuthenticationComponent</text><text fill="#000000" font-family="sans-serif" font-size="11" lengthAdjust="spacingAndGlyphs" textLength="130" x="320.5" y="106.9219">+BcMessageComponent</text><text fill="#000000" font-family="sans-serif" font-size="11" lengthAdjust="spacingAndGlyphs" textLength="133" x="320.5" y="119.877">+BcContentsComponent</text><path d="M315.5,126.1973 L315.5,125.7716 L325.5625,126.1075 L335.625,126.7257 L345.6875,125.4705 L355.75,126.259 L365.8125,126.0101 L375.875,126.1475 L385.9375,125.4802 L396,126.7403 L406.0625,126.8583 L416.125,126.9774 L426.1875,125.3379 L436.25,126.3689 L446.3125,125.6449 L456.375,127.0664 L466.4375,125.428 L476.5,126.1973 " fill="#FEFECE" style="stroke: #A80036; stroke-width: 1.5;"/><text fill="#000000" font-family="sans-serif" font-size="11" lengthAdjust="spacingAndGlyphs" textLength="38" x="320.5" y="140.832">index()</text><!--class BcContentsComponent--><polygon fill="#FEFECE" filter="url(#ffsx44r)" points="114.5,29.1992,114.5,28.8622,124.2059,28.6667,133.9118,28.4712,143.6176,29.5404,153.3235,29.5589,163.0294,29.5811,172.7353,29.6466,182.4412,28.7196,192.1471,29.5706,201.8529,28.5341,211.5588,29.053,221.2647,28.7772,230.9706,28.6598,240.6765,29.2101,250.3824,29.8498,260.0882,28.7818,269.7941,28.4609,279.5,29.1992,279.5783,29.1992,278.8395,39.4688,279.9732,49.7383,279.6277,60.0078,279.5307,70.2773,279.8696,80.5469,280.0235,90.8164,279.5989,101.0859,278.9584,111.3555,279.4439,121.625,278.8836,131.8945,279.7587,142.1641,279.85,152.4336,278.8158,162.7031,279.5,172.9727,279.5,173.5781,269.7941,173.2812,260.0882,173.6562,250.3824,172.2495,240.6765,173.1003,230.9706,173.5515,221.2647,173.1505,211.5588,173.0015,201.8529,173.4457,192.1471,172.3838,182.4412,173.6121,172.7353,173.6729,163.0294,172.3637,153.3235,173.3669,143.6176,172.3327,133.9118,172.8882,124.2059,173.331,114.5,172.9727,113.8072,172.9727,114.9876,162.7031,114.0508,152.4336,114.2376,142.1641,113.826,131.8945,114.2225,121.625,115.1113,111.3555,113.9821,101.0859,115.0803,90.8164,115.0638,80.5469,114.0495,70.2773,114.564,60.0078,114.5034,49.7383,114.1644,39.4688,114.5,29.1992" style="stroke: #A80036; stroke-width: 1.5;"/><text fill="#000000" font-family="sans-serif" font-size="12" lengthAdjust="spacingAndGlyphs" textLength="129" x="132.5" y="45.8008">BcContentsComponent</text><path d="M115.5,53.332 L115.5,53.7318 L125.6875,53.0685 L135.875,53.4741 L146.0625,52.8448 L156.25,52.46 L166.4375,53.279 L176.625,53.7591 L186.8125,53.8289 L197,53.6657 L207.1875,52.5115 L217.375,52.5189 L227.5625,53.5871 L237.75,53.0254 L247.9375,53.4188 L258.125,52.6432 L268.3125,52.8631 L278.5,53.332 " fill="#FEFECE" style="stroke: #A80036; stroke-width: 1.5;"/><path d="M115.5,61.332 L115.5,60.6082 L125.6875,60.392 L135.875,60.8814 L146.0625,61.453 L156.25,60.6481 L166.4375,60.8367 L176.625,60.9376 L186.8125,61.2891 L197,61.855 L207.1875,60.7205 L217.375,61.2128 L227.5625,61.2943 L237.75,61.8391 L247.9375,60.8237 L258.125,61.3531 L268.3125,61.3592 L278.5,61.332 " fill="#FEFECE" style="stroke: #A80036; stroke-width: 1.5;"/><text fill="#000000" font-family="sans-serif" font-size="11" lengthAdjust="spacingAndGlyphs" textLength="82" x="120.5" y="75.9668">+setupAdmin()</text><text fill="#000000" font-family="sans-serif" font-size="11" lengthAdjust="spacingAndGlyphs" textLength="76" x="120.5" y="88.9219">+setupFront()</text><text fill="#000000" font-family="sans-serif" font-size="11" lengthAdjust="spacingAndGlyphs" textLength="82" x="120.5" y="101.877">+settingForm()</text><text fill="#000000" font-family="sans-serif" font-size="11" lengthAdjust="spacingAndGlyphs" textLength="153" x="120.5" y="114.832">+getParentLayoutTemplate()</text><text fill="#000000" font-family="sans-serif" font-size="11" lengthAdjust="spacingAndGlyphs" textLength="66" x="120.5" y="127.7871">+getTypes()</text><text fill="#000000" font-family="sans-serif" font-size="11" lengthAdjust="spacingAndGlyphs" textLength="77" x="120.5" y="140.7422">+getContent()</text><text fill="#000000" font-family="sans-serif" font-size="11" lengthAdjust="spacingAndGlyphs" textLength="77" x="120.5" y="153.6973">+getCrumbs()</text><text fill="#000000" font-family="sans-serif" font-size="11" lengthAdjust="spacingAndGlyphs" textLength="90" x="120.5" y="166.6523">+beforeRender()</text><!--class BcAdminContentHelper--><polygon fill="#FEFECE" filter="url(#ffsx44r)" points="480.5,330.1992,480.5,330.7027,490.6765,329.9121,500.8529,330.334,511.0294,330.2051,521.2059,330.3054,531.3824,330.0374,541.5588,329.5148,551.7353,330.2914,561.9118,330.9198,572.0882,330.2925,582.2647,329.9333,592.4412,329.8629,602.6176,330.0958,612.7941,330.8334,622.9706,330.0633,633.1471,330.49,643.3235,330.5515,653.5,330.1992,653.6482,330.1992,653.579,339.9789,653.8024,349.7586,653.3034,359.5383,653.4195,369.318,654.0923,379.0977,653.7293,388.8773,653.3848,398.657,653.4123,408.4367,653.9255,418.2164,653.0075,427.9961,653.2094,437.7758,653.3386,447.5555,654.1971,457.3352,652.9146,467.1148,653.3164,476.8945,653.9262,486.6742,653.4666,496.4539,653.744,506.2336,653.5518,516.0133,653.5,525.793,653.5,525.3368,643.3235,526.42,633.1471,526.0006,622.9706,525.5805,612.7941,526.2918,602.6176,526.2281,592.4412,526.2937,582.2647,526.1231,572.0882,525.4622,561.9118,526.4808,551.7353,525.6449,541.5588,526.1848,531.3824,525.9886,521.2059,526.0934,511.0294,526.5246,500.8529,526.3903,490.6765,526.0072,480.5,525.793,480.6218,525.793,480.187,516.0133,481.1771,506.2336,480.5775,496.4539,480.2238,486.6742,480.5283,476.8945,480.7552,467.1148,480.6759,457.3352,481.1372,447.5555,479.7934,437.7758,480.9723,427.9961,480.3417,418.2164,481.0646,408.4367,480.0789,398.657,480.6014,388.8773,479.8919,379.0977,480.4942,369.318,480.436,359.5383,480.2978,349.7586,480.1392,339.9789,480.5,330.1992" style="stroke: #A80036; stroke-width: 1.5;"/><text fill="#000000" font-family="sans-serif" font-size="12" lengthAdjust="spacingAndGlyphs" textLength="133" x="500.5" y="346.8008">BcAdminContentHelper</text><path d="M481.5,354.332 L481.5,354.8009 L491.5588,354.4591 L501.6176,353.9333 L511.6765,353.9092 L521.7353,354.1637 L531.7941,353.4014 L541.8529,355.3279 L551.9118,353.6255 L561.9706,354.0165 L572.0294,355.0197 L582.0882,354.0373 L592.1471,355.0074 L602.2059,353.5098 L612.2647,353.8665 L622.3235,354.793 L632.3824,355.2398 L642.4412,353.3712 L652.5,354.332 " fill="#FEFECE" style="stroke: #A80036; stroke-width: 1.5;"/><path d="M481.5,362.332 L481.5,362.8837 L491.5588,361.6079 L501.6176,362.9469 L511.6765,363.2371 L521.7353,362.4938 L531.7941,362.3691 L541.8529,361.9519 L551.9118,361.3959 L561.9706,363.2261 L572.0294,362.7054 L582.0882,363.135 L592.1471,362.7393 L602.2059,363.0851 L612.2647,362.3083 L622.3235,362.1885 L632.3824,361.8418 L642.4412,361.7888 L652.5,362.332 " fill="#FEFECE" style="stroke: #A80036; stroke-width: 1.5;"/><text fill="#000000" font-family="sans-serif" font-size="11" lengthAdjust="spacingAndGlyphs" textLength="78" x="486.5" y="376.9668">+getUserList()</text><text fill="#000000" font-family="sans-serif" font-size="11" lengthAdjust="spacingAndGlyphs" textLength="85" x="486.5" y="389.9219">+getListTypes()</text><text fill="#000000" font-family="sans-serif" font-size="11" lengthAdjust="spacingAndGlyphs" textLength="59" x="486.5" y="402.877">+getSites()</text><text fill="#000000" font-family="sans-serif" font-size="11" lengthAdjust="spacingAndGlyphs" textLength="130" x="486.5" y="415.832">+getContentFolderList()</text><text fill="#000000" font-family="sans-serif" font-size="11" lengthAdjust="spacingAndGlyphs" textLength="47" x="486.5" y="428.7871">+setup()</text><text fill="#000000" font-family="sans-serif" font-size="11" lengthAdjust="spacingAndGlyphs" textLength="109" x="486.5" y="441.7422">+isActionAvailable()</text><text fill="#000000" font-family="sans-serif" font-size="11" lengthAdjust="spacingAndGlyphs" textLength="98" x="486.5" y="454.6973">-_getExistsTitles()</text><text fill="#000000" font-family="sans-serif" font-size="11" lengthAdjust="spacingAndGlyphs" textLength="76" x="486.5" y="467.6523">-_getIconUrl()</text><text fill="#000000" font-family="sans-serif" font-size="11" lengthAdjust="spacingAndGlyphs" textLength="100" x="486.5" y="480.6074">+getJsonSettings()</text><text fill="#000000" font-family="sans-serif" font-size="11" lengthAdjust="spacingAndGlyphs" textLength="68" x="486.5" y="493.5625">+isEditable()</text><text fill="#000000" font-family="sans-serif" font-size="11" lengthAdjust="spacingAndGlyphs" textLength="161" x="486.5" y="506.5176">+getCurrentFolderLinkedUrl()</text><text fill="#000000" font-family="sans-serif" font-size="11" lengthAdjust="spacingAndGlyphs" textLength="119" x="486.5" y="519.4727">+getFolderLinkedUrl()</text><!--class BcContentsHelper--><polygon fill="#FEFECE" filter="url(#ffsx44r)" points="689,272.1992,689,272.3071,699.125,272.8586,709.25,271.6854,719.375,272.5978,729.5,272.46,739.625,272.8166,749.75,272.1294,759.875,271.4798,770,272.2646,780.125,272.0663,790.25,272.4106,800.375,271.7978,810.5,272.3525,820.625,271.7402,830.75,272.8772,840.875,272.8808,851,272.1992,850.3761,272.1992,851.2459,282.2698,851.1083,292.3405,850.5752,302.4111,851.4666,312.4817,850.3277,322.5524,850.5858,332.623,850.8813,342.6936,851.5266,352.7642,850.2989,362.8349,851.1933,372.9055,850.8023,382.9761,850.466,393.0467,850.8026,403.1174,851.2655,413.188,850.3181,423.2586,851.3316,433.3293,851.7093,443.3999,851.2369,453.4705,851.6924,463.5411,850.8648,473.6118,850.3789,483.6824,851.244,493.753,851.7243,503.8237,851.6001,513.8943,850.2542,523.9649,850.5924,534.0355,851.3379,544.1062,851.3714,554.1768,850.2908,564.2474,850.979,574.318,851,584.3887,851,584.617,840.875,584.1109,830.75,583.6584,820.625,584.3585,810.5,583.7515,800.375,584.8171,790.25,583.6719,780.125,585.0544,770,584.0615,759.875,584.0143,749.75,584.0221,739.625,584.6451,729.5,583.6415,719.375,584.2928,709.25,584.4213,699.125,584.642,689,584.3887,688.8309,584.3887,689.6729,574.318,688.3493,564.2474,689.1127,554.1768,689.1591,544.1062,689.6206,534.0355,689.2002,523.9649,688.7097,513.8943,688.3271,503.8237,689.1981,493.753,688.4498,483.6824,689.1985,473.6118,688.2946,463.5411,688.7284,453.4705,688.6419,443.3999,688.7025,433.3293,689.1951,423.2586,688.5034,413.188,689.5526,403.1174,689.0061,393.0467,688.667,382.9761,689.563,372.9055,689.4273,362.8349,689.4861,352.7642,688.6276,342.6936,688.7646,332.623,688.5336,322.5524,688.9053,312.4817,688.5166,302.4111,689.2414,292.3405,688.9399,282.2698,689,272.1992" style="stroke: #A80036; stroke-width: 1.5;"/><text fill="#000000" font-family="sans-serif" font-size="12" lengthAdjust="spacingAndGlyphs" textLength="102" x="719" y="288.8008">BcContentsHelper</text><path d="M690,296.332 L690,295.5473 L700,295.8011 L710,296.2203 L720,296.8745 L730,296.5028 L740,296.2729 L750,296.1798 L760,296.2829 L770,295.7971 L780,295.9134 L790,296.6186 L800,296.4931 L810,295.7273 L820,296.8983 L830,296.9749 L840,296.0296 L850,296.332 " fill="#FEFECE" style="stroke: #A80036; stroke-width: 1.5;"/><text fill="#000000" font-family="sans-serif" font-size="11" lengthAdjust="spacingAndGlyphs" textLength="85" x="695" y="310.9668">+BcBaserHelper</text><text fill="#000000" font-family="sans-serif" font-size="11" lengthAdjust="spacingAndGlyphs" textLength="84" x="695" y="323.9219">-ContentsTable</text><text fill="#000000" font-family="sans-serif" font-size="11" lengthAdjust="spacingAndGlyphs" textLength="100" x="695" y="336.877">-PermissionsTable</text><path d="M690,343.1973 L690,342.4514 L700,342.4751 L710,342.9339 L720,342.6799 L730,342.8273 L740,344.149 L750,342.5428 L760,342.3876 L770,342.8299 L780,343.9925 L790,343.4854 L800,343.2996 L810,342.9756 L820,342.4172 L830,343.3279 L840,342.902 L850,343.1973 " fill="#FEFECE" style="stroke: #A80036; stroke-width: 1.5;"/><text fill="#000000" font-family="sans-serif" font-size="11" lengthAdjust="spacingAndGlyphs" textLength="94" x="695" y="357.832">+isAllowPublish()</text><text fill="#000000" font-family="sans-serif" font-size="11" lengthAdjust="spacingAndGlyphs" textLength="72" x="695" y="370.7871">+getUrlById()</text><text fill="#000000" font-family="sans-serif" font-size="11" lengthAdjust="spacingAndGlyphs" textLength="50" x="695" y="383.7422">+getUrl()</text><text fill="#000000" font-family="sans-serif" font-size="11" lengthAdjust="spacingAndGlyphs" textLength="84" x="695" y="396.6973">+isSiteRelated()</text><text fill="#000000" font-family="sans-serif" font-size="11" lengthAdjust="spacingAndGlyphs" textLength="74" x="695" y="409.6523">+getPureUrl()</text><text fill="#000000" font-family="sans-serif" font-size="11" lengthAdjust="spacingAndGlyphs" textLength="150" x="695" y="422.6074">+getCurrentRelatedSiteUrl()</text><text fill="#000000" font-family="sans-serif" font-size="11" lengthAdjust="spacingAndGlyphs" textLength="58" x="695" y="435.5625">+getTree()</text><text fill="#000000" font-family="sans-serif" font-size="11" lengthAdjust="spacingAndGlyphs" textLength="68" x="695" y="448.5176">+getParent()</text><text fill="#000000" font-family="sans-serif" font-size="11" lengthAdjust="spacingAndGlyphs" textLength="141" x="695" y="461.4727">+getRelatedSiteContents()</text><text fill="#000000" font-family="sans-serif" font-size="11" lengthAdjust="spacingAndGlyphs" textLength="120" x="695" y="474.4277">+getRelatedSiteLinks()</text><text fill="#000000" font-family="sans-serif" font-size="11" lengthAdjust="spacingAndGlyphs" textLength="130" x="695" y="487.3828">+getContentFolderList()</text><text fill="#000000" font-family="sans-serif" font-size="11" lengthAdjust="spacingAndGlyphs" textLength="78" x="695" y="500.3379">+getSiteRoot()</text><text fill="#000000" font-family="sans-serif" font-size="11" lengthAdjust="spacingAndGlyphs" textLength="88" x="695" y="513.293">+getSiteRootId()</text><text fill="#000000" font-family="sans-serif" font-size="11" lengthAdjust="spacingAndGlyphs" textLength="129" x="695" y="526.248">+getContentByEntityId()</text><text fill="#000000" font-family="sans-serif" font-size="11" lengthAdjust="spacingAndGlyphs" textLength="105" x="695" y="539.2031">+getContentByUrl()</text><text fill="#000000" font-family="sans-serif" font-size="11" lengthAdjust="spacingAndGlyphs" textLength="80" x="695" y="552.1582">-_getContent()</text><text fill="#000000" font-family="sans-serif" font-size="11" lengthAdjust="spacingAndGlyphs" textLength="70" x="695" y="565.1133">+isParentId()</text><text fill="#000000" font-family="sans-serif" font-size="11" lengthAdjust="spacingAndGlyphs" textLength="60" x="695" y="578.0684">+isFolder()</text><!--class ContentService--><polygon fill="#FEFECE" filter="url(#ffsx44r)" points="346.5,401.6992,346.5,401.9922,356.4,401.5161,366.3,401.1172,376.2,401.2494,386.1,402.4014,396,401.0006,405.9,402.3056,415.8,401.5438,425.7,401.4799,435.6,401.1729,445.5,401.6992,445.0418,401.6992,445.5046,412.3168,445.2811,422.9344,445.2523,433.552,445.1175,444.1695,445.5,454.7871,445.5,455.1325,435.6,454.3819,425.7,455.5328,415.8,454.9649,405.9,455.0927,396,455.3647,386.1,454.2545,376.2,454.7859,366.3,455.0577,356.4,454.2179,346.5,454.7871,345.9704,454.7871,346.1449,444.1695,345.9884,433.552,346.1148,422.9344,345.8403,412.3168,346.5,401.6992" style="stroke: #A80036; stroke-width: 1.5;"/><text fill="#000000" font-family="sans-serif" font-size="12" lengthAdjust="spacingAndGlyphs" textLength="84" x="354" y="418.3008">ContentService</text><path d="M347.5,425.832 L347.5,425.5379 L357.2,425.1994 L366.9,425.4829 L376.6,425.5722 L386.3,424.9255 L396,425.7561 L405.7,426.714 L415.4,425.1446 L425.1,426.8084 L434.8,426.23 L444.5,425.832 " fill="#FEFECE" style="stroke: #A80036; stroke-width: 1.5;"/><text fill="#000000" font-family="sans-serif" font-size="11" lengthAdjust="spacingAndGlyphs" textLength="87" x="352.5" y="440.4668">+ContentsTable</text><path d="M347.5,446.7871 L347.5,447.6908 L357.2,447.4849 L366.9,446.4205 L376.6,446.4146 L386.3,447.5659 L396,447.4964 L405.7,447.6796 L415.4,447.6405 L425.1,447.1037 L434.8,446.622 L444.5,446.7871 " fill="#FEFECE" style="stroke: #A80036; stroke-width: 1.5;"/><!--class ContentsTable--><polygon fill="#FEFECE" filter="url(#ffsx44r)" points="325,897.1992,325,897.8885,335.1429,897.4972,345.2857,897.4971,355.4286,896.6473,365.5714,896.7849,375.7143,897.6045,385.8571,896.9944,396,897.2766,406.1429,896.7391,416.2857,897.4648,426.4286,896.6214,436.5714,896.9306,446.7143,897.1111,456.8571,897.5323,467,897.1992,466.5482,897.1992,466.5924,907.8168,467.3881,918.4344,467.5244,929.052,467.3675,939.6695,467,950.2871,467,950.2804,456.8571,950.5469,446.7143,950.4516,436.5714,950.6335,426.4286,950.3254,416.2857,950.9978,406.1429,949.9932,396,950.9949,385.8571,949.8237,375.7143,949.9575,365.5714,950.1109,355.4286,949.8858,345.2857,950.4136,335.1429,950.8361,325,950.2871,325.1537,950.2871,325.3177,939.6695,325.6764,929.052,325.4998,918.4344,324.8147,907.8168,325,897.1992" style="stroke: #A80036; stroke-width: 1.5;"/><text fill="#000000" font-family="sans-serif" font-size="12" lengthAdjust="spacingAndGlyphs" textLength="83" x="354.5" y="913.8008">ContentsTable</text><path d="M326,921.332 L326,921.3871 L336,920.938 L346,921.0276 L356,920.5666 L366,921.1674 L376,922.2298 L386,922.2689 L396,920.805 L406,921.7119 L416,922.104 L426,920.6315 L436,921.8828 L446,921.2902 L456,921.6959 L466,921.332 " fill="#FEFECE" style="stroke: #A80036; stroke-width: 1.5;"/><path d="M326,929.332 L326,929.8619 L336,929.1994 L346,929.5744 L356,928.567 L366,930.2843 L376,928.368 L386,930.1768 L396,929.2918 L406,930.297 L416,928.4489 L426,928.9029 L436,930.2941 L446,928.5284 L456,929.4035 L466,929.332 " fill="#FEFECE" style="stroke: #A80036; stroke-width: 1.5;"/><text fill="#000000" font-family="sans-serif" font-size="11" lengthAdjust="spacingAndGlyphs" textLength="130" x="331" y="943.9668">+getContentFolderList()</text><!--class Content--><polygon fill="#FEFECE" filter="url(#ffsx44r)" points="6,683.1992,6,682.5434,16.1429,682.9412,26.2857,682.8254,36.4286,682.9353,46.5714,682.6432,56.7143,683.944,66.8571,682.9735,77,682.5798,87.1429,683.2153,97.2857,682.822,107.4286,682.5243,117.5714,683.8963,127.7143,683.8944,137.8571,683.0424,148,682.807,158.1429,683.1372,168.2857,683.4775,178.4286,682.8054,188.5714,682.5568,198.7143,683.1399,208.8571,682.9486,219,682.4578,229.1429,683.4141,239.2857,683.0136,249.4286,683.5552,259.5714,683.203,269.7143,682.8998,279.8571,683.6099,290,683.1992,289.482,683.1992,289.9501,693.2118,289.7035,703.2244,290.638,713.2371,290.0472,723.2497,289.9976,733.2623,290.6089,743.2749,289.2963,753.2875,289.473,763.3001,289.4693,773.3127,289.3523,783.3254,290.4332,793.338,289.3936,803.3506,289.2578,813.3632,290.429,823.3758,289.7468,833.3884,289.7599,843.401,290.5694,853.4137,290.2048,863.4263,289.7924,873.4389,290.2767,883.4515,289.6202,893.4641,289.7731,903.4767,290.1783,913.4893,290.24,923.502,289.8553,933.5146,289.5759,943.5272,290.0753,953.5398,289.7911,963.5524,290.4415,973.565,290.5632,983.5776,289.6997,993.5903,289.8847,1003.6029,289.4057,1013.6155,289.792,1023.6281,290.4734,1033.6407,290.3746,1043.6533,290.3776,1053.6659,290.0799,1063.6785,289.3071,1073.6912,289.5602,1083.7038,289.9242,1093.7164,290.6133,1103.729,290.403,1113.7416,289.797,1123.7542,289.9533,1133.7668,289.276,1143.7795,290.6218,1153.7921,290,1163.8047,290,1163.6732,279.8571,1163.4063,269.7143,1164.2146,259.5714,1163.6188,249.4286,1164.0435,239.2857,1164.2223,229.1429,1164.5436,219,1164.3783,208.8571,1163.8549,198.7143,1163.7988,188.5714,1163.0932,178.4286,1163.9332,168.2857,1164.115,158.1429,1163.8092,148,1163.6173,137.8571,1163.3579,127.7143,1164.4201,117.5714,1164.1566,107.4286,1163.7976,97.2857,1164.4497,87.1429,1163.2961,77,1164.1468,66.8571,1164.3183,56.7143,1163.4902,46.5714,1163.7982,36.4286,1164.2572,26.2857,1164.3295,16.1429,1163.6786,6,1163.8047,6.5958,1163.8047,5.3808,1153.7921,6.4997,1143.7795,5.4983,1133.7668,6.6183,1123.7542,6.121,1113.7416,6.558,1103.729,6.3902,1093.7164,5.9866,1083.7038,5.3332,1073.6912,5.9782,1063.6785,5.8869,1053.6659,6.4885,1043.6533,5.7449,1033.6407,5.8419,1023.6281,6.4162,1013.6155,5.8989,1003.6029,6.7457,993.5903,6.5613,983.5776,5.9004,973.565,5.8705,963.5524,5.7138,953.5398,5.4181,943.5272,5.9739,933.5146,6.3457,923.502,5.9457,913.4893,6.2051,903.4767,5.4995,893.4641,5.9344,883.4515,5.341,873.4389,5.5965,863.4263,5.5675,853.4137,5.7121,843.401,6.7338,833.3884,6.4909,823.3758,6.5623,813.3632,5.7386,803.3506,5.95,793.338,6.2632,783.3254,6.4864,773.3127,5.7663,763.3001,5.8149,753.2875,6.1343,743.2749,6.0365,733.2623,6.6051,723.2497,5.9297,713.2371,5.7178,703.2244,6.4393,693.2118,6,683.1992" style="stroke: #A80036; stroke-width: 1.5;"/><text fill="#000000" font-family="sans-serif" font-size="12" lengthAdjust="spacingAndGlyphs" textLength="44" x="126" y="699.8008">Content</text><path d="M7,707.332 L7,707.2522 L17.0714,706.7809 L27.1429,708.3065 L37.2143,707.6862 L47.2857,706.7317 L57.3571,708.2558 L67.4286,707.148 L77.5,707.8114 L87.5714,707.1424 L97.6429,706.707 L107.7143,706.4983 L117.7857,706.8498 L127.8571,706.7467 L137.9286,707.4556 L148,706.9146 L158.0714,707.7881 L168.1429,707.6215 L178.2143,706.769 L188.2857,706.5425 L198.3571,707.1137 L208.4286,706.8525 L218.5,707.9718 L228.5714,708.1743 L238.6429,707.0686 L248.7143,706.3336 L258.7857,707.9056 L268.8571,706.9144 L278.9286,706.7737 L289,707.332 " fill="#FEFECE" style="stroke: #A80036; stroke-width: 1.5;"/><text fill="#000000" font-family="sans-serif" font-size="11" lengthAdjust="spacingAndGlyphs" textLength="41" x="12" y="721.9668">+ID：id</text><text fill="#000000" font-family="sans-serif" font-size="11" lengthAdjust="spacingAndGlyphs" textLength="115" x="12" y="734.9219">+コンテンツ名：name</text><text fill="#000000" font-family="sans-serif" font-size="11" lengthAdjust="spacingAndGlyphs" textLength="109" x="12" y="747.877">+プラグイン：plugin</text><text fill="#000000" font-family="sans-serif" font-size="11" lengthAdjust="spacingAndGlyphs" textLength="131" x="12" y="760.832">+コンテンツタイプ：type</text><text fill="#000000" font-family="sans-serif" font-size="11" lengthAdjust="spacingAndGlyphs" textLength="99" x="12" y="773.7871">+実体ID：entity_id</text><text fill="#000000" font-family="sans-serif" font-size="11" lengthAdjust="spacingAndGlyphs" textLength="56" x="12" y="786.7422">+URL：url</text><text fill="#000000" font-family="sans-serif" font-size="11" lengthAdjust="spacingAndGlyphs" textLength="99" x="12" y="799.6973">+サイトID：site_id</text><text fill="#000000" font-family="sans-serif" font-size="11" lengthAdjust="spacingAndGlyphs" textLength="126" x="12" y="812.6523">+エイリアスID：alias_id</text><text fill="#000000" font-family="sans-serif" font-size="11" lengthAdjust="spacingAndGlyphs" textLength="266" x="12" y="825.6074">+メインサイトコンテンツID：main_site_content_id</text><text fill="#000000" font-family="sans-serif" font-size="11" lengthAdjust="spacingAndGlyphs" textLength="266" x="12" y="838.5625">+サイトルートに配置されているかどうか：site_root</text><text fill="#000000" font-family="sans-serif" font-size="11" lengthAdjust="spacingAndGlyphs" textLength="93" x="12" y="851.5176">+親ID：parent_id</text><text fill="#000000" font-family="sans-serif" font-size="11" lengthAdjust="spacingAndGlyphs" textLength="64" x="12" y="864.4727">+左位置：lft</text><text fill="#000000" font-family="sans-serif" font-size="11" lengthAdjust="spacingAndGlyphs" textLength="76" x="12" y="877.4277">+右位置：rght</text><text fill="#000000" font-family="sans-serif" font-size="11" lengthAdjust="spacingAndGlyphs" textLength="66" x="12" y="890.3828">+深さ：level</text><text fill="#000000" font-family="sans-serif" font-size="11" lengthAdjust="spacingAndGlyphs" textLength="84" x="12" y="903.3379">+タイトル：title</text><text fill="#000000" font-family="sans-serif" font-size="11" lengthAdjust="spacingAndGlyphs" textLength="114" x="12" y="916.293">+説明文：description</text><text fill="#000000" font-family="sans-serif" font-size="11" lengthAdjust="spacingAndGlyphs" textLength="133" x="12" y="929.248">+アイキャッチ：eyecatch</text><text fill="#000000" font-family="sans-serif" font-size="11" lengthAdjust="spacingAndGlyphs" textLength="116" x="12" y="942.2031">+作成者ID：author_id</text><text fill="#000000" font-family="sans-serif" font-size="11" lengthAdjust="spacingAndGlyphs" textLength="226" x="12" y="955.1582">+レイアウトテンプレート：layout_template</text><text fill="#000000" font-family="sans-serif" font-size="11" lengthAdjust="spacingAndGlyphs" textLength="97" x="12" y="968.1133">+公開状態：status</text><text fill="#000000" font-family="sans-serif" font-size="11" lengthAdjust="spacingAndGlyphs" textLength="151" x="12" y="981.0684">+公開開始日：publish_begin</text><text fill="#000000" font-family="sans-serif" font-size="11" lengthAdjust="spacingAndGlyphs" textLength="141" x="12" y="994.0234">+公開終了日：publish_end</text><text fill="#000000" font-family="sans-serif" font-size="11" lengthAdjust="spacingAndGlyphs" textLength="133" x="12" y="1006.9785">+自公開状態：self_status</text><text fill="#000000" font-family="sans-serif" font-size="11" lengthAdjust="spacingAndGlyphs" textLength="187" x="12" y="1019.9336">+自公開開始日：self_publish_begin</text><text fill="#000000" font-family="sans-serif" font-size="11" lengthAdjust="spacingAndGlyphs" textLength="177" x="12" y="1032.8887">+自公開終了日：self_publish_end</text><text fill="#000000" font-family="sans-serif" font-size="11" lengthAdjust="spacingAndGlyphs" textLength="122" x="12" y="1045.8438">+作成日：created_date</text><text fill="#000000" font-family="sans-serif" font-size="11" lengthAdjust="spacingAndGlyphs" textLength="129" x="12" y="1058.7988">+編集日：modified_date</text><text fill="#000000" font-family="sans-serif" font-size="11" lengthAdjust="spacingAndGlyphs" textLength="258" x="12" y="1071.7539">+検索結果より除外するかどうか：exclude_search</text><text fill="#000000" font-family="sans-serif" font-size="11" lengthAdjust="spacingAndGlyphs" textLength="252" x="12" y="1084.709">+メニューから除外するかどうか：exclude_menu</text><text fill="#000000" font-family="sans-serif" font-size="11" lengthAdjust="spacingAndGlyphs" textLength="272" x="12" y="1097.6641">+メニューのリンクを別窓で開くかどうか：blank_link</text><text fill="#000000" font-family="sans-serif" font-size="11" lengthAdjust="spacingAndGlyphs" textLength="121" x="12" y="1110.6191">+削除日：deleted_date</text><text fill="#000000" font-family="sans-serif" font-size="11" lengthAdjust="spacingAndGlyphs" textLength="103" x="12" y="1123.5742">+削除状態：deleted</text><text fill="#000000" font-family="sans-serif" font-size="11" lengthAdjust="spacingAndGlyphs" textLength="159" x="12" y="1136.5293">+作成日（システム）：created</text><text fill="#000000" font-family="sans-serif" font-size="11" lengthAdjust="spacingAndGlyphs" textLength="155" x="12" y="1149.4844">+編集日（システム）modified</text><path d="M7,1155.8047 L7,1156.6689 L17.0714,1155.4133 L27.1429,1156.4848 L37.2143,1155.8967 L47.2857,1155.3024 L57.3571,1156.4451 L67.4286,1156.3047 L77.5,1155.6813 L87.5714,1155.2963 L97.6429,1156.4825 L107.7143,1156.2413 L117.7857,1155.467 L127.8571,1155.452 L137.9286,1156.5365 L148,1155.6672 L158.0714,1156.6149 L168.1429,1156.2533 L178.2143,1155.5687 L188.2857,1155.7198 L198.3571,1155.5588 L208.4286,1155.8742 L218.5,1156.238 L228.5714,1154.8866 L238.6429,1155.9788 L248.7143,1155.9248 L258.7857,1156.1034 L268.8571,1155.939 L278.9286,1156.54 L289,1155.8047 " fill="#FEFECE" style="stroke: #A80036; stroke-width: 1.5;"/><!--class ContentServiceInterface--><polygon fill="#FEFECE" filter="url(#ffsx44r)" points="84.5,233.1992,84.5,233.8678,94.3696,233.197,104.2391,233.1925,114.1087,233.5281,123.9783,233.8433,133.8478,232.9781,143.7174,232.8686,153.587,233.6818,163.4565,233.6773,173.3261,233.8979,183.1957,232.8264,193.0652,233.7818,202.9348,232.7941,212.8043,233.462,222.6739,233.3761,232.5435,232.9174,242.413,233.6134,252.2826,233.1989,262.1522,233.3533,272.0217,233.1495,281.8913,233.601,291.7609,232.9819,301.6304,233.0224,311.5,233.1992,312.1148,233.1992,310.8746,243.1972,310.8352,253.1951,311.9259,263.1931,311.6208,273.191,311.0095,283.189,311.4965,293.1869,311.9016,303.1848,311.3651,313.1828,311.053,323.1807,310.8435,333.1787,311.456,343.1766,311.5686,353.1746,311.603,363.1725,312.2311,373.1705,310.8726,383.1684,311.7244,393.1664,311.5327,403.1643,312.2454,413.1623,310.7733,423.1602,311.4354,433.1582,311.1602,443.1561,310.9324,453.154,311.9075,463.152,312.2117,473.1499,312.1214,483.1479,311.0047,493.1458,311.5158,503.1438,311.2914,513.1417,311.5939,523.1397,312.0039,533.1376,311.8468,543.1356,311.7484,553.1335,311.5297,563.1315,312.1401,573.1294,311.5232,583.1274,311.0487,593.1253,311.8997,603.1232,311.7152,613.1212,311.5,623.1191,311.5,623.2673,301.6304,622.9419,291.7609,623.742,281.8913,622.801,272.0217,622.432,262.1522,623.0483,252.2826,623.4686,242.413,622.6059,232.5435,623.1372,222.6739,623.0112,212.8043,623.2173,202.9348,623.5121,193.0652,622.5685,183.1957,622.631,173.3261,623.0164,163.4565,623.6026,153.587,623.1721,143.7174,622.9814,133.8478,622.6863,123.9783,623.6179,114.1087,622.562,104.2391,623.6283,94.3696,622.708,84.5,623.1191,84.0729,623.1191,84.834,613.1212,84.6058,603.1232,84.646,593.1253,84.2942,583.1274,84.4343,573.1294,84.049,563.1315,83.8906,553.1335,83.8296,543.1356,84.55,533.1376,85.107,523.1397,84.7832,513.1417,85.1227,503.1438,84.5543,493.1458,83.8619,483.1479,84.978,473.1499,84.8935,463.152,83.8443,453.154,84.9476,443.1561,84.1763,433.1582,84.846,423.1602,83.9646,413.1623,84.8986,403.1643,85.1517,393.1664,84.1125,383.1684,84.2087,373.1705,84.9698,363.1725,84.7585,353.1746,85.0491,343.1766,84.2158,333.1787,84.5298,323.1807,85.1699,313.1828,84.0264,303.1848,84.3714,293.1869,85.0803,283.189,84.8573,273.191,84.8489,263.1931,84.6835,253.1951,84.1016,243.1972,84.5,233.1992" style="stroke: #A80036; stroke-width: 1.5;"/><text fill="#000000" font-family="sans-serif" font-size="12" lengthAdjust="spacingAndGlyphs" textLength="134" x="131" y="249.8008">ContentServiceInterface</text><path d="M85.5,257.332 L85.5,256.5519 L95.2826,256.4982 L105.0652,257.6671 L114.8478,256.3759 L124.6304,257.6697 L134.413,256.4011 L144.1957,257.2854 L153.9783,256.9964 L163.7609,257.9102 L173.5435,257.9093 L183.3261,257.5659 L193.1087,256.8694 L202.8913,256.6572 L212.6739,258.0365 L222.4565,257.664 L232.2391,257.3154 L242.0217,256.6899 L251.8043,256.8148 L261.587,257.5764 L271.3696,257.4532 L281.1522,257.9186 L290.9348,257.0646 L300.7174,257.0516 L310.5,257.332 " fill="#FEFECE" style="stroke: #A80036; stroke-width: 1.5;"/><path d="M85.5,265.332 L85.5,265.6633 L95.2826,266.159 L105.0652,265.8308 L114.8478,265.8159 L124.6304,265.7561 L134.413,266.1962 L144.1957,265.27 L153.9783,264.9979 L163.7609,265.4753 L173.5435,266.0093 L183.3261,266.1966 L193.1087,265.7236 L202.8913,265.6029 L212.6739,265.0903 L222.4565,264.8493 L232.2391,264.3852 L242.0217,265.5095 L251.8043,266.2885 L261.587,264.7379 L271.3696,265.0525 L281.1522,265.5078 L290.9348,265.5471 L300.7174,264.6598 L310.5,265.332 " fill="#FEFECE" style="stroke: #A80036; stroke-width: 1.5;"/><text fill="#000000" font-family="sans-serif" font-size="11" lengthAdjust="spacingAndGlyphs" textLength="34" x="90.5" y="279.9668">+get()</text><text fill="#000000" font-family="sans-serif" font-size="11" lengthAdjust="spacingAndGlyphs" textLength="64" x="90.5" y="292.9219">+getIndex()</text><text fill="#000000" font-family="sans-serif" font-size="11" lengthAdjust="spacingAndGlyphs" textLength="130" x="90.5" y="305.877">+getContentFolderList()</text><text fill="#000000" font-family="sans-serif" font-size="11" lengthAdjust="spacingAndGlyphs" textLength="210" x="90.5" y="318.832">+createAdminIndexConditionsByTree()</text><text fill="#000000" font-family="sans-serif" font-size="11" lengthAdjust="spacingAndGlyphs" textLength="215" x="90.5" y="331.7871">+createAdminIndexConditionsByTable()</text><text fill="#000000" font-family="sans-serif" font-size="11" lengthAdjust="spacingAndGlyphs" textLength="94" x="90.5" y="344.7422">+isAllowPublish()</text><text fill="#000000" font-family="sans-serif" font-size="11" lengthAdjust="spacingAndGlyphs" textLength="72" x="90.5" y="357.6973">+getUrlById()</text><text fill="#000000" font-family="sans-serif" font-size="11" lengthAdjust="spacingAndGlyphs" textLength="50" x="90.5" y="370.6523">+getUrl()</text><text fill="#000000" font-family="sans-serif" font-size="11" lengthAdjust="spacingAndGlyphs" textLength="84" x="90.5" y="383.6074">+isSiteRelated()</text><text fill="#000000" font-family="sans-serif" font-size="11" lengthAdjust="spacingAndGlyphs" textLength="74" x="90.5" y="396.5625">+getPureUrl()</text><text fill="#000000" font-family="sans-serif" font-size="11" lengthAdjust="spacingAndGlyphs" textLength="150" x="90.5" y="409.5176">+getCurrentRelatedSiteUrl()</text><text fill="#000000" font-family="sans-serif" font-size="11" lengthAdjust="spacingAndGlyphs" textLength="58" x="90.5" y="422.4727">+getTree()</text><text fill="#000000" font-family="sans-serif" font-size="11" lengthAdjust="spacingAndGlyphs" textLength="68" x="90.5" y="435.4277">+getParent()</text><text fill="#000000" font-family="sans-serif" font-size="11" lengthAdjust="spacingAndGlyphs" textLength="141" x="90.5" y="448.3828">+getRelatedSiteContents()</text><text fill="#000000" font-family="sans-serif" font-size="11" lengthAdjust="spacingAndGlyphs" textLength="120" x="90.5" y="461.3379">+getRelatedSiteLinks()</text><text fill="#000000" font-family="sans-serif" font-size="11" lengthAdjust="spacingAndGlyphs" textLength="130" x="90.5" y="474.293">+getContentFolderList()</text><text fill="#000000" font-family="sans-serif" font-size="11" lengthAdjust="spacingAndGlyphs" textLength="78" x="90.5" y="487.248">+getSiteRoot()</text><text fill="#000000" font-family="sans-serif" font-size="11" lengthAdjust="spacingAndGlyphs" textLength="88" x="90.5" y="500.2031">+getSiteRootId()</text><text fill="#000000" font-family="sans-serif" font-size="11" lengthAdjust="spacingAndGlyphs" textLength="129" x="90.5" y="513.1582">+getContentByEntityId()</text><text fill="#000000" font-family="sans-serif" font-size="11" lengthAdjust="spacingAndGlyphs" textLength="105" x="90.5" y="526.1133">+getContentByUrl()</text><text fill="#000000" font-family="sans-serif" font-size="11" lengthAdjust="spacingAndGlyphs" textLength="83" x="90.5" y="539.0684">+_getContent()</text><text fill="#000000" font-family="sans-serif" font-size="11" lengthAdjust="spacingAndGlyphs" textLength="70" x="90.5" y="552.0234">+isParentId()</text><text fill="#000000" font-family="sans-serif" font-size="11" lengthAdjust="spacingAndGlyphs" textLength="60" x="90.5" y="564.9785">+isFolder()</text><text fill="#000000" font-family="sans-serif" font-size="11" lengthAdjust="spacingAndGlyphs" textLength="78" x="90.5" y="577.9336">+getUserList()</text><text fill="#000000" font-family="sans-serif" font-size="11" lengthAdjust="spacingAndGlyphs" textLength="85" x="90.5" y="590.8887">+getListTypes()</text><text fill="#000000" font-family="sans-serif" font-size="11" lengthAdjust="spacingAndGlyphs" textLength="59" x="90.5" y="603.8438">+getSites()</text><text fill="#000000" font-family="sans-serif" font-size="11" lengthAdjust="spacingAndGlyphs" textLength="130" x="90.5" y="616.7988">+getContentFolderList()</text><path d="M284.91,101.1992 L284.91,101.3884 L290.786,101.3612 L296.662,101.1788 L302.538,101.1378 L308.414,100.8764 L314.29,101.1992 " fill="none" style="stroke: #000000; stroke-width: 1.0;"/><polygon fill="#000000" points="279.79,101.1992,279.6894,100.9728,281.5437,101.895,283.3276,102.6588,285.1592,103.5299,286.9323,104.2695,288.79,105.1992,288.9647,105.374,288.1656,104.5749,287.1219,103.5312,286.2937,102.7029,285.5489,101.9581,284.79,101.1992,284.8088,101.218,285.5781,100.3874,286.4114,99.6206,287.3624,98.9716,288.1116,98.1208,288.79,97.1992,288.8177,97.2616,286.9274,97.8584,285.1506,98.7107,283.419,99.6644,281.5258,100.2548,279.79,101.1992" style="stroke: #000000; stroke-width: 1.0;"/><path d="M396,147.3892 L396.1098,147.3892 L396.2895,157.3596 L396.1801,167.33 L395.8902,177.3004 L396.7398,187.2708 L395.9415,197.2412 L395.2983,207.2116 L395.3461,217.182 L395.7646,227.1524 L396.0172,237.1228 L395.2582,247.0932 L396.2221,257.0636 L395.0857,267.034 L395.9341,277.0044 L396.5274,286.9748 L395.3717,296.9452 L396.1337,306.9156 L395.3283,316.886 L396.2142,326.8564 L396.8341,336.8268 L396.3964,346.7972 L396.8196,356.7676 L396.4965,366.738 L395.9356,376.7084 L396.7008,386.6788 L396,396.6492 " fill="none" style="stroke: #000000; stroke-width: 1.0;"/><polygon fill="#000000" points="396,401.6692,395.9158,401.6318,396.5978,399.7794,397.5123,398.0302,398.2258,396.1918,399.0785,394.4152,400,392.6692,399.9489,392.6181,399.2797,393.5489,398.557,394.4262,397.5205,394.9897,396.8151,395.8843,396,396.6692,395.9658,396.635,395.1885,395.8577,394.3368,395.006,393.7225,394.3917,392.9719,393.6411,392,392.6692,392.1542,392.7378,392.864,394.4976,393.5644,396.2534,394.3891,398.0644,395.1681,399.855,396,401.6692" style="stroke: #000000; stroke-width: 1.0;"/><path d="M396.38,396.0992 L396.4527,396.1037 L396.576,394.0303 L396.5941,391.9505 L396.4949,389.8635 L397.0108,387.8142 L397.0148,385.7335 L396.7624,385.7121 L397.4524,383.4824 L397.2145,381.1739 L397.3184,378.8945 L397.84,376.6504 L397.9778,374.3738 L397.716,374.3448 L398.1544,371.9256 L398.6833,369.5164 L398.7974,367.0613 L399.0957,364.6265 L399.3308,362.1848 L399.0086,362.1395 L399.579,359.5982 L399.7887,357.0062 L400.6788,354.5098 L401.0237,351.9368 L401.1355,349.3311 L401.2262,349.3468 L401.7969,346.6947 L401.9373,343.9679 L402.5896,341.3299 L402.9688,338.6445 L403.4536,335.9775 L403.5889,336.0061 L404.0215,333.2374 L404.9006,330.5632 L405.4099,327.8108 L405.7748,325.0278 L406.347,322.2887 L406.4914,322.3255 L407.2712,319.5724 L407.9271,316.7877 L408.5542,313.9958 L409.433,311.2679 L409.8773,308.4293 L409.8554,308.4227 L410.4249,305.5654 L411.8553,302.9707 L412.728,300.2058 L413.0841,297.2834 L414.1063,294.5642 L413.8869,294.4844 L414.8427,291.7278 L416.4001,289.1902 L417.4043,286.4513 L417.9369,283.5407 L419.0957,280.858 L418.9708,280.8038 L420.085,278.1064 L421.4644,275.5241 L422.8737,272.9549 L423.6139,270.095 L424.9072,267.4754 L425.1323,267.5922 L425.9741,264.7552 L427.6373,262.3446 L428.7135,259.6292 L430.3775,257.2191 L431.6027,254.5811 L431.721,254.6549 L433.2618,252.2145 L434.4924,249.5805 L436.1392,247.2063 L437.7371,244.8015 L439.2439,242.3398 L439.2165,242.3191 L440.7868,239.9137 L442.6291,237.7143 L444.5213,235.5526 L446.1747,233.2101 L447.8925,230.9163 L447.7649,230.7976 L450.0417,229.0196 L451.8329,226.7895 L453.7608,224.6868 L455.494,222.4028 L457.6102,220.4752 L457.5806,220.4407 L459.8729,218.725 L462.0088,216.8267 L464.0144,214.7763 L466.4042,213.1745 L468.4588,211.1813 L468.3075,210.953 L470.8335,209.5344 L473.4049,208.1841 L475.8195,206.5972 L478.0144,204.6789 L480.5,203.1992 L480.4553,203.1182 L483.0835,202.1136 L485.5211,200.7639 L487.8455,199.2089 L490.2955,197.8816 L492.6973,196.4668 L492.5551,196.183 L494.937,195.1223 L497.3904,194.2042 L499.8229,193.2444 L501.9201,191.6156 L504.3407,190.632 L504.2468,190.4197 L506.6548,189.8266 L508.8574,188.7687 L511.0969,187.7944 L513.3805,186.9197 L515.5093,185.6949 L515.5341,185.7612 L517.6639,184.8873 L519.7064,183.7804 L521.96,183.2366 L524.1404,182.4976 L526.2822,181.6555 L526.1886,181.3439 L528.4533,181.2929 L530.406,180.2033 L532.5141,179.6307 L534.7024,179.3255 L536.7386,178.5137 L536.7147,178.4046 L538.747,177.9036 L540.854,177.7426 L542.9228,177.4075 L544.975,176.9969 L546.9576,176.2695 L546.9384,176.1258 L549.0037,176.2539 L551.0092,175.9347 L552.9867,175.4063 L554.9993,175.1404 L557.0184,174.923 L557.027,175.1145 L559.0046,174.6086 L561.0249,175.0524 L562.9929,174.333 L565,174.4817 L567,174.4742 L566.9952,174.3668 L568.9817,174.2383 L570.9947,174.6998 L572.9842,174.6376 L574.996,175.0704 L576.9816,174.923 L577.0242,175.2413 L579.0078,175.2974 L581.0458,175.7596 L583.0189,175.7371 L585.0205,175.9278 L587.0424,176.2695 L587.0945,176.507 L589.1482,177.0008 L591.1343,177.1867 L593.2284,177.8647 L595.2069,178.0162 L597.2614,178.5137 L597.3266,178.7306 L599.3897,179.2654 L601.488,179.917 L603.4519,180.1214 L605.6201,181.0058 L607.7178,181.6555 L607.6892,181.5792 L609.8204,182.3247 L612.0636,183.369 L614.1785,184.0709 L616.4215,185.1145 L618.4907,185.6949 L618.5565,185.8437 L620.6993,186.6255 L622.9463,187.6428 L625.2344,188.7533 L627.4771,189.7611 L629.6593,190.632 L629.515,190.344 L632.1037,192.0299 L634.2682,192.8691 L636.6002,194.0429 L639.0269,195.4054 L641.3027,196.4668 L641.1608,196.2097 L643.7033,197.7428 L646.2778,199.334 L648.7708,200.7775 L651.1109,201.944 L653.5,203.1992 L653.5127,203.2193 L655.6484,204.6706 L657.5855,205.8079 L659.5038,206.9154 L661.7072,208.4738 L663.6456,209.613 L663.4844,209.3989 L665.5404,211.0297 L667.3225,212.2967 L669.2579,213.7673 L671.4158,215.5334 L673.2058,216.8108 L673.0701,216.6564 L674.972,218.3553 L676.8854,220.0673 L678.4317,221.3617 L680.4407,223.1824 L682.1972,224.7159 L682.2358,224.7541 L683.7111,226.2511 L685.748,228.3034 L687.1088,229.6873 L688.7491,231.3474 L690.6363,233.2517 L690.5534,233.1797 L691.98,234.8637 L693.8883,236.9665 L695.2742,238.6152 L696.9884,240.5492 L698.5396,242.3416 L698.7242,242.4841 L699.7538,244.0525 L701.6093,246.2582 L702.9706,248.0824 L704.3494,249.9203 L705.9236,251.9089 L706.1423,252.0599 L707.11,253.7715 L708.6469,255.876 L710.3126,258.0694 L711.3179,259.8069 L712.8049,261.877 L713.0811,262.0486 L714.0376,263.9067 L715.5421,266.1052 L716.6934,268.0843 L718.1932,270.2799 L719.2,272.1692 " fill="none" style="stroke: #000000; stroke-width: 1.0;"/><polygon fill="#000000" points="396.15,401.3092,396.1561,401.3123,396.9545,399.5092,397.7925,397.7259,398.7592,396.007,399.5272,394.1887,400.5568,392.5013,400.4957,392.4343,399.8321,393.3855,398.9488,394.0959,398.1713,394.9224,397.2282,395.5673,396.3783,396.3144,396.3457,396.2846,395.7038,395.5591,394.9578,394.7386,394.104,393.8197,393.4251,393.0605,392.5652,392.1359,392.375,392.0616,393.1519,393.9197,393.9853,395.7999,394.8192,397.6802,395.3412,399.4387,396.15,401.3092" style="stroke: #000000; stroke-width: 1.0;"/><path d="M450.9,428.1992 L450.9,428.3984 L456.786,427.9404 L462.672,428.5001 L468.558,428.4736 L474.444,428.1668 L480.33,428.1992 " fill="none" style="stroke: #000000; stroke-width: 1.0;"/><polygon fill="#000000" points="445.76,428.1992,445.7307,428.1332,447.4869,428.8347,449.3065,429.6788,451.2188,430.7315,452.8586,431.1712,454.76,432.1992,454.8084,432.2477,453.8814,431.3206,453.2251,430.6643,452.438,429.8773,451.5267,428.9659,450.76,428.1992,450.703,428.1422,451.4414,427.2806,452.3157,426.5549,453.2292,425.8684,454.066,425.1052,454.76,424.1992,454.7134,424.0943,453.0598,425.2238,451.0802,425.6197,449.4123,426.7169,447.5087,427.2838,445.76,428.1992" style="stroke: #000000; stroke-width: 1.0;"/><path d="M331.96,428.1992 L331.96,428.4647 L334.822,428.3359 L337.684,427.8737 L340.546,428.1585 L343.408,428.259 L346.27,428.1992 " fill="none" style="stroke: #000000; stroke-width: 1.0; stroke-dasharray: 1.0,3.0;"/><polygon fill="none" points="331.7,435.1992,331.7067,435.2184,327.6331,433.6081,323.6866,432.361,319.6195,430.7692,315.677,429.5336,311.7,428.1992,311.7405,428.3149,315.6685,426.7092,319.7822,425.634,323.6876,423.9638,327.6797,422.5411,331.7,421.1992,331.8769,421.1992,331.7456,423.9992,331.5514,426.7992,331.8213,429.5992,331.7831,432.3992,331.7,435.1992" style="stroke: #000000; stroke-width: 1.0;"/><path d="M396,455.0392 L395.0692,455.0392 L395.6298,464.9685 L395.1501,474.8979 L395.2422,484.8272 L395.1795,494.7565 L395.7207,504.6858 L396.141,514.6151 L396.2966,524.5444 L395.6995,534.4738 L395.5989,544.4031 L395.2242,554.3324 L396.3677,564.2617 L395.1258,574.191 L396.5805,584.1204 L396.2755,594.0497 L395.4988,603.979 L396.734,613.9083 L395.6576,623.8376 L396.0677,633.7669 L395.1389,643.6963 L396.3328,653.6256 L395.4304,663.5549 L396.76,673.4842 L395.5811,683.4135 L396.3741,693.3429 L395.5145,703.2722 L395.5654,713.2015 L395.4815,723.1308 L396.036,733.0601 L396.4612,742.9894 L395.8367,752.9188 L395.5202,762.8481 L396.3759,772.7774 L395.8858,782.7067 L395.5122,792.636 L395.8893,802.5654 L395.0742,812.4947 L396.5893,822.424 L395.5009,832.3533 L395.3541,842.2826 L396.6424,852.2119 L395.9874,862.1413 L396.1648,872.0706 L396.1306,881.9999 L396,891.9292 " fill="none" style="stroke: #000000; stroke-width: 1.0;"/><polygon fill="#000000" points="396,897.1192,395.8329,897.0449,396.6014,895.231,397.7292,893.5766,398.3447,891.6947,399.36,889.9903,400,888.1192,399.9999,888.1191,399.3059,889.0251,398.4919,889.8111,397.7315,890.6507,396.7296,891.2488,396,892.1192,396.0929,892.2121,395.3369,891.4561,394.2325,890.3517,393.7208,889.8401,392.7531,888.8724,392,888.1192,392.1844,888.2012,392.7853,889.9127,393.5022,891.6757,394.5919,893.6045,395.3144,895.3701,396,897.1192" style="stroke: #000000; stroke-width: 1.0;"/><path d="M295.49,923.6992 L295.49,923.998 L301.32,923.6429 L307.15,923.8341 L312.98,923.4465 L318.81,923.8727 L324.64,923.6992 " fill="none" style="stroke: #000000; stroke-width: 1.0;"/><polygon fill="#000000" points="290.41,923.6992,290.4102,923.6998,292.1842,924.4411,294.0145,925.3092,295.8311,926.1466,297.6835,927.0646,299.41,927.6992,299.4665,927.7557,298.5863,926.8755,297.6368,925.926,297.1867,925.476,296.25,924.5392,295.41,923.6992,295.5052,923.7945,296.1515,922.8408,296.8839,921.9731,297.6888,921.178,298.537,920.4263,299.41,919.6992,299.4416,919.7704,297.6517,920.593,295.8349,921.3553,293.9636,921.9948,292.1545,922.7743,290.41,923.6992" style="stroke: #000000; stroke-width: 1.0;"/></g></svg>