<?xml version="1.0" encoding="UTF-8" standalone="no"?><svg xmlns="http://www.w3.org/2000/svg" xmlns:xlink="http://www.w3.org/1999/xlink" contentScriptType="application/ecmascript" contentStyleType="text/css" height="677px" preserveAspectRatio="none" style="width:775px;height:677px;" version="1.1" viewBox="0 0 775 677" width="775px" zoomAndPan="magnify"><defs><filter height="300%" id="fhg1s3e" width="300%" x="-1" y="-1"><feGaussianBlur result="blurOut" stdDeviation="2.0"/><feColorMatrix in="blurOut" result="blurOut2" type="matrix" values="0 0 0 0 0 0 0 0 0 0 0 0 0 0 0 0 0 0 .4 0"/><feOffset dx="4.0" dy="4.0" in="blurOut2" result="blurOut3"/><feBlend in="SourceGraphic" in2="blurOut3" mode="normal"/></filter></defs><g><text fill="#000000" font-family="sans-serif" font-size="18" lengthAdjust="spacingAndGlyphs" textLength="198" x="293" y="17.4023">コンテンツフォルダ管理</text><!--class BcContentsComponent--><polygon fill="#FEFECE" filter="url(#fhg1s3e)" points="193.5,29.1992,193.5,29.5852,203.2059,29.7487,212.9118,29.7785,222.6176,28.4683,232.3235,29.1253,242.0294,29.8775,251.7353,29.4365,261.4412,29.6366,271.1471,29.594,280.8529,28.4837,290.5588,29.7247,300.2647,29.5459,309.9706,29.3136,319.6765,28.5611,329.3824,28.9439,339.0882,28.7243,348.7941,29.5902,358.5,29.1992,359.202,29.1992,358.3699,39.4688,358.9237,49.7383,357.8443,60.0078,358.7566,70.2773,359.1575,80.5469,358.5612,90.8164,358.6362,101.0859,358.5135,111.3555,358.2486,121.625,357.862,131.8945,358.7534,142.1641,358.2702,152.4336,358.5766,162.7031,358.5,172.9727,358.5,172.5907,348.7941,173.3916,339.0882,172.6509,329.3824,172.3163,319.6765,173.5643,309.9706,173.2986,300.2647,172.7078,290.5588,172.7114,280.8529,172.907,271.1471,173.6815,261.4412,173.0205,251.7353,172.9047,242.0294,172.3165,232.3235,173.2677,222.6176,173.1239,212.9118,173.6694,203.2059,172.6665,193.5,172.9727,193.407,172.9727,192.9667,162.7031,193.7739,152.4336,192.774,142.1641,192.919,131.8945,194.1065,121.625,192.8215,111.3555,193.7469,101.0859,193.4053,90.8164,194.1806,80.5469,192.9605,70.2773,192.9874,60.0078,193.1578,49.7383,193.0444,39.4688,193.5,29.1992" style="stroke: #A80036; stroke-width: 1.5;"/><text fill="#000000" font-family="sans-serif" font-size="12" lengthAdjust="spacingAndGlyphs" textLength="129" x="211.5" y="45.8008">BcContentsComponent</text><path d="M194.5,53.332 L194.5,54.0752 L204.6875,54.1286 L214.875,52.3874 L225.0625,54.0436 L235.25,53.9544 L245.4375,53.4651 L255.625,53.1972 L265.8125,52.8865 L276,52.6492 L286.1875,52.8029 L296.375,53.5527 L306.5625,52.7403 L316.75,53.0334 L326.9375,54.1246 L337.125,53.3431 L347.3125,53.8445 L357.5,53.332 " fill="#FEFECE" style="stroke: #A80036; stroke-width: 1.5;"/><path d="M194.5,61.332 L194.5,61.8566 L204.6875,61.9456 L214.875,60.8664 L225.0625,61.5607 L235.25,62.0941 L245.4375,60.478 L255.625,60.81 L265.8125,61.1638 L276,60.8088 L286.1875,61.5599 L296.375,61.7563 L306.5625,60.5006 L316.75,60.819 L326.9375,60.5532 L337.125,61.4733 L347.3125,61.8333 L357.5,61.332 " fill="#FEFECE" style="stroke: #A80036; stroke-width: 1.5;"/><text fill="#000000" font-family="sans-serif" font-size="11" lengthAdjust="spacingAndGlyphs" textLength="82" x="199.5" y="75.9668">+setupAdmin()</text><text fill="#000000" font-family="sans-serif" font-size="11" lengthAdjust="spacingAndGlyphs" textLength="76" x="199.5" y="88.9219">+setupFront()</text><text fill="#000000" font-family="sans-serif" font-size="11" lengthAdjust="spacingAndGlyphs" textLength="82" x="199.5" y="101.877">+settingForm()</text><text fill="#000000" font-family="sans-serif" font-size="11" lengthAdjust="spacingAndGlyphs" textLength="153" x="199.5" y="114.832">+getParentLayoutTemplate()</text><text fill="#000000" font-family="sans-serif" font-size="11" lengthAdjust="spacingAndGlyphs" textLength="66" x="199.5" y="127.7871">+getTypes()</text><text fill="#000000" font-family="sans-serif" font-size="11" lengthAdjust="spacingAndGlyphs" textLength="77" x="199.5" y="140.7422">+getContent()</text><text fill="#000000" font-family="sans-serif" font-size="11" lengthAdjust="spacingAndGlyphs" textLength="77" x="199.5" y="153.6973">+getCrumbs()</text><text fill="#000000" font-family="sans-serif" font-size="11" lengthAdjust="spacingAndGlyphs" textLength="90" x="199.5" y="166.6523">+beforeRender()</text><!--class Admin\ContentFoldersController--><polygon fill="#FEFECE" filter="url(#fhg1s3e)" points="393.5,42.1992,393.5,42.8019,403.5526,42.5144,413.6053,42.0563,423.6579,41.5723,433.7105,41.755,443.7632,41.6694,453.8158,42.3204,463.8684,41.7566,473.9211,42.5628,483.9737,42.274,494.0263,41.656,504.0789,41.4549,514.1316,42.7357,524.1842,42.2514,534.2368,41.7949,544.2895,42.0325,554.3421,41.9276,564.3947,41.7802,574.4474,41.6882,584.5,42.1992,583.9812,42.1992,584.0972,52.0212,584.6224,61.8431,584.9754,71.665,584.1983,81.487,584.5054,91.3089,583.7839,101.1309,584.6998,110.9528,583.9768,120.7747,584.9884,130.5967,584.1591,140.4186,584.9978,150.2406,584.5,160.0625,584.5,159.7931,574.4474,160.3585,564.3947,160.2279,554.3421,159.3158,544.2895,159.9258,534.2368,160.2046,524.1842,159.4212,514.1316,160.294,504.0789,160.1224,494.0263,160.6438,483.9737,160.3057,473.9211,160.1491,463.8684,159.46,453.8158,160.2321,443.7632,160.2736,433.7105,159.7071,423.6579,160.2791,413.6053,160.316,403.5526,160.5003,393.5,160.0625,393.1663,160.0625,393.8621,150.2406,393.3784,140.4186,392.8333,130.5967,394.1016,120.7747,393.4013,110.9528,392.8991,101.1309,392.9998,91.3089,393.8576,81.487,393.257,71.665,393.9292,61.8431,394.0711,52.0212,393.5,42.1992" style="stroke: #A80036; stroke-width: 1.5;"/><text fill="#000000" font-family="sans-serif" font-size="12" lengthAdjust="spacingAndGlyphs" textLength="185" x="396.5" y="58.8008">Admin\ContentFoldersController</text><path d="M394.5,66.332 L394.5,66.0852 L404.4474,66.7881 L414.3947,65.352 L424.3421,65.4262 L434.2895,66.6591 L444.2368,66.6929 L454.1842,66.1667 L464.1316,65.6714 L474.0789,66.1997 L484.0263,65.7052 L493.9737,65.6187 L503.9211,65.7618 L513.8684,66.1573 L523.8158,65.8433 L533.7632,66.9434 L543.7105,65.8203 L553.6579,66.0858 L563.6053,65.9973 L573.5526,65.8087 L583.5,66.332 " fill="#FEFECE" style="stroke: #A80036; stroke-width: 1.5;"/><text fill="#000000" font-family="sans-serif" font-size="11" lengthAdjust="spacingAndGlyphs" textLength="151" x="399.5" y="80.9668">+AuthenticationComponent</text><text fill="#000000" font-family="sans-serif" font-size="11" lengthAdjust="spacingAndGlyphs" textLength="130" x="399.5" y="93.9219">+BcMessageComponent</text><text fill="#000000" font-family="sans-serif" font-size="11" lengthAdjust="spacingAndGlyphs" textLength="133" x="399.5" y="106.877">+BcContentsComponent</text><path d="M394.5,113.1973 L394.5,112.1978 L404.4474,113.1437 L414.3947,113.9761 L424.3421,112.7204 L434.2895,113.8738 L444.2368,113.9587 L454.1842,113.7857 L464.1316,114.066 L474.0789,112.9512 L484.0263,113.7212 L493.9737,112.265 L503.9211,113.8954 L513.8684,114.0923 L523.8158,113.5429 L533.7632,113.2961 L543.7105,112.427 L553.6579,112.8738 L563.6053,112.7871 L573.5526,112.8982 L583.5,113.1973 " fill="#FEFECE" style="stroke: #A80036; stroke-width: 1.5;"/><text fill="#000000" font-family="sans-serif" font-size="11" lengthAdjust="spacingAndGlyphs" textLength="37" x="399.5" y="127.832">+edit()</text><text fill="#000000" font-family="sans-serif" font-size="11" lengthAdjust="spacingAndGlyphs" textLength="49" x="399.5" y="140.7871">+delete()</text><text fill="#000000" font-family="sans-serif" font-size="11" lengthAdjust="spacingAndGlyphs" textLength="136" x="399.5" y="153.7422">※ add() は、APIを利用する</text><!--class BcAdminContentFolderHelper--><polygon fill="#FEFECE" filter="url(#fhg1s3e)" points="590.5,239.6992,590.5,240.0439,600.2222,239.6584,609.9444,239.7271,619.6667,239.9972,629.3889,239.043,639.1111,239.7271,648.8333,239.751,658.5556,240.4367,668.2778,239.1879,678,239.6974,687.7222,239.9918,697.4444,239.014,707.1667,239.7679,716.8889,240.1141,726.6111,239.6584,736.3333,240.048,746.0556,239.1466,755.7778,240.1451,765.5,239.6992,766.0779,239.6992,765.4946,249.574,765.8139,259.4487,765.055,269.3235,765.1375,279.1982,766.0339,289.073,765.3813,298.9478,766.0919,308.8225,765.5,318.6973,765.5,318.2146,755.7778,318.1046,746.0556,318.529,736.3333,319.1046,726.6111,319.3377,716.8889,318.611,707.1667,318.7138,697.4444,319.1377,687.7222,318.8575,678,318.2595,668.2778,318.2718,658.5556,318.8323,648.8333,318.7626,639.1111,318.6491,629.3889,318.9448,619.6667,318.2311,609.9444,318.5594,600.2222,317.9659,590.5,318.6973,590.7337,318.6973,590.4675,308.8225,590.9709,298.9478,591.041,289.073,589.9393,279.1982,590.9027,269.3235,591.159,259.4487,590.6605,249.574,590.5,239.6992" style="stroke: #A80036; stroke-width: 1.5;"/><text fill="#000000" font-family="sans-serif" font-size="12" lengthAdjust="spacingAndGlyphs" textLength="169" x="593.5" y="256.3008">BcAdminContentFolderHelper</text><path d="M591.5,263.832 L591.5,264.4457 L601.6765,263.4852 L611.8529,264.7834 L622.0294,263.6758 L632.2059,263.2306 L642.3824,264.6999 L652.5588,264.6984 L662.7353,263.2331 L672.9118,264.0966 L683.0882,263.7427 L693.2647,263.8846 L703.4412,263.3506 L713.6176,264.2454 L723.7941,262.9137 L733.9706,263.8838 L744.1471,263.0404 L754.3235,264.7498 L764.5,263.832 " fill="#FEFECE" style="stroke: #A80036; stroke-width: 1.5;"/><path d="M591.5,271.832 L591.5,272.712 L601.6765,271.0265 L611.8529,271.1095 L622.0294,270.9653 L632.2059,272.8076 L642.3824,271.3156 L652.5588,272.31 L662.7353,271.5923 L672.9118,272.0618 L683.0882,271.897 L693.2647,272.6414 L703.4412,272.8087 L713.6176,272.3335 L723.7941,272.5682 L733.9706,272.2218 L744.1471,272.6944 L754.3235,271.2762 L764.5,271.832 " fill="#FEFECE" style="stroke: #A80036; stroke-width: 1.5;"/><text fill="#000000" font-family="sans-serif" font-size="11" lengthAdjust="spacingAndGlyphs" textLength="136" x="596.5" y="286.4668">+getFolderTemplateList()</text><text fill="#000000" font-family="sans-serif" font-size="11" lengthAdjust="spacingAndGlyphs" textLength="127" x="596.5" y="299.4219">+getPageTemplateList()</text><text fill="#000000" font-family="sans-serif" font-size="11" lengthAdjust="spacingAndGlyphs" textLength="95" x="596.5" y="312.377">+getPublishLink()</text><!--class ContentFolderService--><polygon fill="#FEFECE" filter="url(#fhg1s3e)" points="422.5,252.6992,422.5,253.4198,432.7308,253.2576,442.9615,252.7463,453.1923,252.2488,463.4231,253.3042,473.6538,252.8782,483.8846,252.184,494.1154,253.3281,504.3462,252.7845,514.5769,253.2142,524.8077,251.9866,535.0385,252.3832,545.2692,251.9682,555.5,252.6992,555.442,252.6992,556.1625,263.3168,554.9175,273.9344,556.0837,284.552,554.9737,295.1695,555.5,305.7871,555.5,305.1754,545.2692,305.7289,535.0385,306.0493,524.8077,305.5627,514.5769,305.3826,504.3462,305.5225,494.1154,305.935,483.8846,306.3438,473.6538,306.2038,463.4231,306.3119,453.1923,306.4661,442.9615,305.24,432.7308,305.7836,422.5,305.7871,422.6091,305.7871,422.5462,295.1695,421.9646,284.552,422.5336,273.9344,422.6957,263.3168,422.5,252.6992" style="stroke: #A80036; stroke-width: 1.5;"/><text fill="#000000" font-family="sans-serif" font-size="12" lengthAdjust="spacingAndGlyphs" textLength="120" x="429" y="269.3008">ContentFolderService</text><path d="M423.5,276.832 L423.5,275.9766 L433.5769,276.5567 L443.6538,277.0338 L453.7308,276.7611 L463.8077,276.4154 L473.8846,276.2051 L483.9615,276.7966 L494.0385,277.0311 L504.1154,276.3194 L514.1923,276.2694 L524.2692,276.5895 L534.3462,277.7693 L544.4231,276.6287 L554.5,276.832 " fill="#FEFECE" style="stroke: #A80036; stroke-width: 1.5;"/><text fill="#000000" font-family="sans-serif" font-size="11" lengthAdjust="spacingAndGlyphs" textLength="121" x="428.5" y="291.4668">+ContentFoldersTable</text><path d="M423.5,297.7871 L423.5,297.7508 L433.5769,297.6636 L443.6538,298.4421 L453.7308,298.6003 L463.8077,298.2255 L473.8846,297.0267 L483.9615,297.9771 L494.0385,296.9941 L504.1154,297.2415 L514.1923,297.3709 L524.2692,298.7333 L534.3462,297.4572 L544.4231,297.1137 L554.5,297.7871 " fill="#FEFECE" style="stroke: #A80036; stroke-width: 1.5;"/><!--class ContentFolderServiceInterface--><polygon fill="#FEFECE" filter="url(#fhg1s3e)" points="211,233.1992,211,233.6076,220.7778,233.0977,230.5556,233.5013,240.3333,233.9316,250.1111,233.7897,259.8889,233.3498,269.6667,232.8762,279.4444,233.4094,289.2222,233.2214,299,232.8467,308.7778,233.7607,318.5556,232.7345,328.3333,233.4986,338.1111,233.3294,347.8889,232.6225,357.6667,232.6118,367.4444,232.5402,377.2222,233.5485,387,233.1992,386.8323,233.1992,387.5324,243.4162,387.0046,253.6332,386.9442,263.8503,387.1126,274.0673,386.7437,284.2843,387.4737,294.5013,386.6229,304.7183,386.5438,314.9353,387,325.1523,387,325.506,377.2222,324.7572,367.4444,324.8129,357.6667,324.6633,347.8889,325.4189,338.1111,325.5447,328.3333,324.6094,318.5556,325.5373,308.7778,325.5303,299,325.2891,289.2222,324.8551,279.4444,325.6604,269.6667,325.3228,259.8889,325.4282,250.1111,324.7282,240.3333,324.5978,230.5556,324.9648,220.7778,325.8245,211,325.1523,211.3607,325.1523,210.6625,314.9353,210.7515,304.7183,210.4297,294.5013,211.4093,284.2843,210.4831,274.0673,210.8039,263.8503,211.5551,253.6332,210.4873,243.4162,211,233.1992" style="stroke: #A80036; stroke-width: 1.5;"/><text fill="#000000" font-family="sans-serif" font-size="12" lengthAdjust="spacingAndGlyphs" textLength="170" x="214" y="249.8008">ContentFolderServiceInterface</text><path d="M212,257.332 L212,256.7809 L222.2353,258.1146 L232.4706,256.6157 L242.7059,257.6491 L252.9412,257.8692 L263.1765,256.4127 L273.4118,256.6264 L283.6471,257.0215 L293.8824,257.4309 L304.1176,257.9215 L314.3529,258.0365 L324.5882,258.2804 L334.8235,256.8823 L345.0588,258.1145 L355.2941,256.6203 L365.5294,258.085 L375.7647,257.9902 L386,257.332 " fill="#FEFECE" style="stroke: #A80036; stroke-width: 1.5;"/><path d="M212,265.332 L212,266.1033 L222.2353,264.7471 L232.4706,265.4153 L242.7059,264.5897 L252.9412,265.0137 L263.1765,266.2221 L273.4118,265.3194 L283.6471,266.131 L293.8824,264.334 L304.1176,265.4212 L314.3529,264.6156 L324.5882,265.3901 L334.8235,266.1442 L345.0588,265.4148 L355.2941,264.5856 L365.5294,265.3779 L375.7647,265.7529 L386,265.332 " fill="#FEFECE" style="stroke: #A80036; stroke-width: 1.5;"/><text fill="#000000" font-family="sans-serif" font-size="11" lengthAdjust="spacingAndGlyphs" textLength="96" x="217" y="279.9668">+isOverPostSize()</text><text fill="#000000" font-family="sans-serif" font-size="11" lengthAdjust="spacingAndGlyphs" textLength="136" x="217" y="292.9219">+getFolderTemplateList()</text><text fill="#000000" font-family="sans-serif" font-size="11" lengthAdjust="spacingAndGlyphs" textLength="127" x="217" y="305.877">+getPageTemplateList()</text><text fill="#000000" font-family="sans-serif" font-size="11" lengthAdjust="spacingAndGlyphs" textLength="95" x="217" y="318.832">+getPublishLink()</text><!--class ContentFoldersTable--><polygon fill="#FEFECE" filter="url(#fhg1s3e)" points="415,391.6992,415,392.3436,424.8667,391.2923,434.7333,392.2915,444.6,392.4491,454.4667,391.0383,464.3333,391.1951,474.2,391.1273,484.0667,391.1769,493.9333,391.2502,503.8,391.8266,513.6667,390.9848,523.5333,391.3215,533.4,392.109,543.2667,391.3958,553.1333,391.3085,563,391.6992,563.363,391.6992,562.7381,402.19,562.4486,412.6809,562.991,423.1717,563.7158,433.6625,562.8495,444.1533,562.3135,454.6441,562.5908,465.135,562.688,475.6258,562.9163,486.1166,563,496.6074,563,497.1557,553.1333,496.7868,543.2667,496.2688,533.4,497.2386,523.5333,496.9976,513.6667,496.2034,503.8,497.0592,493.9333,496.9392,484.0667,496.7861,474.2,495.8802,464.3333,497.0186,454.4667,497.2525,444.6,497.0391,434.7333,496.639,424.8667,497.2988,415,496.6074,415.5589,496.6074,414.456,486.1166,415.1219,475.6258,414.3593,465.135,414.6235,454.6441,414.2531,444.1533,415.4288,433.6625,414.464,423.1717,415.7424,412.6809,415.2381,402.19,415,391.6992" style="stroke: #A80036; stroke-width: 1.5;"/><text fill="#000000" font-family="sans-serif" font-size="12" lengthAdjust="spacingAndGlyphs" textLength="119" x="429.5" y="408.3008">ContentFoldersTable</text><path d="M416,415.832 L416,415.7653 L425.7333,415.6773 L435.4667,415.4506 L445.2,416.661 L454.9333,416.5067 L464.6667,415.6299 L474.4,414.9587 L484.1333,416.7937 L493.8667,415.4677 L503.6,415.0479 L513.3333,415.9273 L523.0667,415.1024 L532.8,416.6666 L542.5333,416.3403 L552.2667,415.2745 L562,415.832 " fill="#FEFECE" style="stroke: #A80036; stroke-width: 1.5;"/><path d="M416,423.832 L416,424.2732 L425.7333,424.5792 L435.4667,424.148 L445.2,424.4486 L454.9333,424.4238 L464.6667,423.8986 L474.4,424.4578 L484.1333,424.2976 L493.8667,423.3014 L503.6,424.2578 L513.3333,424.4229 L523.0667,423.8326 L532.8,423.3748 L542.5333,423.8493 L552.2667,423.7579 L562,423.832 " fill="#FEFECE" style="stroke: #A80036; stroke-width: 1.5;"/><text fill="#000000" font-family="sans-serif" font-size="11" lengthAdjust="spacingAndGlyphs" textLength="117" x="421" y="438.4668">+getParentTemplate()</text><text fill="#000000" font-family="sans-serif" font-size="11" lengthAdjust="spacingAndGlyphs" textLength="136" x="421" y="451.4219">+getFolderTemplateList()</text><text fill="#000000" font-family="sans-serif" font-size="11" lengthAdjust="spacingAndGlyphs" textLength="85" x="421" y="464.377">+saveSiteRoot()</text><text fill="#000000" font-family="sans-serif" font-size="11" lengthAdjust="spacingAndGlyphs" textLength="126" x="421" y="477.332">+movePageTemplates()</text><text fill="#000000" font-family="sans-serif" font-size="11" lengthAdjust="spacingAndGlyphs" textLength="105" x="421" y="490.2871">+setBeforeRecord()</text><!--class SearchIndiceTable--><polygon fill="#FEFECE" filter="url(#fhg1s3e)" points="598.5,417.6992,598.5,417.2772,608.5909,417.5716,618.6818,418.0227,628.7727,418.1116,638.8636,416.9566,648.9545,417.384,659.0455,417.9702,669.1364,417.2493,679.2273,417.7695,689.3182,417.4339,699.4091,417.7656,709.5,417.6992,709.5208,417.6992,709.6199,428.3168,709.1572,438.9344,709.3948,449.552,709.2783,460.1695,709.5,470.7871,709.5,470.786,699.4091,470.6087,689.3182,470.3435,679.2273,471.0378,669.1364,471.1713,659.0455,470.765,648.9545,471.4995,638.8636,470.3831,628.7727,470.1642,618.6818,470.9061,608.5909,470.778,598.5,470.7871,598.5728,470.7871,599.2089,460.1695,598.2965,449.552,597.9238,438.9344,599.2273,428.3168,598.5,417.6992" style="stroke: #A80036; stroke-width: 1.5;"/><text fill="#000000" font-family="sans-serif" font-size="12" lengthAdjust="spacingAndGlyphs" textLength="105" x="601.5" y="434.3008">SearchIndiceTable</text><path d="M599.5,441.832 L599.5,441.0739 L609.4091,442.6745 L619.3182,442.6314 L629.2273,441.9342 L639.1364,442.7267 L649.0455,440.9699 L658.9545,442.5508 L668.8636,442.2099 L678.7727,441.7407 L688.6818,440.9621 L698.5909,441.3272 L708.5,441.832 " fill="#FEFECE" style="stroke: #A80036; stroke-width: 1.5;"/><path d="M599.5,449.832 L599.5,449.7698 L609.4091,448.8877 L619.3182,449.1069 L629.2273,449.0532 L639.1364,450.7056 L649.0455,450.7149 L658.9545,450.5937 L668.8636,449.1683 L678.7727,450.577 L688.6818,449.871 L698.5909,450.4615 L708.5,449.832 " fill="#FEFECE" style="stroke: #A80036; stroke-width: 1.5;"/><text fill="#000000" font-family="sans-serif" font-size="11" lengthAdjust="spacingAndGlyphs" textLength="80" x="604.5" y="464.4668">+reconstruct()</text><!--class ContentFolder--><polygon fill="#FEFECE" filter="url(#fhg1s3e)" points="209.5,563.1992,209.5,562.9947,219.0455,563.9088,228.5909,562.5397,238.1364,563.0283,247.6818,562.7252,257.2273,563.1093,266.7727,563.5542,276.3182,563.0469,285.8636,562.5628,295.4091,562.6565,304.9545,563.6123,314.5,563.1992,314.1617,563.1992,315.2177,573.69,315.0959,584.1809,314.1595,594.6717,314.7888,605.1625,313.9865,615.6533,313.9799,626.1441,313.7871,636.635,313.7561,647.1258,313.9812,657.6166,314.5,668.1074,314.5,668.8086,304.9545,668.463,295.4091,667.969,285.8636,668.5042,276.3182,668.1432,266.7727,668.787,257.2273,667.5948,247.6818,668.1661,238.1364,668.0854,228.5909,668.7813,219.0455,667.5065,209.5,668.1074,209.2303,668.1074,208.8831,657.6166,209.889,647.1258,209.5671,636.635,210.0261,626.1441,209.6131,615.6533,209.2697,605.1625,210.2231,594.6717,209.4396,584.1809,209.4876,573.69,209.5,563.1992" style="stroke: #A80036; stroke-width: 1.5;"/><text fill="#000000" font-family="sans-serif" font-size="12" lengthAdjust="spacingAndGlyphs" textLength="80" x="222" y="579.8008">ContentFolder</text><path d="M210.5,587.332 L210.5,587.8959 L220.8,586.8287 L231.1,586.8809 L241.4,587.4294 L251.7,586.5116 L262,587.754 L272.3,586.976 L282.6,586.5388 L292.9,586.7142 L303.2,587.5342 L313.5,587.332 " fill="#FEFECE" style="stroke: #A80036; stroke-width: 1.5;"/><text fill="#000000" font-family="sans-serif" font-size="11" lengthAdjust="spacingAndGlyphs" textLength="19" x="215.5" y="601.9668">+id</text><text fill="#000000" font-family="sans-serif" font-size="11" lengthAdjust="spacingAndGlyphs" textLength="93" x="215.5" y="614.9219">+folder_template</text><text fill="#000000" font-family="sans-serif" font-size="11" lengthAdjust="spacingAndGlyphs" textLength="87" x="215.5" y="627.877">+page_template</text><text fill="#000000" font-family="sans-serif" font-size="11" lengthAdjust="spacingAndGlyphs" textLength="49" x="215.5" y="640.832">+created</text><text fill="#000000" font-family="sans-serif" font-size="11" lengthAdjust="spacingAndGlyphs" textLength="56" x="215.5" y="653.7871">+modified</text><path d="M210.5,660.1074 L210.5,659.6409 L220.8,660.9456 L231.1,659.3517 L241.4,661.0468 L251.7,659.8624 L262,660.4482 L272.3,659.9284 L282.6,660.6778 L292.9,660.3895 L303.2,660.4922 L313.5,660.1074 " fill="#FEFECE" style="stroke: #A80036; stroke-width: 1.5;"/><!--class BcContentsBehavior--><polygon fill="#FEFECE" filter="url(#fhg1s3e)" points="262,385.1992,262,384.7072,271.8333,385.1312,281.6667,385.5355,291.5,385.5287,301.3333,384.658,311.1667,385.2501,321,385.5658,330.8333,385.6943,340.6667,385.1214,350.5,385.343,360.3333,385.2517,370.1667,385.1912,380,385.1992,380.1411,385.1992,379.4665,395.0212,379.6763,404.8431,380.0596,414.665,380.0346,424.487,379.4051,434.3089,379.3867,444.1309,380.6769,453.9528,379.7677,463.7747,380.4019,473.5967,379.4206,483.4186,380.4435,493.2406,380,503.0625,380,503.2877,370.1667,502.5829,360.3333,503.1882,350.5,502.4481,340.6667,503.6078,330.8333,503.3517,321,502.3633,311.1667,502.6734,301.3333,503.0786,291.5,503.7987,281.6667,503.2406,271.8333,503.2947,262,503.0625,262.2319,503.0625,261.3754,493.2406,261.8819,483.4186,261.8077,473.5967,261.4567,463.7747,262.3373,453.9528,261.411,444.1309,262.7012,434.3089,262.1438,424.487,261.8382,414.665,261.6105,404.8431,262.2456,395.0212,262,385.1992" style="stroke: #A80036; stroke-width: 1.5;"/><text fill="#000000" font-family="sans-serif" font-size="12" lengthAdjust="spacingAndGlyphs" textLength="112" x="265" y="401.8008">BcContentsBehavior</text><path d="M263,409.332 L263,409.3551 L272.6667,409.0266 L282.3333,410.2854 L292,409.2101 L301.6667,410.0361 L311.3333,409.1438 L321,409.8281 L330.6667,408.3904 L340.3333,408.4795 L350,410.0781 L359.6667,410.0997 L369.3333,408.3745 L379,409.332 " fill="#FEFECE" style="stroke: #A80036; stroke-width: 1.5;"/><path d="M263,417.332 L263,417.3068 L272.6667,417.626 L282.3333,418.2326 L292,417.8764 L301.6667,416.6446 L311.3333,417.8466 L321,418.0648 L330.6667,417.6 L340.3333,417.6265 L350,417.5087 L359.6667,417.5681 L369.3333,418.1991 L379,417.332 " fill="#FEFECE" style="stroke: #A80036; stroke-width: 1.5;"/><text fill="#000000" font-family="sans-serif" font-size="11" lengthAdjust="spacingAndGlyphs" textLength="94" x="268" y="431.9668">+beforeValidate()</text><text fill="#000000" font-family="sans-serif" font-size="11" lengthAdjust="spacingAndGlyphs" textLength="76" x="268" y="444.9219">+beforeSave()</text><text fill="#000000" font-family="sans-serif" font-size="11" lengthAdjust="spacingAndGlyphs" textLength="66" x="268" y="457.877">+afterSave()</text><text fill="#000000" font-family="sans-serif" font-size="11" lengthAdjust="spacingAndGlyphs" textLength="85" x="268" y="470.832">+beforeDelete()</text><text fill="#000000" font-family="sans-serif" font-size="11" lengthAdjust="spacingAndGlyphs" textLength="75" x="268" y="483.7871">+afterDelete()</text><text fill="#000000" font-family="sans-serif" font-size="11" lengthAdjust="spacingAndGlyphs" textLength="90" x="268" y="496.7422">+findPublished()</text><!--class ContentsTable--><polygon fill="#FEFECE" filter="url(#fhg1s3e)" points="99,385.1992,99,384.555,108.8462,385.5596,118.6923,385.37,128.5385,384.9641,138.3846,385.8429,148.2308,385.7996,158.0769,385.0827,167.9231,385.4737,177.7692,384.9788,187.6154,384.8056,197.4615,385.639,207.3077,385.6757,217.1538,384.9214,227,385.1992,227.2905,385.1992,226.9942,395.0212,226.4885,404.8431,226.872,414.665,226.4224,424.487,227.1684,434.3089,226.7597,444.1309,227.4271,453.9528,226.9609,463.7747,226.9735,473.5967,227.6144,483.4186,227.1314,493.2406,227,503.0625,227,502.9679,217.1538,503.1434,207.3077,502.915,197.4615,503.0405,187.6154,502.7181,177.7692,503.6263,167.9231,503.5657,158.0769,502.7899,148.2308,503.1094,138.3846,503.7613,128.5385,503.3014,118.6923,502.4184,108.8462,502.5472,99,503.0625,98.5782,503.0625,98.6832,493.2406,98.251,483.4186,98.9344,473.5967,99.6579,463.7747,99.4136,453.9528,99.1339,444.1309,98.4381,434.3089,98.9358,424.487,99.344,414.665,99.2961,404.8431,99.3193,395.0212,99,385.1992" style="stroke: #A80036; stroke-width: 1.5;"/><text fill="#000000" font-family="sans-serif" font-size="12" lengthAdjust="spacingAndGlyphs" textLength="83" x="121.5" y="401.8008">ContentsTable</text><path d="M100,409.332 L100,409.6425 L109.6923,409.1893 L119.3846,408.4084 L129.0769,408.4037 L138.7692,409.3678 L148.4615,408.513 L158.1538,409.8185 L167.8462,409.9131 L177.5385,408.6275 L187.2308,409.3527 L196.9231,409.2386 L206.6154,408.5177 L216.3077,410.1602 L226,409.332 " fill="#FEFECE" style="stroke: #A80036; stroke-width: 1.5;"/><text fill="#000000" font-family="sans-serif" font-size="11" lengthAdjust="spacingAndGlyphs" textLength="96" x="105" y="423.9668">+updatingRelated</text><path d="M100,430.2871 L100,430.8026 L109.6923,431.2443 L119.3846,431.0611 L129.0769,429.5704 L138.7692,429.8823 L148.4615,429.6054 L158.1538,429.4447 L167.8462,431.1641 L177.5385,430.91 L187.2308,429.504 L196.9231,431.0699 L206.6154,430.1354 L216.3077,429.5236 L226,430.2871 " fill="#FEFECE" style="stroke: #A80036; stroke-width: 1.5;"/><text fill="#000000" font-family="sans-serif" font-size="11" lengthAdjust="spacingAndGlyphs" textLength="116" x="105" y="444.9219">+updateChildrenUrl()</text><text fill="#000000" font-family="sans-serif" font-size="11" lengthAdjust="spacingAndGlyphs" textLength="57" x="105" y="457.877">+getPath()</text><text fill="#000000" font-family="sans-serif" font-size="11" lengthAdjust="spacingAndGlyphs" textLength="93" x="105" y="470.832">+createContent()</text><text fill="#000000" font-family="sans-serif" font-size="11" lengthAdjust="spacingAndGlyphs" textLength="71" x="105" y="483.7871">+softDelete()</text><text fill="#000000" font-family="sans-serif" font-size="11" lengthAdjust="spacingAndGlyphs" textLength="109" x="105" y="496.7422">+removeFromTree()</text><!--class Content--><polygon fill="#FEFECE" filter="url(#fhg1s3e)" points="6,417.6992,6,417.7719,15.6667,417.3975,25.3333,418.0771,35,418.3543,44.6667,417.5975,54.3333,417.6555,64,417.6992,64.6281,417.6992,64.4384,428.3168,64.0182,438.9344,64.6846,449.552,63.8905,460.1695,64,470.7871,64,470.266,54.3333,471.4496,44.6667,471.3135,35,470.6361,25.3333,471.349,15.6667,470.6243,6,470.7871,5.884,470.7871,6.3819,460.1695,5.6441,449.552,6.0494,438.9344,6.1922,428.3168,6,417.6992" style="stroke: #A80036; stroke-width: 1.5;"/><text fill="#000000" font-family="sans-serif" font-size="12" lengthAdjust="spacingAndGlyphs" textLength="44" x="13" y="434.3008">Content</text><path d="M7,441.832 L7,441.8902 L16.3333,441.7855 L25.6667,440.9776 L35,442.0633 L44.3333,441.576 L53.6667,442.1919 L63,441.832 " fill="#FEFECE" style="stroke: #A80036; stroke-width: 1.5;"/><text fill="#000000" font-family="sans-serif" font-size="11" lengthAdjust="spacingAndGlyphs" textLength="46" x="12" y="456.4668">entity_id</text><path d="M7,462.7871 L7,463.4416 L16.3333,463.2004 L25.6667,463.0975 L35,462.1776 L44.3333,462.9819 L53.6667,462.694 L63,462.7871 " fill="#FEFECE" style="stroke: #A80036; stroke-width: 1.5;"/><path d="M363.92,101.1992 L363.92,101.2137 L369.81,100.8843 L375.7,101.4316 L381.59,100.9972 L387.48,101.2298 L393.37,101.1992 " fill="none" style="stroke: #000000; stroke-width: 1.0;"/><polygon fill="#000000" points="358.79,101.1992,358.7745,101.1643,360.5707,101.9559,362.3081,102.6149,364.1897,103.5986,366.0243,104.4764,367.79,105.1992,367.8086,105.2179,367.1199,104.5291,366.0133,103.4226,365.2396,102.6488,364.4435,101.8527,363.79,101.1992,363.7701,101.1793,364.6238,100.433,365.2371,99.4463,366.3508,98.96,366.9861,97.9953,367.79,97.1992,367.6922,96.9792,365.9885,97.9958,364.1405,98.6878,362.3081,99.4149,360.5095,100.218,358.79,101.1992" style="stroke: #000000; stroke-width: 1.0;"/><path d="M489,160.3192 L489.2644,160.3192 L488.7017,169.9859 L488.3214,179.6526 L489.9222,189.3192 L488.1609,198.9859 L489.8753,208.6526 L489.5165,218.3192 L489.3553,227.9859 L488.891,237.6526 L489,247.3192 " fill="none" style="stroke: #000000; stroke-width: 1.0;"/><polygon fill="#000000" points="489,252.5892,489.1731,252.6662,489.7815,250.781,490.7758,249.0674,491.5916,247.2744,492.2237,245.3997,493,243.5892,493.0989,243.6881,492.0683,244.2575,491.2346,245.0238,490.5711,245.9603,489.6233,246.6126,489,247.5892,489.1725,247.7617,488.1681,246.7573,487.3671,245.9563,486.5363,245.1255,485.7773,244.3665,485,243.5892,484.8021,243.5012,485.8315,245.4032,486.7137,247.2398,487.558,249.0594,488.2959,250.8319,489,252.5892" style="stroke: #000000; stroke-width: 1.0;"/><path d="M560.92,279.1992 L560.92,279.0638 L566.772,279.0879 L572.624,279.2468 L578.476,279.3159 L584.328,279.007 L590.18,279.1992 " fill="none" style="stroke: #000000; stroke-width: 1.0;"/><polygon fill="#000000" points="555.81,279.1992,555.7443,279.0513,557.6862,280.1708,559.41,280.7992,561.2267,281.6367,562.9796,282.3308,564.81,283.1992,564.7745,283.1637,564.0909,282.4801,563.3485,281.7377,562.2667,280.6559,561.5064,279.8956,560.81,279.1992,560.756,279.1452,561.7426,278.5319,562.5047,277.6939,563.2981,276.8873,563.9359,275.9251,564.81,275.1992,564.713,274.9811,563.0638,276.1202,561.2911,276.9818,559.4511,277.6918,557.5493,278.2627,555.81,279.1992" style="stroke: #000000; stroke-width: 1.0;"/><path d="M407.53,279.1992 L407.53,278.938 L410.478,279.1646 L413.426,278.9355 L416.374,279.3047 L419.322,279.2758 L422.27,279.1992 " fill="none" style="stroke: #000000; stroke-width: 1.0; stroke-dasharray: 1.0,3.0;"/><polygon fill="none" points="407.32,286.1992,407.2678,286.0502,403.2875,284.7065,399.2793,283.283,395.3148,281.9844,391.383,280.7793,387.32,279.1992,387.3685,279.3378,391.2914,277.7175,395.3464,276.4747,399.2649,274.8419,403.3219,273.6046,407.32,272.1992,407.1297,272.1992,407.1312,274.9992,407.2625,277.7992,407.1491,280.5992,407.1574,283.3992,407.32,286.1992" style="stroke: #000000; stroke-width: 1.0;"/><path d="M489,306.0292 L488.9258,306.0292 L488.348,316.0817 L489.724,326.1342 L489.1775,336.1867 L489.9731,346.2392 L489.0581,356.2917 L489.4633,366.3442 L488.8289,376.3967 L489,386.4492 " fill="none" style="stroke: #000000; stroke-width: 1.0;"/><polygon fill="#000000" points="489,391.5092,488.8748,391.4536,489.8821,389.7457,490.7612,387.9809,491.5958,386.1962,492.1643,384.2934,493,382.5092,492.8602,382.3694,492.1989,383.3081,491.5145,384.2237,490.5479,384.8571,489.7959,385.7052,489,386.5092,489.088,386.5972,488.2825,385.7917,487.4283,384.9375,486.5529,384.0621,485.7691,383.2783,485,382.5092,485.1344,382.5689,485.8324,384.3236,486.6539,386.1332,487.5974,387.9969,488.0761,389.6542,489,391.5092" style="stroke: #000000; stroke-width: 1.0;"/><path d="M563.12,444.1992 L563.12,444.0402 L569.106,444.4313 L575.092,443.9683 L581.078,443.9788 L587.064,444.1697 L593.05,444.1992 " fill="none" style="stroke: #000000; stroke-width: 1.0;"/><polygon fill="#000000" points="598.27,444.1992,598.1799,443.9964,596.3828,443.2031,594.5987,442.4387,592.7687,441.5712,591.1302,441.1346,589.27,440.1992,589.1706,440.0998,590.2033,441.1325,591.0263,441.9555,591.611,442.5402,592.3427,443.2719,593.27,444.1992,593.1122,444.0414,592.5915,445.1207,591.5106,445.6398,590.8011,446.5303,589.9259,447.2551,589.27,448.1992,589.2027,448.0479,591.0876,447.4388,592.7815,446.4001,594.714,445.8983,596.374,444.7833,598.27,444.1992" style="stroke: #000000; stroke-width: 1.0;"/><path d="M385.24,444.1992 L385.24,444.4658 L391.184,444.2688 L397.128,444.1573 L403.072,444.3598 L409.016,444.2378 L414.96,444.1992 " fill="none" style="stroke: #000000; stroke-width: 1.0;"/><polygon fill="#000000" points="380.06,444.1992,380.0635,444.2071,381.9504,445.2026,383.6674,445.8159,385.4131,446.4936,387.2443,447.3638,389.06,448.1992,389.0432,448.1824,388.1726,447.3118,387.5307,446.6699,386.5364,445.6756,386.0212,445.1604,385.06,444.1992,384.9686,444.1078,385.7654,443.3046,386.5803,442.5195,387.4066,441.7458,388.3167,441.0559,389.06,440.1992,389.0259,440.1224,387.2149,440.8978,385.3959,441.655,383.5764,442.4111,381.9051,443.5008,380.06,444.1992" style="stroke: #000000; stroke-width: 1.0;"/><path d="M218.48,381.6192 L218.4211,381.5442 L220.5943,380.1943 L222.6232,378.6605 L224.4926,376.9234 L226.6083,375.5003 L228.4855,373.773 L228.3497,373.5734 L230.6157,372.3674 L232.8753,371.152 L234.6459,369.2181 L236.7749,367.8108 L239.0338,366.5942 L239.015,366.5612 L241.1205,365.1315 L243.5731,364.3122 L245.7064,362.9313 L247.8011,361.4826 L250.0602,360.323 L250.1671,360.5617 L252.4453,359.5153 L254.6281,358.2557 L257.0136,357.4487 L259.1428,356.0693 L261.5,355.1992 L261.5479,355.3327 L264.9883,354.167 L268.4455,353.0481 L271.8255,351.7139 L275.2693,350.5576 L278.5945,349.0703 L278.6119,349.1315 L281.6499,348.3795 L284.6597,347.5281 L287.5671,346.3181 L290.711,345.9372 L293.6344,344.7831 L293.6841,345.0561 L296.3981,344.4396 L299.0482,343.4721 L301.7903,343.0104 L304.5298,342.5336 L307.3121,342.2925 L307.2989,342.0598 L309.9245,342.3353 L312.5043,341.8032 L315.1033,341.61 L317.7153,341.6456 L320.32,341.553 L320.3324,341.7202 L322.9362,341.882 L325.5426,342.0799 L328.1321,342.0496 L330.7306,342.1409 L333.3504,342.5192 L333.4066,342.8134 L336.0944,343.018 L338.9082,343.8823 L341.5575,343.8858 L344.2871,344.3093 L347.0956,345.1459 L347.0434,344.9593 L350.1433,346.0558 L353.1425,346.7923 L356.1158,347.4362 L359.1367,348.2504 L362.248,349.3877 L362.2397,349.3631 L365.6437,350.3875 L369.07,351.4783 L372.588,352.8412 L376,353.8895 L379.5,355.1992 L379.5545,355.3262 L382.7581,356.6997 L385.9873,358.133 L389.2441,359.6307 L392.3776,360.841 L395.5233,362.0798 L395.5064,362.0501 L398.6952,363.9897 L401.6712,365.554 L404.7946,367.3782 L407.8357,369.0575 L410.9138,370.8017 L410.9519,370.8571 L413.693,372.6141 L416.7338,374.8061 L419.471,376.5574 L422.5306,378.7769 L425.4773,380.8323 L425.6468,381.0446 L428.2498,383.0738 L431.0873,385.3968 L433.6647,387.3938 L436.434,389.6314 L439.02,391.6392 " fill="none" style="stroke: #000000; stroke-width: 1.0;"/><polygon fill="#000000" points="214.52,384.9992,214.498,384.9254,216.4074,384.4355,218.2917,383.8614,220.2007,383.3703,222.0489,382.6753,223.9565,382.1791,223.9675,382.3228,222.8221,382.0096,221.7024,382.0315,220.5825,382.0509,219.459,382.0224,218.3163,381.7453,218.4155,381.7529,218.4662,380.6221,218.5301,379.4923,218.7176,378.372,218.5733,377.2262,218.7501,376.1051,218.7837,376.121,217.7835,377.8266,217.1522,379.7075,216.2855,381.4765,215.4772,383.2733,214.52,384.9992" style="stroke: #000000; stroke-width: 1.0;"/><path d="M419.97,496.7492 L420.4233,497.3563 L412.5129,502.9745 L404.9443,509.0504 L396.4029,513.8234 L388.3066,519.1926 L380.8005,525.3522 L372.8018,530.852 L365.6233,537.4504 L357.7727,543.1486 L350.3996,549.4863 L342.7039,555.392 L334.3289,560.3879 L326.9234,566.6823 L318.93,572.1892 " fill="none" style="stroke: #000000; stroke-width: 1.0;"/><polygon fill="#000000" points="314.85,575.2392,314.889,575.4124,316.7761,574.8262,318.6586,574.2197,320.5756,573.7661,322.4893,573.2979,324.4587,573.0776,324.4934,573.3136,323.3053,572.6811,322.2197,572.7463,321.1096,572.6449,320.0147,572.6467,318.862,572.2552,318.7336,572.2364,319.1885,571.1597,319.3303,570.037,319.2864,568.887,319.4413,567.7663,319.6843,566.6585,319.7574,566.6996,318.886,568.4696,317.5888,569.9996,316.6974,571.7583,315.679,573.4454,314.85,575.2392" style="stroke: #000000; stroke-width: 1.0;"/><path d="M232.3,444.1992 L232.3,444.2075 L238.166,444.1499 L244.032,444.0933 L249.898,443.9131 L255.764,444.0407 L261.63,444.1992 " fill="none" style="stroke: #000000; stroke-width: 1.0;"/><polygon fill="#000000" points="227.19,444.1992,227.1644,444.1417,229.0023,445.0268,230.7073,445.6132,232.5984,446.6182,234.3718,447.3583,236.19,448.1992,236.0211,448.0303,235.4965,447.5057,234.5362,446.5454,233.8294,445.8386,233.0756,445.0848,232.19,444.1992,232.2886,444.2978,233.1107,443.5199,233.7434,442.5527,234.5491,441.7584,235.4892,441.0984,236.19,440.1992,236.1154,440.0313,234.406,441.0353,232.5375,441.6811,230.7674,442.5484,228.9639,443.3405,227.19,444.1992" style="stroke: #000000; stroke-width: 1.0;"/><path d="M69.17,444.1992 L69.17,444.5279 L75.096,444.0852 L81.022,444.0516 L86.948,444.4275 L92.874,444.2349 L98.8,444.1992 " fill="none" style="stroke: #000000; stroke-width: 1.0;"/><polygon fill="#000000" points="64,444.1992,63.9308,444.0436,65.874,445.1656,67.5692,445.7299,69.4003,446.5999,71.2912,447.6044,73,448.1992,72.8273,448.0265,72.28,447.4792,71.4506,446.6499,70.6618,445.861,69.8424,445.0416,69,444.1992,69.1265,444.3257,69.8162,443.4154,70.6109,442.6101,71.3016,441.7008,72.0322,440.8314,73,440.1992,72.9993,440.1976,71.2888,441.1991,69.3616,441.7127,67.6876,442.7964,65.8743,443.5663,64,444.1992" style="stroke: #000000; stroke-width: 1.0;"/><path d="M204.69,586.1292 L204.6318,586.0237 L201.9096,584.7544 L198.7584,582.7068 L195.8193,581.044 L193.0415,579.6739 L190.1647,578.1242 L190.235,578.2465 L187.252,576.6273 L183.9207,574.4016 L181.093,573.0526 L178.0641,571.3534 L174.8447,569.3225 L174.8853,569.39 L171.6474,567.3701 L168.4559,565.4271 L165.3304,563.5941 L162.0049,561.4284 L158.9936,559.7851 L158.9297,559.6842 L155.765,557.7349 L152.4873,555.6074 L149.4399,553.8432 L146.1842,551.7504 L142.875,549.573 L143.0182,549.7862 L139.6116,547.3499 L136.4997,545.3523 L133.0891,542.91 L129.872,540.7557 L126.7527,538.7473 L126.8663,538.9057 L123.7567,536.7177 L120.4396,534.2404 L117.3308,532.0536 L113.9265,529.4547 L110.8903,527.3691 L110.6904,527.1107 L107.7292,524.8745 L104.6321,522.4627 L101.6204,520.1611 L98.7847,518.0871 L95.5515,515.4994 L95.6707,515.6403 L92.7865,513.2112 L89.5385,510.3516 L86.6307,507.8946 L83.7131,505.4259 L81,503.1992 L80.9677,503.1656 L79.4557,501.7204 L77.8771,500.2057 L76.1478,498.534 L74.5039,496.9513 L73.1348,495.6552 L72.9384,495.4749 L71.556,493.9488 L69.9556,492.2227 L68.565,490.6892 L67.3138,489.2837 L65.6362,487.4867 L65.8199,487.6395 L64.4777,486.0058 L63.0803,484.326 L61.2436,482.2807 L60.0231,480.7482 L58.642,479.082 L58.4636,478.9447 L57.4519,477.4932 L56.2734,475.9134 L54.6748,474.0102 L53.6121,472.5196 L52.29,470.8292 " fill="none" style="stroke: #000000; stroke-width: 1.0;"/><polygon fill="#000000" points="209.2,588.5492,209.1856,588.538,207.8741,586.9061,206.7046,585.3849,205.3921,583.7522,204.2506,582.2528,203.1451,580.7815,203.379,580.8525,203.626,581.9102,203.6154,582.8896,204.0419,584.0017,204.4769,585.1165,204.7894,586.1941,204.7845,586.1779,203.6794,586.4326,202.5968,586.761,201.5905,587.3408,200.4049,587.3304,199.3768,587.8384,199.3599,587.6046,201.3368,587.9159,203.2953,587.9729,205.2736,588.3046,207.231,588.3462,209.2,588.5492" style="stroke: #000000; stroke-width: 1.0;"/></g></svg>