<?xml version="1.0" encoding="UTF-8" standalone="no"?><svg xmlns="http://www.w3.org/2000/svg" xmlns:xlink="http://www.w3.org/1999/xlink" contentScriptType="application/ecmascript" contentStyleType="text/css" height="923px" preserveAspectRatio="none" style="width:856px;height:923px;" version="1.1" viewBox="0 0 856 923" width="856px" zoomAndPan="magnify"><defs><filter height="300%" id="f0emrme" width="300%" x="-1" y="-1"><feGaussianBlur result="blurOut" stdDeviation="2.0"/><feColorMatrix in="blurOut" result="blurOut2" type="matrix" values="0 0 0 0 0 0 0 0 0 0 0 0 0 0 0 0 0 0 .4 0"/><feOffset dx="4.0" dy="4.0" in="blurOut2" result="blurOut3"/><feBlend in="SourceGraphic" in2="blurOut3" mode="normal"/></filter></defs><g><text fill="#000000" font-family="sans-serif" font-size="18" lengthAdjust="spacingAndGlyphs" textLength="144" x="360.5" y="17.4023">ユーザー管理画面</text><!--class Admin\UsersController--><polygon fill="#FEFECE" filter="url(#f0emrme)" points="444,29.1992,444,29.0627,454.1875,29.6191,464.375,29.6532,474.5625,29.0821,484.75,29.64,494.9375,29.5828,505.125,28.7237,515.3125,29.8928,525.5,29.0857,535.6875,28.5103,545.875,29.6411,556.0625,28.9935,566.25,29.1416,576.4375,28.7372,586.625,28.6306,596.8125,29.7309,607,29.1992,606.8337,29.1992,607.7166,39.1806,607.2282,49.162,606.5262,59.1434,607.4931,69.1248,607.0942,79.1062,606.7797,89.0875,606.628,99.0689,607.294,109.0503,607.5088,119.0317,606.4259,129.0131,606.6211,138.9945,606.256,148.9759,606.5499,158.9573,607.1823,168.9386,607.0872,178.92,606.5109,188.9014,607,198.8828,607,198.5566,596.8125,199.0259,586.625,199.451,576.4375,198.2899,566.25,198.1794,556.0625,198.8184,545.875,198.4189,535.6875,198.8706,525.5,199.3994,515.3125,198.9628,505.125,199.067,494.9375,199.5807,484.75,199.0141,474.5625,199.4362,464.375,199.0882,454.1875,198.9463,444,198.8828,444.5218,198.8828,443.3127,188.9014,444.0102,178.92,444.2399,168.9386,443.2757,158.9573,444.5042,148.9759,444.2704,138.9945,444.2422,129.0131,444.106,119.0317,444.5778,109.0503,443.7413,99.0689,443.3572,89.0875,443.7029,79.1062,444.0273,69.1248,443.5307,59.1434,443.6857,49.162,443.6247,39.1806,444,29.1992" style="stroke: #A80036; stroke-width: 1.5;"/><text fill="#000000" font-family="sans-serif" font-size="12" lengthAdjust="spacingAndGlyphs" textLength="131" x="460" y="45.8008">Admin\UsersController</text><path d="M445,53.332 L445,53.9943 L455.0625,53.7748 L465.125,53.3013 L475.1875,53.5915 L485.25,54.0413 L495.3125,53.5099 L505.375,53.201 L515.4375,52.8225 L525.5,53.7386 L535.5625,53.3932 L545.625,54.204 L555.6875,53.5708 L565.75,54.2716 L575.8125,54.2267 L585.875,52.3785 L595.9375,53.2085 L606,53.332 " fill="#FEFECE" style="stroke: #A80036; stroke-width: 1.5;"/><text fill="#000000" font-family="sans-serif" font-size="11" lengthAdjust="spacingAndGlyphs" textLength="151" x="450" y="67.9668">+AuthenticationComponent</text><text fill="#000000" font-family="sans-serif" font-size="11" lengthAdjust="spacingAndGlyphs" textLength="130" x="450" y="80.9219">+BcMessageComponent</text><path d="M445,87.2422 L445,86.9432 L455.0625,87.6946 L465.125,87.8425 L475.1875,87.9378 L485.25,87.3448 L495.3125,86.7192 L505.375,86.3034 L515.4375,87.6172 L525.5,88.1116 L535.5625,88.0437 L545.625,87.929 L555.6875,88.0002 L565.75,86.4839 L575.8125,86.7302 L585.875,88.1562 L595.9375,88.079 L606,87.2422 " fill="#FEFECE" style="stroke: #A80036; stroke-width: 1.5;"/><text fill="#000000" font-family="sans-serif" font-size="11" lengthAdjust="spacingAndGlyphs" textLength="52" x="450" y="101.877">ログイン()</text><text fill="#000000" font-family="sans-serif" font-size="11" lengthAdjust="spacingAndGlyphs" textLength="74" x="450" y="114.832">代理ログイン()</text><text fill="#000000" font-family="sans-serif" font-size="11" lengthAdjust="spacingAndGlyphs" textLength="96" x="450" y="127.7871">代理ログイン解除()</text><text fill="#000000" font-family="sans-serif" font-size="11" lengthAdjust="spacingAndGlyphs" textLength="63" x="450" y="140.7422">ログアウト()</text><text fill="#000000" font-family="sans-serif" font-size="11" lengthAdjust="spacingAndGlyphs" textLength="107" x="450" y="153.6973">ユーザー一覧を表示()</text><text fill="#000000" font-family="sans-serif" font-size="11" lengthAdjust="spacingAndGlyphs" textLength="96" x="450" y="166.6523">ユーザー新規追加()</text><text fill="#000000" font-family="sans-serif" font-size="11" lengthAdjust="spacingAndGlyphs" textLength="74" x="450" y="179.6074">ユーザー編集()</text><text fill="#000000" font-family="sans-serif" font-size="11" lengthAdjust="spacingAndGlyphs" textLength="74" x="450" y="192.5625">ユーザー削除()</text><!--class BcAdminUserHelper--><polygon fill="#FEFECE" filter="url(#f0emrme)" points="618,356.1992,618,356.7256,627.9565,355.5859,637.913,356.5352,647.8696,356.5655,657.8261,356.7458,667.7826,355.7253,677.7391,355.4955,687.6957,355.7017,697.6522,355.9325,707.6087,356.1155,717.5652,356.4561,727.5217,356.3063,737.4783,356.1091,747.4348,356.9201,757.3913,355.8013,767.3478,356.4443,777.3043,356.1431,787.2609,356.929,797.2174,356.6824,807.1739,356.6716,817.1304,356.8466,827.087,356.6293,837.0435,355.4653,847,356.1992,847.3751,356.1992,846.7768,366.4162,847.0149,376.6332,846.9215,386.8503,846.6746,397.0673,847.5497,407.2843,846.5037,417.5013,846.6282,427.7183,846.6347,437.9353,847,448.1523,847,448.0167,837.0435,447.9048,827.087,447.4738,817.1304,448.7731,807.1739,448.8482,797.2174,447.5223,787.2609,448.8047,777.3043,448.3127,767.3478,447.5926,757.3913,448.0973,747.4348,447.4715,737.4783,448.8976,727.5217,447.4533,717.5652,448.1605,707.6087,448.1467,697.6522,448.5491,687.6957,448.788,677.7391,447.9744,667.7826,448.2518,657.8261,447.8414,647.8696,447.6926,637.913,448.044,627.9565,448.6237,618,448.1523,618.4887,448.1523,618.3003,437.9353,618.0407,427.7183,618.0254,417.5013,617.6198,407.2843,617.727,397.0673,617.9796,386.8503,617.8429,376.6332,618.5122,366.4162,618,356.1992" style="stroke: #A80036; stroke-width: 1.5;"/><text fill="#000000" font-family="sans-serif" font-size="12" lengthAdjust="spacingAndGlyphs" textLength="115" x="675" y="372.8008">BcAdminUserHelper</text><path d="M619,380.332 L619,380.048 L628.8696,379.6933 L638.7391,381.2701 L648.6087,379.8258 L658.4783,380.1249 L668.3478,380.2854 L678.2174,379.5795 L688.087,379.7075 L697.9565,380.0181 L707.8261,379.915 L717.6957,380.4425 L727.5652,380.5885 L737.4348,379.7482 L747.3043,380.4741 L757.1739,380.6922 L767.0435,380.4568 L776.913,381.3288 L786.7826,380.3394 L796.6522,380.073 L806.5217,381.0648 L816.3913,380.3092 L826.2609,381.1334 L836.1304,380.2972 L846,380.332 " fill="#FEFECE" style="stroke: #A80036; stroke-width: 1.5;"/><path d="M619,388.332 L619,388.1913 L628.8696,387.8774 L638.7391,388.1134 L648.6087,388.5437 L658.4783,387.6649 L668.3478,388.3391 L678.2174,389.1 L688.087,388.8476 L697.9565,388.3084 L707.8261,387.4838 L717.6957,388.6545 L727.5652,389.1221 L737.4348,388.1163 L747.3043,388.7262 L757.1739,388.2089 L767.0435,387.5241 L776.913,388.3053 L786.7826,387.9832 L796.6522,389.0295 L806.5217,387.5416 L816.3913,387.4038 L826.2609,389.0005 L836.1304,389.257 L846,388.332 " fill="#FEFECE" style="stroke: #A80036; stroke-width: 1.5;"/><text fill="#000000" font-family="sans-serif" font-size="11" lengthAdjust="spacingAndGlyphs" textLength="217" x="624" y="402.9668">ログインユーザー自身の更新かどうか確認()</text><text fill="#000000" font-family="sans-serif" font-size="11" lengthAdjust="spacingAndGlyphs" textLength="140" x="624" y="415.9219">更新ができるかどうか確認()</text><text fill="#000000" font-family="sans-serif" font-size="11" lengthAdjust="spacingAndGlyphs" textLength="140" x="624" y="428.877">削除ができるかどうか確認()</text><text fill="#000000" font-family="sans-serif" font-size="11" lengthAdjust="spacingAndGlyphs" textLength="195" x="624" y="441.832">ユーザーグループ選択用のリスト取得()</text><!--class UserService--><polygon fill="#FEFECE" filter="url(#f0emrme)" points="468.5,369.1992,468.5,369.3442,478.8636,369.1399,489.2273,369.1649,499.5909,369.5674,509.9545,368.5228,520.3182,369.467,530.6818,369.6562,541.0455,369.5359,551.4091,369.1375,561.7727,368.7713,572.1364,368.5694,582.5,369.1992,582.639,369.1992,582.2865,378.6339,581.9581,388.0686,581.7574,397.5033,581.8184,406.9381,582.6848,416.3728,582.6903,425.8075,582.5,435.2422,582.5,435.4738,572.1364,435.6771,561.7727,435.2124,551.4091,434.8827,541.0455,435.946,530.6818,435.1108,520.3182,435.7227,509.9545,434.6331,499.5909,435.8854,489.2273,435.4426,478.8636,435.324,468.5,435.2422,467.8061,435.2422,468.746,425.8075,468.3608,416.3728,467.9457,406.9381,468.0463,397.5033,468.1023,388.0686,468.2711,378.6339,468.5,369.1992" style="stroke: #A80036; stroke-width: 1.5;"/><text fill="#000000" font-family="sans-serif" font-size="12" lengthAdjust="spacingAndGlyphs" textLength="66" x="492.5" y="385.8008">UserService</text><path d="M469.5,393.332 L469.5,393.5776 L479.6818,393.3842 L489.8636,393.5662 L500.0455,392.5153 L510.2273,394.1549 L520.4091,393.1566 L530.5909,393.5311 L540.7727,393.1643 L550.9545,393.1754 L561.1364,393.8171 L571.3182,393.9255 L581.5,393.332 " fill="#FEFECE" style="stroke: #A80036; stroke-width: 1.5;"/><text fill="#000000" font-family="sans-serif" font-size="11" lengthAdjust="spacingAndGlyphs" textLength="69" x="474.5" y="407.9668">+UsersTable</text><text fill="#000000" font-family="sans-serif" font-size="11" lengthAdjust="spacingAndGlyphs" textLength="102" x="474.5" y="420.9219">+LoginStoresTable</text><path d="M469.5,427.2422 L469.5,426.7048 L479.6818,427.6391 L489.8636,427.1039 L500.0455,427.8999 L510.2273,428.2124 L520.4091,427.7045 L530.5909,427.2345 L540.7727,428.0636 L550.9545,427.2365 L561.1364,427.1085 L571.3182,427.1017 L581.5,427.2422 " fill="#FEFECE" style="stroke: #A80036; stroke-width: 1.5;"/><!--class UserServiceInterface--><polygon fill="#FEFECE" filter="url(#f0emrme)" points="6,259.1992,6,259.3886,15.9302,259.7024,25.8605,258.464,35.7907,259.7345,45.7209,259.2625,55.6512,259.2456,65.5814,258.638,75.5116,258.9756,85.4419,259.256,95.3721,258.7477,105.3023,259.6465,115.2326,259.5094,125.1628,258.8849,135.093,259.2167,145.0233,259.6598,154.9535,258.4833,164.8837,258.8521,174.814,259.083,184.7442,258.6289,194.6744,259.3105,204.6047,259.7018,214.5349,259.3628,224.4651,259.0104,234.3953,259.4911,244.3256,259.4408,254.2558,258.8165,264.186,259.7417,274.1163,259.4986,284.0465,259.3352,293.9767,259.1412,303.907,259.4802,313.8372,258.9135,323.7674,259.0207,333.6977,258.7447,343.6279,259.7446,353.5581,258.5001,363.4884,259.0057,373.4186,259.2948,383.3488,258.483,393.2791,259.3332,403.2093,258.6018,413.1395,259.0315,423.0698,258.7446,433,259.1992,433.1741,259.1992,432.5947,269.0709,432.5566,278.9426,433.3514,288.8143,433.3833,298.686,433.3463,308.5577,433.283,318.4294,433.5456,328.3011,433.047,338.1728,432.8448,348.0445,432.7527,357.9162,433.3534,367.7879,432.9423,377.6596,433.7084,387.5313,432.3577,397.403,433.5946,407.2747,432.8471,417.1464,433.7128,427.0181,433.0184,436.8898,432.4753,446.7615,432.6392,456.6332,432.6488,466.5049,433.1894,476.3766,433.1322,486.2483,432.3744,496.12,433.4854,505.9917,433.4442,515.8634,432.6126,525.7351,433.2633,535.6068,433,545.4785,433,546.0769,423.0698,545.4803,413.1395,545.2318,403.2093,544.8687,393.2791,545.9011,383.3488,545.0947,373.4186,545.443,363.4884,545.8082,353.5581,545.9748,343.6279,545.9204,333.6977,545.2118,323.7674,545.9996,313.8372,544.9792,303.907,545.307,293.9767,545.2141,284.0465,545.3321,274.1163,545.5168,264.186,544.9508,254.2558,544.7673,244.3256,545.8799,234.3953,545.0352,224.4651,545.9499,214.5349,544.9564,204.6047,545.6013,194.6744,545.9786,184.7442,545.5675,174.814,545.1447,164.8837,546.0819,154.9535,545.9409,145.0233,545.9061,135.093,545.2107,125.1628,545.0583,115.2326,545.8031,105.3023,545.737,95.3721,545.2603,85.4419,545.5079,75.5116,546.0578,65.5814,545.4073,55.6512,545.2306,45.7209,546.0261,35.7907,545.2671,25.8605,545.569,15.9302,545.2346,6,545.4785,6.5633,545.4785,5.3713,535.6068,5.4561,525.7351,6.2181,515.8634,6.6637,505.9917,6.6877,496.12,6.3905,486.2483,6.316,476.3766,5.4072,466.5049,6.1778,456.6332,6.3862,446.7615,5.9754,436.8898,5.5062,427.0181,5.6037,417.1464,5.3583,407.2747,6.6586,397.403,6.6501,387.5313,6.2733,377.6596,5.7149,367.7879,6.454,357.9162,5.5236,348.0445,5.9446,338.1728,5.8255,328.3011,5.9975,318.4294,6.2438,308.5577,5.9664,298.686,5.3139,288.8143,5.5535,278.9426,5.5066,269.0709,6,259.1992" style="stroke: #A80036; stroke-width: 1.5;"/><text fill="#000000" font-family="sans-serif" font-size="12" lengthAdjust="spacingAndGlyphs" textLength="116" x="161.5" y="275.8008">UserServiceInterface</text><path d="M7,283.332 L7,283.4266 L16.8837,283.3989 L26.7674,283.517 L36.6512,283.5778 L46.5349,284.1497 L56.4186,283.7302 L66.3023,283.2007 L76.186,282.6124 L86.0698,283.2639 L95.9535,284.2793 L105.8372,283.4047 L115.7209,282.4293 L125.6047,283.3997 L135.4884,284.2841 L145.3721,284.0232 L155.2558,282.4862 L165.1395,282.5232 L175.0233,283.8187 L184.907,283.4038 L194.7907,282.4724 L204.6744,282.7626 L214.5581,282.4897 L224.4419,284.0614 L234.3256,282.5853 L244.2093,282.7873 L254.093,282.3622 L263.9767,283.0212 L273.8605,282.8815 L283.7442,283.6044 L293.6279,282.3563 L303.5116,283.1051 L313.3953,283.5096 L323.2791,282.9589 L333.1628,282.785 L343.0465,282.3886 L352.9302,282.4014 L362.814,283.5283 L372.6977,284.3162 L382.5814,283.6559 L392.4651,282.9613 L402.3488,282.7966 L412.2326,283.4468 L422.1163,283.9669 L432,283.332 " fill="#FEFECE" style="stroke: #A80036; stroke-width: 1.5;"/><path d="M7,291.332 L7,291.4356 L16.8837,291.8718 L26.7674,290.5664 L36.6512,290.4237 L46.5349,291.9806 L56.4186,290.5822 L66.3023,290.864 L76.186,291.8889 L86.0698,290.9678 L95.9535,290.9398 L105.8372,290.7009 L115.7209,291.7543 L125.6047,290.7757 L135.4884,290.5042 L145.3721,290.62 L155.2558,291.899 L165.1395,291.2115 L175.0233,291.311 L184.907,290.9064 L194.7907,290.6976 L204.6744,291.7931 L214.5581,290.8459 L224.4419,290.5399 L234.3256,290.353 L244.2093,290.3891 L254.093,291.0533 L263.9767,291.4955 L273.8605,290.9281 L283.7442,291.1791 L293.6279,291.5611 L303.5116,291.6509 L313.3953,292.2365 L323.2791,291.5371 L333.1628,292.1824 L343.0465,291.0506 L352.9302,292.2279 L362.814,291.2793 L372.6977,291.326 L382.5814,291.9528 L392.4651,291.6654 L402.3488,290.737 L412.2326,291.2019 L422.1163,290.952 L432,291.332 " fill="#FEFECE" style="stroke: #A80036; stroke-width: 1.5;"/><text fill="#000000" font-family="sans-serif" font-size="11" lengthAdjust="spacingAndGlyphs" textLength="30" x="12" y="305.9668">作成()</text><text fill="#000000" font-family="sans-serif" font-size="11" lengthAdjust="spacingAndGlyphs" textLength="30" x="12" y="318.9219">編集()</text><text fill="#000000" font-family="sans-serif" font-size="11" lengthAdjust="spacingAndGlyphs" textLength="85" x="12" y="331.877">単一データ取得()</text><text fill="#000000" font-family="sans-serif" font-size="11" lengthAdjust="spacingAndGlyphs" textLength="85" x="12" y="344.832">一覧データ取得()</text><text fill="#000000" font-family="sans-serif" font-size="11" lengthAdjust="spacingAndGlyphs" textLength="85" x="12" y="357.7871">初期データ取得()</text><text fill="#000000" font-family="sans-serif" font-size="11" lengthAdjust="spacingAndGlyphs" textLength="305" x="12" y="370.7422">更新対象データがログインユーザー自身の更新かどうか確認()</text><text fill="#000000" font-family="sans-serif" font-size="11" lengthAdjust="spacingAndGlyphs" textLength="140" x="12" y="383.6973">更新ができるかどうか確認()</text><text fill="#000000" font-family="sans-serif" font-size="11" lengthAdjust="spacingAndGlyphs" textLength="129" x="12" y="396.6523">削除できるかどうか確認()</text><text fill="#000000" font-family="sans-serif" font-size="11" lengthAdjust="spacingAndGlyphs" textLength="415" x="12" y="409.6074">ログインユーザーが自身のユーザーグループを変更しようとしているかどうか確認()</text><text fill="#000000" font-family="sans-serif" font-size="11" lengthAdjust="spacingAndGlyphs" textLength="52" x="12" y="422.5625">ログイン()</text><text fill="#000000" font-family="sans-serif" font-size="11" lengthAdjust="spacingAndGlyphs" textLength="63" x="12" y="435.5176">ログアウト()</text><text fill="#000000" font-family="sans-serif" font-size="11" lengthAdjust="spacingAndGlyphs" textLength="162" x="12" y="448.4727">認証用のセッションキーを取得()</text><text fill="#000000" font-family="sans-serif" font-size="11" lengthAdjust="spacingAndGlyphs" textLength="63" x="12" y="461.4277">再ログイン()</text><text fill="#000000" font-family="sans-serif" font-size="11" lengthAdjust="spacingAndGlyphs" textLength="129" x="12" y="474.3828">ログインキーを削除する()</text><text fill="#000000" font-family="sans-serif" font-size="11" lengthAdjust="spacingAndGlyphs" textLength="129" x="12" y="487.3379">ログイン状態の保存確認()</text><text fill="#000000" font-family="sans-serif" font-size="11" lengthAdjust="spacingAndGlyphs" textLength="107" x="12" y="500.293">代理ログインを行う()</text><text fill="#000000" font-family="sans-serif" font-size="11" lengthAdjust="spacingAndGlyphs" textLength="195" x="12" y="513.248">代理ログインから元のユーザーに戻る()</text><text fill="#000000" font-family="sans-serif" font-size="11" lengthAdjust="spacingAndGlyphs" textLength="162" x="12" y="526.2031">サイト全体の設定値を取得する()</text><text fill="#000000" font-family="sans-serif" font-size="11" lengthAdjust="spacingAndGlyphs" textLength="151" x="12" y="539.1582">ログイン情報をリロードする()</text><!--class UsersTable--><polygon fill="#FEFECE" filter="url(#f0emrme)" points="372.5,605.1992,372.5,605.5076,382.371,605.9436,392.2419,605.4384,402.1129,605.3416,411.9839,605.5705,421.8548,605.4521,431.7258,605.7449,441.5968,605.3728,451.4677,604.7454,461.3387,604.9149,471.2097,605.0549,481.0806,604.929,490.9516,604.8188,500.8226,604.8671,510.6935,605.2169,520.5645,604.8369,530.4355,605.6814,540.3065,604.7364,550.1774,604.5611,560.0484,604.7959,569.9194,605.2401,579.7903,605.4939,589.6613,605.055,599.5323,605.4704,609.4032,604.7033,619.2742,605.1089,629.1452,605.8957,639.0161,604.6535,648.8871,605.6225,658.7581,605.8439,668.629,605.7988,678.5,605.1992,678.7784,605.1992,678.1362,615.074,679.0101,624.9487,678.3816,634.8235,678.1095,644.6982,678.7861,654.573,678.8699,664.4478,678.7776,674.3225,678.5,684.1973,678.5,683.764,668.629,684.0793,658.7581,683.9497,648.8871,684.4995,639.0161,683.7548,629.1452,684.1256,619.2742,684.5718,609.4032,683.5367,599.5323,684,589.6613,684.1687,579.7903,684.9283,569.9194,684.74,560.0484,683.7504,550.1774,683.7047,540.3065,683.5342,530.4355,683.735,520.5645,684.765,510.6935,684.2425,500.8226,683.5314,490.9516,684.543,481.0806,684.1291,471.2097,683.9421,461.3387,683.8893,451.4677,684.5839,441.5968,684.6385,431.7258,684.1335,421.8548,683.8346,411.9839,684.5793,402.1129,684.2676,392.2419,684.675,382.371,683.9428,372.5,684.1973,371.9464,684.1973,371.9687,674.3225,371.8294,664.4478,371.8149,654.573,372.1466,644.6982,372.5062,634.8235,372.9045,624.9487,373.2222,615.074,372.5,605.1992" style="stroke: #A80036; stroke-width: 1.5;"/><text fill="#000000" font-family="sans-serif" font-size="12" lengthAdjust="spacingAndGlyphs" textLength="65" x="493" y="621.8008">UsersTable</text><path d="M373.5,629.332 L373.5,628.4189 L383.6333,630.1225 L393.7667,628.9436 L403.9,629.2377 L414.0333,629.224 L424.1667,629.1418 L434.3,628.6553 L444.4333,629.5565 L454.5667,629.0992 L464.7,629.0045 L474.8333,628.8328 L484.9667,630.1122 L495.1,628.471 L505.2333,628.4134 L515.3667,630.1924 L525.5,629.0123 L535.6333,629.4329 L545.7667,629.9868 L555.9,629.2595 L566.0333,630.0785 L576.1667,629.8556 L586.3,630.0958 L596.4333,628.4656 L606.5667,628.9199 L616.7,629.3952 L626.8333,629.3215 L636.9667,628.4747 L647.1,629.5273 L657.2333,629.0697 L667.3667,629.0587 L677.5,629.332 " fill="#FEFECE" style="stroke: #A80036; stroke-width: 1.5;"/><path d="M373.5,637.332 L373.5,638.1989 L383.6333,636.5774 L393.7667,637.5778 L403.9,636.9126 L414.0333,638.0653 L424.1667,638.0917 L434.3,637.7314 L444.4333,636.8321 L454.5667,637.8827 L464.7,637.745 L474.8333,637.248 L484.9667,637.4188 L495.1,638.1303 L505.2333,637.9499 L515.3667,637.7241 L525.5,637.524 L535.6333,636.6543 L545.7667,637.8655 L555.9,637.8627 L566.0333,638.1155 L576.1667,637.6061 L586.3,636.6891 L596.4333,637.9703 L606.5667,637.4452 L616.7,637.9953 L626.8333,637.9836 L636.9667,636.3747 L647.1,636.7898 L657.2333,637.4518 L667.3667,637.3798 L677.5,637.332 " fill="#FEFECE" style="stroke: #A80036; stroke-width: 1.5;"/><text fill="#000000" font-family="sans-serif" font-size="11" lengthAdjust="spacingAndGlyphs" textLength="228" x="378.5" y="651.9668">ユーザーに関連するよく使う項目を削除する()</text><text fill="#000000" font-family="sans-serif" font-size="11" lengthAdjust="spacingAndGlyphs" textLength="162" x="378.5" y="664.9219">利用可能なユーザーを取得する()</text><text fill="#000000" font-family="sans-serif" font-size="11" lengthAdjust="spacingAndGlyphs" textLength="294" x="378.5" y="677.877">ユーザーが許可されている認証プレフィックスを取得する()</text><!--class User--><polygon fill="#FEFECE" filter="url(#f0emrme)" points="433,744.1992,433,743.746,442.7368,743.5505,452.4737,743.7308,462.2105,744.5221,471.9474,744.8244,481.6842,743.5306,491.4211,744.6285,501.1579,743.9572,510.8947,744.6957,520.6316,743.6754,530.3684,744.0444,540.1053,744.3224,549.8421,743.9067,559.5789,743.9945,569.3158,743.5877,579.0526,744.6414,588.7895,744.7777,598.5263,743.9899,608.2632,744.7242,618,744.1992,617.3871,744.1992,617.3244,754.1806,618.6974,764.162,617.8908,774.1434,617.3113,784.1248,618.5799,794.1062,618.1936,804.0875,617.9234,814.0689,617.6632,824.0503,618.6599,834.0317,618.5384,844.0131,618.4188,853.9945,618.6029,863.9759,617.7553,873.9573,618.0409,883.9386,618.6803,893.92,617.593,903.9014,618,913.8828,618,914.0206,608.2632,913.235,598.5263,913.1328,588.7895,913.9666,579.0526,913.2316,569.3158,914.1794,559.5789,913.689,549.8421,914.0269,540.1053,913.136,530.3684,913.2121,520.6316,914.5443,510.8947,913.8982,501.1579,913.65,491.4211,914.5952,481.6842,913.3063,471.9474,913.9682,462.2105,913.3943,452.4737,914.0349,442.7368,913.1451,433,913.8828,433.6804,913.8828,433.097,903.9014,432.9306,893.92,432.8853,883.9386,433.3755,873.9573,433.726,863.9759,433.4933,853.9945,433.7358,844.0131,432.709,834.0317,432.2776,824.0503,433.0252,814.0689,432.6183,804.0875,432.7656,794.1062,432.5525,784.1248,433.261,774.1434,433.4008,764.162,433.0637,754.1806,433,744.1992" style="stroke: #A80036; stroke-width: 1.5;"/><text fill="#000000" font-family="sans-serif" font-size="12" lengthAdjust="spacingAndGlyphs" textLength="26" x="512.5" y="760.8008">User</text><path d="M434,768.332 L434,767.4944 L444.1667,768.4995 L454.3333,768.5466 L464.5,767.7173 L474.6667,768.0128 L484.8333,767.3898 L495,767.8317 L505.1667,768.5599 L515.3333,768.9937 L525.5,767.5188 L535.6667,767.6529 L545.8333,768.9141 L556,768.8276 L566.1667,768.1096 L576.3333,768.6608 L586.5,767.4112 L596.6667,769.1362 L606.8333,769.2935 L617,768.332 " fill="#FEFECE" style="stroke: #A80036; stroke-width: 1.5;"/><text fill="#000000" font-family="sans-serif" font-size="11" lengthAdjust="spacingAndGlyphs" textLength="75" x="439" y="782.9668">+アカウント名</text><text fill="#000000" font-family="sans-serif" font-size="11" lengthAdjust="spacingAndGlyphs" textLength="64" x="439" y="795.9219">+パスワード</text><text fill="#000000" font-family="sans-serif" font-size="11" lengthAdjust="spacingAndGlyphs" textLength="20" x="439" y="808.877">+性</text><text fill="#000000" font-family="sans-serif" font-size="11" lengthAdjust="spacingAndGlyphs" textLength="20" x="439" y="821.832">+名</text><text fill="#000000" font-family="sans-serif" font-size="11" lengthAdjust="spacingAndGlyphs" textLength="86" x="439" y="834.7871">+メールアドレス</text><text fill="#000000" font-family="sans-serif" font-size="11" lengthAdjust="spacingAndGlyphs" textLength="75" x="439" y="847.7422">+ニックネーム</text><text fill="#000000" font-family="sans-serif" font-size="11" lengthAdjust="spacingAndGlyphs" textLength="42" x="439" y="860.6973">+登録日</text><text fill="#000000" font-family="sans-serif" font-size="11" lengthAdjust="spacingAndGlyphs" textLength="42" x="439" y="873.6523">+編集日</text><path d="M434,879.9727 L434,879.7905 L444.1667,879.8968 L454.3333,879.1892 L464.5,880.2911 L474.6667,879.0301 L484.8333,879.9631 L495,879.2074 L505.1667,880.2936 L515.3333,880.651 L525.5,880.9473 L535.6667,879.5236 L545.8333,879.9857 L556,879.8348 L566.1667,880.9153 L576.3333,879.3468 L586.5,879.5304 L596.6667,880.8442 L606.8333,880.2228 L617,879.9727 " fill="#FEFECE" style="stroke: #A80036; stroke-width: 1.5;"/><text fill="#000000" font-family="sans-serif" font-size="11" lengthAdjust="spacingAndGlyphs" textLength="162" x="439" y="894.6074">管理ユーザーかどうか判定する()</text><text fill="#000000" font-family="sans-serif" font-size="11" lengthAdjust="spacingAndGlyphs" textLength="173" x="439" y="907.5625">整形されたユーザー名を取得する()</text><path d="M525.5,199.4592 L524.7023,199.4592 L525.2776,209.7292 L525.4299,219.9992 L526.1512,230.2692 L525.5449,240.5392 L525.9907,250.8092 L526.1241,261.0792 L524.9311,271.3492 L525.8599,281.6192 L524.8077,291.8892 L526.3519,302.1592 L526.108,312.4292 L526.407,322.6992 L526.1122,332.9692 L526.3736,343.2392 L526.1468,353.5092 L525.5,363.7792 " fill="none" style="stroke: #000000; stroke-width: 1.0;"/><polygon fill="#000000" points="525.5,368.9592,525.3525,368.8937,526.4558,367.2285,527.1575,365.3848,528.0618,363.6311,528.881,361.8397,529.5,359.9592,529.3836,359.8429,528.5895,360.6487,527.7643,361.4235,526.9788,362.238,526.1493,363.0085,525.5,363.9592,525.6521,364.1113,524.6313,363.0905,523.815,362.2742,523.0841,361.5433,522.1974,360.6567,521.5,359.9592,521.4668,359.9445,522.109,361.6743,522.953,363.4939,523.8418,365.3333,524.8105,367.2083,525.5,368.9592" style="stroke: #000000; stroke-width: 1.0;"/><path d="M587.77,402.1992 L587.77,401.9589 L593.806,402.1646 L599.842,402.4096 L605.878,402.0029 L611.914,402.1299 L617.95,402.1992 " fill="none" style="stroke: #000000; stroke-width: 1.0;"/><polygon fill="#000000" points="582.51,402.1992,582.595,402.3904,584.3008,402.9785,586.1379,403.8619,587.8261,404.4105,589.8057,405.6146,591.51,406.1992,591.6502,406.3394,590.6375,405.3267,589.8626,404.5518,589.1026,403.7919,588.3045,402.9937,587.51,402.1992,587.5392,402.2284,588.3098,401.3991,589.0519,400.5411,589.7644,399.6536,590.6219,398.9111,591.51,398.1992,591.5291,398.2423,589.6263,398.8108,587.8204,399.5976,586.1458,400.6797,584.2944,401.3641,582.51,402.1992" style="stroke: #000000; stroke-width: 1.0;"/><path d="M525.5,435.6292 L524.8214,435.6292 L524.8241,445.8998 L525.7717,456.1705 L526.2476,466.4411 L525.3193,476.7117 L525.5938,486.9823 L525.3033,497.253 L526.1264,507.5236 L524.6375,517.7942 L526.2514,528.0648 L526.4971,538.3355 L526.1002,548.6061 L525.7118,558.8767 L525.8599,569.1473 L524.6362,579.418 L524.5838,589.6886 L525.5,599.9592 " fill="none" style="stroke: #000000; stroke-width: 1.0;"/><polygon fill="#000000" points="525.5,605.0292,525.506,605.0319,526.4208,603.2829,527.3201,601.527,527.8141,599.591,528.7849,597.867,529.5,596.0292,529.3586,595.8878,528.7485,596.8777,527.794,597.5233,527.1901,598.5193,526.1588,599.0881,525.5,600.0292,525.5921,600.1213,524.5502,599.0794,523.9164,598.4457,523.092,597.6212,522.3037,596.8329,521.5,596.0292,521.4926,596.0259,522.4124,597.8792,522.8749,599.5292,524.0192,601.4822,524.648,603.2061,525.5,605.0292" style="stroke: #000000; stroke-width: 1.0;"/><path d="M453.39,402.1992 L453.39,402.4199 L456.342,402.2317 L459.294,402.2667 L462.246,402.3368 L465.198,402.1574 L468.15,402.1992 " fill="none" style="stroke: #000000; stroke-width: 1.0; stroke-dasharray: 1.0,3.0;"/><polygon fill="none" points="453.16,409.1992,453.1515,409.1749,449.1359,407.7303,445.2409,406.6303,441.1594,404.9975,437.1078,403.4501,433.16,402.1992,433.204,402.3249,437.199,400.9106,441.2036,399.5237,445.1738,398.0385,449.2392,396.8256,453.16,395.1992,452.9183,395.1992,453.2722,397.9992,453.0777,400.7992,453.1203,403.5992,453.1069,406.3992,453.16,409.1992" style="stroke: #000000; stroke-width: 1.0;"/><path d="M525.5,684.3992 L525.1564,684.3992 L525.9264,695.2652 L526.2941,706.1312 L526.3481,716.9972 L525.6293,727.8632 L525.5,738.7292 " fill="none" style="stroke: #000000; stroke-width: 1.0;"/><polygon fill="#000000" points="525.5,744.1192,525.4881,744.1139,526.4869,742.4023,526.9222,740.4402,527.9171,738.7268,528.8367,736.98,529.5,735.1192,529.503,735.1222,528.5673,735.7865,527.8803,736.6995,527.232,737.6512,526.4626,738.4818,525.5,739.1192,525.4588,739.078,524.7735,738.3927,523.8233,737.4425,523.2632,736.8824,522.3773,735.9965,521.5,735.1192,521.4697,735.1058,522.4546,736.9879,523.0068,738.6778,524.0479,740.5849,524.6543,742.2989,525.5,744.1192" style="stroke: #000000; stroke-width: 1.0;"/></g></svg>