<?xml version="1.0" encoding="UTF-8" standalone="no"?><svg xmlns="http://www.w3.org/2000/svg" xmlns:xlink="http://www.w3.org/1999/xlink" contentScriptType="application/ecmascript" contentStyleType="text/css" height="1040px" preserveAspectRatio="none" style="width:839px;height:1040px;" version="1.1" viewBox="0 0 839 1040" width="839px" zoomAndPan="magnify"><defs><filter height="300%" id="fv4mm8p" width="300%" x="-1" y="-1"><feGaussianBlur result="blurOut" stdDeviation="2.0"/><feColorMatrix in="blurOut" result="blurOut2" type="matrix" values="0 0 0 0 0 0 0 0 0 0 0 0 0 0 0 0 0 0 .4 0"/><feOffset dx="4.0" dy="4.0" in="blurOut2" result="blurOut3"/><feBlend in="SourceGraphic" in2="blurOut3" mode="normal"/></filter></defs><g><text fill="#000000" font-family="sans-serif" font-size="18" lengthAdjust="spacingAndGlyphs" textLength="198" x="325" y="17.4023">コンテンツフォルダ管理</text><!--class BcContentsComponent--><polygon fill="#FEFECE" filter="url(#fv4mm8p)" points="266.5,29.1992,266.5,29.0328,276.25,29.3068,286,29.6664,295.75,29.6059,305.5,28.6717,315.25,28.7816,325,29.3902,334.75,29.286,344.5,29.5741,354.25,28.8783,364,29.0125,373.75,28.8054,383.5,29.1742,393.25,29.333,403,28.9846,412.75,29.0334,422.5,29.1992,421.9638,29.1992,421.8752,39.4688,422.5757,49.7383,423.1061,60.0078,422.2297,70.2773,422.5086,80.5469,422.7047,90.8164,422.9813,101.0859,422.6911,111.3555,421.9138,121.625,422.8657,131.8945,423.208,142.1641,422.0037,152.4336,423.2144,162.7031,422.5,172.9727,422.5,172.8951,412.75,172.7774,403,172.8595,393.25,172.8317,383.5,172.414,373.75,172.7926,364,173.3808,354.25,173.4692,344.5,172.3308,334.75,172.6588,325,172.4564,315.25,173.1928,305.5,173.3748,295.75,173.6123,286,173.5747,276.25,172.5742,266.5,172.9727,266.5018,172.9727,266.4408,162.7031,266.3536,152.4336,266.2357,142.1641,267.0722,131.8945,266.5889,121.625,266.2561,111.3555,266.7688,101.0859,265.8417,90.8164,266.3957,80.5469,266.0955,70.2773,267.0881,60.0078,266.2101,49.7383,266.1499,39.4688,266.5,29.1992" style="stroke: #A80036; stroke-width: 1.5;"/><text fill="#000000" font-family="sans-serif" font-size="12" lengthAdjust="spacingAndGlyphs" textLength="129" x="280" y="45.8008">BcContentsComponent</text><path d="M267.5,53.332 L267.5,53.42 L277.7667,54.0124 L288.0333,52.7242 L298.3,54.2352 L308.5667,52.5041 L318.8333,52.556 L329.1,52.4019 L339.3667,53.836 L349.6333,52.9752 L359.9,53.1425 L370.1667,52.6095 L380.4333,52.3985 L390.7,52.7597 L400.9667,53.5079 L411.2333,53.1017 L421.5,53.332 " fill="#FEFECE" style="stroke: #A80036; stroke-width: 1.5;"/><path d="M267.5,61.332 L267.5,61.9879 L277.7667,61.2626 L288.0333,61.8469 L298.3,62.1862 L308.5667,61.0169 L318.8333,61.3297 L329.1,60.8292 L339.3667,60.6626 L349.6333,60.7542 L359.9,60.7421 L370.1667,60.5882 L380.4333,62.2998 L390.7,61.3392 L400.9667,61.1052 L411.2333,60.8626 L421.5,61.332 " fill="#FEFECE" style="stroke: #A80036; stroke-width: 1.5;"/><text fill="#000000" font-family="sans-serif" font-size="11" lengthAdjust="spacingAndGlyphs" textLength="73" x="272.5" y="75.9668">setupAdmin()</text><text fill="#000000" font-family="sans-serif" font-size="11" lengthAdjust="spacingAndGlyphs" textLength="67" x="272.5" y="88.9219">setupFront()</text><text fill="#000000" font-family="sans-serif" font-size="11" lengthAdjust="spacingAndGlyphs" textLength="73" x="272.5" y="101.877">settingForm()</text><text fill="#000000" font-family="sans-serif" font-size="11" lengthAdjust="spacingAndGlyphs" textLength="144" x="272.5" y="114.832">getParentLayoutTemplate()</text><text fill="#000000" font-family="sans-serif" font-size="11" lengthAdjust="spacingAndGlyphs" textLength="57" x="272.5" y="127.7871">getTypes()</text><text fill="#000000" font-family="sans-serif" font-size="11" lengthAdjust="spacingAndGlyphs" textLength="68" x="272.5" y="140.7422">getContent()</text><text fill="#000000" font-family="sans-serif" font-size="11" lengthAdjust="spacingAndGlyphs" textLength="68" x="272.5" y="153.6973">getCrumbs()</text><text fill="#000000" font-family="sans-serif" font-size="11" lengthAdjust="spacingAndGlyphs" textLength="81" x="272.5" y="166.6523">beforeRender()</text><!--class Admin\ContentFoldersController--><polygon fill="#FEFECE" filter="url(#fv4mm8p)" points="458,42.1992,458,42.8187,468.0526,41.679,478.1053,42.8825,488.1579,42.3368,498.2105,41.7846,508.2632,42.358,518.3158,41.8721,528.3684,42.4306,538.4211,41.5194,548.4737,41.5847,558.5263,42.4278,568.5789,41.4862,578.6316,42.0507,588.6842,42.9171,598.7368,42.3193,608.7895,42.2879,618.8421,42.2405,628.8947,41.8175,638.9474,42.5043,649,42.1992,649.5966,42.1992,648.5009,52.0212,648.3119,61.8431,648.5975,71.665,649.6892,81.487,648.7953,91.3089,649.5505,101.1309,648.7455,110.9528,649.0376,120.7747,648.3213,130.5967,649.4331,140.4186,648.9909,150.2406,649,160.0625,649,159.7652,638.9474,159.39,628.8947,160.117,618.8421,160.5583,608.7895,159.5203,598.7368,159.7704,588.6842,159.6397,578.6316,159.7196,568.5789,159.7607,558.5263,160.503,548.4737,160.4074,538.4211,159.3639,528.3684,160.679,518.3158,159.9246,508.2632,160.4503,498.2105,159.6076,488.1579,160.6524,478.1053,159.429,468.0526,160.1639,458,160.0625,458.7282,160.0625,458.446,150.2406,458.0897,140.4186,458.0138,130.5967,457.7843,120.7747,457.4489,110.9528,458.6971,101.1309,457.8973,91.3089,458.1859,81.487,458.4743,71.665,458.0211,61.8431,458.5211,52.0212,458,42.1992" style="stroke: #A80036; stroke-width: 1.5;"/><text fill="#000000" font-family="sans-serif" font-size="12" lengthAdjust="spacingAndGlyphs" textLength="185" x="461" y="58.8008">Admin\ContentFoldersController</text><path d="M459,66.332 L459,65.9521 L468.9474,66.231 L478.8947,65.6724 L488.8421,67.111 L498.7895,67.3226 L508.7368,65.6157 L518.6842,66.5989 L528.6316,66.7584 L538.5789,66.9553 L548.5263,66.5245 L558.4737,66.8919 L568.4211,65.5431 L578.3684,65.8659 L588.3158,65.5902 L598.2632,67.152 L608.2105,66.5915 L618.1579,66.0854 L628.1053,65.7864 L638.0526,65.7137 L648,66.332 " fill="#FEFECE" style="stroke: #A80036; stroke-width: 1.5;"/><text fill="#000000" font-family="sans-serif" font-size="11" lengthAdjust="spacingAndGlyphs" textLength="151" x="464" y="80.9668">+AuthenticationComponent</text><text fill="#000000" font-family="sans-serif" font-size="11" lengthAdjust="spacingAndGlyphs" textLength="130" x="464" y="93.9219">+BcMessageComponent</text><text fill="#000000" font-family="sans-serif" font-size="11" lengthAdjust="spacingAndGlyphs" textLength="133" x="464" y="106.877">+BcContentsComponent</text><path d="M459,113.1973 L459,113.5423 L468.9474,113.3503 L478.8947,112.4782 L488.8421,113.0192 L498.7895,112.7336 L508.7368,113.4089 L518.6842,113.9503 L528.6316,113.429 L538.5789,113.2952 L548.5263,113.1798 L558.4737,113.7936 L568.4211,112.9283 L578.3684,112.4283 L588.3158,114.0212 L598.2632,113.8511 L608.2105,112.6843 L618.1579,113.2669 L628.1053,113.4059 L638.0526,112.2597 L648,113.1973 " fill="#FEFECE" style="stroke: #A80036; stroke-width: 1.5;"/><text fill="#000000" font-family="sans-serif" font-size="11" lengthAdjust="spacingAndGlyphs" textLength="28" x="464" y="127.832">edit()</text><text fill="#000000" font-family="sans-serif" font-size="11" lengthAdjust="spacingAndGlyphs" textLength="40" x="464" y="140.7871">delete()</text><text fill="#000000" font-family="sans-serif" font-size="11" lengthAdjust="spacingAndGlyphs" textLength="136" x="464" y="153.7422">※ add() は、APIを利用する</text><!--class BcAdminContentFolderHelper--><polygon fill="#FEFECE" filter="url(#fv4mm8p)" points="655,239.6992,655,240.2343,664.7222,239.78,674.4444,239.0322,684.1667,239.1224,693.8889,240.2855,703.6111,239.653,713.3333,239.769,723.0556,239.008,732.7778,240.1996,742.5,239.5645,752.2222,239.9073,761.9444,239.9583,771.6667,240.0609,781.3889,239.0751,791.1111,239.6096,800.8333,239.0138,810.5556,240.3121,820.2778,240.1258,830,239.6992,829.9467,239.6992,829.7618,249.574,830.007,259.4487,829.5441,269.3235,830.1099,279.1982,829.9179,289.073,829.4821,298.9478,830.3224,308.8225,830,318.6973,830,318.5567,820.2778,318.3514,810.5556,318.0873,800.8333,318.9579,791.1111,319.1758,781.3889,319.101,771.6667,319.2489,761.9444,319.433,752.2222,318.2445,742.5,319.3375,732.7778,318.9211,723.0556,318.4846,713.3333,318.0698,703.6111,318.6958,693.8889,317.9587,684.1667,318.1962,674.4444,318.3858,664.7222,319.0534,655,318.6973,655.0231,318.6973,655.5641,308.8225,655.4396,298.9478,655.2892,289.073,655.4272,279.1982,655.1378,269.3235,655.2833,259.4487,654.3639,249.574,655,239.6992" style="stroke: #A80036; stroke-width: 1.5;"/><text fill="#000000" font-family="sans-serif" font-size="12" lengthAdjust="spacingAndGlyphs" textLength="169" x="658" y="256.3008">BcAdminContentFolderHelper</text><path d="M656,263.832 L656,263.8136 L666.1765,262.8821 L676.3529,263.308 L686.5294,264.8057 L696.7059,264.043 L706.8824,262.8618 L717.0588,263.6104 L727.2353,263.0813 L737.4118,263.7476 L747.5882,263.1663 L757.7647,263.3052 L767.9412,263.5633 L778.1176,263.5151 L788.2941,262.9508 L798.4706,264.5845 L808.6471,264.5036 L818.8235,263.2768 L829,263.832 " fill="#FEFECE" style="stroke: #A80036; stroke-width: 1.5;"/><path d="M656,271.832 L656,272.4576 L666.1765,271.7521 L676.3529,272.4641 L686.5294,272.1095 L696.7059,272.1271 L706.8824,272.3776 L717.0588,272.8236 L727.2353,271.1471 L737.4118,271.49 L747.5882,271.647 L757.7647,272.3085 L767.9412,272.2908 L778.1176,271.1656 L788.2941,271.9945 L798.4706,271.1079 L808.6471,272.8087 L818.8235,271.7441 L829,271.832 " fill="#FEFECE" style="stroke: #A80036; stroke-width: 1.5;"/><text fill="#000000" font-family="sans-serif" font-size="11" lengthAdjust="spacingAndGlyphs" textLength="127" x="661" y="286.4668">getFolderTemplateList()</text><text fill="#000000" font-family="sans-serif" font-size="11" lengthAdjust="spacingAndGlyphs" textLength="118" x="661" y="299.4219">getPageTemplateList()</text><text fill="#000000" font-family="sans-serif" font-size="11" lengthAdjust="spacingAndGlyphs" textLength="86" x="661" y="312.377">getPublishLink()</text><!--class ContentFolderService--><polygon fill="#FEFECE" filter="url(#fv4mm8p)" points="487,252.6992,487,253.1813,497.2308,253.0501,507.4615,253.3946,517.6923,253.3648,527.9231,252.1836,538.1538,253.1476,548.3846,253.1645,558.6154,252.0476,568.8462,252.0519,579.0769,252.1637,589.3077,251.9844,599.5385,252.4479,609.7692,252.4193,620,252.6992,619.7989,252.6992,619.5185,263.3168,619.7657,273.9344,620.3959,284.552,619.9242,295.1695,620,305.7871,620,305.8424,609.7692,305.7516,599.5385,306.1261,589.3077,305.8017,579.0769,306.3316,568.8462,305.5379,558.6154,306.0364,548.3846,305.6806,538.1538,305.8665,527.9231,305.864,517.6923,305.0547,507.4615,306.4631,497.2308,305.9329,487,305.7871,487.0304,305.7871,487.1785,295.1695,487.2355,284.552,486.3955,273.9344,486.3253,263.3168,487,252.6992" style="stroke: #A80036; stroke-width: 1.5;"/><text fill="#000000" font-family="sans-serif" font-size="12" lengthAdjust="spacingAndGlyphs" textLength="120" x="493.5" y="269.3008">ContentFolderService</text><path d="M488,276.832 L488,277.1569 L498.0769,275.9375 L508.1538,277.6901 L518.2308,277.6113 L528.3077,275.9707 L538.3846,277.3326 L548.4615,277.3669 L558.5385,276.6637 L568.6154,276.2702 L578.6923,276.8176 L588.7692,277.8234 L598.8462,277.1336 L608.9231,276.7063 L619,276.832 " fill="#FEFECE" style="stroke: #A80036; stroke-width: 1.5;"/><text fill="#000000" font-family="sans-serif" font-size="11" lengthAdjust="spacingAndGlyphs" textLength="121" x="493" y="291.4668">+ContentFoldersTable</text><path d="M488,297.7871 L488,297.7123 L498.0769,296.9687 L508.1538,296.9498 L518.2308,298.4742 L528.3077,298.787 L538.3846,298.4329 L548.4615,297.8836 L558.5385,297.5178 L568.6154,297.7971 L578.6923,296.9862 L588.7692,298.2426 L598.8462,297.1684 L608.9231,298.612 L619,297.7871 " fill="#FEFECE" style="stroke: #A80036; stroke-width: 1.5;"/><!--class ContentFolderServiceInterface--><polygon fill="#FEFECE" filter="url(#fv4mm8p)" points="275.5,233.1992,275.5,233.177,285.2778,233.1279,295.0556,233.3893,304.8333,233.5181,314.6111,232.9694,324.3889,232.9221,334.1667,232.7976,343.9444,232.5196,353.7222,232.7745,363.5,233.4395,373.2778,232.7725,383.0556,233.8416,392.8333,232.9347,402.6111,232.7476,412.3889,233.1023,422.1667,232.6395,431.9444,232.9206,441.7222,232.5834,451.5,233.1992,452.1011,233.1992,451.837,243.4162,452.241,253.6332,451.3285,263.8503,451.4214,274.0673,451.8995,284.2843,451.3779,294.5013,451.2021,304.7183,451.1531,314.9353,451.5,325.1523,451.5,325.6567,441.7222,325.7679,431.9444,325.516,422.1667,324.6893,412.3889,325.5342,402.6111,325.1819,392.8333,324.4529,383.0556,324.4509,373.2778,325.7836,363.5,324.5936,353.7222,325.472,343.9444,324.4313,334.1667,324.6099,324.3889,325.5571,314.6111,325.4203,304.8333,324.6033,295.0556,324.4378,285.2778,325.7183,275.5,325.1523,276.0303,325.1523,275.2519,314.9353,275.2711,304.7183,276.1724,294.5013,276.0844,284.2843,276.1291,274.0673,276.045,263.8503,275.8297,253.6332,275.1144,243.4162,275.5,233.1992" style="stroke: #A80036; stroke-width: 1.5;"/><text fill="#000000" font-family="sans-serif" font-size="12" lengthAdjust="spacingAndGlyphs" textLength="170" x="278.5" y="249.8008">ContentFolderServiceInterface</text><path d="M276.5,257.332 L276.5,257.9839 L286.7353,257.0504 L296.9706,256.6638 L307.2059,256.8309 L317.4412,257.1543 L327.6765,257.957 L337.9118,257.6045 L348.1471,257.4921 L358.3824,256.7761 L368.6176,257.6316 L378.8529,256.6312 L389.0882,257.7008 L399.3235,257.2454 L409.5588,256.7168 L419.7941,256.8878 L430.0294,257.3788 L440.2647,256.7655 L450.5,257.332 " fill="#FEFECE" style="stroke: #A80036; stroke-width: 1.5;"/><path d="M276.5,265.332 L276.5,265.1841 L286.7353,264.7257 L296.9706,264.4463 L307.2059,264.8935 L317.4412,264.8403 L327.6765,265.0039 L337.9118,265.4981 L348.1471,266.266 L358.3824,265.1028 L368.6176,265.6118 L378.8529,264.5775 L389.0882,265.7674 L399.3235,266.2653 L409.5588,265.8266 L419.7941,265.5796 L430.0294,264.9658 L440.2647,264.3323 L450.5,265.332 " fill="#FEFECE" style="stroke: #A80036; stroke-width: 1.5;"/><text fill="#000000" font-family="sans-serif" font-size="11" lengthAdjust="spacingAndGlyphs" textLength="87" x="281.5" y="279.9668">isOverPostSize()</text><text fill="#000000" font-family="sans-serif" font-size="11" lengthAdjust="spacingAndGlyphs" textLength="127" x="281.5" y="292.9219">getFolderTemplateList()</text><text fill="#000000" font-family="sans-serif" font-size="11" lengthAdjust="spacingAndGlyphs" textLength="118" x="281.5" y="305.877">getPageTemplateList()</text><text fill="#000000" font-family="sans-serif" font-size="11" lengthAdjust="spacingAndGlyphs" textLength="86" x="281.5" y="318.832">getPublishLink()</text><!--class ContentFoldersTable--><polygon fill="#FEFECE" filter="url(#fv4mm8p)" points="484,573.1992,484,573.0631,493.9286,573.6202,503.8571,572.6774,513.7857,573.1736,523.7143,572.751,533.6429,573.63,543.5714,573.4229,553.5,572.5556,563.4286,572.5048,573.3571,572.9094,583.2857,573.866,593.2143,573.8077,603.1429,572.6912,613.0714,573.0373,623,573.1992,622.2751,573.1992,622.3202,583.69,622.5337,594.1809,623.7486,604.6717,623.5549,615.1625,623.3342,625.6533,622.8022,636.1441,622.4315,646.635,623.6866,657.1258,622.786,667.6166,623,678.1074,623,678.2075,613.0714,677.9877,603.1429,678.6268,593.2143,677.4101,583.2857,678.1628,573.3571,678.1863,563.4286,677.5737,553.5,678.4866,543.5714,678.507,533.6429,677.6139,523.7143,678.8272,513.7857,678.0261,503.8571,678.4305,493.9286,678.6276,484,678.1074,484.4032,678.1074,483.8482,667.6166,483.9091,657.1258,484.5669,646.635,484.3094,636.1441,483.6009,625.6533,484.0248,615.1625,483.4651,604.6717,483.7314,594.1809,483.582,583.69,484,573.1992" style="stroke: #A80036; stroke-width: 1.5;"/><text fill="#000000" font-family="sans-serif" font-size="12" lengthAdjust="spacingAndGlyphs" textLength="119" x="494" y="589.8008">ContentFoldersTable</text><path d="M485,597.332 L485,598.011 L494.7857,597.9901 L504.5714,597.4365 L514.3571,596.6979 L524.1429,596.7147 L533.9286,598.2932 L543.7143,596.6419 L553.5,597.8288 L563.2857,597.5296 L573.0714,597.2129 L582.8571,597.9278 L592.6429,596.7002 L602.4286,596.8437 L612.2143,597.9195 L622,597.332 " fill="#FEFECE" style="stroke: #A80036; stroke-width: 1.5;"/><path d="M485,605.332 L485,604.3364 L494.7857,605.2199 L504.5714,604.9768 L514.3571,605.3098 L524.1429,604.4616 L533.9286,605.3078 L543.7143,604.6078 L553.5,604.9359 L563.2857,604.9921 L573.0714,604.8946 L582.8571,605.0141 L592.6429,605.9169 L602.4286,605.5496 L612.2143,604.7772 L622,605.332 " fill="#FEFECE" style="stroke: #A80036; stroke-width: 1.5;"/><text fill="#000000" font-family="sans-serif" font-size="11" lengthAdjust="spacingAndGlyphs" textLength="108" x="490" y="619.9668">getParentTemplate()</text><text fill="#000000" font-family="sans-serif" font-size="11" lengthAdjust="spacingAndGlyphs" textLength="127" x="490" y="632.9219">getFolderTemplateList()</text><text fill="#000000" font-family="sans-serif" font-size="11" lengthAdjust="spacingAndGlyphs" textLength="76" x="490" y="645.877">saveSiteRoot()</text><text fill="#000000" font-family="sans-serif" font-size="11" lengthAdjust="spacingAndGlyphs" textLength="117" x="490" y="658.832">movePageTemplates()</text><text fill="#000000" font-family="sans-serif" font-size="11" lengthAdjust="spacingAndGlyphs" textLength="96" x="490" y="671.7871">setBeforeRecord()</text><!--class SearchIndiceTable--><polygon fill="#FEFECE" filter="url(#fv4mm8p)" points="658,599.1992,658,598.5363,668.0909,598.961,678.1818,598.7492,688.2727,598.5244,698.3636,599.5165,708.4545,599.6093,718.5455,599.7147,728.6364,599.2778,738.7273,598.6139,748.8182,599.1292,758.9091,598.4891,769,599.1992,769.2187,599.1992,768.7079,609.8168,768.3808,620.4344,768.8109,631.052,769.1436,641.6695,769,652.2871,769,651.9177,758.9091,651.9698,748.8182,652.1227,738.7273,652.0384,728.6364,652.3986,718.5455,651.9137,708.4545,652.382,698.3636,652.9988,688.2727,652.5726,678.1818,652.482,668.0909,652.7476,658,652.2871,658.3615,652.2871,657.7526,641.6695,658.6826,631.052,657.8754,620.4344,658.1741,609.8168,658,599.1992" style="stroke: #A80036; stroke-width: 1.5;"/><text fill="#000000" font-family="sans-serif" font-size="12" lengthAdjust="spacingAndGlyphs" textLength="105" x="661" y="615.8008">SearchIndiceTable</text><path d="M659,623.332 L659,623.9861 L668.9091,623.533 L678.8182,622.5396 L688.7273,622.4505 L698.6364,623.6501 L708.5455,623.3126 L718.4545,622.9408 L728.3636,622.6893 L738.2727,623.9381 L748.1818,623.0487 L758.0909,623.9487 L768,623.332 " fill="#FEFECE" style="stroke: #A80036; stroke-width: 1.5;"/><path d="M659,631.332 L659,631.7768 L668.9091,631.7545 L678.8182,631.2863 L688.7273,631.9328 L698.6364,630.7743 L708.5455,630.9084 L718.4545,631.014 L728.3636,631.73 L738.2727,631.41 L748.1818,630.5824 L758.0909,631.9868 L768,631.332 " fill="#FEFECE" style="stroke: #A80036; stroke-width: 1.5;"/><text fill="#000000" font-family="sans-serif" font-size="11" lengthAdjust="spacingAndGlyphs" textLength="71" x="664" y="645.9668">reconstruct()</text><!--class ContentFolder--><polygon fill="#FEFECE" filter="url(#fv4mm8p)" points="261,926.1992,261,926.4562,270.5455,926.9324,280.0909,925.4786,289.6364,926.7487,299.1818,926.0809,308.7273,925.5007,318.2727,925.8322,327.8182,926.3848,337.3636,926.6259,346.9091,926.1021,356.4545,925.8866,366,926.1992,366.2236,926.1992,366.4819,936.69,365.9943,947.1809,365.8432,957.6717,365.7753,968.1625,365.9509,978.6533,366.5296,989.1441,365.7954,999.635,366.0618,1010.1258,365.8514,1020.6166,366,1031.1074,366,1031.8125,356.4545,1031.5644,346.9091,1031.3438,337.3636,1031.2487,327.8182,1030.7065,318.2727,1031.1082,308.7273,1031.1905,299.1818,1030.4224,289.6364,1030.6566,280.0909,1030.5503,270.5455,1031.2519,261,1031.1074,260.8925,1031.1074,260.5824,1020.6166,260.4163,1010.1258,261.7185,999.635,261.6213,989.1441,260.6389,978.6533,261.0871,968.1625,260.2531,957.6717,261.7431,947.1809,260.7067,936.69,261,926.1992" style="stroke: #A80036; stroke-width: 1.5;"/><text fill="#000000" font-family="sans-serif" font-size="12" lengthAdjust="spacingAndGlyphs" textLength="80" x="273.5" y="942.8008">ContentFolder</text><path d="M262,950.332 L262,949.727 L272.3,949.6095 L282.6,949.7129 L292.9,950.0842 L303.2,950.9583 L313.5,950.2641 L323.8,950.3652 L334.1,950.4838 L344.4,949.5025 L354.7,949.5781 L365,950.332 " fill="#FEFECE" style="stroke: #A80036; stroke-width: 1.5;"/><text fill="#000000" font-family="sans-serif" font-size="11" lengthAdjust="spacingAndGlyphs" textLength="19" x="267" y="964.9668">+id</text><text fill="#000000" font-family="sans-serif" font-size="11" lengthAdjust="spacingAndGlyphs" textLength="93" x="267" y="977.9219">+folder_template</text><text fill="#000000" font-family="sans-serif" font-size="11" lengthAdjust="spacingAndGlyphs" textLength="87" x="267" y="990.877">+page_template</text><text fill="#000000" font-family="sans-serif" font-size="11" lengthAdjust="spacingAndGlyphs" textLength="49" x="267" y="1003.832">+created</text><text fill="#000000" font-family="sans-serif" font-size="11" lengthAdjust="spacingAndGlyphs" textLength="56" x="267" y="1016.7871">+modified</text><path d="M262,1023.1074 L262,1022.1424 L272.3,1022.473 L282.6,1023.6936 L292.9,1022.256 L303.2,1022.4659 L313.5,1022.5595 L323.8,1022.3896 L334.1,1023.1512 L344.4,1023.8054 L354.7,1022.9144 L365,1023.1074 " fill="#FEFECE" style="stroke: #A80036; stroke-width: 1.5;"/><!--class BcContentsBehavior--><polygon fill="#FEFECE" filter="url(#fv4mm8p)" points="330.5,566.6992,330.5,566.6734,340.3333,567.2245,350.1667,566.3555,360,566.8658,369.8333,567.3757,379.6667,567.4375,389.5,566.0546,399.3333,567.0208,409.1667,566.6302,419,566.823,428.8333,566.6321,438.6667,566.7422,448.5,566.6992,448.0031,566.6992,448.061,576.5212,448.5876,586.3431,448.1658,596.165,447.8287,605.987,448.4599,615.8089,448.8255,625.6309,447.8557,635.4528,447.7517,645.2747,448.4993,655.0967,448.6218,664.9186,448.0358,674.7406,448.5,684.5625,448.5,683.9786,438.6667,684.9964,428.8333,684.1919,419,684.0708,409.1667,683.8803,399.3333,684.1927,389.5,684.093,379.6667,685.0971,369.8333,684.9756,360,684.4882,350.1667,684.3168,340.3333,684.9109,330.5,684.5625,331.1622,684.5625,331.0404,674.7406,331.2326,664.9186,329.7601,655.0967,330.9347,645.2747,330.1079,635.4528,331.1483,625.6309,331.1309,615.8089,329.8372,605.987,330.9346,596.165,331.2369,586.3431,331.0805,576.5212,330.5,566.6992" style="stroke: #A80036; stroke-width: 1.5;"/><text fill="#000000" font-family="sans-serif" font-size="12" lengthAdjust="spacingAndGlyphs" textLength="112" x="333.5" y="583.3008">BcContentsBehavior</text><path d="M331.5,590.832 L331.5,590.4753 L341.1667,589.9531 L350.8333,591.0161 L360.5,589.929 L370.1667,590.1754 L379.8333,590.0119 L389.5,591.5773 L399.1667,591.5163 L408.8333,590.1821 L418.5,590.7292 L428.1667,591.6361 L437.8333,590.0718 L447.5,590.832 " fill="#FEFECE" style="stroke: #A80036; stroke-width: 1.5;"/><path d="M331.5,598.832 L331.5,599.5489 L341.1667,598.5769 L350.8333,599.5491 L360.5,598.4357 L370.1667,599.7868 L379.8333,598.2978 L389.5,598.8643 L399.1667,599.7055 L408.8333,597.9548 L418.5,598.0163 L428.1667,598.042 L437.8333,599.653 L447.5,598.832 " fill="#FEFECE" style="stroke: #A80036; stroke-width: 1.5;"/><text fill="#000000" font-family="sans-serif" font-size="11" lengthAdjust="spacingAndGlyphs" textLength="85" x="336.5" y="613.4668">beforeValidate()</text><text fill="#000000" font-family="sans-serif" font-size="11" lengthAdjust="spacingAndGlyphs" textLength="67" x="336.5" y="626.4219">beforeSave()</text><text fill="#000000" font-family="sans-serif" font-size="11" lengthAdjust="spacingAndGlyphs" textLength="57" x="336.5" y="639.377">afterSave()</text><text fill="#000000" font-family="sans-serif" font-size="11" lengthAdjust="spacingAndGlyphs" textLength="76" x="336.5" y="652.332">beforeDelete()</text><text fill="#000000" font-family="sans-serif" font-size="11" lengthAdjust="spacingAndGlyphs" textLength="66" x="336.5" y="665.2871">afterDelete()</text><text fill="#000000" font-family="sans-serif" font-size="11" lengthAdjust="spacingAndGlyphs" textLength="81" x="336.5" y="678.2422">findPublished()</text><!--class ContentsTable--><polygon fill="#FEFECE" filter="url(#fv4mm8p)" points="176,566.6992,176,566.9698,185.9167,566.0517,195.8333,566.7716,205.75,566.5162,215.6667,566.0211,225.5833,566.9688,235.5,566.3001,245.4167,566.3966,255.3333,566.6476,265.25,566.3238,275.1667,567.2282,285.0833,566.2852,295,566.6992,295.3345,566.6992,295.5043,576.5212,294.8908,586.3431,295.3588,596.165,295.5903,605.987,294.2501,615.8089,294.9537,625.6309,295.2213,635.4528,294.2684,645.2747,294.3204,655.0967,294.5948,664.9186,295.2894,674.7406,295,684.5625,295,685.1438,285.0833,684.0571,275.1667,684.2036,265.25,684.1761,255.3333,684.9834,245.4167,683.9999,235.5,685.262,225.5833,685.2755,215.6667,685.1481,205.75,685.2919,195.8333,684.5933,185.9167,684.1282,176,684.5625,176.0006,684.5625,175.762,674.7406,175.8805,664.9186,175.3318,655.0967,175.6783,645.2747,175.8895,635.4528,175.3645,625.6309,175.3676,615.8089,176.2019,605.987,175.9277,596.165,175.524,586.3431,176.3287,576.5212,176,566.6992" style="stroke: #A80036; stroke-width: 1.5;"/><text fill="#000000" font-family="sans-serif" font-size="12" lengthAdjust="spacingAndGlyphs" textLength="83" x="194" y="583.3008">ContentsTable</text><path d="M177,590.832 L177,591.6739 L186.75,590.1541 L196.5,590.1696 L206.25,589.9629 L216,590.7316 L225.75,591.1866 L235.5,591.4671 L245.25,590.058 L255,590.4856 L264.75,590.3147 L274.5,590.0959 L284.25,591.778 L294,590.832 " fill="#FEFECE" style="stroke: #A80036; stroke-width: 1.5;"/><text fill="#000000" font-family="sans-serif" font-size="11" lengthAdjust="spacingAndGlyphs" textLength="96" x="182" y="605.4668">+updatingRelated</text><path d="M177,611.7871 L177,612.2329 L186.75,611.6837 L196.5,612.2893 L206.25,612.5567 L216,612.7192 L225.75,610.921 L235.5,612.0922 L245.25,611.2213 L255,611.9035 L264.75,611.7281 L274.5,611.8537 L284.25,612.6802 L294,611.7871 " fill="#FEFECE" style="stroke: #A80036; stroke-width: 1.5;"/><text fill="#000000" font-family="sans-serif" font-size="11" lengthAdjust="spacingAndGlyphs" textLength="107" x="182" y="626.4219">updateChildrenUrl()</text><text fill="#000000" font-family="sans-serif" font-size="11" lengthAdjust="spacingAndGlyphs" textLength="48" x="182" y="639.377">getPath()</text><text fill="#000000" font-family="sans-serif" font-size="11" lengthAdjust="spacingAndGlyphs" textLength="84" x="182" y="652.332">createContent()</text><text fill="#000000" font-family="sans-serif" font-size="11" lengthAdjust="spacingAndGlyphs" textLength="62" x="182" y="665.2871">softDelete()</text><text fill="#000000" font-family="sans-serif" font-size="11" lengthAdjust="spacingAndGlyphs" textLength="100" x="182" y="678.2422">removeFromTree()</text><!--class Content--><polygon fill="#FEFECE" filter="url(#fv4mm8p)" points="6,385.1992,6,385.3616,15.6429,384.6285,25.2857,384.6525,34.9286,385.012,44.5714,384.8659,54.2143,385.0806,63.8571,385.7641,73.5,384.5822,83.1429,385.4476,92.7857,385.4036,102.4286,385.1295,112.0714,385.0013,121.7143,384.6009,131.3571,384.9484,141,385.1992,141.1847,385.1992,140.9195,395.2118,140.3739,405.2244,140.4876,415.2371,140.4112,425.2497,140.4715,435.2623,140.3685,445.2749,140.9673,455.2875,141.064,465.3001,141.097,475.3127,140.4259,485.3254,141.206,495.338,141.1128,505.3506,141.0197,515.3632,140.9931,525.3758,140.7097,535.3884,141.1716,545.401,141.0865,555.4137,140.4081,565.4263,141.049,575.4389,140.8147,585.4515,140.8865,595.4641,141.3051,605.4767,141.3711,615.4893,140.5408,625.502,141.1609,635.5146,140.3201,645.5272,140.3783,655.5398,140.4457,665.5524,141.6538,675.565,140.4138,685.5776,141.6572,695.5903,140.5773,705.6029,141.449,715.6155,141.1548,725.6281,141.3005,735.6407,141.2012,745.6533,141.1813,755.6659,141.4046,765.6785,140.5217,775.6912,140.7776,785.7038,140.3122,795.7164,141.5237,805.729,140.4292,815.7416,141.3571,825.7542,140.4111,835.7668,141.4765,845.7795,141.29,855.7921,141,865.8047,141,866.1409,131.3571,865.8945,121.7143,866.3491,112.0714,866.29,102.4286,865.8764,92.7857,865.2003,83.1429,866.0752,73.5,865.7355,63.8571,866.0508,54.2143,865.3856,44.5714,865.0562,34.9286,866.317,25.2857,865.3955,15.6429,866.5365,6,865.8047,6.4578,865.8047,5.5648,855.7921,6.1193,845.7795,6.257,835.7668,5.9132,825.7542,6.6062,815.7416,5.8982,805.729,6.7078,795.7164,5.7882,785.7038,5.9221,775.6912,6.5828,765.6785,5.3262,755.6659,5.766,745.6533,6.1854,735.6407,5.4763,725.6281,5.5944,715.6155,5.4196,705.6029,6.5876,695.5903,6.2275,685.5776,6.3901,675.565,6.3006,665.5524,5.4517,655.5398,5.9691,645.5272,6.1359,635.5146,5.975,625.502,6.4958,615.4893,5.7134,605.4767,6.0656,595.4641,6.359,585.4515,5.8164,575.4389,6.1622,565.4263,6.4251,555.4137,5.9011,545.401,5.7642,535.3884,6.2607,525.3758,6.5632,515.3632,5.9283,505.3506,6.6939,495.338,5.3223,485.3254,5.4666,475.3127,6.3247,465.3001,5.5775,455.2875,5.3786,445.2749,5.8435,435.2623,6.1399,425.2497,5.686,415.2371,6.5615,405.2244,5.8603,395.2118,6,385.1992" style="stroke: #A80036; stroke-width: 1.5;"/><text fill="#000000" font-family="sans-serif" font-size="12" lengthAdjust="spacingAndGlyphs" textLength="44" x="51.5" y="401.8008">Content</text><path d="M7,409.332 L7,409.637 L17.2308,408.6122 L27.4615,409.0816 L37.6923,410.1229 L47.9231,408.8124 L58.1538,409.0775 L68.3846,409.354 L78.6154,410.217 L88.8462,409.1941 L99.0769,409.201 L109.3077,408.4117 L119.5385,408.5214 L129.7692,409.84 L140,409.332 " fill="#FEFECE" style="stroke: #A80036; stroke-width: 1.5;"/><text fill="#000000" font-family="sans-serif" font-size="11" lengthAdjust="spacingAndGlyphs" textLength="19" x="12" y="423.9668">+id</text><text fill="#000000" font-family="sans-serif" font-size="11" lengthAdjust="spacingAndGlyphs" textLength="38" x="12" y="436.9219">+name</text><text fill="#000000" font-family="sans-serif" font-size="11" lengthAdjust="spacingAndGlyphs" textLength="43" x="12" y="449.877">+plugin</text><text fill="#000000" font-family="sans-serif" font-size="11" lengthAdjust="spacingAndGlyphs" textLength="32" x="12" y="462.832">+type</text><text fill="#000000" font-family="sans-serif" font-size="11" lengthAdjust="spacingAndGlyphs" textLength="55" x="12" y="475.7871">+entity_id</text><text fill="#000000" font-family="sans-serif" font-size="11" lengthAdjust="spacingAndGlyphs" textLength="24" x="12" y="488.7422">+url</text><text fill="#000000" font-family="sans-serif" font-size="11" lengthAdjust="spacingAndGlyphs" textLength="44" x="12" y="501.6973">+site_id</text><text fill="#000000" font-family="sans-serif" font-size="11" lengthAdjust="spacingAndGlyphs" textLength="49" x="12" y="514.6523">+alias_id</text><text fill="#000000" font-family="sans-serif" font-size="11" lengthAdjust="spacingAndGlyphs" textLength="123" x="12" y="527.6074">+main_site_content_id</text><text fill="#000000" font-family="sans-serif" font-size="11" lengthAdjust="spacingAndGlyphs" textLength="60" x="12" y="540.5625">+parent_id</text><text fill="#000000" font-family="sans-serif" font-size="11" lengthAdjust="spacingAndGlyphs" textLength="20" x="12" y="553.5176">+lft</text><text fill="#000000" font-family="sans-serif" font-size="11" lengthAdjust="spacingAndGlyphs" textLength="32" x="12" y="566.4727">+rght</text><text fill="#000000" font-family="sans-serif" font-size="11" lengthAdjust="spacingAndGlyphs" textLength="33" x="12" y="579.4277">+level</text><text fill="#000000" font-family="sans-serif" font-size="11" lengthAdjust="spacingAndGlyphs" textLength="29" x="12" y="592.3828">+title</text><text fill="#000000" font-family="sans-serif" font-size="11" lengthAdjust="spacingAndGlyphs" textLength="70" x="12" y="605.3379">+description</text><text fill="#000000" font-family="sans-serif" font-size="11" lengthAdjust="spacingAndGlyphs" textLength="56" x="12" y="618.293">+eyecatch</text><text fill="#000000" font-family="sans-serif" font-size="11" lengthAdjust="spacingAndGlyphs" textLength="61" x="12" y="631.248">+author_id</text><text fill="#000000" font-family="sans-serif" font-size="11" lengthAdjust="spacingAndGlyphs" textLength="94" x="12" y="644.2031">+layout_template</text><text fill="#000000" font-family="sans-serif" font-size="11" lengthAdjust="spacingAndGlyphs" textLength="42" x="12" y="657.1582">+status</text><text fill="#000000" font-family="sans-serif" font-size="11" lengthAdjust="spacingAndGlyphs" textLength="85" x="12" y="670.1133">+publish_begin</text><text fill="#000000" font-family="sans-serif" font-size="11" lengthAdjust="spacingAndGlyphs" textLength="75" x="12" y="683.0684">+publish_end</text><text fill="#000000" font-family="sans-serif" font-size="11" lengthAdjust="spacingAndGlyphs" textLength="67" x="12" y="696.0234">+self_status</text><text fill="#000000" font-family="sans-serif" font-size="11" lengthAdjust="spacingAndGlyphs" textLength="110" x="12" y="708.9785">+self_publish_begin</text><text fill="#000000" font-family="sans-serif" font-size="11" lengthAdjust="spacingAndGlyphs" textLength="100" x="12" y="721.9336">+self_publish_end</text><text fill="#000000" font-family="sans-serif" font-size="11" lengthAdjust="spacingAndGlyphs" textLength="93" x="12" y="734.8887">+exclude_search</text><text fill="#000000" font-family="sans-serif" font-size="11" lengthAdjust="spacingAndGlyphs" textLength="78" x="12" y="747.8438">+created_date</text><text fill="#000000" font-family="sans-serif" font-size="11" lengthAdjust="spacingAndGlyphs" textLength="85" x="12" y="760.7988">+modified_date</text><text fill="#000000" font-family="sans-serif" font-size="11" lengthAdjust="spacingAndGlyphs" textLength="57" x="12" y="773.7539">+site_root</text><text fill="#000000" font-family="sans-serif" font-size="11" lengthAdjust="spacingAndGlyphs" textLength="77" x="12" y="786.709">+deleted_date</text><text fill="#000000" font-family="sans-serif" font-size="11" lengthAdjust="spacingAndGlyphs" textLength="48" x="12" y="799.6641">+deleted</text><text fill="#000000" font-family="sans-serif" font-size="11" lengthAdjust="spacingAndGlyphs" textLength="87" x="12" y="812.6191">+exclude_menu</text><text fill="#000000" font-family="sans-serif" font-size="11" lengthAdjust="spacingAndGlyphs" textLength="63" x="12" y="825.5742">+blank_link</text><text fill="#000000" font-family="sans-serif" font-size="11" lengthAdjust="spacingAndGlyphs" textLength="49" x="12" y="838.5293">+created</text><text fill="#000000" font-family="sans-serif" font-size="11" lengthAdjust="spacingAndGlyphs" textLength="56" x="12" y="851.4844">+modified</text><path d="M7,857.8047 L7,857.8557 L17.2308,857.4859 L27.4615,857.954 L37.6923,858.0655 L47.9231,857.6987 L58.1538,858.3897 L68.3846,857.2237 L78.6154,858.265 L88.8462,858.5648 L99.0769,857.1242 L109.3077,858.477 L119.5385,857.6687 L129.7692,857.5124 L140,857.8047 " fill="#FEFECE" style="stroke: #A80036; stroke-width: 1.5;"/><path d="M428.06,101.1992 L428.06,101.1128 L434.014,100.9025 L439.968,101.052 L445.922,101.1227 L451.876,101.0402 L457.83,101.1992 " fill="none" style="stroke: #000000; stroke-width: 1.0;"/><polygon fill="#000000" points="422.88,101.1992,422.838,101.1039,424.7308,102.104,426.5787,103.0023,428.2405,103.4786,430.0245,104.232,431.8914,105.1735,431.9714,105.2539,431.174,104.4612,430.3471,103.6386,429.4125,102.7079,428.5675,101.8672,427.88,101.1849,428,101.3043,428.7859,100.4903,429.3967,99.5021,430.2997,98.8046,431.0507,97.9558,431.8685,97.1735,431.9321,97.3155,430.0317,97.8912,428.3025,98.8494,426.5232,99.6956,424.7058,100.4567,422.88,101.1992" style="stroke: #000000; stroke-width: 1.0;"/><path d="M553.5,160.3192 L554.2539,160.3192 L553.122,169.9859 L554.2545,179.6526 L553.7564,189.3192 L553.7777,198.9859 L554.4544,208.6526 L553.0262,218.3192 L553.8732,227.9859 L552.5836,237.6526 L553.5,247.3192 " fill="none" style="stroke: #000000; stroke-width: 1.0;"/><polygon fill="#000000" points="553.5,252.5892,553.4573,252.5702,554.1346,250.7157,555.3051,249.0804,555.7804,247.1361,556.8441,245.4533,557.5,243.5892,557.4115,243.5007,556.549,244.2382,555.9348,245.224,555.1343,246.0235,554.1292,246.6184,553.5,247.5892,553.537,247.6262,552.846,246.9352,551.9828,246.072,550.9693,245.0585,550.2959,244.3851,549.5,243.5892,549.3252,243.5115,550.1985,245.3441,551.0236,247.1553,551.9421,249.0079,552.5073,250.7036,553.5,252.5892" style="stroke: #000000; stroke-width: 1.0;"/><path d="M625.42,279.1992 L625.42,279.0754 L631.272,279.1675 L637.124,278.9688 L642.976,279.3043 L648.828,279.274 L654.68,279.1992 " fill="none" style="stroke: #000000; stroke-width: 1.0;"/><polygon fill="#000000" points="620.31,279.1992,620.3195,279.2206,622.07,279.9092,623.9968,280.9945,625.7342,281.6538,627.4643,282.2965,629.31,283.1992,629.2281,283.1173,628.3375,282.2267,627.7754,281.6646,626.8531,280.7424,626.1448,280.034,625.31,279.1992,625.3561,279.2454,626.0395,278.3287,626.7442,277.4334,627.7408,276.83,628.6712,276.1604,629.31,275.1992,629.3704,275.3351,627.5271,276.0377,625.6601,276.6869,623.9996,277.8008,622.0673,278.3032,620.31,279.1992" style="stroke: #000000; stroke-width: 1.0;"/><path d="M472.03,279.1992 L472.03,278.9732 L474.978,279.2352 L477.926,279.3595 L480.874,279.3584 L483.822,279.471 L486.77,279.1992 " fill="none" style="stroke: #000000; stroke-width: 1.0; stroke-dasharray: 1.0,3.0;"/><polygon fill="none" points="471.82,286.1992,471.7468,285.99,467.7915,284.7177,463.8693,283.54,459.8327,282.0355,455.7573,280.42,451.82,279.1992,451.8743,279.3545,455.8411,277.8595,459.8627,276.5213,463.8324,275.0347,467.82,273.5992,471.82,272.1992,471.6121,272.1992,471.9517,274.9992,471.6506,277.7992,471.8814,280.5992,471.9,283.3992,471.82,286.1992" style="stroke: #000000; stroke-width: 1.0;"/><path d="M553.5,305.8092 L553.8609,305.8092 L553.2738,315.8858 L554.4168,325.9623 L552.9091,336.0388 L552.6525,346.1154 L552.7894,356.1919 L553.8416,366.2684 L554.2112,376.345 L552.9256,386.4215 L553.071,396.4981 L554.354,406.5746 L553.9337,416.6511 L553.5904,426.7277 L553.3941,436.8042 L553.7213,446.8808 L553.7869,456.9573 L553.7224,467.0338 L553.9935,477.1104 L554.0994,487.1869 L552.5884,497.2634 L552.9842,507.34 L553.4511,517.4165 L554.173,527.4931 L554.2468,537.5696 L553.1299,547.6461 L553.8623,557.7227 L553.5,567.7992 " fill="none" style="stroke: #000000; stroke-width: 1.0;"/><polygon fill="#000000" points="553.5,573.1592,553.7134,573.2541,554.5143,571.4545,554.8809,569.4618,555.898,567.7583,556.764,565.9877,557.5,564.1592,557.5339,564.1931,556.8232,565.0824,555.8114,565.6706,555.1515,566.6107,554.29,567.3492,553.5,568.1592,553.389,568.0483,552.812,567.4713,551.8367,566.4959,551.1703,565.8295,550.3313,564.9905,549.5,564.1592,549.3943,564.1122,550.1083,565.874,551.2715,567.8354,551.8584,569.5407,552.8091,571.4077,553.5,573.1592" style="stroke: #000000; stroke-width: 1.0;"/><path d="M623.19,625.6992 L623.19,625.707 L629.078,625.5275 L634.966,625.7551 L640.854,625.691 L646.742,625.5277 L652.63,625.6992 " fill="none" style="stroke: #000000; stroke-width: 1.0;"/><polygon fill="#000000" points="657.76,625.6992,657.662,625.4787,656.0474,625.0959,654.142,624.0587,652.4037,623.3975,650.4747,622.3073,648.76,621.6992,648.7089,621.6481,649.6506,622.5899,650.4986,623.4378,651.3036,624.2429,652.0946,625.0338,652.76,625.6992,652.7631,625.7023,652.0655,626.6047,651.0208,627.16,650.3129,628.0521,649.6903,629.0296,648.76,629.6992,648.7857,629.757,650.4752,628.7084,652.311,627.9891,654.1342,627.2412,656.0495,626.7005,657.76,625.6992" style="stroke: #000000; stroke-width: 1.0;"/><path d="M453.98,625.6992 L453.98,625.5144 L459.972,625.7619 L465.964,625.7696 L471.956,625.5593 L477.948,625.7977 L483.94,625.6992 " fill="none" style="stroke: #000000; stroke-width: 1.0;"/><polygon fill="#000000" points="448.76,625.6992,448.839,625.8771,450.4636,626.2824,452.3154,627.1989,454.2328,628.263,455.9359,628.845,457.76,629.6992,457.6735,629.6127,457.0871,629.0263,456.2225,628.1617,455.3277,627.2669,454.455,626.3942,453.76,625.6992,453.6751,625.6143,454.6089,624.9481,455.3646,624.1038,456.2091,623.3483,457.0236,622.5628,457.76,621.6992,457.7551,621.6881,455.8779,622.3146,454.1229,623.2156,452.3413,624.0572,450.5676,624.9164,448.76,625.6992" style="stroke: #000000; stroke-width: 1.0;"/><path d="M235.95,561.4192 L235.7439,561.4028 L236.0989,558.855 L236.4726,556.3086 L236.8303,553.761 L236.4997,551.1586 L236.9685,548.6198 L237.2939,548.654 L236.9629,545.9018 L237.6075,543.2521 L237.7088,540.5453 L237.9052,537.8486 L238.3805,535.1811 L238.6367,535.2153 L238.9027,532.4125 L239.0472,529.5934 L239.5458,526.8216 L239.7302,524.0079 L240.2405,521.2376 L240.0059,521.1989 L240.6746,518.3685 L241.3775,515.5438 L241.6651,512.6505 L242.2614,509.8081 L242.603,506.9238 L242.5465,506.9124 L243.3802,504.0526 L244.0626,501.1624 L244.5463,498.2323 L245.1469,495.3257 L245.5225,492.3739 L245.473,492.362 L246.0457,489.3995 L247.1736,486.5709 L247.614,483.5765 L248.3079,480.6433 L249.0536,477.7226 L249.1909,477.762 L249.6361,474.7251 L250.4408,471.7914 L251.2832,468.8686 L252.3942,466.0229 L253.2509,463.1041 L253.1212,463.06 L254.5434,460.319 L255.3545,457.3701 L256.2204,454.4398 L257.1269,451.5234 L258.1688,448.653 L258.4402,448.7622 L259.5742,445.9304 L260.2371,442.9092 L261.3717,440.0777 L262.7518,437.345 L263.8618,434.5036 L263.9963,434.5676 L265.2784,431.8142 L266.2212,428.8995 L267.6577,426.2196 L269.3645,423.6683 L270.3847,420.7904 L270.4817,420.8451 L272.1308,418.3111 L273.1093,415.3991 L274.6194,412.7868 L276.37,410.31 L277.7918,407.6478 L277.8407,407.6807 L279.3817,405.1072 L281.2768,402.7713 L282.6682,400.0973 L284.357,397.623 L286.1377,395.2103 L286.2281,395.2831 L287.7809,392.7098 L289.6165,390.3642 L291.8688,388.3542 L293.6217,385.9421 L295.4769,383.6123 L295.3052,383.4444 L297.5331,381.4667 L299.6054,379.3368 L301.9393,377.4627 L303.8697,375.1942 L305.864,372.9881 L305.6557,372.7366 L308.0893,370.9973 L310.2679,368.95 L312.8612,367.4036 L315.1091,365.44 L317.3535,363.4723 L317.3944,363.5347 L319.7159,361.5625 L322.2391,359.8986 L324.8917,358.4324 L327.5671,357.0012 L330,355.1992 L330.0237,355.2442 L333.3834,353.7333 L336.3841,351.5414 L339.8315,350.1972 L342.9091,348.1511 L346.2627,346.6286 L346.2053,346.4884 L349.339,345.6075 L352.2643,344.217 L355.2855,343.061 L358.3446,341.9977 L361.2288,340.5067 L361.2431,340.5619 L363.9935,339.5585 L366.9517,339.3534 L369.6211,338.0393 L372.5052,337.5493 L375.3305,336.8336 L375.3489,337.0397 L378.09,336.8743 L380.7851,336.1962 L383.5244,336.0121 L386.2654,335.846 L389,335.6092 L389.0287,335.9294 L391.7058,335.5407 L394.4573,335.9818 L397.222,336.5707 L399.9142,336.3492 L402.6695,336.8336 L402.6969,336.9386 L405.4104,337.263 L408.3016,338.2699 L411.0538,338.7427 L413.8921,339.5464 L416.7713,340.5067 L416.8237,340.635 L419.8554,341.9534 L422.7959,343.0489 L425.8458,344.4119 L428.716,345.3355 L431.7373,346.6286 L431.8094,346.7653 L435.1259,348.6009 L438.1369,349.8567 L441.3926,351.5768 L444.6486,353.2976 L448,355.1992 L448.1529,355.4326 L450.7591,357.0422 L453.5666,358.9589 L456.3314,360.8105 L458.8972,362.3585 L461.5927,364.1043 L461.7504,364.2943 L464.1999,366.3182 L466.4939,368.1549 L469.1734,370.4559 L471.2831,372.0705 L473.9686,374.3788 L474.0206,374.4296 L476.1383,376.6039 L478.4761,378.9934 L480.788,381.3575 L482.9282,383.5539 L485.1847,385.8639 L485.1719,385.8535 L487.2232,388.384 L489.1951,390.8505 L491.0534,393.2253 L493.2667,395.8865 L495.2978,398.4008 L495.2838,398.3913 L497.1257,401.0966 L498.6887,403.6135 L500.9646,406.6118 L502.373,409.0244 L504.3648,411.8308 L504.5435,411.9327 L505.6986,414.503 L507.7376,417.5774 L509.4213,420.4491 L510.6972,423.0883 L512.4425,425.9951 L512.1639,425.8601 L513.607,428.8149 L515.466,431.9713 L516.7053,434.8273 L518.0265,437.723 L519.5877,440.735 L519.28,440.6077 L520.8968,443.7891 L522.2523,446.8625 L523.4056,449.8522 L524.5735,452.848 L525.8575,455.8917 L525.9041,455.9082 L526.8307,458.9333 L527.9084,462.0118 L529.0213,465.1028 L530.1815,468.2105 L531.3086,471.3065 L531.4836,471.3594 L532.2076,474.3975 L533.4368,477.5884 L533.9114,480.5512 L535.348,483.8048 L535.9979,486.8205 L535.7785,486.764 L536.8161,489.9169 L537.2809,492.9222 L538.5454,496.1337 L538.8738,499.1039 L539.9822,502.2751 L539.8606,502.2484 L540.5013,505.2899 L541.5029,508.4104 L541.9298,511.405 L542.4431,514.4186 L543.3184,517.5114 L543.0479,517.4614 L544.1538,520.5362 L544.3303,523.4392 L545.2095,526.4721 L545.2484,529.3497 L546.0635,532.3707 L546.0042,532.3616 L546.177,535.1847 L547.0588,538.1173 L547.1755,540.9318 L547.7383,543.8152 L548.2742,546.6943 L548.1803,546.6824 L548.7967,549.4425 L548.6653,552.1075 L549.5634,554.9035 L549.3918,557.5634 L550.0074,560.3234 L550.0026,560.3229 L550.5841,562.9108 L550.7475,565.4558 L550.951,568.0049 L551.2054,570.5593 L551.32,573.0992 " fill="none" style="stroke: #000000; stroke-width: 1.0;"/><polygon fill="#000000" points="235.63,566.5392,235.4807,566.4613,236.5191,564.7814,237.3234,562.9792,238.4554,561.3481,239.4369,559.6385,240.1883,557.8087,240.2533,557.8824,239.2689,558.4766,238.355,559.1508,237.6409,560.0516,236.6577,560.6472,235.9446,561.5491,236.001,561.5988,235.1083,560.6226,234.4822,559.8814,233.6593,558.9667,232.791,558.012,232.2041,557.3054,232.0038,557.2311,232.7978,559.1182,233.6795,561.0379,234.1322,562.7984,235.0698,564.7388,235.63,566.5392" style="stroke: #000000; stroke-width: 1.0;"/><path d="M543.63,678.5892 L543.9279,678.6595 L543.2125,680.5987 L542.6823,682.5817 L542.2106,684.5784 L541.9638,686.6282 L541.2761,688.574 L540.9846,688.5011 L540.9444,690.7358 L540.3658,692.8359 L539.3867,694.8356 L539.3254,697.0651 L538.6326,699.1366 L538.7578,699.1699 L537.7866,701.2814 L537.1691,703.4869 L536.8146,705.7624 L536.02,707.9209 L535.6894,710.2028 L535.6447,710.1901 L534.8412,712.4461 L534.3793,714.7986 L533.7665,717.1085 L533.0128,719.3785 L532.4361,721.6986 L532.4774,721.711 L531.4544,723.9884 L531.2229,726.5043 L529.9864,728.7173 L529.3379,731.1075 L528.8626,733.55 L528.9571,733.5804 L527.8714,735.9088 L527.1906,738.3676 L526.567,740.8447 L525.927,743.3166 L524.9587,745.6828 L524.725,745.6024 L524.0015,748.1136 L523.2564,750.6174 L522.3411,753.0626 L521.7595,755.6226 L520.7141,758.0231 L520.7564,758.0386 L519.9097,760.56 L518.941,763.0365 L518.0696,765.5488 L517.1124,768.0294 L516.1188,770.4967 L516.3687,770.5956 L515.1688,773.0196 L514.1478,775.5145 L512.8441,777.8975 L512.3776,780.6117 L511.1623,783.0296 L511.0364,782.9761 L509.9383,785.4658 L508.8846,787.9745 L507.936,790.5279 L506.6325,792.9303 L505.8346,795.5478 L506.0552,795.6491 L504.8321,798.0977 L503.7437,800.6081 L502.6026,803.0943 L501.1955,805.4583 L500.1254,807.9771 L500.4217,808.1245 L499.1491,810.5517 L497.4302,812.757 L496.608,815.4082 L495.3681,817.8517 L494.0245,820.2436 L494.1464,820.3095 L492.8437,822.7142 L491.4068,825.0464 L490.0069,827.3986 L488.739,829.8222 L487.5218,832.2731 L487.4162,832.2108 L486.3947,834.7678 L484.9663,837.0847 L483.5686,839.4197 L481.8318,841.5546 L480.6069,843.9916 L480.6095,843.9932 L478.8849,846.0934 L477.8641,848.6493 L476.3809,850.9058 L474.4999,852.9047 L473.2697,855.325 L473.1962,855.2724 L471.9019,857.6328 L470.367,859.8212 L468.3974,861.6991 L466.9989,863.985 L465.5,866.1992 L465.4131,866.1285 L463.5699,868.7054 L461.7385,871.2919 L459.2743,873.3631 L457.4816,875.9811 L455.5152,878.4577 L455.4778,878.4227 L453.5207,880.9832 L451.2467,883.2469 L448.7247,885.2784 L446.8498,887.9159 L444.5567,890.1617 L444.5932,890.2001 L442.2803,892.4542 L440.0148,894.758 L437.54,896.8416 L434.9647,898.8192 L432.8471,901.2788 L433.0496,901.5149 L430.2015,903.1477 L428.0661,905.6113 L425.4729,907.5412 L422.8619,909.4504 L420.6088,911.7767 L420.4712,911.6015 L418.2016,913.8756 L415.5588,915.6743 L413.0926,917.6979 L410.5227,919.5894 L408.0644,921.623 L408.1854,921.7899 L405.5171,923.4257 L403.1228,925.4391 L400.309,926.8743 L397.9699,928.9639 L395.4364,930.7855 L395.447,930.8011 L393.1204,932.7435 L390.4505,934.1782 L388.0476,936.0078 L385.3069,937.3379 L382.9474,939.2316 L382.9118,939.1755 L380.4958,940.73 L377.9861,942.1368 L375.8373,944.1122 L373.0704,945.1139 L370.82,946.9292 " fill="none" style="stroke: #000000; stroke-width: 1.0;"/><polygon fill="#000000" points="366.2,949.7392,366.2175,949.8747,368.1452,949.4221,370.1149,949.295,372.0676,949.0358,374.0257,948.8189,375.9676,948.4765,375.9506,948.4066,374.8839,948.2735,373.7206,947.7429,372.678,947.7087,371.5114,947.1648,370.471,947.1395,370.5013,947.1469,370.6029,946.0072,371.2329,944.9961,371.1029,943.8001,371.5466,942.7437,371.808,941.6429,371.7358,941.5929,370.6318,943.2244,369.5965,944.9034,368.3239,946.4181,367.1952,948.0324,366.2,949.7392" style="stroke: #000000; stroke-width: 1.0;"/><path d="M300.31,625.6992 L300.31,625.7432 L306.342,625.3978 L312.374,625.808 L318.406,625.4653 L324.438,625.5156 L330.47,625.6992 " fill="none" style="stroke: #000000; stroke-width: 1.0;"/><polygon fill="#000000" points="295.05,625.6992,295.031,625.6564,296.7659,626.3099,298.6533,627.3066,300.4092,628.0073,302.2433,628.8841,304.05,629.6992,304.0498,629.699,303.352,629.0012,302.3725,628.0217,301.6415,627.2908,300.7141,626.3634,300.05,625.6992,300.076,625.7252,301.0209,625.0701,301.5346,623.9839,302.3569,623.2061,303.3736,622.6228,304.05,621.6992,304.1239,621.8655,302.3419,622.706,300.3544,623.084,298.6065,624.0013,296.8701,624.9444,295.05,625.6992" style="stroke: #000000; stroke-width: 1.0;"/><path d="M146.35,625.6992 L146.35,625.5622 L152.246,625.4461 L158.142,625.5651 L164.038,625.9137 L169.934,625.7491 L175.83,625.6992 " fill="none" style="stroke: #000000; stroke-width: 1.0;"/><polygon fill="#000000" points="141.21,625.6992,141.2117,625.7031,142.9397,626.341,144.8308,627.3461,146.5986,628.0736,148.4725,629.0398,150.21,629.6992,150.3078,629.7971,149.3634,628.8526,148.5537,628.0429,147.7525,627.2417,146.8427,626.3319,146.21,625.6992,146.2368,625.7261,146.9235,624.8127,147.6428,623.932,148.775,623.4643,149.4146,622.5038,150.21,621.6992,150.2375,621.7611,148.4174,622.5159,146.5468,623.157,144.7362,623.9332,142.9763,624.8234,141.21,625.6992" style="stroke: #000000; stroke-width: 1.0;"/><path d="M256.38,948.1492 L256.3392,948.0828 L253.8716,946.6031 L251.5055,945.2887 L248.9433,943.655 L246.2784,941.8542 L243.8645,940.462 L243.7192,940.2406 L241.3909,938.9332 L238.6693,937.0264 L236.2732,935.6157 L233.5335,933.6814 L230.95,931.985 L230.9338,931.962 L228.1992,929.9451 L225.8464,928.4684 L223.2615,926.6633 L220.3818,924.4409 L217.8762,922.7479 L217.7849,922.629 L215.4343,920.959 L212.5028,918.5317 L210.1381,916.8433 L207.5844,914.9085 L204.8825,912.7805 L204.8714,912.7673 L202.3407,910.6385 L200.0235,908.7633 L197.3157,906.4242 L194.7883,904.2994 L192.2085,902.1122 L192.3643,902.2787 L189.8077,899.868 L187.5815,897.8103 L184.8329,895.1945 L182.6256,893.157 L180.0938,890.7728 L180.3258,890.992 L178.0263,888.5615 L175.6537,886.062 L173.4107,883.685 L171.0255,881.1735 L168.7777,878.7919 L168.9352,878.9205 L166.7058,876.26 L164.593,873.6948 L162.7588,871.3568 L160.4935,868.6672 L158.5,866.1992 L158.661,866.3128 L156.7116,863.6532 L154.6244,860.8963 L153.2124,858.6159 L151.3053,855.9861 L149.475,853.4105 L149.3034,853.3031 L148.0058,850.8595 L146.3266,848.1772 L144.5639,845.4425 L142.9337,842.7908 L141.08,839.9992 " fill="none" style="stroke: #000000; stroke-width: 1.0;"/><polygon fill="#000000" points="260.73,950.7192,260.6217,950.6415,259.5021,949.0619,258.2873,947.4139,257.1276,945.8054,256.1188,944.3052,254.9879,942.7174,255.0552,942.735,255.2865,943.8155,255.4806,944.8863,255.9893,946.0392,256.0108,947.065,256.4163,948.191,256.3541,947.9527,255.3636,948.6378,254.1852,948.6025,253.1584,949.1485,252.0898,949.5344,250.9427,949.6194,250.9663,949.8293,252.8734,949.6009,254.8435,949.933,256.8242,950.3602,258.7555,950.3471,260.73,950.7192" style="stroke: #000000; stroke-width: 1.0;"/></g></svg>