<?xml version="1.0" encoding="UTF-8" standalone="no"?><svg xmlns="http://www.w3.org/2000/svg" xmlns:xlink="http://www.w3.org/1999/xlink" contentScriptType="application/ecmascript" contentStyleType="text/css" height="1173px" preserveAspectRatio="none" style="width:756px;height:1173px;" version="1.1" viewBox="0 0 756 1173" width="756px" zoomAndPan="magnify"><defs><filter height="300%" id="f471cys" width="300%" x="-1" y="-1"><feGaussianBlur result="blurOut" stdDeviation="2.0"/><feColorMatrix in="blurOut" result="blurOut2" type="matrix" values="0 0 0 0 0 0 0 0 0 0 0 0 0 0 0 0 0 0 .4 0"/><feOffset dx="4.0" dy="4.0" in="blurOut2" result="blurOut3"/><feBlend in="SourceGraphic" in2="blurOut3" mode="normal"/></filter></defs><g><text fill="#000000" font-family="sans-serif" font-size="18" lengthAdjust="spacingAndGlyphs" textLength="162" x="301.5" y="17.4023">コンテンツ管理画面</text><!--class Admin\ContentsController--><polygon fill="#FEFECE" filter="url(#f471cys)" points="227.5,55.1992,227.5,54.9822,237.6875,55.4477,247.875,55.8774,258.0625,55.1711,268.25,54.9158,278.4375,55.1987,288.625,55.2018,298.8125,54.9263,309,54.9209,319.1875,54.6385,329.375,55.905,339.5625,54.8948,349.75,55.6794,359.9375,54.8645,370.125,55.3502,380.3125,55.8361,390.5,55.1992,390.2227,55.1992,390.2025,65.4162,390.6605,75.6332,390.9734,85.8503,390.5664,96.0673,389.8575,106.2843,390.1788,116.5013,390.6455,126.7183,390.7532,136.9353,390.5,147.1523,390.5,147.3094,380.3125,147.4891,370.125,147.6265,359.9375,147.2793,349.75,146.7639,339.5625,147.3921,329.375,146.7309,319.1875,146.4641,309,147.1255,298.8125,146.9582,288.625,147.6694,278.4375,146.7214,268.25,146.75,258.0625,147.7838,247.875,146.8598,237.6875,147.873,227.5,147.1523,226.9781,147.1523,227.6509,136.9353,227.3343,126.7183,227.3189,116.5013,226.9916,106.2843,226.7869,96.0673,227.8711,85.8503,227.4354,75.6332,227.8877,65.4162,227.5,55.1992" style="stroke: #A80036; stroke-width: 1.5;"/><text fill="#000000" font-family="sans-serif" font-size="12" lengthAdjust="spacingAndGlyphs" textLength="149" x="234.5" y="71.8008">Admin\ContentsController</text><path d="M228.5,79.332 L228.5,78.4773 L238.5625,80.0353 L248.625,78.6889 L258.6875,80.0685 L268.75,79.6373 L278.8125,79.8434 L288.875,80.3085 L298.9375,78.8034 L309,78.6849 L319.0625,78.9133 L329.125,78.7627 L339.1875,78.5381 L349.25,79.5916 L359.3125,79.0166 L369.375,79.6812 L379.4375,80.1846 L389.5,79.332 " fill="#FEFECE" style="stroke: #A80036; stroke-width: 1.5;"/><text fill="#000000" font-family="sans-serif" font-size="11" lengthAdjust="spacingAndGlyphs" textLength="151" x="233.5" y="93.9668">+AuthenticationComponent</text><text fill="#000000" font-family="sans-serif" font-size="11" lengthAdjust="spacingAndGlyphs" textLength="130" x="233.5" y="106.9219">+BcMessageComponent</text><text fill="#000000" font-family="sans-serif" font-size="11" lengthAdjust="spacingAndGlyphs" textLength="133" x="233.5" y="119.877">+BcContentsComponent</text><path d="M228.5,126.1973 L228.5,125.6137 L238.5625,126.5518 L248.625,126.3514 L258.6875,125.7384 L268.75,126.5415 L278.8125,126.1194 L288.875,125.6329 L298.9375,126.6865 L309,126.9019 L319.0625,125.461 L329.125,126.9099 L339.1875,126.9972 L349.25,125.4074 L359.3125,126.5044 L369.375,126.6952 L379.4375,126.0569 L389.5,126.1973 " fill="#FEFECE" style="stroke: #A80036; stroke-width: 1.5;"/><text fill="#000000" font-family="sans-serif" font-size="11" lengthAdjust="spacingAndGlyphs" textLength="38" x="233.5" y="140.832">index()</text><!--class BcContentsComponent--><polygon fill="#FEFECE" filter="url(#f471cys)" points="36,29.1992,36,29.9226,45.75,29.0191,55.5,29.0885,65.25,29.5813,75,29.8556,84.75,29.6633,94.5,28.5067,104.25,28.7201,114,29.2629,123.75,29.0574,133.5,29.8239,143.25,28.8281,153,29.0935,162.75,29.0409,172.5,29.0672,182.25,29.5217,192,29.1992,191.2831,29.1992,191.2975,39.4688,192.1339,49.7383,192.1703,60.0078,191.3067,70.2773,191.6324,80.5469,191.9246,90.8164,192.0728,101.0859,192.4257,111.3555,192.6158,121.625,191.3474,131.8945,192.6052,142.1641,191.8196,152.4336,192.5247,162.7031,192,172.9727,192,172.6541,182.25,172.2712,172.5,172.6092,162.75,172.4491,153,173.1156,143.25,173.5592,133.5,173.1208,123.75,173.0022,114,172.3734,104.25,172.8923,94.5,173.3675,84.75,173.0725,75,173.4763,65.25,172.8025,55.5,172.6283,45.75,172.4416,36,172.9727,35.3811,172.9727,35.5328,162.7031,35.9556,152.4336,35.659,142.1641,36.4702,131.8945,35.9708,121.625,36.351,111.3555,35.7096,101.0859,35.3033,90.8164,36.531,80.5469,36.3932,70.2773,35.4215,60.0078,36.0637,49.7383,36.5243,39.4688,36,29.1992" style="stroke: #A80036; stroke-width: 1.5;"/><text fill="#000000" font-family="sans-serif" font-size="12" lengthAdjust="spacingAndGlyphs" textLength="129" x="49.5" y="45.8008">BcContentsComponent</text><path d="M37,53.332 L37,53.3088 L47.2667,53.8969 L57.5333,52.9039 L67.8,53.8269 L78.0667,52.3503 L88.3333,52.6406 L98.6,53.2992 L108.8667,52.4275 L119.1333,52.4057 L129.4,52.3793 L139.6667,53.6822 L149.9333,52.5739 L160.2,53.3712 L170.4667,52.7377 L180.7333,53.9305 L191,53.332 " fill="#FEFECE" style="stroke: #A80036; stroke-width: 1.5;"/><path d="M37,61.332 L37,61.2355 L47.2667,60.9702 L57.5333,62.182 L67.8,61.8874 L78.0667,60.693 L88.3333,60.6816 L98.6,60.57 L108.8667,60.536 L119.1333,60.8868 L129.4,61.5648 L139.6667,60.3766 L149.9333,61.3791 L160.2,61.6407 L170.4667,60.358 L180.7333,61.0593 L191,61.332 " fill="#FEFECE" style="stroke: #A80036; stroke-width: 1.5;"/><text fill="#000000" font-family="sans-serif" font-size="11" lengthAdjust="spacingAndGlyphs" textLength="73" x="42" y="75.9668">setupAdmin()</text><text fill="#000000" font-family="sans-serif" font-size="11" lengthAdjust="spacingAndGlyphs" textLength="67" x="42" y="88.9219">setupFront()</text><text fill="#000000" font-family="sans-serif" font-size="11" lengthAdjust="spacingAndGlyphs" textLength="73" x="42" y="101.877">settingForm()</text><text fill="#000000" font-family="sans-serif" font-size="11" lengthAdjust="spacingAndGlyphs" textLength="144" x="42" y="114.832">getParentLayoutTemplate()</text><text fill="#000000" font-family="sans-serif" font-size="11" lengthAdjust="spacingAndGlyphs" textLength="57" x="42" y="127.7871">getTypes()</text><text fill="#000000" font-family="sans-serif" font-size="11" lengthAdjust="spacingAndGlyphs" textLength="68" x="42" y="140.7422">getContent()</text><text fill="#000000" font-family="sans-serif" font-size="11" lengthAdjust="spacingAndGlyphs" textLength="68" x="42" y="153.6973">getCrumbs()</text><text fill="#000000" font-family="sans-serif" font-size="11" lengthAdjust="spacingAndGlyphs" textLength="81" x="42" y="166.6523">beforeRender()</text><!--class BcAdminContentHelper--><polygon fill="#FEFECE" filter="url(#f471cys)" points="394,330.1992,394,329.6689,404.25,330.7023,414.5,330.2991,424.75,330.8906,435,329.4696,445.25,330.1483,455.5,330.6081,465.75,329.5027,476,330.4434,486.25,330.8662,496.5,330.4636,506.75,330.7155,517,329.6129,527.25,330.6568,537.5,329.6847,547.75,330.0057,558,330.1992,557.6739,330.1992,557.5068,339.9789,557.949,349.7586,558.4734,359.5383,557.4274,369.318,558.207,379.0977,557.7486,388.8773,557.9028,398.657,557.6321,408.4367,557.7152,418.2164,557.4541,427.9961,558.7229,437.7758,558.2309,447.5555,557.9304,457.3352,558.6305,467.1148,557.9849,476.8945,557.8519,486.6742,557.6683,496.4539,557.8338,506.2336,558.0466,516.0133,558,525.793,558,525.7747,547.75,526.2189,537.5,525.7885,527.25,525.4391,517,525.8127,506.75,525.5527,496.5,526.2375,486.25,526.0196,476,526.5044,465.75,526.236,455.5,525.5838,445.25,525.2077,435,525.2429,424.75,525.5238,414.5,526.3084,404.25,525.9521,394,525.793,393.8024,525.793,394.7378,516.0133,393.3676,506.2336,394.411,496.4539,393.892,486.6742,393.6229,476.8945,394.0688,467.1148,393.36,457.3352,393.4178,447.5555,394.4864,437.7758,393.3649,427.9961,393.6482,418.2164,394.1425,408.4367,394.105,398.657,393.6457,388.8773,394.1473,379.0977,394.6205,369.318,394.3705,359.5383,393.6728,349.7586,393.3231,339.9789,394,330.1992" style="stroke: #A80036; stroke-width: 1.5;"/><text fill="#000000" font-family="sans-serif" font-size="12" lengthAdjust="spacingAndGlyphs" textLength="133" x="409.5" y="346.8008">BcAdminContentHelper</text><path d="M395,354.332 L395,353.3461 L405.125,355.0689 L415.25,353.5567 L425.375,354.8757 L435.5,353.7217 L445.625,353.3659 L455.75,354.4914 L465.875,354.4213 L476,353.4152 L486.125,354.8409 L496.25,353.5233 L506.375,354.3063 L516.5,353.7841 L526.625,353.8855 L536.75,354.5286 L546.875,354.6675 L557,354.332 " fill="#FEFECE" style="stroke: #A80036; stroke-width: 1.5;"/><path d="M395,362.332 L395,361.9204 L405.125,362.013 L415.25,363.0442 L425.375,362.0888 L435.5,361.3923 L445.625,362.7616 L455.75,361.496 L465.875,363.0968 L476,362.5839 L486.125,362.2763 L496.25,362.6808 L506.375,361.9328 L516.5,363.0806 L526.625,362.0241 L536.75,363.0605 L546.875,361.344 L557,362.332 " fill="#FEFECE" style="stroke: #A80036; stroke-width: 1.5;"/><text fill="#000000" font-family="sans-serif" font-size="11" lengthAdjust="spacingAndGlyphs" textLength="69" x="400" y="376.9668">getUserList()</text><text fill="#000000" font-family="sans-serif" font-size="11" lengthAdjust="spacingAndGlyphs" textLength="76" x="400" y="389.9219">getListTypes()</text><text fill="#000000" font-family="sans-serif" font-size="11" lengthAdjust="spacingAndGlyphs" textLength="50" x="400" y="402.877">getSites()</text><text fill="#000000" font-family="sans-serif" font-size="11" lengthAdjust="spacingAndGlyphs" textLength="121" x="400" y="415.832">getContentFolderList()</text><text fill="#000000" font-family="sans-serif" font-size="11" lengthAdjust="spacingAndGlyphs" textLength="38" x="400" y="428.7871">setup()</text><text fill="#000000" font-family="sans-serif" font-size="11" lengthAdjust="spacingAndGlyphs" textLength="100" x="400" y="441.7422">isActionAvailable()</text><text fill="#000000" font-family="sans-serif" font-size="11" lengthAdjust="spacingAndGlyphs" textLength="92" x="400" y="454.6973">_getExistsTitles()</text><text fill="#000000" font-family="sans-serif" font-size="11" lengthAdjust="spacingAndGlyphs" textLength="70" x="400" y="467.6523">_getIconUrl()</text><text fill="#000000" font-family="sans-serif" font-size="11" lengthAdjust="spacingAndGlyphs" textLength="91" x="400" y="480.6074">getJsonSettings()</text><text fill="#000000" font-family="sans-serif" font-size="11" lengthAdjust="spacingAndGlyphs" textLength="59" x="400" y="493.5625">isEditable()</text><text fill="#000000" font-family="sans-serif" font-size="11" lengthAdjust="spacingAndGlyphs" textLength="152" x="400" y="506.5176">getCurrentFolderLinkedUrl()</text><text fill="#000000" font-family="sans-serif" font-size="11" lengthAdjust="spacingAndGlyphs" textLength="110" x="400" y="519.4727">getFolderLinkedUrl()</text><!--class BcContentsHelper--><polygon fill="#FEFECE" filter="url(#f471cys)" points="593.5,272.1992,593.5,271.8149,603.7,272.3967,613.9,271.6088,624.1,272.1272,634.3,272.8375,644.5,272.5083,654.7,271.7539,664.9,272.5621,675.1,272.5936,685.3,271.7235,695.5,272.0414,705.7,272.1993,715.9,272.0413,726.1,271.4507,736.3,272.9344,746.5,272.1992,746.7565,272.1992,747.1755,282.2698,746.3126,292.3405,746.5615,302.4111,746.9637,312.4817,746.1137,322.5524,746.5106,332.623,745.8922,342.6936,746.0239,352.7642,746.649,362.8349,746.1603,372.9055,746.7623,382.9761,746.6977,393.0467,746.1572,403.1174,746.8933,413.188,747.0343,423.2586,746.6145,433.3293,746.85,443.3999,746.5529,453.4705,745.913,463.5411,747.0492,473.6118,746.0193,483.6824,747.0137,493.753,746.4752,503.8237,746.2209,513.8943,745.8837,523.9649,746.7963,534.0355,746.068,544.1062,746.8527,554.1768,747.0963,564.2474,746.9007,574.318,746.5,584.3887,746.5,584.9538,736.3,583.8667,726.1,584.5055,715.9,584.2343,705.7,585.1304,695.5,584.3782,685.3,584.0678,675.1,584.8755,664.9,583.8349,654.7,584.5943,644.5,583.8998,634.3,584.6714,624.1,583.6877,613.9,583.6624,603.7,583.663,593.5,584.3887,593.2928,584.3887,593.8481,574.318,593.0372,564.2474,593.396,554.1768,593.3185,544.1062,592.9426,534.0355,594.0683,523.9649,593.0598,513.8943,593.2484,503.8237,593.0683,493.753,593.909,483.6824,593.6054,473.6118,592.8224,463.5411,594.002,453.4705,593.1695,443.3999,592.9647,433.3293,593.7127,423.2586,593.9026,413.188,594.0027,403.1174,594.0271,393.0467,593.0061,382.9761,593.8546,372.9055,594.1138,362.8349,592.9824,352.7642,592.8838,342.6936,592.9199,332.623,592.8631,322.5524,593.7391,312.4817,593.5134,302.4111,592.9335,292.3405,593.6925,282.2698,593.5,272.1992" style="stroke: #A80036; stroke-width: 1.5;"/><text fill="#000000" font-family="sans-serif" font-size="12" lengthAdjust="spacingAndGlyphs" textLength="102" x="619" y="288.8008">BcContentsHelper</text><path d="M594.5,296.332 L594.5,296.2697 L604.5667,296.2157 L614.6333,296.4637 L624.7,295.7144 L634.7667,296.3718 L644.8333,296.7221 L654.9,296.2019 L664.9667,296.442 L675.0333,296.5726 L685.1,297.213 L695.1667,295.6208 L705.2333,296.6022 L715.3,297.3046 L725.3667,296.6707 L735.4333,296.6023 L745.5,296.332 " fill="#FEFECE" style="stroke: #A80036; stroke-width: 1.5;"/><text fill="#000000" font-family="sans-serif" font-size="11" lengthAdjust="spacingAndGlyphs" textLength="85" x="599.5" y="310.9668">+BcBaserHelper</text><text fill="#000000" font-family="sans-serif" font-size="11" lengthAdjust="spacingAndGlyphs" textLength="84" x="599.5" y="323.9219">-ContentsTable</text><text fill="#000000" font-family="sans-serif" font-size="11" lengthAdjust="spacingAndGlyphs" textLength="100" x="599.5" y="336.877">-PermissionsTable</text><path d="M594.5,343.1973 L594.5,344.0303 L604.5667,343.6799 L614.6333,342.7488 L624.7,342.5463 L634.7667,342.3822 L644.8333,342.3936 L654.9,342.9842 L664.9667,342.9339 L675.0333,343.7445 L685.1,343.8017 L695.1667,343.8565 L705.2333,343.5429 L715.3,342.5276 L725.3667,343.9201 L735.4333,342.2085 L745.5,343.1973 " fill="#FEFECE" style="stroke: #A80036; stroke-width: 1.5;"/><text fill="#000000" font-family="sans-serif" font-size="11" lengthAdjust="spacingAndGlyphs" textLength="85" x="599.5" y="357.832">isAllowPublish()</text><text fill="#000000" font-family="sans-serif" font-size="11" lengthAdjust="spacingAndGlyphs" textLength="63" x="599.5" y="370.7871">getUrlById()</text><text fill="#000000" font-family="sans-serif" font-size="11" lengthAdjust="spacingAndGlyphs" textLength="41" x="599.5" y="383.7422">getUrl()</text><text fill="#000000" font-family="sans-serif" font-size="11" lengthAdjust="spacingAndGlyphs" textLength="75" x="599.5" y="396.6973">isSiteRelated()</text><text fill="#000000" font-family="sans-serif" font-size="11" lengthAdjust="spacingAndGlyphs" textLength="65" x="599.5" y="409.6523">getPureUrl()</text><text fill="#000000" font-family="sans-serif" font-size="11" lengthAdjust="spacingAndGlyphs" textLength="141" x="599.5" y="422.6074">getCurrentRelatedSiteUrl()</text><text fill="#000000" font-family="sans-serif" font-size="11" lengthAdjust="spacingAndGlyphs" textLength="49" x="599.5" y="435.5625">getTree()</text><text fill="#000000" font-family="sans-serif" font-size="11" lengthAdjust="spacingAndGlyphs" textLength="59" x="599.5" y="448.5176">getParent()</text><text fill="#000000" font-family="sans-serif" font-size="11" lengthAdjust="spacingAndGlyphs" textLength="132" x="599.5" y="461.4727">getRelatedSiteContents()</text><text fill="#000000" font-family="sans-serif" font-size="11" lengthAdjust="spacingAndGlyphs" textLength="111" x="599.5" y="474.4277">getRelatedSiteLinks()</text><text fill="#000000" font-family="sans-serif" font-size="11" lengthAdjust="spacingAndGlyphs" textLength="121" x="599.5" y="487.3828">getContentFolderList()</text><text fill="#000000" font-family="sans-serif" font-size="11" lengthAdjust="spacingAndGlyphs" textLength="69" x="599.5" y="500.3379">getSiteRoot()</text><text fill="#000000" font-family="sans-serif" font-size="11" lengthAdjust="spacingAndGlyphs" textLength="79" x="599.5" y="513.293">getSiteRootId()</text><text fill="#000000" font-family="sans-serif" font-size="11" lengthAdjust="spacingAndGlyphs" textLength="120" x="599.5" y="526.248">getContentByEntityId()</text><text fill="#000000" font-family="sans-serif" font-size="11" lengthAdjust="spacingAndGlyphs" textLength="96" x="599.5" y="539.2031">getContentByUrl()</text><text fill="#000000" font-family="sans-serif" font-size="11" lengthAdjust="spacingAndGlyphs" textLength="74" x="599.5" y="552.1582">_getContent()</text><text fill="#000000" font-family="sans-serif" font-size="11" lengthAdjust="spacingAndGlyphs" textLength="61" x="599.5" y="565.1133">isParentId()</text><text fill="#000000" font-family="sans-serif" font-size="11" lengthAdjust="spacingAndGlyphs" textLength="51" x="599.5" y="578.0684">isFolder()</text><!--class ContentService--><polygon fill="#FEFECE" filter="url(#f471cys)" points="259.5,401.6992,259.5,401.8023,269.4,401.6559,279.3,401.8939,289.2,402.036,299.1,401.7267,309,401.685,318.9,402.3721,328.8,401.4545,338.7,402.2823,348.6,401.5804,358.5,401.6992,358.1655,401.6992,359.2105,412.3168,358.0102,422.9344,358.1655,433.552,358.6033,444.1695,358.5,454.7871,358.5,454.7209,348.6,454.1713,338.7,454.8952,328.8,454.1394,318.9,455.1985,309,454.7371,299.1,455.5162,289.2,454.3476,279.3,455.0266,269.4,454.4569,259.5,454.7871,259.763,454.7871,259.3409,444.1695,259.8576,433.552,259.7955,422.9344,259.7124,412.3168,259.5,401.6992" style="stroke: #A80036; stroke-width: 1.5;"/><text fill="#000000" font-family="sans-serif" font-size="12" lengthAdjust="spacingAndGlyphs" textLength="84" x="267" y="418.3008">ContentService</text><path d="M260.5,425.832 L260.5,426.1921 L270.2,424.991 L279.9,426.1143 L289.6,425.2215 L299.3,424.9915 L309,426.038 L318.7,424.9811 L328.4,426.8251 L338.1,426.2554 L347.8,426.469 L357.5,425.832 " fill="#FEFECE" style="stroke: #A80036; stroke-width: 1.5;"/><text fill="#000000" font-family="sans-serif" font-size="11" lengthAdjust="spacingAndGlyphs" textLength="87" x="265.5" y="440.4668">+ContentsTable</text><path d="M260.5,446.7871 L260.5,445.8323 L270.2,446.736 L279.9,447.5928 L289.6,447.2118 L299.3,446.2995 L309,446.8627 L318.7,447.7325 L328.4,446.3674 L338.1,446.8788 L347.8,446.8161 L357.5,446.7871 " fill="#FEFECE" style="stroke: #A80036; stroke-width: 1.5;"/><!--class ContentsTable--><polygon fill="#FEFECE" filter="url(#f471cys)" points="242.5,897.1992,242.5,897.3216,252.7308,896.9246,262.9615,897.1845,273.1923,896.539,283.4231,896.8805,293.6538,896.7116,303.8846,896.6062,314.1154,897.1421,324.3462,896.916,334.5769,897.1691,344.8077,897.3946,355.0385,896.8798,365.2692,897.1324,375.5,897.1992,374.9949,897.1992,375.3447,907.8168,375.7583,918.4344,375.7553,929.052,374.9539,939.6695,375.5,950.2871,375.5,949.5837,365.2692,950.7003,355.0385,950.866,344.8077,950.1414,334.5769,950.8458,324.3462,950.9575,314.1154,950.2454,303.8846,950.4281,293.6538,949.6679,283.4231,949.6497,273.1923,951.0336,262.9615,950.0141,252.7308,950.652,242.5,950.2871,242.2034,950.2871,243.0802,939.6695,242.5421,929.052,243.1407,918.4344,243.0725,907.8168,242.5,897.1992" style="stroke: #A80036; stroke-width: 1.5;"/><text fill="#000000" font-family="sans-serif" font-size="12" lengthAdjust="spacingAndGlyphs" textLength="83" x="267.5" y="913.8008">ContentsTable</text><path d="M243.5,921.332 L243.5,920.4914 L253.5769,920.771 L263.6538,922.1847 L273.7308,921.0827 L283.8077,922.139 L293.8846,920.8276 L303.9615,921.3796 L314.0385,921.6527 L324.1154,920.4618 L334.1923,922.0773 L344.2692,921.4775 L354.3462,920.9758 L364.4231,922.2598 L374.5,921.332 " fill="#FEFECE" style="stroke: #A80036; stroke-width: 1.5;"/><path d="M243.5,929.332 L243.5,929.9185 L253.5769,928.7984 L263.6538,930.2716 L273.7308,929.16 L283.8077,930.2142 L293.8846,929.4494 L303.9615,929.9571 L314.0385,929.0031 L324.1154,928.6229 L334.1923,929.38 L344.2692,929.2698 L354.3462,928.4521 L364.4231,930.2825 L374.5,929.332 " fill="#FEFECE" style="stroke: #A80036; stroke-width: 1.5;"/><text fill="#000000" font-family="sans-serif" font-size="11" lengthAdjust="spacingAndGlyphs" textLength="121" x="248.5" y="943.9668">getContentFolderList()</text><!--class Content--><polygon fill="#FEFECE" filter="url(#f471cys)" points="72.5,683.1992,72.5,682.569,82.1429,683.1724,91.7857,683.2767,101.4286,683.3441,111.0714,683.0613,120.7143,682.9519,130.3571,682.6178,140,682.9929,149.6429,682.8013,159.2857,683.8557,168.9286,683.9365,178.5714,682.558,188.2143,683.7019,197.8571,683.3137,207.5,683.1992,207.904,683.1992,207.3613,693.2118,207.0995,703.2244,207.0213,713.2371,207.3879,723.2497,208.1758,733.2623,206.8437,743.2749,207.4473,753.2875,207.7078,763.3001,207.4417,773.3127,207.6754,783.3254,206.825,793.338,206.8956,803.3506,207.748,813.3632,207.8927,823.3758,206.8644,833.3884,207.3718,843.401,207.8959,853.4137,207.6977,863.4263,206.806,873.4389,207.7583,883.4515,206.9695,893.4641,207.3119,903.4767,207.7428,913.4893,207.6696,923.502,207.388,933.5146,207.6976,943.5272,207.6302,953.5398,206.9305,963.5524,208.0689,973.565,208.2173,983.5776,207.2533,993.5903,207.9651,1003.6029,207.8057,1013.6155,206.9878,1023.6281,207.8424,1033.6407,207.291,1043.6533,206.9521,1053.6659,207.7606,1063.6785,207.2095,1073.6912,207.6296,1083.7038,207.51,1093.7164,206.8693,1103.729,207.7294,1113.7416,207.1145,1123.7542,207.7355,1133.7668,207.1372,1143.7795,207.704,1153.7921,207.5,1163.8047,207.5,1163.2435,197.8571,1164.2229,188.2143,1164.437,178.5714,1163.9338,168.9286,1163.3366,159.2857,1164.3387,149.6429,1164.0923,140,1163.4345,130.3571,1163.3047,120.7143,1163.3491,111.0714,1163.486,101.4286,1163.148,91.7857,1163.8973,82.1429,1163.4976,72.5,1163.8047,72.6845,1163.8047,72.8052,1153.7921,72.8833,1143.7795,72.2512,1133.7668,73.2388,1123.7542,72.4376,1113.7416,72.6639,1103.729,71.7785,1093.7164,73.2239,1083.7038,73.0503,1073.6912,71.7546,1063.6785,72.0891,1053.6659,72.2089,1043.6533,72.3359,1033.6407,72.5291,1023.6281,71.7667,1013.6155,72.3618,1003.6029,72.6841,993.5903,72.9354,983.5776,73.2255,973.565,72.4046,963.5524,72.2444,953.5398,73.1712,943.5272,72.9942,933.5146,71.765,923.502,72.0385,913.4893,71.9375,903.4767,73.0903,893.4641,71.9698,883.4515,72.5611,873.4389,71.8517,863.4263,72.0613,853.4137,72.8681,843.401,72.7101,833.3884,72.6468,823.3758,71.9899,813.3632,71.9507,803.3506,72.0559,793.338,73.2242,783.3254,72.0016,773.3127,72.354,763.3001,72.8949,753.2875,71.9547,743.2749,72.0667,733.2623,72.5968,723.2497,72.2282,713.2371,71.84,703.2244,73.1571,693.2118,72.5,683.1992" style="stroke: #A80036; stroke-width: 1.5;"/><text fill="#000000" font-family="sans-serif" font-size="12" lengthAdjust="spacingAndGlyphs" textLength="44" x="118" y="699.8008">Content</text><path d="M73.5,707.332 L73.5,708.2676 L83.7308,707.0354 L93.9615,706.3469 L104.1923,706.8074 L114.4231,708.1266 L124.6538,707.833 L134.8846,707.3792 L145.1154,707.7632 L155.3462,708.0879 L165.5769,707.4249 L175.8077,707.8636 L186.0385,707.0915 L196.2692,708.0989 L206.5,707.332 " fill="#FEFECE" style="stroke: #A80036; stroke-width: 1.5;"/><text fill="#000000" font-family="sans-serif" font-size="11" lengthAdjust="spacingAndGlyphs" textLength="19" x="78.5" y="721.9668">+id</text><text fill="#000000" font-family="sans-serif" font-size="11" lengthAdjust="spacingAndGlyphs" textLength="38" x="78.5" y="734.9219">+name</text><text fill="#000000" font-family="sans-serif" font-size="11" lengthAdjust="spacingAndGlyphs" textLength="43" x="78.5" y="747.877">+plugin</text><text fill="#000000" font-family="sans-serif" font-size="11" lengthAdjust="spacingAndGlyphs" textLength="32" x="78.5" y="760.832">+type</text><text fill="#000000" font-family="sans-serif" font-size="11" lengthAdjust="spacingAndGlyphs" textLength="55" x="78.5" y="773.7871">+entity_id</text><text fill="#000000" font-family="sans-serif" font-size="11" lengthAdjust="spacingAndGlyphs" textLength="24" x="78.5" y="786.7422">+url</text><text fill="#000000" font-family="sans-serif" font-size="11" lengthAdjust="spacingAndGlyphs" textLength="44" x="78.5" y="799.6973">+site_id</text><text fill="#000000" font-family="sans-serif" font-size="11" lengthAdjust="spacingAndGlyphs" textLength="49" x="78.5" y="812.6523">+alias_id</text><text fill="#000000" font-family="sans-serif" font-size="11" lengthAdjust="spacingAndGlyphs" textLength="123" x="78.5" y="825.6074">+main_site_content_id</text><text fill="#000000" font-family="sans-serif" font-size="11" lengthAdjust="spacingAndGlyphs" textLength="60" x="78.5" y="838.5625">+parent_id</text><text fill="#000000" font-family="sans-serif" font-size="11" lengthAdjust="spacingAndGlyphs" textLength="20" x="78.5" y="851.5176">+lft</text><text fill="#000000" font-family="sans-serif" font-size="11" lengthAdjust="spacingAndGlyphs" textLength="32" x="78.5" y="864.4727">+rght</text><text fill="#000000" font-family="sans-serif" font-size="11" lengthAdjust="spacingAndGlyphs" textLength="33" x="78.5" y="877.4277">+level</text><text fill="#000000" font-family="sans-serif" font-size="11" lengthAdjust="spacingAndGlyphs" textLength="29" x="78.5" y="890.3828">+title</text><text fill="#000000" font-family="sans-serif" font-size="11" lengthAdjust="spacingAndGlyphs" textLength="70" x="78.5" y="903.3379">+description</text><text fill="#000000" font-family="sans-serif" font-size="11" lengthAdjust="spacingAndGlyphs" textLength="56" x="78.5" y="916.293">+eyecatch</text><text fill="#000000" font-family="sans-serif" font-size="11" lengthAdjust="spacingAndGlyphs" textLength="61" x="78.5" y="929.248">+author_id</text><text fill="#000000" font-family="sans-serif" font-size="11" lengthAdjust="spacingAndGlyphs" textLength="94" x="78.5" y="942.2031">+layout_template</text><text fill="#000000" font-family="sans-serif" font-size="11" lengthAdjust="spacingAndGlyphs" textLength="42" x="78.5" y="955.1582">+status</text><text fill="#000000" font-family="sans-serif" font-size="11" lengthAdjust="spacingAndGlyphs" textLength="85" x="78.5" y="968.1133">+publish_begin</text><text fill="#000000" font-family="sans-serif" font-size="11" lengthAdjust="spacingAndGlyphs" textLength="75" x="78.5" y="981.0684">+publish_end</text><text fill="#000000" font-family="sans-serif" font-size="11" lengthAdjust="spacingAndGlyphs" textLength="67" x="78.5" y="994.0234">+self_status</text><text fill="#000000" font-family="sans-serif" font-size="11" lengthAdjust="spacingAndGlyphs" textLength="110" x="78.5" y="1006.9785">+self_publish_begin</text><text fill="#000000" font-family="sans-serif" font-size="11" lengthAdjust="spacingAndGlyphs" textLength="100" x="78.5" y="1019.9336">+self_publish_end</text><text fill="#000000" font-family="sans-serif" font-size="11" lengthAdjust="spacingAndGlyphs" textLength="93" x="78.5" y="1032.8887">+exclude_search</text><text fill="#000000" font-family="sans-serif" font-size="11" lengthAdjust="spacingAndGlyphs" textLength="78" x="78.5" y="1045.8438">+created_date</text><text fill="#000000" font-family="sans-serif" font-size="11" lengthAdjust="spacingAndGlyphs" textLength="85" x="78.5" y="1058.7988">+modified_date</text><text fill="#000000" font-family="sans-serif" font-size="11" lengthAdjust="spacingAndGlyphs" textLength="57" x="78.5" y="1071.7539">+site_root</text><text fill="#000000" font-family="sans-serif" font-size="11" lengthAdjust="spacingAndGlyphs" textLength="77" x="78.5" y="1084.709">+deleted_date</text><text fill="#000000" font-family="sans-serif" font-size="11" lengthAdjust="spacingAndGlyphs" textLength="48" x="78.5" y="1097.6641">+deleted</text><text fill="#000000" font-family="sans-serif" font-size="11" lengthAdjust="spacingAndGlyphs" textLength="87" x="78.5" y="1110.6191">+exclude_menu</text><text fill="#000000" font-family="sans-serif" font-size="11" lengthAdjust="spacingAndGlyphs" textLength="63" x="78.5" y="1123.5742">+blank_link</text><text fill="#000000" font-family="sans-serif" font-size="11" lengthAdjust="spacingAndGlyphs" textLength="49" x="78.5" y="1136.5293">+created</text><text fill="#000000" font-family="sans-serif" font-size="11" lengthAdjust="spacingAndGlyphs" textLength="56" x="78.5" y="1149.4844">+modified</text><path d="M73.5,1155.8047 L73.5,1155.8493 L83.7308,1155.5518 L93.9615,1154.9458 L104.1923,1155.6584 L114.4231,1156.3635 L124.6538,1156.004 L134.8846,1156.2693 L145.1154,1155.5647 L155.3462,1155.2236 L165.5769,1155.7181 L175.8077,1155.8688 L186.0385,1155.4706 L196.2692,1155.8514 L206.5,1155.8047 " fill="#FEFECE" style="stroke: #A80036; stroke-width: 1.5;"/><!--class ContentServiceInterface--><polygon fill="#FEFECE" filter="url(#f471cys)" points="6,233.1992,6,232.8561,15.9091,232.5784,25.8182,232.9937,35.7273,232.5099,45.6364,232.8455,55.5455,233.4251,65.4545,232.7968,75.3636,233.6988,85.2727,233.3523,95.1818,232.5569,105.0909,232.8651,115,232.5405,124.9091,233.618,134.8182,233.3173,144.7273,233.3557,154.6364,233.0617,164.5455,232.7519,174.4545,232.6373,184.3636,233.3634,194.2727,233.1475,204.1818,233.1239,214.0909,233.8947,224,233.1992,223.8569,233.1992,224.2387,243.1972,224.5858,253.1951,223.9154,263.1931,223.7322,273.191,224.6814,283.189,223.4151,293.1869,224.2916,303.1848,223.8426,313.1828,223.2547,323.1807,223.2699,333.1787,224.5197,343.1766,224.0448,353.1746,224.3247,363.1725,223.8874,373.1705,224.4451,383.1684,224.6823,393.1664,223.815,403.1643,224.1432,413.1623,223.5726,423.1602,224.1046,433.1582,223.851,443.1561,223.5235,453.154,224.0278,463.152,224.5556,473.1499,224.2832,483.1479,223.3103,493.1458,224.6344,503.1438,223.7422,513.1417,223.5106,523.1397,224.0092,533.1376,223.8485,543.1356,223.8062,553.1335,224.2995,563.1315,224.4711,573.1294,223.893,583.1274,223.9769,593.1253,224.3388,603.1232,224.4741,613.1212,224,623.1191,224,623.6654,214.0909,622.9999,204.1818,623.1995,194.2727,622.854,184.3636,623.7905,174.4545,622.4371,164.5455,623.6087,154.6364,622.5295,144.7273,623.3323,134.8182,622.4129,124.9091,623.7885,115,623.7603,105.0909,623.6757,95.1818,622.8305,85.2727,623.5479,75.3636,623.6766,65.4545,622.4295,55.5455,622.5076,45.6364,623.3566,35.7273,623.5565,25.8182,622.8953,15.9091,622.5815,6,623.1191,6.6456,623.1191,6.366,613.1212,6.5684,603.1232,5.2846,593.1253,6.6513,583.1274,5.2861,573.1294,5.5745,563.1315,5.5885,553.1335,6.665,543.1356,6.2744,533.1376,6.1838,523.1397,5.5322,513.1417,6.6566,503.1438,5.7021,493.1458,5.466,483.1479,6.1834,473.1499,6.2688,463.152,5.6609,453.154,5.2538,443.1561,6.6115,433.1582,5.646,423.1602,6.6416,413.1623,6.3662,403.1643,6.4967,393.1664,6.4601,383.1684,5.958,373.1705,5.512,363.1725,6.05,353.1746,5.6089,343.1766,5.2939,333.1787,6.73,323.1807,5.5595,313.1828,5.8279,303.1848,6.5392,293.1869,5.5553,283.189,6.5456,273.191,5.9816,263.1931,5.7476,253.1951,5.4462,243.1972,6,233.1992" style="stroke: #A80036; stroke-width: 1.5;"/><text fill="#000000" font-family="sans-serif" font-size="12" lengthAdjust="spacingAndGlyphs" textLength="134" x="48" y="249.8008">ContentServiceInterface</text><path d="M7,257.332 L7,257.0799 L16.8182,256.7926 L26.6364,256.8191 L36.4545,257.167 L46.2727,258.1544 L56.0909,258.3275 L65.9091,257.7749 L75.7273,256.488 L85.5455,256.4072 L95.3636,257.6802 L105.1818,256.6669 L115,258.1859 L124.8182,257.891 L134.6364,257.6626 L144.4545,257.408 L154.2727,257.9641 L164.0909,256.9465 L173.9091,256.4843 L183.7273,257.6518 L193.5455,257.0289 L203.3636,256.6644 L213.1818,256.4275 L223,257.332 " fill="#FEFECE" style="stroke: #A80036; stroke-width: 1.5;"/><path d="M7,265.332 L7,264.9288 L16.8182,265.0764 L26.6364,265.2112 L36.4545,264.7111 L46.2727,264.9245 L56.0909,265.389 L65.9091,265.8319 L75.7273,265.9457 L85.5455,264.9359 L95.3636,265.2177 L105.1818,265.5835 L115,264.8085 L124.8182,265.1252 L134.6364,265.9506 L144.4545,265.2819 L154.2727,264.4756 L164.0909,264.9615 L173.9091,265.5693 L183.7273,264.7577 L193.5455,264.954 L203.3636,266.2004 L213.1818,264.5914 L223,265.332 " fill="#FEFECE" style="stroke: #A80036; stroke-width: 1.5;"/><text fill="#000000" font-family="sans-serif" font-size="11" lengthAdjust="spacingAndGlyphs" textLength="25" x="12" y="279.9668">get()</text><text fill="#000000" font-family="sans-serif" font-size="11" lengthAdjust="spacingAndGlyphs" textLength="55" x="12" y="292.9219">getIndex()</text><text fill="#000000" font-family="sans-serif" font-size="11" lengthAdjust="spacingAndGlyphs" textLength="121" x="12" y="305.877">getContentFolderList()</text><text fill="#000000" font-family="sans-serif" font-size="11" lengthAdjust="spacingAndGlyphs" textLength="201" x="12" y="318.832">createAdminIndexConditionsByTree()</text><text fill="#000000" font-family="sans-serif" font-size="11" lengthAdjust="spacingAndGlyphs" textLength="206" x="12" y="331.7871">createAdminIndexConditionsByTable()</text><text fill="#000000" font-family="sans-serif" font-size="11" lengthAdjust="spacingAndGlyphs" textLength="85" x="12" y="344.7422">isAllowPublish()</text><text fill="#000000" font-family="sans-serif" font-size="11" lengthAdjust="spacingAndGlyphs" textLength="63" x="12" y="357.6973">getUrlById()</text><text fill="#000000" font-family="sans-serif" font-size="11" lengthAdjust="spacingAndGlyphs" textLength="41" x="12" y="370.6523">getUrl()</text><text fill="#000000" font-family="sans-serif" font-size="11" lengthAdjust="spacingAndGlyphs" textLength="75" x="12" y="383.6074">isSiteRelated()</text><text fill="#000000" font-family="sans-serif" font-size="11" lengthAdjust="spacingAndGlyphs" textLength="65" x="12" y="396.5625">getPureUrl()</text><text fill="#000000" font-family="sans-serif" font-size="11" lengthAdjust="spacingAndGlyphs" textLength="141" x="12" y="409.5176">getCurrentRelatedSiteUrl()</text><text fill="#000000" font-family="sans-serif" font-size="11" lengthAdjust="spacingAndGlyphs" textLength="49" x="12" y="422.4727">getTree()</text><text fill="#000000" font-family="sans-serif" font-size="11" lengthAdjust="spacingAndGlyphs" textLength="59" x="12" y="435.4277">getParent()</text><text fill="#000000" font-family="sans-serif" font-size="11" lengthAdjust="spacingAndGlyphs" textLength="132" x="12" y="448.3828">getRelatedSiteContents()</text><text fill="#000000" font-family="sans-serif" font-size="11" lengthAdjust="spacingAndGlyphs" textLength="111" x="12" y="461.3379">getRelatedSiteLinks()</text><text fill="#000000" font-family="sans-serif" font-size="11" lengthAdjust="spacingAndGlyphs" textLength="121" x="12" y="474.293">getContentFolderList()</text><text fill="#000000" font-family="sans-serif" font-size="11" lengthAdjust="spacingAndGlyphs" textLength="69" x="12" y="487.248">getSiteRoot()</text><text fill="#000000" font-family="sans-serif" font-size="11" lengthAdjust="spacingAndGlyphs" textLength="79" x="12" y="500.2031">getSiteRootId()</text><text fill="#000000" font-family="sans-serif" font-size="11" lengthAdjust="spacingAndGlyphs" textLength="120" x="12" y="513.1582">getContentByEntityId()</text><text fill="#000000" font-family="sans-serif" font-size="11" lengthAdjust="spacingAndGlyphs" textLength="96" x="12" y="526.1133">getContentByUrl()</text><text fill="#000000" font-family="sans-serif" font-size="11" lengthAdjust="spacingAndGlyphs" textLength="74" x="12" y="539.0684">_getContent()</text><text fill="#000000" font-family="sans-serif" font-size="11" lengthAdjust="spacingAndGlyphs" textLength="61" x="12" y="552.0234">isParentId()</text><text fill="#000000" font-family="sans-serif" font-size="11" lengthAdjust="spacingAndGlyphs" textLength="51" x="12" y="564.9785">isFolder()</text><text fill="#000000" font-family="sans-serif" font-size="11" lengthAdjust="spacingAndGlyphs" textLength="69" x="12" y="577.9336">getUserList()</text><text fill="#000000" font-family="sans-serif" font-size="11" lengthAdjust="spacingAndGlyphs" textLength="76" x="12" y="590.8887">getListTypes()</text><text fill="#000000" font-family="sans-serif" font-size="11" lengthAdjust="spacingAndGlyphs" textLength="50" x="12" y="603.8438">getSites()</text><text fill="#000000" font-family="sans-serif" font-size="11" lengthAdjust="spacingAndGlyphs" textLength="121" x="12" y="616.7988">getContentFolderList()</text><path d="M197.3,101.1992 L197.3,101.1956 L203.288,101.3343 L209.276,101.0546 L215.264,101.4473 L221.252,101.1975 L227.24,101.1992 " fill="none" style="stroke: #000000; stroke-width: 1.0;"/><polygon fill="#000000" points="192.08,101.1992,192.0653,101.1661,193.8757,101.9895,195.5793,102.5726,197.4364,103.5012,199.2162,104.2556,201.08,105.1992,201.1772,105.2965,200.3599,104.4791,199.648,103.7673,198.6383,102.7576,197.7911,101.9103,197.08,101.1992,196.9642,101.0834,197.7715,100.2907,198.7292,99.6484,199.5154,98.8346,200.1991,97.9183,201.08,97.1992,201.1181,97.2849,199.2231,97.8712,197.3981,98.6149,195.6729,99.5833,193.8645,100.3644,192.08,101.1992" style="stroke: #000000; stroke-width: 1.0;"/><path d="M309,147.3892 L308.322,147.3892 L309.609,157.3596 L309.9009,167.33 L308.0914,177.3004 L309.9034,187.2708 L308.0081,197.2412 L308.3465,207.2116 L308.4776,217.182 L309.002,227.1524 L309.9859,237.1228 L309.5547,247.0932 L308.553,257.0636 L309.7276,267.034 L308.8082,277.0044 L309.94,286.9748 L309.739,296.9452 L309.5659,306.9156 L309.3512,316.886 L308.8164,326.8564 L308.74,336.8268 L309.0508,346.7972 L308.8275,356.7676 L308.3504,366.738 L308.8191,376.7084 L309.5245,386.6788 L309,396.6492 " fill="none" style="stroke: #000000; stroke-width: 1.0;"/><polygon fill="#000000" points="309,401.6692,308.8121,401.5857,309.6786,399.8152,310.4491,398.0022,311.3325,396.2392,312.3346,394.529,313,392.6692,313.1432,392.8124,312.2702,393.5394,311.5225,394.3918,310.6672,395.1364,309.769,395.8383,309,396.6692,309.1735,396.8427,308.14,395.8092,307.3004,394.9696,306.565,394.2342,305.962,393.6312,305,392.6692,305.1651,392.7426,305.697,394.4234,306.6016,396.2699,307.5834,398.1507,308.0878,399.8194,309,401.6692" style="stroke: #000000; stroke-width: 1.0;"/><path d="M309.54,396.1092 L309.3138,396.0943 L309.7307,394.0404 L309.9424,391.973 L309.8101,389.8828 L310.0314,387.8161 L310.2243,385.7474 L309.9813,385.7256 L310.467,383.4797 L310.6912,381.2104 L310.8322,378.9337 L311.1073,376.669 L311.2416,374.3916 L310.9893,374.3624 L311.5002,371.9518 L311.9216,369.5309 L312.3205,367.1074 L312.1919,364.6228 L312.6526,362.2064 L312.8572,362.2361 L313.1103,359.6487 L313.7259,357.1139 L313.5236,354.4604 L314.4465,351.9702 L314.5181,349.3564 L314.7023,349.3893 L314.7232,346.638 L315.3986,344.0035 L316.1527,341.383 L316.5586,338.7004 L316.8991,336.0061 L316.9771,336.023 L317.5127,333.2737 L317.8315,330.4776 L318.8254,327.8274 L319.5286,325.1143 L319.8563,322.3201 L319.5528,322.2414 L320.7591,319.5964 L321.1539,316.7409 L322.0435,314.0138 L322.5321,311.1826 L323.4504,308.463 L323.4598,308.4659 L324.3216,305.6941 L325.4459,303.0037 L326.0655,300.1571 L326.9432,297.3903 L327.7425,294.5992 L327.717,294.5898 L328.8236,291.8842 L329.5099,289.0237 L330.9438,286.4387 L332.036,283.7278 L332.7932,280.8934 L332.9105,280.9449 L334.2533,278.3423 L335.1958,275.564 L336.2314,272.8267 L337.3044,270.1057 L338.6634,267.5102 L338.749,267.555 L340.2995,265.0807 L341.3521,262.3457 L342.5001,259.6606 L344.0973,257.2108 L345.414,254.614 L345.3652,254.5834 L346.9619,252.1712 L348.5086,249.7276 L350.1465,247.3412 L351.6982,244.9006 L353.1056,242.3695 L353.3414,242.5489 L354.7089,239.9808 L356.5765,237.7932 L358.1387,235.3733 L360.0282,233.2023 L361.7992,230.9412 L361.837,230.9765 L363.5391,228.6543 L365.6655,226.7283 L367.5459,224.5727 L369.7922,222.7587 L371.5556,220.4937 L371.747,220.7175 L373.9393,218.8762 L375.92,216.7873 L377.9753,214.7858 L380.2454,213.0353 L382.4356,211.1915 L382.4115,211.1551 L384.7794,209.4888 L387.1814,207.8739 L389.6991,206.4337 L391.9321,204.5637 L394.5,203.1992 L394.3647,202.9541 L396.8309,201.9558 L399.0665,200.5397 L401.3584,199.2257 L403.8549,198.2825 L406.064,196.8184 L406.1841,197.058 L408.302,195.7727 L410.4929,194.6332 L412.8338,193.7931 L415.0199,192.6441 L417.1025,191.2883 L417.1717,191.4449 L419.2651,190.4543 L421.2501,189.2184 L423.4476,188.4634 L425.6507,187.7213 L427.6904,186.609 L427.6962,186.6245 L429.73,185.8357 L431.8324,185.2298 L433.8546,184.4101 L435.9029,183.6598 L437.9028,182.7805 L437.8386,182.5667 L439.8933,182.2118 L441.7726,181.2728 L443.9005,181.1616 L445.9178,180.6822 L447.8149,179.8027 L447.7452,179.4854 L449.7902,179.5499 L451.7101,179.0453 L453.6294,178.5375 L455.6005,178.2655 L457.5018,177.6758 L457.4833,177.4693 L461.2947,177.2602 L465.1083,177.0759 L468.8979,176.6238 L472.6729,176.0076 L476.5,175.9742 L476.5197,176.1937 L480.2848,176.1487 L484.1126,176.8033 L487.8702,176.6746 L491.7009,177.3617 L495.4982,177.6758 L495.5546,177.9326 L497.4461,178.1491 L499.4325,178.7976 L501.3066,178.9347 L503.2986,179.6092 L505.1851,179.8027 L505.1365,179.6409 L507.1493,180.3375 L509.0955,180.8126 L511.0937,181.4609 L513.1353,182.2534 L515.0972,182.7805 L514.9914,182.4982 L517.2409,183.8163 L519.2946,184.6117 L521.1501,184.8787 L523.3283,186.0064 L525.3096,186.609 L525.2847,186.5525 L527.4182,187.5245 L529.4528,188.2725 L531.7226,189.5529 L533.786,190.3661 L535.8975,191.2883 L535.7681,191.0299 L538.0265,192.2372 L540.3477,193.5698 L542.4936,194.5525 L544.8109,195.8772 L546.936,196.8184 L546.8059,196.5826 L549.1012,197.8271 L551.4673,199.1998 L553.7641,200.447 L556.2024,201.9505 L558.5,203.1992 L558.3251,202.9234 L560.6522,204.6996 L562.4419,205.6284 L564.6961,207.2897 L566.5523,208.3233 L568.5399,209.5642 L568.3997,209.3793 L570.5487,211.1566 L572.4006,212.5424 L574.3117,214.006 L575.9481,215.1077 L577.972,216.7202 L577.8904,216.6285 L579.5563,218.0871 L581.6992,220.0817 L583.4354,221.6193 L585.1683,223.1534 L586.8147,224.59 L586.9351,224.7072 L588.5324,226.3531 L590.1069,227.9767 L591.8371,229.7519 L593.5569,231.5169 L595.0863,233.0967 L595.2542,233.2397 L596.5548,234.846 L597.9389,236.5233 L599.4783,238.3328 L601.3368,240.414 L602.8052,242.1631 L602.8903,242.2272 L604.0946,243.9619 L605.8207,246.0892 L606.9196,247.7447 L608.6593,249.8823 L609.9898,251.712 L609.8055,251.5885 L611.1876,253.6118 L612.7008,255.7229 L613.8982,257.6225 L615.1479,259.557 L616.6587,261.6664 L616.8059,261.7548 L617.6694,263.5888 L619.2739,265.8676 L620.1842,267.7297 L621.3381,269.7381 L622.83,271.9492 " fill="none" style="stroke: #000000; stroke-width: 1.0;"/><polygon fill="#000000" points="309.28,401.3292,309.1016,401.2393,309.9832,399.4778,311.2203,397.8955,311.7475,395.9554,312.6979,394.2286,313.7131,392.5345,313.8648,392.7017,312.8773,393.297,312.0678,394.0885,311.3349,394.9644,310.5169,395.7466,309.5233,396.3351,309.6054,396.4097,308.7701,395.5035,308.0502,394.702,307.2609,393.8376,306.438,392.9426,305.7226,392.1453,305.7138,392.1418,306.314,393.9355,307.302,395.8795,307.7259,397.6048,308.7138,399.5487,309.28,401.3292" style="stroke: #000000; stroke-width: 1.0;"/><path d="M363.82,428.1992 L363.82,428.3108 L369.836,428.2829 L375.852,427.9777 L381.868,428.3683 L387.884,428.0959 L393.9,428.1992 " fill="none" style="stroke: #000000; stroke-width: 1.0;"/><polygon fill="#000000" points="358.58,428.1992,358.5731,428.1838,360.453,429.1634,362.2453,429.9462,364.028,430.7072,365.8307,431.5133,367.58,432.1992,367.4975,432.1167,366.8489,431.4681,366.0926,430.7119,365.1795,429.7988,364.2966,428.9159,363.58,428.1992,363.6869,428.3061,364.3416,427.3608,365.0327,426.4519,365.959,425.7782,366.9172,425.1364,367.58,424.1992,367.6674,424.3959,365.7872,425.0155,363.9982,425.8403,362.1415,426.5127,360.4322,427.5167,358.58,428.1992" style="stroke: #000000; stroke-width: 1.0;"/><path d="M244.17,428.1992 L244.17,428.1302 L247.19,427.8742 L250.21,428.3035 L253.23,428.1378 L256.25,427.9631 L259.27,428.1992 " fill="none" style="stroke: #000000; stroke-width: 1.0; stroke-dasharray: 1.0,3.0;"/><polygon fill="none" points="244.13,435.1992,244.0542,434.9826,240.1107,433.7499,236.0938,432.3073,232.0774,430.8659,228.0555,429.4092,224.12,428.1992,224.1726,428.3496,228.0603,426.6286,232.1044,425.3547,236.0482,423.794,240.0933,422.523,244.12,421.1992,244.2509,421.1993,243.9249,423.9991,244.2915,426.7993,244.0888,429.5992,244.335,432.3994,244.13,435.1992" style="stroke: #000000; stroke-width: 1.0;"/><path d="M309,455.0392 L308.6644,455.0392 L309.0958,464.9685 L309.983,474.8979 L309.3115,484.8272 L309.5415,494.7565 L308.6392,504.6858 L309.7956,514.6151 L308.193,524.5444 L308.6246,534.4738 L308.1779,544.4031 L309.0101,554.3324 L309.5318,564.2617 L309.0488,574.191 L309.3508,584.1204 L309.4581,594.0497 L309.701,603.979 L308.7659,613.9083 L308.3553,623.8376 L309.9767,633.7669 L308.9649,643.6963 L308.5843,653.6256 L308.9554,663.5549 L309.3545,673.4842 L308.6479,683.4135 L309.9387,693.3429 L309.6928,703.2722 L308.7913,713.2015 L309.6847,723.1308 L308.3328,733.0601 L308.9374,742.9894 L308.2144,752.9188 L309.8322,762.8481 L308.8715,772.7774 L308.2475,782.7067 L309.3633,792.636 L309.5021,802.5654 L308.4615,812.4947 L308.5337,822.424 L309.8117,832.3533 L309.0367,842.2826 L309.1082,852.2119 L308.7252,862.1413 L308.0358,872.0706 L309.3043,881.9999 L309,891.9292 " fill="none" style="stroke: #000000; stroke-width: 1.0;"/><polygon fill="#000000" points="309,897.1192,308.8342,897.0455,309.809,895.3232,310.4339,893.4454,311.3385,891.6919,312.3126,889.9692,313,888.1192,312.9176,888.0368,312.2404,888.9596,311.4553,889.7745,310.6584,890.5776,309.8701,891.3894,309,892.1192,308.9471,892.0663,308.3356,891.4549,307.4729,890.5921,306.4912,889.6104,305.7783,888.8975,305,888.1192,305.1796,888.199,305.6832,889.8673,306.5929,891.7161,307.2741,893.4633,308.2784,895.3541,309,897.1192" style="stroke: #000000; stroke-width: 1.0;"/><path d="M212.84,923.6992 L212.84,923.8693 L218.772,923.3943 L224.704,923.9492 L230.636,923.761 L236.568,923.4794 L242.5,923.6992 " fill="none" style="stroke: #000000; stroke-width: 1.0;"/><polygon fill="#000000" points="207.67,923.6992,207.6592,923.6748,209.5596,924.7008,211.2704,925.3002,212.9762,925.8881,214.939,927.0545,216.67,927.6992,216.5353,927.5646,215.7521,926.7813,215.2449,926.2741,214.2551,925.2843,213.4631,924.4923,212.67,923.6992,212.84,923.8693,213.4401,922.8693,214.372,922.2012,215.1924,921.4216,215.7962,920.4254,216.67,919.6992,216.6334,919.6169,214.7788,920.2941,213.119,921.4094,211.219,921.9844,209.5016,922.9703,207.67,923.6992" style="stroke: #000000; stroke-width: 1.0;"/></g></svg>