<?xml version="1.0" encoding="UTF-8" standalone="no"?><svg xmlns="http://www.w3.org/2000/svg" xmlns:xlink="http://www.w3.org/1999/xlink" contentScriptType="application/ecmascript" contentStyleType="text/css" height="672px" preserveAspectRatio="none" style="width:815px;height:672px;" version="1.1" viewBox="0 0 815 672" width="815px" zoomAndPan="magnify"><defs><filter height="300%" id="f0qhwdk" width="300%" x="-1" y="-1"><feGaussianBlur result="blurOut" stdDeviation="2.0"/><feColorMatrix in="blurOut" result="blurOut2" type="matrix" values="0 0 0 0 0 0 0 0 0 0 0 0 0 0 0 0 0 0 .4 0"/><feOffset dx="4.0" dy="4.0" in="blurOut2" result="blurOut3"/><feBlend in="SourceGraphic" in2="blurOut3" mode="normal"/></filter></defs><g><text fill="#000000" font-family="sans-serif" font-size="18" lengthAdjust="spacingAndGlyphs" textLength="198" x="313" y="16.708">コンテンツフォルダ管理</text><!--class BcContentsComponent--><polygon fill="#FEFECE" filter="url(#f0qhwdk)" points="199.5,28.9531,199.5,29.2035,209.7353,29.2128,219.9706,28.3985,230.2059,29.5351,240.4412,28.8226,250.6765,29.5023,260.9118,29.6209,271.1471,29.5961,281.3824,28.7661,291.6176,29.0103,301.8529,28.5404,312.0882,29.2406,322.3235,29.7019,332.5588,29.3037,342.7941,29.0361,353.0294,29.152,363.2647,29.2909,373.5,28.9531,372.7782,28.9531,373.572,39.125,374.219,49.2969,373.7767,59.4688,373.6437,69.6406,372.9549,79.8125,373.4811,89.9844,373.0485,100.1563,372.7593,110.3281,373.9605,120.5,373.7625,130.6719,373.1527,140.8438,373.8913,151.0156,373.746,161.1875,373.5,171.3594,373.5,171.2935,363.2647,171.1329,353.0294,171.7517,342.7941,171.5034,332.5588,170.9392,322.3235,170.7168,312.0882,171.9088,301.8529,171.9263,291.6176,170.6219,281.3824,170.7755,271.1471,171.2304,260.9118,171.1286,250.6765,171.3765,240.4412,170.8977,230.2059,172.0342,219.9706,171.8031,209.7353,170.8141,199.5,171.3594,199.095,171.3594,199.9385,161.1875,199.4749,151.0156,199.3774,140.8438,199.9474,130.6719,199.4213,120.5,199.6036,110.3281,199.5122,100.1563,199.6232,89.9844,199.0689,79.8125,198.7605,69.6406,199.3926,59.4688,198.9082,49.2969,199.6698,39.125,199.5,28.9531" style="stroke: #A80036; stroke-width: 1.5;"/><text fill="#000000" font-family="sans-serif" font-size="12" lengthAdjust="spacingAndGlyphs" textLength="144" x="214.5" y="45.0918">BcContentsComponent</text><path d="M200.5,52.9219 L200.5,53.4735 L210.6176,52.2983 L220.7353,53.7402 L230.8529,53.106 L240.9706,52.8353 L251.0882,53.4044 L261.2059,52.8094 L271.3235,53.137 L281.4412,53.8993 L291.5588,52.1516 L301.6765,52.431 L311.7941,51.9441 L321.9118,53.8793 L332.0294,53.6427 L342.1471,53.0533 L352.2647,52.4228 L362.3824,52.3379 L372.5,52.9219 " fill="#FEFECE" style="stroke: #A80036; stroke-width: 1.5;"/><path d="M200.5,60.9219 L200.5,60.4453 L210.6176,60.162 L220.7353,61.1091 L230.8529,61.8426 L240.9706,60.9152 L251.0882,60.1172 L261.2059,60.2912 L271.3235,60.9212 L281.4412,60.264 L291.5588,60.1711 L301.6765,60.5766 L311.7941,60.811 L321.9118,60.6011 L332.0294,61.4961 L342.1471,61.8138 L352.2647,61.7788 L362.3824,60.5039 L372.5,60.9219 " fill="#FEFECE" style="stroke: #A80036; stroke-width: 1.5;"/><text fill="#000000" font-family="sans-serif" font-size="11" lengthAdjust="spacingAndGlyphs" textLength="84" x="205.5" y="75.1323">+setupAdmin()</text><text fill="#000000" font-family="sans-serif" font-size="11" lengthAdjust="spacingAndGlyphs" textLength="78" x="205.5" y="87.937">+setupFront()</text><text fill="#000000" font-family="sans-serif" font-size="11" lengthAdjust="spacingAndGlyphs" textLength="85" x="205.5" y="100.7417">+settingForm()</text><text fill="#000000" font-family="sans-serif" font-size="11" lengthAdjust="spacingAndGlyphs" textLength="162" x="205.5" y="113.5464">+getParentLayoutTemplate()</text><text fill="#000000" font-family="sans-serif" font-size="11" lengthAdjust="spacingAndGlyphs" textLength="69" x="205.5" y="126.3511">+getTypes()</text><text fill="#000000" font-family="sans-serif" font-size="11" lengthAdjust="spacingAndGlyphs" textLength="79" x="205.5" y="139.1558">+getContent()</text><text fill="#000000" font-family="sans-serif" font-size="11" lengthAdjust="spacingAndGlyphs" textLength="80" x="205.5" y="151.9604">+getCrumbs()</text><text fill="#000000" font-family="sans-serif" font-size="11" lengthAdjust="spacingAndGlyphs" textLength="94" x="205.5" y="164.7651">+beforeRender()</text><!--class Admin\ContentFoldersController--><polygon fill="#FEFECE" filter="url(#f0qhwdk)" points="409,41.4531,409,41.7395,418.7619,40.9967,428.5238,41.1398,438.2857,40.7127,448.0476,42.1257,457.8095,40.9823,467.5714,41.6411,477.3333,41.1541,487.0952,40.7599,496.8571,41.8141,506.619,41.9003,516.381,41.0424,526.1429,41.0908,535.9048,40.7697,545.6667,41.573,555.4286,41.2371,565.1905,41.4614,574.9524,42.0976,584.7143,41.0782,594.4762,40.8071,604.2381,41.9117,614,41.4531,613.872,41.4531,613.9955,51.1862,614.662,60.9193,614.7368,70.6523,614.67,80.3854,614.158,90.1185,614.4181,99.8516,613.3167,109.5846,614.1545,119.3177,614.461,129.0508,614.3889,138.7839,613.2833,148.5169,614,158.25,614,157.917,604.2381,157.9354,594.4762,158.271,584.7143,157.5843,574.9524,158.4338,565.1905,158.509,555.4286,158.7627,545.6667,158.6163,535.9048,157.823,526.1429,158.719,516.381,157.5964,506.619,157.9068,496.8571,157.6827,487.0952,158.3616,477.3333,158.7277,467.5714,158.7777,457.8095,158.4685,448.0476,158.4911,438.2857,158.0117,428.5238,158.3289,418.7619,158.5384,409,158.25,409.4896,158.25,408.2846,148.5169,408.6078,138.7839,409.3756,129.0508,409.3026,119.3177,408.5622,109.5846,408.6915,99.8516,408.3264,90.1185,408.4017,80.3854,409.5595,70.6523,409.5913,60.9193,409.7255,51.1862,409,41.4531" style="stroke: #A80036; stroke-width: 1.5;"/><text fill="#000000" font-family="sans-serif" font-size="12" lengthAdjust="spacingAndGlyphs" textLength="199" x="412" y="57.5918">Admin\ContentFoldersController</text><path d="M410,65.4219 L410,64.5136 L420.15,66.3343 L430.3,66.2959 L440.45,65.1125 L450.6,66.0407 L460.75,65.8336 L470.9,65.0743 L481.05,65.3254 L491.2,64.6003 L501.35,65.3901 L511.5,64.5255 L521.65,65.5719 L531.8,66.2681 L541.95,64.4327 L552.1,65.4881 L562.25,65.5511 L572.4,64.8253 L582.55,66.4047 L592.7,66.2165 L602.85,66.1777 L613,65.4219 " fill="#FEFECE" style="stroke: #A80036; stroke-width: 1.5;"/><text fill="#000000" font-family="sans-serif" font-size="11" lengthAdjust="spacingAndGlyphs" textLength="154" x="415" y="79.6323">+AuthenticationComponent</text><text fill="#000000" font-family="sans-serif" font-size="11" lengthAdjust="spacingAndGlyphs" textLength="139" x="415" y="92.437">+BcMessageComponent</text><text fill="#000000" font-family="sans-serif" font-size="11" lengthAdjust="spacingAndGlyphs" textLength="139" x="415" y="105.2417">+BcContentsComponent</text><path d="M410,111.8359 L410,111.9993 L420.15,112.2393 L430.3,111.4489 L440.45,111.9956 L450.6,111.3835 L460.75,112.3234 L470.9,111.0346 L481.05,111.1867 L491.2,111.9777 L501.35,112.7922 L511.5,111.6159 L521.65,111.6584 L531.8,111.0118 L541.95,111.2717 L552.1,112.5508 L562.25,111.684 L572.4,111.8659 L582.55,112.3752 L592.7,112.3786 L602.85,112.4809 L613,111.8359 " fill="#FEFECE" style="stroke: #A80036; stroke-width: 1.5;"/><text fill="#000000" font-family="sans-serif" font-size="11" lengthAdjust="spacingAndGlyphs" textLength="38" x="415" y="126.0464">+edit()</text><text fill="#000000" font-family="sans-serif" font-size="11" lengthAdjust="spacingAndGlyphs" textLength="52" x="415" y="138.8511">+delete()</text><text fill="#000000" font-family="sans-serif" font-size="11" lengthAdjust="spacingAndGlyphs" textLength="140" x="415" y="151.6558">※ add() は、APIを利用する</text><!--class BcAdminContentFolderHelper--><polygon fill="#FEFECE" filter="url(#f0qhwdk)" points="617,237.4531,617,237.0459,626.9474,237.7322,636.8947,237.9482,646.8421,237.4069,656.7895,237.26,666.7368,238.0304,676.6842,236.9072,686.6316,238.0183,696.5789,238.197,706.5263,236.7746,716.4737,237.6043,726.4211,237.0725,736.3684,237.5537,746.3158,237.3589,756.2632,237.092,766.2105,237.0995,776.1579,237.5123,786.1053,237.4033,796.0526,237.2696,806,237.4531,806.4896,237.4531,806.5541,247.251,805.2748,257.0488,806.5449,266.8467,806.5667,276.6445,805.5098,286.4424,805.4379,296.2402,805.7422,306.0381,806,315.8359,806,315.9155,796.0526,316.3256,786.1053,316.2662,776.1579,315.4134,766.2105,316.2229,756.2632,315.9722,746.3158,315.3075,736.3684,316.14,726.4211,315.4812,716.4737,315.6435,706.5263,315.7496,696.5789,315.8564,686.6316,315.5052,676.6842,315.7511,666.7368,315.8504,656.7895,316.0579,646.8421,315.6026,636.8947,316.4795,626.9474,316.1458,617,315.8359,617.4151,315.8359,616.5478,306.0381,616.993,296.2402,616.9781,286.4424,616.7949,276.6445,616.4223,266.8467,616.4158,257.0488,617.4592,247.251,617,237.4531" style="stroke: #A80036; stroke-width: 1.5;"/><text fill="#000000" font-family="sans-serif" font-size="12" lengthAdjust="spacingAndGlyphs" textLength="183" x="620" y="253.5918">BcAdminContentFolderHelper</text><path d="M618,261.4219 L618,262.1562 L627.8421,262.2886 L637.6842,261.0681 L647.5263,262.3124 L657.3684,260.4249 L667.2105,261.9907 L677.0526,262.1123 L686.8947,260.6339 L696.7368,262.0685 L706.5789,260.8201 L716.4211,260.9653 L726.2632,261.5426 L736.1053,261.3586 L745.9474,262.3854 L755.7895,261.4805 L765.6316,262.0944 L775.4737,261.5992 L785.3158,262.1557 L795.1579,260.69 L805,261.4219 " fill="#FEFECE" style="stroke: #A80036; stroke-width: 1.5;"/><path d="M618,269.4219 L618,269.8691 L627.8421,268.4627 L637.6842,269.6232 L647.5263,269.4982 L657.3684,269.6154 L667.2105,270.2128 L677.0526,269.7617 L686.8947,269.9564 L696.7368,269.9133 L706.5789,269.0533 L716.4211,269.3379 L726.2632,268.7996 L736.1053,268.5652 L745.9474,270.0874 L755.7895,268.6738 L765.6316,269.6456 L775.4737,269.6905 L785.3158,269.0596 L795.1579,268.4456 L805,269.4219 " fill="#FEFECE" style="stroke: #A80036; stroke-width: 1.5;"/><text fill="#000000" font-family="sans-serif" font-size="11" lengthAdjust="spacingAndGlyphs" textLength="143" x="623" y="283.6323">+getFolderTemplateList()</text><text fill="#000000" font-family="sans-serif" font-size="11" lengthAdjust="spacingAndGlyphs" textLength="136" x="623" y="296.437">+getPageTemplateList()</text><text fill="#000000" font-family="sans-serif" font-size="11" lengthAdjust="spacingAndGlyphs" textLength="98" x="623" y="309.2417">+getPublishLink()</text><!--class ContentFolderService--><polygon fill="#FEFECE" filter="url(#f0qhwdk)" points="441.5,249.9531,441.5,250.6938,451.5,249.4103,461.5,249.7676,471.5,250.4016,481.5,250.4443,491.5,249.9766,501.5,249.5219,511.5,249.4036,521.5,250.3961,531.5,249.6567,541.5,250.5647,551.5,250.3572,561.5,249.9694,571.5,249.9623,581.5,249.9531,581.0779,249.9531,581.7735,260.5078,580.9312,271.0625,580.971,281.6172,581.5003,292.1719,581.5,302.7266,581.5,303.3798,571.5,302.2928,561.5,302.8674,551.5,303.4469,541.5,302.5398,531.5,303.2492,521.5,302.3132,511.5,302.7234,501.5,302.7504,491.5,303.0335,481.5,303.233,471.5,303.3387,461.5,302.2823,451.5,302.0109,441.5,302.7266,441.6118,302.7266,441.7504,292.1719,442.0629,281.6172,441.876,271.0625,442.163,260.5078,441.5,249.9531" style="stroke: #A80036; stroke-width: 1.5;"/><text fill="#000000" font-family="sans-serif" font-size="12" lengthAdjust="spacingAndGlyphs" textLength="134" x="444.5" y="266.0918">ContentFolderService</text><path d="M442.5,273.9219 L442.5,274.207 L452.3571,273.6924 L462.2143,273.7452 L472.0714,274.5421 L481.9286,274.8111 L491.7857,274.0086 L501.6429,273.488 L511.5,272.958 L521.3571,273.9912 L531.2143,274.1313 L541.0714,273.2041 L550.9286,273.8084 L560.7857,274.0513 L570.6429,273.02 L580.5,273.9219 " fill="#FEFECE" style="stroke: #A80036; stroke-width: 1.5;"/><text fill="#000000" font-family="sans-serif" font-size="11" lengthAdjust="spacingAndGlyphs" textLength="126" x="447.5" y="288.1323">+ContentFoldersTable</text><path d="M442.5,294.7266 L442.5,294.2506 L452.3571,293.9012 L462.2143,295.3216 L472.0714,293.7968 L481.9286,294.7318 L491.7857,295.5123 L501.6429,293.8984 L511.5,295.6076 L521.3571,294.0173 L531.2143,295.0022 L541.0714,295.1886 L550.9286,294.5002 L560.7857,295.2628 L570.6429,294.4359 L580.5,294.7266 " fill="#FEFECE" style="stroke: #A80036; stroke-width: 1.5;"/><!--class ContentFolderServiceInterface--><polygon fill="#FEFECE" filter="url(#f0qhwdk)" points="210.5,230.9531,210.5,231.1048,220.3,230.3716,230.1,231.2468,239.9,230.6399,249.7,230.4619,259.5,231.6736,269.3,231.1112,279.1,230.9038,288.9,230.4347,298.7,230.6694,308.5,231.0867,318.3,230.7863,328.1,230.3151,337.9,231.0869,347.7,230.8523,357.5,230.8898,367.3,230.4182,377.1,230.8608,386.9,230.2598,396.7,230.2877,406.5,230.9531,407.0456,230.9531,406.5737,241.0851,406.9548,251.217,406.0543,261.349,406.1014,271.4809,405.7934,281.6128,406.3429,291.7448,405.8317,301.8767,407.2216,312.0087,406.5,322.1406,406.5,321.9594,396.7,322.3757,386.9,321.9663,377.1,321.4909,367.3,321.4106,357.5,322.073,347.7,322.103,337.9,322.5281,328.1,322.7568,318.3,321.4399,308.5,322.403,298.7,322.5557,288.9,322.3643,279.1,322.7552,269.3,321.5258,259.5,322.187,249.7,322.398,239.9,322.262,230.1,322.3584,220.3,321.5589,210.5,322.1406,210.0991,322.1406,210.03,312.0087,211.1234,301.8767,210.711,291.7448,209.7795,281.6128,211.1895,271.4809,210.9615,261.349,210.7602,251.217,211.1999,241.0851,210.5,230.9531" style="stroke: #A80036; stroke-width: 1.5;"/><text fill="#000000" font-family="sans-serif" font-size="12" lengthAdjust="spacingAndGlyphs" textLength="190" x="213.5" y="247.0918">ContentFolderServiceInterface</text><path d="M211.5,254.9219 L211.5,255.1629 L221.7105,254.5072 L231.9211,255.3825 L242.1316,254.47 L252.3421,255.851 L262.5526,253.9231 L272.7632,255.0237 L282.9737,254.1264 L293.1842,255.2882 L303.3947,255.0242 L313.6053,254.8866 L323.8158,255.5978 L334.0263,255.8701 L344.2368,253.9896 L354.4474,254.7016 L364.6579,254.3829 L374.8684,255.3844 L385.0789,254.0424 L395.2895,255.3316 L405.5,254.9219 " fill="#FEFECE" style="stroke: #A80036; stroke-width: 1.5;"/><path d="M211.5,262.9219 L211.5,262.0434 L221.7105,262.0297 L231.9211,262.4887 L242.1316,263.2418 L252.3421,262.6001 L262.5526,262.9003 L272.7632,262.3731 L282.9737,262.7527 L293.1842,262.5915 L303.3947,263.5395 L313.6053,263.2593 L323.8158,263.2329 L334.0263,261.9418 L344.2368,262.3832 L354.4474,263.4062 L364.6579,262.5766 L374.8684,263.2678 L385.0789,263.5678 L395.2895,262.313 L405.5,262.9219 " fill="#FEFECE" style="stroke: #A80036; stroke-width: 1.5;"/><text fill="#000000" font-family="sans-serif" font-size="11" lengthAdjust="spacingAndGlyphs" textLength="102" x="216.5" y="277.1323">+isOverPostSize()</text><text fill="#000000" font-family="sans-serif" font-size="11" lengthAdjust="spacingAndGlyphs" textLength="143" x="216.5" y="289.937">+getFolderTemplateList()</text><text fill="#000000" font-family="sans-serif" font-size="11" lengthAdjust="spacingAndGlyphs" textLength="136" x="216.5" y="302.7417">+getPageTemplateList()</text><text fill="#000000" font-family="sans-serif" font-size="11" lengthAdjust="spacingAndGlyphs" textLength="98" x="216.5" y="315.5464">+getPublishLink()</text><!--class ContentFoldersTable--><polygon fill="#FEFECE" filter="url(#f0qhwdk)" points="434,388.4531,434,388.46,443.6875,389.0178,453.375,388.2646,463.0625,387.9445,472.75,389.0367,482.4375,388.8482,492.125,388.1192,501.8125,389.2012,511.5,388.0246,521.1875,388.0209,530.875,389.1406,540.5625,388.57,550.25,388.8718,559.9375,388.0736,569.625,387.8307,579.3125,388.5534,589,388.4531,589.0444,388.4531,588.6555,398.8523,588.5632,409.2516,588.2565,419.6508,589.0158,430.05,589.322,440.4492,589.2006,450.8484,589.128,461.2477,588.449,471.6469,589.3769,482.0461,589,492.4453,589,491.9449,579.3125,492.7853,569.625,492.5123,559.9375,492.6994,550.25,493.1584,540.5625,492.5624,530.875,492.3854,521.1875,492.4579,511.5,491.8249,501.8125,492.7672,492.125,491.799,482.4375,492.3696,472.75,491.775,463.0625,492.1208,453.375,491.9449,443.6875,492.2566,434,492.4453,433.366,492.4453,434.5795,482.0461,433.7604,471.6469,434.5401,461.2477,433.7071,450.8484,433.9242,440.4492,433.264,430.05,434.3324,419.6508,433.5383,409.2516,434.4332,398.8523,434,388.4531" style="stroke: #A80036; stroke-width: 1.5;"/><text fill="#000000" font-family="sans-serif" font-size="12" lengthAdjust="spacingAndGlyphs" textLength="130" x="446.5" y="404.5918">ContentFoldersTable</text><path d="M435,412.4219 L435,411.9097 L445.2,411.4359 L455.4,412.8888 L465.6,412.373 L475.8,412.7944 L486,411.6875 L496.2,413.2978 L506.4,411.4268 L516.6,412.3737 L526.8,412.5855 L537,411.9908 L547.2,411.6106 L557.4,413.2156 L567.6,412.0176 L577.8,413.2568 L588,412.4219 " fill="#FEFECE" style="stroke: #A80036; stroke-width: 1.5;"/><path d="M435,420.4219 L435,420.0789 L445.2,420.412 L455.4,420.6038 L465.6,419.6591 L475.8,419.4577 L486,420.746 L496.2,419.447 L506.4,419.5605 L516.6,420.5563 L526.8,419.7238 L537,419.978 L547.2,419.666 L557.4,419.8959 L567.6,420.7696 L577.8,421.2179 L588,420.4219 " fill="#FEFECE" style="stroke: #A80036; stroke-width: 1.5;"/><text fill="#000000" font-family="sans-serif" font-size="11" lengthAdjust="spacingAndGlyphs" textLength="125" x="440" y="434.6323">+getParentTemplate()</text><text fill="#000000" font-family="sans-serif" font-size="11" lengthAdjust="spacingAndGlyphs" textLength="143" x="440" y="447.437">+getFolderTemplateList()</text><text fill="#000000" font-family="sans-serif" font-size="11" lengthAdjust="spacingAndGlyphs" textLength="91" x="440" y="460.2417">+saveSiteRoot()</text><text fill="#000000" font-family="sans-serif" font-size="11" lengthAdjust="spacingAndGlyphs" textLength="136" x="440" y="473.0464">+movePageTemplates()</text><text fill="#000000" font-family="sans-serif" font-size="11" lengthAdjust="spacingAndGlyphs" textLength="112" x="440" y="485.8511">+setBeforeRecord()</text><!--class SearchIndiceTable--><polygon fill="#FEFECE" filter="url(#f0qhwdk)" points="624,413.9531,624,414.283,634.0833,413.8725,644.1667,414.1613,654.25,414.3031,664.3333,414.3162,674.4167,413.8119,684.5,413.5112,694.5833,413.5213,704.6667,413.8225,714.75,413.2147,724.8333,413.4783,734.9167,413.8592,745,413.9531,745.7329,413.9531,744.9934,424.5078,745.5366,435.0625,745.5616,445.6172,744.5961,456.1719,745,466.7266,745,466.7438,734.9167,466.8853,724.8333,467.0793,714.75,466.2648,704.6667,466.9524,694.5833,466.2327,684.5,466.8397,674.4167,466.086,664.3333,466.9739,654.25,466.9856,644.1667,467.455,634.0833,467.2615,624,466.7266,624.6454,466.7266,624.5632,456.1719,624.1372,445.6172,623.4105,435.0625,624.3544,424.5078,624,413.9531" style="stroke: #A80036; stroke-width: 1.5;"/><text fill="#000000" font-family="sans-serif" font-size="12" lengthAdjust="spacingAndGlyphs" textLength="115" x="627" y="430.0918">SearchIndiceTable</text><path d="M625,437.9219 L625,438.689 L634.9167,438.6912 L644.8333,438.3182 L654.75,437.6656 L664.6667,437.5531 L674.5833,438.2741 L684.5,437.631 L694.4167,438.6447 L704.3333,437.1138 L714.25,437.3324 L724.1667,438.3402 L734.0833,438.0327 L744,437.9219 " fill="#FEFECE" style="stroke: #A80036; stroke-width: 1.5;"/><path d="M625,445.9219 L625,445.5519 L634.9167,445.2201 L644.8333,445.1832 L654.75,446.1246 L664.6667,445.2056 L674.5833,446.8281 L684.5,446.5968 L694.4167,446.1342 L704.3333,445.9595 L714.25,445.0307 L724.1667,446.518 L734.0833,446.0423 L744,445.9219 " fill="#FEFECE" style="stroke: #A80036; stroke-width: 1.5;"/><text fill="#000000" font-family="sans-serif" font-size="11" lengthAdjust="spacingAndGlyphs" textLength="82" x="630" y="460.1323">+reconstruct()</text><!--class ContentFolder--><polygon fill="#FEFECE" filter="url(#f0qhwdk)" points="218.5,558.9531,218.5,558.7103,228.5,559.2265,238.5,559.1338,248.5,558.6795,258.5,559.6816,268.5,558.2149,278.5,558.2834,288.5,559.1355,298.5,559.0163,308.5,558.9044,318.5,559.4993,328.5,558.9531,328.9927,558.9531,328.5865,569.3523,327.9091,579.7516,328.8146,590.1508,327.9184,600.55,327.9836,610.9492,328.9199,621.3484,328.0604,631.7477,327.8063,642.1469,328.1802,652.5461,328.5,662.9453,328.5,662.2208,318.5,663.2277,308.5,663.6226,298.5,662.5407,288.5,662.5865,278.5,662.4323,268.5,663.2302,258.5,663.6105,248.5,662.3814,238.5,663.2275,228.5,663.0873,218.5,662.9453,218.6104,662.9453,217.9611,652.5461,219.1748,642.1469,218.9766,631.7477,218.3285,621.3484,218.2665,610.9492,218.868,600.55,218.2455,590.1508,218.5199,579.7516,218.9496,569.3523,218.5,558.9531" style="stroke: #A80036; stroke-width: 1.5;"/><text fill="#000000" font-family="sans-serif" font-size="12" lengthAdjust="spacingAndGlyphs" textLength="89" x="229" y="575.0918">ContentFolder</text><path d="M219.5,582.9219 L219.5,582.5129 L229.3182,583.8617 L239.1364,582.5538 L248.9545,583.9061 L258.7727,583.2159 L268.5909,582.398 L278.4091,583.3543 L288.2273,583.3512 L298.0455,583.7 L307.8636,582.7497 L317.6818,583.3281 L327.5,582.9219 " fill="#FEFECE" style="stroke: #A80036; stroke-width: 1.5;"/><text fill="#000000" font-family="sans-serif" font-size="11" lengthAdjust="spacingAndGlyphs" textLength="19" x="224.5" y="597.1323">+id</text><text fill="#000000" font-family="sans-serif" font-size="11" lengthAdjust="spacingAndGlyphs" textLength="98" x="224.5" y="609.937">+folder_template</text><text fill="#000000" font-family="sans-serif" font-size="11" lengthAdjust="spacingAndGlyphs" textLength="93" x="224.5" y="622.7417">+page_template</text><text fill="#000000" font-family="sans-serif" font-size="11" lengthAdjust="spacingAndGlyphs" textLength="52" x="224.5" y="635.5464">+created</text><text fill="#000000" font-family="sans-serif" font-size="11" lengthAdjust="spacingAndGlyphs" textLength="58" x="224.5" y="648.3511">+modified</text><path d="M219.5,654.9453 L219.5,655.5633 L229.3182,655.7786 L239.1364,655.68 L248.9545,654.3839 L258.7727,655.5245 L268.5909,654.4277 L278.4091,654.4312 L288.2273,655.7377 L298.0455,654.0079 L307.8636,655.613 L317.6818,654.8341 L327.5,654.9453 " fill="#FEFECE" style="stroke: #A80036; stroke-width: 1.5;"/><!--class BcContentsBehavior--><polygon fill="#FEFECE" filter="url(#f0qhwdk)" points="266.5,381.9531,266.5,382.0604,276.6538,382.4266,286.8077,381.4841,296.9615,381.312,307.1154,381.5157,317.2692,381.3775,327.4231,382.2597,337.5769,381.4534,347.7308,382.3149,357.8846,382.0379,368.0385,381.4436,378.1923,382.3438,388.3462,381.9497,398.5,381.9531,398.497,381.9531,398.2673,391.6862,399.0913,401.4193,398.0341,411.1523,398.8074,420.8854,397.8493,430.6185,398.2483,440.3516,397.7834,450.0846,398.4915,459.8177,398.4952,469.5508,398.1893,479.2839,398.1457,489.0169,398.5,498.75,398.5,499.061,388.3462,498.5295,378.1923,498.0713,368.0385,498.8954,357.8846,498.3529,347.7308,498.9538,337.5769,498.366,327.4231,499.2193,317.2692,498.3027,307.1154,498.9196,296.9615,498.4351,286.8077,499.2437,276.6538,498.3518,266.5,498.75,266.3343,498.75,265.8607,489.0169,266.7625,479.2839,266.5993,469.5508,266.9628,459.8177,266.8214,450.0846,267.1921,440.3516,267.2134,430.6185,266.5443,420.8854,267.1198,411.1523,266.4151,401.4193,266.9827,391.6862,266.5,381.9531" style="stroke: #A80036; stroke-width: 1.5;"/><text fill="#000000" font-family="sans-serif" font-size="12" lengthAdjust="spacingAndGlyphs" textLength="126" x="269.5" y="398.0918">BcContentsBehavior</text><path d="M267.5,405.9219 L267.5,406.8396 L277.5,406.5891 L287.5,406.1159 L297.5,406.1868 L307.5,405.4282 L317.5,405.4162 L327.5,406.2417 L337.5,406.7003 L347.5,406.6859 L357.5,406.8867 L367.5,405.5965 L377.5,406.5155 L387.5,405.3583 L397.5,405.9219 " fill="#FEFECE" style="stroke: #A80036; stroke-width: 1.5;"/><path d="M267.5,413.9219 L267.5,413.844 L277.5,413.6012 L287.5,414.8064 L297.5,413.5763 L307.5,413.5953 L317.5,413.1359 L327.5,414.5873 L337.5,414.0159 L347.5,414.8089 L357.5,413.8801 L367.5,413.634 L377.5,414.1039 L387.5,413.774 L397.5,413.9219 " fill="#FEFECE" style="stroke: #A80036; stroke-width: 1.5;"/><text fill="#000000" font-family="sans-serif" font-size="11" lengthAdjust="spacingAndGlyphs" textLength="99" x="272.5" y="428.1323">+beforeValidate()</text><text fill="#000000" font-family="sans-serif" font-size="11" lengthAdjust="spacingAndGlyphs" textLength="82" x="272.5" y="440.937">+beforeSave()</text><text fill="#000000" font-family="sans-serif" font-size="11" lengthAdjust="spacingAndGlyphs" textLength="72" x="272.5" y="453.7417">+afterSave()</text><text fill="#000000" font-family="sans-serif" font-size="11" lengthAdjust="spacingAndGlyphs" textLength="90" x="272.5" y="466.5464">+beforeDelete()</text><text fill="#000000" font-family="sans-serif" font-size="11" lengthAdjust="spacingAndGlyphs" textLength="80" x="272.5" y="479.3511">+afterDelete()</text><text fill="#000000" font-family="sans-serif" font-size="11" lengthAdjust="spacingAndGlyphs" textLength="93" x="272.5" y="492.1558">+findPublished()</text><!--class ContentsTable--><polygon fill="#FEFECE" filter="url(#f0qhwdk)" points="100,381.9531,100,382.2461,110.0769,381.5477,120.1538,382.3483,130.2308,381.2833,140.3077,382.6278,150.3846,381.9459,160.4615,381.885,170.5385,381.6843,180.6154,382.389,190.6923,381.316,200.7692,381.7715,210.8462,381.2196,220.9231,382.5983,231,381.9531,230.7582,381.9531,230.3009,391.6862,230.8921,401.4193,231.0521,411.1523,231.0274,420.8854,231.1367,430.6185,231.0293,440.3516,231.4162,450.0846,231.281,459.8177,231.5722,469.5508,231.1209,479.2839,230.8141,489.0169,231,498.75,231,499.2662,220.9231,498.4666,210.8462,499.0188,200.7692,499.4892,190.6923,498.6727,180.6154,498.644,170.5385,499.2764,160.4615,499.1201,150.3846,498.7987,140.3077,498.7245,130.2308,498.7473,120.1538,499.0217,110.0769,498.3714,100,498.75,100.172,498.75,99.6631,489.0169,100.5147,479.2839,99.8787,469.5508,99.8679,459.8177,99.3447,450.0846,100.2372,440.3516,99.788,430.6185,99.664,420.8854,99.8831,411.1523,100.0537,401.4193,100.4994,391.6862,100,381.9531" style="stroke: #A80036; stroke-width: 1.5;"/><text fill="#000000" font-family="sans-serif" font-size="12" lengthAdjust="spacingAndGlyphs" textLength="91" x="120" y="398.0918">ContentsTable</text><path d="M101,405.9219 L101,406.0501 L110.9231,405.2705 L120.8462,405.1371 L130.7692,406.3265 L140.6923,406.2436 L150.6154,405.8902 L160.5385,405.2949 L170.4615,405.5798 L180.3846,405.0309 L190.3077,404.9357 L200.2308,405.8029 L210.1538,405.7352 L220.0769,405.1915 L230,405.9219 " fill="#FEFECE" style="stroke: #A80036; stroke-width: 1.5;"/><text fill="#000000" font-family="sans-serif" font-size="11" lengthAdjust="spacingAndGlyphs" textLength="100" x="106" y="420.1323">+updatingRelated</text><path d="M101,426.7266 L101,426.3965 L110.9231,427.5267 L120.8462,426.5033 L130.7692,427.2999 L140.6923,425.9362 L150.6154,427.2434 L160.5385,426.0808 L170.4615,427.5885 L180.3846,427.179 L190.3077,426.7021 L200.2308,426.1413 L210.1538,427.6469 L220.0769,427.261 L230,426.7266 " fill="#FEFECE" style="stroke: #A80036; stroke-width: 1.5;"/><text fill="#000000" font-family="sans-serif" font-size="11" lengthAdjust="spacingAndGlyphs" textLength="119" x="106" y="440.937">+updateChildrenUrl()</text><text fill="#000000" font-family="sans-serif" font-size="11" lengthAdjust="spacingAndGlyphs" textLength="60" x="106" y="453.7417">+getPath()</text><text fill="#000000" font-family="sans-serif" font-size="11" lengthAdjust="spacingAndGlyphs" textLength="97" x="106" y="466.5464">+createContent()</text><text fill="#000000" font-family="sans-serif" font-size="11" lengthAdjust="spacingAndGlyphs" textLength="75" x="106" y="479.3511">+softDelete()</text><text fill="#000000" font-family="sans-serif" font-size="11" lengthAdjust="spacingAndGlyphs" textLength="115" x="106" y="492.1558">+removeFromTree()</text><!--class Content--><polygon fill="#FEFECE" filter="url(#f0qhwdk)" points="6,413.9531,6,413.314,15.8333,413.9105,25.6667,413.9996,35.5,414.0494,45.3333,413.4583,55.1667,413.8706,65,413.9531,64.864,413.9531,65.2024,424.5078,64.5352,435.0625,64.5898,445.6172,64.2738,456.1719,65,466.7266,65,467.3966,55.1667,467.1706,45.3333,466.8037,35.5,467.4605,25.6667,466.0318,15.8333,467.3138,6,466.7266,6.1958,466.7266,5.9669,456.1719,5.8434,445.6172,5.4092,435.0625,5.3228,424.5078,6,413.9531" style="stroke: #A80036; stroke-width: 1.5;"/><text fill="#000000" font-family="sans-serif" font-size="12" lengthAdjust="spacingAndGlyphs" textLength="50" x="10.5" y="430.0918">Content</text><path d="M7,437.9219 L7,438.8687 L16.5,437.7291 L26,438.6188 L35.5,437.3041 L45,437.5876 L54.5,437.8549 L64,437.9219 " fill="#FEFECE" style="stroke: #A80036; stroke-width: 1.5;"/><text fill="#000000" font-family="sans-serif" font-size="11" lengthAdjust="spacingAndGlyphs" textLength="47" x="12" y="452.1323">entity_id</text><path d="M7,458.7266 L7,458.3605 L16.5,459.4908 L26,458.0812 L35.5,459.3424 L45,458.5038 L54.5,457.909 L64,458.7266 " fill="#FEFECE" style="stroke: #A80036; stroke-width: 1.5;"/><path d="M378.75,99.9531 L378.75,99.701 L384.764,100.0676 L390.778,99.6559 L396.792,100.0989 L402.806,99.8027 L408.82,99.9531 " fill="none" style="stroke: #000000; stroke-width: 1.0;"/><polygon fill="#000000" points="373.51,99.9531,373.4977,99.9255,375.2157,100.541,377.1265,101.5903,378.8377,102.1904,380.6892,103.1063,382.51,103.9531,382.4785,103.9216,381.8186,103.2617,380.9161,102.3592,380.1365,101.5796,379.2994,100.7425,378.51,99.9531,378.6524,100.0955,379.1359,98.9791,380.0221,98.2652,380.9667,97.6098,381.8074,96.8506,382.51,95.9531,382.5771,96.104,380.6789,96.6832,378.8717,97.4671,377.2094,98.5767,375.4001,99.3559,373.51,99.9531" style="stroke: #000000; stroke-width: 1.0;"/><path d="M511.5,158.5731 L510.544,158.5731 L512.2972,168.1076 L511.4729,177.642 L512.4766,187.1765 L511.2554,196.7109 L512.2592,206.2453 L512.3861,215.7798 L511.4319,225.3142 L510.8695,234.8487 L511.5,244.3831 " fill="none" style="stroke: #000000; stroke-width: 1.0;"/><polygon fill="#000000" points="511.5,249.6031,511.5661,249.6325,512.4456,247.8678,513.0294,245.9717,513.7079,244.1178,514.8501,242.4698,515.5,240.6031,515.3332,240.4364,514.7782,241.4814,513.9488,242.252,512.9858,242.8889,512.4767,243.9799,511.5,244.6031,511.44,244.5432,510.5884,243.6915,509.8346,242.9378,509.1652,242.2683,508.3427,241.4459,507.5,240.6031,507.3185,240.5225,508.1318,242.3284,509.2637,244.2759,509.9781,246.0378,510.8407,247.8657,511.5,249.6031" style="stroke: #000000; stroke-width: 1.0;"/><path d="M587,276.4531 L587,276.1857 L592.954,276.6517 L598.908,276.5123 L604.862,276.3656 L610.816,276.5479 L616.77,276.4531 " fill="none" style="stroke: #000000; stroke-width: 1.0;"/><polygon fill="#000000" points="581.81,276.4531,581.7322,276.2781,583.5217,277.0544,585.3315,277.8764,587.2558,278.9561,588.9563,279.5322,590.81,280.4531,590.8169,280.46,589.947,279.5901,589.0484,278.6915,588.445,278.0881,587.7021,277.3453,586.81,276.4531,586.765,276.4081,587.6801,275.7232,588.367,274.8102,589.1341,273.9772,589.9873,273.2305,590.81,272.4531,590.8956,272.6458,589.1052,273.4674,587.1616,273.9443,585.5109,275.0801,583.5676,275.5576,581.81,276.4531" style="stroke: #000000; stroke-width: 1.0;"/><path d="M426.95,276.4531 L426.95,276.2272 L429.794,276.7075 L432.638,276.228 L435.482,276.1479 L438.326,276.3705 L441.17,276.4531 " fill="none" style="stroke: #000000; stroke-width: 1.0; stroke-dasharray: 1.0,3.0;"/><polygon fill="none" points="426.83,283.4531,426.7678,283.2754,422.8846,282.209,418.8134,280.6057,414.8881,279.4192,410.7557,277.6408,406.83,276.4531,406.8136,276.4062,410.816,275.0131,414.768,273.4761,418.8385,272.2775,422.8766,270.9862,426.83,269.4531,426.8751,269.4531,426.87,272.2531,427.0657,275.0531,427.0721,277.8531,426.8537,280.6531,426.83,283.4531" style="stroke: #000000; stroke-width: 1.0;"/><path d="M511.5,303.1231 L510.9862,303.1231 L511.045,313.1544 L511.6755,323.1856 L510.9864,333.2169 L511.1995,343.2481 L511.2316,353.2794 L512.2321,363.3106 L511.7882,373.3419 L511.5,383.3731 " fill="none" style="stroke: #000000; stroke-width: 1.0;"/><polygon fill="#000000" points="511.5,388.4131,511.5304,388.4267,512.4763,386.6915,512.9969,384.7673,513.8755,383.0022,514.4893,381.1195,515.5,379.4131,515.3551,379.2682,514.6769,380.19,513.827,380.9401,513.1755,381.8887,512.3596,382.6727,511.5,383.4131,511.5448,383.4579,510.537,382.4501,509.9457,381.8588,508.9498,380.863,508.1753,380.0885,507.5,379.4131,507.6869,379.4962,508.1034,381.1257,509.1186,383.0214,509.9999,384.8575,510.9101,386.7065,511.5,388.4131" style="stroke: #000000; stroke-width: 1.0;"/><path d="M589.21,440.4531 L589.21,440.5623 L595.106,440.2456 L601.002,440.3948 L606.898,440.759 L612.794,440.5554 L618.69,440.4531 " fill="none" style="stroke: #000000; stroke-width: 1.0;"/><polygon fill="#000000" points="623.83,440.4531,623.8629,440.5271,621.9931,439.5701,620.2914,438.9912,618.4657,438.1335,616.603,437.1924,614.83,436.4531,614.7963,436.4195,615.7209,437.344,616.4245,438.0476,617.3606,438.9837,618.1083,439.7314,618.83,440.4531,618.7326,440.3558,617.885,441.1081,617.0897,441.9128,616.3405,442.7637,615.5762,443.5993,614.83,444.4531,614.8962,444.6021,616.7168,443.8485,618.395,442.7743,620.2554,442.1102,622.0979,441.4058,623.83,440.4531" style="stroke: #000000; stroke-width: 1.0;"/><path d="M403.81,440.4531 L403.81,440.2087 L409.82,440.6147 L415.83,440.6236 L421.84,440.3999 L427.85,440.3187 L433.86,440.4531 " fill="none" style="stroke: #000000; stroke-width: 1.0;"/><polygon fill="#000000" points="398.58,440.4531,398.4809,440.2301,400.3244,441.1279,402.2141,442.1299,404.0632,443.0403,405.7985,443.6946,407.58,444.4531,407.627,444.5001,406.8121,443.6852,406.1215,442.9946,405.041,441.9141,404.372,441.2451,403.58,440.4531,403.7444,440.6175,404.2737,439.5468,405.2761,438.9492,405.8308,437.9039,406.8972,437.3703,407.58,436.4531,407.493,436.2574,405.7891,437.2736,403.9646,438.0185,402.1695,438.8296,400.4616,439.8368,398.58,440.4531" style="stroke: #000000; stroke-width: 1.0;"/><path d="M222.08,378.4031 L222.0919,378.4186 L223.9871,376.6489 L226.0734,375.128 L228.3024,373.7928 L230.2598,372.1042 L232.3147,370.5423 L232.295,370.5128 L234.334,368.8993 L236.7829,367.9002 L238.6498,366.0286 L240.8995,364.7309 L243.095,363.3519 L242.9349,363.0648 L245.261,361.9448 L247.5768,360.8063 L249.8535,359.5977 L252.0783,358.296 L254.3478,357.0745 L254.3984,357.1897 L256.6521,355.9908 L258.9509,354.8945 L261.3565,354.0411 L263.5524,352.7109 L266,351.9531 L266.0729,352.1526 L268.0767,351.4828 L269.9232,350.3827 L271.9881,349.8799 L273.9402,349.0687 L275.9185,348.3291 L275.9334,348.3734 L277.7575,347.6827 L279.5911,347.0199 L281.4113,346.3176 L283.3951,346.1014 L285.1558,345.2221 L285.1839,345.323 L288.5945,344.5487 L291.9471,343.5667 L295.3101,342.6216 L298.6835,341.7142 L301.9798,340.5302 L302.0095,340.6976 L305.0123,339.8566 L308.0473,339.1972 L311.1617,338.9855 L314.2173,338.4428 L317.2587,337.8194 L317.2618,337.8758 L320.1693,337.784 L323.0568,337.321 L325.9763,337.4497 L328.8625,336.9633 L331.7787,337.0319 L331.7691,336.9011 L334.6843,337.194 L337.5777,337.1908 L340.5091,337.7022 L343.4189,337.9212 L346.3265,338.1095 L346.323,338.0912 L349.4596,339.0101 L352.5039,339.4376 L355.5786,340.027 L358.6324,340.5048 L361.6883,340.9942 L361.701,341.0407 L365.0624,341.8539 L368.5319,343.0626 L371.7859,343.4823 L375.2382,344.6281 L378.6506,345.6281 L378.6076,345.4923 L380.4284,345.9421 L382.3739,346.786 L384.1614,347.1309 L386.0459,347.7821 L387.9778,348.5828 L387.8923,348.3285 L389.9755,349.2369 L391.9574,349.8439 L394.0261,350.709 L396.0999,351.5895 L398,351.9531 L397.8976,351.7067 L401.41,353.5814 L404.6917,354.9011 L407.8548,355.9357 L411.34,357.745 L414.5205,358.8211 L414.4191,358.636 L417.5899,360.3555 L420.9514,362.4228 L424.0091,363.9359 L427.3025,365.879 L430.4438,367.5444 L430.3102,367.3433 L433.3725,369.4111 L436.6682,371.8303 L439.59,373.6866 L442.5632,375.6202 L445.5552,377.582 L445.4088,377.3913 L448.5042,379.9163 L451.2508,381.9868 L453.9637,384.0135 L456.7614,386.1507 L459.64,388.3931 " fill="none" style="stroke: #000000; stroke-width: 1.0;"/><polygon fill="#000000" points="218.02,381.7931,218.0763,381.99,219.9257,381.2931,221.7652,380.5612,223.6352,379.9361,225.5766,379.5609,227.4898,379.0871,227.497,379.168,226.3596,378.9492,225.233,378.8528,224.1265,378.9811,222.9861,378.7292,221.8553,378.5852,222.0385,378.6015,221.8422,377.4482,222.3043,376.3535,222.2637,375.214,222.0526,374.0594,222.3571,372.9506,222.458,373.0001,221.4503,374.6998,220.4172,376.3871,219.6874,378.223,218.9113,380.0363,218.02,381.7931" style="stroke: #000000; stroke-width: 1.0;"/><path d="M439.45,492.4631 L439.3847,492.3709 L431.2506,498.2483 L422.7483,503.6056 L414.8968,509.8823 L406.9254,515.9895 L398.6083,521.6085 L390.7095,527.8182 L381.9456,532.8061 L374.0113,538.9657 L365.3405,544.0851 L357.7181,550.6852 L349.3149,556.1825 L341.2858,562.2082 L332.98,567.8431 " fill="none" style="stroke: #000000; stroke-width: 1.0;"/><polygon fill="#000000" points="328.68,570.8931,328.6928,570.9568,330.6418,570.6574,332.5498,570.154,334.5121,569.9207,336.4391,569.5121,338.3357,568.9522,338.357,569.0771,337.1811,568.5313,336.078,568.4131,334.9753,568.2967,333.8424,568.0031,332.7593,568.0018,332.9814,568.0397,332.7804,566.8578,333.2424,565.7888,333.4743,564.6807,333.4495,563.5288,333.7097,562.4254,333.6282,562.377,332.4894,563.9916,331.7811,565.8619,330.6196,567.4631,329.5073,569.0935,328.68,570.8931" style="stroke: #000000; stroke-width: 1.0;"/><path d="M236.3,440.4531 L236.3,440.7344 L242.306,440.6664 L248.312,440.4755 L254.318,440.1322 L260.324,440.2878 L266.33,440.4531 " fill="none" style="stroke: #000000; stroke-width: 1.0;"/><polygon fill="#000000" points="231.06,440.4531,231.0506,440.4319,232.9451,441.4446,234.7561,442.2694,236.4091,442.7385,238.3565,443.8703,240.06,444.4531,239.9296,444.3227,239.1605,443.5536,238.3186,442.7117,237.5006,441.8938,237.026,441.4192,236.06,440.4531,236.128,440.5211,236.696,439.4891,237.679,438.8721,238.4482,438.0414,239.1745,437.1676,240.06,436.4531,239.9779,436.2684,238.3169,437.3811,236.4459,438.0214,234.617,438.7563,232.8775,439.6925,231.06,440.4531" style="stroke: #000000; stroke-width: 1.0;"/><path d="M70.32,440.4531 L70.32,440.1299 L76.192,440.7124 L82.064,440.3531 L87.936,440.1888 L93.808,440.587 L99.68,440.4531 " fill="none" style="stroke: #000000; stroke-width: 1.0;"/><polygon fill="#000000" points="65.21,440.4531,65.2385,440.5172,66.9516,441.1218,68.8051,442.0421,70.6894,443.0319,72.3326,443.4789,74.21,444.4531,74.3082,444.5513,73.3154,443.5585,72.6969,442.94,71.6339,441.877,71.156,441.3991,70.21,440.4531,70.0874,440.3305,70.927,439.5701,71.7815,438.8246,72.6083,438.0514,73.277,437.1201,74.21,436.4531,74.1943,436.4178,72.3657,437.1534,70.5657,437.9534,68.8929,439.0397,66.961,439.5429,65.21,440.4531" style="stroke: #000000; stroke-width: 1.0;"/><path d="M213.5,582.1531 L213.3846,581.9292 L210.427,580.5645 L207.381,579.0282 L204.2568,577.3402 L201.3534,576.0804 L198.152,574.2428 L198.0614,574.0746 L194.7721,572.2376 L191.7376,570.8733 L188.5212,569.1713 L185.0407,566.9796 L181.95,565.5109 L181.8342,565.3063 L178.7456,563.8776 L175.2694,561.7642 L171.8067,559.6745 L168.6725,558.1651 L165.1742,556.0127 L165.3368,556.2844 L161.595,553.6944 L158.4022,552.0219 L154.9018,549.8352 L151.4778,547.7764 L148.105,545.8031 L148.1655,545.8998 L146.2702,544.535 L144.5097,543.3857 L142.9844,542.6123 L141.3406,541.6496 L139.5479,540.4488 L139.5906,540.5148 L137.9246,539.4729 L136.096,538.1795 L134.4953,537.2386 L132.7693,536.1039 L131.0227,534.9373 L130.9361,534.808 L129.4666,534.0076 L127.5914,532.6011 L126.1005,531.7688 L124.3881,530.6055 L122.5642,529.2755 L122.5184,529.2097 L120.9444,528.1887 L119.3544,527.1447 L117.5941,525.8556 L115.9472,524.7298 L114.2075,523.4703 L114.163,523.4087 L112.5106,522.2087 L111.0793,521.3146 L109.1984,519.7984 L107.7806,518.9229 L105.9877,517.5286 L106.0012,517.5465 L104.1814,516.0535 L102.8073,515.1514 L101.3435,514.1304 L99.4813,512.5812 L97.9398,511.4572 L97.7948,511.2782 L95.0426,509.1919 L91.9495,506.6848 L88.5462,503.7946 L85.6019,501.4711 L82.5,498.9531 L82.6377,499.1021 L81.0302,497.6167 L79.4277,496.1367 L77.8758,494.7114 L76.0237,492.9612 L74.4705,491.5345 L74.3917,491.4597 L72.8786,489.865 L71.45,488.3506 L69.7382,486.567 L68.3451,485.0863 L66.8113,483.4719 L66.6965,483.3733 L65.4164,481.8377 L64.0062,480.1904 L62.5664,478.5176 L61.315,477.0066 L59.6639,475.1523 L59.4168,474.9564 L58.2551,473.4273 L57.2042,471.986 L55.6969,470.1828 L54.2697,468.4431 L53.17,466.9631 " fill="none" style="stroke: #000000; stroke-width: 1.0;"/><polygon fill="#000000" points="218.26,584.5431,218.3553,584.6214,217.0604,583.0626,215.7038,581.4531,214.6167,580.0651,213.2292,578.4301,212.0087,576.9325,211.9933,576.9274,212.2719,577.9753,212.601,579.04,213.0223,580.1353,213.4568,581.235,213.7907,582.3013,213.8514,582.4841,212.6958,582.594,211.6669,583.0855,210.5609,583.345,209.5192,583.798,208.4219,584.0833,208.4242,584.1331,210.3936,584.2629,212.3504,584.1243,214.3136,584.1212,216.289,584.379,218.26,584.5431" style="stroke: #000000; stroke-width: 1.0;"/></g></svg>