<?xml version="1.0" encoding="UTF-8" standalone="no"?><svg xmlns="http://www.w3.org/2000/svg" xmlns:xlink="http://www.w3.org/1999/xlink" contentScriptType="application/ecmascript" contentStyleType="text/css" height="884px" preserveAspectRatio="none" style="width:704px;height:884px;" version="1.1" viewBox="0 0 704 884" width="704px" zoomAndPan="magnify"><defs><filter height="300%" id="fzap0x3" width="300%" x="-1" y="-1"><feGaussianBlur result="blurOut" stdDeviation="2.0"/><feColorMatrix in="blurOut" result="blurOut2" type="matrix" values="0 0 0 0 0 0 0 0 0 0 0 0 0 0 0 0 0 0 .4 0"/><feOffset dx="4.0" dy="4.0" in="blurOut2" result="blurOut3"/><feBlend in="SourceGraphic" in2="blurOut3" mode="normal"/></filter></defs><g><text fill="#000000" font-family="sans-serif" font-size="18" lengthAdjust="spacingAndGlyphs" textLength="126" x="293.5" y="17.4023">固定ページ管理</text><!--class PagesController--><polygon fill="#FEFECE" filter="url(#fzap0x3)" points="6,94.1992,6,93.7166,15.8947,94.5204,25.7895,93.8888,35.6842,94.8094,45.5789,93.981,55.4737,94.3429,65.3684,94.6556,75.2632,94.1675,85.1579,94.3892,95.0526,93.6902,104.9474,94.6527,114.8421,94.7269,124.7368,93.9399,134.6316,93.5138,144.5263,93.6446,154.4211,94.9289,164.3158,94.3925,174.2105,94.2199,184.1053,94.1235,194,94.1992,194.4839,94.1992,194.0782,104.8168,193.424,115.4344,194.4641,126.052,194.3364,136.6695,194,147.2871,194,147.507,184.1053,146.7806,174.2105,147.1656,164.3158,146.7759,154.4211,147.3121,144.5263,147.2571,134.6316,146.7217,124.7368,147.071,114.8421,147.9169,104.9474,147.7997,95.0526,147.7518,85.1579,147.7077,75.2632,147.7629,65.3684,147.1545,55.4737,146.9947,45.5789,147.6045,35.6842,147.2867,25.7895,146.9487,15.8947,146.869,6,147.2871,6.7245,147.2871,6.3833,136.6695,6.2957,126.052,6.3642,115.4344,5.3727,104.8168,6,94.1992" style="stroke: #A80036; stroke-width: 1.5;"/><text fill="#000000" font-family="sans-serif" font-size="12" lengthAdjust="spacingAndGlyphs" textLength="90" x="55" y="110.8008">PagesController</text><path d="M7,118.332 L7,119.2781 L16.7895,117.7244 L26.5789,118.1963 L36.3684,117.8751 L46.1579,117.5359 L55.9474,118.836 L65.7368,119.0128 L75.5263,117.7692 L85.3158,118.3653 L95.1053,118.5842 L104.8947,119.3269 L114.6842,118.854 L124.4737,117.4044 L134.2632,117.714 L144.0526,118.8174 L153.8421,119.2588 L163.6316,118.6648 L173.4211,119.2978 L183.2105,118.0061 L193,118.332 " fill="#FEFECE" style="stroke: #A80036; stroke-width: 1.5;"/><path d="M7,126.332 L7,126.2245 L16.7895,125.3902 L26.5789,126.9944 L36.3684,127.0712 L46.1579,125.6697 L55.9474,127.2094 L65.7368,126.1442 L75.5263,126.6127 L85.3158,126.0937 L95.1053,125.6839 L104.8947,127.0448 L114.6842,127.2514 L124.4737,125.997 L134.2632,125.7138 L144.0526,126.1012 L153.8421,126.655 L163.6316,126.4483 L173.4211,125.8181 L183.2105,126.5814 L193,126.332 " fill="#FEFECE" style="stroke: #A80036; stroke-width: 1.5;"/><text fill="#000000" font-family="sans-serif" font-size="11" lengthAdjust="spacingAndGlyphs" textLength="176" x="12" y="140.9668">+固定ページを表示する：display()</text><!--class Admin\PagesController--><polygon fill="#FEFECE" filter="url(#fzap0x3)" points="229,29.1992,229,28.5587,238.9149,28.6158,248.8298,28.9856,258.7447,29.275,268.6596,28.7927,278.5745,28.5056,288.4894,29.1093,298.4043,28.973,308.3191,29.5757,318.234,29.3974,328.1489,29.8728,338.0638,28.8125,347.9787,28.5151,357.8936,29.3632,367.8085,29.4677,377.7234,29.3981,387.6383,28.8755,397.5532,28.858,407.4681,29.1224,417.383,28.7378,427.2979,28.5865,437.2128,28.5093,447.1277,29.6974,457.0426,29.3275,466.9574,29.6284,476.8723,28.929,486.7872,29.1949,496.7021,29.1206,506.617,29.5585,516.5319,29.4893,526.4468,28.8244,536.3617,28.4644,546.2766,29.2327,556.1915,29.4796,566.1064,29.1949,576.0213,29.0084,585.9362,28.9715,595.8511,28.5491,605.766,29.2781,615.6809,29.7663,625.5957,29.4913,635.5106,29.342,645.4255,28.4941,655.3404,28.9719,665.2553,29.8981,675.1702,29.257,685.0851,29.1279,695,29.1992,694.3769,29.1992,695.1945,39.3458,695.5948,49.4924,694.574,59.639,695.0211,69.7856,694.9021,79.9322,694.8048,90.0788,694.4384,100.2254,694.5628,110.372,694.3539,120.5186,694.9265,130.6651,695.6134,140.8117,695.2468,150.9583,695.7195,161.1049,695.3745,171.2515,694.8323,181.3981,695.3882,191.5447,694.2727,201.6913,695,211.8379,695,212.18,685.0851,211.6266,675.1702,211.3195,665.2553,211.2478,655.3404,211.7347,645.4255,212.1276,635.5106,211.2942,625.5957,211.5734,615.6809,211.9124,605.766,212.1874,595.8511,211.7114,585.9362,211.6619,576.0213,211.462,566.1064,212.1478,556.1915,211.5402,546.2766,211.092,536.3617,212.0529,526.4468,212.0263,516.5319,211.7544,506.617,211.7228,496.7021,211.9336,486.7872,212.5547,476.8723,212.3637,466.9574,212.449,457.0426,211.722,447.1277,211.7664,437.2128,211.6304,427.2979,211.3275,417.383,211.7161,407.4681,212.5321,397.5532,211.1251,387.6383,211.517,377.7234,211.3339,367.8085,211.624,357.8936,212.4452,347.9787,211.4076,338.0638,212.536,328.1489,211.708,318.234,212.3494,308.3191,211.6497,298.4043,211.8313,288.4894,211.1256,278.5745,211.7684,268.6596,212.5069,258.7447,211.7429,248.8298,212.4304,238.9149,211.6092,229,211.8379,229.7317,211.8379,229.5552,201.6913,229.0461,191.5447,229.6708,181.3981,229.0286,171.2515,229.33,161.1049,229.6642,150.9583,229.3449,140.8117,229.4636,130.6651,228.9032,120.5186,228.4267,110.372,229.4464,100.2254,228.2875,90.0788,228.7286,79.9322,228.429,69.7856,229.3691,59.639,229.4872,49.4924,228.9603,39.3458,229,29.1992" style="stroke: #A80036; stroke-width: 1.5;"/><text fill="#000000" font-family="sans-serif" font-size="12" lengthAdjust="spacingAndGlyphs" textLength="133" x="395.5" y="45.8008">Admin\PagesController</text><path d="M230,53.332 L230,53.4104 L240.087,53.6414 L250.1739,53.3806 L260.2609,52.83 L270.3478,54.3019 L280.4348,53.7767 L290.5217,52.5421 L300.6087,52.9813 L310.6957,53.0265 L320.7826,53.5896 L330.8696,53.4472 L340.9565,52.6458 L351.0435,53.8171 L361.1304,52.5146 L371.2174,54.0895 L381.3043,53.2623 L391.3913,52.874 L401.4783,52.9832 L411.5652,53.2489 L421.6522,53.7546 L431.7391,52.4697 L441.8261,52.7327 L451.913,53.5368 L462,52.6459 L472.087,53.4656 L482.1739,53.9302 L492.2609,53.4135 L502.3478,52.4388 L512.4348,53.1183 L522.5217,54.078 L532.6087,53.2766 L542.6957,54.0043 L552.7826,54.2891 L562.8696,52.8893 L572.9565,54.3017 L583.0435,54.0377 L593.1304,53.6043 L603.2174,54.2377 L613.3043,53.4888 L623.3913,52.6503 L633.4783,53.7222 L643.5652,52.8816 L653.6522,54.3265 L663.7391,52.854 L673.8261,52.6719 L683.913,53.9524 L694,53.332 " fill="#FEFECE" style="stroke: #A80036; stroke-width: 1.5;"/><text fill="#000000" font-family="sans-serif" font-size="11" lengthAdjust="spacingAndGlyphs" textLength="151" x="235" y="67.9668">+AuthenticationComponent</text><text fill="#000000" font-family="sans-serif" font-size="11" lengthAdjust="spacingAndGlyphs" textLength="130" x="235" y="80.9219">+BcMessageComponent</text><path d="M230,87.2422 L230,87.5431 L240.087,86.9905 L250.1739,87.1242 L260.2609,87.0812 L270.3478,87.3767 L280.4348,87.8526 L290.5217,87.2647 L300.6087,87.327 L310.6957,86.4306 L320.7826,87.1145 L330.8696,87.4171 L340.9565,86.5361 L351.0435,88.0334 L361.1304,86.2753 L371.2174,86.2606 L381.3043,86.9395 L391.3913,87.7777 L401.4783,86.3082 L411.5652,88.0825 L421.6522,86.3806 L431.7391,86.8785 L441.8261,86.9097 L451.913,87.3218 L462,86.8587 L472.087,87.6367 L482.1739,87.1238 L492.2609,87.1437 L502.3478,87.5487 L512.4348,86.8434 L522.5217,87.3962 L532.6087,88.18 L542.6957,87.3323 L552.7826,87.6035 L562.8696,87.9959 L572.9565,87.0599 L583.0435,87.3511 L593.1304,87.8952 L603.2174,86.3108 L613.3043,88.0316 L623.3913,87.2547 L633.4783,87.2003 L643.5652,87.777 L653.6522,86.8439 L663.7391,87.6652 L673.8261,86.7507 L683.913,88.1482 L694,87.2422 " fill="#FEFECE" style="stroke: #A80036; stroke-width: 1.5;"/><text fill="#000000" font-family="sans-serif" font-size="11" lengthAdjust="spacingAndGlyphs" textLength="147" x="235" y="101.877">+固定ページ新規追加：add()</text><text fill="#000000" font-family="sans-serif" font-size="11" lengthAdjust="spacingAndGlyphs" textLength="147" x="235" y="114.832">+固定ページ新規追加：add()</text><text fill="#000000" font-family="sans-serif" font-size="11" lengthAdjust="spacingAndGlyphs" textLength="125" x="235" y="127.7871">+固定ページ編集：edit()</text><text fill="#000000" font-family="sans-serif" font-size="11" lengthAdjust="spacingAndGlyphs" textLength="137" x="235" y="140.7422">+固定ページ削除：delete()</text><text fill="#000000" font-family="sans-serif" font-size="11" lengthAdjust="spacingAndGlyphs" textLength="175" x="235" y="153.6973">+固定ページをコピーする：copy()</text><text fill="#000000" font-family="sans-serif" font-size="11" lengthAdjust="spacingAndGlyphs" textLength="420" x="235" y="166.6523">+固定ページファイルを登録する：admin_entry_page_files() ※ baserCMS５で廃止</text><text fill="#000000" font-family="sans-serif" font-size="11" lengthAdjust="spacingAndGlyphs" textLength="418" x="235" y="179.6074">+固定ページファイルを書き出す：admin_write_page_files() ※ baserCMS５で廃止</text><text fill="#000000" font-family="sans-serif" font-size="11" lengthAdjust="spacingAndGlyphs" textLength="454" x="235" y="192.5625">+プレビュー用テンプレートを生成する：_createPreviewTemplate() ※ baserCMS５で廃止</text><text fill="#000000" font-family="sans-serif" font-size="11" lengthAdjust="spacingAndGlyphs" textLength="450" x="235" y="205.5176">+一覧の表示用データをセットする：_setAdminIndexViewData()： ※ baserCMS５で廃止</text><!--class BcAdminPageHelper--><polygon fill="#FEFECE" filter="url(#fzap0x3)" points="356.5,304.6992,356.5,305.3473,366.75,305.2059,377,304.0172,387.25,304.0974,397.5,304.9583,407.75,304.0384,418,304.6492,428.25,305.4191,438.5,304.7748,448.75,304.0779,459,305.4314,469.25,305.104,479.5,304.6992,479.7317,304.6992,479.4824,312.7258,479.6936,320.7523,479.6714,328.7789,479.3634,336.8055,479.5,344.832,479.5,344.389,469.25,344.4141,459,345.0019,448.75,344.9592,438.5,344.4414,428.25,345.1134,418,344.5562,407.75,344.7198,397.5,344.9865,387.25,344.8301,377,344.8379,366.75,344.2574,356.5,344.832,356.4193,344.832,356.3803,336.8055,356.3822,328.7789,356.5827,320.7523,356.3534,312.7258,356.5,304.6992" style="stroke: #A80036; stroke-width: 1.5;"/><text fill="#000000" font-family="sans-serif" font-size="12" lengthAdjust="spacingAndGlyphs" textLength="117" x="359.5" y="321.3008">BcAdminPageHelper</text><path d="M357.5,328.832 L357.5,328.3931 L367.5833,329.2778 L377.6667,328.3374 L387.75,328.0254 L397.8333,329.3965 L407.9167,328.4435 L418,329.2145 L428.0833,329.374 L438.1667,328.1022 L448.25,328.8192 L458.3333,329.5923 L468.4167,328.0511 L478.5,328.832 " fill="#FEFECE" style="stroke: #A80036; stroke-width: 1.5;"/><path d="M357.5,336.832 L357.5,336.7086 L367.5833,336.6085 L377.6667,336.8343 L387.75,336.672 L397.8333,337.0739 L407.9167,336.5515 L418,336.7112 L428.0833,337.0641 L438.1667,337.1078 L448.25,336.4784 L458.3333,337.3374 L468.4167,336.1257 L478.5,336.832 " fill="#FEFECE" style="stroke: #A80036; stroke-width: 1.5;"/><!--class PageService--><polygon fill="#FEFECE" filter="url(#fzap0x3)" points="240.5,298.1992,240.5,297.9757,250.625,298.6819,260.75,298.1102,270.875,298.1772,281,297.8844,291.125,297.5502,301.25,298.6526,311.375,298.5779,321.5,298.1992,321.7807,298.1992,321.3508,308.8168,321.9162,319.4344,321.748,330.052,322.1999,340.6695,321.5,351.2871,321.5,350.9828,311.375,351.125,301.25,351.2195,291.125,350.934,281,350.6052,270.875,350.8788,260.75,351.5836,250.625,351.3243,240.5,351.2871,240.6025,351.2871,240.8676,340.6695,239.9736,330.052,240.1929,319.4344,240.5839,308.8168,240.5,298.1992" style="stroke: #A80036; stroke-width: 1.5;"/><text fill="#000000" font-family="sans-serif" font-size="12" lengthAdjust="spacingAndGlyphs" textLength="68" x="247" y="314.8008">PageService</text><path d="M241.5,322.332 L241.5,321.8789 L251.375,322.642 L261.25,322.3645 L271.125,321.539 L281,322.4986 L290.875,321.4268 L300.75,322.0305 L310.625,322.2 L320.5,322.332 " fill="#FEFECE" style="stroke: #A80036; stroke-width: 1.5;"/><text fill="#000000" font-family="sans-serif" font-size="11" lengthAdjust="spacingAndGlyphs" textLength="69" x="246.5" y="336.9668">+PagesTable</text><path d="M241.5,343.2871 L241.5,342.5431 L251.375,343.498 L261.25,343.1945 L271.125,342.2886 L281,342.9358 L290.875,342.652 L300.75,342.4148 L310.625,342.9561 L320.5,343.2871 " fill="#FEFECE" style="stroke: #A80036; stroke-width: 1.5;"/><!--class PageServiceInterface--><polygon fill="#FEFECE" filter="url(#fzap0x3)" points="49,272.1992,49,272.3632,58.75,272.1399,68.5,272.5921,78.25,272.0591,88,272.1624,97.75,271.4508,107.5,272.918,117.25,271.4995,127,271.8139,136.75,272.6651,146.5,272.9272,156.25,272.8676,166,272.9217,175.75,271.4959,185.5,272.1241,195.25,272.3201,205,272.1992,205.3511,272.1992,204.409,282.69,205.1171,293.1809,204.9255,303.6717,204.312,314.1625,204.7769,324.6533,204.747,335.1441,204.3308,345.635,205.288,356.1258,204.6782,366.6166,205,377.1074,205,376.882,195.25,377.533,185.5,377.3355,175.75,376.8733,166,377.6936,156.25,376.487,146.5,376.7308,136.75,377.4235,127,376.9438,117.25,376.8047,107.5,377.7013,97.75,377.8007,88,376.5702,78.25,376.4778,68.5,377.7891,58.75,376.3747,49,377.1074,48.3309,377.1074,48.584,366.6166,49.3429,356.1258,48.9869,345.635,49.0771,335.1441,49.4174,324.6533,48.3786,314.1625,48.5432,303.6717,48.7169,293.1809,48.2836,282.69,49,272.1992" style="stroke: #A80036; stroke-width: 1.5;"/><text fill="#000000" font-family="sans-serif" font-size="12" lengthAdjust="spacingAndGlyphs" textLength="118" x="68" y="288.8008">PageServiceInterface</text><path d="M50,296.332 L50,296.8965 L60.2667,296.4005 L70.5333,296.9698 L80.8,296.5511 L91.0667,295.8498 L101.3333,295.5926 L111.6,296.4669 L121.8667,296.3783 L132.1333,296.221 L142.4,296.7389 L152.6667,295.6851 L162.9333,297.2875 L173.2,297.289 L183.4667,295.8362 L193.7333,296.8276 L204,296.332 " fill="#FEFECE" style="stroke: #A80036; stroke-width: 1.5;"/><path d="M50,304.332 L50,304.0177 L60.2667,303.7827 L70.5333,303.8272 L80.8,304.1523 L91.0667,304.1526 L101.3333,304.3567 L111.6,303.5439 L121.8667,303.8086 L132.1333,305.1817 L142.4,303.6792 L152.6667,304.522 L162.9333,304.4306 L173.2,303.8034 L183.4667,303.7867 L193.7333,303.4808 L204,304.332 " fill="#FEFECE" style="stroke: #A80036; stroke-width: 1.5;"/><text fill="#000000" font-family="sans-serif" font-size="11" lengthAdjust="spacingAndGlyphs" textLength="144" x="55" y="318.9668">+初期データ取得：getNew()</text><text fill="#000000" font-family="sans-serif" font-size="11" lengthAdjust="spacingAndGlyphs" textLength="83" x="55" y="331.9219">+作成：create()</text><text fill="#000000" font-family="sans-serif" font-size="11" lengthAdjust="spacingAndGlyphs" textLength="87" x="55" y="344.877">+編集：update()</text><text fill="#000000" font-family="sans-serif" font-size="11" lengthAdjust="spacingAndGlyphs" textLength="82" x="55" y="357.832">+削除：delete()</text><text fill="#000000" font-family="sans-serif" font-size="11" lengthAdjust="spacingAndGlyphs" textLength="122" x="55" y="370.7871">+単一データ取得：get()</text><!--class PagesTable--><polygon fill="#FEFECE" filter="url(#fzap0x3)" points="17,437.1992,17,436.4509,26.9623,436.7705,36.9245,437.7305,46.8868,437.2641,56.8491,437.8389,66.8113,436.7602,76.7736,436.8602,86.7358,437.0477,96.6981,437.8588,106.6604,437.6058,116.6226,436.6725,126.5849,437.3139,136.5472,436.5308,146.5094,436.812,156.4717,436.8331,166.434,436.9749,176.3962,436.9562,186.3585,437.7444,196.3208,437.7861,206.283,437.2591,216.2453,437.2298,226.2075,436.7343,236.1698,436.8558,246.1321,436.6783,256.0943,437.8702,266.0566,437.6986,276.0189,436.597,285.9811,437.428,295.9434,437.7204,305.9057,436.911,315.8679,437.1413,325.8302,436.4748,335.7925,436.5185,345.7547,437.6128,355.717,436.9154,365.6792,437.3318,375.6415,436.4803,385.6038,437.7178,395.566,437.8863,405.5283,437.0349,415.4906,437.2686,425.4528,436.948,435.4151,436.9001,445.3774,436.6094,455.3396,436.6432,465.3019,437.8363,475.2642,437.736,485.2264,436.8623,495.1887,437.9033,505.1509,436.644,515.1132,436.6952,525.0755,437.1424,535.0377,436.9322,545,437.1992,545.1743,437.1992,545.1787,447.0709,544.5873,456.9426,545.5541,466.8143,544.4985,476.686,545.0821,486.5577,545.1102,496.4294,544.2892,506.3011,545.5919,516.1728,544.2684,526.0445,544.8036,535.9162,544.2851,545.7879,544.5244,555.6596,545.11,565.5313,545.2772,575.403,544.4446,585.2747,545.5692,595.1464,545.0194,605.0181,545.1187,614.8898,544.949,624.7615,545.4849,634.6332,545.1095,644.5049,545.7438,654.3766,545.1119,664.2483,545.055,674.12,545.4104,683.9917,545.1847,693.8634,544.538,703.7351,544.4062,713.6068,545,723.4785,545,724.0694,535.0377,723.4704,525.0755,723.5704,515.1132,723.8609,505.1509,723.5699,495.1887,724.1082,485.2264,722.8788,475.2642,723.4973,465.3019,723.1599,455.3396,724.1854,445.3774,723.1985,435.4151,723.4291,425.4528,723.171,415.4906,723.0969,405.5283,723.4841,395.566,723.8652,385.6038,723.5433,375.6415,724.1459,365.6792,722.8813,355.717,723.0783,345.7547,722.8456,335.7925,723.4799,325.8302,723.1495,315.8679,724.194,305.9057,723.5943,295.9434,724.2025,285.9811,724.1963,276.0189,723.4089,266.0566,724.0012,256.0943,723.3134,246.1321,723.462,236.1698,724.1319,226.2075,724.2265,216.2453,723.6917,206.283,723.3527,196.3208,722.9238,186.3585,722.7993,176.3962,723.6595,166.434,722.7592,156.4717,723.5026,146.5094,724.0953,136.5472,722.7548,126.5849,723.9383,116.6226,723.9943,106.6604,724.1287,96.6981,724.1982,86.7358,723.6548,76.7736,723.5358,66.8113,723.4241,56.8491,723.6586,46.8868,723.5014,36.9245,723.2764,26.9623,723.3825,17,723.4785,16.8331,723.4785,16.7409,713.6068,17.305,703.7351,16.8676,693.8634,16.3591,683.9917,17.6612,674.12,16.3526,664.2483,16.516,654.3766,17.4429,644.5049,16.575,634.6332,16.5588,624.7615,17.3011,614.8898,17.5262,605.0181,17.4195,595.1464,16.3451,585.2747,16.335,575.403,17.01,565.5313,17.6362,555.6596,16.7071,545.7879,17.5003,535.9162,16.3202,526.0445,16.917,516.1728,17.3262,506.3011,17.0442,496.4294,16.7311,486.5577,16.8048,476.686,17.5976,466.8143,17.0496,456.9426,17.5891,447.0709,17,437.1992" style="stroke: #A80036; stroke-width: 1.5;"/><text fill="#000000" font-family="sans-serif" font-size="12" lengthAdjust="spacingAndGlyphs" textLength="67" x="247.5" y="453.8008">PagesTable</text><path d="M18,461.332 L18,461.0058 L27.9245,462.2958 L37.8491,461.2701 L47.7736,461.4489 L57.6981,461.7341 L67.6226,462.1227 L77.5472,462.257 L87.4717,461.3682 L97.3962,461.1715 L107.3208,461.7167 L117.2453,460.8285 L127.1698,462.0419 L137.0943,460.9227 L147.0189,462.1804 L156.9434,461.3608 L166.8679,460.682 L176.7925,460.922 L186.717,461.8549 L196.6415,461.1851 L206.566,460.9602 L216.4906,461.1245 L226.4151,461.6832 L236.3396,462.194 L246.2642,462.1536 L256.1887,461.7909 L266.1132,462.1935 L276.0377,460.6936 L285.9623,461.0959 L295.8868,461.744 L305.8113,462.1696 L315.7358,460.8645 L325.6604,461.1693 L335.5849,460.9954 L345.5094,461.3335 L355.434,461.0618 L365.3585,461.4206 L375.283,460.3495 L385.2075,462.3059 L395.1321,462.2371 L405.0566,461.4249 L414.9811,461.9889 L424.9057,460.7448 L434.8302,462.0041 L444.7547,461.7413 L454.6792,461.6304 L464.6038,460.8767 L474.5283,462.2987 L484.4528,461.7212 L494.3774,460.6096 L504.3019,460.6443 L514.2264,461.2 L524.1509,462.0258 L534.0755,461.2135 L544,461.332 " fill="#FEFECE" style="stroke: #A80036; stroke-width: 1.5;"/><path d="M18,469.332 L18,468.385 L27.9245,470.2785 L37.8491,468.4982 L47.7736,468.7262 L57.6981,469.3381 L67.6226,469.8324 L77.5472,469.0109 L87.4717,468.986 L97.3962,469.3448 L107.3208,469.5467 L117.2453,469.5689 L127.1698,468.7758 L137.0943,468.8619 L147.0189,469.4776 L156.9434,470.3021 L166.8679,470.0742 L176.7925,468.8538 L186.717,469.8159 L196.6415,470.0135 L206.566,470.0955 L216.4906,469.2571 L226.4151,469.6236 L236.3396,469.6778 L246.2642,469.1266 L256.1887,468.5318 L266.1132,468.6676 L276.0377,468.6954 L285.9623,469.4439 L295.8868,469.318 L305.8113,468.586 L315.7358,468.8068 L325.6604,469.0491 L335.5849,468.4106 L345.5094,469.9281 L355.434,469.3591 L365.3585,469.6124 L375.283,469.1459 L385.2075,470.0989 L395.1321,470.0921 L405.0566,468.8418 L414.9811,468.8611 L424.9057,469.916 L434.8302,469.7719 L444.7547,469.5239 L454.6792,469.3458 L464.6038,469.3515 L474.5283,468.8509 L484.4528,468.6842 L494.3774,470.1441 L504.3019,470.0868 L514.2264,469.8696 L524.1509,468.7177 L534.0755,469.2025 L544,469.332 " fill="#FEFECE" style="stroke: #A80036; stroke-width: 1.5;"/><text fill="#000000" font-family="sans-serif" font-size="11" lengthAdjust="spacingAndGlyphs" textLength="263" x="23" y="483.9668">+ページをコピーする：copy()※ PageService に移行</text><text fill="#000000" font-family="sans-serif" font-size="11" lengthAdjust="spacingAndGlyphs" textLength="248" x="23" y="496.9219">+検索用データを生成する：createSearchIndex()</text><text fill="#000000" font-family="sans-serif" font-size="11" lengthAdjust="spacingAndGlyphs" textLength="328" x="23" y="509.877">+初期値を取得する：getDefaultValue() ※ Page::getNew() に移行</text><text fill="#000000" font-family="sans-serif" font-size="11" lengthAdjust="spacingAndGlyphs" textLength="460" x="23" y="522.832">+固定ページテンプレートリストを取得する：getPageTemplateList() ※ PageService に移行</text><text fill="#000000" font-family="sans-serif" font-size="11" lengthAdjust="spacingAndGlyphs" textLength="390" x="23" y="535.7871">+コントロールソースを取得する：getControlSource() ※ PageService に移行</text><text fill="#000000" font-family="sans-serif" font-size="11" lengthAdjust="spacingAndGlyphs" textLength="325" x="23" y="548.7422">+PHP構文チェック：phpValidSyntax() ※ PageValidation に移行</text><text fill="#000000" font-family="sans-serif" font-size="11" lengthAdjust="spacingAndGlyphs" textLength="193" x="23" y="561.6973">+削除：delete() ※ baserCMS５で廃止</text><text fill="#000000" font-family="sans-serif" font-size="11" lengthAdjust="spacingAndGlyphs" textLength="308" x="23" y="574.6523">+最終登録IDを取得する：getInsertID() ※ baserCMS５で廃止</text><text fill="#000000" font-family="sans-serif" font-size="11" lengthAdjust="spacingAndGlyphs" textLength="352" x="23" y="587.6074">+URLより固定ページデータを探す：findByUrl() ※ baserCMS５で廃止</text><text fill="#000000" font-family="sans-serif" font-size="11" lengthAdjust="spacingAndGlyphs" textLength="253" x="23" y="600.5625">+getParentPageTemplate() ※ baserCMS５で廃止</text><text fill="#000000" font-family="sans-serif" font-size="11" lengthAdjust="spacingAndGlyphs" textLength="452" x="23" y="613.5176">+固定ページとして管理されているURLかチェックする：isPageUrl() ※ baserCMS５で廃止</text><text fill="#000000" font-family="sans-serif" font-size="11" lengthAdjust="spacingAndGlyphs" textLength="428" x="23" y="626.4727">+本文にbaserが管理するタグを追加する：addBaserPageTag() ※ baserCMS５で廃止</text><text fill="#000000" font-family="sans-serif" font-size="11" lengthAdjust="spacingAndGlyphs" textLength="443" x="23" y="639.4277">+コンテンツフォルダのパスを取得する：getContentFolderPath() ※ baserCMS５で廃止</text><text fill="#000000" font-family="sans-serif" font-size="11" lengthAdjust="spacingAndGlyphs" textLength="506" x="23" y="652.3828">+ページテンプレートファイルが開けるかチェックする：checkOpenPageFile() ※ baserCMS５で廃止</text><text fill="#000000" font-family="sans-serif" font-size="11" lengthAdjust="spacingAndGlyphs" textLength="516" x="23" y="665.3379">+DBデータを元にページテンプレートを全て生成する：createAllPageTemplate() ※ baserCMS５で廃止</text><text fill="#000000" font-family="sans-serif" font-size="11" lengthAdjust="spacingAndGlyphs" textLength="400" x="23" y="678.293">+ページテンプレートを生成する：createPageTemplate() ※ baserCMS５で廃止</text><text fill="#000000" font-family="sans-serif" font-size="11" lengthAdjust="spacingAndGlyphs" textLength="305" x="23" y="691.248">+ページファイルを削除する：delFile() ※ baserCMS５で廃止</text><text fill="#000000" font-family="sans-serif" font-size="11" lengthAdjust="spacingAndGlyphs" textLength="348" x="23" y="704.2031">+ページファイルを登録する：entryPageFiles() ※ baserCMS５で廃止</text><text fill="#000000" font-family="sans-serif" font-size="11" lengthAdjust="spacingAndGlyphs" textLength="387" x="23" y="717.1582">+ページファイルのパスを取得する：getPageFilePath() ※ baserCMS５で廃止</text><!--class Page--><polygon fill="#FEFECE" filter="url(#fzap0x3)" points="158,783.1992,158,783.5089,167.84,782.6059,177.68,783.6396,187.52,782.703,197.36,783.772,207.2,783.2258,217.04,782.6643,226.88,783.4539,236.72,783.0573,246.56,783.8849,256.4,783.0123,266.24,782.6172,276.08,782.8033,285.92,782.7982,295.76,782.5681,305.6,782.5905,315.44,783.6169,325.28,783.0489,335.12,782.6717,344.96,782.6194,354.8,783.8886,364.64,783.2742,374.48,783.3012,384.32,782.5424,394.16,782.4736,404,783.1992,404.5579,783.1992,403.3727,793.4162,404.488,803.6332,403.8382,813.8503,403.7939,824.0673,404.1801,834.2843,403.4343,844.5013,404.0214,854.7183,404.6502,864.9353,404,875.1523,404,875.7789,394.16,874.6283,384.32,875.4235,374.48,875.6931,364.64,875.7294,354.8,874.8911,344.96,875.6804,335.12,875.2688,325.28,874.4321,315.44,875.2147,305.6,875.5808,295.76,875.4619,285.92,875.129,276.08,875.561,266.24,875.4574,256.4,875.83,246.56,874.9539,236.72,875.3922,226.88,875.1759,217.04,874.5172,207.2,874.6826,197.36,875.6524,187.52,875.2465,177.68,875.2855,167.84,875.5561,158,875.1523,157.5394,875.1523,158.534,864.9353,157.3219,854.7183,157.7949,844.5013,157.5484,834.2843,158.6398,824.0673,157.2601,813.8503,157.4225,803.6332,157.8015,793.4162,158,783.1992" style="stroke: #A80036; stroke-width: 1.5;"/><text fill="#000000" font-family="sans-serif" font-size="12" lengthAdjust="spacingAndGlyphs" textLength="28" x="267" y="799.8008">Page</text><path d="M159,807.332 L159,807.5289 L169.1667,807.4541 L179.3333,808.1997 L189.5,807.6931 L199.6667,806.9598 L209.8333,806.8941 L220,806.8341 L230.1667,807.2452 L240.3333,806.4076 L250.5,808.2123 L260.6667,806.8264 L270.8333,807.1947 L281,806.8628 L291.1667,808.2217 L301.3333,807.9143 L311.5,806.9677 L321.6667,806.8204 L331.8333,807.7332 L342,807.5224 L352.1667,806.34 L362.3333,806.7427 L372.5,806.9785 L382.6667,808.2224 L392.8333,807.8568 L403,807.332 " fill="#FEFECE" style="stroke: #A80036; stroke-width: 1.5;"/><text fill="#000000" font-family="sans-serif" font-size="11" lengthAdjust="spacingAndGlyphs" textLength="111" x="164" y="821.9668">+本稿記事：contents</text><text fill="#000000" font-family="sans-serif" font-size="11" lengthAdjust="spacingAndGlyphs" textLength="90" x="164" y="834.9219">+草稿記事：draft</text><text fill="#000000" font-family="sans-serif" font-size="11" lengthAdjust="spacingAndGlyphs" textLength="219" x="164" y="847.877">+固定ページテンプレート：page_template</text><text fill="#000000" font-family="sans-serif" font-size="11" lengthAdjust="spacingAndGlyphs" textLength="234" x="164" y="860.832">+埋め込みコード：code ※ baserCMS５で廃止</text><path d="M159,867.1523 L159,866.5016 L169.1667,866.4 L179.3333,867.7741 L189.5,866.979 L199.6667,867.7623 L209.8333,866.4665 L220,866.5268 L230.1667,866.7362 L240.3333,867.4211 L250.5,867.8139 L260.6667,866.4514 L270.8333,866.3972 L281,866.6179 L291.1667,866.3942 L301.3333,866.8263 L311.5,867.1519 L321.6667,867.8536 L331.8333,866.82 L342,866.9563 L352.1667,867.3907 L362.3333,867.0107 L372.5,867.3353 L382.6667,866.9107 L392.8333,866.5082 L403,867.1523 " fill="#FEFECE" style="stroke: #A80036; stroke-width: 1.5;"/><path d="M380.77,212.3592 L380.278,211.9184 L373.8147,219.5161 L368.1148,227.7978 L360.0651,233.9741 L353.8421,241.7871 L347.9021,249.8538 L340.2403,256.3776 L334.8194,264.9094 L326.9973,271.2895 L321.6119,279.8531 L313.6828,286.1374 L307.57,294.0492 " fill="none" style="stroke: #000000; stroke-width: 1.0;"/><polygon fill="#000000" points="304.04,297.9892,304.0902,298.1005,305.8169,297.1379,307.5337,296.1533,309.3922,295.483,311.2814,294.8806,313.0176,293.9392,313.0315,294.1844,311.8784,293.8326,310.7551,294.007,309.6303,294.1552,308.5058,294.3085,307.3698,294.2593,307.1366,294.2461,307.2968,293.1292,307.1222,291.9934,307.0651,290.8642,307.0069,289.735,307.0497,288.6115,307.0963,288.6264,306.671,290.5587,305.7437,292.3298,305.0564,294.178,304.6376,296.1123,304.04,297.9892" style="stroke: #000000; stroke-width: 1.0;"/><path d="M122.92,147.2792 L123.1109,147.4503 L129.0137,154.1881 L135.3643,161.3271 L141.9708,168.6954 L148.8379,176.2972 L156.4713,184.5856 L162.8793,191.7761 L169.0005,198.7096 L175.6214,206.0908 L182.5312,213.7309 L188.2333,220.2888 L195.576,228.3169 L201.6458,235.2043 L208.5928,242.8777 L215.3239,250.3576 L222.2057,257.9726 L227.708,264.3515 L234.2217,271.6367 L241.4243,279.5392 L248.0364,286.9125 L254.63,294.2692 " fill="none" style="stroke: #000000; stroke-width: 1.0;"/><polygon fill="#000000" points="257.98,298.0092,257.9564,298.0015,257.333,296.1239,256.8065,294.2778,256.0112,292.3443,255.522,290.5103,254.9325,288.6437,254.796,288.6365,254.8972,289.7748,254.9735,290.9117,254.7415,292.0325,254.7296,293.1648,254.6352,294.2927,254.6392,294.3697,253.5172,294.4573,252.3814,294.2855,251.2415,294.0332,250.1237,294.2021,248.9861,293.9954,249.0343,294.1034,250.7752,294.7763,252.5094,295.4345,254.398,296.4386,256.2677,297.4003,257.98,298.0092" style="stroke: #000000; stroke-width: 1.0;"/><path d="M326.81,324.6992 L326.81,324.6075 L332.706,324.47 L338.602,324.9343 L344.498,324.9457 L350.394,325.0088 L356.29,324.6992 " fill="none" style="stroke: #000000; stroke-width: 1.0;"/><polygon fill="#000000" points="321.67,324.6992,321.6572,324.6704,323.5156,325.6018,325.2731,326.3062,327.0995,327.1656,328.8027,327.7477,330.67,328.6992,330.5216,328.5508,329.7543,327.7835,329.1615,327.1907,328.1037,326.1329,327.4847,325.5139,326.67,324.6992,326.6585,324.6877,327.6018,324.031,328.4171,323.2463,329.0101,322.2393,329.9982,321.6274,330.67,320.6992,330.6738,320.7078,328.9575,321.6962,326.9783,322.0928,325.342,323.2612,323.4308,323.8111,321.67,324.6992" style="stroke: #000000; stroke-width: 1.0;"/><path d="M281,351.3992 L280.1868,351.3992 L281.3987,361.4642 L280.3602,371.5292 L280.3176,381.5942 L281.8034,391.6592 L280.9243,401.7242 L280.4904,411.7892 L281.2444,421.8542 L281,431.9192 " fill="none" style="stroke: #000000; stroke-width: 1.0;"/><polygon fill="#000000" points="281,436.9292,281.0772,436.9635,281.9041,435.1755,282.5635,433.313,283.5423,431.5925,284.1598,429.7113,285,427.9292,285.1033,428.0326,284.3403,428.8695,283.3676,429.4968,282.4392,430.1684,281.7262,431.0554,281,431.9292,280.9766,431.9058,280.174,431.1032,279.4652,430.3945,278.4293,429.3585,277.818,428.7472,277,427.9292,276.7856,427.8339,277.5799,429.6314,278.4419,431.459,279.4221,433.339,280.267,435.159,281,436.9292" style="stroke: #000000; stroke-width: 1.0;"/><path d="M225.3,324.6992 L225.3,324.9986 L228.328,324.4985 L231.356,324.4689 L234.384,324.9516 L237.412,324.3977 L240.44,324.6992 " fill="none" style="stroke: #000000; stroke-width: 1.0; stroke-dasharray: 1.0,3.0;"/><polygon fill="none" points="225.2,331.6992,225.2697,331.8983,221.2177,330.3497,217.1804,328.8431,213.2485,327.6379,209.2236,326.1666,205.2,324.6992,205.2133,324.7372,209.2502,323.4428,213.1341,321.711,217.261,320.6735,221.2126,319.1353,225.2,317.6992,225.0717,317.6992,225.0768,320.4992,225.4265,323.2992,225.036,326.0992,225.0946,328.8992,225.2,331.6992" style="stroke: #000000; stroke-width: 1.0;"/><path d="M281,723.4492 L280.162,723.4492 L281.755,734.2972 L281.8458,745.1452 L281.5412,755.9932 L280.0386,766.8412 L281,777.6892 " fill="none" style="stroke: #000000; stroke-width: 1.0;"/><polygon fill="#000000" points="281,783.0592,281.0429,783.0783,281.8847,781.2969,282.6614,779.4865,283.4457,777.6795,284.1805,775.8506,285,774.0592,285.0713,774.1305,284.0566,774.7158,283.543,775.8023,282.5332,776.3924,281.9608,777.42,281,778.0592,280.8994,777.9586,280.2401,777.2993,279.433,776.4922,278.4465,775.5057,277.7927,774.8519,277,774.0592,276.9815,774.051,277.8073,775.8625,278.5335,777.6297,279.4441,779.4788,280.05,781.1925,281,783.0592" style="stroke: #000000; stroke-width: 1.0;"/></g></svg>