<?xml version="1.0" encoding="UTF-8" standalone="no"?><svg xmlns="http://www.w3.org/2000/svg" xmlns:xlink="http://www.w3.org/1999/xlink" contentScriptType="application/ecmascript" contentStyleType="text/css" height="884px" preserveAspectRatio="none" style="width:897px;height:884px;" version="1.1" viewBox="0 0 897 884" width="897px" zoomAndPan="magnify"><defs><filter height="300%" id="f9xo004" width="300%" x="-1" y="-1"><feGaussianBlur result="blurOut" stdDeviation="2.0"/><feColorMatrix in="blurOut" result="blurOut2" type="matrix" values="0 0 0 0 0 0 0 0 0 0 0 0 0 0 0 0 0 0 .4 0"/><feOffset dx="4.0" dy="4.0" in="blurOut2" result="blurOut3"/><feBlend in="SourceGraphic" in2="blurOut3" mode="normal"/></filter></defs><g><text fill="#000000" font-family="sans-serif" font-size="18" lengthAdjust="spacingAndGlyphs" textLength="108" x="399" y="17.4023">ユーザー管理</text><!--class Admin\UsersController--><polygon fill="#FEFECE" filter="url(#f9xo004)" points="379.5,29.1992,379.5,29.3531,389.4474,29.3935,399.3947,29.6441,409.3421,29.1075,419.2895,29.2904,429.2368,29.1157,439.1842,29.6915,449.1316,29.7948,459.0789,28.9906,469.0263,28.5997,478.9737,28.8452,488.9211,29.1008,498.8684,29.5034,508.8158,29.0303,518.7632,28.7604,528.7105,29.9314,538.6579,29.626,548.6053,29.0167,558.5526,29.7289,568.5,29.1992,568.8575,29.1992,569.1073,39.1806,569.1127,49.162,567.9131,59.1434,569.2037,69.1248,568.0388,79.1062,568.1061,89.0875,569.1016,99.0689,568.0748,109.0503,568.8418,119.0317,568.4214,129.0131,568.0948,138.9945,567.8101,148.9759,569.0249,158.9573,568.2239,168.9386,568.1984,178.92,567.8148,188.9014,568.5,198.8828,568.5,198.4242,558.5526,198.9427,548.6053,198.1891,538.6579,198.9192,528.7105,199.5905,518.7632,198.6084,508.8158,198.1728,498.8684,198.6801,488.9211,198.4131,478.9737,198.6741,469.0263,198.5319,459.0789,198.8207,449.1316,199.4805,439.1842,198.8693,429.2368,198.6688,419.2895,198.3479,409.3421,198.5088,399.3947,199.5681,389.4474,198.9387,379.5,198.8828,379.8535,198.8828,380.0155,188.9014,379.7179,178.92,379.6072,168.9386,379.2929,158.9573,378.8634,148.9759,379.1757,138.9945,379.9748,129.0131,380.0346,119.0317,379.3026,109.0503,379.7676,99.0689,379.906,89.0875,379.5404,79.1062,379.7805,69.1248,380.1345,59.1434,379.0037,49.162,378.9041,39.1806,379.5,29.1992" style="stroke: #A80036; stroke-width: 1.5;"/><text fill="#000000" font-family="sans-serif" font-size="12" lengthAdjust="spacingAndGlyphs" textLength="131" x="408.5" y="45.8008">Admin\UsersController</text><path d="M380.5,53.332 L380.5,53.2965 L390.3421,53.0997 L400.1842,52.5931 L410.0263,52.6323 L419.8684,52.5742 L429.7105,52.5256 L439.5526,52.3968 L449.3947,53.707 L459.2368,52.383 L469.0789,52.3716 L478.9211,53.6986 L488.7632,53.6208 L498.6053,52.56 L508.4474,53.0406 L518.2895,54.2684 L528.1316,52.7145 L537.9737,53.799 L547.8158,54.1148 L557.6579,53.27 L567.5,53.332 " fill="#FEFECE" style="stroke: #A80036; stroke-width: 1.5;"/><text fill="#000000" font-family="sans-serif" font-size="11" lengthAdjust="spacingAndGlyphs" textLength="151" x="385.5" y="67.9668">+AuthenticationComponent</text><text fill="#000000" font-family="sans-serif" font-size="11" lengthAdjust="spacingAndGlyphs" textLength="130" x="385.5" y="80.9219">+BcMessageComponent</text><path d="M380.5,87.2422 L380.5,87.8743 L390.3421,86.4016 L400.1842,86.3394 L410.0263,87.4636 L419.8684,86.9312 L429.7105,86.5136 L439.5526,88.1237 L449.3947,87.5338 L459.2368,88.0192 L469.0789,87.0542 L478.9211,87.1961 L488.7632,86.791 L498.6053,88.1685 L508.4474,86.6272 L518.2895,86.426 L528.1316,88.041 L537.9737,87.722 L547.8158,87.9317 L557.6579,86.8497 L567.5,87.2422 " fill="#FEFECE" style="stroke: #A80036; stroke-width: 1.5;"/><text fill="#000000" font-family="sans-serif" font-size="11" lengthAdjust="spacingAndGlyphs" textLength="99" x="385.5" y="101.877">+ログイン：login()</text><text fill="#000000" font-family="sans-serif" font-size="11" lengthAdjust="spacingAndGlyphs" textLength="157" x="385.5" y="114.832">+代理ログイン：login_agent()</text><text fill="#000000" font-family="sans-serif" font-size="11" lengthAdjust="spacingAndGlyphs" textLength="177" x="385.5" y="127.7871">+代理ログイン解除：back_agent()</text><text fill="#000000" font-family="sans-serif" font-size="11" lengthAdjust="spacingAndGlyphs" textLength="118" x="385.5" y="140.7422">+ログアウト：logout()</text><text fill="#000000" font-family="sans-serif" font-size="11" lengthAdjust="spacingAndGlyphs" textLength="157" x="385.5" y="153.6973">+ユーザー一覧を表示：index()</text><text fill="#000000" font-family="sans-serif" font-size="11" lengthAdjust="spacingAndGlyphs" textLength="136" x="385.5" y="166.6523">+ユーザー新規追加：add()</text><text fill="#000000" font-family="sans-serif" font-size="11" lengthAdjust="spacingAndGlyphs" textLength="114" x="385.5" y="179.6074">+ユーザー編集：edit()</text><text fill="#000000" font-family="sans-serif" font-size="11" lengthAdjust="spacingAndGlyphs" textLength="126" x="385.5" y="192.5625">+ユーザー削除：delete()</text><!--class BcAdminUserHelper--><polygon fill="#FEFECE" filter="url(#f9xo004)" points="566,343.1992,566,343.1042,576.0625,343.3442,586.125,342.931,596.1875,343.7176,606.25,342.8095,616.3125,343.6321,626.375,343.2359,636.4375,343.4078,646.5,342.5397,656.5625,342.7444,666.625,342.77,676.6875,343.0057,686.75,342.4942,696.8125,343.5142,706.875,343.742,716.9375,343.7878,727,343.1558,737.0625,343.7489,747.125,343.3493,757.1875,342.5838,767.25,343.6883,777.3125,343.8281,787.375,343.0502,797.4375,342.8598,807.5,342.8303,817.5625,343.1936,827.625,343.7325,837.6875,343.1977,847.75,343.0251,857.8125,343.2013,867.875,342.9797,877.9375,343.2925,888,343.1992,887.8272,343.1992,888.5213,353.4162,887.4151,363.6332,888.3435,373.8503,888.6121,384.0673,887.2874,394.2843,887.8153,404.5013,888.0217,414.7183,888.0891,424.9353,888,435.1523,888,434.9894,877.9375,434.7875,867.875,434.5248,857.8125,434.9873,847.75,435.0327,837.6875,435.6808,827.625,434.4512,817.5625,435.0603,807.5,435.8439,797.4375,434.4249,787.375,435.2218,777.3125,435.3392,767.25,435.6898,757.1875,435.4616,747.125,435.8479,737.0625,434.8088,727,434.4428,716.9375,435.8262,706.875,434.4595,696.8125,434.7679,686.75,434.8705,676.6875,435.2145,666.625,434.63,656.5625,434.5664,646.5,434.6317,636.4375,434.5462,626.375,435.6865,616.3125,435.688,606.25,434.7538,596.1875,435.318,586.125,434.5717,576.0625,435.2818,566,435.1523,566.6628,435.1523,566.1527,424.9353,566.1594,414.7183,565.4608,404.5013,566.0539,394.2843,566.6089,384.0673,565.9332,373.8503,566.6937,363.6332,566.0453,353.4162,566,343.1992" style="stroke: #A80036; stroke-width: 1.5;"/><text fill="#000000" font-family="sans-serif" font-size="12" lengthAdjust="spacingAndGlyphs" textLength="115" x="669.5" y="359.8008">BcAdminUserHelper</text><path d="M567,367.332 L567,367.3811 L577,367.5039 L587,367.254 L597,367.9287 L607,367.1271 L617,368.1627 L627,368.159 L637,367.209 L647,367.7303 L657,367.0832 L667,367.09 L677,367.1369 L687,366.7138 L697,367.589 L707,366.8719 L717,367.0082 L727,366.9753 L737,366.6017 L747,366.5664 L757,366.3516 L767,366.6057 L777,366.3541 L787,367.6821 L797,366.4149 L807,367.6391 L817,368.0258 L827,368.004 L837,367.4864 L847,366.6692 L857,367.0689 L867,368.0824 L877,367.8833 L887,367.332 " fill="#FEFECE" style="stroke: #A80036; stroke-width: 1.5;"/><path d="M567,375.332 L567,376.3278 L577,375.352 L587,374.9425 L597,376.0128 L607,375.1182 L617,374.5411 L627,374.5484 L637,375.4249 L647,376.0335 L657,374.3717 L667,374.9569 L677,376.2299 L687,375.7617 L697,374.6357 L707,375.9391 L717,374.6374 L727,376.0903 L737,374.8124 L747,376.1261 L757,375.7059 L767,375.3707 L777,376.3204 L787,375.4534 L797,374.6499 L807,374.5901 L817,375.3474 L827,374.8328 L837,375.2568 L847,375.7183 L857,375.1368 L867,374.5695 L877,376.1026 L887,375.332 " fill="#FEFECE" style="stroke: #A80036; stroke-width: 1.5;"/><text fill="#000000" font-family="sans-serif" font-size="11" lengthAdjust="spacingAndGlyphs" textLength="303" x="572" y="389.9668">+ログインユーザー自身の更新かどうか確認：isSelfUpdate()</text><text fill="#000000" font-family="sans-serif" font-size="11" lengthAdjust="spacingAndGlyphs" textLength="211" x="572" y="402.9219">+更新ができるかどうか確認：isEditable()</text><text fill="#000000" font-family="sans-serif" font-size="11" lengthAdjust="spacingAndGlyphs" textLength="218" x="572" y="415.877">+削除ができるかどうか確認：isDeletable()</text><text fill="#000000" font-family="sans-serif" font-size="11" lengthAdjust="spacingAndGlyphs" textLength="310" x="572" y="428.832">+ユーザーグループ選択用のリスト取得：getUserGroupList()</text><!--class UserService--><polygon fill="#FEFECE" filter="url(#f9xo004)" points="417,356.1992,417,356.3712,427.3636,356.299,437.7273,356.7573,448.0909,356.9484,458.4545,355.4615,468.8182,356.5811,479.1818,356.6242,489.5455,355.7831,499.9091,355.7374,510.2727,356.4682,520.6364,355.9309,531,356.1992,530.8746,356.1992,531.2217,365.6339,531.0929,375.0686,531.0386,384.5033,531.4981,393.9381,530.8041,403.3728,530.8661,412.8075,531,422.2422,531,422.4724,520.6364,421.6781,510.2727,422.0944,499.9091,422.3486,489.5455,422.569,479.1818,421.5486,468.8182,422.1753,458.4545,421.9852,448.0909,422.0686,437.7273,422.5815,427.3636,422.7009,417,422.2422,417.0952,422.2422,416.5795,412.8075,416.9546,403.3728,416.5495,393.9381,417.1813,384.5033,417.0981,375.0686,417.5395,365.6339,417,356.1992" style="stroke: #A80036; stroke-width: 1.5;"/><text fill="#000000" font-family="sans-serif" font-size="12" lengthAdjust="spacingAndGlyphs" textLength="66" x="441" y="372.8008">UserService</text><path d="M418,380.332 L418,379.8501 L428.1818,380.7835 L438.3636,379.8956 L448.5455,379.8701 L458.7273,380.9843 L468.9091,380.0749 L479.0909,379.9684 L489.2727,380.6346 L499.4545,381.1056 L509.6364,379.7454 L519.8182,380.2933 L530,380.332 " fill="#FEFECE" style="stroke: #A80036; stroke-width: 1.5;"/><text fill="#000000" font-family="sans-serif" font-size="11" lengthAdjust="spacingAndGlyphs" textLength="69" x="423" y="394.9668">+UsersTable</text><text fill="#000000" font-family="sans-serif" font-size="11" lengthAdjust="spacingAndGlyphs" textLength="102" x="423" y="407.9219">+LoginStoresTable</text><path d="M418,414.2422 L418,414.0598 L428.1818,413.467 L438.3636,415.2305 L448.5455,415.0643 L458.7273,413.7063 L468.9091,414.6134 L479.0909,413.7182 L489.2727,414.5392 L499.4545,414.1311 L509.6364,415.0763 L519.8182,413.3802 L530,414.2422 " fill="#FEFECE" style="stroke: #A80036; stroke-width: 1.5;"/><!--class UserServiceInterface--><polygon fill="#FEFECE" filter="url(#f9xo004)" points="6,259.1992,6,258.7813,15.8947,259.1803,25.7895,258.7826,35.6842,259.8526,45.5789,259.2217,55.4737,259.5726,65.3684,258.9112,75.2632,259.3148,85.1579,258.7081,95.0526,259.9185,104.9474,259.8238,114.8421,259.4313,124.7368,259.2353,134.6316,258.5126,144.5263,258.7391,154.4211,258.8698,164.3158,259.1766,174.2105,259.5353,184.1053,259.4734,194,259.2276,203.8947,258.5122,213.7895,259.6107,223.6842,258.6097,233.5789,259.5641,243.4737,259.696,253.3684,258.833,263.2632,259.1417,273.1579,259.1912,283.0526,259.8291,292.9474,259.4528,302.8421,259.2792,312.7368,258.8098,322.6316,258.8031,332.5263,258.6987,342.4211,259.8203,352.3158,258.6477,362.2105,258.6406,372.1053,259.1823,382,259.1992,381.3399,259.1992,382.0724,269.2134,381.7133,279.2276,381.3206,289.2418,381.7138,299.256,382.5168,309.2702,382.6322,319.2844,382.4908,329.2986,382.5154,339.3128,381.7991,349.327,382.2285,359.3412,382.0331,369.3554,381.8227,379.3696,381.7652,389.3838,382.395,399.398,381.9856,409.4122,382.3616,419.4264,382.5428,429.4406,382.0471,439.4548,382.455,449.469,382.2791,459.4832,382.1613,469.4974,382.6797,479.5116,382.4087,489.5258,382.459,499.54,382.1354,509.5542,382,519.5684,382,519.7914,372.1053,520.2481,362.2105,519.9052,352.3158,519.567,342.4211,519.8564,332.5263,519.849,322.6316,519.907,312.7368,519.9851,302.8421,519.7359,292.9474,519.9966,283.0526,520.1359,273.1579,520.1745,263.2632,518.8772,253.3684,520.2599,243.4737,520.258,233.5789,519.9016,223.6842,519.468,213.7895,518.957,203.8947,520.1926,194,518.8401,184.1053,520.2867,174.2105,519.3441,164.3158,519.1953,154.4211,520.0195,144.5263,519.0508,134.6316,519.7582,124.7368,519.7335,114.8421,519.0061,104.9474,519.6596,95.0526,519.6983,85.1579,520.1931,75.2632,519.3218,65.3684,519.4705,55.4737,518.856,45.5789,519.9214,35.6842,518.9166,25.7895,520.063,15.8947,518.8348,6,519.5684,5.3417,519.5684,5.7156,509.5542,6.2771,499.54,6.1622,489.5258,5.9705,479.5116,5.4567,469.4974,5.264,459.4832,6.3112,449.469,6.1934,439.4548,6.277,429.4406,5.4052,419.4264,6.3522,409.4122,5.3186,399.398,5.5238,389.3838,5.4811,379.3696,6.2874,369.3554,6.6498,359.3412,6.4552,349.327,6.2849,339.3128,5.4772,329.2986,6.6885,319.2844,5.4641,309.2702,5.603,299.256,5.9446,289.2418,5.3603,279.2276,5.4692,269.2134,6,259.1992" style="stroke: #A80036; stroke-width: 1.5;"/><text fill="#000000" font-family="sans-serif" font-size="12" lengthAdjust="spacingAndGlyphs" textLength="116" x="136" y="275.8008">UserServiceInterface</text><path d="M7,283.332 L7,282.4912 L17.1081,283.3615 L27.2162,283.0968 L37.3243,282.8266 L47.4324,283.0824 L57.5405,284.2973 L67.6486,283.1149 L77.7568,283.1569 L87.8649,283.9177 L97.973,282.3793 L108.0811,283.2142 L118.1892,283.7023 L128.2973,283.7201 L138.4054,284.0933 L148.5135,284.0637 L158.6216,283.7124 L168.7297,282.8022 L178.8378,284.0198 L188.9459,283.0301 L199.0541,283.1151 L209.1622,284.3039 L219.2703,283.243 L229.3784,282.5342 L239.4865,282.7365 L249.5946,283.4093 L259.7027,283.8488 L269.8108,284.0524 L279.9189,282.9654 L290.027,282.7057 L300.1351,283.8758 L310.2432,282.9532 L320.3514,284.0871 L330.4595,282.5044 L340.5676,282.7868 L350.6757,282.9763 L360.7838,282.929 L370.8919,283.0336 L381,283.332 " fill="#FEFECE" style="stroke: #A80036; stroke-width: 1.5;"/><path d="M7,291.332 L7,292.1648 L17.1081,291.2268 L27.2162,291.819 L37.3243,290.9434 L47.4324,291.9154 L57.5405,291.0511 L67.6486,291.1533 L77.7568,291.5292 L87.8649,290.7701 L97.973,291.1012 L108.0811,292.101 L118.1892,290.4852 L128.2973,291.3371 L138.4054,292.2614 L148.5135,291.1445 L158.6216,290.8398 L168.7297,290.3328 L178.8378,291.9282 L188.9459,291.26 L199.0541,292.006 L209.1622,291.9568 L219.2703,291.3771 L229.3784,291.5904 L239.4865,290.595 L249.5946,290.6343 L259.7027,290.6387 L269.8108,290.4422 L279.9189,290.7961 L290.027,290.5501 L300.1351,290.4279 L310.2432,291.3595 L320.3514,291.7182 L330.4595,291.5415 L340.5676,292.2309 L350.6757,290.8856 L360.7838,292.1175 L370.8919,291.9875 L381,291.332 " fill="#FEFECE" style="stroke: #A80036; stroke-width: 1.5;"/><text fill="#000000" font-family="sans-serif" font-size="11" lengthAdjust="spacingAndGlyphs" textLength="144" x="12" y="305.9668">+初期データ取得：getNew()</text><text fill="#000000" font-family="sans-serif" font-size="11" lengthAdjust="spacingAndGlyphs" textLength="83" x="12" y="318.9219">+作成：create()</text><text fill="#000000" font-family="sans-serif" font-size="11" lengthAdjust="spacingAndGlyphs" textLength="87" x="12" y="331.877">+編集：update()</text><text fill="#000000" font-family="sans-serif" font-size="11" lengthAdjust="spacingAndGlyphs" textLength="82" x="12" y="344.832">+削除：delete()</text><text fill="#000000" font-family="sans-serif" font-size="11" lengthAdjust="spacingAndGlyphs" textLength="122" x="12" y="357.7871">+単一データ取得：get()</text><text fill="#000000" font-family="sans-serif" font-size="11" lengthAdjust="spacingAndGlyphs" textLength="152" x="12" y="370.7422">+一覧データ取得：getIndex()</text><text fill="#000000" font-family="sans-serif" font-size="11" lengthAdjust="spacingAndGlyphs" textLength="119" x="12" y="383.6973">+リスト取得：getList()</text><text fill="#000000" font-family="sans-serif" font-size="11" lengthAdjust="spacingAndGlyphs" textLength="99" x="12" y="396.6523">+ログイン：login()</text><text fill="#000000" font-family="sans-serif" font-size="11" lengthAdjust="spacingAndGlyphs" textLength="118" x="12" y="409.6074">+ログアウト：logout()</text><text fill="#000000" font-family="sans-serif" font-size="11" lengthAdjust="spacingAndGlyphs" textLength="124" x="12" y="422.5625">+再ログイン：reLogin()</text><text fill="#000000" font-family="sans-serif" font-size="11" lengthAdjust="spacingAndGlyphs" textLength="200" x="12" y="435.5176">+代理ログインを行う：loginToAgent()</text><text fill="#000000" font-family="sans-serif" font-size="11" lengthAdjust="spacingAndGlyphs" textLength="364" x="12" y="448.4727">+代理ログインから元のユーザーに戻る：returnLoginUserFromAgent()</text><text fill="#000000" font-family="sans-serif" font-size="11" lengthAdjust="spacingAndGlyphs" textLength="285" x="12" y="461.4277">+認証用のセッションキーを取得：getAuthSessionKey()</text><text fill="#000000" font-family="sans-serif" font-size="11" lengthAdjust="spacingAndGlyphs" textLength="266" x="12" y="474.3828">+ログインキーをセット：setCookieAutoLoginKey()</text><text fill="#000000" font-family="sans-serif" font-size="11" lengthAdjust="spacingAndGlyphs" textLength="238" x="12" y="487.3379">+ログインキーを削除する：removeLoginKey()</text><text fill="#000000" font-family="sans-serif" font-size="11" lengthAdjust="spacingAndGlyphs" textLength="236" x="12" y="500.293">+ログイン状態の保存確認：checkAutoLogin()</text><text fill="#000000" font-family="sans-serif" font-size="11" lengthAdjust="spacingAndGlyphs" textLength="205" x="12" y="513.248">+ログイン情報をリロードする：reload()</text><!--class UsersTable--><polygon fill="#FEFECE" filter="url(#f9xo004)" points="274,579.1992,274,579.4413,284,579.2638,294,579.251,304,579.2139,314,578.6317,324,579.1703,334,579.478,344,579.6858,354,578.5725,364,578.8828,374,579.0797,384,579.4428,394,578.8331,404,579.9283,414,579.235,424,579.1144,434,579.4462,444,579.804,454,579.6934,464,579.2074,474,578.4749,484,578.6098,494,579.3127,504,579.1454,514,578.8332,524,578.7194,534,579.5411,544,579.5821,554,579.864,564,579.9046,574,579.1498,584,579.7374,594,579.8036,604,578.5473,614,578.4981,624,579.143,634,579.2113,644,579.7512,654,579.6663,664,578.5192,674,579.1992,673.5255,579.1992,673.5913,588.6339,674.7217,598.0686,673.3507,607.5033,673.4077,616.9381,674.2135,626.3728,673.4905,635.8075,674,645.2422,674,644.6072,664,645.5328,654,644.5922,644,645.0516,634,645.6251,624,645.0236,614,645.0139,604,644.8128,594,645.8771,584,645.9351,574,644.9119,564,645.0867,554,644.7576,544,645.8183,534,644.7736,524,645.8122,514,645.7346,504,645.7289,494,645.7737,484,645.2512,474,644.992,464,645.2302,454,645.1966,444,645.2791,434,645.0514,424,644.5441,414,644.659,404,645.3415,394,644.7791,384,644.9945,374,644.6104,364,645.2406,354,645.5612,344,645.4437,334,644.7434,324,644.8286,314,644.9962,304,645.3199,294,645.5598,284,645.6738,274,645.2422,273.4916,645.2422,273.7999,635.8075,274.6624,626.3728,273.5948,616.9381,274.3254,607.5033,273.9585,598.0686,274.5532,588.6339,274,579.1992" style="stroke: #A80036; stroke-width: 1.5;"/><text fill="#000000" font-family="sans-serif" font-size="12" lengthAdjust="spacingAndGlyphs" textLength="65" x="441.5" y="595.8008">UsersTable</text><path d="M275,603.332 L275,603.0629 L284.95,602.435 L294.9,602.641 L304.85,603.4724 L314.8,602.6588 L324.75,602.9294 L334.7,602.9542 L344.65,603.035 L354.6,603.5346 L364.55,603.4629 L374.5,603.1829 L384.45,604.0498 L394.4,603.9124 L404.35,602.6795 L414.3,602.3375 L424.25,603.8517 L434.2,603.9389 L444.15,604.2477 L454.1,603.9461 L464.05,602.608 L474,602.3405 L483.95,603.2252 L493.9,603.4895 L503.85,602.8042 L513.8,603.8137 L523.75,603.0597 L533.7,603.2772 L543.65,603.6192 L553.6,602.4847 L563.55,604.2253 L573.5,602.8083 L583.45,603.2347 L593.4,603.8 L603.35,602.5737 L613.3,602.6576 L623.25,602.924 L633.2,603.6758 L643.15,603.4921 L653.1,602.362 L663.05,603.4936 L673,603.332 " fill="#FEFECE" style="stroke: #A80036; stroke-width: 1.5;"/><path d="M275,611.332 L275,611.6394 L284.95,610.9101 L294.9,611.6568 L304.85,611.3238 L314.8,612.038 L324.75,612.0876 L334.7,611.7222 L344.65,611.8597 L354.6,612.1671 L364.55,611.9409 L374.5,610.8463 L384.45,610.9513 L394.4,610.3915 L404.35,610.43 L414.3,611.0991 L424.25,610.9216 L434.2,610.9813 L444.15,611.227 L454.1,611.2326 L464.05,610.6621 L474,611.4827 L483.95,611.5293 L493.9,612.0847 L503.85,611.4142 L513.8,610.9671 L523.75,611.4545 L533.7,612.2616 L543.65,612.1875 L553.6,611.4727 L563.55,610.9666 L573.5,611.8079 L583.45,611.0001 L593.4,610.3563 L603.35,610.7378 L613.3,611.9501 L623.25,612.294 L633.2,612.1127 L643.15,610.7359 L653.1,611.8054 L663.05,610.9903 L673,611.332 " fill="#FEFECE" style="stroke: #A80036; stroke-width: 1.5;"/><text fill="#000000" font-family="sans-serif" font-size="11" lengthAdjust="spacingAndGlyphs" textLength="251" x="280" y="625.9668">+利用可能なユーザーを取得する：findAvailable()</text><text fill="#000000" font-family="sans-serif" font-size="11" lengthAdjust="spacingAndGlyphs" textLength="388" x="280" y="638.9219">+ユーザーが許可されている認証プレフィックスを取得する：getAuthPrefix()</text><!--class User--><polygon fill="#FEFECE" filter="url(#f9xo004)" points="328.5,705.1992,328.5,704.5764,338.5345,704.691,348.569,705.8491,358.6034,705.4659,368.6379,705.3525,378.6724,705.3748,388.7069,704.5116,398.7414,705.3216,408.7759,704.9836,418.8103,704.4869,428.8448,705.5804,438.8793,704.882,448.9138,705.0251,458.9483,705.5789,468.9828,704.9467,479.0172,704.9486,489.0517,705.4443,499.0862,704.802,509.1207,705.3113,519.1552,704.9198,529.1897,705.0978,539.2241,704.7384,549.2586,705.5306,559.2931,705.5825,569.3276,704.9849,579.3621,705.6544,589.3966,705.4652,599.431,705.6248,609.4655,704.5608,619.5,705.1992,618.963,705.1992,618.9762,715.1806,618.9751,725.162,619.5261,735.1434,618.95,745.1248,619.6746,755.1062,620.1241,765.0875,618.8184,775.0689,619.7031,785.0503,619.7291,795.0317,620.0154,805.0131,619.8374,814.9945,618.9374,824.9759,620.2334,834.9573,619.1285,844.9386,618.978,854.92,619.9114,864.9014,619.5,874.8828,619.5,875.0831,609.4655,875.3059,599.431,875.601,589.3966,874.88,579.3621,875.1974,569.3276,874.3492,559.2931,875.3017,549.2586,875.3415,539.2241,874.2596,529.1897,874.9817,519.1552,874.2841,509.1207,874.1591,499.0862,874.986,489.0517,874.4499,479.0172,874.8294,468.9828,875.0363,458.9483,874.6866,448.9138,874.767,438.8793,875.207,428.8448,874.212,418.8103,875.03,408.7759,874.3448,398.7414,874.8746,388.7069,875.4058,378.6724,875.616,368.6379,874.6796,358.6034,875.1063,348.569,875.1199,338.5345,874.9215,328.5,874.8828,329.1784,874.8828,328.1223,864.9014,329.2452,854.92,328.4713,844.9386,328.5367,834.9573,328.2377,824.9759,327.9057,814.9945,328.265,805.0131,328.6368,795.0317,328.865,785.0503,328.9441,775.0689,328.2765,765.0875,328.3808,755.1062,328.5291,745.1248,328.5674,735.1434,328.8987,725.162,328.4798,715.1806,328.5,705.1992" style="stroke: #A80036; stroke-width: 1.5;"/><text fill="#000000" font-family="sans-serif" font-size="12" lengthAdjust="spacingAndGlyphs" textLength="26" x="461" y="721.8008">User</text><path d="M329.5,729.332 L329.5,729.5461 L339.4655,730.2466 L349.431,729.716 L359.3966,729.614 L369.3621,729.4104 L379.3276,728.8497 L389.2931,728.5519 L399.2586,729.188 L409.2241,729.1963 L419.1897,728.8529 L429.1552,730.1136 L439.1207,728.7288 L449.0862,729.6972 L459.0517,729.6043 L469.0172,730.0692 L478.9828,730.1201 L488.9483,728.8024 L498.9138,728.6577 L508.8793,729.4869 L518.8448,729.4284 L528.8103,729.4566 L538.7759,730.0506 L548.7414,728.3505 L558.7069,729.7277 L568.6724,729.2937 L578.6379,729.7682 L588.6034,729.7661 L598.569,728.3675 L608.5345,729.6007 L618.5,729.332 " fill="#FEFECE" style="stroke: #A80036; stroke-width: 1.5;"/><text fill="#000000" font-family="sans-serif" font-size="11" lengthAdjust="spacingAndGlyphs" textLength="115" x="334.5" y="743.9668">+アカウント名：name</text><text fill="#000000" font-family="sans-serif" font-size="11" lengthAdjust="spacingAndGlyphs" textLength="127" x="334.5" y="756.9219">+パスワード：password</text><text fill="#000000" font-family="sans-serif" font-size="11" lengthAdjust="spacingAndGlyphs" textLength="99" x="334.5" y="769.877">+性：real_name_1</text><text fill="#000000" font-family="sans-serif" font-size="11" lengthAdjust="spacingAndGlyphs" textLength="99" x="334.5" y="782.832">+名：real_name_2</text><text fill="#000000" font-family="sans-serif" font-size="11" lengthAdjust="spacingAndGlyphs" textLength="125" x="334.5" y="795.7871">+メールアドレス：email</text><text fill="#000000" font-family="sans-serif" font-size="11" lengthAdjust="spacingAndGlyphs" textLength="137" x="334.5" y="808.7422">+ニックネーム：nickname</text><text fill="#000000" font-family="sans-serif" font-size="11" lengthAdjust="spacingAndGlyphs" textLength="93" x="334.5" y="821.6973">+登録日：created</text><text fill="#000000" font-family="sans-serif" font-size="11" lengthAdjust="spacingAndGlyphs" textLength="100" x="334.5" y="834.6523">+編集日：modified</text><path d="M329.5,840.9727 L329.5,841.8751 L339.4655,841.5184 L349.431,841.1197 L359.3966,841.7475 L369.3621,840.6987 L379.3276,840.9679 L389.2931,840.2569 L399.2586,840.0161 L409.2241,841.2284 L419.1897,840.9752 L429.1552,840.1186 L439.1207,841.9297 L449.0862,841.7369 L459.0517,840.8056 L469.0172,840.2777 L478.9828,840.9178 L488.9483,840.251 L498.9138,841.513 L508.8793,841.7631 L518.8448,840.1634 L528.8103,841.1884 L538.7759,841.4057 L548.7414,841.2006 L558.7069,840.0587 L568.6724,840.0339 L578.6379,841.683 L588.6034,841.0094 L598.569,840.6428 L608.5345,841.303 L618.5,840.9727 " fill="#FEFECE" style="stroke: #A80036; stroke-width: 1.5;"/><text fill="#000000" font-family="sans-serif" font-size="11" lengthAdjust="spacingAndGlyphs" textLength="226" x="334.5" y="855.6074">+管理ユーザーかどうか判定する：isAdmin()</text><text fill="#000000" font-family="sans-serif" font-size="11" lengthAdjust="spacingAndGlyphs" textLength="279" x="334.5" y="868.5625">+整形されたユーザー名を取得する：getDisplayName()</text><path d="M474,199.3392 L473.1519,199.3392 L474.9147,209.4399 L474.689,219.5406 L474.0206,229.6412 L473.6152,239.7419 L474.5125,249.8426 L474.2586,259.9432 L474.6374,270.0439 L473.406,280.1446 L473.806,290.2452 L474.8903,300.3459 L474.7084,310.4466 L473.3375,320.5472 L474.2205,330.6479 L474.8572,340.7486 L474,350.8492 " fill="none" style="stroke: #000000; stroke-width: 1.0;"/><polygon fill="#000000" points="474,355.9392,473.8777,355.8849,474.9088,354.1876,475.6097,352.3435,476.2928,350.4916,476.9868,348.6445,478,346.9392,477.858,346.7972,477.2133,347.7526,476.2962,348.4355,475.4931,349.2324,474.841,350.1802,474,350.9392,473.9739,350.9131,473.0435,349.9827,472.3992,349.3384,471.581,348.5202,470.6259,347.5651,470,346.9392,470.114,346.9899,470.8655,348.7683,471.7327,350.5982,472.331,352.3086,473.1123,354.1002,474,355.9392" style="stroke: #000000; stroke-width: 1.0;"/><path d="M536.43,389.1992 L536.43,389.3976 L542.288,388.894 L548.146,389.5092 L554.004,389.4964 L559.862,389.5181 L565.72,389.1992 " fill="none" style="stroke: #000000; stroke-width: 1.0;"/><polygon fill="#000000" points="531.32,389.1992,531.4161,389.4154,533.0359,389.81,534.8503,390.6423,536.7159,391.59,538.4661,392.278,540.32,393.1992,540.3467,393.2259,539.5342,392.4134,538.7502,391.6294,538.0223,390.9015,537.1445,390.0237,536.32,389.1992,536.2011,389.0804,537.0985,388.3777,537.9032,387.5824,538.6739,386.7531,539.367,385.8463,540.32,385.1992,540.2215,384.9776,538.5206,386.0006,536.731,386.8239,534.8239,387.3829,533.1525,388.4723,531.32,389.1992" style="stroke: #000000; stroke-width: 1.0;"/><path d="M474,422.3392 L473.6379,422.3392 L474.3212,432.4486 L474.8616,442.5579 L474.3903,452.6672 L473.4299,462.7766 L473.3412,472.8859 L473.1484,482.9952 L473.0651,493.1046 L473.1888,503.2139 L474.7073,513.3232 L473.6798,523.4326 L474.4243,533.5419 L473.3629,543.6512 L474.6691,553.7606 L474.2759,563.8699 L474,573.9792 " fill="none" style="stroke: #000000; stroke-width: 1.0;"/><polygon fill="#000000" points="474,579.0292,474.08,579.0648,475.0173,577.3258,475.3808,575.3318,476.2044,573.5423,477.4152,571.9248,478,570.0292,478.0577,570.0869,477.2936,570.9228,476.2706,571.4998,475.7584,572.5876,474.8103,573.2395,474,574.0292,474.1263,574.1555,473.2965,573.3257,472.5043,572.5335,471.5823,571.6115,470.6593,570.6885,470,570.0292,469.9764,570.0187,470.6132,571.7462,471.5017,573.5856,472.5838,575.5109,473.0913,577.1809,474,579.0292" style="stroke: #000000; stroke-width: 1.0;"/><path d="M402.25,389.1992 L402.25,389.3821 L405.188,389.5111 L408.126,389.117 L411.064,389.5092 L414.002,388.9801 L416.94,389.1992 " fill="none" style="stroke: #000000; stroke-width: 1.0; stroke-dasharray: 1.0,3.0;"/><polygon fill="none" points="402.13,396.1992,402.0919,396.0902,398.1489,394.8591,394.0526,393.1894,390.1105,391.9605,386.1417,390.6556,382.12,389.1992,382.1728,389.35,386.0912,387.7169,390.1644,386.5261,394.0377,384.764,398.1659,383.7303,402.12,382.1992,401.9061,382.1991,402.3333,384.9994,402.2536,387.7993,402.2576,390.5993,402.2589,393.3993,402.13,396.1992" style="stroke: #000000; stroke-width: 1.0;"/><path d="M474,645.4792 L474.1826,645.4792 L473.4779,656.3032 L473.1755,667.1272 L473.481,677.9512 L473.2274,688.7752 L474,699.5992 " fill="none" style="stroke: #000000; stroke-width: 1.0;"/><polygon fill="#000000" points="474,705.0692,473.9805,705.0606,474.6314,703.1943,475.6411,701.4875,476.6034,699.7596,477.1929,697.8661,478,696.0692,477.9035,695.9727,477.1879,696.8571,476.3538,697.623,475.7606,698.6298,474.8909,699.3601,474,700.0692,473.8965,699.9657,473.2883,699.3575,472.2405,698.3097,471.6414,697.7106,470.6857,696.755,470,696.0692,469.8094,695.9845,470.7803,697.8605,471.3873,699.5747,472.4819,701.5056,473.213,703.275,474,705.0692" style="stroke: #000000; stroke-width: 1.0;"/></g></svg>