<?xml version="1.0" encoding="UTF-8" standalone="no"?><svg xmlns="http://www.w3.org/2000/svg" xmlns:xlink="http://www.w3.org/1999/xlink" contentScriptType="application/ecmascript" contentStyleType="text/css" height="455px" preserveAspectRatio="none" style="width:231px;height:455px;" version="1.1" viewBox="0 0 231 455" width="231px" zoomAndPan="magnify"><defs><filter height="300%" id="fm67lqv" width="300%" x="-1" y="-1"><feGaussianBlur result="blurOut" stdDeviation="2.0"/><feColorMatrix in="blurOut" result="blurOut2" type="matrix" values="0 0 0 0 0 0 0 0 0 0 0 0 0 0 0 0 0 0 .4 0"/><feOffset dx="4.0" dy="4.0" in="blurOut2" result="blurOut3"/><feBlend in="SourceGraphic" in2="blurOut3" mode="normal"/></filter></defs><g><text fill="#000000" font-family="sans-serif" font-size="18" lengthAdjust="spacingAndGlyphs" textLength="153" x="43.5" y="17.4023">ブログカテゴリAPI</text><!--class Api\BlogContentsController--><polygon fill="#FEFECE" filter="url(#fm67lqv)" points="33.5,129.1992,33.5,128.6886,43.5625,128.9065,53.625,129.9438,63.6875,129.2167,73.75,128.7473,83.8125,129.1245,93.875,129.6676,103.9375,129.0448,114,128.9633,124.0625,129.2357,134.125,129.9419,144.1875,128.5683,154.25,129.8072,164.3125,129.6707,174.375,129.1072,184.4375,128.8894,194.5,129.1992,194.9978,129.1992,195.0322,139.2622,195.0266,149.3251,195.2283,159.3881,195.1722,169.451,195.0723,179.514,194.8281,189.5769,194.3775,199.6399,195.214,209.7028,193.853,219.7658,194.5306,229.8287,194.6496,239.8917,195.0514,249.9546,194.5,260.0176,194.5,259.7175,184.4375,260.4855,174.375,260.5721,164.3125,259.8504,154.25,260.4948,144.1875,260.0846,134.125,260.4726,124.0625,260.3708,114,260.6275,103.9375,260.2987,93.875,260.2221,83.8125,259.7012,73.75,260.4518,63.6875,260.6236,53.625,259.541,43.5625,259.8582,33.5,260.0176,33.026,260.0176,33.775,249.9546,33.7925,239.8917,33.2167,229.8287,33.3603,219.7658,34.1552,209.7028,33.2481,199.6399,33.0811,189.5769,33.6863,179.514,33.7422,169.451,33.9427,159.3881,33.2521,149.3251,33.8571,139.2622,33.5,129.1992" style="stroke: #A80036; stroke-width: 1.5;"/><text fill="#000000" font-family="sans-serif" font-size="12" lengthAdjust="spacingAndGlyphs" textLength="155" x="36.5" y="145.8008">Api\BlogContentsController</text><path d="M34.5,153.332 L34.5,153.9769 L44.4375,153.0589 L54.375,154.0472 L64.3125,153.3872 L74.25,152.5906 L84.1875,154.1227 L94.125,153.6372 L104.0625,152.3432 L114,154.0783 L123.9375,153.2294 L133.875,152.489 L143.8125,153.358 L153.75,153.2334 L163.6875,154.2676 L173.625,153.3878 L183.5625,154.0381 L193.5,153.332 " fill="#FEFECE" style="stroke: #A80036; stroke-width: 1.5;"/><path d="M34.5,161.332 L34.5,161.5936 L44.4375,162.3313 L54.375,161.809 L64.3125,161.8667 L74.25,160.363 L84.1875,161.5997 L94.125,162.2385 L104.0625,160.8764 L114,161.3621 L123.9375,161.9627 L133.875,161.2981 L143.8125,161.956 L153.75,162.3121 L163.6875,162.0257 L173.625,160.6691 L183.5625,162.0123 L193.5,161.332 " fill="#FEFECE" style="stroke: #A80036; stroke-width: 1.5;"/><text fill="#000000" font-family="sans-serif" font-size="11" lengthAdjust="spacingAndGlyphs" textLength="102" x="39.5" y="175.9668">+一覧取得：index()</text><text fill="#000000" font-family="sans-serif" font-size="11" lengthAdjust="spacingAndGlyphs" textLength="128" x="39.5" y="188.9219">+単一データ取得：view()</text><text fill="#000000" font-family="sans-serif" font-size="11" lengthAdjust="spacingAndGlyphs" textLength="99" x="39.5" y="201.877">+リスト取得：list()</text><text fill="#000000" font-family="sans-serif" font-size="11" lengthAdjust="spacingAndGlyphs" textLength="92" x="39.5" y="214.832">+新規追加：add()</text><text fill="#000000" font-family="sans-serif" font-size="11" lengthAdjust="spacingAndGlyphs" textLength="70" x="39.5" y="227.7871">+編集：edit()</text><text fill="#000000" font-family="sans-serif" font-size="11" lengthAdjust="spacingAndGlyphs" textLength="82" x="39.5" y="240.7422">+削除：delete()</text><text fill="#000000" font-family="sans-serif" font-size="11" lengthAdjust="spacingAndGlyphs" textLength="87" x="39.5" y="253.6973">+コピー：copy()</text><!--class BlogContentsService--><polygon fill="#FEFECE" filter="url(#fm67lqv)" points="54,320.1992,54,320.2273,64,319.8855,74,320.4262,84,319.918,94,319.4777,104,320.3291,114,319.819,124,320.4564,134,319.744,144,320.2386,154,320.2876,164,319.7642,174,320.1992,174.25,320.1992,173.8901,328.2258,174.1526,336.2523,173.8677,344.2789,174.2217,352.3055,174,360.332,174,360.9703,164,359.7196,154,359.8836,144,360.7854,134,360.2038,124,360.5641,114,360.9961,104,360.0444,94,360.5205,84,360.0256,74,360.0969,64,360.4064,54,360.332,54.0271,360.332,54.2191,352.3055,53.8261,344.2789,54.1699,336.2523,54.173,328.2258,54,320.1992" style="stroke: #A80036; stroke-width: 1.5;"/><text fill="#000000" font-family="sans-serif" font-size="12" lengthAdjust="spacingAndGlyphs" textLength="114" x="57" y="336.8008">BlogContentsService</text><path d="M55,344.332 L55,344.1239 L64.8333,343.9605 L74.6667,345.012 L84.5,344.7948 L94.3333,343.4811 L104.1667,343.334 L114,344.7511 L123.8333,345.3247 L133.6667,344.1879 L143.5,344.5351 L153.3333,343.3756 L163.1667,345.1746 L173,344.332 " fill="#FEFECE" style="stroke: #A80036; stroke-width: 1.5;"/><path d="M55,352.332 L55,352.4565 L64.8333,351.7537 L74.6667,351.5499 L84.5,351.6036 L94.3333,352.1635 L104.1667,352.6315 L114,352.1283 L123.8333,351.4676 L133.6667,352.2367 L143.5,352.8747 L153.3333,351.6658 L163.1667,351.5718 L173,352.332 " fill="#FEFECE" style="stroke: #A80036; stroke-width: 1.5;"/><!--class BcApiController--><polygon fill="#FEFECE" filter="url(#fm67lqv)" points="67,29.1992,67,29.6188,77.4444,29.5647,87.8889,29.9207,98.3333,29.7625,108.7778,28.5234,119.2222,28.6799,129.6667,29.7728,140.1111,29.2408,150.5556,29.061,161,29.1992,160.8267,29.1992,160.8325,37.2258,160.9157,45.2523,160.8247,53.2789,160.9788,61.3055,161,69.332,161,69.0627,150.5556,68.8936,140.1111,69.4435,129.6667,69.8127,119.2222,69.2469,108.7778,69.5912,98.3333,69.8899,87.8889,69.5451,77.4444,68.6797,67,69.332,66.7663,69.332,67.0693,61.3055,67.0549,53.2789,66.7675,45.2523,66.8818,37.2258,67,29.1992" style="stroke: #A80036; stroke-width: 1.5;"/><text fill="#000000" font-family="sans-serif" font-size="12" lengthAdjust="spacingAndGlyphs" textLength="88" x="70" y="45.8008">BcApiController</text><path d="M68,53.332 L68,54.1262 L78.2222,53.8202 L88.4444,53.6875 L98.6667,52.7383 L108.8889,52.7494 L119.1111,54.1469 L129.3333,52.4285 L139.5556,53.5275 L149.7778,53.6604 L160,53.332 " fill="#FEFECE" style="stroke: #A80036; stroke-width: 1.5;"/><path d="M68,61.332 L68,61.8062 L78.2222,61.6423 L88.4444,60.712 L98.6667,60.7379 L108.8889,60.5129 L119.1111,61.4219 L129.3333,61.1136 L139.5556,62.015 L149.7778,61.1935 L160,61.332 " fill="#FEFECE" style="stroke: #A80036; stroke-width: 1.5;"/><polygon fill="#FBFB77" filter="url(#fm67lqv)" points="6,420.1992,5.8172,420.1992,5.8274,425.2613,6.2462,430.3234,5.8225,435.3855,6.0672,440.4477,6,445.5098,6,445.4748,15.8182,444.948,25.6364,445.6078,35.4545,445.2706,45.2727,445.4181,55.0909,445.5983,64.9091,445.4536,74.7273,445.4523,84.5455,446.2209,94.3636,445.0274,104.1818,444.7639,114,445.5436,123.8182,445.4508,133.6364,445.2879,143.4545,445.6426,153.2727,445.8328,163.0909,446.1648,172.9091,445.1529,182.7273,445.7595,192.5455,446.0713,202.3636,444.9257,212.1818,445.1751,222,445.5098,221.9771,445.5098,221.7618,442.4477,221.9766,439.3855,222.1889,436.3234,222.0664,433.2613,222,430.1992,222.066,430.2652,219.9944,428.1936,218.1767,426.3759,215.9524,424.1516,213.9505,422.1498,212,420.1992,212,420.815,202.1905,420.1527,192.381,420.2377,182.5714,420.5381,172.7619,420.2624,162.9524,420.2026,153.1429,420.6178,143.3333,419.9486,133.5238,420.7797,123.7143,420.9463,113.9048,419.6255,104.0952,420.3286,94.2857,419.5086,84.4762,420.3006,74.6667,420.4121,64.8571,420.91,55.0476,420.7811,45.2381,420.8774,35.4286,420.6322,25.619,420.2148,15.8095,420.6652,6,420.1992" style="stroke: #A80036; stroke-width: 1.0;"/><polygon fill="#FBFB77" points="6,420.1992,6.0677,420.1992,6.1603,425.2613,5.951,430.3234,6.1954,435.3855,5.7953,440.4477,6,445.5098,6,445.1304,15.8182,446.1493,25.6364,445.1367,35.4545,445.0675,45.2727,446.1082,55.0909,445.4837,64.9091,445.3792,74.7273,446.2444,84.5455,445.7518,94.3636,445.8023,104.1818,445.6437,114,445.8466,123.8182,445.3188,133.6364,445.285,143.4545,445.6124,153.2727,445.0509,163.0909,444.9233,172.9091,445.9827,182.7273,445.1811,192.5455,445.726,202.3636,444.7818,212.1818,445.3889,222,445.5098,221.9135,445.5098,222.0171,442.4477,222.2462,439.3855,221.7915,436.3234,222.062,433.2613,222,430.1992,221.8495,430.0487,220.1561,428.3553,217.913,426.1122,216.1562,424.3555,214.1476,422.3469,212,420.1992,212,420.6866,201.5556,420.8735,191.1111,420.0914,180.6667,419.7881,170.2222,420.4356,159.7778,420.0691,149.3333,419.838,138.8889,420.4286,128.4444,420.2583,118,420.1992,118.1125,420.2067,117.0804,410.214,116.7701,400.2695,115.4067,390.2545,114.8097,380.2909,114.4811,370.3451,114,360.3892,113.424,360.3507,112.9161,370.3296,113.1548,380.3585,111.4031,390.2543,111.1758,400.252,110.6475,410.2296,110,420.1992,110,420.3188,99.6,420.7401,89.2,419.9147,78.8,420.8275,68.4,420.5109,58,419.4739,47.6,419.765,37.2,420.0849,26.8,420.4838,16.4,420.1984,6,420.1992" style="stroke: #A80036; stroke-width: 1.0;"/><path d="M212,420.1992 L212.0995,420.1992 L212.2889,422.1992 L211.9884,424.1992 L211.7727,426.1992 L211.7707,428.1992 L212,430.1992 " fill="#FBFB77" style="stroke: #A80036; stroke-width: 1.0;"/><path d="M222,430.1992 L222,430.3081 L220,430.0758 L218,430.0572 L216,430.5246 L214,430.3592 L212,430.1992 " fill="#FBFB77" style="stroke: #A80036; stroke-width: 1.0;"/><text fill="#000000" font-family="sans-serif" font-size="13" lengthAdjust="spacingAndGlyphs" textLength="195" x="12" y="437.7676">以下ブログコンテンツ管理と同じ</text><path d="M114,260.3092 L113.9377,260.3092 L113.4314,271.1972 L113.742,282.0852 L113.8637,292.9732 L114.8907,303.8612 L114,314.7492 " fill="none" style="stroke: #000000; stroke-width: 1.0;"/><polygon fill="#000000" points="114,320.0492,113.8273,319.9725,114.9115,318.2988,115.5742,316.4378,116.2921,314.6013,117.0284,312.7729,118,311.0492,118.1764,311.2256,117.0814,311.7306,116.5735,312.8227,115.5739,313.4231,114.8518,314.301,114,315.0492,113.9721,315.0214,113.3384,314.3876,112.4549,313.5041,111.5156,312.5648,110.6787,311.728,110,311.0492,110.1695,311.1245,110.8678,312.8794,111.5677,314.6349,112.424,316.4599,113.0247,318.1713,114,320.0492" style="stroke: #000000; stroke-width: 1.0;"/><path d="M114,89.6592 L114.1786,89.6592 L114.1894,97.5312 L113.9429,105.4032 L113.7026,113.2752 L113.9146,121.1472 L114,129.0192 " fill="none" style="stroke: #000000; stroke-width: 1.0;"/><polygon fill="none" points="107,89.2592,107.012,89.2634,108.2545,85.2083,110,81.3292,111.1217,77.2318,112.4172,73.1952,114,69.2592,114.1046,69.2958,115.595,73.3275,116.7937,77.257,118.2342,81.2712,119.7339,85.3061,121,89.2592,121,89.4642,118.2,89.2911,115.4,89.0572,112.6,89.3679,109.8,89.0217,107,89.2592" style="stroke: #000000; stroke-width: 1.0;"/></g></svg>