<?xml version="1.0" encoding="UTF-8" standalone="no"?><svg xmlns="http://www.w3.org/2000/svg" xmlns:xlink="http://www.w3.org/1999/xlink" contentScriptType="application/ecmascript" contentStyleType="text/css" height="455px" preserveAspectRatio="none" style="width:218px;height:455px;" version="1.1" viewBox="0 0 218 455" width="218px" zoomAndPan="magnify"><defs><filter height="300%" id="fi2nixf" width="300%" x="-1" y="-1"><feGaussianBlur result="blurOut" stdDeviation="2.0"/><feColorMatrix in="blurOut" result="blurOut2" type="matrix" values="0 0 0 0 0 0 0 0 0 0 0 0 0 0 0 0 0 0 .4 0"/><feOffset dx="4.0" dy="4.0" in="blurOut2" result="blurOut3"/><feBlend in="SourceGraphic" in2="blurOut3" mode="normal"/></filter></defs><g><text fill="#000000" font-family="sans-serif" font-size="18" lengthAdjust="spacingAndGlyphs" textLength="153" x="37" y="17.4023">ブログカテゴリAPI</text><!--class Api\BlogCategoriesController--><polygon fill="#FEFECE" filter="url(#fi2nixf)" points="6.5,129.1992,6.5,128.6539,16.6,129.0732,26.7,129.0554,36.8,128.6267,46.9,129.0773,57,129.3677,67.1,128.558,77.2,129.5923,87.3,129.0724,97.4,128.8946,107.5,128.967,117.6,129.0171,127.7,129.2134,137.8,129.1338,147.9,129.6082,158,128.4908,168.1,129.0798,178.2,129.7928,188.3,128.8182,198.4,129.0991,208.5,129.1992,209.145,129.1992,208.5969,139.2622,207.9885,149.3251,208.8613,159.3881,208.2826,169.451,208.7602,179.514,207.9652,189.5769,208.946,199.6399,209.0321,209.7028,207.9667,219.7658,209.0457,229.8287,207.7953,239.8917,209.172,249.9546,208.5,260.0176,208.5,260.3031,198.4,260.0193,188.3,260.7549,178.2,259.8256,168.1,260.4433,158,260.2839,147.9,259.7626,137.8,260.2269,127.7,260.7143,117.6,260.2463,107.5,259.8327,97.4,259.7885,87.3,259.7725,77.2,260.2865,67.1,260.2743,57,259.9404,46.9,260.3709,36.8,259.9136,26.7,260.1825,16.6,259.7763,6.5,260.0176,7.0733,260.0176,6.343,249.9546,7.221,239.8917,6.8023,229.8287,7.1115,219.7658,5.9071,209.7028,6.4043,199.6399,6.688,189.5769,7.1147,179.514,7.2222,169.451,7.2228,159.3881,6.5873,149.3251,6.8022,139.2622,6.5,129.1992" style="stroke: #A80036; stroke-width: 1.5;"/><text fill="#000000" font-family="sans-serif" font-size="12" lengthAdjust="spacingAndGlyphs" textLength="166" x="24.5" y="145.8008">Api\BlogCategoriesController</text><path d="M7.5,153.332 L7.5,153.3208 L17.5,152.8936 L27.5,152.6291 L37.5,153.5947 L47.5,152.6826 L57.5,152.3978 L67.5,152.3665 L77.5,152.9124 L87.5,154.1 L97.5,154.0471 L107.5,154.2122 L117.5,152.4804 L127.5,153.3611 L137.5,154.3228 L147.5,154.0018 L157.5,154.2312 L167.5,152.5453 L177.5,153.8464 L187.5,152.9921 L197.5,153.0443 L207.5,153.332 " fill="#FEFECE" style="stroke: #A80036; stroke-width: 1.5;"/><path d="M7.5,161.332 L7.5,160.467 L17.5,162.275 L27.5,161.4147 L37.5,162.3261 L47.5,162.1722 L57.5,161.7939 L67.5,160.3378 L77.5,160.9241 L87.5,161.6757 L97.5,161.3328 L107.5,161.3069 L117.5,161.4285 L127.5,161.4221 L137.5,160.601 L147.5,161.7446 L157.5,160.8542 L167.5,161.1874 L177.5,161.4385 L187.5,161.544 L197.5,162.0689 L207.5,161.332 " fill="#FEFECE" style="stroke: #A80036; stroke-width: 1.5;"/><text fill="#000000" font-family="sans-serif" font-size="11" lengthAdjust="spacingAndGlyphs" textLength="190" x="12.5" y="175.9668">+ブログカテゴリー一覧取得：index()</text><text fill="#000000" font-family="sans-serif" font-size="11" lengthAdjust="spacingAndGlyphs" textLength="183" x="12.5" y="188.9219">+単一ブログカテゴリー取得：view()</text><text fill="#000000" font-family="sans-serif" font-size="11" lengthAdjust="spacingAndGlyphs" textLength="187" x="12.5" y="201.877">+ブログカテゴリーリスト取得：list()</text><text fill="#000000" font-family="sans-serif" font-size="11" lengthAdjust="spacingAndGlyphs" textLength="180" x="12.5" y="214.832">+ブログカテゴリー新規追加：add()</text><text fill="#000000" font-family="sans-serif" font-size="11" lengthAdjust="spacingAndGlyphs" textLength="158" x="12.5" y="227.7871">+ブログカテゴリー編集：edit()</text><text fill="#000000" font-family="sans-serif" font-size="11" lengthAdjust="spacingAndGlyphs" textLength="170" x="12.5" y="240.7422">+ブログカテゴリー削除：delete()</text><text fill="#000000" font-family="sans-serif" font-size="11" lengthAdjust="spacingAndGlyphs" textLength="190" x="12.5" y="253.6973">+ブログカテゴリー一括処理：batch()</text><!--class BlogCategoriesService--><polygon fill="#FEFECE" filter="url(#fi2nixf)" points="42,320.1992,42,320.9293,52.0769,320.5691,62.1538,319.7086,72.2308,320.805,82.3077,320.8605,92.3846,320.0743,102.4615,319.9298,112.5385,320.7185,122.6154,320.2168,132.6923,320.8406,142.7692,320.2933,152.8462,319.736,162.9231,320.2942,173,320.1992,172.9026,320.1992,173.1427,328.2258,173.1827,336.2523,172.9503,344.2789,173.1663,352.3055,173,360.332,173,360.309,162.9231,360.8988,152.8462,360.5199,142.7692,360.0192,132.6923,360.1708,122.6154,359.7403,112.5385,360.8518,102.4615,359.7983,92.3846,360.1926,82.3077,360.0707,72.2308,360.1924,62.1538,360.9235,52.0769,359.9188,42,360.332,41.7721,360.332,42.0618,352.3055,42.0196,344.2789,41.7572,336.2523,41.9118,328.2258,42,320.1992" style="stroke: #A80036; stroke-width: 1.5;"/><text fill="#000000" font-family="sans-serif" font-size="12" lengthAdjust="spacingAndGlyphs" textLength="125" x="45" y="336.8008">BlogCategoriesService</text><path d="M43,344.332 L43,344.0207 L52.9231,344.1645 L62.8462,345.1149 L72.7692,344.7172 L82.6923,345.1171 L92.6154,345.0412 L102.5385,344.9705 L112.4615,343.9442 L122.3846,344.7652 L132.3077,345.0661 L142.2308,345.1988 L152.1538,345.0099 L162.0769,343.8672 L172,344.332 " fill="#FEFECE" style="stroke: #A80036; stroke-width: 1.5;"/><path d="M43,352.332 L43,352.6686 L52.9231,351.5085 L62.8462,351.5895 L72.7692,352.9516 L82.6923,351.4643 L92.6154,352.7761 L102.5385,351.9878 L112.4615,351.3609 L122.3846,352.8466 L132.3077,353.1132 L142.2308,351.9257 L152.1538,351.9403 L162.0769,351.8558 L172,352.332 " fill="#FEFECE" style="stroke: #A80036; stroke-width: 1.5;"/><!--class BcApiController--><polygon fill="#FEFECE" filter="url(#fi2nixf)" points="60.5,29.1992,60.5,29.2676,70.9444,28.6798,81.3889,28.4499,91.8333,29.4251,102.2778,29.6911,112.7222,28.9051,123.1667,29.0195,133.6111,28.9874,144.0556,28.9146,154.5,29.1992,154.6971,29.1992,154.6343,37.2258,154.3703,45.2523,154.6266,53.2789,154.4903,61.3055,154.5,69.332,154.5,69.7676,144.0556,69.4692,133.6111,68.6449,123.1667,69.7253,112.7222,69.8655,102.2778,68.8325,91.8333,69.3895,81.3889,69.3419,70.9444,69.9201,60.5,69.332,60.3678,69.332,60.3108,61.3055,60.4017,53.2789,60.3631,45.2523,60.4702,37.2258,60.5,29.1992" style="stroke: #A80036; stroke-width: 1.5;"/><text fill="#000000" font-family="sans-serif" font-size="12" lengthAdjust="spacingAndGlyphs" textLength="88" x="63.5" y="45.8008">BcApiController</text><path d="M61.5,53.332 L61.5,53.7295 L71.7222,53.3061 L81.9444,53.1074 L92.1667,53.7245 L102.3889,54.2096 L112.6111,53.3647 L122.8333,53.2185 L133.0556,53.3667 L143.2778,53.1987 L153.5,53.332 " fill="#FEFECE" style="stroke: #A80036; stroke-width: 1.5;"/><path d="M61.5,61.332 L61.5,60.8294 L71.7222,60.8701 L81.9444,60.4575 L92.1667,61.1216 L102.3889,62.177 L112.6111,62.2269 L122.8333,61.921 L133.0556,61.1082 L143.2778,60.8396 L153.5,61.332 " fill="#FEFECE" style="stroke: #A80036; stroke-width: 1.5;"/><polygon fill="#FBFB77" filter="url(#fi2nixf)" points="6,420.1992,5.8552,420.1992,6.2348,425.2613,5.9709,430.3234,6.1821,435.3855,6.032,440.4477,6,445.5098,6,445.1121,16.15,445.0641,26.3,445.1921,36.45,445.3718,46.6,445.2922,56.75,445.6438,66.9,444.8455,77.05,444.9251,87.2,445.6481,97.35,445.7338,107.5,445.9944,117.65,445.6771,127.8,445.4405,137.95,444.8547,148.1,445.0226,158.25,445.8473,168.4,445.4302,178.55,446.1376,188.7,445.8159,198.85,446.0238,209,445.5098,208.8095,445.5098,208.7746,442.4477,209.2473,439.3855,208.8944,436.3234,208.7603,433.2613,209,430.1992,208.953,430.1522,207.0249,428.2241,204.8403,426.0395,202.9316,424.1308,200.8961,422.0953,199,420.1992,199,420.0118,188.8421,419.5373,178.6842,420.1711,168.5263,420.6192,158.3684,419.6811,148.2105,420.4756,138.0526,419.9266,127.8947,420.0203,117.7368,419.6068,107.5789,420.029,97.4211,419.7594,87.2632,420.8896,77.1053,420.0007,66.9474,420.9098,56.7895,419.658,46.6316,419.7651,36.4737,420.0323,26.3158,419.6641,16.1579,419.7779,6,420.1992" style="stroke: #A80036; stroke-width: 1.0;"/><polygon fill="#FBFB77" points="6,420.1992,5.8504,420.1992,6.1597,425.2613,5.92,430.3234,6.2301,435.3855,5.7723,440.4477,6,445.5098,6,445.5119,16.15,445.0896,26.3,445.8938,36.45,446.1866,46.6,445.0286,56.75,445.1434,66.9,445.8498,77.05,445.3116,87.2,446.0977,97.35,445.0982,107.5,445.8005,117.65,445.8611,127.8,445.5483,137.95,445.5224,148.1,445.2131,158.25,445.756,168.4,445.8964,178.55,445.143,188.7,445.1895,198.85,444.9449,209,445.5098,209.0461,445.5098,209.0623,442.4477,209.0434,439.3855,208.9486,436.3234,209.1859,433.2613,209,430.1992,208.946,430.1452,206.9774,428.1766,204.943,426.1422,203.02,424.2193,201.16,422.3593,199,420.1992,199,420.4704,189.2778,420.2712,179.5556,419.729,169.8333,420.9481,160.1111,420.138,150.3889,420.6033,140.6667,420.6193,130.9444,420.4192,121.2222,420.8477,111.5,420.1992,112.081,420.2381,110.826,410.2304,110.7225,400.2997,108.8481,390.2506,108.8081,380.3242,108.3842,370.3721,107.5,360.3892,107.5754,360.3943,106.7745,370.3536,106.8048,380.3686,105.012,390.2616,104.8898,400.2663,103.426,410.1813,103.5,420.1992,103.5,420.2426,93.75,420.0484,84,420.5376,74.25,420.1886,64.5,419.7611,54.75,420.6291,45,420.8207,35.25,420.3838,25.5,420.3385,15.75,420.4247,6,420.1992" style="stroke: #A80036; stroke-width: 1.0;"/><path d="M199,420.1992 L198.7477,420.1992 L199.0703,422.1992 L198.9361,424.1992 L198.7165,426.1992 L199.1547,428.1992 L199,430.1992 " fill="#FBFB77" style="stroke: #A80036; stroke-width: 1.0;"/><path d="M209,430.1992 L209,430.0309 L207,430.0769 L205,430.4802 L203,430.2869 L201,430.3387 L199,430.1992 " fill="#FBFB77" style="stroke: #A80036; stroke-width: 1.0;"/><text fill="#000000" font-family="sans-serif" font-size="13" lengthAdjust="spacingAndGlyphs" textLength="182" x="12" y="437.7676">以下ブログカテゴリ管理と同じ</text><path d="M107.5,260.3092 L107.2465,260.3092 L107.7288,271.1972 L106.853,282.0852 L106.8291,292.9732 L107.1678,303.8612 L107.5,314.7492 " fill="none" style="stroke: #000000; stroke-width: 1.0;"/><polygon fill="#000000" points="107.5,320.0492,107.4618,320.0322,108.3152,318.256,109.0403,316.4227,109.7297,314.5735,110.5467,312.7811,111.5,311.0492,111.5226,311.0719,110.7428,311.892,110.0198,312.769,109.2399,313.5891,108.1434,314.0926,107.5,315.0492,107.6051,315.1543,106.6603,314.2095,105.8946,313.4438,105.163,312.7122,104.1513,311.7005,103.5,311.0492,103.3805,310.9961,104.2167,312.8122,105.1374,314.6659,105.9499,316.4714,106.5468,318.1811,107.5,320.0492" style="stroke: #000000; stroke-width: 1.0;"/><path d="M107.5,89.6592 L107.2675,89.6592 L107.2564,97.5312 L107.6241,105.4032 L107.3019,113.2752 L107.5987,121.1472 L107.5,129.0192 " fill="none" style="stroke: #000000; stroke-width: 1.0;"/><polygon fill="none" points="100.5,89.2592,100.5947,89.2924,101.751,85.2071,103.3202,81.2663,104.7686,77.2832,106.2873,73.3248,107.5,69.2592,107.5807,69.2875,108.7441,73.2047,110.5292,77.3394,111.5365,81.202,112.9676,85.2129,114.5,89.2592,114.5,89.312,111.7,89.382,108.9,89.4166,106.1,89.0794,103.3,89.0651,100.5,89.2592" style="stroke: #000000; stroke-width: 1.0;"/></g></svg>