<?xml version="1.0" encoding="UTF-8" standalone="no"?><svg xmlns="http://www.w3.org/2000/svg" xmlns:xlink="http://www.w3.org/1999/xlink" contentScriptType="application/ecmascript" contentStyleType="text/css" height="560px" preserveAspectRatio="none" style="width:392px;height:560px;" version="1.1" viewBox="0 0 392 560" width="392px" zoomAndPan="magnify"><defs><filter height="300%" id="f0rrtzv" width="300%" x="-1" y="-1"><feGaussianBlur result="blurOut" stdDeviation="2.0"/><feColorMatrix in="blurOut" result="blurOut2" type="matrix" values="0 0 0 0 0 0 0 0 0 0 0 0 0 0 0 0 0 0 .4 0"/><feOffset dx="4.0" dy="4.0" in="blurOut2" result="blurOut3"/><feBlend in="SourceGraphic" in2="blurOut3" mode="normal"/></filter></defs><g><text fill="#000000" font-family="sans-serif" font-size="18" lengthAdjust="spacingAndGlyphs" textLength="162" x="119.5" y="17.4023">ブログカテゴリ管理</text><!--class Admin\BlogCategoriesController--><polygon fill="#FEFECE" filter="url(#f0rrtzv)" points="192.5,29.1992,192.5,29.4722,202.5,28.9942,212.5,28.7954,222.5,29.2078,232.5,28.916,242.5,29.6763,252.5,28.8734,262.5,29.9449,272.5,29.4301,282.5,29.9139,292.5,29.2546,302.5,28.7438,312.5,28.863,322.5,28.5828,332.5,29.363,342.5,28.7522,352.5,28.5459,362.5,29.6475,372.5,29.8083,382.5,29.1992,381.8734,29.1992,381.9376,39.4162,383.0104,49.6332,382.1874,59.8503,382.5586,70.0673,382.2084,80.2843,382.2656,90.5013,382.9114,100.7183,382.0124,110.9353,382.5,121.1523,382.5,120.5482,372.5,121.314,362.5,121.7818,352.5,121.6387,342.5,120.5081,332.5,120.51,322.5,121.857,312.5,121.1718,302.5,121.7376,292.5,120.8812,282.5,121.7381,272.5,121.0656,262.5,120.8516,252.5,120.7763,242.5,121.5672,232.5,121.8039,222.5,120.8337,212.5,120.5339,202.5,120.742,192.5,121.1523,192.5704,121.1523,193.1578,110.9353,192.7314,100.7183,192.4128,90.5013,192.561,80.2843,192.08,70.0673,192.1622,59.8503,193.1414,49.6332,192.6392,39.4162,192.5,29.1992" style="stroke: #A80036; stroke-width: 1.5;"/><text fill="#000000" font-family="sans-serif" font-size="12" lengthAdjust="spacingAndGlyphs" textLength="184" x="195.5" y="45.8008">Admin\BlogCategoriesController</text><path d="M193.5,53.332 L193.5,52.718 L203.3947,54.1501 L213.2895,53.829 L223.1842,52.4649 L233.0789,53.9717 L242.9737,53.2804 L252.8684,53.0454 L262.7632,52.9014 L272.6579,53.7529 L282.5526,54.2628 L292.4474,52.3787 L302.3421,52.5737 L312.2368,53.888 L322.1316,53.9688 L332.0263,54.1343 L341.9211,53.9088 L351.8158,54.085 L361.7105,52.3744 L371.6053,53.7373 L381.5,53.332 " fill="#FEFECE" style="stroke: #A80036; stroke-width: 1.5;"/><path d="M193.5,61.332 L193.5,60.3604 L203.3947,60.4558 L213.2895,61.8544 L223.1842,62.1515 L233.0789,61.9128 L242.9737,60.645 L252.8684,62.1202 L262.7632,60.9833 L272.6579,61.6034 L282.5526,61.9371 L292.4474,60.8075 L302.3421,61.6287 L312.2368,61.8264 L322.1316,60.6677 L332.0263,61.5945 L341.9211,61.4867 L351.8158,61.5254 L361.7105,62.1509 L371.6053,62.0422 L381.5,61.332 " fill="#FEFECE" style="stroke: #A80036; stroke-width: 1.5;"/><text fill="#000000" font-family="sans-serif" font-size="11" lengthAdjust="spacingAndGlyphs" textLength="113" x="198.5" y="75.9668">+一覧を表示：index()</text><text fill="#000000" font-family="sans-serif" font-size="11" lengthAdjust="spacingAndGlyphs" textLength="92" x="198.5" y="88.9219">+新規追加：add()</text><text fill="#000000" font-family="sans-serif" font-size="11" lengthAdjust="spacingAndGlyphs" textLength="70" x="198.5" y="101.877">+編集：edit()</text><text fill="#000000" font-family="sans-serif" font-size="11" lengthAdjust="spacingAndGlyphs" textLength="82" x="198.5" y="114.832">+削除：delete()</text><!--class BlogCategoriesService--><polygon fill="#FEFECE" filter="url(#f0rrtzv)" points="222,220.1992,222,220.6079,232.0769,220.0694,242.1538,220.8216,252.2308,220.7709,262.3077,220.5769,272.3846,220.3556,282.4615,220.5329,292.5385,220.2219,302.6154,220.2915,312.6923,220.1837,322.7692,220.0072,332.8462,219.9075,342.9231,220.584,353,220.1992,353.4198,220.1992,353.3876,230.8168,353.1835,241.4344,353.6174,252.052,353.7179,262.6695,353,273.2871,353,273.0565,342.9231,272.6258,332.8462,273.3322,322.7692,273.12,312.6923,273.0799,302.6154,273.706,292.5385,273.7854,282.4615,273.4228,272.3846,272.9951,262.3077,272.707,252.2308,273.2754,242.1538,272.8265,232.0769,273.7636,222,273.2871,222.1811,273.2871,222.6656,262.6695,221.6798,252.052,222.1542,241.4344,222.678,230.8168,222,220.1992" style="stroke: #A80036; stroke-width: 1.5;"/><text fill="#000000" font-family="sans-serif" font-size="12" lengthAdjust="spacingAndGlyphs" textLength="125" x="225" y="236.8008">BlogCategoriesService</text><path d="M223,244.332 L223,244.132 L232.9231,244.1247 L242.8462,243.8023 L252.7692,243.7137 L262.6923,243.775 L272.6154,244.9355 L282.5385,243.9018 L292.4615,245.1669 L302.3846,244.7897 L312.3077,245.1154 L322.2308,243.8544 L332.1538,243.3597 L342.0769,245.2963 L352,244.332 " fill="#FEFECE" style="stroke: #A80036; stroke-width: 1.5;"/><text fill="#000000" font-family="sans-serif" font-size="11" lengthAdjust="spacingAndGlyphs" textLength="119" x="228" y="258.9668">+BlogCategoriesTable</text><path d="M223,265.2871 L223,265.7567 L232.9231,265.1125 L242.8462,264.7509 L252.7692,265.1886 L262.6923,264.8451 L272.6154,265.1506 L282.5385,265.8102 L292.4615,266.0048 L302.3846,265.3819 L312.3077,265.4521 L322.2308,265.235 L332.1538,265.9485 L342.0769,266.0219 L352,265.2871 " fill="#FEFECE" style="stroke: #A80036; stroke-width: 1.5;"/><!--class BlogCategoriesServiceInterface--><polygon fill="#FEFECE" filter="url(#f0rrtzv)" points="6,181.1992,6,181.5294,16.0556,180.704,26.1111,180.8414,36.1667,181.2898,46.2222,180.5676,56.2778,180.503,66.3333,181.367,76.3889,181.3891,86.4444,181.335,96.5,181.3591,106.5556,181.3003,116.6111,181.6323,126.6667,181.7146,136.7222,181.7089,146.7778,181.516,156.8333,181.652,166.8889,181.372,176.9444,181.1138,187,181.1992,186.3093,181.1992,186.5549,191.2622,186.5398,201.3251,186.7602,211.3881,186.6943,221.451,187.2374,231.514,186.9467,241.5769,186.4468,251.6399,186.5759,261.7028,187.3912,271.7658,187.7064,281.8287,187.1339,291.8917,187.5464,301.9546,187,312.0176,187,312.1203,176.9444,312.5095,166.8889,312.2272,156.8333,311.6824,146.7778,311.7039,136.7222,312.1143,126.6667,312.6084,116.6111,312.3105,106.5556,311.881,96.5,312.1298,86.4444,312.243,76.3889,312.1759,66.3333,311.3879,56.2778,312.728,46.2222,311.7768,36.1667,312.4658,26.1111,312.7373,16.0556,311.5872,6,312.0176,6.2507,312.0176,6.137,301.9546,6.3658,291.8917,6.5441,281.8287,5.5661,271.7658,5.5908,261.7028,6.6186,251.6399,5.9327,241.5769,6.6629,231.514,5.7964,221.451,6.3355,211.3881,5.6697,201.3251,5.3756,191.2622,6,181.1992" style="stroke: #A80036; stroke-width: 1.5;"/><text fill="#000000" font-family="sans-serif" font-size="12" lengthAdjust="spacingAndGlyphs" textLength="175" x="9" y="197.8008">BlogCategoriesServiceInterface</text><path d="M7,205.332 L7,205.0818 L16.9444,204.8935 L26.8889,205.2308 L36.8333,206.0645 L46.7778,206.3234 L56.7222,205.3378 L66.6667,205.2862 L76.6111,204.5709 L86.5556,205.6048 L96.5,206.0919 L106.4444,206.3027 L116.3889,204.8006 L126.3333,205.1229 L136.2778,205.0879 L146.2222,204.3636 L156.1667,205.9997 L166.1111,205.4169 L176.0556,206.1081 L186,205.332 " fill="#FEFECE" style="stroke: #A80036; stroke-width: 1.5;"/><path d="M7,213.332 L7,213.7952 L16.9444,213.388 L26.8889,214.1423 L36.8333,213.0847 L46.7778,212.5106 L56.7222,213.0784 L66.6667,212.8249 L76.6111,213.0828 L86.5556,212.9627 L96.5,212.5852 L106.4444,212.9983 L116.3889,213.6535 L126.3333,213.8288 L136.2778,212.4747 L146.2222,214.2969 L156.1667,214.0839 L166.1111,213.9345 L176.0556,212.519 L186,213.332 " fill="#FEFECE" style="stroke: #A80036; stroke-width: 1.5;"/><text fill="#000000" font-family="sans-serif" font-size="11" lengthAdjust="spacingAndGlyphs" textLength="144" x="12" y="227.9668">+初期データ取得：getNew()</text><text fill="#000000" font-family="sans-serif" font-size="11" lengthAdjust="spacingAndGlyphs" textLength="83" x="12" y="240.9219">+作成：create()</text><text fill="#000000" font-family="sans-serif" font-size="11" lengthAdjust="spacingAndGlyphs" textLength="87" x="12" y="253.877">+編集：update()</text><text fill="#000000" font-family="sans-serif" font-size="11" lengthAdjust="spacingAndGlyphs" textLength="82" x="12" y="266.832">+削除：delete()</text><text fill="#000000" font-family="sans-serif" font-size="11" lengthAdjust="spacingAndGlyphs" textLength="122" x="12" y="279.7871">+単一データ取得：get()</text><text fill="#000000" font-family="sans-serif" font-size="11" lengthAdjust="spacingAndGlyphs" textLength="152" x="12" y="292.7422">+一覧データ取得：getIndex()</text><text fill="#000000" font-family="sans-serif" font-size="11" lengthAdjust="spacingAndGlyphs" textLength="119" x="12" y="305.6973">+リスト取得：getList()</text><!--class BlogCategoriesTable--><polygon fill="#FEFECE" filter="url(#f0rrtzv)" points="225.5,372.1992,225.5,372.8406,235.8333,372.2135,246.1667,372.1413,256.5,372.6744,266.8333,372.746,277.1667,372.929,287.5,372.7678,297.8333,372.8635,308.1667,372.2494,318.5,372.5183,328.8333,371.7396,339.1667,372.209,349.5,372.1992,349.3252,372.1992,349.6038,380.2258,349.659,388.2523,349.5186,396.2789,349.7147,404.3055,349.5,412.332,349.5,413.0438,339.1667,412.9906,328.8333,412.5024,318.5,412.8398,308.1667,413.0698,297.8333,413.0781,287.5,411.6121,277.1667,411.7193,266.8333,412.5729,256.5,412.1654,246.1667,412.5525,235.8333,411.9147,225.5,412.332,225.6067,412.332,225.5352,404.3055,225.4671,396.2789,225.6893,388.2523,225.7408,380.2258,225.5,372.1992" style="stroke: #A80036; stroke-width: 1.5;"/><text fill="#000000" font-family="sans-serif" font-size="12" lengthAdjust="spacingAndGlyphs" textLength="118" x="228.5" y="388.8008">BlogCategoriesTable</text><path d="M226.5,396.332 L226.5,395.67 L236.6667,395.3915 L246.8333,396.8652 L257,395.3809 L267.1667,396.4761 L277.3333,396.1908 L287.5,396.1039 L297.6667,396.2346 L307.8333,396.9945 L318,396.6798 L328.1667,396.2134 L338.3333,396.9596 L348.5,396.332 " fill="#FEFECE" style="stroke: #A80036; stroke-width: 1.5;"/><path d="M226.5,404.332 L226.5,404.3857 L236.6667,403.7538 L246.8333,405.2616 L257,403.7538 L267.1667,404.3955 L277.3333,403.8884 L287.5,404.0501 L297.6667,404.7934 L307.8333,404.0687 L318,404.5949 L328.1667,404.6328 L338.3333,404.4465 L348.5,404.332 " fill="#FEFECE" style="stroke: #A80036; stroke-width: 1.5;"/><!--class BlogCategory--><polygon fill="#FEFECE" filter="url(#f0rrtzv)" points="213,472.1992,213,471.5683,222.9333,471.6406,232.8667,472.0041,242.8,472.9349,252.7333,471.7877,262.6667,471.5681,272.6,472.1967,282.5333,472.5991,292.4667,472.6326,302.4,472.8297,312.3333,472.8773,322.2667,472.8386,332.2,472.0317,342.1333,472.2958,352.0667,471.5585,362,472.1992,361.3293,472.1992,361.7319,482.074,362.6018,491.9487,362.0656,501.8235,361.2521,511.6982,362.0092,521.573,361.4823,531.4478,361.3766,541.3225,362,551.1973,362,550.8232,352.0667,551.1158,342.1333,550.9379,332.2,550.7094,322.2667,551.5686,312.3333,551.6981,302.4,551.4473,292.4667,551.8303,282.5333,551.2904,272.6,551.0568,262.6667,550.5123,252.7333,550.4821,242.8,551.7125,232.8667,550.5651,222.9333,550.8344,213,551.1973,213.1146,551.1973,212.9379,541.3225,212.7417,531.4478,213.2965,521.573,212.6511,511.6982,212.699,501.8235,212.4884,491.9487,212.7486,482.074,213,472.1992" style="stroke: #A80036; stroke-width: 1.5;"/><text fill="#000000" font-family="sans-serif" font-size="12" lengthAdjust="spacingAndGlyphs" textLength="75" x="250" y="488.8008">BlogCategory</text><path d="M214,496.332 L214,495.734 L223.8,496.4851 L233.6,497.0169 L243.4,497.0698 L253.2,496.0394 L263,496.2535 L272.8,497.2005 L282.6,497.131 L292.4,495.9427 L302.2,495.7245 L312,497.079 L321.8,495.608 L331.6,496.4379 L341.4,495.9291 L351.2,496.757 L361,496.332 " fill="#FEFECE" style="stroke: #A80036; stroke-width: 1.5;"/><text fill="#000000" font-family="sans-serif" font-size="11" lengthAdjust="spacingAndGlyphs" textLength="104" x="219" y="510.9668">+カテゴリ名：name</text><text fill="#000000" font-family="sans-serif" font-size="11" lengthAdjust="spacingAndGlyphs" textLength="128" x="219" y="523.9219">+カテゴリタイトル：title</text><text fill="#000000" font-family="sans-serif" font-size="11" lengthAdjust="spacingAndGlyphs" textLength="137" x="219" y="536.877">+親カテゴリID：parent_id</text><path d="M214,543.1973 L214,542.7991 L223.8,542.8543 L233.6,543.4887 L243.4,542.7126 L253.2,543.9551 L263,543.0463 L272.8,542.5937 L282.6,542.3885 L292.4,544.0938 L302.2,542.3723 L312,543.6316 L321.8,543.4779 L331.6,542.7904 L341.4,543.3184 L351.2,542.6253 L361,543.1973 " fill="#FEFECE" style="stroke: #A80036; stroke-width: 1.5;"/><path d="M287.5,121.6192 L287.4415,121.6192 L287.4594,132.0081 L287.1948,142.397 L288.375,152.7859 L288.1547,163.1748 L288.4774,173.5637 L287.9624,183.9526 L287.5058,194.3414 L286.9121,204.7303 L287.5,215.1192 " fill="none" style="stroke: #000000; stroke-width: 1.0;"/><polygon fill="#000000" points="287.5,220.1692,287.493,220.1661,288.3041,218.3711,289.0003,216.5249,289.9123,214.7747,290.4989,212.8799,291.5,211.1692,291.4297,211.0989,290.6656,211.9348,289.8503,212.7195,289.1711,213.6403,288.1799,214.2491,287.5,215.1692,287.5601,215.2293,286.5816,214.2509,285.9229,213.5921,285.1142,212.7834,284.2541,211.9233,283.5,211.1692,283.4815,211.161,284.2249,212.9358,285.3228,214.8683,285.8254,216.5361,286.5672,218.3102,287.5,220.1692" style="stroke: #000000; stroke-width: 1.0;"/><path d="M287.5,273.3492 L288.1123,273.3492 L286.8921,283.7403 L287.9834,294.1314 L287.8318,304.5226 L288.3236,314.9137 L287.086,325.3048 L288.3286,335.6959 L286.8607,346.087 L288.0395,356.4781 L287.5,366.8692 " fill="none" style="stroke: #000000; stroke-width: 1.0;"/><polygon fill="#000000" points="287.5,372.1792,287.4795,372.1701,288.0878,370.2849,289.0405,368.5528,290.0346,366.839,290.523,364.9005,291.5,363.1792,291.612,363.2912,290.6266,363.9058,289.9767,364.8559,288.9787,365.4579,288.2137,366.2929,287.5,367.1792,287.3377,367.0169,286.6285,366.3078,285.9653,365.6445,285.0184,364.6976,284.2639,363.9431,283.5,363.1792,283.5995,363.2234,284.4769,365.0578,285.0613,366.762,286.0739,368.6565,286.4826,370.2826,287.5,372.1792" style="stroke: #000000; stroke-width: 1.0;"/><path d="M207.36,246.6992 L207.36,246.8727 L210.218,246.41 L213.076,246.8165 L215.934,246.7984 L218.792,246.5787 L221.65,246.6992 " fill="none" style="stroke: #000000; stroke-width: 1.0; stroke-dasharray: 1.0,3.0;"/><polygon fill="none" points="207.15,253.6992,207.1075,253.5778,203.1649,252.3419,199.2063,251.0601,195.0683,249.2659,191.217,248.2906,187.15,246.6992,187.1079,246.579,191.2219,245.5046,195.2202,244.0999,199.1977,242.6354,203.1192,241.0112,207.15,239.6992,207.2216,239.6992,207.1447,242.4992,207.3409,245.2992,207.218,248.0992,206.9309,250.8992,207.15,253.6992" style="stroke: #000000; stroke-width: 1.0;"/><path d="M287.5,412.3392 L288.3543,412.3392 L287.2854,423.2392 L287.6151,434.1392 L288.1185,445.0392 L286.5066,455.9392 L287.5,466.8392 " fill="none" style="stroke: #000000; stroke-width: 1.0;"/><polygon fill="#000000" points="287.5,472.0792,287.4921,472.0757,288.4388,470.3409,289.1609,468.5063,289.7221,466.6002,290.5771,464.8246,291.5,463.0792,291.556,463.1352,290.8755,464.0547,289.9748,464.754,288.9861,465.3653,288.1657,466.145,287.5,467.0792,287.503,467.0822,286.8312,466.4104,285.8664,465.4456,284.9563,464.5355,284.3647,463.9439,283.5,463.0792,283.4423,463.0536,284.271,464.8663,285.1106,466.6839,285.803,468.4361,286.7519,470.3023,287.5,472.0792" style="stroke: #000000; stroke-width: 1.0;"/></g></svg>