<?xml version="1.0" encoding="UTF-8" standalone="no"?><svg xmlns="http://www.w3.org/2000/svg" xmlns:xlink="http://www.w3.org/1999/xlink" contentScriptType="application/ecmascript" contentStyleType="text/css" height="859px" preserveAspectRatio="none" style="width:510px;height:859px;" version="1.1" viewBox="0 0 510 859" width="510px" zoomAndPan="magnify"><defs><filter height="300%" id="f4pz4jv" width="300%" x="-1" y="-1"><feGaussianBlur result="blurOut" stdDeviation="2.0"/><feColorMatrix in="blurOut" result="blurOut2" type="matrix" values="0 0 0 0 0 0 0 0 0 0 0 0 0 0 0 0 0 0 .4 0"/><feOffset dx="4.0" dy="4.0" in="blurOut2" result="blurOut3"/><feBlend in="SourceGraphic" in2="blurOut3" mode="normal"/></filter></defs><g><text fill="#000000" font-family="sans-serif" font-size="18" lengthAdjust="spacingAndGlyphs" textLength="126" x="196.5" y="17.4023">ブログ記事管理</text><!--class Admin\BlogPostsController--><polygon fill="#FEFECE" filter="url(#f4pz4jv)" points="296.5,29.1992,296.5,29.4326,306.6111,28.7016,316.7222,29.8801,326.8333,29.4045,336.9444,28.5188,347.0556,29.6448,357.1667,29.7446,367.2778,29.1049,377.3889,29.9091,387.5,29.36,397.6111,29.0204,407.7222,28.9746,417.8333,29.3812,427.9444,29.014,438.0556,28.8507,448.1667,28.6448,458.2778,28.7363,468.3889,28.7883,478.5,29.1992,478.816,29.1992,478.2721,39.2622,479.1049,49.3251,478.708,59.3881,478.0168,69.451,479.1549,79.514,478.1779,89.5769,478.9275,99.6399,479.223,109.7028,478.6634,119.7658,479.2205,129.8287,478.1265,139.8917,478.7053,149.9546,478.5,160.0176,478.5,160.7185,468.3889,159.7924,458.2778,160.7531,448.1667,159.5551,438.0556,160.4354,427.9444,159.3412,417.8333,160.2392,407.7222,159.5201,397.6111,160.2185,387.5,159.9955,377.3889,159.7442,367.2778,160.0333,357.1667,159.3428,347.0556,160.2454,336.9444,159.7359,326.8333,159.3892,316.7222,159.2693,306.6111,159.6511,296.5,160.0176,296.6742,160.0176,296.8266,149.9546,297.0981,139.8917,296.2334,129.8287,296.3625,119.7658,296.7533,109.7028,295.983,99.6399,296.6188,89.5769,296.2248,79.514,296.3435,69.451,296.7729,59.3881,297.0546,49.3251,297.1913,39.2622,296.5,29.1992" style="stroke: #A80036; stroke-width: 1.5;"/><text fill="#000000" font-family="sans-serif" font-size="12" lengthAdjust="spacingAndGlyphs" textLength="153" x="311" y="45.8008">Admin\BlogPostsController</text><path d="M297.5,53.332 L297.5,52.7794 L307.5,54.2864 L317.5,53.6369 L327.5,53.9739 L337.5,52.69 L347.5,54.0677 L357.5,52.8987 L367.5,53.3985 L377.5,53.3939 L387.5,53.2397 L397.5,52.8641 L407.5,53.12 L417.5,52.5317 L427.5,53.1372 L437.5,54.3029 L447.5,52.5365 L457.5,52.8601 L467.5,53.1656 L477.5,53.332 " fill="#FEFECE" style="stroke: #A80036; stroke-width: 1.5;"/><path d="M297.5,61.332 L297.5,61.5647 L307.5,61.5981 L317.5,61.9802 L327.5,61.2897 L337.5,62.163 L347.5,61.4903 L357.5,61.2252 L367.5,61.0197 L377.5,61.2706 L387.5,61.0122 L397.5,60.9701 L407.5,61.7662 L417.5,61.6814 L427.5,60.6841 L437.5,62.1326 L447.5,61.5528 L457.5,60.8936 L467.5,61.0718 L477.5,61.332 " fill="#FEFECE" style="stroke: #A80036; stroke-width: 1.5;"/><text fill="#000000" font-family="sans-serif" font-size="11" lengthAdjust="spacingAndGlyphs" textLength="113" x="302.5" y="75.9668">+一覧を表示：index()</text><text fill="#000000" font-family="sans-serif" font-size="11" lengthAdjust="spacingAndGlyphs" textLength="92" x="302.5" y="88.9219">+新規追加：add()</text><text fill="#000000" font-family="sans-serif" font-size="11" lengthAdjust="spacingAndGlyphs" textLength="70" x="302.5" y="101.877">+編集：edit()</text><text fill="#000000" font-family="sans-serif" font-size="11" lengthAdjust="spacingAndGlyphs" textLength="82" x="302.5" y="114.832">+削除：delete()</text><text fill="#000000" font-family="sans-serif" font-size="11" lengthAdjust="spacingAndGlyphs" textLength="76" x="302.5" y="127.7871">+複製：copy()</text><text fill="#000000" font-family="sans-serif" font-size="11" lengthAdjust="spacingAndGlyphs" textLength="145" x="302.5" y="140.7422">+公開状態に設定：publish()</text><text fill="#000000" font-family="sans-serif" font-size="11" lengthAdjust="spacingAndGlyphs" textLength="170" x="302.5" y="153.6973">+非公開状態に設定：unpublish()</text><!--class BlogPostsService--><polygon fill="#FEFECE" filter="url(#f4pz4jv)" points="336.5,304.6992,336.5,304.3214,346.7,304.7314,356.9,305.0169,367.1,304.7998,377.3,304.4681,387.5,304.4404,397.7,304.8949,407.9,305.1171,418.1,304.1493,428.3,304.1315,438.5,304.6992,438.1709,304.6992,438.5642,315.3168,438.6145,325.9344,438.7299,336.552,437.8598,347.1695,438.5,357.7871,438.5,357.5578,428.3,357.1574,418.1,357.8811,407.9,358.0112,397.7,357.95,387.5,358.3398,377.3,357.3587,367.1,357.4334,356.9,357.4926,346.7,357.9468,336.5,357.7871,336.7329,357.7871,336.94,347.1695,336.837,336.552,336.5794,325.9344,335.7863,315.3168,336.5,304.6992" style="stroke: #A80036; stroke-width: 1.5;"/><text fill="#000000" font-family="sans-serif" font-size="12" lengthAdjust="spacingAndGlyphs" textLength="94" x="340.5" y="321.3008">BlogPostsService</text><path d="M337.5,328.832 L337.5,329.7589 L347.5,329.4692 L357.5,329.5713 L367.5,329.1238 L377.5,328.9316 L387.5,328.107 L397.5,328.6501 L407.5,327.9009 L417.5,328.3812 L427.5,329.027 L437.5,328.832 " fill="#FEFECE" style="stroke: #A80036; stroke-width: 1.5;"/><text fill="#000000" font-family="sans-serif" font-size="11" lengthAdjust="spacingAndGlyphs" textLength="90" x="342.5" y="343.4668">+BlogPostsTable</text><path d="M337.5,349.7871 L337.5,349.4553 L347.5,349.03 L357.5,350.721 L367.5,348.7922 L377.5,349.3931 L387.5,349.2014 L397.5,349.2346 L407.5,350.0784 L417.5,350.1315 L427.5,349.6025 L437.5,349.7871 " fill="#FEFECE" style="stroke: #A80036; stroke-width: 1.5;"/><!--class BlogPostsServiceInterface--><polygon fill="#FEFECE" filter="url(#f4pz4jv)" points="6,220.1992,6,219.9393,15.8333,219.8188,25.6667,219.8056,35.5,220.5643,45.3333,220.2503,55.1667,219.4908,65,220.1124,74.8333,220.162,84.6667,219.5575,94.5,220.7515,104.3333,220.546,114.1667,220.733,124,219.7504,133.8333,219.7466,143.6667,220.7014,153.5,219.6178,163.3333,220.3789,173.1667,220.3935,183,219.7397,192.8333,219.7815,202.6667,219.7843,212.5,219.7878,222.3333,220.2497,232.1667,220.7689,242,220.6297,251.8333,220.697,261.6667,220.526,271.5,219.4516,281.3333,220.3476,291.1667,220.9275,301,220.1992,300.9696,220.1992,300.4073,230.2676,300.7237,240.3359,301.1959,250.4043,300.9315,260.4727,300.3477,270.541,300.9003,280.6094,300.4681,290.6777,300.3779,300.7461,301.6466,310.8145,301.3342,320.8828,300.3783,330.9512,300.9802,341.0195,301.4552,351.0879,301.4137,361.1563,301.0263,371.2246,300.5325,381.293,300.522,391.3613,300.9338,401.4297,301.5942,411.498,301.5659,421.5664,301.257,431.6348,301,441.7031,301,441.7472,291.1667,441.1066,281.3333,442.142,271.5,441.7771,261.6667,441.0854,251.8333,441.7356,242,441.3996,232.1667,441.4667,222.3333,441.7764,212.5,442.2983,202.6667,441.5282,192.8333,441.5201,183,440.9982,173.1667,441.155,163.3333,441.579,153.5,441.1261,143.6667,442.1156,133.8333,441.3929,124,441.5008,114.1667,441.0128,104.3333,442.4366,94.5,441.8639,84.6667,442.3967,74.8333,442.3889,65,440.975,55.1667,441.9143,45.3333,442.3198,35.5,441.9694,25.6667,441.1905,15.8333,441.6736,6,441.7031,5.4263,441.7031,5.7315,431.6348,6.3311,421.5664,5.6942,411.498,5.6552,401.4297,6.4805,391.3613,6.5474,381.293,6.1697,371.2246,6.2785,361.1563,6.1864,351.0879,6.5677,341.0195,5.6024,330.9512,5.7334,320.8828,5.4508,310.8145,5.4865,300.7461,6.6956,290.6777,5.5122,280.6094,5.2868,270.541,6.5279,260.4727,5.3266,250.4043,6.6392,240.3359,5.7272,230.2676,6,220.1992" style="stroke: #A80036; stroke-width: 1.5;"/><text fill="#000000" font-family="sans-serif" font-size="12" lengthAdjust="spacingAndGlyphs" textLength="144" x="81.5" y="236.8008">BlogPostsServiceInterface</text><path d="M7,244.332 L7,244.4594 L17.1034,244.7312 L27.2069,244.7925 L37.3103,245.0921 L47.4138,244.927 L57.5172,245.1633 L67.6207,244.0369 L77.7241,245.1613 L87.8276,245.3273 L97.931,244.505 L108.0345,244.49 L118.1379,243.3931 L128.2414,245.331 L138.3448,244.9741 L148.4483,245.0216 L158.5517,244.3983 L168.6552,244.4331 L178.7586,244.0447 L188.8621,244.1433 L198.9655,244.9048 L209.069,243.799 L219.1724,243.7005 L229.2759,243.5355 L239.3793,244.8556 L249.4828,244.6133 L259.5862,244.3361 L269.6897,244.9853 L279.7931,243.8556 L289.8966,243.3561 L300,244.332 " fill="#FEFECE" style="stroke: #A80036; stroke-width: 1.5;"/><path d="M7,252.332 L7,252.5985 L17.1034,251.7782 L27.2069,252.8728 L37.3103,252.8441 L47.4138,252.7299 L57.5172,253.0952 L67.6207,252.2103 L77.7241,251.9708 L87.8276,252.4343 L97.931,252.1584 L108.0345,252.0722 L118.1379,252.8721 L128.2414,252.9366 L138.3448,251.7504 L148.4483,251.5348 L158.5517,251.7118 L168.6552,252.7351 L178.7586,252.2999 L188.8621,251.4121 L198.9655,252.4504 L209.069,251.5718 L219.1724,251.9835 L229.2759,252.3702 L239.3793,251.8039 L249.4828,251.3531 L259.5862,253.2342 L269.6897,251.6992 L279.7931,252.1416 L289.8966,252.1496 L300,252.332 " fill="#FEFECE" style="stroke: #A80036; stroke-width: 1.5;"/><text fill="#000000" font-family="sans-serif" font-size="11" lengthAdjust="spacingAndGlyphs" textLength="144" x="12" y="266.9668">+初期データ取得：getNew()</text><text fill="#000000" font-family="sans-serif" font-size="11" lengthAdjust="spacingAndGlyphs" textLength="83" x="12" y="279.9219">+作成：create()</text><text fill="#000000" font-family="sans-serif" font-size="11" lengthAdjust="spacingAndGlyphs" textLength="87" x="12" y="292.877">+編集：update()</text><text fill="#000000" font-family="sans-serif" font-size="11" lengthAdjust="spacingAndGlyphs" textLength="82" x="12" y="305.832">+削除：delete()</text><text fill="#000000" font-family="sans-serif" font-size="11" lengthAdjust="spacingAndGlyphs" textLength="122" x="12" y="318.7871">+単一データ取得：get()</text><text fill="#000000" font-family="sans-serif" font-size="11" lengthAdjust="spacingAndGlyphs" textLength="152" x="12" y="331.7422">+一覧データ取得：getIndex()</text><text fill="#000000" font-family="sans-serif" font-size="11" lengthAdjust="spacingAndGlyphs" textLength="87" x="12" y="344.6973">+コピー：copy()</text><text fill="#000000" font-family="sans-serif" font-size="11" lengthAdjust="spacingAndGlyphs" textLength="204" x="12" y="357.6523">+公開状態かどうか確認：allowPublish()</text><text fill="#000000" font-family="sans-serif" font-size="11" lengthAdjust="spacingAndGlyphs" textLength="102" x="12" y="370.6074">+一括処理：batch()</text><text fill="#000000" font-family="sans-serif" font-size="11" lengthAdjust="spacingAndGlyphs" textLength="145" x="12" y="383.5625">+公開状態に設定：publish()</text><text fill="#000000" font-family="sans-serif" font-size="11" lengthAdjust="spacingAndGlyphs" textLength="170" x="12" y="396.5176">+非公開状態に設定：unpublish()</text><text fill="#000000" font-family="sans-serif" font-size="11" lengthAdjust="spacingAndGlyphs" textLength="283" x="12" y="409.4727">+複数のIDよりタイトルのリストを取得：getTitlesById()</text><text fill="#000000" font-family="sans-serif" font-size="11" lengthAdjust="spacingAndGlyphs" textLength="244" x="12" y="422.4277">+コントロールソース取得：getControlSource()</text><text fill="#000000" font-family="sans-serif" font-size="11" lengthAdjust="spacingAndGlyphs" textLength="228" x="12" y="435.3828">+ファイルアップロード設定：setupUpload()</text><!--class BlogPostsTable--><polygon fill="#FEFECE" filter="url(#f4pz4jv)" points="341,502.1992,341,501.7114,351.3333,502.2416,361.6667,502.9201,372,501.9417,382.3333,501.8486,392.6667,502.387,403,502.0617,413.3333,502.6429,423.6667,502.7469,434,502.1992,433.9434,502.1992,434.0505,510.2258,434.1228,518.2523,433.989,526.2789,433.805,534.3055,434,542.332,434,542.9333,423.6667,542.4375,413.3333,541.9797,403,542.3998,392.6667,542.2368,382.3333,542.7641,372,542.1285,361.6667,542.0589,351.3333,542.4489,341,542.332,341.0249,542.332,341.1862,534.3055,340.8597,526.2789,340.935,518.2523,341.0321,510.2258,341,502.1992" style="stroke: #A80036; stroke-width: 1.5;"/><text fill="#000000" font-family="sans-serif" font-size="12" lengthAdjust="spacingAndGlyphs" textLength="87" x="344" y="518.8008">BlogPostsTable</text><path d="M342,526.332 L342,526.9939 L352.1111,526.6387 L362.2222,527.01 L372.3333,526.2626 L382.4444,525.5828 L392.5556,526.1331 L402.6667,527.1992 L412.7778,526.7119 L422.8889,525.5646 L433,526.332 " fill="#FEFECE" style="stroke: #A80036; stroke-width: 1.5;"/><path d="M342,534.332 L342,534.9783 L352.1111,534.4578 L362.2222,534.47 L372.3333,533.4838 L382.4444,534.7146 L392.5556,534.8296 L402.6667,534.4613 L412.7778,533.5276 L422.8889,535.2599 L433,534.332 " fill="#FEFECE" style="stroke: #A80036; stroke-width: 1.5;"/><!--class BlogPost--><polygon fill="#FEFECE" filter="url(#f4pz4jv)" points="274.5,602.1992,274.5,601.8988,284.3261,602.0639,294.1522,601.5837,303.9783,601.6024,313.8043,602.428,323.6304,601.9328,333.4565,602.5622,343.2826,602.6949,353.1087,602.3624,362.9348,602.1671,372.7609,602.9403,382.587,602.495,392.413,602.3756,402.2391,602.2486,412.0652,602.1859,421.8913,601.91,431.7174,601.4861,441.5435,601.7064,451.3696,602.7087,461.1957,602.5361,471.0217,601.9307,480.8478,602.1646,490.6739,601.6437,500.5,602.1992,500.1312,602.1992,501.0691,612.0958,500.1549,621.9923,500.0414,631.8889,500.6775,641.7855,501.2001,651.682,500.6035,661.5786,500.3846,671.4752,500.4243,681.3717,501.197,691.2683,501.0821,701.1648,500.7068,711.0614,499.7643,720.958,500.827,730.8545,500.1298,740.7511,500.6087,750.6477,499.9608,760.5442,500.891,770.4408,500.6276,780.3373,501.063,790.2339,500.6975,800.1305,501.0168,810.027,500.4175,819.9236,500.1671,829.8202,500.4447,839.7167,500.5,849.6133,500.5,849.936,490.6739,849.0021,480.8478,849.8164,471.0217,850.0016,461.1957,849.5233,451.3696,849.3794,441.5435,850.2936,431.7174,849.9799,421.8913,850.0655,412.0652,850.1482,402.2391,849.2755,392.413,849.7062,382.587,849.3377,372.7609,849.1521,362.9348,849.4419,353.1087,849.5347,343.2826,849.3688,333.4565,849.3771,323.6304,849.9934,313.8043,849.6441,303.9783,849.5056,294.1522,849.3155,284.3261,850.1847,274.5,849.6133,274.1584,849.6133,274.9369,839.7167,274.9541,829.8202,274.3506,819.9236,274.9153,810.027,275.1536,800.1305,274.3827,790.2339,274.7887,780.3373,274.7562,770.4408,273.8484,760.5442,275.184,750.6477,274.7081,740.7511,273.8523,730.8545,274.8876,720.958,274.1736,711.0614,274.1567,701.1648,274.9412,691.2683,274.461,681.3717,274.9171,671.4752,274.6277,661.5786,274.6879,651.682,274.0912,641.7855,275.0551,631.8889,274.6984,621.9923,274.69,612.0958,274.5,602.1992" style="stroke: #A80036; stroke-width: 1.5;"/><text fill="#000000" font-family="sans-serif" font-size="12" lengthAdjust="spacingAndGlyphs" textLength="48" x="363.5" y="618.8008">BlogPost</text><path d="M275.5,626.332 L275.5,626.143 L285.6818,626.0364 L295.8636,625.7214 L306.0455,625.6772 L316.2273,625.7154 L326.4091,626.8835 L336.5909,627.0965 L346.7727,626.9791 L356.9545,626.1305 L367.1364,626.2911 L377.3182,626.0668 L387.5,627.1679 L397.6818,626.695 L407.8636,626.6943 L418.0455,626.7262 L428.2273,626.3549 L438.4091,625.5563 L448.5909,626.3277 L458.7727,625.7016 L468.9545,625.6664 L479.1364,627.3072 L489.3182,626.9508 L499.5,626.332 " fill="#FEFECE" style="stroke: #A80036; stroke-width: 1.5;"/><text fill="#000000" font-family="sans-serif" font-size="11" lengthAdjust="spacingAndGlyphs" textLength="206" x="280.5" y="640.9668">+ブログコンテンツID：blog_content_id</text><text fill="#000000" font-family="sans-serif" font-size="11" lengthAdjust="spacingAndGlyphs" textLength="51" x="280.5" y="653.9219">+NO：no</text><text fill="#000000" font-family="sans-serif" font-size="11" lengthAdjust="spacingAndGlyphs" textLength="93" x="280.5" y="666.877">+スラッグ：name</text><text fill="#000000" font-family="sans-serif" font-size="11" lengthAdjust="spacingAndGlyphs" textLength="84" x="280.5" y="679.832">+タイトル：title</text><text fill="#000000" font-family="sans-serif" font-size="11" lengthAdjust="spacingAndGlyphs" textLength="83" x="280.5" y="692.7871">+概要：content</text><text fill="#000000" font-family="sans-serif" font-size="11" lengthAdjust="spacingAndGlyphs" textLength="71" x="280.5" y="705.7422">+詳細：detail</text><text fill="#000000" font-family="sans-serif" font-size="11" lengthAdjust="spacingAndGlyphs" textLength="201" x="280.5" y="718.6973">+ブログカテゴリID：blog_category_id</text><text fill="#000000" font-family="sans-serif" font-size="11" lengthAdjust="spacingAndGlyphs" textLength="116" x="280.5" y="731.6523">+作成者ID：author_id</text><text fill="#000000" font-family="sans-serif" font-size="11" lengthAdjust="spacingAndGlyphs" textLength="104" x="280.5" y="744.6074">+公開状態：publish</text><text fill="#000000" font-family="sans-serif" font-size="11" lengthAdjust="spacingAndGlyphs" textLength="90" x="280.5" y="757.5625">+投稿日：posted</text><text fill="#000000" font-family="sans-serif" font-size="11" lengthAdjust="spacingAndGlyphs" textLength="137" x="280.5" y="770.5176">+概要草稿：content_draft</text><text fill="#000000" font-family="sans-serif" font-size="11" lengthAdjust="spacingAndGlyphs" textLength="125" x="280.5" y="783.4727">+詳細草稿：detail_draft</text><text fill="#000000" font-family="sans-serif" font-size="11" lengthAdjust="spacingAndGlyphs" textLength="151" x="280.5" y="796.4277">+公開開始日：publish_begin</text><text fill="#000000" font-family="sans-serif" font-size="11" lengthAdjust="spacingAndGlyphs" textLength="141" x="280.5" y="809.3828">+公開終了日：publish_end</text><text fill="#000000" font-family="sans-serif" font-size="11" lengthAdjust="spacingAndGlyphs" textLength="214" x="280.5" y="822.3379">+サイト内検索より除外：exclude_search</text><text fill="#000000" font-family="sans-serif" font-size="11" lengthAdjust="spacingAndGlyphs" textLength="139" x="280.5" y="835.293">+アイキャッチ：eye_catch</text><path d="M275.5,841.6133 L275.5,841.2061 L285.6818,840.7426 L295.8636,841.4328 L306.0455,841.6299 L316.2273,841.0027 L326.4091,842.5171 L336.5909,842.1321 L346.7727,842.4439 L356.9545,841.0253 L367.1364,841.8491 L377.3182,841.7349 L387.5,842.5318 L397.6818,841.4366 L407.8636,842.225 L418.0455,841.5703 L428.2273,840.8888 L438.4091,842.3154 L448.5909,842.2699 L458.7727,841.1453 L468.9545,841.1866 L479.1364,841.5171 L489.3182,841.7677 L499.5,841.6133 " fill="#FEFECE" style="stroke: #A80036; stroke-width: 1.5;"/><path d="M387.5,160.3992 L387.3252,160.3992 L388.0795,170.3342 L388.0482,180.2692 L386.7948,190.2042 L386.5028,200.1392 L386.6189,210.0742 L388.4392,220.0092 L388.3277,229.9442 L388.3119,239.8792 L388.3197,249.8142 L386.5395,259.7492 L387.731,269.6842 L388.3139,279.6192 L388.1612,289.5542 L387.5,299.4892 " fill="none" style="stroke: #000000; stroke-width: 1.0;"/><polygon fill="#000000" points="387.5,304.4992,387.4149,304.4614,388.4403,302.7616,389.1509,300.9218,389.7397,299.028,390.9193,297.3967,391.5,295.4992,391.6555,295.6548,390.5941,296.1933,389.9499,297.1491,388.9486,297.7478,388.2406,298.6398,387.5,299.4992,387.3298,299.329,386.6356,298.6348,385.9856,297.9848,385.0536,297.0528,384.423,296.4222,383.5,295.4992,383.6727,295.576,384.4923,297.3847,385.0864,299.0932,385.8482,300.8762,386.7762,302.7331,387.5,304.4992" style="stroke: #000000; stroke-width: 1.0;"/><path d="M387.5,358.0792 L387.9658,358.0792 L387.7444,368.0135 L388.4401,377.9478 L388.3688,387.8821 L388.4025,397.8164 L387.806,407.7506 L388.3644,417.6849 L387.9518,427.6192 L386.9051,437.5535 L388.2843,447.4878 L386.9311,457.4221 L388.2433,467.3564 L387.2638,477.2906 L387.3162,487.2249 L387.5,497.1592 " fill="none" style="stroke: #000000; stroke-width: 1.0;"/><polygon fill="#000000" points="387.5,502.1892,387.6751,502.267,388.198,500.3439,389.255,498.6581,389.9793,496.8245,390.5094,494.9045,391.5,493.1892,391.3343,493.0236,390.6422,493.9314,389.8124,494.7017,389.1885,495.6777,388.399,496.4882,387.5,497.1892,387.5211,497.2103,386.8548,496.5441,386.0479,495.7371,385.0289,494.7181,384.1575,493.8467,383.5,493.1892,383.5969,493.2323,384.4936,495.0752,385.025,496.7559,385.7938,498.542,386.8875,500.4725,387.5,502.1892" style="stroke: #000000; stroke-width: 1.0;"/><path d="M321.13,331.1992 L321.13,330.9154 L324.146,331.1758 L327.162,330.8667 L330.178,330.9393 L333.194,331.1647 L336.21,331.1992 " fill="none" style="stroke: #000000; stroke-width: 1.0; stroke-dasharray: 1.0,3.0;"/><polygon fill="none" points="321.12,338.1992,321.2022,338.4341,317.0577,336.6212,313.1139,335.3818,309.1125,333.9779,305.1837,332.7813,301.12,331.1992,301.1873,331.3916,305.121,329.8022,309.1342,328.4398,313.0401,326.7711,317.1388,325.653,321.12,324.1992,321.3134,324.1992,321.0858,326.9992,321.0663,329.7992,321.314,332.5992,321.3336,335.3992,321.12,338.1992" style="stroke: #000000; stroke-width: 1.0;"/><path d="M387.5,542.5192 L387.5354,542.5192 L387.1766,553.3792 L387.4581,564.2392 L387.603,575.0992 L388.2179,585.9592 L387.5,596.8192 " fill="none" style="stroke: #000000; stroke-width: 1.0;"/><polygon fill="#000000" points="387.5,601.9592,387.3384,601.8874,388.3326,600.1737,389.2245,598.4146,389.8047,596.5169,390.6677,594.7449,391.5,592.9592,391.4169,592.8761,390.7766,593.8358,389.9599,594.6191,389.2374,595.4966,388.2314,596.0907,387.5,596.9592,387.3354,596.7946,386.8319,596.2911,385.813,595.2722,384.9479,594.4071,384.3024,593.7616,383.5,592.9592,383.3996,592.9146,384.432,594.8179,384.8975,596.4692,385.9993,598.4034,386.8844,600.2412,387.5,601.9592" style="stroke: #000000; stroke-width: 1.0;"/></g></svg>