<?xml version="1.0" encoding="UTF-8" standalone="no"?><svg xmlns="http://www.w3.org/2000/svg" xmlns:xlink="http://www.w3.org/1999/xlink" contentScriptType="application/ecmascript" contentStyleType="text/css" height="573px" preserveAspectRatio="none" style="width:450px;height:573px;" version="1.1" viewBox="0 0 450 573" width="450px" zoomAndPan="magnify"><defs><filter height="300%" id="frtacdn" width="300%" x="-1" y="-1"><feGaussianBlur result="blurOut" stdDeviation="2.0"/><feColorMatrix in="blurOut" result="blurOut2" type="matrix" values="0 0 0 0 0 0 0 0 0 0 0 0 0 0 0 0 0 0 .4 0"/><feOffset dx="4.0" dy="4.0" in="blurOut2" result="blurOut3"/><feBlend in="SourceGraphic" in2="blurOut3" mode="normal"/></filter></defs><g><text fill="#000000" font-family="sans-serif" font-size="18" lengthAdjust="spacingAndGlyphs" textLength="288" x="85.5" y="17.4023">アップロードファイルカテゴリ管理</text><!--class Admin\UploaderCategoriesController--><polygon fill="#FEFECE" filter="url(#frtacdn)" points="221.5,29.1992,221.5,29.1024,231.4545,29.9197,241.4091,28.9007,251.3636,28.9016,261.3182,29.0466,271.2727,29.8681,281.2273,28.5912,291.1818,29.4749,301.1364,28.7426,311.0909,28.4723,321.0455,29.594,331,28.6909,340.9545,29.3295,350.9091,28.6536,360.8636,29.2621,370.8182,29.1041,380.7727,28.7833,390.7273,28.5774,400.6818,29.1706,410.6364,29.4867,420.5909,29.7323,430.5455,29.6357,440.5,29.1992,441.0063,29.1992,441.2213,39.69,440.0814,50.1809,440.8274,60.6717,439.9611,71.1625,439.7529,81.6533,440.1722,92.1441,440.4664,102.635,439.8227,113.1258,440.6785,123.6166,440.5,134.1074,440.5,134.0091,430.5455,134.8558,420.5909,133.3908,410.6364,133.471,400.6818,134.7624,390.7273,133.7882,380.7727,134.8101,370.8182,133.8867,360.8636,133.5792,350.9091,134.7094,340.9545,133.8645,331,134.286,321.0455,133.7744,311.0909,134.7086,301.1364,134.4654,291.1818,133.6301,281.2273,133.5311,271.2727,133.4677,261.3182,134.6955,251.3636,134.5209,241.4091,134.4562,231.4545,134.552,221.5,134.1074,221.9054,134.1074,221.3819,123.6166,221.3316,113.1258,222.0801,102.635,222.1907,92.1441,221.4328,81.6533,221.9732,71.1625,221.1688,60.6717,221.8689,50.1809,221.7483,39.69,221.5,29.1992" style="stroke: #A80036; stroke-width: 1.5;"/><text fill="#000000" font-family="sans-serif" font-size="12" lengthAdjust="spacingAndGlyphs" textLength="213" x="224.5" y="45.8008">Admin\UploaderCategoriesController</text><path d="M222.5,53.332 L222.5,53.8153 L232.3636,52.943 L242.2273,52.4233 L252.0909,53.8766 L261.9545,54.0735 L271.8182,53.8706 L281.6818,52.7872 L291.5455,53.8594 L301.4091,53.7151 L311.2727,54.1093 L321.1364,54.1461 L331,54.0133 L340.8636,52.8812 L350.7273,53.3926 L360.5909,52.628 L370.4545,54.1952 L380.3182,53.9015 L390.1818,54.2898 L400.0455,52.3732 L409.9091,54.1712 L419.7727,53.7163 L429.6364,53.8762 L439.5,53.332 " fill="#FEFECE" style="stroke: #A80036; stroke-width: 1.5;"/><path d="M222.5,61.332 L222.5,60.759 L232.3636,62.0706 L242.2273,61.6369 L252.0909,62.1119 L261.9545,61.07 L271.8182,61.6496 L281.6818,61.7842 L291.5455,61.956 L301.4091,62.3225 L311.2727,61.3453 L321.1364,60.3904 L331,61.6318 L340.8636,60.7626 L350.7273,62.2052 L360.5909,60.4278 L370.4545,61.7867 L380.3182,60.8036 L390.1818,61.8253 L400.0455,61.7433 L409.9091,61.5501 L419.7727,60.8567 L429.6364,61.4104 L439.5,61.332 " fill="#FEFECE" style="stroke: #A80036; stroke-width: 1.5;"/><text fill="#000000" font-family="sans-serif" font-size="11" lengthAdjust="spacingAndGlyphs" textLength="102" x="227.5" y="75.9668">+一覧取得：index()</text><text fill="#000000" font-family="sans-serif" font-size="11" lengthAdjust="spacingAndGlyphs" textLength="92" x="227.5" y="88.9219">+新規追加：add()</text><text fill="#000000" font-family="sans-serif" font-size="11" lengthAdjust="spacingAndGlyphs" textLength="70" x="227.5" y="101.877">+編集：edit()</text><text fill="#000000" font-family="sans-serif" font-size="11" lengthAdjust="spacingAndGlyphs" textLength="82" x="227.5" y="114.832">+削除：delete()</text><text fill="#000000" font-family="sans-serif" font-size="11" lengthAdjust="spacingAndGlyphs" textLength="87" x="227.5" y="127.7871">+コピー：copy()</text><!--class UploaderCategoriesService--><polygon fill="#FEFECE" filter="url(#frtacdn)" points="251,246.1992,251,246.7261,261,246.4744,271,246.4228,281,245.9428,291,245.6445,301,246.9059,311,245.9744,321,246.4633,331,245.7755,341,246.7546,351,245.8107,361,246.4753,371,245.634,381,245.534,391,246.3397,401,245.5655,411,246.1992,411.3496,246.1992,411.3471,256.8168,411.6413,267.4344,410.8471,278.052,411.6299,288.6695,411,299.2871,411,299.8205,401,299.4567,391,298.7939,381,299.2097,371,299.9163,361,300.0039,351,299.5303,341,299.2958,331,298.8095,321,298.9265,311,299.4118,301,298.5651,291,298.778,281,299.3777,271,299.7739,261,299.9767,251,299.2871,250.9709,299.2871,251.7322,288.6695,251.6888,278.052,251.1738,267.4344,251.694,256.8168,251,246.1992" style="stroke: #A80036; stroke-width: 1.5;"/><text fill="#000000" font-family="sans-serif" font-size="12" lengthAdjust="spacingAndGlyphs" textLength="154" x="254" y="262.8008">UploaderCategoriesService</text><path d="M252,270.332 L252,270.1689 L261.875,271.1688 L271.75,269.8721 L281.625,269.5487 L291.5,270.8923 L301.375,271.04 L311.25,271.2367 L321.125,271.0314 L331,270.2373 L340.875,270.9021 L350.75,271.0075 L360.625,270.5948 L370.5,269.8684 L380.375,269.6964 L390.25,270.3419 L400.125,270.4465 L410,270.332 " fill="#FEFECE" style="stroke: #A80036; stroke-width: 1.5;"/><text fill="#000000" font-family="sans-serif" font-size="11" lengthAdjust="spacingAndGlyphs" textLength="145" x="257" y="284.9668">+UploaderCategoriesTable</text><path d="M252,291.2871 L252,291.7643 L261.875,290.6173 L271.75,291.5514 L281.625,291.2109 L291.5,291.2177 L301.375,291.2451 L311.25,291.8484 L321.125,291.0301 L331,290.7992 L340.875,292.0421 L350.75,291.7142 L360.625,292.0566 L370.5,290.7886 L380.375,292.2188 L390.25,290.7124 L400.125,291.3786 L410,291.2871 " fill="#FEFECE" style="stroke: #A80036; stroke-width: 1.5;"/><!--class UploaderCategoriesServiceInterface--><polygon fill="#FEFECE" filter="url(#frtacdn)" points="6,194.1992,6,193.9845,16,194.8866,26,194.331,36,193.876,46,194.2221,56,193.7,66,193.4904,76,194.167,86,194.5747,96,194.0183,106,194.3614,116,193.648,126,194.3754,136,194.3115,146,193.707,156,193.5782,166,194.2465,176,194.5291,186,194.0308,196,193.5109,206,194.2808,216,194.1992,216.1577,194.1992,215.4615,203.9948,216.0795,213.7903,216.0477,223.5858,216.6131,233.3813,216.6602,243.1769,216.667,252.9724,216.7466,262.7679,216.5193,272.5635,215.6939,282.359,215.8442,292.1545,215.2752,301.9501,216.6186,311.7456,215.2645,321.5411,215.573,331.3367,215.3984,341.1322,216,350.9277,216,350.6887,206,350.1951,196,350.9607,186,350.9449,176,351.6577,166,351.3909,156,350.5866,146,351.2504,136,350.777,126,351.2945,116,351.25,106,350.5938,96,351.4749,86,350.3672,76,351.6699,66,350.8644,56,350.4699,46,351.4682,36,351.2833,26,351.2597,16,350.1819,6,350.9277,6.0326,350.9277,6.7376,341.1322,6.3266,331.3367,5.4373,321.5411,6.4659,311.7456,6.7136,301.9501,6.3923,292.1545,6.3783,282.359,5.3545,272.5635,6.0697,262.7679,6.1008,252.9724,6.3011,243.1769,6.749,233.3813,5.7288,223.5858,6.6439,213.7903,5.3746,203.9948,6,194.1992" style="stroke: #A80036; stroke-width: 1.5;"/><text fill="#000000" font-family="sans-serif" font-size="12" lengthAdjust="spacingAndGlyphs" textLength="204" x="9" y="210.8008">UploaderCategoriesServiceInterface</text><path d="M7,218.332 L7,219.0728 L16.9048,218.9017 L26.8095,217.7172 L36.7143,218.2276 L46.619,218.189 L56.5238,218.7265 L66.4286,218.798 L76.3333,217.7853 L86.2381,217.9134 L96.1429,218.0962 L106.0476,217.8509 L115.9524,217.4718 L125.8571,219.2574 L135.7619,218.2685 L145.6667,218.4572 L155.5714,218.0513 L165.4762,218.632 L175.381,219.0602 L185.2857,218.0576 L195.1905,219.0755 L205.0952,218.9378 L215,218.332 " fill="#FEFECE" style="stroke: #A80036; stroke-width: 1.5;"/><path d="M7,226.332 L7,226.5061 L16.9048,225.6542 L26.8095,225.7344 L36.7143,226.9644 L46.619,225.9578 L56.5238,226.2604 L66.4286,225.7031 L76.3333,226.3493 L86.2381,225.8064 L96.1429,226.2128 L106.0476,225.6183 L115.9524,227.1859 L125.8571,225.3998 L135.7619,227.2698 L145.6667,225.928 L155.5714,226.6503 L165.4762,226.0543 L175.381,225.6719 L185.2857,225.9031 L195.1905,225.7332 L205.0952,226.3215 L215,226.332 " fill="#FEFECE" style="stroke: #A80036; stroke-width: 1.5;"/><text fill="#000000" font-family="sans-serif" font-size="11" lengthAdjust="spacingAndGlyphs" textLength="122" x="12" y="240.9668">+単一データ取得：get()</text><text fill="#000000" font-family="sans-serif" font-size="11" lengthAdjust="spacingAndGlyphs" textLength="152" x="12" y="253.9219">+一覧データ取得：getIndex()</text><text fill="#000000" font-family="sans-serif" font-size="11" lengthAdjust="spacingAndGlyphs" textLength="119" x="12" y="266.877">+リスト取得：getList()</text><text fill="#000000" font-family="sans-serif" font-size="11" lengthAdjust="spacingAndGlyphs" textLength="144" x="12" y="279.832">+初期データ取得：getNew()</text><text fill="#000000" font-family="sans-serif" font-size="11" lengthAdjust="spacingAndGlyphs" textLength="83" x="12" y="292.7871">+作成：create()</text><text fill="#000000" font-family="sans-serif" font-size="11" lengthAdjust="spacingAndGlyphs" textLength="87" x="12" y="305.7422">+編集：update()</text><text fill="#000000" font-family="sans-serif" font-size="11" lengthAdjust="spacingAndGlyphs" textLength="82" x="12" y="318.6973">+削除：delete()</text><text fill="#000000" font-family="sans-serif" font-size="11" lengthAdjust="spacingAndGlyphs" textLength="87" x="12" y="331.6523">+コピー：copy()</text><text fill="#000000" font-family="sans-serif" font-size="11" lengthAdjust="spacingAndGlyphs" textLength="102" x="12" y="344.6074">+一括処理：batch()</text><!--class UploaderCategoriesTable--><polygon fill="#FEFECE" filter="url(#frtacdn)" points="254.5,411.1992,254.5,411.7157,264.7,410.6352,274.9,411.9384,285.1,410.8566,295.3,411.6701,305.5,411.1952,315.7,411.2764,325.9,411.3389,336.1,411.8496,346.3,411.3833,356.5,411.3711,366.7,410.8668,376.9,411.2679,387.1,411.0112,397.3,411.1615,407.5,411.1992,407.2814,411.1992,407.4324,419.2258,407.6014,427.2523,407.5563,435.2789,407.2568,443.3055,407.5,451.332,407.5,450.9065,397.3,451.6566,387.1,451.2068,376.9,451.4476,366.7,451.6473,356.5,450.7493,346.3,450.8384,336.1,451.9157,325.9,451.787,315.7,451.9161,305.5,451.4683,295.3,451.8663,285.1,451.0254,274.9,451.4162,264.7,450.6157,254.5,451.332,254.6853,451.332,254.5601,443.3055,254.3519,435.2789,254.7316,427.2523,254.6699,419.2258,254.5,411.1992" style="stroke: #A80036; stroke-width: 1.5;"/><text fill="#000000" font-family="sans-serif" font-size="12" lengthAdjust="spacingAndGlyphs" textLength="147" x="257.5" y="427.8008">UploaderCategoriesTable</text><path d="M255.5,435.332 L255.5,435.9609 L265.5667,434.434 L275.6333,435.987 L285.7,435.3307 L295.7667,434.9523 L305.8333,434.6708 L315.9,436.0557 L325.9667,435.796 L336.0333,434.6268 L346.1,434.8087 L356.1667,435.9739 L366.2333,436.0306 L376.3,435.1408 L386.3667,434.8412 L396.4333,435.1956 L406.5,435.332 " fill="#FEFECE" style="stroke: #A80036; stroke-width: 1.5;"/><path d="M255.5,443.332 L255.5,443.2839 L265.5667,442.4122 L275.6333,442.6886 L285.7,443.9647 L295.7667,444.0299 L305.8333,444.2729 L315.9,443.3694 L325.9667,444.131 L336.0333,444.2725 L346.1,442.4161 L356.1667,444.0397 L366.2333,443.1474 L376.3,442.6408 L386.3667,443.5901 L396.4333,442.8101 L406.5,443.332 " fill="#FEFECE" style="stroke: #A80036; stroke-width: 1.5;"/><!--class UploaderCategory--><polygon fill="#FEFECE" filter="url(#frtacdn)" points="273,511.1992,273,510.9874,282.6667,510.5721,292.3333,511.7363,302,511.0303,311.6667,511.8855,321.3333,511.2079,331,511.8989,340.6667,511.0541,350.3333,511.269,360,510.8502,369.6667,510.4726,379.3333,511.5216,389,511.1992,389.3189,511.1992,388.6275,521.8168,388.4288,532.4344,389.2837,543.052,389.4808,553.6695,389,564.2871,389,564.0741,379.3333,564.286,369.6667,563.8567,360,563.741,350.3333,564.2475,340.6667,563.6262,331,563.9889,321.3333,563.9958,311.6667,564.7679,302,564.6706,292.3333,564.3273,282.6667,563.9803,273,564.2871,273.5946,564.2871,273.5358,553.6695,273.4311,543.052,273.6344,532.4344,273.0743,521.8168,273,511.1992" style="stroke: #A80036; stroke-width: 1.5;"/><text fill="#000000" font-family="sans-serif" font-size="12" lengthAdjust="spacingAndGlyphs" textLength="104" x="279" y="527.8008">UploaderCategory</text><path d="M274,535.332 L274,534.7734 L284.3636,535.5159 L294.7273,536.1305 L305.0909,535.363 L315.4545,536.2288 L325.8182,535.742 L336.1818,535.8622 L346.5455,534.3347 L356.9091,534.8751 L367.2727,535.5321 L377.6364,534.9658 L388,535.332 " fill="#FEFECE" style="stroke: #A80036; stroke-width: 1.5;"/><text fill="#000000" font-family="sans-serif" font-size="11" lengthAdjust="spacingAndGlyphs" textLength="104" x="279" y="549.9668">+カテゴリ名：name</text><path d="M274,556.2871 L274,556.5406 L284.3636,555.6544 L294.7273,556.8029 L305.0909,555.36 L315.4545,555.7431 L325.8182,555.7983 L336.1818,556.0893 L346.5455,556.641 L356.9091,556.6706 L367.2727,555.6632 L377.6364,556.8399 L388,556.2871 " fill="#FEFECE" style="stroke: #A80036; stroke-width: 1.5;"/><path d="M331,134.3492 L331.0369,134.3492 L330.2387,144.041 L331.998,153.7329 L331.1802,163.4247 L331.7609,173.1165 L330.4428,182.8083 L330.6133,192.5001 L331.3194,202.1919 L330.5562,211.8838 L331.8246,221.5756 L331.8938,231.2674 L331,240.9592 " fill="none" style="stroke: #000000; stroke-width: 1.0;"/><polygon fill="#000000" points="331,246.1592,330.8968,246.1133,331.6265,244.2821,332.6516,242.5822,333.2469,240.6912,334.0417,238.8889,335,237.1592,334.8527,237.0119,334.2975,238.0567,333.5194,238.8786,332.5168,239.476,331.7101,240.2693,331,241.1592,331.0433,241.2025,330.2425,240.4017,329.2524,239.4116,328.6846,238.8438,327.6337,237.7929,327,237.1592,327.0294,237.1723,327.6602,238.8971,328.4004,240.6705,329.5863,242.642,330.2605,244.3861,331,246.1592" style="stroke: #000000; stroke-width: 1.0;"/><path d="M331,299.5392 L330.8204,299.5392 L330.6271,309.1801 L330.6132,318.821 L331.2458,328.4619 L331.5956,338.1029 L330.8242,347.7438 L331.647,357.3847 L330.6615,367.0256 L330.4905,376.6665 L331.9191,386.3074 L331.4317,395.9483 L331,405.5892 " fill="none" style="stroke: #000000; stroke-width: 1.0;"/><polygon fill="#000000" points="331,410.7492,330.9108,410.7096,331.7379,408.9216,332.6481,407.1706,333.3566,405.3299,334.1105,403.5094,335,401.7492,335.0594,401.8086,334.3094,402.6586,333.5117,403.4609,332.6106,404.1598,331.6556,404.8049,331,405.7492,331.0265,405.7757,330.1015,404.8507,329.5387,404.2879,328.7753,403.5245,327.6749,402.4241,327,401.7492,327.2087,401.842,328.0181,403.6462,328.7626,405.4215,329.5435,407.213,330.2147,408.9558,331,410.7492" style="stroke: #000000; stroke-width: 1.0;"/><path d="M236.49,272.6992 L236.49,272.3697 L239.348,272.9391 L242.206,272.9143 L245.064,272.5652 L247.922,272.9749 L250.78,272.6992 " fill="none" style="stroke: #000000; stroke-width: 1.0; stroke-dasharray: 1.0,3.0;"/><polygon fill="none" points="236.27,279.6992,236.2908,279.7587,232.3445,278.5122,228.3417,277.1041,224.3114,275.6174,220.2228,273.9643,216.27,272.6992,216.2933,272.7657,220.2813,271.3314,224.3312,270.0741,228.2756,268.5152,232.2784,267.1231,236.27,265.6992,236.2331,265.6992,236.4631,268.4992,236.0936,271.2992,236.099,274.0992,236.1973,276.8992,236.27,279.6992" style="stroke: #000000; stroke-width: 1.0;"/><path d="M331,451.3692 L330.1585,451.3692 L330.6682,462.2212 L330.9542,473.0732 L331.1657,483.9252 L331.7901,494.7772 L331,505.6292 " fill="none" style="stroke: #000000; stroke-width: 1.0;"/><polygon fill="#000000" points="331,510.9592,330.8255,510.8816,331.6316,509.0844,332.6072,507.3624,333.3106,505.5195,334.3182,503.8118,335,501.9592,335.1464,502.1056,334.1159,502.6751,333.2893,503.4485,332.7726,504.5318,331.8251,505.1844,331,505.9592,331.1728,506.132,330.1965,505.1557,329.2256,504.1848,328.7332,503.6924,327.6371,502.5963,327,501.9592,327.1009,502.004,328.0145,503.8545,328.4218,505.48,329.2063,507.2731,330.138,509.1316,331,510.9592" style="stroke: #000000; stroke-width: 1.0;"/></g></svg>