<?xml version="1.0" encoding="UTF-8" standalone="no"?><svg xmlns="http://www.w3.org/2000/svg" xmlns:xlink="http://www.w3.org/1999/xlink" contentScriptType="application/ecmascript" contentStyleType="text/css" height="608px" preserveAspectRatio="none" style="width:789px;height:608px;" version="1.1" viewBox="0 0 789 608" width="789px" zoomAndPan="magnify"><defs><filter height="300%" id="fudih2g" width="300%" x="-1" y="-1"><feGaussianBlur result="blurOut" stdDeviation="2.0"/><feColorMatrix in="blurOut" result="blurOut2" type="matrix" values="0 0 0 0 0 0 0 0 0 0 0 0 0 0 0 0 0 0 .4 0"/><feOffset dx="4.0" dy="4.0" in="blurOut2" result="blurOut3"/><feBlend in="SourceGraphic" in2="blurOut3" mode="normal"/></filter></defs><g><text fill="#000000" font-family="sans-serif" font-size="18" lengthAdjust="spacingAndGlyphs" textLength="252" x="273" y="17.4023">アップローダープラグイン設定</text><!--class Admin\BcAdminAppController--><polygon fill="#FEFECE" filter="url(#fudih2g)" points="590.5,29.1992,590.5,29.8119,600.4444,28.4925,610.3889,29.7156,620.3333,29.1943,630.2778,28.8314,640.2222,29.1758,650.1667,29.0631,660.1111,29.5729,670.0556,28.458,680,29.8467,689.9444,28.6264,699.8889,28.5341,709.8333,29.189,719.7778,28.5058,729.7222,29.1595,739.6667,29.0579,749.6111,29.628,759.5556,28.571,769.5,29.1992,769.5806,29.1992,769.7298,37.2258,769.4737,45.2523,769.3204,53.2789,769.2792,61.3055,769.5,69.332,769.5,68.9704,759.5556,69.8613,749.6111,69.2328,739.6667,69.6176,729.7222,69.9396,719.7778,69.9477,709.8333,69.1656,699.8889,69.3322,689.9444,68.9721,680,68.6281,670.0556,69.8503,660.1111,69.4701,650.1667,69.6096,640.2222,69.3877,630.2778,69.59,620.3333,69.7203,610.3889,69.1939,600.4444,69.1832,590.5,69.332,590.2972,69.332,590.5426,61.3055,590.3895,53.2789,590.3577,45.2523,590.305,37.2258,590.5,29.1992" style="stroke: #A80036; stroke-width: 1.5;"/><text fill="#000000" font-family="sans-serif" font-size="12" lengthAdjust="spacingAndGlyphs" textLength="173" x="593.5" y="45.8008">Admin\BcAdminAppController</text><path d="M591.5,53.332 L591.5,52.8377 L601.3333,53.2021 L611.1667,53.747 L621,53.4282 L630.8333,54.0296 L640.6667,52.8217 L650.5,53.9291 L660.3333,53.5563 L670.1667,53.3185 L680,54.051 L689.8333,52.9334 L699.6667,52.559 L709.5,54.2727 L719.3333,52.7943 L729.1667,53.8065 L739,52.4592 L748.8333,53.8269 L758.6667,53.5335 L768.5,53.332 " fill="#FEFECE" style="stroke: #A80036; stroke-width: 1.5;"/><path d="M591.5,61.332 L591.5,61.3958 L601.3333,62.0416 L611.1667,60.9719 L621,60.7003 L630.8333,62.1463 L640.6667,62.1495 L650.5,61.7576 L660.3333,60.5504 L670.1667,60.8787 L680,61.1661 L689.8333,61.7433 L699.6667,61.4803 L709.5,61.6789 L719.3333,61.6067 L729.1667,62.1932 L739,61.7475 L748.8333,62.2855 L758.6667,60.6153 L768.5,61.332 " fill="#FEFECE" style="stroke: #A80036; stroke-width: 1.5;"/><!--class Admin\UploaderConfigsController--><polygon fill="#FEFECE" filter="url(#fudih2g)" points="580,129.1992,580,129.0738,590,129.5221,600,129.9285,610,129.1065,620,129.0807,630,129.3426,640,129.1098,650,129.2155,660,129.2092,670,128.4531,680,128.5223,690,128.4958,700,129.6029,710,129.5189,720,128.7533,730,128.9105,740,129.8431,750,129.4119,760,129.7284,770,129.1072,780,129.1992,780.2151,129.1992,779.8745,139.8168,779.5941,150.4344,780.1914,161.052,780.5569,171.6695,780,182.2871,780,181.8283,770,182.4714,760,181.8532,750,182.2506,740,182.5295,730,182.0068,720,182.483,710,182.1358,700,181.5559,690,182.9814,680,182.0793,670,182.714,660,181.7604,650,182.0667,640,182.5376,630,181.9381,620,182.1245,610,181.9094,600,181.5849,590,182.0947,580,182.2871,580.1833,182.2871,579.899,171.6695,579.5004,161.052,579.9962,150.4344,579.2601,139.8168,580,129.1992" style="stroke: #A80036; stroke-width: 1.5;"/><text fill="#000000" font-family="sans-serif" font-size="12" lengthAdjust="spacingAndGlyphs" textLength="194" x="583" y="145.8008">Admin\UploaderConfigsController</text><path d="M581,153.332 L581,153.4436 L590.9,153.6122 L600.8,153.0755 L610.7,152.8882 L620.6,153.0581 L630.5,153.1895 L640.4,152.4964 L650.3,154.2641 L660.2,152.6839 L670.1,152.3909 L680,154.1053 L689.9,154.2919 L699.8,152.5535 L709.7,152.7176 L719.6,154.1711 L729.5,153.4307 L739.4,153.3274 L749.3,154.0869 L759.2,153.7011 L769.1,153.7881 L779,153.332 " fill="#FEFECE" style="stroke: #A80036; stroke-width: 1.5;"/><path d="M581,161.332 L581,160.8868 L590.9,161.6088 L600.8,162.0002 L610.7,161.2504 L620.6,161.9559 L630.5,161.0859 L640.4,160.7197 L650.3,161.5001 L660.2,161.4297 L670.1,160.7109 L680,160.9098 L689.9,160.6452 L699.8,160.9808 L709.7,162.2337 L719.6,161.877 L729.5,160.3321 L739.4,161.8977 L749.3,160.8649 L759.2,160.6223 L769.1,161.5469 L779,161.332 " fill="#FEFECE" style="stroke: #A80036; stroke-width: 1.5;"/><text fill="#000000" font-family="sans-serif" font-size="11" lengthAdjust="spacingAndGlyphs" textLength="80" x="586" y="175.9668">+保存：index()</text><!--class UploaderConfigsAdminService--><polygon fill="#FEFECE" filter="url(#fudih2g)" points="452,281.1992,452,281.0817,461.8889,281.2183,471.7778,281.9248,481.6667,280.8247,491.5556,280.6772,501.4444,281.7558,511.3333,281.31,521.2222,281.2179,531.1111,281.9246,541,281.2515,550.8889,280.9865,560.7778,281.0729,570.6667,281.2156,580.5556,281.4095,590.4444,281.913,600.3333,281.7178,610.2222,280.8757,620.1111,281.8512,630,281.1992,630.1865,281.1992,629.81,289.2258,630.2024,297.2523,630.1279,305.2789,630.0077,313.3055,630,321.332,630,320.9952,620.1111,321.7458,610.2222,321.3961,600.3333,320.7742,590.4444,322.0314,580.5556,321.9145,570.6667,321.8548,560.7778,321.5149,550.8889,321.7698,541,321.7763,531.1111,321.5758,521.2222,322.0085,511.3333,321.143,501.4444,320.6891,491.5556,321.7513,481.6667,321.4329,471.7778,321.5053,461.8889,322.0751,452,321.332,452.2425,321.332,452.2046,313.3055,451.8828,305.2789,451.7808,297.2523,452.22,289.2258,452,281.1992" style="stroke: #A80036; stroke-width: 1.5;"/><text fill="#000000" font-family="sans-serif" font-size="12" lengthAdjust="spacingAndGlyphs" textLength="172" x="455" y="297.8008">UploaderConfigsAdminService</text><path d="M453,305.332 L453,306.2759 L462.7778,304.755 L472.5556,304.3781 L482.3333,306.0688 L492.1111,306.2572 L501.8889,305.9346 L511.6667,305.7712 L521.4444,305.237 L531.2222,306.0263 L541,306.2962 L550.7778,305.8706 L560.5556,305.825 L570.3333,304.799 L580.1111,304.5543 L589.8889,305.1244 L599.6667,305.1583 L609.4444,305.3871 L619.2222,306.2597 L629,305.332 " fill="#FEFECE" style="stroke: #A80036; stroke-width: 1.5;"/><path d="M453,313.332 L453,312.7369 L462.7778,312.6827 L472.5556,313.5882 L482.3333,313.782 L492.1111,313.4711 L501.8889,312.4508 L511.6667,313.5323 L521.4444,313.5359 L531.2222,313.526 L541,313.8953 L550.7778,313.9069 L560.5556,312.6283 L570.3333,312.4305 L580.1111,313.3342 L589.8889,313.7021 L599.6667,313.1861 L609.4444,313.7202 L619.2222,312.5793 L629,313.332 " fill="#FEFECE" style="stroke: #A80036; stroke-width: 1.5;"/><!--class UploaderConfigsAdminServiceInterface--><polygon fill="#FEFECE" filter="url(#fudih2g)" points="259.5,129.1992,259.5,129.348,269.3276,129.6224,279.1552,129.4487,288.9828,129.0523,298.8103,129.4594,308.6379,128.7611,318.4655,128.5811,328.2931,128.7893,338.1207,128.8248,347.9483,128.6604,357.7759,128.6247,367.6034,129.5704,377.431,129.6168,387.2586,129.8065,397.0862,129.7703,406.9138,128.9068,416.7414,129.2779,426.569,128.5384,436.3966,129.0147,446.2241,129.3269,456.0517,129.2043,465.8793,129.1961,475.7069,129.0482,485.5345,129.846,495.3621,128.4759,505.1897,128.9712,515.0172,129.7339,524.8448,129.014,534.6724,129.0263,544.5,129.1992,544.5202,129.1992,544.5254,139.8168,544.7482,150.4344,545.1287,161.052,543.8775,171.6695,544.5,182.2871,544.5,181.8542,534.6724,182.0543,524.8448,181.7072,515.0172,182.7741,505.1897,182.8454,495.3621,182.8967,485.5345,182.0052,475.7069,182.2946,465.8793,182.2586,456.0517,182.9711,446.2241,182.123,436.3966,181.6099,426.569,181.5799,416.7414,182.2493,406.9138,182.664,397.0862,181.7991,387.2586,182.9891,377.431,182.168,367.6034,182.4737,357.7759,182.4602,347.9483,182.0887,338.1207,181.8254,328.2931,181.8074,318.4655,182.9028,308.6379,181.5828,298.8103,182.8155,288.9828,182.0183,279.1552,182.0368,269.3276,181.9267,259.5,182.2871,259.4486,182.2871,259.0885,171.6695,259.7016,161.052,259.8046,150.4344,259.4545,139.8168,259.5,129.1992" style="stroke: #A80036; stroke-width: 1.5;"/><text fill="#000000" font-family="sans-serif" font-size="12" lengthAdjust="spacingAndGlyphs" textLength="222" x="291" y="145.8008">UploaderConfigsAdminServiceInterface</text><path d="M260.5,153.332 L260.5,153.8851 L270.6071,152.3771 L280.7143,153.9357 L290.8214,153.6157 L300.9286,154.0871 L311.0357,152.5696 L321.1429,153.9623 L331.25,154.2908 L341.3571,153.1884 L351.4643,153.4239 L361.5714,152.6736 L371.6786,153.611 L381.7857,152.8987 L391.8929,152.9684 L402,152.3812 L412.1071,152.3819 L422.2143,154.2575 L432.3214,152.9416 L442.4286,153.0915 L452.5357,152.5818 L462.6429,152.61 L472.75,153.8085 L482.8571,154.2007 L492.9643,153.0133 L503.0714,152.4241 L513.1786,152.3917 L523.2857,154.3003 L533.3929,152.8128 L543.5,153.332 " fill="#FEFECE" style="stroke: #A80036; stroke-width: 1.5;"/><path d="M260.5,161.332 L260.5,162.1445 L270.6071,160.4138 L280.7143,160.7528 L290.8214,162.3224 L300.9286,160.8798 L311.0357,161.2083 L321.1429,160.39 L331.25,161.6272 L341.3571,162.0045 L351.4643,162.0004 L361.5714,161.0698 L371.6786,162.0578 L381.7857,161.7346 L391.8929,160.4944 L402,160.892 L412.1071,161.1279 L422.2143,161.3941 L432.3214,161.0263 L442.4286,161.6324 L452.5357,160.7496 L462.6429,160.4438 L472.75,161.2484 L482.8571,161.3971 L492.9643,162.1154 L503.0714,161.3767 L513.1786,161.2081 L523.2857,160.6283 L533.3929,160.3807 L543.5,161.332 " fill="#FEFECE" style="stroke: #A80036; stroke-width: 1.5;"/><text fill="#000000" font-family="sans-serif" font-size="11" lengthAdjust="spacingAndGlyphs" textLength="273" x="265.5" y="175.9668">+表示用のデータを取得する：getViewVarsForIndex()</text><!--class UploaderConfigsService--><polygon fill="#FEFECE" filter="url(#fudih2g)" points="275.5,274.6992,275.5,274.6843,285.5714,274.2782,295.6429,274.7606,305.7143,275.3546,315.7857,274.0976,325.8571,274.1524,335.9286,274.1176,346,274.6999,356.0714,274.6667,366.1429,273.9975,376.2143,275.2398,386.2857,274.9558,396.3571,274.4929,406.4286,274.9417,416.5,274.6992,415.8863,274.6992,416.9123,285.3168,416.0718,295.9344,416.4052,306.552,416.7192,317.1695,416.5,327.7871,416.5,328.3204,406.4286,327.401,396.3571,327.9934,386.2857,327.5377,376.2143,328.2975,366.1429,327.9595,356.0714,328.1803,346,327.3383,335.9286,328.2466,325.8571,328.4648,315.7857,328.4129,305.7143,327.9681,295.6429,327.4116,285.5714,328.2102,275.5,327.7871,276.1447,327.7871,275.9719,317.1695,276.2072,306.552,274.9148,295.9344,275.1304,285.3168,275.5,274.6992" style="stroke: #A80036; stroke-width: 1.5;"/><text fill="#000000" font-family="sans-serif" font-size="12" lengthAdjust="spacingAndGlyphs" textLength="135" x="278.5" y="291.3008">UploaderConfigsService</text><path d="M276.5,298.832 L276.5,298.704 L286.4286,297.845 L296.3571,298.9033 L306.2857,299.2676 L316.2143,298.2128 L326.1429,299.6668 L336.0714,298.8717 L346,299.3164 L355.9286,298.1425 L365.8571,299.3829 L375.7857,298.5624 L385.7143,299.4505 L395.6429,298.8264 L405.5714,298.3041 L415.5,298.832 " fill="#FEFECE" style="stroke: #A80036; stroke-width: 1.5;"/><text fill="#000000" font-family="sans-serif" font-size="11" lengthAdjust="spacingAndGlyphs" textLength="129" x="281.5" y="313.4668">+UploaderConfigsTable</text><path d="M276.5,319.7871 L276.5,319.4348 L286.4286,320.2731 L296.3571,320.1137 L306.2857,319.3888 L316.2143,320.608 L326.1429,320.1883 L336.0714,320.4751 L346,320.0551 L355.9286,318.8304 L365.8571,320.2481 L375.7857,319.9281 L385.7143,320.1272 L395.6429,320.4358 L405.5714,319.3717 L415.5,319.7871 " fill="#FEFECE" style="stroke: #A80036; stroke-width: 1.5;"/><!--class UploaderConfigsServiceInterface--><polygon fill="#FEFECE" filter="url(#fudih2g)" points="6,242.1992,6,242.5273,16.1739,241.7734,26.3478,242.3194,36.5217,241.8538,46.6957,242.8689,56.8696,242.6598,67.0435,242.3868,77.2174,242.5561,87.3913,242.474,97.5652,242.5357,107.7391,242.3729,117.913,241.552,128.087,241.8062,138.2609,241.9515,148.4348,242.7863,158.6087,242.7606,168.7826,242.0023,178.9565,241.8156,189.1304,242.0196,199.3043,242.6559,209.4783,242.6344,219.6522,242.487,229.8261,242.8113,240,242.1992,239.7116,242.1992,240.0965,252.0212,240.2118,261.8431,239.2931,271.665,239.5151,281.487,239.4562,291.3089,239.4598,301.1309,240.1732,310.9528,240.7216,320.7747,240.6619,330.5967,240.3547,340.4186,239.8539,350.2406,240,360.0625,240,359.884,229.8261,360.7896,219.6522,359.3872,209.4783,360.0176,199.3043,360.5032,189.1304,360.3712,178.9565,360.7929,168.7826,359.7719,158.6087,360.7482,148.4348,360.1273,138.2609,360.216,128.087,360.1681,117.913,360.2158,107.7391,359.6493,97.5652,359.58,87.3913,359.326,77.2174,360.376,67.0435,360.2762,56.8696,360.4977,46.6957,359.5441,36.5217,360.3193,26.3478,359.9338,16.1739,359.9055,6,360.0625,5.9274,360.0625,5.4682,350.2406,6.4264,340.4186,5.7867,330.5967,5.7353,320.7747,5.856,310.9528,5.9088,301.1309,5.6681,291.3089,5.8337,281.487,6.2125,271.665,5.3358,261.8431,5.3509,252.0212,6,242.1992" style="stroke: #A80036; stroke-width: 1.5;"/><text fill="#000000" font-family="sans-serif" font-size="12" lengthAdjust="spacingAndGlyphs" textLength="185" x="30.5" y="258.8008">UploaderConfigsServiceInterface</text><path d="M7,266.332 L7,266.5306 L17.087,267.1771 L27.1739,265.3526 L37.2609,265.9969 L47.3478,266.2318 L57.4348,265.8717 L67.5217,266.4914 L77.6087,266.1809 L87.6957,266.6657 L97.7826,266.9793 L107.8696,265.9848 L117.9565,266.9157 L128.0435,267.0136 L138.1304,267.3304 L148.2174,267.1108 L158.3043,266.8402 L168.3913,266.1571 L178.4783,265.7013 L188.5652,266.2394 L198.6522,265.9613 L208.7391,265.6921 L218.8261,266.7595 L228.913,266.2266 L239,266.332 " fill="#FEFECE" style="stroke: #A80036; stroke-width: 1.5;"/><path d="M7,274.332 L7,273.8526 L17.087,273.5506 L27.1739,274.6185 L37.2609,274.7004 L47.3478,274.3458 L57.4348,274.7069 L67.5217,273.8268 L77.6087,273.6804 L87.6957,274.248 L97.7826,274.0458 L107.8696,273.5825 L117.9565,273.6657 L128.0435,273.4222 L138.1304,274.7572 L148.2174,274.103 L158.3043,274.7062 L168.3913,273.559 L178.4783,273.5941 L188.5652,274.4215 L198.6522,275.0407 L208.7391,275.1443 L218.8261,273.9961 L228.913,274.3964 L239,274.332 " fill="#FEFECE" style="stroke: #A80036; stroke-width: 1.5;"/><text fill="#000000" font-family="sans-serif" font-size="11" lengthAdjust="spacingAndGlyphs" textLength="162" x="12" y="288.9668">+設定値を取得する：getValue()</text><text fill="#000000" font-family="sans-serif" font-size="11" lengthAdjust="spacingAndGlyphs" textLength="144" x="12" y="301.9219">+全設定値を取得する：get()</text><text fill="#000000" font-family="sans-serif" font-size="11" lengthAdjust="spacingAndGlyphs" textLength="164" x="12" y="314.877">+全設定値を更新する：update()</text><text fill="#000000" font-family="sans-serif" font-size="11" lengthAdjust="spacingAndGlyphs" textLength="161" x="12" y="327.832">+設定値を更新する：setValue()</text><text fill="#000000" font-family="sans-serif" font-size="11" lengthAdjust="spacingAndGlyphs" textLength="194" x="12" y="340.7871">+設定値をリセットする：resetValue()</text><text fill="#000000" font-family="sans-serif" font-size="11" lengthAdjust="spacingAndGlyphs" textLength="222" x="12" y="353.7422">+キャッシュ用 Entity を削除：clearCache()</text><!--class UploaderConfigsTable--><polygon fill="#FEFECE" filter="url(#fudih2g)" points="381,420.1992,381,420.4313,391,420.3194,401,419.5213,411,420.2756,421,420.2869,431,420.9011,441,420.1915,451,420.1881,461,420.1071,471,419.6973,481,420.4986,491,419.6672,501,420.435,511,420.9349,521,420.8713,531,420.303,541,420.8576,551,420.8254,561,420.4447,571,420.5663,581,420.5682,591,420.5604,601,420.8326,611,420.8316,621,419.918,631,420.899,641,420.2699,651,419.4683,661,419.8643,671,420.6087,681,419.9094,691,420.7826,701,420.1992,701.7213,420.1992,700.7123,430.8168,700.4969,441.4344,701.0524,452.052,701.7159,462.6695,701,473.2871,701,472.7239,691,473.7326,681,473.6229,671,472.6822,661,473.5362,651,473.6026,641,472.7799,631,473.4281,621,473.9489,611,472.8995,601,473.9437,591,473.1167,581,473.7662,571,473.3285,561,473.4276,551,472.9143,541,473.7252,531,472.7965,521,472.8462,511,472.5919,501,473.3373,491,473.784,481,473.3338,471,473.2428,461,472.8166,451,472.9102,441,473.3372,431,472.6012,421,474.0047,411,473.2717,401,473.237,391,473.4961,381,473.2871,381.0809,473.2871,380.381,462.6695,380.4403,452.052,380.5329,441.4344,380.6608,430.8168,381,420.1992" style="stroke: #A80036; stroke-width: 1.5;"/><text fill="#000000" font-family="sans-serif" font-size="12" lengthAdjust="spacingAndGlyphs" textLength="128" x="477" y="436.8008">UploaderConfigsTable</text><path d="M382,444.332 L382,444.7724 L391.9375,445.2116 L401.875,444.2921 L411.8125,444.7341 L421.75,444.7826 L431.6875,443.6869 L441.625,444.4768 L451.5625,444.4251 L461.5,443.9413 L471.4375,444.9969 L481.375,444.9373 L491.3125,444.3378 L501.25,444.691 L511.1875,444.3295 L521.125,444.0319 L531.0625,444.6038 L541,444.6923 L550.9375,443.3829 L560.875,444.5138 L570.8125,444.0222 L580.75,444.0182 L590.6875,444.7754 L600.625,443.5549 L610.5625,444.005 L620.5,443.353 L630.4375,444.3194 L640.375,443.7569 L650.3125,444.4834 L660.25,443.7239 L670.1875,444.3222 L680.125,443.4528 L690.0625,444.9571 L700,444.332 " fill="#FEFECE" style="stroke: #A80036; stroke-width: 1.5;"/><path d="M382,452.332 L382,451.5186 L391.9375,452.6561 L401.875,451.9235 L411.8125,453.2899 L421.75,451.4526 L431.6875,453.1139 L441.625,453.1559 L451.5625,452.4757 L461.5,452.7509 L471.4375,452.5261 L481.375,452.4666 L491.3125,451.3987 L501.25,452.0965 L511.1875,453.2587 L521.125,451.6917 L531.0625,451.6028 L541,452.8698 L550.9375,452.0489 L560.875,452.7162 L570.8125,452.2623 L580.75,451.8695 L590.6875,451.6543 L600.625,451.8689 L610.5625,451.9126 L620.5,452.0506 L630.4375,452.5017 L640.375,453.1521 L650.3125,452.0502 L660.25,452.8555 L670.1875,451.4177 L680.125,452.4105 L690.0625,452.4547 L700,452.332 " fill="#FEFECE" style="stroke: #A80036; stroke-width: 1.5;"/><text fill="#000000" font-family="sans-serif" font-size="11" lengthAdjust="spacingAndGlyphs" textLength="308" x="387" y="466.9668">+KeyValue用のバリデーションを行う：validationKeyValue()</text><!--class BcKeyValue--><polygon fill="#FEFECE" filter="url(#fudih2g)" points="274,426.6992,274,426.7785,284.2857,426.1555,294.5714,425.9663,304.8571,427.2066,315.1429,426.8173,325.4286,426.6884,335.7143,426.3523,346,426.6992,345.8947,426.6992,346.0381,434.7258,345.9385,442.7523,346.2221,450.7789,345.7872,458.8055,346,466.832,346,466.5336,335.7143,466.6654,325.4286,466.3312,315.1429,466.7607,304.8571,467.1312,294.5714,466.6754,284.2857,466.2276,274,466.832,273.8209,466.832,274.1201,458.8055,273.9599,450.7789,274.1845,442.7523,273.8078,434.7258,274,426.6992" style="stroke: #A80036; stroke-width: 1.5;"/><text fill="#000000" font-family="sans-serif" font-size="12" lengthAdjust="spacingAndGlyphs" textLength="66" x="277" y="443.3008">BcKeyValue</text><path d="M275,450.832 L275,451.7314 L285,450.3971 L295,449.9306 L305,451.7785 L315,451.7559 L325,450.8357 L335,451.0009 L345,450.832 " fill="#FEFECE" style="stroke: #A80036; stroke-width: 1.5;"/><path d="M275,458.832 L275,458.1297 L285,458.8405 L295,458.3164 L305,458.497 L315,458.7004 L325,458.2329 L335,459.8202 L345,458.832 " fill="#FEFECE" style="stroke: #A80036; stroke-width: 1.5;"/><!--class UploaderConfig--><polygon fill="#FEFECE" filter="url(#fudih2g)" points="493.5,533.1992,493.5,533.6393,503,533.3431,512.5,533.003,522,532.664,531.5,533.1928,541,532.859,550.5,533.4096,560,533.4416,569.5,533.4812,579,533.7011,588.5,533.1992,588.7985,533.1992,588.9809,542.6339,588.5264,552.0686,588.4429,561.5033,588.949,570.9381,587.8779,580.3728,588.8852,589.8075,588.5,599.2422,588.5,599.111,579,599.7853,569.5,598.8009,560,599.0298,550.5,598.7719,541,599.9794,531.5,599.9442,522,599.5256,512.5,598.7868,503,598.6546,493.5,599.2422,492.9131,599.2422,493.0422,589.8075,493.5017,580.3728,492.9002,570.9381,493.5545,561.5033,493.5195,552.0686,493.0817,542.6339,493.5,533.1992" style="stroke: #A80036; stroke-width: 1.5;"/><text fill="#000000" font-family="sans-serif" font-size="12" lengthAdjust="spacingAndGlyphs" textLength="89" x="496.5" y="549.8008">UploaderConfig</text><path d="M494.5,557.332 L494.5,557.2194 L504.8333,556.7845 L515.1667,557.5927 L525.5,557.146 L535.8333,557.6178 L546.1667,558.3047 L556.5,557.6118 L566.8333,557.0828 L577.1667,556.4677 L587.5,557.332 " fill="#FEFECE" style="stroke: #A80036; stroke-width: 1.5;"/><text fill="#000000" font-family="sans-serif" font-size="11" lengthAdjust="spacingAndGlyphs" textLength="82" x="499.5" y="571.9668">+設定名：name</text><text fill="#000000" font-family="sans-serif" font-size="11" lengthAdjust="spacingAndGlyphs" textLength="81" x="499.5" y="584.9219">+設定値：value</text><path d="M494.5,591.2422 L494.5,591.6434 L504.8333,592.0913 L515.1667,591.9755 L525.5,591.9581 L535.8333,591.5903 L546.1667,590.6956 L556.5,591.8642 L566.8333,591.2006 L577.1667,590.8491 L587.5,591.2422 " fill="#FEFECE" style="stroke: #A80036; stroke-width: 1.5;"/><path d="M680,89.7492 L679.6896,89.7492 L679.6777,97.5912 L679.8617,105.4332 L679.9988,113.2752 L679.687,121.1172 L680,128.9592 " fill="none" style="stroke: #000000; stroke-width: 1.0;"/><polygon fill="none" points="673,89.3692,673.0999,89.4042,674.2133,85.3039,675.596,81.2978,676.9685,77.2882,678.6423,73.384,680,69.3692,679.8227,69.3072,681.483,73.3983,682.8799,77.3972,684.346,81.4203,685.3908,85.296,687,89.3692,687,89.5912,684.2,89.1369,681.4,89.2736,678.6,89.2168,675.8,89.5485,673,89.3692" style="stroke: #000000; stroke-width: 1.0;"/><path d="M655.15,182.3492 L655.8084,182.987 L648.4675,190.0601 L640.7977,196.8148 L634.3184,204.7225 L626.3193,211.158 L620.0856,219.3037 L612.6037,226.2403 L605.2302,233.2819 L598.7866,241.2242 L591.2494,248.1073 L584.8003,256.0443 L577.6894,263.3402 L570.1611,270.2319 L563,277.4792 " fill="none" style="stroke: #000000; stroke-width: 1.0;"/><polygon fill="#000000" points="559.42,281.1792,559.3322,280.9614,561.2532,280.4584,563.0656,279.6859,564.8768,278.9105,566.6773,278.1085,568.5542,277.4959,568.5532,277.438,567.4216,277.433,566.293,277.6113,565.1569,277.3278,564.033,277.7981,562.8981,277.5871,562.8569,277.5865,563.0339,276.4584,562.9867,275.3267,562.6571,274.1905,563.0646,273.0661,562.8068,271.931,562.9757,271.9929,562.1489,273.7878,561.3025,275.5755,560.9088,277.529,560.2842,279.398,559.42,281.1792" style="stroke: #000000; stroke-width: 1.0;"/><path d="M440.78,196.7392 L441.3501,197.2915 L447.4833,203.666 L454.6365,211.0287 L461.0107,217.6368 L468.6026,225.4245 L475.5382,232.5763 L481.0151,238.3151 L488.3329,245.8372 L494.6954,252.4339 L502.7575,260.6771 L508.5624,266.7337 L515.353,273.7451 L522.58,281.1792 " fill="none" style="stroke: #000000; stroke-width: 1.0; stroke-dasharray: 1.0,3.0;"/><polygon fill="none" points="435.74,201.5892,435.6915,201.5668,433.8901,197.708,432.235,193.9168,430.5056,190.0913,428.7276,186.2432,426.85,182.3492,426.8084,182.2662,430.6302,184.2337,434.3671,186.0318,438.2791,188.1789,441.8997,189.7453,445.79,191.8492,445.6161,191.6698,443.821,193.8395,441.8605,195.8386,439.8466,197.7825,437.7529,199.6442,435.74,201.5892" style="stroke: #000000; stroke-width: 1.0;"/><path d="M437.03,301.1992 L437.03,301.2967 L439.976,301.4147 L442.922,301.2575 L445.868,301.3718 L448.814,300.9048 L451.76,301.1992 " fill="none" style="stroke: #000000; stroke-width: 1.0;"/><polygon fill="none" points="436.84,308.1992,436.9161,308.4165,432.9072,306.9913,428.8187,305.3385,424.9112,304.2027,420.826,302.5592,416.84,301.1992,416.8519,301.2333,420.7857,299.6442,424.7738,298.2102,428.7897,296.8555,432.8033,295.4942,436.84,294.1992,436.783,294.1992,436.8274,296.9992,436.9248,299.7992,436.9779,302.5992,437.0822,305.3992,436.84,308.1992" style="stroke: #000000; stroke-width: 1.0;"/><path d="M541,321.2592 L541.4192,321.2592 L540.4012,331.6592 L541.6191,342.0592 L541.0322,352.4592 L541.1108,362.8592 L541.4425,373.2592 L540.4877,383.6592 L540.8576,394.0592 L541.037,404.4592 L541,414.8592 " fill="none" style="stroke: #000000; stroke-width: 1.0;"/><polygon fill="#000000" points="541,420.0092,540.8687,419.9509,541.7757,418.1984,542.4076,416.3237,543.1781,414.5106,544.0639,412.7487,545,411.0092,544.9493,410.9585,544.1912,411.8004,543.2796,412.4888,542.6479,413.4571,541.9456,414.3548,541,415.0092,540.896,414.9052,540.2452,414.2544,539.5159,413.5251,538.6375,412.6467,537.6294,411.6386,537,411.0092,537.0553,411.0338,537.8527,412.8326,538.7577,414.6793,539.2235,416.3308,540.4193,418.3067,541,420.0092" style="stroke: #000000; stroke-width: 1.0;"/><path d="M366.12,446.6992 L366.12,446.614 L369.044,446.7412 L371.968,446.659 L374.892,446.8826 L377.816,446.4757 L380.74,446.6992 " fill="none" style="stroke: #000000; stroke-width: 1.0;"/><polygon fill="none" points="366.09,453.6992,366.0333,453.5372,362.0099,452.0705,358.0695,450.8407,354.0135,449.2805,350.0508,447.9873,346.09,446.6992,346.133,446.8222,350.0075,445.0635,354.0439,443.7674,358.0393,442.3543,362.0466,440.9753,366.09,439.6992,365.8864,439.6992,366.3302,442.4992,366.3365,445.2992,365.9942,448.0992,366.1246,450.8992,366.09,453.6992" style="stroke: #000000; stroke-width: 1.0;"/><path d="M260.2,301.1992 L260.2,301.3812 L263.22,300.9166 L266.24,301.4494 L269.26,300.8693 L272.28,301.2125 L275.3,301.1992 " fill="none" style="stroke: #000000; stroke-width: 1.0; stroke-dasharray: 1.0,3.0;"/><polygon fill="none" points="260.16,308.1992,260.1122,308.0628,256.1805,306.8577,252.1126,305.2637,248.2345,304.212,244.1305,302.515,240.16,301.1992,240.0868,300.99,244.141,299.7449,248.1207,298.2868,252.0896,296.7982,256.084,295.382,260.16,294.1992,259.9295,294.1992,260.2622,296.9992,260.2037,299.7992,260.2287,302.5992,260.1169,305.3992,260.16,308.1992" style="stroke: #000000; stroke-width: 1.0;"/><path d="M541,473.4892 L540.3568,473.4892 L541.6223,484.3492 L540.2756,495.2092 L541.4276,506.0692 L540.9319,516.9292 L541,527.7892 " fill="none" style="stroke: #000000; stroke-width: 1.0;"/><polygon fill="#000000" points="541,533.1792,540.8462,533.1109,541.9859,531.4619,542.6925,529.6203,543.3498,527.7569,544.3904,526.0638,545,524.1792,544.8343,524.0135,544.2279,525.0071,543.5522,525.9314,542.6188,526.598,541.8434,527.4226,541,528.1792,541.1275,528.3067,540.0816,527.2608,539.5406,526.7198,538.4844,525.6636,537.6664,524.8456,537,524.1792,537.1554,524.2483,537.6882,525.9295,538.5783,527.7696,539.587,529.6623,540.1534,531.3585,541,533.1792" style="stroke: #000000; stroke-width: 1.0;"/></g></svg>