<?xml version="1.0" encoding="UTF-8" standalone="no"?><svg xmlns="http://www.w3.org/2000/svg" xmlns:xlink="http://www.w3.org/1999/xlink" contentScriptType="application/ecmascript" contentStyleType="text/css" height="654px" preserveAspectRatio="none" style="width:701px;height:654px;" version="1.1" viewBox="0 0 701 654" width="701px" zoomAndPan="magnify"><defs><filter height="300%" id="fnbrof4" width="300%" x="-1" y="-1"><feGaussianBlur result="blurOut" stdDeviation="2.0"/><feColorMatrix in="blurOut" result="blurOut2" type="matrix" values="0 0 0 0 0 0 0 0 0 0 0 0 0 0 0 0 0 0 .4 0"/><feOffset dx="4.0" dy="4.0" in="blurOut2" result="blurOut3"/><feBlend in="SourceGraphic" in2="blurOut3" mode="normal"/></filter></defs><g><text fill="#000000" font-family="sans-serif" font-size="18" lengthAdjust="spacingAndGlyphs" textLength="252" x="242" y="17.4023">ユースケース：コンテンツ管理</text><!--cluster コンテンツ管理--><polygon fill="#FFFFFF" filter="url(#fnbrof4)" points="453,53.1992,453,53.4825,463.4,52.9508,473.8,53.1696,484.2,52.6463,494.6,52.4932,505,52.8961,515.4,53.9075,525.8,52.9028,536.2,53.8616,546.6,52.9974,557,53.1992,557.2175,53.2669,558.6058,57.7609,559.6264,62.1405,561.2224,66.6992,562.5786,71.1832,564,75.6875,564,75.7276,574,75.4321,584,75.0876,594,75.333,604,75.3757,614,75.7577,624,75.6987,634,75.2435,644,75.2113,654,75.2313,664,76.069,674,76.1749,684,75.5237,694,75.6875,694.4173,75.6875,693.3979,85.6786,693.7324,95.6697,693.4779,105.6609,693.7629,115.652,694.3894,125.6431,694.5752,135.6342,693.3087,145.6254,693.4411,155.6165,693.3003,165.6076,694.2762,175.5987,694.0843,185.5898,693.6778,195.581,693.6535,205.5721,693.7509,215.5632,694.4482,225.5543,693.3604,235.5455,694.6053,245.5366,694.4673,255.5277,693.6635,265.5188,694.0923,275.5099,693.8135,285.5011,694.2776,295.4922,694.2062,305.4833,694.1185,315.4744,693.5224,325.4656,694.4767,335.4567,693.3486,345.4478,693.9442,355.4389,694.2206,365.43,694.3505,375.4212,693.8807,385.4123,693.3209,395.4034,693.44,405.3945,693.8349,415.3857,694.6523,425.3768,693.7682,435.3679,693.7479,445.359,693.6603,455.3501,693.6707,465.3413,693.9305,475.3324,693.7289,485.3235,693.993,495.3146,693.556,505.3058,693.8453,515.2969,693.7664,525.288,694.6207,535.2791,694.2371,545.2702,694.61,555.2614,693.7119,565.2525,693.6499,575.2436,693.8717,585.2347,693.9936,595.2259,694.5708,605.217,694.4948,615.2081,694,625.1992,694,625.2843,683.9583,625.4306,673.9167,625.3469,663.875,624.8436,653.8333,624.4535,643.7917,625.2805,633.75,624.8622,623.7083,624.4829,613.6667,624.9059,603.625,624.8924,593.5833,625.8968,583.5417,624.5351,573.5,625.0649,563.4583,625.1647,553.4167,625.1254,543.375,625.0611,533.3333,625.7478,523.2917,625.5138,513.25,625.6706,503.2083,625.7227,493.1667,624.5176,483.125,625.3886,473.0833,624.548,463.0417,625.672,453,625.1992,452.994,625.1992,453.6975,615.1641,452.3747,605.129,453.0755,595.094,452.6501,585.0589,452.89,575.0238,452.5797,564.9887,453.3178,554.9536,452.6742,544.9185,452.5765,534.8834,453.6002,524.8483,453.0699,514.8133,452.7057,504.7782,452.9985,494.7431,452.7251,484.708,452.6036,474.6729,453.5474,464.6378,452.7956,454.6027,453.7368,444.5676,452.3686,434.5326,453.4302,424.4975,452.9378,414.4624,452.9177,404.4273,453.5313,394.3922,452.8108,384.3571,453.6836,374.322,453.0903,364.2869,453.6752,354.2519,452.6975,344.2168,452.6468,334.1817,452.8195,324.1466,453.3399,314.1115,452.8356,304.0764,453.217,294.0413,452.4372,284.0062,453.7487,273.9711,452.4288,263.9361,453.3879,253.901,452.338,243.8659,453.1409,233.8308,452.9376,223.7957,452.4905,213.7606,453.0572,203.7255,453.0734,193.6904,452.3766,183.6554,453.4154,173.6203,452.467,163.5852,453.4046,153.5501,452.9246,143.515,453.1362,133.4799,452.5143,123.4448,453.4077,113.4097,452.576,103.3747,453.7124,93.3396,452.2833,83.3045,453.0837,73.2694,453.484,63.2343,453,53.1992" style="stroke: #000000; stroke-width: 2.0;"/><path d="M453,75.6875 L453,75.6342 L463.0909,74.733 L473.1818,76.0373 L483.2727,75.8096 L493.3636,75.1876 L503.4545,75.3656 L513.5455,75.0046 L523.6364,75.8226 L533.7273,76.604 L543.8182,74.9485 L553.9091,74.9925 L564,75.6875 " fill="#FFFFFF" style="stroke: #000000; stroke-width: 2.0;"/><text fill="#000000" font-family="sans-serif" font-size="14" font-weight="bold" lengthAdjust="spacingAndGlyphs" textLength="98" x="457" y="68.7344">コンテンツ管理</text><polygon fill="#FEFECE" filter="url(#fnbrof4)" points="657.3597,493.5546,654.1866,496.4714,647.2878,498.8412,640.4376,501.4291,633.6983,504.1473,624.7394,506.3583,611.3354,507.4488,600.4161,508.9,586.5589,509.3755,574.0751,509.7709,559.4166,509.1955,547.7053,508.7513,535.9468,507.6991,523.4213,505.8342,513.5349,503.9104,503.9545,501.3863,499.2644,499.3175,493.8153,496.4379,490.654,493.4839,490.6884,490.7178,491.249,487.598,494.0357,484.5929,497.387,481.4126,506.4988,479.3414,514.0778,476.815,523.8033,474.7792,535.5259,473.3045,547.8857,472.1825,561.536,471.6597,572.6081,470.9417,586.6454,471.3752,601.1147,472.4496,612.1564,473.338,621.8869,474.5642,631.9984,476.5395,643.4003,479.4799,647.1066,481.3238,655.0138,484.7651,657.1734,487.4902,659.4919,490.7939" style="stroke: #A80036; stroke-width: 1.5;"/><text fill="#000000" font-family="sans-serif" font-size="14" lengthAdjust="spacingAndGlyphs" textLength="140" x="503.7351" y="495.1904">コンテンツを検索する</text><polygon fill="#FEFECE" filter="url(#fnbrof4)" points="657.407,118.5654,653.041,121.2096,647.2872,123.841,643.0303,127.0216,634.7827,129.3951,622.6952,130.8913,612.8156,132.7871,598.684,133.5042,586.9517,134.4653,573.6381,134.6711,560.2809,134.393,549.3221,134.1207,536.2428,132.7668,522.6096,130.6488,513.8876,128.991,505.3857,126.7133,498.8416,124.2209,492.8169,121.2098,492.1936,118.8356,489.4902,115.444,492.1784,112.8104,494.7406,109.754,498.8127,106.7384,505.3322,104.0748,514.4276,101.895,524.6701,99.9772,534.9393,98.1705,547.3359,97.0569,560.0327,96.3162,575.0685,96.5039,586.4577,96.3323,598.1583,96.7741,610.5817,97.9782,624.5436,100.1713,631.6459,101.459,641.9948,104.1587,650.2942,107.0522,653.0069,109.3065,657.8064,112.6349,659.2842,115.7465" style="stroke: #A80036; stroke-width: 1.5;"/><text fill="#000000" font-family="sans-serif" font-size="14" lengthAdjust="spacingAndGlyphs" textLength="140" x="503.7351" y="120.1904">コンテンツを作成する</text><polygon fill="#FEFECE" filter="url(#fnbrof4)" points="655.7578,191.1886,654.1234,194.4569,649.1144,197.2585,643.1046,200.0385,632.1402,201.7913,621.912,203.7123,611.5921,205.5075,599.7306,206.7433,587.3812,207.5634,574.7101,207.916,560.279,207.3926,548.3059,206.8885,535.5119,205.5997,523.8181,203.9249,513.3094,201.8589,504.5431,199.5207,498.8192,197.2158,495.0726,194.7252,489.1239,191.1342,488.5793,188.2359,490.253,185.3704,493.7649,182.5311,498.1127,179.5784,504.5595,176.8982,514.183,174.8391,525.5065,173.1683,534.6982,171.1154,549.3773,170.5233,560.1379,169.3402,575.1749,169.5282,586.7511,169.3993,599.3302,170.0418,613.3038,171.6002,622.1245,172.6185,632.8581,174.7359,641.5457,177.0561,648.92,179.7382,652.4353,182.1759,656.7427,185.3918,657.1855,188.2669" style="stroke: #A80036; stroke-width: 1.5;"/><text fill="#000000" font-family="sans-serif" font-size="14" lengthAdjust="spacingAndGlyphs" textLength="140" x="503.7351" y="193.1904">コンテンツを編集する</text><polygon fill="#FEFECE" filter="url(#fnbrof4)" points="658.5611,566.8291,653.4192,569.296,650.2948,572.5282,642.7934,574.9674,634.8126,577.4019,624.3708,579.2741,611.4222,580.4687,601.0439,582.0434,585.48,582.129,572.4939,582.4097,558.9897,582.098,548.8617,582.0155,536.6594,580.8619,522.8867,578.7121,513.215,576.8373,507.1397,575.114,499.2373,572.3113,492.9525,569.2407,491.5651,566.692,488.3433,563.182,491.4128,560.6355,494.1847,557.627,499.7661,554.9562,507.021,552.4607,515.7376,550.1943,523.204,547.6423,534.366,546.0395,546.1489,544.7857,560.076,544.3261,573.3336,544.1075,585.6383,544.145,600.2812,545.2591,611.5236,546.1934,624.9172,548.2566,632.3036,549.6093,640.5665,551.8324,647.8994,554.505,654.1869,557.5761,656.641,560.3686,658.7714,563.6293" style="stroke: #A80036; stroke-width: 1.5;"/><text fill="#000000" font-family="sans-serif" font-size="14" lengthAdjust="spacingAndGlyphs" textLength="140" x="503.7351" y="568.1904">コンテンツを削除する</text><polygon fill="#FEFECE" filter="url(#fnbrof4)" points="663.2253,266.5183,659.8279,269.6213,654.3149,272.5687,646.361,275.1832,635.9025,277.3418,627.4406,279.9528,615.0884,281.5708,603.0129,283.0313,586.5845,283.182,571.5693,283.2339,559.6047,283.473,543.8771,282.2829,531.4664,281.2093,520.1402,279.7035,509.0722,277.5522,499.2275,274.9654,491.8909,272.2428,488.5842,269.7554,484.4619,266.4482,483.7412,263.335,484.7923,260.1193,486.6502,256.6674,492.9462,253.8975,500.8047,251.2613,510.0271,248.8226,518.4615,246.2055,531.0385,244.6383,547.0226,244.0634,557.5382,242.5731,573.0671,242.6376,586.2041,242.6641,601.1719,243.682,612.8909,244.599,625.7736,246.4574,638.0886,248.8912,647.5215,251.3847,655.3104,254.2098,660.7153,257.1726,662.5675,259.9655,663.0481,263.0242" style="stroke: #A80036; stroke-width: 1.5;"/><text fill="#000000" font-family="sans-serif" font-size="14" lengthAdjust="spacingAndGlyphs" textLength="154" x="496.3393" y="267.9112">コンテンツをコピーする</text><polygon fill="#FEFECE" filter="url(#fnbrof4)" points="655.3397,341.093,652.5178,344.0901,647.5606,346.9035,642.9055,349.993,634.105,352.2402,623.6756,354.1153,610.6742,355.2978,600.7519,356.9767,585.8964,357.2242,572.3666,357.3806,561.4316,357.6559,549.3729,357.1324,534.079,355.2723,525.3142,354.2668,512.6534,351.709,504.6942,349.5553,499.0194,347.2615,492.5146,344.1407,489.3871,341.1944,490.932,338.7734,490.4612,335.418,493.903,332.5626,499.7131,329.9441,505.3479,327.0784,515.426,325.1231,524.7386,322.9929,535.739,321.3532,548.358,320.2904,560.2877,319.3744,573.6625,319.1826,587.4737,319.5644,601.0664,320.4386,611.038,321.0825,623.5326,322.9403,631.8025,324.4947,642.0047,327.161,647.3152,329.3715,653.9023,332.5111,656.9445,335.4379,659.22,338.7318" style="stroke: #A80036; stroke-width: 1.5;"/><text fill="#000000" font-family="sans-serif" font-size="14" lengthAdjust="spacingAndGlyphs" textLength="140" x="503.7351" y="343.1904">コンテンツを公開する</text><polygon fill="#FEFECE" filter="url(#fnbrof4)" points="667.7482,417.5398,667.1765,421.5198,660.7145,424.5186,652.0916,427.2653,642.5545,429.9246,631.8717,432.3263,616.6971,433.5998,603.1206,434.9989,590.0112,436.1598,575.3066,436.5175,558.2765,435.8177,545.1405,435.3818,528.0502,433.383,516.1859,431.8402,503.3894,429.3409,497.1803,427.5667,486.5388,424.049,481.9808,421.1801,479.6494,418.1382,476.3331,414.263,477.438,410.8474,483.3309,408.0639,486.3685,404.295,494.0739,401.3421,504.204,398.8161,515.9042,396.6432,528.7799,394.8528,545.4767,394.1553,559.1683,393.1253,574.3613,392.8774,586.9318,392.5744,602.8687,393.6402,618.8046,395.3794,630.2311,396.8238,642.4123,399.1847,649.7962,401.223,660.0767,404.6595,666.1298,407.8646,668.5698,410.931,670.6945,414.5382" style="stroke: #A80036; stroke-width: 1.5;"/><text fill="#000000" font-family="sans-serif" font-size="14" lengthAdjust="spacingAndGlyphs" textLength="168" x="489.5689" y="419.1571">コンテンツを非公開にする</text><!--entity 作成者--><polygon fill="#FEFECE" filter="url(#fnbrof4)" points="218.8822,308.318,218.7067,310.6663,216.9673,312.7312,214.643,313.588,213.1366,314.177,211.3236,314.6716,209.2651,313.9199,207.0332,312.8684,204.9712,312.0747,204.1823,310.7318,203.9798,308.6251,203.8785,306.1532,204.3203,303.6248,205.0304,302.1437,206.6662,300.6223,208.1304,299.664,209.8728,299.1223,212.1396,298.3567,213.5018,299.3959,215.7732,300.0451,218.0564,301.5587,218.3814,303.5662,219.4162,306.0131,219.4838,307.8276" style="stroke: #A80036; stroke-width: 2.0;"/><path d="M211.5,314.6992 L211.3618,314.6992 L211.0041,320.0992 L211.1795,325.4992 L212.1182,330.8992 L211.2645,336.2992 L211.5,341.6992 M198.5,322.6992 L198.5,322.9152 L203.7,322.698 L208.9,322.5702 L214.1,323.3119 L219.3,322.7492 L224.5,322.6992 M211.5,341.6992 L211.5068,341.7051 L208.4773,344.3329 L205.8425,347.3027 L203.6904,350.6909 L201.0216,353.6312 L198.5,356.6992 M211.5,341.6992 L211.3681,341.5849 L214.3351,344.9029 L216.8333,347.8147 L219.0258,350.4616 L221.856,353.6611 L224.5,356.6992 " fill="#FEFECE" style="stroke: #A80036; stroke-width: 2.0;"/><text fill="#000000" font-family="sans-serif" font-size="14" lengthAdjust="spacingAndGlyphs" textLength="42" x="190.5" y="377.2344">作成者</text><polygon fill="#FBFB77" filter="url(#fnbrof4)" points="6,603.6992,6.0035,603.6992,6.2232,611.8234,5.8706,619.9477,6.0978,628.0719,6.1519,636.1961,6,644.3203,6,644.0589,16.0244,643.8999,26.0488,643.6014,36.0732,644.7655,46.0976,643.8389,56.122,644.626,66.1463,644.3702,76.1707,643.6808,86.1951,644.6166,96.2195,644.7186,106.2439,644.467,116.2683,644.3773,126.2927,643.5947,136.3171,644.6658,146.3415,644.4881,156.3659,644.7628,166.3902,644.706,176.4146,644.5794,186.439,643.6104,196.4634,644.4312,206.4878,644.734,216.5122,644.4241,226.5366,643.8852,236.561,644.1149,246.5854,644.1206,256.6098,644.9454,266.6341,644.0869,276.6585,644.1819,286.6829,644.6367,296.7073,644.1592,306.7317,644.7041,316.7561,644.3736,326.7805,645.0156,336.8049,644.6885,346.8293,644.8516,356.8537,644.969,366.878,643.7259,376.9024,644.4126,386.9268,643.958,396.9512,645.0664,406.9756,644.2662,417,644.3203,417.1754,644.3203,417.0778,638.1961,417.1236,632.0719,417.1336,625.9477,417.0211,619.8234,417,613.6992,417.0059,613.7051,415.155,611.8543,412.9968,609.696,411.1633,607.8625,409.1622,605.8615,407,603.6992,407,603.1008,396.975,603.6502,386.95,603.2537,376.925,604.16,366.9,603.0423,356.875,604.162,346.85,604.3985,336.825,603.3361,326.8,603.3351,316.775,603.7428,306.75,604.4087,296.725,603.699,286.7,603.2367,276.675,603.8482,266.65,603.5684,256.625,603.2308,246.6,604.1843,236.575,603.9005,226.55,603.0878,216.525,604.1485,206.5,603.5423,196.475,604.4119,186.45,602.9577,176.425,603.9069,166.4,603.454,156.375,603.8144,146.35,604.353,136.325,603.7948,126.3,603.3914,116.275,604.2306,106.25,603.6078,96.225,603.6261,86.2,603.1734,76.175,603.6769,66.15,603.1566,56.125,604.2926,46.1,604.4132,36.075,603.0901,26.05,603.9751,16.025,604.1049,6,603.6992" style="stroke: #A80036; stroke-width: 1.0;"/><path d="M407,603.6992 L406.94,603.6992 L407.182,605.6992 L406.6693,607.6992 L407.3073,609.6992 L407.1148,611.6992 L407,613.6992 " fill="#FBFB77" style="stroke: #A80036; stroke-width: 1.0;"/><path d="M417,613.6992 L417,613.7081 L415,613.7512 L413,613.9496 L411,613.816 L409,613.9207 L407,613.6992 " fill="#FBFB77" style="stroke: #A80036; stroke-width: 1.0;"/><text fill="#000000" font-family="sans-serif" font-size="13" lengthAdjust="spacingAndGlyphs" textLength="390" x="12" y="621.2676">「コンテンツ」はフォルダ、固定ページ、リンク、エイリアスなど</text><text fill="#000000" font-family="sans-serif" font-size="13" lengthAdjust="spacingAndGlyphs" textLength="234" x="12" y="636.5781">複数の種類のコンテンツを対象とする。</text><polygon fill="#FBFB77" filter="url(#fnbrof4)" points="116.5,543.6992,116.4649,543.6992,116.3645,548.7613,116.3173,553.8234,116.3477,558.8855,116.4134,563.9477,116.5,569.0098,116.5,568.3616,126.5,568.9438,136.5,568.6007,146.5,568.7446,156.5,568.388,166.5,568.7986,176.5,568.5648,186.5,568.6651,196.5,569.663,206.5,569.3579,216.5,569.6168,226.5,568.6255,236.5,569.0381,246.5,568.3946,256.5,569.1563,266.5,568.2915,276.5,568.3668,286.5,568.609,296.5,569.2775,306.5,569.0098,306.6256,569.0098,306.4129,565.9477,306.3811,562.8855,306.4463,559.8234,306.6646,556.7613,306.5,553.6992,306.3473,553.5465,304.3322,551.5314,302.3242,549.5235,300.5667,547.7659,298.3369,545.5361,296.5,543.6992,296.5,543.413,286.5,544.204,276.5,544.1168,266.5,543.4953,256.5,544.0051,246.5,544.1421,236.5,543.5215,226.5,543.7324,216.5,544.4406,206.5,543.181,196.5,543.2065,186.5,543.348,176.5,543.2825,166.5,544.179,156.5,543.6762,146.5,544.357,136.5,543.2376,126.5,543.9075,116.5,543.6992" style="stroke: #A80036; stroke-width: 1.0;"/><polygon fill="#FBFB77" points="116.5,543.6992,116.354,543.6992,116.3593,548.7613,116.3316,553.8234,116.6972,558.8855,116.7274,563.9477,116.5,569.0098,116.5,569.0562,126.5,569.4348,136.5,569.3471,146.5,569.4747,156.5,568.4879,166.5,569.7421,176.5,569.6571,186.5,568.8327,196.5,568.8966,206.5,569.1303,216.5,568.9178,226.5,568.5647,236.5,568.9704,246.5,569.0979,256.5,569.1251,266.5,569.2466,276.5,568.8498,286.5,569.6938,296.5,568.7885,306.5,569.0098,306.5536,569.0098,306.2673,567.6137,306.737,566.2175,306.7273,564.8214,306.607,563.4253,306.5,562.0292,306.4993,561.719,316.6759,562.138,326.8527,562.6351,337.0254,561.4151,347.2009,561.3944,357.3778,561.9316,367.5544,562.3067,377.73,562.3196,387.9048,561.9983,398.08,561.8015,408.2571,562.4473,418.4322,562.1986,428.6065,561.6486,438.7813,561.3366,448.9591,562.2443,459.1337,561.7952,469.3082,561.3688,479.4836,561.2602,489.66,561.5892,489.6415,561.1418,479.4586,560.544,469.2933,560.3711,459.1372,560.4223,448.974,560.3029,438.8084,560.1241,428.577,558.3497,418.4107,558.1548,408.2858,558.9621,398.0947,558.1654,387.913,557.5957,377.7408,557.2574,367.524,555.838,357.3601,555.702,347.1718,554.9715,337.0308,555.3886,326.8707,555.3431,316.6763,554.4663,306.5,554.0292,306.4478,554.0292,306.2717,553.9632,306.4843,553.8972,306.5928,553.8312,306.6443,553.7652,306.5,553.6992,306.5868,553.786,304.4335,551.6327,302.6766,549.8758,300.542,547.7412,298.6112,545.8105,296.5,543.6992,296.5,543.3708,286.5,544.2527,276.5,543.2226,266.5,543.2072,256.5,543.7971,246.5,543.0217,236.5,543.8032,226.5,543.3257,216.5,544.2423,206.5,543.3678,196.5,544.4428,186.5,544.0871,176.5,543.0561,166.5,543.1265,156.5,543.0842,146.5,543.7788,136.5,544.2307,126.5,544.4388,116.5,543.6992" style="stroke: #A80036; stroke-width: 1.0;"/><path d="M296.5,543.6992 L296.8019,543.6992 L296.571,545.6992 L296.2772,547.6992 L296.6372,549.6992 L296.6074,551.6992 L296.5,553.6992 " fill="#FBFB77" style="stroke: #A80036; stroke-width: 1.0;"/><path d="M306.5,553.6992 L306.5,553.5247 L304.5,553.7924 L302.5,553.7838 L300.5,553.5884 L298.5,553.6157 L296.5,553.6992 " fill="#FBFB77" style="stroke: #A80036; stroke-width: 1.0;"/><text fill="#000000" font-family="sans-serif" font-size="13" lengthAdjust="spacingAndGlyphs" textLength="169" x="122.5" y="561.2676">削除した場合はゴミ箱に入る</text><path d="M232.58,350.2892 L232.6088,350.3386 L235.963,352.3346 L239.3665,354.4149 L242.5458,356.1116 L245.8052,357.9453 L249.1911,359.9956 L249.3343,360.247 L253.3016,362.3462 L257.2974,364.4956 L261.5144,367.0332 L265.4854,369.1391 L269.7069,371.6845 L269.6204,371.5281 L274.566,374.5097 L279.3271,377.1578 L283.7953,379.2761 L288.6739,382.1365 L293.4523,384.8158 L293.5515,385.0016 L298.6937,387.5876 L303.8615,390.2214 L309.2608,393.289 L314.3586,395.7916 L319.7525,398.8492 L319.6698,398.6894 L322.6292,400.4746 L325.2665,401.6369 L328.0449,403.0721 L330.7604,404.3858 L333.6496,406.0354 L333.6277,405.9918 L336.3562,407.1801 L339.3314,408.8569 L342.098,410.1206 L345.0942,411.8392 L347.9323,413.2445 L347.8291,413.0343 L350.956,414.8949 L353.7329,416.0432 L356.8099,417.8022 L359.479,418.7309 L362.5162,420.409 L362.4222,420.2116 L365.3447,421.5431 L368.3103,422.9652 L371.3086,424.4557 L374.4012,426.1442 L377.3169,427.4614 L377.3994,427.6407 L380.3942,429.0331 L383.3088,430.251 L386.3208,431.6807 L389.1891,432.7984 L392.25,434.3342 L392.1639,434.1395 L395.3309,435.8509 L398.3598,437.2498 L401.2497,438.3345 L404.1708,439.4897 L407.2311,440.9597 L407.3187,441.1673 L410.28,442.3639 L413.2145,443.497 L416.0721,444.4481 L419.1736,445.9767 L422.1759,447.2706 L422.1289,447.153 L425.1714,448.5331 L428.0031,449.386 L431.1595,451.0506 L434.0151,451.9634 L437,453.1992 L436.8976,452.9179 L440.4514,454.3418 L443.9117,455.5085 L447.4376,456.8558 L450.9652,458.2076 L454.4961,459.5684 L454.4495,459.4251 L458.0131,460.4564 L461.7706,462.0836 L465.3197,463.0703 L468.8861,464.1101 L472.5463,465.438 L472.5315,465.3881 L476.1357,466.4238 L479.7686,467.5568 L483.4327,468.7958 L487.0607,469.9121 L490.6133,470.7731 L490.5822,470.6586 L494.1128,471.6901 L497.5467,472.3655 L501.2206,473.9248 L504.6482,474.5768 L508.16,475.5392 " fill="none" style="stroke: #A80036; stroke-width: 1.0;"/><polygon fill="#A80036" points="513.29,476.8592,513.4257,477.0308,511.8674,475.7912,510.0757,474.2565,508.6053,473.128,506.9681,471.7887,505.5668,470.7475,505.3548,470.6221,506.3149,471.8231,506.6485,472.6534,507.2625,473.6496,508.0603,474.7546,508.4469,475.6163,508.5285,475.7542,507.442,476.1397,506.4175,476.6299,505.4534,477.2222,504.4788,477.7967,503.5782,478.4964,503.5959,478.6017,505.484,477.9521,507.5017,478.0719,509.3932,477.4422,511.3889,477.4314,513.29,476.8592" style="stroke: #A80036; stroke-width: 1.0;"/><path d="M232.79,315.8392 L232.6677,315.7219 L235.808,312.3882 L239.1746,309.2713 L242.311,305.9337 L245.6093,302.7513 L248.6366,299.3091 L248.5124,299.1862 L250.4082,297.3196 L252.4644,295.6119 L254.2713,293.6574 L256.3416,291.9635 L257.9946,289.8566 L257.8683,289.7285 L260.1054,287.9039 L262.1276,285.8612 L263.9734,283.6396 L265.9525,281.5533 L268.2275,279.767 L268.0656,279.5985 L270.2729,277.4742 L272.6967,275.5754 L275.0641,273.6177 L277.217,271.4369 L279.2742,269.1563 L279.1564,269.0302 L281.8491,267.1835 L283.8132,264.5565 L286.4967,262.6999 L288.6749,260.3022 L291.0734,258.1404 L291.2168,258.2988 L293.4916,255.791 L295.895,253.4253 L298.6102,251.4041 L300.8841,248.8953 L303.5641,246.8352 L303.512,246.7757 L306.3574,244.7329 L308.6656,242.0759 L311.5786,240.1104 L314.1894,237.7995 L316.685,235.3567 L316.5702,235.2205 L319.3638,232.9793 L322.2018,230.7908 L324.762,228.2726 L327.6295,226.1191 L330.375,223.8208 L330.2726,223.6942 L333.2527,221.5725 L336.2327,219.4507 L338.7422,216.7469 L341.8787,214.8188 L344.5728,212.3433 L344.4922,212.2389 L347.369,209.9108 L350.5337,207.9557 L353.2061,205.3627 L356.1122,203.0726 L359.2174,201.0403 L359.1541,200.954 L362.3037,198.9473 L365.1759,196.5622 L368.2489,194.4511 L371.3678,192.4026 L374.2475,190.0277 L374.3624,190.194 L377.322,187.9116 L380.5393,186.0023 L383.5972,183.8622 L386.7157,181.8098 L389.602,179.4213 L389.4297,179.1544 L392.6804,177.3345 L395.7644,175.2565 L399.148,173.6424 L402.0597,171.2976 L405.2197,169.3371 L405.3503,169.5559 L408.2369,167.2023 L411.6782,165.7775 L414.6306,163.534 L417.7291,161.5352 L421.0394,159.8911 L420.9634,159.7516 L424.3365,158.3456 L427.5607,156.666 L430.5099,154.4817 L433.7052,152.749 L437,151.1992 L437.0965,151.4059 L440.0102,149.6201 L443.2714,148.5787 L446.2126,146.8516 L449.3558,145.5574 L452.3844,144.0177 L452.4523,144.1936 L455.6932,142.991 L458.9415,141.8078 L461.9626,140.0359 L465.1947,138.8104 L468.5075,137.7942 L468.5539,137.9372 L471.889,137.0351 L475.1252,135.8282 L478.318,134.4872 L481.6419,133.5504 L484.9194,132.4708 L484.8521,132.2268 L488.1799,131.6122 L491.4192,130.6767 L494.7138,129.9417 L497.9364,128.9455 L501.17,127.9892 " fill="none" style="stroke: #A80036; stroke-width: 1.0;"/><polygon fill="#A80036" points="506.27,126.7292,506.2597,126.6711,504.3294,126.3774,502.433,126.2734,500.4517,125.6929,498.4894,125.2187,496.5733,125.0046,496.6746,125.1724,497.5801,125.6527,498.4385,126.0551,499.4372,126.6899,500.3703,127.2159,501.4159,127.9285,501.2106,127.8045,500.9154,128.9478,500.4524,129.9899,499.4775,130.7229,499.2351,131.8981,498.4921,132.7711,498.6383,132.9593,500.1213,131.6575,501.7027,130.4824,503.0653,129.0256,504.6307,127.8299,506.27,126.7292" style="stroke: #A80036; stroke-width: 1.0;"/><path d="M232.61,326.3492 L232.7287,326.5566 L235.8177,324.2366 L239.2748,322.5596 L242.5051,320.4864 L246.0785,319.0126 L249.244,316.8263 L249.3653,317.0436 L253.4502,314.7092 L257.4104,312.1516 L261.513,309.849 L265.5616,307.4496 L269.7814,305.3569 L269.8413,305.4673 L274.6422,302.9788 L279.2678,300.1671 L283.9013,297.3699 L288.8026,295.0664 L293.544,292.4683 L293.6785,292.7249 L298.7296,289.5664 L304.0777,286.9747 L309.3422,284.2236 L314.6873,281.6263 L319.8538,278.688 L319.7292,278.4427 L322.611,277.232 L325.4552,275.9472 L328.1139,274.2973 L330.8807,272.8601 L333.7518,271.6283 L333.7416,271.6076 L336.4623,269.9177 L339.3509,268.5663 L342.2393,267.2144 L345.3103,266.2305 L348.0324,264.5435 L348.002,264.4806 L350.9009,263.0372 L353.9258,261.8545 L356.69,260.1323 L359.7583,259.0394 L362.6106,257.4995 L362.5849,257.4447 L365.4286,255.8131 L368.4269,254.511 L371.4384,253.2372 L374.4771,252.0214 L377.4017,250.5622 L377.4104,250.5813 L380.4571,249.3671 L383.3087,247.7225 L386.3715,246.5435 L389.2825,245.0299 L392.321,243.7976 L392.2876,243.721 L395.3075,242.4786 L398.3267,241.2345 L401.351,240.0023 L404.3403,238.6897 L407.2837,237.2716 L407.2733,237.2468 L410.3198,236.1519 L413.1984,234.654 L416.3263,233.7545 L419.2306,232.3182 L422.2049,231.0502 L422.2862,231.2556 L425.1181,229.7641 L428.1554,228.7919 L431.109,227.608 L434.1365,226.611 L437,225.1992 L437.0457,225.326 L440.5891,224.0724 L444.1491,222.8651 L447.5101,221.1061 L451.0923,219.9604 L454.6777,218.8233 L454.5772,218.5123 L458.3121,217.6126 L462.0078,216.5916 L465.6311,215.3464 L469.2861,214.1992 L472.9038,212.9367 L472.8928,212.8996 L476.5301,211.8024 L480.1394,210.6098 L483.7638,209.4687 L487.3969,208.3571 L491.128,207.5789 L491.1017,207.4819 L494.5958,206.3754 L498.1916,205.6437 L501.7525,204.7837 L505.2189,203.5749 L508.8,202.7892 " fill="none" style="stroke: #A80036; stroke-width: 1.0;"/><polygon fill="#A80036" points="513.65,201.5392,513.6464,201.5178,511.6789,201.0434,509.7753,200.9495,507.7928,200.386,505.8991,200.3509,503.937,199.9089,503.9471,199.9261,505.0006,200.6357,505.9457,201.1618,506.9519,201.7914,507.8346,202.2119,508.8078,202.7856,508.8425,202.806,508.1655,203.7202,507.7249,204.7739,506.9636,205.6382,506.6487,206.7662,505.9312,207.6564,505.9357,207.6621,507.5523,206.5305,509.0769,205.283,510.6189,204.0573,512.1724,202.8462,513.65,201.5392" style="stroke: #A80036; stroke-width: 1.0;"/><path d="M232.5,360.3192 L232.5374,360.3549 L235.731,363.696 L238.6613,366.7857 L242.1969,370.4534 L245.0059,373.4272 L248.3135,376.8772 L248.1439,376.71 L250.1843,378.7747 L252.0461,380.6633 L253.7171,382.3639 L255.6667,384.339 L257.6659,386.3631 L257.8338,386.5327 L259.6445,388.3213 L261.8276,390.4859 L263.9849,392.6244 L265.8662,394.4843 L267.8998,396.498 L267.8157,396.4108 L270.325,398.8535 L272.1131,400.5489 L274.6215,402.9907 L276.5963,404.8796 L278.9536,407.1648 L278.8935,407.1008 L281.2166,409.2753 L283.6319,411.5483 L286.097,413.8742 L288.5749,416.2137 L290.7653,418.2469 L290.6787,418.1517 L293.0746,420.3116 L295.7407,422.7684 L298.2089,425.0077 L300.9506,427.5477 L303.2735,429.6273 L303.191,429.5335 L305.7897,431.812 L308.508,434.2264 L311.0856,436.4808 L313.989,439.1057 L316.4163,441.1892 L316.3297,441.0871 L319.2536,443.6256 L322.0718,446.0396 L324.6521,448.1727 L327.3501,450.4448 L330.132,452.8158 L329.9475,452.5891 L332.8006,454.9135 L335.6373,457.2177 L338.8078,459.9322 L341.4868,462.0426 L344.3589,464.3903 L344.3628,464.3953 L347.2655,466.6345 L350.2176,468.9372 L353.0433,471.0774 L356.2451,473.7014 L359.0353,475.7958 L358.9398,475.6664 L362.1784,478.1961 L365.0058,480.1688 L368.1565,482.5795 L371.2124,484.8618 L374.0995,486.9155 L374.2035,487.0648 L377.1994,489.0901 L380.3784,491.3785 L383.1488,493.0801 L386.4023,495.4756 L389.4898,497.6325 L389.5355,497.7026 L392.7486,499.8683 L395.5865,501.4579 L398.9659,503.8789 L402.0524,505.8502 L405.1445,507.83 L405.156,507.8492 L408.2199,509.583 L411.4141,511.533 L414.7631,513.7396 L417.6836,515.2356 L421.0018,517.3912 L420.9519,517.3007 L424.3366,519.3983 L427.3363,520.7967 L430.5981,522.6713 L433.8821,524.5861 L437,526.1992 L437.0053,526.2104 L440.1803,527.7733 L443.3405,529.3046 L446.4492,530.7272 L449.6314,532.3052 L452.6834,533.6077 L452.5752,533.3305 L455.9771,534.9036 L459.3063,536.2905 L462.6696,537.7649 L465.7586,538.5367 L469.13,540.0317 L469.0427,539.7662 L472.4373,541.0126 L475.7825,542.1088 L479.1018,543.126 L482.5001,544.3838 L485.8616,545.5295 L485.9288,545.7696 L489.0837,546.1498 L492.4345,547.2299 L495.8737,548.6256 L499.0095,548.9375 L502.4,550.1592 " fill="none" style="stroke: #A80036; stroke-width: 1.0;"/><polygon fill="#A80036" points="507.29,551.3992,507.2965,551.4075,505.7266,550.1616,504.1256,548.8762,502.6407,547.7384,501.2467,546.716,499.5499,545.309,499.5259,545.2947,500.1301,546.282,500.6987,547.2481,501.1074,548.1191,501.845,549.1858,502.4435,550.1697,502.3696,550.0456,501.4819,550.7662,500.504,551.3352,499.4266,551.7372,498.5238,552.4323,497.5827,553.0633,497.5833,553.0665,499.4875,552.5161,501.5007,552.6023,503.4173,552.1246,505.3603,551.8005,507.29,551.3992" style="stroke: #A80036; stroke-width: 1.0;"/><path d="M232.63,334.0092 L232.6707,334.2048 L242.5374,331.758 L252.3244,328.9284 L262.3743,327.361 L272.4202,325.7744 L282.1986,322.9036 L292.1784,320.9999 L302.2127,319.3572 L312.3535,318.2265 L322.3152,316.2356 L332.0691,313.2475 L341.9357,310.8002 L352.129,309.921 L361.7809,306.4432 L371.6999,304.2473 L381.7616,302.7363 L391.587,300.0915 L401.6894,298.7759 L411.5304,296.2058 L421.4622,294.0716 L431.7086,293.4472 L441.5538,290.8971 L451.3131,287.9349 L461.2612,285.8789 L471.1922,283.7408 L481.3268,282.58 L491.0782,279.5796 L501.14,278.0692 " fill="none" style="stroke: #A80036; stroke-width: 1.0;"/><polygon fill="#A80036" points="506.09,277.0392,506.0584,276.894,504.2176,276.8615,502.2057,276.0424,500.3089,275.7525,498.4121,275.4627,496.466,274.9466,496.5907,275.1363,497.3649,275.4967,498.4937,276.3969,499.4344,277.0108,500.2708,277.4658,501.1938,278.0527,501,277.9254,500.3752,278.8686,499.9682,279.9549,499.4436,280.9639,498.8097,281.9012,498.0876,282.7805,498.0433,282.7187,499.7619,281.735,501.3751,280.6046,502.8435,279.2722,504.3858,278.0429,506.09,277.0392" style="stroke: #A80036; stroke-width: 1.0;"/><path d="M232.63,338.1992 L232.63,338.1687 L242.6856,337.4688 L252.7412,337.8288 L262.7968,338.1488 L272.8524,339.0815 L282.908,339.1351 L292.9636,338.1166 L303.0192,338.4298 L313.0748,338.9757 L323.1304,337.3742 L333.186,337.5963 L343.2416,338.3059 L353.2972,337.6282 L363.3528,337.9569 L373.4084,337.4599 L383.464,337.9027 L393.5196,338.074 L403.5752,337.5156 L413.6308,338.7444 L423.6864,338.3751 L433.742,337.6889 L443.7976,337.7775 L453.8532,339.1523 L463.9088,338.5404 L473.9644,338.1872 L484.02,338.1992 " fill="none" style="stroke: #A80036; stroke-width: 1.0;"/><polygon fill="#A80036" points="489.25,338.1992,489.2035,338.0947,487.4169,337.3248,485.653,336.6059,483.8022,335.6916,482.0188,334.9289,480.25,334.1992,480.1334,334.0826,481.1682,335.1174,481.879,335.8283,482.5144,336.4636,483.3374,337.2866,484.25,338.1992,484.1368,338.086,483.3756,338.9248,482.5481,339.6973,481.9808,340.73,481.1614,341.5106,480.25,342.1992,480.199,342.0845,481.9843,341.2514,483.9415,340.8051,485.6663,339.8358,487.4727,339.0503,489.25,338.1992" style="stroke: #A80036; stroke-width: 1.0;"/><path d="M232.63,342.4492 L232.8274,343.3844 L242.5318,344.8948 L252.0892,345.7084 L262.0086,348.2373 L271.8663,350.4737 L281.9441,353.7528 L291.5713,354.8977 L301.5662,357.7842 L311.2974,359.4215 L320.9367,360.6234 L330.9344,363.5227 L340.8893,366.2199 L350.6966,368.2176 L360.1274,368.4316 L370.1371,371.3883 L379.831,372.8489 L389.6339,374.8258 L399.6681,377.8986 L409.4741,379.8901 L419.109,381.0713 L429.01,383.5127 L438.8924,385.8664 L448.7419,388.0638 L458.7244,390.8916 L468.3023,391.8025 L478.0332,393.4383 L487.8613,395.5347 L497.86,398.4392 " fill="none" style="stroke: #A80036; stroke-width: 1.0;"/><polygon fill="#A80036" points="502.82,399.4892,502.7871,399.4437,501.2053,398.3104,499.509,397.0189,498.0082,395.9978,496.3043,394.6956,494.8371,393.7209,494.6822,393.6199,495.5757,394.7472,496.0371,395.5927,496.5281,396.4575,497.4045,397.5737,497.9273,398.4592,497.82,398.2948,496.9394,399.0155,495.9113,399.5103,495.0557,400.2695,494.0137,400.7428,493.189,401.5493,493.2357,401.7678,495.1638,401.3644,497.0855,400.9315,498.9463,400.2135,500.9102,399.9781,502.82,399.4892" style="stroke: #A80036; stroke-width: 1.0;"/><path d="M417.22,620.2192 L417.221,620.2696 L423.1101,619.775 L429.0079,619.7288 L434.9147,620.1421 L440.8125,620.0929 L446.7025,619.6465 L446.7015,619.596 L447.4217,619.5485 L448.1492,619.8729 L448.8708,619.8984 L449.58,619.2844 L450.3068,619.5765 L450.3022,619.3378 L450.6634,619.4622 L451.0276,619.7351 L451.3861,619.7175 L451.7446,619.6994 L452.1004,619.5416 L452.1069,619.8742 L452.2803,619.5854 L452.4536,619.2936 L452.6382,619.5813 L452.8127,619.3542 L452.995,619.5243 " fill="none" style="stroke: #A80036; stroke-width: 1.0; stroke-dasharray: 7.0,7.0;"/></g></svg>