<?xml version="1.0" encoding="UTF-8" standalone="no"?><svg xmlns="http://www.w3.org/2000/svg" xmlns:xlink="http://www.w3.org/1999/xlink" contentScriptType="application/ecmascript" contentStyleType="text/css" height="653px" preserveAspectRatio="none" style="width:701px;height:653px;" version="1.1" viewBox="0 0 701 653" width="701px" zoomAndPan="magnify"><defs><filter height="300%" id="fmlba8p" width="300%" x="-1" y="-1"><feGaussianBlur result="blurOut" stdDeviation="2.0"/><feColorMatrix in="blurOut" result="blurOut2" type="matrix" values="0 0 0 0 0 0 0 0 0 0 0 0 0 0 0 0 0 0 .4 0"/><feOffset dx="4.0" dy="4.0" in="blurOut2" result="blurOut3"/><feBlend in="SourceGraphic" in2="blurOut3" mode="normal"/></filter></defs><g><text fill="#000000" font-family="sans-serif" font-size="18" lengthAdjust="spacingAndGlyphs" textLength="252" x="242" y="17.4023">ユースケース：コンテンツ管理</text><!--cluster コンテンツ管理--><polygon fill="#FFFFFF" filter="url(#fmlba8p)" points="453,53.1992,453,52.5675,463.4,53.8932,473.8,53.1734,484.2,52.6538,494.6,52.6216,505,53.3368,515.4,53.9405,525.8,53.045,536.2,53.6748,546.6,53.1721,557,53.1992,557.2142,53.2659,558.6184,57.7648,559.7004,62.1635,561.4041,66.7557,562.4065,71.1296,564,75.6875,564,76.1074,574,75.2807,584,76.4349,594,76.3452,604,75.3027,614,75.5062,624,76.1899,634,76.1203,644,75.5282,654,76.1562,664,75.1594,674,75.4436,684,75.16,694,75.6875,693.4641,75.6875,693.435,85.6786,693.8707,95.6697,693.465,105.6609,694.3025,115.652,693.6181,125.6431,694.0261,135.6342,693.6382,145.6254,694.0743,155.6165,694.2777,165.6076,693.7323,175.5987,694.0734,185.5898,693.5584,195.581,694.5916,205.5721,693.996,215.5632,693.7559,225.5543,693.3532,235.5455,694.5587,245.5366,694.7075,255.5277,694.1745,265.5188,694.2749,275.5099,693.6271,285.5011,693.3809,295.4922,694.166,305.4833,693.6681,315.4744,694.5411,325.4656,693.3723,335.4567,693.8955,345.4478,693.8291,355.4389,694.4457,365.43,694.5114,375.4212,693.4724,385.4123,694.4385,395.4034,693.5944,405.3945,693.2893,415.3857,693.8353,425.3768,694.2359,435.3679,693.5819,445.359,693.8359,455.3501,694.1821,465.3413,693.6464,475.3324,694.3612,485.3235,693.9084,495.3146,694.3818,505.3058,694.1862,515.2969,694.4149,525.288,693.9836,535.2791,693.9827,545.2702,694.7345,555.2614,693.3165,565.2525,694.319,575.2436,694.6215,585.2347,693.654,595.2259,693.5607,605.217,694.4979,615.2081,694,625.1992,694,625.0458,683.9583,624.986,673.9167,625.6382,663.875,625.7245,653.8333,625.2912,643.7917,625.2277,633.75,624.6086,623.7083,625.1779,613.6667,624.9754,603.625,624.7061,593.5833,625.0403,583.5417,625.7437,573.5,625.4547,563.4583,625.5498,553.4167,624.9144,543.375,625.1922,533.3333,625.8301,523.2917,625.3376,513.25,625.0271,503.2083,625.4511,493.1667,625.8935,483.125,625.5579,473.0833,625.4725,463.0417,625.9403,453,625.1992,453.0984,625.1992,452.5947,615.1641,452.4805,605.129,452.521,595.094,452.656,585.0589,452.6748,575.0238,452.8401,564.9887,453.5894,554.9536,453.5013,544.9185,453.1893,534.8834,452.9851,524.8483,452.3334,514.8133,453.6998,504.7782,453.0845,494.7431,453.0824,484.708,453.7068,474.6729,452.2526,464.6378,452.4858,454.6027,452.553,444.5676,452.6564,434.5326,452.8217,424.4975,452.4926,414.4624,453.4608,404.4273,453.6647,394.3922,452.9005,384.3571,452.4105,374.322,453.4022,364.2869,453.0126,354.2519,453.5589,344.2168,453.2584,334.1817,452.5838,324.1466,453.4884,314.1115,453.3252,304.0764,452.8926,294.0413,453.3972,284.0062,452.2903,273.9711,453.7023,263.9361,453.2407,253.901,453.1879,243.8659,453.27,233.8308,452.7793,223.7957,452.9279,213.7606,453.0662,203.7255,452.9687,193.6904,453.3679,183.6554,453.5079,173.6203,452.5287,163.5852,453.08,153.5501,453.0847,143.515,453.0809,133.4799,452.8423,123.4448,453.5559,113.4097,452.8043,103.3747,453.2939,93.3396,453.5904,83.3045,452.5387,73.2694,452.9262,63.2343,453,53.1992" style="stroke: #000000; stroke-width: 2.0;"/><path d="M453,75.6875 L453,75.7805 L463.0909,75.0212 L473.1818,75.9073 L483.2727,75.605 L493.3636,76.2256 L503.4545,75.2174 L513.5455,76.3984 L523.6364,76.0946 L533.7273,75.2879 L543.8182,74.8639 L553.9091,75.3874 L564,75.6875 " fill="#FFFFFF" style="stroke: #000000; stroke-width: 2.0;"/><text fill="#000000" font-family="sans-serif" font-size="14" font-weight="bold" lengthAdjust="spacingAndGlyphs" textLength="98" x="457" y="68.7344">コンテンツ管理</text><polygon fill="#FEFECE" filter="url(#fmlba8p)" points="656.2934,493.311,654.0755,496.446,649.1587,499.2686,642.5747,501.9175,633.6445,504.135,622.0287,505.739,612.7959,507.7826,601.2174,509.0831,585.8435,509.2121,572.5704,509.4271,561.643,509.7043,546.9108,508.5698,534.9023,507.4605,525.6453,506.3424,515.7304,504.412,505.2812,501.6894,500.297,499.5534,493.8058,496.4357,490.8826,493.5361,489.7486,490.503,490.678,487.4676,493.6619,484.5075,499.2172,481.8308,505.6093,479.1381,515.0179,477.0298,525.513,475.1698,534.2099,473.0038,549.1237,472.4654,561.3286,471.6123,572.0573,470.8159,586.8382,471.4192,601.0957,472.4452,610.3512,472.9255,621.7927,474.5427,631.6654,476.4634,642.6128,479.2999,647.1741,481.3392,653.543,484.429,657.366,487.5342,659.5298,490.8026" style="stroke: #A80036; stroke-width: 1.5;"/><text fill="#000000" font-family="sans-serif" font-size="14" lengthAdjust="spacingAndGlyphs" textLength="140" x="503.7351" y="495.1904">コンテンツを検索する</text><polygon fill="#FEFECE" filter="url(#fmlba8p)" points="656.6822,118.3998,655.2278,121.7093,649.9019,124.4385,641.1765,126.598,631.7193,128.6951,624.6082,131.3284,612.1975,132.6458,599.9227,133.7872,588.2738,134.7674,573.8825,134.7269,561.2174,134.607,547.0984,133.6126,536.9408,132.9262,523.2971,130.8059,513.7128,128.951,507.1927,127.1261,499.1875,124.2999,492.561,121.1513,492.0729,118.8081,489.7327,115.4994,491.3159,112.6133,494.5502,109.7105,497.1832,106.366,506.3844,104.3152,514.2703,101.859,523.3838,99.6833,535.8354,98.3752,548.9171,97.4182,558.9172,96.0613,572.4516,95.906,586.7414,96.3971,599.0723,96.9829,612.7106,98.4646,622.3658,99.6736,633.8624,101.9654,641.7325,104.0988,648.8174,106.7147,655.1506,109.7963,655.9281,112.2057,659.2989,115.7498" style="stroke: #A80036; stroke-width: 1.5;"/><text fill="#000000" font-family="sans-serif" font-size="14" lengthAdjust="spacingAndGlyphs" textLength="140" x="503.7351" y="120.1904">コンテンツを作成する</text><polygon fill="#FEFECE" filter="url(#fmlba8p)" points="657.5255,191.5925,655.3976,194.7481,650.4139,197.5554,641.1414,199.59,632.5808,201.892,622.6176,203.8735,610.8307,205.3335,599.3297,206.6517,587.8456,207.6695,572.0809,207.3153,561.9748,207.7801,548.2078,206.8661,535.4282,205.5806,525.5837,204.3283,513.3097,201.8589,504.8428,199.5892,497.6,196.9372,493.8295,194.4412,489.0146,191.1093,489.2965,188.3998,491.4079,185.6343,495.1926,182.8573,498.32,179.6258,506.9231,177.4383,515.0787,175.0437,525.5082,173.1687,536.5248,171.5327,548.9557,170.427,558.9073,169.059,575.3895,169.5772,586.3571,169.3093,601.0895,170.4438,611.1751,171.1138,622.0446,172.6003,633.7329,174.9358,641.3077,177.0017,650.2876,180.0507,652.6011,182.2138,655.9709,185.2155,658.7243,188.6185" style="stroke: #A80036; stroke-width: 1.5;"/><text fill="#000000" font-family="sans-serif" font-size="14" lengthAdjust="spacingAndGlyphs" textLength="140" x="503.7351" y="193.1904">コンテンツを編集する</text><polygon fill="#FEFECE" filter="url(#fmlba8p)" points="657.9016,566.6784,653.6096,569.3395,647.5758,571.907,643.2371,575.0688,633.5022,577.1025,622.3959,578.8229,611.4039,580.4645,598.2224,581.3987,587.0658,582.4913,572.1365,582.328,559.9491,582.3172,547.8994,581.7957,536.1473,580.7449,523.5212,578.8571,514.2311,577.0695,506.2151,574.9028,498.2213,572.0792,493.1726,569.2911,491.514,566.6804,488.2887,563.1695,489.2089,560.1319,495.2224,557.8641,500.1584,555.0458,504.0344,551.7783,513.2824,549.6333,523.392,547.6852,535.8754,546.3844,548.0657,545.2237,561.5928,544.6727,575.393,544.578,586.2208,544.2782,600.8154,545.3812,610.8984,546.0505,622.2483,547.6468,632.4332,549.6389,640.8121,551.8885,649.0906,554.7771,653.0993,557.3276,657.7514,560.6223,658.1468,563.4866" style="stroke: #A80036; stroke-width: 1.5;"/><text fill="#000000" font-family="sans-serif" font-size="14" lengthAdjust="spacingAndGlyphs" textLength="140" x="503.7351" y="568.1904">コンテンツを削除する</text><polygon fill="#FEFECE" filter="url(#fmlba8p)" points="664.3269,266.7678,657.6079,269.1184,653.9329,272.4821,645.9149,275.0821,638.8757,278.0154,624.7434,279.3417,612.6292,281.0136,601.006,282.5766,588.2198,283.5525,571.9434,283.3187,560.6873,283.7183,546.9283,282.9742,533.8947,281.7595,520.2264,279.723,509.7344,277.7023,498.8058,274.8698,494.4318,272.8185,488.1142,269.6489,483.0733,266.1336,482.5953,263.0754,483.8228,259.8996,488.3299,257.048,493.4365,254.0086,500.9058,251.2842,508.6217,248.5042,520.2532,246.6114,532.9211,245.0649,545.9434,243.8189,557.77,242.6256,575.0326,243.0829,588.4293,243.1682,600.1131,243.4421,614.0991,244.8727,626.2005,246.5541,635.5912,248.3254,646.527,251.1594,652.3276,253.534,660.7371,257.1775,663.5463,260.1872,665.1253,263.4949" style="stroke: #A80036; stroke-width: 1.5;"/><text fill="#000000" font-family="sans-serif" font-size="14" lengthAdjust="spacingAndGlyphs" textLength="154" x="496.3393" y="267.9112">コンテンツをコピーする</text><polygon fill="#FEFECE" filter="url(#fmlba8p)" points="655.3397,341.093,654.8357,344.6197,647.5437,346.8996,642.5997,349.9232,633.9998,352.2162,623.6776,354.1157,612.7761,355.778,600.0274,356.8112,588.2252,357.7563,574.636,357.8991,561.3722,357.6424,546.7101,356.5239,534.7755,355.4315,524.6342,354.1114,513.2402,351.8431,505.3351,349.7017,498.3611,347.1111,494.9686,344.7014,489.5078,341.222,488.4046,338.196,491.1416,335.5735,495.0725,332.8298,498.6436,329.6997,504.7409,326.9397,513.842,324.7612,524.9866,323.0496,536.7978,321.5951,546.1507,319.7861,562.0316,319.7729,575.0774,319.5059,585.4159,319.0943,598.9934,319.9649,611.7092,321.2358,624.699,323.2068,632.5173,324.6581,643.4395,327.4888,648.6899,329.6856,654.2381,332.5878,656.6604,335.373,657.7356,338.3926" style="stroke: #A80036; stroke-width: 1.5;"/><text fill="#000000" font-family="sans-serif" font-size="14" lengthAdjust="spacingAndGlyphs" textLength="140" x="503.7351" y="343.1904">コンテンツを公開する</text><polygon fill="#FEFECE" filter="url(#fmlba8p)" points="668.7476,417.7645,665.8657,421.2251,659.7849,424.3096,650.6117,426.9325,641.6152,429.7134,629.3835,431.7668,619.0139,434.1207,602.3156,434.8179,588.5074,435.8216,573.9044,436.2022,559.5491,436.1038,542.1073,434.6997,529.0579,433.6096,517.9654,432.2403,503.448,429.3541,494.8194,427.0358,486.8353,424.1157,482.5306,421.3038,477.3581,417.623,475.6398,414.1072,479.7958,411.3775,483.3097,408.0591,488.0048,404.663,496.519,401.8919,507.0333,399.4523,517.8285,397.0758,529.4071,394.9938,543.0572,393.6113,556.9091,392.6173,575.1022,393.044,590.4516,393.3659,601.6008,393.3551,618.2735,395.26,629.853,396.7388,640.819,398.8264,653.0351,401.9513,658.6352,404.3354,663.7208,407.3229,668.4084,410.8947,670.4524,414.4837" style="stroke: #A80036; stroke-width: 1.5;"/><text fill="#000000" font-family="sans-serif" font-size="14" lengthAdjust="spacingAndGlyphs" textLength="168" x="489.5689" y="419.1571">コンテンツを非公開にする</text><!--entity 作成者--><polygon fill="#FEFECE" filter="url(#fmlba8p)" points="219.5775,308.9007,217.94,310.5812,217.7129,312.3197,215.4866,314.1096,213.8807,314.0375,211.7911,314.8389,209.8106,314.7749,207.2829,313.6408,206.3142,312.5935,204.9508,310.8562,203.9793,308.9761,203.6482,307.4734,203.5766,305.0507,204.0471,303.4632,205.0031,301.5427,206.788,299.7098,209.3579,298.575,211.224,299.0166,212.554,299.2573,213.9499,299.4529,215.8495,300.3738,217.3605,301.4802,218.4109,303.0399,218.9888,305.3072,219.8346,307.9091" style="stroke: #A80036; stroke-width: 2.0;"/><path d="M211.5,314.6992 L211.0697,314.6992 L211.0958,320.0992 L211.6266,325.4992 L211.0339,330.8992 L211.6036,336.2992 L211.5,341.6992 M198.5,322.6992 L198.5,322.5474 L203.7,322.249 L208.9,322.163 L214.1,323.064 L219.3,322.9147 L224.5,322.6992 M211.5,341.6992 L211.2988,341.5249 L209.0373,344.8182 L206.774,348.11 L203.8691,350.8458 L201.2074,353.7923 L198.5,356.6992 M211.5,341.6992 L211.3538,341.5725 L214.0214,344.6311 L216.4458,347.4789 L219.6947,351.0413 L221.6425,353.476 L224.5,356.6992 " fill="#FEFECE" style="stroke: #A80036; stroke-width: 2.0;"/><text fill="#000000" font-family="sans-serif" font-size="14" lengthAdjust="spacingAndGlyphs" textLength="42" x="190.5" y="377.2344">作成者</text><polygon fill="#FBFB77" filter="url(#fmlba8p)" points="6,603.6992,6.1266,603.6992,6.2419,611.8234,6.1092,619.9477,5.7942,628.0719,5.8495,636.1961,6,644.3203,6,643.7956,16.0244,644.2784,26.0488,644.9775,36.0732,643.9827,46.0976,644.9234,56.122,644.1204,66.1463,644.333,76.1707,643.575,86.1951,644.0626,96.2195,644.2404,106.2439,643.6458,116.2683,643.988,126.2927,644.1286,136.3171,644.5442,146.3415,643.6585,156.3659,643.9536,166.3902,644.4864,176.4146,644.0764,186.439,643.6908,196.4634,644.7448,206.4878,644.2438,216.5122,644.18,226.5366,644.8841,236.561,644.917,246.5854,644.2634,256.6098,643.7186,266.6341,644.0002,276.6585,643.9056,286.6829,644.1231,296.7073,643.6303,306.7317,644.0661,316.7561,644.7586,326.7805,644.2929,336.8049,644.6686,346.8293,644.0749,356.8537,644.0592,366.878,644.2112,376.9024,644.7787,386.9268,644.0036,396.9512,644.1398,406.9756,644.2636,417,644.3203,417.1184,644.3203,416.7625,638.1961,417.2246,632.0719,417.1813,625.9477,416.9989,619.8234,417,613.6992,416.9927,613.6919,414.8945,611.5937,413.0281,609.7273,411.0687,607.7679,409.1149,605.8141,407,603.6992,407,604.2627,396.975,603.9754,386.95,603.2401,376.925,603.1043,366.9,603.9099,356.875,603.0098,346.85,602.9906,336.825,604.1168,326.8,603.3664,316.775,603.1824,306.75,603.664,296.725,603.8104,286.7,604.4259,276.675,603.3398,266.65,604.0416,256.625,604.4391,246.6,603.4691,236.575,603.5112,226.55,603.4007,216.525,602.9836,206.5,603.9585,196.475,603.5449,186.45,603.8403,176.425,604.0828,166.4,603.4032,156.375,603.1802,146.35,603.5891,136.325,604.3863,126.3,603.438,116.275,604.1689,106.25,603.3555,96.225,602.9786,86.2,604.1258,76.175,603.1692,66.15,603.0692,56.125,603.2695,46.1,604.3228,36.075,604.1372,26.05,603.1615,16.025,604.1281,6,603.6992" style="stroke: #A80036; stroke-width: 1.0;"/><path d="M407,603.6992 L406.8865,603.6992 L407.2807,605.6992 L406.8451,607.6992 L406.7161,609.6992 L406.7893,611.6992 L407,613.6992 " fill="#FBFB77" style="stroke: #A80036; stroke-width: 1.0;"/><path d="M417,613.6992 L417,613.7542 L415,613.9354 L413,613.7878 L411,613.6603 L409,613.653 L407,613.6992 " fill="#FBFB77" style="stroke: #A80036; stroke-width: 1.0;"/><text fill="#000000" font-family="sans-serif" font-size="13" lengthAdjust="spacingAndGlyphs" textLength="390" x="12" y="621.2676">「コンテンツ」はフォルダ、固定ページ、リンク、エイリアスなど</text><text fill="#000000" font-family="sans-serif" font-size="13" lengthAdjust="spacingAndGlyphs" textLength="234" x="12" y="636.5781">複数の種類のコンテンツを対象とする。</text><polygon fill="#FBFB77" filter="url(#fmlba8p)" points="116.5,543.6992,116.7029,543.6992,116.3567,548.7613,116.3302,553.8234,116.5473,558.8855,116.267,563.9477,116.5,569.0098,116.5,568.8732,126.5,568.9532,136.5,568.3799,146.5,569.2901,156.5,569.5086,166.5,568.8439,176.5,568.7432,186.5,568.964,196.5,569.5356,206.5,568.6198,216.5,568.7626,226.5,568.7812,236.5,568.4612,246.5,568.5882,256.5,568.7337,266.5,569.4886,276.5,569.213,286.5,568.7353,296.5,569.1252,306.5,569.0098,306.6304,569.0098,306.2608,565.9477,306.3788,562.8855,306.3901,559.8234,306.5645,556.7613,306.5,553.6992,306.3709,553.5701,304.3654,551.5646,302.5525,549.7518,300.3284,547.5276,298.5551,545.7544,296.5,543.6992,296.5,544.2313,286.5,543.1294,276.5,543.2545,266.5,544.2602,256.5,543.5187,246.5,543.3922,236.5,543.5508,226.5,543.3415,216.5,543.2662,206.5,543.7163,196.5,543.8905,186.5,543.6479,176.5,544.1088,166.5,543.6165,156.5,544.4159,146.5,543.4207,136.5,543.6593,126.5,543.4242,116.5,543.6992" style="stroke: #A80036; stroke-width: 1.0;"/><polygon fill="#FBFB77" points="116.5,543.6992,116.7375,543.6992,116.513,548.7613,116.4981,553.8234,116.2646,558.8855,116.3127,563.9477,116.5,569.0098,116.5,568.2605,126.5,569.6348,136.5,569.6463,146.5,569.0156,156.5,569.5108,166.5,568.6662,176.5,569.4537,186.5,568.6559,196.5,569.1326,206.5,568.3749,216.5,568.7596,226.5,568.8246,236.5,569.3845,246.5,568.2622,256.5,568.7239,266.5,569.2371,276.5,568.3425,286.5,568.9038,296.5,569.094,306.5,569.0098,306.35,569.0098,306.5748,567.6137,306.284,566.2175,306.2946,564.8214,306.713,563.4253,306.5,562.0292,306.4991,561.6414,316.6773,562.7219,326.8517,562.2339,337.0264,561.8484,347.2036,562.5183,357.3795,562.6328,367.5536,562.0133,377.73,562.3331,387.9033,561.3727,398.0813,562.3391,408.2558,561.9017,418.4308,561.6416,428.6069,561.8418,438.7837,562.312,448.9576,561.6127,459.1322,561.1901,469.3091,561.7169,479.4854,562.0316,489.66,561.5892,489.6494,561.3319,479.4967,561.4669,469.2831,560.1242,459.114,559.8598,448.9436,559.5666,438.7711,559.2191,428.5916,558.7044,418.4008,557.916,408.2575,558.2771,398.0919,558.0976,387.8888,557.0113,377.7022,556.3215,367.5702,556.9569,357.3561,555.6029,347.2153,556.0256,337.0023,554.6996,326.8347,554.4713,316.6462,553.7368,306.5,554.0292,306.506,554.0292,306.2739,553.9632,306.3115,553.8972,306.6447,553.8312,306.4175,553.7652,306.5,553.6992,306.5442,553.7434,304.4286,551.6279,302.3655,549.5647,300.4963,547.6955,298.5365,545.7357,296.5,543.6992,296.5,544.2197,286.5,543.8545,276.5,543.1026,266.5,543.875,256.5,543.1364,246.5,543.9727,236.5,544.2306,226.5,543.5089,216.5,543.7048,206.5,543.9618,196.5,543.658,186.5,543.7185,176.5,543.3866,166.5,543.4636,156.5,543.4623,146.5,544.1918,136.5,543.1119,126.5,543.5187,116.5,543.6992" style="stroke: #A80036; stroke-width: 1.0;"/><path d="M296.5,543.6992 L296.7302,543.6992 L296.6699,545.6992 L296.4504,547.6992 L296.5034,549.6992 L296.4189,551.6992 L296.5,553.6992 " fill="#FBFB77" style="stroke: #A80036; stroke-width: 1.0;"/><path d="M306.5,553.6992 L306.5,553.4658 L304.5,554.0197 L302.5,553.6741 L300.5,553.649 L298.5,553.5601 L296.5,553.6992 " fill="#FBFB77" style="stroke: #A80036; stroke-width: 1.0;"/><text fill="#000000" font-family="sans-serif" font-size="13" lengthAdjust="spacingAndGlyphs" textLength="169" x="122.5" y="561.2676">削除した場合はゴミ箱に入る</text><path d="M232.58,350.2892 L232.543,350.226 L235.7996,352.0549 L239.2548,354.2238 L242.6465,356.2839 L245.8602,358.0395 L249.1911,359.9956 L249.2876,360.1649 L253.1729,362.1205 L257.4889,364.8317 L261.5361,367.0713 L265.5879,369.319 L269.7069,371.6845 L269.6154,371.5191 L274.6155,374.5992 L279.2975,377.1043 L284.023,379.6877 L288.85,382.4549 L293.4523,384.8158 L293.3249,384.5769 L298.5846,387.3831 L303.9898,390.4617 L309.1304,393.0446 L314.3742,395.8209 L319.7525,398.8492 L319.8436,399.0253 L322.5796,400.3787 L325.4217,401.9371 L328.103,403.1845 L330.877,404.6112 L333.6496,406.0354 L333.5374,405.813 L336.4469,407.3598 L339.4342,409.0605 L342.2599,410.4413 L345.055,411.7615 L347.9323,413.2445 L347.837,413.0504 L350.9372,414.8566 L353.7392,416.056 L356.8018,417.7858 L359.4605,418.6933 L362.5162,420.409 L362.5734,420.5289 L365.4539,421.7723 L368.3998,423.153 L371.2689,424.3724 L374.3695,426.0777 L377.3169,427.4614 L377.2381,427.2903 L380.3704,428.9813 L383.285,430.1993 L386.3179,431.6744 L389.2333,432.8943 L392.25,434.3342 L392.1815,434.1793 L395.2276,435.6173 L398.1814,436.8463 L401.3674,438.6005 L404.1221,439.3796 L407.2311,440.9597 L407.3153,441.159 L410.2972,442.4046 L413.1682,443.3875 L416.2225,444.8042 L419.2094,446.0617 L422.1759,447.2706 L422.2371,447.4236 L425.1992,448.6025 L427.9896,449.3521 L431.0162,450.6923 L434.1062,452.1911 L437,453.1992 L436.9092,452.9497 L440.5977,454.7436 L443.9356,455.5743 L447.411,456.7826 L451.0914,458.5543 L454.4961,459.5684 L454.5434,459.7141 L458.0359,460.5263 L461.6253,461.6369 L465.3211,463.0746 L469.0317,464.5578 L472.5463,465.438 L472.5811,465.5559 L476.1841,466.5877 L479.7527,467.503 L483.411,468.7223 L487.0674,469.9349 L490.6133,470.7731 L490.5276,470.4576 L494.187,471.9633 L497.6738,472.8335 L501.1738,473.7525 L504.641,474.5503 L508.16,475.5392 " fill="none" style="stroke: #A80036; stroke-width: 1.0;"/><polygon fill="#A80036" points="513.29,476.8592,513.4133,477.015,511.8865,475.8153,510.241,474.4654,508.7719,473.3385,507.1193,471.9797,505.5668,470.7475,505.532,470.7269,506.2444,471.7814,506.5166,472.5754,507.0917,473.5486,507.8149,474.6094,508.4469,475.6163,508.474,475.662,507.3694,476.0169,506.3963,476.5939,505.4131,477.1541,504.4467,477.7426,503.5782,478.4964,503.5476,478.3149,505.5597,478.4015,507.4775,477.9279,509.3927,477.4393,511.3589,477.2536,513.29,476.8592" style="stroke: #A80036; stroke-width: 1.0;"/><path d="M232.79,315.8392 L233.0142,316.0542 L236.001,312.5731 L239.3139,309.4048 L242.1727,305.8011 L245.5899,302.7327 L248.6366,299.3091 L248.4252,299.0998 L250.7155,297.6239 L252.3818,295.5301 L254.2863,293.6721 L256.3134,291.9357 L257.9946,289.8566 L258.1783,290.0429 L259.8688,287.6639 L262.1318,285.8655 L263.9803,283.6466 L266.1176,281.7207 L268.2275,279.767 L268.1828,279.7205 L270.4939,277.7043 L272.7551,275.6361 L275.0498,273.6029 L277.2296,271.45 L279.2742,269.1563 L279.3517,269.2394 L281.4823,266.7906 L284.0979,264.8614 L286.2679,262.4549 L288.9126,260.5567 L291.0734,258.1404 L291.1717,258.249 L293.7339,256.0587 L295.9621,253.4994 L298.5252,251.3102 L300.9922,249.0147 L303.5641,246.8352 L303.5691,246.8409 L306.1561,244.5027 L308.7528,242.1757 L311.575,240.1063 L314.2628,237.8833 L316.685,235.3567 L316.8587,235.5629 L319.233,232.824 L321.9614,230.5055 L325.0855,228.6565 L327.7314,226.24 L330.375,223.8208 L330.568,224.0596 L333.0159,221.2795 L336.1346,219.3293 L338.6862,216.6776 L341.6187,214.4971 L344.5728,212.3433 L344.4188,212.1438 L347.3646,209.9051 L350.2578,207.5982 L353.3137,205.5022 L356.1093,203.0688 L359.2174,201.0403 L359.1869,200.9986 L362.3062,198.9507 L365.2553,196.6706 L368.41,194.6709 L371.3877,192.4298 L374.2475,190.0277 L374.3439,190.1672 L377.2125,187.7531 L380.3368,185.7091 L383.5335,183.7699 L386.6665,181.7385 L389.602,179.4213 L389.7109,179.5899 L392.7964,177.5142 L395.8197,175.3421 L399.0264,173.4541 L402.1424,171.4256 L405.2197,169.3371 L405.2797,169.4377 L408.4856,167.6188 L411.3925,165.2991 L414.8377,163.8809 L417.9392,161.887 L421.0394,159.8911 L421.0933,159.9901 L424.2554,158.1966 L427.459,156.4792 L430.4798,154.4263 L433.6569,152.6604 L437,151.1992 L437.0388,151.2824 L440.1469,149.913 L443.2324,148.495 L446.1445,146.7059 L449.327,145.4957 L452.3844,144.0177 L452.4463,144.1781 L455.5112,142.5197 L458.8841,141.6591 L461.9464,139.9937 L465.2372,138.9207 L468.5075,137.7942 L468.4226,137.5326 L471.767,136.6591 L475.1603,135.9362 L478.2954,134.4176 L481.6213,133.487 L484.9194,132.4708 L485.0021,132.7708 L488.1423,131.4757 L491.3776,130.5257 L494.7045,129.9079 L497.9631,129.0424 L501.17,127.9892 " fill="none" style="stroke: #A80036; stroke-width: 1.0;"/><polygon fill="#A80036" points="506.27,126.7292,506.2672,126.7134,504.3131,126.2855,502.3738,125.9407,500.4754,125.8258,498.4956,125.2539,496.5733,125.0046,496.4484,124.7978,497.6585,125.7826,498.4612,126.0926,499.4108,126.6462,500.3229,127.1374,501.4159,127.9285,501.4232,127.9328,500.9251,128.9537,500.0407,129.7413,499.4629,130.714,499.1297,131.8345,498.4921,132.7711,498.3656,132.6082,500.0954,131.6242,501.5539,130.2909,503.2343,129.2432,504.7787,128.0203,506.27,126.7292" style="stroke: #A80036; stroke-width: 1.0;"/><path d="M232.61,326.3492 L232.7534,326.5997 L235.7741,324.1604 L239.4209,322.8148 L242.7172,320.857 L246.0253,318.9197 L249.244,316.8263 L249.0866,316.5446 L253.3702,314.5659 L257.3856,312.1071 L261.4362,309.7115 L265.8072,307.8895 L269.7814,305.3569 L269.7916,305.3756 L274.65,302.9931 L279.2793,300.1882 L283.9916,297.5364 L288.7357,294.9431 L293.544,292.4683 L293.4988,292.3818 L298.8411,289.7792 L304.1532,287.119 L309.207,283.9656 L314.7019,281.6543 L319.8538,278.688 L319.9404,278.8585 L322.5197,277.0522 L325.542,276.118 L328.285,274.634 L331.0674,273.2277 L333.7518,271.6283 L333.8306,271.787 L336.5581,270.1109 L339.347,268.5585 L342.1889,267.1129 L345.2122,266.0329 L348.0324,264.5435 L348.1545,264.7962 L351.0409,263.3268 L353.8985,261.7981 L356.8787,260.5227 L359.7925,259.1101 L362.6106,257.4995 L362.4866,257.2351 L365.7028,256.3977 L368.5217,254.7131 L371.5104,253.3907 L374.3346,251.7175 L377.4017,250.5622 L377.2853,250.3053 L380.2849,248.9872 L383.4291,247.988 L386.329,246.4498 L389.455,245.4103 L392.321,243.7976 L392.3963,243.9703 L395.1924,242.2148 L398.3227,241.2254 L401.1691,239.5851 L404.374,238.7667 L407.2837,237.2716 L407.4084,237.5708 L410.2368,235.9529 L413.288,234.8691 L416.2618,233.5998 L419.1728,232.1796 L422.2049,231.0502 L422.2331,231.1214 L425.134,229.8043 L428.0113,228.4276 L431.01,227.3576 L433.9355,226.1026 L437,225.1992 L436.8979,224.9161 L440.6375,224.2067 L443.9653,222.3557 L447.6485,221.4898 L451.1683,220.1709 L454.6777,218.8233 L454.6537,218.749 L458.2983,217.5699 L461.9385,216.377 L465.5549,215.1104 L469.3325,214.3432 L472.9038,212.9367 L472.8533,212.7651 L476.5214,211.7728 L480.1395,210.6101 L483.8572,209.7863 L487.5561,208.8986 L491.128,207.5789 L491.1397,207.6223 L494.6985,206.7544 L498.2784,205.9642 L501.6994,204.5876 L505.1881,203.4614 L508.8,202.7892 " fill="none" style="stroke: #A80036; stroke-width: 1.0;"/><polygon fill="#A80036" points="513.65,201.5392,513.6285,201.4109,511.7377,201.3936,509.7247,200.6479,507.7814,200.3178,505.8968,200.3377,503.937,199.9089,504.0343,200.0736,504.8375,200.3596,505.9106,201.1023,506.8611,201.6377,507.9062,202.3331,508.8078,202.7856,508.7469,202.7496,508.0336,203.6423,507.7918,204.8134,506.9753,205.6451,506.4148,206.6281,505.9312,207.6564,505.9964,207.7387,507.535,206.5087,509.0673,205.2708,510.4573,203.8534,512.0364,202.6745,513.65,201.5392" style="stroke: #A80036; stroke-width: 1.0;"/><path d="M232.5,360.3192 L232.3843,360.2087 L235.5295,363.5036 L238.8505,366.9664 L241.9549,370.2223 L245.1753,373.589 L248.3135,376.8772 L248.0766,376.6436 L250.1195,378.7108 L251.8733,380.493 L253.7208,382.3675 L255.9149,384.5837 L257.6659,386.3631 L257.5273,386.2232 L259.501,388.1763 L261.54,390.1955 L263.6678,392.3042 L266.0482,394.668 L267.8998,396.498 L267.9749,396.5758 L270.0277,398.5454 L272.5345,400.9856 L274.5409,402.9072 L276.9362,405.2318 L278.9536,407.1648 L279.1631,407.3882 L281.4686,409.544 L283.7427,411.6663 L286.1436,413.9238 L288.4235,416.0524 L290.7653,418.2469 L290.7662,418.2479 L293.3602,420.6254 L295.6922,422.7151 L298.3068,425.1153 L300.9788,427.5786 L303.2735,429.6273 L303.3627,429.7287 L305.9138,431.9531 L308.7393,434.4893 L311.2069,436.6188 L313.6478,438.7178 L316.4163,441.1892 L316.3325,441.0904 L318.9993,443.3257 L321.9274,445.8691 L324.6257,448.1416 L327.2825,450.365 L330.132,452.8158 L329.9702,452.617 L332.8911,455.0247 L335.7735,457.3851 L338.8581,459.994 L341.3946,461.9292 L344.3589,464.3903 L344.4822,464.549 L347.1813,466.5262 L350.2502,468.9793 L353.3242,471.4388 L356.2652,473.7272 L359.0353,475.7958 L358.8746,475.5781 L362.1532,478.162 L365.1456,480.3583 L368.2135,482.6568 L371.0202,484.6015 L374.0995,486.9155 L374.1689,487.0151 L377.1043,488.9536 L380.4257,491.4465 L383.4906,493.571 L386.2323,495.2314 L389.4898,497.6325 L389.4569,497.582 L392.5962,499.6343 L395.7017,501.6348 L399.0188,503.9601 L401.9844,505.7457 L405.1445,507.83 L405.2952,508.08 L408.2418,509.6193 L411.3758,511.4693 L414.6985,513.6325 L417.7529,515.3505 L421.0018,517.3912 L421.0054,517.3977 L424.077,518.9268 L427.2466,520.6339 L430.6566,522.7775 L433.7336,524.3164 L437,526.1992 L437.0753,526.3587 L440.1445,527.6975 L443.2109,529.0303 L446.4182,530.6614 L449.5175,532.0641 L452.6834,533.6077 L452.6414,533.5 L455.888,534.6755 L459.1611,535.9187 L462.5403,537.4337 L465.9563,539.0429 L469.13,540.0317 L469.2216,540.3103 L472.49,541.1729 L475.7633,542.0502 L479.1968,543.4152 L482.4272,544.1619 L485.8616,545.5295 L485.886,545.617 L489.0991,546.2048 L492.55,547.6423 L495.759,548.2157 L499.1747,549.5277 L502.4,550.1592 " fill="none" style="stroke: #A80036; stroke-width: 1.0;"/><polygon fill="#A80036" points="507.29,551.3992,507.3675,551.4977,505.7883,550.2401,504.2481,549.0319,502.5733,547.6527,501.2301,546.695,499.5499,545.309,499.634,545.359,500.3193,546.3946,500.8133,547.3163,501.1104,548.1208,501.6555,549.0729,502.4435,550.1697,502.3731,550.0514,501.3529,550.5494,500.4279,551.2073,499.444,551.7664,498.5825,552.531,497.5827,553.0633,497.5799,553.0465,499.5186,552.6977,501.4412,552.2548,503.4106,552.0853,505.3078,551.4942,507.29,551.3992" style="stroke: #A80036; stroke-width: 1.0;"/><path d="M232.63,334.0092 L232.5264,333.512 L242.7565,332.8094 L252.3217,328.9154 L262.4709,327.8246 L272.2318,324.8702 L282.5105,324.4009 L292.2372,321.2819 L302.0457,318.5557 L312.07,316.8653 L322.0716,315.0664 L331.9721,312.7817 L341.8739,310.5031 L352.0169,309.3828 L361.8099,306.5823 L371.7487,304.4816 L381.6949,302.4163 L391.6828,300.5511 L401.5726,298.2154 L411.797,297.4853 L421.6962,295.1945 L431.6823,293.3209 L441.3117,289.7353 L451.4733,288.7041 L461.1712,285.4469 L471.3792,284.6384 L481.1185,281.58 L491.2079,280.2019 L501.14,278.0692 " fill="none" style="stroke: #A80036; stroke-width: 1.0;"/><polygon fill="#A80036" points="506.09,277.0392,506.0865,277.0233,504.1264,276.4424,502.262,276.3013,500.2734,275.5896,498.4063,275.4365,496.466,274.9466,496.5845,275.1268,497.3619,275.4921,498.4786,276.3739,499.2557,276.7387,500.3394,277.5702,501.1938,278.0527,501.1295,278.0105,500.6375,279.041,499.9943,279.972,499.3597,280.9088,498.6085,281.769,498.0876,282.7805,498.1222,282.8286,499.6828,281.6248,501.1698,280.3183,502.9249,279.3857,504.3836,278.0399,506.09,277.0392" style="stroke: #A80036; stroke-width: 1.0;"/><path d="M232.63,338.1992 L232.63,337.6703 L242.6856,337.3061 L252.7412,337.2523 L262.7968,338.1851 L272.8524,339.1124 L282.908,337.7675 L292.9636,338.3751 L303.0192,338.8396 L313.0748,338.0495 L323.1304,338.7458 L333.186,338.0472 L343.2416,338.7374 L353.2972,337.7049 L363.3528,338.6172 L373.4084,337.6365 L383.464,338.3634 L393.5196,338.2601 L403.5752,337.5225 L413.6308,338.3153 L423.6864,338.0236 L433.742,338.8104 L443.7976,337.4949 L453.8532,337.3925 L463.9088,338.2965 L473.9644,337.512 L484.02,338.1992 " fill="none" style="stroke: #A80036; stroke-width: 1.0;"/><polygon fill="#A80036" points="489.25,338.1992,489.1606,337.998,487.5226,337.5625,485.6762,336.6581,483.8316,335.7579,482.1071,335.1277,480.25,334.1992,480.09,334.0393,481.2007,335.1499,481.7374,335.6866,482.5619,336.5111,483.5211,337.4704,484.25,338.1992,484.2178,338.167,483.4116,338.9608,482.7366,339.8858,481.7512,340.5005,481.0363,341.3855,480.25,342.1992,480.1914,342.0674,482.1094,341.5329,483.8519,340.6035,485.7421,340.0065,487.3639,338.8054,489.25,338.1992" style="stroke: #A80036; stroke-width: 1.0;"/><path d="M232.63,342.4492 L232.5603,342.1192 L242.5933,345.186 L252.3719,347.0477 L262.0501,348.4341 L271.9358,350.8029 L281.9104,353.5935 L291.5971,355.0198 L301.5315,357.6198 L311.259,359.2396 L321.0809,361.3061 L330.7435,362.6188 L340.5446,364.5868 L350.6889,368.181 L360.2305,368.9202 L370.0826,371.1304 L380.0894,374.0732 L389.9773,376.4524 L399.6073,377.6105 L409.583,380.4059 L419.3123,382.034 L428.9473,383.2157 L439.0605,386.6627 L448.7859,388.2724 L458.6863,390.711 L468.458,392.54 L478.111,393.8068 L487.9993,396.1886 L497.86,398.4392 " fill="none" style="stroke: #A80036; stroke-width: 1.0;"/><polygon fill="#A80036" points="502.82,399.4892,502.7233,399.3553,501.3227,398.473,499.5676,397.0999,497.9774,395.9551,496.4979,394.9635,494.8371,393.7209,494.6839,393.621,495.4467,394.6631,496.0055,395.5721,496.5401,396.4653,497.2685,397.485,497.9273,398.4592,497.8183,398.2921,496.9452,399.0245,496.0522,399.7263,495.0621,400.2792,494.0167,400.7474,493.189,401.5493,493.1549,401.3896,495.0717,400.934,497.0266,400.6562,498.9563,400.2606,500.9172,400.0106,502.82,399.4892" style="stroke: #A80036; stroke-width: 1.0;"/><path d="M417.22,620.2192 L417.2162,620.0211 L423.1194,620.2554 L429.0191,620.3038 L434.9047,619.6295 L440.8003,619.4657 L446.7025,619.6465 L446.6979,619.4063 L447.4201,619.4639 L448.1389,619.3442 L448.8715,619.9358 L449.5852,619.5533 L450.3068,619.5765 L450.302,619.3296 L450.6688,619.7396 L451.0242,619.5599 L451.3858,619.6987 L451.7385,619.3825 L452.1004,619.5416 L452.0958,619.3045 L452.276,619.3649 L452.464,619.8296 L452.6412,619.7379 L452.8099,619.2073 L452.995,619.5243 " fill="none" style="stroke: #A80036; stroke-width: 1.0; stroke-dasharray: 7.0,7.0;"/></g></svg>