<?xml version="1.0" encoding="UTF-8" standalone="no"?><svg xmlns="http://www.w3.org/2000/svg" xmlns:xlink="http://www.w3.org/1999/xlink" contentScriptType="application/ecmascript" contentStyleType="text/css" height="436px" preserveAspectRatio="none" style="width:418px;height:436px;" version="1.1" viewBox="0 0 418 436" width="418px" zoomAndPan="magnify"><defs><filter height="300%" id="f3mqica" width="300%" x="-1" y="-1"><feGaussianBlur result="blurOut" stdDeviation="2.0"/><feColorMatrix in="blurOut" result="blurOut2" type="matrix" values="0 0 0 0 0 0 0 0 0 0 0 0 0 0 0 0 0 0 .4 0"/><feOffset dx="4.0" dy="4.0" in="blurOut2" result="blurOut3"/><feBlend in="SourceGraphic" in2="blurOut3" mode="normal"/></filter></defs><g><text fill="#000000" font-family="sans-serif" font-size="18" lengthAdjust="spacingAndGlyphs" textLength="198" x="118.5" y="17.4023">ユースケース：ログ管理</text><!--cluster アクセス制限--><polygon fill="#FFFFFF" filter="url(#f3mqica)" points="106,45.1992,106,45.281,116,45.0855,126,45.6388,136,45.3606,146,45.5288,156,45.6248,166,45.5124,176,45.5562,186,45.9398,196,45.1992,195.8048,45.1385,197.427,49.7053,198.9061,54.2276,200.032,58.6399,201.5604,63.1775,203,67.6875,203,67.1503,212.8462,67.7225,222.6923,68.0677,232.5385,67.051,242.3846,67.5105,252.2308,66.9406,262.0769,67.3966,271.9231,67.4952,281.7692,68.2779,291.6154,68.4358,301.4615,67.033,311.3077,68.2684,321.1538,68.4364,331,67.6875,330.8866,67.6875,331.1744,77.7295,331.4069,87.7715,331.6055,97.8135,331.1586,107.8555,331.5677,117.8975,330.5708,127.9395,330.6216,137.9814,331.0328,148.0234,330.5405,158.0654,330.3813,168.1074,331.0707,178.1494,331.0613,188.1914,331.1267,198.2334,331.2167,208.2754,330.4992,218.3174,331.515,228.3594,331.5665,238.4014,330.478,248.4434,330.947,258.4854,331.5791,268.5273,330.9434,278.5693,330.9064,288.6113,331.1325,298.6533,330.2781,308.6953,331.4813,318.7373,330.996,328.7793,330.3164,338.8213,331.3312,348.8633,331.2907,358.9053,331.1457,368.9473,331.3389,378.9893,331.5646,389.0313,331.452,399.0732,331.2541,409.1152,330.8677,419.1572,331,429.1992,331,428.5144,321.2174,429.1383,311.4348,428.8491,301.6522,429.9007,291.8696,429.6672,282.087,428.7139,272.3043,429.7923,262.5217,429.2511,252.7391,428.5618,242.9565,429.0727,233.1739,428.7563,223.3913,429.763,213.6087,428.9861,203.8261,428.6699,194.0435,428.8157,184.2609,429.6402,174.4783,428.8541,164.6957,429.3488,154.913,429.7295,145.1304,428.6167,135.3478,429.4291,125.5652,429.5729,115.7826,428.7006,106,429.1992,105.4485,429.1992,105.4101,419.094,106.0757,408.9887,105.6402,398.8834,106.4019,388.7782,105.6443,378.6729,106.3606,368.5676,105.3336,358.4624,106.1952,348.3571,105.9783,338.2519,105.5366,328.1466,106.5475,318.0413,105.762,307.9361,106.0676,297.8308,105.7033,287.7255,105.5471,277.6203,105.4267,267.515,105.7049,257.4097,106.3979,247.3045,106.6258,237.1992,105.7352,227.094,106.0254,216.9887,105.5818,206.8834,105.6729,196.7782,105.5186,186.6729,106.0506,176.5676,106.5562,166.4624,105.2946,156.3571,105.4635,146.2519,106.6248,136.1466,106.7081,126.0413,105.7285,115.9361,106.2255,105.8308,106.577,95.7255,105.8234,85.6203,105.453,75.515,106.65,65.4097,106.6173,55.3045,106,45.1992" style="stroke: #000000; stroke-width: 2.0;"/><path d="M106,67.6875 L106,68.4212 L115.7,67.9556 L125.4,67.6301 L135.1,68.402 L144.8,68.3016 L154.5,68.3977 L164.2,67.4305 L173.9,67.9936 L183.6,67.0686 L193.3,67.2951 L203,67.6875 " fill="#FFFFFF" style="stroke: #000000; stroke-width: 2.0;"/><text fill="#000000" font-family="sans-serif" font-size="14" font-weight="bold" lengthAdjust="spacingAndGlyphs" textLength="84" x="110" y="60.7344">アクセス制限</text><polygon fill="#FEFECE" filter="url(#f3mqica)" points="295.63,398.086,291.8597,400.633,288.4578,403.5506,283.056,406.2011,273.5035,407.9927,263.9138,409.7756,252.2954,410.9922,243.4722,412.6593,230.2145,413.0181,219.3694,413.5637,204.9479,412.8398,195.6254,412.7832,182.433,411.2738,172.3252,409.8779,161.576,407.7129,155.2573,405.9411,149.3079,403.6333,144.3125,400.9476,142.4795,398.431,139.3254,395.101,140.535,392.3329,142.7499,389.4271,148.8203,387.125,153.4523,384.2969,163.5993,382.6426,172.2214,380.6364,183.9179,379.4378,192.8931,377.8058,207.3172,377.7161,219.1729,377.4035,229.6399,377.2153,241.1642,377.7797,253.4515,379.0804,264.9632,380.8001,272.5708,382.2405,280.4325,384.3682,287.7941,387.0017,294.2804,390.0313,295.6314,392.4367,295.1212,394.9215" style="stroke: #A80036; stroke-width: 1.5;"/><text fill="#000000" font-family="sans-serif" font-size="14" lengthAdjust="spacingAndGlyphs" textLength="126" x="155.2871" y="400.0008">ログを全て削除する</text><polygon fill="#FEFECE" filter="url(#f3mqica)" points="303.0264,326.7069,298.7057,329.3615,293.4664,332.1105,285.8931,334.5332,276.8685,336.7292,268.7579,339.1341,257.491,340.7129,243.6232,341.4903,233.1226,342.7328,219.2371,342.808,206.6889,342.7148,194.3,342.1157,179.2135,340.3031,170.4708,339.3025,159.8871,337.2194,149.9853,334.6218,143.8941,332.2329,137.137,329.0544,137.0707,326.8076,134.8843,323.5341,134.7431,320.2539,138.6173,317.4973,143.8692,314.7513,148.9586,311.761,157.5617,309.4686,170.2239,308.1038,179.1949,306.0004,192.8897,305.1834,204.4759,304.189,217.9062,304.0098,232.921,304.6666,245.5759,305.3265,258.3523,306.6113,269.5751,308.1785,279.8746,310.1967,286.2578,311.9903,293.3872,314.6164,299.717,317.6973,301.3468,320.3014,303.8909,323.6566" style="stroke: #A80036; stroke-width: 1.5;"/><text fill="#000000" font-family="sans-serif" font-size="14" lengthAdjust="spacingAndGlyphs" textLength="140" x="148.7351" y="328.1904">ログの一覧を表示する</text><polygon fill="#FEFECE" filter="url(#f3mqica)" points="285.5419,255.6676,283.4178,258.1575,276.9634,259.8762,272.2846,262.1838,264.6486,263.8801,256.679,265.4977,248.2248,266.915,239.9691,268.2089,228.6974,268.5418,219.4041,269.0177,208.6153,268.7518,198.2962,268.1513,187.7005,266.9951,178.4925,265.6427,170.3936,264.0081,164.9932,262.4595,159.9365,260.4482,154.4362,257.8089,153.1549,255.674,150.4497,252.758,153.3209,250.7678,155.7753,248.3557,160.0548,246.1241,164.0633,243.6586,171.615,241.9424,180.2868,240.4904,189.2872,239.2019,198.0315,238.0231,207.9315,237.3668,217.7758,237.0208,229.4978,237.5068,239.7922,238.1015,247.9271,238.6774,257.8624,240.2013,266.2551,241.9052,272.3258,243.6119,279.48,246.1177,282.1543,248.0906,283.6904,250.2856,285.0766,252.8906" style="stroke: #A80036; stroke-width: 1.5;"/><text fill="#000000" font-family="sans-serif" font-size="14" lengthAdjust="spacingAndGlyphs" textLength="98" x="169.5324" y="257.7498">ログを検索する</text><polygon fill="#FEFECE" filter="url(#f3mqica)" points="312.2511,183.428,312.2914,187.5457,303.077,189.9256,296.0609,193.0335,285.0684,195.3656,274.7092,197.8401,263.4501,199.9939,248.0774,200.9892,232.7959,201.6617,219.4308,202.3206,204.8496,202.1714,188.0016,200.9008,174.0508,199.608,160.2947,197.6398,151.6478,196.0735,140.9171,193.2826,134.2393,190.6562,128.523,187.5269,123.4999,183.8797,123.8543,180.8299,121.4509,176.6254,127.1586,173.8003,132.081,170.4552,139.9892,167.5479,148.8989,164.7475,160.7413,162.6065,176.3947,161.4407,187.1602,159.4096,204.5655,159.2146,218.0185,158.5755,233.4728,158.9209,250.2401,160.1734,261.5159,160.8648,273.6102,162.4593,286.9214,165.0743,296.1694,167.5318,306.5305,170.9864,309.2974,173.4526,314.1843,177.0691,316.5738,180.7359" style="stroke: #A80036; stroke-width: 1.5;"/><text fill="#000000" font-family="sans-serif" font-size="14" lengthAdjust="spacingAndGlyphs" textLength="168" x="134.5689" y="185.1571">一覧の表示件数を変更する</text><polygon fill="#FEFECE" filter="url(#f3mqica)" points="315.7429,106.2132,311.986,109.477,305.629,112.4994,296.5363,115.1404,286.6425,117.7195,276.5738,120.2593,262.6093,121.8049,247.5551,122.8717,232.0586,123.4959,219.3372,124.2995,204.0964,124.0021,189.0933,123.1463,175.5589,121.9471,160.1158,119.5995,150.2387,117.7567,142.1662,115.5635,133.0418,112.387,124.8654,108.7045,123.6439,105.9121,121.7502,102.3568,122.6929,98.9047,124.9903,95.3127,132.605,92.573,141.0432,89.7849,151.6924,87.3756,160.4763,84.5469,175.8433,83.3168,187.9641,81.5903,203.5862,80.9944,218.7229,80.7338,234.4506,81.1408,250.2053,82.1655,263.6602,83.3469,274.8257,84.7326,287.7006,87.2495,298.3476,90.0216,306.018,92.8712,311.3108,95.9053,312.476,98.685,313.553,102.0566" style="stroke: #A80036; stroke-width: 1.5;"/><text fill="#000000" font-family="sans-serif" font-size="14" lengthAdjust="spacingAndGlyphs" textLength="168" x="134.5689" y="107.1571">一覧のページを切り替える</text><!--entity 管理者--><polygon fill="#FEFECE" filter="url(#f3mqica)" points="403.434,223.1461,403.1568,224.6471,402.8034,226.4921,400.368,227.832,398.7691,229.5963,397.1116,230.0454,394.4425,229.8579,393.032,228.9121,390.9983,228.0597,389.4726,226.6893,388.6299,224.4889,387.7108,222.9991,387.6925,221.3968,388.1908,219.0102,389.273,216.5716,391.284,215.4773,393.5765,214.123,396.2886,213.8462,398.291,214.434,400.3104,214.5943,401.7374,216.1917,402.6625,218.2004,403.2102,219.5378,403.7037,221.2395,403.8305,223.9587" style="stroke: #A80036; stroke-width: 2.0;"/><path d="M396,229.6992 L396.3958,229.6992 L395.7213,235.0992 L396.0379,240.4992 L395.798,245.8992 L396.2636,251.2992 L396,256.6992 M383,237.6992 L383,237.191 L388.2,238.0904 L393.4,237.9305 L398.6,237.3959 L403.8,237.7261 L409,237.6992 M396,256.6992 L396.1354,256.8166 L393.1086,259.4467 L391.2893,263.1233 L387.9949,265.5214 L386.08,269.1152 L383,271.6992 M396,256.6992 L396.4379,257.0787 L398.7408,259.8213 L401.5481,263.0009 L404.0634,265.9275 L406.6632,268.9273 L409,271.6992 " fill="#FEFECE" style="stroke: #A80036; stroke-width: 2.0;"/><text fill="#000000" font-family="sans-serif" font-size="14" lengthAdjust="spacingAndGlyphs" textLength="42" x="375" y="292.2344">管理者</text><!--entity ユーザー--><polygon fill="#FEFECE" filter="url(#f3mqica)" points="41.6427,187.2778,41.5152,189.3665,40.195,190.9131,38.5117,192.4849,37.2815,193.2146,35.2448,193.7665,32.7561,193.7889,30.437,193.2497,29.256,191.6637,27.1901,190.3607,26.7459,188.2167,25.7919,186.0851,25.8311,184.2063,26.361,182.7909,27.5527,180.1831,28.9688,178.9996,31.136,177.7952,33.9662,177.603,36.3023,177.9872,38.3101,178.6181,39.7974,179.6506,40.3728,181.1742,41.4711,183.2543,41.49,185.1313,42.301,187.0884" style="stroke: #A80036; stroke-width: 2.0;"/><path d="M34,193.6992 L33.9043,193.6992 L34.2528,199.0992 L34.3309,204.4992 L33.5587,209.8992 L33.7942,215.2992 L34,220.6992 M21,201.6992 L21,201.4132 L26.2,201.586 L31.4,201.8744 L36.6,202.2927 L41.8,201.6664 L47,201.6992 M34,220.6992 L33.7968,220.5231 L30.9018,223.2675 L29.2341,227.0754 L25.9733,229.5027 L23.1944,232.3477 L21,235.6992 M34,220.6992 L34.3124,220.97 L36.2429,223.3898 L38.8857,226.4268 L41.6272,229.5495 L44.0866,232.4276 L47,235.6992 " fill="#FEFECE" style="stroke: #A80036; stroke-width: 2.0;"/><text fill="#000000" font-family="sans-serif" font-size="14" lengthAdjust="spacingAndGlyphs" textLength="56" x="6" y="256.2344">ユーザー</text><path d="M290.62,384.3892 L290.6153,384.3755 L293.1586,383.4148 L295.7523,382.6023 L298.268,381.5603 L300.8567,380.7331 L303.4823,380.0147 L303.559,380.1928 L305.8729,378.6385 L308.6393,378.1358 L311.0669,376.8456 L313.4342,375.4154 L316.0663,374.6005 L316.0158,374.5086 L318.5812,373.5123 L320.807,371.8978 L323.2498,370.6783 L325.5958,369.2828 L328.022,368.0331 L327.8768,367.8296 L330.3793,366.6929 L332.3118,364.7574 L334.6666,363.4137 L336.9508,361.9711 L339,360.1992 L338.9026,360.0923 L340.4658,358.8417 L341.9542,357.5089 L343.6536,356.4079 L344.9199,354.8313 L346.3848,353.4728 L346.482,353.5611 L347.9647,352.1838 L348.8798,350.2904 L350.6036,349.1323 L351.6541,347.362 L353.1688,346.0138 L353.235,346.0649 L354.3902,344.3926 L355.8873,342.9843 L356.7832,341.1118 L358.1362,339.5922 L359.3695,337.9803 L359.1426,337.8289 L360.513,336.3012 L361.5316,334.539 L362.9817,333.0644 L364.1112,331.376 L365.005,329.5305 L365.1633,329.6177 L366.8468,325.979 L368.7073,322.4379 L370.6342,318.9333 L372.8121,315.5669 L374.6513,312.0141 L374.9156,312.1303 L376.383,308.6503 L377.9738,305.2246 L379.2317,301.6525 L380.653,298.1522 L382.25,294.7292 " fill="none" style="stroke: #A80036; stroke-width: 1.0;"/><polygon fill="#A80036" points="285.79,385.7792,285.7791,385.7011,287.7247,385.9327,289.6648,386.1241,291.6309,386.5034,293.5942,386.8626,295.5453,387.1337,295.5094,387.0688,294.5493,386.5756,293.6708,386.2299,292.5083,385.3704,291.5924,384.9571,290.5949,384.3962,290.4565,384.3196,290.9972,383.3258,291.674,382.4073,292.2196,381.4162,292.8041,380.4465,293.3324,379.4458,293.4891,379.6325,291.8354,380.7261,290.3428,382.0117,288.8291,383.2722,287.2045,384.4006,285.79,385.7792" style="stroke: #A80036; stroke-width: 1.0;"/><path d="M279.48,307.5992 L279.5624,307.863 L282.3948,306.5222 L285.4998,306.0539 L288.4437,305.0701 L291.3395,303.9324 L294.2911,302.973 L294.3825,303.2428 L297.2552,301.7632 L300.304,300.803 L303.2941,299.6699 L306.4182,298.9319 L309.4238,297.8442 L309.4047,297.7931 L312.3409,296.4797 L315.4184,295.5455 L318.5495,294.7553 L321.468,293.3944 L324.4645,292.243 L324.395,292.0757 L327.3943,291.0888 L330.211,289.6627 L333.1205,288.4596 L336.0357,287.2704 L339,286.1992 L339.0321,286.2667 L340.9791,285.5317 L342.6467,284.2095 L344.4872,283.2507 L346.3987,282.441 L348.3634,281.7433 L348.5154,282.0291 L350.2847,280.8653 L351.9356,279.4788 L353.8197,278.5308 L355.847,277.8522 L357.6725,276.7942 L357.6999,276.8404 L361.0125,274.5926 L364.5445,272.7151 L368.1184,270.9083 L371.5554,268.8705 L374.86,266.6092 " fill="none" style="stroke: #A80036; stroke-width: 1.0;"/><polygon fill="#A80036" points="274.61,309.0392,274.6296,309.1902,276.5669,309.3191,278.5168,309.5455,280.4453,309.607,282.4379,310.1621,284.3771,310.3057,284.2728,310.1131,283.3231,309.6581,282.4822,309.4042,281.4563,308.8085,280.5162,308.3713,279.4023,307.613,279.3511,307.5852,280.0423,306.6729,280.565,305.6693,281.1769,304.7141,281.7638,303.7453,282.0951,302.6381,282.052,302.5878,280.4808,303.7812,279.1406,305.2448,277.7241,306.6192,276.0717,307.7177,274.61,309.0392" style="stroke: #A80036; stroke-width: 1.0;"/><path d="M291.07,253.1992 L291.07,253.3009 L301.5338,253.6809 L311.9975,253.2712 L322.4613,252.9891 L332.925,253.7849 L343.3887,253.0186 L353.8525,252.7422 L364.3162,253.1772 L374.78,253.1992 " fill="none" style="stroke: #A80036; stroke-width: 1.0;"/><polygon fill="#A80036" points="285.85,253.1992,285.8499,253.199,287.6272,253.9479,289.4679,254.8394,291.3028,255.7181,292.9704,256.2202,294.85,257.1992,294.7787,257.1279,294.1367,256.486,293.111,255.4602,292.6177,254.967,291.5043,253.8535,290.85,253.1992,290.9868,253.336,291.6589,252.4081,292.2934,251.4427,293.267,250.8162,294.1227,250.0719,294.85,249.1992,294.831,249.1565,293.0131,249.9161,291.2159,250.7225,289.3803,251.4423,287.6981,252.5075,285.85,253.1992" style="stroke: #A80036; stroke-width: 1.0;"/><path d="M284.8,198.5092 L284.7467,198.351 L287.5803,199.6005 L290.2257,200.2908 L292.914,201.1085 L295.7484,202.3605 L298.4072,203.0906 L298.308,202.817 L301.0683,203.8291 L303.9664,205.2213 L306.6445,206.0066 L309.4998,207.2805 L312.185,208.0855 L312.1638,208.0318 L314.7909,208.8542 L317.7015,210.3953 L320.2702,211.0697 L323.0891,212.3783 L325.8203,213.4647 L325.7215,213.2375 L328.3811,214.4388 L331.0286,215.6124 L333.6167,216.6493 L336.4585,218.2693 L339,219.1992 L339.0082,219.2159 L340.7508,219.8718 L342.7135,220.9741 L344.7468,222.2195 L346.4337,222.7624 L348.375,223.8213 L348.3831,223.8361 L350.2783,224.9175 L352.0827,225.8336 L353.9195,226.8087 L355.9245,228.0902 L357.69,228.9355 L357.6978,228.9485 L359.5279,230.0803 L361.2804,231.0811 L363.0829,232.1664 L364.7493,233.0221 L366.63,234.2391 L366.6221,234.2265 L368.2761,235.2709 L369.7735,236.0663 L371.6279,237.4293 L373.3978,238.6579 L374.88,239.4292 " fill="none" style="stroke: #A80036; stroke-width: 1.0;"/><polygon fill="#A80036" points="279.8,196.8992,279.6485,196.7297,281.372,198.3269,282.595,199.3638,284.1897,200.8169,285.5579,202.0163,287.1449,203.4607,286.9939,203.3832,286.5433,202.4108,285.9952,201.3885,285.4818,200.3838,285.1489,199.472,284.5603,198.4288,284.5871,198.4811,285.67,198.1131,286.4829,197.2195,287.626,196.9687,288.5698,196.3301,289.5922,195.8442,289.5844,195.7721,287.6229,195.9545,285.701,196.5042,283.7042,196.3597,281.7321,196.444,279.8,196.8992" style="stroke: #A80036; stroke-width: 1.0;"/><path d="M297.59,117.8092 L297.48,117.5425 L299.805,118.7187 L302.0369,119.6691 L304.2625,120.6041 L306.5401,121.6654 L308.6756,122.3822 L308.601,122.2331 L310.7567,123.3194 L312.9645,124.5099 L315.2646,125.8848 L317.2618,126.6541 L319.4275,127.7605 L319.4351,127.7729 L321.5579,129.1625 L323.5715,130.3743 L325.3818,131.2545 L327.6054,132.8086 L329.6131,134.0106 L329.5418,133.9175 L331.2909,135.1877 L333.1888,136.6523 L335.1989,138.2632 L337.0043,139.607 L339,141.1992 L338.7894,140.9792 L340.5573,142.6921 L342.2922,144.3705 L343.6847,145.6913 L344.9355,146.864 L346.6626,148.5342 L346.7253,148.5884 L347.9473,150.0546 L349.2986,151.6324 L350.7606,153.3059 L352.42,155.1502 L353.6673,156.6381 L353.7501,156.6987 L354.9539,158.3872 L356.3357,160.206 L357.4298,161.8141 L358.9384,163.7257 L360.0363,165.3366 L360.1869,165.4317 L361.0003,167.0424 L362.1335,168.8549 L363.764,170.9813 L364.6359,172.629 L365.7913,174.4555 L366.0304,174.5873 L366.7173,176.2697 L367.8331,178.1886 L368.9906,180.1304 L370.158,182.0778 L370.9542,183.8204 L371.2173,183.9485 L371.8722,185.7075 L372.8764,187.6365 L373.5815,189.42 L374.3641,191.2412 L375.547,193.2572 L375.4548,193.2192 L377.3278,197.0459 L378.8584,200.7317 L380.1879,204.3348 L381.8763,208.0855 L383.11,211.6492 " fill="none" style="stroke: #A80036; stroke-width: 1.0;"/><polygon fill="#A80036" points="292.53,115.9892,292.5504,116.0105,293.9819,117.3864,295.346,118.6921,296.6367,119.9215,298.3217,121.5613,299.6328,122.8119,299.4933,122.7465,299.2773,121.846,298.4521,120.6598,298.1275,119.7084,297.7044,118.7107,297.2319,117.6899,297.2097,117.6426,298.1854,117.0585,299.2695,116.7056,300.2212,116.0702,301.4324,115.9886,302.3539,115.2889,302.3455,115.1707,300.3926,115.4768,298.4384,115.7664,296.4569,115.6716,294.4892,115.7712,292.53,115.9892" style="stroke: #A80036; stroke-width: 1.0;"/><path d="M62.03,253.8692 L62.1464,253.9754 L63.7633,255.7445 L65.0215,257.1861 L66.7005,259.0117 L68.691,261.1218 L70.0536,262.6586 L70.1591,262.7662 L71.8782,264.4499 L73.6221,266.1587 L75.4278,267.9307 L77.0097,269.4743 L78.7963,271.2267 L79.0093,271.4767 L80.7448,272.9128 L82.5462,274.4262 L84.3818,275.9797 L86.1948,277.5067 L88.1483,279.1986 L87.9736,278.9528 L90.208,280.7244 L92.2497,282.225 L93.988,283.2986 L96.1301,284.9404 L98,286.1992 L97.9256,286.0692 L100.599,287.8482 L102.8128,288.8234 L105.369,290.3974 L107.9872,292.08 L110.302,293.2319 L110.3009,293.2295 L113.0146,294.6832 L115.4043,295.4484 L118.0289,296.7129 L120.76,298.2038 L123.3363,299.3655 L123.2774,299.2162 L126.0926,300.6074 L128.7515,301.602 L131.3873,302.5379 L134.0237,303.4756 L136.7548,304.6534 L136.7225,304.5567 L139.4177,305.4683 L142.2033,306.6505 L144.9036,307.5772 L147.5802,308.4334 L150.21,309.1492 " fill="none" style="stroke: #A80036; stroke-width: 1.0;"/><polygon fill="#A80036" points="155.21,310.6392,155.3583,310.8127,153.5982,309.2247,152.0937,307.9358,150.8433,306.9439,149.063,305.3325,147.7249,304.2381,147.8156,304.2872,148.264,305.2333,148.8283,306.2422,149.5395,307.3307,149.8103,308.1807,150.4177,309.213,150.3054,309.0054,149.3709,309.6557,148.4613,310.352,147.3973,310.7629,146.505,311.4911,145.4429,311.9057,145.4307,311.8119,147.3914,311.6143,149.3315,311.2583,151.3308,311.3588,153.2324,310.7062,155.21,310.6392" style="stroke: #A80036; stroke-width: 1.0;"/><path d="M62.32,222.5892 L62.2719,222.3455 L72.3179,225.2384 L82.173,227.1634 L91.8869,228.3732 L101.9375,231.2893 L111.741,232.9531 L121.5936,234.8657 L131.5018,237.0599 L141.2832,238.6114 L151.0384,240.0303 L160.91,242.0392 " fill="none" style="stroke: #A80036; stroke-width: 1.0;"/><polygon fill="#A80036" points="166.11,243.0592,165.999,242.9009,164.4368,241.8434,162.9529,240.8977,161.2003,239.5687,159.6122,238.4743,158.0438,237.408,158.0906,237.4395,158.7584,238.4023,159.1511,239.1799,159.9249,240.214,160.6139,241.191,161.2027,242.1007,161.1917,242.0842,160.1333,242.5379,159.4572,243.5596,158.3748,243.9777,157.4096,244.5698,156.5101,245.2596,156.5552,245.4563,158.3785,244.5945,160.3345,244.3117,162.2675,243.9281,164.1959,243.5249,166.11,243.0592" style="stroke: #A80036; stroke-width: 1.0;"/><path d="M62.32,211.6592 L62.4406,212.2538 L72.287,210.0784 L81.9924,207.2074 L91.9002,205.3346 L101.7717,203.2827 L111.5702,200.8709 L121.5592,199.3986 L131.2971,196.6877 L141.37,195.6292 " fill="none" style="stroke: #A80036; stroke-width: 1.0;"/><polygon fill="#A80036" points="146.58,194.5792,146.587,194.6109,144.6321,194.0453,142.7184,193.6663,140.8063,193.2947,138.8453,192.7009,136.9619,192.4596,136.9503,192.4421,137.8647,193.0214,138.7133,193.5012,139.784,194.3171,140.8361,195.1048,141.681,195.579,141.4753,195.4431,140.9378,196.444,140.5648,197.5536,139.7385,198.3636,139.0973,199.296,138.5616,200.2981,138.6166,200.3752,140.2187,199.2292,141.8894,198.1794,143.3964,196.9001,144.926,195.6525,146.58,194.5792" style="stroke: #A80036; stroke-width: 1.0;"/><path d="M62.12,176.0892 L62.1929,176.1501 L63.671,174.1658 L65.223,172.2432 L66.8018,170.343 L68.6418,168.6608 L70.0353,166.6059 L69.8105,166.3947 L71.8705,164.8535 L73.3226,162.7412 L75.0877,160.923 L76.8825,159.1326 L78.71,157.373 L78.7695,157.4377 L80.7031,155.7874 L82.607,154.1049 L84.3581,152.2562 L86.3709,150.6921 L88.0597,148.7756 L88.1339,148.873 L89.9731,147.1624 L92.1778,145.9314 L94.0746,144.2964 L95.9468,142.6291 L98,141.1992 L97.9726,141.1548 L100.2986,140.0716 L102.2882,138.4432 L104.3887,136.9945 L106.5009,135.5648 L108.8433,134.5081 L108.7519,134.3307 L111.107,133.2495 L113.4164,132.0797 L115.8897,131.2282 L117.9177,129.5118 L120.3513,128.583 L120.2567,128.3663 L122.7493,127.5777 L124.9958,126.2251 L127.4725,125.4 L129.7856,124.1998 L132.2661,123.3834 L132.1514,123.077 L134.6091,122.2941 L137.1394,121.7052 L139.6068,120.9484 L142.0149,120.0332 L144.33,118.8692 " fill="none" style="stroke: #A80036; stroke-width: 1.0;"/><polygon fill="#A80036" points="149.31,117.1992,149.3076,117.1735,147.3312,116.8298,145.3894,116.8627,143.4396,116.8078,141.4578,116.4061,139.5027,116.2949,139.4815,116.252,140.4452,116.6512,141.6307,117.499,142.4497,117.6054,143.5657,118.3128,144.5738,118.8018,144.5496,118.7898,143.924,119.7426,143.6157,120.8523,142.955,121.7877,142.4357,122.7931,142.0669,123.8728,142.0515,123.8561,143.6016,122.6315,145.1034,121.3546,146.3016,119.748,147.8939,118.5693,149.31,117.1992" style="stroke: #A80036; stroke-width: 1.0;"/></g></svg>