<?xml version="1.0" encoding="UTF-8" standalone="no"?><svg xmlns="http://www.w3.org/2000/svg" xmlns:xlink="http://www.w3.org/1999/xlink" contentScriptType="application/ecmascript" contentStyleType="text/css" height="433px" preserveAspectRatio="none" style="width:642px;height:433px;" version="1.1" viewBox="0 0 642 433" width="642px" zoomAndPan="magnify"><defs><filter height="300%" id="fq1xoii" width="300%" x="-1" y="-1"><feGaussianBlur result="blurOut" stdDeviation="2.0"/><feColorMatrix in="blurOut" result="blurOut2" type="matrix" values="0 0 0 0 0 0 0 0 0 0 0 0 0 0 0 0 0 0 .4 0"/><feOffset dx="4.0" dy="4.0" in="blurOut2" result="blurOut3"/><feBlend in="SourceGraphic" in2="blurOut3" mode="normal"/></filter></defs><g><text fill="#000000" font-family="sans-serif" font-size="18" lengthAdjust="spacingAndGlyphs" textLength="252" x="208.5" y="17.4023">ユースケース：インストーラー</text><!--cluster インストーラー--><polygon fill="#FFFFFF" filter="url(#fq1xoii)" points="92,45.1992,92,45.695,102.4,44.9334,112.8,44.9813,123.2,44.6399,133.6,45.5361,144,44.7477,154.4,44.4953,164.8,45.0939,175.2,45.0019,185.6,44.5258,196,45.1992,195.8708,45.159,197.5815,49.7534,199.0088,54.2595,200.3068,58.7254,201.8113,63.2556,203,67.6875,203,68.2449,213.0465,67.3883,223.093,68.0055,233.1395,67.4189,243.186,67.2756,253.2326,67.3505,263.2791,68.1061,273.3256,67.4673,283.3721,67.6144,293.4186,68.0376,303.4651,68.3596,313.5116,67.1937,323.5581,67.4641,333.6047,67.9861,343.6512,68.3254,353.6977,68.0842,363.7442,67.5744,373.7907,68.3978,383.8372,68.1898,393.8837,68.2143,403.9302,68.1084,413.9767,67.0213,424.0233,67.7845,434.0698,68.3004,444.1163,67.8283,454.1628,67.2563,464.2093,66.9829,474.2558,66.9718,484.3023,67.8125,494.3488,67.6459,504.3953,67.3444,514.4419,67.1912,524.4884,67.7036,534.5349,67.0739,544.5814,67.6744,554.6279,68.2227,564.6744,67.4202,574.7209,67.9057,584.7674,68.3543,594.814,68.0368,604.8605,67.3328,614.907,67.4901,624.9535,68.3754,635,67.6875,635.3583,67.6875,634.4302,77.6462,635.2077,87.6048,634.7927,97.5635,635.3956,107.5221,635.167,117.4808,635.2741,127.4395,634.4858,137.3981,634.8866,147.3568,635.7369,157.3154,635.0528,167.2741,634.9283,177.2327,635.214,187.1914,635.7139,197.1501,634.4409,207.1087,634.8694,217.0674,634.3418,227.026,634.7136,236.9847,634.3401,246.9434,634.8021,256.902,634.3493,266.8607,635.08,276.8193,634.4406,286.778,634.4511,296.7367,634.6234,306.6953,634.3441,316.654,634.278,326.6126,634.5146,336.5713,635.0689,346.5299,635.0863,356.4886,635.5175,366.4473,634.7851,376.4059,634.3294,386.3646,634.6691,396.3232,634.4963,406.2819,635.3685,416.2406,635,426.1992,635,426.354,624.9444,425.9839,614.8889,425.595,604.8333,425.9051,594.7778,426.4093,584.7222,426.578,574.6667,426.7167,564.6111,425.677,554.5556,426.5008,544.5,425.4704,534.4444,426.2135,524.3889,426.435,514.3333,426.8813,504.2778,426.8923,494.2222,426.2583,484.1667,426.4658,474.1111,426.5089,464.0556,426.1969,454,426.041,443.9444,426.9339,433.8889,426.3541,423.8333,426.6846,413.7778,425.6485,403.7222,425.7946,393.6667,426.0885,383.6111,426.3009,373.5556,426.3192,363.5,426.291,353.4444,426.7461,343.3889,426.4285,333.3333,426.2634,323.2778,426.5729,313.2222,426.2127,303.1667,425.5965,293.1111,425.7028,283.0556,426.0815,273,426.1912,262.9444,426.1732,252.8889,425.5194,242.8333,426.8475,232.7778,426.5848,222.7222,425.9911,212.6667,426.8934,202.6111,426.2382,192.5556,426.564,182.5,426.377,172.4444,426.0789,162.3889,425.9751,152.3333,426.4093,142.2778,426.2247,132.2222,425.4878,122.1667,425.9102,112.1111,426.5752,102.0556,425.5545,92,426.1992,92.3526,426.1992,92.4185,416.1729,92.0813,406.1466,91.7461,396.1203,92.1861,386.094,92.6096,376.0676,91.614,366.0413,91.6183,356.015,91.9031,345.9887,91.7209,335.9624,91.4296,325.9361,92.5667,315.9097,92.0274,305.8834,91.2655,295.8571,91.5371,285.8308,91.3151,275.8045,91.2937,265.7782,92.1584,255.7519,92.0894,245.7255,92.3698,235.6992,91.7587,225.6729,92.7445,215.6466,92.5395,205.6203,91.5987,195.594,92.0256,185.5676,91.6653,175.5413,92.6785,165.515,91.253,155.4887,92.0437,145.4624,92.4971,135.4361,91.8477,125.4097,92.3785,115.3834,91.8576,105.3571,91.7801,95.3308,92.6033,85.3045,92.6325,75.2782,91.3677,65.2519,92.6401,55.2255,92,45.1992" style="stroke: #000000; stroke-width: 2.0;"/><path d="M92,67.6875 L92,68.5131 L102.0909,67.3366 L112.1818,68.5057 L122.2727,67.2463 L132.3636,68.5262 L142.4545,67.2172 L152.5455,66.7611 L162.6364,68.4801 L172.7273,68.0214 L182.8182,67.7048 L192.9091,68.1 L203,67.6875 " fill="#FFFFFF" style="stroke: #000000; stroke-width: 2.0;"/><text fill="#000000" font-family="sans-serif" font-size="14" font-weight="bold" lengthAdjust="spacingAndGlyphs" textLength="98" x="96" y="60.7344">インストーラー</text><polygon fill="#FEFECE" filter="url(#fq1xoii)" points="312.7751,159.1925,310.6686,162.353,305.4918,165.1163,298.7789,167.7356,288.8887,169.7339,279.0875,171.7524,270.3524,173.9097,257.3066,174.875,245.2957,175.7724,232.1793,176.0232,216.3173,175.1729,203.7988,174.5442,193.6741,173.8653,182.8011,172.378,171.3488,170.0964,163.8394,168.0454,157.2576,165.5444,151.5347,162.6023,147.7316,159.5016,147.3009,156.6293,147.9061,153.5197,151.1432,150.6175,156.5233,147.9007,163.6084,145.3664,170.2952,142.6362,181.4941,140.937,194.0713,139.6576,205.5697,138.3388,216.0328,137.0877,229.4968,136.9163,243.297,137.2956,255.1953,137.7825,269.8444,139.4952,281.0977,141.0694,290.7841,142.9475,300.5242,145.5082,306.043,147.7663,309.8104,150.2616,315.5357,153.8015,315.9047,156.6598" style="stroke: #A80036; stroke-width: 1.5;"/><text fill="#000000" font-family="sans-serif" font-size="14" lengthAdjust="spacingAndGlyphs" textLength="140" x="160.7351" y="161.1904">ブラウザインストール</text><polygon fill="#FEFECE" filter="url(#fq1xoii)" points="330.3188,236.3911,328.9824,240.4408,321.6676,243.5187,312.8483,246.5079,301.9745,249.1635,290.6194,251.7115,278.1289,253.8809,261.7054,254.9246,244.9231,255.5249,229.0561,255.8592,213.242,255.6395,198.0707,254.916,185.3958,254.0369,169.5232,251.6827,159.4645,249.8365,148.3479,246.9537,139.6438,243.8194,134.2138,240.6552,128.4452,236.7024,127.9616,233.2824,128.4724,229.5187,131.4025,225.8249,139.2551,222.8671,147.6958,219.7934,159.1271,217.2623,170.5794,214.7359,182.934,212.5362,200.1068,211.6599,215.9934,210.8596,229.7989,210.0648,247.0991,210.6164,263.3643,211.5842,275.5272,212.3489,291.9058,214.8162,304.974,217.3345,312.3324,219.3779,323.8903,223.1496,327.2728,225.8565,332.3012,229.644,333.7285,233.2747" style="stroke: #A80036; stroke-width: 1.5;"/><text fill="#000000" font-family="sans-serif" font-size="14" lengthAdjust="spacingAndGlyphs" textLength="182" x="139.4007" y="237.9235">コマンドラインインストール</text><polygon fill="#FEFECE" filter="url(#fq1xoii)" points="606.3268,392.6545,603.5187,395.8911,594.5799,398.0623,589.1609,401.2512,580.2711,403.7652,567.5262,405.4057,555.8284,407.172,542.6906,408.3918,529.5321,409.2834,517.4531,410.0006,503.1277,409.7048,488.6248,408.7922,473.4318,407.0882,463.876,405.9835,452.3623,403.7312,442.4199,401.1222,436.5284,398.7271,429.6346,395.427,427.5994,392.5926,426.7223,389.444,425.3926,385.6889,431.7143,383.2483,434.9629,379.788,441.9546,376.9554,452.4077,374.7956,462.1905,372.4839,476.555,371.3218,488.0924,369.7394,501.1139,368.8168,516.6044,368.8726,528.8432,368.6956,543.3938,369.619,557.9234,371.1727,569.3832,372.7088,578.8955,374.5076,590.1789,377.4204,596.8573,379.9939,600.0542,382.4564,604.8613,385.9187,605.2775,388.9629" style="stroke: #A80036; stroke-width: 1.5;"/><text fill="#000000" font-family="sans-serif" font-size="14" lengthAdjust="spacingAndGlyphs" textLength="154" x="438.8393" y="393.9112">サーバー環境のチェック</text><polygon fill="#FEFECE" filter="url(#fq1xoii)" points="617.493,313.765,613.7927,317.2868,607.3904,320.5685,601.1137,324.1255,587.6715,326.2075,577.4923,329.0182,563.2375,330.7935,547.1337,331.9086,531.5513,332.7768,516.3274,333.2548,500.6837,333.0732,485.8779,332.4312,468.7576,330.5594,453.4091,328.3222,441.2256,326.0015,431.1311,323.347,426.1932,321.0538,418.4429,317.3714,414.3237,313.7869,412.2759,310.0176,416.2371,307.0245,416.7381,302.7882,422.5351,299.3713,432.3524,296.605,444.3095,294.1914,454.2704,291.3319,470.9678,290.1021,483.5098,288.1916,501.231,287.8009,517.2321,287.4966,532.3283,287.5559,547.3721,288.251,560.823,289.3033,574.8965,291.2558,589.7661,294.1764,600.7588,297.0315,607.9341,299.8244,613.106,302.9309,618.9228,306.8945,617.6981,309.933" style="stroke: #A80036; stroke-width: 1.5;"/><text fill="#000000" font-family="sans-serif" font-size="14" lengthAdjust="spacingAndGlyphs" textLength="182" x="424.9007" y="314.9235">データベースの接続チェック</text><polygon fill="#FEFECE" filter="url(#fq1xoii)" points="593.442,237.1579,590.9817,240.0072,586.6126,242.7016,580.4377,245.1738,570.3862,246.8503,561.3912,248.7704,551.3977,250.3618,539.4536,251.3091,528.1685,252.1228,517.3333,252.6707,502.8386,251.9299,492.9313,251.7385,480.6078,250.4295,469.8754,248.8895,459.3598,246.7784,453.4604,245.1032,445.6789,242.3729,442.6249,240.135,439.1061,237.2296,438.8462,234.5671,438.6392,231.4723,441.9989,228.8305,444.7364,225.7597,453.9835,223.9961,461.0265,221.6257,468.8379,219.4326,480.8134,218.2983,490.7062,216.878,504.8098,216.7143,514.6489,215.9367,528.6138,216.5553,540.8729,217.2892,549.8247,217.8204,560.793,219.4149,571.9194,221.6669,577.6727,223.3083,586.5283,226.2864,591.4682,228.9593,594.6334,231.7831,592.8915,233.9838" style="stroke: #A80036; stroke-width: 1.5;"/><text fill="#000000" font-family="sans-serif" font-size="14" lengthAdjust="spacingAndGlyphs" textLength="126" x="452.7871" y="239.0008">データベースの構築</text><polygon fill="#FEFECE" filter="url(#fq1xoii)" points="557.5934,168.4524,555.9096,170.6467,554.7754,173.2618,551.05,175.143,545.9177,176.6199,541.4395,178.3219,534.6365,179.1439,528.6248,180.0806,523.1664,180.976,515.7908,180.9115,509.5956,180.8923,502.8261,180.2624,497.4105,179.6437,491.7227,178.4458,486.129,176.7761,482.0607,175.1209,478.4241,173.11,475.0452,170.7023,473.2265,168.3768,473.0392,166.1996,474.722,164.3051,475.3315,161.7411,477.4904,159.4786,481.431,157.6715,485.3209,155.7671,490.6356,154.353,495.9832,153.03,503.6686,152.6693,509.687,151.9667,515.7626,151.5838,521.9675,151.6064,528.9998,152.3266,536.1523,153.5431,541.037,154.4646,546.2137,155.9908,549.9237,157.5227,554.7468,159.9419,556.5275,161.7996,558.5423,164.1926,558.632,166.3362" style="stroke: #A80036; stroke-width: 1.5;"/><text fill="#000000" font-family="sans-serif" font-size="14" lengthAdjust="spacingAndGlyphs" textLength="56" x="488.098" y="171.1023">初期設定</text><polygon fill="#FEFECE" filter="url(#fq1xoii)" points="593.3863,101.1451,589.651,103.7003,586.0783,106.5784,578.6739,108.767,571.0263,110.9979,560.789,112.6315,552.2957,114.569,538.4238,115.0715,527.6045,115.9927,515.0431,116.1425,504.268,116.2596,490.3431,115.1415,479.2602,114.1186,468.9318,112.6718,461.0407,111.1661,453.269,109.0591,447.5728,106.8097,441.7203,103.9263,439.2813,101.27,438.6702,98.5265,437.4969,95.2088,441.3566,92.6824,445.3686,89.9055,451.1113,87.3336,459.3026,85.2281,470.7389,83.8711,479.0335,81.8878,493.0744,81.4242,503.724,80.4639,516.4025,80.3412,527.8928,80.389,541.4245,81.4164,551.7031,82.2537,560.2647,83.293,569.8284,85.1846,579.4926,87.7281,585.3047,90.0041,591.6269,92.9959,593.8029,95.5916,595.0133,98.4733" style="stroke: #A80036; stroke-width: 1.5;"/><text fill="#000000" font-family="sans-serif" font-size="14" lengthAdjust="spacingAndGlyphs" textLength="126" x="452.7871" y="103.0008">管理ユーザーの作成</text><polygon fill="#FEFECE" filter="url(#fq1xoii)" points="273.2857,308.8627,270.482,310.6716,267.8632,312.7758,265.119,314.9947,260.7215,316.7244,256.1577,318.3969,249.2595,319.1863,243.1046,320.0737,236.9231,320.7201,231.3416,321.2731,224.7417,321.1146,216.9557,320.135,210.9548,319.3148,204.9258,317.9995,199.9375,316.5381,196.0549,314.9468,192.8513,313.085,190.2292,310.9377,189.2425,308.8985,187.8865,306.3191,188.9593,304.2147,190.2869,301.8978,193.1658,299.8831,196.0326,297.7065,199.6253,295.6998,204.778,294.2299,210.9217,293.1809,217.737,292.5208,224.1146,291.9418,230.189,291.5585,238.0808,292.1616,243.6348,292.3731,250.4608,293.4772,254.8839,294.2399,260.5587,295.9375,265.3523,297.8423,268.2684,299.6052,271.7133,302.0356,273.3093,304.2845,272.9714,306.2809" style="stroke: #A80036; stroke-width: 1.5;"/><text fill="#000000" font-family="sans-serif" font-size="14" lengthAdjust="spacingAndGlyphs" textLength="56" x="202.598" y="311.1023">リセット</text><polygon fill="#FEFECE" filter="url(#fq1xoii)" points="350.848,387.1978,347.5894,391.5661,340.3282,395.4802,327.4155,398.4423,315.3974,401.7471,301.2299,404.58,283.4973,406.4835,269.827,408.9901,247.7484,409.2252,230.3133,409.9302,210.232,409.3924,191.1499,408.3171,174.3851,406.9171,157.8435,404.6763,141.5103,401.557,130.5065,398.6726,119.851,394.9405,111.7839,390.887,110.3458,387.4558,109.7331,383.4488,107.1473,378.3468,113.1022,374.5707,121.7652,370.9644,129.6194,366.8915,144.0705,364.1209,157.0174,361.02,176.0195,359.3953,191.2097,357.2225,211.8992,356.6823,228.5417,355.8033,248.8989,356.4016,269.3455,357.7766,288.0508,359.6027,301.4542,361.1544,314.5424,363.561,329.019,367.2081,338.7257,370.7318,347.4891,374.9382,349.7733,378.5553,351.0244,382.7025" style="stroke: #A80036; stroke-width: 1.5;"/><text fill="#000000" font-family="sans-serif" font-size="14" lengthAdjust="spacingAndGlyphs" textLength="224" x="118.3447" y="387.8123">バックアップファイルダウンロード</text><!--entity 管理者--><polygon fill="#FEFECE" filter="url(#fq1xoii)" points="34.8549,240.3878,34.1439,242.0677,33.6363,243.9296,31.804,245.5072,30.3418,245.9028,28.9698,246.8777,26.7252,246.2797,24.3523,245.909,22.56,245.0119,20.9633,244.5371,19.4349,242.2279,19.1956,240.7103,18.7655,238.9835,19.6498,236.9805,19.4783,235.3486,21.1664,233.2216,22.4601,232.5156,23.9763,231.3503,26.2384,231.0327,28.1305,230.8859,30.7305,231.7415,32.489,232.3471,33.7322,234.933,35.1511,236.3942,35.4851,238.9535" style="stroke: #A80036; stroke-width: 2.0;"/><path d="M27,246.6992 L26.908,246.6992 L26.3468,252.0992 L27.1513,257.4992 L27.1564,262.8992 L26.4917,268.2992 L27,273.6992 M14,254.6992 L14,254.9939 L19.2,254.6289 L24.4,254.3999 L29.6,254.2806 L34.8,255.0962 L40,254.6992 M27,273.6992 L26.5914,273.3451 L24.535,276.8163 L21.5454,279.4786 L19.6933,283.1268 L16.2413,285.3883 L14,288.6992 M27,273.6992 L26.721,273.4574 L29.7869,276.8612 L32.2102,279.708 L35.1199,282.9765 L37.6281,285.8969 L40,288.6992 " fill="#FEFECE" style="stroke: #A80036; stroke-width: 2.0;"/><text fill="#000000" font-family="sans-serif" font-size="14" lengthAdjust="spacingAndGlyphs" textLength="42" x="6" y="309.2344">管理者</text><path d="M48.08,231.4492 L48.2536,231.569 L49.6552,229.3606 L50.8815,227.0312 L52.7446,225.1413 L54.0087,222.838 L55.5038,220.6941 L55.6558,220.817 L57.3857,218.7428 L59.0501,216.6156 L60.47,214.2908 L62.2218,212.2342 L63.9925,210.193 L63.7658,209.9703 L65.7606,208.1239 L67.9698,206.488 L69.7804,204.4607 L71.5168,202.3604 L73.505,200.5075 L73.6019,200.63 L75.7625,199.0461 L77.5719,197.0185 L79.9931,195.764 L81.6956,193.6014 L84,192.1992 L83.9755,192.1576 L87.1024,190.5431 L90.0419,188.61 L93.0643,186.818 L95.9894,184.8604 L99.1417,183.2891 L99.0099,182.9958 L102.4492,181.957 L105.6886,180.4734 L108.9227,178.9782 L112.047,177.2388 L115.3888,175.983 L115.4866,176.2643 L118.8379,175.0369 L122.1084,173.5773 L125.4355,172.2803 L128.9337,171.4751 L132.2414,170.1225 L132.2685,170.2229 L135.5873,169.0381 L138.9475,168.0063 L142.4377,167.4569 L145.7501,166.2482 L149.2,165.5492 " fill="none" style="stroke: #A80036; stroke-width: 1.0;"/><polygon fill="#A80036" points="154.28,164.3892,154.3196,164.591,152.323,163.8866,150.4124,163.6199,148.4794,163.2391,146.5658,162.9572,144.6159,162.4906,144.6406,162.5299,145.581,163.1042,146.5591,163.7385,147.5474,164.389,148.557,165.0734,149.4052,165.501,149.4929,165.5562,148.9034,166.5219,148.1755,167.4007,147.4949,168.3092,146.8063,169.2127,146.3948,170.2903,146.3918,170.2864,148.0501,169.2148,149.6275,168.0349,151.2094,166.8612,152.754,165.6376,154.28,164.3892" style="stroke: #A80036; stroke-width: 1.0;"/><path d="M48.06,266.5192 L47.9253,265.7859 L57.6889,264.2379 L67.5174,263.044 L77.223,261.1804 L86.9705,259.5451 L96.51,256.7774 L106.537,256.664 L116.2443,254.8102 L125.9918,253.1746 L135.5443,250.4774 L145.26,248.6692 " fill="none" style="stroke: #A80036; stroke-width: 1.0;"/><polygon fill="#A80036" points="150.51,247.6992,150.5318,247.7893,148.5626,247.1011,146.6347,246.5838,144.7915,246.4168,142.8181,245.7109,140.9367,245.3859,140.9751,245.4416,141.9151,246.0974,142.7246,246.5641,143.7069,247.2812,144.6549,247.9487,145.5918,248.5999,145.638,248.6318,144.8216,249.443,144.1005,250.32,143.616,251.3603,143.2006,252.4483,142.3778,253.2551,142.4214,253.3188,143.9608,252.0803,145.5256,250.8789,147.3374,250.039,148.8182,248.7147,150.51,247.6992" style="stroke: #A80036; stroke-width: 1.0;"/><path d="M303.04,165.8092 L302.9881,165.6563 L305.8332,167.0116 L308.3762,167.4768 L311.1335,168.5738 L313.8951,169.683 L316.5177,170.3827 L316.4333,170.1931 L319.138,171.5499 L321.8231,172.8628 L324.3441,173.8069 L326.9401,174.9195 L329.6138,176.2067 L329.6123,176.2042 L332.1341,177.7544 L334.4347,178.9278 L336.9733,180.5064 L339.5278,182.1121 L341.913,183.4295 L341.7548,183.2296 L343.9872,185.0025 L346.3409,186.9287 L348.6162,188.7558 L350.7262,190.374 L353,192.1992 L353.1327,192.3258 L354.6159,193.9139 L356.7069,196.0816 L358.4737,197.9401 L360.1538,199.716 L362.1663,201.8089 L362.3517,201.944 L363.5669,203.7359 L364.9445,205.6461 L366.4716,207.6653 L367.9021,209.6141 L369.2134,211.4759 L369.3262,211.5366 L370.3054,213.4449 L371.367,215.3975 L372.1165,217.1823 L373.3205,219.2115 L374.4407,221.1956 L374.4651,221.2049 L375.2004,223.1561 L375.7776,225.0473 L376.4284,226.9665 L377.4261,229.0173 L378.1475,230.9633 L378.4191,231.0321 L378.9636,233.0063 L378.9182,234.831 L379.8827,236.9116 L380.4046,238.88 L380.6333,240.7742 L380.5081,240.7543 L381.0073,242.7538 L381.3613,244.7302 L381.6781,246.7008 L382.0143,248.6744 L382.1973,250.6236 L382.3718,250.6374 L382.2609,254.5632 L382.7801,258.5386 L383.1055,262.4988 L383.7412,266.4834 L383.7575,270.4192 L384.0572,270.4413 L383.8298,274.3816 L384.091,278.3578 L384.7044,282.36 L385.0076,286.3394 L385.223,290.3123 L385.0444,290.2864 L385.6396,292.325 L385.9773,294.3263 L386.1732,296.3071 L386.2666,298.273 L386.6687,300.2836 L386.8713,300.3307 L386.8644,302.2176 L387.2898,304.2049 L388.16,306.2956 L388.4324,308.2474 L388.9888,310.2652 L389.2126,310.3435 L389.8475,312.3185 L390.4175,314.2709 L390.815,316.1629 L391.6929,318.223 L392.4825,320.2522 L392.7206,320.3706 L393.5564,322.2898 L394.7141,324.3691 L395.6842,326.3551 L396.5426,328.2855 L397.4495,330.24 L397.4155,330.2172 L398.8071,332.2434 L400.3664,334.3829 L401.738,336.3957 L402.8629,338.242 L404.1888,340.224 L403.9808,340.0402 L405.8629,342.1411 L407.5978,344.112 L409.4982,346.2292 L411.0851,348.0693 L413,350.1992 L413.0608,350.2679 L414.6954,351.7417 L415.9698,352.8091 L417.7574,354.4556 L419.2534,355.7732 L420.6567,356.9861 L420.7945,357.1809 L422.2372,358.0295 L424.2113,359.6292 L425.7835,360.661 L427.2953,361.6073 L429.0888,362.9517 L428.9816,362.7662 L430.884,363.9828 L432.8505,365.3104 L434.4976,366.085 L436.2716,367.0793 L438.0889,368.1486 L438.179,368.3369 L440.0447,369.2194 L441.8129,369.8981 L443.7272,370.8822 L445.5077,371.5867 L447.45,372.6292 " fill="none" style="stroke: #A80036; stroke-width: 1.0;"/><polygon fill="#A80036" points="452.11,374.5792,451.9592,374.4368,450.7651,373.1539,449.2743,371.5909,447.9377,370.1734,446.6557,368.8075,445.3486,367.4179,445.1607,367.3408,445.7649,368.4591,446.0072,369.4288,446.6051,370.5445,447.046,371.5958,447.4967,372.6511,447.4695,372.5847,446.4782,373.1492,445.3793,373.4514,444.3013,373.8046,443.323,374.4006,442.2636,374.7992,442.267,374.9513,444.2328,374.7537,446.2037,374.7785,448.1703,374.6159,450.1403,374.6062,452.11,374.5792" style="stroke: #A80036; stroke-width: 1.0;"/><path d="M297.56,167.8192 L297.5494,167.7854 L300.4907,168.9065 L303.2745,169.525 L306.2713,170.8227 L309.105,171.6003 L311.9206,172.3205 L311.8803,172.2154 L314.8183,173.5121 L317.6912,174.6392 L320.489,175.5708 L323.3005,176.5383 L326.2325,177.8192 L326.1934,177.7372 L328.9673,179.0701 L331.9043,180.7453 L334.5618,181.8341 L337.3734,183.2461 L340.0681,184.413 L339.934,184.1901 L342.7327,186.1001 L345.0939,187.2833 L347.8629,189.1439 L350.4418,190.6887 L353,192.1992 L353.0321,192.2389 L355.0803,193.791 L357.5503,195.8648 L359.6724,197.5082 L362.1113,199.5436 L364.4494,201.4543 L364.4839,201.4843 L366.2199,203.4551 L367.6895,205.1946 L369.4989,207.2292 L370.918,208.925 L372.6252,210.8708 L372.3443,210.695 L373.9502,212.8622 L375.1712,214.7885 L376.2604,216.6324 L377.5671,218.6123 L378.5999,220.4209 L378.3685,220.3048 L379.5199,222.3273 L380.4468,224.2372 L381.4938,226.2074 L382.2457,228.0295 L383.4462,230.0767 L383.2793,229.9945 L384.6769,232.1576 L385.5594,234.0671 L386.1419,235.8289 L387.0355,237.7439 L388.2368,239.8104 L388.2851,239.839 L389.5292,241.8448 L390.7495,243.8364 L391.5022,245.5504 L392.9953,247.704 L394.0442,249.5939 L394.18,249.7033 L395.816,251.71 L397.4345,253.7026 L398.8008,255.4921 L400.1757,257.2886 L401.9411,259.3995 L402.151,259.6364 L404.0039,261.1914 L406.193,263.1257 L408.6775,265.3934 L410.691,267.1295 L413,269.1992 L413.0651,269.293 L414.6374,270.2951 L416.483,271.6906 L417.9117,272.4859 L419.9261,274.1246 L421.4644,275.0777 L421.3302,274.8534 L423.201,276.0513 L425.0702,277.2466 L426.8865,278.3536 L428.6581,279.3856 L430.45,280.4517 L430.5279,280.6006 L432.4425,281.6698 L434.2312,282.4983 L435.9021,283.1019 L437.9259,284.3797 L439.7806,285.3345 L439.6539,285.0612 L441.5663,285.9691 L443.6759,287.3024 L445.5806,288.1937 L447.4284,288.9623 L449.28,289.7392 " fill="none" style="stroke: #A80036; stroke-width: 1.0;"/><polygon fill="#A80036" points="453.95,291.7292,453.9529,291.7319,452.7738,290.444,451.243,288.8282,449.7421,287.2403,448.6174,286.003,447.2344,284.525,447.1303,284.483,447.8818,285.6648,447.8851,286.545,448.7199,287.7603,448.8103,288.6756,449.3491,289.7717,449.3144,289.6854,448.2726,290.1272,447.342,290.8447,446.2049,291.0499,445.0919,291.3149,444.1024,291.8864,444.1038,291.973,446.0719,291.8539,448.0433,291.9408,450.0119,291.8485,451.9796,291.7067,453.95,291.7292" style="stroke: #A80036; stroke-width: 1.0;"/><path d="M284.49,170.7792 L284.7199,171.6149 L294.1894,173.2218 L304.1392,176.5748 L313.8391,179.0192 L323.7887,182.3713 L333.5033,184.8693 L342.8626,186.076 L352.6268,188.7542 L362.8091,192.9523 L372.3319,194.7531 L382.3682,198.4201 L391.7576,199.7363 L401.7333,203.1832 L411.523,205.954 L421.3789,208.9658 L430.9643,210.994 L440.6478,213.3793 L450.3736,215.9177 L460.29,219.1492 " fill="none" style="stroke: #A80036; stroke-width: 1.0;"/><polygon fill="#A80036" points="465.12,220.4792,465.2391,220.6253,463.5983,219.2407,462.048,217.9671,460.5225,216.724,458.8824,215.3402,457.4865,214.2559,457.6746,214.3635,458.2037,215.3269,458.6963,216.2693,459.2204,217.2297,459.7365,218.1856,460.2955,219.166,460.4016,219.3515,459.3673,219.8219,458.3245,220.2774,457.2866,220.7417,456.2811,221.2623,455.3854,221.9751,455.3944,222.0335,457.3504,221.7938,459.2672,221.2986,461.2629,221.3165,463.1377,220.5484,465.12,220.4792" style="stroke: #A80036; stroke-width: 1.0;"/><path d="M313.88,159.1092 L313.8499,158.2549 L324.1681,159.0206 L334.4723,159.3913 L344.8048,160.5627 L355.1281,161.4723 L365.3889,160.6118 L375.6985,161.1323 L386.0156,161.868 L396.2995,161.6626 L406.6003,161.9344 L416.9487,163.5574 L427.1952,162.2898 L437.5094,162.9418 L447.8254,163.6452 L458.1696,165.1478 L468.44,164.5592 " fill="none" style="stroke: #A80036; stroke-width: 1.0;"/><polygon fill="#A80036" points="473.44,164.7292,473.4943,164.841,471.7141,163.9619,470.0041,163.2272,468.2081,162.3157,466.4237,161.428,464.5823,160.4232,464.7485,160.5783,465.4584,161.3472,466.0677,162.0221,467.0431,163.0388,467.8448,163.8934,468.4429,164.5579,468.5184,164.6387,467.7586,165.4827,466.7669,166.0784,466.0421,166.9599,465.2209,167.7382,464.3082,168.4185,464.2485,168.2708,466.1154,167.6332,467.8707,166.7195,469.7692,166.1601,471.6896,165.6552,473.44,164.7292" style="stroke: #A80036; stroke-width: 1.0;"/><path d="M293.36,143.5392 L293.1986,142.7501 L303.2896,141.7225 L313.1134,139.3888 L323.196,138.3202 L332.7297,134.568 L342.7513,133.2006 L352.5835,130.908 L362.6913,129.9626 L372.2823,126.4905 L382.4627,125.8999 L392.4118,124.1784 L402.2516,121.9228 L411.8476,118.4751 L421.7403,116.4784 L431.7512,115.0591 L441.5094,112.4045 L451.56,111.1792 " fill="none" style="stroke: #A80036; stroke-width: 1.0;"/><polygon fill="#A80036" points="456.65,110.1392,456.6805,110.2776,454.692,109.5594,452.7835,109.2041,450.873,108.8396,448.9214,108.2888,447.0319,108.0196,446.9788,107.9393,448.086,108.8103,448.9227,109.2721,449.8826,109.9204,450.7733,110.4639,451.751,111.139,451.6778,111.0907,451.2779,112.1825,450.5128,113.0329,449.9877,114.042,449.2533,114.9128,448.6316,115.8581,448.5493,115.7426,450.1526,114.5984,451.9195,113.6835,453.539,112.5618,454.9067,111.0873,456.65,110.1392" style="stroke: #A80036; stroke-width: 1.0;"/><path d="M48.06,273.7792 L47.9513,273.1705 L57.9768,275.3402 L67.9931,277.4577 L78.0232,279.6525 L87.7596,280.2037 L97.7093,281.9483 L107.706,283.9566 L117.9082,287.1145 L127.6501,287.6965 L137.6193,289.5504 L147.7871,292.5161 L157.6407,293.7234 L167.3875,294.3325 L177.5136,297.0649 L187.44,298.6792 " fill="none" style="stroke: #A80036; stroke-width: 1.0;"/><polygon fill="#A80036" points="192.53,299.5992,192.5522,299.632,190.7783,298.3141,189.3527,297.51,187.5979,296.2204,186.0049,295.1694,184.3794,294.0704,184.2634,293.9898,184.8818,294.8995,185.4773,295.7934,186.4078,296.9202,186.9786,297.7969,187.6088,298.7148,187.5319,298.6041,186.7667,299.4855,185.6746,299.8967,184.8857,300.7438,183.9848,301.4299,182.9644,301.9443,182.9503,301.8866,184.8528,301.3745,186.7914,301.0092,188.7593,300.7636,190.6505,300.2055,192.53,299.5992" style="stroke: #A80036; stroke-width: 1.0;"/><path d="M48.24,302.1792 L48.1854,302.1363 L49.965,304.2758 L51.2823,306.0518 L52.5874,307.8182 L54.0889,309.739 L55.8666,311.877 L55.9478,311.9496 L57.3649,313.601 L59.2724,315.6908 L60.7921,317.4339 L62.7111,319.5341 L64.44,321.4642 L64.3332,321.3519 L66.4519,323.39 L68.1949,325.0331 L70.0665,326.8114 L71.8464,328.4932 L73.8534,330.4139 L73.6677,330.1718 L75.9593,332.0708 L77.8992,333.5112 L79.8449,334.9594 L81.9412,336.6037 L84,338.1992 L84.0869,338.3413 L86.5576,339.9047 L88.9208,341.2923 L91.2067,342.5534 L93.5163,343.8534 L96.0981,345.5984 L96.1894,345.7764 L98.7096,347.0101 L101.2765,348.3348 L103.7099,349.3992 L106.4399,351.0418 L108.905,352.168 L108.8691,352.0856 L111.6295,353.4863 L114.126,354.2819 L116.9784,355.8934 L119.442,356.6135 L122.1769,357.9556 L122.2076,358.0377 L124.961,359.1947 L127.6825,360.2664 L130.1783,360.7355 L132.9694,361.9933 L135.67,363.0092 " fill="none" style="stroke: #A80036; stroke-width: 1.0;"/><polygon fill="#A80036" points="140.75,364.7292,140.6053,364.573,139.1459,363.2189,138.0024,362.2057,136.4049,360.7023,135.122,359.5388,133.525,358.036,133.4405,357.9945,134.2443,359.1599,134.5052,360.0587,135.1998,361.1706,135.6254,362.1502,136.0181,363.1138,135.9676,363.0109,134.9227,363.4498,133.9023,363.9385,132.9781,364.6232,131.9691,365.1352,130.9403,365.607,130.9212,365.3937,132.9196,365.6252,134.8539,365.1404,136.8474,365.3184,138.7851,364.8719,140.75,364.7292" style="stroke: #A80036; stroke-width: 1.0;"/></g></svg>