<?xml version="1.0" encoding="UTF-8" standalone="no"?><svg xmlns="http://www.w3.org/2000/svg" xmlns:xlink="http://www.w3.org/1999/xlink" contentScriptType="application/ecmascript" contentStyleType="text/css" height="995px" preserveAspectRatio="none" style="width:470px;height:995px;" version="1.1" viewBox="0 0 470 995" width="470px" zoomAndPan="magnify"><defs><filter height="300%" id="fomqjmv" width="300%" x="-1" y="-1"><feGaussianBlur result="blurOut" stdDeviation="2.0"/><feColorMatrix in="blurOut" result="blurOut2" type="matrix" values="0 0 0 0 0 0 0 0 0 0 0 0 0 0 0 0 0 0 .4 0"/><feOffset dx="4.0" dy="4.0" in="blurOut2" result="blurOut3"/><feBlend in="SourceGraphic" in2="blurOut3" mode="normal"/></filter></defs><g><text fill="#000000" font-family="sans-serif" font-size="18" lengthAdjust="spacingAndGlyphs" textLength="270" x="113.5" y="17.4023">ユースケース：アクセス制限設定</text><!--cluster アクセス制限--><polygon fill="#FFFFFF" filter="url(#fomqjmv)" points="106,45.1992,106,45.5954,116,45.6828,126,45.6976,136,45.4682,146,44.5389,156,45.7653,166,45.5402,176,45.8229,186,45.2071,196,45.1992,195.8085,45.1396,197.5049,49.7295,198.7432,54.1769,200.4305,58.7639,201.3961,63.1264,203,67.6875,203,68.0655,213,67.4047,223,67.0392,233,67.9594,243,68.2572,253,68.2096,263,68.4315,273,67.1815,283,67.282,293,68.2029,303,67.4901,313,67.7049,323,67.954,333,67.393,343,68.4041,353,68.2195,363,67.7106,373,67.9981,383,67.9631,393,68.2286,403,68.1944,413,67.9198,423,67.5376,433,68.4226,443,68.3523,453,67.4573,463,67.6875,463.7266,67.6875,462.9792,77.6931,463.2783,87.6986,462.666,97.7042,462.4713,107.7097,462.9308,117.7153,462.9553,127.7209,462.679,137.7264,462.87,147.732,462.4771,157.7376,462.8728,167.7431,463.2481,177.7487,463.2599,187.7542,463.3776,197.7598,462.4569,207.7654,462.9553,217.7709,463.7233,227.7765,462.7023,237.7821,463.2301,247.7876,462.8929,257.7932,463.6634,267.7987,462.8793,277.8043,463.7309,287.8099,463.7096,297.8154,462.7168,307.821,462.9053,317.8266,462.7355,327.8321,463.5462,337.8377,462.7907,347.8432,462.5266,357.8488,463.4715,367.8544,463.2696,377.8599,463.7271,387.8655,462.9669,397.8711,463.1147,407.8766,462.3795,417.8822,463.2089,427.8877,463.0668,437.8933,463.6046,447.8989,462.694,457.9044,463.5238,467.91,462.4973,477.9155,462.6949,487.9211,462.9149,497.9267,462.691,507.9322,462.5298,517.9378,463.1831,527.9434,463.4383,537.9489,462.7383,547.9545,462.6764,557.96,462.923,567.9656,463.3017,577.9712,462.5905,587.9767,462.8612,597.9823,463.0334,607.9879,462.4539,617.9934,463.0919,627.999,462.6496,638.0045,462.6597,648.0101,462.5909,658.0157,463.1388,668.0212,462.9399,678.0268,462.7321,688.0324,463.6297,698.0379,463.7447,708.0435,462.9178,718.049,462.3913,728.0546,462.4767,738.0602,463.5919,748.0657,462.983,758.0713,463.6201,768.0769,462.6088,778.0824,463.2521,788.088,462.2877,798.0935,462.6274,808.0991,462.6028,818.1047,462.2735,828.1102,462.9629,838.1158,462.6816,848.1213,463.6385,858.1269,462.738,868.1325,463.0705,878.138,462.8761,888.1436,463.6524,898.1492,463.1895,908.1547,462.7909,918.1603,463.7456,928.1658,463.7373,938.1714,462.5245,948.177,462.8434,958.1825,462.716,968.1881,463.5687,978.1937,463,988.1992,463,987.7105,453.0833,987.842,443.1667,988.2875,433.25,988.7855,423.3333,988.7753,413.4167,988.4139,403.5,988.3043,393.5833,988.5755,383.6667,988.0526,373.75,988.1276,363.8333,988.8408,353.9167,988.8787,344,988.9462,334.0833,987.8547,324.1667,987.8965,314.25,987.8982,304.3333,987.5921,294.4167,988.2323,284.5,988.8379,274.5833,987.5889,264.6667,987.6409,254.75,988.2872,244.8333,988.2548,234.9167,988.8941,225,988.2048,215.0833,988.781,205.1667,987.8506,195.25,988.4329,185.3333,988.1245,175.4167,987.7445,165.5,988.4819,155.5833,987.9538,145.6667,988.4151,135.75,988.3033,125.8333,988.2978,115.9167,988.9454,106,988.1992,105.6457,988.1992,105.841,978.1673,106.2097,968.1354,105.933,958.1035,105.8871,948.0716,106.6,938.0396,105.9319,928.0077,105.4938,917.9758,106.5528,907.9439,105.3148,897.912,105.4107,887.8801,106.2102,877.8482,105.6983,867.8162,106.1367,857.7843,106.3281,847.7524,106.3881,837.7205,106.527,827.6886,106.3417,817.6567,105.9368,807.6248,105.803,797.5928,106.5829,787.5609,105.7246,777.529,105.3435,767.4971,106.5815,757.4652,106.1526,747.4333,105.4202,737.4013,105.2861,727.3694,105.8719,717.3375,106.4276,707.3056,106.3527,697.2737,106.6103,687.2418,106.353,677.2099,106.1978,667.1779,105.2792,657.146,106.2526,647.1141,105.5945,637.0822,105.9552,627.0503,106.1826,617.0184,105.7802,606.9865,105.5185,596.9545,105.2884,586.9226,105.5673,576.8907,105.4216,566.8588,105.7012,556.8269,105.3409,546.795,106.0309,536.763,105.5448,526.7311,106.0223,516.6992,105.3844,506.6673,106.315,496.6354,105.7049,486.6035,106.6937,476.5716,105.7347,466.5396,105.3892,456.5077,106.189,446.4758,105.4938,436.4439,105.2981,426.412,105.4826,416.3801,106.4312,406.3482,106.5925,396.3162,105.4899,386.2843,105.3605,376.2524,105.2558,366.2205,106.6779,356.1886,105.6138,346.1567,106.035,336.1248,106.6373,326.0928,105.6831,316.0609,106.0206,306.029,106.013,295.9971,106.5291,285.9652,105.7716,275.9333,105.9959,265.9013,105.607,255.8694,105.8251,245.8375,105.8574,235.8056,105.838,225.7737,106.2795,215.7418,106.6641,205.7099,106.3255,195.6779,105.4963,185.646,105.9483,175.6141,105.5786,165.5822,105.2711,155.5503,105.9381,145.5184,106.6518,135.4865,105.4197,125.4545,105.9931,115.4226,105.5974,105.3907,105.4637,95.3588,106.0576,85.3269,106.6624,75.295,105.841,65.263,105.5507,55.2311,106,45.1992" style="stroke: #000000; stroke-width: 2.0;"/><path d="M106,67.6875 L106,67.1197 L115.7,68.4024 L125.4,68.1587 L135.1,66.7361 L144.8,67.7015 L154.5,68.0904 L164.2,68.6269 L173.9,66.8474 L183.6,67.3251 L193.3,67.1808 L203,67.6875 " fill="#FFFFFF" style="stroke: #000000; stroke-width: 2.0;"/><text fill="#000000" font-family="sans-serif" font-size="14" font-weight="bold" lengthAdjust="spacingAndGlyphs" textLength="84" x="110" y="60.7344">アクセス制限</text><polygon fill="#FEFECE" filter="url(#fomqjmv)" points="366.5551,102.1423,363.8358,105.1627,360.7423,108.402,351.371,110.4139,344.1604,113.0244,333.5207,114.8514,324.4921,116.9417,309.5182,117.4663,299.1667,118.7429,286.1942,119.0267,270.972,118.3225,259.6124,117.9586,246.8212,116.6704,234.4433,114.8393,224.392,112.8777,218.2247,111.1334,209.7575,108.2017,203.9391,105.2377,200.1428,102.1386,201.2813,99.6248,202.514,96.6586,205.9,93.7904,209.1014,90.5758,215.6256,87.9133,225.1224,85.8252,233.7464,83.5377,248.1225,82.6693,257.8778,80.9522,271.8518,80.5033,283.863,80,296.9882,80.225,310.3124,81.0378,322.8115,82.2592,335.3881,84.1357,344.2285,85.8206,353.4128,88.2542,360.1221,90.7844,363.3262,93.151,368.5117,96.5675,368.0807,99.243" style="stroke: #A80036; stroke-width: 1.5;"/><text fill="#000000" font-family="sans-serif" font-size="14" lengthAdjust="spacingAndGlyphs" textLength="140" x="214.7351" y="104.1904">設定の一覧を表示する</text><polygon fill="#FEFECE" filter="url(#fomqjmv)" points="350.6943,171.4677,348.9361,174.0439,344.2364,176.1764,338.7986,178.305,331.0869,179.9834,324.7463,181.9852,314.6004,183.0035,305.8293,184.176,295.6276,184.7612,285.8324,185.1187,274.4079,184.7029,265.0111,184.3198,254.8715,183.2712,246.2876,182.066,236.1952,179.9613,229.7561,178.1678,223.8004,175.9445,219.6783,173.6302,217.0301,171.173,218.8089,169.3143,219.5322,166.8176,219.7108,163.8689,225.6992,162.0403,231.2443,159.9371,237.9796,158.0284,245.6954,156.3509,252.9912,154.6605,263.271,153.8438,273.5873,153.2856,284.0871,153.0942,295.6698,153.5474,305.6237,154.0618,314.0128,154.6976,323.2491,156.0567,331.3006,157.6801,339.2911,159.8395,343.5749,161.6685,348.9038,164.2674,350.5486,166.488,351.9018,169.0852" style="stroke: #A80036; stroke-width: 1.5;"/><text fill="#000000" font-family="sans-serif" font-size="14" lengthAdjust="spacingAndGlyphs" textLength="98" x="235.5324" y="173.7498">設定を登録する</text><polygon fill="#FEFECE" filter="url(#fomqjmv)" points="350.6344,238.4536,348.8079,241.0137,343.8689,243.0898,338.4494,245.2226,332.1434,247.2325,325.0165,249.0489,313.8678,249.8308,305.3152,251.0547,293.9954,251.3763,284.5279,251.8111,275.2796,251.9084,264.4645,251.1909,252.9154,249.81,244.9671,248.7546,237.4346,247.2536,229.621,245.1359,224.4706,243.1026,220.1666,240.7453,218.0786,238.4202,216.4315,235.7537,217.619,233.3665,222.055,231.4217,224.2828,228.7063,230.5081,226.7635,236.0469,224.5726,245.6221,223.3336,255.2009,222.1816,264.9531,221.2404,274.641,220.5341,285.1692,220.3494,295.6438,220.5413,304.7236,220.8495,314.8168,221.8872,325.0365,223.4782,333.1467,225.1154,337.9093,226.5137,344.1094,228.7945,348.526,231.1783,350.0134,233.3618,350.5839,235.7744" style="stroke: #A80036; stroke-width: 1.5;"/><text fill="#000000" font-family="sans-serif" font-size="14" lengthAdjust="spacingAndGlyphs" textLength="98" x="235.5324" y="240.7498">設定を編集する</text><polygon fill="#FEFECE" filter="url(#fomqjmv)" points="396.3768,316.7503,393.9093,321.042,385.8664,324.5072,380.2211,328.7767,363.9832,330.8473,354.4988,334.4086,339.0066,336.5046,318.0431,337.1179,304.5431,338.9744,285.6044,339.1074,264.1442,338.0544,249.2947,337.7405,231.897,336.071,214.8449,333.6314,203.1836,331.5024,188.6952,327.8594,180.3175,324.6861,173.9785,321.1163,170.7247,317.4344,170.5334,313.7083,168.6174,308.9722,172.9166,305.0848,180.7541,301.5742,190.3542,298.1777,201.7351,295.035,217.7603,292.9175,232.2484,290.5999,249.7113,289.2139,268.176,288.4531,284.4706,287.7366,300.3336,287.5541,320.9552,289.1421,337.0695,290.5283,351.5416,292.3985,364.9209,294.9066,375.9249,297.7805,387.0915,301.5694,396.1107,305.7308,396.5626,308.7943,399.2987,313.082" style="stroke: #A80036; stroke-width: 1.5;"/><text fill="#000000" font-family="sans-serif" font-size="14" lengthAdjust="spacingAndGlyphs" textLength="210" x="179.3014" y="318.0036">一覧より設定を有効・無効化する</text><polygon fill="#FEFECE" filter="url(#fomqjmv)" points="375.2789,397.757,371.8338,400.8492,363.3999,403.1348,357.4495,406.2033,348.7968,408.771,336.2271,410.4513,323.8798,412.0704,313.6242,413.9432,299.6939,414.6599,284.6111,414.6965,271.0122,414.5653,257.8912,413.9658,244.7523,412.7272,231.9143,410.8789,220.8698,408.7329,211.2545,406.1981,203.3719,403.3518,198.8282,400.5841,194.2067,397.1638,195.4244,394.4898,193.5321,390.6072,197.358,387.6012,205.1672,385.1741,211.5226,382.1974,220.7981,379.7708,230.9201,377.5359,244.0313,376.0898,254.869,374.3489,271.2161,374.1798,285.4374,373.948,298.5764,373.975,313.7456,375.0386,325.6606,375.9999,338.3255,377.809,349.8142,380.0556,358.3459,382.345,363.3785,384.5455,371.1276,388.0394,374.8601,391.2583,374.5205,394.1313" style="stroke: #A80036; stroke-width: 1.5;"/><text fill="#000000" font-family="sans-serif" font-size="14" lengthAdjust="spacingAndGlyphs" textLength="154" x="207.3393" y="398.9112">一覧より設定を複製する</text><polygon fill="#FEFECE" filter="url(#fomqjmv)" points="372.2305,473.0663,369.6236,476.3485,364.3338,479.3464,358.9523,482.5437,348.6878,484.7463,336.5587,486.5264,326.3252,488.6245,312.7344,489.7416,300.2729,490.7911,285.7781,490.9609,268.5149,489.9995,254.8745,489.2823,244.4792,488.6653,230.8327,486.6338,220.3912,484.6245,212.1405,482.3988,202.8897,479.2425,198.8605,476.5914,196.057,473.583,192.3866,469.8015,194.8275,466.9007,197.1005,463.5429,204.0865,460.9293,209.6655,457.7766,219.2074,455.4104,231.8216,453.7402,243.135,451.8868,255.0954,450.4002,270.1682,449.9424,284.5278,449.7419,298.5872,449.9774,312.1383,450.6744,326.9815,452.2992,336.4836,453.3917,348.1102,455.6695,358.4766,458.3746,364.5309,460.8066,370.6346,463.9277,372.7973,466.791,376.0198,470.471" style="stroke: #A80036; stroke-width: 1.5;"/><text fill="#000000" font-family="sans-serif" font-size="14" lengthAdjust="spacingAndGlyphs" textLength="154" x="207.3393" y="474.9112">一覧より設定を削除する</text><polygon fill="#FEFECE" filter="url(#fomqjmv)" points="442.4285,566.022,439.223,571.9342,426.7864,576.4152,412.9123,580.9628,401.464,586.2215,382.2288,589.8077,355.668,591.6306,335.9296,594.5433,307.4613,595.0296,283.3823,595.7446,258.3922,595.4049,233.1983,594.0387,210.2686,592.0765,188.0593,589.1136,166.4473,585.0792,151.0489,581.1646,142.4173,577.5036,132.9472,572.5072,123.0676,566.3404,119.7414,560.5984,127.0146,556.2739,128.3829,549.9672,139.8741,545.2831,151.8955,540.3376,168.2317,536.1287,187.4082,532.5298,208.7673,529.5898,231.2483,527.2661,255.8919,525.9584,281.267,525.5217,308.953,526.4404,334.9301,527.9748,357.0841,529.7705,380.9794,533.0955,401.0287,536.7942,417.2013,540.8751,428.4015,545.0878,437.5956,550.025,445.328,555.7306,448.396,561.4171" style="stroke: #A80036; stroke-width: 1.5;"/><text fill="#000000" font-family="sans-serif" font-size="14" lengthAdjust="spacingAndGlyphs" textLength="308" x="130.4213" y="565.8276">一覧より設定を一括で有効化・無効化・削除する</text><polygon fill="#FEFECE" filter="url(#fomqjmv)" points="384.6987,657.4759,381.0233,661.0033,376.9111,664.7964,366.5129,667.433,359.1558,670.8739,346.4572,673.122,332.9496,675.0642,318.1713,676.4753,302.274,677.2732,283.8944,677.0464,269.9724,677.2493,252.9137,676.1042,238.6427,674.8687,222.251,672.3986,213.2391,670.7861,199.4157,667.2989,193.3141,664.7458,185.4204,661.0314,184.6408,658.1927,180.2618,653.9028,184.3184,650.931,187.5023,647.2938,191.0902,643.3836,203.1123,641.1097,211.4045,637.8776,225.2903,635.8947,237.3574,633.6308,251.0623,631.98,268.6265,631.5543,284.179,631.1497,301.1538,631.6286,315.8996,632.2572,330.3814,633.5397,343.3863,635.2535,356.7471,637.8372,369.0647,640.9881,377.4042,644.041,384.1005,647.488,385.3369,650.4287,387.722,654.2733" style="stroke: #A80036; stroke-width: 1.5;"/><text fill="#000000" font-family="sans-serif" font-size="14" lengthAdjust="spacingAndGlyphs" textLength="182" x="193.4007" y="658.9235">一覧より設定順を並べ替える</text><polygon fill="#FEFECE" filter="url(#fomqjmv)" points="436.8411,751.1382,435.6646,757.2299,424.723,761.7481,408.2529,765.4363,397.4073,770.5188,377.136,773.5708,354.3896,775.9069,332.8234,778.1365,308.9122,779.3307,284.798,779.7948,260.5548,779.4054,235.378,777.8702,212.467,775.7826,193.653,773.467,176.9033,770.4427,157.9091,765.7671,144.9659,761.2417,137.4028,756.7646,130.1525,751.3145,131.4716,746.7657,133.0211,741.4407,136.6608,735.8796,148.117,731.4723,157.8551,726.3339,176.1283,722.8515,194.5375,719.3983,215.5421,716.687,235.565,714.125,257.6491,712.5372,287.089,713.2203,306.3312,712.5324,331.8171,714.1342,354.378,716.1464,374.7818,718.8045,397.4748,723.1091,410.1419,726.4217,424.5752,731.2681,435.3872,736.445,439.0595,741.1244,440.406,746.2474" style="stroke: #A80036; stroke-width: 1.5;"/><text fill="#000000" font-family="sans-serif" font-size="14" lengthAdjust="spacingAndGlyphs" textLength="294" x="137.6701" y="750.9774">各画面より対象画面に対しての設定を登録する</text><polygon fill="#FEFECE" filter="url(#fomqjmv)" points="406.3166,846.0609,401.7509,850.2792,397.3324,854.9658,387.2757,858.714,374.1651,861.9435,359.7526,864.8877,343.5343,867.2862,320.893,867.9808,301.7127,868.9976,283.7388,869.7141,264.6719,869.5121,246.718,868.777,227.8238,866.9801,212.0282,864.9487,193.8467,861.446,180.7111,858.0883,170.7234,854.4716,165.7161,851.0325,160.3963,846.6692,157.193,841.9926,158.8707,837.7062,165.1669,833.867,170.6616,829.4162,181.943,825.9362,197.04,823.1419,211.2112,820.1448,227.899,817.8492,244.205,815.7667,264.8426,815.0692,284.8336,814.7945,305.9747,815.4509,324.3242,816.2727,340.0313,817.3714,357.5552,819.7814,373.7707,822.8534,383.8391,825.5392,396.2561,829.6881,401.8395,833.2534,406.8674,837.5527,411.5097,842.5445" style="stroke: #A80036; stroke-width: 1.5;"/><text fill="#000000" font-family="sans-serif" font-size="14" lengthAdjust="spacingAndGlyphs" textLength="210" x="179.3986" y="842.4937">画面表示時、アクセス制限対象の</text><text fill="#000000" font-family="sans-serif" font-size="14" lengthAdjust="spacingAndGlyphs" textLength="140" x="214.3986" y="858.982">リンクを非表示にする</text><polygon fill="#FEFECE" filter="url(#fomqjmv)" points="440.6302,943.9481,429.9815,947.9793,421.0224,952.9031,409.1124,957.5508,393.4643,961.5752,377.6124,965.5556,355.317,967.9656,333.2535,970.0658,309.8151,971.3412,286.992,972.0649,260.8878,971.2585,234.3201,969.4104,214.9055,968.0662,191.9133,964.8441,174.0204,961.5708,161.0863,958.2018,145.5182,953.1155,140.023,949.0923,130.8147,943.2319,132.1008,938.6908,133.727,933.3998,137.215,927.8257,147.602,923.2096,157.8078,918.1947,177.7378,915.0929,191.3594,910.6319,211.7425,907.8099,236.5929,906.3102,262.1769,905.4971,281.5575,904.0316,308.0435,904.9203,332.7022,906.3571,355.0772,908.3391,372.8855,910.4443,395.9437,914.8305,409.2169,918.2726,424.1803,923.2286,435.1698,928.4356,440.1531,933.3857,438.8925,937.9323" style="stroke: #A80036; stroke-width: 1.5;"/><text fill="#000000" font-family="sans-serif" font-size="14" lengthAdjust="spacingAndGlyphs" textLength="278" x="145.6559" y="938.7406">アクセス制限対象のURLにアクセスした際、</text><text fill="#000000" font-family="sans-serif" font-size="14" lengthAdjust="spacingAndGlyphs" textLength="224" x="172.6559" y="955.2289">ダッシュボードにリダイレクトする</text><!--entity 管理者--><polygon fill="#FEFECE" filter="url(#fomqjmv)" points="41.4331,364.1368,40.8445,366.7693,39.3975,368.2803,37.5756,369.2931,35.421,370.477,33.6398,370.27,30.9183,370.2136,28.8975,368.4192,27.5415,366.6494,26.3191,364.5588,25.8317,362.0553,26.5342,359.9693,27.7202,357.5662,29.46,355.6924,32.1794,354.7987,33.6209,354.7703,36.0877,354.9363,37.8765,355.2874,39.3381,356.6889,40.0646,358.1449,41.688,360.0034,42.1021,362.7467" style="stroke: #A80036; stroke-width: 2.0;"/><path d="M34,370.6992 L33.489,370.6992 L33.5631,376.0992 L34.4473,381.4992 L34.2593,386.8992 L34.6373,392.2992 L34,397.6992 M21,378.6992 L21,378.8496 L26.2,378.919 L31.4,378.0672 L36.6,378.0903 L41.8,378.7188 L47,378.6992 M34,397.6992 L34.0069,397.7052 L30.9667,400.3237 L29.025,403.8942 L25.9284,406.4639 L24.0995,410.1321 L21,412.6992 M34,397.6992 L33.6559,397.401 L36.1558,400.3142 L39.5395,403.9934 L41.6682,406.585 L44.5106,409.7951 L47,412.6992 " fill="#FEFECE" style="stroke: #A80036; stroke-width: 2.0;"/><text fill="#000000" font-family="sans-serif" font-size="14" lengthAdjust="spacingAndGlyphs" textLength="42" x="13" y="433.2344">管理者</text><!--entity ユーザー--><polygon fill="#FEFECE" filter="url(#fomqjmv)" points="41.7224,860.7471,40.9732,862.3503,40.0359,864.5764,38.819,865.4648,37.1886,865.7498,34.6772,866.9919,31.9512,866.3271,30.5722,865.766,28.4957,864.3741,27.4327,862.8587,26.6386,860.7579,26.4362,858.6771,26.2804,856.1418,27.4953,854.7659,28.6978,852.959,29.9775,851.8531,31.3282,850.7221,33.6819,851.0497,35.1345,850.3299,36.6581,851.0948,37.869,852.0219,40.0042,852.7108,40.7872,854.5454,41.6399,856.3235,42.3166,858.2413,41.9311,860.0272" style="stroke: #A80036; stroke-width: 2.0;"/><path d="M34,866.6992 L34.256,866.6992 L34.4104,872.0992 L33.3498,877.4992 L34.2025,882.8992 L33.9941,888.2992 L34,893.6992 M21,874.6992 L21,874.2195 L26.2,874.2184 L31.4,875.0067 L36.6,874.4993 L41.8,875.255 L47,874.6992 M34,893.6992 L33.7803,893.5088 L31.8895,897.1234 L28.3577,899.3159 L26.0518,902.5708 L24,906.0458 L21,908.6992 M34,893.6992 L34.0944,893.781 L36.1177,896.2812 L38.9241,899.4601 L42.0493,902.9153 L44.2288,905.5508 L47,908.6992 " fill="#FEFECE" style="stroke: #A80036; stroke-width: 2.0;"/><text fill="#000000" font-family="sans-serif" font-size="14" lengthAdjust="spacingAndGlyphs" textLength="56" x="6" y="929.2344">ユーザー</text><path d="M39.67,352.5692 L39.7701,352.5826 L40.0606,347.1455 L41.2775,341.8319 L41.5262,336.3893 L42.3526,331.0236 L43.2588,325.6687 L43.0758,325.6419 L43.4192,322.6472 L44.071,319.6976 L44.85,316.7666 L45.0303,313.748 L45.4406,310.7631 L45.418,310.7595 L45.7982,307.6259 L46.5714,304.5539 L46.9018,301.4125 L47.7216,298.3478 L47.8827,295.1798 L47.8176,295.1689 L48.1963,291.9333 L49.1978,288.8026 L49.2536,285.5126 L50.2558,282.3821 L50.5863,279.1384 L50.4301,279.1099 L51.3424,275.912 L52.0889,272.6839 L52.3856,269.3738 L52.6645,266.0605 L53.553,262.8582 L53.4246,262.8328 L54.0764,259.5739 L54.8654,256.3423 L55.365,253.0534 L56.17,249.8249 L56.7842,246.5587 L56.5798,246.5143 L57.1657,243.2697 L58.181,240.1185 L58.8925,236.9012 L59.5857,233.6799 L60.2813,230.4592 L60.491,230.5096 L60.8377,227.2761 L61.5822,224.1381 L62.4396,221.0272 L63.2954,217.9159 L64.0456,214.7793 L63.848,214.7263 L65.0802,211.8323 L65.9164,208.832 L66.7113,205.8207 L67.3319,202.7626 L68.0787,199.7384 L68.2934,199.8035 L68.8571,196.8769 L70.0372,194.1373 L70.3807,191.1439 L71.2244,188.3022 L72.3819,185.5558 L72.5973,185.631 L73.3305,182.9466 L74.3318,180.3558 L75.4261,177.7975 L75.7319,174.9639 L76.9567,172.4511 L77.2088,172.5546 L78.232,170.2151 L78.7127,167.6529 L79.8748,165.3705 L80.9895,163.0686 L81.8045,160.6436 L81.5593,160.5216 L82.9095,158.6256 L83.9612,156.581 L84.7876,154.4243 L85.7645,152.3425 L86.9267,150.3529 L86.9367,150.3602 L89.0982,147.2906 L91.1429,144.1357 L93.3049,141.0665 L96.0538,138.4261 L98,135.1992 L97.9694,135.1628 L99.9623,133.361 L102.1849,131.8323 L103.9666,129.7791 L106.4001,128.5016 L108.278,126.5628 L108.2246,126.4816 L110.445,124.9795 L112.7438,123.5967 L115.0202,122.1798 L117.3615,120.8617 L119.4812,119.2062 L119.3929,119.035 L121.8441,117.9176 L124.3631,116.9313 L126.7182,115.6278 L129.0404,114.2602 L131.4364,113.0358 L131.3267,112.7651 L133.9151,111.9511 L136.4951,111.1163 L139.0671,110.2619 L141.5294,109.1367 L143.97,107.958 L144.0482,108.2059 L146.4873,106.9189 L149.1873,106.4592 L151.6386,105.2108 L154.2761,104.5528 L156.9086,103.879 L156.9625,104.1025 L159.5042,103.085 L162.2089,102.7434 L164.8156,101.9953 L167.4308,101.2823 L170.0787,100.7053 L170.0644,100.6249 L172.7514,100.3842 L175.3965,99.9084 L178.0437,99.4449 L180.6841,98.9431 L183.307,98.3433 L183.2919,98.2225 L185.9093,97.8523 L188.5215,97.441 L191.2053,97.6 L193.7833,96.9159 L196.42,96.6992 " fill="none" style="stroke: #A80036; stroke-width: 1.0;"/><polygon fill="#A80036" points="201.51,96.2292,201.4761,96.1293,199.6353,95.5708,197.72,94.7926,195.9385,94.4092,194.0703,93.7701,192.1815,93.0701,192.14,93.0202,193.0683,93.8138,194.0736,94.7001,194.83,95.287,195.7413,96.06,196.531,96.6871,196.6773,96.8087,195.647,97.4234,195.1781,98.5049,194.3697,99.3041,193.4722,100.0292,192.9141,101.0365,192.8485,100.9192,194.7105,100.2132,196.3154,99.0473,197.9558,97.9451,199.7612,97.1377,201.51,96.2292" style="stroke: #A80036; stroke-width: 1.0;"/><path d="M36.69,352.6492 L36.5786,352.6363 L36.9708,349.118 L37.5267,345.6186 L37.6801,342.0726 L38.5983,338.6151 L38.7256,335.0661 L38.564,335.0395 L39.1187,331.1822 L40.0415,327.3856 L40.5144,323.5149 L41.1615,319.6729 L41.8878,315.8439 L41.658,315.7962 L42.0946,313.7957 L42.5704,311.8033 L43.0392,309.8095 L43.2827,307.7689 L43.9666,305.8197 L44.2397,305.8854 L44.403,303.7683 L45.0081,301.7576 L45.3788,299.6904 L46.1106,297.7101 L46.4174,295.6275 L46.102,295.54 L47.0741,293.5955 L47.6449,291.5397 L48.0119,289.4273 L48.6898,287.4012 L49.2701,285.348 L49.225,285.3336 L50.1588,283.3647 L50.5712,281.2294 L51.5314,279.269 L51.897,277.1187 L52.555,275.0617 L52.2473,274.9488 L53.187,272.9761 L54.1371,271.0073 L54.7739,268.9235 L55.3001,266.7991 L56.302,264.8493 L56.4255,264.9013 L57.2762,262.8909 L57.8325,260.7564 L58.9512,258.8589 L59.6148,256.7697 L60.5414,254.7912 L60.7133,254.8746 L61.2837,252.7248 L62.3968,250.8382 L63.4792,248.9366 L64.3865,246.9501 L65.3031,244.9682 L65.3012,244.9672 L66.6555,243.2286 L67.15,241.0094 L68.2312,239.1182 L69.7463,237.4695 L70.6172,235.4608 L70.5894,235.4428 L72.0646,233.8121 L73.1074,231.9015 L74.1365,229.982 L75.3239,228.1649 L76.5139,226.3496 L76.3161,226.2005 L77.8389,224.6401 L79.2685,223.0096 L80.4431,221.1867 L81.5992,219.35 L83.0232,217.7152 L83.242,217.909 L84.6665,216.2883 L86.0318,214.6153 L87.2561,212.8174 L88.5867,211.1136 L90.1752,209.6382 L90.1184,209.5785 L91.8517,208.2677 L93.1705,206.521 L94.7392,205.0372 L96.425,203.6765 L98,202.1992 L98.111,202.3466 L100.6077,200.4477 L103.1159,198.5641 L105.5448,196.575 L108.117,194.7764 L110.5297,192.7658 L110.4074,192.5509 L113.3279,191.3308 L116.051,189.7638 L118.6016,187.8939 L121.4423,186.5334 L124.1808,184.9936 L124.1096,184.8285 L126.9714,183.4863 L130.1113,182.7887 L132.9064,181.2919 L135.8373,180.1097 L138.6862,178.7373 L138.7406,178.9056 L141.7111,177.7802 L144.7956,177.0069 L147.6494,175.5208 L150.703,174.6519 L153.7788,173.8517 L153.708,173.5539 L156.8826,173.2091 L159.8825,172.1294 L162.9804,171.4618 L166.0651,170.7388 L169.1915,170.1914 L169.2391,170.4769 L172.2329,169.3649 L175.3269,168.8538 L178.4838,168.7199 L181.5469,168.0238 L184.6573,167.6111 L184.6397,167.4471 L187.6969,167.1814 L190.7567,166.9401 L193.832,166.8418 L196.8925,166.6066 L199.9092,165.9655 L199.9032,165.8616 L202.8448,165.4744 L205.8196,165.6586 L208.7778,165.5568 L211.742,165.5594 L214.68,165.1092 " fill="none" style="stroke: #A80036; stroke-width: 1.0;"/><polygon fill="#A80036" points="219.82,164.9592,219.8376,165.0022,217.9472,164.0875,216.1072,163.2957,214.4164,162.8672,212.4427,161.7497,210.7094,161.2179,210.8751,161.3933,211.3916,161.8461,212.5051,162.9311,213.3005,163.6792,213.9795,164.304,214.822,165.102,214.7347,165.0196,213.9348,165.8203,213.1736,166.6575,212.3749,167.4594,211.5909,168.2752,210.9379,169.2146,210.9441,169.2275,212.6368,168.2017,214.5765,167.6915,216.2935,166.7163,217.9573,165.6303,219.82,164.9592" style="stroke: #A80036; stroke-width: 1.0;"/><path d="M45.69,352.4492 L45.6816,352.4462 L46.6681,350.3991 L47.0475,348.1348 L48.0507,346.0937 L48.9684,344.022 L49.4971,341.8111 L49.2281,341.7014 L50.4011,339.6035 L51.2178,337.3602 L52.4623,335.2914 L53.1967,333.0146 L54.0013,330.7664 L53.9389,330.7372 L55.0323,328.5188 L56.0508,326.2653 L56.9512,323.9565 L58.4763,321.9402 L59.2441,319.5693 L59.3598,319.6321 L60.6472,317.458 L61.6555,315.1324 L62.9957,312.987 L64.0914,310.7088 L65.2675,308.4742 L65.1997,308.431 L66.4349,306.1979 L68.1318,304.2591 L69.5657,302.1526 L70.5742,299.7749 L72.113,297.7354 L72.2884,297.8689 L73.5018,295.5932 L75.0372,293.5625 L76.5066,291.4817 L78.3663,289.6979 L79.8225,287.607 L79.9161,287.694 L81.7893,285.9811 L83.3447,283.9725 L84.9799,282.0381 L86.9141,280.3818 L88.4376,278.3436 L88.2836,278.1627 L90.2825,276.6354 L92.195,275.0066 L94.1164,273.3882 L96.267,272.0388 L98,270.1992 L97.9687,270.1518 L100.4314,268.3512 L103.0265,266.7515 L105.705,265.2782 L108.2179,263.5539 L110.7186,261.811 L110.675,261.7266 L113.3282,260.1828 L116.2761,259.2088 L118.7889,257.3937 L121.6936,256.3361 L124.3344,254.7683 L124.2481,254.556 L127.1468,253.4958 L130.0424,252.4281 L133.014,251.5473 L135.6944,249.95 L138.6223,248.9617 L138.6347,249.0007 L141.4932,247.7859 L144.4954,247.0236 L147.4666,246.1638 L150.4683,245.3999 L153.3575,244.2817 L153.3413,244.2157 L156.38,243.6758 L159.3958,243.0425 L162.3647,242.2178 L165.3427,241.4304 L168.3148,240.6189 L168.3436,240.7751 L171.3408,240.2581 L174.2615,239.3262 L177.3008,239.0379 L180.312,238.5971 L183.2694,237.8639 L183.2929,238.0408 L186.2252,237.5512 L189.1261,236.8258 L192.1348,236.9114 L195.0467,236.2679 L197.9961,235.9071 L198.004,235.996 L200.8681,235.8478 L203.6763,235.0696 L206.5471,234.9959 L209.3995,234.7154 L212.27,234.6392 " fill="none" style="stroke: #A80036; stroke-width: 1.0;"/><polygon fill="#A80036" points="217.72,234.2992,217.6973,234.2386,215.9242,233.7389,214.0168,232.8809,212.2564,232.415,210.3173,231.4722,208.4966,230.8454,208.5566,230.9131,209.3168,231.5665,210.1586,232.3118,210.8984,232.9422,211.9889,233.968,212.729,234.5987,212.5444,234.435,211.8277,235.3116,211.2507,236.312,210.6327,237.2761,209.8951,238.1342,208.9757,238.8311,208.9269,238.7368,210.7207,237.9172,212.436,236.946,214.1961,236.0615,216.0169,235.2938,217.72,234.2992" style="stroke: #A80036; stroke-width: 1.0;"/><path d="M55.14,379.8092 L55.1201,379.7783 L56.9756,378.4368 L58.8767,377.1661 L60.8026,375.9339 L62.7965,374.8074 L64.752,373.6213 L64.8574,373.7988 L66.7765,372.1923 L68.926,370.974 L71.1647,369.9061 L73.1643,368.4352 L75.3738,367.318 L75.5299,367.6119 L77.5725,366.0408 L79.7317,364.6892 L82.1833,363.8881 L84.417,362.6766 L86.5936,361.3578 L86.5599,361.2833 L88.8077,360.1775 L91.0557,359.0722 L93.3892,358.1559 L95.625,357.0238 L98,356.1992 L97.9994,356.1978 L100.0601,355.1992 L102.2707,354.5867 L104.4719,353.9504 L106.5783,353.0695 L108.6394,352.072 L108.7084,352.2655 L110.7572,351.1155 L112.9334,350.3228 L115.0949,349.4892 L117.3426,348.8972 L119.5473,348.1847 L119.4734,347.9599 L121.8651,347.7486 L123.9254,346.5301 L126.2669,346.166 L128.3716,345.0824 L130.6519,344.5324 L130.7471,344.8449 L132.8572,343.715 L135.1068,343.0428 L137.3221,342.2579 L139.6766,341.9302 L141.8813,341.1105 L141.7919,340.7953 L144.1647,340.5664 L146.3676,339.7382 L148.5758,338.9284 L150.9715,338.7807 L153.1636,337.914 L153.1977,338.0431 L155.4459,337.431 L157.6736,336.741 L159.8706,335.9352 L162.1812,335.5593 L164.427,334.9381 L164.4151,334.8897 L166.613,334.1893 L168.8694,333.7258 L171.1548,333.3796 L173.2889,332.4211 L175.5998,332.1781 L175.5556,331.9875 L177.8234,331.7615 L179.9731,331.0259 L182.1424,330.3746 L184.376,330.0009 L186.61,329.6292 " fill="none" style="stroke: #A80036; stroke-width: 1.0;"/><polygon fill="#A80036" points="191.63,328.5092,191.5814,328.2683,189.6914,328.0816,187.7346,327.5644,185.834,327.3252,183.8593,326.7188,181.9754,326.5628,181.962,326.5418,183.0591,327.3724,183.7678,327.5919,184.963,328.5769,185.8338,329.0514,186.7497,329.5969,186.6894,329.5586,186.3051,330.6548,185.358,331.3934,184.8882,332.4354,184.1405,333.3007,183.7157,334.3713,183.5715,334.1766,185.2611,333.1482,186.971,332.1474,188.4538,330.84,190.1473,329.8168,191.63,328.5092" style="stroke: #A80036; stroke-width: 1.0;"/><path d="M55.34,394.1992 L55.34,394.6582 L65.6192,393.4231 L75.8985,394.4815 L86.1777,393.384 L96.4569,393.3902 L106.7362,394.4926 L117.0154,395.1229 L127.2946,394.8151 L137.5738,394.1042 L147.8531,393.9225 L158.1323,394.8221 L168.4115,394.5319 L178.6908,393.3347 L188.97,394.1992 " fill="none" style="stroke: #A80036; stroke-width: 1.0;"/><polygon fill="#A80036" points="193.99,394.1992,193.8911,393.9768,192.2167,393.4593,190.3205,392.4428,188.6765,391.9939,186.7657,390.9446,184.99,390.1992,185.0188,390.228,185.724,390.9332,186.4683,391.6776,187.2619,392.4711,188.2006,393.4098,188.99,394.1992,188.8867,394.0959,188.3008,395.11,187.3426,395.7518,186.6061,396.6153,185.8309,397.4401,184.99,398.1992,184.9955,398.2117,186.78,397.3767,188.614,396.6532,190.341,395.6889,192.1357,394.8771,193.99,394.1992" style="stroke: #A80036; stroke-width: 1.0;"/><path d="M55.08,408.7392 L54.9724,408.5728 L57.1766,410.2535 L59.0931,411.4891 L60.8577,412.4898 L62.7564,413.698 L64.6817,414.9473 L64.5806,414.7766 L66.9373,416.4268 L68.847,417.3225 L71.0285,418.6768 L73.3113,420.2023 L75.3062,421.2417 L75.2051,421.0493 L77.6726,422.6481 L79.7501,423.5048 L81.9161,424.5297 L84.336,426.0379 L86.5477,427.1498 L86.5395,427.1314 L88.7482,427.9558 L91.0128,428.907 L93.3218,429.9588 L95.6489,431.0518 L98,432.1992 L98.0643,432.3735 L100.5592,433.3725 L103.0093,434.2504 L105.3901,434.9404 L107.9124,436.0138 L110.3073,436.7421 L110.327,436.8018 L112.77,437.3747 L115.3,438.2104 L117.8197,439.0153 L120.4519,440.1598 L122.96,440.9294 L123.0028,441.0728 L125.4582,441.4328 L128.0654,442.3014 L130.597,442.9167 L133.2949,444.0893 L135.8471,444.7737 L135.7897,444.561 L138.401,445.2982 L140.9792,445.9128 L143.7183,447.1226 L146.2832,447.6879 L148.8575,448.288 L148.8456,448.2394 L151.3931,448.6465 L154.0995,449.7008 L156.7423,450.4964 L159.2447,450.7197 L161.8801,451.4849 L161.8412,451.3113 L164.5295,452.3523 L167.0211,452.5146 L169.5949,453.0443 L172.1842,453.6433 L174.8037,454.3772 L174.8604,454.6541 L177.3063,454.701 L179.9064,455.5012 L182.4951,456.2464 L185.0319,456.7371 L187.5174,456.9777 L187.4601,456.6717 L190.0339,457.6448 L192.5261,458.1821 L194.9485,458.3468 L197.4538,458.9543 L199.91,459.2992 " fill="none" style="stroke: #A80036; stroke-width: 1.0;"/><polygon fill="#A80036" points="205.09,460.2192,205.2149,460.4056,203.3649,458.9902,201.7905,457.986,200.1875,456.939,198.5195,455.7951,196.9085,454.7363,197.078,454.8556,197.5007,455.6201,198.1696,456.5579,198.8455,457.5006,199.509,458.4346,200.1639,459.3625,200.2739,459.5187,199.2198,459.9868,198.3892,460.7724,197.333,461.2373,196.3924,461.8666,195.5377,462.618,195.5473,462.6562,197.4615,462.1913,199.4051,461.8436,201.2547,461.1213,203.169,460.6571,205.09,460.2192" style="stroke: #A80036; stroke-width: 1.0;"/><path d="M48.7,435.7292 L48.9291,435.8283 L49.3803,437.5443 L50.1822,439.412 L51.3759,441.4492 L52.2226,443.3363 L52.7465,445.0837 L52.8625,445.1392 L53.4237,446.8958 L54.6607,448.9759 L55.6415,450.9334 L56.3604,452.7655 L57.3664,454.735 L57.1533,454.6213 L58.2409,456.5972 L59.1941,458.5014 L60.4587,460.5718 L61.6597,462.6084 L62.5753,464.4925 L62.4481,464.416 L63.4988,466.2833 L64.9499,468.3913 L66.0975,470.3168 L67.2769,472.2614 L68.3888,474.1655 L68.5977,474.3085 L69.7313,476.0833 L71.1753,478.0705 L72.4061,479.9118 L73.7294,481.8164 L74.8224,483.5633 L74.7367,483.4955 L76.3357,485.4284 L77.6748,487.1557 L78.9918,488.8654 L80.3115,490.5773 L81.8917,492.4953 L81.9953,492.5919 L83.2493,493.9763 L84.7798,495.6187 L86.7199,497.6432 L87.8262,498.8899 L89.6124,500.7708 L89.7466,500.9223 L91.1549,502.104 L93.108,503.9008 L94.5696,505.1427 L96.3978,506.7986 L98,508.1992 L98.1479,508.405 L100.6227,510.1841 L103.1124,511.984 L105.526,513.678 L107.9729,515.4183 L110.372,517.0922 L110.4355,517.1993 L112.8779,518.4227 L115.8163,520.4835 L118.1418,521.5094 L120.8445,523.1721 L123.6037,524.9305 L123.4933,524.7067 L126.4484,526.4388 L129.1614,527.6801 L131.9117,528.9972 L134.7639,530.5205 L137.4861,531.7806 L137.4712,531.7448 L140.3561,532.979 L143.0942,533.8586 L146.0328,535.2226 L148.9467,536.527 L151.81,537.7092 " fill="none" style="stroke: #A80036; stroke-width: 1.0;"/><polygon fill="#A80036" points="156.73,539.5292,156.7642,539.5644,155.4714,538.3132,153.868,536.7428,152.6074,535.5248,150.9457,533.8944,149.6706,532.6615,149.6759,532.6639,150.2979,533.7597,150.7715,534.7872,151.0856,535.741,151.6552,536.8127,152.039,537.7987,151.9743,537.6583,150.9509,538.1408,150.0087,538.7993,148.9125,539.124,147.9318,539.6988,146.9018,540.1671,146.9158,540.3818,148.8832,540.2816,150.8483,540.1459,152.7977,539.7691,154.7522,539.4698,156.73,539.5292" style="stroke: #A80036; stroke-width: 1.0;"/><path d="M34.94,435.7092 L34.7533,435.6966 L35.2308,439.6996 L35.4853,443.6875 L36.0347,447.6952 L36.204,451.6774 L36.2846,455.6536 L35.9993,455.6245 L36.5598,457.8309 L36.703,459.9949 L36.6995,462.1439 L37.1688,464.341 L37.3889,466.5128 L37.1513,466.4824 L37.4406,468.746 L37.956,471.0385 L38.2906,473.3078 L38.4979,475.5609 L38.8363,477.8308 L38.86,477.8345 L39.3434,480.1883 L39.8967,482.5531 L40.2147,484.8809 L40.1917,487.1553 L40.668,489.5079 L40.4657,489.4697 L41.4082,491.9499 L41.8085,494.3276 L42.3492,496.7318 L42.519,499.0659 L42.9254,501.4447 L43.0869,501.4811 L43.3128,503.8287 L43.9909,506.278 L44.6302,508.7187 L45.0716,511.1148 L45.6498,513.5417 L45.7104,513.5578 L46.1577,515.9363 L47.1163,518.4508 L47.5586,520.828 L48.3023,523.2853 L48.8825,525.6992 L48.9683,525.726 L49.4809,528.0736 L50.5494,530.5947 L51.378,533.041 L52.1096,535.4569 L52.6648,537.8179 L52.62,537.8015 L53.238,540.1039 L54.6967,542.7131 L55.0278,544.9107 L56.0192,547.3494 L57.038,549.7981 L57.1638,549.8517 L57.7474,552.0222 L58.7947,554.3903 L59.9203,556.7919 L60.8909,559.1273 L62.0435,561.5404 L61.7708,561.4046 L63.2324,563.8478 L64.6029,566.2456 L65.6342,568.4745 L66.2906,570.5167 L67.7225,572.9452 L67.7331,572.9514 L68.7152,574.972 L69.9928,577.1649 L71.5971,579.5482 L72.8607,581.7329 L74.1163,583.913 L73.8879,583.7564 L75.5267,585.9857 L77.2427,588.268 L78.3506,590.1336 L79.62,592.1098 L81.2663,594.3443 L81.2749,594.3512 L82.7633,596.2283 L84.4886,598.2975 L85.8662,600.0846 L87.6433,602.1959 L89.2138,604.1395 L89.4246,604.344 L91.0533,606.0312 L92.5866,607.626 L94.5133,609.6023 L96.0393,611.1899 L98,613.1992 L98.0298,613.2342 L99.4732,614.3865 L101.5081,616.2336 L103.2394,617.7242 L104.5909,618.7685 L106.3954,620.3449 L106.4664,620.4459 L108.1927,621.605 L110.0367,622.9315 L111.7003,624.0014 L113.7069,625.559 L115.4097,626.6847 L115.36,626.5998 L117.2556,627.6941 L119.2782,629.0057 L121.2353,630.2052 L122.9952,631.0676 L124.9504,632.2639 L124.8263,632.0094 L127.0347,633.4201 L129.0521,634.439 L130.8956,635.1012 L132.9935,636.2851 L134.925,637.128 L134.8802,637.0177 L136.9351,637.8363 L139.13,638.9992 L141.2338,639.938 L143.1913,640.5168 L145.2408,641.3222 L145.2969,641.4883 L147.4489,642.3179 L149.4419,642.6769 L151.5769,643.4563 L153.7182,644.2542 L155.8053,644.8919 L155.7508,644.6965 L158.0275,645.7697 L160.1554,646.3098 L162.1618,646.4141 L164.3597,647.2052 L166.5259,647.8824 L166.5636,648.0481 L168.6328,648.1546 L170.8614,648.9611 L172.962,649.2055 L175.1264,649.7304 L177.31,650.3392 " fill="none" style="stroke: #A80036; stroke-width: 1.0;"/><polygon fill="#A80036" points="182.29,651.3092,182.2322,651.2267,180.6206,650.1005,179.0111,648.9774,177.5526,648.07,175.731,646.6439,174.2207,645.6624,174.0947,645.5775,174.8296,646.5848,175.5136,647.5578,175.9735,648.3798,176.6479,649.3464,177.3822,650.3533,177.268,650.1839,176.5648,651.1649,175.6222,651.7905,174.6814,652.419,173.5877,652.8205,172.6913,653.5149,172.6764,653.4499,174.6469,653.23,176.4988,652.4936,178.409,652.0106,180.3749,651.7706,182.29,651.3092" style="stroke: #A80036; stroke-width: 1.0;"/><path d="M38.46,435.7992 L38.6694,435.8206 L38.9905,441.9179 L39.5216,448.0366 L40.2329,454.1737 L40.8506,460.3013 L41.5872,466.441 L41.4179,466.4216 L42.054,469.9026 L42.3652,473.3466 L42.677,476.7905 L43.0048,480.2364 L43.5596,483.7081 L43.4513,483.6947 L44.2054,487.3726 L44.2009,490.9565 L45.0305,494.6438 L45.5574,498.2935 L45.8155,501.91 L45.5874,501.8792 L46.4797,505.7038 L46.6875,509.436 L47.4521,513.2433 L47.9478,517.0144 L48.3631,520.7745 L48.201,520.7506 L49.1442,524.6568 L49.5081,528.4774 L49.8047,532.2881 L50.9269,536.2208 L51.2106,540.0296 L51.3887,540.0586 L51.6644,543.8754 L52.5681,547.7945 L53.0239,551.6406 L53.7277,555.5272 L54.3665,559.4031 L54.6479,559.454 L54.7493,563.1908 L55.9969,567.1347 L56.4302,570.9315 L57.45,574.8342 L57.8388,578.623 L57.8642,578.6281 L58.6185,582.3859 L59.5486,586.1792 L60.1032,589.8967 L60.8685,593.6567 L61.6358,597.4171 L61.671,597.4251 L62.7375,601.0993 L63.055,604.6025 L64.2079,608.2964 L65.1503,611.9422 L65.7658,615.5134 L65.678,615.4905 L66.703,618.9499 L67.8493,622.4409 L68.2423,625.7354 L69.1673,629.1687 L70.237,632.6397 L70.2142,632.6328 L70.9629,635.7443 L72.391,639.062 L73.3961,642.2513 L74.085,645.3446 L75.0577,648.5241 L74.7481,648.4125 L76.1796,651.4292 L77.0277,654.2356 L78.2129,657.1636 L79.4575,660.1129 L80.2361,662.8943 L80.4889,663.0057 L81.5465,665.4999 L82.5426,667.967 L83.8078,670.5527 L84.8751,673.0511 L85.7804,675.4783 L85.5006,675.3209 L86.954,677.5777 L88.4262,679.845 L89.438,681.8535 L90.3099,683.7833 L91.699,686.0039 L91.9615,686.2058 L93.078,687.7343 L94.4132,689.4311 L95.3221,690.8 L96.5544,692.4176 L98,694.1992 L98.0158,694.216 L100.3048,696.3822 L102.16,698.0863 L104.3708,700.1691 L106.7751,702.4581 L108.7552,704.2952 L108.9059,704.5004 L111.0646,705.9475 L113.4378,707.6866 L115.7923,709.4002 L118.3882,711.4426 L120.6513,713.0317 L120.7116,713.1351 L123.2905,714.6577 L125.7972,716.0564 L128.2336,717.3347 L131.0367,719.2415 L133.4642,720.5045 L133.382,720.3284 L136.1852,721.8079 L138.8756,723.0459 L141.4413,724.0166 L144.2828,725.5782 L146.97,726.8092 " fill="none" style="stroke: #A80036; stroke-width: 1.0;"/><polygon fill="#A80036" points="151.67,728.6992,151.7213,728.749,150.4587,727.4384,148.9043,725.8452,147.6812,724.573,146.3267,723.1735,144.818,721.6246,144.6706,721.5619,145.196,722.6381,145.6834,723.6981,146.3344,724.8277,146.6016,725.794,147.0326,726.83,147.0036,726.7618,146.0672,727.4508,145.0269,727.8957,143.9748,728.3126,142.9578,728.8121,141.8272,729.0445,141.827,729.0381,143.7987,729.0602,145.7617,728.8313,147.7359,728.9247,149.6999,728.7246,151.67,728.6992" style="stroke: #A80036; stroke-width: 1.0;"/><path d="M62.07,884.9692 L62.0845,885.0444 L72.3938,883.5953 L82.6302,881.7692 L92.6397,878.7681 L102.814,876.6202 L113.2092,875.616 L123.3269,873.1748 L133.3627,870.3098 L143.7153,869.0852 L153.8388,866.6744 L164.1739,865.359 L174.2304,862.6013 L184.57,861.3092 " fill="none" style="stroke: #A80036; stroke-width: 1.0;"/><polygon fill="#A80036" points="189.67,860.3192,189.7064,860.4754,187.727,859.7676,185.8472,859.4874,183.8887,858.8687,181.9997,858.549,180.0775,858.0867,180.1393,858.1778,180.9636,858.6474,181.9185,859.3096,182.8572,859.9479,183.7888,860.5757,184.7596,861.2613,184.8205,861.3026,184.2266,862.2669,183.4427,863.1023,182.9206,864.1152,182.3696,865.1085,181.5849,865.9434,181.7027,866.1127,183.1551,864.7512,184.7876,863.6486,186.5007,862.6619,187.9786,861.3371,189.67,860.3192" style="stroke: #A80036; stroke-width: 1.0;"/><path d="M62.07,895.4292 L62.0801,895.4816 L71.9996,896.4628 L82.2899,899.3637 L92.2897,900.7606 L102.4924,903.2082 L112.5774,905.0461 L122.7844,907.516 L132.7713,908.8461 L142.9691,911.2682 L152.8715,912.1611 L163.14,914.9492 " fill="none" style="stroke: #A80036; stroke-width: 1.0;"/><polygon fill="#A80036" points="168.24,915.9392,168.1276,915.7777,166.5462,914.704,165.0224,913.7132,163.3511,912.5103,161.8813,911.5971,160.1549,910.3151,159.9591,910.1823,160.7039,911.1932,161.3101,912.1101,162.1534,913.1878,162.5972,913.9946,163.3296,914.9971,163.4198,915.1301,162.2909,915.4812,161.4375,916.2386,160.5296,916.9156,159.4904,917.3989,158.6475,918.1718,158.6933,918.3684,160.5807,917.7883,162.455,917.1521,164.4511,917.0388,166.2701,916.1648,168.24,915.9392" style="stroke: #A80036; stroke-width: 1.0;"/></g></svg>