<?xml version="1.0" encoding="UTF-8" standalone="no"?><svg xmlns="http://www.w3.org/2000/svg" xmlns:xlink="http://www.w3.org/1999/xlink" contentScriptType="application/ecmascript" contentStyleType="text/css" height="702px" preserveAspectRatio="none" style="width:525px;height:702px;" version="1.1" viewBox="0 0 525 702" width="525px" zoomAndPan="magnify"><defs><filter height="300%" id="fsx435j" width="300%" x="-1" y="-1"><feGaussianBlur result="blurOut" stdDeviation="2.0"/><feColorMatrix in="blurOut" result="blurOut2" type="matrix" values="0 0 0 0 0 0 0 0 0 0 0 0 0 0 0 0 0 0 .4 0"/><feOffset dx="4.0" dy="4.0" in="blurOut2" result="blurOut3"/><feBlend in="SourceGraphic" in2="blurOut3" mode="normal"/></filter></defs><g><text fill="#000000" font-family="sans-serif" font-size="18" lengthAdjust="spacingAndGlyphs" textLength="270" x="136" y="17.4023">ユースケース：検索インデックス</text><!--cluster 検索インデックス--><polygon fill="#FFFFFF" filter="url(#fsx435j)" points="134,45.1992,134,45.5841,143.8333,44.5542,153.6667,45.9427,163.5,45.2913,173.3333,45.7584,183.1667,45.5187,193,45.2082,202.8333,45.4273,212.6667,45.8952,222.5,45.5695,232.3333,45.0828,242.1667,45.2252,252,45.1992,252.2085,45.2641,253.5196,49.7341,254.7569,54.1811,256.2154,58.697,257.5516,63.1748,259,67.6875,259,67.2406,268.7059,68.0917,278.4118,66.9653,288.1176,68.2532,297.8235,67.6129,307.5294,67.782,317.2353,67.4371,326.9412,68.1625,336.6471,67.2675,346.3529,67.7338,356.0588,67.1979,365.7647,67.4793,375.4706,67.3779,385.1765,68.2127,394.8824,68.0276,404.5882,67.8569,414.2941,68.1026,424,67.6875,424.0846,67.6875,424.0419,77.648,424.3018,87.6085,424.5066,97.569,424.3244,107.5295,423.8119,117.49,424.1689,127.4505,423.2731,137.411,423.4899,147.3715,423.7255,157.332,423.7307,167.2925,423.4115,177.253,424.4196,187.2135,424.2395,197.174,423.7038,207.1345,423.694,217.0951,423.3431,227.0556,423.2919,237.0161,423.3409,246.9766,424.0234,256.9371,424.2282,266.8976,424.5968,276.8581,424.3687,286.8186,423.4941,296.7791,423.779,306.7396,424.0738,316.7001,423.9293,326.6606,423.2832,336.6211,423.2886,346.5816,423.5225,356.5421,423.5155,366.5026,424.4737,376.4631,423.8582,386.4236,424.65,396.3841,424.4847,406.3446,423.257,416.3051,424.5049,426.2656,424.3862,436.2261,423.2846,446.1866,423.8946,456.1471,423.8933,466.1076,424.0782,476.0681,424.5298,486.0286,423.3214,495.9891,423.3425,505.9497,424.1345,515.9102,424.5201,525.8707,423.8603,535.8312,423.3802,545.7917,423.5053,555.7522,424.702,565.7127,424.1788,575.6732,423.9383,585.6337,424.0197,595.5942,423.9377,605.5547,423.8594,615.5152,423.8091,625.4757,423.5721,635.4362,424.2565,645.3967,423.7749,655.3572,423.7127,665.3177,423.4414,675.2782,423.5391,685.2387,424,695.1992,424,695.5554,414,695.4547,404,694.8533,394,695.4962,384,695.0145,374,695.896,364,694.9509,354,694.5917,344,695.1389,334,695.4773,324,695.3015,314,695.3656,304,695.9042,294,695.6115,284,694.7051,274,695.2219,264,694.8634,254,695.4712,244,694.4771,234,694.7538,224,695.0548,214,695.4668,204,694.9585,194,694.9801,184,694.5415,174,694.7528,164,694.4937,154,695.7024,144,695.634,134,695.1992,134.0569,695.1992,134.1398,685.1992,134.6871,675.1992,134.1746,665.1992,133.578,655.1992,133.5097,645.1992,134.116,635.1992,133.754,625.1992,133.2764,615.1992,134.5507,605.1992,133.8662,595.1992,134.7261,585.1992,133.8134,575.1992,133.9325,565.1992,134.4053,555.1992,133.617,545.1992,134.0949,535.1992,134.4806,525.1992,134.3188,515.1992,133.8837,505.1992,134.423,495.1992,134.3372,485.1992,133.8314,475.1992,133.5767,465.1992,134.4413,455.1992,133.5243,445.1992,133.3995,435.1992,134.5551,425.1992,134.0308,415.1992,133.9994,405.1992,133.7169,395.1992,133.6719,385.1992,133.7978,375.1992,133.3446,365.1992,133.994,355.1992,133.9934,345.1992,134.4702,335.1992,133.5955,325.1992,133.8419,315.1992,133.8423,305.1992,133.4113,295.1992,133.4267,285.1992,134.5158,275.1992,134.2574,265.1992,134.0421,255.1992,134.4323,245.1992,134.6528,235.1992,133.3431,225.1992,133.2601,215.1992,133.6047,205.1992,134.4653,195.1992,133.9426,185.1992,133.932,175.1992,134.296,165.1992,134.6398,155.1992,134.6066,145.1992,133.7404,135.1992,133.4633,125.1992,133.4221,115.1992,133.9419,105.1992,134.0618,95.1992,133.8393,85.1992,133.5666,75.1992,134.6236,65.1992,134.659,55.1992,134,45.1992" style="stroke: #000000; stroke-width: 2.0;"/><path d="M134,67.6875 L134,66.8125 L143.6154,67.6382 L153.2308,67.8491 L162.8462,66.7239 L172.4615,67.7466 L182.0769,67.497 L191.6923,68.4094 L201.3077,68.0151 L210.9231,67.4305 L220.5385,68.522 L230.1538,66.9149 L239.7692,66.8809 L249.3846,66.928 L259,67.6875 " fill="#FFFFFF" style="stroke: #000000; stroke-width: 2.0;"/><text fill="#000000" font-family="sans-serif" font-size="14" font-weight="bold" lengthAdjust="spacingAndGlyphs" textLength="112" x="138" y="60.7344">検索インデックス</text><polygon fill="#FEFECE" filter="url(#fsx435j)" points="407.7566,295.1174,403.9684,299.6228,395.458,303.5414,381.4145,306.5537,367.8288,309.8196,356.396,313.5562,336.5743,315.3053,321.2027,317.7239,298.9925,318.2019,279.7691,318.7559,257.046,317.8508,241.6364,317.7504,218.8373,315.16,203.878,313.3499,189.1502,310.621,176.6542,307.3984,164.8416,303.3558,156.7614,299.1956,152.3933,294.9723,150.0379,290.3949,149.6198,285.547,157.9357,282.0315,162.2373,277.1928,172.2248,273.2938,187.3837,270.3718,204.443,267.8653,221.3905,265.4878,238.0163,263.3434,256.6434,262.082,277.8761,261.9673,301.4103,263.0497,320.2156,263.8925,339.7903,265.778,354.5023,267.534,367.6489,269.9172,385.4942,274.3092,393.5593,277.5326,402.4285,281.8653,404.4517,285.576,406.9326,290.1808" style="stroke: #A80036; stroke-width: 1.5;"/><text fill="#000000" font-family="sans-serif" font-size="14" lengthAdjust="spacingAndGlyphs" textLength="238" x="159.9371" y="295.1308">コンテンツ作成時に連携して作成する</text><polygon fill="#FEFECE" filter="url(#fsx435j)" points="406.599,203.8644,400.4482,207.8532,393.0129,212.0068,383.7428,216.0626,369.9172,219.2761,353.4979,221.9226,338.6146,224.7513,317.3234,225.8759,296.8703,226.738,279.7393,227.7494,257.3075,226.908,237.9834,225.9518,220.722,224.572,203.5506,222.2784,189.3343,219.6613,175.6955,216.1889,162.9247,211.9367,156.5921,208.1586,151.7,203.8207,152.4336,199.9187,150.4296,194.724,157.4499,190.9253,165.4394,186.8928,176.8275,183.3,186.2555,179.1252,201.3661,176.1926,222.2213,174.6694,240.851,172.9631,257.8255,171.3404,280.2095,171.4774,300.9949,171.9589,319.2685,172.6854,337.3721,174.2493,354.2545,176.4798,370.509,179.5425,382.233,182.5963,394.3827,186.7126,399.3383,190.1898,404.6908,194.6283,409.5539,199.7538" style="stroke: #A80036; stroke-width: 1.5;"/><text fill="#000000" font-family="sans-serif" font-size="14" lengthAdjust="spacingAndGlyphs" textLength="238" x="159.9371" y="204.1308">コンテンツ更新時に連携して更新する</text><polygon fill="#FEFECE" filter="url(#fsx435j)" points="408.6651,113.3161,403.5603,117.5335,393.7229,121.162,383.8292,125.0815,368.6875,128.0073,353.9349,131.0181,335.1745,132.9993,316.5679,134.7107,299.6388,136.3432,278.3241,136.44,257.2106,135.8868,237.4523,134.8357,220.5175,133.5273,203.2372,131.2098,185.6166,127.8485,174.088,124.8374,166.4919,121.7166,154.1405,116.6226,153.4889,113.2118,152.2984,108.8891,153.988,104.502,158.1911,100.0873,164.5999,95.7093,175.0241,91.9058,185.4656,87.9525,202.3047,85.3978,221.4775,83.5068,238.4201,81.4316,258.1281,80.4066,277.968,79.9874,297.271,80.1448,320.0064,81.8467,335.9944,82.9482,353.828,85.3866,369.8109,88.3899,385.5817,92.3284,394.561,95.7516,400.6481,99.4761,404.117,103.5028,407.8169,108.3741" style="stroke: #A80036; stroke-width: 1.5;"/><text fill="#000000" font-family="sans-serif" font-size="14" lengthAdjust="spacingAndGlyphs" textLength="238" x="159.9371" y="113.1308">コンテンツ削除時に連携して削除する</text><polygon fill="#FEFECE" filter="url(#fsx435j)" points="355.9675,664.0485,352.0344,666.558,349.4158,669.6562,341.5575,671.7402,332.9689,673.754,323.4991,675.5646,315.2925,677.5682,303.9572,678.6559,290.5506,678.9803,280.1332,679.6245,266.1886,679.0106,253.8285,678.2535,242.4633,677.1655,233.9652,676.1408,224.8343,674.3491,214.3308,671.612,208.2273,669.2688,204.8965,666.967,200.0384,663.7527,199.7782,661.0902,200.1694,658.1333,205.3427,655.9098,208.7978,653.0045,215.0724,650.5553,224.025,648.6254,234.2947,646.9993,244.5412,645.4662,254.7536,644.1196,267.6626,643.6804,278.2226,643.069,290.9837,643.41,303.9331,644.3031,313.1637,644.8986,324.1066,646.4872,333.0006,648.2243,341.8039,650.5692,349.121,653.1924,354.7785,656.0309,357.5808,658.771,355.8875,660.9829" style="stroke: #A80036; stroke-width: 1.5;"/><text fill="#000000" font-family="sans-serif" font-size="14" lengthAdjust="spacingAndGlyphs" textLength="126" x="215.7871" y="666.0008">検索・一覧表示する</text><polygon fill="#FEFECE" filter="url(#fsx435j)" points="320.8058,461.5255,320.0025,464.0228,316.4951,465.8212,313.5361,467.9661,308.4297,469.4519,304.8076,471.4485,298.2958,472.3708,291.5551,473.0566,286.4197,474.0631,278.3885,473.773,272.6249,473.9023,266.0191,473.3288,260.0326,472.5136,253.6373,471.0723,249.4625,469.8909,244.5767,467.9543,241.226,466.0418,238.8002,463.9622,236.7556,461.5588,236.2504,459.2723,237.8531,457.3502,237.861,454.5792,241.8086,452.9323,244.2716,450.6167,248.1371,448.7038,254.6936,447.717,259.4565,446.1929,265.1224,445.1372,272.0213,444.7376,278.8322,444.6078,286.3833,445.0936,292.4192,445.4709,297.6423,446.0235,304.5243,447.6323,308.9962,448.916,312.8856,450.5096,317.7375,452.9387,319.896,454.9264,320.6505,456.8857,321.1783,459.1801" style="stroke: #A80036; stroke-width: 1.5;"/><text fill="#000000" font-family="sans-serif" font-size="14" lengthAdjust="spacingAndGlyphs" textLength="56" x="251.098" y="464.1023">削除する</text><polygon fill="#FEFECE" filter="url(#fsx435j)" points="340.4026,526.3909,336.8714,528.3423,334.3415,530.7663,329.9519,532.9051,323.5299,534.639,315.3656,535.9569,306.1024,536.9319,297.0631,537.8014,289.2259,538.7245,279.5231,538.8997,270.0889,538.7754,258.9229,537.8215,249.6625,536.8644,243.2422,536.0963,235.8186,534.5807,229.6139,532.8418,224.1784,530.7787,219.9344,528.5109,217.0545,526.1106,217.2979,524.0401,218.3498,521.7989,219.7931,519.3489,223.6535,517.2427,227.7778,515.0405,235.8254,513.6948,242.6117,512.0479,251.2527,510.9243,260.0272,509.9916,268.1554,509.138,278.3898,509.0897,287.5117,509.1394,298.1506,509.9674,306.8161,510.7825,315.9285,512.1934,322.3174,513.462,329.2883,515.3838,334.9959,517.512,338.3823,519.5749,339.2776,521.5013,340.3048,523.8753" style="stroke: #A80036; stroke-width: 1.5;"/><text fill="#000000" font-family="sans-serif" font-size="14" lengthAdjust="spacingAndGlyphs" textLength="84" x="236.8485" y="528.7131">一括削除する</text><polygon fill="#FEFECE" filter="url(#fsx435j)" points="349.2994,593.4299,349.4579,596.6659,344.0999,598.8834,336.5386,600.7692,329.0744,602.7698,323.1107,605.1201,312.2766,606.2431,301.0876,607.1014,289.75,607.6578,279.0771,608.0231,267.3146,607.7181,257.816,607.4645,246.1169,606.1733,236.2807,604.7565,226.5054,602.7724,220.4626,601.0695,214.7565,598.8636,210.3002,596.3891,208.4925,594.0074,205.3834,590.846,208.0044,588.6039,209.2623,585.6981,215.1794,583.6109,219.5229,580.9751,227.962,579.2017,236.1915,577.3796,244.6873,575.7116,255.5284,574.7721,266.488,574.1276,280.4635,574.5321,289.3869,574.1754,301.3557,575.0048,312.2134,576.0997,321.4745,577.3825,330.0579,579.0888,336.718,580.9356,343.2696,583.3386,347.9981,585.8765,349.5264,588.1931,352.038,591.2152" style="stroke: #A80036; stroke-width: 1.5;"/><text fill="#000000" font-family="sans-serif" font-size="14" lengthAdjust="spacingAndGlyphs" textLength="112" x="223.0352" y="595.8504">優先度を変更する</text><polygon fill="#FEFECE" filter="url(#fsx435j)" points="404.4337,385.391,404.0446,390.6394,392.1225,393.8122,384.0012,398.1191,369.1305,401.1042,356.9408,404.6753,336.0943,406.2003,320.1252,408.4883,299.9342,409.4078,279.7921,409.761,257.9795,409.0549,236.803,407.6938,218.8841,406.1702,201.9171,403.9213,186.2115,400.9786,176.1745,398.2936,165.3838,394.4743,158.6378,390.6058,153.7605,386.2712,150.8969,381.5827,153.442,377.3826,156.5557,372.7298,164.7853,368.7498,173.2315,364.5139,189.1001,361.747,203.4766,358.654,219.1433,355.9966,237.8079,354.2978,257.018,353.1639,280.3182,353.5012,301.2398,354.0124,316.7898,354.1435,337.9994,356.3865,352.8697,358.1771,368.4671,361.0961,383.6197,364.8994,393.4402,368.5066,402.8676,372.9613,408.2704,377.4108,407.4215,381.2877" style="stroke: #A80036; stroke-width: 1.5;"/><text fill="#000000" font-family="sans-serif" font-size="14" lengthAdjust="spacingAndGlyphs" textLength="238" x="159.9371" y="386.1308">フロントページで検索・一覧表示する</text><!--entity 閲覧ユーザー--><polygon fill="#FEFECE" filter="url(#fsx435j)" points="56.1411,351.888,54.9777,353.2078,54.1055,354.3166,53.213,356.1663,51.8708,356.7804,50.29,357.6355,48.6501,357.7824,46.9091,357.9291,45.1989,356.9083,43.112,355.7755,41.6199,354.5261,41.0251,352.6468,39.9776,351.3068,39.8836,348.7639,39.8752,347.2344,41.6017,345.2839,42.9596,342.8601,44.7439,342.4479,46.9852,342.0423,48.9351,341.4514,51.2677,342.9031,53.1899,343.9228,55.2486,345.5274,55.5208,348.0473,56.4182,350.1761" style="stroke: #A80036; stroke-width: 2.0;"/><path d="M48,357.6992 L48.3464,357.6992 L47.7913,363.0992 L47.5266,368.4992 L48.1701,373.8992 L47.5448,379.2992 L48,384.6992 M35,365.6992 L35,366.0631 L40.2,365.2959 L45.4,366.3077 L50.6,366.2623 L55.8,365.5281 L61,365.6992 M48,384.6992 L47.6469,384.3932 L45.1981,387.5242 L43.1986,391.0447 L39.9425,393.476 L37.4374,396.5583 L35,399.6992 M48,384.6992 L48.15,384.8292 L50.4284,387.5505 L53.4173,390.8875 L55.5887,393.5161 L58.6182,396.8883 L61,399.6992 " fill="#FEFECE" style="stroke: #A80036; stroke-width: 2.0;"/><text fill="#000000" font-family="sans-serif" font-size="14" lengthAdjust="spacingAndGlyphs" textLength="84" x="6" y="420.2344">閲覧ユーザー</text><!--entity ユーザー--><polygon fill="#FEFECE" filter="url(#fsx435j)" points="503.2831,169.5767,502.9219,170.9095,502.1588,172.1755,501.1281,173.8648,499.8302,175.1948,497.1398,175.4237,495.2527,175.9542,493.5115,174.9098,491.5364,174.1194,489.3721,173.0193,488.3854,170.3688,488.5336,168.8499,487.8867,166.8799,489.1554,164.6194,489.7887,162.4078,491.2199,160.8751,493.3425,160.475,495.6065,159.882,497.6358,160.256,499.4306,160.4129,501.8321,161.7825,503.2747,163.3904,503.5206,166.1529,504.3524,168.3362" style="stroke: #A80036; stroke-width: 2.0;"/><path d="M496,175.6992 L495.5983,175.6992 L496.553,181.0992 L495.6499,186.4992 L496.0087,191.8992 L496.0227,197.2992 L496,202.6992 M483,183.6992 L483,184.3293 L488.2,183.834 L493.4,183.4239 L498.6,183.1411 L503.8,184.147 L509,183.6992 M496,202.6992 L496.3261,202.9818 L493.5117,205.796 L491.2348,209.0761 L488.2112,211.7089 L485.5757,214.6782 L483,217.6992 M496,202.6992 L496.0206,202.717 L498.2241,205.3735 L501.0774,208.593 L504.2218,212.0648 L506.0919,214.4322 L509,217.6992 " fill="#FEFECE" style="stroke: #A80036; stroke-width: 2.0;"/><text fill="#000000" font-family="sans-serif" font-size="14" lengthAdjust="spacingAndGlyphs" textLength="56" x="468" y="238.2344">ユーザー</text><!--entity 管理者--><polygon fill="#FEFECE" filter="url(#fsx435j)" points="55.1809,528.1827,54.2342,530.2212,52.981,531.5962,50.9811,533.0458,48.4648,533.6777,46.179,533.6442,44.5127,532.8463,42.7919,532.0745,41.6802,530.0613,40.5008,528.2162,40.3791,526.1251,40.2334,523.7727,41.1521,522.5259,42.0717,520.1327,43.649,519.023,45.0299,518.1244,46.8325,518.0835,48.8344,517.5394,50.4382,518.2092,52.1355,518.825,54.4102,520.1192,54.7557,521.9816,56.2798,523.8347,55.9618,526.6302" style="stroke: #A80036; stroke-width: 2.0;"/><path d="M48,533.6992 L47.3984,533.6992 L48.2443,539.0992 L48.6397,544.4992 L47.4824,549.8992 L47.4303,555.2992 L48,560.6992 M35,541.6992 L35,541.6027 L40.2,541.3301 L45.4,541.9478 L50.6,541.9785 L55.8,541.6838 L61,541.6992 M48,560.6992 L47.6902,560.4307 L45.4823,563.7706 L42.9697,566.8463 L40.3311,569.8128 L37.5632,572.6674 L35,575.6992 M48,560.6992 L48.2548,560.92 L50.4913,563.6051 L53.1504,566.6562 L55.619,569.5423 L58.6104,572.8816 L61,575.6992 " fill="#FEFECE" style="stroke: #A80036; stroke-width: 2.0;"/><text fill="#000000" font-family="sans-serif" font-size="14" lengthAdjust="spacingAndGlyphs" textLength="42" x="27" y="596.2344">管理者</text><path d="M371.2,267.8792 L371.136,267.6852 L374.3955,267.1623 L377.4009,265.8696 L380.4237,264.6294 L383.6318,263.9507 L386.6752,262.773 L386.7367,262.9418 L389.8646,261.8979 L392.9599,260.7648 L396.0153,259.5222 L399.0416,258.2 L402.1588,257.1267 L402.2184,257.2732 L405.1168,255.6854 L408.1316,254.3833 L411.2614,253.3639 L414.3241,252.1796 L417.363,250.9367 L417.2379,250.6649 L420.3698,249.7617 L423.2408,248.2917 L426.2503,247.1226 L429.0971,245.5999 L432,244.1992 L432.0116,244.2209 L433.7858,243.0565 L435.6254,242.0145 L437.475,240.9911 L439.5544,240.3978 L441.3202,239.2177 L441.4133,239.3707 L443.0085,237.8511 L445.1233,237.1848 L446.9582,236.0587 L448.8332,234.9986 L450.5138,233.6192 L450.4201,233.4796 L452.3075,232.4624 L454.1287,231.3466 L455.9127,230.1753 L457.7447,229.0756 L459.3755,227.6758 L459.4388,227.7634 L460.9438,226.3389 L462.5492,225.0531 L464.3802,224.0797 L465.8587,222.6184 L467.7,221.6592 " fill="none" style="stroke: #A80036; stroke-width: 1.0;"/><polygon fill="#A80036" points="366.29,269.4092,366.2878,269.3901,368.2497,269.6692,370.1801,269.68,372.1485,270.013,374.1327,270.4807,376.0713,270.561,375.9719,270.3721,375.0651,270.0247,373.986,269.3499,373.1432,269.1241,372.0585,268.4387,371.0652,267.9268,371.1262,267.9589,371.413,266.8313,372.0928,265.9106,372.7084,264.9561,372.9809,263.8211,373.6994,262.9207,373.7437,262.9713,372.3275,264.344,370.7991,265.5886,369.321,266.8905,367.6606,267.9845,366.29,269.4092" style="stroke: #A80036; stroke-width: 1.0;"/><path d="M413.42,199.1992 L413.42,198.5018 L424.28,199.1878 L435.14,198.9414 L446,199.4735 L456.86,198.2533 L467.72,199.1992 " fill="none" style="stroke: #A80036; stroke-width: 1.0;"/><polygon fill="#A80036" points="408.17,199.1992,408.105,199.0529,410.0536,200.1874,411.7071,200.6576,413.524,201.4957,415.4585,202.5983,417.17,203.1992,417.0102,203.0394,416.5316,202.5608,415.7083,201.7375,414.8769,200.9061,414.006,200.0352,413.17,199.1992,413.2879,199.3171,414.073,198.5022,414.8155,197.6447,415.5174,196.7466,416.2127,195.8419,417.17,195.1992,417.1404,195.1326,415.2731,195.7812,413.5425,196.7373,411.7568,197.5695,409.8971,198.2351,408.17,199.1992" style="stroke: #A80036; stroke-width: 1.0;"/><path d="M372.4,130.0392 L372.3047,129.748 L375.3797,130.8537 L378.5218,132.1648 L381.5647,133.1725 L384.5493,134.002 L387.592,135.0094 L387.4819,134.706 L390.714,136.3476 L393.745,137.4348 L396.8126,138.6234 L399.7725,139.5148 L402.7738,140.5205 L402.7147,140.3752 L405.7169,141.6445 L408.8026,143.1188 L411.6247,143.9455 L414.6387,145.2437 L417.6686,146.5809 L417.5532,146.331 L420.5232,147.8794 L423.3864,149.1963 L426.3787,150.7929 L429.1868,151.9905 L432,153.1992 L432.0181,153.2328 L433.7789,154.0343 L435.6344,155.0113 L437.7376,156.4475 L439.5096,157.2699 L441.368,158.2522 L441.509,158.4803 L443.2143,159.3959 L445.1671,160.7118 L446.8997,161.6714 L448.7321,162.7926 L450.5888,163.953 L450.6885,164.0989 L452.3946,165.2116 L454.0502,166.2506 L455.7797,167.3977 L457.5152,168.5534 L459.4627,170.0194 L459.4818,170.0453 L461.312,171.4983 L462.8855,172.6037 L464.4687,173.7224 L465.9396,174.6889 L467.79,176.1692 " fill="none" style="stroke: #A80036; stroke-width: 1.0;"/><polygon fill="#A80036" points="367.57,128.5592,367.573,128.5627,368.9651,129.7405,370.4789,131.0588,372.0167,132.4049,373.4945,133.6816,375.0147,135.0073,374.9601,134.9782,374.3197,133.9222,373.7898,132.9251,373.3851,131.9948,373.0762,131.1156,372.3532,130.0156,372.3854,130.076,373.3753,129.5279,374.3791,129.0058,375.4494,128.6085,376.3864,127.9612,377.3449,127.3541,377.3169,127.1272,375.3616,127.3655,373.4248,127.7538,371.4592,127.9092,369.496,128.0834,367.57,128.5592" style="stroke: #A80036; stroke-width: 1.0;"/><path d="M69.07,580.0092 L69.1538,580.0938 L71.5535,582.4719 L73.8439,584.7397 L76.0948,586.9676 L78.7254,589.5787 L80.9719,591.8022 L80.7967,591.6041 L83.5697,594.0606 L86.6268,596.8382 L89.423,599.3209 L92.1837,601.7634 L94.745,603.9805 L94.627,603.8247 L97.5918,606.0319 L100.773,608.5247 L103.7661,610.7693 L107.0193,613.3571 L109.9131,615.4706 L109.9496,615.5309 L113.1283,617.4127 L116.2682,619.2303 L119.6357,621.4243 L122.6848,623.0918 L126,625.1992 L125.9288,625.0525 L127.8206,626.0227 L129.6098,626.7815 L131.6749,628.1086 L133.3597,628.6523 L135.2956,629.7133 L135.4134,629.9881 L137.3414,630.819 L139.046,631.1288 L140.9588,631.9244 L142.9016,632.7899 L144.9233,633.8395 L144.8657,633.6883 L146.7841,634.2907 L148.9647,635.5826 L150.9344,636.3202 L152.8347,636.8751 L154.7977,637.595 L154.7413,637.4285 L156.8424,638.3859 L158.7827,638.8688 L160.7144,639.3263 L162.9283,640.6166 L164.8338,640.9967 L164.7372,640.6783 L166.7766,641.3469 L168.9068,642.3154 L170.9919,643.1351 L172.867,643.2617 L174.9462,644.0619 L174.8662,643.7676 L177.0316,644.8492 L178.9854,645.1518 L181.0837,645.9864 L183.1051,646.5381 L185.0498,646.8077 L185.1081,647.0465 L187.0374,647.2374 L189.1105,648.0177 L191.0469,648.2379 L193.1297,649.0579 L195.0595,649.2511 L195.02,649.0709 L197.0778,649.9205 L198.9843,650.0806 L200.9722,650.6118 L202.8617,650.6941 L204.89,651.4092 " fill="none" style="stroke: #A80036; stroke-width: 1.0;"/><polygon fill="#A80036" points="210.03,652.4492,209.9297,652.3077,208.4753,651.3836,206.9563,650.3682,205.248,649.0859,203.6655,647.9809,201.9956,646.7528,202.1677,646.8673,202.7854,647.8035,203.055,648.5082,203.8042,649.5318,204.4029,650.4554,205.1282,651.4631,205.0937,651.4112,204.1122,651.9785,203.2119,652.6677,202.3775,653.4562,201.4897,654.1643,200.4179,654.5957,200.4674,654.8176,202.3174,654.064,204.3075,653.9376,206.1678,653.2303,208.1046,652.8654,210.03,652.4492" style="stroke: #A80036; stroke-width: 1.0;"/><path d="M69.11,534.9092 L69.1789,534.9806 L71.2929,532.4049 L73.6623,530.094 L76.3804,528.1443 L78.5114,525.5863 L81.0183,523.4178 L81.0624,523.4692 L83.7886,521.0717 L86.3648,518.4993 L89.4012,516.4631 L91.9476,513.8562 L94.7912,511.5955 L94.9489,511.8108 L97.687,509.1921 L100.9975,507.3554 L103.9256,504.9963 L106.9623,502.7855 L109.9461,500.5025 L110.0681,500.7131 L113.1682,498.6614 L116.2791,496.6284 L119.5618,494.8918 L122.6626,492.8414 L126,491.1992 L126.1154,491.4559 L128.43,489.7474 L131.2145,489.084 L133.6892,487.7317 L136.185,486.4261 L138.8215,485.4337 L138.7581,485.2653 L141.4373,484.2737 L144.0815,483.1894 L146.7841,482.2602 L149.6267,481.7028 L152.1902,480.4039 L152.1503,480.2781 L155.0177,479.8108 L157.7711,478.9837 L160.4965,478.0683 L163.1893,477.0504 L165.8909,476.0599 L165.9376,476.2339 L168.7016,475.4939 L171.4518,474.7023 L174.1042,473.5465 L176.873,472.8244 L179.7088,472.3517 L179.6824,472.2358 L182.4404,471.6732 L185.1639,470.9587 L187.9894,470.6927 L190.6279,469.6046 L193.4286,469.2295 L193.4788,469.4897 L196.0985,468.6529 L198.8484,468.4905 L201.4986,467.8117 L204.1394,467.0844 L206.8355,466.6433 L206.8147,466.516 L209.3849,466.0616 L211.9993,465.8784 L214.5322,465.1957 L217.1435,464.9938 L219.7143,464.5432 L219.7402,464.7322 L222.1753,464.4574 L224.5788,463.9522 L227.0237,463.7487 L229.4124,463.1355 L231.85,462.8792 " fill="none" style="stroke: #A80036; stroke-width: 1.0;"/><polygon fill="#A80036" points="237.16,462.2392,237.0953,462.0306,235.3305,461.8234,233.4134,461.1252,231.4693,460.3398,229.6886,460.0816,227.7528,459.3229,227.5992,459.1281,228.6532,460.0387,229.521,460.7134,230.3856,461.3838,231.2819,462.0945,232.1945,462.8259,232.0584,462.7185,231.3853,463.6286,230.6029,464.4525,230.2671,465.6284,229.3694,466.3613,228.6915,467.2676,228.6442,467.188,230.3007,466.1195,232.1467,465.3704,233.6956,464.1209,235.3944,463.1239,237.16,462.2392" style="stroke: #A80036; stroke-width: 1.0;"/><path d="M69.32,554.2692 L69.3477,554.4615 L79.4375,553.1619 L89.55,552.02 L99.5354,549.9966 L109.5967,548.4989 L119.5749,546.4251 L129.589,544.6009 L139.8328,544.3696 L149.9204,543.0551 L159.79,540.228 L169.9197,539.2052 L180.177,539.0683 L190.272,537.8054 L200.201,535.39 L210.2561,533.8494 L220.34,532.5092 " fill="none" style="stroke: #A80036; stroke-width: 1.0;"/><polygon fill="#A80036" points="225.35,531.7892,225.3112,531.6515,223.4592,531.2732,221.5597,530.7259,219.67,530.2138,217.7633,529.641,215.8704,529.1175,215.8225,529.0535,216.7726,529.7895,217.6528,530.4321,218.5653,531.1179,219.4397,531.7527,220.4014,532.5043,220.241,532.3844,219.6427,533.3497,218.8497,534.1695,218.3366,535.1984,217.5891,536.0522,217.0146,537.0353,217.0983,537.1682,218.7275,536.0588,220.3005,534.8602,222.0175,533.8903,223.6894,532.8488,225.35,531.7892" style="stroke: #A80036; stroke-width: 1.0;"/><path d="M69.32,560.2192 L69.2447,559.7115 L79.4783,561.5274 L89.5623,562.3347 L99.795,564.1443 L110.2176,567.2335 L120.3704,568.5046 L130.3551,568.643 L140.53,570.0633 L150.7666,571.8988 L160.9183,573.1622 L171.2377,575.5562 L181.4128,576.9774 L191.4744,577.6341 L201.7166,579.5077 L211.96,581.3892 " fill="none" style="stroke: #A80036; stroke-width: 1.0;"/><polygon fill="#A80036" points="217.19,582.1692,217.2072,582.1962,215.5792,581.1895,213.896,580.0962,212.2782,579.1055,210.5529,577.9462,208.8844,576.8761,208.8666,576.8629,209.4338,577.6953,210.103,578.6031,211.0367,579.7063,211.6171,580.5485,212.2455,581.4261,212.2747,581.4656,211.4578,582.2638,210.4402,582.7904,209.4257,583.3212,208.5581,584.0509,207.6955,584.7872,207.6566,584.6463,209.5877,584.2393,211.5112,583.8049,213.3721,583.1436,215.2437,582.5208,217.19,582.1692" style="stroke: #A80036; stroke-width: 1.0;"/><path d="M90.21,381.1992 L90.21,380.903 L101.118,381.5328 L112.026,380.3889 L122.934,381.6584 L133.842,380.4066 L144.75,381.1992 " fill="none" style="stroke: #A80036; stroke-width: 1.0;"/><polygon fill="#A80036" points="149.79,381.1992,149.8452,381.3234,148.0471,380.5276,146.1113,379.4221,144.4816,379.0052,142.5515,377.9127,140.79,377.1992,140.7555,377.1647,141.7236,378.1328,142.2619,378.6711,143.1236,379.5328,143.9307,380.34,144.79,381.1992,144.645,381.0542,144.09,382.0992,143.025,382.6342,142.3435,383.5528,141.5579,384.3671,140.79,385.1992,140.7357,385.077,142.5734,384.3618,144.4787,383.7988,146.2143,382.854,147.9282,381.8603,149.79,381.1992" style="stroke: #A80036; stroke-width: 1.0;"/></g></svg>