<?xml version="1.0" encoding="UTF-8" standalone="no"?><svg xmlns="http://www.w3.org/2000/svg" xmlns:xlink="http://www.w3.org/1999/xlink" contentScriptType="application/ecmascript" contentStyleType="text/css" height="749px" preserveAspectRatio="none" style="width:707px;height:749px;" version="1.1" viewBox="0 0 707 749" width="707px" zoomAndPan="magnify"><defs><filter height="300%" id="f1pho49" width="300%" x="-1" y="-1"><feGaussianBlur result="blurOut" stdDeviation="2.0"/><feColorMatrix in="blurOut" result="blurOut2" type="matrix" values="0 0 0 0 0 0 0 0 0 0 0 0 0 0 0 0 0 0 .4 0"/><feOffset dx="4.0" dy="4.0" in="blurOut2" result="blurOut3"/><feBlend in="SourceGraphic" in2="blurOut3" mode="normal"/></filter></defs><g><text fill="#000000" font-family="sans-serif" font-size="18" lengthAdjust="spacingAndGlyphs" textLength="306" x="214" y="16.708">ユースケース：ファイルアップロード</text><!--cluster ファイルアップロード--><polygon fill="#FFFFFF" filter="url(#f1pho49)" points="92,44.9531,92,44.2489,101.7333,45.1203,111.4667,44.374,121.2,45.5069,130.9333,45.3883,140.6667,45.2575,150.4,44.4169,160.1333,44.3447,169.8667,45.069,179.6,44.7632,189.3333,45.6514,199.0667,45.428,208.8,44.8859,218.5333,45.6767,228.2667,45.2596,238,44.9531,238.1189,44.9905,239.1893,49.3463,240.9948,53.933,242.2144,58.3358,243.5394,62.7716,245,67.25,245,67.6421,254.8913,67.4776,264.7826,67.3518,274.6739,67.0413,284.5652,67.7841,294.4565,66.8483,304.3478,67.1841,314.2391,67.9427,324.1304,67.454,334.0217,66.9586,343.913,66.937,353.8043,66.7726,363.6957,66.6684,373.587,66.702,383.4783,67.5796,393.3696,67.8999,403.2609,66.6557,413.1522,66.836,423.0435,67.5645,432.9348,66.6543,442.8261,67.5528,452.7174,66.6267,462.6087,66.5345,472.5,67.6223,482.3913,67.3566,492.2826,66.7985,502.1739,67.4004,512.0652,67.0384,521.9565,66.8601,531.8478,67.7814,541.7391,66.5011,551.6304,66.9695,561.5217,67.1549,571.413,66.5781,581.3043,67.5126,591.1957,66.9788,601.087,67.4725,610.9783,66.8585,620.8696,66.8103,630.7609,67.659,640.6522,67.1484,650.5435,66.6248,660.4348,67.6082,670.3261,67.321,680.2174,67.3359,690.1087,67.98,700,67.25,700.1376,67.25,700.4811,77.3202,700.5178,87.3904,699.9271,97.4606,700.1536,107.5308,699.3457,117.601,700.1108,127.6712,700.4711,137.7414,700.6559,147.8116,699.7524,157.8818,700.0364,167.952,699.5961,178.0222,699.3892,188.0924,699.9914,198.1625,699.5353,208.2327,699.4416,218.3029,699.9452,228.3731,700.5955,238.4433,699.7346,248.5135,700.2084,258.5837,699.6215,268.6539,700.0575,278.7241,700.5416,288.7943,700.4824,298.8645,700.1072,308.9347,700.0083,319.0049,699.822,329.0751,700.2769,339.1453,700.0533,349.2155,700.661,359.2857,700.0418,369.3559,699.6587,379.4261,699.9075,389.4963,700.0598,399.5665,699.8467,409.6367,699.5925,419.7069,700.2872,429.7771,700.6001,439.8472,700.1737,449.9174,699.8561,459.9876,700.6425,470.0578,700.4264,480.128,700.4452,490.1982,699.5579,500.2684,700.0113,510.3386,700.1477,520.4088,699.6734,530.479,699.9115,540.5492,699.3025,550.6194,699.356,560.6896,699.9101,570.7598,700.005,580.83,700.2515,590.9002,699.6761,600.9704,699.9154,611.0406,700.3357,621.1108,700.4791,631.181,700.5224,641.2512,699.6809,651.3214,700.3675,661.3916,699.9525,671.4618,699.3893,681.5319,700.5356,691.6021,700.3089,701.6723,700.0893,711.7425,700.359,721.8127,699.485,731.8829,700,741.9531,700,742.6546,690.0328,741.2219,680.0656,742.014,670.0984,741.6321,660.1311,741.2093,650.1639,742.0656,640.1967,742.5373,630.2295,741.937,620.2623,742.6263,610.2951,741.5315,600.3279,741.7581,590.3607,741.9909,580.3934,741.3871,570.4262,742.617,560.459,742.2079,550.4918,742.3537,540.5246,742.2121,530.5574,742.3061,520.5902,741.4835,510.623,742.4244,500.6557,741.5382,490.6885,741.3038,480.7213,741.2671,470.7541,742.6886,460.7869,741.4784,450.8197,742.0961,440.8525,741.3054,430.8852,742.5755,420.918,741.2959,410.9508,742.437,400.9836,742.1708,391.0164,741.7481,381.0492,742.437,371.082,741.5182,361.1148,741.3154,351.1475,742.5266,341.1803,742.6448,331.2131,742.2954,321.2459,741.8078,311.2787,741.3431,301.3115,742.0941,291.3443,741.2525,281.377,741.7364,271.4098,741.6595,261.4426,741.8696,251.4754,741.7654,241.5082,741.5512,231.541,742.6338,221.5738,741.4378,211.6066,742.6854,201.6393,741.6111,191.6721,742.011,181.7049,742.548,171.7377,741.3018,161.7705,741.4034,151.8033,741.2247,141.8361,742.2326,131.8689,741.9573,121.9016,742.3002,111.9344,741.54,101.9672,741.7704,92,741.9531,91.831,741.9531,92.3697,731.996,92.2858,722.0388,92.1621,712.0817,92.3483,702.1246,92.2381,692.1674,91.3936,682.2103,91.9391,672.2531,91.5108,662.296,91.4925,652.3388,91.2716,642.3817,92.6582,632.4246,91.7272,622.4674,91.6892,612.5103,92.5582,602.5531,92.2975,592.596,91.373,582.6388,92.0866,572.6817,92.42,562.7246,92.3639,552.7674,92.4061,542.8103,92.3594,532.8531,92.3885,522.896,91.4494,512.9388,92.3592,502.9817,92.7011,493.0246,92.6965,483.0674,92.6602,473.1103,91.7185,463.1531,92.6993,453.196,92.4931,443.2388,92.6124,433.2817,91.5234,423.3246,91.5995,413.3674,92.1163,403.4103,91.9569,393.4531,92.412,383.496,91.5043,373.5388,91.7212,363.5817,92.6148,353.6246,91.3193,343.6674,92.6889,333.7103,92.5157,323.7531,92.0821,313.796,92.5821,303.8388,91.5548,293.8817,92.1357,283.9246,91.2868,273.9674,92.3403,264.0103,91.283,254.0531,91.7983,244.096,92.0642,234.1388,91.3306,224.1817,91.993,214.2246,91.8088,204.2674,91.8497,194.3103,91.9598,184.3531,92.6627,174.396,92.2603,164.4388,92.1736,154.4817,91.906,144.5246,92.2136,134.5674,91.8584,124.6103,92.4843,114.6531,91.4444,104.696,91.5212,94.7388,91.7223,84.7817,91.719,74.8246,92.713,64.8674,92.167,54.9103,92,44.9531" style="stroke: #000000; stroke-width: 2.0;"/><path d="M92,67.25 L92,67.6021 L102.2,66.4298 L112.4,68.2314 L122.6,66.5932 L132.8,67.0126 L143,67.5402 L153.2,67.5155 L163.4,66.7191 L173.6,68.0913 L183.8,68.2251 L194,68.2203 L204.2,67.5223 L214.4,66.5107 L224.6,66.828 L234.8,66.2565 L245,67.25 " fill="#FFFFFF" style="stroke: #000000; stroke-width: 2.0;"/><text fill="#000000" font-family="sans-serif" font-size="14" font-weight="bold" lengthAdjust="spacingAndGlyphs" textLength="140" x="96" y="59.9482">ファイルアップロード</text><polygon fill="#FEFECE" filter="url(#f1pho49)" points="385.9295,106.5465,379.9921,109.561,376.7123,113.5318,368.7264,116.6983,356.8097,119.1117,346.2098,121.8193,332.4693,123.7004,317.6262,125.0883,300.9525,125.7047,285.7028,126.1695,267.4709,125.4034,254.0233,125.0597,237.6219,123.3443,222.2778,121.1054,209.7046,118.6964,199.6423,116.0494,193.6386,113.5199,184.9888,109.6396,184.6828,106.9112,183.2367,103.2819,184.2838,99.6446,186.9057,95.8895,192.063,92.3381,199.4686,89.042,212.592,86.8981,225.2108,84.6415,235.9177,82.0828,252.8934,81.1712,266.6624,79.906,284.1864,79.9491,300.7686,80.3468,316.7624,81.2593,331.0273,82.4974,344.7178,84.367,358.3814,87.0195,365.4662,89.0015,376.1203,92.5697,379.9069,95.3637,383.6498,98.8598,386.7529,102.8592" style="stroke: #A80036; stroke-width: 1.5;"/><text fill="#000000" font-family="sans-serif" font-size="14" lengthAdjust="spacingAndGlyphs" textLength="182" x="193.2042" y="107.5424">ファイルをアップロードする</text><polygon fill="#FEFECE" filter="url(#f1pho49)" points="360.1958,181.5683,358.8085,184.655,353.4274,187.1047,346.3894,189.3659,338.9898,191.6417,329.8297,193.5113,320.7803,195.3083,309.6078,196.4216,295.8603,196.6561,283.3713,196.8125,271.2947,196.6207,260.0297,196.1089,249.3953,195.184,239.077,193.7357,228.4704,191.6016,220.4941,189.4475,215.4698,187.3554,208.3837,184.1911,205.6514,181.4729,204.5535,178.6246,208.025,176.3873,210.1703,173.4755,213.9688,170.6606,221.8076,168.5842,229.5907,166.3969,237.7868,164.3049,247.7219,162.7123,258.8206,161.5819,271.2676,161.0473,284.9151,161.1583,296.8831,161.325,309.3506,162.1143,320.582,163.177,329.1724,164.2265,340.4854,166.5236,346.353,168.1911,352.7069,170.5901,359.5195,173.6912,360.0044,175.8908,363.2477,179.2342" style="stroke: #A80036; stroke-width: 1.5;"/><text fill="#000000" font-family="sans-serif" font-size="14" lengthAdjust="spacingAndGlyphs" textLength="126" x="221.0262" y="183.6068">ファイルを削除する</text><polygon fill="#FEFECE" filter="url(#f1pho49)" points="434.7167,270.5675,432.6232,276.4567,424.4315,281.562,407.9717,285.2466,391.6336,289.14,373.3508,292.6144,355.8888,296.0832,333.7655,298.1871,310.6846,299.5551,283.9629,299.4528,257.6201,298.6071,235.944,297.8227,214.5188,296.0527,193.4914,293.2587,176.9531,290.2793,158.825,285.7905,142.996,280.6446,138.3984,276.8085,129.3926,270.983,125.5234,265.3202,130.8915,260.8222,139.0564,256.2409,145.7027,250.8028,155.3448,245.6494,171.7108,241.762,191.0027,238.505,215.4686,236.5451,237.1581,234.3477,259.1839,232.7524,286.3329,232.9467,308.9721,232.9946,332.2804,234.1306,352.1705,235.5699,374.7938,238.7077,395.2773,242.537,410.3245,246.3621,419.5934,250.0948,434.0582,256.0566,440.7407,261.3815,441.3018,266.3317" style="stroke: #A80036; stroke-width: 1.5;"/><text fill="#000000" font-family="sans-serif" font-size="14" lengthAdjust="spacingAndGlyphs" textLength="294" x="137.0416" y="270.6099">アップロードの際に別サイズの画像を作成する</text><polygon fill="#FBFB77" filter="url(#f1pho49)" points="533,253.4531,532.8246,253.4531,533.0486,258.4797,533.0941,263.5063,533.1276,268.5328,533.0134,273.5594,533,278.5859,533,278.7959,542.8571,278.7932,552.7143,278.6067,562.5714,279.3092,572.4286,278.7406,582.2857,279.1019,592.1429,278.7205,602,278.2525,611.8571,279.1164,621.7143,277.9594,631.5714,278.6744,641.4286,278.6991,651.2857,278.2181,661.1429,278.3325,671,278.5859,671.2167,278.5859,671.0345,275.5594,671.1109,272.5328,671.2351,269.5063,671.0537,266.4797,671,263.4531,670.951,263.4041,668.928,261.3811,667.1371,259.5903,664.9034,257.3566,662.9828,255.4359,661,253.4531,661,253.6175,651.1538,253.04,641.3077,253.6067,631.4615,254.0901,621.6154,253.1431,611.7692,252.8118,601.9231,253.022,592.0769,252.8992,582.2308,253.9012,572.3846,252.7071,562.5385,253.4285,552.6923,253.9015,542.8462,253.0215,533,253.4531" style="stroke: #A80036; stroke-width: 1.0;"/><polygon fill="#FBFB77" points="533,253.4531,533.1566,253.4531,533.1926,255.1531,533.0863,256.8531,533.2483,258.5531,532.9423,260.2531,533,261.9531,533.03,262.6533,522.6299,262.1628,512.2574,262.3146,501.9512,264.0144,491.5438,263.3541,481.1702,263.4801,470.8105,263.9315,460.4997,265.5231,450.1132,265.3503,439.76,265.9531,439.7687,266.1554,450.1026,265.9921,460.5048,267.4203,470.8298,267.0476,481.1836,267.3484,491.5727,268.4721,501.9508,269.3367,512.3113,269.7946,522.6117,268.849,533,269.9531,532.9887,269.9531,532.8609,271.6797,533.1218,273.4063,532.8781,275.1328,532.8575,276.8594,533,278.5859,533,279.026,542.8571,278.7429,552.7143,277.8899,562.5714,278.055,572.4286,279.328,582.2857,278.6513,592.1429,279.0883,602,277.8627,611.8571,278.5271,621.7143,279.0852,631.5714,277.9152,641.4286,279.0671,651.2857,278.4196,661.1429,278.5143,671,278.5859,670.9953,278.5859,671.1086,275.5594,671.1853,272.5328,670.7533,269.5063,671.2297,266.4797,671,263.4531,670.9309,263.384,669.0161,261.4692,667.0213,259.4744,664.9253,257.3784,662.9356,255.3887,661,253.4531,661,254.0974,651.1538,253.4476,641.3077,252.9817,631.4615,252.8006,621.6154,253.9551,611.7692,254.1005,601.9231,252.8382,592.0769,253.1349,582.2308,253.2537,572.3846,253.2329,562.5385,253.2005,552.6923,253.8658,542.8462,252.7117,533,253.4531" style="stroke: #A80036; stroke-width: 1.0;"/><path d="M661,253.4531 L660.6725,253.4531 L661.0228,255.4531 L661.2582,257.4531 L660.8369,259.4531 L660.7672,261.4531 L661,263.4531 " fill="#FBFB77" style="stroke: #A80036; stroke-width: 1.0;"/><path d="M671,263.4531 L671,263.3228 L669,263.2662 L667,263.3389 L665,263.4793 L663,263.6644 L661,263.4531 " fill="#FBFB77" style="stroke: #A80036; stroke-width: 1.0;"/><text fill="#000000" font-family="sans-serif" font-size="13" lengthAdjust="spacingAndGlyphs" textLength="117" x="539" y="270.52">画像ファイルの場合</text><polygon fill="#FEFECE" filter="url(#f1pho49)" points="454.6842,377.2875,452.9472,384.0259,439.7635,388.9128,423.0405,393.4479,407.5378,398.4483,386.5207,402.2706,363.766,405.517,341.1928,408.3979,309.654,408.7693,285.7043,409.993,257.214,409.3214,227.3987,407.3081,207.5387,406.256,179.4344,402.1982,161.7834,399.0813,138.4392,393.4397,127.8983,389.2412,119.6502,384.2881,106.9626,377.2207,107.6357,371.9492,109.5761,366.0233,115.3877,360.1554,126.9674,354.9258,141.0071,349.8175,156.8337,344.8863,181.918,341.9329,202.1306,338.1434,232.0182,336.8252,254.7893,334.5807,283.3138,334.3344,312.9357,335.2477,340.2289,336.7221,366.1951,339.0788,388.7157,341.9437,405.9039,344.9617,424.6356,349.6178,442.8814,355.4625,453.4745,360.9166,457.7612,366.1892,462.8925,372.7007" style="stroke: #A80036; stroke-width: 1.5;"/><text fill="#000000" font-family="sans-serif" font-size="14" lengthAdjust="spacingAndGlyphs" textLength="336" x="115.8697" y="376.6755">アップロード済のファイルをポップアップで表示する</text><polygon fill="#FBFB77" filter="url(#f1pho49)" points="533,359.4531,532.9591,359.4531,532.838,364.4797,532.9476,369.5063,533.1848,374.5328,532.7502,379.5594,533,384.5859,533,385.0059,542.8571,384.6595,552.7143,383.9617,562.5714,384.7491,572.4286,384.2434,582.2857,384.8958,592.1429,385.067,602,385.108,611.8571,385.0349,621.7143,385.2505,631.5714,383.9607,641.4286,384.1761,651.2857,384.1146,661.1429,384.8072,671,384.5859,671.0181,384.5859,671.1283,381.5594,670.8017,378.5328,671.2203,375.5063,671.1915,372.4797,671,369.4531,671.1424,369.5955,669.0351,367.4882,667.1417,365.5948,665.1204,363.5735,663.0436,361.4967,661,359.4531,661,359.2439,651.1538,359.0498,641.3077,359.7939,631.4615,359.3865,621.6154,359.4147,611.7692,360.134,601.9231,358.9344,592.0769,358.7661,582.2308,359.8691,572.3846,359.2817,562.5385,359.0859,552.6923,358.9186,542.8462,358.9809,533,359.4531" style="stroke: #A80036; stroke-width: 1.0;"/><polygon fill="#FBFB77" points="533,359.4531,532.7708,359.4531,532.9005,361.1531,532.7826,362.8531,533.0869,364.5531,532.8609,366.2531,533,367.9531,532.9942,367.8472,522.5861,368.5325,512.1975,369.572,501.7868,370.2076,491.3486,370.3434,480.9007,370.3022,470.4737,370.6422,460.1,371.9531,460.1221,372.355,470.5113,372.47,480.9647,373.755,491.3538,373.8673,501.7697,374.467,512.2095,375.5047,522.577,375.2221,533,375.9531,533.104,375.9531,532.8995,377.6797,533.0315,379.4063,533.2168,381.1328,532.9716,382.8594,533,384.5859,533,385.3186,542.8571,384.3126,552.7143,384.7455,562.5714,384.5437,572.4286,384.8024,582.2857,383.8823,592.1429,384.7039,602,384.4194,611.8571,384.3657,621.7143,384.9213,631.5714,384.0333,641.4286,384.3476,651.2857,384.9644,661.1429,383.916,671,384.5859,671.1468,384.5859,670.9387,381.5594,670.9293,378.5328,670.9695,375.5063,670.9027,372.4797,671,369.4531,670.9064,369.3595,668.8966,367.3498,666.901,365.3542,664.9619,363.415,662.8808,361.3339,661,359.4531,661,358.9826,651.1538,359.0345,641.3077,359.9291,631.4615,359.1183,621.6154,358.9708,611.7692,359.5869,601.9231,360.062,592.0769,359.9391,582.2308,359.5897,572.3846,359.847,562.5385,359.7071,552.6923,359.5176,542.8462,358.7066,533,359.4531" style="stroke: #A80036; stroke-width: 1.0;"/><path d="M661,359.4531 L661.2365,359.4531 L661.2074,361.4531 L660.7562,363.4531 L661.0409,365.4531 L661.1124,367.4531 L661,369.4531 " fill="#FBFB77" style="stroke: #A80036; stroke-width: 1.0;"/><path d="M671,369.4531 L671,369.3012 L669,369.5288 L667,369.3722 L665,369.7373 L663,369.4962 L661,369.4531 " fill="#FBFB77" style="stroke: #A80036; stroke-width: 1.0;"/><text fill="#000000" font-family="sans-serif" font-size="13" lengthAdjust="spacingAndGlyphs" textLength="117" x="539" y="376.52">画像ファイルの場合</text><polygon fill="#FEFECE" filter="url(#f1pho49)" points="440.366,483.7845,432.1441,488.3535,424.787,493.6386,407.0353,497.0449,396.9279,502.2805,373.0982,504.56,351.6786,507.1762,331.4946,509.6979,308.7979,511.1486,285.1492,511.7084,260.3698,511.1994,233.3078,509.2548,213.0198,507.7298,194.1549,505.4016,172.3177,501.2807,160.2175,498.0905,146.0787,493.3087,136.7681,488.4573,132.1374,483.5744,128.8599,478.039,128.2498,472.2531,134.8205,467.3284,143.2367,462.2715,156.5374,457.9063,174.7461,454.4159,193.031,450.9419,212.834,447.9775,234.6163,445.8001,257.6176,444.415,285.9776,444.8702,306.4703,444.4556,333.1363,446.315,354.1097,447.9876,377.5259,451.2963,397.0868,454.9269,407.4246,457.7374,424.8596,463.2293,433.1432,467.8595,435.7231,472.3006,438.4114,477.709" style="stroke: #A80036; stroke-width: 1.5;"/><text fill="#000000" font-family="sans-serif" font-size="14" lengthAdjust="spacingAndGlyphs" textLength="294" x="137.0416" y="482.6099">アップロード済のファイルをダウンロードする</text><polygon fill="#FBFB77" filter="url(#f1pho49)" points="520,465.4531,519.7906,465.4531,520.1457,470.4797,520.1573,475.5063,519.7575,480.5328,519.8222,485.5594,520,490.5859,520,490.5099,530.25,490.1,540.5,491.0704,550.75,490.3634,561,490.8925,571.25,490.0002,581.5,491.1305,591.75,490.5842,602,490.1055,612.25,490.4549,622.5,491.1351,632.75,490.7876,643,490.8147,653.25,490.7696,663.5,490.0437,673.75,490.4392,684,490.5859,683.7765,490.5859,683.8683,487.5594,683.7797,484.5328,683.9399,481.5063,683.781,478.4797,684,475.4531,684.1065,475.5596,681.9206,473.3737,680.0883,471.5414,677.9654,469.4185,675.9932,467.4463,674,465.4531,674,466.0796,663.7333,465.93,653.4667,464.9793,643.2,464.7342,632.9333,466.0808,622.6667,464.7711,612.4,465.6832,602.1333,465.847,591.8667,465.4043,581.6,465.259,571.3333,465.2724,561.0667,465.6027,550.8,465.9609,540.5333,465.7374,530.2667,465.242,520,465.4531" style="stroke: #A80036; stroke-width: 1.0;"/><polygon fill="#FBFB77" points="520,465.4531,519.98,465.4531,519.8605,467.1531,519.9544,468.8531,520.0687,470.5531,519.7791,472.2531,520,473.9531,520.0234,474.423,509.9339,473.7287,499.9708,475.5706,489.8949,475.1507,479.8639,475.6294,469.8574,476.6016,459.795,476.4517,449.8125,477.9047,439.76,477.9531,439.7789,478.3323,449.7676,478.0036,459.8318,479.1892,469.8584,479.6208,479.8989,480.3315,489.9352,480.9579,499.9505,481.1637,509.9447,480.946,520,481.9531,519.796,481.9531,520.2001,483.6797,520.1853,485.4063,519.7946,487.1328,519.9002,488.8594,520,490.5859,520,490.605,530.25,490.534,540.5,490.5599,550.75,490.1872,561,490.2457,571.25,491.0507,581.5,490.6683,591.75,490.7478,602,490.7447,612.25,490.004,622.5,490.8577,632.75,490.6892,643,490.9024,653.25,491.0587,663.5,489.9923,673.75,489.892,684,490.5859,684.1769,490.5859,683.9503,487.5594,683.983,484.5328,683.9206,481.5063,683.9691,478.4797,684,475.4531,683.8806,475.3337,682.0507,473.5038,680.0725,471.5256,678.1738,469.627,675.9283,467.3815,674,465.4531,674,464.9315,663.7333,465.307,653.4667,465.9514,643.2,464.9139,632.9333,465.6721,622.6667,465.9819,612.4,465.9167,602.1333,465.5656,591.8667,465.8294,581.6,465.6277,571.3333,464.8371,561.0667,465.5548,550.8,465.7322,540.5333,464.9607,530.2667,465.4817,520,465.4531" style="stroke: #A80036; stroke-width: 1.0;"/><path d="M674,465.4531 L673.9494,465.4531 L674.1799,467.4531 L673.9672,469.4531 L674.0728,471.4531 L674.1385,473.4531 L674,475.4531 " fill="#FBFB77" style="stroke: #A80036; stroke-width: 1.0;"/><path d="M684,475.4531 L684,475.1546 L682,475.4413 L680,475.578 L678,475.6899 L676,475.7256 L674,475.4531 " fill="#FBFB77" style="stroke: #A80036; stroke-width: 1.0;"/><text fill="#000000" font-family="sans-serif" font-size="13" lengthAdjust="spacingAndGlyphs" textLength="143" x="526" y="482.52">画像ファイル以外の場合</text><polygon fill="#FEFECE" filter="url(#f1pho49)" points="454.2377,589.5122,446.7901,594.7694,436.0422,599.8922,420.8224,604.4468,400.8068,608.1715,382.0021,612.1555,360.9623,615.4635,335.7817,617.4949,309.2808,618.6709,286.8222,619.9716,259.6578,619.3725,228.5336,616.905,207.199,615.4108,183.8592,612.2876,167.7602,609.4698,144.2919,603.8125,131.7829,599.257,126.381,595.0245,115.439,588.4816,112.7303,582.682,114.4678,576.943,122.3401,571.7768,132.6497,566.5601,144.6957,561.3257,166.8415,558.0573,185.0954,553.9553,204.1354,550.2189,229.6518,548.2595,258.901,547.6721,281.968,546.5018,308.5787,546.9823,338.9139,549.2808,363.1432,551.395,386.5245,554.5271,405.294,557.9169,423.8346,562.5187,434.737,566.7301,443.593,571.7025,450.0363,577.2818,454.1072,583.3731" style="stroke: #A80036; stroke-width: 1.5;"/><text fill="#000000" font-family="sans-serif" font-size="14" lengthAdjust="spacingAndGlyphs" textLength="322" x="123.0751" y="587.8166">アップロード済のファイルをプレビューで表示する</text><polygon fill="#FEFECE" filter="url(#f1pho49)" points="454.172,696.4982,445.1607,701.4204,432.0578,706.0388,420.1494,711.3026,401.4396,715.307,381.6822,719.087,359.496,722.1495,338.0921,724.9898,308.4564,725.4944,281.2277,725.7733,255.129,725.4025,233.2424,724.9136,205.521,722.0513,186.7571,719.9083,166.2843,716.1537,148.0179,711.6106,135.3665,707.0246,121.2041,700.9156,115.6892,695.5352,117.5433,690.7129,114.4087,683.9303,126.0444,679.5702,134.2007,673.8924,144.451,668.2733,164.4034,664.5351,182.0108,660.2946,209.4548,658.3583,233.2782,656.0362,256.9162,654.247,285.6288,654.2859,313.2147,654.9753,338.7964,656.2556,358.0998,657.3148,384.4286,661.0781,404.6912,664.7877,420.4932,668.803,435.0054,673.7876,446.0243,679.2232,449.6301,684.1948,454.5316,690.464" style="stroke: #A80036; stroke-width: 1.5;"/><text fill="#000000" font-family="sans-serif" font-size="14" lengthAdjust="spacingAndGlyphs" textLength="322" x="123.0751" y="694.8166">未アップロードのファイルをプレビューで表示する</text><!--entity 作成者--><polygon fill="#FEFECE" filter="url(#f1pho49)" points="34.2247,342.4986,33.3254,345.0074,32.4281,346.385,31.0791,347.0341,29.9557,348.2183,28.244,348.6592,25.6299,348.5648,23.4786,347.4052,21.4926,346.0432,19.6793,344.3344,19.2914,341.9181,18.9752,339.7067,19.6073,338.1933,20.2539,336.7938,21.552,334.3798,23.2242,333.8005,25.1267,332.478,27.1224,332.8662,28.7571,332.9404,30.4574,333.3064,31.5984,334.1927,33.4847,335.0691,34.383,337.3162,34.4748,339.0479,35.1468,341.2788" style="stroke: #A80036; stroke-width: 2.0;"/><path d="M27,348.4531 L26.755,348.4531 L27.157,353.8531 L26.3949,359.2531 L27.398,364.6531 L27.0724,370.0531 L27,375.4531 M14,356.4531 L14,356.5918 L19.2,355.8721 L24.4,356.9441 L29.6,356.554 L34.8,356.4122 L40,356.4531 M27,375.4531 L27.1308,375.5665 L23.973,378.083 L21.5931,381.2738 L18.7518,384.0646 L16.1746,387.0845 L14,390.4531 M27,375.4531 L27.3008,375.7138 L29.1161,378.0338 L32.1817,381.4373 L34.8206,384.4709 L37.3032,387.3692 L40,390.4531 " fill="#FEFECE" style="stroke: #A80036; stroke-width: 2.0;"/><text fill="#000000" font-family="sans-serif" font-size="14" lengthAdjust="spacingAndGlyphs" textLength="42" x="6" y="410.4482">作成者</text><path d="M32.85,330.1331 L32.621,330.1014 L33.372,325.3367 L34.4664,320.6196 L34.9892,315.8233 L35.613,311.041 L36.1627,306.2484 L36.1871,306.2522 L36.7627,300.893 L37.786,295.6043 L38.9163,290.3323 L39.2733,284.9388 L40.3444,279.6575 L40.1944,279.6313 L41.1159,276.9346 L41.2633,274.1028 L41.7598,271.3319 L42.0919,268.5323 L42.7629,265.7919 L42.5002,265.7424 L42.9823,262.9321 L43.7519,260.1759 L44.5608,257.4272 L44.8076,254.5726 L45.4008,251.7832 L45.6821,251.8407 L45.9536,248.9846 L46.2376,246.131 L46.9134,243.3575 L47.576,240.5814 L48.2588,237.8093 L48.3056,237.8198 L49.1317,235.1147 L49.2241,232.2453 L49.8094,229.4863 L50.4209,226.7331 L51.3375,224.0481 L51.224,224.0201 L52.3058,221.4501 L52.9731,218.7777 L53.5457,216.082 L53.9797,213.352 L54.6377,210.6774 L54.9037,210.7505 L55.5773,208.1816 L56.3194,205.6314 L56.535,202.9364 L57.4039,200.4212 L58.1602,197.8749 L57.8856,197.7896 L58.8004,195.4299 L59.8305,193.1059 L60.3226,190.6148 L60.8592,188.1375 L61.9055,185.8186 L61.5977,185.7089 L63.0126,183.7039 L63.6835,181.4336 L64.2032,179.1094 L65.0513,176.9023 L65.8744,174.6863 L65.8072,174.6582 L66.9163,172.7651 L67.7112,170.7407 L68.3132,168.6357 L69.4025,166.7344 L70.0676,164.6557 L70.1111,164.6777 L70.7447,162.8013 L71.7855,161.1304 L72.4453,159.2672 L73.3572,157.5313 L74.4858,155.9048 L74.6589,156.0319 L76.2893,153.2415 L78.4517,150.8418 L80.3996,148.2846 L82.31,145.6998 L84,142.9531 L84.1669,143.1476 L85.817,141.166 L87.8412,139.6203 L89.7766,137.9711 L91.7554,136.3726 L93.6477,134.6731 L93.6931,134.7389 L95.5784,133.0032 L97.9321,131.9451 L99.8181,130.2104 L102.1651,129.1427 L104.0858,127.4581 L104.1356,127.547 L106.4604,126.4902 L108.6638,125.2168 L110.6926,123.6315 L112.8642,122.301 L115.1869,121.2406 L115.2324,121.3407 L117.4876,120.1243 L119.9412,119.3447 L122.0957,117.9067 L124.4253,116.8541 L126.8238,115.9531 L126.8594,116.0501 L129.3352,115.347 L131.7464,114.4679 L134.089,113.402 L136.4717,112.4455 L138.8688,111.5281 L138.8441,111.4442 L141.2961,110.6733 L143.8548,110.2648 L146.3537,109.6532 L148.7483,108.6875 L151.1948,107.8981 L151.16,107.7482 L153.7236,107.4587 L156.225,106.9022 L158.6688,106.0976 L161.2159,105.7371 L163.6744,104.9956 L163.7308,105.3104 L166.1344,104.3182 L168.6229,103.7991 L171.2192,103.8812 L173.7003,103.3212 L176.18,102.7531 " fill="none" style="stroke: #A80036; stroke-width: 1.0;"/><polygon fill="#A80036" points="181.5,101.9831,181.4501,101.804,179.6396,101.587,177.6748,100.8164,175.7666,100.2487,173.9481,100.0026,172.0129,99.3383,172.0033,99.3253,172.9107,99.9992,173.9089,100.7952,174.8263,101.4825,175.7186,102.1361,176.5534,102.7122,176.7264,102.8408,175.9032,103.6386,175.3421,104.6312,174.5795,105.474,173.7611,106.2754,173.1795,107.2528,173.186,107.2631,174.7703,106.0831,176.6026,105.2948,178.2812,104.2637,179.7776,102.9449,181.5,101.9831" style="stroke: #A80036; stroke-width: 1.0;"/><path d="M31.45,330.4231 L31.2263,330.3853 L32.1872,327.6427 L32.6342,324.8132 L32.9064,321.9542 L33.2648,319.1097 L33.8376,316.3015 L33.7352,316.2791 L34.7482,313.3424 L35.2304,310.2898 L35.8283,307.2624 L36.5872,304.2702 L37.1297,301.2308 L36.9241,301.1735 L38.082,298.1362 L39.0366,295.0422 L39.763,291.8847 L40.3365,288.6847 L41.4713,285.6409 L41.2976,285.5796 L42.6456,282.5288 L43.5534,279.3226 L44.7817,276.2295 L45.7164,273.0327 L47.0075,269.9619 L47.165,270.0325 L48.2322,266.8268 L49.9888,263.9301 L51.0196,260.708 L52.4505,257.6654 L53.8834,254.6236 L53.7338,254.5378 L55.7006,251.7933 L56.9505,248.6375 L58.6521,245.7409 L60.767,243.0815 L62.2441,240.0561 L62.3054,240.1019 L64.419,237.5149 L66.4085,234.8351 L68.2769,232.0648 L70.2048,229.339 L72.2346,226.6893 L72.2377,226.6925 L74.6505,224.405 L77.0045,222.0588 L79.5156,219.8699 L81.7121,217.3657 L84,214.9531 L84.0519,215.0229 L86.5914,213.1282 L89.1045,211.1978 L91.6247,209.277 L94.1963,207.4254 L96.7102,205.4962 L96.8439,205.7289 L99.3024,203.6346 L102.1838,202.2763 L104.8119,200.4772 L107.6947,199.1211 L110.4736,197.5844 L110.3683,197.3479 L113.4985,196.5301 L116.2727,194.9129 L119.1797,193.5939 L122.2233,192.5817 L125.0542,191.0919 L125.0917,191.201 L128.055,189.96 L131.1298,189.0438 L134.2188,188.169 L137.2303,187.0683 L140.2163,185.8931 L140.2907,186.1796 L143.2354,184.7701 L146.3684,184.0854 L149.4906,183.3587 L152.6628,182.8245 L155.7237,181.8625 L155.6856,181.6634 L158.8185,181.115 L161.9604,180.6141 L165.1402,180.3112 L168.1633,179.1896 L171.3408,178.8744 L171.3051,178.6076 L174.4272,178.3721 L177.5743,178.3241 L180.6562,177.7888 L183.7069,177.0195 L186.8315,176.8031 L186.8389,176.8907 L189.8432,176.3815 L192.8977,176.4664 L195.9103,176.0556 L198.9547,176.0202 L201.96,175.5231 " fill="none" style="stroke: #A80036; stroke-width: 1.0;"/><polygon fill="#A80036" points="207.26,175.2331,207.2111,175.1048,205.339,174.3217,203.5677,173.8032,201.7539,173.1734,199.964,172.6061,198.0559,171.7283,198.0693,171.7432,198.7764,172.3478,199.6755,173.1665,200.628,174.0447,201.3976,174.7189,202.2674,175.5049,202.3166,175.549,201.6299,176.4529,200.7626,177.1948,199.8737,177.9173,199.3756,178.9903,198.4908,179.7165,198.5605,179.8529,200.2244,178.7803,202.0487,178.0213,203.6422,176.8111,205.3967,175.9158,207.26,175.2331" style="stroke: #A80036; stroke-width: 1.0;"/><path d="M48.09,347.0031 L48.1883,347.0979 L49.5571,345.2805 L51.0466,343.5795 L53.0217,342.3468 L54.4169,340.5549 L55.9284,338.8752 L55.8276,338.7659 L57.7155,337.315 L59.2501,335.4811 L61.0575,333.943 L63.0864,332.6449 L64.6425,330.8344 L64.7751,331.0015 L66.4168,329.2035 L68.4511,327.9003 L70.2965,326.3591 L72.2508,324.9551 L74.0578,323.3655 L73.8944,323.112 L76.0533,322.0939 L78.025,320.7856 L80.041,319.5458 L81.8416,317.972 L84,316.9531 L83.923,316.8035 L87.3658,315.1036 L90.8359,313.4568 L94.185,311.5749 L97.6905,309.9968 L101.0677,308.1694 L101.1086,308.2642 L104.5817,306.4693 L108.1298,304.8483 L111.8157,303.5462 L115.5073,302.2572 L118.9688,300.4356 L118.9915,300.4978 L122.5558,298.8232 L126.4337,298.0048 L129.9598,296.2263 L133.6358,294.8565 L137.3855,293.6881 L137.2927,293.3916 L141.1502,292.6568 L144.7914,291.2306 L148.5907,290.3096 L152.3501,289.2613 L156,287.8631 " fill="none" style="stroke: #A80036; stroke-width: 1.0;"/><polygon fill="#A80036" points="160.96,286.4531,160.933,286.266,159.0014,286.1087,157.0796,286.0195,155.0866,285.4368,153.1431,285.197,151.2123,285.0451,151.2438,285.1013,152.2871,285.7546,153.3085,286.3689,154.1121,286.5943,155.0851,287.1222,156.1476,287.8097,156.1296,287.7997,155.4775,288.7312,154.8733,289.6895,154.5897,290.8274,153.7443,291.6507,153.3829,292.745,153.5023,292.8888,154.8469,291.4247,156.479,290.3069,157.8971,288.9313,159.3662,287.6171,160.96,286.4531" style="stroke: #A80036; stroke-width: 1.0;"/><path d="M48.01,371.9531 L48.01,371.6297 L58.96,372.4401 L69.91,372.4269 L80.86,371.3892 L91.81,370.954 L102.76,371.9531 " fill="none" style="stroke: #A80036; stroke-width: 1.0;"/><polygon fill="#A80036" points="107.77,371.9531,107.7382,371.8815,105.8763,370.9423,104.228,370.4837,102.4131,369.6501,100.6331,368.8952,98.77,367.9531,98.8932,368.0763,99.4582,368.6413,100.2615,369.4446,101.1774,370.3606,102.0123,371.1954,102.77,371.9531,102.752,371.9351,101.8159,372.5991,101.2739,373.657,100.266,374.2491,99.691,375.2741,98.77,375.9531,98.691,375.7753,100.5114,375.0214,102.2889,374.1707,104.074,373.3371,106.0124,372.8485,107.77,371.9531" style="stroke: #A80036; stroke-width: 1.0;"/><path d="M48.09,396.9031 L48.2878,397.0939 L49.8435,398.7079 L51.194,400.1241 L52.9635,401.9443 L54.2769,403.3247 L55.9284,405.0311 L55.7884,404.8794 L57.62,406.5837 L59.502,408.3427 L61.3759,410.0929 L62.7793,411.3332 L64.6425,413.0719 L64.6278,413.0534 L66.4579,414.4804 L68.3714,416.0125 L70.4431,417.7441 L72.0487,418.888 L74.0578,420.5408 L73.9326,420.3467 L76.1043,421.9132 L78.0968,423.2021 L80.0127,424.372 L82.0422,425.7181 L84,426.9531 L84.1389,427.2229 L87.412,428.7069 L90.7206,430.2597 L94.3338,432.4046 L97.7465,434.1597 L101.0677,435.7369 L101.0296,435.6489 L104.5352,437.0227 L108.2016,438.7692 L111.7619,440.2697 L115.3719,441.8854 L118.9688,443.4706 L118.8945,443.2679 L122.6362,444.7767 L126.4309,446.4303 L129.9903,447.4415 L133.7315,448.9489 L137.3855,450.2181 L137.293,449.9227 L141.0282,451.127 L144.8778,452.6968 L148.6155,453.909 L152.3498,455.1104 L156,456.0431 " fill="none" style="stroke: #A80036; stroke-width: 1.0;"/><polygon fill="#A80036" points="160.96,457.4531,160.8902,457.3691,159.2942,456.0136,157.9562,454.9689,156.3618,453.6155,154.8484,452.3595,153.3829,451.1613,153.2831,451.1053,154.0379,452.2055,154.6338,453.2166,154.9069,454.0469,155.5519,455.0855,156.1476,456.0965,156.1195,456.0463,155.1672,456.6614,154.0782,457.0322,153.1938,457.7685,152.1259,458.1771,151.2123,458.8612,151.2241,458.9428,153.1578,458.5516,155.0939,458.1771,157.0604,458.0126,159.0153,457.7679,160.96,457.4531" style="stroke: #A80036; stroke-width: 1.0;"/><path d="M32.17,413.4931 L31.9386,413.4507 L32.8735,416.3139 L33.3506,419.0933 L33.8502,421.8767 L34.5378,424.6946 L34.7223,427.4203 L35.0233,427.4895 L35.6607,430.4547 L36.2724,433.4139 L36.8738,436.3708 L37.4202,439.3151 L38.1436,442.3 L38.1335,442.2971 L38.768,445.3115 L39.8672,448.4589 L41.1098,451.6474 L41.4498,454.5775 L42.5603,457.7281 L42.3515,457.6539 L43.7018,460.8547 L44.8863,463.9965 L46.1437,467.1642 L47.1879,470.2561 L48.0987,473.3006 L48.1801,473.3367 L49.2668,476.2793 L51.0345,479.5237 L52.2386,482.5184 L53.6033,485.5842 L54.8855,488.6134 L55.0953,488.7303 L56.7648,491.6809 L58.3016,494.5574 L59.973,497.5091 L61.6102,500.4416 L63.047,503.2625 L62.8519,503.1236 L65.1828,506.1234 L66.8725,508.6669 L68.7106,511.3159 L70.7847,514.1329 L72.7097,516.8438 L72.9377,517.0563 L75.1635,519.4482 L77.1092,521.5788 L79.4112,524.0416 L81.551,526.3533 L84,528.9531 L84.1748,529.1651 L86.5522,531.1148 L88.777,532.8794 L91.3986,535.1252 L93.6828,536.9618 L96.0317,538.877 L96.0218,538.862 L98.5845,540.5169 L101.1784,542.2189 L103.7363,543.8666 L106.5204,545.8559 L109.0938,547.5269 L109.1201,547.576 L111.7674,548.83 L114.5681,550.3694 L117.2849,551.7528 L120.3158,553.7203 L122.9714,554.9898 L123.0389,555.1435 L125.8542,556.2331 L128.7131,557.4219 L131.5969,558.6675 L134.5033,559.9644 L137.45,561.3531 " fill="none" style="stroke: #A80036; stroke-width: 1.0;"/><polygon fill="#A80036" points="142.45,563.2731,142.4416,563.2647,141.0301,561.8589,139.8345,560.6698,138.3687,559.2094,136.7248,557.5702,135.4715,556.3232,135.6031,556.382,135.7755,557.2857,136.1978,558.301,137.0364,559.5024,137.5073,560.5395,137.7796,561.4878,137.771,561.4685,136.6471,561.7265,135.6291,562.2216,134.6162,562.7281,133.6961,563.4421,132.615,563.7959,132.608,563.6629,134.5805,563.6636,136.5513,563.63,138.5171,563.5036,140.4892,563.4941,142.45,563.2731" style="stroke: #A80036; stroke-width: 1.0;"/><path d="M31.58,413.5431 L31.7899,413.5655 L32.2971,419.0035 L33.0436,424.4671 L33.3335,429.882 L33.7449,435.3098 L34.4809,440.7722 L34.616,440.7883 L35.1432,443.8323 L35.4711,446.8527 L35.7181,449.8634 L36.1652,452.8979 L36.2802,455.8929 L36.4606,455.9162 L36.7357,459.0647 L36.8696,462.1951 L37.8063,465.4289 L37.8655,468.5496 L38.3208,471.7214 L38.1192,471.6931 L38.4975,474.9448 L39.0095,478.2152 L39.4483,481.4753 L40.3936,484.8065 L40.6092,488.0353 L40.6286,488.0383 L40.9287,491.3218 L41.5383,494.6527 L41.8296,497.9348 L42.5791,501.2871 L43.1519,504.6124 L43.2993,504.6373 L43.7548,507.9431 L43.9946,511.2126 L44.8237,514.5814 L45.2443,517.8814 L45.9554,521.2303 L46.0555,521.2491 L46.3374,524.4743 L47.2473,527.8168 L47.8029,531.0932 L48.3535,534.3686 L49.0263,537.6669 L48.83,537.6259 L49.6579,540.8657 L50.5915,544.1274 L50.9782,547.2751 L51.737,550.5004 L52.371,553.6997 L52.323,553.6884 L53.3243,556.8348 L53.6808,559.8294 L54.5636,562.9479 L55.2491,566.02 L55.9961,569.1065 L56.2025,569.162 L56.6954,571.9959 L57.3588,574.8756 L58.5512,577.8975 L59.1516,580.7603 L59.9081,583.665 L59.8161,583.6363 L60.5861,586.3117 L61.3824,588.9954 L62.3973,591.7472 L62.9977,594.3697 L64.1136,597.153 L64.1971,597.1838 L65.0848,599.6179 L66.1283,602.1095 L66.8815,604.4939 L67.5454,606.8453 L68.619,609.348 L68.8669,609.4597 L69.3247,611.3684 L70.3253,613.5216 L71.5382,615.7705 L72.2967,617.8146 L73.4308,620.0279 L73.6743,620.1895 L75.2747,623.0338 L77.5689,626.3385 L79.8031,629.6035 L81.942,632.8051 L84,635.9531 L83.9487,635.8981 L86.3858,638.2038 L88.4772,640.139 L90.8051,642.3276 L92.8144,644.1748 L95.0481,646.2625 L94.9766,646.1653 L97.3496,647.8737 L99.9562,649.8996 L102.265,651.5208 L104.9157,653.6065 L107.2175,655.2181 L107.2676,655.3033 L109.9796,657.0053 L112.4935,658.3707 L115.2347,660.1224 L117.6063,661.246 L120.2981,662.9137 L120.1592,662.6205 L122.9895,664.0824 L125.7384,665.3725 L128.487,666.662 L131.4197,668.3401 L134.08,669.4431 " fill="none" style="stroke: #A80036; stroke-width: 1.0;"/><polygon fill="#A80036" points="138.88,671.4131,138.8776,671.4109,137.5138,669.9849,136.1956,668.6025,134.8745,667.2174,133.5714,665.8496,132.0732,664.2951,132.2569,664.3719,132.4254,665.3038,132.9879,666.4004,133.531,667.4889,133.8513,668.4843,134.2545,669.5144,134.2535,669.5119,133.1869,669.8939,132.1797,670.4179,131.1824,670.9656,130.125,671.3694,129.0352,671.6958,129.0367,671.7493,131.0102,671.8507,132.9722,671.5515,134.9387,671.4084,136.9106,671.4542,138.88,671.4131" style="stroke: #A80036; stroke-width: 1.0;"/></g></svg>