<?xml version="1.0" encoding="UTF-8" standalone="no"?><svg xmlns="http://www.w3.org/2000/svg" xmlns:xlink="http://www.w3.org/1999/xlink" contentScriptType="application/ecmascript" contentStyleType="text/css" height="481px" preserveAspectRatio="none" style="width:362px;height:481px;" version="1.1" viewBox="0 0 362 481" width="362px" zoomAndPan="magnify"><defs><filter height="300%" id="fxmasv0" width="300%" x="-1" y="-1"><feGaussianBlur result="blurOut" stdDeviation="2.0"/><feColorMatrix in="blurOut" result="blurOut2" type="matrix" values="0 0 0 0 0 0 0 0 0 0 0 0 0 0 0 0 0 0 .4 0"/><feOffset dx="4.0" dy="4.0" in="blurOut2" result="blurOut3"/><feBlend in="SourceGraphic" in2="blurOut3" mode="normal"/></filter></defs><g><text fill="#000000" font-family="sans-serif" font-size="18" lengthAdjust="spacingAndGlyphs" textLength="306" x="41.5" y="16.708">ユースケース：ユーザーグループ管理</text><!--cluster ユーザーグループ管理--><polygon fill="#FFFFFF" filter="url(#fxmasv0)" points="92,44.9531,92,44.6991,101.7333,44.4902,111.4667,45.6353,121.2,44.4974,130.9333,44.8184,140.6667,45.265,150.4,44.2678,160.1333,44.2605,169.8667,44.8828,179.6,44.7329,189.3333,45.5275,199.0667,45.6214,208.8,45.4901,218.5333,45.2852,228.2667,45.4171,238,44.9531,238.0071,44.9554,239.6305,49.4849,240.6682,53.8305,242.4219,58.4009,243.5206,62.7657,245,67.25,245,66.515,255,66.8437,265,66.8576,275,67.9,285,66.8447,295,67.3854,305,67.2472,315,67.6445,325,67.4001,335,67.1302,345,67.68,355,67.25,354.936,67.25,354.5858,77.1696,355.2801,87.0892,354.5134,97.0088,354.2636,106.9284,354.9061,116.8479,355.5692,126.7675,355.3807,136.6871,354.5989,146.6067,354.9117,156.5263,355.2155,166.4459,355.3016,176.3655,354.5008,186.2851,355.5637,196.2046,355.597,206.1242,355.1557,216.0438,355.4393,225.9634,354.8974,235.883,355.05,245.8026,354.3817,255.7222,355.1895,265.6418,354.9784,275.5614,354.7696,285.4809,354.9785,295.4005,354.8905,305.3201,355.5757,315.2397,354.8243,325.1593,355.1672,335.0789,354.8138,344.9985,354.7444,354.9181,354.7859,364.8377,355.4443,374.7572,355.285,384.6768,354.851,394.5964,354.6625,404.516,354.4447,414.4356,355.3063,424.3552,355.7437,434.2748,355.4689,444.1944,354.8094,454.1139,355.7374,464.0335,355,473.9531,355,473.2254,344.8846,473.8158,334.7692,473.5539,324.6538,473.3503,314.5385,473.6371,304.4231,473.7769,294.3077,474.1895,284.1923,474.622,274.0769,473.534,263.9615,474.3121,253.8462,473.8731,243.7308,474.5547,233.6154,473.5574,223.5,474.1203,213.3846,474.5843,203.2692,474.5772,193.1538,473.277,183.0385,474.0631,172.9231,473.8529,162.8077,473.263,152.6923,474.403,142.5769,473.6489,132.4615,473.7824,122.3462,474.6085,112.2308,473.9022,102.1154,473.5499,92,473.9531,92.6551,473.9531,92.5662,463.9764,91.9482,453.9996,91.4905,444.0229,92.5182,434.0461,92.6747,424.0694,91.4238,414.0927,92.2364,404.1159,92.6106,394.1392,91.2503,384.1624,92.1363,374.1857,92.0721,364.2089,91.4042,354.2322,91.2998,344.2555,91.5412,334.2787,92.1429,324.302,91.3013,314.3252,91.9995,304.3485,91.5197,294.3717,92.2565,284.395,91.7598,274.4182,91.3426,264.4415,92.7078,254.4648,92.2921,244.488,92.2304,234.5113,91.3341,224.5345,91.9664,214.5578,92.175,204.581,91.6095,194.6043,92.7182,184.6275,91.6261,174.6508,92.2723,164.6741,92.356,154.6973,92.5736,144.7206,92.0641,134.7438,91.4561,124.7671,91.9412,114.7903,92.1724,104.8136,92.4143,94.8368,91.9265,84.8601,91.9031,74.8834,91.7574,64.9066,92.2938,54.9299,92,44.9531" style="stroke: #000000; stroke-width: 2.0;"/><path d="M92,67.25 L92,68.1665 L102.2,67.8508 L112.4,67.7227 L122.6,67.0218 L132.8,67.6759 L143,67.0167 L153.2,67.793 L163.4,67.2492 L173.6,66.4511 L183.8,66.5236 L194,67.7634 L204.2,67.092 L214.4,67.3626 L224.6,67.7295 L234.8,68.0426 L245,67.25 " fill="#FFFFFF" style="stroke: #000000; stroke-width: 2.0;"/><text fill="#000000" font-family="sans-serif" font-size="14" font-weight="bold" lengthAdjust="spacingAndGlyphs" textLength="140" x="96" y="59.9482">ユーザーグループ管理</text><polygon fill="#FEFECE" filter="url(#fxmasv0)" points="337.0438,109.7979,333.7427,113.8989,324.3812,117.0656,318.1132,121.1899,304.57,123.8472,293.648,127.0831,275.3388,128.5493,258.1243,129.9824,243.6815,131.6238,222.7424,131.3087,206.477,131.3968,187.7922,130.2317,169.1814,128.291,154.3299,126.3348,140.7794,123.7879,131.6843,121.3356,119.6048,117.3466,111.46,113.3809,108.3961,109.7448,105.9077,105.5167,108.2176,101.7193,111.8562,97.6928,120.9822,94.4741,128.3047,90.5826,142.5438,88.0789,155.8946,85.3791,170.5663,83.11,189.4883,82.0538,206.1494,80.9021,225.9028,80.9554,240.6842,80.5397,259.5766,81.7506,277.6308,83.5685,292.6839,85.5692,305.4699,87.9474,316.9922,90.9354,327.2317,94.5182,334.5789,98.3079,337.404,101.8912,337.1305,105.5097" style="stroke: #A80036; stroke-width: 1.5;"/><text fill="#000000" font-family="sans-serif" font-size="14" lengthAdjust="spacingAndGlyphs" textLength="210" x="118.6274" y="110.627">ユーザーグループ一覧を表示する</text><polygon fill="#FEFECE" filter="url(#fxmasv0)" points="324.5461,193.3492,321.6964,197.0534,315.5594,200.386,308.2655,203.707,294.5702,205.7232,285.1055,208.6843,269.973,210.2545,256.7186,211.9973,239.8527,212.5707,225.2667,213.1838,209.3533,212.9356,193.4603,212.0456,176.2325,210.1457,164.6264,208.7417,152.9164,206.5255,141.0794,203.482,132.8746,200.4609,127.9185,197.4056,123.9282,193.8543,121.1798,189.9341,122.6106,186.3825,126.2107,182.8459,131.219,179.2612,142.5184,176.8349,150.3864,173.5171,161.659,170.9598,175.9653,169.2051,190.9787,167.8552,209.4935,167.6501,222.5959,166.7056,239.5029,167.1758,254.5963,167.8871,268.6505,169.0782,285.0613,171.5554,295.0707,173.3917,306.67,176.3821,313.4952,179.095,321.8771,182.9155,326.9902,186.7176,325.3338,189.6539" style="stroke: #A80036; stroke-width: 1.5;"/><text fill="#000000" font-family="sans-serif" font-size="14" lengthAdjust="spacingAndGlyphs" textLength="182" x="132.7042" y="194.5424">ユーザーグループを作成する</text><polygon fill="#FEFECE" filter="url(#fxmasv0)" points="323.8742,274.1991,322.7115,278.2801,316.3647,281.5659,307.2263,284.4749,297.2672,287.3256,283.0405,289.223,270.1381,291.2913,255.3639,292.6947,239.033,293.3876,223.6813,293.8297,206.9915,293.408,192.2649,292.7786,175.1212,290.8974,164.8839,289.7992,151.8721,287.2922,142.1466,284.7204,130.6671,280.9678,124.8663,277.7239,120.6841,274.1297,121.864,271.087,121.8857,267.2206,127.8576,264.2138,133.9629,260.8741,141.6179,257.6337,150.3583,254.5108,161.8159,251.9948,178.8148,250.8416,190.9837,248.8563,206.3003,247.9368,222.3172,247.6433,239.2555,248.1205,255.9049,249.1794,270.1817,250.4202,285.9003,252.7428,297.4364,254.9201,307.5054,257.5687,316.6017,260.789,321.7835,263.8946,324.7377,267.2145,327.3374,271.1015" style="stroke: #A80036; stroke-width: 1.5;"/><text fill="#000000" font-family="sans-serif" font-size="14" lengthAdjust="spacingAndGlyphs" textLength="182" x="132.7042" y="275.5424">ユーザーグループを編集する</text><polygon fill="#FEFECE" filter="url(#fxmasv0)" points="326.2474,355.7292,323.0381,359.3531,314.0307,362.0445,306.0051,365.2021,297.5595,368.3909,285.8298,370.8461,270.7951,372.4381,253.9186,373.3718,240.0724,374.6198,223.7992,374.856,208.3306,374.7071,191.3677,373.5782,175.198,371.9146,164.1386,370.6327,149.084,367.6694,139.3841,365.1033,131.1757,362.0814,124.6158,358.6679,120.5946,355.1097,119.0686,351.4626,123.5427,348.5907,126.9394,345.0087,133.5679,341.7859,142.0319,338.7262,151.9812,335.8733,163.7554,333.4281,177.7117,331.5952,191.4786,329.9669,207.7196,329.2539,221.8553,328.5401,240.9924,329.5085,256.6327,330.342,271.7819,331.7776,283.169,333.1327,295.6675,335.525,305.7453,338.1755,314.5777,341.3369,319.4862,344.3815,326.5979,348.63,327.1069,352.05" style="stroke: #A80036; stroke-width: 1.5;"/><text fill="#000000" font-family="sans-serif" font-size="14" lengthAdjust="spacingAndGlyphs" textLength="182" x="132.7042" y="356.5424">ユーザーグループを削除する</text><polygon fill="#FEFECE" filter="url(#fxmasv0)" points="331.1698,437.9138,328.4045,441.8839,321.5104,445.3204,310.5785,448.1213,299.6299,451.0504,287.785,453.7806,273.9563,455.9384,258.8662,457.5555,240.6946,458.1055,223.1773,458.3049,207.7344,458.3683,190.0048,457.2415,173.1657,455.5608,157.3347,453.3015,146.2794,451.2691,133.8101,448.0792,124.3422,444.7223,117.9284,441.2412,117.7203,438.3859,114.9959,434.2895,117.0981,430.6681,120.8153,426.9093,127.5064,423.4277,137.4723,420.4124,147.0865,417.1871,158.4582,414.3518,175.346,412.8731,188.6594,410.8616,205.4484,410.0047,223.3511,409.8909,240.6598,410.2417,257.4306,411.1556,273.3385,412.6296,288.2734,414.69,298.9042,416.6281,311.789,419.9103,320.056,423.0005,327.951,426.8105,330.6291,430.2141,334.0776,434.4712" style="stroke: #A80036; stroke-width: 1.5;"/><text fill="#000000" font-family="sans-serif" font-size="14" lengthAdjust="spacingAndGlyphs" textLength="196" x="125.6316" y="438.8279">ユーザーグループをコピーする</text><!--entity 管理者--><polygon fill="#FEFECE" filter="url(#fxmasv0)" points="35.0153,242.016,33.7087,244.2933,32.2475,245.7508,29.6692,246.6416,27.205,247.3424,24.4657,247.2866,22.4394,246.4318,21.5973,244.9361,20.3103,243.8334,19.3014,242.694,18.724,241.2423,19.4837,239.0158,19.8294,237.0295,20.1251,234.9727,21.3957,233.2742,23.1461,231.9499,25.6575,231.2097,27.349,231.2596,29.4317,232.0363,31.173,232.804,32.6228,233.6195,33.8658,234.9011,34.2354,237.0163,35.2785,238.902,34.604,241.2726" style="stroke: #A80036; stroke-width: 2.0;"/><path d="M27,247.4531 L27.1101,247.4531 L27.2327,252.8531 L27.1246,258.2531 L27.5496,263.6531 L26.3424,269.0531 L27,274.4531 M14,255.4531 L14,255.5863 L19.2,255.9969 L24.4,255.6811 L29.6,255.739 L34.8,254.815 L40,255.4531 M27,274.4531 L26.6362,274.1378 L24.8718,277.862 L21.3015,280.0211 L18.7652,283.0763 L16.6559,286.5016 L14,289.4531 M27,274.4531 L27.2571,274.6759 L29.6324,277.4812 L31.7394,280.054 L34.6251,283.3015 L37.6152,286.6396 L40,289.4531 " fill="#FEFECE" style="stroke: #A80036; stroke-width: 2.0;"/><text fill="#000000" font-family="sans-serif" font-size="14" lengthAdjust="spacingAndGlyphs" textLength="42" x="6" y="309.4482">管理者</text><path d="M37.68,229.4531 L37.7338,229.4709 L38.3058,227.398 L39.071,225.3888 L39.9924,223.4312 L40.5279,221.3462 L41.0452,219.2553 L40.9406,219.216 L41.7793,217.1119 L42.6005,215.0011 L43.6824,212.9883 L44.0082,210.6916 L45.0244,208.6541 L44.9356,208.6159 L45.8074,206.4357 L46.7058,204.2669 L47.932,202.2389 L48.882,200.0923 L49.657,197.8705 L49.8994,197.9906 L50.4878,195.6054 L51.8392,193.5983 L53.0317,191.5125 L53.915,189.2734 L54.9825,187.1256 L54.7831,187.0104 L56.22,185.0436 L57.6881,183.0948 L58.3655,180.6891 L60.0967,178.8923 L61.0402,176.6404 L60.9846,176.6025 L62.574,174.7542 L63.9861,172.7849 L64.982,170.5315 L66.7705,168.8191 L67.8694,166.6359 L67.6866,166.4858 L69.4488,164.8176 L70.9616,162.9445 L72.697,161.2543 L74.115,159.3033 L75.5095,157.3332 L75.7368,157.5635 L77.4188,155.8711 L79.017,154.0939 L80.6541,152.3561 L82.4571,150.7864 L84,148.9531 L83.9873,148.9369 L85.949,147.3756 L88.0113,145.9426 L89.8778,144.2597 L91.92,142.8011 L93.8698,141.2247 L94.0034,141.4366 L96.0039,139.866 L98.111,138.4645 L100.1398,136.9388 L102.4526,135.8638 L104.5712,134.4806 L104.4856,134.3142 L106.8822,133.4075 L109.2206,132.3876 L111.4615,131.1784 L113.6448,129.8572 L115.8895,128.6553 L115.9611,128.8241 L118.1396,127.4393 L120.5923,126.7007 L122.8532,125.5102 L125.1942,124.5084 L127.61,123.6831 " fill="none" style="stroke: #A80036; stroke-width: 1.0;"/><polygon fill="#A80036" points="132.53,121.8631,132.5232,121.7587,130.5638,121.7265,128.6135,121.8359,126.6389,121.5704,124.6743,121.459,122.7018,121.2253,122.7379,121.3035,123.8205,121.8967,124.7101,122.0716,125.7724,122.6209,126.7343,122.9523,127.839,123.5936,127.688,123.524,127.447,124.6587,127.0468,125.72,126.2225,126.5858,125.7739,127.6248,125.4706,128.7308,125.6033,128.8672,126.9332,127.4094,128.3342,126.0247,129.5745,124.4748,131.1793,123.2995,132.53,121.8631" style="stroke: #A80036; stroke-width: 1.0;"/><path d="M48.15,253.5231 L48.3252,253.7515 L49.6946,252.1795 L51.3735,251.0111 L53.1114,249.9196 L54.8371,248.8121 L56.2561,247.3048 L56.4173,247.5331 L58.0108,246.0311 L59.6855,244.6442 L61.5773,243.5646 L63.3532,242.3208 L65.1113,241.0519 L65.2776,241.3147 L66.9958,239.897 L68.7865,238.5939 L70.5802,237.2955 L72.4269,236.0808 L74.4483,235.142 L74.4508,235.1466 L76.4897,234.3456 L78.1406,232.8302 L80.2901,232.2326 L82.1357,231.0758 L84,229.9531 L83.8943,229.7206 L86.8787,228.5724 L89.8692,227.4379 L92.8331,226.2448 L95.729,224.902 L98.5302,223.3506 L98.4746,223.2094 L101.4356,221.8524 L104.5894,220.9848 L107.5981,219.749 L110.6251,218.5594 L113.6613,217.3931 L113.5867,217.1777 L116.6362,216.0312 L119.8013,215.2185 L122.8473,214.0615 L126.0592,213.3842 L129.0492,212.0656 L129.034,212.0164 L132.0172,210.8239 L135.208,210.3055 L138.1831,209.0867 L141.3283,208.4204 L144.35,207.3531 " fill="none" style="stroke: #A80036; stroke-width: 1.0;"/><polygon fill="#A80036" points="149.18,205.9731,149.1665,205.8775,147.2479,205.8256,145.2993,205.561,143.3593,205.3577,141.382,204.8908,139.4285,204.5919,139.5264,204.7679,140.4961,205.2841,141.4665,205.8018,142.4489,206.3408,143.3542,206.7414,144.3713,207.343,144.2443,207.2723,143.8175,208.3295,143.0759,209.2116,142.6182,210.2517,142.0298,211.219,141.6202,212.2858,141.4869,212.1261,143.147,211.041,144.5928,209.6992,146.1656,208.5096,147.5583,207.1042,149.18,205.9731" style="stroke: #A80036; stroke-width: 1.0;"/><path d="M48.08,270.9531 L48.08,270.3863 L57.6929,270.0949 L67.3057,271.8095 L76.9186,270.8181 L86.5314,271.6515 L96.1443,271.6356 L105.7571,271.3965 L115.37,270.9531 " fill="none" style="stroke: #A80036; stroke-width: 1.0;"/><polygon fill="#A80036" points="120.55,270.9531,120.6373,271.1495,118.7229,270.0922,116.9108,269.2649,115.0822,268.4005,113.2499,267.528,111.55,266.9531,111.5929,266.996,112.4496,267.8528,113.2315,268.6346,114.0023,269.4054,114.9075,270.3106,115.55,270.9531,115.4058,270.8089,114.6317,271.6348,114.0673,272.6704,112.9843,273.1874,112.2991,274.1022,111.55,274.9531,111.4932,274.8252,113.2852,274.0073,115.1832,273.4278,116.9732,272.6052,118.7193,271.684,120.55,270.9531" style="stroke: #A80036; stroke-width: 1.0;"/><path d="M48.23,287.9031 L48.1941,287.8551 L49.8522,289.1143 L51.3491,290.1578 L53.0528,291.4782 L54.6877,292.7064 L56.3447,293.9642 L56.3334,293.9478 L57.9305,294.919 L59.712,296.1573 L61.5009,297.4063 L63.4315,298.8608 L65.1925,300.0694 L65.1018,299.9234 L66.9577,301.0709 L68.8406,302.2617 L70.6636,303.3561 L72.6054,304.6418 L74.5016,305.8539 L74.4467,305.7517 L76.3354,306.751 L78.4572,308.1847 L80.264,309.0314 L82.0819,309.899 L84,310.9531 L84.0961,311.1654 L86.9269,312.1855 L90.0767,313.9101 L93.0553,315.2566 L95.869,316.2388 L98.8983,317.6973 L98.8849,317.6634 L101.9761,318.8615 L105.1828,320.3527 L108.1124,321.1406 L111.3157,322.6231 L114.4013,323.8069 L114.4231,323.8695 L117.4505,324.6176 L120.7301,326.0896 L123.836,327.063 L127.0278,328.2831 L130.1461,329.292 L130.2299,329.5609 L133.2333,330.1456 L136.4748,331.4942 L139.4792,332.0823 L142.6611,333.24 L145.77,334.1631 " fill="none" style="stroke: #A80036; stroke-width: 1.0;"/><polygon fill="#A80036" points="150.69,335.5931,150.7649,335.6817,149.0681,334.1817,147.6527,333.0144,146.0257,331.597,144.6059,330.4247,143.17,329.2331,143.0281,329.1553,143.5383,330.1288,144.4706,331.3337,144.9257,332.277,145.3856,333.2229,145.89,334.1931,145.8567,334.1324,144.8322,334.6171,144.022,335.4926,143.0014,335.9846,142.0416,336.5872,140.93,336.9131,140.9556,337.1026,142.8529,336.434,144.8326,336.375,146.7599,335.9284,148.7592,336.0137,150.69,335.5931" style="stroke: #A80036; stroke-width: 1.0;"/><path d="M37.81,312.4631 L37.9537,312.5111 L38.296,314.4194 L39.1483,316.498 L39.6087,318.4457 L40.581,320.5644 L41.1839,322.5597 L41.024,322.499 L42.0087,324.6679 L42.5392,326.6642 L43.5855,328.8565 L44.6138,331.0419 L45.1664,333.0467 L45.24,333.0787 L46.3865,335.3063 L47.0522,337.3252 L48.1002,339.51 L48.8198,341.5523 L49.796,343.706 L50.0613,343.8388 L50.711,345.7545 L51.715,347.8476 L53.1039,350.1335 L53.9509,352.148 L55.1113,354.3194 L54.9692,354.2365 L56.1312,356.2796 L57.4042,358.3875 L58.9677,360.6649 L60.2079,362.7537 L61.1507,364.6689 L61.2824,364.7597 L62.4596,366.6068 L63.9158,368.6463 L65.0112,370.4371 L66.569,372.5467 L67.953,374.5364 L68.0077,374.5818 L69.4448,376.346 L71.1617,378.3421 L72.3906,379.9336 L73.8931,381.752 L75.5565,383.7038 L75.4673,383.6125 L77.2856,385.3951 L79.0519,387.1243 L80.6382,388.6694 L82.2104,390.2 L84,391.9531 L83.9695,391.9134 L86.2579,393.7689 L88.2054,395.1815 L90.4366,396.9627 L92.2625,398.2171 L94.5508,400.0725 L94.5948,400.1447 L96.9312,401.6136 L99.1872,402.9509 L101.425,404.2581 L103.6239,405.5018 L106.0213,407.0706 L105.9202,406.8649 L108.3425,408.0484 L110.7909,409.2848 L113.4019,410.8523 L115.6872,411.7569 L118.1536,413.03 L118.1267,412.9627 L120.5583,413.7737 L123.0834,414.819 L125.7182,416.139 L128.2722,417.2568 L130.69,418.0331 " fill="none" style="stroke: #A80036; stroke-width: 1.0;"/><polygon fill="#A80036" points="135.46,419.6931,135.3763,419.6034,133.9093,418.2307,132.6536,417.0845,131.0034,415.5154,129.6028,414.214,128.2594,412.9737,128.3739,413.0294,128.8988,414.0613,129.244,415.0059,129.6609,415.9853,130.209,417.0285,130.734,418.0605,130.7569,418.1075,129.7214,418.5651,128.7901,419.237,127.6439,419.4672,126.7328,420.1804,125.6472,420.5352,125.6653,420.7461,127.6112,420.384,129.5811,420.3006,131.5257,419.9231,133.4768,419.6214,135.46,419.6931" style="stroke: #A80036; stroke-width: 1.0;"/></g></svg>