<?xml version="1.0" encoding="UTF-8" standalone="no"?><svg xmlns="http://www.w3.org/2000/svg" xmlns:xlink="http://www.w3.org/1999/xlink" contentScriptType="application/ecmascript" contentStyleType="text/css" height="863px" preserveAspectRatio="none" style="width:705px;height:863px;" version="1.1" viewBox="0 0 705 863" width="705px" zoomAndPan="magnify"><defs><filter height="300%" id="f0r1d8o" width="300%" x="-1" y="-1"><feGaussianBlur result="blurOut" stdDeviation="2.0"/><feColorMatrix in="blurOut" result="blurOut2" type="matrix" values="0 0 0 0 0 0 0 0 0 0 0 0 0 0 0 0 0 0 .4 0"/><feOffset dx="4.0" dy="4.0" in="blurOut2" result="blurOut3"/><feBlend in="SourceGraphic" in2="blurOut3" mode="normal"/></filter></defs><g><text fill="#000000" font-family="sans-serif" font-size="18" lengthAdjust="spacingAndGlyphs" textLength="234" x="249" y="17.4023">ユースケース：ユーザー管理</text><!--cluster ユーザー管理--><polygon fill="#FFFFFF" filter="url(#f0r1d8o)" points="92,45.1992,92,44.7086,102,45.6555,112,45.1034,122,45.5502,132,45.633,142,44.496,152,45.2336,162,44.9326,172,45.2906,182,45.1992,182.1135,45.2346,183.4053,49.6985,185.0302,54.2662,186.3755,58.7468,187.6898,63.2178,189,67.6875,189,68.3832,198.9804,66.993,208.9608,67.5948,218.9412,67.9228,228.9216,68.1112,238.902,67.058,248.8824,67.5837,258.8627,68.055,268.8431,68.4132,278.8235,67.5737,288.8039,67.0574,298.7843,67.1122,308.7647,68.2415,318.7451,68.3001,328.7255,67.9209,338.7059,66.9946,348.6863,67.5096,358.6667,68.1125,368.6471,68.4048,378.6275,67.8323,388.6078,67.0985,398.5882,68.3,408.5686,67.4147,418.549,68.1314,428.5294,67.9204,438.5098,67.5247,448.4902,67.2301,458.4706,68.3076,468.451,68.4046,478.4314,66.9575,488.4118,67.4848,498.3922,66.9528,508.3725,67.945,518.3529,67.4561,528.3333,67.17,538.3137,67.4741,548.2941,67.4094,558.2745,67.5141,568.2549,67.3452,578.2353,67.301,588.2157,67.7661,598.1961,68.0883,608.1765,67.3289,618.1569,67.1855,628.1373,68.2261,638.1176,67.3093,648.098,68.367,658.0784,68.2069,668.0588,68.036,678.0392,66.9869,688.0196,67.6471,698,67.6875,698.2622,67.6875,697.9923,77.6687,698.565,87.6498,698.3451,97.631,697.7578,107.6121,698.5785,117.5933,697.9318,127.5745,698.3528,137.5556,697.6684,147.5368,697.594,157.5179,698.0125,167.4991,698.1879,177.4803,697.8416,187.4614,697.5055,197.4426,698.1072,207.4238,698.5798,217.4049,697.2868,227.3861,698.3747,237.3672,698.3636,247.3484,698.7328,257.3296,698.3039,267.3107,698.7346,277.2919,698.714,287.273,697.9175,297.2542,697.9495,307.2354,697.4421,317.2165,698.3162,327.1977,697.5817,337.1788,698.2361,347.16,697.5813,357.1412,697.7591,367.1223,697.849,377.1035,697.4456,387.0847,698.7454,397.0658,697.3456,407.047,697.4118,417.0281,698.1798,427.0093,698.162,436.9905,697.3338,446.9716,698.594,456.9528,698.2891,466.9339,697.661,476.9151,698.0961,486.8963,697.2773,496.8774,697.5914,506.8586,698.4076,516.8397,698.2598,526.8209,697.9375,536.8021,698.3426,546.7832,697.6325,556.7644,698.5,566.7455,698.7346,576.7267,698.7262,586.7079,697.2977,596.689,697.2912,606.6702,697.4365,616.6514,698.2041,626.6325,698.2304,636.6137,698.0635,646.5948,697.9319,656.576,697.4127,666.5572,698.7402,676.5383,698.3749,686.5195,698.2092,696.5006,697.3924,706.4818,698.614,716.463,697.3834,726.4441,697.4309,736.4253,697.8122,746.4064,698.1444,756.3876,698.0968,766.3688,698.1381,776.3499,697.4864,786.3311,698.5091,796.3123,698.0852,806.2934,697.6542,816.2746,697.8846,826.2557,697.3621,836.2369,698.0644,846.2181,698,856.1992,698,855.6397,688.0656,856.7032,678.1311,856.1368,668.1967,856.1949,658.2623,856.174,648.3279,856.6061,638.3934,855.4948,628.459,855.804,618.5246,856.387,608.5902,856.6265,598.6557,856.2577,588.7213,856.6894,578.7869,856.2904,568.8525,856.2127,558.918,856.2941,548.9836,855.977,539.0492,856.1771,529.1148,856.1068,519.1803,855.8095,509.2459,856.7788,499.3115,855.6538,489.377,856.055,479.4426,855.6947,469.5082,856.032,459.5738,856.7908,449.6393,856.5085,439.7049,856.7607,429.7705,856.1238,419.8361,855.8416,409.9016,856.7996,399.9672,856.6673,390.0328,856.0599,380.0984,855.7853,370.1639,855.5732,360.2295,856.4088,350.2951,855.7935,340.3607,856.8932,330.4262,855.8114,320.4918,856.1801,310.5574,856.7167,300.623,856.1083,290.6885,856.6146,280.7541,856.7866,270.8197,855.7051,260.8852,856.251,250.9508,856.4927,241.0164,855.4965,231.082,855.5219,221.1475,856.4337,211.2131,855.7753,201.2787,855.8633,191.3443,856.3117,181.4098,855.5752,171.4754,856.3728,161.541,855.5567,151.6066,856.8566,141.6721,856.5529,131.7377,855.505,121.8033,856.6515,111.8689,856.725,101.9344,856.3241,92,856.1992,92.4711,856.1992,91.9199,846.1869,92.7166,836.1745,92.0741,826.1622,91.8436,816.1498,92.2564,806.1375,91.8913,796.1251,91.9179,786.1128,91.9735,776.1005,91.758,766.0881,91.7907,756.0758,91.7077,746.0634,91.6126,736.0511,91.9255,726.0387,91.452,716.0264,91.8248,706.014,92.2048,696.0017,91.3394,685.9893,91.3788,675.977,91.353,665.9647,92.56,655.9523,92.5953,645.94,91.3678,635.9276,91.3487,625.9153,92.478,615.9029,91.5344,605.8906,91.761,595.8782,91.8014,585.8659,92.6014,575.8535,92.0313,565.8412,92.4786,555.8288,92.4938,545.8165,92.0518,535.8042,92.0277,525.7918,91.7812,515.7795,92.0222,505.7671,91.9517,495.7548,92.3097,485.7424,91.8267,475.7301,91.9384,465.7177,92.2378,455.7054,92.7335,445.693,92.2178,435.6807,91.3073,425.6684,91.7514,415.656,92.6965,405.6437,91.8758,395.6313,92.4523,385.619,92.4288,375.6066,92.1358,365.5943,91.744,355.5819,91.7799,345.5696,91.5209,335.5572,92.2124,325.5449,91.9939,315.5326,92.3294,305.5202,91.6445,295.5079,92.605,285.4955,92.6045,275.4832,92.0979,265.4708,91.6023,255.4585,91.4936,245.4461,91.8876,235.4338,92.2252,225.4214,91.8143,215.4091,92.3624,205.3967,92.2608,195.3844,91.3062,185.3721,91.3697,175.3597,92.1855,165.3474,91.3023,155.335,92.4194,145.3227,92.6432,135.3103,91.3932,125.298,92.3822,115.2856,91.4191,105.2733,91.619,95.2609,91.7303,85.2486,92.4293,75.2363,92.1443,65.2239,91.5325,55.2116,92,45.1992" style="stroke: #000000; stroke-width: 2.0;"/><path d="M92,67.6875 L92,67.3288 L101.7,67.266 L111.4,66.9365 L121.1,68.5777 L130.8,67.7347 L140.5,67.1303 L150.2,67.35 L159.9,68.5529 L169.6,67.2369 L179.3,67.3406 L189,67.6875 " fill="#FFFFFF" style="stroke: #000000; stroke-width: 2.0;"/><text fill="#000000" font-family="sans-serif" font-size="14" font-weight="bold" lengthAdjust="spacingAndGlyphs" textLength="84" x="96" y="60.7344">ユーザー管理</text><polygon fill="#FEFECE" filter="url(#f0r1d8o)" points="287.2606,104.2997,285.8845,107.8607,278.5106,110.3864,273.0316,113.5617,262.0295,115.5971,252.9661,118.0718,238.0873,119.1174,226.2034,120.6213,213.6141,121.6418,199.5156,121.9015,185.2434,121.6177,170.604,120.6742,155.8135,119.0614,146.6374,118.0427,135.8979,115.9659,125.1545,113.1754,116.0659,110.0559,112.5453,107.52,109.4005,104.4343,107.0526,100.9524,107.8092,97.67,113.0225,94.9783,116.3242,91.53,123.815,88.8105,132.6567,86.2856,145.4118,84.6473,156.9788,82.8514,169.2874,81.4437,183.4958,80.7901,198.0221,80.6274,210.8424,80.5821,225.638,81.5611,238.0235,82.629,253.0124,84.9646,261.6791,86.5719,271.525,89.159,279.0207,91.9176,285.9534,95.2265,288.6669,98.2146,290.3239,101.5399" style="stroke: #A80036; stroke-width: 1.5;"/><text fill="#000000" font-family="sans-serif" font-size="14" lengthAdjust="spacingAndGlyphs" textLength="154" x="121.3393" y="105.9112">ユーザー一覧を表示する</text><polygon fill="#FEFECE" filter="url(#f0r1d8o)" points="287.3402,180.3177,283.6089,183.3451,280.2064,186.7706,272.935,189.5398,262.7255,191.7548,252.8515,194.0459,239.2676,195.3848,224.7301,196.2875,213.5098,197.6182,197.2911,197.3974,183.0855,197.1288,172.0467,197.0011,155.8808,195.0766,144.2954,193.5121,136.2288,192.0408,126.9298,189.5776,118.3388,186.5708,111.825,183.3568,109.9523,180.5593,107.5692,177.0695,108.2633,173.7729,112.2198,170.7965,116.6795,167.6105,126.8167,165.4906,134.4619,162.6946,146.7061,160.9406,158.4785,159.1912,169.9874,157.6023,182.5679,156.5798,199.205,156.8954,213.9433,157.2847,224.7174,157.3525,239.465,158.9556,252.9559,160.9518,262.1037,162.668,270.4813,164.9225,278.6623,167.8364,285.846,171.2022,285.8321,173.5723,290.0928,177.4875" style="stroke: #A80036; stroke-width: 1.5;"/><text fill="#000000" font-family="sans-serif" font-size="14" lengthAdjust="spacingAndGlyphs" textLength="154" x="121.3393" y="181.9112">ユーザー一覧で絞り込む</text><polygon fill="#FEFECE" filter="url(#f0r1d8o)" points="276.5225,254.2918,274.0445,257.137,269.425,259.7737,260.9187,261.7081,252.3734,263.732,244.5723,265.9275,232.6556,267.0753,221.5139,268.2076,209.2966,268.8063,199.3113,269.5503,186.4567,269.1878,175.2327,268.6927,161.6528,267.0939,152.9774,266.0283,143.1307,264.0715,135.9443,262.0995,128.8064,259.5176,124.8274,257.0664,120.1386,253.8911,120.9872,251.4843,121.1453,248.4737,124.9132,245.926,127.2252,242.7571,133.5024,240.3085,142.0614,238.2878,151.5052,236.4712,162.36,235.0784,174.2885,234.1276,185.6603,233.3339,199.0034,233.3644,209.0286,233.0743,223.0895,234.2238,232.5761,234.8784,243.3855,236.4362,252.4529,238.2133,262.6928,240.8896,268.4132,243.1445,271.9783,245.5003,274.2317,248.1138,276.3537,251.2058" style="stroke: #A80036; stroke-width: 1.5;"/><text fill="#000000" font-family="sans-serif" font-size="14" lengthAdjust="spacingAndGlyphs" textLength="126" x="135.2871" y="256.0008">代理ログインを行う</text><polygon fill="#FBFB77" filter="url(#f0r1d8o)" points="349,230.6992,349.1636,230.6992,349.1947,238.8234,349.23,246.9477,348.8213,255.0719,348.7697,263.1961,349,271.3203,349,271.4447,359.0909,270.7908,369.1818,271.2222,379.2727,271.088,389.3636,271.3037,399.4545,270.9014,409.5455,271.9172,419.6364,271.8308,429.7273,271.9845,439.8182,271.9994,449.9091,271.3298,460,271.4492,470.0909,272.0613,480.1818,271.6832,490.2727,271.5924,500.3636,271.9331,510.4545,271.8847,520.5455,271.2583,530.6364,271.1218,540.7273,270.5993,550.8182,270.8722,560.9091,270.6027,571,271.6315,581.0909,271.0429,591.1818,271.4192,601.2727,272.0637,611.3636,271.6287,621.4545,272.0253,631.5455,271.3207,641.6364,271.94,651.7273,271.4086,661.8182,271.7202,671.9091,271.717,682,271.3203,681.7679,271.3203,682.2263,265.1961,682.0226,259.0719,682.2134,252.9477,682.1871,246.8234,682,240.6992,682.0347,240.734,679.887,238.5862,678.1506,236.8498,676.1714,234.8706,674.0366,232.7359,672,230.6992,672,230.8633,661.9063,231.3418,651.8125,230.4779,641.7188,231.3309,631.625,230.1831,621.5313,230.3325,611.4375,230.0308,601.3438,230.1432,591.25,230.2407,581.1563,230.6164,571.0625,231.271,560.9688,230.1658,550.875,230.1098,540.7813,230.9419,530.6875,230.1926,520.5938,230.1749,510.5,230.6676,500.4063,230.9431,490.3125,230.2647,480.2188,230.0586,470.125,230.7922,460.0313,230.4561,449.9375,230.7928,439.8438,230.3908,429.75,230.2907,419.6563,230.7675,409.5625,230.7684,399.4688,230.005,389.375,231.2968,379.2813,230.633,369.1875,230.9257,359.0938,231.2989,349,230.6992" style="stroke: #A80036; stroke-width: 1.0;"/><polygon fill="#FBFB77" points="349,230.6992,348.9114,230.6992,349.2493,233.9992,349.1123,237.2992,348.9724,240.5992,349.0102,243.8992,349,247.1992,348.9751,246.7532,338.7379,247.2468,328.5333,248.3247,318.3247,249.3309,308.0494,249.142,297.8685,250.6436,287.6312,251.1357,277.37,251.1992,277.3485,250.8139,287.5724,251.2255,297.8455,252.5173,308.0829,253.1704,318.2908,253.2937,328.5721,254.7336,338.7268,253.9057,349,255.1992,349.0042,255.1992,348.9458,258.4234,349.05,261.6477,349.2387,264.8719,349.2045,268.0961,349,271.3203,349,271.7406,359.0909,271.5719,369.1818,271.0384,379.2727,271.2254,389.3636,271.8984,399.4545,271.5683,409.5455,271.3735,419.6364,271.0044,429.7273,271.8534,439.8182,271.0654,449.9091,271.1323,460,270.7835,470.0909,271.0276,480.1818,271.8295,490.2727,271.5523,500.3636,270.9421,510.4545,271.22,520.5455,271.395,530.6364,271.5429,540.7273,271.6094,550.8182,271.6474,560.9091,271.3488,571,270.6652,581.0909,271.9081,591.1818,271.7714,601.2727,271.4135,611.3636,271.3199,621.4545,271.9879,631.5455,271.722,641.6364,271.9462,651.7273,271.2916,661.8182,271.0964,671.9091,271.6492,682,271.3203,682.1377,271.3203,681.752,265.1961,682.1487,259.0719,681.8931,252.9477,682.2233,246.8234,682,240.6992,681.829,240.5282,679.9356,238.6348,678.0472,236.7464,676.1045,234.8038,673.9137,232.6129,672,230.6992,672,229.9499,661.9063,230.6187,651.8125,230.3806,641.7188,230.7537,631.625,231.0048,621.5313,230.6336,611.4375,230.7502,601.3438,231.1239,591.25,231.1783,581.1563,230.2706,571.0625,230.8831,560.9688,231.3788,550.875,230.0496,540.7813,230.0466,530.6875,231.0758,520.5938,230.5244,510.5,230.8325,500.4063,230.8661,490.3125,231.101,480.2188,230.1458,470.125,230.3125,460.0313,230.5432,449.9375,230.1672,439.8438,230.644,429.75,231.3824,419.6563,230.0235,409.5625,230.2219,399.4688,231.2428,389.375,230.4483,379.2813,231.111,369.1875,231.2082,359.0938,230.9974,349,230.6992" style="stroke: #A80036; stroke-width: 1.0;"/><path d="M672,230.6992 L671.8997,230.6992 L672.1685,232.6992 L671.7206,234.6992 L671.7389,236.6992 L672.323,238.6992 L672,240.6992 " fill="#FBFB77" style="stroke: #A80036; stroke-width: 1.0;"/><path d="M682,240.6992 L682,240.9431 L680,240.9462 L678,240.7636 L676,241.0189 L674,240.3811 L672,240.6992 " fill="#FBFB77" style="stroke: #A80036; stroke-width: 1.0;"/><text fill="#000000" font-family="sans-serif" font-size="13" lengthAdjust="spacingAndGlyphs" textLength="312" x="355" y="248.2676">システム管理ユーザーがシステム管理ユーザー以外の</text><text fill="#000000" font-family="sans-serif" font-size="13" lengthAdjust="spacingAndGlyphs" textLength="195" x="355" y="263.5781">ユーザーに対してログインできる</text><polygon fill="#FEFECE" filter="url(#f0r1d8o)" points="288.8539,328.6607,284.4071,331.526,278.4291,334.368,271.8407,337.2919,263.8762,340.0156,252.2525,341.9102,239.7425,343.4924,224.9407,344.3352,212.3491,345.3552,198.3235,345.6313,182.4383,344.9822,170.5944,344.672,158.2854,343.6214,145.0828,341.6905,134.8541,339.7294,126.236,337.4204,117.046,334.2779,112.1341,331.4269,109.5283,328.4632,108.9731,325.3875,110.7425,322.3345,113.8622,319.1686,116.5576,315.5829,123.8419,312.8166,135.058,310.8297,146.8203,308.9664,158.6295,307.2254,171.3995,305.9222,184.7105,305.0653,198.5783,304.7534,211.5248,304.7367,225.4616,305.5211,241.0895,307.3236,252.5473,308.8592,262.6675,310.7958,271.7196,313.2031,280.0346,316.1473,283.4457,318.6583,287.8426,322.0278,287.4104,324.8798" style="stroke: #A80036; stroke-width: 1.5;"/><text fill="#000000" font-family="sans-serif" font-size="14" lengthAdjust="spacingAndGlyphs" textLength="154" x="121.3393" y="329.9112">代理ログインを解除する</text><polygon fill="#FEFECE" filter="url(#f0r1d8o)" points="277.0416,402.4116,273.9831,405.1228,268.8397,407.6387,263.1011,410.2115,252.6534,411.7966,243.1666,413.6033,232.9369,415.1402,223.9577,416.7713,211.7393,417.3698,198.2634,417.3086,184.8496,416.8171,173.5244,416.2986,162.8093,415.3606,152.6793,413.9595,143.6435,412.1898,136.1361,410.1438,128.0265,407.3378,124.6053,405.0151,119.4682,401.7365,120.7916,399.4392,121.0534,396.4525,122.8515,393.4505,128.4795,391.0464,134.6662,388.5769,142.833,386.4658,151.6909,384.5141,162.2078,383.0433,174.0035,382.0619,185.1843,381.2241,199.7217,381.5301,209.0039,381.0686,222.8139,382.1602,232.6991,382.9068,244.2445,384.6344,254.8276,386.761,260.9524,388.4882,266.8938,390.794,273.3408,393.8146,276.1517,396.5567,276.235,399.1784" style="stroke: #A80036; stroke-width: 1.5;"/><text fill="#000000" font-family="sans-serif" font-size="14" lengthAdjust="spacingAndGlyphs" textLength="126" x="135.2871" y="404.0008">ユーザーを作成する</text><polygon fill="#FEFECE" filter="url(#f0r1d8o)" points="275.3295,473.0167,272.22,475.7162,266.5354,478.1072,262.6218,481.101,252.9319,482.8608,245.529,485.1482,232.5014,486.0398,221.5671,487.2199,209.4668,487.8456,199.1288,488.5082,185.5476,487.9781,175.4115,487.7339,162.4465,486.277,152.8884,485.0078,144.3743,483.3584,133.9892,480.6485,129.6013,478.701,123.529,475.7669,122.3752,473.407,119.0431,470.0359,119.8278,467.1698,122.6987,464.4153,128.5349,462.0592,134.4223,459.5207,143.4548,457.6092,152.7923,455.7681,163.8154,454.4141,174.8401,453.2549,186.987,452.6399,198.947,452.3514,209.6753,452.2235,222.0654,452.9876,234.5176,454.3262,244.7567,455.7525,252.8407,457.3027,261.4847,459.6109,267.2512,461.8765,272.5496,464.6321,274.1603,467.0974,276.3723,470.2101" style="stroke: #A80036; stroke-width: 1.5;"/><text fill="#000000" font-family="sans-serif" font-size="14" lengthAdjust="spacingAndGlyphs" textLength="126" x="135.2871" y="475.0008">ユーザーを編集する</text><polygon fill="#FEFECE" filter="url(#f0r1d8o)" points="276.4498,544.2751,272.6495,546.8152,269.5314,549.7982,261.8369,551.9199,255.014,554.3411,245.3958,556.1174,232.2707,556.9866,222.9548,558.54,211.5148,559.318,197.6703,559.1718,185.0279,558.8582,173.0641,558.1925,161.1948,556.9882,152.3981,555.8947,144.1994,554.318,133.9259,551.634,128.9248,549.545,122.9318,546.6291,122.4371,544.4213,121.4464,541.5903,119.8785,538.1815,123.0936,535.5063,129.2958,533.2347,134.7485,530.5959,143.8455,528.6993,152.2899,526.6522,164.0416,525.4663,174.103,524.0848,186.1943,523.4571,198.9072,523.3423,210.9757,523.5234,222.7475,524.1449,232.437,524.8464,243.6884,526.5061,253.0172,528.3434,261.9913,530.7278,266.788,532.7696,272.2355,535.5596,276.7906,538.7041,276.019,541.1286" style="stroke: #A80036; stroke-width: 1.5;"/><text fill="#000000" font-family="sans-serif" font-size="14" lengthAdjust="spacingAndGlyphs" textLength="126" x="135.2871" y="546.0008">ユーザーを削除する</text><polygon fill="#FEFECE" filter="url(#f0r1d8o)" points="241.4272,611.9114,238.9676,613.8387,236.81,616.1017,233.5823,618.1541,229.1702,619.8788,223.0983,621.0324,218.7717,622.7067,212.0172,623.3877,206.0817,624.1189,199.1387,624.2032,192.7626,624.1218,185.8955,623.4584,179.7548,622.5901,172.9513,621.0082,167.9048,619.5269,163.7525,617.8427,161.4773,616.3004,157.7004,613.7557,156.8511,611.7638,155.8817,609.3175,155.7063,606.7835,157.791,604.7272,160.3978,602.6188,164.3764,600.8248,168.045,598.8442,174.2783,597.7462,178.5379,596.0488,184.6401,595.1433,192.2002,594.9712,198.8974,594.8023,205.8807,595.0927,212.3277,595.6115,217.9846,596.3133,224.2218,597.7003,229.4863,599.2567,232.5951,600.5817,235.9546,602.4972,239.2246,604.8674,240.3325,606.9484,241.7712,609.5562" style="stroke: #A80036; stroke-width: 1.5;"/><text fill="#000000" font-family="sans-serif" font-size="14" lengthAdjust="spacingAndGlyphs" textLength="56" x="170.598" y="614.1023">ログイン</text><polygon fill="#FEFECE" filter="url(#f0r1d8o)" points="249.9272,675.5337,249.3809,678.1548,245.8917,680.186,240.3378,681.7983,234.7253,683.4742,229.0573,685.1345,221.6729,686.2357,215.5961,687.5443,206.8737,687.8824,199.0021,688.1581,190.0247,687.764,181.783,687.1624,173.9689,686.2253,166.6403,684.9383,161.5678,683.7772,155.0867,681.7122,151.1615,679.8568,148.8712,677.9723,147.4137,675.8656,145.991,673.3557,147.4899,671.3006,148.1712,668.7171,151.8601,666.7418,156.4969,664.8733,161.8918,663.1367,166.939,661.303,175.3113,660.4777,181.7707,659.2759,189.7349,658.7261,197.6555,658.4641,206.2877,658.7618,214.7239,659.4178,222.7412,660.4115,230.3378,661.7734,235.6642,663.0054,241.6007,664.9183,245.2361,666.6928,249.2424,669.0564,249.7446,670.8964,250.3392,673.1751" style="stroke: #A80036; stroke-width: 1.5;"/><text fill="#000000" font-family="sans-serif" font-size="14" lengthAdjust="spacingAndGlyphs" textLength="70" x="163.4975" y="678.1023">ログアウト</text><polygon fill="#FEFECE" filter="url(#f0r1d8o)" points="287.5593,746.3674,284.367,749.5169,279.7465,752.6665,270.3217,754.9477,261.6728,757.5163,251.7394,759.7939,239.1796,761.3649,226.255,762.633,211.2319,763.1021,197.1489,763.3652,184.8597,763.5308,169.7542,762.4816,157.8756,761.5286,143.4326,759.3166,134.3949,757.6253,125.3741,755.2251,116.2349,752.0942,112.3125,749.4673,109.4323,746.4415,108.5961,743.3021,108.2564,739.7713,113.4699,737.0797,118.7002,734.0683,125.2174,731.1283,132.8181,728.3222,144.9078,726.5332,158.4082,725.1753,169.2945,723.4453,183.2203,722.7276,198.9819,722.8448,212.6117,722.983,225.9356,723.6285,238.9396,724.8366,252.3807,726.8215,262.9219,728.8534,271.1374,731.0712,277.6838,733.6147,283.2102,736.605,288.4552,740.1666,290.148,743.5" style="stroke: #A80036; stroke-width: 1.5;"/><text fill="#000000" font-family="sans-serif" font-size="14" lengthAdjust="spacingAndGlyphs" textLength="154" x="121.3393" y="747.9112">ログイン状態を保存する</text><polygon fill="#FEFECE" filter="url(#f0r1d8o)" points="286.6382,822.1587,284.4438,825.5343,280.2976,828.7913,271.8023,831.2832,262.1541,833.6254,251.2028,835.6723,240.508,837.6659,224.8522,838.3152,213.6824,839.6573,198.7943,839.738,182.4306,838.9804,170.8408,838.7278,157.8948,837.5329,144.0871,835.4649,133.6948,833.4667,124.7763,831.0897,117.6465,828.414,112.8782,825.5954,108.3987,822.2073,109.1836,819.4352,107.7322,815.6525,113.7924,813.1528,118.9346,810.1214,124.7504,807.0224,135.698,804.9746,146.8255,802.9676,157.3497,800.9354,169.591,799.5125,183.2601,798.7367,196.8186,798.3547,211.5179,798.7352,226.9879,799.8669,240.7354,801.2434,251.0781,802.5264,262.0474,804.6553,272.1378,807.2978,277.8041,809.6419,282.8374,812.5205,287.7999,816.0181,287.6027,818.9233" style="stroke: #A80036; stroke-width: 1.5;"/><text fill="#000000" font-family="sans-serif" font-size="14" lengthAdjust="spacingAndGlyphs" textLength="154" x="121.3393" y="823.9112">パスワードを再発行する</text><!--entity 管理者--><polygon fill="#FEFECE" filter="url(#f0r1d8o)" points="35.1085,440.5566,34.2441,441.9279,33.3627,443.5987,31.8146,444.8451,29.6339,446.3737,27.4769,446.2708,25.2092,446.3488,23.0427,445.6021,21.2151,443.6595,19.7246,442.1436,19.3971,439.4644,19.2032,437.9177,19.9003,435.3308,20.3695,433.6801,22.3083,432.2974,24.5665,431.3243,26.6719,430.883,28.75,430.8346,30.4092,431.7418,32.1579,432.9513,33.2556,434.3947,34.7155,436.4981,34.9263,438.5787,34.3885,440.9313" style="stroke: #A80036; stroke-width: 2.0;"/><path d="M27,446.6992 L27.5717,446.6992 L27.2556,452.0992 L26.3623,457.4992 L27.4631,462.8992 L26.5504,468.2992 L27,473.6992 M14,454.6992 L14,455.1181 L19.2,454.1397 L24.4,455.3183 L29.6,454.7465 L34.8,454.28 L40,454.6992 M27,473.6992 L26.9749,473.6775 L23.9047,476.27 L21.6831,479.5979 L19.5619,483.0129 L16.84,485.9072 L14,488.6992 M27,473.6992 L26.9439,473.6506 L29.8528,476.9183 L32.1647,479.6686 L34.5212,482.4576 L37.1001,485.4393 L40,488.6992 " fill="#FEFECE" style="stroke: #A80036; stroke-width: 2.0;"/><text fill="#000000" font-family="sans-serif" font-size="14" lengthAdjust="spacingAndGlyphs" textLength="42" x="6" y="509.2344">管理者</text><path d="M29.81,428.6092 L29.8082,428.6091 L30.1665,421.9373 L30.6607,415.2739 L31.2629,408.6171 L31.2661,401.9235 L31.8563,395.2659 L31.6168,395.2484 L31.9337,391.45 L32.4574,387.6668 L32.4329,383.8435 L32.7283,380.0436 L33.2479,376.2601 L32.9729,376.2374 L33.2731,372.2056 L33.7091,368.185 L34.5068,364.1943 L34.8735,360.168 L34.9134,356.1147 L34.6381,356.0889 L35.0777,351.8989 L35.9306,347.7474 L36.2789,343.5488 L36.266,339.3164 L36.8742,335.1421 L37.0291,335.1585 L37.0857,330.8188 L37.8044,326.5492 L38.4182,322.2686 L38.9762,317.982 L39.1514,313.6548 L38.916,313.6264 L39.8855,309.3423 L40.236,304.9836 L40.5128,300.616 L41.4103,296.3232 L41.7662,291.9651 L41.8815,291.981 L42.1649,287.6221 L42.9184,283.3281 L43.5232,279.0136 L44.0046,274.682 L44.74,270.3855 L44.4507,270.3396 L45.2743,266.1324 L46.1661,261.936 L46.711,257.6846 L47.33,253.445 L48.0939,249.2283 L47.9812,249.2076 L49.0851,245.188 L49.5876,241.0578 L50.1777,236.9438 L51.2047,232.91 L51.8493,228.806 L51.7609,228.7869 L52.8166,224.9594 L53.3764,221.0249 L54.6163,217.2371 L55.078,213.2815 L56.0272,209.431 L56.2395,209.4854 L56.7674,205.7807 L58.0333,202.2652 L58.7712,198.6143 L59.6262,194.9934 L60.6491,191.4156 L60.3682,191.3282 L61.5018,188.0957 L62.9958,184.9754 L63.8121,181.6442 L64.409,178.2446 L65.736,175.0724 L65.6031,175.0208 L67.0492,172.2777 L68.1326,169.3938 L68.9122,166.392 L70.2025,163.5884 L71.3093,160.7136 L71.5438,160.8318 L72.3171,158.1961 L74.0225,156.0304 L74.6787,153.3357 L76.1208,151.0373 L77.3902,148.6518 L77.2149,148.5292 L78.6858,146.7428 L80.1059,144.9209 L81.1334,142.8245 L82.8007,141.1755 L84,139.1992 L83.9437,139.1432 L85.3245,137.4925 L86.948,136.083 L88.6991,134.8002 L89.8752,132.9459 L91.5578,131.5952 L91.4312,131.4293 L93.096,130.0684 L94.8106,128.7727 L96.6572,127.6501 L98.3303,126.3002 L100.1,125.0767 L100.1798,125.2112 L101.8596,123.8041 L103.7898,122.8191 L105.5722,121.5851 L107.3879,120.407 L109.3997,119.5595 L109.4472,119.6611 L111.2891,118.4757 L113.3509,117.7602 L115.225,116.6436 L117.2559,115.8622 L119.23,114.9592 " fill="none" style="stroke: #A80036; stroke-width: 1.0;"/><polygon fill="#A80036" points="124.18,113.0092,124.1803,113.0169,122.2226,113.1584,120.2413,112.768,118.2808,112.8479,116.3043,112.5643,114.3407,112.5752,114.3248,112.5388,115.4637,113.2247,116.362,113.3588,117.4674,113.9679,118.4839,114.373,119.5259,114.8366,119.3906,114.7776,119.2322,115.9428,118.4104,116.8187,118.1423,117.936,117.94,119.0821,117.2645,120.0218,117.1384,119.8974,118.5978,118.5701,120.0514,117.2372,121.3696,115.7707,122.8779,114.4916,124.18,113.0092" style="stroke: #A80036; stroke-width: 1.0;"/><path d="M32.15,428.6592 L32.3858,428.6875 L32.7259,423.4004 L33.3726,418.15 L34.1266,412.9126 L34.5861,407.6398 L35.3004,402.3975 L35.0754,402.3679 L35.8196,399.5101 L36.2213,396.6072 L36.1398,393.6406 L36.5732,390.7419 L37.2169,387.8709 L37.4563,387.9048 L37.5329,384.8188 L38.0808,381.7995 L38.5226,378.7653 L38.8917,375.7207 L39.3642,372.6908 L39.1418,372.6569 L39.9128,369.5767 L39.9964,366.3917 L40.9217,363.335 L41.3514,360.2028 L41.7447,357.065 L41.4535,357.017 L42.3767,353.9102 L42.8905,350.7359 L43.2908,347.543 L43.9717,344.3962 L44.3606,341.2014 L44.5174,341.2295 L45.0966,338.0523 L45.495,334.8426 L46.2523,331.6973 L46.8851,328.5297 L47.2145,325.3077 L47.2768,325.3199 L47.5943,322.1174 L48.2232,318.9762 L48.7927,315.8233 L50.0027,312.7965 L50.3088,309.5917 L50.3061,309.5911 L50.8697,306.5025 L51.9074,303.517 L52.252,300.3807 L53.0127,297.3349 L53.6457,294.2613 L53.5329,294.2339 L54.6137,291.3751 L55.0867,288.3685 L55.9512,285.4571 L56.4393,282.4542 L57.2276,279.5243 L57.0739,279.482 L58.0957,276.7651 L58.9589,274.0047 L59.6021,271.1838 L60.2805,268.3726 L61.0571,265.5884 L61.1782,265.6266 L61.5764,262.9094 L62.3728,260.3178 L63.5023,257.8314 L64.4424,255.2852 L65.1364,252.6614 L65.0211,252.6188 L66.1967,250.3911 L67.1387,248.0771 L67.7141,245.6274 L68.6313,243.3042 L69.468,240.9512 L69.3046,240.8784 L70.452,238.9239 L71.4067,236.8835 L72.3571,234.8411 L73.0658,232.691 L74.0542,230.6656 L74.1157,230.7052 L76.0133,227.553 L78.2314,224.6069 L79.8112,221.2504 L82.2877,218.4705 L84,215.1992 L84.1611,215.3664 L85.5535,213.6956 L87.128,212.2137 L88.8643,210.8998 L90.2205,209.1914 L91.7848,207.6991 L91.9821,207.9663 L93.4695,206.3275 L95.2153,205.0388 L96.9819,203.7784 L98.5972,202.3128 L100.5138,201.2555 L100.4657,201.1725 L102.5392,200.3973 L104.3021,199.0852 L106.0245,197.7033 L107.9971,196.7538 L109.9608,195.7888 L109.9985,195.8707 L112.0603,195.1178 L113.955,194.0012 L115.9367,193.074 L117.8576,192.0144 L119.9,191.2192 " fill="none" style="stroke: #A80036; stroke-width: 1.0;"/><polygon fill="#A80036" points="124.9,189.2792,124.8923,189.1235,122.9245,189.0165,120.9593,188.9635,119.01,189.2322,117.0252,188.7821,115.0632,188.7928,115.0452,188.7523,116.0982,189.2516,117.0622,189.5497,118.1061,190.0285,119.2079,190.6382,120.2362,191.0818,120.1531,191.045,119.5941,192.0348,119.4587,193.2121,118.764,194.1419,118.5146,195.2687,117.9473,196.2548,117.7946,196.1027,119.4265,194.9481,120.5674,193.3042,122.1488,192.0993,123.5023,190.6672,124.9,189.2792" style="stroke: #A80036; stroke-width: 1.0;"/><path d="M29.9,428.6192 L29.8246,428.6102 L30.2215,425.3399 L31.0154,422.1173 L31.2892,418.8322 L31.3831,415.5256 L31.8633,412.2653 L31.5507,412.2136 L32.2555,408.673 L33.2125,405.1741 L33.5792,401.5776 L34.4636,398.0668 L34.808,394.4666 L34.7387,394.4513 L35.7763,390.7563 L36.652,387.0256 L37.3004,383.2448 L38.0625,379.4891 L38.929,375.7563 L39.0903,375.8027 L40.2183,371.9936 L41.3481,368.1849 L42.2697,364.3164 L43.0582,360.4095 L44.4213,356.668 L44.1786,356.5833 L45.0597,354.7551 L45.6479,352.8247 L46.7253,351.065 L47.2524,349.1133 L47.7425,347.1486 L47.716,347.1381 L48.5863,345.3041 L49.3554,343.43 L50.2569,341.6083 L50.4326,339.4986 L51.4796,337.7347 L51.2384,337.6257 L52.0671,335.7743 L52.8727,333.9125 L54.2204,332.2956 L54.8169,330.3393 L55.6569,328.493 L55.9494,328.6438 L56.625,326.7128 L57.8087,325.0439 L58.148,322.9395 L59.6339,321.4264 L60.2989,319.49 L60.5688,319.6492 L61.1429,317.643 L62.3189,315.9919 L63.4384,314.3074 L64.321,312.4832 L65.4298,310.7925 L65.1762,310.6205 L66.5888,309.1478 L67.8228,307.554 L69.0677,305.9676 L69.905,304.1048 L71.0741,302.4671 L71.2087,302.5726 L72.1613,300.7728 L73.6173,299.3676 L74.9251,297.8462 L75.9027,296.0661 L77.256,294.5804 L77.1755,294.5068 L78.5469,293.0513 L79.9652,291.6385 L81.1849,290.0444 L82.8787,288.8833 L84,287.1992 L83.8052,286.9741 L85.8739,285.5837 L87.6143,283.8138 L89.5196,282.2346 L91.5016,280.744 L93.3545,279.1042 L93.4168,279.2001 L95.5935,277.9781 L97.7118,276.6663 L99.4757,274.8086 L101.8739,273.9277 L103.8013,272.3217 L103.663,272.0442 L106.1305,271.3783 L108.3106,270.1353 L110.4709,268.8525 L112.7516,267.8115 L115.0148,266.7355 L115.0557,266.8412 L117.2679,265.6325 L119.7945,265.2372 L122.0092,264.035 L124.2798,262.9775 L126.67,262.2292 " fill="none" style="stroke: #A80036; stroke-width: 1.0;"/><polygon fill="#A80036" points="131.55,260.6592,131.5403,260.5672,129.5666,260.221,127.6095,260.0337,125.6824,260.1319,123.7163,259.8591,121.755,259.6309,121.7855,259.6908,122.7582,260.1361,123.6915,260.5042,124.7692,261.1556,125.8787,261.8691,126.7939,262.2017,126.6807,262.144,126.5011,263.3225,125.963,264.318,125.2968,265.2483,124.8625,266.2968,124.223,267.2407,124.2376,267.2569,125.7294,265.97,126.9904,264.4262,128.6439,263.3193,130.0689,261.9581,131.55,260.6592" style="stroke: #A80036; stroke-width: 1.0;"/><path d="M41.21,428.4392 L41.3272,428.4914 L42.4964,424.9076 L44.3939,421.6483 L45.6782,418.1157 L47.0803,414.6357 L48.8381,411.3141 L48.6624,411.2171 L50.7812,407.8494 L52.6138,404.3238 L54.7094,400.9434 L56.7787,397.5484 L58.435,393.9255 L58.6681,394.0798 L59.3088,392.083 L60.6319,390.5381 L61.7918,388.8852 L63.0868,387.3216 L64.008,385.5106 L64.0758,385.5621 L65.2382,383.9116 L66.6356,382.4399 L67.872,380.8457 L68.6895,378.9326 L70.1169,377.4838 L70.3369,377.6976 L72.9556,374.6872 L75.5165,371.6206 L78.5411,369.0047 L81.2364,366.0688 L84,363.1992 L84.0614,363.2803 L85.7734,361.6918 L87.5707,360.2161 L89.4212,358.8105 L91.2787,357.4142 L93.2619,356.1838 L93.3999,356.411 L95.1447,354.7553 L97.3755,353.8994 L99.4344,352.7606 L101.2139,351.1621 L103.3075,350.0805 L103.3397,350.1454 L105.4337,349.0465 L107.4112,347.7128 L109.7967,347.2014 L111.7045,345.7271 L113.8969,344.8266 L113.7847,344.5531 L116.1853,344.2008 L118.2706,343.0798 L120.3825,342.0235 L122.6997,341.468 L124.79,340.3592 " fill="none" style="stroke: #A80036; stroke-width: 1.0;"/><polygon fill="#A80036" points="129.74,338.5792,129.7582,338.8215,127.7943,338.68,125.8162,338.3474,123.8427,338.0769,121.8706,337.8248,119.9187,337.843,119.8232,337.6412,120.9498,338.3449,121.9791,338.8429,123.0381,339.4035,123.9953,339.7491,125.0319,340.2627,124.9681,340.2325,124.6677,341.342,124.2001,342.3724,123.6335,343.3559,123.0876,344.3492,122.6123,345.376,122.6067,345.3701,123.8872,343.8587,125.2988,342.4847,126.9608,341.3733,128.1767,339.7941,129.74,338.5792" style="stroke: #A80036; stroke-width: 1.0;"/><path d="M48.23,455.2892 L48.3177,455.4205 L49.7154,453.9662 L51.3813,452.9132 L53.2679,452.1902 L54.6258,450.6765 L56.4192,449.8142 L56.301,449.6252 L58.2652,448.8116 L59.9634,447.5726 L61.6766,446.3576 L63.5277,445.3631 L65.3088,444.2567 L65.4664,444.5324 L67.2294,443.3027 L69.1007,442.2622 L71.0421,441.3444 L72.8525,440.1974 L74.6014,438.943 L74.5007,438.7434 L76.4548,437.942 L78.2421,436.8101 L80.141,435.8995 L81.9986,434.9069 L84,434.1992 L84.0001,434.1994 L86.7882,433.256 L89.2545,431.5714 L92.0386,430.6189 L94.6973,429.3774 L97.452,428.357 L97.4403,428.3264 L100.3108,427.4611 L103.0179,426.1695 L105.8456,425.1924 L108.5388,423.8646 L111.4113,423.0042 L111.3669,422.8754 L114.1576,421.827 L117.002,420.9342 L119.7771,419.8403 L122.5897,418.8555 L125.4998,418.1539 L125.5801,418.41 L128.1824,417.014 L131.135,416.7363 L133.8804,415.7973 L136.5286,414.5478 L139.34,413.8192 " fill="none" style="stroke: #A80036; stroke-width: 1.0;"/><polygon fill="#A80036" points="144.4,412.3292,144.3892,412.2469,142.4744,412.2797,140.4835,411.7343,138.5208,411.4031,136.5568,411.0613,134.6354,411.0439,134.6439,411.0596,135.7267,411.7634,136.7161,412.2957,137.5661,412.5715,138.5377,413.0708,139.605,413.7462,139.6742,413.7839,139.0993,414.7591,138.4425,415.6898,137.8695,416.666,137.4824,417.7433,136.9026,418.7159,136.8442,418.6473,138.3466,417.3734,139.9599,416.2297,141.2481,414.7043,142.7888,413.4754,144.4,412.3292" style="stroke: #A80036; stroke-width: 1.0;"/><path d="M48.11,470.1992 L48.11,470.6586 L57.5957,470.6444 L67.0814,470.732 L76.5671,469.9927 L86.0529,471.0346 L95.5386,470.3247 L105.0243,470.9663 L114.51,470.1992 " fill="none" style="stroke: #A80036; stroke-width: 1.0;"/><polygon fill="#A80036" points="119.78,470.1992,119.8673,470.3956,118.0232,469.4965,116.1665,468.5688,114.3124,467.6472,112.6534,467.1643,110.78,466.1992,110.888,466.3072,111.7167,467.136,112.5306,467.9498,113.3025,468.7217,114.0116,469.4308,114.78,470.1992,114.6749,470.0941,114.0472,471.0664,113.0327,471.6519,112.5494,472.7687,111.7177,473.537,110.78,474.1992,110.8507,474.3582,112.5172,473.258,114.3627,472.5603,116.1578,471.7492,118.0118,471.0708,119.78,470.1992" style="stroke: #A80036; stroke-width: 1.0;"/><path d="M48.05,484.4492 L47.8694,484.1714 L49.5854,485.3468 L51.2927,486.509 L52.9224,487.5519 L54.7281,488.8655 L56.2898,489.8036 L56.3016,489.8229 L57.9618,490.7032 L59.9636,492.1435 L61.4834,492.7937 L63.4425,494.164 L65.2338,495.2592 L65.354,495.4735 L67.0148,496.152 L69.0376,497.4758 L70.8836,498.4844 L72.5926,499.2487 L74.5733,500.4973 L74.5148,500.3801 L76.3573,501.2346 L78.4812,502.6533 L80.2724,503.4048 L82.0873,504.204 L84,505.1992 L83.9661,505.1209 L86.8671,506.6312 L89.5369,507.6073 L92.3246,508.8558 L94.9517,509.7332 L97.8283,511.187 L97.8282,511.1868 L100.6369,512.1402 L103.6288,513.5691 L106.5127,514.7175 L109.2469,515.4776 L112.1638,516.7117 L112.0899,516.4998 L114.9723,517.4912 L117.8875,518.5769 L120.8084,519.6786 L123.7054,520.7119 L126.6023,521.7452 L126.7035,522.062 L129.4188,522.6134 L132.2789,523.6181 L135.1072,524.5233 L137.9254,525.3968 L140.74,526.2592 " fill="none" style="stroke: #A80036; stroke-width: 1.0;"/><polygon fill="#A80036" points="145.9,527.8192,145.9613,527.8904,144.3014,526.4105,143.0652,525.4224,141.34,523.8666,139.9711,522.7246,138.4377,521.3916,138.3273,521.3323,139.1216,522.4683,139.4846,523.3728,139.8565,524.2822,140.5801,525.3803,141.1128,526.3759,141.1828,526.5063,140.0314,526.7534,139.0888,527.3894,138.0128,527.7771,137.0161,528.3124,136.1285,529.051,136.1493,529.216,138.0547,528.582,140.0537,528.6902,142.0022,528.3975,143.9417,528.0336,145.9,527.8192" style="stroke: #A80036; stroke-width: 1.0;"/><path d="M41.04,511.8892 L41.0949,511.9138 L42.7921,515.3954 L43.8271,518.5812 L45.6723,522.129 L46.8735,525.389 L48.6427,528.9028 L48.4985,528.8223 L50.527,532.3238 L52.6432,535.8742 L54.5984,539.3347 L56.3527,542.683 L58.2488,546.1105 L58.0946,545.9985 L60.5884,549.339 L62.6958,552.3991 L65.4851,555.9541 L67.668,559.0688 L69.9905,562.285 L70.0665,562.3615 L72.7515,565.0266 L75.4736,567.7292 L78.2599,570.4963 L81.3758,573.5953 L84,576.1992 L84.0205,576.2299 L87.032,578.1416 L90.1461,580.207 L93.393,582.4714 L96.6289,584.7193 L99.6506,586.6464 L99.6888,586.7294 L102.9832,587.9618 L106.4972,589.6714 L110.1119,591.5994 L113.4787,592.9891 L116.955,594.6167 L116.9385,594.5661 L120.4925,595.6448 L124.1651,597.0878 L127.6993,598.1054 L131.3416,599.4554 L134.8669,600.4458 L134.8574,600.4048 L138.3003,600.9846 L141.8783,602.1515 L145.3447,602.8335 L148.8063,603.4948 L152.34,604.4692 " fill="none" style="stroke: #A80036; stroke-width: 1.0;"/><polygon fill="#A80036" points="157.38,605.3792,157.3893,605.3929,155.622,604.0836,154.0562,603.0708,152.4376,601.9803,150.9117,601.0264,149.2322,599.8463,149.1795,599.8096,149.6995,600.6518,150.6139,601.7678,151.232,602.678,151.9994,603.692,152.4593,604.4923,152.5575,604.6338,151.5242,605.1292,150.5788,605.7514,149.655,606.4047,148.7634,607.1042,147.8132,607.7194,147.8691,607.948,149.6806,607.0636,151.6054,606.6422,153.4988,606.0926,155.5255,606.0879,157.38,605.3792" style="stroke: #A80036; stroke-width: 1.0;"/><path d="M30.77,511.9092 L30.583,511.8822 L31.238,514.9689 L31.332,517.9745 L32.0983,521.0774 L32.6488,524.149 L32.9805,527.189 L32.9639,527.1859 L33.383,530.4421 L34.2898,533.7915 L35.0087,537.105 L35.1904,540.3159 L36.1298,543.6716 L36.0909,543.6619 L36.9331,547.1018 L38.0602,550.6121 L38.8582,554.041 L39.2554,557.3709 L40.3833,560.8813 L40.2339,560.8341 L41.29,564.3111 L42.5785,567.8616 L43.6192,571.3337 L44.9958,574.912 L45.9063,578.343 L45.6201,578.2275 L47.226,581.7616 L48.8213,585.2914 L50.3694,588.8022 L51.7769,592.2563 L52.864,595.581 L52.6058,595.4474 L54.8536,599.0326 L56.5343,602.3244 L57.8698,605.4377 L59.6909,608.8021 L61.422,612.12 L61.1574,611.9422 L63.2551,615.0373 L65.6818,618.3534 L67.7431,621.424 L69.5552,624.3272 L71.7456,627.4846 L71.5064,627.2709 L74.2583,630.2827 L76.7468,633.0593 L79.0096,635.6342 L81.4177,638.3389 L84,641.1992 L83.8843,641.0508 L86.709,643.3757 L89.2837,645.3798 L91.9311,647.4772 L94.1393,649.011 L96.8978,651.2509 L97.0503,651.539 L99.8246,652.813 L102.8346,654.5324 L105.7314,656.0377 L108.5841,657.4597 L111.485,658.973 L111.4226,658.803 L114.6603,660.3117 L117.655,661.1588 L120.684,662.0992 L123.8895,663.5201 L126.9947,664.6681 L127.0552,664.9068 L130.1127,665.4031 L133.2749,666.3121 L136.4486,667.2667 L139.4807,667.6628 L142.66,668.6392 " fill="none" style="stroke: #A80036; stroke-width: 1.0;"/><polygon fill="#A80036" points="147.6,669.5992,147.5742,669.5621,145.9271,668.3941,144.3409,667.3136,142.7113,666.1705,141.044,664.9736,139.5149,663.9751,139.498,663.9636,140.0147,664.8199,140.682,665.7782,141.5943,666.9027,142.133,667.7738,142.6896,668.6571,142.626,668.5633,141.67,669.1694,140.7908,669.8888,139.9422,670.6531,138.8064,670.994,138.0075,671.8318,137.9573,671.6161,139.9228,671.3713,141.891,671.1385,143.7666,670.5077,145.6541,669.9279,147.6,669.5992" style="stroke: #A80036; stroke-width: 1.0;"/><path d="M33.07,512.1792 L33.1395,512.1891 L33.4718,516.9975 L34.4187,521.8929 L35.0218,526.7397 L35.661,531.5916 L36.5131,536.4737 L36.4782,536.4681 L37.4253,541.9081 L38.076,547.3011 L39.2557,552.778 L40.0834,558.199 L40.8183,563.6053 L41.1107,563.6563 L41.3492,566.4475 L41.6152,569.2435 L42.3292,572.1176 L43.015,574.9868 L43.29,577.7843 L43.3399,577.7937 L43.9549,580.6778 L44.5442,583.5572 L44.8392,586.3815 L45.5216,589.2783 L45.9722,592.1317 L45.7484,592.0866 L46.5988,595.0086 L46.9983,597.8397 L48.0043,600.793 L48.0155,603.5458 L48.8632,606.4672 L49.0274,606.5032 L49.688,609.3408 L49.8635,612.0722 L50.5529,614.9161 L51.5593,617.8295 L51.9613,620.6105 L51.6716,620.541 L52.8835,623.4274 L53.0324,626.0587 L54.1311,628.9179 L54.8937,631.6965 L55.2648,634.3812 L55.2263,634.371 L56.1271,637.0674 L56.6757,639.6704 L57.6612,642.3894 L57.8944,644.9087 L58.7721,647.599 L58.9893,647.6636 L59.6191,650.1272 L59.9652,652.5066 L60.996,655.0894 L61.5362,657.5264 L62.4814,660.0838 L62.433,660.0674 L63.3165,662.416 L64.3204,664.8052 L64.6046,666.9513 L65.8758,669.4308 L66.3911,671.655 L66.5323,671.7104 L67.4343,673.8374 L67.7697,675.7422 L69.0262,678.0082 L69.4762,679.9579 L70.4995,682.1325 L70.5043,682.1347 L71.2353,683.9146 L71.9226,685.674 L72.9594,687.5968 L73.8495,689.4511 L74.8049,691.3359 L75.0559,691.5024 L76.3712,693.9277 L78.2177,696.7053 L80.1731,699.5551 L82.3094,702.525 L84,705.1992 L84.1223,705.3284 L85.5192,706.6287 L87.1662,708.1932 L88.771,709.7131 L90.3941,711.2525 L91.9727,712.7447 L92.0401,712.8377 L93.6084,713.8337 L95.7069,715.5608 L97.3439,716.6516 L99.0102,717.7829 L100.8988,719.2205 L100.8385,719.1147 L102.8501,720.3575 L104.8741,721.6223 L106.8087,722.73 L108.6478,723.6697 L110.543,724.7081 L110.549,724.7214 L112.6144,725.7261 L114.4617,726.2486 L116.7319,727.7059 L118.5578,728.1811 L120.67,729.2892 " fill="none" style="stroke: #A80036; stroke-width: 1.0;"/><polygon fill="#A80036" points="125.35,731.0892,125.3247,731.0639,123.8064,729.5441,122.3986,728.1346,121.0885,726.8227,119.6688,725.4013,118.3901,724.1207,118.4426,724.1441,118.9565,725.2026,119.5003,726.2745,119.6542,727.1733,120.4229,728.3449,120.6844,729.2915,120.7103,729.3498,119.7097,729.8844,118.519,729.9904,117.5757,730.654,116.4902,730.997,115.5137,731.5857,115.5179,731.6688,117.4692,731.2548,119.4404,731.2336,121.4157,731.2915,123.3931,731.3945,125.35,731.0892" style="stroke: #A80036; stroke-width: 1.0;"/><path d="M30.33,511.9092 L30.0007,511.8848 L30.5461,518.1992 L31.3127,524.53 L31.4187,530.8119 L32.1431,537.1395 L32.6681,543.4524 L32.8793,543.4706 L33.1899,547.0394 L33.5499,550.6124 L33.5256,554.1523 L33.656,557.7056 L34.2026,561.2947 L34.4098,561.3145 L34.3331,565.0417 L34.9755,568.8376 L35.1105,572.585 L35.4285,576.3499 L36.0019,580.1392 L35.7646,580.114 L36.659,584.0775 L36.8613,587.9674 L37.0527,591.8561 L37.5093,595.7731 L38.0817,599.7023 L37.968,599.6888 L38.3577,603.6783 L39.3183,607.7356 L39.5594,611.7074 L39.6668,615.6633 L40.4578,619.7004 L40.5297,619.71 L40.8631,623.7126 L41.829,627.7996 L41.9471,631.7735 L42.5538,635.8126 L43.1462,639.8497 L43.4291,639.8924 L43.7963,643.8602 L44.0568,647.8119 L45.0895,651.8801 L45.5055,655.8552 L46.1625,659.8667 L45.8889,659.8198 L46.5534,663.7387 L47.287,667.6695 L48.4139,671.6676 L48.6992,675.5215 L49.5227,679.4677 L49.84,679.5301 L50.2614,683.2469 L50.7731,686.9815 L52.0345,690.8635 L52.2414,694.5381 L53.2425,698.369 L53.2037,698.3601 L53.8896,701.9133 L54.8784,705.5357 L55.7348,709.1278 L56.6605,712.7358 L57.3378,716.287 L57.1373,716.2329 L58.3704,719.6536 L58.8445,722.8698 L59.8888,726.2396 L61.0793,729.6488 L61.8244,732.938 L62.0308,733.0049 L63.0577,736.0406 L63.7094,738.9547 L64.9842,742.0707 L65.9337,745.0813 L66.7181,748.0383 L66.8693,748.099 L67.7792,750.6907 L68.7569,753.3096 L69.787,755.9495 L70.8948,758.6205 L72.0347,761.3045 L71.7496,761.1573 L73.3018,763.594 L74.2269,765.707 L75.6137,768.0583 L76.8144,770.3136 L77.7901,772.4526 L77.8664,772.5068 L78.774,774.0187 L80.1694,775.877 L81.4417,777.6478 L82.6337,779.3616 L84,781.1992 L84.049,781.2484 L85.4743,782.6686 L86.8503,784.0393 L88.7606,785.9461 L90.0714,787.2515 L91.5958,788.7711 L91.5697,788.7367 L93.382,790.166 L94.8738,791.1726 L96.6038,792.4934 L98.3206,793.7967 L100.1638,795.2667 L100.1758,795.2871 L102.0009,796.323 L103.8774,797.4459 L105.7229,798.5162 L107.6198,799.6736 L109.4798,800.7686 L109.4093,800.6174 L111.5491,801.9037 L113.515,802.8173 L115.3491,803.4483 L117.3344,804.4034 L119.32,805.3592 " fill="none" style="stroke: #A80036; stroke-width: 1.0;"/><polygon fill="#A80036" points="124.27,807.3092,124.3697,807.4075,122.899,805.9187,121.5192,804.5194,120.2064,803.1862,118.6637,801.6262,117.3545,800.2967,117.2913,800.2691,118.0127,801.4235,118.121,802.3105,118.6137,803.3652,119.2362,804.4765,119.6159,805.4818,119.7157,805.7107,118.5639,805.8999,117.4553,806.188,116.5688,806.9855,115.4191,807.1794,114.4307,807.7432,114.4211,807.5262,116.4068,807.8432,118.3754,807.7726,120.337,807.5452,122.3056,807.4745,124.27,807.3092" style="stroke: #A80036; stroke-width: 1.0;"/></g></svg>