<?xml version="1.0" encoding="UTF-8" standalone="no"?><svg xmlns="http://www.w3.org/2000/svg" xmlns:xlink="http://www.w3.org/1999/xlink" contentScriptType="application/ecmascript" contentStyleType="text/css" height="863px" preserveAspectRatio="none" style="width:705px;height:863px;" version="1.1" viewBox="0 0 705 863" width="705px" zoomAndPan="magnify"><defs><filter height="300%" id="fcad8jl" width="300%" x="-1" y="-1"><feGaussianBlur result="blurOut" stdDeviation="2.0"/><feColorMatrix in="blurOut" result="blurOut2" type="matrix" values="0 0 0 0 0 0 0 0 0 0 0 0 0 0 0 0 0 0 .4 0"/><feOffset dx="4.0" dy="4.0" in="blurOut2" result="blurOut3"/><feBlend in="SourceGraphic" in2="blurOut3" mode="normal"/></filter></defs><g><text fill="#000000" font-family="sans-serif" font-size="18" lengthAdjust="spacingAndGlyphs" textLength="234" x="249" y="17.4023">ユースケース：ユーザー管理</text><!--cluster ユーザー管理--><polygon fill="#FFFFFF" filter="url(#fcad8jl)" points="92,45.1992,92,45.2981,102,44.8128,112,45.4029,122,44.4994,132,45.6079,142,44.6952,152,45.0497,162,44.6969,172,45.3809,182,45.1992,181.8274,45.1455,183.1935,49.6326,184.8127,54.1985,186.105,58.6626,187.4313,63.1373,189,67.6875,189,67.7497,198.9804,67.661,208.9608,68.254,218.9412,67.091,228.9216,68.1962,238.902,68.1401,248.8824,67.8676,258.8627,66.962,268.8431,67.518,278.8235,67.2952,288.8039,67.8762,298.7843,68.4297,308.7647,67.3912,318.7451,67.0041,328.7255,67.9864,338.7059,67.4502,348.6863,68.3109,358.6667,67.2081,368.6471,67.6919,378.6275,67.5571,388.6078,67.1634,398.5882,67.7253,408.5686,67.5507,418.549,67.4274,428.5294,67.824,438.5098,67.7169,448.4902,67.2858,458.4706,67.2347,468.451,67.0915,478.4314,67.5582,488.4118,67.1276,498.3922,67.2624,508.3725,68.1131,518.3529,67.848,528.3333,67.4739,538.3137,67.8707,548.2941,68.0547,558.2745,67.6695,568.2549,67.624,578.2353,67.6701,588.2157,68.1495,598.1961,67.9786,608.1765,67.5302,618.1569,67.1505,628.1373,67.8875,638.1176,68.1533,648.098,68.2234,658.0784,67.0557,668.0588,67.0196,678.0392,67.2858,688.0196,67.787,698,67.6875,697.7872,67.6875,698.0228,77.6687,697.5488,87.6498,698.308,97.631,698.2518,107.6121,697.9265,117.5933,698.6098,127.5745,697.3008,137.5556,698.0939,147.5368,697.6569,157.5179,697.3451,167.4991,697.4298,177.4803,698.416,187.4614,697.5886,197.4426,697.7845,207.4238,697.7079,217.4049,697.2727,227.3861,698.6566,237.3672,698.6478,247.3484,698.0837,257.3296,697.5432,267.3107,698.3204,277.2919,697.6689,287.273,697.587,297.2542,698.4991,307.2354,698.6177,317.2165,698.3691,327.1977,698.7215,337.1788,698.7363,347.16,698.264,357.1412,697.8035,367.1223,698.3284,377.1035,697.4454,387.0847,697.5441,397.0658,698.3639,407.047,697.5091,417.0281,697.4395,427.0093,697.8055,436.9905,697.6798,446.9716,697.5758,456.9528,698.4471,466.9339,697.6818,476.9151,697.9994,486.8963,697.8903,496.8774,697.9019,506.8586,697.7725,516.8397,698.1695,526.8209,697.8669,536.8021,697.3312,546.7832,697.3533,556.7644,697.9573,566.7455,698.336,576.7267,697.9524,586.7079,698.3199,596.689,697.976,606.6702,698.4125,616.6514,698.235,626.6325,698.4501,636.6137,697.3779,646.5948,697.4662,656.576,697.9769,666.5572,697.725,676.5383,697.7818,686.5195,697.2663,696.5006,697.8717,706.4818,697.3673,716.463,697.585,726.4441,697.3615,736.4253,698.1169,746.4064,697.4386,756.3876,697.3906,766.3688,697.7611,776.3499,697.8222,786.3311,697.7881,796.3123,698.2514,806.2934,698.0008,816.2746,698.3309,826.2557,698.3607,836.2369,697.7876,846.2181,698,856.1992,698,855.915,688.0656,856.7577,678.1311,856.05,668.1967,856.6907,658.2623,856.0916,648.3279,855.7865,638.3934,856.6382,628.459,856.8667,618.5246,856.2365,608.5902,855.7278,598.6557,856.5567,588.7213,856.6919,578.7869,855.7854,568.8525,856.779,558.918,856.508,548.9836,856.3022,539.0492,856.1706,529.1148,856.4569,519.1803,855.5068,509.2459,856.6209,499.3115,856.0812,489.377,856.6844,479.4426,855.5205,469.5082,855.8538,459.5738,856.078,449.6393,856.2461,439.7049,856.8626,429.7705,856.6661,419.8361,855.8726,409.9016,856.6025,399.9672,856.1296,390.0328,856.0416,380.0984,856.7371,370.1639,856.1722,360.2295,856.5813,350.2951,855.7027,340.3607,855.691,330.4262,855.9488,320.4918,856.7333,310.5574,856.7312,300.623,855.8011,290.6885,855.7194,280.7541,855.5705,270.8197,856.1921,260.8852,856.1386,250.9508,856.1892,241.0164,856.1897,231.082,855.6053,221.1475,856.6613,211.2131,855.4983,201.2787,855.8517,191.3443,855.5508,181.4098,856.5259,171.4754,855.9378,161.541,856.8544,151.6066,855.5208,141.6721,856.5928,131.7377,856.632,121.8033,855.839,111.8689,856.3512,101.9344,855.6518,92,856.1992,92.3585,856.1992,91.4096,846.1869,92.4758,836.1745,91.487,826.1622,91.3142,816.1498,91.567,806.1375,92.6416,796.1251,92.0934,786.1128,92.3338,776.1005,91.2771,766.0881,91.4309,756.0758,91.4909,746.0634,92.0667,736.0511,92.7223,726.0387,92.1907,716.0264,92.3876,706.014,91.8068,696.0017,92.3461,685.9893,92.1691,675.977,92.3185,665.9647,92.6615,655.9523,91.7723,645.94,91.9057,635.9276,91.9338,625.9153,92.2956,615.9029,92.3481,605.8906,91.9801,595.8782,92.0959,585.8659,91.7719,575.8535,92.0851,565.8412,91.27,555.8288,92.0387,545.8165,92.7372,535.8042,92.3585,525.7918,91.601,515.7795,91.7518,505.7671,92.571,495.7548,92.0847,485.7424,91.7976,475.7301,91.6813,465.7177,91.6213,455.7054,92.2183,445.693,91.6616,435.6807,91.2778,425.6684,91.301,415.656,91.2943,405.6437,91.3107,395.6313,92.3821,385.619,92.6092,375.6066,91.3969,365.5943,92.6047,355.5819,91.4103,345.5696,92.0702,335.5572,91.3542,325.5449,92.5796,315.5326,91.7913,305.5202,92.6546,295.5079,92.6402,285.4955,92.3838,275.4832,91.6105,265.4708,91.4585,255.4585,91.419,245.4461,92.6832,235.4338,91.937,225.4214,91.2688,215.4091,91.8764,205.3967,92.3598,195.3844,91.3455,185.3721,91.6343,175.3597,91.9706,165.3474,92.5795,155.335,92.1955,145.3227,91.6978,135.3103,91.475,125.298,91.4468,115.2856,92.2969,105.2733,92.3152,95.2609,92.2029,85.2486,92.4945,75.2363,92.1756,65.2239,91.405,55.2116,92,45.1992" style="stroke: #000000; stroke-width: 2.0;"/><path d="M92,67.6875 L92,68.4587 L101.7,67.2602 L111.4,68.685 L121.1,68.3889 L130.8,66.7043 L140.5,68.179 L150.2,67.4604 L159.9,67.5209 L169.6,68.1591 L179.3,67.0244 L189,67.6875 " fill="#FFFFFF" style="stroke: #000000; stroke-width: 2.0;"/><text fill="#000000" font-family="sans-serif" font-size="14" font-weight="bold" lengthAdjust="spacingAndGlyphs" textLength="84" x="96" y="60.7344">ユーザー管理</text><polygon fill="#FEFECE" filter="url(#fcad8jl)" points="287.4951,104.3528,283.6898,107.3635,280.6302,110.8667,270.896,113.0779,261.6605,115.5135,252.9249,118.0625,239.0304,119.3311,225.7615,120.5212,211.2174,121.0988,196.9546,121.3212,184.1126,121.3615,171.8437,120.9551,155.9137,119.0841,146.4488,118,134.3548,115.6162,126.3426,113.4446,117.0324,110.2749,113.6968,107.7809,110.3196,104.6425,109.3736,101.4783,108.7303,97.8787,111.9254,94.7298,117.0403,91.6922,124.628,88.9947,135.7585,86.9884,144.8891,84.5289,156.0639,82.6441,171.7988,82.0127,184.3531,80.9843,197.8978,80.5992,214.2324,81.3502,224.5712,81.3193,240.1449,83.1096,251.2809,84.5723,261.8321,86.6065,270.5453,88.937,278.8686,91.8831,283.4163,94.6517,288.7033,98.2228,287.2126,100.8349" style="stroke: #A80036; stroke-width: 1.5;"/><text fill="#000000" font-family="sans-serif" font-size="14" lengthAdjust="spacingAndGlyphs" textLength="154" x="121.3393" y="105.9112">ユーザー一覧を表示する</text><polygon fill="#FEFECE" filter="url(#fcad8jl)" points="289.2336,180.7467,285.3512,183.7399,277.7929,186.2238,270.8222,189.0611,262.231,191.6428,252.7098,194.0138,238.7783,195.274,225.0424,196.3583,212.5492,197.4005,198.7454,197.7269,183.0103,197.1118,170.1703,196.5759,157.7585,195.502,144.6923,193.602,136.0556,192.0016,125.542,189.2632,118.0927,186.5151,110.915,183.1507,109.2652,180.4036,109.5359,177.5151,107.3929,173.5757,111.931,170.731,116.341,167.5338,123.9768,164.8472,135.7557,162.9877,143.7228,160.2647,155.9744,158.6238,171.4334,157.9299,183.5803,156.8092,197.0529,156.4078,212.5517,156.9694,226.5138,157.7595,238.9147,158.8309,251.8943,160.7113,262.7331,162.8107,270.3501,164.8928,277.4862,167.5699,284.5377,170.9058,288.1592,174.0995,289.8961,177.4429" style="stroke: #A80036; stroke-width: 1.5;"/><text fill="#000000" font-family="sans-serif" font-size="14" lengthAdjust="spacingAndGlyphs" textLength="154" x="121.3393" y="181.9112">ユーザー一覧で絞り込む</text><polygon fill="#FEFECE" filter="url(#fcad8jl)" points="276.7047,254.3339,272.2756,256.729,268.607,259.585,261.2303,261.78,255.0294,264.3446,244.9053,266.0043,234.181,267.4272,221.1408,268.1216,211.8798,269.4022,197.5882,269.1528,185.4032,268.9448,173.8268,268.3684,164.1729,267.6752,152.6587,265.9548,143.4643,264.1485,135.6382,262.0289,127.5996,259.2393,123.9469,256.8633,121.5004,254.2052,118.4496,250.899,120.396,248.3009,123.2178,245.535,127.9633,242.9274,133.5118,240.3107,142.2013,238.3201,153.5275,236.9377,162.6621,235.1481,173.6696,233.9849,187.4162,233.7389,197.8264,233.093,211.8834,233.7328,221.7877,233.9235,233.9437,235.1939,243.4271,236.4458,254.6383,238.7174,261.5562,240.6274,269.5469,243.406,274.0355,245.9748,276.4433,248.624,275.0581,250.9069" style="stroke: #A80036; stroke-width: 1.5;"/><text fill="#000000" font-family="sans-serif" font-size="14" lengthAdjust="spacingAndGlyphs" textLength="126" x="135.2871" y="256.0008">代理ログインを行う</text><polygon fill="#FBFB77" filter="url(#fcad8jl)" points="349,230.6992,348.9765,230.6992,349.1763,238.8234,348.7672,246.9477,348.8596,255.0719,348.9913,263.1961,349,271.3203,349,271.4487,359.0909,270.6035,369.1818,271.291,379.2727,270.7414,389.3636,270.9354,399.4545,271.8215,409.5455,271.0325,419.6364,271.9796,429.7273,271.3047,439.8182,271.0376,449.9091,271.842,460,271.9841,470.0909,270.6954,480.1818,271.6659,490.2727,271.0059,500.3636,270.7067,510.4545,271.0668,520.5455,271.5024,530.6364,271.8881,540.7273,270.7674,550.8182,271.2669,560.9091,272.0298,571,270.6232,581.0909,271.2732,591.1818,271.8284,601.2727,271.888,611.3636,271.8694,621.4545,271.8131,631.5455,272.0102,641.6364,271.7686,651.7273,271.438,661.8182,271.415,671.9091,271.42,682,271.3203,682.0366,271.3203,681.8748,265.1961,682.2295,259.0719,681.9001,252.9477,681.8013,246.8234,682,240.6992,682.1238,240.823,680.0906,238.7898,678.1408,236.84,675.9236,234.6228,674.0025,232.7017,672,230.6992,672,230.3666,661.9063,230.4537,651.8125,230.3221,641.7188,230.934,631.625,230.1006,621.5313,231.3633,611.4375,230.4028,601.3438,231.4407,591.25,230.0636,581.1563,230.2203,571.0625,230.1415,560.9688,231.4351,550.875,231.0583,540.7813,230.8191,530.6875,231.2062,520.5938,230.2216,510.5,230.9952,500.4063,230.1914,490.3125,230.4292,480.2188,230.6884,470.125,230.7084,460.0313,230.953,449.9375,229.9999,439.8438,230.6758,429.75,231.1445,419.6563,231.4127,409.5625,231.3837,399.4688,230.9087,389.375,229.9567,379.2813,230.2229,369.1875,231.1095,359.0938,230.9081,349,230.6992" style="stroke: #A80036; stroke-width: 1.0;"/><polygon fill="#FBFB77" points="349,230.6992,348.7507,230.6992,348.8401,233.9992,349.0765,237.2992,349.241,240.5992,348.8529,243.8992,349,247.1992,349.0229,247.609,338.7262,247.0368,328.5195,248.0781,318.2922,248.7485,308.1025,250.0922,297.8447,250.2168,287.6036,250.6406,277.37,251.1992,277.3577,250.9786,287.5649,251.0908,297.8019,251.7365,308.066,252.867,318.3402,254.1793,328.5283,253.9495,338.7854,254.954,349,255.1992,349.2287,255.1992,349.1133,258.4234,349.0146,261.6477,348.9231,264.8719,348.9823,268.0961,349,271.3203,349,270.6092,359.0909,272.0628,369.1818,271.0764,379.2727,271.5481,389.3636,271.4048,399.4545,270.7613,409.5455,271.7957,419.6364,270.8787,429.7273,270.7719,439.8182,270.6021,449.9091,270.5789,460,270.8442,470.0909,270.7486,480.1818,271.3956,490.2727,270.6037,500.3636,271.5893,510.4545,270.6428,520.5455,271.4255,530.6364,270.9839,540.7273,270.5885,550.8182,271.8074,560.9091,272.0557,571,270.6905,581.0909,271.384,591.1818,271.8258,601.2727,271.6678,611.3636,271.2953,621.4545,271.8071,631.5455,271.8135,641.6364,270.6523,651.7273,271.3356,661.8182,271.9018,671.9091,270.6705,682,271.3203,681.8988,271.3203,681.7847,265.1961,681.8478,259.0719,681.9807,252.9477,682.1083,246.8234,682,240.6992,682.0591,240.7583,679.8756,238.5748,678.0836,236.7828,676.1296,234.8289,674.1087,232.8079,672,230.6992,672,231.3094,661.9063,230.7312,651.8125,231.1436,641.7188,230.7588,631.625,231.2084,621.5313,230.5139,611.4375,230.3501,601.3438,230.0135,591.25,231.4164,581.1563,230.2858,571.0625,230.2992,560.9688,230.5418,550.875,230.8335,540.7813,230.6737,530.6875,231.3481,520.5938,231.1514,510.5,230.3141,500.4063,230.4757,490.3125,230.1939,480.2188,230.699,470.125,230.9285,460.0313,230.2512,449.9375,230.8763,439.8438,230.5011,429.75,230.0117,419.6563,231.2753,409.5625,230.7863,399.4688,231.2967,389.375,231.2407,379.2813,231.3442,369.1875,230.8411,359.0938,230.992,349,230.6992" style="stroke: #A80036; stroke-width: 1.0;"/><path d="M672,230.6992 L671.9014,230.6992 L671.7884,232.6992 L672.2968,234.6992 L672.3181,236.6992 L672.1385,238.6992 L672,240.6992 " fill="#FBFB77" style="stroke: #A80036; stroke-width: 1.0;"/><path d="M682,240.6992 L682,240.5399 L680,240.5035 L678,240.8631 L676,240.6598 L674,240.6866 L672,240.6992 " fill="#FBFB77" style="stroke: #A80036; stroke-width: 1.0;"/><text fill="#000000" font-family="sans-serif" font-size="13" lengthAdjust="spacingAndGlyphs" textLength="312" x="355" y="248.2676">システム管理ユーザーがシステム管理ユーザー以外の</text><text fill="#000000" font-family="sans-serif" font-size="13" lengthAdjust="spacingAndGlyphs" textLength="195" x="355" y="263.5781">ユーザーに対してログインできる</text><polygon fill="#FEFECE" filter="url(#fcad8jl)" points="287.6988,328.399,284.9852,331.657,280.5766,334.8545,271.6951,337.2589,262.4735,339.6977,250.991,341.6243,238.0858,343.1171,227.1193,344.8288,213.3048,345.5717,196.7817,345.282,184.5852,345.4686,171.6439,344.9098,156.1787,343.1441,146.6808,342.0525,135.1791,339.803,124.2289,336.9657,119.4446,334.8214,113.2892,331.6886,109.4256,328.44,107.3579,325.0216,107.4089,321.5793,111.006,318.5214,116.6543,315.6048,124.0601,312.866,135.5348,310.9377,147.0259,309.013,158.3298,307.1575,171.8159,306.0166,184.4952,305.0165,197.3045,304.4648,213.3937,305.1602,226.4646,305.7483,238.3199,306.6961,249.8763,308.2541,263.8487,311.0634,270.7142,312.9753,278.6525,315.8342,284.2799,318.8474,286.8032,321.7923,289.7578,325.4116" style="stroke: #A80036; stroke-width: 1.5;"/><text fill="#000000" font-family="sans-serif" font-size="14" lengthAdjust="spacingAndGlyphs" textLength="154" x="121.3393" y="329.9112">代理ログインを解除する</text><polygon fill="#FEFECE" filter="url(#fcad8jl)" points="275.5397,402.0652,272.8112,404.8525,267.1937,407.259,261.7146,409.8917,252.1904,411.6898,243.3627,413.6485,235.2318,415.6696,222.9585,416.5408,211.0186,417.2035,198.9715,417.4719,185.9793,417.0777,174.6967,416.569,162.9927,415.4029,152.5758,413.9357,144.2416,412.3277,134.1052,409.6753,129.6046,407.7018,124.319,404.9491,122.4849,402.4323,119.7187,399.1918,121.8384,396.6336,123.7816,393.6651,129.9514,391.3859,134.3864,388.5124,144.4237,386.8327,152.8886,384.7903,164.089,383.4772,173.3418,381.9093,185.4347,381.2819,199.4887,381.4764,212.073,381.7765,222.5288,382.0945,232.9099,382.9554,245.7409,384.9795,253.68,386.4963,261.5394,388.6235,269.0896,391.3005,272.9887,393.7334,274.9247,396.2737,277.6002,399.4933" style="stroke: #A80036; stroke-width: 1.5;"/><text fill="#000000" font-family="sans-serif" font-size="14" lengthAdjust="spacingAndGlyphs" textLength="126" x="135.2871" y="404.0008">ユーザーを作成する</text><polygon fill="#FEFECE" filter="url(#fcad8jl)" points="274.2068,472.7577,272.345,475.745,268.7871,478.6265,260.7098,480.6599,253.5085,482.9938,242.846,484.5293,234.325,486.4604,223.2392,487.6056,211.6388,488.3466,198.9034,488.4562,185.0441,487.862,175.5254,487.7602,163.0435,486.4147,152.6716,484.9578,144.2736,483.3351,136.3542,481.1941,127.7055,478.2637,125.3728,476.1922,120.2455,472.9157,121.3719,470.5731,121.8186,467.629,123.2527,464.5431,128.5805,462.0698,133.8983,459.3998,143.2063,457.5519,151.7644,455.531,164.0058,454.4581,174.2624,453.1216,187.1467,452.6767,197.1758,451.9429,211.4733,452.6382,223.4155,453.299,234.7135,454.3714,245.2444,455.865,253.4504,457.4434,260.7821,459.4489,268.4089,462.1435,271.9705,464.4985,276.6833,467.6793,276.2158,470.174" style="stroke: #A80036; stroke-width: 1.5;"/><text fill="#000000" font-family="sans-serif" font-size="14" lengthAdjust="spacingAndGlyphs" textLength="126" x="135.2871" y="475.0008">ユーザーを編集する</text><polygon fill="#FEFECE" filter="url(#fcad8jl)" points="276.0304,544.1783,274.0766,547.1444,267.6351,549.3608,260.8436,551.6908,254.5498,554.234,243.4774,555.6749,233.4886,557.2675,224.0324,558.7885,211.5819,559.3335,197.6025,559.1561,185.174,558.8919,173.6903,558.3369,163.9127,557.6151,150.854,555.5385,142.5184,553.9303,133.7152,551.5854,128.0523,549.3437,124.7935,547.0586,120.9061,544.0681,119.5212,541.1462,120.6963,538.3701,124.812,535.9027,127.7664,532.882,135.2649,530.715,142.9254,528.4871,150.7204,526.2902,163.0515,525.238,174.6475,524.2104,186.2094,523.4605,197.3746,522.9887,209.1231,523.0961,223.7206,524.3694,233.1081,525.0012,243.4486,526.4508,253.28,528.4041,260.4893,530.3813,269.5303,533.4022,272.0948,535.5272,276.3175,538.5949,276.1621,541.1616" style="stroke: #A80036; stroke-width: 1.5;"/><text fill="#000000" font-family="sans-serif" font-size="14" lengthAdjust="spacingAndGlyphs" textLength="126" x="135.2871" y="546.0008">ユーザーを削除する</text><polygon fill="#FEFECE" filter="url(#fcad8jl)" points="240.6737,611.6521,239.2676,613.942,236.2666,615.9146,233.8686,618.2526,228.9338,619.7975,224.3935,621.4781,217.7162,622.3434,211.8442,623.3282,204.4469,623.5563,198.2361,623.8926,192.225,623.9368,185.9241,623.4682,179.7872,622.6013,173.2014,621.0943,168.3365,619.6754,164.6556,618.1535,161.3736,616.2647,157.7293,613.7657,156.0169,611.4767,155.977,609.3503,156.5717,607.0813,158.5602,604.9919,160.9254,602.8004,164.0582,600.7153,168.4944,598.9988,174.0156,597.6558,178.7898,596.1355,186.059,595.6316,191.3637,594.6834,199.0907,594.8688,206.1029,595.1691,211.7847,595.4247,218.0174,596.3246,223.9249,597.5981,228.0223,598.7529,233.3154,600.8296,237.2436,602.9408,239.8141,605.0702,241.4538,607.3342,241.284,609.3885" style="stroke: #A80036; stroke-width: 1.5;"/><text fill="#000000" font-family="sans-serif" font-size="14" lengthAdjust="spacingAndGlyphs" textLength="56" x="170.598" y="614.1023">ログイン</text><polygon fill="#FEFECE" filter="url(#fcad8jl)" points="251.364,675.9349,248.0215,677.7753,244.6447,679.8378,240.0733,681.7245,235.5531,683.7053,228.9678,685.1095,222.7527,686.5372,214.4005,687.2105,206.0901,687.6636,199.3653,688.2595,190.2468,687.826,181.9753,687.2161,173.7185,686.1554,168.3094,685.4044,162.052,683.9124,155.6282,681.8634,151.533,679.9605,148.4789,677.8628,146.9754,675.7432,146.2656,673.4324,146.772,671.1001,148.7512,668.8791,151.0466,666.5146,156.7959,664.9568,162.0433,663.179,167.1116,661.3512,175.3969,660.5016,181.4984,659.1999,190.3758,658.905,198.6641,658.7457,207.2406,659.0279,214.2523,659.286,222.7364,660.4102,228.4826,661.2553,235.2566,662.8916,241.6677,664.937,245.012,666.6303,247.6975,668.625,249.3672,670.791,251.1782,673.4094" style="stroke: #A80036; stroke-width: 1.5;"/><text fill="#000000" font-family="sans-serif" font-size="14" lengthAdjust="spacingAndGlyphs" textLength="70" x="163.4975" y="678.1023">ログアウト</text><polygon fill="#FEFECE" filter="url(#fcad8jl)" points="287.3347,746.3165,285.9445,749.8743,278.6201,752.4112,272.1845,755.3698,262.6246,757.732,251.2927,759.6927,239.6263,761.4661,226.8524,762.7684,211.4429,763.1499,198.8955,763.7609,182.5601,763.0098,169.8261,762.4979,157.6711,761.4822,145.3581,759.7529,135.1215,757.79,125.4004,755.2311,119.2646,752.7806,112.6854,749.5518,110.779,746.7466,108.2927,743.2334,109.7903,740.1188,111.4045,736.6117,117.3343,733.7588,125.2441,731.1343,133.435,728.4619,146.536,726.9021,156.5931,724.764,170.5342,723.7262,185.0795,723.1489,197.7117,722.557,214.1977,723.3423,226.7137,723.8048,239.4766,724.9582,251.5742,726.6388,262.716,728.8068,272.9262,731.4764,279.4496,734.0148,284.8415,736.9746,287.018,739.841,289.7652,743.4133" style="stroke: #A80036; stroke-width: 1.5;"/><text fill="#000000" font-family="sans-serif" font-size="14" lengthAdjust="spacingAndGlyphs" textLength="154" x="121.3393" y="747.9112">ログイン状態を保存する</text><polygon fill="#FEFECE" filter="url(#fcad8jl)" points="287.5744,822.3708,282.904,825.1854,278.63,828.4135,272.0451,831.3382,261.2673,833.4245,252.6161,835.9925,237.8247,837.0579,225.4272,838.4454,212.5991,839.4119,197.1392,839.363,183.0992,839.1319,170.2298,838.5894,156.997,837.3295,146.7854,836.0762,134.2114,833.5838,124.7082,831.0743,119.6045,828.8576,112.3342,825.4722,107.5307,822.0106,106.6745,818.8668,110.6319,816.3095,112.8167,812.9317,116.4355,809.5552,126.6284,807.4479,133.7037,804.5228,143.7689,802.2751,156.2716,800.6912,171.3863,799.9193,185.5617,799.2581,196.5939,798.3038,212.8581,799.0388,226.1106,799.6681,239.5839,800.9825,250.552,802.4072,263.831,805.0594,270.9398,807.0264,278.9057,809.8915,284.713,812.9455,286.0977,815.6325,289.0569,819.2528" style="stroke: #A80036; stroke-width: 1.5;"/><text fill="#000000" font-family="sans-serif" font-size="14" lengthAdjust="spacingAndGlyphs" textLength="154" x="121.3393" y="823.9112">パスワードを再発行する</text><!--entity 管理者--><polygon fill="#FEFECE" filter="url(#fcad8jl)" points="35.1114,440.7137,34.128,442.4404,32.5028,443.8764,30.5456,445.6899,28.1717,446.3294,26.5085,446.1997,24.4001,446.018,22.082,445.4981,20.9144,443.3065,20.0543,442.032,18.8305,440.1602,19.0994,437.6064,19.4104,436.1795,19.9447,434.4586,20.992,432.7939,23.47,431.6915,26.0557,431.2199,27.804,430.7979,30.466,431.0738,32.6196,432.8716,33.9255,433.9527,34.1344,435.9949,34.9312,437.3664,34.8863,439.1117" style="stroke: #A80036; stroke-width: 2.0;"/><path d="M27,446.6992 L26.9578,446.6992 L27.5595,452.0992 L26.5392,457.4992 L27.2831,462.8992 L27.0975,468.2992 L27,473.6992 M14,454.6992 L14,455.0108 L19.2,454.6364 L24.4,454.4959 L29.6,454.2348 L34.8,455.2444 L40,454.6992 M27,473.6992 L26.9228,473.6323 L24.445,476.7382 L21.7611,479.6655 L19.0465,482.5662 L16.625,485.7209 L14,488.6992 M27,473.6992 L27.2533,473.9187 L29.3673,476.4975 L32.5042,479.9628 L34.4092,482.3605 L36.8975,485.2637 L40,488.6992 " fill="#FEFECE" style="stroke: #A80036; stroke-width: 2.0;"/><text fill="#000000" font-family="sans-serif" font-size="14" lengthAdjust="spacingAndGlyphs" textLength="42" x="6" y="509.2344">管理者</text><path d="M29.81,428.6092 L29.9389,428.6171 L30.2063,421.9398 L30.3033,415.2519 L31.1173,408.6081 L31.3586,401.9292 L31.8563,395.2659 L32.0791,395.2822 L32.2774,391.4752 L32.4762,387.6682 L32.7943,383.87 L33.0373,380.0662 L33.2479,376.2601 L33.3778,376.2708 L33.4815,372.2228 L34.1368,368.2203 L34.294,364.1767 L34.3507,360.1248 L34.9134,356.1147 L34.9652,356.1195 L35.2206,351.9122 L35.8883,347.7435 L36.3816,343.5584 L36.2207,339.3122 L36.8742,335.1421 L37.0511,335.1609 L37.6511,330.8787 L37.7073,326.5389 L38.1542,322.2406 L38.958,317.98 L39.1514,313.6548 L39.4496,313.6907 L39.6097,309.3091 L39.8972,304.9427 L40.5686,300.6227 L41.1202,296.2882 L41.7662,291.9651 L41.716,291.9582 L42.5125,287.6701 L42.8178,283.3142 L43.7848,279.0496 L44.1173,274.6975 L44.74,270.3855 L44.5186,270.3504 L45.2401,266.127 L46.329,261.9618 L46.4626,257.6452 L47.4772,253.4683 L48.0939,249.2283 L48.1788,249.2439 L48.8427,245.1434 L49.8485,241.1058 L50.0316,236.9169 L50.9973,232.8719 L51.8493,228.806 L52.0832,228.8564 L52.4287,224.8757 L53.3063,221.0098 L54.0995,217.1257 L55.0151,213.2679 L56.0272,209.431 L55.8056,209.3741 L56.8974,205.814 L58.0419,202.2674 L58.9977,198.6724 L60.0369,195.0988 L60.6491,191.4156 L60.9397,191.5061 L61.4667,188.0848 L62.8267,184.9228 L63.637,181.5897 L64.9179,178.403 L65.736,175.0724 L65.9617,175.16 L66.705,172.1441 L67.6661,169.2127 L69.0296,166.4375 L70.1329,163.5614 L71.3093,160.7136 L71.3864,160.7524 L72.7316,158.4052 L73.4466,155.7401 L75.2554,153.6265 L76.3869,151.1715 L77.3902,148.6518 L77.4979,148.727 L78.8208,146.8372 L79.8656,144.7529 L81.3694,142.9895 L82.6053,141.0389 L84,139.1992 L83.9424,139.142 L85.7204,137.886 L87.124,136.2579 L88.6749,134.7761 L90.1549,133.224 L91.5578,131.5952 L91.7332,131.825 L93.2816,130.3116 L94.9273,128.9257 L96.7975,127.8339 L98.463,126.474 L100.1,125.0767 L99.9432,124.8125 L101.8267,123.7488 L103.7478,122.7483 L105.5184,121.4944 L107.6158,120.7912 L109.3997,119.5595 L109.3314,119.4135 L111.4504,118.8204 L113.3944,117.8532 L115.2332,116.6612 L117.1788,115.6974 L119.23,114.9592 " fill="none" style="stroke: #A80036; stroke-width: 1.0;"/><polygon fill="#A80036" points="124.18,113.0092,124.1717,112.8214,122.2162,113.0138,120.2344,112.6123,118.287,112.9881,116.3188,112.8944,114.3407,112.5752,114.4389,112.8004,115.2896,112.8253,116.3954,113.4353,117.3712,113.7472,118.5536,114.5327,119.5259,114.8366,119.5868,114.8632,119.1661,115.914,118.4991,116.8574,118.3905,118.0443,117.5127,118.8957,117.2645,120.0218,117.089,119.8487,118.8169,118.7862,119.9164,117.104,121.4141,115.8145,122.794,114.4088,124.18,113.0092" style="stroke: #A80036; stroke-width: 1.0;"/><path d="M32.15,428.6592 L32.2967,428.6768 L32.9702,423.4297 L33.2382,418.1339 L33.9159,412.8873 L34.5585,407.6365 L35.3004,402.3975 L35.3132,402.3992 L35.4213,399.4576 L35.9528,396.5718 L36.4751,393.6848 L36.6264,390.7489 L37.2169,387.8709 L37.0661,387.8496 L37.3393,384.7914 L38.1942,381.8156 L38.5922,378.7751 L38.8112,375.7093 L39.3642,372.6908 L39.1617,372.6599 L39.6568,369.5377 L40.5514,366.4763 L40.5099,363.2723 L41.0956,360.1638 L41.7447,357.065 L41.9415,357.0975 L42.2229,353.8849 L42.8526,350.7297 L43.536,347.5834 L43.5782,344.3313 L44.3606,341.2014 L44.313,341.1928 L45.0306,338.0404 L45.6618,334.8725 L46.3306,331.7114 L46.5469,328.469 L47.2145,325.3077 L47.3201,325.3284 L47.8452,322.1668 L48.5365,319.0379 L49.3451,315.9321 L49.9461,312.7854 L50.3088,309.5917 L50.4589,309.6244 L50.6509,306.4548 L51.8998,303.5153 L52.4761,300.4294 L53.1804,297.3714 L53.6457,294.2613 L53.5793,294.2452 L54.5643,291.3631 L55.2491,288.408 L56.0925,285.4914 L56.738,282.5268 L57.2276,279.5243 L57.5273,279.6066 L57.9028,276.7122 L58.6303,273.9144 L59.554,271.1706 L60.4632,268.4228 L61.0571,265.5884 L60.8769,265.5315 L62.0811,263.0686 L62.3973,260.3256 L63.4571,257.8172 L64.0112,255.1492 L65.1364,252.6614 L65.2833,252.7157 L66.1078,250.3582 L67.026,248.0354 L67.8746,245.6868 L68.416,243.2246 L69.468,240.9512 L69.3177,240.8842 L70.6402,239.0078 L71.3138,236.842 L72.5077,234.9083 L73.0761,232.6956 L74.0542,230.6656 L73.8202,230.5152 L75.8731,227.4628 L78.1669,224.5655 L80.2311,221.5205 L82.2628,218.4545 L84,215.1992 L84.0872,215.2897 L85.6828,213.8298 L87.0669,212.1503 L88.7481,210.7793 L90.3569,209.3331 L91.7848,207.6991 L91.6327,207.493 L93.4253,206.2677 L95.3856,205.2696 L97.0129,203.8204 L98.6789,202.4235 L100.5138,201.2555 L100.4462,201.1388 L102.3748,200.1131 L104.3641,199.1924 L106.1488,197.9181 L108.0239,196.8 L109.9608,195.7888 L109.9745,195.8187 L111.8359,194.6297 L114.0061,194.1123 L116.0423,193.3038 L117.9473,192.2095 L119.9,191.2192 " fill="none" style="stroke: #A80036; stroke-width: 1.0;"/><polygon fill="#A80036" points="124.9,189.2792,124.895,189.1774,122.9326,189.1813,120.975,189.2812,119.0057,189.1449,117.0299,188.8778,115.0632,188.7928,115.146,188.9801,116.1589,189.3888,117.1999,189.861,118.1912,190.2208,119.1745,190.5627,120.2362,191.0818,120.3056,191.1125,119.6737,192.0701,119.1735,193.0859,119.0408,194.2643,118.5253,195.2734,117.9473,196.2548,117.9057,196.2134,119.3787,194.9005,120.7117,193.448,122.2651,192.2152,123.4787,190.6437,124.9,189.2792" style="stroke: #A80036; stroke-width: 1.0;"/><path d="M29.9,428.6192 L29.9728,428.628 L30.4271,425.3646 L30.4739,422.0523 L31.2406,418.8264 L31.5356,415.5439 L31.8633,412.2653 L31.9099,412.273 L32.4006,408.697 L33.0188,405.1421 L33.3991,401.5478 L34.3882,398.0543 L34.808,394.4666 L34.5756,394.4154 L35.5308,390.7022 L36.3316,386.955 L37.0387,383.1871 L38.2615,379.5329 L38.929,375.7563 L39.0707,375.7971 L40.0501,371.9452 L41.2781,368.1648 L42.2832,364.3202 L43.2471,360.4639 L44.4213,356.668 L44.22,356.5977 L45.0499,354.7517 L45.6725,352.8333 L46.2129,350.8862 L47.1643,349.0825 L47.7425,347.1486 L48.0242,347.2605 L48.3213,345.1989 L49.5189,343.4949 L49.8693,341.4545 L50.7781,339.6358 L51.4796,337.7347 L51.6941,337.8317 L52.0951,335.787 L53.1112,334.0203 L54.267,332.3167 L54.958,330.4031 L55.6569,328.493 L55.627,328.4775 L56.5163,326.6568 L57.7336,325.0052 L58.5215,323.1321 L59.1241,321.1635 L60.2989,319.49 L60.5007,319.609 L61.0556,317.5915 L62.3758,316.0255 L63.6601,314.4382 L64.3821,312.5193 L65.4298,310.7925 L65.2635,310.6797 L66.6077,309.1606 L67.4526,307.303 L68.9559,305.8918 L70.1053,304.2406 L71.0741,302.4671 L71.0145,302.4204 L72.2872,300.8715 L73.5437,299.3099 L74.7964,297.7453 L75.9646,296.1146 L77.256,294.5804 L77.2284,294.5552 L78.4853,292.9949 L79.7715,291.4616 L81.1053,289.9716 L82.5485,288.5816 L84,287.1992 L84.1698,287.3954 L85.7975,285.4953 L87.549,283.7384 L89.6169,282.347 L91.3456,280.5637 L93.3545,279.1042 L93.2342,278.9189 L95.458,277.7694 L97.423,276.2214 L99.6166,275.0256 L101.5442,273.42 L103.8013,272.3217 L103.7901,272.2994 L106.0858,271.2885 L108.2148,269.943 L110.6395,269.1909 L112.8377,267.9844 L115.0148,266.7355 L114.985,266.6583 L117.4254,266.0398 L119.6516,264.8675 L122.0382,264.1099 L124.4212,263.3431 L126.67,262.2292 " fill="none" style="stroke: #A80036; stroke-width: 1.0;"/><polygon fill="#A80036" points="131.55,260.6592,131.5463,260.6242,129.5982,260.522,127.6207,260.1407,125.6946,260.2482,123.7173,259.8685,121.755,259.6309,121.7641,259.6488,122.6645,259.9525,123.8223,260.7607,124.755,261.1277,125.888,261.8874,126.7939,262.2017,126.5991,262.1023,126.2864,263.2129,125.681,264.1742,125.1065,265.1512,124.7233,266.2258,124.223,267.2407,124.2337,267.2525,125.5932,265.8183,127.2753,264.7434,128.5534,263.2186,130.1262,262.0218,131.55,260.6592" style="stroke: #A80036; stroke-width: 1.0;"/><path d="M41.21,428.4392 L41.1356,428.4061 L42.4596,424.8912 L44.2797,421.5974 L45.8071,418.1731 L47.3515,414.7565 L48.8381,411.3141 L49.1186,411.4689 L50.9546,407.9451 L52.7909,404.4215 L54.4269,400.7874 L56.6346,397.4689 L58.435,393.9255 L58.5509,394.0022 L59.2929,392.0725 L60.422,390.3991 L61.5871,388.7496 L62.7462,387.096 L64.008,385.5106 L63.8004,385.3526 L65.1368,383.8345 L66.2951,382.1808 L67.5346,380.5889 L69.0569,379.2122 L70.1169,377.4838 L70.2203,377.5842 L72.687,374.4261 L75.7833,371.88 L78.2127,368.6855 L81.0934,365.9298 L84,363.1992 L83.8977,363.0641 L85.8989,361.8576 L87.7235,360.4177 L89.4931,358.9054 L91.3927,357.5646 L93.2619,356.1838 L93.2673,356.1926 L95.1245,354.7219 L97.2896,353.758 L99.4256,352.7462 L101.2827,351.2753 L103.3075,350.0805 L103.4257,350.3187 L105.4588,349.0971 L107.5723,348.0375 L109.6759,346.9578 L111.9182,346.1579 L113.8969,344.8266 L113.8275,344.6573 L116.1731,344.171 L118.2265,342.9724 L120.5573,342.4498 L122.4974,340.9749 L124.79,340.3592 " fill="none" style="stroke: #A80036; stroke-width: 1.0;"/><polygon fill="#A80036" points="129.74,338.5792,129.7338,338.497,127.763,338.2615,125.83,338.5319,123.8633,338.3525,121.871,337.8312,119.9187,337.843,119.9071,337.8185,120.9435,338.3316,121.8696,338.6114,123.0451,339.4184,124.1131,339.9982,125.0319,340.2627,124.9075,340.2038,124.5283,341.276,123.9409,342.2497,123.363,343.2279,123.2659,344.4336,122.6123,345.376,122.7496,345.52,124.0102,343.9876,125.631,342.8331,126.7469,341.149,128.1567,339.7731,129.74,338.5792" style="stroke: #A80036; stroke-width: 1.0;"/><path d="M48.23,455.2892 L48.094,455.0858 L49.8441,454.1587 L51.6714,453.347 L53.0173,451.8154 L54.7333,450.8373 L56.4192,449.8142 L56.4869,449.9225 L58.0955,448.5402 L59.8644,447.4142 L61.8217,446.5897 L63.6012,445.4808 L65.3088,444.2567 L65.2651,444.1804 L67.0422,442.9751 L69.1436,442.3372 L70.9884,441.2505 L72.9079,440.2944 L74.6014,438.943 L74.6926,439.1236 L76.6265,438.2823 L78.4769,437.2755 L80.2248,436.0655 L81.9975,434.9046 L84,434.1992 L83.9284,434.0344 L86.8159,433.3198 L89.306,431.69 L91.9917,430.5108 L94.8781,429.7937 L97.452,428.357 L97.4146,428.2594 L100.176,427.1096 L103.0527,426.2602 L105.7595,424.9679 L108.5195,423.8143 L111.4113,423.0042 L111.4384,423.083 L114.1424,421.7827 L116.9724,420.8482 L119.8854,420.1549 L122.5822,418.8337 L125.4998,418.1539 L125.5754,418.3952 L128.3638,417.5933 L131.0774,416.5526 L133.7751,415.461 L136.6099,414.8072 L139.34,413.8192 " fill="none" style="stroke: #A80036; stroke-width: 1.0;"/><polygon fill="#A80036" points="144.4,412.3292,144.4229,412.5032,142.4574,412.1505,140.5223,412.0291,138.545,411.5867,136.5814,411.2488,134.6354,411.0439,134.6179,411.0118,135.6583,411.6377,136.6035,412.0886,137.6516,412.7287,138.5229,413.0437,139.605,413.7462,139.5806,413.733,139.1476,414.7854,138.5188,415.7313,138.1903,416.8404,137.6465,417.8326,136.9026,418.7159,136.7525,418.5396,138.4611,417.5078,139.8345,416.0825,141.4927,414.9915,143.0517,413.7841,144.4,412.3292" style="stroke: #A80036; stroke-width: 1.0;"/><path d="M48.11,470.1992 L48.11,471.1962 L57.5957,470.644 L67.0814,469.3355 L76.5671,469.4253 L86.0529,469.6713 L95.5386,469.3393 L105.0243,470.2432 L114.51,470.1992 " fill="none" style="stroke: #A80036; stroke-width: 1.0;"/><polygon fill="#A80036" points="119.78,470.1992,119.7049,470.0304,117.9868,469.4145,116.2489,468.7542,114.466,467.9927,112.6764,467.2162,110.78,466.1992,110.8732,466.2924,111.604,467.0232,112.2281,467.6473,113.0471,468.4663,114.0487,469.4679,114.78,470.1992,114.6206,470.0398,114.0891,471.1083,113.3029,471.9221,112.2437,472.4629,111.6102,473.4295,110.78,474.1992,110.8328,474.3179,112.4929,473.2032,114.3255,472.4766,116.2648,471.9901,117.9585,470.9507,119.78,470.1992" style="stroke: #A80036; stroke-width: 1.0;"/><path d="M48.05,484.4492 L48.1021,484.5293 L49.6397,485.4304 L51.2625,486.4626 L52.886,487.4958 L54.7998,488.9758 L56.2898,489.8036 L56.1353,489.5502 L57.9487,490.6817 L60.0251,492.2444 L61.7045,493.1561 L63.3741,494.0519 L65.2338,495.2592 L65.3444,495.4565 L67.038,496.1933 L68.9576,497.3332 L70.8932,498.5014 L72.5582,499.1873 L74.5733,500.4973 L74.5615,500.4738 L76.3177,501.1551 L78.1952,502.0798 L80.0898,503.0387 L81.9842,503.9973 L84,505.1992 L84.0726,505.3669 L86.7333,506.322 L89.5805,507.7079 L92.1803,508.5224 L94.9455,509.7189 L97.8283,511.187 L97.8115,511.1435 L100.745,512.4208 L103.4518,513.1098 L106.4737,514.6164 L109.2452,515.4733 L112.1638,516.7117 L112.2134,516.8542 L114.9872,517.534 L117.8903,518.5848 L120.7656,519.5561 L123.7742,520.9095 L126.6023,521.7452 L126.5332,521.5285 L129.4593,522.7401 L132.3562,523.8603 L135.0448,524.3278 L137.9047,525.3319 L140.74,526.2592 " fill="none" style="stroke: #A80036; stroke-width: 1.0;"/><polygon fill="#A80036" points="145.9,527.8192,145.7556,527.6516,144.3936,526.5175,142.8583,525.1823,141.3229,523.8468,140.0549,522.8219,138.4377,521.3916,138.4204,521.3823,139.0656,522.4383,139.5973,523.4334,140.0127,524.366,140.5822,525.3814,141.1128,526.3759,141.1665,526.476,140.0192,526.7306,139.024,527.2687,138.1257,527.9875,137.0458,528.3678,136.1285,529.051,136.1154,528.947,138.1106,529.025,140.0444,528.6165,142.0206,528.5435,143.9156,527.8266,145.9,527.8192" style="stroke: #A80036; stroke-width: 1.0;"/><path d="M41.04,511.8892 L41.248,511.9822 L42.7834,515.3915 L43.9835,518.651 L45.5472,522.0731 L46.8215,525.3657 L48.6427,528.9028 L48.7347,528.9542 L50.5882,532.3579 L52.6487,535.8772 L54.3525,539.1974 L56.421,542.7211 L58.2488,546.1105 L58.1403,546.0317 L60.676,549.4027 L63.2047,552.7685 L65.1954,555.7437 L67.7659,559.14 L69.9905,562.285 L70.2129,562.5089 L72.9591,565.2357 L75.3689,567.6237 L78.1802,570.416 L81.2011,573.4194 L84,576.1992 L84.179,576.4674 L87.1655,578.3416 L90.4233,580.6224 L93.2127,582.2013 L96.5274,584.5674 L99.6506,586.6464 L99.7723,586.9107 L103.1814,588.3923 L106.5571,589.8014 L109.9293,591.2029 L113.4532,592.9339 L116.955,594.6167 L116.9682,594.6573 L120.6376,596.0904 L124.0388,596.6994 L127.7197,598.1682 L131.2927,599.3052 L134.8669,600.4458 L134.8855,600.5267 L138.3894,601.3717 L141.8342,601.9601 L145.3468,602.8429 L148.8892,603.855 L152.34,604.4692 " fill="none" style="stroke: #A80036; stroke-width: 1.0;"/><polygon fill="#A80036" points="157.38,605.3792,157.3088,605.2744,155.8596,604.4333,154.036,603.041,152.4721,602.0312,150.8398,600.9206,149.2322,599.8463,149.4318,599.9849,149.7195,600.6657,150.4137,601.6287,150.9938,602.5126,151.9755,603.6754,152.4593,604.4923,152.3954,604.4003,151.5349,605.1447,150.4683,605.5924,149.7097,606.4834,148.8384,607.2122,147.8132,607.7194,147.8616,607.9172,149.6961,607.1267,151.6162,606.6863,153.5566,606.3287,155.5094,606.0222,157.38,605.3792" style="stroke: #A80036; stroke-width: 1.0;"/><path d="M30.77,511.9092 L30.7657,511.9086 L31.1298,514.9533 L31.9116,518.0584 L32.4141,521.1231 L32.493,524.1265 L32.9805,527.189 L32.7858,527.1518 L33.614,530.4862 L33.9978,533.7357 L34.9975,537.1029 L35.4849,540.3722 L36.1298,543.6716 L35.9755,543.6334 L36.9187,547.0982 L37.6528,550.5114 L38.9255,554.0576 L39.764,557.4966 L40.3833,560.8813 L40.2843,560.85 L41.6238,564.4167 L42.8258,567.9398 L43.5403,571.3087 L45.0909,574.9421 L45.9063,578.343 L46.1968,578.4603 L47.101,581.7111 L48.7594,585.2665 L50.1427,588.7107 L51.5373,592.1595 L52.864,595.581 L52.8919,595.5954 L54.5681,598.8849 L56.1535,602.1274 L58.2699,605.6447 L59.9513,608.9368 L61.422,612.12 L61.4252,612.1221 L63.4171,615.1461 L65.5443,618.261 L67.6927,621.3902 L69.815,624.5018 L71.7456,627.4846 L71.874,627.5993 L73.9655,630.0212 L76.4627,632.8055 L78.9091,635.5444 L81.6329,638.5311 L84,641.1992 L83.9604,641.1483 L86.5839,643.2151 L89.282,645.3775 L91.9246,647.4688 L94.324,649.2479 L96.8978,651.2509 L96.8701,651.1985 L99.7873,652.7426 L102.5771,654.0459 L105.5483,655.6918 L108.4724,657.2488 L111.485,658.973 L111.4182,658.7911 L114.6645,660.3233 L117.796,661.5428 L120.772,662.3387 L123.9817,663.7713 L126.9947,664.6681 L126.9148,664.3531 L130.0833,665.287 L133.1834,665.9513 L136.4182,667.1467 L139.4655,667.6027 L142.66,668.6392 " fill="none" style="stroke: #A80036; stroke-width: 1.0;"/><polygon fill="#A80036" points="147.6,669.5992,147.5365,669.508,145.9156,668.3775,144.3658,667.3493,142.661,666.0983,141.0327,664.9573,139.5149,663.9751,139.4018,663.8983,140.062,664.8519,140.7783,665.8435,141.2339,666.6583,142.1282,667.7705,142.6896,668.6571,142.5567,668.4612,141.8918,669.4965,140.7927,669.8915,139.9777,670.7055,138.8981,671.1292,138.0075,671.8318,137.9852,671.7357,139.8946,671.2501,141.8786,671.0852,143.7638,670.4958,145.6643,669.9718,147.6,669.5992" style="stroke: #A80036; stroke-width: 1.0;"/><path d="M33.07,512.1792 L33.0836,512.1811 L33.6382,517.021 L34.5666,521.9139 L35.0587,526.7449 L35.8216,531.6144 L36.5131,536.4737 L36.3144,536.4421 L37.0472,541.8481 L38.1224,547.3084 L39.1409,552.7597 L39.9611,558.1796 L40.8183,563.6053 L40.6775,563.5808 L41.454,566.4658 L42.0996,569.3279 L42.2377,572.1016 L42.9561,574.9765 L43.29,577.7843 L43.2877,577.7839 L44.106,580.7061 L44.0426,583.4634 L45.0808,586.4267 L45.2403,589.2257 L45.9722,592.1317 L46.2349,592.1847 L46.27,594.9423 L47.0897,597.8581 L47.4914,600.6896 L48.3089,603.6049 L48.8632,606.4672 L48.626,606.4153 L49.4008,609.2779 L50.4149,612.193 L51.0247,615.0195 L51.3847,617.7913 L51.9613,620.6105 L51.8394,620.5812 L52.7163,623.3872 L52.9871,626.0478 L54.0935,628.9089 L54.3365,631.5629 L55.2648,634.3812 L55.4097,634.4196 L56.1327,637.0689 L56.7048,639.6782 L57.1265,642.2475 L57.8225,644.8896 L58.7721,647.599 L58.939,647.6487 L59.7529,650.167 L60.4799,652.6595 L60.7227,655.0082 L61.9177,657.6397 L62.4814,660.0838 L62.7621,660.1786 L63.1176,662.3488 L64.2415,664.7785 L64.6249,666.9581 L65.3311,669.2468 L66.3911,671.655 L66.0859,671.5353 L66.9216,673.6363 L67.9985,675.8319 L68.6634,677.8659 L69.8033,680.0862 L70.4995,682.1325 L70.5732,682.167 L71.3698,683.9775 L72.1491,685.7799 L72.9744,687.6038 L73.6866,689.3749 L74.8049,691.3359 L74.6305,691.2202 L76.8553,694.2487 L78.3426,696.7881 L80.1592,699.5459 L82.1715,702.4335 L84,705.1992 L84.1675,705.3762 L85.5528,706.6642 L87.0561,708.0769 L88.6613,709.5973 L90.194,711.0411 L91.9727,712.7447 L92.0097,712.7958 L93.7008,713.9611 L95.5551,715.3516 L97.5073,716.8769 L99.0383,717.8216 L100.8988,719.2205 L100.8169,719.0766 L102.7843,720.2419 L104.8922,721.6541 L106.5252,722.2318 L108.4857,723.3848 L110.543,724.7081 L110.5452,724.7132 L112.6495,725.8037 L114.6051,726.5655 L116.5168,727.2304 L118.7381,728.5798 L120.67,729.2892 " fill="none" style="stroke: #A80036; stroke-width: 1.0;"/><polygon fill="#A80036" points="125.35,731.0892,125.2002,730.9396,123.9888,729.7263,122.7196,728.4552,121.1783,726.9123,119.8818,725.6141,118.3901,724.1207,118.5686,724.1999,119.0214,725.2314,119.1869,726.1354,119.8854,727.2759,120.2207,728.2552,120.6844,729.2915,120.7627,729.4679,119.726,729.9212,118.6393,730.2614,117.6378,730.7939,116.5942,731.2315,115.5137,731.5857,115.5247,731.8047,117.4902,731.6703,119.4516,731.4544,121.4185,731.348,123.371,730.9563,125.35,731.0892" style="stroke: #A80036; stroke-width: 1.0;"/><path d="M30.33,511.9092 L30.4865,511.9208 L31.0705,518.2381 L31.186,524.5206 L31.7516,530.8365 L32.0667,537.1339 L32.6681,543.4524 L32.8033,543.464 L33.0987,547.0315 L33.466,550.6052 L33.8583,554.181 L34.0021,557.7354 L34.2026,561.2947 L34.1284,561.2876 L34.3747,565.0457 L34.7175,568.8129 L35.191,572.5927 L35.5766,576.3641 L36.0019,580.1392 L35.8918,580.1275 L36.3132,584.0407 L36.6729,587.9474 L37.1035,591.8615 L37.4596,595.7678 L38.0817,599.7023 L37.7535,599.6633 L38.3672,603.6794 L38.9088,607.6869 L39.5785,611.7096 L40.0645,615.7105 L40.4578,619.7004 L40.6594,619.7273 L41.1927,623.7566 L41.495,627.755 L42.3937,631.8331 L42.7825,635.8431 L43.1462,639.8497 L42.8198,639.8006 L43.7327,643.8506 L44.2306,647.8381 L45.1057,651.8825 L45.495,655.8536 L46.1625,659.8667 L46.1561,659.8656 L46.7583,663.7738 L47.4815,667.7028 L48.3468,671.6561 L49.1206,675.5938 L49.5227,679.4677 L49.1977,679.4037 L49.998,683.1951 L51.2768,687.0806 L51.4464,690.7478 L52.4406,694.5773 L53.2425,698.369 L53.3051,698.3833 L53.9506,701.9272 L54.8246,705.5234 L55.5069,709.0757 L56.814,712.7708 L57.3378,716.287 L57.6022,716.3582 L58.1861,719.604 L59.3817,723.0145 L60.0866,726.2929 L61.175,729.6746 L61.8244,732.938 L62.1135,733.0317 L62.6917,735.9219 L63.9044,739.0179 L64.6918,741.9759 L65.818,745.0438 L66.7181,748.0383 L66.4283,747.9222 L68.0815,750.8119 L69.0238,753.4166 L69.8749,755.9847 L71.0642,758.6884 L72.0347,761.3045 L72.2825,761.4324 L73.2485,763.5665 L74.5477,765.8726 L75.6635,768.084 L76.4543,770.1276 L77.7901,772.4526 L77.9679,772.5789 L78.9972,774.1772 L80.0201,775.771 L81.4918,777.6834 L82.5846,779.3268 L84,781.1992 L83.8611,781.0599 L85.6537,782.8486 L87.1387,784.3287 L88.361,785.5453 L90.0949,787.275 L91.5958,788.7711 L91.6962,788.9036 L93.3196,790.0837 L94.8361,791.1229 L96.9137,792.9021 L98.4892,794.0191 L100.1638,795.2667 L100.1713,795.2794 L102.0263,796.366 L103.995,797.6449 L105.8265,798.6917 L107.4647,799.411 L109.4798,800.7686 L109.485,800.7797 L111.359,801.4961 L113.317,802.3927 L115.4465,803.657 L117.4567,804.6657 L119.32,805.3592 " fill="none" style="stroke: #A80036; stroke-width: 1.0;"/><polygon fill="#A80036" points="124.27,807.3092,124.1091,807.1506,122.7142,805.7364,121.5972,804.5963,120.2603,803.2394,118.6639,801.6265,117.3545,800.2967,117.2769,800.2628,117.8864,801.3684,118.4007,802.4325,118.8365,803.4624,119.1326,804.4313,119.6159,805.4818,119.6163,805.4828,118.4922,805.7355,117.4484,806.1723,116.4125,806.627,115.4284,807.2008,114.4307,807.7432,114.4392,807.936,116.3948,807.5716,118.3653,807.5447,120.3437,807.6962,122.2955,807.2453,124.27,807.3092" style="stroke: #A80036; stroke-width: 1.0;"/></g></svg>