<?xml version="1.0" encoding="UTF-8" standalone="no"?><svg xmlns="http://www.w3.org/2000/svg" xmlns:xlink="http://www.w3.org/1999/xlink" contentScriptType="application/ecmascript" contentStyleType="text/css" height="436px" preserveAspectRatio="none" style="width:780px;height:436px;" version="1.1" viewBox="0 0 780 436" width="780px" zoomAndPan="magnify"><defs><filter height="300%" id="fn8op1h" width="300%" x="-1" y="-1"><feGaussianBlur result="blurOut" stdDeviation="2.0"/><feColorMatrix in="blurOut" result="blurOut2" type="matrix" values="0 0 0 0 0 0 0 0 0 0 0 0 0 0 0 0 0 0 .4 0"/><feOffset dx="4.0" dy="4.0" in="blurOut2" result="blurOut3"/><feBlend in="SourceGraphic" in2="blurOut3" mode="normal"/></filter></defs><g><text fill="#000000" font-family="sans-serif" font-size="18" lengthAdjust="spacingAndGlyphs" textLength="306" x="241.5" y="17.4023">ドメインモデル図：ユーザーグループ</text><!--cluster ユーザーグループ--><polygon fill="#FFFFFF" filter="url(#fn8op1h)" points="22,94.1992,22,93.754,31.8333,94.3836,41.6667,94.4516,51.5,93.9816,61.3333,94.4326,71.1667,94.1237,81,93.5733,90.8333,94.2948,100.6667,94.5377,110.5,94.7778,120.3333,94.5656,130.1667,94.4362,140,94.1992,139.979,94.1927,141.4669,98.7177,143.0119,103.2605,144.0332,107.6403,145.7213,112.2276,147,116.6875,147,116.9337,156.9057,116.7476,166.8113,116.9607,176.717,116.3115,186.6226,117.0031,196.5283,116.28,206.434,116.1515,216.3396,117.03,226.2453,116.6771,236.1509,116.2739,246.0566,116.7915,255.9623,116.0979,265.8679,116.6629,275.7736,117.055,285.6792,116.0144,295.5849,116.1495,305.4906,116.856,315.3962,116.0641,325.3019,116.1803,335.2075,116.5674,345.1132,116.28,355.0189,116.0748,364.9245,116.0339,374.8302,116.8528,384.7358,116.8276,394.6415,116.6365,404.5472,116.55,414.4528,116.6294,424.3585,117.3723,434.2642,116.6587,444.1698,116.6152,454.0755,116.961,463.9811,117.2354,473.8868,116.7419,483.7925,116.6869,493.6981,116.7363,503.6038,117.1804,513.5094,116.4399,523.4151,117.0702,533.3208,117.0825,543.2264,117.0535,553.1321,116.6052,563.0377,115.9787,572.9434,116.6238,582.8491,116.9071,592.7547,116.8307,602.6604,116.5762,612.566,116.393,622.4717,116.4207,632.3774,116.2514,642.283,116.2506,652.1887,117.3373,662.0943,116.185,672,116.6875,671.9232,116.6875,671.7494,126.7685,671.4453,136.8495,671.7341,146.9306,671.8384,157.0116,672.7016,167.0926,671.2515,177.1736,672.3056,187.2547,672.6264,197.3357,671.7108,207.4167,672.0895,217.4977,672.4118,227.5788,671.8587,237.6598,671.8817,247.7408,672.2245,257.8218,671.6787,267.9028,672.023,277.9839,672.2081,288.0649,672.2716,298.1459,671.4186,308.2269,671.2587,318.308,671.334,328.389,671.7163,338.47,671.6836,348.551,672.6223,358.6321,671.546,368.7131,672.6647,378.7941,671.3392,388.8751,671.7115,398.9561,672.2202,409.0372,672.3905,419.1182,672,429.1992,672,428.9534,662,428.9431,652,429.3389,642,429.8502,632,429.044,622,429.0422,612,429.5017,602,429.4772,592,429.8083,582,428.531,572,429.2671,562,429.9338,552,429.1591,542,428.9704,532,429.9232,522,429.8453,512,429.7949,502,429.0094,492,429.0144,482,428.4764,472,428.5505,462,428.833,452,429.0381,442,428.7267,432,428.6315,422,429.6032,412,428.9044,402,429.4617,392,429.8713,382,429.2893,372,428.855,362,429.3767,352,429.1424,342,428.6741,332,429.852,322,429.6182,312,428.8179,302,429.6069,292,429.7847,282,429.55,272,428.7076,262,429.2426,252,428.6844,242,429.3555,232,429.1835,222,429.0714,212,429.5057,202,429.1167,192,429.2725,182,428.999,172,428.9106,162,429.0938,152,429.8159,142,429.5775,132,429.3863,122,428.6572,112,429.8872,102,429.2239,92,428.9386,82,429.1926,72,429.0137,62,429.3913,52,429.0296,42,428.8063,32,429.8731,22,429.1992,21.9689,429.1992,21.6702,419.3463,21.6087,409.4933,21.3184,399.6404,21.9934,389.7875,22.4303,379.9345,22.0385,370.0816,22.637,360.2286,21.8671,350.3757,21.9198,340.5227,21.9342,330.6698,22.1824,320.8169,21.9348,310.9639,21.7531,301.111,21.6074,291.258,22.1731,281.4051,21.3839,271.5522,22.545,261.6992,22.4059,251.8463,22.432,241.9933,22.5797,232.1404,22.1842,222.2875,22.2941,212.4345,21.7375,202.5816,22.4152,192.7286,21.2775,182.8757,22.0761,173.0227,21.5435,163.1698,22.7054,153.3169,21.9046,143.4639,22.7155,133.611,22.2731,123.758,22.2948,113.9051,21.3904,104.0522,22,94.1992" style="stroke: #000000; stroke-width: 2.0;"/><path d="M22,116.6875 L22,116.0029 L31.6154,115.8887 L41.2308,116.1293 L50.8462,116.5367 L60.4615,117.4853 L70.0769,116.4449 L79.6923,116.7934 L89.3077,117.5562 L98.9231,116.0149 L108.5385,116.7095 L118.1538,117.3018 L127.7692,117.3869 L137.3846,116.328 L147,116.6875 " fill="#FFFFFF" style="stroke: #000000; stroke-width: 2.0;"/><text fill="#000000" font-family="sans-serif" font-size="14" font-weight="bold" lengthAdjust="spacingAndGlyphs" textLength="112" x="26" y="109.7344">ユーザーグループ</text><!--class ユーザーグループ--><polygon fill="#FEFECE" filter="url(#fn8op1h)" points="294,129.1992,294,128.639,303.8571,128.9109,313.7143,129.4378,323.5714,129.8383,333.4286,129.1194,343.2857,128.8445,353.1429,129.533,363,129.2322,372.8571,129.6634,382.7143,128.683,392.5714,129.3188,402.4286,129.4306,412.2857,129.4522,422.1429,129.8098,432,128.9927,441.8571,128.7214,451.7143,129.2964,461.5714,129.0506,471.4286,129.7236,481.2857,129.7342,491.1429,129.9209,501,128.5015,510.8571,128.7113,520.7143,128.7506,530.5714,128.8582,540.4286,129.4714,550.2857,128.4593,560.1429,129.6547,570,129.1992,570.699,129.1992,570.3406,139.4015,569.5356,149.6037,569.8526,159.806,570.2764,170.0082,570.3661,180.2105,569.7468,190.4128,569.8397,200.615,570.376,210.8173,570,221.0195,570,221.5128,560.1429,221.2559,550.2857,221.5387,540.4286,220.5236,530.5714,221.3426,520.7143,221.2952,510.8571,221.1045,501,220.5204,491.1429,220.9244,481.2857,221.3668,471.4286,220.7173,461.5714,221.4901,451.7143,221.1254,441.8571,220.6362,432,220.4064,422.1429,220.8822,412.2857,221.711,402.4286,220.3505,392.5714,220.4011,382.7143,220.7896,372.8571,220.6417,363,220.7469,353.1429,221.1018,343.2857,220.3213,333.4286,221.1595,323.5714,221.4175,313.7143,220.8424,303.8571,220.464,294,221.0195,294.1646,221.0195,293.4404,210.8173,294.1675,200.615,294.6572,190.4128,294.3703,180.2105,293.6132,170.0082,294.2075,159.806,293.528,149.6037,293.5432,139.4015,294,129.1992" style="stroke: #A80036; stroke-width: 1.5;"/><polygon fill="#ADD1B2" points="389.635,148.3085,388.8019,150.6916,387.2686,152.7722,386.0475,154.265,382.7549,155.4144,380.8029,156.5472,378.3629,156.7015,375.5458,156.0681,373.6714,155.0333,372.5069,152.8464,370.6732,151.2013,370.1246,149.3001,368.1781,146.314,368.2198,143.5459,369.4644,141.4305,371.5497,138.9142,372.1474,136.8817,374.5188,135.9879,377.6234,134.3913,379.8472,133.9509,382.9714,134.4533,386.3996,135.9085,387.7888,138.3794,390.0383,141.1147,390.404,144.3802,390.1947,147.9352" style="stroke: #A80036; stroke-width: 1.0;"/><path d="M382.2231,151.3423 Q381.6421,151.6411 381.0029,151.7905 Q380.3638,151.9399 379.6582,151.9399 Q377.1514,151.9399 375.8315,150.2881 Q374.5117,148.6362 374.5117,145.5151 Q374.5117,142.3857 375.8315,140.7339 Q377.1514,139.082 379.6582,139.082 Q380.3638,139.082 381.0112,139.2314 Q381.6587,139.3809 382.2231,139.6797 L382.2231,142.4023 Q381.5923,141.8213 380.9988,141.5515 Q380.4053,141.2817 379.7744,141.2817 Q378.4297,141.2817 377.7449,142.3484 Q377.0601,143.415 377.0601,145.5151 Q377.0601,147.6069 377.7449,148.6736 Q378.4297,149.7402 379.7744,149.7402 Q380.4053,149.7402 380.9988,149.4705 Q381.5923,149.2007 382.2231,148.6196 Z "/><text fill="#000000" font-family="sans-serif" font-size="12" lengthAdjust="spacingAndGlyphs" textLength="96" x="400.25" y="149.7344">ユーザーグループ</text><path d="M295,161.1992 L295,161.7851 L305.1481,161.703 L315.2963,161.1917 L325.4444,160.9622 L335.5926,162.025 L345.7407,160.223 L355.8889,161.417 L366.037,162.0189 L376.1852,160.9302 L386.3333,161.209 L396.4815,161.7997 L406.6296,161.8954 L416.7778,161.4858 L426.9259,160.7021 L437.0741,161.8839 L447.2222,161.8961 L457.3704,160.2755 L467.5185,161.1448 L477.6667,161.664 L487.8148,161.5638 L497.963,160.3015 L508.1111,160.4764 L518.2593,160.3067 L528.4074,160.6951 L538.5556,161.7529 L548.7037,160.6916 L558.8519,160.5084 L569,161.1992 " fill="#FEFECE" style="stroke: #A80036; stroke-width: 1.5;"/><text fill="#000000" font-family="sans-serif" font-size="11" lengthAdjust="spacingAndGlyphs" textLength="99" x="300" y="175.834">ユーザーグループ名</text><text fill="#000000" font-family="sans-serif" font-size="11" lengthAdjust="spacingAndGlyphs" textLength="33" x="300" y="188.7891">表示名</text><text fill="#000000" font-family="sans-serif" font-size="11" lengthAdjust="spacingAndGlyphs" textLength="99" x="300" y="201.7441">認証プレフィックス</text><text fill="#000000" font-family="sans-serif" font-size="11" lengthAdjust="spacingAndGlyphs" textLength="264" x="300" y="214.6992">コンテンツのドラッグ＆ドロップ移動機能を利用する</text><polygon fill="#FBFB77" filter="url(#fn8op1h)" points="38.5,281.1992,38.8372,281.1992,38.7697,291.3903,38.2181,301.5814,38.5543,311.7725,38.3288,321.9636,38.2606,332.1547,38.9023,342.3459,38.948,352.537,38.4525,362.7281,38.1242,372.9192,38.1494,383.1103,38.1888,393.3014,39.2183,403.4925,38.5,413.6836,38.5,413.8023,48.4516,413.3714,58.4032,413.3334,68.3548,413.5134,78.3065,413.0025,88.2581,414.4133,98.2097,414.1208,108.1613,414.1632,118.1129,413.7107,128.0645,413.9311,138.0161,413.0361,147.9677,413.9054,157.9194,414.2778,167.871,413.2302,177.8226,414.2943,187.7742,413.2036,197.7258,412.9593,207.6774,413.2377,217.629,413.2,227.5806,413.9279,237.5323,414.2824,247.4839,414.2308,257.4355,414.281,267.3871,414.1366,277.3387,413.7614,287.2903,413.1751,297.2419,413.4366,307.1935,413.9304,317.1452,414.1787,327.0968,413.4279,337.0484,412.9813,347,413.0154,356.9516,413.5447,366.9032,413.7915,376.8548,413.0572,386.8065,413.3395,396.7581,414.2598,406.7097,413.2662,416.6613,413.2434,426.6129,413.799,436.5645,413.4266,446.5161,414.3626,456.4677,413.3104,466.4194,414.0243,476.371,413.2059,486.3226,412.9813,496.2742,413.9584,506.2258,413.6605,516.1774,413.5631,526.129,413.1585,536.0806,413.5287,546.0323,413.3582,555.9839,413.2294,565.9355,414.4037,575.8871,414.0954,585.8387,414.3761,595.7903,414.1861,605.7419,413.4308,615.6935,413.5311,625.6452,414.275,635.5968,412.9892,645.5484,413.7898,655.5,413.6836,654.9044,413.6836,655.9712,403.4766,655.5851,393.2695,656.0801,383.0625,655.0673,372.8555,655.0593,362.6484,655.0894,352.4414,656.2007,342.2344,655.9192,332.0273,655.2109,321.8203,655.1986,311.6133,655.8717,301.4063,655.5,291.1992,655.5003,291.1995,653.5055,289.2047,651.4748,287.174,649.3493,285.0486,647.5393,283.2385,645.5,281.1992,645.5,280.9938,635.5492,280.9506,625.5984,281.0382,615.6475,281.401,605.6967,280.6868,595.7459,280.8462,585.7951,281.8956,575.8443,280.734,565.8934,281.8593,555.9426,281.6233,545.9918,281.2637,536.041,280.8557,526.0902,281.239,516.1393,280.6693,506.1885,280.5068,496.2377,281.1571,486.2869,280.7061,476.3361,281.4387,466.3852,280.9244,456.4344,281.2258,446.4836,281.4354,436.5328,281.6472,426.582,280.5229,416.6311,280.748,406.6803,281.3246,396.7295,281.5326,386.7787,280.9735,376.8279,281.039,366.877,280.6015,356.9262,281.7665,346.9754,281.7733,337.0246,280.8561,327.0738,281.1592,317.123,281.8137,307.1721,280.6643,297.2213,280.5574,287.2705,281.2172,277.3197,281.7543,267.3689,281.5456,257.418,281.8319,247.4672,280.8414,237.5164,281.8269,227.5656,281.4371,217.6148,280.666,207.6639,280.6884,197.7131,280.7009,187.7623,280.5104,177.8115,280.9072,167.8607,281.055,157.9098,280.7609,147.959,281.8087,138.0082,281.753,128.0574,280.927,118.1066,280.4675,108.1557,281.0179,98.2049,281.7243,88.2541,280.7187,78.3033,281.1629,68.3525,280.534,58.4016,280.677,48.4508,280.7892,38.5,281.1992" style="stroke: #A80036; stroke-width: 1.0;"/><polygon fill="#FBFB77" points="38.5,281.1992,38.8063,281.1992,37.8987,291.3903,38.4723,301.5814,38.3993,311.7725,38.3513,321.9636,38.2324,332.1547,38.8431,342.3459,37.8462,352.537,38.1411,362.7281,38.4163,372.9192,38.6103,383.1103,37.8856,393.3014,38.0366,403.4925,38.5,413.6836,38.5,413.8759,48.4516,414.112,58.4032,413.1656,68.3548,413.5791,78.3065,413.6497,88.2581,413.2799,98.2097,412.9817,108.1613,413.2849,118.1129,414.1902,128.0645,414.4239,138.0161,413.4359,147.9677,414.0412,157.9194,414.392,167.871,413.3235,177.8226,413.8871,187.7742,414.2705,197.7258,412.9775,207.6774,413.9694,217.629,413.2241,227.5806,414.4002,237.5323,413.1611,247.4839,414.332,257.4355,413.0409,267.3871,413.2742,277.3387,413.0896,287.2903,413.9702,297.2419,413.8768,307.1935,413.4049,317.1452,414.3019,327.0968,413.5296,337.0484,413.1911,347,413.264,356.9516,414.0223,366.9032,414.3629,376.8548,414.3154,386.8065,414.321,396.7581,414.3139,406.7097,413.4561,416.6613,413.6031,426.6129,414.0529,436.5645,413.4689,446.5161,413.0561,456.4677,413.3469,466.4194,414.188,476.371,414.0074,486.3226,413.3816,496.2742,413.7939,506.2258,413.4962,516.1774,414.2871,526.129,413.5406,536.0806,413.7233,546.0323,413.5047,555.9839,414.0032,565.9355,413.7928,575.8871,413.5854,585.8387,414.1025,595.7903,413.2698,605.7419,413.0733,615.6935,413.624,625.6452,413.5933,635.5968,414.0301,645.5484,414.2351,655.5,413.6836,655.5311,413.6836,655.1871,403.4766,655.5557,393.2695,655.5963,383.0625,656.1749,372.8555,655.3366,362.6484,655.4162,352.4414,656.2353,342.2344,655.1775,332.0273,656.1114,321.8203,655.4212,311.6133,654.964,301.4063,655.5,291.1992,655.6252,291.3245,653.4746,289.1738,651.6371,287.3363,649.3679,285.0671,647.5928,283.2921,645.5,281.1992,645.5,281.6162,635.4262,280.6692,625.3523,281.5197,615.2785,281.0175,605.2046,281.4546,595.1308,281.8084,585.0569,281.5691,574.9831,281.2526,564.9092,281.9156,554.8354,280.4826,544.7615,281.717,534.6877,280.9739,524.6138,280.7936,514.54,280.7159,504.4662,280.4559,494.3923,281.746,484.3185,280.6003,474.2446,281.4941,464.1708,281.3693,454.0969,281.3455,444.0231,280.6839,433.9492,280.7622,423.8754,280.7979,413.8015,281.2929,403.7277,281.9069,393.6538,280.8333,383.58,281.1992,383.0405,280.9663,387.1386,272.5849,391.5559,264.3414,394.5603,255.4878,398.8956,247.2089,402.6501,238.6792,405.7671,229.8742,409.44,221.3092,409.0247,221.0744,404.4105,229.7562,400.0188,238.5637,395.44,247.2655,389.7774,255.3545,384.7022,263.7756,380.8863,272.9088,375.58,281.1992,375.58,281.3179,365.6659,280.8165,355.7518,280.6199,345.8376,281.1577,335.9235,281.7397,326.0094,281.7309,316.0953,281.119,306.1812,281.6963,296.2671,280.8251,286.3529,281.0111,276.4388,281.7055,266.5247,281.3802,256.6106,281.5375,246.6965,281.632,236.7824,280.6821,226.8682,281.2699,216.9541,281.8954,207.04,280.8496,197.1259,281.4797,187.2118,280.5781,177.2976,281.664,167.3835,281.8654,157.4694,280.7159,147.5553,280.9743,137.6412,281.1062,127.7271,280.8076,117.8129,281.0716,107.8988,280.6186,97.9847,280.9642,88.0706,281.0708,78.1565,280.6054,68.2424,281.3713,58.3282,280.8026,48.4141,281.3418,38.5,281.1992" style="stroke: #A80036; stroke-width: 1.0;"/><path d="M645.5,281.1992 L645.534,281.1992 L645.8223,283.1992 L645.3294,285.1992 L645.221,287.1992 L645.3496,289.1992 L645.5,291.1992 " fill="#FBFB77" style="stroke: #A80036; stroke-width: 1.0;"/><path d="M655.5,291.1992 L655.5,291.4605 L653.5,291.1955 L651.5,291.2094 L649.5,290.9551 L647.5,291.1728 L645.5,291.1992 " fill="#FBFB77" style="stroke: #A80036; stroke-width: 1.0;"/><text fill="#000000" font-family="sans-serif" font-size="13" lengthAdjust="spacingAndGlyphs" textLength="341" x="44.5" y="298.7676">・ユーザーグループ名は、50文字以内とし入力必須とする</text><text fill="#000000" font-family="sans-serif" font-size="13" lengthAdjust="spacingAndGlyphs" textLength="299" x="44.5" y="314.0781">・ユーザーグループ名は、半角のみ利用可能とする</text><text fill="#000000" font-family="sans-serif" font-size="13" lengthAdjust="spacingAndGlyphs" textLength="273" x="44.5" y="329.3887">・ユーザーグループ名は重複して登録できない</text><text fill="#000000" font-family="sans-serif" font-size="13" lengthAdjust="spacingAndGlyphs" textLength="263" x="44.5" y="344.6992">・表示名は、50文字以内とし入力必須とする</text><text fill="#000000" font-family="sans-serif" font-size="13" lengthAdjust="spacingAndGlyphs" textLength="481" x="44.5" y="360.0098">・認証プレフィックスは、複数の認証領域を設定している場合にのみ入力欄を表示</text><text fill="#000000" font-family="sans-serif" font-size="13" lengthAdjust="spacingAndGlyphs" textLength="364" x="44.5" y="375.3203">・認証プレフィックスは表示されている場合に入力必須とする</text><text fill="#000000" font-family="sans-serif" font-size="13" lengthAdjust="spacingAndGlyphs" textLength="492" x="44.5" y="390.6309">・admins グループの認証プレフィックスにおいて「管理システム」は削除できない</text><text fill="#000000" font-family="sans-serif" font-size="13" lengthAdjust="spacingAndGlyphs" textLength="596" x="44.5" y="405.9414">・admins グループは、ユーザーグループ名の変更、削除、および、アクセス制限の設定はできない。</text><!--class ユーザー--><polygon fill="#FEFECE" filter="url(#fn8op1h)" points="691,327.1992,691,326.6272,701,326.8316,711,327.73,721,327.0332,731,326.6209,741,326.7892,751,327.903,761,327.7788,771,327.1992,770.8248,327.1992,771.0025,335.1992,770.8531,343.1992,770.8061,351.1992,770.9754,359.1992,771,367.1992,771,367.9065,761,366.6641,751,367.402,741,366.8839,731,367.319,721,367.4519,711,367.5561,701,366.9004,691,367.1992,690.7659,367.1992,690.8869,359.1992,690.9327,351.1992,691.2153,343.1992,690.7706,335.1992,691,327.1992" style="stroke: #A80036; stroke-width: 1.5;"/><polygon fill="#ADD1B2" points="717.2668,346.0421,715.4183,347.9657,714.7157,350.4038,713.5112,352.1416,710.1246,353.3981,706.4457,353.7509,704.0896,354.2928,701.8944,353.9438,699.7896,352.7188,698.6271,350.7602,695.9556,349.1034,695.6788,345.9082,695.2373,342.2939,696.1366,339.4277,697.0157,336.9109,698.7158,335.2736,700.2324,333.4775,702.5613,332.7517,706.1756,332.5165,709.4145,332.5271,712.0576,334.3057,714.5232,335.3849,715.036,337.8959,716.9325,339.4444,716.9374,341.5128,717.4764,344.2231" style="stroke: #A80036; stroke-width: 1.0;"/><path d="M708.4731,349.3423 Q707.8921,349.6411 707.2529,349.7905 Q706.6138,349.9399 705.9082,349.9399 Q703.4014,349.9399 702.0815,348.2881 Q700.7617,346.6362 700.7617,343.5151 Q700.7617,340.3857 702.0815,338.7339 Q703.4014,337.082 705.9082,337.082 Q706.6138,337.082 707.2612,337.2314 Q707.9087,337.3809 708.4731,337.6797 L708.4731,340.4023 Q707.8423,339.8213 707.2488,339.5515 Q706.6553,339.2817 706.0244,339.2817 Q704.6797,339.2817 703.9949,340.3484 Q703.3101,341.415 703.3101,343.5151 Q703.3101,345.6069 703.9949,346.6736 Q704.6797,347.7402 706.0244,347.7402 Q706.6553,347.7402 707.2488,347.4705 Q707.8423,347.2007 708.4731,346.6196 Z "/><text fill="#000000" font-family="sans-serif" font-size="12" lengthAdjust="spacingAndGlyphs" textLength="48" x="720" y="347.7344">ユーザー</text><path d="M692,359.1992 L692,358.8421 L701.75,360.1561 L711.5,358.3809 L721.25,359.4132 L731,359.8909 L740.75,359.6688 L750.5,359.5573 L760.25,358.8602 L770,359.1992 " fill="#FEFECE" style="stroke: #A80036; stroke-width: 1.5;"/><!--class アクセス制限設定--><polygon fill="#FEFECE" filter="url(#fn8op1h)" points="368,29.1992,368,29.1938,377.8462,29.4053,387.6923,28.8277,397.5385,28.912,407.3846,29.6447,417.2308,29.5307,427.0769,29.5567,436.9231,29.5541,446.7692,29.3274,456.6154,29.2295,466.4615,28.8953,476.3077,29.7012,486.1538,28.458,496,29.1992,496.239,29.1992,496.2333,37.1992,496.0615,45.1992,495.928,53.1992,495.9129,61.1992,496,69.1992,496,69.2941,486.1538,69.7879,476.3077,69.3868,466.4615,69.6381,456.6154,69.8446,446.7692,69.9072,436.9231,69.4007,427.0769,68.4763,417.2308,68.7968,407.3846,68.9482,397.5385,69.3802,387.6923,69.4128,377.8462,69.9179,368,69.1992,368.0446,69.1992,368.1855,61.1992,368.1239,53.1992,368.1421,45.1992,367.7912,37.1992,368,29.1992" style="stroke: #A80036; stroke-width: 1.5;"/><polygon fill="#ADD1B2" points="393.5281,47.7705,392.1095,50.2039,391.3227,52.0349,389.3262,54.4901,386.5656,55.7971,383.2725,56.2486,379.7883,55.5966,377.2026,55.2441,375.5407,52.5395,373.5504,49.8366,371.6495,46.7691,372.8201,43.2296,372.9898,39.8379,375.0203,37.7836,376.8898,35.4194,379.6756,34.0782,383.2966,33.5264,386.1012,34.982,389.0244,36.071,390.9321,38.2746,393.6455,40.6211,393.4623,43.4633,393.9221,46.3368" style="stroke: #A80036; stroke-width: 1.0;"/><path d="M385.4731,51.3423 Q384.8921,51.6411 384.2529,51.7905 Q383.6138,51.9399 382.9082,51.9399 Q380.4014,51.9399 379.0815,50.2881 Q377.7617,48.6362 377.7617,45.5151 Q377.7617,42.3857 379.0815,40.7339 Q380.4014,39.082 382.9082,39.082 Q383.6138,39.082 384.2612,39.2314 Q384.9087,39.3809 385.4731,39.6797 L385.4731,42.4023 Q384.8423,41.8213 384.2488,41.5515 Q383.6553,41.2817 383.0244,41.2817 Q381.6797,41.2817 380.9949,42.3484 Q380.3101,43.415 380.3101,45.5151 Q380.3101,47.6069 380.9949,48.6736 Q381.6797,49.7402 383.0244,49.7402 Q383.6553,49.7402 384.2488,49.4705 Q384.8423,49.2007 385.4731,48.6196 Z "/><text fill="#000000" font-family="sans-serif" font-size="12" lengthAdjust="spacingAndGlyphs" textLength="96" x="397" y="49.7344">アクセス制限設定</text><path d="M369,61.1992 L369,61.1938 L378.6923,61.5655 L388.3846,60.364 L398.0769,60.286 L407.7692,60.269 L417.4615,62.0862 L427.1538,60.3214 L436.8462,60.8963 L446.5385,61.8056 L456.2308,61.4541 L465.9231,60.6037 L475.6154,60.9941 L485.3077,61.3032 L495,61.1992 " fill="#FEFECE" style="stroke: #A80036; stroke-width: 1.5;"/><path d="M432,69.2992 L431.564,69.2992 L432.4743,79.2609 L431.6038,89.2226 L432.5979,99.1842 L431.2631,109.1459 L432.0107,119.1076 L432,129.0692 " fill="none" style="stroke: #A80036; stroke-width: 1.0;"/><text fill="#000000" font-family="sans-serif" font-size="13" lengthAdjust="spacingAndGlyphs" textLength="22" x="406.9063" y="89.6737">0..*</text><text fill="#000000" font-family="sans-serif" font-size="13" lengthAdjust="spacingAndGlyphs" textLength="8" x="423.3875" y="118.463">1</text><path d="M561.94,221.2592 L561.8494,221.0531 L564.737,222.4569 L567.6185,223.8469 L570.3624,224.9237 L573.2433,226.3123 L576.0121,227.4458 L576.0953,227.6256 L578.747,228.5395 L581.7572,230.2281 L584.5827,231.5175 L587.3603,232.7035 L590.1942,234.0111 L590.1477,233.916 L593.0014,235.3353 L595.8282,236.6999 L598.7341,238.226 L601.5848,239.6394 L604.3864,240.9523 L604.4494,241.0737 L607.0672,242.1459 L610.1232,244.0628 L612.7929,245.235 L615.5366,246.55 L618.4888,248.2667 L618.5053,248.2967 L621.2207,249.7121 L624.0645,251.3601 L626.7219,252.6705 L629.6092,254.3973 L632.4012,255.9514 L632.4285,255.9975 L635.1238,257.5585 L637.7111,258.9369 L640.4183,260.518 L643.1595,262.1566 L646.0239,264.0036 L646.0849,264.0996 L648.7773,265.8548 L651.4167,267.527 L653.8215,268.8302 L656.7159,270.9032 L659.2568,272.4205 L659.3934,272.6187 L661.7025,274.0268 L664.3586,275.9385 L666.7237,277.4279 L669.4758,279.4789 L672,281.1992 L671.8798,281.0512 L674.709,283.4409 L677.2601,285.488 L679.8753,287.6142 L682.6277,289.9093 L685.0425,291.7886 L685.2453,291.9961 L687.5171,294.2094 L689.916,296.5527 L692.4369,299.0209 L694.5911,301.1139 L697.185,303.6567 L697.3036,303.763 L699.4419,306.1566 L701.6453,308.6087 L703.8277,311.0419 L705.9391,313.4115 L708.045,315.7761 L708.2314,315.9272 L709.9194,318.0734 L711.7202,320.311 L713.4896,322.5233 L715.3212,324.7859 L717.24,327.1192 " fill="none" style="stroke: #A80036; stroke-width: 1.0;"/><text fill="#000000" font-family="sans-serif" font-size="13" lengthAdjust="spacingAndGlyphs" textLength="22" x="557.4093" y="241.7302">0..*</text><text fill="#000000" font-family="sans-serif" font-size="13" lengthAdjust="spacingAndGlyphs" textLength="22" x="687.6573" y="316.2888">0..*</text></g></svg>