<?xml version="1.0" encoding="UTF-8" standalone="no"?><svg xmlns="http://www.w3.org/2000/svg" xmlns:xlink="http://www.w3.org/1999/xlink" contentScriptType="application/ecmascript" contentStyleType="text/css" height="468px" preserveAspectRatio="none" style="width:244px;height:468px;" version="1.1" viewBox="0 0 244 468" width="244px" zoomAndPan="magnify"><defs><filter height="300%" id="fsy7cac" width="300%" x="-1" y="-1"><feGaussianBlur result="blurOut" stdDeviation="2.0"/><feColorMatrix in="blurOut" result="blurOut2" type="matrix" values="0 0 0 0 0 0 0 0 0 0 0 0 0 0 0 0 0 0 .4 0"/><feOffset dx="4.0" dy="4.0" in="blurOut2" result="blurOut3"/><feBlend in="SourceGraphic" in2="blurOut3" mode="normal"/></filter></defs><g><text fill="#000000" font-family="sans-serif" font-size="18" lengthAdjust="spacingAndGlyphs" textLength="189" x="32" y="17.4023">カスタムフィールドAPI</text><!--class Api\MailFieldsController--><polygon fill="#FEFECE" filter="url(#fsy7cac)" points="49,129.1992,49,129.6016,59.2143,129.8456,69.4286,129.2872,79.6429,129.1656,89.8571,129.0655,100.0714,128.6777,110.2857,128.8914,120.5,128.8514,130.7143,128.679,140.9286,128.7296,151.1429,128.7186,161.3571,129.4531,171.5714,128.7859,181.7857,128.6207,192,129.1992,192.0888,129.1992,191.5271,139.4688,191.5562,149.7383,191.2899,160.0078,192.4314,170.2773,192.1933,180.5469,192.3683,190.8164,192.1698,201.0859,191.3811,211.3555,192.3867,221.625,191.7477,231.8945,191.9545,242.1641,192.2116,252.4336,191.9044,262.7031,192,272.9727,192,272.4359,181.7857,272.6392,171.5714,273.1,161.3571,273.3237,151.1429,272.8904,140.9286,272.3479,130.7143,273.1078,120.5,273.6809,110.2857,272.7742,100.0714,273.4594,89.8571,272.7012,79.6429,273.2938,69.4286,272.8467,59.2143,272.2631,49,272.9727,48.6139,272.9727,48.2612,262.7031,49.3662,252.4336,48.5577,242.1641,48.3963,231.8945,49.5204,221.625,49.5677,211.3555,49.6772,201.0859,49.222,190.8164,49.489,180.5469,48.8764,170.2773,48.26,160.0078,48.8416,149.7383,48.6958,139.4688,49,129.1992" style="stroke: #A80036; stroke-width: 1.5;"/><text fill="#000000" font-family="sans-serif" font-size="12" lengthAdjust="spacingAndGlyphs" textLength="137" x="52" y="145.8008">Api\MailFieldsController</text><path d="M50,153.332 L50,152.58 L60.0714,153.8125 L70.1429,153.2263 L80.2143,152.426 L90.2857,153.9762 L100.3571,153.2566 L110.4286,154.2293 L120.5,153.3874 L130.5714,153.5433 L140.6429,153.9641 L150.7143,152.7084 L160.7857,152.4644 L170.8571,152.4089 L180.9286,152.6848 L191,153.332 " fill="#FEFECE" style="stroke: #A80036; stroke-width: 1.5;"/><path d="M50,161.332 L50,162.151 L60.0714,160.7136 L70.1429,160.9545 L80.2143,161.3285 L90.2857,160.8463 L100.3571,160.8983 L110.4286,161.7024 L120.5,161.1734 L130.5714,161.0368 L140.6429,160.6746 L150.7143,160.369 L160.7857,161.6098 L170.8571,161.5775 L180.9286,160.3979 L191,161.332 " fill="#FEFECE" style="stroke: #A80036; stroke-width: 1.5;"/><text fill="#000000" font-family="sans-serif" font-size="11" lengthAdjust="spacingAndGlyphs" textLength="102" x="55" y="175.9668">+一覧取得：index()</text><text fill="#000000" font-family="sans-serif" font-size="11" lengthAdjust="spacingAndGlyphs" textLength="128" x="55" y="188.9219">+単一データ取得：view()</text><text fill="#000000" font-family="sans-serif" font-size="11" lengthAdjust="spacingAndGlyphs" textLength="99" x="55" y="201.877">+リスト取得：list()</text><text fill="#000000" font-family="sans-serif" font-size="11" lengthAdjust="spacingAndGlyphs" textLength="92" x="55" y="214.832">+新規追加：add()</text><text fill="#000000" font-family="sans-serif" font-size="11" lengthAdjust="spacingAndGlyphs" textLength="70" x="55" y="227.7871">+編集：edit()</text><text fill="#000000" font-family="sans-serif" font-size="11" lengthAdjust="spacingAndGlyphs" textLength="82" x="55" y="240.7422">+削除：delete()</text><text fill="#000000" font-family="sans-serif" font-size="11" lengthAdjust="spacingAndGlyphs" textLength="87" x="55" y="253.6973">+コピー：copy()</text><text fill="#000000" font-family="sans-serif" font-size="11" lengthAdjust="spacingAndGlyphs" textLength="102" x="55" y="266.6523">+一括処理：batch()</text><!--class MailFieldsService--><polygon fill="#FEFECE" filter="url(#fsy7cac)" points="69.5,333.1992,69.5,333.5416,79.7,333.3579,89.9,333.559,100.1,332.5603,110.3,332.7391,120.5,333.2277,130.7,332.9659,140.9,333.7842,151.1,332.9679,161.3,332.8766,171.5,333.1992,171.5758,333.1992,171.3492,341.2258,171.2713,349.2523,171.6177,357.2789,171.5218,365.3055,171.5,373.332,171.5,373.7255,161.3,373.6846,151.1,373.7723,140.9,373.8701,130.7,373.7729,120.5,374.0601,110.3,373.4188,100.1,373.0107,89.9,373.9974,79.7,373.3299,69.5,373.332,69.4411,373.332,69.532,365.3055,69.3195,357.2789,69.5247,349.2523,69.7444,341.2258,69.5,333.1992" style="stroke: #A80036; stroke-width: 1.5;"/><text fill="#000000" font-family="sans-serif" font-size="12" lengthAdjust="spacingAndGlyphs" textLength="96" x="72.5" y="349.8008">MailFieldsService</text><path d="M70.5,357.332 L70.5,357.4801 L80.5,356.4155 L90.5,358.3219 L100.5,357.2267 L110.5,357.1042 L120.5,357.8036 L130.5,357.2546 L140.5,357.3378 L150.5,357.139 L160.5,357.2352 L170.5,357.332 " fill="#FEFECE" style="stroke: #A80036; stroke-width: 1.5;"/><path d="M70.5,365.332 L70.5,365.9177 L80.5,364.7598 L90.5,365.1484 L100.5,365.6627 L110.5,365.203 L120.5,364.7345 L130.5,365.4798 L140.5,365.9111 L150.5,364.5582 L160.5,366.2897 L170.5,365.332 " fill="#FEFECE" style="stroke: #A80036; stroke-width: 1.5;"/><!--class BcApiController--><polygon fill="#FEFECE" filter="url(#fsy7cac)" points="73.5,29.1992,73.5,29.0013,83.9444,29.7897,94.3889,29.8428,104.8333,29.7338,115.2778,29.5175,125.7222,29.1364,136.1667,29.7951,146.6111,29.6003,157.0556,29.6668,167.5,29.1992,167.2873,29.1992,167.6851,37.2258,167.2908,45.2523,167.6009,53.2789,167.3795,61.3055,167.5,69.332,167.5,69.9139,157.0556,68.5964,146.6111,69.7621,136.1667,68.7915,125.7222,68.7696,115.2778,69.4873,104.8333,69.2876,94.3889,69.6649,83.9444,69.8693,73.5,69.332,73.5459,69.332,73.449,61.3055,73.61,53.2789,73.3559,45.2523,73.4346,37.2258,73.5,29.1992" style="stroke: #A80036; stroke-width: 1.5;"/><text fill="#000000" font-family="sans-serif" font-size="12" lengthAdjust="spacingAndGlyphs" textLength="88" x="76.5" y="45.8008">BcApiController</text><path d="M74.5,53.332 L74.5,53.9966 L84.7222,53.4657 L94.9444,54.0875 L105.1667,53.1097 L115.3889,52.933 L125.6111,52.7165 L135.8333,53.3851 L146.0556,54.2669 L156.2778,54.0081 L166.5,53.332 " fill="#FEFECE" style="stroke: #A80036; stroke-width: 1.5;"/><path d="M74.5,61.332 L74.5,61.2707 L84.7222,60.8326 L94.9444,60.5981 L105.1667,62.2409 L115.3889,62.1152 L125.6111,60.513 L135.8333,61.5232 L146.0556,61.9876 L156.2778,60.4217 L166.5,61.332 " fill="#FEFECE" style="stroke: #A80036; stroke-width: 1.5;"/><polygon fill="#FBFB77" filter="url(#fsy7cac)" points="6,433.1992,6.0056,433.1992,5.8617,438.2613,5.8574,443.3234,6.1423,448.3855,6.0406,453.4477,6,458.5098,6,458.5869,15.9565,457.9682,25.913,458.8416,35.8696,458.6909,45.8261,459.0095,55.7826,458.6322,65.7391,458.7292,75.6957,458,85.6522,459.2326,95.6087,458.0106,105.5652,459.1356,115.5217,458.1196,125.4783,458.3882,135.4348,458.0352,145.3913,458.557,155.3478,458.2935,165.3043,458.3107,175.2609,458.104,185.2174,458.8012,195.1739,458.8488,205.1304,458.4931,215.087,458.2417,225.0435,457.8903,235,458.5098,234.759,458.5098,235.2368,455.4477,234.9646,452.3855,235.1505,449.3234,234.8671,446.2613,235,443.1992,234.9056,443.1048,232.873,441.0722,231.175,439.3742,228.8591,437.0583,226.9119,435.1111,225,433.1992,225,433.1573,215.0455,433.6138,205.0909,432.5419,195.1364,433.0097,185.1818,433.599,175.2273,433.3356,165.2727,433.6375,155.3182,433.8162,145.3636,432.6463,135.4091,433.2463,125.4545,432.6327,115.5,432.9586,105.5455,433.8932,95.5909,433.125,85.6364,432.8067,75.6818,432.6954,65.7273,433.6704,55.7727,433.3134,45.8182,432.7279,35.8636,433.38,25.9091,432.6765,15.9545,433.1796,6,433.1992" style="stroke: #A80036; stroke-width: 1.0;"/><polygon fill="#FBFB77" points="6,433.1992,6.1983,433.1992,5.9198,438.2613,5.962,443.3234,6.1553,448.3855,5.886,453.4477,6,458.5098,6,459.1191,15.9565,458.3003,25.913,459.0372,35.8696,458.145,45.8261,459.0856,55.7826,458.4697,65.7391,458.5803,75.6957,458.2602,85.6522,458.3107,95.6087,458.3926,105.5652,458.7841,115.5217,458.4423,125.4783,458.4362,135.4348,457.9711,145.3913,458.0325,155.3478,457.933,165.3043,458.0322,175.2609,458.5144,185.2174,458.4999,195.1739,457.8173,205.1304,458.6262,215.087,458.8505,225.0435,458.7877,235,458.5098,235.1637,458.5098,234.8314,455.4477,235.1428,452.3855,235.1206,449.3234,235.1961,446.2613,235,443.1992,234.8823,443.0815,233.0721,441.2713,231.1154,439.3147,228.8292,437.0284,226.8571,435.0563,225,433.1992,225,433.7573,214.95,433.7632,204.9,432.5881,194.85,433.5971,184.8,432.9127,174.75,433.6525,164.7,433.6163,154.65,432.6524,144.6,432.8155,134.55,433.8057,124.5,433.1992,124.0413,433.1685,123.6201,423.2166,122.9939,413.251,122.7791,403.3129,121.3601,393.2942,120.9754,383.3448,120.5,373.3892,121.0148,373.4236,119.4841,383.3342,118.738,393.2972,118.0039,403.261,118.445,413.3035,117.7216,423.268,116.5,433.1992,116.5,433.3178,106.4545,433.0837,96.4091,433.3566,86.3636,433.3026,76.3182,432.9466,66.2727,433.4905,56.2273,433.0784,46.1818,433.0646,36.1364,432.6287,26.0909,433.4243,16.0455,433.2081,6,433.1992" style="stroke: #A80036; stroke-width: 1.0;"/><path d="M225,433.1992 L224.9745,433.1992 L224.7023,435.1992 L225.2977,437.1992 L224.853,439.1992 L225.2976,441.1992 L225,443.1992 " fill="#FBFB77" style="stroke: #A80036; stroke-width: 1.0;"/><path d="M235,443.1992 L235,443.3293 L233,443.109 L231,443.181 L229,443.3392 L227,443.1075 L225,443.1992 " fill="#FBFB77" style="stroke: #A80036; stroke-width: 1.0;"/><text fill="#000000" font-family="sans-serif" font-size="13" lengthAdjust="spacingAndGlyphs" textLength="208" x="12" y="450.7676">以下カスタムフィールド管理と同じ</text><path d="M120.5,273.2492 L120.786,273.2492 L120.4657,284.1312 L120.7457,295.0132 L119.7432,305.8952 L119.7412,316.7772 L120.5,327.6592 " fill="none" style="stroke: #000000; stroke-width: 1.0;"/><polygon fill="#000000" points="120.5,332.9292,120.3631,332.8684,121.1844,331.0778,121.9238,329.2509,123.0454,327.5938,123.6772,325.7191,124.5,323.9292,124.3805,323.8097,123.6088,324.638,123.0605,325.6897,122.1788,326.408,121.3896,327.2188,120.5,327.9292,120.5666,327.9958,119.5558,326.985,118.728,326.1572,117.9306,325.3599,117.2362,324.6655,116.5,323.9292,116.3507,323.8628,117.209,325.6888,117.898,327.4394,118.9721,329.3613,119.7325,331.1437,120.5,332.9292" style="stroke: #000000; stroke-width: 1.0;"/><path d="M120.5,89.7192 L120.5275,89.7192 L120.3642,97.5752 L120.7409,105.4312 L120.2033,113.2872 L120.8032,121.1432 L120.5,128.9992 " fill="none" style="stroke: #000000; stroke-width: 1.0;"/><polygon fill="none" points="113.5,89.4992,113.4519,89.4824,115.1308,85.58,116.1191,81.4359,117.8876,77.5649,119.2376,73.5474,120.5,69.4992,120.6224,69.542,121.9254,73.5081,123.4025,77.5351,124.6239,81.4726,125.8798,85.4221,127.5,89.4992,127.5,89.4782,124.7,89.5944,121.9,89.4588,119.1,89.442,116.3,89.6881,113.5,89.4992" style="stroke: #000000; stroke-width: 1.0;"/></g></svg>