<?xml version="1.0" encoding="UTF-8" standalone="no"?><svg xmlns="http://www.w3.org/2000/svg" xmlns:xlink="http://www.w3.org/1999/xlink" contentScriptType="application/ecmascript" contentStyleType="text/css" height="485px" preserveAspectRatio="none" style="width:409px;height:485px;" version="1.1" viewBox="0 0 409 485" width="409px" zoomAndPan="magnify"><defs><filter height="300%" id="f9irhbx" width="300%" x="-1" y="-1"><feGaussianBlur result="blurOut" stdDeviation="2.0"/><feColorMatrix in="blurOut" result="blurOut2" type="matrix" values="0 0 0 0 0 0 0 0 0 0 0 0 0 0 0 0 0 0 .4 0"/><feOffset dx="4.0" dy="4.0" in="blurOut2" result="blurOut3"/><feBlend in="SourceGraphic" in2="blurOut3" mode="normal"/></filter></defs><g><text fill="#000000" font-family="sans-serif" font-size="18" lengthAdjust="spacingAndGlyphs" textLength="252" x="83" y="17.4023">ドメインモデル図：ブログ記事</text><!--cluster ブログ記事--><polygon fill="#FFFFFF" filter="url(#f9irhbx)" points="126,94.1992,126,94.0238,135.5,93.724,145,94.9109,154.5,94.1843,164,94.0165,173.5,93.5838,183,94.1709,192.5,94.9441,202,94.1992,202.026,94.2073,203.2326,98.6448,204.7403,103.176,206.0277,107.6386,207.6053,112.1915,209,116.6875,209,116.5153,219.1429,116.4916,229.2857,116.5342,239.4286,116.4167,249.5714,117.1659,259.7143,117.4114,269.8571,116.4487,280,116.6875,280.4138,116.6875,279.3667,126.5272,280.3721,136.3669,279.4124,146.2066,280.0577,156.0463,280.5915,165.886,280.5092,175.7257,280.2825,185.5654,280.293,195.4051,280.0085,205.2448,279.9098,215.0845,279.7133,224.9242,279.8893,234.764,280.5034,244.6037,279.6634,254.4434,280.0147,264.2831,279.6179,274.1228,280.2969,283.9625,279.3238,293.8022,280.2558,303.6419,280.5374,313.4816,279.3626,323.3213,279.3009,333.161,280.6701,343.0007,280.6478,352.8404,280.4742,362.6801,280.5143,372.5198,280.325,382.3595,280,392.1992,280,391.5344,269.7333,392.7324,259.4667,391.9772,249.2,392.5819,238.9333,392.7819,228.6667,391.8654,218.4,392.8669,208.1333,392.1047,197.8667,392.7536,187.6,391.8211,177.3333,392.4263,167.0667,391.9377,156.8,391.5675,146.5333,392.943,136.2667,392.0082,126,392.1992,126.0387,392.1992,126.162,382.2659,126.2413,372.3326,125.6074,362.3992,125.5041,352.4659,125.9217,342.5326,126.6336,332.5992,125.5327,322.6659,125.7965,312.7326,125.4863,302.7992,126.5942,292.8659,125.5,282.9326,126.5472,272.9992,126.1635,263.0659,126.4804,253.1326,126.4503,243.1992,126.1777,233.2659,126.4918,223.3326,126.0945,213.3992,125.5008,203.4659,125.5683,193.5326,125.8642,183.5992,126.6844,173.6659,125.5238,163.7326,125.361,153.7992,125.4817,143.8659,125.8597,133.9326,125.6907,123.9992,125.3872,114.0659,125.9418,104.1326,126,94.1992" style="stroke: #000000; stroke-width: 2.0;"/><path d="M126,116.6875 L126,115.9764 L136.375,116.7844 L146.75,115.8458 L157.125,116.9266 L167.5,117.4095 L177.875,117.0673 L188.25,116.2279 L198.625,116.6448 L209,116.6875 " fill="#FFFFFF" style="stroke: #000000; stroke-width: 2.0;"/><text fill="#000000" font-family="sans-serif" font-size="14" font-weight="bold" lengthAdjust="spacingAndGlyphs" textLength="70" x="130" y="109.7344">ブログ記事</text><!--class ブログ記事--><polygon fill="#FEFECE" filter="url(#f9irhbx)" points="142,129.1992,142,128.9339,152.1667,129.5724,162.3333,129.5232,172.5,128.4563,182.6667,129.7775,192.8333,129.3908,203,128.684,213.1667,128.4694,223.3333,129.3511,233.5,129.0888,243.6667,129.3078,253.8333,129.7115,264,129.1992,264.5862,129.1992,264.3323,139.0905,263.617,148.9817,264.6376,158.873,263.9336,168.7642,264.3036,178.6555,264.3519,188.5467,263.5125,198.438,263.7239,208.3292,264.7034,218.2205,264.3719,228.1117,264.2656,238.003,264.0217,247.8942,264.6331,257.7855,263.8085,267.6767,264.1551,277.568,263.4955,287.4592,263.2807,297.3505,264.2489,307.2417,263.7004,317.133,263.4129,327.0242,264.3558,336.9155,263.3056,346.8067,263.7169,356.698,264.0787,366.5892,264,376.4805,264,376.9786,253.8333,376.1531,243.6667,376.6472,233.5,376.5204,223.3333,376.5606,213.1667,376.5477,203,376.568,192.8333,375.8724,182.6667,376.6319,172.5,376.9839,162.3333,375.769,152.1667,376.7141,142,376.4805,141.4274,376.4805,141.3466,366.5892,142.5119,356.698,142.2369,346.8067,142.2072,336.9155,142.5555,327.0242,141.339,317.133,141.9127,307.2417,142.4178,297.3505,142.4232,287.4592,142.2869,277.568,142.4814,267.6767,142.1197,257.7855,141.9939,247.8942,141.7776,238.003,141.7802,228.1117,142.276,218.2205,141.6466,208.3292,142.4853,198.438,141.3683,188.5467,141.3849,178.6555,142.1019,168.7642,142.4602,158.873,142.4245,148.9817,142.6961,139.0905,142,129.1992" style="stroke: #A80036; stroke-width: 1.5;"/><polygon fill="#ADD1B2" points="181.5922,148.4024,179.4826,150.3865,178.6182,153.2437,175.2175,154.898,172.5145,155.954,168.9614,156.4636,165.9191,155.564,164.0488,153.3993,161.9879,152.6094,160.9071,149.5966,159.3007,146.4386,159.8823,144.453,159.804,141.8485,161.4284,139.4568,162.995,137.4204,164.666,135.7857,166.407,134.8841,168.8938,134.3525,172.2045,134.2026,174.8102,134.5522,177.0463,135.9289,178.6376,138.0224,179.6103,139.8376,181.205,143.0129,182.0016,145.5648" style="stroke: #A80036; stroke-width: 1.0;"/><path d="M172.9731,151.3423 Q172.3921,151.6411 171.7529,151.7905 Q171.1138,151.9399 170.4082,151.9399 Q167.9014,151.9399 166.5815,150.2881 Q165.2617,148.6362 165.2617,145.5151 Q165.2617,142.3857 166.5815,140.7339 Q167.9014,139.082 170.4082,139.082 Q171.1138,139.082 171.7612,139.2314 Q172.4087,139.3809 172.9731,139.6797 L172.9731,142.4023 Q172.3423,141.8213 171.7488,141.5515 Q171.1553,141.2817 170.5244,141.2817 Q169.1797,141.2817 168.4949,142.3484 Q167.8101,143.415 167.8101,145.5151 Q167.8101,147.6069 168.4949,148.6736 Q169.1797,149.7402 170.5244,149.7402 Q171.1553,149.7402 171.7488,149.4705 Q172.3423,149.2007 172.9731,148.6196 Z "/><text fill="#000000" font-family="sans-serif" font-size="12" lengthAdjust="spacingAndGlyphs" textLength="60" x="187.5" y="149.7344">ブログ記事</text><path d="M143,161.1992 L143,160.3488 L153,160.6373 L163,160.3906 L173,161.3462 L183,161.0157 L193,161.4747 L203,160.7507 L213,161.6558 L223,161.541 L233,161.6852 L243,161.2903 L253,160.6464 L263,161.1992 " fill="#FEFECE" style="stroke: #A80036; stroke-width: 1.5;"/><text fill="#000000" font-family="sans-serif" font-size="11" lengthAdjust="spacingAndGlyphs" textLength="99" x="148" y="175.834">ブログコンテンツID</text><text fill="#000000" font-family="sans-serif" font-size="11" lengthAdjust="spacingAndGlyphs" textLength="17" x="148" y="188.7891">NO</text><text fill="#000000" font-family="sans-serif" font-size="11" lengthAdjust="spacingAndGlyphs" textLength="44" x="148" y="201.7441">スラッグ</text><text fill="#000000" font-family="sans-serif" font-size="11" lengthAdjust="spacingAndGlyphs" textLength="44" x="148" y="214.6992">タイトル</text><text fill="#000000" font-family="sans-serif" font-size="11" lengthAdjust="spacingAndGlyphs" textLength="22" x="148" y="227.6543">概要</text><text fill="#000000" font-family="sans-serif" font-size="11" lengthAdjust="spacingAndGlyphs" textLength="22" x="148" y="240.6094">詳細</text><text fill="#000000" font-family="sans-serif" font-size="11" lengthAdjust="spacingAndGlyphs" textLength="88" x="148" y="253.5645">ブログカテゴリID</text><text fill="#000000" font-family="sans-serif" font-size="11" lengthAdjust="spacingAndGlyphs" textLength="44" x="148" y="266.5195">作成者ID</text><text fill="#000000" font-family="sans-serif" font-size="11" lengthAdjust="spacingAndGlyphs" textLength="44" x="148" y="279.4746">公開状態</text><text fill="#000000" font-family="sans-serif" font-size="11" lengthAdjust="spacingAndGlyphs" textLength="33" x="148" y="292.4297">投稿日</text><text fill="#000000" font-family="sans-serif" font-size="11" lengthAdjust="spacingAndGlyphs" textLength="44" x="148" y="305.3848">概要草稿</text><text fill="#000000" font-family="sans-serif" font-size="11" lengthAdjust="spacingAndGlyphs" textLength="44" x="148" y="318.3398">詳細草稿</text><text fill="#000000" font-family="sans-serif" font-size="11" lengthAdjust="spacingAndGlyphs" textLength="55" x="148" y="331.2949">公開開始日</text><text fill="#000000" font-family="sans-serif" font-size="11" lengthAdjust="spacingAndGlyphs" textLength="55" x="148" y="344.25">公開終了日</text><text fill="#000000" font-family="sans-serif" font-size="11" lengthAdjust="spacingAndGlyphs" textLength="110" x="148" y="357.2051">サイト内検索より除外</text><text fill="#000000" font-family="sans-serif" font-size="11" lengthAdjust="spacingAndGlyphs" textLength="66" x="148" y="370.1602">アイキャッチ</text><!--class ブログコンテンツ--><polygon fill="#FEFECE" filter="url(#f9irhbx)" points="139,29.1992,139,28.9181,148.8462,29.3398,158.6923,28.6438,168.5385,28.7933,178.3846,29.524,188.2308,29.0594,198.0769,28.5537,207.9231,29.3144,217.7692,29.2541,227.6154,29.5947,237.4615,28.6097,247.3077,28.9772,257.1538,29.8344,267,29.1992,266.884,29.1992,267.1006,37.1992,266.9817,45.1992,267.2008,53.1992,266.7761,61.1992,267,69.1992,267,69.7806,257.1538,68.5028,247.3077,68.8838,237.4615,69.7627,227.6154,68.7094,217.7692,69.298,207.9231,68.6874,198.0769,68.626,188.2308,68.6444,178.3846,69.3005,168.5385,69.7886,158.6923,69.5735,148.8462,69.6004,139,69.1992,139.2246,69.1992,138.9761,61.1992,138.9329,53.1992,138.837,45.1992,139.0508,37.1992,139,29.1992" style="stroke: #A80036; stroke-width: 1.5;"/><polygon fill="#ADD1B2" points="164.4916,48.1149,163.1041,51.0645,160.7991,53.8117,159.1499,55.248,155.6433,55.6502,152.9261,56.5173,149.4825,55.5298,146.4057,53.2021,145.0154,50.3738,143.4361,47.0855,142.9797,45.0989,143.8485,41.7705,145.4532,39.3119,146.357,37.1368,149.1738,35.1389,152.1205,34.3049,154.5081,33.7733,156.8959,34.4271,159.7425,35.8229,161.3308,37.6833,163.9298,39.3773,165.0485,42.5157,164.3849,46.1803" style="stroke: #A80036; stroke-width: 1.0;"/><path d="M156.4731,51.3423 Q155.8921,51.6411 155.2529,51.7905 Q154.6138,51.9399 153.9082,51.9399 Q151.4014,51.9399 150.0815,50.2881 Q148.7617,48.6362 148.7617,45.5151 Q148.7617,42.3857 150.0815,40.7339 Q151.4014,39.082 153.9082,39.082 Q154.6138,39.082 155.2612,39.2314 Q155.9087,39.3809 156.4731,39.6797 L156.4731,42.4023 Q155.8423,41.8213 155.2488,41.5515 Q154.6553,41.2817 154.0244,41.2817 Q152.6797,41.2817 151.9949,42.3484 Q151.3101,43.415 151.3101,45.5151 Q151.3101,47.6069 151.9949,48.6736 Q152.6797,49.7402 154.0244,49.7402 Q154.6553,49.7402 155.2488,49.4705 Q155.8423,49.2007 156.4731,48.6196 Z "/><text fill="#000000" font-family="sans-serif" font-size="12" lengthAdjust="spacingAndGlyphs" textLength="96" x="168" y="49.7344">ブログコンテンツ</text><path d="M140,61.1992 L140,60.6996 L149.6923,61.9037 L159.3846,60.8945 L169.0769,61.8635 L178.7692,62.0988 L188.4615,60.4731 L198.1538,61.5208 L207.8462,61.4571 L217.5385,60.2782 L227.2308,61.103 L236.9231,61.3321 L246.6154,61.0229 L256.3077,61.4607 L266,61.1992 " fill="#FEFECE" style="stroke: #A80036; stroke-width: 1.5;"/><!--class ブログカテゴリ--><polygon fill="#FEFECE" filter="url(#f9irhbx)" points="6,436.1992,6,435.6791,15.6667,436.8968,25.3333,436.9401,35,435.8067,44.6667,436.4973,54.3333,436.0093,64,436.2346,73.6667,436.5119,83.3333,435.8292,93,436.3355,102.6667,436.7584,112.3333,436.1436,122,436.1992,121.9365,436.1992,122.086,444.1992,121.9553,452.1992,121.8288,460.1992,121.87,468.1992,122,476.1992,122,475.4566,112.3333,475.6934,102.6667,476.3892,93,476.2459,83.3333,476.4691,73.6667,476.874,64,476.5331,54.3333,475.9461,44.6667,475.7195,35,476.8151,25.3333,476.0126,15.6667,476.2642,6,476.1992,6.1235,476.1992,6.1722,468.1992,6.186,460.1992,5.7591,452.1992,6.031,444.1992,6,436.1992" style="stroke: #A80036; stroke-width: 1.5;"/><polygon fill="#ADD1B2" points="30.7276,455.6288,30.0133,459.3339,28.276,460.7765,26.0216,462.6615,23.2281,463.0643,20.2127,463.378,18.0149,462.6283,14.5713,461.122,12.9132,459.1559,10.8833,457.3686,9.591,454.6614,10.3628,451.198,10.082,448.7348,10.8305,446.6256,13.6512,444.4098,15.7445,442.1843,18.5991,441.7023,22.3597,440.9186,24.4656,441.1406,26.8826,442.5678,28.364,444.0286,30.3513,445.858,31.2117,447.8231,32.3348,450.7954,32.2379,453.3126" style="stroke: #A80036; stroke-width: 1.0;"/><path d="M23.4731,458.3423 Q22.8921,458.6411 22.2529,458.7905 Q21.6138,458.9399 20.9082,458.9399 Q18.4014,458.9399 17.0815,457.2881 Q15.7617,455.6362 15.7617,452.5151 Q15.7617,449.3857 17.0815,447.7339 Q18.4014,446.082 20.9082,446.082 Q21.6138,446.082 22.2612,446.2314 Q22.9087,446.3809 23.4731,446.6797 L23.4731,449.4023 Q22.8423,448.8213 22.2488,448.5515 Q21.6553,448.2817 21.0244,448.2817 Q19.6797,448.2817 18.9949,449.3484 Q18.3101,450.415 18.3101,452.5151 Q18.3101,454.6069 18.9949,455.6736 Q19.6797,456.7402 21.0244,456.7402 Q21.6553,456.7402 22.2488,456.4705 Q22.8423,456.2007 23.4731,455.6196 Z "/><text fill="#000000" font-family="sans-serif" font-size="12" lengthAdjust="spacingAndGlyphs" textLength="84" x="35" y="456.7344">ブログカテゴリ</text><path d="M7,468.1992 L7,468.3691 L17.3636,468.0671 L27.7273,468.9079 L38.0909,468.4878 L48.4545,467.9466 L58.8182,467.5067 L69.1818,467.4578 L79.5455,468.4773 L89.9091,467.2616 L100.2727,468.8034 L110.6364,467.2533 L121,468.1992 " fill="#FEFECE" style="stroke: #A80036; stroke-width: 1.5;"/><!--class ブログタグ--><polygon fill="#FEFECE" filter="url(#f9irhbx)" points="157,436.1992,157,436.3045,167.2222,435.9288,177.4444,436.0975,187.6667,436.5011,197.8889,435.7867,208.1111,436.6012,218.3333,435.4598,228.5556,435.8131,238.7778,436.7653,249,436.1992,249.1306,436.1992,248.8448,444.1992,249.1077,452.1992,249.2032,460.1992,249.1249,468.1992,249,476.1992,249,476.6388,238.7778,476.8763,228.5556,475.5194,218.3333,475.4877,208.1111,475.7982,197.8889,476.5045,187.6667,475.9113,177.4444,476.0143,167.2222,476.8718,157,476.1992,157.0522,476.1992,157.0424,468.1992,157.002,460.1992,157.1865,452.1992,156.9682,444.1992,157,436.1992" style="stroke: #A80036; stroke-width: 1.5;"/><polygon fill="#ADD1B2" points="182.9716,454.2389,181.9972,456.7921,180.2045,458.9502,179.0223,460.9139,176.7741,461.6774,174.258,462.2625,172.3634,462.6343,170.1715,463.3674,167.8736,463.0437,166.259,461.1073,164.0823,460.6708,163.0418,457.9964,161.5548,455.0212,161.1098,451.6986,161.0479,449.0658,162.5918,446.7794,163.7079,444.3527,166.3789,442.4358,169.2297,441.5958,171.3217,441.209,174.1552,441.4918,177.5543,441.9202,179.4213,444.7892,182.0895,446.9265,183.2449,449.0704,182.8598,451.8134,182.9539,454.2187" style="stroke: #A80036; stroke-width: 1.0;"/><path d="M174.4731,458.3423 Q173.8921,458.6411 173.2529,458.7905 Q172.6138,458.9399 171.9082,458.9399 Q169.4014,458.9399 168.0815,457.2881 Q166.7617,455.6362 166.7617,452.5151 Q166.7617,449.3857 168.0815,447.7339 Q169.4014,446.082 171.9082,446.082 Q172.6138,446.082 173.2612,446.2314 Q173.9087,446.3809 174.4731,446.6797 L174.4731,449.4023 Q173.8423,448.8213 173.2488,448.5515 Q172.6553,448.2817 172.0244,448.2817 Q170.6797,448.2817 169.9949,449.3484 Q169.3101,450.415 169.3101,452.5151 Q169.3101,454.6069 169.9949,455.6736 Q170.6797,456.7402 172.0244,456.7402 Q172.6553,456.7402 173.2488,456.4705 Q173.8423,456.2007 174.4731,455.6196 Z "/><text fill="#000000" font-family="sans-serif" font-size="12" lengthAdjust="spacingAndGlyphs" textLength="60" x="186" y="456.7344">ブログタグ</text><path d="M158,468.1992 L158,467.4418 L168,468.2971 L178,468.3524 L188,467.9514 L198,468.642 L208,467.9936 L218,467.3524 L228,467.4776 L238,468.8342 L248,468.1992 " fill="#FEFECE" style="stroke: #A80036; stroke-width: 1.5;"/><!--class ブログコメント--><polygon fill="#FEFECE" filter="url(#f9irhbx)" points="284,436.1992,284,436.3302,293.6667,436.8217,303.3333,435.883,313,436.8634,322.6667,435.7733,332.3333,435.5469,342,435.6769,351.6667,436.2755,361.3333,436.7724,371,435.7732,380.6667,435.8871,390.3333,436.5549,400,436.1992,399.8003,436.1992,399.9585,444.1992,400.0434,452.1992,399.9736,460.1992,400.227,468.1992,400,476.1992,400,476.3263,390.3333,476.7899,380.6667,476.4074,371,475.9163,361.3333,476.6446,351.6667,476.5636,342,475.8612,332.3333,476.6763,322.6667,476.3107,313,476.3279,303.3333,476.8121,293.6667,476.8786,284,476.1992,284.044,476.1992,284.233,468.1992,284.2375,460.1992,284.1312,452.1992,283.9719,444.1992,284,436.1992" style="stroke: #A80036; stroke-width: 1.5;"/><polygon fill="#ADD1B2" points="309.3511,454.9368,308.6054,457.9115,306.8388,459.0176,304.7855,461.0695,302.0013,462.528,299.1737,462.6693,297.216,462.7104,294.9223,462.8173,291.9468,460.8743,290.9839,458.8302,289.2148,456.6111,287.8762,453.7909,287.4298,450.7442,288.8784,448.0486,290.5857,445.0667,293.2809,442.3273,297.0619,441.4373,299.8227,440.9535,301.9764,442.0155,305.4522,443.0303,307.5801,445.7343,308.8818,447.8738,309.7961,450.6901,309.8733,453.8581" style="stroke: #A80036; stroke-width: 1.0;"/><path d="M301.4731,458.3423 Q300.8921,458.6411 300.2529,458.7905 Q299.6138,458.9399 298.9082,458.9399 Q296.4014,458.9399 295.0815,457.2881 Q293.7617,455.6362 293.7617,452.5151 Q293.7617,449.3857 295.0815,447.7339 Q296.4014,446.082 298.9082,446.082 Q299.6138,446.082 300.2612,446.2314 Q300.9087,446.3809 301.4731,446.6797 L301.4731,449.4023 Q300.8423,448.8213 300.2488,448.5515 Q299.6553,448.2817 299.0244,448.2817 Q297.6797,448.2817 296.9949,449.3484 Q296.3101,450.415 296.3101,452.5151 Q296.3101,454.6069 296.9949,455.6736 Q297.6797,456.7402 299.0244,456.7402 Q299.6553,456.7402 300.2488,456.4705 Q300.8423,456.2007 301.4731,455.6196 Z "/><text fill="#000000" font-family="sans-serif" font-size="12" lengthAdjust="spacingAndGlyphs" textLength="84" x="313" y="456.7344">ブログコメント</text><path d="M285,468.1992 L285,468.5303 L295.3636,468.7597 L305.7273,467.518 L316.0909,468.5878 L326.4545,467.5199 L336.8182,468.1206 L347.1818,467.5579 L357.5455,468.956 L367.9091,468.2126 L378.2727,468.2917 L388.6364,468.2434 L399,468.1992 " fill="#FEFECE" style="stroke: #A80036; stroke-width: 1.5;"/><path d="M203,69.5192 L203.182,69.5192 L203.3445,79.4259 L202.7884,89.3326 L203.4412,99.2392 L203.7201,109.1459 L202.2804,119.0526 L203,128.9592 " fill="none" style="stroke: #A80036; stroke-width: 1.0;"/><text fill="#000000" font-family="sans-serif" font-size="13" lengthAdjust="spacingAndGlyphs" textLength="8" x="193.925" y="89.6059">1</text><text fill="#000000" font-family="sans-serif" font-size="13" lengthAdjust="spacingAndGlyphs" textLength="22" x="180.3297" y="118.531">0..*</text><path d="M141.83,342.3692 L142.4568,342.8016 L136.262,351.113 L130.5005,359.7232 L123.8733,367.7364 L118.3488,376.5101 L113.2009,385.5436 L105.7882,393.0149 L101.1648,402.4102 L94.7727,410.5855 L88.626,418.93 L82.9687,427.6122 L77.13,436.1692 " fill="none" style="stroke: #A80036; stroke-width: 1.0;"/><text fill="#000000" font-family="sans-serif" font-size="13" lengthAdjust="spacingAndGlyphs" textLength="22" x="111.9364" y="348.9265">0..*</text><text fill="#000000" font-family="sans-serif" font-size="13" lengthAdjust="spacingAndGlyphs" textLength="8" x="71.9261" y="425.3541">1</text><path d="M203,376.4292 L203.0652,376.4292 L202.0329,386.3792 L203.0159,396.3292 L202.5316,406.2792 L202.4511,416.2292 L203.9483,426.1792 L203,436.1292 " fill="none" style="stroke: #A80036; stroke-width: 1.0;"/><text fill="#000000" font-family="sans-serif" font-size="13" lengthAdjust="spacingAndGlyphs" textLength="22" x="180.3297" y="396.9953">0..*</text><text fill="#000000" font-family="sans-serif" font-size="13" lengthAdjust="spacingAndGlyphs" textLength="22" x="177.6313" y="425.3018">0..*</text><path d="M264.17,342.3692 L264.5299,342.6175 L269.8228,350.7385 L276.6728,359.9336 L281.2156,367.5373 L288.3186,376.9068 L294.3389,385.5297 L299.0342,393.2385 L305.3322,402.0529 L311.2292,410.5906 L316.5505,418.7313 L323.4596,427.9671 L328.87,436.1692 " fill="none" style="stroke: #A80036; stroke-width: 1.0;"/><text fill="#000000" font-family="sans-serif" font-size="13" lengthAdjust="spacingAndGlyphs" textLength="8" x="272.1126" y="349.9538">1</text><text fill="#000000" font-family="sans-serif" font-size="13" lengthAdjust="spacingAndGlyphs" textLength="22" x="299.4802" y="425.3541">0..*</text></g></svg>