<?xml version="1.0" encoding="UTF-8" standalone="no"?><svg xmlns="http://www.w3.org/2000/svg" xmlns:xlink="http://www.w3.org/1999/xlink" contentScriptType="application/ecmascript" contentStyleType="text/css" height="654px" preserveAspectRatio="none" style="width:701px;height:654px;" version="1.1" viewBox="0 0 701 654" width="701px" zoomAndPan="magnify"><defs><filter height="300%" id="fdfgjxv" width="300%" x="-1" y="-1"><feGaussianBlur result="blurOut" stdDeviation="2.0"/><feColorMatrix in="blurOut" result="blurOut2" type="matrix" values="0 0 0 0 0 0 0 0 0 0 0 0 0 0 0 0 0 0 .4 0"/><feOffset dx="4.0" dy="4.0" in="blurOut2" result="blurOut3"/><feBlend in="SourceGraphic" in2="blurOut3" mode="normal"/></filter></defs><g><text fill="#000000" font-family="sans-serif" font-size="18" lengthAdjust="spacingAndGlyphs" textLength="252" x="242" y="17.4023">ユースケース：コンテンツ管理</text><!--cluster コンテンツ管理--><polygon fill="#FFFFFF" filter="url(#fdfgjxv)" points="453,53.1992,453,52.4991,463.4,53.5224,473.8,53.8909,484.2,53.5466,494.6,53.7784,505,52.4767,515.4,53.9361,525.8,53.557,536.2,53.3575,546.6,53.4542,557,53.1992,557.0153,53.204,558.6197,57.7653,560.0189,62.2627,561.186,66.6878,562.6754,71.2133,564,75.6875,564,75.6426,574,75.9937,584,74.9888,594,76.0379,604,76.1943,614,76.366,624,75.8207,634,75.6656,644,76.2564,654,76.1616,664,75.6044,674,76.1811,684,75.184,694,75.6875,693.7365,75.6875,694.0896,85.6786,694.2262,95.6697,693.5607,105.6609,694.3865,115.652,694.0655,125.6431,693.6789,135.6342,694.5917,145.6254,693.594,155.6165,694.0876,165.6076,694.6989,175.5987,693.3594,185.5898,693.9527,195.581,694.6338,205.5721,694.7379,215.5632,693.6842,225.5543,693.794,235.5455,694.4263,245.5366,694.5352,255.5277,693.9643,265.5188,694.5768,275.5099,693.2627,285.5011,694.6961,295.4922,694.5792,305.4833,694.101,315.4744,693.8874,325.4656,694.7338,335.4567,694.4777,345.4478,694.3005,355.4389,694.4482,365.43,693.6956,375.4212,694.1871,385.4123,694.5847,395.4034,693.7358,405.3945,693.4939,415.3857,693.4888,425.3768,694.1157,435.3679,693.3906,445.359,694.5182,455.3501,693.5863,465.3413,694.0266,475.3324,694.5681,485.3235,694.515,495.3146,694.2568,505.3058,693.4094,515.2969,694.1961,525.288,694.5815,535.2791,694.2189,545.2702,694.4265,555.2614,693.9242,565.2525,693.9366,575.2436,693.2641,585.2347,694.1306,595.2259,693.6584,605.217,694.3992,615.2081,694,625.1992,694,624.8011,683.9583,624.7062,673.9167,624.9019,663.875,624.924,653.8333,624.5377,643.7917,625.0894,633.75,624.6736,623.7083,624.8264,613.6667,625.7648,603.625,625.9427,593.5833,625.7457,583.5417,625.637,573.5,624.8651,563.4583,625.5318,553.4167,625.0718,543.375,624.6364,533.3333,624.8511,523.2917,624.7677,513.25,625.689,503.2083,624.6252,493.1667,625.3396,483.125,624.9414,473.0833,624.4566,463.0417,624.7885,453,625.1992,452.4346,625.1992,453.0266,615.1641,452.7817,605.129,453.6499,595.094,453.1248,585.0589,452.9718,575.0238,453.0979,564.9887,453.6963,554.9536,453.6446,544.9185,453.2803,534.8834,452.9286,524.8483,452.9207,514.8133,452.818,504.7782,453.4067,494.7431,452.9149,484.708,452.2987,474.6729,453.1103,464.6378,453.4913,454.6027,452.6206,444.5676,453.4962,434.5326,453.053,424.4975,452.3018,414.4624,452.8443,404.4273,453.4956,394.3922,453.6487,384.3571,453.7293,374.322,453.3326,364.2869,452.5886,354.2519,453.4704,344.2168,452.955,334.1817,452.8804,324.1466,453.5,314.1115,452.6659,304.0764,452.682,294.0413,452.5173,284.0062,452.9658,273.9711,453.142,263.9361,452.3044,253.901,453.5286,243.8659,453.6126,233.8308,452.3525,223.7957,453.0677,213.7606,452.9302,203.7255,452.9524,193.6904,452.8404,183.6554,453.6622,173.6203,453.2191,163.5852,452.7333,153.5501,452.9831,143.515,452.2752,133.4799,453.2525,123.4448,453.263,113.4097,453.2775,103.3747,453.424,93.3396,452.9622,83.3045,453.6544,73.2694,453.4551,63.2343,453,53.1992" style="stroke: #000000; stroke-width: 2.0;"/><path d="M453,75.6875 L453,76.1974 L463.0909,74.7594 L473.1818,75.3181 L483.2727,74.6991 L493.3636,75.9739 L503.4545,74.8169 L513.5455,76.3617 L523.6364,75.4565 L533.7273,76.1249 L543.8182,74.7013 L553.9091,75.1008 L564,75.6875 " fill="#FFFFFF" style="stroke: #000000; stroke-width: 2.0;"/><text fill="#000000" font-family="sans-serif" font-size="14" font-weight="bold" lengthAdjust="spacingAndGlyphs" textLength="98" x="457" y="68.7344">コンテンツ管理</text><polygon fill="#FEFECE" filter="url(#fdfgjxv)" points="658.449,493.8035,654.8324,496.619,647.411,498.8693,642.2347,501.8398,631.6396,503.6769,622.9397,505.9471,611.0389,507.3811,600.7269,508.971,587.851,509.6708,573.0537,509.5376,561.3437,509.6359,547.6947,508.7489,534.9819,507.4786,522.5934,505.6451,512.6705,503.7129,504.2335,501.45,497.481,498.91,494.5695,496.6102,491.8929,493.7669,489.5681,490.4618,491.4984,487.655,493.7678,484.5317,497.6003,481.4613,504.7252,478.9361,515.5729,477.1567,523.4359,474.6952,536.046,473.4233,546.3528,471.8323,560.7357,471.4768,573.5685,471.1611,586.239,471.2823,601.0653,472.4383,613.5246,473.6506,621.988,474.5873,632.7738,476.7167,642.4221,479.2563,649.6909,481.9143,653.0407,484.3142,658.2747,487.7419,657.4393,490.3249" style="stroke: #A80036; stroke-width: 1.5;"/><text fill="#000000" font-family="sans-serif" font-size="14" lengthAdjust="spacingAndGlyphs" textLength="140" x="503.7351" y="495.1904">コンテンツを検索する</text><polygon fill="#FEFECE" filter="url(#fdfgjxv)" points="655.6039,118.1534,654.6961,121.5878,648.3548,124.085,640.9859,126.5544,634.2159,129.2656,624.8331,131.3798,611.1037,132.3959,601.1312,134.0634,585.5393,134.1426,572.408,134.39,559.1082,134.1251,549.0277,134.0535,536.9498,132.9283,523.9416,130.9531,512.8687,128.7582,505.9054,126.832,498.7142,124.1918,494.7994,121.6628,488.8891,118.0806,490.4804,115.6703,489.0168,112.088,493.2719,109.4184,500.3453,107.0885,504.678,103.9253,512.5957,101.4764,525.8338,100.2431,536.3589,98.4948,548.735,97.3766,561.5588,96.6649,574.1455,96.293,587.4092,96.5497,601.2971,97.4913,611.9004,98.2795,622.1413,99.6224,631.9721,101.5335,640.3,103.7715,649.9695,106.978,654.9273,109.7453,656.4503,112.325,658.2307,115.5058" style="stroke: #A80036; stroke-width: 1.5;"/><text fill="#000000" font-family="sans-serif" font-size="14" lengthAdjust="spacingAndGlyphs" textLength="140" x="503.7351" y="120.1904">コンテンツを作成する</text><polygon fill="#FEFECE" filter="url(#fdfgjxv)" points="656.8418,191.4363,653.1192,194.2275,647.7202,196.94,642.3178,199.8588,633.6326,202.1323,623.3847,204.0488,611.1947,205.4167,599.3438,206.655,587.8203,207.6638,574.3186,207.8266,562.1271,207.8149,548.7306,206.9856,535.9229,205.6937,524.1952,204.0111,514.4071,202.1097,504.6648,199.5485,498.6178,197.1698,492.9974,194.251,489.2324,191.159,490.778,188.7383,490.0447,185.3228,493.536,182.4788,498.6213,179.6946,504.6027,176.9081,515.1592,175.0621,525.5035,173.1677,534.3753,171.0416,548.5563,170.3357,560.5551,169.4356,572.8029,168.9862,586.1472,169.2613,598.1903,169.7814,613.382,171.618,622.3538,172.6709,633.3244,174.8425,640.9637,176.9231,648.0864,179.5477,654.6148,182.6739,657.8714,185.6497,659.5129,188.7987" style="stroke: #A80036; stroke-width: 1.5;"/><text fill="#000000" font-family="sans-serif" font-size="14" lengthAdjust="spacingAndGlyphs" textLength="140" x="503.7351" y="193.1904">コンテンツを編集する</text><polygon fill="#FEFECE" filter="url(#fdfgjxv)" points="656.3746,566.3295,652.279,569.0355,649.1806,572.2736,643.4577,575.1192,633.521,577.1068,624.4034,579.2816,610.8018,580.3269,598.2228,581.3988,587.2743,582.539,573.2958,582.5929,560.7123,582.4916,546.3191,581.4346,534.3937,580.3442,523.4303,578.8363,515.1946,577.2896,506.8729,575.0531,498.0013,572.0289,494.1176,569.507,491.0538,566.5752,489.9495,563.549,490.0462,560.3232,492.5345,557.2499,499.6036,554.9191,504.5795,551.9028,515.102,550.0491,523.0368,547.604,537.0511,546.653,547.4938,545.093,562.205,544.8125,572.5402,543.9262,588.5486,544.81,601.2249,545.4748,613.5002,546.645,624.793,548.2283,634.1407,550.029,640.6678,551.8555,650.0949,555.0066,652.39,557.1656,655.6638,560.1453,658.5177,563.5713" style="stroke: #A80036; stroke-width: 1.5;"/><text fill="#000000" font-family="sans-serif" font-size="14" lengthAdjust="spacingAndGlyphs" textLength="140" x="503.7351" y="568.1904">コンテンツを削除する</text><polygon fill="#FEFECE" filter="url(#fdfgjxv)" points="661.5717,266.1436,658.2062,269.2539,652.7657,272.2177,645.8485,275.0671,637.3118,277.6611,625.5355,279.5211,612.8943,281.0737,601.4732,282.6825,586.2837,283.1138,574.4811,283.8936,558.3175,283.1814,544.2045,282.3571,533.7264,281.7213,521.782,280.0755,508.7964,277.4897,499.152,274.9483,493.8232,272.6806,486.2243,269.2207,485.5772,266.7009,483.7842,263.3447,483.4851,259.8231,488.4607,257.0776,491.9644,253.675,501.4984,251.4185,508.3435,248.4412,520.0653,246.5688,533.0771,245.1002,544.4359,243.4774,559.5844,243.0367,572.715,242.5578,585.7258,242.5557,600.1166,243.4429,614.1157,244.8765,626.5959,246.6437,636.0214,248.4228,647.5784,251.3976,653.8986,253.8899,657.7783,256.5071,663.9289,260.2739,663.6531,263.1613" style="stroke: #A80036; stroke-width: 1.5;"/><text fill="#000000" font-family="sans-serif" font-size="14" lengthAdjust="spacingAndGlyphs" textLength="154" x="496.3393" y="267.9112">コンテンツをコピーする</text><polygon fill="#FEFECE" filter="url(#fdfgjxv)" points="656.4635,341.3498,654.4563,344.533,647.894,346.9797,640.9742,349.5518,634.2258,352.2679,621.9777,353.7273,610.4236,355.2405,600.5585,356.9325,588.2205,357.7552,573.1882,357.5683,559.469,357.2075,549.1714,357.0863,533.8924,355.2297,523.1917,353.7818,512.668,351.7123,504.4896,349.5085,498.3498,347.1085,491.9417,344.0098,490.488,341.4459,489.3321,338.4079,489.5659,335.2134,494.0003,332.5849,499.161,329.8179,505.1455,327.0321,514.6761,324.9517,525.2006,323.0985,535.8667,321.3824,548.7716,320.3849,561.0797,319.5554,574.4018,319.3515,588.2202,319.735,600.4527,320.2983,612.5546,321.429,621.9328,322.5747,633.8372,324.9597,641.9382,327.1458,648.8459,329.7212,652.9305,332.2891,655.3148,335.0656,659.0499,338.6929" style="stroke: #A80036; stroke-width: 1.5;"/><text fill="#000000" font-family="sans-serif" font-size="14" lengthAdjust="spacingAndGlyphs" textLength="140" x="503.7351" y="343.1904">コンテンツを公開する</text><polygon fill="#FEFECE" filter="url(#fdfgjxv)" points="669.0877,417.841,666.4897,421.3654,659.1793,424.1735,651.0234,427.0251,642.1291,429.8289,630.019,431.9097,616.4903,433.5533,603.7132,435.1321,590.33,436.2314,572.8962,435.9755,556.8649,435.5003,545.1191,435.3769,529.4578,433.6995,515.9219,431.7808,505.1813,429.7438,495.1866,427.1184,488.9517,424.5916,481.2998,421.027,477.0889,417.5625,478.1996,414.6827,478.7255,411.1369,481.0521,407.5514,487.7021,404.5949,494.8762,401.5225,503.7499,398.714,516.513,396.78,531.1702,395.3903,542.3142,393.4442,557.6994,392.795,572.3029,392.4145,589.7795,393.2148,603.9952,393.8935,619.0965,395.445,628.9376,396.5329,641.7028,399.0252,652.4432,401.8182,658.2606,404.2512,664.4599,407.4891,669.9285,411.2365,669.6476,414.3028" style="stroke: #A80036; stroke-width: 1.5;"/><text fill="#000000" font-family="sans-serif" font-size="14" lengthAdjust="spacingAndGlyphs" textLength="168" x="489.5689" y="419.1571">コンテンツを非公開にする</text><!--entity 作成者--><polygon fill="#FEFECE" filter="url(#fdfgjxv)" points="219.0845,308.8329,218.2785,310.1473,217.95,311.9135,216.2083,312.6724,214.9751,313.7564,212.6273,314.9166,210.5483,315.0618,208.4535,313.9299,206.6518,313.0885,205.4082,311.9162,204.7265,310.494,203.6264,309.3396,203.7256,306.7998,203.3645,304.7522,204.5294,302.3962,205.8949,301.3198,207.0677,299.9229,209.2551,299.0766,211.9062,298.3631,213.3832,298.496,215.2505,300.0386,217.277,300.6625,218.5451,302.5078,218.8117,304.3004,219.1843,305.684,219.5681,307.1048" style="stroke: #A80036; stroke-width: 2.0;"/><path d="M211.5,314.6992 L211.925,314.6992 L211.7069,320.0992 L211.0604,325.4992 L211.2948,330.8992 L212.005,336.2992 L211.5,341.6992 M198.5,322.6992 L198.5,323.1096 L203.7,322.7923 L208.9,322.8382 L214.1,322.0855 L219.3,322.4952 L224.5,322.6992 M211.5,341.6992 L211.7933,341.9535 L209.0445,344.8244 L206.5927,347.9529 L203.7979,350.7841 L201.2137,353.7977 L198.5,356.6992 M211.5,341.6992 L211.9778,342.1133 L213.6472,344.3068 L216.6526,347.6581 L218.8558,350.3142 L221.6468,353.4798 L224.5,356.6992 " fill="#FEFECE" style="stroke: #A80036; stroke-width: 2.0;"/><text fill="#000000" font-family="sans-serif" font-size="14" lengthAdjust="spacingAndGlyphs" textLength="42" x="190.5" y="377.2344">作成者</text><polygon fill="#FBFB77" filter="url(#fdfgjxv)" points="6,603.6992,6.1997,603.6992,5.9461,611.8234,6.1477,619.9477,6.2474,628.0719,5.93,636.1961,6,644.3203,6,645.0354,16.0244,645.0271,26.0488,644.8779,36.0732,644.9313,46.0976,645.0008,56.122,643.7705,66.1463,644.9685,76.1707,644.4355,86.1951,644.7752,96.2195,644.3426,106.2439,645.0037,116.2683,644.2725,126.2927,644.7191,136.3171,644.9383,146.3415,644.2869,156.3659,643.6876,166.3902,643.644,176.4146,644.304,186.439,644.5564,196.4634,643.956,206.4878,643.639,216.5122,643.8499,226.5366,644.4965,236.561,644.5569,246.5854,645.0616,256.6098,645.0327,266.6341,644.1025,276.6585,644.0863,286.6829,644.4423,296.7073,645.0379,306.7317,644.6847,316.7561,644.6809,326.7805,644.3637,336.8049,644.2937,346.8293,644.3936,356.8537,644.0735,366.878,643.8815,376.9024,643.6733,386.9268,644.6979,396.9512,644.3301,406.9756,644.7699,417,644.3203,417.0255,644.3203,417.1428,638.1961,417.0014,632.0719,416.99,625.9477,416.7692,619.8234,417,613.6992,417.0469,613.7461,414.828,611.5272,412.9954,609.6946,410.9413,607.6405,409.1648,605.864,407,603.6992,407,604.2355,396.975,604.229,386.95,604.3926,376.925,604.1212,366.9,603.1818,356.875,604.2974,346.85,603.6049,336.825,603.2,326.8,604.2874,316.775,603.5844,306.75,604.3053,296.725,603.0145,286.7,603.0223,276.675,604.1702,266.65,603.0212,256.625,604.2144,246.6,603.6226,236.575,603.0135,226.55,603.1294,216.525,603.2955,206.5,603.2346,196.475,604.0875,186.45,603.1378,176.425,602.9959,166.4,604.3483,156.375,603.4984,146.35,603.8789,136.325,603.8583,126.3,603.6481,116.275,603.1733,106.25,603.2229,96.225,604.3379,86.2,604.1978,76.175,603.1529,66.15,603.6789,56.125,603.8242,46.1,604.2417,36.075,603.6765,26.05,604.3491,16.025,604.3815,6,603.6992" style="stroke: #A80036; stroke-width: 1.0;"/><path d="M407,603.6992 L406.8436,603.6992 L407.1775,605.6992 L406.7418,607.6992 L407.0936,609.6992 L406.973,611.6992 L407,613.6992 " fill="#FBFB77" style="stroke: #A80036; stroke-width: 1.0;"/><path d="M417,613.6992 L417,613.7156 L415,613.9265 L413,613.5094 L411,613.373 L409,613.3891 L407,613.6992 " fill="#FBFB77" style="stroke: #A80036; stroke-width: 1.0;"/><text fill="#000000" font-family="sans-serif" font-size="13" lengthAdjust="spacingAndGlyphs" textLength="390" x="12" y="621.2676">「コンテンツ」はフォルダ、固定ページ、リンク、エイリアスなど</text><text fill="#000000" font-family="sans-serif" font-size="13" lengthAdjust="spacingAndGlyphs" textLength="234" x="12" y="636.5781">複数の種類のコンテンツを対象とする。</text><polygon fill="#FBFB77" filter="url(#fdfgjxv)" points="116.5,543.6992,116.3748,543.6992,116.3439,548.7613,116.2802,553.8234,116.3161,558.8855,116.4169,563.9477,116.5,569.0098,116.5,569.607,126.5,568.6269,136.5,568.9165,146.5,569.047,156.5,569.5964,166.5,569.047,176.5,568.5921,186.5,568.5954,196.5,568.3674,206.5,569.6777,216.5,569.0409,226.5,569.5042,236.5,569.3013,246.5,569.2628,256.5,569.7383,266.5,569.1618,276.5,569.6731,286.5,569.2772,296.5,568.6223,306.5,569.0098,306.6147,569.0098,306.5188,565.9477,306.4033,562.8855,306.423,559.8234,306.3682,556.7613,306.5,553.6992,306.4879,553.6871,304.4051,551.6043,302.3852,549.5844,300.6055,547.8047,298.506,545.7052,296.5,543.6992,296.5,544.121,286.5,543.402,276.5,543.3398,266.5,544.3448,256.5,543.4178,246.5,543.1246,236.5,543.7458,226.5,544.4234,216.5,543.0509,206.5,543.8726,196.5,543.936,186.5,544.2723,176.5,543.3545,166.5,543.5422,156.5,543.3004,146.5,544.1824,136.5,543.3939,126.5,542.9755,116.5,543.6992" style="stroke: #A80036; stroke-width: 1.0;"/><polygon fill="#FBFB77" points="116.5,543.6992,116.6729,543.6992,116.5058,548.7613,116.5319,553.8234,116.726,558.8855,116.2745,563.9477,116.5,569.0098,116.5,569.6393,126.5,568.678,136.5,569.5533,146.5,568.8091,156.5,568.8269,166.5,568.91,176.5,569.7544,186.5,568.2737,196.5,569.0807,206.5,568.8306,216.5,569.6435,226.5,568.966,236.5,568.3895,246.5,569.7552,256.5,569.4529,266.5,569.4363,276.5,568.5204,286.5,569.5046,296.5,569.386,306.5,569.0098,306.3121,569.0098,306.3962,567.6137,306.6149,566.2175,306.7028,564.8214,306.5059,563.4253,306.5,562.0292,306.5016,562.6956,316.6748,561.7063,326.8522,562.4259,337.0274,562.2614,347.201,561.4139,357.3762,561.2303,367.5548,562.4927,377.7302,562.4143,387.9056,562.3193,398.0795,561.6032,408.2545,561.3507,418.4308,561.6437,428.6053,561.1466,438.7821,561.6543,448.9576,561.605,459.1326,561.3622,469.3076,561.1149,479.4831,561.0618,489.66,561.5892,489.63,560.8618,479.4692,560.7987,469.3131,560.8501,459.1332,560.3261,448.9359,559.3802,438.7518,558.7531,428.5819,558.4698,418.414,558.2347,408.2298,557.6053,398.1035,558.3796,387.933,558.0806,377.7217,556.7946,367.5661,556.8576,357.3587,555.6661,347.1894,555.3975,337.0472,555.7856,326.8269,554.2837,316.7041,555.14,306.5,554.0292,306.3382,554.0292,306.3403,553.9632,306.3546,553.8972,306.5419,553.8312,306.5297,553.7652,306.5,553.6992,306.5134,553.7126,304.4954,551.6946,302.5743,549.7735,300.4357,547.635,298.6236,545.8229,296.5,543.6992,296.5,543.7112,286.5,543.3752,276.5,543.8527,266.5,543.229,256.5,544.1606,246.5,543.8601,236.5,543.5387,226.5,543.6294,216.5,543.232,206.5,543.6499,196.5,543.0055,186.5,544.3092,176.5,543.5322,166.5,544.0469,156.5,543.3748,146.5,543.6477,136.5,543.6343,126.5,543.5712,116.5,543.6992" style="stroke: #A80036; stroke-width: 1.0;"/><path d="M296.5,543.6992 L296.2224,543.6992 L296.2569,545.6992 L296.1838,547.6992 L296.1791,549.6992 L296.2625,551.6992 L296.5,553.6992 " fill="#FBFB77" style="stroke: #A80036; stroke-width: 1.0;"/><path d="M306.5,553.6992 L306.5,553.9666 L304.5,554.0276 L302.5,553.3669 L300.5,553.9524 L298.5,553.5136 L296.5,553.6992 " fill="#FBFB77" style="stroke: #A80036; stroke-width: 1.0;"/><text fill="#000000" font-family="sans-serif" font-size="13" lengthAdjust="spacingAndGlyphs" textLength="169" x="122.5" y="561.2676">削除した場合はゴミ箱に入る</text><path d="M232.58,350.2892 L232.715,350.5202 L235.8866,352.2038 L239.0823,353.9286 L242.6239,356.2453 L245.8967,358.102 L249.1911,359.9956 L249.206,360.0218 L253.19,362.1504 L257.5473,364.9342 L261.445,366.9114 L265.7652,369.6302 L269.7069,371.6845 L269.7812,371.8188 L274.5499,374.4806 L279.0732,376.6987 L284.009,379.6624 L288.8475,382.4505 L293.4523,384.8158 L293.328,384.5827 L298.8027,387.7917 L304.0378,390.5517 L309.1247,393.0339 L314.39,395.8506 L319.7525,398.8492 L319.6226,398.5979 L322.5587,400.3382 L325.1605,401.432 L328.1883,403.3495 L330.8309,404.5221 L333.6496,406.0354 L333.6524,406.0409 L336.3835,407.2342 L339.4449,409.0819 L342.1012,410.127 L345.2101,412.0688 L347.9323,413.2445 L348.0507,413.4855 L350.8379,414.6546 L353.8197,416.2199 L356.6378,417.4518 L359.5969,418.971 L362.5162,420.409 L362.5157,420.408 L365.5065,421.8828 L368.3386,423.0245 L371.4104,424.6695 L374.281,425.8919 L377.3169,427.4614 L377.3897,427.6197 L380.3872,429.0179 L383.4209,430.4946 L386.2289,431.4812 L389.3312,433.1071 L392.25,434.3342 L392.3407,434.5392 L395.1846,435.52 L398.2892,437.0901 L401.2471,438.3286 L404.2335,439.6315 L407.2311,440.9597 L407.2294,440.9557 L410.1437,442.0412 L413.2699,443.6282 L416.2687,444.9137 L419.1754,445.9811 L422.1759,447.2706 L422.2621,447.4861 L425.2505,448.7309 L428.1458,449.7428 L431.0636,450.811 L434.0247,451.9873 L437,453.1992 L437.0128,453.2342 L440.5193,454.5283 L444.0627,455.9234 L447.5851,457.261 L451.0508,458.4427 L454.4961,459.5684 L454.5705,459.7972 L458.0229,460.4864 L461.66,461.7436 L465.4131,463.3573 L469.0317,464.5577 L472.5463,465.438 L472.6073,465.6446 L476.0852,466.2529 L479.7746,467.5771 L483.4107,468.721 L487.0095,469.7386 L490.6133,470.7731 L490.5475,470.531 L494.0458,471.4434 L497.5627,472.4246 L501.1378,473.62 L504.7256,474.862 L508.16,475.5392 " fill="none" style="stroke: #A80036; stroke-width: 1.0;"/><polygon fill="#A80036" points="513.29,476.8592,513.2988,476.8704,511.7795,475.68,510.1971,474.4099,508.5163,473.0155,507.1455,472.0129,505.5668,470.7475,505.7136,470.8343,506.146,471.7232,506.6382,472.6473,507.2855,473.6633,507.8377,474.6229,508.4469,475.6163,508.5388,475.7715,507.5839,476.3795,506.5458,476.8467,505.5311,477.3536,504.4569,477.7597,503.5782,478.4964,503.5682,478.4375,505.4827,477.9446,507.4457,477.7393,509.4466,477.7595,511.3751,477.3493,513.29,476.8592" style="stroke: #A80036; stroke-width: 1.0;"/><path d="M232.79,315.8392 L232.9883,316.0294 L236.0002,312.5724 L239.1153,309.2144 L242.3184,305.9408 L245.2567,302.4133 L248.6366,299.3091 L248.5127,299.1865 L250.529,297.4392 L252.4157,295.5636 L254.0364,293.4248 L256.1169,291.7411 L257.9946,289.8566 L257.9316,289.7927 L259.9041,287.6997 L262.147,285.8808 L264.0561,283.7235 L266.2421,281.847 L268.2275,279.767 L268.0054,279.5358 L270.3816,277.5874 L272.5846,275.4587 L274.9305,273.4787 L277.2619,271.4836 L279.2742,269.1563 L279.2147,269.0926 L281.549,266.862 L283.949,264.7019 L286.3467,262.5393 L288.5339,260.1511 L291.0734,258.1404 L291.1219,258.194 L293.4258,255.7183 L296.0975,253.6491 L298.7144,251.5193 L301.0991,249.1328 L303.5641,246.8352 L303.6786,246.9661 L306.3943,244.7751 L308.7542,242.1773 L311.3088,239.802 L314.2375,237.8544 L316.685,235.3567 L316.8189,235.5156 L319.4609,233.0945 L322.0824,230.6491 L325.1019,228.676 L327.5406,226.0136 L330.375,223.8208 L330.4199,223.8764 L333.2526,221.5723 L335.882,219.0169 L338.763,216.7727 L341.7929,214.7126 L344.5728,212.3433 L344.5257,212.2823 L347.49,210.0676 L350.2453,207.582 L353.3505,205.5498 L356.1971,203.1826 L359.2174,201.0403 L359.1483,200.946 L362.1403,198.7244 L365.0858,196.4392 L368.0594,194.1924 L371.0507,191.9698 L374.2475,190.0277 L374.2132,189.978 L377.2831,187.8552 L380.412,185.818 L383.5397,183.7789 L386.7002,181.7874 L389.602,179.4213 L389.5817,179.3899 L392.8418,177.5846 L395.6862,175.1354 L399.0544,173.4975 L402.1358,171.4153 L405.2197,169.3371 L405.0833,169.1087 L408.4939,167.6326 L411.5806,165.6141 L414.6307,163.5343 L418.0325,162.0434 L421.0394,159.8911 L421.1646,160.121 L424.2656,158.2153 L427.2996,156.1866 L430.4773,154.4218 L433.9603,153.2175 L437,151.1992 L437.1308,151.4794 L439.9758,149.5464 L443.1126,148.2385 L446.1276,146.6696 L449.2258,145.2789 L452.3844,144.0177 L452.2846,143.7592 L455.5474,142.6133 L458.7219,141.2388 L462.1517,140.5256 L465.316,139.1247 L468.5075,137.7942 L468.595,138.064 L471.7594,136.6357 L475.0745,135.6718 L478.3688,134.6437 L481.5899,133.3902 L484.9194,132.4708 L484.9615,132.6236 L488.2411,131.8342 L491.3397,130.3883 L494.695,129.8735 L497.8341,128.5746 L501.17,127.9892 " fill="none" style="stroke: #A80036; stroke-width: 1.0;"/><polygon fill="#A80036" points="506.27,126.7292,506.227,126.4874,504.3191,126.3195,502.4248,126.2274,500.439,125.6214,498.5461,125.5374,496.5733,125.0046,496.5411,124.9512,497.6487,125.7663,498.4379,126.0541,499.3742,126.5855,500.4988,127.4288,501.4159,127.9285,501.5538,128.0117,500.6468,128.7857,500.3995,129.9579,499.8628,130.9555,499.2393,131.9007,498.4921,132.7711,498.5184,132.8049,499.9065,131.381,501.7207,130.5055,503.2633,129.2805,504.7004,127.9195,506.27,126.7292" style="stroke: #A80036; stroke-width: 1.0;"/><path d="M232.61,326.3492 L232.7303,326.5593 L235.7875,324.1838 L239.393,322.7661 L242.5861,320.628 L245.8559,318.6238 L249.244,316.8263 L249.1329,316.6273 L253.4834,314.7687 L257.5898,312.4728 L261.519,309.8597 L265.836,307.9409 L269.7814,305.3569 L269.6821,305.1737 L274.5152,302.7447 L279.3556,300.329 L284.0086,297.5677 L288.807,295.0745 L293.544,292.4683 L293.6606,292.6909 L298.8314,289.7608 L303.9628,286.7554 L309.3513,284.241 L314.5316,281.3291 L319.8538,278.688 L319.8567,278.6938 L322.5876,277.1859 L325.5601,276.1538 L328.1644,274.3967 L331.1216,273.3342 L333.7518,271.6283 L333.7615,271.6479 L336.6302,270.2562 L339.5064,268.8798 L342.3313,267.3999 L345.1926,265.9933 L348.0324,264.5435 L348.013,264.5035 L350.8317,262.894 L353.8643,261.7271 L356.7994,260.3587 L359.6817,258.8809 L362.6106,257.4995 L362.5765,257.4268 L365.4406,255.8387 L368.4604,254.5825 L371.5513,253.4779 L374.4884,252.0455 L377.4017,250.5622 L377.321,250.3842 L380.2493,248.9087 L383.4944,248.132 L386.3871,246.578 L389.3807,245.2465 L392.321,243.7976 L392.423,244.0315 L395.2461,242.3379 L398.3496,241.2871 L401.4128,240.1439 L404.2642,238.515 L407.2837,237.2716 L407.3354,237.3957 L410.2078,235.8832 L413.3073,234.9153 L416.2833,233.6513 L419.2508,232.3667 L422.2049,231.0502 L422.1037,230.7942 L425.1932,229.9541 L428.2027,228.9115 L431.1336,227.6702 L434.1009,226.5209 L437,225.1992 L437.1077,225.4979 L440.4294,223.6298 L444.1453,222.8547 L447.6795,221.5758 L451.1439,220.1034 L454.6777,218.8233 L454.7586,219.074 L458.2784,217.5083 L461.8803,216.1967 L465.5845,215.202 L469.1944,213.9153 L472.9038,212.9367 L472.9434,213.0716 L476.491,211.6694 L480.2046,210.8314 L483.7522,209.4291 L487.4532,208.5487 L491.128,207.5789 L491.0437,207.268 L494.6106,206.43 L498.1964,205.6616 L501.7825,204.8945 L505.2152,203.5613 L508.8,202.7892 " fill="none" style="stroke: #A80036; stroke-width: 1.0;"/><polygon fill="#A80036" points="513.65,201.5392,513.658,201.5867,511.7288,201.3406,509.8029,201.1143,507.7855,200.3425,505.8604,200.1208,503.937,199.9089,503.9459,199.924,504.8236,200.336,505.7723,200.8681,506.7749,201.4916,507.7609,202.087,508.8078,202.7856,508.868,202.8211,508.2156,203.7498,507.6283,204.7168,507.0764,205.7048,506.5801,206.7257,505.9312,207.6564,505.7909,207.4794,507.3198,206.2371,508.9991,205.1848,510.5844,204.0137,512.1497,202.8175,513.65,201.5392" style="stroke: #A80036; stroke-width: 1.0;"/><path d="M232.5,360.3192 L232.6464,360.459 L235.8404,363.8005 L238.98,367.0901 L241.794,370.0686 L245.2175,373.6293 L248.3135,376.8772 L248.0762,376.6432 L250.3985,378.9858 L252.1143,380.7306 L254.0234,382.6658 L255.7228,384.3944 L257.6659,386.3631 L257.8777,386.577 L259.6489,388.3257 L261.801,390.459 L263.9868,392.6263 L265.6715,394.2877 L267.8998,396.498 L267.8086,396.4034 L270.2374,398.7628 L272.2088,400.6481 L274.5986,402.967 L276.8126,405.1038 L278.9536,407.1648 L278.7623,406.961 L281.5277,409.6069 L283.8968,411.8306 L286.16,413.9413 L288.211,415.8259 L290.7653,418.2469 L290.5851,418.0487 L293.3088,420.569 L295.883,422.9248 L298.1687,424.9636 L300.6761,427.246 L303.2735,429.6273 L303.1211,429.4541 L306.0785,432.1403 L308.3368,434.0318 L310.9767,436.357 L313.6353,438.7036 L316.4163,441.1892 L316.5379,441.3328 L319.1579,443.5127 L321.7266,445.6323 L324.7097,448.2408 L327.2336,450.3074 L330.132,452.8158 L330.203,452.9031 L333.0003,455.159 L335.7999,457.4175 L338.5285,459.5889 L341.6682,462.2656 L344.3589,464.3903 L344.2548,464.2563 L347.1031,466.4255 L350.3822,469.1491 L353.3614,471.4867 L356.2155,473.6633 L359.0353,475.7958 L359.107,475.8929 L362.2078,478.2361 L365.0145,480.1807 L368.0835,482.4806 L371.1013,484.7114 L374.0995,486.9155 L373.9203,486.658 L377.0704,488.9049 L380.2678,491.2198 L383.1857,493.1331 L386.3009,495.3298 L389.4898,497.6325 L389.4187,497.5233 L392.7794,499.9155 L395.7081,501.6446 L399.0132,503.9515 L402.1626,506.0194 L405.1445,507.83 L405.104,507.763 L408.4005,509.8825 L411.5412,511.7438 L414.6433,513.541 L417.6606,515.1975 L421.0018,517.3912 L420.9553,517.3067 L424.3057,519.3422 L427.447,520.9978 L430.6477,522.7613 L433.8786,524.5797 L437,526.1992 L436.9944,526.1874 L440.2044,527.8243 L443.3368,529.297 L446.394,530.6103 L449.4641,531.9511 L452.6834,533.6077 L452.716,533.6911 L455.9576,534.8537 L459.1735,535.9505 L462.5705,537.511 L465.96,539.0523 L469.13,540.0317 L469.141,540.0651 L472.5786,541.4426 L475.8899,542.4356 L479.0803,543.0607 L482.4532,544.2411 L485.8616,545.5295 L485.8206,545.3833 L489.1597,546.4214 L492.3884,547.065 L495.8284,548.4638 L499.1322,549.3759 L502.4,550.1592 " fill="none" style="stroke: #A80036; stroke-width: 1.0;"/><polygon fill="#A80036" points="507.29,551.3992,507.4173,551.561,505.8851,550.3631,504.2739,549.0647,502.5409,547.6115,500.9566,546.3473,499.5499,545.309,499.4635,545.2575,500.2654,546.3625,500.7554,547.2819,501.1406,548.1388,502.039,549.3013,502.4435,550.1697,502.4874,550.2435,501.4896,550.7791,500.4549,551.2527,499.6488,552.1103,498.6717,552.6808,497.5827,553.0633,497.5751,553.0185,499.516,552.6828,501.4299,552.1894,503.4074,552.0668,505.357,551.7813,507.29,551.3992" style="stroke: #A80036; stroke-width: 1.0;"/><path d="M232.63,334.0092 L232.8237,334.939 L242.6952,332.5153 L252.6009,330.2558 L262.3912,327.442 L272.3664,325.5163 L282.2838,323.3127 L292.2026,321.1158 L302.0608,318.6282 L312.1929,317.4554 L322.0278,314.8558 L331.9368,312.6123 L341.8779,310.5224 L352.0904,309.7354 L361.7627,306.3556 L371.696,304.2287 L381.935,303.5688 L391.89,301.546 L401.578,298.2413 L411.6921,296.9821 L421.7356,295.3837 L431.4196,292.0602 L441.6202,291.2161 L451.245,287.6078 L461.2348,285.7523 L471.1057,283.3257 L481.3375,282.6311 L491.1693,280.017 L501.14,278.0692 " fill="none" style="stroke: #A80036; stroke-width: 1.0;"/><polygon fill="#A80036" points="506.09,277.0392,506.0979,277.0754,504.1143,276.3867,502.2511,276.2511,500.3187,275.7976,498.4024,275.4185,496.466,274.9466,496.4572,274.9331,497.4021,275.5533,498.2573,276.037,499.434,277.0101,500.3727,277.6209,501.1938,278.0527,501.1548,278.0271,500.517,278.9617,499.9518,279.9441,499.3008,280.8701,498.7376,281.8538,498.0876,282.7805,498.1348,282.8462,499.6064,281.5184,501.2341,280.4081,502.9943,279.4824,504.4572,278.1424,506.09,277.0392" style="stroke: #A80036; stroke-width: 1.0;"/><path d="M232.63,338.1992 L232.63,337.4375 L242.6856,339.1921 L252.7412,338.2318 L262.7968,337.226 L272.8524,338.3705 L282.908,338.9768 L292.9636,337.657 L303.0192,337.8918 L313.0748,338.0394 L323.1304,339.1393 L333.186,337.3382 L343.2416,337.89 L353.2972,337.5114 L363.3528,338.5686 L373.4084,338.2812 L383.464,337.9718 L393.5196,338.386 L403.5752,338.8132 L413.6308,337.2608 L423.6864,338.874 L433.742,338.8528 L443.7976,338.5543 L453.8532,338.2449 L463.9088,337.501 L473.9644,338.4926 L484.02,338.1992 " fill="none" style="stroke: #A80036; stroke-width: 1.0;"/><polygon fill="#A80036" points="489.25,338.1992,489.3424,338.4072,487.5029,337.5182,485.6573,336.6156,483.9508,336.0259,482.098,335.1071,480.25,334.1992,480.1069,334.0561,481.0838,335.033,481.7447,335.6939,482.6764,336.6257,483.2826,337.2318,484.25,338.1992,484.1095,338.0587,483.6074,339.1566,482.6783,339.8275,481.9951,340.7443,480.9926,341.3418,480.25,342.1992,480.2304,342.1551,482.0276,341.3488,483.8563,340.6133,485.5792,339.6399,487.4879,339.0846,489.25,338.1992" style="stroke: #A80036; stroke-width: 1.0;"/><path d="M232.63,342.4492 L232.587,342.2454 L242.3034,343.8125 L252.1076,345.7957 L262.1372,348.8465 L271.7838,350.0832 L281.6207,352.2208 L291.6149,355.1044 L301.5223,357.5761 L311.2101,359.0077 L321.0236,361.0348 L330.8618,363.1788 L340.5358,364.5453 L350.3208,366.4372 L360.1485,368.5319 L370.0661,371.0521 L380.0261,373.7732 L389.6201,374.7604 L399.4254,376.7487 L409.4124,379.5977 L419.3164,382.0537 L429.212,384.4695 L438.8516,385.673 L448.7677,388.186 L458.5654,390.1382 L468.2062,391.3472 L478.2951,394.6793 L488.0143,396.2594 L497.86,398.4392 " fill="none" style="stroke: #A80036; stroke-width: 1.0;"/><polygon fill="#A80036" points="502.82,399.4892,502.7141,399.3427,501.2395,398.3578,499.5054,397.0138,498.1624,396.2111,496.4345,394.8757,494.8371,393.7209,494.8851,393.7522,495.2979,394.566,496.0129,395.5769,496.7771,396.6199,497.4846,397.6259,497.9273,398.4592,497.9015,398.4196,497.0805,399.2319,496.0032,399.6512,495.095,400.3297,494.0311,400.7695,493.189,401.5493,493.1914,401.5604,495.1289,401.2012,496.9979,400.5218,498.9315,400.1445,500.9313,400.0763,502.82,399.4892" style="stroke: #A80036; stroke-width: 1.0;"/><path d="M417.22,620.2192 L417.2221,620.3267 L423.1219,620.3803 L429.013,619.9879 L434.9115,619.9761 L440.8068,619.8009 L446.7025,619.6465 L446.7035,619.695 L447.4261,619.7708 L448.1403,619.4166 L448.864,619.548 L449.5888,619.7372 L450.3068,619.5765 L450.3089,619.6864 L450.665,619.5406 L451.0274,619.726 L451.389,619.8639 L451.7366,619.2837 L452.1004,619.5416 L452.1012,619.5835 L452.2857,619.8624 L452.4529,619.2588 L452.6319,619.2579 L452.8214,619.8004 L452.995,619.5243 " fill="none" style="stroke: #A80036; stroke-width: 1.0; stroke-dasharray: 7.0,7.0;"/></g></svg>