<?xml version="1.0" encoding="UTF-8" standalone="no"?><svg xmlns="http://www.w3.org/2000/svg" xmlns:xlink="http://www.w3.org/1999/xlink" contentScriptType="application/ecmascript" contentStyleType="text/css" height="654px" preserveAspectRatio="none" style="width:701px;height:654px;" version="1.1" viewBox="0 0 701 654" width="701px" zoomAndPan="magnify"><defs><filter height="300%" id="frd4uin" width="300%" x="-1" y="-1"><feGaussianBlur result="blurOut" stdDeviation="2.0"/><feColorMatrix in="blurOut" result="blurOut2" type="matrix" values="0 0 0 0 0 0 0 0 0 0 0 0 0 0 0 0 0 0 .4 0"/><feOffset dx="4.0" dy="4.0" in="blurOut2" result="blurOut3"/><feBlend in="SourceGraphic" in2="blurOut3" mode="normal"/></filter></defs><g><text fill="#000000" font-family="sans-serif" font-size="18" lengthAdjust="spacingAndGlyphs" textLength="252" x="242" y="17.4023">ユースケース：コンテンツ管理</text><!--cluster コンテンツ管理--><polygon fill="#FFFFFF" filter="url(#frd4uin)" points="453,53.1992,453,52.4578,463.4,52.5018,473.8,52.6652,484.2,53.9386,494.6,53.103,505,53.0381,515.4,53.8833,525.8,53.1041,536.2,53.0889,546.6,53.1951,557,53.1992,556.7901,53.1339,558.2347,57.6454,559.6889,62.1599,561.005,66.6315,562.3781,71.1208,564,75.6875,564,75.7355,574,75.1356,584,76.0275,594,75.5342,604,76.2632,614,75.9351,624,76.4235,634,75.1247,644,76.4268,654,75.5701,664,75.8102,674,75.9033,684,75.2083,694,75.6875,694.2655,75.6875,693.3395,85.6786,694.2946,95.6697,694.3465,105.6609,694.3423,115.652,694.593,125.6431,693.4517,135.6342,693.5959,145.6254,693.6621,155.6165,694.4923,165.6076,694.3232,175.5987,693.5203,185.5898,694.384,195.581,694.0258,205.5721,693.7078,215.5632,693.4661,225.5543,694.2619,235.5455,693.3208,245.5366,694.138,255.5277,694.2888,265.5188,694.6249,275.5099,693.2766,285.5011,693.9186,295.4922,693.9763,305.4833,694.6206,315.4744,694.3042,325.4656,693.9055,335.4567,693.2761,345.4478,693.4992,355.4389,693.4371,365.43,694.3756,375.4212,694.5327,385.4123,693.4943,395.4034,694.499,405.3945,694.4392,415.3857,694.0002,425.3768,693.4012,435.3679,694.3287,445.359,693.5613,455.3501,694.0871,465.3413,693.2594,475.3324,693.766,485.3235,694.3825,495.3146,693.83,505.3058,694.6248,515.2969,694.6942,525.288,694.1821,535.2791,693.3678,545.2702,694.2537,555.2614,694.424,565.2525,693.4813,575.2436,693.8067,585.2347,694.1298,595.2259,694.5747,605.217,694.4626,615.2081,694,625.1992,694,625.8232,683.9583,625.8332,673.9167,625.5772,663.875,624.7731,653.8333,624.8582,643.7917,624.9955,633.75,625.1827,623.7083,625.5919,613.6667,624.4754,603.625,624.6707,593.5833,625.0959,583.5417,625.7475,573.5,625.1681,563.4583,625.1468,553.4167,624.8111,543.375,624.9398,533.3333,625.6904,523.2917,625.6302,513.25,625.0374,503.2083,625.3449,493.1667,625.2652,483.125,625.2517,473.0833,625.1289,463.0417,625.471,453,625.1992,453.3227,625.1992,452.5028,615.1641,453.246,605.129,453.1113,595.094,452.3564,585.0589,452.6372,575.0238,453.6655,564.9887,453.2387,554.9536,452.6866,544.9185,452.8857,534.8834,453.3674,524.8483,452.8196,514.8133,453.4173,504.7782,452.5681,494.7431,452.2798,484.708,453.3292,474.6729,453.5625,464.6378,453.7394,454.6027,452.2639,444.5676,453.1257,434.5326,452.8101,424.4975,453.4864,414.4624,453.1648,404.4273,452.3901,394.3922,452.4392,384.3571,453.6536,374.322,453.317,364.2869,452.3201,354.2519,453.1943,344.2168,452.3035,334.1817,452.4344,324.1466,452.8642,314.1115,453.1477,304.0764,452.3035,294.0413,453.0489,284.0062,453.1892,273.9711,453.4457,263.9361,452.291,253.901,452.79,243.8659,453.505,233.8308,453.3476,223.7957,452.8879,213.7606,452.8104,203.7255,453.3071,193.6904,452.6097,183.6554,452.4222,173.6203,453.0729,163.5852,453.0596,153.5501,453.0612,143.515,452.5707,133.4799,453.5076,123.4448,453.3122,113.4097,453.6451,103.3747,453.2497,93.3396,452.7402,83.3045,453.7329,73.2694,452.2714,63.2343,453,53.1992" style="stroke: #000000; stroke-width: 2.0;"/><path d="M453,75.6875 L453,75.3826 L463.0909,75.9105 L473.1818,75.7474 L483.2727,75.0709 L493.3636,75.989 L503.4545,75.1887 L513.5455,75.5194 L523.6364,76.6572 L533.7273,76.053 L543.8182,76.0402 L553.9091,75.7519 L564,75.6875 " fill="#FFFFFF" style="stroke: #000000; stroke-width: 2.0;"/><text fill="#000000" font-family="sans-serif" font-size="14" font-weight="bold" lengthAdjust="spacingAndGlyphs" textLength="98" x="457" y="68.7344">コンテンツ管理</text><polygon fill="#FEFECE" filter="url(#frd4uin)" points="655.8363,493.2065,654.9665,496.6496,649.9755,499.4553,642.0004,501.7862,631.672,503.6843,624.923,506.4003,613.4116,507.9232,599.6339,508.7212,586.8928,509.4518,575.1773,510.0228,560.9114,509.5371,546.6214,508.5036,536.0554,507.7239,524.3633,506.0495,513.6546,503.9378,503.9312,501.3809,500.0864,499.5053,493.4942,496.3645,489.06,493.1197,489.9334,490.5453,490.4973,487.4263,493.0711,484.3725,500.3402,482.0874,506.6559,479.3772,515.2493,477.0827,525.2975,475.1206,535.035,473.1923,548.7893,472.389,560.5,471.423,573.984,471.2561,586.7384,471.3964,600.6441,472.3421,612.9167,473.5117,624.6639,475.1988,634.1607,477.0336,642.4758,479.2686,647.8675,481.4977,652.6961,484.2355,657.1467,487.4841,658.7572,490.626" style="stroke: #A80036; stroke-width: 1.5;"/><text fill="#000000" font-family="sans-serif" font-size="14" lengthAdjust="spacingAndGlyphs" textLength="140" x="503.7351" y="495.1904">コンテンツを検索する</text><polygon fill="#FEFECE" filter="url(#frd4uin)" points="656.0132,118.2469,652.7917,121.1527,650.0657,124.4759,642.2052,126.833,632.2015,128.8053,624.1329,131.2198,611.134,132.4028,598.6495,133.4963,585.7488,134.1904,574.1833,134.7957,560.6409,134.4753,548.6408,133.9651,534.3608,132.3367,525.2761,131.2581,515.1697,129.2839,504.9448,126.6125,498.587,124.1627,493.5995,121.3886,489.7672,118.2812,487.9026,115.0813,490.0336,112.3203,493.3176,109.4289,499.507,106.897,505.7744,104.1758,515.4976,102.1395,522.5839,99.5006,536.0958,98.4347,546.1258,96.7804,559.1054,96.1043,573.6349,96.1763,587.3738,96.5416,599.6954,97.1253,611.833,98.2641,622.6245,99.7328,634.8713,102.1959,641.2934,103.9985,648.2962,106.5956,654.1748,109.5734,655.8173,112.1804,657.4006,115.3161" style="stroke: #A80036; stroke-width: 1.5;"/><text fill="#000000" font-family="sans-serif" font-size="14" lengthAdjust="spacingAndGlyphs" textLength="140" x="503.7351" y="120.1904">コンテンツを作成する</text><polygon fill="#FEFECE" filter="url(#frd4uin)" points="655.4035,191.1076,653.7281,194.3666,648.3051,197.0736,641.4151,199.6525,631.9881,201.7566,623.0761,203.9783,612.2193,205.6508,598.4968,206.4614,586.9757,207.4708,572.5602,207.4248,560.5417,207.4526,547.4883,206.7017,534.4092,205.3478,524.6816,204.1222,513.3492,201.868,506.0147,199.857,498.072,197.045,494.0099,194.4824,491.0309,191.57,489.1624,188.3691,491.4081,185.6344,493.2929,182.4232,497.0712,179.3404,506.7706,177.4035,514.7549,174.9697,524.9504,173.0413,535.7114,171.3469,547.2804,170.0442,562.1463,169.7991,574.141,169.292,586.5656,169.3569,600.9634,170.415,612.7781,171.4801,622.5605,172.7181,632.406,174.6327,643.296,177.456,648.8098,179.713,655.0873,182.7819,658.2278,185.7312,659.5213,188.8007" style="stroke: #A80036; stroke-width: 1.5;"/><text fill="#000000" font-family="sans-serif" font-size="14" lengthAdjust="spacingAndGlyphs" textLength="140" x="503.7351" y="193.1904">コンテンツを編集する</text><polygon fill="#FEFECE" filter="url(#frd4uin)" points="656.3216,566.3174,652.9116,569.1801,650.1472,572.4945,641.4608,574.663,633.6857,577.1445,623.5799,579.0934,610.929,580.356,600.4269,581.9025,585.2696,582.0809,574.6013,582.8912,559.1017,582.1236,547.0804,581.6085,536.9664,580.9321,524.8524,579.1612,514.8926,577.2206,504.1543,574.4319,500.0145,572.4889,492.4558,569.1273,490.0929,566.3557,488.9499,563.3206,491.8516,560.7357,494.8282,557.774,499.9533,554.999,503.9228,551.7528,512.8783,549.541,524.6149,547.9646,535.6071,546.323,548.1621,545.2457,560.949,544.5255,574.6706,544.413,585.4157,544.0942,601.2962,545.491,610.3054,545.915,621.6399,547.5078,634.4094,550.0904,640.4298,551.8011,649.5438,554.8807,654.9256,557.7449,655.9147,560.2026,656.8108,563.1813" style="stroke: #A80036; stroke-width: 1.5;"/><text fill="#000000" font-family="sans-serif" font-size="14" lengthAdjust="spacingAndGlyphs" textLength="140" x="503.7351" y="568.1904">コンテンツを削除する</text><polygon fill="#FEFECE" filter="url(#frd4uin)" points="662.8044,266.4229,657.6441,269.1266,654.4427,272.5976,647.0495,275.3392,636.5432,277.487,627.4499,279.9549,614.051,281.3358,603.005,283.0295,587.3778,283.3617,573.773,283.7332,558.5531,283.2348,546.6405,282.909,530.5838,281.0093,518.6258,279.3604,508.0362,277.3175,499.5144,275.0304,494.3398,272.7976,488.2859,269.6878,485.4797,266.6788,483.3282,263.2414,482.5283,259.6063,485.8204,256.4794,492.4244,253.7793,501.4674,251.4115,510.9073,249.0221,519.3286,246.4019,533.948,245.2975,546.1905,243.8749,559.417,242.9988,574.7709,243.0236,588.9488,243.2859,599.5953,243.3248,615.9441,245.2907,624.6364,246.1997,637.8637,248.8402,646.8417,251.2307,654.0042,253.9138,659.4958,256.8963,662.1523,259.8714,664.794,263.4198" style="stroke: #A80036; stroke-width: 1.5;"/><text fill="#000000" font-family="sans-serif" font-size="14" lengthAdjust="spacingAndGlyphs" textLength="154" x="496.3393" y="267.9112">コンテンツをコピーする</text><polygon fill="#FEFECE" filter="url(#frd4uin)" points="655.6798,341.1708,653.6706,344.3535,647.4512,346.8785,640.9391,349.5437,633.3271,352.0625,622.2103,353.7805,611.2509,355.4295,598.3744,356.4335,585.4441,357.1208,574.5144,357.8713,562.1025,357.8093,546.9247,356.573,534.9199,355.4645,522.8333,353.6999,514.5187,352.1352,505.0559,349.6379,497.658,346.9504,494.3269,344.5548,490.1824,341.3761,490.4676,338.6673,492.1712,335.8087,494.1037,332.6085,499.3562,329.8625,504.7549,326.9429,513.992,324.7954,524.3242,322.8982,534.6899,321.1135,548.2335,320.262,560.2001,319.3544,573.1281,319.0605,586.9698,319.4493,598.7834,319.9169,611.1098,321.0989,623.8332,323.0089,634.633,325.1415,641.8659,327.1293,647.8194,329.4867,653.0691,332.3207,657.6887,335.608,657.7739,338.4014" style="stroke: #A80036; stroke-width: 1.5;"/><text fill="#000000" font-family="sans-serif" font-size="14" lengthAdjust="spacingAndGlyphs" textLength="140" x="503.7351" y="343.1904">コンテンツを公開する</text><polygon fill="#FEFECE" filter="url(#frd4uin)" points="668.2256,417.6471,665.7521,421.1995,659.9448,424.3456,650.9584,427.0105,641.9944,429.7987,629.702,431.8385,617.8233,433.853,604.8705,435.3924,590.065,436.1719,572.8871,435.9735,557.0519,435.5423,544.2232,435.1755,530.7401,433.9878,516.7666,431.9707,506.1738,429.967,493.6526,426.7735,489.3626,424.684,482.9153,421.3903,477.0486,417.5534,475.3231,414.036,476.5806,410.6546,483.3134,408.0599,488.2603,404.7204,495.6793,401.7031,504.9449,398.9827,517.4115,396.9821,529.1971,394.9466,543.8353,393.7862,557.9797,392.858,572.8346,392.5341,588.6736,392.9661,602.3142,393.5155,615.7417,394.6907,630.9543,396.9864,639.944,398.6297,651.7605,401.6647,659.3769,404.5022,664.2243,407.4361,668.5959,410.9368,669.8563,414.3497" style="stroke: #A80036; stroke-width: 1.5;"/><text fill="#000000" font-family="sans-serif" font-size="14" lengthAdjust="spacingAndGlyphs" textLength="168" x="489.5689" y="419.1571">コンテンツを非公開にする</text><!--entity 作成者--><polygon fill="#FEFECE" filter="url(#frd4uin)" points="218.9663,309.1381,217.9185,311.0296,216.1292,312.76,214.9943,314.1167,212.9077,314.3603,210.3746,314.6139,207.8854,313.5697,206.2199,312.7053,204.7046,311.6986,203.879,309.0769,203.3599,306.9022,203.7621,305.0437,204.5306,303.1192,205.8191,301.633,207.5836,300.2531,209.0035,298.8743,210.8584,298.324,212.9712,298.9621,214.3622,299.3369,216.7857,300.5776,217.8715,302.7056,219.3895,303.9417,219.0309,305.9961,219.5963,307.9089" style="stroke: #A80036; stroke-width: 2.0;"/><path d="M211.5,314.6992 L211.6972,314.6992 L211.6966,320.0992 L211.9758,325.4992 L211.4775,330.8992 L210.8385,336.2992 L211.5,341.6992 M198.5,322.6992 L198.5,322.81 L203.7,322.2501 L208.9,322.3282 L214.1,322.0968 L219.3,322.0953 L224.5,322.6992 M211.5,341.6992 L211.0282,341.2904 L209.1655,344.9294 L206.4048,347.7901 L203.5886,350.6027 L200.9885,353.6025 L198.5,356.6992 M211.5,341.6992 L211.3867,341.601 L213.846,344.4791 L216.5682,347.585 L219.7004,351.0462 L221.5683,353.4117 L224.5,356.6992 " fill="#FEFECE" style="stroke: #A80036; stroke-width: 2.0;"/><text fill="#000000" font-family="sans-serif" font-size="14" lengthAdjust="spacingAndGlyphs" textLength="42" x="190.5" y="377.2344">作成者</text><polygon fill="#FBFB77" filter="url(#frd4uin)" points="6,603.6992,5.9012,603.6992,6.023,611.8234,6.1886,619.9477,6.0951,628.0719,6.1559,636.1961,6,644.3203,6,644.7927,16.0244,643.9371,26.0488,644.3742,36.0732,643.7787,46.0976,643.9924,56.122,644.8614,66.1463,643.7588,76.1707,643.9421,86.1951,644.4606,96.2195,644.024,106.2439,643.9933,116.2683,643.9754,126.2927,644.5075,136.3171,643.9588,146.3415,644.0946,156.3659,644.4195,166.3902,643.5786,176.4146,644.3985,186.439,644.0045,196.4634,643.8887,206.4878,644.2626,216.5122,643.8141,226.5366,643.8533,236.561,644.5417,246.5854,643.8968,256.6098,644.5072,266.6341,645.028,276.6585,643.7493,286.6829,644.8684,296.7073,644.6582,306.7317,644.7568,316.7561,644.4075,326.7805,643.6974,336.8049,644.4853,346.8293,644.4765,356.8537,644.4784,366.878,644.2255,376.9024,643.8082,386.9268,644.8173,396.9512,644.6139,406.9756,643.7563,417,644.3203,417.1748,644.3203,417.0989,638.1961,416.9377,632.0719,416.8136,625.9477,416.8892,619.8234,417,613.6992,417.1559,613.8551,414.9672,611.6664,412.9991,609.6984,410.8365,607.5358,409.1642,605.8634,407,603.6992,407,603.9612,396.975,604.1208,386.95,604.1549,376.925,603.3672,366.9,603.6397,356.875,603.8619,346.85,603.2547,336.825,603.191,326.8,603.4263,316.775,603.5104,306.75,603.4831,296.725,604.3171,286.7,603.7141,276.675,603.9465,266.65,604.3042,256.625,604.2426,246.6,604.17,236.575,603.9712,226.55,604.2362,216.525,603.5877,206.5,603.6131,196.475,603.4294,186.45,603.9837,176.425,604.3699,166.4,604.2086,156.375,604.2262,146.35,604.125,136.325,604.3393,126.3,603.3065,116.275,603.3107,106.25,603.9823,96.225,603.4745,86.2,603.0768,76.175,603.1308,66.15,603.6322,56.125,603.4921,46.1,604.0505,36.075,603.2683,26.05,604.233,16.025,603.4961,6,603.6992" style="stroke: #A80036; stroke-width: 1.0;"/><path d="M407,603.6992 L406.815,603.6992 L407.0995,605.6992 L406.8915,607.6992 L407.2118,609.6992 L406.9532,611.6992 L407,613.6992 " fill="#FBFB77" style="stroke: #A80036; stroke-width: 1.0;"/><path d="M417,613.6992 L417,613.4552 L415,613.5222 L413,613.7276 L411,613.7103 L409,613.4988 L407,613.6992 " fill="#FBFB77" style="stroke: #A80036; stroke-width: 1.0;"/><text fill="#000000" font-family="sans-serif" font-size="13" lengthAdjust="spacingAndGlyphs" textLength="390" x="12" y="621.2676">「コンテンツ」はフォルダ、固定ページ、リンク、エイリアスなど</text><text fill="#000000" font-family="sans-serif" font-size="13" lengthAdjust="spacingAndGlyphs" textLength="234" x="12" y="636.5781">複数の種類のコンテンツを対象とする。</text><polygon fill="#FBFB77" filter="url(#frd4uin)" points="116.5,543.6992,116.2646,543.6992,116.3598,548.7613,116.3583,553.8234,116.2541,558.8855,116.3967,563.9477,116.5,569.0098,116.5,569.7378,126.5,568.7614,136.5,568.4907,146.5,568.8666,156.5,569.1589,166.5,569.268,176.5,569.4402,186.5,568.5086,196.5,569.1101,206.5,569.1144,216.5,568.3916,226.5,568.3991,236.5,569.5302,246.5,568.7157,256.5,569.266,266.5,568.8074,276.5,568.8327,286.5,569.3704,296.5,569.5868,306.5,569.0098,306.3795,569.0098,306.5582,565.9477,306.6896,562.8855,306.3609,559.8234,306.3998,556.7613,306.5,553.6992,306.4873,553.6865,304.4197,551.619,302.3668,549.566,300.4557,547.6549,298.6075,545.8068,296.5,543.6992,296.5,544.0428,286.5,543.5417,276.5,543.9461,266.5,543.7968,256.5,543.301,246.5,543.2753,236.5,543.6003,226.5,544.0962,216.5,543.9412,206.5,543.4646,196.5,543.7447,186.5,543.7563,176.5,543.7359,166.5,543.7556,156.5,544.1646,146.5,543.2274,136.5,544.2568,126.5,543.8533,116.5,543.6992" style="stroke: #A80036; stroke-width: 1.0;"/><polygon fill="#FBFB77" points="116.5,543.6992,116.6028,543.6992,116.5601,548.7613,116.394,553.8234,116.4979,558.8855,116.6025,563.9477,116.5,569.0098,116.5,568.6898,126.5,569.7408,136.5,568.2717,146.5,569.3062,156.5,569.2405,166.5,568.3527,176.5,568.7467,186.5,569.5919,196.5,569.4056,206.5,568.4559,216.5,568.9409,226.5,568.7738,236.5,568.3245,246.5,569.6343,256.5,568.303,266.5,568.5244,276.5,569.2234,286.5,569.2213,296.5,568.7833,306.5,569.0098,306.7172,569.0098,306.743,567.6137,306.5508,566.2175,306.6216,564.8214,306.6765,563.4253,306.5,562.0292,306.5017,562.7208,316.6768,562.5123,326.8506,561.7839,337.0264,561.8365,347.2014,561.5949,357.3776,561.8537,367.5532,561.8437,377.7306,562.5691,387.9061,562.5129,398.0817,562.5129,408.2569,562.3398,418.4329,562.502,428.6074,562.0592,438.7827,561.9274,448.9594,562.3726,459.1325,561.3072,469.3076,561.0997,479.4834,561.1904,489.66,561.5892,489.6328,560.9312,479.4631,560.6532,469.336,561.4068,459.1524,560.7919,448.9336,559.3243,438.754,558.8045,428.6078,559.097,418.4264,558.5341,408.2738,558.6709,398.0529,557.1525,387.8844,556.9043,377.7257,556.8913,367.5417,556.2671,357.3718,555.9841,347.2163,556.0512,337.0504,555.8651,326.8562,554.9917,316.6909,554.8215,306.5,554.0292,306.3835,554.0292,306.4889,553.9632,306.4955,553.8972,306.5259,553.8312,306.7062,553.7652,306.5,553.6992,306.4626,553.6618,304.3874,551.5866,302.5139,549.7131,300.6594,547.8586,298.5614,545.7606,296.5,543.6992,296.5,544.0709,286.5,543.0292,276.5,543.9235,266.5,543.5309,256.5,544.2676,246.5,544.0342,236.5,543.3104,226.5,543.237,216.5,544.4425,206.5,543.5486,196.5,543.1684,186.5,544.2089,176.5,543.3971,166.5,543.4272,156.5,543.5705,146.5,543.2367,136.5,544.2259,126.5,543.1187,116.5,543.6992" style="stroke: #A80036; stroke-width: 1.0;"/><path d="M296.5,543.6992 L296.5674,543.6992 L296.367,545.6992 L296.4097,547.6992 L296.5019,549.6992 L296.7786,551.6992 L296.5,553.6992 " fill="#FBFB77" style="stroke: #A80036; stroke-width: 1.0;"/><path d="M306.5,553.6992 L306.5,553.5782 L304.5,553.8681 L302.5,553.5875 L300.5,553.6404 L298.5,553.5027 L296.5,553.6992 " fill="#FBFB77" style="stroke: #A80036; stroke-width: 1.0;"/><text fill="#000000" font-family="sans-serif" font-size="13" lengthAdjust="spacingAndGlyphs" textLength="169" x="122.5" y="561.2676">削除した場合はゴミ箱に入る</text><path d="M232.58,350.2892 L232.6677,350.4393 L235.7441,351.9599 L239.1333,354.0158 L242.5675,356.1486 L245.7141,357.7894 L249.1911,359.9956 L249.2178,360.0424 L253.34,362.4137 L257.3464,364.5817 L261.664,367.2958 L265.6729,369.4681 L269.7069,371.6845 L269.6957,371.6643 L274.5359,374.4554 L279.1938,376.9166 L283.8451,379.3661 L288.8312,382.421 L293.4523,384.8158 L293.3383,384.6021 L298.8468,387.8744 L304.0581,390.5897 L309.1659,393.1112 L314.5487,396.148 L319.7525,398.8492 L319.718,398.7825 L322.498,400.2209 L325.3397,401.7784 L327.9591,402.9063 L330.8287,404.5179 L333.6496,406.0354 L333.7096,406.1541 L336.4728,407.4111 L339.4183,409.029 L342.2513,410.4242 L345.1031,411.8568 L347.9323,413.2445 L347.8362,413.0488 L350.8453,414.6696 L353.6389,415.8519 L356.779,417.7392 L359.6308,419.04 L362.5162,420.409 L362.3981,420.1612 L365.5003,421.8697 L368.4639,423.2875 L371.4846,424.825 L374.3739,426.0869 L377.3169,427.4614 L377.2629,427.3441 L380.3943,429.0333 L383.28,430.1884 L386.3771,431.8031 L389.2688,432.9716 L392.25,434.3342 L392.154,434.1171 L395.2898,435.7578 L398.139,436.7505 L401.3127,438.477 L404.3281,439.8454 L407.2311,440.9597 L407.274,441.0614 L410.2107,442.1997 L413.217,443.503 L416.1792,444.7018 L419.2394,446.1327 L422.1759,447.2706 L422.225,447.3934 L425.1436,448.4634 L428.2129,449.9105 L431.1598,451.0513 L434.0742,452.1112 L437,453.1992 L437.0891,453.4439 L440.5457,454.6007 L444.0372,455.8534 L447.608,457.324 L450.9183,458.0788 L454.4961,459.5684 L454.3978,459.2661 L458.1472,460.8687 L461.7704,462.083 L465.2394,462.8233 L468.9744,464.3814 L472.5463,465.438 L472.5775,465.5437 L476.1537,466.4848 L479.8021,467.6705 L483.4023,468.6928 L487.0904,470.0126 L490.6133,470.7731 L490.6418,470.878 L494.0551,471.4778 L497.5713,472.4563 L501.142,473.6353 L504.5691,474.2857 L508.16,475.5392 " fill="none" style="stroke: #A80036; stroke-width: 1.0;"/><polygon fill="#A80036" points="513.29,476.8592,513.2202,476.771,511.8234,475.7355,510.1817,474.3905,508.669,473.2085,507.0787,471.9285,505.5668,470.7475,505.7805,470.8739,506.2537,471.7869,506.846,472.7702,507.3079,473.6765,507.8749,474.6449,508.4469,475.6163,508.4388,475.6026,507.3779,476.0312,506.3832,476.5719,505.5565,477.3966,504.464,477.7717,503.5782,478.4964,503.5674,478.4323,505.5092,478.1017,507.4423,477.7192,509.4301,477.6615,511.3842,477.4037,513.29,476.8592" style="stroke: #A80036; stroke-width: 1.0;"/><path d="M232.79,315.8392 L232.7748,315.8247 L235.9267,312.502 L239.2505,309.344 L242.2668,305.8913 L245.5685,302.7122 L248.6366,299.3091 L248.7783,299.4494 L250.7244,297.6327 L252.542,295.6887 L254.3142,293.6998 L256.2829,291.9054 L257.9946,289.8566 L257.788,289.6471 L259.917,287.7128 L261.9873,285.7189 L264.2223,283.8921 L265.9556,281.5565 L268.2275,279.767 L268.3841,279.9301 L270.326,277.5295 L272.864,275.7495 L275.0861,273.6407 L277.021,271.2329 L279.2742,269.1563 L279.1378,269.0102 L281.5504,266.8635 L284.2115,264.9831 L286.5623,262.7702 L288.9211,260.5659 L291.0734,258.1404 L290.8895,257.9372 L293.5418,255.8465 L295.9649,253.5026 L298.6888,251.491 L300.9585,248.9775 L303.5641,246.8352 L303.6725,246.9592 L306.2669,244.6294 L309.0219,242.4832 L311.3604,239.861 L314.1046,237.7025 L316.685,235.3567 L316.666,235.3342 L319.4724,233.1082 L322.3081,230.917 L324.9406,228.4845 L327.5014,225.9671 L330.375,223.8208 L330.2172,223.6256 L333.1237,221.413 L336.1318,219.3259 L338.9176,216.9639 L341.9032,214.849 L344.5728,212.3433 L344.6859,212.4898 L347.5348,210.1256 L350.4109,207.7965 L353.5609,205.8224 L356.3372,203.3641 L359.2174,201.0403 L359.1873,200.9993 L362.0612,198.6164 L365.1769,196.5635 L368.2187,194.4099 L371.1346,192.0843 L374.2475,190.0277 L374.4119,190.2657 L377.3475,187.9485 L380.4345,185.8506 L383.4201,183.6058 L386.3448,181.2728 L389.602,179.4213 L389.5621,179.3596 L392.6234,177.2463 L395.868,175.417 L398.9207,173.2904 L402.2431,171.5815 L405.2197,169.3371 L405.1925,169.2917 L408.3628,167.4131 L411.5863,165.6236 L414.6635,163.5891 L417.9248,161.863 L421.0394,159.8911 L420.9334,159.6966 L424.3516,158.3732 L427.3518,156.2825 L430.5712,154.5942 L433.7661,152.8609 L437,151.1992 L436.9909,151.1797 L439.9501,149.4912 L443.2261,148.4816 L446.1069,146.6253 L449.3437,145.5315 L452.3844,144.0177 L452.3168,143.8425 L455.641,142.8558 L458.9223,141.7579 L462.1189,140.4406 L465.3312,139.164 L468.5075,137.7942 L468.534,137.876 L471.7501,136.6068 L475.054,135.6084 L478.3064,134.4514 L481.5782,133.3541 L484.9194,132.4708 L484.8806,132.3304 L488.1108,131.3616 L491.3522,130.4335 L494.7208,129.9668 L497.9664,129.0544 L501.17,127.9892 " fill="none" style="stroke: #A80036; stroke-width: 1.0;"/><polygon fill="#A80036" points="506.27,126.7292,506.2288,126.4977,504.3022,126.2241,502.4125,126.1586,500.4672,125.7801,498.4938,125.2435,496.5733,125.0046,496.6826,125.1856,497.5283,125.5669,498.5257,126.1995,499.4933,126.7827,500.3554,127.1913,501.4159,127.9285,501.5525,128.0109,500.7759,128.8636,500.4429,129.9841,499.7791,130.905,499.0413,131.7811,498.4921,132.7711,498.6145,132.9287,500.0516,131.5677,501.518,130.2445,503.2858,129.3094,504.8237,128.0782,506.27,126.7292" style="stroke: #A80036; stroke-width: 1.0;"/><path d="M232.61,326.3492 L232.5215,326.1947 L235.8417,324.2785 L239.1794,322.393 L242.5844,320.625 L246.0019,318.8788 L249.244,316.8263 L249.3735,317.0582 L253.4602,314.7271 L257.5318,312.369 L261.671,310.1319 L265.654,307.6152 L269.7814,305.3569 L269.9209,305.6141 L274.5606,302.8283 L279.302,300.2301 L284.0741,297.6885 L288.7762,295.0177 L293.544,292.4683 L293.4172,292.226 L298.6812,289.474 L303.9625,286.7549 L309.2708,284.0873 L314.6204,281.4986 L319.8538,278.688 L319.7359,278.456 L322.6756,277.3591 L325.3035,275.6486 L328.232,274.5298 L330.8792,272.857 L333.7518,271.6283 L333.7059,271.5356 L336.6955,270.3877 L339.4741,268.8145 L342.3577,267.4531 L345.2154,266.0393 L348.0324,264.5435 L347.9186,264.3081 L350.8539,262.9399 L353.8998,261.8006 L356.7817,260.3221 L359.643,258.8007 L362.6106,257.4995 L362.7212,257.7353 L365.573,256.1208 L368.5901,254.859 L371.5205,253.4121 L374.4465,251.956 L377.4017,250.5622 L377.4191,250.6005 L380.4842,249.4268 L383.3726,247.8634 L386.4222,246.6554 L389.3146,245.1008 L392.321,243.7976 L392.4527,244.0995 L395.3805,242.6459 L398.3908,241.3814 L401.3338,239.9628 L404.2728,238.5349 L407.2837,237.2716 L407.2463,237.182 L410.1593,235.7668 L413.182,234.6148 L416.3003,233.6921 L419.1227,232.0595 L422.2049,231.0502 L422.3072,231.309 L425.2594,230.1214 L428.0161,228.4397 L430.9876,227.3009 L434.0778,226.4625 L437,225.1992 L436.9119,224.9548 L440.6102,224.131 L444.159,222.8926 L447.545,221.203 L451.1109,220.0119 L454.6777,218.8233 L454.7399,219.0161 L458.2394,217.3875 L462.0639,216.7653 L465.5808,215.1907 L469.353,214.4065 L472.9038,212.9367 L472.9754,213.1805 L476.4763,211.6193 L480.1519,210.6521 L483.7661,209.4766 L487.4894,208.6719 L491.128,207.5789 L491.0661,207.3506 L494.6465,206.5625 L498.2576,205.8874 L501.7389,204.7336 L505.1871,203.4576 L508.8,202.7892 " fill="none" style="stroke: #A80036; stroke-width: 1.0;"/><polygon fill="#A80036" points="513.65,201.5392,513.6819,201.7295,511.7486,201.4586,509.788,201.025,507.8319,200.6186,505.8956,200.3303,503.937,199.9089,503.9417,199.9168,504.8435,200.3697,505.9441,201.1591,506.8545,201.6265,507.9212,202.3585,508.8078,202.7856,508.7969,202.7791,508.0914,203.6764,507.7464,204.7866,506.9171,205.6108,506.7184,206.8074,505.9312,207.6564,505.8107,207.5044,507.3357,206.2572,509.0759,205.2817,510.5323,203.9481,512.146,202.8128,513.65,201.5392" style="stroke: #A80036; stroke-width: 1.0;"/><path d="M232.5,360.3192 L232.582,360.3976 L235.5013,363.4767 L238.9594,367.0704 L242.2183,370.4738 L245.2298,373.6411 L248.3135,376.8772 L248.137,376.7032 L250.082,378.6738 L251.8982,380.5175 L254.1257,382.7667 L256.025,384.6923 L257.6659,386.3631 L257.828,386.5268 L259.7136,388.391 L261.7457,390.4032 L263.6411,392.2772 L265.9023,394.5207 L267.8998,396.498 L267.7479,396.3405 L270.0863,398.6062 L272.4518,400.8999 L274.6365,403.0063 L276.9531,405.2494 L278.9536,407.1648 L279.1784,407.4044 L281.3292,409.3954 L283.5827,411.4958 L285.8172,413.5759 L288.4047,416.0323 L290.7653,418.2469 L290.8252,418.3127 L293.0431,420.2769 L295.7527,422.7815 L298.069,424.854 L300.8232,427.4076 L303.2735,429.6273 L303.4169,429.7904 L305.7702,431.7898 L308.3725,434.0723 L311.0809,436.4755 L313.9349,439.0442 L316.4163,441.1892 L316.426,441.2007 L319.1552,443.5096 L321.9823,445.9339 L324.4799,447.9696 L327.5473,450.6775 L330.132,452.8158 L329.9645,452.6099 L333.0976,455.2785 L336.0073,457.6725 L338.7217,459.8264 L341.5443,462.1133 L344.3589,464.3903 L344.1903,464.1734 L347.162,466.5013 L350.1728,468.8796 L353.1139,471.1681 L356.1579,473.5892 L359.0353,475.7958 L359.0146,475.7677 L361.95,477.8868 L365.1392,480.3496 L368.2589,482.7184 L371.0808,484.6836 L374.0995,486.9155 L374.1199,486.9447 L377.145,489.012 L380.074,490.9414 L383.4776,493.5524 L386.2392,495.2413 L389.4898,497.6325 L389.6004,497.8022 L392.512,499.5051 L395.7677,501.736 L398.7409,503.5334 L402.1134,505.9438 L405.1445,507.83 L405.2157,507.9482 L408.1918,509.5363 L411.6401,511.9078 L414.7021,513.6385 L417.968,515.7074 L421.0018,517.3912 L420.8431,517.1029 L424.2934,519.3199 L427.4631,521.027 L430.524,522.5366 L433.7318,524.3131 L437,526.1992 L437.0233,526.2486 L440.1824,527.7778 L443.2953,529.209 L446.3877,530.597 L449.5537,532.1406 L452.6834,533.6077 L452.7716,533.8334 L456.0206,535.0149 L459.2537,536.156 L462.4849,537.2918 L465.841,538.7477 L469.13,540.0317 L469.2003,540.2456 L472.4616,541.0865 L475.9095,542.4952 L479.1524,543.2802 L482.5886,544.6533 L485.8616,545.5295 L485.8167,545.3691 L489.0951,546.1905 L492.5514,547.6475 L495.7311,548.1161 L499.1782,549.5399 L502.4,550.1592 " fill="none" style="stroke: #A80036; stroke-width: 1.0;"/><polygon fill="#A80036" points="507.29,551.3992,507.2318,551.3253,505.8646,550.337,504.1903,548.9584,502.5909,547.675,501.1675,546.6155,499.5499,545.309,499.68,545.3864,500.0896,546.2579,500.8747,547.3529,501.3313,548.2523,501.933,549.2382,502.4435,550.1697,502.5275,550.3108,501.3922,550.6154,500.6109,551.5148,499.6386,552.0932,498.5068,552.4039,497.5827,553.0633,497.6122,553.2349,499.5263,552.743,501.4315,552.1986,503.367,551.8308,505.3404,551.6843,507.29,551.3992" style="stroke: #A80036; stroke-width: 1.0;"/><path d="M232.63,334.0092 L232.5533,333.6412 L242.4082,331.1375 L252.4053,329.3168 L262.518,328.0505 L272.5877,326.5784 L282.3777,323.7632 L292.4117,322.1198 L302.221,319.3975 L312.1339,317.1722 L322.3313,316.3128 L331.9916,312.8753 L341.8854,310.5584 L351.9556,309.0884 L362.0405,307.689 L371.6868,304.1845 L381.7097,302.4874 L391.9181,301.6805 L401.5434,298.0753 L411.5622,296.3582 L421.6673,295.0558 L431.5277,292.5788 L441.4878,290.5805 L451.562,289.1296 L461.2374,285.7644 L471.1597,283.5848 L481.2686,282.3005 L491.0176,279.2885 L501.14,278.0692 " fill="none" style="stroke: #A80036; stroke-width: 1.0;"/><polygon fill="#A80036" points="506.09,277.0392,506.0688,276.9419,504.1454,276.5296,502.1987,276.0102,500.3589,275.9826,498.3948,275.3832,496.466,274.9466,496.4484,274.9197,497.5017,275.705,498.4721,276.3639,499.2143,276.6757,500.3622,277.605,501.1938,278.0527,501.2572,278.0944,500.5544,278.9863,499.8553,279.8808,499.1451,280.7678,498.5811,281.751,498.0876,282.7805,498.1027,282.8015,499.7982,281.7857,501.4035,280.6442,502.8123,279.2288,504.4186,278.0886,506.09,277.0392" style="stroke: #A80036; stroke-width: 1.0;"/><path d="M232.63,338.1992 L232.63,338.4365 L242.6856,337.546 L252.7412,337.9845 L262.7968,338.995 L272.8524,337.6884 L282.908,337.756 L292.9636,338.343 L303.0192,339.1349 L313.0748,337.7252 L323.1304,338.6858 L333.186,338.2603 L343.2416,338.3298 L353.2972,338.1236 L363.3528,337.6583 L373.4084,338.3571 L383.464,337.8236 L393.5196,338.4907 L403.5752,338.0199 L413.6308,337.9776 L423.6864,338.2746 L433.742,339.0493 L443.7976,337.4235 L453.8532,338.8124 L463.9088,337.6504 L473.9644,338.3082 L484.02,338.1992 " fill="none" style="stroke: #A80036; stroke-width: 1.0;"/><polygon fill="#A80036" points="489.25,338.1992,489.2127,338.1153,487.4759,337.4574,485.7051,336.7231,483.8546,335.8097,481.9934,334.8718,480.25,334.1992,480.2349,334.1841,481.2225,335.1717,482.0051,335.9543,482.652,336.6012,483.2764,337.2256,484.25,338.1992,484.0875,338.0367,483.5077,339.0569,482.5502,339.6994,481.8632,340.6124,480.8952,341.2444,480.25,342.1992,480.2818,342.2709,482.0176,341.3263,483.8584,340.6181,485.5771,339.6351,487.3701,338.8195,489.25,338.1992" style="stroke: #A80036; stroke-width: 1.0;"/><path d="M232.63,342.4492 L232.4495,341.5941 L242.409,344.3128 L252.1211,345.8595 L262.1434,348.8761 L271.7541,349.9424 L281.6071,352.1567 L291.4883,354.5046 L301.3676,356.8432 L311.4217,360.0102 L321.0989,361.3915 L330.8665,363.2011 L340.6558,365.1136 L350.5591,367.5661 L360.275,369.131 L370.123,371.3214 L380.082,374.038 L389.9461,376.3048 L399.5319,377.2535 L409.2691,378.9189 L419.3729,382.3211 L429.2336,384.5722 L439.0688,386.7018 L448.7222,387.9708 L458.7104,390.8251 L468.48,392.6446 L478.1671,394.0726 L487.8818,395.6319 L497.86,398.4392 " fill="none" style="stroke: #A80036; stroke-width: 1.0;"/><polygon fill="#A80036" points="502.82,399.4892,502.8562,399.5394,501.1668,398.2572,499.5641,397.0951,497.9129,395.8658,496.3172,394.7135,494.8371,393.7209,494.9882,393.8195,495.6341,394.7853,495.9135,395.5121,496.7897,396.6281,497.2136,397.4491,497.9273,398.4592,497.897,398.4128,497.0158,399.1327,496.0812,399.7708,495.0123,400.2029,494.0772,400.8401,493.189,401.5493,493.2395,401.7853,495.0991,401.0621,497.078,400.8964,498.9449,400.207,500.8855,399.8625,502.82,399.4892" style="stroke: #A80036; stroke-width: 1.0;"/><path d="M417.22,620.2192 L417.2242,620.4366 L423.1114,619.8415 L429.015,620.0916 L434.9086,619.8298 L440.8019,619.5492 L446.7025,619.6465 L446.6992,619.4735 L447.427,619.8182 L448.1454,619.6787 L448.8645,619.5754 L449.588,619.6946 L450.3068,619.5765 L450.3081,619.6452 L450.6689,619.7444 L451.028,619.7577 L451.3797,619.3883 L451.7448,619.7078 L452.1004,619.5416 L452.1052,619.7849 L452.275,619.315 L452.4581,619.5239 L452.6322,619.2714 L452.8187,619.6616 L452.995,619.5243 " fill="none" style="stroke: #A80036; stroke-width: 1.0; stroke-dasharray: 7.0,7.0;"/></g></svg>