<?xml version="1.0" encoding="UTF-8" standalone="no"?><svg xmlns="http://www.w3.org/2000/svg" xmlns:xlink="http://www.w3.org/1999/xlink" contentScriptType="application/ecmascript" contentStyleType="text/css" height="480px" preserveAspectRatio="none" style="width:689px;height:480px;" version="1.1" viewBox="0 0 689 480" width="689px" zoomAndPan="magnify"><defs><filter height="300%" id="fu1c5vh" width="300%" x="-1" y="-1"><feGaussianBlur result="blurOut" stdDeviation="2.0"/><feColorMatrix in="blurOut" result="blurOut2" type="matrix" values="0 0 0 0 0 0 0 0 0 0 0 0 0 0 0 0 0 0 .4 0"/><feOffset dx="4.0" dy="4.0" in="blurOut2" result="blurOut3"/><feBlend in="SourceGraphic" in2="blurOut3" mode="normal"/></filter></defs><g><!--cluster コンテンツ管理--><polygon fill="#FFFFFF" filter="url(#fu1c5vh)" points="453,32,453,32.1326,463.4,32.0216,473.8,31.3603,484.2,32.4154,494.6,31.6104,505,31.268,515.4,32.6319,525.8,31.3402,536.2,31.7069,546.6,32.6585,557,32,556.9067,31.971,558.3736,36.4894,559.7193,40.9702,561.023,45.4379,562.7491,50.037,564,54.4883,564,53.8767,573.8333,54.0373,583.6667,54.2095,593.5,54.1737,603.3333,54.4785,613.1667,53.9812,623,54.0411,632.8333,54.8601,642.6667,54.7069,652.5,54.2602,662.3333,54.4013,672.1667,53.9979,682,54.4883,681.8735,54.4883,681.5191,64.4261,682.5751,74.3639,681.4245,84.3017,682.5668,94.2395,681.6292,104.1772,681.2667,114.115,682.6576,124.0528,682.2865,133.9906,682.6563,143.9284,681.6412,153.8662,682.3464,163.804,682.277,173.7418,681.6046,183.6796,681.3533,193.6174,681.4542,203.5552,682.4289,213.493,681.7554,223.4308,681.2795,233.3686,682.1473,243.3063,681.5725,253.2441,682.395,263.1819,681.6965,273.1197,682.72,283.0575,682.0332,292.9953,681.4171,302.9331,682.5131,312.8709,682.7136,322.8087,682.0394,332.7465,681.2738,342.6843,681.4571,352.6221,681.7539,362.5599,682.0681,372.4977,681.6414,382.4354,681.9297,392.3732,682.1604,402.311,681.9788,412.2488,682.4463,422.1866,682.0776,432.1244,682.5424,442.0622,682,452,682,451.8106,672.0435,452.5727,662.087,451.9787,652.1304,452.4024,642.1739,452.4123,632.2174,452.1327,622.2609,452.7003,612.3043,451.7138,602.3478,451.636,592.3913,452.1365,582.4348,451.3712,572.4783,452.026,562.5217,452.1471,552.5652,451.741,542.6087,452.3,532.6522,452.3777,522.6957,452.4935,512.7391,451.9945,502.7826,452.5859,492.8261,451.6648,482.8696,451.9369,472.913,451.6154,462.9565,452.5939,453,452,452.6203,452,452.6647,442,452.8644,432,453.6059,422,453.2113,412,452.3935,402,453.4715,392,453.42,382,452.5459,372,453.0251,362,453.3798,352,452.6411,342,452.318,332,452.9345,322,453.2551,312,453.3964,302,452.8823,292,453.1551,282,452.7881,272,453.7109,262,453.2689,252,452.6745,242,452.286,232,453.303,222,453.2949,212,452.7699,202,452.4112,192,452.5899,182,453.4262,172,453.2936,162,453.6722,152,452.7488,142,452.6736,132,453.5651,122,452.4169,112,453.2442,102,452.5821,92,453.5397,82,453.1067,72,453.3144,62,453.2881,52,453.1981,42,453,32" style="stroke: #000000; stroke-width: 2.0;"/><path d="M453,54.4883 L453,55.2549 L463.0909,55.1674 L473.1818,55.3835 L483.2727,54.689 L493.3636,53.5329 L503.4545,53.801 L513.5455,54.9256 L523.6364,53.4902 L533.7273,54.8851 L543.8182,55.0039 L553.9091,55.0538 L564,54.4883 " fill="#FFFFFF" style="stroke: #000000; stroke-width: 2.0;"/><text fill="#000000" font-family="sans-serif" font-size="14" font-weight="bold" lengthAdjust="spacingAndGlyphs" textLength="98" x="457" y="47.5352">コンテンツ管理</text><polygon fill="#FEFECE" filter="url(#fu1c5vh)" points="650.7056,174.2059,647.1906,177.0446,644.3398,180.3393,635.952,182.576,626.9647,184.7805,618.6243,187.1328,607.1857,188.6724,593.3971,189.4679,581.5591,190.4049,568.8988,190.7599,554.868,190.3279,540.0505,189.174,528.1066,188.0794,519.2588,187.0549,506.8913,184.5641,498.2803,182.2615,493.191,180.1015,486.729,176.9905,485.2711,174.4256,483.3802,171.2196,483.5872,168.0191,488.1229,165.4136,491.6456,162.2725,500.8411,160.2203,509.3606,157.9089,517.0156,155.4,530.6795,154.3689,540.591,152.6875,552.9521,151.8701,568.5937,152.1962,580.1452,152.0617,593.1025,152.7906,605.9223,154.0853,618.8687,156.0463,625.825,157.3007,634.9927,159.7305,641.7572,162.2733,648.1104,165.3594,651.3904,168.3406,653.2922,171.5491" style="stroke: #A80036; stroke-width: 1.5;"/><text fill="#000000" font-family="sans-serif" font-size="14" lengthAdjust="spacingAndGlyphs" textLength="140" x="497.7351" y="175.9912">コンテンツを検索する</text><polygon fill="#FEFECE" filter="url(#fu1c5vh)" points="649.6688,246.969,646.7964,249.9545,642.6363,252.9501,636.8725,255.7863,627.1794,257.8296,615.6279,259.4482,605.495,261.2861,593.1861,262.4197,581.127,263.3061,569.332,263.8589,553.97,263.1228,542.8524,262.8142,530.9828,261.7366,517.1038,259.5625,508.2321,257.8705,500.7673,255.8297,493.7619,253.232,488.4516,250.3841,484.375,247.2209,484.31,244.4321,485.9751,241.5647,486.7969,238.1107,494.3517,235.8908,498.6057,232.7096,509.1108,230.8518,518.5972,228.7614,528.5205,226.8756,542.0824,226.0282,553.7528,225.053,569.0062,225.2904,579.7672,224.9753,592.4208,225.6348,604.5027,226.7609,617.7257,228.7852,627.2942,230.6364,634.5071,232.6196,642.6751,235.483,648.8193,238.5214,649.4496,240.8971,650.9508,244.0141" style="stroke: #A80036; stroke-width: 1.5;"/><text fill="#000000" font-family="sans-serif" font-size="14" lengthAdjust="spacingAndGlyphs" textLength="140" x="497.7351" y="248.9912">コンテンツを作成する</text><polygon fill="#FEFECE" filter="url(#fu1c5vh)" points="649.4644,319.9223,648.9657,323.4502,643.2729,326.0955,634.9127,328.3385,626.252,330.6176,618.2903,333.0565,607.4389,334.7303,592.4809,335.2586,580.0896,336.0691,569.1229,336.8111,555.5159,336.476,541.3106,335.4619,530.2765,334.5752,518.7638,332.9418,506.9184,330.5703,501.2064,328.9301,491.6246,325.7436,487.4821,323.1626,484.2292,320.1876,484.2187,317.4112,485.1352,314.3728,488.5057,311.5011,493.5117,308.6988,499.1318,305.8298,509.2041,303.8732,519.7892,302.0337,527.8577,299.7241,540.5704,298.6828,555.8505,298.5323,567.0938,297.8535,581.3332,298.3331,594.8984,299.2009,604.3403,299.7238,618.2785,301.9115,625.9555,303.3305,635.0847,305.7516,642.3546,308.4098,646.7358,311.0453,650.7744,314.1998,651.5068,317.1411" style="stroke: #A80036; stroke-width: 1.5;"/><text fill="#000000" font-family="sans-serif" font-size="14" lengthAdjust="spacingAndGlyphs" textLength="140" x="497.7351" y="321.9912">コンテンツを編集する</text><polygon fill="#FEFECE" filter="url(#fu1c5vh)" points="651.1738,393.3129,647.0624,396.0153,644.2916,399.3283,635.5079,401.4745,628.5228,404.1365,616.9141,405.7421,604.7336,407.1121,592.9324,408.3617,581.8471,409.4706,566.2721,409.1598,555.8101,409.5432,542.8198,408.8068,527.8357,407.0175,518.0399,405.7764,508.8189,404.0046,499.523,401.5454,492.8545,399.0246,486.0873,395.8439,486.1168,393.6189,482.3116,389.9755,484.6814,387.2691,486.9509,384.1459,492.2447,381.4093,499.5905,378.9346,509.2336,376.8799,519.7492,375.0246,529.394,373.0751,541.8255,371.9695,556.0059,371.5678,566.7621,370.7777,581.4189,371.3527,595.1935,372.2684,605.3683,372.9587,617.2649,374.6799,626.4338,376.4398,634.9249,378.715,641.8622,381.2972,648.4958,384.4475,650.5118,387.1398,652.5264,390.3741" style="stroke: #A80036; stroke-width: 1.5;"/><text fill="#000000" font-family="sans-serif" font-size="14" lengthAdjust="spacingAndGlyphs" textLength="140" x="497.7351" y="394.9912">コンテンツを削除する</text><polygon fill="#FEFECE" filter="url(#fu1c5vh)" points="655.8861,99.0156,651.9125,101.9881,646.3835,104.9319,638.8274,107.6365,630.1482,110.1983,621.9822,112.8763,607.4488,114.0001,594.9919,115.3742,582.1505,116.3376,565.8315,116.0941,554.5966,116.4985,541.0447,115.8014,524.5629,113.8054,515.4746,112.8066,502.8157,110.2949,494.7272,108.1059,486.9229,105.2774,482.8134,102.6081,478.3159,99.2159,477.4711,96.0746,479.4175,93.0617,481.1091,89.5722,485.9911,86.4819,493.0285,83.6597,502.0724,81.1806,513.141,79.1602,527.0439,77.8935,537.6176,76.0928,553.3435,75.7829,565.5418,75.0928,581.6499,75.7924,595.3679,76.5272,610.0842,78.1232,620.8453,79.501,630.0946,81.2402,639.0325,83.6216,648.7252,86.878,654.2286,89.8631,657.8431,93.0553,657.111,95.8393" style="stroke: #A80036; stroke-width: 1.5;"/><text fill="#000000" font-family="sans-serif" font-size="14" lengthAdjust="spacingAndGlyphs" textLength="154" x="490.3393" y="100.712">コンテンツをコピーする</text><!--entity 作成者--><polygon fill="#FEFECE" filter="url(#fu1c5vh)" points="218.8228,214.2619,218.088,216.8173,216.7441,218.4991,215.169,219.2066,213.7956,220.1829,212.243,220.6222,210.2177,220.0717,208.9159,219.5976,206.3393,219.0571,204.9981,216.8464,203.4973,214.5769,203.244,212.6885,204.0508,210.8385,204.4165,208.9488,205.4175,207.899,206.5271,205.9024,208.2521,205.434,210.1537,204.5825,212.0595,204.5113,214.8776,204.7212,216.2806,206.6318,218.0445,207.1853,218.7688,209.1904,219.015,211.6925,218.9889,214.2895" style="stroke: #A80036; stroke-width: 2.0;"/><path d="M211.5,220.5 L211.4676,220.5 L211.8877,225.9 L211.1981,231.3 L211.6892,236.7 L211.8197,242.1 L211.5,247.5 M198.5,228.5 L198.5,229.1456 L203.7,228.0938 L208.9,228.409 L214.1,227.838 L219.3,228.5852 L224.5,228.5 M211.5,247.5 L211.9149,247.8596 L209.3772,250.9136 L205.8771,253.1335 L204.1112,256.8564 L200.987,259.4021 L198.5,262.5 M211.5,247.5 L211.428,247.4376 L214.1463,250.5402 L216.7585,253.5507 L218.8241,256.0875 L221.7211,259.3449 L224.5,262.5 " fill="#FEFECE" style="stroke: #A80036; stroke-width: 2.0;"/><text fill="#000000" font-family="sans-serif" font-size="14" lengthAdjust="spacingAndGlyphs" textLength="42" x="190.5" y="283.0352">作成者</text><polygon fill="#FBFB77" filter="url(#fu1c5vh)" points="6,430.5,5.8587,430.5,5.8032,438.6242,5.8415,446.7484,6.1,454.8727,6.1393,462.9969,6,471.1211,6,470.4747,16.0244,471.7729,26.0488,470.6835,36.0732,470.4253,46.0976,471.5451,56.122,471.2715,66.1463,470.6468,76.1707,471.0344,86.1951,471.2495,96.2195,470.9436,106.2439,471.431,116.2683,470.4135,126.2927,471.6384,136.3171,470.9079,146.3415,470.4601,156.3659,471.478,166.3902,471.5645,176.4146,471.3935,186.439,470.5317,196.4634,470.8802,206.4878,471.3499,216.5122,470.8486,226.5366,471.5373,236.561,471.3168,246.5854,470.4379,256.6098,470.3714,266.6341,470.4953,276.6585,471.1628,286.6829,471.1239,296.7073,470.7351,306.7317,471.8423,316.7561,471.6526,326.7805,471.132,336.8049,470.8042,346.8293,471.5973,356.8537,470.6758,366.878,471.1014,376.9024,471.4343,386.9268,470.5786,396.9512,470.6191,406.9756,470.4987,417,471.1211,416.7951,471.1211,416.8954,464.9969,416.9819,458.8727,416.8114,452.7484,417.1498,446.6242,417,440.5,416.9889,440.4889,414.8692,438.3692,413.1025,436.6025,410.8932,434.3932,409.0606,432.5606,407,430.5,407,430.9502,396.975,431.0539,386.95,431.125,376.925,430.4636,366.9,430.4948,356.875,429.9407,346.85,431.0998,336.825,430.5216,326.8,431.0706,316.775,430.4071,306.75,430.9851,296.725,430.0112,286.7,431.16,276.675,430.858,266.65,430.1804,256.625,430.0759,246.6,430.3364,236.575,430.5368,226.55,430.9143,216.525,430.9833,206.5,430.8368,196.475,430.228,186.45,431.0334,176.425,431.142,166.4,431.0163,156.375,430.2716,146.35,430.2681,136.325,430.8653,126.3,430.6132,116.275,430.594,106.25,430.3311,96.225,431.0376,86.2,429.7887,76.175,429.9552,66.15,430.1765,56.125,430.5857,46.1,430.958,36.075,430.7437,26.05,431.0007,16.025,430.8009,6,430.5" style="stroke: #A80036; stroke-width: 1.0;"/><path d="M407,430.5 L406.9979,430.5 L406.9666,432.5 L407.0336,434.5 L407.2615,436.5 L406.9901,438.5 L407,440.5 " fill="#FBFB77" style="stroke: #A80036; stroke-width: 1.0;"/><path d="M417,440.5 L417,440.5723 L415,440.625 L413,440.5638 L411,440.3805 L409,440.8081 L407,440.5 " fill="#FBFB77" style="stroke: #A80036; stroke-width: 1.0;"/><text fill="#000000" font-family="sans-serif" font-size="13" lengthAdjust="spacingAndGlyphs" textLength="390" x="12" y="448.0684">「コンテンツ」はフォルダ、固定ページ、リンク、エイリアスなど</text><text fill="#000000" font-family="sans-serif" font-size="13" lengthAdjust="spacingAndGlyphs" textLength="234" x="12" y="463.3789">複数の種類のコンテンツを対象とする。</text><polygon fill="#FBFB77" filter="url(#fu1c5vh)" points="116.5,370.5,116.4174,370.5,116.4554,375.5621,116.3525,380.6242,116.4054,385.6863,116.2856,390.7484,116.5,395.8105,116.5,396.3414,126.5,396.4566,136.5,395.2272,146.5,396.1176,156.5,396.1299,166.5,396.1358,176.5,395.512,186.5,395.8449,196.5,395.6252,206.5,396.2729,216.5,396.1601,226.5,395.3834,236.5,395.7337,246.5,395.8141,256.5,395.8513,266.5,395.3762,276.5,395.7748,286.5,395.6433,296.5,395.9316,306.5,395.8105,306.5478,395.8105,306.6059,392.7484,306.2791,389.6863,306.5011,386.6242,306.2766,383.5621,306.5,380.5,306.5172,380.5172,304.4511,378.4511,302.4492,376.4492,300.4522,374.4522,298.513,372.513,296.5,370.5,296.5,370.4138,286.5,370.9771,276.5,371.2253,266.5,370.9375,256.5,370.1819,246.5,370.721,236.5,371.2246,226.5,369.8659,216.5,370.3138,206.5,370.9327,196.5,370.24,186.5,371.1317,176.5,370.0412,166.5,371.1054,156.5,371.0912,146.5,370.9297,136.5,371.1567,126.5,370.8452,116.5,370.5" style="stroke: #A80036; stroke-width: 1.0;"/><polygon fill="#FBFB77" points="116.5,370.5,116.2657,370.5,116.5429,375.5621,116.535,380.6242,116.4194,385.6863,116.5316,390.7484,116.5,395.8105,116.5,396.0759,126.5,396.0426,136.5,395.2785,146.5,395.4054,156.5,396.4517,166.5,396.4584,176.5,395.655,186.5,395.6115,196.5,395.7816,206.5,395.8392,216.5,396.2864,226.5,395.6002,236.5,395.7887,246.5,396.3685,256.5,395.3079,266.5,396.4745,276.5,395.4912,286.5,395.4144,296.5,395.9307,306.5,395.8105,306.6628,395.8105,306.4489,394.4224,306.3806,393.0343,306.6904,391.6462,306.4223,390.2581,306.5,388.87,306.5021,389.5905,316.3516,389.1961,326.2001,388.4755,336.0535,389.4348,345.9026,388.8981,355.7507,388.0139,365.6029,388.5547,375.4523,388.1103,385.3047,388.7208,395.1561,388.9965,405.0041,388.0665,414.8564,388.6726,424.7064,388.4312,434.5579,388.7271,444.4069,388.1722,454.257,387.9768,464.1072,387.8331,473.9573,387.6494,483.81,388.36,483.8253,388.7225,473.985,388.5497,464.1396,388.2542,454.2501,386.9162,444.4348,387.336,434.5264,385.5491,424.6858,385.3705,414.8419,385.11,405.0326,385.6706,395.1838,385.2971,385.3293,384.787,375.463,383.9996,365.6129,383.5941,355.7608,383.1413,345.9041,382.5794,336.0464,381.9946,326.2183,382.1093,316.3809,382.0056,306.5,380.87,306.5222,380.87,306.4565,380.796,306.2897,380.722,306.4548,380.648,306.6617,380.574,306.5,380.5,306.3688,380.3688,304.4403,378.4403,302.6568,376.6568,300.6659,374.6659,298.4072,372.4072,296.5,370.5,296.5,371.1784,286.5,370.6345,276.5,370.6122,266.5,371.1994,256.5,370.4546,246.5,370.389,236.5,370.7676,226.5,370.1805,216.5,369.8761,206.5,369.8261,196.5,370.2207,186.5,371.1721,176.5,370.4252,166.5,371.1217,156.5,370.3415,146.5,370.9706,136.5,370.4657,126.5,370.9328,116.5,370.5" style="stroke: #A80036; stroke-width: 1.0;"/><path d="M296.5,370.5 L296.2269,370.5 L296.6771,372.5 L296.7002,374.5 L296.3035,376.5 L296.4115,378.5 L296.5,380.5 " fill="#FBFB77" style="stroke: #A80036; stroke-width: 1.0;"/><path d="M306.5,380.5 L306.5,380.5312 L304.5,380.5042 L302.5,380.2541 L300.5,380.4706 L298.5,380.4332 L296.5,380.5 " fill="#FBFB77" style="stroke: #A80036; stroke-width: 1.0;"/><text fill="#000000" font-family="sans-serif" font-size="13" lengthAdjust="spacingAndGlyphs" textLength="169" x="122.5" y="388.0684">削除した場合はゴミ箱に入る</text><path d="M232.55,239.87 L232.6403,240.3077 L242.3981,237.6442 L252.4156,236.2395 L262.0759,233.1028 L272.2206,232.3152 L282.0142,229.8254 L291.9663,228.1037 L301.8317,225.9616 L311.4658,222.6978 L321.6332,222.0204 L331.2467,218.6572 L341.42,218.008 L351.0898,214.9174 L361.2192,214.0558 L370.8354,210.7054 L380.6964,208.5421 L390.764,207.3802 L400.5306,204.7594 L410.4158,202.713 L420.2341,200.343 L430.1459,198.4258 L440.1935,197.1673 L449.9705,194.5964 L460.1253,193.8578 L469.6369,190.0003 L479.8794,189.6868 L489.4178,185.9592 L499.49,184.82 " fill="none" style="stroke: #A80036; stroke-width: 1.0;"/><polygon fill="#A80036" points="504.82,183.72,504.8298,183.7652,502.907,183.3559,500.9685,182.874,499.0341,182.4115,497.1044,181.9704,495.196,181.6273,495.1725,181.5915,496.2058,182.3464,496.9631,182.681,497.9146,183.3113,498.9841,184.1212,499.9238,184.7335,499.9097,184.7242,499.2514,185.6455,498.5485,186.5374,497.9524,187.4994,497.4018,188.4914,496.8176,189.4613,496.7763,189.4036,498.356,188.2264,500.1194,187.3052,501.5943,185.982,503.0767,184.6692,504.82,183.72" style="stroke: #A80036; stroke-width: 1.0;"/><path d="M232.55,244 L232.55,244.4948 L242.364,244.334 L252.178,244.6252 L261.992,243.9385 L271.806,243.925 L281.62,243.1261 L291.434,244.596 L301.248,243.5599 L311.062,243.7927 L320.876,243.0832 L330.69,244.341 L340.504,243.9984 L350.318,243.0818 L360.132,244.634 L369.946,244.5277 L379.76,244.6103 L389.574,244.9198 L399.388,243.1525 L409.202,244.2743 L419.016,243.0079 L428.83,244.7573 L438.644,243.713 L448.458,244.4285 L458.272,243.2359 L468.086,243.8873 L477.9,244 " fill="none" style="stroke: #A80036; stroke-width: 1.0;"/><polygon fill="#A80036" points="483.27,244,483.3004,244.0685,481.3721,242.9798,479.6959,242.4582,477.9266,241.7274,476.0009,240.6445,474.27,240,474.4267,240.1567,475.0394,240.7694,475.8037,241.5337,476.5043,242.2343,477.3486,243.0786,478.27,244,478.2803,244.0103,477.3064,244.6364,476.8042,245.7342,475.9407,246.4707,474.9226,247.0526,474.27,248,474.2504,247.9558,475.9726,246.9809,477.8093,246.2633,479.6278,245.5051,481.4536,244.7631,483.27,244" style="stroke: #A80036; stroke-width: 1.0;"/><path d="M232.55,248.13 L232.5488,248.124 L242.5487,250.7122 L252.1642,251.4359 L262.1125,253.7738 L272.0044,255.8379 L282.076,258.7739 L291.9732,260.8639 L301.852,262.8646 L311.5693,264.0823 L321.5244,266.4527 L331.2653,267.785 L341.2728,270.4095 L351.3159,273.2071 L361.0654,274.5807 L371.1556,277.6065 L381.0268,279.5707 L390.6148,280.1613 L400.6696,283.0153 L410.6236,285.3809 L420.1965,285.8985 L430.2889,288.9349 L440.0086,290.1641 L449.9611,292.5221 L459.8989,294.8091 L469.6887,296.3779 L479.8113,299.5609 L489.6539,301.3865 L499.49,303.18 " fill="none" style="stroke: #A80036; stroke-width: 1.0;"/><polygon fill="#A80036" points="504.82,304.28,504.8248,304.2867,503.0848,302.944,501.7135,302.1151,500.1626,301.0359,498.4925,299.7907,496.8176,298.5387,496.6846,298.4513,497.6287,299.609,498.14,300.4824,498.8225,301.4681,499.3027,302.3211,499.9238,303.2665,499.8597,303.1689,499.018,303.9482,498.072,304.5688,496.9624,304.9403,496.2737,305.9525,495.196,306.3727,495.201,306.3953,497.1517,306.096,499.0867,305.7244,501.0086,305.2927,502.869,304.5779,504.82,304.28" style="stroke: #A80036; stroke-width: 1.0;"/><path d="M232.71,255.3 L232.8534,255.5635 L235.9714,256.9757 L239.256,258.6942 L242.6931,260.6927 L246.1138,262.6611 L249.4037,264.3892 L249.5486,264.6612 L253.5943,266.7169 L257.5641,268.6301 L261.7792,271.0038 L265.8911,273.1837 L270.0008,275.3595 L269.954,275.2695 L274.7841,277.8713 L279.5706,280.3892 L284.1972,282.5988 L289.1421,285.4219 L293.8128,287.7167 L293.7716,287.6348 L299.1679,290.5405 L304.3527,293.0255 L309.5396,295.5149 L314.8684,298.2861 L320.1513,300.9663 L320.0586,300.7749 L325.6418,303.397 L331.4576,306.4991 L336.9237,308.8793 L342.7974,312.101 L348.3277,314.6138 L348.3185,314.5942 L351.2419,315.9813 L354.2089,317.4613 L357.0409,318.6533 L359.879,319.8581 L362.89,321.4323 L362.7856,321.2034 L365.8711,322.8411 L368.6861,323.8856 L371.6804,325.3232 L374.7738,326.9783 L377.6536,328.1648 L377.6035,328.0518 L380.6053,329.4275 L383.5767,330.7344 L386.5163,331.9697 L389.4351,333.1579 L392.5325,334.7497 L392.6133,334.9387 L395.5963,336.2172 L398.4728,337.2463 L401.5745,338.8023 L404.5743,340.1198 L407.4405,341.1251 L407.4464,341.1393 L410.374,342.2564 L413.3173,343.4117 L416.4652,345.0647 L419.4381,346.292 L422.2917,347.2291 L422.3539,347.3877 L425.1145,348.0802 L428.228,349.6725 L431.069,350.57 L434.0639,351.8599 L437,353 L437.0998,353.2752 L440.2432,353.9377 L443.6131,355.225 L446.9818,356.5086 L450.2595,357.5416 L453.7128,359.0588 L453.7383,359.136 L457.1003,360.0289 L460.592,361.315 L464.0904,362.6214 L467.404,363.3675 L470.9225,364.735 L470.9833,364.9346 L474.4215,365.9731 L477.9009,367.1468 L481.1849,367.679 L484.7693,369.1973 L488.1284,369.9763 L488.1592,370.0844 L491.4098,370.7198 L494.7533,371.6817 L498.1847,372.9528 L501.4757,373.7302 L504.83,374.73 " fill="none" style="stroke: #A80036; stroke-width: 1.0;"/><polygon fill="#A80036" points="509.71,376.07,509.5851,375.9176,508.1547,374.7821,506.6644,373.5734,505.1358,372.3181,503.5394,370.98,502.0936,369.8257,501.8943,369.7124,502.5462,370.7487,503.0505,371.7012,503.8826,372.8399,504.3864,373.792,504.8892,374.7436,504.8945,374.7529,503.7863,375.0928,502.874,375.7772,501.8726,376.3049,500.9825,377.0286,499.9713,377.5391,499.9412,377.3395,501.9354,377.3535,503.8432,376.7954,505.7866,376.4724,507.7683,376.4035,509.71,376.07" style="stroke: #A80036; stroke-width: 1.0;"/><path d="M232.71,232.64 L232.5574,232.3615 L235.9843,230.6908 L239.257,228.7387 L242.8434,227.359 L246.1236,225.4206 L249.4078,223.4895 L249.5092,223.6786 L253.5051,221.237 L257.497,218.7878 L261.8709,217.0508 L265.9842,214.8281 L270.0092,212.4406 L269.9437,212.3153 L274.756,209.9188 L279.543,207.4738 L284.2218,204.8221 L289.0681,202.4906 L293.8251,199.9883 L293.8224,199.9829 L298.9869,197.1063 L304.4329,194.7847 L309.6657,192.0426 L314.9541,189.4102 L320.1663,186.6275 L320.1846,186.6651 L325.7752,183.8184 L331.4102,181.0627 L336.9897,178.1934 L342.6128,175.4133 L348.3435,172.8533 L348.2929,172.7464 L351.3657,171.708 L354.1593,170.0794 L357.0212,168.5953 L359.8691,167.0814 L362.9053,165.9658 L363.0071,166.1868 L365.8423,164.5713 L368.7162,163.0398 L371.6858,161.7159 L374.6735,160.4313 L377.6677,159.1606 L377.7052,159.2446 L380.6415,157.8249 L383.4923,156.2146 L386.7257,155.4588 L389.5923,153.8836 L392.5445,152.4996 L392.4997,152.3962 L395.6031,151.3879 L398.4809,149.8585 L401.572,148.8215 L404.5665,147.5618 L407.4496,146.0445 L407.3394,145.7801 L410.5296,145.0724 L413.3281,143.4248 L416.2319,142.0298 L419.3976,141.2635 L422.2968,139.8574 L422.3485,139.9871 L425.1901,138.5671 L428.1312,137.3967 L431.0368,136.1373 L433.9742,134.9577 L437,134 L437.062,134.1677 L440.1849,132.8201 L443.4053,131.736 L446.5553,130.4616 L449.8312,129.5278 L452.9288,128.1116 L452.9583,128.1987 L456.2982,127.2634 L459.3996,125.6245 L462.6857,124.5303 L466.1205,123.875 L469.33,122.555 L469.3313,122.5591 L472.5819,121.4062 L475.8287,120.2413 L479.1709,119.3796 L482.4011,118.162 L485.7688,117.3809 L485.6816,117.086 L489.0138,116.5574 L492.1674,115.4242 L495.332,114.3283 L498.6126,113.6248 L501.81,112.64 " fill="none" style="stroke: #A80036; stroke-width: 1.0;"/><polygon fill="#A80036" points="506.8,111.22,506.8065,111.2658,504.8807,111.1669,502.9092,110.7431,500.9787,110.611,498.9869,110.0428,497.0474,109.8464,496.9634,109.6952,498.1401,110.5824,498.9832,110.8694,499.911,111.3087,500.9145,111.8842,501.9924,112.5936,502.0761,112.6401,501.6354,113.6895,500.7123,114.4709,500.4452,115.6168,499.5918,116.4369,499.2452,117.5386,499.299,117.603,500.7642,116.2846,502.1189,114.834,503.7209,113.6791,505.1932,112.3691,506.8,111.22" style="stroke: #A80036; stroke-width: 1.0;"/><path d="M417.14,446.95 L417.1341,446.6506 L422.8413,447.1077 L428.5258,446.4107 L434.2246,446.4424 L439.9249,446.546 L445.62,446.3885 L445.6226,446.5204 L447.0033,446.2067 L448.3904,446.2189 L449.7769,446.201 L451.16,446.0113 L452.5516,446.2517 " fill="none" style="stroke: #A80036; stroke-width: 1.0; stroke-dasharray: 7.0,7.0;"/></g></svg>