<?xml version="1.0" encoding="UTF-8" standalone="no"?><svg xmlns="http://www.w3.org/2000/svg" xmlns:xlink="http://www.w3.org/1999/xlink" contentScriptType="application/ecmascript" contentStyleType="text/css" height="654px" preserveAspectRatio="none" style="width:701px;height:654px;" version="1.1" viewBox="0 0 701 654" width="701px" zoomAndPan="magnify"><defs><filter height="300%" id="fqw1756" width="300%" x="-1" y="-1"><feGaussianBlur result="blurOut" stdDeviation="2.0"/><feColorMatrix in="blurOut" result="blurOut2" type="matrix" values="0 0 0 0 0 0 0 0 0 0 0 0 0 0 0 0 0 0 .4 0"/><feOffset dx="4.0" dy="4.0" in="blurOut2" result="blurOut3"/><feBlend in="SourceGraphic" in2="blurOut3" mode="normal"/></filter></defs><g><text fill="#000000" font-family="sans-serif" font-size="18" lengthAdjust="spacingAndGlyphs" textLength="252" x="242" y="17.4023">ユースケース：コンテンツ管理</text><!--cluster コンテンツ管理--><polygon fill="#FFFFFF" filter="url(#fqw1756)" points="453,53.1992,453,53.2632,463.4,53.6793,473.8,53.7932,484.2,52.7367,494.6,53.7394,505,53.6728,515.4,53.1903,525.8,53.1908,536.2,53.2433,546.6,53.8809,557,53.1992,557.1005,53.2305,558.4398,57.7093,559.9609,62.2446,561.1168,66.6663,562.3987,71.1272,564,75.6875,564,75.3755,574,76.0741,584,75.7056,594,76.3886,604,76.3777,614,76.3758,624,76.0023,634,76.4363,644,76.228,654,76.0939,664,75.3541,674,75.3396,684,75.0614,694,75.6875,694.0935,75.6875,693.3829,85.6786,694.3536,95.6697,694.4053,105.6609,693.7538,115.652,693.3412,125.6431,694.7073,135.6342,694.6043,145.6254,693.7735,155.6165,694.1385,165.6076,693.7211,175.5987,694.6969,185.5898,693.4438,195.581,693.7177,205.5721,694.0346,215.5632,694.4832,225.5543,693.8897,235.5455,694.142,245.5366,693.3726,255.5277,694.7052,265.5188,693.8527,275.5099,694.2551,285.5011,693.9841,295.4922,694.7131,305.4833,694.313,315.4744,694.5499,325.4656,693.4955,335.4567,693.9538,345.4478,693.3556,355.4389,694.1647,365.43,694.6585,375.4212,693.8498,385.4123,693.9983,395.4034,693.5411,405.3945,694.1701,415.3857,693.9476,425.3768,693.9044,435.3679,693.405,445.359,694.0806,455.3501,694.2861,465.3413,694.496,475.3324,694.3804,485.3235,693.2782,495.3146,693.2781,505.3058,693.9689,515.2969,694.7032,525.288,694.1613,535.2791,694.0033,545.2702,694.586,555.2614,693.6805,565.2525,693.3639,575.2436,693.6832,585.2347,693.8914,595.2259,693.7314,605.217,694.3008,615.2081,694,625.1992,694,625.9441,683.9583,625.3446,673.9167,625.7536,663.875,625.0376,653.8333,624.982,643.7917,624.5259,633.75,624.8872,623.7083,625.7753,613.6667,624.5985,603.625,624.6856,593.5833,625.6703,583.5417,625.2446,573.5,624.5332,563.4583,625.7674,553.4167,625.8622,543.375,625.2943,533.3333,624.6958,523.2917,624.7252,513.25,624.4542,503.2083,624.53,493.1667,625.678,483.125,624.8821,473.0833,624.4868,463.0417,624.9232,453,625.1992,452.8554,625.1992,453.2734,615.1641,453.293,605.129,452.3841,595.094,452.5788,585.0589,452.5042,575.0238,452.2957,564.9887,453.0157,554.9536,452.5352,544.9185,453.7473,534.8834,453.1387,524.8483,453.2435,514.8133,453.357,504.7782,453.1567,494.7431,453.2499,484.708,452.7962,474.6729,452.3801,464.6378,453.0572,454.6027,453.3285,444.5676,453.4832,434.5326,453.6945,424.4975,453.4114,414.4624,453.3076,404.4273,453.4877,394.3922,452.5601,384.3571,453.5135,374.322,452.8488,364.2869,452.724,354.2519,452.5504,344.2168,452.295,334.1817,453.53,324.1466,452.8751,314.1115,452.6438,304.0764,452.7494,294.0413,452.8187,284.0062,452.7372,273.9711,452.6019,263.9361,453.5036,253.901,452.3611,243.8659,453.6436,233.8308,452.862,223.7957,453.4678,213.7606,453.5779,203.7255,453.0315,193.6904,453.3261,183.6554,452.2921,173.6203,453.0281,163.5852,453.1454,153.5501,453.3426,143.515,453.0496,133.4799,452.4939,123.4448,452.9423,113.4097,452.8664,103.3747,453.1403,93.3396,453.7404,83.3045,452.4726,73.2694,453.7276,63.2343,453,53.1992" style="stroke: #000000; stroke-width: 2.0;"/><path d="M453,75.6875 L453,75.5315 L463.0909,76.2588 L473.1818,74.8426 L483.2727,75.2315 L493.3636,76.5124 L503.4545,75.9402 L513.5455,76.413 L523.6364,76.6269 L533.7273,76.2245 L543.8182,76.2576 L553.9091,76.2305 L564,75.6875 " fill="#FFFFFF" style="stroke: #000000; stroke-width: 2.0;"/><text fill="#000000" font-family="sans-serif" font-size="14" font-weight="bold" lengthAdjust="spacingAndGlyphs" textLength="98" x="457" y="68.7344">コンテンツ管理</text><polygon fill="#FEFECE" filter="url(#fqw1756)" points="658.2711,493.7628,654.9651,496.6493,649.9661,499.4531,641.8056,501.7417,633.0514,503.9995,623.3642,506.0441,612.3737,507.6861,600.1543,508.8402,587.7461,509.6468,574.1655,509.7916,558.9489,509.0887,546.3561,508.443,535.7429,507.6525,523.8253,505.9266,512.9028,503.766,507.12,502.1095,498.3572,499.1102,494.6278,496.6236,488.9525,493.0951,490.6515,490.7094,489.8225,487.2721,494.9717,484.8068,497.0764,481.3416,505.0437,479.0089,513.2446,476.6247,523.8791,474.7965,535.1809,473.2257,548.3446,472.2874,560.4968,471.4222,574.1571,471.2956,586.5197,471.3464,599.5372,472.0891,612.2187,473.3522,622.063,474.6045,632.1308,476.5698,641.4752,479.04,647.7252,481.4652,653.286,484.3703,658.4169,487.7744,657.6718,490.3781" style="stroke: #A80036; stroke-width: 1.5;"/><text fill="#000000" font-family="sans-serif" font-size="14" lengthAdjust="spacingAndGlyphs" textLength="140" x="503.7351" y="495.1904">コンテンツを検索する</text><polygon fill="#FEFECE" filter="url(#fqw1756)" points="655.6125,118.1554,653.7227,121.3654,649.9091,124.4401,641.593,126.6931,631.8203,128.7182,623.9462,131.1771,610.9103,132.3517,599.6613,133.7275,586.5635,134.3766,573.256,134.5838,561.5745,134.6886,546.4361,133.4613,536.6509,132.86,523.4124,130.8322,513.5436,128.9124,504.3553,126.4778,499.7398,124.4261,492.9684,121.2444,491.8734,118.7625,489.8807,115.5332,489.8566,112.2799,492.5695,109.2579,497.1496,106.3583,506.8924,104.4313,512.6782,101.4953,523.6456,99.7432,534.3174,98.0284,548.4772,97.3177,561.0361,96.5455,572.3612,95.8853,586.768,96.4032,600.8177,97.3817,612.8112,98.4876,624.5326,100.1688,632.9255,101.7514,641.5363,104.054,648.9325,106.741,654.6212,109.6754,656.4068,112.3151,657.2117,115.2729" style="stroke: #A80036; stroke-width: 1.5;"/><text fill="#000000" font-family="sans-serif" font-size="14" lengthAdjust="spacingAndGlyphs" textLength="140" x="503.7351" y="120.1904">コンテンツを作成する</text><polygon fill="#FEFECE" filter="url(#fqw1756)" points="658.3691,191.7852,653.2713,194.2622,649.698,197.3919,643.3878,200.1033,631.9395,201.7454,622.3157,203.8046,612.9329,205.8139,600.9823,207.0293,586.6799,207.4032,572.2694,207.3584,560.9341,207.5423,546.9923,206.5884,535.2765,205.546,523.9415,203.9531,515.4283,202.343,504.1401,199.4286,498.5098,197.1451,493.8758,194.4517,489.1537,191.1411,488.0011,188.1038,491.7132,185.7041,492.8909,182.3314,499.8115,179.9666,505.5705,177.1292,515.0177,175.0298,525.8882,173.2556,535.9098,171.3922,546.2542,169.8097,560.8024,169.4921,574.0057,169.261,588.4859,169.7957,599.6963,170.1255,611.572,171.2045,624.7941,173.2285,631.7919,174.4923,642.7347,177.3278,649.2419,179.8117,652.7239,182.2419,655.6432,185.1406,657.957,188.4432" style="stroke: #A80036; stroke-width: 1.5;"/><text fill="#000000" font-family="sans-serif" font-size="14" lengthAdjust="spacingAndGlyphs" textLength="140" x="503.7351" y="193.1904">コンテンツを編集する</text><polygon fill="#FEFECE" filter="url(#fqw1756)" points="657.9968,566.7002,654.8816,569.6302,650.1957,572.5056,641.3406,574.6355,632.976,576.9823,623.7691,579.1366,612.5503,580.7264,600.5166,581.9229,588.2057,582.7518,573.4683,582.6323,560.3463,582.408,546.0338,581.3694,536.3041,580.7808,523.6734,578.8919,513.2562,576.8467,505.8143,574.8112,500.1162,572.5121,492.8566,569.2188,488.906,566.0845,488.7467,563.2741,491.8127,560.7268,493.7787,557.5342,498.5357,554.675,504.2988,551.8387,512.5024,549.4551,524.103,547.8477,534.9986,546.184,547.1763,545.0204,560.4085,544.402,575.0494,544.4995,587.9137,544.665,600.661,545.3459,610.8325,546.0355,624.3215,548.1205,633.2895,549.8345,640.5693,551.833,648.1757,554.5681,652.2422,557.1318,655.2621,560.0535,657.9302,563.4371" style="stroke: #A80036; stroke-width: 1.5;"/><text fill="#000000" font-family="sans-serif" font-size="14" lengthAdjust="spacingAndGlyphs" textLength="140" x="503.7351" y="568.1904">コンテンツを削除する</text><polygon fill="#FEFECE" filter="url(#fqw1756)" points="664.3409,266.771,658.6044,269.3441,653.5436,272.3939,645.1095,274.8997,635.4191,277.2323,627.8628,280.0484,615.1322,281.5807,601.3249,282.6488,585.9276,283.0331,573.1651,283.5955,560.818,283.7479,546.4929,282.8756,530.6523,281.0248,520.7046,279.8314,509.5075,277.6508,499.9376,275.1263,494.6206,272.8612,486.5043,269.2842,482.7271,266.0551,482.2687,263.0014,483.9698,259.9329,487.4052,256.8385,491.6704,253.6084,501.0594,251.319,507.6671,248.288,518.6927,246.2578,531.7011,244.7885,545.0657,243.6201,558.1107,242.7028,573.7245,242.7865,585.9674,242.6105,602.3341,243.9453,614.7319,245.016,626.3891,246.5969,638.3291,248.9457,648.1172,251.5197,652.6854,253.615,658.5261,256.6766,664.3687,260.3736,663.3966,263.1032" style="stroke: #A80036; stroke-width: 1.5;"/><text fill="#000000" font-family="sans-serif" font-size="14" lengthAdjust="spacingAndGlyphs" textLength="154" x="496.3393" y="267.9112">コンテンツをコピーする</text><polygon fill="#FEFECE" filter="url(#fqw1756)" points="656.9516,341.4614,654.4674,344.5355,648.0838,347.023,642.5387,349.9092,632.9585,351.9783,622.7531,353.9045,612.4388,355.701,599.0607,356.5903,587.9439,357.692,573.2509,357.5826,562.0555,357.7985,548.1919,356.8625,534.4471,355.3564,524.2432,354.022,515.1332,352.2756,505.8262,349.8139,498.27,347.0903,491.9397,344.0093,491.877,341.7633,489.3206,338.4053,490.5989,335.4495,494.9223,332.7955,499.9978,330.0091,503.9499,326.759,514.9174,325.0069,525.869,323.2512,536.9996,321.6412,546.9284,319.9638,559.079,319.0983,573.2091,319.079,586.3744,319.3133,599.3586,320.0483,613.062,321.5449,624.7358,323.2152,632.5372,324.6626,643.3429,327.4668,648.0149,329.5314,654.956,332.7519,658.2308,335.7318,656.7678,338.1715" style="stroke: #A80036; stroke-width: 1.5;"/><text fill="#000000" font-family="sans-serif" font-size="14" lengthAdjust="spacingAndGlyphs" textLength="140" x="503.7351" y="343.1904">コンテンツを公開する</text><polygon fill="#FEFECE" filter="url(#fqw1756)" points="670.0168,418.0499,664.3037,420.8739,658.6622,424.0572,652.7712,427.4181,643.0602,430.0383,629.3214,431.7529,619.024,434.123,604.3301,435.2708,587.5249,435.6007,573.6803,436.1518,559.1961,436.0245,542.3706,434.7589,527.8773,433.3441,516.5166,431.9145,505.5104,429.8178,496.6391,427.445,488.3184,424.4492,480.1329,420.7646,476.4651,417.4222,477.3989,414.5027,477.2563,410.8065,480.8631,407.509,488.5234,404.7796,494.3881,401.4128,506.9252,399.428,517.4695,396.9951,529.9774,395.1221,542.6641,393.5229,557.8205,392.8223,571.8623,392.3155,590.1245,393.2923,604.7148,394.0553,619.0356,395.4313,630.5927,396.9051,640.6563,398.7898,652.2,401.7636,659.1024,404.4405,665.1281,407.6394,668.6786,410.9554,668.9979,414.1567" style="stroke: #A80036; stroke-width: 1.5;"/><text fill="#000000" font-family="sans-serif" font-size="14" lengthAdjust="spacingAndGlyphs" textLength="168" x="489.5689" y="419.1571">コンテンツを非公開にする</text><!--entity 作成者--><polygon fill="#FEFECE" filter="url(#fqw1756)" points="218.91,309.2929,217.8259,311.6892,216.1674,313.5681,214.9039,314.2833,212.4673,314.9705,210.077,314.1874,208.702,313.6961,206.7542,313.1181,205.2776,312.0344,204.5413,309.8507,203.6525,308.2337,203.0173,306.7972,203.3978,305.3184,204.7728,303.1924,205.6903,301.8135,207.5112,300.2566,209.1268,299.1035,211.0275,298.6114,213.0061,298.5296,215.3063,299.672,217.3508,300.7014,218.6935,302.9506,219.627,305.257,219.5082,307.496" style="stroke: #A80036; stroke-width: 2.0;"/><path d="M211.5,314.6992 L211.5076,314.6992 L211.6727,320.0992 L211.7558,325.4992 L211.5519,330.8992 L210.8578,336.2992 L211.5,341.6992 M198.5,322.6992 L198.5,322.2185 L203.7,323.1869 L208.9,322.7772 L214.1,323.343 L219.3,322.0594 L224.5,322.6992 M211.5,341.6992 L211.6259,341.8084 L208.7445,344.5644 L205.8348,347.296 L203.5359,350.557 L201.0696,353.6729 L198.5,356.6992 M211.5,341.6992 L211.5872,341.7748 L214.4076,344.9658 L216.2801,347.3353 L218.8062,350.2713 L222.3298,354.0717 L224.5,356.6992 " fill="#FEFECE" style="stroke: #A80036; stroke-width: 2.0;"/><text fill="#000000" font-family="sans-serif" font-size="14" lengthAdjust="spacingAndGlyphs" textLength="42" x="190.5" y="377.2344">作成者</text><polygon fill="#FBFB77" filter="url(#fqw1756)" points="6,603.6992,5.8881,603.6992,5.8245,611.8234,6.0902,619.9477,6.1039,628.0719,6.0344,636.1961,6,644.3203,6,644.131,16.0244,644.6079,26.0488,643.8941,36.0732,644.2875,46.0976,644.3138,56.122,645.049,66.1463,644.8375,76.1707,643.6109,86.1951,643.599,96.2195,644.0045,106.2439,643.8763,116.2683,644.814,126.2927,644.7838,136.3171,643.5907,146.3415,644.9358,156.3659,644.3711,166.3902,644.4806,176.4146,644.6942,186.439,644.4903,196.4634,644.9579,206.4878,644.5366,216.5122,644.2606,226.5366,644.6245,236.561,644.146,246.5854,643.7222,256.6098,643.8104,266.6341,643.7861,276.6585,644.1962,286.6829,644.0591,296.7073,644.9165,306.7317,645.0313,316.7561,644.749,326.7805,644.3029,336.8049,643.9458,346.8293,643.8358,356.8537,644.2206,366.878,644.6259,376.9024,643.9472,386.9268,644.9629,396.9512,644.9914,406.9756,644.4673,417,644.3203,417.1168,644.3203,417.0368,638.1961,417.0667,632.0719,417.1707,625.9477,416.9968,619.8234,417,613.6992,416.8822,613.5814,415.0003,611.6995,412.9302,609.6295,410.972,607.6713,409.1603,605.8596,407,603.6992,407,603.7005,396.975,603.2681,386.95,604.2125,376.925,604.2018,366.9,603.3275,356.875,603.0134,346.85,604.1006,336.825,603.8378,326.8,603.2969,316.775,604.0435,306.75,603.713,296.725,603.687,286.7,604.4232,276.675,603.5131,266.65,603.3588,256.625,604.1849,246.6,603.4294,236.575,603.9639,226.55,604.1403,216.525,604.3793,206.5,604.1254,196.475,602.9513,186.45,604.3016,176.425,603.8219,166.4,603.9981,156.375,603.5104,146.35,603.0412,136.325,603.1457,126.3,603.1859,116.275,603.6359,106.25,603.611,96.225,603.6577,86.2,603.0149,76.175,603.1716,66.15,604.2962,56.125,603.8797,46.1,604.2353,36.075,603.6146,26.05,603.6533,16.025,603.7124,6,603.6992" style="stroke: #A80036; stroke-width: 1.0;"/><path d="M407,603.6992 L407.058,603.6992 L407.2844,605.6992 L406.9947,607.6992 L407.0367,609.6992 L406.8051,611.6992 L407,613.6992 " fill="#FBFB77" style="stroke: #A80036; stroke-width: 1.0;"/><path d="M417,613.6992 L417,613.672 L415,613.5949 L413,613.6322 L411,613.7389 L409,613.7253 L407,613.6992 " fill="#FBFB77" style="stroke: #A80036; stroke-width: 1.0;"/><text fill="#000000" font-family="sans-serif" font-size="13" lengthAdjust="spacingAndGlyphs" textLength="390" x="12" y="621.2676">「コンテンツ」はフォルダ、固定ページ、リンク、エイリアスなど</text><text fill="#000000" font-family="sans-serif" font-size="13" lengthAdjust="spacingAndGlyphs" textLength="234" x="12" y="636.5781">複数の種類のコンテンツを対象とする。</text><polygon fill="#FBFB77" filter="url(#fqw1756)" points="116.5,543.6992,116.2634,543.6992,116.7434,548.7613,116.4386,553.8234,116.3605,558.8855,116.442,563.9477,116.5,569.0098,116.5,568.2934,126.5,568.4174,136.5,569.0764,146.5,569.2073,156.5,569.464,166.5,569.5167,176.5,568.3272,186.5,568.5103,196.5,568.9745,206.5,568.6765,216.5,568.4981,226.5,568.5378,236.5,569.6743,246.5,569.7445,256.5,568.4852,266.5,569.156,276.5,569.5238,286.5,568.9769,296.5,569.1743,306.5,569.0098,306.2557,569.0098,306.4642,565.9477,306.5917,562.8855,306.5411,559.8234,306.3384,556.7613,306.5,553.6992,306.5157,553.7149,304.4755,551.6747,302.6727,549.8719,300.4154,547.6146,298.4866,545.6858,296.5,543.6992,296.5,543.1272,286.5,543.2516,276.5,543.9028,266.5,544.3636,256.5,543.793,246.5,543.5926,236.5,543.7368,226.5,543.8723,216.5,543.4761,206.5,544.365,196.5,544.2241,186.5,543.7808,176.5,543.524,166.5,543.2216,156.5,544.4055,146.5,544.24,136.5,543.5309,126.5,543.3879,116.5,543.6992" style="stroke: #A80036; stroke-width: 1.0;"/><polygon fill="#FBFB77" points="116.5,543.6992,116.6028,543.6992,116.2626,548.7613,116.3632,553.8234,116.7062,558.8855,116.2705,563.9477,116.5,569.0098,116.5,569.7002,126.5,569.1582,136.5,569.2629,146.5,568.7596,156.5,569.3887,166.5,568.943,176.5,568.7048,186.5,569.0296,196.5,568.9779,206.5,569.6573,216.5,568.5411,226.5,569.577,236.5,569.4416,246.5,569.7445,256.5,569.3616,266.5,568.9523,276.5,568.894,286.5,568.4864,296.5,569.7229,306.5,569.0098,306.6126,569.0098,306.4535,567.6137,306.6287,566.2175,306.6305,564.8214,306.456,563.4253,306.5,562.0292,306.4992,561.6952,316.6741,561.3928,326.8493,561.2357,337.0279,562.4737,347.2022,561.9128,357.3775,561.7989,367.5532,561.8449,377.7297,562.2091,387.906,562.5011,398.0805,562.0361,408.2542,561.2338,418.4318,562.034,428.6069,561.8521,438.7823,561.763,448.9562,561.0314,459.1318,561.0103,469.3102,562.1672,479.4826,560.8646,489.66,561.5892,489.6798,562.0684,479.4999,561.5437,469.296,560.4381,459.1541,560.8315,448.9416,559.5179,438.7703,559.2005,428.5904,558.6757,418.4157,558.2766,408.267,558.5074,398.1017,558.3342,387.9001,557.2828,377.7305,557.0073,367.5333,556.065,357.3772,556.1143,347.1942,555.5149,337.0298,555.3644,326.8755,555.4589,316.6813,554.5873,306.5,554.0292,306.7149,554.0292,306.5756,553.9632,306.3799,553.8972,306.5212,553.8312,306.3673,553.7652,306.5,553.6992,306.4426,553.6418,304.336,551.5352,302.5414,549.7406,300.531,547.7302,298.6175,545.8168,296.5,543.6992,296.5,544.0251,286.5,544.1024,276.5,544.3226,266.5,543.3245,256.5,544.4223,246.5,544.0112,236.5,543.138,226.5,543.1736,216.5,544.4199,206.5,543.8014,196.5,544.0246,186.5,544.2894,176.5,544.2691,166.5,543.9902,156.5,543.0089,146.5,544.1512,136.5,543.4337,126.5,543.9882,116.5,543.6992" style="stroke: #A80036; stroke-width: 1.0;"/><path d="M296.5,543.6992 L296.6755,543.6992 L296.4809,545.6992 L296.3463,547.6992 L296.7153,549.6992 L296.3926,551.6992 L296.5,553.6992 " fill="#FBFB77" style="stroke: #A80036; stroke-width: 1.0;"/><path d="M306.5,553.6992 L306.5,553.9566 L304.5,553.4436 L302.5,553.4244 L300.5,553.7671 L298.5,554.0312 L296.5,553.6992 " fill="#FBFB77" style="stroke: #A80036; stroke-width: 1.0;"/><text fill="#000000" font-family="sans-serif" font-size="13" lengthAdjust="spacingAndGlyphs" textLength="169" x="122.5" y="561.2676">削除した場合はゴミ箱に入る</text><path d="M232.58,350.2892 L232.7478,350.5763 L235.7398,351.9525 L239.081,353.9263 L242.5181,356.0641 L245.9608,358.2116 L249.1911,359.9956 L249.0609,359.767 L253.1505,362.0811 L257.4222,364.7146 L261.467,366.95 L265.4981,369.1614 L269.7069,371.6845 L269.6376,371.5592 L274.4272,374.2588 L279.108,376.7616 L283.9979,379.6423 L288.6716,382.1323 L293.4523,384.8158 L293.5977,385.0883 L298.8403,387.8622 L303.9647,390.4147 L309.3155,393.3915 L314.5547,396.1591 L319.7525,398.8492 L319.7015,398.7507 L322.5155,400.2548 L325.2966,401.6951 L328.0695,403.1198 L330.7502,404.3661 L333.6496,406.0354 L333.5719,405.8814 L336.5837,407.6307 L339.4352,409.0625 L342.0986,410.1218 L345.16,411.9696 L347.9323,413.2445 L347.8888,413.1559 L350.8803,414.7408 L353.8711,416.3244 L356.8186,417.8199 L359.6004,418.9781 L362.5162,420.409 L362.5545,420.4893 L365.5713,422.0188 L368.5778,423.5265 L371.271,424.3768 L374.4483,426.243 L377.3169,427.4614 L377.4502,427.7512 L380.2937,428.8146 L383.2173,430.0524 L386.1641,431.3404 L389.1315,432.6732 L392.25,434.3342 L392.3259,434.5058 L395.3009,435.783 L398.1502,436.7758 L401.2914,438.4287 L404.1681,439.4836 L407.2311,440.9597 L407.1185,440.6931 L410.1135,441.9696 L413.329,443.7681 L416.146,444.6232 L419.1812,445.9948 L422.1759,447.2706 L422.1074,447.0994 L425.2094,448.628 L428.1437,449.7374 L431.1456,451.0159 L434.0086,451.9471 L437,453.1992 L437.0059,453.2155 L440.4286,454.2792 L444.0407,455.863 L447.4547,456.9028 L450.9002,458.029 L454.4961,459.5684 L454.434,459.3774 L458.1532,460.887 L461.6668,461.7643 L465.2912,462.9825 L468.9037,464.1642 L472.5463,465.438 L472.4681,465.1734 L476.1607,466.5085 L479.8516,467.838 L483.3645,468.5648 L487.0603,469.9108 L490.6133,470.7731 L490.5268,470.4547 L494.1975,472.0019 L497.7026,472.9398 L501.1655,473.7217 L504.7212,474.8456 L508.16,475.5392 " fill="none" style="stroke: #A80036; stroke-width: 1.0;"/><polygon fill="#A80036" points="513.29,476.8592,513.3001,476.872,511.8262,475.739,510.332,474.5805,508.5378,473.0427,507.1768,472.0525,505.5668,470.7475,505.7195,470.8379,506.0807,471.6845,506.9212,472.8147,507.2982,473.6707,508.0853,474.7693,508.4469,475.6163,508.5582,475.8045,507.4179,476.0989,506.577,476.8994,505.4411,477.2014,504.6307,478.0536,503.5782,478.4964,503.5976,478.6115,505.5539,478.3671,507.4504,477.7673,509.4418,477.7309,511.3374,477.1258,513.29,476.8592" style="stroke: #A80036; stroke-width: 1.0;"/><path d="M232.79,315.8392 L232.5745,315.6326 L235.896,312.4725 L239.1432,309.2411 L242.2091,305.836 L245.4835,302.6307 L248.6366,299.3091 L248.7234,299.3951 L250.6838,297.5924 L252.3011,295.4503 L254.436,293.8204 L255.8969,291.5233 L257.9946,289.8566 L257.9106,289.7714 L259.817,287.6114 L262.1363,285.8701 L263.9016,283.5668 L266.0246,281.6264 L268.2275,279.767 L268.2099,279.7488 L270.531,277.7429 L272.6236,275.4992 L274.7375,273.2777 L277.282,271.5046 L279.2742,269.1563 L279.3259,269.2117 L281.4594,266.7661 L283.9844,264.7398 L286.3844,262.5797 L288.9357,260.5815 L291.0734,258.1404 L291.1679,258.2448 L293.7066,256.0286 L296.2932,253.8653 L298.4686,251.2476 L301.2362,249.2844 L303.5641,246.8352 L303.5092,246.7725 L305.9711,244.2913 L308.7572,242.1807 L311.4997,240.0202 L314.0836,237.6784 L316.685,235.3567 L316.6069,235.264 L319.5868,233.2439 L322.0254,230.5815 L324.9565,228.5034 L327.6362,226.1271 L330.375,223.8208 L330.3169,223.749 L333.2236,221.5364 L335.9261,219.0715 L338.7447,216.75 L341.6388,214.522 L344.5728,212.3433 L344.6082,212.3892 L347.5234,210.1108 L350.3643,207.7362 L353.2867,205.4671 L356.328,203.3522 L359.2174,201.0403 L359.3653,201.2422 L362.1476,198.7344 L365.2162,196.6172 L368.1502,194.3163 L371.1947,192.1663 L374.2475,190.0277 L374.1773,189.926 L377.1651,187.6845 L380.4234,185.8344 L383.3546,183.511 L386.5466,181.5651 L389.602,179.4213 L389.6025,179.422 L392.8394,177.5808 L395.9476,175.5403 L398.9723,173.3704 L402.0135,171.226 L405.2197,169.3371 L405.3591,169.5707 L408.3404,167.3756 L411.7015,165.8165 L414.5685,163.43 L417.939,161.8867 L421.0394,159.8911 L421.1666,160.1247 L424.2971,158.2732 L427.5664,156.6764 L430.503,154.469 L433.6563,152.6592 L437,151.1992 L437.1091,151.4329 L439.9712,149.5365 L443.2428,148.5174 L446.2602,146.9536 L449.2413,145.3122 L452.3844,144.0177 L452.4017,144.0625 L455.5259,142.5576 L458.7677,141.3574 L461.9873,140.0997 L465.2144,138.8614 L468.5075,137.7942 L468.5044,137.7846 L471.84,136.884 L475.0625,135.6349 L478.2879,134.3943 L481.6808,133.6705 L484.9194,132.4708 L484.9144,132.4526 L488.193,131.6596 L491.4428,130.7623 L494.6156,129.5855 L497.9339,128.9366 L501.17,127.9892 " fill="none" style="stroke: #A80036; stroke-width: 1.0;"/><polygon fill="#A80036" points="506.27,126.7292,506.2854,126.8157,504.293,126.1728,502.4024,126.1016,500.4373,125.612,498.5341,125.4704,496.5733,125.0046,496.5544,124.9733,497.5713,125.6382,498.6122,126.3427,499.4221,126.6648,500.5367,127.4916,501.4159,127.9285,501.5227,127.9929,500.8872,128.9308,500.3567,129.9321,499.7617,130.8945,499.0878,131.8092,498.4921,132.7711,498.395,132.6461,500.0726,131.5948,501.5191,130.246,503.0872,129.0537,504.8498,128.1119,506.27,126.7292" style="stroke: #A80036; stroke-width: 1.0;"/><path d="M232.61,326.3492 L232.4858,326.1323 L235.8561,324.3036 L239.2435,322.505 L242.4524,320.3945 L245.907,318.7132 L249.244,316.8263 L249.1212,316.6065 L253.27,314.3865 L257.5931,312.4787 L261.6266,310.0523 L265.7222,307.7371 L269.7814,305.3569 L269.7167,305.2376 L274.663,303.0171 L279.3506,300.3197 L284.1824,297.8881 L288.7265,294.9261 L293.544,292.4683 L293.5998,292.5746 L298.9029,289.8973 L303.9833,286.7946 L309.3069,284.1561 L314.7247,281.6978 L319.8538,278.688 L319.9244,278.8271 L322.4938,277.0012 L325.4988,276.033 L328.156,274.3801 L331.0718,273.2363 L333.7518,271.6283 L333.6666,271.4564 L336.6595,270.3152 L339.5602,268.9881 L342.3777,267.4933 L345.2316,266.0719 L348.0324,264.5435 L347.9012,264.2721 L350.9528,263.1445 L353.9019,261.8051 L356.7679,260.2934 L359.6596,258.8351 L362.6106,257.4995 L362.5691,257.411 L365.6702,256.3281 L368.4538,254.5683 L371.4847,253.3359 L374.5065,252.084 L377.4017,250.5622 L377.3433,250.4334 L380.3488,249.1281 L383.3955,247.9139 L386.2799,246.3415 L389.401,245.2913 L392.321,243.7976 L392.2414,243.615 L395.3141,242.4937 L398.2079,240.9621 L401.184,239.6192 L404.2651,238.5172 L407.2837,237.2716 L407.3498,237.4303 L410.3431,236.2077 L413.276,234.8402 L416.1674,233.3732 L419.2336,232.3255 L422.2049,231.0502 L422.1837,230.9966 L425.0799,229.6675 L428.1202,228.703 L431.1262,227.6515 L434.1189,226.5663 L437,225.1992 L436.9092,224.9475 L440.564,224.0029 L443.9604,222.342 L447.5418,221.194 L451.2528,220.4053 L454.6777,218.8233 L454.6038,218.5948 L458.3373,217.6906 L462.0113,216.6024 L465.5761,215.1762 L469.2716,214.1546 L472.9038,212.9367 L472.9054,212.9423 L476.5508,211.8727 L480.0995,210.4741 L483.7607,209.4583 L487.4786,208.6351 L491.128,207.5789 L491.1921,207.8155 L494.626,206.4867 L498.1476,205.4815 L501.7714,204.8534 L505.2074,203.5326 L508.8,202.7892 " fill="none" style="stroke: #A80036; stroke-width: 1.0;"/><polygon fill="#A80036" points="513.65,201.5392,513.6265,201.3992,511.7353,201.3793,509.7508,200.8036,507.8546,200.7539,505.9182,200.4651,503.937,199.9089,503.9492,199.9296,504.8323,200.3506,505.9235,201.1241,506.9715,201.8245,507.7939,202.143,508.8078,202.7856,508.8139,202.7892,508.0336,203.6423,507.5002,204.6412,507.0196,205.6713,506.399,206.6187,505.9312,207.6564,506.0059,207.7507,507.4804,206.4398,509.1026,205.3154,510.5934,204.0251,511.9618,202.5804,513.65,201.5392" style="stroke: #A80036; stroke-width: 1.0;"/><path d="M232.5,360.3192 L232.598,360.4128 L235.8623,363.8214 L238.8016,366.9197 L242.0765,370.3385 L245.3409,373.7471 L248.3135,376.8772 L248.0833,376.6502 L250.2798,378.8689 L251.8874,380.5068 L253.8838,382.5282 L255.6821,384.3542 L257.6659,386.3631 L257.8629,386.562 L259.5146,388.1901 L261.7443,390.4017 L263.7917,392.4293 L265.8988,394.5172 L267.8998,396.498 L267.7348,396.327 L270.2842,398.8112 L272.5376,400.9889 L274.4996,402.8644 L276.7466,405.0354 L278.9536,407.1648 L278.9282,407.1378 L281.1753,409.2314 L283.6933,411.6137 L286.053,413.8272 L288.4039,416.0314 L290.7653,418.2469 L290.9712,418.4731 L293.2117,420.4622 L295.8475,422.8858 L298.3589,425.1726 L300.7558,427.3336 L303.2735,429.6273 L303.2249,429.5721 L305.7687,431.7881 L308.6259,434.3604 L311.2568,436.6755 L313.891,438.9942 L316.4163,441.1892 L316.4363,441.2129 L319.3082,443.69 L321.8637,445.7941 L324.699,448.2281 L327.3462,450.4402 L330.132,452.8158 L330.1424,452.8286 L333.1697,455.3671 L335.9373,457.5865 L338.7825,459.9012 L341.3178,461.8349 L344.3589,464.3903 L344.2117,464.2009 L347.1499,466.4858 L350.2815,469.0194 L353.0908,471.1384 L356.1052,473.5214 L359.0353,475.7958 L358.8694,475.571 L362.0092,477.9669 L365.1268,480.3329 L368.1206,482.5309 L370.9175,484.4624 L374.0995,486.9155 L374.2228,487.0925 L377.1826,489.066 L380.129,491.0204 L383.2188,493.1806 L386.4658,495.5667 L389.4898,497.6325 L389.3176,497.368 L392.5089,499.5003 L395.9271,501.9808 L398.7293,503.5156 L401.9635,505.7136 L405.1445,507.83 L405.1757,507.8818 L408.4471,509.9597 L411.3766,511.4708 L414.6846,513.6094 L417.8309,515.4799 L421.0018,517.3912 L420.888,517.1845 L424.249,519.2393 L427.2664,520.6698 L430.6168,522.7053 L433.9002,524.6189 L437,526.1992 L436.9484,526.09 L440.0946,527.5917 L443.1858,528.9773 L446.5113,530.8586 L449.6803,532.4088 L452.6834,533.6077 L452.5878,533.3628 L455.8989,534.7035 L459.2086,536.0405 L462.6663,537.7564 L465.9015,538.9027 L469.13,540.0317 L469.1635,540.1337 L472.5357,541.3121 L475.7279,541.9426 L479.0882,543.0846 L482.6172,544.7404 L485.8616,545.5295 L485.7993,545.307 L489.1208,546.2824 L492.4986,547.4588 L495.8305,548.4712 L499.0135,548.9518 L502.4,550.1592 " fill="none" style="stroke: #A80036; stroke-width: 1.0;"/><polygon fill="#A80036" points="507.29,551.3992,507.24,551.3357,505.6317,550.041,504.2286,549.0072,502.5351,547.6042,500.9544,546.3446,499.5499,545.309,499.5255,545.2944,499.9768,546.1907,500.6821,547.2382,501.0971,548.1129,502.0597,549.3136,502.4435,550.1697,502.5474,550.3443,501.3906,550.6127,500.4357,551.2204,499.4136,551.7153,498.6354,552.6198,497.5827,553.0633,497.6068,553.2037,499.5234,552.7259,501.4589,552.3581,503.4243,552.1654,505.3473,551.7247,507.29,551.3992" style="stroke: #A80036; stroke-width: 1.0;"/><path d="M232.63,334.0092 L232.4615,333.2005 L242.4355,331.2687 L252.6613,330.5455 L262.5578,328.242 L272.4982,326.1486 L282.4073,323.9055 L292.1311,320.7727 L302.2411,319.4936 L312.2611,317.7829 L322.1621,315.5004 L332.0795,313.2971 L341.9137,310.6945 L352.1443,309.9942 L361.7118,306.1113 L371.8292,304.8678 L381.9526,303.6534 L391.6735,300.5064 L401.8919,299.7478 L411.5295,296.2016 L421.5455,294.4713 L431.3897,291.9166 L441.4968,290.6237 L451.3207,287.9714 L461.2503,285.8265 L471.3528,284.5115 L481.3394,282.6402 L491.0475,279.4323 L501.14,278.0692 " fill="none" style="stroke: #A80036; stroke-width: 1.0;"/><polygon fill="#A80036" points="506.09,277.0392,506.1259,277.2044,504.1228,276.4256,502.203,276.0301,500.3521,275.9514,498.3614,275.2299,496.466,274.9466,496.4818,274.9705,497.4341,275.6021,498.4877,276.3878,499.2217,276.6869,500.2098,277.373,501.1938,278.0527,501.1106,277.998,500.7431,279.1103,499.8326,279.8658,499.2423,280.8317,498.519,281.7102,498.0876,282.7805,498.1782,282.9067,499.5555,281.4474,501.2547,280.4367,502.7576,279.1525,504.3615,278.009,506.09,277.0392" style="stroke: #A80036; stroke-width: 1.0;"/><path d="M232.63,338.1992 L232.63,338.4709 L242.6856,337.3683 L252.7412,337.6565 L262.7968,338.9239 L272.8524,339.011 L282.908,338.8052 L292.9636,338.7336 L303.0192,338.6972 L313.0748,338.7493 L323.1304,338.7399 L333.186,337.8392 L343.2416,337.3683 L353.2972,337.515 L363.3528,339.0763 L373.4084,339.1031 L383.464,338.6534 L393.5196,338.3634 L403.5752,338.4873 L413.6308,338.4267 L423.6864,338.5009 L433.742,337.8959 L443.7976,338.82 L453.8532,338.2297 L463.9088,338.3055 L473.9644,338.6903 L484.02,338.1992 " fill="none" style="stroke: #A80036; stroke-width: 1.0;"/><polygon fill="#A80036" points="489.25,338.1992,489.2735,338.2521,487.3787,337.2389,485.6086,336.5061,483.9054,335.9239,482.1104,335.1351,480.25,334.1992,480.4102,334.3595,481.0323,334.9815,481.7112,335.6604,482.5096,336.4588,483.5152,337.4644,484.25,338.1992,484.149,338.0982,483.5137,339.063,482.7674,339.9166,481.8485,340.5977,481.0862,341.4354,480.25,342.1992,480.1893,342.0627,482.1386,341.5985,483.8472,340.5928,485.7439,340.0105,487.4052,338.8985,489.25,338.1992" style="stroke: #A80036; stroke-width: 1.0;"/><path d="M232.63,342.4492 L232.741,342.9752 L242.2848,343.7245 L252.3663,347.0213 L262.0824,348.5871 L271.8349,350.3249 L281.607,352.1562 L291.5984,355.0257 L301.3794,356.8993 L311.1384,358.6682 L321.1793,361.7724 L330.8291,363.024 L340.6325,365.0034 L350.4576,367.0853 L360.3421,369.4491 L370.2782,372.0569 L380.161,374.4122 L389.8579,375.887 L399.5017,377.1103 L409.5724,380.3557 L419.339,382.1604 L429.087,383.8777 L438.7919,385.3902 L448.6401,387.5816 L458.4074,389.39 L468.4252,392.3846 L478.0631,393.5804 L487.9162,395.7948 L497.86,398.4392 " fill="none" style="stroke: #A80036; stroke-width: 1.0;"/><polygon fill="#A80036" points="502.82,399.4892,502.7456,399.3862,501.2225,398.3343,499.6157,397.1664,498.1221,396.1553,496.2964,394.6846,494.8371,393.7209,494.6796,393.6182,495.6643,394.805,495.9114,395.5107,496.7111,396.5768,497.1368,397.3991,497.9273,398.4592,497.9596,398.5088,496.993,399.0978,495.93,399.5389,495.0396,400.2447,494.2083,401.0411,493.189,401.5493,493.1952,401.5781,495.1064,401.096,497.002,400.5412,498.988,400.4088,500.8497,399.6949,502.82,399.4892" style="stroke: #A80036; stroke-width: 1.0;"/><path d="M417.22,620.2192 L417.2211,620.278 L423.1129,619.9166 L429.0195,620.3224 L434.911,619.9511 L440.8092,619.9259 L446.7025,619.6465 L446.709,619.9795 L447.4224,619.5831 L448.139,619.3513 L448.8673,619.7208 L449.5804,619.3077 L450.3068,619.5765 L450.309,619.6899 L450.6699,619.7932 L451.0251,619.6048 L451.3771,619.2543 L451.7462,619.7778 L452.1004,619.5416 L452.1006,619.5479 L452.2753,619.3288 L452.4544,619.3334 L452.6385,619.5981 L452.8174,619.5923 L452.995,619.5243 " fill="none" style="stroke: #A80036; stroke-width: 1.0; stroke-dasharray: 7.0,7.0;"/></g></svg>