<?xml version="1.0" encoding="UTF-8" standalone="no"?><svg xmlns="http://www.w3.org/2000/svg" xmlns:xlink="http://www.w3.org/1999/xlink" contentScriptType="application/ecmascript" contentStyleType="text/css" height="682px" preserveAspectRatio="none" style="width:991px;height:682px;" version="1.1" viewBox="0 0 991 682" width="991px" zoomAndPan="magnify"><defs><filter height="300%" id="ftekmlc" width="300%" x="-1" y="-1"><feGaussianBlur result="blurOut" stdDeviation="2.0"/><feColorMatrix in="blurOut" result="blurOut2" type="matrix" values="0 0 0 0 0 0 0 0 0 0 0 0 0 0 0 0 0 0 .4 0"/><feOffset dx="4.0" dy="4.0" in="blurOut2" result="blurOut3"/><feBlend in="SourceGraphic" in2="blurOut3" mode="normal"/></filter></defs><g><text fill="#000000" font-family="sans-serif" font-size="18" lengthAdjust="spacingAndGlyphs" textLength="252" x="383" y="17.4023">ユースケース：固定ページ管理</text><!--cluster 固定ページ管理--><polygon fill="#FFFFFF" filter="url(#ftekmlc)" points="327,45.1992,327,45.9235,337.4,45.3437,347.8,45.9281,358.2,44.6428,368.6,45.51,379,44.9499,389.4,44.6697,399.8,45.0402,410.2,44.9918,420.6,45.5225,431,45.1992,431.2139,45.2658,432.3918,49.6943,433.7831,54.1893,435.2265,58.7004,436.5722,63.1812,438,67.6875,438,68.1856,447.9273,67.2841,457.8545,67.7316,467.7818,67.435,477.7091,67.7751,487.6364,68.354,497.5636,67.9756,507.4909,67.0645,517.4182,67.1477,527.3455,67.0083,537.2727,67.0044,547.2,67.043,557.1273,67.8807,567.0545,67.7949,576.9818,67.054,586.9091,66.9508,596.8364,68.0546,606.7636,67.8315,616.6909,66.9379,626.6182,67.597,636.5455,68.026,646.4727,68.3718,656.4,67.4808,666.3273,67.4169,676.2545,66.9805,686.1818,67.6031,696.1091,68.4297,706.0364,67.2757,715.9636,68.3488,725.8909,67.2376,735.8182,67.8873,745.7455,68.3939,755.6727,68.1722,765.6,68.3779,775.5273,67.2916,785.4545,68.0657,795.3818,67.0884,805.3091,67.2562,815.2364,68.2803,825.1636,67.248,835.0909,67.2742,845.0182,67.27,854.9455,67.4152,864.8727,66.9632,874.8,67.9169,884.7273,67.2611,894.6545,67.2107,904.5818,68.2702,914.5091,67.6117,924.4364,68.2165,934.3636,67.2047,944.2909,68.3284,954.2182,67.4736,964.1455,67.5007,974.0727,67.4345,984,67.6875,984.1128,67.6875,983.5423,77.6467,984.174,87.6059,983.4443,97.5651,983.8242,107.5243,983.4266,117.4835,983.6087,127.4428,983.5433,137.402,984.7294,147.3612,984.3226,157.3204,983.7116,167.2796,984.2029,177.2388,984.3092,187.198,983.3197,197.1572,983.874,207.1164,984.4815,217.0756,983.5628,227.0348,984.1259,236.994,983.6522,246.9533,983.5667,256.9125,984.2412,266.8717,984.1533,276.8309,984.2732,286.7901,984.5525,296.7493,984.4121,306.7085,984.532,316.6677,984.097,326.6269,984.1803,336.5861,983.3346,346.5453,983.8324,356.5045,983.9171,366.4638,983.7063,376.423,983.9736,386.3822,983.3742,396.3414,984.2365,406.3006,983.6343,416.2598,984.2794,426.219,984.6808,436.1782,983.6226,446.1374,983.4605,456.0966,984.1112,466.0558,983.8913,476.015,983.4095,485.9743,983.8052,495.9335,983.3906,505.8927,984.2802,515.8519,984.3867,525.8111,984.3724,535.7703,984.2268,545.7295,984.4438,555.6887,984.1853,565.6479,984.0632,575.6071,983.8696,585.5663,984.2066,595.5256,983.8493,605.4848,983.2891,615.444,983.9109,625.4032,984.3666,635.3624,984.0578,645.3216,984.0752,655.2808,983.6711,665.24,984,675.1992,984,675.7477,974.0455,675.3457,964.0909,675.1166,954.1364,674.8808,944.1818,675.3548,934.2273,675.1627,924.2727,675.2577,914.3182,675.2954,904.3636,675.4169,894.4091,674.8776,884.4545,675.5792,874.5,675.9413,864.5455,674.51,854.5909,675.6616,844.6364,674.6606,834.6818,675.0532,824.7273,675.3853,814.7727,674.6422,804.8182,675.7468,794.8636,675.0132,784.9091,674.4814,774.9545,674.7427,765,675.8759,755.0455,675.6616,745.0909,675.6087,735.1364,675.41,725.1818,674.7641,715.2273,675.4281,705.2727,675.7914,695.3182,674.843,685.3636,675.2136,675.4091,675.6806,665.4545,675.5212,655.5,674.64,645.5455,675.3083,635.5909,675.2822,625.6364,674.5294,615.6818,674.7918,605.7273,675.4879,595.7727,675.8969,585.8182,675.611,575.8636,674.6629,565.9091,674.7485,555.9545,675.5877,546,675.0419,536.0455,674.5194,526.0909,674.696,516.1364,675.2053,506.1818,675.7121,496.2273,675.7802,486.2727,675.4953,476.3182,674.4757,466.3636,675.2654,456.4091,674.9925,446.4545,674.8926,436.5,675.5545,426.5455,675.7706,416.5909,675.5577,406.6364,674.4577,396.6818,674.6338,386.7273,675.2735,376.7727,674.9637,366.8182,675.4891,356.8636,674.9524,346.9091,675.4724,336.9545,675.7101,327,675.1992,326.9478,675.1992,327.0848,665.1992,327.0374,655.1992,326.55,645.1992,326.631,635.1992,326.9509,625.1992,326.541,615.1992,326.9058,605.1992,327.3967,595.1992,326.9342,585.1992,326.916,575.1992,327.6718,565.1992,326.827,555.1992,326.5484,545.1992,327.0363,535.1992,326.8364,525.1992,326.6822,515.1992,326.6536,505.1992,326.336,495.1992,327.3294,485.1992,327.4474,475.1992,326.893,465.1992,326.9257,455.1992,326.3375,445.1992,326.4695,435.1992,326.5683,425.1992,327.2183,415.1992,327.2862,405.1992,326.301,395.1992,326.7623,385.1992,326.2971,375.1992,326.9471,365.1992,327.6187,355.1992,326.8644,345.1992,326.3578,335.1992,326.8863,325.1992,327.159,315.1992,326.4535,305.1992,327.2346,295.1992,326.9366,285.1992,327.5182,275.1992,326.7457,265.1992,326.7781,255.1992,326.5374,245.1992,326.898,235.1992,327.0203,225.1992,327.1869,215.1992,326.6626,205.1992,326.4381,195.1992,327.5944,185.1992,327.3048,175.1992,327.1237,165.1992,327.667,155.1992,326.5296,145.1992,326.3905,135.1992,327.3136,125.1992,326.818,115.1992,326.8205,105.1992,327.4325,95.1992,326.937,85.1992,326.3063,75.1992,326.829,65.1992,327.7295,55.1992,327,45.1992" style="stroke: #000000; stroke-width: 2.0;"/><path d="M327,67.6875 L327,68.2907 L337.0909,67.7286 L347.1818,68.6262 L357.2727,67.9305 L367.3636,66.8046 L377.4545,68.185 L387.5455,66.9502 L397.6364,67.0815 L407.7273,68.1955 L417.8182,68.0726 L427.9091,67.9051 L438,67.6875 " fill="#FFFFFF" style="stroke: #000000; stroke-width: 2.0;"/><text fill="#000000" font-family="sans-serif" font-size="14" font-weight="bold" lengthAdjust="spacingAndGlyphs" textLength="98" x="331" y="60.7344">固定ページ管理</text><polygon fill="#FEFECE" filter="url(#ftekmlc)" points="555.9481,643.5748,551.2576,646.1449,547.8495,649.3122,539.5556,651.5704,532.8568,654.2978,521.7999,656.0294,509.3932,657.3478,498.256,658.7492,484.2,659.1793,473.1377,659.8995,460.3038,659.741,444.9616,658.4671,432.9747,657.3628,424.3524,656.3897,414.0902,654.38,404.4582,651.8441,395.5706,648.8162,391.3674,646.2213,389.4831,643.5591,386.4291,640.0873,387.6025,637.1076,391.6732,634.3959,397.9717,631.8889,404.1995,629.1587,412.2082,626.7306,422.6957,624.8689,432.9065,623.0487,447.6553,622.4726,459.847,621.6165,472.2987,621.2137,484.0646,621.1282,498.0045,622.0817,511.0825,623.4353,520.6814,624.6315,530.2021,626.4718,541.1928,629.3182,547.5957,631.7783,553.8554,634.8431,555.2913,637.4029,558.0057,640.7971" style="stroke: #A80036; stroke-width: 1.5;"/><text fill="#000000" font-family="sans-serif" font-size="14" lengthAdjust="spacingAndGlyphs" textLength="140" x="402.2351" y="645.1904">固定ページを表示する</text><polygon fill="#FEFECE" filter="url(#ftekmlc)" points="554.8265,179.3185,550.9458,182.0736,548.7777,185.5243,541.6458,188.0479,530.266,189.7058,520.9442,191.8339,510.0732,193.5032,499.0805,194.9375,486.813,195.7763,470.7756,195.3598,460.1331,195.702,447.2126,194.9815,434.5733,193.728,423.1343,192.1114,411.6742,189.828,402.7444,187.4525,397.0668,185.1581,392.7975,182.5481,389.4405,179.5493,389.253,176.7325,388.6699,173.3514,392.15,170.5048,396.6846,167.5948,404.3932,165.203,413.7614,163.0855,423.1217,160.9662,434.658,159.4489,447.7757,158.5001,459.1492,157.457,471.7888,157.0972,486.4789,157.6799,499.6342,158.454,510.8841,159.39,521.4221,160.8008,530.4948,162.5387,540.7994,165.2283,548.7274,168.0369,553.9201,170.8579,555.4817,173.4464,554.9276,176.0938" style="stroke: #A80036; stroke-width: 1.5;"/><text fill="#000000" font-family="sans-serif" font-size="14" lengthAdjust="spacingAndGlyphs" textLength="140" x="402.2351" y="181.1904">固定ページを作成する</text><polygon fill="#FEFECE" filter="url(#ftekmlc)" points="556.8725,252.786,553.7645,255.7177,548.2601,258.4061,541.2205,260.9508,531.9185,263.0834,521.7688,265.0223,510.5132,266.6037,499.3866,268.0075,484.2772,268.1969,471.5405,268.5346,459.3613,268.5256,444.8377,267.4388,432.6422,266.2868,423.8021,265.264,412.0294,262.9091,403.2747,260.5736,395.7129,257.8487,393.7026,255.7549,389.7185,252.6128,386.4662,249.0958,390.3737,246.7407,391.189,243.2852,397.8453,240.8601,402.8906,237.8596,413.4362,236.0112,422.8914,233.9136,435.2499,232.5842,446.0342,231.1022,459.6318,230.5673,473.3209,230.4473,486.6281,230.714,497.0137,230.8553,508.8598,231.9275,521.2596,233.7636,531.4348,235.7535,540.4106,238.1395,546.1267,240.4427,551.8922,243.3946,556.2682,246.6261,554.8867,249.0844" style="stroke: #A80036; stroke-width: 1.5;"/><text fill="#000000" font-family="sans-serif" font-size="14" lengthAdjust="spacingAndGlyphs" textLength="140" x="402.2351" y="254.1904">固定ページを編集する</text><polygon fill="#FEFECE" filter="url(#ftekmlc)" points="544.8408,323.0223,542.1236,325.588,537.8048,328.0477,532.0789,330.3613,524.4101,332.3142,515.9143,334.0743,506.1149,335.4384,495.8975,336.5232,483.143,336.7494,472.36,337.089,460.1871,336.6884,448.5598,335.9386,437.966,334.9051,428.0387,333.467,419.8855,331.861,412.1073,329.7536,407.2124,327.7368,404.1644,325.5906,401.004,322.8935,399.3083,320.0616,399.5117,317.256,404.4012,315.1966,407.0048,312.3371,411.9264,309.836,420.3417,308.0572,430.0254,306.5739,439.0638,305.0324,449.8221,304.0737,460.9436,303.4669,471.8659,303.1598,484.6103,303.6936,494.6264,304.0679,504.7865,305.0003,515.6084,306.6468,523.6243,308.2208,530.6624,310.1557,536.0534,312.2882,541.9797,315.1053,542.895,317.2791,544.6148,320.1166" style="stroke: #A80036; stroke-width: 1.5;"/><text fill="#000000" font-family="sans-serif" font-size="14" lengthAdjust="spacingAndGlyphs" textLength="112" x="416.0352" y="324.8504">下書きを保存する</text><polygon fill="#FEFECE" filter="url(#ftekmlc)" points="598.4239,404.6075,593.2788,408.8162,587.6572,413.3663,576.983,417.1152,563.7874,420.4664,548.2316,423.3016,531.3632,425.6963,510.0921,426.8253,490.0896,427.7859,470.9271,428.3533,452.8896,428.4725,431.7654,427.1228,413.4585,425.5144,397.3397,423.4509,383.3382,420.8807,365.6939,416.5327,358.8305,413.572,350.526,409.3627,345.0589,404.8992,343.6123,400.5205,344.6707,395.9953,347.8877,391.3652,357.862,387.7666,367.4631,383.7831,380.4116,380.3779,395.4737,377.4347,414.9083,375.601,430.1204,373.1475,452.2597,372.654,474.2806,372.7115,491.4831,372.4098,513.4139,373.9358,529.6632,375.0944,548.2626,377.7002,562.5425,380.3312,577.172,384.0202,585.1998,387.2354,594.5225,391.6673,599.2529,395.9698,602.2343,400.684" style="stroke: #A80036; stroke-width: 1.5;"/><text fill="#000000" font-family="sans-serif" font-size="14" lengthAdjust="spacingAndGlyphs" textLength="238" x="352.9371" y="405.1308">固定ページテンプレートを切り替える</text><polygon fill="#FEFECE" filter="url(#ftekmlc)" points="560.7295,487.2926,557.7489,490.4902,552.1193,493.4111,543.5123,495.8776,537.3478,499.0091,525.5885,500.873,513.4921,502.549,500.3323,503.7638,487.2994,504.6838,471.3087,504.5147,458.8388,504.6393,442.5377,503.3193,431.0053,502.4447,417.0691,500.3475,406.6091,498.334,399.9556,496.4702,390.5219,493.2725,384.1913,490.1,382.641,487.3755,379.7358,483.7674,381.1204,480.6272,385.2586,477.692,390.8683,474.7665,399.2568,472.2505,409.638,470.0744,418.1776,467.481,432.0106,466.1985,444.8706,464.9157,456.4881,463.675,472.7703,463.9102,484.8193,463.6902,501.4435,465.0834,511.8695,465.7074,524.7302,467.5609,537.4724,470.0914,543.7107,471.8612,552.9581,475.0167,559.1495,478.1576,560.5508,480.8484,560.6322,483.8167" style="stroke: #A80036; stroke-width: 1.5;"/><text fill="#000000" font-family="sans-serif" font-size="14" lengthAdjust="spacingAndGlyphs" textLength="154" x="394.8393" y="488.9112">記事にコードを埋め込む</text><polygon fill="#FBFB77" filter="url(#ftekmlc)" points="661,471.6992,661.0735,471.6992,660.8638,476.7613,661.2486,481.8234,661.1864,486.8855,660.8583,491.9477,661,497.0098,661,496.423,670.9032,497.3644,680.8065,496.4419,690.7097,497.5014,700.6129,497.5071,710.5161,496.2599,720.4194,497.2583,730.3226,496.6777,740.2258,496.3656,750.129,497.1004,760.0323,497.5794,769.9355,496.4907,779.8387,497.3305,789.7419,497.4363,799.6452,496.6021,809.5484,497.2929,819.4516,496.425,829.3548,496.7149,839.2581,496.3334,849.1613,496.3619,859.0645,497.5266,868.9677,497.2124,878.871,496.4249,888.7742,497.1568,898.6774,497.0642,908.5806,497.097,918.4839,496.4015,928.3871,497.7221,938.2903,496.5936,948.1935,497.4981,958.0968,497.1656,968,497.0098,967.9485,497.0098,967.965,493.9477,968.1493,490.8855,968.0808,487.8234,967.9979,484.7613,968,481.6992,967.8378,481.537,966.1067,479.8059,963.8465,477.5458,961.828,475.5272,960.0148,473.714,958,471.6992,958,471.6034,948.1,471.3703,938.2,472.1966,928.3,471.2129,918.4,472.0627,908.5,472.2205,898.6,471.4484,888.7,472.3712,878.8,472.422,868.9,471.8284,859,471.2508,849.1,471.4027,839.2,472.2884,829.3,471.0708,819.4,471.8203,809.5,471.9155,799.6,471.8389,789.7,471.203,779.8,471.049,769.9,472.0042,760,472.1951,750.1,471.4275,740.2,471.34,730.3,470.975,720.4,470.9954,710.5,472.3569,700.6,471.8715,690.7,471.8086,680.8,471.7886,670.9,472.1042,661,471.6992" style="stroke: #A80036; stroke-width: 1.0;"/><polygon fill="#FBFB77" points="661,471.6992,661.2404,471.6992,661.1862,473.3992,661.1526,475.0992,661.0536,476.7992,661.1032,478.4992,661,480.1992,660.9925,480.0149,651.1659,479.9826,641.39,481.1956,631.5587,481.0486,621.7612,481.7304,611.9267,481.5054,602.157,482.868,592.3222,482.6362,582.5328,483.5165,572.7432,484.3916,562.91,484.1992,562.9257,484.5846,572.7001,484.1359,582.5366,485.209,592.3256,485.1192,602.1188,485.132,611.9717,486.6076,621.7814,487.0262,631.5686,486.892,641.3924,487.6538,651.1863,487.6852,661,488.1992,660.8727,488.1992,661.0302,489.9613,660.8129,491.7234,660.9928,493.4855,660.8153,495.2477,661,497.0098,661,497.0853,670.9032,497.2299,680.8065,496.2983,690.7097,496.4394,700.6129,497.3389,710.5161,497.7359,720.4194,496.7633,730.3226,496.928,740.2258,497.1173,750.129,496.845,760.0323,496.3902,769.9355,496.9626,779.8387,497.3727,789.7419,496.4289,799.6452,497.3555,809.5484,497.0485,819.4516,496.683,829.3548,497.0403,839.2581,496.3338,849.1613,497.138,859.0645,496.5477,868.9677,497.2798,878.871,497.4887,888.7742,497.1019,898.6774,496.4514,908.5806,497.5938,918.4839,496.705,928.3871,497.6511,938.2903,496.973,948.1935,496.7235,958.0968,497.3681,968,497.0098,968.0148,497.0098,967.9691,493.9477,967.9809,490.8855,967.9295,487.8234,967.8585,484.7613,968,481.6992,967.9923,481.6915,966.1571,479.8563,963.8396,477.5389,961.8633,475.5625,959.9493,473.6485,958,471.6992,958,471.3371,948.1,472.1717,938.2,470.9546,928.3,471.1561,918.4,471.2251,908.5,471.4063,898.6,471.6295,888.7,472.2584,878.8,471.8635,868.9,472.0578,859,472.2556,849.1,471.2903,839.2,471.2514,829.3,471.7512,819.4,472.1389,809.5,471.1212,799.6,472.0159,789.7,471.363,779.8,471.2796,769.9,471.5164,760,471.139,750.1,472.4485,740.2,472.1812,730.3,472.145,720.4,471.3029,710.5,471.9804,700.6,471.4228,690.7,471.1291,680.8,471.7088,670.9,471.7533,661,471.6992" style="stroke: #A80036; stroke-width: 1.0;"/><path d="M958,471.6992 L957.8519,471.6992 L957.9896,473.6992 L957.992,475.6992 L958.3067,477.6992 L957.6826,479.6992 L958,481.6992 " fill="#FBFB77" style="stroke: #A80036; stroke-width: 1.0;"/><path d="M968,481.6992 L968,481.6752 L966,481.5115 L964,481.631 L962,481.4488 L960,481.4084 L958,481.6992 " fill="#FBFB77" style="stroke: #A80036; stroke-width: 1.0;"/><text fill="#000000" font-family="sans-serif" font-size="13" lengthAdjust="spacingAndGlyphs" textLength="286" x="667" y="489.2676">システム管理者のみが可能 ※ baserCMS５で廃止</text><polygon fill="#FEFECE" filter="url(#ftekmlc)" points="574.1357,566.9085,568.4827,569.9942,563.8648,573.6744,555.9399,576.8633,542.7864,579.0098,533.1108,581.9329,519.2649,583.7996,503.3378,584.9542,489.8868,586.2984,471.1224,585.9857,456.7138,586.0799,439.3261,584.8614,426.5954,583.9698,412.2447,581.9555,400.5082,579.7346,389.133,576.7941,380.8225,573.7477,375.6973,570.6515,368.7094,566.4264,368.3329,563.0304,372.3215,560.0433,375.1761,556.3326,380.9833,552.9181,390.3711,550.0558,397.1065,546.4761,412.0691,544.7336,423.2218,542.2655,440.7815,541.4756,454.4279,540.1749,472.1229,540.2488,487.9805,540.4783,501.7393,540.8864,520.0291,543.0194,532.204,544.5478,543.7604,546.7285,555.8545,549.8295,564.9762,553.0571,568.1477,555.7169,574.1059,559.7121,573.3899,562.8641" style="stroke: #A80036; stroke-width: 1.5;"/><text fill="#000000" font-family="sans-serif" font-size="14" lengthAdjust="spacingAndGlyphs" textLength="182" x="380.9007" y="567.9235">固定ページの実体を削除する</text><polygon fill="#FBFB77" filter="url(#ftekmlc)" points="719.5,550.6992,719.4392,550.6992,719.495,555.7613,719.5813,560.8234,719.5995,565.8855,719.281,570.9477,719.5,576.0098,719.5,575.6178,729.5,575.9544,739.5,575.4951,749.5,575.8865,759.5,576.282,769.5,576.0418,779.5,575.4005,789.5,576.232,799.5,575.7811,809.5,575.4593,819.5,575.7459,829.5,576.2369,839.5,576.2475,849.5,575.369,859.5,576.2662,869.5,576.6954,879.5,576.6759,889.5,575.6523,899.5,575.7891,909.5,576.0098,909.3642,576.0098,909.4726,572.9477,909.4564,569.8855,909.2788,566.8234,909.4371,563.7613,909.5,560.6992,909.404,560.6033,907.4032,558.6024,905.3617,556.5609,903.6718,554.8711,901.5715,552.7708,899.5,550.6992,899.5,550.6851,889.5,550.5139,879.5,550.6579,869.5,551.3037,859.5,551.0176,849.5,550.0329,839.5,551.2504,829.5,551.3442,819.5,550.8605,809.5,550.1236,799.5,551.2774,789.5,551.1818,779.5,551.4484,769.5,550.1576,759.5,550.4621,749.5,551.161,739.5,550.4221,729.5,550.5118,719.5,550.6992" style="stroke: #A80036; stroke-width: 1.0;"/><polygon fill="#FBFB77" points="719.5,550.6992,719.5422,550.6992,719.366,552.3992,719.2582,554.0992,719.3535,555.7992,719.285,557.4992,719.5,559.1992,719.5006,559.2206,709.2064,560.0755,698.8905,560.1488,688.5776,560.3288,678.2525,560.0715,667.9386,560.2177,657.6247,560.3598,647.343,561.6672,637.0247,561.6558,626.7036,561.5397,616.4174,562.6825,606.0954,562.538,595.7809,562.6613,585.4555,562.3893,575.16,563.1992,575.1607,563.2248,585.4628,563.224,595.7947,564.3006,606.0937,564.1903,616.4056,564.5433,626.7077,564.5436,637.0337,565.4091,647.3128,564.5801,657.6472,565.7437,667.9603,566.1423,678.2789,566.7378,688.5609,566.0141,698.8909,567.0218,709.1817,566.6145,719.5,567.1992,719.267,567.1992,719.4193,568.9613,719.359,570.7234,719.6031,572.4855,719.3729,574.2477,719.5,576.0098,719.5,575.949,729.5,576.047,739.5,576.2554,749.5,576.2112,759.5,576.7594,769.5,576.0203,779.5,575.5003,789.5,576.3422,799.5,576.6581,809.5,575.3372,819.5,576.4282,829.5,576.5893,839.5,575.4387,849.5,576.3846,859.5,576.3317,869.5,576.563,879.5,575.4117,889.5,576.7554,899.5,575.523,909.5,576.0098,909.3412,576.0098,909.6467,572.9477,909.4983,569.8855,909.6998,566.8234,909.4252,563.7613,909.5,560.6992,909.5536,560.7529,907.5851,558.7843,905.5144,556.7137,903.5868,554.786,901.4992,552.6984,899.5,550.6992,899.5,551.2695,889.5,550.9534,879.5,550.5298,869.5,550.3873,859.5,550.6385,849.5,550.0841,839.5,550.4685,829.5,551.0273,819.5,551.1084,809.5,550.116,799.5,550.5865,789.5,550.6658,779.5,550.0909,769.5,550.3986,759.5,550.7093,749.5,550.9856,739.5,551.0858,729.5,550.1146,719.5,550.6992" style="stroke: #A80036; stroke-width: 1.0;"/><path d="M899.5,550.6992 L899.4538,550.6992 L899.7018,552.6992 L899.8268,554.6992 L899.5871,556.6992 L899.4397,558.6992 L899.5,560.6992 " fill="#FBFB77" style="stroke: #A80036; stroke-width: 1.0;"/><path d="M909.5,560.6992 L909.5,560.8994 L907.5,560.745 L905.5,560.6795 L903.5,560.9686 L901.5,560.6936 L899.5,560.6992 " fill="#FBFB77" style="stroke: #A80036; stroke-width: 1.0;"/><text fill="#000000" font-family="sans-serif" font-size="13" lengthAdjust="spacingAndGlyphs" textLength="169" x="725.5" y="568.2676">ゴミ箱を空にした時点で実行</text><polygon fill="#FEFECE" filter="url(#ftekmlc)" points="560.2171,104.1765,557.3715,107.4046,552.43,110.4814,543.2578,112.82,536.0821,115.7223,524.0968,117.535,513.0498,119.4488,500.9253,120.8982,486.0499,121.4007,472.2984,121.7389,458.3971,121.5393,445.6303,121.02,431.7818,119.6206,418.0424,117.5681,408.0656,115.664,397.3388,112.8773,390.4355,110.2529,385.5446,107.4066,382.5018,104.3439,383.1578,101.5427,384.0177,98.2836,386.4515,94.9622,391.6604,91.946,397.0518,88.7509,407.6856,86.632,419.1549,84.7024,430.3966,82.8328,442.5282,81.385,456.1085,80.589,470.671,80.4345,485.9729,80.9515,500.5503,81.881,513.3219,83.0364,525.1922,84.6655,534.5622,86.4321,544.4008,89.0176,552.9058,92.0048,558.1378,94.9284,559.4604,97.6014,560.4893,100.7843" style="stroke: #A80036; stroke-width: 1.5;"/><text fill="#000000" font-family="sans-serif" font-size="14" lengthAdjust="spacingAndGlyphs" textLength="154" x="394.8393" y="105.9112">固定ページをコピーする</text><!--entity 作成者--><polygon fill="#FEFECE" filter="url(#ftekmlc)" points="152.1014,330.0987,151.6745,331.6862,150.6477,333.3327,148.9332,335.1558,147.2965,335.9014,145.2258,336.5914,143.0877,336.6685,140.9482,335.4824,138.6989,334.7513,137.3682,332.3542,136.9097,329.9565,136.8081,327.3523,136.6445,325.6906,138.4137,324.1651,139.8572,321.7096,142.1353,321.3805,144.6683,320.5397,146.2346,320.6016,148.4353,322.1669,150.4828,323.4534,151.1148,325.056,152.0438,327.1416,152.5368,328.6689,152.1176,330.3256" style="stroke: #A80036; stroke-width: 2.0;"/><path d="M144.5,336.6992 L145.1107,336.6992 L144.4115,342.0992 L144.6827,347.4992 L143.8409,352.8992 L144.8974,358.2992 L144.5,363.6992 M131.5,344.6992 L131.5,344.4305 L136.7,344.563 L141.9,344.1969 L147.1,344.5322 L152.3,344.1232 L157.5,344.6992 M144.5,363.6992 L144.257,363.4886 L141.7131,366.5373 L139.4872,369.8615 L136.4703,372.5001 L133.8312,375.4662 L131.5,378.6992 M144.5,363.6992 L144.0963,363.3494 L146.6102,366.2748 L149.8324,369.814 L152.7399,373.0804 L155.0776,375.8531 L157.5,378.6992 " fill="#FEFECE" style="stroke: #A80036; stroke-width: 2.0;"/><text fill="#000000" font-family="sans-serif" font-size="14" lengthAdjust="spacingAndGlyphs" textLength="42" x="123.5" y="399.2344">作成者</text><polygon fill="#FBFB77" filter="url(#ftekmlc)" points="6,612.1992,6.7459,612.1992,5.7085,621.5212,6.263,630.8431,6.5979,640.165,5.5605,649.487,5.9479,658.8089,6,668.1309,6,667.6786,15.8929,668.7934,25.7857,668.3904,35.6786,668.5889,45.5714,668.7791,55.4643,668.5213,65.3571,668.4846,75.25,668.0566,85.1429,668.412,95.0357,668.7009,104.9286,668.5157,114.8214,668.1399,124.7143,668.4634,134.6071,668.8519,144.5,668.271,154.3929,667.8028,164.2857,668.3435,174.1786,667.5445,184.0714,667.8959,193.9643,668.8124,203.8571,668.8277,213.75,667.6989,223.6429,668.3707,233.5357,667.6137,243.4286,667.6762,253.3214,668.8762,263.2143,668.8662,273.1071,668.3175,283,668.1309,282.3406,668.1309,283.6269,658.9445,282.7302,649.7582,283.377,640.5719,283.7073,631.3855,283,622.1992,282.9439,622.1431,280.9952,620.1944,278.9691,618.1683,276.8543,616.0535,275.0592,614.2584,273,612.1992,273,612.6515,263.1111,611.623,253.2222,611.6803,243.3333,612.0297,233.4444,612.4084,223.5556,611.4611,213.6667,611.477,203.7778,612.503,193.8889,612.5874,184,612.6923,174.1111,611.5293,164.2222,612.1831,154.3333,612.1663,144.4444,612.0256,134.5556,612.6247,124.6667,612.8908,114.7778,612.0238,104.8889,612.3047,95,612.6944,85.1111,612.1703,75.2222,611.4856,65.3333,612.0639,55.4444,612.6268,45.5556,612.1864,35.6667,611.5426,25.7778,612.8897,15.8889,612.7561,6,612.1992" style="stroke: #A80036; stroke-width: 1.0;"/><polygon fill="#FBFB77" points="6,612.1992,6.0792,612.1992,6.0553,621.5212,5.7303,630.8431,5.5332,640.165,6.6595,649.487,5.8069,658.8089,6,668.1309,6,667.8149,15.8929,667.4185,25.7857,667.6929,35.6786,668.7001,45.5714,668.2088,55.4643,667.5178,65.3571,668.1966,75.25,668.7574,85.1429,668.1533,95.0357,668.3702,104.9286,668.2698,114.8214,668.0021,124.7143,667.6524,134.6071,667.9798,144.5,668.6106,154.3929,667.8642,164.2857,668.345,174.1786,667.7711,184.0714,667.7835,193.9643,668.2422,203.8571,668.8271,213.75,667.3981,223.6429,668.6881,233.5357,667.9195,243.4286,667.9264,253.3214,667.4279,263.2143,667.7288,273.1071,667.4076,283,668.1309,283.1138,668.1309,283.0718,663.3445,282.7542,658.5582,282.7678,653.7719,283.0345,648.9855,283,644.1992,283.0124,644.5241,293.4827,644.1586,303.9102,642.6722,314.4128,643.1501,324.8694,642.4267,335.3224,641.6081,345.7933,641.2563,356.2608,640.8192,366.7579,641.1532,377.2066,640.2223,387.69,640.1992,387.6883,640.1541,377.2118,639.5576,366.7708,639.8909,356.3053,639.582,345.815,638.6255,335.3706,638.8686,324.8715,637.6804,314.4086,637.4412,303.9513,637.347,293.4824,636.9501,283,636.1992,282.9297,636.1992,282.7888,633.3992,282.8261,630.5992,282.9949,627.7992,283.0563,624.9992,283,622.1992,283.0906,622.2898,280.8575,620.0567,279.1262,618.3254,277.1602,616.3594,274.8488,614.048,273,612.1992,273,612.5758,263.1111,612.7513,253.2222,611.7101,243.3333,611.6827,233.4444,612.4242,223.5556,612.3898,213.6667,612.2821,203.7778,612.372,193.8889,612.1031,184,612.018,174.1111,611.5092,164.2222,612.1643,154.3333,612.732,144.4444,612.8887,134.5556,612.8003,124.6667,612.369,114.7778,612.6141,104.8889,611.9234,95,612.545,85.1111,612.036,75.2222,611.5113,65.3333,612.1703,55.4444,611.9754,45.5556,611.5278,35.6667,611.7547,25.7778,611.4701,15.8889,612.5228,6,612.1992" style="stroke: #A80036; stroke-width: 1.0;"/><path d="M273,612.1992 L273.0667,612.1992 L273.1255,614.1992 L273.0405,616.1992 L272.7283,618.1992 L273.1267,620.1992 L273,622.1992 " fill="#FBFB77" style="stroke: #A80036; stroke-width: 1.0;"/><path d="M283,622.1992 L283,622.2527 L281,622.3608 L279,622.3463 L277,622.0108 L275,621.9754 L273,622.1992 " fill="#FBFB77" style="stroke: #A80036; stroke-width: 1.0;"/><text fill="#000000" font-family="sans-serif" font-size="13" lengthAdjust="spacingAndGlyphs" textLength="232" x="12" y="629.7676">フォルダ階層に連動したURLを発行する</text><text fill="#000000" font-family="sans-serif" font-size="13" lengthAdjust="spacingAndGlyphs" textLength="0" x="16" y="645.0781"/><text fill="#000000" font-family="sans-serif" font-size="13" lengthAdjust="spacingAndGlyphs" textLength="256" x="12" y="660.3887">例）https//localhost/folder/folder/page</text><path d="M163.83,402.0492 L163.6267,401.9501 L165.0508,404.2825 L166.199,406.4804 L166.9477,408.4835 L168.2114,410.7376 L169.069,412.7938 L169.3255,412.924 L170.3841,415.1788 L171.3101,417.3662 L172.7328,419.8058 L173.7779,422.0537 L174.9407,424.3613 L174.7938,424.2834 L176.1165,426.7491 L177.273,429.1267 L179.0263,431.8204 L180.2201,434.2178 L181.4368,436.6273 L181.1936,436.4926 L182.6849,439.0989 L184.3423,441.7971 L185.7427,444.353 L187.2134,446.9478 L188.5492,449.468 L188.49,449.4336 L189.8306,451.9736 L191.6131,454.7703 L193.4554,457.6017 L194.8305,460.1617 L196.2698,462.7591 L196.3509,462.8087 L197.7193,465.3515 L199.4184,468.0963 L201.2438,470.9184 L203.0176,473.7089 L204.5903,476.3766 L204.7789,476.4982 L206.1896,479.0224 L208.2022,481.9347 L210.1459,484.8027 L211.6918,487.414 L213.5027,490.1963 L213.7246,490.3479 L215.2334,492.8607 L217.3439,495.7847 L219.435,498.6954 L221.1254,501.3323 L222.9988,504.0942 L222.8309,503.9722 L225.1018,506.9291 L226.8059,509.4739 L228.7724,512.2096 L231.2468,515.3146 L233.0703,517.9462 L232.8082,517.7424 L235.0105,520.5367 L237.4886,523.5455 L239.6106,526.2774 L241.7275,529.0053 L243.7092,531.6281 L243.8993,531.7871 L245.8464,534.22 L248.0747,536.8881 L250.3352,539.5831 L252.4724,542.175 L254.9073,545.0159 L254.9972,545.0973 L257.089,547.4576 L259.692,550.2808 L261.9209,552.7651 L264.091,555.1962 L266.6564,557.9855 L266.83,558.1572 L269.1757,560.5311 L271.5191,562.9029 L274.144,565.553 L276.5735,568.0098 L278.9484,570.4127 L278.7271,570.1714 L281.4606,572.7069 L284.1742,575.2207 L286.7805,577.6176 L289.394,580.0222 L291.7751,582.1734 L291.6192,581.9837 L294.3647,584.2688 L297.1764,586.6346 L299.6393,588.5757 L302.4217,590.9058 L305.1284,593.1437 L305.2121,593.2591 L307.9267,595.1878 L310.6799,597.1699 L313.2728,598.9308 L316.2762,601.2578 L319,603.1992 L319.0012,603.2013 L322.2004,604.981 L325.4278,606.8088 L328.9053,609.0647 L332.1531,610.9274 L335.3961,612.782 L335.3792,612.7437 L338.8089,614.085 L342.3349,615.6444 L346.0719,617.6823 L349.455,618.918 L353.0138,620.5517 L352.9709,620.4245 L356.6763,621.8117 L360.3999,623.2531 L364.0104,624.3586 L367.6779,625.6335 L371.2745,626.6977 L371.2451,626.5834 L375.0081,627.9062 L378.5872,628.5143 L382.2349,629.3887 L386.015,630.7784 L389.6,631.4092 " fill="none" style="stroke: #A80036; stroke-width: 1.0;"/><polygon fill="#A80036" points="394.74,632.5192,394.7334,632.5101,393.153,631.3699,391.4429,630.0511,389.9172,628.986,388.503,628.0744,386.7733,626.7286,386.6202,626.6294,387.2752,627.6045,388.2012,628.7552,388.6475,629.5949,389.214,630.5126,389.8502,631.4755,389.9026,631.5564,388.8312,631.9835,387.828,632.5159,387.0407,633.3812,386.0449,633.925,385.1033,634.5524,385.1478,634.7633,387.0354,634.1683,388.9469,633.6864,390.9337,633.5618,392.8485,633.0956,394.74,632.5192" style="stroke: #A80036; stroke-width: 1.0;"/><path d="M165.74,337.0592 L165.6602,336.9846 L168.2271,334.327 L170.8679,331.7386 L173.3337,328.9864 L176.0422,326.4614 L178.3621,323.5726 L178.2132,323.4283 L179.6669,321.9318 L181.272,320.5821 L182.7215,319.0814 L184.1847,317.5942 L185.6222,316.0819 L185.8511,316.3096 L187.2668,314.5813 L188.6934,312.8638 L190.3122,311.3376 L191.9493,309.8295 L193.4641,308.1997 L193.2613,307.9922 L194.9306,306.3455 L196.759,304.8616 L198.5973,303.3879 L200.2453,301.7194 L201.8493,300.0059 L201.6376,299.7825 L203.6546,298.3495 L205.3318,296.558 L207.0603,294.8207 L208.996,293.3019 L210.7396,291.5806 L210.8989,291.7543 L212.4243,289.6614 L214.328,287.9813 L216.172,286.236 L218.4193,284.9307 L220.0968,283.0038 L220.1298,283.0411 L222.0161,281.2313 L224.1783,279.7337 L225.817,277.6437 L227.7128,275.8446 L229.8825,274.3555 L229.6705,274.1058 L232.0898,272.8302 L233.8914,270.8272 L236.12,269.3271 L238.007,267.4246 L240.0584,265.7157 L239.9367,265.5659 L242.0777,263.8993 L244.2009,262.2107 L246.5701,260.825 L248.4454,258.8314 L250.5863,257.1646 L250.7059,257.3192 L252.649,255.3515 L255.0638,253.9938 L256.906,251.8955 L259.1474,250.3135 L261.4278,248.782 L261.4161,248.766 L263.6028,247.0891 L266.0189,245.7258 L268.1575,243.9831 L270.3467,242.3096 L272.5447,240.6481 L272.4996,240.5825 L274.7507,238.9928 L276.9598,237.342 L279.4298,236.0708 L281.7933,234.6446 L283.8986,232.8429 L283.8971,232.8404 L286.3772,231.626 L288.6323,230.0601 L290.7996,228.3569 L293.2968,227.1692 L295.4514,225.4463 L295.4208,225.3944 L297.8052,224.0837 L300.0411,222.5212 L302.3445,221.0729 L304.8748,220.0096 L307.1646,218.5384 L307.3014,218.7938 L309.4108,217.0449 L312.0105,216.2113 L314.3485,214.8893 L316.729,213.6465 L319,212.1992 L319.0153,212.2332 L322.6674,210.6843 L326.3194,209.1351 L329.8005,207.2069 L333.4002,205.5419 L337.0767,204.047 L337.0412,203.9537 L338.9391,203.2778 L340.8277,202.5773 L342.7401,201.9397 L344.5762,201.1013 L346.4903,200.4679 L346.5673,200.6935 L348.3968,199.7952 L350.3764,199.3366 L352.1343,198.2284 L354.2194,198.0785 L356.0563,197.2017 L355.9664,196.9097 L357.9421,196.4678 L359.8863,195.9237 L361.8924,195.5808 L363.7343,194.704 L365.7015,194.2346 L365.7224,194.3097 L367.6864,193.895 L369.502,192.9462 L371.5603,192.8704 L373.4643,192.2397 L375.3527,191.5527 L375.3904,191.7102 L379.2171,190.886 L382.914,189.5206 L386.7164,188.5948 L390.598,187.9996 L394.38,186.9892 " fill="none" style="stroke: #A80036; stroke-width: 1.0;"/><polygon fill="#A80036" points="399.33,185.9492,399.3584,186.0841,397.4251,185.649,395.4736,185.1276,393.5306,184.6471,391.5902,184.1786,389.6933,183.9161,389.6663,183.8745,390.5094,184.3259,391.5457,185.0753,392.5503,185.776,393.5366,186.4482,394.4402,186.993,394.377,186.9521,393.9234,188.0062,393.251,188.9187,392.6402,189.871,392.0373,190.8285,391.3633,191.7398,391.2724,191.6149,393.0023,190.6446,394.4164,189.2398,396.1246,188.2397,397.753,187.1299,399.33,185.9492" style="stroke: #A80036; stroke-width: 1.0;"/><path d="M165.61,350.1192 L165.6887,350.2813 L168.3654,348.9747 L171.032,347.6473 L173.5897,346.0956 L176.4545,345.1762 L179.0071,343.6141 L179.1045,343.8196 L182.1055,341.8939 L185.3402,340.4613 L188.4534,338.7722 L191.7123,337.3907 L194.9856,336.0394 L195.0528,336.1851 L198.5296,334.2089 L202.1562,332.5579 L205.7862,330.9139 L209.5583,329.5784 L213.0801,327.6999 L213.0407,327.6114 L217.0812,326.0569 L220.9465,324.1093 L224.9039,322.3684 L228.9604,320.8497 L232.825,318.9005 L232.7722,318.777 L237.0782,317.2667 L241.1122,315.1206 L245.3151,313.3692 L249.5199,311.6222 L253.7549,309.9459 L253.8018,310.0612 L258.1857,308.4329 L262.4817,306.5886 L266.8586,304.9433 L271.1217,303.018 L275.4044,301.1409 L275.3964,301.12 L279.8734,299.7025 L284.1486,297.7556 L288.452,295.8828 L293.0124,294.684 L297.3079,292.7904 L297.2114,292.5213 L299.5775,292.2575 L301.6988,291.3112 L303.8761,290.5208 L306.0451,289.7074 L308.2095,288.8809 L308.2743,289.0709 L310.3462,288.082 L312.6148,287.6694 L314.6732,286.6407 L316.7976,285.8058 L319,285.1992 L318.9907,285.1702 L321.0025,284.3745 L323.0399,283.6588 L325.2033,283.3355 L327.253,282.6579 L329.2771,281.9006 L329.3692,282.2056 L331.343,281.147 L333.4928,280.6714 L335.5005,279.7248 L337.6209,279.152 L339.7864,278.7283 L339.73,278.5306 L341.9956,278.3936 L344.136,277.8179 L346.1887,276.935 L348.2364,276.0342 L350.4422,275.6877 L350.4823,275.836 L352.6164,275.2211 L354.7349,274.549 L356.8508,273.867 L359.0054,273.3277 L361.1588,272.7842 L361.1322,272.6793 L365.4798,271.9726 L369.7083,270.7942 L373.9658,269.7311 L378.0991,268.1762 L382.4317,267.4102 L382.359,267.0971 L386.5358,266.4858 L390.5759,265.2856 L394.7967,264.8635 L398.8773,263.838 L402.92,262.6492 " fill="none" style="stroke: #A80036; stroke-width: 1.0;"/><polygon fill="#A80036" points="407.82,261.5592,407.8622,261.7685,405.9321,261.3833,403.9381,260.6814,402.0681,260.5943,400.122,260.1298,398.1654,259.6128,398.1676,259.6163,399.1908,260.3307,400.0615,260.805,400.9042,261.2353,401.8681,261.8563,402.9397,262.6469,403.0364,262.7084,402.2266,263.5342,401.7786,264.59,400.9437,265.3999,400.5231,266.4731,399.9057,267.4213,399.9659,267.5026,401.3903,266.1162,402.9986,264.9781,404.7594,264.0459,406.3767,262.92,407.82,261.5592" style="stroke: #A80036; stroke-width: 1.0;"/><path d="M165.86,357.6992 L165.8793,357.8567 L175.5897,355.5338 L185.4778,354.6579 L195.3943,354.0129 L205.3153,353.4039 L215.0786,351.5126 L224.8557,349.7327 L234.6693,348.2507 L244.7408,348.8667 L254.4155,346.2535 L264.27,345.1045 L274.266,345.1059 L283.9861,342.863 L293.9403,342.5245 L303.7027,340.6249 L313.6195,339.9822 L323.5052,339.0872 L333.2543,337.0794 L343.2153,336.7968 L353.0129,335.1841 L362.8179,333.6316 L372.7565,333.1658 L382.4453,330.6682 L392.4631,330.8474 L402.19,328.6592 " fill="none" style="stroke: #A80036; stroke-width: 1.0;"/><polygon fill="#A80036" points="407.51,327.9992,407.5484,328.1256,405.5703,327.2457,403.679,326.6515,401.8496,326.2609,400.0248,325.8857,398.0864,325.1364,398.0966,325.1494,398.9297,325.7691,399.7351,326.3531,400.7032,327.1459,401.7351,328.0205,402.548,328.6141,402.5299,328.6,401.9222,329.5608,400.9725,330.2551,400.399,331.2424,399.6135,332.0647,399.0702,333.0757,399.1341,333.1819,400.7601,332.0635,402.3685,330.9161,404.0932,329.9618,405.9427,329.2151,407.51,327.9992" style="stroke: #A80036; stroke-width: 1.0;"/><path d="M165.86,362.6992 L165.8549,362.658 L175.7229,363.4957 L185.8071,366.0929 L195.6709,366.8975 L205.5484,367.8125 L215.4694,369.0818 L225.3117,369.7106 L235.2798,371.3633 L245.1574,372.28 L255.2107,374.6255 L264.9486,374.4049 L274.8645,375.633 L284.7694,376.7714 L294.8233,379.1226 L304.7312,380.285 L314.5718,380.9002 L324.5801,382.8798 L334.4097,383.4055 L344.3146,384.544 L354.24,385.8492 " fill="none" style="stroke: #A80036; stroke-width: 1.0;"/><polygon fill="#A80036" points="359.22,386.4592,359.2485,386.5066,357.4916,385.3767,355.7984,384.3526,354.0664,383.2641,352.5163,382.478,350.7802,381.3828,350.6584,381.2878,351.5278,382.3157,352.1165,383.1247,352.8243,384.0265,353.4495,384.864,354.258,385.8443,354.1056,385.6489,353.4447,386.6413,352.475,387.2375,351.4375,387.7469,350.7964,388.7647,349.7964,389.322,349.7775,389.2598,351.7396,388.942,353.5004,387.9616,355.4338,387.5491,357.2728,386.8261,359.22,386.4592" style="stroke: #A80036; stroke-width: 1.0;"/><path d="M165.73,371.8092 L165.8469,372.0199 L168.302,373.1151 L171.1138,374.8533 L173.6611,376.1148 L176.4272,377.7707 L179.0752,379.2136 L179.2197,379.4807 L182.3356,381.0799 L185.455,382.6854 L188.5433,384.2336 L191.7096,385.9257 L194.9828,387.8158 L195.1226,388.0823 L198.5443,389.6257 L202.1156,391.4545 L205.8989,393.6873 L209.5055,395.5834 L213.0021,397.2697 L212.9645,397.1954 L217.0813,399.5444 L220.97,401.4427 L224.6617,402.9516 L228.8139,405.3706 L232.6825,407.2292 L232.6317,407.1243 L236.9907,409.5216 L241.0624,411.3256 L245.2767,413.4239 L249.3243,415.1783 L253.5732,417.3481 L253.4737,417.1313 L257.9342,419.4021 L262.3306,421.533 L266.6487,423.4935 L270.8727,425.2486 L275.2234,427.2802 L275.2602,427.3643 L277.5148,428.4612 L279.7173,429.4386 L281.8444,430.2432 L284.0736,431.282 L286.1926,432.068 L286.0792,431.7978 L288.3033,432.7822 L290.7062,434.1927 L292.8516,434.9897 L294.9609,435.7005 L297.1826,436.6793 L297.1492,436.5959 L299.4867,437.8397 L301.5075,438.2938 L303.7493,439.2991 L305.9478,440.1961 L308.1372,441.0708 L308.1184,441.0212 L310.2151,441.6473 L312.5833,442.9878 L314.6197,443.4553 L316.7655,444.2105 L319,445.1992 L318.971,445.1178 L320.9229,445.7713 L322.8621,446.389 L324.8325,447.094 L326.7684,447.7024 L328.8471,448.7114 L328.7743,448.4937 L330.8485,449.3424 L332.9192,450.1808 L334.7961,450.4399 L336.971,451.5896 L338.9263,452.0828 L339.0262,452.3999 L340.9178,452.5537 L343.1152,453.6773 L345.1006,454.1286 L347.0542,454.4792 L349.1591,455.3096 L349.1272,455.2026 L351.1623,455.7294 L353.2298,456.3645 L355.4289,457.4406 L357.4467,457.9091 L359.4675,458.388 L359.4969,458.494 L363.5292,459.3674 L367.61,460.4157 L371.718,461.5621 L375.9517,463.1615 L379.9975,464.0838 L380.0165,464.1585 L383.9826,465.1208 L387.89,465.852 L391.9174,467.0555 L395.9424,468.2497 L399.89,469.1392 " fill="none" style="stroke: #A80036; stroke-width: 1.0;"/><polygon fill="#A80036" points="405.01,470.3792,405.0797,470.47,403.3388,469.0376,401.7985,467.8665,400.171,466.5819,398.7505,465.5667,397.1987,464.3806,397.0638,464.2981,397.7321,465.3112,398.4424,466.35,398.9157,467.2438,399.4974,468.2039,400.1494,469.2069,400.077,469.0886,399.2322,469.8758,398.2124,470.3767,397.3607,471.1526,396.2594,471.5202,395.323,472.1576,395.3547,472.3301,397.2353,471.6652,399.1663,471.2748,401.1668,471.2627,403.0844,470.7989,405.01,470.3792" style="stroke: #A80036; stroke-width: 1.0;"/><path d="M165.65,385.6192 L165.4206,385.4242 L168.1047,388.5202 L170.4752,391.3495 L173.2092,394.4879 L175.4932,397.2437 L178.1332,400.3021 L178.2413,400.3975 L179.442,401.8191 L181.2165,403.7467 L182.5848,405.316 L184.0987,407.0138 L185.32,408.4536 L185.2176,408.3608 L186.9965,410.2802 L188.5022,411.9519 L190.2012,413.7989 L191.6561,415.4247 L193.09,417.0314 L193.3186,417.2446 L194.6482,418.7169 L196.3184,420.5068 L197.9869,422.2952 L199.9201,424.3305 L201.408,425.9503 L201.1802,425.7311 L203.1245,427.7376 L205.1746,429.8459 L206.9326,431.673 L208.3054,433.1293 L210.2387,435.1252 L210.2094,435.096 L212.2451,437.1385 L213.8125,438.7145 L215.9001,440.8087 L217.7144,442.6306 L219.5469,444.4707 L219.737,444.6672 L221.5757,446.4382 L223.316,448.1076 L225.5833,450.3217 L227.2273,451.8914 L229.2975,453.9017 L229.1562,453.7495 L231.1681,455.6146 L233.3116,457.6215 L235.2679,459.4267 L237.4153,461.4377 L239.4552,463.3329 L239.3126,463.1723 L241.4908,465.123 L243.854,467.2821 L245.6721,468.8271 L247.9048,470.8392 L249.9848,472.6792 L250.152,472.8773 L252.2692,474.646 L254.3738,476.3999 L256.4376,478.1056 L258.7063,480.0538 L260.851,481.8552 L260.8231,481.8202 L263.2561,483.854 L265.1636,485.23 L267.4313,487.0569 L269.8568,489.0813 L272.0188,490.7758 L272.0281,490.7883 L274.1206,492.2452 L276.6028,494.2218 L278.8402,495.8718 L281.2164,497.707 L283.4527,499.3557 L283.5278,499.4631 L285.8099,501.021 L288.1096,502.6043 L290.3428,504.0923 L292.9451,506.1083 L295.1177,507.5097 L295.0645,507.4272 L297.4462,508.9705 L299.967,510.7297 L302.1132,511.9076 L304.737,513.8268 L306.9786,515.1526 L306.9354,515.079 L309.4784,516.7249 L311.7138,517.8462 L314.134,519.2826 L316.5085,520.6411 L319,522.1992 L318.8892,521.9786 L322.2355,523.9669 L325.4029,525.5991 L328.3558,526.8042 L331.5319,528.4537 L334.6972,530.0816 L334.5873,529.8167 L337.976,531.3973 L341.2695,532.7483 L344.5831,534.1478 L347.823,535.3695 L351.2025,536.928 L351.2289,537.0039 L354.6305,538.2378 L358.064,539.5631 L361.2732,540.2436 L364.765,541.7367 L368.1091,542.805 L368.1329,542.8861 L371.5466,543.9948 L374.9324,545.0087 L378.2368,545.7458 L381.555,546.5303 L385.01,547.7792 " fill="none" style="stroke: #A80036; stroke-width: 1.0;"/><polygon fill="#A80036" points="390.06,549.1192,390.0094,549.0561,388.4347,547.7771,387.0678,546.7572,385.4736,545.4538,383.9182,544.1989,382.3752,542.9594,382.2456,542.8838,382.7597,543.8286,383.538,544.9274,384.2253,545.9732,384.453,546.751,385.2248,547.846,385.1827,547.7739,384.3476,548.5876,383.2113,548.885,382.2927,549.5557,381.254,550.0203,380.3381,550.6957,380.3768,550.9341,382.2947,550.4555,384.212,549.9732,386.2069,549.9696,388.1309,549.5286,390.06,549.1192" style="stroke: #A80036; stroke-width: 1.0;"/><path d="M165.58,320.9092 L165.5035,320.8662 L166.5061,318.856 L168.0247,317.1358 L169.1493,315.1942 L170.0502,313.1269 L171.0755,311.1294 L170.9434,311.0526 L172.5312,309.165 L173.8041,307.0942 L174.6076,304.7502 L176.0067,302.7529 L177.1868,300.6281 L177.0168,300.5254 L178.2735,298.251 L180.0317,296.2794 L181.1452,293.9184 L182.3411,291.6073 L183.8991,289.5148 L183.6485,289.3574 L185.2646,287.1325 L186.7677,284.8367 L188.0624,282.4099 L189.5265,280.0896 L191.1972,277.8991 L190.9418,277.7317 L192.6684,275.4302 L194.5484,273.2291 L196.1441,270.8417 L197.6757,268.4123 L199.0661,265.8905 L199.2727,266.0321 L200.9194,263.5474 L202.2813,260.8676 L204.1823,258.5573 L205.9993,256.1895 L207.4908,253.5985 L207.2387,253.4172 L209.2174,251.0576 L211.1029,248.6309 L212.6407,245.9541 L214.766,243.6999 L216.4563,241.1329 L216.6044,241.245 L218.3352,238.6122 L220.1038,236.0081 L222.0566,233.5434 L224.1118,231.1563 L225.9475,228.603 L225.9348,228.5928 L228.1012,226.2289 L230.1574,223.7767 L231.8448,221.029 L233.7763,218.4769 L235.9494,216.1184 L235.8211,216.0092 L237.9923,213.6043 L240.2644,211.2853 L242.2516,208.7237 L244.361,206.2662 L246.447,203.7888 L246.658,203.9808 L248.8272,201.5437 L251.0647,199.1687 L252.9216,196.4475 L255.4318,194.3207 L257.4252,191.7236 L257.2127,191.5157 L259.4942,189.1703 L262.1077,187.1499 L264.1599,184.5801 L266.3451,182.1405 L268.8691,180.0325 L268.9785,180.1486 L271.3042,177.8507 L273.462,175.3746 L275.9179,173.2148 L278.6086,171.3042 L280.7635,168.8249 L280.9279,169.0159 L283.1434,166.6021 L285.8231,164.7274 L288.1388,162.4299 L290.4918,160.1757 L293.0935,158.2105 L293.0249,158.1222 L295.6468,156.2322 L298.2209,154.2807 L300.9137,152.482 L303.3085,150.2999 L305.844,148.2987 L305.7669,148.1873 L308.6575,146.7425 L311.0515,144.5795 L313.6133,142.6593 L316.3439,140.9831 L319,139.1992 L319.1053,139.3847 L322.3042,137.6574 L325.3775,135.7088 L328.5496,133.9341 L331.6748,132.0769 L334.8045,130.2277 L334.7631,130.1336 L338.061,128.4719 L341.4409,126.996 L345.0141,125.9591 L348.2551,124.1681 L351.6788,122.7917 L351.7423,122.9752 L355.193,121.6529 L358.6537,120.3594 L362.1969,119.3042 L365.7235,118.201 L369.1286,116.747 L369.0917,116.6123 L372.7172,116.0882 L376.1898,115.0055 L379.6048,113.7125 L383.16,112.9318 L386.66,111.9492 " fill="none" style="stroke: #A80036; stroke-width: 1.0;"/><polygon fill="#A80036" points="391.6,110.7992,391.6391,111.0049,389.6733,110.4757,387.7466,110.1527,385.8038,109.7448,383.8911,109.4951,381.9243,108.9606,381.9984,109.0801,382.9693,109.6912,383.8391,110.1394,384.7485,110.6513,385.8477,111.4695,386.7322,111.9412,386.6037,111.8616,386.3113,113.0115,385.5362,113.8621,384.95,114.8298,384.5294,115.9002,383.7515,116.7491,383.626,116.5835,385.3564,115.6055,386.7671,114.2058,388.4317,113.1411,390.0496,112.0146,391.6,110.7992" style="stroke: #A80036; stroke-width: 1.0;"/></g></svg>