<?xml version="1.0" encoding="UTF-8" standalone="no"?><svg xmlns="http://www.w3.org/2000/svg" xmlns:xlink="http://www.w3.org/1999/xlink" contentScriptType="application/ecmascript" contentStyleType="text/css" height="302px" preserveAspectRatio="none" style="width:505px;height:302px;background:#EFEFEF;" version="1.1" viewBox="0 0 505 302" width="505px" zoomAndPan="magnify"><defs><filter height="300%" id="f80c0q8" width="300%" x="-1" y="-1"><feGaussianBlur result="blurOut" stdDeviation="2.0"/><feColorMatrix in="blurOut" result="blurOut2" type="matrix" values="0 0 0 0 0 0 0 0 0 0 0 0 0 0 0 0 0 0 .4 0"/><feOffset dx="4.0" dy="4.0" in="blurOut2" result="blurOut3"/><feBlend in="SourceGraphic" in2="blurOut3" mode="normal"/></filter></defs><g><!--entity Admin--><polygon fill="#FEFECE" filter="url(#f80c0q8)" points="284.0445,19.6453,283.9739,21.1137,282.2412,22.91,280.9433,24.0574,280.063,25.5384,278.4145,25.5169,275.7754,25.6651,274.2177,25.2107,272.4681,24.3778,270.1638,23.6462,269.9521,21.6691,268.5498,19.9376,268.6743,17.539,268.5603,15.7087,269.111,14.0431,270.8012,12.755,272.1498,10.9703,274.1433,9.8901,276.3314,10.0464,278.8279,10.1203,280.7482,11.7195,282.5417,13.471,283.6481,15.0193,284.3078,16.5568,284.1388,18.0149" style="stroke: #A80036; stroke-width: 2.0;"/><path d="M276.5,26 L275.9943,26 L276.0549,31.4 L277.1242,36.8 L276.6532,42.2 L276.6498,47.6 L276.5,53 M263.5,34 L263.5,33.7424 L268.7,34.611 L273.9,33.3708 L279.1,33.4884 L284.3,34.1039 L289.5,34 M276.5,53 L276.4936,52.9945 L273.9038,56.0033 L271.2565,58.9623 L268.789,62.0771 L266.5167,65.3612 L263.5,68 M276.5,53 L276.7192,53.19 L278.6779,55.6341 L281.6603,58.9656 L283.9512,61.6977 L287.3839,65.4194 L289.5,68 " fill="#FEFECE" style="stroke: #A80036; stroke-width: 2.0;"/><text fill="#000000" font-family="sans-serif" font-size="14" lengthAdjust="spacingAndGlyphs" textLength="82" x="235.5" y="88.5352">Main Admin</text><polygon fill="#FEFECE" filter="url(#f80c0q8)" points="222.131,275.6765,218.5786,278.3563,211.8233,280.5921,205.707,283.1735,198.9861,285.7167,187.2977,287.118,176.944,288.7255,166.592,290.1345,154.506,290.8528,140.4651,290.7436,127.8106,290.4981,115.1434,289.729,103.8147,288.6943,94.3439,287.4747,84.2563,285.4777,76.0908,283.2791,70.9097,281.131,66.4567,278.5382,63.0363,275.6094,59.6686,272.1722,62.4574,269.6951,64.0164,266.5571,69.5796,264.0473,75.7855,261.4865,83.0724,259.0734,95.7326,257.8955,106.3163,256.3408,115.7944,254.7309,127.5746,253.9423,142.1143,254.1662,155.5322,254.5872,166.2025,254.8973,177.4661,255.917,188.2342,257.4348,198.5935,259.4942,207.5085,261.8651,214.0277,264.3209,219.2484,267.0901,220.0787,269.4235,222.7142,272.6924" style="stroke: #A80036; stroke-width: 1.5;"/><text fill="#000000" font-family="sans-serif" font-size="14" lengthAdjust="spacingAndGlyphs" textLength="131" x="75.8912" y="277.2224">Use the application</text><!--entity User--><polygon fill="#FEFECE" filter="url(#f80c0q8)" points="29.1315,19.719,27.9684,21.9353,27.1091,24.3481,24.7769,25.7765,23.0378,25.4804,20.9045,25.8385,18.6773,25.5882,17.4566,24.8292,15.8147,23.5543,14.9877,22.3599,13.4561,20.0906,13.4036,17.2876,14.2016,14.7954,15.643,13.287,16.0162,11.5608,18.7093,10.5283,21.1743,10.4045,22.7002,10.4244,25.2213,10.5203,26.8947,11.5906,27.4401,13.3672,28.5631,14.5809,29.5211,16.1677,29.5996,18.1795" style="stroke: #A80036; stroke-width: 2.0;"/><path d="M21.5,26 L20.9142,26 L21.8232,31.4 L20.8368,36.8 L21.7527,42.2 L21.5032,47.6 L21.5,53 M8.5,34 L8.5,33.3782 L13.7,34.3744 L18.9,34.4218 L24.1,34.6299 L29.3,33.8214 L34.5,34 M21.5,53 L21.8039,53.2634 L18.6048,55.7441 L16.7714,59.4086 L13.2385,61.6 L10.6439,64.6047 L8.5,68 M21.5,53 L21.6425,53.1235 L24.4295,56.2856 L26.8179,59.1022 L29.1367,61.8584 L31.5887,64.7302 L34.5,68 " fill="#FEFECE" style="stroke: #A80036; stroke-width: 2.0;"/><text fill="#000000" font-family="sans-serif" font-size="14" lengthAdjust="spacingAndGlyphs" textLength="31" x="6" y="88.5352">User</text><polygon fill="#FEFECE" filter="url(#f80c0q8)" points="137.9902,51.9812,137.0387,54.2107,135.5042,56.3384,133.7325,58.4881,130.5343,59.9018,127.869,61.6203,124.4273,62.8148,121.0279,63.8757,116.372,63.9862,112.943,64.4984,108.5344,64.0894,104.9022,63.7115,100.9658,62.7047,97.7583,61.6295,94.1279,59.8081,91.903,58.2802,89.4675,56.1277,88.1136,54.1084,87.2252,51.9005,86.6155,49.439,87.1273,47.2581,88.5802,45.3155,89.8374,43.0292,92.3855,41.3236,94.9297,39.5358,97.2249,37.6057,100.5692,36.3554,104.3551,35.5155,108.8291,35.301,112.9977,35.2118,116.4745,35.0879,120.8796,35.9079,123.7783,36.321,127.8338,37.8814,130.3089,39.0419,132.9185,40.7898,135.3957,42.9662,136.9085,45.0764,137.5504,47.1433,138.0324,49.5317" style="stroke: #A80036; stroke-width: 1.5;"/><text fill="#000000" font-family="sans-serif" font-size="14" lengthAdjust="spacingAndGlyphs" textLength="32" x="96.6274" y="54.4031">Start</text><polygon fill="#FBFB77" filter="url(#f80c0q8)" points="353,37,352.8864,37,352.9219,42.0621,353.1583,47.1242,353.082,52.1863,353.1165,57.2484,353,62.3105,353,61.8966,363.2143,61.622,373.4286,62.5659,383.6429,62.1741,393.8571,62.2019,404.0714,62.4518,414.2857,62.9001,424.5,62.6301,434.7143,62.8724,444.9286,62.1524,455.1429,62.1304,465.3571,62.9728,475.5714,62.3763,485.7857,63.0582,496,62.3105,495.8003,62.3105,495.9059,59.2484,495.8931,56.1863,496.0397,53.1242,495.9333,50.0621,496,47,496.0539,47.0539,494.1425,45.1425,492.0595,43.0595,490.0661,41.0661,488.0606,39.0606,486,37,486,37.211,475.7692,37.3511,465.5385,37.0325,455.3077,36.5415,445.0769,36.9302,434.8462,37.494,424.6154,36.4689,414.3846,36.7243,404.1538,36.9186,393.9231,36.6129,383.6923,37.6484,373.4615,36.3526,363.2308,37.4311,353,37" style="stroke: #A80036; stroke-width: 1.0;"/><polygon fill="#FBFB77" points="353,37,352.9656,37,353.1513,38.7,353.2207,40.4,352.8213,42.1,352.9664,43.8,353,45.5,352.9935,45.4422,345.907,46.2737,338.8047,46.9645,331.7262,47.8667,324.6415,48.7134,317.55,49.5,317.5687,49.666,324.6422,50.3192,331.7197,51.0087,338.8104,51.8146,345.8876,52.5012,353,53.5,353.034,53.5,353.0942,55.2621,353.0468,57.0242,353.0287,58.7863,353.2094,60.5484,353,62.3105,353,61.8136,363.2143,62.8573,373.4286,62.2128,383.6429,62.6252,393.8571,62.5065,404.0714,62.4693,414.2857,61.9946,424.5,62.2253,434.7143,62.3883,444.9286,61.5952,455.1429,62.1887,465.3571,61.7989,475.5714,62.6163,485.7857,61.7863,496,62.3105,496.226,62.3105,495.8428,59.2484,495.7915,56.1863,495.948,53.1242,496.1927,50.0621,496,47,495.8691,46.8691,493.9086,44.9086,492.0364,43.0364,489.8287,40.8287,488.1476,39.1476,486,37,486,36.3005,475.7692,37.6124,465.5385,36.9939,455.3077,37.3383,445.0769,36.6121,434.8462,36.6239,424.6154,37.174,414.3846,36.992,404.1538,37.1218,393.9231,36.6558,383.6923,36.7915,373.4615,36.8974,363.2308,36.6051,353,37" style="stroke: #A80036; stroke-width: 1.0;"/><path d="M486,37 L486.0963,37 L485.916,39 L485.9668,41 L485.8567,43 L485.9396,45 L486,47 " fill="#FBFB77" style="stroke: #A80036; stroke-width: 1.0;"/><path d="M496,47 L496,46.7258 L494,47.2652 L492,46.8067 L490,47.2491 L488,46.6991 L486,47 " fill="#FBFB77" style="stroke: #A80036; stroke-width: 1.0;"/><text fill="#000000" font-family="sans-serif" font-size="13" lengthAdjust="spacingAndGlyphs" textLength="122" x="359" y="54.5684">This is an example.</text><polygon fill="#FBFB77" filter="url(#f80c0q8)" points="257.5,252,257.3254,252,257.3074,260.1242,257.7074,268.2484,257.6336,276.3727,257.6221,284.4969,257.5,292.6211,257.5,292.2494,267.3571,292.0733,277.2143,293.2437,287.0714,292.8033,296.9286,292.0241,306.7857,292.3208,316.6429,292.0916,326.5,293.1733,336.3571,292.4932,346.2143,293.0884,356.0714,292.6258,365.9286,293.2098,375.7857,292.5344,385.6429,292.794,395.5,292.6211,395.2654,292.6211,395.4923,286.4969,395.7267,280.3727,395.7261,274.2484,395.2906,268.1242,395.5,262,395.4919,261.9919,393.5418,260.0418,391.5748,258.0748,389.5485,256.0485,387.6337,254.1337,385.5,252,385.5,252.6202,375.6538,252.4889,365.8077,251.2866,355.9615,251.7491,346.1154,252.5581,336.2692,251.5374,326.4231,251.917,316.5769,252.1507,306.7308,252.3857,296.8846,252.7046,287.0385,252.6802,277.1923,251.8691,267.3462,251.3985,257.5,252" style="stroke: #A80036; stroke-width: 1.0;"/><polygon fill="#FBFB77" points="257.5,252,257.6733,252,257.6417,255.3,257.5451,258.6,257.4893,261.9,257.6998,265.2,257.5,268.5,257.4876,268.3904,250.4252,269.3812,243.3592,270.3411,236.2267,270.711,229.1461,271.5415,222.08,272.5,222.0771,272.4742,229.159,273.2553,236.2423,274.0498,243.3344,274.9209,250.392,275.4872,257.5,276.5,257.7341,276.5,257.6933,279.7242,257.3641,282.9484,257.6734,286.1727,257.5825,289.3969,257.5,292.6211,257.5,291.953,267.3571,292.892,277.2143,292.051,287.0714,292.3787,296.9286,292.7754,306.7857,292.5809,316.6429,293.0814,326.5,293.251,336.3571,292.56,346.2143,292.0485,356.0714,292.9997,365.9286,292.7152,375.7857,292.7739,385.6429,292.7851,395.5,292.6211,395.4085,292.6211,395.7412,286.4969,395.3727,280.3727,395.4017,274.2484,395.6043,268.1242,395.5,262,395.5521,262.0521,393.3568,259.8568,391.6642,258.1642,389.5114,256.0114,387.4451,253.9451,385.5,252,385.5,252.557,375.6538,251.385,365.8077,252.4947,355.9615,251.4302,346.1154,251.4906,336.2692,251.3341,326.4231,252.0419,316.5769,252.2611,306.7308,252.4898,296.8846,251.3924,287.0385,252.2918,277.1923,252.6778,267.3462,252.4035,257.5,252" style="stroke: #A80036; stroke-width: 1.0;"/><path d="M385.5,252 L385.6497,252 L385.3949,254 L385.7905,256 L385.6156,258 L385.7804,260 L385.5,262 " fill="#FBFB77" style="stroke: #A80036; stroke-width: 1.0;"/><path d="M395.5,262 L395.5,262.1243 L393.5,261.9965 L391.5,262.09 L389.5,261.7351 L387.5,262.19 L385.5,262 " fill="#FBFB77" style="stroke: #A80036; stroke-width: 1.0;"/><text fill="#000000" font-family="sans-serif" font-size="13" lengthAdjust="spacingAndGlyphs" textLength="97" x="263.5" y="269.5684">A note can also</text><text fill="#000000" font-family="sans-serif" font-size="13" lengthAdjust="spacingAndGlyphs" textLength="117" x="263.5" y="284.8789">be on several lines</text><polygon fill="#FBFB77" filter="url(#f80c0q8)" points="59.5,151,59.5505,151,59.2973,159.1242,59.6883,167.2484,59.4264,175.3727,59.3797,183.4969,59.5,191.6211,59.5,191.5288,69.75,191.526,80,191.2386,90.25,191.077,100.5,192.1663,110.75,191.7564,121,191.856,131.25,191.0294,141.5,191.9369,151.75,191.6507,162,191.587,172.25,191.9673,182.5,191.4778,192.75,191.831,203,191.5907,213.25,191.1276,223.5,191.6211,223.4626,191.6211,223.3742,185.4969,223.2991,179.3727,223.7203,173.2484,223.4322,167.1242,223.5,161,223.3588,160.8588,221.4934,158.9934,219.54,157.04,217.355,154.855,215.5228,153.0228,213.5,151,213.5,150.656,203.2333,151.3488,192.9667,150.7883,182.7,151.2026,172.4333,150.501,162.1667,151.7296,151.9,151.5675,141.6333,151.4418,131.3667,151.4641,121.1,150.3913,110.8333,151.4716,100.5667,151.0328,90.3,151.4146,80.0333,151.4944,69.7667,150.3986,59.5,151" style="stroke: #A80036; stroke-width: 1.0;"/><path d="M213.5,151 L213.2652,151 L213.6246,153 L213.2849,155 L213.549,157 L213.6679,159 L213.5,161 " fill="#FBFB77" style="stroke: #A80036; stroke-width: 1.0;"/><path d="M223.5,161 L223.5,160.8922 L221.5,161.1934 L219.5,160.6941 L217.5,161.2567 L215.5,161.1136 L213.5,161 " fill="#FBFB77" style="stroke: #A80036; stroke-width: 1.0;"/><text fill="#000000" font-family="sans-serif" font-size="13" lengthAdjust="spacingAndGlyphs" textLength="143" x="65.5" y="168.5684">This note is connected</text><text fill="#000000" font-family="sans-serif" font-size="13" lengthAdjust="spacingAndGlyphs" textLength="115" x="65.5" y="183.8789">to several objects.</text><path d="M37.14,49.5 L37.14,49.6132 L46.08,49.6204 L55.02,49.2226 L63.96,49.1733 L72.9,49.4035 L81.84,49.5 " fill="none" style="stroke: #A80036; stroke-width: 1.0;"/><polygon fill="#A80036" points="86.89,49.5,86.9899,49.7248,85.0737,48.6633,83.3043,47.9321,81.5598,47.2572,79.6932,46.3073,77.89,45.5,77.9588,45.5688,78.7054,46.3154,79.3196,46.9296,80.4556,48.0656,81.0414,48.6514,81.89,49.5,81.8299,49.4399,81.0838,50.2938,80.1831,50.9931,79.5992,52.0092,78.6879,52.6979,77.89,53.5,77.8798,53.477,79.6808,52.6793,81.444,51.7964,83.3793,51.3009,85.1164,50.3593,86.89,49.5" style="stroke: #A80036; stroke-width: 1.0;"/><path d="M19.84,91.18 L20.1183,91.1897 L19.8874,93.5023 L20.0165,95.8274 L19.7537,98.1388 L19.9595,100.4667 L20.2464,102.7973 L20.3313,102.8034 L20.6906,105.2911 L20.8454,107.7643 L20.8644,110.2277 L20.7475,112.6814 L21.132,115.1709 L21.3883,115.2002 L21.5127,117.7593 L21.924,120.3512 L21.86,122.8888 L22.4612,125.5023 L22.6038,128.0635 L22.6487,128.0709 L22.8803,130.6726 L23.4984,133.3378 L23.5842,135.9155 L24.013,138.5497 L24.7688,141.2375 L24.9858,141.2862 L25.2516,143.8564 L26.0913,146.5554 L26.4269,149.1412 L27.0497,151.7915 L27.7338,154.4556 L27.6705,154.4368 L28.64,157.0997 L29.2848,159.6661 L29.9969,162.2525 L30.8051,164.8675 L31.6061,167.4803 L31.863,167.58 L32.5522,169.987 L33.7755,172.6013 L34.6006,175.061 L35.4305,177.5226 L36.4925,180.0743 L36.3295,179.9922 L37.7983,182.5119 L39.0349,184.9148 L39.902,187.1315 L41.2676,189.5993 L42.5,192 L42.3856,191.9262 L43.7683,193.928 L44.8684,195.7475 L46.0754,197.636 L47.5374,199.6888 L48.6242,201.4998 L48.7152,201.5712 L50.0469,203.3072 L51.4738,205.1179 L53.0753,207.0655 L54.3676,208.7706 L55.6814,210.4925 L55.6003,210.4179 L57.1271,212.0818 L58.8788,213.9528 L60.2286,215.4538 L61.8248,217.1817 L63.4719,218.9564 L63.6464,219.1399 L64.9577,220.3507 L66.8495,222.1722 L68.3103,223.5402 L70.2623,225.425 L71.7963,226.87 L71.9095,227.0036 L73.6011,228.4246 L75.0595,229.5707 L77.1924,231.5121 L78.6662,232.6763 L80.4548,234.2117 L80.6355,234.4472 L82.31,235.6872 L84.0327,236.9901 L85.6848,238.2008 L87.5261,239.6582 L89.248,240.96 L89.2268,240.9299 L90.9553,242.1321 L92.8531,243.5753 L94.6654,244.8968 L96.3915,246.0956 L97.9762,247.0933 L97.9929,247.119 L99.7879,248.3757 L101.4473,249.4237 L103.1197,250.4917 L104.5828,251.2374 L106.44,252.59 " fill="none" style="stroke: #A80036; stroke-width: 1.0;"/><polygon fill="#A80036" points="110.77,255.26,110.793,255.2758,109.4639,253.5053,108.4533,251.9534,107.5104,250.4481,106.5012,248.8973,105.1939,247.1417,105.0602,247.1098,105.412,248.2313,105.4932,249.2882,105.7679,250.3913,106.0823,251.504,106.5093,252.6435,106.5053,252.6271,105.4643,253.1382,104.361,253.3889,103.1735,253.2877,102.06,253.4959,101.0075,253.9589,101.0039,253.9323,102.9681,254.2801,104.9362,254.657,106.8483,254.614,108.8218,255.0322,110.77,255.26" style="stroke: #A80036; stroke-width: 1.0;"/><path d="M273.49,91.07 L273.7776,91.1111 L273.0391,93.3877 L272.528,95.6968 L272.457,98.0688 L271.8304,100.3614 L271.8234,102.7425 L271.5579,102.6957 L271.5409,105.2559 L271.0412,107.731 L270.6272,110.2211 L269.985,112.6711 L269.6334,115.1723 L269.8769,115.2247 L268.9249,117.7284 L268.8121,120.4127 L267.678,122.8772 L267.2669,125.4972 L266.8486,128.1157 L266.8591,128.1185 L266.1871,130.7658 L265.7862,133.484 L264.6354,136.0063 L263.9114,138.6401 L263.3975,141.3287 L263.5257,141.3693 L262.2994,143.8941 L261.9502,146.6965 L260.5801,149.1758 L259.8511,151.858 L259.2086,154.5676 L259.1175,154.5326 L258.2482,157.1868 L257.4077,159.852 L255.9936,162.2971 L255.4421,165.0732 L254.2103,167.5883 L254.0134,167.4961 L252.9915,170.0799 L251.5669,172.4752 L250.475,175.0262 L249.3526,177.563 L248.3313,180.1471 L248.3141,180.1372 L246.6811,182.354 L245.8273,185.0199 L244.3749,187.3409 L243.1211,189.7763 L241.5,192 L241.2832,191.8463 L240.0964,193.8174 L238.8135,195.7204 L237.5053,197.6054 L236.0147,199.3612 L234.8643,201.3581 L234.9561,201.4353 L233.452,203.2083 L231.9306,204.9667 L230.2554,206.596 L228.9162,208.5076 L227.3859,210.2586 L227.2426,210.1201 L225.6606,211.8451 L224.0251,213.5184 L222.3893,215.1914 L220.9829,217.086 L219.2584,218.6732 L219.1488,218.5541 L217.5152,220.2245 L215.9843,222.0065 L214.2269,223.5423 L212.231,224.8191 L210.675,226.5738 L210.8587,226.7946 L209.096,228.274 L207.0014,229.3544 L205.4408,231.0769 L203.6108,232.4754 L201.8291,233.9319 L201.8426,233.9497 L200.0359,235.2761 L198.3189,236.7202 L196.4082,237.9101 L194.6915,239.3546 L192.9141,240.7195 L192.937,240.7521 L191.0621,241.8241 L189.3479,243.1242 L187.5125,244.2523 L186.0214,245.8695 L184.1232,246.9083 L184.2455,247.0946 L182.2608,247.7651 L180.8772,249.3512 L179.1373,250.3947 L177.4675,251.5448 L175.65,252.47 " fill="none" style="stroke: #A80036; stroke-width: 1.0;"/><polygon fill="#A80036" points="171.33,255.17,171.3316,255.1814,173.2995,255.0288,175.2004,254.4052,177.2141,254.5744,179.1173,253.9668,181.0807,253.7832,181.1014,253.873,180.0085,253.662,178.8518,253.1735,177.7237,252.8092,176.6175,252.5402,175.5676,252.5162,175.6446,252.5339,175.9849,251.4512,175.8972,250.2702,176.3174,249.2059,176.7095,248.1351,176.8346,247.003,176.7399,246.9392,175.7128,248.6223,174.8292,250.4022,173.5102,251.8886,172.3664,253.4931,171.33,255.17" style="stroke: #A80036; stroke-width: 1.0;"/><path d="M115.83,64.27 L116.5215,64.4371 L118.8579,74.0714 L119.696,83.3436 L122.1139,92.9976 L124.7473,102.7037 L127.4282,112.4213 L128.8366,121.8313 L131.1574,131.4619 L133.9315,141.2019 L136.78,150.96 " fill="none" style="stroke: #A80036; stroke-width: 1.0; stroke-dasharray: 7.0,7.0;"/><path d="M141.5,192.06 L140.8743,192.06 L142.0647,202.3783 L142.259,212.6967 L141.5579,223.015 L141.4582,233.3333 L142.2119,243.6517 L141.5,253.97 " fill="none" style="stroke: #A80036; stroke-width: 1.0; stroke-dasharray: 7.0,7.0;"/></g></svg>