<?xml version="1.0" encoding="UTF-8" standalone="no"?><svg xmlns="http://www.w3.org/2000/svg" xmlns:xlink="http://www.w3.org/1999/xlink" contentScriptType="application/ecmascript" contentStyleType="text/css" height="483px" preserveAspectRatio="none" style="width:363px;height:483px;" version="1.1" viewBox="0 0 363 483" width="363px" zoomAndPan="magnify"><defs><filter height="300%" id="fkky7mv" width="300%" x="-1" y="-1"><feGaussianBlur result="blurOut" stdDeviation="2.0"/><feColorMatrix in="blurOut" result="blurOut2" type="matrix" values="0 0 0 0 0 0 0 0 0 0 0 0 0 0 0 0 0 0 .4 0"/><feOffset dx="4.0" dy="4.0" in="blurOut2" result="blurOut3"/><feBlend in="SourceGraphic" in2="blurOut3" mode="normal"/></filter></defs><g><text fill="#000000" font-family="sans-serif" font-size="18" lengthAdjust="spacingAndGlyphs" textLength="306" x="42" y="17.4023">ユースケース：ユーザーグループ管理</text><!--cluster ユーザーグループ管理--><polygon fill="#FFFFFF" filter="url(#fkky7mv)" points="92,45.1992,92,44.8328,101.7333,45.1205,111.4667,44.5785,121.2,44.9835,130.9333,45.8098,140.6667,44.7515,150.4,45.7786,160.1333,44.7443,169.8667,44.5931,179.6,45.179,189.3333,45.189,199.0667,45.4596,208.8,45.9458,218.5333,45.3031,228.2667,44.6435,238,45.1992,238.1647,45.2505,239.4607,49.7158,240.8421,54.2076,242.2673,58.7131,243.6375,63.2015,245,67.6875,245,68.1061,255.0909,68.1446,265.1818,68.3033,275.2727,67.2239,285.3636,67.599,295.4545,68.1752,305.5455,67.9754,315.6364,67.3168,325.7273,67.2932,335.8182,67.6323,345.9091,68.3839,356,67.6875,355.7705,67.6875,355.8768,77.6512,355.5562,87.6149,355.9729,97.5786,356.5202,107.5423,356.5146,117.506,355.6233,127.4697,355.5946,137.4334,355.6753,147.3971,355.7005,157.3608,356.5248,167.3245,355.2529,177.2882,356.1291,187.2519,355.8046,197.2156,355.4013,207.1793,355.6962,217.143,355.8733,227.1067,356.5658,237.0704,356.024,247.0341,355.5052,256.9978,356.706,266.9615,356.4302,276.9252,356.1816,286.8889,356.1254,296.8526,355.2724,306.8163,355.4764,316.78,355.8346,326.7437,355.5558,336.7074,355.954,346.6711,355.971,356.6348,356.2757,366.5985,355.87,376.5622,356.3373,386.5259,356.1632,396.4896,356.6051,406.4533,356.2219,416.417,356.5416,426.3807,356.4418,436.3444,356.4744,446.3081,356.6717,456.2718,355.5561,466.2355,356,476.1992,356,476.153,345.8462,475.4786,335.6923,476.7549,325.5385,475.6392,315.3846,476.4032,305.2308,476.4855,295.0769,476.4051,284.9231,476.4672,274.7692,476.2351,264.6154,475.7532,254.4615,476.3233,244.3077,476.2624,234.1538,476.4203,224,476.6769,213.8462,476.402,203.6923,476.8412,193.5385,476.8713,183.3846,475.5144,173.2308,476.4883,163.0769,476.0142,152.9231,475.7263,142.7692,475.8728,132.6154,475.9833,122.4615,476.9231,112.3077,475.7455,102.1538,475.8254,92,476.1992,92.0763,476.1992,91.7711,466.176,91.4035,456.1527,91.4054,446.1295,91.416,436.1062,92.0919,426.0829,92.5502,416.0597,91.9619,406.0364,91.8439,396.0132,92.3496,385.9899,91.3825,375.9667,92.1141,365.9434,92.0048,355.9201,91.2869,345.8969,91.4396,335.8736,91.5144,325.8504,92.0912,315.8271,92.4492,305.8039,91.3213,295.7806,92.2446,285.7574,91.2827,275.7341,91.8092,265.7108,91.419,255.6876,92.0162,245.6643,92.368,235.6411,92.6576,225.6178,92.4168,215.5946,91.6903,205.5713,91.2638,195.5481,92.0961,185.5248,91.8346,175.5015,92.6523,165.4783,91.8745,155.455,92.2596,145.4318,92.6536,135.4085,91.4727,125.3853,92.6655,115.362,91.5233,105.3388,91.7832,95.3155,91.2602,85.2922,91.4628,75.269,91.8973,65.2457,91.3069,55.2225,92,45.1992" style="stroke: #000000; stroke-width: 2.0;"/><path d="M92,67.6875 L92,67.2435 L102.2,68.1208 L112.4,67.1468 L122.6,67.1121 L132.8,67.8722 L143,67.5271 L153.2,68.1711 L163.4,68.6762 L173.6,67.9623 L183.8,67.3654 L194,67.8359 L204.2,68.4354 L214.4,67.5712 L224.6,67.3032 L234.8,67.1853 L245,67.6875 " fill="#FFFFFF" style="stroke: #000000; stroke-width: 2.0;"/><text fill="#000000" font-family="sans-serif" font-size="14" font-weight="bold" lengthAdjust="spacingAndGlyphs" textLength="140" x="96" y="60.7344">ユーザーグループ管理</text><polygon fill="#FEFECE" filter="url(#fkky7mv)" points="338.5537,110.3411,334.4747,114.2772,328.0938,118.1092,318.2935,121.4615,303.696,123.8942,290.2328,126.5773,274.4517,128.6096,258.6188,130.3553,240.9282,131.2869,223.707,131.7989,206.9253,131.7786,189.5366,130.9042,171.0667,128.9981,153.9555,126.5454,141.6301,124.2699,128.453,120.9164,119.8146,117.6855,114.8975,114.4295,109.8455,110.3506,108.2433,106.3132,107.7808,101.8979,114.4363,98.5306,122.1506,94.9929,128.6318,90.9079,143.7206,88.5836,158.0093,86.0828,173.0762,83.8929,188.1634,81.9826,206.035,81.0909,224.0293,80.7495,243.3756,81.3359,259.9061,82.0209,275.3119,83.2507,292.529,85.7268,306.2305,88.306,317.9322,91.3339,326.7427,94.6027,335.8487,98.7833,340.0328,102.6706,338.8426,106.0917" style="stroke: #A80036; stroke-width: 1.5;"/><text fill="#000000" font-family="sans-serif" font-size="14" lengthAdjust="spacingAndGlyphs" textLength="210" x="118.8014" y="111.0036">ユーザーグループ一覧を表示する</text><polygon fill="#FEFECE" filter="url(#fkky7mv)" points="326.4639,193.9818,320.6743,197.037,315.6756,200.6322,306.2556,203.4872,296.1183,206.3073,283.2974,208.528,271.1337,210.7703,257.6095,212.4615,239.2865,212.7177,225.2106,213.452,207.3269,212.7701,190.2495,211.6209,179.2368,211.1131,161.9225,208.4369,151.8489,206.5873,140.0382,203.5496,131.4676,200.4451,127.4756,197.602,121.145,193.5237,121.4898,190.2887,121.5023,186.4137,124.3745,182.707,133.0829,179.9403,141.5464,176.8716,152.0496,174.1333,163.7665,171.666,177.1568,169.6977,190.7474,168.0213,209.1067,167.7732,223.3726,167.0813,241.685,167.8589,254.9907,168.1658,269.3893,169.4298,283.9781,171.4974,295.4152,173.6514,306.5735,176.5434,317.064,180.0767,322.3582,183.2106,324.7715,186.4141,325.2051,189.8229" style="stroke: #A80036; stroke-width: 1.5;"/><text fill="#000000" font-family="sans-serif" font-size="14" lengthAdjust="spacingAndGlyphs" textLength="182" x="132.9007" y="194.9235">ユーザーグループを作成する</text><polygon fill="#FEFECE" filter="url(#fkky7mv)" points="325.3107,274.7243,322.6458,278.4773,315.1085,281.5055,306.6561,284.5767,296.465,287.3847,283.066,289.4763,270.7122,291.6762,255.8466,293.0678,240.2032,293.9224,223.4575,294.0605,207.6095,293.8332,192.2819,293.0748,175.8628,291.3596,163.5944,289.8102,150.5649,287.3006,139.9266,284.5247,130.9142,281.3215,127.4365,278.5933,120.8812,274.4648,119.3742,270.8163,120.6296,267.2188,124.5769,263.7522,132.1629,260.7348,142.1996,258.0175,151.2318,254.9507,161.966,252.2639,176.7518,250.6072,191.2739,249.1389,208.992,248.7476,222.5231,247.8916,238.5008,248.1478,255.6189,249.3061,269.4123,250.435,286.3372,253.0242,298.6032,255.3634,308.4294,257.9579,316.9493,261.0511,322.2768,264.1924,325.2004,267.5099,327.487,271.3325" style="stroke: #A80036; stroke-width: 1.5;"/><text fill="#000000" font-family="sans-serif" font-size="14" lengthAdjust="spacingAndGlyphs" textLength="182" x="132.9007" y="275.9235">ユーザーグループを編集する</text><polygon fill="#FEFECE" filter="url(#fkky7mv)" points="326.9234,356.0844,320.0333,358.8939,314.0268,362.264,305.7655,365.3777,296.6531,368.4267,285.0229,370.9133,272.2212,373.0132,254.8597,373.8474,241.0084,375.1022,224.5055,375.2946,207.3251,374.7697,193.0425,374.2447,176.7139,372.5496,162.3714,370.5371,150.3808,368.2595,139.6011,365.452,130.4168,362.2104,127.4058,359.5865,120.3555,355.3474,120.3599,352.0364,121.075,348.3183,128.0785,345.5342,133.5962,342.0549,141.7412,338.9151,150.4275,335.7711,162.0907,333.2918,176.5551,331.5633,193.2025,330.5696,206.1891,329.1216,224.601,329.3556,241.8707,329.9004,257.2719,330.6753,269.1134,331.3682,285.6523,333.8712,295.5852,335.6894,306.7889,338.5915,313.846,341.358,322.1025,345.1535,323.7623,348.1887,326.4885,352.1095" style="stroke: #A80036; stroke-width: 1.5;"/><text fill="#000000" font-family="sans-serif" font-size="14" lengthAdjust="spacingAndGlyphs" textLength="182" x="132.9007" y="356.9235">ユーザーグループを削除する</text><polygon fill="#FEFECE" filter="url(#fkky7mv)" points="332.2079,438.8516,328.1209,442.5354,319.6931,445.6393,310.6199,448.8611,300.8859,452.0684,286.3129,454.2017,273.2306,456.5336,257.6867,458.0581,241.3292,459.0185,224.0925,459.287,205.4169,458.6388,191.991,458.4722,174.1531,456.5735,160.8371,454.8749,148.2521,452.5041,136.1907,449.4045,124.6635,445.5891,120.1831,442.5341,117.7563,439.1821,112.7088,434.5649,116.1586,431.2363,117.8211,427.0143,126.3057,423.923,136.777,421.0115,144.5509,417.3692,159.9746,415.4247,173.0473,413.0906,190.5497,412.0008,206.4405,410.9369,221.9289,410.2803,239.0213,410.5772,258.6072,412.111,273.6455,413.3883,287.114,415.1207,299.9608,417.5497,312.3569,420.7235,321.5158,424.0133,329.1561,427.7696,332.3718,431.2967,331.0631,434.5032" style="stroke: #A80036; stroke-width: 1.5;"/><text fill="#000000" font-family="sans-serif" font-size="14" lengthAdjust="spacingAndGlyphs" textLength="196" x="125.8163" y="439.7066">ユーザーグループをコピーする</text><!--entity 管理者--><polygon fill="#FEFECE" filter="url(#fkky7mv)" points="35.2576,241.701,33.9254,243.0789,32.5068,244.7942,31.3445,246.3824,30.2557,247.5126,28.6887,247.5676,26.2572,247.5231,24.3179,246.8692,22.877,246.5578,21.8257,245.2298,20.0182,244.4002,19.8566,242.2288,19.025,239.922,18.9952,237.0919,20.1677,235.1305,21.8111,232.9822,23.8507,232.4551,25.2367,231.8278,26.7607,231.7424,28.5059,231.7624,30.9652,232.4091,32.8615,234.1232,34.3971,235.836,34.689,237.9268,35.2777,240.5933" style="stroke: #A80036; stroke-width: 2.0;"/><path d="M27,247.6992 L27.2017,247.6992 L26.5152,253.0992 L27.2616,258.4992 L26.7339,263.8992 L27.1082,269.2992 L27,274.6992 M14,255.6992 L14,256.3456 L19.2,255.13 L24.4,256.0972 L29.6,256.0338 L34.8,255.0747 L40,255.6992 M27,274.6992 L27.3706,275.0204 L24.7788,278.0275 L22.1373,280.9915 L19.2552,283.7471 L16.905,286.9635 L14,289.6992 M27,274.6992 L26.5472,274.3068 L29.2072,277.3588 L31.9317,280.4667 L35.0949,283.9548 L37.6839,286.9453 L40,289.6992 " fill="#FEFECE" style="stroke: #A80036; stroke-width: 2.0;"/><text fill="#000000" font-family="sans-serif" font-size="14" lengthAdjust="spacingAndGlyphs" textLength="42" x="6" y="310.2344">管理者</text><path d="M37.67,229.6892 L37.7737,229.7234 L38.2319,227.613 L39.205,225.6724 L39.6492,223.5574 L40.5528,221.5939 L41.0352,219.4914 L41.1213,219.5237 L41.587,217.2796 L42.8348,215.329 L43.3946,213.1202 L43.9707,210.9174 L45.0145,208.8903 L45.0517,208.9063 L45.93,206.7289 L46.7438,204.5238 L47.5315,202.3075 L49.0066,200.3865 L49.6476,198.1071 L49.5163,198.0421 L50.803,196.003 L51.5482,193.6956 L53.0077,191.7421 L54.033,189.5735 L54.9737,187.363 L54.7575,187.238 L56.4051,185.3931 L57.5079,183.2333 L58.6951,181.1223 L59.6792,178.8939 L61.0326,176.879 L61.0756,176.9084 L62.4844,174.9369 L63.8774,172.9547 L64.9488,170.7528 L66.7551,169.0528 L67.8636,166.8763 L67.732,166.7681 L69.3234,164.9597 L70.9767,163.2022 L72.2601,161.1407 L73.8045,159.2937 L75.5062,157.576 L75.5582,157.6286 L77.119,155.8134 L78.6885,154.0071 L80.4057,152.3504 L82.2477,150.8203 L84,149.1992 L83.8011,148.9449 L86.1031,147.8052 L88.0076,146.1572 L89.7911,144.3546 L92.0824,143.2012 L93.9075,141.4517 L93.9455,141.5122 L96.1581,140.2633 L98.3014,138.9044 L100.3522,137.3983 L102.6155,136.2301 L104.6475,134.6942 L104.7581,134.9095 L107.0294,133.7416 L109.3351,132.6407 L111.3122,130.9002 L113.779,130.1129 L116.0063,128.8592 L116.1344,129.1618 L118.4336,128.0395 L120.754,126.9671 L122.9868,125.6877 L125.4534,124.9605 L127.77,123.8792 " fill="none" style="stroke: #A80036; stroke-width: 1.0;"/><polygon fill="#A80036" points="132.71,122.0592,132.7184,122.1927,130.7434,121.9227,128.7916,122.0207,126.8059,121.5832,124.8392,121.4456,122.8808,121.4379,122.949,121.5867,123.9085,121.9087,124.8489,122.1894,125.9325,122.7818,126.902,123.126,128.0219,123.7976,128.0618,123.8159,127.553,124.8272,127.1074,125.8676,126.589,126.8745,126.0373,127.8661,125.6622,128.9388,125.6772,128.9541,127.0797,127.571,128.6109,126.3197,129.9953,124.918,131.1731,123.3047,132.71,122.0592" style="stroke: #A80036; stroke-width: 1.0;"/><path d="M48.15,253.7592 L48.341,254.0082 L49.9276,252.7194 L51.5669,251.4993 L52.9427,249.9358 L54.8066,249.0085 L56.2561,247.5411 L56.4395,247.8009 L57.9276,246.1498 L59.7943,245.0349 L61.6886,243.9592 L63.2735,242.4451 L65.1113,241.2892 L65.2468,241.5035 L67.0148,240.165 L68.7049,238.7033 L70.8786,238.0061 L72.492,236.4232 L74.4483,235.3823 L74.3943,235.2829 L76.3805,234.386 L78.3473,233.4535 L80.2752,232.4491 L82.1066,231.2671 L84,230.1992 L84.0118,230.2253 L87.0329,229.1317 L89.7788,227.4318 L92.6735,226.0596 L95.6148,224.7903 L98.5827,223.5794 L98.5551,223.5092 L101.5035,222.0911 L104.708,221.3249 L107.7774,220.2149 L110.7088,218.7534 L113.7663,217.613 L113.7129,217.4585 L116.8739,216.6034 L119.9949,215.6327 L123.0213,214.3879 L126.1405,213.4116 L129.2067,212.2822 L129.1832,212.2055 L132.2555,211.2684 L135.3814,210.5056 L138.4091,209.4232 L141.4188,208.2819 L144.56,207.5692 " fill="none" style="stroke: #A80036; stroke-width: 1.0;"/><polygon fill="#A80036" points="149.41,206.1892,149.4376,206.381,147.4326,205.717,145.5414,205.844,143.5751,205.4491,141.5967,204.9692,139.6612,204.7888,139.5541,204.5972,140.6674,205.3744,141.5582,205.7537,142.5815,206.3698,143.6378,207.0451,144.5986,207.5496,144.7105,207.6121,144.16,208.6005,143.4981,209.5267,142.9954,210.5418,142.5503,211.5892,141.8378,212.487,141.6781,212.295,143.3233,211.1926,144.8112,209.9012,146.5146,208.8689,147.9713,207.5398,149.41,206.1892" style="stroke: #A80036; stroke-width: 1.0;"/><path d="M48.13,271.1992 L48.13,270.7208 L57.7671,270.4934 L67.4043,270.3097 L77.0414,270.781 L86.6786,271.8893 L96.3157,270.2159 L105.9529,270.7258 L115.59,271.1992 " fill="none" style="stroke: #A80036; stroke-width: 1.0;"/><polygon fill="#A80036" points="120.78,271.1992,120.6839,270.983,118.9357,270.2997,117.1062,269.4331,115.3122,268.6467,113.5456,267.9219,111.78,267.1992,111.8507,267.2699,112.551,267.9702,113.4065,268.8257,114.3075,269.7267,114.9984,270.4176,115.78,271.1992,115.8243,271.2435,114.8188,271.838,114.142,272.7612,113.4171,273.6363,112.5049,274.3241,111.78,275.1992,111.7454,275.1214,113.64,274.5341,115.3484,273.5282,117.2142,272.8761,118.9233,271.8716,120.78,271.1992" style="stroke: #A80036; stroke-width: 1.0;"/><path d="M48.23,288.1492 L48.264,288.1948 L49.9492,289.4904 L51.3643,290.4243 L53.2082,291.9324 L54.5827,292.8119 L56.3447,294.2103 L56.5276,294.4754 L57.9287,295.1625 L59.8848,296.6538 L61.5018,297.6538 L63.5778,299.3189 L65.1925,300.3155 L65.3497,300.5685 L67.0737,301.5036 L68.8264,302.4849 L70.7733,303.7787 L72.5397,304.782 L74.5016,306.1 L74.4687,306.0388 L76.4237,307.1617 L78.3755,308.2786 L80.0707,308.9176 L82.2283,310.4178 L84,311.1992 L84.1367,311.5018 L86.8662,312.2757 L89.9238,313.7757 L92.9003,315.0964 L95.8312,316.3159 L98.9523,317.9566 L99.0359,318.1691 L102.0223,319.0739 L105.0869,320.1778 L108.2315,321.485 L111.2809,322.5503 L114.5112,324.0755 L114.5275,324.1223 L117.7107,325.2866 L120.8562,326.3426 L123.9931,327.3739 L127.1845,328.5619 L130.312,329.5663 L130.3935,329.8284 L133.5464,330.8586 L136.6478,331.7231 L139.7008,332.4322 L142.9173,333.667 L145.99,334.4392 " fill="none" style="stroke: #A80036; stroke-width: 1.0;"/><polygon fill="#A80036" points="150.93,335.8692,150.8092,335.7255,149.3115,334.4693,147.7624,333.152,146.4376,332.1013,145.0603,330.9883,143.3926,329.5299,143.205,329.4264,144.1162,330.618,144.3634,331.4432,145.2344,332.6127,145.6797,333.5472,146.1262,334.4824,146.185,334.5889,145.1585,335.0704,144.2619,335.7873,143.1809,336.1701,142.2319,336.792,141.1737,337.216,141.1797,337.2597,143.0945,336.7264,145.092,336.7915,147.0088,336.2725,148.9815,336.1584,150.93,335.8692" style="stroke: #A80036; stroke-width: 1.0;"/><path d="M37.94,312.9492 L37.7429,312.883 L38.5745,314.949 L39.0398,316.8919 L40.1359,319.0467 L40.933,321.1011 L41.3231,323.0187 L41.3342,323.0229 L41.837,325.0011 L43.0435,327.2477 L43.8074,329.3255 L44.6533,331.4346 L45.3098,333.4714 L45.2437,333.4426 L46.1778,335.5705 L46.8605,337.5889 L47.8719,339.7505 L49.0047,341.965 L49.9376,344.0924 L50.2116,344.2299 L51.2908,346.3537 L51.9166,348.2501 L53.1038,350.4282 L54.1775,352.5493 L55.2437,354.6667 L55.1959,354.6388 L56.6432,356.8432 L57.8641,358.9154 L58.7364,360.784 L59.9607,362.8582 L61.2657,364.9795 L61.0479,364.8295 L62.8664,367.116 L63.9632,368.9054 L65.3595,370.9011 L66.8696,372.9752 L68.0408,374.8158 L68.0136,374.7933 L69.5663,376.655 L71.1087,378.5082 L72.4838,380.223 L73.9584,382.0201 L75.6064,383.9607 L75.7327,384.0893 L77.4329,385.7589 L78.856,387.1462 L80.7138,388.9764 L82.4923,390.7258 L84,392.1992 L83.9432,392.1258 L85.9363,393.5961 L88.2934,395.5368 L90.5444,397.3403 L92.7165,399.0419 L94.6569,400.4441 L94.5869,400.3301 L97.1368,402.1313 L99.2702,403.2543 L101.4972,404.5296 L103.8056,405.9377 L106.2475,407.563 L106.195,407.4571 L108.6373,408.6516 L111.197,410.0832 L113.6324,411.2637 L116.0993,412.5079 L118.5094,413.6375 L118.5842,413.823 L121.0735,414.7343 L123.6026,415.744 L126.1346,416.7612 L128.5616,417.518 L131.18,418.7492 " fill="none" style="stroke: #A80036; stroke-width: 1.0;"/><polygon fill="#A80036" points="136,420.4392,136.0273,420.4681,134.7282,419.2582,133.0306,417.626,131.6288,416.3072,130.4015,415.1734,128.8358,413.681,128.9478,413.7347,129.5339,414.8011,129.6384,415.6364,130.348,416.7621,130.9034,417.8138,131.2829,418.7811,131.2262,418.6629,130.2681,419.2813,129.2676,419.8115,128.22,420.2435,127.2735,420.886,126.1828,421.2283,126.1936,421.3631,128.1495,421.1111,130.0939,420.7168,132.0579,420.5649,134.0357,420.5859,136,420.4392" style="stroke: #A80036; stroke-width: 1.0;"/></g></svg>