<?xml version="1.0" encoding="UTF-8" standalone="no"?><svg xmlns="http://www.w3.org/2000/svg" xmlns:xlink="http://www.w3.org/1999/xlink" contentScriptType="application/ecmascript" contentStyleType="text/css" height="423px" preserveAspectRatio="none" style="width:444px;height:423px;" version="1.1" viewBox="0 0 444 423" width="444px" zoomAndPan="magnify"><defs><filter height="300%" id="fcvbq90" width="300%" x="-1" y="-1"><feGaussianBlur result="blurOut" stdDeviation="2.0"/><feColorMatrix in="blurOut" result="blurOut2" type="matrix" values="0 0 0 0 0 0 0 0 0 0 0 0 0 0 0 0 0 0 .4 0"/><feOffset dx="4.0" dy="4.0" in="blurOut2" result="blurOut3"/><feBlend in="SourceGraphic" in2="blurOut3" mode="normal"/></filter></defs><g><text fill="#000000" font-family="sans-serif" font-size="18" lengthAdjust="spacingAndGlyphs" textLength="306" x="82.5" y="17.4023">ドメインモデル図：ブログコンテンツ</text><!--cluster ブログコンテンツ--><polygon fill="#FFFFFF" filter="url(#fcvbq90)" points="22,45.1992,22,44.5125,31.8333,45.6837,41.6667,45.6574,51.5,44.635,61.3333,45.2568,71.1667,45.5568,81,44.4542,90.8333,45.7661,100.6667,45.6186,110.5,44.6226,120.3333,45.5488,130.1667,44.5484,140,45.1992,140.1495,45.2457,141.3081,49.6683,143.0012,54.2572,144.3053,58.725,145.6097,63.1929,147,67.6875,147,67.5302,157,68.1345,167,67.3326,177,68.1298,187,67.5205,197,67.8332,207,68.3826,217,67.6102,227,68.0247,237,67.415,247,67.3224,257,68.0483,267,67.1733,277,68.0134,287,68.2127,297,67.7392,307,66.9674,317,68.1279,327,68.0883,337,68.3082,347,67.2274,357,67.4657,367,67.9903,377,67.8878,387,68.3211,397,68.0534,407,67.2842,417,67.0117,427,68.3256,437,67.6875,437.2168,67.6875,437.1185,77.7841,436.4763,87.8807,437.7276,97.9773,437.2889,108.0739,437.3653,118.1705,436.2842,128.2671,436.9178,138.3637,437.749,148.4603,437.5746,158.5569,436.9816,168.6535,437.3366,178.7502,437.6673,188.8468,437.6157,198.9434,437.4703,209.04,436.4385,219.1366,436.7019,229.2332,436.6539,239.3298,436.6006,249.4264,437.5257,259.523,437.0966,269.6196,437.529,279.7162,437.1577,289.8128,436.5908,299.9094,436.9084,310.006,437.7366,320.1026,437,330.1992,437,330.679,427.119,330.5484,417.2381,330.5005,407.3571,329.9872,397.4762,330.3613,387.5952,330.0872,377.7143,329.6906,367.8333,330.2719,357.9524,329.5949,348.0714,330.8151,338.1905,329.7039,328.3095,330.8486,318.4286,330.8706,308.5476,330.864,298.6667,329.5137,288.7857,329.8384,278.9048,329.5335,269.0238,329.7578,259.1429,330.8565,249.2619,329.8017,239.381,330.5082,229.5,330.5328,219.619,329.5875,209.7381,329.6415,199.8571,330.4273,189.9762,330.5704,180.0952,330.8248,170.2143,329.682,160.3333,330.8872,150.4524,330.6733,140.5714,329.8489,130.6905,329.6419,120.8095,330.1227,110.9286,330.9004,101.0476,329.7709,91.1667,330.2359,81.2857,330.0406,71.4048,330.8556,61.5238,330.8538,51.6429,330.6121,41.7619,330.2755,31.881,330.009,22,330.1992,22.376,330.1992,21.5548,320.3716,22.5377,310.544,22.5233,300.7165,21.3499,290.8889,22.1577,281.0613,21.2962,271.2337,22.2382,261.4061,22.5813,251.5785,21.3174,241.7509,22.6174,231.9234,21.2816,222.0958,22.2163,212.2682,22.6531,202.4406,22.49,192.613,21.9433,182.7854,21.9626,172.9578,22.7239,163.1303,21.6092,153.3027,22.3782,143.4751,22.1973,133.6475,21.2882,123.8199,22.4722,113.9923,22.4896,104.1647,21.9512,94.3371,21.5973,84.5096,22.0113,74.682,22.2613,64.8544,21.9559,55.0268,22,45.1992" style="stroke: #000000; stroke-width: 2.0;"/><path d="M22,67.6875 L22,67.705 L31.6154,67.7466 L41.2308,67.035 L50.8462,66.7085 L60.4615,67.4008 L70.0769,68.684 L79.6923,67.3574 L89.3077,68.521 L98.9231,68.125 L108.5385,68.1699 L118.1538,67.3927 L127.7692,67.9931 L137.3846,68.0855 L147,67.6875 " fill="#FFFFFF" style="stroke: #000000; stroke-width: 2.0;"/><text fill="#000000" font-family="sans-serif" font-size="14" font-weight="bold" lengthAdjust="spacingAndGlyphs" textLength="112" x="26" y="60.7344">ブログコンテンツ</text><!--class ブログコンテンツ--><polygon fill="#FEFECE" filter="url(#fcvbq90)" points="38.5,80.1992,38.5,79.6318,48.3077,79.8781,58.1154,80.5418,67.9231,79.8667,77.7308,80.737,87.5385,79.5446,97.3462,79.5747,107.1538,80.0628,116.9615,80.407,126.7692,80.742,136.5769,80.1855,146.3846,79.5612,156.1923,80.7543,166,80.5369,175.8077,80.2735,185.6154,79.5703,195.4231,79.7277,205.2308,80.3256,215.0385,80.3503,224.8462,80.1849,234.6538,79.8836,244.4615,80.3287,254.2692,80.7261,264.0769,80.5515,273.8846,80.1169,283.6923,80.7596,293.5,80.1992,293.034,80.1992,293.5184,90.3873,293.2297,100.5754,293.7192,110.7635,293.6119,120.9516,293.7183,131.1397,292.8164,141.3278,293.5035,151.5159,293.5172,161.704,292.8815,171.8921,293.0502,182.0802,293.7803,192.2683,294.1858,202.4564,293.137,212.6444,292.7938,222.8325,294.2105,233.0206,292.8661,243.2087,294.0275,253.3968,293.4283,263.5849,293.4723,273.773,293.5634,283.9611,293.0377,294.1492,293.4989,304.3373,293.5,314.5254,293.5,314.9144,283.6923,314.6081,273.8846,313.9164,264.0769,314.5091,254.2692,315.2489,244.4615,314.5613,234.6538,313.8907,224.8462,314.892,215.0385,313.8939,205.2308,314.1069,195.4231,314.6573,185.6154,314.9797,175.8077,313.8507,166,314.4269,156.1923,314.8531,146.3846,315.2355,136.5769,314.7604,126.7692,314.5022,116.9615,314.7539,107.1538,314.816,97.3462,313.8251,87.5385,314.6402,77.7308,315.0297,67.9231,314.4868,58.1154,314.7292,48.3077,314.9254,38.5,314.5254,38.6009,314.5254,38.1381,304.3373,38.1286,294.1492,38.2812,283.9611,38.3113,273.773,38.9438,263.5849,38.6328,253.3968,38.886,243.2087,38.072,233.0206,37.9023,222.8325,38.0569,212.6444,38.3518,202.4564,37.9416,192.2683,38.1859,182.0802,38.2006,171.8921,38.9951,161.704,38.5984,151.5159,39.221,141.3278,37.8085,131.1397,37.9958,120.9516,38.0247,110.7635,37.913,100.5754,38.9007,90.3873,38.5,80.1992" style="stroke: #A80036; stroke-width: 1.5;"/><polygon fill="#ADD1B2" points="124.3275,99.7557,122.6289,102.4141,120.6502,104.9125,118.0386,106.203,115.7409,107.3395,112.9285,107.5551,109.5698,107.0425,108.0181,105.3229,105.9514,103.136,103.8255,100.2965,103.5197,97.5335,103.4889,94.7609,102.967,92.2959,104.3484,90.7896,106.2586,88.2053,108.4628,86.8104,111.1337,85.277,113.2308,85.5837,115.2402,85.262,118.5517,87.0099,121.4262,88.9002,123.7412,90.2069,123.7946,93.3966,124.8102,96.9952" style="stroke: #A80036; stroke-width: 1.0;"/><path d="M116.2231,102.3423 Q115.6421,102.6411 115.0029,102.7905 Q114.3638,102.9399 113.6582,102.9399 Q111.1514,102.9399 109.8315,101.2881 Q108.5117,99.6362 108.5117,96.5151 Q108.5117,93.3857 109.8315,91.7339 Q111.1514,90.082 113.6582,90.082 Q114.3638,90.082 115.0112,90.2314 Q115.6587,90.3809 116.2231,90.6797 L116.2231,93.4023 Q115.5923,92.8213 114.9988,92.5515 Q114.4053,92.2817 113.7744,92.2817 Q112.4297,92.2817 111.7449,93.3484 Q111.0601,94.415 111.0601,96.5151 Q111.0601,98.6069 111.7449,99.6736 Q112.4297,100.7402 113.7744,100.7402 Q114.4053,100.7402 114.9988,100.4705 Q115.5923,100.2007 116.2231,99.6196 Z "/><text fill="#000000" font-family="sans-serif" font-size="12" lengthAdjust="spacingAndGlyphs" textLength="96" x="134.25" y="100.7344">ブログコンテンツ</text><path d="M39.5,112.1992 L39.5,112.4894 L49.62,112.77 L59.74,112.7215 L69.86,111.8987 L79.98,112.7048 L90.1,111.7317 L100.22,112.1746 L110.34,112.536 L120.46,111.5197 L130.58,111.2132 L140.7,112.6124 L150.82,112.4046 L160.94,111.6452 L171.06,111.2636 L181.18,112.1776 L191.3,112.2346 L201.42,112.8424 L211.54,112.0931 L221.66,111.5078 L231.78,111.9641 L241.9,112.3279 L252.02,112.5166 L262.14,111.6966 L272.26,111.7513 L282.38,112.2638 L292.5,112.1992 " fill="#FEFECE" style="stroke: #A80036; stroke-width: 1.5;"/><text fill="#000000" font-family="sans-serif" font-size="11" lengthAdjust="spacingAndGlyphs" textLength="171" x="44.5" y="126.834">メールフォーム概要：description</text><text fill="#000000" font-family="sans-serif" font-size="11" lengthAdjust="spacingAndGlyphs" textLength="171" x="44.5" y="139.7891">送信先メールアドレス：sender_1</text><text fill="#000000" font-family="sans-serif" font-size="11" lengthAdjust="spacingAndGlyphs" textLength="204" x="44.5" y="152.7441">BCC用送信先メールアドレス：sender_2</text><text fill="#000000" font-family="sans-serif" font-size="11" lengthAdjust="spacingAndGlyphs" textLength="127" x="44.5" y="165.6992">送信先名：sender_name</text><text fill="#000000" font-family="sans-serif" font-size="11" lengthAdjust="spacingAndGlyphs" textLength="242" x="44.5" y="178.6543">自動返信メール件名[ユーザー宛]：subject_user</text><text fill="#000000" font-family="sans-serif" font-size="11" lengthAdjust="spacingAndGlyphs" textLength="240" x="44.5" y="191.6094">自動送信メール件名[管理者宛]：subject_admin</text><text fill="#000000" font-family="sans-serif" font-size="11" lengthAdjust="spacingAndGlyphs" textLength="243" x="44.5" y="204.5645">メールフォームテンプレート名：form_template</text><text fill="#000000" font-family="sans-serif" font-size="11" lengthAdjust="spacingAndGlyphs" textLength="217" x="44.5" y="217.5195">送信メールテンプレート名：mail_template</text><text fill="#000000" font-family="sans-serif" font-size="11" lengthAdjust="spacingAndGlyphs" textLength="161" x="44.5" y="230.4746">リダイレクトURL：redirect_url</text><text fill="#000000" font-family="sans-serif" font-size="11" lengthAdjust="spacingAndGlyphs" textLength="149" x="44.5" y="243.4297">イメージ認証：auth_captcha</text><text fill="#000000" font-family="sans-serif" font-size="11" lengthAdjust="spacingAndGlyphs" textLength="174" x="44.5" y="256.3848">ウィジェットエリア：widget_area</text><text fill="#000000" font-family="sans-serif" font-size="11" lengthAdjust="spacingAndGlyphs" textLength="86" x="44.5" y="269.3398">SSL通信：ssl_on</text><text fill="#000000" font-family="sans-serif" font-size="11" lengthAdjust="spacingAndGlyphs" textLength="150" x="44.5" y="282.2949">データベース保存：save_info</text><text fill="#000000" font-family="sans-serif" font-size="11" lengthAdjust="spacingAndGlyphs" textLength="186" x="44.5" y="295.25">フォーム受付開始日：publish_begin</text><text fill="#000000" font-family="sans-serif" font-size="11" lengthAdjust="spacingAndGlyphs" textLength="176" x="44.5" y="308.2051">フォーム受付終了日：publish_end</text><!--class コンテンツ--><polygon fill="#FEFECE" filter="url(#fcvbq90)" points="329,157.6992,329,157.6647,339.2222,157.5346,349.4444,158.399,359.6667,158.0403,369.8889,157.5208,380.1111,157.7676,390.3333,157.8748,400.5556,158.2775,410.7778,157.1612,421,157.6992,420.3215,157.6992,420.5215,167.5574,420.2987,177.4155,421.5238,187.2737,420.414,197.1318,420.2841,206.99,420.3971,216.8481,420.6136,226.7063,421,236.5645,421,236.9571,410.7778,236.9333,400.5556,235.9034,390.3333,235.8413,380.1111,235.8667,369.8889,236.0003,359.6667,236.499,349.4444,236.7102,339.2222,237.0224,329,236.5645,328.8612,236.5645,329.3289,226.7063,329.0733,216.8481,328.35,206.99,328.4581,197.1318,329.0798,187.2737,329.1268,177.4155,328.8783,167.5574,329,157.6992" style="stroke: #A80036; stroke-width: 1.5;"/><polygon fill="#ADD1B2" points="354.584,175.7272,354.2767,178.1953,352.5667,180.9433,350.9926,182.5411,348.3825,183.1521,345.9602,183.9177,342.7609,184.243,340.513,184.1653,337.8752,182.9212,336.1177,181.8069,335.1197,179.9399,333.5608,177.175,333.5981,173.6109,333.4039,169.9816,334.7036,167.8401,336.6708,165.8837,339.4097,163.0803,343.2971,162.1246,346.9301,163.4028,350.7919,164.2174,352.3533,166.0034,353.5016,168.366,354.2622,171.0885,355.1062,173.5931,354.0317,176.2302" style="stroke: #A80036; stroke-width: 1.0;"/><path d="M346.4731,179.8423 Q345.8921,180.1411 345.2529,180.2905 Q344.6138,180.4399 343.9082,180.4399 Q341.4014,180.4399 340.0815,178.7881 Q338.7617,177.1362 338.7617,174.0151 Q338.7617,170.8857 340.0815,169.2339 Q341.4014,167.582 343.9082,167.582 Q344.6138,167.582 345.2612,167.7314 Q345.9087,167.8809 346.4731,168.1797 L346.4731,170.9023 Q345.8423,170.3213 345.2488,170.0515 Q344.6553,169.7817 344.0244,169.7817 Q342.6797,169.7817 341.9949,170.8484 Q341.3101,171.915 341.3101,174.0151 Q341.3101,176.1069 341.9949,177.1736 Q342.6797,178.2402 344.0244,178.2402 Q344.6553,178.2402 345.2488,177.9705 Q345.8423,177.7007 346.4731,177.1196 Z "/><text fill="#000000" font-family="sans-serif" font-size="12" lengthAdjust="spacingAndGlyphs" textLength="60" x="358" y="178.2344">コンテンツ</text><path d="M330,189.6992 L330,189.0175 L340,190.6594 L350,190.3248 L360,189.1217 L370,189.4911 L380,189.125 L390,188.826 L400,188.9749 L410,190.6272 L420,189.6992 " fill="#FEFECE" style="stroke: #A80036; stroke-width: 1.5;"/><text fill="#000000" font-family="sans-serif" font-size="11" lengthAdjust="spacingAndGlyphs" textLength="44" x="335" y="204.334">タイトル</text><text fill="#000000" font-family="sans-serif" font-size="11" lengthAdjust="spacingAndGlyphs" textLength="21" x="335" y="217.2891">URL</text><text fill="#000000" font-family="sans-serif" font-size="11" lengthAdjust="spacingAndGlyphs" textLength="44" x="335" y="230.2441">公開状態</text><!--class メールフィールド--><polygon fill="#FEFECE" filter="url(#fcvbq90)" points="21,374.1992,21,374.7858,30.8462,374.8492,40.6923,374.6759,50.5385,374.732,60.3846,374.3531,70.2308,373.6622,80.0769,374.0542,89.9231,374.6226,99.7692,373.5391,109.6154,373.7812,119.4615,374.1655,129.3077,373.9944,139.1538,373.7994,149,374.1992,148.8633,374.1992,148.9043,382.1992,149.0529,390.1992,149.0225,398.1992,149.2442,406.1992,149,414.1992,149,414.0973,139.1538,413.8048,129.3077,414.6131,119.4615,413.717,109.6154,414.0268,99.7692,414.1905,89.9231,414.1766,80.0769,414.3765,70.2308,413.5042,60.3846,414.9427,50.5385,414.3287,40.6923,414.8004,30.8462,414.6563,21,414.1992,20.9088,414.1992,20.91,406.1992,20.9946,398.1992,20.8043,390.1992,21.1765,382.1992,21,374.1992" style="stroke: #A80036; stroke-width: 1.5;"/><polygon fill="#ADD1B2" points="47.0411,393.9179,45.4002,396.011,42.7743,398.6318,41.2781,400.1278,38.8468,400.8711,36.9402,401.5143,34.7939,400.7042,32.2096,400.4387,29.4184,399.233,27.5102,397.1596,25.7169,394.3631,25.5336,391.6816,25.4393,389.7481,25.6535,387.6444,26.4493,384.8117,28.3685,381.5325,31.8421,379.6568,34.7075,379.3176,37.3602,379.5056,39.1197,380.3697,41.4078,380.822,44.1196,382.3173,45.5871,384.8875,47.0447,386.972,46.9641,389.3557,46.5404,392.8611" style="stroke: #A80036; stroke-width: 1.0;"/><path d="M38.4731,396.3423 Q37.8921,396.6411 37.2529,396.7905 Q36.6138,396.9399 35.9082,396.9399 Q33.4014,396.9399 32.0815,395.2881 Q30.7617,393.6362 30.7617,390.5151 Q30.7617,387.3857 32.0815,385.7339 Q33.4014,384.082 35.9082,384.082 Q36.6138,384.082 37.2612,384.2314 Q37.9087,384.3809 38.4731,384.6797 L38.4731,387.4023 Q37.8423,386.8213 37.2488,386.5515 Q36.6553,386.2817 36.0244,386.2817 Q34.6797,386.2817 33.9949,387.3484 Q33.3101,388.415 33.3101,390.5151 Q33.3101,392.6069 33.9949,393.6736 Q34.6797,394.7402 36.0244,394.7402 Q36.6553,394.7402 37.2488,394.4705 Q37.8423,394.2007 38.4731,393.6196 Z "/><text fill="#000000" font-family="sans-serif" font-size="12" lengthAdjust="spacingAndGlyphs" textLength="96" x="50" y="394.7344">メールフィールド</text><path d="M22,406.1992 L22,405.7471 L31.6923,406.4248 L41.3846,406.9165 L51.0769,406.7321 L60.7692,405.4296 L70.4615,406.7907 L80.1538,405.8242 L89.8462,406.53 L99.5385,406.3766 L109.2308,405.4326 L118.9231,405.4327 L128.6154,406.4498 L138.3077,405.8484 L148,406.1992 " fill="#FEFECE" style="stroke: #A80036; stroke-width: 1.5;"/><!--class メールメッセージ--><polygon fill="#FEFECE" filter="url(#fcvbq90)" points="184,374.1992,184,374.8512,193.8462,374.3282,203.6923,374.1158,213.5385,373.8813,223.3846,373.6094,233.2308,374.4974,243.0769,374.6055,252.9231,373.5833,262.7692,374.0084,272.6154,374.3166,282.4615,374.3721,292.3077,373.982,302.1538,374.2497,312,374.1992,311.7551,374.1992,311.8518,382.1992,312.0213,390.1992,312.2424,398.1992,311.8362,406.1992,312,414.1992,312,414.487,302.1538,414.8985,292.3077,414.3133,282.4615,414.3805,272.6154,414.2509,262.7692,414.8265,252.9231,414.4296,243.0769,414.4643,233.2308,414.2584,223.3846,414.328,213.5385,414.1801,203.6923,414.4432,193.8462,414.7323,184,414.1992,183.7607,414.1992,183.8049,406.1992,184.2361,398.1992,183.9055,390.1992,184.0889,382.1992,184,374.1992" style="stroke: #A80036; stroke-width: 1.5;"/><polygon fill="#ADD1B2" points="209.5163,392.2838,209.6234,395.025,207.826,396.6402,206.0837,398.8476,202.6868,400.0249,200.1538,400.8168,197.3537,401.6072,195.2571,401.0327,192.7506,398.8441,190.8582,397.5942,188.9614,395.922,188.6203,393.7007,187.8856,391.8394,187.6443,388.5453,188.3022,386.617,190.5852,384.2091,191.8122,381.1395,194.6338,380.4631,197.797,379.3076,200.5285,379.9489,203.435,380.6459,206.9792,381.8615,208.039,385.021,209.3348,386.8704,210.5832,389.2027,209.9648,392.4955" style="stroke: #A80036; stroke-width: 1.0;"/><path d="M201.4731,396.3423 Q200.8921,396.6411 200.2529,396.7905 Q199.6138,396.9399 198.9082,396.9399 Q196.4014,396.9399 195.0815,395.2881 Q193.7617,393.6362 193.7617,390.5151 Q193.7617,387.3857 195.0815,385.7339 Q196.4014,384.082 198.9082,384.082 Q199.6138,384.082 200.2612,384.2314 Q200.9087,384.3809 201.4731,384.6797 L201.4731,387.4023 Q200.8423,386.8213 200.2488,386.5515 Q199.6553,386.2817 199.0244,386.2817 Q197.6797,386.2817 196.9949,387.3484 Q196.3101,388.415 196.3101,390.5151 Q196.3101,392.6069 196.9949,393.6736 Q197.6797,394.7402 199.0244,394.7402 Q199.6553,394.7402 200.2488,394.4705 Q200.8423,394.2007 201.4731,393.6196 Z "/><text fill="#000000" font-family="sans-serif" font-size="12" lengthAdjust="spacingAndGlyphs" textLength="96" x="213" y="394.7344">メールメッセージ</text><path d="M185,406.1992 L185,406.1558 L194.6923,405.7049 L204.3846,405.2814 L214.0769,405.7975 L223.7692,406.7041 L233.4615,406.7311 L243.1538,405.5107 L252.8462,406.8757 L262.5385,406.8151 L272.2308,406.2259 L281.9231,406.8968 L291.6154,406.2966 L301.3077,406.6081 L311,406.1992 " fill="#FEFECE" style="stroke: #A80036; stroke-width: 1.5;"/><path d="M293.77,197.1992 L293.77,197.0725 L300.814,196.8675 L307.858,197.0261 L314.902,196.9974 L321.946,197.2611 L328.99,197.1992 " fill="none" style="stroke: #A80036; stroke-width: 1.0;"/><text fill="#000000" font-family="sans-serif" font-size="13" lengthAdjust="spacingAndGlyphs" textLength="8" x="301.388" y="194.3335">1</text><text fill="#000000" font-family="sans-serif" font-size="13" lengthAdjust="spacingAndGlyphs" textLength="8" x="313.0197" y="193.6078">1</text><path d="M117.71,314.4492 L118.2994,314.694 L113.5865,324.3815 L109.7138,334.418 L105.0433,344.1231 L100.673,353.9528 L97.7344,364.3773 L92.96,374.0392 " fill="none" style="stroke: #A80036; stroke-width: 1.0;"/><text fill="#000000" font-family="sans-serif" font-size="13" lengthAdjust="spacingAndGlyphs" textLength="8" x="106.3602" y="335.0089">1</text><text fill="#000000" font-family="sans-serif" font-size="13" lengthAdjust="spacingAndGlyphs" textLength="22" x="70.067" y="363.5281">0..*</text><path d="M214.88,314.4492 L215.2597,314.6089 L219.441,324.5425 L223.0183,334.2221 L226.9628,344.0562 L231.5754,354.1711 L236.6835,364.4945 L239.94,374.0392 " fill="none" style="stroke: #A80036; stroke-width: 1.0;"/><text fill="#000000" font-family="sans-serif" font-size="13" lengthAdjust="spacingAndGlyphs" textLength="8" x="209.7551" y="335.0089">1</text><text fill="#000000" font-family="sans-serif" font-size="13" lengthAdjust="spacingAndGlyphs" textLength="22" x="212.3411" y="363.5281">0..*</text></g></svg>