<?xml version="1.0" encoding="UTF-8" standalone="no"?><svg xmlns="http://www.w3.org/2000/svg" xmlns:xlink="http://www.w3.org/1999/xlink" contentScriptType="application/ecmascript" contentStyleType="text/css" height="437px" preserveAspectRatio="none" style="width:660px;height:437px;" version="1.1" viewBox="0 0 660 437" width="660px" zoomAndPan="magnify"><defs><filter height="300%" id="ffa0vm4" width="300%" x="-1" y="-1"><feGaussianBlur result="blurOut" stdDeviation="2.0"/><feColorMatrix in="blurOut" result="blurOut2" type="matrix" values="0 0 0 0 0 0 0 0 0 0 0 0 0 0 0 0 0 0 .4 0"/><feOffset dx="4.0" dy="4.0" in="blurOut2" result="blurOut3"/><feBlend in="SourceGraphic" in2="blurOut3" mode="normal"/></filter></defs><g><text fill="#000000" font-family="sans-serif" font-size="18" lengthAdjust="spacingAndGlyphs" textLength="324" x="172.5" y="17.4023">ドメインモデル図：コンテンツフォルダ</text><!--cluster フォルダ--><polygon fill="#FFFFFF" filter="url(#ffa0vm4)" points="22,45.1992,22,45.7294,32.3333,45.2794,42.6667,44.4975,53,45.66,63.3333,45.7139,73.6667,45.0824,84,45.1992,84.061,45.2182,85.3725,49.6883,86.8249,54.2023,88.0775,58.6541,89.4242,63.1351,91,67.6875,91,67.5006,100.9318,67.8892,110.8636,67.1692,120.7955,67.1548,130.7273,67.8234,140.6591,68.1264,150.5909,67.8477,160.5227,67.7103,170.4545,67.0479,180.3864,67.5874,190.3182,67.6818,200.25,66.9839,210.1818,67.8079,220.1136,67.1464,230.0455,67.293,239.9773,68.2482,249.9091,67.0222,259.8409,67.023,269.7727,67.0679,279.7045,66.9701,289.6364,68.3464,299.5682,67.6855,309.5,67.4518,319.4318,67.5504,329.3636,67.2183,339.2955,68.2139,349.2273,67.9699,359.1591,67.4819,369.0909,67.4448,379.0227,67.3359,388.9545,68.3993,398.8864,67.9206,408.8182,67.2344,418.75,67.8216,428.6818,67.0381,438.6136,67.5181,448.5455,68.2907,458.4773,67.7797,468.4091,67.0496,478.3409,68.3509,488.2727,67.0647,498.2045,67.6504,508.1364,67.416,518.0682,67.4237,528,67.6875,528.3234,67.6875,527.6438,77.7573,528.4096,87.827,527.8016,97.8968,528.5147,107.9666,527.7149,118.0363,527.8892,128.1061,528.1599,138.1759,527.2523,148.2457,527.6532,158.3154,527.3883,168.3852,528.654,178.455,527.8469,188.5247,528.2402,198.5945,528.1361,208.6643,528.2715,218.734,527.5579,228.8038,527.5672,238.8736,528.7242,248.9434,527.6033,259.0131,527.7538,269.0829,528.1411,279.1527,528.2077,289.2224,527.3821,299.2922,528.6937,309.362,528.0737,319.4317,527.7841,329.5015,528.4472,339.5713,528.4393,349.6411,527.7181,359.7108,528.0519,369.7806,527.7335,379.8504,528.2754,389.9201,528.3771,399.9899,528.0469,410.0597,527.2878,420.1294,528,430.1992,528,430.356,518.0784,430.5678,508.1569,430.657,498.2353,430.5501,488.3137,429.7994,478.3922,429.4782,468.4706,429.849,458.549,429.9253,448.6275,430.3087,438.7059,430.8732,428.7843,430.0594,418.8627,430.1742,408.9412,430.8552,399.0196,430.5624,389.098,429.8857,379.1765,430.6421,369.2549,430.1351,359.3333,430.7372,349.4118,429.956,339.4902,429.9168,329.5686,430.7904,319.6471,430.4068,309.7255,429.4578,299.8039,430.5696,289.8824,429.5119,279.9608,430.5602,270.0392,429.5004,260.1176,430.406,250.1961,429.939,240.2745,429.8736,230.3529,430.6072,220.4314,430.4837,210.5098,430.0321,200.5882,430.0618,190.6667,429.9613,180.7451,429.8142,170.8235,430.1232,160.902,430.1482,150.9804,430.881,141.0588,430.4727,131.1373,429.6424,121.2157,429.4872,111.2941,430.3624,101.3725,430.2872,91.451,429.5772,81.5294,430.3291,71.6078,430.4061,61.6863,429.8614,51.7647,430.0472,41.8431,429.5606,31.9216,429.7422,22,430.1992,21.7164,430.1992,21.2658,420.3274,21.2905,410.4556,22.2757,400.5838,21.5979,390.712,22.4143,380.8402,22.4692,370.9684,21.8986,361.0967,21.3181,351.2249,22.3875,341.3531,21.5637,331.4813,22.0708,321.6095,22.6275,311.7377,21.7346,301.8659,21.6889,291.9941,22.5035,282.1223,22.4234,272.2505,21.7947,262.3787,22.422,252.5069,21.2793,242.6351,22.7204,232.7633,22.1317,222.8915,22.3955,213.0197,21.4138,203.1479,22.4812,193.2761,21.6616,183.4043,21.4522,173.5326,22.4759,163.6608,22.3184,153.789,21.5132,143.9172,21.3101,134.0454,21.6019,124.1736,21.9289,114.3018,21.8815,104.43,21.5487,94.5582,22.2735,84.6864,21.6168,74.8146,21.6094,64.9428,21.4755,55.071,22,45.1992" style="stroke: #000000; stroke-width: 2.0;"/><path d="M22,67.6875 L22,68.0643 L31.8571,66.8769 L41.7143,67.0012 L51.5714,67.1202 L61.4286,67.5162 L71.2857,67.5636 L81.1429,66.6901 L91,67.6875 " fill="#FFFFFF" style="stroke: #000000; stroke-width: 2.0;"/><text fill="#000000" font-family="sans-serif" font-size="14" font-weight="bold" lengthAdjust="spacingAndGlyphs" textLength="56" x="26" y="60.7344">フォルダ</text><!--class フォルダ--><polygon fill="#FEFECE" filter="url(#ffa0vm4)" points="209,138.6992,209,138.4696,219,138.8197,229,138.1079,239,138.801,249,139.3617,259,137.951,269,138.1354,279,138.1769,289,138.6992,288.8994,138.6992,288.878,146.6992,288.898,154.6992,288.9354,162.6992,288.9858,170.6992,289,178.6992,289,179.0987,279,178.0617,269,179.0638,259,178.012,249,178.9329,239,179.2879,229,178.5263,219,178.9202,209,178.6992,208.8506,178.6992,209.1713,170.6992,209.2114,162.6992,208.7553,154.6992,208.9876,146.6992,209,138.6992" style="stroke: #A80036; stroke-width: 1.5;"/><polygon fill="#ADD1B2" points="234.8688,157.6672,233.2321,159.5941,231.7411,162.2841,228.8708,163.9191,225.7931,165.8793,223.5079,165.3215,221.2175,166.0154,218.6911,164.212,216.7557,163.1611,214.4633,160.4389,213.6367,158.3579,213.5061,156.4067,212.885,154.5516,213.3349,151.373,214.5139,148.5083,217.0755,145.8009,220.5846,144.805,224.0022,143.9953,227.4348,144.7649,229.656,145.3311,231.4048,147.0259,233.336,150.0391,234.7837,152.4414,235.302,154.3669,235.1895,156.8879" style="stroke: #A80036; stroke-width: 1.0;"/><path d="M226.4731,160.8423 Q225.8921,161.1411 225.2529,161.2905 Q224.6138,161.4399 223.9082,161.4399 Q221.4014,161.4399 220.0815,159.7881 Q218.7617,158.1362 218.7617,155.0151 Q218.7617,151.8857 220.0815,150.2339 Q221.4014,148.582 223.9082,148.582 Q224.6138,148.582 225.2612,148.7314 Q225.9087,148.8809 226.4731,149.1797 L226.4731,151.9023 Q225.8423,151.3213 225.2488,151.0515 Q224.6553,150.7817 224.0244,150.7817 Q222.6797,150.7817 221.9949,151.8484 Q221.3101,152.915 221.3101,155.0151 Q221.3101,157.1069 221.9949,158.1736 Q222.6797,159.2402 224.0244,159.2402 Q224.6553,159.2402 225.2488,158.9705 Q225.8423,158.7007 226.4731,158.1196 Z "/><text fill="#000000" font-family="sans-serif" font-size="12" lengthAdjust="spacingAndGlyphs" textLength="48" x="238" y="159.2344">フォルダ</text><path d="M210,170.6992 L210,171.2598 L219.75,170.148 L229.5,170.3526 L239.25,170.8687 L249,170.1906 L258.75,171.0411 L268.5,170.7637 L278.25,169.9725 L288,170.6992 " fill="#FEFECE" style="stroke: #A80036; stroke-width: 1.5;"/><!--class コンテンツ--><polygon fill="#FEFECE" filter="url(#ffa0vm4)" points="324,80.1992,324,80.8935,334.2222,79.5229,344.4444,80.5302,354.6667,79.5787,364.8889,79.6728,375.1111,80.0108,385.3333,79.5565,395.5556,80.2337,405.7778,80.1107,416,80.1992,416.3247,80.1992,415.4559,89.9865,416.027,99.7737,415.8208,109.5609,416.1002,119.3481,415.6184,129.1354,416.1707,138.9226,416.1351,148.7098,416.618,158.4971,415.5907,168.2843,416.3266,178.0715,415.8741,187.8588,415.969,197.646,416.2669,207.4332,416.5852,217.2205,415.5568,227.0077,416,236.7949,416,236.9843,405.7778,237.2072,395.5556,237.2672,385.3333,236.5734,375.1111,237.08,364.8889,236.8863,354.6667,237.3713,344.4444,237.3219,334.2222,236.5036,324,236.7949,324.1738,236.7949,324.4771,227.0077,323.5629,217.2205,323.602,207.4332,323.4193,197.646,324.0988,187.8588,323.8328,178.0715,324.1828,168.2843,323.9226,158.4971,324.629,148.7098,324.4121,138.9226,323.7389,129.1354,324.6069,119.3481,324.4153,109.5609,323.3992,99.7737,323.2895,89.9865,324,80.1992" style="stroke: #A80036; stroke-width: 1.5;"/><polygon fill="#ADD1B2" points="349.6212,99.6959,348.8621,101.8738,345.7811,104.0669,344.3281,106.5841,340.707,107.0392,337.4893,107.0168,333.8232,106.5809,332.2878,104.4915,330.1435,102.9102,328.5038,100.9817,328.2468,97.2307,328.1396,94.2443,328.2844,91.5924,330.3099,90.4735,331.048,87.9459,334.7469,86.722,337.3031,85.8652,340.5885,84.9185,343.3867,85.6674,345.7482,87.7193,347.9187,88.6737,348.9323,90.9819,349.9432,93.2124,350.0052,96.5861" style="stroke: #A80036; stroke-width: 1.0;"/><path d="M341.4731,102.3423 Q340.8921,102.6411 340.2529,102.7905 Q339.6138,102.9399 338.9082,102.9399 Q336.4014,102.9399 335.0815,101.2881 Q333.7617,99.6362 333.7617,96.5151 Q333.7617,93.3857 335.0815,91.7339 Q336.4014,90.082 338.9082,90.082 Q339.6138,90.082 340.2612,90.2314 Q340.9087,90.3809 341.4731,90.6797 L341.4731,93.4023 Q340.8423,92.8213 340.2488,92.5515 Q339.6553,92.2817 339.0244,92.2817 Q337.6797,92.2817 336.9949,93.3484 Q336.3101,94.415 336.3101,96.5151 Q336.3101,98.6069 336.9949,99.6736 Q337.6797,100.7402 339.0244,100.7402 Q339.6553,100.7402 340.2488,100.4705 Q340.8423,100.2007 341.4731,99.6196 Z "/><text fill="#000000" font-family="sans-serif" font-size="12" lengthAdjust="spacingAndGlyphs" textLength="60" x="353" y="100.7344">コンテンツ</text><path d="M325,112.1992 L325,111.4678 L335,111.3752 L345,111.9847 L355,111.2992 L365,111.3697 L375,113.098 L385,111.4077 L395,112.9119 L405,111.593 L415,112.1992 " fill="#FEFECE" style="stroke: #A80036; stroke-width: 1.5;"/><text fill="#000000" font-family="sans-serif" font-size="11" lengthAdjust="spacingAndGlyphs" textLength="21" x="330" y="126.834">URL</text><text fill="#000000" font-family="sans-serif" font-size="11" lengthAdjust="spacingAndGlyphs" textLength="44" x="330" y="139.7891">タイトル</text><text fill="#000000" font-family="sans-serif" font-size="11" lengthAdjust="spacingAndGlyphs" textLength="77" x="330" y="152.7441">自身の公開状態</text><text fill="#000000" font-family="sans-serif" font-size="11" lengthAdjust="spacingAndGlyphs" textLength="77" x="330" y="165.6992">自身の公開期間</text><text fill="#000000" font-family="sans-serif" font-size="11" lengthAdjust="spacingAndGlyphs" textLength="44" x="330" y="178.6543">公開状態</text><text fill="#000000" font-family="sans-serif" font-size="11" lengthAdjust="spacingAndGlyphs" textLength="44" x="330" y="191.6094">公開期間</text><text fill="#000000" font-family="sans-serif" font-size="11" lengthAdjust="spacingAndGlyphs" textLength="77" x="330" y="204.5645">親コンテンツID</text><text fill="#000000" font-family="sans-serif" font-size="11" lengthAdjust="spacingAndGlyphs" textLength="44" x="330" y="217.5195">作成者ID</text><text fill="#000000" font-family="sans-serif" font-size="11" lengthAdjust="spacingAndGlyphs" textLength="33" x="330" y="230.4746">実体ID</text><polygon fill="#FBFB77" filter="url(#ffa0vm4)" points="38,297.1992,37.699,297.1992,38.38,306.9637,38.124,316.7282,37.8848,326.4927,37.5719,336.2572,37.9105,346.0216,37.5408,355.7861,38.6734,365.5506,38.122,375.3151,38.615,385.0796,37.7095,394.8441,38.0449,404.6086,38,414.373,38,414.3429,48.0851,414.3525,58.1702,413.7924,68.2553,414.8726,78.3404,414.9221,88.4255,414.8665,98.5106,413.8262,108.5957,414.3016,118.6809,413.6978,128.766,413.7883,138.8511,413.6355,148.9362,414.4073,159.0213,414.6925,169.1064,414.5659,179.1915,414.7942,189.2766,413.9109,199.3617,414.0496,209.4468,414.9559,219.5319,414.9002,229.617,414.5859,239.7021,414.2525,249.7872,414.7864,259.8723,414.5587,269.9574,414.9473,280.0426,413.7712,290.1277,414.6114,300.2128,414.0478,310.2979,413.8552,320.383,414.325,330.4681,413.6875,340.5532,414.7594,350.6383,414.3623,360.7234,413.6352,370.8085,414.787,380.8936,415.0128,390.9787,414.8488,401.0638,414.9915,411.1489,414.8273,421.234,414.3553,431.3191,414.8343,441.4043,414.6696,451.4894,413.6572,461.5745,414.504,471.6596,414.8573,481.7447,413.7205,491.8298,415.0929,501.9149,414.1313,512,414.373,511.5652,414.373,512.5243,404.63,512.5618,394.8869,512.391,385.1438,512.0485,375.4007,512.125,365.6577,512.3575,355.9146,511.7765,346.1715,512.0295,336.4284,512.3073,326.6854,512.0973,316.9423,512,307.1992,512.0393,307.2385,510.1491,305.3483,508.1118,303.311,506.0804,301.2796,503.9021,299.1014,502,297.1992,502,297.794,491.913,297.3409,481.8261,296.6806,471.7391,296.9669,461.6522,296.6547,451.5652,296.4675,441.4783,297.1381,431.3913,297.3242,421.3043,297.3189,411.2174,297.0727,401.1304,297.2723,391.0435,297.4125,380.9565,296.8873,370.8696,297.572,360.7826,296.6652,350.6957,297.101,340.6087,297.9001,330.5217,297.6306,320.4348,296.7023,310.3478,297.2967,300.2609,297.0424,290.1739,297.4739,280.087,296.5313,270,297.3045,259.913,296.8975,249.8261,296.9966,239.7391,297.5259,229.6522,296.6208,219.5652,296.5151,209.4783,297.1798,199.3913,296.8225,189.3043,297.198,179.2174,297.8835,169.1304,297.2596,159.0435,296.8227,148.9565,296.9716,138.8696,296.8524,128.7826,297.2924,118.6957,296.7764,108.6087,296.7121,98.5217,296.6599,88.4348,297.223,78.3478,297.1691,68.2609,297.5476,58.1739,297.4573,48.087,297.7986,38,297.1992" style="stroke: #A80036; stroke-width: 1.0;"/><polygon fill="#FBFB77" points="38,297.1992,38.4384,297.1992,38.1097,306.9637,37.9078,316.7282,37.9629,326.4927,37.3307,336.2572,37.4595,346.0216,38.3588,355.7861,37.527,365.5506,37.8061,375.3151,38.6071,385.0796,38.0616,394.8441,37.7528,404.6086,38,414.373,38,413.9194,48.0851,414.6267,58.1702,415.0703,68.2553,413.6281,78.3404,414.0825,88.4255,413.6498,98.5106,413.8071,108.5957,414.0851,118.6809,415.0853,128.766,413.9199,138.8511,413.8905,148.9362,414.757,159.0213,413.6455,169.1064,414.0291,179.1915,414.5942,189.2766,414.0066,199.3617,413.7482,209.4468,414.1312,219.5319,413.9323,229.617,414.5733,239.7021,413.8275,249.7872,415.0113,259.8723,414.5373,269.9574,414.4706,280.0426,414.9693,290.1277,413.95,300.2128,414.7594,310.2979,414.7668,320.383,414.8508,330.4681,414.9028,340.5532,414.3321,350.6383,413.6608,360.7234,413.9252,370.8085,413.9873,380.8936,413.8782,390.9787,414.1823,401.0638,415.0518,411.1489,413.7631,421.234,414.1022,431.3191,415.0304,441.4043,414.849,451.4894,414.7887,461.5745,414.2262,471.6596,414.5161,481.7447,415.0164,491.8298,414.4655,501.9149,415.0785,512,414.373,511.913,414.373,511.3597,404.63,511.8364,394.8869,511.8628,385.1438,511.6155,375.4007,511.6139,365.6577,512.6715,355.9146,511.3822,346.1715,512.4157,336.4284,512.4676,326.6854,511.4076,316.9423,512,307.1992,512.1016,307.3008,510.0656,305.2649,507.8298,303.029,506.0341,301.2333,504.009,299.2082,502,297.1992,502,297.9156,491.7384,297.0343,481.4768,297.6429,471.2153,296.9469,460.9537,297.4412,450.6921,296.8757,440.4305,297.8238,430.1689,297.8436,419.9074,296.7739,409.6458,297.75,399.3842,297.4678,389.1226,297.7667,378.8611,297.4254,368.5995,297.2901,358.3379,297.3606,348.0763,296.997,337.8147,297.6276,327.5532,296.9457,317.2916,297.2629,307.03,297.1992,307.1439,297.2471,310.7367,287.0171,314.8583,277.0094,319.9525,267.4102,323.7515,257.2669,327.9077,247.2737,332.18,237.3292,331.6053,237.011,326.9745,245.6219,322.7259,254.4445,318.5681,263.3174,313.6752,271.7832,308.5744,280.1339,303.616,288.5635,299.03,297.1992,299.03,297.3456,288.9904,297.9265,278.9508,297.847,268.9112,296.7515,258.8715,296.9234,248.8319,297.7744,238.7923,296.8985,228.7527,297.2498,218.7131,297.3347,208.6735,297.356,198.6338,296.5181,188.5942,297.2412,178.5546,297.3072,168.515,296.6896,158.4754,297.6018,148.4358,297.7983,138.3962,296.4578,128.3565,297.0181,118.3169,296.7463,108.2773,296.5823,98.2377,297.3402,88.1981,297.091,78.1585,296.7848,68.1188,297.105,58.0792,297.6351,48.0396,296.7891,38,297.1992" style="stroke: #A80036; stroke-width: 1.0;"/><path d="M502,297.1992 L502.2795,297.1992 L502.2835,299.1992 L501.7877,301.1992 L502.2475,303.1992 L502.1333,305.1992 L502,307.1992 " fill="#FBFB77" style="stroke: #A80036; stroke-width: 1.0;"/><path d="M512,307.1992 L512,307.3964 L510,307.2873 L508,307.2754 L506,307.0662 L504,307.0354 L502,307.1992 " fill="#FBFB77" style="stroke: #A80036; stroke-width: 1.0;"/><text fill="#000000" font-family="sans-serif" font-size="13" lengthAdjust="spacingAndGlyphs" textLength="234" x="44" y="314.7676">・コンテンツは未公開状態で登録される</text><text fill="#000000" font-family="sans-serif" font-size="13" lengthAdjust="spacingAndGlyphs" textLength="351" x="44" y="330.0781">・親の公開状態と公開期間を公開状態と公開期間に設定する</text><text fill="#000000" font-family="sans-serif" font-size="13" lengthAdjust="spacingAndGlyphs" textLength="288" x="44" y="345.3887">・作成者IDにログイン中のユーザーIDを設定する</text><text fill="#000000" font-family="sans-serif" font-size="13" lengthAdjust="spacingAndGlyphs" textLength="258" x="44" y="360.6992">・タイトルは強制的に255文字でカットする</text><text fill="#000000" font-family="sans-serif" font-size="13" lengthAdjust="spacingAndGlyphs" textLength="269" x="44" y="376.0098">・タイトルを231文字でカットしてURLに設定</text><text fill="#000000" font-family="sans-serif" font-size="13" lengthAdjust="spacingAndGlyphs" textLength="254" x="44" y="391.3203">・URLをURLエンコードしてURLを生成する</text><text fill="#000000" font-family="sans-serif" font-size="13" lengthAdjust="spacingAndGlyphs" textLength="453" x="44" y="406.6309">・URLの重複チェックを行い重複している場合はユニークな文字列に変換する</text><!--class 親コンテンツ--><polygon fill="#FEFECE" filter="url(#ffa0vm4)" points="547,335.6992,547,335.308,557.4,334.9591,567.8,335.2077,578.2,335.5448,588.6,336.204,599,335.5986,609.4,335.1859,619.8,335.8279,630.2,335.4726,640.6,335.7071,651,335.6992,651.1934,335.6992,651.0631,343.6992,651.0924,351.6992,651.0509,359.6992,650.8948,367.6992,651,375.6992,651,375.4963,640.6,375.0902,630.2,375.3322,619.8,376.2962,609.4,375.9199,599,376.4487,588.6,375.1074,578.2,375.3107,567.8,374.9842,557.4,375.3047,547,375.6992,547.1178,375.6992,547.0521,367.6992,546.8008,359.6992,546.9501,351.6992,547.2053,343.6992,547,335.6992" style="stroke: #A80036; stroke-width: 1.5;"/><polygon fill="#ADD1B2" points="573.2999,354.2096,571.819,356.578,570.4263,358.3199,568.1813,360.0163,566.4297,361.4947,563.4417,362.5648,560.9987,362.6396,558.7643,362.6203,556.8808,361.1354,554.3671,360.1409,552.6312,357.9265,551.7538,356.136,550.9289,354.0122,550.3637,351.302,551.6941,348.0708,553.0571,346.1788,554.8904,343.3699,557.4053,341.8864,559.3219,341.1125,561.2512,340.1041,564.6441,341.2635,566.4952,341.9558,569.9474,343.32,570.8532,346.3959,572.4884,349.5764,572.7775,352.1314" style="stroke: #A80036; stroke-width: 1.0;"/><path d="M564.4731,357.8423 Q563.8921,358.1411 563.2529,358.2905 Q562.6138,358.4399 561.9082,358.4399 Q559.4014,358.4399 558.0815,356.7881 Q556.7617,355.1362 556.7617,352.0151 Q556.7617,348.8857 558.0815,347.2339 Q559.4014,345.582 561.9082,345.582 Q562.6138,345.582 563.2612,345.7314 Q563.9087,345.8809 564.4731,346.1797 L564.4731,348.9023 Q563.8423,348.3213 563.2488,348.0515 Q562.6553,347.7817 562.0244,347.7817 Q560.6797,347.7817 559.9949,348.8484 Q559.3101,349.915 559.3101,352.0151 Q559.3101,354.1069 559.9949,355.1736 Q560.6797,356.2402 562.0244,356.2402 Q562.6553,356.2402 563.2488,355.9705 Q563.8423,355.7007 564.4731,355.1196 Z "/><text fill="#000000" font-family="sans-serif" font-size="12" lengthAdjust="spacingAndGlyphs" textLength="72" x="576" y="356.2344">親コンテンツ</text><path d="M548,367.6992 L548,368.067 L558.2,367.9122 L568.4,368.5427 L578.6,366.7397 L588.8,368.3695 L599,368.3358 L609.2,367.9432 L619.4,366.9394 L629.6,367.9262 L639.8,367.4152 L650,367.6992 " fill="#FEFECE" style="stroke: #A80036; stroke-width: 1.5;"/><path d="M302.2,158.6992 L302.2,158.9623 L306.54,158.9542 L310.88,158.6342 L315.22,158.7808 L319.56,159.0297 L323.9,158.6992 " fill="none" style="stroke: #A80036; stroke-width: 1.0;"/><polygon fill="#A80036" points="289.18,158.6992,289.1003,158.5797,290.2901,159.3644,291.6339,160.3801,292.7852,161.107,293.9995,161.9284,295.18,162.6992,295.0959,162.5731,296.3012,161.781,297.5223,161.0126,298.6788,160.1475,300.1172,159.705,301.18,158.6992,301.3073,158.8902,299.8934,157.7693,298.8455,157.1975,297.6383,156.3866,296.4402,155.5895,295.18,154.6992,295.2043,154.7356,293.9453,155.4472,292.7582,156.2666,291.639,157.1878,290.4031,157.9338,289.18,158.6992" style="stroke: #A80036; stroke-width: 1.0;"/><path d="M416.07,198.9292 L416.0026,198.8501 L424.1179,205.974 L430.8779,211.5064 L437.999,217.4628 L446.0333,224.4917 L453.8755,231.2949 L460.7583,236.9715 L468.4817,243.6352 L475.9751,250.0288 L482.6979,255.5175 L490.1481,261.8605 L498.2801,269.004 L505.0825,274.5862 L513.5803,282.1593 L521.0612,288.5383 L528.4564,294.8167 L535.9335,301.1912 L542.7268,306.7626 L549.7427,312.5955 L557.4596,319.2516 L565.1621,325.8907 L572.6,332.2192 " fill="none" style="stroke: #A80036; stroke-width: 1.0;"/><polygon fill="#A80036" points="576.64,335.6592,576.8302,335.7502,575.9391,333.9535,575.027,332.1467,574.0853,330.3258,573.2771,328.5688,572.3906,326.7743,572.4498,326.779,572.534,327.9064,572.4529,329.0208,572.7096,330.1619,572.871,331.2954,572.8367,332.4135,572.8302,332.3314,571.7065,332.4739,570.5811,332.5943,569.441,332.5277,568.3249,332.7653,567.1974,332.8596,567.2172,332.9263,569.1185,333.5294,570.9266,333.818,572.7962,334.3142,574.8167,335.3194,576.64,335.6592" style="stroke: #A80036; stroke-width: 1.0;"/><text fill="#000000" font-family="sans-serif" font-size="13" lengthAdjust="spacingAndGlyphs" textLength="22" x="424.0955" y="201.1505">0..*</text><text fill="#000000" font-family="sans-serif" font-size="13" lengthAdjust="spacingAndGlyphs" textLength="8" x="560.5673" y="324.841">1</text></g></svg>