<?xml version="1.0" encoding="UTF-8" standalone="no"?><svg xmlns="http://www.w3.org/2000/svg" xmlns:xlink="http://www.w3.org/1999/xlink" contentScriptType="application/ecmascript" contentStyleType="text/css" height="437px" preserveAspectRatio="none" style="width:660px;height:437px;" version="1.1" viewBox="0 0 660 437" width="660px" zoomAndPan="magnify"><defs><filter height="300%" id="f5n1lhm" width="300%" x="-1" y="-1"><feGaussianBlur result="blurOut" stdDeviation="2.0"/><feColorMatrix in="blurOut" result="blurOut2" type="matrix" values="0 0 0 0 0 0 0 0 0 0 0 0 0 0 0 0 0 0 .4 0"/><feOffset dx="4.0" dy="4.0" in="blurOut2" result="blurOut3"/><feBlend in="SourceGraphic" in2="blurOut3" mode="normal"/></filter></defs><g><text fill="#000000" font-family="sans-serif" font-size="18" lengthAdjust="spacingAndGlyphs" textLength="324" x="172.5" y="17.4023">ドメインモデル図：コンテンツフォルダ</text><!--cluster フォルダ--><polygon fill="#FFFFFF" filter="url(#f5n1lhm)" points="22,45.1992,22,45.4823,32.3333,45.832,42.6667,45.6587,53,45.3565,63.3333,44.6025,73.6667,45.584,84,45.1992,84.0537,45.2159,85.5691,49.7495,86.7024,54.1642,88.016,58.6349,89.4875,63.1548,91,67.6875,91,68.1701,100.9318,68.2226,110.8636,68.3581,120.7955,67.7218,130.7273,67.6115,140.6591,67.8771,150.5909,67.3334,160.5227,67.8451,170.4545,67.7892,180.3864,67.495,190.3182,67.2707,200.25,67.0277,210.1818,67.5626,220.1136,67.7744,230.0455,67.6676,239.9773,67.529,249.9091,67.5541,259.8409,67.3279,269.7727,68.2657,279.7045,67.4864,289.6364,67.7896,299.5682,67.3257,309.5,67.8305,319.4318,67.2949,329.3636,68.3809,339.2955,68.1973,349.2273,67.7402,359.1591,67.8579,369.0909,67.3044,379.0227,68.0913,388.9545,67.3792,398.8864,68.0979,408.8182,67.9171,418.75,67.4108,428.6818,68.1406,438.6136,68.0248,448.5455,67.0132,458.4773,67.0654,468.4091,66.9838,478.3409,67.5233,488.2727,67.465,498.2045,68.1079,508.1364,67.4591,518.0682,67.8321,528,67.6875,527.6229,67.6875,528.4621,77.7573,528.2186,87.827,528.2723,97.8968,527.8594,107.9666,528.697,118.0363,527.4711,128.1061,528.312,138.1759,527.6793,148.2457,527.4967,158.3154,528.3498,168.3852,527.7954,178.455,527.934,188.5247,527.8785,198.5945,528.5061,208.6643,528.3496,218.734,528.246,228.8038,528.6894,238.8736,527.787,248.9434,527.5051,259.0131,527.399,269.0829,528.0941,279.1527,528.2288,289.2224,528.0338,299.2922,527.4203,309.362,528.4029,319.4317,528.0486,329.5015,528.6851,339.5713,527.6393,349.6411,528.4254,359.7108,527.5981,369.7806,528.125,379.8504,528.4472,389.9201,527.8906,399.9899,528.1615,410.0597,527.2806,420.1294,528,430.1992,528,430.705,518.0784,430.2307,508.1569,429.9306,498.2353,430.833,488.3137,429.4526,478.3922,430.3908,468.4706,430.1685,458.549,430.0105,448.6275,430.9337,438.7059,429.4737,428.7843,429.6648,418.8627,430.7667,408.9412,430.2343,399.0196,429.7242,389.098,429.8431,379.1765,430.1642,369.2549,429.6402,359.3333,429.6969,349.4118,430.9177,339.4902,429.9125,329.5686,430.5479,319.6471,429.844,309.7255,430.6997,299.8039,430.4401,289.8824,430.1488,279.9608,430.4281,270.0392,429.7655,260.1176,429.8386,250.1961,429.4743,240.2745,430.4428,230.3529,430.047,220.4314,429.8351,210.5098,430.5411,200.5882,429.9122,190.6667,430.7771,180.7451,430.9215,170.8235,429.5542,160.902,430.8175,150.9804,430.923,141.0588,429.6936,131.1373,429.9347,121.2157,429.995,111.2941,430.2729,101.3725,430.8289,91.451,429.8176,81.5294,430.635,71.6078,430.1978,61.6863,429.964,51.7647,429.6246,41.8431,429.5107,31.9216,430.7962,22,430.1992,21.3171,430.1992,22.6553,420.3274,22.061,410.4556,22.4451,400.5838,22.0311,390.712,22.1516,380.8402,22.2488,370.9684,22.0168,361.0967,22.2197,351.2249,22.2988,341.3531,22.5359,331.4813,22.5085,321.6095,21.3163,311.7377,21.3728,301.8659,21.5954,291.9941,22.3019,282.1223,21.9455,272.2505,22.1188,262.3787,21.921,252.5069,22.6261,242.6351,22.2738,232.7633,21.5607,222.8915,21.3872,213.0197,21.6317,203.1479,22.4016,193.2761,22.5495,183.4043,22.3396,173.5326,22.0774,163.6608,22.5129,153.789,22.6464,143.9172,21.6116,134.0454,22.1356,124.1736,22.411,114.3018,21.595,104.43,22.685,94.5582,21.9669,84.6864,21.9264,74.8146,22.3801,64.9428,21.7418,55.071,22,45.1992" style="stroke: #000000; stroke-width: 2.0;"/><path d="M22,67.6875 L22,67.9235 L31.8571,67.6879 L41.7143,68.6063 L51.5714,68.4612 L61.4286,68.4461 L71.2857,67.7083 L81.1429,68.3388 L91,67.6875 " fill="#FFFFFF" style="stroke: #000000; stroke-width: 2.0;"/><text fill="#000000" font-family="sans-serif" font-size="14" font-weight="bold" lengthAdjust="spacingAndGlyphs" textLength="56" x="26" y="60.7344">フォルダ</text><!--class フォルダ--><polygon fill="#FEFECE" filter="url(#f5n1lhm)" points="209,138.6992,209,138.4997,219,138.4215,229,139.3651,239,139.1023,249,139.0025,259,139.0871,269,138.0298,279,138.3389,289,138.6992,289.1599,138.6992,289.1538,146.6992,288.8499,154.6992,288.9421,162.6992,289.1715,170.6992,289,178.6992,289,178.1109,279,177.9702,269,179.0499,259,178.6666,249,178.6702,239,179.2809,229,179.2645,219,179.4487,209,178.6992,208.8877,178.6992,208.8717,170.6992,208.8655,162.6992,208.9182,154.6992,208.945,146.6992,209,138.6992" style="stroke: #A80036; stroke-width: 1.5;"/><polygon fill="#ADD1B2" points="234.4025,158.4568,232.6488,161.0779,231.1282,163.0698,228.7948,165.3416,225.1122,166.0721,222.8351,165.2192,219.9183,164.7602,216.2592,163.2811,215.1253,160.3152,213.1816,159.0539,213.1056,155.3797,212.8043,152.2489,215.0881,149.3545,216.29,147.4969,218.2058,144.6533,221.6616,144.5509,224.8431,143.55,227.689,144.2902,229.8152,145.7266,231.8113,147.1838,233.2343,149.0238,233.7073,150.9779,235.2725,153.3714,235.4611,156.3223" style="stroke: #A80036; stroke-width: 1.0;"/><path d="M226.4731,160.8423 Q225.8921,161.1411 225.2529,161.2905 Q224.6138,161.4399 223.9082,161.4399 Q221.4014,161.4399 220.0815,159.7881 Q218.7617,158.1362 218.7617,155.0151 Q218.7617,151.8857 220.0815,150.2339 Q221.4014,148.582 223.9082,148.582 Q224.6138,148.582 225.2612,148.7314 Q225.9087,148.8809 226.4731,149.1797 L226.4731,151.9023 Q225.8423,151.3213 225.2488,151.0515 Q224.6553,150.7817 224.0244,150.7817 Q222.6797,150.7817 221.9949,151.8484 Q221.3101,152.915 221.3101,155.0151 Q221.3101,157.1069 221.9949,158.1736 Q222.6797,159.2402 224.0244,159.2402 Q224.6553,159.2402 225.2488,158.9705 Q225.8423,158.7007 226.4731,158.1196 Z "/><text fill="#000000" font-family="sans-serif" font-size="12" lengthAdjust="spacingAndGlyphs" textLength="48" x="238" y="159.2344">フォルダ</text><path d="M210,170.6992 L210,170.6485 L219.75,170.2518 L229.5,171.0543 L239.25,169.7155 L249,171.5197 L258.75,170.9794 L268.5,171.0176 L278.25,169.8798 L288,170.6992 " fill="#FEFECE" style="stroke: #A80036; stroke-width: 1.5;"/><!--class コンテンツ--><polygon fill="#FEFECE" filter="url(#f5n1lhm)" points="324,80.1992,324,80.0616,334.2222,79.5684,344.4444,79.944,354.6667,80.4331,364.8889,79.6407,375.1111,79.8561,385.3333,79.7596,395.5556,79.721,405.7778,80.1119,416,80.1992,415.4316,80.1992,416.5782,89.9865,415.371,99.7737,416.0263,109.5609,415.7726,119.3481,415.7251,129.1354,415.3339,138.9226,415.6256,148.7098,416.3242,158.4971,415.8886,168.2843,415.5142,178.0715,415.6717,187.8588,415.5597,197.646,415.2892,207.4332,415.706,217.2205,415.479,227.0077,416,236.7949,416,236.2236,405.7778,237.4496,395.5556,236.2457,385.3333,237.5037,375.1111,236.7295,364.8889,236.9648,354.6667,237.5195,344.4444,236.3687,334.2222,236.1452,324,236.7949,324.0003,236.7949,324.1071,227.0077,324.0703,217.2205,324.5237,207.4332,324.2123,197.646,323.7499,187.8588,324.3696,178.0715,324.5409,168.2843,324.6412,158.4971,323.7591,148.7098,323.2662,138.9226,323.9131,129.1354,324.1938,119.3481,324.2289,109.5609,323.3051,99.7737,323.9282,89.9865,324,80.1992" style="stroke: #A80036; stroke-width: 1.5;"/><polygon fill="#ADD1B2" points="349.1418,98.6623,348.6897,101.6686,346.5412,104.9284,344.4447,105.3629,341.4996,106.2093,339.2434,107.0921,337.1043,107.6932,335.1486,107.0915,333.5003,105.2253,331.3551,104.02,330.2522,101.9191,328.5975,98.9172,327.5029,97.0133,328.701,95.0598,328.2261,92.3689,329.3634,90.2273,331.7646,88.7505,332.9458,86.6861,335.3324,86.0511,337.5767,85.2724,341.0293,85.6674,343.9908,85.9556,345.438,87.787,347.826,90.3942,348.6002,92.2482,350.0175,94.2338,349.8642,96.2307" style="stroke: #A80036; stroke-width: 1.0;"/><path d="M341.4731,102.3423 Q340.8921,102.6411 340.2529,102.7905 Q339.6138,102.9399 338.9082,102.9399 Q336.4014,102.9399 335.0815,101.2881 Q333.7617,99.6362 333.7617,96.5151 Q333.7617,93.3857 335.0815,91.7339 Q336.4014,90.082 338.9082,90.082 Q339.6138,90.082 340.2612,90.2314 Q340.9087,90.3809 341.4731,90.6797 L341.4731,93.4023 Q340.8423,92.8213 340.2488,92.5515 Q339.6553,92.2817 339.0244,92.2817 Q337.6797,92.2817 336.9949,93.3484 Q336.3101,94.415 336.3101,96.5151 Q336.3101,98.6069 336.9949,99.6736 Q337.6797,100.7402 339.0244,100.7402 Q339.6553,100.7402 340.2488,100.4705 Q340.8423,100.2007 341.4731,99.6196 Z "/><text fill="#000000" font-family="sans-serif" font-size="12" lengthAdjust="spacingAndGlyphs" textLength="60" x="353" y="100.7344">コンテンツ</text><path d="M325,112.1992 L325,112.8032 L335,112.3933 L345,111.5198 L355,111.5537 L365,112.1099 L375,111.6266 L385,111.9284 L395,112.5694 L405,111.6208 L415,112.1992 " fill="#FEFECE" style="stroke: #A80036; stroke-width: 1.5;"/><text fill="#000000" font-family="sans-serif" font-size="11" lengthAdjust="spacingAndGlyphs" textLength="21" x="330" y="126.834">URL</text><text fill="#000000" font-family="sans-serif" font-size="11" lengthAdjust="spacingAndGlyphs" textLength="44" x="330" y="139.7891">タイトル</text><text fill="#000000" font-family="sans-serif" font-size="11" lengthAdjust="spacingAndGlyphs" textLength="77" x="330" y="152.7441">自身の公開状態</text><text fill="#000000" font-family="sans-serif" font-size="11" lengthAdjust="spacingAndGlyphs" textLength="77" x="330" y="165.6992">自身の公開期間</text><text fill="#000000" font-family="sans-serif" font-size="11" lengthAdjust="spacingAndGlyphs" textLength="44" x="330" y="178.6543">公開状態</text><text fill="#000000" font-family="sans-serif" font-size="11" lengthAdjust="spacingAndGlyphs" textLength="44" x="330" y="191.6094">公開期間</text><text fill="#000000" font-family="sans-serif" font-size="11" lengthAdjust="spacingAndGlyphs" textLength="77" x="330" y="204.5645">親コンテンツID</text><text fill="#000000" font-family="sans-serif" font-size="11" lengthAdjust="spacingAndGlyphs" textLength="44" x="330" y="217.5195">作成者ID</text><text fill="#000000" font-family="sans-serif" font-size="11" lengthAdjust="spacingAndGlyphs" textLength="33" x="330" y="230.4746">実体ID</text><polygon fill="#FBFB77" filter="url(#f5n1lhm)" points="38,297.1992,38.6481,297.1992,37.8038,306.9637,37.6735,316.7282,38.6234,326.4927,37.6129,336.2572,38.2682,346.0216,38.1876,355.7861,38.451,365.5506,37.9609,375.3151,37.6713,385.0796,38.0905,394.8441,38.1352,404.6086,38,414.373,38,414.4476,48.0851,413.9145,58.1702,415.0095,68.2553,414.3874,78.3404,413.789,88.4255,414.8098,98.5106,414.4144,108.5957,414.348,118.6809,414.8237,128.766,414.3435,138.8511,415.0872,148.9362,414.033,159.0213,414.0348,169.1064,414.2366,179.1915,414.7558,189.2766,414.7307,199.3617,413.6583,209.4468,414.1909,219.5319,413.626,229.617,414.8127,239.7021,414.1204,249.7872,413.8865,259.8723,414.5411,269.9574,413.6355,280.0426,414.5847,290.1277,415.1192,300.2128,414.7625,310.2979,413.8235,320.383,414.0264,330.4681,414.5115,340.5532,414.4762,350.6383,413.8084,360.7234,414.8316,370.8085,413.8497,380.8936,414.4393,390.9787,414.4067,401.0638,414.5863,411.1489,414.9228,421.234,414.3216,431.3191,414.0791,441.4043,414.955,451.4894,414.2636,461.5745,414.764,471.6596,414.3318,481.7447,414.3747,491.8298,414.4241,501.9149,414.969,512,414.373,512.6141,414.373,512.307,404.63,512.4725,394.8869,511.3934,385.1438,511.3973,375.4007,512.3828,365.6577,511.6495,355.9146,512.1715,346.1715,511.9643,336.4284,512.4901,326.6854,512.1232,316.9423,512,307.1992,511.8458,307.0451,509.9102,305.1095,507.8926,303.0919,505.9722,301.1714,504.0346,299.2338,502,297.1992,502,297.2524,491.913,296.535,481.8261,297.69,471.7391,297.1385,461.6522,297.6677,451.5652,296.6622,441.4783,297.4193,431.3913,296.7575,421.3043,297.1381,411.2174,297.8273,401.1304,297.7943,391.0435,297.9281,380.9565,296.9982,370.8696,297.0711,360.7826,297.3391,350.6957,297.265,340.6087,296.9441,330.5217,297.5603,320.4348,297.3473,310.3478,296.5925,300.2609,297.8771,290.1739,296.6314,280.087,297.2723,270,297.9018,259.913,297.3198,249.8261,297.4782,239.7391,297.7921,229.6522,297.67,219.5652,297.4869,209.4783,297.1246,199.3913,297.2717,189.3043,296.995,179.2174,297.7986,169.1304,297.6585,159.0435,297.2129,148.9565,296.5637,138.8696,297.2829,128.7826,297.1168,118.6957,296.8588,108.6087,297.3596,98.5217,297.4253,88.4348,297.8999,78.3478,297.3904,68.2609,297.7319,58.1739,297.0886,48.087,297.1657,38,297.1992" style="stroke: #A80036; stroke-width: 1.0;"/><polygon fill="#FBFB77" points="38,297.1992,38.4382,297.1992,37.7964,306.9637,38.4461,316.7282,37.5983,326.4927,38.2038,336.2572,37.4052,346.0216,37.7344,355.7861,38.5678,365.5506,38.6902,375.3151,37.4405,385.0796,37.3761,394.8441,37.3173,404.6086,38,414.373,38,414.4742,48.0851,414.0642,58.1702,414.2421,68.2553,415.0381,78.3404,413.6609,88.4255,413.8266,98.5106,415.0739,108.5957,414.0733,118.6809,414.6712,128.766,413.7442,138.8511,413.8834,148.9362,414.0414,159.0213,414.7629,169.1064,414.5178,179.1915,414.4371,189.2766,413.8388,199.3617,414.3404,209.4468,414.1596,219.5319,414.8748,229.617,413.9284,239.7021,413.8779,249.7872,414.1364,259.8723,414.3221,269.9574,413.7591,280.0426,414.7016,290.1277,414.7439,300.2128,415.0667,310.2979,414.6248,320.383,414.5108,330.4681,414.8825,340.5532,414.5394,350.6383,414.8235,360.7234,414.734,370.8085,414.0582,380.8936,414.8486,390.9787,414.9856,401.0638,414.7296,411.1489,413.9162,421.234,415.0679,431.3191,414.5247,441.4043,414.963,451.4894,414.9252,461.5745,414.89,471.6596,414.8256,481.7447,415.1142,491.8298,414.4697,501.9149,415.1161,512,414.373,512.1535,414.373,512.2208,404.63,512.2028,394.8869,511.8985,385.1438,512.1977,375.4007,511.3043,365.6577,511.416,355.9146,512.0266,346.1715,512.7253,336.4284,511.5237,326.6854,511.9766,316.9423,512,307.1992,512.1038,307.303,510.0836,305.2829,508.0224,303.2216,505.9733,301.1725,504.0896,299.2888,502,297.1992,502,297.6516,491.7384,296.6907,481.4768,296.9421,471.2153,297.3576,460.9537,296.8212,450.6921,297.5233,440.4305,296.5212,430.1689,296.647,419.9074,297.0568,409.6458,296.6225,399.3842,297.5315,389.1226,297.6061,378.8611,297.785,368.5995,297.1744,358.3379,297.218,348.0763,296.5214,337.8147,296.8929,327.5532,297.4078,317.2916,296.5954,307.03,297.1992,306.9253,297.1552,311.2956,287.252,314.9397,277.0436,318.9639,266.9949,323.9115,257.3341,327.3353,247.0332,332.18,237.3292,331.9276,237.1895,327.6488,245.9953,322.1197,254.1089,317.4494,262.6979,313.4281,271.6464,308.8829,280.3047,304.3316,288.9597,299.03,297.1992,299.03,297.173,288.9904,296.4809,278.9508,297.4531,268.9112,296.9734,258.8715,297.4028,248.8319,296.745,238.7923,297.021,228.7527,296.498,218.7131,297.3661,208.6735,296.7405,198.6338,297.5602,188.5942,296.7394,178.5546,296.7183,168.515,297.7334,158.4754,297.8758,148.4358,297.4287,138.3962,297.1753,128.3565,297.9234,118.3169,296.8829,108.2773,297.6938,98.2377,297.1802,88.1981,297.4903,78.1585,296.5326,68.1188,297.8169,58.0792,296.8015,48.0396,297.1667,38,297.1992" style="stroke: #A80036; stroke-width: 1.0;"/><path d="M502,297.1992 L501.8598,297.1992 L501.7812,299.1992 L501.9733,301.1992 L502.0907,303.1992 L501.8079,305.1992 L502,307.1992 " fill="#FBFB77" style="stroke: #A80036; stroke-width: 1.0;"/><path d="M512,307.1992 L512,307.5324 L510,307.028 L508,307.2349 L506,306.8964 L504,307.4105 L502,307.1992 " fill="#FBFB77" style="stroke: #A80036; stroke-width: 1.0;"/><text fill="#000000" font-family="sans-serif" font-size="13" lengthAdjust="spacingAndGlyphs" textLength="234" x="44" y="314.7676">・コンテンツは未公開状態で登録される</text><text fill="#000000" font-family="sans-serif" font-size="13" lengthAdjust="spacingAndGlyphs" textLength="351" x="44" y="330.0781">・親の公開状態と公開期間を公開状態と公開期間に設定する</text><text fill="#000000" font-family="sans-serif" font-size="13" lengthAdjust="spacingAndGlyphs" textLength="288" x="44" y="345.3887">・作成者IDにログイン中のユーザーIDを設定する</text><text fill="#000000" font-family="sans-serif" font-size="13" lengthAdjust="spacingAndGlyphs" textLength="258" x="44" y="360.6992">・タイトルは強制的に255文字でカットする</text><text fill="#000000" font-family="sans-serif" font-size="13" lengthAdjust="spacingAndGlyphs" textLength="269" x="44" y="376.0098">・タイトルを231文字でカットしてURLに設定</text><text fill="#000000" font-family="sans-serif" font-size="13" lengthAdjust="spacingAndGlyphs" textLength="254" x="44" y="391.3203">・URLをURLエンコードしてURLを生成する</text><text fill="#000000" font-family="sans-serif" font-size="13" lengthAdjust="spacingAndGlyphs" textLength="453" x="44" y="406.6309">・URLの重複チェックを行い重複している場合はユニークな文字列に変換する</text><!--class 親コンテンツ--><polygon fill="#FEFECE" filter="url(#f5n1lhm)" points="547,335.6992,547,335.4992,557.4,335.6032,567.8,336.1126,578.2,335.8281,588.6,335.9119,599,336.1408,609.4,335.7298,619.8,335.1799,630.2,336.2199,640.6,335.1137,651,335.6992,651.0234,335.6992,650.8291,343.6992,651.2452,351.6992,651.1,359.6992,651.0028,367.6992,651,375.6992,651,375.9767,640.6,375.5563,630.2,376.2779,619.8,375.3367,609.4,375.3908,599,376.006,588.6,375.0778,578.2,375.9314,567.8,375.5982,557.4,376.2347,547,375.6992,546.9912,375.6992,547.1737,367.6992,547.0541,359.6992,547.0408,351.6992,546.9365,343.6992,547,335.6992" style="stroke: #A80036; stroke-width: 1.5;"/><polygon fill="#ADD1B2" points="573.0221,355.3726,571.9151,357.1625,569.1271,359.3986,567.3409,361.7887,564.7624,363.0388,561.1014,362.5111,558.3381,362.0112,555.3263,360.406,553.4585,357.488,551.4216,354.7694,551.3236,351.405,551.0021,348.5702,552.3085,346.0506,554.5169,343.0017,557.9889,341.1746,559.9901,340.9815,562.06,340.2792,564.9368,340.9772,568.1607,342.8607,569.8908,344.7059,571.5495,346.8446,572.2053,349.0918,573.1379,351.2602,572.3747,353.373" style="stroke: #A80036; stroke-width: 1.0;"/><path d="M564.4731,357.8423 Q563.8921,358.1411 563.2529,358.2905 Q562.6138,358.4399 561.9082,358.4399 Q559.4014,358.4399 558.0815,356.7881 Q556.7617,355.1362 556.7617,352.0151 Q556.7617,348.8857 558.0815,347.2339 Q559.4014,345.582 561.9082,345.582 Q562.6138,345.582 563.2612,345.7314 Q563.9087,345.8809 564.4731,346.1797 L564.4731,348.9023 Q563.8423,348.3213 563.2488,348.0515 Q562.6553,347.7817 562.0244,347.7817 Q560.6797,347.7817 559.9949,348.8484 Q559.3101,349.915 559.3101,352.0151 Q559.3101,354.1069 559.9949,355.1736 Q560.6797,356.2402 562.0244,356.2402 Q562.6553,356.2402 563.2488,355.9705 Q563.8423,355.7007 564.4731,355.1196 Z "/><text fill="#000000" font-family="sans-serif" font-size="12" lengthAdjust="spacingAndGlyphs" textLength="72" x="576" y="356.2344">親コンテンツ</text><path d="M548,367.6992 L548,368.4927 L558.2,367.5774 L568.4,368.5885 L578.6,368.627 L588.8,366.9088 L599,368.4183 L609.2,368.0799 L619.4,368.4908 L629.6,367.561 L639.8,368.2543 L650,367.6992 " fill="#FEFECE" style="stroke: #A80036; stroke-width: 1.5;"/><path d="M302.2,158.6992 L302.2,158.963 L306.54,158.5495 L310.88,158.5094 L315.22,158.6416 L319.56,158.7097 L323.9,158.6992 " fill="none" style="stroke: #A80036; stroke-width: 1.0;"/><polygon fill="#A80036" points="289.18,158.6992,289.194,158.7202,290.3527,159.4582,291.4612,160.121,292.8497,161.2037,293.9962,161.9235,295.18,162.6992,295.1614,162.6714,296.4493,162.0032,297.5645,161.076,298.7946,160.3211,299.8562,159.3136,301.18,158.6992,301.2585,158.8169,300.0182,157.9565,298.8906,157.2651,297.6866,156.459,296.4218,155.5619,295.18,154.6992,295.1783,154.6967,293.9831,155.5038,292.7695,156.2835,291.6675,157.2304,290.4646,158.0262,289.18,158.6992" style="stroke: #A80036; stroke-width: 1.0;"/><path d="M416.07,198.9292 L415.952,198.7907 L423.4767,205.2211 L430.4754,211.0337 L437.9103,217.3586 L445.9715,224.419 L452.7779,230.0059 L461.2833,237.5881 L468.6606,243.8453 L475.6793,249.6815 L483.6728,256.6624 L490.7442,262.5604 L497.7825,268.4196 L505.6901,275.2997 L513.2025,281.7157 L520.4369,287.8052 L527.2326,293.3794 L534.863,299.9339 L542.8924,306.9571 L550.8227,313.8637 L557.8491,319.709 L565.3695,326.1343 L572.6,332.2192 " fill="none" style="stroke: #A80036; stroke-width: 1.0;"/><polygon fill="#A80036" points="576.64,335.6592,576.633,335.6559,575.6244,333.803,574.7566,332.0174,574.2039,330.3826,573.2682,328.5645,572.3906,326.7743,572.1811,326.7577,572.6103,327.9125,572.3952,329.0162,572.5671,330.1506,572.6232,331.2758,572.8367,332.4135,572.8495,332.5762,571.6989,332.378,570.595,332.7695,569.4591,332.7572,568.3131,332.6161,567.1974,332.8596,567.2217,332.9414,569.0494,333.2964,571.0003,334.0667,572.9228,334.741,574.7611,335.1319,576.64,335.6592" style="stroke: #A80036; stroke-width: 1.0;"/><text fill="#000000" font-family="sans-serif" font-size="13" lengthAdjust="spacingAndGlyphs" textLength="22" x="424.0955" y="201.1505">0..*</text><text fill="#000000" font-family="sans-serif" font-size="13" lengthAdjust="spacingAndGlyphs" textLength="8" x="560.5673" y="324.841">1</text></g></svg>