<?xml version="1.0" encoding="UTF-8" standalone="no"?><svg xmlns="http://www.w3.org/2000/svg" xmlns:xlink="http://www.w3.org/1999/xlink" contentScriptType="application/ecmascript" contentStyleType="text/css" height="437px" preserveAspectRatio="none" style="width:660px;height:437px;" version="1.1" viewBox="0 0 660 437" width="660px" zoomAndPan="magnify"><defs><filter height="300%" id="flj7rz5" width="300%" x="-1" y="-1"><feGaussianBlur result="blurOut" stdDeviation="2.0"/><feColorMatrix in="blurOut" result="blurOut2" type="matrix" values="0 0 0 0 0 0 0 0 0 0 0 0 0 0 0 0 0 0 .4 0"/><feOffset dx="4.0" dy="4.0" in="blurOut2" result="blurOut3"/><feBlend in="SourceGraphic" in2="blurOut3" mode="normal"/></filter></defs><g><text fill="#000000" font-family="sans-serif" font-size="18" lengthAdjust="spacingAndGlyphs" textLength="324" x="172.5" y="17.4023">ドメインモデル図：コンテンツフォルダ</text><!--cluster フォルダ--><polygon fill="#FFFFFF" filter="url(#flj7rz5)" points="22,45.1992,22,44.8854,32.3333,45.4382,42.6667,45.4873,53,44.506,63.3333,45.0362,73.6667,45.4816,84,45.1992,84.2183,45.2672,85.3202,49.672,86.8373,54.2061,88.1776,58.6852,89.3854,63.123,91,67.6875,91,67.234,100.9318,67.4179,110.8636,66.9791,120.7955,68.0289,130.7273,68.0362,140.6591,68.4239,150.5909,67.9171,160.5227,67.0901,170.4545,67.2172,180.3864,66.9754,190.3182,66.9403,200.25,67.5794,210.1818,67.6993,220.1136,66.9527,230.0455,68.27,239.9773,66.9644,249.9091,67.613,259.8409,67.938,269.7727,68.2337,279.7045,68.0356,289.6364,67.6,299.5682,67.0266,309.5,67.7003,319.4318,66.9929,329.3636,68.184,339.2955,68.1679,349.2273,67.5721,359.1591,68.0702,369.0909,68.2633,379.0227,68.0668,388.9545,68.4282,398.8864,67.4787,408.8182,68.4231,418.75,68.1516,428.6818,68.2519,438.6136,68.4359,448.5455,68.427,458.4773,67.2328,468.4091,68.2803,478.3409,67.423,488.2727,67.4228,498.2045,67.2361,508.1364,67.889,518.0682,68.0782,528,67.6875,528.4023,67.6875,527.6025,77.7573,527.8688,87.827,528.6042,97.8968,527.4763,107.9666,528.3029,118.0363,528.1743,128.1061,527.9274,138.1759,527.3078,148.2457,527.6563,158.3154,527.9467,168.3852,527.8458,178.455,528.3524,188.5247,528.0214,198.5945,527.618,208.6643,527.2959,218.734,527.7436,228.8038,527.3361,238.8736,528.5342,248.9434,528.5231,259.0131,527.8691,269.0829,528.5128,279.1527,527.4421,289.2224,527.9899,299.2922,527.657,309.362,528.1314,319.4317,528.6011,329.5015,528.0426,339.5713,528.5818,349.6411,527.4421,359.7108,527.4662,369.7806,527.4356,379.8504,528.7124,389.9201,528.712,399.9899,528.1489,410.0597,528.0959,420.1294,528,430.1992,528,430.1616,518.0784,429.8167,508.1569,430.0939,498.2353,430.8801,488.3137,430.2447,478.3922,430.8854,468.4706,429.8013,458.549,430.2458,448.6275,430.7077,438.7059,430.4394,428.7843,430.176,418.8627,430.3957,408.9412,430.2872,399.0196,430.0774,389.098,430.9283,379.1765,430.3253,369.2549,430.235,359.3333,429.9594,349.4118,430.0211,339.4902,430.4118,329.5686,430.1669,319.6471,429.5279,309.7255,430.8254,299.8039,430.1232,289.8824,429.9152,279.9608,430.8037,270.0392,430.6652,260.1176,430.3395,250.1961,430.8075,240.2745,429.5486,230.3529,430.1208,220.4314,429.9825,210.5098,429.752,200.5882,429.8708,190.6667,430.1094,180.7451,429.4502,170.8235,429.9825,160.902,430.2855,150.9804,429.6843,141.0588,430.5383,131.1373,430.3061,121.2157,430.8079,111.2941,430.6761,101.3725,430.6122,91.451,429.6979,81.5294,430.8712,71.6078,430.2477,61.6863,429.7585,51.7647,430.6119,41.8431,429.7141,31.9216,430.6538,22,430.1992,21.8095,430.1992,21.7082,420.3274,22.1718,410.4556,21.2729,400.5838,21.7765,390.712,21.6483,380.8402,22.3383,370.9684,21.6261,361.0967,21.6862,351.2249,21.9869,341.3531,22.1537,331.4813,21.9192,321.6095,21.3198,311.7377,21.2509,301.8659,22.358,291.9941,21.9023,282.1223,21.8019,272.2505,22.4158,262.3787,21.3382,252.5069,22.4055,242.6351,21.9849,232.7633,22.2901,222.8915,21.7707,213.0197,21.9058,203.1479,21.3829,193.2761,22.0539,183.4043,22.4067,173.5326,22.1601,163.6608,21.7024,153.789,21.5389,143.9172,22.5225,134.0454,21.9759,124.1736,22.5024,114.3018,22.0003,104.43,22.6742,94.5582,21.3025,84.6864,21.3915,74.8146,21.3079,64.9428,21.6556,55.071,22,45.1992" style="stroke: #000000; stroke-width: 2.0;"/><path d="M22,67.6875 L22,68.6082 L31.8571,68.2687 L41.7143,67.2502 L51.5714,66.9631 L61.4286,68.1027 L71.2857,67.8338 L81.1429,68.6627 L91,67.6875 " fill="#FFFFFF" style="stroke: #000000; stroke-width: 2.0;"/><text fill="#000000" font-family="sans-serif" font-size="14" font-weight="bold" lengthAdjust="spacingAndGlyphs" textLength="56" x="26" y="60.7344">フォルダ</text><!--class フォルダ--><polygon fill="#FEFECE" filter="url(#flj7rz5)" points="209,138.6992,209,138.7589,219,138.825,229,139.3641,239,138.7506,249,139.2872,259,138.1614,269,139.4355,279,138.0183,289,138.6992,288.8829,138.6992,289.2329,146.6992,288.943,154.6992,289.0927,162.6992,289.0551,170.6992,289,178.6992,289,179.1417,279,178.7475,269,178.4137,259,179.3023,249,178.7633,239,179.2486,229,179.289,219,178.9302,209,178.6992,208.893,178.6992,209.2261,170.6992,209.0744,162.6992,209.1489,154.6992,209.0535,146.6992,209,138.6992" style="stroke: #A80036; stroke-width: 1.5;"/><polygon fill="#ADD1B2" points="234.3033,157.8855,233.0342,160.0713,232.1861,162.9756,229.003,163.8451,226.8232,165.6959,224.0255,165.1007,220.5266,165.7955,218.0317,164.5463,216.0438,161.5785,213.6955,158.8608,213.562,156.0033,213.879,152.5865,214.0473,149.0428,216.958,147.1557,219.5148,144.9839,223.0028,143.1528,225.8974,144.2739,229.0805,145.1926,231.2366,147.0147,233.4085,149.1624,234.4547,151.5001,235.352,155.0872" style="stroke: #A80036; stroke-width: 1.0;"/><path d="M226.4731,160.8423 Q225.8921,161.1411 225.2529,161.2905 Q224.6138,161.4399 223.9082,161.4399 Q221.4014,161.4399 220.0815,159.7881 Q218.7617,158.1362 218.7617,155.0151 Q218.7617,151.8857 220.0815,150.2339 Q221.4014,148.582 223.9082,148.582 Q224.6138,148.582 225.2612,148.7314 Q225.9087,148.8809 226.4731,149.1797 L226.4731,151.9023 Q225.8423,151.3213 225.2488,151.0515 Q224.6553,150.7817 224.0244,150.7817 Q222.6797,150.7817 221.9949,151.8484 Q221.3101,152.915 221.3101,155.0151 Q221.3101,157.1069 221.9949,158.1736 Q222.6797,159.2402 224.0244,159.2402 Q224.6553,159.2402 225.2488,158.9705 Q225.8423,158.7007 226.4731,158.1196 Z "/><text fill="#000000" font-family="sans-serif" font-size="12" lengthAdjust="spacingAndGlyphs" textLength="48" x="238" y="159.2344">フォルダ</text><path d="M210,170.6992 L210,169.8414 L219.75,171.5402 L229.5,170.2246 L239.25,170.0081 L249,169.8971 L258.75,171.3521 L268.5,171.5812 L278.25,170.7806 L288,170.6992 " fill="#FEFECE" style="stroke: #A80036; stroke-width: 1.5;"/><!--class コンテンツ--><polygon fill="#FEFECE" filter="url(#flj7rz5)" points="324,80.1992,324,80.109,334.2222,79.6873,344.4444,80.032,354.6667,79.8779,364.8889,80.2378,375.1111,80.0779,385.3333,79.4858,395.5556,80.2043,405.7778,79.9075,416,80.1992,415.3848,80.1992,416.2876,89.9865,415.6092,99.7737,415.6455,109.5609,415.8163,119.3481,416.0571,129.1354,415.8866,138.9226,416.5322,148.7098,416.2391,158.4971,415.5044,168.2843,416.3048,178.0715,415.9853,187.8588,415.2889,197.646,415.3982,207.4332,415.4548,217.2205,416.379,227.0077,416,236.7949,416,237.1307,405.7778,237.4961,395.5556,237.503,385.3333,237.0242,375.1111,236.128,364.8889,236.9249,354.6667,237.1491,344.4444,236.7472,334.2222,236.6264,324,236.7949,323.9783,236.7949,324.4319,227.0077,323.2958,217.2205,323.7976,207.4332,323.8584,197.646,323.5755,187.8588,323.6175,178.0715,323.5543,168.2843,323.2749,158.4971,324.0671,148.7098,323.4478,138.9226,323.3522,129.1354,323.3442,119.3481,323.4249,109.5609,324.4357,99.7737,323.286,89.9865,324,80.1992" style="stroke: #A80036; stroke-width: 1.5;"/><polygon fill="#ADD1B2" points="349.6564,99.714,347.6947,102.164,346.8764,104.7793,344.3793,106.4802,340.7854,107.6129,337.4149,107.1308,335.5376,106.5053,333.42,105.7974,331.3156,103.5565,328.8943,100.7553,327.8389,97.7693,327.8192,93.9632,328.6622,91.5623,330.9203,89.1701,331.8772,87.3896,334.5668,86.7117,337.5501,85.6293,340.5085,84.7551,343.6014,86.5298,345.818,87.7331,348.3521,89.9485,349.7903,91.9442,349.214,94.5714,349.8693,96.831" style="stroke: #A80036; stroke-width: 1.0;"/><path d="M341.4731,102.3423 Q340.8921,102.6411 340.2529,102.7905 Q339.6138,102.9399 338.9082,102.9399 Q336.4014,102.9399 335.0815,101.2881 Q333.7617,99.6362 333.7617,96.5151 Q333.7617,93.3857 335.0815,91.7339 Q336.4014,90.082 338.9082,90.082 Q339.6138,90.082 340.2612,90.2314 Q340.9087,90.3809 341.4731,90.6797 L341.4731,93.4023 Q340.8423,92.8213 340.2488,92.5515 Q339.6553,92.2817 339.0244,92.2817 Q337.6797,92.2817 336.9949,93.3484 Q336.3101,94.415 336.3101,96.5151 Q336.3101,98.6069 336.9949,99.6736 Q337.6797,100.7402 339.0244,100.7402 Q339.6553,100.7402 340.2488,100.4705 Q340.8423,100.2007 341.4731,99.6196 Z "/><text fill="#000000" font-family="sans-serif" font-size="12" lengthAdjust="spacingAndGlyphs" textLength="60" x="353" y="100.7344">コンテンツ</text><path d="M325,112.1992 L325,112.2516 L335,111.7727 L345,111.6116 L355,112.2563 L365,112.0182 L375,111.4758 L385,112.3777 L395,112.8747 L405,113.0175 L415,112.1992 " fill="#FEFECE" style="stroke: #A80036; stroke-width: 1.5;"/><text fill="#000000" font-family="sans-serif" font-size="11" lengthAdjust="spacingAndGlyphs" textLength="21" x="330" y="126.834">URL</text><text fill="#000000" font-family="sans-serif" font-size="11" lengthAdjust="spacingAndGlyphs" textLength="44" x="330" y="139.7891">タイトル</text><text fill="#000000" font-family="sans-serif" font-size="11" lengthAdjust="spacingAndGlyphs" textLength="77" x="330" y="152.7441">自身の公開状態</text><text fill="#000000" font-family="sans-serif" font-size="11" lengthAdjust="spacingAndGlyphs" textLength="77" x="330" y="165.6992">自身の公開期間</text><text fill="#000000" font-family="sans-serif" font-size="11" lengthAdjust="spacingAndGlyphs" textLength="44" x="330" y="178.6543">公開状態</text><text fill="#000000" font-family="sans-serif" font-size="11" lengthAdjust="spacingAndGlyphs" textLength="44" x="330" y="191.6094">公開期間</text><text fill="#000000" font-family="sans-serif" font-size="11" lengthAdjust="spacingAndGlyphs" textLength="77" x="330" y="204.5645">親コンテンツID</text><text fill="#000000" font-family="sans-serif" font-size="11" lengthAdjust="spacingAndGlyphs" textLength="44" x="330" y="217.5195">作成者ID</text><text fill="#000000" font-family="sans-serif" font-size="11" lengthAdjust="spacingAndGlyphs" textLength="33" x="330" y="230.4746">実体ID</text><polygon fill="#FBFB77" filter="url(#flj7rz5)" points="38,297.1992,38.0583,297.1992,38.3037,306.9637,37.7068,316.7282,38.7435,326.4927,38.1044,336.2572,37.3444,346.0216,38.3736,355.7861,37.8556,365.5506,38.2838,375.3151,37.7577,385.0796,37.4293,394.8441,37.9541,404.6086,38,414.373,38,413.9143,48.0851,414.5124,58.1702,414.05,68.2553,413.9912,78.3404,413.7799,88.4255,414.4446,98.5106,414.0241,108.5957,414.2879,118.6809,413.692,128.766,413.6741,138.8511,413.6508,148.9362,414.5998,159.0213,414.8841,169.1064,414.1991,179.1915,414.4007,189.2766,414.0347,199.3617,414.386,209.4468,414.6373,219.5319,413.6694,229.617,414.7179,239.7021,413.9365,249.7872,414.3887,259.8723,414.6875,269.9574,414.5419,280.0426,414.1191,290.1277,414.1387,300.2128,414.343,310.2979,414.8623,320.383,414.3043,330.4681,414.1703,340.5532,413.8993,350.6383,413.6849,360.7234,414.0343,370.8085,414.2649,380.8936,414.2048,390.9787,414.0836,401.0638,414.7852,411.1489,414.6773,421.234,415.1188,431.3191,413.9252,441.4043,413.6252,451.4894,414.2632,461.5745,415.024,471.6596,414.4561,481.7447,414.6213,491.8298,414.3227,501.9149,414.4582,512,414.373,512.0479,414.373,512.0839,404.63,511.7261,394.8869,511.6969,385.1438,512.2701,375.4007,511.7192,365.6577,512.2659,355.9146,511.4264,346.1715,512.0229,336.4284,512.0637,326.6854,512.5,316.9423,512,307.1992,512.1221,307.3213,509.896,305.0952,508.0083,303.2075,506.1078,301.307,503.9275,299.1267,502,297.1992,502,296.5455,491.913,297.7426,481.8261,297.1578,471.7391,296.7491,461.6522,297.5802,451.5652,297.0757,441.4783,297.6615,431.3913,297.2251,421.3043,297.1039,411.2174,297.3618,401.1304,297.6633,391.0435,297.1909,380.9565,297.1615,370.8696,297.7478,360.7826,297.648,350.6957,296.5792,340.6087,297.6712,330.5217,297.1648,320.4348,297.104,310.3478,297.7141,300.2609,297.5686,290.1739,297.0493,280.087,296.4937,270,296.8421,259.913,297.1044,249.8261,297.6491,239.7391,297.3604,229.6522,297.6937,219.5652,297.0441,209.4783,296.5724,199.3913,297.4214,189.3043,297.2529,179.2174,297.8225,169.1304,296.5299,159.0435,297.061,148.9565,297.2764,138.8696,297.1485,128.7826,297.2824,118.6957,297.0911,108.6087,296.4823,98.5217,296.6478,88.4348,297.1265,78.3478,296.4906,68.2609,297.2248,58.1739,296.8517,48.087,296.8458,38,297.1992" style="stroke: #A80036; stroke-width: 1.0;"/><polygon fill="#FBFB77" points="38,297.1992,37.8712,297.1992,38.1817,306.9637,38.5148,316.7282,38.7074,326.4927,37.9368,336.2572,37.9026,346.0216,37.6419,355.7861,38.1048,365.5506,37.5352,375.3151,37.8237,385.0796,38.5735,394.8441,38.6455,404.6086,38,414.373,38,414.6564,48.0851,414.6595,58.1702,415.113,68.2553,413.9866,78.3404,413.9404,88.4255,413.9692,98.5106,414.5248,108.5957,415.0519,118.6809,413.9688,128.766,413.703,138.8511,413.8215,148.9362,414.4662,159.0213,414.235,169.1064,415.0864,179.1915,415.0175,189.2766,415.0436,199.3617,414.4206,209.4468,414.9769,219.5319,414.1362,229.617,413.6344,239.7021,413.6242,249.7872,414.0283,259.8723,413.9152,269.9574,414.2842,280.0426,414.5562,290.1277,413.6613,300.2128,414.3975,310.2979,414.017,320.383,413.9783,330.4681,415.0324,340.5532,414.5014,350.6383,414.1912,360.7234,413.6981,370.8085,414.7756,380.8936,414.5714,390.9787,413.6571,401.0638,414.3541,411.1489,414.8901,421.234,414.972,431.3191,413.9888,441.4043,415.0355,451.4894,413.7601,461.5745,413.9783,471.6596,414.8679,481.7447,414.9889,491.8298,413.9236,501.9149,415.0578,512,414.373,511.4046,414.373,512.3819,404.63,512.4766,394.8869,511.7375,385.1438,512.628,375.4007,512.1915,365.6577,511.2745,355.9146,512.4822,346.1715,512.6525,336.4284,511.3271,326.6854,511.4309,316.9423,512,307.1992,511.8668,307.066,510.1068,305.306,507.8628,303.062,505.8507,301.05,504.0758,299.2751,502,297.1992,502,296.9655,491.7384,296.9983,481.4768,296.5086,471.2153,296.5105,460.9537,296.5657,450.6921,296.8075,440.4305,297.4012,430.1689,296.8293,419.9074,297.226,409.6458,297.9315,399.3842,297.3069,389.1226,297.6453,378.8611,297.4793,368.5995,296.7462,358.3379,297.5238,348.0763,297.0642,337.8147,296.4952,327.5532,296.8082,317.2916,297.3916,307.03,297.1992,307.02,297.195,311.3644,287.2809,315.0188,277.0768,319.9392,267.4046,323.5469,257.181,328.4758,247.5123,332.18,237.3292,332.2654,237.3765,327.9697,246.173,322.2198,254.1643,318.2179,263.1235,313.6065,271.7451,308.9472,280.3403,304.1959,288.8846,299.03,297.1992,299.03,297.4467,288.9904,297.2257,278.9508,297.0922,268.9112,297.7051,258.8715,296.7149,248.8319,297.7205,238.7923,296.5266,228.7527,297.0737,218.7131,296.9637,208.6735,297.1291,198.6338,297.0735,188.5942,297.7274,178.5546,296.5435,168.515,296.6999,158.4754,296.9439,148.4358,297.7792,138.3962,296.7561,128.3565,297.2255,118.3169,297.3206,108.2773,297.8644,98.2377,296.9036,88.1981,297.5807,78.1585,296.4551,68.1188,297.8691,58.0792,297.0303,48.0396,296.8165,38,297.1992" style="stroke: #A80036; stroke-width: 1.0;"/><path d="M502,297.1992 L501.7262,297.1992 L502.2463,299.1992 L502.0887,301.1992 L501.7627,303.1992 L501.7532,305.1992 L502,307.1992 " fill="#FBFB77" style="stroke: #A80036; stroke-width: 1.0;"/><path d="M512,307.1992 L512,307.2529 L510,307.1691 L508,307.4286 L506,307.4416 L504,306.9195 L502,307.1992 " fill="#FBFB77" style="stroke: #A80036; stroke-width: 1.0;"/><text fill="#000000" font-family="sans-serif" font-size="13" lengthAdjust="spacingAndGlyphs" textLength="234" x="44" y="314.7676">・コンテンツは未公開状態で登録される</text><text fill="#000000" font-family="sans-serif" font-size="13" lengthAdjust="spacingAndGlyphs" textLength="351" x="44" y="330.0781">・親の公開状態と公開期間を公開状態と公開期間に設定する</text><text fill="#000000" font-family="sans-serif" font-size="13" lengthAdjust="spacingAndGlyphs" textLength="288" x="44" y="345.3887">・作成者IDにログイン中のユーザーIDを設定する</text><text fill="#000000" font-family="sans-serif" font-size="13" lengthAdjust="spacingAndGlyphs" textLength="258" x="44" y="360.6992">・タイトルは強制的に255文字でカットする</text><text fill="#000000" font-family="sans-serif" font-size="13" lengthAdjust="spacingAndGlyphs" textLength="269" x="44" y="376.0098">・タイトルを231文字でカットしてURLに設定</text><text fill="#000000" font-family="sans-serif" font-size="13" lengthAdjust="spacingAndGlyphs" textLength="254" x="44" y="391.3203">・URLをURLエンコードしてURLを生成する</text><text fill="#000000" font-family="sans-serif" font-size="13" lengthAdjust="spacingAndGlyphs" textLength="453" x="44" y="406.6309">・URLの重複チェックを行い重複している場合はユニークな文字列に変換する</text><!--class 親コンテンツ--><polygon fill="#FEFECE" filter="url(#flj7rz5)" points="547,335.6992,547,335.6032,557.4,336.3136,567.8,336.2866,578.2,336.2148,588.6,335.0824,599,336.4434,609.4,336.1591,619.8,335.9946,630.2,336.3116,640.6,335.8993,651,335.6992,651.236,335.6992,650.9821,343.6992,650.9869,351.6992,651.1185,359.6992,650.8684,367.6992,651,375.6992,651,375.7319,640.6,375.7001,630.2,375.3739,619.8,375.7933,609.4,375.5371,599,376.0416,588.6,376.075,578.2,375.8131,567.8,375.845,557.4,375.4982,547,375.6992,547.0953,375.6992,546.9643,367.6992,546.8402,359.6992,546.9942,351.6992,546.8231,343.6992,547,335.6992" style="stroke: #A80036; stroke-width: 1.5;"/><polygon fill="#ADD1B2" points="572.3003,355.2785,570.7816,358.1327,568.1548,360.2507,565.8744,361.9308,562.4662,362.1762,559.3203,362.5591,557.201,361.5486,554.8774,360.8972,553.4183,358.5937,551.9,355.6821,550.8284,353.286,551.0801,349.4066,552.366,347.4051,554.2962,344.6646,556.5381,342.2998,559.4073,340.9227,562.8191,341.2732,566.0375,341.7381,568.0334,342.4014,570.5126,345.239,571.3096,346.9626,572.2043,349.2458,573.1578,351.0579,572.6379,353.1767" style="stroke: #A80036; stroke-width: 1.0;"/><path d="M564.4731,357.8423 Q563.8921,358.1411 563.2529,358.2905 Q562.6138,358.4399 561.9082,358.4399 Q559.4014,358.4399 558.0815,356.7881 Q556.7617,355.1362 556.7617,352.0151 Q556.7617,348.8857 558.0815,347.2339 Q559.4014,345.582 561.9082,345.582 Q562.6138,345.582 563.2612,345.7314 Q563.9087,345.8809 564.4731,346.1797 L564.4731,348.9023 Q563.8423,348.3213 563.2488,348.0515 Q562.6553,347.7817 562.0244,347.7817 Q560.6797,347.7817 559.9949,348.8484 Q559.3101,349.915 559.3101,352.0151 Q559.3101,354.1069 559.9949,355.1736 Q560.6797,356.2402 562.0244,356.2402 Q562.6553,356.2402 563.2488,355.9705 Q563.8423,355.7007 564.4731,355.1196 Z "/><text fill="#000000" font-family="sans-serif" font-size="12" lengthAdjust="spacingAndGlyphs" textLength="72" x="576" y="356.2344">親コンテンツ</text><path d="M548,367.6992 L548,367.3329 L558.2,368.6453 L568.4,367.5037 L578.6,368.2143 L588.8,366.754 L599,367.7149 L609.2,368.6829 L619.4,368.52 L629.6,368.2774 L639.8,367.6299 L650,367.6992 " fill="#FEFECE" style="stroke: #A80036; stroke-width: 1.5;"/><path d="M302.2,158.6992 L302.2,158.4604 L306.54,158.6744 L310.88,158.623 L315.22,158.7002 L319.56,158.535 L323.9,158.6992 " fill="none" style="stroke: #A80036; stroke-width: 1.0;"/><polygon fill="#A80036" points="289.18,158.6992,289.1675,158.6804,290.5164,159.7038,291.5062,160.1885,292.7274,161.0204,293.9886,161.9121,295.18,162.6992,295.1149,162.6016,296.2618,161.7219,297.6786,161.2471,298.6641,160.1254,299.8774,159.3453,301.18,158.6992,301.2581,158.8164,300.0651,158.0269,298.8955,157.2724,297.5462,156.2485,296.3774,155.4953,295.18,154.6992,295.0924,154.5678,294.1048,155.6864,292.8705,156.435,291.467,156.9298,290.3014,157.7814,289.18,158.6992" style="stroke: #A80036; stroke-width: 1.0;"/><path d="M416.07,198.9292 L415.7374,198.5386 L423.7834,205.5812 L430.4941,211.0557 L438.4919,218.0417 L445.3828,223.7277 L452.9443,230.2014 L460.9891,237.2425 L467.9994,243.0688 L475.133,249.0399 L483.5545,256.5235 L489.967,261.6478 L498.4656,269.2218 L506.03,275.6989 L513.5977,282.1798 L520.953,288.4113 L527.5996,293.8104 L535.3937,300.5572 L543.3781,307.5275 L550.814,313.8536 L558.1087,320.0138 L565.7624,326.5957 L572.6,332.2192 " fill="none" style="stroke: #A80036; stroke-width: 1.0;"/><polygon fill="#A80036" points="576.64,335.6592,576.5565,335.6193,575.6583,333.8192,574.7199,331.9999,574.2456,330.4025,573.3811,328.6186,572.3906,326.7743,572.49,326.7821,572.3239,327.8898,572.6758,329.0384,572.5709,330.1509,572.9633,331.3027,572.8367,332.4135,572.8252,332.2685,571.7283,332.7484,570.5812,332.595,569.4432,332.556,568.3378,332.9289,567.1974,332.8596,567.143,332.6761,569.1215,333.5393,570.9587,333.9263,572.8412,334.466,574.7034,334.9371,576.64,335.6592" style="stroke: #A80036; stroke-width: 1.0;"/><text fill="#000000" font-family="sans-serif" font-size="13" lengthAdjust="spacingAndGlyphs" textLength="22" x="424.0955" y="201.1505">0..*</text><text fill="#000000" font-family="sans-serif" font-size="13" lengthAdjust="spacingAndGlyphs" textLength="8" x="560.5673" y="324.841">1</text></g></svg>