<?xml version="1.0" encoding="UTF-8" standalone="no"?><svg xmlns="http://www.w3.org/2000/svg" xmlns:xlink="http://www.w3.org/1999/xlink" contentScriptType="application/ecmascript" contentStyleType="text/css" height="434px" preserveAspectRatio="none" style="width:661px;height:434px;" version="1.1" viewBox="0 0 661 434" width="661px" zoomAndPan="magnify"><defs><filter height="300%" id="f5f7vmn" width="300%" x="-1" y="-1"><feGaussianBlur result="blurOut" stdDeviation="2.0"/><feColorMatrix in="blurOut" result="blurOut2" type="matrix" values="0 0 0 0 0 0 0 0 0 0 0 0 0 0 0 0 0 0 .4 0"/><feOffset dx="4.0" dy="4.0" in="blurOut2" result="blurOut3"/><feBlend in="SourceGraphic" in2="blurOut3" mode="normal"/></filter></defs><g><text fill="#000000" font-family="sans-serif" font-size="18" lengthAdjust="spacingAndGlyphs" textLength="324" x="173" y="16.708">ドメインモデル図：コンテンツフォルダ</text><!--cluster フォルダ--><polygon fill="#FFFFFF" filter="url(#f5f7vmn)" points="22,44.9531,22,44.5053,32.3333,44.638,42.6667,44.5312,53,45.4403,63.3333,45.2741,73.6667,44.9537,84,44.9531,83.827,44.8988,85.2974,49.3803,86.7797,53.8655,88.0217,58.2753,89.6785,62.8153,91,67.25,91,67.7357,100.9318,67.6559,110.8636,66.8927,120.7955,67.3016,130.7273,67.4142,140.6591,67.2895,150.5909,67.5796,160.5227,67.5748,170.4545,66.6262,180.3864,66.8107,190.3182,67.9006,200.25,67.9386,210.1818,67.3906,220.1136,66.9276,230.0455,67.3497,239.9773,66.7095,249.9091,67.5329,259.8409,67.9319,269.7727,67.4233,279.7045,66.9521,289.6364,67.9239,299.5682,67.0358,309.5,66.5748,319.4318,66.6238,329.3636,67.3132,339.2955,67.6258,349.2273,66.8315,359.1591,67.6841,369.0909,67.2948,379.0227,67.4068,388.9545,67.2076,398.8864,67.4475,408.8182,66.8738,418.75,67.032,428.6818,67.2667,438.6136,67.4282,448.5455,67.7362,458.4773,67.2684,468.4091,66.8642,478.3409,66.9806,488.2727,66.6676,498.2045,66.5248,508.1364,67.7253,518.0682,66.6713,528,67.25,527.3505,67.25,527.4298,77.2418,528.3453,87.2335,528.275,97.2253,528.2722,107.217,528.3306,117.2088,528.4841,127.2005,527.8292,137.1923,527.6674,147.184,528.6001,157.1758,527.2613,167.1675,528.2922,177.1593,527.3238,187.151,527.9797,197.1428,528.0495,207.1345,527.5485,217.1263,527.6806,227.1181,528.3579,237.1098,528.0068,247.1016,528.2734,257.0933,528.4595,267.0851,528.3817,277.0768,527.6854,287.0686,528.0216,297.0603,528.0758,307.0521,528.6248,317.0438,527.7009,327.0356,527.3309,337.0273,527.7912,347.0191,528.192,357.0109,527.9532,367.0026,528.6389,376.9944,527.7383,386.9861,528.3719,396.9779,528.0902,406.9696,528.6466,416.9614,528,426.9531,528,426.2655,518.0784,426.9627,508.1569,426.523,498.2353,427.6256,488.3137,426.9564,478.3922,426.6163,468.4706,426.7356,458.549,426.9881,448.6275,426.4661,438.7059,426.7751,428.7843,426.7183,418.8627,427.5191,408.9412,426.4383,399.0196,426.4655,389.098,427.5076,379.1765,427.4621,369.2549,426.3064,359.3333,427.442,349.4118,426.6489,339.4902,427.2307,329.5686,427.155,319.6471,427.3631,309.7255,427.3076,299.8039,426.3082,289.8824,427.0741,279.9608,426.8836,270.0392,427.2998,260.1176,426.4498,250.1961,427.2813,240.2745,427.4484,230.3529,427.696,220.4314,427.3075,210.5098,427.2765,200.5882,426.7641,190.6667,426.431,180.7451,426.6372,170.8235,426.4977,160.902,426.9337,150.9804,427.5925,141.0588,426.8618,131.1373,426.8416,121.2157,427.587,111.2941,427.2498,101.3725,426.9583,91.451,427.5201,81.5294,427.0058,71.6078,427.3259,61.6863,427.4096,51.7647,427.0303,41.8431,427.2428,31.9216,427.6166,22,426.9531,21.8566,426.9531,22.5714,416.9005,22.6082,406.8479,22.6501,396.7952,22.6894,386.7426,22.1299,376.69,22.222,366.6373,21.7614,356.5847,21.3049,346.5321,22.3513,336.4794,21.299,326.4268,22.1911,316.3742,22.2016,306.3215,22.3001,296.2689,22.5037,286.2163,22.2877,276.1637,22.3881,266.111,22.17,256.0584,21.9921,246.0058,21.8967,235.9531,22.3349,225.9005,21.5482,215.8479,22.7384,205.7952,22.3473,195.7426,21.8497,185.69,22.3971,175.6373,21.373,165.5847,22.0452,155.5321,22.6023,145.4794,21.7979,135.4268,21.3281,125.3742,22.3564,115.3215,21.5042,105.2689,22.6406,95.2163,21.5452,85.1637,22.6355,75.111,22.1998,65.0584,21.779,55.0058,22,44.9531" style="stroke: #000000; stroke-width: 2.0;"/><path d="M22,67.25 L22,66.949 L31.8571,67.7658 L41.7143,67.3232 L51.5714,66.8679 L61.4286,66.7228 L71.2857,66.7452 L81.1429,67.5741 L91,67.25 " fill="#FFFFFF" style="stroke: #000000; stroke-width: 2.0;"/><text fill="#000000" font-family="sans-serif" font-size="14" font-weight="bold" lengthAdjust="spacingAndGlyphs" textLength="56" x="26" y="59.9482">フォルダ</text><!--class フォルダ--><polygon fill="#FEFECE" filter="url(#f5f7vmn)" points="209,137.4531,209,137.5613,219,136.7552,229,137.9613,239,136.7657,249,137.35,259,137.246,269,137.3605,279,137.9391,289,137.4531,289.1274,137.4531,289.2415,145.4531,288.9364,153.4531,289.1288,161.4531,289.1963,169.4531,289,177.4531,289,177.9105,279,177.0506,269,177.8612,259,177.6379,249,177.0397,239,177.3579,229,177.9985,219,178.0034,209,177.4531,209.0573,177.4531,208.873,169.4531,209.2265,161.4531,209.1771,153.4531,209.0858,145.4531,209,137.4531" style="stroke: #A80036; stroke-width: 1.5;"/><polygon fill="#ADD1B2" points="234.6729,155.8358,234.0776,157.8709,231.7083,160.4554,230.2413,162.2222,228.1105,164.1028,224.7284,164.9072,221.2337,163.583,219.2861,163.1415,217.3227,161.9984,214.4217,159.5196,214.0161,156.8991,213.6732,154.3556,213.2874,152.3708,214.2569,149.9994,214.4387,147.0102,216.4964,145.3039,218.7238,144.0969,221.7971,143.0374,225.2127,143.1068,227.7594,143.3891,230.2993,144.3496,231.8477,145.9042,232.9957,148.1159,234.1342,150.3797,234.8864,152.8785,235.1964,156.1337" style="stroke: #A80036; stroke-width: 1.0;"/><path d="M226.9688,159.0938 Q226.3906,159.3906 225.75,159.5313 Q225.1094,159.6875 224.4063,159.6875 Q221.9063,159.6875 220.5781,158.0469 Q219.2656,156.3906 219.2656,153.2656 Q219.2656,150.1406 220.5781,148.4844 Q221.9063,146.8281 224.4063,146.8281 Q225.1094,146.8281 225.75,146.9844 Q226.4063,147.1406 226.9688,147.4375 L226.9688,150.1563 Q226.3438,149.5781 225.75,149.3125 Q225.1563,149.0313 224.5313,149.0313 Q223.1875,149.0313 222.5,150.1094 Q221.8125,151.1719 221.8125,153.2656 Q221.8125,155.3594 222.5,156.4375 Q223.1875,157.5 224.5313,157.5 Q225.1563,157.5 225.75,157.2344 Q226.3438,156.9531 226.9688,156.375 L226.9688,159.0938 Z "/><text fill="#000000" font-family="sans-serif" font-size="12" lengthAdjust="spacingAndGlyphs" textLength="48" x="238" y="157.6074">フォルダ</text><path d="M210,169.4531 L210,169.2125 L219.75,169.2526 L229.5,169.6801 L239.25,170.4449 L249,170.1615 L258.75,169.917 L268.5,168.6155 L278.25,169.4551 L288,169.4531 " fill="#FEFECE" style="stroke: #A80036; stroke-width: 1.5;"/><!--class コンテンツ--><polygon fill="#FEFECE" filter="url(#f5f7vmn)" points="324,79.9531,324,80.6686,334.2222,80.3725,344.4444,79.6237,354.6667,80.257,364.8889,80.1905,375.1111,80.5838,385.3333,79.2734,395.5556,79.6559,405.7778,79.7989,416,79.9531,416.1664,79.9531,415.4367,89.6558,416.2755,99.3584,416.4985,109.061,416.3243,118.7637,415.5385,128.4663,415.8554,138.1689,416.294,147.8716,416.6048,157.5742,416.696,167.2769,416.0103,176.9795,416.5307,186.6821,415.6781,196.3848,416.4809,206.0874,416.1516,215.79,415.6849,225.4927,416,235.1953,416,235.606,405.7778,235.537,395.5556,234.9699,385.3333,234.511,375.1111,235.3032,364.8889,235.8606,354.6667,234.4812,344.4444,234.7806,334.2222,235.8779,324,235.1953,323.6224,235.1953,324.6512,225.4927,323.7052,215.79,324.5905,206.0874,323.4389,196.3848,324.7081,186.6821,324.702,176.9795,323.583,167.2769,323.9749,157.5742,323.4192,147.8716,324.4302,138.1689,324.6158,128.4663,323.4474,118.7637,324.1109,109.061,324.7461,99.3584,324.1176,89.6558,324,79.9531" style="stroke: #A80036; stroke-width: 1.5;"/><polygon fill="#ADD1B2" points="349.6962,99.1194,348.297,101.3624,346.7325,103.9298,343.562,105.5169,340.2844,107.0389,337.5563,107.2065,334.3666,106.568,332.1688,104.3484,330.1933,103.5032,328.3869,100.6884,327.6587,97.9571,328.6032,94.2627,328.6909,91.0492,331.1967,89.1445,331.8276,86.9606,334.8555,86.2159,338.184,84.8157,340.7487,85.6746,344.1038,86.568,346.5034,87.6319,348.3951,90.5095,349.7205,92.343,349.8121,95.5407,350.33,97.8326" style="stroke: #A80036; stroke-width: 1.0;"/><path d="M341.9688,101.5938 Q341.3906,101.8906 340.75,102.0313 Q340.1094,102.1875 339.4063,102.1875 Q336.9063,102.1875 335.5781,100.5469 Q334.2656,98.8906 334.2656,95.7656 Q334.2656,92.6406 335.5781,90.9844 Q336.9063,89.3281 339.4063,89.3281 Q340.1094,89.3281 340.75,89.4844 Q341.4063,89.6406 341.9688,89.9375 L341.9688,92.6563 Q341.3438,92.0781 340.75,91.8125 Q340.1563,91.5313 339.5313,91.5313 Q338.1875,91.5313 337.5,92.6094 Q336.8125,93.6719 336.8125,95.7656 Q336.8125,97.8594 337.5,98.9375 Q338.1875,100 339.5313,100 Q340.1563,100 340.75,99.7344 Q341.3438,99.4531 341.9688,98.875 L341.9688,101.5938 Z "/><text fill="#000000" font-family="sans-serif" font-size="12" lengthAdjust="spacingAndGlyphs" textLength="60" x="353" y="100.1074">コンテンツ</text><path d="M325,111.9531 L325,111.6183 L335,111.3477 L345,112.8431 L355,111.8817 L365,112.23 L375,111.6299 L385,111.285 L395,112.3786 L405,110.9691 L415,111.9531 " fill="#FEFECE" style="stroke: #A80036; stroke-width: 1.5;"/><text fill="#000000" font-family="sans-serif" font-size="11" lengthAdjust="spacingAndGlyphs" textLength="21" x="330" y="126.1636">URL</text><text fill="#000000" font-family="sans-serif" font-size="11" lengthAdjust="spacingAndGlyphs" textLength="44" x="330" y="138.9683">タイトル</text><text fill="#000000" font-family="sans-serif" font-size="11" lengthAdjust="spacingAndGlyphs" textLength="77" x="330" y="151.7729">自身の公開状態</text><text fill="#000000" font-family="sans-serif" font-size="11" lengthAdjust="spacingAndGlyphs" textLength="77" x="330" y="164.5776">自身の公開期間</text><text fill="#000000" font-family="sans-serif" font-size="11" lengthAdjust="spacingAndGlyphs" textLength="44" x="330" y="177.3823">公開状態</text><text fill="#000000" font-family="sans-serif" font-size="11" lengthAdjust="spacingAndGlyphs" textLength="44" x="330" y="190.187">公開期間</text><text fill="#000000" font-family="sans-serif" font-size="11" lengthAdjust="spacingAndGlyphs" textLength="77" x="330" y="202.9917">親コンテンツID</text><text fill="#000000" font-family="sans-serif" font-size="11" lengthAdjust="spacingAndGlyphs" textLength="44" x="330" y="215.7964">作成者ID</text><text fill="#000000" font-family="sans-serif" font-size="11" lengthAdjust="spacingAndGlyphs" textLength="33" x="330" y="228.6011">実体ID</text><polygon fill="#FBFB77" filter="url(#f5f7vmn)" points="37.5,294.9531,37.6698,294.9531,36.8292,304.6139,37.711,314.2747,37.7479,323.9355,38.0496,333.5964,37.3827,343.2572,38.133,352.918,36.754,362.5788,37.3152,372.2396,37.1079,381.9004,36.9715,391.5612,37.3915,401.222,37.5,410.8828,37.5,411.1264,47.3958,410.8028,57.2917,410.9893,67.1875,411.1358,77.0833,410.4494,86.9792,411.4994,96.875,410.5394,106.7708,411.3861,116.6667,411.0729,126.5625,410.1558,136.4583,410.6612,146.3542,410.1421,156.25,410.3036,166.1458,411.3103,176.0417,410.8307,185.9375,410.2165,195.8333,411.4542,205.7292,411.2008,215.625,410.6249,225.5208,411.4165,235.4167,411.5081,245.3125,411.2293,255.2083,410.1799,265.1042,411.416,275,411.1626,284.8958,410.1859,294.7917,411.2451,304.6875,410.7417,314.5833,411.0379,324.4792,411.0849,334.375,411.5711,344.2708,410.1443,354.1667,411.1357,364.0625,411.2286,373.9583,411.2657,383.8542,411.5585,393.75,410.7514,403.6458,410.3398,413.5417,410.7272,423.4375,410.989,433.3333,410.4998,443.2292,410.2741,453.125,410.8196,463.0208,411.0008,472.9167,410.8909,482.8125,411.4557,492.7083,411.5812,502.6042,411.0305,512.5,410.8828,513.1177,410.8828,512.8729,401.2528,512.0909,391.6229,512.0989,381.9929,512.8369,372.3629,512.6859,362.733,513.0773,353.103,512.634,343.473,512.9423,333.843,511.9473,324.2131,512.1877,314.5831,512.5,304.9531,512.4342,304.8873,510.5775,303.0307,508.4465,300.8996,506.5406,298.9938,504.5832,297.0363,502.5,294.9531,502.5,295.1144,492.6064,295.2483,482.7128,294.3201,472.8191,295.3655,462.9255,294.9039,453.0319,294.5709,443.1383,294.9433,433.2447,295.3666,423.3511,295.596,413.4574,295.0621,403.5638,295.2309,393.6702,294.769,383.7766,295.656,373.883,294.4593,363.9894,295.0619,354.0957,294.231,344.2021,294.8726,334.3085,294.4638,324.4149,295.0691,314.5213,295.0295,304.6277,295.165,294.734,295.6618,284.8404,295.1397,274.9468,295.455,265.0532,295.0616,255.1596,294.2223,245.266,294.6994,235.3723,294.2611,225.4787,295.2414,215.5851,295.384,205.6915,294.2469,195.7979,295.2292,185.9043,295.0708,176.0106,295.2642,166.117,294.2469,156.2234,294.5902,146.3298,294.9447,136.4362,294.4929,126.5426,294.22,116.6489,294.9311,106.7553,294.4401,96.8617,295.5979,86.9681,295.1684,77.0745,294.3016,67.1809,295.3222,57.2872,295.4491,47.3936,294.8583,37.5,294.9531" style="stroke: #A80036; stroke-width: 1.0;"/><polygon fill="#FBFB77" points="37.5,294.9531,38.0748,294.9531,36.8462,304.6139,37.9403,314.2747,37.485,323.9355,37.2843,333.5964,38.1578,343.2572,38.0497,352.918,36.9598,362.5788,37.8376,372.2396,37.0914,381.9004,38.1364,391.5612,37.653,401.222,37.5,410.8828,37.5,411.1547,47.3958,410.7512,57.2917,410.7645,67.1875,410.8674,77.0833,411.3401,86.9792,410.8927,96.875,410.4502,106.7708,411.0468,116.6667,411.3629,126.5625,410.1717,136.4583,411.3781,146.3542,411.1311,156.25,411.1561,166.1458,411.5885,176.0417,411.6115,185.9375,410.8259,195.8333,411.613,205.7292,410.459,215.625,410.6755,225.5208,411.412,235.4167,410.3365,245.3125,410.6874,255.2083,410.3097,265.1042,410.2687,275,410.2938,284.8958,411.6091,294.7917,411.273,304.6875,410.6223,314.5833,410.9726,324.4792,410.4256,334.375,410.5646,344.2708,411.3939,354.1667,410.6573,364.0625,410.2213,373.9583,411.2384,383.8542,410.3353,393.75,410.6754,403.6458,410.8501,413.5417,410.7577,423.4375,410.5433,433.3333,411.3944,443.2292,410.5977,453.125,410.5561,463.0208,411.4116,472.9167,410.3867,482.8125,410.484,492.7083,410.1473,502.6042,411.1402,512.5,410.8828,512.1335,410.8828,511.9612,401.2528,512.3695,391.6229,512.6643,381.9929,512.3614,372.3629,512.0532,362.733,513.1103,353.103,512.2567,343.473,512.8104,333.843,512.3806,324.2131,512.8541,314.5831,512.5,304.9531,512.4547,304.9078,510.5185,302.9716,508.4231,300.8762,506.5654,299.0185,504.5111,296.9642,502.5,294.9531,502.5,294.393,492.7305,294.5283,482.961,295.6133,473.1915,294.4725,463.422,294.3809,453.6525,295.4407,443.883,295.2664,434.1135,295.1429,424.344,294.3021,414.5745,294.7502,404.805,294.3414,395.0355,295.4204,385.266,294.4953,375.4965,295.2084,365.727,295.0709,355.9575,295.4584,346.188,295.1062,336.4185,295.1684,326.649,294.7409,316.8795,294.3394,307.11,294.9531,306.5288,294.7079,311.4431,285.0502,315.4662,275.0166,319.8432,265.1322,324.3056,255.2839,327.5552,244.9239,332.32,235.2031,332.3465,235.2178,327.9632,243.9542,322.6071,252.1498,318.1758,260.8595,313.461,269.4116,308.4859,277.8191,304.2306,286.6265,299.11,294.9531,299.11,295.3152,289.0481,294.8115,278.9862,295.5373,268.9242,294.6167,258.8623,295.6433,248.8004,295.4402,238.7385,295.5017,228.6765,295.3437,218.6146,295.3769,208.5527,294.3684,198.4908,295.0109,188.4288,295.4419,178.3669,295.141,168.305,294.4812,158.2431,295.6097,148.1812,295.6479,138.1192,295.6489,128.0573,295.1412,117.9954,294.3928,107.9335,294.3425,97.8715,294.9331,87.8096,295.2417,77.7477,295.6109,67.6858,295.2701,57.6238,295.2952,47.5619,294.5727,37.5,294.9531" style="stroke: #A80036; stroke-width: 1.0;"/><path d="M502.5,294.9531 L502.3238,294.9531 L502.2856,296.9531 L502.1976,298.9531 L502.7364,300.9531 L502.6612,302.9531 L502.5,304.9531 " fill="#FBFB77" style="stroke: #A80036; stroke-width: 1.0;"/><path d="M512.5,304.9531 L512.5,304.7972 L510.5,304.8706 L508.5,305.2074 L506.5,304.8251 L504.5,304.7242 L502.5,304.9531 " fill="#FBFB77" style="stroke: #A80036; stroke-width: 1.0;"/><text fill="#000000" font-family="sans-serif" font-size="13" lengthAdjust="spacingAndGlyphs" textLength="234" x="43.5" y="312.02">・コンテンツは未公開状態で登録される</text><text fill="#000000" font-family="sans-serif" font-size="13" lengthAdjust="spacingAndGlyphs" textLength="351" x="43.5" y="327.1528">・親の公開状態と公開期間を公開状態と公開期間に設定する</text><text fill="#000000" font-family="sans-serif" font-size="13" lengthAdjust="spacingAndGlyphs" textLength="286" x="43.5" y="342.2856">・作成者IDにログイン中のユーザーIDを設定する</text><text fill="#000000" font-family="sans-serif" font-size="13" lengthAdjust="spacingAndGlyphs" textLength="258" x="43.5" y="357.4185">・タイトルは強制的に255文字でカットする</text><text fill="#000000" font-family="sans-serif" font-size="13" lengthAdjust="spacingAndGlyphs" textLength="270" x="43.5" y="372.5513">・タイトルを231文字でカットしてURLに設定</text><text fill="#000000" font-family="sans-serif" font-size="13" lengthAdjust="spacingAndGlyphs" textLength="257" x="43.5" y="387.6841">・URLをURLエンコードしてURLを生成する</text><text fill="#000000" font-family="sans-serif" font-size="13" lengthAdjust="spacingAndGlyphs" textLength="454" x="43.5" y="402.8169">・URLの重複チェックを行い重複している場合はユニークな文字列に変換する</text><!--class 親コンテンツ--><polygon fill="#FEFECE" filter="url(#f5f7vmn)" points="548,332.9531,548,333.646,558.4,333.3601,568.8,333.6684,579.2,333.1257,589.6,332.6277,600,332.4021,610.4,332.8762,620.8,332.3121,631.2,333.0941,641.6,333.1,652,332.9531,652.0008,332.9531,652.1633,340.9531,652.2209,348.9531,652.1352,356.9531,652.046,364.9531,652,372.9531,652,372.9713,641.6,372.4725,631.2,373.5096,620.8,372.5769,610.4,372.8207,600,372.7506,589.6,373.6597,579.2,373.685,568.8,372.2793,558.4,372.2486,548,372.9531,548.2197,372.9531,547.8934,364.9531,548.1885,356.9531,547.8092,348.9531,547.97,340.9531,548,332.9531" style="stroke: #A80036; stroke-width: 1.5;"/><polygon fill="#ADD1B2" points="573.5382,351.3264,573.0835,353.3575,571.9138,355.6263,569.2051,358.3801,566.8569,358.8686,564.113,359.2516,561.2447,360.0586,557.996,359.0454,556.3999,357.1697,553.8761,355.7629,552.9483,351.9941,552.6093,349.3412,552.1143,346.0507,554.1362,343.4157,555.8889,340.1659,558.6536,338.3725,560.7402,338.0004,562.7365,337.7017,566.3653,338.3053,568.9353,339.2005,570.856,340.6056,571.9638,343.0224,573.7069,344.5089,574.2139,347.591,574.4657,350.7834" style="stroke: #A80036; stroke-width: 1.0;"/><path d="M565.9688,354.5938 Q565.3906,354.8906 564.75,355.0313 Q564.1094,355.1875 563.4063,355.1875 Q560.9063,355.1875 559.5781,353.5469 Q558.2656,351.8906 558.2656,348.7656 Q558.2656,345.6406 559.5781,343.9844 Q560.9063,342.3281 563.4063,342.3281 Q564.1094,342.3281 564.75,342.4844 Q565.4063,342.6406 565.9688,342.9375 L565.9688,345.6563 Q565.3438,345.0781 564.75,344.8125 Q564.1563,344.5313 563.5313,344.5313 Q562.1875,344.5313 561.5,345.6094 Q560.8125,346.6719 560.8125,348.7656 Q560.8125,350.8594 561.5,351.9375 Q562.1875,353 563.5313,353 Q564.1563,353 564.75,352.7344 Q565.3438,352.4531 565.9688,351.875 L565.9688,354.5938 Z "/><text fill="#000000" font-family="sans-serif" font-size="12" lengthAdjust="spacingAndGlyphs" textLength="72" x="577" y="353.1074">親コンテンツ</text><path d="M549,364.9531 L549,363.978 L559.2,364.3271 L569.4,365.7217 L579.6,364.7298 L589.8,364.2946 L600,365.1377 L610.2,364.705 L620.4,364.3838 L630.6,365.8945 L640.8,364.1826 L651,364.9531 " fill="#FEFECE" style="stroke: #A80036; stroke-width: 1.5;"/><path d="M302.2,157.4531 L302.2,157.1237 L306.54,157.249 L310.88,157.5395 L315.22,157.5749 L319.56,157.214 L323.9,157.4531 " fill="none" style="stroke: #A80036; stroke-width: 1.0;"/><polygon fill="#A80036" points="289.18,157.4531,289.2177,157.5096,290.3034,158.1382,291.4603,158.8736,292.7231,159.7678,293.9646,160.63,295.18,161.4531,295.0469,161.2535,296.469,160.7867,297.6214,159.9152,298.7409,158.9944,300.0407,158.3441,301.18,157.4531,301.3157,157.6566,299.9031,156.5378,298.8521,155.9612,297.5987,155.0812,296.4107,154.2992,295.18,153.4531,295.2164,153.5077,293.9729,154.2425,292.7023,154.9366,291.5785,155.8509,290.2516,156.4606,289.18,157.4531" style="stroke: #A80036; stroke-width: 1.0;"/><path d="M416.27,197.3731 L416.5137,197.6628 L423.5197,203.3952 L431.0161,209.7105 L438.3408,215.8218 L445.7781,222.0667 L453.2487,228.3514 L461.4592,235.5156 L469.0672,241.9635 L476.5288,248.2374 L483.4628,253.8842 L490.6085,259.7827 L498.8017,266.9262 L505.4592,272.2444 L513.1045,278.7367 L520.3073,284.7031 L528.0996,291.37 L535.2352,297.2565 L543.9108,304.9734 L550.3048,309.9784 L557.6486,316.1123 L565.5426,322.9002 L573.18,329.3831 " fill="none" style="stroke: #A80036; stroke-width: 1.0;"/><polygon fill="#A80036" points="577.25,332.8131,577.4448,332.9077,576.315,331.0049,575.5168,329.2631,574.6744,327.4998,573.9475,325.7926,572.9484,323.9533,572.7661,323.9378,573.0536,325.0814,573.0209,326.1978,573.2526,327.3366,573.5496,328.481,573.4277,329.5898,573.415,329.4405,572.3055,329.7459,571.176,329.8157,570.0285,329.6748,568.9044,329.8075,567.7911,330.069,567.8415,330.2427,569.6887,330.6379,571.5222,330.9858,573.4872,331.7871,575.3341,332.1812,577.25,332.8131" style="stroke: #A80036; stroke-width: 1.0;"/><text fill="#000000" font-family="sans-serif" font-size="13" lengthAdjust="spacingAndGlyphs" textLength="23" x="424.0328" y="198.7891">0..*</text><text fill="#000000" font-family="sans-serif" font-size="13" lengthAdjust="spacingAndGlyphs" textLength="8" x="561.3922" y="321.7803">1</text></g></svg>