<?xml version="1.0" encoding="UTF-8" standalone="no"?><svg xmlns="http://www.w3.org/2000/svg" xmlns:xlink="http://www.w3.org/1999/xlink" contentScriptType="application/ecmascript" contentStyleType="text/css" height="452px" preserveAspectRatio="none" style="width:627px;height:452px;" version="1.1" viewBox="0 0 627 452" width="627px" zoomAndPan="magnify"><defs><filter height="300%" id="f980cxl" width="300%" x="-1" y="-1"><feGaussianBlur result="blurOut" stdDeviation="2.0"/><feColorMatrix in="blurOut" result="blurOut2" type="matrix" values="0 0 0 0 0 0 0 0 0 0 0 0 0 0 0 0 0 0 .4 0"/><feOffset dx="4.0" dy="4.0" in="blurOut2" result="blurOut3"/><feBlend in="SourceGraphic" in2="blurOut3" mode="normal"/></filter></defs><g><text fill="#000000" font-family="sans-serif" font-size="18" lengthAdjust="spacingAndGlyphs" textLength="252" x="201" y="17.4023">ドメインモデル図：固定ページ</text><!--cluster 固定ページ--><polygon fill="#FFFFFF" filter="url(#f980cxl)" points="22,45.1992,22,45.3188,31.5,45.8142,41,45.7007,50.5,45.0379,60,45.2845,69.5,44.4605,79,45.7977,88.5,45.821,98,45.1992,98.2107,45.2648,99.5842,49.7542,100.686,54.159,102.1977,58.6915,103.4272,63.136,105,67.6875,105,67.5578,114.9038,67.4663,124.8077,67.2958,134.7115,68.4202,144.6154,67.0346,154.5192,68.013,164.4231,67.5283,174.3269,68.1193,184.2308,68.2947,194.1346,67.4086,204.0385,68.009,213.9423,67.0471,223.8462,67.5096,233.75,68.4355,243.6538,67.7302,253.5577,67.0057,263.4615,67.2508,273.3654,67.4091,283.2692,67.555,293.1731,67.0327,303.0769,67.4184,312.9808,68.0368,322.8846,67.4677,332.7885,68.1485,342.6923,68.29,352.5962,67.7776,362.5,67.1436,372.4038,67.6573,382.3077,68.2702,392.2115,68.3084,402.1154,67.4288,412.0192,68.0787,421.9231,67.0089,431.8269,67.6182,441.7308,68.0985,451.6346,67.2093,461.5385,68.1485,471.4423,68.3037,481.3462,68.3058,491.25,67.1256,501.1538,67.5808,511.0577,68.34,520.9615,67.4433,530.8654,68.1449,540.7692,68.2168,550.6731,67.4329,560.5769,67.2118,570.4808,67.3534,580.3846,67.9234,590.2885,67.5377,600.1923,68.0334,610.0962,68.2974,620,67.6875,619.2509,67.6875,620.5599,77.622,619.864,87.5565,620.1192,97.4911,619.565,107.4256,620.3239,117.3601,620.6423,127.2946,620.0003,137.2291,620.4507,147.1637,619.3558,157.0982,620.3162,167.0327,619.9914,176.9672,619.527,186.9017,620.1307,196.8362,619.348,206.7708,619.9213,216.7053,619.4701,226.6398,620.0516,236.5743,620.2105,246.5088,620.4492,256.4434,619.721,266.3779,619.684,276.3124,620.2529,286.2469,620.594,296.1814,619.7928,306.116,619.4213,316.0505,619.7076,325.985,619.9777,335.9195,620.0533,345.854,620.0451,355.7885,619.2573,365.7231,620.3217,375.6576,619.6425,385.5921,619.3859,395.5266,619.8156,405.4611,620.2298,415.3957,619.4857,425.3302,620.674,435.2647,620,445.1992,620,444.8696,610.0333,445.3878,600.0667,445.3801,590.1,444.8949,580.1333,444.5995,570.1667,445.192,560.2,445.0694,550.2333,445.23,540.2667,444.7031,530.3,445.1774,520.3333,444.755,510.3667,445.6559,500.4,444.673,490.4333,444.7073,480.4667,445.8801,470.5,445.7462,460.5333,445.8064,450.5667,445.8088,440.6,444.8781,430.6333,445.2808,420.6667,445.868,410.7,444.7044,400.7333,445.2861,390.7667,444.808,380.8,445.813,370.8333,444.7146,360.8667,444.9318,350.9,444.5712,340.9333,445.6306,330.9667,445.1355,321,444.6253,311.0333,445.518,301.0667,445.4947,291.1,444.7106,281.1333,444.734,271.1667,444.7581,261.2,445.7907,251.2333,445.2225,241.2667,445.4721,231.3,445.6296,221.3333,445.2441,211.3667,445.5286,201.4,444.7119,191.4333,444.9584,181.4667,444.793,171.5,444.5514,161.5333,444.6119,151.5667,445.1706,141.6,444.5309,131.6333,445.3138,121.6667,445.3615,111.7,445.6268,101.7333,445.4964,91.7667,444.5782,81.8,445.3615,71.8333,445.3992,61.8667,445.8024,51.9,444.5092,41.9333,445.6959,31.9667,444.7073,22,445.1992,21.376,445.1992,21.8295,435.1992,21.6021,425.1992,22.6593,415.1992,22.7262,405.1992,22.476,395.1992,22.6087,385.1992,22.616,375.1992,22.4811,365.1992,22.6083,355.1992,21.4078,345.1992,22.7257,335.1992,22.6886,325.1992,22.2214,315.1992,21.6009,305.1992,21.7053,295.1992,21.9449,285.1992,21.9499,275.1992,22.5976,265.1992,21.6658,255.1992,21.4086,245.1992,22.5417,235.1992,21.2595,225.1992,22.3019,215.1992,21.9369,205.1992,22.1764,195.1992,22.6332,185.1992,21.3462,175.1992,22.1211,165.1992,22.4908,155.1992,21.4738,145.1992,22.5067,135.1992,22.1047,125.1992,22.5451,115.1992,22.4398,105.1992,21.8632,95.1992,22.4373,85.1992,22.734,75.1992,21.5289,65.1992,21.5996,55.1992,22,45.1992" style="stroke: #000000; stroke-width: 2.0;"/><path d="M22,67.6875 L22,66.8307 L32.375,67.4205 L42.75,67.7333 L53.125,68.3341 L63.5,67.4176 L73.875,68.5615 L84.25,67.0517 L94.625,67.2872 L105,67.6875 " fill="#FFFFFF" style="stroke: #000000; stroke-width: 2.0;"/><text fill="#000000" font-family="sans-serif" font-size="14" font-weight="bold" lengthAdjust="spacingAndGlyphs" textLength="70" x="26" y="60.7344">固定ページ</text><!--class 固定ページ--><polygon fill="#FEFECE" filter="url(#f980cxl)" points="221,112.6992,221,112.7742,231,113.3595,241,112.7755,251,112.623,261,113.3641,271,113.0203,281,112.9861,291,112.7598,301,113.3517,311,113.312,321,111.9793,331,112.7803,341,113.1266,351,112.4169,361,112.5048,371,113.4052,381,112.1101,391,112.1864,401,112.4542,411,113.2321,421,112.6992,421.6079,112.6992,420.32,122.9015,421.2727,133.1037,421.2384,143.306,420.5343,153.5082,420.9309,163.7105,421.4604,173.9128,421.6476,184.115,420.5993,194.3173,421,204.5195,421,204.1774,411,205.0459,401,203.7909,391,204.3354,381,205.0386,371,205.1109,361,204.8743,351,203.792,341,204.7022,331,205.2638,321,204.0888,311,205.1401,301,204.8783,291,204.3543,281,205.2258,271,204.4473,261,204.8763,251,203.9208,241,205.1173,231,204.6176,221,204.5195,221.6759,204.5195,221.059,194.3173,221.4989,184.115,220.6843,173.9128,220.5155,163.7105,220.6144,153.5082,220.3156,143.306,221.3049,133.1037,221.4951,122.9015,221,112.6992" style="stroke: #A80036; stroke-width: 1.5;"/><polygon fill="#ADD1B2" points="297.6904,130.7882,296.3567,132.6351,295.0924,135.6377,293.8284,137.5346,291.2603,138.4903,288.9668,138.9285,286.6293,139.8588,283.2072,139.6135,281.7516,137.794,279.0515,135.9826,277.1532,134.9933,276.2488,131.2094,275.5153,129.0325,275.3024,126.7808,276.0958,124.1309,277.8387,121.7184,279.4478,119.7169,282.4651,118.1621,285.4786,118.2778,288.3644,118.0947,291.6882,118.8842,293.5986,120.3868,296.2626,122.6524,296.6783,125.1938,297.6369,128.6562,297.7459,131.018" style="stroke: #A80036; stroke-width: 1.0;"/><path d="M289.2231,134.8423 Q288.6421,135.1411 288.0029,135.2905 Q287.3638,135.4399 286.6582,135.4399 Q284.1514,135.4399 282.8315,133.7881 Q281.5117,132.1362 281.5117,129.0151 Q281.5117,125.8857 282.8315,124.2339 Q284.1514,122.582 286.6582,122.582 Q287.3638,122.582 288.0112,122.7314 Q288.6587,122.8809 289.2231,123.1797 L289.2231,125.9023 Q288.5923,125.3213 287.9988,125.0515 Q287.4053,124.7817 286.7744,124.7817 Q285.4297,124.7817 284.7449,125.8484 Q284.0601,126.915 284.0601,129.0151 Q284.0601,131.1069 284.7449,132.1736 Q285.4297,133.2402 286.7744,133.2402 Q287.4053,133.2402 287.9988,132.9705 Q288.5923,132.7007 289.2231,132.1196 Z "/><text fill="#000000" font-family="sans-serif" font-size="12" lengthAdjust="spacingAndGlyphs" textLength="60" x="307.25" y="133.2344">固定ページ</text><path d="M222,144.6992 L222,145.6596 L231.9,145.6789 L241.8,145.0874 L251.7,144.5942 L261.6,145.1795 L271.5,143.925 L281.4,143.938 L291.3,144.236 L301.2,145.6618 L311.1,144.5975 L321,143.7561 L330.9,144.5002 L340.8,144.7378 L350.7,144.988 L360.6,144.0397 L370.5,144.5363 L380.4,144.4375 L390.3,143.8538 L400.2,144.8051 L410.1,144.6918 L420,144.6992 " fill="#FEFECE" style="stroke: #A80036; stroke-width: 1.5;"/><text fill="#000000" font-family="sans-serif" font-size="11" lengthAdjust="spacingAndGlyphs" textLength="44" x="227" y="159.334">本稿記事</text><text fill="#000000" font-family="sans-serif" font-size="11" lengthAdjust="spacingAndGlyphs" textLength="44" x="227" y="172.2891">草稿記事</text><text fill="#000000" font-family="sans-serif" font-size="11" lengthAdjust="spacingAndGlyphs" textLength="121" x="227" y="185.2441">固定ページテンプレート</text><text fill="#000000" font-family="sans-serif" font-size="11" lengthAdjust="spacingAndGlyphs" textLength="188" x="227" y="198.1992">埋め込みコード ※ baserCMS５で廃止</text><polygon fill="#FBFB77" filter="url(#f980cxl)" points="38.5,297.1992,38.9071,297.1992,37.8691,307.3903,38.611,317.5814,38.8745,327.7725,37.9924,337.9636,38.3287,348.1547,38.1948,358.3459,38.1418,368.537,39.0277,378.7281,38.9691,388.9192,37.7592,399.1103,38.994,409.3014,38.33,419.4925,38.5,429.6836,38.5,429.9149,48.4123,429.9411,58.3246,429.1674,68.2368,429.0359,78.1491,430.2508,88.0614,429.327,97.9737,429.5988,107.886,428.9662,117.7982,430.2615,127.7105,429.0083,137.6228,429.2797,147.5351,429.5319,157.4474,429.49,167.3596,428.9984,177.2719,430.0442,187.1842,430.2474,197.0965,429.9812,207.0088,429.7791,216.9211,429.0211,226.8333,429.711,236.7456,429.1718,246.6579,429.9477,256.5702,429.0768,266.4825,429.4323,276.3947,429.7552,286.307,430.0462,296.2193,429.7094,306.1316,429.5692,316.0439,429.8963,325.9561,430.0598,335.8684,429.9005,345.7807,429.8641,355.693,429.537,365.6053,429.4289,375.5175,430.0601,385.4298,429.9921,395.3421,429.0439,405.2544,429.5397,415.1667,429.2154,425.0789,428.9809,434.9912,430.0943,444.9035,429.5462,454.8158,429.4998,464.7281,429.3152,474.6404,429.992,484.5526,430.0287,494.4649,430.2983,504.3772,429.3135,514.2895,430.0289,524.2018,429.9126,534.114,430.09,544.0263,430.3544,553.9386,430.0832,563.8509,429.7565,573.7632,429.1107,583.6754,430.0323,593.5877,429.3545,603.5,429.6836,603.2815,429.6836,604.2407,419.4766,603.661,409.2695,602.8046,399.0625,603.5181,388.8555,604.172,378.6484,603.8612,368.4414,603.1528,358.2344,603.5706,348.0273,603.799,337.8203,603.1685,327.6133,603.5474,317.4063,603.5,307.1992,603.4222,307.1214,601.5824,305.2816,599.5203,303.2195,597.5569,301.2561,595.4469,299.1462,593.5,297.1992,593.5,296.572,583.5893,297.3659,573.6786,297.2838,563.7679,296.8138,553.8571,297.1843,543.9464,297.8583,534.0357,297.7525,524.125,297.0191,514.2143,297.495,504.3036,297.7871,494.3929,296.6574,484.4821,296.4897,474.5714,297.5277,464.6607,297.6407,454.75,297.1783,444.8393,297.7111,434.9286,297.5418,425.0179,296.4926,415.1071,297.3612,405.1964,297.5826,395.2857,297.1475,385.375,297.5405,375.4643,297.3256,365.5536,297.418,355.6429,296.4803,345.7321,297.2229,335.8214,297.6902,325.9107,297.6565,316,296.9693,306.0893,297.7657,296.1786,297.1236,286.2679,297.4552,276.3571,297.8889,266.4464,296.7191,256.5357,296.9655,246.625,297.2403,236.7143,297.9313,226.8036,296.7666,216.8929,297.0463,206.9821,296.46,197.0714,296.4757,187.1607,296.8295,177.25,297.1506,167.3393,296.7177,157.4286,296.5572,147.5179,296.7414,137.6071,296.5341,127.6964,297.6636,117.7857,297.2604,107.875,296.5402,97.9643,296.5044,88.0536,296.4882,78.1429,297.8687,68.2321,297.2085,58.3214,296.8187,48.4107,296.5915,38.5,297.1992" style="stroke: #A80036; stroke-width: 1.0;"/><polygon fill="#FBFB77" points="38.5,297.1992,37.9058,297.1992,38.2963,307.3903,38.3363,317.5814,38.2991,327.7725,38.4881,337.9636,38.0726,348.1547,38.2816,358.3459,38.6548,368.537,38.5064,378.7281,37.9973,388.9192,38.9538,399.1103,39.1611,409.3014,38.8007,419.4925,38.5,429.6836,38.5,429.8156,48.4123,430.1823,58.3246,429.7905,68.2368,429.2646,78.1491,429.6765,88.0614,429.5139,97.9737,430.3912,107.886,429.1692,117.7982,429.5995,127.7105,429.2431,137.6228,428.9733,147.5351,430.2998,157.4474,429.688,167.3596,429.3044,177.2719,430.1352,187.1842,429.5094,197.0965,430.021,207.0088,430.0371,216.9211,430.3662,226.8333,429.3417,236.7456,430.2294,246.6579,429.4878,256.5702,430.2309,266.4825,430.0392,276.3947,429.9856,286.307,429.8471,296.2193,429.6119,306.1316,429.4422,316.0439,429.4146,325.9561,429.7251,335.8684,429.6569,345.7807,429.3995,355.693,430.4014,365.6053,429.4008,375.5175,429.9943,385.4298,428.9982,395.3421,430.2653,405.2544,429.2491,415.1667,429.9668,425.0789,429.0007,434.9912,429.2693,444.9035,429.7616,454.8158,429.5795,464.7281,429.8435,474.6404,428.9589,484.5526,429.4317,494.4649,429.0783,504.3772,430.4156,514.2895,429.3551,524.2018,430.2626,534.114,429.0517,544.0263,429.0809,553.9386,430.0815,563.8509,429.2938,573.7632,429.6968,583.6754,429.5535,593.5877,429.0703,603.5,429.6836,604.1317,429.6836,604.2206,419.4766,603.0817,409.2695,603.8909,399.0625,603.167,388.8555,603.9088,378.6484,603.1028,368.4414,603.6298,358.2344,603.8639,348.0273,603.0818,337.8203,602.9906,327.6133,603.5063,317.4063,603.5,307.1992,603.648,307.3472,601.3575,305.0567,599.6521,303.3513,597.492,301.1912,595.657,299.3562,593.5,297.1992,593.5,297.7878,583.5556,296.5426,573.6111,296.91,563.6667,296.7912,553.7222,297.6795,543.7778,297.8089,533.8333,297.3442,523.8889,297.0523,513.9444,296.5353,504,297.155,494.0556,297.7999,484.1111,296.7065,474.1667,296.9791,464.2222,296.4875,454.2778,296.7872,444.3333,297.4682,434.3889,297.2649,424.4444,297.6397,414.5,297.22,404.5556,296.4854,394.6111,297.6237,384.6667,297.5305,374.7222,297.2893,364.7778,297.4918,354.8333,297.0712,344.8889,297.3902,334.9444,297.8973,325,297.1992,325.5944,297.225,324.3509,286.9337,324.7364,276.713,323.2874,266.4128,322.5447,256.1432,323.115,245.9305,322.3421,235.6596,321.2213,225.3736,320.9043,215.1225,321,204.8892,321.5647,204.9137,320.8501,215.1586,320.3299,225.412,319.1098,235.6351,319.8516,245.9432,318.6397,256.1666,318.0377,266.4164,317.3444,276.6623,317.5852,286.9487,317,297.1992,317,297.0651,307.0536,296.8174,297.1071,297.8118,287.1607,297.9161,277.2143,296.583,267.2679,297.6993,257.3214,297.5722,247.375,296.9222,237.4286,297.4857,227.4821,297.0389,217.5357,296.5143,207.5893,296.6839,197.6429,296.5516,187.6964,297.8513,177.75,297.0807,167.8036,297.5334,157.8571,297.2792,147.9107,296.8453,137.9643,297.4611,128.0179,297.8672,118.0714,297.7054,108.125,297.3468,98.1786,297.5213,88.2321,296.4827,78.2857,297.2693,68.3393,297.5459,58.3929,296.5511,48.4464,297.3215,38.5,297.1992" style="stroke: #A80036; stroke-width: 1.0;"/><path d="M593.5,297.1992 L593.5834,297.1992 L593.218,299.1992 L593.6833,301.1992 L593.5723,303.1992 L593.5979,305.1992 L593.5,307.1992 " fill="#FBFB77" style="stroke: #A80036; stroke-width: 1.0;"/><path d="M603.5,307.1992 L603.5,307.2374 L601.5,307.5166 L599.5,307.0214 L597.5,307.3873 L595.5,307.0348 L593.5,307.1992 " fill="#FBFB77" style="stroke: #A80036; stroke-width: 1.0;"/><text fill="#000000" font-family="sans-serif" font-size="13" lengthAdjust="spacingAndGlyphs" textLength="494" x="44.5" y="314.7676">・記事ではシンタックスエラーチェックを行うかどうかを設定ファイルで設定できる</text><text fill="#000000" font-family="sans-serif" font-size="13" lengthAdjust="spacingAndGlyphs" textLength="155" x="76.5" y="330.0781">（validSyntaxWithPage）</text><text fill="#000000" font-family="sans-serif" font-size="13" lengthAdjust="spacingAndGlyphs" textLength="544" x="44.5" y="345.3887">・記事ではPHPコードの埋め込みを管理者以外もできるかどうかを設定ファイルで設定できる</text><text fill="#000000" font-family="sans-serif" font-size="13" lengthAdjust="spacingAndGlyphs" textLength="211" x="76.5" y="360.6992">（allowedPhpOtherThanAdmins）</text><text fill="#000000" font-family="sans-serif" font-size="13" lengthAdjust="spacingAndGlyphs" textLength="345" x="76.5" y="376.0098">※ baserCMS５で廃止、PHPコードは埋め込む事はできない</text><text fill="#000000" font-family="sans-serif" font-size="13" lengthAdjust="spacingAndGlyphs" textLength="429" x="44.5" y="391.3203">・固定ページのテンプレートは設定しない場合、親フォルダの設定に従う</text><text fill="#000000" font-family="sans-serif" font-size="13" lengthAdjust="spacingAndGlyphs" textLength="312" x="44.5" y="406.6309">・埋め込みコードはシステム管理者しか設定できない</text><text fill="#000000" font-family="sans-serif" font-size="13" lengthAdjust="spacingAndGlyphs" textLength="373" x="76.5" y="421.9414">※ baserCMS５で廃止、埋め込みコードは埋め込む事はできない</text><!--class コンテンツ--><polygon fill="#FEFECE" filter="url(#f980cxl)" points="456,80.1992,456,80.9431,466.2222,79.7955,476.4444,79.9626,486.6667,79.5654,496.8889,79.9906,507.1111,80.5097,517.3333,80.3755,527.5556,79.9947,537.7778,80.7948,548,80.1992,548.5908,80.1992,547.4188,89.9865,547.6811,99.7737,548.5433,109.5609,547.6759,119.3481,547.6354,129.1354,547.8043,138.9226,548.7037,148.7098,547.9528,158.4971,547.6229,168.2843,547.2625,178.0715,547.4754,187.8588,547.3113,197.646,548.5233,207.4332,547.28,217.2205,547.2568,227.0077,548,236.7949,548,237.1679,537.7778,237.1147,527.5556,236.862,517.3333,236.1178,507.1111,237.1866,496.8889,236.3335,486.6667,236.64,476.4444,236.3025,466.2222,236.6904,456,236.7949,455.9871,236.7949,455.2551,227.0077,455.3451,217.2205,455.6863,207.4332,456.1651,197.646,455.9797,187.8588,456.5197,178.0715,455.6202,168.2843,456.1958,158.4971,455.5381,148.7098,456.3102,138.9226,456.67,129.1354,456.2128,119.3481,455.3591,109.5609,456.6919,99.7737,455.6061,89.9865,456,80.1992" style="stroke: #A80036; stroke-width: 1.5;"/><polygon fill="#ADD1B2" points="481.4467,98.1953,481.3176,100.6449,479.5117,102.046,477.6432,104.2974,476.5267,106.4449,473.1177,106.784,469.4162,107.0387,466.8553,106.265,464.6764,105.0119,462.1703,102.9412,460.5997,99.4944,460.329,96.9497,460.5567,94.5283,460.1554,92.3258,461.9015,90.3135,463.8329,87.4341,466.5034,86.0777,468.3315,85.1153,471.4568,84.5579,474.6681,86.0995,476.5574,86.7159,478.3299,88.0125,479.3039,89.8234,481.1718,92.4147,481.4281,94.3204,481.3335,96.8662" style="stroke: #A80036; stroke-width: 1.0;"/><path d="M473.4731,102.3423 Q472.8921,102.6411 472.2529,102.7905 Q471.6138,102.9399 470.9082,102.9399 Q468.4014,102.9399 467.0815,101.2881 Q465.7617,99.6362 465.7617,96.5151 Q465.7617,93.3857 467.0815,91.7339 Q468.4014,90.082 470.9082,90.082 Q471.6138,90.082 472.2612,90.2314 Q472.9087,90.3809 473.4731,90.6797 L473.4731,93.4023 Q472.8423,92.8213 472.2488,92.5515 Q471.6553,92.2817 471.0244,92.2817 Q469.6797,92.2817 468.9949,93.3484 Q468.3101,94.415 468.3101,96.5151 Q468.3101,98.6069 468.9949,99.6736 Q469.6797,100.7402 471.0244,100.7402 Q471.6553,100.7402 472.2488,100.4705 Q472.8423,100.2007 473.4731,99.6196 Z "/><text fill="#000000" font-family="sans-serif" font-size="12" lengthAdjust="spacingAndGlyphs" textLength="60" x="485" y="100.7344">コンテンツ</text><path d="M457,112.1992 L457,112.518 L467,111.9725 L477,111.2122 L487,112.1743 L497,113.095 L507,112.2199 L517,111.7538 L527,111.7127 L537,112.6499 L547,112.1992 " fill="#FEFECE" style="stroke: #A80036; stroke-width: 1.5;"/><text fill="#000000" font-family="sans-serif" font-size="11" lengthAdjust="spacingAndGlyphs" textLength="21" x="462" y="126.834">URL</text><text fill="#000000" font-family="sans-serif" font-size="11" lengthAdjust="spacingAndGlyphs" textLength="44" x="462" y="139.7891">タイトル</text><text fill="#000000" font-family="sans-serif" font-size="11" lengthAdjust="spacingAndGlyphs" textLength="77" x="462" y="152.7441">自身の公開状態</text><text fill="#000000" font-family="sans-serif" font-size="11" lengthAdjust="spacingAndGlyphs" textLength="77" x="462" y="165.6992">自身の公開期間</text><text fill="#000000" font-family="sans-serif" font-size="11" lengthAdjust="spacingAndGlyphs" textLength="44" x="462" y="178.6543">公開状態</text><text fill="#000000" font-family="sans-serif" font-size="11" lengthAdjust="spacingAndGlyphs" textLength="44" x="462" y="191.6094">公開期間</text><text fill="#000000" font-family="sans-serif" font-size="11" lengthAdjust="spacingAndGlyphs" textLength="77" x="462" y="204.5645">親コンテンツID</text><text fill="#000000" font-family="sans-serif" font-size="11" lengthAdjust="spacingAndGlyphs" textLength="44" x="462" y="217.5195">作成者ID</text><text fill="#000000" font-family="sans-serif" font-size="11" lengthAdjust="spacingAndGlyphs" textLength="33" x="462" y="230.4746">実体ID</text><path d="M434.09,158.6992 L434.09,158.9053 L438.438,158.9691 L442.786,158.5387 L447.134,158.9184 L451.482,158.6504 L455.83,158.6992 " fill="none" style="stroke: #A80036; stroke-width: 1.0;"/><polygon fill="#A80036" points="421.04,158.6992,421.0662,158.7386,422.2731,159.5489,423.4733,160.3492,424.5634,160.9843,425.8301,161.8843,427.04,162.6992,427.0909,162.7756,428.1101,161.7043,429.3189,160.9176,430.6444,160.3058,431.7307,159.3353,433.04,158.6992,433.0843,158.7657,431.8929,157.9786,430.6534,157.1193,429.5501,156.4644,428.2883,155.5717,427.04,154.6992,426.9139,154.5101,425.7813,155.4112,424.7771,156.5048,423.3297,156.9337,422.241,157.9007,421.04,158.6992" style="stroke: #A80036; stroke-width: 1.0;"/></g></svg>