<?xml version="1.0" encoding="UTF-8" standalone="no"?><svg xmlns="http://www.w3.org/2000/svg" xmlns:xlink="http://www.w3.org/1999/xlink" contentScriptType="application/ecmascript" contentStyleType="text/css" height="436px" preserveAspectRatio="none" style="width:780px;height:436px;" version="1.1" viewBox="0 0 780 436" width="780px" zoomAndPan="magnify"><defs><filter height="300%" id="f8jd1h6" width="300%" x="-1" y="-1"><feGaussianBlur result="blurOut" stdDeviation="2.0"/><feColorMatrix in="blurOut" result="blurOut2" type="matrix" values="0 0 0 0 0 0 0 0 0 0 0 0 0 0 0 0 0 0 .4 0"/><feOffset dx="4.0" dy="4.0" in="blurOut2" result="blurOut3"/><feBlend in="SourceGraphic" in2="blurOut3" mode="normal"/></filter></defs><g><text fill="#000000" font-family="sans-serif" font-size="18" lengthAdjust="spacingAndGlyphs" textLength="306" x="241.5" y="17.4023">ドメインモデル図：ユーザーグループ</text><!--cluster ユーザーグループ--><polygon fill="#FFFFFF" filter="url(#f8jd1h6)" points="22,94.1992,22,93.9872,31.8333,94.7367,41.6667,94.3818,51.5,93.6261,61.3333,94.8661,71.1667,93.9552,81,93.7062,90.8333,93.4876,100.6667,94.0918,110.5,94.7418,120.3333,93.763,130.1667,93.9088,140,94.1992,140.0322,94.2093,141.2265,98.6429,142.7851,103.1899,144.2795,107.7169,145.3985,112.1271,147,116.6875,147,117.2749,156.9057,116.0441,166.8113,117.0245,176.717,116.2369,186.6226,117.0031,196.5283,116.9064,206.434,116.5569,216.3396,116.5531,226.2453,116.8785,236.1509,117.2514,246.0566,116.2212,255.9623,117.4141,265.8679,117.0141,275.7736,116.5695,285.6792,117.2511,295.5849,117.4192,305.4906,116.9031,315.3962,116.9805,325.3019,116.928,335.2075,116.1947,345.1132,116.7907,355.0189,117.3367,364.9245,117.0334,374.8302,116.0201,384.7358,115.9743,394.6415,116.5974,404.5472,116.1904,414.4528,116.3885,424.3585,116.2444,434.2642,117.1751,444.1698,116.097,454.0755,116.3067,463.9811,117.0888,473.8868,116.5299,483.7925,117.0404,493.6981,116.2537,503.6038,116.7738,513.5094,117.0582,523.4151,116.8011,533.3208,117.2788,543.2264,116.9858,553.1321,117.3076,563.0377,116.5982,572.9434,117.2413,582.8491,116.3637,592.7547,116.2273,602.6604,117.1029,612.566,117.1631,622.4717,116.4756,632.3774,116.0504,642.283,116.7495,652.1887,117.0898,662.0943,116.1001,672,116.6875,671.8054,116.6875,671.9119,126.7685,671.548,136.8495,671.3625,146.9306,672.5576,157.0116,671.6883,167.0926,671.8264,177.1736,672.5506,187.2547,672.039,197.3357,671.7835,207.4167,672.6567,217.4977,671.5343,227.5788,671.5842,237.6598,672.5531,247.7408,672.6696,257.8218,671.3921,267.9028,672.6308,277.9839,672.0566,288.0649,672.1272,298.1459,671.476,308.2269,672.5804,318.308,672.074,328.389,672.0146,338.47,672.3612,348.551,671.8145,358.6321,672.2231,368.7131,672.3576,378.7941,672.658,388.8751,671.3567,398.9561,671.3338,409.0372,671.3698,419.1182,672,429.1992,672,428.9842,662,428.5819,652,429.0856,642,429.2327,632,428.5049,622,428.9005,612,429.5065,602,428.8768,592,429.7138,582,428.6445,572,429.4213,562,429.2199,552,429.8243,542,429.7345,532,429.6098,522,429.7115,512,429.3466,502,429.7045,492,429.8703,482,428.8167,472,429.567,462,429.7076,452,428.7977,442,429.6615,432,429.4337,422,428.4513,412,429.1047,402,428.671,392,429.6318,382,429.4467,372,429.564,362,429.0151,352,428.6817,342,429.2979,332,429.9325,322,429.2951,312,429.5264,302,429.2935,292,429.3236,282,429.4934,272,428.7852,262,428.8116,252,429.4321,242,428.7346,232,429.6347,222,428.9966,212,429.7784,202,429.9003,192,428.6482,182,428.8134,172,429.2326,162,428.5728,152,429.364,142,429.4445,132,428.9977,122,429.683,112,428.88,102,428.5473,92,428.4818,82,428.5771,72,429.867,62,428.6522,52,429.0642,42,429.5225,32,429.0754,22,429.1992,22.7455,429.1992,21.9666,419.3463,21.7206,409.4933,22.4644,399.6404,22.1412,389.7875,21.5671,379.9345,22.4993,370.0816,21.3141,360.2286,22.4342,350.3757,21.8746,340.5227,21.3298,330.6698,22.4077,320.8169,21.3696,310.9639,21.7394,301.111,22.3977,291.258,21.3355,281.4051,22.2688,271.5522,22.6233,261.6992,21.5522,251.8463,21.5691,241.9933,21.3138,232.1404,22.4808,222.2875,22.6557,212.4345,21.2837,202.5816,22.2812,192.7286,21.2813,182.8757,21.4358,173.0227,22.7374,163.1698,21.897,153.3169,22.6034,143.4639,22.0639,133.611,22.0189,123.758,22.5788,113.9051,21.2624,104.0522,22,94.1992" style="stroke: #000000; stroke-width: 2.0;"/><path d="M22,116.6875 L22,116.7699 L31.6154,117.1627 L41.2308,116.1752 L50.8462,117.0754 L60.4615,116.6456 L70.0769,116.874 L79.6923,115.8054 L89.3077,115.7212 L98.9231,117.3334 L108.5385,117.1492 L118.1538,117.3834 L127.7692,116.7806 L137.3846,116.7454 L147,116.6875 " fill="#FFFFFF" style="stroke: #000000; stroke-width: 2.0;"/><text fill="#000000" font-family="sans-serif" font-size="14" font-weight="bold" lengthAdjust="spacingAndGlyphs" textLength="112" x="26" y="109.7344">ユーザーグループ</text><!--class ユーザーグループ--><polygon fill="#FEFECE" filter="url(#f8jd1h6)" points="294,129.1992,294,128.8727,303.8571,129.8722,313.7143,128.9469,323.5714,129.658,333.4286,128.5816,343.2857,128.6481,353.1429,128.5212,363,129.625,372.8571,129.3166,382.7143,128.4698,392.5714,128.9654,402.4286,128.4641,412.2857,129.5277,422.1429,128.8944,432,129.3913,441.8571,128.5353,451.7143,129.0425,461.5714,129.0314,471.4286,129.8954,481.2857,129.7574,491.1429,128.8447,501,129.7018,510.8571,129.0683,520.7143,129.6227,530.5714,129.1985,540.4286,129.1557,550.2857,128.4739,560.1429,129.0029,570,129.1992,570.7251,129.1992,569.2933,139.4015,570.3433,149.6037,570.2093,159.806,569.6672,170.0082,569.7497,180.2105,570.5906,190.4128,569.4756,200.615,569.7188,210.8173,570,221.0195,570,220.2713,560.1429,220.8903,550.2857,221.6388,540.4286,221.6818,530.5714,221.5787,520.7143,221.0141,510.8571,220.3483,501,221.0796,491.1429,220.4853,481.2857,221.5146,471.4286,220.7467,461.5714,221.0035,451.7143,220.8758,441.8571,220.6233,432,221.1934,422.1429,221.5219,412.2857,220.9841,402.4286,220.6271,392.5714,221.4702,382.7143,221.0726,372.8571,220.4391,363,221.2124,353.1429,221.7322,343.2857,221.1395,333.4286,220.6352,323.5714,221.6676,313.7143,221.0907,303.8571,221.5133,294,221.0195,294.0932,221.0195,294.3867,210.8173,293.615,200.615,294.3436,190.4128,294.47,180.2105,293.6755,170.0082,293.5701,159.806,293.3474,149.6037,293.5213,139.4015,294,129.1992" style="stroke: #A80036; stroke-width: 1.5;"/><polygon fill="#ADD1B2" points="390.7545,147.8786,389.3198,150.109,388.4547,152.7885,385.6506,154.6098,382.5042,156.0722,379.9642,156.715,377.1817,155.4747,373.5532,155.0779,371.7443,153.0355,370.4775,150.0928,369.2804,148.5436,368.8078,145.7996,368.558,143.8153,369.6281,141.9484,369.6525,139.5493,371.7411,136.8714,374.5178,135.1257,376.4484,134.3747,379.0105,134.2361,381.2157,133.7551,384.0325,134.636,386.1804,136.0898,388.2415,137.7556,390.3848,141.0567,390.8667,144.6916,390.806,147.31" style="stroke: #A80036; stroke-width: 1.0;"/><path d="M382.2231,151.3423 Q381.6421,151.6411 381.0029,151.7905 Q380.3638,151.9399 379.6582,151.9399 Q377.1514,151.9399 375.8315,150.2881 Q374.5117,148.6362 374.5117,145.5151 Q374.5117,142.3857 375.8315,140.7339 Q377.1514,139.082 379.6582,139.082 Q380.3638,139.082 381.0112,139.2314 Q381.6587,139.3809 382.2231,139.6797 L382.2231,142.4023 Q381.5923,141.8213 380.9988,141.5515 Q380.4053,141.2817 379.7744,141.2817 Q378.4297,141.2817 377.7449,142.3484 Q377.0601,143.415 377.0601,145.5151 Q377.0601,147.6069 377.7449,148.6736 Q378.4297,149.7402 379.7744,149.7402 Q380.4053,149.7402 380.9988,149.4705 Q381.5923,149.2007 382.2231,148.6196 Z "/><text fill="#000000" font-family="sans-serif" font-size="12" lengthAdjust="spacingAndGlyphs" textLength="96" x="400.25" y="149.7344">ユーザーグループ</text><path d="M295,161.1992 L295,160.5108 L305.1481,160.3149 L315.2963,160.4076 L325.4444,161.7274 L335.5926,160.4726 L345.7407,162.0734 L355.8889,162.1063 L366.037,161.7707 L376.1852,161.7111 L386.3333,160.915 L396.4815,161.492 L406.6296,162.0569 L416.7778,160.7681 L426.9259,161.8641 L437.0741,161.5864 L447.2222,160.3635 L457.3704,162.113 L467.5185,160.8556 L477.6667,161.8177 L487.8148,161.5127 L497.963,161.2526 L508.1111,160.2829 L518.2593,162.085 L528.4074,160.4237 L538.5556,161.8008 L548.7037,161.8693 L558.8519,161.4134 L569,161.1992 " fill="#FEFECE" style="stroke: #A80036; stroke-width: 1.5;"/><text fill="#000000" font-family="sans-serif" font-size="11" lengthAdjust="spacingAndGlyphs" textLength="99" x="300" y="175.834">ユーザーグループ名</text><text fill="#000000" font-family="sans-serif" font-size="11" lengthAdjust="spacingAndGlyphs" textLength="33" x="300" y="188.7891">表示名</text><text fill="#000000" font-family="sans-serif" font-size="11" lengthAdjust="spacingAndGlyphs" textLength="99" x="300" y="201.7441">認証プレフィックス</text><text fill="#000000" font-family="sans-serif" font-size="11" lengthAdjust="spacingAndGlyphs" textLength="264" x="300" y="214.6992">コンテンツのドラッグ＆ドロップ移動機能を利用する</text><polygon fill="#FBFB77" filter="url(#f8jd1h6)" points="38.5,281.1992,38.384,281.1992,38.9923,291.3903,38.8746,301.5814,37.7569,311.7725,39.1938,321.9636,38.5089,332.1547,38.1425,342.3459,38.1793,352.537,38.7132,362.7281,38.7711,372.9192,37.9609,383.1103,38.9737,393.3014,39.1641,403.4925,38.5,413.6836,38.5,413.463,48.4516,414.3804,58.4032,413.813,68.3548,414.1142,78.3065,413.4415,88.2581,413.658,98.2097,414.297,108.1613,414.3468,118.1129,414.0052,128.0645,413.1432,138.0161,413.2433,147.9677,414.2412,157.9194,413.7663,167.871,413.1622,177.8226,413.1665,187.7742,413.9152,197.7258,414.2538,207.6774,413.8281,217.629,413.7837,227.5806,414.0489,237.5323,413.4552,247.4839,414.3838,257.4355,413.3138,267.3871,414.4022,277.3387,413.0551,287.2903,413.9572,297.2419,413.9883,307.1935,413.4744,317.1452,413.036,327.0968,414.362,337.0484,413.9537,347,413.9231,356.9516,414.228,366.9032,413.4736,376.8548,414.2665,386.8065,414.4207,396.7581,414.1431,406.7097,413.5535,416.6613,413.781,426.6129,414.3817,436.5645,414.0045,446.5161,413.196,456.4677,413.4101,466.4194,412.9625,476.371,414.2885,486.3226,414.3232,496.2742,413.9947,506.2258,414.398,516.1774,413.8281,526.129,413.8599,536.0806,414.3512,546.0323,414.1111,555.9839,413.0883,565.9355,413.8785,575.8871,413.9807,585.8387,414.1033,595.7903,414.1133,605.7419,413.1154,615.6935,413.4124,625.6452,413.9111,635.5968,413.8623,645.5484,414.3278,655.5,413.6836,656.041,413.6836,655.7062,403.4766,655.0119,393.2695,655.7897,383.0625,656.2481,372.8555,655.0883,362.6484,654.9638,352.4414,655.4871,342.2344,655.4685,332.0273,656.1455,321.8203,656.1399,311.6133,656.1379,301.4063,655.5,291.1992,655.6392,291.3384,653.4703,289.1695,651.5249,287.2241,649.3744,285.0736,647.5085,283.2077,645.5,281.1992,645.5,281.112,635.5492,280.6897,625.5984,281.7698,615.6475,281.3785,605.6967,281.6011,595.7459,281.9211,585.7951,280.5433,575.8443,281.7172,565.8934,280.8791,555.9426,280.5086,545.9918,280.5985,536.041,281.5067,526.0902,280.827,516.1393,280.6515,506.1885,280.9679,496.2377,281.2633,486.2869,281.2644,476.3361,281.1036,466.3852,281.54,456.4344,280.8143,446.4836,281.1129,436.5328,281.2341,426.582,281.7623,416.6311,281.9221,406.6803,281.0524,396.7295,280.5468,386.7787,281.2,376.8279,280.939,366.877,281.6075,356.9262,281.5762,346.9754,280.5418,337.0246,281.4537,327.0738,281.0209,317.123,281.5614,307.1721,280.5957,297.2213,280.9776,287.2705,280.8862,277.3197,281.6094,267.3689,281.7321,257.418,281.8789,247.4672,281.8388,237.5164,280.6992,227.5656,280.5879,217.6148,280.5157,207.6639,280.628,197.7131,280.8456,187.7623,280.6642,177.8115,280.8361,167.8607,281.1217,157.9098,281.0351,147.959,281.216,138.0082,281.6119,128.0574,281.2289,118.1066,280.6739,108.1557,281.0541,98.2049,280.9453,88.2541,281.3594,78.3033,281.7336,68.3525,281.5549,58.4016,281.2457,48.4508,280.8777,38.5,281.1992" style="stroke: #A80036; stroke-width: 1.0;"/><polygon fill="#FBFB77" points="38.5,281.1992,37.8671,281.1992,38.0991,291.3903,38.7993,301.5814,38.3531,311.7725,38.7657,321.9636,38.1392,332.1547,38.6648,342.3459,39.044,352.537,38.2814,362.7281,37.9426,372.9192,38.2276,383.1103,38.3204,393.3014,38.5762,403.4925,38.5,413.6836,38.5,413.702,48.4516,414.27,58.4032,413.5354,68.3548,413.8634,78.3065,413.8857,88.2581,413.0987,98.2097,412.9523,108.1613,413.6233,118.1129,414.134,128.0645,413.3337,138.0161,413.9311,147.9677,413.3867,157.9194,414.0326,167.871,414.2415,177.8226,413.0164,187.7742,413.0291,197.7258,413.0183,207.6774,413.7986,217.629,413.6585,227.5806,413.8494,237.5323,413.0698,247.4839,414.0734,257.4355,413.6111,267.3871,413.5831,277.3387,414.327,287.2903,413.1323,297.2419,413.2009,307.1935,413.8485,317.1452,413.7569,327.0968,413.4068,337.0484,413.0572,347,413.7272,356.9516,413.5963,366.9032,413.9472,376.8548,413.1627,386.8065,413.9003,396.7581,414.3667,406.7097,414.0594,416.6613,413.5676,426.6129,413.8043,436.5645,413.2742,446.5161,413.4671,456.4677,413.7896,466.4194,413.1472,476.371,413.2791,486.3226,414.3652,496.2742,414.309,506.2258,413.3236,516.1774,413.0439,526.129,413.038,536.0806,414.1555,546.0323,413.8006,555.9839,413.3449,565.9355,413.5915,575.8871,413.8755,585.8387,413.4029,595.7903,413.3661,605.7419,413.3135,615.6935,413.1635,625.6452,413.1096,635.5968,413.0738,645.5484,413.2093,655.5,413.6836,655.4534,413.6836,654.8102,403.4766,654.9264,393.2695,656.1945,383.0625,655.9553,372.8555,655.09,362.6484,655.1482,352.4414,654.9061,342.2344,654.8675,332.0273,655.9328,321.8203,655.0833,311.6133,656.0072,301.4063,655.5,291.1992,655.4363,291.1355,653.4185,289.1177,651.5396,287.2388,649.5328,285.2321,647.3744,283.0736,645.5,281.1992,645.5,280.9731,635.4262,281.8817,625.3523,280.8758,615.2785,281.9406,605.2046,281.7546,595.1308,281.5039,585.0569,280.9983,574.9831,281.5608,564.9092,281.827,554.8354,281.8511,544.7615,281.9006,534.6877,281.5027,524.6138,281.3081,514.54,281.2951,504.4662,281.2985,494.3923,281.9151,484.3185,280.4819,474.2446,280.6947,464.1708,281.136,454.0969,281.0137,444.0231,280.5506,433.9492,281.5026,423.8754,281.7153,413.8015,280.4916,403.7277,281.2806,393.6538,281.4776,383.58,281.1992,383.7363,281.2667,386.6423,272.3706,390.3094,263.8032,394.4307,255.4319,398.881,247.2026,401.8417,238.3301,406.2134,230.0669,409.44,221.3092,409.4763,221.3297,404.0097,229.5296,399.2365,238.1215,394.6397,246.813,389.9704,255.4637,385.3396,264.136,380.5804,272.7358,375.58,281.1992,375.58,280.989,365.6659,281.0875,355.7518,281.578,345.8376,280.8535,335.9235,281.9039,326.0094,281.7267,316.0953,281.6449,306.1812,281.6416,296.2671,281.2864,286.3529,281.311,276.4388,281.5932,266.5247,281.1306,256.6106,281.6446,246.6965,280.5725,236.7824,281.3769,226.8682,280.685,216.9541,281.7499,207.04,281.0597,197.1259,281.0173,187.2118,280.9203,177.2976,281.2446,167.3835,281.531,157.4694,280.6774,147.5553,281.0738,137.6412,281.7477,127.7271,280.6557,117.8129,280.9898,107.8988,281.0333,97.9847,281.1812,88.0706,280.6037,78.1565,281.2788,68.2424,280.7481,58.3282,280.7715,48.4141,281.3127,38.5,281.1992" style="stroke: #A80036; stroke-width: 1.0;"/><path d="M645.5,281.1992 L645.2574,281.1992 L645.2392,283.1992 L645.5198,285.1992 L645.8015,287.1992 L645.7936,289.1992 L645.5,291.1992 " fill="#FBFB77" style="stroke: #A80036; stroke-width: 1.0;"/><path d="M655.5,291.1992 L655.5,291.1049 L653.5,291.3841 L651.5,291.1652 L649.5,291.4552 L647.5,291.4651 L645.5,291.1992 " fill="#FBFB77" style="stroke: #A80036; stroke-width: 1.0;"/><text fill="#000000" font-family="sans-serif" font-size="13" lengthAdjust="spacingAndGlyphs" textLength="341" x="44.5" y="298.7676">・ユーザーグループ名は、50文字以内とし入力必須とする</text><text fill="#000000" font-family="sans-serif" font-size="13" lengthAdjust="spacingAndGlyphs" textLength="299" x="44.5" y="314.0781">・ユーザーグループ名は、半角のみ利用可能とする</text><text fill="#000000" font-family="sans-serif" font-size="13" lengthAdjust="spacingAndGlyphs" textLength="273" x="44.5" y="329.3887">・ユーザーグループ名は重複して登録できない</text><text fill="#000000" font-family="sans-serif" font-size="13" lengthAdjust="spacingAndGlyphs" textLength="263" x="44.5" y="344.6992">・表示名は、50文字以内とし入力必須とする</text><text fill="#000000" font-family="sans-serif" font-size="13" lengthAdjust="spacingAndGlyphs" textLength="481" x="44.5" y="360.0098">・認証プレフィックスは、複数の認証領域を設定している場合にのみ入力欄を表示</text><text fill="#000000" font-family="sans-serif" font-size="13" lengthAdjust="spacingAndGlyphs" textLength="364" x="44.5" y="375.3203">・認証プレフィックスは表示されている場合に入力必須とする</text><text fill="#000000" font-family="sans-serif" font-size="13" lengthAdjust="spacingAndGlyphs" textLength="492" x="44.5" y="390.6309">・admins グループの認証プレフィックスにおいて「管理システム」は削除できない</text><text fill="#000000" font-family="sans-serif" font-size="13" lengthAdjust="spacingAndGlyphs" textLength="596" x="44.5" y="405.9414">・admins グループは、ユーザーグループ名の変更、削除、および、アクセス制限の設定はできない。</text><!--class ユーザー--><polygon fill="#FEFECE" filter="url(#f8jd1h6)" points="691,327.1992,691,327.7081,701,326.9787,711,326.4871,721,326.6322,731,326.5557,741,326.8048,751,326.5583,761,326.9363,771,327.1992,771.0127,327.1992,771.1906,335.1992,771.1989,343.1992,771.198,351.1992,771.2305,359.1992,771,367.1992,771,366.835,761,367.6479,751,367.8667,741,367.6741,731,367.2292,721,366.734,711,366.8692,701,366.8083,691,367.1992,691.001,367.1992,690.7582,359.1992,690.9071,351.1992,690.9392,343.1992,691.115,335.1992,691,327.1992" style="stroke: #A80036; stroke-width: 1.5;"/><polygon fill="#ADD1B2" points="716.5257,345.8673,715.6307,348.5897,714.0466,351.0622,710.6374,352.7235,707.8884,354.6792,704.745,354.8077,701.4302,352.7949,699.2937,352.2305,696.8675,350.246,696.3437,347.3894,695.788,344.9522,694.9877,342.5883,695.2259,339.2,696.5879,337.2969,698.2896,335.5487,699.6398,334.1115,702.7196,333.3645,705.0486,331.7637,707.1986,331.9642,708.8978,333.27,710.6444,333.8665,713.4639,334.5762,715.4698,337.6437,716.5516,339.3802,717.6231,342.6662,716.754,345.8106" style="stroke: #A80036; stroke-width: 1.0;"/><path d="M708.4731,349.3423 Q707.8921,349.6411 707.2529,349.7905 Q706.6138,349.9399 705.9082,349.9399 Q703.4014,349.9399 702.0815,348.2881 Q700.7617,346.6362 700.7617,343.5151 Q700.7617,340.3857 702.0815,338.7339 Q703.4014,337.082 705.9082,337.082 Q706.6138,337.082 707.2612,337.2314 Q707.9087,337.3809 708.4731,337.6797 L708.4731,340.4023 Q707.8423,339.8213 707.2488,339.5515 Q706.6553,339.2817 706.0244,339.2817 Q704.6797,339.2817 703.9949,340.3484 Q703.3101,341.415 703.3101,343.5151 Q703.3101,345.6069 703.9949,346.6736 Q704.6797,347.7402 706.0244,347.7402 Q706.6553,347.7402 707.2488,347.4705 Q707.8423,347.2007 708.4731,346.6196 Z "/><text fill="#000000" font-family="sans-serif" font-size="12" lengthAdjust="spacingAndGlyphs" textLength="48" x="720" y="347.7344">ユーザー</text><path d="M692,359.1992 L692,359.5831 L701.75,359.959 L711.5,360.1475 L721.25,359.6352 L731,360.0537 L740.75,359.8585 L750.5,358.6396 L760.25,358.5795 L770,359.1992 " fill="#FEFECE" style="stroke: #A80036; stroke-width: 1.5;"/><!--class アクセス制限設定--><polygon fill="#FEFECE" filter="url(#f8jd1h6)" points="368,29.1992,368,29.7667,377.8462,29.6977,387.6923,28.8938,397.5385,29.8848,407.3846,28.789,417.2308,28.6121,427.0769,28.9272,436.9231,29.6553,446.7692,29.8313,456.6154,28.8942,466.4615,28.7512,476.3077,29.1281,486.1538,29.5842,496,29.1992,496.1774,29.1992,495.9071,37.1992,495.944,45.1992,495.7874,53.1992,496.2476,61.1992,496,69.1992,496,69.2856,486.1538,68.723,476.3077,69.0102,466.4615,69.8467,456.6154,68.7533,446.7692,68.5732,436.9231,68.5145,427.0769,68.742,417.2308,69.6222,407.3846,69.1561,397.5385,69.3862,387.6923,68.778,377.8462,69.151,368,69.1992,368.056,69.1992,368.191,61.1992,367.9031,53.1992,368.1266,45.1992,368.1807,37.1992,368,29.1992" style="stroke: #A80036; stroke-width: 1.5;"/><polygon fill="#ADD1B2" points="393.7025,47.9029,393.1892,50.1194,390.9297,52.7981,389.6566,54.4431,387.207,54.6759,385.3699,56.14,381.9947,56.3269,380.0377,55.1957,378.159,54.7738,376.5456,53.5876,373.5967,51.9562,373.0244,48.7697,372.4542,45.3563,372.4884,41.8302,374.263,39.1682,374.9784,36.9507,376.8784,36.0068,379.8993,34.5384,382.4982,33.7977,384.5748,34.8724,387.8561,34.6416,389.6034,35.6991,391.1353,37.6896,392.8578,39.1201,394.3043,42.3117,394.5372,44.5219,393.6242,46.6015" style="stroke: #A80036; stroke-width: 1.0;"/><path d="M385.4731,51.3423 Q384.8921,51.6411 384.2529,51.7905 Q383.6138,51.9399 382.9082,51.9399 Q380.4014,51.9399 379.0815,50.2881 Q377.7617,48.6362 377.7617,45.5151 Q377.7617,42.3857 379.0815,40.7339 Q380.4014,39.082 382.9082,39.082 Q383.6138,39.082 384.2612,39.2314 Q384.9087,39.3809 385.4731,39.6797 L385.4731,42.4023 Q384.8423,41.8213 384.2488,41.5515 Q383.6553,41.2817 383.0244,41.2817 Q381.6797,41.2817 380.9949,42.3484 Q380.3101,43.415 380.3101,45.5151 Q380.3101,47.6069 380.9949,48.6736 Q381.6797,49.7402 383.0244,49.7402 Q383.6553,49.7402 384.2488,49.4705 Q384.8423,49.2007 385.4731,48.6196 Z "/><text fill="#000000" font-family="sans-serif" font-size="12" lengthAdjust="spacingAndGlyphs" textLength="96" x="397" y="49.7344">アクセス制限設定</text><path d="M369,61.1992 L369,61.5664 L378.6923,61.4843 L388.3846,62.1814 L398.0769,60.9676 L407.7692,61.7483 L417.4615,60.8771 L427.1538,62.1359 L436.8462,60.6987 L446.5385,61.7304 L456.2308,61.5949 L465.9231,61.3172 L475.6154,61.2147 L485.3077,61.8052 L495,61.1992 " fill="#FEFECE" style="stroke: #A80036; stroke-width: 1.5;"/><path d="M432,74.3592 L431.784,74.3592 L431.5784,85.3012 L432.9281,96.2432 L431.7332,107.1852 L432.4904,118.1272 L432,129.0692 " fill="none" style="stroke: #A80036; stroke-width: 1.0;"/><polygon fill="#A80036" points="432,69.2992,431.899,69.2543,431.0084,71.0141,430.5379,72.9605,429.5425,74.6737,428.6926,76.4515,428,78.2992,427.9296,78.2288,428.9193,77.6185,429.4413,76.5405,430.5281,76.0273,431.0988,74.998,432,74.2992,431.9247,74.224,432.9666,75.2658,433.6953,75.9945,434.3483,76.6475,435.1377,77.4369,436,78.2992,436.0903,78.3393,434.9885,76.4052,434.2276,74.6226,433.4226,72.8204,432.6213,71.0198,432,69.2992" style="stroke: #A80036; stroke-width: 1.0;"/><text fill="#000000" font-family="sans-serif" font-size="13" lengthAdjust="spacingAndGlyphs" textLength="22" x="406.9063" y="89.6737">0..*</text><text fill="#000000" font-family="sans-serif" font-size="13" lengthAdjust="spacingAndGlyphs" textLength="8" x="423.3875" y="118.463">1</text><path d="M561.94,221.2592 L561.9848,221.361 L564.7514,222.4897 L567.4927,223.5607 L570.4352,225.0894 L573.2401,226.305 L576.0121,227.4458 L576.0807,227.594 L578.7217,228.4849 L581.6943,230.0921 L584.4384,231.2058 L587.4172,232.8265 L590.1942,234.0111 L590.239,234.1026 L592.9652,235.2615 L595.733,236.5052 L598.6633,238.0813 L601.5383,239.5443 L604.3864,240.9523 L604.3208,240.8258 L607.3224,242.6379 L610.0917,244.0021 L612.7269,245.1078 L615.5836,246.6406 L618.4888,248.2667 L618.6163,248.4976 L621.3991,250.0351 L623.9027,251.0672 L626.9421,253.0691 L629.4928,254.1864 L632.4012,255.9514 L632.313,255.8022 L635.2383,257.7521 L638.0012,259.4276 L640.5204,260.6906 L643.4222,262.601 L646.0239,264.0036 L645.8556,263.739 L648.5998,265.5758 L651.4397,267.5632 L653.8989,268.9518 L656.6824,270.8505 L659.2568,272.4205 L659.2479,272.4075 L661.8111,274.1844 L664.3823,275.9729 L667.0073,277.8394 L669.3315,279.2695 L672,281.1992 L672.1508,281.3868 L674.3175,283.0385 L676.8271,285.1169 L679.2171,287.0463 L681.6763,289.062 L683.853,290.7261 L683.7993,290.67 L685.9533,292.723 L688.2235,294.8976 L690.5182,297.0978 L692.6754,299.1542 L694.9963,301.3817 L694.821,301.2203 L697.2052,303.7508 L699.2838,305.9999 L700.9932,307.9089 L703.1976,310.2739 L705.1439,312.4011 L704.9177,312.2122 L707.0498,314.6355 L708.4956,316.4857 L710.3521,318.6789 L711.9813,320.6823 L714.01,323.0192 " fill="none" style="stroke: #A80036; stroke-width: 1.0;"/><polygon fill="#A80036" points="717.24,327.1192,717.0619,327.0742,716.9069,325.2473,716.1615,323.2712,715.6024,321.3422,715.4802,319.5236,714.8264,317.5707,714.8982,317.5793,714.4554,318.6656,714.5011,319.8106,714.284,320.924,714.476,322.0866,714.1515,323.1871,714.1605,323.2615,713.0062,322.8684,711.9027,322.8988,710.7734,322.7138,709.6782,322.8125,708.5351,322.5122,708.516,322.4762,710.3663,323.6042,712.0654,324.4465,713.8564,325.4623,715.4498,326.1049,717.24,327.1192" style="stroke: #A80036; stroke-width: 1.0;"/><text fill="#000000" font-family="sans-serif" font-size="13" lengthAdjust="spacingAndGlyphs" textLength="22" x="557.4093" y="241.7302">0..*</text><text fill="#000000" font-family="sans-serif" font-size="13" lengthAdjust="spacingAndGlyphs" textLength="22" x="687.6573" y="316.2888">0..*</text></g></svg>