<?xml version="1.0" encoding="UTF-8" standalone="no"?><svg xmlns="http://www.w3.org/2000/svg" xmlns:xlink="http://www.w3.org/1999/xlink" contentScriptType="application/ecmascript" contentStyleType="text/css" height="443px" preserveAspectRatio="none" style="width:385px;height:443px;" version="1.1" viewBox="0 0 385 443" width="385px" zoomAndPan="magnify"><defs><filter height="300%" id="fmp2naf" width="300%" x="-1" y="-1"><feGaussianBlur result="blurOut" stdDeviation="2.0"/><feColorMatrix in="blurOut" result="blurOut2" type="matrix" values="0 0 0 0 0 0 0 0 0 0 0 0 0 0 0 0 0 0 .4 0"/><feOffset dx="4.0" dy="4.0" in="blurOut2" result="blurOut3"/><feBlend in="SourceGraphic" in2="blurOut3" mode="normal"/></filter></defs><g><text fill="#000000" font-family="sans-serif" font-size="18" lengthAdjust="spacingAndGlyphs" textLength="90" x="152.5" y="17.4023">テーマ設定</text><!--class Admin\ThemeConfigsController--><polygon fill="#FEFECE" filter="url(#fmp2naf)" points="189.5,29.1992,189.5,29.0881,199.3421,28.6388,209.1842,29.0491,219.0263,28.6998,228.8684,29.4133,238.7105,29.5028,248.5526,28.9555,258.3947,29.7039,268.2368,29.1817,278.0789,28.9548,287.9211,29.6017,297.7632,29.234,307.6053,29.7874,317.4474,28.6646,327.2895,29.933,337.1316,28.8715,346.9737,28.8845,356.8158,28.9062,366.6579,29.4957,376.5,29.1992,376.1956,29.1992,376.7134,39.8168,376.1208,50.4344,376.9169,61.052,376.4884,71.6695,376.5,82.2871,376.5,82.5416,366.6579,81.881,356.8158,82.8764,346.9737,82.2792,337.1316,83.0119,327.2895,81.9826,317.4474,81.7509,307.6053,82.9951,297.7632,82.4008,287.9211,82.2302,278.0789,82.9879,268.2368,82.5976,258.3947,82.9221,248.5526,82.37,238.7105,82.813,228.8684,82.1126,219.0263,82.5608,209.1842,82.349,199.3421,81.8864,189.5,82.2871,190.0432,82.2871,189.7707,71.6695,188.9385,61.052,189.2897,50.4344,189.8814,39.8168,189.5,29.1992" style="stroke: #A80036; stroke-width: 1.5;"/><text fill="#000000" font-family="sans-serif" font-size="12" lengthAdjust="spacingAndGlyphs" textLength="181" x="192.5" y="45.8008">Admin\ThemeConfigsController</text><path d="M190.5,53.332 L190.5,53.4794 L200.2368,52.8278 L209.9737,53.5016 L219.7105,53.0488 L229.4474,52.7266 L239.1842,53.4096 L248.9211,54.1222 L258.6579,53.2923 L268.3947,52.8222 L278.1316,52.3806 L287.8684,52.6542 L297.6053,53.04 L307.3421,53.3393 L317.0789,52.8815 L326.8158,53.9333 L336.5526,53.8984 L346.2895,53.1701 L356.0263,54.0178 L365.7632,52.7598 L375.5,53.332 " fill="#FEFECE" style="stroke: #A80036; stroke-width: 1.5;"/><path d="M190.5,61.332 L190.5,61.815 L200.2368,60.9229 L209.9737,60.7087 L219.7105,61.2835 L229.4474,60.3771 L239.1842,62.1685 L248.9211,61.0642 L258.6579,61.0807 L268.3947,60.4995 L278.1316,62.0363 L287.8684,61.4347 L297.6053,62.2364 L307.3421,60.3565 L317.0789,60.5216 L326.8158,62.3064 L336.5526,60.8224 L346.2895,61.411 L356.0263,60.6594 L365.7632,60.6855 L375.5,61.332 " fill="#FEFECE" style="stroke: #A80036; stroke-width: 1.5;"/><text fill="#000000" font-family="sans-serif" font-size="11" lengthAdjust="spacingAndGlyphs" textLength="113" x="195.5" y="75.9668">+設定を保存：index()</text><!--class ThemeConfigsService--><polygon fill="#FEFECE" filter="url(#fmp2naf)" points="219,148.6992,219,149.333,228.8462,148.322,238.6923,148.0392,248.5385,148.0865,258.3846,147.9553,268.2308,148.7819,278.0769,149.281,287.9231,149.2089,297.7692,149.1158,307.6154,148.9966,317.4615,148.2674,327.3077,148.8922,337.1538,148.6276,347,148.6992,347.5259,148.6992,347.0139,159.3168,347.6908,169.9344,347.693,180.552,347.0771,191.1695,347,201.7871,347,201.4979,337.1538,202.2885,327.3077,202.0739,317.4615,202.5017,307.6154,202.2687,297.7692,201.4319,287.9231,202.0945,278.0769,201.1712,268.2308,201.1405,258.3846,202.0762,248.5385,201.5792,238.6923,201.7408,228.8462,201.9375,219,201.7871,219.5649,201.7871,219.6567,191.1695,219.1087,180.552,218.3777,169.9344,218.9693,159.3168,219,148.6992" style="stroke: #A80036; stroke-width: 1.5;"/><text fill="#000000" font-family="sans-serif" font-size="12" lengthAdjust="spacingAndGlyphs" textLength="122" x="222" y="165.3008">ThemeConfigsService</text><path d="M220,172.832 L220,172.085 L229.6923,172.5981 L239.3846,172.0286 L249.0769,172.0135 L258.7692,173.7399 L268.4615,173.4263 L278.1538,172.8017 L287.8462,172.7788 L297.5385,173.5054 L307.2308,173.282 L316.9231,173.2663 L326.6154,173.3018 L336.3077,172.0745 L346,172.832 " fill="#FEFECE" style="stroke: #A80036; stroke-width: 1.5;"/><text fill="#000000" font-family="sans-serif" font-size="11" lengthAdjust="spacingAndGlyphs" textLength="116" x="225" y="187.4668">+ThemeConfigsTable</text><path d="M220,193.7871 L220,194.242 L229.6923,194.075 L239.3846,194.1435 L249.0769,193.8971 L258.7692,192.9259 L268.4615,194.7725 L278.1538,194.5692 L287.8462,194.1975 L297.5385,193.4901 L307.2308,194.6154 L316.9231,193.0767 L326.6154,193.5463 L336.3077,193.551 L346,193.7871 " fill="#FEFECE" style="stroke: #A80036; stroke-width: 1.5;"/><!--class ThemeConfigsServiceInterface--><polygon fill="#FEFECE" filter="url(#fmp2naf)" points="6,142.1992,6,142.5841,15.8889,142.0614,25.7778,142.3667,35.6667,142.448,45.5556,141.6329,55.4444,141.7965,65.3333,142.5685,75.2222,142.6915,85.1111,141.5941,95,142.0974,104.8889,142.3602,114.7778,142.1095,124.6667,141.9533,134.5556,142.7911,144.4444,142.4149,154.3333,141.5908,164.2222,142.1813,174.1111,142.8236,184,142.1992,183.7401,142.1992,183.4967,151.6339,183.4596,161.0686,184.5209,170.5033,184.6421,179.9381,183.9991,189.3728,183.5746,198.8075,184,208.2422,184,208.7325,174.1111,207.6794,164.2222,207.9888,154.3333,208.1249,144.4444,207.7591,134.5556,208.489,124.6667,208.8761,114.7778,208.9357,104.8889,208.2549,95,208.3659,85.1111,208.9233,75.2222,208.1124,65.3333,208.6428,55.4444,207.7726,45.5556,207.9833,35.6667,207.7477,25.7778,208.1297,15.8889,207.8301,6,208.2422,6.7175,208.2422,5.9696,198.8075,6.139,189.3728,5.7044,179.9381,5.8599,170.5033,6.1087,161.0686,5.6097,151.6339,6,142.1992" style="stroke: #A80036; stroke-width: 1.5;"/><text fill="#000000" font-family="sans-serif" font-size="12" lengthAdjust="spacingAndGlyphs" textLength="172" x="9" y="158.8008">ThemeConfigsServiceInterface</text><path d="M7,166.332 L7,166.8576 L16.7778,167.2921 L26.5556,167.1439 L36.3333,166.8607 L46.1111,166.9948 L55.8889,166.5853 L65.6667,167.3071 L75.4444,167.2338 L85.2222,167.1462 L95,165.9566 L104.7778,166.6868 L114.5556,167.0831 L124.3333,166.1422 L134.1111,166.73 L143.8889,165.8666 L153.6667,166.4225 L163.4444,166.4918 L173.2222,166.5247 L183,166.332 " fill="#FEFECE" style="stroke: #A80036; stroke-width: 1.5;"/><path d="M7,174.332 L7,175.3271 L16.7778,173.3599 L26.5556,173.7749 L36.3333,173.8435 L46.1111,173.3531 L55.8889,174.1073 L65.6667,173.4643 L75.4444,173.7576 L85.2222,173.4139 L95,174.3718 L104.7778,173.6844 L114.5556,173.8437 L124.3333,174.1656 L134.1111,173.9496 L143.8889,174.1784 L153.6667,173.7184 L163.4444,173.7063 L173.2222,173.9971 L183,174.332 " fill="#FEFECE" style="stroke: #A80036; stroke-width: 1.5;"/><text fill="#000000" font-family="sans-serif" font-size="11" lengthAdjust="spacingAndGlyphs" textLength="67" x="12" y="188.9668">+取得：get()</text><text fill="#000000" font-family="sans-serif" font-size="11" lengthAdjust="spacingAndGlyphs" textLength="87" x="12" y="201.9219">+保存：update()</text><!--class ThemeConfigsTable--><polygon fill="#FEFECE" filter="url(#fmp2naf)" points="222.5,268.1992,222.5,268.2928,232.5833,268.0506,242.6667,268.0484,252.75,267.6098,262.8333,267.7541,272.9167,268.4483,283,268.547,293.0833,268.22,303.1667,267.8531,313.25,268.3289,323.3333,268.6952,333.4167,268.8434,343.5,268.1992,343.3996,268.1992,343.6291,276.2258,343.6602,284.2523,343.395,292.2789,343.3319,300.3055,343.5,308.332,343.5,307.8326,333.4167,308.39,323.3333,308.7011,313.25,308.288,303.1667,308.49,293.0833,307.7341,283,308.6324,272.9167,307.7154,262.8333,308.4247,252.75,308.2242,242.6667,308.9063,232.5833,308.8727,222.5,308.332,222.6858,308.332,222.4224,300.3055,222.5962,292.2789,222.5813,284.2523,222.489,276.2258,222.5,268.1992" style="stroke: #A80036; stroke-width: 1.5;"/><text fill="#000000" font-family="sans-serif" font-size="12" lengthAdjust="spacingAndGlyphs" textLength="115" x="225.5" y="284.8008">ThemeConfigsTable</text><path d="M223.5,292.332 L223.5,293.0236 L233.4167,291.9891 L243.3333,292.4498 L253.25,293.2017 L263.1667,291.3759 L273.0833,291.8455 L283,292.9516 L292.9167,292.8942 L302.8333,291.4541 L312.75,291.8898 L322.6667,291.3821 L332.5833,292.6005 L342.5,292.332 " fill="#FEFECE" style="stroke: #A80036; stroke-width: 1.5;"/><path d="M223.5,300.332 L223.5,300.5172 L233.4167,301.2025 L243.3333,300.7567 L253.25,300.9032 L263.1667,300.299 L273.0833,299.6008 L283,301.1789 L292.9167,299.8078 L302.8333,301.3237 L312.75,300.9287 L322.6667,300.5519 L332.5833,300.3279 L342.5,300.332 " fill="#FEFECE" style="stroke: #A80036; stroke-width: 1.5;"/><!--class ThemeConfig--><polygon fill="#FEFECE" filter="url(#fmp2naf)" points="236,368.1992,236,368.9324,246.4444,368.8232,256.8889,368.4768,267.3333,367.4936,277.7778,368.335,288.2222,368.542,298.6667,368.4026,309.1111,367.5783,319.5556,368.1583,330,368.1992,330.47,368.1992,330.526,377.6339,330.2517,387.0686,330.0623,396.5033,330.1495,405.9381,330.1787,415.3728,330.1556,424.8075,330,434.2422,330,434.2509,319.5556,433.9885,309.1111,433.5008,298.6667,433.822,288.2222,434.0886,277.7778,434.5316,267.3333,434.3062,256.8889,434.6127,246.4444,434.5556,236,434.2422,235.6189,434.2422,236.547,424.8075,236.0345,415.3728,235.7862,405.9381,235.9086,396.5033,235.3726,387.0686,235.5061,377.6339,236,368.1992" style="stroke: #A80036; stroke-width: 1.5;"/><text fill="#000000" font-family="sans-serif" font-size="12" lengthAdjust="spacingAndGlyphs" textLength="76" x="245" y="384.8008">ThemeConfig</text><path d="M237,392.332 L237,391.7743 L247.2222,392.0215 L257.4444,392.9602 L267.6667,391.8817 L277.8889,392.2711 L288.1111,391.9847 L298.3333,392.161 L308.5556,392.6145 L318.7778,392.0936 L329,392.332 " fill="#FEFECE" style="stroke: #A80036; stroke-width: 1.5;"/><text fill="#000000" font-family="sans-serif" font-size="11" lengthAdjust="spacingAndGlyphs" textLength="82" x="242" y="406.9668">+設定名：name</text><text fill="#000000" font-family="sans-serif" font-size="11" lengthAdjust="spacingAndGlyphs" textLength="81" x="242" y="419.9219">+設定値：value</text><path d="M237,426.2422 L237,426.5421 L247.2222,427.1876 L257.4444,425.2533 L267.6667,426.767 L277.8889,426.3703 L288.1111,425.7117 L298.3333,425.349 L308.5556,426.2239 L318.7778,426.4532 L329,426.2422 " fill="#FEFECE" style="stroke: #A80036; stroke-width: 1.5;"/><path d="M283,82.4892 L283.1542,82.4892 L283.6692,92.6209 L282.1015,102.7526 L283.6846,112.8842 L283.3004,123.0159 L282.1797,133.1476 L283,143.2792 " fill="none" style="stroke: #000000; stroke-width: 1.0;"/><polygon fill="#000000" points="283,148.4692,282.9043,148.4267,283.7695,146.6557,284.4865,144.8188,285.4746,143.1024,286.3892,141.3533,287,139.4692,286.9211,139.3903,286.1649,140.2341,285.2402,140.9094,284.6008,141.87,283.8446,142.7138,283,143.4692,282.9896,143.4588,282.0962,142.5654,281.2565,141.7257,280.5572,141.0265,279.8283,140.2975,279,139.4692,278.8238,139.3909,279.8353,141.2849,280.5053,143.0271,281.2963,144.8231,281.9785,146.5708,283,148.4692" style="stroke: #000000; stroke-width: 1.0;"/><path d="M283,201.9392 L282.6099,201.9392 L283.2838,212.0842 L283.5893,222.2292 L282.2228,232.3742 L283.0208,242.5192 L283.6377,252.6642 L283,262.8092 " fill="none" style="stroke: #000000; stroke-width: 1.0;"/><polygon fill="#000000" points="283,268.1792,282.7882,268.0851,283.7516,266.3577,284.4661,264.5197,285.208,262.6939,286.1739,260.9676,287,259.1792,286.9987,259.178,286.1444,259.9236,285.2441,260.6234,284.7307,261.7099,283.9278,262.507,283,263.1792,282.8354,263.0146,282.3112,262.4904,281.4168,261.596,280.4719,260.6512,279.8806,260.0598,279,259.1792,278.7834,259.0829,279.9974,261.067,280.6283,262.7918,281.2294,264.5034,282.2203,266.3883,283,268.1792" style="stroke: #000000; stroke-width: 1.0;"/><path d="M204.3,175.1992 L204.3,175.0846 L207.23,174.964 L210.16,175.3183 L213.09,175.3912 L216.02,175.3593 L218.95,175.1992 " fill="none" style="stroke: #000000; stroke-width: 1.0; stroke-dasharray: 1.0,3.0;"/><polygon fill="none" points="204.23,182.1992,204.2755,182.3293,200.2068,180.7329,196.2283,179.3944,192.2205,177.972,188.2787,176.7383,184.23,175.1992,184.2079,175.1361,188.155,173.5849,192.1915,172.2892,196.2188,170.9673,200.1837,169.467,204.23,168.1992,204.0557,168.1992,204.2719,170.9992,204.1221,173.7992,204.2783,176.5992,204.2785,179.3992,204.23,182.1992" style="stroke: #000000; stroke-width: 1.0;"/><path d="M283,308.2792 L282.7894,308.2792 L282.5619,319.1892 L282.0451,330.0992 L283.9473,341.0092 L283.735,351.9192 L283,362.8292 " fill="none" style="stroke: #000000; stroke-width: 1.0;"/><polygon fill="#000000" points="283,367.9092,283.1904,367.9939,283.7218,366.0745,284.6715,364.341,285.1855,362.4139,286.0243,360.6311,287,358.9092,287.0048,358.914,286.289,359.7983,285.2896,360.3989,284.7478,361.4571,283.7511,362.0603,283,362.9092,283.088,362.9972,282.3555,362.2648,281.298,361.2072,280.726,360.6352,279.7553,359.6646,279,358.9092,278.992,358.9057,280.0099,360.8025,280.398,362.4194,281.461,364.3363,282.0222,366.0302,283,367.9092" style="stroke: #000000; stroke-width: 1.0;"/></g></svg>