<?xml version="1.0" encoding="UTF-8" standalone="no"?><svg xmlns="http://www.w3.org/2000/svg" xmlns:xlink="http://www.w3.org/1999/xlink" contentScriptType="application/ecmascript" contentStyleType="text/css" height="660px" preserveAspectRatio="none" style="width:873px;height:660px;" version="1.1" viewBox="0 0 873 660" width="873px" zoomAndPan="magnify"><defs><filter height="300%" id="f21svc3" width="300%" x="-1" y="-1"><feGaussianBlur result="blurOut" stdDeviation="2.0"/><feColorMatrix in="blurOut" result="blurOut2" type="matrix" values="0 0 0 0 0 0 0 0 0 0 0 0 0 0 0 0 0 0 .4 0"/><feOffset dx="4.0" dy="4.0" in="blurOut2" result="blurOut3"/><feBlend in="SourceGraphic" in2="blurOut3" mode="normal"/></filter></defs><g><text fill="#000000" font-family="sans-serif" font-size="18" lengthAdjust="spacingAndGlyphs" textLength="288" x="306" y="17.4023">ユースケース：テーマファイル管理</text><!--cluster テーマファイル管理--><polygon fill="#FFFFFF" filter="url(#f21svc3)" points="92,45.1992,92,44.4582,102.1538,44.7304,112.3077,44.9416,122.4615,45.2023,132.6154,45.8928,142.7692,45.5738,152.9231,44.5828,163.0769,44.8302,173.2308,45.8728,183.3846,45.4842,193.5385,45.0255,203.6923,45.4447,213.8462,45.6247,224,45.1992,223.9181,45.1737,225.5136,49.7322,226.9164,54.2308,228.2528,58.7086,229.7413,63.2338,231,67.6875,231,66.9621,240.9219,67.0178,250.8438,68.4087,260.7656,67.4013,270.6875,67.2217,280.6094,68.0002,290.5313,67.6043,300.4531,67.7079,310.375,67.9286,320.2969,68.4341,330.2188,68.1164,340.1406,68.094,350.0625,68.3396,359.9844,67.9181,369.9063,67.2493,379.8281,68.3505,389.75,68.0572,399.6719,67.7492,409.5938,67.0192,419.5156,68.0336,429.4375,68.0235,439.3594,67.8323,449.2813,66.9795,459.2031,66.9736,469.125,67.2385,479.0469,67.3271,488.9688,67.4181,498.8906,68.2304,508.8125,68.3245,518.7344,67.5248,528.6563,67.8938,538.5781,68.0256,548.5,67.1586,558.4219,68.0887,568.3438,68.0561,578.2656,68.0222,588.1875,68.2766,598.1094,67.9569,608.0313,68.3105,617.9531,68.4292,627.875,67.1269,637.7969,68.3787,647.7188,67.6491,657.6406,67.2771,667.5625,67.0229,677.4844,68.2516,687.4063,67.8663,697.3281,67.8526,707.25,68.2936,717.1719,68.1277,727.0938,67.9171,737.0156,68.1779,746.9375,67.1844,756.8594,67.4894,766.7813,68.3585,776.7031,68.0935,786.625,67.9948,796.5469,67.1247,806.4688,67.1323,816.3906,67.9336,826.3125,68.2703,836.2344,68.1928,846.1563,67.4108,856.0781,66.9855,866,67.6875,865.8965,67.6875,866.6515,77.6114,866.1413,87.5354,866.201,97.4593,866.3659,107.3832,865.8139,117.3071,865.9798,127.2311,866.6714,137.155,865.5513,147.0789,866.6691,157.0028,866.2511,166.9268,865.4372,176.8507,865.2728,186.7746,866.4788,196.6986,866.6573,206.6225,866.0277,216.5464,865.6652,226.4703,865.932,236.3943,865.5613,246.3182,866.5916,256.2421,865.4617,266.166,865.9265,276.09,865.4113,286.0139,865.7103,295.9378,865.5612,305.8618,866.5959,315.7857,866.5089,325.7096,865.7322,335.6335,866.387,345.5575,865.2694,355.4814,866.5953,365.4053,866.4792,375.3293,866.3887,385.2532,865.9447,395.1771,865.9564,405.101,865.2653,415.025,865.7749,424.9489,866.2663,434.8728,866.1193,444.7967,866.0247,454.7207,866.6894,464.6446,866.428,474.5685,865.715,484.4925,865.9689,494.4164,865.5582,504.3403,865.8582,514.2642,866.7367,524.1882,866.0758,534.1121,865.7449,544.036,866.0084,553.9599,866.2088,563.8839,865.8729,573.8078,865.4446,583.7317,866.532,593.6557,866.2144,603.5796,865.3883,613.5035,865.4402,623.4274,865.6362,633.3514,865.7972,643.2753,866,653.1992,866,653.5316,855.9481,652.6161,845.8961,653.5884,835.8442,652.6676,825.7922,653.72,815.7403,652.7061,805.6883,652.9867,795.6364,652.5974,785.5844,652.963,775.5325,653.7889,765.4805,653.121,755.4286,652.5657,745.3766,652.6295,735.3247,653.3293,725.2727,652.8332,715.2208,652.8787,705.1688,653.3392,695.1169,652.6697,685.0649,653.8205,675.013,652.7309,664.961,653.2467,654.9091,653.2315,644.8571,653.229,634.8052,653.4108,624.7532,653.1652,614.7013,653.4984,604.6494,653.3728,594.5974,653.2975,584.5455,652.8125,574.4935,653.4682,564.4416,653.8329,554.3896,653.7977,544.3377,652.7787,534.2857,652.4653,524.2338,653.8163,514.1818,652.7027,504.1299,652.8853,494.0779,652.7977,484.026,653.8025,473.974,653.4291,463.9221,653.9465,453.8701,653.729,443.8182,653.664,433.7662,653.7165,423.7143,653.0514,413.6623,653.1108,403.6104,653.1259,393.5584,653.6216,383.5065,653.3537,373.4545,653.7859,363.4026,653.1175,353.3506,653.5414,343.2987,652.9973,333.2468,652.5323,323.1948,652.7813,313.1429,653.5405,303.0909,653.2046,293.039,653.3621,282.987,653.1243,272.9351,653.4368,262.8831,653.7262,252.8312,652.9294,242.7792,653.0364,232.7273,653.4211,222.6753,653.2825,212.6234,653.6294,202.5714,652.6559,192.5195,653.9471,182.4675,652.8283,172.4156,652.6901,162.3636,653.3302,152.3117,652.7309,142.2597,652.938,132.2078,653.1674,122.1558,652.7081,112.1039,653.9404,102.0519,653.8365,92,653.1992,92.5572,653.1992,92.5997,643.232,91.8422,633.2648,92.4033,623.2976,91.5216,613.3304,91.4519,603.3632,92.087,593.3959,92.6282,583.4287,91.8256,573.4615,92.4384,563.4943,91.3018,553.5271,92.3475,543.5599,92.2272,533.5927,91.4809,523.6254,91.4287,513.6582,91.3498,503.691,92.6498,493.7238,91.911,483.7566,91.7282,473.7894,92.0311,463.8222,92.1087,453.855,92.0458,443.8877,92.6315,433.9205,91.2856,423.9533,92.3084,413.9861,92.4492,404.0189,92.4621,394.0517,92.0142,384.0845,91.2637,374.1173,91.2612,364.15,92.6094,354.1828,92.188,344.2156,92.4235,334.2484,91.9051,324.2812,91.2508,314.314,92.0267,304.3468,91.7909,294.3795,91.4226,284.4123,91.3627,274.4451,92.2377,264.4779,91.9407,254.5107,92.6453,244.5435,92.5534,234.5763,91.915,224.6091,91.6329,214.6418,92.3832,204.6746,92.6806,194.7074,92.6152,184.7402,92.4081,174.773,91.8028,164.8058,91.7855,154.8386,91.8134,144.8713,92.131,134.9041,92.6656,124.9369,92.0888,114.9697,91.3894,105.0025,92.4143,95.0353,91.6253,85.0681,92.1457,75.1009,91.5102,65.1336,92.2188,55.1664,92,45.1992" style="stroke: #000000; stroke-width: 2.0;"/><path d="M92,67.6875 L92,67.4368 L101.9286,68.6838 L111.8571,66.6997 L121.7857,68.5852 L131.7143,68.3332 L141.6429,67.411 L151.5714,67.1579 L161.5,66.7547 L171.4286,67.1541 L181.3571,67.8583 L191.2857,66.7599 L201.2143,68.1752 L211.1429,67.9995 L221.0714,66.7048 L231,67.6875 " fill="#FFFFFF" style="stroke: #000000; stroke-width: 2.0;"/><text fill="#000000" font-family="sans-serif" font-size="14" font-weight="bold" lengthAdjust="spacingAndGlyphs" textLength="126" x="96" y="60.7344">テーマファイル管理</text><polygon fill="#FEFECE" filter="url(#f21svc3)" points="240.3373,280.0171,238.3623,282.3401,235.6635,284.7238,231.3255,286.8749,223.2078,288.2039,217.5678,290.1246,207.2127,290.8388,198.3883,291.7596,191.2206,292.8426,181.1607,292.9326,171.7079,292.8039,160.7327,291.8955,151.2592,290.8875,143.2073,289.7298,137.4579,288.614,130.8309,286.7743,124.6558,284.5344,122.0847,282.6662,120.0049,280.457,119.1392,278.1216,120.283,275.9024,122.5598,273.6515,126.1932,271.491,130.3322,269.2923,135.8556,267.3438,144.0619,266.036,152.2406,264.802,161.2142,263.9168,170.365,263.3074,179.2367,262.9337,189.1046,263.1616,198.8366,263.7731,208.9417,264.9319,215.8419,265.8146,225.1172,267.7724,230.5818,269.3345,236.3478,271.4766,238.2277,273.1798,241.7176,275.7258,241.7465,277.8613" style="stroke: #A80036; stroke-width: 1.5;"/><text fill="#000000" font-family="sans-serif" font-size="14" lengthAdjust="spacingAndGlyphs" textLength="84" x="138.3485" y="282.7131">現在のテーマ</text><polygon fill="#FEFECE" filter="url(#f21svc3)" points="437.9606,381.422,437.4176,383.8466,436.2599,386.1076,433.8856,387.7443,432.0215,389.7887,428.7959,390.9578,426.4346,392.6028,422.6625,393.1828,419.3501,393.8268,415.4008,393.7612,412.416,393.9547,408.8159,393.3397,405.8103,392.6521,402.2643,391.1315,399.416,389.5554,397.1108,387.818,395.1099,385.7721,393.8608,383.7241,393.405,381.7313,393.1498,379.4545,393.7339,377.3564,394.0674,374.7972,395.3326,372.6052,397.1546,370.6135,399.4235,368.8293,402.1935,367.3673,405.0985,366.0719,409.0753,365.6234,411.9068,364.6703,415.8275,364.7176,419.4661,364.9444,423.1299,365.6003,425.9956,366.198,429.2282,367.5171,432.0225,369.0584,434.0205,370.5983,436.4016,372.8887,437.2047,374.6499,438.665,377.2886,438.244,379.1306" style="stroke: #A80036; stroke-width: 1.5;"/><text fill="#000000" font-family="sans-serif" font-size="14" lengthAdjust="spacingAndGlyphs" textLength="28" x="401.799" y="384.1023">一覧</text><polygon fill="#FEFECE" filter="url(#f21svc3)" points="736.7387,365.6008,736.392,368.1516,734.9258,370.2143,733.0122,372.1471,730.0076,373.4583,727.7711,375.2633,724.5602,376.362,721.0815,377.1307,718.266,378.0942,714.0322,377.8457,710.6815,377.8039,707.4067,377.3981,704.0458,376.482,701.3138,375.4849,698.288,373.7946,695.9471,372.0343,694.2975,370.2142,692.7241,367.9577,691.9706,365.7735,691.5228,363.3729,691.5407,360.9107,693.0271,359.0927,693.6743,356.5034,696.1103,354.9065,698.0371,352.9024,701.1043,351.6314,703.9315,350.286,707.6746,349.6873,710.5656,348.7724,714.5479,348.8593,718.0536,349.0006,721.712,349.6531,724.7645,350.3709,727.8055,351.5668,730.4628,353.0201,732.4606,354.5598,734.7093,356.765,735.6892,358.64,737.0778,361.2325,736.6473,363.0684" style="stroke: #A80036; stroke-width: 1.5;"/><text fill="#000000" font-family="sans-serif" font-size="14" lengthAdjust="spacingAndGlyphs" textLength="28" x="700.299" y="368.1023">削除</text><polygon fill="#FEFECE" filter="url(#f21svc3)" points="747.132,301.7131,745.4738,303.7434,743.2792,305.7649,740.5018,307.683,738.4146,309.9903,733.3588,310.9668,729.6775,312.4796,724.869,313.3294,719.6533,313.7648,714.5554,313.953,710.2198,314.1221,704.4588,313.2391,699.3873,312.2103,696.0293,311.4644,691.479,309.6797,687.9499,307.8423,684.9677,305.746,684.057,304.0928,682.1054,301.5182,681.9424,299.3324,682.0361,296.9007,683.4889,294.7784,685.1825,292.5321,688.3535,290.7906,692.2016,289.2727,695.1181,287.3371,700.0667,286.3925,704.4331,285.3445,708.9319,284.5877,714.1026,284.4321,719.7105,284.8334,725.4263,285.6962,729.9087,286.4608,733.678,287.3912,737.3837,288.7972,741.456,290.8781,743.9996,292.7778,745.8251,294.8411,746.7018,296.9339,747.0667,299.2101" style="stroke: #A80036; stroke-width: 1.5;"/><text fill="#000000" font-family="sans-serif" font-size="14" lengthAdjust="spacingAndGlyphs" textLength="42" x="693.6985" y="304.1023">コピー</text><polygon fill="#FEFECE" filter="url(#f21svc3)" points="756.6025,237.6276,755.6861,240.0859,752.3039,241.9275,748.8004,243.885,744.3763,245.6056,739.1631,247.0547,734.4955,248.6116,727.6523,249.2622,721.4266,249.8934,714.0753,249.8373,707.8408,249.8045,701.2569,249.2386,695.4613,248.4891,688.8278,246.9657,684.71,245.804,680.6193,244.141,676.6573,242.0182,673.9038,239.8257,672.6016,237.6779,672.141,235.4067,671.9447,232.8655,674.1703,230.8577,677.4417,228.978,679.5803,226.5508,684.8069,225.1064,689.3737,223.4349,695.4319,222.3565,701.4774,221.4314,707.3566,220.681,715.0376,220.8505,721.6395,221.0097,728.2613,221.5887,733.2085,222.0462,739.4594,223.4379,745.4356,225.2392,749.392,226.8559,752.5542,228.7036,755.4235,230.9358,756.7572,233.0945,756.3566,235.0693" style="stroke: #A80036; stroke-width: 1.5;"/><text fill="#000000" font-family="sans-serif" font-size="14" lengthAdjust="spacingAndGlyphs" textLength="56" x="686.598" y="240.1023">一括削除</text><polygon fill="#FEFECE" filter="url(#f21svc3)" points="787.0088,170.9449,784.9011,173.6527,778.652,175.6624,773.3174,178.0673,765.3442,179.9492,756.1111,181.5374,748.5897,183.4326,737.4931,184.3125,726.1379,184.8648,715.9264,185.3376,702.5326,184.6523,692.4594,184.2648,680.2872,182.8634,673.3293,182.1175,664.1802,180.2793,655.777,178.0263,648.6819,175.4966,645.8301,173.3961,643.0646,170.7911,643.3036,168.4101,642.6234,165.3986,646.1578,163.0233,648.5763,160.1207,656.4891,158.3168,662.7215,156.0291,670.7308,154.1556,681.1828,152.9436,692.9869,152.2286,701.9862,151.1272,713.7807,151.0233,725.2792,151.2668,735.7727,151.7523,747.7326,153.1042,755.877,154.1267,766.5779,156.3266,773.626,158.2638,780.33,160.7023,784.4483,163.098,784.9258,165.1697,785.9064,167.8349" style="stroke: #A80036; stroke-width: 1.5;"/><text fill="#000000" font-family="sans-serif" font-size="14" lengthAdjust="spacingAndGlyphs" textLength="112" x="658.5352" y="172.8504">タイプを変更する</text><polygon fill="#FEFECE" filter="url(#f21svc3)" points="791.0136,100.9438,787.4927,103.5484,782.8819,106.1871,776.3833,108.5846,769.5591,111.0055,759.5951,112.7021,749.7919,114.3374,739.9332,115.7656,726.1197,115.9962,714.3479,116.3281,702.9599,116.3038,688.5807,115.081,677.6352,114.0898,669.1386,113.0655,659.1031,111.0651,651.5368,109.0055,644.3597,106.4146,638.9484,103.633,638.4674,101.4282,637.3144,98.5598,636.5111,95.3274,639.0311,92.4919,643.8269,89.8959,649.944,87.4104,657.4266,85.1414,669.4967,83.9306,677.3166,81.8378,690.6205,81.2042,703.0169,80.6468,715.1535,80.3991,725.9701,80.2915,739.3366,81.2808,748.6849,81.9035,760.0518,83.5899,769.0708,85.3558,779.085,87.9801,782.9468,89.8063,789.7964,92.9197,790.7216,95.2268,792.8424,98.3185" style="stroke: #A80036; stroke-width: 1.5;"/><text fill="#000000" font-family="sans-serif" font-size="14" lengthAdjust="spacingAndGlyphs" textLength="126" x="651.2871" y="103.0008">フォルダを変更する</text><polygon fill="#FEFECE" filter="url(#f21svc3)" points="486.6952,314.5222,485.9007,317.536,479.7128,319.5601,476.0974,322.3656,468.6295,324.3653,457.4538,325.5008,448.2097,326.9944,438.2725,328.1445,426.2297,328.5365,415.1272,328.8017,403.6022,328.552,393.1113,328.0671,382.3897,327.0038,372.0225,325.4632,364.7315,324.0582,357.0034,321.9625,350.502,319.5712,347.8393,317.5148,343.1345,314.4578,342.5472,311.8842,345.8414,309.799,348.4089,307.1984,352.5059,304.687,358.7812,302.5015,365.5902,300.3482,373.8902,298.5424,384.3739,297.3378,392.6204,295.7936,406.1041,295.7374,417.0439,295.4343,428.4801,295.6633,437.0471,295.6997,450.2131,297.3328,460.0938,298.76,467.2087,300.124,474.3037,302.0721,480.0836,304.2952,486.3454,307.1906,487.4506,309.4086,490.0176,312.4436" style="stroke: #A80036; stroke-width: 1.5;"/><text fill="#000000" font-family="sans-serif" font-size="14" lengthAdjust="spacingAndGlyphs" textLength="112" x="360.0352" y="316.8504">フォルダ新規作成</text><polygon fill="#FEFECE" filter="url(#f21svc3)" points="488.7796,246.008,485.7061,248.4907,481.3109,250.9325,475.1295,253.14,466.7229,254.9209,459.2417,256.9175,448.1928,257.9904,439.8124,259.5034,427.8466,259.9134,415.3627,259.8566,405.3483,259.959,395.015,259.5108,383.3414,258.2257,374.2448,256.9812,364.4527,254.9932,357.0161,252.9654,351.1647,250.7257,346.8482,248.2838,343.565,245.5581,343.8739,243.1934,344.8148,240.5597,347.4387,237.9723,350.2448,235.16,358.2586,233.3796,366.1187,231.4714,373.7253,229.504,382.692,227.9457,392.9464,226.8696,405.9896,226.7107,416.629,226.3376,428.0289,226.5581,437.3514,226.7707,447.701,227.7472,458.1043,229.2962,466.3235,230.9176,474.6323,233.1487,481.3318,235.5861,484.2064,237.692,488.5631,240.6679,487.5094,242.8589" style="stroke: #A80036; stroke-width: 1.5;"/><text fill="#000000" font-family="sans-serif" font-size="14" lengthAdjust="spacingAndGlyphs" textLength="112" x="360.0352" y="247.8504">ファイル新規作成</text><polygon fill="#FEFECE" filter="url(#f21svc3)" points="515.5776,171.3372,515.6394,175.6992,507.9963,178.7038,497.5604,181.3319,490.0993,184.7497,476.1669,186.7222,462.6841,188.6699,445.6555,189.5785,433.8715,191.295,414.5164,190.8503,401.7244,191.3056,384.468,190.1164,368.5065,188.5033,354.865,186.6474,343.7073,184.5557,333.8533,181.9549,324.7494,178.7313,318.1554,175.3072,315.4496,172.0384,314.7754,168.5758,314.4071,164.6158,318.3842,161.1558,323.1805,157.5154,334.6815,155.1251,343.8235,152.0828,356.2084,149.7647,368.5888,147.5708,383.0092,146.0798,401.8475,145.9386,416.7555,145.3901,432.2739,145.5438,449.6992,146.7707,463.5732,147.9175,475.8818,149.4758,490.0537,152.2407,501.0067,155.0868,507.6028,157.7504,514.0377,161.139,518.2215,164.7379,519.4456,168.3232" style="stroke: #A80036; stroke-width: 1.5;"/><text fill="#000000" font-family="sans-serif" font-size="14" lengthAdjust="spacingAndGlyphs" textLength="182" x="324.9007" y="172.9235">ファイルをアップロードする</text><polygon fill="#FEFECE" filter="url(#f21svc3)" points="438.5922,97.8281,437.4676,99.8787,435.9582,101.9136,434.6618,104.2433,432.2619,105.9433,429.6491,107.5064,425.7055,108.134,423.0055,109.4034,419.5774,109.9729,415.8199,110.0306,412.1665,109.7943,408.7418,109.292,405.398,108.387,402.0003,106.9618,399.2513,105.4495,397.0636,103.7877,395.6582,102.1246,394.5368,100.1587,392.968,97.4503,392.8076,95.2345,393.1636,92.9897,394.5636,91.1162,395.1858,88.5109,397.6522,86.9334,399.3833,84.8035,402.184,83.3612,405.304,82.204,408.8912,81.5051,411.913,80.6743,415.4139,80.4516,419.0507,80.6773,422.8198,81.401,426.3299,82.4129,429.3743,83.6109,432.1334,85.1298,433.8929,86.5163,436.557,88.9886,437.4148,90.785,438.2145,92.9989,439.0338,95.6384" style="stroke: #A80036; stroke-width: 1.5;"/><text fill="#000000" font-family="sans-serif" font-size="14" lengthAdjust="spacingAndGlyphs" textLength="28" x="401.799" y="100.1023">編集</text><polygon fill="#FEFECE" filter="url(#f21svc3)" points="251.6506,450.6283,248.4681,453.0856,245.1668,455.7824,237.8534,457.726,233.0823,460.3543,222.6321,461.6589,214.1279,463.3249,203.9252,464.4132,192.3234,464.908,180.8061,465.0764,170.3226,465.0696,157.4794,464.0364,148.7945,463.4478,137.6764,461.7322,128.0098,459.7734,122.3187,458.1525,114.5399,455.4635,112.993,453.6671,107.9198,450.5243,108.9241,448.3217,107.5276,445.1432,111.0655,442.7687,115.8161,440.4097,122.5348,438.3275,130.3441,436.4073,138.0364,434.4599,146.5073,432.7861,159.2011,432.2786,170.2122,431.6461,181.9178,431.5215,192.448,431.5393,201.8859,431.7787,213.7176,433.1007,223.9478,434.6094,232.7201,436.3597,240.3978,438.4437,245.1097,440.4178,250.8556,443.1929,252.3293,445.4968,252.0232,447.8622" style="stroke: #A80036; stroke-width: 1.5;"/><text fill="#000000" font-family="sans-serif" font-size="14" lengthAdjust="spacingAndGlyphs" textLength="112" x="124.5352" y="452.8504">コアテンプレート</text><polygon fill="#FEFECE" filter="url(#f21svc3)" points="498.9405,524.3446,497.6557,527.6928,490.3909,529.979,485.2039,532.947,476.2011,535.148,467.2324,537.3568,453.7482,538.4289,443.8029,540.1026,430.4835,540.7011,415.6311,540.5553,401.9717,540.2081,389.9613,539.6956,376.3631,538.223,366.6461,536.9998,357.8553,535.3263,349.5999,533.1049,341.0703,530.1589,335.4631,527.2432,332.7942,524.4016,332.7058,521.6075,334.4318,518.754,334.5585,515.1412,339.5737,512.341,349.4215,510.4379,355.3452,507.5334,365.0507,505.493,376.3679,503.9257,389.3946,502.9561,402.764,502.369,414.7976,501.8708,429.3303,502.4174,440.5936,502.7593,455.827,504.6055,466.154,505.968,475.1453,507.6873,485.9791,510.4979,492.5938,513.0064,495.9266,515.4024,498.9986,518.3361,501.0121,521.5701" style="stroke: #A80036; stroke-width: 1.5;"/><text fill="#000000" font-family="sans-serif" font-size="14" lengthAdjust="spacingAndGlyphs" textLength="140" x="346.2351" y="526.1904">コアテンプレート一覧</text><polygon fill="#FEFECE" filter="url(#f21svc3)" points="843.1549,614.0952,836.1067,617.8879,831.7898,622.7232,821.2611,626.5039,807.4249,629.7151,788.0149,631.7077,770.975,634.065,752.5945,635.8258,732.6417,636.7973,716.9377,638.1207,693.231,637.0006,673.3282,635.9179,658.0777,634.9777,636.1364,631.6413,621.922,629.0246,612.5565,626.4864,598.3809,621.9271,590.3535,617.7785,585.5276,613.4551,587.1427,609.7457,588.4279,605.2702,591.4082,600.5883,600.4123,596.7776,607.6845,592.285,625.7053,589.9887,640.9304,587.0811,653.4485,583.7354,672.6216,582.1478,692.4932,581.1585,711.9056,580.6458,735.7557,581.7973,754.0779,582.5344,774.8753,584.6873,790.7693,586.7017,803.3105,588.9526,821.1225,593.3373,830.0264,596.744,839.464,601.201,842.8262,605.2044,843.8478,609.4902" style="stroke: #A80036; stroke-width: 1.5;"/><text fill="#000000" font-family="sans-serif" font-size="14" lengthAdjust="spacingAndGlyphs" textLength="238" x="595.4371" y="614.1308">コアテンプレートのタイプを変更する</text><polygon fill="#FEFECE" filter="url(#f21svc3)" points="850.7468,521.3254,845.7212,525.8159,833.028,529.1036,821.6262,532.9901,809.0406,536.7797,794.3534,540.1118,778.1558,542.9542,758.6673,544.7626,733.1661,544.7955,714.0671,545.618,693.9324,545.4883,675.1045,544.8116,652.3484,542.364,637.4167,540.6423,616.9891,536.709,605.9047,533.782,592.9496,529.4327,585.8229,525.3747,581.7315,521.0618,579.2072,516.2586,582.5785,512.0121,585.0325,506.9618,591.3119,502.2778,603.7833,498.6241,617.267,495.0301,636.7032,492.7319,651.3446,489.5506,672.3211,488.0662,693.731,487.1426,714.127,486.6025,733.1833,486.4974,755.6035,487.9562,776.2698,489.9488,794.093,492.3,813.041,495.9111,823.5056,498.7032,834.8616,502.7044,845.1159,507.4433,847.1328,511.3046,848.6446,515.8874" style="stroke: #A80036; stroke-width: 1.5;"/><text fill="#000000" font-family="sans-serif" font-size="14" lengthAdjust="spacingAndGlyphs" textLength="252" x="588.5713" y="520.9576">コアテンプレートのフォルダを変更する</text><polygon fill="#FEFECE" filter="url(#f21svc3)" points="500.3367,451.6636,495.6257,454.229,492.0324,457.354,485.856,460.096,475.1196,461.9009,466.1151,464.1014,455.8758,465.9151,443.2602,466.9786,429.9707,467.5839,414.5955,467.3186,404.3,467.7401,389.9313,466.6887,378.198,465.6423,366.3249,463.9265,355.3983,461.7649,346.8105,459.4676,341.7174,457.3067,335.7001,454.2973,331.8047,451.1756,330.4476,448.0915,334.4824,445.7656,336.0252,442.4763,342.8549,440.0907,348.3681,437.1972,356.9216,434.8936,365.6042,432.6194,378.5393,431.4218,391.0684,430.3385,404.444,429.7529,415.954,429.135,430.6427,429.7173,443.3245,430.3833,454.9829,431.4126,466.164,432.9703,475.9176,434.8638,484.5474,437.1707,490.8433,439.6064,495.2906,442.2571,500.3671,445.6487,499.4492,448.2129" style="stroke: #A80036; stroke-width: 1.5;"/><text fill="#000000" font-family="sans-serif" font-size="14" lengthAdjust="spacingAndGlyphs" textLength="140" x="346.2351" y="453.1904">コアテンプレート確認</text><polygon fill="#FEFECE" filter="url(#f21svc3)" points="797.786,435.4235,795.1206,438.4563,789.5551,441.1307,783.2869,443.8517,774.1432,446.0205,764.2051,448.0078,754.0375,449.8378,742.1825,451.0751,727.795,451.4295,714.0268,451.5314,701.5733,451.4598,687.4131,450.456,675.9204,449.4646,665.4592,448.0714,656.4939,446.358,647.7083,444.0155,639.0191,441.0329,635.9203,438.6904,632.7107,435.7253,629.6001,432.2406,630.7687,429.2598,633.609,426.2669,638.0231,423.3294,646.8274,421.1879,656.6916,419.1838,666.3613,417.1352,675.1,414.9787,689.7451,414.3789,700.1627,413.1174,715.4774,413.3688,726.7344,413.167,741.505,414.3103,752.6571,415.2239,765.6976,417.2065,775.8394,419.1887,783.8461,421.3532,791.3615,424.0675,794.4977,426.4187,797.332,429.298,800.5512,432.8075" style="stroke: #A80036; stroke-width: 1.5;"/><text fill="#000000" font-family="sans-serif" font-size="14" lengthAdjust="spacingAndGlyphs" textLength="140" x="644.7351" y="437.1904">現在のテーマにコピー</text><!--entity 管理者--><polygon fill="#FEFECE" filter="url(#f21svc3)" points="34.754,350.8957,33.2299,353.1183,32.3821,354.5333,30.881,355.7296,28.9383,356.3715,27.0829,356.3329,25.2722,356.4139,23.2049,355.4892,20.8599,354.3338,20.4671,352.4871,18.7937,350.5572,19.1366,348.2879,19.664,345.7733,20.2709,344.0116,21.9019,342.1507,24.1762,341.3798,26.6754,340.6681,28.8323,341.0402,30.6722,341.9386,33.125,342.9944,33.8263,345.0639,34.3303,346.737,34.6632,349.0722" style="stroke: #A80036; stroke-width: 2.0;"/><path d="M27,356.6992 L26.8631,356.6992 L26.6668,362.0992 L27.3273,367.4992 L27.5396,372.8992 L26.6739,378.2992 L27,383.6992 M14,364.6992 L14,365.079 L19.2,364.3809 L24.4,364.1677 L29.6,364.4415 L34.8,364.2918 L40,364.6992 M27,383.6992 L26.8211,383.5442 L24.5339,386.8153 L21.8083,389.7064 L18.8015,392.3538 L16.3818,395.5101 L14,398.6992 M27,383.6992 L27.0529,383.7451 L29.5754,386.6779 L32.005,389.5302 L34.5499,392.4825 L37.2245,395.5472 L40,398.6992 " fill="#FEFECE" style="stroke: #A80036; stroke-width: 2.0;"/><text fill="#000000" font-family="sans-serif" font-size="14" lengthAdjust="spacingAndGlyphs" textLength="42" x="6" y="419.2344">管理者</text><path d="M48.12,366.6592 L48.0346,366.5324 L55.9152,360.6446 L64.1048,355.2157 L72.3138,349.8156 L80.1628,343.8809 L88.4534,338.6021 L96.651,333.185 L105.1188,328.1693 L113.2125,322.5981 L121.7575,317.6969 L130.1656,312.5926 L138.113,306.804 L145.5607,300.2733 L154.07,295.3192 " fill="none" style="stroke: #A80036; stroke-width: 1.0;"/><polygon fill="#A80036" points="158.32,292.4592,158.3447,292.5997,156.4013,292.922,154.4807,293.3733,152.5012,293.4895,150.5696,293.8786,148.6194,294.1618,148.6407,294.2704,149.7556,294.5116,150.8457,294.6259,151.903,294.5728,153.0997,295.2318,154.1708,295.2492,153.964,295.2087,153.8409,296.3375,153.7341,297.4694,153.4055,298.5579,153.3192,299.6939,153.0834,300.8006,153.2587,300.9106,154.2416,299.2019,154.9911,297.3467,156.2357,295.8022,157.4123,294.2152,158.32,292.4592" style="stroke: #A80036; stroke-width: 1.0;"/><path d="M205.65,292.2192 L205.7009,292.3109 L210.1603,294.7913 L214.6171,297.2668 L218.9805,299.5743 L223.4045,301.9909 L227.9289,304.5883 L227.8825,304.5019 L230.4933,305.9468 L233.044,307.2797 L235.5863,308.5971 L238.3565,310.3389 L240.8194,311.5084 L240.7714,311.4164 L243.6846,313.1697 L246.1711,314.1056 L249.113,315.9137 L251.7917,317.2178 L254.5512,318.6767 L254.6894,318.9504 L257.3923,320.0749 L260.3856,321.7745 L263.2571,323.233 L266.0172,324.4708 L268.8798,325.9116 L268.9682,326.0939 L271.9212,327.5526 L274.6798,328.6105 L277.5897,329.9803 L280.6628,331.6868 L283.5605,333.0314 L283.6947,333.3224 L286.4078,334.1568 L289.489,335.7893 L292.5604,337.4006 L295.3501,338.401 L298.3487,339.8545 L298.2893,339.7173 L301.2118,340.9683 L304.3063,342.6164 L307.0783,343.5199 L310.0594,344.9065 L313,346.1992 L312.9578,346.0944 L315.0117,347.1182 L316.8689,347.6534 L318.7667,348.2893 L320.8901,349.4857 L322.7958,350.1414 L322.8028,350.1601 L324.8624,351.0376 L326.8435,351.7072 L328.7278,352.1197 L330.9265,353.3663 L332.8719,353.9409 L332.9445,354.1448 L334.8182,354.4103 L336.9524,355.4069 L338.9141,355.9194 L340.931,356.5867 L343.0614,357.5724 L343.1642,357.8755 L344.9943,357.9818 L347.1877,359.1595 L349.2301,359.8919 L351.2148,360.4542 L353.1975,361.0105 L353.1335,360.8097 L357.1072,362.3147 L361.0287,363.6557 L364.8571,364.7048 L368.8397,366.2376 L372.6419,367.2044 L372.6353,367.1822 L376.0255,368.0187 L379.4491,368.9674 L383.0146,370.394 L386.4529,371.3925 L389.87,372.3192 " fill="none" style="stroke: #A80036; stroke-width: 1.0;"/><polygon fill="#A80036" points="394.71,373.6992,394.6874,373.6721,393.2635,372.5151,391.6441,371.1238,390.3159,370.0814,388.6691,368.6574,387.1502,367.3866,387.0316,367.3205,387.8589,368.4633,388.4637,369.4823,388.9472,370.4337,389.3585,371.3449,389.9013,372.3294,389.8384,372.2163,388.9716,372.9854,387.8826,373.3551,386.8544,373.8341,385.9783,374.5864,384.9585,375.0805,384.9667,375.1382,386.931,374.961,388.8808,374.6813,390.8258,374.3676,392.7543,373.937,394.71,373.6992" style="stroke: #A80036; stroke-width: 1.0;"/><path d="M439.29,377.9992 L439.3151,378.4646 L449.2078,378.1514 L459.0314,376.5589 L468.9677,377.0541 L478.8018,375.6547 L488.6434,374.3963 L498.5743,374.791 L508.4832,374.7774 L518.3043,373.1394 L528.2593,373.9799 L538.1436,373.5122 L548.0281,373.0474 L557.8661,371.7211 L567.7628,371.483 L577.6724,371.4826 L587.545,370.7976 L597.3704,369.238 L607.2771,369.1857 L617.0974,367.5316 L626.9815,367.0577 L636.8651,366.5767 L646.7759,366.5997 L656.6155,365.3025 L666.5059,364.9481 L676.4788,366.122 L686.31,364.6692 " fill="none" style="stroke: #A80036; stroke-width: 1.0;"/><polygon fill="#A80036" points="691.36,364.3892,691.305,364.2448,689.592,363.8795,687.6989,363.0413,685.8695,362.3704,683.9296,361.4092,682.1559,360.8844,682.1556,360.884,682.9143,361.5462,684.0015,362.5747,684.5957,363.0533,685.4896,363.8661,686.3674,364.661,686.2544,364.5597,685.666,365.5517,684.7097,366.2138,684.1267,367.2106,683.219,367.9162,682.5908,368.8726,682.6896,369.0659,684.3158,367.9195,686.1107,367.1033,687.8911,366.2585,689.6816,365.4335,691.36,364.3892" style="stroke: #A80036; stroke-width: 1.0;"/><path d="M436.85,372.9392 L436.8298,372.8739 L442.4587,371.3738 L447.9803,369.5271 L453.5289,367.7678 L459.0507,365.9216 L464.6536,364.3375 L464.6869,364.448 L471.798,362.4504 L478.7054,359.7788 L485.903,358.068 L493.0201,356.0904 L500.0013,353.663 L499.9097,353.3491 L507.8941,351.4749 L515.6879,348.9471 L523.6159,346.8793 L531.4397,344.4545 L539.3108,342.1916 L539.3553,342.3498 L543.3205,341.0841 L547.2855,339.8174 L551.3079,338.7551 L555.4134,337.9876 L559.3318,336.5558 L559.3776,336.7238 L563.3172,335.6744 L567.2804,334.7119 L571.1526,333.4149 L575.0355,332.1573 L579,331.1992 L578.9316,330.9349 L584.3032,329.9062 L589.5837,328.5255 L594.8472,327.0788 L600.1977,325.9688 L605.4211,324.3673 L605.3721,324.1682 L610.8004,323.1719 L616.1125,321.7029 L621.4431,320.3093 L626.7919,318.9896 L632.1713,317.7942 L632.2073,317.9468 L637.1997,316.3391 L642.2968,315.1746 L647.3969,314.0226 L652.5007,312.8859 L657.6108,311.7761 L657.5411,311.473 L662.1779,311.0444 L666.6189,309.7635 L671.1581,308.9102 L675.5897,307.5884 L680.1,306.6092 " fill="none" style="stroke: #A80036; stroke-width: 1.0;"/><polygon fill="#A80036" points="685.05,305.4992,685.0047,305.272,683.1413,305.2299,681.1761,304.6769,679.3023,304.5827,677.3168,303.928,675.3912,303.5737,675.3202,303.4614,676.2639,304.0466,677.278,304.7428,678.3426,305.5191,679.1879,305.9484,680.1721,306.5975,680.2958,306.6757,679.7138,307.6463,678.8057,308.4106,678.2124,309.374,677.8767,310.5003,677.1484,311.3784,677.0077,311.1893,678.6998,310.1637,680.3906,309.1364,681.7671,307.6866,683.3653,306.5347,685.05,305.4992" style="stroke: #A80036; stroke-width: 1.0;"/><path d="M438.62,376.0992 L438.5647,375.8398 L442.2636,375.1822 L445.928,374.3622 L449.5801,373.4849 L453.3722,373.2645 L456.9816,372.1867 L457.0551,372.4634 L459.0313,371.6398 L461.0973,371.1543 L463.0603,370.2813 L465.2383,370.217 L467.2326,369.4617 L467.2266,369.4424 L469.2887,368.5796 L471.3969,367.8651 L473.5343,367.2445 L475.82,367.101 L477.8575,366.1592 L477.7523,365.8715 L480.0041,365.3675 L482.2211,364.7682 L484.3011,363.7945 L486.5419,363.2602 L488.6014,362.2305 L488.6829,362.4182 L490.6313,361.0981 L492.9496,360.6305 L494.9119,359.3427 L496.9857,358.3116 L499.2097,357.6267 L499.1023,357.4208 L501.3974,356.8376 L503.1721,355.2566 L505.2867,354.3273 L507.4131,353.4207 L509.4275,352.2992 L509.451,352.3361 L511.185,350.8329 L513.3045,349.9347 L515.0388,348.4318 L517.2169,347.6255 L519,346.1992 L518.898,346.0799 L521.423,344.4232 L523.4654,342.2018 L525.9785,340.5312 L528.1403,338.4496 L530.3875,336.4678 L530.1905,336.3107 L531.8339,334.3533 L533.688,332.5638 L535.1529,330.464 L536.6622,328.3996 L538.3509,326.4783 L538.5211,326.5739 L539.2231,324.3004 L540.826,322.5331 L541.6294,320.3166 L542.7455,318.2758 L544.0471,316.3393 L543.8093,316.2321 L544.6675,314.1696 L545.6567,312.1661 L546.7691,310.2181 L547.6697,308.1746 L548.6325,306.1592 L548.5987,306.1437 L549.7648,304.2311 L550.356,302.0551 L551.4277,300.0992 L552.5916,298.1855 L553.2639,296.0467 L553.2534,296.0405 L554.4872,294.0926 L555.8432,292.2163 L556.6852,290.0384 L558.1193,288.208 L559.0978,286.1102 L559.2129,286.2078 L560.8109,284.2429 L562.3516,282.2295 L563.939,280.2555 L565.838,278.5462 L567.291,276.4582 L567.3328,276.5111 L569.5073,274.4476 L571.7867,272.517 L574.146,270.6873 L576.7351,269.1482 L579,267.1992 L578.8714,266.9803 L581.0019,265.924 L583.122,264.85 L585.2381,263.7691 L587.3086,262.6107 L589.2259,261.1915 L589.1561,261.0464 L591.4736,260.3248 L593.5187,259.0372 L595.7851,258.2093 L597.9544,257.1797 L600.0444,255.9853 L600.1524,256.2574 L602.1684,254.7849 L604.5776,254.3025 L606.7108,253.1251 L608.9818,252.2947 L611.2763,251.5232 L611.334,251.6986 L613.6216,250.9265 L615.8114,249.8573 L618.0661,248.9849 L620.5133,248.6977 L622.7425,247.748 L622.829,248.0647 L625.1126,247.3596 L627.3773,246.5856 L629.7145,246.0769 L631.9999,245.3786 L634.2641,244.6022 L634.3038,244.7781 L636.5561,244.1428 L638.834,243.6206 L641.1078,243.0807 L643.3187,242.2617 L645.6619,242.0288 L645.6878,242.1686 L647.8897,241.6646 L650.1285,241.3596 L652.2652,240.5045 L654.485,240.0968 L656.7569,239.9702 L656.7763,240.0991 L658.8809,239.6592 L660.9552,239.0186 L663.1418,239.1223 L665.2185,238.4981 L667.37,238.3692 " fill="none" style="stroke: #A80036; stroke-width: 1.0;"/><polygon fill="#A80036" points="672.41,237.7292,672.3446,237.5095,670.5482,237.2551,668.6125,236.5327,666.7375,236.0143,664.8026,235.2948,662.9703,234.9199,663.0341,235.0026,663.8639,235.6069,664.7896,236.3356,665.62,236.9406,666.4476,237.542,667.4515,238.3722,667.6348,238.5134,666.9242,239.3942,666.0821,240.1736,665.5522,241.1936,664.6159,241.9004,663.9992,242.8535,664.0762,242.9799,665.7153,241.8844,667.4588,240.9602,669.1307,239.9185,670.7394,238.7731,672.41,237.7292" style="stroke: #A80036; stroke-width: 1.0;"/><path d="M439.18,377.3692 L439.1305,377.0813 L442.9663,376.7389 L446.7113,375.8681 L450.5585,375.592 L454.3461,374.9687 L458.0939,374.1147 L458.0779,374.0488 L460.1226,373.3547 L462.2218,372.8855 L464.3176,372.4019 L466.4077,371.895 L468.5444,371.5806 L468.5443,371.5802 L470.6518,370.8069 L472.8378,370.2918 L474.8998,369.369 L477.1971,369.2198 L479.2663,368.3205 L479.2792,368.3544 L481.444,367.6043 L483.5934,366.8137 L485.7845,366.1323 L487.8995,365.2514 L489.966,364.2433 L489.9328,364.1742 L491.9354,363.0224 L494.2619,362.5451 L496.0618,360.9711 L498.3642,360.444 L500.3505,359.2581 L500.3739,359.2964 L502.4468,358.2918 L504.2908,356.9134 L506.0917,355.4647 L508.1559,354.4459 L510.1262,353.2738 L509.9891,353.1017 L511.9055,351.8645 L513.8758,350.6949 L515.4653,349.0476 L517.0463,347.3897 L519,346.1992 L519.0604,346.2574 L520.6043,344.3547 L522.301,342.599 L524.0573,340.9008 L525.5514,338.9502 L527.4649,337.4031 L527.4733,337.4094 L528.6749,335.5523 L530.1789,333.918 L531.2201,331.9428 L532.83,330.3865 L534.0124,328.5154 L533.874,328.4504 L535.6334,324.8855 L537.5466,321.3929 L539.1456,317.7527 L540.6882,314.0861 L542.46,310.527 L542.4015,310.5139 L543.239,306.8846 L543.9283,303.2219 L545.0525,299.6572 L545.7039,295.9861 L546.552,292.3592 L546.755,292.3809 L546.8299,288.7028 L547.6052,285.0996 L547.4236,281.3941 L547.9918,277.7688 L548.4975,274.1367 L548.441,274.1305 L549.0127,270.5189 L549.5763,266.9063 L549.7832,263.2544 L549.9642,259.5995 L550.5059,255.9846 L550.3739,255.9531 L551.4636,252.4174 L551.9048,248.7271 L552.8331,245.153 L553.698,241.5637 L554.7862,238.0277 L555.0029,238.1353 L556.6264,234.5439 L558.5198,231.0867 L559.953,227.4008 L561.7469,223.8941 L563.5479,220.3909 L563.7192,220.5244 L564.7882,218.5733 L566.0894,216.8031 L567.434,215.0668 L568.8774,213.4074 L570.2996,211.7316 L570.1144,211.5428 L572.0292,210.0145 L573.6961,208.2334 L575.5387,206.6314 L577.0391,204.6806 L579,203.1992 L579.1187,203.3626 L581.8782,201.3655 L584.4051,199.0481 L587.2043,197.1057 L590.0761,195.2631 L592.7792,193.1883 L592.7052,193.0458 L595.766,191.4766 L598.7999,189.8557 L602.0831,188.7144 L604.9429,186.7584 L608.0387,185.2567 L608.1278,185.4928 L611.2876,184.0924 L614.4419,182.6776 L617.6513,181.409 L620.9795,180.4551 L624.1814,179.1664 L624.1255,178.9616 L627.5116,178.4319 L630.6794,177.1025 L634.0753,176.6085 L637.2547,175.322 L640.61,174.6792 " fill="none" style="stroke: #A80036; stroke-width: 1.0;"/><polygon fill="#A80036" points="645.54,173.5992,645.4952,173.3811,643.6157,173.2292,641.657,172.6912,639.7713,172.5094,637.7729,171.7782,635.8921,171.6199,635.9692,171.7404,636.891,172.302,637.7557,172.7745,638.8577,173.6176,639.8332,174.2631,640.6561,174.6703,640.8268,174.7796,640.2564,175.7578,639.3456,176.518,638.6266,177.4011,638.388,178.5917,637.6057,179.4342,637.6759,179.5297,639.2166,178.2999,640.6507,176.9252,642.4467,176.0426,643.8733,174.6576,645.54,173.5992" style="stroke: #A80036; stroke-width: 1.0;"/><path d="M439.27,377.9492 L439.3179,378.2631 L443.1479,377.5574 L446.9743,376.8284 L450.8291,376.2851 L454.6145,375.2872 L458.5102,375.0119 L458.5352,375.1205 L460.6923,374.8056 L462.7261,373.9557 L464.8781,373.619 L466.9873,373.0959 L469.0964,372.5729 L469.188,372.8791 L471.2758,371.9859 L473.324,370.9604 L475.4988,370.3579 L477.784,370.1245 L479.9037,369.338 L480.0185,369.6346 L481.9608,368.2891 L484.1244,367.5158 L486.3987,367.0285 L488.4758,366.0315 L490.615,365.195 L490.7069,365.3783 L492.8117,364.4358 L494.7273,363.1161 L496.9042,362.3176 L498.8109,360.9799 L500.913,360.0322 L500.9631,360.1084 L502.6761,358.5447 L504.8158,357.6296 L506.5582,356.1107 L508.7452,355.2676 L510.4804,353.7376 L510.5633,353.8312 L512.3561,352.424 L514.0587,350.9149 L515.5111,349.1229 L517.3101,347.7227 L519,346.1992 L519.1231,346.3022 L521.4131,343.6913 L523.4404,340.8605 L525.4976,338.0548 L527.78,335.4375 L530.1412,332.8862 L530.0993,332.8607 L531.9813,330.3438 L533.4675,327.5858 L534.9614,324.8325 L536.5856,322.1586 L538.278,319.5262 L538.2339,319.5079 L539.4697,316.8795 L540.8019,314.2912 L541.4323,311.4114 L542.5917,308.7513 L543.8433,306.1295 L543.6385,306.0772 L544.5083,303.4396 L545.3513,300.7952 L545.5986,297.9987 L546.5917,295.3926 L547.2694,292.7059 L547.4911,292.7343 L547.6954,290.0284 L548.0177,287.3376 L548.2342,284.6332 L548.3694,281.9185 L548.989,279.2657 L549.2621,279.2748 L548.8658,276.5693 L549.4499,273.8963 L549.0752,271.1916 L549.5869,268.5162 L549.4348,265.8188 L549.2975,265.8148 L549.6707,263.1394 L549.395,260.445 L548.9814,257.7464 L549.2621,255.0683 L549.0392,252.3754 L549.0741,252.3775 L548.7707,249.683 L548.8219,247.0097 L548.8827,244.337 L548.3069,241.6261 L548.235,238.9455 L548.5069,238.9613 L548.1394,236.2677 L547.9843,233.5865 L547.6718,230.8961 L547.6259,228.2212 L547.4547,225.5391 L547.5387,225.5411 L547.2152,222.8603 L547.0273,220.1828 L547.0537,217.5104 L546.9869,214.8358 L547.1309,212.1663 L547.4301,212.179 L547.2436,209.5005 L547.2684,206.8309 L547.7587,204.1811 L547.8027,201.5124 L547.6961,198.8372 L547.6072,198.8246 L548.0617,196.1805 L548.5395,193.5397 L549.0768,190.9073 L549.1711,188.212 L549.5831,185.5619 L549.4505,185.5253 L549.9917,182.8315 L551.151,180.308 L551.6364,177.5987 L552.5898,175.0185 L553.2244,172.3503 L553.2788,172.3745 L554.3203,169.6919 L555.8588,167.2298 L556.6791,164.449 L558.0056,161.8928 L559.0526,159.2127 L558.8647,159.0911 L560.6614,156.5497 L562.3958,153.968 L564.117,151.3778 L566.0031,148.8942 L567.5002,146.1589 L567.5934,146.2416 L569.6447,143.429 L571.9081,140.8047 L574.4922,138.4649 L576.6264,135.7258 L579,133.1992 L579.1948,133.4371 L581.3507,131.157 L583.9777,129.4522 L586.3634,127.4527 L588.7344,125.4353 L591.0403,123.3384 L591.1974,123.6077 L593.7821,121.8263 L596.508,120.2868 L599.0448,118.4232 L601.9855,117.252 L604.56,115.453 L604.5712,115.4796 L607.3731,114.0175 L610.3318,112.9271 L613.1692,111.5492 L616.2927,110.8492 L619.0697,109.3281 L619.0663,109.317 L622.1233,108.5812 L625.1347,107.6962 L628.0121,106.3719 L631.1348,105.8515 L634.08,104.7492 " fill="none" style="stroke: #A80036; stroke-width: 1.0;"/><polygon fill="#A80036" points="639.19,103.5092,639.1795,103.4514,637.2822,103.328,635.329,102.8959,633.4034,102.616,631.4271,102.0558,629.4981,101.7577,629.5027,101.7652,630.4197,102.2706,631.3118,102.7348,632.5182,103.7166,633.4301,104.2135,634.3326,104.695,634.4616,104.7734,633.8039,105.6976,633.0793,106.5811,632.4368,107.5146,632.0662,108.6132,631.3954,109.5295,631.3058,109.4136,632.9015,108.257,634.5378,107.1533,636.1039,105.9585,637.5388,104.5938,639.19,103.5092" style="stroke: #A80036; stroke-width: 1.0;"/><path d="M233.9,285.8292 L233.9702,286.3112 L243.6173,288.2064 L253.141,289.2542 L262.62,289.9943 L272.3358,292.3616 L281.7147,292.4148 L291.23,293.4045 L300.864,295.2093 L310.4659,296.7943 L320.0013,297.9218 L329.5264,298.979 L339.235,301.2969 L348.79,302.5592 " fill="none" style="stroke: #A80036; stroke-width: 1.0;"/><polygon fill="#A80036" points="354.1,303.3292,354.186,303.4651,352.3101,302.0767,350.714,301.1301,349.0929,300.1441,347.3998,299.0444,345.7795,298.0596,345.7598,298.0449,346.3912,298.9208,347.1094,299.8611,347.8246,300.7993,348.6393,301.8114,349.1534,302.6001,349.1665,302.6176,348.2862,303.3299,347.4052,304.0411,346.4,304.5852,345.6447,305.4657,344.6129,305.9741,344.656,306.1286,346.5258,305.5005,348.4597,305.1025,350.3322,304.484,352.2317,303.9627,354.1,303.3292" style="stroke: #A80036; stroke-width: 1.0;"/><path d="M233.61,270.3892 L233.581,270.1954 L243.1839,268.6397 L252.7596,266.9024 L262.5527,266.6159 L272.1071,264.7366 L281.6006,262.4507 L291.4135,262.2962 L300.8867,259.8749 L310.4962,258.3633 L320.1793,257.3429 L329.9238,256.7316 L339.5182,255.1192 L349.05,253.0892 " fill="none" style="stroke: #A80036; stroke-width: 1.0;"/><polygon fill="#A80036" points="354.38,252.2892,354.3866,252.3133,352.4501,251.6531,350.5715,251.2031,348.6842,250.7218,346.8114,250.2929,344.8855,249.6712,345.0321,249.8697,345.7697,250.3086,346.6524,250.9438,347.6176,251.6907,348.642,252.5177,349.4355,253.0323,349.4461,253.0401,348.793,253.9643,347.909,254.7179,347.3387,255.7031,346.7358,256.6644,346.0744,257.5824,346.0099,257.4812,347.6029,256.3156,349.2896,255.2971,351.0889,254.4553,352.711,253.3354,354.38,252.2892" style="stroke: #A80036; stroke-width: 1.0;"/><path d="M205.32,264.4492 L205.2161,264.2636 L209.7255,261.8168 L214.2457,259.3893 L218.7005,256.8449 L223.3752,254.6935 L227.7039,251.9238 L227.7832,252.0702 L233.1887,249.2701 L238.3677,246.0515 L243.6418,243.0088 L248.9888,240.1005 L254.4688,237.438 L254.3276,237.1686 L257.2236,235.6953 L260.2867,234.5411 L263.2158,233.1309 L265.8734,231.2027 L268.858,229.8985 L268.938,230.0556 L271.7491,228.2936 L274.6164,226.6421 L277.5594,225.139 L280.7476,224.117 L283.5792,222.3953 L283.4454,222.1238 L286.5063,220.8706 L289.5491,219.5809 L292.3816,217.8643 L295.476,216.6792 L298.378,215.1037 L298.2978,214.9338 L301.2152,213.5382 L304.1359,212.1495 L307.1071,210.8676 L309.9694,209.3553 L313,208.1992 L312.9199,208.0208 L315.111,207.1765 L317.3539,206.4479 L319.5043,205.5128 L321.6044,204.4659 L323.6956,203.3992 L323.6623,203.3217 L325.9361,202.5537 L328.1281,201.5955 L330.3044,200.6006 L332.4596,199.5563 L334.6875,198.6817 L334.6926,198.6942 L339.2082,197.17 L343.5674,195.2612 L347.852,193.169 L352.3514,191.6049 L356.72,189.7192 " fill="none" style="stroke: #A80036; stroke-width: 1.0;"/><polygon fill="#A80036" points="361.57,187.8092,361.568,187.7634,359.6111,187.9252,357.6252,187.4304,355.6702,187.6341,353.7071,187.6556,351.7307,187.3752,351.7094,187.3263,352.745,187.7754,353.8372,188.3542,354.8528,188.7572,355.8985,189.2293,356.9159,189.6366,357.0601,189.6995,356.5117,190.6946,356.1387,191.7662,355.3431,192.6535,355.2094,193.8295,354.6545,194.8218,354.5485,194.7172,356.178,193.5577,357.4414,192.0372,358.6788,190.4909,360.0757,189.1021,361.57,187.8092" style="stroke: #A80036; stroke-width: 1.0;"/><path d="M190.39,263.3492 L190.1423,263.1903 L192.0779,260.7676 L193.7162,258.1542 L195.533,255.6553 L196.8375,252.8277 L198.7173,250.3693 L198.81,250.4324 L200.7385,247.1278 L203.2783,244.2395 L205.1616,240.9041 L207.3211,237.7568 L209.4606,234.5959 L209.2475,234.4434 L210.7975,232.9279 L211.9169,231.1041 L213.3968,229.5385 L214.6229,227.7911 L215.6732,225.9179 L215.8652,226.0606 L217.1493,224.1995 L218.2865,222.2293 L219.5486,220.3519 L221.0478,218.6506 L222.4117,216.8489 L222.6499,217.0331 L224.0019,215.0877 L225.2793,213.0844 L226.9689,211.4001 L228.4061,209.5205 L229.6502,207.4915 L229.4153,207.3016 L231.2868,205.6589 L232.948,203.8461 L234.2518,201.7446 L235.9826,199.988 L237.3625,197.948 L237.5425,198.1005 L238.7844,195.8444 L240.5648,194.0448 L242.3165,192.2208 L243.7104,190.0935 L245.5227,188.3209 L245.6082,188.3973 L247.316,186.468 L249.0479,184.5602 L250.9024,182.7618 L252.1865,180.4541 L254.1048,178.7128 L253.9871,178.6013 L255.8523,176.7699 L257.8751,175.0875 L259.4223,172.9551 L261.5198,171.3435 L263.0828,169.226 L262.9937,169.1361 L264.7509,167.1701 L266.7765,165.4751 L268.7238,163.7008 L270.6974,161.9533 L272.4306,159.9631 L272.3693,159.8966 L274.2777,158.0769 L276.1681,156.2375 L278.194,154.5452 L280.2161,152.8487 L282.1223,151.0265 L282.067,150.9615 L284.1144,149.3135 L285.9836,147.4558 L288.0909,145.8782 L290.0642,144.1431 L292.1317,142.5187 L292.253,142.6753 L294.2959,141.0575 L296.3035,139.3943 L298.4981,137.9724 L300.316,136.0642 L302.433,134.5421 L302.6115,134.799 L304.6201,133.1796 L306.6983,131.6604 L308.911,130.3347 L310.9782,128.7997 L313,127.1992 L312.8823,127.0018 L314.7418,126.0517 L316.732,125.3209 L318.2937,123.8713 L320.2165,123.0275 L321.9492,121.8646 L322.0248,122.0155 L323.8901,121.014 L325.6922,119.8861 L327.5575,118.8844 L329.5844,118.2054 L331.4113,117.127 L331.351,116.9858 L333.3155,116.17 L335.2612,115.31 L337.2918,114.6489 L339.1954,113.6905 L341.1939,112.9543 L341.0843,112.6558 L343.2867,112.5274 L345.1829,111.5652 L347.0277,110.4631 L349.1598,110.1429 L351.105,109.3142 L351.1085,109.3252 L353.069,108.6691 L355.0401,108.0465 L356.9391,107.1976 L359.0484,107.0082 L360.9523,106.1748 L361.0338,106.4673 L362.8668,105.627 L364.7571,104.9921 L366.665,104.4208 L368.6749,104.2156 L370.5438,103.5039 L370.5124,103.3677 L374.1032,102.8222 L377.6332,102.0126 L381.1651,101.2112 L384.6353,100.1415 L388.19,99.4392 " fill="none" style="stroke: #A80036; stroke-width: 1.0;"/><polygon fill="#A80036" points="393.21,98.4692,393.2239,98.5296,391.2844,98.0026,389.3476,97.4873,387.4806,97.2758,385.5736,96.89,383.6113,96.2636,383.5107,96.1143,384.5151,96.8448,385.5575,97.6318,386.4851,98.2484,387.4164,98.8705,388.3022,99.4251,388.4076,99.4961,387.4882,100.2408,386.844,101.171,386.4705,102.2836,385.9747,103.3137,385.1407,104.116,385.2,104.2008,386.7145,102.9295,388.2935,101.7503,390.0128,100.7715,391.7198,99.7753,393.21,98.4692" style="stroke: #A80036; stroke-width: 1.0;"/><path d="M48.12,389.2292 L48.3269,389.6903 L57.0795,392.6158 L66.8045,397.7083 L76.089,401.8191 L85.7558,406.7816 L94.5839,409.8756 L103.946,414.1593 L113.6993,419.3146 L123.0073,423.4779 L132.2572,427.5116 L141.28,431.0392 " fill="none" style="stroke: #A80036; stroke-width: 1.0;"/><polygon fill="#A80036" points="145.94,433.1392,146.0943,433.2776,144.7525,431.7875,143.1762,430.0871,142.106,428.8406,140.6617,427.2585,139.3636,425.8077,139.5505,425.8789,139.9249,426.9253,140.3642,427.9965,140.3857,428.9085,141.0849,430.0787,141.3775,431.0939,141.3637,431.0579,140.3958,431.6952,139.3512,432.1311,138.211,432.316,137.1811,432.7907,136.0912,433.1078,136.0909,433.0255,138.0607,433.0382,140.0308,433.1504,142.0008,433.2141,143.9705,433.2059,145.94,433.1392" style="stroke: #A80036; stroke-width: 1.0;"/><path d="M224.87,461.7592 L224.8515,461.7 L234.6105,464.8887 L244.1725,467.447 L254.2929,471.7915 L263.9819,474.7563 L273.6063,477.5143 L283.0726,479.7668 L292.6745,482.4529 L302.5279,485.9435 L312.3221,489.2445 L322.1874,492.7733 L331.5006,494.5358 L341.4015,498.1782 L351.3963,502.1211 L360.83,504.2692 " fill="none" style="stroke: #A80036; stroke-width: 1.0;"/><polygon fill="#A80036" points="365.8,505.8192,365.6761,505.6788,364.3226,504.516,362.7278,503.0797,361.3575,501.8979,359.9025,500.6202,358.4139,499.3042,358.4204,499.3076,358.9499,500.314,359.3856,501.2714,359.9573,502.2998,360.4767,503.3009,361.0301,504.3197,361.1298,504.5107,359.9276,504.6522,358.9204,505.1677,358.098,506.0373,357.0024,506.3833,356.0147,506.936,355.9901,506.7207,357.9611,506.6199,359.9312,506.5103,361.9121,506.4957,363.8455,506.065,365.8,505.8192" style="stroke: #A80036; stroke-width: 1.0;"/><path d="M467.63,536.2292 L467.8682,537.0317 L477.4622,539.5736 L486.7799,541.1844 L496.4476,543.9743 L506.5858,548.3497 L516.308,551.3231 L526.0619,554.4037 L535.5988,556.7531 L544.9416,558.4485 L554.724,561.6247 L564.6616,565.3244 L574.1661,567.5645 L583.9928,570.89 L593.8135,574.1958 L603.5602,577.2521 L613.2515,580.1215 L622.7541,582.3552 L632.42,585.1392 " fill="none" style="stroke: #A80036; stroke-width: 1.0;"/><polygon fill="#A80036" points="637.47,586.6292,637.4409,586.595,636.0367,585.4321,634.4121,584.0101,632.8657,582.68,631.4149,581.4624,629.9675,580.2486,630.0435,580.2901,630.5378,581.258,631.125,582.2765,631.4255,583.1388,631.9463,584.1211,632.6739,585.2161,632.7284,585.3161,631.7461,585.8779,630.5995,586.1382,629.7427,586.9303,628.7075,587.3951,627.7064,587.9225,627.7101,587.9504,629.6459,587.5637,631.6219,587.4814,633.5379,586.9452,635.5026,586.7769,637.47,586.6292" style="stroke: #A80036; stroke-width: 1.0;"/><path d="M499.99,519.7992 L499.9765,518.9973 L510.608,519.673 L521.2192,519.1421 L531.8466,519.5723 L542.4458,518.3244 L553.0887,519.6801 L563.6973,518.9913 L574.31,518.5492 " fill="none" style="stroke: #A80036; stroke-width: 1.0;"/><polygon fill="#A80036" points="579.39,518.4592,579.3001,518.2472,577.5676,517.669,575.8066,517.0236,573.9578,516.1714,572.1274,515.3623,570.3228,514.6141,570.2477,514.5363,571.0847,515.3468,571.8615,516.0949,572.5994,516.8027,573.6331,517.8167,574.3907,518.5449,574.3491,518.5047,573.6445,519.3971,572.9687,520.3174,571.9066,520.8643,571.1173,521.6749,570.4599,522.6129,570.4165,522.5196,572.2639,521.8208,574.0214,520.9288,575.7797,520.0384,577.6795,519.4523,579.39,518.4592" style="stroke: #A80036; stroke-width: 1.0;"/><path d="M253.14,448.1992 L253.14,447.2586 L263.6171,447.9974 L274.0943,448.5156 L284.5714,447.9504 L295.0486,448.3161 L305.5257,449.0703 L316.0029,449.1745 L326.48,448.1992 " fill="none" style="stroke: #A80036; stroke-width: 1.0;"/><polygon fill="#A80036" points="331.62,448.1992,331.6491,448.2647,329.8424,447.4497,328.0284,446.6181,326.1417,445.623,324.3541,444.8509,322.62,444.1992,322.5384,444.1177,323.4395,445.0188,324.3466,445.9259,325.0274,446.6066,325.74,447.3192,326.62,448.1992,326.5853,448.1645,325.9413,449.1205,324.905,449.6842,324.26,450.6393,323.3509,451.3302,322.62,452.1992,322.6439,452.253,324.4011,451.3566,326.1517,450.4456,328.0031,449.7612,329.7638,448.8727,331.62,448.1992" style="stroke: #A80036; stroke-width: 1.0;"/><path d="M498.02,443.8292 L498.048,444.3479 L507.9293,442.8665 L517.8849,442.7624 L527.812,442.1298 L537.7709,442.0863 L547.7207,441.8743 L557.5989,440.3346 L567.5784,440.6733 L577.4273,438.5921 L587.4546,439.8154 L597.2964,437.6027 L607.2593,437.6333 L617.1576,436.4666 L627.14,436.8592 " fill="none" style="stroke: #A80036; stroke-width: 1.0;"/><polygon fill="#A80036" points="632.58,436.5692,632.5988,436.6186,630.8021,436.0334,628.9736,435.3648,627.0249,434.3805,625.2235,433.7833,623.3759,433.0644,623.2185,432.8889,624.0809,433.6666,624.9118,434.4092,625.9627,435.3971,626.8295,436.1798,627.5874,436.841,627.7685,437.0034,626.7574,437.6164,626.2211,438.6551,625.4219,439.4581,624.5358,440.1831,623.8108,441.0526,623.7916,441.0151,625.6015,440.2281,627.2714,439.1672,628.9755,438.1732,630.7368,437.2912,632.58,436.5692" style="stroke: #A80036; stroke-width: 1.0;"/></g></svg>