<?xml version="1.0" encoding="UTF-8" standalone="no"?><svg xmlns="http://www.w3.org/2000/svg" xmlns:xlink="http://www.w3.org/1999/xlink" contentScriptType="application/ecmascript" contentStyleType="text/css" height="394px" preserveAspectRatio="none" style="width:218px;height:394px;" version="1.1" viewBox="0 0 218 394" width="218px" zoomAndPan="magnify"><defs><filter height="300%" id="fksp6j5" width="300%" x="-1" y="-1"><feGaussianBlur result="blurOut" stdDeviation="2.0"/><feColorMatrix in="blurOut" result="blurOut2" type="matrix" values="0 0 0 0 0 0 0 0 0 0 0 0 0 0 0 0 0 0 .4 0"/><feOffset dx="4.0" dy="4.0" in="blurOut2" result="blurOut3"/><feBlend in="SourceGraphic" in2="blurOut3" mode="normal"/></filter></defs><g><text fill="#000000" font-family="sans-serif" font-size="18" lengthAdjust="spacingAndGlyphs" textLength="126" x="50.5" y="17.4023">ブログ記事管理</text><!--class Api\BlogPostsController--><polygon fill="#FEFECE" filter="url(#fksp6j5)" points="16.5,29.1992,16.5,29.8651,26.6111,28.4962,36.7222,28.9658,46.8333,28.4714,56.9444,28.643,67.0556,28.484,77.1667,28.482,87.2778,28.6029,97.3889,29.1025,107.5,29.2177,117.6111,28.8901,127.7222,28.7488,137.8333,28.7196,147.9444,28.8599,158.0556,28.6166,168.1667,29.2062,178.2778,28.8754,188.3889,29.1518,198.5,29.1992,198.2731,29.1992,198.5304,38.9948,199.1636,48.7903,198.591,58.5858,199.2042,68.3813,197.8058,78.1769,198.8779,87.9724,198.1619,97.7679,198.1531,107.5635,198.1148,117.359,197.7537,127.1545,199.1736,136.9501,199.2444,146.7456,198.7769,156.5411,198.9306,166.3367,198.2146,176.1322,198.5,185.9277,198.5,185.8935,188.3889,185.4681,178.2778,186.672,168.1667,186.0021,158.0556,185.3525,147.9444,185.1848,137.8333,185.3954,127.7222,186.2301,117.6111,186.5479,107.5,185.3437,97.3889,185.6768,87.2778,186.0768,77.1667,186.4138,67.0556,185.8567,56.9444,185.8526,46.8333,185.5551,36.7222,186.6599,26.6111,186.3876,16.5,185.9277,15.8159,185.9277,16.0574,176.1322,17.2248,166.3367,16.0632,156.5411,15.7529,146.7456,16.4091,136.9501,16.3295,127.1545,16.4511,117.359,16.4121,107.5635,16.5343,97.7679,15.7615,87.9724,16.8389,78.1769,17.0886,68.3813,15.9932,58.5858,16.0721,48.7903,16.0305,38.9948,16.5,29.1992" style="stroke: #A80036; stroke-width: 1.5;"/><text fill="#000000" font-family="sans-serif" font-size="12" lengthAdjust="spacingAndGlyphs" textLength="135" x="40" y="45.8008">Api\BlogPostsController</text><path d="M17.5,53.332 L17.5,52.3622 L27.5,54.1453 L37.5,53.9077 L47.5,54.2507 L57.5,53.7975 L67.5,53.5478 L77.5,53.8105 L87.5,53.4769 L97.5,53.8468 L107.5,52.9245 L117.5,53.3073 L127.5,54.3224 L137.5,52.4448 L147.5,53.169 L157.5,53.7501 L167.5,52.3562 L177.5,54.0237 L187.5,54.0893 L197.5,53.332 " fill="#FEFECE" style="stroke: #A80036; stroke-width: 1.5;"/><path d="M17.5,61.332 L17.5,60.4963 L27.5,61.4181 L37.5,60.7386 L47.5,60.4152 L57.5,60.3575 L67.5,62.2222 L77.5,61.0691 L87.5,61.9234 L97.5,60.8451 L107.5,61.3423 L117.5,60.8211 L127.5,62.1851 L137.5,60.6589 L147.5,60.7776 L157.5,61.3823 L167.5,61.1866 L177.5,60.4094 L187.5,61.5116 L197.5,61.332 " fill="#FEFECE" style="stroke: #A80036; stroke-width: 1.5;"/><text fill="#000000" font-family="sans-serif" font-size="11" lengthAdjust="spacingAndGlyphs" textLength="113" x="22.5" y="75.9668">+一覧を表示：index()</text><text fill="#000000" font-family="sans-serif" font-size="11" lengthAdjust="spacingAndGlyphs" textLength="128" x="22.5" y="88.9219">+単一データ表示：view()</text><text fill="#000000" font-family="sans-serif" font-size="11" lengthAdjust="spacingAndGlyphs" textLength="92" x="22.5" y="101.877">+新規追加：add()</text><text fill="#000000" font-family="sans-serif" font-size="11" lengthAdjust="spacingAndGlyphs" textLength="70" x="22.5" y="114.832">+編集：edit()</text><text fill="#000000" font-family="sans-serif" font-size="11" lengthAdjust="spacingAndGlyphs" textLength="82" x="22.5" y="127.7871">+削除：delete()</text><text fill="#000000" font-family="sans-serif" font-size="11" lengthAdjust="spacingAndGlyphs" textLength="76" x="22.5" y="140.7422">+複製：copy()</text><text fill="#000000" font-family="sans-serif" font-size="11" lengthAdjust="spacingAndGlyphs" textLength="145" x="22.5" y="153.6973">+公開状態に設定：publish()</text><text fill="#000000" font-family="sans-serif" font-size="11" lengthAdjust="spacingAndGlyphs" textLength="170" x="22.5" y="166.6523">+非公開状態に設定：unpublish()</text><text fill="#000000" font-family="sans-serif" font-size="11" lengthAdjust="spacingAndGlyphs" textLength="168" x="22.5" y="179.6074">+ブログ記事ー一括処理：batch()</text><!--class BlogPostsService--><polygon fill="#FEFECE" filter="url(#fksp6j5)" points="56.5,246.1992,56.5,245.8331,66.7,246.8955,76.9,246.7368,87.1,246.052,97.3,246.181,107.5,246.2397,117.7,245.8766,127.9,246.4717,138.1,246.9485,148.3,245.9367,158.5,246.1992,158.6637,246.1992,158.5882,256.8168,159.0331,267.4344,158.1064,278.052,159.0867,288.6695,158.5,299.2871,158.5,299.1898,148.3,299.7687,138.1,299.4319,127.9,298.8205,117.7,299.9851,107.5,299.1131,97.3,299.6827,87.1,299.0623,76.9,298.9944,66.7,299.0209,56.5,299.2871,57.0593,299.2871,56.3388,288.6695,56.8233,278.052,56.3923,267.4344,56.0932,256.8168,56.5,246.1992" style="stroke: #A80036; stroke-width: 1.5;"/><text fill="#000000" font-family="sans-serif" font-size="12" lengthAdjust="spacingAndGlyphs" textLength="94" x="60.5" y="262.8008">BlogPostsService</text><path d="M57.5,270.332 L57.5,269.3841 L67.5,271.2897 L77.5,269.5683 L87.5,269.7295 L97.5,270.0429 L107.5,269.6186 L117.5,269.8853 L127.5,271.3205 L137.5,269.8662 L147.5,271.1885 L157.5,270.332 " fill="#FEFECE" style="stroke: #A80036; stroke-width: 1.5;"/><text fill="#000000" font-family="sans-serif" font-size="11" lengthAdjust="spacingAndGlyphs" textLength="90" x="62.5" y="284.9668">+BlogPostsTable</text><path d="M57.5,291.2871 L57.5,291.751 L67.5,291.3276 L77.5,291.1435 L87.5,291.5295 L97.5,290.9158 L107.5,291.2225 L117.5,290.7427 L127.5,291.3664 L137.5,291.1807 L147.5,290.3769 L157.5,291.2871 " fill="#FEFECE" style="stroke: #A80036; stroke-width: 1.5;"/><polygon fill="#FBFB77" filter="url(#fksp6j5)" points="6,359.1992,5.9258,359.1992,5.7897,364.2613,6.0985,369.3234,5.8387,374.3855,5.7608,379.4477,6,384.5098,6,383.8255,16.15,384.7522,26.3,384.7543,36.45,384.1047,46.6,384.2635,56.75,385.2138,66.9,384.7219,77.05,384.6229,87.2,384.069,97.35,383.8611,107.5,385.0087,117.65,384.5791,127.8,383.8727,137.95,384.9788,148.1,384.2199,158.25,384.219,168.4,384.5004,178.55,384.8087,188.7,383.8815,198.85,384.0878,209,384.5098,208.7854,384.5098,209.1768,381.4477,209.0441,378.3855,208.9959,375.3234,208.8418,372.2613,209,369.1992,209.061,369.2603,206.8321,367.0313,204.9793,365.1786,203.1706,363.3699,200.9004,361.0996,199,359.1992,199,359.6235,188.8421,359.8853,178.6842,359.3903,168.5263,358.6961,158.3684,359.2899,148.2105,359.6613,138.0526,359.6936,127.8947,358.8495,117.7368,359.03,107.5789,359.1178,97.4211,359.4045,87.2632,359.8688,77.1053,359.39,66.9474,359.8905,56.7895,359.9007,46.6316,359.4833,36.4737,358.5924,26.3158,359.6447,16.1579,359.507,6,359.1992" style="stroke: #A80036; stroke-width: 1.0;"/><polygon fill="#FBFB77" points="6,359.1992,6.0134,359.1992,6.0989,364.2613,6.1334,369.3234,5.8351,374.3855,6.1994,379.4477,6,384.5098,6,384.5189,16.15,384.9674,26.3,384.554,36.45,384.833,46.6,385.103,56.75,384.9022,66.9,383.9786,77.05,384.3645,87.2,384.2288,97.35,384.3206,107.5,383.8319,117.65,384.0046,127.8,384.3457,137.95,384.2992,148.1,384.641,158.25,384.6488,168.4,384.5224,178.55,384.2756,188.7,385.1984,198.85,384.0442,209,384.5098,208.9907,384.5098,208.7886,381.4477,209.0441,378.3855,208.8111,375.3234,209.19,372.2613,209,369.1992,208.862,369.0612,206.9764,367.1757,205.1612,365.3604,203.003,363.2022,201.0932,361.2924,199,359.1992,199,358.4761,189.2778,359.6877,179.5556,359.6776,169.8333,359.8001,160.1111,359.1817,150.3889,359.6357,140.6667,359.2107,130.9444,359.3276,121.2222,358.7461,111.5,359.1992,112.0152,359.2337,110.4254,349.2119,109.9349,339.2637,109.1054,329.2928,108.4293,319.3322,107.7933,309.3742,107.5,299.4392,107.1466,299.4156,107.5282,309.4457,106.0208,319.3495,104.8218,329.2738,105.1166,339.2982,104.8739,349.2866,103.5,359.1992,103.5,358.5609,93.75,358.5683,84,359.6564,74.25,359.8883,64.5,359.0737,54.75,359.4764,45,359.636,35.25,359.6767,25.5,359.2451,15.75,359.4755,6,359.1992" style="stroke: #A80036; stroke-width: 1.0;"/><path d="M199,359.1992 L199.1502,359.1992 L199.1616,361.1992 L199.2434,363.1992 L198.9129,365.1992 L199.1752,367.1992 L199,369.1992 " fill="#FBFB77" style="stroke: #A80036; stroke-width: 1.0;"/><path d="M209,369.1992 L209,369.1212 L207,369.0241 L205,369.3511 L203,369.2103 L201,368.9038 L199,369.1992 " fill="#FBFB77" style="stroke: #A80036; stroke-width: 1.0;"/><text fill="#000000" font-family="sans-serif" font-size="13" lengthAdjust="spacingAndGlyphs" textLength="182" x="12" y="376.7676">以下ブログカテゴリ管理と同じ</text><path d="M107.5,186.3792 L107.7278,186.3792 L106.9135,197.2632 L108.2592,208.1472 L107.8216,219.0312 L107.9794,229.9152 L107.5,240.7992 " fill="none" style="stroke: #000000; stroke-width: 1.0;"/><polygon fill="#000000" points="107.5,245.9092,107.7143,246.0045,108.4563,244.1787,109.0306,242.2784,109.7247,240.4313,110.6871,238.7035,111.5,236.9092,111.3687,236.7779,110.5679,237.5772,109.9773,238.5865,109.025,239.2342,108.3768,240.186,107.5,240.9092,107.4525,240.8617,106.5885,239.9978,105.8665,239.2757,105.1064,238.5157,104.3867,237.7959,103.5,236.9092,103.287,236.8146,104.4205,238.7628,105.1753,240.5427,105.8754,242.2983,106.8182,244.1618,107.5,245.9092" style="stroke: #000000; stroke-width: 1.0;"/></g></svg>