<?xml version="1.0" encoding="UTF-8" standalone="no"?><svg xmlns="http://www.w3.org/2000/svg" xmlns:xlink="http://www.w3.org/1999/xlink" contentScriptType="application/ecmascript" contentStyleType="text/css" height="169px" preserveAspectRatio="none" style="width:289px;height:169px;" version="1.1" viewBox="0 0 289 169" width="289px" zoomAndPan="magnify"><defs><filter height="300%" id="fyz545j" width="300%" x="-1" y="-1"><feGaussianBlur result="blurOut" stdDeviation="2.0"/><feColorMatrix in="blurOut" result="blurOut2" type="matrix" values="0 0 0 0 0 0 0 0 0 0 0 0 0 0 0 0 0 0 .4 0"/><feOffset dx="4.0" dy="4.0" in="blurOut2" result="blurOut3"/><feBlend in="SourceGraphic" in2="blurOut3" mode="normal"/></filter></defs><g><text fill="#000000" font-family="sans-serif" font-size="18" lengthAdjust="spacingAndGlyphs" textLength="288" x="0" y="17.4023">ドメインモデル図：サイト基本設定</text><!--cluster サイト基本設定--><polygon fill="#FFFFFF" filter="url(#fyz545j)" points="64,45.1992,64,45.1774,74.4,45.8657,84.8,44.7543,95.2,45.5011,105.6,45.3187,116,44.8779,126.4,44.6611,136.8,45.0315,147.2,44.4667,157.6,45.649,168,45.1992,168.0617,45.2184,169.363,49.6854,170.9856,54.2523,171.9988,58.6296,173.6112,63.1933,175,67.6875,175,67.7197,182.4,67.7057,189.8,67.8388,197.2,67.5225,204.6,67.5555,212,67.6875,211.8925,67.6875,212.6962,78.1888,211.9757,88.6901,211.947,99.1914,212.6465,109.6927,211.7595,120.194,212.1138,130.6953,212.5953,141.1966,211.4406,151.6979,212,162.1992,212,162.7826,202.1333,162.0907,192.2667,162.1732,182.4,162.8277,172.5333,161.4517,162.6667,161.9789,152.8,162.721,142.9333,162.8014,133.0667,162.7265,123.2,161.5545,113.3333,162.0202,103.4667,161.6243,93.6,162.277,83.7333,161.6368,73.8667,162.4471,64,162.1992,64.4199,162.1992,63.7463,152.4492,63.5283,142.6992,63.3878,132.9492,63.815,123.1992,64.1007,113.4492,63.7422,103.6992,63.6497,93.9492,63.541,84.1992,63.6058,74.4492,64.6026,64.6992,63.5903,54.9492,64,45.1992" style="stroke: #000000; stroke-width: 2.0;"/><path d="M64,67.6875 L64,67.3868 L74.0909,66.9642 L84.1818,68.3883 L94.2727,67.5944 L104.3636,68.1465 L114.4545,66.9798 L124.5455,67.729 L134.6364,67.157 L144.7273,68.5592 L154.8182,68.2212 L164.9091,68.6205 L175,67.6875 " fill="#FFFFFF" style="stroke: #000000; stroke-width: 2.0;"/><text fill="#000000" font-family="sans-serif" font-size="14" font-weight="bold" lengthAdjust="spacingAndGlyphs" textLength="98" x="68" y="60.7344">サイト基本設定</text><!--class サイト基本設定--><polygon fill="#FEFECE" filter="url(#fyz545j)" points="80,80.1992,80,79.6228,89.6667,80.0209,99.3333,79.9425,109,80.3421,118.6667,80.8247,128.3333,79.5109,138,79.9645,147.6667,80.4622,157.3333,79.7007,167,79.6034,176.6667,80.7086,186.3333,80.5609,196,80.1992,196.3655,80.1992,196.4607,89.615,196.5212,99.0307,195.6936,108.4464,195.3154,117.8622,195.5458,127.2779,196.2577,136.6936,196,146.1094,196,145.9857,186.3333,145.617,176.6667,145.7099,167,145.5849,157.3333,146.7481,147.6667,145.8487,138,146.6158,128.3333,146.4776,118.6667,146.3409,109,146.7303,99.3333,146.6499,89.6667,145.4558,80,146.1094,79.431,146.1094,80.4965,136.6936,80.3962,127.2779,79.605,117.8622,79.9353,108.4464,80.5364,99.0307,80.6391,89.615,80,80.1992" style="stroke: #A80036; stroke-width: 1.5;"/><polygon fill="#ADD1B2" points="105.109,98.8724,103.7481,101.7925,102.555,104.4386,99.5374,106.7091,96.5242,106.5283,94.6686,106.8241,92.1209,106.9149,88.7636,105.7196,86.3012,103.1075,85.3997,99.9994,84.0568,97.4637,83.5831,95.1508,84.796,91.8196,86.7047,89.1671,89.2449,87.0343,92.3483,85.9592,95.2644,85.8535,98.5039,85.3747,101.0408,86.4776,103.1363,89.3505,105.0983,92.4114,105.333,94.4415,105.996,96.4804" style="stroke: #A80036; stroke-width: 1.0;"/><path d="M97.4731,102.3423 Q96.8921,102.6411 96.2529,102.7905 Q95.6138,102.9399 94.9082,102.9399 Q92.4014,102.9399 91.0815,101.2881 Q89.7617,99.6362 89.7617,96.5151 Q89.7617,93.3857 91.0815,91.7339 Q92.4014,90.082 94.9082,90.082 Q95.6138,90.082 96.2612,90.2314 Q96.9087,90.3809 97.4731,90.6797 L97.4731,93.4023 Q96.8423,92.8213 96.2488,92.5515 Q95.6553,92.2817 95.0244,92.2817 Q93.6797,92.2817 92.9949,93.3484 Q92.3101,94.415 92.3101,96.5151 Q92.3101,98.6069 92.9949,99.6736 Q93.6797,100.7402 95.0244,100.7402 Q95.6553,100.7402 96.2488,100.4705 Q96.8423,100.2007 97.4731,99.6196 Z "/><text fill="#000000" font-family="sans-serif" font-size="12" lengthAdjust="spacingAndGlyphs" textLength="84" x="109" y="100.7344">サイト基本設定</text><path d="M81,112.1992 L81,112.0464 L91.3636,111.6772 L101.7273,112.1479 L112.0909,112.7058 L122.4545,112.6619 L132.8182,113.1614 L143.1818,111.2145 L153.5455,112.4549 L163.9091,112.6241 L174.2727,111.6627 L184.6364,113.1775 L195,112.1992 " fill="#FEFECE" style="stroke: #A80036; stroke-width: 1.5;"/><text fill="#000000" font-family="sans-serif" font-size="11" lengthAdjust="spacingAndGlyphs" textLength="33" x="86" y="126.834">設定名</text><text fill="#000000" font-family="sans-serif" font-size="11" lengthAdjust="spacingAndGlyphs" textLength="11" x="86" y="139.7891">値</text></g></svg>