<?xml version="1.0" encoding="UTF-8" standalone="no"?><svg xmlns="http://www.w3.org/2000/svg" xmlns:xlink="http://www.w3.org/1999/xlink" contentScriptType="application/ecmascript" contentStyleType="text/css" height="541px" preserveAspectRatio="none" style="width:464px;height:541px;" version="1.1" viewBox="0 0 464 541" width="464px" zoomAndPan="magnify"><defs><filter height="300%" id="fxwey42" width="300%" x="-1" y="-1"><feGaussianBlur result="blurOut" stdDeviation="2.0"/><feColorMatrix in="blurOut" result="blurOut2" type="matrix" values="0 0 0 0 0 0 0 0 0 0 0 0 0 0 0 0 0 0 .4 0"/><feOffset dx="4.0" dy="4.0" in="blurOut2" result="blurOut3"/><feBlend in="SourceGraphic" in2="blurOut3" mode="normal"/></filter></defs><g><text fill="#000000" font-family="sans-serif" font-size="18" lengthAdjust="spacingAndGlyphs" textLength="324" x="78.5" y="17.4023">ユースケース：エディターテンプレート</text><!--cluster コンテンツリンク--><polygon fill="#FFFFFF" filter="url(#fxwey42)" points="22,45.1992,22,44.9735,31.8333,44.9972,41.6667,45.7487,51.5,45.6396,61.3333,45.5372,71.1667,45.0824,81,44.5422,90.8333,45.3577,100.6667,45.2604,110.5,45.1364,120.3333,44.927,130.1667,45.3085,140,45.1992,140.0548,45.2163,141.5132,49.7321,142.5744,54.1243,144.1527,58.6775,145.5771,63.1827,147,67.6875,147,68.0165,156.8182,67.8182,166.6364,68.1372,176.4545,68.3277,186.2727,67.2936,196.0909,67.1564,205.9091,67.2412,215.7273,68.0491,225.5455,67.4859,235.3636,68.3653,245.1818,67.8675,255,67.9892,264.8182,67.252,274.6364,68.0809,284.4545,66.9905,294.2727,67.5672,304.0909,67.1197,313.9091,67.9843,323.7273,68.0616,333.5455,67.081,343.3636,67.4534,353.1818,68.1692,363,67.6875,363.4946,67.6875,363.0327,77.6133,363.4621,87.5391,363.1295,97.4648,362.6419,107.3906,362.936,117.3164,363.3614,127.2422,362.4649,137.168,363.107,147.0938,363.6525,157.0195,363.5995,166.9453,362.669,176.8711,363.1358,186.7969,363.7412,196.7227,363.1779,206.6484,363.0896,216.5742,363.1784,226.5,363.313,236.4258,362.9262,246.3516,363.6951,256.2773,363.1414,266.2031,362.597,276.1289,363.7456,286.0547,362.2872,295.9805,363.6082,305.9063,363.5894,315.832,363.0671,325.7578,362.5044,335.6836,362.6379,345.6094,362.5299,355.5352,362.8315,365.4609,363.1185,375.3867,362.979,385.3125,363.3295,395.2383,362.5018,405.1641,363.0527,415.0898,362.8379,425.0156,363.6695,434.9414,362.6465,444.8672,363.4251,454.793,363.2227,464.7188,363.2747,474.6445,362.4905,484.5703,362.2541,494.4961,362.842,504.4219,362.3666,514.3477,363.5172,524.2734,363,534.1992,363,534.943,352.9706,534.2772,342.9412,534.6926,332.9118,534.4187,322.8824,534.5057,312.8529,534.8654,302.8235,533.5384,292.7941,534.1366,282.7647,534.3658,272.7353,533.6092,262.7059,533.9148,252.6765,533.594,242.6471,534.2362,232.6176,533.7282,222.5882,534.4474,212.5588,534.2403,202.5294,533.6504,192.5,534.2904,182.4706,533.4792,172.4412,534.835,162.4118,533.5859,152.3824,534.6056,142.3529,534.9255,132.3235,534.8621,122.2941,534.5155,112.2647,533.464,102.2353,534.7327,92.2059,533.8494,82.1765,534.4786,72.1471,534.6895,62.1176,534.212,52.0882,533.9759,42.0588,534.1747,32.0294,534.6373,22,534.1992,22.6439,534.1992,21.7905,524.2196,21.7418,514.24,22.3101,504.2604,21.9672,494.2809,22.2287,484.3013,22.5932,474.3217,21.978,464.3421,22.4154,454.3625,22.2235,444.3829,21.2714,434.4033,21.4016,424.4237,21.864,414.4441,22.3057,404.4645,22.4688,394.4849,22.7062,384.5053,21.8187,374.5257,22.0642,364.5462,22.5703,354.5666,22.5337,344.587,21.9932,334.6074,21.3048,324.6278,21.3807,314.6482,22.4162,304.6686,22.0745,294.689,21.954,284.7094,22.3882,274.7298,22.1276,264.7502,21.7167,254.7706,21.3956,244.7911,22.6464,234.8115,22.2591,224.8319,21.2518,214.8523,22.1859,204.8727,21.8453,194.8931,22.6275,184.9135,21.2567,174.9339,21.6909,164.9543,21.5812,154.9747,21.571,144.9951,21.4711,135.0155,22.1056,125.036,21.7283,115.0564,22.7087,105.0768,22.6157,95.0972,22.5663,85.1176,22.1614,75.138,22.3389,65.1584,21.9231,55.1788,22,45.1992" style="stroke: #000000; stroke-width: 2.0;"/><path d="M22,67.6875 L22,67.8765 L31.6154,66.8589 L41.2308,67.4635 L50.8462,67.2265 L60.4615,67.5484 L70.0769,66.7858 L79.6923,68.5238 L89.3077,68.411 L98.9231,67.6129 L108.5385,67.5772 L118.1538,66.7267 L127.7692,67.6557 L137.3846,67.6785 L147,67.6875 " fill="#FFFFFF" style="stroke: #000000; stroke-width: 2.0;"/><text fill="#000000" font-family="sans-serif" font-size="14" font-weight="bold" lengthAdjust="spacingAndGlyphs" textLength="112" x="26" y="60.7344">コンテンツリンク</text><polygon fill="#FEFECE" filter="url(#fxwey42)" points="335.2865,492.3189,330.248,497.0631,318.3432,500.8059,305.0361,504.5765,292.6527,508.7155,278.5064,512.4722,259.6041,515.0294,236.0225,516.2398,215.8456,517.7009,191.2236,517.5666,167.8558,516.9447,148.447,516.3123,126.9211,514.2637,108.4957,511.8658,92.5528,508.9454,75.7698,504.7685,68.4534,501.5836,55.5128,496.1574,49.6958,491.319,50.3623,487.0176,54.7709,482.7682,55.9014,477.1764,65.7015,472.9772,78.4235,469.0797,94.7979,465.8062,111.4408,462.591,127.0304,459.3154,151.0838,458.2073,168.7223,456.1957,193.0097,456.2574,217.6665,457.1589,239.0227,458.2136,256.9401,459.4796,277.0118,462.2345,292.7992,465.1213,309.67,469.3172,320.4907,473.262,327.3457,477.3684,332.4984,482.0628,332.1426,486.4315" style="stroke: #A80036; stroke-width: 1.5;"/><text fill="#000000" font-family="sans-serif" font-size="14" lengthAdjust="spacingAndGlyphs" textLength="266" x="59.7413" y="491.7916">エディターテンプレートの一覧を表示する</text><polygon fill="#FEFECE" filter="url(#fxwey42)" points="325.5572,395.631,320.7221,400.163,315.3303,405.0403,303.7077,408.8787,291.0663,412.6561,270.2513,414.6541,251.8981,417.0273,233.2017,419.0082,211.3685,419.8395,195.2476,421.3104,169.7697,420.0174,152.4389,419.6667,130.1088,417.3118,114.4103,415.4232,97.2862,412.2091,80.5025,408.0414,69.7748,404.1769,64.9073,400.6108,59.5227,396.0164,55.1907,390.8196,58.3442,386.5257,65.0011,382.3904,70.4958,377.5355,80.2378,373.2876,94.8362,369.9363,111.8625,367.1134,132.89,365.3225,150.8638,363.1843,170.2585,361.8221,192.6466,361.7156,215.979,362.5415,235.4782,363.3643,256.0844,365.3439,270.3489,366.9203,289.0011,370.4671,302.5168,373.9233,314.9933,378.1685,321.084,382.0009,325.8527,386.4613,328.5752,391.3077" style="stroke: #A80036; stroke-width: 1.5;"/><text fill="#000000" font-family="sans-serif" font-size="14" lengthAdjust="spacingAndGlyphs" textLength="252" x="66.5713" y="395.9576">エディターテンプレートを新規追加する</text><polygon fill="#FEFECE" filter="url(#fxwey42)" points="312.8606,303.2006,306.3224,306.8487,299.0865,310.7683,293.4717,315.3331,279.2125,318.1458,263.7461,320.6934,246.7592,322.7606,230.9345,324.794,211.126,325.5278,194.6138,326.4354,171.9569,325.332,152.2709,324.1241,136.4107,322.9228,119.7981,320.6663,104.8346,317.8479,95.6406,315.3609,85.5658,311.7564,76.4278,307.4677,71.3572,303.2386,68.2352,298.6806,70.0487,294.5448,76.8522,290.955,82.9032,286.7751,95.5312,283.7506,103.4203,279.5389,122.2876,277.7382,137.0176,275.1753,154.9317,273.6007,171.347,272.1218,193.5949,272.4738,211.2353,272.4755,230.2817,273.5429,245.4805,274.599,262.8106,277.0131,280.6687,280.4672,291.87,283.395,302.1836,287.052,310.5329,291.1674,314.4503,295.1432,313.0386,298.7056" style="stroke: #A80036; stroke-width: 1.5;"/><text fill="#000000" font-family="sans-serif" font-size="14" lengthAdjust="spacingAndGlyphs" textLength="224" x="80.3447" y="303.8123">エディターテンプレートを編集する</text><polygon fill="#FEFECE" filter="url(#fxwey42)" points="310.9358,213.7778,307.4281,218.0915,300.6369,222.1088,291.0406,225.7992,280.1431,229.3502,265.4757,232.0732,247.2463,233.8676,228.9706,235.3627,210.5835,236.4086,193.9677,237.2935,175.5851,237.1288,152.2502,235.1196,138.1851,234.3124,119.14,231.5218,105.7495,229.0488,94.7586,226.1672,84.7945,222.587,74.0918,217.9547,69.2027,213.7655,69.9561,210.0585,71.7838,205.9259,75.9945,201.7666,82.7733,197.7466,95.7666,194.8023,103.8922,190.6425,119.9055,188.215,139.1081,186.6344,152.9286,184.1608,173.317,183.5545,191.5146,183.0169,209.3826,183.0686,230.0007,184.4812,245.6882,185.6446,264.8058,188.4512,279.915,191.3017,292.8684,194.6143,301.7323,197.9529,308.6259,201.7486,311.5242,205.5006,312.4019,209.5658" style="stroke: #A80036; stroke-width: 1.5;"/><text fill="#000000" font-family="sans-serif" font-size="14" lengthAdjust="spacingAndGlyphs" textLength="224" x="80.3447" y="214.8123">エディターテンプレートを削除する</text><polygon fill="#FEFECE" filter="url(#fxwey42)" points="345.499,119.254,339.1956,124.2043,331.715,129.4279,316.9256,133.4352,301.2683,137.437,282.2093,140.7057,265.6054,144.3219,238.2098,145.2536,215.9167,146.7578,195.6932,148.0257,170.2914,147.3565,142.7559,145.2882,119.4774,143.1029,103.1048,141.3016,83.3162,137.6174,69.1685,133.9879,56.66,129.5649,46.0855,124.4545,39.368,119.1408,40.8324,114.6511,40.3809,108.9276,42.8015,103.1405,55.0378,98.9418,65.473,93.9962,82.3575,90.2588,104.4409,87.6419,125.2523,84.9325,145.7407,82.5122,169.4309,81.3091,191.8134,80.5065,219.6601,81.7026,241.4503,82.5327,260.0581,83.7115,281.0428,86.5067,301.8586,90.4122,318.2616,94.5278,333.5437,99.5486,340.1763,103.8095,345.9239,108.9141,346.9014,113.9301" style="stroke: #A80036; stroke-width: 1.5;"/><text fill="#000000" font-family="sans-serif" font-size="14" lengthAdjust="spacingAndGlyphs" textLength="292" x="46.7074" y="118.7848">エディターテンプレートの設定をJSで呼び出す</text><!--entity ユーザー--><polygon fill="#FEFECE" filter="url(#fxwey42)" points="442.7933,270.3075,441.5492,272.0269,440.5572,273.0197,438.8379,274.4156,437.0533,275.4796,435.3571,275.2423,432.9823,275.5665,430.9596,274.3442,428.9358,272.9146,428.2074,271.3613,427.1035,268.9965,426.9767,267.5269,426.9791,265.4269,427.9488,264.2352,428.6372,262.3413,430.1198,261.3426,432.5708,260.1629,434.7054,259.5178,436.6166,259.5801,438.8781,260.8676,441.0801,262.2629,442.0224,264.4207,442.632,266.1747,442.7659,268.2199" style="stroke: #A80036; stroke-width: 2.0;"/><path d="M435,275.6992 L434.7393,275.6992 L434.3793,281.0992 L435.3044,286.4992 L434.6682,291.8992 L435.5517,297.2992 L435,302.6992 M422,283.6992 L422,283.2214 L427.2,283.5449 L432.4,284.1232 L437.6,283.9683 L442.8,283.3919 L448,283.6992 M435,302.6992 L435.0161,302.7132 L432.1973,305.5236 L429.9585,308.8366 L427.4748,311.9374 L424.9963,315.0427 L422,317.6992 M435,302.6992 L434.6694,302.4127 L437.8222,305.8918 L440.6286,309.0706 L443.0049,311.8768 L445.138,314.4722 L448,317.6992 " fill="#FEFECE" style="stroke: #A80036; stroke-width: 2.0;"/><text fill="#000000" font-family="sans-serif" font-size="14" lengthAdjust="spacingAndGlyphs" textLength="56" x="407" y="338.2344">ユーザー</text><path d="M316.28,468.5592 L316.2327,468.4403 L319.1171,467.1324 L322.2742,466.5091 L325.0208,464.8549 L327.9498,463.6589 L330.9767,462.7088 L330.8383,462.426 L333.9359,461.5669 L336.7125,460.0519 L339.3477,458.2483 L342.3113,457.1152 L345.1663,455.7605 L345.0812,455.6202 L347.8959,454.2058 L350.5738,452.566 L353.2276,450.8863 L355.9265,449.2809 L358.5927,447.6216 L358.5573,447.5751 L360.9709,445.6011 L363.4224,443.6772 L366.0379,441.9693 L368.4831,440.037 L371,438.1992 L371.0918,438.2936 L373.2325,436.3502 L374.9201,433.941 L377.3412,432.2859 L379.4794,430.34 L381.3569,428.126 L381.5485,428.2823 L383.3645,426.0023 L384.937,423.5237 L387.0641,421.4974 L388.5463,418.9451 L390.5684,416.8333 L390.8285,417.0065 L392.1549,414.367 L393.5483,411.7721 L395.4706,409.5295 L397.1721,407.1398 L398.6957,404.6317 L398.7003,404.6342 L400.3321,402.1913 L401.4894,399.485 L402.9517,396.948 L404.4652,394.4395 L405.8,391.8317 L405.7527,391.8095 L407.2579,389.3218 L408.1963,386.5682 L409.215,383.8521 L410.8608,381.4304 L411.9424,378.7439 L412.1872,378.8422 L413.1261,376.1853 L413.8567,373.4448 L415.1162,370.9165 L416.3033,368.3591 L417.1841,365.6789 L417.1527,365.6681 L417.9269,363.085 L418.6727,360.4921 L419.9611,358.0868 L420.5256,355.4312 L421.5862,352.9471 L421.3845,352.8867 L422.5409,350.5985 L423.3244,348.1985 L424.0175,345.7714 L424.7756,343.3638 L425.21,340.8592 " fill="none" style="stroke: #A80036; stroke-width: 1.0;"/><polygon fill="#A80036" points="311.51,470.2192,311.4994,470.0973,313.4684,470.3438,315.4188,470.3752,317.4107,470.8854,319.3578,470.8789,321.322,471.0704,321.2758,470.9758,320.3749,470.7178,319.3615,470.2291,318.2411,469.5208,317.3231,469.2278,316.2375,468.591,316.0258,468.4878,316.6276,467.5225,317.1504,466.5188,317.543,465.4515,318.1529,464.4902,318.7169,463.5065,318.7524,463.5446,317.1641,464.7294,315.8595,466.2188,314.5187,467.6694,312.8057,468.7202,311.51,470.2192" style="stroke: #A80036; stroke-width: 1.0;"/><path d="M296.88,369.6992 L296.9419,369.9095 L300.652,368.6235 L304.4879,367.7645 L308.1907,366.4536 L312.0075,365.5299 L315.6936,364.1622 L315.63,363.9699 L319.4656,362.9007 L323.2542,361.6894 L327.0576,360.5226 L330.7083,358.8947 L334.5737,357.9155 L334.6536,358.1278 L338.3528,356.6961 L342.0386,355.2287 L345.6824,353.6496 L349.4453,352.3871 L353.137,350.9356 L353.0927,350.8332 L356.6578,349.2686 L360.2108,347.6761 L363.9496,346.5126 L367.443,344.7826 L371,343.1992 L371.0043,343.2077 L372.7359,341.9873 L374.6439,341.1125 L376.4853,340.107 L378.4861,339.4137 L380.3375,338.4278 L380.3422,338.4357 L382.01,337.0589 L384.1593,336.5001 L385.9461,335.3253 L387.7013,334.097 L389.54,333.0105 L389.6844,333.2315 L391.4662,332.087 L393.2479,330.9422 L394.7112,329.3099 L396.6364,328.3848 L398.405,327.22 L398.489,327.3387 L400.2155,326.2475 L401.5994,324.6721 L403.3458,323.6089 L405.1203,322.5855 L406.73,321.3292 " fill="none" style="stroke: #A80036; stroke-width: 1.0;"/><polygon fill="#A80036" points="291.92,371.0492,291.9564,371.2864,293.8577,371.2885,295.8053,371.5921,297.7865,372.1145,299.6821,372.0798,301.6546,372.5451,301.5901,372.4324,300.5916,371.8417,299.7617,371.5458,298.6743,370.7998,297.8409,370.4979,296.7445,369.736,296.7087,369.7156,297.1072,368.6401,298.0639,367.884,298.4252,366.7873,299.0886,365.8634,299.5535,364.8259,299.5212,364.7863,298.1548,366.2276,296.4409,367.2426,294.9222,368.4971,293.4069,369.7558,291.92,371.0492" style="stroke: #A80036; stroke-width: 1.0;"/><path d="M320.41,299.1992 L320.41,298.3712 L330.01,298.287 L339.61,299.6705 L349.21,299.8588 L358.81,299.4764 L368.41,298.7967 L378.01,299.3724 L387.61,299.487 L397.21,300.1537 L406.81,299.1992 " fill="none" style="stroke: #A80036; stroke-width: 1.0;"/><polygon fill="#A80036" points="315.16,299.1992,315.2119,299.3159,317.0182,300.1303,318.8065,300.9038,320.5279,301.527,322.3312,302.3345,324.16,303.1992,324.2745,303.3137,323.2583,302.2975,322.5122,301.5514,321.7342,300.7734,321.0739,300.1131,320.16,299.1992,320.1264,299.1656,320.9642,298.4034,321.9164,297.7556,322.4379,296.6771,323.2411,295.8803,324.16,295.1992,324.1945,295.2769,322.3647,296.0098,320.5606,296.8006,318.7574,297.5935,316.9608,298.401,315.16,299.1992" style="stroke: #A80036; stroke-width: 1.0;"/><path d="M294.36,228.2292 L294.3678,228.2591 L296.3354,228.8871 L298.2489,229.3067 L300.1747,229.7736 L302.109,230.2735 L304.036,230.745 L304.114,231.0255 L305.9897,231.2976 L307.9105,231.7317 L309.8761,232.3269 L311.7906,232.7382 L313.7909,233.4584 L313.8234,233.5672 L315.6614,233.7543 L317.6209,234.3489 L319.5835,234.9539 L321.6858,236.0274 L323.5717,236.3751 L323.5665,236.3591 L325.5941,237.2241 L327.4053,237.4141 L329.401,238.1797 L331.353,238.8088 L333.325,239.5005 L333.231,239.2281 L335.1553,239.8664 L337.1264,240.6403 L339.102,241.4272 L341.0524,242.1409 L342.9977,242.8401 L342.9788,242.7894 L344.9367,243.6358 L346.7969,244.2201 L348.639,244.7558 L350.6283,245.6861 L352.5366,246.3994 L352.4598,246.2098 L354.5084,247.4071 L356.1599,247.6232 L358.0482,248.4244 L360.0793,249.5783 L361.8884,250.1839 L361.805,249.9948 L363.7735,251.1294 L365.6594,252.0767 L367.3651,252.6152 L369.2411,253.5402 L371,254.1992 L371.1334,254.4614 L372.9314,255.2535 L374.7505,256.0869 L376.5121,256.8072 L378.4645,257.9027 L380.4113,258.987 L380.5097,259.153 L382.1306,259.8656 L384.0211,261.0324 L386.0648,262.4576 L387.6883,263.1746 L389.6575,264.4742 L389.6095,264.4019 L391.464,265.6993 L393.1111,266.6844 L395.1676,268.2859 L396.946,269.4687 L398.54,270.3739 L398.6364,270.507 L400.1136,271.4541 L401.9306,272.8705 L403.3524,273.7411 L405.3492,275.4056 L406.86,276.3992 " fill="none" style="stroke: #A80036; stroke-width: 1.0;"/><polygon fill="#A80036" points="289.25,226.9592,289.1108,226.7803,290.7574,228.1078,292.4479,229.4917,294.0555,230.7691,295.6148,231.9844,297.0238,233.0064,297.096,233.05,296.387,232.0058,295.7405,230.9992,295.3846,230.1678,294.5973,229.0764,294.1032,228.1618,294.0399,228.0567,294.9447,227.3663,295.9271,226.8045,297.0364,226.4533,298.0987,226.0241,298.9479,225.2413,298.9109,225.0327,297.0348,225.7346,295.111,226.1669,293.1214,226.2284,291.1786,226.5538,289.25,226.9592" style="stroke: #A80036; stroke-width: 1.0;"/><path d="M321.1,136.3792 L321.1785,136.5614 L323.8867,137.7882 L326.4624,138.7071 L329.2354,140.0842 L331.9088,141.2299 L334.4811,142.1409 L334.5179,142.212 L337.0225,143.3992 L339.7177,144.9548 L342.1136,145.9321 L344.8325,147.5334 L347.3888,148.8205 L347.4432,148.9074 L349.8389,150.3572 L352.2902,151.8959 L354.8162,153.5538 L357.2781,155.1093 L359.627,156.4844 L359.593,156.4399 L361.846,158.1548 L364.2264,160.0357 L366.3803,161.6212 L368.7066,163.4317 L371,165.1992 L370.8212,165.0136 L372.8214,166.9423 L374.9924,169.0483 L377.1555,171.1459 L378.7476,172.6511 L380.9265,174.7652 L380.7875,174.6496 L382.532,176.7603 L384.276,178.8706 L386.515,181.3926 L388.1532,183.4149 L389.8211,185.4619 L389.6615,185.3525 L391.6672,187.9515 L392.8477,189.985 L394.586,192.4007 L396.0251,194.6114 L397.733,197.0063 L397.5619,196.9077 L399.2292,199.4861 L400.3284,201.7371 L401.708,204.1497 L403.4511,206.7717 L404.7112,209.1155 L404.9691,209.2423 L405.6609,211.4613 L407.4368,214.2135 L408.1634,216.4496 L409.3696,218.9216 L410.805,221.5063 L410.8331,221.5183 L411.815,223.9666 L412.7744,226.4054 L413.7053,228.832 L414.9726,231.4015 L416.0633,233.8959 L415.8271,233.8087 L416.7987,236.2583 L417.6386,238.6592 L418.5241,241.077 L419.4937,243.5258 L420.5353,246.0012 L420.6358,246.0338 L421.2587,248.3012 L422.345,250.7187 L422.7301,252.9091 L423.5175,255.2298 L424.27,257.5392 " fill="none" style="stroke: #A80036; stroke-width: 1.0;"/><polygon fill="#A80036" points="315.99,134.4392,316.0726,134.5227,317.5345,135.9719,318.9296,137.3539,320.2758,138.6864,321.5805,139.9771,322.987,141.3705,322.8272,141.2985,322.4377,140.3005,321.8874,139.2302,321.5017,138.2339,321.1998,137.2754,320.6652,136.2121,320.7101,136.312,321.6011,135.5349,322.7561,135.3445,323.81,134.9296,324.704,134.1595,325.8235,133.8902,325.825,133.9155,323.8478,133.8389,321.8953,134.2032,319.9106,133.9908,317.9688,134.5456,315.99,134.4392" style="stroke: #A80036; stroke-width: 1.0;"/></g></svg>