<?xml version="1.0" encoding="UTF-8" standalone="no"?><svg xmlns="http://www.w3.org/2000/svg" xmlns:xlink="http://www.w3.org/1999/xlink" contentScriptType="application/ecmascript" contentStyleType="text/css" height="381px" preserveAspectRatio="none" style="width:302px;height:381px;" version="1.1" viewBox="0 0 302 381" width="302px" zoomAndPan="magnify"><defs><filter height="300%" id="fb4a8oi" width="300%" x="-1" y="-1"><feGaussianBlur result="blurOut" stdDeviation="2.0"/><feColorMatrix in="blurOut" result="blurOut2" type="matrix" values="0 0 0 0 0 0 0 0 0 0 0 0 0 0 0 0 0 0 .4 0"/><feOffset dx="4.0" dy="4.0" in="blurOut2" result="blurOut3"/><feBlend in="SourceGraphic" in2="blurOut3" mode="normal"/></filter></defs><g><text fill="#000000" font-family="sans-serif" font-size="18" lengthAdjust="spacingAndGlyphs" textLength="153" x="79" y="17.4023">テーマファイルAPI</text><!--class Api\ThemeFilesController--><polygon fill="#FEFECE" filter="url(#fb4a8oi)" points="6,29.1992,6,29.2823,15.8966,29.8812,25.7931,29.2589,35.6897,29.4899,45.5862,29.0871,55.4828,28.5461,65.3793,29.6256,75.2759,28.4938,85.1724,29.0926,95.069,29.3235,104.9655,28.5013,114.8621,28.7215,124.7586,28.9949,134.6552,28.7068,144.5517,29.2417,154.4483,29.7327,164.3448,28.7697,174.2414,28.863,184.1379,28.7732,194.0345,28.7394,203.931,29.4238,213.8276,28.8839,223.7241,28.6394,233.6207,28.6436,243.5172,28.5292,253.4138,28.6693,263.3103,28.6932,273.2069,28.8353,283.1034,29.6313,293,29.1992,292.2781,29.1992,292.642,38.9948,293.0508,48.7903,293.4958,58.5858,292.2524,68.3813,293.059,78.1769,293.017,87.9724,293.1305,97.7679,293.6492,107.5635,293.0713,117.359,293.3437,127.1545,293.4364,136.9501,293.5423,146.7456,292.4477,156.5411,292.9162,166.3367,293.428,176.1322,293,185.9277,293,185.4096,283.1034,186.0755,273.2069,185.1944,263.3103,185.5466,253.4138,186.3445,243.5172,186.5794,233.6207,186.6117,223.7241,185.9252,213.8276,186.5969,203.931,186.2638,194.0345,185.3375,184.1379,185.2125,174.2414,185.2945,164.3448,185.3933,154.4483,185.2729,144.5517,185.9679,134.6552,186.4239,124.7586,186.6704,114.8621,186.3853,104.9655,185.3016,95.069,186.5694,85.1724,185.4227,75.2759,185.6611,65.3793,185.6602,55.4828,185.9374,45.5862,185.4087,35.6897,186.4976,25.7931,185.8744,15.8966,186.4518,6,185.9277,5.9659,185.9277,6.4404,176.1322,5.4692,166.3367,6.0933,156.5411,6.1514,146.7456,5.9895,136.9501,5.9847,127.1545,6.1159,117.359,6.7431,107.5635,5.4406,97.7679,6.3455,87.9724,6.3904,78.1769,5.9066,68.3813,5.304,58.5858,6.5693,48.7903,5.8396,38.9948,6,29.1992" style="stroke: #A80036; stroke-width: 1.5;"/><text fill="#000000" font-family="sans-serif" font-size="12" lengthAdjust="spacingAndGlyphs" textLength="146" x="76.5" y="45.8008">Api\ThemeFilesController</text><path d="M7,53.332 L7,52.7866 L16.8276,52.4999 L26.6552,53.2515 L36.4828,53.1209 L46.3103,52.929 L56.1379,52.5435 L65.9655,52.7524 L75.7931,53.9796 L85.6207,53.1119 L95.4483,53.4859 L105.2759,54.1135 L115.1034,54.3072 L124.931,53.2278 L134.7586,52.4587 L144.5862,54.0833 L154.4138,53.0142 L164.2414,52.9414 L174.069,52.4297 L183.8966,52.6059 L193.7241,53.0098 L203.5517,53.0885 L213.3793,53.0845 L223.2069,53.2742 L233.0345,53.227 L242.8621,53.7103 L252.6897,53.8618 L262.5172,53.1695 L272.3448,53.6991 L282.1724,54.1018 L292,53.332 " fill="#FEFECE" style="stroke: #A80036; stroke-width: 1.5;"/><text fill="#000000" font-family="sans-serif" font-size="11" lengthAdjust="spacingAndGlyphs" textLength="95" x="12" y="67.9668">+画像を表示：img</text><text fill="#000000" font-family="sans-serif" font-size="11" lengthAdjust="spacingAndGlyphs" textLength="202" x="12" y="80.9219">+画像のサムネイルを表示：img_thumb</text><path d="M7,87.2422 L7,87.6266 L16.8276,86.7791 L26.6552,86.8159 L36.4828,86.6395 L46.3103,86.9291 L56.1379,87.8795 L65.9655,87.1939 L75.7931,86.9433 L85.6207,86.9317 L95.4483,86.6433 L105.2759,87.5741 L115.1034,86.8905 L124.931,87.4393 L134.7586,86.3149 L144.5862,86.3582 L154.4138,87.6823 L164.2414,87.7206 L174.069,87.2869 L183.8966,86.4885 L193.7241,86.2431 L203.5517,87.2801 L213.3793,87.6136 L223.2069,86.6936 L233.0345,87.0304 L242.8621,87.8791 L252.6897,86.3762 L262.5172,87.1055 L272.3448,87.3057 L282.1724,88.1585 L292,87.2422 " fill="#FEFECE" style="stroke: #A80036; stroke-width: 1.5;"/><text fill="#000000" font-family="sans-serif" font-size="11" lengthAdjust="spacingAndGlyphs" textLength="102" x="12" y="101.877">+一覧取得：index()</text><text fill="#000000" font-family="sans-serif" font-size="11" lengthAdjust="spacingAndGlyphs" textLength="136" x="12" y="114.832">+ファイル新規追加：add()</text><text fill="#000000" font-family="sans-serif" font-size="11" lengthAdjust="spacingAndGlyphs" textLength="114" x="12" y="127.7871">+ファイル編集：edit()</text><text fill="#000000" font-family="sans-serif" font-size="11" lengthAdjust="spacingAndGlyphs" textLength="126" x="12" y="140.7422">+ファイル削除：delete()</text><text fill="#000000" font-family="sans-serif" font-size="11" lengthAdjust="spacingAndGlyphs" textLength="131" x="12" y="153.6973">+ファイルコピー：copy()</text><text fill="#000000" font-family="sans-serif" font-size="11" lengthAdjust="spacingAndGlyphs" textLength="275" x="12" y="166.6523">+現在のテーマにファイルをコピー：copy_to_theme()</text><text fill="#000000" font-family="sans-serif" font-size="11" lengthAdjust="spacingAndGlyphs" textLength="128" x="12" y="179.6074">+ファイルを表示：view()</text><!--class ThemeFilesService--><polygon fill="#FEFECE" filter="url(#fb4a8oi)" points="94,246.1992,94,246.0893,104.0909,246.1289,114.1818,245.4865,124.2727,246.2856,134.3636,246.5965,144.4545,246.4598,154.5455,245.7324,164.6364,245.9871,174.7273,246.9135,184.8182,245.8811,194.9091,246.8612,205,246.1992,204.8436,246.1992,205.1717,254.2258,205.1361,262.2523,205.0417,270.2789,205.0428,278.3055,205,286.332,205,286.7652,194.9091,285.8506,184.8182,286.6128,174.7273,286.4716,164.6364,286.8952,154.5455,285.7583,144.4545,286.5977,134.3636,286.6234,124.2727,287.0106,114.1818,286.7041,104.0909,286.9324,94,286.332,93.7971,286.332,94.0477,278.3055,94.087,270.2789,93.763,262.2523,93.8518,254.2258,94,246.1992" style="stroke: #A80036; stroke-width: 1.5;"/><text fill="#000000" font-family="sans-serif" font-size="12" lengthAdjust="spacingAndGlyphs" textLength="105" x="97" y="262.8008">ThemeFilesService</text><path d="M95,270.332 L95,270.5136 L104.9091,269.8661 L114.8182,270.3603 L124.7273,270.4216 L134.6364,269.629 L144.5455,270.7447 L154.4545,270.5771 L164.3636,269.7386 L174.2727,270.9642 L184.1818,271.0376 L194.0909,269.3588 L204,270.332 " fill="#FEFECE" style="stroke: #A80036; stroke-width: 1.5;"/><path d="M95,278.332 L95,278.2579 L104.9091,277.7207 L114.8182,277.3487 L124.7273,278.1995 L134.6364,278.0625 L144.5455,277.3796 L154.4545,278.6147 L164.3636,277.7752 L174.2727,278.5969 L184.1818,277.3925 L194.0909,277.8819 L204,278.332 " fill="#FEFECE" style="stroke: #A80036; stroke-width: 1.5;"/><polygon fill="#FBFB77" filter="url(#fb4a8oi)" points="48,346.1992,47.9983,346.1992,48.0931,351.2613,47.7871,356.3234,48.2264,361.3855,48.1766,366.4477,48,371.5098,48,371.328,58.15,371.7401,68.3,370.7609,78.45,371.0182,88.6,371.5612,98.75,371.7395,108.9,371.0725,119.05,371.9756,129.2,371.4618,139.35,371.4054,149.5,370.8265,159.65,372.1357,169.8,371.2462,179.95,372.0394,190.1,370.9303,200.25,372.1912,210.4,371.2498,220.55,371.944,230.7,371.8752,240.85,371.7718,251,371.5098,251.1979,371.5098,251.1353,368.4477,250.9323,365.3855,251.1652,362.3234,250.7669,359.2613,251,356.1992,250.8613,356.0605,248.9005,354.0998,247.0861,352.2853,244.9711,350.1703,243.057,348.2562,241,346.1992,241,346.792,230.8421,346.3222,220.6842,345.8742,210.5263,346.5098,200.3684,345.8258,190.2105,346.5423,180.0526,346.0451,169.8947,346.8659,159.7368,346.0811,149.5789,345.4913,139.4211,345.847,129.2632,346.3936,119.1053,346.7592,108.9474,346.8451,98.7895,345.6093,88.6316,345.604,78.4737,346.6458,68.3158,346.4066,58.1579,345.6988,48,346.1992" style="stroke: #A80036; stroke-width: 1.0;"/><polygon fill="#FBFB77" points="48,346.1992,48.0544,346.1992,48.0287,351.2613,47.8879,356.3234,48.0101,361.3855,47.8848,366.4477,48,371.5098,48,371.4315,58.15,372.0876,68.3,371.8688,78.45,371.369,88.6,371.7169,98.75,371.7321,108.9,371.6088,119.05,370.8206,129.2,372.0755,139.35,371.0659,149.5,370.9664,159.65,371.4029,169.8,371.2971,179.95,371.0936,190.1,371.1824,200.25,371.9842,210.4,370.8107,220.55,371.5711,230.7,372.2136,240.85,371.2079,251,371.5098,251.0861,371.5098,250.8296,368.4477,250.8447,365.3855,251.1019,362.3234,250.764,359.2613,251,356.1992,250.9004,356.0996,248.9162,354.1154,247.1026,352.3018,245.0688,350.268,243.0928,348.292,241,346.1992,241,346.9015,231.2778,346.618,221.5556,346.1515,211.8333,346.3517,202.1111,346.654,192.3889,345.9024,182.6667,346.0972,172.9444,346.8898,163.2222,345.8209,153.5,346.1992,153.1291,346.1744,152.7339,336.2242,152.6058,326.2919,150.7904,316.2468,151.2634,306.3546,149.6887,296.3256,149.5,286.3892,149.8152,286.4103,148.23,296.3172,148.6515,306.3583,148.0019,316.3278,146.5913,326.2464,146.0616,336.2239,145.5,346.1992,145.5,346.6512,135.75,346.5484,126,346.4785,116.25,346.2445,106.5,345.8748,96.75,346.4776,87,346.4515,77.25,345.7478,67.5,345.5884,57.75,345.8581,48,346.1992" style="stroke: #A80036; stroke-width: 1.0;"/><path d="M241,346.1992 L240.9002,346.1992 L240.7401,348.1992 L240.7564,350.1992 L241.0212,352.1992 L241.1792,354.1992 L241,356.1992 " fill="#FBFB77" style="stroke: #A80036; stroke-width: 1.0;"/><path d="M251,356.1992 L251,356.1915 L249,356.4674 L247,356.2674 L245,356.0472 L243,356.1759 L241,356.1992 " fill="#FBFB77" style="stroke: #A80036; stroke-width: 1.0;"/><text fill="#000000" font-family="sans-serif" font-size="13" lengthAdjust="spacingAndGlyphs" textLength="182" x="54" y="363.7676">以下テーマファイル管理と同じ</text><path d="M149.5,186.4892 L150.0876,186.4892 L148.6403,197.3852 L149.0933,208.2812 L149.6385,219.1772 L150.2732,230.0732 L149.5,240.9692 " fill="none" style="stroke: #000000; stroke-width: 1.0;"/><polygon fill="#000000" points="149.5,246.1892,149.3095,246.1045,150.204,244.3466,151.0084,242.5485,151.9726,240.8215,152.7908,239.0296,153.5,237.1892,153.3688,237.058,152.8008,238.0901,151.8425,238.7317,151.0746,239.5638,150.4345,240.5238,149.5,241.1892,149.4016,241.0908,148.5527,240.2419,147.908,239.5972,146.9495,238.6387,146.1298,237.819,145.5,237.1892,145.3227,237.1104,146.1795,238.9356,147.2522,240.8568,147.8815,242.581,148.4964,244.2987,149.5,246.1892" style="stroke: #000000; stroke-width: 1.0;"/></g></svg>