<?xml version="1.0" encoding="UTF-8" standalone="no"?><svg xmlns="http://www.w3.org/2000/svg" xmlns:xlink="http://www.w3.org/1999/xlink" contentScriptType="application/ecmascript" contentStyleType="text/css" height="971px" preserveAspectRatio="none" style="width:835px;height:971px;" version="1.1" viewBox="0 0 835 971" width="835px" zoomAndPan="magnify"><defs><filter height="300%" id="fmxvf13" width="300%" x="-1" y="-1"><feGaussianBlur result="blurOut" stdDeviation="2.0"/><feColorMatrix in="blurOut" result="blurOut2" type="matrix" values="0 0 0 0 0 0 0 0 0 0 0 0 0 0 0 0 0 0 .4 0"/><feOffset dx="4.0" dy="4.0" in="blurOut2" result="blurOut3"/><feBlend in="SourceGraphic" in2="blurOut3" mode="normal"/></filter></defs><g><text fill="#000000" font-family="sans-serif" font-size="14" font-weight="bold" lengthAdjust="spacingAndGlyphs" textLength="417" x="210.5" y="23.5352">BcAdminContentsComponentの流れ(コンテンツフォルダ編集)</text><path d="M105,68.9766 L105.2943,68.9766 L105.5414,79.0143 L105.5064,89.0521 L104.3174,99.0899 L105.8175,109.1276 L105.9623,119.1654 L104.7362,129.2032 L105.1281,139.2409 L104.8764,149.2787 L105.9485,159.3165 L105.8644,169.3542 L104.2897,179.392 L105.9935,189.4298 L105.5003,199.4675 L104.5423,209.5053 L104.6568,219.5431 L105.5145,229.5809 L104.4954,239.6186 L105.2154,249.6564 L104.3222,259.6942 L105.0677,269.7319 L105.3127,279.7697 L104.4734,289.8075 L104.2075,299.8452 L105.5569,309.883 L104.7918,319.9208 L105.0545,329.9585 L104.3459,339.9963 L104.3292,350.0341 L104.9818,360.0718 L104.9688,370.1096 L104.2503,380.1474 L105.2269,390.1851 L104.3073,400.2229 L105.8643,410.2607 L104.2809,420.2984 L105.9865,430.3362 L105.1493,440.374 L104.1135,450.4117 L105.6349,460.4495 L104.8941,470.4873 L104.3874,480.525 L105.1299,490.5628 L104.4795,500.6006 L104.7356,510.6384 L104.1922,520.6761 L104.1552,530.7139 L104.8297,540.7517 L104.898,550.7894 L105.2834,560.8272 L105.1618,570.865 L105.0483,580.9027 L105.9866,590.9405 L105.9864,600.9783 L105.624,611.016 L104.3008,621.0538 L105.5115,631.0916 L105.7185,641.1293 L104.6895,651.1671 L105.9463,661.2049 L104.0846,671.2426 L105.0318,681.2804 L105.7648,691.3182 L104.6795,701.3559 L105.1285,711.3937 L104.0135,721.4315 L105.6853,731.4692 L105.2587,741.507 L105.3616,751.5448 L104.71,761.5826 L105.493,771.6203 L104.8666,781.6581 L104.2632,791.6959 L105.2966,801.7336 L104.3805,811.7714 L104.5438,821.8092 L104.3538,831.8469 L105.9508,841.8847 L104.5859,851.9225 L105.7218,861.9602 L104.4456,871.998 L104.8193,882.0358 L104.9339,892.0735 L105.6522,902.1113 L105.0222,912.1491 L105.0794,922.1868 L105,932.2246 " fill="none" style="stroke: #A80036; stroke-width: 1.0; stroke-dasharray: 5.0,5.0;"/><path d="M322,68.9766 L321.3191,68.9766 L321.4874,79.0143 L321.6006,89.0521 L321.903,99.0899 L322.714,109.1276 L321.9169,119.1654 L321.3109,129.2032 L322.1176,139.2409 L321.2594,149.2787 L321.5938,159.3165 L321.9946,169.3542 L321.5391,179.392 L322.6558,189.4298 L321.1115,199.4675 L321.88,209.5053 L321.3141,219.5431 L322.4259,229.5809 L321.9957,239.6186 L321.338,249.6564 L321.1661,259.6942 L322.6534,269.7319 L322.0765,279.7697 L322.3481,289.8075 L322.1744,299.8452 L322.5291,309.883 L321.6875,319.9208 L322.1278,329.9585 L322.6478,339.9963 L322.4483,350.0341 L321.4108,360.0718 L322.8812,370.1096 L321.7672,380.1474 L322.4994,390.1851 L322.5462,400.2229 L322.8164,410.2607 L321.9747,420.2984 L322.9763,430.3362 L321.128,440.374 L321.4637,450.4117 L321.5778,460.4495 L321.0163,470.4873 L321.1498,480.525 L322.8932,490.5628 L321.7135,500.6006 L321.6315,510.6384 L322.6747,520.6761 L321.6872,530.7139 L322.6839,540.7517 L321.2485,550.7894 L321.7212,560.8272 L322.4652,570.865 L321.727,580.9027 L321.4102,590.9405 L321.2106,600.9783 L322.393,611.016 L321.526,621.0538 L321.5167,631.0916 L321.8435,641.1293 L321.4205,651.1671 L322.189,661.2049 L322.3953,671.2426 L322.5479,681.2804 L321.0048,691.3182 L321.0467,701.3559 L321.0892,711.3937 L322.0977,721.4315 L322.7635,731.4692 L322.416,741.507 L321.541,751.5448 L322.6483,761.5826 L321.8871,771.6203 L321.4717,781.6581 L321.8219,791.6959 L322.2695,801.7336 L322.2058,811.7714 L322.5408,821.8092 L322.2205,831.8469 L321.077,841.8847 L322.5645,851.9225 L322.5062,861.9602 L321.8529,871.998 L322.2744,882.0358 L321.5988,892.0735 L322.5505,902.1113 L322.4957,912.1491 L321.3112,922.1868 L322,932.2246 " fill="none" style="stroke: #A80036; stroke-width: 1.0; stroke-dasharray: 5.0,5.0;"/><path d="M536,68.9766 L536.1403,68.9766 L536.2206,79.0143 L535.0638,89.0521 L535.4496,99.0899 L535.2953,109.1276 L536.7124,119.1654 L536.5722,129.2032 L536.3019,139.2409 L535.7468,149.2787 L535.3977,159.3165 L535.517,169.3542 L535.3604,179.392 L536.0244,189.4298 L536.9119,199.4675 L535.3979,209.5053 L535.1879,219.5431 L536.3663,229.5809 L535.6166,239.6186 L535.582,249.6564 L536.7707,259.6942 L536.3667,269.7319 L535.9247,279.7697 L535.8679,289.8075 L536.559,299.8452 L536.8573,309.883 L536.8444,319.9208 L535.9595,329.9585 L536.9247,339.9963 L535.4155,350.0341 L535.1477,360.0718 L535.5969,370.1096 L535.169,380.1474 L536.522,390.1851 L535.8122,400.2229 L535.3157,410.2607 L536.7896,420.2984 L535.7096,430.3362 L536.8117,440.374 L535.7179,450.4117 L536.4948,460.4495 L536.0507,470.4873 L535.9454,480.525 L536.7373,490.5628 L535.4064,500.6006 L535.0238,510.6384 L536.1996,520.6761 L535.6707,530.7139 L535.0415,540.7517 L536.1806,550.7894 L535.1251,560.8272 L535.718,570.865 L535.9985,580.9027 L535.1039,590.9405 L536.8926,600.9783 L535.4397,611.016 L535.7911,621.0538 L536.9023,631.0916 L535.0509,641.1293 L535.8875,651.1671 L535.9857,661.2049 L536.93,671.2426 L535.5691,681.2804 L536.2018,691.3182 L535.6938,701.3559 L535.5527,711.3937 L535.481,721.4315 L536.1943,731.4692 L536.5522,741.507 L535.5969,751.5448 L536.3793,761.5826 L535.8463,771.6203 L535.6002,781.6581 L535.6283,791.6959 L536.1222,801.7336 L536.7523,811.7714 L536.9169,821.8092 L535.395,831.8469 L536.4179,841.8847 L535.3267,851.9225 L536.5321,861.9602 L535.6558,871.998 L536.442,882.0358 L536.0637,892.0735 L535.9555,902.1113 L535.179,912.1491 L535.3205,922.1868 L536,932.2246 " fill="none" style="stroke: #A80036; stroke-width: 1.0; stroke-dasharray: 5.0,5.0;"/><path d="M734,68.9766 L733.3066,68.9766 L733.692,79.0143 L734.9552,89.0521 L733.1787,99.0899 L733.8273,109.1276 L733.3207,119.1654 L733.61,129.2032 L733.5047,139.2409 L734.0588,149.2787 L733.1076,159.3165 L734.6325,169.3542 L734.8208,179.392 L733.0444,189.4298 L733.7118,199.4675 L733.3571,209.5053 L733.0811,219.5431 L733.0807,229.5809 L733.3116,239.6186 L733.6366,249.6564 L733.8299,259.6942 L734.6331,269.7319 L733.4389,279.7697 L734.8442,289.8075 L734.9575,299.8452 L734.385,309.883 L733.9543,319.9208 L733.2171,329.9585 L734.8813,339.9963 L733.2616,350.0341 L733.933,360.0718 L733.6276,370.1096 L733.1579,380.1474 L734.9279,390.1851 L734.7475,400.2229 L734.6191,410.2607 L734.894,420.2984 L734.6111,430.3362 L734.3489,440.374 L734.9916,450.4117 L734.8827,460.4495 L733.1353,470.4873 L733.6383,480.525 L734.3501,490.5628 L734.1252,500.6006 L733.7802,510.6384 L734.9095,520.6761 L734.8466,530.7139 L734.331,540.7517 L733.9878,550.7894 L734.6113,560.8272 L734.8562,570.865 L733.102,580.9027 L734.0413,590.9405 L734.1402,600.9783 L733.5162,611.016 L733.8095,621.0538 L734.626,631.0916 L733.0175,641.1293 L733.9419,651.1671 L733.6637,661.2049 L734.6594,671.2426 L734.6419,681.2804 L734.4995,691.3182 L733.1517,701.3559 L733.9359,711.3937 L733.8281,721.4315 L733.7713,731.4692 L733.8881,741.507 L733.985,751.5448 L733.5509,761.5826 L733.7947,771.6203 L733.9702,781.6581 L733.0767,791.6959 L733.7126,801.7336 L733.7847,811.7714 L734.1759,821.8092 L733.532,831.8469 L733.3336,841.8847 L734.8686,851.9225 L734.7655,861.9602 L733.4114,871.998 L733.338,882.0358 L733.3685,892.0735 L733.2656,902.1113 L734.2503,912.1491 L734.0658,922.1868 L734,932.2246 " fill="none" style="stroke: #A80036; stroke-width: 1.0; stroke-dasharray: 5.0,5.0;"/><polygon fill="#FEFECE" filter="url(#fmxvf13)" points="8,33.4883,8,33.3829,18,33.8005,28,33.3384,38,33.3302,48,33.1976,58,33.8282,68,33.2681,78,33.371,88,32.8125,98,32.792,108,34.0279,118,33.8693,128,34.2322,138,33.3303,148,33.7737,158,33.0946,168,33.8917,178,34.2171,188,33.6126,198,33.4883,197.9125,33.4883,197.8274,39.5859,197.8822,45.6836,198.1981,51.7813,197.7753,57.8789,198,63.9766,198,64.0991,188,63.3904,178,63.8314,168,63.4184,158,63.777,148,63.6792,138,64.477,128,63.8968,118,63.9704,108,63.9917,98,63.4793,88,63.3306,78,64.178,68,63.5225,58,64.6144,48,63.5869,38,63.7702,28,63.5522,18,64.3578,8,63.9766,8.2208,63.9766,7.8728,57.8789,7.8939,51.7813,8.0464,45.6836,7.8107,39.5859,8,33.4883" style="stroke: #A80036; stroke-width: 1.5;"/><text fill="#000000" font-family="sans-serif" font-size="14" lengthAdjust="spacingAndGlyphs" textLength="176" x="15" y="54.0234">ContentFoldersController</text><polygon fill="#FEFECE" filter="url(#fmxvf13)" points="8,931.2246,8,930.9651,18,930.5719,28,931.0606,38,931.8659,48,931.8955,58,930.7011,68,930.5222,78,930.5779,88,931.1484,98,930.621,108,931.2795,118,931.691,128,930.9765,138,930.8621,148,931.8651,158,930.6174,168,931.6481,178,930.8595,188,930.8903,198,931.2246,198.17,931.2246,197.8151,937.3223,198.1626,943.4199,197.9834,949.5176,198.0768,955.6152,198,961.7129,198,962.396,188,962.2586,178,962.4305,168,962.38,158,962.1153,148,962.0776,138,962.1002,128,962.129,118,961.0415,108,961.2057,98,961.9807,88,962.0972,78,961.6439,68,961.3092,58,961.7142,48,962.1325,38,961.457,28,962.3488,18,961.6313,8,961.7129,8.064,961.7129,8.0564,955.6152,8.0464,949.5176,8.0122,943.4199,7.7918,937.3223,8,931.2246" style="stroke: #A80036; stroke-width: 1.5;"/><text fill="#000000" font-family="sans-serif" font-size="14" lengthAdjust="spacingAndGlyphs" textLength="176" x="15" y="951.7598">ContentFoldersController</text><polygon fill="#FEFECE" filter="url(#fmxvf13)" points="212,33.4883,212,32.8352,221.8636,34.0787,231.7273,33.7633,241.5909,33.6503,251.4545,33.3389,261.3182,33.0671,271.1818,33.5554,281.0455,33.504,290.9091,33.6126,300.7727,33.5906,310.6364,32.9093,320.5,32.8296,330.3636,33.7749,340.2273,33.8137,350.0909,33.1048,359.9545,32.886,369.8182,33.1111,379.6818,33.6158,389.5455,34.1189,399.4091,33.3222,409.2727,33.8041,419.1364,33.9464,429,33.4883,429.0166,33.4883,428.8883,39.5859,429.2343,45.6836,429.1124,51.7813,428.8883,57.8789,429,63.9766,429,63.307,419.1364,63.5759,409.2727,63.7764,399.4091,64.1176,389.5455,64.6785,379.6818,63.9776,369.8182,63.6638,359.9545,63.5978,350.0909,64.487,340.2273,63.2409,330.3636,64.4024,320.5,63.3308,310.6364,64.6467,300.7727,64.1371,290.9091,63.8009,281.0455,64.4097,271.1818,63.3402,261.3182,64.4977,251.4545,63.9143,241.5909,63.9688,231.7273,64.0109,221.8636,64.4994,212,63.9766,211.9053,63.9766,211.9134,57.8789,211.869,51.7813,212.0022,45.6836,211.8187,39.5859,212,33.4883" style="stroke: #A80036; stroke-width: 1.5;"/><text fill="#000000" font-family="sans-serif" font-size="14" lengthAdjust="spacingAndGlyphs" textLength="203" x="219" y="54.0234">BcAdminContentsComponent</text><polygon fill="#FEFECE" filter="url(#fmxvf13)" points="212,931.2246,212,931.7231,221.8636,931.0427,231.7273,931.318,241.5909,930.7513,251.4545,930.6987,261.3182,930.7176,271.1818,930.9568,281.0455,931.1394,290.9091,931.545,300.7727,930.673,310.6364,930.9448,320.5,931.1046,330.3636,931.3558,340.2273,931.6618,350.0909,930.8593,359.9545,931.5826,369.8182,931.5903,379.6818,931.9002,389.5455,931.776,399.4091,931.4995,409.2727,931.553,419.1364,930.7338,429,931.2246,429.1206,931.2246,428.8579,937.3223,429.2372,943.4199,428.8937,949.5176,428.9866,955.6152,429,961.7129,429,961.7624,419.1364,961.0742,409.2727,961.1777,399.4091,961.7538,389.5455,962.2302,379.6818,961.5621,369.8182,961.8206,359.9545,962.4625,350.0909,962.1216,340.2273,961.8246,330.3636,962.3288,320.5,961.6207,310.6364,961.817,300.7727,961.085,290.9091,961.5878,281.0455,961.2979,271.1818,961.3722,261.3182,961.9877,251.4545,961.6759,241.5909,962.0134,231.7273,962.2916,221.8636,961.3536,212,961.7129,212.0886,961.7129,211.9013,955.6152,212.1399,949.5176,212.0005,943.4199,212.046,937.3223,212,931.2246" style="stroke: #A80036; stroke-width: 1.5;"/><text fill="#000000" font-family="sans-serif" font-size="14" lengthAdjust="spacingAndGlyphs" textLength="203" x="219" y="951.7598">BcAdminContentsComponent</text><polygon fill="#FEFECE" filter="url(#fmxvf13)" points="443,33.4883,443,33.1299,453.1111,33.7763,463.2222,33.5705,473.3333,33.3833,483.4444,33.0956,493.5556,34.1848,503.6667,33.1651,513.7778,33.8214,523.8889,33.1514,534,32.8046,544.1111,32.8979,554.2222,33.7853,564.3333,34.028,574.4444,33.8346,584.5556,33.6682,594.6667,33.0003,604.7778,33.7386,614.8889,33.0474,625,33.4883,624.8884,33.4883,624.9976,39.5859,625.0654,45.6836,625.0216,51.7813,624.8656,57.8789,625,63.9766,625,63.8066,614.8889,63.8831,604.7778,63.4208,594.6667,63.603,584.5556,64.0007,574.4444,63.703,564.3333,63.647,554.2222,63.4573,544.1111,63.2863,534,63.4418,523.8889,63.6033,513.7778,64.2029,503.6667,64.0411,493.5556,63.695,483.4444,64.553,473.3333,64.3588,463.2222,63.9237,453.1111,64.2791,443,63.9766,442.8721,63.9766,442.7594,57.8789,442.9485,51.7813,442.8277,45.6836,443.1556,39.5859,443,33.4883" style="stroke: #A80036; stroke-width: 1.5;"/><text fill="#000000" font-family="sans-serif" font-size="14" lengthAdjust="spacingAndGlyphs" textLength="168" x="450" y="54.0234">BcContentsEventListener</text><polygon fill="#FEFECE" filter="url(#fmxvf13)" points="443,931.2246,443,931.7172,453.1111,931.2712,463.2222,931.1506,473.3333,930.6387,483.4444,931.6316,493.5556,930.4808,503.6667,931.299,513.7778,930.5456,523.8889,931.5977,534,931.9335,544.1111,930.667,554.2222,931.5905,564.3333,931.95,574.4444,931.8316,584.5556,931.8349,594.6667,930.7778,604.7778,931.0904,614.8889,931.7457,625,931.2246,624.8438,931.2246,625.1871,937.3223,624.8029,943.4199,624.8879,949.5176,624.8621,955.6152,625,961.7129,625,962.3731,614.8889,961.6177,604.7778,961.8344,594.6667,961.8882,584.5556,962.447,574.4444,961.667,564.3333,961.4064,554.2222,962.2067,544.1111,962.1064,534,962.2888,523.8889,962.1521,513.7778,961.2394,503.6667,961.9556,493.5556,961.246,483.4444,961.592,473.3333,961.3954,463.2222,962.3137,453.1111,961.6061,443,961.7129,443.1773,961.7129,443.1358,955.6152,442.9461,949.5176,443.1558,943.4199,443.1973,937.3223,443,931.2246" style="stroke: #A80036; stroke-width: 1.5;"/><text fill="#000000" font-family="sans-serif" font-size="14" lengthAdjust="spacingAndGlyphs" textLength="168" x="450" y="951.7598">BcContentsEventListener</text><polygon fill="#FEFECE" filter="url(#fmxvf13)" points="639,33.4883,639,33.5221,648.8421,33.9904,658.6842,33.8791,668.5263,34.059,678.3684,33.0651,688.2105,34.0365,698.0526,33.9786,707.8947,33.6203,717.7368,34.1199,727.5789,33.7825,737.4211,33.736,747.2632,33.6336,757.1053,33.9996,766.9474,33.1185,776.7895,34.0608,786.6316,34.1622,796.4737,34.2353,806.3158,33.5892,816.1579,32.7822,826,33.4883,825.8965,33.4883,826.0258,39.5859,826.2266,45.6836,825.9082,51.7813,826.0924,57.8789,826,63.9766,826,64.5525,816.1579,63.8887,806.3158,64.3429,796.4737,64.4268,786.6316,63.5761,776.7895,64.5688,766.9474,63.7841,757.1053,63.9272,747.2632,64.2694,737.4211,63.7542,727.5789,63.5888,717.7368,63.5239,707.8947,64.4257,698.0526,63.6888,688.2105,63.4843,678.3684,64.3547,668.5263,64.0895,658.6842,64.6271,648.8421,63.4359,639,63.9766,639.1008,63.9766,638.802,57.8789,639.0416,51.7813,638.9212,45.6836,639.0156,39.5859,639,33.4883" style="stroke: #A80036; stroke-width: 1.5;"/><text fill="#000000" font-family="sans-serif" font-size="14" lengthAdjust="spacingAndGlyphs" textLength="173" x="646" y="54.0234">edit.php(ContentFolders)</text><polygon fill="#FEFECE" filter="url(#fmxvf13)" points="639,931.2246,639,931.8978,648.8421,931.1209,658.6842,930.8237,668.5263,931.8538,678.3684,931.396,688.2105,931.3925,698.0526,931.7738,707.8947,931.3596,717.7368,930.9006,727.5789,931.8345,737.4211,931.6783,747.2632,931.1408,757.1053,931.256,766.9474,931.5966,776.7895,931.2723,786.6316,931.3718,796.4737,931.0808,806.3158,930.7346,816.1579,931.9469,826,931.2246,825.9813,931.2246,826.1003,937.3223,825.8854,943.4199,825.7919,949.5176,825.8033,955.6152,826,961.7129,826,961.1767,816.1579,962.0146,806.3158,961.9404,796.4737,962.2284,786.6316,962.0109,776.7895,962.4502,766.9474,962.3513,757.1053,961.374,747.2632,962.2873,737.4211,961.738,727.5789,961.1204,717.7368,962.3098,707.8947,961.9394,698.0526,961.5414,688.2105,962.4391,678.3684,962.3099,668.5263,961.3818,658.6842,962.2465,648.8421,961.6375,639,961.7129,639.1304,961.7129,639.156,955.6152,638.9462,949.5176,638.7949,943.4199,638.7871,937.3223,639,931.2246" style="stroke: #A80036; stroke-width: 1.5;"/><text fill="#000000" font-family="sans-serif" font-size="14" lengthAdjust="spacingAndGlyphs" textLength="173" x="646" y="951.7598">edit.php(ContentFolders)</text><polygon fill="#A80036" points="310.5,95.9766,310.4437,95.8359,312.4217,96.5809,314.4983,97.5723,316.4252,98.1897,318.4271,98.9943,320.5,99.9766,320.5489,100.0988,318.5887,100.9983,316.5109,101.6039,314.5315,102.4552,312.4282,102.997,310.5,103.9766,310.5233,103.9999,311.3278,103.2043,312.2345,102.511,312.9359,101.6125,313.7937,100.8702,314.5,99.9766,314.5564,100.033,313.6689,99.1454,312.877,98.3536,312.1235,97.6,311.239,96.7156,310.5,95.9766" style="stroke: #A80036; stroke-width: 1.0;"/><path d="M105,99.9766 L105,100.4692 L115.0714,99.9223 L125.1429,100.0017 L135.2143,99.4242 L145.2857,99.3495 L155.3571,99.6693 L165.4286,99.2284 L175.5,99.5475 L185.5714,99.4332 L195.6429,99.44 L205.7143,99.4197 L215.7857,99.0911 L225.8571,99.097 L235.9286,99.1121 L246,100.3847 L256.0714,99.3715 L266.1429,100.152 L276.2143,99.8623 L286.2857,99.7269 L296.3571,100.6534 L306.4286,99.6787 L316.5,99.9766 " fill="none" style="stroke: #A80036; stroke-width: 1.0;"/><text fill="#000000" font-family="sans-serif" font-size="13" lengthAdjust="spacingAndGlyphs" textLength="100" x="112" y="95.5449">loadComponent</text><polygon fill="#A80036" points="116,125.2871,116.0745,125.4734,113.9162,125.8775,112.0305,126.9634,109.9107,127.4639,107.9145,128.2734,106,129.2871,106.0702,129.4626,107.9738,130.0217,110.0562,131.0275,111.9961,131.6774,113.9561,132.3774,116,133.2871,115.9871,133.2742,115.0689,132.3561,114.4366,131.7237,113.7767,131.0638,112.8572,130.1443,112,129.2871,111.9225,129.2096,112.9268,128.6139,113.5889,127.676,114.2536,126.7407,115.1518,126.0389,116,125.2871" style="stroke: #A80036; stroke-width: 1.0;"/><path d="M110,129.2871 L110,129.0897 L120.0714,129.6455 L130.1429,129.089 L140.2143,128.3655 L150.2857,130.2363 L160.3571,129.8309 L170.4286,128.6628 L180.5,129.8955 L190.5714,128.4267 L200.6429,128.8704 L210.7143,129.285 L220.7857,128.964 L230.8571,129.7127 L240.9286,128.3816 L251,129.1048 L261.0714,129.2904 L271.1429,129.4465 L281.2143,129.7639 L291.2857,130.1355 L301.3571,130.2292 L311.4286,129.5143 L321.5,129.2871 " fill="none" style="stroke: #A80036; stroke-width: 1.0;"/><text fill="#000000" font-family="sans-serif" font-size="13" lengthAdjust="spacingAndGlyphs" textLength="77" x="122" y="124.8555">setUpAdmin</text><polygon fill="#A80036" points="310.5,154.5977,310.5441,154.7078,312.547,155.5152,314.4559,156.0875,316.5687,157.1694,318.4928,157.7797,320.5,158.5977,320.4376,158.4415,318.5889,159.6199,316.5872,160.4157,314.5312,161.0757,312.4971,161.7904,310.5,162.5977,310.5211,162.6187,311.2245,161.7222,312.1846,161.0822,312.9761,160.2737,313.7383,159.4359,314.5,158.5977,314.6162,158.7138,313.7366,157.8342,312.8056,156.9033,312.2694,156.3671,311.3757,155.4734,310.5,154.5977" style="stroke: #A80036; stroke-width: 1.0;"/><path d="M105,158.5977 L105,158.3391 L115.0714,158.9421 L125.1429,158.1902 L135.2143,157.9205 L145.2857,157.6393 L155.3571,159.1307 L165.4286,158.3598 L175.5,157.6692 L185.5714,158.798 L195.6429,158.0523 L205.7143,158.0569 L215.7857,158.0198 L225.8571,158.2734 L235.9286,158.834 L246,158.961 L256.0714,158.2148 L266.1429,159.3791 L276.2143,158.9314 L286.2857,159.1383 L296.3571,159.1567 L306.4286,158.7404 L316.5,158.5977 " fill="none" style="stroke: #A80036; stroke-width: 1.0;"/><text fill="#000000" font-family="sans-serif" font-size="13" lengthAdjust="spacingAndGlyphs" textLength="76" x="112" y="154.166">editメソッド</text><polygon fill="#FBFB77" filter="url(#fmxvf13)" points="219,171.9082,219.0144,171.9082,219.216,176.9082,219.1457,181.9082,219.2005,186.9082,218.8411,191.9082,219,196.9082,219,197.3442,229.15,197.609,239.3,196.3952,249.45,196.7527,259.6,196.3198,269.75,197.225,279.9,197.3142,290.05,197.014,300.2,197.2242,310.35,197.0979,320.5,196.7858,330.65,196.4353,340.8,197.3279,350.95,196.7678,361.1,197.0134,371.25,197.1357,381.4,197.3291,391.55,196.9677,401.7,197.4989,411.85,197.6435,422,196.9082,422.0412,196.9082,421.8653,193.9082,422.0099,190.9082,422.2359,187.9082,422.2009,184.9082,422,181.9082,421.8531,181.7613,420.0131,179.9213,417.8993,177.8075,415.8753,175.7835,413.9494,173.8576,412,171.9082,412,171.6603,401.8421,171.34,391.6842,171.2018,381.5263,172.5061,371.3684,171.8889,361.2105,171.981,351.0526,172.5414,340.8947,171.7102,330.7368,172.358,320.5789,172.2677,310.4211,172.5781,300.2632,172.3629,290.1053,172.5216,279.9474,171.4591,269.7895,171.2187,259.6316,171.5597,249.4737,171.8055,239.3158,171.2062,229.1579,172.6009,219,171.9082" style="stroke: #A80036; stroke-width: 1.0;"/><path d="M412,171.9082 L411.6668,171.9082 L411.7519,173.9082 L412.0628,175.9082 L411.7744,177.9082 L411.8684,179.9082 L412,181.9082 " fill="#FBFB77" style="stroke: #A80036; stroke-width: 1.0;"/><path d="M422,181.9082 L422,182.1282 L420,181.8216 L418,182.1141 L416,181.7772 L414,181.6012 L412,181.9082 " fill="#FBFB77" style="stroke: #A80036; stroke-width: 1.0;"/><text fill="#000000" font-family="sans-serif" font-size="13" lengthAdjust="spacingAndGlyphs" textLength="182" x="225" y="189.4766">コンテンツアイテムの読み込み</text><path d="M322.5,227.5293 L322.5,227.5018 L330.9,227.8289 L339.3,227.683 L347.7,227.2493 L356.1,227.3993 L364.5,227.5293 " fill="none" style="stroke: #A80036; stroke-width: 1.0;"/><path d="M364.5,227.5293 L364.7036,227.5293 L364.7756,230.1293 L364.5177,232.7293 L364.1849,235.3293 L364.5703,237.9293 L364.5,240.5293 " fill="none" style="stroke: #A80036; stroke-width: 1.0;"/><path d="M323.5,240.5293 L323.5,240.4754 L331.7,240.3978 L339.9,240.2372 L348.1,240.233 L356.3,240.1972 L364.5,240.5293 " fill="none" style="stroke: #A80036; stroke-width: 1.0;"/><polygon fill="#A80036" points="333.5,236.5293,333.4742,236.4648,331.5534,237.4629,329.5235,238.188,327.5774,239.1229,325.4475,239.598,323.5,240.5293,323.4712,240.4573,325.452,241.2094,327.4283,241.9501,329.5602,243.0798,331.5898,243.9537,333.5,244.5293,333.5723,244.6016,332.6571,243.6864,331.8338,242.8631,330.9314,241.9607,330.2287,241.258,329.5,240.5293,329.3766,240.4059,330.1316,239.5608,331.2116,239.0409,331.8771,238.1064,332.6941,237.3233,333.5,236.5293" style="stroke: #A80036; stroke-width: 1.0;"/><text fill="#000000" font-family="sans-serif" font-size="13" lengthAdjust="spacingAndGlyphs" textLength="76" x="329.5" y="222.7871">settingForm</text><polygon fill="#FBFB77" filter="url(#fmxvf13)" points="225,253.5293,225.7405,253.5293,224.2865,263.5793,224.2664,273.6293,224.9209,283.6793,225.2073,293.7293,224.3206,303.7793,224.6329,313.8293,224.5991,323.8793,225.4433,333.9293,225.0133,343.9793,224.7499,354.0293,224.5478,364.0793,225.1078,374.1293,224.9297,384.1793,225.4126,394.2293,224.6504,404.2793,225.0488,414.3293,224.4738,424.3793,225.6968,434.4293,224.6385,444.4793,225,454.5293,225,454.8976,235,454.2628,245,454.4161,255,453.8996,265,455.2496,275,453.9123,285,454.5014,295,453.8753,305,453.7929,315,455.2113,325,453.9012,335,454.1982,345,454.452,355,455.135,365,453.8792,375,454.069,385,455.1328,395,455.0645,405,453.926,415,454.5293,415.4001,454.5293,414.7775,444.4767,415.217,434.424,415.1906,424.3714,415.501,414.3188,415.371,404.2661,414.3745,394.2135,415.5954,384.1609,414.9819,374.1082,415.1944,364.0556,415.4152,354.003,415.518,343.9503,414.488,333.8977,414.7003,323.8451,415.6333,313.7925,414.3278,303.7398,414.4418,293.6872,415.1893,283.6346,415.1501,273.5819,415,263.5293,414.9845,263.5138,412.9558,261.4851,411.1574,259.6867,409.1341,257.6634,407.0073,255.5366,405,253.5293,405,254.1208,395,253.9506,385,253.4803,375,253.9687,365,254.2249,355,253.0184,345,253.7549,335,253.4571,325,253.1914,315,253.1361,305,254.097,295,253.3701,285,253.3253,275,253.8759,265,253.59,255,253.8722,245,253.3836,235,253.1231,225,253.5293" style="stroke: #A80036; stroke-width: 1.0;"/><path d="M405,253.5293 L404.8483,253.5293 L404.8101,255.5293 L404.7454,257.5293 L405.3058,259.5293 L405.0163,261.5293 L405,263.5293 " fill="#FBFB77" style="stroke: #A80036; stroke-width: 1.0;"/><path d="M415,263.5293 L415,263.3108 L413,263.4776 L411,263.7539 L409,263.2582 L407,263.6895 L405,263.5293 " fill="#FBFB77" style="stroke: #A80036; stroke-width: 1.0;"/><text fill="#000000" font-family="sans-serif" font-size="13" lengthAdjust="spacingAndGlyphs" textLength="169" x="231" y="271.0977">管理画面で使用するフォーム</text><text fill="#000000" font-family="sans-serif" font-size="13" lengthAdjust="spacingAndGlyphs" textLength="65" x="231" y="286.4082">の変数準備</text><path d="M226,289.1504 L226,288.6257 L235.8947,289.7799 L245.7895,289.9485 L255.6842,288.2886 L265.5789,290.1185 L275.4737,289.1299 L285.3684,289.0572 L295.2632,288.2109 L305.1579,288.7572 L315.0526,289.7543 L324.9474,288.6013 L334.8421,289.0349 L344.7368,289.6748 L354.6316,288.7502 L364.5263,289.0859 L374.4211,289.1653 L384.3158,289.2682 L394.2105,290.1185 L404.1053,288.1738 L414,289.1504 " fill="#FBFB77" style="stroke: #A80036; stroke-width: 1.0;"/><text fill="#000000" font-family="sans-serif" font-size="13" lengthAdjust="spacingAndGlyphs" textLength="112" x="231" y="305.7188">$layoutTemplates</text><text fill="#000000" font-family="sans-serif" font-size="13" lengthAdjust="spacingAndGlyphs" textLength="51" x="231" y="321.0293">$related</text><text fill="#000000" font-family="sans-serif" font-size="13" lengthAdjust="spacingAndGlyphs" textLength="88" x="231" y="336.3398">$currentSiteId</text><text fill="#000000" font-family="sans-serif" font-size="13" lengthAdjust="spacingAndGlyphs" textLength="56" x="231" y="351.6504">$content</text><text fill="#000000" font-family="sans-serif" font-size="13" lengthAdjust="spacingAndGlyphs" textLength="108" x="231" y="366.9609">$relatedContents</text><text fill="#000000" font-family="sans-serif" font-size="13" lengthAdjust="spacingAndGlyphs" textLength="74" x="231" y="382.2715">$mainSiteId</text><text fill="#000000" font-family="sans-serif" font-size="13" lengthAdjust="spacingAndGlyphs" textLength="145" x="231" y="397.582">$mainSiteDisplayName</text><text fill="#000000" font-family="sans-serif" font-size="13" lengthAdjust="spacingAndGlyphs" textLength="38" x="231" y="412.8926">$sites</text><text fill="#000000" font-family="sans-serif" font-size="13" lengthAdjust="spacingAndGlyphs" textLength="112" x="231" y="428.2031">$layoutTemplates</text><text fill="#000000" font-family="sans-serif" font-size="13" lengthAdjust="spacingAndGlyphs" textLength="80" x="231" y="443.5137">$entityName</text><polygon fill="#A80036" points="524,481.2559,523.9505,481.1322,526.0241,482.1161,527.9248,482.6678,529.9228,483.463,531.9102,484.2313,534,485.2559,533.9093,485.0291,531.9854,486.0193,529.9693,486.7792,527.9658,487.5703,526.0698,488.6303,524,489.2559,524.0889,489.3448,524.9716,488.6275,525.5835,487.6393,526.3299,486.7857,527.373,486.2289,528,485.2559,527.9473,485.2031,527.0234,484.2793,526.4362,483.6921,525.4884,482.7442,524.9345,482.1904,524,481.2559" style="stroke: #A80036; stroke-width: 1.0;"/><path d="M322.5,485.2559 L322.5,484.2736 L332.381,485.9578 L342.2619,484.8893 L352.1429,485.0404 L362.0238,485.1841 L371.9048,484.6409 L381.7857,484.4519 L391.6667,484.7981 L401.5476,485.8884 L411.4286,485.3633 L421.3095,484.8844 L431.1905,484.4615 L441.0714,484.763 L450.9524,485.2081 L460.8333,484.9684 L470.7143,485.2671 L480.5952,485.3499 L490.4762,484.2967 L500.3571,485.3238 L510.2381,485.8722 L520.119,485.8472 L530,485.2559 " fill="none" style="stroke: #A80036; stroke-width: 1.0;"/><text fill="#000000" font-family="sans-serif" font-size="13" lengthAdjust="spacingAndGlyphs" textLength="78" x="329.5" y="480.8242">イベント設置</text><polygon fill="#A80036" points="116,510.5664,116.0912,510.7945,114.0135,511.4002,112.0376,512.2603,109.9534,512.8499,107.9326,513.598,106,514.5664,105.969,514.489,107.9204,515.1674,110.0138,516.201,111.9946,516.953,113.9596,517.6653,116,518.5664,116.1282,518.6946,115.189,517.7554,114.3829,516.9493,113.6271,516.1935,112.6703,515.2367,112,514.5664,111.9634,514.5298,112.7798,513.7462,113.7036,513.07,114.312,512.0784,115.1827,511.3491,116,510.5664" style="stroke: #A80036; stroke-width: 1.0;"/><path d="M110,514.5664 L110,514.8615 L120.0714,514.2783 L130.1429,514.9391 L140.2143,515.3864 L150.2857,514.7296 L160.3571,514.7294 L170.4286,515.2919 L180.5,515.4804 L190.5714,513.8053 L200.6429,515.4808 L210.7143,513.93 L220.7857,514.1624 L230.8571,513.9599 L240.9286,515.2235 L251,514.6794 L261.0714,515.5655 L271.1429,514.3862 L281.2143,513.6825 L291.2857,514.8029 L301.3571,515.1912 L311.4286,515.5594 L321.5,514.5664 " fill="none" style="stroke: #A80036; stroke-width: 1.0;"/><text fill="#000000" font-family="sans-serif" font-size="13" lengthAdjust="spacingAndGlyphs" textLength="83" x="122" y="510.1348">beforeRender</text><polygon fill="#A80036" points="722.5,539.877,722.4923,539.8577,724.4397,540.5261,726.5058,541.4914,728.4108,542.0539,730.5711,543.2548,732.5,543.877,732.5022,543.8825,730.5124,544.7079,728.4091,545.2498,726.5524,546.4079,724.5422,547.1825,722.5,547.877,722.6351,548.0121,723.4251,547.202,724.2058,546.3827,724.8993,545.4762,725.7903,544.7672,726.5,543.877,726.4336,543.8106,725.7358,543.1128,724.885,542.262,724.0973,541.4743,723.2346,540.6115,722.5,539.877" style="stroke: #A80036; stroke-width: 1.0;"/><path d="M105,543.877 L105,544.0391 L115.0565,544.3975 L125.1129,543.3159 L135.1694,544.7232 L145.2258,543.6396 L155.2823,543.6277 L165.3387,543.329 L175.3952,544.4881 L185.4516,543.5315 L195.5081,543.3609 L205.5645,542.9234 L215.621,542.9569 L225.6774,544.5625 L235.7339,544.0145 L245.7903,543.5084 L255.8468,543.1767 L265.9032,544.3912 L275.9597,543.542 L286.0161,543.803 L296.0726,543.8148 L306.129,543.0439 L316.1855,543.6355 L326.2419,544.3325 L336.2984,543.2758 L346.3548,543.6161 L356.4113,543.8435 L366.4677,544.2261 L376.5242,544.6851 L386.5806,543.0409 L396.6371,543.3923 L406.6935,543.8588 L416.75,544.1405 L426.8065,544.2638 L436.8629,544.7758 L446.9194,544.3903 L456.9758,543.7514 L467.0323,543.2569 L477.0887,544.6345 L487.1452,543.4418 L497.2016,544.2875 L507.2581,544.0984 L517.3145,544.092 L527.371,543.0378 L537.4274,543.7477 L547.4839,544.8142 L557.5403,544.5512 L567.5968,543.505 L577.6532,543.8395 L587.7097,543.8415 L597.7661,543.9739 L607.8226,543.2773 L617.879,544.2232 L627.9355,543.8252 L637.9919,544.8755 L648.0484,543.4989 L658.1048,544.428 L668.1613,543.9916 L678.2177,544.6662 L688.2742,543.9493 L698.3306,543.5889 L708.3871,544.5738 L718.4435,543.5483 L728.5,543.877 " fill="none" style="stroke: #A80036; stroke-width: 1.0;"/><text fill="#000000" font-family="sans-serif" font-size="13" lengthAdjust="spacingAndGlyphs" textLength="103" x="112" y="539.4453">editへrender処理</text><polygon fill="#A80036" points="547,569.1875,546.9307,569.0143,545.0651,570.1502,543.0736,570.9715,540.9147,571.3742,539.0455,572.5014,537,573.1875,536.9855,573.1513,539.0594,574.1361,541.057,574.9301,542.9606,575.4891,545.0204,576.4384,547,577.1875,547.1022,577.2897,546.1173,576.3048,545.3817,575.5692,544.5144,574.7019,543.7897,573.9772,543,573.1875,543.0461,573.2336,543.8026,572.3901,544.7089,571.6964,545.3633,570.7508,546.1725,569.96,547,569.1875" style="stroke: #A80036; stroke-width: 1.0;"/><path d="M541,573.1875 L541,573.6513 L551.1316,573.6209 L561.2632,572.9348 L571.3947,574.1784 L581.5263,574.1226 L591.6579,573.2604 L601.7895,572.3818 L611.9211,572.4621 L622.0526,573.3757 L632.1842,572.3354 L642.3158,574.1028 L652.4474,572.309 L662.5789,574.0011 L672.7105,574.1767 L682.8421,573.7346 L692.9737,573.6757 L703.1053,572.6841 L713.2368,572.8034 L723.3684,573.5968 L733.5,573.1875 " fill="none" style="stroke: #A80036; stroke-width: 1.0;"/><text fill="#000000" font-family="sans-serif" font-size="13" lengthAdjust="spacingAndGlyphs" textLength="143" x="553" y="568.7559">BcAdminForm-&gt;create</text><path d="M536,602.8086 L536,603.0083 L544.4,603.0149 L552.8,602.6848 L561.2,602.4809 L569.6,603.0595 L578,602.8086 " fill="none" style="stroke: #A80036; stroke-width: 1.0;"/><path d="M578,602.8086 L578.3052,602.8086 L578.2283,605.4086 L578.0228,608.0086 L577.6811,610.6086 L577.8254,613.2086 L578,615.8086 " fill="none" style="stroke: #A80036; stroke-width: 1.0;"/><path d="M537,615.8086 L537,616.1038 L545.2,616.097 L553.4,615.7645 L561.6,616.0189 L569.8,615.9002 L578,615.8086 " fill="none" style="stroke: #A80036; stroke-width: 1.0;"/><polygon fill="#A80036" points="547,611.8086,546.9965,611.7998,545.0268,612.6757,542.9264,613.2246,541.065,614.371,538.9438,614.8682,537,615.8086,536.9752,615.7467,539.0257,616.6729,540.9562,617.2991,543.0041,618.2187,544.9143,618.7944,547,619.8086,547.1462,619.9547,546.2243,619.0329,545.3317,618.1403,544.5912,617.3998,543.9399,616.7485,543,615.8086,542.9484,615.757,543.6781,614.8866,544.4307,614.0393,545.3272,613.3358,546.3181,612.7267,547,611.8086" style="stroke: #A80036; stroke-width: 1.0;"/><text fill="#000000" font-family="sans-serif" font-size="13" lengthAdjust="spacingAndGlyphs" textLength="109" x="543" y="598.0664">formBeforeCreate</text><polygon fill="#FBFB77" filter="url(#fmxvf13)" points="454,628.8086,453.8923,628.8086,453.8385,633.8086,453.917,638.8086,454.0263,643.8086,453.7959,648.8086,454,653.8086,454,654.2915,464,654.3022,474,653.5511,484,653.6786,494,654.4703,504,654.1466,514,654.3682,524,653.2991,534,653.2009,544,653.0634,554,654.2535,564,653.839,574,654.3108,584,654.4052,594,653.1743,604,653.4812,614,653.8086,614.1511,653.8086,614.151,650.8086,614.0222,647.8086,613.7718,644.8086,613.9429,641.8086,614,638.8086,614.167,638.9756,611.9924,636.801,609.8662,634.6748,608.0148,632.8234,605.9125,630.7211,604,628.8086,604,628.1758,594,629.3451,584,629.1198,574,628.7654,564,628.5071,554,629.2179,544,629.0274,534,629.4892,524,628.6584,514,628.9443,504,628.9398,494,629.134,484,628.7605,474,628.9221,464,628.2379,454,628.8086" style="stroke: #A80036; stroke-width: 1.0;"/><path d="M604,628.8086 L603.924,628.8086 L603.8136,630.8086 L604.2734,632.8086 L604.3245,634.8086 L604.1261,636.8086 L604,638.8086 " fill="#FBFB77" style="stroke: #A80036; stroke-width: 1.0;"/><path d="M614,638.8086 L614,638.8089 L612,639.0951 L610,638.643 L608,638.8384 L606,638.5413 L604,638.8086 " fill="#FBFB77" style="stroke: #A80036; stroke-width: 1.0;"/><text fill="#000000" font-family="sans-serif" font-size="13" lengthAdjust="spacingAndGlyphs" textLength="139" x="460" y="646.377">フォームoptionsの設定</text><polygon fill="#A80036" points="722.5,680.1191,722.4096,679.8932,724.4352,680.757,726.455,681.6067,728.5633,682.6773,730.5379,683.4139,732.5,684.1191,732.4933,684.1023,730.4425,684.7754,728.4582,685.6145,726.4622,686.4247,724.4592,687.2172,722.5,688.1191,722.4859,688.1051,723.4086,687.4278,724.1358,686.5549,724.9802,685.7994,725.7908,685.01,726.5,684.1191,726.57,684.1892,725.8549,683.474,724.8866,682.5058,724.0084,681.6275,723.1334,680.7525,722.5,680.1191" style="stroke: #A80036; stroke-width: 1.0;"/><path d="M536,684.1191 L536,684.2752 L546.1316,684.357 L556.2632,684.5488 L566.3947,684.1746 L576.5263,684.8666 L586.6579,683.7349 L596.7895,684.7608 L606.9211,683.1253 L617.0526,683.4858 L627.1842,684.8093 L637.3158,684.9718 L647.4474,683.3228 L657.5789,683.9099 L667.7105,684.1219 L677.8421,684.3482 L687.9737,683.4612 L698.1053,683.9461 L708.2368,684.7161 L718.3684,683.7023 L728.5,684.1191 " fill="none" style="stroke: #A80036; stroke-width: 1.0;"/><text fill="#000000" font-family="sans-serif" font-size="13" lengthAdjust="spacingAndGlyphs" textLength="101" x="543" y="679.6875">formAfterCreate</text><polygon fill="#FBFB77" filter="url(#fmxvf13)" points="407,697.4297,406.4689,697.4297,406.7806,707.0297,406.5542,716.6297,406.7962,726.2297,407.2066,735.8297,407,745.4297,407,745.3453,417.16,745.4042,427.32,745.7663,437.48,745.7752,447.64,745.7215,457.8,744.6932,467.96,746.0395,478.12,745.3252,488.28,745.1901,498.44,745.9906,508.6,745.0595,518.76,745.036,528.92,745.8947,539.08,746.0595,549.24,745.7938,559.4,746.0721,569.56,745.5919,579.72,745.4884,589.88,745.8627,600.04,745.2074,610.2,746.0823,620.36,745.4429,630.52,745.1705,640.68,745.9592,650.84,744.9513,661,745.4297,660.7983,745.4297,661.1757,737.8297,661.1663,730.2297,661.0345,722.6297,660.874,715.0297,661,707.4297,661.0867,707.5164,659.1601,705.5898,656.8968,703.3265,655.1173,701.547,652.9303,699.36,651,697.4297,651,697.556,640.8333,697.6608,630.6667,697.7083,620.5,696.9734,610.3333,697.088,600.1667,697.7943,590,697.5027,579.8333,697.9896,569.6667,697.1016,559.5,698.1632,549.3333,698.0716,539.1667,697.352,529,697.6364,518.8333,696.9666,508.6667,697.3981,498.5,696.719,488.3333,697.5272,478.1667,696.8463,468,697.6087,457.8333,696.9665,447.6667,697.8102,437.5,696.8608,427.3333,697.9166,417.1667,697.3669,407,697.4297" style="stroke: #A80036; stroke-width: 1.0;"/><path d="M651,697.4297 L651.0461,697.4297 L651.0833,699.4297 L650.918,701.4297 L651.294,703.4297 L650.6913,705.4297 L651,707.4297 " fill="#FBFB77" style="stroke: #A80036; stroke-width: 1.0;"/><path d="M661,707.4297 L661,707.6242 L659,707.2673 L657,707.277 L655,707.2888 L653,707.5691 L651,707.4297 " fill="#FBFB77" style="stroke: #A80036; stroke-width: 1.0;"/><text fill="#000000" font-family="sans-serif" font-size="13" lengthAdjust="spacingAndGlyphs" textLength="131" x="413" y="714.998">フォームIDのチェック</text><path d="M408,717.7402 L408,717.4862 L418.08,718.5948 L428.16,716.9091 L438.24,717.7618 L448.32,717.6277 L458.4,717.9661 L468.48,716.8447 L478.56,717.303 L488.64,717.7747 L498.72,716.9912 L508.8,717.5502 L518.88,718.0691 L528.96,717.6183 L539.04,717.4022 L549.12,716.9637 L559.2,716.8455 L569.28,717.6162 L579.36,717.4437 L589.44,718.3501 L599.52,716.8177 L609.6,717.7256 L619.68,718.5931 L629.76,716.9563 L639.84,717.6413 L649.92,717.1617 L660,717.7402 " fill="#FBFB77" style="stroke: #A80036; stroke-width: 1.0;"/><text fill="#000000" font-family="sans-serif" font-size="13" lengthAdjust="spacingAndGlyphs" textLength="233" x="413" y="734.3086">content_fieldsをフォームに結合し出力</text><polygon fill="#A80036" points="547,772.0508,546.9239,771.8606,545.0118,772.8802,543.0518,773.7804,541.0223,774.5066,539.0665,775.417,537,776.0508,537.0793,776.249,538.9336,776.6847,541.0063,777.6664,542.9944,778.4368,544.9598,779.1503,547,780.0508,546.8575,779.9083,546.3763,779.4271,545.5711,778.6219,544.496,777.5468,543.8489,776.8997,543,776.0508,543.1059,776.1567,543.8207,775.2715,544.4439,774.2947,545.4274,773.6782,546.028,772.6788,547,772.0508" style="stroke: #A80036; stroke-width: 1.0;"/><path d="M541,776.0508 L541,776.4263 L551.1316,776.0586 L561.2632,775.463 L571.3947,775.5763 L581.5263,776.8359 L591.6579,775.7199 L601.7895,776.4407 L611.9211,776.1169 L622.0526,777.0097 L632.1842,776.8407 L642.3158,775.203 L652.4474,775.5533 L662.5789,776.8715 L672.7105,776.2788 L682.8421,776.8327 L692.9737,776.5169 L703.1053,776.2813 L713.2368,776.0487 L723.3684,776.3869 L733.5,776.0508 " fill="none" style="stroke: #A80036; stroke-width: 1.0;"/><text fill="#000000" font-family="sans-serif" font-size="13" lengthAdjust="spacingAndGlyphs" textLength="149" x="553" y="771.6191">BcAdminForm-&gt;submit</text><polygon fill="#A80036" points="722.5,801.3613,722.4298,801.1859,724.5385,802.2575,726.5703,803.1372,728.4667,803.678,730.5084,804.5824,732.5,805.3613,732.4126,805.1427,730.4461,806.0265,728.4667,806.878,726.4833,807.7196,724.459,808.4588,722.5,809.3613,722.456,809.3173,723.1661,808.4274,724.1199,807.7812,724.9421,807.0035,725.7468,806.2081,726.5,805.3613,726.5892,805.4505,725.6537,804.515,724.7851,803.6464,723.9753,802.8366,723.4108,802.2721,722.5,801.3613" style="stroke: #A80036; stroke-width: 1.0;"/><path d="M536,805.3613 L536,806.2171 L546.1316,805.7249 L556.2632,806.3484 L566.3947,804.8372 L576.5263,806.0682 L586.6579,804.8066 L596.7895,805.2571 L606.9211,804.725 L617.0526,805.6932 L627.1842,804.4327 L637.3158,805.4278 L647.4474,804.8117 L657.5789,804.8472 L667.7105,805.8621 L677.8421,806.2172 L687.9737,805.8625 L698.1053,804.9826 L708.2368,804.6222 L718.3684,805.6448 L728.5,805.3613 " fill="none" style="stroke: #A80036; stroke-width: 1.0;"/><text fill="#000000" font-family="sans-serif" font-size="13" lengthAdjust="spacingAndGlyphs" textLength="105" x="543" y="800.9297">formAfterSubmit</text><polygon fill="#FBFB77" filter="url(#fmxvf13)" points="439,818.6719,439.5671,818.6719,439.531,829.1163,438.9515,839.5608,438.5893,850.0052,439.3018,860.4497,439.5584,870.8941,438.5215,881.3385,439.3806,891.783,439.4099,902.2274,439,912.6719,439,911.9866,449,913.3116,459,912.4552,469,913.1862,479,912.8024,489,912.8547,499,913.0619,509,913.0203,519,913.3424,529,912.2659,539,911.9507,549,913.4047,559,913.1475,569,913.3077,579,912.596,589,912.6995,599,912.7631,609,912.5264,619,913.0375,629,912.6719,629.5152,912.6719,628.5041,902.1719,629.0992,891.6719,628.6139,881.1719,629.5699,870.6719,629.155,860.1719,629.157,849.6719,628.9493,839.1719,629,828.6719,628.9153,828.5871,627.0554,826.7273,625.0731,824.745,622.9041,822.576,620.8831,820.555,619,818.6719,619,818.4734,609,818.0419,599,819.3637,589,818.6241,579,818.6359,569,819.1891,559,818.3242,549,818.7025,539,818.6836,529,818.7317,519,818.2911,509,818.865,499,819.0123,489,818.6965,479,818.9278,469,818.3877,459,818.6108,449,818.4836,439,818.6719" style="stroke: #A80036; stroke-width: 1.0;"/><path d="M619,818.6719 L619.2331,818.6719 L619.2183,820.6719 L618.7649,822.6719 L619.2124,824.6719 L619.1422,826.6719 L619,828.6719 " fill="#FBFB77" style="stroke: #A80036; stroke-width: 1.0;"/><path d="M629,828.6719 L629,828.6006 L627,828.9674 L625,828.9201 L623,828.7257 L621,828.5735 L619,828.6719 " fill="#FBFB77" style="stroke: #A80036; stroke-width: 1.0;"/><text fill="#000000" font-family="sans-serif" font-size="13" lengthAdjust="spacingAndGlyphs" textLength="169" x="445" y="836.2402">以下をフォームに追加し出力</text><path d="M440,838.9824 L440,839.3559 L449.8947,838.5894 L459.7895,838 L469.6842,838.6354 L479.5789,839.4913 L489.4737,838.7073 L499.3684,838.3542 L509.2632,839.7225 L519.1579,838.9706 L529.0526,839.0519 L538.9474,838.9509 L548.8421,839.1478 L558.7368,839.542 L568.6316,839.8764 L578.5263,838.0414 L588.4211,839.6794 L598.3158,839.2703 L608.2105,838.686 L618.1053,838.9536 L628,838.9824 " fill="#FBFB77" style="stroke: #A80036; stroke-width: 1.0;"/><text fill="#000000" font-family="sans-serif" font-size="13" lengthAdjust="spacingAndGlyphs" textLength="116" x="445" y="855.5508">・content_options</text><text fill="#000000" font-family="sans-serif" font-size="13" lengthAdjust="spacingAndGlyphs" textLength="114" x="445" y="870.8613">・content_actions</text><text fill="#000000" font-family="sans-serif" font-size="13" lengthAdjust="spacingAndGlyphs" textLength="111" x="445" y="886.1719">・content_related</text><text fill="#000000" font-family="sans-serif" font-size="13" lengthAdjust="spacingAndGlyphs" textLength="93" x="445" y="901.4824">・content_info</text></g></svg>