<?xml version="1.0" encoding="UTF-8" standalone="no"?><svg xmlns="http://www.w3.org/2000/svg" xmlns:xlink="http://www.w3.org/1999/xlink" contentScriptType="application/ecmascript" contentStyleType="text/css" height="694px" preserveAspectRatio="none" style="width:325px;height:694px;" version="1.1" viewBox="0 0 325 694" width="325px" zoomAndPan="magnify"><defs><filter height="300%" id="fb96u1w" width="300%" x="-1" y="-1"><feGaussianBlur result="blurOut" stdDeviation="2.0"/><feColorMatrix in="blurOut" result="blurOut2" type="matrix" values="0 0 0 0 0 0 0 0 0 0 0 0 0 0 0 0 0 0 .4 0"/><feOffset dx="4.0" dy="4.0" in="blurOut2" result="blurOut3"/><feBlend in="SourceGraphic" in2="blurOut3" mode="normal"/></filter></defs><g><text fill="#000000" font-family="sans-serif" font-size="18" lengthAdjust="spacingAndGlyphs" textLength="324" x="0" y="17.4023">ドメインモデル図：カスタムフィールド</text><!--cluster カスタムフィールド--><polygon fill="#FFFFFF" filter="url(#fb96u1w)" points="62,194.1992,62,194.8921,72.1538,193.8508,82.3077,193.6602,92.4615,194.4464,102.6154,194.1333,112.7692,194.7329,122.9231,194.5356,133.0769,194.0347,143.2308,194.0876,153.3846,193.6995,163.5385,194.475,173.6923,193.7377,183.8462,194.3661,194,194.1992,193.92,194.1743,195.2412,198.6474,196.7575,203.1813,198.176,207.6847,199.4849,212.154,201,216.6875,201,217.2752,210.8,216.371,220.6,216.9337,230.4,216.738,240.2,216.2482,250,216.6875,249.8853,216.6875,250.135,226.6984,249.51,236.7093,249.5015,246.7202,249.4667,256.7311,250.7172,266.7419,250.5121,276.7528,250.2985,286.7637,249.3062,296.7746,250.4376,306.7855,249.8037,316.7964,249.6428,326.8073,249.9275,336.8182,249.434,346.829,249.5499,356.8399,249.3622,366.8508,250.0685,376.8617,250.4633,386.8726,250.3988,396.8835,250.6893,406.8944,249.5979,416.9053,250.2042,426.9161,250.4253,436.927,249.5797,446.9379,249.6748,456.9488,249.4742,466.9597,249.2945,476.9706,250.2346,486.9815,250.5347,496.9924,249.3794,507.0032,249.7372,517.0141,250.5278,527.025,250.4243,537.0359,249.6659,547.0468,249.5683,557.0577,249.6105,567.0686,249.4758,577.0795,250.0486,587.0903,249.515,597.1012,249.5452,607.1121,250.7309,617.123,250.0743,627.1339,249.5382,637.1448,249.9195,647.1557,249.5755,657.1666,249.62,667.1774,250.6497,677.1883,250,687.1992,250,687.2042,240.1053,687.2448,230.2105,686.6319,220.3158,686.6262,210.4211,687.3548,200.5263,686.998,190.6316,686.8959,180.7368,686.7221,170.8421,687.483,160.9474,687.7234,151.0526,687.6493,141.1579,687.6528,131.2632,687.1139,121.3684,686.8796,111.4737,686.9807,101.5789,687.5208,91.6842,686.6938,81.7895,687.4091,71.8947,687.3062,62,687.1992,62.3988,687.1992,61.8212,677.138,61.7778,667.0768,62.468,657.0155,61.6491,646.9543,62.1709,636.8931,62.6208,626.8319,61.688,616.7706,61.8201,606.7094,61.9233,596.6482,62.274,586.587,61.4019,576.5257,62.1686,566.4645,61.7173,556.4033,62.2627,546.3421,62.3981,536.2809,61.7149,526.2196,62.4341,516.1584,61.8095,506.0972,62.4198,496.036,62.141,485.9747,61.5658,475.9135,62.7068,465.8523,61.5327,455.7911,61.5544,445.7298,61.8195,435.6686,62.7491,425.6074,62.3994,415.5462,61.8433,405.4849,62.6032,395.4237,62.5027,385.3625,62.2977,375.3013,61.7386,365.24,61.8615,355.1788,61.7133,345.1176,62.4796,335.0564,61.4782,324.9951,61.5571,314.9339,61.8175,304.8727,61.9998,294.8115,62.1455,284.7502,61.9463,274.689,62.3295,264.6278,61.432,254.5666,62.3122,244.5053,62.6567,234.4441,61.3188,224.3829,62.4525,214.3217,61.5731,204.2604,62,194.1992" style="stroke: #000000; stroke-width: 2.0;"/><path d="M62,216.6875 L62,216.6309 L71.9286,215.7314 L81.8571,216.814 L91.7857,215.8912 L101.7143,216.0308 L111.6429,217.2806 L121.5714,216.7805 L131.5,217.3522 L141.4286,215.7187 L151.3571,216.5178 L161.2857,215.8871 L171.2143,215.8898 L181.1429,217.6788 L191.0714,217.1262 L201,216.6875 " fill="#FFFFFF" style="stroke: #000000; stroke-width: 2.0;"/><text fill="#000000" font-family="sans-serif" font-size="14" font-weight="bold" lengthAdjust="spacingAndGlyphs" textLength="126" x="66" y="209.7344">カスタムフィールド</text><!--class カスタムフィールド--><polygon fill="#FEFECE" filter="url(#fb96u1w)" points="78.5,229.1992,78.5,229.4403,88.1875,229.9022,97.875,229.1955,107.5625,229.6019,117.25,228.85,126.9375,229.7444,136.625,229.3467,146.3125,228.97,156,228.9102,165.6875,228.6352,175.375,228.8665,185.0625,229.5615,194.75,229.5392,204.4375,229.2661,214.125,228.7522,223.8125,229.4709,233.5,229.1992,233.3062,229.1992,233.9184,239.2358,233.8408,249.2723,232.9779,259.3088,233.4052,269.3453,233.3965,279.3819,232.9677,289.4184,233.7781,299.4549,232.9834,309.4915,233.1076,319.528,234.0226,329.5645,233.839,339.6011,233.9653,349.6376,234.129,359.6741,232.9833,369.7107,233.8986,379.7472,232.792,389.7837,232.7732,399.8203,234.0985,409.8568,232.9299,419.8933,234.191,429.9299,233.3758,439.9664,233.6599,450.0029,233.4884,460.0395,233.4724,470.076,233.0586,480.1125,233.004,490.1491,234.022,500.1856,234.0929,510.2221,234.2353,520.2587,233.201,530.2952,233.6193,540.3317,234.0368,550.3683,232.8254,560.4048,234.0136,570.4413,233.5058,580.4778,233.1369,590.5144,233.2431,600.5509,232.8572,610.5874,234.0762,620.624,233.8019,630.6605,233.7058,640.697,233.6505,650.7336,233.3693,660.7701,233.5,670.8066,233.5,671.5249,223.8125,670.595,214.125,670.4306,204.4375,671.4553,194.75,670.7767,185.0625,670.7179,175.375,670.6512,165.6875,670.9584,156,671.4615,146.3125,670.9152,136.625,671.2292,126.9375,670.4175,117.25,670.2854,107.5625,670.2782,97.875,670.8967,88.1875,671.1343,78.5,670.8066,78.4799,670.8066,79.0971,660.7701,78.5785,650.7336,78.4052,640.697,78.9653,630.6605,79.2027,620.624,77.9793,610.5874,78.2021,600.5509,78.4454,590.5144,78.7873,580.4778,78.037,570.4413,79.1752,560.4048,78.3161,550.3683,78.3273,540.3317,78.1164,530.2952,78.5218,520.2587,77.7673,510.2221,77.9974,500.1856,78.3803,490.1491,78.9122,480.1125,77.8975,470.076,77.7977,460.0395,78.5354,450.0029,78.1317,439.9664,78.2711,429.9299,78.2491,419.8933,78.8355,409.8568,78.6109,399.8203,78.1876,389.7837,77.9934,379.7472,78.3768,369.7107,78.1332,359.6741,78.2219,349.6376,78.1946,339.6011,79.0886,329.5645,77.95,319.528,78.6561,309.4915,79.094,299.4549,78.6979,289.4184,78.6232,279.3819,78.2464,269.3453,78.4152,259.3088,78.8427,249.2723,79.1408,239.2358,78.5,229.1992" style="stroke: #A80036; stroke-width: 1.5;"/><polygon fill="#ADD1B2" points="111.3889,247.6872,110.0546,249.7267,107.793,252.4634,106.8153,254.353,104.0578,255.8156,101.1953,255.9753,97.4867,256.2728,94.3768,254.3714,93.1575,252.7502,91.3727,250.5049,89.7318,249.1484,89.9029,245.5176,89.9512,243.4537,90.2065,240.0104,91.1495,238.2303,93.6342,236.0178,96.5159,234.3159,99.0342,234.6357,102.2186,233.9289,104.0922,235.0639,107.5031,236.2593,109.8847,239.2262,111.3534,242.4135,110.9102,245.1038,111.233,248.6612" style="stroke: #A80036; stroke-width: 1.0;"/><path d="M102.7231,251.3423 Q102.1421,251.6411 101.5029,251.7905 Q100.8638,251.9399 100.1582,251.9399 Q97.6514,251.9399 96.3315,250.2881 Q95.0117,248.6362 95.0117,245.5151 Q95.0117,242.3857 96.3315,240.7339 Q97.6514,239.082 100.1582,239.082 Q100.8638,239.082 101.5112,239.2314 Q102.1587,239.3809 102.7231,239.6797 L102.7231,242.4023 Q102.0923,241.8213 101.4988,241.5515 Q100.9053,241.2817 100.2744,241.2817 Q98.9297,241.2817 98.2449,242.3484 Q97.5601,243.415 97.5601,245.5151 Q97.5601,247.6069 98.2449,248.6736 Q98.9297,249.7402 100.2744,249.7402 Q100.9053,249.7402 101.4988,249.4705 Q102.0923,249.2007 102.7231,248.6196 Z "/><text fill="#000000" font-family="sans-serif" font-size="12" lengthAdjust="spacingAndGlyphs" textLength="108" x="115.75" y="249.7344">カスタムフィールド</text><path d="M79.5,261.1992 L79.5,261.7803 L89.7,260.5343 L99.9,260.9992 L110.1,262.0899 L120.3,261.9688 L130.5,261.5231 L140.7,261.4368 L150.9,261.8034 L161.1,262.1227 L171.3,260.2964 L181.5,260.5471 L191.7,261.1294 L201.9,260.6175 L212.1,261.2351 L222.3,262.0985 L232.5,261.1992 " fill="#FEFECE" style="stroke: #A80036; stroke-width: 1.5;"/><text fill="#000000" font-family="sans-serif" font-size="11" lengthAdjust="spacingAndGlyphs" textLength="99" x="84.5" y="275.834">カスタムテーブルID</text><text fill="#000000" font-family="sans-serif" font-size="11" lengthAdjust="spacingAndGlyphs" textLength="116" x="84.5" y="288.7891">カスタムフィールドNO</text><text fill="#000000" font-family="sans-serif" font-size="11" lengthAdjust="spacingAndGlyphs" textLength="22" x="84.5" y="301.7441">親ID</text><text fill="#000000" font-family="sans-serif" font-size="11" lengthAdjust="spacingAndGlyphs" textLength="88" x="84.5" y="314.6992">ツリー構造左位置</text><text fill="#000000" font-family="sans-serif" font-size="11" lengthAdjust="spacingAndGlyphs" textLength="88" x="84.5" y="327.6543">ツリー構造右位置</text><text fill="#000000" font-family="sans-serif" font-size="11" lengthAdjust="spacingAndGlyphs" textLength="55" x="84.5" y="340.6094">項目見出し</text><text fill="#000000" font-family="sans-serif" font-size="11" lengthAdjust="spacingAndGlyphs" textLength="66" x="84.5" y="353.5645">フィールド名</text><text fill="#000000" font-family="sans-serif" font-size="11" lengthAdjust="spacingAndGlyphs" textLength="88" x="84.5" y="366.5195">フィールドタイプ</text><text fill="#000000" font-family="sans-serif" font-size="11" lengthAdjust="spacingAndGlyphs" textLength="55" x="84.5" y="379.4746">ステータス</text><text fill="#000000" font-family="sans-serif" font-size="11" lengthAdjust="spacingAndGlyphs" textLength="77" x="84.5" y="392.4297">入力必須とする</text><text fill="#000000" font-family="sans-serif" font-size="11" lengthAdjust="spacingAndGlyphs" textLength="44" x="84.5" y="405.3848">前見出し</text><text fill="#000000" font-family="sans-serif" font-size="11" lengthAdjust="spacingAndGlyphs" textLength="44" x="84.5" y="418.3398">後見出し</text><text fill="#000000" font-family="sans-serif" font-size="11" lengthAdjust="spacingAndGlyphs" textLength="33" x="84.5" y="431.2949">説明文</text><text fill="#000000" font-family="sans-serif" font-size="11" lengthAdjust="spacingAndGlyphs" textLength="44" x="84.5" y="444.25">注意書き</text><text fill="#000000" font-family="sans-serif" font-size="11" lengthAdjust="spacingAndGlyphs" textLength="33" x="84.5" y="457.2051">登録日</text><text fill="#000000" font-family="sans-serif" font-size="11" lengthAdjust="spacingAndGlyphs" textLength="33" x="84.5" y="470.1602">変更日</text><text fill="#000000" font-family="sans-serif" font-size="11" lengthAdjust="spacingAndGlyphs" textLength="110" x="84.5" y="483.1152">グループ入力チェック</text><text fill="#000000" font-family="sans-serif" font-size="11" lengthAdjust="spacingAndGlyphs" textLength="55" x="84.5" y="496.0703">オプション</text><text fill="#000000" font-family="sans-serif" font-size="11" lengthAdjust="spacingAndGlyphs" textLength="33" x="84.5" y="509.0254">クラス</text><text fill="#000000" font-family="sans-serif" font-size="11" lengthAdjust="spacingAndGlyphs" textLength="33" x="84.5" y="521.9805">初期値</text><text fill="#000000" font-family="sans-serif" font-size="11" lengthAdjust="spacingAndGlyphs" textLength="66" x="84.5" y="534.9355">入力チェック</text><text fill="#000000" font-family="sans-serif" font-size="11" lengthAdjust="spacingAndGlyphs" textLength="66" x="84.5" y="547.8906">正規表現入力</text><text fill="#000000" font-family="sans-serif" font-size="11" lengthAdjust="spacingAndGlyphs" textLength="66" x="84.5" y="560.8457">エラー用文言</text><text fill="#000000" font-family="sans-serif" font-size="11" lengthAdjust="spacingAndGlyphs" textLength="143" x="84.5" y="573.8008">文字数カウンターを表示する</text><text fill="#000000" font-family="sans-serif" font-size="11" lengthAdjust="spacingAndGlyphs" textLength="44" x="84.5" y="586.7559">自動変換</text><text fill="#000000" font-family="sans-serif" font-size="11" lengthAdjust="spacingAndGlyphs" textLength="88" x="84.5" y="599.7109">プレースホルダー</text><text fill="#000000" font-family="sans-serif" font-size="11" lengthAdjust="spacingAndGlyphs" textLength="33" x="84.5" y="612.666">サイズ</text><text fill="#000000" font-family="sans-serif" font-size="11" lengthAdjust="spacingAndGlyphs" textLength="66" x="84.5" y="625.6211">テキスト行数</text><text fill="#000000" font-family="sans-serif" font-size="11" lengthAdjust="spacingAndGlyphs" textLength="33" x="84.5" y="638.5762">最大値</text><text fill="#000000" font-family="sans-serif" font-size="11" lengthAdjust="spacingAndGlyphs" textLength="33" x="84.5" y="651.5313">選択肢</text><text fill="#000000" font-family="sans-serif" font-size="11" lengthAdjust="spacingAndGlyphs" textLength="44" x="84.5" y="664.4863">メタ情報</text><!--class カスタムフィールドセット--><polygon fill="#FEFECE" filter="url(#fb96u1w)" points="68,129.1992,68,128.8829,77.7778,129.3117,87.5556,129.4996,97.3333,129.7665,107.1111,129.7949,116.8889,129.1751,126.6667,128.785,136.4444,129.8368,146.2222,128.7531,156,129.5892,165.7778,129.6725,175.5556,128.5334,185.3333,129.2189,195.1111,128.9413,204.8889,128.4835,214.6667,129.8535,224.4444,128.6798,234.2222,128.5685,244,129.1992,244.128,129.1992,243.859,137.1992,243.9208,145.1992,243.9744,153.1992,243.7816,161.1992,244,169.1992,244,168.8099,234.2222,169.8455,224.4444,169.5715,214.6667,169.7362,204.8889,169.5761,195.1111,168.6309,185.3333,168.6865,175.5556,169.5329,165.7778,169.8203,156,168.9053,146.2222,169.135,136.4444,169.0517,126.6667,168.9716,116.8889,169.7708,107.1111,168.6168,97.3333,168.7417,87.5556,168.8684,77.7778,168.6773,68,169.1992,67.8623,169.1992,67.8167,161.1992,67.7769,153.1992,67.8634,145.1992,67.7804,137.1992,68,129.1992" style="stroke: #A80036; stroke-width: 1.5;"/><polygon fill="#ADD1B2" points="93.959,147.9181,92.5691,150.7986,91.0512,152.0952,88.8904,155.0309,86.4957,156.2231,83.911,156.8481,80.7702,155.3172,78.5176,155.7685,76.6292,153.7187,74.1933,152.2787,73.355,150.449,72.1521,147.8923,72.6819,144.1151,72.3952,141.0525,73.733,139.249,75.8725,136.9021,78.4591,135.756,81.1494,134.8124,83.4909,133.5954,86.4072,135.0722,88.235,136.2209,89.9402,137.5151,92.0424,138.8247,92.9722,141.6995,93.3622,144.3142,94.2512,147.917" style="stroke: #A80036; stroke-width: 1.0;"/><path d="M85.4731,151.3423 Q84.8921,151.6411 84.2529,151.7905 Q83.6138,151.9399 82.9082,151.9399 Q80.4014,151.9399 79.0815,150.2881 Q77.7617,148.6362 77.7617,145.5151 Q77.7617,142.3857 79.0815,140.7339 Q80.4014,139.082 82.9082,139.082 Q83.6138,139.082 84.2612,139.2314 Q84.9087,139.3809 85.4731,139.6797 L85.4731,142.4023 Q84.8423,141.8213 84.2488,141.5515 Q83.6553,141.2817 83.0244,141.2817 Q81.6797,141.2817 80.9949,142.3484 Q80.3101,143.415 80.3101,145.5151 Q80.3101,147.6069 80.9949,148.6736 Q81.6797,149.7402 83.0244,149.7402 Q83.6553,149.7402 84.2488,149.4705 Q84.8423,149.2007 85.4731,148.6196 Z "/><text fill="#000000" font-family="sans-serif" font-size="12" lengthAdjust="spacingAndGlyphs" textLength="144" x="97" y="149.7344">カスタムフィールドセット</text><path d="M69,161.1992 L69,161.098 L79.2353,160.9775 L89.4706,160.5081 L99.7059,161.3627 L109.9412,160.5061 L120.1765,161.3485 L130.4118,160.4888 L140.6471,160.7308 L150.8824,162.1148 L161.1176,161.8312 L171.3529,161.9514 L181.5882,160.4541 L191.8235,161.8301 L202.0588,161.8048 L212.2941,161.8706 L222.5294,162.0358 L232.7647,161.8581 L243,161.1992 " fill="#FEFECE" style="stroke: #A80036; stroke-width: 1.5;"/><!--class カスタムテーブル--><polygon fill="#FEFECE" filter="url(#fb96u1w)" points="92,29.1992,92,28.5796,101.8462,28.6222,111.6923,28.7151,121.5385,29.633,131.3846,28.6812,141.2308,29.1032,151.0769,29.6741,160.9231,29.9218,170.7692,28.4669,180.6154,28.5374,190.4615,29.3553,200.3077,28.6872,210.1538,28.6184,220,29.1992,220.067,29.1992,219.9119,37.1992,219.8914,45.1992,219.8505,53.1992,220.2297,61.1992,220,69.1992,220,68.7185,210.1538,69.225,200.3077,68.7635,190.4615,68.6393,180.6154,68.6521,170.7692,69.7314,160.9231,69.6423,151.0769,69.4141,141.2308,68.9842,131.3846,69.6618,121.5385,68.9738,111.6923,69.6646,101.8462,69.5499,92,69.1992,92.103,69.1992,91.9693,61.1992,92.2172,53.1992,92.0631,45.1992,91.923,37.1992,92,29.1992" style="stroke: #A80036; stroke-width: 1.5;"/><polygon fill="#ADD1B2" points="117.2224,47.7777,117.0832,50.8944,114.2259,53.3613,112.1357,54.5005,109.3118,56.0152,107.2699,55.9967,103.8395,55.0981,101.592,54.8213,99.4785,53.3592,97.222,50.3781,96.5108,47.4042,96.3127,44.2205,96.4482,41.2886,98.2685,37.9225,100.8702,35.4496,103.2172,34.7312,106.5716,34.8775,109.961,34.5789,113.0893,36.3765,114.769,37.6504,116.6785,39.184,117.8245,42.7514,118.1057,45.5601" style="stroke: #A80036; stroke-width: 1.0;"/><path d="M109.4731,51.3423 Q108.8921,51.6411 108.2529,51.7905 Q107.6138,51.9399 106.9082,51.9399 Q104.4014,51.9399 103.0815,50.2881 Q101.7617,48.6362 101.7617,45.5151 Q101.7617,42.3857 103.0815,40.7339 Q104.4014,39.082 106.9082,39.082 Q107.6138,39.082 108.2612,39.2314 Q108.9087,39.3809 109.4731,39.6797 L109.4731,42.4023 Q108.8423,41.8213 108.2488,41.5515 Q107.6553,41.2817 107.0244,41.2817 Q105.6797,41.2817 104.9949,42.3484 Q104.3101,43.415 104.3101,45.5151 Q104.3101,47.6069 104.9949,48.6736 Q105.6797,49.7402 107.0244,49.7402 Q107.6553,49.7402 108.2488,49.4705 Q108.8423,49.2007 109.4731,48.6196 Z "/><text fill="#000000" font-family="sans-serif" font-size="12" lengthAdjust="spacingAndGlyphs" textLength="96" x="121" y="49.7344">カスタムテーブル</text><path d="M93,61.1992 L93,60.8658 L102.6923,61.7054 L112.3846,61.2678 L122.0769,60.3306 L131.7692,61.5745 L141.4615,61.8149 L151.1538,61.0477 L160.8462,61.4954 L170.5385,61.299 L180.2308,60.5835 L189.9231,60.3981 L199.6154,61.3591 L209.3077,61.3236 L219,61.1992 " fill="#FEFECE" style="stroke: #A80036; stroke-width: 1.5;"/><path d="M156,169.3592 L155.0689,169.3592 L156.6253,179.3176 L156.2173,189.2759 L155.2604,199.2342 L155.373,209.1926 L156.5131,219.1509 L156,229.1092 " fill="none" style="stroke: #A80036; stroke-width: 1.0;"/><text fill="#000000" font-family="sans-serif" font-size="13" lengthAdjust="spacingAndGlyphs" textLength="22" x="130.9063" y="189.7506">0..*</text><text fill="#000000" font-family="sans-serif" font-size="13" lengthAdjust="spacingAndGlyphs" textLength="8" x="147.8563" y="218.4753">1</text><path d="M156,69.5592 L156.7213,69.5592 L156.9667,79.4459 L155.4045,89.3326 L155.6608,99.2192 L156.7621,109.1059 L156.1248,118.9926 L156,128.8792 " fill="none" style="stroke: #A80036; stroke-width: 1.0;"/><text fill="#000000" font-family="sans-serif" font-size="13" lengthAdjust="spacingAndGlyphs" textLength="8" x="146.925" y="89.6567">1</text><text fill="#000000" font-family="sans-serif" font-size="13" lengthAdjust="spacingAndGlyphs" textLength="22" x="130.7688" y="118.3211">0..*</text></g></svg>