<?xml version="1.0" encoding="UTF-8" standalone="no"?><svg xmlns="http://www.w3.org/2000/svg" xmlns:xlink="http://www.w3.org/1999/xlink" contentScriptType="application/ecmascript" contentStyleType="text/css" height="335px" preserveAspectRatio="none" style="width:340px;height:335px;" version="1.1" viewBox="0 0 340 335" width="340px" zoomAndPan="magnify"><defs><filter height="300%" id="fl2l4k8" width="300%" x="-1" y="-1"><feGaussianBlur result="blurOut" stdDeviation="2.0"/><feColorMatrix in="blurOut" result="blurOut2" type="matrix" values="0 0 0 0 0 0 0 0 0 0 0 0 0 0 0 0 0 0 .4 0"/><feOffset dx="4.0" dy="4.0" in="blurOut2" result="blurOut3"/><feBlend in="SourceGraphic" in2="blurOut3" mode="normal"/></filter></defs><g><text fill="#000000" font-family="sans-serif" font-size="18" lengthAdjust="spacingAndGlyphs" textLength="324" x="15" y="17.4023">ドメインモデル図：カスタムエントリー</text><!--cluster カスタムエントリー--><polygon fill="#FFFFFF" filter="url(#fl2l4k8)" points="22,94.1992,22,93.6849,32.1538,94.8244,42.3077,94.1396,52.4615,94.1132,62.6154,93.4571,72.7692,94.5464,82.9231,94.4625,93.0769,94.2238,103.2308,94.1076,113.3846,93.7332,123.5385,94.5899,133.6923,94.2292,143.8462,94.5031,154,94.1992,153.9858,94.1948,155.4285,98.7058,156.928,103.2344,158.3487,107.7385,159.5489,112.174,161,116.6875,161,116.661,170.9375,116.0294,180.875,116.2867,190.8125,115.9933,200.75,116.7353,210.6875,116.2326,220.625,117.4375,230.5625,116.1994,240.5,116.1584,250.4375,116.3773,260.375,116.75,270.3125,117.2003,280.25,116.6189,290.1875,116.5156,300.125,117.2226,310.0625,116.363,320,116.6875,320.259,116.6875,319.727,126.7595,319.782,136.8315,319.9897,146.9035,319.8658,156.9754,319.4526,167.0474,320.3234,177.1194,320.2474,187.1914,319.863,197.2634,320.6342,207.3354,320.0042,217.4074,319.3374,227.4794,320.7088,237.5513,319.8743,247.6233,320.7213,257.6953,319.3159,267.7673,320.5226,277.8393,320.1951,287.9113,320.2396,297.9833,319.969,308.0552,320.2426,318.1272,320,328.1992,320,327.9241,310.0667,328.1877,300.1333,327.4795,290.2,327.8132,280.2667,327.7283,270.3333,328.0613,260.4,328.2492,250.4667,327.768,240.5333,328.2875,230.6,328.889,220.6667,328.0922,210.7333,327.5991,200.8,328.1066,190.8667,327.904,180.9333,328.1574,171,328.9358,161.0667,328.8175,151.1333,328.2152,141.2,328.1696,131.2667,327.9009,121.3333,327.9001,111.4,327.9772,101.4667,327.7945,91.5333,328.4646,81.6,328.3085,71.6667,327.6621,61.7333,328.8671,51.8,327.9162,41.8667,327.8311,31.9333,327.5616,22,328.1992,22.5036,328.1992,21.3418,318.0253,21.7555,307.8514,22.1825,297.6775,21.8338,287.5036,22.3246,277.3297,22.1315,267.1557,21.3542,256.9818,21.8681,246.8079,22.1024,236.634,21.4607,226.4601,21.4469,216.2862,21.5866,206.1123,21.3521,195.9383,21.7237,185.7644,22.3632,175.5905,22.6106,165.4166,22.5331,155.2427,21.6846,145.0688,22.2884,134.8949,21.3817,124.721,22.3972,114.547,21.9864,104.3731,22,94.1992" style="stroke: #000000; stroke-width: 2.0;"/><path d="M22,116.6875 L22,116.9438 L31.9286,116.5585 L41.8571,116.8799 L51.7857,116.6041 L61.7143,116.0282 L71.6429,117.3042 L81.5714,116.5905 L91.5,116.3721 L101.4286,116.6195 L111.3571,117.4335 L121.2857,116.2941 L131.2143,116.232 L141.1429,116.4875 L151.0714,117.6342 L161,116.6875 " fill="#FFFFFF" style="stroke: #000000; stroke-width: 2.0;"/><text fill="#000000" font-family="sans-serif" font-size="14" font-weight="bold" lengthAdjust="spacingAndGlyphs" textLength="126" x="26" y="109.7344">カスタムエントリー</text><!--class カスタムエントリー--><polygon fill="#FEFECE" filter="url(#fl2l4k8)" points="38.5,129.1992,38.5,128.6994,48.3148,129.1247,58.1296,129.8664,67.9444,128.5795,77.7593,129.6431,87.5741,128.5392,97.3889,129.5322,107.2037,129.7362,117.0185,128.7783,126.8333,129.8031,136.6481,129.6388,146.463,129.8609,156.2778,129.4504,166.0926,128.5836,175.9074,129.9152,185.7222,128.7909,195.537,129.2346,205.3519,128.6467,215.1667,129.3882,224.9815,129.8925,234.7963,129.7373,244.6111,129.0022,254.4259,129.5748,264.2407,128.8649,274.0556,129.7603,283.8704,129.7734,293.6852,129.5295,303.5,129.1992,303.2043,129.1992,303.0385,139.3384,303.9956,149.4776,303.3565,159.6169,303.8212,169.7561,303.3368,179.8953,303.5179,190.0345,303.6993,200.1737,303.334,210.3129,303.461,220.4521,303.4708,230.5914,303.0522,240.7306,303.883,250.8698,302.9249,261.009,303.5935,271.1482,303.2514,281.2874,303.3354,291.4266,303.5224,301.5659,303.5,311.7051,303.5,312.1977,293.6852,311.7827,283.8704,311.7654,274.0556,311.6904,264.2407,311.4345,254.4259,311.361,244.6111,311.545,234.7963,311.2299,224.9815,311.9728,215.1667,311.2289,205.3519,311.2976,195.537,311.2373,185.7222,312.1464,175.9074,311.744,166.0926,312.3431,156.2778,311.4603,146.463,311.1104,136.6481,312.1132,126.8333,312.1411,117.0185,311.7849,107.2037,311.451,97.3889,310.9569,87.5741,311.2626,77.7593,311.3235,67.9444,311.2198,58.1296,311.4661,48.3148,311.3396,38.5,311.7051,38.6464,311.7051,38.9377,301.5659,38.166,291.4266,38.1433,281.2874,39.0369,271.1482,38.9257,261.009,38.4111,250.8698,39.1408,240.7306,38.2125,230.5914,37.7799,220.4521,38.6223,210.3129,38.9687,200.1737,37.7727,190.0345,38.6412,179.8953,39.1617,169.7561,38.9816,159.6169,38.8547,149.4776,37.7801,139.3384,38.5,129.1992" style="stroke: #A80036; stroke-width: 1.5;"/><polygon fill="#ADD1B2" points="123.0731,148.907,122.3111,151.9016,120.5886,153.1954,117.7278,155.6696,113.8983,156.7543,110.6884,155.7778,107.0064,155.3158,105.7376,153.327,103.2206,151.9075,102.6593,148.3633,102,145.8936,101.5404,143.2513,102.8143,141.387,104.1224,138.7277,105.0651,136.9426,108.2608,134.9701,111.6393,134.2591,114.4453,134.2969,118.065,134.8315,120.6765,136.6592,122.2776,139.5003,123.733,141.4824,124.0022,144.4062,123.9288,147.5385" style="stroke: #A80036; stroke-width: 1.0;"/><path d="M115.2231,151.3423 Q114.6421,151.6411 114.0029,151.7905 Q113.3638,151.9399 112.6582,151.9399 Q110.1514,151.9399 108.8315,150.2881 Q107.5117,148.6362 107.5117,145.5151 Q107.5117,142.3857 108.8315,140.7339 Q110.1514,139.082 112.6582,139.082 Q113.3638,139.082 114.0112,139.2314 Q114.6587,139.3809 115.2231,139.6797 L115.2231,142.4023 Q114.5923,141.8213 113.9988,141.5515 Q113.4053,141.2817 112.7744,141.2817 Q111.4297,141.2817 110.7449,142.3484 Q110.0601,143.415 110.0601,145.5151 Q110.0601,147.6069 110.7449,148.6736 Q111.4297,149.7402 112.7744,149.7402 Q113.4053,149.7402 113.9988,149.4705 Q114.5923,149.2007 115.2231,148.6196 Z "/><text fill="#000000" font-family="sans-serif" font-size="12" lengthAdjust="spacingAndGlyphs" textLength="108" x="133.25" y="149.7344">カスタムエントリー</text><path d="M39.5,161.1992 L39.5,160.3755 L49.6154,161.4462 L59.7308,161.5393 L69.8462,161.9966 L79.9615,162.0572 L90.0769,160.7365 L100.1923,160.6603 L110.3077,161.9298 L120.4231,161.7706 L130.5385,162.0804 L140.6538,161.5563 L150.7692,162.1859 L160.8846,161.7991 L171,161.2565 L181.1154,160.6028 L191.2308,160.4902 L201.3462,160.3666 L211.4615,160.7834 L221.5769,161.1776 L231.6923,160.9857 L241.8077,161.6629 L251.9231,160.4319 L262.0385,160.8008 L272.1538,162.052 L282.2692,161.7173 L292.3846,161.9035 L302.5,161.1992 " fill="#FEFECE" style="stroke: #A80036; stroke-width: 1.5;"/><text fill="#000000" font-family="sans-serif" font-size="11" lengthAdjust="spacingAndGlyphs" textLength="99" x="44.5" y="175.834">カスタムテーブルID</text><text fill="#000000" font-family="sans-serif" font-size="11" lengthAdjust="spacingAndGlyphs" textLength="17" x="44.5" y="188.7891">NO</text><text fill="#000000" font-family="sans-serif" font-size="11" lengthAdjust="spacingAndGlyphs" textLength="44" x="44.5" y="201.7441">スラッグ</text><text fill="#000000" font-family="sans-serif" font-size="11" lengthAdjust="spacingAndGlyphs" textLength="44" x="44.5" y="214.6992">タイトル</text><text fill="#000000" font-family="sans-serif" font-size="11" lengthAdjust="spacingAndGlyphs" textLength="44" x="44.5" y="227.6543">作成者ID</text><text fill="#000000" font-family="sans-serif" font-size="11" lengthAdjust="spacingAndGlyphs" textLength="33" x="44.5" y="240.6094">登録日</text><text fill="#000000" font-family="sans-serif" font-size="11" lengthAdjust="spacingAndGlyphs" textLength="187" x="44.5" y="253.5645">公開状態（カテゴリの場合に検討要）</text><text fill="#000000" font-family="sans-serif" font-size="11" lengthAdjust="spacingAndGlyphs" textLength="198" x="44.5" y="266.5195">公開開始日（カテゴリの場合に検討要）</text><text fill="#000000" font-family="sans-serif" font-size="11" lengthAdjust="spacingAndGlyphs" textLength="198" x="44.5" y="279.4746">公開終了日（カテゴリの場合に検討要）</text><text fill="#000000" font-family="sans-serif" font-size="11" lengthAdjust="spacingAndGlyphs" textLength="253" x="44.5" y="292.4297">サイト内検索より除外（カテゴリの場合に検討要）</text><text fill="#000000" font-family="sans-serif" font-size="11" lengthAdjust="spacingAndGlyphs" textLength="209" x="44.5" y="305.3848">アイキャッチ（カテゴリの場合に検討要）</text><!--class カスタムテーブル--><polygon fill="#FEFECE" filter="url(#fl2l4k8)" points="195,29.1992,195,29.2022,204.8462,29.6032,214.6923,29.6173,224.5385,29.4347,234.3846,29.1888,244.2308,28.4812,254.0769,29.8466,263.9231,28.8279,273.7692,29.8802,283.6154,29.2061,293.4615,29.3568,303.3077,28.5979,313.1538,29.4309,323,29.1992,322.9825,29.1992,323.1823,37.1992,323.0878,45.1992,323.1271,53.1992,322.9119,61.1992,323,69.1992,323,68.8041,313.1538,68.9326,303.3077,69.2557,293.4615,69.0923,283.6154,69.2766,273.7692,69.1701,263.9231,69.7823,254.0769,68.8891,244.2308,69.893,234.3846,69.3887,224.5385,68.4756,214.6923,69.8731,204.8462,68.4602,195,69.1992,195.1231,69.1992,194.751,61.1992,195.1335,53.1992,195.0911,45.1992,195.1823,37.1992,195,29.1992" style="stroke: #A80036; stroke-width: 1.5;"/><polygon fill="#ADD1B2" points="220.7763,47.8916,219.5291,49.5861,218.366,52.1265,216.5429,53.6433,214.9267,54.95,211.6838,56.6074,208.4846,55.8035,204.8547,54.977,202.5147,53.7468,200.6894,50.4836,199.6259,47.35,199.6658,45.4673,199.4072,42.313,200.7142,40.6497,201.5571,38.835,202.9588,36.2177,205.7427,35.2558,208.3188,34.2888,211.8981,34.3615,215.1557,34.8054,216.7548,37.0984,219.4973,38.8267,220.7567,40.8386,220.9447,44.495,221.0886,46.9086" style="stroke: #A80036; stroke-width: 1.0;"/><path d="M212.4731,51.3423 Q211.8921,51.6411 211.2529,51.7905 Q210.6138,51.9399 209.9082,51.9399 Q207.4014,51.9399 206.0815,50.2881 Q204.7617,48.6362 204.7617,45.5151 Q204.7617,42.3857 206.0815,40.7339 Q207.4014,39.082 209.9082,39.082 Q210.6138,39.082 211.2612,39.2314 Q211.9087,39.3809 212.4731,39.6797 L212.4731,42.4023 Q211.8423,41.8213 211.2488,41.5515 Q210.6553,41.2817 210.0244,41.2817 Q208.6797,41.2817 207.9949,42.3484 Q207.3101,43.415 207.3101,45.5151 Q207.3101,47.6069 207.9949,48.6736 Q208.6797,49.7402 210.0244,49.7402 Q210.6553,49.7402 211.2488,49.4705 Q211.8423,49.2007 212.4731,48.6196 Z "/><text fill="#000000" font-family="sans-serif" font-size="12" lengthAdjust="spacingAndGlyphs" textLength="96" x="224" y="49.7344">カスタムテーブル</text><path d="M196,61.1992 L196,60.3775 L205.6923,60.8753 L215.3846,62.0706 L225.0769,61.7857 L234.7692,60.5454 L244.4615,61.236 L254.1538,60.3937 L263.8462,61.8396 L273.5385,61.8487 L283.2308,60.6292 L292.9231,60.6621 L302.6154,60.7582 L312.3077,61.5528 L322,61.1992 " fill="#FEFECE" style="stroke: #A80036; stroke-width: 1.5;"/><!--class 親カスタムエントリー--><polygon fill="#FEFECE" filter="url(#fl2l4k8)" points="8,29.1992,8,29.4341,18.1333,28.6879,28.2667,28.6109,38.4,29.5404,48.5333,28.6011,58.6667,29.0844,68.8,29.0668,78.9333,28.8749,89.0667,28.7129,99.2,28.9334,109.3333,28.5331,119.4667,29.6787,129.6,28.8962,139.7333,29.6925,149.8667,29.0168,160,29.1992,160.1674,29.1992,159.9499,37.1992,160.2021,45.1992,160.1823,53.1992,159.8089,61.1992,160,69.1992,160,69.6368,149.8667,68.966,139.7333,69.0511,129.6,69.1581,119.4667,69.5307,109.3333,69.5442,99.2,68.6276,89.0667,69.9137,78.9333,69.9277,68.8,68.998,58.6667,69.6637,48.5333,68.711,38.4,69.7473,28.2667,68.8077,18.1333,69.1709,8,69.1992,7.91,69.1992,8.0638,61.1992,7.7518,53.1992,8.1374,45.1992,8.144,37.1992,8,29.1992" style="stroke: #A80036; stroke-width: 1.5;"/><polygon fill="#ADD1B2" points="33.3581,47.1107,33.5214,49.6865,31.7934,51.3326,30.615,53.3974,28.6854,55.404,25.8615,55.5192,23.6045,56.7069,20.9306,56.2546,17.6388,55.0708,15.8732,53.4246,14.3298,51.1294,13.0689,49.0295,12.1947,46.8692,12.061,43.6137,13.0172,40.4021,15.3406,38.1508,16.9954,35.5092,19.9738,35.2355,23.1015,34.3171,26.3759,34.9954,29.1669,36.1386,32.0459,37.9751,33.2123,41.7162,34.0049,43.7348,33.7366,46.6403" style="stroke: #A80036; stroke-width: 1.0;"/><path d="M25.4731,51.3423 Q24.8921,51.6411 24.2529,51.7905 Q23.6138,51.9399 22.9082,51.9399 Q20.4014,51.9399 19.0815,50.2881 Q17.7617,48.6362 17.7617,45.5151 Q17.7617,42.3857 19.0815,40.7339 Q20.4014,39.082 22.9082,39.082 Q23.6138,39.082 24.2612,39.2314 Q24.9087,39.3809 25.4731,39.6797 L25.4731,42.4023 Q24.8423,41.8213 24.2488,41.5515 Q23.6553,41.2817 23.0244,41.2817 Q21.6797,41.2817 20.9949,42.3484 Q20.3101,43.415 20.3101,45.5151 Q20.3101,47.6069 20.9949,48.6736 Q21.6797,49.7402 23.0244,49.7402 Q23.6553,49.7402 24.2488,49.4705 Q24.8423,49.2007 25.4731,48.6196 Z "/><text fill="#000000" font-family="sans-serif" font-size="12" lengthAdjust="spacingAndGlyphs" textLength="120" x="37" y="49.7344">親カスタムエントリー</text><path d="M9,61.1992 L9,62.1373 L19,61.5693 L29,60.9214 L39,62.0497 L49,61.9997 L59,61.959 L69,60.2974 L79,60.405 L89,61.151 L99,61.293 L109,61.8172 L119,62.1546 L129,61.8338 L139,61.583 L149,62.0992 L159,61.1992 " fill="#FEFECE" style="stroke: #A80036; stroke-width: 1.5;"/><path d="M249.08,69.3092 L249.6006,69.5795 L244.3474,77.6634 L240.3248,86.3861 L235.3227,94.6004 L231.0712,103.2043 L226.146,111.4585 L222.8703,120.5691 L218.13,128.9192 " fill="none" style="stroke: #A80036; stroke-width: 1.0;"/><text fill="#000000" font-family="sans-serif" font-size="13" lengthAdjust="spacingAndGlyphs" textLength="8" x="237.165" y="89.6866">1</text><text fill="#000000" font-family="sans-serif" font-size="13" lengthAdjust="spacingAndGlyphs" textLength="22" x="199.0091" y="118.6083">0..*</text><path d="M93.81,69.3092 L93.7057,69.2557 L97.2913,77.3689 L101.802,85.9568 L106.9214,94.8571 L110.731,103.0852 L114.992,111.545 L119.1662,119.9602 L124.4,128.9192 " fill="none" style="stroke: #A80036; stroke-width: 1.0;"/><text fill="#000000" font-family="sans-serif" font-size="13" lengthAdjust="spacingAndGlyphs" textLength="8" x="87.4441" y="89.6866">1</text><text fill="#000000" font-family="sans-serif" font-size="13" lengthAdjust="spacingAndGlyphs" textLength="22" x="97.81" y="118.6083">0..*</text></g></svg>