<?xml version="1.0" encoding="UTF-8" standalone="no"?><svg xmlns="http://www.w3.org/2000/svg" xmlns:xlink="http://www.w3.org/1999/xlink" contentScriptType="application/ecmascript" contentStyleType="text/css" height="639px" preserveAspectRatio="none" style="width:306px;height:639px;" version="1.1" viewBox="0 0 306 639" width="306px" zoomAndPan="magnify"><defs><filter height="300%" id="f0ymd6f" width="300%" x="-1" y="-1"><feGaussianBlur result="blurOut" stdDeviation="2.0"/><feColorMatrix in="blurOut" result="blurOut2" type="matrix" values="0 0 0 0 0 0 0 0 0 0 0 0 0 0 0 0 0 0 .4 0"/><feOffset dx="4.0" dy="4.0" in="blurOut2" result="blurOut3"/><feBlend in="SourceGraphic" in2="blurOut3" mode="normal"/></filter></defs><g><text fill="#000000" font-family="sans-serif" font-size="18" lengthAdjust="spacingAndGlyphs" textLength="295" x="10" y="27.4023">"basercms4系BcContentsBehavior"</text><ellipse cx="157.5" cy="41.1992" fill="#000000" filter="url(#f0ymd6f)" rx="10" ry="10" style="stroke: none; stroke-width: 1.0;"/><rect fill="#FFFF00" filter="url(#f0ymd6f)" height="34.1328" rx="12.5" ry="12.5" style="stroke: #A80036; stroke-width: 1.5;" width="128" x="93.5" y="71.1992"/><text fill="#000000" font-family="sans-serif" font-size="12" lengthAdjust="spacingAndGlyphs" textLength="108" x="103.5" y="92.8008">contentFolder:save</text><rect fill="#FFFF00" filter="url(#f0ymd6f)" height="34.1328" rx="12.5" ry="12.5" style="stroke: #A80036; stroke-width: 1.5;" width="149" x="83" y="125.332"/><text fill="#000000" font-family="sans-serif" font-size="12" lengthAdjust="spacingAndGlyphs" textLength="129" x="93" y="146.9336">contentFolder:_doSave</text><rect fill="#FFC0CB" filter="url(#f0ymd6f)" height="34.1328" rx="12.5" ry="12.5" style="stroke: #A80036; stroke-width: 1.5;" width="221" x="47" y="179.4648"/><text fill="#000000" font-family="sans-serif" font-size="12" lengthAdjust="spacingAndGlyphs" textLength="201" x="57" y="201.0664">BcContentsBehavior:beforeValidate</text><rect fill="#90EE90" filter="url(#f0ymd6f)" height="34.1328" rx="12.5" ry="12.5" style="stroke: #A80036; stroke-width: 1.5;" width="159" x="78" y="233.5977"/><text fill="#000000" font-family="sans-serif" font-size="12" lengthAdjust="spacingAndGlyphs" textLength="139" x="88" y="255.1992">Contents:beforeValidate</text><rect fill="#90EE90" filter="url(#f0ymd6f)" height="34.1328" rx="12.5" ry="12.5" style="stroke: #A80036; stroke-width: 1.5;" width="148" x="83.5" y="287.7305"/><text fill="#000000" font-family="sans-serif" font-size="12" lengthAdjust="spacingAndGlyphs" textLength="128" x="93.5" y="309.332">Contents:afterValidate</text><rect fill="#FFC0CB" filter="url(#f0ymd6f)" height="34.1328" rx="12.5" ry="12.5" style="stroke: #A80036; stroke-width: 1.5;" width="200" x="57.5" y="341.8633"/><text fill="#000000" font-family="sans-serif" font-size="12" lengthAdjust="spacingAndGlyphs" textLength="180" x="67.5" y="363.4648">BcContentsBehavior:beforeSave</text><rect fill="#FFC0CB" filter="url(#f0ymd6f)" height="34.1328" rx="12.5" ry="12.5" style="stroke: #A80036; stroke-width: 1.5;" width="189" x="63" y="395.9961"/><text fill="#000000" font-family="sans-serif" font-size="12" lengthAdjust="spacingAndGlyphs" textLength="169" x="73" y="417.5977">BcContentsBehavior:afterSave</text><rect fill="#90EE90" filter="url(#f0ymd6f)" height="34.1328" rx="12.5" ry="12.5" style="stroke: #A80036; stroke-width: 1.5;" width="154" x="80.5" y="450.1289"/><text fill="#000000" font-family="sans-serif" font-size="12" lengthAdjust="spacingAndGlyphs" textLength="134" x="90.5" y="471.7305">Contents:createContent</text><rect fill="#90EE90" filter="url(#f0ymd6f)" height="34.1328" rx="12.5" ry="12.5" style="stroke: #A80036; stroke-width: 1.5;" width="138" x="88.5" y="504.2617"/><text fill="#000000" font-family="sans-serif" font-size="12" lengthAdjust="spacingAndGlyphs" textLength="118" x="98.5" y="525.8633">Contents:beforeSave</text><rect fill="#90EE90" filter="url(#f0ymd6f)" height="34.1328" rx="12.5" ry="12.5" style="stroke: #A80036; stroke-width: 1.5;" width="127" x="94" y="558.3945"/><text fill="#000000" font-family="sans-serif" font-size="12" lengthAdjust="spacingAndGlyphs" textLength="107" x="104" y="579.9961">Contents:afterSave</text><ellipse cx="157.5" cy="622.5273" fill="none" filter="url(#f0ymd6f)" rx="10" ry="10" style="stroke: #000000; stroke-width: 1.0;"/><ellipse cx="158" cy="623.0273" fill="#000000" filter="url(#f0ymd6f)" rx="6" ry="6" style="stroke: none; stroke-width: 1.0;"/><line style="stroke: #A80036; stroke-width: 1.5;" x1="157.5" x2="157.5" y1="51.1992" y2="71.1992"/><polygon fill="#A80036" points="153.5,61.1992,157.5,71.1992,161.5,61.1992,157.5,65.1992" style="stroke: #A80036; stroke-width: 1.0;"/><line style="stroke: #A80036; stroke-width: 1.5;" x1="157.5" x2="157.5" y1="105.332" y2="125.332"/><polygon fill="#A80036" points="153.5,115.332,157.5,125.332,161.5,115.332,157.5,119.332" style="stroke: #A80036; stroke-width: 1.0;"/><line style="stroke: #A80036; stroke-width: 1.5;" x1="157.5" x2="157.5" y1="159.4648" y2="179.4648"/><polygon fill="#A80036" points="153.5,169.4648,157.5,179.4648,161.5,169.4648,157.5,173.4648" style="stroke: #A80036; stroke-width: 1.0;"/><line style="stroke: #A80036; stroke-width: 1.5;" x1="157.5" x2="157.5" y1="213.5977" y2="233.5977"/><polygon fill="#A80036" points="153.5,223.5977,157.5,233.5977,161.5,223.5977,157.5,227.5977" style="stroke: #A80036; stroke-width: 1.0;"/><line style="stroke: #A80036; stroke-width: 1.5;" x1="157.5" x2="157.5" y1="267.7305" y2="287.7305"/><polygon fill="#A80036" points="153.5,277.7305,157.5,287.7305,161.5,277.7305,157.5,281.7305" style="stroke: #A80036; stroke-width: 1.0;"/><line style="stroke: #A80036; stroke-width: 1.5;" x1="157.5" x2="157.5" y1="321.8633" y2="341.8633"/><polygon fill="#A80036" points="153.5,331.8633,157.5,341.8633,161.5,331.8633,157.5,335.8633" style="stroke: #A80036; stroke-width: 1.0;"/><line style="stroke: #A80036; stroke-width: 1.5;" x1="157.5" x2="157.5" y1="375.9961" y2="395.9961"/><polygon fill="#A80036" points="153.5,385.9961,157.5,395.9961,161.5,385.9961,157.5,389.9961" style="stroke: #A80036; stroke-width: 1.0;"/><line style="stroke: #A80036; stroke-width: 1.5;" x1="157.5" x2="157.5" y1="430.1289" y2="450.1289"/><polygon fill="#A80036" points="153.5,440.1289,157.5,450.1289,161.5,440.1289,157.5,444.1289" style="stroke: #A80036; stroke-width: 1.0;"/><line style="stroke: #A80036; stroke-width: 1.5;" x1="157.5" x2="157.5" y1="484.2617" y2="504.2617"/><polygon fill="#A80036" points="153.5,494.2617,157.5,504.2617,161.5,494.2617,157.5,498.2617" style="stroke: #A80036; stroke-width: 1.0;"/><line style="stroke: #A80036; stroke-width: 1.5;" x1="157.5" x2="157.5" y1="538.3945" y2="558.3945"/><polygon fill="#A80036" points="153.5,548.3945,157.5,558.3945,161.5,548.3945,157.5,552.3945" style="stroke: #A80036; stroke-width: 1.0;"/><line style="stroke: #A80036; stroke-width: 1.5;" x1="157.5" x2="157.5" y1="592.5273" y2="612.5273"/><polygon fill="#A80036" points="153.5,602.5273,157.5,612.5273,161.5,602.5273,157.5,606.5273" style="stroke: #A80036; stroke-width: 1.0;"/></g></svg>