<?xml version="1.0" encoding="UTF-8" standalone="no"?><svg xmlns="http://www.w3.org/2000/svg" xmlns:xlink="http://www.w3.org/1999/xlink" contentScriptType="application/ecmascript" contentStyleType="text/css" height="637px" preserveAspectRatio="none" style="width:317px;height:637px;" version="1.1" viewBox="0 0 317 637" width="317px" zoomAndPan="magnify"><defs><filter height="300%" id="f6mdb0i" width="300%" x="-1" y="-1"><feGaussianBlur result="blurOut" stdDeviation="2.0"/><feColorMatrix in="blurOut" result="blurOut2" type="matrix" values="0 0 0 0 0 0 0 0 0 0 0 0 0 0 0 0 0 0 .4 0"/><feOffset dx="4.0" dy="4.0" in="blurOut2" result="blurOut3"/><feBlend in="SourceGraphic" in2="blurOut3" mode="normal"/></filter></defs><g><text fill="#000000" font-family="sans-serif" font-size="18" lengthAdjust="spacingAndGlyphs" textLength="306" x="10" y="26.708">"basercms4系BcContentsBehavior"</text><ellipse cx="163" cy="40.9531" fill="#000000" filter="url(#f6mdb0i)" rx="10" ry="10" style="stroke: none; stroke-width: 1.0;"/><rect fill="#FFFF00" filter="url(#f6mdb0i)" height="33.9688" rx="12.5" ry="12.5" style="stroke: #A80036; stroke-width: 1.5;" width="141" x="92.5" y="70.9531"/><text fill="#000000" font-family="sans-serif" font-size="12" lengthAdjust="spacingAndGlyphs" textLength="121" x="102.5" y="92.0918">contentFolder:save</text><rect fill="#FFFF00" filter="url(#f6mdb0i)" height="33.9688" rx="12.5" ry="12.5" style="stroke: #A80036; stroke-width: 1.5;" width="164" x="81" y="124.9219"/><text fill="#000000" font-family="sans-serif" font-size="12" lengthAdjust="spacingAndGlyphs" textLength="144" x="91" y="146.0605">contentFolder:_doSave</text><rect fill="#FFC0CB" filter="url(#f6mdb0i)" height="33.9688" rx="12.5" ry="12.5" style="stroke: #A80036; stroke-width: 1.5;" width="242" x="42" y="178.8906"/><text fill="#000000" font-family="sans-serif" font-size="12" lengthAdjust="spacingAndGlyphs" textLength="222" x="52" y="200.0293">BcContentsBehavior:beforeValidate</text><rect fill="#90EE90" filter="url(#f6mdb0i)" height="33.9688" rx="12.5" ry="12.5" style="stroke: #A80036; stroke-width: 1.5;" width="173" x="76.5" y="232.8594"/><text fill="#000000" font-family="sans-serif" font-size="12" lengthAdjust="spacingAndGlyphs" textLength="153" x="86.5" y="253.998">Contents:beforeValidate</text><rect fill="#90EE90" filter="url(#f6mdb0i)" height="33.9688" rx="12.5" ry="12.5" style="stroke: #A80036; stroke-width: 1.5;" width="162" x="82" y="286.8281"/><text fill="#000000" font-family="sans-serif" font-size="12" lengthAdjust="spacingAndGlyphs" textLength="142" x="92" y="307.9668">Contents:afterValidate</text><rect fill="#FFC0CB" filter="url(#f6mdb0i)" height="33.9688" rx="12.5" ry="12.5" style="stroke: #A80036; stroke-width: 1.5;" width="221" x="52.5" y="340.7969"/><text fill="#000000" font-family="sans-serif" font-size="12" lengthAdjust="spacingAndGlyphs" textLength="201" x="62.5" y="361.9355">BcContentsBehavior:beforeSave</text><rect fill="#FFC0CB" filter="url(#f6mdb0i)" height="33.9688" rx="12.5" ry="12.5" style="stroke: #A80036; stroke-width: 1.5;" width="210" x="58" y="394.7656"/><text fill="#000000" font-family="sans-serif" font-size="12" lengthAdjust="spacingAndGlyphs" textLength="190" x="68" y="415.9043">BcContentsBehavior:afterSave</text><rect fill="#90EE90" filter="url(#f6mdb0i)" height="33.9688" rx="12.5" ry="12.5" style="stroke: #A80036; stroke-width: 1.5;" width="172" x="77" y="448.7344"/><text fill="#000000" font-family="sans-serif" font-size="12" lengthAdjust="spacingAndGlyphs" textLength="152" x="87" y="469.873">Contents:createContent</text><rect fill="#90EE90" filter="url(#f6mdb0i)" height="33.9688" rx="12.5" ry="12.5" style="stroke: #A80036; stroke-width: 1.5;" width="152" x="87" y="502.7031"/><text fill="#000000" font-family="sans-serif" font-size="12" lengthAdjust="spacingAndGlyphs" textLength="132" x="97" y="523.8418">Contents:beforeSave</text><rect fill="#90EE90" filter="url(#f6mdb0i)" height="33.9688" rx="12.5" ry="12.5" style="stroke: #A80036; stroke-width: 1.5;" width="141" x="92.5" y="556.6719"/><text fill="#000000" font-family="sans-serif" font-size="12" lengthAdjust="spacingAndGlyphs" textLength="121" x="102.5" y="577.8105">Contents:afterSave</text><ellipse cx="163" cy="620.6406" fill="none" filter="url(#f6mdb0i)" rx="10" ry="10" style="stroke: #000000; stroke-width: 1.0;"/><ellipse cx="163.5" cy="621.1406" fill="#000000" filter="url(#f6mdb0i)" rx="6" ry="6" style="stroke: none; stroke-width: 1.0;"/><line style="stroke: #A80036; stroke-width: 1.5;" x1="163" x2="163" y1="50.9531" y2="70.9531"/><polygon fill="#A80036" points="159,60.9531,163,70.9531,167,60.9531,163,64.9531" style="stroke: #A80036; stroke-width: 1.0;"/><line style="stroke: #A80036; stroke-width: 1.5;" x1="163" x2="163" y1="104.9219" y2="124.9219"/><polygon fill="#A80036" points="159,114.9219,163,124.9219,167,114.9219,163,118.9219" style="stroke: #A80036; stroke-width: 1.0;"/><line style="stroke: #A80036; stroke-width: 1.5;" x1="163" x2="163" y1="158.8906" y2="178.8906"/><polygon fill="#A80036" points="159,168.8906,163,178.8906,167,168.8906,163,172.8906" style="stroke: #A80036; stroke-width: 1.0;"/><line style="stroke: #A80036; stroke-width: 1.5;" x1="163" x2="163" y1="212.8594" y2="232.8594"/><polygon fill="#A80036" points="159,222.8594,163,232.8594,167,222.8594,163,226.8594" style="stroke: #A80036; stroke-width: 1.0;"/><line style="stroke: #A80036; stroke-width: 1.5;" x1="163" x2="163" y1="266.8281" y2="286.8281"/><polygon fill="#A80036" points="159,276.8281,163,286.8281,167,276.8281,163,280.8281" style="stroke: #A80036; stroke-width: 1.0;"/><line style="stroke: #A80036; stroke-width: 1.5;" x1="163" x2="163" y1="320.7969" y2="340.7969"/><polygon fill="#A80036" points="159,330.7969,163,340.7969,167,330.7969,163,334.7969" style="stroke: #A80036; stroke-width: 1.0;"/><line style="stroke: #A80036; stroke-width: 1.5;" x1="163" x2="163" y1="374.7656" y2="394.7656"/><polygon fill="#A80036" points="159,384.7656,163,394.7656,167,384.7656,163,388.7656" style="stroke: #A80036; stroke-width: 1.0;"/><line style="stroke: #A80036; stroke-width: 1.5;" x1="163" x2="163" y1="428.7344" y2="448.7344"/><polygon fill="#A80036" points="159,438.7344,163,448.7344,167,438.7344,163,442.7344" style="stroke: #A80036; stroke-width: 1.0;"/><line style="stroke: #A80036; stroke-width: 1.5;" x1="163" x2="163" y1="482.7031" y2="502.7031"/><polygon fill="#A80036" points="159,492.7031,163,502.7031,167,492.7031,163,496.7031" style="stroke: #A80036; stroke-width: 1.0;"/><line style="stroke: #A80036; stroke-width: 1.5;" x1="163" x2="163" y1="536.6719" y2="556.6719"/><polygon fill="#A80036" points="159,546.6719,163,556.6719,167,546.6719,163,550.6719" style="stroke: #A80036; stroke-width: 1.0;"/><line style="stroke: #A80036; stroke-width: 1.5;" x1="163" x2="163" y1="590.6406" y2="610.6406"/><polygon fill="#A80036" points="159,600.6406,163,610.6406,167,600.6406,163,604.6406" style="stroke: #A80036; stroke-width: 1.0;"/></g></svg>