<?xml version="1.0" encoding="UTF-8" standalone="no"?><svg xmlns="http://www.w3.org/2000/svg" xmlns:xlink="http://www.w3.org/1999/xlink" contentScriptType="application/ecmascript" contentStyleType="text/css" height="475px" preserveAspectRatio="none" style="width:282px;height:475px;" version="1.1" viewBox="0 0 282 475" width="282px" zoomAndPan="magnify"><defs><filter height="300%" id="flen8u0" width="300%" x="-1" y="-1"><feGaussianBlur result="blurOut" stdDeviation="2.0"/><feColorMatrix in="blurOut" result="blurOut2" type="matrix" values="0 0 0 0 0 0 0 0 0 0 0 0 0 0 0 0 0 0 .4 0"/><feOffset dx="4.0" dy="4.0" in="blurOut2" result="blurOut3"/><feBlend in="SourceGraphic" in2="blurOut3" mode="normal"/></filter></defs><g><text fill="#000000" font-family="sans-serif" font-size="18" lengthAdjust="spacingAndGlyphs" textLength="271" x="10" y="26.708">"ucmitz系BcContentsBehavior"</text><polygon fill="#000000" filter="url(#flen8u0)" points="155.119,44.0214,153.86,46.6191,152.0224,49.2441,149.7578,49.6314,147.5442,51.1308,144.9413,51.5201,142.6099,50.0252,139.827,48.5592,137.9628,47.4554,136.2973,45.4464,136.0015,42.8012,135.6683,40.3917,135.4667,38.5654,136.7568,35.9013,139.0819,33.8927,141.3409,32.4264,142.9512,31.9098,145.0853,31.0959,147.9185,30.9822,149.708,31.6751,152.647,33.4592,153.9655,36.4054,155.5938,37.7649,155.738,41.2114" style="stroke: none; stroke-width: 1.0;"/><polygon fill="#FFFF00" filter="url(#flen8u0)" points="66.5,70.9531,66.5,71.6794,76.375,71.3288,86.25,70.3767,96.125,71.2174,106,70.8454,115.875,71.2249,125.75,71.2761,135.625,71.0749,145.5,70.2562,155.375,70.9455,165.25,70.4616,175.125,70.9234,185,70.2948,194.875,70.8291,204.75,70.9324,214.625,70.2382,224.5,70.9531,224.559,71.0955,226.3626,71.9143,227.9581,72.2307,229.8055,73.155,231.5646,73.8664,233.3388,74.6143,233.4098,74.6437,234.0845,76.3876,234.7764,78.1387,235.4935,79.9002,236.4942,81.7791,237,83.4531,237.0021,83.4531,236.7619,85.2469,237.2257,87.0406,236.993,88.8344,236.7572,90.6281,237,92.4219,237.1629,92.4893,236.3093,94.2068,235.7507,96.0465,234.9092,97.769,234.1782,99.5373,233.3388,101.2607,233.2451,101.0343,231.6288,102.1324,229.8023,102.7228,228.109,103.6348,226.2875,104.2373,224.5,104.9219,224.5,104.8822,214.625,105.5827,204.75,104.9443,194.875,105.5633,185,105.1785,175.125,104.3337,165.25,105.5125,155.375,104.8426,145.5,105.2087,135.625,105.1678,125.75,105.3317,115.875,104.1943,106,104.7637,96.125,105.0966,86.25,104.3308,76.375,105.5246,66.5,104.9219,66.497,104.9146,64.7372,104.2015,62.986,103.5095,61.2422,102.8349,59.3956,101.9124,57.6612,101.2607,57.4326,101.1661,57.081,99.5559,56.2017,97.7273,55.676,96.045,54.8784,94.2502,54,92.4219,54.1481,92.4219,54.1366,90.6281,53.9202,88.8344,53.7981,87.0406,54.0307,85.2469,54,83.4531,53.958,83.4357,54.6168,81.6376,55.331,79.8623,56.0317,78.0815,57.0551,76.4343,57.6612,74.6143,57.6756,74.6491,59.4093,73.8347,61.2047,73.1692,62.9929,72.4863,64.6475,71.4807,66.5,70.9531" style="stroke: #A80036; stroke-width: 1.5;"/><text fill="#000000" font-family="sans-serif" font-size="12" lengthAdjust="spacingAndGlyphs" textLength="163" x="64" y="92.0918">contentFolder:patchEntity</text><polygon fill="#90EE90" filter="url(#flen8u0)" points="72.5,124.9219,72.5,125.2824,82.2333,125.3875,91.9667,124.7043,101.7,125.3769,111.4333,124.4022,121.1667,124.2607,130.9,124.8134,140.6333,124.3819,150.3667,125.4404,160.1,125.135,169.8333,125.0769,179.5667,125.0299,189.3,124.6327,199.0333,125.03,208.7667,124.7291,218.5,124.9219,218.5596,125.0657,220.1942,125.4766,222.0382,126.3929,223.7283,126.9376,225.6611,128.0682,227.3388,128.583,227.4967,128.6484,228.0495,130.3419,228.9281,132.1703,229.3693,133.8175,230.0542,135.5656,231,137.4219,230.933,137.4219,230.9076,139.2156,231.0756,141.0094,231.1079,142.8031,231.2072,144.5969,231,146.3906,230.9651,146.3762,230.2124,148.1354,229.7007,149.9946,228.7326,151.6647,228.1715,153.5033,227.3388,155.2295,227.3337,155.217,225.544,155.8963,223.7882,156.6574,222.0361,157.4276,220.3367,158.3249,218.5,158.8906,218.5,158.7212,208.7667,158.5357,199.0333,158.388,189.3,159.4765,179.5667,158.7933,169.8333,159.1225,160.1,158.9824,150.3667,158.6507,140.6333,158.6613,130.9,158.5293,121.1667,158.6206,111.4333,159.5781,101.7,158.6723,91.9667,159.3902,82.2333,159.0801,72.5,158.8906,72.5128,158.9216,70.7493,158.1997,68.9481,157.3866,67.1078,156.4793,65.4426,155.9948,63.6612,155.2295,63.7656,155.2727,63.1348,153.547,61.9661,151.5984,61.485,149.9347,60.6321,148.1169,60,146.3906,60.0971,146.3906,59.8409,144.5969,59.9078,142.8031,60.1186,141.0094,59.8561,139.2156,60,137.4219,59.8542,137.3615,60.8442,135.7005,61.6542,133.9649,62.166,132.1059,62.7923,130.2942,63.6612,128.583,63.5737,128.372,65.3644,127.695,67.2588,127.2686,68.8822,126.1876,70.6861,125.5428,72.5,124.9219" style="stroke: #A80036; stroke-width: 1.5;"/><text fill="#000000" font-family="sans-serif" font-size="12" lengthAdjust="spacingAndGlyphs" textLength="151" x="70" y="146.0605">Contents:beforeMarshal</text><polygon fill="#FFC0CB" filter="url(#flen8u0)" points="43.5,178.8906,43.5,179.1244,53.7,178.5727,63.9,178.7881,74.1,178.2198,84.3,178.8469,94.5,179.3128,104.7,178.6093,114.9,179.1483,125.1,178.9403,135.3,178.6486,145.5,179.5205,155.7,178.8721,165.9,178.5059,176.1,178.6941,186.3,178.9316,196.5,178.2548,206.7,178.6492,216.9,179.3121,227.1,178.6712,237.3,178.6307,247.5,178.8906,247.5712,179.0626,249.2877,179.6709,251.0768,180.4547,252.8147,181.1148,254.5275,181.7143,256.3388,182.5518,256.2848,182.5294,256.972,184.2785,257.6137,186.0088,258.4189,187.8068,259.3564,189.6596,260,191.3906,259.7863,191.3906,259.8025,193.1844,260.1535,194.9781,260.0733,196.7719,260.1194,198.5656,260,200.3594,259.8268,200.2876,259.4542,202.2044,258.448,203.8586,257.6098,205.5825,257.1496,207.463,256.3388,209.1982,256.2747,209.0434,254.5431,209.8628,252.8898,210.8716,250.9602,211.213,249.3323,212.2829,247.5,212.8594,247.5,212.5274,237.3,212.9169,227.1,213.5192,216.9,212.8136,206.7,213.5099,196.5,213.3006,186.3,212.2604,176.1,213.55,165.9,213.4859,155.7,213.4976,145.5,213.6051,135.3,212.7522,125.1,213.3597,114.9,212.2911,104.7,212.62,94.5,213.4703,84.3,212.3537,74.1,212.5072,63.9,213.4693,53.7,212.3039,43.5,212.8594,43.5621,213.0093,41.6581,211.9481,39.9756,211.4219,38.2265,210.7345,36.3786,209.809,34.6612,209.1982,34.6031,209.1742,34.1421,207.5187,33.1005,205.6228,32.6631,203.9772,31.6644,202.099,31,200.3594,31.0084,200.3594,30.8399,198.5656,30.9706,196.7719,30.831,194.9781,30.7922,193.1844,31,191.3906,30.7976,191.3068,31.6892,189.605,32.3249,187.7973,33.0094,186.0097,33.7444,184.2431,34.6612,182.5518,34.6368,182.493,36.4051,181.7621,38.2223,181.1492,39.9062,180.2143,41.8214,179.838,43.5,178.8906" style="stroke: #A80036; stroke-width: 1.5;"/><text fill="#000000" font-family="sans-serif" font-size="12" lengthAdjust="spacingAndGlyphs" textLength="209" x="41" y="200.0293">BcContentsBehavior:afterMarshal</text><polygon fill="#90EE90" filter="url(#flen8u0)" points="78,232.8594,78,233.1415,87.6429,232.1973,97.2857,232.1766,106.9286,233.0534,116.5714,233.5313,126.2143,233.0195,135.8571,232.4268,145.5,232.3513,155.1429,232.1892,164.7857,232.6907,174.4286,232.3818,184.0714,233.3218,193.7143,233.3798,203.3571,233.5908,213,232.8594,213.0697,233.0277,214.7941,233.6552,216.5494,234.3572,218.3547,235.1803,220.0038,235.6258,221.8388,236.5205,221.7728,236.4932,222.3771,238.2079,223.4135,240.1017,223.8117,241.7311,224.8432,243.6229,225.5,245.3594,225.4113,245.3594,225.5714,247.1531,225.4162,248.9469,225.5431,250.7406,225.3784,252.5344,225.5,254.3281,225.5815,254.3619,224.8846,256.1443,223.868,257.7943,223.1158,259.5538,222.7614,261.478,221.8388,263.167,221.786,263.0395,220.1482,264.0855,218.3726,264.7986,216.4842,265.2398,214.7378,266.0235,213,266.8281,213,266.0791,203.3571,266.8211,193.7143,266.3607,184.0714,266.5323,174.4286,266.1889,164.7857,266.286,155.1429,267.3393,145.5,266.6145,135.8571,267.1862,126.2143,266.1221,116.5714,266.3769,106.9286,267.09,97.2857,266.1853,87.6429,266.436,78,266.8281,77.9918,266.8084,76.1482,265.8929,74.4462,265.3195,72.7286,264.7085,70.9716,264.0022,69.1612,263.167,69.126,263.1524,68.5777,261.4608,67.4833,259.543,66.9376,257.8525,66.4188,256.1732,65.5,254.3281,65.425,254.3281,65.3469,252.5344,65.3377,250.7406,65.4477,248.9469,65.702,247.1531,65.5,245.3594,65.6261,245.4116,66.3774,243.6517,67.0626,241.8645,67.7413,240.0745,68.364,238.2614,69.1612,236.5205,69.2028,236.6211,70.9995,235.9588,72.6032,234.8303,74.4446,234.2758,76.2556,233.6479,78,232.8594" style="stroke: #A80036; stroke-width: 1.5;"/><text fill="#000000" font-family="sans-serif" font-size="12" lengthAdjust="spacingAndGlyphs" textLength="140" x="75.5" y="253.998">Contents:afterMarshal</text><polygon fill="#FFFF00" filter="url(#flen8u0)" points="87.5,286.8281,87.5,287.4328,97.1667,286.8726,106.8333,286.9863,116.5,286.8409,126.1667,286.5979,135.8333,287.1838,145.5,286.5392,155.1667,287.4544,164.8333,287.3205,174.5,286.6038,184.1667,287.4278,193.8333,286.7812,203.5,286.8281,203.4828,286.7866,205.3615,287.7865,207.1049,288.46,208.821,289.0675,210.4907,289.563,212.3388,290.4893,212.3242,290.4832,213.2812,292.3441,213.8875,294.0597,214.476,295.7679,215.0807,297.4829,216,299.3281,216.1537,299.3281,215.781,301.1219,215.924,302.9156,216.134,304.7094,216.1786,306.5031,216,308.2969,215.909,308.2592,215.1162,310.0019,214.489,311.8131,213.8245,313.609,213.0939,315.3774,212.3388,317.1357,212.276,316.9839,210.5586,317.8378,208.8768,318.7777,207.0526,319.3735,205.3171,320.1837,203.5,320.7969,203.5,321.4341,193.8333,321.3821,184.1667,320.7425,174.5,321.0509,164.8333,321.2026,155.1667,320.1049,145.5,320.7006,135.8333,321.3676,126.1667,320.6367,116.5,321.0903,106.8333,320.2225,97.1667,320.1934,87.5,320.7969,87.4401,320.6522,85.7465,320.0991,83.9698,319.3452,82.1109,318.393,80.4615,317.9465,78.6612,317.1357,78.6778,317.1426,78.0582,315.4215,77.3423,313.6605,76.3742,311.795,75.7527,310.0731,75,308.2969,75.2408,308.2969,74.8043,306.5031,74.9711,304.7094,74.9087,302.9156,75.1586,301.1219,75,299.3281,74.7703,299.233,75.893,297.6269,76.2995,295.7243,77.0126,293.9486,77.9793,292.2779,78.6612,290.4893,78.6966,290.5749,80.4259,289.7498,82.1784,288.9806,83.9117,288.1651,85.7826,287.682,87.5,286.8281" style="stroke: #A80036; stroke-width: 1.5;"/><text fill="#000000" font-family="sans-serif" font-size="12" lengthAdjust="spacingAndGlyphs" textLength="121" x="85" y="307.9668">contentFolder:save</text><polygon fill="#90EE90" filter="url(#flen8u0)" points="82,340.7969,82,340.6151,91.7692,340.9708,101.5385,340.0729,111.3077,340.3928,121.0769,340.3813,130.8462,340.147,140.6154,341.0475,150.3846,341.1684,160.1538,340.5655,169.9231,340.8268,179.6923,340.6473,189.4615,340.7812,199.2308,341.2626,209,340.7969,208.9122,340.585,210.7982,341.6026,212.4631,342.0865,214.2315,342.8202,216.0502,343.6754,217.8388,344.458,217.6512,344.3803,218.4064,346.1576,219.0787,347.9005,219.8984,349.7046,220.9019,351.5847,221.5,353.2969,221.6135,353.2969,221.2969,355.0906,221.6511,356.8844,221.5289,358.6781,221.4302,360.4719,221.5,362.2656,221.3571,362.2065,220.5632,363.9486,220.1468,365.8472,219.2049,367.5282,218.4193,369.2738,217.8388,371.1045,217.7818,370.9668,216.0489,371.7831,214.3688,372.7271,212.5349,373.2997,210.6791,373.8192,209,374.7656,209,374.986,199.2308,374.6292,189.4615,374.4248,179.6923,374.5898,169.9231,374.2701,160.1538,375.1668,150.3846,374.5355,140.6154,374.1775,130.8462,374.9144,121.0769,374.2635,111.3077,374.0221,101.5385,374.6275,91.7692,375.1011,82,374.7656,81.9868,374.7337,80.1434,373.819,78.4507,373.2679,76.7179,372.6201,75.0121,372.0375,73.1612,371.1045,73.1035,371.0806,72.4845,369.3597,71.8446,367.6302,70.8007,365.7333,70.082,363.9712,69.5,362.2656,69.5229,362.2656,69.3233,360.4719,69.72,358.6781,69.2762,356.8844,69.3011,355.0906,69.5,353.2969,69.4828,353.2898,70.3297,351.5695,70.888,349.7297,71.6501,347.9743,72.2222,346.1402,73.1612,344.458,73.1922,344.533,74.9171,343.6973,76.7364,343.0895,78.4408,342.2042,80.2337,341.5327,82,340.7969" style="stroke: #A80036; stroke-width: 1.5;"/><text fill="#000000" font-family="sans-serif" font-size="12" lengthAdjust="spacingAndGlyphs" textLength="132" x="79.5" y="361.9355">Contents:beforeSave</text><polygon fill="#90EE90" filter="url(#flen8u0)" points="87.5,394.7656,87.5,394.1065,97.1667,394.1677,106.8333,394.7266,116.5,394.1182,126.1667,394.9068,135.8333,394.8231,145.5,394.2987,155.1667,394.0585,164.8333,394.247,174.5,394.4103,184.1667,394.1758,193.8333,394.5151,203.5,394.7656,203.556,394.9008,205.2649,395.491,207.0394,396.2394,208.7841,396.9161,210.6428,397.8677,212.3388,398.4268,212.2672,398.3971,213.2398,400.2644,213.799,401.9605,214.407,403.6768,215.1316,405.4414,216,407.2656,216.2216,407.2656,215.8546,409.0594,215.9826,410.8531,215.8945,412.6469,216.1559,414.4406,216,416.2344,215.8615,416.177,215.0917,417.9292,214.6075,419.7997,213.8159,421.5429,213.1594,423.342,212.3388,425.0732,212.2725,424.9132,210.5565,425.7702,208.8866,426.7387,207.0461,427.2954,205.2419,427.9396,203.5,428.7344,203.5,428.0697,193.8333,428.6396,184.1667,428.1089,174.5,428.7813,164.8333,428.5679,155.1667,428.1623,145.5,428.9215,135.8333,428.4508,126.1667,429.3386,116.5,429.1716,106.8333,429.0478,97.1667,429.4288,87.5,428.7344,87.5147,428.77,85.7106,427.9499,83.899,427.1119,82.1721,426.4782,80.4086,425.7564,78.6612,425.0732,78.781,425.1229,77.7443,423.2289,77.1634,421.5239,76.3885,419.7384,75.6273,417.9587,75,416.2344,75.0671,416.2344,75.0758,414.4406,74.9551,412.6469,75.0476,410.8531,74.8553,409.0594,75,407.2656,75.2062,407.351,75.9303,405.5799,76.6454,403.805,77.2414,401.9808,77.9978,400.2231,78.6612,398.4268,78.7371,398.61,80.3498,397.5034,82.2036,396.979,83.9633,396.2273,85.6374,395.2688,87.5,394.7656" style="stroke: #A80036; stroke-width: 1.5;"/><text fill="#000000" font-family="sans-serif" font-size="12" lengthAdjust="spacingAndGlyphs" textLength="121" x="85" y="415.9043">Contents:afterSave</text><polygon fill="none" filter="url(#flen8u0)" points="154.4084,461.8606,154.266,464.0851,152.3821,465.6481,150.0302,468.2659,147.4256,468.3674,144.5981,468.9302,142.8005,467.9917,139.6488,467.3844,138.3388,464.8568,136.0242,462.3786,135.6824,460.1965,135.9971,457.5873,135.877,455.2633,137.3965,452.4352,139.8783,450.0874,143.0562,448.6292,146.51,448.4266,149.235,448.8149,151.2942,450.711,154.0181,452.5742,154.1853,454.8887,154.8716,456.9954,155.7418,458.9233" style="stroke: #000000; stroke-width: 1.0;"/><polygon fill="#000000" filter="url(#flen8u0)" points="151.8154,460.5914,150.8882,462.3255,150.1463,463.9346,149.0359,464.612,147.7875,465.0136,145.8459,465.1243,144.2012,465.231,142.699,463.9025,141.4778,462.5999,140.3893,461.9139,139.9286,460.1511,140.0265,458.6833,139.8782,457.4972,140.9034,456.347,141.7374,455.0539,143.2296,453.5638,144.6658,453.4046,146.4538,453.0914,147.712,453.2237,149.2454,453.8193,150.6516,455.3709,151.4838,457.2488,152.1493,458.4447,151.9903,459.6646" style="stroke: none; stroke-width: 1.0;"/><path d="M145.5,50.9531 L145.7379,50.9531 L145.3727,54.9531 L145.456,58.9531 L145.453,62.9531 L145.6553,66.9531 L145.5,70.9531 " fill="#A80036" style="stroke: #A80036; stroke-width: 1.5;"/><polygon fill="#A80036" points="141.5,60.9531,141.6149,60.9991,142.1635,62.8985,143.1266,64.9638,143.936,66.9675,144.7013,68.9537,145.5,70.9531,145.5132,70.9584,146.4534,69.0145,147.2628,67.0183,147.8139,64.9187,148.835,63.0071,149.5,60.9531,149.478,60.9311,148.8648,61.9179,147.7416,62.3947,146.9845,63.2376,146.4496,64.3028,145.5,64.9531,145.5609,65.014,144.6088,64.0619,143.8698,63.3229,143.2482,62.7013,142.2953,61.7485,141.5,60.9531" style="stroke: #A80036; stroke-width: 1.0;"/><path d="M145.5,104.9219 L145.3141,104.9219 L145.6672,108.9219 L145.211,112.9219 L145.702,116.9219 L145.8303,120.9219 L145.5,124.9219 " fill="#A80036" style="stroke: #A80036; stroke-width: 1.5;"/><polygon fill="#A80036" points="141.5,114.9219,141.5755,114.9521,142.5134,117.0072,143.2206,118.9701,143.9052,120.924,144.5971,122.8807,145.5,124.9219,145.5813,124.9544,146.371,122.9503,147.1573,120.9448,147.7573,118.8648,148.7642,116.9475,149.5,114.9219,149.5229,114.9448,148.7354,115.7573,147.7611,116.383,147.0111,117.233,146.1311,117.953,145.5,118.9219,145.5097,118.9316,144.542,117.9639,144.0098,117.4316,143.2158,116.6376,142.2892,115.7111,141.5,114.9219" style="stroke: #A80036; stroke-width: 1.0;"/><path d="M145.5,158.8906 L145.1913,158.8906 L145.7802,162.8906 L145.6824,166.8906 L145.629,170.8906 L145.6615,174.8906 L145.5,178.8906 " fill="#A80036" style="stroke: #A80036; stroke-width: 1.5;"/><polygon fill="#A80036" points="141.5,168.8906,141.515,168.8966,142.4091,170.9342,143.1974,172.9296,143.8711,174.8791,144.6799,176.8826,145.5,178.8906,145.5551,178.9127,146.1876,176.8457,147.0887,174.8861,147.6952,172.8087,148.8801,170.9627,149.5,168.8906,149.5895,168.9801,148.776,169.7666,147.8631,170.4537,147.205,171.3956,146.1336,171.9243,145.5,172.8906,145.6324,173.023,144.8689,172.2595,143.772,171.1626,143.1095,170.5001,142.1985,169.5891,141.5,168.8906" style="stroke: #A80036; stroke-width: 1.0;"/><path d="M145.5,212.8594 L145.6678,212.8594 L145.2816,216.8594 L145.3922,220.8594 L145.1935,224.8594 L145.6896,228.8594 L145.5,232.8594 " fill="#A80036" style="stroke: #A80036; stroke-width: 1.5;"/><polygon fill="#A80036" points="141.5,222.8594,141.5057,222.8617,142.4286,224.9108,143.0492,226.839,143.8893,228.8551,144.4804,230.7715,145.5,232.8594,145.4216,232.828,146.4081,230.9026,147.3136,228.9448,147.8458,226.8377,148.4933,224.7767,149.5,222.8594,149.6291,222.9885,148.738,223.6974,147.9273,224.4867,147.1308,225.2902,146.163,225.9224,145.5,226.8594,145.4503,226.8097,144.7981,226.1575,143.764,225.1234,143.1564,224.5158,142.3994,223.7588,141.5,222.8594" style="stroke: #A80036; stroke-width: 1.0;"/><path d="M145.5,266.8281 L145.8288,266.8281 L145.6147,270.8281 L145.343,274.8281 L145.477,278.8281 L145.4889,282.8281 L145.5,286.8281 " fill="#A80036" style="stroke: #A80036; stroke-width: 1.5;"/><polygon fill="#A80036" points="141.5,276.8281,141.3708,276.7764,142.413,278.8733,143.1275,280.8391,143.8736,282.8176,144.4698,284.736,145.5,286.8281,145.4859,286.8225,146.4502,284.8882,147.0329,282.8013,147.9473,280.847,148.7985,278.8675,149.5,276.8281,149.5831,276.9112,148.6809,277.6091,147.7769,278.305,147.2537,279.3819,146.3742,280.1023,145.5,280.8281,145.6665,280.9946,144.5429,279.871,143.7891,279.1172,143.1231,278.4512,142.3199,277.648,141.5,276.8281" style="stroke: #A80036; stroke-width: 1.0;"/><path d="M145.5,320.7969 L145.457,320.7969 L145.4674,324.7969 L145.7299,328.7969 L145.5239,332.7969 L145.4701,336.7969 L145.5,340.7969 " fill="#A80036" style="stroke: #A80036; stroke-width: 1.5;"/><polygon fill="#A80036" points="141.5,330.7969,141.3978,330.756,142.349,332.8165,142.9413,334.7334,143.8776,336.7879,144.5562,338.7394,145.5,340.7969,145.5974,340.8359,146.3933,338.8342,147.1638,336.8224,147.7693,334.7446,148.739,332.8125,149.5,330.7969,149.6409,330.9378,148.8394,331.7363,147.9382,332.435,147.1969,333.2938,146.3639,334.0608,145.5,334.7969,145.6532,334.95,144.8608,334.1576,143.8993,333.1962,142.9357,332.2326,142.4031,331.7,141.5,330.7969" style="stroke: #A80036; stroke-width: 1.0;"/><path d="M145.5,374.7656 L145.2778,374.7656 L145.6289,378.7656 L145.724,382.7656 L145.3868,386.7656 L145.411,390.7656 L145.5,394.7656 " fill="#A80036" style="stroke: #A80036; stroke-width: 1.5;"/><polygon fill="#A80036" points="141.5,384.7656,141.6699,384.8336,142.4049,386.8076,142.8821,388.6785,143.8279,390.7368,144.6008,392.7259,145.5,394.7656,145.5535,394.787,146.0746,392.6754,147.0435,390.743,148.0477,388.8247,148.4853,386.6797,149.5,384.7656,149.6027,384.8683,148.5739,385.4395,148.0233,386.4889,147.105,387.1706,146.4016,388.0672,145.5,388.7656,145.3577,388.6233,144.6862,387.9518,143.7952,387.0608,143.0134,386.279,142.1446,385.4102,141.5,384.7656" style="stroke: #A80036; stroke-width: 1.0;"/><path d="M145.5,428.7344 L145.2422,428.7344 L145.4661,432.7344 L145.5704,436.7344 L145.7019,440.7344 L145.6319,444.7344 L145.5,448.7344 " fill="#A80036" style="stroke: #A80036; stroke-width: 1.5;"/><polygon fill="#A80036" points="141.5,438.7344,141.456,438.7168,142.4057,440.7767,142.9808,442.6867,144.0926,444.8114,144.7937,446.7718,145.5,448.7344,145.3776,448.6854,146.243,446.7116,147.0719,444.7231,147.7155,442.6606,148.475,440.6444,149.5,438.7344,149.4238,438.6582,148.6528,439.4872,147.8414,440.2758,147.1984,441.2328,146.3081,441.9425,145.5,442.7344,145.6372,442.8716,144.7699,442.0043,143.9738,441.2081,143.2344,440.4687,142.1624,439.3968,141.5,438.7344" style="stroke: #A80036; stroke-width: 1.0;"/></g></svg>