<?xml version="1.0" encoding="UTF-8" standalone="no"?><svg xmlns="http://www.w3.org/2000/svg" xmlns:xlink="http://www.w3.org/1999/xlink" contentScriptType="application/ecmascript" contentStyleType="text/css" height="656px" preserveAspectRatio="none" style="width:565px;height:656px;" version="1.1" viewBox="0 0 565 656" width="565px" zoomAndPan="magnify"><defs><filter height="300%" id="fd46ok5" width="300%" x="-1" y="-1"><feGaussianBlur result="blurOut" stdDeviation="2.0"/><feColorMatrix in="blurOut" result="blurOut2" type="matrix" values="0 0 0 0 0 0 0 0 0 0 0 0 0 0 0 0 0 0 .4 0"/><feOffset dx="4.0" dy="4.0" in="blurOut2" result="blurOut3"/><feBlend in="SourceGraphic" in2="blurOut3" mode="normal"/></filter></defs><g><text fill="#000000" font-family="sans-serif" font-size="18" lengthAdjust="spacingAndGlyphs" textLength="288" x="152" y="17.4023">ユースケース：ウィジェットエリア</text><!--cluster ウィジェットエリア--><polygon fill="#FFFFFF" filter="url(#fd46ok5)" points="92,45.6992,92,45.9648,102.1538,45.9963,112.3077,45.3079,122.4615,46.3333,132.6154,46.428,142.7692,46.0383,152.9231,45.7026,163.0769,45.0835,173.2308,45.5403,183.3846,46.4054,193.5385,45.8897,203.6923,45.8403,213.8462,45.7,224,45.6992,224.158,45.7484,225.6275,50.2677,226.6049,54.6338,228.4105,59.2577,229.3759,63.6201,231,68.1875,231,68.4637,240.9091,68.5384,250.8182,68.8796,260.7273,68.5808,270.6364,67.6653,280.5455,67.4945,290.4545,67.4436,300.3636,68.766,310.2727,68.4698,320.1818,68.3234,330.0909,67.889,340,68.1005,349.9091,68.5829,359.8182,68.6695,369.7273,67.9994,379.6364,67.8701,389.5455,67.45,399.4545,68.5258,409.3636,68.1425,419.2727,67.7185,429.1818,68.087,439.0909,68.2726,449,67.8653,458.9091,67.696,468.8182,68.0817,478.7273,67.5994,488.6364,68.8312,498.5455,68.1461,508.4545,68.7954,518.3636,67.8438,528.2727,68.6587,538.1818,68.4986,548.0909,68.0692,558,68.1875,557.3974,68.1875,557.539,78.1571,557.944,88.1268,557.8987,98.0964,558.1551,108.066,557.6433,118.0356,558.3273,128.0053,558.2832,137.9749,557.2594,147.9445,557.5518,157.9141,558.6632,167.8838,558.0244,177.8534,557.3684,187.823,557.4797,197.7926,558.6941,207.7623,557.3969,217.7319,558.2343,227.7015,557.3252,237.6712,557.2567,247.6408,558.7108,257.6104,557.6414,267.58,557.6403,277.5497,558.0245,287.5193,558.4677,297.4889,557.4631,307.4585,557.7796,317.4282,558.1937,327.3978,557.3159,337.3674,558.5147,347.3371,558.4679,357.3067,557.6372,367.2763,557.5963,377.2459,558.3128,387.2156,557.6472,397.1852,557.2718,407.1548,558.7435,417.1244,557.9842,427.0941,558.4176,437.0637,557.5583,447.0333,557.3633,457.0029,557.9086,466.9726,558.6663,476.9422,557.6816,486.9118,557.9353,496.8815,558.719,506.8511,558.5863,516.8207,557.5387,526.7903,558.3015,536.76,557.5287,546.7296,558,556.6992,558,557.4217,548.0851,557.3941,538.1702,556.5876,528.2553,557.4014,518.3404,557.1456,508.4255,556.157,498.5106,556.6751,488.5957,557.3365,478.6809,556.0547,468.766,556.3555,458.8511,556.969,448.9362,556.58,439.0213,556.7094,429.1064,557.305,419.1915,557.2569,409.2766,556.6549,399.3617,557.3708,389.4468,556.2862,379.5319,556.0257,369.617,556.7388,359.7021,555.9807,349.7872,556.6647,339.8723,556.5996,329.9574,556.2962,320.0426,556.5263,310.1277,556.0293,300.2128,557.1111,290.2979,556.9333,280.383,557.1691,270.4681,557.4355,260.5532,555.9535,250.6383,556.614,240.7234,557.0745,230.8085,556.4953,220.8936,557.2767,210.9787,556.9481,201.0638,556.7725,191.1489,557.1702,181.234,557.0765,171.3191,556.0404,161.4043,556.5909,151.4894,556.1874,141.5745,556.4993,131.6596,556.865,121.7447,556.2557,111.8298,557.0165,101.9149,557.128,92,556.6992,91.6151,556.6992,91.4192,546.6796,92.1168,536.66,92.044,526.6404,92.2575,516.6208,91.9795,506.6012,92.4861,496.5816,92.155,486.562,91.4248,476.5424,92.3985,466.5227,92.7312,456.5031,92.4784,446.4835,92.5433,436.4639,91.5535,426.4443,92.6884,416.4247,92.0009,406.4051,91.6172,396.3855,92.3765,386.3659,92.4291,376.3463,91.2992,366.3267,92.4694,356.3071,92.7286,346.2875,91.9105,336.2678,92.409,326.2482,92.7472,316.2286,91.9056,306.209,91.3217,296.1894,92.2252,286.1698,92.3031,276.1502,92.0424,266.1306,92.0225,256.111,91.689,246.0914,92.3689,236.0718,91.679,226.0522,92.5648,216.0326,92.3689,206.0129,91.4519,195.9933,91.5816,185.9737,91.3384,175.9541,92.4682,165.9345,92.0932,155.9149,91.5636,145.8953,91.384,135.8757,92.3008,125.8561,92.0477,115.8365,92.5356,105.8169,91.3718,95.7973,91.3584,85.7777,92.5629,75.758,92.3255,65.7384,92.1534,55.7188,92,45.6992" style="stroke: #000000; stroke-width: 2.0;"/><path d="M92,68.1875 L92,68.5313 L101.9286,67.8628 L111.8571,68.783 L121.7857,67.73 L131.7143,68.317 L141.6429,67.681 L151.5714,67.4695 L161.5,68.4645 L171.4286,68.2741 L181.3571,67.3921 L191.2857,68.6983 L201.2143,68.3599 L211.1429,68.2548 L221.0714,67.61 L231,68.1875 " fill="#FFFFFF" style="stroke: #000000; stroke-width: 2.0;"/><text fill="#000000" font-family="sans-serif" font-size="14" font-weight="bold" lengthAdjust="spacingAndGlyphs" textLength="126" x="96" y="61.2344">ウィジェットエリア</text><polygon fill="#FEFECE" filter="url(#fd46ok5)" points="285.9323,458.4987,283.7859,461.8852,277.6997,464.7027,272.3283,467.9024,263.6842,470.472,250.9957,472.1254,239.1477,473.8577,224.9466,474.8366,210.8184,475.5084,198.5691,476.187,183.6951,475.7669,171.8987,475.4675,158.0365,474.065,146.0638,472.4127,133.389,469.8974,124.8291,467.6017,116.4076,464.6333,113.3468,462.2016,110.863,459.2656,108.4071,455.7593,110.7756,452.8421,110.9763,449.0147,116.9023,446.161,125.8109,443.7627,133.63,441.0061,146.0366,439.2889,156.413,437.2232,170.3402,436.1823,182.76,435.1234,199.9456,435.5632,213.6761,435.7241,225.2006,435.9619,238.9607,437.3413,252.5384,439.3572,261.117,440.9445,272.861,443.9617,277.6719,446.112,284.4593,449.388,288.5272,452.6829,286.9422,455.2737" style="stroke: #A80036; stroke-width: 1.5;"/><text fill="#000000" font-family="sans-serif" font-size="14" lengthAdjust="spacingAndGlyphs" textLength="154" x="121.3393" y="460.4112">ウィジェットエリア表示</text><polygon fill="#FEFECE" filter="url(#fd46ok5)" points="220.9403,388.2305,219.7439,390.2349,218.999,392.7614,216.7234,394.4614,214.1889,396.0748,211.5445,397.6177,208.6304,398.9071,205.7705,400.0737,201.419,400.0496,198.5587,400.6841,194.5273,400.2048,190.9552,399.6078,188.378,399.1956,184.4491,397.4289,182.5253,396.4472,179.7802,394.4269,178.0701,392.568,176.6898,390.4356,175.6408,388.0614,175.1201,385.6139,175.7339,383.5349,176.9962,381.5729,177.7022,379.0214,179.6573,377.1153,182.1159,375.453,184.7466,373.9014,187.796,372.6989,190.8884,371.6818,194.5198,371.243,198.2561,371.1717,201.8433,371.3654,205.6701,372.1262,208.5226,372.7153,211.4455,373.8352,214.4176,375.491,217.0443,377.4351,218.3234,379.0169,219.8109,381.2182,221.1059,383.7506,220.6499,385.5701" style="stroke: #A80036; stroke-width: 1.5;"/><text fill="#000000" font-family="sans-serif" font-size="14" lengthAdjust="spacingAndGlyphs" textLength="28" x="184.299" y="390.6023">一覧</text><polygon fill="#FEFECE" filter="url(#fd46ok5)" points="467.5337,527.969,466.6555,530.1781,465.4323,532.397,463.7532,534.4806,460.9705,535.9344,458.453,537.5588,455.4,538.759,452.3858,539.8264,449.3165,540.6266,445.0181,540.3366,442.1748,540.6211,438.5602,539.9968,434.9907,538.9466,431.6433,537.5537,429.4174,536.3778,427.136,534.6557,424.973,532.5056,423.6065,530.382,422.4308,527.9264,422.8651,526.0929,422.9603,523.6805,423.6978,521.381,424.9648,519.1902,427.1464,517.4297,429.3319,515.5919,432.1131,514.1371,435.3304,513.0425,438.4274,512.0284,441.3123,511.1096,445.0235,511.0221,448.5195,511.1572,452.3871,511.9442,455.4359,512.6596,458.3656,513.7839,461.3223,515.4297,464.0422,517.4338,465.6425,519.2221,467.213,521.4768,468.0464,523.7123,467.7341,525.6242" style="stroke: #A80036; stroke-width: 1.5;"/><text fill="#000000" font-family="sans-serif" font-size="14" lengthAdjust="spacingAndGlyphs" textLength="28" x="431.299" y="530.6023">削除</text><polygon fill="#FEFECE" filter="url(#fd46ok5)" points="487.9174,464.236,486.1931,466.4163,483.5927,468.5269,480.0445,470.469,475.1292,472.0206,469.9946,473.4967,465.2425,475.0245,459.5099,476.0572,451.7494,476.1604,444.808,476.2453,438.274,476.1095,432.8133,475.9301,426.4027,474.9689,421.2842,473.9669,415.2759,472.1546,410.9312,470.4042,407.5119,468.4681,404.4406,466.1663,402.6968,463.8665,403.0821,461.8865,403.1568,459.4385,405.7586,457.5602,407.3324,455.0963,410.2895,452.9508,414.8576,451.2797,420.4716,449.9686,426.7914,448.9802,432.6228,447.9815,439.0319,447.4133,446.0994,447.3718,452.7546,447.5493,459.1887,448.0637,465.1098,448.8564,470.9567,450.109,475.2528,451.3322,479.6375,453.0963,483.4752,455.1764,486.7085,457.5339,487.2845,459.4319,488.6908,462.0285" style="stroke: #A80036; stroke-width: 1.5;"/><text fill="#000000" font-family="sans-serif" font-size="14" lengthAdjust="spacingAndGlyphs" textLength="56" x="417.598" y="466.6023">一括削除</text><polygon fill="#FEFECE" filter="url(#fd46ok5)" points="240.6474,528.1431,239.6791,530.5835,237.0222,532.6747,232.6208,534.3232,228.9051,536.2876,224.484,538.0092,218.5665,539.136,211.7058,539.7805,205.9599,540.5769,198.179,540.373,191.924,540.3332,185.5883,539.8526,179.0168,538.8361,173.3966,537.6615,168.9672,536.3925,164.8166,534.7089,159.8552,532.2421,157.4786,530.1794,156.9098,528.284,155.3742,525.6428,156.9318,523.7052,157.3375,521.0711,159.8312,518.9238,163.3561,516.9737,169.236,515.754,173.1183,513.847,178.8976,512.6726,186.0086,512.1142,191.4549,511.2148,198.4531,511.1494,205.4995,511.4615,211.3905,511.789,218.3328,512.9331,224.3947,514.2598,228.7751,515.5119,232.2359,516.9581,236.1158,519.0527,238.7953,521.2197,240.349,523.4541,241.8426,526.0807" style="stroke: #A80036; stroke-width: 1.5;"/><text fill="#000000" font-family="sans-serif" font-size="14" lengthAdjust="spacingAndGlyphs" textLength="56" x="170.598" y="530.6023">新規作成</text><polygon fill="#FEFECE" filter="url(#fd46ok5)" points="220.4507,280.9157,219.7235,283.2218,218.2517,285.2809,217.1018,287.7047,214.8441,289.4961,211.9459,290.8757,208.2337,291.6521,205.6425,292.9915,202.1991,293.5511,198.6473,293.7411,194.6497,293.2835,190.9836,292.626,188.1625,292.0571,184.6912,290.5846,181.9319,289.0656,180.2539,287.7315,177.6772,285.3154,176.3663,283.2276,175.421,280.9201,175.7645,279.0282,175.5252,276.4007,176.7934,274.4425,177.9324,272.1694,179.6108,270.0853,181.9401,268.34,184.4428,266.7061,187.6054,265.5764,191.1239,264.8332,194.4862,264.2214,198.753,264.4912,201.989,264.4591,205.7438,265.1736,208.3288,265.5908,211.4488,266.8374,213.9858,268.2133,217.07,270.4516,218.7152,272.2689,219.7865,274.2025,220.9667,276.6611,221.2501,278.956" style="stroke: #A80036; stroke-width: 1.5;"/><text fill="#000000" font-family="sans-serif" font-size="14" lengthAdjust="spacingAndGlyphs" textLength="28" x="184.299" y="283.6023">編集</text><polygon fill="#FEFECE" filter="url(#fd46ok5)" points="512.4099,170.1365,509.0487,172.3347,505.8237,174.8149,498.8814,176.5887,493.7463,178.8747,486.0737,180.5624,475.3525,181.4451,466.5027,182.5989,456.7606,183.2925,444.4594,183.0592,435.8621,183.31,423.5967,182.2505,416.1663,181.8407,406.8365,180.4596,399.3895,178.9788,391.8501,176.9257,386.9334,174.9475,382.6005,172.5835,378.482,169.7795,378.3978,167.4816,378.8129,164.9122,382.2409,162.7297,385.6694,160.2975,391.0225,158.149,397.2501,156.1206,406.9344,154.9073,415.1456,153.4327,425.8999,152.7279,434.7816,151.8314,446.7358,151.983,455.937,151.8746,465.0656,152.1944,476.9658,153.6581,484.4231,154.5977,493.6413,156.4962,498.8834,158.0075,505.6917,160.4318,508.7665,162.4992,511.307,164.931,512.2993,167.4431" style="stroke: #A80036; stroke-width: 1.5;"/><text fill="#000000" font-family="sans-serif" font-size="14" lengthAdjust="spacingAndGlyphs" textLength="98" x="396.5324" y="172.2498">タイトルを変更</text><polygon fill="#FEFECE" filter="url(#fd46ok5)" points="521.7829,101.3906,518.3403,104.0133,513.5103,106.6014,509.3648,109.5417,499.9378,111.3622,491.1995,113.3415,480.6203,114.7979,469.7799,115.9996,456.7377,116.4081,444.3505,116.598,431.7546,116.2952,421.9785,116.134,408.7913,114.6258,399.6025,113.4418,389.6218,111.4541,382.2432,109.4378,374.6979,106.762,369.8562,104.1117,368.999,101.8202,366.6909,98.6854,366.6085,95.6192,369.7808,92.9342,376.9714,90.8906,380.7788,87.8723,390.0664,86.0196,400.7098,84.4797,411.1619,82.9941,421.5098,81.6787,433.2906,80.9793,446.1228,80.892,457.361,80.8817,468.7016,81.4037,479.4008,82.338,491.4819,84.1891,501.8332,86.2623,507.9061,87.9775,513.8508,90.2841,518.9828,93.0014,522.7287,95.9591,523.5449,98.7499" style="stroke: #A80036; stroke-width: 1.5;"/><text fill="#000000" font-family="sans-serif" font-size="14" lengthAdjust="spacingAndGlyphs" textLength="126" x="382.2871" y="103.5008">ウィジェットを追加</text><polygon fill="#FEFECE" filter="url(#fd46ok5)" points="540.7187,394.258,536.1506,397.3394,529.7934,400.3618,524.2966,403.8114,515.0392,406.5336,500.815,408.139,490.5927,410.526,476.8276,411.8827,461.1501,412.4661,443.7947,412.2278,429.8589,412.2238,417.1377,411.8811,400.8312,410.0586,389.5736,408.6522,379.1677,406.6904,367.1859,403.6182,359.5815,400.7835,354.8505,397.8757,348.6959,393.9741,347.1455,390.496,351.1226,387.7262,352.6856,383.969,358.2471,380.7677,365.851,377.792,375.9186,375.2519,387.5272,373.0584,401.2046,371.4483,416.2316,370.3753,429.9443,369.3501,444.669,368.9969,459.796,369.2688,476.3697,370.4777,491.0713,371.9393,501.2402,373.101,513.2991,375.4344,522.4605,377.8724,532.5468,381.2652,536.108,383.91,540.9717,387.5213,541.003,390.6578" style="stroke: #A80036; stroke-width: 1.5;"/><text fill="#000000" font-family="sans-serif" font-size="14" lengthAdjust="spacingAndGlyphs" textLength="168" x="361.5689" y="395.6571">ウィジェットの設定を変更</text><polygon fill="#FEFECE" filter="url(#fd46ok5)" points="522.144,318.4739,519.2028,321.2122,516.5063,324.2924,508.2754,326.2904,499.472,328.2547,492.5011,330.6417,481.4403,331.987,468.6053,332.7287,457.7137,333.6332,446.1169,334.0055,431.503,333.2372,422.1713,333.1785,410.8171,332.0931,400.7325,330.7025,390.3972,328.633,382.4983,326.4966,375.7277,323.9995,371.0493,321.3869,368.7343,318.7592,368.3851,316.0761,368.8159,313.1284,371.2701,310.2777,377.0164,307.9009,383.0525,305.3967,388.4798,302.6537,400.6616,301.4686,408.7098,299.4285,420.5932,298.4673,431.4927,297.5646,444.744,297.574,459.0796,298.2781,468.4158,298.3377,482.1296,299.9674,491.3573,301.1604,501.5683,303.2012,508.112,305.025,513.5248,307.2089,518.3905,309.8647,523.21,313.0701,524.7143,316.0196" style="stroke: #A80036; stroke-width: 1.5;"/><text fill="#000000" font-family="sans-serif" font-size="14" lengthAdjust="spacingAndGlyphs" textLength="126" x="382.2871" y="320.5008">ウィジェットを削除</text><polygon fill="#FEFECE" filter="url(#fd46ok5)" points="540.1085,244.1208,535.8965,247.2823,529.8075,250.365,525.2624,254.0285,515.5604,256.6508,502.7315,258.5699,490.665,260.5423,475.9307,261.681,459.7828,262.1587,446.9927,262.9469,430.0906,262.2759,414.9201,261.3825,403.0416,260.5556,387.3047,258.142,377.7895,256.3805,369.3738,254.1102,361.1743,251.1416,355.4296,248.0059,348.8274,244.0036,348.5342,240.8083,352.0804,237.9415,355.1454,234.5221,360.6032,231.2975,369.3594,228.5809,376.5385,225.3913,390.7253,223.7775,403.6541,221.9991,414.8764,220.0706,430.8778,219.56,444.9149,219.0522,460.6106,219.4519,475.7847,220.3461,488.2887,221.3137,501.5469,223.1699,512.5892,225.2748,524.8619,228.4124,531.8792,231.1151,537.0121,234.1133,542.611,237.8899,543.0277,241.1131" style="stroke: #A80036; stroke-width: 1.5;"/><text fill="#000000" font-family="sans-serif" font-size="14" lengthAdjust="spacingAndGlyphs" textLength="168" x="361.5689" y="245.6571">ウィジェットを並べ替える</text><!--entity 管理者--><polygon fill="#FEFECE" filter="url(#fd46ok5)" points="34.4421,355.9661,34.0403,358.5601,32.1804,360.728,30.444,361.9202,27.8753,362.5376,25.566,362.0017,23.4783,360.9972,22.3752,360.2355,20.6709,359.4821,19.7802,356.831,19.1637,355.3681,19.0301,353.7704,19.4341,352.3149,19.6679,350.5877,20.4122,349.2446,21.8542,348.2106,23.4026,347.317,25.8422,345.9269,28.5536,346.3894,30.5039,347.4184,32.5027,347.8555,33.1371,349.2267,33.9706,350.6797,34.9316,352.2914,34.7292,354.8134" style="stroke: #A80036; stroke-width: 2.0;"/><path d="M27,362.1992 L26.6281,362.1992 L26.5288,367.5992 L27.6229,372.9992 L26.3598,378.3992 L27.2578,383.7992 L27,389.1992 M14,370.1992 L14,370.0297 L19.2,370.227 L24.4,370.8074 L29.6,370.5332 L34.8,370.5918 L40,370.1992 M27,389.1992 L27.2789,389.441 L23.9461,391.8058 L22.2507,395.5899 L19.1808,398.1826 L16.2583,400.9031 L14,404.1992 M27,389.1992 L26.6032,388.8553 L29.5066,392.1183 L31.8555,394.9006 L34.9143,398.2983 L37.4228,401.2189 L40,404.1992 " fill="#FEFECE" style="stroke: #A80036; stroke-width: 2.0;"/><text fill="#000000" font-family="sans-serif" font-size="14" lengthAdjust="spacingAndGlyphs" textLength="42" x="6" y="424.7344">管理者</text><!--entity 閲覧ユーザー--><polygon fill="#FEFECE" filter="url(#fd46ok5)" points="453.6977,587.2642,452.214,588.8949,451.2336,590.1325,449.7937,591.4437,448.8175,592.499,446.2134,593.3738,443.8114,593.1325,441.6067,592.7253,440.3032,591.4917,439.2013,589.5952,437.7269,588.3362,437.8976,586.7174,437.6073,584.0581,437.8944,581.8116,438.8355,580.2585,440.9389,578.3061,442.9967,577.6722,444.476,576.979,446.6935,577.3067,448.4475,577.2313,449.8447,578.609,451.6138,580.2091,452.4089,581.7018,453.3403,584.1202,453.4142,585.9186" style="stroke: #A80036; stroke-width: 2.0;"/><path d="M445.5,593.1992 L445.9175,593.1992 L446.1069,598.5992 L445.711,603.9992 L445.5215,609.3992 L446.1227,614.7992 L445.5,620.1992 M432.5,601.1992 L432.5,601.7653 L437.7,601.4895 L442.9,601.3247 L448.1,601.4663 L453.3,601.1723 L458.5,601.1992 M445.5,620.1992 L445.8096,620.4675 L442.8619,623.1662 L440.3617,626.2527 L437.7494,629.2421 L435.1234,632.2195 L432.5,635.1992 M445.5,620.1992 L445.9796,620.6149 L447.9308,623.0526 L450.3096,625.8609 L453.7566,629.5949 L455.7996,632.1122 L458.5,635.1992 " fill="#FEFECE" style="stroke: #A80036; stroke-width: 2.0;"/><text fill="#000000" font-family="sans-serif" font-size="14" lengthAdjust="spacingAndGlyphs" textLength="84" x="403.5" y="655.7344">閲覧ユーザー</text><path d="M254.41,474.8192 L254.5473,475.1009 L257.8938,476.3982 L261.6471,478.5298 L265.1653,480.1793 L268.6428,481.7455 L272.2113,483.498 L272.2506,483.5627 L275.6702,485.7048 L279.0348,487.7562 L282.2415,489.5479 L285.7087,491.7683 L289,493.6992 L288.893,493.5595 L291.2757,495.5391 L293.2847,497.0307 L295.1245,498.3014 L297.3677,500.0989 L299.4773,501.7219 L299.3214,501.5572 L301.2016,503.3654 L302.6916,504.7614 L304.153,506.1272 L305.8389,507.7302 L307.5761,509.3873 L307.685,509.476 L309.7936,512.1976 L312.3459,515.2802 L314.6001,518.1203 L317.0696,521.1355 L319.6937,524.2767 L319.4439,524.0851 L321.9776,527.293 L324.286,530.328 L326.925,533.6165 L328.8488,536.3566 L331.4645,539.6273 L331.5287,539.687 L333.1785,541.444 L334.634,543.0203 L335.8739,544.3961 L337.4863,546.1184 L339.1297,547.8694 L338.9322,547.6486 L341.125,549.6591 L343.091,551.4161 L345.2043,553.3377 L346.8177,554.7004 L349,556.6992 L348.8064,556.4486 L351.485,558.5427 L354.2452,560.7421 L356.6974,562.5431 L359.6171,564.9492 L362.1575,566.8642 L362.1873,566.9066 L364.8775,568.7398 L367.57,570.5762 L370.5527,572.8256 L373.311,574.7557 L376.005,576.5942 L376.1261,576.7799 L378.9614,578.6655 L381.418,579.9704 L384.4244,582.1183 L387.2204,583.9438 L389.9725,585.7017 L389.9113,585.6021 L392.6189,587.2683 L395.41,589.0704 L398.2272,590.9151 L400.825,592.4025 L403.49,593.9992 " fill="none" style="stroke: #A80036; stroke-width: 1.0;"/><polygon fill="#A80036" points="249.7,472.7792,249.7985,472.87,250.9899,474.185,252.288,475.5984,253.6408,477.0621,255.0776,478.6034,256.3777,480.0186,256.3349,480.0016,256.1355,479.0366,255.6909,477.9743,255.2626,476.9184,254.7995,475.8487,254.2905,474.7609,254.3814,474.9897,255.2707,474.1635,256.3383,473.7867,257.3669,473.3114,258.4975,473.0932,259.5483,472.6737,259.5476,472.6112,257.5808,472.8965,255.6093,472.7461,253.6382,472.6324,251.6689,472.6914,249.7,472.7792" style="stroke: #A80036; stroke-width: 1.0;"/><path d="M48.11,385.6992 L48.11,385.2748 L58.2675,385.8517 L68.425,386.3171 L78.5825,384.825 L88.74,385.0521 L98.8975,386.2055 L109.055,385.7787 L119.2125,385.3803 L129.37,386.403 L139.5275,386.543 L149.685,386.6113 L159.8425,385.9391 L170,385.6992 " fill="none" style="stroke: #A80036; stroke-width: 1.0;"/><polygon fill="#A80036" points="175.27,385.6992,175.2094,385.5628,173.5398,385.0562,171.6522,384.0592,169.9459,383.47,168.1633,382.7091,166.27,381.6992,166.1174,381.5466,167.1787,382.6079,167.8273,383.2565,168.8315,384.2608,169.3476,384.7768,170.27,385.6992,170.1082,385.5375,169.3069,386.3361,168.6492,387.2784,167.7936,388.0228,166.958,388.7873,166.27,389.6992,166.1707,389.4759,168.152,389.0837,169.7864,387.911,171.7412,387.4594,173.5245,386.6218,175.27,385.6992" style="stroke: #A80036; stroke-width: 1.0;"/><path d="M220.6,389.7392 L220.5917,389.7075 L223.726,390.3878 L226.9771,391.5147 L230.1287,392.261 L233.3021,393.0911 L236.4667,393.8872 L236.5597,394.1666 L240.0686,395.2276 L243.5678,396.2594 L247.0183,397.1447 L250.6987,398.721 L254.2113,399.793 L254.2477,399.8765 L257.8573,401.4546 L261.4355,402.9604 L264.9172,404.2451 L268.5658,405.9126 L272.2502,407.6619 L272.338,407.8085 L275.6697,409.7855 L279.0516,411.8462 L282.3287,413.7321 L285.7152,415.8004 L289,417.6992 L289.1948,417.9292 L291.4339,419.8274 L293.4113,421.4166 L295.8686,423.5724 L297.8847,425.2073 L300.1688,427.1586 L300.0367,427.0476 L301.6525,428.9662 L303.2823,430.8965 L304.9981,432.8991 L306.7385,434.9222 L308.1695,436.6856 L307.9842,436.5714 L309.5417,438.7182 L310.5906,440.5517 L311.6975,442.421 L312.6649,444.2043 L314.062,446.2522 L314.028,446.2351 L315.3175,448.3129 L315.9514,450.0591 L316.8373,451.9328 L317.9096,453.9008 L318.9063,455.8305 L319.008,455.8821 L319.788,457.6974 L320.931,459.697 L321.8806,461.5984 L322.5643,463.3648 L323.7622,465.3923 L323.6729,465.3366 L324.7443,467.1691 L326.09,469.1723 L327.4996,471.2154 L328.4576,472.9771 L329.6898,474.9097 L329.5759,474.8124 L331.3853,476.87 L332.847,478.6309 L334.4217,480.4882 L336.1499,482.4765 L337.7491,484.3547 L337.7056,484.3023 L339.8791,486.0788 L342.4236,488.3021 L344.5395,490.0094 L346.9334,492.0513 L349,493.6992 L348.9392,493.5958 L352.384,495.7281 L355.6697,497.5899 L359.0446,499.6034 L362.5385,501.8192 L365.7423,503.5417 L365.663,503.356 L369.4313,505.2693 L372.845,506.3522 L376.4705,507.9312 L380.1083,509.5389 L383.7888,511.2467 L383.6932,510.9508 L387.3476,512.3114 L390.898,513.3498 L394.4549,514.4083 L398.0708,515.6496 L401.7358,517.043 L401.7612,517.1444 L405.035,517.9079 L408.2438,518.4112 L411.5816,519.4299 L414.8802,520.2924 L418.18,521.1592 " fill="none" style="stroke: #A80036; stroke-width: 1.0;"/><polygon fill="#A80036" points="423.16,522.2092,423.2075,522.275,421.7058,521.2547,419.9318,519.8572,418.3009,518.6578,416.8307,517.6811,415.1737,516.4456,415.066,516.3753,415.8283,517.4164,416.3159,518.2782,417.198,519.3975,417.5557,520.1745,418.2666,521.182,418.3587,521.3231,417.2206,521.6494,416.3608,522.402,415.4618,523.0944,414.3606,523.4774,413.5302,524.275,413.5665,524.4441,415.4514,523.8398,417.3412,523.2577,419.2788,522.8988,421.2832,522.8517,423.16,522.2092" style="stroke: #A80036; stroke-width: 1.0;"/><path d="M219.55,391.9192 L219.5814,392.0205 L229.2507,395.6398 L238.1861,396.8937 L247.7345,400.1233 L257.5132,404.0954 L266.9146,406.8515 L276.2672,409.45 L285.8138,412.674 L295.3655,415.9143 L304.8472,418.9291 L314.3866,422.1298 L323.3148,423.3601 L333.3059,428.0171 L342.5767,430.3518 L351.9295,432.9513 L361.3195,435.6702 L370.7688,438.5806 L380.2567,441.6153 L389.6224,444.2561 L399.0757,447.1793 L408.68,450.5892 " fill="none" style="stroke: #A80036; stroke-width: 1.0;"/><polygon fill="#A80036" points="413.6,452.1092,413.4748,451.9665,412.1761,450.875,410.5144,449.3699,409.0861,448.1307,407.8325,447.0907,406.1961,445.6144,406.2278,445.631,406.9341,446.7274,407.3314,447.6615,407.5766,448.5157,408.3698,449.6577,408.8261,450.6227,408.7382,450.4554,407.8772,451.2492,406.8636,451.7525,405.9294,452.4069,404.791,452.6727,403.8177,453.2527,403.827,453.3323,405.7575,452.8812,407.7249,452.7462,409.6935,452.6212,411.6196,452.1327,413.6,452.1092" style="stroke: #A80036; stroke-width: 1.0;"/><path d="M40.49,427.4292 L40.6519,427.4992 L41.8536,430.867 L43.6651,434.4984 L45.1623,437.9939 L46.631,441.4771 L48.0633,444.9445 L47.9211,444.8719 L49.0213,446.7531 L49.7765,448.4579 L50.7213,450.2597 L51.5546,452.0046 L52.6265,453.8713 L52.7506,453.9432 L53.8836,455.7723 L54.9523,457.5643 L55.8523,459.2585 L56.6138,460.8726 L57.7338,462.6942 L57.8608,462.7784 L58.7406,464.3211 L59.8649,466.0259 L60.934,467.694 L62.4209,469.6391 L63.4049,471.2509 L63.1591,471.0617 L64.6205,472.8493 L66.0717,474.629 L67.0633,476.0549 L68.3023,477.6713 L69.6598,479.3789 L69.4318,479.1714 L71.2676,481.1011 L72.5853,482.5593 L73.8381,483.9586 L75.1378,485.4005 L76.5183,486.9158 L76.4574,486.8487 L77.9642,488.2169 L79.3768,489.4812 L81.1264,491.1172 L82.2803,492.0962 L84,493.6992 L84.1734,493.9599 L87.0134,495.6209 L90.2988,497.9516 L93.2494,499.779 L96.3675,501.8582 L99.5602,504.0494 L99.6719,504.2949 L102.8819,505.3492 L106.3706,507.0157 L109.8165,508.5881 L113.3426,510.3368 L116.7788,511.888 L116.7713,511.8645 L120.2761,512.8017 L123.9461,514.2582 L127.5045,515.3639 L130.994,516.2529 L134.618,517.5647 L134.5787,517.3878 L138.1429,518.5204 L141.5945,519.1451 L145.0594,519.8304 L148.5042,520.4244 L152.04,521.4292 " fill="none" style="stroke: #A80036; stroke-width: 1.0;"/><polygon fill="#A80036" points="157.08,522.2892,157.0524,522.2478,155.3066,520.996,153.907,520.2641,152.0313,518.8173,150.5935,518.0279,148.8831,516.8294,148.8977,516.8397,149.6582,517.8387,150.1018,518.6134,150.7198,519.5116,151.5859,520.5853,152.1515,521.4464,152.2574,521.5959,151.3439,522.2636,150.3199,522.7752,149.3204,523.3214,148.3261,523.875,147.5345,524.7149,147.5469,524.7635,149.4297,524.1751,151.3554,523.7551,153.3204,523.4899,155.166,522.7551,157.08,522.2892" style="stroke: #A80036; stroke-width: 1.0;"/><path d="M48.11,373.0092 L48.5476,373.7024 L57.0673,368.1857 L65.0581,361.8313 L74.3136,357.4801 L82.5384,351.4962 L90.768,345.52 L100.1263,341.3316 L108.6306,335.7907 L116.3389,328.9887 L125.6255,324.6868 L134.4332,319.6263 L142.2752,313.0362 L150.8178,307.5558 L159.4916,302.2831 L167.7889,296.4142 L176.84,291.7392 " fill="none" style="stroke: #A80036; stroke-width: 1.0;"/><polygon fill="#A80036" points="181.44,288.8392,181.4206,288.7063,179.4758,289.0203,177.5136,289.2158,175.5861,289.6483,173.6352,289.92,171.6948,290.2644,171.745,290.4868,172.849,290.7378,173.8824,290.6754,175.0185,291.0685,176.1519,291.4495,177.2129,291.5097,177.1168,291.488,176.9004,292.599,176.8256,293.742,176.4668,294.8208,176.0361,295.8834,175.9676,297.0278,175.9196,296.9957,177.1229,295.4307,178.1254,293.7316,179.1052,292.0172,180.4994,290.5798,181.44,288.8392" style="stroke: #A80036; stroke-width: 1.0;"/><path d="M216.18,269.1692 L216.0871,269.0014 L221.2993,266.4823 L226.2796,263.5444 L231.2063,260.5096 L236.5309,258.1935 L241.4641,255.1705 L241.4002,255.0519 L244.6569,253.5993 L247.7432,251.8303 L250.7581,249.9288 L253.9753,248.4028 L257.117,246.7367 L257.1156,246.7341 L260.5071,244.8745 L264.0463,243.2955 L267.3531,241.2749 L270.9525,239.8101 L274.2275,237.7292 L274.2836,237.8387 L277.8806,235.9131 L281.3493,233.737 L285.091,232.094 L288.6137,230.0232 L292.3833,228.4348 L292.3151,228.297 L296.1405,226.5749 L299.905,224.7294 L303.6263,222.7968 L307.3451,220.8592 L311.1722,219.1405 L311.2752,219.3579 L315.0452,217.4889 L318.7274,215.4348 L322.5417,213.6593 L326.4762,212.1377 L330.1818,210.133 L330.1496,210.061 L334.0336,208.643 L337.5953,206.5056 L341.5449,205.2336 L345.111,203.1061 L349,201.6992 L349.0391,201.7929 L351.5239,200.7191 L353.9663,199.5437 L356.6079,198.8456 L358.9226,197.3643 L361.4894,196.4869 L361.5934,196.753 L364.061,195.4847 L366.5504,194.2721 L369.1225,193.2712 L371.6643,192.1925 L374.3425,191.463 L374.3837,191.5742 L376.9771,190.6945 L379.4162,189.3987 L382.1293,188.8421 L384.6415,187.7433 L387.1769,186.7072 L387.262,186.9474 L389.7158,185.973 L392.1684,184.9956 L394.5545,183.8305 L397.1139,183.1541 L399.61,182.2992 " fill="none" style="stroke: #A80036; stroke-width: 1.0;"/><polygon fill="#A80036" points="404.55,180.5892,404.5643,180.7541,402.585,180.3893,400.6209,180.1992,398.6843,180.3261,396.7036,179.9454,394.738,179.738,394.6752,179.6092,395.7239,180.1703,396.8259,180.8407,397.8221,181.2941,398.7445,181.5962,399.8225,182.2174,399.622,182.1196,399.5167,183.327,398.7372,184.2056,398.5119,185.3545,397.9786,186.3531,397.3431,187.3019,397.1802,187.127,398.9131,186.0975,400.2653,184.6591,401.7775,183.3926,403.1928,182.0222,404.55,180.5892" style="stroke: #A80036; stroke-width: 1.0;"/><path d="M209.71,265.6092 L209.5018,265.4387 L211.5222,263.0429 L213.8277,260.8805 L215.7173,258.3776 L217.6991,255.9502 L219.6367,253.4866 L219.5523,253.4144 L222.1529,250.4738 L224.9538,247.7045 L227.1736,244.4381 L229.7382,241.4668 L232.3938,238.5731 L232.4562,238.6285 L233.6956,236.7747 L235.3139,235.2571 L237.0249,233.8218 L238.4355,232.1199 L239.7255,230.311 L239.6427,230.2354 L241.2731,228.5455 L242.6785,226.6505 L244.5515,225.1819 L246.2439,223.5486 L247.6352,221.6405 L247.5141,221.5267 L249.4342,219.9477 L251.1461,218.1729 L252.58,216.1368 L254.1495,214.2281 L256.0794,212.6582 L255.9408,212.5236 L257.7281,210.6842 L259.6675,208.9925 L261.2896,206.9927 L263.0901,205.1661 L265.015,203.4605 L265.1955,203.6423 L266.8884,201.5937 L268.9916,199.9585 L270.4546,197.6784 L272.6003,196.086 L274.3987,194.1438 L274.5766,194.3302 L276.3951,192.3164 L278.4267,190.5261 L280.4968,188.7761 L282.3557,186.8046 L284.1873,184.8046 L284.3387,184.9704 L286.1388,182.8655 L288.2649,181.1177 L290.1782,179.1368 L292.1223,177.1895 L294.3376,175.5394 L294.4132,175.6265 L296.471,173.7661 L298.3242,171.6703 L300.545,169.9976 L302.6176,168.1544 L304.8063,166.4447 L304.9952,166.6746 L307.1036,164.86 L308.9795,162.7623 L311.3323,161.2451 L313.3536,159.3243 L315.5501,157.6168 L315.4801,157.5262 L317.6888,155.8509 L320.0081,154.3189 L322.3017,152.7536 L324.1471,150.6073 L326.5258,149.1523 L326.48,149.0885 L328.5716,147.2905 L331.1331,146.1479 L333.1867,144.297 L335.3394,142.5842 L337.6902,141.1476 L337.7749,141.2762 L339.9433,139.6446 L342.1907,138.1327 L344.4971,136.7106 L346.5816,134.9514 L349,133.6992 L349.1412,133.9428 L350.8311,132.4224 L352.9614,131.6616 L354.8351,130.4585 L356.7051,129.2488 L358.622,128.12 L358.6943,128.2641 L360.794,127.4001 L362.7894,126.3279 L364.6095,124.906 L366.8636,124.3501 L368.7438,123.048 L368.6533,122.8425 L370.8102,122.1109 L372.9612,121.366 L375.0545,120.4898 L377.1427,119.6023 L379.1261,118.4766 L379.1266,118.4779 L381.2387,117.7422 L383.2415,116.728 L385.3064,115.872 L387.5305,115.4221 L389.53,114.3992 " fill="none" style="stroke: #A80036; stroke-width: 1.0;"/><polygon fill="#A80036" points="394.57,112.5792,394.558,112.4107,392.6157,112.5861,390.6486,112.4131,388.6911,112.3762,386.6975,111.8322,384.7461,111.8789,384.8146,112.0251,385.859,112.548,386.8103,112.8723,387.7688,113.2119,388.9304,113.9846,389.8681,114.2799,389.7663,114.2322,389.4611,115.3386,389.0397,116.3906,388.2637,117.2763,387.9516,118.3795,387.4672,119.4019,387.3428,119.2725,388.868,118.0169,390.2646,116.6274,391.7084,115.287,393.186,113.9819,394.57,112.5792" style="stroke: #A80036; stroke-width: 1.0;"/><path d="M217.31,287.6492 L217.4277,287.8866 L222.3013,289.9353 L227.4937,292.627 L232.5407,295.0255 L237.7631,297.7777 L242.8872,300.3316 L242.8816,300.3202 L249.2899,303.2435 L256.0932,306.9763 L262.4447,309.7831 L269.0762,313.164 L275.58,316.283 L275.5385,316.1958 L282.8124,319.6288 L290.0764,323.041 L297.3256,326.4222 L304.8325,330.3437 L312.0603,333.68 L312.0513,333.6606 L315.7646,335.3717 L319.5962,337.3368 L323.0964,338.59 L326.874,340.4391 L330.6807,342.3508 L330.6552,342.2947 L334.2546,343.8231 L338.033,345.7441 L341.5808,347.159 L345.4083,349.1878 L349,350.6992 L349.0783,350.8773 L353.3775,352.5402 L357.8798,354.6652 L362.2033,356.3834 L366.5899,358.2451 L371.1138,360.4192 L371.1674,360.5456 L375.4959,362.1686 L379.9882,364.1777 L384.4473,366.1085 L388.9053,368.0367 L393.31,369.8392 " fill="none" style="stroke: #A80036; stroke-width: 1.0;"/><polygon fill="#A80036" points="398.14,371.8492,398.3051,372.0059,396.8829,370.5144,395.3956,368.9611,394.1511,367.6384,392.8879,366.2978,391.3598,364.7058,391.4903,364.7598,391.6198,365.68,392.2145,366.7926,392.816,367.9081,393.2269,368.9447,393.5217,369.9333,393.4428,369.7425,392.4124,370.2115,391.4276,370.7905,390.4634,371.4195,389.294,371.5523,388.2942,372.0951,388.2979,372.2436,390.2638,372.062,392.2364,372.1535,394.2005,371.8989,396.1754,372.0793,398.14,371.8492" style="stroke: #A80036; stroke-width: 1.0;"/><path d="M221.24,281.9792 L221.1705,281.5189 L231.3074,282.5425 L241.7884,285.8441 L251.7823,285.9204 L262.075,287.9756 L272.3582,289.9674 L282.4096,290.4245 L292.884,293.683 L302.9781,294.4227 L313.126,295.5188 L323.526,298.2844 L333.6809,299.4269 L343.6936,299.6276 L354.054,302.1308 L364.3628,304.2926 L374.47,305.1192 " fill="none" style="stroke: #A80036; stroke-width: 1.0;"/><polygon fill="#A80036" points="379.44,305.8692,379.3645,305.7508,377.7355,304.7425,376.0716,303.6795,374.3457,302.5192,372.7958,301.6352,371.1344,300.5761,371.2142,300.635,371.6525,301.3722,372.4908,302.4049,373.25,303.3792,373.9115,304.2812,374.4955,305.1261,374.5796,305.2399,373.6621,305.902,372.6583,306.4473,371.8371,307.2397,370.9558,307.9508,369.9455,308.4872,369.9976,308.6762,371.7965,307.7898,373.6882,307.2401,375.6903,307.091,377.5288,306.3482,379.44,305.8692" style="stroke: #A80036; stroke-width: 1.0;"/><path d="M221.24,275.3292 L221.1137,274.515 L231.0454,272.8063 L241.1073,271.9378 L251.0509,270.3059 L261.1796,269.8677 L271.0492,267.7592 L281.0978,266.8045 L291.0287,265.0914 L300.9369,263.2314 L310.9103,261.7916 L320.8982,260.4459 L330.7871,258.4613 L340.6596,256.3718 L350.7912,255.9522 L360.64,253.7092 " fill="none" style="stroke: #A80036; stroke-width: 1.0;"/><polygon fill="#A80036" points="365.7,252.9192,365.6465,252.721,363.8383,252.5553,361.8541,251.7368,359.9441,251.1937,358.1076,250.9232,356.1908,250.3549,356.2005,250.3682,357.1537,251.0892,357.8819,251.502,359.0278,252.4871,359.7586,252.9034,360.7598,253.6902,360.6437,253.6055,359.9066,254.4681,359.6196,255.6594,358.8228,256.4785,357.9176,257.2184,357.4245,258.2592,357.3982,258.2185,359.1453,257.293,360.6252,255.9536,362.2963,254.9103,364.1332,254.124,365.7,252.9192" style="stroke: #A80036; stroke-width: 1.0;"/></g></svg>