<?xml version="1.0" encoding="UTF-8" standalone="no"?><svg xmlns="http://www.w3.org/2000/svg" xmlns:xlink="http://www.w3.org/1999/xlink" contentScriptType="application/ecmascript" contentStyleType="text/css" height="677px" preserveAspectRatio="none" style="width:983px;height:677px;" version="1.1" viewBox="0 0 983 677" width="983px" zoomAndPan="magnify"><defs><filter height="300%" id="fcjrkc8" width="300%" x="-1" y="-1"><feGaussianBlur result="blurOut" stdDeviation="2.0"/><feColorMatrix in="blurOut" result="blurOut2" type="matrix" values="0 0 0 0 0 0 0 0 0 0 0 0 0 0 0 0 0 0 .4 0"/><feOffset dx="4.0" dy="4.0" in="blurOut2" result="blurOut3"/><feBlend in="SourceGraphic" in2="blurOut3" mode="normal"/></filter></defs><g><text fill="#000000" font-family="sans-serif" font-size="18" lengthAdjust="spacingAndGlyphs" textLength="198" x="397" y="17.4023">コンテンツフォルダ管理</text><!--class BcAdminContentsComponent--><polygon fill="#FEFECE" filter="url(#fcjrkc8)" points="77,29.1992,77,29.0833,87.1176,28.6208,97.2353,29.7141,107.3529,29.2038,117.4706,29.0062,127.5882,28.8141,137.7059,29.1039,147.8235,28.7768,157.9412,29.2883,168.0588,28.7631,178.1765,28.4853,188.2941,29.0675,198.4118,29.9077,208.5294,28.6141,218.6471,29.4731,228.7647,29.1535,238.8824,29.0793,249,29.1992,249.5787,29.1992,248.9827,39.4688,248.2899,49.7383,248.708,60.0078,248.2906,70.2773,248.7601,80.5469,249.4598,90.8164,249.411,101.0859,248.3996,111.3555,249.7226,121.625,248.6657,131.8945,248.878,142.1641,249.4943,152.4336,249.4311,162.7031,249,172.9727,249,172.7875,238.8824,172.6976,228.7647,172.6275,218.6471,173.0057,208.5294,172.6214,198.4118,173.186,188.2941,173.6783,178.1765,172.6737,168.0588,173.5372,157.9412,172.809,147.8235,172.2786,137.7059,172.6924,127.5882,173.6022,117.4706,173.5687,107.3529,173.0539,97.2353,173.0801,87.1176,172.2592,77,172.9727,77.4766,172.9727,77.7449,162.7031,77.7089,152.4336,77.3778,142.1641,76.3621,131.8945,76.3022,121.625,76.7661,111.3555,76.8902,101.0859,77.6632,90.8164,76.961,80.5469,77.552,70.2773,77.7396,60.0078,77.6925,49.7383,76.2943,39.4688,77,29.1992" style="stroke: #A80036; stroke-width: 1.5;"/><text fill="#000000" font-family="sans-serif" font-size="12" lengthAdjust="spacingAndGlyphs" textLength="166" x="80" y="45.8008">BcAdminContentsComponent</text><path d="M78,53.332 L78,53.0048 L88,53.2863 L98,53.8297 L108,52.6843 L118,52.5431 L128,52.5413 L138,54.2294 L148,53.2251 L158,53.0695 L168,53.6779 L178,53.6417 L188,52.8997 L198,53.2569 L208,53.2004 L218,53.324 L228,54.0834 L238,53.056 L248,53.332 " fill="#FEFECE" style="stroke: #A80036; stroke-width: 1.5;"/><path d="M78,61.332 L78,61.3095 L88,60.9979 L98,60.962 L108,60.9468 L118,61.386 L128,60.5131 L138,62.2168 L148,61.5866 L158,61.7142 L168,61.6762 L178,61.9944 L188,60.9339 L198,61.0394 L208,60.6801 L218,60.4774 L228,61.5593 L238,61.7955 L248,61.332 " fill="#FEFECE" style="stroke: #A80036; stroke-width: 1.5;"/><text fill="#000000" font-family="sans-serif" font-size="11" lengthAdjust="spacingAndGlyphs" textLength="82" x="83" y="75.9668">+setupAdmin()</text><text fill="#000000" font-family="sans-serif" font-size="11" lengthAdjust="spacingAndGlyphs" textLength="76" x="83" y="88.9219">+setupFront()</text><text fill="#000000" font-family="sans-serif" font-size="11" lengthAdjust="spacingAndGlyphs" textLength="82" x="83" y="101.877">+settingForm()</text><text fill="#000000" font-family="sans-serif" font-size="11" lengthAdjust="spacingAndGlyphs" textLength="153" x="83" y="114.832">+getParentLayoutTemplate()</text><text fill="#000000" font-family="sans-serif" font-size="11" lengthAdjust="spacingAndGlyphs" textLength="66" x="83" y="127.7871">+getTypes()</text><text fill="#000000" font-family="sans-serif" font-size="11" lengthAdjust="spacingAndGlyphs" textLength="77" x="83" y="140.7422">+getContent()</text><text fill="#000000" font-family="sans-serif" font-size="11" lengthAdjust="spacingAndGlyphs" textLength="77" x="83" y="153.6973">+getCrumbs()</text><text fill="#000000" font-family="sans-serif" font-size="11" lengthAdjust="spacingAndGlyphs" textLength="90" x="83" y="166.6523">+beforeRender()</text><!--class Admin\ContentFoldersController--><polygon fill="#FEFECE" filter="url(#fcjrkc8)" points="284.5,42.1992,284.5,42.5447,294.5526,42.6669,304.6053,42.0789,314.6579,42.1485,324.7105,41.8569,334.7632,42.7541,344.8158,41.4967,354.8684,42.3599,364.9211,41.8775,374.9737,41.8539,385.0263,42.3449,395.0789,42.7157,405.1316,41.9054,415.1842,41.5261,425.2368,41.4816,435.2895,41.9284,445.3421,41.9583,455.3947,42.1004,465.4474,41.483,475.5,42.1992,476.1653,42.1992,475.9643,52.0212,475.7158,61.8431,475.9247,71.665,475.9909,81.487,475.7703,91.3089,475.608,101.1309,476.091,110.9528,475.0605,120.7747,475.5913,130.5967,476.0844,140.4186,476.0034,150.2406,475.5,160.0625,475.5,159.4942,465.4474,159.852,455.3947,159.7262,445.3421,159.561,435.2895,159.3908,425.2368,160.5193,415.1842,159.3991,405.1316,160.5516,395.0789,160.5308,385.0263,160.3478,374.9737,160.4957,364.9211,160.1874,354.8684,159.4551,344.8158,159.4679,334.7632,159.4846,324.7105,160.1426,314.6579,159.8671,304.6053,159.4869,294.5526,160.3536,284.5,160.0625,283.8268,160.0625,283.934,150.2406,284.5227,140.4186,285.1759,130.5967,284.6894,120.7747,285.0912,110.9528,283.8509,101.1309,283.8101,91.3089,283.9359,81.487,283.8644,71.665,284.6226,61.8431,284.6654,52.0212,284.5,42.1992" style="stroke: #A80036; stroke-width: 1.5;"/><text fill="#000000" font-family="sans-serif" font-size="12" lengthAdjust="spacingAndGlyphs" textLength="185" x="287.5" y="58.8008">Admin\ContentFoldersController</text><path d="M285.5,66.332 L285.5,67.1787 L295.4474,65.4584 L305.3947,66.6243 L315.3421,66.7882 L325.2895,65.6596 L335.2368,65.445 L345.1842,66.0695 L355.1316,66.7923 L365.0789,66.8783 L375.0263,66.6054 L384.9737,66.8516 L394.9211,66.8024 L404.8684,66.2523 L414.8158,65.5575 L424.7632,66.3852 L434.7105,65.5895 L444.6579,66.3754 L454.6053,66.648 L464.5526,65.4244 L474.5,66.332 " fill="#FEFECE" style="stroke: #A80036; stroke-width: 1.5;"/><text fill="#000000" font-family="sans-serif" font-size="11" lengthAdjust="spacingAndGlyphs" textLength="151" x="290.5" y="80.9668">+AuthenticationComponent</text><text fill="#000000" font-family="sans-serif" font-size="11" lengthAdjust="spacingAndGlyphs" textLength="130" x="290.5" y="93.9219">+BcMessageComponent</text><text fill="#000000" font-family="sans-serif" font-size="11" lengthAdjust="spacingAndGlyphs" textLength="168" x="290.5" y="106.877">+BcAdminContentsComponent</text><path d="M285.5,113.1973 L285.5,113.1915 L295.4474,112.8982 L305.3947,112.8526 L315.3421,112.4159 L325.2895,112.6976 L335.2368,114.0102 L345.1842,112.6726 L355.1316,113.6063 L365.0789,113.2468 L375.0263,112.4738 L384.9737,113.116 L394.9211,113.4572 L404.8684,114.0179 L414.8158,113.0045 L424.7632,113.3103 L434.7105,112.363 L444.6579,112.3567 L454.6053,112.8971 L464.5526,112.502 L474.5,113.1973 " fill="#FEFECE" style="stroke: #A80036; stroke-width: 1.5;"/><text fill="#000000" font-family="sans-serif" font-size="11" lengthAdjust="spacingAndGlyphs" textLength="37" x="290.5" y="127.832">+edit()</text><text fill="#000000" font-family="sans-serif" font-size="11" lengthAdjust="spacingAndGlyphs" textLength="49" x="290.5" y="140.7871">+delete()</text><text fill="#000000" font-family="sans-serif" font-size="11" lengthAdjust="spacingAndGlyphs" textLength="136" x="290.5" y="153.7422">※ add() は、APIを利用する</text><!--class ContentFoldersController--><polygon fill="#FEFECE" filter="url(#fcjrkc8)" points="511,61.6992,511,61.8224,521.2353,61.7659,531.4706,61.6501,541.7059,61.662,551.9412,61.8937,562.1765,61.6719,572.4118,61.8839,582.6471,61.6684,592.8824,61.564,603.1176,62.3085,613.3529,61.4422,623.5882,62.2788,633.8235,61.7948,644.0588,61.5091,654.2941,61.3556,664.5294,61.4385,674.7647,61.9313,685,61.6992,685.6235,61.6992,685.409,71.574,685.2948,81.4487,684.8039,91.3235,684.2715,101.1982,684.72,111.073,685.5685,120.9478,685.3931,130.8225,685,140.6973,685,140.1092,674.7647,140.038,664.5294,140.0581,654.2941,141.4027,644.0588,140.5977,633.8235,140.727,623.5882,140.2921,613.3529,141.1101,603.1176,141.2665,592.8824,141.3202,582.6471,140.4719,572.4118,140.2328,562.1765,139.9592,551.9412,141.0815,541.7059,141.2347,531.4706,141.2966,521.2353,140.6706,511,140.6973,510.6108,140.6973,511.314,130.8225,511.5301,120.9478,511.4437,111.073,511.2661,101.1982,511.0038,91.3235,511.2498,81.4487,510.9473,71.574,511,61.6992" style="stroke: #A80036; stroke-width: 1.5;"/><text fill="#000000" font-family="sans-serif" font-size="12" lengthAdjust="spacingAndGlyphs" textLength="142" x="527" y="78.3008">ContentFoldersController</text><path d="M512,85.832 L512,86.8055 L522.1176,85.9495 L532.2353,86.0933 L542.3529,86.2295 L552.4706,85.9547 L562.5882,86.1963 L572.7059,85.187 L582.8235,84.8532 L592.9412,85.505 L603.0588,85.2439 L613.1765,85.8106 L623.2941,85.3814 L633.4118,86.4813 L643.5294,86.5984 L653.6471,86.1486 L663.7647,85.5707 L673.8824,85.0822 L684,85.832 " fill="#FEFECE" style="stroke: #A80036; stroke-width: 1.5;"/><text fill="#000000" font-family="sans-serif" font-size="11" lengthAdjust="spacingAndGlyphs" textLength="162" x="517" y="100.4668">+BcFrontContentsComponent</text><path d="M512,106.7871 L512,106.2686 L522.1176,106.4842 L532.2353,107.3417 L542.3529,106.8157 L552.4706,106.1225 L562.5882,106.3985 L572.7059,106.4583 L582.8235,106.1154 L592.9412,107.2909 L603.0588,106.3835 L613.1765,107.28 L623.2941,107.424 L633.4118,107.2271 L643.5294,106.0962 L653.6471,106.7263 L663.7647,107.5615 L673.8824,106.3217 L684,106.7871 " fill="#FEFECE" style="stroke: #A80036; stroke-width: 1.5;"/><text fill="#000000" font-family="sans-serif" font-size="11" lengthAdjust="spacingAndGlyphs" textLength="61" x="517" y="121.4219">+initialize()</text><text fill="#000000" font-family="sans-serif" font-size="11" lengthAdjust="spacingAndGlyphs" textLength="40" x="517" y="134.377">+view()</text><!--class BcFrontContentsComponent--><polygon fill="#FEFECE" filter="url(#fcjrkc8)" points="720.5,68.1992,720.5,68.177,730.62,67.783,740.74,68.0318,750.86,68.3345,760.98,68.1208,771.1,68.2164,781.22,68.1756,791.34,67.5311,801.46,68.2357,811.58,68.0648,821.7,67.4728,831.82,68.4209,841.94,68.5572,852.06,67.7313,862.18,68.1159,872.3,67.701,882.42,67.5053,892.54,67.9983,902.66,68.8841,912.78,68.2094,922.9,68.5088,933.02,67.9903,943.14,67.7089,953.26,68.0172,963.38,68.4655,973.5,68.1992,972.7965,68.1992,974.1706,77.6339,974.1498,87.0686,973.3725,96.5033,973.0717,105.9381,972.905,115.3728,974.0647,124.8075,973.5,134.2422,973.5,134.6067,963.38,134.5238,953.26,134.5452,943.14,134.9898,933.02,134.2366,922.9,134.8967,912.78,134.1937,902.66,134.0571,892.54,133.8475,882.42,134.484,872.3,134.1521,862.18,134.9742,852.06,134.223,841.94,133.6173,831.82,134.4672,821.7,133.5243,811.58,134.9586,801.46,134.753,791.34,134.5846,781.22,134.7367,771.1,133.9462,760.98,134.3757,750.86,134.6689,740.74,133.8104,730.62,133.6658,720.5,134.2422,720.2672,134.2422,720.7856,124.8075,720.5756,115.3728,720.6094,105.9381,719.9098,96.5033,719.7785,87.0686,720.1366,77.6339,720.5,68.1992" style="stroke: #A80036; stroke-width: 1.5;"/><text fill="#000000" font-family="sans-serif" font-size="12" lengthAdjust="spacingAndGlyphs" textLength="158" x="768" y="84.8008">BcFrontContentsComponent</text><path d="M721.5,92.332 L721.5,91.6581 L731.54,92.146 L741.58,92.069 L751.62,91.3843 L761.66,91.9873 L771.7,91.6124 L781.74,92.5585 L791.78,92.2864 L801.82,92.1093 L811.86,91.934 L821.9,92.9015 L831.94,91.4002 L841.98,91.8436 L852.02,91.6547 L862.06,92.9046 L872.1,91.618 L882.14,91.7078 L892.18,93.1027 L902.22,93.3197 L912.26,92.0732 L922.3,92.3772 L932.34,92.6532 L942.38,93.3012 L952.42,92.1344 L962.46,92.8921 L972.5,92.332 " fill="#FEFECE" style="stroke: #A80036; stroke-width: 1.5;"/><path d="M721.5,100.332 L721.5,99.5079 L731.54,99.6719 L741.58,100.4233 L751.62,101.0795 L761.66,101.0004 L771.7,101.3049 L781.74,99.4436 L791.78,100.0103 L801.82,100.1448 L811.86,100.374 L821.9,99.9644 L831.94,100.3466 L841.98,100.0398 L852.02,99.3552 L862.06,101.0393 L872.1,100.1611 L882.14,99.8272 L892.18,100.4787 L902.22,99.471 L912.26,101.2201 L922.3,100.172 L932.34,100.8403 L942.38,100.6461 L952.42,99.8241 L962.46,100.6942 L972.5,100.332 " fill="#FEFECE" style="stroke: #A80036; stroke-width: 1.5;"/><text fill="#000000" font-family="sans-serif" font-size="11" lengthAdjust="spacingAndGlyphs" textLength="105" x="726.5" y="114.9668">+初期化：initialize()</text><text fill="#000000" font-family="sans-serif" font-size="11" lengthAdjust="spacingAndGlyphs" textLength="241" x="726.5" y="127.9219">+フロントエンドのセットアップ：setupFront()</text><!--class BcAdminContentFolderHelper--><polygon fill="#FEFECE" filter="url(#fcjrkc8)" points="590.5,239.6992,590.5,239.1283,600.2222,240.177,609.9444,240.2635,619.6667,239.0186,629.3889,238.9583,639.1111,239.9089,648.8333,239.4428,658.5556,240.3454,668.2778,240.2569,678,239.431,687.7222,240.0373,697.4444,239.3638,707.1667,239.3842,716.8889,239.5414,726.6111,239.4526,736.3333,239.9666,746.0556,239.8745,755.7778,239.8266,765.5,239.6992,765.3362,239.6992,765.9214,249.574,765.7531,259.4487,765.6332,269.3235,765.1195,279.1982,764.7543,289.073,765.3646,298.9478,765.9025,308.8225,765.5,318.6973,765.5,318.5718,755.7778,317.9983,746.0556,318.9224,736.3333,318.7744,726.6111,318.3964,716.8889,318.7462,707.1667,318.1052,697.4444,318.3105,687.7222,318.7865,678,317.9755,668.2778,319.228,658.5556,319.3504,648.8333,318.1136,639.1111,318.1416,629.3889,318.3473,619.6667,318.4271,609.9444,318.6831,600.2222,318.1901,590.5,318.6973,591.0405,318.6973,590.2514,308.8225,589.8595,298.9478,590.0263,289.073,590.1177,279.1982,591.1329,269.3235,589.9052,259.4487,591.166,249.574,590.5,239.6992" style="stroke: #A80036; stroke-width: 1.5;"/><text fill="#000000" font-family="sans-serif" font-size="12" lengthAdjust="spacingAndGlyphs" textLength="169" x="593.5" y="256.3008">BcAdminContentFolderHelper</text><path d="M591.5,263.832 L591.5,263.6471 L601.6765,263.821 L611.8529,264.6034 L622.0294,263.5192 L632.2059,264.7797 L642.3824,263.1976 L652.5588,264.1698 L662.7353,263.6092 L672.9118,264.5415 L683.0882,263.8497 L693.2647,264.4838 L703.4412,263.3255 L713.6176,264.3698 L723.7941,264.361 L733.9706,264.451 L744.1471,263.5822 L754.3235,263.9947 L764.5,263.832 " fill="#FEFECE" style="stroke: #A80036; stroke-width: 1.5;"/><path d="M591.5,271.832 L591.5,271.0877 L601.6765,271.0549 L611.8529,272.0152 L622.0294,271.192 L632.2059,271.6067 L642.3824,270.8884 L652.5588,271.7889 L662.7353,272.3081 L672.9118,270.9826 L683.0882,271.7602 L693.2647,272.0483 L703.4412,272.2009 L713.6176,272.5119 L723.7941,271.3717 L733.9706,272.3957 L744.1471,271.8698 L754.3235,270.8426 L764.5,271.832 " fill="#FEFECE" style="stroke: #A80036; stroke-width: 1.5;"/><text fill="#000000" font-family="sans-serif" font-size="11" lengthAdjust="spacingAndGlyphs" textLength="136" x="596.5" y="286.4668">+getFolderTemplateList()</text><text fill="#000000" font-family="sans-serif" font-size="11" lengthAdjust="spacingAndGlyphs" textLength="127" x="596.5" y="299.4219">+getPageTemplateList()</text><text fill="#000000" font-family="sans-serif" font-size="11" lengthAdjust="spacingAndGlyphs" textLength="95" x="596.5" y="312.377">+getPublishLink()</text><!--class ContentFolderService--><polygon fill="#FEFECE" filter="url(#fcjrkc8)" points="422.5,252.6992,422.5,253.04,432.7308,253.0916,442.9615,253.0992,453.1923,252.6692,463.4231,253.0692,473.6538,253.2448,483.8846,253.2574,494.1154,252.6806,504.3462,252.1656,514.5769,252.3393,524.8077,252.9646,535.0385,253.431,545.2692,251.9616,555.5,252.6992,556.1109,252.6992,555.2261,263.3168,554.986,273.9344,555.7289,284.552,555.7862,295.1695,555.5,305.7871,555.5,306.4053,545.2692,306.3636,535.0385,306.5161,524.8077,305.9849,514.5769,305.4684,504.3462,306.4114,494.1154,305.4858,483.8846,306.3257,473.6538,305.3528,463.4231,305.149,453.1923,305.7769,442.9615,305.7805,432.7308,305.282,422.5,305.7871,422.983,305.7871,422.6981,295.1695,422.7313,284.552,422.6579,273.9344,422.3948,263.3168,422.5,252.6992" style="stroke: #A80036; stroke-width: 1.5;"/><text fill="#000000" font-family="sans-serif" font-size="12" lengthAdjust="spacingAndGlyphs" textLength="120" x="429" y="269.3008">ContentFolderService</text><path d="M423.5,276.832 L423.5,276.6528 L433.5769,276.5689 L443.6538,277.6683 L453.7308,275.9378 L463.8077,277.1827 L473.8846,276.8664 L483.9615,277.489 L494.0385,276.1692 L504.1154,276.907 L514.1923,277.0817 L524.2692,275.9161 L534.3462,275.9991 L544.4231,277.5131 L554.5,276.832 " fill="#FEFECE" style="stroke: #A80036; stroke-width: 1.5;"/><text fill="#000000" font-family="sans-serif" font-size="11" lengthAdjust="spacingAndGlyphs" textLength="121" x="428.5" y="291.4668">+ContentFoldersTable</text><path d="M423.5,297.7871 L423.5,298.4534 L433.5769,297.0036 L443.6538,297.885 L453.7308,298.4712 L463.8077,297.4978 L473.8846,297.1091 L483.9615,298.7055 L494.0385,298.5513 L504.1154,297.4352 L514.1923,297.0944 L524.2692,297.0552 L534.3462,297.957 L544.4231,297.0788 L554.5,297.7871 " fill="#FEFECE" style="stroke: #A80036; stroke-width: 1.5;"/><!--class ContentFolderServiceInterface--><polygon fill="#FEFECE" filter="url(#fcjrkc8)" points="211,233.1992,211,233.2323,220.7778,232.9069,230.5556,233.5757,240.3333,232.8465,250.1111,233.7516,259.8889,233.412,269.6667,233.2796,279.4444,233.3864,289.2222,232.8388,299,233.1358,308.7778,233.8781,318.5556,232.5969,328.3333,232.5799,338.1111,232.662,347.8889,233.0241,357.6667,233.5384,367.4444,232.619,377.2222,233.73,387,233.1992,387.3958,233.1992,387.4081,243.4162,386.8183,253.6332,386.4137,263.8503,387.2955,274.0673,386.8027,284.2843,386.2684,294.5013,387.0989,304.7183,386.8741,314.9353,387,325.1523,387,325.7091,377.2222,325.4623,367.4444,325.301,357.6667,325.2187,347.8889,325.9012,338.1111,325.4507,328.3333,325.3303,318.5556,324.5488,308.7778,324.9624,299,325.138,289.2222,325.2316,279.4444,324.9566,269.6667,324.7058,259.8889,324.8575,250.1111,325.1132,240.3333,324.9764,230.5556,325.2991,220.7778,324.9484,211,325.1523,211.7446,325.1523,210.9854,314.9353,210.73,304.7183,211.0646,294.5013,211.4829,284.2843,210.9129,274.0673,211.2607,263.8503,211.2544,253.6332,211.2172,243.4162,211,233.1992" style="stroke: #A80036; stroke-width: 1.5;"/><text fill="#000000" font-family="sans-serif" font-size="12" lengthAdjust="spacingAndGlyphs" textLength="170" x="214" y="249.8008">ContentFolderServiceInterface</text><path d="M212,257.332 L212,257.964 L222.2353,257.9053 L232.4706,258.2532 L242.7059,257.4597 L252.9412,256.6104 L263.1765,257.5368 L273.4118,257.2962 L283.6471,256.6777 L293.8824,256.9071 L304.1176,257.5817 L314.3529,257.074 L324.5882,257.5785 L334.8235,258.0753 L345.0588,257.8046 L355.2941,257.7483 L365.5294,256.6598 L375.7647,256.8683 L386,257.332 " fill="#FEFECE" style="stroke: #A80036; stroke-width: 1.5;"/><path d="M212,265.332 L212,264.936 L222.2353,265.2013 L232.4706,266.2789 L242.7059,265.8454 L252.9412,264.8342 L263.1765,265.4327 L273.4118,265.331 L283.6471,266.0647 L293.8824,266.1273 L304.1176,264.3807 L314.3529,264.3651 L324.5882,265.3782 L334.8235,266.198 L345.0588,265.0946 L355.2941,265.7325 L365.5294,266.1732 L375.7647,264.8921 L386,265.332 " fill="#FEFECE" style="stroke: #A80036; stroke-width: 1.5;"/><text fill="#000000" font-family="sans-serif" font-size="11" lengthAdjust="spacingAndGlyphs" textLength="96" x="217" y="279.9668">+isOverPostSize()</text><text fill="#000000" font-family="sans-serif" font-size="11" lengthAdjust="spacingAndGlyphs" textLength="136" x="217" y="292.9219">+getFolderTemplateList()</text><text fill="#000000" font-family="sans-serif" font-size="11" lengthAdjust="spacingAndGlyphs" textLength="127" x="217" y="305.877">+getPageTemplateList()</text><text fill="#000000" font-family="sans-serif" font-size="11" lengthAdjust="spacingAndGlyphs" textLength="95" x="217" y="318.832">+getPublishLink()</text><!--class ContentFoldersTable--><polygon fill="#FEFECE" filter="url(#fcjrkc8)" points="415,391.6992,415,392.156,424.8667,391.2521,434.7333,391.2646,444.6,391.4842,454.4667,392.1795,464.3333,391.6698,474.2,391.1408,484.0667,392.0611,493.9333,391.2351,503.8,391.7294,513.6667,391.7473,523.5333,391.3656,533.4,391.7809,543.2667,391.7412,553.1333,391.7642,563,391.6992,562.6856,391.6992,563.1592,402.19,562.6386,412.6809,563.0153,423.1717,563.4701,433.6625,562.5494,444.1533,562.6575,454.6441,562.9055,465.135,563.0812,475.6258,563.3098,486.1166,563,496.6074,563,496.097,553.1333,496.9569,543.2667,496.9643,533.4,496.218,523.5333,496.0768,513.6667,496.2039,503.8,497.3316,493.9333,497.3361,484.0667,497.1431,474.2,496.3744,464.3333,497.3012,454.4667,497.1268,444.6,496.7856,434.7333,495.8634,424.8667,497.0768,415,496.6074,415.6543,496.6074,414.6166,486.1166,415.1809,475.6258,414.2934,465.135,414.4063,454.6441,415.7307,444.1533,415.4341,433.6625,415.7263,423.1717,415.2658,412.6809,414.4687,402.19,415,391.6992" style="stroke: #A80036; stroke-width: 1.5;"/><text fill="#000000" font-family="sans-serif" font-size="12" lengthAdjust="spacingAndGlyphs" textLength="119" x="429.5" y="408.3008">ContentFoldersTable</text><path d="M416,415.832 L416,416.3011 L425.7333,415.2073 L435.4667,416.7537 L445.2,416.255 L454.9333,416.1319 L464.6667,416.7523 L474.4,416.2772 L484.1333,415.7033 L493.8667,414.9772 L503.6,415.6044 L513.3333,416.6697 L523.0667,416.4174 L532.8,415.3476 L542.5333,415.1368 L552.2667,415.4387 L562,415.832 " fill="#FEFECE" style="stroke: #A80036; stroke-width: 1.5;"/><path d="M416,423.832 L416,423.8125 L425.7333,423.2316 L435.4667,423.3148 L445.2,423.389 L454.9333,423.7457 L464.6667,423.7545 L474.4,423.6265 L484.1333,423.6603 L493.8667,424.0499 L503.6,423.5014 L513.3333,424.4721 L523.0667,423.7699 L532.8,423.151 L542.5333,422.9693 L552.2667,424.1999 L562,423.832 " fill="#FEFECE" style="stroke: #A80036; stroke-width: 1.5;"/><text fill="#000000" font-family="sans-serif" font-size="11" lengthAdjust="spacingAndGlyphs" textLength="117" x="421" y="438.4668">+getParentTemplate()</text><text fill="#000000" font-family="sans-serif" font-size="11" lengthAdjust="spacingAndGlyphs" textLength="136" x="421" y="451.4219">+getFolderTemplateList()</text><text fill="#000000" font-family="sans-serif" font-size="11" lengthAdjust="spacingAndGlyphs" textLength="85" x="421" y="464.377">+saveSiteRoot()</text><text fill="#000000" font-family="sans-serif" font-size="11" lengthAdjust="spacingAndGlyphs" textLength="126" x="421" y="477.332">+movePageTemplates()</text><text fill="#000000" font-family="sans-serif" font-size="11" lengthAdjust="spacingAndGlyphs" textLength="105" x="421" y="490.2871">+setBeforeRecord()</text><!--class SearchIndiceTable--><polygon fill="#FEFECE" filter="url(#fcjrkc8)" points="598.5,417.6992,598.5,417.7025,608.5909,418.1368,618.6818,418.3553,628.7727,418.1521,638.8636,418.0903,648.9545,417.9548,659.0455,418.1936,669.1364,417.0746,679.2273,417.6468,689.3182,416.9628,699.4091,418.0993,709.5,417.6992,709.2748,417.6992,709.3564,428.3168,709.8761,438.9344,709.2659,449.552,709.6179,460.1695,709.5,470.7871,709.5,470.6024,699.4091,471.3148,689.3182,470.8039,679.2273,471.1775,669.1364,471.5152,659.0455,471.0644,648.9545,470.6063,638.8636,470.3981,628.7727,470.2019,618.6818,470.3333,608.5909,471.3135,598.5,470.7871,598.8289,470.7871,598.5636,460.1695,598.7657,449.552,598.992,438.9344,599.1876,428.3168,598.5,417.6992" style="stroke: #A80036; stroke-width: 1.5;"/><text fill="#000000" font-family="sans-serif" font-size="12" lengthAdjust="spacingAndGlyphs" textLength="105" x="601.5" y="434.3008">SearchIndiceTable</text><path d="M599.5,441.832 L599.5,442.3715 L609.4091,441.39 L619.3182,441.939 L629.2273,442.3077 L639.1364,442.3052 L649.0455,442.5868 L658.9545,441.3949 L668.8636,442.155 L678.7727,442.057 L688.6818,441.4194 L698.5909,442.7559 L708.5,441.832 " fill="#FEFECE" style="stroke: #A80036; stroke-width: 1.5;"/><path d="M599.5,449.832 L599.5,449.0143 L609.4091,449.0724 L619.3182,449.922 L629.2273,450.7462 L639.1364,450.3176 L649.0455,450.554 L658.9545,449.709 L668.8636,450.7882 L678.7727,449.5015 L688.6818,449.4191 L698.5909,450.0607 L708.5,449.832 " fill="#FEFECE" style="stroke: #A80036; stroke-width: 1.5;"/><text fill="#000000" font-family="sans-serif" font-size="11" lengthAdjust="spacingAndGlyphs" textLength="80" x="604.5" y="464.4668">+reconstruct()</text><!--class ContentFolder--><polygon fill="#FEFECE" filter="url(#fcjrkc8)" points="209.5,563.1992,209.5,563.1291,219.0455,562.6381,228.5909,563.333,238.1364,562.462,247.6818,563.0465,257.2273,562.7851,266.7727,563.1922,276.3182,563.4586,285.8636,563.2983,295.4091,562.7175,304.9545,563.3363,314.5,563.1992,315.1677,563.1992,314.0581,573.69,314.6624,584.1809,315.128,594.6717,313.9211,605.1625,313.97,615.6533,314.382,626.1441,315.1088,636.635,315.2067,647.1258,314.0129,657.6166,314.5,668.1074,314.5,668.2988,304.9545,668.5514,295.4091,668.8213,285.8636,668.4541,276.3182,668.4481,266.7727,667.9709,257.2273,667.6558,247.6818,668.7059,238.1364,667.7803,228.5909,667.4251,219.0455,668.4495,209.5,668.1074,209.3823,668.1074,209.4526,657.6166,209.7245,647.1258,210.0231,636.635,208.8714,626.1441,209.0512,615.6533,208.7811,605.1625,208.7771,594.6717,209.1252,584.1809,209.9546,573.69,209.5,563.1992" style="stroke: #A80036; stroke-width: 1.5;"/><text fill="#000000" font-family="sans-serif" font-size="12" lengthAdjust="spacingAndGlyphs" textLength="80" x="222" y="579.8008">ContentFolder</text><path d="M210.5,587.332 L210.5,588.0131 L220.8,587.2598 L231.1,587.7604 L241.4,586.7025 L251.7,587.658 L262,586.6107 L272.3,586.3451 L282.6,586.438 L292.9,587.6817 L303.2,587.8503 L313.5,587.332 " fill="#FEFECE" style="stroke: #A80036; stroke-width: 1.5;"/><text fill="#000000" font-family="sans-serif" font-size="11" lengthAdjust="spacingAndGlyphs" textLength="19" x="215.5" y="601.9668">+id</text><text fill="#000000" font-family="sans-serif" font-size="11" lengthAdjust="spacingAndGlyphs" textLength="93" x="215.5" y="614.9219">+folder_template</text><text fill="#000000" font-family="sans-serif" font-size="11" lengthAdjust="spacingAndGlyphs" textLength="87" x="215.5" y="627.877">+page_template</text><text fill="#000000" font-family="sans-serif" font-size="11" lengthAdjust="spacingAndGlyphs" textLength="49" x="215.5" y="640.832">+created</text><text fill="#000000" font-family="sans-serif" font-size="11" lengthAdjust="spacingAndGlyphs" textLength="56" x="215.5" y="653.7871">+modified</text><path d="M210.5,660.1074 L210.5,660.0912 L220.8,660.803 L231.1,659.2813 L241.4,660.572 L251.7,659.6245 L262,660.8547 L272.3,659.8807 L282.6,661.0868 L292.9,660.223 L303.2,659.9542 L313.5,660.1074 " fill="#FEFECE" style="stroke: #A80036; stroke-width: 1.5;"/><!--class BcContentsBehavior--><polygon fill="#FEFECE" filter="url(#fcjrkc8)" points="262,391.6992,262,391.5575,271.8333,392.4187,281.6667,391.0191,291.5,391.9436,301.3333,391.2827,311.1667,391.6641,321,391.6277,330.8333,391.8139,340.6667,391.4426,350.5,391.4131,360.3333,391.6741,370.1667,391.5637,380,391.6992,379.6121,391.6992,380.2644,402.19,380.5404,412.6809,380.417,423.1717,380.5007,433.6625,379.7961,444.1533,379.6055,454.6441,380.6456,465.135,379.4215,475.6258,380.6453,486.1166,380,496.6074,380,496.6283,370.1667,496.7221,360.3333,497.2746,350.5,496.9871,340.6667,496.8057,330.8333,496.1477,321,496.3616,311.1667,497.0298,301.3333,496.396,291.5,497.1143,281.6667,496.4892,271.8333,497.1228,262,496.6074,262.5161,496.6074,261.5205,486.1166,261.2837,475.6258,261.9937,465.135,262.5066,454.6441,262.4168,444.1533,262.5892,433.6625,262.1592,423.1717,261.8817,412.6809,261.9733,402.19,262,391.6992" style="stroke: #A80036; stroke-width: 1.5;"/><text fill="#000000" font-family="sans-serif" font-size="12" lengthAdjust="spacingAndGlyphs" textLength="112" x="265" y="408.3008">BcContentsBehavior</text><path d="M263,415.832 L263,415.2471 L272.6667,415.1758 L282.3333,416.6201 L292,415.5536 L301.6667,416.3049 L311.3333,415.3841 L321,415.0582 L330.6667,415.9983 L340.3333,415.4532 L350,415.9926 L359.6667,414.9483 L369.3333,415.6126 L379,415.832 " fill="#FEFECE" style="stroke: #A80036; stroke-width: 1.5;"/><path d="M263,423.832 L263,424.3064 L272.6667,423.513 L282.3333,424.3066 L292,423.8845 L301.6667,423.2118 L311.3333,424.0631 L321,424.2606 L330.6667,423.5616 L340.3333,423.4856 L350,423.0614 L359.6667,423.9563 L369.3333,423.6606 L379,423.832 " fill="#FEFECE" style="stroke: #A80036; stroke-width: 1.5;"/><text fill="#000000" font-family="sans-serif" font-size="11" lengthAdjust="spacingAndGlyphs" textLength="61" x="268" y="438.4668">+initialize()</text><text fill="#000000" font-family="sans-serif" font-size="11" lengthAdjust="spacingAndGlyphs" textLength="84" x="268" y="451.4219">+afterMarshal()</text><text fill="#000000" font-family="sans-serif" font-size="11" lengthAdjust="spacingAndGlyphs" textLength="85" x="268" y="464.377">+beforeDelete()</text><text fill="#000000" font-family="sans-serif" font-size="11" lengthAdjust="spacingAndGlyphs" textLength="75" x="268" y="477.332">+afterDelete()</text><text fill="#000000" font-family="sans-serif" font-size="11" lengthAdjust="spacingAndGlyphs" textLength="90" x="268" y="490.2871">+findPublished()</text><!--class ContentsTable--><polygon fill="#FEFECE" filter="url(#fcjrkc8)" points="99,385.1992,99,385.8764,108.8462,385.9479,118.6923,385.0608,128.5385,385.8332,138.3846,385.8632,148.2308,385.827,158.0769,385.1079,167.9231,385.8643,177.7692,385.0961,187.6154,385.3785,197.4615,385.6444,207.3077,385.1258,217.1538,385.6486,227,385.1992,227.1722,385.1992,227.2452,395.0212,227.6272,404.8431,226.2768,414.665,227.2206,424.487,227.157,434.3089,226.5245,444.1309,226.4277,453.9528,226.2818,463.7747,226.6904,473.5967,226.923,483.4186,226.6018,493.2406,227,503.0625,227,502.7757,217.1538,503.3283,207.3077,503.5971,197.4615,503.2175,187.6154,502.9999,177.7692,502.929,167.9231,502.7294,158.0769,502.6844,148.2308,503.7548,138.3846,502.3146,128.5385,503.4517,118.6923,503.3799,108.8462,502.978,99,503.0625,99.0741,503.0625,98.9086,493.2406,98.583,483.4186,99.5231,473.5967,98.687,463.7747,99.3554,453.9528,98.2624,444.1309,98.6944,434.3089,98.6623,424.487,98.5369,414.665,98.5268,404.8431,99.2683,395.0212,99,385.1992" style="stroke: #A80036; stroke-width: 1.5;"/><text fill="#000000" font-family="sans-serif" font-size="12" lengthAdjust="spacingAndGlyphs" textLength="83" x="121.5" y="401.8008">ContentsTable</text><path d="M100,409.332 L100,409.3221 L109.6923,409.2939 L119.3846,409.6306 L129.0769,408.6516 L138.7692,409.6266 L148.4615,410.2008 L158.1538,409.9814 L167.8462,410.1536 L177.5385,408.9914 L187.2308,408.6947 L196.9231,409.903 L206.6154,409.7514 L216.3077,408.4172 L226,409.332 " fill="#FEFECE" style="stroke: #A80036; stroke-width: 1.5;"/><text fill="#000000" font-family="sans-serif" font-size="11" lengthAdjust="spacingAndGlyphs" textLength="96" x="105" y="423.9668">+updatingRelated</text><path d="M100,430.2871 L100,430.3882 L109.6923,430.0654 L119.3846,430.0553 L129.0769,430.6864 L138.7692,430.0046 L148.4615,430.1482 L158.1538,430.3944 L167.8462,430.4221 L177.5385,430.0328 L187.2308,430.478 L196.9231,430.6481 L206.6154,430.4923 L216.3077,430.1983 L226,430.2871 " fill="#FEFECE" style="stroke: #A80036; stroke-width: 1.5;"/><text fill="#000000" font-family="sans-serif" font-size="11" lengthAdjust="spacingAndGlyphs" textLength="116" x="105" y="444.9219">+updateChildrenUrl()</text><text fill="#000000" font-family="sans-serif" font-size="11" lengthAdjust="spacingAndGlyphs" textLength="57" x="105" y="457.877">+getPath()</text><text fill="#000000" font-family="sans-serif" font-size="11" lengthAdjust="spacingAndGlyphs" textLength="93" x="105" y="470.832">+createContent()</text><text fill="#000000" font-family="sans-serif" font-size="11" lengthAdjust="spacingAndGlyphs" textLength="71" x="105" y="483.7871">+softDelete()</text><text fill="#000000" font-family="sans-serif" font-size="11" lengthAdjust="spacingAndGlyphs" textLength="109" x="105" y="496.7422">+removeFromTree()</text><!--class Content--><polygon fill="#FEFECE" filter="url(#fcjrkc8)" points="6,417.6992,6,417.0784,15.6667,417.0808,25.3333,417.0193,35,418.0433,44.6667,417.2937,54.3333,417.4786,64,417.6992,64.5703,417.6992,64.0128,428.3168,63.5005,438.9344,63.7303,449.552,63.7193,460.1695,64,470.7871,64,471.1814,54.3333,471.3073,44.6667,471.401,35,471.4136,25.3333,471.503,15.6667,470.0658,6,470.7871,6.6366,470.7871,5.6697,460.1695,6.7112,449.552,6.3637,438.9344,5.5311,428.3168,6,417.6992" style="stroke: #A80036; stroke-width: 1.5;"/><text fill="#000000" font-family="sans-serif" font-size="12" lengthAdjust="spacingAndGlyphs" textLength="44" x="13" y="434.3008">Content</text><path d="M7,441.832 L7,441.1286 L16.3333,441.9377 L25.6667,440.9786 L35,441.8972 L44.3333,440.8918 L53.6667,442.2115 L63,441.832 " fill="#FEFECE" style="stroke: #A80036; stroke-width: 1.5;"/><text fill="#000000" font-family="sans-serif" font-size="11" lengthAdjust="spacingAndGlyphs" textLength="46" x="12" y="456.4668">entity_id</text><path d="M7,462.7871 L7,462.0118 L16.3333,462.8038 L25.6667,463.7245 L35,462.8291 L44.3333,462.6438 L53.6667,461.8525 L63,462.7871 " fill="#FEFECE" style="stroke: #A80036; stroke-width: 1.5;"/><path d="M254.28,101.1992 L254.28,101.4628 L260.292,101.1335 L266.304,100.9119 L272.316,101.3619 L278.328,101.1454 L284.34,101.1992 " fill="none" style="stroke: #000000; stroke-width: 1.0;"/><polygon fill="#000000" points="249.04,101.1992,248.9392,100.9725,250.9224,102.1846,252.6153,102.7437,254.3923,103.492,256.2762,104.4807,258.04,105.1992,258.1931,105.3523,257.1291,104.2884,256.5236,103.6828,255.5176,102.6768,254.7938,101.953,254.04,101.1992,253.9259,101.0852,254.874,100.4333,255.4987,99.4579,256.6049,98.9642,257.3656,98.1248,258.04,97.1992,258.0667,97.2593,256.1641,97.8285,254.5114,98.9599,252.5515,99.4,250.9132,100.564,249.04,101.1992" style="stroke: #000000; stroke-width: 1.0;"/><path d="M685.05,101.1992 L685.05,101.1398 L691.084,101.1775 L697.118,101.2856 L703.152,101.4668 L709.186,101.1337 L715.22,101.1992 " fill="none" style="stroke: #000000; stroke-width: 1.0;"/><polygon fill="#000000" points="720.48,101.1992,720.5377,101.329,718.7054,100.4565,716.8615,99.5577,715.1492,98.9549,713.3596,98.1784,711.48,97.1992,711.4245,97.1438,712.3604,98.0796,713.1801,98.8993,713.8328,99.552,714.6394,100.3586,715.48,101.1992,715.6504,101.3696,714.6092,101.9284,713.8536,102.7728,713.1595,103.6787,712.3744,104.4936,711.48,105.1992,711.4081,105.0373,713.3566,104.5716,715.0015,103.4226,716.8487,102.7287,718.7585,102.1759,720.48,101.1992" style="stroke: #000000; stroke-width: 1.0;"/><path d="M415.99,160.3192 L415.4168,159.9642 L421.9921,169.4553 L427.5517,178.3173 L432.7624,186.9632 L437.7035,195.4421 L443.161,204.2408 L449.1499,213.3687 L454.8141,222.2954 L460.1076,230.9926 L464.6997,239.2553 L470.44,248.2292 " fill="none" style="stroke: #000000; stroke-width: 1.0;"/><polygon fill="#000000" points="473.14,252.5892,472.9899,252.5686,472.9955,250.6547,472.6979,248.6991,472.453,246.7508,472.0444,244.7801,471.8005,242.8319,471.7596,242.8223,471.6332,243.9548,471.4416,245.0719,471.0602,246.1445,470.5504,247.1869,470.5067,248.3388,470.5567,248.5516,469.3684,247.9229,468.2736,247.692,467.2345,247.6982,466.0542,247.1038,464.9998,247.0451,464.8771,246.8649,466.5044,247.9726,468.3728,249.4344,469.8471,250.3174,471.4406,251.3757,473.14,252.5892" style="stroke: #000000; stroke-width: 1.0;"/><path d="M574.08,140.8192 L574.4898,141.073 L568.1893,148.599 L564.3203,157.6309 L558.9811,165.7524 L553.9911,174.09 L548.8537,182.3364 L542.6636,189.9308 L538.5944,198.8387 L533.1789,206.9128 L528.864,215.6685 L523.6457,223.8648 L518.1443,231.8857 L513.0302,240.1466 L507.58,248.1992 " fill="none" style="stroke: #000000; stroke-width: 1.0;"/><polygon fill="#000000" points="504.95,252.4492,505.0276,252.5628,506.6182,251.3992,508.1419,250.1376,509.8342,249.1228,511.5835,248.1915,513.0818,246.8928,513.0843,246.9033,511.989,247.1878,510.9179,247.5747,509.7788,247.6737,508.6505,247.8189,507.5769,248.1949,507.6937,248.2225,507.3801,247.1089,506.9149,245.9595,506.8329,244.9007,506.5377,243.7914,506.2748,242.6899,506.4621,242.7153,506.1119,244.6556,505.5031,246.5608,505.2372,248.5125,505.257,250.5031,504.95,252.4492" style="stroke: #000000; stroke-width: 1.0;"/><path d="M560.92,279.1992 L560.92,278.954 L566.772,279.0326 L572.624,279.4277 L578.476,279.0274 L584.328,279.0379 L590.18,279.1992 " fill="none" style="stroke: #000000; stroke-width: 1.0;"/><polygon fill="#000000" points="555.81,279.1992,555.7264,279.0111,557.5152,279.7859,559.4351,280.8558,561.223,281.6286,563.0877,282.5741,564.81,283.1992,564.7159,283.1051,564.1157,282.5049,563.1676,281.5569,562.2576,280.6468,561.6691,280.0583,560.81,279.1992,560.9293,279.3186,561.5074,278.2966,562.4312,277.6204,563.3617,276.9509,563.8938,275.8831,564.81,275.1992,564.7192,274.9949,562.9826,275.9376,561.1737,276.7176,559.4928,277.7855,557.6688,278.5315,555.81,279.1992" style="stroke: #000000; stroke-width: 1.0;"/><path d="M407.53,279.1992 L407.53,279.2938 L410.478,278.9115 L413.426,279.2449 L416.374,279.2291 L419.322,279.2812 L422.27,279.1992 " fill="none" style="stroke: #000000; stroke-width: 1.0; stroke-dasharray: 1.0,3.0;"/><polygon fill="none" points="407.32,286.1992,407.3293,286.2257,403.3609,284.9161,399.3047,283.3556,395.3068,281.9615,391.3351,280.6423,387.32,279.1992,387.243,278.9793,391.3879,277.9933,395.3395,276.455,399.3454,275.0718,403.2812,273.4885,407.32,272.1992,407.2325,272.1992,407.4827,274.9992,407.1508,277.7992,407.4285,280.5992,407.0856,283.3992,407.32,286.1992" style="stroke: #000000; stroke-width: 1.0;"/><path d="M489,306.0292 L489.8838,306.0292 L489.8597,316.0817 L488.4598,326.1342 L488.1795,336.1867 L489.7002,346.2392 L488.4826,356.2917 L489.0352,366.3442 L489.0109,376.3967 L489,386.4492 " fill="none" style="stroke: #000000; stroke-width: 1.0;"/><polygon fill="#000000" points="489,391.5092,489.0066,391.5121,489.7047,389.6668,490.8156,388.005,491.5026,386.1548,492.019,384.2288,493,382.5092,492.8937,382.4029,492.0984,383.2077,491.3984,384.1076,490.6799,384.9891,489.7312,385.6404,489,386.5092,488.9641,386.4733,488.1715,385.6808,487.4612,384.9704,486.4562,383.9654,485.9479,383.4571,485,382.5092,484.9176,382.4726,485.9112,384.3586,486.733,386.1683,487.425,387.9203,488.3959,389.7963,489,391.5092" style="stroke: #000000; stroke-width: 1.0;"/><path d="M563.12,444.1992 L563.12,443.9985 L569.106,444.2066 L575.092,444.1945 L581.078,444.1253 L587.064,444.0499 L593.05,444.1992 " fill="none" style="stroke: #000000; stroke-width: 1.0;"/><polygon fill="#000000" points="598.27,444.1992,598.3093,444.2877,596.5123,443.4944,594.6949,442.6553,592.9397,441.956,591.0918,441.0483,589.27,440.1992,589.1776,440.1068,590.176,441.1052,590.9928,441.922,591.7607,442.6899,592.538,443.4672,593.27,444.1992,593.4088,444.338,592.4914,445.0206,591.5721,445.7013,590.6948,446.424,590.1269,447.4561,589.27,448.1992,589.2415,448.1352,591.0188,447.284,592.9682,446.8202,594.6409,445.7337,596.5401,445.1569,598.27,444.1992" style="stroke: #000000; stroke-width: 1.0;"/><path d="M385.24,444.1992 L385.24,444.3498 L391.184,444.2306 L397.128,444.5202 L403.072,444.1997 L409.016,444.3715 L414.96,444.1992 " fill="none" style="stroke: #000000; stroke-width: 1.0;"/><polygon fill="#000000" points="380.06,444.1992,380.1104,444.3127,381.7726,444.8025,383.7346,445.9671,385.5522,446.8066,387.3121,447.5165,389.06,448.1992,389.1264,448.2656,388.182,447.3212,387.5764,446.7156,386.7782,445.9175,385.9243,445.0635,385.06,444.1992,385.1207,444.26,385.8262,443.3654,386.5185,442.4577,387.3186,441.6578,388.3443,441.0835,389.06,440.1992,389.1456,440.3918,387.2484,440.9731,385.4092,441.6849,383.7315,442.7602,381.8707,443.4232,380.06,444.1992" style="stroke: #000000; stroke-width: 1.0;"/><path d="M218.48,381.6192 L218.4336,381.56 L220.6611,380.2795 L222.5378,378.5517 L224.6854,377.1692 L226.6723,375.5819 L228.4855,373.773 L228.3519,373.5767 L230.7349,372.5425 L232.8675,371.1406 L234.8981,369.5887 L236.9918,368.1294 L239.0338,366.5942 L239.0774,366.6709 L241.2983,365.4442 L243.3322,363.8886 L245.5692,362.6901 L248.0036,361.8386 L250.0602,360.323 L250.028,360.2512 L252.2765,359.1383 L254.7345,358.4931 L256.8675,357.1224 L259.316,356.4561 L261.5,355.1992 L261.5728,355.4021 L264.9385,353.9343 L268.3243,352.5225 L271.8581,351.5231 L275.3974,350.539 L278.7424,349.0137 L278.7621,349.0825 L281.8537,348.4159 L284.7564,347.0882 L287.826,346.3444 L290.97,345.861 L293.9144,344.6791 L293.8876,344.5326 L296.6912,344.2675 L299.4866,343.9576 L302.1954,343.1744 L304.8983,342.3591 L307.7129,342.1536 L307.7153,342.1947 L310.328,341.8407 L312.9536,341.7101 L315.5744,341.4955 L318.2249,341.7956 L320.835,341.3955 L320.8337,341.3775 L323.4722,341.7063 L326.0715,341.5021 L328.744,342.2929 L331.3651,342.3862 L333.9777,342.3628 L333.9585,342.2623 L336.7392,342.8377 L339.4894,343.2532 L342.2342,343.6408 L345.0561,344.4316 L347.8381,345.0138 L347.8328,344.9949 L350.8472,345.7088 L353.9296,346.665 L357.0339,347.6988 L360.0915,348.5664 L363.1132,349.3065 L363.1239,349.338 L366.5304,350.3074 L369.9877,351.427 L373.5136,352.7485 L376.9334,353.7574 L380.5,355.1992 L380.5136,355.2306 L383.672,356.551 L386.8789,357.9835 L390.1003,359.4495 L393.1021,360.4078 L396.4133,362.0814 L396.2931,361.8711 L399.4717,363.8332 L402.6724,365.834 L405.5911,367.3411 L408.6252,369.0503 L411.6863,370.8067 L411.84,371.028 L414.6912,372.9812 L417.6045,375.0237 L420.407,376.9068 L423.135,378.6827 L426.1286,380.8408 L426.173,380.896 L428.9904,383.2229 L431.6364,385.337 L434.1437,387.2789 L436.9104,389.543 L439.55,391.6492 " fill="none" style="stroke: #000000; stroke-width: 1.0;"/><polygon fill="#000000" points="214.52,384.9992,214.5304,385.0339,216.3479,384.2363,218.2541,383.7357,220.123,383.1103,222.0536,382.6909,223.9565,382.1791,223.9588,382.2099,222.8296,382.107,221.6892,381.8595,220.5539,381.6788,219.4395,381.7696,218.3163,381.7453,218.4868,381.7584,218.5228,380.6264,218.5178,379.4913,218.7283,378.3728,218.6778,377.2342,218.7501,376.1051,218.5816,376.0249,217.7311,377.8016,216.8729,379.5746,216.0831,381.3802,215.3336,383.205,214.52,384.9992" style="stroke: #000000; stroke-width: 1.0;"/><path d="M419.97,496.7492 L419.5658,496.2078 L412.7134,503.243 L404.6037,508.5942 L396.3446,513.7453 L389.0162,520.143 L380.9532,525.5566 L373.8049,532.1955 L365.0224,536.6456 L358.318,543.879 L350.4672,549.5769 L342.0734,554.5476 L333.9039,559.8186 L326.6742,566.3485 L318.93,572.1892 " fill="none" style="stroke: #000000; stroke-width: 1.0;"/><polygon fill="#000000" points="314.85,575.2392,314.8122,575.0712,316.757,574.7413,318.642,574.1456,320.5719,573.7495,322.5475,573.5567,324.4587,573.0776,324.4467,572.9958,323.3176,572.7647,322.1974,572.5948,321.0687,572.3668,319.9753,572.3785,318.862,572.2552,318.8088,572.2474,318.887,571.1154,319.1366,570.0086,319.4345,568.9088,319.6435,567.796,319.6843,566.6585,319.4876,566.5476,318.9226,568.4902,317.5884,569.9994,316.8124,571.8231,315.9884,573.6197,314.85,575.2392" style="stroke: #000000; stroke-width: 1.0;"/><path d="M232.3,444.1992 L232.3,444.1845 L238.166,444.0548 L244.032,444.4217 L249.898,444.0908 L255.764,443.9863 L261.63,444.1992 " fill="none" style="stroke: #000000; stroke-width: 1.0;"/><polygon fill="#000000" points="227.19,444.1992,227.1069,444.0123,228.8965,444.7887,230.8067,445.8368,232.5052,446.4083,234.4478,447.5292,236.19,448.1992,236.0402,448.0494,235.5551,447.5643,234.6419,446.6511,233.6525,445.6617,233.0116,445.0208,232.19,444.1992,232.1586,444.1679,233.1462,443.5554,233.626,442.4352,234.527,441.7362,235.5478,441.157,236.19,440.1992,236.2276,440.2839,234.3778,440.9717,232.5737,441.7626,230.8535,442.7421,229.0831,443.6086,227.19,444.1992" style="stroke: #000000; stroke-width: 1.0;"/><path d="M69.4,444.1992 L69.4,444.0037 L75.314,444.3687 L81.228,444.3909 L87.142,443.9875 L93.056,444.091 L98.97,444.1992 " fill="none" style="stroke: #000000; stroke-width: 1.0;"/><polygon fill="#000000" points="64.25,444.1992,64.1613,443.9996,66.0333,444.9617,67.8353,445.7662,69.6031,446.4938,71.3523,447.1794,73.25,448.1992,73.3207,448.27,72.3242,447.2734,71.6531,446.6023,70.6973,445.6465,70.0332,444.9825,69.25,444.1992,69.0921,444.0413,70.2027,443.5519,70.9314,442.6806,71.5364,441.6856,72.3307,440.88,73.25,440.1992,73.2898,440.2887,71.3933,440.8717,69.6718,441.8483,67.8891,442.6872,66.0825,443.4724,64.25,444.1992" style="stroke: #000000; stroke-width: 1.0;"/><path d="M204.69,586.1292 L204.6912,586.1314 L201.7341,584.436 L198.7565,582.7033 L195.9695,581.3166 L192.9809,579.5639 L190.1647,578.1242 L190.0388,577.9051 L187.1118,576.3831 L183.9399,574.435 L180.9395,572.7854 L177.7851,570.8678 L174.8447,569.3225 L174.737,569.1435 L171.5367,567.186 L168.4301,565.3843 L165.3511,563.6285 L162.0445,561.4943 L158.9936,559.7851 L159.1106,559.9698 L155.7395,557.6948 L152.4383,555.53 L149.1464,553.3799 L146.1906,551.7604 L142.875,549.573 L142.9136,549.6304 L139.6358,547.3859 L136.4838,545.3287 L133.0415,542.8391 L129.9421,540.8602 L126.7527,538.7473 L126.6204,538.5628 L123.5899,536.4851 L120.5396,534.3798 L117.2442,531.9328 L113.8766,529.3851 L110.8903,527.3691 L111.0279,527.5469 L107.9646,525.1787 L104.7895,522.666 L101.6712,520.2267 L98.7826,518.0844 L95.5515,515.4994 L95.7447,515.7279 L92.7877,513.2126 L89.6116,510.4382 L86.6414,507.9072 L83.7784,505.5033 L81,503.1992 L80.9892,503.1879 L79.2251,501.4799 L77.8581,500.1859 L76.3466,498.7412 L74.7358,497.1931 L73.1348,495.6552 L72.9962,495.5279 L71.6055,493.9942 L70.303,492.5416 L68.8627,490.9625 L67.2542,489.2289 L65.6362,487.4867 L65.8318,487.6494 L64.1702,485.7498 L62.6278,483.9495 L61.6914,482.6534 L59.8153,480.5753 L58.642,479.082 L58.6935,479.1216 L57.5365,477.5584 L56.1709,475.8346 L54.6463,473.9883 L53.783,472.6511 L52.29,470.8292 " fill="none" style="stroke: #000000; stroke-width: 1.0;"/><polygon fill="#000000" points="209.2,588.5492,209.2509,588.5889,207.935,586.9536,206.9683,585.5905,205.4232,583.7764,204.4864,582.4366,203.1451,580.7815,203.0827,580.7625,203.392,581.8391,203.7718,582.9371,204.037,584.0002,204.2397,585.0444,204.7894,586.1941,204.8519,586.3999,203.7279,586.5921,202.6256,586.8559,201.603,587.3818,200.4581,587.5053,199.3768,587.8384,199.3851,587.9533,201.3321,587.8508,203.295,587.9697,205.2737,588.3063,207.2355,588.4085,209.2,588.5492" style="stroke: #000000; stroke-width: 1.0;"/></g></svg>