<?xml version="1.0" encoding="UTF-8" standalone="no"?><svg xmlns="http://www.w3.org/2000/svg" xmlns:xlink="http://www.w3.org/1999/xlink" contentScriptType="application/ecmascript" contentStyleType="text/css" height="871px" preserveAspectRatio="none" style="width:1082px;height:871px;" version="1.1" viewBox="0 0 1082 871" width="1082px" zoomAndPan="magnify"><defs><filter height="300%" id="feki453" width="300%" x="-1" y="-1"><feGaussianBlur result="blurOut" stdDeviation="2.0"/><feColorMatrix in="blurOut" result="blurOut2" type="matrix" values="0 0 0 0 0 0 0 0 0 0 0 0 0 0 0 0 0 0 .4 0"/><feOffset dx="4.0" dy="4.0" in="blurOut2" result="blurOut3"/><feBlend in="SourceGraphic" in2="blurOut3" mode="normal"/></filter></defs><g><text fill="#000000" font-family="sans-serif" font-size="18" lengthAdjust="spacingAndGlyphs" textLength="90" x="500.5" y="17.4023">固定ページ</text><!--class PagesController--><polygon fill="#FEFECE" filter="url(#feki453)" points="294.5,81.1992,294.5,81.5027,304.3947,81.788,314.2895,81.8127,324.1842,81.5129,334.0789,81.8392,343.9737,81.6981,353.8684,81.887,363.7632,80.7692,373.6579,81.4698,383.5526,81.3942,393.4474,81.1865,403.3421,81.6976,413.2368,80.8507,423.1316,80.5084,433.0263,81.2309,442.9211,80.7197,452.8158,80.7573,462.7105,81.1186,472.6053,81.5392,482.5,81.1992,481.8855,81.1992,482.938,91.8168,482.7611,102.4344,482.4189,113.052,483.1478,123.6695,482.5,134.2871,482.5,134.8371,472.6053,134.5369,462.7105,134.6151,452.8158,134.6412,442.9211,133.5701,433.0263,134.5403,423.1316,134.5993,413.2368,133.8724,403.3421,134.0014,393.4474,134.3723,383.5526,133.9515,373.6579,134.1266,363.7632,134.0601,353.8684,134.7718,343.9737,134.3322,334.0789,133.8998,324.1842,134.6044,314.2895,134.1895,304.3947,134.7259,294.5,134.2871,294.4086,134.2871,294.5238,123.6695,294.2425,113.052,294.7706,102.4344,294.3067,91.8168,294.5,81.1992" style="stroke: #A80036; stroke-width: 1.5;"/><text fill="#000000" font-family="sans-serif" font-size="12" lengthAdjust="spacingAndGlyphs" textLength="90" x="343.5" y="97.8008">PagesController</text><path d="M295.5,105.332 L295.5,104.9485 L305.2895,105.7292 L315.0789,105.9221 L324.8684,106.1682 L334.6579,105.4629 L344.4474,105.2936 L354.2368,106.2304 L364.0263,105.5419 L373.8158,105.2925 L383.6053,105.3309 L393.3947,106.0596 L403.1842,105.1288 L412.9737,104.5947 L422.7632,105.7065 L432.5526,106.0761 L442.3421,105.1183 L452.1316,105.6575 L461.9211,105.4208 L471.7105,105.0685 L481.5,105.332 " fill="#FEFECE" style="stroke: #A80036; stroke-width: 1.5;"/><path d="M295.5,113.332 L295.5,114.2223 L305.2895,113.7685 L315.0789,113.5717 L324.8684,113.3898 L334.6579,113.2714 L344.4474,112.5129 L354.2368,112.8415 L364.0263,112.7739 L373.8158,112.5835 L383.6053,113.0365 L393.3947,112.581 L403.1842,114.3128 L412.9737,114.2365 L422.7632,112.6083 L432.5526,112.8586 L442.3421,113.528 L452.1316,113.7627 L461.9211,113.8122 L471.7105,112.8101 L481.5,113.332 " fill="#FEFECE" style="stroke: #A80036; stroke-width: 1.5;"/><text fill="#000000" font-family="sans-serif" font-size="11" lengthAdjust="spacingAndGlyphs" textLength="176" x="300.5" y="127.9668">+固定ページを表示する：display()</text><!--class BcFrontContentsComponent--><polygon fill="#FEFECE" filter="url(#feki453)" points="6,74.6992,6,75.0543,16.12,75.0859,26.24,75.104,36.36,75.4189,46.48,74.4365,56.6,74.7299,66.72,75.1842,76.84,74.589,86.96,74.1345,97.08,74.1397,107.2,74.4858,117.32,75.0079,127.44,74.5157,137.56,74.6832,147.68,74.496,157.8,75.2675,167.92,75.0256,178.04,75.1483,188.16,75.2724,198.28,74.7421,208.4,74.9964,218.52,73.9886,228.64,75.3777,238.76,74.6941,248.88,74.067,259,74.6992,258.4514,74.6992,258.663,84.1339,259.7131,93.5686,258.6581,103.0033,258.5178,112.4381,259.0923,121.8728,259.5994,131.3075,259,140.7422,259,140.456,248.88,140.3188,238.76,140.6227,228.64,140.2288,218.52,140.2481,208.4,140.1616,198.28,140.8253,188.16,140.8557,178.04,140.6666,167.92,141.1191,157.8,140.0905,147.68,141.3226,137.56,139.9964,127.44,140.0691,117.32,141.1424,107.2,140.0228,97.08,140.8001,86.96,140.3868,76.84,140.9957,66.72,141.4781,56.6,141.4621,46.48,140.8644,36.36,140.0594,26.24,140.7054,16.12,141.3681,6,140.7422,6.6542,140.7422,6.6477,131.3075,6.4672,121.8728,6.0589,112.4381,5.2694,103.0033,5.8554,93.5686,6.1807,84.1339,6,74.6992" style="stroke: #A80036; stroke-width: 1.5;"/><text fill="#000000" font-family="sans-serif" font-size="12" lengthAdjust="spacingAndGlyphs" textLength="158" x="53.5" y="91.3008">BcFrontContentsComponent</text><path d="M7,98.832 L7,98.0292 L17.04,98.0231 L27.08,98.8995 L37.12,99.0682 L47.16,98.2876 L57.2,98.2201 L67.24,99.1523 L77.28,98.4775 L87.32,98.3868 L97.36,98.1283 L107.4,98.4973 L117.44,98.6487 L127.48,98.4214 L137.52,99.7518 L147.56,98.2278 L157.6,98.4362 L167.64,98.4418 L177.68,98.8672 L187.72,97.9093 L197.76,98.5051 L207.8,98.2146 L217.84,98.0876 L227.88,98.3168 L237.92,98.4625 L247.96,99.2351 L258,98.832 " fill="#FEFECE" style="stroke: #A80036; stroke-width: 1.5;"/><path d="M7,106.832 L7,107.5667 L17.04,106.0836 L27.08,107.3193 L37.12,107.689 L47.16,107.2494 L57.2,107.4049 L67.24,106.2619 L77.28,105.8995 L87.32,107.1428 L97.36,106.8163 L107.4,106.8761 L117.44,107.8127 L127.48,107.3382 L137.52,105.9337 L147.56,107.8124 L157.6,107.2857 L167.64,107.4577 L177.68,106.0927 L187.72,106.4222 L197.76,106.3384 L207.8,107.8287 L217.84,106.0673 L227.88,107.1169 L237.92,106.1122 L247.96,106.0113 L258,106.832 " fill="#FEFECE" style="stroke: #A80036; stroke-width: 1.5;"/><text fill="#000000" font-family="sans-serif" font-size="11" lengthAdjust="spacingAndGlyphs" textLength="105" x="12" y="121.4668">+初期化：initialize()</text><text fill="#000000" font-family="sans-serif" font-size="11" lengthAdjust="spacingAndGlyphs" textLength="241" x="12" y="134.4219">+フロントエンドのセットアップ：setupFront()</text><!--class Admin\PagesController--><polygon fill="#FEFECE" filter="url(#feki453)" points="517.5,29.1992,517.5,29.68,527.4149,29.4111,537.3298,28.6141,547.2447,28.8033,557.1596,28.6337,567.0745,29.2043,576.9894,29.1648,586.9043,28.9904,596.8191,29.3593,606.734,28.9659,616.6489,29.5704,626.5638,28.5505,636.4787,28.6675,646.3936,28.9739,656.3085,29.7331,666.2234,29.8522,676.1383,29.3034,686.0532,29.0486,695.9681,28.8668,705.883,29.1465,715.7979,29.4658,725.7128,29.0806,735.6277,29.3698,745.5426,29.4414,755.4574,28.6815,765.3723,28.8329,775.2872,28.7105,785.2021,28.9079,795.117,28.9242,805.0319,28.7399,814.9468,29.4531,824.8617,29.0058,834.7766,28.5597,844.6915,29.2373,854.6064,28.7504,864.5213,29.6503,874.4362,28.5404,884.3511,29.2323,894.266,29.2262,904.1809,29.8823,914.0957,29.2443,924.0106,28.661,933.9255,29.6557,943.8404,29.1676,953.7553,28.9741,963.6702,29.19,973.5851,28.7251,983.5,29.1992,982.9257,29.1992,983.1912,38.9948,983.787,48.7903,983.7216,58.5858,982.9794,68.3813,983.8512,78.1769,982.9209,87.9724,983.054,97.7679,983.6333,107.5635,984.0657,117.359,983.3688,127.1545,983.869,136.9501,982.7928,146.7456,983.9645,156.5411,983.7485,166.3367,983.4387,176.1322,983.5,185.9277,983.5,185.7232,973.5851,186.4135,963.6702,185.2862,953.7553,185.778,943.8404,186.4951,933.9255,186.3887,924.0106,185.7154,914.0957,185.8603,904.1809,185.5207,894.266,186.5008,884.3511,186.2585,874.4362,186.4966,864.5213,186.5972,854.6064,186.6343,844.6915,186.1014,834.7766,185.6726,824.8617,186.1476,814.9468,186.0195,805.0319,185.2382,795.117,186.0009,785.2021,185.1838,775.2872,186.0966,765.3723,185.3428,755.4574,186.2426,745.5426,186.3416,735.6277,185.6913,725.7128,186.3478,715.7979,186.5218,705.883,186.2601,695.9681,185.8967,686.0532,185.7751,676.1383,185.4903,666.2234,185.4395,656.3085,186.0044,646.3936,185.9208,636.4787,186.1526,626.5638,185.5922,616.6489,186.4113,606.734,186.3265,596.8191,185.4077,586.9043,185.8965,576.9894,186.1595,567.0745,186.0518,557.1596,186.5969,547.2447,186.4736,537.3298,185.6294,527.4149,186.1269,517.5,185.9277,518.0468,185.9277,516.9051,176.1322,517.4921,166.3367,517.2514,156.5411,517.1039,146.7456,517.5472,136.9501,517.6657,127.1545,517.6912,117.359,517.5846,107.5635,517.8707,97.7679,517.8302,87.9724,517.4931,78.1769,517.3317,68.3813,517.4995,58.5858,517.4542,48.7903,517.0276,38.9948,517.5,29.1992" style="stroke: #A80036; stroke-width: 1.5;"/><text fill="#000000" font-family="sans-serif" font-size="12" lengthAdjust="spacingAndGlyphs" textLength="133" x="684" y="45.8008">Admin\PagesController</text><path d="M518.5,53.332 L518.5,53.709 L528.587,52.8544 L538.6739,53.1852 L548.7609,53.4414 L558.8478,52.6954 L568.9348,54.1172 L579.0217,53.0426 L589.1087,52.8803 L599.1957,53.0125 L609.2826,52.6511 L619.3696,53.8713 L629.4565,53.8249 L639.5435,52.621 L649.6304,53.4174 L659.7174,52.5751 L669.8043,53.5487 L679.8913,54.197 L689.9783,53.9751 L700.0652,52.4521 L710.1522,53.3269 L720.2391,53.1848 L730.3261,52.9109 L740.413,53.1053 L750.5,53.2279 L760.587,53.0733 L770.6739,52.6892 L780.7609,53.5402 L790.8478,53.9269 L800.9348,52.6661 L811.0217,54.2102 L821.1087,52.99 L831.1957,54.0258 L841.2826,53.1996 L851.3696,53.1852 L861.4565,52.9328 L871.5435,53.7803 L881.6304,53.4337 L891.7174,53.9391 L901.8043,52.8833 L911.8913,54.2333 L921.9783,54.2993 L932.0652,52.4491 L942.1522,53.8419 L952.2391,52.5381 L962.3261,53.3336 L972.413,53.3056 L982.5,53.332 " fill="#FEFECE" style="stroke: #A80036; stroke-width: 1.5;"/><text fill="#000000" font-family="sans-serif" font-size="11" lengthAdjust="spacingAndGlyphs" textLength="151" x="523.5" y="67.9668">+AuthenticationComponent</text><text fill="#000000" font-family="sans-serif" font-size="11" lengthAdjust="spacingAndGlyphs" textLength="130" x="523.5" y="80.9219">+BcMessageComponent</text><path d="M518.5,87.2422 L518.5,86.6858 L528.587,87.6443 L538.6739,86.8778 L548.7609,86.7606 L558.8478,87.0945 L568.9348,86.3075 L579.0217,87.6619 L589.1087,86.9152 L599.1957,86.5762 L609.2826,86.3465 L619.3696,87.7253 L629.4565,87.1527 L639.5435,86.3655 L649.6304,87.7545 L659.7174,87.16 L669.8043,87.6995 L679.8913,88.0522 L689.9783,87.3511 L700.0652,86.6061 L710.1522,87.3706 L720.2391,87.119 L730.3261,86.4592 L740.413,87.084 L750.5,86.4489 L760.587,87.5517 L770.6739,88.064 L780.7609,87.0809 L790.8478,86.7108 L800.9348,86.5777 L811.0217,87.2844 L821.1087,87.043 L831.1957,87.0824 L841.2826,87.578 L851.3696,87.9668 L861.4565,86.7613 L871.5435,86.4802 L881.6304,86.3978 L891.7174,86.869 L901.8043,87.6569 L911.8913,87.1415 L921.9783,87.6438 L932.0652,87.2534 L942.1522,87.6852 L952.2391,88.1998 L962.3261,87.1102 L972.413,87.747 L982.5,87.2422 " fill="#FEFECE" style="stroke: #A80036; stroke-width: 1.5;"/><text fill="#000000" font-family="sans-serif" font-size="11" lengthAdjust="spacingAndGlyphs" textLength="61" x="523.5" y="101.877">+initialize()</text><text fill="#000000" font-family="sans-serif" font-size="11" lengthAdjust="spacingAndGlyphs" textLength="79" x="523.5" y="114.832">+beforeFilter()</text><text fill="#000000" font-family="sans-serif" font-size="11" lengthAdjust="spacingAndGlyphs" textLength="125" x="523.5" y="127.7871">+固定ページ編集：edit()</text><text fill="#000000" font-family="sans-serif" font-size="11" lengthAdjust="spacingAndGlyphs" textLength="420" x="523.5" y="140.7422">+固定ページファイルを登録する：admin_entry_page_files() ※ baserCMS５で廃止</text><text fill="#000000" font-family="sans-serif" font-size="11" lengthAdjust="spacingAndGlyphs" textLength="418" x="523.5" y="153.6973">+固定ページファイルを書き出す：admin_write_page_files() ※ baserCMS５で廃止</text><text fill="#000000" font-family="sans-serif" font-size="11" lengthAdjust="spacingAndGlyphs" textLength="454" x="523.5" y="166.6523">+プレビュー用テンプレートを生成する：_createPreviewTemplate() ※ baserCMS５で廃止</text><text fill="#000000" font-family="sans-serif" font-size="11" lengthAdjust="spacingAndGlyphs" textLength="450" x="523.5" y="179.6074">+一覧の表示用データをセットする：_setAdminIndexViewData()： ※ baserCMS５で廃止</text><!--class BcAdminPageHelper--><polygon fill="#FEFECE" filter="url(#feki453)" points="645,291.6992,645,291.8708,655.25,291.0561,665.5,292.4295,675.75,292.3022,686,291.0462,696.25,291.1791,706.5,290.9641,716.75,291.1147,727,291.0958,737.25,291.6885,747.5,291.0938,757.75,291.8181,768,291.6992,767.8647,291.6992,768.0982,299.7258,768.1352,307.7523,768.1005,315.7789,768.1546,323.8055,768,331.832,768,331.1758,757.75,332.3131,747.5,331.5094,737.25,331.1075,727,331.4091,716.75,332.0992,706.5,332.0203,696.25,332.5526,686,331.2143,675.75,332.532,665.5,331.2235,655.25,331.201,645,331.832,644.8625,331.832,645.1928,323.8055,645.1036,315.7789,645.1036,307.7523,645.1676,299.7258,645,291.6992" style="stroke: #A80036; stroke-width: 1.5;"/><text fill="#000000" font-family="sans-serif" font-size="12" lengthAdjust="spacingAndGlyphs" textLength="117" x="648" y="308.3008">BcAdminPageHelper</text><path d="M646,315.832 L646,316.2305 L656.0833,316.2929 L666.1667,315.9274 L676.25,315.8398 L686.3333,315.4817 L696.4167,316.5258 L706.5,316.459 L716.5833,316.0686 L726.6667,316.4681 L736.75,316.2318 L746.8333,316.5725 L756.9167,316.5096 L767,315.832 " fill="#FEFECE" style="stroke: #A80036; stroke-width: 1.5;"/><path d="M646,323.832 L646,323.7415 L656.0833,324.3908 L666.1667,323.3222 L676.25,324.1442 L686.3333,323.0415 L696.4167,324.0344 L706.5,323.2024 L716.5833,323.0483 L726.6667,324.1932 L736.75,324.7511 L746.8333,324.213 L756.9167,323.047 L767,323.832 " fill="#FEFECE" style="stroke: #A80036; stroke-width: 1.5;"/><!--class PageService--><polygon fill="#FEFECE" filter="url(#feki453)" points="529,285.1992,529,285.3922,539.125,285.515,549.25,284.9037,559.375,285.2768,569.5,285.506,579.625,284.5409,589.75,285.7691,599.875,285.1328,610,285.1992,610.2192,285.1992,610.3007,295.8168,609.4325,306.4344,610.3779,317.052,610.4814,327.6695,610,338.2871,610,338.0132,599.875,338.6787,589.75,337.7772,579.625,338.2597,569.5,337.6827,559.375,337.6116,549.25,338.4706,539.125,338.9128,529,338.2871,529.2752,338.2871,529,327.6695,528.6127,317.052,529.04,306.4344,529.4967,295.8168,529,285.1992" style="stroke: #A80036; stroke-width: 1.5;"/><text fill="#000000" font-family="sans-serif" font-size="12" lengthAdjust="spacingAndGlyphs" textLength="68" x="535.5" y="301.8008">PageService</text><path d="M530,309.332 L530,309.8526 L539.875,309.2235 L549.75,309.7152 L559.625,309.4369 L569.5,308.3477 L579.375,308.7778 L589.25,308.8163 L599.125,310.3092 L609,309.332 " fill="#FEFECE" style="stroke: #A80036; stroke-width: 1.5;"/><text fill="#000000" font-family="sans-serif" font-size="11" lengthAdjust="spacingAndGlyphs" textLength="69" x="535" y="323.9668">+PagesTable</text><path d="M530,330.2871 L530,329.9926 L539.875,330.799 L549.75,329.9902 L559.625,330.296 L569.5,330.1702 L579.375,330.459 L589.25,330.8952 L599.125,330.5193 L609,330.2871 " fill="#FEFECE" style="stroke: #A80036; stroke-width: 1.5;"/><!--class PageServiceInterface--><polygon fill="#FEFECE" filter="url(#feki453)" points="157,246.1992,157,246.5627,166.9118,246.3561,176.8235,246.6511,186.7353,245.9287,196.6471,246.7663,206.5588,246.4573,216.4706,246.6124,226.3824,245.7291,236.2941,246.7329,246.2059,246.2103,256.1176,245.5737,266.0294,245.8029,275.9412,245.616,285.8529,246.4775,295.7647,246.865,305.6765,245.5705,315.5882,246.882,325.5,245.6175,335.4118,246.3231,345.3235,245.7188,355.2353,245.8557,365.1471,245.7849,375.0588,245.7646,384.9706,245.7351,394.8824,245.6951,404.7941,246.0221,414.7059,245.84,424.6176,246.1327,434.5294,246.5193,444.4412,246.1973,454.3529,245.6979,464.2647,246.1955,474.1765,245.4804,484.0882,246.7016,494,246.1992,494.6319,246.1992,493.4262,256.2622,493.8215,266.3251,493.5048,276.3881,494.3656,286.451,493.6036,296.514,494.202,306.5769,493.4547,316.6399,493.673,326.7028,493.2628,336.7658,494.1251,346.8287,493.9322,356.8917,493.3743,366.9546,494,377.0176,494,377.7536,484.0882,377.4145,474.1765,376.3935,464.2647,376.7964,454.3529,376.5639,444.4412,377.6111,434.5294,377.6731,424.6176,377.0018,414.7059,377.5306,404.7941,377.6175,394.8824,377.4356,384.9706,376.8495,375.0588,376.7051,365.1471,377.2067,355.2353,376.6242,345.3235,376.4683,335.4118,376.8747,325.5,376.5143,315.5882,377.0589,305.6765,376.9071,295.7647,377.5533,285.8529,376.3422,275.9412,376.973,266.0294,377.5712,256.1176,376.8297,246.2059,377.1944,236.2941,377.4178,226.3824,376.5264,216.4706,377.6599,206.5588,376.8074,196.6471,376.4848,186.7353,376.7298,176.8235,377.6677,166.9118,376.6888,157,377.0176,156.3285,377.0176,157.3601,366.9546,156.7517,356.8917,156.3013,346.8287,157.6619,336.7658,156.319,326.7028,156.4266,316.6399,157.683,306.5769,157.6112,296.514,157.0194,286.451,156.7407,276.3881,156.3495,266.3251,157.0283,256.2622,157,246.1992" style="stroke: #A80036; stroke-width: 1.5;"/><text fill="#000000" font-family="sans-serif" font-size="12" lengthAdjust="spacingAndGlyphs" textLength="118" x="266.5" y="262.8008">PageServiceInterface</text><path d="M158,270.332 L158,270.6603 L167.8529,269.3531 L177.7059,270.6658 L187.5588,269.4787 L197.4118,269.6101 L207.2647,270.8019 L217.1176,269.8547 L226.9706,269.8916 L236.8235,271.1379 L246.6765,270.0461 L256.5294,269.9339 L266.3824,270.2384 L276.2353,270.1652 L286.0882,270.5918 L295.9412,270.4217 L305.7941,270.8421 L315.6471,269.6127 L325.5,271.2573 L335.3529,270.8502 L345.2059,270.9201 L355.0588,270.5035 L364.9118,269.7989 L374.7647,271.3011 L384.6176,269.3931 L394.4706,269.4555 L404.3235,271.287 L414.1765,270.7489 L424.0294,271.1308 L433.8824,269.9053 L443.7353,270.4195 L453.5882,271.2789 L463.4412,270.0953 L473.2941,269.6508 L483.1471,271.1794 L493,270.332 " fill="#FEFECE" style="stroke: #A80036; stroke-width: 1.5;"/><path d="M158,278.332 L158,278.8293 L167.8529,279.1616 L177.7059,277.7244 L187.5588,279.1595 L197.4118,278.8807 L207.2647,277.3989 L217.1176,278.2253 L226.9706,277.4723 L236.8235,278.4736 L246.6765,279.2923 L256.5294,277.5415 L266.3824,278.4557 L276.2353,278.0809 L286.0882,278.7628 L295.9412,278.3823 L305.7941,278.3538 L315.6471,278.1976 L325.5,277.9143 L335.3529,279.2213 L345.2059,278.8203 L355.0588,278.0308 L364.9118,278.1886 L374.7647,279.1125 L384.6176,277.4358 L394.4706,277.3809 L404.3235,278.0585 L414.1765,277.397 L424.0294,277.4719 L433.8824,277.7041 L443.7353,278.5133 L453.5882,277.5575 L463.4412,278.8571 L473.2941,278.4269 L483.1471,277.4139 L493,278.332 " fill="#FEFECE" style="stroke: #A80036; stroke-width: 1.5;"/><text fill="#000000" font-family="sans-serif" font-size="11" lengthAdjust="spacingAndGlyphs" textLength="83" x="163" y="292.9668">+作成：create()</text><text fill="#000000" font-family="sans-serif" font-size="11" lengthAdjust="spacingAndGlyphs" textLength="87" x="163" y="305.9219">+編集：update()</text><text fill="#000000" font-family="sans-serif" font-size="11" lengthAdjust="spacingAndGlyphs" textLength="82" x="163" y="318.877">+削除：delete()</text><text fill="#000000" font-family="sans-serif" font-size="11" lengthAdjust="spacingAndGlyphs" textLength="122" x="163" y="331.832">+単一データ取得：get()</text><text fill="#000000" font-family="sans-serif" font-size="11" lengthAdjust="spacingAndGlyphs" textLength="325" x="163" y="344.7871">+固定ページテンプレートリストの取得：getPageTemplateList()</text><text fill="#000000" font-family="sans-serif" font-size="11" lengthAdjust="spacingAndGlyphs" textLength="87" x="163" y="357.7422">+コピー：copy()</text><text fill="#000000" font-family="sans-serif" font-size="11" lengthAdjust="spacingAndGlyphs" textLength="277" x="163" y="370.6973">+コントロールソースを取得する：getControlSource()</text><!--class BcSearchIndexManagerBehavior--><polygon fill="#FEFECE" filter="url(#feki453)" points="82.5,553.6992,82.5,553.7539,92.3947,553.2346,102.2895,553.3438,112.1842,553.675,122.0789,553.3731,131.9737,554.144,141.8684,553.8254,151.7632,553.7665,161.6579,554.3452,171.5526,554.2093,181.4474,553.6076,191.3421,553.9435,201.2368,554.2267,211.1316,554.206,221.0263,553.068,230.9211,553.8507,240.8158,554.3718,250.7105,554.396,260.6053,554.3677,270.5,553.6992,270.6255,553.6992,270.6315,561.7258,270.3889,569.7523,270.5042,577.7789,270.4715,585.8055,270.5,593.832,270.5,593.5258,260.6053,593.6976,250.7105,593.1402,240.8158,594.262,230.9211,593.8342,221.0263,594.5489,211.1316,593.1703,201.2368,593.4309,191.3421,593.2883,181.4474,593.6999,171.5526,593.9845,161.6579,593.1421,151.7632,593.7647,141.8684,593.4182,131.9737,593.6746,122.0789,593.367,112.1842,593.2562,102.2895,594.361,92.3947,594.063,82.5,593.832,82.7338,593.832,82.6105,585.8055,82.3644,577.7789,82.4173,569.7523,82.4883,561.7258,82.5,553.6992" style="stroke: #A80036; stroke-width: 1.5;"/><text fill="#000000" font-family="sans-serif" font-size="12" lengthAdjust="spacingAndGlyphs" textLength="182" x="85.5" y="570.3008">BcSearchIndexManagerBehavior</text><path d="M83.5,577.832 L83.5,577.6672 L93.2895,576.8983 L103.0789,577.7586 L112.8684,578.2768 L122.6579,577.3221 L132.4474,577.4011 L142.2368,577.848 L152.0263,578.0823 L161.8158,577.1194 L171.6053,577.6827 L181.3947,578.25 L191.1842,577.6088 L200.9737,578.6925 L210.7632,577.6848 L220.5526,578.485 L230.3421,576.9471 L240.1316,576.8391 L249.9211,578.1197 L259.7105,578.6288 L269.5,577.832 " fill="#FEFECE" style="stroke: #A80036; stroke-width: 1.5;"/><path d="M83.5,585.832 L83.5,586.5447 L93.2895,585.0357 L103.0789,585.2466 L112.8684,585.4984 L122.6579,586.8033 L132.4474,585.0038 L142.2368,586.0609 L152.0263,586.7977 L161.8158,584.8509 L171.6053,585.7619 L181.3947,586.7173 L191.1842,586.3523 L200.9737,586.3056 L210.7632,585.2801 L220.5526,586.174 L230.3421,586.5816 L240.1316,586.1061 L249.9211,585.7154 L259.7105,585.8905 L269.5,585.832 " fill="#FEFECE" style="stroke: #A80036; stroke-width: 1.5;"/><!--class PagesTable--><polygon fill="#FEFECE" filter="url(#feki453)" points="305.5,437.1992,305.5,437.7491,315.4623,436.8947,325.4245,436.771,335.3868,436.5396,345.3491,436.9194,355.3113,436.8144,365.2736,437.2365,375.2358,437.4899,385.1981,437.023,395.1604,437.3724,405.1226,437.8023,415.0849,436.578,425.0472,436.8686,435.0094,437.4558,444.9717,436.501,454.934,436.8654,464.8962,436.6463,474.8585,437.8934,484.8208,437.7876,494.783,437.7563,504.7453,437.8104,514.7075,436.7557,524.6698,437.0706,534.6321,437.8146,544.5943,437.4343,554.5566,437.0282,564.5189,437.0539,574.4811,437.1595,584.4434,437.3404,594.4057,437.3107,604.3679,437.8801,614.3302,436.7232,624.2925,437.0886,634.2547,436.5296,644.217,437.2264,654.1792,437.687,664.1415,437.5816,674.1038,436.4943,684.066,437.3129,694.0283,436.7015,703.9906,437.1065,713.9528,436.499,723.9151,437.727,733.8774,437.5585,743.8396,437.0855,753.8019,437.0425,763.7642,436.5543,773.7264,437.805,783.6887,437.6551,793.6509,437.6419,803.6132,437.0343,813.5755,437.8818,823.5377,437.4249,833.5,437.1992,833.9206,437.1992,834.1261,447.3223,833.0241,457.4455,833.6963,467.5686,833.4769,477.6917,832.7742,487.8148,834.179,497.9379,833.329,508.0611,833.2935,518.1842,833.6274,528.3073,833.8977,538.4304,833.1705,548.5535,833.8834,558.6766,834.2284,568.7998,832.7866,578.9229,833.2284,589.046,833.3622,599.1691,834.1477,609.2922,834.0447,619.4154,833.9862,629.5385,833.8146,639.6616,833.2897,649.7847,833.9876,659.9078,834.0214,670.031,833.4295,680.1541,832.9175,690.2772,833.5063,700.4003,833.5,710.5234,833.5,710.1847,823.5377,710.1219,813.5755,710.0153,803.6132,710.3542,793.6509,709.9939,783.6887,710.2307,773.7264,709.9372,763.7642,709.9677,753.8019,711.1383,743.8396,710.9271,733.8774,710.9172,723.9151,710.2665,713.9528,709.8113,703.9906,710.2109,694.0283,710.9671,684.066,710.5717,674.1038,710.9386,664.1415,710.2792,654.1792,710.9266,644.217,710.8769,634.2547,709.8039,624.2925,711.1547,614.3302,709.9882,604.3679,711.2601,594.4057,710.0446,584.4434,710.2408,574.4811,710.3859,564.5189,711.1963,554.5566,711.1774,544.5943,711.0747,534.6321,711.2435,524.6698,710.0819,514.7075,710.9026,504.7453,710.1966,494.783,710.0587,484.8208,710.1247,474.8585,710.9223,464.8962,711.2129,454.934,710.4171,444.9717,710.3536,435.0094,710.3849,425.0472,709.8066,415.0849,710.2865,405.1226,709.8823,395.1604,710.8316,385.1981,710.6422,375.2358,711.1412,365.2736,710.6887,355.3113,710.1798,345.3491,710.318,335.3868,710.2088,325.4245,710.5835,315.4623,710.8237,305.5,710.5234,305.7189,710.5234,305.2837,700.4003,305.1799,690.2772,305.3484,680.1541,305.5263,670.031,305.0394,659.9078,304.7777,649.7847,305.8459,639.6616,304.9036,629.5385,306.241,619.4154,305.283,609.2922,306.0481,599.1691,304.9651,589.046,305.1816,578.9229,305.0671,568.7998,305.923,558.6766,305.6027,548.5535,306.0852,538.4304,305.5834,528.3073,305.5591,518.1842,305.0388,508.0611,305.6011,497.9379,305.046,487.8148,305.0482,477.6917,305.6235,467.5686,304.8676,457.4455,306.0731,447.3223,305.5,437.1992" style="stroke: #A80036; stroke-width: 1.5;"/><text fill="#000000" font-family="sans-serif" font-size="12" lengthAdjust="spacingAndGlyphs" textLength="67" x="536" y="453.8008">PagesTable</text><path d="M306.5,461.332 L306.5,461.5884 L316.4245,461.0054 L326.3491,460.4185 L336.2736,460.3342 L346.1981,462.0764 L356.1226,461.526 L366.0472,462.2407 L375.9717,460.4906 L385.8962,461.9521 L395.8208,461.3601 L405.7453,461.55 L415.6698,462.1585 L425.5943,461.2553 L435.5189,461.6317 L445.4434,460.9363 L455.3679,461.8942 L465.2925,461.3935 L475.217,462.109 L485.1415,460.8654 L495.066,461.4081 L504.9906,461.5266 L514.9151,461.0778 L524.8396,460.5258 L534.7642,461.6326 L544.6887,461.9078 L554.6132,460.8632 L564.5377,460.7848 L574.4623,460.9334 L584.3868,461.8616 L594.3113,461.8568 L604.2358,462.2665 L614.1604,461.5789 L624.0849,461.2869 L634.0094,461.8471 L643.934,460.6145 L653.8585,462.1211 L663.783,460.9715 L673.7075,462.082 L683.6321,462.2435 L693.5566,460.567 L703.4811,460.5856 L713.4057,460.8125 L723.3302,461.3113 L733.2547,462.1276 L743.1792,461.9975 L753.1038,461.0699 L763.0283,462.2585 L772.9528,461.9369 L782.8774,461.5089 L792.8019,462.1238 L802.7264,462.0646 L812.6509,461.4145 L822.5755,461.7578 L832.5,461.332 " fill="#FEFECE" style="stroke: #A80036; stroke-width: 1.5;"/><path d="M306.5,469.332 L306.5,469.4492 L316.4245,468.3614 L326.3491,468.9248 L336.2736,468.3687 L346.1981,470.0983 L356.1226,469.7202 L366.0472,469.0455 L375.9717,469.9512 L385.8962,469.1297 L395.8208,468.7966 L405.7453,470.1077 L415.6698,468.7593 L425.5943,470.1895 L435.5189,469.5678 L445.4434,468.7074 L455.3679,469.2161 L465.2925,469.471 L475.217,468.6382 L485.1415,468.6146 L495.066,468.5987 L504.9906,469.0982 L514.9151,469.5172 L524.8396,469.9136 L534.7642,468.442 L544.6887,469.4827 L554.6132,469.8877 L564.5377,470.3141 L574.4623,468.6858 L584.3868,468.3978 L594.3113,469.1862 L604.2358,468.3536 L614.1604,469.2331 L624.0849,469.3956 L634.0094,469.3076 L643.934,469.6905 L653.8585,469.42 L663.783,469.7591 L673.7075,468.9227 L683.6321,468.8479 L693.5566,468.9227 L703.4811,468.4379 L713.4057,469.7637 L723.3302,469.6175 L733.2547,469.8335 L743.1792,469.3617 L753.1038,469.2855 L763.0283,469.8699 L772.9528,469.0348 L782.8774,469.1523 L792.8019,468.3499 L802.7264,468.7434 L812.6509,468.5839 L822.5755,468.577 L832.5,469.332 " fill="#FEFECE" style="stroke: #A80036; stroke-width: 1.5;"/><text fill="#000000" font-family="sans-serif" font-size="11" lengthAdjust="spacingAndGlyphs" textLength="263" x="311.5" y="483.9668">+ページをコピーする：copy()※ PageService に移行</text><text fill="#000000" font-family="sans-serif" font-size="11" lengthAdjust="spacingAndGlyphs" textLength="248" x="311.5" y="496.9219">+検索用データを生成する：createSearchIndex()</text><text fill="#000000" font-family="sans-serif" font-size="11" lengthAdjust="spacingAndGlyphs" textLength="328" x="311.5" y="509.877">+初期値を取得する：getDefaultValue() ※ Page::getNew() に移行</text><text fill="#000000" font-family="sans-serif" font-size="11" lengthAdjust="spacingAndGlyphs" textLength="460" x="311.5" y="522.832">+固定ページテンプレートリストを取得する：getPageTemplateList() ※ PageService に移行</text><text fill="#000000" font-family="sans-serif" font-size="11" lengthAdjust="spacingAndGlyphs" textLength="390" x="311.5" y="535.7871">+コントロールソースを取得する：getControlSource() ※ PageService に移行</text><text fill="#000000" font-family="sans-serif" font-size="11" lengthAdjust="spacingAndGlyphs" textLength="193" x="311.5" y="548.7422">+削除：delete() ※ baserCMS５で廃止</text><text fill="#000000" font-family="sans-serif" font-size="11" lengthAdjust="spacingAndGlyphs" textLength="308" x="311.5" y="561.6973">+最終登録IDを取得する：getInsertID() ※ baserCMS５で廃止</text><text fill="#000000" font-family="sans-serif" font-size="11" lengthAdjust="spacingAndGlyphs" textLength="352" x="311.5" y="574.6523">+URLより固定ページデータを探す：findByUrl() ※ baserCMS５で廃止</text><text fill="#000000" font-family="sans-serif" font-size="11" lengthAdjust="spacingAndGlyphs" textLength="253" x="311.5" y="587.6074">+getParentPageTemplate() ※ baserCMS５で廃止</text><text fill="#000000" font-family="sans-serif" font-size="11" lengthAdjust="spacingAndGlyphs" textLength="452" x="311.5" y="600.5625">+固定ページとして管理されているURLかチェックする：isPageUrl() ※ baserCMS５で廃止</text><text fill="#000000" font-family="sans-serif" font-size="11" lengthAdjust="spacingAndGlyphs" textLength="428" x="311.5" y="613.5176">+本文にbaserが管理するタグを追加する：addBaserPageTag() ※ baserCMS５で廃止</text><text fill="#000000" font-family="sans-serif" font-size="11" lengthAdjust="spacingAndGlyphs" textLength="443" x="311.5" y="626.4727">+コンテンツフォルダのパスを取得する：getContentFolderPath() ※ baserCMS５で廃止</text><text fill="#000000" font-family="sans-serif" font-size="11" lengthAdjust="spacingAndGlyphs" textLength="506" x="311.5" y="639.4277">+ページテンプレートファイルが開けるかチェックする：checkOpenPageFile() ※ baserCMS５で廃止</text><text fill="#000000" font-family="sans-serif" font-size="11" lengthAdjust="spacingAndGlyphs" textLength="516" x="311.5" y="652.3828">+DBデータを元にページテンプレートを全て生成する：createAllPageTemplate() ※ baserCMS５で廃止</text><text fill="#000000" font-family="sans-serif" font-size="11" lengthAdjust="spacingAndGlyphs" textLength="400" x="311.5" y="665.3379">+ページテンプレートを生成する：createPageTemplate() ※ baserCMS５で廃止</text><text fill="#000000" font-family="sans-serif" font-size="11" lengthAdjust="spacingAndGlyphs" textLength="305" x="311.5" y="678.293">+ページファイルを削除する：delFile() ※ baserCMS５で廃止</text><text fill="#000000" font-family="sans-serif" font-size="11" lengthAdjust="spacingAndGlyphs" textLength="348" x="311.5" y="691.248">+ページファイルを登録する：entryPageFiles() ※ baserCMS５で廃止</text><text fill="#000000" font-family="sans-serif" font-size="11" lengthAdjust="spacingAndGlyphs" textLength="387" x="311.5" y="704.2031">+ページファイルのパスを取得する：getPageFilePath() ※ baserCMS５で廃止</text><!--class PageValidation--><polygon fill="#FEFECE" filter="url(#feki453)" points="868.5,547.1992,868.5,546.9559,878.7,547.7715,888.9,547.3958,899.1,547.7684,909.3,547.7528,919.5,547.4717,929.7,547.7414,939.9,547.3314,950.1,546.9228,960.3,546.9046,970.5,547.086,980.7,547.868,990.9,547.2112,1001.1,546.8122,1011.3,547.8616,1021.5,547.3071,1031.7,547.0745,1041.9,546.6099,1052.1,547.7976,1062.3,547.6218,1072.5,547.1992,1072.3567,547.1992,1072.733,557.8168,1071.7873,568.4344,1073.0241,579.052,1072.4869,589.6695,1072.5,600.2871,1072.5,600.9279,1062.3,600.6162,1052.1,599.789,1041.9,599.9857,1031.7,600.6683,1021.5,599.6919,1011.3,600.4765,1001.1,599.9789,990.9,600.4324,980.7,600.8716,970.5,600.7008,960.3,599.5575,950.1,599.8862,939.9,600.3054,929.7,600.9686,919.5,599.6866,909.3,599.8342,899.1,600.6817,888.9,600.2532,878.7,599.8869,868.5,600.2871,867.9509,600.2871,868.6753,589.6695,868.1854,579.052,868.3047,568.4344,868.1394,557.8168,868.5,547.1992" style="stroke: #A80036; stroke-width: 1.5;"/><text fill="#000000" font-family="sans-serif" font-size="12" lengthAdjust="spacingAndGlyphs" textLength="85" x="928" y="563.8008">PageValidation</text><path d="M869.5,571.332 L869.5,572.1753 L879.6,570.5355 L889.7,570.6029 L899.8,570.5882 L909.9,570.8259 L920,572.3167 L930.1,571.8406 L940.2,571.4953 L950.3,571.0798 L960.4,571.9453 L970.5,571.3433 L980.6,571.2147 L990.7,571.7453 L1000.8,570.9234 L1010.9,571.1695 L1021,572.169 L1031.1,570.8708 L1041.2,572.2954 L1051.3,571.7781 L1061.4,570.4064 L1071.5,571.332 " fill="#FEFECE" style="stroke: #A80036; stroke-width: 1.5;"/><path d="M869.5,579.332 L869.5,580.1955 L879.6,578.4536 L889.7,579.2764 L899.8,579.3297 L909.9,578.4926 L920,579.0372 L930.1,579.844 L940.2,579.1495 L950.3,578.5714 L960.4,579.0073 L970.5,578.3359 L980.6,578.562 L990.7,580.2281 L1000.8,579.7384 L1010.9,578.4367 L1021,578.5014 L1031.1,580.1438 L1041.2,579.4081 L1051.3,580.2884 L1061.4,578.8537 L1071.5,579.332 " fill="#FEFECE" style="stroke: #A80036; stroke-width: 1.5;"/><text fill="#000000" font-family="sans-serif" font-size="11" lengthAdjust="spacingAndGlyphs" textLength="192" x="874.5" y="593.9668">+PHP構文チェック: phpValidSyntax()</text><!--class Page--><polygon fill="#FEFECE" filter="url(#feki453)" points="446.5,770.1992,446.5,770.4176,456.34,770.0254,466.18,770.8911,476.02,770.5096,485.86,770.8158,495.7,770.5892,505.54,769.5099,515.38,770.2736,525.22,769.9788,535.06,770.2382,544.9,769.561,554.74,769.8743,564.58,769.7993,574.42,770.2835,584.26,770.8399,594.1,770.0356,603.94,769.7457,613.78,770.385,623.62,770.3826,633.46,770.9082,643.3,769.764,653.14,769.7343,662.98,769.5388,672.82,770.4382,682.66,769.8321,692.5,770.1992,693.1201,770.1992,692.9668,780.4162,692.5083,790.6332,692.532,800.8503,692.0088,811.0673,692.5665,821.2843,692.9988,831.5013,692.4469,841.7183,692.8058,851.9353,692.5,862.1523,692.5,862.5157,682.66,861.5499,672.82,862.0999,662.98,862.3354,653.14,862.3038,643.3,862.6502,633.46,862.3801,623.62,862.2844,613.78,861.8408,603.94,862.1004,594.1,862.8557,584.26,862.5136,574.42,861.6776,564.58,862.2191,554.74,862.3259,544.9,861.6964,535.06,861.5516,525.22,861.8267,515.38,862.4107,505.54,862.0784,495.7,861.854,485.86,862.5377,476.02,862.8606,466.18,862.7691,456.34,862.2078,446.5,862.1523,446.0706,862.1523,445.97,851.9353,447.2219,841.7183,446.2048,831.5013,447.2243,821.2843,446.0613,811.0673,446.8242,800.8503,446.2181,790.6332,446.2669,780.4162,446.5,770.1992" style="stroke: #A80036; stroke-width: 1.5;"/><text fill="#000000" font-family="sans-serif" font-size="12" lengthAdjust="spacingAndGlyphs" textLength="28" x="555.5" y="786.8008">Page</text><path d="M447.5,794.332 L447.5,793.4943 L457.6667,795.2383 L467.8333,793.6124 L478,794.1581 L488.1667,793.6112 L498.3333,793.5057 L508.5,793.4884 L518.6667,794.6202 L528.8333,793.345 L539,793.8316 L549.1667,794.0532 L559.3333,795.2706 L569.5,794.804 L579.6667,794.5372 L589.8333,793.7236 L600,794.9233 L610.1667,795.097 L620.3333,794.7727 L630.5,794.0466 L640.6667,793.7173 L650.8333,795.3091 L661,794.7122 L671.1667,794.3902 L681.3333,794.3535 L691.5,794.332 " fill="#FEFECE" style="stroke: #A80036; stroke-width: 1.5;"/><text fill="#000000" font-family="sans-serif" font-size="11" lengthAdjust="spacingAndGlyphs" textLength="111" x="452.5" y="808.9668">+本稿記事：contents</text><text fill="#000000" font-family="sans-serif" font-size="11" lengthAdjust="spacingAndGlyphs" textLength="90" x="452.5" y="821.9219">+草稿記事：draft</text><text fill="#000000" font-family="sans-serif" font-size="11" lengthAdjust="spacingAndGlyphs" textLength="219" x="452.5" y="834.877">+固定ページテンプレート：page_template</text><text fill="#000000" font-family="sans-serif" font-size="11" lengthAdjust="spacingAndGlyphs" textLength="234" x="452.5" y="847.832">+埋め込みコード：code ※ baserCMS５で廃止</text><path d="M447.5,854.1523 L447.5,854.3962 L457.6667,854.1659 L467.8333,853.4003 L478,854.0448 L488.1667,853.7395 L498.3333,854.4909 L508.5,854.9829 L518.6667,853.5097 L528.8333,853.9057 L539,854.2286 L549.1667,854.2202 L559.3333,854.4782 L569.5,854.226 L579.6667,853.191 L589.8333,854.5388 L600,854.0683 L610.1667,853.4701 L620.3333,854.1223 L630.5,854.9574 L640.6667,854.3903 L650.8333,854.8169 L661,854.217 L671.1667,854.0081 L681.3333,853.4812 L691.5,854.1523 " fill="#FEFECE" style="stroke: #A80036; stroke-width: 1.5;"/><path d="M681.04,186.2192 L680.4771,185.7148 L674.0837,193.1345 L667.7407,200.5992 L661.3818,208.0498 L655.0715,215.5438 L648.7734,223.0488 L642.1564,230.2681 L635.3901,237.3535 L628.8775,244.6664 L622.3123,251.932 L615.2388,258.7423 L609.8807,267.0895 L602.6717,273.7783 L596.09,281.0292 " fill="none" style="stroke: #000000; stroke-width: 1.0;"/><polygon fill="#000000" points="592.6,284.9192,592.5,284.6964,594.4424,284.2137,596.2787,283.4947,598.0048,282.5298,599.8648,281.8636,601.5862,280.8883,601.5857,280.8789,600.4658,281.1203,599.3226,280.9341,598.1985,281.098,597.0753,281.2787,595.9377,281.1964,596.1292,281.2068,595.9065,280.0683,595.9634,278.9451,595.6297,277.8006,595.814,276.6843,595.6296,275.5479,595.7593,275.5898,594.836,277.3615,594.3417,279.2718,593.6636,281.1228,593.2745,283.0671,592.6,284.9192" style="stroke: #000000; stroke-width: 1.0;"/><path d="M259.5,107.6992 L259.5,107.4632 L265.422,107.52 L271.344,107.5799 L277.266,108.0246 L283.188,107.8159 L289.11,107.6992 " fill="none" style="stroke: #000000; stroke-width: 1.0;"/><polygon fill="#000000" points="294.27,107.6992,294.345,107.868,292.4767,106.9143,290.6057,105.9546,288.9226,105.4177,286.9829,104.3032,285.27,103.6992,285.1343,103.5635,285.9699,104.3991,286.708,105.1372,287.746,106.1753,288.5603,106.9895,289.27,107.6992,289.4081,107.8374,288.6109,108.6402,287.5787,109.2079,286.6983,109.9275,286.1162,110.9454,285.27,111.6992,285.3408,111.8584,287.1686,111.121,288.9201,110.2118,290.7305,109.4352,292.4545,108.4643,294.27,107.6992" style="stroke: #000000; stroke-width: 1.0;"/><path d="M411.42,134.2792 L411.0939,133.987 L417.2689,140.9687 L424.5775,148.9662 L431.7727,156.8619 L438.1682,164.0412 L444.3634,171.041 L450.9161,178.3611 L457.9966,186.1541 L464.7589,193.6621 L470.0385,199.8414 L476.8849,207.4246 L483.2924,214.6147 L490.5124,222.5327 L496.9936,229.7887 L503.8548,237.3853 L510.761,245.0222 L516.7548,251.8415 L523.5182,259.3504 L530.6698,267.2071 L536.2637,273.6682 L543.13,281.2692 " fill="none" style="stroke: #000000; stroke-width: 1.0;"/><polygon fill="#000000" points="546.48,285.0092,546.4072,284.9855,546.0588,283.1974,545.4181,281.3141,544.6601,279.3927,543.8627,277.4585,543.4325,275.6437,543.5432,275.6495,543.4028,276.7751,543.4036,277.9081,543.1085,279.0255,543.4352,280.1756,543.1352,281.2927,543.1426,281.4339,541.9964,281.0635,540.8743,281.1508,539.7408,281.0197,538.6083,280.9094,537.4861,280.9954,537.5328,281.1,539.3625,281.9719,540.9953,282.4028,542.7903,283.1973,544.6879,284.2215,546.48,285.0092" style="stroke: #000000; stroke-width: 1.0;"/><path d="M615.31,311.6992 L615.31,311.5124 L621.206,311.7495 L627.102,311.6253 L632.998,312.0301 L638.894,311.9002 L644.79,311.6992 " fill="none" style="stroke: #000000; stroke-width: 1.0;"/><polygon fill="#000000" points="610.17,311.6992,610.2632,311.9089,611.9743,312.5089,613.8411,313.4593,615.6425,314.2624,617.4002,314.9671,619.17,315.6992,619.1242,315.6534,618.4675,314.9967,617.7184,314.2476,616.7054,313.2346,615.8014,312.3306,615.17,311.6992,615.2832,311.8124,616.0467,310.976,616.7326,310.0618,617.6341,309.3633,618.4563,308.5855,619.17,307.6992,619.2238,307.8202,617.3995,308.5656,615.5467,309.2468,613.8318,310.2382,612.0235,311.0196,610.17,311.6992" style="stroke: #000000; stroke-width: 1.0;"/><path d="M569.5,338.5792 L569.3709,338.5792 L569.3127,348.9226 L568.8298,359.2659 L570.3032,369.6092 L569.0601,379.9526 L569.2638,390.2959 L568.8413,400.6392 L569.0095,410.9826 L568.7496,421.3259 L569.5,431.6692 " fill="none" style="stroke: #000000; stroke-width: 1.0;"/><polygon fill="#000000" points="569.5,436.9592,569.2822,436.8624,570.1106,435.075,571.1702,433.3904,571.8841,431.5522,572.739,429.7766,573.5,427.9592,573.5451,428.0043,572.7599,428.8191,572.0546,429.7138,571.0047,430.264,570.3688,431.2281,569.5,431.9592,569.5832,432.0424,568.655,431.1143,568.0645,430.5238,566.953,429.4122,566.4377,428.8969,565.5,427.9592,565.5089,427.9632,566.5114,429.8532,567.2194,431.6123,567.752,433.2934,568.7794,435.1945,569.5,436.9592" style="stroke: #000000; stroke-width: 1.0;"/><path d="M270.53,573.6992 L270.53,573.9051 L276.446,573.5879 L282.362,573.6332 L288.278,573.614 L294.194,573.7295 L300.11,573.6992 " fill="none" style="stroke: #000000; stroke-width: 1.0;"/><polygon fill="#000000" points="305.27,573.6992,305.3346,573.8445,303.5056,572.9794,301.5718,571.8783,299.8261,571.2005,298.0886,570.541,296.27,569.6992,296.1022,569.5315,297.2114,570.6406,297.9367,571.3659,298.6739,572.1032,299.3908,572.82,300.27,573.6992,300.2756,573.7048,299.5492,574.5784,298.741,575.3703,297.8496,576.0788,297.0012,576.8304,296.27,577.6992,296.3237,577.82,298.0263,576.8009,299.9692,576.3223,301.5911,575.1216,303.46,574.4768,305.27,573.6992" style="stroke: #000000; stroke-width: 1.0;"/><path d="M833.83,573.6992 L833.83,573.7158 L839.694,573.709 L845.558,573.7393 L851.422,573.7474 L857.286,573.5758 L863.15,573.6992 " fill="none" style="stroke: #000000; stroke-width: 1.0;"/><polygon fill="#000000" points="868.27,573.6992,868.3225,573.8174,866.4489,572.8517,864.7144,572.1992,862.9382,571.4527,861.0052,570.3534,859.27,569.6992,859.2462,569.6754,860.0841,570.5134,860.821,571.2503,861.8156,572.2449,862.3908,572.82,863.27,573.6992,863.1272,573.5564,862.5549,574.5841,861.6426,575.2718,860.8006,576.0298,859.9138,576.743,859.27,577.6992,859.3636,577.9099,861.1633,577.1092,862.8824,576.1272,864.6427,575.2378,866.455,574.4654,868.27,573.6992" style="stroke: #000000; stroke-width: 1.0;"/><path d="M514.27,311.6992 L514.27,311.7466 L517.198,311.5319 L520.126,311.6315 L523.054,311.4464 L525.982,311.6382 L528.91,311.6992 " fill="none" style="stroke: #000000; stroke-width: 1.0; stroke-dasharray: 1.0,3.0;"/><polygon fill="none" points="514.2,318.6992,514.1748,318.6273,510.2431,317.4225,506.2472,316.0339,502.2767,314.7184,498.2199,313.156,494.2,311.6992,494.186,311.6591,498.1897,310.2699,502.2753,309.1143,506.2485,307.6377,510.1373,305.9201,514.2,304.6992,514.0491,304.6992,514.3082,307.4992,514.0025,310.2992,514.4392,313.0992,514.1044,315.8992,514.2,318.6992" style="stroke: #000000; stroke-width: 1.0;"/><path d="M569.5,710.4092 L568.9194,710.4092 L569.7886,721.2772 L569.0485,732.1452 L569.5409,743.0132 L568.7165,753.8812 L569.5,764.7492 " fill="none" style="stroke: #000000; stroke-width: 1.0;"/><polygon fill="#000000" points="569.5,770.1392,569.7265,770.2399,570.4551,768.4081,571.1679,766.5694,572.0461,764.8042,572.7531,762.9628,573.5,761.1392,573.5881,761.2273,572.5499,761.7892,572.0302,762.8694,570.9758,763.4151,570.2561,764.2953,569.5,765.1392,569.4242,765.0634,568.7549,764.3941,567.8957,763.5349,567.1373,762.7765,566.1884,761.8277,565.5,761.1392,565.4293,761.1078,566.4656,763.0128,567.0616,764.7222,568.1067,766.6311,568.6625,768.3225,569.5,770.1392" style="stroke: #000000; stroke-width: 1.0;"/></g></svg>