<?xml version="1.0" encoding="UTF-8" standalone="no"?><svg xmlns="http://www.w3.org/2000/svg" xmlns:xlink="http://www.w3.org/1999/xlink" contentScriptType="application/ecmascript" contentStyleType="text/css" height="884px" preserveAspectRatio="none" style="width:738px;height:884px;" version="1.1" viewBox="0 0 738 884" width="738px" zoomAndPan="magnify"><defs><filter height="300%" id="fbhq8fu" width="300%" x="-1" y="-1"><feGaussianBlur result="blurOut" stdDeviation="2.0"/><feColorMatrix in="blurOut" result="blurOut2" type="matrix" values="0 0 0 0 0 0 0 0 0 0 0 0 0 0 0 0 0 0 .4 0"/><feOffset dx="4.0" dy="4.0" in="blurOut2" result="blurOut3"/><feBlend in="SourceGraphic" in2="blurOut3" mode="normal"/></filter></defs><g><text fill="#000000" font-family="sans-serif" font-size="18" lengthAdjust="spacingAndGlyphs" textLength="162" x="292.5" y="17.4023">アクセスルール管理</text><!--class Admin\PermissionsController--><polygon fill="#FEFECE" filter="url(#fbhq8fu)" points="490,29.1992,490,28.8949,499.7727,28.6618,509.5455,28.6926,519.3182,28.7202,529.0909,28.6547,538.8636,29.8328,548.6364,29.7434,558.4091,29.8718,568.1818,28.8864,577.9545,29.1309,587.7273,28.4881,597.5,29.8886,607.2727,28.6809,617.0455,29.8776,626.8182,29.7833,636.5909,28.459,646.3636,29.7502,656.1364,29.3666,665.9091,29.0153,675.6818,28.4609,685.4545,29.7423,695.2273,28.7308,705,29.1992,705.1825,29.1992,704.706,38.9948,704.8471,48.7903,704.4073,58.5858,705.1513,68.3813,704.5152,78.1769,705.5479,87.9724,704.8414,97.7679,705.6239,107.5635,705.2,117.359,705.3064,127.1545,705.4046,136.9501,704.7723,146.7456,705.6451,156.5411,705.3303,166.3367,705.382,176.1322,705,185.9277,705,186.4055,695.2273,186.4324,685.4545,185.682,675.6818,186.6337,665.9091,186.1971,656.1364,185.5662,646.3636,186.5931,636.5909,185.9155,626.8182,186.582,617.0455,186.0195,607.2727,186.6218,597.5,186.0095,587.7273,186.6576,577.9545,186.2576,568.1818,185.9683,558.4091,186.5117,548.6364,186.4215,538.8636,185.7235,529.0909,186.4514,519.3182,185.9575,509.5455,185.7265,499.7727,186.2731,490,185.9277,489.7158,185.9277,489.3018,176.1322,489.9542,166.3367,490.255,156.5411,489.4799,146.7456,489.4039,136.9501,490.5407,127.1545,489.2637,117.359,489.7316,107.5635,489.7878,97.7679,490.087,87.9724,490.5321,78.1769,490.0308,68.3813,490.3387,58.5858,490.358,48.7903,490.4511,38.9948,490,29.1992" style="stroke: #A80036; stroke-width: 1.5;"/><text fill="#000000" font-family="sans-serif" font-size="12" lengthAdjust="spacingAndGlyphs" textLength="167" x="514" y="45.8008">Admin\PermissionsController</text><path d="M491,53.332 L491,54.1961 L501.1429,53.9249 L511.2857,52.8187 L521.4286,53.2422 L531.5714,52.749 L541.7143,52.3605 L551.8571,53.7837 L562,52.8634 L572.1429,53.2281 L582.2857,52.6182 L592.4286,53.4017 L602.5714,52.8821 L612.7143,53.7748 L622.8571,53.976 L633,54.0506 L643.1429,52.6879 L653.2857,53.2753 L663.4286,54.187 L673.5714,53.2386 L683.7143,54.1238 L693.8571,53.7022 L704,53.332 " fill="#FEFECE" style="stroke: #A80036; stroke-width: 1.5;"/><path d="M491,61.332 L491,62.2779 L501.1429,61.0984 L511.2857,61.9601 L521.4286,60.6456 L531.5714,62.0945 L541.7143,61.7561 L551.8571,62.0387 L562,61.218 L572.1429,60.6573 L582.2857,62.0353 L592.4286,61.6734 L602.5714,60.7414 L612.7143,61.9805 L622.8571,61.2751 L633,61.3174 L643.1429,61.5383 L653.2857,60.7751 L663.4286,61.0478 L673.5714,61.1284 L683.7143,60.7467 L693.8571,61.417 L704,61.332 " fill="#FEFECE" style="stroke: #A80036; stroke-width: 1.5;"/><text fill="#000000" font-family="sans-serif" font-size="11" lengthAdjust="spacingAndGlyphs" textLength="190" x="496" y="75.9668">+アクセスルール一覧を表示：index()</text><text fill="#000000" font-family="sans-serif" font-size="11" lengthAdjust="spacingAndGlyphs" textLength="169" x="496" y="88.9219">+アクセスルール新規追加：add()</text><text fill="#000000" font-family="sans-serif" font-size="11" lengthAdjust="spacingAndGlyphs" textLength="147" x="496" y="101.877">+アクセスルール編集：edit()</text><text fill="#000000" font-family="sans-serif" font-size="11" lengthAdjust="spacingAndGlyphs" textLength="159" x="496" y="114.832">+アクセスルール削除：delete()</text><text fill="#000000" font-family="sans-serif" font-size="11" lengthAdjust="spacingAndGlyphs" textLength="203" x="496" y="127.7871">+アクセスルール順変更：update_sort()</text><text fill="#000000" font-family="sans-serif" font-size="11" lengthAdjust="spacingAndGlyphs" textLength="164" x="496" y="140.7422">+アクセスルールコピー：copy()</text><text fill="#000000" font-family="sans-serif" font-size="11" lengthAdjust="spacingAndGlyphs" textLength="178" x="496" y="153.6973">+アクセスルール有効化：publish()</text><text fill="#000000" font-family="sans-serif" font-size="11" lengthAdjust="spacingAndGlyphs" textLength="192" x="496" y="166.6523">+アクセスルール無効化：unpublish()</text><text fill="#000000" font-family="sans-serif" font-size="11" lengthAdjust="spacingAndGlyphs" textLength="179" x="496" y="179.6074">+アクセスルール一括処理：batch()</text><!--class PermissionsService--><polygon fill="#FEFECE" filter="url(#fbhq8fu)" points="540,369.1992,540,369.1397,549.5833,368.8456,559.1667,369.2252,568.75,369.4819,578.3333,369.2858,587.9167,368.5784,597.5,369.4912,607.0833,369.922,616.6667,369.2069,626.25,369.9059,635.8333,369.0826,645.4167,369.039,655,369.1992,655.6074,369.1992,655.4316,379.8168,655.7352,390.4344,655.4982,401.052,654.6458,411.6695,655,422.2871,655,421.8812,645.4167,422.6226,635.8333,422.2843,626.25,421.9374,616.6667,422.9172,607.0833,422.6334,597.5,422.0259,587.9167,422.5919,578.3333,421.7697,568.75,422.5178,559.1667,421.8339,549.5833,422.794,540,422.2871,540.6401,422.2871,540.2359,411.6695,540.4887,401.052,540.1723,390.4344,539.3049,379.8168,540,369.1992" style="stroke: #A80036; stroke-width: 1.5;"/><text fill="#000000" font-family="sans-serif" font-size="12" lengthAdjust="spacingAndGlyphs" textLength="108" x="543.5" y="385.8008">PermissionsService</text><path d="M541,393.332 L541,392.8963 L551.2727,392.3826 L561.5455,392.3706 L571.8182,393.0112 L582.0909,392.3881 L592.3636,393.3823 L602.6364,392.7585 L612.9091,393.3464 L623.1818,393.5535 L633.4545,393.2616 L643.7273,393.6967 L654,393.332 " fill="#FEFECE" style="stroke: #A80036; stroke-width: 1.5;"/><text fill="#000000" font-family="sans-serif" font-size="11" lengthAdjust="spacingAndGlyphs" textLength="103" x="546" y="407.9668">+PermissionsTable</text><path d="M541,414.2871 L541,413.5391 L551.2727,414.818 L561.5455,413.9576 L571.8182,414.5009 L582.0909,414.241 L592.3636,413.755 L602.6364,413.9281 L612.9091,415.2552 L623.1818,415.2055 L633.4545,413.6621 L643.7273,414.8564 L654,414.2871 " fill="#FEFECE" style="stroke: #A80036; stroke-width: 1.5;"/><!--class PermissionsServiceInterface--><polygon fill="#FEFECE" filter="url(#fbhq8fu)" points="158,246.1992,158,246.4802,167.9143,246.7053,177.8286,246.6392,187.7429,245.5085,197.6571,246.4282,207.5714,246.6457,217.4857,246.8452,227.4,246.2048,237.3143,246.5411,247.2286,246.4992,257.1429,245.7615,267.0571,246.8581,276.9714,246.0653,286.8857,246.8141,296.8,246.0799,306.7143,246.3779,316.6286,246.5538,326.5429,246.4688,336.4571,246.0673,346.3714,245.5054,356.2857,246.8806,366.2,245.7993,376.1143,246.9406,386.0286,245.6478,395.9429,245.9777,405.8571,246.1792,415.7714,245.5628,425.6857,246.8523,435.6,246.4329,445.5143,246.5006,455.4286,246.2477,465.3429,245.6097,475.2571,246.7016,485.1714,246.7037,495.0857,246.2701,505,246.1992,505.6779,246.1992,505.6135,256.1737,505.6378,266.1482,504.5523,276.1227,504.6059,286.0971,504.8979,296.0716,504.9105,306.0461,505.7341,316.0206,504.9391,325.9951,505.4247,335.9695,504.8119,345.944,505.2541,355.9185,504.4374,365.893,504.511,375.8674,505.1357,385.8419,504.9177,395.8164,504.4276,405.7909,504.8581,415.7654,505.6441,425.7398,505.5866,435.7143,504.754,445.6888,505.5801,455.6633,505.1438,465.6378,504.7168,475.6122,504.9445,485.5867,504.608,495.5612,504.9313,505.5357,504.7406,515.5102,504.3442,525.4846,505.696,535.4591,505,545.4336,505,544.8139,495.0857,545.3599,485.1714,544.7341,475.2571,544.943,465.3429,545.8433,455.4286,544.978,445.5143,546.1325,435.6,544.9755,425.6857,546.103,415.7714,546.0725,405.8571,544.6964,395.9429,544.832,386.0286,544.961,376.1143,544.8627,366.2,545.4621,356.2857,545.7131,346.3714,545.2535,336.4571,544.8011,326.5429,544.7303,316.6286,545.2541,306.7143,545.2903,296.8,545.0721,286.8857,546.0816,276.9714,545.7033,267.0571,545.2657,257.1429,545.3467,247.2286,545.7103,237.3143,545.2755,227.4,545.5348,217.4857,545.9001,207.5714,545.3979,197.6571,545.8755,187.7429,545.659,177.8286,545.758,167.9143,545.8997,158,545.4336,157.3377,545.4336,158.2777,535.4591,157.9308,525.4846,158.4282,515.5102,157.2527,505.5357,158.1257,495.5612,158.418,485.5867,158.1882,475.6122,157.2614,465.6378,158.2775,455.6633,157.4151,445.6888,157.9371,435.7143,157.797,425.7398,157.3838,415.7654,157.9573,405.7909,157.7377,395.8164,158.5208,385.8419,158.6391,375.8674,157.4385,365.893,157.2995,355.9185,157.7627,345.944,157.6146,335.9695,158.2091,325.9951,158.2082,316.0206,158.2138,306.0461,158.484,296.0716,158.3356,286.0971,157.4984,276.1227,157.5412,266.1482,158.6763,256.1737,158,246.1992" style="stroke: #A80036; stroke-width: 1.5;"/><text fill="#000000" font-family="sans-serif" font-size="12" lengthAdjust="spacingAndGlyphs" textLength="158" x="252.5" y="262.8008">PermissionsServiceInterface</text><path d="M159,270.332 L159,270.6301 L168.8571,270.3736 L178.7143,270.465 L188.5714,271.2647 L198.4286,270.0059 L208.2857,270.4839 L218.1429,270.9122 L228,269.9745 L237.8571,270.0788 L247.7143,271.2039 L257.5714,270.0773 L267.4286,271.0926 L277.2857,269.6809 L287.1429,269.5216 L297,271.0343 L306.8571,269.8775 L316.7143,270.0682 L326.5714,270.2016 L336.4286,269.5555 L346.2857,269.9214 L356.1429,269.5897 L366,271.0937 L375.8571,270.1944 L385.7143,270.6048 L395.5714,270.7772 L405.4286,271.2706 L415.2857,269.851 L425.1429,270.4885 L435,271.0896 L444.8571,270.6003 L454.7143,269.6764 L464.5714,270.8594 L474.4286,270.9634 L484.2857,269.6263 L494.1429,269.679 L504,270.332 " fill="#FEFECE" style="stroke: #A80036; stroke-width: 1.5;"/><path d="M159,278.332 L159,278.7604 L168.8571,278.9168 L178.7143,278.0908 L188.5714,278.5907 L198.4286,278.1398 L208.2857,279.2435 L218.1429,279.0819 L228,278.4271 L237.8571,279.2438 L247.7143,279.3066 L257.5714,277.6183 L267.4286,278.7503 L277.2857,278.0529 L287.1429,278.6053 L297,277.509 L306.8571,277.8942 L316.7143,277.4319 L326.5714,278.6366 L336.4286,278.5317 L346.2857,277.3568 L356.1429,277.7108 L366,279.1108 L375.8571,277.3728 L385.7143,279.1962 L395.5714,278.6583 L405.4286,278.3054 L415.2857,278.3531 L425.1429,278.5837 L435,279.2351 L444.8571,279.2525 L454.7143,277.7383 L464.5714,278.6735 L474.4286,278.1311 L484.2857,279.0563 L494.1429,278.3882 L504,278.332 " fill="#FEFECE" style="stroke: #A80036; stroke-width: 1.5;"/><text fill="#000000" font-family="sans-serif" font-size="11" lengthAdjust="spacingAndGlyphs" textLength="144" x="164" y="292.9668">+初期データ取得：getNew()</text><text fill="#000000" font-family="sans-serif" font-size="11" lengthAdjust="spacingAndGlyphs" textLength="83" x="164" y="305.9219">+作成：create()</text><text fill="#000000" font-family="sans-serif" font-size="11" lengthAdjust="spacingAndGlyphs" textLength="87" x="164" y="318.877">+編集：update()</text><text fill="#000000" font-family="sans-serif" font-size="11" lengthAdjust="spacingAndGlyphs" textLength="82" x="164" y="331.832">+削除：delete()</text><text fill="#000000" font-family="sans-serif" font-size="11" lengthAdjust="spacingAndGlyphs" textLength="122" x="164" y="344.7871">+単一データ取得：get()</text><text fill="#000000" font-family="sans-serif" font-size="11" lengthAdjust="spacingAndGlyphs" textLength="152" x="164" y="357.7422">+一覧データ取得：getIndex()</text><text fill="#000000" font-family="sans-serif" font-size="11" lengthAdjust="spacingAndGlyphs" textLength="119" x="164" y="370.6973">+リスト取得：getList()</text><text fill="#000000" font-family="sans-serif" font-size="11" lengthAdjust="spacingAndGlyphs" textLength="145" x="164" y="383.6523">+有効状態にする：publish()</text><text fill="#000000" font-family="sans-serif" font-size="11" lengthAdjust="spacingAndGlyphs" textLength="159" x="164" y="396.6074">+無効状態にする：unpublish()</text><text fill="#000000" font-family="sans-serif" font-size="11" lengthAdjust="spacingAndGlyphs" textLength="87" x="164" y="409.5625">+コピー：copy()</text><text fill="#000000" font-family="sans-serif" font-size="11" lengthAdjust="spacingAndGlyphs" textLength="335" x="164" y="422.5176">+許可・拒否を指定するメソッドのリストを取得：getMethodList()</text><text fill="#000000" font-family="sans-serif" font-size="11" lengthAdjust="spacingAndGlyphs" textLength="178" x="164" y="435.4727">+権限リストを取得：getAuthList()</text><text fill="#000000" font-family="sans-serif" font-size="11" lengthAdjust="spacingAndGlyphs" textLength="303" x="164" y="448.4277">+レコード作成に必要なデータを代入する：autoFillRecord()</text><text fill="#000000" font-family="sans-serif" font-size="11" lengthAdjust="spacingAndGlyphs" textLength="158" x="164" y="461.3828">+権限チェックを行う：check()</text><text fill="#000000" font-family="sans-serif" font-size="11" lengthAdjust="spacingAndGlyphs" textLength="287" x="164" y="474.3379">+標準アクセス許可リクエストを設定：setDefaultAllow()</text><text fill="#000000" font-family="sans-serif" font-size="11" lengthAdjust="spacingAndGlyphs" textLength="323" x="164" y="487.293">+標準アクセス許可リストからURLを検証：checkDefaultAllow()</text><text fill="#000000" font-family="sans-serif" font-size="11" lengthAdjust="spacingAndGlyphs" textLength="321" x="164" y="500.248">+標準アクセス拒否リストからURLを検証：checkDefaultDeny()</text><text fill="#000000" font-family="sans-serif" font-size="11" lengthAdjust="spacingAndGlyphs" textLength="258" x="164" y="513.2031">+パーミッションリストを検証する：checkGroup()</text><text fill="#000000" font-family="sans-serif" font-size="11" lengthAdjust="spacingAndGlyphs" textLength="224" x="164" y="526.1582">+権限チェック対象を追加する：addCheck()</text><text fill="#000000" font-family="sans-serif" font-size="11" lengthAdjust="spacingAndGlyphs" textLength="177" x="164" y="539.1133">+優先度を変更する：changeSort()</text><!--class PermissionsAdminServiceInterface--><polygon fill="#FEFECE" filter="url(#fbhq8fu)" points="6,81.1992,6,81.4323,16.1154,81.6179,26.2308,80.8923,36.3462,80.6863,46.4615,81.0527,56.5769,81.267,66.6923,80.5441,76.8077,81.49,86.9231,81.2642,97.0385,81.604,107.1538,81.2944,117.2692,81.1512,127.3846,81.1657,137.5,81.0892,147.6154,81.5163,157.7308,81.4987,167.8462,81.8941,177.9615,81.1527,188.0769,80.7419,198.1923,81.4756,208.3077,80.686,218.4231,80.4792,228.5385,80.7916,238.6538,81.5577,248.7692,81.7015,258.8846,81.8779,269,81.1992,269.2572,81.1992,268.6494,91.8168,269.3791,102.4344,268.5464,113.052,269.666,123.6695,269,134.2871,269,134.3204,258.8846,134.666,248.7692,133.9435,238.6538,134.3481,228.5385,134.2921,218.4231,133.687,208.3077,134.6601,198.1923,133.8448,188.0769,134.7071,177.9615,134.8417,167.8462,134.6903,157.7308,134.8783,147.6154,133.7133,137.5,134.7416,127.3846,133.6283,117.2692,134.4204,107.1538,134.0293,97.0385,133.5863,86.9231,134.3433,76.8077,134.7104,66.6923,135.0335,56.5769,134.132,46.4615,133.6857,36.3462,133.654,26.2308,134.317,16.1154,134.5971,6,134.2871,5.2753,134.2871,6.4497,123.6695,5.6434,113.052,5.7847,102.4344,5.3538,91.8168,6,81.1992" style="stroke: #A80036; stroke-width: 1.5;"/><text fill="#000000" font-family="sans-serif" font-size="12" lengthAdjust="spacingAndGlyphs" textLength="195" x="40" y="97.8008">PermissionsAdminServiceInterface</text><path d="M7,105.332 L7,105.9363 L17.0385,105.648 L27.0769,106.3048 L37.1154,105.3414 L47.1538,105.9777 L57.1923,105.5373 L67.2308,105.5767 L77.2692,106.1363 L87.3077,105.7364 L97.3462,105.7158 L107.3846,105.8039 L117.4231,104.5065 L127.4615,105.5832 L137.5,105.5378 L147.5385,104.4352 L157.5769,105.2235 L167.6154,104.7735 L177.6538,104.8805 L187.6923,105.6293 L197.7308,104.8364 L207.7692,106.0511 L217.8077,105.3083 L227.8462,106.2755 L237.8846,104.3349 L247.9231,106.0856 L257.9615,104.3327 L268,105.332 " fill="#FEFECE" style="stroke: #A80036; stroke-width: 1.5;"/><path d="M7,113.332 L7,113.8748 L17.0385,112.7222 L27.0769,113.5806 L37.1154,113.3307 L47.1538,113.8322 L57.1923,113.5155 L67.2308,112.9884 L77.2692,113.1429 L87.3077,113.9043 L97.3462,113.4963 L107.3846,113.554 L117.4231,114.0197 L127.4615,112.4268 L137.5,112.5229 L147.5385,112.8884 L157.5769,112.4185 L167.6154,112.5141 L177.6538,112.8922 L187.6923,113.4286 L197.7308,114.1737 L207.7692,112.6818 L217.8077,112.6082 L227.8462,112.9955 L237.8846,113.774 L247.9231,113.2819 L257.9615,112.9629 L268,113.332 " fill="#FEFECE" style="stroke: #A80036; stroke-width: 1.5;"/><text fill="#000000" font-family="sans-serif" font-size="11" lengthAdjust="spacingAndGlyphs" textLength="251" x="12" y="127.9668">+一覧表示用データ取得：getViewVarsForIndex()</text><!--class PermissionsTable--><polygon fill="#FEFECE" filter="url(#fbhq8fu)" points="544,605.1992,544,605.0976,553.7273,604.8565,563.4545,605.5321,573.1818,605.0085,582.9091,605.4331,592.6364,605.5206,602.3636,605.8401,612.0909,604.561,621.8182,605.6039,631.5455,605.1279,641.2727,605.0068,651,605.1992,651.02,605.1992,650.7758,613.2258,651.0182,621.2523,651.1888,629.2789,651.0031,637.3055,651,645.332,651,645.8063,641.2727,645.755,631.5455,645.444,621.8182,645.2436,612.0909,645.767,602.3636,645.461,592.6364,645.941,582.9091,645.8407,573.1818,645.3892,563.4545,645.569,553.7273,645.3247,544,645.332,544.107,645.332,543.9107,637.3055,544.1243,629.2789,544.1098,621.2523,543.7872,613.2258,544,605.1992" style="stroke: #A80036; stroke-width: 1.5;"/><text fill="#000000" font-family="sans-serif" font-size="12" lengthAdjust="spacingAndGlyphs" textLength="101" x="547" y="621.8008">PermissionsTable</text><path d="M545,629.332 L545,629.8943 L554.5455,630.1276 L564.0909,629.1358 L573.6364,628.4262 L583.1818,629.7517 L592.7273,629.8783 L602.2727,630.2029 L611.8182,628.8659 L621.3636,630.0792 L630.9091,628.9269 L640.4545,629.169 L650,629.332 " fill="#FEFECE" style="stroke: #A80036; stroke-width: 1.5;"/><path d="M545,637.332 L545,636.7676 L554.5455,637.1335 L564.0909,636.3366 L573.6364,638.2625 L583.1818,637.0435 L592.7273,637.6242 L602.2727,637.0546 L611.8182,636.9362 L621.3636,636.5167 L630.9091,637.6828 L640.4545,637.8844 L650,637.332 " fill="#FEFECE" style="stroke: #A80036; stroke-width: 1.5;"/><!--class Permission--><polygon fill="#FEFECE" filter="url(#fbhq8fu)" points="466.5,705.1992,466.5,704.5145,476.5769,704.5322,486.6538,705.3464,496.7308,705.7997,506.8077,705.4526,516.8846,705.1611,526.9615,705.7984,537.0385,705.3295,547.1154,704.7376,557.1923,704.5551,567.2692,705.487,577.3462,705.8716,587.4231,705.7008,597.5,705.1085,607.5769,705.0783,617.6538,705.6585,627.7308,705.4471,637.8077,705.4178,647.8846,704.4533,657.9615,704.7416,668.0385,704.7272,678.1154,705.2567,688.1923,705.5193,698.2692,705.2931,708.3462,704.6977,718.4231,704.7643,728.5,705.1992,728.0641,705.1992,729.0801,715.1806,728.8786,725.162,727.769,735.1434,727.9775,745.1248,727.8836,755.1062,729.0676,765.0875,728.6972,775.0689,728.7266,785.0503,729.0881,795.0317,728.3524,805.0131,729.1048,814.9945,728.4579,824.9759,728.6783,834.9573,727.9174,844.9386,728.2602,854.92,728.4021,864.9014,728.5,874.8828,728.5,874.7057,718.4231,875.3497,708.3462,875.1689,698.2692,875.3706,688.1923,875.1095,678.1154,874.2669,668.0385,874.633,657.9615,875.3641,647.8846,874.6204,637.8077,874.3634,627.7308,875.4165,617.6538,875.6291,607.5769,874.3757,597.5,874.4168,587.4231,875.3692,577.3462,875.4385,567.2692,875.2515,557.1923,874.3569,547.1154,874.8729,537.0385,874.3782,526.9615,874.2597,516.8846,875.134,506.8077,874.1989,496.7308,874.2541,486.6538,874.8003,476.5769,875.4989,466.5,874.8828,467.0553,874.8828,466.1649,864.9014,465.9499,854.92,466.7449,844.9386,466.4448,834.9573,466.4912,824.9759,466.6988,814.9945,466.8669,805.0131,466.5903,795.0317,467.1763,785.0503,466.9412,775.0689,465.7933,765.0875,466.4082,755.1062,466.508,745.1248,466.7567,735.1434,466.9961,725.162,466.5692,715.1806,466.5,705.1992" style="stroke: #A80036; stroke-width: 1.5;"/><text fill="#000000" font-family="sans-serif" font-size="12" lengthAdjust="spacingAndGlyphs" textLength="62" x="566.5" y="721.8008">Permission</text><path d="M467.5,729.332 L467.5,729.2166 L477.5,728.4495 L487.5,728.8795 L497.5,728.4392 L507.5,729.0391 L517.5,730.0918 L527.5,729.2203 L537.5,729.1776 L547.5,728.4961 L557.5,728.7782 L567.5,729.6714 L577.5,729.644 L587.5,728.3818 L597.5,728.5272 L607.5,728.6122 L617.5,729.5116 L627.5,728.8699 L637.5,729.9872 L647.5,728.9465 L657.5,729.0599 L667.5,728.4283 L677.5,729.2418 L687.5,728.4695 L697.5,728.4712 L707.5,730.0846 L717.5,729.4537 L727.5,729.332 " fill="#FEFECE" style="stroke: #A80036; stroke-width: 1.5;"/><text fill="#000000" font-family="sans-serif" font-size="11" lengthAdjust="spacingAndGlyphs" textLength="49" x="472.5" y="743.9668">+No：no</text><text fill="#000000" font-family="sans-serif" font-size="11" lengthAdjust="spacingAndGlyphs" textLength="75" x="472.5" y="756.9219">+設定順：sort</text><text fill="#000000" font-family="sans-serif" font-size="11" lengthAdjust="spacingAndGlyphs" textLength="137" x="472.5" y="769.877">+アクセスルール名：name</text><text fill="#000000" font-family="sans-serif" font-size="11" lengthAdjust="spacingAndGlyphs" textLength="198" x="472.5" y="782.832">+ユーザーグループID：user_group_id</text><text fill="#000000" font-family="sans-serif" font-size="11" lengthAdjust="spacingAndGlyphs" textLength="78" x="472.5" y="795.7871">+URL設定：url</text><text fill="#000000" font-family="sans-serif" font-size="11" lengthAdjust="spacingAndGlyphs" textLength="110" x="472.5" y="808.7422">+アクセス可否：auth</text><text fill="#000000" font-family="sans-serif" font-size="11" lengthAdjust="spacingAndGlyphs" textLength="250" x="472.5" y="821.6973">+権限（全て / 表示・編集 / 表示のみ）：method</text><text fill="#000000" font-family="sans-serif" font-size="11" lengthAdjust="spacingAndGlyphs" textLength="186" x="472.5" y="834.6523">+ステータス（有効 / 無効）：status</text><text fill="#000000" font-family="sans-serif" font-size="11" lengthAdjust="spacingAndGlyphs" textLength="93" x="472.5" y="847.6074">+登録日：created</text><text fill="#000000" font-family="sans-serif" font-size="11" lengthAdjust="spacingAndGlyphs" textLength="100" x="472.5" y="860.5625">+編集日：modified</text><path d="M467.5,866.8828 L467.5,867.1793 L477.5,866.9713 L487.5,866.7108 L497.5,866.9912 L507.5,866.5585 L517.5,866.5591 L527.5,867.2394 L537.5,867.2882 L547.5,867.6145 L557.5,865.9401 L567.5,867.0782 L577.5,865.8955 L587.5,866.0661 L597.5,866.4914 L607.5,866.186 L617.5,866.7434 L627.5,865.9157 L637.5,867.0398 L647.5,866.7142 L657.5,865.9314 L667.5,867.3299 L677.5,866.5342 L687.5,867.398 L697.5,866.0044 L707.5,867.554 L717.5,867.6034 L727.5,866.8828 " fill="#FEFECE" style="stroke: #A80036; stroke-width: 1.5;"/><!--class PermissionsAdminService--><polygon fill="#FEFECE" filter="url(#fbhq8fu)" points="304,87.6992,304,87.2456,314.0667,87.7318,324.1333,87.5357,334.2,88.2939,344.2667,87.7904,354.3333,87.0335,364.4,88.0003,374.4667,88.3638,384.5333,87.7027,394.6,88.3245,404.6667,88.0739,414.7333,87.5411,424.8,88.1325,434.8667,87.4939,444.9333,87.0311,455,87.6992,454.7898,87.6992,454.9304,95.7258,455.045,103.7523,455.0385,111.7789,454.7627,119.8055,455,127.832,455,128.1164,444.9333,127.7018,434.8667,127.5794,424.8,127.5076,414.7333,128.2423,404.6667,128.1241,394.6,128.1303,384.5333,128.3532,374.4667,128.2677,364.4,128.3671,354.3333,127.3519,344.2667,128.5277,334.2,128.5012,324.1333,128.2375,314.0667,127.6719,304,127.832,304.0088,127.832,303.9582,119.8055,304.1776,111.7789,304.0116,103.7523,304.0634,95.7258,304,87.6992" style="stroke: #A80036; stroke-width: 1.5;"/><text fill="#000000" font-family="sans-serif" font-size="12" lengthAdjust="spacingAndGlyphs" textLength="145" x="307" y="104.3008">PermissionsAdminService</text><path d="M305,111.832 L305,111.813 L314.9333,111.5476 L324.8667,111.1989 L334.8,111.1187 L344.7333,110.9726 L354.6667,111.8446 L364.6,112.3398 L374.5333,111.6558 L384.4667,111.9805 L394.4,111.9619 L404.3333,112.2159 L414.2667,111.5843 L424.2,110.8992 L434.1333,112.282 L444.0667,111.035 L454,111.832 " fill="#FEFECE" style="stroke: #A80036; stroke-width: 1.5;"/><path d="M305,119.832 L305,120.7659 L314.9333,120.3273 L324.8667,119.397 L334.8,120.7754 L344.7333,120.1049 L354.6667,119.4125 L364.6,120.1449 L374.5333,120.7707 L384.4667,120.6908 L394.4,120.6905 L404.3333,119.8305 L414.2667,119.7991 L424.2,119.0387 L434.1333,120.094 L444.0667,119.7192 L454,119.832 " fill="#FEFECE" style="stroke: #A80036; stroke-width: 1.5;"/><path d="M597.5,186.4692 L598.0632,186.4692 L596.545,196.3203 L598.0602,206.1714 L598.3314,216.0226 L597.7732,225.8737 L598.2162,235.7248 L597.586,245.5759 L598.3481,255.427 L597.7694,265.2781 L597.5598,275.1292 L597.3953,284.9803 L598.1116,294.8314 L597.6218,304.6826 L597.1344,314.5337 L596.9805,324.3848 L597.6622,334.2359 L598.0902,344.087 L597.8177,353.9381 L597.5,363.7892 " fill="none" style="stroke: #000000; stroke-width: 1.0;"/><polygon fill="#000000" points="597.5,368.9992,597.4583,368.9807,598.4485,367.2652,599.1134,365.4052,600.0561,363.6686,600.9011,361.8886,601.5,359.9992,601.6137,360.113,600.8194,360.9186,599.7427,361.4419,599.2393,362.5385,598.1992,363.0984,597.5,363.9992,597.3929,363.8921,596.5797,363.0789,595.8087,362.3079,595.0673,361.5665,594.4646,360.9639,593.5,359.9992,593.4909,359.9952,594.1271,361.7224,595.1474,363.6203,595.9352,365.4148,596.9238,367.2987,597.5,368.9992" style="stroke: #000000; stroke-width: 1.0;"/><path d="M460.4,107.6992 L460.4,107.5072 L466.266,107.7734 L472.132,107.9046 L477.998,107.641 L483.864,107.5812 L489.73,107.6992 " fill="none" style="stroke: #000000; stroke-width: 1.0;"/><polygon fill="#000000" points="455.29,107.6992,455.2595,107.6307,457.0733,108.4617,458.9914,109.5273,460.6967,110.1143,462.4746,110.8645,464.29,111.6992,464.3729,111.7821,463.3443,110.7535,462.6162,110.0254,461.7599,109.1691,461.0562,108.4655,460.29,107.6992,460.4619,107.8711,461.203,107.0122,462.027,106.2363,462.6833,105.2926,463.3953,104.4045,464.29,103.6992,464.377,103.895,462.4349,104.3752,460.6591,105.2297,458.976,106.2928,457.1831,107.1087,455.29,107.6992" style="stroke: #000000; stroke-width: 1.0;"/><path d="M289.54,107.6992 L289.54,107.6158 L292.39,107.7887 L295.24,107.7056 L298.09,107.3862 L300.94,107.8279 L303.79,107.6992 " fill="none" style="stroke: #000000; stroke-width: 1.0; stroke-dasharray: 1.0,3.0;"/><polygon fill="none" points="289.37,114.6992,289.3338,114.5958,285.3283,113.1802,281.3003,111.7,277.3525,110.4491,273.33,108.9849,269.37,107.6992,269.3598,107.6702,273.3336,106.1951,277.3483,104.8373,281.3092,103.3255,285.375,102.1136,289.37,100.6992,289.3706,100.6992,289.2396,103.4992,289.477,106.2992,289.2663,109.0992,289.212,111.8992,289.37,114.6992" style="stroke: #000000; stroke-width: 1.0;"/><path d="M597.5,422.3492 L597.3901,422.3492 L597.2792,432.2109 L597.3458,442.0726 L598.081,451.9342 L597.6309,461.7959 L597.433,471.6576 L596.9888,481.5192 L597.3831,491.3809 L596.5046,501.2426 L598.3597,511.1042 L597.5104,520.9659 L597.9726,530.8276 L597.9096,540.6892 L597.3212,550.5509 L598.0367,560.4126 L598.411,570.2742 L597.9961,580.1359 L598.3453,589.9976 L597.5,599.8592 " fill="none" style="stroke: #000000; stroke-width: 1.0;"/><polygon fill="#000000" points="597.5,604.8992,597.468,604.885,598.4815,603.1799,599.0117,601.26,599.6819,599.4023,600.4987,597.6098,601.5,595.8992,601.4955,595.8947,600.8379,596.8371,599.8947,597.4939,599.0987,598.298,598.1397,598.939,597.5,599.8992,597.5425,599.9417,596.6547,599.0539,596.0709,598.4702,595.1615,597.5607,594.4227,596.8219,593.5,595.8992,593.5,595.8992,594.3186,597.7075,595.1603,599.526,595.8981,601.2984,596.8315,603.1577,597.5,604.8992" style="stroke: #000000; stroke-width: 1.0;"/><path d="M525.07,395.6992 L525.07,395.9115 L527.996,395.9602 L530.922,395.5303 L533.848,395.8783 L536.774,395.887 L539.7,395.6992 " fill="none" style="stroke: #000000; stroke-width: 1.0; stroke-dasharray: 1.0,3.0;"/><polygon fill="none" points="525.02,402.6992,524.9538,402.5102,521.0909,401.5017,517.0575,400.0064,513.0693,398.6402,508.9695,396.9551,505.02,395.6992,505.0051,395.6566,509.0055,394.2579,512.9383,392.6657,517.052,391.5906,521.0567,390.204,525.02,388.6992,524.8345,388.6992,524.8832,391.4992,524.9267,394.2992,524.9042,397.0992,524.8683,399.8992,525.02,402.6992" style="stroke: #000000; stroke-width: 1.0;"/><path d="M597.5,645.2192 L596.9549,645.2192 L596.6683,656.2052 L597.6685,667.1912 L597.1171,678.1772 L597.8127,689.1632 L597.5,700.1492 " fill="none" style="stroke: #000000; stroke-width: 1.0;"/><polygon fill="#000000" points="597.5,705.1592,597.4713,705.1465,598.2637,703.3431,598.9577,701.496,600.0009,699.8041,600.8951,698.0459,601.5,696.1592,601.5889,696.2482,600.5851,696.8443,599.8728,697.732,599.0174,698.4767,598.3943,699.4535,597.5,700.1592,597.6493,700.3085,596.5378,699.1971,595.7989,698.4582,595.2562,697.9155,594.2366,696.8958,593.5,696.1592,593.5069,696.1623,594.3284,697.9718,595.2963,699.8465,596.1222,701.658,596.6741,703.3477,597.5,705.1592" style="stroke: #000000; stroke-width: 1.0;"/></g></svg>