<?xml version="1.0" encoding="UTF-8" standalone="no"?><svg xmlns="http://www.w3.org/2000/svg" xmlns:xlink="http://www.w3.org/1999/xlink" contentScriptType="application/ecmascript" contentStyleType="text/css" height="483px" preserveAspectRatio="none" style="width:363px;height:483px;" version="1.1" viewBox="0 0 363 483" width="363px" zoomAndPan="magnify"><defs><filter height="300%" id="fvidew6" width="300%" x="-1" y="-1"><feGaussianBlur result="blurOut" stdDeviation="2.0"/><feColorMatrix in="blurOut" result="blurOut2" type="matrix" values="0 0 0 0 0 0 0 0 0 0 0 0 0 0 0 0 0 0 .4 0"/><feOffset dx="4.0" dy="4.0" in="blurOut2" result="blurOut3"/><feBlend in="SourceGraphic" in2="blurOut3" mode="normal"/></filter></defs><g><text fill="#000000" font-family="sans-serif" font-size="18" lengthAdjust="spacingAndGlyphs" textLength="306" x="42" y="17.4023">ユースケース：ユーザーグループ管理</text><!--cluster ユーザーグループ管理--><polygon fill="#FFFFFF" filter="url(#fvidew6)" points="92,45.1992,92,45.9044,101.7333,44.9586,111.4667,45.2647,121.2,44.5135,130.9333,45.1319,140.6667,45.2605,150.4,45.9227,160.1333,44.6438,169.8667,44.8218,179.6,44.9281,189.3333,45.8114,199.0667,44.7246,208.8,45.4145,218.5333,45.8465,228.2667,45.5692,238,45.1992,237.9969,45.1982,239.2548,49.6517,240.8465,54.209,241.988,58.6262,243.7693,63.2425,245,67.6875,245,68.3123,255.0909,67.2223,265.1818,67.2932,275.2727,67.6371,285.3636,67.1522,295.4545,67.8661,305.5455,68.1942,315.6364,67.3814,325.7273,67.9613,335.8182,66.94,345.9091,67.2098,356,67.6875,356.2566,67.6875,355.259,77.6512,355.831,87.6149,355.8813,97.5786,356.1333,107.5423,356.0761,117.506,355.7421,127.4697,355.3288,137.4334,355.6838,147.3971,356.0809,157.3608,356.661,167.3245,355.9676,177.2882,355.3302,187.2519,355.7122,197.2156,355.7274,207.1793,355.7471,217.143,356.6628,227.1067,355.6778,237.0704,355.5436,247.0341,355.271,256.9978,355.6664,266.9615,355.5903,276.9252,356.2546,286.8889,355.5829,296.8526,355.4433,306.8163,355.3175,316.78,356.0118,326.7437,355.4613,336.7074,356.4825,346.6711,355.5715,356.6348,355.4992,366.5985,356.0226,376.5622,356.2194,386.5259,355.6585,396.4896,355.3345,406.4533,356.5898,416.417,355.8359,426.3807,355.3505,436.3444,356.5608,446.3081,355.328,456.2718,355.474,466.2355,356,476.1992,356,476.2206,345.8462,476.8141,335.6923,476.7876,325.5385,475.4753,315.3846,476.71,305.2308,475.7898,295.0769,476.9298,284.9231,476.6179,274.7692,476.3376,264.6154,476.0146,254.4615,476.1117,244.3077,476.2743,234.1538,475.5956,224,476.9231,213.8462,476.6446,203.6923,476.2308,193.5385,476.2876,183.3846,476.9443,173.2308,476.0141,163.0769,476.1779,152.9231,476.2661,142.7692,476.6104,132.6154,476.556,122.4615,476.5185,112.3077,475.9453,102.1538,475.8653,92,476.1992,92.3611,476.1992,92.6669,466.176,91.7298,456.1527,92.3705,446.1295,91.548,436.1062,92.5546,426.0829,92.2014,416.0597,91.3025,406.0364,91.4229,396.0132,91.7395,385.9899,92.6667,375.9667,92.0051,365.9434,91.4735,355.9201,92.3685,345.8969,92.2283,335.8736,92.6601,325.8504,91.5109,315.8271,92.6637,305.8039,92.2962,295.7806,91.7586,285.7574,92.1988,275.7341,91.697,265.7108,92.0084,255.6876,92.1905,245.6643,92.4332,235.6411,92.252,225.6178,92.6412,215.5946,92.0025,205.5713,91.2559,195.5481,92.7099,185.5248,91.9406,175.5015,91.9567,165.4783,92.3909,155.455,91.8556,145.4318,92.0934,135.4085,92.6764,125.3853,91.7877,115.362,91.9738,105.3388,91.9891,95.3155,92.5853,85.2922,92.7473,75.269,92.591,65.2457,92.4915,55.2225,92,45.1992" style="stroke: #000000; stroke-width: 2.0;"/><path d="M92,67.6875 L92,68.3912 L102.2,67.3967 L112.4,68.6568 L122.6,67.8919 L132.8,68.2354 L143,68.129 L153.2,67.0712 L163.4,68.5641 L173.6,68.2484 L183.8,67.4421 L194,67.376 L204.2,66.703 L214.4,67.4858 L224.6,66.7029 L234.8,68.3173 L245,67.6875 " fill="#FFFFFF" style="stroke: #000000; stroke-width: 2.0;"/><text fill="#000000" font-family="sans-serif" font-size="14" font-weight="bold" lengthAdjust="spacingAndGlyphs" textLength="140" x="96" y="60.7344">ユーザーグループ管理</text><polygon fill="#FEFECE" filter="url(#fvidew6)" points="339.2377,110.4921,334.5193,114.287,325.8565,117.6154,315.7119,120.8917,307.4723,124.7278,289.8565,126.4943,275.1235,128.7578,260.1206,130.6868,242.9197,131.7265,221.9322,131.4072,206.1828,131.6147,186.6566,130.2685,169.4421,128.6395,156.2487,127.0516,139.7533,123.8557,131.079,121.496,122.0626,118.1817,115.9677,114.6657,110.4551,110.4852,109.7122,106.6374,111.6841,102.7595,113.1264,98.2415,119.9506,94.5073,129.264,91.0475,143.5412,88.5441,155.5806,85.5467,171.7882,83.6086,190.1018,82.4104,207.9638,81.5167,222.7782,80.4734,243.6974,81.407,258.1516,81.6336,276.3777,83.4859,292.7623,85.7783,307.6831,88.6266,316.4893,91.0154,328.7187,95.0389,331.7367,97.8757,338.83,102.4051,339.4851,106.2335" style="stroke: #A80036; stroke-width: 1.5;"/><text fill="#000000" font-family="sans-serif" font-size="14" lengthAdjust="spacingAndGlyphs" textLength="210" x="118.8014" y="111.0036">ユーザーグループ一覧を表示する</text><polygon fill="#FEFECE" filter="url(#fvidew6)" points="326.5256,193.9956,323.139,197.5875,316.5971,200.8379,309.0665,204.115,295.7559,206.2263,285.9973,209.1309,270.7632,210.6876,255.717,212.0388,238.1227,212.4578,223.3549,213.0376,207.7502,212.8647,193.5542,212.3589,177.3201,210.685,163.1372,208.7081,150.3586,206.2545,141.1205,203.7913,132.2035,200.6094,127.625,197.6354,123.6759,194.0889,121.6697,190.3289,122.1056,186.5485,127.6602,183.4408,132.372,179.7815,142.3296,177.0466,150.4616,173.7787,163.8292,171.6801,175.3746,169.2997,190.9776,168.0727,207.1414,167.3343,222.6752,166.9255,240.4346,167.5797,254.491,168.0542,271.2283,169.8405,282.6402,171.1986,295.2857,173.6225,308.1299,176.891,314.9359,179.6014,322.3438,183.2073,327.0238,186.9171,327.3062,190.2921" style="stroke: #A80036; stroke-width: 1.5;"/><text fill="#000000" font-family="sans-serif" font-size="14" lengthAdjust="spacingAndGlyphs" textLength="182" x="132.9007" y="194.9235">ユーザーグループを作成する</text><polygon fill="#FEFECE" filter="url(#fvidew6)" points="324.4198,274.5253,323.7249,278.7183,317.1938,281.9712,305.4236,284.3014,295.0348,287.0653,285.0099,289.9104,269.9703,291.5105,255.5741,293.0069,241.2824,294.1634,225.2052,294.4508,207.2888,293.7616,192.3606,293.0924,176.1969,291.4342,162.9237,289.6605,152.2531,287.6776,140.5267,284.6587,130.9386,281.327,124.072,277.8419,124.0477,275.1719,121.5944,271.3121,120.4871,267.187,127.5097,264.4071,133.1641,260.9584,140.4765,257.6327,152.9589,255.3364,164.5962,252.8513,176.9395,250.6491,192.0536,249.313,207.7693,248.4745,225.8994,248.6456,238.8298,248.2213,253.8308,248.9068,271.7242,250.9513,284.429,252.598,295.201,254.6036,306.7885,257.5914,314.9569,260.6061,322.5494,264.2533,327.4452,268.0112,328.6765,271.5981" style="stroke: #A80036; stroke-width: 1.5;"/><text fill="#000000" font-family="sans-serif" font-size="14" lengthAdjust="spacingAndGlyphs" textLength="182" x="132.9007" y="275.9235">ユーザーグループを編集する</text><polygon fill="#FEFECE" filter="url(#fvidew6)" points="326.2099,355.9251,323.2066,359.6026,317.4036,363.0181,307.4965,365.7643,296.1426,368.3127,286.0995,371.1537,269.5951,372.4267,257.6,374.4594,239.6589,374.8009,224.3939,375.2696,207.4952,374.8077,192.2298,374.0632,176.5766,372.519,162.7393,370.6193,149.4402,368.0494,141.3865,365.8507,130.9307,362.3252,124.3674,358.9079,121.2883,355.5557,120.1786,351.9959,122.7912,348.7016,127.7777,345.467,134.135,342.1753,141.1473,338.7825,149.6057,335.5876,163.2746,333.5562,177.9612,331.8773,191.5227,330.1944,208.4136,329.6184,225.1438,329.4768,240.496,329.5934,254.7253,330.1066,269.8135,331.5246,284.2747,333.5636,295.341,335.6348,307.3591,338.7189,315.1401,341.647,323.7618,345.524,325.2755,348.5266,324.9627,351.7687" style="stroke: #A80036; stroke-width: 1.5;"/><text fill="#000000" font-family="sans-serif" font-size="14" lengthAdjust="spacingAndGlyphs" textLength="182" x="132.9007" y="356.9235">ユーザーグループを削除する</text><polygon fill="#FEFECE" filter="url(#fvidew6)" points="331.3822,438.6683,327.7425,442.4514,321.6224,446.0676,313.1585,449.4246,302.3429,452.3918,289.9187,455.002,273.2925,456.5474,257.9008,458.1057,242.9568,459.3797,224.1187,459.2928,206.0354,458.7761,191.0407,458.2613,174.0248,456.545,161.7203,455.0709,145.2158,451.8302,134.5316,449.0363,124.6221,445.5799,118.6353,442.1905,115.4228,438.6642,113.393,434.7168,116.0947,431.2221,119.1382,427.3067,126.7116,424.0131,136.5746,420.9666,148.4611,418.2371,161.6001,415.7855,172.7254,413.0192,188.4967,411.5452,205.581,410.7462,224.5482,410.8617,242.0237,411.2436,259.2351,412.2504,273.3148,413.3149,289.7528,415.7064,301.1555,417.8149,312.7173,420.8035,320.2621,423.7351,329.8284,427.9189,333.3827,431.5211,334.3166,435.2253" style="stroke: #A80036; stroke-width: 1.5;"/><text fill="#000000" font-family="sans-serif" font-size="14" lengthAdjust="spacingAndGlyphs" textLength="196" x="125.8163" y="439.7066">ユーザーグループをコピーする</text><!--entity 管理者--><polygon fill="#FEFECE" filter="url(#fvidew6)" points="35.0935,241.2335,34.0696,243.2222,32.4209,245.1802,30.998,246.8448,29.2336,247.2617,27.8026,247.7864,25.7701,247.5862,23.2134,246.6005,21.3591,245.4368,20.622,243.918,19.8532,242.5623,19.5042,241.2259,19.4226,238.5996,19.7495,236.7906,20.7367,235.1462,21.4953,233.4805,23.8932,231.9415,25.8949,231.4264,28.061,232.0438,29.8117,231.971,31.9563,233.5934,33.4976,234.3167,34.0243,236.4276,34.3711,238.2297,35.2634,239.5903,34.9892,242.2264" style="stroke: #A80036; stroke-width: 2.0;"/><path d="M27,247.6992 L26.3866,247.6992 L26.6396,253.0992 L27.4057,258.4992 L26.901,263.8992 L26.6717,269.2992 L27,274.6992 M14,255.6992 L14,255.0623 L19.2,255.3253 L24.4,255.2384 L29.6,255.1354 L34.8,255.6205 L40,255.6992 M27,274.6992 L26.9714,274.6745 L24.6313,277.8997 L21.8218,280.7181 L18.7639,283.3213 L16.5183,286.6284 L14,289.6992 M27,274.6992 L26.8723,274.5885 L29.3368,277.4711 L31.911,280.4488 L34.9912,283.8649 L37.1438,286.4772 L40,289.6992 " fill="#FEFECE" style="stroke: #A80036; stroke-width: 2.0;"/><text fill="#000000" font-family="sans-serif" font-size="14" lengthAdjust="spacingAndGlyphs" textLength="42" x="6" y="310.2344">管理者</text><path d="M37.67,229.6892 L37.4742,229.6246 L38.5296,227.7112 L38.9781,225.5976 L39.7436,223.5885 L40.2704,221.5007 L41.0352,219.4914 L40.9028,219.4417 L42.0678,217.4601 L42.5925,215.2381 L43.4802,213.1523 L44.4371,211.0925 L45.0145,208.8903 L45.2403,208.9873 L45.6597,206.6127 L46.8978,204.59 L47.7462,202.3997 L48.9101,200.345 L49.6476,198.1071 L49.6793,198.1229 L50.6039,195.9043 L51.6041,193.7233 L52.8745,191.6761 L53.7903,189.4532 L54.9737,187.363 L54.9652,187.358 L56.1117,185.2235 L57.2073,183.0596 L58.7346,181.1451 L59.6811,178.895 L61.0326,176.879 L60.7614,176.6937 L62.1859,174.733 L63.6778,172.8183 L65.1014,170.857 L66.5694,168.926 L67.8636,166.8763 L67.9043,166.9097 L69.2604,164.908 L70.8257,163.0781 L72.3585,161.2216 L74.1422,159.5712 L75.5062,157.576 L75.6228,157.6942 L77.2638,155.9602 L78.9034,154.2249 L80.6276,152.5754 L82.1634,150.7348 L84,149.1992 L84.0249,149.2311 L86.1427,147.8559 L88.0731,146.241 L90.0435,144.6773 L92.0385,143.1451 L93.9075,141.4517 L94.0391,141.6609 L96.1711,140.2839 L98.1866,138.7218 L100.2937,137.3054 L102.4918,136.0335 L104.6475,134.6942 L104.519,134.4441 L106.8829,133.4565 L109.0634,132.1119 L111.5604,131.3833 L113.5912,129.7472 L116.0063,128.8592 L116.0928,129.0637 L118.3809,127.9149 L120.6848,126.8034 L123.075,125.8959 L125.3336,124.6775 L127.77,123.8792 " fill="none" style="stroke: #A80036; stroke-width: 1.0;"/><polygon fill="#A80036" points="132.71,122.0592,132.7238,122.2774,130.7555,122.1149,128.7818,121.8668,126.8016,121.5143,124.8428,121.5022,122.8808,121.4379,122.8604,121.3935,123.9979,122.1035,125.0388,122.6031,126.0599,123.0596,126.9861,123.3091,128.0219,123.7976,128.0353,123.8038,127.4067,124.7601,127.0666,125.8489,126.8058,126.974,126.3181,127.995,125.6622,128.9388,125.7915,129.0712,127.0307,127.5208,128.3805,126.0837,129.7355,124.6519,131.381,123.5177,132.71,122.0592" style="stroke: #A80036; stroke-width: 1.0;"/><path d="M48.15,253.7592 L48.0788,253.6664 L49.7578,252.4981 L51.2965,251.1469 L52.9513,249.947 L54.7682,248.9586 L56.2561,247.5411 L56.3236,247.6367 L58.1343,246.4426 L59.836,245.094 L61.7148,243.9962 L63.2843,242.4604 L65.1113,241.2892 L65.2493,241.5075 L66.8684,239.9335 L68.9795,239.1374 L70.8503,237.9614 L72.6216,236.6282 L74.4483,235.3823 L74.596,235.6546 L76.2464,234.1389 L78.2917,233.351 L80.2399,232.384 L82.1545,231.3554 L84,230.1992 L83.8676,229.9075 L87.0481,229.1651 L89.8037,227.4865 L92.7384,226.2026 L95.6099,224.7795 L98.5827,223.5794 L98.4977,223.3632 L101.6079,222.3568 L104.5637,220.9578 L107.587,219.7303 L110.7089,218.7536 L113.7663,217.613 L113.7378,217.5305 L116.7463,216.234 L120.0061,215.665 L122.9575,214.2029 L126.0665,213.1974 L129.2067,212.2822 L129.2212,212.3292 L132.3432,211.5541 L135.4128,210.6081 L138.4588,209.5852 L141.4289,208.3149 L144.56,207.5692 " fill="none" style="stroke: #A80036; stroke-width: 1.0;"/><polygon fill="#A80036" points="149.41,206.1892,149.4352,206.3647,147.4725,205.9942,145.5458,205.8751,143.5805,205.4864,141.6365,205.2468,139.6612,204.7888,139.6369,204.7453,140.7148,205.4591,141.6996,206.0065,142.5555,206.3233,143.7097,207.1737,144.5986,207.5496,144.4192,207.4492,143.9865,208.5035,143.4564,209.5033,142.8621,210.4673,142.5296,211.5776,141.8378,212.487,141.8208,212.4665,143.1926,211.0354,144.9079,210.0175,146.3643,208.6881,147.8989,207.4528,149.41,206.1892" style="stroke: #A80036; stroke-width: 1.0;"/><path d="M48.13,271.1992 L48.13,270.321 L57.7671,271.6808 L67.4043,270.9534 L77.0414,270.7292 L86.6786,270.4355 L96.3157,271.1083 L105.9529,270.8318 L115.59,271.1992 " fill="none" style="stroke: #A80036; stroke-width: 1.0;"/><polygon fill="#A80036" points="120.78,271.1992,120.7439,271.1179,118.9936,270.4299,117.1439,269.518,115.3604,268.755,113.4786,267.7712,111.78,267.1992,111.8182,267.2375,112.5924,268.0116,113.3674,268.7867,114.0313,269.4505,115.0961,270.5153,115.78,271.1992,115.6567,271.0759,114.8272,271.8465,114.17,272.7893,113.4788,273.698,112.7282,274.5474,111.78,275.1992,111.8671,275.3951,113.5437,274.3176,115.3209,273.4662,117.23,272.9117,119.0205,272.0904,120.78,271.1992" style="stroke: #A80036; stroke-width: 1.0;"/><path d="M48.23,288.1492 L48.3645,288.3294 L49.6557,289.0973 L51.482,290.5818 L53.0008,291.6546 L54.6827,292.9458 L56.3447,294.2103 L56.3119,294.1628 L58.088,295.3933 L59.7855,296.5099 L61.4667,297.6028 L63.4815,299.1793 L65.1925,300.3155 L65.1605,300.2639 L67.2063,301.717 L69.0734,302.8824 L70.8801,303.9506 L72.5375,304.7785 L74.5016,306.1 L74.4318,305.9701 L76.5397,307.3777 L78.2758,308.0929 L80.0455,308.8706 L82.0946,310.1688 L84,311.1992 L83.9666,311.1253 L87.0437,312.6684 L90.1162,314.2015 L92.967,315.2439 L95.9265,316.5268 L98.9523,317.9566 L98.8465,317.6874 L102.0033,319.0256 L105.1472,320.3312 L108.2693,321.5811 L111.3503,322.7268 L114.5112,324.0755 L114.5727,324.2524 L117.5656,324.8691 L120.7826,326.131 L123.9573,327.2709 L127.229,328.69 L130.312,329.5663 L130.37,329.7527 L133.4052,330.4043 L136.4844,331.1976 L139.6515,332.2736 L142.8027,333.2981 L145.99,334.4392 " fill="none" style="stroke: #A80036; stroke-width: 1.0;"/><polygon fill="#A80036" points="150.93,335.8692,150.798,335.7123,149.4525,334.637,147.8596,333.2676,146.4951,332.1698,145.0178,330.9378,143.3926,329.5299,143.3011,329.4794,143.8145,330.4515,144.6179,331.5837,145.0302,332.5,145.4943,333.4449,146.1262,334.4824,146.0686,334.378,145.1207,335.0021,144.0852,335.4672,143.2124,336.2272,142.217,336.765,141.1737,337.216,141.203,337.4285,143.1121,336.854,145.0847,336.7387,146.9976,336.1915,148.9631,336.0252,150.93,335.8692" style="stroke: #A80036; stroke-width: 1.0;"/><path d="M37.94,312.9492 L37.8393,312.9154 L38.6001,314.9576 L39.1024,316.9129 L39.9549,318.9859 L40.835,321.0682 L41.3231,323.0187 L41.3751,323.0386 L41.924,325.0343 L42.9222,327.2015 L43.5911,329.243 L44.3871,331.3331 L45.3098,333.4714 L45.148,333.4009 L45.9814,335.485 L47.077,337.6832 L48.1329,339.8642 L49.0319,341.9768 L49.9376,344.0924 L49.8324,344.0396 L50.8624,346.1388 L51.9555,348.2697 L52.8888,350.3203 L54.187,352.5541 L55.2437,354.6667 L55.2675,354.6806 L56.3392,356.6657 L57.6827,358.8095 L58.7206,360.7748 L60.0456,362.9077 L61.2657,364.9795 L61.4095,365.0785 L62.6947,366.9977 L64.2146,369.0785 L65.4584,370.9692 L66.5673,372.7669 L68.0408,374.8158 L67.8969,374.6967 L69.3482,376.4746 L71.1449,378.5382 L72.4547,380.1989 L74.2449,382.2571 L75.6064,383.9607 L75.7862,384.1439 L77.0552,385.3742 L78.9705,387.2629 L80.8357,389.1005 L82.1287,390.3553 L84,392.1992 L84.0068,392.208 L86.2947,394.0594 L88.2798,395.5191 L90.5941,397.4046 L92.3351,398.549 L94.6569,400.4441 L94.5026,400.1928 L97.1169,402.0989 L99.2248,403.1805 L101.6438,404.7684 L104.0421,406.3227 L106.2475,407.563 L106.3503,407.7705 L108.775,408.9296 L111.2701,410.2306 L113.6246,411.248 L116.1911,412.6933 L118.5094,413.6375 L118.5158,413.6535 L121.0836,414.7594 L123.6944,415.9716 L126.2068,416.9401 L128.5455,417.478 L131.18,418.7492 " fill="none" style="stroke: #A80036; stroke-width: 1.0;"/><polygon fill="#A80036" points="136,420.4392,135.9623,420.3993,134.7056,419.2344,133.031,417.6264,131.818,416.5078,130.3342,415.1021,128.8358,413.681,128.8249,413.6757,129.507,414.7882,129.7135,415.6725,130.0845,416.6357,130.8208,417.7742,131.2829,418.7811,131.2618,418.737,130.3587,419.4702,129.3413,419.965,128.2845,420.3778,127.1471,420.6226,126.1828,421.2283,126.1821,421.2191,128.1578,421.2139,130.1064,420.8723,132.0607,420.6002,134.0495,420.7585,136,420.4392" style="stroke: #A80036; stroke-width: 1.0;"/></g></svg>