<?xml version="1.0" encoding="UTF-8" standalone="no"?><svg xmlns="http://www.w3.org/2000/svg" xmlns:xlink="http://www.w3.org/1999/xlink" contentScriptType="application/ecmascript" contentStyleType="text/css" height="445px" preserveAspectRatio="none" style="width:351px;height:445px;" version="1.1" viewBox="0 0 351 445" width="351px" zoomAndPan="magnify"><defs><filter height="300%" id="f9xpdbz" width="300%" x="-1" y="-1"><feGaussianBlur result="blurOut" stdDeviation="2.0"/><feColorMatrix in="blurOut" result="blurOut2" type="matrix" values="0 0 0 0 0 0 0 0 0 0 0 0 0 0 0 0 0 0 .4 0"/><feOffset dx="4.0" dy="4.0" in="blurOut2" result="blurOut3"/><feBlend in="SourceGraphic" in2="blurOut3" mode="normal"/></filter></defs><g><text fill="#000000" font-family="sans-serif" font-size="18" lengthAdjust="spacingAndGlyphs" textLength="216" x="81" y="17.4023">ユースケース：お気に入り</text><!--cluster お気に入り--><polygon fill="#FFFFFF" filter="url(#f9xpdbz)" points="106,45.1992,106,45.1912,115.5,45.1642,125,45.2137,134.5,45.397,144,44.6796,153.5,45.3723,163,45.2065,172.5,45.7987,182,45.1992,182.1974,45.2607,183.523,49.7351,184.7818,54.1889,186.3297,58.7326,187.5843,63.185,189,67.6875,189,66.9565,198.6875,67.3784,208.375,68.0906,218.0625,66.9596,227.75,67.2406,237.4375,67.7942,247.125,66.9692,256.8125,68.2292,266.5,68.2069,276.1875,67.4018,285.875,68.2298,295.5625,67.4759,305.25,67.8397,314.9375,68.0732,324.625,67.847,334.3125,67.6725,344,67.6875,344.0712,67.6875,344.1773,77.7013,343.8737,87.7152,344.2994,97.729,343.5077,107.7428,344.6035,117.7567,344.5482,127.7705,344.0241,137.7843,344.2648,147.7981,343.8888,157.812,343.9075,167.8258,344.7492,177.8396,343.7969,187.8535,344.6336,197.8673,344.1123,207.8811,343.4984,217.895,343.7484,227.9088,344.3732,237.9226,343.5283,247.9364,343.5992,257.9503,344.0166,267.9641,343.6863,277.9779,344.2129,287.9918,344.4914,298.0056,343.6406,308.0194,343.8323,318.0333,343.5807,328.0471,343.5111,338.0609,343.5759,348.0747,343.8562,358.0886,344.4065,368.1024,344.404,378.1162,344.679,388.1301,344.7046,398.1439,343.2898,408.1577,343.4322,418.1716,343.5179,428.1854,344,438.1992,344,438.8345,334.0833,438.136,324.1667,438.639,314.25,438.6204,304.3333,438.2894,294.4167,438.8118,284.5,437.8322,274.5833,438.6962,264.6667,438.9216,254.75,438.0753,244.8333,438.812,234.9167,438.8858,225,437.6325,215.0833,438.4409,205.1667,437.569,195.25,437.4626,185.3333,438.7825,175.4167,437.901,165.5,438.7142,155.5833,438.7526,145.6667,438.6794,135.75,437.805,125.8333,437.6715,115.9167,438.2319,106,438.1992,106.3422,438.1992,105.7141,428.1223,106.7044,418.0454,105.3508,407.9684,106.6548,397.8915,105.8379,387.8146,105.2783,377.7377,105.7419,367.6608,106.7093,357.5838,105.3291,347.5069,106.6999,337.43,106.7103,327.3531,106.6213,317.2761,105.3083,307.1992,105.4671,297.1223,106.3186,287.0454,105.2741,276.9684,106.4057,266.8915,105.6944,256.8146,105.3661,246.7377,106.4224,236.6608,106.4411,226.5838,105.4614,216.5069,106.2156,206.43,105.621,196.3531,106.3892,186.2761,105.723,176.1992,105.5184,166.1223,106.716,156.0454,106.6612,145.9684,106.2013,135.8915,105.5883,125.8146,105.3454,115.7377,106.1792,105.6608,106.1462,95.5838,106.6997,85.5069,105.7484,75.43,106.4423,65.3531,106.2101,55.2761,106,45.1992" style="stroke: #000000; stroke-width: 2.0;"/><path d="M106,67.6875 L106,68.5087 L116.375,68.59 L126.75,68.029 L137.125,68.2701 L147.5,68.6322 L157.875,68.1326 L168.25,67.0893 L178.625,67.0248 L189,67.6875 " fill="#FFFFFF" style="stroke: #000000; stroke-width: 2.0;"/><text fill="#000000" font-family="sans-serif" font-size="14" font-weight="bold" lengthAdjust="spacingAndGlyphs" textLength="70" x="110" y="60.7344">お気に入り</text><polygon fill="#FEFECE" filter="url(#f9xpdbz)" points="324.9035,106.41,322.6595,110.257,315.9716,113.4749,309.8519,117.067,296.8427,119.2457,284.7453,121.628,271.0403,123.5261,256.6663,125.0275,239.483,125.5383,226.2783,126.4671,208.6605,125.8446,194.6965,125.3907,178.3458,123.6908,163.1925,121.4972,153.4569,119.7231,142.1319,116.7938,135.2294,114.0619,126.5134,110.1638,124.842,107.126,120.5629,102.8584,124.377,99.8324,128.2207,96.3426,134.2595,92.9797,139.8224,89.2633,150.272,86.513,163.2681,84.3314,177.5347,82.5587,191.6171,80.9922,208.6513,80.4482,223.6242,79.9142,239.1475,80.0689,257.6269,81.5312,273.3919,83.1004,286.0469,84.736,296.6406,86.7017,306.3152,89.2624,317.7883,93.0151,323.6629,96.2786,326.7753,99.6382,326.2542,102.8338" style="stroke: #A80036; stroke-width: 1.5;"/><text fill="#000000" font-family="sans-serif" font-size="14" lengthAdjust="spacingAndGlyphs" textLength="182" x="133.9007" y="107.9235">お気に入りを一覧で表示する</text><polygon fill="#FEFECE" filter="url(#f9xpdbz)" points="309.1411,183.6189,306.1835,186.5849,301.214,189.3955,295.0419,192.1385,284.8191,194.0607,274.6769,196.0013,263.3457,197.5654,251.8401,198.8826,238.8495,199.5562,226.5887,200.0025,211.2237,199.2657,198.4025,198.5679,185.7285,197.3065,176.4013,196.1724,165.3681,193.9865,158.5195,192.0866,151.0357,189.3795,144.566,186.2667,142.4285,183.5466,141.2591,180.5054,141.7353,177.3664,144.4341,174.3412,150.801,171.8499,158.7204,169.5062,164.2333,166.5078,175.4879,164.8214,187.5746,163.4299,197.6765,161.792,211.4754,161.3031,224.8619,161.1139,239.7359,161.7386,251.6347,162.2257,264.911,163.6247,274.5116,164.8212,284.5142,166.7716,292.1541,168.8524,301.7696,172.0466,306.4334,174.7467,310.0963,177.8153,310.7442,180.7373" style="stroke: #A80036; stroke-width: 1.5;"/><text fill="#000000" font-family="sans-serif" font-size="14" lengthAdjust="spacingAndGlyphs" textLength="140" x="155.2351" y="185.1904">お気に入りを登録する</text><polygon fill="#FEFECE" filter="url(#f9xpdbz)" points="309.4552,256.6907,303.8265,259.0464,301.1509,262.3811,291.7873,264.3948,286.3549,267.4116,275.9089,269.2828,263.958,270.7054,251.0003,271.6907,239.7011,272.7508,226.4989,272.982,211.4189,272.3103,197.7053,271.4086,188.3925,270.9152,175.7306,269.0192,164.4944,266.7869,157.2252,264.7908,151.3824,262.4587,145.7201,259.5304,140.8657,256.1895,139.8008,253.1722,140.67,250.123,144.9498,247.4591,150.3783,244.7534,157.952,242.3307,167.0361,240.1483,177.308,238.2373,187.5297,236.4196,198.9275,235.0778,213.0933,234.6728,224.138,233.9485,238.7818,234.5206,251.563,235.2093,264.7547,236.5889,274.6266,237.8475,286.0063,240.1125,293.0881,242.0658,300.6022,244.7798,306.6549,247.7973,308.8701,250.5352,309.8774,253.5393" style="stroke: #A80036; stroke-width: 1.5;"/><text fill="#000000" font-family="sans-serif" font-size="14" lengthAdjust="spacingAndGlyphs" textLength="140" x="155.2351" y="258.1904">お気に入りを編集する</text><polygon fill="#FEFECE" filter="url(#f9xpdbz)" points="306.8803,329.1023,304.5089,332.2023,301.682,335.5025,293.6215,337.8139,284.3615,339.9561,274.8826,342.0483,263.7834,343.6655,250.0939,344.4836,239.8283,345.7798,226.4153,345.9629,212.5414,345.5668,200.6674,345.0854,187.7752,343.7742,176.4881,342.1922,166.9393,340.3455,158.7024,338.1284,149.0516,334.9261,145.016,332.3695,141.1112,329.2456,140.0461,326.2283,143.1642,323.6929,144.9987,320.4702,150.227,317.7188,155.7938,314.8375,165.332,312.7589,174.3502,310.5614,186.8775,309.2706,199.8339,308.2849,212.3745,307.5085,223.7524,306.8604,239.7664,307.7456,251.2709,308.1425,263.4369,309.2878,274.0003,310.7044,284.1101,312.6793,293.4578,315.1503,299.0953,317.4355,305.685,320.5757,307.739,323.2767,311.1349,326.8266" style="stroke: #A80036; stroke-width: 1.5;"/><text fill="#000000" font-family="sans-serif" font-size="14" lengthAdjust="spacingAndGlyphs" textLength="140" x="155.2351" y="331.1904">お気に入りを削除する</text><polygon fill="#FEFECE" filter="url(#f9xpdbz)" points="314.9681,404.5733,311.639,407.6918,304.884,410.3577,298.2178,413.264,289.701,415.8626,278.8258,417.9267,266.0741,419.4543,251.6787,420.3892,240.6369,421.7603,223.5324,421.3388,212.3696,421.7596,197.8137,420.835,184.753,419.6141,173.0562,418.0243,159.1737,415.2354,153.4033,413.5716,143.4028,410.2455,139.2486,407.5661,135.2893,404.2958,133.727,400.9919,136.9642,398.2715,139.7287,395.025,143.4057,391.6617,151.6535,389.1138,159.6074,386.3877,173.2195,384.9436,182.0608,382.5301,198.3346,382.0208,210.5932,380.9254,223.832,380.471,238.6264,380.873,252.7504,381.6998,265.7197,382.9,278.1,384.6446,290.4221,387.08,297.2942,388.9934,304.7161,391.7353,312.255,395.1816,313.1473,397.757,313.4152,400.7676" style="stroke: #A80036; stroke-width: 1.5;"/><text fill="#000000" font-family="sans-serif" font-size="14" lengthAdjust="spacingAndGlyphs" textLength="154" x="147.8393" y="405.9112">お気に入りを並び替える</text><!--entity ユーザー--><polygon fill="#FEFECE" filter="url(#f9xpdbz)" points="41.7287,224.3398,40.7245,226.6746,38.511,228.0807,36.2804,229.1087,35.0231,230.1336,33.2602,230.108,30.7517,228.681,28.7695,227.2818,27.3048,225.5373,25.9827,223.3048,26.093,221.1176,26.6859,218.5915,28.2927,216.6475,30.0867,215.0324,31.1077,213.7206,33.0187,214.1998,35.409,213.4989,37.5135,214.9198,39.3029,216.0141,40.9236,217.674,41.9548,219.9344,41.4874,222.6506" style="stroke: #A80036; stroke-width: 2.0;"/><path d="M34,229.6992 L33.7008,229.6992 L33.5364,235.0992 L33.8616,240.4992 L34.1485,245.8992 L34.2607,251.2992 L34,256.6992 M21,237.6992 L21,237.5343 L26.2,237.516 L31.4,237.5879 L36.6,237.0583 L41.8,238.2062 L47,237.6992 M34,256.6992 L33.793,256.5198 L31.5919,259.8655 L28.6479,262.5674 L26.1242,265.6335 L23.4668,268.5838 L21,271.6992 M34,256.6992 L34.3232,256.9793 L36.8092,259.8805 L38.9439,262.4772 L41.709,265.6204 L44.1687,268.4988 L47,271.6992 " fill="#FEFECE" style="stroke: #A80036; stroke-width: 2.0;"/><text fill="#000000" font-family="sans-serif" font-size="14" lengthAdjust="spacingAndGlyphs" textLength="56" x="6" y="292.2344">ユーザー</text><path d="M50.06,211.4692 L50.0437,211.4613 L51.9292,207.945 L53.4066,204.2296 L55.5223,200.8257 L56.8946,197.059 L58.8008,193.5528 L58.6617,193.4745 L60.0118,191.8209 L60.8313,189.8685 L61.7087,187.9487 L63.0142,186.2701 L63.962,184.3899 L63.789,184.2813 L65.222,182.65 L66.0263,180.6239 L67.4485,178.9858 L68.2407,176.9521 L69.6613,175.313 L69.63,175.2909 L71.1493,173.7172 L72.2228,171.8281 L73.5232,170.0996 L74.4109,168.079 L75.9066,166.4887 L75.995,166.5602 L77.1601,164.7216 L78.7105,163.1948 L79.8116,161.3044 L81.5518,159.9311 L82.7061,158.0837 L82.936,158.3002 L84.2133,156.5528 L85.8345,155.1292 L87.0814,153.3532 L88.8378,152.0569 L90.0679,150.265 L90.1666,150.3758 L91.8727,149.0971 L93.4606,147.6855 L94.6757,145.8555 L96.2633,144.4436 L98,143.1992 L98.1879,143.4593 L99.8826,141.6246 L101.967,140.3291 L103.8131,138.7038 L105.8285,137.3129 L107.9222,136.0303 L108.0849,136.3079 L109.9542,134.5985 L112.3216,133.7391 L114.3327,132.2717 L116.5122,131.0917 L118.6075,129.768 L118.6212,129.7964 L120.7847,128.5456 L123.221,127.86 L125.4466,126.7378 L127.6386,125.5461 L129.8291,124.3512 L129.9258,124.5921 L132.0235,123.1468 L134.5523,122.7745 L136.6251,121.2669 L139.072,120.6909 L141.36,119.7192 " fill="none" style="stroke: #A80036; stroke-width: 1.0;"/><polygon fill="#A80036" points="146.17,118.0192,146.1547,117.8196,144.1976,117.7595,142.2357,117.6364,140.277,117.554,138.3113,117.3812,136.35,117.266,136.3909,117.3522,137.3286,117.6609,138.3274,118.0983,139.3788,118.6462,140.5272,119.3981,141.459,119.6945,141.4181,119.6751,141.0133,120.7354,140.57,121.7773,139.8142,122.6708,139.4363,123.7438,139.0305,124.8036,139.0454,124.8193,140.4376,123.4248,142.0395,122.251,143.3923,120.8152,144.7404,119.3743,146.17,118.0192" style="stroke: #A80036; stroke-width: 1.0;"/><path d="M62.12,235.2392 L62.0128,235.0591 L63.7977,234.2088 L65.5127,233.241 L67.3598,232.4952 L69.0031,231.407 L70.5781,230.2041 L70.437,229.9515 L72.2787,229.0405 L74.2096,228.2888 L75.7916,226.913 L77.7062,226.1322 L79.535,225.198 L79.5871,225.2992 L81.2971,224.09 L83.1973,223.2504 L85.1203,222.4549 L87.0523,221.677 L88.7544,220.4525 L88.6228,220.1666 L90.6446,219.6911 L92.414,218.6673 L94.3097,217.9177 L96.0252,216.7766 L98,216.1992 L97.9576,216.0932 L100.9783,214.8157 L104.0424,213.6465 L107.1872,212.6791 L110.2992,211.6299 L113.2228,210.1095 L113.2489,210.1834 L116.3882,209.035 L119.5028,207.8168 L122.7851,207.0729 L125.8949,205.841 L128.98,204.5392 L128.9863,204.5591 L132.1293,203.459 L135.4256,202.8413 L138.4581,201.393 L141.6321,200.3903 L144.8422,199.5014 L144.7619,199.2237 L147.8739,198.3408 L151.0396,197.6432 L154.0878,196.5394 L157.1799,195.5876 L160.38,195.0092 " fill="none" style="stroke: #A80036; stroke-width: 1.0;"/><polygon fill="#A80036" points="165.23,193.6892,165.2339,193.7146,163.2555,193.2129,161.2992,192.8553,159.3878,192.791,157.4398,192.488,155.4943,192.2007,155.5325,192.2676,156.4532,192.7205,157.5494,193.4807,158.4171,193.8409,159.3646,194.3408,160.4065,195.006,160.5065,195.0631,159.7311,195.9232,159.1558,196.8975,158.8304,198.0145,158.3182,199.0249,157.6012,199.9182,157.7159,200.0588,159.0222,198.5442,160.7759,197.5775,162.3199,196.354,163.6751,194.8993,165.23,193.6892" style="stroke: #A80036; stroke-width: 1.0;"/><path d="M62.08,253.1992 L62.08,252.3077 L72.5786,253.8394 L83.0771,252.6525 L93.5757,253.2232 L104.0743,253.9751 L114.5729,252.2785 L125.0714,253.1937 L135.57,253.1992 " fill="none" style="stroke: #A80036; stroke-width: 1.0;"/><polygon fill="#A80036" points="140.9,253.1992,140.9846,253.3895,139.0926,252.3827,137.2592,251.5074,135.5765,250.9713,133.6295,249.8406,131.9,249.1992,131.8812,249.1804,132.6447,249.9439,133.3992,250.6985,134.2595,251.5587,135.1025,252.4017,135.9,253.1992,135.9544,253.2536,135.1022,254.0014,134.2708,254.7701,133.3239,255.4231,132.8022,256.5014,131.9,257.1992,131.9315,257.27,133.6266,256.2342,135.4863,255.5683,137.3495,254.9106,139.0151,253.8082,140.9,253.1992" style="stroke: #A80036; stroke-width: 1.0;"/><path d="M62.2,270.5892 L62.3007,270.7685 L65.5759,272.359 L69.2916,274.7336 L72.7578,276.6641 L76.1277,278.4232 L79.6013,280.3667 L79.7308,280.6232 L81.4889,281.3919 L83.2414,282.1497 L84.9682,282.8564 L87.0033,284.1735 L88.7964,285.0117 L88.8424,285.1129 L90.7579,286.1146 L92.4836,286.6994 L94.2057,287.2763 L96.2277,288.5121 L98,289.1992 L97.9295,289.0225 L101.0592,290.2753 L104.2295,291.6297 L107.3193,292.7824 L110.6309,294.4908 L113.6397,295.4405 L113.6258,295.4014 L116.9283,296.739 L120.0416,297.5442 L123.3182,298.809 L126.6534,300.2386 L129.8175,301.1867 L129.8603,301.3199 L133.0131,302.0585 L136.3326,303.3154 L139.4814,304.0416 L142.8435,305.4314 L146.0741,306.4117 L146.0515,306.335 L149.2839,307.4649 L152.4931,308.5158 L155.6671,309.4473 L158.6993,309.8975 L161.95,311.0892 " fill="none" style="stroke: #A80036; stroke-width: 1.0;"/><polygon fill="#A80036" points="166.88,312.4692,166.981,312.5915,165.3893,311.2491,163.8518,309.9724,162.4642,308.8771,160.9003,307.5684,159.2856,306.1982,159.24,306.1725,159.9829,307.2636,160.1804,308.0472,161.1401,309.2605,161.4243,310.093,162.0638,311.1258,162.1051,311.1991,160.9808,311.5085,160.1519,312.342,159.1497,312.8681,158.1453,313.3902,157.1362,313.9041,157.1026,313.6759,159.0813,313.5925,161.0474,313.423,162.9703,312.9602,164.9545,312.9142,166.88,312.4692" style="stroke: #A80036; stroke-width: 1.0;"/><path d="M50.22,294.8792 L49.968,294.7548 L51.9874,298.43 L54.0061,302.1049 L55.6349,305.5873 L57.37,309.1222 L58.9597,312.5853 L58.9305,312.5687 L59.7049,314.2316 L61.2157,316.3141 L62.0167,317.9922 L63.1974,319.8866 L64.1127,321.6298 L64.3131,321.7571 L65.3167,323.463 L66.5096,325.2892 L67.6857,327.1046 L68.7594,328.8551 L69.7975,330.583 L69.8437,330.616 L71.1416,332.3936 L72.3792,334.128 L73.421,335.7223 L74.5642,337.3892 L76.0214,339.2807 L75.8344,339.1278 L77.5041,341.0416 L78.6909,342.5604 L80.1344,344.2891 L81.6424,346.0707 L82.7916,347.5588 L82.8011,347.5678 L84.0532,348.9042 L85.7455,350.6597 L87.3187,352.3018 L88.6456,353.7094 L90.1154,355.253 L89.9114,355.0214 L91.8485,356.8196 L93.097,357.836 L94.9478,359.5362 L96.4199,360.8064 L98,362.1992 L97.9692,362.1555 L100.4173,364.0224 L102.6477,365.5804 L104.9356,367.2199 L106.8854,368.3792 L109.2414,370.1155 L109.1889,370.0211 L111.8071,371.7077 L114.0545,372.728 L116.4698,374.05 L119.077,375.7169 L121.4063,376.8842 L121.4845,377.0591 L123.8609,377.8058 L126.6239,379.4168 L129.0326,380.2356 L131.7525,381.7502 L134.173,382.5955 L134.2164,382.7149 L136.7753,383.5248 L139.3367,384.3415 L142.0514,385.5799 L144.6909,386.6114 L147.22,387.3392 " fill="none" style="stroke: #A80036; stroke-width: 1.0;"/><polygon fill="#A80036" points="152.13,388.8992,152.1723,388.9469,150.6368,387.5702,149.1075,386.2005,147.7934,385.0734,146.2504,383.6882,144.7616,382.3641,144.7618,382.3642,145.0844,383.2662,145.8431,384.3941,146.4684,385.4529,146.88,386.401,147.3642,387.3867,147.3511,387.3614,146.4409,388.064,145.3276,388.3745,144.2746,388.8014,143.4226,389.6164,142.3417,389.9893,142.3178,389.7755,144.2835,389.629,146.2555,389.54,148.2061,389.2583,150.1675,389.0741,152.13,388.8992" style="stroke: #A80036; stroke-width: 1.0;"/></g></svg>