<?xml version="1.0" encoding="UTF-8" standalone="no"?><svg xmlns="http://www.w3.org/2000/svg" xmlns:xlink="http://www.w3.org/1999/xlink" contentScriptType="application/ecmascript" contentStyleType="text/css" height="240px" preserveAspectRatio="none" style="width:532px;height:240px;" version="1.1" viewBox="0 0 532 240" width="532px" zoomAndPan="magnify"><defs><filter height="300%" id="fpvaqi9" width="300%" x="-1" y="-1"><feGaussianBlur result="blurOut" stdDeviation="2.0"/><feColorMatrix in="blurOut" result="blurOut2" type="matrix" values="0 0 0 0 0 0 0 0 0 0 0 0 0 0 0 0 0 0 .4 0"/><feOffset dx="4.0" dy="4.0" in="blurOut2" result="blurOut3"/><feBlend in="SourceGraphic" in2="blurOut3" mode="normal"/></filter></defs><g><text fill="#000000" font-family="sans-serif" font-size="18" lengthAdjust="spacingAndGlyphs" textLength="241" x="159" y="17.4023">ユースケース：Googleマップ</text><!--cluster Googleマップ--><polygon fill="#FFFFFF" filter="url(#fpvaqi9)" points="106,45.6992,106,45.47,115.8,45.8026,125.6,46.4407,135.4,45.7595,145.2,45.8398,155,45.456,164.8,46.0367,174.6,45.4278,184.4,45.8574,194.2,45.109,204,45.6992,204.0716,45.7215,205.4342,50.2075,206.8987,54.7253,208.1848,59.1875,209.5605,63.6776,211,68.1875,211,67.4621,221.129,68.2772,231.2581,68.7644,241.3871,68.7225,251.5161,67.4831,261.6452,67.5868,271.7742,68.6236,281.9032,68.8894,292.0323,68.3971,302.1613,68.3232,312.2903,68.0601,322.4194,67.5824,332.5484,68.1608,342.6774,68.3349,352.8065,68.4902,362.9355,68.2874,373.0645,68.7383,383.1935,67.9875,393.3226,67.6252,403.4516,67.5836,413.5806,67.7298,423.7097,67.8144,433.8387,68.6534,443.9677,67.9625,454.0968,68.7217,464.2258,68.1795,474.3548,67.7686,484.4839,68.8499,494.6129,67.9049,504.7419,68.5292,514.871,68.5246,525,68.1875,524.591,68.1875,524.7676,78.1549,524.4769,88.1224,525.2259,98.0898,524.3626,108.0573,524.9973,118.0247,524.8334,127.9922,525.6281,137.9596,525.3879,147.9271,524.8978,157.8945,525.0188,167.862,524.3596,177.8294,525.6905,187.7969,524.8581,197.7643,525.3191,207.7318,525,217.6992,525,217.6424,515.0238,218.0099,505.0476,217.3127,495.0714,217.7506,485.0952,217.6663,475.119,218.2563,465.1429,217.0019,455.1667,217.7116,445.1905,217.1531,435.2143,217.9052,425.2381,217.6304,415.2619,217.5416,405.2857,218.2498,395.3095,217.0622,385.3333,218.2254,375.3571,217.1014,365.381,217.27,355.4048,217.9683,345.4286,217.5359,335.4524,217.937,325.4762,217.1622,315.5,217.5445,305.5238,217.282,295.5476,217.5901,285.5714,218.3523,275.5952,217.4461,265.619,217.1782,255.6429,218.3982,245.6667,217.1107,235.6905,218.3188,225.7143,217.7618,215.7381,218.0145,205.7619,217.6233,195.7857,218.3274,185.8095,218.4383,175.8333,218.1707,165.8571,217.3055,155.881,217.358,145.9048,217.1133,135.9286,217.2019,125.9524,218.0802,115.9762,217.0787,106,217.6992,106.6215,217.6992,106.3467,207.5816,106.1613,197.4639,106.5805,187.3463,106.172,177.2286,106.6367,167.111,106.6165,156.9933,105.9066,146.8757,105.5393,136.758,106.6062,126.6404,105.4721,116.5227,106.7347,106.4051,106.475,96.2875,105.3328,86.1698,106.0935,76.0522,105.5491,65.9345,105.6916,55.8169,106,45.6992" style="stroke: #000000; stroke-width: 2.0;"/><path d="M106,68.1875 L106,67.3348 L115.5455,67.425 L125.0909,67.8047 L134.6364,68.698 L144.1818,68.1199 L153.7273,68.2379 L163.2727,68.2402 L172.8182,67.994 L182.3636,67.6814 L191.9091,68.0995 L201.4545,68.8826 L211,68.1875 " fill="#FFFFFF" style="stroke: #000000; stroke-width: 2.0;"/><text fill="#000000" font-family="sans-serif" font-size="14" font-weight="bold" lengthAdjust="spacingAndGlyphs" textLength="92" x="110" y="61.2344">Googleマップ</text><polygon fill="#FEFECE" filter="url(#fpvaqi9)" points="313.6175,106.2353,312.253,110.037,302.7059,112.3421,295.4507,115.3963,286.7631,118.2467,275.1668,120.443,262.8047,122.3488,250.2433,123.9762,232.2217,124.0325,220.0192,124.9529,202.9843,124.252,189.9086,123.8296,173.3012,121.9394,162.8759,120.7201,150.1412,118.2348,141.7322,115.9659,130.756,112.373,126.1575,109.495,123.0712,106.2833,120.3937,102.5518,125.081,99.9417,125.844,96.0047,133.6656,93.3115,142.0389,90.5088,149.6383,87.4138,160.0589,84.9531,172.9037,83.1558,188.671,82.2493,201.5945,81.0466,219.4989,81.4083,232.3678,81.1725,249.2608,82.4532,262.1364,83.5043,275.7872,85.4488,287.8146,87.7752,295.3038,89.8372,305.2251,93.1929,311.4483,96.4362,313.0414,99.3122,313.4527,102.5341" style="stroke: #A80036; stroke-width: 1.5;"/><text fill="#000000" font-family="sans-serif" font-size="14" lengthAdjust="spacingAndGlyphs" textLength="168" x="134.5689" y="107.6571">住所より緯度、経度を取得</text><polygon fill="#FEFECE" filter="url(#fpvaqi9)" points="310.6793,184.0748,307.5749,187.3643,303.1619,190.6919,294.5169,193.2913,283.2197,195.407,272.7999,197.7208,261.4555,199.711,246.1763,200.5862,234.6413,201.9731,218.3749,201.8605,203.3227,201.5027,190.6405,201.0857,176.8538,199.7651,164.5734,198.0861,150.5542,195.2894,142.3519,193.0711,135.976,190.5396,131.1423,187.6579,126.205,184.0984,126.4736,181.1198,125.8936,177.4304,128.725,174.0792,134.4261,171.0423,142.1529,168.2357,151.6976,165.7245,164.0724,163.8519,174.4519,161.644,190.9827,161.0512,204.7942,160.1781,220.071,160.0673,232.856,159.9134,246.9611,160.6516,260.8062,161.9853,274.9369,164.082,282.8942,165.5106,293.7658,168.3314,300.4626,170.9352,305.9767,173.9705,310.3919,177.4121,311.8071,180.7708" style="stroke: #A80036; stroke-width: 1.5;"/><text fill="#000000" font-family="sans-serif" font-size="14" lengthAdjust="spacingAndGlyphs" textLength="161" x="137.94" y="185.5314">Googleマップを表示する</text><polygon fill="#FEFECE" filter="url(#fpvaqi9)" points="507.4352,185.7887,506.9263,188.6595,501.6697,190.6607,495.2191,192.5504,488.6066,194.4881,481.1754,196.2327,472.8051,197.6697,463.0648,198.6136,452.7884,199.1812,442.5912,199.4439,430.4368,198.856,422.4277,198.8002,412.485,197.798,401.8648,196.1126,394.1266,194.5631,387.3783,192.6966,382.7001,190.7746,377.2942,188.1575,376.9902,186.2531,375.8198,183.699,375.3136,180.9124,378.5082,178.6748,381.2986,176.0921,386.4911,173.9057,395.339,172.4952,403.1577,170.842,412.6736,169.6751,420.553,168.2924,431.4474,167.8705,441.1439,167.4897,451.4462,167.641,462.5223,168.42,473.3983,169.6422,480.8297,170.5757,489.941,172.449,496.3835,174.2434,501.178,176.1928,504.9477,178.424,509.321,181.2881,509.9149,183.7062" style="stroke: #A80036; stroke-width: 1.5;"/><text fill="#000000" font-family="sans-serif" font-size="14" lengthAdjust="spacingAndGlyphs" textLength="98" x="393.0324" y="188.2498">アイコンを表示</text><polygon fill="#FEFECE" filter="url(#fpvaqi9)" points="502.4781,119.6702,499.6708,121.7944,496.335,124.026,490.9345,125.9233,485.3953,127.8681,478.4642,129.4804,470.6209,130.7945,462.033,131.7718,450.4583,131.8024,441.909,132.2531,431.2803,131.8435,421.8584,131.3061,414.2579,130.7454,404.8186,129.2564,398.8444,128.0869,392.1718,126.2363,386.9594,124.2263,382.9451,122.0134,380.9952,119.8352,380.4054,117.5657,381.5906,115.3564,383.4525,113.0064,385.9921,110.5847,391.5699,108.7297,398.1369,107.0304,405.4113,105.5,413.1024,104.1496,422.6967,103.4127,431.1089,102.6269,441.6537,102.6527,450.3524,102.6013,461.196,103.4783,469.6463,104.242,478.9409,105.6964,485.8866,107.0979,492.1412,108.8487,496.4608,110.6454,500.3189,112.821,502.417,115.0346,503.4508,117.4101" style="stroke: #A80036; stroke-width: 1.5;"/><text fill="#000000" font-family="sans-serif" font-size="14" lengthAdjust="spacingAndGlyphs" textLength="84" x="399.8485" y="122.2131">ズームを設定</text><!--entity ユーザー--><polygon fill="#FEFECE" filter="url(#fpvaqi9)" points="41.3703,53.22,41.2346,55.0041,39.5038,57.0261,38.1895,58.4144,36.6712,58.8817,34.659,59.0844,32.6752,59.5529,31.3237,58.2991,29.0912,57.3587,27.8965,55.7006,26.0094,54.0953,26.3931,52.4363,25.9051,49.7633,27.0993,47.2833,28.3524,45.9873,29.4583,44.0872,31.7492,43.1238,34.0257,42.9935,36.0004,43.2,37.1802,44.2132,39.5295,45.1322,41.1453,47.3691,41.7402,49.3887,41.6908,51.6146" style="stroke: #A80036; stroke-width: 2.0;"/><path d="M34,59.1992 L33.5687,59.1992 L33.7788,64.5992 L34.2059,69.9992 L34.1687,75.3992 L34.3627,80.7992 L34,86.1992 M21,67.1992 L21,67.7945 L26.2,67.5751 L31.4,66.6393 L36.6,67.5178 L41.8,67.3768 L47,67.1992 M34,86.1992 L34.1428,86.323 L31.6091,89.3804 L29.0597,92.4243 L25.9029,94.9418 L23.8015,98.3739 L21,101.1992 M34,86.1992 L33.9186,86.1287 L36.4779,89.0934 L39.5073,92.4656 L41.7109,95.122 L44.5763,98.3521 L47,101.1992 " fill="#FEFECE" style="stroke: #A80036; stroke-width: 2.0;"/><text fill="#000000" font-family="sans-serif" font-size="14" lengthAdjust="spacingAndGlyphs" textLength="56" x="6" y="121.7344">ユーザー</text><!--entity 閲覧者--><polygon fill="#FEFECE" filter="url(#fpvaqi9)" points="41.8511,171.2107,41.4586,172.7657,40.5649,174.3586,39.2208,175.523,37.9228,176.7386,35.3654,177.2178,33.8469,177.573,31.8181,177.0153,29.807,176.3941,28.4561,175.1829,27.0448,173.1361,26.2314,170.6994,26.1731,169.0702,26.4473,166.8725,27.5324,164.8463,28.3983,162.9752,30.5191,162.3608,31.9625,161.9165,33.511,161.074,35.7978,161.403,37.8553,162.2391,39.2818,162.8491,40.6501,164.2863,41.5923,165.5725,42.0161,167.0397,42.3823,168.8858,41.4412,170.2566" style="stroke: #A80036; stroke-width: 2.0;"/><path d="M34,177.1992 L34.5136,177.1992 L33.6666,182.5992 L34.3754,187.9992 L34.6059,193.3992 L33.41,198.7992 L34,204.1992 M21,185.1992 L21,184.5635 L26.2,184.8403 L31.4,185.0068 L36.6,184.9842 L41.8,184.9509 L47,185.1992 M34,204.1992 L33.5376,203.7985 L31.7258,207.4815 L28.3379,209.7987 L25.8564,212.9015 L23.3972,216.0235 L21,219.1992 M34,204.1992 L34.3807,204.5292 L36.436,207.0571 L39.2307,210.2258 L41.6111,213.0355 L44.4202,216.2167 L47,219.1992 " fill="#FEFECE" style="stroke: #A80036; stroke-width: 2.0;"/><text fill="#000000" font-family="sans-serif" font-size="14" lengthAdjust="spacingAndGlyphs" textLength="42" x="13" y="239.7344">閲覧者</text><path d="M62.32,85.6892 L62.4053,86.4681 L73.1024,87.809 L83.7235,88.457 L94.262,88.3508 L105.1368,91.3134 L115.8031,92.3738 L126.39,92.7092 " fill="none" style="stroke: #A80036; stroke-width: 1.0;"/><polygon fill="#A80036" points="131.37,93.2592,131.3609,93.2437,129.7786,92.4487,127.9129,91.1698,126.2024,90.1559,124.6575,89.4246,122.8715,88.2818,122.9982,88.383,123.597,89.1816,124.319,90.0785,125.0772,91.0043,125.7859,91.8906,126.4011,92.7024,126.4019,92.7033,125.6498,93.5746,124.568,94.0329,123.6995,94.7585,122.8474,95.5045,121.9805,96.232,122.0446,96.4345,123.9225,95.8399,125.7386,95.05,127.5631,94.2869,129.4941,93.8601,131.37,93.2592" style="stroke: #A80036; stroke-width: 1.0;"/><path d="M55.23,198.4792 L55.2117,198.3126 L65.87,198.1576 L76.4316,197.1209 L86.9262,195.4726 L97.4496,194.0873 L107.9513,192.5038 L118.4568,190.9552 L129.07,190.3892 " fill="none" style="stroke: #A80036; stroke-width: 1.0;"/><polygon fill="#A80036" points="134.23,189.8292,134.1902,189.7047,132.3428,189.1951,130.4628,188.5832,128.5672,187.9227,126.6891,187.3167,124.849,186.8298,124.8631,186.8474,125.584,187.3551,126.6153,188.2493,127.4817,188.9382,128.3839,189.6716,129.2595,190.372,129.0901,190.2359,128.7067,191.379,127.9172,192.196,127.2059,193.0759,126.4012,193.8807,125.7174,194.7825,125.7163,194.7807,127.3891,193.739,129.0113,192.6102,130.7787,191.7311,132.6058,190.9545,134.23,189.8292" style="stroke: #A80036; stroke-width: 1.0;"/><path d="M312.15,181.9492 L312.1482,181.8182 L321.7746,182.6605 L331.3733,181.4822 L340.9929,181.8287 L350.6166,182.4709 L360.2383,182.9706 L369.85,182.7392 " fill="none" style="stroke: #A80036; stroke-width: 1.0;"/><polygon fill="#A80036" points="374.98,182.8092,374.9649,182.7765,373.278,182.1706,371.3911,181.1318,369.5537,180.2,367.8203,179.4934,366.0381,178.6811,365.9308,178.5768,366.9012,179.565,367.767,180.4515,368.302,181.0165,369.0806,181.8181,369.9805,182.7378,369.9165,182.6719,369.1281,183.484,368.2021,184.1546,367.5382,185.0948,366.8518,186.0118,365.9238,186.6803,365.9566,186.7571,367.7076,185.8418,369.5007,185.0251,371.4336,184.5357,373.1256,183.4826,374.98,182.8092" style="stroke: #A80036; stroke-width: 1.0;"/><path d="M277.12,164.3092 L277.2924,164.9151 L286.9187,161.061 L296.738,157.8853 L306.9002,155.9153 L316.9539,153.5637 L326.9241,150.9183 L336.7048,147.6071 L346.6796,144.978 L356.2167,140.8102 L366.6541,139.8077 L376.4418,136.5207 L386.0059,132.4478 L396.16,130.4492 " fill="none" style="stroke: #A80036; stroke-width: 1.0;"/><polygon fill="#A80036" points="401.13,129.0392,401.1154,128.9352,399.1788,128.7594,397.2607,128.7153,395.2627,128.1035,393.3115,127.8238,391.3774,127.6656,391.4565,127.8079,392.4314,128.3321,393.2969,128.6593,394.3223,129.2742,395.2723,129.7534,396.3224,130.4128,396.3212,130.4122,395.6755,131.3477,395.1388,132.3438,394.6798,133.383,394.2518,134.4395,393.5752,135.3578,393.6626,135.4623,394.9488,133.9299,396.6963,132.9489,398.1414,131.6066,399.4809,130.1378,401.13,129.0392" style="stroke: #A80036; stroke-width: 1.0;"/></g></svg>