<?xml version="1.0" encoding="UTF-8" standalone="no"?><svg xmlns="http://www.w3.org/2000/svg" xmlns:xlink="http://www.w3.org/1999/xlink" contentScriptType="application/ecmascript" contentStyleType="text/css" height="749px" preserveAspectRatio="none" style="width:721px;height:749px;" version="1.1" viewBox="0 0 721 749" width="721px" zoomAndPan="magnify"><defs><filter height="300%" id="ft97lrm" width="300%" x="-1" y="-1"><feGaussianBlur result="blurOut" stdDeviation="2.0"/><feColorMatrix in="blurOut" result="blurOut2" type="matrix" values="0 0 0 0 0 0 0 0 0 0 0 0 0 0 0 0 0 0 .4 0"/><feOffset dx="4.0" dy="4.0" in="blurOut2" result="blurOut3"/><feBlend in="SourceGraphic" in2="blurOut3" mode="normal"/></filter></defs><g><text fill="#000000" font-family="sans-serif" font-size="18" lengthAdjust="spacingAndGlyphs" textLength="306" x="221" y="17.4023">ユースケース：ファイルアップロード</text><!--cluster ファイルアップロード--><polygon fill="#FFFFFF" filter="url(#ft97lrm)" points="106,45.1992,106,45.0371,115.7333,45.8421,125.4667,44.5894,135.2,44.4594,144.9333,45.7817,154.6667,44.8364,164.4,45.0062,174.1333,45.8629,183.8667,45.9309,193.6,44.9479,203.3333,45.4169,213.0667,44.8328,222.8,45.5533,232.5333,45.0934,242.2667,44.8246,252,45.1992,252.0567,45.2169,253.3908,49.694,254.66,54.151,256.1617,58.6803,257.6058,63.1917,259,67.6875,259,67.7669,268.8913,67.0287,278.7826,67.5736,288.6739,66.9876,298.5652,67.7573,308.4565,67.2335,318.3478,68.0287,328.2391,67.3324,338.1304,67.4574,348.0217,67.9506,357.913,67.0341,367.8043,67.4048,377.6957,68.0578,387.587,67.3525,397.4783,67.3332,407.3696,67.4771,417.2609,67.5354,427.1522,67.8381,437.0435,67.3681,446.9348,67.9597,456.8261,68.378,466.7174,67.4042,476.6087,67.3929,486.5,68.0666,496.3913,67.9238,506.2826,68.3689,516.1739,67.9967,526.0652,67.1846,535.9565,66.9763,545.8478,67.2628,555.7391,68.0822,565.6304,67.1202,575.5217,67.5214,585.413,68.3454,595.3043,67.117,605.1957,68.204,615.087,67.8753,624.9783,67.7999,634.8696,67.8284,644.7609,67.2438,654.6522,68.4163,664.5435,67.2104,674.4348,67.9352,684.3261,67.5294,694.2174,67.2097,704.1087,67.4276,714,67.6875,714.3347,67.6875,713.8244,77.7548,714.1294,87.8222,714.195,97.8895,714.0544,107.9569,713.7072,118.0242,713.7037,128.0915,714.6325,138.1589,714.0087,148.2262,714.5144,158.2936,714.616,168.3609,713.5953,178.4282,713.3991,188.4956,714.7232,198.5629,713.3167,208.6302,713.3052,218.6976,713.8556,228.7649,713.78,238.8323,713.9417,248.8996,713.8573,258.9669,713.2511,269.0343,714.2487,279.1016,713.2873,289.169,714.361,299.2363,713.7828,309.3036,713.9775,319.371,714.7359,329.4383,713.341,339.5057,714.1546,349.573,714.5063,359.6403,713.4911,369.7077,714.333,379.775,713.3275,389.8424,714.4823,399.9097,714.5892,409.977,714.1943,420.0444,714.5139,430.1117,714.0906,440.179,714.0912,450.2464,714.6811,460.3137,713.3771,470.3811,713.959,480.4484,714.6227,490.5157,713.8302,500.5831,713.7681,510.6504,714.646,520.7178,714.5212,530.7851,714.6249,540.8524,714.269,550.9198,714.6719,560.9871,713.7713,571.0545,713.3164,581.1218,713.8405,591.1891,714.1147,601.2565,714.6565,611.3238,713.6185,621.3911,713.9666,631.4585,713.5502,641.5258,714.1333,651.5932,713.7936,661.6605,713.3711,671.7278,714.5781,681.7952,713.3372,691.8625,713.8987,701.9299,714.1334,711.9972,713.8453,722.0645,714.365,732.1319,714,742.1992,714,741.8671,704.0328,742.5686,694.0656,742.044,684.0984,742.235,674.1311,742.8635,664.1639,742.752,654.1967,742.5415,644.2295,742.4245,634.2623,742.6465,624.2951,742.2435,614.3279,742.2578,604.3607,742.2834,594.3934,742.7667,584.4262,741.6647,574.459,741.9138,564.4918,742.1951,554.5246,742.4141,544.5574,742.3977,534.5902,742.427,524.623,741.7021,514.6557,741.5233,504.6885,742.7218,494.7213,742.9337,484.7541,742.8336,474.7869,742.0574,464.8197,742.3949,454.8525,742.9,444.8852,742.7945,434.918,741.5731,424.9508,741.8752,414.9836,742.3754,405.0164,741.8342,395.0492,742.4997,385.082,742.8345,375.1148,742.9376,365.1475,742.8013,355.1803,742.8475,345.2131,742.1519,335.2459,741.5757,325.2787,741.9023,315.3115,742.2993,305.3443,741.6949,295.377,742.158,285.4098,742.527,275.4426,742.8261,265.4754,741.8862,255.5082,741.7379,245.541,742.6702,235.5738,741.6147,225.6066,741.8281,215.6393,742.7539,205.6721,742.483,195.7049,741.6882,185.7377,742.1056,175.7705,741.6941,165.8033,742.3079,155.8361,741.6509,145.8689,741.8177,135.9016,741.5078,125.9344,742.7111,115.9672,741.4915,106,742.1992,105.6943,742.1992,105.7618,732.2421,106.3076,722.2849,105.635,712.3278,105.6337,702.3706,106.0568,692.4135,106.3793,682.4564,106.7358,672.4992,106.476,662.5421,105.8559,652.5849,106.2424,642.6278,106.3843,632.6706,105.5405,622.7135,106.3765,612.7564,106.263,602.7992,106.6868,592.8421,105.301,582.8849,105.4537,572.9278,106.7368,562.9706,105.4713,553.0135,106.6545,543.0564,106.3978,533.0992,106.6623,523.1421,105.281,513.1849,106.3186,503.2278,106.1112,493.2706,106.4893,483.3135,105.5923,473.3564,105.6448,463.3992,106.2649,453.4421,105.9064,443.4849,105.5255,433.5278,105.7687,423.5706,105.3794,413.6135,106.3366,403.6564,105.3923,393.6992,106.2236,383.7421,106.3969,373.7849,106.2492,363.8278,105.9622,353.8706,105.936,343.9135,106.28,333.9564,105.6573,323.9992,105.8129,314.0421,106.3827,304.0849,106.3249,294.1278,106.2648,284.1706,106.0732,274.2135,106.6385,264.2564,106.2279,254.2992,106.1455,244.3421,106.2567,234.3849,105.5591,224.4278,106.504,214.4706,106.5872,204.5135,106.2341,194.5564,106.4493,184.5992,105.6147,174.6421,106.3078,164.6849,106.688,154.7278,106.7421,144.7706,106.6268,134.8135,106.1588,124.8564,106.1486,114.8992,106.4715,104.9421,105.3897,94.9849,105.661,85.0278,105.9143,75.0706,106.1551,65.1135,105.5882,55.1564,106,45.1992" style="stroke: #000000; stroke-width: 2.0;"/><path d="M106,67.6875 L106,68.0601 L116.2,66.7788 L126.4,67.8435 L136.6,67.8238 L146.8,67.3354 L157,66.9096 L167.2,68.05 L177.4,68.1906 L187.6,68.1819 L197.8,67.3314 L208,66.9641 L218.2,67.0121 L228.4,68.5064 L238.6,68.6521 L248.8,68.4256 L259,67.6875 " fill="#FFFFFF" style="stroke: #000000; stroke-width: 2.0;"/><text fill="#000000" font-family="sans-serif" font-size="14" font-weight="bold" lengthAdjust="spacingAndGlyphs" textLength="140" x="110" y="60.7344">ファイルアップロード</text><polygon fill="#FEFECE" filter="url(#ft97lrm)" points="398.72,106.5923,394.3952,109.9747,389.3588,113.5614,381.5665,116.78,369.704,119.2147,357.4186,121.555,343.3865,123.3801,331.3081,125.3942,312.5315,125.5491,298.3924,126.2693,280.6207,125.6124,265.7091,124.9469,252.6845,123.9897,238.0488,121.9117,224.4992,119.2859,214.5211,116.6574,206.9346,113.7727,198.0023,109.8264,196.5485,106.8371,193.7456,102.8992,195.9836,99.5212,200.8271,96.2547,204.9306,92.4596,213.5854,89.4337,224.1265,86.7039,238.224,84.7682,252.4555,82.9877,267.3893,81.6113,281.0471,80.3132,297.8965,80.1983,313.2228,80.309,330.8853,81.5889,342.6009,82.2537,356.5699,84.1829,371.4274,87.1008,381.3751,89.7224,390.5267,92.9567,395.9027,96.1088,398.3756,99.3257,399.7176,102.9373" style="stroke: #A80036; stroke-width: 1.5;"/><text fill="#000000" font-family="sans-serif" font-size="14" lengthAdjust="spacingAndGlyphs" textLength="182" x="206.9007" y="107.9235">ファイルをアップロードする</text><polygon fill="#FEFECE" filter="url(#ft97lrm)" points="373.598,181.7326,372.55,184.9076,366.5974,187.2368,360.5096,189.7291,354.4506,192.3264,344.0278,193.9172,334.863,195.6998,320.9444,196.1916,311.2835,197.38,298.303,197.4331,284.1501,196.7711,272.8545,196.2594,263.5196,195.6398,252.0634,193.9328,241.7328,191.8644,233.7094,189.6994,228.6107,187.5878,223.2655,184.8214,221.0728,182.2219,219.7893,179.3234,221.1983,176.6012,223.1,173.6232,228.4293,171.1502,233.0606,168.3219,243.9047,166.8283,251.5338,164.5931,263.731,163.51,273.5214,162.066,285.1434,161.33,296.9964,161.0168,309.6972,161.3439,322.0244,162.0935,334.0176,163.3263,344.8769,164.8956,354.5176,166.8049,360.8585,168.5818,368.4475,171.2677,371.5892,173.5259,375.8846,176.6104,375.458,179.1145" style="stroke: #A80036; stroke-width: 1.5;"/><text fill="#000000" font-family="sans-serif" font-size="14" lengthAdjust="spacingAndGlyphs" textLength="126" x="234.7871" y="184.0008">ファイルを削除する</text><polygon fill="#FEFECE" filter="url(#ft97lrm)" points="450.3562,271.1415,448.0999,277.0005,435.3694,281.1334,425.7664,286.3009,410.2479,290.3767,388.7655,293.1678,369.0636,296.1598,348.8882,298.689,320.8468,298.9935,298.5009,299.8385,272.2584,299.0184,252.0682,298.5574,229.5206,296.5481,209.5018,293.9729,191.087,290.5899,169.7757,285.4153,161.2298,281.8371,151.1338,276.8144,144.9266,271.589,145.4243,266.8632,142.9816,260.6782,148.4652,255.5144,159.4421,251.0037,170.3251,246.112,190.816,243.1073,203.7306,238.4705,224.8084,235.775,251.3442,234.616,275.295,233.4303,301.0311,233.3155,320.0677,232.5833,345.0295,234.0722,366.2304,235.7915,388.1514,238.7764,406.0977,242.0585,424.3727,246.5791,433.7966,250.3464,444.4251,255.4838,450.2277,260.622,453.9683,266.2608" style="stroke: #A80036; stroke-width: 1.5;"/><text fill="#000000" font-family="sans-serif" font-size="14" lengthAdjust="spacingAndGlyphs" textLength="294" x="151.1701" y="270.9774">アップロードの際に別サイズの画像を作成する</text><polygon fill="#FBFB77" filter="url(#ft97lrm)" points="547,253.6992,547.1635,253.6992,547.1847,258.7613,546.7504,263.8234,547.1997,268.8855,547.1678,273.9477,547,279.0098,547,278.8311,556.8571,278.5255,566.7143,278.9376,576.5714,278.5503,586.4286,279.5595,596.2857,279.3782,606.1429,278.3908,616,278.3376,625.8571,279.4197,635.7143,279.5095,645.5714,279.2184,655.4286,279.1203,665.2857,279.387,675.1429,278.3323,685,279.0098,684.8871,279.0098,684.8814,275.9477,685.0751,272.8855,684.8776,269.8234,684.7998,266.7613,685,263.6992,685.0775,263.7767,682.9943,261.6935,681.142,259.8412,679.0553,257.7545,676.8552,255.5544,675,253.6992,675,254.4296,665.1538,254.4126,655.3077,253.1082,645.4615,253.0821,635.6154,254.3496,625.7692,253.1336,615.9231,254.0236,606.0769,253.7165,596.2308,253.2224,586.3846,254.2794,576.5385,254.095,566.6923,254.065,556.8462,253.5526,547,253.6992" style="stroke: #A80036; stroke-width: 1.0;"/><polygon fill="#FBFB77" points="547,253.6992,546.9638,253.6992,546.8522,255.3992,547.1111,257.0992,547.0799,258.7992,546.9751,260.4992,547,262.1992,546.9946,262.0725,536.6286,262.3784,526.2782,263.0453,515.9133,263.3759,505.5912,264.7044,495.1727,263.7854,484.8462,265.0109,474.4648,264.9555,464.1467,266.3774,453.76,266.1992,453.7612,266.2276,464.1334,266.9563,474.4929,267.3884,484.8532,267.8393,495.1934,267.8241,505.5392,267.9361,515.9028,268.4649,526.2877,269.4901,536.6239,269.3794,547,270.1992,547.0032,270.1992,547.1131,271.9613,547.2481,273.7234,547.1229,275.4855,547.0096,277.2477,547,279.0098,547,278.7833,556.8571,279.2759,566.7143,278.9371,576.5714,278.3836,586.4286,278.9175,596.2857,279.299,606.1429,278.8724,616,278.5571,625.8571,279.4783,635.7143,279.7048,645.5714,278.5353,655.4286,278.8887,665.2857,278.46,675.1429,278.6447,685,279.0098,685.1093,279.0098,685.2415,275.9477,685.2488,272.8855,685.1231,269.8234,684.9851,266.7613,685,263.6992,685.0592,263.7584,682.9773,261.6765,680.9615,259.6607,679.1683,257.8676,676.9021,255.6013,675,253.6992,675,253.7192,665.1538,254.3384,655.3077,253.0544,645.4615,253.3896,635.6154,253.9479,625.7692,253.7791,615.9231,253.7681,606.0769,252.9746,596.2308,253.4681,586.3846,253.6022,576.5385,253.108,566.6923,254.4482,556.8462,253.6194,547,253.6992" style="stroke: #A80036; stroke-width: 1.0;"/><path d="M675,253.6992 L675.2188,253.6992 L675.2914,255.6992 L674.7157,257.6992 L675.2244,259.6992 L674.7607,261.6992 L675,263.6992 " fill="#FBFB77" style="stroke: #A80036; stroke-width: 1.0;"/><path d="M685,263.6992 L685,263.5214 L683,263.4898 L681,263.4828 L679,263.6205 L677,263.6483 L675,263.6992 " fill="#FBFB77" style="stroke: #A80036; stroke-width: 1.0;"/><text fill="#000000" font-family="sans-serif" font-size="13" lengthAdjust="spacingAndGlyphs" textLength="117" x="553" y="271.2676">画像ファイルの場合</text><polygon fill="#FEFECE" filter="url(#ft97lrm)" points="468.8799,377.5535,461.9336,383.1833,455.9155,389.6058,438.3278,393.9612,422.4509,398.8868,399.851,402.3762,378.1835,405.86,352.2774,408.0337,323.2358,408.9431,299.1514,410.1421,269.1769,409.1569,246.4658,408.6643,216.6364,405.4845,194.5815,402.7204,172.6679,398.6934,156.8713,394.6641,139.8468,389.0793,131.2324,384.0461,126.8435,378.7491,119.4952,371.7607,127.6722,367.1633,129.1659,360.3686,139.3236,354.8305,154.4199,349.9429,172.4543,345.4782,194.4848,341.8671,220.072,339.2208,244.6839,336.7706,271.1129,335.303,297.8827,334.6778,322.1886,334.4519,352.7292,336.6172,379.9135,339.2319,403.1882,342.2566,419.5322,345.0937,438.3694,349.7726,452.0006,354.6324,466.3136,360.8831,472.6276,366.5913,473.463,372.1883" style="stroke: #A80036; stroke-width: 1.5;"/><text fill="#000000" font-family="sans-serif" font-size="14" lengthAdjust="spacingAndGlyphs" textLength="336" x="129.9831" y="377.04">アップロード済のファイルをポップアップで表示する</text><polygon fill="#FBFB77" filter="url(#ft97lrm)" points="547,359.6992,546.8251,359.6992,546.8697,364.7613,547.0256,369.8234,546.8055,374.8855,546.9882,379.9477,547,385.0098,547,385.2575,556.8571,385.1521,566.7143,385.1104,576.5714,385.0482,586.4286,385.392,596.2857,385.5297,606.1429,384.4338,616,384.6364,625.8571,385.2975,635.7143,384.5498,645.5714,385.1935,655.4286,385.036,665.2857,384.6196,675.1429,384.2716,685,385.0098,685.0188,385.0098,684.8755,381.9477,684.9003,378.8855,685.0279,375.8234,685.0687,372.7613,685,369.6992,685.1284,369.8276,682.8584,367.5576,680.8983,365.5975,679.0481,363.7473,677.0219,361.7211,675,359.6992,675,360.2345,665.1538,360.3413,655.3077,359.8403,645.4615,359.3236,635.6154,359.0038,625.7692,359.2741,615.9231,359.5254,606.0769,358.9839,596.2308,359.6728,586.3846,359.6594,576.5385,359.4079,566.6923,360.1837,556.8462,360.3383,547,359.6992" style="stroke: #A80036; stroke-width: 1.0;"/><polygon fill="#FBFB77" points="547,359.6992,547.1052,359.6992,546.8609,361.3992,547.011,363.0992,546.9979,364.7992,547.1321,366.4992,547,368.1992,546.9875,367.9715,536.6035,369.0944,526.2108,370.0595,515.7776,370.2855,505.3063,369.819,494.9423,371.3067,484.5282,371.8807,474.1,372.1992,474.1352,372.8414,484.5336,373.1219,494.9078,372.9629,505.358,374.1887,515.7451,374.2661,526.2074,375.7119,536.5745,375.4239,547,376.1992,547.0842,376.1992,546.9598,377.9613,547.0731,379.7234,546.845,381.4855,547.1389,383.2477,547,385.0098,547,384.4566,556.8571,385.1728,566.7143,385.1143,576.5714,385.4674,586.4286,384.4376,596.2857,384.6627,606.1429,384.6707,616,384.6231,625.8571,384.9762,635.7143,385.5108,645.5714,384.6476,655.4286,385.7011,665.2857,384.6208,675.1429,385.0871,685,385.0098,685.1533,385.0098,684.7834,381.9477,685.1175,378.8855,684.8615,375.8234,684.935,372.7613,685,369.6992,684.9347,369.634,682.9136,367.6128,680.9802,365.6794,678.8515,363.5507,676.9225,361.6217,675,359.6992,675,359.5055,665.1538,360.3896,655.3077,359.3562,645.4615,359.3129,635.6154,360.131,625.7692,360.3259,615.9231,360.3863,606.0769,359.6923,596.2308,358.9908,586.3846,359.9,576.5385,358.9623,566.6923,359.697,556.8462,359.2696,547,359.6992" style="stroke: #A80036; stroke-width: 1.0;"/><path d="M675,359.6992 L675.2233,359.6992 L675.1999,361.6992 L675.304,363.6992 L674.6881,365.6992 L674.7302,367.6992 L675,369.6992 " fill="#FBFB77" style="stroke: #A80036; stroke-width: 1.0;"/><path d="M685,369.6992 L685,369.6174 L683,369.7482 L681,369.6437 L679,369.6789 L677,369.7785 L675,369.6992 " fill="#FBFB77" style="stroke: #A80036; stroke-width: 1.0;"/><text fill="#000000" font-family="sans-serif" font-size="13" lengthAdjust="spacingAndGlyphs" textLength="117" x="553" y="377.2676">画像ファイルの場合</text><polygon fill="#FEFECE" filter="url(#ft97lrm)" points="449.7648,483.0141,444.962,488.3246,439.7839,494.0844,423.5858,497.8311,406.2223,501.5095,387.0562,504.7996,370.4518,508.4589,348.5564,510.6175,323.4757,511.5598,297.8975,511.7085,272.6241,511.0972,252.9602,510.7496,225.8339,507.7539,207.5678,505.5563,185.1544,501.312,174.6742,498.4705,158.3238,493.2111,152.1435,489.0319,141.7376,482.902,142.3817,478.2077,143.5676,472.8045,147.052,467.21,158.1121,462.7172,174.4949,459.0103,190.1085,454.9549,206.2414,451.0114,227.282,448.3078,248.0719,445.9111,276.2947,445.6456,296.4312,444.3246,319.4589,444.4522,344.5349,445.9657,371.8176,448.995,386.8384,450.4935,408.3246,454.5382,423.8975,458.4767,435.3289,462.6765,448.5565,468.3737,449.2043,472.4016,452.6473,477.9763" style="stroke: #A80036; stroke-width: 1.5;"/><text fill="#000000" font-family="sans-serif" font-size="14" lengthAdjust="spacingAndGlyphs" textLength="294" x="151.1701" y="482.9774">アップロード済のファイルをダウンロードする</text><polygon fill="#FBFB77" filter="url(#ft97lrm)" points="534,465.6992,533.9061,465.6992,533.9839,470.7613,534.0579,475.8234,534.0575,480.8855,534.0946,485.9477,534,491.0098,534,490.8258,544.25,491.3772,554.5,490.493,564.75,491.0586,575,490.8363,585.25,491.4703,595.5,491.6571,605.75,490.939,616,491.3331,626.25,490.8601,636.5,490.512,646.75,491.0713,657,491.0667,667.25,491.3435,677.5,491.5488,687.75,491.7416,698,491.0098,698.2106,491.0098,698.0185,487.9477,698.2415,484.8855,698.133,481.8234,697.8753,478.7613,698,475.6992,698.0688,475.768,696.0658,473.765,693.9746,471.6738,691.9096,469.6088,690.171,467.8702,688,465.6992,688,466.0905,677.7333,465.1378,667.4667,466.2575,657.2,465.3113,646.9333,465.487,636.6667,466.4167,626.4,465.4374,616.1333,465.3885,605.8667,466.0451,595.6,466.3168,585.3333,466.1007,575.0667,465.5198,564.8,466.2178,554.5333,465.0167,544.2667,466.291,534,465.6992" style="stroke: #A80036; stroke-width: 1.0;"/><polygon fill="#FBFB77" points="534,465.6992,533.9116,465.6992,533.7572,467.3992,534.0674,469.0992,533.92,470.7992,534.0884,472.4992,534,474.1992,533.9739,473.6751,523.9687,474.6738,513.9553,475.5062,503.9231,475.9612,493.8439,475.4747,483.8558,476.816,473.8149,477.0963,463.8056,478.0118,453.76,478.1992,453.7779,478.558,463.7959,478.8176,473.8515,479.8315,483.8532,479.7634,493.845,479.4967,503.9139,480.7775,513.9168,480.734,523.9613,481.5252,534,482.1992,534.2149,482.1992,533.8211,483.9613,534.2148,485.7234,533.8964,487.4855,533.9851,489.2477,534,491.0098,534,490.4147,544.25,490.6239,554.5,490.6958,564.75,491.0032,575,491.4969,585.25,490.6629,595.5,491.4903,605.75,491.5539,616,490.5044,626.25,491.4142,636.5,490.2858,646.75,491.0624,657,491.072,667.25,490.5212,677.5,491.0122,687.75,491.0541,698,491.0098,698.1967,491.0098,698.1527,487.9477,697.8115,484.8855,697.9336,481.8234,698.0557,478.7613,698,475.6992,698.1499,475.8491,695.9269,473.6261,694.03,471.7292,691.9001,469.5993,690.1325,467.8317,688,465.6992,688,465.2408,677.7333,466.4316,667.4667,466.4358,657.2,466.3961,646.9333,465.3858,636.6667,465.9513,626.4,465.3777,616.1333,466.1358,605.8667,465.2052,595.6,465.4985,585.3333,466.031,575.0667,465.745,564.8,466.1576,554.5333,465.7826,544.2667,466.2559,534,465.6992" style="stroke: #A80036; stroke-width: 1.0;"/><path d="M688,465.6992 L687.8064,465.6992 L688.2481,467.6992 L688.065,469.6992 L687.9721,471.6992 L687.8127,473.6992 L688,475.6992 " fill="#FBFB77" style="stroke: #A80036; stroke-width: 1.0;"/><path d="M698,475.6992 L698,475.8749 L696,475.7385 L694,475.6603 L692,475.5518 L690,475.6419 L688,475.6992 " fill="#FBFB77" style="stroke: #A80036; stroke-width: 1.0;"/><text fill="#000000" font-family="sans-serif" font-size="13" lengthAdjust="spacingAndGlyphs" textLength="143" x="540" y="483.2676">画像ファイル以外の場合</text><polygon fill="#FEFECE" filter="url(#ft97lrm)" points="463.8997,588.8062,457.6809,594.3311,447.3361,599.5452,431.7365,604.0237,418.7946,609.2689,398.2919,612.8946,375.1725,615.7625,347.4935,617.2639,323.868,619.0605,300.5495,620.1812,269.7766,618.8129,244.5399,617.6095,220.2217,615.4784,196.9411,612.3694,178.7979,609.1143,158.8572,604.2124,147.0395,599.8038,139.7681,595.1689,129.0496,588.6713,130.9676,583.8593,128.2144,577.1544,139.2057,572.6517,146.9247,566.8753,161.1008,562.0919,175.4056,557.1386,200.376,554.4698,218.0845,550.4429,244.3483,548.6385,269.6965,547.2108,299.1758,547.4097,326.4314,548.0246,353.6391,549.6502,374.2951,550.9969,396.539,553.8839,414.9638,557.1992,433.102,561.7151,449.9796,567.2074,458.4434,572.0977,465.6458,577.8423,467.1314,583.3833" style="stroke: #A80036; stroke-width: 1.5;"/><text fill="#000000" font-family="sans-serif" font-size="14" lengthAdjust="spacingAndGlyphs" textLength="322" x="137.1931" y="588.182">アップロード済のファイルをプレビューで表示する</text><polygon fill="#FEFECE" filter="url(#ft97lrm)" points="465.2872,696.1034,460.2315,701.8774,448.0746,706.7033,434.6764,711.6534,421.0212,716.7458,394.4872,719.0797,377.4352,723.2472,351.2358,725.0654,321.8842,725.6356,297.3257,726.4907,269.3331,725.7179,248.1781,725.3887,218.8592,722.1865,196.8125,719.3418,181.8537,716.7688,158.9182,711.2254,148.3555,707.0857,134.9848,701.1444,134.1444,696.7625,126.823,689.9716,130.2148,684.5829,140.4923,679.9273,149.5957,674.4474,163.0173,669.5023,177.8646,664.6653,199.1876,661.2152,223.3106,658.5623,247.3326,656.2777,271.2217,654.5375,296.275,653.7884,323.0623,654.303,348.2668,655.4995,372.5603,657.6253,398.7138,661.3497,416.9867,664.6325,438.4019,669.8503,449.7102,674.1497,461.4605,679.7439,468.457,685.4444,466.2933,690.2038" style="stroke: #A80036; stroke-width: 1.5;"/><text fill="#000000" font-family="sans-serif" font-size="14" lengthAdjust="spacingAndGlyphs" textLength="322" x="137.1931" y="695.182">未アップロードのファイルをプレビューで表示する</text><!--entity ユーザー--><polygon fill="#FEFECE" filter="url(#ft97lrm)" points="41.9372,342.3086,40.5081,344.536,39.3337,346.6988,37.4107,348.0223,35.224,348.2452,32.9868,348.1538,31.4661,348.0596,29.2232,346.8145,27.7627,345.7152,26.4739,343.8155,26.1224,342.148,26.1999,339.4874,27.215,337.1493,28.057,335.4407,30.2224,334.128,31.5014,333.5885,34.0331,332.6699,36.3495,333.2083,38.6272,334.0417,40.3988,335.8074,41.6626,337.9609,41.671,339.8578,41.4628,342.0557" style="stroke: #A80036; stroke-width: 2.0;"/><path d="M34,348.6992 L34.1482,348.6992 L34.5893,354.0992 L34.3334,359.4992 L34.5358,364.8992 L34.3553,370.2992 L34,375.6992 M21,356.6992 L21,356.934 L26.2,357.297 L31.4,356.817 L36.6,356.1307 L41.8,356.5838 L47,356.6992 M34,375.6992 L33.8473,375.5669 L31.7809,379.0293 L28.9612,381.8389 L25.8031,384.3552 L23.926,387.9818 L21,390.6992 M34,375.6992 L33.9304,375.6389 L36.3785,378.5073 L38.8504,381.3962 L42.0035,384.8756 L44.5336,387.815 L47,390.6992 " fill="#FEFECE" style="stroke: #A80036; stroke-width: 2.0;"/><text fill="#000000" font-family="sans-serif" font-size="14" lengthAdjust="spacingAndGlyphs" textLength="56" x="6" y="411.2344">ユーザー</text><path d="M41.18,330.3292 L40.857,330.2742 L42.0858,325.5627 L42.5765,320.7254 L43.6608,315.9892 L44.2164,311.163 L45.2531,306.4187 L45.2007,306.4088 L46.3335,301.1104 L47.0693,295.737 L48.2166,290.4412 L49.17,285.1089 L50.2747,279.8052 L50.0078,279.7503 L50.8119,277.0233 L51.6373,274.3007 L51.7471,271.4309 L52.8151,268.7582 L53.1282,265.9303 L52.8784,265.8755 L53.9156,263.1649 L54.0873,260.2644 L54.9014,257.5049 L55.806,254.7652 L56.2033,251.9143 L55.8981,251.8424 L56.5711,249.0501 L57.4723,246.3115 L57.9386,243.4705 L58.7485,240.7104 L59.4948,237.9353 L59.575,237.9557 L60.0444,235.1442 L60.8247,232.4118 L61.7837,229.7248 L62.3877,226.9475 L62.9975,224.1717 L63.1706,224.2197 L63.5232,221.4378 L64.7508,218.8985 L65.367,216.1897 L66.2343,213.5505 L66.7062,210.8016 L66.5725,210.7608 L67.2689,208.175 L68.2888,205.688 L68.8917,203.0737 L69.6168,200.4966 L70.6157,198.0032 L70.6066,198.0001 L71.7014,195.6837 L72.2212,193.1714 L72.9762,190.7392 L73.6135,188.2669 L74.7209,185.9548 L74.5851,185.9023 L75.492,183.6968 L76.4958,181.5286 L77.4817,179.3535 L78.2226,177.0837 L79.0166,174.8345 L79.2161,174.9238 L79.7103,172.7411 L80.8077,170.8284 L81.9334,168.9283 L82.8969,166.9557 L83.4975,164.8206 L83.7552,164.9582 L84.6534,163.1942 L85.4929,161.3988 L86.2848,159.5781 L87.3928,157.9261 L88.1585,156.0913 L87.9424,155.9264 L89.9154,153.3515 L92.2209,151.0305 L93.9428,148.264 L96.1356,145.857 L98,143.1992 L97.8301,142.9962 L99.8824,141.5225 L101.8254,139.9181 L103.646,138.1675 L105.8589,136.8857 L107.6621,135.1143 L107.6237,135.0578 L109.8633,133.8757 L111.7225,132.1323 L113.8263,130.7499 L116.095,129.6108 L118.0792,128.052 L118.0481,127.9957 L120.1338,126.55 L122.5436,125.691 L124.6415,124.2675 L126.7875,122.9311 L129.1289,121.9483 L129.051,121.7753 L131.3795,120.7703 L133.6287,119.5892 L136.1346,118.9776 L138.4072,117.8484 L140.6888,116.7392 L140.7605,116.9351 L142.982,115.6009 L145.3662,114.7108 L147.9063,114.246 L150.331,113.4664 L152.6362,112.3607 L152.604,112.2518 L155.0523,111.5489 L157.6012,111.1861 L160.048,110.4784 L162.365,109.3314 L164.8489,108.7489 L164.8186,108.6202 L167.3618,108.3445 L169.7211,107.2883 L172.2878,107.1124 L174.6766,106.1811 L177.2043,105.8397 L177.1707,105.6564 L179.6212,105.0683 L182.1553,104.9356 L184.5964,104.2957 L187.0612,103.7852 L189.58,103.5692 " fill="none" style="stroke: #A80036; stroke-width: 1.0;"/><polygon fill="#A80036" points="194.86,102.7792,194.9012,102.9285,193.0269,102.4945,191.0796,101.7952,189.1222,101.0594,187.2081,100.4809,185.3655,100.1612,185.2865,100.0543,186.3578,100.9449,187.3074,101.6707,188.1568,102.2609,188.9647,102.7948,189.9155,103.5223,190.0314,103.6079,189.1016,104.3276,188.4324,105.2399,187.9468,106.2878,187.0978,107.0672,186.5544,108.0724,186.4894,107.9704,188.1844,106.9648,189.9809,106.1187,191.6363,105.0511,193.1022,103.6861,194.86,102.7792" style="stroke: #A80036; stroke-width: 1.0;"/><path d="M40.41,330.5492 L40.4333,330.5542 L41.0981,327.7365 L41.7435,324.9146 L42.4438,322.1045 L42.7247,319.2043 L43.4498,316.3995 L43.4991,316.4126 L44.41,313.4242 L45.0768,310.3715 L45.7451,307.3192 L46.6303,304.3241 L47.4313,301.3067 L47.2929,301.262 L48.3365,298.1525 L49.4286,295.0587 L50.7168,292.0284 L51.3251,288.7781 L52.4777,285.7039 L52.5005,285.713 L53.5329,282.4917 L54.8905,279.3998 L55.9226,276.1784 L57.5536,273.1952 L58.7125,270.0242 L58.6457,269.9913 L60.4213,267.0578 L61.4497,263.7563 L63.1524,260.7869 L64.4985,257.6418 L66.2588,254.7008 L66.2832,254.7159 L67.8823,251.6872 L69.6142,248.7407 L71.4819,245.878 L73.5149,243.1175 L75.24,240.1667 L74.9937,239.9717 L77.3409,237.4989 L79.275,234.699 L81.6406,232.2408 L83.7376,229.5699 L85.7793,226.8552 L85.996,227.0823 L88.1816,224.4801 L90.7431,222.272 L92.9189,219.6595 L95.373,217.3387 L98,215.1992 L98.1214,215.3681 L100.6632,213.5341 L103.2375,211.7453 L105.6843,209.779 L108.1066,207.7788 L110.7264,206.0532 L110.6062,205.8388 L113.5391,204.6405 L116.1126,202.8009 L118.8351,201.227 L121.6992,199.906 L124.4416,198.3677 L124.5752,198.6728 L127.2441,196.8856 L130.303,195.9889 L133.0553,194.3922 L135.9209,193.0542 L138.9222,192.026 L138.9238,192.0307 L142.0204,191.2782 L144.9858,190.1403 L147.8732,188.7733 L151.0412,188.2304 L153.945,186.9117 L153.9254,186.8366 L156.9775,185.9738 L160.0456,185.1724 L163.0813,184.2466 L166.2555,183.8518 L169.2865,182.9084 L169.3208,183.0844 L172.3865,182.3711 L175.4974,181.8901 L178.5376,181.0461 L181.5818,180.2232 L184.7234,179.8995 L184.7306,179.9512 L187.744,179.1771 L190.8329,178.946 L193.8826,178.4324 L196.9957,178.3753 L200.0324,177.7686 L200.0296,177.7379 L203.0493,177.7722 L206.0421,177.5117 L208.9808,176.6608 L212.0196,176.9041 L214.99,176.3992 " fill="none" style="stroke: #A80036; stroke-width: 1.0;"/><polygon fill="#A80036" points="220.24,176.0692,220.1878,175.9298,218.4493,175.5234,216.4636,174.4564,214.6184,173.7649,212.775,173.0782,211.016,172.617,211.0817,172.6911,211.8825,173.3899,212.625,174.023,213.4792,174.7821,214.4995,175.7285,215.249,176.3695,215.1745,176.3034,214.5747,177.2837,213.6777,178.0004,213.0139,178.9239,212.1627,179.6812,211.4965,180.6026,211.55,180.7057,213.1905,179.5904,215.0048,178.8102,216.742,177.8815,218.6022,177.1898,220.24,176.0692" style="stroke: #A80036; stroke-width: 1.0;"/><path d="M62.05,343.6392 L62.1622,343.7664 L63.5237,342.0074 L65.2413,340.6523 L66.7464,339.0561 L68.7312,338.0039 L70.242,336.4142 L70.1963,336.3569 L71.903,334.8758 L73.8048,333.6394 L75.5445,332.1998 L77.4072,330.9144 L79.0688,329.3767 L79.0886,329.4051 L81.0697,328.2733 L82.6784,326.6099 L84.5845,325.3711 L86.5251,324.1815 L88.3736,322.8605 L88.2709,322.6859 L90.3512,321.8171 L92.16,320.4869 L94.1955,319.5421 L96.118,318.405 L98,317.1992 L98.0309,317.2633 L101.4635,315.3572 L104.9291,313.5196 L108.6227,312.1543 L112.1935,310.5346 L115.6506,308.6794 L115.6225,308.6107 L119.2282,306.8985 L123.112,305.8654 L126.6213,303.9178 L130.2912,302.3626 L134.0925,301.128 L134.1198,301.203 L136.0726,300.7087 L137.8836,299.8253 L139.7742,299.1607 L141.6438,298.4382 L143.507,297.6981 L143.5986,297.9688 L145.4039,297.0539 L147.2345,296.2138 L149.1982,295.7671 L151.0901,295.1084 L152.9956,294.4897 L153.0603,294.7027 L156.7865,293.281 L160.6247,292.228 L164.3535,290.8149 L168.2293,289.8856 L172.03,288.7092 " fill="none" style="stroke: #A80036; stroke-width: 1.0;"/><polygon fill="#A80036" points="177.09,287.3092,177.0671,287.1534,175.1125,286.8273,173.1931,286.7393,171.2679,286.6124,169.2721,286.0059,167.3462,285.8744,167.4291,286.0215,168.4436,286.6284,169.4366,287.1974,170.1907,287.3424,171.3574,288.2195,172.2738,288.6526,172.4245,288.7376,171.7473,289.6545,171.0696,290.5712,170.4442,291.5174,169.9367,292.5301,169.4956,293.5802,169.6397,293.7547,171.1692,292.5133,172.4883,291.0173,174.1589,289.9467,175.4439,288.4093,177.09,287.3092" style="stroke: #A80036; stroke-width: 1.0;"/><path d="M62.05,372.1992 L62.05,371.298 L72.964,372.0472 L83.878,372.9078 L94.792,372.7077 L105.706,372.5678 L116.62,372.1992 " fill="none" style="stroke: #A80036; stroke-width: 1.0;"/><polygon fill="#A80036" points="121.73,372.1992,121.7768,372.3046,119.922,371.3812,118.1793,370.7102,116.2779,369.682,114.556,369.0578,112.73,368.1992,112.8718,368.341,113.7063,369.1755,114.3721,369.8413,115.2544,370.7237,115.9637,371.4329,116.73,372.1992,116.6849,372.1542,115.928,372.9973,115.0293,373.6985,114.2747,374.5439,113.436,375.3052,112.73,376.1992,112.658,376.0373,114.5517,375.448,116.3151,374.5657,118.0742,373.6737,119.8427,372.8028,121.73,372.1992" style="stroke: #A80036; stroke-width: 1.0;"/><path d="M62.05,400.7592 L61.8724,400.5578 L63.7727,402.2998 L65.2785,403.5944 L66.9821,405.1133 L68.6727,406.6175 L70.242,407.9842 L70.3525,408.1228 L71.891,409.2457 L73.6433,410.6369 L75.612,412.2994 L77.2255,413.5165 L79.0688,415.0217 L79.2365,415.2612 L80.7534,416.0732 L82.6521,417.4303 L84.7307,419.0443 L86.5593,420.3014 L88.3736,421.538 L88.459,421.6832 L90.4161,422.8696 L92.3046,423.9393 L94.1329,424.9067 L96.1383,426.1751 L98,427.1992 L98.0955,427.397 L101.6302,429.1105 L105.0923,430.6735 L108.4915,432.1063 L112.0959,433.9641 L115.6506,435.7191 L115.5343,435.4349 L119.465,437.537 L123.0184,438.7178 L126.6313,440.0436 L130.2847,441.4685 L134.0925,443.2705 L133.9897,442.9883 L135.9953,444.0111 L137.797,444.4741 L139.6553,445.0925 L141.639,446.0551 L143.507,446.7003 L143.4032,446.3931 L145.3424,447.1575 L147.2677,447.8809 L149.2066,448.6444 L151.1885,449.5349 L152.9956,449.9088 L153.0889,450.2158 L156.8089,451.0858 L160.593,452.167 L164.5107,453.6879 L168.2144,454.5043 L172.03,455.6892 " fill="none" style="stroke: #A80036; stroke-width: 1.0;"/><polygon fill="#A80036" points="177.09,457.0892,177.1842,457.2033,175.5666,455.8295,173.9619,454.4713,172.5052,453.2925,170.8848,451.9154,169.4956,450.8182,169.3215,450.72,170.1725,451.8721,170.4351,452.6924,171.3704,453.892,171.9111,454.8691,172.2738,455.7458,172.228,455.6645,171.2824,456.291,170.3007,456.8534,169.3243,457.4252,168.2511,457.8254,167.3462,458.5241,167.3208,458.3513,169.296,458.2443,171.2229,457.8087,173.1633,457.4652,175.1522,457.4507,177.09,457.0892" style="stroke: #A80036; stroke-width: 1.0;"/><path d="M41.16,413.8392 L41.2503,413.86 L41.6681,416.5984 L42.2408,419.3725 L43.0236,422.1948 L43.5317,424.954 L44.3632,427.7875 L44.4226,427.8039 L45.1625,430.7607 L45.9507,433.7308 L46.7552,436.7054 L47.4551,439.6512 L48.4705,442.6839 L48.2647,442.6157 L49.4249,445.7486 L50.3205,448.7938 L51.766,452.0213 L52.831,455.1227 L53.5872,458.1217 L53.6708,458.1551 L55.1178,461.3499 L56.1517,464.3794 L57.5379,467.55 L58.6245,470.6005 L59.8187,473.6942 L59.7539,473.6627 L61.0947,476.65 L62.8081,479.8187 L64.2136,482.8375 L65.5817,485.8381 L67.2704,488.9949 L67.101,488.8931 L69.2543,492.0564 L70.8221,494.8682 L72.3854,497.6773 L74.2897,500.6911 L76.0477,503.617 L76.01,503.5886 L77.9956,506.2538 L80.0136,508.9434 L81.941,511.5647 L84.1844,514.4243 L86.2557,517.154 L86.049,516.9525 L88.5058,519.4667 L90.7893,521.8121 L93.2814,524.3608 L95.8519,526.9859 L98,529.1992 L97.8278,528.9826 L100.4128,531.0898 L102.8246,532.9791 L105.5288,535.236 L107.8444,537.0044 L110.3683,539.0347 L110.3284,538.9725 L112.9361,540.5823 L115.8366,542.6487 L118.4144,544.2118 L121.2403,546.1619 L123.7463,547.613 L123.7118,547.547 L126.6048,549.1422 L129.3431,550.4414 L132.2215,552.0087 L135.1422,553.6568 L137.9136,555.0194 L137.865,554.906 L140.7639,556.0571 L143.8909,557.7402 L146.8008,558.917 L149.773,560.2391 L152.65,561.3392 " fill="none" style="stroke: #A80036; stroke-width: 1.0;"/><polygon fill="#A80036" points="157.47,563.1492,157.314,562.9906,156.1607,561.8649,154.7857,560.5138,153.362,559.1132,151.8627,557.6358,150.4475,556.2438,150.5541,556.2922,150.9626,557.2951,151.5383,558.3739,151.969,559.3868,152.1355,560.2797,152.7884,561.3936,152.852,561.5337,151.7553,561.8551,150.7522,562.3822,149.627,562.6408,148.6562,563.2392,147.6385,563.7344,147.6346,563.6688,149.6138,563.7676,151.5636,563.3736,153.5283,563.2302,155.5154,563.4633,157.47,563.1492" style="stroke: #A80036; stroke-width: 1.0;"/><path d="M39.75,413.8292 L39.8786,413.8465 L40.1728,419.2391 L41.0292,424.7071 L41.7131,430.1519 L42.6311,435.6282 L43.4034,441.0849 L43.2249,441.0588 L44.1127,444.1506 L44.4807,447.1663 L44.6309,450.1501 L45.2387,453.201 L45.6189,456.2185 L45.6741,456.2271 L45.8993,459.353 L46.3757,462.5182 L46.9512,465.6989 L47.7728,468.918 L48.0936,472.0589 L48.2217,472.0804 L48.6908,475.3323 L48.8664,478.535 L49.7826,481.8618 L50.2467,485.1129 L50.8274,488.3834 L50.9731,488.4097 L51.1571,491.6521 L51.8836,494.9923 L52.3274,498.2816 L53.5116,501.7045 L53.8204,504.9693 L54.14,505.0319 L54.5118,508.3023 L55.2252,511.6395 L55.7705,514.9438 L56.238,518.2329 L57.0725,521.5938 L56.9932,521.5769 L57.916,524.9121 L58.7609,528.2306 L59.4462,531.5151 L60.1727,534.8083 L60.5838,538.0342 L60.3729,537.9846 L61.6197,541.3072 L62.3144,544.5 L62.9789,547.6856 L63.5091,550.8396 L64.3541,554.0677 L64.5222,554.1117 L65.4824,557.2328 L65.7884,560.1829 L66.9893,563.367 L67.5941,566.3951 L68.3835,569.4716 L68.4235,569.4834 L68.9493,572.2959 L70.3656,575.3708 L70.8353,578.1668 L71.9258,581.1457 L72.672,584.0231 L72.8013,584.0668 L73.6623,586.7457 L74.6505,589.4675 L75.1315,592.0182 L76.5254,594.8769 L77.2195,597.4995 L77.0228,597.4219 L78.4601,600.0455 L78.8389,602.2513 L80.3323,604.897 L80.8145,607.1436 L82.0261,609.6781 L82.0467,609.6879 L83.1019,611.8395 L84.2578,614.0389 L84.9061,615.9971 L86.0462,618.1891 L87.0917,620.3361 L86.8356,620.1599 L89.0991,623.3888 L91.2706,626.5545 L93.5815,629.816 L95.9,633.0827 L98,636.1992 L97.9774,636.1744 L100.1133,638.1021 L102.3173,640.1046 L104.6125,642.207 L107.1386,644.5626 L109.2188,646.4292 L109.2878,646.5249 L111.6218,648.1235 L114.0798,649.8938 L116.5069,651.6214 L119.138,653.6315 L121.54,655.3242 L121.4022,655.0862 L124.1923,656.8707 L126.9591,658.615 L129.577,660.1021 L131.9702,661.201 L134.7538,662.9742 L134.7284,662.9199 L137.59,664.3952 L140.3143,665.5766 L142.9896,666.6532 L145.8851,668.2008 L148.65,669.4692 " fill="none" style="stroke: #A80036; stroke-width: 1.0;"/><polygon fill="#A80036" points="153.48,671.4192,153.4191,671.3602,152.0413,669.9381,150.6152,668.4693,149.4864,667.2883,147.9258,665.6893,146.628,664.3446,146.5469,664.3101,147.1378,665.4142,147.2912,666.332,147.9944,667.4838,148.5659,668.5796,148.8426,669.55,148.7745,669.39,147.7465,669.8636,146.7025,670.2998,145.7075,670.8508,144.686,671.3398,143.6372,671.7645,143.6379,671.7856,145.6036,671.6334,147.5744,671.6277,149.5502,671.7672,151.5173,671.6546,153.48,671.4192" style="stroke: #A80036; stroke-width: 1.0;"/></g></svg>